<?xml version="1.0" encoding="UTF-8" standalone="no"?>
<!-- Created with Inkscape (http://www.inkscape.org/) -->

<svg
   xmlns:dc="http://purl.org/dc/elements/1.1/"
   xmlns:cc="http://creativecommons.org/ns#"
   xmlns:rdf="http://www.w3.org/1999/02/22-rdf-syntax-ns#"
   xmlns:svg="http://www.w3.org/2000/svg"
   xmlns="http://www.w3.org/2000/svg"
   xmlns:sodipodi="http://sodipodi.sourceforge.net/DTD/sodipodi-0.dtd"
   xmlns:inkscape="http://www.inkscape.org/namespaces/inkscape"
   width="500"
   height="200"
   viewBox="0 0 132.29166 52.916668"
   version="1.1"
   id="svg8"
   sodipodi:docname="1980s.svg"
   inkscape:version="0.92.5 (2060ec1f9f, 2020-04-08)">
  <defs
     id="defs2" />
  <sodipodi:namedview
     id="base"
     pagecolor="#ffffff"
     bordercolor="#666666"
     borderopacity="1.0"
     inkscape:pageopacity="0.0"
     inkscape:pageshadow="2"
     inkscape:zoom="2.9381346"
     inkscape:cx="456.89167"
     inkscape:cy="70.18802"
     inkscape:document-units="mm"
     inkscape:current-layer="layer1"
     showgrid="false"
     units="px"
     inkscape:pagecheckerboard="true"
     inkscape:window-width="1366"
     inkscape:window-height="739"
     inkscape:window-x="0"
     inkscape:window-y="0"
     inkscape:window-maximized="1" />
  <metadata
     id="metadata5">
    <rdf:RDF>
      <cc:Work
         rdf:about="">
        <dc:format>image/svg+xml</dc:format>
        <dc:type
           rdf:resource="http://purl.org/dc/dcmitype/StillImage" />
        <dc:title />
      </cc:Work>
    </rdf:RDF>
  </metadata>
  <g
     inkscape:label="Layer 1"
     inkscape:groupmode="layer"
     id="layer1"
     transform="translate(0,-244.08332)">
    <g
       transform="matrix(0.26458333,0,0,0.26458333,0,244.08332)"
       style="font-style:normal;font-weight:normal;font-size:40px;line-height:125%;font-family:sans-serif;letter-spacing:0px;word-spacing:0px;fill:#ffffff;fill-opacity:1;stroke:none;stroke-width:1px;stroke-linecap:butt;stroke-linejoin:miter;stroke-opacity:1"
       id="flowRoot18" />
    <g
       aria-label="games"
       transform="matrix(0.47947529,0,0,0.47947529,41.483854,210.22057)"
       style="font-style:normal;font-weight:normal;font-size:40px;line-height:125%;font-family:sans-serif;letter-spacing:0px;word-spacing:0px;fill:#ffffff;fill-opacity:1;stroke:none;stroke-width:1px;stroke-linecap:butt;stroke-linejoin:miter;stroke-opacity:1"
       id="flowRoot21">
      <path
         d="m 62.083984,167.34532 v -5.70312 h 8.828125 v 14.10156 h -12.5 q -4.589843,0 -8.300781,-1.62109 -3.710937,-1.64063 -5.859375,-4.90235 -2.128906,-3.26172 -2.128906,-7.98828 0,-3.32031 1.269531,-5.91797 1.289063,-2.61718 3.554688,-4.33593 2.265625,-1.73829 5.195312,-2.57813 2.949219,-0.85937 6.269531,-0.85937 h 7.734375 4.765625 v 8.39843 h -8.828125 q -2.96875,0 -4.394531,0.17578 -1.425781,0.17579 -2.539062,0.58594 -1.113282,0.41016 -1.972657,1.42578 -0.859375,1.01563 -0.996093,3.59375 0.09766,2.5 0.996093,3.57422 0.898438,1.07422 2.1875,1.42578 1.289063,0.35157 2.65625,0.48828 1.367188,0.13672 4.0625,0.13672 z"
         style="font-style:normal;font-variant:normal;font-weight:normal;font-stretch:normal;font-family:'Star Jedi';-inkscape-font-specification:'Star Jedi';fill:#ffffff;fill-opacity:1"
         id="path876" />
      <path
         d="m 69.349609,175.74376 9.277344,-28.20312 h 14.003906 l 9.433591,28.20312 H 91.400391 l -1.777344,-5.07812 h -8.378906 l -1.777344,5.07812 z m 16.308594,-21.95312 -4.042969,11.17187 h 7.773438 z"
         style="font-style:normal;font-variant:normal;font-weight:normal;font-stretch:normal;font-family:'Star Jedi';-inkscape-font-specification:'Star Jedi';fill:#ffffff;fill-opacity:1"
         id="path878" />
      <path
         d="m 101.2832,175.74376 v -28.20312 h 9.17969 l 6.17188,11.71875 6.13281,-11.71875 h 9.17969 v 28.20312 h -9.17969 v -11.71875 l -5.89844,11.71875 h -0.50781 l -5.89844,-11.71875 v 11.71875 z"
         style="font-style:normal;font-variant:normal;font-weight:normal;font-stretch:normal;font-family:'Star Jedi';-inkscape-font-specification:'Star Jedi';fill:#ffffff;fill-opacity:1"
         id="path880" />
      <path
         d="m 133.90039,175.74376 v -28.20312 h 24.17969 v 8.39843 h -15 v 3.24219 h 9.6875 v 4.92188 h -9.6875 v 3.24218 h 17.38281 v 8.39844 z"
         style="font-style:normal;font-variant:normal;font-weight:normal;font-stretch:normal;font-family:'Star Jedi';-inkscape-font-specification:'Star Jedi';fill:#ffffff;fill-opacity:1"
         id="path882" />
      <path
         d="m 182.65039,155.93907 h -6.875 q -5.01953,-0.15625 -1.48437,2.77344 6.32812,5.54688 6.21093,10.78125 -0.11718,5.23438 -6.21093,6.25 h -15 v -8.39844 h 5.9375 q 5.52734,0.15625 1.40625,-3.08593 -6.79688,-6.25 -5.78125,-11.48438 1.01562,-5.23437 6.40625,-5.23437 h 15.39062 z"
         style="font-style:normal;font-variant:normal;font-weight:normal;font-stretch:normal;font-family:'Star Jedi';-inkscape-font-specification:'Star Jedi';fill:#ffffff;fill-opacity:1"
         id="path884" />
    </g>
    <g
       aria-label="1980's"
       transform="matrix(0.95000245,0,0,0.95000245,-36.54213,110.66385)"
       style="font-style:normal;font-weight:normal;font-size:40px;line-height:125%;font-family:sans-serif;letter-spacing:0px;word-spacing:0px;fill:#ffffff;fill-opacity:1;stroke:none;stroke-width:1px;stroke-linecap:butt;stroke-linejoin:miter;stroke-opacity:1"
       id="flowRoot21-2">
      <path
         d="m 44.251953,161.97423 -2.851562,-7.34375 10.527343,-7.08984 h 8.59375 v 28.20312 H 50.443359 v -18.32031 z"
         style="font-style:normal;font-variant:normal;font-weight:normal;font-stretch:normal;font-family:'Star Jedi';-inkscape-font-specification:'Star Jedi';fill:#ffffff;fill-opacity:1"
         id="path887" />
      <path
         d="m 65.931641,175.47032 v -6.52343 q 1.09375,0.29296 2.03125,0.50781 0.9375,0.21484 2.1875,0.35156 1.25,0.13672 2.734375,0.13672 2.695312,0 4.589843,-1.32813 1.894532,-1.32812 1.894532,-4.3164 -2.148438,1.71875 -6.289063,1.71875 -2.519531,0 -4.746094,-1.03516 -2.226562,-1.05469 -3.59375,-3.125 -1.367187,-2.07031 -1.367187,-4.88281 0,-2.5 1.015625,-4.375 1.035156,-1.89453 2.792969,-3.10547 1.757812,-1.23047 3.945312,-1.81641 2.1875,-0.60546 4.609375,-0.60546 3.027344,0 5.566406,1.01562 2.539063,0.99609 4.355469,2.87109 1.816406,1.85547 2.792969,4.45313 0.996094,2.57812 0.996094,5.60547 0,4.84375 -1.914063,8.30078 -1.914062,3.4375 -5.3125,5.17578 -3.378906,1.73828 -7.773437,1.73828 -4.863282,0 -8.515625,-0.76172 z m 6.640625,-18.49609 q 0,1.66016 0.9375,2.67578 0.9375,1.01563 2.5,1.01563 1.660156,0 2.5,-1.03516 0.859375,-1.03516 0.859375,-2.89063 0,-1.58203 -0.859375,-2.59765 -0.859375,-1.03516 -2.5,-1.03516 -1.582032,0 -2.519532,1.09375 -0.917968,1.07422 -0.917968,2.77344 z"
         style="font-style:normal;font-variant:normal;font-weight:normal;font-stretch:normal;font-family:'Star Jedi';-inkscape-font-specification:'Star Jedi';fill:#ffffff;fill-opacity:1"
         id="path889" />
      <path
         d="m 90.580078,168.22423 q 0,-5.50781 5.585938,-6.83594 v -0.0781 q -1.738282,-0.58594 -2.871094,-1.38672 -1.113281,-0.82031 -1.679688,-2.08985 -0.566406,-1.26953 -0.566406,-3.04687 0,-2.1875 1.074219,-3.67188 1.09375,-1.5039 2.929687,-2.38281 1.855469,-0.89844 4.0625,-1.26953 2.207036,-0.39062 4.609376,-0.39062 3.35937,0 6.17187,0.72265 2.83204,0.70313 4.60938,2.44141 1.77734,1.71875 1.77734,4.55078 0,2.59766 -1.28906,4.12109 -1.26953,1.52344 -3.75,2.44141 v -0.0391 0.0781 q 2.57813,0.64453 4.14063,2.36328 1.58203,1.69922 1.58203,4.47266 0,2.22656 -1.17188,3.78906 -1.15234,1.5625 -3.04687,2.48047 -1.89453,0.91797 -4.25782,1.32813 -2.36328,0.41015 -4.76562,0.41015 -3.26172,0 -6.250001,-0.76172 -2.988281,-0.76172 -4.941406,-2.53906 -1.953125,-1.77734 -1.953125,-4.70703 z m 16.308592,-1.60156 q 0,-1.60157 -0.78125,-2.59766 -0.78125,-0.99609 -2.38281,-0.99609 -1.60156,0 -2.34375,1.01562 -0.72266,0.9961 -0.72266,2.65625 0,1.64063 0.74219,2.69531 0.74219,1.03516 2.32422,1.03516 1.60156,0 2.38281,-1.05469 0.78125,-1.07422 0.78125,-2.7539 z m -6.15234,-11.11328 q 0,1.46484 0.78125,2.38281 0.80078,0.91797 2.20703,0.9375 1.34766,0 2.10937,-0.91797 0.78125,-0.9375 0.78125,-2.32422 0,-1.34766 -0.78125,-2.26562 -0.76171,-0.9375 -2.10937,-0.9375 -1.38672,0 -2.1875,0.91796 -0.80078,0.89844 -0.80078,2.20704 z"
         style="font-style:normal;font-variant:normal;font-weight:normal;font-stretch:normal;font-family:'Star Jedi';-inkscape-font-specification:'Star Jedi';fill:#ffffff;fill-opacity:1"
         id="path891" />
      <path
         d="m 118.37305,161.66173 q 0,-3.16406 0.89843,-5.82031 0.91797,-2.67578 2.67579,-4.64844 1.77734,-1.99219 4.375,-3.04688 2.59765,-1.07421 5.97656,-1.07421 3.18359,0 5.74219,1.01562 2.57812,1.01563 4.375,2.96875 1.8164,1.93359 2.7539,4.62891 0.95703,2.67578 0.95703,5.97656 0,4.39453 -1.58203,7.69531 -1.58203,3.28125 -4.72656,5.07813 -3.125,1.79687 -7.51953,1.79687 -4.375,0 -7.53906,-1.8164 -3.14454,-1.83594 -4.76563,-5.15625 -1.62109,-3.32032 -1.62109,-7.59766 z m 10.48828,0 q 0,2.10937 0.0781,3.4375 0.0781,1.32812 0.3711,2.42187 0.3125,1.09375 1.03515,1.75782 0.74219,0.66406 1.95313,0.66406 1.54297,0 2.28515,-1.09375 0.74219,-1.11328 0.89844,-2.73438 0.17578,-1.64062 0.17578,-4.45312 0,-2.92969 -0.17578,-4.57031 -0.15625,-1.64063 -0.89844,-2.69532 -0.72265,-1.05468 -2.28515,-1.05468 -1.60156,0 -2.36328,1.07422 -0.74219,1.05468 -0.91797,2.69531 -0.15625,1.62109 -0.15625,4.55078 z"
         style="font-style:normal;font-variant:normal;font-weight:normal;font-stretch:normal;font-family:'Star Jedi';-inkscape-font-specification:'Star Jedi';fill:#ffffff;fill-opacity:1"
         id="path893" />
      <path
         d="m 150.38477,159.86485 v -12.32421 h 5.99609 v 12.32421 z"
         style="font-style:normal;font-variant:normal;font-weight:normal;font-stretch:normal;font-family:'Star Jedi';-inkscape-font-specification:'Star Jedi';fill:#ffffff;fill-opacity:1"
         id="path895" />
      <path
         d="m 172.26036,165.09576 h -3.69635 q -2.69876,-0.084 -0.79808,1.49114 3.40232,2.98228 3.33932,5.79654 -0.063,2.81427 -3.33932,3.36032 h -8.06476 v -4.51542 h 3.1923 q 2.97178,0.084 0.75607,-1.65916 -3.65434,-3.36032 -3.10829,-6.17458 0.54605,-2.81427 3.44433,-2.81427 h 8.27478 z"
         style="font-size:21.50602722px;fill:#ffffff;fill-opacity:1"
         id="path897" />
    </g>
  </g>
</svg>
