<?xml version="1.0" encoding="UTF-8" standalone="no"?>
<svg
   xmlns:dc="http://purl.org/dc/elements/1.1/"
   xmlns:cc="http://creativecommons.org/ns#"
   xmlns:rdf="http://www.w3.org/1999/02/22-rdf-syntax-ns#"
   xmlns:svg="http://www.w3.org/2000/svg"
   xmlns="http://www.w3.org/2000/svg"
   xmlns:sodipodi="http://sodipodi.sourceforge.net/DTD/sodipodi-0.dtd"
   xmlns:inkscape="http://www.inkscape.org/namespaces/inkscape"
   width="443.09637"
   height="149.33635"
   viewBox="0 0 443.09637 149.33635"
   version="1.1"
   id="svg25"
   sodipodi:docname="3do.svg"
   style="fill:none"
   inkscape:version="0.92.5 (2060ec1f9f, 2020-04-08)">
  <metadata
     id="metadata29">
    <rdf:RDF>
      <cc:Work
         rdf:about="">
        <dc:format>image/svg+xml</dc:format>
        <dc:type
           rdf:resource="http://purl.org/dc/dcmitype/StillImage" />
        <dc:title />
      </cc:Work>
    </rdf:RDF>
  </metadata>
  <sodipodi:namedview
     pagecolor="#ffffff"
     bordercolor="#666666"
     borderopacity="1"
     objecttolerance="10"
     gridtolerance="10"
     guidetolerance="10"
     inkscape:pageopacity="0"
     inkscape:pageshadow="2"
     inkscape:window-width="1366"
     inkscape:window-height="740"
     id="namedview27"
     showgrid="false"
     inkscape:pagecheckerboard="true"
     inkscape:zoom="0.98409518"
     inkscape:cx="211.29123"
     inkscape:cy="176.75"
     inkscape:window-x="0"
     inkscape:window-y="0"
     inkscape:window-maximized="1"
     inkscape:current-layer="svg25" />
  <path
     d="m 142.31422,68.956575 v 0.34039 c 15.28072,0.28449 26.56355,3.32194 33.8435,9.11253 7.28328,5.78559 10.92743,12.78772 10.92743,20.99605 0,9.160925 -4.13971,16.726695 -12.43748,22.679805 -8.27942,5.97095 -19.31531,8.95268 -33.06779,8.95268 -11.88819,0 -21.07047,-2.38238 -27.57487,-7.1266 -6.50423,-4.74423 -9.75643,-10.14104 -9.75643,-16.21863 0,-4.02807 1.45582,-7.29678 4.37264,-9.767935 2.91165,-2.47114 6.4103,-3.69537 10.48059,-3.69537 3.82135,0 7.10642,1.08707 9.82518,3.23068 2.73628,2.16896 4.08548,5.026045 4.08548,8.561395 0,4.72388 -3.16326,8.68338 -9.50498,11.88085 -1.23991,0.6222 -1.88014,1.33085 -1.88014,2.11557 0,1.45533 1.77336,2.73278 5.34575,3.84021 3.55454,1.09959 7.17766,1.63302 10.9074,1.63302 12.20756,0 18.31952,-8.96787 18.31952,-26.905935 0,-17.76054 -7.34169,-26.63931 -21.99603,-26.63931 l -12.17268,0.49257 c -2.45179,0 -3.69421,-0.90154 -3.69421,-2.71242 0,-2.07737 1.29564,-3.123723 3.87207,-3.123723 l 8.86476,0.337716 c 9.04495,0 15.09967,-2.00895 18.17651,-6.042045 3.08684,-4.012724 4.61692,-9.732234 4.61692,-17.153343 0,-7.639524 -1.15631,-13.270262 -3.48396,-16.858845 -2.32765,-3.606436 -6.3237,-5.396972 -11.97446,-5.396972 -3.07166,0 -5.96813,0.513083 -8.67153,1.55944 -2.70074,1.031173 -4.0703,2.044493 -4.0703,3.057812 0,0.934563 0.89185,1.917515 2.66787,2.928331 4.65212,2.966374 6.99963,6.181699 6.99963,9.643303 0,3.41088 -1.29564,6.105613 -3.91012,8.134922 -2.6093,2.003779 -5.54396,3.017098 -8.81386,3.017098 -3.76544,0 -7.12677,-1.155481 -10.07412,-3.441248 -2.95236,-2.311129 -4.44639,-5.150693 -4.44639,-8.581763 0,-5.823624 3.29041,-10.867528 9.86072,-15.114026 6.57547,-4.261681 14.99555,-6.392438 25.30345,-6.392438 11.38729,0 20.9832,2.412744 28.79709,7.230558 7.83557,4.812808 11.74503,10.971648 11.74503,18.522237 0.0217,14.844886 -13.82073,23.820264 -41.48219,26.903436 z"
     id="path2"
     inkscape:connector-curvature="0"
     style="fill:#ffffff;stroke-width:1.6685648" />
  <path
     d="M 240.22893,21.826797 V 123.94714 h 10.00472 c 15.29907,0 24.53625,-4.0129 27.7182,-12.02318 3.18028,-8.02563 4.76375,-21.737565 4.76375,-41.148815 0,-15.185107 -0.98111,-26.108533 -2.93166,-32.737241 -1.93721,-6.636382 -4.90392,-11.007187 -8.86509,-13.082214 -3.96618,-2.080034 -9.00691,-3.12639 -15.10218,-3.12639 H 240.22893 Z M 209.33379,123.94714 V 21.826797 H 193.3089 v -5.526453 h 64.20636 c 18.57113,0 33.27953,5.257147 44.10018,15.789461 10.81897,10.51713 16.23846,23.799907 16.23846,39.83832 0,8.30745 -1.64687,16.1452 -4.95396,23.44184 -3.30543,7.316985 -8.38788,13.978715 -15.24567,19.959705 -6.85948,5.98631 -13.89414,9.83903 -21.10735,11.56349 -7.21654,1.72195 -16.06327,2.58043 -26.58525,2.58043 h -56.65611 v -5.52645 z"
     id="path4"
     inkscape:connector-curvature="0"
     style="fill:#ffffff;stroke-width:1.6685648" />
  <path
     d="m 407.94806,73.346745 c 0,-17.331223 -0.36041,-28.755051 -1.06955,-34.255975 -0.72416,-5.526621 -2.57626,-9.966005 -5.55966,-13.343848 -2.98506,-3.370166 -7.90399,-5.059088 -14.74844,-5.059088 -5.77156,0 -10.37513,1.368891 -13.80737,4.086315 -3.43224,2.732776 -5.55966,7.103749 -6.4123,13.125431 -0.83428,6.016678 -1.25976,17.778225 -1.25976,35.271965 0,17.31336 0.3554,28.787735 1.08122,34.382935 0.71248,5.59504 2.633,10.05477 5.74488,13.37672 3.1102,3.32195 7.99409,4.97282 14.65834,4.97282 5.52629,0 10.03475,-1.32834 13.51871,-3.99754 3.48396,-2.68189 5.66645,-7.01482 6.5391,-13.03649 0.88769,-6.02669 1.31483,-17.869505 1.31483,-35.523245 z m -77.99873,-0.48005 c 0,-16.927426 5.57468,-30.779183 16.77576,-41.560281 11.16937,-10.758405 24.58963,-16.140027 40.22075,-16.140027 14.51985,0 27.50629,5.059088 38.96433,15.185107 11.46637,10.12335 17.18621,24.526234 17.18621,43.195811 0,17.49624 -5.40114,31.523185 -16.24347,42.073355 -10.83901,10.545 -24.07573,15.8225 -39.70851,15.8225 -16.89589,0 -30.66656,-5.61539 -41.27195,-16.80028 -10.61041,-11.19523 -15.92312,-25.115565 -15.92312,-41.776185 z"
     id="path6"
     inkscape:connector-curvature="0"
     style="fill:#ffffff;stroke-width:1.6685648" />
  <path
     d="m 0,145.1379 c 0,-2.32064 10.721863,-4.20311 23.95475,-4.20311 13.23272,0 23.954584,1.88247 23.954584,4.20311 0,2.32081 -10.721864,4.19845 -23.954584,4.19845 C 10.721863,149.33635 0,147.45637 0,145.1379 Z"
     id="path8"
     inkscape:connector-curvature="0"
     style="fill:#cccccc;stroke-width:1.6685648" />
  <path
     d="m 3.592921,105.52918 c 0,-11.273655 9.113367,-20.406545 20.361495,-20.406545 11.24813,0 20.361496,9.13289 20.361496,20.406545 0,11.26882 -9.115703,20.40637 -20.361496,20.40637 -11.250464,-0.002 -20.361495,-9.13972 -20.361495,-20.40637 z"
     id="path10"
     inkscape:connector-curvature="0"
     style="fill:#ffffff;stroke-width:1.6685648" />
  <path
     d="m 4.989176,52.314646 c -2.995574,1.997772 -3.793983,13.601139 -3.793983,13.601139 0,0 0.798409,11.60353 3.793983,13.60131 2.993238,1.99994 18.96524,3.20414 18.96524,3.20414 0,0 15.97217,-1.20186 18.963072,-3.20414 2.997744,-1.99778 3.796153,-13.60131 3.796153,-13.60131 0,0 -0.796073,-11.603367 -3.796153,-13.601139 -2.990902,-2.002445 -18.963072,-3.204145 -18.963072,-3.204145 0,0 -15.972002,1.2017 -18.96524,3.204145 z"
     id="path12"
     inkscape:connector-curvature="0"
     style="fill:#ffffff;stroke-width:1.6685648" />
  <path
     d="M 23.954249,0 47.805215,23.905829 23.954249,47.804849 0.103451,23.905829 Z"
     id="path14"
     inkscape:connector-curvature="0"
     style="fill:#ffffff;stroke-width:1.6685648" />
  <defs
     id="defs23">
    <radialGradient
       id="paint0_radial"
       cx="0"
       cy="0"
       r="1"
       gradientUnits="userSpaceOnUse"
       gradientTransform="matrix(24.58697,0,0,24.577125,42.645132,132.87604)">
      <stop
         offset="0.5225"
         stop-color="white"
         id="stop16" />
      <stop
         offset="0.8933"
         stop-color="#757575"
         id="stop18" />
      <stop
         offset="1"
         stop-color="#4D4D4D"
         id="stop20" />
    </radialGradient>
  </defs>
</svg>
