<?xml version="1.0" encoding="UTF-8" standalone="no"?>
<svg
   xmlns:dc="http://purl.org/dc/elements/1.1/"
   xmlns:cc="http://creativecommons.org/ns#"
   xmlns:rdf="http://www.w3.org/1999/02/22-rdf-syntax-ns#"
   xmlns:svg="http://www.w3.org/2000/svg"
   xmlns="http://www.w3.org/2000/svg"
   xmlns:sodipodi="http://sodipodi.sourceforge.net/DTD/sodipodi-0.dtd"
   xmlns:inkscape="http://www.inkscape.org/namespaces/inkscape"
   width="445.4187"
   height="157.00037"
   viewBox="0 0 445.4187 157.00037"
   version="1.1"
   id="svg30"
   sodipodi:docname="3ds.svg"
   style="fill:none"
   inkscape:version="0.92.5 (2060ec1f9f, 2020-04-08)">
  <metadata
     id="metadata36">
    <rdf:RDF>
      <cc:Work
         rdf:about="">
        <dc:format>image/svg+xml</dc:format>
        <dc:type
           rdf:resource="http://purl.org/dc/dcmitype/StillImage" />
        <dc:title />
      </cc:Work>
    </rdf:RDF>
  </metadata>
  <defs
     id="defs34" />
  <sodipodi:namedview
     pagecolor="#ffffff"
     bordercolor="#666666"
     borderopacity="1"
     objecttolerance="10"
     gridtolerance="10"
     guidetolerance="10"
     inkscape:pageopacity="0"
     inkscape:pageshadow="2"
     inkscape:window-width="1366"
     inkscape:window-height="740"
     id="namedview32"
     showgrid="false"
     inkscape:pagecheckerboard="true"
     inkscape:zoom="2.1293945"
     inkscape:cx="284.90834"
     inkscape:cy="15.23394"
     inkscape:window-x="0"
     inkscape:window-y="0"
     inkscape:window-maximized="1"
     inkscape:current-layer="svg30" />
  <path
     d="m 437.28447,87.349331 c 0,1.04045 -0.85864,1.8919 -1.90255,1.8919 h -36.30197 c -1.05497,0 -1.89978,-0.85145 -1.89978,-1.8919 V 61.090515 c 0,-1.043914 0.84481,-1.88831 1.89978,-1.88831 h 36.30197 c 1.04391,0 1.90255,0.844396 1.90255,1.88831 z m -1.57486,-36.024742 h -36.96426 c -5.35231,0 -9.69942,4.378773 -9.69942,9.712555 v 26.372747 c 0,5.32659 4.34711,9.7019 9.69942,9.7019 h 36.96426 c 5.35231,0 9.7091,-4.37531 9.7091,-9.7019 V 61.037144 c 0,-5.333782 -4.35679,-9.712555 -9.7091,-9.712555 z"
     id="path2"
     inkscape:connector-curvature="0"
     style="fill:#a1a2a2;stroke-width:1.38266861" />
  <path
     d="M 11.763357,11.868136 V 45.801519 H 3.280008 V 0 h 7.243441 L 44.866531,33.359714 V 0 h 6.783925 1.588963 v 45.801519 h -6.626992 z"
     id="path4"
     inkscape:connector-curvature="0"
     style="fill:#ffffff;stroke-width:1.38266861" />
  <path
     d="m 96.776475,11.868136 v 33.933383 h -8.47977 V 0 h 7.23634 L 129.87604,33.359714 V 0 h 6.79817 1.58191 v 45.801519 h -6.62354 z"
     id="path6"
     inkscape:connector-curvature="0"
     style="fill:#ffffff;stroke-width:1.38266861" />
  <path
     d="m 272.97091,11.868136 v 33.933383 h -8.47577 V 0 h 7.23551 L 306.0706,33.359714 V 0 h 6.79444 1.58592 v 45.801519 h -6.62022 z"
     id="path8"
     inkscape:connector-curvature="0"
     style="fill:#ffffff;stroke-width:1.38266861" />
  <path
     d="m 73.425965,0.001701 h 1.56767 V 45.799722 H 66.517462 V 0.001701 Z"
     id="path10"
     inkscape:connector-curvature="0"
     style="fill:#ffffff;stroke-width:1.38266861" />
  <path
     d="m 195.99912,0.001701 h 1.56103 V 7.879358 H 177.1091 v 37.920364 h -8.8076 V 7.879358 H 147.86428 V 0.001701 Z"
     id="path12"
     inkscape:connector-curvature="0"
     style="fill:#ffffff;stroke-width:1.38266861" />
  <path
     d="m 250.32418,0.001701 h 1.58868 v 7.877657 h -36.3462 v 10.279021 h 28.11518 v 7.877754 h -28.11519 v 11.875188 h 36.34621 v 7.888401 H 207.17661 V 0.001701 Z"
     id="path14"
     inkscape:connector-curvature="0"
     style="fill:#ffffff;stroke-width:1.38266861" />
  <path
     d="M 361.59719,37.909938 H 335.55187 V 7.877976 h 0.24335 25.80198 c 8.14945,0 11.04891,8.098552 11.04891,15.007056 0,6.937125 -2.89946,15.024906 -11.04892,15.024906 z M 375.51098,6.691521 C 372.20089,2.323367 367.29102,3.32e-4 361.35523,3.32e-4 h -33.97909 v 45.801464 h 33.97909 c 5.9358,0 10.84566,-2.319427 14.15575,-6.691148 3.10271,-4.072374 4.75224,-9.666236 4.75224,-16.225616 0,-6.523707 -1.64953,-12.142458 -4.75224,-16.193511 z"
     id="path16"
     inkscape:connector-curvature="0"
     style="fill:#ffffff;stroke-width:1.38266861" />
  <path
     d="m 437.28447,36.029371 c 0,1.033268 -0.85864,1.884853 -1.90255,1.884853 h -36.30197 c -1.05497,0 -1.89978,-0.851585 -1.89978,-1.884853 V 9.770572 c 0,-1.036808 0.84481,-1.881231 1.89978,-1.881231 h 36.30197 c 1.04391,0 1.90255,0.844423 1.90255,1.881231 z M 435.70961,0.001009 h -36.96426 c -5.35231,0 -9.69942,4.38241 -9.69942,9.716123 v 26.379989 c 0,5.330188 4.34711,9.705366 9.69942,9.705366 h 36.96426 c 5.35231,0 9.7091,-4.375178 9.7091,-9.705366 V 9.717132 c 0,-5.333713 -4.35679,-9.716123 -9.7091,-9.716123 z"
     id="path18"
     inkscape:connector-curvature="0"
     style="fill:#ffffff;stroke-width:1.38266861" />
  <path
     d="m 255.31943,137.55231 c 8.79792,3.47036 27.36025,6.28506 41.8437,6.28506 15.85783,0 22.43933,-5.44412 22.43933,-12.27436 0,-6.12813 -6.10725,-9.73026 -23.62289,-16.15068 -23.41134,-8.65439 -40.58132,-15.463209 -40.58132,-30.840829 0,-15.926296 20.65846,-25.293254 52.16809,-25.293254 16.91695,0 22.72416,1.068886 33.47441,3.039189 l 0.0747,15.110365 c -10.54976,-2.005833 -19.90213,-5.454817 -34.43259,-5.454817 -15.56609,0 -22.19736,4.941851 -22.19736,10.036847 0,7.39299 10.21238,10.9275 28.14006,17.31585 24.94749,8.932169 38.82948,15.822979 38.82948,30.879959 0,15.49156 -17.38015,26.67569 -56.5871,26.67569 -16.10394,0 -27.20262,-1.06175 -39.54847,-3.0463 z"
     id="path20"
     inkscape:connector-curvature="0"
     style="fill:#ffffff;stroke-width:1.38266861" />
  <path
     d="m 171.86156,72.631203 h -18.65497 v 70.628077 h 18.65497 c 28.64198,0 46.71069,-12.24589 46.71069,-35.1697 0,-22.916899 -18.06871,-35.458377 -46.71069,-35.458377 z m 50.09546,77.208747 c -9.23899,4.17939 -26.69103,6.83024 -41.96122,6.83024 H 121.67761 V 59.487542 h 58.31819 c 15.27019,0 32.72223,2.686442 41.96814,6.855077 22.46007,10.140132 29.79374,26.369342 29.79374,41.746961 0,15.38827 -7.26592,31.59246 -29.80066,41.75037 z"
     id="path22"
     inkscape:connector-curvature="0"
     style="fill:#ffffff;stroke-width:1.38266861" />
  <path
     d="m 80.796239,103.49235 c 0,0 27.206781,-4.357479 27.206781,-21.295719 0,-16.556947 -28.969684,-23.330087 -59.793514,-23.330087 -27.819292,0 -46.10785,3.399028 -46.10785,3.399028 v 15.042769 c 12.627912,-3.053484 24.702757,-5.654422 41.163427,-5.654422 17.664974,0 31.147375,5.269627 31.147375,12.716132 0,8.97863 -13.333073,14.1057 -42.024829,14.1057 H 19.201119 V 112.01125 H 31.45018 c 30.223752,0 47.411705,4.54635 47.411705,15.64129 0,9.90503 -15.355917,15.92281 -34.503111,15.92281 C 27.66305,143.57535 12.38871,140.01954 0,136.58126 v 16.22562 c 5.949623,1.02248 21.736933,4.19349 51.142146,4.19349 32.572906,0 60.916224,-10.47495 60.916224,-28.93814 0,-15.4845 -19.635265,-24.56988 -31.262131,-24.56988 z"
     id="path24"
     inkscape:connector-curvature="0"
     style="fill:#ffffff;stroke-width:1.38266861" />
  <path
     d="m 359.36802,143.43252 h -3.06676 v -1.64606 h 8.14114 v 1.64606 h -3.10685 v 9.13184 h -1.96753 z"
     id="path26"
     inkscape:connector-curvature="0"
     style="fill:#ffffff;stroke-width:1.38266861" />
  <path
     d="m 374.80275,148.16609 c -0.0608,-1.39304 -0.14241,-3.07118 -0.12444,-4.52492 h -0.0539 c -0.34844,1.31478 -0.79366,2.76838 -1.27482,4.12588 l -1.58593,4.67107 h -1.50296 l -1.43659,-4.60691 c -0.41618,-1.37534 -0.80195,-2.84678 -1.08678,-4.19004 h -0.0318 c -0.0498,1.40742 -0.11338,3.11764 -0.19634,4.59267 l -0.23782,4.33245 h -1.84309 l 0.72313,-10.78135 h 2.59112 l 1.41033,4.33245 c 0.37746,1.26487 0.72037,2.54757 0.99137,3.74828 h 0.0498 c 0.28482,-1.17223 0.65123,-2.50125 1.0688,-3.76252 l 1.48222,-4.31821 h 2.56208 l 0.62635,10.78135 h -1.92052 z"
     id="path28"
     inkscape:connector-curvature="0"
     style="fill:#ffffff;stroke-width:1.38266861" />
</svg>
