<?xml version="1.0" encoding="UTF-8" standalone="no"?>
<svg
   version="1.1"
   viewBox="0 0 500 200"
   id="svg14"
   sodipodi:docname="advision-mono.svg"
   width="500"
   height="200"
   inkscape:version="1.2.2 (b0a8486541, 2022-12-01)"
   xmlns:inkscape="http://www.inkscape.org/namespaces/inkscape"
   xmlns:sodipodi="http://sodipodi.sourceforge.net/DTD/sodipodi-0.dtd"
   xmlns="http://www.w3.org/2000/svg"
   xmlns:svg="http://www.w3.org/2000/svg">
  <defs
     id="defs18" />
  <sodipodi:namedview
     id="namedview16"
     pagecolor="#505050"
     bordercolor="#ffffff"
     borderopacity="1"
     inkscape:showpageshadow="0"
     inkscape:pageopacity="0"
     inkscape:pagecheckerboard="1"
     inkscape:deskcolor="#505050"
     showgrid="false"
     inkscape:zoom="1.1191667"
     inkscape:cx="318.09382"
     inkscape:cy="155.02606"
     inkscape:window-width="1670"
     inkscape:window-height="910"
     inkscape:window-x="0"
     inkscape:window-y="0"
     inkscape:window-maximized="1"
     inkscape:current-layer="svg14" />
  <path
     fill="#000000"
     d="m 256.60673,86.021646 -9.85758,-0.03176 a 0.39652411,0.40445459 0.6 0 0 -0.40446,0.404461 v 13.981443 a 0.67409098,0.67409098 0 0 1 -0.6741,0.6741 h -52.57908 a 0.67409098,0.6661605 0 0 1 -0.6741,-0.66615 l 0.0555,-13.743548 a 0.59478616,0.6185776 0 0 0 -0.59478,-0.618571 l -12.10985,0.0075 a 1.4354173,1.594027 18 0 0 -1.26095,0.729609 l -8.91385,13.91006 a 0.72960436,0.72167387 16.3 0 1 -0.61065,0.33308 l -19.16797,0.0476 a 0.6185776,0.59478616 0.4 0 1 -0.61859,-0.60272 l 0.13482,-10.595126 q 0.007,-0.769252 -0.51547,-0.222046 -10.95994,11.348522 -26.58298,11.380232 -20.12756,0.0396 -41.000598,0.0396 a 0.63443858,0.63443858 0 0 1 -0.634409,-0.63446 V 86.711592 A 0.5313423,0.5313423 0 0 0 80.066291,86.18025 h -8.644226 a 2.4267276,2.4425885 17.9 0 0 -1.97469,1.015107 l -9.603814,13.402513 a 1.118198,1.086476 17.3 0 1 -0.896144,0.45204 H 34.339109 q -0.563064,0 -0.237914,-0.45997 l 9.817937,-13.656293 q 0.547203,-0.753397 -0.388594,-0.745464 l -23.402854,0.190335 q -0.983378,0.0075 -0.444106,-0.824771 L 42.2458,50.842023 a 1.1975028,1.2054332 16.6 0 1 1.007171,-0.547204 H 69.145995 A 1.2847381,1.3005991 18.1 0 0 70.19282,49.755547 L 82.611953,32.332278 a 1.1102675,1.118198 17.6 0 1 0.912006,-0.475829 q 20.072061,0 39.303471,0.05551 15.9244,0.03965 25.5996,11.594365 0.84063,0.999241 0.82477,-0.333081 l -0.12689,-10.777528 a 0.39652411,0.42824604 89.5 0 1 0.42825,-0.404456 l 20.2148,-0.09516 a 0.39652411,0.40445459 0 0 1 0.39652,0.404455 l 0.0476,17.185355 a 0.86442255,0.90407497 88.7 0 0 0.94372,0.864422 l 6.71712,-0.253775 a 1.0547541,0.88028352 12.2 0 0 0.79305,-0.412385 L 190.0462,32.451232 a 1.332321,1.332321 0 0 1 1.11027,-0.594785 h 52.9439 a 0.82477014,0.83270063 72.8 0 1 0.68202,0.356871 l 12.08606,17.304313 a 0.91200545,0.64236906 67.1 0 0 0.61857,0.388593 l 6.22543,0.118957 a 0.6661605,0.72167387 0.3 0 0 0.67409,-0.721673 V 32.379861 a 0.52341182,0.52341182 0 0 1 0.52342,-0.523412 h 69.04277 a 0.65029953,0.63443858 89.6 0 1 0.63444,0.642368 l 0.11896,17.042607 a 0.40445459,0.43617653 0 0 0 0.40445,0.436177 l 9.6514,-0.04759 a 0.72960436,0.8009787 0 0 0 0.72168,-0.793048 l 0.0396,-16.828482 a 0.39652411,0.40445459 0 0 1 0.39652,-0.404455 q 18.89041,-0.198262 37.78875,0.07138 c 8.65216,0.118957 13.12495,1.253016 19.46934,6.320594 q 0.53926,0.428246 0.52341,-0.285497 l -0.10313,-5.709947 a 0.38859363,0.42031556 89.5 0 1 0.42031,-0.396524 l 40.53271,-0.04759 a 0.84063111,0.82477014 0 0 1 0.84063,0.82477 l -0.13481,16.677804 a 0.32514977,0.33308025 0.7 0 0 0.32514,0.341011 l 32.91942,-0.04759 q 0.84065,0 0.36482,0.697884 l -23.91042,34.568965 a 2.2522569,2.0698559 15.7 0 1 -1.78435,0.904079 l -7.43087,0.07933 a 0.42824604,0.39652411 89.5 0 0 -0.38858,0.428246 l 0.0476,14.044889 a 0.67409098,0.67409098 0 0 1 -0.67409,0.67409 h -53.27689 a 1.6178184,1.6178184 0 0 1 -1.3006,-0.65823 C 388.8238,98.615267 380.32233,86.330954 379.76719,86.299233 a 0.40445459,0.31721929 86.2 0 0 -0.31722,0.4679 c 0.62651,4.361767 0.0476,9.199353 0.32515,13.680087 a 0.56306423,0.56306423 0 0 1 -0.56306,0.60271 h -18.65249 a 0.41238508,0.41238508 0 0 1 -0.41239,-0.4124 v -7.30396 q 0,-0.634435 -0.42033,-0.158614 c -12.31602,14.005234 -35.78233,11.570574 -43.1656,-6.495063 a 0.83270063,0.84063111 86.3 0 0 -0.57893,-0.49962 q -3.11667,-0.745464 -5.4641,-0.158604 a 0.52341182,0.53927279 82.6 0 0 -0.40446,0.507543 l 0.0158,13.949728 a 0.53927279,0.57099471 0 0 1 -0.53927,0.57099 H 290.9933 a 0.4916899,0.50755086 0 0 1 -0.49169,-0.50756 l 0.007,-13.997293 a 0.74546532,0.888214 89.7 0 0 -0.89614,-0.745463 l -4.67106,0.03176 a 0.76925676,0.9357969 89.5 0 0 -0.92787,0.777184 l 0.0476,14.036942 a 0.39652411,0.39652411 0 0 1 -0.39652,0.40447 h -16.38438 a 1.1340589,1.1102675 73.5 0 1 -0.94373,-0.52341 l -9.11983,-14.155914 a 0.7533958,0.70581291 72.6 0 0 -0.61064,-0.348939 z M 68.757402,79.272806 85.403484,79.074539 a 0.76132628,0.73753484 89.7 0 1 0.745465,0.761329 v 15.250316 a 0.41238508,0.41238508 0 0 0 0.412386,0.412386 h 9.310385 a 0.42824604,0.43617653 89.5 0 0 0.436181,-0.436185 L 96.062064,38.113599 a 0.68202147,0.6661605 89.7 0 0 -0.674096,-0.682021 l -9.286605,0.103094 a 0.72960436,0.82477014 19.9 0 0 -0.626505,0.341011 L 44.823206,94.943435 q -0.436176,0.618583 0.32515,0.618583 l 10.801318,-0.05552 a 1.530583,1.4354173 16.6 0 0 1.197502,-0.602712 L 68.130893,79.613792 a 0.73753484,0.8009787 18.8 0 1 0.626509,-0.341006 z M 141.93195,44.576943 C 130.2345,34.885894 116.86371,37.47123 103.02502,37.360203 a 0.80890918,0.8009787 0.3 0 0 -0.81684,0.800979 v 56.940853 a 0.53927279,0.53927279 0 0 0 0.56306,0.539283 c 13.05357,-0.428247 28.97005,2.410869 39.52552,-7.38328 11.71332,-10.856829 10.60306,-29.92171 1.29267,-41.968112 q -0.72961,-0.951658 -1.65748,-1.712983 z m 98.90106,7.383278 q 0,-1.705054 0.91993,-0.261706 l 27.43947,43.118032 a 1.4512782,1.4830001 74.2 0 0 1.24509,0.682023 h 7.40707 a 0.6185776,0.6185776 0 0 0 0.61857,-0.618574 V 38.034294 a 0.7533958,0.78511774 89.4 0 0 -0.80098,-0.753396 l -7.3119,0.126888 a 0.39652411,0.42031556 89.4 0 0 -0.41239,0.396524 l 0.15069,39.604832 q 0,0.912 -0.49963,0.198258 L 241.96706,37.875685 a 1.332321,1.578166 75.1 0 0 -1.24508,-0.586855 l -7.81153,0.08724 a 0.62650808,0.65029953 89.6 0 0 -0.64237,0.626507 V 94.99895 a 0.68202147,0.63443858 0 0 0 0.68202,0.634446 l 7.42294,-0.07132 a 0.54720326,0.57099471 89.2 0 0 0.56306,-0.555135 z m 54.68067,-6.780562 a 0.60271663,0.61064712 0.4 0 1 0.59478,0.610647 l -0.0555,49.137266 a 0.59478616,0.57892519 0 0 0 0.59478,0.578924 l 7.43088,0.05552 a 0.50755086,0.4916899 0 0 0 0.50754,-0.491697 l -0.15068,-49.184847 a 0.74546532,0.74546532 0 0 1 0.74547,-0.745466 h 9.86551 a 0.68995195,0.68995195 0 0 0 0.68996,-0.689953 v -6.43162 a 0.7533958,0.7533958 0 0 0 -0.76133,-0.753396 l -29.46174,0.134818 a 0.71374339,0.72167387 85.6 0 0 -0.70581,0.81684 q 0.45997,2.95807 0,5.939931 a 0.86442255,0.85649208 4.6 0 0 0.84857,0.98338 z m 38.97039,50.675773 c 13.07737,3.536995 25.0286,-5.067571 25.04447,-18.795239 q 0.0238,-19.231415 0.0238,-38.986246 a 0.78511774,0.82477014 89.4 0 0 -0.84065,-0.785117 l -7.14536,0.103094 a 0.71374339,0.74546532 89.7 0 0 -0.73755,0.713744 q 0,19.921371 0,39.747574 c 0,11.634025 -16.083,15.289971 -20.59545,4.734505 q -1.15786,-2.704303 -1.18164,-8.533204 -0.0634,-17.629462 -0.0317,-36.020249 a 0.64236906,0.63443858 0 0 0 -0.64237,-0.63444 l -7.44674,-0.05551 a 0.43617653,0.42824604 0 0 0 -0.43616,0.428246 q 0,18.866618 0,37.503251 0,16.788823 13.98937,20.579594 z M 374.0889,69.978277 q 0,-1.689193 0.96751,-0.31722 l 17.97048,25.401328 a 1.0309627,1.0785456 73.1 0 0 0.86442,0.436185 l 9.54037,0.06346 q 0.68203,0 0.27757,-0.539273 L 388.10207,74.403482 a 0.38859363,0.38859363 0 0 1 0.26171,-0.618578 c 12.50636,-1.609888 17.57393,-10.381001 15.5596,-22.205349 Q 402.22625,41.57922 392.28142,38.502194 c -6.97883,-2.165022 -17.83566,-1.078547 -25.81371,-1.141991 a 0.95958835,0.96751882 0.2 0 0 -0.96752,0.967519 l -0.007,56.465037 a 0.888214,0.82477014 0 0 0 0.88821,0.824771 l 7.2326,-0.05552 a 0.5313423,0.57099471 89.6 0 0 0.56306,-0.531356 z m -209.57092,9.429346 0.28548,-41.357468 a 0.43617653,0.42824604 3.4 0 0 -0.39652,-0.436175 q -4.64725,-0.4679 -9.31037,-0.09516 a 0.444107,0.45203748 88.9 0 0 -0.4124,0.428246 c -0.341,7.605334 0.0555,16.201975 -0.0238,22.808067 q -0.19825,17.248795 0.32515,34.497592 a 0.38066315,0.40445459 89.4 0 0 0.40446,0.372735 h 10.26204 a 1.2768076,1.1102675 14.3 0 0 1.02303,-0.515484 l 30.46099,-47.654261 q 0.97544,-1.530583 0.97544,0.285496 l -0.13482,47.273602 a 0.48375941,0.47582892 0.5 0 0 0.48377,0.483761 l 28.69249,0.04758 a 0.55513374,0.56306423 86.1 0 0 0.55513,-0.634436 q -0.45204,-3.203927 -0.0476,-6.447492 a 0.62650808,0.6185776 3.8 0 0 -0.61854,-0.697879 h -20.15924 a 0.78511774,0.78511774 0 0 1 -0.78512,-0.785118 V 70.652367 a 0.5313423,0.5313423 0 0 1 0.53135,-0.531342 l 20.36548,-0.04759 a 0.58685568,0.61064712 0 0 0 0.58686,-0.610647 l -0.0635,-6.606091 a 0.68202147,0.67409098 0.3 0 0 -0.67409,-0.674092 l -20.19893,-0.134818 a 0.43617653,0.42031556 88.3 0 1 -0.42033,-0.412385 q -0.39651,-8.025647 0.0951,-16.051296 a 0.42824604,0.42031556 1.7 0 1 0.42823,-0.396524 l 19.97689,-0.04759 a 0.78511774,0.78511774 0 0 0 0.78512,-0.785118 v -6.518857 a 0.42824604,0.42824604 0 0 0 -0.42825,-0.428246 h -33.07802 a 1.1340589,1.1261284 16.3 0 0 -0.95167,0.515482 l -27.5584,41.777789 q -0.98337,1.498861 -0.97545,-0.29343 z m 253.17271,-17.661187 -0.0396,-15.860963 a 0.73753484,0.74546532 89.7 0 1 0.74547,-0.745467 h 21.39643 a 1.0547541,1.0626845 85.4 0 0 1.04684,-1.221294 q -0.42033,-2.648781 0.0634,-5.702016 a 0.68202147,0.68995195 4.5 0 0 -0.67408,-0.800978 l -30.76235,0.134817 a 0.39652411,0.40445459 0 0 0 -0.39653,0.404455 l 0.0476,57.107395 a 0.444107,0.43617653 0 0 0 0.44411,0.436185 l 30.56408,0.04758 a 0.71374339,0.72167387 85.7 0 0 0.71375,-0.824775 q -0.45998,-2.98979 0.0555,-6.328528 a 0.54720326,0.54720326 0 0 0 -0.53927,-0.626502 H 418.44412 A 0.8009787,0.8009787 0 0 1 417.64314,86.96536 V 70.69995 a 0.57892519,0.57892519 0 0 1 0.57892,-0.578925 h 21.76125 a 0.68202147,0.71374339 0.7 0 0 0.68201,-0.697883 l 0.15068,-6.566438 a 0.61064712,0.65029953 0.7 0 0 -0.61065,-0.666161 l -22.11019,-0.04758 a 0.40445459,0.39652411 0 0 1 -0.40443,-0.396524 z"
     id="path2"
     style="fill:#ffffff;stroke-width:0.793048" />
  <path
     fill="#000000"
     d="m 141.37683,73.626299 c -3.80664,14.42555 -17.72462,14.465203 -29.74724,14.108331 a 0.91993593,0.92786642 0.8 0 1 -0.89614,-0.927866 V 45.766515 a 0.58685568,0.57892519 89.2 0 1 0.56306,-0.586856 c 7.82739,-0.269636 16.55884,-0.848562 23.12529,4.242807 7.19294,5.575131 9.25486,15.496163 6.95503,24.203833 z"
     id="path4"
     style="fill:#ffffff;stroke-width:0.793048" />
  <path
     fill="#000000"
     d="m 374.17614,46.075803 a 0.91200545,0.89614448 89.5 0 1 0.88027,-0.912005 c 6.54266,-0.174472 15.18688,-1.078545 19.23937,5.368936 q 2.51395,3.996964 1.20541,8.38252 c -2.68843,8.977306 -13.5056,8.652156 -20.80958,8.406312 a 0.48375941,0.4916899 1 0 1 -0.4679,-0.491691 z"
     id="path6"
     style="fill:#ffffff;stroke-width:0.793048" />
  <path
     fill="#000000"
     d="m 85.117987,52.610521 q 1.221298,-1.871593 1.221298,0.372733 l 0.03168,16.574708 a 0.77718725,0.78511774 89.7 0 1 -0.777184,0.777186 l -11.554714,0.126888 q -0.555133,0.008 -0.253775,-0.459968 z"
     id="path8"
     style="fill:#ffffff;stroke-width:0.793048" />
  <path
     fill="#000000"
     d="m 301.57257,115.7213 q 0.68201,0.72961 0.68201,-0.26964 v -10.08757 a 0.54720326,0.54720326 0 0 1 0.54721,-0.5472 h 16.77297 a 1.0071713,1.0151017 72.7 0 1 0.8327,0.43617 l 11.50713,16.43989 a 1.3561125,1.3481819 72.3 0 0 1.10234,0.571 h 7.2088 a 0.68202147,0.68995195 89.7 0 0 0.68996,-0.68995 l -0.0555,-16.01957 a 0.72960436,0.72167387 89.7 0 1 0.72167,-0.73754 h 18.55734 a 0.54720326,0.56306423 0.4 0 1 0.5472,0.57099 l -0.13482,16.06717 a 0.8009787,0.79304822 0 0 0 0.80892,0.80097 l 32.98287,-0.13482 q 0.59478,-0.007 0.2617,0.47584 l -24.36243,35.17168 a 0.81683966,0.7533958 15.6 0 1 -0.63444,0.32515 l -8.51735,0.18239 a 0.42031556,0.40445459 89.4 0 0 -0.39652,0.42033 l 0.0476,16.36058 a 0.53927279,0.53927279 0 0 1 -0.53926,0.53928 h -16.44784 a 1.4830001,1.4274868 73.1 0 1 -1.22128,-0.68203 l -10.46824,-16.28128 a 0.76132628,0.68995195 72.7 0 0 -0.61065,-0.35688 l -8.77111,-0.0951 a 0.6661605,0.71374339 0.3 0 0 -0.6741,0.71374 l -0.0634,16.15438 a 0.41238508,0.41238508 0 0 1 -0.40445,0.41239 l -18.69214,0.14276 a 0.42824604,0.39652411 0 0 1 -0.42825,-0.39652 l -0.0713,-9.92104 q -0.007,-1.23717 -0.83271,-0.37274 c -14.95689,15.71029 -39.36691,15.86096 -53.86384,-0.0713 q -0.77719,-0.84857 -0.76925,0.30136 l 0.0555,9.93688 a 0.52341182,0.51548134 0 0 1 -0.52342,0.51549 l -18.66042,-0.0476 a 0.50755086,0.51548134 83.2 0 1 -0.49963,-0.38859 q -0.39652,-1.5623 -0.0158,-3.08494 0.52342,-2.10159 -1.14199,-0.71375 c -8.85043,7.39121 -23.73594,7.24054 -32.06294,-0.90408 q -1.45921,-1.41955 -1.02304,0.571 0.45205,2.09363 0.0793,4.17937 a 0.48375941,0.47582892 5.1 0 1 -0.47584,0.38858 l -18.82695,0.0555 a 0.40445459,0.40445459 0 0 1 -0.40445,-0.40446 l -0.0476,-16.25748 a 0.50755086,0.49962037 6.2 0 0 -0.39653,-0.49169 q -2.10158,-0.4917 -4.17937,0.0793 a 0.73753484,0.77718725 2.9 0 0 -0.50754,0.48377 l -5.49583,16.1068 a 0.54720326,0.55513374 9.3 0 1 -0.52341,0.38067 l -16.72539,0.0396 a 0.83270063,0.82477014 79.9 0 1 -0.79305,-0.55514 l -5.77339,-16.1306 a 0.84063111,0.82477014 80 0 0 -0.77718,-0.55512 H 92.953278 q -0.800975,0 -0.348931,-0.65824 l 23.862813,-34.58489 a 1.4988612,1.4909306 17.2 0 1 1.22922,-0.64236 h 7.32777 a 0.6185776,0.6185776 0 0 0 0.57893,-0.83271 l -5.86065,-15.94026 a 0.65029953,0.64236906 79.7 0 1 0.60274,-0.87236 h 19.34244 a 1.2212942,1.2609467 80.3 0 1 1.17371,0.80098 l 6.10647,16.30508 a 0.89614448,0.9357969 80.6 0 0 0.85649,0.58685 l 9.84967,0.0714 a 1.4909306,1.4116258 8.8 0 0 1.39576,-0.9596 l 5.361,-16.1068 a 1.0151017,1.0071713 9.2 0 1 0.9596,-0.68995 l 27.28085,0.13481 a 0.444107,0.39652411 0.5 0 1 0.44411,0.40446 l -0.10312,5.40066 q -0.0317,1.53851 0.94374,0.34895 2.49809,-3.06911 6.09853,-4.75037 13.44216,-6.2968 26.40851,3.16427 0.71374,0.51547 0.74546,-0.41239 l 0.0634,-1.91917 q 0.0158,-0.37274 -0.12688,-0.7534 -0.2855,-0.80098 0.26169,-1.37198 a 1.0626845,0.7533958 15.5 0 1 0.69789,-0.25377 h 18.21645 a 0.61064712,0.60271663 0 0 1 0.61065,0.60272 l -0.0396,9.37382 q -0.007,1.65748 1.09441,0.42825 c 14.3066,-15.892683 39.10522,-14.95689 53.58626,0.49962 z m -89.14655,-6.1937 c -9.21522,-1.04683 -18.04978,5.27377 -18.62078,14.71897 -0.82477,13.78318 9.61175,16.36058 19.82621,20.421 10.92821,4.3459 6.91539,19.92136 -4.30625,18.34319 q -7.11364,-1.00716 -8.54906,-9.84965 a 0.91200545,0.91200545 0 0 0 -0.89615,-0.76133 h -6.67746 a 1.0468237,1.0547541 87.1 0 0 -1.04683,1.15785 q 1.49094,14.43348 14.92518,17.50258 4.33796,0.99131 8.9773,-0.571 13.04565,-4.38555 12.64119,-18.28769 c -0.34101,-11.88779 -7.85118,-14.81414 -17.88324,-18.64456 q -4.72657,-1.80815 -6.16199,-3.19599 c -4.10005,-3.98109 -1.45921,-11.9433 4.21902,-12.85532 q 7.51017,-1.20543 9.70691,5.81304 c 0.73753,2.36329 -0.73754,2.51398 2.52983,2.51398 q 2.83119,0 5.88441,0 a 0.73753484,0.73753484 0 0 0 0.72961,-0.82478 q -1.59403,-13.91799 -15.2979,-15.48029 z m 93.17523,30.72268 a 31.031977,31.031977 0 0 0 -31.03198,-31.03198 31.031977,31.031977 0 0 0 -31.03197,31.03198 31.031977,31.031977 0 0 0 31.03197,31.03198 31.031977,31.031977 0 0 0 31.03198,-31.03198 z m -152.35248,13.83869 -16.24164,-43.08631 a 0.99131026,0.95958835 79 0 0 -0.90407,-0.63443 l -8.15253,0.0476 a 0.40445459,0.39652411 80.1 0 0 -0.37274,0.53927 l 20.96026,58.47145 a 0.94372738,0.98337983 80.9 0 0 0.90408,0.6265 l 8.69182,0.0476 a 0.76132628,0.72960436 9 0 0 0.72959,-0.50756 l 19.21555,-58.23351 a 0.76132628,0.7533958 9 0 0 -0.72165,-0.99131 h -8.08911 a 0.89614448,0.89614448 0 0 0 -0.84855,0.61064 l -14.29073,43.09425 q -0.42032,1.24508 -0.88028,0.0158 z m 34.41034,-43.23698 a 0.46789844,0.46789844 0 0 0 -0.46789,-0.46789 h -7.78773 a 0.46789844,0.46789844 0 0 0 -0.46791,0.46789 V 169.601 a 0.46789844,0.46789844 0 0 0 0.46791,0.4679 h 7.78773 a 0.46789844,0.46789844 0 0 0 0.46789,-0.4679 z m 53.72902,-0.2617 a 0.21412303,0.21412303 0 0 0 -0.21412,-0.21413 h -8.29529 a 0.21412303,0.21412303 0 0 0 -0.21412,0.21413 v 59.25655 a 0.21412303,0.21412303 0 0 0 0.21412,0.21413 h 8.29529 a 0.21412303,0.21412303 0 0 0 0.21412,-0.21413 z m 75.41889,13.90213 29.00178,45.06892 a 0.76132628,0.67409098 72.3 0 0 0.60272,0.35688 l 8.33494,0.0951 a 0.39652411,0.42031556 0 0 0 0.39652,-0.42032 l 0.0476,-58.70935 a 0.51548134,0.51548134 0 0 0 -0.51548,-0.51548 l -7.85119,0.0396 a 0.56306423,0.56306423 0 0 0 -0.55512,0.56306 l 0.0555,40.10444 q 0,1.05477 -0.60271,0.19034 l -28.01046,-40.19959 a 1.6178184,1.6336794 72.8 0 0 -1.34025,-0.69787 h -7.77981 a 0.99131026,0.98337983 89.3 0 0 -0.98338,1.0151 c 0.4917,19.279 0,38.65317 0,58.05905 a 0.73753484,0.73753484 0 0 0 0.76927,0.73755 l 7.61326,-0.26965 a 0.41238508,0.40445459 88.9 0 0 0.38859,-0.41238 l -0.0476,-44.87066 q 0,-0.87237 0.47583,-0.13483 z"
     id="path10"
     style="fill:#ffffff;stroke-width:0.793048" />
  <ellipse
     fill="#000000"
     cx="139.30685"
     cy="-275.06516"
     transform="rotate(90.2)"
     rx="23.014259"
     ry="22.237072"
     id="ellipse12"
     style="fill:#ffffff;stroke-width:0.793048" />
</svg>
