<?xml version="1.0" encoding="UTF-8" standalone="no"?>
<svg
   xmlns:dc="http://purl.org/dc/elements/1.1/"
   xmlns:cc="http://creativecommons.org/ns#"
   xmlns:rdf="http://www.w3.org/1999/02/22-rdf-syntax-ns#"
   xmlns:svg="http://www.w3.org/2000/svg"
   xmlns="http://www.w3.org/2000/svg"
   xmlns:sodipodi="http://sodipodi.sourceforge.net/DTD/sodipodi-0.dtd"
   xmlns:inkscape="http://www.inkscape.org/namespaces/inkscape"
   width="469.16479"
   height="151.45445"
   viewBox="0 0 469.16479 151.45445"
   version="1.1"
   id="svg84"
   sodipodi:docname="amiga.svg"
   style="fill:none"
   inkscape:version="0.92.5 (2060ec1f9f, 2020-04-08)">
  <metadata
     id="metadata90">
    <rdf:RDF>
      <cc:Work
         rdf:about="">
        <dc:format>image/svg+xml</dc:format>
        <dc:type
           rdf:resource="http://purl.org/dc/dcmitype/StillImage" />
        <dc:title />
      </cc:Work>
    </rdf:RDF>
  </metadata>
  <defs
     id="defs88" />
  <sodipodi:namedview
     pagecolor="#ffffff"
     bordercolor="#666666"
     borderopacity="1"
     objecttolerance="10"
     gridtolerance="10"
     guidetolerance="10"
     inkscape:pageopacity="0"
     inkscape:pageshadow="2"
     inkscape:window-width="1366"
     inkscape:window-height="740"
     id="namedview86"
     showgrid="false"
     inkscape:pagecheckerboard="true"
     inkscape:zoom="1.251282"
     inkscape:cx="245.67958"
     inkscape:cy="56.009784"
     inkscape:window-x="0"
     inkscape:window-y="0"
     inkscape:window-maximized="1"
     inkscape:current-layer="svg84" />
  <path
     d="M 23.152048,0 C 10.343615,0 0,10.387633 0,23.152048 c 0,12.808459 10.38762,23.152178 23.152048,23.152178 2.46487,0 4.841755,-0.396256 7.04254,-1.100393 V 33.627809 c -1.936701,1.100263 -4.181545,1.760602 -6.5583,1.760602 -7.04254,0 -12.720474,-5.501964 -12.720474,-12.236363 0,-6.73427 5.721991,-12.236234 12.720474,-12.236234 2.420813,0 4.665526,0.660236 6.5583,1.760616 V 1.100384 C 27.993803,0.396139 25.616918,0 23.152048,0 Z"
     id="path38"
     inkscape:connector-curvature="0"
     style="fill:#ffffff;stroke-width:1.29962552" />
  <path
     d="m 39.921635,22.403983 h -9.50741 v -8.054818 h 17.254088 z"
     id="path40"
     inkscape:connector-curvature="0"
     style="fill:#ffffff;stroke-width:1.29962552" />
  <path
     d="m 39.921635,24.032284 h -9.50741 v 8.054819 h 17.254088 z"
     id="path42"
     inkscape:connector-curvature="0"
     style="fill:#ffffff;stroke-width:1.29962552" />
  <path
     d="M 39.448572,8.712624 C 38.953674,9.20461 38.295154,9.47761 37.594656,9.47761 c -0.697509,0 -1.35304,-0.273 -1.849497,-0.764986 -0.499446,-0.496496 -0.769508,-1.155003 -0.769508,-1.853994 0,-1.444494 1.180449,-2.618979 2.619005,-2.618979 0.700498,0 1.359018,0.271492 1.853916,0.764999 0.493597,0.494988 0.766519,1.153482 0.766519,1.85398 0,0.698991 -0.272922,1.357498 -0.766519,1.853994 z M 36.0546,5.317937 c -0.409512,0.411007 -0.639026,0.9585 -0.639026,1.540498 0,0.583493 0.229514,1.129492 0.639026,1.541993 0.41406,0.409499 0.958473,0.638987 1.540576,0.638987 1.204493,0 2.180901,-0.979489 2.180901,-2.18098 0,-0.581998 -0.229514,-1.129491 -0.639026,-1.540498 -0.410941,-0.410993 -0.959903,-0.640494 -1.541875,-0.640494 -0.582103,0 -1.126516,0.229501 -1.540576,0.640494 z"
     id="path44"
     inkscape:connector-curvature="0"
     style="clip-rule:evenodd;fill:#ffffff;fill-rule:evenodd;stroke-width:1.29962552" />
  <path
     d="m 38.802788,7.947807 c 0.01651,0.0675 0.0464,0.112496 0.08552,0.127507 l 0.03717,0.01792 V 8.264239 H 38.363 l -0.02105,-0.03599 c -0.01222,-0.02241 -0.01949,-0.04814 -0.02794,-0.07847 -0.003,-0.01027 -0.006,-0.02113 -0.0094,-0.03253 -0.0091,-0.042 -0.01507,-0.114004 -0.02105,-0.228007 l -0.02248,-0.4665 c -0.006,-0.157489 -0.06147,-0.260991 -0.164923,-0.311988 -0.06147,-0.02699 -0.169471,-0.042 -0.313469,-0.042 H 36.986147 V 8.26424 H 36.482152 V 5.348258 h 1.35447 c 0.221976,0 0.403534,0.03001 0.553511,0.09756 0.283448,0.127494 0.429006,0.370498 0.429006,0.715496 0,0.179998 -0.03886,0.328507 -0.112418,0.445499 -0.05549,0.087 -0.133601,0.155994 -0.220546,0.212995 0.07057,0.042 0.132042,0.08701 0.17246,0.143999 0.06303,0.08401 0.100591,0.210006 0.106569,0.387002 l 0.01209,0.376502 c 0.0029,0.09899 0.01352,0.172499 0.02547,0.220494 z M 38.181177,6.528668 c 0.08097,-0.06 0.123074,-0.168015 0.123074,-0.331508 v -6.5e-5 c 0,-0.170992 -0.05705,-0.287984 -0.177009,-0.347988 -0.06901,-0.03301 -0.165052,-0.04944 -0.280589,-0.04944 h -0.861002 v 0.82499 h 0.811486 c 0.162064,0 0.291117,-0.03444 0.38404,-0.09599 z"
     id="path46"
     inkscape:connector-curvature="0"
     style="clip-rule:evenodd;fill:#ffffff;fill-rule:evenodd;stroke-width:1.29962552" />
  <path
     d="m 85.631152,35.070783 c 2.809141,0 5.056583,-0.786663 6.854355,-2.247442 1.797902,-1.516923 2.696853,-3.595674 2.753127,-6.348801 -0.05627,-2.752996 -0.955225,-4.887891 -2.753127,-6.404944 -1.797772,-1.516923 -4.045214,-2.247312 -6.854355,-2.247312 -2.80927,0 -5.056582,0.786533 -6.854484,2.247312 -1.797902,1.460779 -2.696853,3.651948 -2.752997,6.404944 0.05614,2.753127 0.955095,4.888022 2.752997,6.348801 1.797902,1.460779 4.045214,2.247442 6.854484,2.247442 z m 0,-3.98907 c -1.292217,-0.05627 -2.247442,-0.505685 -2.865414,-1.404636 -0.617972,-0.898951 -0.898951,-1.966463 -0.842807,-3.258681 0,-1.292217 0.280979,-2.35973 0.842807,-3.25868 0.561828,-0.898951 1.516923,-1.348362 2.865414,-1.404636 1.292218,0.05627 2.247313,0.505685 2.865285,1.404636 0.618102,0.89895 0.898951,1.966463 0.842807,3.25868 0,1.236074 -0.280849,2.35973 -0.842807,3.258681 -0.617972,0.898951 -1.573067,1.348362 -2.865285,1.404636 z"
     id="path48"
     inkscape:connector-curvature="0"
     style="fill:#ffffff;stroke-width:1.29962552" />
  <path
     d="m 97.542348,34.677516 h 5.730832 v -6.966902 c 0,-1.741628 0.28085,-3.090119 0.84268,-3.932797 0.56182,-0.842807 1.34849,-1.236073 2.35973,-1.236073 0.78653,0 1.40463,0.337122 1.74175,0.955094 0.33713,0.617972 0.56183,1.404636 0.56183,2.35973 v 8.877092 h 5.7307 v -6.966772 c 0,-1.741758 0.28098,-3.09012 0.84281,-3.932927 0.56183,-0.842807 1.34836,-1.236074 2.35973,-1.236074 0.78653,0 1.40463,0.337123 1.74176,0.955095 0.33699,0.618102 0.56182,1.404635 0.56182,2.35973 v 8.877092 h 5.7307 v -9.719769 c 0.0562,-2.247442 -0.33712,-3.98907 -1.12365,-5.281288 -0.78654,-1.236074 -2.35973,-1.910319 -4.71946,-1.910319 -1.1798,0 -2.30359,0.224705 -3.31483,0.730389 -1.01137,0.505684 -1.85404,1.292218 -2.52829,2.415874 -0.44954,-1.067383 -1.12366,-1.854046 -2.02261,-2.415874 -0.89895,-0.505684 -1.96646,-0.786533 -3.14639,-0.786533 -1.29222,0 -2.52829,0.280849 -3.53953,0.842677 -1.06751,0.561958 -1.85405,1.404635 -2.47215,2.584565 h -0.0561 V 18.21555 h -5.225142 z"
     id="path50"
     inkscape:connector-curvature="0"
     style="fill:#ffffff;stroke-width:1.29962552" />
  <path
     d="m 128.83616,34.677516 h 5.73096 v -6.966902 c 0,-1.741628 0.28072,-3.090119 0.84216,-3.932797 0.56273,-0.842807 1.34901,-1.236073 2.36012,-1.236073 0.78627,0 1.40489,0.337122 1.7415,0.955094 0.3379,0.617972 0.56143,1.404636 0.56143,2.35973 v 8.877092 h 5.73135 v -6.966772 c 0,-1.741758 0.28072,-3.09012 0.84216,-3.932927 0.56274,-0.842807 1.34901,-1.236074 2.36012,-1.236074 0.78627,0 1.40489,0.337123 1.7415,0.955095 0.3379,0.618102 0.56273,1.404635 0.56273,2.35973 v 8.877092 h 5.73005 v -9.719769 c 0.0559,-2.247442 -0.3366,-3.98907 -1.12287,-5.281288 -0.78758,-1.236074 -2.36012,-1.910319 -4.72024,-1.910319 -1.18006,0 -2.30294,0.224705 -3.31405,0.730389 -1.01241,0.505684 -1.85456,1.292218 -2.52907,2.415874 -0.44967,-1.067383 -1.12288,-1.854046 -2.02222,-2.415874 -0.89934,-0.505684 -1.96633,-0.786533 -3.14639,-0.786533 -1.29183,0 -2.52777,0.280849 -3.54018,0.842677 -1.06699,0.561958 -1.85326,1.404635 -2.47189,2.584565 h -0.0559 V 18.21555 h -5.22514 z"
     id="path52"
     inkscape:connector-curvature="0"
     style="fill:#ffffff;stroke-width:1.29962552" />
  <path
     d="m 168.89543,35.070783 c 2.80979,0 5.05684,-0.786663 6.85552,-2.247442 1.79738,-1.516923 2.69672,-3.595674 2.75261,-6.348801 -0.0559,-2.752996 -0.95523,-4.887891 -2.75261,-6.404944 -1.79868,-1.516923 -4.04573,-2.247312 -6.85552,-2.247312 -2.80849,0 -5.05555,0.786533 -6.85423,2.247312 -1.79738,1.460779 -2.69672,3.651948 -2.7526,6.404944 0.0559,2.753127 0.95522,4.888022 2.7526,6.348801 1.79868,1.460779 4.10162,2.247442 6.85423,2.247442 z m 0,-3.98907 c -1.29183,-0.05627 -2.24706,-0.505685 -2.86438,-1.404636 -0.61862,-0.898951 -0.89934,-1.966463 -0.84345,-3.258681 0,-1.292217 0.28071,-2.35973 0.84345,-3.25868 0.56144,-0.898951 1.51667,-1.348362 2.86438,-1.404636 1.29312,0.05627 2.24835,0.505685 2.86567,1.404636 0.61862,0.89895 0.89934,1.966463 0.84346,3.25868 0,1.236074 -0.28072,2.35973 -0.84346,3.258681 -0.61732,0.898951 -1.51666,1.348362 -2.86567,1.404636 z"
     id="path54"
     inkscape:connector-curvature="0"
     style="fill:#ffffff;stroke-width:1.29962552" />
  <path
     d="m 198.61656,10.911655 h -5.73005 v 9.382776 h -0.0559 c -0.73039,-0.955224 -1.57385,-1.573196 -2.52907,-1.966463 -0.95523,-0.393267 -2.02222,-0.561828 -3.1464,-0.561828 -2.30293,0.112288 -4.04443,0.955095 -5.22449,2.640579 -1.18006,1.685484 -1.79738,3.595804 -1.79738,5.674555 0,2.528291 0.6732,4.607172 1.90915,6.292656 1.29313,1.685484 3.14639,2.584435 5.61828,2.640709 1.34901,0 2.52907,-0.337123 3.54018,-0.955225 1.01111,-0.617971 1.7415,-1.404505 2.13528,-2.35973 h 0.0559 v 2.977832 h 5.28168 z m -12.69734,15.33818 c 0,-1.123656 0.28072,-2.078751 0.89934,-2.865284 0.61862,-0.786664 1.46078,-1.17993 2.58496,-1.236074 1.06699,0 1.90915,0.44941 2.52777,1.236074 0.61862,0.786533 0.95522,1.797772 0.95522,3.090119 0,1.235944 -0.39378,2.247313 -1.01111,3.033846 -0.61862,0.786663 -1.46077,1.17993 -2.47188,1.17993 -1.0683,0 -1.91045,-0.449541 -2.52907,-1.236074 -0.61733,-0.786533 -0.95523,-1.854046 -0.95523,-3.202537 z"
     id="path56"
     inkscape:connector-curvature="0"
     style="fill:#ffffff;stroke-width:1.29962552" />
  <path
     d="m 210.35998,35.070783 c 2.80849,0 5.05684,-0.786663 6.85422,-2.247442 1.79738,-1.516923 2.69673,-3.595674 2.75261,-6.348801 -0.0559,-2.752996 -0.95523,-4.887891 -2.75261,-6.404944 -1.79738,-1.516923 -4.04573,-2.247312 -6.85422,-2.247312 -2.80979,0 -5.05685,0.786533 -6.85423,2.247312 -1.79868,1.517053 -2.69802,3.651948 -2.7539,6.404944 0.0559,2.753127 0.95522,4.888022 2.7539,6.348801 1.79738,1.460779 4.10032,2.247442 6.85423,2.247442 z m 0,-3.98907 c -1.29313,-0.05627 -2.24835,-0.505685 -2.86568,-1.404636 -0.56143,-0.898951 -0.89934,-1.966463 -0.84345,-3.258681 0,-1.292217 0.28202,-2.35973 0.84345,-3.25868 0.56144,-0.898951 1.51667,-1.348362 2.86568,-1.404636 1.29183,0.05627 2.24705,0.505685 2.86567,1.404636 0.56144,0.89895 0.89804,1.966463 0.84216,3.25868 0,1.236074 -0.28072,2.35973 -0.84216,3.258681 -0.56274,0.898951 -1.51796,1.348362 -2.86567,1.404636 z"
     id="path58"
     inkscape:connector-curvature="0"
     style="fill:#ffffff;stroke-width:1.29962552" />
  <path
     d="m 234.40565,17.990845 c -0.28072,-0.05627 -0.61732,-0.112417 -0.95523,-0.112417 -0.3366,-0.05614 -0.6732,-0.05614 -1.01111,-0.05614 -1.23594,0 -2.24705,0.337123 -2.97744,0.955094 -0.78627,0.617972 -1.40489,1.460779 -1.91045,2.472148 h -0.0559 v -3.033976 h -5.22579 v 16.51811 h 5.73134 v -6.966772 c 0,-1.629341 0.33661,-2.921688 1.067,-3.820639 0.73039,-0.898821 1.74149,-1.348362 3.09051,-1.348362 0.3366,0 0.6745,0 0.95522,0 0.3366,0 0.61732,0.05614 0.95522,0.168562 z"
     id="path60"
     inkscape:connector-curvature="0"
     style="fill:#ffffff;stroke-width:1.29962552" />
  <path
     d="m 252.32878,28.104271 v -1.067513 c 0.0559,-2.528291 -0.61732,-4.71946 -1.85326,-6.461088 -1.29313,-1.797902 -3.42842,-2.696853 -6.46174,-2.80927 -2.64084,0 -4.71894,0.786533 -6.34867,2.247312 -1.62973,1.517053 -2.47189,3.595804 -2.47189,6.348801 0.0559,2.753126 0.95523,4.888021 2.75261,6.3488 1.79738,1.517053 4.04573,2.247442 6.85422,2.303586 1.06829,0 2.13529,-0.05614 3.1464,-0.224705 1.0111,-0.168562 2.02221,-0.449541 2.92155,-0.786534 v -4.045344 c -0.84215,0.449541 -1.74149,0.786664 -2.58365,0.955225 -0.84346,0.224705 -1.68562,0.280849 -2.47319,0.280849 -1.40359,0 -2.52777,-0.224705 -3.36993,-0.730389 -0.84345,-0.505685 -1.34901,-1.292218 -1.51796,-2.415874 z M 240.8115,24.84559 c 0.0559,-0.955095 0.3366,-1.797902 0.84216,-2.415874 0.50555,-0.674246 1.29313,-1.011369 2.30424,-1.011369 1.12287,0 1.96633,0.337123 2.416,1.011369 0.50555,0.674246 0.73039,1.460779 0.73039,2.415874 z"
     id="path62"
     inkscape:connector-curvature="0"
     style="fill:#ffffff;stroke-width:1.29962552" />
  <path
     d="m 63.831495,34.845818 c -2.472148,-0.674246 -4.382337,-1.797902 -5.955534,-3.53966 -1.573197,-1.741628 -2.303586,-3.314825 -2.752997,-6.123965 -0.842807,-5.506124 1.516923,-10.562706 6.067822,-12.753823 2.303586,-1.123682 5.393705,-1.685523 8.483825,-1.685523 1.910189,0 3.595804,0.33711 5.16887,0.618037 l -0.505554,4.944217 c 0,0 -0.393397,-0.112418 -1.517053,-0.393267 -1.067512,-0.280979 -2.135025,-0.393396 -3.202407,-0.393396 -2.135025,0 -4.213906,0.561958 -5.562267,1.62934 -3.202537,2.472148 -3.202537,8.933366 0.112418,11.630088 2.022607,1.685615 5.674554,2.247443 8.933235,1.404636 l 1.516923,-0.393267 0.44954,5.000439 c -0.955224,0.224705 -2.977831,0.617972 -5.449849,0.617972 -3.258681,0 -4.270049,-0.112418 -5.786972,-0.561828 z"
     id="path64"
     inkscape:connector-curvature="0"
     style="fill:#ffffff;stroke-width:1.29962552" />
  <path
     d="m 256.68253,20.706153 c -0.3405,0.338682 -0.79407,0.526738 -1.27623,0.526738 -0.48087,0 -0.93184,-0.188056 -1.27364,-0.526738 -0.3444,-0.341932 -0.53024,-0.795371 -0.53024,-1.276622 0,-0.994604 0.81356,-1.803361 1.80388,-1.803361 0.48216,0 0.93573,0.186886 1.27623,0.526738 0.3405,0.340892 0.52765,0.794332 0.52765,1.276623 0,0.481251 -0.18715,0.93469 -0.52765,1.276622 z m -2.33673,-2.337637 c -0.28202,0.283059 -0.44057,0.65995 -0.44057,1.060755 0,0.401714 0.15855,0.777695 0.44057,1.061794 0.28462,0.281888 0.66021,0.439923 1.0605,0.439923 0.82916,0 1.50236,-0.674376 1.50236,-1.501717 0,-0.400805 -0.15855,-0.777696 -0.44057,-1.060755 -0.28332,-0.282928 -0.66021,-0.440963 -1.06179,-0.440963 -0.40029,0 -0.77588,0.158035 -1.0605,0.440963 z"
     id="path66"
     inkscape:connector-curvature="0"
     style="clip-rule:evenodd;fill:#ffffff;fill-rule:evenodd;stroke-width:1.29962552" />
  <path
     d="m 256.23806,20.179544 c 0.0117,0.04653 0.0325,0.07746 0.0585,0.08773 v 0 l 0.026,0.01235 v 0.117746 h -0.38729 l -0.0143,-0.02469 c -0.009,-0.01547 -0.013,-0.03314 -0.0195,-0.05406 -10e-4,-0.0071 -0.004,-0.01456 -0.006,-0.02235 -0.006,-0.02898 -0.0104,-0.0785 -0.0143,-0.156995 l -0.0156,-0.321267 c -0.004,-0.108389 -0.0416,-0.179739 -0.11306,-0.214829 -0.0429,-0.01858 -0.11697,-0.02885 -0.21574,-0.02885 h -0.54844 v 0.823053 h -0.347 V 18.38959 h 0.93183 c 0.15335,0 0.27812,0.02066 0.38079,0.06719 0.19624,0.08772 0.29631,0.255116 0.29631,0.492688 0,0.123854 -0.0273,0.226135 -0.078,0.306711 -0.0377,0.05991 -0.0923,0.10748 -0.15206,0.146728 0.0494,0.02885 0.091,0.05991 0.11956,0.09916 0.0429,0.05783 0.0689,0.144518 0.0728,0.266423 l 0.009,0.259275 c 10e-4,0.0681 0.009,0.118786 0.0169,0.151796 z m -0.42758,-0.976798 c 0.0559,-0.04133 0.0845,-0.115797 0.0845,-0.228344 v -1.3e-4 c 0,-0.117746 -0.039,-0.198323 -0.12087,-0.239651 -0.0481,-0.02274 -0.11437,-0.03405 -0.19364,-0.03405 h -0.59263 v 0.568196 h 0.55884 c 0.11176,0 0.20014,-0.02365 0.26382,-0.06602 z"
     id="path68"
     inkscape:connector-curvature="0"
     style="clip-rule:evenodd;fill:#ffffff;fill-rule:evenodd;stroke-width:1.29962552" />
  <path
     d="m 96.114968,146.4184 c 0,-1.09428 -0.21898,-1.97023 -0.875814,-2.18857 -0.656831,-0.43797 -1.313662,-0.65761 -2.408336,-0.65761 -3.503011,-0.65631 -5.473503,-1.97023 -6.130334,-3.94046 -0.65683,-2.18987 -0.875817,-4.81641 -0.875817,-8.10057 L 82.321656,64.097013 c 0,-2.40834 -0.218987,-4.3787 -0.656831,-6.13034 -0.437843,-1.53252 -1.970492,-2.40833 -4.816671,-2.62719 -2.408336,0 -4.159842,0.87569 -5.254516,2.18935 -1.094805,1.31366 -2.189479,3.06516 -3.503141,4.81667 L 24.74032,123.21099 17.515312,133.50142 c -1.532648,2.18987 -3.065296,4.1601 -4.597828,6.13034 -1.751518,1.97023 -3.9409188,3.06451 -6.5682028,3.50249 -1.5325833,0.21963 -2.8462317,0.43797 -4.1598802,0.87595 -1.3136393,0.43797 -1.9704609,1.53225 -2.189401,3.28415 0,1.09428 0.4378815,1.75189 1.0947031,1.97023 0.6568281,0.21964 1.5325938,0.43797 2.4083464,0.43797 2.4083487,0 5.0356327,-0.21833 7.6629295,-0.43797 2.627336,-0.21834 5.035672,-0.43797 7.662865,-0.43797 2.408336,0 4.597815,0.21963 6.787164,0.43797 2.189479,0.21964 4.597815,0.21964 6.787164,0.43797 1.094674,0 1.970492,-0.21833 2.84631,-0.65631 0.875687,-0.43797 1.313661,-1.31392 1.313661,-2.4082 -0.218987,-1.7519 -1.094804,-2.62784 -3.065297,-2.84618 -1.970362,-0.21964 -3.721867,-0.65761 -5.692359,-1.09559 -1.970492,-0.43797 -2.84631,-1.75059 -3.065167,-4.1588 0.437844,-2.4095 1.970492,-5.91199 4.816672,-10.29082 2.84618,-4.37883 4.816672,-7.66298 6.130333,-9.41449 h 26.92967 c 0.218987,2.84631 0.218987,5.69249 0.437844,8.5388 0.218986,2.84631 0.218986,5.69249 0.218986,8.53867 -0.218986,3.94046 -1.094674,6.34867 -3.065166,7.00628 -1.970492,0.65631 -3.940984,1.09429 -5.69249,1.09429 -1.970492,0 -3.065166,1.31392 -3.065166,3.28415 0,0.87595 0.218987,1.53226 0.875817,1.97023 0.656831,0.43797 1.313662,0.43797 2.189349,0.43797 3.721998,0 7.443995,-0.21833 11.165992,-0.43797 3.721998,-0.21834 7.443995,-0.43797 11.165993,-0.43797 2.408336,0 5.035658,0.21963 7.443994,0.21963 2.408336,0.21834 5.035659,0.21834 7.443995,0.21834 1.094675,0 2.189349,-0.21834 2.84618,-0.43797 1.094675,-0.43798 1.532645,-1.09429 1.532645,-2.40821 z M 62.835982,112.04513 H 40.28501 L 61.741307,80.736504 Z"
     id="path70"
     inkscape:connector-curvature="0"
     style="fill:#ffffff;stroke-width:1.29962552" />
  <path
     d="m 291.84779,60.594513 c 0,-0.87581 -0.21963,-1.31366 -0.87594,-1.7515 -0.43798,-0.43797 -1.09429,-0.65683 -1.97024,-0.65683 -1.31392,0 -2.4082,0 -3.50379,0.21899 -1.09428,0 -2.4082,0.21885 -3.50249,0.43784 -3.06451,0.21886 -5.91199,0.43784 -8.97651,0.65683 -3.06582,0 -6.13033,0 -9.19615,0 -2.18857,0 -4.37844,-0.21899 -6.78664,-0.21899 -2.18987,-0.21898 -4.37844,-0.21898 -6.78665,-0.21898 -1.09558,0 -1.97153,0.21898 -2.84618,0.87581 -0.87595,0.65683 -1.31392,1.53265 -1.31392,2.62733 0.43797,1.97049 1.97023,3.06516 4.59808,2.84618 2.62654,-0.21899 4.1588,1.09467 4.59677,3.50301 0,0.65683 0,1.31366 -0.21834,2.18948 -0.21963,0.65683 -0.43797,1.31366 -0.65761,2.18934 L 237.3311,132.40714 c -0.65631,2.84618 -1.31392,5.25438 -2.18856,7.22462 -0.87595,1.97023 -2.62785,3.28415 -5.47403,3.94176 -1.31392,0.21834 -2.84618,0.43797 -4.59807,0.87465 -1.7506,0.43797 -2.84618,1.53356 -2.84618,3.06582 0,0.87594 0.43797,1.53225 1.09558,1.97023 0.65631,0.43797 1.53226,0.65761 2.40821,0.65761 2.84618,0 5.9107,-0.21964 8.75688,-0.43798 3.06581,-0.21963 5.91199,-0.43797 8.97651,-0.43797 3.28415,0 6.34997,0.21834 9.63412,0.43797 3.28416,0.21834 6.34867,0.21834 9.63283,0.43798 1.31392,0 2.84618,0 4.59807,-0.21964 1.7519,-0.21834 2.62654,-1.09428 2.84618,-2.84618 -0.21964,-1.75189 -1.09428,-2.62784 -2.62784,-2.84618 -1.53226,-0.21834 -3.28416,-0.43797 -4.81641,-0.87595 -1.53226,-0.43797 -2.40821,-1.97023 -2.62655,-4.59807 0,-1.09429 0.21834,-2.18857 0.43668,-3.28415 0.21963,-1.09429 0.65761,-2.18857 0.87594,-3.28416 l 17.07838,-59.332317 c 0.65631,-2.40833 1.31262,-4.15984 2.18857,-5.25464 0.87595,-1.09468 2.62784,-1.9705 5.03605,-2.40834 1.31392,-0.21899 2.62654,-0.43784 4.1601,-1.09468 1.09429,-1.09467 1.7506,-1.97036 1.97023,-3.50301 z"
     id="path72"
     inkscape:connector-curvature="0"
     style="fill:#ffffff;stroke-width:1.29962552" />
  <path
     d="m 380.73828,61.250703 c -0.21964,-1.53252 -1.7519,-2.40834 -4.37844,-3.06504 -2.84618,-0.65683 -5.69236,-0.87582 -8.75818,-1.09481 -3.06451,-0.21885 -5.03605,-0.21885 -6.13033,-0.21885 -11.38472,0 -23.20741,2.40833 -35.46808,6.78716 -12.26067,4.59769 -22.76944,11.16599 -31.52761,19.923521 -8.75818,8.75766 -13.35495,19.485666 -13.57459,32.184306 0.21964,8.1007 2.4082,14.66862 7.00628,19.923 4.59807,5.25569 10.0708,9.19615 17.07708,11.8227 6.78794,2.62784 13.79292,3.94176 21.23718,3.94176 4.37974,0 8.75817,-0.21964 13.35625,-0.87595 4.37844,-0.43797 8.75688,-1.31392 13.13531,-2.4082 1.53356,-0.21964 3.06582,-0.65631 4.1601,-1.31392 1.09559,-0.43798 1.97024,-1.53226 2.62785,-3.28416 1.09428,-3.28415 2.18857,-6.78664 3.28415,-10.29043 1.09429,-3.50262 1.97023,-7.00563 2.84618,-10.28979 1.53226,-4.81667 3.50249,-7.88184 5.69236,-8.75765 2.18987,-0.87569 4.1601,-1.31367 5.9107,-1.31367 1.75189,0 2.62784,-1.09467 2.62784,-3.28402 0,-0.87582 -0.43797,-1.53265 -1.09429,-1.97049 -0.65761,-0.43784 -1.53355,-0.65683 -2.18986,-0.65683 -3.28416,0 -6.78665,0.21899 -10.0708,0.43784 -3.50379,0.21899 -6.78795,0.43785 -10.29044,0.43785 -3.28415,0 -6.5683,-0.21886 -9.63412,-0.43785 -3.28415,-0.21885 -6.56701,-0.43784 -9.63282,-0.43784 -1.09429,0 -2.18987,0.21899 -3.06452,0.65683 -1.09558,0.43784 -1.53356,1.31366 -1.53356,2.40834 0.21964,1.53251 1.09559,2.40833 2.62784,2.62732 1.7519,0.21885 3.28416,0.43784 5.03605,1.09467 1.7506,0.43785 2.62655,1.97049 2.62655,4.37883 -0.21834,2.62732 -0.87595,5.91135 -2.40821,10.50916 -1.31392,4.37896 -2.62784,7.88145 -3.50249,10.72763 -0.43797,1.97153 -1.31392,3.50379 -2.18987,4.37974 -0.87595,0.87465 -2.40821,1.31262 -4.59807,1.31262 -7.88223,-0.21834 -14.01257,-2.62654 -17.95303,-7.66259 -4.1601,-5.03605 -6.13033,-11.16573 -6.13033,-18.82872 0,-7.00602 1.53225,-14.01217 4.37843,-20.580466 2.84618,-6.56818 6.78795,-12.47953 11.60436,-17.51519 4.81641,-4.816671 10.94675,-8.976511 17.95303,-12.479651 7.22461,-3.50301 14.23089,-5.25452 21.23718,-5.4735 3.28415,0 5.25438,0.65683 6.13033,1.97049 0.65631,1.31366 1.09428,3.50301 0.87595,6.56818 0,0.87581 0,1.53264 -0.21964,2.40846 0,0.87569 -0.21834,1.53252 -0.21834,2.40834 0,1.313661 0.21834,2.627191 0.65631,3.721871 0.43798,1.0948 1.53356,1.75163 3.06582,1.75163 1.7519,-0.21899 2.84618,-0.87582 3.72213,-2.40834 0.87595,-1.53264 1.31392,-3.065161 1.75189,-4.378821 0.43668,-1.09468 1.09429,-3.28416 2.18857,-6.78717 0.87595,-3.50314 1.53226,-5.69249 1.7519,-6.5683 z"
     id="path74"
     inkscape:connector-curvature="0"
     style="fill:#ffffff;stroke-width:1.29962552" />
  <path
     d="m 458.24274,146.4184 c 0,-1.09428 -0.21964,-1.97023 -0.87595,-2.18857 -0.65761,-0.43797 -1.31392,-0.65761 -2.4082,-0.65761 -3.50379,-0.65631 -5.47402,-1.97023 -6.13034,-3.94046 -0.65761,-2.18987 -0.87594,-4.81641 -0.87594,-8.10057 l -3.50379,-67.434177 c 0,-2.40834 -0.21834,-4.3787 -0.65631,-6.13034 -0.43798,-1.53252 -1.97024,-2.40833 -4.81642,-2.62719 -2.4082,0 -4.1601,0.87569 -5.25568,2.18935 -1.09429,1.31366 -2.18857,3.06516 -3.50249,4.81667 l -43.35031,60.865487 -7.22462,10.29043 c -1.53226,2.18987 -3.06581,4.1601 -4.59807,6.13034 -1.7519,1.97023 -3.94047,3.06451 -6.56831,3.50249 -1.53226,0.21963 -2.84618,0.43797 -4.1601,0.87595 -1.31262,0.43797 -1.97023,1.53225 -2.18857,3.28415 0,1.09428 0.43797,1.75189 1.09429,1.97023 0.65631,0.21964 1.53225,0.43797 2.4082,0.43797 2.40821,0 5.03605,-0.21833 7.66259,-0.43797 2.62785,-0.21834 5.03605,-0.43797 7.66389,-0.43797 2.40821,0 4.59678,0.21963 6.78665,0.43797 2.4082,0.21964 4.59807,0.21964 6.78664,0.43797 1.09559,0 1.97153,-0.21833 2.84618,-0.65631 0.87595,-0.43797 1.31392,-1.31392 1.31392,-2.4082 -0.21833,-1.7519 -1.09428,-2.62784 -3.06451,-2.84618 -1.97024,-0.21964 -3.72213,-0.65761 -5.69236,-1.09559 -1.97153,-0.43797 -2.84618,-1.75059 -3.06582,-4.1588 0.43797,-2.4095 1.97023,-5.91199 4.81641,-10.29082 2.84618,-4.37883 4.81771,-7.66298 6.13034,-9.41449 h 27.14917 c 0.21834,2.84631 0.21834,5.69249 0.43798,8.5388 0.21833,2.84631 0.21833,5.69249 0.21833,8.53867 -0.21833,3.94046 -1.09428,6.34867 -3.06451,7.00628 -1.97024,0.65631 -3.94177,1.09429 -5.69236,1.09429 -1.97024,0 -3.06582,1.31392 -3.06582,3.28415 0,0.87595 0.21964,1.53226 0.87595,1.97023 0.65631,0.43797 1.31392,0.43797 2.18987,0.43797 3.72212,0 7.44425,-0.21833 11.16508,-0.43797 3.72213,-0.21834 7.44425,-0.43797 11.16638,-0.43797 2.40821,0 5.03605,0.21963 7.44426,0.21963 2.4082,0.21834 5.03604,0.21834 7.44425,0.21834 1.09429,0 2.18857,-0.21834 2.84618,-0.43797 0.87595,-0.43798 1.31392,-1.09429 1.31392,-2.40821 z M 424.7436,112.04513 h -22.54981 l 21.45552,-31.308626 z"
     id="path76"
     inkscape:connector-curvature="0"
     style="fill:#ffffff;stroke-width:1.29962552" />
  <path
     d="m 234.48493,61.032363 c 0,-0.87582 -0.21834,-1.53252 -0.87595,-1.97049 -0.43798,-0.43785 -1.09429,-0.6567 -1.97023,-0.6567 -2.84618,0 -5.69236,-1.3e-4 -8.53854,0.21885 -2.84618,0.21886 -5.69236,0.21899 -8.53854,0.21899 -1.53226,0 -3.72213,-0.21899 -6.78795,-0.21899 -3.06451,0 -5.03475,0.21886 -6.13033,1.09468 -0.21834,0.21898 -0.43797,0.65683 -0.43797,0.87581 -0.21834,0.43785 -0.43668,0.65684 -0.43668,0.87569 l -37.21997,56.267807 -1.53356,-55.391987 c 0,-1.09467 0,-1.97049 -0.21834,-2.62732 -0.21963,-0.87582 -0.87594,-1.09468 -1.97023,-1.31353 -3.06582,0 -6.34997,-1.3e-4 -9.41449,0.21885 -3.06581,0 -6.34997,0 -9.41448,0 -1.7519,0 -3.50379,-0.21885 -5.25439,-0.21885 -1.75189,-0.21899 -3.50379,-0.21899 -5.25568,-0.21899 -1.09416,0 -2.18883,0.21886 -3.28351,0.43784 -1.09467,0.43785 -1.53265,1.09468 -1.7515,2.40834 0.43784,2.18935 2.18935,3.28415 5.03501,3.06516 3.06581,0 4.59807,1.09481 5.03604,3.06517 0,1.53265 -0.43797,3.06517 -0.87594,4.59769 -0.65631,1.53264 -1.09429,3.06516 -1.53226,4.37882 -3.28403,9.195501 -6.56818,18.172151 -9.85233,27.367647 -3.28403,9.1955 -6.56818,18.17201 -10.07119,27.36803 -1.31366,3.94047 -2.62732,6.56831 -3.94098,8.10057 -1.31367,1.53225 -3.94099,2.62654 -8.10083,3.28415 -1.09467,0.21834 -2.189352,0.43797 -3.065172,1.09428 -0.87568,0.43798 -1.31366,1.31393 -1.31366,2.62785 0,1.09428 0.43798,1.75059 1.09481,2.18857 0.65683,0.21963 1.53252,0.43797 2.627192,0.43797 2.40834,0 4.81667,0 7.22514,-0.21834 2.40833,-0.21963 4.81667,-0.21963 7.22501,-0.21963 2.18934,0 4.37882,0.21963 6.56817,0.43797 2.18948,0.21964 4.37883,0.21964 6.56831,0.43797 1.09467,0 1.97101,-0.21833 2.84566,-0.65631 0.87595,-0.43797 1.31392,-1.31392 1.53356,-2.4082 -0.21964,-1.97024 -1.09559,-2.84618 -3.06569,-3.06582 -1.97036,-0.21834 -3.94085,-0.43797 -5.91135,-0.87595 -1.97049,-0.43797 -3.06516,-2.18857 -3.06516,-5.25438 0.21898,-4.1601 1.7515,-10.5089 4.59768,-19.04757 2.84631,-8.31982 5.69262,-16.6395 8.97678,-24.521336 3.06451,-7.88184 5.25438,-13.13648 6.34867,-15.98266 l 1.53355,64.367976 c 0,1.97153 0.21834,3.50379 0.65632,4.81771 0.43797,1.09429 1.75189,1.7506 3.94046,1.7506 2.18987,0 3.94176,-0.87595 5.25568,-2.40821 1.31263,-1.53226 2.40821,-3.06452 3.5025,-4.81641 l 43.3503,-63.711666 -14.2309,53.859206 c -0.43797,2.4082 -1.09558,4.59807 -1.97023,7.00628 -0.87595,2.4082 -2.62784,3.72213 -5.03605,4.37844 -1.53226,0 -3.06581,0.43797 -4.81641,0.65761 -1.75189,0.43797 -2.84618,1.53226 -3.06582,3.28415 0,1.09429 0.43798,1.7506 1.09429,2.18857 0.65761,0.43797 1.53356,0.65761 2.4095,0.65761 3.06452,0 6.34868,-0.21964 9.41449,-0.43797 3.06452,-0.21964 6.34867,-0.43798 9.41319,-0.43798 3.28415,0 6.56831,0.21834 9.63412,0.43798 3.28416,0.21833 6.56831,0.43797 9.63283,0.43797 1.31392,0 2.18987,-0.21964 3.28415,-0.65761 0.87595,-0.43797 1.53356,-1.31392 1.53356,-2.62654 -0.21964,-1.53356 -0.87595,-2.62785 -2.40951,-2.84618 -1.53226,-0.21964 -3.06451,-0.65761 -4.59677,-1.09559 -1.53356,-0.43797 -2.40821,-1.75059 -2.40821,-4.1588 0,-1.53356 0.21834,-3.28415 0.65631,-5.03605 0.43798,-1.75189 0.65631,-3.28428 1.09429,-4.81693 l 13.79422,-55.391987 c 0.43668,-2.40833 1.09429,-4.37882 1.97023,-5.69236 0.87595,-1.31366 2.40821,-2.18947 5.03475,-2.62732 1.31392,0 2.62785,-0.43797 3.94177,-0.87582 0.65631,0.21899 1.53226,-0.65683 1.53226,-2.40833 z"
     id="path78"
     inkscape:connector-curvature="0"
     style="fill:#ffffff;stroke-width:1.29962552" />
  <path
     d="m 467.3973,65.954303 c -1.14107,1.13431 -2.65903,1.76385 -4.27446,1.76385 -1.60764,0 -3.11911,-0.62954 -4.26408,-1.76385 -1.15146,-1.14484 -1.77398,-2.66319 -1.77398,-4.27486 0,-3.33055 2.72141,-6.03858 6.03806,-6.03858 1.61543,0 3.13339,0.62603 4.27446,1.76385 1.13848,1.14133 1.76749,2.65969 1.76749,4.27473 0,1.61167 -0.62901,3.13002 -1.76749,4.27486 z m -7.82504,-7.82595 c -0.94483,0.94768 -1.47378,2.21014 -1.47378,3.552 0,1.34537 0.52895,2.60432 1.47378,3.55539 0.95392,0.94417 2.20936,1.47338 3.55187,1.47338 2.7773,0 5.02826,-2.25849 5.02826,-5.02877 0,-1.34186 -0.52895,-2.60432 -1.47378,-3.552 -0.94743,-0.94756 -2.21326,-1.47677 -3.55448,-1.47677 -1.34251,0 -2.59795,0.52921 -3.55187,1.47677 z"
     id="path80"
     inkscape:connector-curvature="0"
     style="clip-rule:evenodd;fill:#ffffff;fill-rule:evenodd;stroke-width:1.29962552" />
  <path
     d="m 465.90793,64.192013 c 0.0377,0.15569 0.10657,0.2594 0.19755,0.29397 l -10e-4,-1.3e-4 0.0871,0.0415 v 0.39431 h -1.29703 l -0.0481,-0.0829 c -0.0286,-0.0517 -0.0455,-0.11099 -0.065,-0.18104 -0.007,-0.0237 -0.0143,-0.0486 -0.0221,-0.075 -0.0208,-0.0968 -0.0338,-0.26279 -0.0481,-0.5257 l -0.052,-1.07557 c -0.0143,-0.36312 -0.14166,-0.60173 -0.38079,-0.71935 -0.14166,-0.0623 -0.38989,-0.0968 -0.72259,-0.0968 h -1.83637 v 2.75638 h -1.16187 v -6.72336 h 3.123 c 0.51206,0 0.93054,0.0691 1.27624,0.22484 0.65371,0.29398 0.98901,0.85437 0.98901,1.64974 0,0.41511 -0.0897,0.75743 -0.25862,1.02723 -0.12867,0.20066 -0.30801,0.35974 -0.50946,0.49113 0.16246,0.0968 0.30542,0.20066 0.39769,0.33205 0.14556,0.19365 0.23263,0.48411 0.24693,0.89232 l 0.0273,0.86802 c 0.007,0.22835 0.0312,0.39782 0.0585,0.50842 z m -1.43089,-3.27142 c 0.18715,-0.13828 0.28462,-0.38742 0.28462,-0.76457 v -1.3e-4 c 0,-0.39431 -0.13126,-0.66424 -0.40808,-0.80252 -0.15985,-0.0762 -0.38079,-0.11411 -0.64721,-0.11411 h -1.98583 v 1.90279 h 1.87146 c 0.37299,0 0.67061,-0.0794 0.88504,-0.22146 z"
     id="path82"
     inkscape:connector-curvature="0"
     style="clip-rule:evenodd;fill:#ffffff;fill-rule:evenodd;stroke-width:1.29962552" />
</svg>
