<?xml version="1.0" encoding="UTF-8" standalone="no"?>
<svg
   xmlns:dc="http://purl.org/dc/elements/1.1/"
   xmlns:cc="http://creativecommons.org/ns#"
   xmlns:rdf="http://www.w3.org/1999/02/22-rdf-syntax-ns#"
   xmlns:svg="http://www.w3.org/2000/svg"
   xmlns="http://www.w3.org/2000/svg"
   xmlns:sodipodi="http://sodipodi.sourceforge.net/DTD/sodipodi-0.dtd"
   xmlns:inkscape="http://www.inkscape.org/namespaces/inkscape"
   width="500"
   height="200"
   viewBox="0 0 500 200"
   version="1.1"
   id="svg132"
   sodipodi:docname="apple2.svg"
   style="fill:none"
   inkscape:version="0.92.5 (2060ec1f9f, 2020-04-08)">
  <metadata
     id="metadata136">
    <rdf:RDF>
      <cc:Work
         rdf:about="">
        <dc:format>image/svg+xml</dc:format>
        <dc:type
           rdf:resource="http://purl.org/dc/dcmitype/StillImage" />
        <dc:title></dc:title>
      </cc:Work>
    </rdf:RDF>
  </metadata>
  <sodipodi:namedview
     pagecolor="#ffffff"
     bordercolor="#666666"
     borderopacity="1"
     objecttolerance="10"
     gridtolerance="10"
     guidetolerance="10"
     inkscape:pageopacity="0"
     inkscape:pageshadow="2"
     inkscape:window-width="1366"
     inkscape:window-height="740"
     id="namedview134"
     showgrid="false"
     inkscape:pagecheckerboard="true"
     inkscape:zoom="1.0319125"
     inkscape:cx="283"
     inkscape:cy="83"
     inkscape:window-x="0"
     inkscape:window-y="0"
     inkscape:window-maximized="1"
     inkscape:current-layer="svg132" />
  <g
     clip-path="url(#clip0)"
     id="g125"
     transform="matrix(0.88311588,0,0,0.88311588,8.8049948,26.256993)">
    <path
       d="m 172.9,74.9196 h -11.544 c -6.788,0 -12.232,5.5424 -12.232,12.331 0,6.7886 5.411,12.2326 12.232,12.2326 h 6.854 v 17.2828 h -12.265 c -15.381,0 -28.827,-14.758 -28.827,-29.745 0,-16.2991 13.217,-29.3844 28.598,-29.3844 h 37.255 V 116.799 H 172.9 Z"
       id="path109"
       inkscape:connector-curvature="0"
       style="fill:#ffffff" />
    <path
       d="m 224.619,134.082 h -20.07 V 57.6366 h 37.255 c 15.381,0 28.597,13.0853 28.597,29.3844 0,14.987 -13.446,29.745 -28.826,29.745 H 229.309 V 99.4832 h 6.854 c 6.789,0 12.233,-5.4112 12.233,-12.2326 0,-6.8214 -5.411,-12.331 -12.233,-12.331 h -11.544 z"
       id="path111"
       inkscape:connector-curvature="0"
       style="fill:#ffffff" />
    <path
       d="M 298.572,134.082 H 278.501 V 57.6366 h 37.255 c 15.381,0 28.598,13.0853 28.598,29.3844 0,14.987 -13.446,29.745 -28.827,29.745 H 303.261 V 99.4832 h 6.854 c 6.789,0 12.233,-5.4112 12.233,-12.2326 0,-6.8214 -5.411,-12.331 -12.233,-12.331 h -11.543 z"
       id="path113"
       inkscape:connector-curvature="0"
       style="fill:#ffffff" />
    <path
       d="M 372.656,39.5336 V 116.766 H 352.585 V 39.5336 Z"
       id="path115"
       inkscape:connector-curvature="0"
       style="fill:#ffffff" />
    <path
       d="m 448.083,57.6366 v 17.2502 l -11.314,19.6115 h -22.137 l 11.315,-19.5459 h -10.79 c -6.789,0 -12.232,5.5424 -12.232,12.331 0,6.7886 5.411,12.2326 12.232,12.2326 h 32.926 v 17.283 h -38.337 c -15.381,0 -28.827,-14.758 -28.827,-29.7452 0,-16.2992 13.216,-29.3844 28.597,-29.3844 h 38.567 z"
       id="path117"
       inkscape:connector-curvature="0"
       style="fill:#ffffff" />
    <path
       d="M 497.357,34.1227 V 116.799 H 464.103 V 98.3356 h 11.248 V 53.5374 H 464.103 V 34.1227 Z m 40.764,0 v 19.4147 h -11.249 v 44.7982 h 11.249 V 116.799 H 504.867 V 34.1227 Z"
       id="path119"
       inkscape:connector-curvature="0"
       style="fill:#ffffff" />
    <path
       d="m 93.276,29.6 c 6.2,-6.8 9.4,-16.3 9.8,-29.1 V 0 l -0.4,0.1 c -21.7,4.4 -32.9,18 -33.3,40.4 v 0.4 l 0.4,-0.1 c 10.4,-1.5 18,-5.2 23.5,-11.2 z"
       id="path121"
       inkscape:connector-curvature="0"
       style="fill:#ffffff" />
    <path
       d="m 140.876,121.6 -0.3,-0.2 c -6.4,-3.2 -14.9,-10.1 -19.8,-20 l -0.1,-0.2 c -2.9,-6 -4.4,-13 -2.9,-20.5 v -0.1 h 0.1 c 1.5,-7.2 5.4,-14.1 11.9,-20.8 l 0.6,-0.6 c 1.4,-1.4 3,-2.9 4.6,-4.2 l 0.3,-0.2 -0.2,-0.3 c -8.1,-10 -19.1,-15.4 -31.9,-15.6 h -0.6 c -6.5001,0 -12.2001,1.2 -16.6001,3.6 -5.7,3 -9.9,3.7 -9.9,3.7 -0.1,0 -0.5,0 -1.8,0 -1.5,0 -2.9,0 -3,0 h -0.1 c -1.8,-0.2 -6.4,-1 -10.2,-3 -5.1,-2.7 -10.8,-4.2 -16.4,-4.2 h -0.4 c -15,-0.1 -27.5,7.3 -35.20002,20.2 l -0.1,0.2 c -3.7,6.1 -6.2,13.2 -7.4,20.8 v 0.3 c -0.999996,6.7 -0.999996,13.7 -0.1,20.7 l 0.1,0.4 c 0.8,6.1 2.5,13.5 5.7,21.6 l 0.2,0.5 c 2.90002,7.3 6.70002,14.3 11.30002,21 l 0.4,0.6 c 3.6,5.2 7.7,10.2 12.2,15 3.4,3.6 8.9,5.6 15.5,5.6 4.8,0 9.7,-1.1 12.9,-2.9 6.6,-3.7 10.1,-3.7 12.7,-3.8 0.5,0 1,0 1.5,0 h 0.4 0.1 c 0.5,0 1.1,-0.1 1.7,-0.1 2.3,0 5.7,0.4 11.8,3.9 4.3,1.8 8.5,2.7 12.4001,2.7 10.7,0 20.1,-6.7 28.6,-20.4 l 0.4,-0.6 c 4.2,-6.8 7.7,-14.4 10.8,-21 l 0.2,-0.5 z"
       id="path123"
       inkscape:connector-curvature="0"
       style="fill:#ffffff" />
  </g>
  <defs
     id="defs130">
    <clipPath
       id="clip0">
      <rect
         width="564.703"
         height="165.918"
         transform="translate(0.645508,0.0820312)"
         id="rect127"
         x="0"
         y="0"
         style="fill:#ffffff" />
    </clipPath>
  </defs>
</svg>
