<?xml version="1.0" encoding="UTF-8" standalone="no"?>
<!-- Created with Inkscape (http://www.inkscape.org/) -->

<svg
   xmlns:dc="http://purl.org/dc/elements/1.1/"
   xmlns:cc="http://creativecommons.org/ns#"
   xmlns:rdf="http://www.w3.org/1999/02/22-rdf-syntax-ns#"
   xmlns:svg="http://www.w3.org/2000/svg"
   xmlns="http://www.w3.org/2000/svg"
   xmlns:sodipodi="http://sodipodi.sourceforge.net/DTD/sodipodi-0.dtd"
   xmlns:inkscape="http://www.inkscape.org/namespaces/inkscape"
   width="500"
   height="200"
   viewBox="0 0 132.29166 52.916668"
   version="1.1"
   id="svg8"
   sodipodi:docname="arcade.svg"
   inkscape:version="0.92.5 (2060ec1f9f, 2020-04-08)">
  <defs
     id="defs2" />
  <sodipodi:namedview
     id="base"
     pagecolor="#ffffff"
     bordercolor="#666666"
     borderopacity="1.0"
     inkscape:pageopacity="0.0"
     inkscape:pageshadow="2"
     inkscape:zoom="1.53125"
     inkscape:cx="255.97378"
     inkscape:cy="108.24473"
     inkscape:document-units="mm"
     inkscape:current-layer="layer1"
     showgrid="false"
     units="px"
     inkscape:pagecheckerboard="true"
     inkscape:window-width="1366"
     inkscape:window-height="740"
     inkscape:window-x="0"
     inkscape:window-y="0"
     inkscape:window-maximized="1" />
  <metadata
     id="metadata5">
    <rdf:RDF>
      <cc:Work
         rdf:about="">
        <dc:format>image/svg+xml</dc:format>
        <dc:type
           rdf:resource="http://purl.org/dc/dcmitype/StillImage" />
        <dc:title></dc:title>
      </cc:Work>
    </rdf:RDF>
  </metadata>
  <g
     inkscape:label="Layer 1"
     inkscape:groupmode="layer"
     id="layer1"
     transform="translate(0,-244.08332)">
    <flowRoot
       xml:space="preserve"
       id="flowRoot10"
       style="fill:black;stroke:none;stroke-opacity:1;stroke-width:1px;stroke-linejoin:miter;stroke-linecap:butt;fill-opacity:1;font-family:Dymo;font-style:normal;font-weight:normal;font-size:40px;line-height:125%;letter-spacing:0px;word-spacing:0px;-inkscape-font-specification:Dymo;font-stretch:normal;font-variant:normal;"><flowRegion
         id="flowRegion12"
         style="-inkscape-font-specification:Dymo;font-family:Dymo;font-weight:normal;font-style:normal;font-stretch:normal;font-variant:normal;"><rect
           id="rect14"
           width="69.224487"
           height="121.46939"
           x="12.408163"
           y="37.387756"
           style="-inkscape-font-specification:Dymo;font-family:Dymo;font-weight:normal;font-style:normal;font-stretch:normal;font-variant:normal;" /></flowRegion><flowPara
         id="flowPara16"></flowPara></flowRoot>    <g
       aria-label="arcade"
       transform="matrix(1.0203005,-0.06478158,0.08678097,0.97459344,0,0)"
       style="font-style:normal;font-weight:normal;font-size:21.21321869px;line-height:125%;font-family:sans-serif;letter-spacing:0px;word-spacing:0px;fill:#ffffff;fill-opacity:1;stroke:none;stroke-width:0.53033048px;stroke-linecap:butt;stroke-linejoin:miter;stroke-opacity:1;image-rendering:auto"
       id="text20">
      <path
         d="M -20.622068,263.15025 H 0.45538567 v 33.95812 H -20.622068 Z m 12.8806661,9.1132 q -0.3563821,-1.06915 -1.9855572,-1.06915 -1.5782639,0 -1.9855569,1.06915 -1.629176,4.63296 -5.498467,14.25528 -0.101823,0.30547 -0.101823,0.56003 0,0.96732 0.763676,0.96732 0.661852,0 0.865499,-0.71276 l 0.763676,-2.64741 q 0.152735,-0.61094 1.578263,-0.61094 h 6.7712597 q 1.120058,0 1.3237049,0.66185 l 0.7127641,2.34194 q 0.3054704,0.96732 0.916411,0.96732 1.120058,0 0.6109407,-1.52735 z m -1.9855572,0 q 0.6109406,0 0.916411,0.66185 0.3563821,0.66185 0.2545586,0.76367 -0.050912,0.10183 -0.1527352,0.10183 -0.050912,0 -0.3054703,-0.35638 -0.2036469,-0.35639 -0.3563821,-0.35639 -0.4072938,0 -0.1018234,0.81459 0.1018234,0.25456 0.4582055,0.45821 0.4072938,0.15273 0.5091172,0.40729 l 1.9346455,5.44756 q 0.050912,0.40729 0.1018235,1.22188 0.050912,0.35638 0.3054703,0.35638 0.1018235,0 0.1018235,-0.30547 0,-0.30547 0.1018234,-0.30547 l 0.2036469,1.52735 q -7.0258183,0.10182 -8.5022583,0 1.272794,-3.10562 2.34194,-6.41488 0.661852,-2.08738 0.814587,-2.08738 0.152735,0 0.101824,0.25456 -0.05091,0.25456 0.203647,0.25456 0.203647,0 0.407293,-0.56003 0.203647,-0.56003 0,-0.56003 -0.152735,0 -0.203646,0.20365 0,0.15273 -0.203647,0.15273 -0.101824,0 -0.101824,-0.20364 0,-0.45821 0.305471,-0.96733 0.356382,-0.50911 0.8654989,-0.50911 z m -3.4619969,1.27279 q -2.443763,6.16032 -4.887526,12.5752 0,0.50911 0.203647,0.61094 0.254559,0.10182 0.254559,-0.20365 0.05091,-0.35638 0.203647,-1.01824 3.309262,-8.09496 4.683878,-11.81152 0.203647,-0.56002 -0.101823,-0.56002 -0.203647,0 -0.356382,0.40729 z m 7.68767,1.731 q -0.1018235,-0.35638 -0.3563821,-0.25456 -0.2545586,0.0509 -0.1527352,0.40729 0.2036469,0.71277 3.2583504,9.92779 0,0 0.3054703,1.22188 0.1527352,0.50912 0.3563821,0.50912 0.4582055,0 0.1018234,-1.32371 -1.47644,-4.3784 -3.5129089,-10.48781 z m -8.400435,9.46958 q -0.254558,0 -0.712764,1.01823 -0.407293,0.96733 -0.407293,1.47644 0,0.15274 0.05091,0.20365 0.254559,0.10182 0.712764,-0.91641 0.407294,-0.8655 0.8655,-1.01824 0.30547,-0.10182 2.392851,-0.10182 3.0547032,0 4.3274963,0.10182 0.4072938,0.0509 0.4582055,0.91642 0.1018235,0.8655 0.560029,0.8655 0.4072938,0 0.2545586,-1.01824 -0.1527352,-0.91641 -0.4582055,-1.22188 -0.2545586,-0.30547 -1.2218814,-0.30547 z m 4.6838791,-9.21502 1.47644,5.04026 q 0,0.0509 0.1018234,0.71276 0.050912,0.35638 0.2545587,0.35638 0.2036469,0 0.1018234,-0.40729 -0.1527352,-0.35638 -0.050912,-0.35638 0.5091172,0 0.2545586,-0.50912 -0.3054703,-0.40729 -0.916411,-2.24012 -0.6109407,-1.83282 -0.7127642,-2.59649 -0.050912,-0.4073 -0.3054703,-0.4073 -0.3054704,0 -0.2036469,0.4073 z m -1.1200581,0.30547 q 0.203647,-0.50912 -0.203647,-0.50912 -0.152735,0 -0.254558,0.30547 -1.730999,4.37841 -1.730999,5.04026 0,0.15274 0.101823,0.20365 0.203647,0.0509 1.018235,-2.13829 0.560029,-1.42553 1.069146,-2.90197 z m 1.5782636,5.75302 q -1.9346456,0.0509 -1.9346456,0.4073 0,0.15273 2.596498,0.15273 0.2545586,0 0.2545586,-0.20365 0,-0.40729 -0.916411,-0.35638 z m -3.2583506,-9.9787 q -0.203647,0 -0.356382,0.30547 -0.152735,0.35639 0.05091,0.35639 0.203647,0 0.356382,-0.35639 0.152735,-0.30547 -0.05091,-0.30547 z m 4.8875258,0.96733 0.6109407,1.68008 q 0.1018234,0.25456 0.4072938,0.20365 0.2545586,-0.0509 0.1527351,-0.35638 l -0.5600289,-1.52735 q -0.1018235,-0.30547 -0.4072938,-0.30547 -0.3054704,0.0509 -0.2036469,0.30547 z"
         style="font-style:normal;font-variant:normal;font-weight:normal;font-stretch:normal;font-size:50.91172409px;font-family:Dymo;-inkscape-font-specification:Dymo;fill:#ffffff;stroke-width:0.53033048px"
         id="path98" />
      <path
         d="M -0.2573983,263.15025 H 20.870967 v 33.95812 H -0.2573983 Z m 13.4406953,7.99314 H 6.0556555 q -2.5455862,0 -2.5964979,0.30547 -0.1018235,0.66185 0.2545586,0.66185 0.050912,0 0.1527351,-0.10182 0.1527352,-0.10183 0.2036469,-0.0509 0.050912,0.0509 0.050912,0.35638 -0.050912,5.49846 -0.4582055,14.56075 l -1.0691463,0.0509 q -0.2036469,0 -0.2036469,0.20365 0,0.25456 0.2036469,0.25456 l 0.8145876,0.0509 q 0,0.96732 0.6109407,0.96732 0.560029,0 1.1200579,-0.56003 -0.2036468,-2.95288 -0.1018234,-5.2439 0.1018234,-2.1383 0.4072938,-2.1383 0,0 0.4582055,0.10183 0.4582055,0.0509 1.1200579,0.0509 h 6.7712598 q 1.985557,0 1.985557,2.03647 0,4.73479 -0.458206,5.09117 -0.101823,0.0509 -0.101823,0.15274 0,0.25455 0.356382,0.4582 0.407294,0.20365 0.661852,0.10182 0.712764,-0.30547 0.814588,-1.93464 0,-0.0509 0,-3.71656 0,-0.8655 -0.458206,-1.62917 -0.458205,-0.76368 -1.018234,-0.91641 1.527352,-1.88374 1.527352,-4.48023 0,-4.63297 -3.920203,-4.63297 z m -8.145876,1.17097 q 4.42932,0.10182 8.298611,0.0509 0.865499,0 1.578263,0.8655 0.712765,0.8655 0.712765,1.98556 0,4.27658 -1.374617,4.17476 -5.4475544,-0.4073 -8.1967875,-0.0509 -0.2545586,0.0509 -0.3054704,0.25455 0,0.15274 -0.050912,0.15274 -0.4072938,0.0509 -0.7636758,-0.15274 0,-3.30926 0.1018234,-7.28037 z m 9.265934,5.95667 q 0.763676,-0.8655 0.763676,-2.5965 0,-1.93464 -0.916411,-2.44376 -1.17097,-0.66185 -7.3312887,-0.30547 -0.7636758,0.0509 -0.7636758,0.25456 0,0.30547 0.7636758,0.40729 0.5091173,0.0509 1.5782635,0 1.2727931,-0.0509 1.4255283,-0.0509 0.4582059,0 1.2218809,0 0.814588,-0.0509 1.069147,-0.0509 2.291027,0 2.291027,2.39285 0,1.47644 -0.254558,1.98556 -0.152736,0.30547 -0.101824,0.4582 0.05091,0.15274 0.254559,-0.0509 z m -8.6549933,-3.76747 q -0.1527352,3.76747 0.050912,3.92021 0.2036469,0.15273 3.1565269,0.15273 3.0037917,0 3.0547037,-0.25456 0,-0.20365 -2.443763,-0.20365 -2.8001448,-0.0509 -3.4110855,-0.20364 0.2036469,-1.62918 0.2036469,-2.95288 0,-1.12006 -0.4072938,-1.12006 -0.2036469,0 -0.2036469,0.66185 z m 0.6618524,6.82217 0.3054703,0.66186 6.1094066,0.35638 q 1.425529,0.10182 1.425529,-0.66185 0,-0.20365 -0.407294,-0.20365 z M 3.000952,272.00889 q 0.1527352,0 0.1527352,10.89511 0,3.36017 -0.3054703,3.36017 -0.2545587,0 -0.2545587,-4.53114 0,-9.72414 0.4072938,-9.72414 z m 2.8001449,10.02961 q -0.2036469,0.66185 -0.2036469,3.10561 0,2.39285 0.2036469,2.49468 0.4072938,0 0.4072938,-3.76747 0,-1.68009 -0.4072938,-1.83282 z m 9.2659341,0.35638 q 0,-0.40729 -0.152736,-0.40729 -0.458205,0 -0.407293,0.8655 0.05091,1.01823 -0.05091,3.25835 -0.05091,1.27279 0.152735,1.27279 0.356382,0 0.458206,-1.88374 0,-1.57826 0,-3.10561 z m 2.341939,-2.39285 q 0.814588,-1.27279 0.814588,-3.462 0,-1.22188 -0.203647,-2.1892 -0.05091,-0.25456 -0.152736,-0.4073 -0.101823,-0.15273 -0.152735,-0.10182 -0.05091,0.0509 0,0.40729 0.407294,3.56382 -0.61094,5.54938 -0.152736,0.25456 0.05091,0.30547 0.152736,0.10183 0.254559,-0.10182 z m 0.458205,1.98556 q -0.30547,0 -0.30547,1.78191 0,1.78191 0.30547,1.78191 0.101824,0 0.101824,-1.78191 0,-1.78191 -0.101824,-1.78191 z"
         style="font-style:normal;font-variant:normal;font-weight:normal;font-stretch:normal;font-size:50.91172409px;font-family:Dymo;-inkscape-font-specification:Dymo;fill:#ffffff;stroke-width:0.53033048px"
         id="path100" />
      <path
         d="m 20.158156,263.15025 h 21.637482 v 33.95812 H 20.158156 Z m 17.564545,13.38978 q 0.916411,0 0.916411,-1.3237 0,-2.64741 -1.17097,-3.36018 -1.425528,-0.8655 -6.058495,-0.8655 -4.938437,0 -6.262142,1.32371 -0.967323,0.96732 -0.967323,6.46579 0,6.16032 1.323705,7.3822 1.323705,1.22188 6.058495,1.22188 4.072938,0 5.702113,-0.76368 1.323705,-0.61094 1.323705,-2.85105 0,-1.52736 -0.763676,-1.52736 -0.814588,0 -0.814588,0.91642 0,1.78191 -0.407293,2.24011 -0.560029,0.61094 -5.192996,0.61094 -3.767468,0 -4.887526,-0.71276 -1.120058,-0.71277 -1.120058,-7.28038 0,-3.9202 0.8655,-4.88752 0.916411,-0.96733 5.345731,-0.96733 3.665644,0 4.582055,0.66186 0.661852,0.50911 0.661852,2.80014 0,0.91641 0.8655,0.91641 z m -8.55317,-6.05849 q 0,-0.10183 -0.916411,-0.10183 -2.036469,0 -3.512909,0.96733 -1.425528,0.96732 -1.730999,3.56382 -0.05091,0.50911 -0.05091,3.20743 0,5.49847 0.407293,7.17856 0.203647,0.76367 1.120058,1.78191 0.916411,1.01823 2.901969,1.27279 1.018234,0.15274 4.123849,0.15274 6.313054,0 7.331288,-1.88374 0.152736,-0.30547 -0.05091,-0.30547 -0.152735,-0.0509 -0.305471,0.15274 -0.560029,0.8655 -1.730998,1.17097 -1.425528,0.35638 -5.192996,0.35638 -2.901968,0 -3.156527,0 -2.138292,-0.20365 -3.360174,-1.06915 -1.629175,-1.17097 -1.629175,-6.92399 0,-0.50912 0.203647,-5.34573 0.101823,-2.18921 1.78191,-3.25835 1.221882,-0.76368 2.95288,-0.76368 0.814588,0 0.814588,-0.15273 z m 6.873083,4.63296 q 0.254558,0 0.152735,-0.66185 -0.101824,-0.61094 -0.407294,-0.81459 -1.018234,-0.66185 -4.531143,-0.66185 -3.258351,0 -4.225674,0.76368 -0.916411,0.76367 -0.916411,3.0547 0,5.80394 0.356383,5.80394 0.152735,0 0.152735,-5.04026 0,-2.85106 0.763676,-3.41109 0.61094,-0.45821 4.022026,-0.45821 3.716556,0 4.123849,0.35639 0.254559,0.20364 0.254559,0.66185 0,0.40729 0.254559,0.40729 z m -8.604082,9.62232 q 0,0.81459 4.378409,0.81459 1.323704,0 2.545586,-0.25456 1.221881,-0.25456 1.221881,-0.61094 0,-0.10183 -0.05091,-0.10183 0.254559,0 -1.069146,0.25456 -1.272793,0.20365 -3.25835,0.20365 -1.47644,0 -2.64741,-0.20365 -1.120058,-0.20364 -1.018234,-0.20364 -0.101824,0 -0.101824,0.10182 z m 11.50605,-12.26973 q -0.203647,0.0509 -0.101824,0.35639 0.152736,0.50911 0.152736,0.66185 0,0.66185 0.254558,0.66185 0.101824,0 0.101824,-0.66185 0,-1.12006 -0.407294,-1.01824 z m 0.560029,11.50605 q 0,-0.76367 -0.254559,-0.76367 -0.254558,0 -0.254558,0.76367 0,1.32371 0.254558,1.32371 0.254559,0 0.254559,-1.32371 z m -3.309262,-1.3237 q -0.254559,0 -0.254559,0.71276 0,0.71277 0.305471,0.71277 0.254558,0 0.254558,-0.20365 -0.101823,-0.76368 -0.101823,-0.50912 0,-0.71276 -0.203647,-0.71276 z m -0.101824,-6.87308 q -0.152735,0 -0.152735,0.4582 0,0.45821 0.152735,0.45821 0.305471,0 0.305471,-0.45821 0,-0.4582 -0.305471,-0.4582 z"
         style="font-style:normal;font-variant:normal;font-weight:normal;font-stretch:normal;font-size:50.91172409px;font-family:Dymo;-inkscape-font-specification:Dymo;fill:#ffffff;stroke-width:0.53033048px"
         id="path102" />
      <path
         d="m 41.082838,263.15025 h 21.077454 v 33.95812 H 41.082838 Z m 12.880667,9.1132 q -0.356383,-1.06915 -1.985558,-1.06915 -1.578263,0 -1.985557,1.06915 -1.629175,4.63296 -5.498466,14.25528 -0.101824,0.30547 -0.101824,0.56003 0,0.96732 0.763676,0.96732 0.661853,0 0.8655,-0.71276 l 0.763675,-2.64741 q 0.152736,-0.61094 1.578264,-0.61094 h 6.771259 q 1.120058,0 1.323705,0.66185 l 0.712764,2.34194 q 0.305471,0.96732 0.916411,0.96732 1.120058,0 0.610941,-1.52735 z m -1.985558,0 q 0.610941,0 0.916411,0.66185 0.356382,0.66185 0.254559,0.76367 -0.05091,0.10183 -0.152735,0.10183 -0.05091,0 -0.305471,-0.35638 -0.203646,-0.35639 -0.356382,-0.35639 -0.407293,0 -0.101823,0.81459 0.101823,0.25456 0.458205,0.45821 0.407294,0.15273 0.509118,0.40729 l 1.934645,5.44756 q 0.05091,0.40729 0.101824,1.22188 0.05091,0.35638 0.30547,0.35638 0.101823,0 0.101823,-0.30547 0,-0.30547 0.101824,-0.30547 l 0.203647,1.52735 q -7.025818,0.10182 -8.502258,0 1.272793,-3.10562 2.341939,-6.41488 0.661853,-2.08738 0.814588,-2.08738 0.152735,0 0.101823,0.25456 -0.05091,0.25456 0.203647,0.25456 0.203647,0 0.407294,-0.56003 0.203647,-0.56003 0,-0.56003 -0.152735,0 -0.203647,0.20365 0,0.15273 -0.203647,0.15273 -0.101823,0 -0.101823,-0.20364 0,-0.45821 0.30547,-0.96733 0.356382,-0.50911 0.865499,-0.50911 z m -3.461997,1.27279 q -2.443763,6.16032 -4.887525,12.5752 0,0.50911 0.203646,0.61094 0.254559,0.10182 0.254559,-0.20365 0.05091,-0.35638 0.203647,-1.01824 3.309262,-8.09496 4.683879,-11.81152 0.203646,-0.56002 -0.101824,-0.56002 -0.203647,0 -0.356382,0.40729 z m 7.68767,1.731 q -0.101823,-0.35638 -0.356382,-0.25456 -0.254558,0.0509 -0.152735,0.40729 0.203647,0.71277 3.258351,9.92779 0,0 0.30547,1.22188 0.152735,0.50912 0.356382,0.50912 0.458205,0 0.101823,-1.32371 -1.47644,-4.3784 -3.512909,-10.48781 z m -8.400434,9.46958 q -0.254559,0 -0.712764,1.01823 -0.407294,0.96733 -0.407294,1.47644 0,0.15274 0.05091,0.20365 0.254558,0.10182 0.712764,-0.91641 0.407294,-0.8655 0.865499,-1.01824 0.305471,-0.10182 2.392851,-0.10182 3.054704,0 4.327497,0.10182 0.407294,0.0509 0.458205,0.91642 0.101824,0.8655 0.560029,0.8655 0.407294,0 0.254559,-1.01824 -0.152735,-0.91641 -0.458206,-1.22188 -0.254558,-0.30547 -1.221881,-0.30547 z m 4.683879,-9.21502 1.47644,5.04026 q 0,0.0509 0.101823,0.71276 0.05091,0.35638 0.254559,0.35638 0.203647,0 0.101823,-0.40729 -0.152735,-0.35638 -0.05091,-0.35638 0.509118,0 0.254559,-0.50912 -0.30547,-0.40729 -0.916411,-2.24012 -0.610941,-1.83282 -0.712764,-2.59649 -0.05091,-0.4073 -0.305471,-0.4073 -0.30547,0 -0.203646,0.4073 z m -1.120058,0.30547 q 0.203647,-0.50912 -0.203647,-0.50912 -0.152735,0 -0.254559,0.30547 -1.730999,4.37841 -1.730999,5.04026 0,0.15274 0.101824,0.20365 0.203647,0.0509 1.018234,-2.13829 0.560029,-1.42553 1.069147,-2.90197 z m 1.578263,5.75302 q -1.934645,0.0509 -1.934645,0.4073 0,0.15273 2.596497,0.15273 0.254559,0 0.254559,-0.20365 0,-0.40729 -0.916411,-0.35638 z m -3.25835,-9.9787 q -0.203647,0 -0.356382,0.30547 -0.152736,0.35639 0.05091,0.35639 0.203647,0 0.356382,-0.35639 0.152736,-0.30547 -0.05091,-0.30547 z m 4.887525,0.96733 0.610941,1.68008 q 0.101823,0.25456 0.407294,0.20365 0.254558,-0.0509 0.152735,-0.35638 l -0.560029,-1.52735 q -0.101824,-0.30547 -0.407294,-0.30547 -0.30547,0.0509 -0.203647,0.30547 z"
         style="font-style:normal;font-variant:normal;font-weight:normal;font-stretch:normal;font-size:50.91172409px;font-family:Dymo;-inkscape-font-specification:Dymo;fill:#ffffff;stroke-width:0.53033048px"
         id="path104" />
      <path
         d="m 61.447512,263.15025 h 21.077454 v 33.95812 H 61.447512 Z m 13.59343,7.8404 h -8.85864 q -1.069146,0 -1.069146,0.61094 -0.101823,0.61094 0.152735,0.61094 0.254559,0 0.254559,-0.40729 0,-0.20365 0.152735,-0.15273 0.101824,0.0509 0.101824,0.35638 v 14.00072 q 0,0.30547 -0.356383,0.4073 -0.30547,0.10182 -0.30547,0.35638 0,0.20364 0.254559,0.50912 0.30547,0.25455 0.61094,0.25455 0.305471,0 0.356382,-0.25455 0,-0.20365 -0.407293,-0.20365 -0.356382,0 -0.305471,-0.25456 0,-0.20365 0.305471,-0.20365 0.203647,0 0.203647,0.15274 0.05091,0.15273 0.407293,0.25456 0.610941,0.15273 2.291028,0.15273 5.142084,0 6.618524,-0.30547 4.022026,-0.8655 4.022026,-5.70211 v -5.80394 q 0,-1.93464 -1.170969,-3.15653 -1.17097,-1.22188 -3.258351,-1.22188 z m -8.247699,1.22188 q 0.152735,-0.25455 0.560029,-0.20364 0.865499,0.10182 0.865499,0.10182 h 6.873083 q 3.25835,0 3.25835,3.51291 v 5.85485 q 0,1.93464 -0.967322,3.20744 -0.967323,1.27279 -2.749233,1.27279 h -5.803937 q -0.30547,0 -0.610941,-0.15273 -0.152735,-0.15274 -0.30547,0 l -0.30547,0.25455 q -0.101824,0.10183 -0.254559,0.10183 -0.05091,0 -0.763676,-0.81459 0.05091,-0.20365 0.254559,-0.30547 V 273.7908 q 0,0 -0.152735,-0.71277 -0.101824,-0.4582 0.101823,-0.8655 z m 1.680087,1.12006 q -0.152735,0 3.003792,-0.10182 2.596498,-0.0509 3.156527,0 2.494674,0.30547 2.494674,5.34573 0,3.51291 -0.814588,4.83661 -0.763675,1.32371 -2.494674,1.32371 -0.407294,0 -0.407294,0.20365 0,0.20364 0.30547,0.20364 2.749234,0 3.512909,-2.44376 0.407294,-1.17097 0.407294,-4.53114 0,-5.54938 -3.512909,-5.44756 l -5.956671,0.15274 q 0,0.10182 -0.05091,0.25456 -0.05091,0.15273 0,0.15273 0.05091,0.0509 0.356382,0.0509 z m 11.200579,0.15274 q 0.152735,0.56003 0.305471,1.12006 0.152735,1.17097 0.152735,4.88752 0,4.12385 -1.272793,6.16032 -0.8655,1.3237 -2.392851,1.83282 -1.272794,0.4073 -1.272794,0.56003 0,0.15274 0.560029,0.15274 1.629176,0 2.95288,-1.57827 1.934646,-2.29102 1.934646,-7.12764 0,-4.63297 -0.661852,-6.00758 -0.101824,-0.25456 -0.254559,-0.25456 -0.152735,0 -0.05091,0.25456 z m -15.06987,-1.57827 q -0.203647,0 -0.254559,0.20365 0,0.15274 0.05091,0.45821 0.05091,0.25456 0.05091,0.30547 0,0.25456 -0.152735,1.731 -0.152736,1.42552 -0.152736,2.24011 0,0.66185 0.101824,3.9202 0.101823,3.25835 0.101823,4.3275 0,0.15274 0.203647,0.10182 0.152735,-0.0509 0.152735,-0.15273 v -11.55696 q 0,-0.56003 0.101824,-0.61094 0.101823,-0.10183 0.101823,-0.4073 0,-0.56003 -0.30547,-0.56003 z m 6.21123,16.0372 q -3.869291,0 -3.869291,0.35638 0,0.10182 3.869291,0.10182 2.392851,0 2.392851,-0.25456 0,-0.20364 -2.392851,-0.20364 z m -3.105615,-10.48782 q -0.30547,0 -0.30547,2.74924 0,3.71655 0.30547,3.71655 0.203647,0 0.203647,-3.71655 0,-2.74924 -0.203647,-2.74924 z m 0.610941,7.33129 q -0.203647,0 -0.203647,0.15274 0.05091,0.20364 0.203647,0.20364 l 4.225673,0.15274 q 0.101823,-0.10183 0.203647,-0.25456 -0.05091,-0.25456 -0.407294,-0.25456 z m 1.069146,-14.71349 q -0.152735,0 -0.152735,0.20365 0,0.20365 0.152735,0.20365 h 1.883734 q 0.203647,0 0.203647,-0.20365 0,-0.20365 -0.152736,-0.20365 z m -1.578264,3.86929 q -0.30547,0 -0.30547,1.17097 0,0.91641 0.30547,0.91641 0.152736,0 0.152736,-0.91641 0,-1.17097 -0.152736,-1.17097 z m -1.629175,-3.86929 q -0.152735,0 -0.152735,0.20365 0,0.20365 0.152735,0.20365 h 1.069147 q 0.203646,0 0.203646,-0.20365 0,-0.20365 -0.152735,-0.20365 z"
         style="font-style:normal;font-variant:normal;font-weight:normal;font-stretch:normal;font-size:50.91172409px;font-family:Dymo;-inkscape-font-specification:Dymo;fill:#ffffff;stroke-width:0.53033048px"
         id="path106" />
      <path
         d="m 81.812182,263.15025 h 20.568338 v 33.95812 H 81.812182 Z m 16.953604,8.29861 q 0,-0.71277 -1.221881,-0.81459 0.254558,0 -1.832823,0 -5.04026,0 -7.585846,0.10182 -1.781911,0.0509 -1.781911,0.71277 0,0.20365 0.254559,0.40729 0.30547,0.20365 0.30547,0.71277 l -0.101823,13.28796 q -0.916411,0.76367 -0.916411,0.91641 0.05091,0.10182 0.152735,0.10182 0.610941,0.10182 0.763676,0.50912 0.152735,0.40729 0.203647,0.40729 0.152735,0 0.203647,-0.30547 0.101823,-0.30547 0.203646,-0.50912 l 9.367758,0.0509 q 0.61094,0 0.967322,0.35638 0.356382,0.30547 0.458206,0.30547 0.763676,0 0.763676,-1.17097 0,-0.66185 -0.916411,-0.66185 -9.469581,0 -9.469581,0 -0.509117,0.0509 -0.763676,-0.15274 -0.203647,-0.25456 -0.101823,-0.50912 0.152735,-0.35638 0.203647,-2.08738 0.05091,-1.57826 0.30547,-2.03647 0.05091,-0.0509 0.05091,-0.15273 0,-0.0509 -0.305471,-0.25456 -0.254558,-0.20365 -0.254558,-0.56003 0,-0.71276 0.560029,-0.71276 0.254558,0 0.356382,0.20364 0.101823,0.20365 0.203647,0.20365 0.152735,0 0.356382,-0.10182 0.254558,-0.10183 0.458205,-0.10183 h 4.378409 q 2.291027,0 2.138292,0 0.763676,-0.0509 0.763676,-0.76367 0,-0.61094 -2.036469,-0.61094 -0.30547,0 -2.749233,0.15273 -2.443763,0.15274 -3.81838,0.15274 -0.560029,0 -0.560029,-0.61094 0,-0.10183 0.05091,-0.61094 0.101824,-0.50912 0.101824,-1.62918 0,-0.4582 -0.152736,-1.62917 -0.101823,-1.22188 -0.101823,-1.42553 0,-0.81459 0.509117,-0.81459 0.305471,0 0.560029,0.20365 0.254559,0.15273 0.407294,0.15273 0.254559,0 0.661852,-0.20364 h 7.484024 q 0.152735,0 0.712764,0.0509 0.407294,0.0509 0.560029,0 0.203647,-0.15274 0.203647,-0.56003 z m -1.47644,8.55317 q 0,-0.10182 -0.509117,0.0509 -0.712764,0.25456 -1.17097,0.25456 h -5.549378 q -0.356382,0 -0.407294,-0.10182 -0.05091,-0.15274 -0.203647,-0.15274 -0.101823,0 -0.203647,0.30547 -0.101823,0.25456 -0.30547,0.25456 -0.152735,0 -0.356382,-0.10182 -0.05091,0.66185 -0.101823,1.27279 0.101823,2.29103 0.101823,2.29103 0,0.25456 0.203647,0.30547 0.254559,0.0509 0.254559,-0.30547 l 0.05091,-3.0038 q 0.560029,-0.15273 1.934646,-0.15273 0.916411,0 2.443763,0.0509 1.578263,0.0509 1.730998,0.0509 2.087381,0 2.087381,-1.01823 z m -11.556961,-8.85864 q -0.254559,0 -0.254559,7.68767 0,7.68767 0.254559,7.68767 0.203646,0 0.203646,-1.12006 0,1.01824 0,-6.56761 0,-1.83282 0.05091,-5.04026 0,-1.731 -0.05091,-2.18921 -0.05091,-0.4582 -0.203646,-0.4582 z m 1.425528,16.85178 q 0,0.30547 0.712764,0.25456 1.629175,-0.15274 1.883734,-0.15274 0.712764,0 2.341939,0.20365 1.680087,0.20365 2.95288,0.20365 3.309262,0 3.309262,-0.35639 0,-0.35638 -9.367757,-0.4582 -1.832822,0 -1.832822,0.30547 z m 2.443763,-14.45893 7.331288,0.0509 q 1.527352,0 2.240116,-0.71276 0.458205,-0.45821 -0.101824,-0.45821 0,0 -0.458205,0.30547 -0.407294,0.25456 -1.578264,0.30547 0.356382,-0.25456 0,-0.25456 l -7.534935,-0.10182 q -0.458205,0 -0.458205,0.50912 0,0.35638 0.560029,0.35638 z m 0.254558,11.20058 q -0.407294,0 -0.407294,0.20365 0,0.25455 0.458206,0.25455 0.967323,0 3.869291,-0.10182 2.901968,-0.10182 3.054703,-0.10182 0.610941,0 1.425529,0.20364 0.407293,0.10183 0.407293,-0.15273 0,-0.35638 -1.018234,-0.35638 z m -0.458205,-7.68767 q -0.305471,0 -0.305471,0.25456 0,0.35638 0.661853,0.40729 1.323705,0 2.596498,0 3.716556,0.0509 3.716556,-0.35638 -0.05091,-0.0509 -0.356383,-0.0509 l -5.396642,0.10182 q -0.458206,0 -0.661853,-0.15273 -0.203647,-0.20365 -0.254558,-0.20365 z m -0.356382,-2.69832 q 0,-0.4073 -0.152736,-0.4073 -0.30547,0 -0.30547,0.56003 0,1.57827 0.203647,2.13829 0.152735,0.0509 0.30547,-0.15273 z"
         style="font-style:normal;font-variant:normal;font-weight:normal;font-stretch:normal;font-size:50.91172409px;font-family:Dymo;-inkscape-font-specification:Dymo;fill:#ffffff;stroke-width:0.53033048px"
         id="path108" />
    </g>
  </g>
</svg>
