<?xml version="1.0" encoding="UTF-8" standalone="no"?>
<!-- Created with Inkscape (http://www.inkscape.org/) -->

<svg
   xmlns:dc="http://purl.org/dc/elements/1.1/"
   xmlns:cc="http://creativecommons.org/ns#"
   xmlns:rdf="http://www.w3.org/1999/02/22-rdf-syntax-ns#"
   xmlns:svg="http://www.w3.org/2000/svg"
   xmlns="http://www.w3.org/2000/svg"
   xmlns:sodipodi="http://sodipodi.sourceforge.net/DTD/sodipodi-0.dtd"
   xmlns:inkscape="http://www.inkscape.org/namespaces/inkscape"
   width="400"
   height="150"
   viewBox="0 0 105.83333 39.687501"
   version="1.1"
   id="svg8"
   sodipodi:docname="arcade.svg"
   inkscape:version="0.92.5 (2060ec1f9f, 2020-04-08)">
  <defs
     id="defs2" />
  <sodipodi:namedview
     id="base"
     pagecolor="#ffffff"
     bordercolor="#666666"
     borderopacity="1.0"
     inkscape:pageopacity="0.0"
     inkscape:pageshadow="2"
     inkscape:zoom="1.53125"
     inkscape:cx="202.15232"
     inkscape:cy="57.882286"
     inkscape:document-units="mm"
     inkscape:current-layer="layer1"
     showgrid="false"
     units="px"
     inkscape:pagecheckerboard="true"
     inkscape:window-width="1366"
     inkscape:window-height="740"
     inkscape:window-x="0"
     inkscape:window-y="0"
     inkscape:window-maximized="1"
     showguides="true"
     inkscape:guide-bbox="true">
    <sodipodi:guide
       position="14.168707,31.44762"
       orientation="0,1"
       id="guide344"
       inkscape:locked="false" />
    <sodipodi:guide
       position="9.8489793,8.639456"
       orientation="0,1"
       id="guide346"
       inkscape:locked="false" />
  </sodipodi:namedview>
  <metadata
     id="metadata5">
    <rdf:RDF>
      <cc:Work
         rdf:about="">
        <dc:format>image/svg+xml</dc:format>
        <dc:type
           rdf:resource="http://purl.org/dc/dcmitype/StillImage" />
        <dc:title></dc:title>
      </cc:Work>
    </rdf:RDF>
  </metadata>
  <g
     inkscape:label="Layer 1"
     inkscape:groupmode="layer"
     id="layer1"
     transform="translate(0,-257.31248)">
    <g
       aria-label="[arcade games]"
       transform="matrix(0.33950123,0,0,0.52732254,0.12654955,251.06246)"
       style="font-style:normal;font-weight:normal;font-size:40px;line-height:125%;font-family:sans-serif;letter-spacing:0px;word-spacing:0px;fill:#ffffff;fill-opacity:1;stroke:none;stroke-width:1px;stroke-linecap:butt;stroke-linejoin:miter;stroke-opacity:1"
       id="flowRoot10">
      <path
         d="m 3.6283803,30.74925 q 0.4029465,-0.03838 0.4029465,-0.134316 l 0.6140138,0.07675 1.7461017,-0.01919 h 0.019188 v 2.436867 Q 5.5471734,32.994238 5.5471734,32.821546 l -0.5948259,0.09594 -0.076752,-0.07675 h -0.076752 q -0.09594,0.115128 -0.8826449,0.172692 0.09594,0.575637 0.287819,0.825081 -0.1535034,0.748329 -0.4605103,1.074524 l 0.076752,0.307007 -0.076752,0.230255 0.076752,0.614014 -0.076752,0.07675 0.076752,0.383759 v 0.230255 l -0.076752,1.074524 0.076752,0.07675 v 0.07675 l -0.1535035,0.46051 0.2302552,1.381531 v 0.230255 L 3.7435079,40.66941 v 0.383759 q 0,0.55645 0.2302551,1.381531 l -0.076752,0.230255 0.076752,1.074524 v 0.307007 l -0.3070069,1.228027 q 0.3837587,1.362344 0.3837587,1.842042 -0.2302552,0 -0.2302552,0.307007 l 0.076752,0.46051 -0.076752,0.614014 0.076752,0.07675 -0.076752,0.07675 v 0.07675 q 0,1.381531 0.3070069,2.993317 l -0.3070069,0.844269 0.1535034,0.997773 -0.076752,0.614013 0.1535035,0.460511 v 0.307007 q 0,0.36457 -0.2302552,0.767517 l 0.076752,0.690765 q -0.09594,0 -0.3070069,0.767518 0.09594,0.402946 0.3837586,0.614013 l 0.076752,0.307007 -0.076752,0.537262 0.076752,0.07675 -0.2302552,2.763062 0.076752,0.307007 -0.2302552,0.921021 0.076752,0.844269 -0.076752,0.614014 0.2302552,1.074524 -0.076752,0.652389 0.5756379,0.115128 1.3623431,-0.249443 0.6523897,0.09594 -0.038376,2.129861 -0.076752,0.07675 -0.076752,-0.07675 H 5.9117441 L 4.3191458,68.223279 Q 3.417313,68.184903 2.880051,68.127339 V 67.93546 l -1.3431552,-0.07675 0.2110672,-1.47747 q -0.2110672,0 -0.3070069,-1.151276 l 0.076752,-0.307007 V 64.308941 L 1.747963,63.694927 1.5177079,62.697155 1.5944596,62.4669 Q 1.5177079,61.469127 1.3642044,61.469127 l 0.076752,-0.383758 -0.076752,-0.307007 Q 1.747963,60.356227 1.747963,59.320079 L 1.5944596,59.166575 v -0.07675 L 1.6712113,58.782817 1.5177079,58.47581 1.6712113,57.861796 1.4409561,56.633769 1.747963,56.096507 1.5944596,55.635996 l 0.076752,-0.07675 v -0.07675 L 1.5944596,54.714975 1.8247148,54.02421 Q 1.5177079,53.5637 1.5177079,52.642679 l 0.1535034,-0.690766 q 0,-0.537262 -0.1535034,-0.844269 l 0.076752,-0.844269 V 49.57261 l -0.076752,-0.07675 0.1535034,-0.614014 -0.076752,-0.307006 0.076752,-0.230256 -0.2302552,-0.46051 0.2302552,-1.228028 -0.076752,-1.535034 q 0,-0.997772 0.2302552,-1.611786 Q 1.2874527,42.722519 1.2874527,42.4347 v -0.230256 l 0.3070069,-1.458282 v -1.074524 l -0.1535035,-0.537262 0.1535035,-1.30478 q 0,-0.36457 -0.3837586,-1.151276 0,-0.383758 0.537262,-1.074524 V 35.450293 L 1.5177079,35.220038 v -0.07675 h 0.1535034 v -0.07675 Q 1.3642044,34.759527 1.3642044,34.529272 l 0.076752,-0.614014 -0.076752,-0.07675 Q 1.5944596,33.761755 1.5944596,33.377996 1.5752717,32.22672 1.4409561,32.22672 l 0.2302552,-0.844269 -0.076752,-0.46051 v -0.07675 q 0,-0.230255 0.9977724,-0.307007 v -0.07675 q 0.7099534,0.03838 1.0361483,0.287819 z"
         style="font-style:normal;font-variant:normal;font-weight:normal;font-stretch:normal;font-size:39.29688263px;font-family:'Top Secret';-inkscape-font-specification:'Top Secret';fill:#ffffff"
         id="path615" />
      <path
         d="m 22.854687,35.680548 0.172692,0.172691 0.36457,0.345383 h 0.172692 l -0.345383,1.419907 0.709953,1.957169 0.709954,0.709953 v 3.722459 q 0.518074,0.479698 1.400719,4.259721 l 0.709953,0.709953 -0.172691,0.172691 v 0.709954 l 0.172691,0.709953 -0.172691,0.709954 1.074524,3.185196 h -0.191879 l 0.537262,0.882645 -0.537262,0.901833 q 0.614013,0 1.074524,2.12986 l -0.172692,1.228028 q 0,0.537262 1.592599,1.074524 l 0.518074,1.419907 -0.709954,0.518074 H 29.589651 L 29.071577,62.27502 h -0.364571 l -2.302552,0.709954 h -0.172691 l -0.709953,-0.172692 -0.709954,0.172692 h -0.364571 l -0.882644,-0.537262 -3.722459,0.537262 q -0.921021,0 -1.419907,-0.882645 V 61.91045 q 1.074524,-0.65239 1.074524,-2.302552 l -0.36457,-1.228028 0.172691,-0.191879 -0.345383,-1.592598 0.172692,-0.172692 V 55.712748 H 17.53963 l -1.419907,0.345383 q -0.46051,-0.345383 -1.765289,-0.345383 l -0.19188,-0.172691 V 53.92827 q 0,-0.345382 1.074525,-0.518074 l 0.709953,0.709954 h 1.228028 l 0.901832,-0.19188 -0.537262,-3.012505 0.172692,-1.055336 q -0.537262,0 -1.247216,-3.89515 l 0.191879,-0.537262 -1.592598,-5.679628 0.172692,-0.518074 -0.172692,-1.611786 q 0.134316,-1.055336 1.055336,-1.055336 l 0.882645,0.172691 z m -8.500253,6.02501 h 0.172691 l 0.172692,0.537262 -0.172692,0.518074 0.172692,1.784478 q 0,2.32174 -1.055337,3.722459 0,2.2258 -1.419907,4.969674 l 0.172692,0.518074 -0.172692,1.247215 0.172692,1.247216 -0.537262,0.172691 0.172691,1.055337 -0.518074,1.419906 v 0.172692 q 0,1.554222 2.302552,1.784477 h 0.345382 v 0.172692 q 0,2.12986 -1.228027,2.12986 h -2.12986 q -0.594826,0 -1.247216,-0.537262 l -2.4752431,0.537262 q -0.6907655,0 -1.2472155,-1.957169 v -0.345383 q 2.1298603,0 2.1298603,-1.957169 1.6309742,-1.630974 3.0125053,-5.660439 l -0.172691,-0.537262 1.937981,-6.562273 0.36457,-0.36457 -0.172691,-0.518074 q 0,-2.168237 1.419907,-3.549768 z m 18.708232,-8.845636 q -0.441322,-0.134315 -0.441322,-0.230255 l -0.614014,0.153503 -0.07675,-0.07675 h -0.07675 l -0.460511,0.153503 -0.844269,-0.07675 -2.302551,0.460511 -1.918793,-0.230255 -1.151276,0.07675 -0.07675,-0.07675 -0.307007,0.07675 h -0.92102 L 22.873875,32.78317 h -0.614014 l -0.767517,0.230256 h -0.07675 q -1.01696,0 -1.381531,-0.230256 l -0.537262,0.153504 -1.535034,-0.153504 q 0,0.115128 -1.074524,0.230256 l -0.690766,-0.07675 h -0.921021 q -2.014732,0 -2.2258,0.307007 h -0.383758 l -2.302552,-0.383759 -0.4605102,0.07675 -0.844269,-0.153504 -1.381531,0.153504 H 7.3700269 L 6.218751,33.243681 q -0.8442689,0 -1.0745241,-0.614014 0.3837586,-0.575638 0.3837586,-1.228028 l -0.076752,-0.307007 q 0,-0.537262 1.0745241,-0.537262 l 1.6117862,0.230256 Q 8.4253631,30.55737 8.8283096,30.55737 h 0.3070069 q 0.3837587,0 0.4605104,0.230256 l 2.1490481,-0.230256 1.611786,0.460511 1.228028,-0.383759 v 0.07675 l 0.997772,-0.230255 0.460511,0.07675 0.307007,-0.07675 0.230255,0.230255 h 0.230255 l 0.230255,-0.230255 0.690766,0.153503 1.151275,-0.153503 q 0.268632,0.230255 1.151276,0.307007 l 0.383759,-0.230256 0.383759,0.230256 0.383758,-0.07675 0.307007,0.07675 0.537262,-0.07675 1.228028,0.153503 1.304779,-0.307007 1.074524,0.153504 0.460511,-0.07675 h 1.228027 l 0.690766,-0.230255 0.537262,0.153503 0.230255,-0.07675 0.537262,0.153503 h 0.07675 l 0.07675,-0.07675 1.074524,0.230256 0.307007,-0.07675 0.767518,0.153503 0.92102,-0.230255 h 0.230255 l 0.287819,0.07675 z m 0,35.267417 -0.268631,-0.07675 -2.149048,0.307006 -0.07675,-0.07675 -0.383758,0.07675 -0.460511,-0.07675 -1.151275,0.153503 q -0.594826,0 -1.381531,-0.230255 h -0.07675 q -0.287819,0.230255 -0.537262,0.230255 h -0.230255 q -0.460511,0 -0.921021,-0.46051 l -0.921021,0.153503 -0.307007,-0.07675 -0.307007,0.07675 h -0.614013 q -0.441323,0.307007 -0.690766,0.307007 l -0.614014,-0.07675 h -0.07675 l -0.07675,0.07675 -0.383759,-0.230255 -0.46051,0.230255 -0.46051,-0.153503 q -0.287819,0.230255 -0.690766,0.230255 h -0.230255 l -0.614014,-0.230255 q -1.535034,0 -2.993317,0.230255 -0.709954,0 -1.228028,-0.46051 0,0.307006 -1.074524,0.383758 l -0.46051,-0.07675 -0.537262,0.153504 q -1.016961,-0.153504 -1.228028,-0.307007 h -0.07675 l -0.07675,0.07675 -1.6885382,-0.153504 q -0.9785845,0 -1.2280276,0.307007 H 8.2334838 L 7.9264769,68.204091 7.4659665,68.357594 7.3892148,68.280843 H 7.1589596 Q 6.6792614,68.434346 5.3169183,68.511098 L 4.7796562,68.204091 v -0.07675 l 0.076752,-0.07675 Q 5.1634148,67.93546 5.1634148,67.820332 v -0.07675 L 4.9331597,67.513325 5.0866631,66.976063 v -0.07675 q 0,-0.153504 -0.2302552,-0.153504 v -0.307007 l 0.3070069,-0.537262 q 0.8826448,0 1.5350345,0.230255 0.8826448,0 1.1512759,-0.307006 h 0.3837586 l 1.3047793,0.230255 h 0.2302552 l 0.8442687,-0.230255 q 1.630974,0.249443 1.918793,0.46051 h 0.307007 q 0.383759,0 0.460511,-0.230255 h 0.07675 l 0.07675,0.07675 h 0.307007 q 0,-0.153503 1.76529,-0.383758 l 0.46051,0.07675 h 0.07675 l 0.07675,-0.07675 q 0.307007,0.115127 0.307007,0.230255 l 0.537262,-0.07675 h 0.537262 l 1.995545,0.383759 0.767517,-0.307007 v 0.07675 q 0.729142,0 1.381531,-0.230255 l 0.767518,0.153503 q 1.458282,0 2.2258,-0.307007 1.535034,0.537262 2.072296,0.537262 h 0.383759 q 0.921021,-0.307007 1.76529,-0.383758 l 0.230255,0.230255 h 0.230255 v -0.153504 h 0.230255 q 0,0.230255 0.383759,0.230255 h 0.153503 l 0.07675,-0.07675 0.383758,0.230255 h 0.230256 q 0.153503,-0.153504 0.614013,-0.153504 l 0.383759,-0.383758 1.266403,0.326195 z"
         style="font-style:normal;font-variant:normal;font-weight:normal;font-stretch:normal;font-size:39.29688263px;font-family:'Top Secret';-inkscape-font-specification:'Top Secret';fill:#ffffff"
         id="path617" />
      <path
         d="m 41.39023,35.622984 h 1.055336 q 0.882645,0 1.055336,0.709954 l -0.172691,0.518074 0.345383,1.957169 -0.172692,1.055336 0.364571,0.518074 -0.191879,0.191879 v 0.882645 q 0,1.66935 -0.690766,3.166009 v 0.172691 q 0.882645,2.168236 0.882645,3.530579 l -0.364571,1.419907 v 1.937981 l -0.709953,2.110673 0.191879,1.247215 -0.191879,0.709954 q 0.498886,0 0.882645,3.70327 l 0.191879,0.882645 1.228028,0.882645 v 0.882645 l -0.345383,0.345383 h -2.302552 l -1.228027,0.36457 -1.074525,-0.36457 v 0.172691 L 39.087678,62.27502 h -0.172691 l -2.647935,0.537262 -0.882644,-0.191879 -0.537263,0.364571 q -2.110672,-0.134316 -2.110672,-0.537262 0,-2.475243 1.419907,-2.475243 l 1.400719,-2.456056 q 0,-1.247215 -1.055336,-3.012505 v -0.172691 l 0.345382,-1.592598 -0.172691,-3.166009 0.172691,-1.419907 -0.172691,-0.518074 0.537262,-2.647935 -0.172691,-1.074524 0.172691,-1.055336 -0.172691,-0.172691 v -0.172692 l 0.172691,-0.882644 -0.172691,-0.709954 0.172691,-0.172691 -0.537262,-0.537262 0.364571,-0.518074 v -0.19188 q 0,-0.307007 -1.76529,-1.228027 l -0.364571,-1.937981 1.055337,-0.364571 h 0.709953 l 0.709954,0.537262 h 0.172691 l 0.172691,-0.172691 1.419907,0.345382 2.993317,-0.345382 v 0.172691 z m 4.240533,0.345383 1.57341,0.364571 h 2.12986 q 2.264176,0 3.166009,1.228027 0.978584,0 1.419907,1.247216 0.633202,0 1.400719,2.110672 h 0.191879 l -0.364571,4.585916 0.172692,0.172691 q -0.383759,0.03838 -2.456055,2.647934 -0.825081,0 -2.475243,1.76529 v 0.364571 h 1.055336 q 3.549767,0 4.240533,3.3387 l 0.172691,0.191879 -0.172691,0.882645 0.172691,0.882645 q -0.307007,0.36457 -0.537262,2.456055 0.268631,0.709953 0.537262,0.709953 h 0.172691 l 2.302552,-0.709953 0.518074,1.074524 q -2.283364,3.3387 -4.048653,3.3387 0,0.537262 -0.364571,0.537262 l -0.882645,-0.172691 -0.882645,0.172691 q -2.340927,-0.05756 -4.931298,-2.820626 l -0.172691,-1.419907 0.172691,-1.228027 -0.709953,-1.76529 0.345382,-1.055336 q 0,-3.530579 -1.400719,-3.530579 -0.709953,0 -0.709953,-2.475243 1.592598,-0.441323 1.592598,-1.76529 l 0.518074,-2.820626 -0.518074,-2.475243 0.172692,-0.882645 q 0,-1.688538 -1.76529,-2.993317 l -0.172691,-1.76529 z m 15.292781,-2.839814 -0.307007,0.01919 -0.07675,-0.07675 -0.537262,0.07675 -0.307007,-0.07675 q -0.211067,-0.287819 -0.614014,-0.383758 -0.767517,0.211067 -0.767517,0.307007 l -0.690765,-0.07675 q -0.383759,0.230255 -0.767518,0.230255 h -0.307007 l -0.46051,-0.153503 -0.614014,0.07675 -0.997772,-0.153503 -0.844269,0.307007 q -1.592598,-0.307007 -2.993317,-0.307007 h -0.07675 l -0.07675,0.07675 -0.07675,-0.07675 -0.614014,0.07675 -0.460511,-0.07675 q -0.307007,0 -0.307007,0.230255 -0.479698,0 -1.842041,-0.383759 l -1.228027,0.307007 h -0.307007 l -1.074525,-0.07675 -0.230255,0.07675 Q 43.52009,32.840734 42.96364,32.840734 h -0.383758 l -0.614014,0.153504 h -0.230255 l -1.381531,-0.230256 -0.460511,0.153504 h -0.07675 l -0.07675,-0.07675 -1.074524,0.07675 h -0.230255 l -0.383759,-0.07675 -0.07675,0.07675 -0.614014,-0.07675 -0.230255,0.07675 -0.307007,-0.07675 q -0.326194,0.307007 -1.074524,0.460511 -0.287819,-0.211068 -0.997772,-0.307007 v 0.07675 l -0.614014,-0.07675 q -0.230255,0 -0.230255,0.153503 l -0.690766,-0.153503 q -0.767517,0 -0.844269,-1.30478 h 0.07675 q 0.07675,-0.997772 0.307007,-0.997772 h 0.07675 l 0.46051,0.07675 0.844269,-0.230256 q 0,0.134316 1.151276,0.153504 0.383759,0 0.46051,-0.230255 l 0.07675,0.07675 0.614014,-0.07675 q 0.249443,0 0.537262,0.307007 h 0.07675 v -0.153504 h 0.07675 l 0.230255,0.230255 h 0.153504 q 0.709953,-0.537262 1.074524,-0.537262 0.786705,0.383759 1.151276,0.383759 l 1.304779,-0.153504 0.537262,0.153504 h 1.074524 l 1.458283,-0.307007 h 0.230255 q 0.287819,0 1.074524,0.537262 0.614014,-0.230255 1.611787,-0.230255 l 1.535034,0.07675 1.228028,-0.230256 0.46051,0.230256 0.230255,-0.07675 0.307007,0.07675 0.614014,-0.153504 0.07675,0.07675 h 0.690765 l 0.844269,-0.07675 q 0.307007,0.153504 0.844269,0.153504 l 0.690766,-0.153504 q 0.92102,0 1.381531,0.307007 l 0.690765,-0.230255 0.767517,0.07675 h 0.07675 l 0.07675,-0.07675 0.46051,0.153503 0.537262,-0.307007 1.228028,0.230256 0.614014,-0.153504 0.307007,0.153504 0.230255,-0.05756 z m 0,34.710967 -0.172692,-0.03838 Q 60.30953,68.0314 59.829832,68.0314 59.407697,67.801144 58.985563,67.801144 l -2.379304,0.383759 -1.151276,-0.307007 -1.228027,0.153504 -0.921021,-0.153504 -0.537262,0.07675 -0.07675,-0.07675 h -0.07675 l -0.307007,0.07675 -0.230255,-0.07675 -0.230256,0.07675 -2.302551,-0.230255 -0.690766,0.07675 h -0.307007 l -0.07675,0.07675 -0.07675,-0.07675 h -0.767517 l -0.921021,0.230256 -1.074524,-0.307007 -0.690766,0.07675 h -0.07675 l -1.074524,-0.230255 -0.690765,0.230255 H 42.330439 L 41.48617,67.954648 40.488397,67.801144 H 40.18139 l -0.46051,0.07675 -0.383759,-0.07675 h -0.153503 l -0.07675,0.07675 -0.07675,-0.07675 h -0.307006 l -1.30478,0.307007 q -2.302551,-0.09594 -2.302551,-0.383758 l -0.307007,0.153503 -0.07675,-0.07675 h -0.07675 q -0.134315,0.153504 -1.611786,0.230256 -0.614014,-0.07675 -0.614014,-0.614014 v -0.307007 l 0.153504,-0.230255 v -0.230255 l -0.153504,-0.614014 v -0.153504 l 0.153504,-0.153503 h 0.537262 q 0.767517,-0.01919 0.767517,-0.153504 l 0.614014,0.07675 1.458282,-0.07675 1.535035,0.307007 1.074524,-0.307007 1.151276,0.153504 0.07675,-0.07675 h 0.07675 l 0.614014,0.230255 1.30478,-0.230255 0.537262,0.153504 0.07675,-0.07675 h 0.07675 l 0.537262,0.153503 1.611786,-0.307007 0.537262,0.230256 h 0.844269 q 0.844269,-0.115128 0.844269,-0.307007 0.690766,0.07675 0.690766,0.230255 0.767517,-0.07675 0.92102,-0.230255 1.611787,0.07675 1.611787,0.230255 l 0.230255,-0.153504 0.46051,0.153504 h 0.230255 l 0.230256,-0.153504 h 0.383758 l 0.844269,-0.07675 0.07675,0.07675 h 0.07675 l 0.690765,-0.07675 h 0.614014 l 1.304779,0.307007 q 1.074524,-0.07675 1.074524,-0.460511 l 0.460511,0.153504 0.230255,-0.07675 0.46051,0.153503 0.460511,-0.07675 q 0.786705,0.09594 0.92102,0.230255 h 1.611786 l 0.479699,-0.09594 z"
         style="font-style:normal;font-variant:normal;font-weight:normal;font-stretch:normal;font-size:39.29688263px;font-family:'Top Secret';-inkscape-font-specification:'Top Secret';fill:#ffffff"
         id="path619" />
      <path
         d="m 71.553656,35.622984 0.518074,0.172692 v 1.554222 q 0,1.189652 -1.746102,1.381531 l 0.172692,0.172691 -0.518075,0.882645 0.172692,1.20884 -0.345383,0.345383 v 1.208839 l 0.172691,0.172692 -0.172691,0.172691 v 0.172691 l 0.345383,1.381531 v 0.518075 q -1.036148,2.475243 -1.036148,3.473015 l 1.036148,3.108445 -0.345383,1.036148 v 1.228028 l 0.518074,2.417679 -0.518074,1.554222 v 0.690766 q 0,0.921021 2.436867,2.954941 l -0.345382,1.20884 h -0.172692 q -0.901833,0 -1.57341,-0.518074 h -0.345383 l -1.554222,0.172691 q -0.825081,-0.134315 -1.381531,-0.863457 l -3.645707,-1.918793 0.345383,-0.863457 q -1.20884,-0.268631 -1.20884,-0.863457 l 0.172691,-0.172691 v -0.172691 l -1.726914,-4.317285 q 0.345383,-0.767517 0.345383,-2.78225 l -0.518074,-2.763062 q 0,-3.664895 2.072297,-4.681855 l 0.172691,-0.172691 V 42.549827 L 62.362637,41.68637 q 0.441322,-0.882644 1.554222,-1.554222 0.287819,-1.266404 3.99109,-3.473016 0,-0.402946 3.645707,-1.036148 z m 3.79921,0.172692 q 0,0.46051 2.609559,1.381531 1.208839,0 2.244988,-1.20884 h 0.345382 q 0.863457,0.441322 0.863457,1.554222 0,0.863457 -0.345382,0.863457 0.345382,0.422135 0.518074,2.78225 l -0.172692,2.935754 0.518074,1.381531 q -0.498886,1.228027 -1.554222,1.228027 0,-0.46051 -0.863457,-0.690765 l -1.381531,-4.681855 q -0.441322,0 -1.400719,-1.20884 -0.863457,-0.134316 -0.863457,-0.518074 l 0.172692,-0.709954 q -0.863457,-0.633201 -2.590371,-0.863457 0,-1.899605 1.036148,-1.899605 0,-0.345382 0.863457,-0.345382 z m 6.063386,19.226306 0.172692,0.172692 q -0.211068,2.68631 -1.036149,3.971901 -1.208839,0 -1.208839,1.400719 l -2.609559,0.863457 V 61.25806 l -1.899605,1.899605 h -1.036148 q -0.690766,-0.287819 -0.690766,-1.20884 V 61.25806 q 0,-0.307007 4.489976,-2.264176 1.918793,-3.971902 3.818398,-3.971902 z m 3.607331,13.162921 -0.307007,0.09594 -0.230255,-0.07675 -0.46051,0.153503 q 0,-0.383758 -1.074524,-0.46051 l -1.304779,0.307007 h -0.614014 l -0.690766,-0.07675 h -0.07675 l -0.07675,0.07675 -0.844269,-0.07675 h -0.383759 l -0.230255,-0.153503 h -0.230255 l -0.46051,0.153503 -0.230256,-0.153503 q 0,0.153503 -1.611786,0.230255 -0.153503,-0.153503 -0.921021,-0.230255 0,0.153503 -0.690765,0.230255 0,-0.191879 -0.844269,-0.307007 h -0.844269 l -0.537262,0.230255 -1.611786,-0.307007 -0.537262,0.153504 h -0.07675 l -0.07675,-0.07675 -0.537262,0.153504 -1.304779,-0.230256 -0.614014,0.230256 h -0.07675 l -0.07675,-0.07675 -1.151276,0.153503 -1.074524,-0.307007 -1.535035,0.307007 -1.458283,-0.07675 -0.614013,0.07675 q 0,-0.134315 -0.767518,-0.153503 h -0.537262 l -0.153503,-0.153504 v -0.153503 l 0.153503,-0.614014 V 66.82256 l -0.153503,-0.230255 v -0.307007 q 0,-0.537262 0.614014,-0.614014 1.47747,0.07675 1.611786,0.230255 h 0.07675 l 0.07675,-0.07675 0.307007,0.153503 q 0,-0.287819 2.302552,-0.383759 l 1.304779,0.307007 h 0.307007 l 0.07675,-0.07675 0.07675,0.07675 h 0.153503 l 0.383759,-0.07675 0.46051,0.07675 h 0.307007 l 0.997772,-0.153503 0.844269,0.153503 h 0.767517 l 0.690766,0.230255 1.074524,-0.230255 h 0.07675 l 0.690765,0.07675 1.074524,-0.307007 0.921021,0.230255 h 0.767517 l 0.07675,-0.07675 0.07675,0.07675 h 0.307007 l 0.690765,0.07675 2.302552,-0.230255 0.230255,0.07675 0.230255,-0.07675 0.307007,0.07675 h 0.07675 l 0.07675,-0.07675 0.537262,0.07675 0.92102,-0.153504 1.228028,0.153504 1.151276,-0.307007 0.690765,0.115127 z m 0,-35.017974 -1.01696,0.134316 q -0.594826,0 -1.381531,-0.230256 h -0.07675 q -0.287819,0.230256 -0.537262,0.230256 h -0.230255 q -0.46051,0 -0.921021,-0.460511 l -0.92102,0.153504 -0.307007,-0.07675 -0.307007,0.07675 h -0.614014 q -0.441322,0.307007 -0.690765,0.307007 l -0.614014,-0.07675 h -0.07675 l -0.07675,0.07675 -0.383758,-0.230256 -0.460511,0.230256 -0.46051,-0.153504 q -0.287819,0.230255 -0.690765,0.230255 h -0.230256 l -0.614013,-0.230255 q -1.535035,0 -2.993318,0.230255 -0.709953,0 -1.228027,-0.46051 0,0.307007 -1.074524,0.383759 l -0.460511,-0.07675 -0.537262,0.153503 q -1.01696,-0.153503 -1.228027,-0.307007 h -0.07675 l -0.07675,0.07675 -1.688538,-0.153503 q -0.978584,0 -1.228027,0.307007 h -0.153504 l -0.307007,-0.230256 -0.46051,0.153504 -0.07675,-0.07675 h -0.230255 q -0.479698,0.153504 -1.842041,0.230255 l -0.537262,-0.307007 v -0.07675 l 0.07675,-0.07675 q 0.307007,-0.115128 0.307007,-0.230255 v -0.07675 l -0.230255,-0.230255 0.153504,-0.537262 v -0.07675 q 0,-0.153503 -0.230256,-0.153503 V 31.3057 l 0.307007,-0.537262 q 0.882645,0 1.535035,0.230255 0.882645,0 1.151276,-0.307007 h 0.383758 l 1.30478,0.230255 h 0.230255 l 0.844269,-0.230255 q 1.630974,0.249443 1.918793,0.46051 h 0.307007 q 0.383758,0 0.46051,-0.230255 h 0.07675 l 0.07675,0.07675 h 0.307007 q 0,-0.153504 1.76529,-0.383759 l 0.46051,0.07675 h 0.07675 l 0.07675,-0.07675 q 0.307007,0.115128 0.307007,0.230255 l 0.537262,-0.07675 h 0.537262 l 1.995545,0.383758 0.767517,-0.307007 v 0.07675 q 0.729141,0 1.381531,-0.230255 l 0.767517,0.153503 q 1.458283,0 2.2258,-0.307007 1.535035,0.537263 2.072297,0.537263 h 0.383758 q 0.921021,-0.307007 1.76529,-0.383759 l 0.230255,0.230255 h 0.230255 v -0.153503 h 0.230255 q 0,0.05756 0.01919,0.09594 z"
         style="font-style:normal;font-variant:normal;font-weight:normal;font-stretch:normal;font-size:39.29688263px;font-family:'Top Secret';-inkscape-font-specification:'Top Secret';fill:#ffffff"
         id="path621" />
      <path
         d="m 101.69789,35.680548 0.1727,0.172691 0.36457,0.345383 h 0.17269 l -0.34538,1.419907 0.70995,1.957169 0.70995,0.709953 v 3.722459 q 0.51808,0.479698 1.40072,4.259721 l 0.70995,0.709953 -0.17269,0.172691 v 0.709954 l 0.17269,0.709953 -0.17269,0.709954 1.07453,3.185196 H 106.303 l 0.53726,0.882645 -0.53726,0.901833 q 0.61401,0 1.07452,2.12986 l -0.17269,1.228028 q 0,0.537262 1.5926,1.074524 l 0.51807,1.419907 -0.70995,0.518074 h -0.17269 l -0.51808,-0.345383 h -0.36457 l -2.30255,0.709954 h -0.17269 l -0.70995,-0.172692 -0.70996,0.172692 h -0.36457 l -0.88264,-0.537262 -3.722461,0.537262 q -0.92102,0 -1.419907,-0.882645 V 61.91045 q 1.074525,-0.65239 1.074525,-2.302552 l -0.364571,-1.228028 0.172691,-0.191879 -0.345382,-1.592598 0.172691,-0.172692 v -0.709953 h -1.592598 l -1.419907,0.345383 Q 94.50242,55.712748 93.197641,55.712748 L 93.005762,55.540057 V 53.92827 q 0,-0.345382 1.074524,-0.518074 l 0.709953,0.709954 h 1.228028 l 0.901833,-0.19188 -0.537262,-3.012505 0.172691,-1.055336 q -0.537262,0 -1.247215,-3.89515 l 0.191879,-0.537262 -1.592598,-5.679628 0.172691,-0.518074 -0.172691,-1.611786 q 0.134315,-1.055336 1.055336,-1.055336 l 0.882645,0.172691 z m -8.500249,6.02501 h 0.172691 l 0.172692,0.537262 -0.172692,0.518074 0.172692,1.784478 q 0,2.32174 -1.055336,3.722459 0,2.2258 -1.419907,4.969674 l 0.172691,0.518074 -0.172691,1.247215 0.172691,1.247216 -0.537262,0.172691 0.172691,1.055337 -0.518074,1.419906 v 0.172692 q 0,1.554222 2.302552,1.784477 h 0.345383 v 0.172692 q 0,2.12986 -1.228028,2.12986 h -2.12986 q -0.594826,0 -1.247216,-0.537262 l -2.475243,0.537262 q -0.690765,0 -1.247215,-1.957169 v -0.345383 q 2.12986,0 2.12986,-1.957169 1.630974,-1.630974 3.012505,-5.660439 l -0.172691,-0.537262 1.937981,-6.562273 0.364571,-0.36457 -0.172692,-0.518074 q 0,-2.168237 1.419907,-3.549768 z m 18.708229,-8.845636 q -0.44132,-0.134315 -0.44132,-0.230255 l -0.61401,0.153503 -0.0767,-0.07675 h -0.0768 l -0.46051,0.153503 -0.84427,-0.07675 -2.30255,0.460511 -1.91879,-0.230255 -1.15128,0.07675 -0.0768,-0.07675 -0.307,0.07675 h -0.92103 l -0.99777,-0.307007 h -0.61401 l -0.76752,0.230256 h -0.0768 q -1.016961,0 -1.381531,-0.230256 l -0.537262,0.153504 -1.535035,-0.153504 q 0,0.115128 -1.074524,0.230256 l -0.690766,-0.07675 h -0.92102 q -2.014733,0 -2.2258,0.307007 h -0.383759 l -2.302552,-0.383759 -0.46051,0.07675 -0.844269,-0.153504 -1.381531,0.153504 h -0.307007 l -1.151276,0.307007 q -0.844269,0 -1.074524,-0.614014 0.383759,-0.575638 0.383759,-1.228028 l -0.07675,-0.307007 q 0,-0.537262 1.074524,-0.537262 l 1.611786,0.230256 Q 87.26857,30.55737 87.671517,30.55737 h 0.307007 q 0.383759,0 0.46051,0.230256 l 2.149049,-0.230256 1.611786,0.460511 1.228027,-0.383759 v 0.07675 l 0.997773,-0.230255 0.46051,0.07675 0.307007,-0.07675 0.230255,0.230255 h 0.230255 l 0.230255,-0.230255 0.690766,0.153503 1.151276,-0.153503 q 0.268631,0.230255 1.151276,0.307007 l 0.383758,-0.230256 0.383759,0.230256 0.383754,-0.07675 0.30701,0.07675 0.53726,-0.07675 1.22803,0.153503 1.30478,-0.307007 1.07452,0.153504 0.46051,-0.07675 h 1.22803 l 0.69077,-0.230255 0.53726,0.153503 0.23026,-0.07675 0.53726,0.153503 h 0.0767 l 0.0768,-0.07675 1.07452,0.230256 0.30701,-0.07675 0.76752,0.153503 0.92102,-0.230255 h 0.23025 l 0.28782,0.07675 z m 0,35.267417 -0.26863,-0.07675 -2.14905,0.307006 -0.0768,-0.07675 -0.38376,0.07675 -0.46051,-0.07675 -1.15127,0.153503 q -0.59483,0 -1.38153,-0.230255 h -0.0767 q -0.28782,0.230255 -0.53727,0.230255 h -0.23025 q -0.46051,0 -0.92102,-0.46051 l -0.92102,0.153503 -0.30701,-0.07675 -0.30701,0.07675 h -0.61401 q -0.44132,0.307007 -0.69077,0.307007 l -0.61401,-0.07675 h -0.0768 l -0.0768,0.07675 -0.38376,-0.230255 -0.460513,0.230255 -0.46051,-0.153503 q -0.287819,0.230255 -0.690766,0.230255 h -0.230255 l -0.614014,-0.230255 q -1.535034,0 -2.993317,0.230255 -0.709953,0 -1.228027,-0.46051 0,0.307006 -1.074524,0.383758 l -0.460511,-0.07675 -0.537262,0.153504 q -1.01696,-0.153504 -1.228027,-0.307007 h -0.07675 l -0.07675,0.07675 -1.688538,-0.153504 q -0.978584,0 -1.228027,0.307007 h -0.153504 l -0.307007,-0.230255 -0.46051,0.153503 -0.07675,-0.07675 h -0.230255 q -0.479698,0.153503 -1.842041,0.230255 l -0.537262,-0.307007 v -0.07675 l 0.07675,-0.07675 q 0.307007,-0.115128 0.307007,-0.230256 v -0.07675 l -0.230255,-0.230256 0.153503,-0.537262 v -0.07675 q 0,-0.153504 -0.230255,-0.153504 v -0.307007 l 0.307007,-0.537262 q 0.882645,0 1.535035,0.230255 0.882644,0 1.151276,-0.307006 h 0.383758 l 1.304779,0.230255 h 0.230256 l 0.844269,-0.230255 q 1.630974,0.249443 1.918793,0.46051 h 0.307007 q 0.383758,0 0.46051,-0.230255 h 0.07675 l 0.07675,0.07675 h 0.307007 q 0,-0.153503 1.76529,-0.383758 l 0.46051,0.07675 h 0.07675 l 0.07675,-0.07675 q 0.307007,0.115127 0.307007,0.230255 l 0.537262,-0.07675 h 0.537262 l 1.995545,0.383759 0.767517,-0.307007 v 0.07675 q 0.729141,0 1.381528,-0.230255 l 0.76752,0.153503 q 1.45828,0 2.2258,-0.307007 1.53503,0.537262 2.0723,0.537262 h 0.38376 q 0.92102,-0.307007 1.76528,-0.383758 l 0.23026,0.230255 h 0.23026 v -0.153504 h 0.23025 q 0,0.230255 0.38376,0.230255 h 0.1535 l 0.0768,-0.07675 0.38376,0.230255 h 0.23026 q 0.1535,-0.153504 0.61401,-0.153504 l 0.38376,-0.383758 1.2664,0.326195 z"
         style="font-style:normal;font-variant:normal;font-weight:normal;font-stretch:normal;font-size:39.29688263px;font-family:'Top Secret';-inkscape-font-specification:'Top Secret';fill:#ffffff"
         id="path623" />
      <path
         d="m 115.49402,35.622984 2.49443,0.709954 h 1.07452 q 1.97636,-0.537262 3.58815,-0.537262 v 0.729141 q -0.72914,0.805893 -0.72914,1.247215 l 0.19188,1.419907 -0.19188,0.19188 v 0.172691 l 0.36457,1.439095 v 2.12986 q -0.70996,0.959397 -0.70996,1.611786 v 0.364571 l 1.07453,2.494431 -1.07453,2.32174 0.88265,1.439095 v 0.172691 l -0.34538,1.976357 V 56.9024 l 0.34538,0.537262 v 0.882645 l -0.17269,1.074524 0.17269,0.191879 v 0.172691 l -0.34538,1.419907 0.34538,1.439095 -4.27891,0.537262 -1.78448,-0.364571 -0.72914,0.19188 -0.88264,-0.19188 -1.24722,0.364571 -0.53726,-0.172691 -0.53726,0.172691 q -0.36457,-0.441322 -0.53727,-1.784477 1.61179,0 1.61179,-2.859002 v -0.364571 l -0.19188,-1.611786 0.19188,-2.68631 v -2.32174 l -0.72914,-2.149048 v -0.709954 q 0.36457,-0.345383 0.90183,-4.470788 l 0.34538,-0.537262 -0.34538,-1.074524 0.17269,-1.247215 q -0.36457,-3.568956 -1.4199,-3.568956 -0.65239,0 -0.90184,-0.709953 0,-0.863457 3.76084,-1.266403 z m 10.36148,0.172692 2.51362,1.784477 q 2.03392,0 4.47079,3.050881 0.84427,3.396264 1.95717,3.396264 0.19188,1.957169 0.53726,2.32174 v 1.439094 l -0.17269,1.592599 0.17269,0.729141 -0.34538,0.709953 0.34538,0.709954 q -1.53503,6.792528 -3.03169,6.792528 l 0.17269,0.901832 q -1.45828,0.249443 -3.39627,2.686311 -3.39626,0.518074 -3.74164,1.074524 -1.4391,0 -1.4391,-2.149049 l 2.14905,-1.247215 v -0.364571 h 0.17269 l -0.17269,-5.37262 v -2.859002 l 0.17269,-1.247216 -0.17269,-0.172691 -0.19188,-0.537262 h -0.17269 l 0.36457,-1.074524 -0.19188,-1.074524 0.19188,-0.172692 h 0.17269 l -0.17269,-1.439095 q 0.40295,-0.479698 0.53726,-2.68631 l -0.53726,-0.709953 0.17269,-0.709954 q -0.26863,0 -0.88264,-1.439095 l 0.17269,-0.537262 -0.17269,-1.074524 h 0.17269 l -0.17269,-0.537262 h -1.07453 v -1.592598 z m 12.93267,32.408415 -0.57564,0.115128 -0.46051,-0.230256 -0.23026,0.07675 -0.307,-0.07675 -0.61402,0.153504 -0.0768,-0.07675 h -0.69076 l -0.84427,0.07675 q -0.30701,-0.153504 -0.84427,-0.153504 l -0.69077,0.153504 q -0.92102,0 -1.38153,-0.307007 l -0.69076,0.230255 -0.76752,-0.07675 h -0.0768 l -0.0768,0.07675 -0.46051,-0.153503 -0.53727,0.307007 -1.22802,-0.230256 -0.61402,0.153504 -0.30701,-0.153504 -0.307,0.07675 h -0.0768 l -0.15351,-0.153503 q -1.03615,0 -1.45828,0.383758 l -0.30701,-0.07675 -0.38376,0.07675 q 0,-0.153503 -0.99777,-0.230255 l -0.23025,0.07675 -0.99778,-0.230255 -0.61401,0.230255 h -0.61401 l -0.30701,0.07675 q -1.15128,-0.09594 -1.15128,-0.307007 l -1.61178,0.230255 -1.38153,-0.07675 -1.22803,0.153504 -1.07452,-0.230256 h -1.61179 q -0.13432,0.134316 -0.92102,0.230256 l -0.46051,-0.07675 -0.15351,0.05756 v -2.551995 l 1.68854,0.268631 q 0.42214,0 0.84427,-0.230255 0.4797,0 0.92102,0.230255 l 1.22803,-0.230255 1.76529,0.153503 v -0.07675 h 0.1535 l 0.23026,0.153504 0.61401,-0.153504 h 0.38376 l 0.46051,0.153504 1.30478,-0.153504 1.07452,0.230256 0.61402,-0.07675 0.84427,0.07675 0.92102,-0.230256 0.307,0.07675 2.76307,-0.230255 0.0768,0.07675 0.53726,-0.07675 0.30701,0.07675 q 0.21106,0.287819 0.61401,0.383758 0.76752,-0.211067 0.76752,-0.307007 l 0.69076,0.07675 q 0.40295,-0.230255 0.76752,-0.230255 h 0.30701 l 0.46051,0.153503 0.61401,-0.07675 0.99777,0.153503 0.84427,-0.307007 q 1.61179,0.307007 2.99332,0.307007 h 0.0768 l 0.0768,-0.07675 0.0768,0.07675 0.61401,-0.07675 0.46051,0.07675 q 0.0576,0 0.11513,-0.01919 z m 0,-34.96041 -1.05534,-0.134316 -1.30478,0.307007 -1.07452,-0.153503 -0.46051,0.07675 h -1.22803 l -0.69077,0.230256 -0.53726,-0.153504 -0.23025,0.07675 -0.53726,-0.153504 h -0.0768 l -0.0768,0.07675 -1.07452,-0.230255 -0.30701,0.07675 -0.76752,-0.153504 -0.92102,0.230255 h -0.23025 l -0.61402,-0.153503 -0.0768,0.07675 -0.69076,-0.07675 -0.30701,0.153503 -0.30701,-0.153503 h -0.84427 l -0.61401,0.230255 h -0.0768 l -0.0768,-0.07675 -1.22803,0.307007 -0.76752,-0.383758 h -0.69076 l -0.76752,0.07675 -0.1535,-0.153503 -0.15351,0.153503 -0.92102,-0.07675 h -0.76752 l -0.38375,-0.07675 -0.23026,0.230255 -0.69077,-0.230255 -0.307,0.07675 h -0.0767 l -0.0768,-0.07675 -0.46051,0.230255 -0.84426,-0.153503 -0.53727,0.07675 -1.07452,-0.307007 -2.14905,0.307007 -0.0768,-0.07675 -0.38376,0.07675 -0.46051,-0.07675 -0.13432,0.01919 v -2.302552 q 0.0576,0.134315 0.36458,0.134315 h 0.1535 l 0.0768,-0.07675 0.38376,0.230255 h 0.23025 q 0.15351,-0.153504 0.61402,-0.153504 l 0.38376,-0.383758 2.14904,0.537262 h 0.0768 l 0.99777,-0.460511 0.0768,0.07675 h 0.69077 q 0.11512,0 0.23025,0.307007 l 1.68854,-0.230255 q 0.42213,0.153503 1.07452,0.153503 0.3262,0 0.69077,-0.230255 l 0.46051,0.230255 h 0.38376 l 0.84427,-0.07675 0.92102,0.230255 q 0.97858,-0.211067 1.15127,-0.460511 l 0.38376,0.230256 q 0.59483,0 1.15128,-0.537262 0.32619,0.07675 0.61401,0.383758 1.30478,0.287819 1.30478,0.460511 l 0.61401,-0.153504 0.0768,0.07675 h 0.0768 l 0.46051,-0.153504 0.84427,0.07675 2.30255,-0.46051 1.91879,0.230255 1.15128,-0.07675 0.0768,0.07675 0.30701,-0.07675 h 0.92102 l 0.99777,0.307007 h 0.61401 l 0.0576,-0.01919 z"
         style="font-style:normal;font-variant:normal;font-weight:normal;font-stretch:normal;font-size:39.29688263px;font-family:'Top Secret';-inkscape-font-specification:'Top Secret';fill:#ffffff"
         id="path625" />
      <path
         d="m 143.00951,35.622984 q 2.05311,0.882645 4.27891,1.074524 l 1.24722,-0.36457 q 0.34538,0 1.24721,1.419907 v 1.611786 l -0.70995,1.055336 V 41.3218 l 0.17269,2.12986 -0.36457,2.494431 1.24722,2.859002 q 0,0.997772 -1.5926,5.161553 v 0.172692 l 0.34538,0.537262 -0.17269,0.709953 0.36457,1.784478 -0.19188,0.172691 v 0.172691 l 0.19188,0.172692 v 0.537262 h -0.19188 l 0.19188,1.247215 v 3.031693 l -0.19188,0.172692 v 0.172691 l -0.17269,-0.172691 h -0.17269 l -3.20439,0.537262 -2.32174,-1.247216 -2.12986,0.882645 h -0.36457 q -0.97858,0 -1.76529,-1.228027 0,-0.729142 1.5926,-1.074525 l 0.17269,-0.172691 v -0.191879 l -0.34538,-0.709954 0.70995,-1.957169 q 0,-1.57341 -0.53726,-2.302551 l 0.36457,-1.439095 v -1.76529 l -0.19188,-0.729141 0.19188,-0.709954 -0.36457,-2.494431 0.53726,-1.957169 -0.53726,-2.839813 0.53726,-2.859002 q -0.97858,-1.880417 -2.49443,-2.667122 0,-1.957169 4.62429,-1.957169 z m 9.26778,0 0.70995,0.364571 0.17269,-0.191879 h 0.17269 l 1.95717,0.36457 1.95717,-0.172691 1.43909,0.345383 v 0.882644 l 0.1727,5.698816 q -0.76752,0.959396 -1.78448,1.074524 l -1.41991,-1.784478 v -0.537262 l 0.17269,-0.172691 q -1.13209,-2.12986 -2.30255,-2.12986 l -0.19188,-0.709954 -1.5926,0.172692 q -0.90183,-0.115128 -0.90183,-1.074524 v -1.419907 q 0,-0.345383 1.4391,-0.709954 z m 2.12986,7.828676 v 1.074524 q 0.47969,0 0.88264,5.871507 l -0.17269,0.537262 0.53726,1.419907 -0.17269,0.172691 0.17269,0.901833 q -0.23025,1.419907 -1.07452,1.419907 -0.67158,-0.03838 -2.12986,-2.32174 -0.36457,0 -0.36457,-1.055336 L 150.83819,50.225 q 0,-2.494431 1.24722,-2.494431 0,-0.364571 0.53726,-0.364571 l 0.90183,-3.741647 0.17269,-0.172691 z m 3.74164,11.03306 q 0.82508,0 1.05534,2.859002 h 0.19188 l -0.53726,1.419907 0.17269,0.172691 -0.17269,0.901833 v 2.839814 l -0.70996,0.172691 -3.37707,-0.518074 -3.74165,0.518074 0.17269,-0.518074 -0.17269,-1.074524 v -0.172691 q 0,-0.364571 1.5926,-0.364571 0.23025,-0.537262 2.49443,-1.784478 1.36234,-3.357888 2.66712,-4.4516 z M 161.948,33.051801 161.41074,32.87911 q -0.46051,0.307007 -1.38153,0.307007 l -0.69077,-0.153504 q -0.53726,0 -0.84426,0.153504 l -0.84427,-0.07675 h -0.69077 l -0.0768,0.07675 -0.61401,-0.153504 -0.30701,0.07675 -0.23026,-0.07675 -0.46051,0.230256 -1.22802,-0.230256 -1.53504,0.07675 q -0.99777,0 -1.61179,-0.230255 -0.7867,0.537262 -1.07452,0.537262 h -0.23025 l -1.45829,-0.307007 h -1.07452 l -0.53726,0.153504 -1.30478,-0.153504 q -0.36457,0 -1.15128,0.383759 -0.36457,0 -1.07452,-0.537262 h -0.15351 l -0.23025,0.230255 h -0.0768 v -0.153504 h -0.0768 q -0.28781,0.307007 -0.53726,0.307007 l -0.61401,-0.07675 -0.0768,0.07675 q -0.0768,-0.230255 -0.46051,-0.230255 -1.15128,0.01919 -1.15128,0.153504 l -0.84427,-0.230256 -0.46051,0.07675 h -0.0768 q -0.23026,0 -0.30701,-0.997772 h -0.0768 q 0.0768,-1.30478 0.84427,-1.30478 L 139.383,30.65331 q 0,0.153503 0.23025,0.153503 l 0.61401,-0.07675 v 0.07675 q 0.70996,-0.09594 0.99778,-0.307006 0.74833,0.153503 1.07452,0.46051 l 0.30701,-0.07675 0.23025,0.07675 0.61402,-0.07675 0.0768,0.07675 0.38376,-0.07675 h 0.23025 l 1.07453,0.07675 0.0768,-0.07675 h 0.0768 l 0.46051,0.153504 1.38153,-0.230256 h 0.23026 l 0.61401,0.153504 h 0.38376 q 0.55645,0 1.38153,-0.230255 l 0.23026,0.07675 1.07452,-0.07675 h 0.30701 l 1.22802,0.307007 q 1.36235,-0.383759 1.84205,-0.383759 0,0.230255 0.307,0.230255 l 0.46051,-0.07675 0.61402,0.07675 0.0767,-0.07675 0.0768,0.07675 h 0.0768 q 1.40072,0 2.99332,-0.307007 l 0.84427,0.307007 0.99777,-0.153503 0.61401,0.07675 0.38376,-0.134315 z m -0.0576,35.229042 -0.53726,0.153503 -0.23026,-0.07675 -0.53726,0.153504 -0.69077,-0.230255 h -1.22802 l -0.46051,-0.07675 -1.07453,0.153503 -1.30478,-0.307006 -1.22802,0.153503 -0.53727,-0.07675 -0.307,0.07675 -0.38376,-0.07675 -0.38376,0.230255 -0.38376,-0.230255 q -0.88264,0.07675 -1.15128,0.307007 l -1.15127,-0.153503 -0.69077,0.153503 -0.23025,-0.230255 h -0.23026 l -0.23025,0.230255 -0.30701,-0.07675 -0.46051,0.07675 -0.99777,-0.230255 v 0.07675 l -1.22803,-0.383759 -1.61179,0.46051 -2.14904,-0.230255 q -0.0768,0.230255 -0.46051,0.230255 h -0.30701 q -0.40295,0 -0.69077,-0.230255 l -1.61178,0.230255 q -1.07453,0 -1.07453,-0.537262 l 0.0768,-0.307007 q 0,-0.652389 -0.38375,-1.228027 0.23025,-0.614014 1.07452,-0.614014 l 1.15128,0.307007 h 0.307 l 1.38153,0.153503 0.84427,-0.153503 0.46051,0.07675 2.30255,-0.383759 h 0.38376 q 0.21107,0.307007 2.2258,0.307007 h 0.92102 l 0.69077,-0.07675 q 1.07452,0.115128 1.07452,0.230255 l 1.53504,-0.153503 0.53726,0.153503 q 0.36457,-0.230255 1.38153,-0.230255 h 0.0768 l 0.76752,0.230255 h 0.61401 l 0.99778,-0.307006 h 0.92102 l 0.307,0.07675 0.0768,-0.07675 1.15127,0.07675 1.91879,-0.230255 1.07453,0.211067 z"
         style="font-style:normal;font-variant:normal;font-weight:normal;font-stretch:normal;font-size:39.29688263px;font-family:'Top Secret';-inkscape-font-specification:'Top Secret';fill:#ffffff"
         id="path627" />
      <path
         d="m 181.40457,68.242467 -1.05534,-0.134316 -0.46051,0.07675 -0.38376,-0.07675 -0.0768,0.07675 -2.14905,-0.307007 -1.07452,0.307007 -0.53726,-0.07675 -0.84427,0.153504 -0.46051,-0.230255 -0.0767,0.07675 h -0.0768 l -0.307,-0.07675 -0.69077,0.230255 -0.23025,-0.230255 -0.38376,0.07675 h -0.76752 l -0.92102,0.07675 -0.1535,-0.153503 -0.15351,0.153503 -0.76751,-0.07675 h -0.69077 l -0.76752,0.383759 -1.22802,-0.307007 -0.0768,0.07675 h -0.0768 L 166.38042,68.0314 h -0.84427 l -0.30701,0.153503 -0.307,-0.153503 -0.69077,0.07675 -0.0768,-0.07675 -0.61402,0.153503 h -0.23025 l -0.92102,-0.230255 -0.76752,0.153503 -0.30701,-0.07675 -0.17269,0.03838 v -2.072296 l 0.17269,0.03838 0.84427,-0.07675 0.46051,0.153503 h 0.0768 l 0.0768,-0.07675 0.61401,0.153503 q 0,-0.172691 1.30478,-0.46051 0.28782,-0.307007 0.61401,-0.383759 0.55645,0.537262 1.15128,0.537262 l 0.38376,-0.230255 q 0.17269,0.249443 1.15127,0.46051 l 0.92102,-0.230255 0.84427,0.07675 h 0.38376 l 0.46051,-0.230255 q 0.36457,0.230255 0.69077,0.230255 0.65239,0 1.07452,-0.153503 l 1.68854,0.230255 q 0.11513,-0.307007 0.23026,-0.307007 h 0.69076 l 0.0768,-0.07675 0.99778,0.46051 h 0.0768 l 2.14905,-0.537262 0.38375,0.383759 q 0.46051,0 0.61402,0.153503 h 0.23025 l 0.38376,-0.230255 0.0768,0.07675 h 0.15351 q 0.38376,0 0.38376,-0.230255 h 0.23025 v 0.153503 h 0.23026 l 0.23025,-0.230255 q 0.0959,0 0.21107,0.01919 z m -3.41545,-34.998786 -0.21107,0.115127 q -1.36234,-0.07675 -1.84204,-0.230255 h -0.23026 l -0.0768,0.07675 -0.46051,-0.153504 -0.30701,0.230256 h -0.1535 q -0.24944,-0.307007 -1.22803,-0.307007 l -1.68854,0.153503 -0.0768,-0.07675 h -0.0768 q -0.21107,0.153504 -1.22803,0.307007 l -0.53726,-0.153503 -0.46051,0.07675 q -1.07452,-0.07675 -1.07452,-0.383759 -0.51808,0.46051 -1.22803,0.46051 -1.45828,-0.230255 -2.99332,-0.230255 l -0.61401,0.230255 h -0.23026 q -0.40294,0 -0.69076,-0.230255 l -0.46051,0.153504 -0.46051,-0.230256 -0.38376,0.230256 -0.0768,-0.07675 v -2.494431 l 0.23025,-0.03838 q 0.65239,0.230255 1.38153,0.230255 v -0.07675 l 0.76752,0.307007 1.99554,-0.383758 h 0.53727 l 0.53726,0.07675 q 0,-0.115127 0.30701,-0.230255 l 0.0768,0.07675 h 0.0767 l 0.46051,-0.07675 q 1.76529,0.230255 1.76529,0.383759 h 0.30701 l 0.0768,-0.07675 h 0.0768 q 0.0768,0.230255 0.46051,0.230255 h 0.30701 q 0.28782,-0.211067 1.91879,-0.46051 l 0.84427,0.230255 h 0.23025 l 1.30478,-0.230255 h 0.38376 q 0.28782,0.307007 1.15128,0.307007 0.38376,-0.134316 0.82508,-0.191879 v -0.07675 q 0.1535,0.01919 0.32619,0.05756 0.19188,-0.01919 0.38376,-0.01919 l 0.0576,0.09594 q 0.38375,0.09594 0.7867,0.230256 h 0.38376 q 0.53726,0 2.0723,-0.537263 0.13431,0.05756 0.28782,0.09594 v 2.32174 l -0.13432,0.03838 -0.92102,-0.153504 q -0.46051,0.460511 -0.92102,0.460511 h -0.23026 q -0.24944,0 -0.53726,-0.230256 h -0.0768 q -0.38376,0.115128 -0.70995,0.172692 z"
         style="font-style:normal;font-variant:normal;font-weight:normal;font-stretch:normal;font-size:39.29688263px;font-family:'Top Secret';-inkscape-font-specification:'Top Secret';fill:#ffffff"
         id="path629" />
      <path
         d="m 189.924,35.622984 0.51807,0.537262 h 1.05534 v 0.863457 q -1.13209,0.940209 -1.93798,3.530579 l -0.17269,0.172692 0.34538,1.592598 -0.34538,0.709954 0.34538,3.166008 -0.17269,0.709954 v 1.228027 l 0.17269,0.172692 -0.51808,1.592598 v 2.647934 l 0.1727,2.456055 -0.1727,0.537263 q 1.05534,1.304779 1.05534,3.70327 l -0.17269,0.709954 q 1.30478,0.844269 1.40072,1.400719 0,1.419906 -1.76529,1.419906 L 185.51077,61.354 q 0,-0.383759 -1.59259,-1.76529 l -1.57341,-2.993317 0.17269,-0.172692 q -0.23026,-0.748329 -1.76529,-2.283363 v -0.19188 q 0.0384,-0.882645 0.34538,-0.882645 l -0.17269,-0.172691 v -0.172691 l 0.17269,-1.592599 -0.34538,-0.518074 v -1.765289 l 0.34538,-0.537262 v -1.746102 q 1.24722,-4.528352 1.76529,-5.468561 2.01473,-2.014732 2.64793,-3.357887 l 1.93798,-0.345383 -0.17269,-1.228028 q 0.36457,-0.307007 2.64794,-0.537262 z m 11.2825,0 q 0.46051,0 0.86346,0.882645 l -0.17269,0.709953 0.17269,1.573411 -0.17269,0.191879 v 0.172691 l 0.70995,1.937981 v 0.518075 l -0.53726,2.302551 0.19188,0.172692 v 0.172691 q -0.42214,1.228028 -0.70996,1.228028 l -1.59259,-0.172692 q -0.4797,-4.394036 -1.76529,-4.394036 -2.30256,-3.012505 -3.5114,-3.012505 -1.4199,-0.65239 -1.4199,-1.57341 h 0.17269 l 0.19188,-0.172692 0.17269,0.172692 h 0.34538 l 1.76529,-0.172692 q 1.1129,0.115128 2.11067,0.863457 h 1.05534 l 1.05534,-1.228027 z m -0.53726,12.683223 q 1.78448,0 2.47524,1.419906 v 0.709954 l -0.70995,1.746102 0.17269,1.247215 q -0.53726,0.863457 -0.53726,2.283364 l 0.19188,1.419907 -0.19188,0.172691 v 0.172692 l 0.19188,0.537262 q 0,2.283363 -1.24722,2.283363 -1.8996,0.498887 -2.82062,1.592599 l -4.39404,1.228027 q -1.41991,-0.191879 -1.41991,-0.882645 0,-1.093712 2.30255,-1.937981 l 0.1727,-1.228027 v -0.537262 q 0,-1.76529 -0.34539,-1.76529 l 0.17269,-0.172691 V 54.48472 l -0.17269,-0.172691 0.34539,-1.247216 q 0,-1.822853 -2.47525,-2.628746 v -0.364571 l 0.88265,-0.882645 h 1.05533 l 2.82063,-0.345382 1.76529,0.345382 h 0.53726 q 0.97859,0 1.22803,-0.882644 z m 5.33424,-15.21603 q -0.13431,0.01919 -0.28782,0.03838 l -0.46051,-0.07675 -0.46051,0.153504 -0.23025,-0.07675 -0.46051,0.153504 q 0,-0.383759 -1.07453,-0.460511 l -1.30477,0.307007 h -0.61402 l -0.69076,-0.07675 h -0.0768 l -0.0768,0.07675 -0.84427,-0.07675 h -0.38376 l -0.23025,-0.153503 h -0.23026 l -0.46051,0.153503 -0.23025,-0.153503 q 0,0.153503 -1.61179,0.230255 -0.1535,-0.153503 -0.92102,-0.230255 0,0.153503 -0.69076,0.230255 0,-0.191879 -0.84427,-0.307007 h -0.84427 l -0.53726,0.230255 -1.61179,-0.307006 -0.53726,0.153503 h -0.0768 l -0.0768,-0.07675 -0.53726,0.153504 -1.30478,-0.230255 -0.61401,0.230255 h -0.0768 l -0.0768,-0.07675 -1.15128,0.153503 -1.07452,-0.307006 -1.53504,0.307006 -1.45828,-0.07675 -0.61401,0.07675 q 0,-0.134315 -0.76752,-0.153503 h -0.53726 l -0.15351,-0.153503 v -0.153504 l 0.15351,-0.614014 v -0.230255 l -0.15351,-0.230255 V 31.20976 q 0,-0.537262 0.61402,-0.614014 1.47747,0.07675 1.61178,0.230255 h 0.0768 l 0.0768,-0.07675 0.307,0.153503 q 0,-0.287819 2.30255,-0.383758 l 1.30478,0.307006 h 0.30701 l 0.0767,-0.07675 0.0768,0.07675 h 0.15351 l 0.38376,-0.07675 0.46051,0.07675 h 0.307 l 0.99778,-0.153503 0.84426,0.153503 h 0.76752 l 0.69077,0.230256 1.07452,-0.230256 h 0.0768 l 0.69077,0.07675 1.07452,-0.307007 0.92102,0.230255 h 0.76752 l 0.0768,-0.07675 0.0767,0.07675 h 0.30701 l 0.69077,0.07675 2.30255,-0.230255 0.23025,0.07675 0.23026,-0.07675 0.30701,0.07675 h 0.0768 l 0.0767,-0.07675 0.53726,0.07675 0.92102,-0.153504 1.22803,0.153504 1.15128,-0.307007 1.59259,0.249443 z m 0.0576,34.883659 -0.67158,-0.05756 -2.30255,0.46051 -1.91879,-0.230255 -1.15128,0.07675 -0.0768,-0.07675 -0.30701,0.07675 h -0.92102 l -0.99777,-0.307007 h -0.61402 l -0.76751,0.230255 h -0.0768 q -1.01696,0 -1.38153,-0.230255 l -0.53726,0.153503 -1.53503,-0.153503 q 0,0.115128 -1.07453,0.230255 l -0.69076,-0.07675 h -0.92102 q -2.01474,0 -2.2258,0.307007 h -0.38376 l -2.30255,-0.383758 -0.46051,0.07675 -0.84427,-0.153503 -1.38153,0.153503 h -0.30701 l -1.15128,0.307007 q -0.84427,0 -1.07452,-0.614013 0.38376,-0.575638 0.38376,-1.228028 l -0.0768,-0.307007 q 0,-0.537262 1.07452,-0.537262 l 1.61179,0.230255 q 0.28782,-0.230255 0.69076,-0.230255 h 0.30701 q 0.38376,0 0.46051,0.230255 l 2.14905,-0.230255 1.61178,0.46051 1.22803,-0.383758 v 0.07675 l 0.99777,-0.230255 0.46051,0.07675 0.30701,-0.07675 0.23026,0.230255 h 0.23025 l 0.23026,-0.230255 0.69076,0.153504 1.15128,-0.153504 q 0.26863,0.230255 1.15127,0.307007 l 0.38376,-0.230255 0.38376,0.230255 0.38376,-0.07675 0.30701,0.07675 0.53726,-0.07675 1.22803,0.153504 1.30478,-0.307007 1.07452,0.153503 0.46051,-0.07675 h 1.22803 l 0.69076,-0.230255 0.53727,0.153503 0.23025,-0.07675 0.53726,0.153504 h 0.0768 l 0.0768,-0.07675 1.07452,0.230255 0.30701,-0.07675 0.36457,0.07675 z"
         style="font-style:normal;font-variant:normal;font-weight:normal;font-stretch:normal;font-size:39.29688263px;font-family:'Top Secret';-inkscape-font-specification:'Top Secret';fill:#ffffff"
         id="path631" />
      <path
         d="m 222.73536,35.680548 0.17269,0.172691 0.36457,0.345383 h 0.1727 l -0.34539,1.419907 0.70996,1.957169 0.70995,0.709953 v 3.722459 q 0.51807,0.479698 1.40072,4.259721 l 0.70995,0.709953 -0.17269,0.172691 v 0.709954 l 0.17269,0.709953 -0.17269,0.709954 1.07453,3.185196 h -0.19188 l 0.53726,0.882645 -0.53726,0.901833 q 0.61401,0 1.07452,2.12986 l -0.17269,1.228028 q 0,0.537262 1.5926,1.074524 l 0.51807,1.419907 -0.70995,0.518074 h -0.17269 l -0.51808,-0.345383 h -0.36457 l -2.30255,0.709954 h -0.17269 l -0.70996,-0.172692 -0.70995,0.172692 h -0.36457 l -0.88264,-0.537262 -3.72246,0.537262 q -0.92102,0 -1.41991,-0.882645 V 61.91045 q 1.07452,-0.65239 1.07452,-2.302552 l -0.36457,-1.228028 0.1727,-0.191879 -0.34539,-1.592598 0.17269,-0.172692 v -0.709953 h -1.59259 l -1.41991,0.345383 q -0.46051,-0.345383 -1.76529,-0.345383 l -0.19188,-0.172691 V 53.92827 q 0,-0.345382 1.07452,-0.518074 l 0.70996,0.709954 h 1.22802 l 0.90184,-0.19188 -0.53726,-3.012505 0.17269,-1.055336 q -0.53727,0 -1.24722,-3.89515 l 0.19188,-0.537262 -1.5926,-5.679628 0.17269,-0.518074 -0.17269,-1.611786 q 0.13432,-1.055336 1.05534,-1.055336 l 0.88264,0.172691 z m -8.50025,6.02501 h 0.17269 l 0.17269,0.537262 -0.17269,0.518074 0.17269,1.784478 q 0,2.32174 -1.05533,3.722459 0,2.2258 -1.41991,4.969674 l 0.17269,0.518074 -0.17269,1.247215 0.17269,1.247216 -0.53726,0.172691 0.17269,1.055337 -0.51807,1.419906 v 0.172692 q 0,1.554222 2.30255,1.784477 h 0.34538 v 0.172692 q 0,2.12986 -1.22803,2.12986 h -2.12986 q -0.59482,0 -1.24721,-0.537262 l -2.47525,0.537262 q -0.69076,0 -1.24721,-1.957169 v -0.345383 q 2.12986,0 2.12986,-1.957169 1.63097,-1.630974 3.0125,-5.660439 l -0.17269,-0.537262 1.93798,-6.562273 0.36457,-0.36457 -0.17269,-0.518074 q 0,-2.168237 1.41991,-3.549768 z m 18.70823,-8.845636 q -0.44132,-0.134315 -0.44132,-0.230255 l -0.61401,0.153503 -0.0768,-0.07675 h -0.0768 l -0.46051,0.153503 -0.84427,-0.07675 -2.30255,0.460511 -1.91879,-0.230255 -1.15128,0.07675 -0.0768,-0.07675 -0.30701,0.07675 h -0.92102 l -0.99777,-0.307007 h -0.61401 l -0.76752,0.230256 h -0.0768 q -1.01696,0 -1.38153,-0.230256 l -0.53727,0.153504 -1.53503,-0.153504 q 0,0.115128 -1.07452,0.230256 l -0.69077,-0.07675 h -0.92102 q -2.01473,0 -2.2258,0.307007 h -0.38376 l -2.30255,-0.383759 -0.46051,0.07675 -0.84427,-0.153504 -1.38153,0.153504 h -0.30701 l -1.15127,0.307007 q -0.84427,0 -1.07453,-0.614014 0.38376,-0.575638 0.38376,-1.228028 l -0.0768,-0.307007 q 0,-0.537262 1.07452,-0.537262 l 1.61179,0.230256 q 0.28782,-0.230256 0.69076,-0.230256 h 0.30701 q 0.38376,0 0.46051,0.230256 l 2.14905,-0.230256 1.61179,0.460511 1.22802,-0.383759 v 0.07675 l 0.99778,-0.230255 0.46051,0.07675 0.307,-0.07675 0.23026,0.230255 h 0.23025 l 0.23026,-0.230255 0.69076,0.153503 1.15128,-0.153503 q 0.26863,0.230255 1.15128,0.307007 l 0.38376,-0.230256 0.38375,0.230256 0.38376,-0.07675 0.30701,0.07675 0.53726,-0.07675 1.22803,0.153503 1.30478,-0.307007 1.07452,0.153504 0.46051,-0.07675 h 1.22803 l 0.69077,-0.230255 0.53726,0.153503 0.23025,-0.07675 0.53727,0.153503 h 0.0768 l 0.0768,-0.07675 1.07452,0.230256 0.30701,-0.07675 0.76752,0.153503 0.92102,-0.230255 h 0.23025 l 0.28782,0.07675 z m 0,35.267417 -0.26863,-0.07675 -2.14905,0.307006 -0.0767,-0.07675 -0.38376,0.07675 -0.46051,-0.07675 -1.15127,0.153503 q -0.59483,0 -1.38154,-0.230255 h -0.0768 q -0.28782,0.230255 -0.53726,0.230255 h -0.23025 q -0.46051,0 -0.92102,-0.46051 l -0.92103,0.153503 -0.307,-0.07675 -0.30701,0.07675 h -0.61401 q -0.44133,0.307007 -0.69077,0.307007 l -0.61401,-0.07675 h -0.0768 l -0.0768,0.07675 -0.38375,-0.230255 -0.46051,0.230255 -0.46052,-0.153503 q -0.28781,0.230255 -0.69076,0.230255 h -0.23026 l -0.61401,-0.230255 q -1.53503,0 -2.99332,0.230255 -0.70995,0 -1.22802,-0.46051 0,0.307006 -1.07453,0.383758 l -0.46051,-0.07675 -0.53726,0.153504 q -1.01696,-0.153504 -1.22803,-0.307007 h -0.0768 l -0.0767,0.07675 -1.68854,-0.153504 q -0.97858,0 -1.22803,0.307007 h -0.1535 l -0.30701,-0.230255 -0.46051,0.153503 -0.0768,-0.07675 h -0.23026 q -0.47969,0.153503 -1.84204,0.230255 l -0.53726,-0.307007 v -0.07675 l 0.0768,-0.07675 q 0.30701,-0.115128 0.30701,-0.230256 v -0.07675 l -0.23026,-0.230256 0.15351,-0.537262 v -0.07675 q 0,-0.153504 -0.23026,-0.153504 v -0.307007 l 0.30701,-0.537262 q 0.88264,0 1.53503,0.230255 0.88265,0 1.15128,-0.307006 h 0.38376 l 1.30478,0.230255 h 0.23025 l 0.84427,-0.230255 q 1.63098,0.249443 1.9188,0.46051 h 0.307 q 0.38376,0 0.46051,-0.230255 h 0.0768 l 0.0768,0.07675 h 0.307 q 0,-0.153503 1.76529,-0.383758 l 0.46051,0.07675 h 0.0767 l 0.0768,-0.07675 q 0.307,0.115127 0.307,0.230255 l 0.53727,-0.07675 h 0.53726 l 1.99554,0.383759 0.76752,-0.307007 v 0.07675 q 0.72914,0 1.38153,-0.230255 l 0.76752,0.153503 q 1.45828,0 2.2258,-0.307007 1.53503,0.537262 2.07229,0.537262 h 0.38376 q 0.92102,-0.307007 1.76529,-0.383758 l 0.23026,0.230255 h 0.23025 v -0.153504 h 0.23026 q 0,0.230255 0.38376,0.230255 h 0.1535 l 0.0767,-0.07675 0.38376,0.230255 h 0.23026 q 0.1535,-0.153504 0.61401,-0.153504 l 0.38376,-0.383758 1.2664,0.326195 z"
         style="font-style:normal;font-variant:normal;font-weight:normal;font-stretch:normal;font-size:39.29688263px;font-family:'Top Secret';-inkscape-font-specification:'Top Secret';fill:#ffffff"
         id="path633" />
      <path
         d="m 236.30123,35.622984 3.68408,1.055336 2.45606,-0.709953 h 0.17269 q 0.36457,0 0.36457,1.228028 l 0.69077,1.592598 q 0.24944,0 0.36457,1.400719 0.40294,0 1.03615,0.690765 l -0.51808,0.882645 v 0.537262 q 0.8059,0.748329 0.88265,2.091485 0.34538,0 0.34538,1.592598 l 0.88264,0.518074 q 0,-1.66935 1.22803,-3.3387 h 0.34539 l -0.1727,0.172691 v 1.419907 l 0.69077,1.918793 q -1.03615,4.048654 -1.7461,4.048654 -0.34539,0 -0.34539,0.518074 l 0.1727,0.172691 v 0.172692 l -1.05534,2.993317 0.17269,2.974129 -0.88264,1.76529 0.19188,0.690765 -0.88265,1.055337 q -0.4797,1.592598 -0.88264,1.592598 h -0.34539 q -0.76751,-0.537262 -1.76529,-4.566728 l -1.7461,-3.3387 -0.17269,-0.709953 0.34538,-0.863457 q 0,-0.614014 -1.57341,-3.3387 l -2.64793,-8.596193 q -0.6332,-2.628747 -0.86346,-2.647935 -1.5926,0 -2.11067,-1.228027 v -0.172691 q 0,-0.882645 3.68408,-1.573411 z m 18.07503,0.345383 q 0.92102,0.709953 1.76529,0.709953 v 0.172692 l 0.17269,-0.172692 h 0.34539 l 0.17269,0.172692 1.5926,-0.518074 q 2.09148,0.268631 2.09148,0.863457 v 0.537262 q -2.28336,1.630974 -2.28336,2.283363 l 0.19188,0.172692 v 0.172691 l -0.19188,0.518074 0.36457,1.937981 -0.36457,1.228028 0.36457,2.993317 q -0.36457,1.57341 -0.88265,2.264176 0.99778,2.283364 1.40072,2.283364 v 0.172691 q 0,0.364571 -0.69076,0.364571 0,2.456055 0.51807,5.257493 l -0.17269,2.283364 q 0.28782,0 1.57341,1.937981 -0.34538,1.093712 -0.88265,1.228027 h -1.03614 l -1.76529,-0.36457 -0.88265,0.191879 -1.40072,-0.364571 h -0.34538 q -1.93798,0.364571 -2.45605,0.882645 l -2.99332,-0.882645 q -1.05534,0 -1.05534,-0.518074 0.59483,-1.535034 2.64794,-2.456055 v -0.364571 l -0.1727,-4.029465 0.34539,-3.684083 v -0.709953 l -0.17269,-1.228028 0.34538,-0.345383 -0.51808,-1.918793 v -0.882645 l 0.1727,-1.592598 -0.1727,-0.518074 0.1727,-0.882645 -0.1727,-1.055336 0.1727,-0.518074 -0.70996,-0.709954 q 0.34539,-1.554222 0.34539,-4.202157 0,-0.402946 0.88264,-0.537262 l 1.05534,0.19188 z m -6.14013,5.967446 h 0.34538 v 0.364571 l -0.51808,0.518074 v -0.345382 z m -13.16293,4.566728 h 0.1727 q 0.88264,0.537262 0.88264,1.228028 h -0.17269 q 0.88264,1.189651 0.88264,3.166008 l -0.19188,0.690766 0.70996,0.709953 -0.17269,0.709954 0.34538,0.690765 -0.17269,0.709954 0.17269,1.57341 q -0.51807,0 -0.51807,1.937981 0.84426,0.230255 1.7461,2.283364 0.82508,0 1.93798,1.228027 0,1.036149 -1.76529,1.036149 l -0.51808,0.537262 h -0.17269 l -0.17269,-0.172692 -0.19188,0.172692 h -1.22803 L 235.95585,62.4669 h -0.53726 l -2.62875,0.191879 -0.17269,-0.537262 0.17269,-0.172692 v -0.172691 l -0.17269,-0.709953 2.62875,-2.283364 -0.1727,-1.746102 0.51808,-2.110672 -0.34538,-5.622064 0.17269,-0.172691 v -0.172692 q -0.34539,-0.690765 -0.34539,-1.918793 z m 27.93763,-13.738559 q -0.21107,-0.07675 -0.21107,-0.153503 -0.76751,0.07675 -0.92102,0.230255 -1.61178,-0.07675 -1.61178,-0.230255 l -0.23026,0.153503 -0.46051,-0.153503 h -0.23025 l -0.23026,0.153503 h -0.38376 l -0.84427,0.07675 -0.0768,-0.07675 h -0.0768 l -0.69076,0.07675 h -0.61402 l -1.30478,-0.307007 q -1.07452,0.07675 -1.07452,0.460511 l -0.46051,-0.153504 -0.23026,0.07675 -0.46051,-0.153504 -0.46051,0.07675 q -0.7867,-0.09594 -0.92102,-0.230255 h -1.61178 l -1.07453,0.230255 -1.22803,-0.153503 -1.38153,0.07675 -1.61178,-0.230255 q 0,0.211068 -1.15128,0.307007 l -0.30701,-0.07675 h -0.61401 l -0.61401,-0.230255 -0.99778,0.230255 -0.23025,-0.07675 q -0.99777,0.07675 -0.99777,0.230255 l -0.38376,-0.07675 -0.30701,0.07675 q -0.42213,-0.383759 -1.45828,-0.383759 l -0.15351,0.153504 h -0.0768 l -0.307,-0.07675 -0.30701,0.153503 -0.61402,-0.153503 -1.22802,0.230255 -0.53726,-0.307007 -0.46052,0.153504 -0.0768,-0.07675 h -0.0768 l -0.76752,0.07675 -0.69076,-0.230255 q -0.0192,0.01919 -0.0576,0.03838 v -2.12986 l 0.21107,0.01919 0.46051,-0.153503 h 0.30701 q 0.38376,0 0.76752,0.230255 l 0.69076,-0.07675 q 0,0.09594 0.76752,0.307007 0.40295,-0.09594 0.61401,-0.383759 l 0.30701,-0.07675 0.53726,0.07675 0.0768,-0.07675 2.76307,0.230255 0.307,-0.07675 0.92102,0.230255 0.84427,-0.07675 0.61402,0.07675 1.07452,-0.230255 1.30478,0.153503 0.46051,-0.153503 h 0.38376 l 0.61401,0.153503 0.23026,-0.153503 h 0.1535 v 0.07675 l 1.76529,-0.153504 1.22803,0.230255 q 0.44132,-0.230255 0.92102,-0.230255 0.42213,0.230255 0.84427,0.230255 l 2.3793,-0.383758 1.15128,0.307007 1.22802,-0.153504 0.92103,0.153504 0.53726,-0.07675 0.0768,0.07675 h 0.0768 l 0.30701,-0.07675 0.23025,0.07675 0.23026,-0.07675 2.30255,0.230255 0.69077,-0.07675 h 0.307 l 0.0768,-0.07675 0.0768,0.07675 h 0.76751 l 0.28782,-0.07675 z m 0,35.094726 -1.28559,-0.05756 -1.22803,0.230256 -0.46051,-0.230256 -0.23025,0.07675 -0.30701,-0.07675 -0.61401,0.153504 -0.0768,-0.07675 h -0.69077 l -0.84427,0.07675 q -0.30701,-0.153504 -0.84427,-0.153504 l -0.69076,0.153504 q -0.92102,0 -1.38153,-0.307007 l -0.69077,0.230255 -0.76752,-0.07675 h -0.0768 l -0.0767,0.07675 -0.46051,-0.153503 -0.53726,0.307007 -1.22803,-0.230256 -0.61401,0.153504 -0.30701,-0.153504 -0.30701,0.07675 h -0.0768 l -0.1535,-0.153503 q -1.03615,0 -1.45829,0.383758 l -0.307,-0.07675 -0.38376,0.07675 q 0,-0.153503 -0.99777,-0.230255 l -0.23026,0.07675 -0.99777,-0.230255 -0.61402,0.230255 h -0.61401 l -0.30701,0.07675 q -1.15127,-0.09594 -1.15127,-0.307007 l -1.61179,0.230255 -1.38153,-0.07675 -1.22803,0.153504 -1.07452,-0.230256 h -1.61179 q -0.13431,0.134316 -0.92102,0.230256 l -0.46051,-0.07675 -0.46051,0.153503 -0.23025,-0.07675 -0.46051,0.153503 q 0,-0.230255 -0.36458,-0.345383 v -2.321739 l 0.67158,-0.172692 2.37931,0.383759 q 0.42213,0 0.84426,-0.230255 0.4797,0 0.92103,0.230255 l 1.22802,-0.230255 1.76529,0.153503 v -0.07675 h 0.15351 l 0.23025,0.153504 0.61402,-0.153504 h 0.38375 l 0.46051,0.153504 1.30478,-0.153504 1.07453,0.230256 0.61401,-0.07675 0.84427,0.07675 0.92102,-0.230256 0.30701,0.07675 2.76306,-0.230255 0.0768,0.07675 0.53726,-0.07675 0.30701,0.07675 q 0.21107,0.287819 0.61401,0.383758 0.76752,-0.211067 0.76752,-0.307007 l 0.69077,0.07675 q 0.40294,-0.230255 0.76751,-0.230255 h 0.30701 l 0.46051,0.153503 0.61402,-0.07675 0.99777,0.153503 0.84427,-0.307007 q 1.61178,0.307007 2.99331,0.307007 h 0.0768 l 0.0768,-0.07675 0.0768,0.07675 0.61401,-0.07675 0.46051,0.07675 q 0.30701,0 0.30701,-0.230255 0.46051,0 1.7461,0.364571 z"
         style="font-style:normal;font-variant:normal;font-weight:normal;font-stretch:normal;font-size:39.29688263px;font-family:'Top Secret';-inkscape-font-specification:'Top Secret';fill:#ffffff"
         id="path635" />
      <path
         d="m 267.17461,35.622984 q 2.05311,0.882645 4.27891,1.074524 l 1.24722,-0.36457 q 0.34538,0 1.24721,1.419907 v 1.611786 L 273.238,40.419967 V 41.3218 l 0.17269,2.12986 -0.36457,2.494431 1.24722,2.859002 q 0,0.997772 -1.5926,5.161553 v 0.172692 l 0.34538,0.537262 -0.17269,0.709953 0.36457,1.784478 -0.19188,0.172691 v 0.172691 l 0.19188,0.172692 v 0.537262 h -0.19188 l 0.19188,1.247215 v 3.031693 l -0.19188,0.172692 v 0.172691 l -0.17269,-0.172691 h -0.17269 l -3.20439,0.537262 -2.32174,-1.247216 -2.12986,0.882645 h -0.36457 q -0.97858,0 -1.76529,-1.228027 0,-0.729142 1.5926,-1.074525 l 0.17269,-0.172691 v -0.191879 l -0.34538,-0.709954 0.70995,-1.957169 q 0,-1.57341 -0.53726,-2.302551 l 0.36457,-1.439095 v -1.76529 l -0.19188,-0.729141 0.19188,-0.709954 -0.36457,-2.494431 0.53726,-1.957169 -0.53726,-2.839813 0.53726,-2.859002 q -0.97858,-1.880417 -2.49443,-2.667122 0,-1.957169 4.62429,-1.957169 z m 9.26778,0 0.70995,0.364571 0.17269,-0.191879 h 0.17269 l 1.95717,0.36457 1.95717,-0.172691 1.43909,0.345383 v 0.882644 l 0.1727,5.698816 q -0.76752,0.959396 -1.78448,1.074524 l -1.41991,-1.784478 v -0.537262 l 0.17269,-0.172691 q -1.13209,-2.12986 -2.30255,-2.12986 l -0.19188,-0.709954 -1.5926,0.172692 q -0.90183,-0.115128 -0.90183,-1.074524 v -1.419907 q 0,-0.345383 1.4391,-0.709954 z m 2.12986,7.828676 v 1.074524 q 0.47969,0 0.88264,5.871507 l -0.17269,0.537262 0.53726,1.419907 -0.17269,0.172691 0.17269,0.901833 q -0.23025,1.419907 -1.07452,1.419907 -0.67158,-0.03838 -2.12986,-2.32174 -0.36457,0 -0.36457,-1.055336 L 275.00329,50.225 q 0,-2.494431 1.24722,-2.494431 0,-0.364571 0.53726,-0.364571 l 0.90183,-3.741647 0.17269,-0.172691 z m 3.74164,11.03306 q 0.82508,0 1.05534,2.859002 h 0.19188 l -0.53726,1.419907 0.17269,0.172691 -0.17269,0.901833 v 2.839814 l -0.70996,0.172691 -3.37707,-0.518074 -3.74165,0.518074 0.17269,-0.518074 -0.17269,-1.074524 v -0.172691 q 0,-0.364571 1.5926,-0.364571 0.23025,-0.537262 2.49443,-1.784478 1.36234,-3.357888 2.66712,-4.4516 z m 3.79921,-21.432919 -0.53726,-0.172691 q -0.46051,0.307007 -1.38153,0.307007 l -0.69077,-0.153504 q -0.53726,0 -0.84426,0.153504 l -0.84427,-0.07675 h -0.69077 l -0.0768,0.07675 -0.61401,-0.153504 -0.30701,0.07675 -0.23026,-0.07675 -0.46051,0.230256 -1.22802,-0.230256 -1.53504,0.07675 q -0.99777,0 -1.61179,-0.230255 -0.7867,0.537262 -1.07452,0.537262 h -0.23025 l -1.45829,-0.307007 h -1.07452 l -0.53726,0.153504 -1.30478,-0.153504 q -0.36457,0 -1.15128,0.383759 -0.36457,0 -1.07452,-0.537262 h -0.15351 l -0.23025,0.230255 h -0.0767 v -0.153504 h -0.0768 q -0.28781,0.307007 -0.53726,0.307007 l -0.61401,-0.07675 -0.0768,0.07675 q -0.0767,-0.230255 -0.46051,-0.230255 -1.15128,0.01919 -1.15128,0.153504 l -0.84427,-0.230256 -0.46051,0.07675 h -0.0768 q -0.23026,0 -0.30701,-0.997772 h -0.0768 q 0.0768,-1.30478 0.84427,-1.30478 l 0.69077,-0.153503 q 0,0.153503 0.23025,0.153503 l 0.61401,-0.07675 v 0.07675 q 0.70996,-0.09594 0.99778,-0.307006 0.74833,0.153503 1.07452,0.46051 l 0.30701,-0.07675 0.23025,0.07675 0.61402,-0.07675 0.0768,0.07675 0.38376,-0.07675 h 0.23025 l 1.07453,0.07675 0.0768,-0.07675 h 0.0768 l 0.46051,0.153504 1.38153,-0.230256 h 0.23026 l 0.61401,0.153504 h 0.38376 q 0.55645,0 1.38153,-0.230255 l 0.23026,0.07675 1.07452,-0.07675 h 0.30701 l 1.22802,0.307007 q 1.36235,-0.383759 1.84205,-0.383759 0,0.230255 0.307,0.230255 l 0.46051,-0.07675 0.61402,0.07675 0.0768,-0.07675 0.0768,0.07675 h 0.0768 q 1.40072,0 2.99332,-0.307007 l 0.84427,0.307007 0.99777,-0.153503 0.61401,0.07675 0.38376,-0.134315 z m -0.0576,35.229042 -0.53726,0.153503 -0.23026,-0.07675 -0.53726,0.153504 -0.69077,-0.230255 h -1.22802 l -0.46051,-0.07675 -1.07453,0.153503 -1.30478,-0.307006 -1.22802,0.153503 -0.53727,-0.07675 -0.307,0.07675 -0.38376,-0.07675 -0.38376,0.230255 -0.38376,-0.230255 q -0.88264,0.07675 -1.15128,0.307007 l -1.15127,-0.153503 -0.69077,0.153503 -0.23025,-0.230255 h -0.23026 l -0.23025,0.230255 -0.30701,-0.07675 -0.46051,0.07675 -0.99777,-0.230255 v 0.07675 l -1.22803,-0.383759 -1.61179,0.46051 -2.14904,-0.230255 q -0.0768,0.230255 -0.46051,0.230255 h -0.30701 q -0.40295,0 -0.69077,-0.230255 l -1.61178,0.230255 q -1.07453,0 -1.07453,-0.537262 l 0.0768,-0.307007 q 0,-0.652389 -0.38375,-1.228027 0.23025,-0.614014 1.07452,-0.614014 l 1.15128,0.307007 h 0.307 l 1.38153,0.153503 0.84427,-0.153503 0.46051,0.07675 2.30255,-0.383759 h 0.38376 q 0.21107,0.307007 2.2258,0.307007 h 0.92102 l 0.69077,-0.07675 q 1.07452,0.115128 1.07452,0.230255 l 1.53504,-0.153503 0.53726,0.153503 q 0.36457,-0.230255 1.38153,-0.230255 h 0.0768 l 0.76752,0.230255 h 0.61401 l 0.99778,-0.307006 h 0.92102 l 0.307,0.07675 0.0768,-0.07675 1.15127,0.07675 1.91879,-0.230255 1.07453,0.211067 z"
         style="font-style:normal;font-variant:normal;font-weight:normal;font-stretch:normal;font-size:39.29688263px;font-family:'Top Secret';-inkscape-font-specification:'Top Secret';fill:#ffffff"
         id="path637" />
      <path
         d="m 293.53882,35.622984 q 1.72691,0.345383 1.72691,0.690766 v 0.518074 q 0,1.304779 -2.07229,1.918793 l -0.70996,2.091484 q 0.99778,2.609559 2.09149,2.609559 0.13431,0.498886 3.66489,1.381531 2.68631,2.436867 4.16378,2.436867 0,0.307007 1.74611,1.746102 V 50.225 q 0.51807,0 0.51807,0.345382 l -0.17269,0.709954 q 0.69076,0.940208 0.69076,3.127633 -0.40294,0 -0.69076,3.127632 -1.76529,1.880418 -3.30033,4.355661 -3.95271,1.208839 -5.3918,1.208839 h -0.1727 q -0.36457,0 -0.53726,-1.036148 0.30701,-1.746102 1.57341,-1.746102 1.72692,0 1.9188,-1.57341 v -1.554222 q -0.82509,-3.300325 -4.35566,-3.300325 -0.1727,-0.55645 -2.95495,-1.400719 0,-0.518074 -2.78225,-1.554222 -0.9402,-2.436867 -1.38153,-2.436867 v -0.882645 l -1.40072,-1.899605 0.86346,-1.746102 -0.51807,-1.746102 0.51807,-0.172691 v -0.863457 q 2.30255,-3.664895 3.83759,-4.35566 l 0.17269,0.191879 h 0.17269 q 0.51807,0 2.78225,-1.400719 z m 10.09285,0 h 0.17269 q 0.17269,1.20884 0.51808,1.20884 l -0.17269,0.882645 0.17269,1.036148 -0.51808,1.918793 v 0.172691 l 0.69077,1.918793 v 0.518075 q 0,0.825081 -1.05534,1.726913 h -0.86345 v -1.726913 q -2.0723,-3.3387 -2.60956,-3.664895 -2.89738,-1.419907 -3.30033,-1.899605 v -0.345383 q 0,-1.400719 0.69077,-1.400719 3.39626,0.479698 4.01028,1.055336 h 0.69076 q 0,-1.132088 1.57341,-1.400719 z m -16.88538,17.038883 h 0.53726 q 0.69077,0.191879 1.38154,1.918793 v 0.172691 l -0.1727,0.863457 q 1.13209,0.959397 1.9188,3.664895 v 0.172691 h 0.86345 l 2.78225,2.072297 v 0.882645 q 0,0.518074 -1.91879,0.518074 -0.0959,-0.422135 -1.20884,-0.863457 l -0.17269,0.172691 h -0.17269 q -1.05534,-0.422134 -1.05534,-0.709953 -1.15127,0 -2.07229,1.400719 h -0.53727 l -0.51807,-0.863457 0.17269,-0.882645 -0.34538,-0.345383 v -1.208839 l -0.34538,-1.055336 0.34538,-1.381531 v -1.228028 l -0.17269,-0.690766 q 0.23025,-2.609558 0.69076,-2.609558 z m 20.62703,-19.725193 -0.6332,0.05756 -0.23026,-0.07675 -0.23025,0.07675 -0.30701,-0.07675 h -0.0768 l -0.0768,0.07675 -0.53727,-0.07675 -0.92102,0.153503 -1.22802,-0.153503 -1.15128,0.307007 -2.3793,-0.383759 q -0.42214,0 -0.84427,0.230255 -0.4797,0 -0.92102,-0.230255 l -1.22803,0.230255 -1.76529,-0.153503 v 0.07675 h -0.1535 l -0.23026,-0.153504 -0.61401,0.153504 h -0.38376 l -0.46051,-0.153504 -1.30478,0.153504 -1.07453,-0.230256 -0.61401,0.07675 -0.84427,-0.07675 -0.92102,0.230256 -0.30701,-0.07675 -2.45605,0.211067 v -2.417679 l 0.0768,-0.01919 h 0.0768 l 0.15351,0.153503 q 1.03614,0 1.45828,-0.383758 l 0.30701,0.07675 0.38375,-0.07675 q 0,0.153503 0.99778,0.230255 l 0.23025,-0.07675 0.99777,0.230255 0.61402,-0.230255 h 0.61401 l 0.30701,-0.07675 q 1.15127,0.09594 1.15127,0.307007 l 1.61179,-0.230255 1.38153,0.07675 1.22803,-0.153504 1.07452,0.230256 h 1.61179 q 0.13432,-0.134316 0.92102,-0.230256 l 0.46051,0.07675 0.46051,-0.153503 0.23026,0.07675 0.46051,-0.153503 q 0,0.383759 1.07452,0.46051 l 1.30478,-0.307007 h 0.61401 l 0.69077,0.07675 h 0.0768 l 0.0768,-0.07675 0.84427,0.07675 h 0.38376 l 0.0192,0.01919 z m 0,34.96041 q -1.13209,0.03838 -2.41768,0.287819 l -0.84427,-0.307007 -0.99777,0.153504 -0.61402,-0.07675 -0.46051,0.153503 h -0.307 q -0.36457,0 -0.76752,-0.230255 l -0.69077,0.07675 q 0,-0.09594 -0.76751,-0.307007 -0.40295,0.09594 -0.61402,0.383759 l -0.307,0.07675 -0.53727,-0.07675 -0.0768,0.07675 -2.76306,-0.230255 -0.30701,0.07675 -0.92102,-0.230255 -0.84427,0.07675 -0.61401,-0.07675 -1.07452,0.230255 -1.30478,-0.153504 -0.46051,0.153504 h -0.38376 l -0.61402,-0.153504 -0.23025,0.153504 h -0.15351 v -0.07675 l -1.76528,0.153504 -1.05534,-0.19188 v -2.206612 l 0.59482,-0.134315 1.22803,0.153503 1.38153,-0.07675 1.61179,0.230256 q 0,-0.211068 1.15128,-0.307007 l 0.307,0.07675 h 0.61402 l 0.61401,0.230256 0.99777,-0.230256 0.23026,0.07675 q 0.99777,-0.07675 0.99777,-0.230255 l 0.38376,0.07675 0.30701,-0.07675 q 0.42213,0.383759 1.45828,0.383759 l 0.1535,-0.153504 h 0.0768 l 0.30701,0.07675 0.30701,-0.153504 0.61401,0.153504 1.22803,-0.230255 0.53726,0.307007 0.46051,-0.153504 0.0768,0.07675 h 0.0768 l 0.76752,-0.07675 0.69077,0.230255 q 0.46051,-0.307007 1.38153,-0.307007 l 0.69076,0.153504 q 0.53727,0 0.84427,-0.153504 l 0.84427,0.07675 h 0.69077 l 0.0768,-0.07675 0.19188,0.03838 z"
         style="font-style:normal;font-variant:normal;font-weight:normal;font-stretch:normal;font-size:39.29688263px;font-family:'Top Secret';-inkscape-font-specification:'Top Secret';fill:#ffffff"
         id="path639" />
      <path
         d="m 307.96815,30.74925 q 0.32619,-0.249443 1.03615,-0.287819 v 0.07675 q 0.99777,0.07675 0.99777,0.307007 v 0.07675 l -0.0768,0.46051 0.23025,0.844269 q -0.13431,0 -0.1535,1.151276 0,0.383759 0.23025,0.460511 l -0.0768,0.07675 0.0768,0.614014 q 0,0.230255 -0.307,0.537262 v 0.07675 h 0.1535 v 0.07675 l -0.23026,0.230255 v 0.153503 q 0.53727,0.690766 0.53727,1.074524 -0.38376,0.786706 -0.38376,1.151276 l 0.1535,1.30478 -0.1535,0.537262 v 1.074524 l 0.30701,1.458282 V 42.4347 q 0,0.287819 -0.53727,1.074524 0.23026,0.614014 0.23026,1.611786 l -0.0768,1.535034 0.23025,1.228028 -0.23025,0.46051 0.0768,0.230256 -0.0768,0.307006 0.1535,0.614014 -0.0768,0.07675 v 0.690765 l 0.0768,0.844269 q -0.1535,0.307007 -0.1535,0.844269 l 0.1535,0.690766 q 0,0.921021 -0.30701,1.381531 l 0.23026,0.690765 -0.0768,0.767518 v 0.07675 l 0.0768,0.07675 -0.15351,0.460511 0.30701,0.537262 -0.23025,1.228027 0.1535,0.614014 -0.1535,0.307007 0.0768,0.307007 v 0.07675 l -0.15351,0.153504 q 0,1.036148 0.38376,1.458283 l -0.0768,0.307007 0.0768,0.383758 q -0.1535,0 -0.23025,0.997773 l 0.0768,0.230255 -0.23026,0.997772 0.23026,0.614014 v 0.614014 l 0.0768,0.307007 q -0.0959,1.151276 -0.30701,1.151276 l 0.21107,1.47747 -1.34315,0.07675 v 0.191879 q -0.53727,0.05756 -1.4391,0.09594 l -1.30478,-0.307007 h -0.307 l -0.0768,0.07675 -0.0768,-0.07675 -0.0384,-2.12986 0.65239,-0.09594 1.07452,0.307007 0.57564,-0.115128 -0.0768,-0.652389 0.23025,-1.074524 -0.0768,-0.614014 0.0768,-0.844269 -0.23025,-0.921021 0.0768,-0.307007 -0.23026,-2.763062 0.0768,-0.07675 -0.0768,-0.537262 0.0768,-0.307007 q 0.28782,-0.211067 0.38376,-0.614013 -0.21106,-0.767518 -0.307,-0.767518 l 0.0768,-0.690765 q -0.23026,-0.402947 -0.23026,-0.767517 v -0.307007 l 0.15351,-0.460511 -0.0768,-0.614013 0.15351,-0.997773 -0.30701,-0.844269 q 0.30701,-1.611786 0.30701,-2.993317 v -0.07675 l -0.0768,-0.07675 0.0768,-0.07675 -0.0768,-0.614014 0.0768,-0.46051 q 0,-0.307007 -0.23026,-0.307007 0,-0.479698 0.38376,-1.842042 l -0.30701,-1.228027 v -0.307007 l 0.0768,-1.074524 -0.0768,-0.230255 q 0.23026,-0.825081 0.23026,-1.381531 V 40.66941 l -0.1535,-0.614014 v -0.230255 l 0.23025,-1.381531 -0.1535,-0.46051 v -0.07675 l 0.0768,-0.07675 -0.0768,-1.074524 v -0.230255 l 0.0768,-0.383759 -0.0768,-0.07675 0.0768,-0.614014 -0.0768,-0.230255 0.0768,-0.307007 q -0.30701,-0.326195 -0.46051,-1.074524 0.19188,-0.249444 0.28782,-0.825081 -0.78671,-0.05756 -0.88265,-0.172692 h -0.0768 l -0.0768,0.07675 -0.30701,-0.153504 q 0,0.172692 -0.86345,0.287819 v -2.436867 h 0.0192 l 1.45829,0.07675 0.61401,-0.07675 q 0,0.09594 0.40295,0.134316 z"
         style="font-style:normal;font-variant:normal;font-weight:normal;font-stretch:normal;font-size:39.29688263px;font-family:'Top Secret';-inkscape-font-specification:'Top Secret';fill:#ffffff"
         id="path641" />
    </g>
  </g>
</svg>
