<?xml version="1.0" encoding="UTF-8" standalone="no"?>
<svg
   version="1.1"
   viewBox="0 0 500 200"
   id="svg235"
   sodipodi:docname="archimedes-mono.svg"
   width="500"
   height="200"
   inkscape:version="1.2.2 (b0a8486541, 2022-12-01)"
   xmlns:inkscape="http://www.inkscape.org/namespaces/inkscape"
   xmlns:sodipodi="http://sodipodi.sourceforge.net/DTD/sodipodi-0.dtd"
   xmlns="http://www.w3.org/2000/svg"
   xmlns:svg="http://www.w3.org/2000/svg">
  <defs
     id="defs239" />
  <sodipodi:namedview
     id="namedview237"
     pagecolor="#505050"
     bordercolor="#ffffff"
     borderopacity="1"
     inkscape:showpageshadow="0"
     inkscape:pageopacity="0"
     inkscape:pagecheckerboard="1"
     inkscape:deskcolor="#505050"
     showgrid="false"
     inkscape:zoom="1.5827407"
     inkscape:cx="377.82563"
     inkscape:cy="181.64694"
     inkscape:window-width="1670"
     inkscape:window-height="910"
     inkscape:window-x="0"
     inkscape:window-y="0"
     inkscape:window-maximized="1"
     inkscape:current-layer="svg235" />
  <path
     fill="#000000"
     d="m 18.613875,149.77828 v -0.58891 L 104.69533,38.97872 a 0.7380879,0.87157188 21.9 0 1 0.62818,-0.329783 l 8.40163,-0.109929 a 0.6988279,0.6752719 89.7 0 1 0.68312,0.698828 V 149.22078 a 0.80090389,0.80090389 0 0 1 -0.8009,0.80091 h -6.90191 a 0.54178793,0.54178793 0 0 1 -0.54179,-0.54179 l -0.0471,-48.87869 a 0.78519989,0.76949589 18.4 0 0 -0.32193,-0.628166 C 94.801829,92.042526 82.890338,92.152458 70.531293,96.989291 a 4.0673354,4.0594834 8.2 0 0 -1.719589,1.287725 L 28.719398,149.56627 a 0.87157188,0.90297988 17.3 0 1 -0.62816,0.3455 q -4.742607,0.38474 -9.477363,-0.13349 z M 79.678871,86.098571 c 8.794239,-1.405514 17.651291,0.09418 25.573969,4.169411 a 0.65956791,0.66741991 13.5 0 0 0.95793,-0.596753 V 51.738218 q 0,-1.641068 -1.00506,-0.345488 L 79.058563,85.030691 q -1.036464,1.326988 0.620308,1.06788 z"
     id="path213"
     style="stroke-width:0.785201;fill:#ffffff" />
  <path
     fill="#000000"
     d="m 219.43661,98.394795 c -5.01743,0.793058 -8.98269,4.412825 -12.09993,8.197495 q -1.00507,1.22491 -1.24061,2.88953 -1.87664,13.08143 -3.6826,25.77811 a 1.1935038,1.1935038 0 0 1 -1.1778,1.02076 h -6.42293 a 1.1935038,1.1935038 0 0 1 -1.18566,-1.3584 l 9.38314,-66.844063 a 0.47897193,0.43971194 2.6 0 1 0.46327,-0.384744 l 8.0326,-0.149185 a 0.34548794,0.31407996 3.2 0 1 0.35333,0.361182 l -4.31859,29.994638 q -0.0864,0.612456 0.43186,0.282678 c 3.47843,-2.222121 5.44928,-4.789723 9.54803,-6.320863 7.61644,-2.842423 13.41121,-0.133481 15.23288,8.299557 q 0.41615,1.95515 0.20415,3.94171 -0.87944,8.16608 -2.37131,17.69054 c -0.53393,3.42348 -1.1621,9.34389 -2.19071,13.96087 a 0.49467594,0.51823193 5.8 0 1 -0.47897,0.4083 l -6.95686,0.102 q -1.51544,0.0236 -1.21706,-1.53898 2.04151,-10.7651 3.37636,-21.28678 c 0.18059,-1.43691 0.0236,-4.3343 0.47897,-6.34441 0.6203,-2.73249 0.65171,-5.09596 -1.07573,-7.435844 q -1.16209,-1.570403 -3.08583,-1.264175 z"
     id="path215"
     style="stroke-width:0.785201;fill:#ffffff" />
  <path
     fill="#000000"
     d="m 394.8267,71.156208 q 0.1649,-1.091429 0.0943,-2.190704 c -0.14134,-2.096486 1.44477,-1.248471 2.47337,-1.224911 q 2.77962,0.06285 6.2502,0.02357 a 0.40045195,0.40045195 0 0 1 0.40046,0.455413 q -2.09649,15.476292 -4.24794,30.261602 c -1.68033,11.503182 -3.34494,24.828022 -5.40217,37.210622 a 0.48682393,0.49467594 2.9 0 1 -0.45542,0.41616 c -12.16274,0.72238 -26.55546,1.87663 -32.37379,-11.58955 q -2.40272,-5.53565 -1.38981,-11.40111 3.22717,-18.74272 21.93849,-21.938481 2.63827,-0.447567 3.77682,-0.43971 l 3.87103,0.03143 a 1.3740998,0.7616439 50.7 0 1 0.69097,0.274821 c 0.88728,0.643862 1.46047,0.157043 1.59397,-0.824464 q 1.33483,-9.681513 2.7796,-19.064654 z m -21.74217,33.669372 c -3.8946,4.94677 -5.06456,12.64957 -1.94731,18.0439 2.45769,4.25578 6.47005,4.86823 11.18124,5.7241 q 1.88448,0.34549 3.74541,-0.27482 a 0.6988279,0.6752719 86.7 0 0 0.44757,-0.51823 c 1.91588,-9.08476 2.44197,-16.23008 4.27933,-28.479195 a 0.34548794,0.35333995 5.3 0 0 -0.32978,-0.400457 c -5.40218,-0.109923 -13.78811,1.334842 -17.37646,5.904702 z"
     id="path217"
     style="stroke-width:0.785201;fill:#ffffff" />
  <circle
     fill="#000000"
     cx="247.64883"
     cy="81.191063"
     r="5.5984755"
     id="circle219"
     style="stroke-width:0.785201;fill:#ffffff" />
  <path
     fill="#000000"
     d="m 140.53972,98.065007 c 3.45488,-5.198017 10.30182,-9.422394 16.22223,-6.16381 a 1.3819518,1.3819518 0 0 1 0.69097,1.429064 q -0.65171,4.059478 -0.44756,7.812739 0.14133,2.52049 -1.52329,1.13069 c -6.34442,-5.307959 -12.08423,-0.79306 -15.60192,4.71119 q -0.32193,0.50253 -1.3741,3.1408 l -0.18059,0.44757 q -0.25126,0.62816 -0.25913,0.72238 l -3.30568,24.05067 a 1.0992798,1.0914278 4 0 1 -1.08358,0.93439 c -2.11219,0 -4.16155,-0.0393 -6.21093,0.0708 -3.1408,0.1806 -1.52328,-2.67753 -1.31913,-4.1223 q 2.78746,-20.04615 5.7241,-40.076598 a 0.44756394,0.47111994 4.7 0 1 0.44756,-0.400457 l 8.25245,0.09428 a 0.29052395,0.36119195 4.7 0 1 0.27482,0.408304 l -0.38474,2.748194 q -0.0708,0.51038 -0.1806,0.738091 -0.54179,1.162099 -0.11778,2.292781 0.14134,0.384754 0.3769,0.03143 z"
     id="path221"
     style="stroke-width:0.785201;fill:#ffffff" />
  <path
     fill="#000000"
     d="m 174.91577,128.57788 c 4.05163,1.11498 10.43531,-2.25353 13.73315,-4.60912 1.73529,-1.24061 0.59675,0.64386 0.6046,1.09928 q 0.0236,1.42121 -0.27482,2.79531 c -0.64386,3.01517 0.24342,5.48854 -3.21931,6.94902 -5.03315,2.12004 -10.45101,3.00732 -15.54696,1.34269 -10.14479,-3.32926 -14.50264,-13.19135 -12.81446,-23.62666 2.77174,-17.164478 17.49425,-24.011423 33.48876,-21.302482 a 1.2092078,1.2641718 8.8 0 1 0.98936,1.41336 l -0.9501,6.587827 a 0.19629997,0.21200397 8 0 1 -0.21985,0.180603 q -5.08025,-0.620313 -8.79423,-0.266975 c -10.22331,0.981507 -16.43424,10.199747 -15.28785,20.258157 q 0.80876,7.11392 8.29171,9.17899 z"
     id="path223"
     style="stroke-width:0.785201;fill:#ffffff" />
  <path
     fill="#000000"
     d="m 288.30648,98.386948 a 0.83231188,0.83231188 0 0 0 1.35056,0.196296 c 4.98601,-5.40218 15.59406,-12.382598 21.85996,-4.452079 4.49919,5.708397 2.1279,14.353445 1.31913,20.517275 q -1.33484,10.26255 -2.95236,21.01979 a 0.7223839,0.7223839 0 0 1 -0.71453,0.61246 q -2.52048,0 -5.17446,0 c -1.71959,0 -3.16436,0.48683 -2.70893,-2.1593 q 0.58889,-3.40777 2.74819,-20.21889 c 0.54179,-4.19298 3.50984,-16.740464 -4.87609,-15.240741 -3.71399,0.659576 -7.4751,5.512111 -10.10553,8.134681 a 1.1777999,1.1935038 71.2 0 0 -0.33763,0.67527 l -3.9103,28.16511 a 0.50252793,0.52608393 0.7 0 1 -0.4397,0.44757 q -4.06734,0.52609 -7.93052,-0.0157 a 0.57319592,0.57319592 0 0 1 -0.48683,-0.63602 q 1.48403,-11.55814 3.21932,-22.93568 c 0.7695,-5.08025 2.59901,-15.664741 -5.71625,-13.654628 q -2.06508,0.494677 -3.55695,1.994408 l -5.86546,5.86544 a 1.7745518,1.7824038 71.7 0 0 -0.50252,0.9972 q -1.80596,12.7281 -3.50985,24.62388 c -0.30623,2.08077 0.46328,4.35 -2.90523,4.13014 q -2.74035,-0.17274 -5.81834,-0.17274 a 0.64386391,0.64386391 0 0 1 -0.63601,-0.73023 l 6.06174,-43.201707 a 0.50252793,0.51037993 0.6 0 1 0.43972,-0.431853 q 3.90245,-0.478973 7.8206,-0.04715 a 0.46326794,0.46326794 0 0 1 0.4083,0.439721 q 0.0863,2.371296 -0.47897,4.279332 -0.68313,2.253528 0.98934,0.588907 c 4.88394,-4.883942 14.21997,-9.987751 20.03045,-3.274287 1.12284,1.295581 1.60966,2.952356 2.37915,4.483496 z"
     id="path225"
     style="stroke-width:0.785201;fill:#ffffff" />
  <path
     fill="#000000"
     d="m 328.28101,114.71125 c -0.61244,1.7353 0.0393,3.67474 0.14133,4.9389 1.12284,13.43478 17.67486,7.96979 23.98786,3.08584 q 1.41336,-1.09143 1.15425,0.65172 l -1.21705,8.33882 a 0.7930519,0.87157188 76.8 0 1 -0.40831,0.5889 q -5.73981,3.58052 -12.42186,4.5149 c -0.94224,0.13348 -1.82952,0.84016 -3.02303,0.11778 a 1.5939558,1.1228359 52.8 0 0 -0.71452,-0.2277 q -3.69045,-0.0393 -6.57214,-1.66464 c -14.29062,-8.07185 -13.0186,-28.07874 -2.94449,-38.576858 q 7.56933,-7.875563 18.20879,-5.150918 c 9.6501,2.473383 11.99785,13.929446 11.05561,22.464576 a 0.55749191,0.56534392 3.1 0 1 -0.55749,0.50252 l -26.15501,0.0471 a 0.57319592,0.55749191 9.7 0 0 -0.53394,0.36905 z m 18.02034,-8.29171 c -1.92374,-11.793698 -12.35905,-7.914813 -15.65688,-0.055 a 0.48682393,0.47897193 11.4 0 0 0.44756,0.66743 h 14.68323 a 0.53393592,0.53393592 0 0 0 0.52609,-0.61246 z"
     id="path227"
     style="stroke-width:0.785201;fill:#ffffff" />
  <path
     fill="#000000"
     d="m 438.13834,100.43631 c 1.26416,3.74541 1.93158,8.12683 1.93158,12.43758 a 1.3426918,1.3740998 0.2 0 1 -1.35054,1.3741 l -25.6996,-0.0943 a 0.47111994,0.47111994 0 0 0 -0.46326,0.38475 q -0.5418,2.96806 0.42401,6.62709 c 3.16436,11.96644 18.40508,6.12456 24.60031,0.82446 q 0.52609,-0.45541 0.44756,0.24341 c -0.27482,2.50478 -0.7695,4.68764 -0.97365,7.59289 -0.2434,3.43132 -6.79983,5.66129 -9.85426,6.41508 q -4.84468,1.20921 -8.86491,0.43971 c -11.47961,-2.1907 -16.7326,-13.41121 -15.17006,-24.54535 0.77736,-5.51995 2.48124,-9.6344 5.76338,-14.007963 7.27879,-9.705073 24.72594,-11.016358 29.20944,2.308483 z m -22.49599,4.23224 -1.03646,2.00225 a 0.29052395,0.28267197 13.1 0 0 0.26698,0.41616 l 15.43702,-0.055 a 0.32193195,0.32193195 0 0 0 0.31408,-0.39261 c -1.42907,-6.38367 -6.35227,-10.882869 -12.35119,-5.21372 q -1.86878,1.76669 -2.63043,3.24288 z"
     id="path229"
     style="stroke-width:0.785201;fill:#ffffff" />
  <path
     fill="#000000"
     d="m 450.05767,110.00004 c -5.88115,-7.37302 -2.12004,-16.952458 6.89406,-19.064646 5.95965,-1.397658 12.46897,1.122834 17.25869,4.326452 a 1.0600199,1.0521679 25.6 0 1 0.424,1.193506 q -0.73809,2.418416 -0.51038,3.713998 a 0.95794387,0.84801589 60 0 1 -0.14134,0.69097 q -0.87157,1.20921 -0.54178,2.84242 0.29052,1.42122 -0.95009,0.67529 -1.78241,-1.06003 -3.65118,-2.34776 c -2.8974,-1.9944 -11.83297,-5.771213 -11.95859,0.0393 -0.17275,8.55867 16.87394,11.36184 15.02872,24.01141 q -1.30344,8.93557 -10.59235,10.83576 c -5.41003,1.10713 -12.82231,-2.07293 -17.80833,-5.54351 a 0.83231188,0.77734789 22.2 0 1 -0.35335,-0.76165 l 1.19351,-9.0455 q 0.0942,-0.69098 0.5732,-0.16489 c 3.02302,3.32924 12.0057,9.94848 16.51275,5.95966 3.52555,-3.12509 -1.38195,-8.10326 -3.52555,-9.72076 q -4.41282,-3.3214 -7.85199,-7.64001 z"
     id="path231"
     style="stroke-width:0.785201;fill:#ffffff" />
  <path
     fill="#000000"
     d="m 241.27301,94.798577 q 0.1806,-1.13854 0.12564,-2.677525 a 0.39259995,0.39259995 0 0 1 0.3926,-0.400458 h 8.32311 a 0.51037993,0.50252793 3.9 0 1 0.50253,0.573203 l -6.25019,43.358733 a 0.51823193,0.50252793 0.5 0 1 -0.44756,0.43186 q -3.82393,0.44757 -7.6557,0.0864 a 0.49467594,0.50252793 89.5 0 1 -0.44757,-0.43187 c -0.29052,-2.37915 0.45541,-4.83682 0.68313,-6.65063 q 2.1593,-17.17233 4.77401,-34.289691 z"
     id="path233"
     style="stroke-width:0.785201;fill:#ffffff" />
</svg>
