<?xml version="1.0" encoding="UTF-8" standalone="no"?>
<svg
   xmlns:dc="http://purl.org/dc/elements/1.1/"
   xmlns:cc="http://creativecommons.org/ns#"
   xmlns:rdf="http://www.w3.org/1999/02/22-rdf-syntax-ns#"
   xmlns:svg="http://www.w3.org/2000/svg"
   xmlns="http://www.w3.org/2000/svg"
   xmlns:sodipodi="http://sodipodi.sourceforge.net/DTD/sodipodi-0.dtd"
   xmlns:inkscape="http://www.inkscape.org/namespaces/inkscape"
   width="500"
   height="200"
   viewBox="0 0 500 200"
   version="1.1"
   id="svg54"
   sodipodi:docname="atari800.svg"
   style="fill:none"
   inkscape:version="0.92.5 (2060ec1f9f, 2020-04-08)">
  <metadata
     id="metadata60">
    <rdf:RDF>
      <cc:Work
         rdf:about="">
        <dc:format>image/svg+xml</dc:format>
        <dc:type
           rdf:resource="http://purl.org/dc/dcmitype/StillImage" />
        <dc:title></dc:title>
      </cc:Work>
    </rdf:RDF>
  </metadata>
  <defs
     id="defs58" />
  <sodipodi:namedview
     pagecolor="#ffffff"
     bordercolor="#666666"
     borderopacity="1"
     objecttolerance="10"
     gridtolerance="10"
     guidetolerance="10"
     inkscape:pageopacity="0"
     inkscape:pageshadow="2"
     inkscape:window-width="1366"
     inkscape:window-height="740"
     id="namedview56"
     showgrid="false"
     inkscape:pagecheckerboard="true"
     inkscape:zoom="1.4823921"
     inkscape:cx="197"
     inkscape:cy="46"
     inkscape:window-x="0"
     inkscape:window-y="0"
     inkscape:window-maximized="1"
     inkscape:current-layer="svg54" />
  <path
     d="m 345.315,61.223104 c -3.28015,0 -5.93838,2.658478 -5.93838,5.937878 0,3.27927 2.65823,5.93775 5.93838,5.93775 3.2789,0 5.93713,-2.65848 5.93713,-5.93775 0,-3.2794 -2.65823,-5.937878 -5.93713,-5.937878 z m -14.10239,5.937878 c 0,-7.788505 6.31329,-14.102322 14.10239,-14.102322 7.78786,0 14.1024,6.313817 14.1024,14.102322 0,7.78848 -6.31454,14.10227 -14.1024,14.10227 -7.7891,0 -14.10239,-6.31379 -14.10239,-14.10227 z"
     id="path30"
     inkscape:connector-curvature="0"
     style="clip-rule:evenodd;fill:#ffffff;fill-rule:evenodd;stroke-width:1.25388086" />
  <path
     d="m 345.315,82.005552 c -4.91897,0 -8.90631,3.98772 -8.90631,8.90669 0,4.9191 3.98734,8.90669 8.90631,8.90669 4.91898,0 8.90632,-3.98759 8.90632,-8.90669 0,-4.91897 -3.98734,-8.90669 -8.90632,-8.90669 z m -17.07158,8.90669 c 0,-9.42818 7.64365,-17.07121 17.07158,-17.07121 9.42793,0 17.07159,7.64303 17.07159,17.07121 0,9.428178 -7.64366,17.071208 -17.07159,17.071208 -9.42793,0 -17.07158,-7.64303 -17.07158,-17.071208 z"
     id="path32"
     inkscape:connector-curvature="0"
     style="clip-rule:evenodd;fill:#ffffff;fill-rule:evenodd;stroke-width:1.25388086" />
  <path
     d="m 392.07473,61.223104 c -10.65799,0 -19.29723,8.639988 -19.29723,19.297978 0,10.65786 8.63924,19.29785 19.29723,19.29785 10.65798,0 19.29848,-8.63999 19.29848,-19.29785 0,-10.65799 -8.6405,-19.297978 -19.29848,-19.297978 z m -27.4625,19.297978 c 0,-15.16707 12.29555,-27.462422 27.4625,-27.462422 15.16694,0 27.46249,12.295352 27.46249,27.462422 0,15.16694 -12.29555,27.462368 -27.46249,27.462368 -15.16695,0 -27.4625,-12.295428 -27.4625,-27.462368 z"
     id="path34"
     inkscape:connector-curvature="0"
     style="clip-rule:evenodd;fill:#ffffff;fill-rule:evenodd;stroke-width:1.25388086" />
  <path
     d="m 449.96891,61.223104 c -10.65799,0 -19.29848,8.639988 -19.29848,19.297978 0,10.65786 8.64049,19.29785 19.29848,19.29785 10.65799,0 19.29723,-8.63999 19.29723,-19.29785 0,-10.65799 -8.63924,-19.297978 -19.29723,-19.297978 z m -27.4625,19.297978 c 0,-15.16707 12.29556,-27.462422 27.4625,-27.462422 15.16694,0 27.4625,12.295352 27.4625,27.462422 0,15.16694 -12.29556,27.462368 -27.4625,27.462368 -15.16694,0 -27.4625,-12.295428 -27.4625,-27.462368 z"
     id="path36"
     inkscape:connector-curvature="0"
     style="clip-rule:evenodd;fill:#ffffff;fill-rule:evenodd;stroke-width:1.25388086" />
  <path
     d="m 478.89218,54.235176 v 8.843547 h 1.54729 v -8.843547 h 3.75788 v -1.547614 h -8.62168 v 1.547614 z m 6.19041,-1.547602 v 10.391149 h 1.76797 v -8.843521 l 2.87515,8.843521 h 1.54729 l 2.65321,-8.843521 v 8.843521 h 1.54729 V 52.687574 h -2.43253 l -2.65196,8.401365 -2.65321,-8.401365 z"
     id="path38"
     inkscape:connector-curvature="0"
     style="clip-rule:evenodd;fill:#ffffff;fill-rule:evenodd;stroke-width:1.25388086" />
  <path
     d="m 478.89218,63.078723 h -0.31347 v 0.31347 h 0.31347 z m 0,-8.843547 h 0.31347 v -0.31347 h -0.31347 z m 1.54729,8.843547 v 0.31347 h 0.31347 v -0.31347 z m 0,-8.843547 v -0.31347 H 480.126 v 0.31347 z m 3.75788,0 v 0.313471 h 0.31347 v -0.313471 z m 0,-1.547614 h 0.31347 v -0.313471 h -0.31347 z m -8.62168,0 v -0.313471 h -0.31347 v 0.313471 z m 0,1.547614 h -0.31347 v 0.313471 h 0.31347 z m 9.50692,8.843547 h -0.31347 v 0.31347 h 0.31347 z m 0,-10.391149 v -0.31347 h -0.31347 v 0.31347 z m 1.76797,10.391149 v 0.31347 h 0.31347 v -0.31347 z m 0,-8.843521 0.29843,-0.09692 -0.6119,0.09692 z m 2.87515,8.843521 -0.29842,0.09692 0.0702,0.216545 h 0.22821 z m 1.54729,0 v 0.31347 h 0.23322 l 0.0665,-0.223316 z m 2.65321,-8.843521 h 0.31347 l -0.6144,-0.09003 z m 0,8.843521 h -0.31347 v 0.31347 h 0.31347 z m 1.54729,0 v 0.31347 h 0.31347 v -0.31347 z m 0,-10.391149 h 0.31347 v -0.31347 h -0.31347 z m -2.43253,0 v -0.31347 h -0.22946 l -0.069,0.219078 z m -2.65196,8.401365 -0.29967,0.09442 0.29967,0.946555 0.29843,-0.946555 z m -2.65321,-8.401365 0.29843,-0.09442 -0.069,-0.219078 h -0.22946 z m -8.53015,10.391149 v -8.843547 h -0.62694 v 8.843547 z m 1.23382,-0.313471 h -1.54729 v 0.626941 h 1.54729 z M 480.126,54.235176 v 8.843547 h 0.62694 v -8.843547 z m 4.07135,-0.31347 h -3.75788 v 0.626941 h 3.75788 z m -0.31347,-1.234144 v 1.547614 h 0.62694 v -1.547614 z m -8.30821,0.31347 h 8.62168 v -0.626941 h -8.62168 z m 0.31347,1.234144 v -1.547614 h -0.62694 v 1.547614 z m 3.00304,-0.31347 h -3.31651 v 0.626941 h 3.31651 z m 6.50388,9.157017 V 52.687574 h -0.62694 v 10.391149 z m 1.4545,-0.313471 h -1.76797 v 0.626941 h 1.76797 z m -0.31347,-8.53005 v 8.843521 h 0.62694 v -8.843521 z m 3.48579,8.746596 -2.87389,-8.843496 -0.5956,0.193787 2.8739,8.843559 z m 1.25012,-0.216546 h -1.54729 v 0.626941 h 1.54729 z m 2.35228,-8.620129 -2.65321,8.843571 0.60061,0.180183 2.65321,-8.843609 z m 0.6144,8.9336 v -8.843521 h -0.62694 v 8.843521 z m 1.23382,-0.313471 h -1.54729 v 0.626941 h 1.54729 z m -0.31347,-10.077678 v 10.391149 h 0.62694 V 52.687574 Z m -2.11906,0.31347 h 2.43253 v -0.62694 h -2.43253 z m -2.35353,8.182312 2.65321,-8.40139 -0.5981,-0.188784 -2.65321,8.40134 z m -3.25132,-8.40139 2.65322,8.40139 0.5981,-0.188834 -2.65321,-8.40134 z m -2.35353,0.219078 h 2.65321 v -0.62694 h -2.65321 z"
     id="path40"
     inkscape:connector-curvature="0"
     style="fill:#ffffff;stroke-width:1.25388086" />
  <path
     d="m 37.384948,59.864161 -0.07273,0.0825 c -1.122223,1.272601 -1.644464,2.969855 -2.374348,5.682621 l -0.01179,0.0439 c -0.228081,0.84737 -0.484625,1.80132 -0.794333,2.74662 -8.854405,30.43533 -17.679344,60.889958 -26.4956425,91.336818 0.4651522,-1.3e-4 0.9304297,-2.5e-4 1.3958327,-3.8e-4 h 0.00861 c 2.6850478,-8.8e-4 5.3747848,-0.001 8.0662528,0.004 2.426008,-8.38871 4.86418,-16.77717 7.32956,-25.15987 l 0.783926,-2.6655 2.77835,0.001 c 3.85468,0.003 7.708859,8.7e-4 11.564793,-2.5e-4 h 0.0056 c 7.282539,-0.003 14.571098,-0.005 21.864421,0.015 l 2.782236,0.008 0.772892,2.67277 c 0.805117,2.78386 1.607726,5.56823 2.409708,8.35084 1.614623,5.60122 3.226988,11.19515 4.858412,16.78057 2.464754,-0.003 4.929382,-0.001 7.390625,-6.3e-4 h 0.003 c 0.725119,2.5e-4 1.449988,6.3e-4 2.174731,8.8e-4 -4.905057,-16.89015 -9.823153,-33.77742 -14.742002,-50.66694 l -0.0063,-0.0217 C 62.674753,93.959332 58.272252,78.842672 53.878779,63.722122 l -0.0018,-0.006 -0.0018,-0.006 c -0.593963,-2.0699 -1.734368,-3.914195 -3.26661,-5.205805 l -0.02596,-0.02194 -0.0257,-0.02244 C 46.92046,55.27744 40.46824,55.918612 37.452532,59.776778 Z m 48.304504,99.897919 c 0.359111,1.23671 0.718098,2.47341 1.077084,3.71024 -1.287736,0.001 -2.575722,0.001 -3.863834,0.001 -1.08561,-1.2e-4 -2.171345,-6.3e-4 -3.256956,-0.001 -3.390368,-0.001 -6.780736,-0.002 -10.16797,0.006 -1.902137,-6.48281 -3.773805,-12.97578 -5.645347,-19.46875 l -0.0015,-0.005 c -0.801606,-2.78111 -1.603337,-5.56234 -2.407326,-8.3427 -7.288182,-0.0194 -14.572477,-0.0173 -21.857149,-0.015 -3.85631,0.001 -7.712746,0.003 -11.569809,2.5e-4 -2.726313,9.27019 -5.4199,18.54928 -8.1017,27.83139 -3.619954,-0.0132 -7.239957,-0.0125 -10.8599238,-0.0113 -0.8245144,2.5e-4 -1.6490288,5e-4 -2.4735432,5e-4 -1.2877106,1.3e-4 -2.5754211,-1.2e-4 -3.8631316,-0.001 0.3580895,-1.2367 0.7161916,-2.4734 1.0743088,-3.71023 8.9217418,-30.81187 17.8525198,-61.633258 26.8136298,-92.435218 0.286512,-0.86718 0.526881,-1.76057 0.767877,-2.65622 0.689384,-2.562054 1.383407,-5.141814 3.17445,-7.172988 4.299181,-5.500286 13.197723,-6.439794 18.472047,-1.8255 2.158556,1.819557 3.668855,4.325902 4.441873,7.019614 4.395353,15.126444 8.79961,30.249244 13.203741,45.371422 5.019159,17.23422 10.038068,34.46743 15.043184,51.7044 z M 44.718646,64.859732 48.266,77.046832 c 2.191784,7.5298 4.376545,15.06099 6.560806,22.59067 l 0.0039,0.0135 c 1.857123,6.401688 3.713869,12.802118 5.574879,19.201798 l 1.380523,4.74745 h -4.944052 c -2.346136,0 -4.692523,0.003 -7.041042,0.005 h -0.0148 c -5.741144,0.005 -11.495078,0.0113 -17.252272,-0.0164 l -4.923237,-0.0234 1.37814,-4.72638 c 1.649731,-5.65839 3.289933,-11.31978 4.931012,-16.98444 l 0.0011,-0.004 c 2.395289,-8.268218 4.792834,-16.543828 7.2211,-24.812048 z M 33.630828,116.17092 c 1.287736,-4.42733 2.570707,-8.85579 3.853552,-13.28424 l 3.76e-4,-0.001 c 1.75581,-6.060758 3.511619,-12.121388 5.279466,-18.178638 0.644369,-2.20808 1.290368,-4.41579 1.938499,-6.62287 0.642865,2.20833 1.284977,4.41679 1.926839,6.62538 1.54591,5.31996 3.089312,10.64068 4.632839,15.961528 l 0.0041,0.014 c 1.498136,5.16436 2.996273,10.32897 4.496792,15.4932 0.359488,1.23708 0.718976,2.47403 1.078714,3.71099 -1.288112,0 -2.576223,6.2e-4 -3.864335,0.001 -1.062163,8.8e-4 -2.124325,0.001 -3.186488,0.003 -4.458925,0.004 -8.918227,0.009 -13.378155,-0.003 -1.287109,-0.004 -2.574218,-0.008 -3.861452,-0.0139 0.360115,-1.23532 0.719853,-2.47077 1.079215,-3.70634 z"
     id="path42"
     inkscape:connector-curvature="0"
     style="clip-rule:evenodd;fill:#ffffff;fill-rule:evenodd;stroke-width:1.25388086" />
  <path
     d="m 149.29582,60.381211 -0.0439,0.05868 c -0.84762,1.129759 -1.27896,2.560061 -1.88834,4.821561 l -3.5836,-0.96712 c 0.57804,-2.140248 1.15734,-4.285638 2.5015,-6.079992 3.00304,-4.355631 8.80976,-6.469523 13.92309,-5.125677 4.67697,1.079253 8.25931,5.110806 9.49313,9.650732 4.8776,16.788087 9.76397,33.574037 14.65034,50.359865 l 0.003,0.009 c 4.52651,15.54749 9.05177,31.09511 13.57075,46.64436 0.35861,1.23495 0.71848,2.4699 1.07709,3.70485 -1.28648,0.009 -2.57422,0.0134 -3.8607,0.0159 -1.90465,0.004 -3.81055,0.003 -5.71519,0.001 -2.57798,-0.002 -5.15596,-0.004 -7.73394,0.006 -0.94417,-3.26448 -1.88458,-6.52996 -2.82499,-9.79569 l -0.003,-0.008 c -1.73161,-6.0086 -3.46196,-12.01795 -5.21489,-18.02216 -4.07386,0.003 -8.14772,0 -12.22158,-0.003 h -0.015 c -7.04556,-0.004 -14.09111,-0.008 -21.13667,0.0113 -1.35795,4.74155 -2.73848,9.47758 -4.11775,14.21349 -1.32033,4.53203 -2.64067,9.06393 -3.9422,13.60009 -2.53911,0.004 -5.07834,0.004 -7.6172,0.003 h -0.0183 c -1.89249,-5e-4 -3.78484,-0.001 -5.67695,3.8e-4 -1.28799,8.8e-4 -2.57585,0.003 -3.86346,0.006 0.35611,-1.23783 0.71246,-2.47567 1.06894,-3.7135 6.71164,-23.3045 13.47633,-46.59697 20.23976,-69.886418 l 10e-4,-0.004 c 2.23065,-7.67852 4.46005,-15.35678 6.6882,-23.03505 0.28087,-0.83508 0.51284,-1.69424 0.7448,-2.55403 l 3.5836,0.96712 -0.0125,0.0459 c -0.21818,0.80725 -0.4677,1.72973 -0.77365,2.6477 -2.21937,7.6513 -4.44124,15.30261 -6.66312,22.95366 l -0.004,0.0132 c -6.66438,22.946648 -13.3285,45.891658 -19.94122,68.847208 1.53726,-6.3e-4 3.07401,-2.5e-4 4.60926,2.5e-4 h 0.0201 c 1.60772,5e-4 3.21382,8.8e-4 4.81941,2.5e-4 1.05201,-3.64691 2.11279,-7.28981 3.17358,-10.92732 v -0.003 c 1.38052,-4.73716 2.75853,-9.46517 4.11398,-14.19719 l 0.76737,-2.6818 2.78989,-0.008 c 7.05308,-0.0188 14.1024,-0.0151 21.1467,-0.0113 h 0.0201 c 4.07386,0.003 8.14396,0.005 12.21531,0.003 l 2.78361,-0.001 0.77992,2.6729 c 1.75418,6.01123 3.48704,12.02647 5.21865,18.03381 l 0.004,0.0164 c 0.68211,2.36657 1.36422,4.73202 2.04633,7.09659 1.65136,-0.003 3.30022,-8.8e-4 4.94531,2.5e-4 h 0.003 c 1.54854,10e-4 3.09332,0.002 4.63559,6.2e-4 -4.41867,-15.20205 -8.84362,-30.40259 -13.26856,-45.60414 l -0.008,-0.0228 C 175.89805,97.349382 171.01168,80.562682 166.13408,63.773462 l -0.009,-0.031 -0.009,-0.0311 c -0.94041,-3.461806 -3.62999,-6.288781 -6.74588,-7.008032 l -0.0552,-0.01254 -0.0539,-0.01429 c -3.62246,-0.951758 -7.82045,0.591468 -9.92447,3.64285 z m -9.34142,63.211549 1.3567,-4.72763 c 2.42752,-8.45968 4.8776,-16.91197 7.32517,-25.358988 l 0.004,-0.0139 c 1.59493,-5.50203 3.18861,-11.00168 4.77603,-16.50296 l 3.57983,-12.40301 3.5535,12.41041 c 2.17172,7.58485 4.36852,15.16632 6.56532,22.75343 l 0.002,0.008 c 1.84446,6.366328 3.68892,12.736668 5.52084,19.109518 l 1.36046,4.73591 h -4.92775 c -2.41874,0 -4.83747,8.7e-4 -7.25621,0.001 h -0.001 c -5.64372,0.003 -11.28995,0.004 -16.93993,-0.005 z m 25.25442,-3.70032 c -1.13226,2.5e-4 -2.26451,6.2e-4 -3.39677,0.001 -4.35849,0.001 -8.71572,0.003 -13.07421,-3.8e-4 -1.28648,-8.7e-4 -2.57296,-0.002 -3.85945,-0.004 0.35485,-1.2367 0.7097,-2.47328 1.0658,-3.70973 2.07768,-7.21771 4.1679,-14.43142 6.25812,-21.645118 v -0.003 l 10e-4,-0.002 c 0.94793,-3.26962 1.89461,-6.53924 2.84129,-9.80924 0.647,-2.23379 1.29275,-4.46758 1.93724,-6.70174 0.63948,2.23504 1.28147,4.46983 1.92597,6.70425 1.54227,5.35658 3.09332,10.7114 4.64437,16.066098 v 0.001 c 1.48585,5.13013 2.9717,10.26001 4.45002,15.39089 0.35736,1.23695 0.71221,2.47391 1.06831,3.71098 -1.28774,0 -2.57422,2.6e-4 -3.86195,6.3e-4 z"
     id="path44"
     inkscape:connector-curvature="0"
     style="clip-rule:evenodd;fill:#ffffff;fill-rule:evenodd;stroke-width:1.25388086" />
  <path
     d="m 108.9285,69.794762 c 4.51385,-0.009 9.02782,-0.008 13.54229,-0.006 3.16016,10e-4 6.32031,0.003 9.48135,-2.5e-4 V 52.9222 H 69.412574 c -0.0034,3.212593 -0.0029,6.424221 -0.0024,9.636538 3.76e-4,2.409334 7.52e-4,4.819164 -5.02e-4,7.230004 0.755714,6.3e-4 1.511303,0.001 2.266892,0.001 0.48149,1.3e-4 0.962855,2.5e-4 1.44422,2.5e-4 1.92433,1.3e-4 3.848285,-5e-4 5.772114,-0.001 4.514348,-10e-4 9.027692,-0.003 13.543167,0.006 1.26e-4,0 -1.25e-4,0 0,0 -0.0064,22.30391 -0.0048,44.609318 -0.0035,66.912968 5.02e-4,8.92274 0.001,17.84523 0.001,26.76735 h 16.491915 c 0.005,-23.41823 0.004,-46.84135 0.003,-70.261968 -2.5e-4,-7.80653 -3.8e-4,-15.61269 -3.8e-4,-23.41835 z m -3.71349,89.969078 c 0.004,-22.1814 0.003,-44.36682 0.003,-66.550348 -2.5e-4,-7.80666 -3.8e-4,-15.61295 -3.8e-4,-23.41873 v -3.70397 l 3.70384,-0.008 c 4.51522,-0.009 9.03948,-0.008 13.55947,-0.006 1.92132,7.5e-4 3.84189,0.001 5.75995,0.001 V 56.632459 H 73.121303 c -6.27e-4,1.973721 -2.51e-4,3.946226 0,5.92001 2.51e-4,1.174633 3.76e-4,2.349643 3.76e-4,3.525783 1.919065,1.3e-4 3.839759,-5e-4 5.761081,-0.001 4.520115,-0.001 9.044117,-0.003 13.560972,0.006 l 3.704967,0.008 -10e-4,3.70497 c -0.0064,22.30453 -0.0051,44.610198 -0.004,66.914978 5.02e-4,7.68453 8.78e-4,15.36894 0.001,23.0531 z"
     id="path46"
     inkscape:connector-curvature="0"
     style="clip-rule:evenodd;fill:#ffffff;fill-rule:evenodd;stroke-width:1.25388086" />
  <path
     d="m 210.33097,57.130763 -0.0401,0.01292 c -3.89205,1.244954 -6.83992,5.189638 -6.87127,9.211079 0.01,17.65602 0.009,35.316558 0.008,52.975338 0,13.48147 -0.001,26.96182 0.004,40.43853 1.13225,0 2.26576,-3.8e-4 3.40052,-6.3e-4 1.92972,-6.2e-4 3.86321,-0.001 5.79418,-1.2e-4 0.006,-13.79946 0.004,-27.59804 0,-41.3975 v -7.6e-4 c -0.002,-15.03052 -0.005,-30.062168 0.004,-45.093938 -0.0339,-4.1531 3.59236,-7.35552 7.43927,-7.30837 2.2457,-0.0231 4.61679,-0.0188 6.96155,-0.0147 1.9573,0.004 3.89455,0.008 5.72396,-0.005 7.98346,-0.24212 15.29609,5.7251 16.99761,13.35271 1.22128,5.02417 1.53977,11.34611 -1.66515,16.74683 -3.90333,6.643058 -10.66301,10.604068 -16.93993,13.001108 -2.37987,0.929 -4.20176,2.60657 -4.91647,4.54457 -1.07332,3.01007 -0.58556,6.59717 1.25764,9.29126 l 0.0151,0.0232 0.0163,0.0234 c 3.32655,5.0248 6.6393,10.0486 9.94954,15.06964 4.79108,7.26386 9.57715,14.52207 14.39581,21.76913 3.12342,-0.008 6.25812,-0.006 9.38655,-0.004 0.40751,2.5e-4 0.81628,5e-4 1.22379,7.5e-4 -1.52096,-2.26727 -3.04568,-4.53579 -4.5729,-6.80632 -6.14151,-9.13439 -12.30434,-18.30039 -18.29287,-27.54462 l -0.12163,-0.18834 -0.0991,-0.20162 c -1.35796,-2.78211 -1.67895,-7.60278 2.03128,-10.43053 l 0.0188,-0.0146 0.0201,-0.0143 c 1.50968,-1.12072 3.13596,-2.09775 4.57918,-2.96443 0.26833,-0.16162 0.53164,-0.31936 0.78493,-0.47346 1.70026,-1.03044 3.14222,-1.96258 4.38105,-3.06461 l 0.0213,-0.0193 0.0226,-0.0189 c 4.8287,-4.16301 7.61231,-10.599298 8.12766,-17.261048 l 0.005,-0.075 0.009,-0.0747 c 0.79747,-6.75177 0.39873,-13.42355 -2.4388,-18.96068 l -0.0213,-0.0421 -0.0201,-0.0426 c -4.18671,-8.709322 -13.47922,-14.743886 -23.12031,-14.932495 -2.43879,-0.0025 -4.88637,-6.52e-4 -7.33896,8.65e-4 -4.11524,0.0025 -8.24051,0.005 -12.35574,-0.01003 l -0.0389,-1.38e-4 -0.0401,-9.78e-4 c -1.34541,-0.03348 -2.57547,0.122128 -3.64377,0.490731 z m 23.49397,-4.205616 c 11.07176,0.202176 21.63822,7.070107 26.42804,17.036005 3.31526,6.46952 3.66008,13.99155 2.82249,21.08839 -0.57428,7.43288 -3.69017,14.859738 -9.40411,19.786238 -1.75543,1.56121 -3.75788,2.76531 -5.76033,3.96941 -1.44447,0.86894 -2.89019,1.73775 -4.24188,2.74086 -1.77549,1.35281 -1.86075,3.97518 -0.94542,5.85123 5.97098,9.21728 12.10371,18.33839 18.23644,27.45874 1.99618,2.96919 3.99236,5.93838 5.98352,8.9107 0.82756,1.23545 1.65387,2.4714 2.47892,3.70823 -1.4871,0.003 -2.9742,0.004 -4.4613,0.004 -1.24385,-2.5e-4 -2.4877,-0.001 -3.73281,-0.001 -3.78296,-0.003 -7.56591,-0.005 -11.34887,0.01 -5.19358,-7.80277 -10.35581,-15.62988 -15.51678,-23.45572 -3.31024,-5.02016 -6.62049,-10.03983 -9.93826,-15.05221 -2.49773,-3.65105 -3.17608,-8.48527 -1.68271,-12.65066 1.16737,-3.19313 3.95976,-5.533 7.06938,-6.74312 5.93713,-2.26551 11.7915,-5.824268 15.08043,-11.425738 2.50274,-4.21291 2.37234,-9.40987 1.2451,-14.01826 -1.31657,-5.9849 -7.14712,-10.69134 -13.30994,-10.48319 -1.9548,0.0137 -3.9096,0.01 -5.8644,0.006 -2.30338,-0.005 -4.60551,-0.009 -6.90638,0.0151 -1.92596,-0.0446 -3.73907,1.62929 -3.71525,3.57958 -0.01,15.03616 -0.006,30.072448 -0.004,45.109368 0.003,13.80084 0.006,27.6023 -10e-4,41.40502 0,1.23695 -0.001,2.47378 -0.001,3.71074 0,1.2e-4 0,2.5e-4 0,3.7e-4 -0.001,0 -0.002,0 -0.004,0 -1.23632,-0.003 -2.4714,-0.004 -3.70772,-0.005 -1.92722,-0.001 -3.85443,-6.3e-4 -5.78165,0 -2.37359,7.5e-4 -4.74719,0.001 -7.12079,-0.001 -0.005,-14.71693 -0.005,-29.43385 -0.004,-44.15115 0,-17.66079 0.001,-35.321948 -0.009,-52.983988 0.0364,-5.675653 4.0701,-11.012408 9.45176,-12.733861 1.5849,-0.547056 3.27639,-0.73436 4.94781,-0.692732 4.10897,0.0148 8.21794,0.01254 12.3269,0.01003 2.46388,-0.0013 4.92775,-0.0025 7.39038,-8.41e-4 z"
     id="path48"
     inkscape:connector-curvature="0"
     style="clip-rule:evenodd;fill:#ffffff;fill-rule:evenodd;stroke-width:1.25388086" />
  <path
     d="M 273.67703,56.633336 V 159.76534 c 1.15733,-1.2e-4 2.31466,-6.2e-4 3.47325,-0.001 2.19304,-0.001 4.38733,-0.003 6.57911,-2.5e-4 0.0125,-23.33172 0.01,-46.65816 0.009,-69.986618 -10e-4,-11.04731 -0.003,-22.09501 -10e-4,-33.144016 z M 269.96554,52.9222 v 110.55288 c 2.39993,0.002 4.79986,0.001 7.19853,2.5e-4 2.18803,-0.001 4.37605,-0.003 6.56407,-2.5e-4 1.23758,8.7e-4 2.47391,0.002 3.71149,0.006 0,-1.23708 10e-4,-2.47416 10e-4,-3.71112 0.0113,-23.33396 0.01,-46.66342 0.008,-69.993628 0,-11.04732 -10e-4,-22.09476 -10e-4,-33.142889 10e-4,-1.237042 10e-4,-2.474083 10e-4,-3.711137 z"
     id="path50"
     inkscape:connector-curvature="0"
     style="clip-rule:evenodd;fill:#ffffff;fill-rule:evenodd;stroke-width:1.25388086" />
  <path
     d="m 305.34379,67.504172 c -1.20247,0.51346 -2.49898,0.77013 -3.88703,0.77013 -1.80559,0 -3.47701,-0.44926 -5.01678,-1.3478 -1.53851,-0.89853 -2.75979,-2.11354 -3.66258,-3.644901 -0.90154,-1.531491 -1.35294,-3.213471 -1.35294,-5.045918 0,-1.380961 0.25579,-2.671205 0.76988,-3.870705 0.51284,-1.1995 1.23758,-2.263994 2.17549,-3.193496 0.9379,-0.929502 2.01498,-1.650973 3.23125,-2.164412 1.21626,-0.513439 2.50149,-0.770158 3.85568,-0.770158 1.36171,0 2.65321,0.256719 3.87449,0.770158 1.22003,0.513439 2.29084,1.230484 3.21119,2.151133 0.92035,0.92065 1.63631,1.98957 2.14915,3.206775 0.51409,1.217205 0.76989,2.507448 0.76989,3.870705 0,1.354417 -0.25204,2.637965 -0.7561,3.850844 -0.50406,1.212753 -1.22253,2.290465 -2.15667,3.233255 -0.93289,0.94279 -2.00119,1.67092 -3.20492,2.18439 z m -8.08126,-2.0185 c 1.28272,0.75245 2.6808,1.12874 4.19423,1.12874 1.52096,0 2.91903,-0.37403 4.19298,-1.12209 1.27394,-0.74794 2.28457,-1.76597 3.03188,-3.054082 0.74731,-1.287986 1.12097,-2.688872 1.12097,-4.20262 0,-1.141959 -0.21441,-2.217525 -0.64324,-3.226699 -0.42883,-1.009173 -1.02818,-1.898839 -1.79807,-2.668998 -0.76988,-0.770159 -1.65888,-1.369915 -2.667,-1.799256 -1.00937,-0.429342 -2.08771,-0.644006 -3.23752,-0.644006 -1.50466,0 -2.89772,0.371801 -4.18044,1.115402 -1.28272,0.743602 -2.30212,1.752775 -3.05821,3.027521 -0.75735,1.274745 -1.13477,2.673424 -1.13477,4.196036 0,1.5226 0.37617,2.923536 1.12724,4.20262 0.75233,1.279212 1.76923,2.294982 3.05195,3.047432 z m 1.52723,-1.69926 v -4.567899 h 1.03445 c 0.70844,0 1.25889,0.192546 1.65261,0.577625 0.39372,0.385079 0.91283,1.152993 1.55858,2.303805 l 0.95545,1.686469 h 2.11028 l -1.30027,-2.098118 c -0.54042,-0.849755 -0.97803,-1.46946 -1.31407,-1.858966 -0.33604,-0.389505 -0.72976,-0.672782 -1.18115,-0.84983 0.92912,-0.07962 1.67267,-0.409417 2.2294,-0.989249 0.55797,-0.579833 0.83634,-1.294657 0.83634,-2.144488 0,-0.504586 -0.15549,-0.987042 -0.46519,-1.447367 -0.30971,-0.460325 -0.71597,-0.801142 -1.22003,-1.022452 -0.30971,-0.150491 -0.69089,-0.247867 -1.14103,-0.292129 -0.4514,-0.04426 -1.04825,-0.06646 -1.7918,-0.06646 h -3.70271 v 10.768999 z m -10e-4,-6.068494 h 2.12282 c 0.56676,0 1.04198,-0.05091 1.42692,-0.152697 0.38494,-0.101816 0.67835,-0.274425 0.88273,-0.517866 0.20313,-0.243441 0.30469,-0.55992 0.30469,-0.949426 0,-0.672782 -0.24325,-1.108756 -0.72976,-1.307935 -0.4865,-0.199179 -1.15858,-0.298775 -2.01749,-0.298775 h -1.98991 z"
     id="path52"
     inkscape:connector-curvature="0"
     style="clip-rule:evenodd;fill:#ffffff;fill-rule:evenodd;stroke-width:1.25388086" />
</svg>
