<?xml version="1.0" encoding="UTF-8" standalone="no"?>
<svg
   xmlns:dc="http://purl.org/dc/elements/1.1/"
   xmlns:cc="http://creativecommons.org/ns#"
   xmlns:rdf="http://www.w3.org/1999/02/22-rdf-syntax-ns#"
   xmlns:svg="http://www.w3.org/2000/svg"
   xmlns="http://www.w3.org/2000/svg"
   xmlns:sodipodi="http://sodipodi.sourceforge.net/DTD/sodipodi-0.dtd"
   xmlns:inkscape="http://www.inkscape.org/namespaces/inkscape"
   width="498.00781"
   height="81.798393"
   viewBox="0 0 498.00781 81.798393"
   version="1.1"
   id="svg217"
   sodipodi:docname="atarist.svg"
   style="fill:none"
   inkscape:version="0.92.5 (2060ec1f9f, 2020-04-08)">
  <metadata
     id="metadata223">
    <rdf:RDF>
      <cc:Work
         rdf:about="">
        <dc:format>image/svg+xml</dc:format>
        <dc:type
           rdf:resource="http://purl.org/dc/dcmitype/StillImage" />
        <dc:title />
      </cc:Work>
    </rdf:RDF>
  </metadata>
  <defs
     id="defs221" />
  <sodipodi:namedview
     pagecolor="#ffffff"
     bordercolor="#666666"
     borderopacity="1"
     objecttolerance="10"
     gridtolerance="10"
     guidetolerance="10"
     inkscape:pageopacity="0"
     inkscape:pageshadow="2"
     inkscape:window-width="1366"
     inkscape:window-height="740"
     id="namedview219"
     showgrid="false"
     inkscape:pagecheckerboard="true"
     inkscape:zoom="0.7273958"
     inkscape:cx="202.56308"
     inkscape:cy="69.941772"
     inkscape:window-x="0"
     inkscape:window-y="0"
     inkscape:window-maximized="1"
     inkscape:current-layer="svg217" />
  <path
     d="m 138.11258,4.9040117 c 3.03296,-3.88142 9.30818,-4.54222004 13.0292,-1.28953 1.52129,1.28151 2.58708,3.0506 3.13079,4.95358 6.88791,23.6998803 13.80629,47.3877403 20.68538,71.0892203 -4.06587,0.002 -8.13253,-0.005 -12.19679,0.002 -1.91665,-6.53024 -3.78839,-13.07892 -5.68098,-19.61718 -7.85906,-0.0233 -15.71732,-0.007 -23.57477,-0.01 -1.92547,6.53666 -3.82368,13.07973 -5.71466,19.63162 -4.04261,-0.0168 -8.08361,-0.007 -12.12782,-0.01 6.54307,-22.60683 13.09416,-45.21367 19.66931,-67.81408 0.78109,-2.3633303 1.073,-5.0065103 2.78034,-6.9367903 z m 7.175,14.5215803 c -2.88219,9.81822 -5.70584,19.65648 -8.57038,29.4795 5.71145,0.0257 11.4221,0.01 17.13195,0.01 -2.85813,-9.82864 -5.70344,-19.65888 -8.56157,-29.48913 z"
     id="path191"
     inkscape:connector-curvature="0"
     style="fill:#ffffff;stroke-width:0.80194503" />
  <path
     d="m 223.73625,5.4138817 c 2.11714,-3.07225 6.21267,-4.56547004 9.81661,-3.61597 3.30161,0.76105 5.82694,3.60555 6.69945,6.80768 6.87989,23.6830403 13.78383,47.3548603 20.66292,71.0330903 -4.06907,0.0361 -8.13814,0 -12.20801,0.0176 -1.89099,-6.53826 -3.76433,-13.08855 -5.67056,-19.6244 -7.84623,0.002 -15.69165,-0.0168 -23.53788,0.006 -1.87495,6.54627 -3.80764,13.07411 -5.68419,19.61637 -4.0394,0.002 -8.07719,0 -12.11498,0.002 6.53825,-22.72873 13.1559,-45.43981 19.74789,-68.1549 0.69208,-2.0529803 0.95752,-4.3144403 2.28875,-6.0875403 z m -0.9896,43.5006803 c 5.6882,0.008 11.37319,0.002 17.06058,0.002 -2.82766,-9.84868 -5.70263,-19.68454 -8.52548,-29.53563 -2.84049,9.84548 -5.70984,19.68374 -8.5351,29.53323 z"
     id="path193"
     inkscape:connector-curvature="0"
     style="fill:#ffffff;stroke-width:0.80194503" />
  <path
     d="m 165.85667,1.6800517 c 14.70366,0 29.40813,0 44.10778,0 0,3.96722 0,7.93046 0,11.8968803 -5.41313,0.005 -10.82546,-0.006 -16.23698,0.005 0,22.02542 0.003,44.05004 -0.002,66.07626 -3.87499,0 -7.75641,0 -11.63301,0 0,-22.02542 -0.003,-44.04923 0.004,-66.07626 -5.41393,-0.0104 -10.82546,0 -16.23859,-0.005 -8e-4,-3.9656203 -0.004,-7.9304603 -8e-4,-11.8968803 z"
     id="path195"
     inkscape:connector-curvature="0"
     style="fill:#ffffff;stroke-width:0.80194503" />
  <path
     d="m 273.84338,2.1637017 c 1.11631,-0.38654 2.3088,-0.51806 3.48846,-0.48999 4.63605,0.0176 9.27129,0.002 13.90894,0.006 7.80693,0.14194 15.25941,4.9905 18.63881,12.0171703 2.33927,4.56307 2.58146,9.87114 1.99042,14.87769 -0.40418,5.24151 -2.60471,10.48142 -6.63208,13.95304 -2.12836,1.89981 -4.77959,3.04899 -7.05632,4.73468 -1.25103,0.95512 -1.31037,2.802 -0.66561,4.12521 6.15332,9.50064 12.55124,18.84811 18.83127,28.26856 -4.59354,0.01 -9.18788,-0.012 -13.78142,0.01 -6.01619,-9.03471 -11.96823,-18.11513 -17.95956,-27.15947 -1.76107,-2.57264 -2.23743,-5.98411 -1.18447,-8.92485 0.82199,-2.25266 2.79397,-3.90386 4.98729,-4.75232 4.18856,-1.59748 8.31537,-4.10997 10.637,-8.06115 1.76268,-2.97281 1.67446,-6.6353 0.88134,-9.88718 -0.93186,-4.21984 -5.04343,-7.5431 -9.38757,-7.39554 -3.00569,0.02 -6.00817,-0.0176 -9.00825,0.0136 -1.35769,-0.0313 -2.63599,1.14839 -2.61915,2.52853 -0.0152,21.20904 0.008,42.4237 -0.005,63.63675 -3.90708,-0.007 -7.81095,0 -11.71883,-0.007 -0.008,-22.83218 0.006,-45.67317 -0.008,-68.50615 0.0192,-4.0049503 2.86696,-7.7716903 6.66256,-8.9874303 z"
     id="path197"
     inkscape:connector-curvature="0"
     style="fill:#ffffff;stroke-width:0.80194503" />
  <path
     d="m 322.48937,1.6800517 c 4.10997,0 8.21753,0 12.33071,0 -0.005,25.9958803 0.003,51.9853103 -0.008,77.9771503 -4.10596,-0.01 -8.21352,0 -12.32349,-0.002 8e-4,-25.99265 8e-4,-51.98128 8e-4,-77.9747503 z"
     id="path199"
     inkscape:connector-curvature="0"
     style="fill:#ffffff;stroke-width:0.80194503" />
  <path
     d="m 345.19885,10.564422 c -0.55896,0.23874 -1.16202,0.35815 -1.80758,0.35815 -0.83964,0 -1.61753,-0.20891 -2.33286,-0.6268 -0.71614,-0.4178903 -1.28392,-0.9829403 -1.70333,-1.6951503 -0.41942,-0.71222 -0.62953,-1.49444 -0.62953,-2.34664 0,-0.64225 0.11949,-1.24229 0.35767,-1.80014 0.23898,-0.55785 0.57579,-1.0529 1.01205,-1.48518 0.43626,-0.43228 0.93748,-0.76781 1.50285,-1.0066 0.56617,-0.23878 1.16362,-0.35817 1.79315,-0.35817 0.63353,0 1.23419,0.11939 1.80197,0.35817 0.56777,0.23879 1.06498,0.57225 1.49322,1.00042 0.42824,0.42816 0.76104,0.92529 1.00002,1.49136 0.23818,0.56608 0.35767,1.16613 0.35767,1.80014 0,0.62988 -0.11708,1.22684 -0.35205,1.79089 -0.23417,0.56401 -0.56858,1.06523 -1.00243,1.50365 -0.43386,0.4385 -0.93106,0.7770803 -1.49082,1.0159003 z m -3.75791,-0.9386703 c 0.59664,0.34997 1.24702,0.5249503 1.95033,0.5249503 0.70731,0 1.35769,-0.1739403 1.95033,-0.5218303 0.59263,-0.34788 1.06257,-0.82135 1.40982,-1.4204 0.34804,-0.59899 0.52126,-1.25049 0.52126,-1.95449 0,-0.53108 -0.0994,-1.0313 -0.29913,-1.50063 -0.19968,-0.46933 -0.47795,-0.88308 -0.83642,-1.24126 -0.35767,-0.35817 -0.77067,-0.63709 -1.23981,-0.83676 -0.46914,-0.19967 -0.97116,-0.29951 -1.50605,-0.29951 -0.6993,0 -1.34727,0.17291 -1.94392,0.51874 -0.59665,0.34582 -1.0706,0.81515 -1.42265,1.40799 -0.35205,0.59284 -0.52768,1.24332 -0.52768,1.95143 0,0.70811 0.17483,1.35962 0.52447,1.95449 0.34965,0.59496 0.8228,1.06731 1.41945,1.41728 z m 0.70892,-0.79048 v -2.12432 h 0.48196 c 0.3288,0 0.58462,0.0895 0.76827,0.26863 0.18284,0.17909 0.42423,0.53623 0.72496,1.07147 l 0.44427,0.78422 h 0.98158 l -0.60466,-0.9757 c -0.25101,-0.39522 -0.45471,-0.6834 -0.61108,-0.86455 -0.15638,-0.18115 -0.34003,-0.31289 -0.54934,-0.39523 0.43145,-0.037 0.77709,-0.1904 1.03692,-0.46007 0.25903,-0.26965 0.38814,-0.6021 0.38814,-0.99732 0,-0.23467 -0.0714,-0.45904 -0.21572,-0.67312 -0.14355,-0.21409 -0.33281,-0.37258 -0.56778,-0.47551 -0.14355,-0.07 -0.32078,-0.11528 -0.53089,-0.13586 -0.20931,-0.0206 -0.48758,-0.0309 -0.83322,-0.0309 h -1.72178 v 5.00824 z m 8e-4,-2.82213 h 0.98719 c 0.26384,0 0.48518,-0.0237 0.66401,-0.071 0.17884,-0.0473 0.31517,-0.12763 0.4098,-0.24084 0.0946,-0.11321 0.14194,-0.2604 0.14194,-0.44154 0,-0.31289 -0.11307,-0.51565 -0.33922,-0.60828 -0.22615,-0.0926 -0.53891,-0.13895 -0.93748,-0.13895 h -0.92624 z"
     id="path201"
     inkscape:connector-curvature="0"
     style="clip-rule:evenodd;fill:#ffffff;fill-rule:evenodd;stroke-width:0.80194503" />
  <path
     d="m 34.766724,1.5366117 c 1.973586,-0.006 3.947173,0 5.92477,-0.003 0.0064,4.64247 0,9.2865203 0.0024,13.9273803 0.01844,3.8758 -0.08982,7.74919 -0.250207,11.62259 -0.264642,5.58956 -0.615894,11.19275 -1.539735,16.71654 -0.636744,3.80844 -1.956746,7.48616 -3.589506,10.97542 -2.666467,5.62003 -6.858234,10.37637 -11.569661,14.37567 -4.213419,3.7106 -9.244021,6.41235 -14.5352541,8.23517 -2.9936548,1.03591 -6.0747277,1.82662 -9.2095309,2.2709 0.00240584,-3.89424 0.00240584,-7.79009 0,-11.68273 3.7763592,-0.56858 7.4059625,-1.90863 10.775736,-3.68093 3.998498,-2.11473 7.599231,-4.95763 10.630583,-8.31216 3.129992,-3.46039 5.624041,-7.47012 7.516631,-11.72444 2.229407,-4.89106 3.422702,-10.17989 4.23427,-15.47112 1.016866,-6.72832 1.440293,-13.53844 1.597475,-20.3341203 0.02486,-2.30318 0.0056,-4.60877 0.01203,-6.91516 z"
     id="path203"
     inkscape:connector-curvature="0"
     style="fill:#ffffff;stroke-width:0.80194503" />
  <path
     d="m 43.072469,1.5446817 c 3.635216,-0.0233 7.269631,-0.002 10.906452,-0.008 8.02e-4,26.0383803 8.02e-4,52.0807403 0,78.1183003 -3.627197,0.01 -7.254395,-0.016 -10.88079,0.0176 -0.04411,-8.30093 -0.0056,-16.61069 -0.01844,-24.91082 -0.0048,-17.73742 0.0064,-35.47564 -0.0072,-53.2171003 z"
     id="path205"
     inkscape:connector-curvature="0"
     style="fill:#ffffff;stroke-width:0.80194503" />
  <path
     d="m 56.404965,1.5365317 c 1.964766,-0.003 3.927125,-0.006 5.889485,0 -0.06496,7.93925 0.206902,15.8961503 1.152395,23.7816803 0.774679,6.12766 1.86773,12.30183 4.308049,18.00848 2.312809,5.52139 5.647297,10.65384 9.993037,14.79428 4.151509,3.9576 9.178101,7.00018 14.641752,8.74922 1.524498,0.48517 3.082677,0.8669 4.668924,1.10267 -8.02e-4,3.89264 -0.0032,7.78368 0,11.67632 -3.113952,-0.42423 -6.167759,-1.22778 -9.139767,-2.23742 -3.538182,-1.23019 -6.961685,-2.82526 -10.105951,-4.87342 -2.295167,-1.47077 -4.381828,-3.23906 -6.385889,-5.08113 -3.304815,-3.0498 -6.260785,-6.51019 -8.483777,-10.43491 -1.736211,-3.0538 -3.004086,-6.35301 -3.998498,-9.71556 -0.910207,-3.381 -1.296745,-6.88069 -1.650403,-10.35552 -0.683257,-7.51663 -0.939077,-15.06774 -0.89096,-22.61004 0.0016,-4.26875 0,-8.5359003 0.0016,-12.8046503 z"
     id="path207"
     inkscape:connector-curvature="0"
     style="fill:#ffffff;stroke-width:0.80194503" />
  <path
     d="m 43.072469,1.5446317 c 0.01283,17.7406203 0.0032,35.4796503 0.0072,53.2154703 0.01203,8.30013 -0.02727,16.60667 0.01844,24.91162 3.626395,-0.0329 7.254395,-0.009 10.88079,-0.0177 8.02e-4,-26.03755 8.02e-4,-52.07911 0,-78.1206603 -3.635217,0.009 -7.270434,-0.0112 -10.906452,0.0112 z"
     id="path209"
     inkscape:connector-curvature="0"
     style="fill:#ffffff;stroke-width:0.80194503" />
  <path
     d="m 56.405126,1.5364917 c -0.0016,4.26715 0,8.5358603 0,12.8030103 -0.04892,7.53989 0.207704,15.0926 0.890961,22.61004 0.353658,3.47483 0.740195,6.97451 1.650403,10.35471 0.992808,3.36336 2.262287,6.66336 3.998498,9.71637 2.222189,3.92472 5.178961,7.38511 8.483776,10.43411 2.005665,1.84527 4.091524,3.61115 6.385889,5.08192 3.144106,2.04737 6.567609,3.64083 10.105791,4.87342 2.971206,1.00885 6.025815,1.81079 9.139767,2.23663 -0.0032,-3.89184 -8.02e-4,-7.78368 0,-11.67552 -1.584643,-0.23257 -3.145228,-0.6183 -4.668924,-1.10268 -5.463651,-1.74904 -10.491045,-4.79162 -14.641592,-8.74922 -4.34574,-4.13483 -7.680228,-9.27128 -9.993037,-14.79428 -2.440319,-5.70664 -3.53337,-11.88081 -4.308049,-18.00848 -0.946295,-7.88552 -1.217352,-15.8424203 -1.152395,-23.7816403 -1.964765,-0.005 -3.927927,-0.002 -5.891088,0.002 z"
     id="path211"
     inkscape:connector-curvature="0"
     style="fill:#ffffff;stroke-width:0.80194503" />
  <path
     d="m 369.96532,56.007042 c 5.5262,3.80178 11.09411,6.43705 17.30517,7.56026 3.08428,0.60482 6.21107,0.86409 9.29535,-0.25919 3.81244,-1.42562 4.84054,-5.61618 2.14199,-8.72669 -1.54214,-1.77125 -3.59833,-2.76494 -5.69702,-3.67218 -4.19818,-1.8144 -8.52387,-3.28333 -12.46543,-5.61619 -14.77824,-8.81313 -13.62104,-26.30973 -6.85342,-34.56126 4.75473,-5.7890103 11.0516,-8.7699203 18.20495,-9.93637034 9.80939,-1.598456 19.44717,-0.69122 29.04244,1.85767004 1.24222,0.34561 1.49964,0.90723 1.49964,2.07368 -0.0433,5.4001903 -0.0858,10.8004103 0,16.2006303 0.0425,1.8144 -0.29993,2.11681 -1.97118,1.2528 -5.65371,-2.93769 -11.65066,-4.57935 -18.07584,-4.49298 -1.75626,0.0432 -3.38421,0.38886 -4.96885,1.12328 -3.85576,1.77126 -4.3698,6.04819 -1.0714,8.72669 2.44192,1.94407 5.31208,3.02413 8.13894,4.23379 4.49731,1.90085 8.7813,4.06097 12.80786,6.86906 13.92097,9.67715 11.90808,31.40753 -3.59833,39.01102 -6.72511,3.28364 -13.87846,4.14733 -21.20342,4.14733 -7.11085,0 -14.05008,-1.03691 -20.77519,-3.49928 -1.28472,-0.47523 -1.75626,-1.03692 -1.71296,-2.41931 0,-6.52342 -0.0433,-13.0037 -0.0433,-19.87276 z"
     id="path213"
     inkscape:connector-curvature="0"
     style="fill:#ffffff;stroke-width:0.80194503" />
  <path
     d="m 464.01102,1.6489617 c 10.61535,0 21.18739,0.043 31.75863,-0.043 1.80518,0 2.27832,0.51531 2.23502,2.27596 -0.12912,4.6378 -0.12912,9.3186003 0,13.9564103 0.0433,1.71776 -0.34404,2.3189 -2.19172,2.276 -5.93038,-0.12888 -11.86157,0.0429 -17.83445,-0.0859 -1.84849,-0.0429 -2.40664,0.38645 -2.40664,2.3189 0.0858,18.46543 0.0425,36.88795 0.0858,55.3533 0,1.88954 -0.38734,2.5339 -2.40664,2.49076 -6.27442,-0.12888 -12.59214,-0.12888 -18.90986,0 -1.89099,0.0431 -2.53495,-0.34356 -2.49245,-2.40488 0.0858,-18.37953 0,-36.75907 0.0858,-55.13861 0,-2.01825 -0.42904,-2.66238 -2.53495,-2.61947 -5.84458,0.17177 -11.73246,0 -17.62034,0.0859 -1.50445,0 -1.93349,-0.42945 -1.93349,-1.93245 0.0858,-4.7237 0.12832,-9.4474003 0,-14.1711203 -0.0433,-1.84655 0.38654,-2.44775 2.36334,-2.4048 10.61454,0.0859 21.22989,0.043 31.80193,0.043 z"
     id="path215"
     inkscape:connector-curvature="0"
     style="fill:#ffffff;stroke-width:0.80194503" />
</svg>
