<?xml version="1.0" encoding="UTF-8" standalone="no"?>
<svg
   xmlns:dc="http://purl.org/dc/elements/1.1/"
   xmlns:cc="http://creativecommons.org/ns#"
   xmlns:rdf="http://www.w3.org/1999/02/22-rdf-syntax-ns#"
   xmlns:svg="http://www.w3.org/2000/svg"
   xmlns="http://www.w3.org/2000/svg"
   xmlns:sodipodi="http://sodipodi.sourceforge.net/DTD/sodipodi-0.dtd"
   xmlns:inkscape="http://www.inkscape.org/namespaces/inkscape"
   width="429.84918"
   height="167.44052"
   viewBox="0 0 429.84919 167.44052"
   version="1.1"
   id="svg29"
   sodipodi:docname="atlus.svg"
   inkscape:version="0.92.5 (2060ec1f9f, 2020-04-08)">
  <metadata
     id="metadata35">
    <rdf:RDF>
      <cc:Work
         rdf:about="">
        <dc:format>image/svg+xml</dc:format>
        <dc:type
           rdf:resource="http://purl.org/dc/dcmitype/StillImage" />
        <dc:title>mainlogo</dc:title>
      </cc:Work>
    </rdf:RDF>
  </metadata>
  <defs
     id="defs33">
    <clipPath
       id="clipPath3361"
       clipPathUnits="userSpaceOnUse">
      <path
         id="path3363"
         d="M 0,864 H 1296 V 0 H 0 Z"
         inkscape:connector-curvature="0" />
    </clipPath>
  </defs>
  <sodipodi:namedview
     pagecolor="#ffffff"
     bordercolor="#666666"
     borderopacity="1"
     objecttolerance="10"
     gridtolerance="10"
     guidetolerance="10"
     inkscape:pageopacity="0"
     inkscape:pageshadow="2"
     inkscape:window-width="1366"
     inkscape:window-height="743"
     id="namedview31"
     showgrid="false"
     inkscape:pagecheckerboard="true"
     inkscape:zoom="0.97481307"
     inkscape:cx="269.34229"
     inkscape:cy="144.854"
     inkscape:window-x="0"
     inkscape:window-y="0"
     inkscape:window-maximized="1"
     inkscape:current-layer="svg29" />
  <title
     id="title14">mainlogo</title>
  <g
     transform="matrix(0.42920519,0,0,0.42920519,-91.255701,-178.62358)"
     id="layer1"
     inkscape:label="Layer 1"
     style="fill:#ffffff">
    <g
       transform="matrix(2.2325588,0,0,2.2325588,-266.35962,-921.5789)"
       id="g4169"
       style="fill:#ffffff">
      <g
         id="g3475"
         transform="matrix(8.3973198,0,0,-8.3973198,447.13171,629.60498)"
         style="fill:#ffffff">
        <path
           inkscape:connector-curvature="0"
           d="m 0,0 h -2.861 v -14.055 h 6.69 v 3.015 H 0 Z"
           style="fill:#ffffff;fill-opacity:1;fill-rule:nonzero;stroke:none"
           id="path3477" />
      </g>
      <g
         id="g3479"
         transform="matrix(8.3973198,0,0,-8.3973198,507.57817,629.60498)"
         style="fill:#ffffff">
        <path
           inkscape:connector-curvature="0"
           d="m 0,0 h -2.752 v -9.031 c 0.033,-2.544 2.698,-6.243 6.812,-4.644 v 3.389 C 2.835,-11.729 -0.054,-11.292 0,-8.436 Z"
           style="fill:#ffffff;fill-opacity:1;fill-rule:nonzero;stroke:none"
           id="path3481" />
      </g>
      <path
         inkscape:connector-curvature="0"
         d="m 545.3258,747.62595 h 24.24306 V 629.60162 H 545.3258 Z"
         style="fill:#ffffff;fill-opacity:1;fill-rule:nonzero;stroke:none"
         id="path3483" />
      <g
         id="g3485"
         transform="matrix(8.3973198,0,0,-8.3973198,620.74462,629.60498)"
         style="fill:#ffffff">
        <path
           inkscape:connector-curvature="0"
           d="m 0,0 h -3.391 l -1.284,-2.193 c -0.939,-1.162 -0.911,-5.993 3.986,-6.087 h 1.628 c 1.915,-0.408 1.571,-2.855 -0.342,-2.76 h -5.931 v -3.015 h 5.96 c 5.837,0.191 6.116,8.598 0.221,8.598 l -1.662,0.045 c -1.318,0.096 -1.601,1.319 -1.145,2.057 z"
           style="fill:#ffffff;fill-opacity:1;fill-rule:nonzero;stroke:none"
           id="path3487" />
      </g>
      <g
         id="g3489"
         transform="matrix(8.3973198,0,0,-8.3973198,625.75533,629.60498)"
         style="fill:#ffffff">
        <path
           inkscape:connector-curvature="0"
           d="M 0,0 -1.712,-2.883 H 2.916 L 4.61,0 Z"
           style="fill:#ffffff;fill-opacity:1;fill-rule:nonzero;stroke:none"
           id="path3491" />
      </g>
      <g
         id="g3493"
         transform="matrix(8.3973198,0,0,-8.3973198,292.92165,629.06331)"
         style="fill:#ffffff">
        <path
           inkscape:connector-curvature="0"
           d="m 0,0 -9.148,-14.119 h 3.264 l 3.562,5.495 H 0 Z"
           style="fill:#ffffff;fill-opacity:1;fill-rule:nonzero;stroke:none"
           id="path3495" />
      </g>
      <path
         inkscape:connector-curvature="0"
         d="m 319.79898,629.60162 h -23.13461 v 118.03272 h 23.13461 z"
         style="fill:#ffffff;fill-opacity:1;fill-rule:nonzero;stroke:none"
         id="path3497" />
      <g
         id="g3499"
         transform="matrix(8.3973198,0,0,-8.3973198,416.61,653.70609)"
         style="fill:#ffffff">
        <path
           inkscape:connector-curvature="0"
           d="m 0,0 v 2.87 h -3.334 l -3.364,-3.449 v -10.606 h 3.01 V 0.001 Z"
           style="fill:#ffffff;fill-opacity:1;fill-rule:nonzero;stroke:none"
           id="path3501" />
      </g>
      <g
         id="g3503"
         transform="matrix(8.3973198,0,0,-8.3973198,359.41082,653.69769)"
         style="fill:#ffffff">
        <path
           inkscape:connector-curvature="0"
           d="m 0,0 2.823,2.869 h -6.774 v -2.87 z"
           style="fill:#ffffff;fill-opacity:1;fill-rule:nonzero;stroke:none"
           id="path3505" />
      </g>
    </g>
  </g>
  <path
     d="m 9.1669107,167.41353 c 1.3434973,0 2.6501313,-0.31526 3.9198993,-0.94577 1.269768,-0.63054 2.314256,-1.47724 3.133461,-2.54011 v 0 l -2.334736,-2.5401 c -0.606211,0.77464 -1.302537,1.36913 -2.088974,1.78349 -0.786437,0.41433 -1.630219,0.6215 -2.5313453,0.6215 -0.802822,0 -1.5442028,-0.15762 -2.2241427,-0.47289 -0.679942,-0.31527 -1.269769,-0.74312 -1.769486,-1.28356 -0.499716,-0.54045 -0.892933,-1.18448 -1.179656,-1.93209 -0.286722,-0.74763 -0.430082,-1.55379 -0.430082,-2.41851 0,-0.88273 0.139265,-1.6979 0.417795,-2.44552 0.278529,-0.74762 0.663557,-1.39616 1.15508,-1.94561 0.491522,-0.54945 1.077254,-0.98181 1.757196,-1.29707 0.6799399,-0.31526 1.4049357,-0.47288 2.1749907,-0.47288 0.9175103,0 1.7858683,0.22067 2.6050743,0.66204 0.819206,0.44136 1.531915,1.07639 2.138126,1.90507 v 0 l 2.408465,-2.62117 c -0.802822,-1.08088 -1.851405,-1.94109 -3.14575,-2.58062 -1.294346,-0.63954 -2.62965,-0.95929 -4.0059153,-0.95929 -1.277961,0 -2.4780977,0.25221 -3.6004087,0.75663 -1.122312,0.5044 -2.093071,1.18897 -2.912276,2.05368 -0.819205,0.86472 -1.466378,1.89607 -1.941517,3.09406 C 0.237569,155.0328 0,156.31635 0,157.68549 c 0,1.36912 0.233473,2.6482 0.700419,3.83718 0.466948,1.18898 1.110025,2.21582 1.929231,3.08054 0.819206,0.86471 1.789964,1.54929 2.912276,2.0537 1.122312,0.50441 2.3306399,0.75662 3.6249847,0.75662 z m 46.5718413,0.027 c 1.27796,0 2.474,-0.2522 3.58812,-0.75662 1.11412,-0.50442 2.07668,-1.19348 2.8877,-2.06721 0.81101,-0.87372 1.45409,-1.90958 1.92923,-3.10756 0.47515,-1.19799 0.7127,-2.47256 0.7127,-3.82367 0,-1.35112 -0.23755,-2.62567 -0.7127,-3.82365 -0.47514,-1.198 -1.11822,-2.23385 -1.92923,-3.10757 -0.81102,-0.87372 -1.77358,-1.56279 -2.8877,-2.06721 -1.11412,-0.50442 -2.31016,-0.75662 -3.58812,-0.75662 -1.26158,0 -2.44943,0.2522 -3.56355,0.75662 -1.11412,0.50442 -2.07668,1.19349 -2.8877,2.06721 -0.81101,0.87372 -1.454084,1.90957 -1.929224,3.10757 -0.47514,1.19798 -0.712711,2.47253 -0.712711,3.82365 0,1.35111 0.237571,2.62568 0.712711,3.82367 0.47514,1.19798 1.118214,2.23384 1.929224,3.10756 0.81102,0.87373 1.77358,1.56279 2.8877,2.06721 1.11412,0.50442 2.30197,0.75662 3.56355,0.75662 z m 0,-3.59397 c -0.77005,0 -1.48686,-0.15762 -2.15041,-0.47289 -0.66356,-0.31525 -1.237,-0.7476 -1.72034,-1.29706 -0.48333,-0.54946 -0.86426,-1.2025 -1.14279,-1.95912 -0.27853,-0.75665 -0.4178,-1.56731 -0.4178,-2.43202 0,-0.88272 0.13927,-1.6979 0.4178,-2.44551 0.27853,-0.74763 0.65946,-1.39616 1.14279,-1.94561 0.48334,-0.54946 1.05678,-0.98182 1.72034,-1.29708 0.66355,-0.31526 1.38036,-0.47289 2.15041,-0.47289 0.77005,0 1.49095,0.15763 2.1627,0.47289 0.67175,0.31526 1.24929,0.74762 1.73263,1.29708 0.48332,0.54945 0.86425,1.19798 1.14279,1.94561 0.27852,0.74761 0.41779,1.56279 0.41779,2.44551 0,0.86471 -0.13927,1.67537 -0.41779,2.43202 -0.27854,0.75662 -0.65947,1.40966 -1.14279,1.95912 -0.48334,0.54946 -1.06088,0.98181 -1.73263,1.29706 -0.67175,0.31527 -1.39265,0.47289 -2.1627,0.47289 z m 54.018418,3.29672 v -3.45885 h -9.41266 v -15.45677 h -3.563558 v 18.91562 z m 44.92523,0 v -3.45885 h -9.41268 v -15.45677 h -3.56353 v 18.91562 z m 45.2693,0 v -3.40479 h -9.75674 v -4.48571 h 6.36524 v -3.29672 h -6.36524 v -4.32357 h 9.65844 v -3.40481 h -13.22197 v 18.91563 z m 39.51848,0.27023 c 1.34351,0 2.65014,-0.31526 3.9199,-0.94578 1.26977,-0.63052 2.31426,-1.47722 3.13347,-2.5401 v 0 l -2.33473,-2.54009 c -0.60621,0.77464 -1.30254,1.36912 -2.08899,1.78347 -0.78644,0.41433 -1.63022,0.62151 -2.53135,0.62151 -0.8028,0 -1.5442,-0.15763 -2.22412,-0.47288 -0.67996,-0.31528 -1.26978,-0.74313 -1.76949,-1.28357 -0.49972,-0.54044 -0.89295,-1.18447 -1.17965,-1.93209 -0.28674,-0.74762 -0.4301,-1.5538 -0.4301,-2.41851 0,-0.88272 0.13926,-1.6979 0.41781,-2.44551 0.27852,-0.74763 0.66354,-1.39616 1.15507,-1.94561 0.49153,-0.54946 1.07725,-0.98182 1.7572,-1.29708 0.67993,-0.31526 1.40493,-0.47289 2.17498,-0.47289 0.91752,0 1.78587,0.22069 2.60507,0.66206 0.81921,0.44136 1.53193,1.07637 2.13814,1.90505 v 0 l 2.40845,-2.62115 c -0.8028,-1.0809 -1.8514,-1.94111 -3.14575,-2.58064 -1.29433,-0.63952 -2.62964,-0.95928 -4.00591,-0.95928 -1.27796,0 -2.47809,0.2522 -3.6004,0.75662 -1.12231,0.50442 -2.09307,1.18898 -2.91228,2.0537 -0.8192,0.86472 -1.46637,1.89606 -1.94151,3.09405 -0.47515,1.19798 -0.71272,2.48154 -0.71272,3.85068 0,1.36912 0.23348,2.64819 0.70042,3.83717 0.46696,1.18899 1.11003,2.21584 1.92924,3.08055 0.81919,0.86472 1.78995,1.54929 2.91226,2.05369 1.12233,0.50441 2.33064,0.75663 3.62499,0.75663 z m 47.1371,-0.27023 v -15.45677 h 5.77539 v -3.45885 h -15.13892 v 3.45885 h 5.79999 v 15.45677 z m 40.82102,0 v -18.91562 h -3.56354 v 18.91562 z m 41.0422,0.29725 c 1.27796,0 2.474,-0.2522 3.58812,-0.75662 1.11412,-0.50442 2.07669,-1.19348 2.8877,-2.06721 0.81102,-0.87372 1.45408,-1.90958 1.92923,-3.10756 0.47514,-1.19799 0.71271,-2.47256 0.71271,-3.82367 0,-1.35112 -0.23757,-2.62567 -0.71271,-3.82365 -0.47515,-1.198 -1.11821,-2.23385 -1.92923,-3.10757 -0.81101,-0.87372 -1.77358,-1.56279 -2.8877,-2.06721 -1.11412,-0.50442 -2.31016,-0.75662 -3.58812,-0.75662 -1.26158,0 -2.44942,0.2522 -3.56356,0.75662 -1.1141,0.50442 -2.07669,1.19349 -2.88768,2.06721 -0.81102,0.87372 -1.4541,1.90957 -1.92923,3.10757 -0.47515,1.19798 -0.71272,2.47253 -0.71272,3.82365 0,1.35111 0.23757,2.62568 0.71272,3.82367 0.47513,1.19798 1.11821,2.23384 1.92923,3.10756 0.81099,0.87373 1.77358,1.56279 2.88768,2.06721 1.11414,0.50442 2.30198,0.75662 3.56356,0.75662 z m 0,-3.59397 c -0.77004,0 -1.48687,-0.15762 -2.15041,-0.47289 -0.66356,-0.31525 -1.237,-0.7476 -1.72034,-1.29706 -0.48333,-0.54946 -0.86425,-1.2025 -1.1428,-1.95912 -0.27851,-0.75665 -0.41778,-1.56731 -0.41778,-2.43202 0,-0.88272 0.13927,-1.6979 0.41778,-2.44551 0.27855,-0.74763 0.65947,-1.39616 1.1428,-1.94561 0.48334,-0.54946 1.05678,-0.98182 1.72034,-1.29708 0.66354,-0.31526 1.38037,-0.47289 2.15041,-0.47289 0.77004,0 1.49096,0.15763 2.1627,0.47289 0.67176,0.31526 1.2493,0.74762 1.73263,1.29708 0.48332,0.54945 0.86425,1.19798 1.14278,1.94561 0.27853,0.74761 0.4178,1.56279 0.4178,2.44551 0,0.86471 -0.13927,1.67537 -0.4178,2.43202 -0.27853,0.75662 -0.65946,1.40966 -1.14278,1.95912 -0.48333,0.54946 -1.06087,0.98181 -1.73263,1.29706 -0.67174,0.31527 -1.39266,0.47289 -2.1627,0.47289 z m 44.40913,3.29672 v -12.64645 l 8.7737,12.64645 h 3.14575 v -18.91562 h -3.34236 v 12.24112 l -8.55252,-12.24112 h -3.39151 v 18.91562 z"
     id="COLLECTION"
     inkscape:connector-curvature="0"
     style="fill:#ffffff;fill-rule:nonzero;stroke:none;stroke-width:1.10124528" />
  <g
     id="g48"
     transform="translate(4.1033511,-118.02301)">
    <path
       d="m 98.368707,123.56449 -3.911684,9.67624 h 7.837657 z m -1.627486,-2.59162 h 3.269259 l 8.12318,19.44364 h -2.99801 l -1.94157,-4.98788 h -9.607908 l -1.941568,4.98788 h -3.040839 z"
       style="font-style:normal;font-weight:normal;font-size:40px;line-height:125%;font-family:sans-serif;letter-spacing:0px;word-spacing:0px;fill:#ffffff;fill-opacity:1;stroke:#ffffff;stroke-width:0.69800001;stroke-linecap:butt;stroke-linejoin:miter;stroke-miterlimit:4;stroke-dasharray:none;stroke-opacity:1"
       id="path36"
       inkscape:connector-curvature="0" />
    <path
       d="m 149.94112,131.30027 q 0.92796,0.28651 1.79881,1.22418 0.88512,0.93767 1.77025,2.5786 l 2.92663,5.31346 h -3.09794 l -2.72677,-4.98788 q -1.05644,-1.95348 -2.05577,-2.59162 -0.98506,-0.63814 -2.69821,-0.63814 h -3.14077 v 8.21764 h -2.88381 v -19.44364 h 6.50997 q 3.65472,0 5.45352,1.39348 1.79881,1.39349 1.79881,4.2065 0,1.83627 -0.94223,3.04743 -0.92796,1.21115 -2.71249,1.67999 z m -7.22378,-8.16555 v 6.9023 h 3.62617 q 2.08433,0 3.14077,-0.87256 1.07072,-0.88557 1.07072,-2.59161 0,-1.70604 -1.07072,-2.56557 -1.05644,-0.87256 -3.14077,-0.87256 z"
       style="font-style:normal;font-weight:normal;font-size:40px;line-height:125%;font-family:sans-serif;letter-spacing:0px;word-spacing:0px;fill:#ffffff;fill-opacity:1;stroke:#ffffff;stroke-width:0.69800001;stroke-linecap:butt;stroke-linejoin:miter;stroke-miterlimit:4;stroke-dasharray:none;stroke-opacity:1"
       id="path38"
       inkscape:connector-curvature="0" />
    <path
       d="m 200.69712,122.47054 v 2.77394 q -1.45617,-1.2372 -3.11221,-1.84929 -1.64177,-0.61209 -3.49768,-0.61209 -3.65472,0 -5.59629,2.04464 -1.94157,2.03162 -1.94157,5.88649 0,3.84184 1.94157,5.88649 1.94157,2.03161 5.59629,2.03161 1.85591,0 3.49768,-0.61209 1.65604,-0.61209 3.11221,-1.84929 v 2.74789 q -1.51328,0.93768 -3.21215,1.40651 -1.6846,0.46884 -3.56906,0.46884 -4.83964,0 -7.62351,-2.69581 -2.78386,-2.70882 -2.78386,-7.38415 0,-4.68836 2.78386,-7.38416 2.78387,-2.70883 7.62351,-2.70883 1.91302,0 3.59761,0.46884 1.69888,0.45581 3.1836,1.38046 z"
       style="font-style:normal;font-weight:normal;font-size:40px;line-height:125%;font-family:sans-serif;letter-spacing:0px;word-spacing:0px;fill:#ffffff;fill-opacity:1;stroke:#ffffff;stroke-width:0.69800001;stroke-linecap:butt;stroke-linejoin:miter;stroke-miterlimit:4;stroke-dasharray:none;stroke-opacity:1"
       id="path40"
       inkscape:connector-curvature="0" />
    <path
       d="m 238.86281,123.56449 -3.91168,9.67624 h 7.83765 z m -1.62749,-2.59162 h 3.26926 l 8.12318,19.44364 h -2.998 l -1.94157,-4.98788 h -9.60792 l -1.94157,4.98788 h -3.04083 z"
       style="font-style:normal;font-weight:normal;font-size:40px;line-height:125%;font-family:sans-serif;letter-spacing:0px;word-spacing:0px;fill:#ffffff;fill-opacity:1;stroke:#ffffff;stroke-width:0.69800001;stroke-linecap:butt;stroke-linejoin:miter;stroke-miterlimit:4;stroke-dasharray:none;stroke-opacity:1"
       id="path42"
       inkscape:connector-curvature="0" />
    <path
       d="m 277.21144,123.13472 v 15.11994 h 3.48341 q 4.41135,0 6.45285,-1.82325 2.05578,-1.82325 2.05578,-5.75625 0,-3.90696 -2.05578,-5.71719 -2.0415,-1.82325 -6.45285,-1.82325 z m -2.8838,-2.16185 h 5.92464 q 6.19589,0 9.09396,2.3572 2.89808,2.34418 2.89808,7.34509 0,5.02695 -2.91235,7.38415 -2.91235,2.3572 -9.07969,2.3572 h -5.92464 z"
       style="font-style:normal;font-weight:normal;font-size:40px;line-height:125%;font-family:sans-serif;letter-spacing:0px;word-spacing:0px;fill:#ffffff;fill-opacity:1;stroke:#ffffff;stroke-width:0.69800001;stroke-linecap:butt;stroke-linejoin:miter;stroke-miterlimit:4;stroke-dasharray:none;stroke-opacity:1"
       id="path44"
       inkscape:connector-curvature="0" />
    <path
       d="m 321.42893,120.97287 h 13.47677 v 2.21394 h -10.59297 v 5.75626 h 10.15041 v 2.21394 h -10.15041 v 7.04556 h 10.84994 v 2.21394 h -13.73374 z"
       style="font-style:normal;font-weight:normal;font-size:40px;line-height:125%;font-family:sans-serif;letter-spacing:0px;word-spacing:0px;fill:#ffffff;fill-opacity:1;stroke:#ffffff;stroke-width:0.69800001;stroke-linecap:butt;stroke-linejoin:miter;stroke-miterlimit:4;stroke-dasharray:none;stroke-opacity:1"
       id="path46"
       inkscape:connector-curvature="0" />
  </g>
</svg>
