<?xml version="1.0" encoding="UTF-8" standalone="no"?>
<!-- Generator: Adobe Illustrator 24.1.3, SVG Export Plug-In . SVG Version: 6.00 Build 0)  -->

<svg
   xmlns:dc="http://purl.org/dc/elements/1.1/"
   xmlns:cc="http://creativecommons.org/ns#"
   xmlns:rdf="http://www.w3.org/1999/02/22-rdf-syntax-ns#"
   xmlns:svg="http://www.w3.org/2000/svg"
   xmlns="http://www.w3.org/2000/svg"
   xmlns:xlink="http://www.w3.org/1999/xlink"
   xmlns:sodipodi="http://sodipodi.sourceforge.net/DTD/sodipodi-0.dtd"
   xmlns:inkscape="http://www.inkscape.org/namespaces/inkscape"
   version="1.1"
   id="Layer_1"
   x="0px"
   y="0px"
   viewBox="0 0 490.52225 51.153243"
   xml:space="preserve"
   sodipodi:docname="atomiswave.svg"
   width="490.52225"
   height="51.15324"
   inkscape:version="0.92.5 (2060ec1f9f, 2020-04-08)"><metadata
   id="metadata76"><rdf:RDF><cc:Work
       rdf:about=""><dc:format>image/svg+xml</dc:format><dc:type
         rdf:resource="http://purl.org/dc/dcmitype/StillImage" /><dc:title /></cc:Work></rdf:RDF></metadata><defs
   id="defs74">
	<defs
   id="defs3">
		<rect
   y="0"
   x="0"
   height="68.199997"
   width="500"
   id="SVGID_1_" />
	</defs>
	<clipPath
   id="SVGID_2_">
		<use
   height="100%"
   width="100%"
   y="0"
   x="0"
   id="use5"
   style="overflow:visible"
   xlink:href="#SVGID_1_" />
	</clipPath>
	

		
		
		
		
		
		
		
		
		
		
		
		
		
			<linearGradient
   id="SVGID_3_"
   gradientUnits="userSpaceOnUse"
   x1="40.562199"
   y1="433.63391"
   x2="40.562199"
   y2="408.18451"
   gradientTransform="matrix(1,0,0,-1,-8.3622,488.2551)">
			<stop
   offset="0"
   style="stop-color:#C8C8C8"
   id="stop32" />
			<stop
   offset="1"
   style="stop-color:#979797"
   id="stop34" />
		</linearGradient>
		
		
			<linearGradient
   id="SVGID_4_"
   gradientUnits="userSpaceOnUse"
   x1="65.762199"
   y1="433.67239"
   x2="65.762199"
   y2="408.2135"
   gradientTransform="matrix(1,0,0,-1,-8.3622,488.2551)">
			<stop
   offset="0"
   style="stop-color:#C8C8C8"
   id="stop39" />
			<stop
   offset="1"
   style="stop-color:#9E9E9E"
   id="stop41" />
		</linearGradient>
		
		
			<linearGradient
   id="SVGID_5_"
   gradientUnits="userSpaceOnUse"
   x1="21.012199"
   y1="408.64731"
   x2="21.012199"
   y2="435.91571"
   gradientTransform="matrix(1,0,0,-1,-8.3622,488.2551)">
			<stop
   offset="0"
   style="stop-color:#C8C8C8"
   id="stop46" />
			<stop
   offset="1"
   style="stop-color:#8A8A8A"
   id="stop48" />
		</linearGradient>
		
		
			<linearGradient
   id="SVGID_6_"
   gradientUnits="userSpaceOnUse"
   x1="80.362198"
   y1="417.33789"
   x2="80.362198"
   y2="431.939"
   gradientTransform="matrix(1,0,0,-1,-8.3622,488.2551)">
			<stop
   offset="0"
   style="stop-color:#CCCCCC"
   id="stop53" />
			<stop
   offset="1"
   style="stop-color:#919191"
   id="stop55" />
		</linearGradient>
		
		
			<linearGradient
   id="SVGID_7_"
   gradientUnits="userSpaceOnUse"
   x1="53.9622"
   y1="414.67819"
   x2="53.9622"
   y2="434.63"
   gradientTransform="matrix(1,0,0,-1,-8.3622,488.2551)">
			<stop
   offset="0"
   style="stop-color:#CBCBCB"
   id="stop60" />
			<stop
   offset="1"
   style="stop-color:#8F8F8F"
   id="stop62" />
		</linearGradient>
		
	</defs><sodipodi:namedview
   pagecolor="#ffffff"
   bordercolor="#666666"
   borderopacity="1"
   objecttolerance="10"
   gridtolerance="10"
   guidetolerance="10"
   inkscape:pageopacity="0"
   inkscape:pageshadow="2"
   inkscape:window-width="1366"
   inkscape:window-height="740"
   id="namedview72"
   showgrid="false"
   inkscape:pagecheckerboard="true"
   inkscape:zoom="1.3974151"
   inkscape:cx="179.79036"
   inkscape:cy="-35.317021"
   inkscape:window-x="0"
   inkscape:window-y="0"
   inkscape:window-maximized="1"
   inkscape:current-layer="Layer_1" />
<path
   style="fill:#ffffff;stroke-width:1.28235841"
   d="m 469.34355,39.413151 h 3.7651 v 11.60033 h 1.52957 v -11.60033 h 3.76511 v -1.53739 h -9.05978 z"
   id="path8"
   inkscape:connector-curvature="0" /><path
   style="fill:#ffffff;stroke-width:1.28235841"
   d="m 488.28672,37.875761 -3.1768,11.18103 -3.17681,-11.18103 h -2.11787 v 13.27748 h 1.41191 v -7.82673 c 0,-0.41929 0,-2.09644 0,-3.35431 l 3.17681,11.04128 h 1.52957 l 3.17681,-11.18104 c 0,1.25787 0,2.93502 0,3.35431 v 7.82673 h 1.41191 v -13.27748 h -2.23553 z"
   id="path10"
   inkscape:connector-curvature="0" /><path
   style="fill:#ffffff;stroke-width:1.28235841"
   d="m 208.72786,0.13976 -9.76573,44.584381 c -0.82362,3.49408 1.05893,6.4291 4.00042,6.4291 h 8.94212 L 223.08231,0.13976 Z"
   id="path12"
   inkscape:connector-curvature="0" /><path
   style="fill:#ffffff;stroke-width:1.28235841"
   d="m 196.1383,0.13976 h -51.77016 l -11.17765,51.013481 h 14.35446 L 157.31068,6.56886 h 5.41234 c 0.94127,0 1.52957,0.97834 1.29425,2.09644 l -9.2951,42.487941 h 14.35446 L 178.84236,6.56886 h 5.41233 c 0.94128,0 1.52958,0.97834 1.29426,2.09644 l -9.2951,42.487941 h 14.11914 L 200.13872,6.56886 c 0.82362,-3.63384 -0.94127,-6.4291 -4.00042,-6.4291 z"
   id="path14"
   inkscape:connector-curvature="0" /><path
   style="fill:#ffffff;stroke-width:1.28235841"
   d="m 259.90972,19.14752 h -17.88423 c -0.94128,0 -1.52958,-0.97834 -1.29426,-2.09644 L 243.08442,6.4291 h 23.76721 L 268.26354,0 h -38.004 l -4.3534,19.14752 c -0.82362,3.494081 1.05894,6.429101 4.00042,6.429101 h 17.88424 c 0.94127,0 1.52957,0.97834 1.29425,2.09644 l -3.7651,17.05108 h -25.06146 l -1.41192,6.4291 h 39.29826 l 5.64765,-25.43686 c 0.82362,-3.63383 -0.94127,-6.568861 -3.88276,-6.568861 z"
   id="path16"
   inkscape:connector-curvature="0" /><path
   style="fill:#ffffff;stroke-width:1.28235841"
   d="M 132.0139,0.13976 H 98.010324 L 88.24459,44.724141 c -0.823617,3.49408 1.058935,6.4291 4.000418,6.4291 H 126.24858 L 136.01432,6.56886 c 0.82362,-3.63384 -1.05894,-6.4291 -4.00042,-6.4291 z m -10.82467,8.52554 -7.88319,36.058841 h -8.94211 c -0.94128,0 -1.52958,-0.97834 -1.29426,-2.09644 L 110.95286,6.56886 h 8.94211 c 1.05894,-0.13976 1.64724,0.83858 1.29426,2.09644 z"
   id="path18"
   inkscape:connector-curvature="0" /><path
   style="fill:#ffffff;stroke-width:1.28235841"
   d="m 319.44541,0.13976 -9.76574,44.584381 h -5.41233 c -0.94128,0 -1.52958,-0.97834 -1.29426,-2.09644 l 9.2951,-42.487941 h -14.23679 l -9.76574,44.584381 h -5.41233 c -0.94128,0 -1.52958,-0.97834 -1.29426,-2.09644 l 9.2951,-42.487941 h -14.35445 l -9.64808,44.584381 c -0.82362,3.49408 0.94128,6.4291 4.00042,6.4291 h 51.77016 L 333.79986,0.13976 Z"
   id="path20"
   inkscape:connector-curvature="0" /><path
   style="fill:#ffffff;stroke-width:1.28235841"
   d="m 446.51761,6.4291 h 23.76721 L 471.69674,0 H 433.69273 L 423.927,44.584381 c -0.82362,3.49407 1.05893,6.4291 4.00042,6.4291 H 461.931 l 1.41192,-6.4291 H 440.164 c -0.94127,0 -1.52957,-0.97834 -1.29425,-2.09644 l 3.7651,-17.05108 h 21.41402 l 1.41192,-6.429101 h -21.41402 z"
   id="path22"
   inkscape:connector-curvature="0" /><path
   style="fill:#ffffff;stroke-width:1.28235841"
   d="M 94.009899,0.13976 H 47.181441 l 1.058935,6.4291 h 15.531047 l -8.353821,38.155281 c -0.823616,3.49408 1.058935,6.4291 4.000422,6.4291 h 8.942118 L 78.125877,6.56886 h 14.472111 z"
   id="path24"
   inkscape:connector-curvature="0" /><path
   style="fill:#ffffff;stroke-width:1.28235841"
   d="M 38.945279,0.13976 H 11.177648 L 0,51.153241 h 14.354453 l 2.823827,-12.71843 h 14.589772 l 1.058935,12.71843 H 47.181441 L 43.181019,4.47242 C 42.9457,1.81692 41.298468,0.13976 38.945279,0.13976 Z M 18.472534,32.005721 24.120188,6.56886 h 3.647443 c 0.823616,0 1.294254,0.55905 1.411913,1.39763 l 2.11787,24.039231 z"
   id="path26"
   inkscape:connector-curvature="0" /><path
   style="fill:#ffffff;stroke-width:1.28235841"
   d="m 372.8628,4.33265 c -0.23532,-2.51573 -1.76489,-4.19289 -4.11808,-4.19289 h -27.76763 l -11.17765,51.013481 h 14.35445 l 2.82383,-12.71843 h 14.58977 l 1.05894,12.71843 h 14.35445 z M 348.27197,32.005721 353.91963,6.56886 h 3.64744 c 0.82361,0 1.29425,0.55905 1.41191,1.39763 l 2.11787,24.039231 z"
   id="path28"
   inkscape:connector-curvature="0" /><path
   style="fill:#ffffff;stroke-width:1.28235841"
   d="m 412.16105,0.13976 -9.76573,44.584381 h -3.64744 c -0.82362,0 -1.29426,-0.55905 -1.41192,-1.39763 L 393.57086,0.13976 h -14.35445 l 4.00042,46.680831 c 0.23532,2.51573 1.76489,4.19289 4.11808,4.19289 h 27.76763 L 426.28019,0 Z"
   id="path30"
   inkscape:connector-curvature="0" />
</svg>