<?xml version="1.0" encoding="UTF-8" standalone="no"?>
<!-- Generator: Adobe Illustrator 24.1.3, SVG Export Plug-In . SVG Version: 6.00 Build 0)  -->

<svg
   xmlns:dc="http://purl.org/dc/elements/1.1/"
   xmlns:cc="http://creativecommons.org/ns#"
   xmlns:rdf="http://www.w3.org/1999/02/22-rdf-syntax-ns#"
   xmlns:svg="http://www.w3.org/2000/svg"
   xmlns="http://www.w3.org/2000/svg"
   xmlns:xlink="http://www.w3.org/1999/xlink"
   xmlns:sodipodi="http://sodipodi.sourceforge.net/DTD/sodipodi-0.dtd"
   xmlns:inkscape="http://www.inkscape.org/namespaces/inkscape"
   version="1.1"
   id="Layer_1"
   x="0px"
   y="0px"
   viewBox="0 0 500 200.00001"
   xml:space="preserve"
   sodipodi:docname="atomiswave.svg"
   width="500"
   height="200"
   inkscape:version="0.92.5 (2060ec1f9f, 2020-04-08)"><metadata
   id="metadata76"><rdf:RDF><cc:Work
       rdf:about=""><dc:format>image/svg+xml</dc:format><dc:type
         rdf:resource="http://purl.org/dc/dcmitype/StillImage" /><dc:title></dc:title></cc:Work></rdf:RDF></metadata><defs
   id="defs74">
	<defs
   id="defs3">
		<rect
   y="0"
   x="0"
   height="68.199997"
   width="500"
   id="SVGID_1_" />
	</defs>
	<clipPath
   id="SVGID_2_">
		<use
   height="100%"
   width="100%"
   y="0"
   x="0"
   id="use5"
   style="overflow:visible"
   xlink:href="#SVGID_1_" />
	</clipPath>
	

		
		
		
		
		
		
		
		
		
		
		
		
		
			<linearGradient
   id="SVGID_3_"
   gradientUnits="userSpaceOnUse"
   x1="40.562199"
   y1="433.63391"
   x2="40.562199"
   y2="408.18451"
   gradientTransform="matrix(1,0,0,-1,-8.3622,488.2551)">
			<stop
   offset="0"
   style="stop-color:#C8C8C8"
   id="stop32" />
			<stop
   offset="1"
   style="stop-color:#979797"
   id="stop34" />
		</linearGradient>
		
		
			<linearGradient
   id="SVGID_4_"
   gradientUnits="userSpaceOnUse"
   x1="65.762199"
   y1="433.67239"
   x2="65.762199"
   y2="408.2135"
   gradientTransform="matrix(1,0,0,-1,-8.3622,488.2551)">
			<stop
   offset="0"
   style="stop-color:#C8C8C8"
   id="stop39" />
			<stop
   offset="1"
   style="stop-color:#9E9E9E"
   id="stop41" />
		</linearGradient>
		
		
			<linearGradient
   id="SVGID_5_"
   gradientUnits="userSpaceOnUse"
   x1="21.012199"
   y1="408.64731"
   x2="21.012199"
   y2="435.91571"
   gradientTransform="matrix(1,0,0,-1,-8.3622,488.2551)">
			<stop
   offset="0"
   style="stop-color:#C8C8C8"
   id="stop46" />
			<stop
   offset="1"
   style="stop-color:#8A8A8A"
   id="stop48" />
		</linearGradient>
		
		
			<linearGradient
   id="SVGID_6_"
   gradientUnits="userSpaceOnUse"
   x1="80.362198"
   y1="417.33789"
   x2="80.362198"
   y2="431.939"
   gradientTransform="matrix(1,0,0,-1,-8.3622,488.2551)">
			<stop
   offset="0"
   style="stop-color:#CCCCCC"
   id="stop53" />
			<stop
   offset="1"
   style="stop-color:#919191"
   id="stop55" />
		</linearGradient>
		
		
			<linearGradient
   id="SVGID_7_"
   gradientUnits="userSpaceOnUse"
   x1="53.9622"
   y1="414.67819"
   x2="53.9622"
   y2="434.63"
   gradientTransform="matrix(1,0,0,-1,-8.3622,488.2551)">
			<stop
   offset="0"
   style="stop-color:#CBCBCB"
   id="stop60" />
			<stop
   offset="1"
   style="stop-color:#8F8F8F"
   id="stop62" />
		</linearGradient>
		
	</defs><sodipodi:namedview
   pagecolor="#ffffff"
   bordercolor="#666666"
   borderopacity="1"
   objecttolerance="10"
   gridtolerance="10"
   guidetolerance="10"
   inkscape:pageopacity="0"
   inkscape:pageshadow="2"
   inkscape:window-width="1366"
   inkscape:window-height="740"
   id="namedview72"
   showgrid="false"
   inkscape:pagecheckerboard="true"
   inkscape:zoom="1.2776367"
   inkscape:cx="175.84603"
   inkscape:cy="37.970939"
   inkscape:window-x="0"
   inkscape:window-y="0"
   inkscape:window-maximized="1"
   inkscape:current-layer="Layer_1" />
<g
   id="g152"
   transform="matrix(1.4693378,0,0,1.3127365,187.7368,14.484431)"><path
     inkscape:connector-curvature="0"
     id="path37"
     d="m 39.3,54.500003 -5.6,-22.4 h -8.4 -8.6 l 8.6,34.5 5.4,21.9 h 8.6 8.4 z"
     style="fill:url(#SVGID_3_)" /><path
     inkscape:connector-curvature="0"
     id="path44"
     d="m 63,49.000003 -2.7,-10.3 h -8.4 -8.6 l 8.6,33.4 2.5,9.8 h 8.6 8.5 z"
     style="fill:url(#SVGID_4_)" /><path
     inkscape:connector-curvature="0"
     id="path51"
     d="M 16.6,32.100003 0,100.2 h 17.1 l 8.2,-33.599997 -8.6,-34.5 z"
     style="fill:url(#SVGID_5_)" /><path
     inkscape:connector-curvature="0"
     id="path58"
     d="m 63,49.000003 8.5,32.9 9.5,-36.5 H 64 Z"
     style="fill:url(#SVGID_6_)" /><path
     inkscape:connector-curvature="0"
     id="path65"
     d="m 39.3,54.500003 8.4,34 4.2,-16.4 -8.6,-33.4 z"
     style="fill:url(#SVGID_7_)" /></g><path
   style="fill:#ffffff;stroke-width:1.28235841"
   d="m 473.14892,118.08191 h 3.7651 v 11.60033 h 1.52957 v -11.60033 h 3.76511 v -1.53739 h -9.05978 z"
   id="path8"
   inkscape:connector-curvature="0" /><path
   style="fill:#ffffff;stroke-width:1.28235841"
   d="m 492.09209,116.54452 -3.1768,11.18103 -3.17681,-11.18103 h -2.11787 V 129.822 h 1.41191 v -7.82673 c 0,-0.41929 0,-2.09644 0,-3.35431 l 3.17681,11.04128 h 1.52957 l 3.17681,-11.18104 c 0,1.25787 0,2.93502 0,3.35431 v 7.82673 h 1.41191 v -13.27748 h -2.23553 z"
   id="path10"
   inkscape:connector-curvature="0" /><path
   style="fill:#ffffff;stroke-width:1.28235841"
   d="M 212.53323,78.808519 202.7675,123.3929 c -0.82362,3.49408 1.05893,6.4291 4.00042,6.4291 h 8.94212 l 11.17764,-51.013481 z"
   id="path12"
   inkscape:connector-curvature="0" /><path
   style="fill:#ffffff;stroke-width:1.28235841"
   d="M 199.94367,78.808519 H 148.17351 L 136.99586,129.822 h 14.35446 l 9.76573,-44.584381 h 5.41234 c 0.94127,0 1.52957,0.97834 1.29425,2.09644 L 158.52754,129.822 H 172.882 l 9.76573,-44.584381 h 5.41233 c 0.94128,0 1.52958,0.97834 1.29426,2.09644 l -9.2951,42.487941 h 14.11914 l 9.76573,-44.584381 c 0.82362,-3.63384 -0.94127,-6.4291 -4.00042,-6.4291 z"
   id="path14"
   inkscape:connector-curvature="0" /><path
   style="fill:#ffffff;stroke-width:1.28235841"
   d="m 263.71509,97.816279 h -17.88423 c -0.94128,0 -1.52958,-0.97834 -1.29426,-2.09644 l 2.35319,-10.62198 H 270.657 l 1.41191,-6.4291 h -38.004 l -4.3534,19.14752 c -0.82362,3.494081 1.05894,6.429101 4.00042,6.429101 h 17.88424 c 0.94127,0 1.52957,0.97834 1.29425,2.09644 l -3.7651,17.05108 h -25.06146 l -1.41192,6.4291 h 39.29826 l 5.64765,-25.43686 c 0.82362,-3.63383 -0.94127,-6.568861 -3.88276,-6.568861 z"
   id="path16"
   inkscape:connector-curvature="0" /><path
   style="fill:#ffffff;stroke-width:1.28235841"
   d="M 135.81927,78.808519 H 101.81569 L 92.049956,123.3929 c -0.823617,3.49408 1.058935,6.4291 4.000418,6.4291 h 34.003576 l 9.76574,-44.584381 c 0.82362,-3.63384 -1.05894,-6.4291 -4.00042,-6.4291 z m -10.82467,8.52554 -7.88319,36.058841 h -8.94211 c -0.94128,0 -1.52958,-0.97834 -1.29426,-2.09644 l 7.88319,-36.058841 h 8.94211 c 1.05894,-0.13976 1.64724,0.83858 1.29426,2.09644 z"
   id="path18"
   inkscape:connector-curvature="0" /><path
   style="fill:#ffffff;stroke-width:1.28235841"
   d="m 323.25078,78.808519 -9.76574,44.584381 h -5.41233 c -0.94128,0 -1.52958,-0.97834 -1.29426,-2.09644 l 9.2951,-42.487941 h -14.23679 l -9.76574,44.584381 h -5.41233 c -0.94128,0 -1.52958,-0.97834 -1.29426,-2.09644 l 9.2951,-42.487941 H 280.30508 L 270.657,123.3929 c -0.82362,3.49408 0.94128,6.4291 4.00042,6.4291 h 51.77016 l 11.17765,-51.013481 z"
   id="path20"
   inkscape:connector-curvature="0" /><path
   style="fill:#ffffff;stroke-width:1.28235841"
   d="m 450.32298,85.097859 h 23.76721 l 1.41192,-6.4291 H 437.4981 l -9.76573,44.584381 c -0.82362,3.49407 1.05893,6.4291 4.00042,6.4291 h 34.00358 l 1.41192,-6.4291 h -23.17892 c -0.94127,0 -1.52957,-0.97834 -1.29425,-2.09644 l 3.7651,-17.05108 h 21.41402 l 1.41192,-6.429101 h -21.41402 z"
   id="path22"
   inkscape:connector-curvature="0" /><path
   style="fill:#ffffff;stroke-width:1.28235841"
   d="M 97.815265,78.808519 H 50.986807 l 1.058935,6.4291 H 67.576789 L 59.222968,123.3929 c -0.823616,3.49408 1.058935,6.4291 4.000422,6.4291 h 8.942118 l 9.765735,-44.584381 h 14.472111 z"
   id="path24"
   inkscape:connector-curvature="0" /><path
   style="fill:#ffffff;stroke-width:1.28235841"
   d="M 42.750645,78.808519 H 14.983014 L 3.8053657,129.822 H 18.159819 l 2.823827,-12.71843 H 35.573418 L 36.632353,129.822 H 50.986807 L 46.986385,83.141179 c -0.235319,-2.6555 -1.882551,-4.33266 -4.23574,-4.33266 z M 22.2779,110.67448 27.925554,85.237619 h 3.647443 c 0.823616,0 1.294254,0.55905 1.411913,1.39763 l 2.11787,24.039231 z"
   id="path26"
   inkscape:connector-curvature="0" /><path
   style="fill:#ffffff;stroke-width:1.28235841"
   d="m 376.66817,83.001409 c -0.23532,-2.51573 -1.76489,-4.19289 -4.11808,-4.19289 H 344.78246 L 333.60481,129.822 h 14.35445 l 2.82383,-12.71843 h 14.58977 l 1.05894,12.71843 h 14.35445 z M 352.07734,110.67448 357.725,85.237619 h 3.64744 c 0.82361,0 1.29425,0.55905 1.41191,1.39763 l 2.11787,24.039231 z"
   id="path28"
   inkscape:connector-curvature="0" /><path
   style="fill:#ffffff;stroke-width:1.28235841"
   d="m 415.96642,78.808519 -9.76573,44.584381 h -3.64744 c -0.82362,0 -1.29426,-0.55905 -1.41192,-1.39763 l -3.7651,-43.186751 h -14.35445 l 4.00042,46.680831 c 0.23532,2.51573 1.76489,4.19289 4.11808,4.19289 h 27.76763 l 11.17765,-51.013481 z"
   id="path30"
   inkscape:connector-curvature="0" />
</svg>