<?xml version="1.0" encoding="UTF-8" standalone="no"?>
<svg
   xmlns:dc="http://purl.org/dc/elements/1.1/"
   xmlns:cc="http://creativecommons.org/ns#"
   xmlns:rdf="http://www.w3.org/1999/02/22-rdf-syntax-ns#"
   xmlns:svg="http://www.w3.org/2000/svg"
   xmlns="http://www.w3.org/2000/svg"
   xmlns:sodipodi="http://sodipodi.sourceforge.net/DTD/sodipodi-0.dtd"
   xmlns:inkscape="http://www.inkscape.org/namespaces/inkscape"
   width="667.03027"
   height="71.356308"
   viewBox="0 0 176.48508 18.87969"
   version="1.1"
   id="svg8"
   sodipodi:docname="auto-lastplayed.svg"
   inkscape:version="1.0.1 (1.0.1+r73)">
  <defs
     id="defs2">
    <rect
       x="2.0913119"
       y="8.7527943"
       width="127.69708"
       height="34.515415"
       id="rect12" />
    <rect
       x="2.0913119"
       y="8.7527943"
       width="127.69708"
       height="34.515415"
       id="rect12-5" />
    <rect
       x="2.0913119"
       y="8.7527943"
       width="127.69708"
       height="34.515415"
       id="rect25" />
  </defs>
  <sodipodi:namedview
     id="base"
     pagecolor="#8a8a8a"
     bordercolor="#666666"
     borderopacity="1.0"
     inkscape:pageopacity="0"
     inkscape:pageshadow="2"
     inkscape:zoom="1.8539101"
     inkscape:cx="247.72249"
     inkscape:cy="81.192157"
     inkscape:document-units="mm"
     inkscape:current-layer="layer1"
     inkscape:document-rotation="0"
     showgrid="false"
     units="px"
     inkscape:window-width="1366"
     inkscape:window-height="740"
     inkscape:window-x="0"
     inkscape:window-y="0"
     inkscape:window-maximized="1"
     showguides="true"
     inkscape:guide-bbox="true"
     inkscape:object-nodes="false"
     inkscape:snap-intersection-paths="false"
     inkscape:object-paths="false"
     inkscape:snap-smooth-nodes="false"
     inkscape:snap-midpoints="false"
     inkscape:snap-object-midpoints="false"
     inkscape:snap-center="false"
     inkscape:snap-others="false"
     inkscape:snap-nodes="false">
    <sodipodi:guide
       position="34.433806,43.856067"
       orientation="0,-1"
       id="guide415" />
    <sodipodi:guide
       position="-20.568996,43.856068"
       orientation="1,0"
       id="guide417" />
  </sodipodi:namedview>
  <metadata
     id="metadata5">
    <rdf:RDF>
      <cc:Work
         rdf:about="">
        <dc:format>image/svg+xml</dc:format>
        <dc:type
           rdf:resource="http://purl.org/dc/dcmitype/StillImage" />
        <dc:title />
      </cc:Work>
    </rdf:RDF>
  </metadata>
  <g
     inkscape:label="Layer 1"
     inkscape:groupmode="layer"
     id="layer1"
     transform="translate(-23.261442,-4.1677704)">
    <g
       aria-label="last played"
       transform="matrix(1.9616158,0,0,2.966644,19.15814,-47.404271)"
       id="text10"
       style="font-style:normal;font-weight:normal;font-size:16.9333px;line-height:125%;font-family:sans-serif;letter-spacing:0px;word-spacing:0px;white-space:pre;shape-inside:url(#rect12);fill:#ffffff;fill-opacity:1;stroke:none;stroke-width:0.264583px;stroke-linecap:butt;stroke-linejoin:miter;stroke-opacity:1">
      <path
         d="m 5.2667906,21.617292 h 4.233325 v 1.058332 H 2.0917969 v -5.291657 h 3.1749937 z"
         style="font-style:normal;font-variant:normal;font-weight:normal;font-stretch:normal;font-size:16.9333px;font-family:'8-bit Arcade In';-inkscape-font-specification:'8-bit Arcade In';fill:#ffffff"
         id="path1157" />
      <path
         d="m 17.966766,22.675624 h -3.174994 v -1.058332 h -1.058331 v 1.058332 h -3.174994 v -4.233325 h 1.058331 v -1.058332 h 5.291656 v 1.058332 h 1.058332 z m -3.174994,-2.116663 v -2.116662 h -1.058331 v 2.116662 z"
         style="font-style:normal;font-variant:normal;font-weight:normal;font-stretch:normal;font-size:16.9333px;font-family:'8-bit Arcade In';-inkscape-font-specification:'8-bit Arcade In';fill:#ffffff"
         id="path1159" />
      <path
         d="m 25.375084,22.675624 h -6.349987 v -1.058332 h 4.233325 V 20.558961 H 20.083428 V 19.50063 h -1.058331 v -1.058331 h 1.058331 v -1.058332 h 6.349988 v 1.058332 h -4.233325 v 1.058331 h 3.174993 v 1.058331 h 1.058332 v 1.058331 h -1.058332 z"
         style="font-style:normal;font-variant:normal;font-weight:normal;font-stretch:normal;font-size:16.9333px;font-family:'8-bit Arcade In';-inkscape-font-specification:'8-bit Arcade In';fill:#ffffff"
         id="path1161" />
      <path
         d="m 33.841734,22.675624 h -5.291656 v -1.058332 h 1.058331 v -3.174993 h -2.116662 v -1.058332 h 7.408319 v 1.058332 h -2.116663 v 3.174993 h 1.058331 z"
         style="font-style:normal;font-variant:normal;font-weight:normal;font-stretch:normal;font-size:16.9333px;font-family:'8-bit Arcade In';-inkscape-font-specification:'8-bit Arcade In';fill:#ffffff"
         id="path1163" />
      <path
         d="m 44.425047,22.675624 h -3.174994 v -5.291657 h 6.349988 v 1.058332 h 1.058331 v 2.116662 h -1.058331 v 1.058331 h -3.174994 z m 1.058331,-2.116663 v -2.116662 h -1.058331 v 2.116662 z"
         style="font-style:normal;font-variant:normal;font-weight:normal;font-stretch:normal;font-size:16.9333px;font-family:'8-bit Arcade In';-inkscape-font-specification:'8-bit Arcade In';fill:#ffffff"
         id="path1165" />
      <path
         d="m 52.891699,21.617292 h 4.233325 v 1.058332 h -7.408319 v -5.291657 h 3.174994 z"
         style="font-style:normal;font-variant:normal;font-weight:normal;font-stretch:normal;font-size:16.9333px;font-family:'8-bit Arcade In';-inkscape-font-specification:'8-bit Arcade In';fill:#ffffff"
         id="path1167" />
      <path
         d="m 65.591672,22.675624 h -3.174994 v -1.058332 h -1.058331 v 1.058332 h -3.174994 v -4.233325 h 1.058332 v -1.058332 h 5.291656 v 1.058332 h 1.058331 z m -3.174994,-2.116663 v -2.116662 h -1.058331 v 2.116662 z"
         style="font-style:normal;font-variant:normal;font-weight:normal;font-stretch:normal;font-size:16.9333px;font-family:'8-bit Arcade In';-inkscape-font-specification:'8-bit Arcade In';fill:#ffffff"
         id="path1169" />
      <path
         d="M 71.941658,22.675624 H 68.766664 V 20.558961 H 67.708333 V 19.50063 h -1.058331 v -2.116663 h 2.116662 v 1.058332 h 1.058331 v 1.058331 h 1.058332 v -1.058331 h 1.058331 v -1.058332 h 2.116662 v 2.116663 h -1.058331 v 1.058331 h -1.058331 z"
         style="font-style:normal;font-variant:normal;font-weight:normal;font-stretch:normal;font-size:16.9333px;font-family:'8-bit Arcade In';-inkscape-font-specification:'8-bit Arcade In';fill:#ffffff"
         id="path1171" />
      <path
         d="m 78.291647,21.617292 h 4.233325 v 1.058332 h -7.408319 v -5.291657 h 7.408319 v 1.058332 h -4.233325 v 1.058331 h 3.174994 v 1.058331 h -3.174994 z"
         style="font-style:normal;font-variant:normal;font-weight:normal;font-stretch:normal;font-size:16.9333px;font-family:'8-bit Arcade In';-inkscape-font-specification:'8-bit Arcade In';fill:#ffffff"
         id="path1173" />
      <path
         d="m 89.933293,22.675624 h -6.349988 v -5.291657 h 6.349988 v 1.058332 h 1.058331 v 3.174993 H 89.933293 Z M 87.81663,21.617292 v -3.174993 h -1.058331 v 3.174993 z"
         style="font-style:normal;font-variant:normal;font-weight:normal;font-stretch:normal;font-size:16.9333px;font-family:'8-bit Arcade In';-inkscape-font-specification:'8-bit Arcade In';fill:#ffffff"
         id="path1175" />
    </g>
    <g
       aria-label="last played"
       transform="matrix(1.9616158,0,0,2.966644,19.179893,-47.362734)"
       id="text10-5"
       style="font-style:normal;font-weight:normal;font-size:16.9333px;line-height:125%;font-family:sans-serif;letter-spacing:0px;word-spacing:0px;white-space:pre;shape-inside:url(#rect12-5);fill:#808080;fill-opacity:1;stroke:none;stroke-width:0.264583px;stroke-linecap:butt;stroke-linejoin:miter;stroke-opacity:1">
      <path
         d="M 10.558447,23.733955 H 2.0917969 V 22.675624 H 9.5001156 V 21.617292 H 10.558447 Z M 5.2667906,21.617292 v -4.233325 h 1.0583313 v 4.233325 z"
         style="font-style:normal;font-variant:normal;font-weight:normal;font-stretch:normal;font-size:16.9333px;font-family:'8-bit Arcade Out';-inkscape-font-specification:'8-bit Arcade Out';fill:#808080"
         id="path1178" />
      <path
         d="m 17.966766,18.442299 h -1.058332 v -1.058332 h 1.058332 v 1.058332 h 1.058331 v 5.291656 h -8.46665 v -1.058331 h 3.174994 v -1.058332 h 1.058331 v 1.058332 h 3.174994 z m -4.233325,2.116662 v -2.116662 h 1.058331 v 2.116662 z"
         style="font-style:normal;font-variant:normal;font-weight:normal;font-stretch:normal;font-size:16.9333px;font-family:'8-bit Arcade Out';-inkscape-font-specification:'8-bit Arcade Out';fill:#808080"
         id="path1180" />
      <path
         d="M 26.433416,20.558961 H 25.375084 V 19.50063 h -3.174993 v -1.058331 h 4.233325 v -1.058332 h 1.058331 v 2.116663 h -1.058331 v 1.058331 h 1.058331 v 2.116663 h -1.058331 v 1.058331 h -7.408319 v -1.058331 h 6.349987 v -1.058332 h 1.058332 z m -6.349988,0 H 19.025097 V 19.50063 h 1.058331 v 1.058331 h 3.174994 v 1.058331 h -3.174994 z"
         style="font-style:normal;font-variant:normal;font-weight:normal;font-stretch:normal;font-size:16.9333px;font-family:'8-bit Arcade Out';-inkscape-font-specification:'8-bit Arcade Out';fill:#808080"
         id="path1182" />
      <path
         d="m 33.841734,21.617292 h -1.058331 v -3.174993 h 2.116663 v -1.058332 h 1.058331 v 2.116663 h -2.116663 v 2.116662 h 1.058332 v 2.116663 h -6.349988 v -1.058331 h 5.291656 z m -6.349987,-3.174993 h 2.116662 v 1.058331 h -2.116662 z"
         style="font-style:normal;font-variant:normal;font-weight:normal;font-stretch:normal;font-size:16.9333px;font-family:'8-bit Arcade Out';-inkscape-font-specification:'8-bit Arcade Out';fill:#808080"
         id="path1184" />
      <path
         d="m 48.658372,18.442299 h -1.058331 v -1.058332 h 1.058331 v 1.058332 h 1.058331 v 3.174993 h -1.058331 v 1.058332 h -3.174994 v 1.058331 h -4.233325 v -1.058331 h 3.174994 v -1.058332 h 3.174994 v -1.058331 h 1.058331 z m -4.233325,2.116662 v -2.116662 h 1.058331 v 2.116662 z"
         style="font-style:normal;font-variant:normal;font-weight:normal;font-stretch:normal;font-size:16.9333px;font-family:'8-bit Arcade Out';-inkscape-font-specification:'8-bit Arcade Out';fill:#808080"
         id="path1186" />
      <path
         d="m 58.183355,23.733955 h -8.46665 v -1.058331 h 7.408319 v -1.058332 h 1.058331 z m -5.291656,-2.116663 v -4.233325 h 1.058331 v 4.233325 z"
         style="font-style:normal;font-variant:normal;font-weight:normal;font-stretch:normal;font-size:16.9333px;font-family:'8-bit Arcade Out';-inkscape-font-specification:'8-bit Arcade Out';fill:#808080"
         id="path1188" />
      <path
         d="m 65.591672,18.442299 h -1.058331 v -1.058332 h 1.058331 v 1.058332 h 1.058331 v 5.291656 h -8.46665 v -1.058331 h 3.174994 v -1.058332 h 1.058331 v 1.058332 h 3.174994 z m -4.233325,2.116662 v -2.116662 h 1.058331 v 2.116662 z"
         style="font-style:normal;font-variant:normal;font-weight:normal;font-stretch:normal;font-size:16.9333px;font-family:'8-bit Arcade Out';-inkscape-font-specification:'8-bit Arcade Out';fill:#808080"
         id="path1190" />
      <path
         d="m 72.999989,23.733955 h -4.233325 v -1.058331 h 3.174994 v -2.116663 h 1.058331 V 19.50063 h 1.058331 v -2.116663 h 1.058332 v 3.174994 H 74.05832 v 1.058331 H 72.999989 Z M 67.708333,20.558961 H 66.650002 V 19.50063 h 1.058331 v 1.058331 h 1.058331 v 1.058331 h -1.058331 z m 2.116662,-2.116662 h -1.058331 v -1.058332 h 1.058331 v 1.058332 h 1.058332 v 1.058331 h -1.058332 z"
         style="font-style:normal;font-variant:normal;font-weight:normal;font-stretch:normal;font-size:16.9333px;font-family:'8-bit Arcade Out';-inkscape-font-specification:'8-bit Arcade Out';fill:#808080"
         id="path1192" />
      <path
         d="m 82.524972,21.617292 h -4.233325 v -1.058331 h 3.174994 V 19.50063 h -3.174994 v -1.058331 h 4.233325 v -1.058332 h 1.058331 v 2.116663 h -1.058331 v 2.116662 h 1.058331 v 2.116663 h -8.46665 v -1.058331 h 7.408319 z"
         style="font-style:normal;font-variant:normal;font-weight:normal;font-stretch:normal;font-size:16.9333px;font-family:'8-bit Arcade Out';-inkscape-font-specification:'8-bit Arcade Out';fill:#808080"
         id="path1194" />
      <path
         d="m 90.991624,18.442299 h -1.058331 v -1.058332 h 1.058331 v 1.058332 h 1.058331 v 4.233325 h -1.058331 v 1.058331 h -7.408319 v -1.058331 h 6.349988 v -1.058332 h 1.058331 z m -4.233325,3.174993 v -3.174993 h 1.058331 v 3.174993 z"
         style="font-style:normal;font-variant:normal;font-weight:normal;font-stretch:normal;font-size:16.9333px;font-family:'8-bit Arcade Out';-inkscape-font-specification:'8-bit Arcade Out';fill:#808080"
         id="path1196" />
    </g>
  </g>
</svg>
