<?xml version="1.0" encoding="UTF-8" standalone="no"?>
<svg
   xmlns:dc="http://purl.org/dc/elements/1.1/"
   xmlns:cc="http://creativecommons.org/ns#"
   xmlns:rdf="http://www.w3.org/1999/02/22-rdf-syntax-ns#"
   xmlns:svg="http://www.w3.org/2000/svg"
   xmlns="http://www.w3.org/2000/svg"
   xmlns:sodipodi="http://sodipodi.sourceforge.net/DTD/sodipodi-0.dtd"
   xmlns:inkscape="http://www.inkscape.org/namespaces/inkscape"
   width="604.17645"
   height="71.400833"
   viewBox="0 0 159.85501 18.891471"
   version="1.1"
   id="svg8"
   sodipodi:docname="auto-neverplayed.svg"
   inkscape:version="1.0.1 (1.0.1+r73)">
  <defs
     id="defs2">
    <rect
       x="2.0913119"
       y="8.7527943"
       width="127.69708"
       height="34.515415"
       id="rect12" />
    <rect
       x="2.0913119"
       y="8.7527943"
       width="127.69708"
       height="34.515415"
       id="rect12-5" />
    <rect
       x="2.0913119"
       y="8.7527943"
       width="127.69708"
       height="34.515415"
       id="rect25" />
  </defs>
  <sodipodi:namedview
     id="base"
     pagecolor="#8a8a8a"
     bordercolor="#666666"
     borderopacity="1.0"
     inkscape:pageopacity="0"
     inkscape:pageshadow="2"
     inkscape:zoom="1.8539101"
     inkscape:cx="223.05723"
     inkscape:cy="21.958219"
     inkscape:document-units="mm"
     inkscape:current-layer="layer1"
     inkscape:document-rotation="0"
     showgrid="false"
     units="px"
     inkscape:window-width="1366"
     inkscape:window-height="740"
     inkscape:window-x="0"
     inkscape:window-y="0"
     inkscape:window-maximized="1"
     showguides="true"
     inkscape:guide-bbox="true"
     inkscape:object-nodes="false"
     inkscape:snap-intersection-paths="false"
     inkscape:object-paths="false"
     inkscape:snap-smooth-nodes="false"
     inkscape:snap-midpoints="false"
     inkscape:snap-object-midpoints="false"
     inkscape:snap-center="false"
     inkscape:snap-others="false"
     inkscape:snap-nodes="false">
    <sodipodi:guide
       position="34.435819,43.826312"
       orientation="0,-1"
       id="guide415" />
    <sodipodi:guide
       position="-20.566984,43.826313"
       orientation="1,0"
       id="guide417" />
  </sodipodi:namedview>
  <metadata
     id="metadata5">
    <rdf:RDF>
      <cc:Work
         rdf:about="">
        <dc:format>image/svg+xml</dc:format>
        <dc:type
           rdf:resource="http://purl.org/dc/dcmitype/StillImage" />
        <dc:title />
      </cc:Work>
    </rdf:RDF>
  </metadata>
  <g
     inkscape:label="Layer 1"
     inkscape:groupmode="layer"
     id="layer1"
     transform="translate(-23.259429,-4.1677704)">
    <g
       aria-label="not played"
       transform="matrix(1.9616158,0,0,2.966644,19.15814,-47.404271)"
       id="text10"
       style="font-style:normal;font-weight:normal;font-size:16.9333px;line-height:125%;font-family:sans-serif;letter-spacing:0px;word-spacing:0px;white-space:pre;shape-inside:url(#rect12);fill:#ffffff;fill-opacity:1;stroke:none;stroke-width:0.264583px;stroke-linecap:butt;stroke-linejoin:miter;stroke-opacity:1">
      <path
         d="M 9.5001156,22.675624 H 7.3834531 V 21.617292 H 5.2667906 V 20.558961 H 4.2084594 v 2.116663 H 2.0917969 v -5.291657 h 2.1166625 v 1.058332 h 2.1166625 v 1.058331 h 1.0583312 v -2.116663 h 2.1166625 z"
         style="font-style:normal;font-variant:normal;font-weight:normal;font-stretch:normal;font-size:16.9333px;font-family:'8-bit Arcade In';-inkscape-font-specification:'8-bit Arcade In';fill:#ffffff"
         id="path1255" />
      <path
         d="m 16.908434,22.675624 h -5.291656 v -1.058332 h -1.058331 v -3.174993 h 1.058331 v -1.058332 h 5.291656 v 1.058332 h 1.058332 v 3.174993 h -1.058332 z m -2.116662,-1.058332 v -3.174993 h -1.058331 v 3.174993 z"
         style="font-style:normal;font-variant:normal;font-weight:normal;font-stretch:normal;font-size:16.9333px;font-family:'8-bit Arcade In';-inkscape-font-specification:'8-bit Arcade In';fill:#ffffff"
         id="path1257" />
      <path
         d="m 25.375084,22.675624 h -5.291656 v -1.058332 h 1.058331 v -3.174993 h -2.116662 v -1.058332 h 7.408319 v 1.058332 h -2.116663 v 3.174993 h 1.058331 z"
         style="font-style:normal;font-variant:normal;font-weight:normal;font-stretch:normal;font-size:16.9333px;font-family:'8-bit Arcade In';-inkscape-font-specification:'8-bit Arcade In';fill:#ffffff"
         id="path1259" />
      <path
         d="m 35.958397,22.675624 h -3.174994 v -5.291657 h 6.349988 v 1.058332 h 1.058331 v 2.116662 h -1.058331 v 1.058331 h -3.174994 z m 1.058331,-2.116663 v -2.116662 h -1.058331 v 2.116662 z"
         style="font-style:normal;font-variant:normal;font-weight:normal;font-stretch:normal;font-size:16.9333px;font-family:'8-bit Arcade In';-inkscape-font-specification:'8-bit Arcade In';fill:#ffffff"
         id="path1261" />
      <path
         d="m 44.425047,21.617292 h 4.233325 v 1.058332 h -7.408319 v -5.291657 h 3.174994 z"
         style="font-style:normal;font-variant:normal;font-weight:normal;font-stretch:normal;font-size:16.9333px;font-family:'8-bit Arcade In';-inkscape-font-specification:'8-bit Arcade In';fill:#ffffff"
         id="path1263" />
      <path
         d="M 57.125024,22.675624 H 53.95003 v -1.058332 h -1.058331 v 1.058332 h -3.174994 v -4.233325 h 1.058332 v -1.058332 h 5.291656 v 1.058332 h 1.058331 z M 53.95003,20.558961 v -2.116662 h -1.058331 v 2.116662 z"
         style="font-style:normal;font-variant:normal;font-weight:normal;font-stretch:normal;font-size:16.9333px;font-family:'8-bit Arcade In';-inkscape-font-specification:'8-bit Arcade In';fill:#ffffff"
         id="path1265" />
      <path
         d="M 63.47501,22.675624 H 60.300016 V 20.558961 H 59.241685 V 19.50063 h -1.058332 v -2.116663 h 2.116663 v 1.058332 h 1.058331 v 1.058331 h 1.058331 v -1.058331 h 1.058332 v -1.058332 h 2.116662 v 2.116663 h -1.058331 v 1.058331 H 63.47501 Z"
         style="font-style:normal;font-variant:normal;font-weight:normal;font-stretch:normal;font-size:16.9333px;font-family:'8-bit Arcade In';-inkscape-font-specification:'8-bit Arcade In';fill:#ffffff"
         id="path1267" />
      <path
         d="m 69.824995,21.617292 h 4.233325 v 1.058332 h -7.408318 v -5.291657 h 7.408318 v 1.058332 h -4.233325 v 1.058331 h 3.174994 v 1.058331 h -3.174994 z"
         style="font-style:normal;font-variant:normal;font-weight:normal;font-stretch:normal;font-size:16.9333px;font-family:'8-bit Arcade In';-inkscape-font-specification:'8-bit Arcade In';fill:#ffffff"
         id="path1269" />
      <path
         d="m 81.466641,22.675624 h -6.349988 v -5.291657 h 6.349988 v 1.058332 h 1.058331 v 3.174993 h -1.058331 z m -2.116663,-1.058332 v -3.174993 h -1.058331 v 3.174993 z"
         style="font-style:normal;font-variant:normal;font-weight:normal;font-stretch:normal;font-size:16.9333px;font-family:'8-bit Arcade In';-inkscape-font-specification:'8-bit Arcade In';fill:#ffffff"
         id="path1271" />
    </g>
    <g
       aria-label="not played"
       transform="matrix(1.9616158,0,0,2.966644,19.156127,-47.350955)"
       id="text10-5"
       style="font-style:normal;font-weight:normal;font-size:16.9333px;line-height:125%;font-family:sans-serif;letter-spacing:0px;word-spacing:0px;white-space:pre;shape-inside:url(#rect12-5);fill:#808080;fill-opacity:1;stroke:none;stroke-width:0.264583px;stroke-linecap:butt;stroke-linejoin:miter;stroke-opacity:1">
      <path
         d="M 5.2667906,23.733955 H 2.0917969 v -1.058331 h 2.1166625 v -2.116663 h 1.0583312 v 1.058331 h 2.1166625 v 1.058332 h 2.1166625 v -5.291657 h 1.0583314 v 6.349988 H 7.3834531 V 22.675624 H 5.2667906 Z M 6.3251219,19.50063 V 18.442299 H 7.3834531 V 19.50063 Z M 4.2084594,18.442299 v -1.058332 h 1.0583312 v 1.058332 z"
         style="font-style:normal;font-variant:normal;font-weight:normal;font-stretch:normal;font-size:16.9333px;font-family:'8-bit Arcade Out';-inkscape-font-specification:'8-bit Arcade Out';fill:#808080"
         id="path1274" />
      <path
         d="m 11.616778,22.675624 h -1.058331 v -1.058332 h 1.058331 v 1.058332 h 5.291656 v -1.058332 h 1.058332 v -3.174993 h -1.058332 v -1.058332 h 1.058332 v 1.058332 h 1.058331 v 4.233325 h -1.058331 v 1.058331 h -6.349988 z m 2.116663,-1.058332 v -3.174993 h 1.058331 v 3.174993 z"
         style="font-style:normal;font-variant:normal;font-weight:normal;font-stretch:normal;font-size:16.9333px;font-family:'8-bit Arcade Out';-inkscape-font-specification:'8-bit Arcade Out';fill:#808080"
         id="path1276" />
      <path
         d="m 25.375084,21.617292 h -1.058331 v -3.174993 h 2.116663 v -1.058332 h 1.058331 v 2.116663 h -2.116663 v 2.116662 h 1.058332 v 2.116663 h -6.349988 v -1.058331 h 5.291656 z m -6.349987,-3.174993 h 2.116662 v 1.058331 h -2.116662 z"
         style="font-style:normal;font-variant:normal;font-weight:normal;font-stretch:normal;font-size:16.9333px;font-family:'8-bit Arcade Out';-inkscape-font-specification:'8-bit Arcade Out';fill:#808080"
         id="path1278" />
      <path
         d="m 40.191722,18.442299 h -1.058331 v -1.058332 h 1.058331 v 1.058332 h 1.058331 v 3.174993 h -1.058331 v 1.058332 h -3.174994 v 1.058331 h -4.233325 v -1.058331 h 3.174994 v -1.058332 h 3.174994 v -1.058331 h 1.058331 z m -4.233325,2.116662 v -2.116662 h 1.058331 v 2.116662 z"
         style="font-style:normal;font-variant:normal;font-weight:normal;font-stretch:normal;font-size:16.9333px;font-family:'8-bit Arcade Out';-inkscape-font-specification:'8-bit Arcade Out';fill:#808080"
         id="path1280" />
      <path
         d="m 49.716703,23.733955 h -8.46665 v -1.058331 h 7.408319 v -1.058332 h 1.058331 z m -5.291656,-2.116663 v -4.233325 h 1.058331 v 4.233325 z"
         style="font-style:normal;font-variant:normal;font-weight:normal;font-stretch:normal;font-size:16.9333px;font-family:'8-bit Arcade Out';-inkscape-font-specification:'8-bit Arcade Out';fill:#808080"
         id="path1282" />
      <path
         d="m 57.125024,18.442299 h -1.058331 v -1.058332 h 1.058331 v 1.058332 h 1.058331 v 5.291656 h -8.46665 v -1.058331 h 3.174994 v -1.058332 h 1.058331 v 1.058332 h 3.174994 z m -4.233325,2.116662 v -2.116662 h 1.058331 v 2.116662 z"
         style="font-style:normal;font-variant:normal;font-weight:normal;font-stretch:normal;font-size:16.9333px;font-family:'8-bit Arcade Out';-inkscape-font-specification:'8-bit Arcade Out';fill:#808080"
         id="path1284" />
      <path
         d="m 64.533341,23.733955 h -4.233325 v -1.058331 h 3.174994 v -2.116663 h 1.058331 V 19.50063 h 1.058331 v -2.116663 h 1.058331 v 3.174994 h -1.058331 v 1.058331 H 64.533341 Z M 59.241685,20.558961 H 58.183353 V 19.50063 h 1.058332 v 1.058331 h 1.058331 v 1.058331 h -1.058331 z m 2.116662,-2.116662 h -1.058331 v -1.058332 h 1.058331 v 1.058332 h 1.058331 v 1.058331 h -1.058331 z"
         style="font-style:normal;font-variant:normal;font-weight:normal;font-stretch:normal;font-size:16.9333px;font-family:'8-bit Arcade Out';-inkscape-font-specification:'8-bit Arcade Out';fill:#808080"
         id="path1286" />
      <path
         d="m 74.05832,21.617292 h -4.233325 v -1.058331 h 3.174994 V 19.50063 h -3.174994 v -1.058331 h 4.233325 v -1.058332 h 1.058332 V 19.50063 H 74.05832 v 2.116662 h 1.058332 v 2.116663 h -8.46665 v -1.058331 h 7.408318 z"
         style="font-style:normal;font-variant:normal;font-weight:normal;font-stretch:normal;font-size:16.9333px;font-family:'8-bit Arcade Out';-inkscape-font-specification:'8-bit Arcade Out';fill:#808080"
         id="path1288" />
      <path
         d="m 82.524972,18.442299 h -1.058331 v -1.058332 h 1.058331 v 1.058332 h 1.058331 v 4.233325 h -1.058331 v 1.058331 h -7.408319 v -1.058331 h 6.349988 v -1.058332 h 1.058331 z m -4.233325,3.174993 v -3.174993 h 1.058331 v 3.174993 z"
         style="font-style:normal;font-variant:normal;font-weight:normal;font-stretch:normal;font-size:16.9333px;font-family:'8-bit Arcade Out';-inkscape-font-specification:'8-bit Arcade Out';fill:#808080"
         id="path1290" />
    </g>
  </g>
</svg>
