<?xml version="1.0" encoding="UTF-8" standalone="no"?>
<!-- Created with Inkscape (http://www.inkscape.org/) -->

<svg
   xmlns:dc="http://purl.org/dc/elements/1.1/"
   xmlns:cc="http://creativecommons.org/ns#"
   xmlns:rdf="http://www.w3.org/1999/02/22-rdf-syntax-ns#"
   xmlns:svg="http://www.w3.org/2000/svg"
   xmlns="http://www.w3.org/2000/svg"
   xmlns:sodipodi="http://sodipodi.sourceforge.net/DTD/sodipodi-0.dtd"
   xmlns:inkscape="http://www.inkscape.org/namespaces/inkscape"
   width="500"
   height="200"
   viewBox="0 0 132.29166 52.916668"
   version="1.1"
   id="svg8"
   sodipodi:docname="auto-allgames.svg"
   inkscape:version="0.92.5 (2060ec1f9f, 2020-04-08)">
  <defs
     id="defs2" />
  <sodipodi:namedview
     id="base"
     pagecolor="#ffffff"
     bordercolor="#666666"
     borderopacity="1.0"
     inkscape:pageopacity="0.0"
     inkscape:pageshadow="2"
     inkscape:zoom="1.53125"
     inkscape:cx="255.97378"
     inkscape:cy="108.24473"
     inkscape:document-units="mm"
     inkscape:current-layer="layer1"
     showgrid="false"
     units="px"
     inkscape:pagecheckerboard="true"
     inkscape:window-width="1366"
     inkscape:window-height="740"
     inkscape:window-x="0"
     inkscape:window-y="0"
     inkscape:window-maximized="1" />
  <metadata
     id="metadata5">
    <rdf:RDF>
      <cc:Work
         rdf:about="">
        <dc:format>image/svg+xml</dc:format>
        <dc:type
           rdf:resource="http://purl.org/dc/dcmitype/StillImage" />
        <dc:title></dc:title>
      </cc:Work>
    </rdf:RDF>
  </metadata>
  <g
     inkscape:label="Layer 1"
     inkscape:groupmode="layer"
     id="layer1"
     transform="translate(0,-244.08332)">
    <flowRoot
       xml:space="preserve"
       id="flowRoot10"
       style="fill:black;stroke:none;stroke-opacity:1;stroke-width:1px;stroke-linejoin:miter;stroke-linecap:butt;fill-opacity:1;font-family:Dymo;font-style:normal;font-weight:normal;font-size:40px;line-height:125%;letter-spacing:0px;word-spacing:0px;-inkscape-font-specification:Dymo;font-stretch:normal;font-variant:normal;"><flowRegion
         id="flowRegion12"
         style="-inkscape-font-specification:Dymo;font-family:Dymo;font-weight:normal;font-style:normal;font-stretch:normal;font-variant:normal;"><rect
           id="rect14"
           width="69.224487"
           height="121.46939"
           x="12.408163"
           y="37.387756"
           style="-inkscape-font-specification:Dymo;font-family:Dymo;font-weight:normal;font-style:normal;font-stretch:normal;font-variant:normal;" /></flowRegion><flowPara
         id="flowPara16"></flowPara></flowRoot>    <g
       aria-label="all.games"
       transform="matrix(1.0324272,-0.06402067,0.0878124,0.96314606,0,0)"
       style="font-style:normal;font-weight:normal;font-size:15.63526726px;line-height:125%;font-family:sans-serif;letter-spacing:0px;word-spacing:0px;fill:#ffffff;fill-opacity:1;stroke:none;stroke-width:0.39088169px;stroke-linecap:butt;stroke-linejoin:miter;stroke-opacity:1;image-rendering:auto"
       id="text20">
      <path
         d="m -21.273014,270.56048 h 15.5352005 v 25.02894 H -21.273014 Z m 9.493734,6.71691 q -0.262673,-0.78801 -1.463461,-0.78801 -1.163264,0 -1.463461,0.78801 -1.200789,3.41474 -4.052661,10.5069 -0.07505,0.22515 -0.07505,0.41277 0,0.71297 0.56287,0.71297 0.48782,0 0.637919,-0.52534 l 0.562869,-1.95129 q 0.112574,-0.45029 1.163264,-0.45029 h 4.990777 q 0.825542,0 0.9756409,0.48782 l 0.5253449,1.72613 q 0.2251479,0.71297 0.6754436,0.71297 0.825542,0 0.4502956,-1.12574 z m -1.463461,0 q 0.450295,0 0.675443,0.48782 0.262673,0.48782 0.187623,0.56287 -0.03752,0.075 -0.112574,0.075 -0.03752,0 -0.225147,-0.26267 -0.150099,-0.26267 -0.262673,-0.26267 -0.300197,0 -0.07505,0.60039 0.07505,0.18762 0.337722,0.33772 0.300197,0.11258 0.375246,0.3002 l 1.425936,4.01514 q 0.03753,0.30019 0.07505,0.90059 0.03752,0.26267 0.225147,0.26267 0.07505,0 0.07505,-0.22515 0,-0.22515 0.07505,-0.22515 l 0.150099,1.12574 q -5.178401,0.075 -6.266615,0 0.938116,-2.289 1.726133,-4.7281 0.48782,-1.53851 0.600394,-1.53851 0.112574,0 0.07505,0.18762 -0.03753,0.18763 0.150098,0.18763 0.150099,0 0.300197,-0.41278 0.150099,-0.41277 0,-0.41277 -0.112574,0 -0.150098,0.1501 0,0.11258 -0.150099,0.11258 -0.07505,0 -0.07505,-0.1501 0,-0.33772 0.225148,-0.71297 0.262672,-0.37525 0.637919,-0.37525 z m -2.551676,0.93812 q -1.801182,4.54048 -3.602365,9.26858 0,0.37525 0.150098,0.4503 0.187624,0.075 0.187624,-0.1501 0.03752,-0.26267 0.150098,-0.75049 2.439102,-5.96642 3.452267,-8.70572 0.150099,-0.41277 -0.07505,-0.41277 -0.150099,0 -0.262673,0.3002 z m 5.666221,1.27584 q -0.07505,-0.26268 -0.262673,-0.18763 -0.187623,0.0375 -0.112574,0.3002 0.150099,0.52535 2.4015772,7.3173 0,0 0.2251479,0.9006 0.1125739,0.37524 0.2626724,0.37524 0.3377218,0 0.075049,-0.97564 -1.0882145,-3.22712 -2.5891998,-7.73007 z m -6.191566,6.97958 q -0.187623,0 -0.525345,0.75049 -0.300197,0.71297 -0.300197,1.08822 0,0.11257 0.03752,0.1501 0.187623,0.075 0.525345,-0.67545 0.300197,-0.63792 0.637919,-0.75049 0.225147,-0.075 1.763658,-0.075 2.251478,0 3.189594,0.075 0.300197,0.0375 0.337722,0.67544 0.07505,0.63792 0.412771,0.63792 0.3001969,0 0.187623,-0.75049 -0.112574,-0.67545 -0.337722,-0.90059 -0.187623,-0.22515 -0.900591,-0.22515 z m 3.452267,-6.79196 1.088215,3.71494 q 0,0.0375 0.07505,0.52534 0.03752,0.26268 0.187623,0.26268 0.150099,0 0.07505,-0.3002 -0.112574,-0.26267 -0.03752,-0.26267 0.375246,0 0.187623,-0.37525 -0.225148,-0.3002 -0.675444,-1.65108 -0.450295,-1.35089 -0.525345,-1.91376 -0.03752,-0.3002 -0.225147,-0.3002 -0.225148,0 -0.150099,0.3002 z m -0.825542,0.22515 q 0.150099,-0.37525 -0.150099,-0.37525 -0.112573,0 -0.187623,0.22515 -1.275837,3.22712 -1.275837,3.71494 0,0.11257 0.07505,0.1501 0.150098,0.0375 0.750493,-1.57604 0.412771,-1.05069 0.788017,-2.1389 z m 1.163264,4.24028 q -1.425936,0.0375 -1.425936,0.3002 0,0.11257 1.913756,0.11257 0.187623,0 0.187623,-0.1501 0,-0.30019 -0.675443,-0.26267 z m -2.401577,-7.35483 q -0.150099,0 -0.262673,0.22515 -0.112573,0.26267 0.03753,0.26267 0.150099,0 0.262673,-0.26267 0.112573,-0.22515 -0.03753,-0.22515 z m 3.602365,0.71297 0.450296,1.23831 q 0.07505,0.18763 0.300197,0.1501 0.187623,-0.0375 0.112574,-0.26267 l -0.412771,-1.12574 q -0.07505,-0.22515 -0.300197,-0.22515 -0.225148,0.0375 -0.150099,0.22515 z"
         style="font-style:normal;font-variant:normal;font-weight:normal;font-stretch:normal;font-size:37.52463913px;font-family:Dymo;-inkscape-font-specification:Dymo;fill:#ffffff;stroke-width:0.39088169px"
         id="path190" />
      <path
         d="M -6.2631732,270.56048 H 7.3957955 v 25.02894 H -6.2631732 Z m 5.0658263,6.19157 q 0,-0.78802 -1.0506899,-0.78802 -0.7880174,0 -0.412771,1.12574 0.1500986,0.4503 0.1125739,0.75049 -0.037525,0.67545 -0.037525,0.93812 l 0.1500985,6.34166 q 0,1.05069 -0.037525,2.06386 0.037525,0.82554 0.6003942,0.78801 0.2251479,0 1.20078848,0.0375 1.35088701,0.0375 3.11454502,0.0375 1.8011827,0 2.2514784,0.1501 0.4502956,0.11258 0.3377217,0.11258 0.4502957,0 0.4502957,-0.82555 0,-0.56287 -0.525345,-0.56287 -1.6135594,-0.0375 -2.8143479,-0.0375 -1.95128122,0 -2.77682328,0.1501 -0.82554202,0.11257 -0.97564062,0.11257 -0.4502957,0 -0.075049,-0.90059 0.037525,0.0375 0.075049,0.0375 0.412771,0 0.412771,-9.53126 z m -1.9137566,-0.63792 q -0.1876232,0 -0.1876232,5.66622 0,5.6287 0.1876232,5.6287 0.1500986,0 0.1500986,-5.6287 0,-1.35089 0.037525,-3.71494 0,-1.27584 -0.037525,-1.61356 -0.037525,-0.33772 -0.1500986,-0.33772 z m 2.43910158,6.67938 q 0,-0.15009 -0.15009856,-0.15009 -0.18762322,0.0375 -0.18762322,0.18762 v 2.5892 q 0,0.18762 0.22514786,0.18762 0.22514783,-0.0375 0.1876232,-0.22515 -0.0750493,-0.52534 -0.0750493,-2.5892 z m 0.22514783,3.26465 q 0,0.26267 1.50098559,0.26267 3.2271189,0 3.6774146,0.1501 0.7129682,0.26267 0.7129682,0 0,-0.33772 -0.7504928,-0.37525 -5.14087559,-0.18762 -5.14087559,-0.0375 z m -1.68860871,2.62672 q 0,0.26268 0.5253449,0.22515 1.46346093,-0.11257 1.42593629,-0.11257 0.63791886,0 1.61355951,0.11257 0.9756406,0.11257 1.2758377,0.11257 2.4766262,0 2.4766262,-0.22514 0,-0.1501 -0.9756406,-0.1501 -4.9532524,-0.1501 -4.9532524,-0.1501 -1.3884116,-0.0375 -1.3884116,0.18762 z"
         style="font-style:normal;font-variant:normal;font-weight:normal;font-stretch:normal;font-size:37.52463913px;font-family:Dymo;-inkscape-font-specification:Dymo;fill:#ffffff;stroke-width:0.39088169px"
         id="path192" />
      <path
         d="M 6.8703937,270.56048 H 20.529362 v 25.02894 H 6.8703937 Z m 5.0658263,6.19157 q 0,-0.78802 -1.05069,-0.78802 -0.788017,0 -0.412771,1.12574 0.150099,0.4503 0.112574,0.75049 -0.03753,0.67545 -0.03753,0.93812 l 0.150099,6.34166 q 0,1.05069 -0.03753,2.06386 0.03753,0.82554 0.600394,0.78801 0.225148,0 1.200789,0.0375 1.350887,0.0375 3.114545,0.0375 1.801183,0 2.251478,0.1501 0.450296,0.11258 0.337722,0.11258 0.450296,0 0.450296,-0.82555 0,-0.56287 -0.525345,-0.56287 -1.61356,-0.0375 -2.814348,-0.0375 -1.951281,0 -2.776823,0.1501 -0.825542,0.11257 -0.975641,0.11257 -0.450296,0 -0.07505,-0.90059 0.03752,0.0375 0.07505,0.0375 0.412771,0 0.412771,-9.53126 z m -1.913757,-0.63792 q -0.1876228,0 -0.1876228,5.66622 0,5.6287 0.1876228,5.6287 0.150099,0 0.150099,-5.6287 0,-1.35089 0.03753,-3.71494 0,-1.27584 -0.03753,-1.61356 -0.03752,-0.33772 -0.150099,-0.33772 z m 2.439102,6.67938 q 0,-0.15009 -0.150099,-0.15009 -0.187623,0.0375 -0.187623,0.18762 v 2.5892 q 0,0.18762 0.225148,0.18762 0.225148,-0.0375 0.187623,-0.22515 -0.07505,-0.52534 -0.07505,-2.5892 z m 0.225148,3.26465 q 0,0.26267 1.500985,0.26267 3.227119,0 3.677415,0.1501 0.712968,0.26267 0.712968,0 0,-0.33772 -0.750493,-0.37525 -5.140875,-0.18762 -5.140875,-0.0375 z m -1.688609,2.62672 q 0,0.26268 0.525345,0.22515 1.463461,-0.11257 1.425936,-0.11257 0.637919,0 1.61356,0.11257 0.97564,0.11257 1.275837,0.11257 2.476627,0 2.476627,-0.22514 0,-0.1501 -0.975641,-0.1501 -4.953252,-0.1501 -4.953252,-0.1501 -1.388412,-0.0375 -1.388412,0.18762 z"
         style="font-style:normal;font-variant:normal;font-weight:normal;font-stretch:normal;font-size:37.52463913px;font-family:Dymo;-inkscape-font-specification:Dymo;fill:#ffffff;stroke-width:0.39088169px"
         id="path194" />
      <path
         d="m 25.782754,270.56048 v 25.02894 H 20.00396 v -25.02894 z m -3.752464,17.9743 q 0.187623,0.33773 0.788018,0.33773 0.337721,0 0.600394,-0.18763 0.300197,-0.18762 0.225148,-0.26267 -0.07505,-0.0751 -0.225148,0.075 -0.262673,0.1501 -0.600394,0.1501 -0.450296,0 -0.750493,-0.3002 -0.300197,-0.33772 -0.300197,-0.71297 0,-0.41277 0.187623,-0.71297 0.150098,-0.18762 0.112574,-0.22514 -0.112574,-0.11258 -0.337722,0.22514 -0.225148,0.33773 -0.225148,0.82555 0,0.86306 0.525345,0.78801 z m 0.900591,-0.15009 q 0.825543,0 0.825543,-1.12574 0,-0.82555 -0.863067,-0.82555 -0.262673,0 -0.56287,0.33773 -0.300197,0.33772 -0.300197,0.75049 0,0.86307 0.900591,0.86307 z m 0.938116,-0.22515 q 0.112574,0.0751 0.225148,-0.22515 0.150099,-0.3002 0.150099,-0.60039 0,-0.56287 -0.337722,-0.93812 -0.300197,-0.26267 -0.56287,-0.26267 -0.07505,0 -0.112573,0.0375 0,0 0.375246,0.3002 0.412771,0.26267 0.412771,0.90059 0,0.33772 -0.112574,0.56287 -0.112574,0.18762 -0.03752,0.22515 z"
         style="font-style:normal;font-variant:normal;font-weight:normal;font-stretch:normal;font-size:37.52463913px;font-family:Dymo;-inkscape-font-specification:Dymo;fill:#ffffff;stroke-width:0.39088169px"
         id="path196" />
      <path
         d="m 25.257389,270.56048 h 15.910447 v 25.02894 H 25.257389 Z m 6.641861,5.40355 q 0,-0.22515 -0.675443,-0.1501 -1.913757,0.22515 -2.514151,0.78802 -1.388412,1.20079 -1.388412,4.99078 0,4.01513 0.337722,5.29097 0.150098,0.48782 0.825542,1.27584 0.712968,0.75049 2.10138,0.97564 0.788017,0.11257 2.964446,0.11257 3.077021,0 4.20276,-0.37524 0.97564,-0.3002 1.425936,-1.31337 0.03753,-0.11257 0.03753,-0.26267 0,-0.11257 -0.07505,-0.075 -0.07505,0 -0.225147,0.26267 -0.412771,0.7505 -1.013166,0.97565 -1.088214,0.41277 -4.240284,0.41277 -2.138904,0 -2.326527,0 -1.576035,-0.1501 -2.476627,-0.78802 -1.163263,-0.86307 -1.163263,-5.06583 0,-0.22515 -0.03753,-0.90059 0,-0.67544 0,-1.08821 0,-4.95326 3.63989,-4.95326 0.600394,0 0.600394,-0.11257 z m 5.065826,3.41474 q 0.187624,0 0.187624,-0.56287 0,-1.01316 -3.71494,-1.01316 -2.401577,0 -3.114545,0.56287 -0.675443,0.56287 -0.675443,2.25148 0,4.2778 0.300197,4.2778 0.07505,0 0.07505,-3.71493 0,-2.10138 0.56287,-2.51416 0.450295,-0.33772 2.964446,-0.33772 2.964447,0 3.264644,0.6004 0.03752,0.0751 0,0.30019 0,0.1501 0.150098,0.1501 z m -6.341664,7.27978 q 0,0.6004 3.227119,0.6004 2.776824,0 2.776824,-0.52535 0,-0.11257 -0.487821,-0.0375 -1.088214,0.1501 -2.739298,0.1501 -1.088215,0 -1.951282,-0.11258 -0.825542,-0.1501 -0.750492,-0.1501 -0.07505,0 -0.07505,0.075 z m 8.40552,-9.15601 q -0.112574,0.1501 -0.03752,0.3002 0.112574,0.22515 0.112574,0.37524 0,0.52535 0.150098,0.48782 0.187624,0 0.187624,-0.41277 0,-0.78801 -0.337722,-0.78801 -0.03752,0 -0.07505,0.0375 z m 0.525345,6.45424 q 0,-0.82554 -0.187624,-0.82554 -0.187623,0 -0.187623,0.82554 0,0.97564 0.187623,0.97564 0.187624,0 0.187624,-0.97564 z m -1.876232,-3.11455 q 0,0.1501 0.562869,0.1501 0.56287,0 0.56287,-0.1501 0,-0.11257 -0.600394,-0.11257 -0.525345,0 -0.525345,0.11257 z m 0,3.48979 q 0,0.82555 0,1.68861 0,0.6004 -0.300198,0.93812 -0.412771,0.4503 -3.827513,0.4503 -2.776823,0 -3.602365,-0.52535 -0.825542,-0.52534 -0.825542,-5.36602 0,-2.8894 0.637919,-3.60237 0.675443,-0.71297 3.940087,-0.71297 2.701774,0 3.377217,0.48782 0.487821,0.37525 0.487821,2.06386 0,0.67544 0.637919,0.67544 0.675443,0 0.675443,-0.97564 0,-1.95128 -0.863067,-2.47662 -1.05069,-0.63792 -4.465432,-0.63792 -3.63989,0 -4.61553,0.97564 -0.712968,0.71297 -0.712968,4.76563 0,4.54048 0.97564,5.44107 0.975641,0.90059 4.465432,0.90059 3.377218,0 4.165235,-0.48782 1.013165,-0.60039 1.013165,-3.18959 0,-1.16327 0,-1.08822 -0.03752,-0.56287 -0.48782,-0.56287 h -3.564841 q -0.562869,0 -0.562869,0.67545 0,0.63791 0.562869,0.63791 z"
         style="font-style:normal;font-variant:normal;font-weight:normal;font-stretch:normal;font-size:37.52463913px;font-family:Dymo;-inkscape-font-specification:Dymo;fill:#ffffff;stroke-width:0.39088169px"
         id="path198" />
      <path
         d="m 40.642483,270.56048 h 15.5352 v 25.02894 h -15.5352 z m 9.493733,6.71691 q -0.262672,-0.78801 -1.463461,-0.78801 -1.163263,0 -1.46346,0.78801 -1.200789,3.41474 -4.052661,10.5069 -0.07505,0.22515 -0.07505,0.41277 0,0.71297 0.56287,0.71297 0.48782,0 0.637919,-0.52534 l 0.562869,-1.95129 q 0.112574,-0.45029 1.163264,-0.45029 h 4.990777 q 0.825542,0 0.975641,0.48782 l 0.525345,1.72613 q 0.225148,0.71297 0.675443,0.71297 0.825542,0 0.450296,-1.12574 z m -1.463461,0 q 0.450296,0 0.675444,0.48782 0.262672,0.48782 0.187623,0.56287 -0.03752,0.075 -0.112574,0.075 -0.03752,0 -0.225148,-0.26267 -0.150098,-0.26267 -0.262672,-0.26267 -0.300197,0 -0.07505,0.60039 0.07505,0.18762 0.337721,0.33772 0.300198,0.11258 0.375247,0.3002 l 1.425936,4.01514 q 0.03753,0.30019 0.07505,0.90059 0.03753,0.26267 0.225148,0.26267 0.07505,0 0.07505,-0.22515 0,-0.22515 0.07505,-0.22515 l 0.150098,1.12574 q -5.1784,0.075 -6.266614,0 0.938116,-2.289 1.726133,-4.7281 0.48782,-1.53851 0.600394,-1.53851 0.112574,0 0.07505,0.18762 -0.03753,0.18763 0.150098,0.18763 0.150099,0 0.300197,-0.41278 0.150099,-0.41277 0,-0.41277 -0.112574,0 -0.150098,0.1501 0,0.11258 -0.150099,0.11258 -0.07505,0 -0.07505,-0.1501 0,-0.33772 0.225148,-0.71297 0.262672,-0.37525 0.637918,-0.37525 z m -2.551675,0.93812 q -1.801183,4.54048 -3.602365,9.26858 0,0.37525 0.150098,0.4503 0.187623,0.075 0.187623,-0.1501 0.03752,-0.26267 0.150099,-0.75049 2.439102,-5.96642 3.452267,-8.70572 0.150098,-0.41277 -0.07505,-0.41277 -0.150098,0 -0.262672,0.3002 z m 5.666221,1.27584 q -0.07505,-0.26268 -0.262673,-0.18763 -0.187623,0.0375 -0.112574,0.3002 0.150099,0.52535 2.401577,7.3173 0,0 0.225148,0.9006 0.112574,0.37524 0.262672,0.37524 0.337722,0 0.07505,-0.97564 -1.088215,-3.22712 -2.5892,-7.73007 z m -6.191566,6.97958 q -0.187623,0 -0.525345,0.75049 -0.300197,0.71297 -0.300197,1.08822 0,0.11257 0.03753,0.1501 0.187623,0.075 0.525345,-0.67545 0.300197,-0.63792 0.637918,-0.75049 0.225148,-0.075 1.763659,-0.075 2.251478,0 3.189594,0.075 0.300197,0.0375 0.337722,0.67544 0.07505,0.63792 0.412771,0.63792 0.300197,0 0.187623,-0.75049 -0.112574,-0.67545 -0.337722,-0.90059 -0.187623,-0.22515 -0.900591,-0.22515 z m 3.452267,-6.79196 1.088214,3.71494 q 0,0.0375 0.07505,0.52534 0.03752,0.26268 0.187623,0.26268 0.150098,0 0.07505,-0.3002 -0.112574,-0.26267 -0.03752,-0.26267 0.375246,0 0.187623,-0.37525 -0.225148,-0.3002 -0.675444,-1.65108 -0.450295,-1.35089 -0.525345,-1.91376 -0.03752,-0.3002 -0.225148,-0.3002 -0.225147,0 -0.150098,0.3002 z m -0.825542,0.22515 q 0.150098,-0.37525 -0.150099,-0.37525 -0.112574,0 -0.187623,0.22515 -1.275838,3.22712 -1.275838,3.71494 0,0.11257 0.07505,0.1501 0.150098,0.0375 0.750492,-1.57604 0.412771,-1.05069 0.788018,-2.1389 z m 1.163264,4.24028 q -1.425937,0.0375 -1.425937,0.3002 0,0.11257 1.913757,0.11257 0.187623,0 0.187623,-0.1501 0,-0.30019 -0.675443,-0.26267 z m -2.401577,-7.35483 q -0.150099,0 -0.262673,0.22515 -0.112574,0.26267 0.03753,0.26267 0.150098,0 0.262672,-0.26267 0.112574,-0.22515 -0.03752,-0.22515 z m 3.602365,0.71297 0.450296,1.23831 q 0.07505,0.18763 0.300197,0.1501 0.187623,-0.0375 0.112574,-0.26267 l -0.412771,-1.12574 q -0.07505,-0.22515 -0.300197,-0.22515 -0.225148,0.0375 -0.150099,0.22515 z"
         style="font-style:normal;font-variant:normal;font-weight:normal;font-stretch:normal;font-size:37.52463913px;font-family:Dymo;-inkscape-font-specification:Dymo;fill:#ffffff;stroke-width:0.39088169px"
         id="path200" />
      <path
         d="m 55.652325,270.56048 h 16.285693 v 25.02894 H 55.652325 Z m 12.345606,10.58195 v 6.79196 q 0,0.11257 -0.150099,0.3002 -0.150098,0.18762 -0.150098,0.37524 0,0.71297 0.788017,0.71297 0.375247,0 0.487821,-0.48782 0.112573,-0.48782 -0.112574,-0.78802 l 0.03752,-10.65699 q 0,-1.05069 -0.900591,-1.05069 -0.712968,0 -0.825542,0.37524 -0.112574,0.33772 -0.150099,0.6004 l -2.514151,5.81632 q -0.03752,1.20078 -0.637918,1.20078 -0.262673,0 -0.637919,-0.33772 -0.375247,-0.37524 -0.225148,-0.37524 0.300197,0 0.150098,-0.33773 l -3.07702,-6.45423 q -0.262672,-0.52535 -0.825542,-0.52535 -1.163264,0 -1.163264,0.6004 0,0.11257 0.150099,0.15009 0.150098,0.0375 0.150098,0.22515 l 0.03752,6.94206 -0.187623,0.41277 v 3.15207 q 0,0.41277 -0.450296,0.41277 -0.150098,0 -0.187623,-0.30019 -0.03753,-0.33773 -0.150099,-0.33773 -0.150098,0 -0.03752,0.48782 0.150098,0.7505 1.238313,0.7505 0.562869,0 0.562869,-0.6004 v -9.45621 q 0,-0.18762 0.07505,-0.22514 0.07505,-0.0751 0.112574,-0.26268 0,-0.1501 -0.112574,-0.30019 -0.112574,-0.1501 -0.150099,-0.37525 -0.03753,-0.22515 0.112574,-0.22515 0.262672,0 0.48782,0.41277 0.938116,1.87623 0.938116,1.91376 -0.375246,-0.11257 -0.788017,0 0,0.37525 0.375246,0.41277 0.412771,0 0.56287,0.33772 l 2.364052,4.65306 -0.187623,0.30019 q 0.600394,0.3002 0.825542,0.3002 0.750493,0 0.938116,-1.20079 l 2.814348,-6.67938 q 0.150098,-0.37525 0.412771,-0.37525 0.225148,0 0.187623,0.4503 z m 1.313362,6.82948 q 0,0.22515 0.112574,0.22515 0.225148,0 0.225148,-0.48782 0,-2.81435 0.03752,-4.12771 0,-0.56287 0.03752,-1.08821 0.03753,-4.31534 0.03753,-3.94009 0,-0.60039 -0.187623,-1.16326 -0.03753,-0.1501 -0.150099,-0.0375 -0.112574,0.1501 -0.112574,0.37525 z m -11.557589,-1.72613 0.03753,-8.29294 q 0,-0.3002 -0.187623,-0.3002 -0.07505,0.0375 -0.07505,0.22515 l -0.07505,8.33047 q 0,0.22514 0.150099,0.30019 0.150098,0.0375 0.150098,-0.26267 z m 9.568783,-4.54048 -0.112574,1.38841 q 0,0.1501 -0.112573,0.22515 -0.112574,0.0751 -0.112574,0.22515 0,4.05266 0.112574,4.8782 0,0.1501 0.07505,0.1501 0.225148,0 0.225148,-0.41277 l 0.07505,-5.25345 q 0.412771,-1.20079 -0.150099,-1.20079 z m -0.788017,0.0375 -0.750493,1.72614 -0.150098,0.93811 q -0.412771,1.16327 -1.425937,1.80119 0.150099,0.11257 0.300197,0.11257 0.487821,0 0.975641,-0.75049 0.48782,-0.75049 0.637919,-1.68861 0,-0.26267 0.600394,-1.76366 0.07505,-0.11257 0,-0.3002 -0.03752,-0.15009 -0.112574,-0.15009 -0.03752,0 -0.07505,0.075 z m -3.564841,4.46544 q -0.48782,-0.4503 -1.651084,-2.96445 -1.125739,-2.36405 -1.238313,-2.36405 -0.07505,0 -0.07505,0.11257 0,0.33772 1.838707,4.31534 0.525345,1.16326 1.125739,0.90059 z m 0.375247,-4.57801 -1.951282,-4.05266 q -0.03752,-0.11257 -0.225147,-0.11257 -0.03753,0.0751 -0.112574,0.15009 l 1.951281,4.05267 q 0.150098,0.30019 0.300197,0.26267 0.150099,-0.0375 0.03753,-0.3002 z m 3.001971,-4.50296 -1.463461,3.1896 q -1.163264,2.51415 -1.163264,2.55167 0,0.075 0.07505,0.11258 0.187624,0.0751 0.525345,-0.67545 0.412771,-0.90059 0.825542,-1.80118 0.712968,-1.46346 1.388412,-3.22712 0.07505,-0.1501 -0.03753,-0.22515 -0.112574,-0.0375 -0.150098,0.0751 z m -7.242256,12.04541 q 0,-0.1501 -0.187623,-0.11257 -0.300197,0.0375 -0.375246,0.0375 -0.03753,0 -0.337722,-0.075 -0.187623,-0.075 -0.187623,0.075 0,0.3002 0.525345,0.3002 0.525345,0.0375 0.562869,-0.22515 z m -1.53851,-12.45818 q -0.112574,0 -0.112574,0.3002 0,0.3002 0.112574,0.3002 0.187623,0 0.187623,-0.3002 0,-0.3002 -0.187623,-0.3002 z"
         style="font-style:normal;font-variant:normal;font-weight:normal;font-stretch:normal;font-size:37.52463913px;font-family:Dymo;-inkscape-font-specification:Dymo;fill:#ffffff;stroke-width:0.39088169px"
         id="path202" />
      <path
         d="m 71.412601,270.56048 h 15.159955 v 25.02894 H 71.412601 Z m 12.495705,6.11652 q 0,-0.52535 -0.900591,-0.6004 0.187623,0 -1.350887,0 -3.714939,0 -5.591171,0.0751 -1.313363,0.0375 -1.313363,0.52535 0,0.1501 0.187623,0.3002 0.225148,0.15009 0.225148,0.52534 l -0.07505,9.79393 q -0.675443,0.56287 -0.675443,0.67544 0.03752,0.0751 0.112573,0.0751 0.450296,0.075 0.56287,0.37525 0.112574,0.3002 0.150099,0.3002 0.112574,0 0.150098,-0.22515 0.07505,-0.22515 0.150099,-0.37525 l 6.904533,0.0375 q 0.450296,0 0.712968,0.26267 0.262673,0.22515 0.337722,0.22515 0.56287,0 0.56287,-0.86307 0,-0.48782 -0.675444,-0.48782 -6.979583,0 -6.979583,0 -0.375246,0.0375 -0.562869,-0.11257 -0.150099,-0.18763 -0.07505,-0.37525 0.112573,-0.26267 0.150098,-1.53851 0.03753,-1.16326 0.225148,-1.50098 0.03753,-0.0375 0.03753,-0.11258 0,-0.0375 -0.225148,-0.18762 -0.187623,-0.1501 -0.187623,-0.41277 0,-0.52535 0.412771,-0.52535 0.187623,0 0.262672,0.1501 0.07505,0.1501 0.150099,0.1501 0.112574,0 0.262672,-0.075 0.187623,-0.075 0.337722,-0.075 h 3.227119 q 1.688609,0 1.576035,0 0.562869,-0.0375 0.562869,-0.56287 0,-0.45029 -1.500985,-0.45029 -0.225148,0 -2.026331,0.11257 -1.801183,0.11257 -2.814348,0.11257 -0.412771,0 -0.412771,-0.45029 0,-0.0751 0.03753,-0.4503 0.07505,-0.37524 0.07505,-1.20079 0,-0.33772 -0.112574,-1.20079 -0.07505,-0.90059 -0.07505,-1.05068 0,-0.6004 0.375246,-0.6004 0.225148,0 0.412771,0.1501 0.187624,0.11257 0.300197,0.11257 0.187624,0 0.487821,-0.1501 h 5.516122 q 0.112574,0 0.525345,0.0375 0.300197,0.0375 0.412771,0 0.150098,-0.11257 0.150098,-0.41277 z m -1.088214,6.30414 q 0,-0.075 -0.375247,0.0375 -0.525345,0.18763 -0.863066,0.18763 h -4.090186 q -0.262673,0 -0.300197,-0.0751 -0.03753,-0.11258 -0.150099,-0.11258 -0.07505,0 -0.150098,0.22515 -0.07505,0.18762 -0.225148,0.18762 -0.112574,0 -0.262673,-0.075 -0.03752,0.48782 -0.07505,0.93812 0.07505,1.68861 0.07505,1.68861 0,0.18762 0.150099,0.22515 0.187623,0.0375 0.187623,-0.22515 l 0.03753,-2.21395 q 0.412771,-0.11258 1.425936,-0.11258 0.675444,0 1.801183,0.0375 1.163264,0.0375 1.275838,0.0375 1.53851,0 1.53851,-0.75049 z m -8.518093,-6.52929 q -0.187624,0 -0.187624,5.66622 0,5.66622 0.187624,5.66622 0.150098,0 0.150098,-0.82554 0,0.75049 0,-4.84068 0,-1.35089 0.03753,-3.71494 0,-1.27584 -0.03753,-1.61356 -0.03752,-0.33772 -0.150098,-0.33772 z m 1.05069,12.42066 q 0,0.22514 0.525344,0.18762 1.200789,-0.11257 1.388412,-0.11257 0.525345,0 1.726134,0.15009 1.238313,0.1501 2.176429,0.1501 2.439101,0 2.439101,-0.26267 0,-0.26267 -6.904533,-0.33772 -1.350887,0 -1.350887,0.22515 z m 1.801182,-10.657 5.403548,0.0375 q 1.125739,0 1.651084,-0.52534 0.337722,-0.33772 -0.07505,-0.33772 0,0 -0.337722,0.22514 -0.300197,0.18763 -1.163263,0.22515 0.262672,-0.18762 0,-0.18762 l -5.553647,-0.0751 q -0.337722,0 -0.337722,0.37525 0,0.26267 0.412771,0.26267 z m 0.187623,8.25542 q -0.300197,0 -0.300197,0.1501 0,0.18762 0.337722,0.18762 0.712968,0 2.851873,-0.075 2.138904,-0.0751 2.251478,-0.0751 0.450296,0 1.05069,0.1501 0.300197,0.075 0.300197,-0.11257 0,-0.26268 -0.750493,-0.26268 z m -0.337721,-5.66622 q -0.225148,0 -0.225148,0.18762 0,0.26267 0.48782,0.3002 0.975641,0 1.913757,0 2.739298,0.0375 2.739298,-0.26267 -0.03752,-0.0375 -0.262672,-0.0375 l -3.977612,0.0751 q -0.337722,0 -0.48782,-0.11257 -0.150099,-0.1501 -0.187623,-0.1501 z M 76.7411,278.8159 q 0,-0.30019 -0.112574,-0.30019 -0.225148,0 -0.225148,0.41277 0,1.16326 0.150099,1.57603 0.112574,0.0375 0.225148,-0.11257 z"
         style="font-style:normal;font-variant:normal;font-weight:normal;font-stretch:normal;font-size:37.52463913px;font-family:Dymo;-inkscape-font-specification:Dymo;fill:#ffffff;stroke-width:0.39088169px"
         id="path204" />
      <path
         d="m 86.047192,270.56048 h 15.535198 v 25.02894 H 86.047192 Z m 8.067797,5.7788 q -3.264644,0 -4.20276,0.71296 -0.900591,0.67545 -0.900591,3.00198 0,1.53851 0.938116,2.1389 0.938116,0.56287 3.564841,0.56287 2.439101,0 2.964446,0.1501 1.53851,0.41277 1.53851,2.10138 0,1.38841 -0.750492,1.91375 -0.863067,0.6004 -3.302169,0.6004 -3.07702,0 -3.602365,-0.6004 -0.187623,-0.18762 -0.525345,-1.05069 -0.262672,-0.60039 -0.637919,-0.60039 -0.825542,0 -0.825542,0.67544 0,0.52535 0.487821,0.11258 0.262672,0.1501 0.48782,0.86306 0.225148,0.67545 0.938116,0.97565 1.05069,0.48782 3.527316,0.48782 2.514151,0 3.602365,-0.52535 1.576035,-0.75049 1.576035,-2.81435 0,-2.17643 -1.500985,-2.81435 -0.825543,-0.37524 -3.077021,-0.37524 -2.701774,0 -3.039496,-0.075 -1.463461,-0.37525 -1.463461,-2.21395 0,-1.61356 1.313363,-2.06386 0.600394,-0.18762 2.701774,-0.18762 2.364052,0 3.264643,0.45029 0.788018,0.41277 0.788018,1.42594 0,0.63792 0.337722,0.63792 0.675443,0 0.675443,-0.93812 0,-2.55167 -4.878203,-2.55167 z m -5.028302,0.78801 q -0.262672,-0.18762 -0.675443,0.6004 -0.450296,0.90059 -0.450296,1.87623 0,2.21395 0.825542,3.0395 1.200789,1.27583 4.953253,1.27583 2.176429,0 2.851872,0.26268 0.525345,0.22514 0.56287,0.86306 0.03752,0.6004 -0.337722,0.86307 -0.337722,0.26267 -0.337722,0.3002 0,0.075 0.187623,0.075 0.750493,0 0.750493,-1.31337 0,-1.38841 -0.675443,-1.38841 -1.350887,0 -3.414742,-0.1501 -2.776824,-0.22514 -3.189595,-0.52534 -1.05069,-0.75049 -1.388411,-1.42594 -0.337722,-0.67544 -0.337722,-1.95128 0,-1.35089 0.412771,-1.9888 0.262672,-0.41278 0.262672,-0.41278 z m 10.469375,6.94206 q -0.03753,-0.1501 -0.112574,-0.11257 -0.07505,0.0375 -0.07505,0.22515 0.07505,2.40157 -0.675443,3.37721 -1.163264,1.53851 -4.878203,1.53851 -3.039496,0 -4.352858,-0.82554 -0.150099,-0.11257 -0.187623,-0.0375 -0.07505,0.075 0.07505,0.18762 0.938116,0.75049 2.439101,0.97564 0.788018,0.11257 2.889398,0.11257 1.913756,0 3.189594,-0.78801 1.801183,-1.08822 1.801183,-3.56484 0,-0.7505 -0.112574,-1.08822 z m -6.416714,2.62673 q -0.750492,0 -1.613559,-0.26268 -0.975641,-0.30019 -1.163264,-0.67544 -0.07505,-0.11257 -0.150098,-0.11257 -0.07505,0.0375 0,0.18762 0.300197,0.78802 1.46346,1.01317 1.163264,0.18762 1.163264,0.30019 0,0.0751 1.576035,0.0751 1.463461,0 1.463461,-0.3002 0,-0.22514 -0.675443,-0.26267 1.350887,0.0375 -2.063856,0.0375 z m -1.088214,-5.4786 q 1.688609,0.11257 3.339693,0.22515 1.988806,0.11257 3.039495,0.82554 0.112574,0.075 0.187624,0.0375 0.112574,-0.0751 0,-0.15009 -1.61356,-1.38842 -6.529288,-1.16327 -0.300197,0 -0.300197,0.11258 0.03753,0.075 0.262673,0.11257 z m -1.838707,-1.61356 q 0,1.12574 0.48782,1.12574 0.187623,0 0.187623,-0.22515 0,-0.11257 -0.150099,-0.22515 -0.150098,-0.15009 -0.150098,-0.67544 0,-0.71297 1.238313,-0.90059 0.56287,-0.11258 2.251478,-0.11258 1.688609,0 2.364053,0.41278 0.450295,0.22514 0.525345,0.67544 0.07505,0.41277 0.262672,0.41277 0.337722,-0.0751 0.03753,-1.01316 -0.375247,-1.16327 -3.339693,-1.16327 -2.626725,0 -2.439102,0.0375 -0.450295,-0.075 -0.450295,0.15009 0,0.075 0.150098,0.1501 0.150099,0.075 0.150099,0.11258 0,-0.075 -0.56287,0.22514 -0.562869,0.3002 -0.562869,1.01317 z m -1.988806,6.67939 q -0.03752,-0.11258 -0.150099,-0.075 -0.112574,0.0375 -0.112574,0.26267 0,1.05069 0.262673,1.05069 0.150098,0 0.07505,-0.67544 z"
         style="font-style:normal;font-variant:normal;font-weight:normal;font-stretch:normal;font-size:37.52463913px;font-family:Dymo;-inkscape-font-specification:Dymo;fill:#ffffff;stroke-width:0.39088169px"
         id="path206" />
    </g>
  </g>
</svg>
