<?xml version="1.0" encoding="UTF-8" standalone="no"?>
<svg
   xmlns:dc="http://purl.org/dc/elements/1.1/"
   xmlns:cc="http://creativecommons.org/ns#"
   xmlns:rdf="http://www.w3.org/1999/02/22-rdf-syntax-ns#"
   xmlns:svg="http://www.w3.org/2000/svg"
   xmlns="http://www.w3.org/2000/svg"
   xmlns:sodipodi="http://sodipodi.sourceforge.net/DTD/sodipodi-0.dtd"
   xmlns:inkscape="http://www.inkscape.org/namespaces/inkscape"
   width="388"
   height="118"
   viewBox="0 0 388 118"
   fill="none"
   version="1.1"
   id="svg41"
   sodipodi:docname="auto-at2players.svg"
   inkscape:version="0.92.5 (2060ec1f9f, 2020-04-08)">
  <metadata
     id="metadata45">
    <rdf:RDF>
      <cc:Work
         rdf:about="">
        <dc:format>image/svg+xml</dc:format>
        <dc:type
           rdf:resource="http://purl.org/dc/dcmitype/StillImage" />
      </cc:Work>
    </rdf:RDF>
  </metadata>
  <sodipodi:namedview
     pagecolor="#ffffff"
     bordercolor="#666666"
     borderopacity="1"
     objecttolerance="10"
     gridtolerance="10"
     guidetolerance="10"
     inkscape:pageopacity="0"
     inkscape:pageshadow="2"
     inkscape:window-width="1366"
     inkscape:window-height="740"
     id="namedview43"
     showgrid="false"
     inkscape:zoom="1.5528854"
     inkscape:cx="55.548057"
     inkscape:cy="59"
     inkscape:window-x="0"
     inkscape:window-y="0"
     inkscape:window-maximized="1"
     inkscape:current-layer="svg41" />
  <path
     style="fill:#ffffff"
     inkscape:connector-curvature="0"
     id="path2"
     d="M -0.069718,102 V 97.7232 L 20.9183,77.5272 c 3.6432,-3.5904 6.1512,-6.468 7.524,-8.6328 1.3728,-2.2176 2.0592,-4.5672 2.0592,-7.0488 0,-3.168 -1.2144,-5.7816 -3.6432,-7.8408 -2.376,-2.0592 -5.3856,-3.0888 -9.0288,-3.0888 -2.6928,0 -5.2272,0.528 -7.6032,1.584 -2.32322,1.056 -4.91042,2.7984 -7.76162,5.2272 L -0.940918,53.688 c 3.009598,-2.64 6.071998,-4.5936 9.187198,-5.8608 3.11522,-1.32 6.33602,-1.98 9.66242,-1.98 2.64,0 5.0952,0.396 7.3656,1.188 2.2704,0.792 4.1976,1.8744 5.7816,3.2472 1.6368,1.3728 2.904,3.036 3.8016,4.9896 0.8976,1.9008 1.3464,3.9864 1.3464,6.2568 0,1.6368 -0.1848,3.168 -0.5544,4.5936 -0.3168,1.4256 -0.924,2.8776 -1.8216,4.356 -0.8448,1.4256 -2.0064,2.9832 -3.4848,4.6728 -1.4784,1.6368 -3.3528,3.5376 -5.6232,5.7024 L 7.85028,96.9312 H 37.2335 V 102 Z" />
  <path
     style="fill:#ffffff"
     inkscape:connector-curvature="0"
     id="path4"
     d="M 63.0397,102 V 46.56 h 24.0768 c 5.3856,0 9.7152,1.4784 12.9885,4.4352 3.274,2.904 4.911,6.7584 4.911,11.5632 0,4.8048 -1.664,8.6856 -4.99,11.6424 -3.2735,2.9568 -7.5767,4.4352 -12.9095,4.4352 H 69.1381 V 102 Z M 86.6413,52.0248 H 69.1381 v 21.3048 h 17.5032 c 3.7488,0 6.732,-0.9504 8.9496,-2.8512 2.2176,-1.9536 3.3264,-4.5672 3.3264,-7.8408 0,-3.2736 -1.1088,-5.8608 -3.3264,-7.7616 -2.2176,-1.9008 -5.2008,-2.8512 -8.9496,-2.8512 z" />
  <path
     style="fill:#ffffff"
     inkscape:connector-curvature="0"
     id="path6"
     d="M 119.071,45.2136 V 102 H 113.21 V 46.56 Z" />
  <path
     style="fill:#ffffff"
     inkscape:connector-curvature="0"
     id="path8"
     d="m 141.579,102.713 c -4.33,0 -7.867,-1.109 -10.613,-3.3266 -2.693,-2.2176 -4.039,-5.0952 -4.039,-8.6328 0,-3.696 1.425,-6.6264 4.277,-8.7912 2.851,-2.2176 6.705,-3.3264 11.563,-3.3264 2.112,0 4.145,0.2376 6.098,0.7128 2.007,0.4752 3.855,1.1352 5.544,1.98 v -5.2272 c 0,-3.168 -0.897,-5.544 -2.693,-7.128 -1.795,-1.6368 -4.408,-2.4552 -7.84,-2.4552 -1.954,0 -3.934,0.2904 -5.94,0.8712 -1.954,0.528 -4.119,1.3992 -6.495,2.6136 l -2.217,-4.5144 c 2.851,-1.3728 5.491,-2.376 7.92,-3.0096 2.428,-0.6336 4.857,-0.9504 7.286,-0.9504 5.016,0 8.87,1.188 11.563,3.564 2.746,2.376 4.119,5.7816 4.119,10.2168 V 102 h -5.703 v -3.8808 c -1.795,1.5312 -3.775,2.6928 -5.94,3.4848 -2.112,0.739 -4.409,1.109 -6.89,1.109 z M 132.55,90.5952 c 0,2.2176 0.924,4.0392 2.772,5.4648 1.901,1.3728 4.33,2.0592 7.286,2.0592 2.376,0 4.541,-0.3696 6.495,-1.1088 1.953,-0.7392 3.722,-1.9008 5.306,-3.4848 v -7.4448 c -1.637,-1.1088 -3.405,-1.9008 -5.306,-2.376 -1.848,-0.528 -3.907,-0.792 -6.178,-0.792 -3.168,0 -5.702,0.7128 -7.603,2.1384 -1.848,1.3728 -2.772,3.2208 -2.772,5.544 z" />
  <path
     style="fill:#ffffff"
     inkscape:connector-curvature="0"
     id="path10"
     d="m 178.396,107.148 2.297,-5.227 -16.157,-39.6002 h 6.494 l 12.831,32.5512 13.86,-32.5512 h 6.336 L 184.336,107.94 c -1.69,3.802 -3.564,6.547 -5.623,8.237 -2.06,1.689 -4.673,2.534 -7.841,2.534 -0.739,0 -1.452,-0.053 -2.139,-0.158 -0.633,-0.053 -1.161,-0.132 -1.584,-0.238 v -5.306 c 0.528,0.105 1.03,0.185 1.505,0.237 0.528,0.053 1.135,0.08 1.822,0.08 1.795,0 3.326,-0.502 4.593,-1.505 1.268,-1.003 2.376,-2.561 3.327,-4.673 z" />
  <path
     style="fill:#ffffff"
     inkscape:connector-curvature="0"
     id="path12"
     d="m 241.378,97.8024 c -2.217,1.6368 -4.541,2.8776 -6.969,3.7226 -2.376,0.792 -4.99,1.188 -7.841,1.188 -2.851,0 -5.544,-0.528 -8.079,-1.584 -2.481,-1.056 -4.646,-2.5082 -6.494,-4.3562 -1.795,-1.848 -3.221,-4.0128 -4.277,-6.4944 -1.056,-2.5344 -1.584,-5.2536 -1.584,-8.1576 0,-2.8512 0.502,-5.5176 1.505,-7.9992 1.056,-2.4816 2.455,-4.6464 4.198,-6.4944 1.742,-1.848 3.801,-3.3 6.177,-4.356 2.429,-1.056 4.99,-1.584 7.683,-1.584 2.64,0 5.095,0.528 7.365,1.584 2.323,1.056 4.303,2.508 5.94,4.356 1.69,1.848 3.01,4.0128 3.96,6.4944 1.003,2.4816 1.505,5.148 1.505,7.9992 v 1.8216 h -32.551 c 0.422,3.9072 2.033,7.1544 4.831,9.7416 2.798,2.5872 6.151,3.8808 10.058,3.8808 2.06,0 4.066,-0.3168 6.02,-0.9504 1.953,-0.6336 3.59,-1.5312 4.91,-2.6928 z m -15.84,-30.9672 c -3.432,0 -6.415,1.1616 -8.949,3.4848 -2.482,2.3232 -3.987,5.3064 -4.515,8.9496 h 26.532 c -0.528,-3.4848 -2.033,-6.4152 -4.514,-8.7912 -2.429,-2.4288 -5.28,-3.6432 -8.554,-3.6432 z" />
  <path
     style="fill:#ffffff"
     inkscape:connector-curvature="0"
     id="path14"
     d="M 252.661,102 V 62.3208 h 5.86 v 5.6232 c 1.162,-2.0592 2.693,-3.6432 4.594,-4.752 1.901,-1.1616 4.066,-1.7424 6.494,-1.7424 0.74,0 1.4,0.0528 1.98,0.1584 0.581,0.0528 1.162,0.1848 1.743,0.396 v 5.3856 c -0.687,-0.2112 -1.373,-0.3696 -2.059,-0.4752 -0.687,-0.1584 -1.373,-0.2376 -2.06,-0.2376 -2.428,0 -4.567,0.7128 -6.415,2.1384 -1.848,1.3728 -3.273,3.3792 -4.277,6.0192 V 102 Z" />
  <path
     style="fill:#ffffff"
     inkscape:connector-curvature="0"
     id="path16"
     d="m 275.537,96.5352 3.564,-3.8016 c 1.795,1.6896 3.802,3.0096 6.019,3.96 2.271,0.8976 4.567,1.3464 6.891,1.3464 3.168,0 5.755,-0.66 7.761,-1.98 2.007,-1.32 3.01,-3.036 3.01,-5.148 0,-1.6896 -0.607,-3.0096 -1.822,-3.96 -1.161,-1.0032 -3.009,-1.6896 -5.544,-2.0592 l -6.89,-0.9504 c -3.96,-0.5808 -6.917,-1.7424 -8.871,-3.4848 -1.9,-1.7952 -2.851,-4.1976 -2.851,-7.2072 0,-3.3264 1.399,-6.072 4.198,-8.2368 2.798,-2.2176 6.362,-3.3264 10.692,-3.3264 2.851,0 5.544,0.4224 8.078,1.2672 2.587,0.8448 5.095,2.1648 7.524,3.96 l -3.089,3.96 c -2.217,-1.4784 -4.382,-2.5872 -6.494,-3.3264 -2.059,-0.7392 -4.171,-1.1088 -6.336,-1.1088 -2.693,0 -4.91,0.6072 -6.653,1.8216 -1.689,1.2144 -2.534,2.7984 -2.534,4.752 0,1.6896 0.581,3.0096 1.742,3.96 1.162,0.8976 3.036,1.5312 5.623,1.9008 l 6.891,0.9504 c 3.96,0.528 6.917,1.716 8.87,3.564 2.007,1.7952 3.01,4.1976 3.01,7.2072 0,1.6896 -0.423,3.3 -1.267,4.8312 -0.792,1.4784 -1.928,2.772 -3.406,3.8808 -1.426,1.0558 -3.115,1.9008 -5.069,2.5348 -1.953,0.58 -4.065,0.871 -6.336,0.871 -3.273,0 -6.362,-0.528 -9.266,-1.584 -2.851,-1.109 -5.333,-2.6402 -7.445,-4.5938 z" />
  <defs
     id="defs39">
    <clipPath
       id="clip0">
      <rect
         width="388"
         height="118"
         fill="white"
         id="rect36" />
    </clipPath>
  </defs>
</svg>
