<?xml version="1.0" encoding="UTF-8" standalone="no"?>
<!-- Created with Inkscape (http://www.inkscape.org/) -->

<svg
   xmlns:dc="http://purl.org/dc/elements/1.1/"
   xmlns:cc="http://creativecommons.org/ns#"
   xmlns:rdf="http://www.w3.org/1999/02/22-rdf-syntax-ns#"
   xmlns:svg="http://www.w3.org/2000/svg"
   xmlns="http://www.w3.org/2000/svg"
   xmlns:sodipodi="http://sodipodi.sourceforge.net/DTD/sodipodi-0.dtd"
   xmlns:inkscape="http://www.inkscape.org/namespaces/inkscape"
   width="500"
   height="200"
   viewBox="0 0 132.29166 52.916668"
   version="1.1"
   id="svg8"
   sodipodi:docname="auto-at2players.svg"
   inkscape:version="0.92.5 (2060ec1f9f, 2020-04-08)">
  <defs
     id="defs2" />
  <sodipodi:namedview
     id="base"
     pagecolor="#ffffff"
     bordercolor="#666666"
     borderopacity="1.0"
     inkscape:pageopacity="0.0"
     inkscape:pageshadow="2"
     inkscape:zoom="1.53125"
     inkscape:cx="255.97378"
     inkscape:cy="108.24473"
     inkscape:document-units="mm"
     inkscape:current-layer="layer1"
     showgrid="false"
     units="px"
     inkscape:pagecheckerboard="true"
     inkscape:window-width="1366"
     inkscape:window-height="740"
     inkscape:window-x="0"
     inkscape:window-y="0"
     inkscape:window-maximized="1" />
  <metadata
     id="metadata5">
    <rdf:RDF>
      <cc:Work
         rdf:about="">
        <dc:format>image/svg+xml</dc:format>
        <dc:type
           rdf:resource="http://purl.org/dc/dcmitype/StillImage" />
        <dc:title></dc:title>
      </cc:Work>
    </rdf:RDF>
  </metadata>
  <g
     inkscape:label="Layer 1"
     inkscape:groupmode="layer"
     id="layer1"
     transform="translate(0,-244.08332)">
    <flowRoot
       xml:space="preserve"
       id="flowRoot10"
       style="fill:black;stroke:none;stroke-opacity:1;stroke-width:1px;stroke-linejoin:miter;stroke-linecap:butt;fill-opacity:1;font-family:Dymo;font-style:normal;font-weight:normal;font-size:40px;line-height:125%;letter-spacing:0px;word-spacing:0px;-inkscape-font-specification:Dymo;font-stretch:normal;font-variant:normal;"><flowRegion
         id="flowRegion12"
         style="-inkscape-font-specification:Dymo;font-family:Dymo;font-weight:normal;font-style:normal;font-stretch:normal;font-variant:normal;"><rect
           id="rect14"
           width="69.224487"
           height="121.46939"
           x="12.408163"
           y="37.387756"
           style="-inkscape-font-specification:Dymo;font-family:Dymo;font-weight:normal;font-style:normal;font-stretch:normal;font-variant:normal;" /></flowRegion><flowPara
         id="flowPara16"></flowPara></flowRoot>    <g
       aria-label="2.players"
       transform="matrix(1.0105561,-0.06540624,0.08595218,0.98399107,0,0)"
       style="font-style:normal;font-weight:normal;font-size:16.11084366px;line-height:125%;font-family:sans-serif;letter-spacing:0px;word-spacing:0px;fill:#ffffff;fill-opacity:1;stroke:none;stroke-width:0.40277109px;stroke-linecap:butt;stroke-linejoin:miter;stroke-opacity:1;image-rendering:auto"
       id="text20">
      <path
         d="m -4.7946985,265.4703 v 25.79023 H -20.802429 V 265.4703 Z m -12.9917815,9.85983 q 0,0.69599 0.657322,0.69599 0.618657,0 0.618657,-0.92799 0,-1.73997 -0.07733,-0.88931 0.03867,-0.54133 0.618656,-1.35331 0.309328,-0.464 3.247945,-0.464 2.281295,0 2.8226194,0.232 0.9666504,0.38666 0.9666504,2.01063 0,2.1653 -0.9666504,2.66796 -0.9279844,0.50266 -3.6732714,0.73465 -2.551957,0.232 -3.054615,0.65732 -0.966651,0.85066 -0.966651,4.40793 -0.657322,0.30933 -0.657322,0.65732 0,0.61866 0.657322,0.61866 0.309328,0 0.463992,-0.30933 0.154665,-0.30933 0.154665,-0.30933 l 7.3465425,0.15467 q 0.5799902,0 0.8119863,0.0773 0.2319961,0.0773 0.5799903,0.0773 0.3866601,0 0.3866601,-0.65732 0,-0.46399 -0.3866601,-0.46399 h -7.7332031 q -0.927984,0 -0.927984,-0.38666 0,-2.0493 0.811986,-3.13195 0.309328,-0.38666 2.513291,-0.54133 2.629289,-0.15466 4.1759296,-0.85065 1.3146445,-0.57999 1.3146445,-3.32528 0,-1.85596 -0.7346543,-2.55195 -1.0053164,-0.96665 -4.0599318,-0.96665 -3.170613,0 -3.866601,0.92798 -1.043983,1.39198 -1.043983,3.20928 z m -0.57999,8.04253 q 0.38666,0 0.38666,-2.47462 0,-1.62398 1.314645,-2.74529 0.38666,-0.30933 3.479941,-0.65732 2.977283,-0.30933 3.4412755,-0.92799 0.4639922,-0.65732 0.115998,-2.51329 -0.038666,-0.23199 -0.154664,-0.19333 -0.1546641,0.0773 -0.1546641,0.38666 0,1.54664 -0.3866604,2.12663 -0.347994,0.54133 -4.75592,0.92799 -3.441275,0.30933 -3.441275,3.9826 0,2.08796 0.154664,2.08796 z m 8.8158515,-12.41179 q -0.038666,0.0387 0.4639922,0.34799 0.6573223,0.348 1.0053164,1.00532 0.5799903,1.04398 0.5799903,2.74529 0,2.97728 -1.7786367,3.67327 -1.1599807,0.46399 -3.4026097,0.69599 -1.894634,0.19333 -2.706621,0.69599 -0.270662,0.15466 -0.541324,0.69598 -0.231996,0.50266 -0.231996,0.81199 0,0.15466 0.07733,0.19333 0.270662,0.116 0.77332,-1.12131 0.231996,-0.54133 2.861285,-0.81199 2.9386176,-0.27066 3.7506039,-0.88932 0.8506523,-0.61865 1.1986465,-1.19864 0.5413242,-1.00532 0.5413242,-2.86129 0,-1.9333 -1.0053164,-3.13195 -0.8119863,-0.88932 -1.4306426,-0.88932 -0.115998,0 -0.1546641,0.0387 z m -7.1145465,5.56791 q 0.03867,0.15466 0.270662,0.15466 0.657322,0 0.695988,-1.19865 0.03867,-1.62397 0.811986,-1.89463 0.541325,-0.19333 4.17593,-0.19333 0.19333,0 0.154664,-0.27066 -0.03867,-0.232 -0.231996,-0.232 l -3.170613,0.0387 q -2.242629,0.0387 -2.242629,2.78395 0,0.30933 -0.270662,0.50266 -0.231996,0.19333 -0.19333,0.30933 z m 0.07733,7.77187 q -0.309328,0 -0.309328,0.30932 0,0.30933 0.309328,0.348 2.977283,0.27066 5.838568,0.15466 2.203963,-0.0773 2.203963,-0.27066 0,-0.232 -1.3919766,-0.27066 -4.1759294,-0.116 -6.6505544,-0.27066 z m 1.237312,-2.3973 q -0.270662,0 -0.270662,0.232 0,0.30933 0.309328,0.30933 h 6.6118889 q 0.5026582,0 0.5026582,-0.27067 0,-0.23199 -0.5026582,-0.23199 z m -2.899951,-6.37989 q 0.115998,0 0.154664,-0.50266 0.115998,-0.88932 0.115998,-0.96665 0.03867,-0.27066 0.347994,-1.04398 0.347994,-0.81199 0.347994,-0.92799 0,-0.0387 -0.03867,-0.0773 -0.231996,-0.15466 -0.695988,0.65733 -0.425326,0.81198 -0.425326,1.73997 0,1.12131 0.19333,1.12131 z"
         style="font-style:normal;font-variant:normal;font-weight:normal;font-stretch:normal;font-size:38.66601562px;font-family:Dymo;-inkscape-font-specification:Dymo;fill:#ffffff;stroke-width:0.40277109px"
         id="path428" />
      <path
         d="m 0.61852897,265.4703 v 25.79023 H -5.3360374 V 265.4703 Z m -3.86660157,18.52102 q 0.1933301,0.34799 0.8119863,0.34799 0.3479942,0 0.6186563,-0.19333 0.3093281,-0.19333 0.2319961,-0.27066 -0.077332,-0.0773 -0.2319961,0.0773 -0.2706621,0.15467 -0.6186563,0.15467 -0.4639922,0 -0.7733203,-0.30933 -0.3093281,-0.348 -0.3093281,-0.73466 0,-0.42532 0.1933301,-0.73465 0.154664,-0.19333 0.115998,-0.232 -0.115998,-0.116 -0.3479941,0.232 -0.2319961,0.34799 -0.2319961,0.85065 0,0.88932 0.5413242,0.81199 z m 0.9279844,-0.15467 q 0.8506523,0 0.8506523,-1.15998 0,-0.85065 -0.8893183,-0.85065 -0.2706621,0 -0.5799903,0.34799 -0.3093281,0.348 -0.3093281,0.77333 0,0.88931 0.9279844,0.88931 z m 0.9666504,-0.23199 q 0.115998,0.0773 0.2319961,-0.232 0.15466403,-0.30933 0.15466403,-0.61865 0,-0.58 -0.34799413,-0.96666 -0.3093281,-0.27066 -0.5799902,-0.27066 -0.077332,0 -0.1159981,0.0387 0,0 0.3866602,0.30933 0.4253261,0.27066 0.4253261,0.92798 0,0.348 -0.115998,0.57999 -0.1159981,0.19333 -0.038666,0.232 z"
         style="font-style:normal;font-variant:normal;font-weight:normal;font-stretch:normal;font-size:38.66601562px;font-family:Dymo;-inkscape-font-specification:Dymo;fill:#ffffff;stroke-width:0.40277109px"
         id="path430" />
      <path
         d="M 0.07718106,265.4703 H 15.311591 v 25.79023 H 0.07718106 Z M 9.898349,271.42486 H 5.1424291 q -1.9719668,0 -1.9719668,0.348 0,0.30932 0.077332,0.42532 0.077332,0.0773 0.077332,0.232 0,1.43064 0.077332,3.28661 0.077332,1.8173 0.077332,2.01063 0,3.90527 -0.3866601,6.34123 -0.1159981,0.81199 0.9279844,0.81199 0.3479941,0 0.3479941,-0.38666 l -0.038666,-3.9826 q 0,-1.66264 0.6573222,-1.66264 0.1159981,0 0.3479942,0.0387 0.2319961,0.0387 0.3866601,0.0387 4.2919277,0 5.1425797,-0.116 1.817303,-0.23199 1.817303,-4.05993 0,-1.39198 -0.657322,-2.2813 -0.734654,-1.04398 -2.126631,-1.04398 z m -4.3692597,0.96665 4.4852577,0.0387 q 1.739971,0 1.739971,2.20396 0,1.73997 -0.115998,2.12663 -0.270662,1.00532 -1.430643,1.15998 -1.2759784,0.15467 -5.33591,0.0773 -0.4253262,0.38666 -0.6959883,0.0387 l 0.038666,-2.74529 q 0.038666,-2.47462 0.1159981,-2.66795 0.115998,-0.232 1.1986465,-0.232 z m 4.9879157,7.53988 q 2.977283,-0.30933 2.977283,-4.87192 0,-1.62397 -0.425326,-2.20396 -0.03867,-0.0773 -0.19333,-0.116 -0.115998,-0.0387 -0.115998,0.0773 0,0.0773 0.07733,0.19333 0.309328,0.46399 0.309328,1.54664 0,1.89463 -0.19333,2.62929 -0.347994,1.27598 -1.585306,1.9333 -0.927985,0.50266 -6.1478969,0.27066 -0.154664,0 -0.2319961,0.116 -0.038666,0.116 0,0.232 0.077332,0.15466 0.2319961,0.15466 2.8226192,0.30933 5.2972439,0.0387 z m -7.8878669,-7.84921 q -0.2319961,0 -0.2319961,2.12664 0,1.8173 -0.115998,7.65587 -0.038666,1.54664 0.2706621,1.54664 0.115998,0 0.154664,-0.61866 0.038666,-0.50266 0.038666,-2.66795 -0.038666,-3.90527 -0.038666,-6.10923 0,-1.93331 -0.077332,-1.93331 z m 8.0811969,4.94925 q 0.463993,-0.81198 0.463993,-1.9333 0,-1.31464 -0.502659,-1.7013 -0.77332,-0.61866 -4.9492497,-0.38666 -0.5799902,0.0387 -0.5799902,0.116 0,0.30933 0.8506524,0.42532 1.7013046,-0.0387 4.5239235,0.0773 0.309328,0.42532 0.270662,1.54664 0,1.15998 -0.309328,1.77863 -0.07733,0.15467 0.03867,0.19333 0.115998,0.0387 0.19333,-0.116 z m -3.6346051,0.116 q -1.8559688,0 -1.8559688,0.19333 0,0.116 1.8559688,0.116 1.8559687,0 1.8559687,-0.116 0,-0.19333 -1.8559687,-0.19333 z m -2.358627,-3.5186 -0.038666,2.16529 q 0.077332,0.0773 0.1546641,0.15467 0.154664,0 0.154664,-0.27067 0.2706622,-2.04929 -0.2706621,-2.04929 z m 0.2706621,6.49589 q -0.3479941,0 -0.2706621,2.70662 0.038666,0.27066 0.1933301,0.27066 0.1159981,-0.0387 0.1546641,-0.27066 0.038666,-1.04399 0.077332,-2.0493 0,-0.65732 -0.1546641,-0.65732 z"
         style="font-style:normal;font-variant:normal;font-weight:normal;font-stretch:normal;font-size:38.66601562px;font-family:Dymo;-inkscape-font-specification:Dymo;fill:#ffffff;stroke-width:0.40277109px"
         id="path432" />
      <path
         d="m 14.770233,265.4703 h 14.07443 v 25.79023 h -14.07443 z m 5.219912,6.37989 q 0,-0.81199 -1.082648,-0.81199 -0.811986,0 -0.425326,1.15998 0.154664,0.464 0.115998,0.77332 -0.03867,0.69599 -0.03867,0.96665 l 0.154664,6.53456 q 0,1.08265 -0.03867,2.12663 0.03867,0.85065 0.618656,0.81199 0.231996,0 1.237313,0.0387 1.391976,0.0387 3.209279,0.0387 1.855969,0 2.319961,0.15466 0.463992,0.116 0.347994,0.116 0.463992,0 0.463992,-0.85065 0,-0.57999 -0.541324,-0.57999 -1.662639,-0.0387 -2.899951,-0.0387 -2.010633,0 -2.861285,0.15467 -0.850653,0.116 -1.005317,0.116 -0.463992,0 -0.07733,-0.92799 0.03867,0.0387 0.07733,0.0387 0.425326,0 0.425326,-9.82117 z m -1.971966,-0.65732 q -0.19333,0 -0.19333,5.83856 0,5.79991 0.19333,5.79991 0.154664,0 0.154664,-5.79991 0,-1.39197 0.03867,-3.82793 0,-1.31465 -0.03867,-1.66264 -0.03867,-0.34799 -0.154664,-0.34799 z m 2.513291,6.88255 q 0,-0.15467 -0.154664,-0.15467 -0.19333,0.0387 -0.19333,0.19333 v 2.66796 q 0,0.19333 0.231996,0.19333 0.231996,-0.0387 0.19333,-0.232 -0.07733,-0.54132 -0.07733,-2.66795 z m 0.231996,3.36394 q 0,0.27066 1.54664,0.27066 3.325278,0 3.78927,0.15467 0.734654,0.27066 0.734654,0 0,-0.348 -0.77332,-0.38666 -5.297244,-0.19333 -5.297244,-0.0387 z m -1.739971,2.70662 q 0,0.27066 0.541324,0.232 1.507975,-0.116 1.469309,-0.116 0.657322,0 1.662639,0.116 1.005316,0.116 1.314644,0.116 2.551957,0 2.551957,-0.232 0,-0.15466 -1.005316,-0.15466 -5.103914,-0.15467 -5.103914,-0.15467 -1.430643,-0.0387 -1.430643,0.19333 z"
         style="font-style:normal;font-variant:normal;font-weight:normal;font-stretch:normal;font-size:38.66601562px;font-family:Dymo;-inkscape-font-specification:Dymo;fill:#ffffff;stroke-width:0.40277109px"
         id="path434" />
      <path
         d="m 28.30328,265.4703 h 16.007731 v 25.79023 H 28.30328 Z m 9.782502,6.92121 q -0.270662,-0.81198 -1.507975,-0.81198 -1.198646,0 -1.507974,0.81198 -1.237313,3.51861 -4.17593,10.82649 -0.07733,0.23199 -0.07733,0.42532 0,0.73466 0.57999,0.73466 0.502659,0 0.657323,-0.54133 l 0.57999,-2.01063 q 0.115998,-0.46399 1.198646,-0.46399 h 5.14258 q 0.850653,0 1.005317,0.50266 l 0.541324,1.77863 q 0.231996,0.73466 0.695988,0.73466 0.850653,0 0.463992,-1.15998 z m -1.507975,0 q 0.463993,0 0.695989,0.50266 0.270662,0.50266 0.19333,0.57999 -0.03867,0.0773 -0.115998,0.0773 -0.03867,0 -0.231996,-0.27066 -0.154664,-0.27066 -0.270662,-0.27066 -0.309329,0 -0.07733,0.61866 0.07733,0.19333 0.347995,0.34799 0.309328,0.116 0.38666,0.30933 l 1.469308,4.13726 q 0.03867,0.30933 0.07733,0.92799 0.03867,0.27066 0.231997,0.27066 0.07733,0 0.07733,-0.232 0,-0.23199 0.07733,-0.23199 l 0.154664,1.15998 q -5.335911,0.0773 -6.457225,0 0.96665,-2.35863 1.778637,-4.87192 0.502658,-1.58531 0.618656,-1.58531 0.115998,0 0.07733,0.19333 -0.03867,0.19333 0.154664,0.19333 0.154664,0 0.309328,-0.42532 0.154664,-0.42533 0,-0.42533 -0.115998,0 -0.154664,0.15466 0,0.116 -0.154664,0.116 -0.07733,0 -0.07733,-0.15466 0,-0.348 0.231996,-0.73466 0.270662,-0.38666 0.657322,-0.38666 z m -2.629289,0.96665 q -1.855968,4.67859 -3.711937,9.55051 0,0.38666 0.154664,0.46399 0.19333,0.0773 0.19333,-0.15466 0.03867,-0.27066 0.154664,-0.77332 2.513291,-6.1479 3.557273,-8.97052 0.154665,-0.42532 -0.07733,-0.42532 -0.154664,0 -0.270662,0.30932 z m 5.838569,1.31465 q -0.07733,-0.27066 -0.270662,-0.19333 -0.19333,0.0387 -0.115998,0.30933 0.154664,0.54132 2.474625,7.53987 0,0 0.231996,0.92798 0.115998,0.38666 0.270662,0.38666 0.347994,0 0.07733,-1.00531 -1.121315,-3.32528 -2.667955,-7.9652 z m -6.379893,7.19188 q -0.19333,0 -0.541324,0.77332 -0.309328,0.73465 -0.309328,1.12131 0,0.116 0.03867,0.15467 0.19333,0.0773 0.541324,-0.69599 0.309328,-0.65732 0.657322,-0.77332 0.231996,-0.0773 1.817303,-0.0773 2.319961,0 3.286611,0.0773 0.309328,0.0387 0.347994,0.69599 0.07733,0.65732 0.425327,0.65732 0.309328,0 0.19333,-0.77332 -0.115998,-0.69599 -0.347994,-0.92799 -0.19333,-0.23199 -0.927985,-0.23199 z m 3.557274,-6.99855 1.121314,3.82793 q 0,0.0387 0.07733,0.54133 0.03867,0.27066 0.19333,0.27066 0.154664,0 0.07733,-0.30933 -0.115998,-0.27066 -0.03867,-0.27066 0.38666,0 0.19333,-0.38666 -0.231996,-0.30933 -0.695988,-1.70131 -0.463992,-1.39197 -0.541324,-1.97196 -0.03867,-0.30933 -0.231996,-0.30933 -0.231996,0 -0.154664,0.30933 z m -0.850653,0.23199 q 0.154664,-0.38666 -0.154664,-0.38666 -0.115998,0 -0.19333,0.232 -1.314644,3.32528 -1.314644,3.82794 0,0.11599 0.07733,0.15466 0.154664,0.0387 0.77332,-1.62397 0.425326,-1.08265 0.811986,-2.20397 z m 1.198647,4.36926 q -1.469309,0.0387 -1.469309,0.30933 0,0.116 1.971967,0.116 0.19333,0 0.19333,-0.15466 0,-0.30933 -0.695988,-0.27067 z m -2.474625,-7.57854 q -0.154664,0 -0.270662,0.232 -0.115998,0.27066 0.03867,0.27066 0.154664,0 0.270662,-0.27066 0.115998,-0.232 -0.03867,-0.232 z m 3.711937,0.73466 0.463992,1.27598 q 0.07733,0.19333 0.309329,0.15466 0.19333,-0.0387 0.115998,-0.27066 l -0.425327,-1.15998 q -0.07733,-0.232 -0.309328,-0.232 -0.231996,0.0387 -0.154664,0.232 z"
         style="font-style:normal;font-variant:normal;font-weight:normal;font-stretch:normal;font-size:38.66601562px;font-family:Dymo;-inkscape-font-specification:Dymo;fill:#ffffff;stroke-width:0.40277109px"
         id="path436" />
      <path
         d="m 43.769669,265.4703 h 15.04108 v 25.79023 h -15.04108 z m 3.209279,7.38521 3.557274,7.19187 h 0.77332 q 0.115998,0 0.115998,0.15467 0,0.15466 -0.154664,0.15466 l -0.657322,0.0773 0.03867,2.66796 q 0,0.30933 -0.154665,0.34799 -0.115998,0.0387 -0.115998,0.232 0,0.96665 0.657323,0.96665 0.695988,0 0.695988,-1.66264 0,-0.38666 -0.03867,-1.23731 -0.03867,-0.73466 -0.03867,-1.04398 0,-0.42533 1.855969,-3.82794 2.049299,-3.82793 2.165297,-4.0986 0.03867,-0.11599 0.309328,-0.38666 0.270662,-0.27066 0.270662,-0.61865 -0.03867,-0.50266 -0.77332,-0.50266 -0.618657,0 -0.695989,0.50266 -0.19333,0.88932 -0.270662,1.04398 -0.734654,1.46931 -1.469308,2.89995 -1.082649,2.0493 -1.546641,2.1653 -0.115998,0.0387 -0.154664,0.23199 -0.03867,0.19333 0.07733,0.19333 0.19333,0 0.425326,0 0.07733,0.0387 0,0.27067 -0.03867,0.15466 -0.19333,0.11599 -0.154664,-0.0773 -0.231996,0 -0.03867,0.0387 0.03867,0.50266 0.07733,0.38666 -0.19333,0.38666 -0.07733,0 -0.03867,-0.27066 0.03867,-0.27066 -0.03867,-0.38666 l -3.40261,-6.80522 q -0.154664,-0.34799 -0.347994,-0.69599 -0.115998,-0.19333 -0.502658,-0.19333 -0.309328,0 -0.618656,0.30933 -0.309328,0.27066 -0.270662,0.54132 0,0.19333 0.425326,0.38666 0.425326,0.19334 0.502658,0.38667 z m -0.850652,0.11599 q -0.231996,0.0387 -0.03867,0.42533 l 3.634605,7.38521 v 3.32528 q 0,0.15466 0.154664,0.15466 0.154664,0 0.154664,-0.15466 l -0.07733,-0.81199 q 0.231996,-0.57999 0.154664,-2.35863 0,-0.19333 -0.154664,-0.30933 -0.154664,-0.11599 -0.154664,-0.42532 0,-0.348 -1.73997,-3.78927 -1.701305,-3.47994 -1.933301,-3.44128 z m 6.186562,11.17448 q 0.19333,0 0.19333,-1.54664 0.03867,-1.73997 0.115998,-1.89463 0.154664,-0.38666 2.242629,-4.29193 1.894635,-3.55727 1.894635,-4.0986 0,-0.116 -0.07733,-0.116 -0.154664,0 -0.231996,0.42533 -0.07733,0.42533 -0.425326,0.57999 -3.673272,6.65055 -3.711938,7.46254 -0.115998,3.47994 0,3.47994 z m -0.811986,-7.53987 q 0.154664,0.0773 1.391976,-2.0493 1.043983,-1.77864 1.043983,-1.9333 v 0 q 0,-0.0773 -0.03867,-0.0773 -0.115998,-0.0773 -1.275979,1.97196 -1.15998,2.01064 -1.15998,2.01064 0,0.0387 0.03867,0.0773 z m -3.247945,-4.63992 q -0.03867,0.0387 -0.03867,0.11599 0,-0.11599 0.657322,1.46931 0.811986,1.89464 1.005316,1.77864 0.07733,-0.0387 0.07733,-0.116 0,-0.116 -0.77332,-1.77863 -0.309328,-0.61866 -0.57999,-1.23732 -0.154664,-0.30933 -0.347994,-0.23199 z"
         style="font-style:normal;font-variant:normal;font-weight:normal;font-stretch:normal;font-size:38.66601562px;font-family:Dymo;-inkscape-font-specification:Dymo;fill:#ffffff;stroke-width:0.40277109px"
         id="path438" />
      <path
         d="m 58.269356,265.4703 h 15.62107 v 25.79023 h -15.62107 z m 12.875783,6.30256 q 0,-0.54133 -0.927984,-0.61866 0.19333,0 -1.391977,0 -3.827935,0 -5.761236,0.0773 -1.353311,0.0387 -1.353311,0.54133 0,0.15466 0.19333,0.30932 0.231997,0.15467 0.231997,0.54133 l -0.07733,10.09183 q -0.695989,0.57999 -0.695989,0.69599 0.03867,0.0773 0.115998,0.0773 0.463992,0.0773 0.579991,0.38666 0.115998,0.30933 0.154664,0.30933 0.115998,0 0.154664,-0.232 0.07733,-0.23199 0.154664,-0.38666 l 7.114547,0.0387 q 0.463992,0 0.734654,0.27066 0.270662,0.232 0.347994,0.232 0.57999,0 0.57999,-0.88932 0,-0.50266 -0.695988,-0.50266 -7.191879,0 -7.191879,0 -0.38666,0.0387 -0.57999,-0.116 -0.154664,-0.19333 -0.07733,-0.38666 0.115998,-0.27066 0.154664,-1.58531 0.03867,-1.19864 0.231996,-1.54664 0.03867,-0.0387 0.03867,-0.11599 0,-0.0387 -0.231996,-0.19333 -0.19333,-0.15467 -0.19333,-0.42533 0,-0.54132 0.425326,-0.54132 0.19333,0 0.270662,0.15466 0.07733,0.15466 0.154664,0.15466 0.115998,0 0.270662,-0.0773 0.19333,-0.0773 0.347994,-0.0773 H 67.5492 q 1.73997,0 1.623972,0 0.579991,-0.0387 0.579991,-0.57999 0,-0.46399 -1.546641,-0.46399 -0.231996,0 -2.087965,0.11599 -1.855969,0.116 -2.899951,0.116 -0.425326,0 -0.425326,-0.46399 0,-0.0773 0.03867,-0.46399 0.07733,-0.38666 0.07733,-1.23731 0,-0.348 -0.115998,-1.23732 -0.07733,-0.92798 -0.07733,-1.08264 0,-0.61866 0.38666,-0.61866 0.231996,0 0.425326,0.15466 0.19333,0.116 0.309328,0.116 0.19333,0 0.502658,-0.15466 h 5.683905 q 0.115998,0 0.541324,0.0387 0.309328,0.0387 0.425326,0 0.154664,-0.116 0.154664,-0.42532 z m -1.121314,6.49589 q 0,-0.0773 -0.38666,0.0387 -0.541325,0.19333 -0.889319,0.19333 h -4.214595 q -0.270663,0 -0.309329,-0.0773 -0.03867,-0.116 -0.154664,-0.116 -0.07733,0 -0.154664,0.232 -0.07733,0.19333 -0.231996,0.19333 -0.115998,0 -0.270662,-0.0773 -0.03867,0.50266 -0.07733,0.96665 0.07733,1.73997 0.07733,1.73997 0,0.19333 0.154664,0.23199 0.19333,0.0387 0.19333,-0.23199 l 0.03867,-2.2813 q 0.425326,-0.11599 1.469309,-0.11599 0.695988,0 1.855969,0.0387 1.198646,0.0387 1.314644,0.0387 1.585307,0 1.585307,-0.77332 z m -8.777186,-6.72789 q -0.19333,0 -0.19333,5.83857 0,5.83857 0.19333,5.83857 0.154664,0 0.154664,-0.85066 0,0.77333 0,-4.98791 0,-1.39198 0.03867,-3.82794 0,-1.31464 -0.03867,-1.66264 -0.03867,-0.34799 -0.154664,-0.34799 z m 1.082649,12.79845 q 0,0.232 0.541324,0.19333 1.237312,-0.116 1.430642,-0.116 0.541325,0 1.778637,0.15467 1.275979,0.15466 2.242629,0.15466 2.513291,0 2.513291,-0.27066 0,-0.27066 -7.114547,-0.34799 -1.391976,0 -1.391976,0.23199 z m 1.855968,-10.98115 5.567907,0.0387 q 1.15998,0 1.701304,-0.54132 0.347994,-0.348 -0.07733,-0.348 0,0 -0.347994,0.232 -0.309328,0.19333 -1.198646,0.23199 0.270662,-0.19333 0,-0.19333 l -5.722571,-0.0773 q -0.347994,0 -0.347994,0.38666 0,0.27066 0.425326,0.27066 z m 0.19333,8.50653 q -0.309328,0 -0.309328,0.15466 0,0.19333 0.347994,0.19333 0.734655,0 2.938618,-0.0773 2.203963,-0.0773 2.319961,-0.0773 0.463992,0 1.082648,0.15466 0.309328,0.0773 0.309328,-0.116 0,-0.27066 -0.77332,-0.27066 z m -0.347994,-5.83857 q -0.231996,0 -0.231996,0.19333 0,0.27066 0.502658,0.30933 1.005317,0 1.971967,0 2.822619,0.0387 2.822619,-0.27067 -0.03867,-0.0387 -0.270662,-0.0387 l -4.098597,0.0773 q -0.347995,0 -0.502659,-0.116 -0.154664,-0.15466 -0.19333,-0.15466 z m -0.270662,-2.0493 q 0,-0.30933 -0.115998,-0.30933 -0.231996,0 -0.231996,0.42533 0,1.19864 0.154664,1.62397 0.115998,0.0387 0.231996,-0.116 z"
         style="font-style:normal;font-variant:normal;font-weight:normal;font-stretch:normal;font-size:38.66601562px;font-family:Dymo;-inkscape-font-specification:Dymo;fill:#ffffff;stroke-width:0.40277109px"
         id="path440" />
      <path
         d="m 73.349076,265.4703 h 16.046396 v 25.79023 H 73.349076 Z m 10.207828,6.07056 h -5.413243 q -1.9333,0 -1.971966,0.232 -0.07733,0.50265 0.19333,0.50265 0.03867,0 0.115998,-0.0773 0.115998,-0.0773 0.154664,-0.0387 0.03867,0.0387 0.03867,0.27066 -0.03867,4.17593 -0.347994,11.05848 l -0.811987,0.0387 q -0.154664,0 -0.154664,0.15466 0,0.19333 0.154664,0.19333 l 0.618657,0.0387 q 0,0.73465 0.463992,0.73465 0.425326,0 0.850652,-0.42533 -0.154664,-2.24263 -0.07733,-3.9826 0.07733,-1.62397 0.309328,-1.62397 0,0 0.347994,0.0773 0.347995,0.0387 0.850653,0.0387 h 5.14258 q 1.507974,0 1.507974,1.54664 0,3.59594 -0.347994,3.8666 -0.07733,0.0387 -0.07733,0.116 0,0.19333 0.270662,0.34799 0.309329,0.15467 0.502659,0.0773 0.541324,-0.232 0.618656,-1.46931 0,-0.0387 0,-2.82262 0,-0.65732 -0.347994,-1.23731 -0.347994,-0.57999 -0.773321,-0.69599 1.159981,-1.43065 1.159981,-3.40261 0,-3.51861 -2.977283,-3.51861 z m -6.186563,0.88932 q 3.363944,0.0773 6.302561,0.0387 0.657322,0 1.198646,0.65733 0.541324,0.65732 0.541324,1.50797 0,3.24795 -1.043982,3.17062 -4.137264,-0.30933 -6.225229,-0.0387 -0.19333,0.0387 -0.231996,0.19333 0,0.116 -0.03867,0.116 -0.309328,0.0387 -0.57999,-0.116 0,-2.51329 0.07733,-5.52924 z m 7.037215,4.52392 q 0.57999,-0.65732 0.57999,-1.97196 0,-1.46931 -0.695988,-1.85597 -0.889318,-0.50266 -5.567906,-0.232 -0.579991,0.0387 -0.579991,0.19333 0,0.232 0.579991,0.30933 0.38666,0.0387 1.198646,0 0.966651,-0.0387 1.082649,-0.0387 0.347994,0 0.927984,0 0.618656,-0.0387 0.811986,-0.0387 1.739971,0 1.739971,1.8173 0,1.12131 -0.19333,1.50797 -0.115998,0.232 -0.07733,0.348 0.03867,0.116 0.19333,-0.0387 z m -6.573223,-2.86128 q -0.115998,2.86128 0.03867,2.97728 0.154664,0.116 2.397293,0.116 2.281295,0 2.319961,-0.19333 0,-0.15467 -1.855968,-0.15467 -2.126631,-0.0387 -2.590624,-0.15466 0.154665,-1.23731 0.154665,-2.24263 0,-0.85065 -0.309329,-0.85065 -0.154664,0 -0.154664,0.50266 z m 0.502659,5.18124 0.231996,0.50266 4.639922,0.27066 q 1.082648,0.0773 1.082648,-0.50265 0,-0.15467 -0.309328,-0.15467 z m -2.513291,-7.07588 q 0.115998,0 0.115998,8.27453 0,2.55196 -0.231997,2.55196 -0.19333,0 -0.19333,-3.44128 0,-7.38521 0.309329,-7.38521 z m 2.12663,7.61721 q -0.154664,0.50266 -0.154664,2.35862 0,1.81731 0.154664,1.89464 0.309329,0 0.309329,-2.86129 0,-1.27597 -0.309329,-1.39197 z m 7.037215,0.27066 q 0,-0.30933 -0.115998,-0.30933 -0.347994,0 -0.309328,0.65732 0.03867,0.77332 -0.03867,2.47463 -0.03867,0.96665 0.115998,0.96665 0.270662,0 0.347994,-1.43064 0,-1.19865 0,-2.35863 z m 1.778637,-1.8173 q 0.618656,-0.96665 0.618656,-2.62929 0,-0.92799 -0.154664,-1.66264 -0.03867,-0.19333 -0.115998,-0.30933 -0.07733,-0.116 -0.115998,-0.0773 -0.03867,0.0387 0,0.30933 0.309328,2.70662 -0.463992,4.21459 -0.115998,0.19333 0.03867,0.232 0.115998,0.0773 0.19333,-0.0773 z m 0.347994,1.50797 q -0.231996,0 -0.231996,1.35331 0,1.35331 0.231996,1.35331 0.07733,0 0.07733,-1.35331 0,-1.35331 -0.07733,-1.35331 z"
         style="font-style:normal;font-variant:normal;font-weight:normal;font-stretch:normal;font-size:38.66601562px;font-family:Dymo;-inkscape-font-specification:Dymo;fill:#ffffff;stroke-width:0.40277109px"
         id="path442" />
      <path
         d="m 88.854111,265.4703 h 16.007729 v 25.79023 H 88.854111 Z m 8.313193,5.95456 q -3.363943,0 -4.330593,0.73466 -0.927985,0.69599 -0.927985,3.09328 0,1.5853 0.966651,2.20396 0.96665,0.57999 3.673271,0.57999 2.513291,0 3.054615,0.15467 1.585307,0.42532 1.585307,2.16529 0,1.43064 -0.77332,1.97197 -0.889319,0.61866 -3.40261,0.61866 -3.170613,0 -3.711937,-0.61866 -0.19333,-0.19333 -0.541325,-1.08265 -0.270662,-0.61866 -0.657322,-0.61866 -0.850652,0 -0.850652,0.69599 0,0.54133 0.502658,0.116 0.270662,0.15466 0.502658,0.88932 0.231996,0.69599 0.966651,1.00532 1.082648,0.50265 3.634605,0.50265 2.590623,0 3.711934,-0.54132 1.62398,-0.77332 1.62398,-2.89995 0,-2.24263 -1.54664,-2.89995 -0.850657,-0.38666 -3.170618,-0.38666 -2.783953,0 -3.131947,-0.0773 -1.507974,-0.38666 -1.507974,-2.28129 0,-1.66264 1.35331,-2.12663 0.618656,-0.19333 2.783953,-0.19333 2.435959,0 3.363946,0.46399 0.81198,0.42533 0.81198,1.46931 0,0.65732 0.348,0.65732 0.69599,0 0.69599,-0.96665 0,-2.62929 -5.026586,-2.62929 z m -5.181246,0.81199 q -0.270662,-0.19333 -0.695988,0.61866 -0.463992,0.92798 -0.463992,1.9333 0,2.28129 0.850652,3.13194 1.237313,1.31465 5.103914,1.31465 2.242629,0 2.938617,0.27066 0.541329,0.232 0.579989,0.88932 0.0387,0.61865 -0.347993,0.88932 -0.347994,0.27066 -0.347994,0.30932 0,0.0773 0.19333,0.0773 0.773317,0 0.773317,-1.35331 0,-1.43065 -0.695985,-1.43065 -1.391976,0 -3.518607,-0.15466 -2.861285,-0.232 -3.286611,-0.54132 -1.082649,-0.77333 -1.430643,-1.46931 -0.347994,-0.69599 -0.347994,-2.01064 0,-1.39197 0.425326,-2.04929 0.270662,-0.42533 0.270662,-0.42533 z m 10.787822,7.15321 q -0.0387,-0.15466 -0.116,-0.116 -0.0773,0.0387 -0.0773,0.232 0.0773,2.47462 -0.69599,3.47994 -1.19865,1.58531 -5.026584,1.58531 -3.131947,0 -4.485258,-0.85065 -0.154664,-0.116 -0.19333,-0.0387 -0.07733,0.0773 0.07733,0.19333 0.966651,0.77332 2.513291,1.00532 0.811987,0.11599 2.977284,0.11599 1.971966,0 3.286615,-0.81198 1.85596,-1.12132 1.85596,-3.67327 0,-0.77332 -0.11599,-1.12132 z m -6.611892,2.70662 q -0.77332,0 -1.662639,-0.27066 -1.005316,-0.30933 -1.198646,-0.69599 -0.07733,-0.116 -0.154664,-0.116 -0.07733,0.0387 0,0.19333 0.309328,0.81199 1.507974,1.04399 1.198647,0.19333 1.198647,0.30933 0,0.0773 1.623972,0.0773 1.507975,0 1.507975,-0.30933 0,-0.232 -0.695988,-0.27066 1.391976,0.0387 -2.126631,0.0387 z m -1.121315,-5.64524 q 1.739971,0.116 3.441276,0.232 2.049301,0.116 3.131951,0.85065 0.11599,0.0773 0.19333,0.0387 0.11599,-0.0773 0,-0.15467 -1.66264,-1.43064 -6.727891,-1.19864 -0.309328,0 -0.309328,0.116 0.03867,0.0773 0.270662,0.11599 z m -1.894634,-1.66263 q 0,1.15998 0.502658,1.15998 0.19333,0 0.19333,-0.232 0,-0.116 -0.154664,-0.232 -0.154664,-0.15466 -0.154664,-0.69598 0,-0.73466 1.275978,-0.92799 0.579991,-0.116 2.319961,-0.116 1.739971,0 2.435959,0.42533 0.463993,0.232 0.541323,0.69599 0.0773,0.42532 0.27066,0.42532 0.348,-0.0773 0.0387,-1.04398 -0.38666,-1.19864 -3.441276,-1.19864 -2.706621,0 -2.513291,0.0387 -0.463992,-0.0773 -0.463992,0.15467 0,0.0773 0.154664,0.15466 0.154664,0.0773 0.154664,0.116 0,-0.0773 -0.57999,0.23199 -0.57999,0.30933 -0.57999,1.04399 z m -2.049299,6.88255 q -0.03867,-0.116 -0.154664,-0.0773 -0.115998,0.0387 -0.115998,0.27067 0,1.08265 0.270662,1.08265 0.154664,0 0.07733,-0.69599 z"
         style="font-style:normal;font-variant:normal;font-weight:normal;font-stretch:normal;font-size:38.66601562px;font-family:Dymo;-inkscape-font-specification:Dymo;fill:#ffffff;stroke-width:0.40277109px"
         id="path444" />
    </g>
  </g>
</svg>
