<?xml version="1.0" encoding="UTF-8" standalone="no"?>
<!-- Created with Inkscape (http://www.inkscape.org/) -->

<svg
   xmlns:dc="http://purl.org/dc/elements/1.1/"
   xmlns:cc="http://creativecommons.org/ns#"
   xmlns:rdf="http://www.w3.org/1999/02/22-rdf-syntax-ns#"
   xmlns:svg="http://www.w3.org/2000/svg"
   xmlns="http://www.w3.org/2000/svg"
   xmlns:sodipodi="http://sodipodi.sourceforge.net/DTD/sodipodi-0.dtd"
   xmlns:inkscape="http://www.inkscape.org/namespaces/inkscape"
   width="500"
   height="200"
   viewBox="0 0 132.29166 52.916668"
   version="1.1"
   id="svg8"
   sodipodi:docname="auto-neverplayed.svg"
   inkscape:version="0.92.5 (2060ec1f9f, 2020-04-08)">
  <defs
     id="defs2" />
  <sodipodi:namedview
     id="base"
     pagecolor="#ffffff"
     bordercolor="#666666"
     borderopacity="1.0"
     inkscape:pageopacity="0.0"
     inkscape:pageshadow="2"
     inkscape:zoom="1.53125"
     inkscape:cx="255.97378"
     inkscape:cy="108.24473"
     inkscape:document-units="mm"
     inkscape:current-layer="layer1"
     showgrid="false"
     units="px"
     inkscape:pagecheckerboard="true"
     inkscape:window-width="1366"
     inkscape:window-height="740"
     inkscape:window-x="0"
     inkscape:window-y="0"
     inkscape:window-maximized="1" />
  <metadata
     id="metadata5">
    <rdf:RDF>
      <cc:Work
         rdf:about="">
        <dc:format>image/svg+xml</dc:format>
        <dc:type
           rdf:resource="http://purl.org/dc/dcmitype/StillImage" />
        <dc:title></dc:title>
      </cc:Work>
    </rdf:RDF>
  </metadata>
  <g
     inkscape:label="Layer 1"
     inkscape:groupmode="layer"
     id="layer1"
     transform="translate(0,-244.08332)">
    <flowRoot
       xml:space="preserve"
       id="flowRoot10"
       style="fill:black;stroke:none;stroke-opacity:1;stroke-width:1px;stroke-linejoin:miter;stroke-linecap:butt;fill-opacity:1;font-family:Dymo;font-style:normal;font-weight:normal;font-size:40px;line-height:125%;letter-spacing:0px;word-spacing:0px;-inkscape-font-specification:Dymo;font-stretch:normal;font-variant:normal;"><flowRegion
         id="flowRegion12"
         style="-inkscape-font-specification:Dymo;font-family:Dymo;font-weight:normal;font-style:normal;font-stretch:normal;font-variant:normal;"><rect
           id="rect14"
           width="69.224487"
           height="121.46939"
           x="12.408163"
           y="37.387756"
           style="-inkscape-font-specification:Dymo;font-family:Dymo;font-weight:normal;font-style:normal;font-stretch:normal;font-variant:normal;" /></flowRegion><flowPara
         id="flowPara16"></flowPara></flowRoot>    <g
       aria-label="not.played"
       transform="matrix(0.9975449,-0.06625935,0.08484552,0.99682549,0,0)"
       style="font-style:normal;font-weight:normal;font-size:14.67653275px;line-height:125%;font-family:sans-serif;letter-spacing:0px;word-spacing:0px;fill:#ffffff;fill-opacity:1;stroke:none;stroke-width:0.36691332px;stroke-linecap:butt;stroke-linejoin:miter;stroke-opacity:1;image-rendering:auto"
       id="text20">
      <path
         d="m -20.493636,262.11225 h 14.5826013 v 23.4942 H -20.493636 Z m 2.923565,17.50617 q 0.422684,-0.24657 0.457908,-1.02149 0.07045,-0.63402 -0.140895,-1.02148 v -8.59458 q 0,-0.5988 0.38746,-0.5988 0.422685,0 0.774921,0.31701 0.387461,0.31701 0.28179,0.49313 -0.07045,0.10567 -0.387461,0.0704 -0.281789,-0.0704 -0.281789,0.21134 0,0.38746 0.352237,0.38746 h 0.03522 q 0.246566,0 0.317013,0.10567 l 4.931315,7.99578 q 0.140895,0.24656 0.03522,0.31701 -0.140895,0.0704 -0.140895,0.1409 0,0.14089 0.281789,0.31701 0.317013,0.17612 0.598803,0.17612 1.1271573,0 1.6202887,-0.45791 0.1761184,-0.17612 0.1761184,-0.24657 0,-0.0704 -0.1408947,-0.14089 -0.1408947,-0.0704 -0.1408947,-0.17612 l 0.1761184,-8.17189 q 0.035224,-0.24657 0.070447,-0.52836 0,0 -0.2465657,-0.10567 -0.035224,-0.0352 -0.035224,-0.0704 0,-0.10567 0.1408947,-0.4579 0.1761184,-0.35224 0.1761184,-0.42269 0,-0.73969 -0.5283551,-0.73969 -0.2817894,0 -0.5283551,0.28178 -0.2465658,0.24657 -0.2465658,0.52836 0,0.21134 0.1761184,0.28179 0.2113421,0.0352 0.2113421,0.38746 v 6.12892 q 0,2.00775 -0.035224,2.21909 -0.035224,0.52836 -0.3522368,0.52836 -0.6340261,0 -0.7396971,-0.28179 -0.105671,-0.31702 -0.176118,-0.63403 -3.240578,-4.86087 -5.389223,-9.08771 -0.105671,-0.21134 -0.352236,-0.21134 l -1.3385,-0.0352 q -0.774921,-0.0352 -0.774921,0.73969 0,0.1409 0.28179,0.28179 0.140894,0.10567 0.140894,0.91582 -0.03522,2.00775 -0.07045,3.98027 l -0.07045,4.89609 q 0,0.52836 -0.211343,0.52836 -0.281789,0 -0.281789,-0.28179 0,-0.0704 0.03522,-1.44417 0,-1.40895 0,-1.65551 0,-0.31702 -0.140895,-0.38746 -0.176118,-0.0352 -0.176118,0.17611 v 3.5576 q 0,0.73969 0.563578,0.77492 z m 6.375485,-0.5988 q 0.105671,-0.0352 0.105671,-0.17612 0,-0.24657 -0.845368,-1.3385 v -0.38746 q -0.845368,-1.12716 -2.676999,-4.33251 -1.408947,-2.46566 -1.620289,-2.32476 -0.105671,0.0704 0.422684,0.88059 0.563579,0.81014 0.457907,0.88059 -0.07045,0.0704 1.972526,3.45192 2.042973,3.38147 2.183868,3.34625 z m 3.5223676,-3.02924 0.035224,-7.22085 q -0.070447,-0.10567 -0.1408947,-0.17612 -0.1408947,0.0352 -0.1408947,0.21134 l -0.070447,6.55161 -0.105671,0.28179 v 2.14864 q 0,0.14089 0.1408947,0.17612 0.1761184,0.0704 0.1761184,-0.1409 z m -10.9545626,-8.031 q -0.176119,0 -0.176119,0.63403 0,-0.17612 0,2.78267 0,0.91582 -0.03522,2.11342 0,0.84537 0,1.05671 0.03522,0.31701 0.140894,0.31701 0.176119,0 0.176119,-3.48714 0,0.49313 0.07045,-2.677 0,-0.7397 -0.176118,-0.7397 z m 1.972526,2.18387 q -0.176119,0 -0.246566,1.02149 -0.03522,0.7397 0.03522,2.14864 0.03522,1.72596 0.03522,1.79641 0,3.38147 0.140895,3.4167 0.176118,0.0352 0.211342,-0.0705 0,-0.0704 0,-0.81015 -0.07045,-1.02148 -0.03522,-2.18386 0.03522,-1.51462 0,-2.50088 -0.03522,-0.66925 -0.07045,-1.05671 -0.03522,-0.38746 -0.03522,-0.38746 0,-1.37373 -0.03522,-1.37373 z m 6.8686161,6.05847 q 0.1408947,0 0.070447,-1.23282 -0.070447,-2.60656 -0.070447,-5.17788 0,-1.76119 -0.105671,-1.76119 -0.2113421,0 -0.2113421,1.76119 0,-0.8806 -0.03522,1.72596 -0.03522,1.90207 0.03522,3.06446 0.07045,1.62028 0.3170131,1.62028 z m -4.5790781,-6.97428 q -0.105671,0 -0.105671,0.14089 0,0.24657 0.422684,1.02149 0.317014,0.56358 1.303276,2.18387 0.422685,0.66925 0.810145,1.3385 l 0.528355,0.52835 q 0.140895,-0.21134 -0.317013,-0.95104 z m 6.3754855,9.26382 q 0,0 -0.3874604,0.49313 -0.3874604,0.45791 -1.197605,0.45791 -0.211342,0 -0.6692501,-0.10567 -0.246565,-0.0352 -0.246565,0.0704 0,0.31701 0.8805915,0.31701 0.7749208,0 1.3032759,-0.45791 0.3874605,-0.31701 0.3874605,-0.66925 0,-0.10567 -0.070447,-0.10567 z m -2.5008805,-2.71222 -0.352237,-0.7397 q -0.07045,-0.14089 -0.211342,-0.10567 -0.176119,0.0352 -0.105671,0.1409 l 0.352237,0.73969 q 0.07045,0.1409 0.211342,0.10567 0.140894,-0.0352 0.105671,-0.14089 z m 0.493131,0.88059 q 0,0.66925 0.3522368,0.66925 0.105671,0 0.105671,-0.42268 0,-0.42269 -0.1408947,-0.45791 -0.3170131,-0.10567 -0.3170131,0.21134 z"
         style="font-style:normal;font-variant:normal;font-weight:normal;font-stretch:normal;font-size:35.22367477px;font-family:Dymo;-inkscape-font-specification:Dymo;fill:#ffffff;stroke-width:0.36691332px"
         id="path312" />
      <path
         d="M -6.4041795,262.11225 H 8.1784219 v 23.4942 H -6.4041795 Z m 12.5044046,11.3068 q 0,-3.62803 -0.8101446,-4.75519 -0.9510392,-1.30328 -4.0859462,-1.30328 -2.9587887,0 -3.6984859,0.5988 -1.1976049,0.98627 -1.1976049,4.7552 0,3.66326 0.5283551,4.50863 0.8453682,1.40895 4.4734067,1.40895 2.817894,0 3.6280385,-0.70448 1.1623813,-0.98626 1.1623813,-4.50863 z m -0.8101446,-0.38746 q 0,3.24058 -0.3874604,3.87461 -0.6340261,1.05671 -3.6632622,1.05671 -2.4656572,0 -3.2053544,-0.66925 -0.9510392,-0.84537 -0.9510392,-3.73371 0,-3.87461 0.5283551,-4.54386 0.5635788,-0.70447 3.6984859,-0.70447 2.8883413,0 3.5928148,1.16238 0.3874604,0.66925 0.3874604,3.55759 z m -3.9802752,-4.05072 h -1.90207844 q -2.00774946,0 -1.97252576,3.80416 0.035224,2.00775 0.211342,2.18387 0.1408947,0.0352 0.2113421,-0.1409 -0.1761184,-0.5988 -0.1056711,-2.00775 0.070447,-1.40895 0.2465658,-2.28954 0.211342,-0.91581 1.40894696,-1.09193 0.17611837,-0.0352 1.97252574,-0.0352 1.408947,0 1.9373022,0.24657 0.4226841,0.21134 0.4226841,-0.31701 0,-0.35224 -2.4304336,-0.35224 z m 2.8883413,1.16238 q -0.1761183,-0.10567 -0.1761183,0 -0.035224,0.10567 0.070447,0.28179 0.1408947,0.17612 0.1408947,0.84537 l -0.035224,4.29729 q 0,1.69073 -2.3952099,1.69073 -0.1408947,0 -0.1761183,0.0705 -0.035224,0.0704 0.105671,0.10567 0.4579078,0.10567 1.0919339,-0.0352 1.303276,-0.28179 1.6202891,-1.02149 0.1408947,-0.28179 0.1408947,-1.12716 v -4.26206 q 0,-0.5988 -0.3874605,-0.84537 z m -6.058472,8.80592 q -0.2817894,-0.10567 -0.3170131,0 -0.035224,0.1409 0.1761184,0.21134 1.37372329,0.56358 3.3462491,0.56358 4.2620646,0 4.8256434,-2.18387 0.035224,-0.17611 -0.035224,-0.21134 -0.105671,-0.0352 -0.1761183,0.10567 -0.8805919,1.90208 -4.6495251,1.90208 -1.97252579,0 -3.1701307,-0.38746 z m -2.7474467,-3.17013 q 0.035224,0.10567 0.1761184,0.10567 0.105671,-0.0352 0.105671,-0.17612 -0.1761183,-1.58506 -0.1408947,-2.85311 0.1056711,-3.66327 0.9510393,-4.33252 0.2465657,-0.17612 0.070447,-0.24656 -0.1408947,-0.10567 -0.3170131,0.0704 -1.0567102,1.30328 -1.0567102,4.47341 0,2.00775 0.211342,2.95879 z m 11.377247,-4.22684 q 0,-0.28179 -0.105671,-0.28179 -0.1408947,0.0352 -0.1408947,0.28179 0,2.78267 -0.1056711,4.0155 0,0.17612 0.1056711,0.21134 0.105671,0 0.1408947,-0.14089 0.105671,-0.49314 0.105671,-4.08595 z m -6.48115617,5.67101 q -0.35223675,0 -0.35223675,0.10567 0,0.1409 0.35223675,0.1409 0.38746042,0 0.38746042,-0.1409 0,-0.10567 -0.38746042,-0.10567 z m -4.33251203,-0.10567 q -0.070447,0 -0.070447,0.10567 0,0.21134 0.211342,0.52836 0.2465658,0.28179 0.3522368,0.14089 0,0 -0.2465657,-0.38746 -0.2113421,-0.38746 -0.2465658,-0.38746 z"
         style="font-style:normal;font-variant:normal;font-weight:normal;font-stretch:normal;font-size:35.22367477px;font-family:Dymo;-inkscape-font-specification:Dymo;fill:#ffffff;stroke-width:0.36691332px"
         id="path314" />
      <path
         d="M 7.6852771,262.11225 H 20.682813 v 23.4942 H 7.6852771 Z m 7.4674189,6.58683 q 1.690737,-0.0704 3.381473,-0.14089 0.563579,-0.0352 0.563579,-0.28179 0,-0.70448 -1.479395,-0.70448 l -7.361748,-0.0704 q -1.0214862,0 -1.0214862,0.77492 0,0.28179 0.7044735,0.31701 0.2465657,0 3.2405777,0 0.105671,-0.17612 0.598803,-0.21134 0.493131,-0.0352 0.493131,0.14089 0,0.21135 -0.07045,0.21135 -0.03522,0 -0.211342,-0.0704 -0.140895,-0.0704 -0.28179,-0.0704 -0.246565,0.0352 -0.281789,0.21134 0,0.17612 0.281789,0.17612 0.140895,0.10567 0.07045,0.42268 -0.03522,0.21135 -0.105671,0.42269 l -0.140895,3.98027 v 4.12117 q 0,0.28179 -0.176118,0.63403 -0.176119,0.31701 -0.176119,0.38746 0,0.0704 0.105671,0.1409 0.105671,0.0704 0.317013,0.38746 0.140895,0.17611 0.457908,0.17611 0.634026,0 0.634026,-0.52835 l -0.105671,-8.52413 q 0,-0.21134 0.07045,-0.35224 0.105671,-0.17612 0.105671,-0.49313 0,-0.88059 -0.246566,-1.02148 -0.07045,-0.0704 0.07045,-0.17612 0.140895,-0.10567 0.317013,-0.10567 0.211342,0 0.246566,0.24656 z m -2.289539,10.49666 q 0.211342,0 0.211342,-1.23283 l 0.07045,-6.6925 q 0,-1.62029 -0.352237,-1.62029 -0.176118,0 -0.176118,0.31701 0,0.21135 0.07045,0.31702 0.07045,0.0704 0.07045,0.31701 0,-0.0704 -0.07045,2.60655 -0.07045,2.53611 -0.03522,3.94505 0.03522,2.04298 0.211342,2.04298 z m 2.219092,-7.53787 q 0.03522,0.28179 0.176118,0.21134 0.105671,-0.0352 0.140895,-0.21134 0.03522,-0.5988 0.07045,-1.23283 0.03522,-0.66925 0.28179,-0.70447 0.880591,-0.0352 1.761183,-0.10567 1.021487,-0.0352 1.408947,-0.28179 0.140895,-0.10567 0.176119,-0.1409 -0.03522,-0.0352 -0.07045,-0.0704 -0.07045,0 -0.211342,0.0704 -0.105671,0.0352 -0.38746,0.1409 -0.140895,0.0352 -0.140895,-0.0704 0,-0.10567 0.03522,-0.24657 0,-0.10567 -0.140895,-0.0352 -0.422684,0.17612 -1.162381,0.17612 -0.986263,0 -1.162381,0 -0.105671,0.0352 -0.105671,0.0704 0,0.0352 -0.03522,0.0352 -0.352237,0 -0.38746,0.0704 -0.28179,0.24656 -0.28179,1.3385 0,0.42268 0.03522,0.98626 z m -2.958789,-2.25432 q 0.211342,0 0.422684,-0.17611 0.03522,-0.10567 0.03522,-0.17612 -0.986263,-0.0352 -2.8178941,0.0705 -0.3170131,0.0352 -0.3522368,0.14089 0,0.10567 0.1761184,0.14089 0,0 2.5361045,0 z m 3.06446,4.22685 q -0.140895,0 -0.140895,1.16238 0,1.12715 0.140895,1.12715 0.140895,0 0.140895,-1.12715 0,-1.16238 -0.140895,-1.16238 z"
         style="font-style:normal;font-variant:normal;font-weight:normal;font-stretch:normal;font-size:35.22367477px;font-family:Dymo;-inkscape-font-specification:Dymo;fill:#ffffff;stroke-width:0.36691332px"
         id="path316" />
      <path
         d="m 25.614114,262.11225 v 23.4942 h -5.424446 v -23.4942 z m -3.522368,16.87214 q 0.176119,0.31702 0.739697,0.31702 0.317013,0 0.563579,-0.17612 0.28179,-0.17612 0.211342,-0.24657 -0.07045,-0.0704 -0.211342,0.0704 -0.246566,0.1409 -0.563579,0.1409 -0.422684,0 -0.704473,-0.28179 -0.281789,-0.31702 -0.281789,-0.66925 0,-0.38746 0.176118,-0.66925 0.140895,-0.17612 0.105671,-0.21135 -0.105671,-0.10567 -0.317013,0.21135 -0.211342,0.31701 -0.211342,0.77492 0,0.81014 0.493131,0.73969 z m 0.845368,-0.14089 q 0.774921,0 0.774921,-1.05671 0,-0.77492 -0.810144,-0.77492 -0.246566,0 -0.528355,0.31701 -0.28179,0.31701 -0.28179,0.70448 0,0.81014 0.845368,0.81014 z m 0.880592,-0.21134 q 0.105671,0.0704 0.211342,-0.21134 0.140895,-0.28179 0.140895,-0.56358 0,-0.52836 -0.317013,-0.8806 -0.281789,-0.24656 -0.528355,-0.24656 -0.07045,0 -0.105671,0.0352 0,0 0.352237,0.28179 0.38746,0.24657 0.38746,0.84537 0,0.31701 -0.105671,0.52836 -0.105671,0.17611 -0.03522,0.21134 z"
         style="font-style:normal;font-variant:normal;font-weight:normal;font-stretch:normal;font-size:35.22367477px;font-family:Dymo;-inkscape-font-specification:Dymo;fill:#ffffff;stroke-width:0.36691332px"
         id="path318" />
      <path
         d="m 25.120957,262.11225 h 13.878128 v 23.4942 H 25.120957 Z m 8.946814,5.42445 h -4.332512 q -1.796408,0 -1.796408,0.31701 0,0.28179 0.07045,0.38746 0.07045,0.0704 0.07045,0.21135 0,1.30327 0.07045,2.99401 0.07045,1.65551 0.07045,1.83163 0,3.55759 -0.352237,5.77668 -0.105671,0.7397 0.845368,0.7397 0.317013,0 0.317013,-0.35224 l -0.03522,-3.62804 q 0,-1.51461 0.598802,-1.51461 0.105671,0 0.317013,0.0352 0.211342,0.0352 0.352237,0.0352 3.909828,0 4.684749,-0.10567 1.655512,-0.21134 1.655512,-3.69848 0,-1.26806 -0.598802,-2.0782 -0.66925,-0.95104 -1.937302,-0.95104 z m -3.980275,0.88059 4.085946,0.0352 q 1.585065,0 1.585065,2.00775 0,1.58506 -0.105671,1.9373 -0.246565,0.91581 -1.303276,1.05671 -1.162381,0.14089 -4.860867,0.0704 -0.38746,0.35224 -0.634026,0.0352 l 0.03522,-2.50088 q 0.03522,-2.25432 0.105671,-2.43044 0.105671,-0.21134 1.091934,-0.21134 z m 4.543854,6.86862 q 2.712223,-0.28179 2.712223,-4.43818 0,-1.4794 -0.387461,-2.00775 -0.03522,-0.0705 -0.176118,-0.10567 -0.105671,-0.0352 -0.105671,0.0704 0,0.0704 0.07045,0.17612 0.28179,0.42268 0.28179,1.40895 0,1.72596 -0.176119,2.39521 -0.317013,1.16238 -1.44417,1.76118 -0.845369,0.45791 -5.600565,0.24657 -0.140894,0 -0.211342,0.10567 -0.03522,0.10567 0,0.21134 0.07045,0.14089 0.211342,0.14089 2.571328,0.28179 4.825644,0.0352 z m -7.18563,-7.15041 q -0.211342,0 -0.211342,1.9373 0,1.65552 -0.105671,6.97429 -0.03522,1.40895 0.246566,1.40895 0.105671,0 0.140894,-0.56358 0.03522,-0.45791 0.03522,-2.43043 -0.03522,-3.55759 -0.03522,-5.56534 0,-1.76119 -0.07045,-1.76119 z m 7.361748,4.50863 q 0.422684,-0.73969 0.422684,-1.76118 0,-1.19761 -0.457908,-1.54984 -0.704473,-0.56358 -4.50863,-0.35224 -0.528355,0.0352 -0.528355,0.10567 0,0.28179 0.774921,0.38746 1.549841,-0.0352 4.12117,0.0704 0.281789,0.38746 0.246565,1.40895 0,1.05671 -0.281789,1.62029 -0.07045,0.14089 0.03522,0.17611 0.105671,0.0352 0.176118,-0.10567 z m -3.311025,0.10567 q -1.690737,0 -1.690737,0.17612 0,0.10567 1.690737,0.10567 1.690736,0 1.690736,-0.10567 0,-0.17612 -1.690736,-0.17612 z m -2.148645,-3.20535 -0.03522,1.97253 q 0.07045,0.0704 0.140894,0.14089 0.140895,0 0.140895,-0.24657 0.246566,-1.86685 -0.246566,-1.86685 z m 0.246566,5.91758 q -0.317013,0 -0.246566,2.46565 0.03522,0.24657 0.176119,0.24657 0.105671,-0.0352 0.140895,-0.24657 0.03522,-0.95104 0.07045,-1.86685 0,-0.5988 -0.140895,-0.5988 z"
         style="font-style:normal;font-variant:normal;font-weight:normal;font-stretch:normal;font-size:35.22367477px;font-family:Dymo;-inkscape-font-specification:Dymo;fill:#ffffff;stroke-width:0.36691332px"
         id="path320" />
      <path
         d="m 38.505925,262.11225 h 12.821418 v 23.4942 H 38.505925 Z m 4.755196,5.81191 q 0,-0.7397 -0.986263,-0.7397 -0.739697,0 -0.38746,1.05671 0.140895,0.42269 0.105671,0.70448 -0.03522,0.63402 -0.03522,0.88059 l 0.140895,5.9528 q 0,0.98626 -0.03522,1.9373 0.03522,0.77492 0.563579,0.7397 0.211342,0 1.127158,0.0352 1.268052,0.0352 2.923565,0.0352 1.690736,0 2.11342,0.14089 0.422684,0.10567 0.317013,0.10567 0.422684,0 0.422684,-0.77492 0,-0.52835 -0.493131,-0.52835 -1.514618,-0.0352 -2.641776,-0.0352 -1.831631,0 -2.606552,0.1409 -0.77492,0.10567 -0.915815,0.10567 -0.422684,0 -0.07045,-0.84537 0.03522,0.0352 0.07045,0.0352 0.38746,0 0.38746,-8.94681 z m -1.796407,-0.5988 q -0.176118,0 -0.176118,5.31877 0,5.28355 0.176118,5.28355 0.140895,0 0.140895,-5.28355 0,-1.26805 0.03522,-3.48714 0,-1.19761 -0.03522,-1.51462 -0.03522,-0.31701 -0.140895,-0.31701 z m 2.289539,6.26981 q 0,-0.14089 -0.140895,-0.14089 -0.176118,0.0352 -0.176118,0.17612 v 2.43043 q 0,0.17612 0.211342,0.17612 0.211342,-0.0352 0.176118,-0.21134 -0.07045,-0.49314 -0.07045,-2.43044 z m 0.211342,3.06446 q 0,0.24657 1.408947,0.24657 3.029236,0 3.45192,0.14089 0.66925,0.24657 0.66925,0 0,-0.31701 -0.704474,-0.35223 -4.825643,-0.17612 -4.825643,-0.0352 z m -1.585066,2.46566 q 0,0.24656 0.493132,0.21134 1.373723,-0.10567 1.3385,-0.10567 0.598802,0 1.514618,0.10567 0.915815,0.10567 1.197605,0.10567 2.324762,0 2.324762,-0.21134 0,-0.14089 -0.915815,-0.14089 -4.649526,-0.1409 -4.649526,-0.1409 -1.303276,-0.0352 -1.303276,0.17612 z"
         style="font-style:normal;font-variant:normal;font-weight:normal;font-stretch:normal;font-size:35.22367477px;font-family:Dymo;-inkscape-font-specification:Dymo;fill:#ffffff;stroke-width:0.36691332px"
         id="path322" />
      <path
         d="m 50.834161,262.11225 h 14.582601 v 23.4942 H 50.834161 Z m 8.91159,6.30504 q -0.246566,-0.7397 -1.373724,-0.7397 -1.091934,0 -1.373723,0.7397 -1.127158,3.20536 -3.804157,9.86263 -0.07045,0.21134 -0.07045,0.38746 0,0.66925 0.528355,0.66925 0.457908,0 0.598802,-0.49313 l 0.528355,-1.83163 q 0.105671,-0.42269 1.091934,-0.42269 h 4.684749 q 0.774921,0 0.915816,0.45791 l 0.493131,1.62029 q 0.211342,0.66925 0.634026,0.66925 0.774921,0 0.422684,-1.05671 z m -1.373724,0 q 0.422684,0 0.634026,0.45791 0.246566,0.45791 0.176119,0.52835 -0.03522,0.0704 -0.105671,0.0704 -0.03522,0 -0.211342,-0.24656 -0.140895,-0.24657 -0.246566,-0.24657 -0.281789,0 -0.07045,0.56358 0.07045,0.17612 0.317013,0.31701 0.281789,0.10567 0.352236,0.28179 l 1.3385,3.76894 q 0.03522,0.28178 0.07045,0.84536 0.03522,0.24657 0.211343,0.24657 0.07045,0 0.07045,-0.21134 0,-0.21134 0.07045,-0.21134 l 0.140895,1.05671 q -4.860867,0.0704 -5.882354,0 0.880592,-2.14865 1.620289,-4.43819 0.457908,-1.44417 0.563579,-1.44417 0.105671,0 0.07045,0.17612 -0.03522,0.17612 0.140895,0.17612 0.140895,0 0.28179,-0.38746 0.140894,-0.38746 0,-0.38746 -0.105671,0 -0.140895,0.14089 0,0.10567 -0.140895,0.10567 -0.07045,0 -0.07045,-0.14089 0,-0.31701 0.211342,-0.66925 0.246566,-0.35224 0.598802,-0.35224 z m -2.39521,0.88059 q -1.690736,4.26207 -3.381472,8.70025 0,0.35224 0.140894,0.42269 0.176119,0.0704 0.176119,-0.1409 0.03522,-0.24656 0.140894,-0.70447 2.289539,-5.60057 3.240578,-8.1719 0.140895,-0.38746 -0.07045,-0.38746 -0.140895,0 -0.246566,0.28179 z m 5.318775,1.19761 q -0.07045,-0.24657 -0.246565,-0.17612 -0.176119,0.0352 -0.105671,0.28179 0.140894,0.49313 2.254315,6.86862 0,0 0.211342,0.84536 0.105671,0.35224 0.246566,0.35224 0.317013,0 0.07045,-0.91581 -1.021487,-3.02924 -2.430434,-7.25608 z m -5.811906,6.5516 q -0.176118,0 -0.493131,0.70448 -0.28179,0.66925 -0.28179,1.02148 0,0.10567 0.03522,0.1409 0.176118,0.0704 0.493131,-0.63403 0.28179,-0.5988 0.598803,-0.70447 0.211342,-0.0704 1.655512,-0.0704 2.113421,0 2.994013,0.0704 0.281789,0.0352 0.317013,0.63402 0.07045,0.59881 0.38746,0.59881 0.28179,0 0.176119,-0.70448 -0.105671,-0.63402 -0.317013,-0.84537 -0.176119,-0.21134 -0.845369,-0.21134 z m 3.240578,-6.37548 1.021487,3.48714 q 0,0.0352 0.07045,0.49313 0.03522,0.24657 0.176118,0.24657 0.140895,0 0.07045,-0.28179 -0.105671,-0.24657 -0.03522,-0.24657 0.352237,0 0.176118,-0.35223 -0.211342,-0.28179 -0.634026,-1.54985 -0.422684,-1.26805 -0.493131,-1.7964 -0.03522,-0.28179 -0.211342,-0.28179 -0.211342,0 -0.140895,0.28179 z m -0.774921,0.21134 q 0.140895,-0.35224 -0.140894,-0.35224 -0.105672,0 -0.176119,0.21134 -1.197605,3.02924 -1.197605,3.48715 0,0.10567 0.07045,0.14089 0.140894,0.0352 0.704473,-1.47939 0.38746,-0.98626 0.739697,-2.00775 z m 1.091934,3.98027 q -1.3385,0.0352 -1.3385,0.28179 0,0.10567 1.796408,0.10567 0.176118,0 0.176118,-0.14089 0,-0.28179 -0.634026,-0.24657 z m -2.254315,-6.90384 q -0.140895,0 -0.246566,0.21135 -0.105671,0.24656 0.03522,0.24656 0.140895,0 0.246566,-0.24656 0.105671,-0.21135 -0.03522,-0.21135 z m 3.381473,0.66925 0.422684,1.16239 q 0.07045,0.17611 0.281789,0.14089 0.176119,-0.0352 0.105671,-0.24657 l -0.38746,-1.05671 q -0.07045,-0.21134 -0.28179,-0.21134 -0.211342,0.0352 -0.140894,0.21134 z"
         style="font-style:normal;font-variant:normal;font-weight:normal;font-stretch:normal;font-size:35.22367477px;font-family:Dymo;-inkscape-font-specification:Dymo;fill:#ffffff;stroke-width:0.36691332px"
         id="path324" />
      <path
         d="m 64.923616,262.11225 h 13.702009 v 23.4942 H 64.923616 Z m 2.923565,6.72773 3.240578,6.5516 h 0.704473 q 0.105671,0 0.105671,0.14089 0,0.1409 -0.140895,0.1409 l -0.598802,0.0705 0.03522,2.43043 q 0,0.28179 -0.140895,0.31701 -0.105671,0.0352 -0.105671,0.21135 0,0.88059 0.598802,0.88059 0.634027,0 0.634027,-1.51462 0,-0.35224 -0.03522,-1.12716 -0.03522,-0.66925 -0.03522,-0.95104 0,-0.38746 1.690737,-3.48714 1.866854,-3.48715 1.972525,-3.73371 0.03522,-0.10567 0.28179,-0.35224 0.246566,-0.24656 0.246566,-0.56358 -0.03522,-0.4579 -0.704474,-0.4579 -0.563579,0 -0.634026,0.4579 -0.176119,0.81015 -0.246566,0.95104 -0.66925,1.3385 -1.3385,2.64178 -0.986262,1.86685 -1.408946,1.97252 -0.105672,0.0352 -0.140895,0.21135 -0.03522,0.17611 0.07045,0.17611 0.176119,0 0.387461,0 0.07045,0.0352 0,0.24657 -0.03522,0.14089 -0.176119,0.10567 -0.140894,-0.0704 -0.211342,0 -0.03522,0.0352 0.03522,0.45791 0.07045,0.35224 -0.176119,0.35224 -0.07045,0 -0.03522,-0.24657 0.03522,-0.24657 -0.03522,-0.35224 l -3.099683,-6.19936 q -0.140895,-0.31702 -0.317013,-0.63403 -0.105671,-0.17612 -0.457908,-0.17612 -0.28179,0 -0.563579,0.28179 -0.281789,0.24657 -0.246566,0.49313 0,0.17612 0.387461,0.35224 0.38746,0.17612 0.457908,0.35224 z m -0.774921,0.10567 q -0.211342,0.0352 -0.03522,0.38746 l 3.311025,6.72772 v 3.02924 q 0,0.14089 0.140895,0.14089 0.140895,0 0.140895,-0.14089 l -0.07045,-0.7397 q 0.211342,-0.52836 0.140894,-2.14865 0,-0.17611 -0.140894,-0.28179 -0.140895,-0.10567 -0.140895,-0.38746 0,-0.31701 -1.585066,-3.45192 -1.549841,-3.17013 -1.761183,-3.1349 z m 5.635788,10.17964 q 0.176118,0 0.176118,-1.40895 0.03522,-1.58506 0.105671,-1.72596 0.140895,-0.35223 2.042973,-3.90983 1.72596,-3.24057 1.72596,-3.73371 0,-0.10567 -0.07045,-0.10567 -0.140895,0 -0.211342,0.38746 -0.07045,0.38746 -0.387461,0.52836 -3.346249,6.05847 -3.381472,6.79817 -0.105671,3.17013 0,3.17013 z m -0.739697,-6.86862 q 0.140894,0.0704 1.268052,-1.86685 0.951039,-1.62029 0.951039,-1.76119 v 0 q 0,-0.0704 -0.03522,-0.0704 -0.105671,-0.0705 -1.162381,1.7964 -1.05671,1.83164 -1.05671,1.83164 0,0.0352 0.03522,0.0704 z m -2.958789,-4.22684 q -0.03522,0.0352 -0.03522,0.10567 0,-0.10567 0.598803,1.3385 0.739697,1.72596 0.915815,1.62029 0.07045,-0.0352 0.07045,-0.10567 0,-0.10567 -0.704474,-1.62029 -0.281789,-0.56358 -0.528355,-1.12716 -0.140895,-0.28179 -0.317013,-0.21134 z"
         style="font-style:normal;font-variant:normal;font-weight:normal;font-stretch:normal;font-size:35.22367477px;font-family:Dymo;-inkscape-font-specification:Dymo;fill:#ffffff;stroke-width:0.36691332px"
         id="path326" />
      <path
         d="m 78.132424,262.11225 h 14.230365 v 23.4942 H 78.132424 Z m 11.729484,5.74146 q 0,-0.49313 -0.845368,-0.56358 0.176118,0 -1.268052,0 -3.487144,0 -5.248328,0.0705 -1.232828,0.0352 -1.232828,0.49313 0,0.1409 0.176118,0.28179 0.211342,0.1409 0.211342,0.49313 l -0.07045,9.19338 q -0.634027,0.52836 -0.634027,0.63403 0.03522,0.0705 0.105671,0.0705 0.422685,0.0704 0.528356,0.35223 0.105671,0.28179 0.140894,0.28179 0.105671,0 0.140895,-0.21134 0.07045,-0.21134 0.140895,-0.35224 l 6.481156,0.0352 q 0.422684,0 0.66925,0.24656 0.246565,0.21135 0.317013,0.21135 0.528355,0 0.528355,-0.81015 0,-0.45791 -0.634026,-0.45791 -6.551604,0 -6.551604,0 -0.352237,0.0352 -0.528355,-0.10567 -0.140895,-0.17612 -0.07045,-0.35223 0.105671,-0.24657 0.140894,-1.44418 0.03522,-1.09193 0.211342,-1.40894 0.03522,-0.0352 0.03522,-0.10567 0,-0.0352 -0.211342,-0.17612 -0.176118,-0.1409 -0.176118,-0.38746 0,-0.49313 0.38746,-0.49313 0.176119,0 0.246566,0.14089 0.07045,0.1409 0.140895,0.1409 0.105671,0 0.246565,-0.0704 0.176119,-0.0704 0.317013,-0.0704 h 3.029236 q 1.585066,0 1.479395,0 0.528355,-0.0352 0.528355,-0.52835 0,-0.42269 -1.408947,-0.42269 -0.211342,0 -1.902079,0.10567 -1.690736,0.10567 -2.641775,0.10567 -0.387461,0 -0.387461,-0.42268 0,-0.0704 0.03522,-0.42268 0.07045,-0.35224 0.07045,-1.12716 0,-0.31701 -0.105671,-1.12716 -0.07045,-0.84537 -0.07045,-0.98626 0,-0.56358 0.352237,-0.56358 0.211342,0 0.38746,0.14089 0.176119,0.10567 0.28179,0.10567 0.176118,0 0.457907,-0.14089 h 5.177881 q 0.105671,0 0.493131,0.0352 0.281789,0.0352 0.38746,0 0.140895,-0.10567 0.140895,-0.38746 z m -1.021486,5.91758 q 0,-0.0704 -0.352237,0.0352 -0.493132,0.17612 -0.810145,0.17612 h -3.83938 q -0.246566,0 -0.28179,-0.0704 -0.03522,-0.10568 -0.140894,-0.10568 -0.07045,0 -0.140895,0.21135 -0.07045,0.17611 -0.211342,0.17611 -0.105671,0 -0.246566,-0.0704 -0.03522,0.45791 -0.07045,0.88059 0.07045,1.58506 0.07045,1.58506 0,0.17612 0.140895,0.21135 0.176118,0.0352 0.176118,-0.21135 l 0.03522,-2.07819 q 0.38746,-0.10567 1.3385,-0.10567 0.634026,0 1.690736,0.0352 1.091934,0.0352 1.197605,0.0352 1.444171,0 1.444171,-0.70447 z m -7.995775,-6.12892 q -0.176118,0 -0.176118,5.31878 0,5.31877 0.176118,5.31877 0.140895,0 0.140895,-0.77492 0,0.70447 0,-4.54385 0,-1.26806 0.03522,-3.48715 0,-1.1976 -0.03522,-1.51462 -0.03522,-0.31701 -0.140895,-0.31701 z m 0.986263,11.65904 q 0,0.21134 0.493132,0.17612 1.127157,-0.10568 1.303276,-0.10568 0.493131,0 1.620289,0.1409 1.162381,0.14089 2.042973,0.14089 2.289539,0 2.289539,-0.24656 0,-0.24657 -6.481156,-0.31701 -1.268053,0 -1.268053,0.21134 z m 1.690737,-10.00353 5.072209,0.0352 q 1.05671,0 1.549842,-0.49313 0.317013,-0.31702 -0.07045,-0.31702 0,0 -0.317013,0.21135 -0.281789,0.17611 -1.091934,0.21134 0.246566,-0.17612 0,-0.17612 l -5.213104,-0.0704 q -0.317013,0 -0.317013,0.35224 0,0.24656 0.387461,0.24656 z m 0.176118,7.74921 q -0.281789,0 -0.281789,0.1409 0,0.17612 0.317013,0.17612 0.66925,0 2.676999,-0.0704 2.007749,-0.0704 2.113421,-0.0704 0.422684,0 0.986262,0.1409 0.28179,0.0704 0.28179,-0.10568 0,-0.24656 -0.704474,-0.24656 z m -0.317013,-5.31877 q -0.211342,0 -0.211342,0.17612 0,0.24656 0.457908,0.28179 0.915815,0 1.796407,0 2.571328,0.0352 2.571328,-0.24657 -0.03522,-0.0352 -0.246565,-0.0352 l -3.73371,0.0704 q -0.317013,0 -0.457908,-0.10567 -0.140894,-0.14089 -0.176118,-0.14089 z m -0.246566,-1.86686 q 0,-0.28179 -0.105671,-0.28179 -0.211342,0 -0.211342,0.38746 0,1.09194 0.140895,1.4794 0.105671,0.0352 0.211342,-0.10567 z"
         style="font-style:normal;font-variant:normal;font-weight:normal;font-stretch:normal;font-size:35.22367477px;font-family:Dymo;-inkscape-font-specification:Dymo;fill:#ffffff;stroke-width:0.36691332px"
         id="path328" />
      <path
         d="m 91.869638,262.11225 h 14.582602 v 23.4942 H 91.869638 Z m 9.404722,5.42445 h -6.128921 q -0.739697,0 -0.739697,0.42268 -0.07045,0.42269 0.105671,0.42269 0.176119,0 0.176119,-0.28179 0,-0.1409 0.105671,-0.10567 0.07045,0.0352 0.07045,0.24656 v 9.68651 q 0,0.21135 -0.246566,0.28179 -0.211342,0.0704 -0.211342,0.24657 0,0.14089 0.176119,0.35224 0.211342,0.17611 0.422684,0.17611 0.211342,0 0.246565,-0.17611 0,-0.1409 -0.281789,-0.1409 -0.246566,0 -0.211342,-0.17612 0,-0.14089 0.211342,-0.14089 0.140895,0 0.140895,0.10567 0.03522,0.10567 0.281789,0.17612 0.422684,0.10567 1.585065,0.10567 3.55759,0 4.57908,-0.21134 2.78267,-0.59881 2.78267,-3.94505 v -4.0155 q 0,-1.3385 -0.81015,-2.18387 -0.81014,-0.84537 -2.25431,-0.84537 z m -5.706237,0.84537 q 0.105671,-0.17612 0.387461,-0.1409 0.598802,0.0704 0.598802,0.0704 h 4.755194 q 2.25432,0 2.25432,2.43043 v 4.05073 q 0,1.3385 -0.66925,2.21909 -0.66925,0.88059 -1.90208,0.88059 h -4.0155 q -0.211342,0 -0.422684,-0.10567 -0.105671,-0.10567 -0.211342,0 l -0.211342,0.17612 q -0.07045,0.0704 -0.176118,0.0704 -0.03522,0 -0.528355,-0.56358 0.03522,-0.1409 0.176118,-0.21135 V 269.474 q 0,0 -0.105671,-0.49313 -0.07045,-0.31701 0.07045,-0.5988 z m 1.162382,0.77492 q -0.105671,0 2.078197,-0.0704 1.796408,-0.0352 2.183868,0 1.72596,0.21134 1.72596,3.69849 0,2.43043 -0.56358,3.34625 -0.52835,0.91581 -1.72596,0.91581 -0.28179,0 -0.28179,0.1409 0,0.14089 0.21134,0.14089 1.90208,0 2.43044,-1.69073 0.28179,-0.81015 0.28179,-3.13491 0,-3.83938 -2.43044,-3.76893 l -4.121167,0.10567 q 0,0.0704 -0.03522,0.17611 -0.03522,0.10568 0,0.10568 0.03522,0.0352 0.246566,0.0352 z m 7.749205,0.10567 q 0.10567,0.38746 0.21135,0.77492 0.10567,0.81015 0.10567,3.38147 0,2.85312 -0.8806,4.26207 -0.5988,0.91581 -1.65551,1.26805 -0.88059,0.28179 -0.88059,0.38746 0,0.10567 0.38746,0.10567 1.12716,0 2.04297,-1.09193 1.3385,-1.58507 1.3385,-4.93132 0,-3.20535 -0.4579,-4.15639 -0.0704,-0.17612 -0.17612,-0.17612 -0.10567,0 -0.0352,0.17612 z m -10.426205,-1.09193 q -0.140894,0 -0.176118,0.14089 0,0.10567 0.03522,0.31701 0.03522,0.17612 0.03522,0.21135 0,0.17611 -0.105671,1.1976 -0.105671,0.98626 -0.105671,1.54984 0,0.45791 0.07045,2.71223 0.07045,2.25431 0.07045,2.99401 0,0.10567 0.140895,0.0704 0.105671,-0.0352 0.105671,-0.10568 v -7.99577 q 0,-0.38746 0.07045,-0.42268 0.07045,-0.0705 0.07045,-0.28179 0,-0.38746 -0.211342,-0.38746 z m 4.297289,11.09545 q -2.677,0 -2.677,0.24657 0,0.0704 2.677,0.0704 1.655516,0 1.655516,-0.17612 0,-0.1409 -1.655516,-0.1409 z m -2.148644,-7.25607 q -0.211342,0 -0.211342,1.90208 0,2.57132 0.211342,2.57132 0.140894,0 0.140894,-2.57132 0,-1.90208 -0.140894,-1.90208 z m 0.422684,5.07221 q -0.140895,0 -0.140895,0.10567 0.03522,0.14089 0.140895,0.14089 l 2.923565,0.10567 q 0.07045,-0.0704 0.140894,-0.17612 -0.03522,-0.17611 -0.281789,-0.17611 z m 0.739697,-10.17965 q -0.105671,0 -0.105671,0.1409 0,0.14089 0.105671,0.14089 h 1.303276 q 0.140895,0 0.140895,-0.14089 0,-0.1409 -0.105672,-0.1409 z m -1.091934,2.677 q -0.211342,0 -0.211342,0.81015 0,0.63402 0.211342,0.63402 0.105671,0 0.105671,-0.63402 0,-0.81015 -0.105671,-0.81015 z m -1.127158,-2.677 q -0.105671,0 -0.105671,0.1409 0,0.14089 0.105671,0.14089 h 0.739698 q 0.140894,0 0.140894,-0.14089 0,-0.1409 -0.105671,-0.1409 z"
         style="font-style:normal;font-variant:normal;font-weight:normal;font-stretch:normal;font-size:35.22367477px;font-family:Dymo;-inkscape-font-specification:Dymo;fill:#ffffff;stroke-width:0.36691332px"
         id="path330" />
    </g>
  </g>
</svg>
