<?xml version="1.0" encoding="UTF-8" standalone="no"?>
<!-- Created with Inkscape (http://www.inkscape.org/) -->

<svg
   xmlns:dc="http://purl.org/dc/elements/1.1/"
   xmlns:cc="http://creativecommons.org/ns#"
   xmlns:rdf="http://www.w3.org/1999/02/22-rdf-syntax-ns#"
   xmlns:svg="http://www.w3.org/2000/svg"
   xmlns="http://www.w3.org/2000/svg"
   xmlns:sodipodi="http://sodipodi.sourceforge.net/DTD/sodipodi-0.dtd"
   xmlns:inkscape="http://www.inkscape.org/namespaces/inkscape"
   width="342.02521"
   height="159.37904"
   viewBox="0 0 90.494165 42.16904"
   version="1.1"
   id="svg8"
   sodipodi:docname="batman.svg"
   inkscape:version="0.92.5 (2060ec1f9f, 2020-04-08)">
  <defs
     id="defs2" />
  <sodipodi:namedview
     id="base"
     pagecolor="#ffffff"
     bordercolor="#666666"
     borderopacity="1.0"
     inkscape:pageopacity="0.0"
     inkscape:pageshadow="2"
     inkscape:zoom="2.8334484"
     inkscape:cx="55.55959"
     inkscape:cy="86.531492"
     inkscape:document-units="mm"
     inkscape:current-layer="layer1"
     showgrid="false"
     units="px"
     inkscape:pagecheckerboard="true"
     inkscape:window-width="1366"
     inkscape:window-height="740"
     inkscape:window-x="0"
     inkscape:window-y="0"
     inkscape:window-maximized="1" />
  <metadata
     id="metadata5">
    <rdf:RDF>
      <cc:Work
         rdf:about="">
        <dc:format>image/svg+xml</dc:format>
        <dc:type
           rdf:resource="http://purl.org/dc/dcmitype/StillImage" />
        <dc:title />
      </cc:Work>
    </rdf:RDF>
  </metadata>
  <g
     inkscape:label="Layer 1"
     inkscape:groupmode="layer"
     id="layer1"
     transform="translate(-17.459454,-248.56165)">
    <path
       inkscape:connector-curvature="0"
       id="path2516"
       d="m 59.362513,290.68756 c -2.226127,-0.0885 -3.280474,-0.15472 -5.250308,-0.32955 -9.931423,-0.88139 -19.112069,-3.38072 -25.798386,-7.02333 -5.27624,-2.87442 -8.816468,-6.36906 -10.184465,-10.05331 -0.441561,-1.18922 -0.635723,-2.18757 -0.665533,-3.42208 -0.01802,-0.74641 0.01751,-1.21852 0.148231,-1.96887 0.30554,-1.75396 1.158937,-3.60056 2.433639,-5.26593 2.482186,-3.24296 6.610586,-6.14631 12.064659,-8.48464 5.33192,-2.28596 11.656189,-3.92423 18.642282,-4.82917 5.488493,-0.71095 11.414296,-0.92093 17.157254,-0.60795 9.77957,0.53298 18.684524,2.47886 25.923394,5.66471 6.62955,2.91769 11.31217,6.81079 13.1643,10.94471 0.63114,1.4087 0.92054,2.65847 0.95281,4.11474 0.0281,1.2663 -0.12541,2.27827 -0.52694,3.47474 -0.96503,2.87557 -3.12731,5.5436 -6.51487,8.03876 -2.291849,1.68807 -5.18319,3.25278 -8.528511,4.61536 -0.498473,0.20302 -0.622991,0.25177 -1.421957,0.55663 -1.151671,0.43944 -3.116136,1.08376 -4.563981,1.49694 -0.368886,0.10523 -0.769145,0.22037 -0.889465,0.25581 -0.411092,0.1211 -2.405146,0.61456 -3.187685,0.78894 -6.377525,1.4212 -12.725086,2.08853 -19.751157,2.07646 -1.220384,-0.002 -2.661875,-0.0214 -3.203313,-0.0429 z m 6.859777,-1.32443 c 5.208815,-0.25192 9.411694,-0.785 13.73518,-1.74215 4.615557,-1.02182 8.804402,-2.43839 12.360097,-4.17994 5.128534,-2.51192 8.732523,-5.55629 10.536673,-8.90055 0.82158,-1.52294 1.2384,-3.01899 1.28248,-4.60308 0.0537,-1.9296 -0.40901,-3.66112 -1.47325,-5.51323 -0.9494,-1.65227 -2.46407,-3.34041 -4.361189,-4.86067 -5.958703,-4.77496 -16.032254,-8.20023 -27.34534,-9.2981 -5.026015,-0.48774 -10.068551,-0.52908 -15.079007,-0.12363 -4.233367,0.34259 -8.33724,0.99821 -12.110085,1.93464 -0.787878,0.19556 -0.890829,0.22285 -1.95324,0.51791 -3.451758,0.95865 -7.033549,2.34936 -9.750571,3.7859 -4.077655,2.15593 -7.06132,4.62653 -8.880776,7.35366 -0.816775,1.22425 -1.391246,2.53523 -1.678688,3.83092 -0.181126,0.81645 -0.218392,1.1733 -0.218392,2.0913 0,0.91513 0.03738,1.27532 0.215848,2.07992 0.814488,3.67199 3.82836,7.18746 8.671273,10.11444 5.226014,3.15852 12.023486,5.41009 20.126179,6.66655 0.419278,0.065 0.537135,0.0814 1.668785,0.23243 2.14186,0.28582 4.952181,0.51986 7.331742,0.61059 0.489872,0.0187 1.010215,0.0385 1.156318,0.0441 0.588484,0.0223 5.124162,-0.0101 5.765963,-0.041 z m -3.529576,-5.1931 c -0.0086,-0.0243 -0.05883,-0.20601 -0.11141,-0.40368 -0.475451,-1.78696 -1.379528,-3.6964 -2.448916,-5.17218 -1.886545,-2.60347 -4.322741,-4.26074 -6.687601,-4.54935 -0.426653,-0.052 -1.229281,-0.0206 -1.61396,0.0632 -1.217581,0.26538 -2.230421,0.91462 -3.073852,1.97037 -0.25067,0.31377 -0.640676,0.91195 -0.816367,1.25213 -0.07853,0.15201 -0.1547,0.28383 -0.169257,0.29283 -0.01456,0.008 -0.146612,-0.14154 -0.293456,-0.33459 -0.961143,-1.26336 -1.984572,-2.23815 -3.028458,-2.88451 -0.414874,-0.25689 -1.170495,-0.6161 -1.57226,-0.74745 -2.130121,-0.69627 -4.240821,-0.17572 -5.782775,1.42621 -0.935953,0.97236 -1.529358,2.21364 -1.785674,3.73531 -0.04561,0.27076 -0.05697,0.51011 -0.05687,1.1978 1.57e-4,0.96075 0.03404,1.27184 0.222363,2.04095 0.12299,0.50231 0.11721,0.4592 0.06157,0.4592 -0.122658,0 -1.998019,-0.92259 -2.932256,-1.44253 -4.52095,-2.51612 -7.469192,-5.55526 -8.502658,-8.76477 -0.273909,-0.85064 -0.392673,-1.53626 -0.418928,-2.41844 -0.05805,-1.95025 0.542786,-3.82105 1.824408,-5.68065 1.155839,-1.67709 2.8931,-3.29739 5.11165,-4.76749 1.102543,-0.73059 1.977726,-1.23332 3.352391,-1.92566 2.664048,-1.34177 5.609642,-2.43736 9.082348,-3.37813 0.739885,-0.20042 0.902611,-0.23762 0.902611,-0.20628 0,0.007 -0.151623,0.16451 -0.336941,0.35157 -0.799613,0.80715 -1.175186,1.69705 -1.17233,2.77776 0.0019,0.711 0.151841,1.28755 0.518281,1.99263 1.047228,2.01496 3.543149,3.46197 6.77258,3.92641 0.871776,0.12533 1.201027,0.14391 2.515772,0.14154 1.522036,-0.003 2.244935,-0.0623 3.797098,-0.31298 0.460399,-0.0743 0.474653,-0.0814 0.575474,-0.28662 1.008925,-2.05309 1.80074,-4.57749 2.37457,-7.57043 0.07744,-0.40392 0.163678,-0.84692 0.191633,-0.98443 0.02795,-0.13749 0.05813,-0.3133 0.06707,-0.39065 0.0089,-0.0773 0.0279,-0.15285 0.04212,-0.16789 0.01424,-0.0152 0.114263,0.11148 0.222292,0.28128 0.108032,0.16973 0.391785,0.60041 0.630565,0.95707 0.4911,0.73356 0.412474,0.67882 0.865313,0.60242 0.146103,-0.0247 0.596128,-0.062 1.000058,-0.0829 0.830287,-0.0431 1.803484,-0.008 2.445028,0.0873 0.360725,0.0539 0.367569,0.0537 0.414595,-0.007 0.0263,-0.0336 0.265138,-0.38655 0.530751,-0.78414 0.265612,-0.3976 0.501794,-0.73014 0.52485,-0.73898 0.02306,-0.008 0.05871,-0.0721 0.07923,-0.1407 0.03466,-0.1157 0.114991,-0.22067 0.145495,-0.19017 0.0073,0.007 0.05696,0.27295 0.110413,0.59043 0.363663,2.15936 0.887486,4.26953 1.473764,5.93691 0.382316,1.08731 1.061817,2.66827 1.19397,2.77794 0.08229,0.0682 1.347564,0.25795 2.457444,0.36835 0.694704,0.0691 2.858058,0.0792 3.48458,0.0169 2.862285,-0.28766 5.082647,-1.183 6.563165,-2.64651 1.010815,-0.99921 1.552695,-2.17485 1.555869,-3.37551 0.0029,-1.08071 -0.372719,-1.97061 -1.172332,-2.77776 -0.185316,-0.18706 -0.336941,-0.34527 -0.336941,-0.35157 0,-0.0253 0.106377,-0.008 0.320991,0.0515 0.124247,0.0346 0.443898,0.12009 0.710319,0.18999 1.335332,0.35009 3.34579,0.9919 4.719028,1.5065 1.08575,0.40686 1.541133,0.59242 2.609527,1.06333 1.725514,0.76053 3.525285,1.73609 4.969041,2.69345 2.284175,1.51463 4.028922,3.15323 5.190831,4.87502 1.01944,1.51068 1.57892,3.00218 1.73499,4.62524 0.0438,0.45586 0.0187,1.43087 -0.0485,1.8846 -0.6122,4.13062 -4.160189,7.93545 -10.232676,10.97344 -1.169065,0.58485 -1.598044,0.77361 -1.598044,0.7031 0,-0.0101 0.0363,-0.16096 0.08067,-0.33595 0.211217,-0.83314 0.276667,-1.44355 0.254853,-2.37679 -0.01745,-0.74649 -0.06978,-1.13668 -0.239677,-1.78707 -0.681696,-2.60964 -2.76318,-4.46978 -5.18799,-4.63629 -1.022754,-0.0703 -2.055986,0.15286 -3.095828,0.66824 -1.342039,0.66524 -2.533327,1.71142 -3.71004,3.25814 -0.146846,0.19301 -0.2789,0.34357 -0.293458,0.33459 -0.01453,-0.008 -0.09248,-0.14425 -0.173147,-0.30037 -0.209091,-0.40483 -0.645817,-1.04975 -0.96867,-1.43043 -0.788692,-0.92996 -1.780822,-1.53677 -2.917658,-1.78453 -0.380787,-0.0829 -1.179585,-0.11486 -1.611156,-0.0642 -1.981507,0.23253 -4.005535,1.4279 -5.773238,3.40961 -1.527771,1.71272 -2.744102,3.9895 -3.355845,6.28162 -0.11369,0.42596 -0.151271,0.5166 -0.180394,0.43493 z"
       style="fill:#ffffff;stroke-width:0.03125184" />
  </g>
</svg>
