<?xml version="1.0" encoding="UTF-8" standalone="no"?>
<svg
   version="1.1"
   viewBox="0 0 500 200"
   id="svg54"
   sodipodi:docname="bbc-mono.svg"
   width="500"
   height="200"
   inkscape:version="1.2.2 (b0a8486541, 2022-12-01)"
   xmlns:inkscape="http://www.inkscape.org/namespaces/inkscape"
   xmlns:sodipodi="http://sodipodi.sourceforge.net/DTD/sodipodi-0.dtd"
   xmlns="http://www.w3.org/2000/svg"
   xmlns:svg="http://www.w3.org/2000/svg">
  <defs
     id="defs58" />
  <sodipodi:namedview
     id="namedview56"
     pagecolor="#505050"
     bordercolor="#ffffff"
     borderopacity="1"
     inkscape:showpageshadow="0"
     inkscape:pageopacity="0"
     inkscape:pagecheckerboard="1"
     inkscape:deskcolor="#505050"
     showgrid="false"
     inkscape:zoom="1.1191667"
     inkscape:cx="376.17275"
     inkscape:cy="180.9382"
     inkscape:window-width="1670"
     inkscape:window-height="910"
     inkscape:window-x="0"
     inkscape:window-y="0"
     inkscape:window-maximized="1"
     inkscape:current-layer="svg54" />
  <path
     fill="#000000"
     d="m 356.84804,52.098359 c 1.3485,-19.290495 8.54682,-36.016944 31.2054,-34.453192 18.03696,1.247203 23.88046,15.504569 25.57716,31.237055 a 0.36719683,0.36719683 0 0 1 -0.3672,0.405182 l -16.00472,-0.03799 a 0.66475289,0.65842191 86.6 0 1 -0.65209,-0.588781 c -0.68374,-6.096729 -3.9442,-13.326708 -10.89561,-13.712898 -13.38369,-0.740725 -13.62427,21.082163 -12.58599,29.356754 0.6141,4.887516 1.42447,9.236899 4.2101,12.801241 3.05153,3.899884 9.52179,4.836869 13.62427,1.854977 3.56434,-2.58304 5.53328,-7.673148 5.94479,-12.066848 a 0.56345721,0.56978819 2.8 0 1 0.56346,-0.512809 l 16.03637,0.03799 a 0.2848941,0.2848941 0 0 1 0.28489,0.316549 C 411.94023,85.582912 403.8429,99.46042 382.6911,97.896668 358.82964,96.142986 355.54386,70.743095 356.84804,52.098359 Z"
     id="path2"
     style="stroke-width:0.633098;fill:#ffffff" />
  <path
     fill="#000000"
     d="m 102.3743,44.862049 c -6.56522,6.609543 -15.04874,-6.799472 -5.38766,-9.654744 1.0636,-0.310218 2.19685,-0.08863 3.03887,-1.22821 1.12058,-1.500442 -0.24058,-3.10218 -1.74735,-3.342758 -2.75398,-0.436837 -4.6786,-1.29785 -5.375,-4.20377 -2.02592,-8.426534 10.69302,-9.996617 11.48439,-1.690372 q 0.25324,2.640019 2.59571,2.038576 1.17756,-0.303887 1.35483,-1.506773 0.74072,-5.109101 4.76089,-5.93846 c 7.28063,-1.494111 9.73072,8.781069 3.11484,11.028567 -1.8613,0.633098 -3.58966,0.113958 -4.06448,2.671674 -0.64576,3.48837 -1.93728,5.178741 -5.83717,5.666227 q -1.82965,0.227915 -1.91195,2.07023 -0.095,2.146202 -2.02592,4.089813 z"
     id="path4"
     style="stroke-width:0.633098;fill:#ffffff" />
  <circle
     fill="#000000"
     cx="130.1673"
     cy="24.919462"
     r="5.8118396"
     id="circle6"
     style="stroke-width:0.633098;fill:#ffffff" />
  <path
     fill="#000000"
     d="m 169.95118,26.958038 q 1.85498,0.139282 1.90563,-1.715695 c 0.14561,-5.723206 6.81846,-8.401211 10.50309,-3.703624 2.62103,3.349089 0.40519,8.711429 -3.69729,9.072295 -5.0268,0.443168 -1.38015,7.002063 -8.58481,8.034013 -2.47541,0.348204 -2.08922,1.867639 -2.65268,3.646644 -1.85498,5.849826 -10.0346,5.533277 -11.24382,-0.544464 -0.46216,-2.317138 -0.65209,-2.899589 -3.00088,-3.222469 -6.49559,-0.892668 -3.20348,-7.533866 -7.91373,-7.913724 -7.19199,-0.57612 -6.21069,-11.857926 0.91166,-11.395764 q 4.91284,0.316549 5.8245,6.090402 0.17094,1.107922 1.23455,1.48145 c 1.8613,0.658422 2.62735,-0.96864 2.89958,-2.614695 1.05728,-6.508247 9.77504,-6.691846 11.46541,-0.329211 0.41151,1.544759 0.15194,2.950237 2.34879,3.114842 z m -6.04608,5.88148 a 2.0195826,2.0195826 0 0 0 -2.01959,-2.019582 2.0195826,2.0195826 0 0 0 -2.01958,2.019582 2.0195826,2.0195826 0 0 0 2.01958,2.019583 2.0195826,2.0195826 0 0 0 2.01959,-2.019583 z"
     id="path8"
     style="stroke-width:0.633098;fill:#ffffff" />
  <circle
     fill="#000000"
     cx="193.59105"
     cy="24.925793"
     r="5.8118396"
     id="circle10"
     style="stroke-width:0.633098;fill:#ffffff" />
  <path
     fill="#000000"
     d="m 227.04396,46.261196 c -3.67197,1.114252 -7.5402,-1.665048 -7.68581,-5.463636 q -0.0696,-1.835984 -1.89296,-2.07023 -4.84953,-0.614105 -5.71055,-4.722911 c -0.89267,-4.248088 -1.68404,-2.399442 -4.55197,-3.760602 -6.00177,-2.848941 -3.72262,-11.674327 2.678,-11.015905 q 4.50766,0.462161 5.60925,6.001769 0.23425,1.158569 1.31051,1.652385 c 1.63973,0.759718 2.41844,-1.044611 2.66535,-2.469082 0.78504,-4.488665 5.34967,-6.818465 9.16092,-4.216432 3.82392,2.608363 3.01988,7.964372 -0.84202,9.977624 -1.46245,0.753387 -3.09585,0.113958 -4.32406,1.911956 a 0.89899915,0.85468229 60.4 0 0 -0.14561,0.58245 c 0.24691,2.374117 1.77901,2.051238 3.50103,2.538723 5.49529,1.557421 5.8245,9.357188 0.22792,11.053891 z"
     id="path12"
     style="stroke-width:0.633098;fill:#ffffff" />
  <path
     fill="#000000"
     d="m 284.55458,54.136935 c 7.62883,3.931538 7.84408,16.998681 6.95775,24.431251 -1.05095,8.857041 -4.93184,17.327892 -15.19435,17.416526 q -18.35985,0.151943 -36.48544,0.151943 a 0.55079525,0.55079525 0 0 1 -0.5508,-0.550795 V 19.86101 a 0.44316859,0.44949957 0 0 1 0.44317,-0.4495 q 18.01797,-0.06964 36.27652,-0.03799 5.9068,0.01266 9.21157,3.760602 c 5.60925,6.356304 5.68522,21.607635 0.80404,28.438762 q -0.77871,1.082598 -1.55742,2.165195 a 0.27223214,0.27223214 0 0 0 0.095,0.398852 z m -15.46025,-5.444643 c 6.66019,-0.221584 6.31198,-12.630305 -0.21526,-12.585988 q -6.8881,0.04432 -14.13707,0.04432 a 0.42417565,0.42417565 0 0 0 -0.42418,0.424176 v 11.674327 a 0.56345721,0.55712623 0.7 0 0 0.5508,0.557126 q 7.35659,0.113957 14.22571,-0.113958 z m 1.20921,30.774893 c 7.19833,-0.05698 7.78078,-15.498238 -0.31654,-15.605865 q -7.61617,-0.101296 -15.23234,0.09497 a 0.32921095,0.34187291 89.4 0 0 -0.32921,0.32288 l -0.1013,14.782838 a 0.46849251,0.45583055 0 0 0 0.46849,0.45583 q 7.99603,0 15.5109,-0.05065 z"
     id="path14"
     style="stroke-width:0.633098;fill:#ffffff" />
  <path
     fill="#000000"
     d="m 344.07845,54.117942 c 3.91255,1.728357 5.87515,6.805803 6.56523,10.72468 1.81066,10.300504 1.10792,28.552719 -12.26311,31.040794 q -1.38015,0.253239 -8.28725,0.253239 -15.21968,0 -30.76223,0 a 0.53813329,0.53813329 0 0 1 -0.53814,-0.538133 V 19.607771 a 0.23424626,0.23424626 0 0 1 0.23425,-0.234247 q 18.2079,0 36.48544,0.01266 c 7.90106,0.0063 11.31346,4.862193 12.87721,12.155482 1.29152,6.0081 0.93699,14.713197 -2.8616,20.03122 q -0.77871,1.082598 -1.55742,2.165195 a 0.2532392,0.2532392 0 0 0 0.10762,0.379859 z m -15.47291,-5.42565 c 6.66019,-0.221584 6.31199,-12.630305 -0.21526,-12.585988 q -6.8881,0.04432 -14.13707,0.04432 a 0.42417565,0.42417565 0 0 0 -0.42418,0.424176 v 11.674327 a 0.56345721,0.55712623 0.7 0 0 0.5508,0.557126 q 7.3566,0.113957 14.22571,-0.113958 z m 1.20922,30.7559 c 7.22364,-0.06331 7.76178,-15.479245 -0.31655,-15.586872 q -7.61617,-0.101296 -15.23234,0.09497 a 0.32921095,0.34187291 89.4 0 0 -0.32921,0.32288 l -0.1013,14.782838 a 0.46849251,0.45583055 0 0 0 0.46849,0.45583 q 7.99603,0 15.51091,-0.06964 z"
     id="path16"
     style="stroke-width:0.633098;fill:#ffffff" />
  <path
     fill="#000000"
     d="m 137.92909,42.804481 c 6.71717,0.538133 8.36322,9.116611 1.97526,11.313461 -2.43109,0.835689 -3.35542,-0.08863 -3.95686,3.076856 -1.05727,5.526946 -8.19862,7.248972 -10.80065,2.241167 -1.01296,-1.943611 -0.18993,-4.305066 -3.12118,-4.982481 q -2.01325,-0.468493 -2.39944,-0.677415 c -5.33068,-2.893258 -3.63398,-10.636046 2.50707,-10.857631 q 2.04491,-0.07597 2.09556,-2.127209 c 0.17093,-7.584514 11.47173,-7.736457 11.85792,0.113958 q 0.0886,1.760012 1.84232,1.899294 z m -5.73587,5.868818 a 2.0322445,2.0322445 0 0 0 -2.03225,-2.032244 2.0322445,2.0322445 0 0 0 -2.03224,2.032244 2.0322445,2.0322445 0 0 0 2.03224,2.032245 2.0322445,2.0322445 0 0 0 2.03225,-2.032245 z"
     id="path18"
     style="stroke-width:0.633098;fill:#ffffff" />
  <path
     fill="#000000"
     d="m 201.56176,42.836136 c 6.66653,0.823027 7.96438,9.116611 1.95628,11.24382 -1.60807,0.569788 -3.78593,0.12662 -4.12147,2.64635 -0.8167,6.147381 -8.36322,7.920055 -10.98425,2.323469 -0.899,-1.924618 -0.0317,-4.00751 -3.06419,-4.482334 -7.31229,-1.152238 -7.44524,-10.750003 0.31654,-11.731305 2.27283,-0.284894 1.798,-1.956273 2.2475,-3.450384 2.02592,-6.71717 10.6677,-5.431981 11.63634,1.468787 q 0.24691,1.766343 2.01325,1.981597 z m -5.91946,5.837163 a 2.0322445,2.0322445 0 0 0 -2.03225,-2.032244 2.0322445,2.0322445 0 0 0 -2.03224,2.032244 2.0322445,2.0322445 0 0 0 2.03224,2.032245 2.0322445,2.0322445 0 0 0 2.03225,-2.032245 z"
     id="path20"
     style="stroke-width:0.633098;fill:#ffffff" />
  <path
     fill="#000000"
     d="m 176.96591,129.77948 q 0.36719,0.25324 1.23454,0.25324 c 6.24868,0.0127 3.90621,7.45157 7.73646,7.90106 7.173,0.83569 3.72261,7.43891 8.21761,8.03402 q 4.83054,0.63943 5.24205,5.57759 0.15827,1.8993 2.05757,2.07656 4.93816,0.45583 5.86249,5.19774 c 0.6141,3.17182 1.32317,2.32347 3.7416,3.01987 q 3.91255,1.13325 4.16579,5.53328 0.10763,1.82965 1.93095,2.03858 c 1.83598,0.21525 2.1462,-1.32318 2.42476,-2.93125 0.70907,-4.03916 5.43198,-6.29932 8.86338,-3.90621 3.63398,2.53239 3.62765,7.92639 -0.56979,10.05993 -1.21555,0.62676 -3.05787,0.29755 -4.33672,1.79166 a 0.82302739,0.85468229 63.2 0 0 -0.2026,0.57612 c 0.10763,2.70966 2.0829,2.1462 3.6973,2.78563 4.56463,1.798 5.7232,7.59718 1.2472,10.38281 -4.3114,2.68434 -8.40121,-0.72806 -8.93934,-5.30536 q -0.17727,-1.50677 -1.69671,-1.58908 -5.4573,-0.30388 -6.07774,-5.77385 -0.21525,-1.88663 -2.09555,-2.15886 -4.81155,-0.68375 -5.76752,-5.02047 c -0.84202,-3.82391 -1.94361,-2.27915 -4.54565,-3.53902 -3.69096,-1.779 -2.26016,-3.99485 -4.17211,-6.53357 q -1.36116,-1.81066 -3.11485,0.50015 a 1.2218791,0.96230894 72 0 0 -0.21525,0.58245 q -0.51281,4.88751 -4.98248,5.94479 -1.80433,0.4305 -2.42477,0.98763 c -2.10821,1.90562 0.78505,3.10851 2.42477,3.40607 q 3.74794,0.67108 4.65327,4.33672 c 1.91829,7.78077 -11.05389,10.42712 -11.57936,0.98763 a 0.84835131,0.98763286 19.6 0 0 -0.21526,-0.55713 c -2.4121,-2.78563 -3.42506,-0.17093 -3.90621,1.91829 -1.63972,7.19199 -12.21246,5.76119 -11.40843,-1.81066 0.67109,-6.28666 7.12869,-3.18448 7.76179,-7.5402 q 0.65842,-4.55197 4.96348,-5.26104 c 3.70996,-0.6141 3.95687,-3.596 0.1013,-4.35571 q -4.72924,-0.93066 -5.22306,-6.14105 -0.14561,-1.50678 -1.65238,-1.63973 c -1.87397,-0.1646 -2.24117,1.27886 -2.54506,2.95024 -1.0636,5.89414 -6.99573,3.38707 -7.73646,7.02739 -0.63942,3.10851 -1.84231,5.1091 -5.12176,5.76119 -4.01384,0.79137 -3.70362,3.62765 0.0886,4.33039 3.81758,0.70274 5.78651,4.27974 4.38103,7.85674 -2.03224,5.17875 -9.52812,4.50133 -10.92727,-0.899 -0.44317,-1.6967 -1.3485,-4.95715 -3.55801,-2.56404 q -0.57612,0.6141 -0.85468,2.07656 c -0.69008,3.64664 -3.97586,5.62191 -7.48322,4.72291 -6.21702,-1.59541 -4.90018,-11.17418 1.47512,-11.28814 q 2.07023,-0.038 2.27915,-2.09555 0.52547,-5.20407 6.02076,-5.85616 1.48145,-0.17726 1.81699,-1.62706 c 0.46217,-1.99426 -1.34849,-2.38045 -3.05786,-2.74764 q -4.71658,-1.0003 -4.88752,-6.03343 -0.0506,-1.42447 -1.46245,-1.55109 -5.98278,-0.5318 -6.4576,-6.46393 -0.12029,-1.45612 -1.57641,-1.48778 c -4.46335,-0.10129 -5.71055,-2.96923 -6.50192,-6.81213 a 1.3864846,1.3864846 0 0 0 -1.27253,-1.10159 q -5.28637,-0.32922 -6.29932,-5.07112 c -0.78504,-3.69729 -1.74735,-2.34879 -4.36838,-3.45671 q -3.1275,-1.33584 -3.6783,-5.38767 -0.24058,-1.79167 -2.03857,-1.94994 -4.62795,-0.40518 -5.69789,-4.80521 c -1.01928,-4.23543 -1.72835,-2.36779 -4.61528,-3.75427 -4.81155,-2.32347 -4.37471,-8.86971 0.53813,-10.750008 0.74073,-0.284895 2.22851,-0.196261 3.14017,-1.012957 1.50677,-1.342168 0.37353,-3.311103 -1.3485,-3.539018 -3.76693,-0.500147 -6.51458,-3.095849 -5.55227,-7.008395 q 0.88634,-3.577003 5.93213,-4.836868 a 2.5577159,2.5513849 12.3 0 0 1.37382,-0.880007 c 1.55742,-1.962603 -1.15857,-2.880595 -2.78563,-3.209806 -6.60321,-1.316844 -6.22968,-10.490434 1.06994,-11.566701 1.60806,-0.234246 2.71599,-1.861308 1.43713,-3.279447 -1.05094,-1.164901 -2.70333,-0.867344 -3.84291,-1.437133 -7.06537,-3.526355 -1.54476,-13.776212 4.96349,-10.382807 q 2.77297,1.449795 3.29844,5.210397 c 0.25957,1.848646 1.81699,1.892963 3.3111,2.241167 3.13384,0.734393 4.07716,2.633687 4.58363,5.564931 0.59512,3.444053 7.21099,1.285189 7.93272,7.388253 0.37353,3.146498 1.62706,2.228505 3.74794,2.956568 q 3.45039,1.190224 4.14046,4.754566 c 0.70907,3.709954 1.60807,2.184188 4.13413,3.222469 q 3.07053,1.253534 3.75427,4.476003 c 0.4495,2.108216 1.48778,4.703918 3.88723,1.924617 a 1.0636046,0.89899915 71.9 0 0 0.22791,-0.557126 c 0.77238,-7.628831 10.37015,-8.477182 11.69332,-0.930654 q 0.18993,1.09526 0.86735,1.987928 1.19022,1.557421 2.47541,0.202591 a 3.0641943,3.1021801 73 0 0 0.76605,-1.418139 q 0.80403,-3.494701 3.00088,-5.007805 c 6.66019,-4.602623 13.08614,7.014725 5.0268,10.186546 -0.79137,0.310218 -2.05757,0.234247 -2.88693,0.753387 q -2.15253,1.367492 -0.91166,2.633688 0.60778,0.626767 1.44346,0.861013 4.43169,1.259865 5.71688,4.184777 c 1.56375,3.57067 -1.0003,7.05271 -4.62162,7.79977 -1.46245,0.29755 -3.77959,1.14591 -2.58937,2.88059 a 2.6020327,2.6146947 79.9 0 0 1.51311,1.05095 q 5.375,1.36749 6.13472,5.41298 c 0.41784,2.18419 0.67741,2.46276 2.77297,2.83628 q 4.41902,0.78504 5.33068,5.81817 0.21525,1.17757 1.20289,1.86764 z M 108.4014,72.420805 a 2.0132516,2.0132516 0 0 0 -2.01326,-2.013252 2.0132516,2.0132516 0 0 0 -2.01325,2.013252 2.0132516,2.0132516 0 0 0 2.01325,2.013251 2.0132516,2.0132516 0 0 0 2.01326,-2.013251 z m 7.91372,7.920056 a 2.0195826,2.0195826 0 0 0 -2.01958,-2.019583 2.0195826,2.0195826 0 0 0 -2.01958,2.019583 2.0195826,2.0195826 0 0 0 2.01958,2.019582 2.0195826,2.0195826 0 0 0 2.01958,-2.019582 z m -7.90739,7.920055 a 2.0195826,2.0195826 0 0 0 -2.01959,-2.019582 2.0195826,2.0195826 0 0 0 -2.01958,2.019582 2.0195826,2.0195826 0 0 0 2.01958,2.019583 2.0195826,2.0195826 0 0 0 2.01959,-2.019583 z m 15.84011,-0.0063 a 2.0132516,2.0132516 0 0 0 -2.01325,-2.013251 2.0132516,2.0132516 0 0 0 -2.01326,2.013251 2.0132516,2.0132516 0 0 0 2.01326,2.013252 2.0132516,2.0132516 0 0 0 2.01325,-2.013252 z m -7.93905,7.932718 a 2.0132516,2.0132516 0 0 0 -2.01325,-2.013251 2.0132516,2.0132516 0 0 0 -2.01325,2.013251 2.0132516,2.0132516 0 0 0 2.01325,2.013252 2.0132516,2.0132516 0 0 0 2.01325,-2.013252 z m 15.8781,-0.01266 a 2.0259136,2.0259136 0 0 0 -2.02592,-2.025913 2.0259136,2.0259136 0 0 0 -2.02591,2.025913 2.0259136,2.0259136 0 0 0 2.02591,2.025914 2.0259136,2.0259136 0 0 0 2.02592,-2.025914 z m 15.86543,0.0063 a 2.0195826,2.0195826 0 0 0 -2.01958,-2.019582 2.0195826,2.0195826 0 0 0 -2.01958,2.019582 2.0195826,2.0195826 0 0 0 2.01958,2.019583 2.0195826,2.0195826 0 0 0 2.01958,-2.019583 z m -39.65092,7.901066 a 2.0195826,2.0195826 0 0 0 -2.01959,-2.01959 2.0195826,2.0195826 0 0 0 -2.01958,2.01959 2.0195826,2.0195826 0 0 0 2.01958,2.01958 2.0195826,2.0195826 0 0 0 2.01959,-2.01958 z m 15.84011,0.006 a 2.0132516,2.0132516 0 0 0 -2.01325,-2.01325 2.0132516,2.0132516 0 0 0 -2.01326,2.01325 2.0132516,2.0132516 0 0 0 2.01326,2.01325 2.0132516,2.0132516 0 0 0 2.01325,-2.01325 z m 15.8591,0 a 2.0132516,2.0132516 0 0 0 -2.01325,-2.01325 2.0132516,2.0132516 0 0 0 -2.01325,2.01325 2.0132516,2.0132516 0 0 0 2.01325,2.01325 2.0132516,2.0132516 0 0 0 2.01325,-2.01325 z m 15.86544,0.006 a 2.0195826,2.0195826 0 0 0 -2.01959,-2.01959 2.0195826,2.0195826 0 0 0 -2.01958,2.01959 2.0195826,2.0195826 0 0 0 2.01958,2.01958 2.0195826,2.0195826 0 0 0 2.01959,-2.01958 z m -39.6446,7.92005 a 2.0195826,2.0195826 0 0 0 -2.01958,-2.01958 2.0195826,2.0195826 0 0 0 -2.01958,2.01958 2.0195826,2.0195826 0 0 0 2.01958,2.01959 2.0195826,2.0195826 0 0 0 2.01958,-2.01959 z m 15.85911,0.006 a 2.0195826,2.0195826 0 0 0 -2.01959,-2.01958 2.0195826,2.0195826 0 0 0 -2.01958,2.01958 2.0195826,2.0195826 0 0 0 2.01958,2.01959 2.0195826,2.0195826 0 0 0 2.01959,-2.01959 z m 15.86543,-0.0127 a 2.0132516,2.0132516 0 0 0 -2.01325,-2.01325 2.0132516,2.0132516 0 0 0 -2.01325,2.01325 2.0132516,2.0132516 0 0 0 2.01325,2.01325 2.0132516,2.0132516 0 0 0 2.01325,-2.01325 z m -23.79815,7.91373 a 2.0195826,2.0195826 0 0 0 -2.01958,-2.01959 2.0195826,2.0195826 0 0 0 -2.01959,2.01959 2.0195826,2.0195826 0 0 0 2.01959,2.01958 2.0195826,2.0195826 0 0 0 2.01958,-2.01958 z m 15.85277,0 a 2.0195826,2.0195826 0 0 0 -2.01958,-2.01959 2.0195826,2.0195826 0 0 0 -2.01958,2.01959 2.0195826,2.0195826 0 0 0 2.01958,2.01958 2.0195826,2.0195826 0 0 0 2.01958,-2.01958 z m 15.85911,0 a 2.0195826,2.0195826 0 0 0 -2.01959,-2.01959 2.0195826,2.0195826 0 0 0 -2.01958,2.01959 2.0195826,2.0195826 0 0 0 2.01958,2.01958 2.0195826,2.0195826 0 0 0 2.01959,-2.01958 z m -23.77916,7.93271 a 2.0259136,2.0259136 0 0 0 -2.02592,-2.02591 2.0259136,2.0259136 0 0 0 -2.02591,2.02591 2.0259136,2.0259136 0 0 0 2.02591,2.02592 2.0259136,2.0259136 0 0 0 2.02592,-2.02592 z m 15.87176,-0.019 a 2.0195826,2.0195826 0 0 0 -2.01958,-2.01958 2.0195826,2.0195826 0 0 0 -2.01958,2.01958 2.0195826,2.0195826 0 0 0 2.01958,2.01958 2.0195826,2.0195826 0 0 0 2.01958,-2.01958 z m 15.84645,0 a 2.0069206,2.0069206 0 0 0 -2.00693,-2.00692 2.0069206,2.0069206 0 0 0 -2.00692,2.00692 2.0069206,2.0069206 0 0 0 2.00692,2.00692 2.0069206,2.0069206 0 0 0 2.00693,-2.00692 z m -23.77917,7.93905 a 2.0259136,2.0259136 0 0 0 -2.02591,-2.02591 2.0259136,2.0259136 0 0 0 -2.02591,2.02591 2.0259136,2.0259136 0 0 0 2.02591,2.02591 2.0259136,2.0259136 0 0 0 2.02591,-2.02591 z m 15.84012,-0.019 a 2.0132516,2.0132516 0 0 0 -2.01326,-2.01325 2.0132516,2.0132516 0 0 0 -2.01325,2.01325 2.0132516,2.0132516 0 0 0 2.01325,2.01325 2.0132516,2.0132516 0 0 0 2.01326,-2.01325 z m 15.87809,0 a 2.0132516,2.0132516 0 0 0 -2.01325,-2.01325 2.0132516,2.0132516 0 0 0 -2.01325,2.01325 2.0132516,2.0132516 0 0 0 2.01325,2.01325 2.0132516,2.0132516 0 0 0 2.01325,-2.01325 z m -23.78549,7.92005 a 2.0259136,2.0259136 0 0 0 -2.02591,-2.02591 2.0259136,2.0259136 0 0 0 -2.02591,2.02591 2.0259136,2.0259136 0 0 0 2.02591,2.02592 2.0259136,2.0259136 0 0 0 2.02591,-2.02592 z m 15.86544,0 a 2.0259136,2.0259136 0 0 0 -2.02592,-2.02591 2.0259136,2.0259136 0 0 0 -2.02591,2.02591 2.0259136,2.0259136 0 0 0 2.02591,2.02592 2.0259136,2.0259136 0 0 0 2.02592,-2.02592 z m 15.84011,0.006 a 2.0195826,2.0195826 0 0 0 -2.01958,-2.01958 2.0195826,2.0195826 0 0 0 -2.01959,2.01958 2.0195826,2.0195826 0 0 0 2.01959,2.01959 2.0195826,2.0195826 0 0 0 2.01958,-2.01959 z m -23.78549,7.91373 a 2.0259136,2.0259136 0 0 0 -2.02592,-2.02591 2.0259136,2.0259136 0 0 0 -2.02591,2.02591 2.0259136,2.0259136 0 0 0 2.02591,2.02591 2.0259136,2.0259136 0 0 0 2.02592,-2.02591 z m 31.73087,0 a 2.0259136,2.0259136 0 0 0 -2.02591,-2.02591 2.0259136,2.0259136 0 0 0 -2.02592,2.02591 2.0259136,2.0259136 0 0 0 2.02592,2.02591 2.0259136,2.0259136 0 0 0 2.02591,-2.02591 z"
     id="path22"
     style="stroke-width:0.633098;fill:#ffffff" />
  <path
     fill="#000000"
     d="m 227.79735,67.197746 c 10.26251,6.983071 -5.50796,16.954365 -8.10999,6.400621 -0.51914,-2.114547 -1.65872,-5.115432 -4.07715,-1.899294 a 1.2028862,0.98130188 71.2 0 0 -0.21525,0.576119 q -0.56346,5.197735 -6.14739,6.014431 c -2.96923,0.436838 -1.11425,6.888106 -6.68551,7.717465 -2.20318,0.329211 -2.72865,0.544464 -3.12117,2.893257 -0.98764,5.862488 -9.06597,7.097029 -11.18051,1.519436 -1.41181,-3.716286 0.79137,-7.413578 4.80521,-7.894732 4.01384,-0.481155 1.60807,-5.48896 6.16004,-7.457895 2.09556,-0.90533 3.62132,0.05698 4.3937,-2.848941 0.95598,-3.608658 1.74735,-4.982481 5.65357,-5.545938 2.66534,-0.379859 2.05757,-2.804624 2.71599,-4.336721 1.8803,-4.374707 6.78048,-2.450089 7.54653,-5.94479 q 0.46849,-2.133541 0.60144,-2.405773 c 3.13383,-6.337311 13.22542,-2.222174 10.59806,4.659602 -1.6967,4.450678 -7.00206,2.659011 -7.41358,6.001768 a 0.92432306,0.89899915 33.6 0 0 0.12662,0.582451 q 1.03195,1.74735 2.74765,1.563752 a 2.4247653,2.4184343 59.1 0 1 1.60174,0.405182 z"
     id="path24"
     style="stroke-width:0.633098;fill:#ffffff" />
  <path
     fill="#000000"
     d="m 164.01272,63.741031 c 1.51944,-9.224237 15.68817,-4.210101 10.53475,4.064489 -1.82965,2.943906 -6.16637,1.658717 -6.76148,4.551975 q -0.31022,1.519435 -0.31655,1.538428 c -2.03858,5.919466 -10.02194,5.577593 -11.28181,-0.367197 -0.85468,-3.994848 -1.48778,-2.469082 -4.37471,-3.665637 -7.94538,-3.285779 -1.47511,-15.156366 5.73587,-9.876329 q 2.11455,1.55109 2.30448,4.608954 a 0.96863992,1.2408721 20.1 0 0 0.18993,0.588781 c 1.91195,2.823617 3.58966,0.867344 3.96952,-1.443464 z"
     id="path26"
     style="stroke-width:0.633098;fill:#ffffff" />
  <circle
     fill="#000000"
     cx="177.73827"
     cy="88.254593"
     r="5.8118396"
     id="circle28"
     style="stroke-width:0.633098;fill:#ffffff" />
  <circle
     fill="#000000"
     cx="225.32191"
     cy="88.254593"
     r="5.8118396"
     id="circle30"
     style="stroke-width:0.633098;fill:#ffffff" />
  <circle
     fill="#000000"
     cx="225.3156"
     cy="104.0947"
     r="5.8181701"
     id="circle32"
     style="stroke-width:0.633098;fill:#ffffff" />
  <path
     fill="#000000"
     d="m 323.79399,104.43657 c -0.12029,-0.67108 0.72807,-6.615874 1.96894,-2.8806 q 0.25324,0.75339 0.25324,1.55109 0,5.30537 0,10.34483 c 0,2.89325 -2.00692,3.11484 -2.20318,0.006 -0.53181,-8.37589 -10.89562,-15.618531 -16.15666,-5.46997 -4.98249,9.62309 -5.66623,27.74868 0.81669,36.71335 6.31832,8.73042 13.13045,3.70363 16.63149,-3.73528 q 0.81669,-1.73468 1.58274,0.0823 c 0.62677,1.48145 0.038,2.12721 -0.50648,3.38707 -1.98792,4.55831 -7.13501,10.23086 -12.7316,8.2556 -6.49558,-2.29182 -9.45848,-10.09158 -10.84497,-16.144 q -0.64576,-2.81729 -0.64576,-8.06567 c 0,-8.83805 -0.11395,-21.60763 7.89474,-27.40048 5.22305,-3.773263 10.13589,-1.06994 13.32038,3.61499 q 0.91799,1.34217 0.62043,-0.25957 z"
     id="path34"
     style="stroke-width:0.633098;fill:#ffffff" />
  <path
     fill="#000000"
     d="m 377.73394,153.14713 a 13.168438,26.938319 0 0 1 -13.16844,-26.93832 13.168438,26.938319 0 0 1 13.16844,-26.938319 13.168438,26.938319 0 0 1 13.16844,26.938319 13.168438,26.938319 0 0 1 -13.16844,26.93832 z m 0,-3.79226 a 10.958926,23.158724 0 0 0 10.95893,-23.15872 10.958926,23.158724 0 0 0 -10.95893,-23.15873 10.958926,23.158724 0 0 0 -10.95892,23.15873 10.958926,23.158724 0 0 0 10.95892,23.15872 z"
     id="path36"
     style="stroke-width:0.633098;fill:#ffffff" />
  <path
     fill="#000000"
     d="m 263.694,148.00004 1.82332,0.17727 a 0.77871053,0.60144309 70.3 0 1 0.50648,0.32288 q 1.20289,1.67138 -0.23424,3.1275 a 0.78504151,0.72173171 20.3 0 1 -0.54447,0.22159 h -7.86308 q -1.39281,0 -1.57008,-1.37382 c -0.45583,-3.45039 2.65268,-2.42477 4.80522,-2.42477 a 0.51280937,0.51280937 0 0 0 0.5128,-0.51281 q -0.095,-21.53166 0.10763,-42.15799 c 0.006,-0.54447 -0.3482,-2.01326 -0.78504,-0.19626 q -3.65298,15.15003 -7.65416,30.78122 a 0.69007681,0.69640779 1 0 1 -0.5128,0.50015 c -2.26016,0.52547 -2.20952,0.22791 -2.74765,-1.82966 q -3.82391,-14.66888 -7.50221,-29.38207 c -0.62044,-2.48175 -0.69641,0.31021 -0.69641,0.50647 q -0.0317,20.89224 0.038,41.78447 a 0.31654899,0.37352781 0.5 0 0 0.31022,0.37353 l 3.41872,0.076 q 1.39915,0.0317 1.60174,1.22821 c 0.51281,3.0642 -1.43713,2.62736 -3.72894,2.62736 q -2.86161,0 -5.66623,0 -1.63973,0 -1.44347,-1.62073 0.29756,-2.50707 2.3488,-2.13987 a 0.90533012,0.90533012 0 0 0 1.0636,-0.89267 l -0.038,-42.26562 a 0.58245015,0.58245015 0 0 0 -0.65209,-0.57612 q -2.24117,0.27856 -2.14621,-2.1652 0.0506,-1.39914 1.44347,-1.57008 2.26016,-0.27223 4.98881,0.10129 a 0.46849251,0.48115447 87.3 0 1 0.39885,0.35454 l 7.75545,30.3064 q 0.31022,1.22188 0.61411,-0.006 l 7.45789,-30.49 a 0.41784467,0.41151369 6.7 0 1 0.40518,-0.31655 h 4.81155 q 1.50044,0 1.67771,1.48145 0.27856,2.29181 -2.22218,2.32347 a 0.44316859,0.44316859 0 0 0 -0.43683,0.44317 l 0.038,42.88606 a 0.34820389,0.29122508 3.4 0 0 0.31655,0.29755 z"
     id="path38"
     style="stroke-width:0.633098;fill:#ffffff" />
  <path
     fill="#000000"
     d="m 281.22448,104.39858 q -2.86793,-0.0633 -6.0081,0.0886 -2.88059,0.13929 -2.36778,-2.64635 0.24058,-1.27252 1.5321,-1.27252 h 16.9417 a 1.1585693,1.1712313 77.2 0 1 1.05094,0.65842 q 0.86101,1.77267 -0.49382,2.91225 a 0.9749709,0.84202033 21.7 0 1 -0.56345,0.19626 l -7.01473,0.0317 a 0.54446427,0.55079525 89.7 0 0 -0.54446,0.54446 v 42.60117 a 0.54446427,0.53813329 0.3 0 0 0.53813,0.53813 l 7.17933,0.0317 a 0.70273877,0.82302739 71.7 0 1 0.54447,0.22158 q 0.96864,1.00663 0.44949,2.58304 a 1.4054775,1.4118085 9.3 0 1 -1.33583,0.96231 h -16.75811 q -1.1459,0 -1.39281,-1.11425 -0.66475,-2.95657 2.23483,-2.82362 3.00089,0.13928 6.05242,0.13928 a 0.43050663,0.43050663 0 0 0 0.43051,-0.43051 v -42.73411 a 0.48748545,0.48748545 0 0 0 -0.47483,-0.48749 z"
     id="path40"
     style="stroke-width:0.633098;fill:#ffffff" />
  <path
     fill="#000000"
     d="m 358.66503,147.98105 c 3.91888,-0.33554 3.37441,4.16578 0.68375,3.96319 -1.23454,-0.0886 -2.25383,0.3672 -2.62736,-1.20288 q -0.5318,-2.22218 -2.20318,-6.58422 c -2.32347,-6.05242 -3.62765,-9.5218 -7.2553,-13.87118 -1.58908,-1.90562 -5.58393,-1.3295 -7.79344,-1.10159 a 0.34820389,0.36719683 87.6 0 0 -0.32921,0.34187 l -0.13928,17.97366 a 0.55712623,0.54446427 0.3 0 0 0.55712,0.55079 c 2.0639,0 5.40666,-0.91166 4.93817,2.50074 q -0.1836,1.29785 -1.48778,1.29785 h -8.97733 q -1.17756,0 -1.42447,-1.15224 -0.66476,-3.05153 3.15916,-2.57671 a 1.0129568,1.0066258 3.5 0 0 1.13324,-1.00029 v -41.82246 a 1.0319497,1.0319497 0 0 0 -1.20922,-1.01295 q -3.51369,0.59511 -3.14649,-2.41844 0.15827,-1.29785 1.46879,-1.29785 3.96319,0 7.9707,0 c 5.73587,0 8.86337,-0.43051 11.7313,4.27341 4.57097,7.48955 3.88723,17.95466 -4.01384,22.85484 a 0.58878113,0.58245015 55.2 0 0 -0.15194,0.86101 c 3.91888,5.05213 5.91947,10.81965 8.69244,19.15122 a 0.40518271,0.41784467 78.6 0 0 0.42417,0.27223 z m -19.49942,-43.29124 -0.15827,20.02489 a 0.55079525,0.53813329 0.3 0 0 0.55079,0.54446 c 2.92492,0 6.12206,0.38619 8.62913,-0.70274 7.173,-3.12117 7.81243,-12.31375 3.1465,-17.97365 -2.68434,-3.26045 -7.96438,-2.21584 -11.83261,-2.21584 a 0.33554193,0.32921095 0.6 0 0 -0.33554,0.32288 z"
     id="path42"
     style="stroke-width:0.633098;fill:#ffffff" />
  <circle
     fill="#000000"
     cx="225.32191"
     cy="119.92215"
     r="5.8118396"
     id="circle44"
     style="stroke-width:0.633098;fill:#ffffff" />
  <circle
     fill="#000000"
     cx="225.32191"
     cy="135.75592"
     r="5.8118396"
     id="circle46"
     style="stroke-width:0.633098;fill:#ffffff" />
  <circle
     fill="#000000"
     cx="225.32191"
     cy="151.58971"
     r="5.8118396"
     id="circle48"
     style="stroke-width:0.633098;fill:#ffffff" />
  <circle
     fill="#000000"
     cx="106.38181"
     cy="175.34354"
     r="5.8055086"
     id="circle50"
     style="stroke-width:0.633098;fill:#ffffff" />
  <circle
     fill="#000000"
     cx="122.22825"
     cy="175.34987"
     r="5.8055086"
     id="circle52"
     style="stroke-width:0.633098;fill:#ffffff" />
</svg>
