<?xml version="1.0" encoding="UTF-8" standalone="no"?>
<svg
   xmlns:dc="http://purl.org/dc/elements/1.1/"
   xmlns:cc="http://creativecommons.org/ns#"
   xmlns:rdf="http://www.w3.org/1999/02/22-rdf-syntax-ns#"
   xmlns:svg="http://www.w3.org/2000/svg"
   xmlns="http://www.w3.org/2000/svg"
   xmlns:sodipodi="http://sodipodi.sourceforge.net/DTD/sodipodi-0.dtd"
   xmlns:inkscape="http://www.inkscape.org/namespaces/inkscape"
   width="492.86884"
   height="152.01862"
   viewBox="0 0 492.86884 152.01862"
   version="1.1"
   id="svg29"
   sodipodi:docname="capcom.svg"
   inkscape:version="0.92.5 (2060ec1f9f, 2020-04-08)">
  <metadata
     id="metadata35">
    <rdf:RDF>
      <cc:Work
         rdf:about="">
        <dc:format>image/svg+xml</dc:format>
        <dc:type
           rdf:resource="http://purl.org/dc/dcmitype/StillImage" />
        <dc:title>mainlogo</dc:title>
      </cc:Work>
    </rdf:RDF>
  </metadata>
  <defs
     id="defs33" />
  <sodipodi:namedview
     pagecolor="#ffffff"
     bordercolor="#666666"
     borderopacity="1"
     objecttolerance="10"
     gridtolerance="10"
     guidetolerance="10"
     inkscape:pageopacity="0"
     inkscape:pageshadow="2"
     inkscape:window-width="1366"
     inkscape:window-height="743"
     id="namedview31"
     showgrid="false"
     inkscape:pagecheckerboard="true"
     inkscape:zoom="1.1243578"
     inkscape:cx="281.70547"
     inkscape:cy="2.9602181"
     inkscape:window-x="0"
     inkscape:window-y="0"
     inkscape:window-maximized="1"
     inkscape:current-layer="svg29" />
  <title
     id="title14">mainlogo</title>
  <path
     d="m 9.9535821,151.9916 c 1.4587909,0 2.8775549,-0.31519 4.2562899,-0.94556 1.378736,-0.63039 2.512858,-1.4769 3.402364,-2.53954 v 0 l -2.535094,-2.53953 c -0.658235,0.77447 -1.414316,1.36882 -2.268242,1.78308 -0.853928,0.41424 -1.77012,0.62137 -2.748577,0.62137 -0.8717169,0 -1.6767207,-0.15759 -2.4150113,-0.47278 -0.7382907,-0.31519 -1.3787357,-0.74296 -1.9213349,-1.28328 -0.5425992,-0.54032 -0.9695625,-1.18421 -1.28089,-1.93166 -0.3113273,-0.74745 -0.466991,-1.55344 -0.466991,-2.41796 0,-0.88253 0.1512161,-1.69752 0.4536485,-2.44497 0.3024323,-0.74745 0.7205006,-1.39585 1.2542046,-1.94518 0.5337042,-0.54933 1.1697017,-0.98159 1.9079923,-1.29678 0.7382907,-0.31519 1.5255043,-0.47278 2.3616409,-0.47278 0.9962479,0 1.9391249,0.22063 2.8286319,0.6619 0.889507,0.44126 1.663378,1.07614 2.321613,1.90464 v 0 l 2.61515,-2.62058 c -0.871717,-1.08065 -2.010285,-1.94067 -3.415707,-2.58005 -1.405421,-0.63939 -2.855316,-0.95908 -4.3496879,-0.95908 -1.3876308,0 -2.6907583,0.25215 -3.9093828,0.75646 -1.2186244,0.5043 -2.2726901,1.18871 -3.162197,2.05323 -0.8895068,0.86453 -1.5922174,1.89565 -2.10813131,3.09337 C 0.257957,139.61364 0,140.89691 0,142.26574 c 0,1.36882 0.25350946,2.6476 0.76052838,3.83631 0.50701892,1.18872 1.20528182,2.21534 2.09478882,3.07986 0.8895068,0.86452 1.9435724,1.54894 3.1621968,2.05324 1.2186245,0.5043 2.5306472,0.75645 3.9360681,0.75645 z m 50.5684659,0.027 c 1.387631,0 2.686311,-0.25215 3.896041,-0.75646 1.209729,-0.5043 2.2549,-1.19321 3.135511,-2.06675 0.880612,-0.87352 1.578876,-1.90914 2.094789,-3.10686 0.515914,-1.19773 0.773871,-2.472 0.773871,-3.82281 0,-1.35081 -0.257957,-2.62508 -0.773871,-3.8228 -0.515913,-1.19773 -1.214177,-2.23335 -2.094789,-3.10688 -0.880611,-0.87352 -1.925782,-1.56244 -3.135511,-2.06674 -1.20973,-0.50431 -2.50841,-0.75646 -3.896041,-0.75646 -1.36984,0 -2.659625,0.25215 -3.869355,0.75646 -1.209729,0.5043 -2.2549,1.19322 -3.135511,2.06674 -0.880612,0.87353 -1.578874,1.90915 -2.094789,3.10688 -0.515914,1.19772 -0.773872,2.47199 -0.773872,3.8228 0,1.35081 0.257958,2.62508 0.773872,3.82281 0.515915,1.19772 1.214177,2.23334 2.094789,3.10686 0.880611,0.87354 1.925782,1.56245 3.135511,2.06675 1.20973,0.50431 2.499515,0.75646 3.869355,0.75646 z m 0,-3.59317 c -0.836136,0 -1.614455,-0.15759 -2.334955,-0.47278 -0.7205,-0.31519 -1.343155,-0.74745 -1.867964,-1.29678 -0.52481,-0.54934 -0.93843,-1.20223 -1.240863,-1.95869 -0.302432,-0.75645 -0.453649,-1.56694 -0.453649,-2.43146 0,-0.88253 0.151217,-1.69752 0.453649,-2.44497 0.302433,-0.74745 0.716053,-1.39585 1.240863,-1.94518 0.524809,-0.54933 1.147464,-0.98159 1.867964,-1.29678 0.7205,-0.31519 1.498819,-0.47278 2.334955,-0.47278 0.836137,0 1.618903,0.15759 2.348298,0.47278 0.729396,0.31519 1.356498,0.74745 1.881307,1.29678 0.52481,0.54933 0.93843,1.19773 1.240863,1.94518 0.302432,0.74745 0.453648,1.56244 0.453648,2.44497 0,0.86452 -0.151216,1.67501 -0.453648,2.43146 -0.302433,0.75646 -0.716053,1.40935 -1.240863,1.95869 -0.524809,0.54933 -1.151911,0.98159 -1.881307,1.29678 -0.729395,0.31519 -1.512161,0.47278 -2.348298,0.47278 z m 58.654082,3.29599 v -3.45808 H 108.9557 v -15.45332 h -3.86936 v 18.9114 z m 48.78056,0 v -3.45808 h -10.22043 v -15.45332 h -3.86936 v 18.9114 z m 49.15415,0 v -3.40405 h -10.59402 v -4.48471 h 6.91146 v -3.29598 h -6.91146 v -4.32261 h 10.48728 v -3.40405 h -14.35664 v 18.9114 z m 42.90981,0.27016 c 1.45879,0 2.87756,-0.31519 4.2563,-0.94556 1.37873,-0.63039 2.51285,-1.4769 3.40236,-2.53954 v 0 l -2.53509,-2.53953 c -0.65824,0.77447 -1.41432,1.36882 -2.26825,1.78308 -0.85392,0.41424 -1.77012,0.62137 -2.74858,0.62137 -0.87171,0 -1.67672,-0.15759 -2.415,-0.47278 -0.7383,-0.31519 -1.37874,-0.74296 -1.92134,-1.28328 -0.5426,-0.54032 -0.96957,-1.18421 -1.28089,-1.93166 -0.31133,-0.74745 -0.46699,-1.55344 -0.46699,-2.41796 0,-0.88253 0.15121,-1.69752 0.45365,-2.44497 0.30243,-0.74745 0.72049,-1.39585 1.2542,-1.94518 0.53371,-0.54933 1.1697,-0.98159 1.90799,-1.29678 0.73829,-0.31519 1.52551,-0.47278 2.36164,-0.47278 0.99625,0 1.93913,0.22063 2.82863,0.6619 0.88951,0.44126 1.66339,1.07614 2.32161,1.90464 v 0 l 2.61515,-2.62058 c -0.87171,-1.08065 -2.01028,-1.94067 -3.4157,-2.58005 -1.40542,-0.63939 -2.85532,-0.95908 -4.34969,-0.95908 -1.38763,0 -2.69076,0.25215 -3.90938,0.75646 -1.21862,0.5043 -2.27269,1.18871 -3.1622,2.05323 -0.88951,0.86453 -1.59221,1.89565 -2.10813,3.09337 -0.51591,1.19772 -0.77387,2.48099 -0.77387,3.84982 0,1.36882 0.25351,2.6476 0.76053,3.83631 0.50702,1.18872 1.20528,2.21534 2.09479,3.07986 0.8895,0.86452 1.94357,1.54894 3.16219,2.05324 1.21863,0.5043 2.53065,0.75645 3.93607,0.75645 z m 51.18223,-0.27016 V 136.2681 h 6.27102 v -3.45808 h -16.43809 v 3.45808 h 6.29772 v 15.45332 z m 44.32413,0 v -18.9114 h -3.86935 v 18.9114 z m 44.56429,0.29718 c 1.38763,0 2.68631,-0.25215 3.89605,-0.75646 1.20972,-0.5043 2.2549,-1.19321 3.1355,-2.06675 0.88062,-0.87352 1.57888,-1.90914 2.09479,-3.10686 0.51592,-1.19773 0.77388,-2.472 0.77388,-3.82281 0,-1.35081 -0.25796,-2.62508 -0.77388,-3.8228 -0.51591,-1.19773 -1.21417,-2.23335 -2.09479,-3.10688 -0.8806,-0.87352 -1.92578,-1.56244 -3.1355,-2.06674 -1.20974,-0.50431 -2.50842,-0.75646 -3.89605,-0.75646 -1.36984,0 -2.65962,0.25215 -3.86936,0.75646 -1.20972,0.5043 -2.2549,1.19322 -3.1355,2.06674 -0.88062,0.87353 -1.57888,1.90915 -2.09479,3.10688 -0.51592,1.19772 -0.77388,2.47199 -0.77388,3.8228 0,1.35081 0.25796,2.62508 0.77388,3.82281 0.51591,1.19772 1.21417,2.23334 2.09479,3.10686 0.8806,0.87354 1.92578,1.56245 3.1355,2.06675 1.20974,0.50431 2.49952,0.75646 3.86936,0.75646 z m 0,-3.59317 c -0.83613,0 -1.61446,-0.15759 -2.33495,-0.47278 -0.7205,-0.31519 -1.34316,-0.74745 -1.86797,-1.29678 -0.5248,-0.54934 -0.93843,-1.20223 -1.24086,-1.95869 -0.30243,-0.75645 -0.45365,-1.56694 -0.45365,-2.43146 0,-0.88253 0.15122,-1.69752 0.45365,-2.44497 0.30243,-0.74745 0.71606,-1.39585 1.24086,-1.94518 0.52481,-0.54933 1.14747,-0.98159 1.86797,-1.29678 0.72049,-0.31519 1.49882,-0.47278 2.33495,-0.47278 0.83613,0 1.6189,0.15759 2.3483,0.47278 0.7294,0.31519 1.3565,0.74745 1.88131,1.29678 0.5248,0.54933 0.93843,1.19773 1.24086,1.94518 0.30243,0.74745 0.45365,1.56244 0.45365,2.44497 0,0.86452 -0.15122,1.67501 -0.45365,2.43146 -0.30243,0.75646 -0.71606,1.40935 -1.24086,1.95869 -0.52481,0.54933 -1.15191,0.98159 -1.88131,1.29678 -0.7294,0.31519 -1.51217,0.47278 -2.3483,0.47278 z m 48.22017,3.29599 V 139.0778 l 9.52661,12.64362 h 3.41572 v -18.9114 h -3.62919 v 12.23838 l -9.28646,-12.23838 h -3.68255 v 18.9114 z"
     id="COLLECTION"
     inkscape:connector-curvature="0"
     style="fill:#ffffff;fill-rule:nonzero;stroke:none;stroke-width:1.14739752" />
  <path
     style="fill:#ffffff;fill-rule:nonzero;stroke:none;stroke-width:1.14739752"
     inkscape:connector-curvature="0"
     id="path3950"
     d="m 44.211654,39.366489 c -20.14186,0.126768 -36.5923791,14.79842 -36.5923791,33.991048 0,19.192628 18.1598701,35.678813 40.1418811,35.182503 l 21.360263,0.0602 V 91.78382 h -4.034312 c -1.267501,3.170695 -7.18746,6.272029 -11.479706,6.272029 -2.261938,0 -7.956264,-0.307482 -10.062734,-1.045259 C 39.825621,95.708019 34.518989,93.838182 29.904972,86.083319 28.668521,83.364834 25.18692,76.74023 25.964819,67.076548 c 0.376745,-5.824288 4.076303,-13.094806 10.71494,-16.387316 2.894725,-1.435672 5.808824,-1.671237 10.925441,-1.20692 3.673355,0.333345 7.3233,2.916207 8.59766,6.016156 0.985609,2.397541 0.702384,5.31908 -0.457886,6.983232 -0.08277,0.118728 -0.08455,0.223879 -0.0674,0.337218 0.01306,0.08627 0.124943,0.230009 0.124943,0.230009 l 2.02184,1.579468 c 0,0 0.575606,0.399937 1.24797,0.382029 0.390482,-0.01044 1.088518,-0.434019 1.088518,-0.434019 L 71.707489,52.459008 C 64.568977,42.826806 51.883018,39.366489 44.211654,39.366489 Z" />
  <path
     style="fill:#ffffff;fill-rule:nonzero;stroke:none;stroke-width:1.14739752"
     inkscape:connector-curvature="0"
     id="path3990"
     d="m 332.76593,39.041276 c -21.35368,0 -38.66464,16.06154 -38.66464,35.87494 0,19.8134 17.31096,35.874944 38.66464,35.874944 21.35366,0 38.66462,-16.061544 38.66462,-35.874944 0,-19.8134 -17.31096,-35.87494 -38.66462,-35.87494 z m 0.25235,11.153205 c 10.99187,0 16.88304,7.866013 19.2711,17.242028 0.68358,2.683869 0.40644,11.60767 -8.8e-4,14.579109 -1.24179,9.061189 -8.64823,17.891429 -19.39511,17.61956 -10.47258,-0.26493 -17.4779,-5.140599 -19.64865,-18.253399 -0.63499,-3.835834 -0.64606,-8.443817 -0.12874,-12.297286 1.49998,-11.173374 8.91029,-18.890012 19.90218,-18.890012 v 0 z" />
  <path
     style="fill:#ffffff;fill-rule:nonzero;stroke:none;stroke-width:1.14739752"
     inkscape:connector-curvature="0"
     id="path4001"
     d="m 107.87162,41.268035 c 0,0 -16.978986,45.943486 -20.021416,54.310172 -3.042431,8.366683 -6.463978,8.113943 -6.463978,8.113943 l 0.252348,5.06913 20.520566,-0.005 0.0166,-4.86948 c 0,0 -1.31669,-0.0676 -2.282219,-0.95393 -1.872656,-1.719 -0.687717,-5.17728 -0.687717,-5.17728 l 4.744686,-12.137637 21.07239,0.04437 c 0,0 4.10755,10.255597 5.1135,13.64063 1.31251,4.416447 -2.7869,4.495107 -2.7869,4.495107 v 4.9499 l 25.9502,-0.0139 -0.0166,-4.89443 c 0,0 -1.54542,-0.23573 -3.18901,-1.66938 -1.86439,-1.62623 -3.13355,-4.980397 -3.13355,-4.980397 L 125.70787,41.315177 Z m 6.09239,14.125913 7.03523,19.586048 -13.62677,0.06101 z" />
  <path
     style="fill:#ffffff;fill-rule:nonzero;stroke:none;stroke-width:1.14739752"
     inkscape:connector-curvature="0"
     id="rect3593"
     d="m 161.59113,41.195935 -0.0998,5.632063 c 0,0 1.6494,0.472618 3.22784,2.223986 0.83687,0.928559 0.3189,12.714432 0.3189,12.714432 l -0.0278,37.727336 c 0,0 0.53762,1.486998 -1.26728,2.981028 -0.68133,0.56397 -1.28478,1.16177 -2.33769,1.25342 l -0.12478,5.01922 24.05065,0.0582 0.0583,-5.10518 c 0,0 -0.85075,-0.33558 -2.18516,-1.53905 -0.75321,-0.67929 -1.21721,-1.65688 -1.20627,-2.631621 0.0202,-3.408158 0.0999,-6.6829 0.0832,-10.010708 8.42462,-2.029184 15.6974,-5.469989 18.5323,-6.513894 10.65622,-4.252127 18.92499,-11.003316 18.44077,-23.046813 -0.0914,-8.532616 -4.41931,-15.526471 -13.69054,-17.106942 -4.2263,-1.221132 -6.1666,-1.434506 -7.83386,-1.52795 z m 27.50589,9.565218 c 2.59417,-0.04982 5.64966,0.54457 8.00198,1.729343 2.93161,1.946293 4.71521,3.962485 4.71521,8.227707 0.12089,2.005164 -0.45527,3.72923 -1.4198,5.482318 -1.00433,1.676325 -4.04242,4.894422 -5.96073,6.735386 -5.60823,4.009325 -7.61514,5.18469 -12.07039,7.235487 l -0.0714,-28.58207 c 2.37436,-0.447826 4.50414,-0.812912 6.80507,-0.828171 z" />
  <path
     style="fill:#ffffff;fill-rule:nonzero;stroke:none;stroke-width:1.14739752"
     inkscape:connector-curvature="0"
     id="path3622"
     d="m 263.26262,39.411309 c -20.14186,0.126768 -36.59237,14.79842 -36.59237,33.991048 0,19.192628 18.15987,35.678813 40.14187,35.182503 l 21.36026,0.0602 V 91.828639 h -4.03431 c -1.26749,3.170695 -7.18745,6.272029 -11.4797,6.272029 -2.26194,0 -7.95627,-0.307481 -10.06274,-1.045258 -3.71904,-1.302572 -9.02567,-3.172408 -13.63969,-10.927271 -1.23646,-2.718485 -4.71805,-9.343089 -3.94015,-19.006772 0.37674,-5.824287 4.0763,-13.094806 10.71494,-16.387315 2.89472,-1.435674 5.80882,-1.671238 10.92544,-1.20692 3.67335,0.333345 7.32329,2.916207 8.59766,6.016156 0.98561,2.397541 0.70238,5.31908 -0.45789,6.983232 -0.0827,0.118727 -0.0846,0.223879 -0.0673,0.337218 0.0131,0.08627 0.12494,0.230008 0.12494,0.230008 l 2.02185,1.579469 c 0,0 0.5756,0.399937 1.24797,0.382029 0.39048,-0.01044 1.08851,-0.434019 1.08851,-0.434019 l 11.5466,-12.117398 C 283.61994,42.871626 270.93398,39.411309 263.26262,39.411309 Z" />
  <path
     style="fill:#ffffff;fill-rule:nonzero;stroke:none;stroke-width:1.14739752"
     inkscape:connector-curvature="0"
     id="path3624"
     d="m 381.09463,41.329042 0.0222,4.838971 c 0,0 2.11592,0.569623 2.95607,1.234007 0.96048,0.759555 0.71821,2.107517 0.71821,2.107517 0,0 -7.67553,47.698517 -7.84218,48.583826 -0.17927,0.95241 -0.43314,3.177557 -1.77197,4.414697 -1.33126,1.23015 -2.86734,1.47803 -2.86734,1.47803 l -0.0221,4.77242 h 21.49113 v -4.45906 c 0,0 -1.74918,-0.13526 -2.91447,-1.30056 -1.16531,-1.1653 -0.82915,-4.367556 -0.82915,-4.367556 l 5.28821,-36.035776 10.75666,31.013784 13.10266,0.180248 10.64295,-33.398607 5.93988,38.417826 c 0,0 0.71646,2.888111 -0.82914,4.370321 -1.18944,1.14066 -2.91171,1.30056 -2.91171,1.30056 v 4.45907 h 24.89644 l -0.0222,-4.77242 c 0,0 -0.5573,0.19082 -1.97164,-0.94284 -0.83175,-0.66668 -1.2322,-3.639756 -1.41148,-4.592166 -0.16664,-0.885308 -6.87439,-48.880541 -6.87439,-48.880541 0,0 -0.11668,-1.981802 0.97057,-2.994894 0.78363,-0.730183 2.3876,-1.422574 2.3876,-1.422574 l -0.0388,-3.951595 -25.8476,-0.0305 -9.45887,27.24521 -9.02074,-27.24521 -24.5387,-0.02218 z" />
  <path
     style="fill:#ffffff;fill-rule:nonzero;stroke:none;stroke-width:1.14739752"
     inkscape:connector-curvature="0"
     id="path3629"
     d="m 480.48949,31.02439 c -6.83693,0 -12.37934,5.542421 -12.37934,12.379343 0,6.836923 5.54241,12.379344 12.37934,12.379344 6.83692,0 12.37935,-5.542421 12.37935,-12.379344 0,-6.836922 -5.54243,-12.379343 -12.37935,-12.379343 z m 0,1.664309 c 5.91773,0 10.71503,4.797301 10.71503,10.715034 0,5.917733 -4.7973,10.715033 -10.71503,10.715033 -5.91774,0 -10.71504,-4.7973 -10.71504,-10.715033 0,-5.917733 4.7973,-10.715034 10.71504,-10.715034 z" />
  <path
     style="fill:#ffffff;fill-rule:nonzero;stroke:none;stroke-width:1.14739752"
     inkscape:connector-curvature="0"
     id="rect3634"
     d="m 474.11657,35.927142 v 14.655566 h 3.09195 v -5.080227 h 4.10688 l 3.39977,5.144007 3.47185,-0.02218 -4.14847,-5.451815 c 1.70332,-0.695457 2.90892,-2.410791 2.90892,-4.420241 0,-2.590698 -2.00361,-4.697639 -4.4951,-4.753006 v -0.06101 h -5.24385 v -0.0111 h -3.09195 z m 3.09195,2.958843 5.14401,0.02773 c 1.04494,0.177419 1.73876,0.284819 1.71056,1.854774 -0.0302,1.680009 -1.32375,1.903877 -1.71056,1.916573 l -5.14401,0.06101 z" />
  <g
     id="g48"
     transform="matrix(0.86694402,0,0,0.86694402,52.964629,-104.2693)">
    <path
       d="m 98.368707,123.56449 -3.911684,9.67624 h 7.837657 z m -1.627486,-2.59162 h 3.269259 l 8.12318,19.44364 h -2.99801 l -1.94157,-4.98788 h -9.607908 l -1.941568,4.98788 h -3.040839 z"
       style="font-style:normal;font-weight:normal;font-size:40px;line-height:125%;font-family:sans-serif;letter-spacing:0px;word-spacing:0px;fill:#ffffff;fill-opacity:1;stroke:#ffffff;stroke-width:0.69800001;stroke-linecap:butt;stroke-linejoin:miter;stroke-miterlimit:4;stroke-dasharray:none;stroke-opacity:1"
       id="path36"
       inkscape:connector-curvature="0" />
    <path
       d="m 149.94112,131.30027 q 0.92796,0.28651 1.79881,1.22418 0.88512,0.93767 1.77025,2.5786 l 2.92663,5.31346 h -3.09794 l -2.72677,-4.98788 q -1.05644,-1.95348 -2.05577,-2.59162 -0.98506,-0.63814 -2.69821,-0.63814 h -3.14077 v 8.21764 h -2.88381 v -19.44364 h 6.50997 q 3.65472,0 5.45352,1.39348 1.79881,1.39349 1.79881,4.2065 0,1.83627 -0.94223,3.04743 -0.92796,1.21115 -2.71249,1.67999 z m -7.22378,-8.16555 v 6.9023 h 3.62617 q 2.08433,0 3.14077,-0.87256 1.07072,-0.88557 1.07072,-2.59161 0,-1.70604 -1.07072,-2.56557 -1.05644,-0.87256 -3.14077,-0.87256 z"
       style="font-style:normal;font-weight:normal;font-size:40px;line-height:125%;font-family:sans-serif;letter-spacing:0px;word-spacing:0px;fill:#ffffff;fill-opacity:1;stroke:#ffffff;stroke-width:0.69800001;stroke-linecap:butt;stroke-linejoin:miter;stroke-miterlimit:4;stroke-dasharray:none;stroke-opacity:1"
       id="path38"
       inkscape:connector-curvature="0" />
    <path
       d="m 200.69712,122.47054 v 2.77394 q -1.45617,-1.2372 -3.11221,-1.84929 -1.64177,-0.61209 -3.49768,-0.61209 -3.65472,0 -5.59629,2.04464 -1.94157,2.03162 -1.94157,5.88649 0,3.84184 1.94157,5.88649 1.94157,2.03161 5.59629,2.03161 1.85591,0 3.49768,-0.61209 1.65604,-0.61209 3.11221,-1.84929 v 2.74789 q -1.51328,0.93768 -3.21215,1.40651 -1.6846,0.46884 -3.56906,0.46884 -4.83964,0 -7.62351,-2.69581 -2.78386,-2.70882 -2.78386,-7.38415 0,-4.68836 2.78386,-7.38416 2.78387,-2.70883 7.62351,-2.70883 1.91302,0 3.59761,0.46884 1.69888,0.45581 3.1836,1.38046 z"
       style="font-style:normal;font-weight:normal;font-size:40px;line-height:125%;font-family:sans-serif;letter-spacing:0px;word-spacing:0px;fill:#ffffff;fill-opacity:1;stroke:#ffffff;stroke-width:0.69800001;stroke-linecap:butt;stroke-linejoin:miter;stroke-miterlimit:4;stroke-dasharray:none;stroke-opacity:1"
       id="path40-3"
       inkscape:connector-curvature="0" />
    <path
       d="m 238.86281,123.56449 -3.91168,9.67624 h 7.83765 z m -1.62749,-2.59162 h 3.26926 l 8.12318,19.44364 h -2.998 l -1.94157,-4.98788 h -9.60792 l -1.94157,4.98788 h -3.04083 z"
       style="font-style:normal;font-weight:normal;font-size:40px;line-height:125%;font-family:sans-serif;letter-spacing:0px;word-spacing:0px;fill:#ffffff;fill-opacity:1;stroke:#ffffff;stroke-width:0.69800001;stroke-linecap:butt;stroke-linejoin:miter;stroke-miterlimit:4;stroke-dasharray:none;stroke-opacity:1"
       id="path42"
       inkscape:connector-curvature="0" />
    <path
       d="m 277.21144,123.13472 v 15.11994 h 3.48341 q 4.41135,0 6.45285,-1.82325 2.05578,-1.82325 2.05578,-5.75625 0,-3.90696 -2.05578,-5.71719 -2.0415,-1.82325 -6.45285,-1.82325 z m -2.8838,-2.16185 h 5.92464 q 6.19589,0 9.09396,2.3572 2.89808,2.34418 2.89808,7.34509 0,5.02695 -2.91235,7.38415 -2.91235,2.3572 -9.07969,2.3572 h -5.92464 z"
       style="font-style:normal;font-weight:normal;font-size:40px;line-height:125%;font-family:sans-serif;letter-spacing:0px;word-spacing:0px;fill:#ffffff;fill-opacity:1;stroke:#ffffff;stroke-width:0.69800001;stroke-linecap:butt;stroke-linejoin:miter;stroke-miterlimit:4;stroke-dasharray:none;stroke-opacity:1"
       id="path44"
       inkscape:connector-curvature="0" />
    <path
       d="m 321.42893,120.97287 h 13.47677 v 2.21394 h -10.59297 v 5.75626 h 10.15041 v 2.21394 h -10.15041 v 7.04556 h 10.84994 v 2.21394 h -13.73374 z"
       style="font-style:normal;font-weight:normal;font-size:40px;line-height:125%;font-family:sans-serif;letter-spacing:0px;word-spacing:0px;fill:#ffffff;fill-opacity:1;stroke:#ffffff;stroke-width:0.69800001;stroke-linecap:butt;stroke-linejoin:miter;stroke-miterlimit:4;stroke-dasharray:none;stroke-opacity:1"
       id="path46"
       inkscape:connector-curvature="0" />
  </g>
</svg>
