<?xml version="1.0" encoding="UTF-8" standalone="no"?>
<svg
   xmlns:dc="http://purl.org/dc/elements/1.1/"
   xmlns:cc="http://creativecommons.org/ns#"
   xmlns:rdf="http://www.w3.org/1999/02/22-rdf-syntax-ns#"
   xmlns:svg="http://www.w3.org/2000/svg"
   xmlns="http://www.w3.org/2000/svg"
   xmlns:sodipodi="http://sodipodi.sourceforge.net/DTD/sodipodi-0.dtd"
   xmlns:inkscape="http://www.inkscape.org/namespaces/inkscape"
   width="499.47964"
   height="151.43176"
   viewBox="0 0 374.60972 113.57382"
   version="1.1"
   id="svg12"
   sodipodi:docname="castlevania.svg"
   inkscape:version="1.0.1 (1.0.1+r73)">
  <metadata
     id="metadata16">
    <rdf:RDF>
      <cc:Work
         rdf:about="">
        <dc:format>image/svg+xml</dc:format>
        <dc:type
           rdf:resource="http://purl.org/dc/dcmitype/StillImage" />
        <dc:title />
      </cc:Work>
    </rdf:RDF>
  </metadata>
  <sodipodi:namedview
     pagecolor="#ffffff"
     bordercolor="#666666"
     borderopacity="1"
     objecttolerance="10"
     gridtolerance="10"
     guidetolerance="10"
     inkscape:pageopacity="0"
     inkscape:pageshadow="2"
     inkscape:window-width="1366"
     inkscape:window-height="740"
     id="namedview14"
     showgrid="false"
     units="px"
     inkscape:pagecheckerboard="true"
     inkscape:zoom="0.74909941"
     inkscape:cx="372.6293"
     inkscape:cy="103.65572"
     inkscape:window-x="0"
     inkscape:window-y="0"
     inkscape:window-maximized="1"
     inkscape:current-layer="svg12"
     inkscape:document-rotation="0" />
  <defs
     id="defs5">
    <clipPath
       id="clip1">
      <path
         d="M 0,0 H 557.19922 V 169 H 0 Z m 0,0"
         id="path2"
         inkscape:connector-curvature="0" />
    </clipPath>
  </defs>
  <g
     id="surface1"
     transform="matrix(0.67240742,0,0,0.67240742,-0.05515845,0)"
     style="fill:#ffffff">
    <g
       clip-path="url(#clip1)"
       id="g9"
       style="clip-rule:nonzero;fill:#ffffff">
      <path
         style="fill:#ffffff;fill-opacity:1;fill-rule:evenodd;stroke:none"
         d="m 160.59766,151.65625 h -0.29688 v -0.47266 h 0.29688 z M 84.980469,-0.0703125 c 29.343751,0 55.289061,14.9492185 70.546871,37.5820315 -13.55859,-15.488281 -33.72656,-25.335938 -56.191402,-25.335938 -40.660157,0 -73.824219,32.269532 -73.824219,71.835938 0,39.562501 33.164062,71.832031 73.824219,71.832031 23.730472,0 44.902342,-10.99219 58.421872,-28.01172 -14.875,24.57422 -41.94922,41.07422 -72.777341,41.07422 -46.757813,0 -84.8984377,-37.95313 -84.8984377,-84.488281 0,-46.53125 38.1406247,-84.4882815 84.8984377,-84.4882815 z M 83.511719,116.60547 c -2.191406,2.20312 -4.972656,5.19531 -8.34375,8.91797 -3.375,3.7539 -6.070313,6.875 -8.09375,9.39453 -4.953125,-4.51563 -8.117188,-8.47656 -9.550781,-11.88672 -1.410157,-3.41016 -2.128907,-8.78906 -2.128907,-16.18359 V 87.644531 c 0,-6.007812 0.699219,-10.128906 2.109375,-12.410156 1.390625,-2.28125 4.742188,-4.773437 10.074219,-7.503906 4.636719,-2.410156 8.007813,-4.300781 10.097656,-5.714844 2.085938,-1.417969 5.140625,-3.910156 9.167969,-7.503906 3.203125,4.355469 6.300781,7.738281 9.273438,10.152344 2.949218,2.414062 6.871092,4.746093 11.718752,6.976562 v 1.023438 c -2.76172,0.601562 -4.48828,1.234375 -5.1875,1.914062 -0.73438,0.816406 -1.19922,1.996094 -1.34766,3.570313 -0.16797,1.574218 -0.29297,6.164062 -0.3789,13.796875 v 14.902347 c 0,4.03906 0.46484,7.23828 1.41406,9.60156 0.90625,2.30859 2.04297,3.46094 3.41406,3.46094 0.73438,0 1.9375,-0.70703 3.625,-2.15235 l 0.63281,0.91797 c -0.46484,0.52735 -1.96093,1.9961 -4.51172,4.38281 -5.691402,5.90235 -9.230465,9.83594 -10.624996,11.85938 -7.039063,-5.35547 -10.832031,-11.44141 -11.359375,-18.3125 z m 0,-40.109376 C 80.183594,74.183594 76.9375,70.59375 73.796875,65.738281 l -0.550781,0.316407 v 38.640622 c 0,5.37891 0.296875,9.28516 0.867187,11.75391 0.210938,0.91797 0.609375,1.73047 1.199219,2.38672 0.613281,0.65625 1.203125,0.99609 1.835938,0.99609 0.90625,0 3.035156,-1.78515 6.363281,-5.3789 z m 57.722651,9.472656 15.04297,8.09375 v 28.04297 c -3.63672,0.36328 -6.94531,1.27344 -9.87109,2.72656 -2.95313,1.45703 -6.30078,3.95703 -10.00781,7.46094 -3.21485,-1.95703 -6.01172,-3.32031 -8.36328,-4.07031 -2.375,-0.75 -4.85938,-1.13672 -7.51953,-1.13672 -4.0625,0 -7.67969,1.27343 -10.85157,3.79687 -1.17578,0.9336 -2.01953,1.41016 -2.52734,1.41016 -0.48828,0 -0.95313,-0.25 -1.44141,-0.72656 -0.46875,-0.5 -0.71093,-0.98047 -0.71093,-1.48047 0,-0.52344 0.46484,-1.25 1.375,-2.13672 0.51171,-0.52344 1.39843,-1.54688 2.66406,-3.07031 l 5.89844,-7.52735 8.36718,-11.41797 -14.19922,-7.843746 V 73.234375 c 4.45704,-1.410156 7.96485,-3.003906 10.49219,-4.753906 2.53125,-1.75 4.96875,-4.160156 7.32031,-7.230469 5.54688,2.410156 10.00782,4.09375 13.37891,5.070313 2.44141,0.660156 4.74609,1 6.96875,1 2.41797,0 4.30078,-0.546875 5.65625,-1.636719 1.35156,-1.09375 2.01953,-2.230469 2.01953,-3.433594 0,-0.796875 -0.44531,-1.59375 -1.30859,-2.390625 -1.6875,-1.566406 -2.53125,-3.066406 -2.53125,-4.546875 0,-1.363281 0.3789,-2.476562 1.10937,-3.296875 0.73438,-0.820312 1.55469,-1.226562 2.46485,-1.226562 1.21875,0 2.30468,0.566406 3.28125,1.703125 0.97656,1.136718 1.46484,2.636718 1.46484,4.503906 0,1.910156 -0.39844,3.773437 -1.17578,5.59375 -0.77735,1.820312 -2.26172,4.183594 -4.48047,7.074219 z m -19.01171,4.59375 8.89453,4.730469 14.15625,-19.308594 c -2.88282,0.84375 -5.41407,1.273438 -7.51953,1.273438 -5.32422,0 -10.51953,-1.820313 -15.53125,-5.457032 z m 11.17968,6.070313 -15.66015,21.515627 c 1.90625,-0.66016 3.67969,-1.16016 5.32422,-1.45703 1.64062,-0.31641 3.125,-0.47657 4.48047,-0.47657 4.99218,0 10.16015,1.6836 15.53124,5.07032 V 101.98047 Z M 194.69141,78.5 h -12.85938 v 32.40234 c 0,2.5 0.46484,4.42969 1.41406,5.78907 0.94922,1.35547 2.29688,2.02343 4.02735,2.02343 1.89453,0 4.25781,-1.28515 7.10156,-3.83593 l 0.69531,1.23828 c -7.125,5.60156 -13.97265,11.86719 -20.52734,18.79687 -1.4336,-2.85937 -3.73047,-5.6914 -6.8711,-8.52734 -3.14062,-2.83594 -6.34375,-4.95703 -9.58984,-6.36328 v -1.23828 l 1.05078,0.12109 c 0.52735,0.0937 0.97266,0.14063 1.28906,0.14063 2.84375,0 4.25391,-2.11719 4.25391,-6.33594 V 78.5 h -7.90234 v -1.191406 c 5.4375,-3.429688 10.01172,-8.074219 13.76562,-13.886719 3.75,-5.8125 7.28906,-13.769531 10.6211,-23.917969 h 1.34765 c 0,0.925782 -0.10547,3.808594 -0.29297,8.644532 -0.043,1.027343 -0.16797,5.957031 -0.38281,14.796875 v 6.621093 h 12.85938 z m 35.83203,-45.914062 v 1.21875 c -3.83594,0.539062 -6.38672,1.464843 -7.67578,2.78125 -1.07422,1.191406 -1.83204,2.65625 -2.29688,4.410156 -0.44141,1.730469 -0.67187,4.042969 -0.67187,6.945312 v 61.484374 c 0,6.41016 1.53906,9.625 4.63671,9.625 1.45313,0 3.45704,-1 6.00782,-2.99609 l 0.67187,1.4375 c -8.55469,6.50781 -15.02734,12.33203 -19.41015,17.42578 -5.01563,-7.92188 -10.45313,-13.23438 -16.29297,-16.01172 l 0.4414,-1.41406 c 1.17969,0.55859 2.12891,0.85156 2.82422,0.85156 1.20313,0 2.00391,-0.53516 2.38281,-1.60937 0.40235,-1.07032 0.58985,-3.21485 0.58985,-6.45704 V 62.734375 c -0.043,-10.480469 -2.14844,-19.351562 -6.30078,-26.636719 l 1.11718,-0.585937 c 2.67579,4.824219 4.40625,9.429687 5.1836,13.867187 4.61719,-10.894531 14.20703,-16.5 28.79297,-16.792968 z m 32.89843,19.929687 13.40625,26.523438 -27.10546,21.117187 c 1.17968,4.35547 3.18359,8.05469 5.98437,11.07031 3.375,3.69922 6.89453,5.53516 10.55859,5.53516 3.58594,0 7.42188,-1.83594 11.55079,-5.53516 l 0.55078,1.23438 c -1.35157,1.1289 -4.04688,3.48828 -8.09375,7.08203 -6.26172,5.58594 -9.96875,8.94531 -11.17188,10.125 -1.20312,1.18359 -2.78125,2.9414 -4.76172,5.25 -8.05468,-4.46094 -13.61718,-9.15625 -16.67187,-14.08984 -1.73047,-2.85938 -2.97266,-6.94922 -3.75391,-12.25 -0.77734,-5.30079 -1.17969,-12.566411 -1.17969,-21.773442 0,-4.773438 0.33594,-8.578125 0.99219,-11.386719 0.65235,-2.804688 1.76953,-5.113281 3.32813,-6.925781 1.37109,-1.574219 2.78125,-2.859375 4.30078,-3.804688 1.49609,-0.941406 6.11328,-3.433594 13.84765,-7.476562 z m -13.69921,10.441406 c -0.37891,4.460938 -0.57032,13.039063 -0.57032,25.761719 0,1.441406 0.0859,4.433594 0.25391,9 l 11.97266,-9.3125 z m 34.49218,8.839844 c -4.87109,-2.859375 -7.29297,-7.5 -7.29297,-13.902344 0,-4.773437 1.47657,-8.867187 4.44532,-12.304687 3.12109,-3.644531 7.3164,-5.457031 12.58593,-5.457031 1.07422,0 2.37891,0.132812 3.89844,0.394531 v 1.679687 c -1.6875,-0.234375 -3.14062,-0.367187 -4.38281,-0.367187 -2.23828,0 -3.96484,0.472656 -5.23047,1.417969 -1.24219,0.941406 -1.875,2.253906 -1.875,3.882812 0,1.125 0.27344,1.941406 0.80078,2.410156 0.54688,0.5 1.91797,1.234375 4.15235,2.207032 3.85937,1.625 6.42968,3.59375 7.65234,5.875 1.24219,2.28125 1.91797,6.296875 2.04297,12.015625 1.30859,-1.285157 3.98437,-3.59375 8.03125,-6.980469 l 6.97656,-5.925781 c 2.33984,-1.996094 3.8125,-3.308594 4.44531,-3.910157 1.03516,1.574219 2.15235,3.070313 3.39453,4.460938 2.59375,2.960937 4.23438,5.558594 4.9336,7.765625 0.69531,2.203125 1.05078,5.925781 1.05078,11.199219 v 25.683597 c 0,5.82422 -0.56641,9.78515 -1.72656,11.85547 -1.16016,2.10156 -3.77344,3.80468 -7.83985,5.19531 -4.53125,1.54687 -8.60156,3.69922 -12.22656,6.50781 -3.625,2.77734 -6.49219,5.92578 -8.59766,9.41797 -7.69531,-9.39453 -14.98828,-15.53125 -21.89843,-18.46875 v -0.83984 c 0.69531,-0.21094 1.16015,-0.31641 1.41015,-0.36719 2.17188,-0.62891 3.60547,-1.41797 4.25782,-2.38672 0.65234,-0.97266 0.99218,-2.80859 0.99218,-5.45703 z m 16.79688,37.199215 c 3.58203,3.28125 7.08203,7.32032 10.49609,12.07032 V 76.257813 c 0,-6.007813 -1.30469,-8.996094 -3.89844,-8.996094 -0.90625,0 -1.96093,0.496094 -3.20312,1.46875 l -3.39453,2.699219 z m 59.21875,7.60938 c -2.19141,2.20312 -4.97656,5.19531 -8.34766,8.91797 -3.37109,3.7539 -6.07031,6.875 -8.09375,9.39453 -4.95312,-4.51563 -8.11328,-8.47656 -9.54687,-11.88672 -1.41407,-3.41016 -2.12891,-8.78906 -2.12891,-16.18359 V 87.644531 c 0,-6.007812 0.69531,-10.128906 2.10547,-12.410156 1.39062,-2.28125 4.74609,-4.773437 10.07422,-7.503906 4.64062,-2.410156 8.01172,-4.300781 10.09765,-5.714844 2.08594,-1.417969 5.14063,-3.910156 9.16797,-7.503906 3.20313,4.355469 6.30078,7.738281 9.27344,10.152344 2.95313,2.414062 6.87109,4.746093 11.71875,6.976562 v 1.023438 c -2.76172,0.601562 -4.48828,1.234375 -5.18359,1.914062 -0.73828,0.816406 -1.20313,1.996094 -1.34766,3.570313 -0.16797,1.574218 -0.29687,6.164062 -0.38281,13.796875 v 14.902347 c 0,4.03906 0.46484,7.23828 1.41406,9.60156 0.90625,2.30859 2.04297,3.46094 3.41406,3.46094 0.73828,0 1.9375,-0.70703 3.625,-2.15235 l 0.63282,0.91797 c -0.46485,0.52735 -1.96094,1.9961 -4.51172,4.38281 -5.69141,5.90235 -9.23047,9.83594 -10.6211,11.85938 -7.03906,-5.35547 -10.83203,-11.44141 -11.35937,-18.3125 z m 0,-40.109376 c -3.33203,-2.3125 -6.57813,-5.902344 -9.71875,-10.757813 l -0.54688,0.316407 v 38.640622 c 0,5.37891 0.29688,9.28516 0.86328,11.75391 0.21094,0.91797 0.61329,1.73047 1.20313,2.38672 0.60937,0.65625 1.19922,0.99609 1.83203,0.99609 0.90625,0 3.03516,-1.78515 6.36719,-5.3789 z m 52.33203,-5.300781 18.92578,-18.441407 c 1.64453,3.277344 3.81641,6.320313 6.53516,9.128907 2.71875,2.832031 5.54297,4.984375 8.51562,6.453125 v 1.390625 c -3.71094,-0.210938 -5.64844,1.3125 -5.85937,4.539062 V 110.625 c 0,2.04688 0.39843,3.77734 1.17968,5.16797 0.78125,1.41406 1.75,2.125 2.88672,2.125 0.60938,0 1.91797,-0.68359 3.89844,-2.07422 l 0.61328,1.39063 c -0.78125,0.70703 -2.82422,2.64843 -6.11328,5.82421 -4.61719,4.35547 -8.49219,8.31641 -11.65625,11.85938 -3.75,-2.99219 -6.21484,-5.80078 -7.41797,-8.47656 -1.20312,-2.64844 -1.79297,-6.63672 -1.79297,-11.91016 V 76.652344 c 0,-3.015625 -0.25,-5.0625 -0.73437,-6.140625 -0.50781,-1.074219 -1.45703,-1.625 -2.84766,-1.625 -1.24219,0 -2.46484,0.65625 -3.66797,1.992187 l -2.46484,2.703125 v 38.562499 c 0,2.67578 0.33594,4.56641 1.01172,5.66797 0.69531,1.10156 1.96094,1.86328 3.8125,2.25391 v 1 c -4.97266,2.04297 -10.03125,6.66015 -15.13281,13.85156 -4.61329,-7.58203 -9.27344,-12.33203 -14.01563,-14.21875 v -1.3125 c 2.50781,-0.10547 4.15234,-0.71094 4.91406,-1.8125 0.75782,-1.10156 1.13672,-3.41016 1.13672,-6.94922 V 78.566406 c 0,-3.015625 -0.40234,-5.378906 -1.20312,-7.054687 -0.80078,-1.707031 -1.89453,-2.546875 -3.3086,-2.546875 -1.22265,0 -2.58984,0.734375 -4.0664,2.230469 l -0.92969,-1.390625 1.05469,-1.074219 c 8.51562,-8.710938 13.46875,-14.035156 14.88281,-15.976563 6.99609,4.25 10.9375,10.386719 11.84375,18.441407 z m 52.25,-17.210938 c 0.60937,0.710938 1.19922,1.417969 1.78906,2.152344 5.10156,6.402344 9.76172,10.574219 13.95313,12.515625 v 1.230469 c -2.33594,0.578125 -3.94141,1.101562 -4.76172,1.628906 -0.82031,0.496094 -1.41016,1.285156 -1.79297,2.359375 -0.48438,1.707031 -0.73828,7.058594 -0.73828,16.082031 0,12.093755 0.3164,19.882815 0.92969,23.347655 0.57031,3.27735 1.89453,4.92969 3.96093,4.92969 1.09766,0 2.61328,-0.91797 4.51172,-2.78125 l 0.80078,1.23437 c -0.82031,0.91797 -2.65625,2.78125 -5.5,5.53516 -6.05078,6.05859 -10.11718,10.28516 -12.16406,12.69922 -4.08594,-3.59766 -6.78516,-6.875 -8.09375,-9.83984 -1.32422,-2.99219 -1.98047,-7.23829 -1.98047,-12.77735 V 76.964844 c 0,-4.71875 -1.09375,-7.082031 -3.26562,-7.082031 -0.58985,0 -1.01172,0.105468 -1.3086,0.316406 -0.27343,0.210937 -1.01172,0.945312 -2.14843,2.230469 l -0.86329,-1.3125 c 1.30469,-1.496094 5.33204,-5.640625 12.03516,-12.460938 2.21094,-2.203125 3.77344,-3.753906 4.63672,-4.671875 z m -5.01563,-5.246094 C 457.45703,43.625 456.27734,39.636719 456.27734,36.75 c 0,-3.171875 0.80078,-5.691406 2.40235,-7.605469 1.62109,-1.890625 3.76953,-2.835937 6.49218,-2.835937 2.40235,0 4.40235,0.972656 6.06641,2.914062 1.64453,1.964844 2.46875,4.328125 2.46875,7.160157 0,4.09375 -1.83594,7.265625 -5.50391,9.523437 -1.51562,0.96875 -3.26562,1.703125 -5.24609,2.230469 -2.02344,0.523437 -3.07812,0.707031 -3.16016,0.601562 z m 54.85938,67.867189 c -2.19141,2.20312 -4.97266,5.19531 -8.34375,8.91797 -3.375,3.7539 -6.07031,6.875 -8.09375,9.39453 -4.95313,-4.51563 -8.11719,-8.47656 -9.54688,-11.88672 -1.41406,-3.41016 -2.1289,-8.78906 -2.1289,-16.18359 V 87.644531 c 0,-6.007812 0.69531,-10.128906 2.10547,-12.410156 1.39062,-2.28125 4.74218,-4.773437 10.07422,-7.503906 4.63671,-2.410156 8.01171,-4.300781 10.09765,-5.714844 2.08594,-1.417969 5.14063,-3.910156 9.16797,-7.503906 3.20313,4.355469 6.30078,7.738281 9.27344,10.152344 2.94922,2.414062 6.87109,4.746093 11.71875,6.976562 v 1.023438 c -2.76172,0.601562 -4.48828,1.234375 -5.1836,1.914062 -0.73828,0.816406 -1.20312,1.996094 -1.35156,3.570313 -0.16797,1.574218 -0.29297,6.164062 -0.3789,13.796875 v 14.902347 c 0,4.03906 0.46484,7.23828 1.41406,9.60156 0.90625,2.30859 2.04297,3.46094 3.41406,3.46094 0.73828,0 1.9375,-0.70703 3.625,-2.15235 l 0.63281,0.91797 c -0.46484,0.52735 -1.96093,1.9961 -4.51172,4.38281 -5.6914,5.90235 -9.23046,9.83594 -10.62109,11.85938 -7.03906,-5.35547 -10.83594,-11.44141 -11.36328,-18.3125 z m 0,-40.109376 c -3.32813,-2.3125 -6.57422,-5.902344 -9.71484,-10.757813 l -0.54688,0.316407 v 38.640622 c 0,5.37891 0.29297,9.28516 0.86328,11.75391 0.21094,0.91797 0.60938,1.73047 1.20313,2.38672 0.60937,0.65625 1.19922,0.99609 1.83203,0.99609 0.90625,0 3.03515,-1.78515 6.36328,-5.3789 z m 42.5625,46.218746 c 0,1.94922 -0.68359,3.61329 -2.0625,4.98829 -1.37891,1.38281 -3.03906,2.07421 -4.98828,2.07421 -1.94922,0 -3.61328,-0.6914 -4.9961,-2.07421 -1.3789,-1.375 -2.0664,-3.03907 -2.0664,-4.98829 0,-1.95312 0.6875,-3.61718 2.0664,-4.99609 1.38282,-1.37891 3.04688,-2.06641 4.9961,-2.06641 1.94922,0 3.60937,0.6875 4.98828,2.06641 1.37891,1.37891 2.0625,3.04297 2.0625,4.99609 z m -0.78516,0 c 0,-1.73437 -0.60937,-3.21484 -1.83593,-4.4414 -1.22266,-1.22266 -2.70313,-1.83985 -4.44141,-1.83985 -1.73047,0 -3.20703,0.61719 -4.42969,1.83985 -1.22265,1.22656 -1.83984,2.70703 -1.83984,4.4414 0,1.72657 0.61719,3.20704 1.83984,4.4336 1.22266,1.23047 2.69922,1.83984 4.42969,1.83984 1.73828,0 3.21875,-0.60937 4.44141,-1.83984 1.22656,-1.22656 1.83593,-2.70703 1.83593,-4.4336 z m -8.89062,-4.05078 h 2.95312 c 1.06641,0 1.83203,0.19532 2.29688,0.58594 0.46484,0.39063 0.69922,0.87891 0.69922,1.46484 0,0.61329 -0.2461,1.13282 -0.72657,1.55079 -0.35546,0.29687 -0.86718,0.49609 -1.54296,0.59765 0.30468,0.14453 0.51953,0.27344 0.64453,0.38672 0.125,0.11328 0.32422,0.35156 0.58984,0.71484 0.26172,0.36329 0.46484,0.67188 0.60547,0.91407 l 0.77344,1.38672 H 552.625 l -0.73828,-1.25782 c -0.5625,-0.97265 -0.99219,-1.55859 -1.28516,-1.74609 -0.29687,-0.19531 -0.77734,-0.28906 -1.44922,-0.28906 h -0.625 v 3.29297 h -0.98437 z m 0.98437,0.80469 v 2.64844 h 0.96485 c 1.05859,0 1.76172,-0.0547 2.10547,-0.16016 0.2539,-0.0703 0.46093,-0.22265 0.625,-0.44922 0.16015,-0.22265 0.24218,-0.46093 0.24218,-0.70703 0,-0.36328 -0.14062,-0.67969 -0.41406,-0.9414 -0.27344,-0.25782 -0.96875,-0.39063 -2.08203,-0.39063 z m 0,0"
         id="path7"
         inkscape:connector-curvature="0" />
    </g>
  </g>
</svg>
