<?xml version="1.0" encoding="UTF-8" standalone="no"?>
<svg
   xmlns:dc="http://purl.org/dc/elements/1.1/"
   xmlns:cc="http://creativecommons.org/ns#"
   xmlns:rdf="http://www.w3.org/1999/02/22-rdf-syntax-ns#"
   xmlns:svg="http://www.w3.org/2000/svg"
   xmlns="http://www.w3.org/2000/svg"
   xmlns:sodipodi="http://sodipodi.sourceforge.net/DTD/sodipodi-0.dtd"
   xmlns:inkscape="http://www.inkscape.org/namespaces/inkscape"
   width="488.09787"
   height="106.65375"
   viewBox="0 0 129.14255 28.218805"
   version="1.1"
   id="svg8"
   sodipodi:docname="cavestory.svg"
   inkscape:version="1.0.1 (1.0.1+r73)">
  <defs
     id="defs2" />
  <sodipodi:namedview
     id="base"
     pagecolor="#ffffff"
     bordercolor="#666666"
     borderopacity="1.0"
     inkscape:pageopacity="0.0"
     inkscape:pageshadow="2"
     inkscape:zoom="1.5958577"
     inkscape:cx="208.84482"
     inkscape:cy="50.841731"
     inkscape:document-units="mm"
     inkscape:current-layer="layer1"
     showgrid="false"
     units="px"
     inkscape:pagecheckerboard="true"
     inkscape:window-width="1366"
     inkscape:window-height="740"
     inkscape:window-x="0"
     inkscape:window-y="0"
     inkscape:window-maximized="1"
     inkscape:document-rotation="0" />
  <metadata
     id="metadata5">
    <rdf:RDF>
      <cc:Work
         rdf:about="">
        <dc:format>image/svg+xml</dc:format>
        <dc:type
           rdf:resource="http://purl.org/dc/dcmitype/StillImage" />
        <dc:title />
      </cc:Work>
    </rdf:RDF>
  </metadata>
  <g
     inkscape:label="Layer 1"
     inkscape:groupmode="layer"
     id="layer1"
     transform="translate(-2.3353855,-256.85252)">
    <path
       inkscape:connector-curvature="0"
       id="path3149"
       d="m 118.76531,284.31341 c -0.31644,-0.6945 -0.17539,-1.23057 1.01984,-3.87602 1.55812,-3.44868 1.5587,-4.04944 0.005,-5.81844 -0.53279,-0.60678 -0.96868,-1.4235 -0.96868,-1.81493 0,-1.08269 -2.52252,-5.20498 -3.18505,-5.20498 -0.30885,0 -0.83741,0.51362 -1.17648,1.14325 -0.35867,0.66599 -0.93125,1.20778 -1.37159,1.29781 -2.57982,0.52744 -2.37816,0.32601 -2.37816,2.37532 0,1.59007 0.12655,2.00285 0.81113,2.64599 1.00607,0.94515 1.03457,1.78829 0.0811,2.40042 -0.87595,0.56237 -7.29765,0.66848 -7.94493,0.13128 -0.62187,-0.51611 -0.49492,-1.31674 0.40145,-2.5317 0.72371,-0.98094 0.81113,-1.41418 0.81113,-4.02012 0,-2.62947 -0.0855,-3.04413 -0.85793,-4.15868 -0.83019,-1.19798 -0.83905,-1.25884 -0.27416,-1.88303 0.368,-0.40664 0.95489,-0.62871 1.58794,-0.60085 0.79666,0.0351 0.84921,0.0738 0.25432,0.18738 -1.08959,0.20808 -1.22861,0.9802 -0.34565,1.91967 0.7091,0.75449 0.77105,1.08979 0.77105,4.17314 0,2.98755 -0.0811,3.46258 -0.74486,4.36124 -0.40968,0.55467 -0.66387,1.13956 -0.56488,1.29974 0.23095,0.37367 5.96278,0.36513 6.19415,-0.009 0.0958,-0.1551 -0.13877,-0.70544 -0.5214,-1.22297 -0.57056,-0.77171 -0.69394,-1.38477 -0.68601,-3.40865 0.005,-1.35724 0.099,-2.61231 0.20828,-2.78903 0.11165,-0.18066 0.79812,-0.23915 1.56807,-0.13362 1.35895,0.18626 1.37787,0.17476 2.45885,-1.49348 0.72895,-1.12496 0.98163,-1.78892 0.76371,-2.00683 -0.17911,-0.17913 -1.47445,-0.37051 -2.87853,-0.4253 -1.40407,-0.0548 -3.13688,-0.13082 -3.85068,-0.16893 l -1.29779,-0.0693 1.13557,-0.27682 c 0.62457,-0.15226 1.40704,-0.1954 1.73883,-0.0959 0.33179,0.0995 2.37583,0.17444 4.54231,0.1665 3.59832,-0.0132 7.57422,0.42423 5.39908,0.59397 -0.44612,0.0348 -1.43163,0.0388 -2.19003,0.008 -1.06941,-0.0424 -1.37892,0.0617 -1.37892,0.46355 0,0.28496 0.34723,0.67634 0.77163,0.86972 0.4296,0.19574 1.09969,1.05201 1.51177,1.93179 0.83962,1.79264 1.68955,2.69645 3.00405,3.19449 0.82952,0.31428 0.88857,0.44403 0.68818,1.5122 -0.12832,0.68399 -0.0486,1.68535 0.19227,2.41524 0.37701,1.14232 0.33442,1.43205 -0.5082,3.45727 -0.50584,1.21575 -1.11018,2.49846 -1.34299,2.85045 -1.0746,1.62467 -0.16023,2.21545 2.20501,1.42467 1.6419,-0.54895 1.80129,-0.82409 0.98233,-1.69582 l -0.72839,-0.77535 0.83003,-2.04272 c 0.45651,-1.12349 0.83003,-2.26155 0.83003,-2.52902 0,-0.26746 0.20057,-0.7168 0.44572,-0.99853 0.24514,-0.28172 1.26093,-2.33599 2.2573,-4.56505 1.19285,-2.6686 2.04242,-4.15582 2.48745,-4.3544 0.88205,-0.39358 0.70179,-1.23724 -0.32541,-1.52306 -0.75579,-0.21029 -0.7413,-0.22736 0.2185,-0.25756 0.56536,-0.0178 1.25887,0.0562 1.54114,0.16459 0.86567,0.33219 0.60442,1.71492 -0.49954,2.64384 -0.90093,0.75808 -1.62231,2.08919 -4.26288,7.8661 -0.28549,0.62456 -0.90892,2.13261 -1.38541,3.35122 l -0.86633,2.21564 0.6814,0.72531 c 1.35812,1.44567 0.81084,2.19218 -2.30082,3.13842 -2.66812,0.81137 -3.12279,0.78858 -3.56346,-0.17859 z m 2.32783,-11.84762 c 0,-0.17845 -0.0644,-0.32444 -0.14307,-0.32444 -0.0787,0 -0.23332,0.14599 -0.3436,0.32444 -0.1103,0.17845 -0.0459,0.32445 0.14307,0.32445 0.18898,0 0.3436,-0.146 0.3436,-0.32445 z m -110.136593,6.62227 c -0.705867,-0.25846 -1.5912935,-0.75918 -1.9676145,-1.11272 -0.401534,-0.37722 -1.134214,-0.64278 -1.773391,-0.64278 -1.579242,0 -3.692455,-2.27539 -4.412021,-4.75061 -0.842167,-2.89695 -0.528002,-6.63646 0.780914,-9.29524 0.957375,-1.94471 1.168653,-2.15723 2.804872,-2.82132 0.973229,-0.395 1.957747,-0.94503 2.187818,-1.22228 0.230071,-0.27726 1.344438,-0.91965 2.4763725,-1.42753 2.155221,-0.96701 5.32431,-1.25712 6.930178,-0.63442 2.706302,1.04942 3.512062,1.49922 3.690002,2.05988 0.11079,0.34905 0.0981,1.93988 -0.0281,3.5352 -0.23536,2.97378 -0.734996,4.07125 -1.687138,3.70588 -0.259258,-0.0995 -0.608571,-0.18089 -0.776251,-0.18089 -0.167681,0 -0.744496,-0.92034 -1.281812,-2.0452 -1.458005,-3.05231 -3.014017,-3.76442 -5.478389,-2.5072 -1.618905,0.82591 -2.5878575,2.42966 -3.0310025,5.01672 -0.297518,1.73689 -0.264915,2.40014 0.200224,4.07315 0.7110785,2.5576 1.3174355,3.46073 2.8476445,4.24139 2.106373,1.07459 3.454895,0.80792 5.793107,-1.1456 1.10645,-0.92442 1.649984,-1.16773 2.371891,-1.06178 0.739055,0.10848 1.046116,-0.0397 1.456326,-0.70252 0.2859,-0.46199 0.82136,-1.18437 1.18992,-1.60532 l 0.67012,-0.76534 -0.73001,-0.49092 c -0.90307,-0.6073 -0.92639,-1.54574 -0.0732,-2.94513 0.67308,-1.10398 2.8112,-2.31329 4.113,-2.32628 0.7086,-0.007 3.6194,0.69262 4.73245,1.13757 0.35494,0.14189 0.79842,0.034 1.14332,-0.27811 0.43566,-0.39426 1.33007,-0.51082 3.94377,-0.51392 1.95957,-0.002 3.55862,0.14397 3.80455,0.34807 0.23332,0.19364 0.42423,0.9633 0.42423,1.71036 0,0.74706 0.2032,1.63619 0.45157,1.97584 0.38366,0.52471 0.53002,0.55245 0.97335,0.18452 0.65499,-0.5436 0.67106,-1.44805 0.0351,-1.97584 -0.26767,-0.22215 -0.48668,-0.66016 -0.48668,-0.97335 0,-1.0696 0.79366,-1.3278 3.78021,-1.2298 2.62088,0.086 2.89894,0.15782 3.19131,0.82423 0.40965,0.93375 0.7922,0.91799 2.76576,-0.11396 1.24949,-0.65334 1.92603,-0.80792 2.9952,-0.68437 2.12388,0.24544 4.78292,1.31284 5.46611,2.1942 0.94259,1.21603 1.37106,3.07849 0.90748,3.94469 -0.21189,0.39592 -0.41148,1.34951 -0.44354,2.1191 -0.0398,0.95507 -0.36169,1.83417 -1.01408,2.76935 -1.97741,2.83459 -4.94103,3.26436 -8.72605,1.2654 -1.86827,-0.98668 -2.40472,-1.45789 -3.02403,-2.65631 -0.64257,-1.2434 -0.72404,-1.75782 -0.55605,-3.51108 0.12198,-1.27305 0.079,-1.98138 -0.11306,-1.8627 -0.17043,0.10534 -0.85801,1.17574 -1.52794,2.37868 -3.37524,6.06057 -3.67367,6.51474 -4.44099,6.75827 -0.93269,0.29603 -1.73941,-0.72397 -4.74602,-6.00072 -1.32188,-2.31997 -2.5994,-4.29332 -2.83895,-4.38524 -0.34859,-0.13377 -0.43553,0.56561 -0.43553,3.50358 0,3.28502 0.0697,3.73377 0.66319,4.27089 0.84909,0.76842 0.69836,1.80361 -0.33874,2.32643 -1.03336,0.52094 -6.44713,0.54704 -8.23585,0.0397 -0.73449,-0.20831 -1.81081,-0.72741 -2.39181,-1.15353 -1.12865,-0.82778 -1.70146,-0.75031 -1.70146,0.23011 0,2.17491 -6.874381,3.74743 -10.53024,2.40881 z m 7.294725,-1.43373 c 2.298886,-0.68464 2.572139,-0.99993 2.582183,-2.97935 0.006,-1.18107 -0.545177,-1.43922 -1.398503,-0.65499 -1.52272,1.39942 -2.950584,2.01231 -4.690938,2.01355 -3.178336,0.002 -4.7452355,-1.16953 -5.7715315,-4.31612 -0.302272,-0.92675 -0.678788,-1.84901 -0.836703,-2.04945 -0.157914,-0.20043 -0.221036,-0.56544 -0.140271,-0.81112 0.08076,-0.24568 0.313198,-1.49168 0.516515,-2.76887 0.301833,-1.89606 0.579999,-2.56792 1.5158665,-3.66126 3.038451,-3.54975 6.870759,-3.35504 8.890226,0.45169 0.430693,0.81187 0.947581,1.47612 1.148642,1.47612 0.448133,0 0.771127,-1.50417 0.771127,-3.59112 0,-1.70298 -0.731285,-2.57345 -2.161974,-2.57345 -0.395882,0 -0.81002,-0.14599 -0.920308,-0.32444 -0.310036,-0.50165 -4.091907,-0.38326 -5.744487,0.17983 -0.813999,0.27736 -2.0677405,1.00737 -2.7860915,1.62225 -0.718351,0.61488 -1.590071,1.11797 -1.937154,1.11797 -1.084076,0 -2.227727,1.41961 -2.990697,3.71233 -0.990491,2.97643 -0.825545,6.39575 0.426845,8.84848 0.919701,1.80118 1.619816,2.36392 2.940994,2.36392 0.451642,0 1.316749,0.43513 1.922461,0.96695 0.6057115,0.53182 1.4503085,1.10658 1.8768815,1.27723 1.311762,0.52481 4.488652,0.3843 6.786917,-0.30015 z m 15.378845,-1.257 c 0.0973,-0.15747 -0.11306,-0.655 -0.46753,-1.10564 -0.54247,-0.68962 -0.64561,-1.32474 -0.6516,-4.01265 -0.008,-3.56233 -0.74571,-5.94699 -1.84261,-5.95588 -0.321,-0.003 -1.20016,-0.21951 -1.95369,-0.48203 -1.03075,-0.35909 -1.59319,-0.39298 -2.27115,-0.13685 -1.20862,0.45661 -2.6856,1.90357 -2.6856,2.63101 0,0.77821 0.72823,0.74792 1.46003,-0.0607 0.88013,-0.97253 2.9095,-0.88977 3.58839,0.14635 0.87779,1.33968 0.39655,1.9008 -2.17811,2.53963 -2.60858,0.64725 -3.16951,1.15729 -3.18444,2.89554 -0.0167,1.94942 0.56093,2.80883 2.23462,3.32447 1.64119,0.50563 7.67157,0.67002 7.95169,0.21676 z m -6.40393,-1.7103 c -1.12501,-0.62958 -0.41057,-3.51904 0.87012,-3.51904 1.04306,0 1.53277,1.64962 0.86186,2.90322 -0.4121,0.77 -1.05072,0.99708 -1.73198,0.61582 z m 30.23097,1.53252 c 1.12915,-0.58391 2.77825,-2.92359 2.52528,-3.58279 -0.26482,-0.69011 -0.73672,-0.61799 -1.30978,0.20017 -0.71272,1.01755 -2.18125,1.89543 -3.17477,1.89789 -0.47704,10e-4 -1.32421,-0.3823 -1.8826,-0.85215 -0.84656,-0.71232 -0.99896,-1.04928 -0.91714,-2.02781 l 0.0981,-1.17354 3.69703,-0.16222 c 4.44898,-0.19522 4.73865,-0.41212 3.62445,-2.71376 -0.51847,-1.07101 -0.97873,-1.56641 -1.59202,-1.7136 -0.47448,-0.11386 -1.40439,-0.47832 -2.06646,-0.80988 -1.52503,-0.76376 -2.55797,-0.76372 -3.53813,1.6e-4 -0.42557,0.33166 -1.25975,0.85235 -1.85373,1.15708 -0.69049,0.35426 -1.30221,1.0436 -1.69624,1.91148 -1.32565,2.91982 -0.47136,5.50396 2.39461,7.24345 1.90468,1.15603 4.18156,1.40629 5.69137,0.62553 z m -4.38596,-8.14592 c -0.23387,-0.60946 0.7566,-1.7724 1.50956,-1.7724 0.75295,0 1.74343,1.16294 1.50956,1.7724 -0.12873,0.33546 -0.62296,0.49877 -1.50956,0.49877 -0.8866,0 -1.38083,-0.16331 -1.50956,-0.49877 z m -10.75616,7.50902 c 0.2328,-0.42711 1.31759,-2.43465 2.41065,-4.4612 1.09306,-2.02655 2.39574,-4.17149 2.89485,-4.76652 1.1297,-1.34683 0.77643,-1.66388 -1.86191,-1.67098 -2.12507,-0.006 -2.56365,0.38703 -1.5898,1.42366 l 0.68739,0.73168 -1.08185,2.03311 c -0.59501,1.1182 -1.21754,2.04312 -1.3834,2.05537 -0.16586,0.0122 -0.77708,-0.84121 -1.35828,-1.89657 -0.80529,-1.4623 -1.01408,-2.16973 -0.87753,-2.97331 0.0986,-0.57995 0.0631,-1.07402 -0.0789,-1.09793 -0.14192,-0.0238 -1.47933,-0.0652 -2.97203,-0.0916 -3.18505,-0.0566 -3.58167,0.30046 -2.02485,1.82255 0.56273,0.55016 2.19668,2.95061 3.63098,5.33432 1.43432,2.3837 2.73689,4.33402 2.89461,4.33402 0.15773,0 0.47724,-0.34946 0.71004,-0.77656 z m 14.59244,-2.03157 c 0.32633,-0.29532 0.59333,-0.80634 0.59333,-1.13557 0,-0.50851 -0.26573,-0.59862 -1.76532,-0.59862 -2.07709,0 -2.47242,0.40278 -1.45662,1.48406 0.86212,0.91768 1.79309,1.00627 2.62861,0.25013 z m -29.66708,-4.71709 c 0.49478,-0.41062 0.23406,-0.9105 -0.47489,-0.9105 -0.5869,0 -1.70976,0.90843 -1.70976,1.38326 0,0.36326 1.59257,0.0186 2.18465,-0.47276 z m 39.02799,10.33805 c -1.90781,-0.49836 -2.26775,-1.2631 -2.27378,-4.83093 -0.005,-2.76969 0.0157,-2.84438 0.96857,-3.54887 0.53534,-0.39578 0.97335,-0.85147 0.97335,-1.0126 0,-0.16114 -0.50885,-0.88746 -1.13078,-1.61404 -1.35247,-1.58006 -1.67119,-2.96561 -1.15779,-5.03324 0.30167,-1.21493 0.79061,-1.92725 2.34101,-3.41057 1.07783,-1.0312 2.47381,-2.08971 3.10218,-2.35226 1.48905,-0.62217 4.69756,-0.56669 6.73377,0.11644 2.11892,0.71086 2.52239,1.48131 2.32264,4.43518 -0.19039,2.81549 -0.4038,3.37451 -1.43838,3.76785 l -0.81907,0.31141 1.00565,1.04266 c 1.24991,1.29589 1.62345,2.26664 1.86678,4.85132 0.21768,2.31218 -0.41742,4.0151 -1.74003,4.66563 -0.41606,0.20465 -1.21907,0.81823 -1.78448,1.36353 -0.5654,0.5453 -1.43902,1.14641 -1.94137,1.33581 -1.18546,0.44693 -5.17266,0.3974 -7.02827,-0.0873 z m 8.21657,-2.20031 c 0.7338,-0.73379 1.66826,-1.46119 2.07658,-1.61644 1.1536,-0.43859 1.46259,-1.69013 1.06903,-4.33009 -0.30243,-2.02877 -0.47665,-2.41059 -1.52418,-3.34046 -0.6505,-0.57743 -2.36531,-1.61666 -3.8107,-2.3094 -3.29401,-1.57874 -3.9146,-2.22285 -3.62566,-3.76305 0.16951,-0.90357 0.40068,-1.18647 1.09301,-1.3376 0.93556,-0.20423 2.16372,-0.5836 3.02855,-0.93551 0.38953,-0.1585 0.87946,0.2801 1.86559,1.67018 0.73553,1.03681 1.33732,2.14063 1.33732,2.45292 0,0.31229 0.21901,0.5678 0.48668,0.5678 0.3511,0 0.49583,-0.38413 0.51955,-1.37892 0.0559,-2.34381 -0.0794,-3.63312 -0.42538,-4.0533 -0.83314,-1.01193 -5.92832,-1.51227 -7.41258,-0.7279 -0.43607,0.23045 -1.58137,1.23575 -2.5451,2.23402 -1.41263,1.46324 -1.78155,2.07504 -1.90345,3.15654 -0.34141,3.02896 0.76869,4.24598 6.05332,6.63639 1.93941,0.87725 2.48197,1.28638 2.83894,2.14074 0.62737,1.50149 0.55389,2.09785 -0.38294,3.10818 -0.68985,0.74398 -1.09286,0.88893 -2.47155,0.88893 -1.48092,0 -1.77451,-0.12722 -2.90693,-1.25963 -0.69279,-0.6928 -1.25963,-1.55687 -1.25963,-1.92017 0,-1.00291 -0.34298,-1.68696 -0.84584,-1.68696 -0.34516,0 -0.45091,0.55584 -0.44753,2.35227 0.003,1.29375 0.0967,2.69673 0.20935,3.11775 0.30111,1.12487 1.83892,1.64072 4.93449,1.6552 l 2.71489,0.0128 z m -2.24481,-2.09573 c 0.60178,-0.60179 0.59252,-0.52827 0.19753,-1.56716 -0.2041,-0.53682 -0.98786,-1.16247 -2.2619,-1.8056 -1.07228,-0.54128 -2.09975,-0.98415 -2.28329,-0.98415 -0.18354,0 -0.3337,0.57893 -0.3337,1.28651 0,1.78468 1.55106,3.58025 3.09271,3.58025 0.59334,0 1.30823,-0.22944 1.58865,-0.50985 z m 2.56787,-10.60258 c -0.23182,-1.24139 -1.49264,-2.70813 -2.55774,-2.97546 -1.06441,-0.26714 -2.42034,0.32195 -2.42034,1.05154 0,0.78316 0.78968,1.4827 2.60144,2.30452 2.15675,0.97828 2.61664,0.90464 2.37664,-0.3806 z m 8.72997,13.41001 c -2.90837,-0.35286 -3.60749,-1.71114 -3.63595,-7.06408 -0.008,-1.46166 -0.16013,-2.7478 -0.33858,-2.85809 -0.75488,-0.46654 -0.19233,-1.65192 1.85862,-3.91642 1.46258,-1.61487 2.42022,-2.41036 2.90166,-2.41036 0.78433,0 1.72873,1.10292 1.72873,2.0189 0,0.64526 0.69707,0.7474 1.64359,0.24084 0.94316,-0.50477 1.92537,0.14661 1.92537,1.27688 0,1.24097 -1.01288,2.44348 -2.58953,3.07432 l -1.30388,0.52172 0.005,2.35489 c 0.007,3.24051 0.20869,3.45945 2.01534,2.18601 1.3752,-0.96935 1.4845,-1.15841 1.81188,-3.13412 0.3986,-2.40545 1.5486,-4.19481 2.91476,-4.53524 0.48271,-0.1203 1.46166,-0.48322 2.17545,-0.80652 1.93167,-0.87492 3.15055,-0.7455 5.736403,0.6091 1.90262,0.99669 2.4169,1.44198 2.90412,2.5145 0.74747,1.64541 0.77135,4.322 0.0528,5.91572 -0.63937,1.41807 -1.98793,3.01218 -2.54818,3.01218 -0.21161,0 -1.070123,0.30319 -1.907823,0.67374 -1.14561,0.50676 -1.849,0.61866 -2.8381,0.45156 -1.50373,-0.25405 -4.64259,-1.57188 -4.95746,-2.08137 -0.36728,-0.59426 -1.19152,-0.3717 -1.88406,0.50871 -0.71536,0.90943 -2.44002,1.77442 -3.38853,1.69949 -0.31801,-0.0251 -1.34472,-0.13869 -2.28157,-0.25235 z m 4.0664,-1.50615 c 1.02081,-0.715 1.84589,-2.39017 1.39789,-2.83817 -0.25026,-0.25025 -0.6097,-0.10108 -1.26206,0.52396 -1.00135,0.95937 -2.04862,1.12519 -2.63604,0.4174 -0.37721,-0.45452 -0.44882,-1.44403 -0.38372,-5.30252 0.0329,-1.94829 0.0666,-2.02782 0.86145,-2.02782 1.14934,0 2.65518,-0.83845 2.90189,-1.61579 0.33695,-1.06161 -0.0768,-1.30601 -1.32665,-0.78377 -1.62635,0.67953 -2.40248,0.35329 -2.40248,-1.00988 0,-1.4289 -0.59297,-1.76928 -1.35702,-0.77893 -0.33166,0.42991 -1.03424,1.22333 -1.56127,1.76317 l -0.95824,0.98152 0.27897,4.7296 c 0.32473,5.50519 0.59066,6.27032 2.08436,5.99716 0.56459,-0.10325 1.24553,-0.0464 1.5132,0.12639 0.73006,0.47121 2.03596,0.38766 2.84972,-0.18232 z m 12.00748,-0.54809 c 1.788103,-0.89482 2.203813,-1.27044 2.745813,-2.48097 0.79948,-1.78561 0.65874,-4.50674 -0.30029,-5.80598 -0.93989,-1.27331 -3.880103,-2.71622 -5.503813,-2.70101 -1.9799,0.0185 -4.3109,1.48113 -5.24859,3.29323 -0.60186,1.16311 -0.71125,1.75656 -0.55433,3.00741 0.33986,2.70916 1.06401,3.78258 3.25086,4.81882 1.07068,0.50735 2.29692,0.92257 2.72496,0.92271 0.42804,1.4e-4 1.72647,-0.47425 2.88539,-1.05421 z m -4.43874,-1.5051 c -0.82489,-0.82489 -1.19448,-4.04749 -0.66637,-5.81019 0.28572,-0.95366 0.65331,-1.42895 1.3181,-1.70432 2.12208,-0.87899 3.12961,0.28114 3.43792,3.9586 0.17672,2.1079 0.14944,2.21471 -0.81087,3.17502 -1.1456,1.1456 -2.37164,1.28803 -3.27878,0.38089 z m 2.5676,-0.86829 c 0.739,-1.94373 0.10244,-5.33231 -1.00171,-5.33231 -0.86848,0 -1.27748,0.9868 -1.27748,3.08227 0,1.00493 0.15114,2.10956 0.33587,2.45472 0.48514,0.90649 1.56406,0.79286 1.94332,-0.20468 z m 25.121343,-4.20299 c -1.08553,-1.94114 -1.16181,-2.2295 -0.77891,-2.94494 0.48354,-0.90352 0.22414,-1.30165 -0.99002,-1.51946 -0.61088,-0.10959 -0.52057,-0.15642 0.36583,-0.18969 1.45742,-0.0547 2.03731,0.56302 1.75122,1.86555 -0.22131,1.00759 0.53276,2.95701 1.14382,2.95701 0.17828,0 0.47042,-0.38471 0.64919,-0.85491 0.24625,-0.64768 0.20498,-1.03816 -0.17026,-1.61084 -1.04254,-1.59114 -0.26296,-2.43893 2.16009,-2.34908 1.31249,0.0486 1.32908,0.0603 0.26467,0.18536 -1.61364,0.18961 -1.8759,0.58647 -1.00217,1.51651 l 0.74125,0.78904 -1.08623,2.03493 c -0.59742,1.11921 -1.25697,2.08835 -1.46566,2.15365 -0.20869,0.0653 -0.92095,-0.84962 -1.58282,-2.03313 z"
       style="fill:#ffffff;stroke-width:0.324451" />
  </g>
</svg>
