<?xml version="1.0" encoding="UTF-8" standalone="no"?>
<!-- Created with Inkscape (http://www.inkscape.org/) -->

<svg
   xmlns:dc="http://purl.org/dc/elements/1.1/"
   xmlns:cc="http://creativecommons.org/ns#"
   xmlns:rdf="http://www.w3.org/1999/02/22-rdf-syntax-ns#"
   xmlns:svg="http://www.w3.org/2000/svg"
   xmlns="http://www.w3.org/2000/svg"
   xmlns:sodipodi="http://sodipodi.sourceforge.net/DTD/sodipodi-0.dtd"
   xmlns:inkscape="http://www.inkscape.org/namespaces/inkscape"
   width="500"
   height="200"
   viewBox="0 0 132.29166 52.916668"
   version="1.1"
   id="svg8"
   sodipodi:docname="cdi_.svg"
   inkscape:version="0.92.5 (2060ec1f9f, 2020-04-08)">
  <defs
     id="defs2" />
  <sodipodi:namedview
     id="base"
     pagecolor="#ffffff"
     bordercolor="#666666"
     borderopacity="1.0"
     inkscape:pageopacity="0.0"
     inkscape:pageshadow="2"
     inkscape:zoom="0.79296875"
     inkscape:cx="196.4739"
     inkscape:cy="35.227613"
     inkscape:document-units="mm"
     inkscape:current-layer="layer1"
     showgrid="false"
     units="px"
     inkscape:pagecheckerboard="true"
     inkscape:object-nodes="false"
     inkscape:snap-others="false"
     inkscape:snap-nodes="false"
     inkscape:window-width="1366"
     inkscape:window-height="739"
     inkscape:window-x="0"
     inkscape:window-y="0"
     inkscape:window-maximized="1" />
  <metadata
     id="metadata5">
    <rdf:RDF>
      <cc:Work
         rdf:about="">
        <dc:format>image/svg+xml</dc:format>
        <dc:type
           rdf:resource="http://purl.org/dc/dcmitype/StillImage" />
        <dc:title></dc:title>
      </cc:Work>
    </rdf:RDF>
  </metadata>
  <g
     inkscape:label="Layer 1"
     inkscape:groupmode="layer"
     id="layer1"
     transform="translate(0,-244.08332)">
    <path
       inkscape:connector-curvature="0"
       id="path1031"
       style="fill:#ffffff;stroke-width:1"
       d="m 30.384263,271.16409 c -8.686425,-0.009 -10.60922,0.11594 -14.312191,0.92986 -7.1938434,1.5812 -12.538762,4.65467 -13.1810197,7.57884 -0.9755555,4.44168 6.8380547,8.58309 18.8151467,9.97284 13.217304,1.53365 29.218234,-1.07978 33.873143,-5.53251 2.047837,-1.95888 1.653687,-2.29366 -2.702028,-2.29366 -3.115568,0 -4.198898,0.17547 -5.377857,0.87107 -0.812008,0.47911 -3.031878,1.30154 -4.933056,1.82713 -3.015684,0.83369 -4.569766,0.95703 -12.182138,0.96693 -6.799301,0.009 -9.376909,-0.15203 -11.674709,-0.73047 -3.49584,-0.88002 -7.086326,-2.61124 -7.465729,-3.59994 -1.4429202,-3.7602 11.014975,-6.81987 23.799328,-5.84502 5.615273,0.42818 9.198671,1.25031 12.363638,2.83623 1.888172,0.94617 2.668162,1.079 5.667359,0.96757 2.861578,-0.10634 3.502109,-0.26025 3.618471,-0.86979 0.185531,-0.97184 -2.761724,-3.09998 -5.958142,-4.30164 -6.042608,-2.27165 -9.667725,-2.76631 -20.350216,-2.77744 z m 93.653297,1.11839 c -1.10214,0.0174 -1.6919,0.16623 -1.87953,0.46205 -0.53884,0.84952 -0.44642,3.15607 0.15019,3.75268 0.59296,0.59297 4.63018,0.70029 5.50375,0.14635 0.37074,-0.23508 0.52465,-1.04333 0.43585,-2.28407 l -0.1374,-1.9198 -2.79597,-0.13165 c -0.48543,-0.0229 -0.90951,-0.0314 -1.27689,-0.0256 z m -47.589068,0.004 c -1.533343,9.9e-4 -3.20982,0.011 -5.053842,0.0281 l -13.524846,0.12526 -0.119507,8.06966 c -0.107923,7.29816 -0.04537,8.12541 0.654418,8.65634 1.151428,0.87357 26.762731,0.44456 32.079246,-0.53747 6.307134,-1.16502 10.384229,-3.07481 11.844709,-5.54721 2.02526,-3.42852 -0.5816,-6.93241 -6.562076,-8.82058 -4.877712,-1.54002 -8.584693,-1.97988 -19.318102,-1.97412 z m -11.380094,3.75715 11.015819,0.22816 c 11.200843,0.23201 14.177661,0.6134 17.227035,2.20802 1.742963,0.91144 2.27949,2.59013 1.206582,3.77568 -0.915252,1.01136 -3.806214,1.99593 -7.635725,2.60041 v -6.5e-4 c -1.559697,0.24619 -7.105674,0.44995 -12.324655,0.45119 l -9.489056,0.004 v -4.63333 z m 59.988502,1.41365 c -3.12692,0 -3.27209,0.2704 -3.27209,6.10129 0,4.49051 0.10353,5.25894 0.76306,5.64308 1.06044,0.61764 4.62257,0.5821 5.25707,-0.0524 0.34786,-0.34786 0.52405,-2.24543 0.52405,-5.65585 0,-5.75773 -0.15085,-6.03611 -3.27209,-6.03611 z m -95.085482,0.055 c -2.431997,0.008 -4.832621,0.49833 -6.022049,1.57213 -1.680936,1.51754 -0.686624,2.97418 2.641956,3.87027 5.085465,1.36908 10.555041,-0.0393 10.555041,-2.718 0,-1.72116 -3.620492,-2.73684 -7.174948,-2.7244 z m -0.194281,2.17543 c 0.195814,-0.004 0.398613,-0.004 0.607126,0 2.119788,0.0456 4.077528,0.54858 3.485541,0.89535 -0.667773,0.39114 -4.19666,0.69038 -5.776003,0.48953 -2.675941,-0.34032 -1.253861,-1.32256 1.683336,-1.38488 z m 75.217773,3.89647 c 0.0212,0.0576 0.0431,0.10383 0.0658,0.12654 0.0712,0.0712 0.1646,0.12574 0.29206,0.16616 -0.11937,-0.0974 -0.23854,-0.19523 -0.35788,-0.2927 z" />
    <path
       id="path1029"
       style="fill:#ffffff;stroke-width:1"
       d="m 106.66883,277.9971 c -0.74082,-0.0281 -1.21009,0.14419 -1.4516,0.52548 -0.67793,1.07038 -0.59627,3.38872 0.1454,4.13037 0.34864,0.34863 1.13784,0.52498 1.75345,0.39194 0.61562,-0.13303 3.42332,-0.62286 6.23943,-1.08808 2.8161,-0.46526 5.32421,-1.04923 5.57329,-1.29832 0.38894,-0.38897 -2.10217,-0.94837 -11.4271,-2.56658 -0.30903,-0.0537 -0.58593,-0.0854 -0.83287,-0.0947 z"
       inkscape:connector-curvature="0" />
    <g
       id="g1084"
       transform="matrix(0.80210338,0,0,0.80210338,-9.1891806,49.970652)"
       style="stroke-width:1.2467221">
      <path
         style="fill:#ffffff;stroke-width:1.2467221"
         d="m 23.297171,273.90556 c -0.03775,-0.003 -0.180594,-0.0136 -0.317433,-0.0236 -0.500112,-0.0363 -1.151902,-0.15019 -1.679082,-0.29335 -0.964997,-0.26206 -1.917426,-0.69379 -2.773341,-1.25713 -0.248436,-0.16352 -0.688737,-0.49606 -0.935348,-0.70643 -0.256424,-0.21875 -0.804145,-0.76659 -1.028206,-1.02843 -1.364824,-1.59497 -2.157019,-3.55063 -2.283252,-5.63657 -0.01097,-0.18129 -0.01716,-3.14488 -0.01721,-8.24037 l -8e-5,-7.95726 h 9.540129 9.54013 l -1.72e-4,7.88862 c 0,5.0011 -0.0063,8.00796 -0.01716,8.21464 -0.07061,1.34837 -0.38511,2.55104 -0.980418,3.74913 -0.477864,0.96173 -1.037196,1.7417 -1.790591,2.49692 -0.357754,0.35862 -0.611119,0.58031 -0.995194,0.87079 -1.517291,1.14753 -3.267411,1.79715 -5.164417,1.91695 -0.249454,0.0158 -0.930444,0.0195 -1.098438,0.006 z m 1.227966,-0.5208 c 1.823168,-0.15282 3.510729,-0.82377 4.923358,-1.95746 1.776996,-1.42612 2.952224,-3.46572 3.286461,-5.70367 0.107698,-0.7211 0.09988,-0.0852 0.106134,-8.63334 0.0052,-7.1046 0.0033,-7.77778 -0.02172,-7.80283 -0.02504,-0.025 -0.804657,-0.0274 -9.013966,-0.0274 -7.164197,0 -8.992502,0.004 -9.015896,0.0215 -0.02763,0.0202 -0.02904,0.47915 -0.02406,7.83715 0.0058,8.54493 -0.0016,7.90747 0.09939,8.58783 0.245112,1.6513 0.936789,3.18611 2.022055,4.4869 0.208881,0.25036 0.672069,0.72468 0.928144,0.95044 1.561661,1.37683 3.49101,2.15795 5.593673,2.26467 0.203487,0.0103 0.882229,-0.004 1.116436,-0.0237 z m -1.162391,-0.49768 c -1.685428,-0.0862 -3.28104,-0.66044 -4.64769,-1.67277 -0.628939,-0.46588 -1.279301,-1.11609 -1.749739,-1.74933 -0.896883,-1.20726 -1.455749,-2.62223 -1.629853,-4.12656 -0.06362,-0.54966 -0.06362,-1.35754 -2e-5,-1.91403 0.283075,-2.4767 1.621274,-4.69655 3.667993,-6.08459 0.362387,-0.24576 0.603325,-0.38633 1.010595,-0.58961 0.896696,-0.44757 1.818886,-0.71959 2.854176,-0.84189 0.320936,-0.0379 1.203728,-0.0528 1.554111,-0.0263 1.123866,0.0852 2.129149,0.35816 3.130161,0.84986 0.85409,0.41953 1.523237,0.8948 2.210721,1.57021 0.730272,0.71745 1.276049,1.47513 1.711751,2.37636 0.541423,1.1199 0.810767,2.2566 0.834235,3.52067 0.0099,0.53376 -0.0069,0.87201 -0.06559,1.3186 -0.324957,2.47347 -1.768444,4.72399 -3.888576,6.06261 -1.487766,0.93936 -3.23455,1.39658 -4.992277,1.30674 z m 1.281367,-0.53941 c 0.438169,-0.0533 1.036684,-0.16684 1.076134,-0.20422 0.01634,-0.0155 -0.0029,-0.17413 -0.08854,-0.72942 -0.06018,-0.39029 -0.115966,-0.71617 -0.123963,-0.72416 -0.008,-0.008 -0.353425,-0.067 -0.767617,-0.1311 -0.610707,-0.0945 -0.756583,-0.12213 -0.771621,-0.1461 -0.01363,-0.0217 -0.01288,-0.0352 0.0028,-0.0509 0.01209,-0.0121 0.346345,-0.0716 0.770148,-0.137 0.411834,-0.0636 0.756362,-0.12322 0.765618,-0.13247 0.01636,-0.0164 0.233926,-1.38853 0.234754,-1.48058 2.65e-4,-0.0294 -0.01043,-0.0491 -0.02961,-0.0545 -0.01652,-0.005 -0.2192,-0.0293 -0.45041,-0.0548 -0.231211,-0.0255 -0.430036,-0.054 -0.441832,-0.0634 -0.02449,-0.0195 -0.02909,-0.10909 -0.0063,-0.12316 0.0083,-0.005 0.597071,-0.0762 1.308336,-0.1578 0.711265,-0.0817 1.299945,-0.15451 1.308177,-0.16191 0.01278,-0.0115 0.283161,-2.27099 0.284745,-2.37953 4.51e-4,-0.0309 -0.02533,-0.0514 -0.132417,-0.1051 -0.507696,-0.25461 -1.062869,-0.392 -1.654462,-0.40943 -0.749204,-0.0221 -1.417722,0.13991 -2.074665,0.50271 -0.724842,0.4003 -1.309397,0.55952 -2.05758,0.56044 -0.347087,4.3e-4 -0.523263,-0.0157 -0.815029,-0.0745 -0.452722,-0.0913 -0.770826,-0.21461 -1.321205,-0.5122 -0.394045,-0.21306 -0.792352,-0.35007 -1.252571,-0.43086 -0.262645,-0.0461 -0.767052,-0.0629 -1.039742,-0.0347 -0.46443,0.0481 -0.963581,0.19108 -1.354614,0.388 -0.141283,0.0712 -0.137382,0.0519 -0.07547,0.37271 0.478299,2.47853 2.071801,4.5763 4.322945,5.69096 0.915719,0.45342 1.862773,0.71406 2.934105,0.80749 0.270532,0.0236 1.180929,0.008 1.449893,-0.0244 z m 1.647217,-0.35593 c 0.409932,-0.13379 0.897227,-0.34137 1.248281,-0.53175 0.150906,-0.0818 0.19313,-0.11258 0.193475,-0.14084 2.42e-4,-0.0199 -0.02058,-0.22036 -0.04626,-0.4455 -0.03142,-0.2754 -0.05374,-0.41205 -0.06819,-0.4176 -0.02603,-0.01 -1.50254,0.21541 -1.51922,0.23192 -0.0167,0.0165 -0.22292,1.37739 -0.212743,1.40391 0.0097,0.0252 0.05507,0.014 0.404663,-0.10014 z m 1.919581,-0.92932 c 0.706595,-0.46818 1.33127,-1.04498 1.87954,-1.7355 0.170732,-0.21503 0.55914,-0.78803 0.55914,-0.82488 0,-0.0135 -0.01351,-0.0245 -0.03003,-0.0244 -0.108825,0 -2.398699,0.27702 -2.413619,0.2919 -0.01943,0.0194 -0.305497,2.41168 -0.292865,2.44915 0.004,0.0118 0.01228,0.0214 0.01846,0.0214 0.0062,0 0.131893,-0.0799 0.279371,-0.17767 z m -0.599092,-0.79607 c -0.0014,-0.12949 -0.166506,-1.48242 -0.18286,-1.49878 -0.01966,-0.0197 -1.543745,-0.19845 -1.559277,-0.18292 -0.01281,0.0128 0.213229,1.49211 0.230759,1.51016 0.01262,0.013 1.376898,0.23114 1.464908,0.23423 0.0435,0.002 0.04713,-0.003 0.04647,-0.0627 z m 3.1932,-2.01613 c 0.06221,-0.0996 0.303117,-0.59934 0.394996,-0.81931 0.123661,-0.29606 0.291406,-0.81121 0.374345,-1.14962 0.07269,-0.29661 0.115782,-0.5266 0.101361,-0.54102 -0.0047,-0.005 -0.06953,0.0195 -0.144121,0.0538 -1.095845,0.5034 -2.320124,0.50207 -3.385996,-0.004 -0.107893,-0.0512 -0.201561,-0.0872 -0.208152,-0.0799 -0.01645,0.0181 0.246684,2.26489 0.267511,2.28415 0.01232,0.0114 2.34059,0.2954 2.534962,0.30922 0.01706,10e-4 0.04548,-0.0222 0.06509,-0.0536 z m -8.417249,-2.62851 c 0.51277,-0.0813 0.9541,-0.24178 1.509948,-0.549 0.729517,-0.40321 1.630286,-0.56496 2.479404,-0.44524 0.516105,0.0728 0.978753,0.23412 1.492969,0.52069 0.590329,0.32898 1.176196,0.49029 1.85294,0.51016 0.509462,0.015 0.938237,-0.0493 1.412148,-0.21163 0.238738,-0.0818 0.590476,-0.24077 0.623757,-0.28196 0.01104,-0.0137 0.02528,-0.12492 0.03223,-0.25184 0.01473,-0.26894 0.02357,-0.26142 -0.184482,-0.15681 -0.336449,0.16916 -0.771103,0.30539 -1.180765,0.37006 -0.276378,0.0436 -0.908355,0.0433 -1.174746,-5.8e-4 -0.46637,-0.0769 -0.842467,-0.1979 -1.225132,-0.39429 -0.690127,-0.35419 -0.838974,-0.41768 -1.190085,-0.50761 -0.668413,-0.17122 -1.332057,-0.17666 -1.98594,-0.0163 -0.337359,0.0827 -0.708554,0.22945 -0.998485,0.39464 -0.48453,0.27606 -0.99212,0.45245 -1.532394,0.53251 -0.09428,0.014 -0.304787,0.0227 -0.540493,0.0224 -0.433555,-5.4e-4 -0.625142,-0.0232 -1.001367,-0.11835 -0.378617,-0.0958 -0.527752,-0.15831 -1.194922,-0.50098 -1.129632,-0.5802 -2.402668,-0.59783 -3.547521,-0.0491 l -0.22735,0.10896 v 0.17918 c 0,0.20941 0.01221,0.28641 0.04542,0.28641 0.01319,0 0.08669,-0.0315 0.163337,-0.0701 0.364519,-0.18328 0.787998,-0.31133 1.249714,-0.3779 0.186863,-0.0269 0.78848,-0.0272 0.978034,-4.3e-4 0.571186,0.0807 0.910793,0.19442 1.519333,0.50878 0.653529,0.3376 1.004233,0.44867 1.67215,0.52958 0.1343,0.0163 0.787813,-0.005 0.952297,-0.0313 z m -0.07721,-0.99825 c 0.476354,-0.061 0.899712,-0.19522 1.329717,-0.42143 0.437487,-0.23014 0.638439,-0.32164 0.893108,-0.40669 0.479817,-0.16023 0.886482,-0.21862 1.414779,-0.20312 0.700468,0.0206 1.307287,0.19779 1.956457,0.57142 0.354378,0.20396 0.846374,0.37366 1.2865,0.44376 0.830972,0.13233 1.632924,0.0149 2.397902,-0.35123 l 0.210191,-0.10059 -1.71e-4,-0.11679 c -1.49e-4,-0.19125 -0.01957,-0.34844 -0.043,-0.34844 -0.01158,0 -0.101187,0.0379 -0.199131,0.0842 -0.37604,0.17788 -0.782362,0.29869 -1.188586,0.35339 -0.334053,0.045 -0.94586,0.0296 -1.265554,-0.0319 -0.452949,-0.087 -0.848336,-0.23281 -1.279534,-0.47173 -0.532907,-0.29528 -1.046359,-0.46021 -1.615851,-0.51904 -0.27906,-0.0288 -0.794528,-0.0114 -1.065672,0.0361 -0.407846,0.0714 -0.822419,0.21149 -1.173133,0.39648 -0.562974,0.29695 -0.819248,0.40568 -1.164871,0.49421 -0.353048,0.0904 -0.492697,0.1081 -0.924885,0.11702 -0.479848,0.01 -0.702333,-0.0135 -1.103951,-0.11581 -0.38952,-0.0993 -0.568505,-0.17367 -1.123882,-0.46713 -0.665745,-0.35177 -1.268058,-0.49293 -2.012975,-0.47175 -0.485716,0.0138 -0.874859,0.0913 -1.308084,0.26062 -0.21626,0.0845 -0.454878,0.20083 -0.48407,0.23601 -0.02424,0.0292 -0.05343,0.45483 -0.03262,0.47564 0.0084,0.008 0.112391,-0.0326 0.238987,-0.0942 0.391821,-0.19071 0.861647,-0.32276 1.315028,-0.3696 0.268466,-0.0277 0.775577,-0.011 1.039742,0.0344 0.497676,0.0854 0.766217,0.18172 1.389839,0.4983 0.695219,0.35293 1.099743,0.47129 1.784485,0.52215 0.140952,0.0105 0.518329,-0.007 0.729236,-0.0343 z m -0.06518,-0.99289 c 0.460281,-0.0539 0.92101,-0.19047 1.308598,-0.38807 0.12772,-0.0651 0.334752,-0.1705 0.460071,-0.2342 1.086501,-0.55228 2.404551,-0.56924 3.512701,-0.0452 0.08965,0.0424 0.24449,0.12248 0.34408,0.17797 0.582479,0.32452 1.172332,0.48839 1.835518,0.50992 0.622944,0.0202 1.202975,-0.0933 1.766859,-0.3459 0.26265,-0.11765 0.24968,-0.0927 0.19723,-0.37917 -0.453902,-2.47893 -2.076228,-4.62332 -4.341009,-5.73792 -1.484391,-0.73053 -3.146501,-0.98171 -4.775909,-0.72172 -0.309996,0.0495 -0.642366,0.12209 -0.668661,0.14612 -0.01843,0.0168 -0.0036,0.14538 0.08241,0.71381 0.05769,0.3813 0.11123,0.70887 0.118979,0.72794 0.01273,0.0313 0.08314,0.0452 0.732621,0.14439 0.395192,0.0603 0.737835,0.11476 0.761428,0.1209 0.02952,0.008 0.04453,0.0249 0.04814,0.0553 0.0062,0.0521 0.0879,0.0351 -0.858392,0.17875 -0.355986,0.054 -0.656259,0.10381 -0.667273,0.11062 -0.02398,0.0148 -0.258154,1.51111 -0.239574,1.5308 0.007,0.007 0.212658,0.0366 0.45707,0.0649 0.244412,0.0283 0.450877,0.058 0.458812,0.0659 0.0079,0.008 0.01193,0.0405 0.0089,0.0724 l -0.0055,0.0579 -1.303097,0.15026 c -0.716704,0.0827 -1.307421,0.15726 -1.312704,0.16581 -0.0053,0.009 -0.07096,0.5491 -0.14595,1.20122 -0.119051,1.0353 -0.133187,1.18879 -0.111452,1.21018 0.03345,0.0329 0.365388,0.18117 0.556805,0.24868 0.272867,0.0962 0.656358,0.18021 0.969456,0.21231 0.161951,0.0166 0.61609,0.009 0.809899,-0.0138 z m -2.577675,-0.63085 c -9.85e-4,-0.12208 -0.253454,-2.21255 -0.269103,-2.22819 -0.0092,-0.009 -0.589695,-0.0827 -1.289951,-0.16333 -1.006587,-0.11588 -1.278418,-0.14223 -1.298138,-0.12587 -0.04264,0.0354 -0.343327,0.66284 -0.460174,0.96026 -0.117836,0.29993 -0.236755,0.66716 -0.311375,0.96153 -0.06314,0.2491 -0.129953,0.58369 -0.119821,0.60009 0.0047,0.008 0.103062,-0.0272 0.218661,-0.0771 0.115599,-0.05 0.279671,-0.11397 0.364606,-0.14225 0.974282,-0.32439 2.044374,-0.25757 2.968422,0.18535 0.09437,0.0452 0.177376,0.0829 0.184454,0.0838 0.0071,8.3e-4 0.01267,-0.0236 0.01242,-0.0542 z m -1.492349,-2.84575 c 0.665322,-0.0766 1.216329,-0.14551 1.224461,-0.15307 0.0202,-0.0188 0.303201,-2.4585 0.287115,-2.4752 -0.01768,-0.0184 -0.389173,0.22156 -0.679388,0.43877 -0.768105,0.57488 -1.449673,1.30438 -1.948869,2.08594 -0.121077,0.18956 -0.143807,0.24218 -0.104849,0.24272 0.0065,9e-5 0.556209,-0.0625 1.22153,-0.13916 z m 3.558648,0.0217 c 0.01163,-0.0188 -0.207539,-1.46216 -0.227101,-1.49556 -0.01997,-0.0341 -1.489407,-0.26031 -1.511164,-0.23265 -0.01779,0.0226 0.15615,1.53001 0.179041,1.55159 0.0092,0.009 0.344857,0.0542 0.745937,0.10119 0.8292,0.0972 0.801444,0.0946 0.813287,0.0754 z m -0.950555,-1.97732 c 0.382206,-0.0582 0.703887,-0.11446 0.714847,-0.12515 0.01536,-0.015 0.228871,-1.32147 0.228871,-1.40047 0,-0.01 -0.0202,-0.0174 -0.04488,-0.0174 -0.06922,0 -0.723568,0.22393 -1.001786,0.34283 -0.279535,0.11947 -0.74908,0.35478 -0.790427,0.39612 -0.02473,0.0247 -0.02283,0.0649 0.02152,0.45483 0.02675,0.23524 0.0525,0.4382 0.05721,0.45103 0.0059,0.016 0.02588,0.0203 0.06415,0.0136 0.03057,-0.005 0.368298,-0.0573 0.750503,-0.11542 z m 9.60172,-4.25576 c -0.151908,-0.016 -0.366207,-0.0573 -0.49352,-0.0951 -0.05771,-0.0171 -0.08871,-0.037 -0.09816,-0.0628 -0.02329,-0.0636 -0.09433,-0.59438 -0.0813,-0.6074 0.0067,-0.007 0.08334,0.0125 0.170254,0.0427 0.40755,0.14166 0.838247,0.19079 1.079754,0.12317 0.142125,-0.0398 0.226,-0.17539 0.185116,-0.29927 -0.03969,-0.12025 -0.154107,-0.19198 -0.506305,-0.31738 -0.272384,-0.097 -0.428793,-0.17227 -0.55496,-0.26711 -0.235221,-0.17682 -0.34841,-0.47921 -0.295958,-0.79067 0.07956,-0.47242 0.511489,-0.72809 1.227955,-0.72685 0.260808,4.5e-4 0.673287,0.0483 0.748318,0.0869 0.02065,0.0106 0.03412,0.0731 0.05585,0.25939 0.01575,0.13497 0.0286,0.2714 0.02856,0.30318 0,0.0518 -0.0041,0.0566 -0.03869,0.0464 -0.441545,-0.13014 -0.85404,-0.15836 -1.024714,-0.0701 -0.170529,0.0882 -0.154287,0.27363 0.03413,0.38975 0.04229,0.0261 0.201637,0.0931 0.354105,0.14897 0.506649,0.18565 0.690326,0.30961 0.806224,0.54411 0.05625,0.11381 0.06363,0.14463 0.07053,0.29441 0.02663,0.57818 -0.326237,0.91971 -1.031516,0.99835 -0.185869,0.0207 -0.435684,0.0205 -0.635672,-5.9e-4 z M 15.60158,252.45297 c 0,-1.35695 0.0017,-1.44097 0.03003,-1.44952 0.05866,-0.0177 0.449265,-0.0443 0.811797,-0.0553 0.743034,-0.0225 1.167041,0.0791 1.428954,0.34238 0.193539,0.19453 0.26868,0.40406 0.26868,0.7492 0,0.49352 -0.198699,0.82726 -0.609127,1.02313 -0.208936,0.0997 -0.356756,0.12904 -0.712078,0.14129 l -0.317432,0.0109 -0.0086,0.33459 -0.0086,0.33459 -0.441832,0.005 -0.441832,0.005 z m 1.301321,0.19301 c 0.241453,-0.082 0.363567,-0.27549 0.364675,-0.57795 6.93e-4,-0.18936 -0.03985,-0.30806 -0.139231,-0.40762 -0.113124,-0.11334 -0.234989,-0.15595 -0.454358,-0.15888 l -0.171585,-0.002 -0.0045,0.57469 c -0.0025,0.31608 -3.81e-4,0.58549 0.0047,0.59869 0.01197,0.0312 0.283107,0.0132 0.400341,-0.0266 z m 1.598467,-0.19445 v -1.44132 h 0.437542 0.437542 v 0.54785 c 0,0.47517 0.0036,0.55142 0.02696,0.57481 0.02298,0.023 0.08649,0.027 0.430091,0.027 0.245073,0 0.41614,-0.007 0.436316,-0.0178 0.03177,-0.017 0.03319,-0.0416 0.03319,-0.57481 v -0.55705 h 0.437542 0.437542 v 1.44132 1.44131 h -0.437542 -0.437542 v -0.54564 c 0,-0.40151 -0.0054,-0.55108 -0.02059,-0.56623 -0.01491,-0.0149 -0.137897,-0.0206 -0.445518,-0.0206 -0.402552,0 -0.425862,0.002 -0.442689,0.0332 -0.01115,0.0208 -0.01776,0.23161 -0.01776,0.56623 v 0.53304 H 18.93891 18.501368 Z m 3.345909,0 v -1.44132 h 0.437542 0.437542 v 1.44132 1.44131 h -0.437542 -0.437542 z m 1.527107,-2.9e-4 v -1.44161 l 0.441831,0.005 0.441832,0.005 0.0044,1.14533 0.0044,1.14533 h 0.41067 c 0.225869,0 0.414593,0.006 0.419387,0.0141 0.0085,0.0137 -0.102342,0.52643 -0.11997,0.55495 -0.0049,0.008 -0.367442,0.0143 -0.805714,0.0143 h -0.796858 v -1.4416 z m 2.049761,1.42016 c -0.0045,-0.0118 -0.0062,-0.65846 -0.0038,-1.43703 l 0.0044,-1.41558 0.441832,-0.005 0.441831,-0.005 v 1.4416 1.4416 h -0.43808 c -0.334661,0 -0.440012,-0.005 -0.446263,-0.0214 z m 1.553525,-1.41886 c 0,-0.79216 0.0058,-1.44382 0.01287,-1.44812 0.03665,-0.0223 0.581543,-0.0518 0.973745,-0.0528 0.361896,-8.9e-4 0.475276,0.005 0.600548,0.0295 0.329374,0.0652 0.538169,0.16455 0.692569,0.32961 0.168803,0.18045 0.236488,0.35648 0.254038,0.66069 0.03138,0.5439 -0.24153,0.97243 -0.726746,1.14117 -0.181595,0.0632 -0.396616,0.0939 -0.656219,0.0939 -0.159542,0 -0.241124,0.007 -0.25513,0.0206 -0.01455,0.0146 -0.02059,0.11516 -0.02059,0.34317 v 0.32258 H 27.415212 26.97767 Z m 1.156348,0.22143 c 0.14285,-0.0206 0.239342,-0.0612 0.325547,-0.13692 0.183133,-0.16079 0.235792,-0.51818 0.113079,-0.76744 -0.08724,-0.17722 -0.2441,-0.25875 -0.528632,-0.27478 -0.125895,-0.007 -0.16375,-0.004 -0.175611,0.0148 -0.02446,0.0386 -0.01979,1.13676 0.0049,1.16149 0.02484,0.0248 0.102514,0.0257 0.260674,0.003 z"
         id="path1105"
         inkscape:connector-curvature="0" />
      <path
         inkscape:connector-curvature="0"
         id="path1080"
         d="m 159.35542,272.98143 c -2.18627,-0.25715 -4.30331,-0.75539 -4.63361,-1.09051 -0.2216,-0.22484 -0.96929,-5.15507 -0.80697,-5.32121 0.0539,-0.0551 0.43079,0.0331 0.83985,0.19674 1.04228,0.41699 2.56992,0.84651 4.10636,1.15461 1.03836,0.20821 1.71651,0.26387 3.24249,0.26615 1.77399,0.003 1.97809,-0.0191 2.53197,-0.2697 1.03236,-0.4671 1.52981,-1.26209 1.38672,-2.21622 -0.15209,-1.01422 -1.10222,-1.71889 -3.50939,-2.6028 -3.77488,-1.38614 -4.97512,-2.00438 -6.1319,-3.15857 -0.91209,-0.91006 -1.33423,-1.64535 -1.64725,-2.86925 -0.60427,-2.36266 -0.0423,-4.87216 1.44628,-6.45866 1.98674,-2.11742 5.3089,-2.98301 10.36734,-2.70121 1.73215,0.0965 4.52521,0.49549 4.70377,0.67195 0.14349,0.14182 0.66908,4.97996 0.55376,5.09759 -0.0645,0.0659 -0.22193,0.055 -0.40362,-0.0277 -0.47701,-0.21735 -2.48718,-0.696 -3.56757,-0.8495 -1.48687,-0.21126 -3.5494,-0.18837 -4.34828,0.0483 -1.23131,0.36472 -1.77872,1.1432 -1.5088,2.14564 0.25904,0.96201 1.32387,1.61692 4.33685,2.66734 0.86829,0.30271 2.2331,0.86888 3.03291,1.25814 1.26565,0.616 1.56943,0.823 2.34285,1.5964 1.30615,1.30614 1.86907,2.6731 1.87286,4.54798 0.007,3.28233 -1.68524,5.78396 -4.75732,7.03415 -2.31872,0.94361 -5.99781,1.28642 -9.4493,0.88045 z M 35.836266,272.61486 c -0.115613,-0.0466 -0.146178,-2.57462 -0.146178,-12.09007 0,-11.46983 0.0098,-12.03635 0.210685,-12.14384 0.372081,-0.19913 5.252737,-0.49556 8.267551,-0.50213 4.24153,-0.009 6.424507,0.37047 8.608467,1.4974 1.889335,0.97489 3.052187,2.34071 3.748077,4.40226 0.32333,0.95787 0.370996,1.27245 0.420569,2.77594 0.109949,3.33404 -0.69704,5.55792 -2.700777,7.44274 -2.115029,1.98949 -4.822367,2.84809 -8.980684,2.84809 -1.582219,0 -1.992573,0.0327 -2.042401,0.16249 -0.03434,0.0894 -0.07211,1.33918 -0.08406,2.77735 -0.01194,1.43818 -0.06429,2.68064 -0.11629,2.76104 -0.07238,0.11188 -0.90913,0.14401 -3.566703,0.13694 -1.909657,-0.005 -3.537881,-0.0357 -3.618278,-0.0682 z m 9.501472,-10.20302 c 1.607259,-0.23339 2.63845,-0.75697 3.359935,-1.706 1.143494,-1.50414 1.333696,-4.32926 0.40836,-6.06537 -0.436238,-0.81846 -1.243799,-1.47744 -2.258433,-1.84289 -0.884985,-0.31875 -3.519818,-0.46498 -3.68482,-0.20448 -0.148938,0.23512 -0.134112,9.41928 0.01563,9.69913 0.09827,0.18362 0.246845,0.22575 0.789353,0.22385 0.367562,-8.8e-4 0.984042,-0.0482 1.369944,-0.10424 z m 14.680237,10.05428 c -0.145732,-0.27232 -0.168841,-23.72431 -0.02363,-23.95313 0.07308,-0.11514 0.895103,-0.14104 3.71109,-0.11694 l 3.617215,0.0309 0.03057,4.76695 0.03057,4.76696 3.828514,-0.0308 3.828505,-0.0308 0.03057,-4.76702 0.03057,-4.76702 3.653103,0.0309 3.6531,0.0309 0.0298,12.07182 0.0298,12.07182 -0.26366,0.0644 c -0.14502,0.0354 -1.789751,0.0496 -3.654958,0.0316 l -3.3913,-0.0328 -0.06175,-4.73612 c -0.03399,-2.60486 -0.07343,-4.75 -0.08774,-4.76697 -0.01423,-0.017 -1.723015,-0.017 -3.797263,0 l -3.771353,0.0308 -0.03065,4.60885 c -0.02099,3.16465 -0.07132,4.65789 -0.160496,4.76535 -0.103169,0.12431 -0.847709,0.1565 -3.619692,0.1565 -3.330582,0 -3.495321,-0.0103 -3.610856,-0.22619 z m 28.090457,0.12945 c -0.11644,-0.074 -0.14058,-2.57797 -0.11694,-12.13086 l 0.0298,-12.0377 h 3.62517 3.62518 l 0.0298,12.0377 c 0.0236,9.55289 -4.7e-4,12.05694 -0.11694,12.13086 -0.0807,0.0512 -1.67281,0.0932 -3.53803,0.0932 -1.86522,0 -3.45732,-0.0419 -3.53803,-0.0932 z m 12.863528,0 c -0.11644,-0.074 -0.14057,-2.57797 -0.11694,-12.13086 l 0.0298,-12.0377 3.65441,-0.0309 3.65441,-0.0309 v 9.4816 c 0,6.31226 0.0405,9.55719 0.12105,9.70778 0.11542,0.21564 0.27912,0.22619 3.50824,0.22619 h 3.38719 v 0.29686 c 0,0.50282 -0.94929,4.43381 -1.09277,4.52511 -0.18376,0.11694 -12.96088,0.10996 -13.14538,-0.007 z m 17.1227,0.0188 c -0.0429,-0.0429 -0.078,-5.51647 -0.078,-12.16355 v -12.08559 l 3.65441,0.0309 3.65441,0.0309 0.0298,12.0377 c 0.0236,9.55289 -4.7e-4,12.05694 -0.11694,12.13086 -0.17659,0.11212 -7.03236,0.13014 -7.14371,0.0188 z m 12.98047,0 c -0.0429,-0.0429 -0.078,-5.51472 -0.078,-12.15965 v -12.0817 l 0.26312,-0.0606 c 0.75029,-0.1727 5.42682,-0.41129 8.06492,-0.41145 4.31345,-2.8e-4 6.3816,0.33823 8.56996,1.40276 2.09924,1.02116 3.42512,2.65962 4.05661,5.01293 0.3573,1.33155 0.36093,4.01965 0.007,5.42106 -0.91392,3.62188 -3.50228,5.91844 -7.6891,6.82226 -0.62537,0.135 -1.74971,0.22546 -3.39129,0.27285 l -2.45577,0.0709 -0.0314,2.80103 c -0.0231,2.06189 -0.0694,2.82517 -0.17541,2.8925 -0.17472,0.11099 -7.03069,0.12741 -7.14099,0.0171 z m 9.87537,-10.2629 c 1.16912,-0.20854 1.842,-0.51813 2.535,-1.16635 1.05442,-0.98628 1.50006,-2.37361 1.4039,-4.37046 -0.0443,-0.9189 -0.11827,-1.28092 -0.38221,-1.86904 -0.76615,-1.70722 -2.45348,-2.53803 -4.99477,-2.45937 l -1.08948,0.0337 -0.0306,4.90382 c -0.024,3.84546 8.8e-4,4.92403 0.11694,4.99745 0.22466,0.14262 1.44615,0.1077 2.44116,-0.0698 z"
         style="fill:#ffffff;stroke-width:1.2467221" />
    </g>
  </g>
</svg>
