<?xml version="1.0" encoding="UTF-8" standalone="no"?>
<svg
   version="1.1"
   viewBox="0 0 500 200"
   id="svg32"
   sodipodi:docname="coco3.svg"
   width="500"
   height="200"
   inkscape:version="1.2.2 (b0a8486541, 2022-12-01)"
   xml:space="preserve"
   xmlns:inkscape="http://www.inkscape.org/namespaces/inkscape"
   xmlns:sodipodi="http://sodipodi.sourceforge.net/DTD/sodipodi-0.dtd"
   xmlns="http://www.w3.org/2000/svg"
   xmlns:svg="http://www.w3.org/2000/svg"><defs
     id="defs36" /><sodipodi:namedview
     id="namedview34"
     pagecolor="#505050"
     bordercolor="#ffffff"
     borderopacity="1"
     inkscape:showpageshadow="0"
     inkscape:pageopacity="0"
     inkscape:pagecheckerboard="1"
     inkscape:deskcolor="#505050"
     showgrid="false"
     inkscape:zoom="1.1191667"
     inkscape:cx="359.19582"
     inkscape:cy="150.55845"
     inkscape:window-width="1670"
     inkscape:window-height="910"
     inkscape:window-x="0"
     inkscape:window-y="0"
     inkscape:window-maximized="1"
     inkscape:current-layer="svg32" /><path
     fill="#000000"
     d="m 120.32035,145.47515 0.10523,28.99137 a 0.59046748,0.58462127 1.3 0 1 -0.62554,0.59047 q -4.79389,-0.25723 -10.60503,0.0935 -1.1517,0.0701 -1.1517,-1.0757 l -0.0351,-28.38337 a 0.52031293,0.52031293 0 0 0 -0.5437,-0.52031 q -8.576403,0.30985 -16.457093,-0.0117 a 0.56123642,0.56708263 1.2 0 1 -0.537852,-0.56708 V 135.367 a 0.44431217,0.45015838 0 0 1 0.444312,-0.45016 l 46.226003,-0.11107 a 0.68400689,0.68400689 0 0 1 0.68401,0.684 v 9.2721 a 0.39169625,0.39169625 0 0 1 -0.37416,0.39169 q -8.37762,0.30985 -16.83709,0.0292 a 0.28646442,0.29231064 0.6 0 0 -0.29231,0.29231 z"
     id="path14"
     style="fill:#ffffff;stroke-width:0.584621" /><path
     fill="#000000"
     d="m 187.91426,160.11407 c 3.27972,0.38 6.05083,1.40894 6.61791,5.05697 q 0.55539,3.60127 0.26893,9.45918 a 0.30984927,0.3215417 0.6 0 1 -0.30401,0.30985 l -11.5755,0.16369 a 0.52031293,0.50277429 87.9 0 1 -0.50862,-0.49108 q -0.152,-2.78865 -0.0994,-5.34929 c 0.10523,-4.94589 -3.10434,-4.66527 -7.13238,-4.69451 q -8.40101,-0.0702 -16.99494,-0.12861 a 0.33323412,0.33323412 0 0 0 -0.33908,0.33323 v 9.71056 a 0.48523565,0.49108187 89.7 0 1 -0.48523,0.48524 l -10.97334,0.10523 a 0.93539403,0.95293267 89.6 0 1 -0.96463,-0.9354 v -38.83639 a 0.38585004,0.38585004 0 0 1 0.38585,-0.38585 q 17.11771,-0.14031 34.32311,-0.006 c 5.67667,0.0409 12.21858,0.006 14.39922,6.43668 1.14586,3.37911 1.27448,9.95025 0.076,12.98444 q -1.55509,3.95204 -6.72899,5.36097 -1.0757,0.29231 0.0351,0.42093 z m -5.51298,-13.3469 c -1.11663,-2.26249 -3.15111,-2.04033 -5.40775,-2.05787 q -8.99147,-0.076 -18.62603,-0.152 a 0.52615914,0.53785157 0.6 0 0 -0.532,0.532 l -0.0935,9.22533 a 0.31569549,0.32738791 0.5 0 0 0.30985,0.32739 q 10.43549,0.10523 20.28635,-0.10524 2.10464,-0.0468 3.03419,-0.61969 c 1.9234,-1.18679 1.88248,-5.41944 1.02893,-7.14992 z"
     id="path16"
     style="fill:#ffffff;stroke-width:0.584621" /><path
     fill="#000000"
     d="m 218.3321,161.84455 c 0.1637,3.05757 0.91786,4.20927 4.11574,4.34958 q 7.07392,0.304 16.62663,-0.0351 c 5.30836,-0.19292 5.92221,-6.6296 0.12277,-6.89268 q -8.21978,-0.36831 -16.45709,-0.16369 -5.95729,0.14615 -10.52318,-0.94709 c -6.46592,-1.54925 -6.93361,-10.33026 -5.66498,-15.45739 q 1.42647,-5.75852 7.56499,-6.75822 c 10.02041,-1.63694 21.59007,-1.30955 30.40031,-0.73078 7.25515,0.47355 9.68133,5.02775 9.3364,11.62812 a 0.38000383,0.38000383 0 0 1 -0.38,0.35662 h -10.56411 q -0.68985,0 -1.20432,-1.28032 c -0.67816,-1.67202 -1.90586,-2.19818 -3.73573,-2.29172 q -9.28378,-0.48523 -17.42171,0.64893 -2.04618,0.28647 -2.19233,2.48464 c -0.24554,3.60127 4.10404,3.18619 6.36652,3.22711 7.21423,0.14616 14.49861,-0.0877 21.70115,0.3157 q 6.7816,0.38 8.47116,6.83422 c 1.11078,4.23266 1.09324,11.30073 -2.36187,14.55707 -2.13972,2.02279 -6.00991,2.57818 -8.86286,2.78865 q -12.09581,0.90031 -26.04488,0.19292 c -8.96224,-0.456 -11.98473,-3.77081 -11.38257,-12.82659 a 0.30400306,0.30984927 1.8 0 1 0.304,-0.29231 l 11.47611,-0.006 a 0.31569549,0.30984927 88.3 0 1 0.30985,0.29816 z"
     id="path18"
     style="fill:#ffffff;stroke-width:0.584621" /><path
     fill="#000000"
     d="m 326.6975,154.77648 q 5.84037,0.40923 6.96284,6.15606 c 1.85325,9.46502 -2.27417,13.71522 -11.39427,13.90229 q -9.48255,0.19293 -18.96511,0.14616 c -5.1739,-0.0234 -8.14377,0.16954 -11.68658,-1.51417 -4.56005,-2.16894 -4.92251,-8.54716 -3.85265,-12.82074 0.80093,-3.18619 2.77695,-4.97513 5.9339,-5.52468 0.29231,-0.0468 1.85325,-0.456 0.0643,-0.69569 -6.52437,-0.87109 -6.98622,-9.14348 -5.28498,-13.98999 1.87079,-5.34929 8.93886,-5.52467 13.62753,-5.52467 8.08531,0.006 16.86047,-0.72493 24.88148,0.8477 3.37911,0.66062 5.29082,2.43787 6.19698,5.81698 1.30955,4.87574 0.62555,12.21274 -5.9339,12.67459 q -0.40339,0.0292 -0.66063,0.28062 -0.23384,0.22215 0.11108,0.24554 z m -27.28427,-9.74564 c -1.5434,4.14497 1.13416,5.34344 4.68866,5.44283 q 5.64744,0.15784 11.30073,0.0818 c 2.66587,-0.0351 6.61791,0.17539 6.83422,-3.39665 0.33324,-5.57728 -8.20808,-4.29696 -13.06628,-4.22096 -2.67757,0.0351 -5.15052,-0.0234 -7.8047,0.456 q -1.44401,0.26308 -1.95263,1.63694 z m 2.98157,13.18321 c -3.53696,0.11108 -4.74713,4.57759 -2.82372,6.66468 2.33848,2.54311 8.28993,2.3268 11.48196,1.97018 a 0.28646442,0.77170008 36.5 0 0 0.43262,-0.28062 c 0.17538,-0.17539 6.52437,-0.42677 8.249,-0.66062 3.43173,-0.47355 3.43758,-5.32006 1.33294,-6.81669 -2.53141,-1.80063 -15.11831,-0.98801 -18.6728,-0.87693 z"
     id="path20"
     style="fill:#ffffff;stroke-width:0.584621" /><path
     fill="#000000"
     d="m 347.48664,138.95663 q 0.67231,-0.74247 1.52586,-1.26863 c 5.90467,-3.66558 14.22383,-2.78864 22.0753,-2.77111 q 7.21422,0.0117 12.26535,0.80678 c 8.22562,1.29201 9.13763,6.72899 9.69302,14.34076 q 0.53201,7.34284 -0.532,14.63892 c -0.99971,6.82253 -4.12158,9.20194 -10.67519,9.77487 -8.12623,0.70154 -18.07064,0.74246 -26.50673,0.0935 -5.44282,-0.42092 -9.43578,-2.11632 -10.55241,-7.64684 q -1.12832,-5.58898 -0.89447,-12.50505 c 0.18708,-5.39021 -0.11108,-11.40012 3.60127,-15.46323 z m 9.83917,7.64684 q -0.92955,0.79509 -1.11663,2.0111 -0.85354,5.6416 -0.28646,10.9558 c 0.38,3.54865 1.44986,5.04528 5.08036,5.30836 q 7.85146,0.56709 14.09522,-0.0468 c 3.68896,-0.35661 6.01575,-1.19847 6.22037,-5.21482 q 0.228,-4.54835 0.0117,-8.52378 c -0.21631,-3.82342 -1.3154,-5.79359 -5.27328,-6.09175 -4.84651,-0.36246 -15.49247,-1.17509 -18.73127,1.60186 z"
     id="path22"
     style="fill:#ffffff;stroke-width:0.584621" /><rect
     fill="#000000"
     x="260.54868"
     y="155.16194"
     transform="rotate(-0.1)"
     width="20.812517"
     height="10.476413"
     rx="0.53785157"
     id="rect24"
     style="fill:#ffffff;stroke-width:0.584621" /><path
     style="fill:#ffffff;stroke-width:0.574774"
     d="M 49.709056,77.056647 V 52.628745 h -9.771161 -9.771162 v -7.184677 -7.184676 h 29.026092 c 18.22364,0 29.026101,0.205992 29.026101,0.553495 0,0.304424 -0.541959,1.920976 -1.204351,3.592339 -0.662391,1.671363 -1.287853,3.426815 -1.389932,3.901004 -0.10207,0.474188 -0.736136,2.090741 -1.409028,3.592339 l -1.223447,2.730176 h -8.594716 -8.594725 v 24.427902 24.427903 h -8.046835 -8.046836 z m 24.488817,23.951703 c -0.16187,-0.26191 0.359178,-2.09408 1.157887,-4.07148 0.798709,-1.977393 1.558538,-4.026279 1.688513,-4.553064 0.129976,-0.526793 1.257131,-3.802936 2.504798,-7.28032 2.246393,-6.260946 6.846411,-19.208476 12.150303,-34.199063 1.509972,-4.267698 3.116486,-8.794044 3.570041,-10.058548 l 0.824638,-2.299097 h 11.074887 11.07489 l 1.67987,4.598194 c 2.30572,6.31137 3.41083,9.236523 6.51442,17.243225 1.47045,3.79351 2.75701,7.285263 2.85903,7.759451 0.10202,0.474189 0.57718,1.767431 1.05592,2.873871 1.59863,3.694683 11.31985,29.530111 11.31985,30.083981 0,0.20847 -3.69844,0.37905 -8.21876,0.37905 h -8.21875 l -0.73089,-2.15541 c -0.40198,-1.18547 -1.42388,-3.900434 -2.27087,-6.033248 l -1.53999,-3.877858 -7.24638,-0.0017 -7.24637,-0.0017 -3.35369,-5.747741 c -1.84452,-3.161258 -3.529102,-5.747742 -3.743492,-5.747742 -0.21439,0 -1.086879,2.004525 -1.93885,4.454499 -0.851971,2.449976 -2.158867,6.135715 -2.904206,8.190533 -0.745348,2.054817 -1.927017,5.352584 -2.625928,7.328377 l -1.270752,3.59233 H 82.42809 c -4.364743,0 -8.068346,-0.21429 -8.230217,-0.4762 z M 115.23122,75.188632 c -8.9e-4,-0.237094 -0.7879,-2.500268 -1.74835,-5.029274 -0.96043,-2.529007 -2.69163,-7.120015 -3.84711,-10.202242 -1.15548,-3.082227 -2.24392,-5.601427 -2.41877,-5.598226 -0.17485,0.0035 -0.8807,1.749079 -1.56855,3.879726 -2.0294,6.286058 -4.02415,11.933904 -4.63261,13.116537 -0.31219,0.606817 -0.73766,1.814584 -0.94548,2.68393 l -0.37784,1.58063 h 7.7704 c 4.27372,0 7.76946,-0.193987 7.76831,-0.431081 z m 28.87958,-5.172968 0.1486,-31.468886 11.86606,-0.155171 11.86607,-0.155172 11.41229,22.784645 11.41229,22.78464 0.15028,-22.773167 0.1503,-22.773161 h 8.04024 8.04025 v 31.624011 31.624007 l -12.14137,-0.15512 -12.14136,-0.15513 -11.56808,-22.990964 -11.56807,-22.990966 -0.1502,23.134659 -0.15022,23.134661 h -7.75784 -7.75784 z m 68.83411,-0.109753 V 38.259392 l 18.24909,0.02006 c 25.18436,0.02765 29.03101,0.840131 34.58321,7.304352 2.36732,2.756179 5.14213,7.927917 6.24695,11.643142 1.21017,4.069482 2.00069,11.706925 1.65755,16.014128 -0.8662,10.872635 -4.75711,19.020909 -11.23835,23.535096 -2.79584,1.94731 -4.51431,2.74881 -8.68948,4.05279 -0.47419,0.1481 -9.85019,0.37146 -20.83557,0.49637 l -19.9734,0.22711 V 69.905916 Z m 35.28238,16.035153 c 3.79782,-1.420945 6.91683,-4.647032 7.85259,-8.122162 0.38393,-1.425774 0.5783,-5.133141 0.46127,-8.797879 -0.1811,-5.671906 -0.38234,-6.6914 -1.92583,-9.756694 -0.94798,-1.882632 -2.37022,-3.880018 -3.16054,-4.438641 -2.58438,-1.826725 -7.86724,-2.771705 -15.49596,-2.77186 l -7.20762,-1.49e-4 v 17.530582 17.530584 l 8.16898,1.72e-4 c 6.81894,1.5e-4 8.68759,-0.19386 11.30711,-1.173953 z m 41.16259,1.322969 V 73.011956 l -1.86801,-2.673987 c -3.6886,-5.280089 -12.24901,-17.081317 -19.79848,-27.293847 -1.67684,-2.268346 -3.0488,-4.272871 -3.0488,-4.454499 0,-0.181629 4.07372,-0.321041 9.0527,-0.309804 l 9.05269,0.0204 3.16126,4.402287 c 1.73869,2.421259 3.94522,5.451187 4.90342,6.733169 0.9582,1.281982 2.87088,3.947434 4.2504,5.92322 1.37952,1.975787 2.57804,3.592339 2.66337,3.592339 0.0853,0 1.12688,-1.357904 2.31453,-3.017565 2.65089,-3.704408 5.34787,-7.397901 9.65311,-13.219806 l 3.29405,-4.454499 h 8.58935 c 5.97029,0 8.58937,0.196819 8.58937,0.645477 0,0.742838 -1.91945,3.486275 -14.62876,20.908554 l -9.22436,12.645032 -0.28739,14.369354 -0.28739,14.369359 -8.19053,0.15947 -8.19053,0.15948 z"
     id="path1232" /><path
     style="fill:#ffffff;stroke:#020202;stroke-width:0.0228241"
     d="m 360.45528,37.810222 31.62948,0.41955 -36.92938,64.434138 -32.22489,-0.36813 z"
     id="path1421" /><path
     style="fill:#ffffff;stroke:#020202;stroke-width:0.0228241"
     d="m 400.05797,37.783838 31.62948,0.41955 -36.92938,64.434132 -32.22489,-0.36813 z"
     id="path1421-7" /><path
     style="fill:#ffffff;stroke:#020202;stroke-width:0.0228241"
     d="m 440.11978,37.980508 31.62947,0.41955 -36.92937,64.434142 -32.22489,-0.36813 z"
     id="path1421-5" /></svg>
