<?xml version="1.0" encoding="UTF-8" standalone="no"?>
<svg
   xmlns:dc="http://purl.org/dc/elements/1.1/"
   xmlns:cc="http://creativecommons.org/ns#"
   xmlns:rdf="http://www.w3.org/1999/02/22-rdf-syntax-ns#"
   xmlns:svg="http://www.w3.org/2000/svg"
   xmlns="http://www.w3.org/2000/svg"
   xmlns:sodipodi="http://sodipodi.sourceforge.net/DTD/sodipodi-0.dtd"
   xmlns:inkscape="http://www.inkscape.org/namespaces/inkscape"
   width="499.81717"
   height="117.96628"
   viewBox="0 0 109.18346 25.769725"
   version="1.1"
   id="svg14"
   sodipodi:docname="Codemasters_.svg"
   inkscape:version="0.92.5 (2060ec1f9f, 2020-04-08)">
  <metadata
     id="metadata20">
    <rdf:RDF>
      <cc:Work
         rdf:about="">
        <dc:format>image/svg+xml</dc:format>
        <dc:type
           rdf:resource="http://purl.org/dc/dcmitype/StillImage" />
        <dc:title></dc:title>
      </cc:Work>
    </rdf:RDF>
  </metadata>
  <defs
     id="defs18" />
  <sodipodi:namedview
     pagecolor="#ffffff"
     bordercolor="#666666"
     borderopacity="1"
     objecttolerance="10"
     gridtolerance="10"
     guidetolerance="10"
     inkscape:pageopacity="0"
     inkscape:pageshadow="2"
     inkscape:window-width="1366"
     inkscape:window-height="743"
     id="namedview16"
     showgrid="false"
     inkscape:pagecheckerboard="true"
     inkscape:zoom="1.3368561"
     inkscape:cx="200.07467"
     inkscape:cy="68.191763"
     inkscape:window-x="0"
     inkscape:window-y="0"
     inkscape:window-maximized="1"
     inkscape:current-layer="svg14" />
  <path
     d="M 65.163759,7.663837 V 7.487003 c 0.915313,-0.32122 1.622209,-0.995672 2.136163,-2.103934 0.06426,-0.144603 0.12849,-0.305104 0.192731,-0.46604 h 0.144606 v 2.280985 h 1.702565 v 0.465823 h -1.670773 v 5.07505 c 0,1.348904 0.369129,1.782931 1.22063,1.622213 0.273096,-0.04835 0.530069,-0.20863 0.722582,-0.465823 0.03221,-0.03223 0.06427,-0.08036 0.09648,-0.128487 l 0.176617,0.04835 c -0.04852,0.08036 -0.07993,0.144821 -0.112376,0.208412 a 4.3849185,4.3849185 0 0 1 -0.594529,0.739131 c -0.979554,0.930992 -2.232203,0.642221 -2.698023,-0.449707 -0.09648,-0.240643 -0.12849,-0.433374 -0.12849,-0.979556 V 7.663841 Z m -53.333982,-4.191752 0.1605,0.0159 v 3.854634 l -0.1605,0.03223 C 11.733307,6.684278 11.460429,6.041839 10.962593,5.447528 10.272026,4.596242 9.3726106,4.13042 8.2806821,4.050278 c -2.5858717,-0.192732 -4.673689,1.95933 -4.4005979,6.07094 0.2088466,3.131836 2.3286774,4.865985 4.9946911,4.464842 1.1563897,-0.176616 2.1202667,-0.722798 2.9872327,-1.750483 0.09626,-0.112591 0.176615,-0.224963 0.256975,-0.337335 l 0.128488,0.112591 c -0.08014,0.128269 -0.160501,0.257192 -0.256976,0.385245 C 11.2518,13.99175 10.464758,14.602175 9.4690851,14.971524 7.9272316,15.565398 6.2409925,15.420795 4.6669081,14.47347 3.3177862,13.670312 2.3702433,12.273061 2.0490237,10.554592 1.4065844,7.101755 3.5908773,4.050278 7.0439323,3.552442 c 0.9153128,-0.12827 1.830843,-0.04813 2.6982435,0.20863 l 0.08058,0.03223 0.7707092,0.272872 c 0.610426,0.224745 0.819273,0.176617 1.108262,-0.385463 z m 1.333006,7.885667 c 0,-0.32122 0.03201,-0.642221 0.08036,-0.963659 0.578195,-2.890757 3.501183,-4.111392 5.701592,-2.68191 a 3.886865,3.886865 0 0 1 0.513951,0.385463 c 0.931645,0.883517 1.397468,2.248537 1.15639,3.790173 -0.09626,0.513951 -0.273091,1.011786 -0.530067,1.461711 -0.899197,1.509624 -2.216305,2.151627 -3.838301,1.9271 -1.429481,-0.192514 -2.617884,-1.300775 -2.987232,-3.035143 a 4.0181838,4.0181838 0 0 1 -0.09669,-0.883735 z m 1.525738,0.529849 c 0.11259,0.771144 0.305104,1.300993 0.578195,1.767034 0.80294,1.348686 2.409037,1.476956 3.243991,0.449272 0.626323,-0.770927 0.915529,-2.071703 0.610425,-3.742262 A 5.0837615,5.0837615 0 0 0 18.848041,9.382088 C 18.671425,8.980728 18.478693,8.675406 18.270064,8.434328 17.306405,7.261822 15.764552,7.406426 15.122113,8.578931 14.800893,9.125113 14.65629,9.687193 14.607944,10.522145 a 5.1758807,5.1758807 0 0 0 0,0.707119 c 0.01633,0.224962 0.04856,0.449708 0.08057,0.658337 z M 27.376365,7.776209 V 5.319043 C 27.360465,4.660488 26.958888,4.403513 26.444937,4.628257 L 26.31645,4.676607 26.25221,4.708837 26.15595,4.499989 28.709591,3.391946 V 13.59061 c 0.03201,0.465605 0.385682,0.738914 0.931428,0.626324 0.06424,-0.01633 0.128488,-0.03223 0.192732,-0.06424 l 0.04835,0.176834 -2.184293,0.962787 h -0.273091 v -1.187968 a 3.4500064,3.4500064 0 0 1 -0.947544,0.787042 c -1.959547,1.107609 -4.03125,0.06424 -4.384483,-2.698026 a 4.7749552,4.7749552 0 0 1 0.04813,-1.654226 c 0.545965,-2.955219 3.147952,-4.143623 4.91455,-2.987233 l 0.192514,0.112591 z m -0.353233,0.48172 C 26.621553,7.695849 25.930768,7.438874 25.176393,7.599592 24.292875,7.792106 23.602308,8.627495 23.425692,10.265823 a 7.7661077,7.7661077 0 0 0 0,1.220417 c 0.192731,1.879188 1.108043,2.810616 2.264433,2.842847 0.337336,0.0159 0.658555,-0.06424 0.931428,-0.19295 0.658337,-0.321219 0.754594,-0.481502 0.754594,-1.108044 V 9.558922 c 2.18e-4,-0.674669 -0.06402,-0.931427 -0.353015,-1.300993 z m 9.907063,1.927318 h -4.914549 a 3.2733901,3.2733901 0 0 0 0,0.562079 4.5521704,4.5521704 0 0 0 0.224962,1.268763 c 0.642439,1.991561 2.20019,2.55364 3.661467,1.557751 0.401579,-0.256975 0.755029,-0.658337 0.99589,-1.124377 0.04813,-0.08058 0.08036,-0.160502 0.112372,-0.240643 l 0.176834,0.03223 c -0.03179,0.09626 -0.04813,0.192515 -0.08036,0.304887 -0.08015,0.289424 -0.192732,0.562297 -0.32122,0.819273 a 3.9140869,3.9140869 0 0 1 -0.786824,1.108043 c -1.445597,1.412931 -3.62989,1.027468 -4.561318,-0.755028 a 5.4043277,5.4043277 0 0 1 -0.497621,-1.429264 c -0.578195,-3.051476 1.236533,-5.219652 3.24399,-5.18764 0.20863,0.01612 0.401579,0.03223 0.610427,0.08036 1.220416,0.289207 1.95933,1.172506 2.119831,2.60177 0.01611,0.14482 0.01611,0.273308 0.01611,0.401796 z M 35.291867,9.735539 c 0,-0.09626 0,-0.176617 -0.0159,-0.272655 -0.01611,-0.401797 -0.09626,-0.723016 -0.24086,-0.99589 -0.417477,-0.883299 -1.47761,-1.076031 -2.312998,-0.337335 -0.305105,0.273091 -0.545965,0.67467 -0.674453,1.268763 -0.03201,0.11259 -0.04834,0.224962 -0.06424,0.337117 z m 2.696937,-1.541636 2.601769,-1.108262 v 1.638111 l 0.144604,-0.160501 0.224962,-0.241078 c 0.09626,-0.08014 0.176616,-0.176616 0.272873,-0.256757 0.304886,-0.289207 0.465823,-0.417477 0.674453,-0.546182 1.317108,-0.883082 2.682127,-0.385246 3.083707,1.044017 0.03201,0.08036 0.04835,0.160501 0.06424,0.257193 L 45.1839,8.675841 45.472888,8.370519 c 0.497836,-0.562079 0.771145,-0.770927 1.252648,-1.027902 1.300993,-0.690349 2.649897,-0.03201 2.906873,1.509841 0.04813,0.24086 0.06446,0.497835 0.06446,0.803157 v 4.288226 c 0,0.04791 0,0.112155 0.0159,0.160501 0.08036,0.545964 0.385463,0.835171 0.834952,0.851286 h 0.160719 v 0.224745 h -3.501183 v -0.224745 h 0.176834 c 0.545964,-0.0159 0.834953,-0.321002 0.947543,-1.011787 l 0.03201,-0.273091 V 9.28605 C 48.347534,9.173459 48.331634,9.061087 48.299614,8.96483 48.026741,8.081531 47.111211,7.744196 45.890577,8.450879 45.697845,8.563251 45.601588,8.659508 45.280368,8.96483 l -0.176834,0.192514 c 0.01612,0.128706 0.03223,0.241078 0.04813,0.369347 l -0.0159,0.578414 0.0159,3.565428 -0.0159,0.273091 c 0,0.07993 0.0159,0.192513 0.06402,0.35345 0.11259,0.401578 0.43381,0.642439 0.867401,0.658336 0.06424,0 0.112372,0 0.176834,-0.0159 v 0.240643 H 42.678374 V 14.93951 c 0.04835,0.0159 0.112372,0.0159 0.160719,0.0159 0.545964,-0.0159 0.851068,-0.337117 0.931209,-1.011786 l 0.03223,-0.273091 V 9.800001 c 0,-0.24086 -0.01611,-0.513951 -0.06402,-0.75503 C 43.593909,8.177788 42.566224,7.72808 41.377603,8.466776 41.184872,8.579149 40.99214,8.739649 40.783293,8.948497 l -0.09626,0.112372 -0.09648,0.09626 v 4.59333 l 0.01611,0.192949 c 0.06424,0.658337 0.385463,0.995673 0.91553,1.011788 0.06402,0 0.112372,0 0.176834,-0.0159 v 0.240642 h -3.661902 v -0.224745 h 0.176616 c 0.610426,-0.0159 0.963658,-0.369348 1.027902,-1.011787 l 0.01612,-0.160718 V 9.398205 L 39.241643,9.012741 C 39.225743,8.370303 38.808052,8.097212 38.278202,8.321956 l -0.128487,0.06446 -0.06424,0.03201 z m 17.956062,1.911202 V 8.997061 c 0,-0.06446 0,-0.128705 -0.01568,-0.192732 -0.128924,-0.819273 -0.41813,-1.172506 -1.044453,-1.316891 -0.530503,-0.112373 -0.964095,0.0159 -1.253301,0.369348 -0.192514,0.224962 -0.305104,0.513951 -0.305104,0.722581 v 0.03223 l 0.04813,0.256976 v 0.288989 c -0.0159,0.144603 -0.06402,0.289206 -0.144386,0.401796 -0.224962,0.353233 -0.738913,0.369131 -1.012005,0 C 51.897066,9.141664 51.961092,8.579367 52.587634,7.921248 53.00511,7.47154 53.67978,7.166436 54.547399,7.086077 a 3.089805,3.089805 0 0 1 0.546182,0 c 1.478481,0.09626 2.185382,0.851286 2.185382,2.152062 v 4.70592 c 0.04813,0.321219 0.385681,0.498053 0.835388,0.305104 a 1.153777,1.153777 0 0 0 0.35345,-0.273091 l 0.128924,0.208848 c -0.04856,0.08036 -0.09647,0.14482 -0.144604,0.224962 -0.241077,0.304886 -0.498053,0.529849 -0.803374,0.706465 -0.658773,0.385028 -1.333878,0.144168 -1.510495,-0.417476 -0.03223,-0.128707 -0.06424,-0.256976 -0.08036,-0.385682 l -0.03223,-0.305104 -0.01611,-0.08015 c -0.07993,0.08015 -0.176616,0.160284 -0.272656,0.240861 -0.433809,0.369348 -0.787695,0.610425 -1.173159,0.834953 -1.285095,0.706465 -2.489614,0.144385 -2.74659,-1.156173 -0.224962,-1.156608 0.288989,-2.023791 1.798829,-2.74659 l 0.658555,-0.321219 0.192514,-0.08015 c 0.257411,-0.112373 0.546835,-0.240861 0.851722,-0.35345 l 0.321654,-0.128488 z m -0.52985,0.626105 -0.193166,0.08036 -0.546182,0.256976 c -0.594529,0.273308 -0.803158,0.401578 -0.996107,0.562297 -0.513952,0.449272 -0.690568,0.867183 -0.626325,1.461494 0.03223,0.273091 0.09648,0.465605 0.192732,0.626106 0.417695,0.723016 1.092147,0.899632 2.072356,0.337335 0.241078,-0.12827 0.449925,-0.305104 0.626542,-0.513734 v -2.98745 c -0.208412,0.06424 -0.385246,0.128706 -0.52985,0.176616 z m 8.207759,-3.613555 h 0.224523 v 2.457601 l -0.176616,0.0159 C 63.654532,9.478784 63.638872,9.366411 63.606412,9.254039 63.34944,8.290598 62.883831,7.80866 62.161031,7.631826 c -0.337329,-0.06424 -0.674228,-0.06424 -0.931428,-0.0159 -0.75503,0.192731 -1.108044,1.0438 -0.706466,1.702355 0.16029,0.272872 0.369137,0.465822 0.883083,0.787042 l 0.06426,0.03201 0.786822,0.433592 0.337337,0.192732 c 0.803157,0.513951 1.140705,0.819055 1.365456,1.220634 0.497611,0.883734 0.497611,1.589982 -0.03221,2.393139 -0.288773,0.44949 -0.786831,0.77071 -1.509623,0.89898 -0.417263,0.08015 -0.915312,0.06424 -1.670343,-0.144603 l -0.208847,-0.04792 -0.208846,-0.06424 -0.04812,-0.01611 -0.273088,-0.03201 c -0.208847,-0.03201 -0.353014,0.06424 -0.353014,0.240643 h -0.144605 v -2.730257 h 0.160282 c 0.01615,0.176834 0.03221,0.353667 0.08033,0.530067 0.176616,0.642656 0.546175,1.188403 1.028118,1.493506 0.369129,0.24086 0.754592,0.369131 1.139836,0.369131 0.915751,-0.0159 1.429486,-0.706465 1.188409,-1.606098 -0.07993,-0.288989 -0.240647,-0.513733 -0.610433,-0.819055 a 3.5765342,3.5765342 0 0 1 -0.256535,-0.192731 l -0.08033,-0.03201 -0.578414,-0.369348 -0.369129,-0.224526 -0.289203,-0.176834 C 59.687795,10.715318 59.254425,9.87993 59.462833,8.868143 c 0.144606,-0.754594 0.65877,-1.349122 1.429486,-1.621995 0.513726,-0.192732 0.851063,-0.192732 1.589979,0 l 0.04812,0.0159 0.417693,0.128487 c 0.112375,0.03223 0.224532,0.04835 0.321222,0.06424 0.241296,0.03245 0.401578,-0.12827 0.353452,-0.337117 z m 12.796511,3.067592 h -4.914331 a 3.2733901,3.2733901 0 0 0 0,0.562079 4.5443305,4.5443305 0 0 0 0.224961,1.268763 c 0.641787,1.991561 2.200412,2.55364 3.661251,1.557751 0.402017,-0.256975 0.755031,-0.658337 0.995669,-1.124377 0.04852,-0.08058 0.08082,-0.160502 0.112814,-0.240643 l 0.176616,0.03223 c -0.03181,0.09626 -0.04812,0.192515 -0.08033,0.304887 -0.08033,0.289424 -0.192732,0.562297 -0.320784,0.819273 -0.2254,0.465387 -0.481935,0.80294 -0.787261,1.108043 -1.445373,1.412931 -3.629451,1.027468 -4.561317,-0.755028 A 5.4043277,5.4043277 0 0 1 70.428955,12.288961 C 69.850979,9.237485 71.66549,7.069308 73.673381,7.10132 c 0.208416,0.01611 0.401148,0.03223 0.609995,0.08036 1.22063,0.289206 1.959546,1.172505 2.119828,2.601769 0.01615,0.14482 0.01615,0.273308 0.01615,0.401796 z M 74.781181,9.735539 c 0,-0.09626 0,-0.176617 -0.01615,-0.272655 C 74.748881,9.061087 74.668551,8.739868 74.524384,8.466994 74.106691,7.583695 73.046343,7.390963 72.211386,8.129659 71.906498,8.40275 71.665203,8.804329 71.53672,9.398422 71.50491,9.511012 71.4886,9.623384 71.47246,9.735539 Z m 2.58456,5.444399 v -0.224745 h 0.208847 c 0.690351,-0.0159 1.091929,-0.385464 1.140274,-1.011788 l 0.01566,-0.208629 V 9.623167 L 78.714862,9.01274 c 0,-0.658336 -0.385682,-0.899197 -0.883512,-0.690785 l -0.144606,0.06446 -0.04812,0.03201 -0.09648,-0.224745 2.569979,-1.108261 v 1.525738 l 0.04812,-0.09626 0.12849,-0.19295 c 0.240639,-0.401361 0.417693,-0.626106 0.626102,-0.786606 0.369129,-0.305104 0.723019,-0.43381 1.076033,-0.449708 0.722581,-0.01611 1.172724,0.610208 0.979554,1.108262 -0.192293,0.545964 -0.754592,0.674452 -1.123721,0.353233 l -0.09648,-0.08036 -0.06427,-0.06402 C 81.283935,8.017066 81.075526,8.017066 80.56223,8.483108 80.176547,8.83634 80.064172,9.093316 80.064172,9.63928 v 4.14384 l 0.01566,0.160719 c 0.06426,0.626106 0.465819,0.995672 1.22063,1.011787 h 0.224524 v 0.224745 h -4.159301 z m 10.67777,-8.062283 h 0.22497 v 2.457601 l -0.176836,0.0159 C 88.075495,9.478784 88.059835,9.366411 88.027385,9.254039 87.769974,8.290598 87.304803,7.80866 86.582011,7.631826 c -0.337775,-0.06424 -0.674674,-0.06424 -0.931428,-0.0159 -0.75503,0.192731 -1.108482,1.0438 -0.706904,1.702355 0.160721,0.272872 0.369567,0.465822 0.883521,0.787042 l 0.06427,0.03201 0.78726,0.433592 c 0.111937,0.06424 0.224524,0.128488 0.337337,0.192732 0.802718,0.513951 1.139836,0.819055 1.364579,1.220634 0.498058,0.883734 0.498058,1.589982 -0.03181,2.393139 -0.288773,0.44949 -0.786822,0.77071 -1.509623,0.89898 -0.417693,0.08015 -0.915751,0.06424 -1.670781,-0.144603 l -0.208409,-0.04792 -0.208846,-0.06424 -0.04812,-0.01611 -0.273096,-0.03201 c -0.208847,-0.03201 -0.353452,0.06424 -0.353452,0.240643 h -0.144598 v -2.730257 h 0.160721 c 0.01615,0.176834 0.03181,0.353667 0.08033,0.530067 0.176616,0.642656 0.546184,1.188403 1.028118,1.493506 0.369129,0.24086 0.754592,0.369131 1.139844,0.369131 0.915743,-0.0159 1.42904,-0.706465 1.188401,-1.606098 -0.07993,-0.288989 -0.240647,-0.513733 -0.610425,-0.819055 a 3.4815839,3.4815839 0 0 1 -0.256543,-0.192731 l -0.08033,-0.03201 -0.578414,-0.369348 -0.369568,-0.224526 -0.288772,-0.176834 C 84.108746,10.715318 83.67493,9.87993 83.883776,8.868143 c 0.144606,-0.754594 0.65834,-1.349122 1.429486,-1.621995 0.513734,-0.192732 0.851071,-0.192732 1.589978,0 l 0.0486,0.0159 0.417264,0.128487 c 0.112805,0.03223 0.224523,0.04835 0.321652,0.06424 0.240427,0.03245 0.400929,-0.12827 0.352794,-0.337117 z M 102.57157,0.84549 c -4.297162,3.92258 -6.088806,9.228038 -6.128006,11.79518 -0.0093,0.628937 0.06508,0.990227 0.129796,1.170981 0.06792,-0.116074 0.164202,-0.330801 0.268301,-0.72846 1.405743,-5.344004 4.082429,-7.876302 5.603159,-9.141146 0.71366,-0.594092 1.57343,-0.880032 1.57343,-0.880032 0,0 -0.53768,0.662693 -0.87567,1.102382 -1.12155,1.457357 -1.67971,6.564637 -0.87916,7.572287 0.0562,0.07034 0.0932,0.116728 0.26328,0.0032 1.69125,-1.126991 2.17776,-1.347816 2.48308,-1.3611 a 0.36412137,0.36412137 0 0 0 -0.0375,0.0039 c 0.16965,-0.02657 0.50742,0.022 0.69797,0.372179 0.13524,0.249136 0.16072,0.80098 0.1923,2.199973 0.0286,1.263971 0.0773,3.363331 0.40376,3.788211 0.29857,-0.187069 1.04925,-2.166434 1.53467,-3.495956 0.006,-0.01394 0.51002,0.72454 0.51221,0.716918 -0.19448,0.776589 -0.94973,3.622703 -1.84805,3.965482 -0.2119,0.08123 -0.43382,0.05532 -0.6248,-0.07404 -0.6002,-0.405717 -0.82603,-1.705621 -1.07996,-3.497482 -0.0771,-0.541609 -0.16964,-1.195808 -0.25697,-1.463237 -0.28659,0.139159 -1.02158,0.969103 -1.99874,2.073445 l -0.60781,0.686212 c -0.18511,0.207976 -0.74697,0.840833 -1.31254,0.606071 -0.838873,-0.348442 -0.781813,-2.299279 -0.599763,-5.235987 0.0331,-0.534641 0.0312,-0.972152 0.0941,-1.429918 0.003,-0.02265 -0.0157,-0.05923 -0.0157,-0.07927 -0.620659,0.756555 -1.921216,3.678672 -2.422324,7.211869 -0.253922,1.791642 -0.921188,2.215217 -1.436886,2.255069 -0.870668,0.06795 -1.767252,-0.981298 -2.284898,-2.673634 C 92.83498,12.763412 93.004407,5.574193 101.83697,0.642658 102.55585,0.241296 103.44176,0 103.44176,0 c 0,0 -0.48739,0.495877 -0.87024,0.845406 z"
     id="path4"
     inkscape:connector-curvature="0"
     style="fill:#ffffff;stroke-width:0.21777593" />
  <path
     d="m 102.23967,0.784513 c -8.216465,7.671157 -5.996895,16.666392 -5.071342,12.384699 1.282478,-5.931128 5.894322,-9.30121 5.894322,-9.30121 0,0 -0.96257,0.841051 -1.33605,3.701755 -0.48565,3.72092 0.18663,4.985327 0.98761,4.451122 1.55165,-1.034 2.07344,-1.294024 2.30995,-1.304259 0,0 0.22125,-0.03462 0.34887,0.200136 0.28115,0.516346 -0.034,5.286728 0.65072,6.068544 0.71321,0.814482 1.88006,-2.945202 1.88006,-2.945202 l 0.0307,0.128924 c 0,0 -1.00634,4.014916 -1.9051,3.406669 -0.8992,-0.607377 -0.92555,-4.927399 -1.36198,-5.030189 -0.43598,-0.10279 -0.9643,0.565564 -3.02424,2.88466 -2.059513,2.319096 -1.31951,-3.382061 -1.24459,-5.842057 0.0652,-2.136383 -2.362001,1.936681 -3.093078,7.091437 -1.040971,7.341663 -9.670343,-7.623464 4.934148,-15.895029 z"
     id="path6"
     inkscape:connector-curvature="0"
     style="fill:#ffffff;stroke-width:0.21777593" />
  <path
     d="m 91.439513,4.698817 c -0.799676,0 -1.448644,0.648972 -1.444506,1.444508 a 1.4421122,1.4421122 0 0 0 1.444506,1.444508 c 0.795756,-0.0039 1.444505,-0.644835 1.444505,-1.444508 -2.19e-4,-0.795536 -0.648749,-1.444508 -1.444505,-1.444508 z m 0,2.721546 c -0.707335,0.0044 -1.276823,-0.569484 -1.276823,-1.2729 a 1.2739892,1.2739892 0 0 1 1.272684,-1.281394 c 0.707773,0 1.28118,0.573622 1.28118,1.277038 a 1.2770381,1.2770381 0 0 1 -1.277041,1.277256 z"
     id="path8"
     inkscape:connector-curvature="0"
     style="fill:#ffffff;stroke-width:0.21777593" />
  <path
     d="m 91.632025,6.093019 c 0.141993,-0.0041 0.247179,-0.07971 0.29313,-0.117164 0.09233,-0.07971 0.192294,-0.293344 0.08341,-0.48564 -0.0499,-0.08798 -0.15005,-0.142426 -0.21778,-0.167687 -0.0956,-0.03746 -0.213196,-0.04181 -0.32209,-0.04181 h -0.699277 v 0.07535 c 0.167691,0 0.184236,0.0044 0.184236,0.125875 v 1.205825 c 0,0.07971 -0.108886,0.108888 -0.204928,0.108888 v 0.07556 h 0.669879 v -0.07579 c -0.09233,0 -0.196862,-0.0209 -0.196862,-0.121519 V 6.130684 h 0.108886 l 0.557284,0.741092 h 0.397659 v -0.07535 c -0.05445,0 -0.104966,0 -0.15048,-0.05859 z M 91.22174,6.034439 91.21764,5.452324 a 0.09081256,0.09081256 0 0 1 0.08798,-0.08363 l 0.222137,0.01677 c 0.06686,0.0041 0.22213,0.04617 0.242822,0.267864 0.02045,0.167687 -0.05883,0.288989 -0.247179,0.34757 -0.108456,0.03768 -0.213853,0.02918 -0.301399,0.03354 z"
     id="path10"
     inkscape:connector-curvature="0"
     style="fill:#ffffff;stroke-width:0.21777593" />
  <path
     d="m 3.680508,25.762825 c 0.3410322,0 0.6727072,-0.08003 0.995024,-0.240074 0.3223169,-0.160055 0.5874489,-0.374981 0.7953953,-0.644778 v 0 L 4.8782797,24.233195 c -0.1538801,0.196634 -0.330635,0.347539 -0.5302635,0.45272 -0.1996285,0.105173 -0.4138133,0.157761 -0.6425545,0.157761 -0.2037877,0 -0.3919792,-0.04001 -0.5645746,-0.120038 C 2.9682911,24.643611 2.81857,24.535004 2.6917222,24.39782 2.5648747,24.260633 2.4650607,24.097153 2.3922792,23.907379 2.3194984,23.717602 2.283108,23.512967 2.283108,23.293467 c 0,-0.224071 0.03535,-0.430993 0.1060524,-0.620769 0.070702,-0.189775 0.1684368,-0.3544 0.2932047,-0.493872 0.1247674,-0.139471 0.2734493,-0.249221 0.4460451,-0.329247 0.1725955,-0.08003 0.3566278,-0.120035 0.5520979,-0.120035 0.2329002,0 0.4533234,0.05602 0.6612699,0.168051 0.2079466,0.11204 0.3888601,0.273231 0.5427402,0.483582 v 0 L 5.4958811,21.715821 C 5.2920933,21.441451 5.0259219,21.223096 4.6973663,21.060759 4.3688107,20.898418 4.0298582,20.817253 3.6805081,20.817253 c -0.3243966,0 -0.6290383,0.06403 -0.9139248,0.192063 -0.2848868,0.128036 -0.5313035,0.301806 -0.7392498,0.521304 -0.2079463,0.2195 -0.3722242,0.481298 -0.4928331,0.785393 -0.1206086,0.304097 -0.180913,0.629913 -0.180913,0.977454 0,0.347536 0.059262,0.672217 0.1777934,0.974027 0.1185296,0.301809 0.2817677,0.562462 0.4897143,0.781962 0.2079466,0.219497 0.454363,0.39327 0.7392498,0.521309 0.2848868,0.12804 0.5916078,0.19206 0.9201631,0.19206 z m 11.821758,0.0069 c 0.324396,0 0.627998,-0.06401 0.910806,-0.19206 0.282807,-0.128041 0.527142,-0.302951 0.733011,-0.524739 0.205866,-0.221784 0.369105,-0.484726 0.489715,-0.78882 0.120611,-0.304097 0.180911,-0.627634 0.180911,-0.970597 0,-0.342968 -0.0603,-0.666499 -0.180911,-0.970593 -0.12061,-0.304101 -0.283849,-0.567041 -0.489715,-0.788825 -0.205869,-0.221785 -0.450204,-0.396697 -0.733011,-0.524739 -0.282808,-0.128041 -0.58641,-0.19206 -0.910806,-0.19206 -0.320238,0 -0.621761,0.06401 -0.904568,0.19206 -0.282808,0.128042 -0.527143,0.302954 -0.733012,0.524739 -0.205866,0.221784 -0.369104,0.484724 -0.489713,0.788823 -0.120608,0.304094 -0.180914,0.627625 -0.180914,0.970593 0,0.342964 0.06031,0.666499 0.180914,0.970596 0.120609,0.304095 0.283847,0.567036 0.489713,0.788821 0.205869,0.221787 0.450204,0.396698 0.733012,0.524739 0.282807,0.128042 0.58433,0.19206 0.904568,0.19206 z m 0,-0.912291 c -0.195468,0 -0.377423,-0.04001 -0.545858,-0.120038 -0.168438,-0.08003 -0.314,-0.189772 -0.43669,-0.329246 -0.122687,-0.139475 -0.219383,-0.305242 -0.290084,-0.497302 -0.07071,-0.192067 -0.106056,-0.397844 -0.106056,-0.617341 0,-0.224069 0.03535,-0.430994 0.106056,-0.620767 0.0707,-0.189777 0.167397,-0.3544 0.290084,-0.493872 0.12269,-0.139475 0.268252,-0.249225 0.43669,-0.32925 0.168435,-0.08003 0.35039,-0.120038 0.545858,-0.120038 0.195469,0 0.378462,0.04001 0.548979,0.120038 0.170515,0.08003 0.317118,0.189775 0.439809,0.32925 0.122685,0.139472 0.21938,0.304095 0.290085,0.493872 0.0707,0.189773 0.106055,0.396698 0.106055,0.620767 0,0.219497 -0.03535,0.425274 -0.106055,0.617341 -0.07071,0.19206 -0.1674,0.357827 -0.290085,0.497302 -0.122691,0.139474 -0.269294,0.249221 -0.439809,0.329245 -0.170517,0.08003 -0.35351,0.120037 -0.548979,0.120037 z m 13.711992,0.836837 V 24.816233 H 26.824956 V 20.8927 h -0.904571 v 4.801525 z m 11.403784,0 V 24.816233 H 38.228735 V 20.8927 h -0.904563 v 4.801525 z m 11.491122,0 v -0.864315 h -2.476643 v -1.13865 h 1.615747 V 22.85447 h -1.615747 v -1.097491 h 2.451691 v -0.864275 h -3.356254 v 4.801528 z m 10.03134,0.06859 c 0.341035,0 0.672708,-0.08003 0.995023,-0.240076 0.322319,-0.16005 0.58745,-0.374977 0.795399,-0.644777 v 0 l -0.592647,-0.644776 c -0.153879,0.196634 -0.330636,0.347536 -0.530268,0.452714 -0.199628,0.105173 -0.413813,0.157763 -0.642555,0.157763 -0.203782,0 -0.391978,-0.04001 -0.564569,-0.120035 -0.1726,-0.08003 -0.32232,-0.188636 -0.449166,-0.32582 -0.126848,-0.137185 -0.226666,-0.300665 -0.299441,-0.490441 -0.07279,-0.189774 -0.109182,-0.394414 -0.109182,-0.613912 0,-0.224069 0.03535,-0.430993 0.106056,-0.620767 0.0707,-0.189777 0.168432,-0.3544 0.293202,-0.493871 0.12477,-0.139475 0.273448,-0.249225 0.446046,-0.32925 0.172594,-0.08003 0.356627,-0.120038 0.552096,-0.120038 0.232903,0 0.453324,0.05602 0.661269,0.168057 0.207947,0.11204 0.388864,0.273224 0.542743,0.483576 v 0 l 0.611359,-0.665351 c -0.203781,-0.274374 -0.469957,-0.492729 -0.798515,-0.655068 -0.328551,-0.162335 -0.667505,-0.243502 -1.016856,-0.243502 -0.324397,0 -0.629037,0.06402 -0.913923,0.192059 -0.284886,0.128042 -0.531304,0.30181 -0.739251,0.52131 -0.207945,0.2195 -0.372221,0.481294 -0.492831,0.785391 -0.120612,0.304095 -0.180916,0.629912 -0.180916,0.977454 0,0.347536 0.05926,0.672215 0.177793,0.974024 0.118534,0.301812 0.281769,0.562467 0.489718,0.781964 0.207942,0.2195 0.454359,0.39327 0.739246,0.521308 0.284891,0.128038 0.591607,0.192061 0.920164,0.192061 z m 11.965243,-0.06859 v -3.923535 h 1.46602 v -0.877992 h -3.842851 v 0.877991 h 1.472265 v 3.923534 z m 10.361975,0 v -4.801526 h -0.904566 v 4.801526 z m 10.418118,0.07545 c 0.324397,0 0.627999,-0.06401 0.910806,-0.19206 0.282807,-0.128041 0.527146,-0.302952 0.733012,-0.524739 0.205868,-0.221784 0.369103,-0.484725 0.489714,-0.78882 0.120609,-0.304097 0.180913,-0.627633 0.180913,-0.970598 0,-0.342967 -0.06031,-0.666498 -0.180913,-0.970592 -0.120611,-0.304098 -0.283846,-0.567039 -0.489714,-0.788823 -0.205866,-0.221784 -0.450205,-0.396697 -0.733012,-0.524739 -0.282807,-0.128041 -0.586409,-0.192059 -0.910806,-0.192059 -0.320238,0 -0.621758,0.06401 -0.90457,0.192059 -0.282803,0.128042 -0.527146,0.302955 -0.733006,0.524739 -0.20587,0.221784 -0.369109,0.484725 -0.489715,0.788824 -0.120612,0.304093 -0.180916,0.627625 -0.180916,0.970592 0,0.342965 0.06031,0.6665 0.180916,0.970597 0.120606,0.304095 0.283845,0.567036 0.489715,0.78882 0.20586,0.221788 0.450203,0.396698 0.733006,0.524739 0.282812,0.128042 0.584332,0.19206 0.90457,0.19206 z m 0,-0.912291 c -0.195466,0 -0.377425,-0.04001 -0.545857,-0.120038 -0.168438,-0.08003 -0.314,-0.18977 -0.436691,-0.329244 -0.122687,-0.139475 -0.21938,-0.305241 -0.290087,-0.497302 -0.0707,-0.192067 -0.106044,-0.397843 -0.106044,-0.617341 0,-0.224069 0.03535,-0.430993 0.106044,-0.620767 0.07071,-0.189777 0.1674,-0.3544 0.290087,-0.493871 0.122691,-0.139476 0.268253,-0.249225 0.436691,-0.32925 0.168432,-0.08003 0.350391,-0.120038 0.545857,-0.120038 0.195467,0 0.378465,0.04001 0.548979,0.120038 0.170519,0.08003 0.317122,0.189774 0.439809,0.32925 0.122685,0.139471 0.21938,0.304094 0.290082,0.493871 0.07071,0.189774 0.106056,0.396698 0.106056,0.620767 0,0.219498 -0.03535,0.425274 -0.106056,0.617341 -0.07071,0.192061 -0.167397,0.357827 -0.290082,0.497302 -0.122687,0.139474 -0.26929,0.249222 -0.439809,0.329245 -0.170514,0.08003 -0.353512,0.120037 -0.548979,0.120037 z m 11.27278,0.836837 v -3.210164 l 2.22711,3.210165 h 0.79851 v -4.801526 h -0.84842 v 3.107276 l -2.17097,-3.107276 h -0.86089 v 4.801526 z"
     id="COLLECTION"
     inkscape:connector-curvature="0"
     style="fill:#ffffff;fill-rule:nonzero;stroke:none;stroke-width:0.27953923" />
</svg>
