<?xml version="1.0" encoding="UTF-8" standalone="no"?>
<svg
   xmlns:dc="http://purl.org/dc/elements/1.1/"
   xmlns:cc="http://creativecommons.org/ns#"
   xmlns:rdf="http://www.w3.org/1999/02/22-rdf-syntax-ns#"
   xmlns:svg="http://www.w3.org/2000/svg"
   xmlns="http://www.w3.org/2000/svg"
   xmlns:sodipodi="http://sodipodi.sourceforge.net/DTD/sodipodi-0.dtd"
   xmlns:inkscape="http://www.inkscape.org/namespaces/inkscape"
   width="500"
   height="200"
   viewBox="0 0 500 200"
   version="1.1"
   id="svg77"
   sodipodi:docname="coleco.svg"
   inkscape:version="0.92.5 (2060ec1f9f, 2020-04-08)">
  <metadata
     id="metadata83">
    <rdf:RDF>
      <cc:Work
         rdf:about="">
        <dc:format>image/svg+xml</dc:format>
        <dc:type
           rdf:resource="http://purl.org/dc/dcmitype/StillImage" />
        <dc:title>syslogo</dc:title>
      </cc:Work>
    </rdf:RDF>
  </metadata>
  <defs
     id="defs81" />
  <sodipodi:namedview
     pagecolor="#ffffff"
     bordercolor="#666666"
     borderopacity="1"
     objecttolerance="10"
     gridtolerance="10"
     guidetolerance="10"
     inkscape:pageopacity="0"
     inkscape:pageshadow="2"
     inkscape:window-width="1366"
     inkscape:window-height="740"
     id="namedview79"
     showgrid="false"
     inkscape:pagecheckerboard="true"
     inkscape:zoom="1.4492866"
     inkscape:cx="201.5"
     inkscape:cy="63.5"
     inkscape:window-x="0"
     inkscape:window-y="0"
     inkscape:window-maximized="1"
     inkscape:current-layer="svg77" />
  <title
     id="title66">syslogo</title>
  <g
     id="Page-1"
     style="fill:none;fill-rule:evenodd;stroke:none;stroke-width:1"
     transform="matrix(1.164366,0,0,1.164366,20.699839,27.975652)">
    <g
       id="syslogo"
       style="fill:#ffffff;fill-rule:nonzero">
      <g
         id="COLECO_VISION_LOGO">
        <path
           d="m 64.5,0 c 2.000045,0 3.713585,0.92308585 4.78125,2.046875 0.558545,0.587906 1.000505,1.1845053 1.296875,1.859375 C 73.408475,1.8671076 77.0245,0 81.5,0 v 0 h 45 c 3.83985,0 6.97941,1.5203485 9.70312,3.15625 0.16538,-0.217332 0.26599,-0.4660784 0.45313,-0.671875 C 137.88917,1.1285472 139.75393,0 142,0 v 0 h 19 c 3.7855,0 7.5,2.7644174 7.5,7 v 0 29 c 0,1.013958 0.28805,1.320371 0.98442,1.78125 0.69633,0.460879 1.89797,0.726065 2.48438,0.71875 v 0 H 181.5 V 0 H 256 V 2.484375 C 258.41237,1.1430998 261.57591,0 265.5,0 v 0 h 43 c 2.18511,0 3.98608,1.2821063 4.96875,2.625 0.30601,0.4181955 0.47909,0.8511622 0.6875,1.28125 C 317.39237,1.7236589 321.38804,0 326,0 v 0 h 42.5 c 6.79525,0 12.28852,2.9447871 15.92187,6.9375 3.63336,3.992713 5.56611,8.946551 5.57813,13.546875 v 0 V 49.5 c 0,4.59402 -2.47632,9.312045 -6.125,13.234375 -3.61516,3.886295 -8.64759,7.012475 -14.375,6.765625 -0.0531,-0.0025 -0.10303,0.003 -0.15625,0 v 0 h -2.28125 c 2.81598,4.62462 3.05028,8.30326 3.40625,11.125 v 0 L 370.5,80.8125 V 119.5 c 0,2.24017 -1.10546,3.91217 -2.40625,5.18748 -1.30079,1.27533 -2.9102,2.31267 -5.09375,2.31267 v 0 h -19.5 c -2.49739,0 -4.45486,-1.37816 -5.625,-2.81267 -1.17014,-1.43452 -1.8605,-2.80436 -1.875,-4.67188 v 0 V 91.5 c 0,-0.977205 -0.36112,-1.559325 -1.03125,-2.109375 C 334.29862,88.840575 333.27591,88.5015 332.5,88.5 v 0 H 320 v 31 c 0,2.71989 -1.69348,4.79287 -3.29688,5.89063 -1.60339,1.09775 -2.99016,1.60952 -4.70312,1.60952 v 0 h -19 c -2.37534,0 -4.30923,-1.34269 -5.70313,-3.31263 -1.83386,1.13283 -4.54903,2.44988 -11.4375,3.29688 v 0 l -0.17187,0.0158 H 233.5 c -3.87788,0 -7.76696,-1.42712 -10.95313,-3.29702 -0.17056,0.24735 -0.32726,0.5025 -0.53125,0.73437 -1.37575,1.56377 -3.58616,2.57675 -6.01562,2.56265 v 0 h -19 c -2.4514,0 -4.5125,-1.43625 -5.57813,-3.01577 -0.61376,0.36234 -1.1853,0.75547 -1.85937,1.07812 -2.31818,1.10964 -4.89404,1.9443 -7.5625,1.93765 v 0 h -73.5 c -2.30535,0 -4.52014,-0.96713 -5.8125,-2.59392 -1.29235,-1.62678 -1.6739,-3.5614 -1.6875,-5.39063 v 0 -29.10935 l -22.453125,35.6875 -0.890625,1.4064 H 52.3125 L 51.4375,125.54688 17.25,68.890625 C 12.26374,68.3572 8.0459115,65.620825 5.125,62.03125 1.8662361,58.02648 0.013339,52.96586 0,48.015625 v 0 V 20.5 C 0,16.470499 1.4626317,11.545355 4.984375,7.375 8.5061185,3.204645 14.244317,0 22,0 v 0 z m 0,3 H 22 C 8.067765,3 3,14.000409 3,20.5 v 0 27.5 c 0.0225,8.34996 6.5219005,18 16,18 v 0 l 35,58.0003 H 76 L 104,79.5 V 119 c 0.0207,2.79098 1.24775,5.0003 4.5,5.0003 v 0 H 182 c 3.93387,0.01 9.1175,-2.73689 11,-5.0003 0,1.76201 0.73119,5.0003 4,5.0003 v 0 h 19 c 3.37119,0.032 5,-2.50274 5,-5.0003 2.81217,2.38346 8.30013,5.0003 12.5,5.0003 v 0 h 42 c 9.96497,-1.22558 9.73439,-2.94821 13,-4.5003 0.86223,2.91331 2.73791,4.5003 4.5,4.5003 v 0 h 19 c 1.3702,0 5,-1.40868 5,-4.5003 v 0 -34 h 15.5 c 3.00965,0.0055 6.5,2.20577 6.5,6 v 0 28 c 0.0111,1.43221 1.6842,4.5003 4.5,4.5003 v 0 H 363 c 1.99651,0 4.5,-2.36676 4.5,-4.5003 v 0 V 81 c -0.51459,-4.079125 -0.36523,-7.85514 -6.5,-14.5 v 0 h 8.5 c 9.13152,0.49264 17.5,-10.315985 17.5,-17 v 0 -29 C 386.98057,13.061849 380.39934,3 368.5,3 V 3 H 326 c -5.79965,0 -11.00064,3.358254 -14,6.5 V 9.5 7 c -0.0994,-1.6135445 -1.27267,-4 -3.5,-4 v 0 h -43 C 258.45616,3 254.51908,7.030786 253,8.5 V 8.5 3 H 184.5 V 41.5 H 172 c -2.43752,0.03041 -6.5,-1.460636 -6.5,-5.5 V 36 7 c 0,-2.280149 -2.22934,-4 -4.5,-4 v 0 h -19 c -2.48736,0 -4.34673,2.493301 -4.5,4.5 C 134.076,5.354538 130.63003,3 126.5,3 v 0 h -45 C 75.40619,3 70.51948,7.551501 68,10 V 10 6 C 68,4.958223 66.7894,3 64.5,3 Z M 68,59.5 c 3.273555,3.52473 8.03201,7 14,7 v 0 l -17,25 -13.5,-25 h 13 c 2.400685,0 3.438305,-1.029755 3.5,-3.5 v 0 z m 2.59375,6.109375 c -0.26912,0.79409 -0.69736,1.54223 -1.34375,2.1875 C 67.932045,69.112545 66.129285,69.5 64.5,69.5 v 0 H 56.53125 L 65.296875,85.734375 76.84375,68.75 c -2.356765,-0.68363 -4.390775,-1.84277 -6.25,-3.140625 z"
           id="Combined-Shape"
           inkscape:connector-curvature="0" />
        <path
           d="m 192.5,65 v 15.5 h -44 c -5.02897,0 -4.74789,5 0,5 0,0 19.33333,0 29,0 22.59359,0 22.58743,33.5 0,33.5 -15.16667,0 -45.5,0 -45.5,0 v -15 c 0,0 29,0 43.5,0 5.20622,0 4.85252,-5 0,-5 -9,0 -27,0 -27,0 -23.21762,0 -23.13547,-34 0,-34 14.66666,0 44,0 44,0 z m 101,0 H 345 c 9.24333,0 17.47868,7.17654 17.5,17 v 37 H 344 V 87 c 0,-5.340605 -3.17642,-6.42353 -7,-6.5 H 312 V 119 H 293.5 Z M 245,80.060425 c -4.9152,0.029 -7,3.11505 -7,6.939575 v 10 c 0,4.15412 3.57185,7 7,7 h 20.5 c 2.43069,0 6.5,-1.64566 6.5,-7 V 87 c 0,-3.363285 -2.04902,-7.086665 -6.5,-7.060563 z M 238,65 h 34.5 c 10.95058,0 18,7.458175 18,16.5 v 20 c 0,14.18216 -12.25313,17.5 -18,17.5 H 238 c -12.9589,0 -18.5,-10.42654 -18.5,-17.5 v -20 C 219.5,69.98456 229.80535,65 238,65 Z m -40.5,0 H 216 v 54 h -18.5 z m -89,0 H 127 v 54 h -18.5 z m -84,0 H 45 l 20,35 23.5,-35 h 17 l -32,54 H 56.691275 Z M 189.5,8 H 248 v 13.5 h -40.5 v 5 H 248 V 40 h -40.5 c 0,4.963599 3.64575,7 7.5,7 h 33 v 14.5 h -42.5 c -9.52193,0 -16.06964,-7.90448 -16.0476,-16.5 z m -47,0 h 18 v 32 c 0,4.597141 3.46464,7.047719 7.5,7 h 19.5 v 14.5 h -28 c -7.94967,0 -17,-3.57341 -17,-16.5 z m 166,-9e-4 H 268 c -11.65265,0 -16.47337,10.718704 -16.5,16.5 v 20 c 0,12.970635 10.67016,17.57585 16.5,17.5 h 40.5 v -15 h -31 c -2.20583,0 -7.5,-1.633451 -7.5,-6.5 v -10.5 c 0,-5.001803 3.76537,-7 7.5,-7 h 31 z m 29,15.061345 c -4.91521,0.02897 -7,3.115052 -7,6.939575 v 10 c 0,4.154126 3.57186,7 7,7 H 358 c 2.43069,0 6.5,-1.645665 6.5,-7 v -10 c 0,-3.363286 -2.04902,-7.086664 -6.5,-7.060563 z m -7,-15.0604465 H 365 c 10.95058,0 18,7.4581995 18,16.5000215 v 20 c 0,14.182145 -12.25313,17.499978 -18,17.499978 h -34.5 c -12.95889,0 -18.5,-10.426538 -18.5,-17.5 v -20 C 312,12.984557 322.30536,7.9999985 330.5,7.9999985 Z M 93.5,23.060425 c -4.915205,0.02898 -7,3.115052 -7,6.939575 v 10 c 0,4.154126 3.571855,7 7,7 H 114 c 2.43069,0 6.5,-1.645665 6.5,-7 V 30 c 0,-3.363286 -2.04901,-7.086664 -6.5,-7.060563 z M 86.5,8 H 121 c 10.95058,0 18,7.458178 18,16.5 v 20 C 139,58.682165 126.74687,62 121,62 H 86.5 c -12.958895,0 -18,-10.42654 -18,-17.5 v -20 C 68.5,12.984559 78.305355,8 86.5,8 Z M 65,8 H 24.5 C 12.847353,8 8.026633,18.718704 8,24.5 v 20 C 8,57.470635 18.670156,62.07585 24.5,62 H 65 V 47 H 33.5 C 31.294166,47 26,45.366549 26,40.5 V 30 c 0,-5.001803 3.765369,-7 7.5,-7 H 65 Z"
           id="Shape"
           inkscape:connector-curvature="0" />
      </g>
      <g
         id="Group-9"
         transform="translate(390)">
        <polygon
           id="Path"
           points="3.1025641,6.5 2.1153846,6.5 2.1153846,0.96808511 0,0.96808511 0,0 5.5,0 5.5,0.96808511 3.1025641,0.96808511 " />
        <polygon
           id="polygon72"
           points="12.031915,6.5 12.031915,0.96808511 10.37234,6.5 9.4042553,6.5 7.606383,0.96808511 7.606383,6.5 6.5,6.5 6.5,3.0708296e-16 8.1595745,3.0708296e-16 9.8191489,5.2553192 11.478723,0 13,0 13,6.5 " />
      </g>
    </g>
  </g>
</svg>
