<?xml version="1.0" encoding="UTF-8" standalone="no"?>
<svg
   xmlns:dc="http://purl.org/dc/elements/1.1/"
   xmlns:cc="http://creativecommons.org/ns#"
   xmlns:rdf="http://www.w3.org/1999/02/22-rdf-syntax-ns#"
   xmlns:svg="http://www.w3.org/2000/svg"
   xmlns="http://www.w3.org/2000/svg"
   xmlns:sodipodi="http://sodipodi.sourceforge.net/DTD/sodipodi-0.dtd"
   xmlns:inkscape="http://www.inkscape.org/namespaces/inkscape"
   width="500"
   height="200"
   viewBox="0 0 500 200"
   version="1.1"
   id="svg38"
   sodipodi:docname="cps2.svg"
   style="fill:none"
   inkscape:version="0.92.5 (2060ec1f9f, 2020-04-08)">
  <metadata
     id="metadata44">
    <rdf:RDF>
      <cc:Work
         rdf:about="">
        <dc:format>image/svg+xml</dc:format>
        <dc:type
           rdf:resource="http://purl.org/dc/dcmitype/StillImage" />
        <dc:title></dc:title>
      </cc:Work>
    </rdf:RDF>
  </metadata>
  <defs
     id="defs42" />
  <sodipodi:namedview
     pagecolor="#ffffff"
     bordercolor="#666666"
     borderopacity="1"
     objecttolerance="10"
     gridtolerance="10"
     guidetolerance="10"
     inkscape:pageopacity="0"
     inkscape:pageshadow="2"
     inkscape:window-width="1366"
     inkscape:window-height="740"
     id="namedview40"
     showgrid="false"
     inkscape:pagecheckerboard="true"
     inkscape:zoom="1.0411096"
     inkscape:cx="280.5"
     inkscape:cy="62.5"
     inkscape:window-x="0"
     inkscape:window-y="0"
     inkscape:window-maximized="1"
     inkscape:current-layer="svg38" />
  <path
     d="m 113.73616,54.063858 c 3.06832,-3.569324 7.7872,-5.855006 13.07944,-5.855006 0.22065,0 0.44044,0.004 0.65935,0.01191 0.20676,-0.0082 0.41438,-0.01191 0.62374,-0.01191 5.12023,0 9.61759,2.477409 12.17858,6.212214 l 0.933,1.270024 v -6.713261 h 13.65539 l 0.003,-0.09029 0.0382,0.09029 h 0.0678 v 0.15974 l 1.436,3.378466 0.99815,-3.356635 v -0.181571 h 10.83988 2.04149 1.27007 v 6.395753 c 0,0 -0.69498,0.22677 -0.90695,0.499079 -0.25714,0.330973 -0.31708,1.217423 -0.31708,1.217423 l 1.99545,13.250918 c 0,0 0.33185,0.751529 0.65241,0.975311 0.23716,0.165577 0.84352,0.204409 0.84352,0.204409 v 7.212366 H 159.631 v -5.44322 l -4.65634,-0.0407 v 0.0605 l -3.47053,-0.0453 -0.0678,5.48857 h -13.31051 l 0.0226,-3.58755 c -2.78511,2.38507 -6.73604,4.31388 -11.14132,4.31388 -5.3904,0 -10.73215,-2.91707 -13.47296,-5.96028 l 0.0321,5.1873 h -10.54051 c 0,0 -0.24237,0.009 -0.36399,0.005 -0.45521,-0.0162 -0.87394,-0.0583 -1.36129,-0.11415 -7.452737,-0.85473 -13.617949,-5.973747 -14.805314,-12.988914 -1.774359,1.679321 -4.273837,3.199145 -7.244074,4.267409 -1.113177,0.400392 -2.225311,0.712436 -3.315987,0.940649 -0.0721,0.01511 -0.262788,0.08409 -0.344274,0.185558 -0.08314,0.103465 -0.115018,0.224738 -0.108155,0.382931 0,0 0.03631,0.410296 0.418722,0.670738 0.364167,0.24802 1.249218,0.432622 1.249218,0.432622 v 6.205257 h -1.652043 v 0.0169 l -10.561016,0.0148 v 0.002 H 36.847151 v 0.006 H 24.781947 l -1.134113,-0.0457 C 14.678484,78.007008 7.8182278,71.698636 7.8182278,63.356849 c 0,-8.341814 7.0869922,-15.104339 15.8296062,-15.104339 5.774636,0 10.827192,2.9503 13.592238,7.357198 l -7.925758,8.29287 -5.131609,-3.535252 c 0.526009,-0.619918 1.057925,-1.491243 0.69454,-2.210629 -0.24993,-0.494562 -0.710959,-0.830061 -1.264073,-0.827455 -0.251494,0.0011 -1.123601,0.186253 -1.435732,0.41768 -1.408106,1.044026 -2.177183,1.946365 -2.325734,4.477812 0.04318,1.279971 0.41629,2.726735 0.903902,3.90828 0.619744,1.276843 1.372229,1.995534 2.379335,2.600597 0.772725,0.46433 1.726405,0.674734 2.618405,0.674734 1.692613,0 3.095941,-0.930832 3.595715,-2.308881 h 6.347122 v 4.935192 l 8.819756,-23.056844 10.150287,-0.0069 8.005071,20.716251 c 0,0 0.430103,0.83536 0.733286,1.188668 0.162885,0.189815 0.571443,0.486222 0.571443,0.486222 l 0.03675,-14.494142 c 0,0 -0.13969,-0.635234 -0.349225,-0.865236 -0.251233,-0.275688 -0.994249,-0.512969 -0.994249,-0.512969 l -0.0035,-6.511844 h 15.623825 c 6.447284,0.320731 8.109665,2.251285 9.96273,5.948275 2.193602,-3.617502 6.956614,-6.834934 12.912551,-6.674569 3.51831,0.09473 6.80989,0.671497 9.34829,2.566831 1.21012,0.860197 2.31687,2.082172 3.22294,3.245509 z m -78.216586,19.34798 0.001,-0.0655 -0.02667,0.0289 -0.03388,0.0366 z M 23.63741,51.090467 c -7.206806,0.04536 -13.092864,5.29492 -13.092864,12.162135 0,6.867137 6.497636,12.765916 14.362844,12.588346 l 7.642816,0.0215 v -6.016877 h -1.443464 c -0.453558,1.13446 -2.571755,2.244162 -4.107477,2.244162 -0.809385,0 -2.846792,-0.110067 -3.600493,-0.37407 -1.330703,-0.466068 -3.229462,-1.135069 -4.880376,-3.909757 -0.03067,-0.06759 -0.06524,-0.141862 -0.102943,-0.22274 l -4.34e-4,-8.68e-4 -8.7e-5,-1.74e-4 -8.7e-5,-2.61e-4 c -0.505247,-1.084856 -1.565084,-3.360292 -1.306206,-6.576637 0.134825,-2.08397 1.458492,-4.685383 3.833831,-5.863453 1.035773,-0.513683 2.07841,-0.597974 3.909148,-0.43184 1.314372,0.119275 2.620317,1.043435 3.076308,2.152633 0.352613,0.857773 0.25132,1.90319 -0.163841,2.49861 -0.02962,0.04248 -0.03023,0.0801 -0.02415,0.120665 0.0047,0.03084 0.04474,0.08227 0.04474,0.08227 l 0.723382,0.565102 c 0,0 0.205974,0.143165 0.446522,0.136736 0.139777,-0.0037 0.389534,-0.155327 0.389534,-0.155327 l 4.131366,-4.335611 C 30.921359,52.328577 26.382215,51.09047 23.637411,51.09047 Z m 103.24595,-0.116374 c -7.64126,0 -13.83435,5.746872 -13.83435,12.83614 0,7.089355 6.19309,12.836195 13.83435,12.836195 7.64038,0 13.83348,-5.74684 13.83348,-12.836195 0,-7.089268 -6.1931,-12.83614 -13.83348,-12.83614 z m 0.0895,3.990652 c 3.93356,0 6.04108,2.814493 6.8959,6.169225 0.24411,0.960282 0.14507,4.153259 -8.7e-4,5.216484 -0.44392,3.242146 -3.09438,6.40159 -6.93933,6.304294 -3.74765,-0.09478 -6.25391,-1.839339 -7.03054,-6.531116 -0.22674,-1.372489 -0.23108,-3.021231 -0.046,-4.399975 0.53686,-3.997845 3.18819,-6.758912 7.12088,-6.758912 z m -87.7215,16.23846 C 40.339952,68.209513 46.415078,51.77083 46.415078,51.77083 l 6.38187,0.01686 7.604332,19.991908 c 0,0 0.454079,1.200136 1.121169,1.78201 0.588035,0.51297 1.140975,0.59733 1.140975,0.59733 l 0.006,1.75125 -9.285042,0.005 v -1.77106 c 0,0 1.466745,-0.0281 0.997116,-1.608346 -0.359911,-1.211168 -1.82961,-4.880724 -1.82961,-4.880724 l -7.539785,-0.01581 -1.697651,4.342814 c 0,0 -0.423935,1.237406 0.246108,1.852456 0.34549,0.31717 0.816596,0.34132 0.816596,0.34132 l -0.006,1.7423 -7.342326,0.002 -0.09026,-1.81371 c 0,0 1.224199,0.0904 2.31279,-2.903174 z m 11.860708,-7.370125 -2.517201,-7.007956 -2.358485,7.029761 z m 14.524026,-12.088016 -0.03571,2.015176 c 0,0 0.590121,0.169096 1.154875,0.795747 0.299448,0.332241 0.11415,4.549264 0.11415,4.549264 l -0.0099,13.498938 c 0,0 0.192334,0.532089 -0.453472,1.066609 -0.02441,0.0202 -0.04847,0.0405 -0.07254,0.0607 l -6.95e-4,6.1e-4 c -0.21579,0.18182 -0.424543,0.35765 -0.763169,0.38718 l -0.04465,1.79591 8.605357,0.0208 0.02085,-1.82657 c 0,0 -0.304399,-0.12014 -0.781847,-0.55068 -0.269476,-0.24307 -0.435489,-0.592902 -0.431579,-0.941606 0.0028,-0.469629 0.0087,-0.932135 0.01459,-1.391427 v -0.0017 l 8.7e-5,-0.0017 v -0.0017 c 0.0094,-0.731548 0.01868,-1.454757 0.01503,-2.185176 2.323562,-0.559629 4.402233,-1.4194 5.697493,-1.955139 0.385103,-0.159323 0.70097,-0.289978 0.933439,-0.375547 3.812807,-1.521388 6.771404,-3.937034 6.598181,-8.246228 -0.03275,-3.052983 -1.581242,-5.555406 -4.898533,-6.120899 -1.512179,-0.436931 -2.206459,-0.513274 -2.803008,-0.546711 z m 9.84163,3.422458 c 0.928226,-0.01783 2.021509,0.194853 2.863124,0.618762 1.048978,0.696391 1.687139,1.417775 1.687139,2.943941 0.04326,0.717388 -0.162884,1.334265 -0.508027,1.961567 -0.359302,0.599764 -1.446417,1.751251 -2.132792,2.409914 -2.006567,1.434602 -2.72465,1.855149 -4.318749,2.588869 L 73.042879,55.46385 c 0.84952,-0.160235 1.61156,-0.290864 2.434845,-0.296328 z m 26.536846,-4.061018 c -7.206893,0.04536 -13.092898,5.29492 -13.092898,12.162083 0,6.867223 6.497583,12.766001 14.362968,12.588431 l 7.64298,0.0215 v -6.017012 h -1.44381 c -0.45347,1.134547 -2.5714,2.244162 -4.1073,2.244162 -0.80964,0 -2.84679,-0.10998 -3.60084,-0.373984 -1.33088,-0.466068 -3.229026,-1.135068 -4.880461,-3.909844 -0.03041,-0.06785 -0.06515,-0.142556 -0.103378,-0.223955 -0.505594,-1.084857 -1.564562,-3.360379 -1.305684,-6.576724 0.134651,-2.083883 1.45771,-4.685332 3.833657,-5.863402 1.035516,-0.513682 2.077976,-0.597974 3.909236,-0.43184 1.31437,0.119275 2.62005,1.043436 3.07613,2.152581 0.3527,0.85786 0.25106,1.90319 -0.16419,2.49861 -0.0295,0.04248 -0.0304,0.0801 -0.0243,0.120665 0.005,0.03093 0.0452,0.08236 0.0452,0.08236 l 0.72365,0.565101 c 0,0 0.20588,0.143078 0.44652,0.136737 0.13986,-0.0037 0.38918,-0.155327 0.38918,-0.155327 L 111.85286,55.791 c -2.55403,-3.446435 -7.09309,-4.684541 -9.83824,-4.684541 z m 42.16849,2.417575 -0.008,-1.7314 8.78014,0.0079 3.22729,9.748434 3.38453,-9.748434 9.24838,0.01092 0.0139,1.413892 c 0,0 -0.57422,0.247741 -0.85395,0.509 -0.38918,0.36249 -0.34749,1.071582 -0.34749,1.071582 0,0 2.40028,17.172881 2.45935,17.489615 0.009,0.04465 0.0182,0.101727 0.0295,0.167663 0.0747,0.437661 0.21718,1.268157 0.47606,1.475437 0.5056,0.40561 0.7054,0.33732 0.7054,0.33732 l 0.008,1.70765 h -8.90784 v -1.59549 c 0,0 0.61592,-0.0572 1.04159,-0.46538 0.55251,-0.53035 0.29623,-1.563696 0.29623,-1.563696 l -2.12488,-13.746001 -3.80847,11.950098 -4.6876,-0.06446 -3.8493,-11.096843 -1.89207,12.893701 c 0,0 -0.11988,1.145751 0.2971,1.562731 0.41699,0.4169 1.04247,0.46529 1.04247,0.46529 v 1.59549 h -7.6899 l 0.009,-1.70755 c 0,0 0.54903,-0.0887 1.02509,-0.52888 0.43002,-0.39683 0.54729,-1.077817 0.61332,-1.460053 0.008,-0.04413 0.0148,-0.08427 0.0208,-0.119536 0.0599,-0.316735 2.80596,-17.383432 2.80596,-17.383432 0,0 0.0869,-0.482304 -0.25714,-0.754074 -0.30058,-0.237716 -1.05723,-0.441526 -1.05723,-0.441526 z"
     id="path22"
     inkscape:connector-curvature="0"
     style="clip-rule:evenodd;fill:#ffffff;fill-rule:evenodd;stroke-width:0.86871898" />
  <path
     d="m 175.30923,52.534982 c 0,-2.44627 1.98328,-4.429364 4.4296,-4.429364 2.44631,0 4.42959,1.983094 4.42959,4.429364 0,2.446278 -1.98328,4.429398 -4.42959,4.429398 -2.44632,0 -4.4296,-1.98312 -4.4296,-4.429398 z m 8.26325,0 c 0,-2.117381 -1.71659,-3.833874 -3.83365,-3.833874 -2.11794,0 -3.83366,1.716493 -3.83366,3.833874 0,2.11738 1.71572,3.833865 3.83366,3.833865 2.11706,0 3.83365,-1.716485 3.83365,-3.833865 z"
     id="path24"
     inkscape:connector-curvature="0"
     style="clip-rule:evenodd;fill:#ffffff;fill-rule:evenodd;stroke-width:0.86871898" />
  <path
     d="m 177.45844,55.103619 v -5.243805 h 1.10675 v 0.004 h 1.87556 v 0.02182 c 0.89218,0.01982 1.60887,0.773681 1.60887,1.700639 0,0.718987 -0.43175,1.332745 -1.04073,1.581581 l 1.48378,1.950674 -1.24227,0.0079 -1.21621,-1.840546 h -1.469 v 1.817725 z m 2.94669,-4.175212 -1.83994,-0.0099 v 1.38115 l 1.83994,-0.02183 c 0.139,-0.0045 0.60116,-0.08465 0.61245,-0.685758 0.01,-0.558065 -0.23542,-0.599633 -0.60463,-0.662398 z"
     id="path26"
     inkscape:connector-curvature="0"
     style="clip-rule:evenodd;fill:#ffffff;fill-rule:evenodd;stroke-width:0.86871898" />
  <path
     d="m 99.132999,110.35229 c 0,-2.75671 -2.235214,-4.99149 -4.991659,-4.99149 H 77.698835 v 13.2127 H 94.14134 c 2.756445,0 4.991659,-2.23478 4.991659,-4.99149 z m -18.497981,-2.0553 H 94.14134 c 1.135416,0 2.055389,0.92023 2.055389,2.0553 v 3.22972 c 0,1.13507 -0.919973,2.05531 -2.055389,2.05531 H 80.635018 Z"
     id="path28"
     inkscape:connector-curvature="0"
     style="clip-rule:evenodd;fill:#ffffff;fill-rule:evenodd;stroke-width:0.86871898" />
  <path
     d="M 61.25633,99.165788 C 57.770421,93.045318 51.187008,88.918298 43.639577,88.918298 H 26.022564 c -11.189013,0 -20.2594821,9.07047 -20.2594821,20.259482 v 26.71884 c 0,11.1891 9.0704691,20.2594 20.2594821,20.2594 h 17.617013 c 7.547431,0 14.130844,-4.12642 17.616753,-10.24741 v 10.24741 h 19.378688 v -21.14028 h 16.736219 c 9.729653,0 17.616753,-7.8871 17.616753,-17.61666 v -10.86386 c 0,-9.729562 -7.8871,-17.616922 -17.616753,-17.616922 H 61.25633 Z m 0,20.288592 H 44.520372 v -8.51492 c 0,-1.45945 -1.183109,-2.64247 -2.64247,-2.64247 H 27.784327 c -1.459448,0 -2.642557,1.18302 -2.642557,2.64247 v 23.19566 c 0,1.45919 1.183109,2.64238 2.642557,2.64238 h 14.093575 c 1.459361,0 2.64247,-1.18319 2.64247,-2.64238 v -9.68926 H 61.25633 Z m -0.293453,-10.2766 c 0,-9.567462 -7.755837,-17.323302 -17.3233,-17.323302 H 26.022564 c -9.567462,0 -17.3233248,7.75584 -17.3233248,17.323302 v 26.71884 c 0,9.56807 7.7558628,17.324 17.3233248,17.324 h 17.617013 c 9.567463,0 17.3233,-7.75593 17.3233,-17.324 v -8.51466 H 47.456555 v 6.75316 c 0,3.08109 -2.497741,5.57866 -5.578653,5.57866 H 27.784327 c -3.080999,0 -5.57874,-2.49757 -5.57874,-5.57866 v -23.19566 c 0,-3.08109 2.497741,-5.57866 5.57874,-5.57866 h 14.093575 c 3.080912,0 5.578653,2.49757 5.578653,5.57866 v 5.57874 h 13.506322 z m 3.229636,44.04284 h 13.506322 v -21.1408 h 19.672402 c 8.107753,0 14.680483,-6.57281 14.680483,-14.68074 v -10.86386 c 0,-8.107922 -6.57273,-14.680742 -14.680483,-14.680742 H 64.192513 Z"
     id="path30"
     inkscape:connector-curvature="0"
     style="clip-rule:evenodd;fill:#ffffff;fill-rule:evenodd;stroke-width:0.86871898" />
  <path
     d="m 330.5024,108.29699 h -14.68135 v 47.85903 h -19.37851 v -47.85903 h -14.68049 v 5.57865 h -9.07985 c 2.88328,1.1474 5.36695,3.07466 7.20081,5.52001 l 0.003,0.005 c 2.09274,2.8024 3.3437,6.26138 3.3437,10.03691 v 9.9828 c 0,9.25533 -7.48054,16.73587 -16.73587,16.73587 h -19.67301 c -9.25534,0 -16.73587,-7.48054 -16.73587,-16.73587 v -9.102 h 9.25967 c -2.87459,-1.4366 -5.27573,-3.67338 -6.90718,-6.424 -1.49941,-2.50191 -2.35249,-5.42785 -2.35249,-8.55037 v -9.68934 c 0,-0.21579 0.004,-0.43054 0.0122,-0.64425 l -12.63726,20.75987 v 30.3864 h -19.37851 v -30.38684 l -12.33321,-20.25939 c 8.7e-4,0.0479 8.7e-4,0.0957 8.7e-4,0.14377 v 8.22121 h -9.07985 c 2.88328,1.1474 5.36695,3.07466 7.20081,5.52001 l 0.003,0.005 c 2.09274,2.8024 3.3437,6.26138 3.3437,10.03691 v 9.9828 c 0,9.25533 -7.48054,16.73587 -16.73587,16.73587 h -19.67301 c -9.25534,0 -16.73588,-7.48054 -16.73588,-16.73587 v -9.102 h 9.25968 c -2.87459,-1.4366 -5.27573,-3.67338 -6.90718,-6.424 -1.49941,-2.50191 -2.3525,-5.42785 -2.3525,-8.55037 v -9.68934 c 0,-9.255682 7.48054,-16.736142 16.73588,-16.736142 h 18.20487 c 2.81986,0 5.47554,0.69463 7.80544,1.92239 l -0.99208,-1.62876 h 21.27406 l 10.66961,17.767822 10.67048,-17.767822 h 21.27406 l -1.13803,1.86879 c 2.43242,-1.37692 5.24533,-2.16242 8.24415,-2.16242 h 18.20487 c 6.12273,0 11.4697,3.27412 14.38686,8.17031 v -8.17031 h 124.57169 l 4.61898,24.135712 4.61985,-24.135712 h 25.62287 v 67.237722 h -19.3776 v -16.46439 l -3.15084,16.46483 h -15.42584 l -3.15085,-16.46483 v 16.46483 H 330.5024 Z m 19.37852,0 h 28.48095 v 28.18689 h -28.48095 v -4.40406 h 27.01281 v -19.3786 h -27.01281 z m -50.50211,-2.93619 v 47.85982 h 13.50597 V 105.3608 h 17.32399 V 91.854478 H 282.34931 V 105.3608 Z m -84.85474,47.85982 V 124.94659 L 234.48984,92.148018 H 220.10299 L 207.77065,112.6828 195.43918,92.148018 h -14.38685 l 19.96577,32.798572 v 28.27403 z m 132.42058,-13.80047 v -10.27643 h 27.01281 v -13.5064 H 346.94465 V 105.3608 h 31.12359 V 91.854478 h -44.62957 v 61.366142 h 44.62957 V 139.42015 Z M 167.83911,112.70122 v -3.81707 c 0,-0.31621 -0.27104,-0.58716 -0.58725,-0.58716 h -13.21322 c -0.31621,0 -0.58725,0.27095 -0.58725,0.58716 v 3.22981 c 0,0.31631 0.27104,0.58726 0.58725,0.58726 z m -28.89185,9.68934 c -1.23358,-2.05539 -1.93811,-4.46304 -1.93811,-7.04679 v -9.68934 c 0,-7.634042 6.16616,-13.799952 13.7996,-13.799952 h 18.20487 c 7.63344,0 13.7996,6.16591 13.7996,13.799952 v 5.28503 h -12.03784 v -2.05531 c 0,-1.93785 -1.58628,-3.52335 -3.52352,-3.52335 h -13.21322 c -1.93724,0 -3.52352,1.5855 -3.52352,3.52335 v 3.22981 c 0,1.93786 1.58628,3.52336 3.52352,3.52336 h 16.73674 c 4.40354,0.0881 8.27976,2.23147 10.74606,5.52001 1.73222,2.31957 2.75992,5.16766 2.75992,8.28002 v 9.9828 c 0,7.6343 -6.16617,13.80047 -13.7996,13.80047 h -19.67301 c -7.63344,0 -13.7996,-6.16617 -13.7996,-13.80047 v -6.16582 h 13.50597 v 2.93592 c 0,1.93811 1.58628,3.52353 3.52352,3.52353 h 13.21322 c 1.93724,0 3.52352,-1.58542 3.52352,-3.52353 v -3.52318 c 0,-1.93785 -1.58628,-3.52335 -3.52352,-3.52335 h -16.73674 c -4.93259,-0.11745 -9.21885,-2.78937 -11.56786,-6.75316 z m 28.3046,9.68926 h -13.80047 v 4.11043 c 0,0.31621 0.27104,0.58725 0.58725,0.58725 h 13.21322 c 0.31621,0 0.58725,-0.27104 0.58725,-0.58725 v -3.52318 c 0,-0.3163 -0.27104,-0.58725 -0.58725,-0.58725 z m 96.59981,-23.19567 v 3.81707 H 250.0512 c -0.31621,0 -0.58725,-0.27095 -0.58725,-0.58726 v -3.22981 c 0,-0.31621 0.27104,-0.58716 0.58725,-0.58716 h 13.21322 c 0.31621,0 0.58725,0.27095 0.58725,0.58716 z m -30.82996,6.45962 c 0,2.58375 0.70453,4.9914 1.93811,7.04679 2.34901,3.96379 6.63527,6.63571 11.56786,6.75316 h 16.73674 c 1.93724,0 3.52352,1.5855 3.52352,3.52335 v 3.52318 c 0,1.93811 -1.58628,3.52353 -3.52352,3.52353 H 250.0512 c -1.93724,0 -3.52352,-1.58542 -3.52352,-3.52353 v -2.93592 h -13.50597 v 6.16582 c 0,7.6343 6.16616,13.80047 13.7996,13.80047 h 19.67301 c 7.63343,0 13.7996,-6.16617 13.7996,-13.80047 v -9.9828 c 0,-3.11236 -1.0277,-5.96045 -2.75992,-8.28002 -2.4663,-3.28854 -6.34252,-5.43193 -10.74606,-5.52001 H 250.0512 c -1.93724,0 -3.52352,-1.5855 -3.52352,-3.52336 v -3.22981 c 0,-1.93785 1.58628,-3.52335 3.52352,-3.52335 h 13.21322 c 1.93724,0 3.52352,1.5855 3.52352,3.52335 v 2.05531 h 12.03784 v -5.28503 c 0,-7.634042 -6.16616,-13.799952 -13.7996,-13.799952 h -18.20487 c -7.63344,0 -13.7996,6.16591 -13.7996,13.799952 z m 17.02949,21.43373 c -0.31621,0 -0.58725,-0.27104 -0.58725,-0.58725 v -4.11043 h 13.80047 c 0.31621,0 0.58725,0.27095 0.58725,0.58725 v 3.52318 c 0,0.31621 -0.27104,0.58725 -0.58725,0.58725 z m 151.50633,-44.923022 7.04618,36.819442 7.04705,-36.819442 h 20.2594 v 61.366142 h -13.50598 v -44.49058 l -8.51518,44.49058 h -10.5697 l -8.51519,-44.49058 v 44.49058 H 381.29814 V 91.854478 Z"
     id="path32"
     inkscape:connector-curvature="0"
     style="clip-rule:evenodd;fill:#ffffff;fill-rule:evenodd;stroke-width:0.86871898" />
  <path
     d="m 472.02541,144.70543 h 4.69803 v -44.33611 h -4.69803 z"
     id="path34"
     inkscape:connector-curvature="0"
     style="fill:#ffffff;stroke-width:0.86871898" />
  <path
     d="M 492.28481,88.918298 H 456.46405 V 103.3055 h 4.10991 v 38.46366 h -4.10991 v 14.38686 h 35.82076 v -14.38686 h -4.11078 V 103.3055 h 4.11078 z m -32.88536,55.787132 h 4.11078 v -44.33611 h -4.11078 v -8.514842 h 29.94909 v 8.514842 h -4.11078 v 44.33611 h 4.11078 v 8.51519 h -29.94909 z"
     id="path36"
     inkscape:connector-curvature="0"
     style="clip-rule:evenodd;fill:#ffffff;fill-rule:evenodd;stroke-width:0.86871898" />
</svg>
