<?xml version="1.0" encoding="UTF-8" standalone="no"?>
<!-- Created with Inkscape (http://www.inkscape.org/) -->

<svg
   xmlns:dc="http://purl.org/dc/elements/1.1/"
   xmlns:cc="http://creativecommons.org/ns#"
   xmlns:rdf="http://www.w3.org/1999/02/22-rdf-syntax-ns#"
   xmlns:svg="http://www.w3.org/2000/svg"
   xmlns="http://www.w3.org/2000/svg"
   xmlns:sodipodi="http://sodipodi.sourceforge.net/DTD/sodipodi-0.dtd"
   xmlns:inkscape="http://www.inkscape.org/namespaces/inkscape"
   width="400"
   height="150"
   viewBox="0 0 105.83333 39.687501"
   version="1.1"
   id="svg8"
   sodipodi:docname="custom-collections.svg"
   inkscape:version="0.92.5 (2060ec1f9f, 2020-04-08)">
  <defs
     id="defs2" />
  <sodipodi:namedview
     id="base"
     pagecolor="#ffffff"
     bordercolor="#666666"
     borderopacity="1.0"
     inkscape:pageopacity="0.0"
     inkscape:pageshadow="2"
     inkscape:zoom="1.53125"
     inkscape:cx="202.15232"
     inkscape:cy="57.882286"
     inkscape:document-units="mm"
     inkscape:current-layer="layer1"
     showgrid="false"
     units="px"
     inkscape:pagecheckerboard="true"
     inkscape:window-width="1366"
     inkscape:window-height="740"
     inkscape:window-x="0"
     inkscape:window-y="0"
     inkscape:window-maximized="1"
     showguides="true"
     inkscape:guide-bbox="true">
    <sodipodi:guide
       position="14.168707,31.44762"
       orientation="0,1"
       id="guide344"
       inkscape:locked="false" />
    <sodipodi:guide
       position="9.8489793,8.639456"
       orientation="0,1"
       id="guide346"
       inkscape:locked="false" />
  </sodipodi:namedview>
  <metadata
     id="metadata5">
    <rdf:RDF>
      <cc:Work
         rdf:about="">
        <dc:format>image/svg+xml</dc:format>
        <dc:type
           rdf:resource="http://purl.org/dc/dcmitype/StillImage" />
        <dc:title></dc:title>
      </cc:Work>
    </rdf:RDF>
  </metadata>
  <g
     inkscape:label="Layer 1"
     inkscape:groupmode="layer"
     id="layer1"
     transform="translate(0,-257.31248)">
    <g
       aria-label="[collections]"
       transform="matrix(0.33950123,0,0,0.52732254,8.4204271,250.88967)"
       style="font-style:normal;font-weight:normal;font-size:40px;line-height:125%;font-family:sans-serif;letter-spacing:0px;word-spacing:0px;fill:#ffffff;fill-opacity:1;stroke:none;stroke-width:1px;stroke-linecap:butt;stroke-linejoin:miter;stroke-opacity:1"
       id="flowRoot10">
      <path
         d="m 3.6283803,30.74925 q 0.4029465,-0.03838 0.4029465,-0.134316 l 0.6140138,0.07675 1.7461017,-0.01919 h 0.019188 v 2.436867 Q 5.5471734,32.994238 5.5471734,32.821546 l -0.5948259,0.09594 -0.076752,-0.07675 h -0.076752 q -0.09594,0.115128 -0.8826449,0.172692 0.09594,0.575637 0.287819,0.825081 -0.1535034,0.748329 -0.4605103,1.074524 l 0.076752,0.307007 -0.076752,0.230255 0.076752,0.614014 -0.076752,0.07675 0.076752,0.383759 v 0.230255 l -0.076752,1.074524 0.076752,0.07675 v 0.07675 l -0.1535035,0.46051 0.2302552,1.381531 v 0.230255 L 3.7435079,40.66941 v 0.383759 q 0,0.55645 0.2302551,1.381531 l -0.076752,0.230255 0.076752,1.074524 v 0.307007 l -0.3070069,1.228027 q 0.3837587,1.362344 0.3837587,1.842042 -0.2302552,0 -0.2302552,0.307007 l 0.076752,0.46051 -0.076752,0.614014 0.076752,0.07675 -0.076752,0.07675 v 0.07675 q 0,1.381531 0.3070069,2.993317 l -0.3070069,0.844269 0.1535034,0.997773 -0.076752,0.614013 0.1535035,0.460511 v 0.307007 q 0,0.36457 -0.2302552,0.767517 l 0.076752,0.690765 q -0.09594,0 -0.3070069,0.767518 0.09594,0.402946 0.3837586,0.614013 l 0.076752,0.307007 -0.076752,0.537262 0.076752,0.07675 -0.2302552,2.763062 0.076752,0.307007 -0.2302552,0.921021 0.076752,0.844269 -0.076752,0.614014 0.2302552,1.074524 -0.076752,0.652389 0.5756379,0.115128 1.3623431,-0.249443 0.6523897,0.09594 -0.038376,2.129861 -0.076752,0.07675 -0.076752,-0.07675 H 5.9117441 L 4.3191458,68.223279 Q 3.417313,68.184903 2.880051,68.127339 V 67.93546 l -1.3431552,-0.07675 0.2110672,-1.47747 q -0.2110672,0 -0.3070069,-1.151276 l 0.076752,-0.307007 V 64.308941 L 1.747963,63.694927 1.5177079,62.697155 1.5944596,62.4669 Q 1.5177079,61.469127 1.3642044,61.469127 l 0.076752,-0.383758 -0.076752,-0.307007 Q 1.747963,60.356227 1.747963,59.320079 L 1.5944596,59.166575 v -0.07675 L 1.6712113,58.782817 1.5177079,58.47581 1.6712113,57.861796 1.4409561,56.633769 1.747963,56.096507 1.5944596,55.635996 l 0.076752,-0.07675 v -0.07675 L 1.5944596,54.714975 1.8247148,54.02421 Q 1.5177079,53.5637 1.5177079,52.642679 l 0.1535034,-0.690766 q 0,-0.537262 -0.1535034,-0.844269 l 0.076752,-0.844269 V 49.57261 l -0.076752,-0.07675 0.1535034,-0.614014 -0.076752,-0.307006 0.076752,-0.230256 -0.2302552,-0.46051 0.2302552,-1.228028 -0.076752,-1.535034 q 0,-0.997772 0.2302552,-1.611786 Q 1.2874527,42.722519 1.2874527,42.4347 v -0.230256 l 0.3070069,-1.458282 v -1.074524 l -0.1535035,-0.537262 0.1535035,-1.30478 q 0,-0.36457 -0.3837586,-1.151276 0,-0.383758 0.537262,-1.074524 V 35.450293 L 1.5177079,35.220038 v -0.07675 h 0.1535034 v -0.07675 Q 1.3642044,34.759527 1.3642044,34.529272 l 0.076752,-0.614014 -0.076752,-0.07675 Q 1.5944596,33.761755 1.5944596,33.377996 1.5752717,32.22672 1.4409561,32.22672 l 0.2302552,-0.844269 -0.076752,-0.46051 v -0.07675 q 0,-0.230255 0.9977724,-0.307007 v -0.07675 q 0.7099534,0.03838 1.0361483,0.287819 z"
         style="font-style:normal;font-variant:normal;font-weight:normal;font-stretch:normal;font-size:39.29688263px;font-family:'Top Secret';-inkscape-font-specification:'Top Secret';fill:#ffffff"
         id="path784" />
      <path
         d="m 16.752925,35.622984 0.518074,0.172692 v 1.554222 q 0,1.189652 -1.746101,1.381531 l 0.172691,0.172691 -0.518074,0.882645 0.172691,1.20884 -0.345383,0.345383 v 1.208839 l 0.172692,0.172692 -0.172692,0.172691 v 0.172691 l 0.345383,1.381531 v 0.518075 q -1.036148,2.475243 -1.036148,3.473015 l 1.036148,3.108445 -0.345383,1.036148 v 1.228028 l 0.518075,2.417679 -0.518075,1.554222 v 0.690766 q 0,0.921021 2.436868,2.954941 l -0.345383,1.20884 h -0.172691 q -0.901833,0 -1.573411,-0.518074 h -0.345383 l -1.554222,0.172691 Q 12.62752,62.159893 12.07107,61.430751 L 8.4253631,59.511958 8.7707458,58.648501 Q 7.5619062,58.37987 7.5619062,57.785044 L 7.7345976,57.612353 V 57.439662 L 6.0076838,53.122377 Q 6.3530665,52.35486 6.3530665,50.340127 L 5.8349924,47.577065 q 0,-3.664895 2.0722966,-4.681855 L 8.0799803,42.722519 V 42.549827 L 7.5619062,41.68637 q 0.4413224,-0.882644 1.5542224,-1.554222 0.287819,-1.266404 3.9910894,-3.473016 0,-0.402946 3.645707,-1.036148 z m 3.79921,0.172692 q 0,0.46051 2.609559,1.381531 1.20884,0 2.244988,-1.20884 h 0.345383 q 0.863457,0.441322 0.863457,1.554222 0,0.863457 -0.345383,0.863457 0.345383,0.422135 0.518074,2.78225 l -0.172691,2.935754 0.518074,1.381531 q -0.498886,1.228027 -1.554223,1.228027 0,-0.46051 -0.863457,-0.690765 l -1.381531,-4.681855 q -0.441322,0 -1.400719,-1.20884 -0.863456,-0.134316 -0.863456,-0.518074 l 0.172691,-0.709954 q -0.863457,-0.633201 -2.590371,-0.863457 0,-1.899605 1.036149,-1.899605 0,-0.345382 0.863456,-0.345382 z m 6.063387,19.226306 0.172691,0.172692 q -0.211067,2.68631 -1.036148,3.971901 -1.20884,0 -1.20884,1.400719 l -2.609559,0.863457 V 61.25806 l -1.899605,1.899605 h -1.036148 q -0.690765,-0.287819 -0.690765,-1.20884 V 61.25806 q 0,-0.307007 4.489975,-2.264176 1.918793,-3.971902 3.818399,-3.971902 z m 3.607331,13.162921 -0.307007,0.09594 -0.230255,-0.07675 -0.460511,0.153503 q 0,-0.383758 -1.074524,-0.46051 l -1.304779,0.307007 h -0.614014 l -0.690765,-0.07675 h -0.07675 l -0.07675,0.07675 -0.844269,-0.07675 h -0.383759 l -0.230255,-0.153503 h -0.230255 l -0.46051,0.153503 -0.230255,-0.153503 q 0,0.153503 -1.611787,0.230255 -0.153503,-0.153503 -0.92102,-0.230255 0,0.153503 -0.690766,0.230255 0,-0.191879 -0.844269,-0.307007 H 18.09608 l -0.537262,0.230255 -1.611786,-0.307007 -0.537262,0.153504 h -0.07675 l -0.07675,-0.07675 -0.537263,0.153504 -1.304779,-0.230256 -0.614014,0.230256 h -0.07675 l -0.07675,-0.07675 -1.151276,0.153503 -1.074524,-0.307007 -1.5350346,0.307007 -1.4582827,-0.07675 -0.6140138,0.07675 q 0,-0.134315 -0.7675173,-0.153503 H 5.5087976 L 5.3552941,67.820332 V 67.666829 L 5.5087976,67.052815 V 66.82256 L 5.3552941,66.592305 v -0.307007 q 0,-0.537262 0.6140138,-0.614014 1.4774707,0.07675 1.6117862,0.230255 h 0.076752 l 0.076752,-0.07675 0.3070069,0.153503 q 0,-0.287819 2.3025515,-0.383759 l 1.304779,0.307007 h 0.307007 l 0.07675,-0.07675 0.07675,0.07675 h 0.153503 l 0.383759,-0.07675 0.46051,0.07675 h 0.307007 l 0.997773,-0.153503 0.844269,0.153503 h 0.767517 l 0.690765,0.230255 1.074524,-0.230255 h 0.07675 l 0.690766,0.07675 1.074524,-0.307007 0.92102,0.230255 h 0.767518 l 0.07675,-0.07675 0.07675,0.07675 h 0.307007 l 0.690766,0.07675 2.302551,-0.230255 0.230255,0.07675 0.230256,-0.07675 0.307007,0.07675 h 0.07675 l 0.07675,-0.07675 0.537262,0.07675 0.921021,-0.153504 1.228027,0.153504 1.151276,-0.307007 0.690766,0.115127 z m 0,-35.017974 -1.016961,0.134316 q -0.594826,0 -1.381531,-0.230256 h -0.07675 q -0.287819,0.230256 -0.537262,0.230256 h -0.230256 q -0.46051,0 -0.92102,-0.460511 l -0.921021,0.153504 -0.307007,-0.07675 -0.307007,0.07675 h -0.614014 q -0.441322,0.307007 -0.690765,0.307007 l -0.614014,-0.07675 h -0.07675 l -0.07675,0.07675 -0.383759,-0.230256 -0.46051,0.230256 -0.460511,-0.153504 q -0.287819,0.230255 -0.690765,0.230255 h -0.230255 l -0.614014,-0.230255 q -1.535035,0 -2.993317,0.230255 -0.709954,0 -1.228028,-0.46051 0,0.307007 -1.074524,0.383759 l -0.46051,-0.07675 -0.537263,0.153503 q -1.01696,-0.153503 -1.228027,-0.307007 h -0.07675 l -0.07675,0.07675 -1.688537,-0.153503 q -0.9785849,0 -1.228028,0.307007 H 8.8666855 L 8.5596786,33.070989 8.0991683,33.224493 8.0224165,33.147741 H 7.7921614 Q 7.3124631,33.301245 5.95012,33.377996 L 5.4128579,33.070989 v -0.07675 l 0.076752,-0.07675 q 0.3070068,-0.115128 0.3070068,-0.230255 v -0.07675 L 5.5663614,32.380224 5.7198648,31.842962 v -0.07675 q 0,-0.153503 -0.2302551,-0.153503 V 31.3057 l 0.3070068,-0.537262 q 0.8826449,0 1.5350345,0.230255 0.8826448,0 1.1512759,-0.307007 h 0.3837586 l 1.3047795,0.230255 h 0.230255 l 0.844269,-0.230255 q 1.630974,0.249443 1.918793,0.46051 h 0.307007 q 0.383759,0 0.46051,-0.230255 h 0.07675 l 0.07675,0.07675 h 0.307007 q 0,-0.153504 1.765289,-0.383759 l 0.460511,0.07675 h 0.07675 l 0.07675,-0.07675 q 0.307007,0.115128 0.307007,0.230255 l 0.537262,-0.07675 h 0.537262 l 1.995545,0.383758 0.767517,-0.307007 v 0.07675 q 0.729142,0 1.381531,-0.230255 l 0.767517,0.153503 q 1.458283,0 2.2258,-0.307007 1.535035,0.537263 2.072297,0.537263 h 0.383759 q 0.92102,-0.307007 1.765289,-0.383759 l 0.230255,0.230255 h 0.230256 v -0.153503 h 0.230255 q 0,0.05756 0.01919,0.09594 z"
         style="font-style:normal;font-variant:normal;font-weight:normal;font-stretch:normal;font-size:39.29688263px;font-family:'Top Secret';-inkscape-font-specification:'Top Secret';fill:#ffffff"
         id="path786" />
      <path
         d="m 41.179159,35.622984 q 0.690766,0.172692 0.690766,0.882645 -0.537262,1.66935 -2.091485,2.436867 l -0.345382,2.091485 v 1.57341 l 0.172691,1.228028 q -0.690765,0.09594 -0.690765,0.518074 l 0.172691,0.191879 v 0.172691 l -0.345383,1.20884 0.345383,1.055336 -0.172691,0.882645 0.345382,0.345383 v 0.345383 l -0.345382,0.518074 v 0.537262 l 0.345382,0.518074 v 0.690765 l -0.172691,0.19188 0.345383,0.690765 -0.345383,1.055337 v 3.14682 l -0.345383,0.518074 v 0.863457 q 0,0.786705 2.609559,3.856774 0,1.918793 -0.690766,1.918793 -0.729141,-0.690765 -3.492203,-1.228027 -3.914338,-1.957169 -5.084802,-5.065614 0,-0.767517 -0.863457,-2.264176 0,-0.422134 -1.228027,-1.918793 L 29.819904,51.70247 q 0.690766,-1.055336 0.690766,-1.57341 l -0.172692,-2.264176 q 0.709954,-1.554222 1.055337,-5.257493 l 0.518074,-0.518074 -0.172692,-1.57341 q 0.709954,0 0.709954,-0.882645 1.57341,0 1.57341,-1.381531 l 1.746102,-1.228028 1.036148,0.172692 q 1.093712,-0.690766 4.374848,-1.573411 z m 3.664895,0.345383 q 3.146821,0.575638 3.146821,1.746102 0.383759,0.36457 1.918793,0.36457 1.228028,1.630974 1.228028,2.609559 1.304779,0 2.801438,6.984407 l 0.172691,0.191879 q -0.690766,1.323967 -0.690766,4.182969 l 0.172692,1.57341 q -0.498886,1.746102 -1.228028,1.746102 0,3.43464 -3.664895,5.065614 -1.151275,1.746102 -4.720231,1.746102 -0.786705,0.882644 -1.57341,0.882644 l -0.172691,-0.518074 q 0,-1.899605 2.091484,-2.974129 0.364571,-1.957169 0.882645,-2.091484 l -0.191879,-0.19188 v -0.345383 l 0.191879,-1.746101 q -1.055336,-3.146821 -1.055336,-4.720231 0,-0.959397 1.055336,-1.746102 L 45.381316,47.327622 44.32598,45.063446 45.016746,42.4347 44.32598,41.206672 44.498672,40.343215 v -0.518074 q 0,-1.304779 -1.746102,-2.456055 v -0.172691 l 0.172691,-0.882645 h 0.518074 z m 11.800578,-3.146821 -0.115128,-0.03838 q -0.36457,0.230256 -1.381531,0.230256 h -0.07675 L 54.303704,32.78317 H 53.68969 l -0.997772,0.307007 h -0.921021 l -0.307007,-0.07675 -0.07675,0.07675 -1.151276,-0.07675 -1.918793,0.230255 -2.302552,-0.460511 -0.844269,0.07675 -0.46051,-0.153503 h -0.07675 l -0.07675,0.07675 -0.614013,-0.153503 q 0,0.172691 -1.30478,0.46051 -0.287819,0.307007 -0.614014,0.383759 -0.55645,-0.537262 -1.151275,-0.537262 l -0.383759,0.230255 q -0.172691,-0.249443 -1.151276,-0.46051 l -0.921021,0.230255 -0.844269,-0.07675 H 37.18807 l -0.460511,0.230255 q -0.36457,-0.230255 -0.690765,-0.230255 -0.65239,0 -1.074524,0.153504 L 33.273732,32.78317 q -0.115128,0.307007 -0.230255,0.307007 h -0.690766 l -0.07675,0.07675 -0.997772,-0.46051 h -0.07675 l -1.496658,0.36457 v -2.187424 l 0.345382,0.05756 1.074525,-0.307007 0.537262,0.07675 0.844269,-0.153504 0.46051,0.230256 0.07675,-0.07675 h 0.07675 l 0.307007,0.07675 0.690766,-0.230256 0.230255,0.230256 0.383759,-0.07675 h 0.767517 l 0.921021,-0.07675 0.153503,0.153504 0.153503,-0.153504 0.767518,0.07675 h 0.690765 l 0.767517,-0.383759 1.228028,0.307007 0.07675,-0.07675 h 0.07675 l 0.614014,0.230256 h 0.844269 l 0.307007,-0.153504 0.307007,0.153504 0.690766,-0.07675 0.07675,0.07675 0.614014,-0.153504 h 0.230255 l 0.921021,0.230255 0.767517,-0.153503 0.307007,0.07675 1.074524,-0.230256 0.07675,0.07675 h 0.07675 l 0.537262,-0.153503 0.230255,0.07675 0.537262,-0.153503 0.690765,0.230255 h 1.228028 l 0.46051,0.07675 1.074525,-0.153504 1.304779,0.307007 1.228027,-0.153503 0.537262,0.07675 0.307007,-0.07675 0.383759,0.07675 0.383759,-0.230256 0.383758,0.230256 q 0.05756,0 0.115128,-0.01919 z m -0.05756,35.727928 -0.211067,0.07675 h -0.230255 q -0.402947,0 -0.690766,-0.230255 l -0.46051,0.153504 -0.460511,-0.230255 -0.383758,0.230255 -0.07675,-0.07675 h -0.07675 l -0.614013,0.07675 q -0.249444,0 -0.690766,-0.307007 h -0.614014 l -0.307007,-0.07675 -0.307007,0.07675 -0.92102,-0.153504 q -0.460511,0.460511 -0.921021,0.460511 h -0.230255 q -0.249443,0 -0.537262,-0.230255 h -0.07675 q -0.786705,0.230255 -1.381531,0.230255 l -1.151276,-0.153504 -0.46051,0.07675 -0.383759,-0.07675 -0.07675,0.07675 -2.149049,-0.307007 -1.074524,0.307007 -0.537262,-0.07675 -0.844269,0.153504 -0.46051,-0.230255 -0.07675,0.07675 h -0.07675 l -0.307007,-0.07675 -0.690765,0.230255 -0.230255,-0.230255 -0.383759,0.07675 h -0.767517 l -0.921021,0.07675 -0.153503,-0.153503 -0.153504,0.153503 -0.767517,-0.07675 h -0.690765 l -0.767518,0.383759 -1.228027,-0.307007 -0.07675,0.07675 h -0.07675 l -0.614014,-0.230255 h -0.844268 l -0.307007,0.153503 -0.307007,-0.153503 -0.690766,0.07675 -0.07675,-0.07675 -0.345382,0.07675 v -2.149048 q 0.326195,-0.115128 0.882645,-0.230255 0.287819,-0.307007 0.614013,-0.383759 0.55645,0.537262 1.151276,0.537262 l 0.383759,-0.230255 q 0.172691,0.249443 1.151276,0.46051 l 0.92102,-0.230255 0.844269,0.07675 h 0.383759 l 0.46051,-0.230255 q 0.364571,0.230255 0.690766,0.230255 0.652389,0 1.074524,-0.153503 l 1.688538,0.230255 q 0.115127,-0.307007 0.230255,-0.307007 h 0.690766 l 0.07675,-0.07675 0.997773,0.46051 h 0.07675 l 2.149049,-0.537262 0.383758,0.383759 q 0.460511,0 0.614014,0.153503 h 0.230255 l 0.383759,-0.230255 0.07675,0.07675 h 0.153503 q 0.383759,0 0.383759,-0.230255 h 0.230255 v 0.153503 h 0.230255 l 0.230255,-0.230255 q 0.844269,0.07675 1.76529,0.383759 h 0.383758 q 0.537263,0 2.072297,-0.537262 0.767517,0.307007 2.2258,0.307007 l 0.767517,-0.153504 q 0.65239,0.230255 1.381531,0.230255 v -0.07675 l 0.767518,0.307006 0.134315,-0.01919 z"
         style="font-style:normal;font-variant:normal;font-weight:normal;font-stretch:normal;font-size:39.29688263px;font-family:'Top Secret';-inkscape-font-specification:'Top Secret';fill:#ffffff"
         id="path788" />
      <path
         d="m 58.832058,35.622984 q 4.029466,0.460511 4.029466,0.690766 l 0.518074,-0.172692 q 0.997773,0.537262 2.091485,0.537262 l 0.36457,-0.36457 h 0.690766 l 1.57341,-0.172692 q 1.228028,0.249443 1.228028,1.76529 l -0.172692,0.518074 h -0.709953 q -1.381531,0 -1.381531,3.664895 v 0.364571 l 0.172691,2.091484 h -0.172691 q 0.518074,0.709954 0.690765,2.801438 0,0.518074 -0.518074,0.518074 l -0.172691,0.191879 v 0.172692 l 0.172691,0.863457 -0.172691,0.537262 0.172691,1.57341 v 1.400719 q 0.03838,0.863457 0.345383,0.863457 l -1.055336,4.202157 0.537262,1.055336 h -0.191879 l 0.709953,2.974129 h -0.518074 q -0.748329,0 -1.76529,0.882645 H 65.1257 q -0.997773,0 -1.918793,-0.709953 h -0.882645 l -1.400719,0.345382 -2.974129,-0.345382 -1.055337,0.172691 -0.345382,-0.518074 v -0.345383 q 0,-0.441322 1.937981,-1.055336 l 0.345382,-1.57341 q 0,-1.285592 -0.537262,-2.283364 0.115128,-1.688538 0.882645,-2.801438 l -0.172691,-0.690766 0.172691,-0.537262 -0.518074,-1.036148 0.345383,-2.974129 q 0,-2.264176 -0.518074,-4.029466 l 0.518074,-0.709953 v -0.172692 l -0.518074,-0.518074 0.172691,-0.172691 v -1.228028 l -0.172691,-1.055336 0.172691,-0.172691 v -0.172692 q 0,-2.283363 -2.283364,-2.283363 l -0.172691,-0.172692 v -0.345382 q 1.400719,-1.573411 2.628746,-1.573411 z M 74.930733,53.46776 q 1.57341,0.422134 1.57341,2.110672 v 1.228028 q -0.882645,0 -0.882645,1.036148 L 76.504143,61.354 v 0.172691 q 0,1.151276 -0.690766,1.57341 l -1.765289,-1.228027 -4.202157,0.345382 q -1.036148,0 -1.036148,-1.036148 v -0.36457 q 0,-0.249444 2.091484,-0.863457 0,-0.709954 0.882645,-1.400719 l 1.228027,-1.228028 0.172692,-0.690765 -0.172692,-0.19188 v -0.172691 l 0.863457,-1.228028 q 0.09594,-1.57341 1.055337,-1.57341 z m 4.35566,-20.742153 q -0.46051,0.268631 -1.323967,0.268631 L 77.27166,32.840734 q -0.537262,0 -0.844269,0.153504 l -0.844269,-0.07675 h -0.690765 l -0.07675,0.07675 -0.614014,-0.153504 -0.307007,0.07675 -0.230255,-0.07675 -0.46051,0.230255 -1.228028,-0.230255 -1.535034,0.07675 q -0.997773,0 -1.611786,-0.230255 -0.786706,0.537262 -1.074525,0.537262 h -0.230255 l -1.458283,-0.307007 h -1.074524 l -0.537262,0.153503 -1.304779,-0.153503 q -0.364571,0 -1.151276,0.383759 -0.364571,0 -1.074524,-0.537263 H 60.77004 l -0.230256,0.230256 h -0.07675 v -0.153504 h -0.07675 q -0.287819,0.307007 -0.537262,0.307007 l -0.614014,-0.07675 -0.07675,0.07675 q -0.07675,-0.230255 -0.46051,-0.230255 -1.151276,0.01919 -1.151276,0.153503 l -0.844269,-0.230255 -0.46051,0.07675 h -0.07675 q -0.230255,0 -0.307007,-0.997773 h -0.07675 q 0.07675,-1.304779 0.844269,-1.304779 l 0.690766,-0.153503 q 0,0.153503 0.230255,0.153503 l 0.614014,-0.07675 v 0.07675 q 0.709953,-0.09594 0.997772,-0.307007 0.74833,0.153504 1.074524,0.460511 l 0.307007,-0.07675 0.230256,0.07675 0.614013,-0.07675 0.07675,0.07675 0.383759,-0.07675 h 0.230255 l 1.074524,0.07675 0.07675,-0.07675 h 0.07675 l 0.460511,0.153503 1.381531,-0.230255 h 0.230255 l 0.614014,0.153504 h 0.383758 q 0.55645,0 1.381531,-0.230256 l 0.230256,0.07675 1.074524,-0.07675 h 0.307007 l 1.228027,0.307007 q 1.362343,-0.383758 1.842042,-0.383758 0,0.230255 0.307006,0.230255 l 0.460511,-0.07675 0.614014,0.07675 0.07675,-0.07675 0.07675,0.07675 h 0.07675 q 1.400719,0 2.993317,-0.307007 l 0.844269,0.307007 0.997772,-0.153504 0.402947,0.05756 z m 0,35.344168 q -0.268631,-0.07675 -0.709954,-0.115127 l -1.304779,0.307007 h -0.614014 l -0.690765,-0.07675 h -0.07675 l -0.07675,0.07675 -0.844269,-0.07675 H 74.58535 L 74.355095,68.0314 h -0.230256 l -0.46051,0.153503 -0.230255,-0.153503 q 0,0.153503 -1.611786,0.230255 -0.153504,-0.153504 -0.921021,-0.230255 0,0.153503 -0.690765,0.230255 0,-0.19188 -0.844269,-0.307007 h -0.844269 l -0.537262,0.230255 -1.611787,-0.307007 -0.537262,0.153504 h -0.07675 l -0.07675,-0.07675 -0.537262,0.153503 -1.30478,-0.230255 -0.614013,0.230255 h -0.07675 l -0.07675,-0.07675 -1.151276,0.153503 -1.074524,-0.307007 -1.535034,0.307007 -1.458283,-0.07675 -0.614014,0.07675 q 0,-0.134315 -0.767517,-0.153503 h -0.537262 l -0.153504,-0.153504 v -0.153503 l 0.153504,-0.614014 v -0.230255 l -0.153504,-0.230255 v -0.307007 q 0,-0.537262 0.614014,-0.614014 1.477471,0.07675 1.611786,0.230255 h 0.07675 l 0.07675,-0.07675 0.307007,0.153504 q 0,-0.287819 2.302552,-0.383759 l 1.304779,0.307007 h 0.307007 l 0.07675,-0.07675 0.07675,0.07675 h 0.153504 l 0.383758,-0.07675 0.460511,0.07675 h 0.307006 l 0.997773,-0.153503 0.844269,0.153503 h 0.767517 l 0.690766,0.230255 1.074524,-0.230255 h 0.07675 l 0.690766,0.07675 1.074524,-0.307007 0.921021,0.230255 h 0.767517 l 0.07675,-0.07675 0.07675,0.07675 h 0.307007 l 0.690766,0.07675 2.302552,-0.230255 0.230255,0.07675 0.230255,-0.07675 0.307007,0.07675 h 0.07675 l 0.07675,-0.07675 0.537262,0.07675 0.921021,-0.153503 1.228028,0.153503 0.479698,-0.134315 z"
         style="font-style:normal;font-variant:normal;font-weight:normal;font-stretch:normal;font-size:39.29688263px;font-family:'Top Secret';-inkscape-font-specification:'Top Secret';fill:#ffffff"
         id="path790" />
      <path
         d="m 81.473816,35.622984 q 4.029466,0.460511 4.029466,0.690766 l 0.518074,-0.172692 q 0.997772,0.537262 2.091485,0.537262 l 0.36457,-0.36457 h 0.690766 l 1.57341,-0.172692 q 1.228028,0.249443 1.228028,1.76529 l -0.172692,0.518074 H 91.08697 q -1.381531,0 -1.381531,3.664895 v 0.364571 l 0.172691,2.091484 h -0.172691 q 0.518074,0.709954 0.690765,2.801438 0,0.518074 -0.518074,0.518074 l -0.172691,0.191879 v 0.172692 l 0.172691,0.863457 -0.172691,0.537262 0.172691,1.57341 v 1.400719 q 0.03838,0.863457 0.345383,0.863457 l -1.055336,4.202157 0.537262,1.055336 H 89.51356 l 0.709953,2.974129 h -0.518074 q -0.748329,0 -1.76529,0.882645 h -0.172691 q -0.997773,0 -1.918793,-0.709953 H 84.96602 l -1.400719,0.345382 -2.974129,-0.345382 -1.055337,0.172691 -0.345382,-0.518074 v -0.345383 q 0,-0.441322 1.937981,-1.055336 l 0.345382,-1.57341 q 0,-1.285592 -0.537262,-2.283364 0.115128,-1.688538 0.882645,-2.801438 l -0.172691,-0.690766 0.172691,-0.537262 -0.518074,-1.036148 0.345383,-2.974129 q 0,-2.264176 -0.518074,-4.029466 l 0.518074,-0.709953 v -0.172692 l -0.518074,-0.518074 0.172691,-0.172691 v -1.228028 l -0.172691,-1.055336 0.172691,-0.172691 v -0.172692 q 0,-2.283363 -2.283364,-2.283363 L 78.84507,37.541777 v -0.345382 q 1.400719,-1.573411 2.628746,-1.573411 z M 97.572491,53.46776 q 1.57341,0.422134 1.57341,2.110672 v 1.228028 q -0.882645,0 -0.882645,1.036148 L 99.145901,61.354 v 0.172691 q 0,1.151276 -0.690766,1.57341 l -1.765289,-1.228027 -4.202157,0.345382 q -1.036148,0 -1.036148,-1.036148 v -0.36457 q 0,-0.249444 2.091484,-0.863457 0,-0.709954 0.882645,-1.400719 l 1.228027,-1.228028 0.172692,-0.690765 -0.172692,-0.19188 v -0.172691 l 0.863457,-1.228028 q 0.09594,-1.57341 1.055337,-1.57341 z m 4.355659,-20.742153 q -0.46051,0.268631 -1.32397,0.268631 l -0.690762,-0.153504 q -0.537262,0 -0.844269,0.153504 l -0.844269,-0.07675 h -0.690765 l -0.07675,0.07675 -0.614014,-0.153504 -0.307007,0.07675 -0.230255,-0.07675 -0.46051,0.230255 -1.228028,-0.230255 -1.535034,0.07675 q -0.997773,0 -1.611787,-0.230255 -0.786705,0.537262 -1.074524,0.537262 h -0.230255 l -1.458283,-0.307007 h -1.074524 l -0.537262,0.153503 -1.304779,-0.153503 q -0.364571,0 -1.151276,0.383759 -0.364571,0 -1.074524,-0.537263 h -0.153504 l -0.230255,0.230256 h -0.07675 v -0.153504 h -0.07675 q -0.287819,0.307007 -0.537262,0.307007 l -0.614014,-0.07675 -0.07675,0.07675 q -0.07675,-0.230255 -0.46051,-0.230255 -1.151276,0.01919 -1.151276,0.153503 l -0.844269,-0.230255 -0.46051,0.07675 h -0.07675 q -0.230255,0 -0.307007,-0.997773 h -0.07675 q 0.07675,-1.304779 0.844269,-1.304779 l 0.690766,-0.153503 q 0,0.153503 0.230255,0.153503 l 0.614014,-0.07675 v 0.07675 q 0.709953,-0.09594 0.997772,-0.307007 0.74833,0.153504 1.074524,0.460511 l 0.307007,-0.07675 0.230255,0.07675 0.614014,-0.07675 0.07675,0.07675 0.383759,-0.07675 h 0.230255 l 1.074524,0.07675 0.07675,-0.07675 h 0.07675 l 0.460511,0.153503 1.381531,-0.230255 h 0.230255 l 0.614014,0.153504 h 0.383758 q 0.55645,0 1.381531,-0.230256 l 0.230256,0.07675 1.074524,-0.07675 h 0.307007 l 1.228027,0.307007 q 1.362343,-0.383758 1.842042,-0.383758 0,0.230255 0.307006,0.230255 l 0.460511,-0.07675 0.614014,0.07675 0.07675,-0.07675 0.07675,0.07675 h 0.07675 q 1.400719,0 2.993317,-0.307007 l 0.844267,0.307007 0.99777,-0.153504 0.40295,0.05756 z m 0,35.344168 q -0.26863,-0.07675 -0.70995,-0.115127 l -1.304782,0.307007 h -0.614014 l -0.690765,-0.07675 h -0.07675 l -0.07675,0.07675 -0.844269,-0.07675 H 97.227108 L 96.996853,68.0314 h -0.230256 l -0.46051,0.153503 -0.230255,-0.153503 q 0,0.153503 -1.611786,0.230255 -0.153504,-0.153504 -0.921021,-0.230255 0,0.153503 -0.690765,0.230255 0,-0.19188 -0.844269,-0.307007 H 91.163722 L 90.62646,68.184903 89.014673,67.877896 88.477411,68.0314 h -0.07675 l -0.07675,-0.07675 -0.537262,0.153503 -1.30478,-0.230255 -0.614013,0.230255 h -0.07675 l -0.07675,-0.07675 -1.151276,0.153503 -1.074524,-0.307007 -1.535034,0.307007 -1.458283,-0.07675 -0.614014,0.07675 q 0,-0.134315 -0.767517,-0.153503 h -0.537262 l -0.153504,-0.153504 v -0.153503 l 0.153504,-0.614014 v -0.230255 l -0.153504,-0.230255 v -0.307007 q 0,-0.537262 0.614014,-0.614014 1.477471,0.07675 1.611786,0.230255 h 0.07675 l 0.07675,-0.07675 0.307007,0.153504 q 0,-0.287819 2.302551,-0.383759 l 1.30478,0.307007 h 0.307007 l 0.07675,-0.07675 0.07675,0.07675 h 0.153504 l 0.383758,-0.07675 0.460511,0.07675 h 0.307006 l 0.997773,-0.153503 0.844269,0.153503 h 0.767517 l 0.690766,0.230255 1.074524,-0.230255 h 0.07675 l 0.690766,0.07675 1.074524,-0.307007 0.921021,0.230255 h 0.767517 l 0.07675,-0.07675 0.07675,0.07675 h 0.307007 l 0.690766,0.07675 2.302552,-0.230255 0.230255,0.07675 0.230255,-0.07675 0.307007,0.07675 h 0.07675 l 0.07675,-0.07675 0.537262,0.07675 0.921026,-0.153503 1.22802,0.153503 0.4797,-0.134315 z"
         style="font-style:normal;font-variant:normal;font-weight:normal;font-stretch:normal;font-size:39.29688263px;font-family:'Top Secret';-inkscape-font-specification:'Top Secret';fill:#ffffff"
         id="path792" />
      <path
         d="m 106.03436,35.622984 q 2.05311,0.882645 4.27891,1.074524 l 1.24722,-0.36457 q 0.34538,0 1.24721,1.419907 v 1.611786 l -0.70995,1.055336 V 41.3218 l 0.17269,2.12986 -0.36457,2.494431 1.24722,2.859002 q 0,0.997772 -1.5926,5.161553 v 0.172692 l 0.34538,0.537262 -0.17269,0.709953 0.36457,1.784478 -0.19188,0.172691 v 0.172691 l 0.19188,0.172692 v 0.537262 h -0.19188 l 0.19188,1.247215 v 3.031693 l -0.19188,0.172692 v 0.172691 l -0.17269,-0.172691 h -0.17269 l -3.20439,0.537262 -2.32174,-1.247216 -2.12986,0.882645 h -0.36457 q -0.97858,0 -1.76529,-1.228027 0,-0.729142 1.5926,-1.074525 l 0.17269,-0.172691 v -0.191879 l -0.34538,-0.709954 0.70995,-1.957169 q 0,-1.57341 -0.53726,-2.302551 l 0.36457,-1.439095 v -1.76529 l -0.19188,-0.729141 0.19188,-0.709954 -0.36457,-2.494431 0.53726,-1.957169 -0.53726,-2.839813 0.53726,-2.859002 q -0.97858,-1.880417 -2.49443,-2.667122 0,-1.957169 4.62429,-1.957169 z m 9.26777,0 0.70996,0.364571 0.17269,-0.191879 h 0.17269 l 1.95717,0.36457 1.95717,-0.172691 1.43909,0.345383 v 0.882644 l 0.17269,5.698816 q -0.76751,0.959396 -1.78447,1.074524 l -1.41991,-1.784478 v -0.537262 l 0.17269,-0.172691 q -1.13209,-2.12986 -2.30255,-2.12986 l -0.19188,-0.709954 -1.5926,0.172692 q -0.90183,-0.115128 -0.90183,-1.074524 v -1.419907 q 0,-0.345383 1.43909,-0.709954 z m 2.12986,7.828676 v 1.074524 q 0.4797,0 0.88265,5.871507 l -0.17269,0.537262 0.53726,1.419907 -0.17269,0.172691 0.17269,0.901833 q -0.23025,1.419907 -1.07452,1.419907 -0.67158,-0.03838 -2.12986,-2.32174 -0.36457,0 -0.36457,-1.055336 L 113.86304,50.225 q 0,-2.494431 1.24722,-2.494431 0,-0.364571 0.53726,-0.364571 l 0.90183,-3.741647 0.17269,-0.172691 z m 3.74165,11.03306 q 0.82508,0 1.05534,2.859002 h 0.19188 l -0.53727,1.419907 0.1727,0.172691 -0.1727,0.901833 v 2.839814 l -0.70995,0.172691 -3.37707,-0.518074 -3.74165,0.518074 0.17269,-0.518074 -0.17269,-1.074524 v -0.172691 q 0,-0.364571 1.5926,-0.364571 0.23025,-0.537262 2.49443,-1.784478 1.36234,-3.357888 2.66712,-4.4516 z m 3.79921,-21.432919 -0.53726,-0.172691 q -0.46051,0.307007 -1.38153,0.307007 l -0.69077,-0.153504 q -0.53726,0 -0.84427,0.153504 l -0.84426,-0.07675 h -0.69077 l -0.0768,0.07675 -0.61402,-0.153504 -0.307,0.07675 -0.23026,-0.07675 -0.46051,0.230256 -1.22803,-0.230256 -1.53503,0.07675 q -0.99777,0 -1.61179,-0.230255 -0.7867,0.537262 -1.07452,0.537262 h -0.23026 l -1.45828,-0.307007 h -1.07452 l -0.53726,0.153504 -1.30478,-0.153504 q -0.36457,0 -1.15128,0.383759 -0.36457,0 -1.07452,-0.537262 h -0.15351 l -0.23025,0.230255 h -0.0768 v -0.153504 h -0.0768 q -0.28782,0.307007 -0.53726,0.307007 l -0.61401,-0.07675 -0.0768,0.07675 q -0.0768,-0.230255 -0.46051,-0.230255 -1.15128,0.01919 -1.15128,0.153504 l -0.84427,-0.230256 -0.46051,0.07675 h -0.0768 q -0.23026,0 -0.30701,-0.997772 h -0.0768 q 0.0768,-1.30478 0.84427,-1.30478 l 0.69076,-0.153503 q 0,0.153503 0.23026,0.153503 l 0.61401,-0.07675 v 0.07675 q 0.70996,-0.09594 0.99778,-0.307006 0.74833,0.153503 1.07452,0.46051 l 0.30701,-0.07675 0.23025,0.07675 0.61402,-0.07675 0.0768,0.07675 0.38376,-0.07675 h 0.23025 l 1.07453,0.07675 0.0768,-0.07675 h 0.0768 l 0.46051,0.153504 1.38153,-0.230256 h 0.23026 l 0.61401,0.153504 h 0.38376 q 0.55645,0 1.38153,-0.230255 l 0.23025,0.07675 1.07453,-0.07675 h 0.30701 l 1.22802,0.307007 q 1.36235,-0.383759 1.84204,-0.383759 0,0.230255 0.30701,0.230255 l 0.46051,-0.07675 0.61402,0.07675 0.0768,-0.07675 0.0768,0.07675 h 0.0767 q 1.40072,0 2.99332,-0.307007 l 0.84427,0.307007 0.99777,-0.153503 0.61401,0.07675 0.38376,-0.134315 z m -0.0576,35.229042 -0.53726,0.153503 -0.23026,-0.07675 -0.53726,0.153504 -0.69077,-0.230255 h -1.22802 l -0.46051,-0.07675 -1.07453,0.153503 -1.30478,-0.307006 -1.22803,0.153503 -0.53726,-0.07675 -0.307,0.07675 -0.38376,-0.07675 -0.38376,0.230255 -0.38376,-0.230255 q -0.88265,0.07675 -1.15128,0.307007 l -1.15127,-0.153503 -0.69077,0.153503 -0.23025,-0.230255 h -0.23026 l -0.23025,0.230255 -0.30701,-0.07675 -0.46051,0.07675 -0.99777,-0.230255 v 0.07675 l -1.22803,-0.383759 -1.61179,0.46051 -2.14905,-0.230255 q -0.0768,0.230255 -0.46051,0.230255 h -0.307 q -0.40295,0 -0.69077,-0.230255 l -1.61178,0.230255 q -1.07453,0 -1.07453,-0.537262 l 0.0767,-0.307007 q 0,-0.652389 -0.38376,-1.228027 0.23026,-0.614014 1.07453,-0.614014 l 1.15127,0.307007 h 0.30701 l 1.38153,0.153503 0.84427,-0.153503 0.46051,0.07675 2.30255,-0.383759 h 0.38376 q 0.21107,0.307007 2.2258,0.307007 h 0.92102 l 0.69077,-0.07675 q 1.07452,0.115128 1.07452,0.230255 l 1.53504,-0.153503 0.53726,0.153503 q 0.36457,-0.230255 1.38153,-0.230255 h 0.0767 l 0.76752,0.230255 h 0.61401 l 0.99778,-0.307006 h 0.92102 l 0.307,0.07675 0.0768,-0.07675 1.15128,0.07675 1.91879,-0.230255 1.07453,0.211067 z"
         style="font-style:normal;font-variant:normal;font-weight:normal;font-stretch:normal;font-size:39.29688263px;font-family:'Top Secret';-inkscape-font-specification:'Top Secret';fill:#ffffff"
         id="path794" />
      <path
         d="m 135.48784,35.622984 0.51808,0.172692 v 1.554222 q 0,1.189652 -1.74611,1.381531 l 0.17269,0.172691 -0.51807,0.882645 0.17269,1.20884 -0.34538,0.345383 v 1.208839 l 0.17269,0.172692 -0.17269,0.172691 v 0.172691 l 0.34538,1.381531 v 0.518075 q -1.03615,2.475243 -1.03615,3.473015 l 1.03615,3.108445 -0.34538,1.036148 v 1.228028 l 0.51807,2.417679 -0.51807,1.554222 v 0.690766 q 0,0.921021 2.43687,2.954941 l -0.34539,1.20884 h -0.17269 q -0.90183,0 -1.57341,-0.518074 h -0.34538 l -1.55422,0.172691 q -0.82508,-0.134315 -1.38153,-0.863457 l -3.64571,-1.918793 0.34538,-0.863457 q -1.20884,-0.268631 -1.20884,-0.863457 l 0.17269,-0.172691 v -0.172691 l -1.72691,-4.317285 q 0.34538,-0.767517 0.34538,-2.78225 l -0.51807,-2.763062 q 0,-3.664895 2.07229,-4.681855 l 0.1727,-0.172691 v -0.172692 l -0.51808,-0.863457 q 0.44132,-0.882644 1.55422,-1.554222 0.28782,-1.266404 3.99109,-3.473016 0,-0.402946 3.64571,-1.036148 z m 3.79921,0.172692 q 0,0.46051 2.60956,1.381531 1.20884,0 2.24499,-1.20884 h 0.34538 q 0.86346,0.441322 0.86346,1.554222 0,0.863457 -0.34539,0.863457 0.34539,0.422135 0.51808,2.78225 l -0.17269,2.935754 0.51807,1.381531 q -0.49888,1.228027 -1.55422,1.228027 0,-0.46051 -0.86346,-0.690765 l -1.38153,-4.681855 q -0.44132,0 -1.40072,-1.20884 -0.86345,-0.134316 -0.86345,-0.518074 l 0.17269,-0.709954 q -0.86346,-0.633201 -2.59037,-0.863457 0,-1.899605 1.03614,-1.899605 0,-0.345382 0.86346,-0.345382 z m 6.06339,19.226306 0.17269,0.172692 q -0.21107,2.68631 -1.03615,3.971901 -1.20884,0 -1.20884,1.400719 l -2.60956,0.863457 V 61.25806 l -1.8996,1.899605 h -1.03615 q -0.69077,-0.287819 -0.69077,-1.20884 V 61.25806 q 0,-0.307007 4.48998,-2.264176 1.91879,-3.971902 3.8184,-3.971902 z m 3.60733,13.162921 -0.30701,0.09594 -0.23025,-0.07675 -0.46051,0.153503 q 0,-0.383758 -1.07453,-0.46051 l -1.30478,0.307007 h -0.61401 l -0.69077,-0.07675 h -0.0768 l -0.0768,0.07675 -0.84427,-0.07675 h -0.38376 l -0.23025,-0.153503 h -0.23026 l -0.46051,0.153503 -0.23025,-0.153503 q 0,0.153503 -1.61179,0.230255 -0.1535,-0.153503 -0.92102,-0.230255 0,0.153503 -0.69077,0.230255 0,-0.191879 -0.84427,-0.307007 H 136.831 l -0.53727,0.230255 -1.61178,-0.307007 -0.53726,0.153504 h -0.0768 l -0.0767,-0.07675 -0.53726,0.153504 -1.30478,-0.230256 -0.61401,0.230256 h -0.0768 l -0.0768,-0.07675 -1.15127,0.153503 -1.07453,-0.307007 -1.53503,0.307007 -1.45828,-0.07675 -0.61402,0.07675 q 0,-0.134315 -0.76751,-0.153503 h -0.53727 l -0.1535,-0.153504 v -0.153503 l 0.1535,-0.614014 V 66.82256 l -0.1535,-0.230255 v -0.307007 q 0,-0.537262 0.61401,-0.614014 1.47747,0.07675 1.61179,0.230255 h 0.0767 l 0.0768,-0.07675 0.30701,0.153503 q 0,-0.287819 2.30255,-0.383759 l 1.30478,0.307007 h 0.30701 l 0.0768,-0.07675 0.0768,0.07675 h 0.15351 l 0.38375,-0.07675 0.46051,0.07675 h 0.30701 l 0.99777,-0.153503 0.84427,0.153503 h 0.76752 l 0.69077,0.230255 1.07452,-0.230255 h 0.0768 l 0.69077,0.07675 1.07452,-0.307007 0.92102,0.230255 h 0.76752 l 0.0767,-0.07675 0.0768,0.07675 h 0.30701 l 0.69076,0.07675 2.30256,-0.230255 0.23025,0.07675 0.23026,-0.07675 0.307,0.07675 h 0.0767 l 0.0768,-0.07675 0.53726,0.07675 0.92102,-0.153504 1.22803,0.153504 1.15127,-0.307007 0.69077,0.115127 z m 0,-35.017974 -1.01696,0.134316 q -0.59483,0 -1.38153,-0.230256 h -0.0768 q -0.28782,0.230256 -0.53727,0.230256 h -0.23025 q -0.46051,0 -0.92102,-0.460511 l -0.92102,0.153504 -0.30701,-0.07675 -0.30701,0.07675 h -0.61401 q -0.44132,0.307007 -0.69077,0.307007 l -0.61401,-0.07675 h -0.0768 l -0.0768,0.07675 -0.38376,-0.230256 -0.46051,0.230256 -0.46051,-0.153504 q -0.28782,0.230255 -0.69077,0.230255 h -0.23025 l -0.61402,-0.230255 q -1.53503,0 -2.99331,0.230255 -0.70996,0 -1.22803,-0.46051 0,0.307007 -1.07453,0.383759 l -0.46051,-0.07675 -0.53726,0.153503 q -1.01696,-0.153503 -1.22803,-0.307007 h -0.0768 l -0.0768,0.07675 -1.68854,-0.153503 q -0.97858,0 -1.22803,0.307007 h -0.1535 l -0.30701,-0.230256 -0.46051,0.153504 -0.0768,-0.07675 h -0.23025 q -0.4797,0.153504 -1.84204,0.230255 l -0.53727,-0.307007 v -0.07675 l 0.0768,-0.07675 q 0.307,-0.115128 0.307,-0.230255 v -0.07675 l -0.23025,-0.230255 0.1535,-0.537262 v -0.07675 q 0,-0.153503 -0.23025,-0.153503 V 31.3057 l 0.307,-0.537262 q 0.88265,0 1.53504,0.230255 0.88264,0 1.15127,-0.307007 h 0.38376 l 1.30478,0.230255 h 0.23026 l 0.84426,-0.230255 q 1.63098,0.249443 1.9188,0.46051 h 0.307 q 0.38376,0 0.46052,-0.230255 h 0.0768 l 0.0768,0.07675 h 0.30701 q 0,-0.153504 1.76529,-0.383759 l 0.46051,0.07675 h 0.0768 l 0.0767,-0.07675 q 0.30701,0.115128 0.30701,0.230255 l 0.53726,-0.07675 h 0.53726 l 1.99554,0.383758 0.76752,-0.307007 v 0.07675 q 0.72914,0 1.38153,-0.230255 l 0.76752,0.153503 q 1.45828,0 2.2258,-0.307007 1.53503,0.537263 2.0723,0.537263 h 0.38376 q 0.92102,-0.307007 1.76528,-0.383759 l 0.23026,0.230255 h 0.23026 v -0.153503 h 0.23025 q 0,0.05756 0.0192,0.09594 z"
         style="font-style:normal;font-variant:normal;font-weight:normal;font-stretch:normal;font-size:39.29688263px;font-family:'Top Secret';-inkscape-font-specification:'Top Secret';fill:#ffffff"
         id="path796" />
      <path
         d="m 150.24336,35.622984 1.43909,0.172692 1.24722,-0.172692 q 1.76529,0 1.97635,2.340928 l -1.78448,1.074524 v 0.345383 q 0,1.688538 -1.07452,2.705498 0,3.588143 -1.2664,3.588143 h -0.53726 q -0.65239,0 -1.07453,-2.513619 l 0.17269,-0.191879 V 42.79927 l -0.17269,-1.074524 0.17269,-2.513619 -0.17269,-0.172691 v -0.191879 l 0.17269,-0.537262 q -0.40294,0 -0.70995,-2.149049 0,-0.537262 1.61179,-0.537262 z m 16.13705,-2.571183 q -0.0576,0.01919 -0.0959,0.01919 -1.47748,-0.07675 -1.61179,-0.230255 h -0.0768 l -0.0768,0.07675 -0.30701,-0.153504 q 0,0.287819 -2.30255,0.383759 l -1.30478,-0.307007 h -0.30701 l -0.0768,0.07675 -0.0768,-0.07675 h -0.15351 l -0.38375,0.07675 -0.46051,-0.07675 h -0.30701 l -0.99777,0.153504 -0.84427,-0.153504 h -0.76752 l -0.69077,-0.230255 -1.07452,0.230255 h -0.0768 l -0.69077,-0.07675 -1.07452,0.307007 -0.92102,-0.230255 h -0.76752 l -0.0768,0.07675 -0.0768,-0.07675 h -0.30701 l -0.69077,-0.07675 -1.66935,0.172692 v -2.302552 l 0.21107,0.134316 h 0.23026 l 0.46051,-0.153504 0.23025,0.153504 q 0,-0.153504 1.61179,-0.230256 0.1535,0.153504 0.92102,0.230256 0,-0.153504 0.69077,-0.230256 0,0.19188 0.84426,0.307007 h 0.84427 l 0.53727,-0.230255 1.61178,0.307007 0.53726,-0.153503 h 0.0768 l 0.0768,0.07675 0.53726,-0.153503 1.30478,0.230255 0.61401,-0.230255 h 0.0767 l 0.0768,0.07675 1.15127,-0.153504 1.07453,0.307007 1.53503,-0.307007 1.45828,0.07675 0.61402,-0.07675 q 0,0.134316 0.76751,0.153504 h 0.0384 l 0.13432,-0.230256 q 0.88264,0 1.53503,0.230256 0.88264,0 1.15128,-0.307007 h 0.38375 l 1.30478,0.230255 h 0.23026 l 0.84427,-0.230255 q 1.63097,0.249443 1.91879,0.46051 h 0.30701 q 0.38376,0 0.46051,-0.230255 h 0.0768 l 0.0768,0.07675 h 0.30701 v 2.302551 h -0.0768 l -0.46051,-0.07675 -0.53727,0.153503 q -1.01696,-0.153503 -1.22802,-0.307007 h -0.0768 l -0.0767,0.07675 -1.68853,-0.153504 q -0.97859,0 -1.22803,0.307007 h -0.15351 l -0.307,-0.230255 -0.46051,0.153504 -0.0768,-0.07675 h -0.23026 q -0.4797,0.153503 -1.84204,0.230255 z m -0.19188,34.902847 h -0.0768 l -0.69076,0.153503 q 0,-0.153503 -0.23026,-0.153503 l -0.61401,0.07675 v -0.07675 q -0.70995,0.09594 -0.99777,0.307007 -0.74833,-0.153504 -1.07453,-0.460511 l -0.307,0.07675 -0.23026,-0.07675 -0.61401,0.07675 -0.0768,-0.07675 -0.38376,0.07675 h -0.23026 l -1.07452,-0.07675 -0.0768,0.07675 h -0.0768 l -0.46051,-0.153503 -1.38153,0.230255 h -0.23025 l -0.61402,-0.153504 h -0.38375 q -0.55645,0 -1.38154,0.230256 l -0.23025,-0.07675 -1.07453,0.07675 h -0.307 l -1.22803,-0.307007 q -1.36234,0.383758 -1.84204,0.383758 0,-0.230255 -0.30701,-0.230255 l -0.46051,0.07675 -0.61401,-0.07675 -0.0768,0.07675 -0.0768,-0.07675 h -0.0768 q -0.28782,0 -0.57564,0.01919 V 65.61372 l 0.42214,0.115128 0.30701,-0.07675 0.23025,0.07675 0.46051,-0.230255 1.22803,0.230255 1.53503,-0.07675 q 0.99778,0 1.61179,0.230255 0.78671,-0.537262 1.07452,-0.537262 h 0.23026 l 1.45828,0.307007 h 1.07453 l 0.53726,-0.153503 1.30478,0.153503 q 0.36457,0 1.15127,-0.383758 0.38376,0 1.07453,0.537262 h 0.1535 l 0.23026,-0.230256 h 0.0768 v 0.153504 h 0.0768 q 0.30701,-0.307007 0.53726,-0.307007 l 0.61402,0.07675 0.0768,-0.07675 q 0.0768,0.230255 0.46051,0.230255 1.15127,-0.01919 1.15127,-0.153503 l 0.84427,0.230255 0.46051,-0.07675 h 0.11513 q 0.13432,-0.01919 0.30701,-0.01919 l 1.15127,0.307007 h 0.30701 l 1.38153,0.153504 0.84427,-0.153504 0.46051,0.07675 2.30255,-0.383759 h 0.38376 q 0.1535,0.211067 1.22803,0.287819 v 2.2258 l -0.92102,-0.287819 -1.61179,0.460511 -2.14905,-0.230256 q -0.0768,0.230256 -0.46051,0.230256 h -0.307 q -0.40295,0 -0.69077,-0.230256 l -1.61179,0.230256 q -0.88264,0 -1.03614,-0.364571 z m 2.18742,-32.158972 h 2.68631 q 0.90183,1.726913 0.90183,3.780022 -0.53726,0.940209 -0.53726,2.513619 l 0.36457,0.709953 -0.72914,2.87819 h -0.90183 q -0.53726,0 -0.88265,-1.976357 l 0.34539,-0.364571 q 0,-3.281136 -1.61179,-4.125405 0,-1.074524 -1.24722,-1.074524 l -0.19188,-0.172691 v -0.19188 l 0.36458,-0.709953 -0.1727,-0.901833 z m -6.8309,0 0.72914,0.191879 0.90183,-0.191879 q 0.88265,0 1.78448,0.901832 l -0.17269,3.415452 0.17269,1.611786 -0.36457,0.901833 0.53726,3.223572 q -0.40295,0 -0.53726,1.266404 l 0.19188,0.537262 -0.36457,1.074524 v 0.172691 l 0.17269,0.537262 -0.34539,3.780023 q 0.42214,0.55645 0.70996,3.933526 l -0.17269,0.729141 0.17269,0.537262 -0.36457,0.364571 v 0.882645 q 0.19188,0.575638 1.97635,1.074524 l 0.19188,0.901833 v 0.36457 q -0.47969,0 -0.90183,0.901833 h -0.53726 l -1.07453,-0.191879 q -0.80589,0.36457 -2.34092,0.36457 l -1.07453,-0.36457 v 0.191879 l -0.17269,-0.191879 h -0.36457 l -1.43909,0.36457 q -0.86346,0 -2.14905,-0.901832 l -1.80367,0.537262 q 0,-0.441323 -0.70995,-0.537262 v -0.345383 q 0.53726,0 0.53726,-0.901833 0.84427,0 1.24722,-2.340927 l 0.19188,-0.172692 V 56.80646 q 0,-3.722459 0.70995,-4.125405 v -0.19188 Q 156.537,50.225 155.80786,49.802865 v -0.172691 q 0.53726,-0.671578 0.53726,-1.266404 v -1.247215 l -0.36457,-2.87819 v -0.172691 q 0,-1.247216 1.09371,-2.705498 0,-2.724687 -0.53726,-5.027238 h 0.17269 l 3.41545,0.191879 q 0,-0.479698 1.41991,-0.729141 z"
         style="font-style:normal;font-variant:normal;font-weight:normal;font-stretch:normal;font-size:39.29688263px;font-family:'Top Secret';-inkscape-font-specification:'Top Secret';fill:#ffffff"
         id="path798" />
      <path
         d="m 185.06946,35.622984 0.19188,0.172692 h 1.03615 q 0,0.479698 0.88264,0.882644 l 0.17269,1.055337 q -1.91879,0 -1.91879,1.228027 l -0.36457,1.228028 0.19188,0.172691 v 0.172691 l -0.53726,1.055337 0.17269,0.518074 -0.17269,0.537262 q 0,2.801438 0.88264,2.801438 l -0.17269,1.228027 v 3.146821 l 0.34538,0.709954 -1.05533,2.456055 1.05533,4.202157 v 1.228027 l -0.17269,1.055336 q 0,0.345383 1.7461,1.746102 l -1.05533,1.937981 q -1.34316,-0.172691 -2.62875,-1.055336 l -2.28336,0.537262 q -0.72914,-0.479698 -2.26418,-0.709953 l -1.22803,0.709953 h -1.05533 q -1.28559,0 -2.28337,-1.055336 v -0.364571 l 1.74611,-1.036148 0.70995,-1.592598 -0.17269,-1.573411 q 0,-0.882645 0.34538,-0.882645 l -0.34538,-2.974129 0.17269,-0.172691 V 52.81537 l -0.34538,-2.110672 v -2.456055 l -0.1727,-0.172692 0.1727,-0.172691 v -0.345383 q 0,-0.882645 -0.36457,-0.882645 l 0.70995,-2.801438 -0.34538,-1.055336 0.34538,-2.456055 q 0,-1.266403 -1.93798,-2.283364 l -0.17269,-1.228027 V 36.67832 q 2.59037,-0.537262 6.14013,-0.709953 l 0.1727,-0.172691 1.93798,0.172691 q 1.91879,-0.09594 1.91879,-0.345383 z m 4.43241,-2.609558 -0.1535,0.03837 -1.15128,-0.153503 -0.0768,0.07675 h -0.0768 l -0.61401,-0.230255 -1.30478,0.230255 -0.53727,-0.153504 -0.0767,0.07675 h -0.0768 l -0.53726,-0.153503 -1.61179,0.307006 -0.53726,-0.230255 h -0.84427 q -0.84427,0.115128 -0.84427,0.307007 -0.69076,-0.07675 -0.69076,-0.230255 -0.76752,0.07675 -0.92102,0.230255 -1.61179,-0.07675 -1.61179,-0.230255 l -0.23026,0.153503 -0.46051,-0.153503 h -0.23025 l -0.23026,0.153503 h -0.38375 l -0.84427,0.07675 -0.0768,-0.07675 h -0.0768 l -0.69076,0.07675 h -0.61402 l -0.17269,-0.03838 v -2.475243 l 0.78671,0.134316 0.53726,-0.07675 0.0767,0.07675 h 0.0768 l 0.30701,-0.07675 0.23026,0.07675 0.23025,-0.07675 2.30255,0.230255 0.69077,-0.07675 h 0.307 l 0.0768,-0.07675 0.0768,0.07675 h 0.76752 l 0.92102,-0.230255 1.07452,0.307007 0.69077,-0.07675 h 0.0768 l 1.07452,0.230256 0.69077,-0.230256 h 0.76751 l 0.84427,-0.153503 0.99778,0.153503 h 0.307 l 0.46051,-0.07675 0.38376,0.07675 h 0.1535 l 0.0768,-0.07675 0.0767,0.07675 h 0.30701 l 0.307,-0.07675 z m 0.0576,34.998786 -0.57564,0.05756 -0.0768,-0.07675 h -0.0768 q -0.21106,0.153503 -1.22802,0.307007 l -0.53727,-0.153504 -0.46051,0.07675 q -1.07452,-0.07675 -1.07452,-0.383759 -0.51807,0.460511 -1.22803,0.460511 -1.45828,-0.230256 -2.99331,-0.230256 l -0.61402,0.230256 h -0.23025 q -0.40295,0 -0.69077,-0.230256 l -0.46051,0.153504 -0.46051,-0.230255 -0.38376,0.230255 -0.0768,-0.07675 h -0.0767 l -0.61402,0.07675 q -0.24944,0 -0.69076,-0.307007 h -0.61401 l -0.30701,-0.07675 -0.30701,0.07675 -0.92102,-0.153503 q -0.46051,0.46051 -0.92102,0.46051 l -0.0192,-2.264176 q 0.59483,-0.115128 1.70773,-0.498886 0.76752,0.307007 2.2258,0.307007 l 0.76752,-0.153504 q 0.65238,0.230255 1.38153,0.230255 v -0.07675 l 0.76751,0.307007 1.99555,-0.383759 h 0.53726 l 0.53726,0.07675 q 0,-0.115128 0.30701,-0.230255 l 0.0768,0.07675 h 0.0768 l 0.46051,-0.07675 q 1.76529,0.230255 1.76529,0.383758 h 0.30701 l 0.0767,-0.07675 h 0.0768 q 0.0768,0.230256 0.46051,0.230256 h 0.30701 q 0.26863,-0.211068 1.80367,-0.441323 z"
         style="font-style:normal;font-variant:normal;font-weight:normal;font-stretch:normal;font-size:39.29688263px;font-family:'Top Secret';-inkscape-font-specification:'Top Secret';fill:#ffffff"
         id="path800" />
      <path
         d="m 200.43899,35.622984 q 0.69077,0.172692 0.69077,0.882645 -0.53727,1.66935 -2.09149,2.436867 l -0.34538,2.091485 v 1.57341 l 0.17269,1.228028 q -0.69077,0.09594 -0.69077,0.518074 l 0.1727,0.191879 v 0.172691 l -0.34539,1.20884 0.34539,1.055336 -0.1727,0.882645 0.34539,0.345383 v 0.345383 l -0.34539,0.518074 v 0.537262 l 0.34539,0.518074 v 0.690765 l -0.17269,0.19188 0.34538,0.690765 -0.34538,1.055337 v 3.14682 l -0.34539,0.518074 v 0.863457 q 0,0.786705 2.60956,3.856774 0,1.918793 -0.69076,1.918793 -0.72915,-0.690765 -3.49221,-1.228027 -3.91434,-1.957169 -5.0848,-5.065614 0,-0.767517 -0.86346,-2.264176 0,-0.422134 -1.22802,-1.918793 l -0.1727,-0.882645 q 0.69077,-1.055336 0.69077,-1.57341 l -0.17269,-2.264176 q 0.70995,-1.554222 1.05534,-5.257493 l 0.51807,-0.518074 -0.17269,-1.57341 q 0.70995,0 0.70995,-0.882645 1.57341,0 1.57341,-1.381531 l 1.7461,-1.228028 1.03615,0.172692 q 1.09371,-0.690766 4.37485,-1.573411 z m 3.66489,0.345383 q 3.14683,0.575638 3.14683,1.746102 0.38375,0.36457 1.91879,0.36457 1.22803,1.630974 1.22803,2.609559 1.30478,0 2.80143,6.984407 l 0.1727,0.191879 q -0.69077,1.323967 -0.69077,4.182969 l 0.17269,1.57341 q -0.49888,1.746102 -1.22803,1.746102 0,3.43464 -3.66489,5.065614 -1.15128,1.746102 -4.72023,1.746102 -0.78671,0.882644 -1.57341,0.882644 l -0.17269,-0.518074 q 0,-1.899605 2.09148,-2.974129 0.36457,-1.957169 0.88265,-2.091484 l -0.19188,-0.19188 v -0.345383 l 0.19188,-1.746101 q -1.05534,-3.146821 -1.05534,-4.720231 0,-0.959397 1.05534,-1.746102 l 0.17269,-1.400719 -1.05534,-2.264176 0.69077,-2.628746 -0.69077,-1.228028 0.17269,-0.863457 v -0.518074 q 0,-1.304779 -1.7461,-2.456055 v -0.172691 l 0.17269,-0.882645 h 0.51808 z m 11.80058,-3.146821 -0.11513,-0.03838 q -0.36457,0.230256 -1.38153,0.230256 h -0.0768 l -0.76752,-0.230256 h -0.61401 l -0.99777,0.307007 h -0.92102 l -0.30701,-0.07675 -0.0767,0.07675 -1.15128,-0.07675 -1.91879,0.230255 -2.30255,-0.460511 -0.84427,0.07675 -0.46051,-0.153503 h -0.0768 l -0.0768,0.07675 -0.61402,-0.153503 q 0,0.172691 -1.30478,0.46051 -0.28782,0.307007 -0.61401,0.383759 -0.55645,-0.537262 -1.15128,-0.537262 l -0.38376,0.230255 q -0.17269,-0.249443 -1.15127,-0.46051 l -0.92102,0.230255 -0.84427,-0.07675 h -0.38376 l -0.46051,0.230255 q -0.36457,-0.230255 -0.69077,-0.230255 -0.65239,0 -1.07452,0.153504 l -1.68854,-0.230256 q -0.11513,0.307007 -0.23025,0.307007 h -0.69077 l -0.0768,0.07675 -0.99777,-0.46051 h -0.0767 l -1.49666,0.36457 v -2.187424 l 0.34538,0.05756 1.07452,-0.307007 0.53727,0.07675 0.84427,-0.153504 0.46051,0.230256 0.0768,-0.07675 h 0.0767 l 0.30701,0.07675 0.69076,-0.230256 0.23026,0.230256 0.38376,-0.07675 h 0.76751 l 0.92102,-0.07675 0.15351,0.153504 0.1535,-0.153504 0.76752,0.07675 h 0.69076 l 0.76752,-0.383759 1.22803,0.307007 0.0768,-0.07675 h 0.0768 l 0.61401,0.230256 h 0.84427 l 0.30701,-0.153504 0.30701,0.153504 0.69076,-0.07675 0.0768,0.07675 0.61402,-0.153504 h 0.23025 l 0.92102,0.230255 0.76752,-0.153503 0.30701,0.07675 1.07452,-0.230256 0.0768,0.07675 h 0.0768 l 0.53726,-0.153503 0.23025,0.07675 0.53727,-0.153503 0.69076,0.230255 h 1.22803 l 0.46051,0.07675 1.07452,-0.153504 1.30478,0.307007 1.22803,-0.153503 0.53726,0.07675 0.30701,-0.07675 0.38376,0.07675 0.38376,-0.230256 0.38375,0.230256 q 0.0576,0 0.11513,-0.01919 z m -0.0576,35.727928 -0.21107,0.07675 h -0.23025 q -0.40295,0 -0.69077,-0.230255 l -0.46051,0.153504 -0.46051,-0.230255 -0.38376,0.230255 -0.0768,-0.07675 h -0.0768 l -0.61402,0.07675 q -0.24944,0 -0.69076,-0.307007 h -0.61402 l -0.307,-0.07675 -0.30701,0.07675 -0.92102,-0.153504 q -0.46051,0.460511 -0.92102,0.460511 h -0.23026 q -0.24944,0 -0.53726,-0.230255 h -0.0768 q -0.7867,0.230255 -1.38153,0.230255 l -1.15128,-0.153504 -0.46051,0.07675 -0.38376,-0.07675 -0.0767,0.07675 -2.14905,-0.307007 -1.07452,0.307007 -0.53726,-0.07675 -0.84427,0.153504 -0.46051,-0.230255 -0.0768,0.07675 h -0.0767 l -0.30701,-0.07675 -0.69077,0.230255 -0.23025,-0.230255 -0.38376,0.07675 h -0.76752 l -0.92102,0.07675 -0.1535,-0.153503 -0.15351,0.153503 -0.76751,-0.07675 h -0.69077 l -0.76752,0.383759 -1.22802,-0.307007 -0.0768,0.07675 h -0.0768 l -0.61401,-0.230255 h -0.84427 l -0.30701,0.153503 -0.307,-0.153503 -0.69077,0.07675 -0.0768,-0.07675 -0.34538,0.07675 v -2.149048 q 0.32619,-0.115128 0.88264,-0.230255 0.28782,-0.307007 0.61402,-0.383759 0.55645,0.537262 1.15127,0.537262 l 0.38376,-0.230255 q 0.17269,0.249443 1.15128,0.46051 l 0.92102,-0.230255 0.84427,0.07675 h 0.38375 l 0.46051,-0.230255 q 0.36458,0.230255 0.69077,0.230255 0.65239,0 1.07452,-0.153503 l 1.68854,0.230255 q 0.11513,-0.307007 0.23026,-0.307007 h 0.69076 l 0.0768,-0.07675 0.99778,0.46051 h 0.0768 l 2.14905,-0.537262 0.38376,0.383759 q 0.46051,0 0.61401,0.153503 h 0.23025 l 0.38376,-0.230255 0.0768,0.07675 h 0.1535 q 0.38376,0 0.38376,-0.230255 h 0.23025 v 0.153503 h 0.23026 l 0.23025,-0.230255 q 0.84427,0.07675 1.76529,0.383759 h 0.38376 q 0.53726,0 2.0723,-0.537262 0.76751,0.307007 2.2258,0.307007 l 0.76751,-0.153504 q 0.65239,0.230255 1.38154,0.230255 v -0.07675 l 0.76751,0.307006 0.13432,-0.01919 z"
         style="font-style:normal;font-variant:normal;font-weight:normal;font-stretch:normal;font-size:39.29688263px;font-family:'Top Secret';-inkscape-font-specification:'Top Secret';fill:#ffffff"
         id="path802" />
      <path
         d="m 216.42253,35.622984 q 1.97636,0 3.20439,0.882645 0.80589,0 1.59259,-0.537262 h 1.95717 q 4.60511,0.518074 4.60511,1.419907 0,1.995545 2.30255,3.204384 1.05533,1.937981 1.41991,4.067842 l 0.88264,1.592598 -0.17269,0.191879 v 0.518074 q 4.6051,4.969674 4.6051,7.272226 l -0.17269,0.172692 v 0.191879 l 0.17269,0.882645 -0.17269,1.419907 q 0.70995,0 0.70995,1.937981 0,1.957169 -0.53726,2.12986 l 0.17269,0.172691 v 0.537262 l -0.34538,0.537262 0.17269,0.537263 h -0.17269 l -0.90183,0.345382 q -5.66044,-1.170463 -5.66044,-3.185196 -0.61402,0 -1.07453,-2.129861 -0.34538,0 -0.34538,-0.709953 -0.88264,0 -0.88264,-1.784478 -2.30256,-2.110672 -2.30256,-3.722458 -0.26863,0 -1.61178,-3.012505 -0.46051,0 -1.22803,-2.475243 -1.09371,-0.287819 -2.30255,-4.432413 -3.22357,-4.067841 -4.08703,-4.067841 -0.51807,0 -0.88264,-0.709953 1.05533,-0.901833 1.05533,-1.247216 z m 17.55696,0.537262 q 0.97858,0 3.0125,0.709954 h 0.17269 l 0.70996,-0.537262 h 0.70995 q 1.34316,0 1.5926,1.055336 0,0.709953 -1.05534,0.901833 0,0.287819 -1.76529,1.592598 l -0.19188,1.419907 0.19188,2.647934 -0.70995,5.315057 v 0.901833 q -1.41991,-0.825081 -1.41991,-2.667123 l 0.51808,-1.765289 q -0.51808,-0.940209 -0.70996,-3.012505 l 0.36458,-1.419907 q 0,-0.422135 -1.24722,-1.247216 l -0.17269,-0.709953 0.17269,-0.172692 v -1.074524 l -1.22803,-1.055336 v -0.709953 z m -14.71714,6.734964 q 0.61401,0.921021 1.59259,4.259721 v 2.110672 l -0.34538,0.709954 0.70995,3.012505 v 0.191879 q 0,1.477471 -0.70995,4.240533 0.34538,0 0.88265,2.494431 l 0.17269,0.172691 h 0.19188 l 0.17269,-0.172691 h 0.17269 q 1.41991,0.46051 1.41991,0.882645 v 0.882644 l -0.34539,1.074525 -3.91433,-0.364571 q -1.05534,0.05756 -1.05534,0.364571 l -0.70995,-0.364571 -1.07453,0.172691 -0.34538,-0.345383 v -0.882644 q 2.12986,-1.170464 2.12986,-3.012505 l 0.34538,-0.537263 -0.17269,-1.247215 1.24722,-2.302552 v -0.882645 l -1.24722,-3.722458 0.17269,-2.667123 h -0.17269 l 0.17269,-0.172691 v -2.475243 l 0.19188,-0.191879 -0.19188,-0.172692 v -0.172691 q 0.34538,-0.805893 0.70996,-0.882645 z m 23.29414,-9.939348 -0.65239,0.172691 -0.38375,-0.383758 q -0.46052,0 -0.61402,-0.153504 h -0.23025 l -0.38376,0.230255 -0.0767,-0.07675 h -0.15351 q -0.38376,0 -0.38376,0.230255 h -0.23025 v -0.153504 h -0.23026 l -0.23025,0.230255 q -0.84427,-0.07675 -1.76529,-0.383758 h -0.38376 q -0.53726,0 -2.0723,0.537262 -0.76751,-0.307007 -2.2258,-0.307007 l -0.76751,0.153503 q -0.65239,-0.230255 -1.38153,-0.230255 v 0.07675 l -0.76752,-0.307007 -1.99555,0.383759 h -0.53726 l -0.53726,-0.07675 q 0,0.115128 -0.30701,0.230255 l -0.0768,-0.07675 h -0.0767 l -0.46051,0.07675 q -1.76529,-0.230255 -1.76529,-0.383758 h -0.30701 l -0.0768,0.07675 h -0.0768 q -0.0768,-0.230255 -0.46051,-0.230255 h -0.30701 q -0.28782,0.211067 -1.91879,0.46051 l -0.84427,-0.230255 h -0.23026 l -1.30478,0.230255 h -0.38375 q -0.26864,-0.307006 -1.15128,-0.307006 -0.65239,0.230255 -1.53503,0.230255 l -0.30701,-0.537262 v -0.307007 q 0.23025,0 0.23025,-0.153504 v -0.07675 l -0.1535,-0.537263 0.23026,-0.230255 v -0.07675 q 0,-0.115128 -0.30701,-0.230256 l -0.0768,-0.07675 v -0.07675 l 0.53726,-0.307007 q 1.36234,0.07675 1.84204,0.230255 h 0.23026 l 0.0768,-0.07675 0.46051,0.153503 0.307,-0.230255 h 0.15351 q 0.24944,0.307007 1.22803,0.307007 l 1.68853,-0.153504 0.0768,0.07675 h 0.0768 q 0.21106,-0.153503 1.22802,-0.307007 l 0.53727,0.153504 0.46051,-0.07675 q 1.07452,0.07675 1.07452,0.383758 0.51808,-0.46051 1.22803,-0.46051 1.45828,0.230255 2.99332,0.230255 l 0.61401,-0.230255 h 0.23025 q 0.40295,0 0.69077,0.230255 l 0.46051,-0.153503 0.46051,0.230255 0.38376,-0.230255 0.0768,0.07675 h 0.0768 l 0.61402,-0.07675 q 0.24944,0 0.69076,0.307007 h 0.61402 l 0.307,0.07675 0.30701,-0.07675 0.92102,0.153503 q 0.46051,-0.46051 0.92102,-0.46051 h 0.23026 q 0.24944,0 0.53726,0.230255 h 0.0768 q 0.78671,-0.230255 1.38153,-0.230255 l 1.15128,0.153503 0.46051,-0.07675 0.38376,0.07675 0.0767,-0.07675 1.80366,0.249443 z m 0,35.324981 -0.26863,0.07675 h -0.23025 l -0.92102,-0.230255 -0.76752,0.153504 -0.30701,-0.07675 -1.07452,0.230255 -0.0768,-0.07675 h -0.0768 l -0.53726,0.153504 -0.23025,-0.07675 -0.53726,0.153504 -0.69077,-0.230256 h -1.22803 l -0.46051,-0.07675 -1.07452,0.153503 -1.30478,-0.307007 -1.22803,0.153504 -0.53726,-0.07675 -0.30701,0.07675 -0.38376,-0.07675 -0.38376,0.230255 -0.38375,-0.230255 q -0.88265,0.07675 -1.15128,0.307007 l -1.15128,-0.153504 -0.69076,0.153504 -0.23026,-0.230255 h -0.23025 l -0.23026,0.230255 -0.307,-0.07675 -0.46051,0.07675 -0.99778,-0.230255 v 0.07675 l -1.22802,-0.383758 -1.61179,0.46051 -2.14905,-0.230255 q -0.0767,0.230255 -0.46051,0.230255 h -0.30701 q -0.40294,0 -0.69076,-0.230255 l -1.61179,0.230255 q -1.07452,0 -1.07452,-0.537262 l 0.0768,-0.307007 q 0,-0.652389 -0.38376,-1.228027 0.23026,-0.614014 1.07453,-0.614014 l 1.15127,0.307007 h 0.30701 l 1.38153,0.153503 0.84427,-0.153503 0.46051,0.07675 2.30255,-0.383758 h 0.38376 q 0.21107,0.307007 2.2258,0.307007 h 0.92102 l 0.69077,-0.07675 q 1.07452,0.115128 1.07452,0.230255 l 1.53503,-0.153503 0.53727,0.153503 q 0.36457,-0.230255 1.38153,-0.230255 h 0.0768 l 0.76752,0.230255 h 0.61401 l 0.99777,-0.307007 h 0.92102 l 0.30701,0.07675 0.0768,-0.07675 1.15128,0.07675 1.91879,-0.230255 2.30255,0.46051 0.84427,-0.07675 0.46051,0.153504 h 0.0768 l 0.0768,-0.07675 0.61401,0.153504 q 0,-0.09594 0.42213,-0.230256 z"
         style="font-style:normal;font-variant:normal;font-weight:normal;font-stretch:normal;font-size:39.29688263px;font-family:'Top Secret';-inkscape-font-specification:'Top Secret';fill:#ffffff"
         id="path804" />
      <path
         d="m 250.09735,35.622984 q 1.72692,0.345383 1.72692,0.690766 v 0.518074 q 0,1.304779 -2.0723,1.918793 l -0.70995,2.091484 q 0.99777,2.609559 2.09148,2.609559 0.13432,0.498886 3.6649,1.381531 2.68631,2.436867 4.16378,2.436867 0,0.307007 1.7461,1.746102 V 50.225 q 0.51807,0 0.51807,0.345382 l -0.17269,0.709954 q 0.69077,0.940208 0.69077,3.127633 -0.40295,0 -0.69077,3.127632 -1.76529,1.880418 -3.30032,4.355661 -3.95272,1.208839 -5.39181,1.208839 h -0.17269 q -0.36457,0 -0.53726,-1.036148 0.307,-1.746102 1.57341,-1.746102 1.72691,0 1.91879,-1.57341 v -1.554222 q -0.82508,-3.300325 -4.35566,-3.300325 -0.17269,-0.55645 -2.95494,-1.400719 0,-0.518074 -2.78225,-1.554222 -0.94021,-2.436867 -1.38153,-2.436867 v -0.882645 l -1.40072,-1.899605 0.86345,-1.746102 -0.51807,-1.746102 0.51807,-0.172691 v -0.863457 q 2.30256,-3.664895 3.83759,-4.35566 l 0.17269,0.191879 h 0.17269 q 0.51808,0 2.78225,-1.400719 z m 10.09285,0 h 0.1727 q 0.17269,1.20884 0.51807,1.20884 l -0.17269,0.882645 0.17269,1.036148 -0.51807,1.918793 v 0.172691 l 0.69076,1.918793 v 0.518075 q 0,0.825081 -1.05534,1.726913 h -0.86345 v -1.726913 q -2.0723,-3.3387 -2.60956,-3.664895 -2.89738,-1.419907 -3.30032,-1.899605 v -0.345383 q 0,-1.400719 0.69076,-1.400719 3.39626,0.479698 4.01028,1.055336 h 0.69076 q 0,-1.132088 1.57341,-1.400719 z m -16.88537,17.038883 h 0.53726 q 0.69076,0.191879 1.38153,1.918793 v 0.172691 l -0.17269,0.863457 q 1.13208,0.959397 1.91879,3.664895 v 0.172691 h 0.86346 l 2.78225,2.072297 v 0.882645 q 0,0.518074 -1.9188,0.518074 -0.0959,-0.422135 -1.20884,-0.863457 l -0.17269,0.172691 h -0.17269 q -1.05533,-0.422134 -1.05533,-0.709953 -1.15128,0 -2.0723,1.400719 h -0.53726 l -0.51808,-0.863457 0.17269,-0.882645 -0.34538,-0.345383 v -1.208839 l -0.34538,-1.055336 0.34538,-1.381531 v -1.228028 l -0.17269,-0.690766 q 0.23025,-2.609558 0.69077,-2.609558 z m 20.62702,-19.725193 -0.6332,0.05756 -0.23026,-0.07675 -0.23025,0.07675 -0.30701,-0.07675 h -0.0768 l -0.0768,0.07675 -0.53726,-0.07675 -0.92102,0.153503 -1.22803,-0.153503 -1.15128,0.307007 -2.3793,-0.383759 q -0.42214,0 -0.84427,0.230255 -0.4797,0 -0.92102,-0.230255 l -1.22803,0.230255 -1.76529,-0.153503 v 0.07675 h -0.1535 l -0.23026,-0.153504 -0.61401,0.153504 h -0.38376 l -0.46051,-0.153504 -1.30478,0.153504 -1.07452,-0.230256 -0.61402,0.07675 -0.84427,-0.07675 -0.92102,0.230256 -0.307,-0.07675 -2.45606,0.211067 v -2.417679 l 0.0768,-0.01919 h 0.0768 l 0.1535,0.153503 q 1.03615,0 1.45828,-0.383758 l 0.30701,0.07675 0.38376,-0.07675 q 0,0.153503 0.99777,0.230255 l 0.23025,-0.07675 0.99778,0.230255 0.61401,-0.230255 h 0.61401 l 0.30701,-0.07675 q 1.15128,0.09594 1.15128,0.307007 l 1.61178,-0.230255 1.38153,0.07675 1.22803,-0.153504 1.07453,0.230256 h 1.61178 q 0.13432,-0.134316 0.92102,-0.230256 l 0.46051,0.07675 0.46051,-0.153503 0.23026,0.07675 0.46051,-0.153503 q 0,0.383759 1.07452,0.46051 l 1.30478,-0.307007 h 0.61402 l 0.69076,0.07675 h 0.0768 l 0.0768,-0.07675 0.84426,0.07675 h 0.38376 l 0.0192,0.01919 z m 0,34.96041 q -1.13209,0.03838 -2.41768,0.287819 l -0.84427,-0.307007 -0.99777,0.153504 -0.61401,-0.07675 -0.46051,0.153503 h -0.30701 q -0.36457,0 -0.76752,-0.230255 l -0.69076,0.07675 q 0,-0.09594 -0.76752,-0.307007 -0.40295,0.09594 -0.61401,0.383759 l -0.30701,0.07675 -0.53726,-0.07675 -0.0768,0.07675 -2.76306,-0.230255 -0.307,0.07675 -0.92102,-0.230255 -0.84427,0.07675 -0.61402,-0.07675 -1.07452,0.230255 -1.30478,-0.153504 -0.46051,0.153504 h -0.38376 l -0.61401,-0.153504 -0.23026,0.153504 h -0.1535 v -0.07675 l -1.76529,0.153504 -1.05534,-0.19188 v -2.206612 l 0.59483,-0.134315 1.22803,0.153503 1.38153,-0.07675 1.61178,0.230256 q 0,-0.211068 1.15128,-0.307007 l 0.30701,0.07675 h 0.61401 l 0.61401,0.230256 0.99778,-0.230256 0.23025,0.07675 q 0.99777,-0.07675 0.99777,-0.230255 l 0.38376,0.07675 0.30701,-0.07675 q 0.42213,0.383759 1.45828,0.383759 l 0.1535,-0.153504 h 0.0768 l 0.307,0.07675 0.30701,-0.153504 0.61401,0.153504 1.22803,-0.230255 0.53726,0.307007 0.46051,-0.153504 0.0768,0.07675 h 0.0768 l 0.76751,-0.07675 0.69077,0.230255 q 0.46051,-0.307007 1.38153,-0.307007 l 0.69077,0.153504 q 0.53726,0 0.84427,-0.153504 l 0.84426,0.07675 h 0.69077 l 0.0768,-0.07675 0.19188,0.03838 z"
         style="font-style:normal;font-variant:normal;font-weight:normal;font-stretch:normal;font-size:39.29688263px;font-family:'Top Secret';-inkscape-font-specification:'Top Secret';fill:#ffffff"
         id="path806" />
      <path
         d="m 264.52668,30.74925 q 0.32619,-0.249443 1.03615,-0.287819 v 0.07675 q 0.99777,0.07675 0.99777,0.307007 v 0.07675 l -0.0768,0.46051 0.23025,0.844269 q -0.13431,0 -0.1535,1.151276 0,0.383759 0.23026,0.460511 l -0.0768,0.07675 0.0768,0.614014 q 0,0.230255 -0.30701,0.537262 v 0.07675 h 0.1535 v 0.07675 l -0.23025,0.230255 v 0.153503 q 0.53726,0.690766 0.53726,1.074524 -0.38376,0.786706 -0.38376,1.151276 l 0.1535,1.30478 -0.1535,0.537262 v 1.074524 l 0.30701,1.458282 V 42.4347 q 0,0.287819 -0.53726,1.074524 0.23025,0.614014 0.23025,1.611786 l -0.0768,1.535034 0.23025,1.228028 -0.23025,0.46051 0.0768,0.230256 -0.0768,0.307006 0.1535,0.614014 -0.0768,0.07675 v 0.690765 l 0.0768,0.844269 q -0.1535,0.307007 -0.1535,0.844269 l 0.1535,0.690766 q 0,0.921021 -0.307,1.381531 l 0.23025,0.690765 -0.0768,0.767518 v 0.07675 l 0.0768,0.07675 -0.1535,0.460511 0.307,0.537262 -0.23025,1.228027 0.1535,0.614014 -0.1535,0.307007 0.0768,0.307007 v 0.07675 l -0.1535,0.153504 q 0,1.036148 0.38376,1.458283 l -0.0768,0.307007 0.0768,0.383758 q -0.15351,0 -0.23026,0.997773 l 0.0768,0.230255 -0.23025,0.997772 0.23025,0.614014 v 0.614014 l 0.0767,0.307007 q -0.0959,1.151276 -0.307,1.151276 l 0.21106,1.47747 -1.34315,0.07675 v 0.191879 q -0.53726,0.05756 -1.4391,0.09594 l -1.30477,-0.307007 h -0.30701 l -0.0768,0.07675 -0.0768,-0.07675 -0.0384,-2.12986 0.65239,-0.09594 1.07452,0.307007 0.57564,-0.115128 -0.0767,-0.652389 0.23025,-1.074524 -0.0768,-0.614014 0.0768,-0.844269 -0.23025,-0.921021 0.0767,-0.307007 -0.23025,-2.763062 0.0768,-0.07675 -0.0768,-0.537262 0.0768,-0.307007 q 0.28782,-0.211067 0.38376,-0.614013 -0.21107,-0.767518 -0.30701,-0.767518 l 0.0767,-0.690765 q -0.23025,-0.402947 -0.23025,-0.767517 v -0.307007 l 0.1535,-0.460511 -0.0768,-0.614013 0.1535,-0.997773 -0.30701,-0.844269 q 0.30701,-1.611786 0.30701,-2.993317 v -0.07675 l -0.0767,-0.07675 0.0767,-0.07675 -0.0767,-0.614014 0.0767,-0.46051 q 0,-0.307007 -0.23025,-0.307007 0,-0.479698 0.38375,-1.842042 l -0.307,-1.228027 v -0.307007 l 0.0768,-1.074524 -0.0768,-0.230255 q 0.23025,-0.825081 0.23025,-1.381531 V 40.66941 l -0.1535,-0.614014 v -0.230255 l 0.23025,-1.381531 -0.1535,-0.46051 v -0.07675 l 0.0768,-0.07675 -0.0768,-1.074524 v -0.230255 l 0.0768,-0.383759 -0.0768,-0.07675 0.0768,-0.614014 -0.0768,-0.230255 0.0768,-0.307007 q -0.307,-0.326195 -0.46051,-1.074524 0.19188,-0.249444 0.28782,-0.825081 -0.7867,-0.05756 -0.88264,-0.172692 h -0.0768 l -0.0767,0.07675 -0.307,-0.153504 q 0,0.172692 -0.86346,0.287819 v -2.436867 h 0.0192 l 1.45828,0.07675 0.61401,-0.07675 q 0,0.09594 0.40295,0.134316 z"
         style="font-style:normal;font-variant:normal;font-weight:normal;font-stretch:normal;font-size:39.29688263px;font-family:'Top Secret';-inkscape-font-specification:'Top Secret';fill:#ffffff"
         id="path808" />
    </g>
  </g>
</svg>
