<?xml version="1.0" encoding="UTF-8" standalone="no"?>
<svg
   xmlns:dc="http://purl.org/dc/elements/1.1/"
   xmlns:cc="http://creativecommons.org/ns#"
   xmlns:rdf="http://www.w3.org/1999/02/22-rdf-syntax-ns#"
   xmlns:svg="http://www.w3.org/2000/svg"
   xmlns="http://www.w3.org/2000/svg"
   xmlns:sodipodi="http://sodipodi.sourceforge.net/DTD/sodipodi-0.dtd"
   xmlns:inkscape="http://www.inkscape.org/namespaces/inkscape"
   width="364"
   height="158.74318"
   viewBox="0 0 364 158.74318"
   fill="none"
   version="1.1"
   id="svg10"
   sodipodi:docname="dataeast.svg"
   inkscape:version="1.0.1 (1.0.1+r73)">
  <metadata
     id="metadata16">
    <rdf:RDF>
      <cc:Work
         rdf:about="">
        <dc:format>image/svg+xml</dc:format>
        <dc:type
           rdf:resource="http://purl.org/dc/dcmitype/StillImage" />
        <dc:title></dc:title>
      </cc:Work>
    </rdf:RDF>
  </metadata>
  <defs
     id="defs14" />
  <sodipodi:namedview
     pagecolor="#9a9a9a"
     bordercolor="#666666"
     borderopacity="1"
     objecttolerance="10"
     gridtolerance="10"
     guidetolerance="10"
     inkscape:pageopacity="0"
     inkscape:pageshadow="2"
     inkscape:window-width="1366"
     inkscape:window-height="740"
     id="namedview12"
     showgrid="false"
     inkscape:pagecheckerboard="false"
     inkscape:zoom="2.1953098"
     inkscape:cx="190.14434"
     inkscape:cy="92.550739"
     inkscape:window-x="0"
     inkscape:window-y="0"
     inkscape:window-maximized="1"
     inkscape:current-layer="svg10" />
  <path
     d="m 7.84564,158.719 c 1.15914,-0.001 2.30396,-0.256 3.35486,-0.745 1.0333,-0.456 1.9502,-1.14 2.682,-2.001 v 0 l -1.9982,-2.002 c -0.4904,0.59 -1.0995,1.07 -1.7877,1.41 -0.6751,0.327 -1.41628,0.494 -2.16636,0.489 -0.63296,0.007 -1.26099,-0.112 -1.84773,-0.349 -0.58675,-0.238 -1.12055,-0.589 -1.57053,-1.035 -0.4333,-0.435 -0.77564,-0.953 -1.00715,-1.522 -0.2482,-0.605 -0.37318,-1.253 -0.36761,-1.906 -0.00676,-0.66 0.11467,-1.314 0.35754,-1.928 0.22671,-0.57 0.56267,-1.091 0.98902,-1.533 0.42756,-0.438 0.93894,-0.785 1.50367,-1.022 0.5885,-0.25 1.22189,-0.376 1.86121,-0.372 0.77102,-0.003 1.5321,0.173 2.22274,0.516 0.7139,0.359 1.3391,0.872 1.83,1.502 v 0 l 2.0617,-2.066 c -0.7249,-0.88 -1.6473,-1.577 -2.6921,-2.033 -1.0739,-0.497 -2.24239,-0.755 -3.42536,-0.757 -1.05661,-0.007 -2.10413,0.196 -3.08187,0.597 -0.92633,0.375 -1.77213,0.925 -2.49169,1.619 -0.71023,0.695 -1.275137,1.523 -1.661792,2.438 -0.400825,0.96 -0.60806038,1.989 -0.609788817,3.028 -0.001728433,1.04 0.202083817,2.07 0.599717817,3.03 0.382077,0.912 0.943423,1.738 1.650713,2.429 0.7199,0.693 1.56605,1.243 2.4927,1.618 0.98435,0.402 2.03878,0.605 3.10201,0.595 z m 39.85996,0.023 c 1.053,0.007 2.0971,-0.195 3.0707,-0.597 0.9223,-0.374 1.7614,-0.927 2.4691,-1.627 0.7076,-0.7 1.2698,-1.533 1.6542,-2.451 0.4025,-0.953 0.6098,-1.978 0.6098,-3.013 0,-1.035 -0.2073,-2.06 -0.6098,-3.013 -0.3843,-0.919 -0.9465,-1.752 -1.6542,-2.451 -0.7076,-0.7 -1.5468,-1.253 -2.4691,-1.627 -1.9631,-0.795 -4.1583,-0.795 -6.1214,0 -0.9223,0.374 -1.7614,0.927 -2.4691,1.627 -0.7077,0.699 -1.2698,1.532 -1.6542,2.451 -0.4022,0.953 -0.6094,1.978 -0.6094,3.013 0,1.035 0.2072,2.06 0.6094,3.013 0.3844,0.918 0.9466,1.751 1.6543,2.451 0.7076,0.7 1.5467,1.253 2.469,1.627 0.9674,0.4 2.0049,0.602 3.0517,0.596 z m 0,-2.833 c -0.6181,0.006 -1.2306,-0.115 -1.8002,-0.355 -0.5696,-0.24 -1.0842,-0.594 -1.5124,-1.039 -0.4223,-0.447 -0.7543,-0.972 -0.9779,-1.544 -0.477,-1.237 -0.477,-2.608 0,-3.845 0.2255,-0.568 0.5574,-1.089 0.9779,-1.533 0.4282,-0.445 0.9428,-0.799 1.5124,-1.039 0.5696,-0.24 1.1821,-0.361 1.8002,-0.355 0.6361,-0.005 1.2664,0.122 1.8511,0.372 0.5584,0.237 1.0628,0.585 1.4825,1.022 0.4206,0.444 0.7525,0.965 0.978,1.533 0.4767,1.237 0.4767,2.608 0,3.845 -0.2236,0.572 -0.5557,1.097 -0.978,1.544 -0.4198,0.437 -0.9242,0.785 -1.4825,1.022 -0.5845,0.25 -1.2144,0.376 -1.8501,0.371 z m 46.2331,2.599 v -2.725 H 85.8815 V 143.6 h -3.0476 v 14.906 z m 38.4523,0 v -2.725 h -8.058 V 143.6 h -3.049 v 14.906 z m 38.745,0 v -2.683 h -8.351 v -3.536 h 5.449 v -2.599 h -5.449 v -3.404 h 8.267 v -2.683 h -11.318 v 14.906 z m 33.824,0.212 c 1.159,-0.001 2.304,-0.256 3.354,-0.745 1.034,-0.456 1.951,-1.141 2.682,-2.001 v 0 l -1.999,-2.001 c -0.49,0.59 -1.099,1.07 -1.787,1.41 -0.675,0.327 -1.417,0.494 -2.167,0.489 -0.633,0.007 -1.26,-0.112 -1.847,-0.349 -0.587,-0.238 -1.12,-0.589 -1.57,-1.035 -0.433,-0.435 -0.776,-0.953 -1.007,-1.522 -0.249,-0.605 -0.374,-1.253 -0.369,-1.906 -0.006,-0.66 0.115,-1.314 0.359,-1.928 0.226,-0.57 0.561,-1.091 0.988,-1.533 0.427,-0.438 0.939,-0.786 1.503,-1.022 0.589,-0.25 1.222,-0.377 1.862,-0.372 0.773,-0.003 1.537,0.175 2.229,0.52 0.714,0.359 1.34,0.872 1.83,1.502 v 0 l 2.062,-2.066 c -0.725,-0.88 -1.647,-1.577 -2.692,-2.033 -1.074,-0.496 -2.242,-0.754 -3.424,-0.757 -1.057,-0.007 -2.104,0.196 -3.082,0.597 -0.927,0.375 -1.773,0.924 -2.493,1.618 -0.71,0.694 -1.276,1.523 -1.663,2.438 -0.4,0.96 -0.608,1.989 -0.609,3.028 -0.002,1.04 0.202,2.07 0.599,3.031 0.382,0.911 0.944,1.737 1.651,2.428 0.72,0.693 1.566,1.243 2.493,1.618 0.983,0.4 2.035,0.6 3.097,0.59 z m 40.344,-0.212 v -12.183 h 4.942 v -2.726 h -12.957 v 2.726 h 4.964 v 12.181 z m 34.938,0 v -14.906 h -3.05 v 14.906 z m 35.128,0.235 c 1.053,0.007 2.097,-0.195 3.071,-0.597 0.922,-0.374 1.761,-0.927 2.469,-1.627 0.708,-0.7 1.27,-1.533 1.654,-2.451 0.403,-0.953 0.61,-1.978 0.61,-3.013 0,-1.035 -0.207,-2.06 -0.61,-3.013 -0.384,-0.919 -0.946,-1.752 -1.654,-2.451 -0.707,-0.7 -1.547,-1.253 -2.469,-1.627 -1.963,-0.795 -4.157,-0.795 -6.12,0 -0.922,0.374 -1.761,0.927 -2.468,1.627 -0.708,0.7 -1.27,1.533 -1.655,2.451 -0.402,0.953 -0.61,1.978 -0.61,3.013 0,1.035 0.208,2.06 0.61,3.013 0.385,0.918 0.947,1.751 1.655,2.451 0.707,0.7 1.546,1.253 2.468,1.627 0.967,0.399 2.003,0.602 3.049,0.595 z m 0,-2.833 c -0.632,0.006 -1.259,-0.121 -1.84,-0.372 -0.554,-0.238 -1.055,-0.586 -1.472,-1.022 -0.423,-0.447 -0.756,-0.971 -0.979,-1.544 -0.477,-1.237 -0.477,-2.608 0,-3.845 0.225,-0.568 0.558,-1.089 0.979,-1.533 0.417,-0.436 0.918,-0.784 1.472,-1.022 0.581,-0.251 1.208,-0.378 1.84,-0.372 0.636,-0.005 1.266,0.122 1.85,0.372 0.559,0.237 1.064,0.585 1.484,1.022 0.421,0.444 0.752,0.965 0.978,1.533 0.477,1.237 0.477,2.608 0,3.845 -0.224,0.572 -0.556,1.097 -0.978,1.544 -0.42,0.437 -0.925,0.785 -1.484,1.022 -0.584,0.25 -1.214,0.376 -1.85,0.37 z m 38.009,2.599 v -9.971 l 7.509,9.971 h 2.692 v -14.906 h -2.86 v 9.647 l -7.32,-9.647 h -2.903 v 14.906 z"
     fill="#ffffff"
     id="path2" />
  <path
     d="m 152.373,123.307 c 1.68,0.003 3.308,-0.577 4.609,-1.641 1.3,-1.064 2.19,-2.546 2.519,-4.194 0.329,-1.647 0.077,-3.358 -0.715,-4.839 -0.791,-1.482 -2.072,-2.644 -3.625,-3.286 -1.552,-0.643 -3.279,-0.727 -4.886,-0.239 -1.608,0.489 -2.996,1.52 -3.927,2.918 -0.932,1.398 -1.35,3.076 -1.183,4.747 0.167,1.672 0.909,3.234 2.1,4.419 1.355,1.354 3.192,2.114 5.108,2.115 z m -6.222,-7.237 c -0.003,-0.817 0.156,-1.626 0.469,-2.38 0.313,-0.754 0.774,-1.438 1.355,-2.011 0.868,-0.869 1.975,-1.461 3.18,-1.701 1.206,-0.239 2.455,-0.116 3.59,0.354 1.135,0.47 2.105,1.266 2.788,2.288 0.682,1.022 1.047,2.223 1.047,3.451 0,1.229 -0.365,2.43 -1.047,3.452 -0.683,1.021 -1.653,1.818 -2.788,2.288 -1.135,0.47 -2.384,0.593 -3.59,0.353 -1.205,-0.239 -2.312,-0.831 -3.18,-1.7 -0.582,-0.574 -1.043,-1.258 -1.357,-2.013 -0.313,-0.754 -0.471,-1.564 -0.467,-2.381 z"
     fill="#ffffff"
     id="path4" />
  <path
     d="m 150.515,116.68 v 3.413 h -1.048 v -8.017 h 2.977 c 1.122,0.013 1.779,0.013 2.402,0.484 0.283,0.217 0.509,0.5 0.658,0.823 0.15,0.324 0.218,0.679 0.2,1.035 0.03,0.543 -0.153,1.076 -0.51,1.486 -0.357,0.41 -0.86,0.665 -1.402,0.71 l 2.256,3.475 h -1.267 l -2.196,-3.412 h -2.07 z m 0,-0.885 h 2.128 c 0.327,0.013 0.655,-0.013 0.976,-0.08 0.298,-0.053 0.565,-0.215 0.752,-0.454 0.186,-0.238 0.277,-0.537 0.256,-0.839 0.01,-0.211 -0.028,-0.422 -0.11,-0.616 -0.083,-0.194 -0.209,-0.367 -0.368,-0.505 -0.464,-0.297 -1.019,-0.415 -1.564,-0.335 h -2.07 v 2.832 z"
     fill="#ffffff"
     id="path6" />
  <path
     d="m 164.194,0.91 h 28.241 c 15.53,0 22.446,5.733 22.446,21.385 v 11.5267 c 0,15.0453 -4.914,22.1736 -20.444,22.1736 h -30.243 z m 14.864,42.315 h 13.013 c 5.49,0 7.492,-3.6097 7.492,-9.4033 V 22.295 c 0,-7.1283 -2.305,-8.5843 -7.492,-8.5843 h -13.013 z m 54.691,3.3063 -2.761,9.464 h -15.47 L 232.262,0.91 h 22.599 l 16.926,55.0853 H 256.62 l -2.912,-9.464 z m 10.101,-34.58 h -0.152 l -6.764,23.842 h 13.832 z m 52.567,44.044 H 281.554 V 13.7107 H 264.355 V 0.91 h 50.02 v 12.7703 h -17.958 z m 28.665,-9.464 -2.76,9.464 h -15.47 L 323.596,0.91 h 22.598 l 16.957,55.0853 h -15.167 l -2.912,-9.464 z m 10.101,-34.58 h -0.151 l -6.765,23.8724 h 13.832 z m -155.246,78.533 h 25.753 v 10.2227 h -25.753 v 10.738 h 27.846 v 12.012 H 165.074 V 68.3713 h 42.163 v 12.0424 h -27.3 z m 50.05,23.5087 -2.76,9.464 h -15.47 l 16.714,-55.0857 h 22.598 l 16.956,55.0857 h -15.166 l -2.912,-9.464 z m 10.101,-34.5803 h -0.151 l -6.765,23.8723 h 13.832 z m 56.693,10.556 c 17.199,1.183 21.476,3.2456 21.476,15.8643 0,9.1 0.395,18.079 -25.176,18.079 -14.803,0 -24.661,-0.304 -24.661,-18.352 h 14.893 c 0,5.733 2.184,6.309 9.768,6.309 7.28,0 9.676,-0.455 9.676,-5.065 0,-4.763 -0.849,-4.702 -8.129,-5.157 l -3.398,-0.212 c -14.347,-0.941 -22.719,-0.88 -22.719,-16.6837 0,-15.8036 9.373,-16.8046 24.57,-16.8046 12.709,0 23.569,0.2123 23.569,15.4093 v 2.275 h -14.894 c 0,-5.642 -2.487,-5.642 -8.675,-5.642 -8.372,0 -9.07,1.6077 -9.07,4.7017 0,4.3983 2.245,4.55 6.37,4.8533 z m 52.204,33.4883 H 334.122 V 81.172 H 319.865 V 68.4017 H 364 V 81.172 H 348.985 Z M 92.3347,61.0003 h 49.3223 v -36.4 c -3.246,-0.8796 -6.674,-1.365 -10.192,-1.365 -21.143,0 -38.4023,16.835 -39.1303,37.765 z m 39.1303,40.5857 c 3.518,0 6.946,-0.485 10.192,-1.365 V 63.8213 H 92.3347 c 0.728,20.93 17.9873,37.7647 39.1303,37.7647 z M 131.465,0 C 102.132,0 77.5017,20.2627 70.8283,47.5323 64.155,20.2627 39.5547,0 10.192,0 6.734,0 3.30633,0.303333 0,0.849333 V 21.7187 c 3.276,-0.819 6.67333,-1.2437 10.192,-1.2437 23.1443,0 41.9813,18.837 41.9813,41.9813 0,23.1444 -18.837,41.9207 -41.9813,41.9207 -3.51867,0 -6.94633,-0.425 -10.192,-1.244 v 20.87 c 3.30633,0.546 6.734,0.849 10.192,0.849 29.3323,0 53.963,-20.263 60.6363,-47.5323 6.6734,27.3003 31.2737,47.5323 60.6367,47.5323 3.488,0 6.885,-0.303 10.192,-0.849 v -20.87 c -3.276,0.819 -6.674,1.244 -10.192,1.244 -23.145,0 -41.9817,-18.837 -41.9817,-41.9813 0,-23.1444 18.8367,-41.951 41.9817,-41.951 3.518,0 6.946,0.4246 10.192,1.2436 V 0.849333 C 138.35,0.303333 134.923,0 131.465,0 Z M 49.3827,62.426 C 49.3827,40.8287 31.8197,23.2657 10.2223,23.2657 6.67333,23.2353 3.24567,23.7207 0,24.6003 v 75.6207 c 3.24567,0.88 6.67333,1.365 10.192,1.365 21.5973,0 39.1907,-17.5627 39.1907,-39.16 z"
     fill="#ffffff"
     id="path8" />
</svg>
