<?xml version="1.0" encoding="UTF-8" standalone="no"?>
<!-- Created with Inkscape (http://www.inkscape.org/) -->

<svg
   xmlns:dc="http://purl.org/dc/elements/1.1/"
   xmlns:cc="http://creativecommons.org/ns#"
   xmlns:rdf="http://www.w3.org/1999/02/22-rdf-syntax-ns#"
   xmlns:svg="http://www.w3.org/2000/svg"
   xmlns="http://www.w3.org/2000/svg"
   xmlns:sodipodi="http://sodipodi.sourceforge.net/DTD/sodipodi-0.dtd"
   xmlns:inkscape="http://www.inkscape.org/namespaces/inkscape"
   width="500"
   height="200"
   viewBox="0 0 132.29166 52.916668"
   version="1.1"
   id="svg8"
   sodipodi:docname="dbz_.svg"
   inkscape:version="0.92.5 (2060ec1f9f, 2020-04-08)">
  <defs
     id="defs2" />
  <sodipodi:namedview
     id="base"
     pagecolor="#ffffff"
     bordercolor="#666666"
     borderopacity="1.0"
     inkscape:pageopacity="0.0"
     inkscape:pageshadow="2"
     inkscape:zoom="1.6748048"
     inkscape:cx="257.93852"
     inkscape:cy="135.63071"
     inkscape:document-units="mm"
     inkscape:current-layer="layer1"
     showgrid="false"
     units="px"
     inkscape:pagecheckerboard="true"
     inkscape:window-width="1366"
     inkscape:window-height="740"
     inkscape:window-x="0"
     inkscape:window-y="0"
     inkscape:window-maximized="1" />
  <metadata
     id="metadata5">
    <rdf:RDF>
      <cc:Work
         rdf:about="">
        <dc:format>image/svg+xml</dc:format>
        <dc:type
           rdf:resource="http://purl.org/dc/dcmitype/StillImage" />
        <dc:title></dc:title>
      </cc:Work>
    </rdf:RDF>
  </metadata>
  <g
     inkscape:label="Layer 1"
     inkscape:groupmode="layer"
     id="layer1"
     transform="translate(0,-244.08332)">
    <path
       inkscape:connector-curvature="0"
       id="path2400"
       d="m 90.195929,285.11176 c 0,-0.18261 1.725325,-2.30476 9.373974,-11.5301 1.393477,-1.68072 2.618417,-3.16735 2.722077,-3.30363 0.18059,-0.2374 0.16953,-0.29088 -0.26423,-1.27671 -0.249,-0.5659 -0.48845,-1.02893 -0.53212,-1.02893 -0.0437,0 -1.811516,1.55909 -3.928566,3.46464 -2.117049,1.90556 -3.91207,3.46528 -3.988939,3.46606 -0.07687,7.8e-4 -0.13976,-0.11434 -0.13976,-0.2559 0,-0.14152 0.430683,-2.04086 0.957072,-4.22076 0.526389,-2.17989 1.627873,-6.75585 2.44774,-10.1688 0.819867,-3.41294 1.546733,-6.41323 1.615259,-6.66729 l 0.124591,-0.46195 1.033482,-0.0657 c 0.568411,-0.0361 7.573541,-0.0798 15.566961,-0.0971 13.14946,-0.0283 14.53673,-0.0146 14.56743,0.14461 0.0186,0.0968 -0.76206,1.15338 -1.73494,2.34798 -0.97286,1.19458 -3.90113,4.78829 -6.50724,7.986 -2.60612,3.19771 -4.78538,5.87522 -4.8428,5.95002 -0.062,0.0809 -0.0647,0.25524 -0.006,0.42989 0.0958,0.2875 0.21385,0.19896 5.42489,-4.06918 2.92981,-2.39968 5.45596,-4.44761 5.61367,-4.55095 0.24896,-0.16312 0.29517,-0.16598 0.35054,-0.0216 0.035,0.0915 -0.47219,1.89558 -1.12728,4.00925 -0.65509,2.11368 -1.53422,4.94995 -1.95362,6.30282 -0.41941,1.35289 -1.37426,4.44718 -2.1219,6.87621 -0.74766,2.42903 -1.51979,4.91955 -1.71588,5.5345 l -0.35651,1.11809 -1.17296,0.0692 c -0.64512,0.0381 -7.52505,0.10327 -15.28871,0.14495 -13.547098,0.0726 -14.11575,0.0676 -14.11575,-0.12557 z m 17.274351,-20.94085 0.77666,-0.78265 -1.05918,1.1e-4 -1.05918,1.1e-4 -0.83855,0.77715 -0.83856,0.77716 1.12108,0.005 1.12107,0.005 z m -85.827988,19.39872 -0.356101,-0.39133 h -2.941015 c -3.356714,0 -3.172501,0.0587 -3.172501,-1.01088 0,-0.50491 -0.02485,-0.56881 -0.195665,-0.50321 -1.613427,0.61964 -4.810917,1.44768 -5.1249234,1.32718 -0.2126354,-0.0816 -0.1856124,0.064 -0.8892495,-4.78856 -0.338849,-2.33678 -0.7173535,-4.92793 -0.8411235,-5.75811 -0.1237676,-0.83018 -0.3738485,-2.53272 -0.5557365,-3.78341 -0.1818881,-1.2507 -0.3590496,-2.31987 -0.3936952,-2.37593 -0.034641,-0.0561 -0.3349749,-0.10192 -0.6674017,-0.10192 -0.4612226,0 -0.629207,-0.0464 -0.7090692,-0.19567 -0.057556,-0.10765 -0.3658974,-1.8057 -0.6851916,-3.77353 -0.3192942,-1.96782 -0.799692,-4.90118 -1.0675494,-6.51856 -0.2678574,-1.6174 -0.4590442,-3.0136 -0.4248608,-3.10268 0.085337,-0.22239 0.6689671,-0.20718 2.5539109,0.0665 2.9051226,0.42191 6.0620089,1.37859 8.8494419,2.6818 1.019192,0.4765 1.152118,0.51307 1.305991,0.35919 0.149377,-0.14938 0.321448,-0.15441 1.344114,-0.0393 3.194553,0.35947 7.109501,1.79285 9.688094,3.54711 l 0.950368,0.64655 3.062559,0.6331 c 2.474606,0.51156 3.097092,0.67674 3.242437,0.86038 0.179711,0.22707 0.180803,0.22708 1.18615,0.0127 2.034209,-0.434 4.437405,-0.39869 6.205351,0.0912 0.832915,0.23078 2.417294,0.94574 3.187167,1.43822 0.676392,0.43268 0.910864,0.43984 0.969013,0.0296 0.03597,-0.25379 0.06765,-0.25966 1.769651,-0.32848 0.953164,-0.0386 3.468846,-0.10509 5.590406,-0.14793 3.145635,-0.0635 4.059594,-0.1181 4.953304,-0.29584 3.100628,-0.61675 6.653659,-0.54497 9.099407,0.18382 0.211647,0.0631 0.254427,0.0195 0.319168,-0.32568 0.04112,-0.21918 0.133107,-0.44694 0.204419,-0.50611 0.165048,-0.13698 4.263797,-0.47814 5.644155,-0.46978 0.574948,0.004 1.128398,-0.0378 1.22989,-0.0919 0.101489,-0.054 1.774579,-0.3153 3.717973,-0.5806 3.457998,-0.47208 3.536978,-0.48853 3.698989,-0.77082 0.151868,-0.26462 0.553798,-0.39197 4.865582,-1.54174 2.58502,-0.68931 4.782049,-1.25329 4.882286,-1.25329 0.242024,0 0.235567,0.31654 -0.04262,2.08913 -0.123675,0.78805 -0.552164,3.64663 -0.952197,6.35239 -0.400032,2.70576 -0.755664,5.05792 -0.790293,5.22702 -0.05882,0.28725 -0.03847,0.30709 0.3093,0.30159 0.204744,-0.004 0.727033,-0.0694 1.160644,-0.14716 0.433611,-0.0777 0.848699,-0.12115 0.922417,-0.0966 0.07372,0.0246 0.13262,0.20402 0.130893,0.39875 -0.0056,0.62938 -1.744417,10.81146 -1.867304,10.93435 -0.07191,0.0719 -2.467074,0.25189 -6.058729,0.45528 -4.71367,0.26693 -5.973935,0.30804 -6.105133,0.19916 -0.09389,-0.078 -0.165326,-0.32456 -0.165326,-0.57075 0,-0.27344 -0.05161,-0.43275 -0.13976,-0.4314 -0.07687,10e-4 -1.492027,0.12493 -3.144796,0.27501 -2.432884,0.22092 -3.045866,0.30982 -3.219478,0.46694 -0.199232,0.1803 -0.363973,0.1843 -2.322895,0.0563 l -2.108456,-0.13769 -0.391126,0.26543 c -0.370999,0.25176 -0.51346,0.26923 -2.768232,0.33945 -1.307409,0.0407 -2.893091,0.0741 -3.523739,0.0741 -1.087395,0 -1.157221,0.0142 -1.351622,0.27458 l -0.204989,0.27459 -7.158989,0.078 c -5.443106,0.0592 -7.218502,0.0461 -7.407289,-0.0549 -0.222484,-0.11908 -0.2483,-0.21967 -0.2483,-0.96752 0,-0.45904 -0.03099,-0.83463 -0.06888,-0.83463 -0.03789,0 -0.30203,0.16979 -0.586994,0.37729 -1.462634,1.06508 -3.093783,1.53609 -5.325866,1.5379 -1.388194,0.001 -2.384545,-0.1574 -3.565685,-0.56732 -0.643612,-0.22337 -0.707359,-0.22479 -2.787825,-0.062 -1.888461,0.14768 -2.15798,0.1476 -2.384164,-5.6e-4 -0.201458,-0.13204 -0.661673,-0.16712 -2.191446,-0.16712 h -1.936434 l -1.837214,0.61494 c -1.010469,0.33822 -1.875445,0.61494 -1.922169,0.61494 -0.04673,0 -0.245202,-0.1761 -0.441057,-0.39132 z"
       style="fill:#ffffff;stroke-width:0.11180813" />
    <path
       inkscape:connector-curvature="0"
       id="path2398"
       d="m 89.730441,284.88816 c 0,-0.18261 1.725325,-2.30476 9.373974,-11.5301 1.393475,-1.68072 2.618415,-3.16735 2.722075,-3.30363 0.18059,-0.2374 0.16953,-0.29088 -0.26423,-1.27671 -0.249,-0.5659 -0.48845,-1.02893 -0.53212,-1.02893 -0.0437,0 -1.811514,1.55909 -3.928564,3.46464 -2.117049,1.90556 -3.91207,3.46528 -3.988939,3.46606 -0.07687,7.8e-4 -0.13976,-0.11434 -0.13976,-0.2559 0,-0.14152 0.430683,-2.04086 0.957072,-4.22076 0.526389,-2.17989 1.627873,-6.75585 2.44774,-10.1688 0.819867,-3.41294 1.546733,-6.41323 1.615259,-6.66729 l 0.124591,-0.46195 1.033482,-0.0657 c 0.568414,-0.0361 7.573549,-0.0798 15.566969,-0.0971 13.14946,-0.0283 14.53673,-0.0146 14.56743,0.14461 0.0186,0.0968 -0.76206,1.15338 -1.73494,2.34798 -0.97286,1.19458 -3.90113,4.78829 -6.50724,7.986 -2.60612,3.19771 -4.78538,5.87522 -4.8428,5.95002 -0.062,0.0809 -0.0647,0.25524 -0.006,0.42989 0.0958,0.2875 0.21385,0.19896 5.42489,-4.06918 2.92981,-2.39968 5.45596,-4.44761 5.61367,-4.55095 0.24896,-0.16312 0.29517,-0.16598 0.35054,-0.0216 0.035,0.0915 -0.47219,1.89558 -1.12728,4.00925 -0.65509,2.11368 -1.53422,4.94995 -1.95362,6.30282 -0.41941,1.35289 -1.37426,4.44718 -2.1219,6.87621 -0.74766,2.42903 -1.51979,4.91955 -1.71588,5.5345 l -0.35651,1.11809 -1.17296,0.0692 c -0.64512,0.0381 -7.52505,0.10327 -15.28872,0.14495 -13.547096,0.0726 -14.115748,0.0676 -14.115748,-0.12557 z m 17.274359,-20.94085 0.77666,-0.78265 -1.05918,1.1e-4 -1.05918,1.1e-4 -0.83856,0.77715 -0.83856,0.77716 1.12108,0.005 1.12108,0.005 z m -85.827996,19.39872 -0.356101,-0.39133 h -2.941015 c -3.356714,0 -3.172501,0.0587 -3.172501,-1.01088 0,-0.50491 -0.02485,-0.56881 -0.195665,-0.50321 -1.613427,0.61964 -4.8109165,1.44768 -5.1249234,1.32718 -0.2126354,-0.0816 -0.1856124,0.064 -0.8892495,-4.78856 -0.338849,-2.33678 -0.7173535,-4.92793 -0.8411235,-5.75811 -0.1237676,-0.83018 -0.3738485,-2.53272 -0.5557365,-3.78341 -0.1818881,-1.2507 -0.3590496,-2.31987 -0.3936952,-2.37593 -0.034641,-0.0561 -0.3349749,-0.10192 -0.6674017,-0.10192 -0.4612226,0 -0.629207,-0.0464 -0.7090692,-0.19567 -0.057556,-0.10765 -0.3658974,-1.8057 -0.6851916,-3.77353 -0.3192942,-1.96782 -0.799692,-4.90118 -1.0675494,-6.51856 -0.2678574,-1.6174 -0.4590442,-3.0136 -0.4248608,-3.10268 0.085337,-0.22239 0.6689671,-0.20718 2.5539109,0.0665 2.9051226,0.42191 6.0620089,1.37859 8.8494419,2.6818 1.019192,0.4765 1.152118,0.51307 1.305991,0.35919 0.149377,-0.14938 0.321448,-0.15441 1.344114,-0.0393 3.194553,0.35947 7.109501,1.79285 9.688094,3.54711 l 0.950368,0.64655 3.062559,0.6331 c 2.474606,0.51156 3.097092,0.67674 3.242437,0.86038 0.179711,0.22707 0.180803,0.22708 1.18615,0.0127 2.034209,-0.434 4.437405,-0.39869 6.205351,0.0912 0.832915,0.23078 2.417294,0.94574 3.187167,1.43822 0.676392,0.43268 0.910864,0.43984 0.969013,0.0296 0.03597,-0.25379 0.06765,-0.25966 1.769651,-0.32848 0.953164,-0.0386 3.468846,-0.10509 5.590406,-0.14793 3.145635,-0.0635 4.059594,-0.1181 4.953304,-0.29584 3.100628,-0.61675 6.653659,-0.54497 9.099407,0.18382 0.211647,0.0631 0.254427,0.0195 0.319168,-0.32568 0.04112,-0.21918 0.133107,-0.44694 0.204419,-0.50611 0.165048,-0.13698 4.263797,-0.47814 5.644155,-0.46978 0.574948,0.004 1.128398,-0.0378 1.22989,-0.0919 0.101489,-0.054 1.774579,-0.3153 3.717973,-0.5806 3.457998,-0.47208 3.536978,-0.48853 3.698989,-0.77082 0.151868,-0.26462 0.553798,-0.39197 4.865582,-1.54174 2.58502,-0.68931 4.782049,-1.25329 4.882286,-1.25329 0.242024,0 0.235567,0.31654 -0.04262,2.08913 -0.123675,0.78805 -0.552164,3.64663 -0.952197,6.35239 -0.400032,2.70576 -0.755664,5.05792 -0.790293,5.22702 -0.05882,0.28725 -0.03847,0.30709 0.3093,0.30159 0.204744,-0.004 0.727033,-0.0694 1.160644,-0.14716 0.433611,-0.0777 0.848699,-0.12115 0.922417,-0.0966 0.07372,0.0246 0.13262,0.20402 0.130893,0.39875 -0.0056,0.62938 -1.744417,10.81146 -1.867304,10.93435 -0.07191,0.0719 -2.467074,0.25189 -6.058729,0.45528 -4.71367,0.26693 -5.973935,0.30804 -6.105133,0.19916 -0.09389,-0.078 -0.165326,-0.32456 -0.165326,-0.57075 0,-0.27344 -0.05161,-0.43275 -0.13976,-0.4314 -0.07687,0.001 -1.492027,0.12493 -3.144796,0.27501 -2.432884,0.22092 -3.045866,0.30982 -3.219478,0.46694 -0.199232,0.1803 -0.363973,0.1843 -2.322895,0.0563 l -2.108456,-0.13769 -0.391126,0.26543 c -0.370999,0.25176 -0.51346,0.26923 -2.768232,0.33945 -1.307409,0.0407 -2.893091,0.0741 -3.523739,0.0741 -1.087395,0 -1.157221,0.0142 -1.351622,0.27458 l -0.204989,0.27459 -7.158989,0.078 c -5.443106,0.0592 -7.218502,0.0461 -7.407289,-0.0549 -0.222484,-0.11908 -0.2483,-0.21967 -0.2483,-0.96752 0,-0.45904 -0.03099,-0.83463 -0.06888,-0.83463 -0.03789,0 -0.30203,0.16979 -0.586994,0.37729 -1.462634,1.06508 -3.093783,1.53609 -5.325866,1.5379 -1.388194,10e-4 -2.384545,-0.1574 -3.565685,-0.56732 -0.643612,-0.22337 -0.707359,-0.22479 -2.787825,-0.062 -1.888461,0.14768 -2.15798,0.1476 -2.384164,-5.6e-4 -0.201458,-0.13204 -0.661673,-0.16712 -2.191446,-0.16712 h -1.936434 l -1.837214,0.61494 c -1.010469,0.33822 -1.875445,0.61494 -1.922169,0.61494 -0.04673,0 -0.245202,-0.1761 -0.441057,-0.39132 z m 21.731002,-2.4819 c 0.814543,-0.38431 1.875767,-1.28867 1.875767,-1.59851 0,-0.11409 -0.266738,-0.35706 -0.65568,-0.59712 -0.885815,-0.54676 -1.935335,-1.69362 -2.355465,-2.57393 -0.188704,-0.39538 -0.343099,-0.79358 -0.343099,-0.88488 0,-0.26277 -0.226783,-0.37506 -1.010118,-0.50014 -1.452137,-0.23186 -2.452398,-0.99581 -2.828464,-2.16024 -0.588329,-1.82165 0.359086,-4.27237 1.960062,-5.07017 1.10649,-0.55139 2.017751,-0.3041 3.002653,0.8148 0.331505,0.37661 0.64174,0.68474 0.689411,0.68474 0.04767,0 0.335091,-0.17847 0.638706,-0.39659 0.303618,-0.21812 0.945233,-0.53971 1.425814,-0.71461 l 0.873782,-0.31802 0.0728,-0.59913 c 0.04004,-0.32953 0.07777,-0.88339 0.08385,-1.23082 0.01095,-0.62634 0.006,-0.63625 -0.587671,-1.17398 -2.146842,-1.94453 -5.238487,-2.64544 -7.842985,-1.77807 -0.974707,0.32461 -2.375712,1.07257 -2.744673,1.46531 l -0.232466,0.24745 0.61135,2.61261 c 0.940657,4.0199 3.110916,13.4287 3.159683,13.69829 0.06374,0.35231 0.670309,0.47847 2.169222,0.45113 1.186299,-0.0217 1.343961,-0.0508 2.037516,-0.37812 z m 10.197118,0.20335 c 0.03341,-0.054 0.106403,-0.71108 0.162198,-1.46002 0.05579,-0.74896 0.132897,-1.39318 0.17133,-1.43162 0.110722,-0.11069 0.232102,0.0609 0.967537,1.36871 0.380415,0.67644 0.768692,1.31794 0.862838,1.42556 0.147993,0.16916 0.384616,0.19543 1.747114,0.19395 0.866764,-9e-4 1.646932,-0.0467 1.733704,-0.10156 0.174048,-0.1102 0.180663,0.32054 -0.168436,-10.96571 -0.101757,-3.28995 -0.216461,-6.01439 -0.25489,-6.0543 -0.139313,-0.14469 -2.900199,-0.1992 -3.013165,-0.0595 -0.05872,0.0726 -0.139529,1.01254 -0.179574,2.08869 -0.08103,2.17745 -0.146584,2.7952 -0.296636,2.7952 -0.05583,0 -0.680541,-1.15721 -1.38824,-2.57158 l -1.286727,-2.57159 -1.313279,0.001 c -0.722304,9e-4 -1.387623,0.0488 -1.47849,0.10618 -0.124687,0.0788 -0.198313,0.55087 -0.300161,1.92434 -0.135873,1.83228 -0.104494,2.10467 0.242499,2.10467 0.07759,0 0.561989,0.20966 1.076439,0.46591 1.633998,0.81392 2.668577,2.09077 3.118065,3.84825 0.262011,1.02445 0.27277,1.51754 0.05549,2.54303 -0.231321,1.09175 -0.675134,1.90559 -1.538738,2.82163 -0.816834,0.86644 -1.88496,1.49874 -2.935614,1.7378 -1.02547,0.23334 -1.030279,0.23756 -1.116483,0.98031 -0.04294,0.36998 -0.04532,0.72569 -0.0052,0.79046 0.09001,0.14564 5.048919,0.16444 5.138506,0.0195 z m -25.579507,-0.85649 c 1.912885,-0.70493 2.275867,-0.87393 2.275867,-1.05966 0,-0.0474 -0.930803,-1.47853 -2.06845,-3.18014 -1.137648,-1.70159 -2.068451,-3.18688 -2.068451,-3.30063 0,-0.11373 0.231908,-0.41095 0.515351,-0.66045 1.651454,-1.45367 2.840478,-3.91399 2.838049,-5.87247 -0.0039,-3.13475 -1.776497,-5.90672 -4.830678,-7.55413 -1.164368,-0.62804 -3.088064,-1.23758 -3.995263,-1.26589 l -0.73281,-0.0229 -0.03239,0.98394 -0.03239,0.98395 0.501734,0.80501 c 1.061493,1.70309 1.832124,3.66411 2.144096,5.45605 0.266639,1.53153 0.167373,4.11623 -0.216781,5.64463 -0.489112,1.94599 -1.278312,3.71101 -2.60595,5.82812 l -0.715867,1.14156 0.03154,1.31822 0.03154,1.31822 2.165836,0.0304 c 1.479294,0.0208 2.213784,-0.01 2.317094,-0.0951 0.111646,-0.0927 0.159346,-0.55211 0.182134,-1.75425 0.02003,-1.05644 0.07396,-1.64304 0.153493,-1.66946 0.1011,-0.0336 0.699649,1.21995 1.572247,3.29277 0.09774,0.23219 0.231133,0.36337 0.36948,0.36337 0.119077,0 1.109333,-0.32903 2.200565,-0.73116 z m -3.688561,-11.20436 c -0.0943,-0.15267 0.13444,-2.62829 0.253885,-2.74773 0.154633,-0.15464 0.654665,0.30256 0.8613,0.7875 0.283162,0.66456 0.178615,1.23697 -0.327393,1.79253 -0.220959,0.24259 -0.681044,0.34053 -0.787792,0.1677 z m 12.094024,11.38429 c 0.696269,-0.0501 1.31322,-0.13836 1.371004,-0.19615 0.06555,-0.0656 -0.43869,-2.43657 -1.34053,-6.30347 -0.795075,-3.40913 -1.730867,-7.43109 -2.079538,-8.9377 -0.348671,-1.50662 -0.695742,-2.80369 -0.771269,-2.88237 -0.187894,-0.19574 -3.757931,-0.8506 -3.894216,-0.71431 -0.06567,0.0657 0.02046,0.39332 0.229368,0.87259 0.18399,0.4221 0.418685,1.04417 0.521545,1.38238 0.25509,0.83877 0.348526,2.82376 0.174747,3.71236 -0.279917,1.43131 -1.201612,3.34992 -2.298737,4.78506 -0.778732,1.01866 -0.822169,0.8627 0.88339,3.17168 0.83242,1.12693 1.587338,2.11025 1.677596,2.18517 0.226314,0.18782 0.356451,-0.0832 0.454988,-0.94771 0.102754,-0.9015 0.153447,-0.9645 0.742068,-0.92238 l 0.492055,0.0351 0.574875,2.26371 c 0.31618,1.24504 0.603905,2.33936 0.639386,2.43182 0.07451,0.19419 0.627788,0.20771 2.623268,0.0641 z m -5.063614,-8.9463 c -0.08777,-0.14201 0.169182,-2.63074 0.291119,-2.81968 0.07873,-0.12201 0.113616,-0.12275 0.190312,-0.004 0.133156,0.20609 0.492974,2.68207 0.409417,2.81727 -0.08785,0.14215 -0.803775,0.14735 -0.890848,0.006 z m -16.350223,8.22006 c 4.062937,-2.07316 6.594379,-6.49401 6.599121,-11.52455 0.0021,-2.16415 -0.284905,-3.65441 -1.059701,-5.50367 -0.735247,-1.75484 -1.47663,-2.84882 -2.846624,-4.20041 -1.429422,-1.41025 -3.371668,-2.5457 -5.607163,-3.27799 -1.441108,-0.47207 -3.4385808,-0.81274 -3.6318962,-0.61944 -0.142764,0.14278 -0.1450349,0.12344 0.5927394,5.04818 0.6631239,4.42645 0.7569531,4.94756 0.9202631,5.11086 0.082296,0.0823 0.4107053,0.18056 0.7297917,0.21835 1.002858,0.11871 0.700844,-1.26847 2.430158,11.16249 0.485515,3.49006 0.605172,4.08099 0.826358,4.08099 0.04247,0 0.5136,-0.22267 1.046953,-0.49481 z m 0.259368,-8.87551 c -0.03067,-0.0496 -0.160523,-1.09365 -0.288539,-2.32002 -0.128018,-1.22637 -0.259064,-2.36011 -0.291213,-2.51943 -0.09965,-0.49379 0.16448,-0.59156 0.877423,-0.32481 2.154236,0.80599 2.809097,2.60523 1.492582,4.10087 -0.679619,0.77208 -1.623707,1.33286 -1.790253,1.06339 z m 26.290205,2.01022 c 0.07724,-0.049 0.217865,-0.38647 0.312516,-0.74986 0.09465,-0.36338 0.320764,-0.93519 0.502473,-1.27069 0.18171,-0.33548 0.330382,-0.67222 0.330382,-0.7483 0,-0.16201 -1.290283,-0.30622 -2.236163,-0.2499 l -0.614945,0.0366 -0.0316,1.32583 c -0.02039,0.85518 0.01261,1.37912 0.09296,1.47593 0.06852,0.0826 0.384615,0.16843 0.702453,0.19084 0.31784,0.0224 0.628204,0.0493 0.689699,0.0597 0.0615,0.0109 0.174998,-0.0212 0.252231,-0.0702 z"
       style="fill:#9f9fa0;stroke-width:0.11180813" />
    <path
       inkscape:connector-curvature="0"
       id="path2396"
       d="m 89.51705,285.61863 c 0.0231,-0.0671 2.75198,-3.39777 6.06422,-7.40145 3.31223,-4.00368 6.04816,-7.37851 6.07984,-7.49963 0.0751,-0.28705 -0.84784,-2.33534 -1.05224,-2.33534 -0.0848,0 -0.46843,0.2893 -0.85249,0.6429 -1.58755,1.4616 -6.82043,6.12427 -6.91195,6.15876 -0.0544,0.0204 -0.0989,-0.0322 -0.0989,-0.11713 0,-0.13305 1.60585,-6.85564 4.31617,-18.0689 0.4061,-1.6801 0.79603,-3.07217 0.86653,-3.09348 0.28854,-0.0872 30.70772,-0.17057 30.70772,-0.0842 0,0.0889 -1.43413,1.85985 -9.59208,11.84512 -3.01984,3.69627 -3.48925,4.32074 -3.48776,4.64004 10e-4,0.20293 0.0469,0.44045 0.10229,0.52783 0.0861,0.1361 0.13794,0.13383 0.36166,-0.0159 0.14361,-0.0961 2.62585,-2.11371 5.5161,-4.48348 3.72933,-3.05779 5.26428,-4.25419 5.28701,-4.12098 0.0176,0.10326 -1.07941,3.78514 -2.43784,8.18199 -1.35843,4.39685 -2.94975,9.554 -3.53625,11.46034 -0.58651,1.90632 -1.12467,3.52422 -1.19593,3.5953 -0.18049,0.18007 -30.1978,0.34766 -30.1361,0.16824 z m 17.17657,-20.66584 c 0.44583,-0.47221 0.81061,-0.92519 0.81061,-1.00663 0,-0.11348 -0.2729,-0.14809 -1.16656,-0.14809 h -1.16656 l -0.95721,0.90608 c -0.52647,0.49835 -0.92935,0.95118 -0.8953,1.00629 0.0341,0.0551 0.62498,0.10034 1.31317,0.10059 l 1.25124,3.3e-4 z m -85.858376,19.08256 -0.24799,-0.33542 h -2.87684 c -1.582262,0 -2.956426,-0.0305 -3.053697,-0.0679 -0.135513,-0.0521 -0.176857,-0.23343 -0.176857,-0.77606 0,-0.3895 -0.04371,-0.73522 -0.09715,-0.76824 -0.05343,-0.0331 -0.61946,0.11652 -1.257841,0.33244 -1.963535,0.66395 -4.056435,1.14344 -4.172345,0.9559 -0.05981,-0.0968 -2.410032,-15.98724 -2.410742,-16.29965 -6.6e-4,-0.29034 -0.358307,-0.48317 -0.896153,-0.48317 -0.29945,0 -0.57683,-0.0524 -0.616401,-0.1164 -0.05759,-0.0932 -2.166842,-12.8012 -2.175126,-13.1049 -0.0066,-0.24203 2.377535,0.0328 4.693654,0.54108 1.76372,0.38706 4.65193,1.37888 6.343562,2.17841 1.320778,0.62425 1.419453,0.65369 1.610784,0.48055 0.41932,-0.37948 3.242194,0.0962 5.853958,0.9865 1.752582,0.59742 4.28185,1.89213 5.59237,2.8627 0.254877,0.18876 1.075191,0.40139 3.354244,0.86943 2.547058,0.52308 3.054699,0.6599 3.259868,0.87854 l 0.243015,0.25899 0.986876,-0.2184 c 1.267651,-0.28053 3.779079,-0.38666 4.933326,-0.20846 1.530529,0.23628 3.09851,0.83922 4.574027,1.75886 0.45331,0.28254 0.858226,0.47968 0.89981,0.4381 0.04159,-0.0416 0.127677,-0.23669 0.191315,-0.43357 l 0.115708,-0.35795 5.422694,-0.089 c 5.199482,-0.0854 5.480223,-0.10095 6.820295,-0.37619 2.545057,-0.52282 6.101002,-0.49467 8.294422,0.0657 0.91914,0.23481 1.03758,0.19483 1.14674,-0.38703 0.04,-0.21304 0.083,-0.38804 0.0956,-0.3889 0.0126,-9e-4 1.16049,-0.0973 2.55091,-0.21443 1.39041,-0.11713 2.82859,-0.18562 3.19595,-0.15231 0.40335,0.0366 0.76207,0.01 0.90558,-0.0667 0.20926,-0.11203 4.87236,-0.79237 6.84332,-0.9985 0.64139,-0.067 0.73096,-0.10558 0.76251,-0.32781 0.0197,-0.1385 0.1203,-0.29428 0.22362,-0.34615 0.39659,-0.19918 9.30483,-2.50942 9.38131,-2.43294 0.0946,0.0946 -0.23438,2.43467 -1.58952,11.3047 -0.23076,1.51039 -0.33591,2.5007 -0.27243,2.56581 0.065,0.0668 0.52825,0.0377 1.24959,-0.0781 0.63042,-0.10132 1.17912,-0.149 1.21933,-0.10607 0.0402,0.0429 -0.3315,2.53171 -0.82604,5.53052 -0.84053,5.09686 -0.91455,5.45571 -1.13529,5.5034 -0.25019,0.054 -10.67498,0.61918 -11.389,0.6174 -0.41224,-10e-4 -0.41928,-0.009 -0.41928,-0.43459 0,-0.23844 -0.0648,-0.48736 -0.14412,-0.55315 -0.10322,-0.0856 -1.03147,-0.0393 -3.27039,0.16329 -2.48584,0.22493 -3.18367,0.32336 -3.4065,0.48044 -0.26201,0.18473 -0.411,0.18805 -2.29206,0.0512 -1.10651,-0.0805 -2.04572,-0.14843 -2.08712,-0.15092 -0.0414,-0.002 -0.22411,0.12066 -0.40601,0.27377 l -0.33074,0.27829 -3.579517,0.0864 -3.579523,0.0864 -0.225305,0.27829 -0.225306,0.27828 -7.205244,0.0382 -7.205247,0.0382 -0.07097,-0.42956 c -0.03903,-0.23624 -0.07152,-0.66557 -0.0722,-0.95403 -6.71e-4,-0.28847 -0.04677,-0.55263 -0.102414,-0.58703 -0.05566,-0.0344 -0.319801,0.12115 -0.586993,0.34569 -0.665973,0.55963 -2.103924,1.23181 -3.113296,1.45536 -1.016405,0.22511 -3.340734,0.25317 -4.304612,0.0519 -0.368968,-0.077 -1.023045,-0.25663 -1.453507,-0.39912 l -0.782656,-0.25909 -2.098019,0.16582 c -1.913384,0.15122 -2.12213,0.15002 -2.371989,-0.0138 -0.224003,-0.14677 -0.615733,-0.17951 -2.147841,-0.17951 h -1.873872 l -1.921152,0.61494 c -1.056633,0.33822 -1.949476,0.61495 -1.984096,0.61495 -0.03462,0 -0.174539,-0.15095 -0.310933,-0.33542 z m 20.486194,-1.95703 c 0.779083,-0.0963 1.83144,-0.65171 2.57055,-1.3567 0.365343,-0.34848 0.664259,-0.66397 0.664259,-0.70109 0,-0.0371 -0.253196,-0.18365 -0.562658,-0.32562 -0.676923,-0.31054 -1.861068,-1.3913 -2.336974,-2.13293 -0.189861,-0.29588 -0.458782,-0.85523 -0.597598,-1.24302 l -0.252394,-0.70505 -0.594088,-0.03 c -1.900625,-0.0961 -3.26217,-1.48744 -3.257914,-3.32917 0.0038,-1.63508 0.919467,-3.30769 2.145245,-3.91853 0.686639,-0.34216 1.304793,-0.36779 1.934425,-0.0801 0.427024,0.19505 1.145013,0.88492 1.514723,1.45538 l 0.173028,0.267 0.60612,-0.45876 c 0.544809,-0.41236 1.908255,-1.02559 2.280251,-1.02559 0.09975,0 0.167447,-0.2666 0.21722,-0.85543 0.132973,-1.57305 0.112327,-1.7204 -0.291065,-2.07706 -0.833099,-0.73661 -2.207404,-1.54414 -3.226926,-1.8961 -0.97447,-0.33643 -1.15395,-0.36237 -2.503241,-0.36191 -1.296599,4.4e-4 -1.550063,0.0338 -2.34797,0.30965 -0.986297,0.34089 -2.383771,1.09226 -2.743322,1.47498 l -0.230915,0.24581 0.503329,2.16702 c 0.276831,1.19186 1.111994,4.75818 1.855917,7.92515 0.904801,3.85183 1.331742,5.87238 1.289618,6.10325 l -0.06297,0.34513 0.756347,0.13056 c 1.296218,0.22374 1.282726,0.22334 2.497001,0.0732 z m 11.332543,-0.15381 c 0.03341,-0.054 0.106403,-0.71108 0.162198,-1.46002 0.05579,-0.74896 0.136172,-1.39647 0.17861,-1.43891 0.10751,-0.10752 0.298057,0.17497 1.135588,1.68347 l 0.729399,1.31375 h 1.773742 c 0.975557,0 1.791846,-0.0377 1.813977,-0.0838 0.02214,-0.0461 0.0049,-1.06497 -0.03848,-2.26411 -0.0433,-1.19914 -0.16512,-4.99782 -0.270714,-8.44151 -0.105601,-3.4437 -0.22367,-6.29475 -0.262387,-6.33566 -0.03872,-0.041 -0.749631,-0.0912 -1.579806,-0.11178 l -1.50941,-0.0373 -0.129354,2.45978 c -0.07114,1.35287 -0.134037,2.47236 -0.139761,2.48773 -0.08031,0.21575 -0.442423,-0.39041 -1.521431,-2.54687 l -1.288342,-2.57481 -1.479376,0.0311 -1.479375,0.0311 -0.134272,1.90074 c -0.07385,1.0454 -0.113166,1.96363 -0.08737,2.04049 0.0258,0.0769 0.143289,0.13977 0.261085,0.13977 0.117801,0 0.635093,0.20965 1.149543,0.46591 1.633998,0.81391 2.668577,2.09076 3.118066,3.84825 0.26201,1.02445 0.27277,1.51754 0.05549,2.54302 -0.224285,1.05855 -0.662756,1.87212 -1.494689,2.77339 -0.959496,1.03945 -2.186437,1.69743 -3.607246,1.93446 -0.392113,0.0654 -0.406027,0.0845 -0.474213,0.65219 -0.03863,0.32165 -0.07068,0.69801 -0.07122,0.83638 l -9.72e-4,0.25156 h 2.564988 c 1.410743,0 2.592323,-0.0443 2.625734,-0.0983 z m -27.490854,-0.11142 c 0.05842,-0.0539 0.609354,-0.27573 1.224299,-0.493 0.614944,-0.21727 1.505135,-0.54503 1.978202,-0.72835 0.473066,-0.18333 0.886969,-0.30648 0.919785,-0.27366 0.151932,0.15193 0.184153,-0.33822 0.03336,-0.50759 -0.449327,-0.50472 -4.105342,-6.09814 -4.105342,-6.28088 0,-0.11482 0.231908,-0.41291 0.515351,-0.66241 1.246363,-1.09709 2.215494,-2.7075 2.631719,-4.37312 0.536543,-2.14711 -0.04427,-4.63674 -1.50544,-6.45302 -1.331205,-1.65472 -2.814014,-2.66374 -4.976623,-3.38649 -1.047545,-0.35008 -2.804696,-0.71748 -2.913094,-0.60908 -0.03193,0.032 -0.04351,0.52174 -0.02573,1.08847 0.03132,0.9982 0.04756,1.05487 0.519744,1.81309 1.047767,1.68247 1.819462,3.6513 2.129778,5.43372 0.266638,1.53154 0.167372,4.11624 -0.216782,5.64464 -0.488662,1.9442 -1.278434,3.71119 -2.602363,5.8224 l -0.712282,1.13585 v 1.34529 c 0,0.73991 0.03773,1.36084 0.08385,1.37984 0.04612,0.019 1.10888,0.01 2.361686,-0.0214 l 2.277829,-0.0559 0.01423,-1.72344 c 0.0094,-1.13348 0.056,-1.73746 0.136238,-1.76438 0.09763,-0.0327 1.397268,2.77544 1.652981,3.57168 0.06635,0.20662 0.399487,0.26288 0.578581,0.0977 z m -1.777214,-11.94937 c -0.0943,-0.15267 0.13444,-2.62829 0.253885,-2.74773 0.154633,-0.15464 0.654665,0.30256 0.8613,0.7875 0.283162,0.66456 0.178615,1.23697 -0.327393,1.79253 -0.220959,0.24259 -0.681044,0.34053 -0.787792,0.1677 z m 13.259909,11.35068 c 0.187523,0.01 0.307472,-0.0404 0.307472,-0.12969 0,-0.0805 -0.204356,-1.02192 -0.454126,-2.09189 -0.249769,-1.06999 -1.156771,-4.9639 -2.015559,-8.65315 -0.858788,-3.68925 -1.610921,-6.89151 -1.671406,-7.11613 l -0.109967,-0.40841 -1.368473,-0.24423 c -0.752662,-0.13431 -1.665281,-0.31653 -2.028047,-0.40492 -0.362764,-0.0884 -0.685686,-0.13457 -0.717603,-0.10266 -0.05679,0.0568 0.03127,0.27445 0.430464,1.06396 0.692136,1.36892 0.976077,3.78993 0.621249,5.29707 -0.351603,1.49344 -1.3069,3.37271 -2.408635,4.73828 -0.310333,0.38465 -0.564241,0.72246 -0.564241,0.75068 0,0.0282 0.716969,1.02705 1.593265,2.21964 0.876297,1.19259 1.650257,2.26357 1.719914,2.37996 0.14808,0.24743 0.269595,0.17065 0.313012,-0.1978 0.234443,-1.98951 0.197453,-1.90916 0.857215,-1.86195 l 0.492055,0.0351 0.574876,2.26371 c 0.31618,1.24504 0.606079,2.34503 0.644219,2.44442 0.06179,0.16102 0.255034,0.17093 1.773097,0.0909 0.937063,-0.0494 1.842112,-0.0822 2.011223,-0.073 z m -6.229499,-8.91269 c -0.08777,-0.14201 0.169182,-2.63074 0.291119,-2.81968 0.07873,-0.12201 0.113616,-0.12275 0.190312,-0.004 0.133156,0.20609 0.492974,2.68207 0.409417,2.81727 -0.08785,0.14215 -0.803775,0.14735 -0.890848,0.006 z m -15.829635,7.95808 c 3.725107,-2.14115 6.074038,-6.49337 6.078533,-11.26257 0.0021,-2.16415 -0.284905,-3.65441 -1.059701,-5.50367 -1.237507,-2.95362 -3.249495,-5.07633 -6.226149,-6.56879 -1.714214,-0.85949 -4.416686,-1.62169 -5.756643,-1.62359 -0.286493,-4.5e-4 -0.310186,0.0286 -0.250984,0.30702 0.0811,0.38147 1.459977,9.51114 1.510006,9.99792 0.0043,0.0412 0.332867,0.10984 0.730289,0.15235 0.397423,0.0426 0.799843,0.13461 0.894269,0.20456 0.175298,0.12986 0.385442,1.50576 1.684406,11.02848 0.289395,2.12155 0.54323,3.9185 0.564079,3.99321 0.04137,0.1482 0.912841,-0.19665 1.831895,-0.72492 z m -0.26122,-8.61353 c -0.03067,-0.0496 -0.160523,-1.09365 -0.288539,-2.32002 -0.128018,-1.22637 -0.259064,-2.36011 -0.291213,-2.51943 -0.09676,-0.47946 0.166893,-0.59378 0.806309,-0.34959 2.233671,0.85302 2.899065,2.60859 1.563696,4.12565 -0.679619,0.77208 -1.623707,1.33287 -1.790253,1.06339 z m 26.55849,1.51922 c 0.08683,-0.61164 0.563445,-1.71006 0.89526,-2.06325 0.250251,-0.26639 0.184545,-0.52493 -0.111439,-0.43851 -0.102438,0.0299 -0.739706,0.0152 -1.416145,-0.0327 -0.676439,-0.0479 -1.26359,-0.0578 -1.304779,-0.0219 -0.0412,0.0359 -0.09018,0.71927 -0.108873,1.51869 l -0.03398,1.45351 0.723815,0.0668 c 1.270408,0.11725 1.270987,0.11713 1.35614,-0.4827 z"
       style="fill:#ffffff;stroke-width:0.11180813" />
    <path
       inkscape:connector-curvature="0"
       id="path2390"
       d="m 89.947052,285.31712 c 0.02309,-0.0671 2.751982,-3.39777 6.06422,-7.40145 3.312237,-4.00368 6.048158,-7.37851 6.079838,-7.49963 0.0751,-0.28705 -0.84784,-2.33534 -1.05224,-2.33534 -0.0848,0 -0.46843,0.2893 -0.85249,0.6429 -1.587543,1.4616 -6.820427,6.12427 -6.911947,6.15876 -0.05438,0.0204 -0.09888,-0.0322 -0.09888,-0.11713 0,-0.13305 1.605846,-6.85564 4.316174,-18.0689 0.406092,-1.6801 0.796031,-3.07217 0.866531,-3.09348 0.288537,-0.0872 30.707712,-0.17057 30.707712,-0.0842 0,0.0889 -1.43413,1.85985 -9.59208,11.84512 -3.01984,3.69627 -3.48925,4.32074 -3.48776,4.64004 10e-4,0.20293 0.0469,0.44045 0.10229,0.52783 0.0861,0.1361 0.13794,0.13383 0.36166,-0.0159 0.14361,-0.0961 2.62585,-2.11371 5.5161,-4.48348 3.72933,-3.05779 5.26428,-4.25419 5.28701,-4.12098 0.0176,0.10326 -1.07941,3.78514 -2.43784,8.18199 -1.35843,4.39685 -2.94975,9.554 -3.53625,11.46034 -0.58651,1.90632 -1.12467,3.52422 -1.19593,3.5953 -0.18049,0.18007 -30.197796,0.34766 -30.136095,0.16824 z m 27.559098,-2.31502 c 0.29981,-0.0602 0.34175,-0.17882 2.11235,-5.97675 0.77934,-2.55202 1.71445,-5.59233 2.07798,-6.75625 0.65754,-2.10514 0.7508,-2.52382 0.56216,-2.52382 -0.0544,0 -2.25558,1.80006 -4.89161,4.00014 -2.63602,2.20007 -4.91716,4.08684 -5.06921,4.1928 -0.23407,0.16313 -0.55541,0.19267 -2.0964,0.19267 -1.42531,0 -1.81996,-0.0318 -1.81996,-0.14639 0,-0.16176 1.86275,-2.64545 2.33167,-3.10892 0.25085,-0.24793 0.51608,-0.32986 1.74468,-0.5389 0.79688,-0.13558 1.4887,-0.27112 1.53736,-0.3012 0.13623,-0.0842 0.098,-0.9128 -0.0792,-1.71861 -0.0879,-0.39972 -0.16161,-0.85866 -0.16377,-1.01987 -0.004,-0.27937 0.70481,-1.1883 5.87276,-7.53346 4.15063,-5.09609 5.30412,-6.55594 5.30412,-6.71284 0,-0.16816 -0.96854,-0.17636 -12.32685,-0.10448 -9.80032,0.062 -12.35804,0.10752 -12.47905,0.22167 -0.168353,0.15886 -0.530212,1.47246 -2.848723,10.3412 -1.117595,4.275 -1.136763,4.36051 -0.977464,4.36051 0.168715,0 0.644277,-0.43323 4.234237,-3.85738 1.74075,-1.66034 3.40814,-3.234 3.70531,-3.49701 l 0.54031,-0.47818 2.9204,-0.0708 c 2.74766,-0.0667 2.92039,-0.0591 2.92039,0.12742 0,0.18218 -2.76133,3.4442 -3.29132,3.88812 -0.19813,0.16594 -0.49508,0.19352 -2.10693,0.19565 -1.55129,0.002 -1.88729,0.0311 -1.93976,0.16787 -0.0349,0.091 0.24665,0.72183 0.62566,1.40194 0.37902,0.68011 0.6733,1.333 0.65396,1.45084 -0.0193,0.11787 -0.56734,0.88318 -1.21779,1.70073 -1.01694,1.27821 -8.223907,10.40553 -9.193722,11.64349 -0.272531,0.34788 -0.306662,0.44835 -0.17922,0.52754 0.152669,0.0949 23.055672,0.029 23.537642,-0.0677 z m -10.38253,-18.35082 c 0.44583,-0.47221 0.81061,-0.92519 0.81061,-1.00663 0,-0.11348 -0.2729,-0.14809 -1.16656,-0.14809 h -1.16656 l -0.95721,0.90608 c -0.52647,0.49835 -0.92935,0.95118 -0.8953,1.00629 0.0341,0.0551 0.62498,0.10034 1.31317,0.10059 l 1.25124,3.3e-4 z m -85.858372,19.08256 -0.24799,-0.33542 h -2.87684 c -1.582262,0 -2.956426,-0.0305 -3.053697,-0.0679 -0.135513,-0.0521 -0.176857,-0.23343 -0.176857,-0.77606 0,-0.3895 -0.04371,-0.73522 -0.09715,-0.76824 -0.05343,-0.0331 -0.61946,0.11652 -1.257841,0.33244 -1.963535,0.66395 -4.0564347,1.14344 -4.1723449,0.9559 -0.059806,-0.0968 -2.4100316,-15.98724 -2.4107419,-16.29965 -6.604e-4,-0.29034 -0.3583076,-0.48317 -0.8961533,-0.48317 -0.29945,0 -0.5768299,-0.0524 -0.6164004,-0.1164 -0.057593,-0.0932 -2.1668423,-12.8012 -2.1751266,-13.1049 -0.00657,-0.24203 2.3775352,0.0328 4.6936537,0.54108 1.7637208,0.38706 4.6519304,1.37888 6.3435624,2.17841 1.320778,0.62425 1.419453,0.65369 1.610784,0.48055 0.41932,-0.37948 3.242194,0.0962 5.853958,0.9865 1.752582,0.59742 4.28185,1.89213 5.59237,2.8627 0.254877,0.18876 1.075191,0.40139 3.354244,0.86943 2.547058,0.52308 3.054699,0.6599 3.259868,0.87854 l 0.243015,0.25899 0.986876,-0.2184 c 1.267651,-0.28053 3.779079,-0.38666 4.933326,-0.20846 1.530529,0.23628 3.09851,0.83922 4.574027,1.75886 0.45331,0.28254 0.858226,0.47968 0.89981,0.4381 0.04159,-0.0416 0.127677,-0.23669 0.191315,-0.43357 l 0.115708,-0.35795 5.422694,-0.089 c 5.199482,-0.0854 5.480223,-0.10095 6.820295,-0.37619 2.545057,-0.52282 6.100998,-0.49467 8.294425,0.0657 0.919138,0.23481 1.037575,0.19483 1.146734,-0.38703 0.03997,-0.21304 0.08297,-0.38804 0.09555,-0.3889 0.01259,-9e-4 1.160497,-0.0973 2.550909,-0.21443 1.390412,-0.11713 2.828593,-0.18562 3.195956,-0.15231 0.403349,0.0366 0.76207,0.01 0.905576,-0.0667 0.209259,-0.11203 4.872359,-0.79237 6.843325,-0.9985 0.64139,-0.067 0.730953,-0.10558 0.762512,-0.32781 0.01967,-0.1385 0.120294,-0.29428 0.223617,-0.34615 0.39659,-0.19918 9.304827,-2.50942 9.381311,-2.43294 0.09464,0.0946 -0.234387,2.43467 -1.589526,11.3047 -0.230755,1.51039 -0.335902,2.5007 -0.272428,2.56581 0.06505,0.0668 0.52825,0.0377 1.249588,-0.0781 0.63042,-0.10132 1.179122,-0.149 1.219338,-0.10607 0.04021,0.0429 -0.331502,2.53171 -0.826041,5.53052 -0.84053,5.09686 -0.914558,5.45571 -1.135297,5.5034 -0.250182,0.054 -10.674972,0.61918 -11.388998,0.6174 -0.412236,-10e-4 -0.41928,-0.009 -0.41928,-0.43459 0,-0.23844 -0.06485,-0.48736 -0.144121,-0.55315 -0.103216,-0.0856 -1.031466,-0.0393 -3.270387,0.16329 -2.485839,0.22493 -3.183674,0.32336 -3.406496,0.48044 -0.262012,0.18473 -0.411007,0.18805 -2.292067,0.0512 -1.10651,-0.0805 -2.045713,-0.14843 -2.087115,-0.15092 -0.0414,-0.002 -0.224109,0.12066 -0.406013,0.27377 l -0.330736,0.27829 -3.579521,0.0864 -3.579523,0.0864 -0.225305,0.27829 -0.225306,0.27828 -7.205244,0.0382 -7.205247,0.0382 -0.07097,-0.42956 c -0.03903,-0.23624 -0.07152,-0.66557 -0.0722,-0.95403 -6.71e-4,-0.28847 -0.04677,-0.55263 -0.102414,-0.58703 -0.05566,-0.0344 -0.319801,0.12115 -0.586993,0.34569 -0.665973,0.55963 -2.103924,1.23181 -3.113296,1.45536 -1.016405,0.22511 -3.340734,0.25317 -4.304612,0.0519 -0.368968,-0.077 -1.023045,-0.25663 -1.453507,-0.39912 l -0.782656,-0.25909 -2.098019,0.16582 c -1.913384,0.15122 -2.12213,0.15002 -2.371989,-0.0138 -0.224003,-0.14677 -0.615733,-0.17951 -2.147841,-0.17951 h -1.873872 l -1.921152,0.61494 c -1.056633,0.33822 -1.949476,0.61495 -1.984096,0.61495 -0.03462,0 -0.174539,-0.15095 -0.310933,-0.33542 z m 20.865986,-1.96033 c 0.361909,-0.0943 0.902548,-0.30448 1.201419,-0.46715 0.586914,-0.31944 1.653598,-1.31736 1.653598,-1.54701 0,-0.0776 -0.283318,-0.30096 -0.629598,-0.49639 -1.251567,-0.70634 -2.383291,-2.03687 -2.788983,-3.2789 -0.10419,-0.31896 -0.204609,-0.59771 -0.223164,-0.61942 -0.01855,-0.0218 -0.401702,-0.10363 -0.851439,-0.18196 -1.050015,-0.18293 -1.523464,-0.38591 -2.086366,-0.89445 -1.507492,-1.36194 -1.036672,-4.70216 0.849663,-6.02793 0.636375,-0.44726 1.574113,-0.53148 2.22434,-0.19975 0.44474,0.22689 1.138731,0.90881 1.375898,1.35196 0.1459,0.27261 0.477413,0.30525 0.675554,0.0665 0.218939,-0.26379 1.228429,-0.80154 1.901327,-1.0128 0.33822,-0.10619 0.671761,-0.24895 0.741205,-0.31724 0.06944,-0.0684 0.159343,-0.66913 0.199781,-1.33521 l 0.07353,-1.21104 -0.423397,-0.39296 c -1.87584,-1.74097 -4.563773,-2.63588 -6.849743,-2.2805 -1.51883,0.23613 -3.007663,0.88635 -3.987095,1.7413 l -0.384264,0.33542 0.79002,3.35425 c 2.711257,11.51136 2.98882,12.75269 2.892731,12.93709 -0.07333,0.14074 -0.04207,0.22171 0.118846,0.30784 0.661409,0.35397 2.480141,0.44082 3.526146,0.16836 z m 10.625682,-0.0322 0.447232,-0.0789 0.111804,-1.31492 c 0.0615,-0.72321 0.162122,-1.32627 0.223616,-1.34014 0.0615,-0.0139 0.459496,0.58737 0.884447,1.33608 0.468621,0.82566 0.856251,1.38317 0.985135,1.41687 0.116876,0.0305 0.964138,0.0266 1.882807,-0.009 l 1.670306,-0.0642 0.0033,-0.40231 c 0.0078,-0.94918 -0.473219,-16.41425 -0.517635,-16.64243 -0.04807,-0.24694 -0.07853,-0.25157 -1.655364,-0.25157 h -1.606391 l -0.06331,0.47519 c -0.03482,0.26135 -0.0966,1.2802 -0.137295,2.26411 -0.04069,0.9839 -0.113057,1.86093 -0.160817,1.94892 -0.05881,0.10837 -0.496629,-0.64925 -1.356859,-2.34797 l -1.270031,-2.50796 -1.421,0.001 c -0.939436,6.7e-4 -1.465599,0.0456 -1.552598,0.13264 -0.07747,0.0775 -0.186867,0.88195 -0.265946,1.9556 -0.153447,2.08332 -0.156894,2.07153 0.677725,2.31796 0.289244,0.0854 0.892975,0.40079 1.341624,0.70087 2.592936,1.73426 3.370246,5.07484 1.78722,7.68078 -0.8425,1.3869 -2.523773,2.55018 -4.082625,2.82476 -0.747197,0.13162 -0.717837,0.0901 -0.842496,1.18919 -0.03684,0.32486 -0.03692,0.63931 -1.12e-4,0.6988 0.07699,0.12459 4.226134,0.13833 4.917297,0.0163 z M 27.711895,280.785 c 1.765669,-0.67241 2.123341,-0.84572 2.118357,-1.02645 -0.0033,-0.11957 -0.912155,-1.57593 -2.019682,-3.23627 -1.107527,-1.66035 -2.051774,-3.08267 -2.098326,-3.16072 -0.05514,-0.0924 0.185786,-0.41072 0.691139,-0.91307 3.107901,-3.08946 3.532295,-7.01949 1.135723,-10.51718 -1.404615,-2.04997 -4.169853,-3.66164 -7.114632,-4.14663 -1.150247,-0.18944 -1.154093,-0.18608 -1.154093,1.01033 0,0.96305 0.01754,1.03503 0.396616,1.62762 2.579192,4.03193 3.123147,8.54682 1.55249,12.88582 -0.49137,1.35744 -1.272904,2.91099 -2.16111,4.29592 l -0.682461,1.06412 v 1.23776 c 0,0.68078 0.03054,1.31736 0.06787,1.41463 0.05878,0.1532 0.369984,0.17686 2.325608,0.17686 1.606945,0 2.296418,-0.0387 2.391913,-0.13417 0.09147,-0.0915 0.13417,-0.6282 0.13417,-1.68643 0,-1.82875 0.08582,-1.9042 0.653655,-0.57465 0.948538,2.22091 1.106718,2.50748 1.379567,2.49929 0.142364,-0.005 1.214803,-0.37183 2.383199,-0.81678 z m -3.80718,-12.22905 c 0.08997,-1.25254 0.161844,-1.70507 0.270801,-1.70507 0.116584,0 0.514614,0.44313 0.6713,0.74735 0.06918,0.13432 0.125779,0.47007 0.125779,0.74613 0,0.61151 -0.417317,1.18991 -0.858536,1.18991 H 23.83444 Z m 61.723791,12.37955 c 1.967822,-0.12535 3.682899,-0.27175 3.811281,-0.32531 0.244161,-0.10181 0.271525,-0.21561 0.660687,-2.74622 0.0851,-0.55345 0.312045,-2.00749 0.504296,-3.23122 0.370293,-2.35698 0.361157,-2.48535 -0.168515,-2.36761 -0.747637,0.16619 -2.546472,0.30188 -2.64856,0.1998 -0.10768,-0.10765 0.398438,-4.01868 1.200243,-9.27469 0.382539,-2.50762 0.459642,-3.4951 0.272903,-3.4951 -0.189913,0 -3.905823,0.85682 -4.661034,1.07476 -0.344359,0.0994 -0.605309,0.24499 -0.639937,0.35712 -0.03216,0.10412 -0.209455,1.27108 -0.393992,2.59322 -0.184536,1.32213 -0.386148,2.73091 -0.448027,3.13063 -0.369202,2.3849 -0.57546,4.05775 -0.518587,4.20596 0.05433,0.14158 0.212476,0.15717 0.945522,0.0932 0.566237,-0.0494 0.905694,-0.0356 0.951515,0.0384 0.126974,0.20545 -0.604808,7.33007 -0.770566,7.50223 -0.08276,0.086 -0.640697,0.22385 -1.242997,0.30722 -0.601066,0.0832 -1.176806,0.1779 -1.279423,0.21046 -0.308638,0.0979 -0.461816,1.66217 -0.189443,1.93454 0.08529,0.0853 0.307416,0.11506 0.586992,0.0788 0.247379,-0.0321 2.059818,-0.16095 4.027642,-0.2863 z m -49.943282,0.10643 c 0.903193,-0.0663 1.680604,-0.15749 1.727578,-0.20281 0.04697,-0.0454 -0.189332,-1.26156 -0.525123,-2.70275 -0.335794,-1.44119 -1.269867,-5.46308 -2.07572,-8.93751 -0.805852,-3.47444 -1.490806,-6.40408 -1.522117,-6.51033 -0.03167,-0.10752 -0.23992,-0.23993 -0.469468,-0.29858 -0.861688,-0.22017 -3.732963,-0.69743 -3.798942,-0.63144 -0.03796,0.0379 0.02472,0.3062 0.13926,0.59611 0.739399,1.87123 0.8783,2.42143 0.930969,3.68769 0.03149,0.75703 -0.0018,1.53797 -0.0834,1.95664 -0.264016,1.35461 -1.165234,3.16561 -2.371986,4.76649 -0.29663,0.39351 -0.536207,0.79602 -0.532393,0.89447 0.01009,0.26183 3.283948,4.65131 3.46909,4.65131 0.110174,0 0.197121,-0.26338 0.291567,-0.8832 0.07401,-0.48576 0.160657,-0.95116 0.192532,-1.03422 0.0733,-0.19101 0.78224,-0.1996 0.929618,-0.011 0.06016,0.0769 0.350296,1.12087 0.644762,2.32002 0.294464,1.19914 0.584606,2.24314 0.644761,2.32001 0.133296,0.17034 0.328472,0.1719 2.40901,0.0193 z m -4.749282,-9.11137 c -0.037,-0.0965 -0.01269,-0.65584 0.05402,-1.24314 0.181114,-1.59441 0.272627,-1.58316 0.543471,0.0668 0.162413,0.98942 0.166246,1.15952 0.0281,1.24695 -0.248181,0.15705 -0.551352,0.12282 -0.625594,-0.0707 z m 34.290079,9.12853 c 1.838001,-0.11214 2.446678,-0.33015 3.170838,-1.13559 0.785923,-0.87414 1.025861,-2.07085 0.68081,-3.39559 -0.245974,-0.94436 -0.439577,-1.29846 -1.122623,-2.05324 -0.333942,-0.36902 -0.60717,-0.73523 -0.60717,-0.8138 0,-0.0786 0.427323,-0.57954 0.949607,-1.11327 1.206786,-1.23324 1.517311,-1.86347 1.595723,-3.2387 0.09514,-1.66871 -0.434682,-3.02189 -1.629372,-4.16144 -1.138462,-1.0859 -2.143289,-1.4272 -4.201915,-1.4272 -1.577441,0 -4.550326,0.30539 -4.718844,0.48475 -0.08497,0.0904 -0.10644,1.03265 -0.07029,3.08552 l 0.05205,2.95533 0.431707,0.38755 c 0.269224,0.24169 0.452523,0.51807 0.487015,0.73435 0.03042,0.19073 0.159659,2.35932 0.2872,4.81911 0.127539,2.45978 0.278549,4.58552 0.335577,4.72389 0.09976,0.24204 0.155665,0.25137 1.475733,0.24608 0.754625,-0.002 2.052406,-0.0469 2.883955,-0.0978 z m -1.154526,-2.76962 c -0.03014,-0.0495 -0.09099,-0.47932 -0.13523,-0.95509 -0.06746,-0.72544 -0.05268,-0.87569 0.09154,-0.93103 0.290335,-0.11142 0.622255,0.15667 0.758971,0.61298 0.111341,0.37161 0.09977,0.49675 -0.07991,0.86468 -0.197994,0.40544 -0.513697,0.60839 -0.635364,0.40846 z m -0.682904,-7.62108 c -0.03677,-0.0595 -0.0942,-0.578 -0.127635,-1.15222 -0.03344,-0.57424 -0.08101,-1.17623 -0.105735,-1.33776 -0.06018,-0.39324 0.175332,-0.70477 0.463651,-0.61325 0.12273,0.0389 0.338183,0.2755 0.478783,0.52567 0.472399,0.84052 0.174588,2.52489 -0.468822,2.65158 -0.09537,0.0187 -0.203473,-0.0146 -0.240241,-0.0741 z m 7.40671,10.18647 c 0.05557,-0.10764 0.241166,-1.17679 0.412422,-2.37593 0.171254,-1.19914 0.352718,-2.29346 0.403253,-2.43182 0.07385,-0.20221 0.177487,-0.25157 0.528192,-0.25157 0.23997,0 0.490758,0.0656 0.557306,0.14579 0.06655,0.0802 0.227337,0.94809 0.357312,1.92869 0.331576,2.50161 0.340817,2.53694 0.687684,2.62971 0.275752,0.0737 2.983092,-0.0663 3.529378,-0.18258 0.305799,-0.0651 0.327327,-0.40366 0.09054,-1.42391 -0.400775,-1.72685 -1.825885,-8.19055 -2.987881,-13.55176 -0.253238,-1.1684 -0.525989,-2.1952 -0.606111,-2.28178 -0.121449,-0.13124 -0.434582,-0.14 -1.882663,-0.0527 -0.955341,0.0577 -1.785179,0.15362 -1.844086,0.21333 -0.05891,0.0597 -0.168807,0.64225 -0.244226,1.29453 -0.134583,1.16401 -0.131881,1.19924 0.145767,1.90074 0.461722,1.16658 0.573692,1.82273 0.501416,2.93831 -0.05765,0.88983 -0.121462,1.12666 -0.520616,1.93219 -0.250202,0.50493 -0.705548,1.19228 -1.011877,1.52745 -0.30633,0.33518 -0.556963,0.6716 -0.556963,0.74762 0,0.076 0.255276,0.55449 0.56728,1.06326 1.233175,2.0109 1.304477,3.47889 0.262076,5.39566 -0.210169,0.38646 -0.382123,0.72769 -0.382123,0.75831 0,0.13495 0.558384,0.25845 1.198003,0.26499 0.55341,0.006 0.715438,-0.0327 0.795915,-0.18858 z m 0.729697,-9.25268 c -0.08429,-0.21967 0.26188,-2.75014 0.394347,-2.88261 0.06127,-0.0613 0.128754,0.0251 0.169361,0.21667 0.131255,0.61928 0.286824,2.49017 0.221268,2.661 -0.08669,0.22589 -0.698709,0.22975 -0.784976,0.005 z m -56.93831,8.65761 c 3.994231,-1.99926 6.630367,-6.61831 6.609073,-11.58043 -0.0099,-2.30449 -0.373955,-4.01707 -1.263074,-5.94157 -1.998654,-4.32607 -6.133933,-7.13539 -11.4792519,-7.79846 -0.7341959,-0.0911 -0.7804646,-0.002 -0.6066954,1.16378 1.1232568,7.53782 1.3908064,9.13656 1.549627,9.25983 0.094447,0.0734 0.4453315,0.16747 0.7797513,0.20925 0.334421,0.0418 0.67028,0.13822 0.746355,0.21429 0.07608,0.076 0.228728,0.81208 0.33923,1.63559 0.110503,0.8235 0.34442,2.5287 0.519818,3.78933 0.175397,1.26064 0.526722,3.82664 0.780725,5.70222 0.254001,1.87558 0.509179,3.52661 0.567064,3.66897 0.126674,0.31152 0.24046,0.28631 1.457378,-0.3228 z m 0.210013,-8.96453 c -7.84e-4,-0.0153 -0.123391,-1.16001 -0.272545,-2.54363 -0.149155,-1.38364 -0.235078,-2.55242 -0.190943,-2.59733 0.265959,-0.27054 1.926395,0.64889 2.404837,1.33162 0.795602,1.13533 0.365905,2.49232 -1.110969,3.50843 -0.392533,0.27007 -0.82429,0.42652 -0.83038,0.30091 z m 33.655601,7.85099 c 2.819514,-0.4409 4.870095,-3.24624 4.315855,-5.90439 -0.641117,-3.0748 -3.868128,-4.91628 -6.943346,-3.96218 -0.907789,0.28165 -1.408005,0.58144 -2.134965,1.27949 -3.128179,3.00383 -1.363395,7.93936 3.085335,8.62865 0.530326,0.0822 0.952758,0.0716 1.677121,-0.0416 z m 32.689627,-0.73184 c 1.130667,-0.11057 1.860283,-0.2317 1.956284,-0.32481 0.164828,-0.15985 0.625917,-5.63323 0.506728,-6.01513 -0.06822,-0.21858 -0.0805,-0.21789 -1.801068,0.10084 -0.504692,0.0935 -1.058142,0.15384 -1.22989,0.13412 l -0.312267,-0.0359 0.03871,-5.05932 0.0387,-5.05932 h -0.423747 c -0.945201,0 -3.119397,0.3573 -3.259484,0.53565 -0.106038,0.135 -0.139188,1.15071 -0.137388,4.20961 l 0.0023,4.03168 0.825231,3.71056 c 0.453878,2.04082 0.85829,3.76406 0.898692,3.82943 0.100675,0.1629 0.781789,0.14939 2.897118,-0.0575 z M 41.195153,273.3291 c 0.04525,-0.0885 0.185924,-0.49785 0.312626,-0.90947 0.126702,-0.41163 0.389089,-1.00637 0.583082,-1.32165 0.213152,-0.34642 0.312257,-0.6137 0.250467,-0.67548 -0.05623,-0.0562 -0.759341,-0.1355 -1.562455,-0.17615 l -1.460208,-0.074 -0.07169,0.2679 c -0.133068,0.49728 -0.08529,2.76389 0.06016,2.85377 0.129573,0.08 1.487918,0.25083 1.701949,0.21394 0.05711,-0.01 0.140835,-0.0904 0.186079,-0.17895 z"
       style="fill:#000000;stroke-width:0.11180813" />
    <path
       inkscape:connector-curvature="0"
       id="path2388"
       d="m 90.134088,285.22326 c -0.03031,-0.0501 1.631539,-2.12878 3.692988,-4.61932 8.568974,-10.35255 8.440044,-10.1909 8.376484,-10.50197 -0.12038,-0.58917 -0.96372,-2.24415 -1.14356,-2.24415 -0.0979,0 -0.91589,0.66805 -1.817822,1.48456 -1.407475,1.27418 -3.646088,3.28987 -5.360449,4.82668 -0.262976,0.23573 -0.503013,0.40374 -0.533415,0.37333 -0.05199,-0.0519 0.149971,-0.93436 1.504296,-6.57276 3.058737,-12.73428 3.443211,-14.31592 3.490596,-14.35956 0.02296,-0.0212 6.933404,-0.0754 15.356544,-0.12066 12.97022,-0.0696 15.29688,-0.0586 15.19794,0.0713 -0.16361,0.21482 -2.01047,2.48182 -9.39078,11.52699 -3.01831,3.69915 -3.62397,4.49923 -3.62397,4.78714 0,0.38696 0.17297,0.77821 0.34403,0.77821 0.0619,0 2.53807,-1.98745 5.50259,-4.41654 2.9645,-2.42911 5.40577,-4.36924 5.42505,-4.31142 0.0192,0.0578 -0.46727,1.73081 -1.08122,3.71775 -0.61394,1.98694 -1.85395,6.00251 -2.75555,8.9235 -0.90162,2.92098 -1.98925,6.44233 -2.41698,7.8252 -0.42771,1.38288 -0.81349,2.54907 -0.8573,2.59156 -0.0438,0.0424 -5.96633,0.10655 -13.16118,0.14227 -7.194854,0.0358 -13.89417,0.0929 -14.887369,0.12702 -0.993201,0.0341 -1.830616,0.021 -1.860923,-0.0291 z m 27.676352,-2.24713 c 0.0951,-0.0789 0.30281,-0.5569 0.46161,-1.06218 0.15881,-0.50527 0.47163,-1.49728 0.69515,-2.20447 0.43148,-1.36512 0.8574,-2.74989 1.10045,-3.57786 0.18254,-0.62179 1.75607,-5.70539 2.39543,-7.73887 0.24008,-0.76356 0.22573,-1.09397 -0.0476,-1.09397 -0.0836,0 -0.61183,0.38993 -1.17393,0.86651 -0.56208,0.47659 -1.33625,1.11809 -1.72039,1.42556 -0.63712,0.50999 -1.40592,1.15627 -2.8997,2.43762 -0.30095,0.25816 -0.65315,0.54265 -0.78265,0.63219 -0.1295,0.0895 -0.76375,0.61983 -1.40945,1.1784 -2.18529,1.89047 -2.28468,1.95461 -3.06137,1.97585 -0.37632,0.01 -0.96093,0.0341 -1.29915,0.0527 -0.72234,0.0399 -1.34169,-0.042 -1.34169,-0.1773 0,-0.14055 1.50996,-2.0705 2.05089,-2.62135 0.46088,-0.46931 0.47608,-0.47499 1.80649,-0.67505 0.73794,-0.11093 1.42974,-0.24796 1.53736,-0.30441 0.24373,-0.12785 0.25042,-0.53518 0.028,-1.69787 -0.2576,-1.34621 -0.24503,-1.40648 0.47521,-2.27867 0.6745,-0.81682 2.87489,-3.52078 6.30365,-7.74628 1.12273,-1.38362 2.4467,-3.00923 2.94213,-3.61245 1.35149,-1.64549 1.46439,-1.82629 1.2796,-2.04897 -0.139,-0.16749 -0.48244,-0.17803 -3.67621,-0.11299 -1.93758,0.0395 -7.32156,0.0813 -11.96439,0.0928 -4.64284,0.0122 -8.68149,0.042 -8.97479,0.0675 -0.39185,0.0342 -0.565582,0.10691 -0.655096,0.27412 -0.123608,0.23096 -0.367917,1.09939 -1.046166,3.7187 -0.207005,0.79943 -0.476421,1.83087 -0.5987,2.29207 -0.12228,0.4612 -0.400137,1.51779 -0.617462,2.34797 -0.217323,0.83017 -0.553418,2.11318 -0.746878,2.8511 -0.955018,3.64283 -0.984008,3.7859 -0.791207,3.90506 0.149038,0.0921 0.769558,-0.43962 2.976233,-2.55041 3.740246,-3.5777 5.552406,-5.26733 5.795546,-5.40373 0.16997,-0.0954 1.0165,-0.13698 2.84163,-0.13975 1.42975,-0.002 2.59954,0.0217 2.59954,0.0529 0,0.18689 -1.59862,2.07166 -2.86788,3.38122 l -0.35219,0.36338 h -1.73693 c -1.80812,0 -2.31053,0.0884 -2.31053,0.40688 0,0.10387 0.26937,0.6711 0.5986,1.2606 0.75979,1.36043 0.80799,1.51517 0.58024,1.86276 -0.0998,0.15227 -0.89638,1.17706 -1.77025,2.27733 -0.87386,1.10027 -1.87935,2.36942 -2.23442,2.82035 -0.355068,0.45093 -1.235558,1.56933 -1.956644,2.48534 -0.721086,0.91601 -2.05513,2.59803 -2.964543,3.73783 -0.909411,1.13979 -1.638696,2.14911 -1.620631,2.24291 0.01806,0.0938 0.148647,0.19792 0.290182,0.23135 0.141533,0.0335 5.52969,0.0356 11.973676,0.005 9.30633,-0.0444 11.75191,-0.0854 11.88923,-0.1994 z m -10.55982,-18.4145 c 0.51569,-0.52153 0.91645,-1.01208 0.89057,-1.09013 -0.0616,-0.18587 -2.13617,-0.25519 -2.54679,-0.0851 -0.40887,0.16936 -2.05548,1.84819 -1.96164,2.00002 0.0486,0.0786 0.54918,0.12343 1.37827,0.12343 h 1.30198 z m -85.956072,18.95114 -0.237551,-0.3336 -2.984546,-0.0298 -2.984546,-0.0298 -0.03305,-0.68934 c -0.04626,-0.965 -0.13651,-1.00802 -1.251881,-0.59677 -0.979235,0.36105 -3.100616,0.9424 -3.8795069,1.06316 -0.462199,0.0716 -0.469357,0.0676 -0.533366,-0.29945 -0.07928,-0.45463 -1.499899,-10.1908 -1.971198,-13.50952 -0.18776,-1.32213 -0.384559,-2.51173 -0.437331,-2.64356 -0.07754,-0.19371 -0.226241,-0.25481 -0.775254,-0.31853 -0.571378,-0.0663 -0.687688,-0.11701 -0.732065,-0.31935 -0.02902,-0.13228 -0.207156,-1.19647 -0.395862,-2.36488 -0.188706,-1.16839 -0.643661,-3.98075 -1.011009,-6.24969 -0.367349,-2.26894 -0.64057,-4.15269 -0.607158,-4.1861 0.106866,-0.10692 1.188935,-0.0165 2.627117,0.21945 2.910995,0.47752 5.7604009,1.37145 8.4255959,2.64331 1.263178,0.60279 1.332973,0.62284 1.478137,0.42431 0.134757,-0.1843 0.255869,-0.20038 1.048445,-0.13926 3.131209,0.24147 7.530678,1.92494 10.347271,3.95943 0.246504,0.17806 1.135713,0.40564 3.354244,0.8585 2.503889,0.5111 3.044986,0.65512 3.172217,0.84433 0.182765,0.2718 0.38012,0.28063 1.411958,0.0633 3.557479,-0.74954 6.468701,-0.26174 9.423747,1.57904 0.883977,0.55065 1.094771,0.54111 1.163394,-0.0527 l 0.03459,-0.2993 2.012546,-0.0265 c 1.1069,-0.0146 3.64774,-0.0755 5.64631,-0.13561 3.002851,-0.0903 3.818185,-0.15009 4.695941,-0.34501 1.335562,-0.29659 5.023781,-0.42822 6.497482,-0.23189 0.884484,0.11786 1.901872,0.34037 2.348896,0.51381 0.240605,0.0934 0.545506,-0.22406 0.545506,-0.56787 0,-0.18059 0.08573,-0.30722 0.251567,-0.37163 0.375756,-0.14592 4.873251,-0.46313 5.429517,-0.38295 0.304796,0.0439 0.715861,0.004 1.118081,-0.10972 0.742369,-0.20909 6.230709,-0.97019 6.996205,-0.97019 0.49052,0 0.525676,-0.0201 0.588944,-0.33642 0.05832,-0.29161 0.143574,-0.35794 0.640102,-0.49797 1.868926,-0.5271 8.579348,-2.29624 8.709687,-2.29624 0.164758,0 0.189687,-0.18931 -1.248955,9.48405 -0.313915,2.11075 -0.570755,3.98493 -0.570755,4.16485 0,0.39217 0.08091,0.40112 1.449016,0.16035 0.520232,-0.0916 0.981774,-0.12921 1.025647,-0.0837 0.09492,0.0985 -1.635694,10.63759 -1.768264,10.76837 -0.08232,0.0813 -9.956409,0.66348 -11.244316,0.66307 -0.530279,-2.1e-4 -0.531088,-7.7e-4 -0.531088,-0.3835 0,-0.45745 -0.258631,-0.75455 -0.595079,-0.68361 -0.133916,0.0282 -1.551637,0.16018 -3.150493,0.29318 -2.386401,0.19853 -2.960755,0.27908 -3.207103,0.44979 -0.275905,0.19119 -0.41558,0.1993 -1.733025,0.10059 -2.59967,-0.19475 -2.7899,-0.18921 -3.086908,0.0898 -0.256376,0.24085 -0.377841,0.2523 -3.883204,0.36587 l -3.618549,0.11725 -0.253269,0.27328 -0.253268,0.27329 -7.132338,-0.0288 -7.13234,-0.0288 -0.03248,-0.92242 c -0.03027,-0.85992 -0.0488,-0.92242 -0.273403,-0.92242 -0.132511,0 -0.369466,0.12212 -0.526567,0.27138 -0.157102,0.14925 -0.591201,0.44337 -0.964666,0.6536 -2.140329,1.20481 -5.010492,1.41371 -7.701971,0.56057 l -0.899076,-0.28498 -2.124354,0.13862 c -1.90557,0.12436 -2.1589,0.12018 -2.459779,-0.0405 -0.268219,-0.14328 -0.701517,-0.17932 -2.162583,-0.17987 l -1.827158,-6.7e-4 -1.870362,0.61495 c -1.0287,0.33822 -1.926296,0.61494 -1.994658,0.61494 -0.06836,0 -0.231192,-0.15013 -0.361845,-0.33361 z m 21.151363,-1.78806 c 0.856054,-0.26442 1.581063,-0.72523 2.203618,-1.40062 0.635965,-0.68994 0.605191,-0.85919 -0.23761,-1.30686 -0.978228,-0.51958 -1.90553,-1.5058 -2.392987,-2.54499 -0.217677,-0.46406 -0.455152,-0.96752 -0.527721,-1.1188 -0.112656,-0.23482 -0.254985,-0.29406 -0.973442,-0.40515 -1.445614,-0.22351 -2.259681,-0.80192 -2.669215,-1.8965 -0.944529,-2.52447 1.305551,-5.8794 3.407274,-5.08033 0.423684,0.16109 0.98509,0.64752 1.385889,1.20079 0.398027,0.54948 0.573515,0.58054 1.083216,0.19177 0.469982,-0.35847 1.664443,-0.92642 2.134176,-1.01476 0.197666,-0.0372 0.408065,-0.12624 0.467553,-0.19792 0.05949,-0.0716 0.143183,-0.68384 0.185991,-1.36034 0.0777,-1.22795 0.07732,-1.23062 -0.228963,-1.59462 -0.681701,-0.81015 -2.377588,-1.80923 -3.862638,-2.27556 -0.69829,-0.21926 -1.062912,-0.26074 -2.232221,-0.2539 -1.203372,0.007 -1.52191,0.0497 -2.292067,0.30687 -0.979722,0.32718 -2.243768,0.99522 -2.84248,1.50221 l -0.382702,0.32409 1.147027,4.91107 c 0.630865,2.70107 1.469962,6.29305 1.864659,7.98217 0.484905,2.07516 0.695889,3.18701 0.65059,3.42847 -0.05366,0.28607 -0.02164,0.38165 0.160534,0.47915 0.740147,0.39612 2.855252,0.46236 3.951519,0.12376 z m 10.74251,-0.0306 c 0.139958,-0.10607 0.202908,-0.41679 0.261206,-1.28923 0.04224,-0.6322 0.110599,-1.17034 0.151902,-1.19587 0.04131,-0.0255 0.348463,0.44142 0.682581,1.03764 0.936354,1.67088 0.788576,1.58753 2.810617,1.5855 0.940587,-8.9e-4 1.783136,-0.0479 1.872333,-0.10436 0.141407,-0.0894 0.129682,-1.19531 -0.09156,-8.63547 -0.139557,-4.69307 -0.276955,-8.61504 -0.305331,-8.71548 -0.0507,-0.17946 -0.691384,-0.25549 -2.640145,-0.31329 -0.898692,-0.0266 -0.938927,0.0681 -1.034772,2.43801 -0.0451,1.11527 -0.127549,2.05591 -0.183206,2.09031 -0.05566,0.0344 -0.604708,-0.95688 -1.220112,-2.20285 -0.615405,-1.24596 -1.181157,-2.30492 -1.257227,-2.35324 -0.249486,-0.15846 -2.812376,-0.10776 -3.042056,0.0602 -0.17667,0.12919 -0.22892,0.43665 -0.354732,2.08743 -0.09847,1.29213 -0.110442,1.98063 -0.03599,2.07033 0.06135,0.074 0.404317,0.24116 0.762146,0.37164 4.434775,1.61699 5.264953,7.28575 1.458466,9.95895 -0.75165,0.52785 -1.689883,0.9149 -2.576618,1.0629 -0.536774,0.0896 -0.612846,0.20557 -0.702647,1.07114 -0.124034,1.19554 -0.315609,1.11541 2.666599,1.11541 1.902443,0 2.643326,-0.0372 2.778555,-0.13976 z m -25.659808,-0.82345 c 1.274882,-0.46827 2.383147,-0.904 2.462814,-0.96829 0.07967,-0.0643 0.119929,-0.18181 0.08948,-0.26116 -0.03044,-0.0793 -0.9887,-1.55154 -2.129443,-3.2715 -1.140741,-1.71996 -2.074075,-3.16141 -2.074075,-3.2032 0,-0.0418 0.425388,-0.52788 0.945306,-1.08019 1.658873,-1.76222 2.520484,-3.9768 2.372559,-6.09814 -0.231767,-3.32371 -2.410322,-6.14593 -5.885874,-7.62491 -1.043473,-0.44404 -3.007889,-0.92522 -3.602434,-0.8824 l -0.482141,0.0348 -0.03221,1.10781 -0.03222,1.10781 0.566128,0.92318 c 0.841909,1.37287 1.424903,2.71573 1.810725,4.17082 0.443005,1.67073 0.555824,4.04722 0.270239,5.69245 -0.384299,2.21394 -1.479482,4.85432 -2.897353,6.98525 l -0.63568,0.95537 v 1.34323 c 0,0.73876 0.03054,1.4228 0.06787,1.52008 0.05893,0.15357 0.379839,0.17685 2.437417,0.17685 1.693907,0 2.407807,-0.0383 2.503721,-0.13417 0.09059,-0.0906 0.13417,-0.60625 0.13417,-1.58767 0,-0.90593 0.03951,-1.4135 0.104883,-1.34729 0.05769,0.0584 0.362578,0.70997 0.677546,1.44791 0.551132,1.29126 0.837773,1.84484 0.955233,1.84484 0.03046,0 1.098465,-0.38313 2.373345,-0.8514 z m -3.4764,-11.64316 c -0.06324,-0.10728 0.107085,-2.14861 0.185834,-2.22736 0.195337,-0.19534 0.63307,0.65474 0.63307,1.2294 0,0.53481 -0.635415,1.30916 -0.818904,0.99796 z m 62.5278,11.72777 c 3.455286,-0.23698 3.292203,-0.18115 3.418874,-1.17055 0.04072,-0.31809 0.197232,-1.35821 0.347797,-2.31138 0.696852,-4.41145 0.786591,-5.05705 0.736448,-5.29814 -0.04644,-0.22327 -0.330611,-0.22321 -2.45343,5.6e-4 -0.628179,0.0662 -0.698801,0.0531 -0.698801,-0.12981 0,-0.2281 1.377896,-10.01086 1.560217,-11.07719 0.167119,-0.97743 0.14988,-1.45995 -0.05496,-1.53856 -0.305117,-0.11713 -5.257976,1.06345 -5.507186,1.31266 -0.142002,0.14199 -0.883708,4.83926 -1.482662,9.38977 -0.144667,1.09912 -0.06164,1.24179 0.672509,1.1556 0.279112,-0.0327 0.608103,-0.0892 0.731092,-0.12522 0.122989,-0.0361 0.293926,-0.0197 0.37986,0.0365 0.165272,0.10801 0.124223,0.77137 -0.275457,4.45165 -0.08817,0.81186 -0.161048,1.6672 -0.161955,1.90074 -0.0033,0.84877 -0.14023,0.95618 -1.473973,1.15621 -0.655956,0.0984 -1.264622,0.23858 -1.352588,0.31159 -0.206885,0.1717 -0.356607,1.72138 -0.195412,2.02258 0.148747,0.27793 0.384459,0.30679 1.681923,0.20589 0.584197,-0.0455 2.441667,-0.17722 4.12771,-0.29286 z m -21.793394,0.21228 c 2.167146,-0.12127 2.712997,-0.28018 3.555263,-1.03487 1.074024,-0.96235 1.358362,-2.15349 0.93023,-3.89688 -0.20438,-0.83225 -0.781676,-1.7794 -1.454046,-2.3856 -0.129935,-0.11713 -0.236244,-0.2531 -0.236244,-0.30215 0,-0.18074 1.163126,-1.25046 1.209238,-1.11212 0.02562,0.0769 -0.110211,0.28289 -0.301815,0.4579 -0.191611,0.17501 -0.348382,0.40583 -0.348382,0.51292 0,0.10716 0.281204,0.68708 0.624897,1.28881 1.229905,2.15334 1.260578,3.05443 0.177658,5.21899 -0.399204,0.79793 -0.404412,0.82424 -0.193697,0.97832 0.119102,0.0871 0.427044,0.15834 0.684329,0.15834 0.257285,0 0.614322,0.0293 0.793417,0.0651 0.22677,0.0454 0.404726,10e-4 0.586184,-0.14586 0.233799,-0.18932 0.293957,-0.44573 0.58581,-2.49695 0.178888,-1.25728 0.347483,-2.34886 0.374652,-2.42573 0.02717,-0.0769 0.202999,-0.13975 0.39073,-0.13975 0.456277,0 0.499324,0.12926 0.781906,2.34797 0.12923,1.01465 0.284958,1.96438 0.346065,2.11051 l 0.111098,0.26569 1.764436,-0.0799 c 2.296976,-0.10411 2.522182,-0.15092 2.566944,-0.53367 0.01916,-0.16385 -0.124756,-1.01739 -0.319821,-1.89676 -0.195062,-0.87936 -0.552568,-2.50449 -0.794456,-3.61139 -0.241889,-1.1069 -0.50915,-2.31443 -0.593915,-2.68339 -0.354116,-1.5414 -0.651556,-2.883 -0.954357,-4.30462 -0.176825,-0.83017 -0.425958,-1.96223 -0.553626,-2.51569 -0.127669,-0.55344 -0.282611,-1.25695 -0.344314,-1.56335 -0.180102,-0.89434 -0.157498,-0.8868 -2.219557,-0.73989 -0.988113,0.0704 -1.87131,0.15666 -1.962662,0.19172 -0.211583,0.0811 -0.240657,0.1952 -0.400711,1.57128 -0.123754,1.064 -0.117155,1.17718 0.10284,1.76518 0.333684,0.89186 0.281999,1.02062 -0.09175,0.22857 -0.627133,-1.32899 -1.959657,-2.44297 -3.418748,-2.85802 -1.002879,-0.28529 -6.245606,-0.0935 -6.911975,0.25282 -0.190703,0.0991 -0.201241,0.30104 -0.167712,3.21358 l 0.03577,3.10783 0.463622,0.50277 c 0.536322,0.58162 0.450985,-0.0857 0.811564,6.34689 0.115477,2.06007 0.24483,3.8307 0.287456,3.93473 0.129259,0.31546 1.185208,0.36892 4.083669,0.20671 z M 64.190994,277.799 c -0.138521,-0.51774 -0.08754,-1.22012 0.08856,-1.22012 0.394937,0 0.521507,0.82559 0.189441,1.23569 l -0.205823,0.25417 z m 4.846577,-5.75105 c 0.07778,-0.0938 0.164456,-0.14739 0.192598,-0.1192 0.07754,0.0775 -0.08001,0.28966 -0.21513,0.28966 -0.07413,0 -0.06566,-0.0641 0.02253,-0.17042 z m 2.727463,-1.36695 c 0.103679,-1.01364 0.244114,-1.09934 0.339649,-0.20727 0.08383,0.78276 0.03906,0.96198 -0.240286,0.96198 -0.151054,0 -0.165405,-0.10898 -0.09936,-0.75471 z m -8.252746,-0.83855 c -0.204361,-1.67021 -0.191247,-2.20822 0.05382,-2.20822 0.16223,0 0.454342,0.52666 0.564809,1.01831 0.07755,0.34515 0.05954,0.61746 -0.0704,1.06444 -0.216053,0.7432 -0.465656,0.80032 -0.548231,0.12547 z m 6.538139,-2.16163 c 0.0054,-0.13026 0.03186,-0.15675 0.06755,-0.0675 0.03229,0.0808 0.02833,0.17715 -0.0089,0.21431 -0.03716,0.0371 -0.06358,-0.029 -0.05872,-0.14675 z m -34.16621,13.36334 c 0.860923,-0.0648 1.610276,-0.16247 1.665231,-0.21687 0.126915,-0.12564 0.193573,0.18319 -1.822008,-8.44122 -0.93416,-3.99714 -1.830219,-7.84613 -1.991248,-8.55331 -0.161027,-0.70719 -0.372516,-1.3724 -0.469977,-1.47823 -0.246484,-0.26768 -4.197695,-0.97498 -4.387304,-0.78536 -0.09865,0.0986 -0.03137,0.34544 0.279802,1.02617 0.225334,0.49295 0.489665,1.18687 0.587403,1.54203 0.245722,0.89291 0.329283,2.77302 0.161609,3.63617 -0.276117,1.42138 -1.107522,3.1258 -2.31406,4.74396 -0.561517,0.75309 -0.744359,1.27445 -0.499923,1.42553 0.05405,0.0334 0.836927,1.06779 1.739729,2.29866 0.902802,1.23086 1.682595,2.23793 1.732872,2.23793 0.204653,0 0.329139,-0.32382 0.44497,-1.15747 0.06709,-0.48286 0.149904,-0.92311 0.184026,-0.97832 0.03412,-0.0552 0.204141,-0.10034 0.377824,-0.10034 0.232105,0 0.334419,0.0666 0.386104,0.25155 0.03868,0.13837 0.298639,1.15267 0.577693,2.25401 0.279056,1.10134 0.556932,2.09503 0.617503,2.20821 0.131928,0.2465 0.469304,0.25725 2.729754,0.087 z m -4.806306,-9.97183 c 0.10622,-0.93602 0.226125,-1.12895 0.32064,-0.51594 0.04138,0.26839 0.104652,0.65151 0.140589,0.85136 0.06054,0.33664 0.04306,0.36339 -0.237591,0.36339 h -0.302941 z m -16.465119,9.21041 c 1.3032,-0.6635 2.160183,-1.31017 3.160423,-2.38482 2.564526,-2.75534 3.877917,-6.70908 3.520229,-10.59708 -0.459847,-4.99843 -3.09684,-8.87555 -7.553129,-11.10522 -1.35579,-0.67835 -3.586313,-1.30728 -5.2660439,-1.48483 -0.601487,-0.0636 -0.701505,-0.0465 -0.796985,0.13617 -0.160809,0.30762 1.381423,10.33297 1.617814,10.51668 0.09433,0.0733 0.43487,0.16617 0.7567639,0.20639 0.321895,0.0403 0.64772,0.11166 0.724055,0.1589 0.134371,0.0831 0.553259,2.86635 1.6834,11.18538 0.254796,1.87557 0.509142,3.52335 0.565209,3.66171 0.146808,0.36229 0.388186,0.31773 1.588264,-0.29328 z m 0.273759,-9.60174 c -0.169075,-1.13931 -0.445706,-4.39362 -0.379135,-4.46019 0.134386,-0.13439 0.948463,0.17897 1.441102,0.55473 1.249531,0.95304 1.415623,2.15511 0.446561,3.23194 -0.406324,0.4515 -1.207684,1.0928 -1.365563,1.0928 -0.04441,0 -0.108739,-0.18868 -0.142965,-0.41928 z m 34.18369,8.39219 c 1.370116,-0.38202 2.674324,-1.43034 3.404452,-2.7365 1.043567,-1.86686 0.560114,-4.51538 -1.105758,-6.05768 -2.772688,-2.56702 -7.22846,-1.77741 -8.903572,1.5778 -0.425907,0.85309 -0.431699,0.88194 -0.431699,2.15049 0,1.21512 0.0197,1.32738 0.358477,2.04257 0.779936,1.64654 2.152094,2.72189 4.002041,3.13636 0.560211,0.12553 2.04548,0.0628 2.676059,-0.11299 z m 32.011676,-0.57391 c 1.437666,-0.13665 2.087983,-0.24244 2.20312,-0.35834 0.121304,-0.12212 0.207755,-0.79772 0.335801,-2.62424 0.220784,-3.14937 0.222573,-3.81449 0.01046,-3.89588 -0.08947,-0.0343 -0.730977,0.0354 -1.425555,0.15501 -0.694578,0.11956 -1.384222,0.21777 -1.532545,0.21817 l -0.269677,7.9e-4 0.07017,-4.96497 c 0.061,-4.31611 0.04843,-4.98299 -0.0961,-5.10295 -0.175789,-0.14588 -0.442048,-0.12946 -2.603154,0.16051 -0.63574,0.0853 -1.214347,0.21366 -1.285794,0.28522 -0.09447,0.0946 -0.127311,1.29511 -0.120403,4.40098 0.0094,4.18295 0.01551,4.2973 0.301244,5.55664 0.160456,0.70718 0.398715,1.78892 0.529466,2.40386 0.13075,0.61495 0.330303,1.49544 0.443451,1.95665 0.113141,0.46121 0.237361,1.02562 0.276029,1.25425 0.03867,0.22862 0.147395,0.49277 0.241613,0.58699 0.210879,0.21088 0.379575,0.20899 2.921851,-0.0326 z m -39.807163,-5.07903 c 0.05887,-0.0769 0.196233,-0.47876 0.305255,-0.89309 0.109019,-0.41434 0.368902,-1.03678 0.577508,-1.3832 0.556044,-0.9234 0.528401,-1.00358 -0.375422,-1.08894 -0.415087,-0.0392 -1.164409,-0.0716 -1.665158,-0.0721 -0.727573,-6.7e-4 -0.924088,0.0348 -0.978322,0.17606 -0.136674,0.35618 -0.07508,3.04778 0.0719,3.14167 0.128772,0.0822 0.958949,0.20349 1.663432,0.24291 0.161581,0.009 0.341947,-0.0465 0.400813,-0.12332 z"
       style="fill:#090504;stroke-width:0.11180813" />
    <path
       sodipodi:type="star"
       style="fill:#000000;fill-opacity:1;fill-rule:nonzero;stroke:none;stroke-width:0.21166667;stroke-linecap:round;stroke-linejoin:round;stroke-miterlimit:4;stroke-dasharray:none;stroke-opacity:1"
       id="path2428"
       sodipodi:sides="5"
       sodipodi:cx="47.461403"
       sodipodi:cy="273.66724"
       sodipodi:r1="2.5852883"
       sodipodi:r2="1.2926443"
       sodipodi:arg1="2.1120172"
       sodipodi:arg2="2.7403357"
       inkscape:flatsided="false"
       inkscape:rounded="0"
       inkscape:randomized="0"
       d="m 46.129507,275.88304 0.141925,-1.71093 -1.328958,-1.08686 1.671043,-0.39373 0.622998,-1.59977 0.890836,1.46759 1.713993,0.0981 -1.120476,1.30074 0.436307,1.66043 -1.583328,-0.66368 z"
       inkscape:transform-center-x="0.069494772"
       inkscape:transform-center-y="-0.17984467" />
  </g>
</svg>
