<?xml version="1.0" encoding="UTF-8" standalone="no"?>
<!-- Created with Inkscape (http://www.inkscape.org/) -->

<svg
   xmlns:dc="http://purl.org/dc/elements/1.1/"
   xmlns:cc="http://creativecommons.org/ns#"
   xmlns:rdf="http://www.w3.org/1999/02/22-rdf-syntax-ns#"
   xmlns:svg="http://www.w3.org/2000/svg"
   xmlns="http://www.w3.org/2000/svg"
   xmlns:sodipodi="http://sodipodi.sourceforge.net/DTD/sodipodi-0.dtd"
   xmlns:inkscape="http://www.inkscape.org/namespaces/inkscape"
   width="500"
   height="200"
   viewBox="0 0 132.29166 52.916668"
   version="1.1"
   id="svg8"
   sodipodi:docname="doom_.svg"
   inkscape:version="0.92.5 (2060ec1f9f, 2020-04-08)">
  <defs
     id="defs2" />
  <sodipodi:namedview
     id="base"
     pagecolor="#ffffff"
     bordercolor="#666666"
     borderopacity="1.0"
     inkscape:pageopacity="0.0"
     inkscape:pageshadow="2"
     inkscape:zoom="1.6748048"
     inkscape:cx="339.43954"
     inkscape:cy="120.03091"
     inkscape:document-units="mm"
     inkscape:current-layer="layer1"
     showgrid="false"
     units="px"
     inkscape:pagecheckerboard="true"
     inkscape:window-width="1366"
     inkscape:window-height="740"
     inkscape:window-x="0"
     inkscape:window-y="0"
     inkscape:window-maximized="1" />
  <metadata
     id="metadata5">
    <rdf:RDF>
      <cc:Work
         rdf:about="">
        <dc:format>image/svg+xml</dc:format>
        <dc:type
           rdf:resource="http://purl.org/dc/dcmitype/StillImage" />
        <dc:title></dc:title>
      </cc:Work>
    </rdf:RDF>
  </metadata>
  <g
     inkscape:label="Layer 1"
     inkscape:groupmode="layer"
     id="layer1"
     transform="translate(0,-244.08332)">
    <path
       inkscape:connector-curvature="0"
       id="path2153"
       d="m 32.972314,289.7476 c -0.07938,-0.0794 -0.04419,-0.38573 0.08854,-0.77056 0.07238,-0.20988 0.149528,-0.55183 0.171431,-0.75988 l 0.03983,-0.37828 -0.187585,0.0972 c -0.103171,0.0535 -0.46378,0.31808 -0.801355,0.588 -0.5695,0.45538 -0.775289,0.5715 -0.775289,0.4375 0,-0.0295 0.17444,-0.47796 0.387645,-0.99641 l 0.387644,-0.94265 -8.68e-4,-20.34022 -8.68e-4,-20.34021 -0.645207,-0.8236 c -0.354864,-0.45297 -0.645207,-0.86727 -0.645207,-0.92065 0,-0.0858 0.846869,-0.097 7.284499,-0.0961 l 7.284499,9.1e-4 1.873618,1.13436 c 1.03049,0.6239 1.921008,1.17719 1.978929,1.22953 0.06441,0.0582 0.117063,0.23686 0.135566,0.45999 0.02458,0.29638 0.05937,0.38331 0.185423,0.46328 0.08534,0.0541 0.277543,0.21795 0.427112,0.36401 0.310824,0.30355 0.339388,0.28023 0.346369,-0.28274 0.0025,-0.20142 0.0243,-0.41582 0.04845,-0.47645 0.02416,-0.0606 0.607642,-0.73659 1.296644,-1.50213 l 1.252728,-1.39188 h 6.179122 6.179122 l 1.370925,1.37635 c 0.920955,0.92459 1.370925,1.42129 1.370925,1.51331 0,0.0753 0.07698,0.22846 0.171065,0.34028 0.192118,0.22832 0.278476,0.178 0.280199,-0.16325 8.26e-4,-0.16349 0.216054,-0.43402 1.297864,-1.63134 l 1.296877,-1.43535 h 6.18343 6.18343 l 1.370925,1.37635 c 1.097859,1.1022 1.370925,1.41064 1.370925,1.54859 0,0.12203 0.127141,0.3126 0.436101,0.65368 l 0.436101,0.48144 0.04367,-0.26947 c 0.02402,-0.14821 0.04583,-0.64756 0.04845,-1.10967 l 0.0048,-0.84018 -0.613772,-0.86824 c -0.337574,-0.47752 -0.61377,-0.90644 -0.61377,-0.95313 0,-0.0694 0.761046,-0.0819 4.176808,-0.0683 l 4.176809,0.0166 1.593751,3.80791 c 0.876569,2.09435 1.620874,3.81673 1.654024,3.82751 0.03315,0.0108 0.696069,-1.58648 1.473161,-3.54948 0.777096,-1.96299 1.465956,-3.69263 1.530806,-3.84365 l 0.11789,-0.27459 h 3.977 c 4.51723,0 4.08055,-0.0662 3.85376,0.5837 -0.23004,0.65923 -0.23079,0.65726 0.27813,0.74126 0.70121,0.11573 0.83242,0.39985 0.53963,1.16847 l -0.14536,0.3816 -0.0189,19.31766 c -0.0138,14.06123 7e-4,19.42313 0.0534,19.70529 0.0398,0.21321 0.18646,0.87033 0.32588,1.46028 0.26124,1.10547 0.31069,1.59014 0.17595,1.72487 -0.0987,0.0987 -0.40593,0.0999 -0.58894,0.003 -0.48662,-0.25949 -7.00722,-4.8117 -7.23179,-5.04872 -0.1296,-0.13677 -0.17767,-0.25378 -0.17767,-0.43241 0,-0.27461 -0.11841,-0.4035 -0.82771,-0.90105 -0.21991,-0.15426 -0.39984,-0.31536 -0.39984,-0.358 0,-0.0427 0.21805,-0.37347 0.48456,-0.73519 l 0.48455,-0.65765 -0.006,-3.85874 c -0.004,-2.12231 -0.0256,-3.92716 -0.0491,-4.01078 -0.0325,-0.11589 -0.31135,0.53681 -1.17264,2.74516 -0.717696,1.84014 -1.190771,2.96583 -1.296631,3.0853 -0.315782,0.35638 -0.642741,0.0856 -0.839303,-0.69496 -0.08445,-0.33538 -0.157752,-0.37466 -0.264012,-0.14146 -0.100317,0.22018 -0.239268,0.25679 -0.315175,0.083 -0.0346,-0.0792 -0.500334,-1.58322 -1.034935,-3.34216 -1.29474,-4.25994 -1.466054,-4.80125 -1.631936,-5.15668 l -0.141263,-0.30266 -0.0323,4.46733 c -0.03094,4.27767 -0.03752,4.47309 -0.155381,4.60328 -0.131807,0.14561 -0.418656,0.17906 -0.618464,0.0722 -0.248122,-0.1328 -5.597178,-3.89391 -5.748359,-4.04189 -0.107085,-0.10481 -0.169843,-0.25394 -0.193822,-0.46055 -0.03093,-0.26655 -0.07116,-0.33276 -0.315066,-0.51855 -0.153782,-0.11715 -0.317653,-0.213 -0.364157,-0.213 -0.05112,0 -0.102422,0.11915 -0.129745,0.30136 -0.03604,0.2403 -0.106241,0.36387 -0.346524,0.6099 -0.247804,0.25373 -7.046824,5.26607 -8.462119,6.23839 -0.467599,0.32125 -0.805391,0.36723 -1.15073,0.15665 -0.259059,-0.15796 -6.892678,-5.44128 -7.204894,-5.7383 -0.12942,-0.12312 -0.28737,-0.34458 -0.350999,-0.49213 -0.125588,-0.29123 -0.397976,-0.62468 -0.507953,-0.62184 -0.03777,9.1e-4 -0.141356,0.10322 -0.230191,0.22719 -0.08883,0.12398 -0.365033,0.38159 -0.613771,0.57248 -0.738462,0.56671 -7.921872,5.79587 -8.233957,5.9939 -0.36976,0.23464 -0.734609,0.24386 -1.054664,0.0267 -0.126112,-0.0856 -1.811942,-1.41954 -3.746288,-2.96435 -3.346149,-2.6723 -3.795353,-3.07026 -3.795353,-3.36233 0,-0.20954 -0.787516,-0.94759 -1.01111,-0.94759 -0.06959,0 -0.08722,0.20933 -0.08722,1.0358 0,1.18685 -0.03451,1.31541 -0.461026,1.71725 -0.155078,0.14611 -3.145689,2.55743 -6.645802,5.35849 -3.500113,2.80107 -7.021037,5.62315 -7.824278,6.2713 -0.803239,0.64815 -1.629383,1.2968 -1.835874,1.44145 -0.34474,0.24149 -0.652843,0.33027 -0.763195,0.21992 z m 7.632617,-18.68502 c 0.202371,-0.13768 0.636877,-0.45841 0.965568,-0.71272 l 0.597619,-0.46238 -0.0037,-8.12236 c -0.0021,-4.46729 -0.02428,-8.23865 -0.04941,-8.38079 l -0.04568,-0.25842 -0.580517,-0.0176 c -0.779363,-0.0236 -1.12564,0.0782 -1.274947,0.37471 -0.105893,0.2103 -0.112969,0.77523 -0.113063,9.02711 -6.5e-5,6.13077 0.02058,8.80278 0.06805,8.80278 0.03749,0 0.233729,-0.11265 0.436101,-0.25034 z m 20.098898,-8.60089 c -0.0025,-4.74381 -0.02393,-8.77047 -0.04747,-8.94815 l -0.0428,-0.32303 h -0.745982 c -0.81846,0 -1.041363,0.0758 -1.162823,0.39523 -0.06958,0.183 -0.08859,15.77299 -0.01945,15.95315 0.02325,0.0605 0.464672,0.47036 0.980939,0.91062 0.666101,0.56803 0.953707,0.77677 0.99046,0.71887 0.02849,-0.0449 0.04969,-3.96288 0.04712,-8.70669 z M 78.7686,253.30357 c -0.03325,-0.13775 -0.06632,-0.14534 -0.631471,-0.145 -0.719982,4.5e-4 -1.031764,0.0782 -1.207222,0.30131 -0.131509,0.16719 -0.132154,0.20685 -0.132154,8.1246 v 7.95659 l 0.306885,0.29397 c 0.168788,0.16168 0.612157,0.55098 0.985266,0.86509 l 0.678379,0.57113 0.0177,-8.91116 c 0.0097,-4.90114 0.0019,-8.97657 -0.01738,-9.05653 z"
       style="fill:#666666;stroke-width:0.06460753" />
    <path
       inkscape:connector-curvature="0"
       id="path2151"
       d="m 32.975827,289.71406 c -0.07938,-0.0794 -0.04418,-0.38574 0.08854,-0.77057 0.07238,-0.20988 0.148739,-0.54428 0.169678,-0.7431 l 0.03807,-0.36151 -0.189553,0.0278 c -0.107195,0.0158 -0.439629,0.22476 -0.76512,0.48109 -0.316561,0.24931 -0.585462,0.4236 -0.597557,0.38731 -0.0121,-0.0363 0.125022,-0.4212 0.304707,-0.85537 l 0.326699,-0.78939 -0.0013,-20.4232 -0.0013,-20.42319 -0.609781,-0.77529 c -0.33538,-0.42641 -0.611025,-0.81164 -0.612545,-0.85605 -0.0022,-0.0642 1.475515,-0.0804 7.184823,-0.0791 l 7.187587,0.002 1.938225,1.17746 c 1.748409,1.06216 1.941687,1.19645 1.973567,1.37129 0.06116,0.33544 0.237597,0.64196 0.436586,0.75851 0.105583,0.0618 0.28016,0.21289 0.387948,0.33565 l 0.195979,0.22321 0.08318,-0.20643 c 0.04574,-0.11353 0.09891,-0.3569 0.118147,-0.54082 0.03435,-0.32845 0.05724,-0.35919 1.286789,-1.72826 l 1.251816,-1.39386 h 6.116671 6.116671 l 1.401985,1.41131 c 0.771091,0.77621 1.401984,1.44267 1.401984,1.48102 0,0.0383 0.07553,0.15947 0.167837,0.26917 l 0.167835,0.19946 0.122899,-0.15624 c 0.0676,-0.0859 0.122897,-0.21045 0.122897,-0.2767 0,-0.0662 0.568626,-0.75216 1.263613,-1.52424 l 1.263612,-1.40378 h 6.110506 6.110505 l 1.396354,1.37292 c 0.910759,0.89546 1.410103,1.4334 1.43589,1.54687 0.02174,0.0957 0.225259,0.37594 0.452253,0.62283 0.323837,0.3522 0.417162,0.42257 0.433362,0.32675 0.01136,-0.0672 0.04769,-0.12213 0.08076,-0.12213 0.03455,0 0.06011,-0.43497 0.06011,-1.0228 v -1.0228 l -0.581468,-0.82234 c -0.319808,-0.45229 -0.581468,-0.84969 -0.581468,-0.88312 0,-0.0373 1.568619,-0.0608 4.064141,-0.0608 h 4.064141 l 0.320102,0.75915 c 0.176056,0.41752 0.89557,2.14012 1.598913,3.82799 0.70335,1.68787 1.319028,3.11246 1.368168,3.16577 0.07552,0.0819 0.09795,0.083 0.144889,0.007 0.03055,-0.0494 0.397085,-0.95069 0.81452,-2.00284 0.417442,-1.05215 1.100693,-2.77067 1.518346,-3.81892 l 0.75937,-1.90592 3.83465,-0.0168 c 2.10906,-0.009 3.86975,-0.004 3.91263,0.013 0.0569,0.0217 0.0367,0.15115 -0.0751,0.48001 -0.0842,0.2476 -0.13382,0.46946 -0.11026,0.49304 0.0236,0.0236 0.0429,0.0751 0.0429,0.11463 0,0.0395 0.20054,0.10459 0.44564,0.1447 0.70116,0.11475 0.83251,0.39902 0.53963,1.16785 l -0.14536,0.3816 -0.019,19.31766 c -0.0138,14.06123 7.1e-4,19.42313 0.0534,19.70529 0.0398,0.21321 0.18646,0.87033 0.32588,1.46028 0.26124,1.10547 0.31068,1.59014 0.17595,1.72487 -0.0987,0.0987 -0.40593,0.0999 -0.58894,0.003 -0.48662,-0.25949 -7.00723,-4.8117 -7.23181,-5.04872 -0.1187,-0.12527 -0.17766,-0.257 -0.17766,-0.39688 0,-0.34113 -0.17355,-0.59175 -0.64945,-0.93789 -0.24689,-0.17957 -0.44888,-0.35505 -0.44888,-0.38997 0,-0.0349 0.21804,-0.35647 0.48456,-0.71457 l 0.48455,-0.6511 v -3.76055 c 0,-3.09246 -0.0159,-3.7832 -0.0891,-3.88799 -0.049,-0.0701 -0.0999,-0.1824 -0.11307,-0.24957 -0.0131,-0.0672 -0.5327,1.18268 -1.15455,2.77746 -0.718359,1.84229 -1.191402,2.96819 -1.2973,3.0877 -0.315783,0.35638 -0.642743,0.0857 -0.839305,-0.69496 -0.07653,-0.30395 -0.141309,-0.36435 -0.234512,-0.21866 -0.02841,0.0444 -0.10135,0.0846 -0.162081,0.0893 -0.08534,0.006 -0.153811,-0.13281 -0.301498,-0.61377 -0.105097,-0.34227 -0.660805,-2.1632 -1.234907,-4.04651 -0.574109,-1.88331 -1.094303,-3.48234 -1.155996,-3.55341 -0.06169,-0.0711 -0.154057,-0.21644 -0.205257,-0.32304 -0.08234,-0.17144 -0.09682,0.32221 -0.125392,4.2735 -0.03093,4.27768 -0.03752,4.4731 -0.155381,4.60329 -0.131807,0.14561 -0.418656,0.17906 -0.618464,0.0721 -0.333253,-0.17836 -5.615127,-3.91003 -5.767668,-4.07489 -0.13,-0.14051 -0.17767,-0.25897 -0.17767,-0.44152 0,-0.14296 -0.04139,-0.28385 -0.09691,-0.32993 -0.0533,-0.0442 -0.09691,-0.11876 -0.09691,-0.16562 0,-0.11352 -0.10555,-0.17262 -0.35793,-0.20044 -0.203438,-0.0224 -0.209788,-0.0154 -0.253952,0.27906 -0.03616,0.24111 -0.106109,0.36433 -0.34663,0.61061 -0.247803,0.25373 -7.046824,5.26606 -8.462119,6.23839 -0.467599,0.32125 -0.805391,0.36723 -1.15073,0.15665 -0.259058,-0.15797 -6.892678,-5.44128 -7.204894,-5.7383 -0.12942,-0.12312 -0.28737,-0.34458 -0.350999,-0.49213 -0.125588,-0.29123 -0.397976,-0.62468 -0.507953,-0.62184 -0.03777,9.1e-4 -0.141356,0.10321 -0.230191,0.22718 -0.08883,0.12398 -0.365033,0.3816 -0.613771,0.57248 -0.738462,0.56671 -7.921872,5.79588 -8.233957,5.99391 -0.36976,0.23463 -0.734609,0.24386 -1.054664,0.0266 -0.126112,-0.0856 -1.811942,-1.41954 -3.746288,-2.96436 -3.286803,-2.6249 -3.795352,-3.07267 -3.795352,-3.34173 0,-0.098 -0.40249,-0.71723 -0.540857,-0.83207 -0.05313,-0.0441 -0.200302,-0.093 -0.327039,-0.10875 l -0.230432,-0.0285 v 1.0364 c 0,1.18753 -0.03448,1.31599 -0.461026,1.71786 -0.155079,0.14611 -3.145689,2.55743 -6.645802,5.3585 -3.500113,2.80106 -7.021038,5.62315 -7.824278,6.2713 -0.80324,0.64815 -1.629383,1.29679 -1.835874,1.44144 -0.34474,0.2415 -0.652843,0.33028 -0.763196,0.21993 z M 60.7786,262.36353 c 0,-5.15342 -0.02432,-8.98044 -0.05707,-8.98044 -0.03139,0 -0.07312,-0.0614 -0.09272,-0.13632 -0.0341,-0.13039 -0.06757,-0.1353 -0.769577,-0.11303 -0.801531,0.0255 -1.033615,0.10983 -1.150954,0.41845 -0.038,0.1 -0.06172,3.18687 -0.06172,8.03155 0,7.55897 0.0047,7.87527 0.119567,8.02328 0.06576,0.0847 0.132026,0.19297 0.147255,0.2405 0.03724,0.11624 1.682146,1.49512 1.784466,1.49587 0.06423,4.7e-4 0.08076,-1.83826 0.08076,-8.97986 z m 18.13879,-0.0216 c 0.01011,-5.53363 -0.0067,-8.95891 -0.0441,-8.95891 -0.03326,0 -0.07894,-0.0582 -0.101493,-0.12921 -0.0371,-0.1169 -0.09758,-0.12918 -0.634277,-0.12885 -0.716922,4.4e-4 -1.028823,0.0785 -1.204098,0.30131 -0.131503,0.16718 -0.132154,0.20703 -0.132154,8.10021 v 7.93222 l 0.176826,0.27008 c 0.197321,0.30139 1.742586,1.63217 1.85263,1.59549 0.05009,-0.0167 0.07499,-2.59782 0.08667,-8.98234 z m -37.575902,8.2655 0.862448,-0.65257 0.0164,-8.23631 c 0.01459,-7.32949 0.0053,-8.25954 -0.08379,-8.44743 l -0.10019,-0.21113 -0.594589,0.005 c -0.796589,0.006 -1.079573,0.0954 -1.224412,0.38382 -0.105889,0.2109 -0.112969,0.77591 -0.113063,9.02344 l -1e-4,8.79846 0.187425,-0.005 c 0.132781,-0.004 0.43887,-0.19559 1.049872,-0.6579 z M 38.33872,257.93785 c 0.05426,-0.13864 0.07724,-1.12358 0.08076,-3.45973 0.0037,-2.44841 0.02432,-3.28532 0.08244,-3.34344 0.110898,-0.11089 4.127357,-0.11089 4.238255,0 0.0581,0.0581 0.07914,0.90395 0.08397,3.37575 0.0035,1.81401 0.02534,3.36428 0.04845,3.44505 l 0.04202,0.14683 2.891187,0.0147 c 2.168127,0.011 2.891187,-0.005 2.891187,-0.0607 0,-0.0414 0.03635,-0.0875 0.08076,-0.10228 0.06374,-0.0212 0.08076,-1.15503 0.08076,-5.38043 v -5.35351 l -1.744403,-1.06956 -1.744404,-1.06956 -6.521214,-0.017 c -4.060132,-0.0106 -6.544397,0.006 -6.58264,0.0443 -0.03883,0.0388 0.0666,0.2223 0.286589,0.49875 l 0.348013,0.43732 0.03419,5.91446 c 0.0188,3.25296 0.05663,5.97261 0.08406,6.04368 0.04873,0.12625 0.10957,0.12922 2.647028,0.12922 h 2.597154 z m 18.629025,-3.41546 c 5.16e-4,-1.78151 0.02432,-3.27586 0.05283,-3.32078 0.04041,-0.0636 0.513872,-0.0779 2.147212,-0.0646 l 2.095368,0.017 0.03942,3.29498 c 0.02168,1.81225 0.0656,3.37554 0.09759,3.47398 l 0.05817,0.17899 2.954424,0.0149 2.954423,0.0149 0.07914,-0.19383 c 0.0595,-0.14572 0.08468,-1.47512 0.101475,-5.35661 l 0.02233,-5.16279 -1.1849,-1.1849 -1.1849,-1.1849 h -5.879776 -5.879776 l -0.296601,0.30689 c -0.16313,0.16878 -0.679392,0.74117 -1.147249,1.27197 l -0.850648,0.96508 0.01904,5.07572 c 0.01578,4.20551 0.03461,5.10607 0.109861,5.2527 l 0.09081,0.17698 2.719614,0.0169 2.719613,0.0169 0.08076,-0.18509 c 0.06103,-0.13986 0.081,-0.97653 0.08175,-3.42419 z m 28.690095,-1.87737 0.01445,-5.22116 -1.192482,-1.1876 -1.192482,-1.18761 h -5.847283 c -4.580484,0 -5.869331,0.0175 -5.949045,0.0808 -0.05597,0.0444 -0.571141,0.613 -1.14483,1.26352 l -1.043069,1.18277 0.018,5.15341 c 0.0165,4.72369 0.02705,5.16245 0.12645,5.26184 0.09807,0.098 0.367929,0.10842 2.819667,0.10842 2.51795,0 2.715166,-0.008 2.766587,-0.11307 0.03045,-0.0622 0.06991,-1.62488 0.08767,-3.47266 l 0.0323,-3.35959 h 2.132048 2.132048 l 0.0323,3.36427 c 0.02908,3.02821 0.04307,3.37503 0.140083,3.47198 0.09688,0.0968 0.400636,0.10943 3.004251,0.12455 2.86311,0.0166 2.897347,0.0153 2.972677,-0.11593 0.05648,-0.0984 0.07995,-1.48445 0.09065,-5.35391 z m 21.8737,5.34087 c 0.0304,-0.062 0.0697,-2.831 0.0875,-6.15345 0.0323,-6.03986 0.0323,-6.04086 0.17521,-6.41527 0.10463,-0.27417 0.12193,-0.38249 0.0646,-0.40445 -0.0431,-0.0165 -1.54559,-0.0224 -3.33894,-0.0131 l -3.26065,0.0168 -1.714287,4.30948 c -0.942857,2.37021 -1.748997,4.34419 -1.791425,4.38661 -0.09854,0.0986 0.053,0.43864 -2.018022,-4.5289 l -1.737355,-4.16719 -3.365251,-0.0168 c -2.326112,-0.0116 -3.365251,0.005 -3.365251,0.0514 0,0.0374 0.152635,0.29211 0.339189,0.56589 l 0.339189,0.49779 0.0323,5.90622 c 0.02541,4.64445 0.04956,5.91197 0.113063,5.93312 0.04442,0.0148 0.08076,0.0608 0.08076,0.10228 -10e-7,0.0572 2.331714,0.0714 9.652076,0.0588 9.105114,-0.0156 9.655194,-0.0229 9.707274,-0.12922 z"
       style="fill:#f9f9f9;stroke-width:0.06460753" />
    <path
       inkscape:connector-curvature="0"
       id="path2149"
       d="m 33.379225,289.04484 c -0.02321,-0.0375 -0.02405,-0.14055 -0.0019,-0.22888 0.02217,-0.0884 0.06659,-0.43842 0.09872,-0.77796 0.04178,-0.44169 0.0918,-0.65545 0.175748,-0.75125 0.145025,-0.16549 -0.446625,0.26331 -1.301333,0.94314 -0.353861,0.28145 -0.653511,0.48135 -0.665889,0.44422 -0.01238,-0.0372 0.124509,-0.42274 0.304193,-0.85691 l 0.3267,-0.78939 -0.0013,-20.4232 -0.0013,-20.42319 -0.609781,-0.77529 c -0.33538,-0.42641 -0.611025,-0.81164 -0.612545,-0.85605 -0.0022,-0.0642 1.474832,-0.0808 7.177232,-0.0808 h 7.179997 l 1.92869,1.16753 c 1.060779,0.64214 1.945573,1.19485 1.966209,1.22824 0.02064,0.0334 0.05495,0.32933 0.07626,0.65763 0.02131,0.32831 0.0509,0.56059 0.06575,0.51618 0.01485,-0.0444 0.06171,-0.0808 0.104131,-0.0808 0.119648,0 0.486894,0.36167 0.558507,0.55002 0.04189,0.11017 0.06428,4.86121 0.06428,13.63874 0,11.50987 -0.01334,13.49505 -0.09173,13.64413 -0.155851,0.29643 -0.510153,0.59228 -5.367607,4.48212 -2.593992,2.07726 -5.981042,4.79019 -7.526777,6.02873 -1.545736,1.23853 -2.980798,2.37774 -3.189028,2.53157 -0.376057,0.2778 -0.576512,0.34227 -0.657389,0.2114 z m 0.958605,-3.05285 c 0.71771,-0.57953 4.24134,-3.40363 7.830288,-6.27579 3.588948,-2.87215 6.56177,-5.26736 6.60627,-5.3227 0.06434,-0.08 0.07758,-2.87773 0.06461,-13.66828 l -0.01631,-13.56767 -1.744403,-1.06954 -1.744403,-1.06953 -6.521215,-0.017 c -4.060132,-0.0106 -6.544396,0.006 -6.58264,0.0443 -0.03883,0.0388 0.0666,0.22233 0.286589,0.49878 l 0.348013,0.43735 0.01645,20.5319 c 0.01142,14.25626 0.03713,20.53188 0.08414,20.53188 0.03722,0 0.6549,-0.47416 1.37261,-1.05369 z m 4.091388,-12.8062 c -0.02235,-0.0583 -0.04064,-5.04019 -0.04064,-11.07098 0,-8.44224 0.01784,-10.98291 0.07753,-11.0426 0.110898,-0.11089 4.127357,-0.11089 4.238255,0 0.05959,0.0596 0.07753,2.25536 0.07753,9.49015 0,8.87201 -0.0065,9.42005 -0.113063,9.54206 -0.130563,0.14948 -3.984423,3.10496 -4.113225,3.15438 -0.04716,0.0181 -0.10403,-0.0148 -0.126383,-0.073 z m 3.254343,-2.92443 0.484557,-0.37388 0.01218,-8.71956 c 0.0069,-4.9297 -0.01202,-8.65977 -0.04349,-8.582 -0.05194,0.12835 -0.111627,0.13932 -0.89037,0.16358 -0.902815,0.0281 -1.066148,0.0818 -1.290229,0.42373 -0.107123,0.16346 -0.115903,0.72082 -0.146267,9.28643 -0.01777,5.01188 -0.05733,9.15129 -0.08791,9.19868 -0.0585,0.0906 1.137278,-0.76098 1.961529,-1.39698 z m 65.671909,17.55446 c -2.98992,-2.04922 -4.76727,-3.29822 -4.98928,-3.50617 -0.22945,-0.2149 -0.26645,-0.34411 -0.10783,-0.37655 0.0614,-0.0125 -0.2225,-0.26059 -0.71068,-0.62105 -0.44706,-0.33009 -0.81283,-0.62791 -0.81283,-0.66182 0,-0.0339 0.21804,-0.35465 0.48456,-0.71275 l 0.48455,-0.65109 -0.007,-4.04951 c -0.006,-3.37463 -0.0625,-5.94106 -0.11257,-5.14784 -0.0134,0.21276 -2.386766,6.33304 -2.555976,6.59128 -0.15455,0.23588 -0.3354,0.2041 -0.48282,-0.0848 -0.16591,-0.3252 -0.3249,-0.94666 -0.28861,-1.128 0.016,-0.0799 -0.0692,0.0811 -0.1892,0.35772 -0.12005,0.2766 -0.24906,0.53371 -0.28669,0.57134 -0.0481,0.0481 -0.12628,-0.11991 -0.26376,-0.56753 -0.10743,-0.34977 -0.66084,-2.1623 -1.2298,-4.02784 -0.56897,-1.86555 -1.197077,-3.90068 -1.395818,-4.52253 -0.198732,-0.62185 -0.367988,-1.15249 -0.376119,-1.17921 -0.0082,-0.0267 -0.0073,2.17004 0.0027,4.8817 0.0097,2.71166 -0.0054,5.04216 -0.03399,5.17888 -0.06481,0.31179 -0.206037,0.41167 -0.45133,0.31908 -0.278311,-0.10506 -5.286565,-3.62431 -5.472916,-3.84577 -0.203916,-0.24236 -0.210569,-0.34207 -0.01958,-0.2931 0.140506,0.036 0.139962,0.033 -0.01613,-0.0894 -0.246217,-0.19309 -1.231756,-0.89029 -1.479468,-1.04663 l -0.219624,-0.13861 0.112599,0.17185 c 0.194725,0.29719 0.03825,0.87582 -0.329812,1.21966 -0.154148,0.14401 -3.906472,2.89908 -7.440677,5.46316 -1.326037,0.96206 -1.392629,0.9841 -1.910858,0.63242 -0.470582,-0.31934 -6.954606,-5.53985 -7.082323,-5.70222 -0.164498,-0.20913 -0.117874,-0.25781 0.112671,-0.11764 l 0.17969,0.10925 -0.170698,-0.14895 c -0.273091,-0.2383 -1.034447,-0.85352 -1.309895,-1.05847 -0.234244,-0.17428 -0.24716,-0.17726 -0.173707,-0.0401 0.10543,0.19699 -0.0027,0.5294 -0.254637,0.7811 -0.102729,0.10273 -0.936323,0.73382 -1.852433,1.40243 -7.104094,5.18481 -6.83946,4.99835 -7.0962,4.99986 -0.07296,4.5e-4 -0.26197,-0.0816 -0.419942,-0.18228 -0.288164,-0.18365 -6.721458,-5.30763 -7.054873,-5.61906 -0.22447,-0.20967 -0.243957,-0.37231 -0.0323,-0.26962 0.144886,0.0703 0.144932,0.0702 0.01401,-0.0462 -0.07225,-0.0642 -0.44293,-0.37343 -0.823746,-0.68718 l -0.692393,-0.57046 0.002,-13.06172 0.002,-13.06174 1.266439,-1.4052 1.26644,-1.40522 h 6.113525 6.113515 l 1.340032,1.34117 1.340032,1.34117 v 0.42949 c 0,0.37926 0.01341,0.42599 0.114493,0.39955 0.142319,-0.0373 0.39102,0.21705 0.459397,0.46969 0.03734,0.13809 0.06254,0.0111 0.0976,-0.49226 0.03535,-0.50807 0.07595,-0.71082 0.161507,-0.8076 0.0629,-0.0711 0.630476,-0.70341 1.261368,-1.40521 l 1.147073,-1.276 h 6.112519 6.112518 l 1.34412,1.33858 1.344119,1.33857 0.0091,0.5512 c 0.0045,0.30315 0.02139,0.48578 0.0368,0.40583 0.04296,-0.223 0.163455,-0.1753 0.425616,0.16845 0.157927,0.20709 0.261326,0.42984 0.304007,0.6549 0.04169,0.21977 0.06472,4.50332 0.06472,12.04414 0,10.93233 -0.0073,11.71345 -0.110369,11.86064 l -0.110369,0.15757 0.22343,-0.15623 c 0.122887,-0.0859 0.244794,-0.18671 0.270898,-0.22396 0.0261,-0.0372 0.04795,-6.00104 0.04849,-13.25288 l 9.07e-4,-13.18517 -0.581468,-0.82235 c -0.319806,-0.45229 -0.581467,-0.84969 -0.581467,-0.88312 0,-0.0373 1.568619,-0.0608 4.064145,-0.0608 h 4.064135 l 0.320105,0.75915 c 0.176055,0.41752 0.895572,2.14012 1.598912,3.828 0.70335,1.68787 1.31903,3.11246 1.36817,3.16576 0.0755,0.0819 0.0979,0.083 0.14489,0.007 0.0306,-0.0494 0.39708,-0.95069 0.81451,-2.00284 0.41745,-1.05215 1.1007,-2.77066 1.518356,-3.81891 l 0.75938,-1.90593 3.83466,-0.0168 c 2.10904,-0.009 3.8695,-0.004 3.9121,0.0129 0.0546,0.0209 0.003,0.25285 -0.17767,0.78902 -0.14034,0.41768 -0.2533,0.81892 -0.25103,0.89166 0.004,0.12453 0.007,0.12377 0.0625,-0.0131 0.0503,-0.12517 0.10611,-0.14537 0.40148,-0.14537 0.40199,0 0.63023,0.12975 0.63023,0.35828 0,0.0865 -0.0585,0.37011 -0.12985,0.63041 -0.1289,0.46987 -0.12971,0.61415 -0.11216,19.98061 l 0.0177,19.50732 0.27633,1.09832 c 0.15199,0.60409 0.26787,1.18555 0.25753,1.29215 -0.0159,0.16339 -0.0495,0.19684 -0.21426,0.21299 -0.16261,0.016 -0.49937,-0.18911 -2.00283,-1.21955 z m 0.80924,-0.74044 c 0,-0.0192 -0.13083,-0.55589 -0.29074,-1.19264 l -0.29073,-1.15772 v -19.40585 -19.40585 l 0.15872,-0.46667 c 0.11567,-0.34006 0.13758,-0.47477 0.0808,-0.49653 -0.0429,-0.0164 -1.54526,-0.0223 -3.33861,-0.013 l -3.26065,0.0168 -1.714296,4.30948 c -0.94286,2.37021 -1.749,4.34419 -1.79143,4.38661 -0.0985,0.0985 0.053,0.43864 -2.01802,-4.5289 l -1.737356,-4.16719 -3.365247,-0.0168 c -2.252626,-0.0112 -3.365248,0.005 -3.365248,0.0491 0,0.0362 0.160039,0.30631 0.355644,0.60023 l 0.355653,0.53443 -0.0213,13.33941 c -0.01169,7.33668 -0.03363,13.40827 -0.04876,13.49243 -0.02465,0.1372 0.23951,0.339 2.556824,1.95329 1.42137,0.99014 2.606112,1.80076 2.632759,1.80135 0.02665,6.1e-4 0.04849,-3.31326 0.04849,-7.36416 0,-4.97015 0.02148,-7.36525 0.06598,-7.36525 0.03625,0 0.09368,0.0654 0.127518,0.14536 0.03381,0.0799 1.040438,3.38705 2.23689,7.34911 1.196443,3.96206 2.199583,7.2307 2.229213,7.26367 0.0734,0.0817 0.0454,0.15023 2.286666,-5.58388 1.09031,-2.78942 2.02309,-5.11426 2.07287,-5.16629 0.0777,-0.0811 0.0905,1.01839 0.0905,7.72787 v 7.82247 l -0.35406,0.47728 c -0.19472,0.26252 -0.35463,0.50852 -0.35533,0.54667 -0.002,0.11255 6.39911,4.54129 6.57253,4.54728 0.0444,0.002 0.0808,-0.013 0.0808,-0.0321 z M 63.068657,275.83744 c 2.398552,-1.76918 4.382365,-3.24911 4.408469,-3.28873 0.0261,-0.0396 0.04795,-5.72593 0.04849,-12.63625 l 9.06e-4,-12.56423 -1.181026,-1.18103 -1.181026,-1.18102 h -5.879779 -5.87978 l -0.296593,0.30689 c -0.16313,0.16878 -0.678169,0.73978 -1.144517,1.26888 l -0.847914,0.962 0.01631,12.83171 0.01631,12.83171 3.682632,2.95546 c 2.025443,1.6255 3.726239,2.94552 3.779534,2.93337 0.05329,-0.0121 2.059368,-1.46959 4.45792,-3.23876 z m -3.878074,-5.01358 c -1.082902,-0.92506 -2.034325,-1.75455 -2.114277,-1.84331 l -0.145364,-0.1614 9.06e-4,-8.79917 c 5.17e-4,-4.83955 0.02429,-8.83592 0.05284,-8.88084 0.04042,-0.0636 0.51387,-0.0779 2.147205,-0.0646 l 2.095369,0.017 0.01632,10.65683 c 0.0091,5.86124 -0.0063,10.67944 -0.0339,10.70708 -0.02764,0.0276 -0.936277,-0.70659 -2.01917,-1.63164 z m 1.552196,-8.85882 c 0,-7.2461 -0.01722,-9.29918 -0.07749,-9.23887 -0.05085,0.0508 -0.333991,0.0788 -0.823742,0.0812 -0.878442,0.005 -1.140258,0.078 -1.3416,0.37739 l -0.147603,0.21954 v 7.83704 c 0,7.16818 -0.0091,7.84207 -0.105022,7.89582 -0.08574,0.048 0.01786,0.16571 0.565316,0.64217 1.141209,0.99317 1.765267,1.49963 1.849424,1.50091 0.06426,9.1e-4 0.08076,-1.90446 0.08076,-9.31518 z m 20.373403,13.94205 c 2.375131,-1.75359 4.358427,-3.22834 4.407326,-3.27724 0.07478,-0.0748 0.08991,-2.08522 0.09545,-12.68415 l 0.0063,-12.59524 -1.186999,-1.18214 -1.186999,-1.18214 h -5.847286 c -4.58048,0 -5.869329,0.0175 -5.949045,0.0807 -0.05601,0.0444 -0.57031,0.61207 -1.142976,1.26144 l -1.041218,1.18069 v 12.8225 12.82249 l 0.177668,0.15789 c 0.471035,0.41858 7.228186,5.78325 7.284499,5.78336 0.03553,6e-5 2.007895,-1.43463 4.383035,-3.18822 z m -3.919261,-5.20707 -2.11172,-1.81129 0.0164,-8.89857 0.01641,-8.89857 h 2.132041 2.13205 l 0.01631,10.65682 c 0.0091,5.86125 -0.0073,10.68069 -0.03671,10.70986 -0.02919,0.0292 -1.003322,-0.76203 -2.164771,-1.75825 z m 1.686965,-8.46902 c 0.01024,-4.95405 5.17e-4,-9.13583 -0.02175,-9.29285 -0.02221,-0.15702 -0.05973,-0.25455 -0.0833,-0.21672 -0.02547,0.0409 -0.384557,0.078 -0.88571,0.0917 -0.913265,0.0248 -1.077401,0.0782 -1.304448,0.42472 -0.107061,0.16338 -0.115019,0.65112 -0.13137,8.04996 l -0.0174,7.87603 -0.137271,-0.0359 c -0.0755,-0.0198 -0.111267,-0.014 -0.07949,0.0127 0.03172,0.0267 0.304887,0.26655 0.606927,0.53292 1.106042,0.97544 1.892867,1.61224 1.963129,1.58883 0.05239,-0.0175 0.07713,-2.48124 0.09071,-9.03137 z m -22.469805,15.87445 c 0,-0.0134 -0.05085,-0.0643 -0.113062,-0.11306 -0.102474,-0.0804 -0.104759,-0.078 -0.02438,0.0244 0.08438,0.10762 0.137452,0.14185 0.137452,0.0886 z m -0.323042,-0.25843 c 0,-0.0134 -0.05085,-0.0643 -0.113061,-0.11307 -0.102475,-0.0804 -0.104759,-0.078 -0.02438,0.0244 0.08438,0.10762 0.137452,0.14184 0.137452,0.0886 z m -0.323032,-0.25843 c 0,-0.0134 -0.05085,-0.0643 -0.113071,-0.11307 -0.102465,-0.0804 -0.104749,-0.078 -0.02438,0.0244 0.08438,0.10762 0.137461,0.14184 0.137461,0.0886 z m -0.323042,-0.25843 c 0,-0.0134 -0.05085,-0.0643 -0.113061,-0.11307 -0.102475,-0.0804 -0.104759,-0.078 -0.02438,0.0244 0.08438,0.10762 0.137451,0.14184 0.137451,0.0886 z m 17.573245,-0.45225 c 0,-0.0134 -0.05085,-0.0643 -0.113061,-0.11307 -0.102475,-0.0804 -0.104759,-0.0781 -0.02438,0.0244 0.08438,0.10762 0.137461,0.14184 0.137461,0.0886 z m -0.323032,-0.25844 c 0,-0.0134 -0.05085,-0.0643 -0.113071,-0.11306 -0.102465,-0.0804 -0.104749,-0.078 -0.02438,0.0244 0.08438,0.10762 0.137461,0.14185 0.137461,0.0886 z m -0.323042,-0.25843 c 0,-0.0134 -0.05085,-0.0643 -0.113061,-0.11306 -0.102475,-0.0804 -0.104759,-0.0781 -0.02438,0.0244 0.08438,0.10762 0.137452,0.14184 0.137452,0.0886 z m -0.323032,-0.25843 c 0,-0.0134 -0.05085,-0.0643 -0.113071,-0.11306 -0.102465,-0.0804 -0.104749,-0.078 -0.02438,0.0244 0.08438,0.10761 0.137461,0.14184 0.137461,0.0886 z"
       style="fill:#b3b3b3;stroke-width:0.06460753" />
    <path
       inkscape:connector-curvature="0"
       id="path2147"
       d="m 31.685627,288.74694 c 0,-0.0393 0.145367,-0.42275 0.323038,-0.85204 l 0.323037,-0.78055 -0.0013,-20.4232 -0.0013,-20.42319 -0.609781,-0.77529 c -0.33538,-0.42641 -0.611026,-0.81164 -0.612546,-0.85605 -0.0022,-0.0642 1.475516,-0.0804 7.184823,-0.0791 l 7.187588,0.002 1.937362,1.17746 1.937362,1.17748 0.0456,0.25842 c 0.02508,0.14214 0.04727,6.38021 0.04932,13.86238 l 0.0037,13.60395 -0.177671,0.16419 c -0.283945,0.26242 -15.164921,12.16951 -16.6197,13.29835 -0.902316,0.70016 -0.969699,0.74502 -0.969699,0.6456 z m 2.668435,-2.66841 c 0.71771,-0.57953 4.24134,-3.40363 7.830288,-6.27579 3.588948,-2.87215 6.56177,-5.26736 6.60627,-5.3227 0.06434,-0.08 0.07758,-2.87773 0.06461,-13.66828 l -0.01631,-13.56767 -1.744403,-1.06954 -1.744403,-1.06953 -6.521215,-0.017 c -4.060132,-0.0106 -6.544396,0.006 -6.58264,0.0443 -0.03883,0.0388 0.0666,0.22233 0.286589,0.49878 l 0.348013,0.43735 0.01645,20.5319 c 0.01142,14.25626 0.03713,20.53188 0.08414,20.53188 0.03722,0 0.6549,-0.47416 1.37261,-1.05369 z m 4.091388,-12.8062 c -0.02235,-0.0583 -0.04064,-5.04019 -0.04064,-11.07098 0,-8.44224 0.01784,-10.98291 0.07753,-11.0426 0.110898,-0.11089 4.127357,-0.11089 4.238255,0 0.05959,0.0596 0.07753,2.25536 0.07753,9.49015 0,8.87201 -0.0065,9.42005 -0.113063,9.54206 -0.130563,0.14948 -3.984423,3.10496 -4.113225,3.15438 -0.04716,0.0181 -0.10403,-0.0148 -0.126383,-0.073 z m 1.679397,-1.76275 c 0.493112,-0.35423 1.158228,-0.84417 1.478036,-1.08874 l 0.581467,-0.44469 0.01563,-8.5268 c 0.0086,-4.68975 -0.006,-8.80301 -0.0323,-9.14059 l -0.04793,-0.61377 H 40.601467 39.08319 l -0.01635,10.26343 c -0.01384,8.6901 -0.0027,10.25821 0.07255,10.22932 0.04889,-0.0188 0.492351,-0.32393 0.985464,-0.67816 z m 66.855633,15.68104 c -4.06676,-2.78278 -6.22941,-4.32959 -6.22941,-4.45551 0,-0.033 0.22246,-0.35819 0.49433,-0.72263 l 0.49434,-0.66263 -0.0414,-6.09933 c -0.0228,-3.35464 -0.0562,-6.11419 -0.0744,-6.13234 -0.0181,-0.0181 -0.0492,-0.0168 -0.069,0.003 -0.0199,0.0198 -0.72805,1.8054 -1.573875,3.96798 -1.795805,4.59149 -2.065271,5.25828 -2.172681,5.37623 -0.06453,0.0709 -0.116835,-0.0335 -0.275169,-0.54917 -0.107526,-0.35016 -0.606794,-1.98857 -1.109486,-3.64091 -0.502691,-1.65233 -1.186177,-3.86192 -1.518855,-4.91017 -0.332677,-1.04826 -0.698019,-2.21119 -0.811873,-2.5843 -0.24154,-0.79156 -0.253405,-0.81704 -0.326656,-0.70143 -0.03055,0.0482 -0.05599,2.72917 -0.05653,5.9577 -7.88e-4,4.67068 -0.0175,5.86371 -0.08179,5.83904 -0.100474,-0.0385 -4.988604,-3.45438 -5.475449,-3.82625 -0.195438,-0.14928 -0.566124,-0.41102 -0.823746,-0.58165 -0.257623,-0.17062 -0.468405,-0.33305 -0.468405,-0.36095 0,-0.0279 0.09449,-0.11672 0.209975,-0.19738 0.115486,-0.0807 0.231334,-0.17714 0.25744,-0.21438 0.0261,-0.0373 0.04791,-6.00104 0.04846,-13.25288 l 9.97e-4,-13.18518 -0.581468,-0.82234 c -0.319808,-0.45229 -0.581467,-0.84969 -0.581467,-0.88312 0,-0.0373 1.568618,-0.0608 4.064141,-0.0608 h 4.06414 l 0.320102,0.75915 c 0.176057,0.41752 0.895571,2.14012 1.598914,3.82799 0.703349,1.68788 1.319027,3.11246 1.368167,3.16577 0.07552,0.0819 0.09795,0.083 0.14489,0.007 0.03055,-0.0494 0.397084,-0.95069 0.814519,-2.00284 0.417443,-1.05215 1.100693,-2.77066 1.518355,-3.81891 l 0.75937,-1.90593 3.83465,-0.0168 c 2.10905,-0.009 3.86951,-0.004 3.91211,0.0129 0.0546,0.0209 0.003,0.25284 -0.17767,0.78902 l -0.25513,0.75941 v 19.28838 19.28837 l 0.45003,1.90464 c 0.24752,1.04755 0.42675,1.92791 0.39831,1.95636 -0.0285,0.0285 -0.95065,-0.5634 -2.04933,-1.31521 z m 1.20046,-0.0287 c 0,-0.0192 -0.13084,-0.55589 -0.29074,-1.19263 l -0.29073,-1.15773 v -19.40584 -19.40586 l 0.15872,-0.46667 c 0.11567,-0.34006 0.13757,-0.47476 0.0807,-0.49653 -0.0429,-0.0164 -1.54525,-0.0223 -3.33861,-0.0131 l -3.26065,0.0168 -1.714285,4.30948 c -0.942857,2.37021 -1.748997,4.34419 -1.791425,4.38662 -0.09854,0.0985 0.053,0.43863 -2.018022,-4.52891 l -1.737354,-4.16719 -3.365252,-0.0168 c -2.252628,-0.0112 -3.365251,0.005 -3.365251,0.0491 0,0.0362 0.160042,0.3063 0.355648,0.60023 l 0.355649,0.53442 -0.02129,13.33941 c -0.01171,7.33668 -0.03365,13.40828 -0.04876,13.49243 -0.02463,0.1372 0.239518,0.33901 2.55683,1.95329 1.421365,0.99014 2.606106,1.80076 2.632756,1.80136 0.02665,6.1e-4 0.04846,-3.31327 0.04846,-7.36416 0,-4.97016 0.02146,-7.36526 0.06599,-7.36526 0.0363,0 0.09368,0.0654 0.127518,0.14536 0.03383,0.0799 1.040438,3.38705 2.236889,7.34911 1.196447,3.96206 2.199588,7.23071 2.229212,7.26367 0.07343,0.0818 0.04538,0.15023 2.286667,-5.58387 1.09031,-2.78943 2.02309,-5.11427 2.07287,-5.1663 0.0777,-0.0811 0.0906,1.01839 0.0906,7.72787 v 7.82247 l -0.35406,0.47729 c -0.19473,0.26251 -0.35463,0.50851 -0.35534,0.54666 -0.002,0.11255 6.39912,4.54129 6.57254,4.54728 0.0444,0.002 0.0808,-0.013 0.0808,-0.0321 z m -52.530063,-9.60129 c -1.614525,-1.28609 -3.407943,-2.72884 -3.985372,-3.20612 l -1.049873,-0.86776 0.002,-13.06022 0.002,-13.06022 1.26644,-1.40521 1.26644,-1.40521 h 6.113522 6.113522 l 1.356181,1.35732 1.356181,1.35733 0.01869,12.74326 c 0.01028,7.0088 0.0036,12.80403 -0.01478,12.87829 -0.02162,0.0872 -1.693239,1.34574 -4.719728,3.55341 -2.57744,1.88013 -4.709545,3.42629 -4.73801,3.43594 -0.02847,0.01 -1.372731,-1.03473 -2.987257,-2.32081 z m 7.434008,-1.63662 c 2.398555,-1.76918 4.382368,-3.24911 4.408474,-3.28873 0.0261,-0.0396 0.04791,-5.72593 0.04846,-12.63625 l 9.97e-4,-12.56423 -1.181025,-1.18103 -1.181025,-1.18102 h -5.879783 -5.879776 l -0.2966,0.30689 c -0.163131,0.16878 -0.678162,0.73978 -1.144514,1.26888 l -0.847914,0.962 0.01631,12.83171 0.01631,12.83171 3.682628,2.95546 c 2.025446,1.6255 3.72624,2.94552 3.779541,2.93337 0.0533,-0.0121 2.059364,-1.46959 4.457919,-3.23876 z m -3.87807,-5.01358 c -1.082901,-0.92506 -2.034326,-1.75455 -2.114278,-1.84331 l -0.145367,-0.1614 9.97e-4,-8.79917 c 5.18e-4,-4.83955 0.02432,-8.83592 0.05283,-8.88084 0.04041,-0.0636 0.513872,-0.0779 2.147211,-0.0646 l 2.095369,0.017 0.01634,10.65683 c 0.009,5.86124 -0.0063,10.67944 -0.03392,10.70708 -0.02764,0.0276 -0.936277,-0.70659 -2.019177,-1.63164 z m 1.545358,-8.76514 c -0.0037,-5.0725 -0.02557,-9.48439 -0.04846,-9.8042 l -0.04161,-0.58146 -1.51371,-0.0174 c -1.167887,-0.0134 -1.525599,9.1e-4 -1.565744,0.0646 -0.02861,0.0451 -0.05248,3.86521 -0.05302,8.48916 l -9.97e-4,8.40719 0.560006,0.50865 c 0.94275,0.8563 2.503812,2.15614 2.589432,2.15614 0.0645,0 0.07955,-1.87307 0.0741,-9.22272 z m 12.915516,15.31605 c -1.680815,-1.33953 -3.303151,-2.64217 -3.605191,-2.89476 -0.30204,-0.25259 -0.730873,-0.5976 -0.952961,-0.76667 l -0.403797,-0.3074 4.52e-4,-12.64315 c 2.58e-4,-6.95373 0.01879,-12.83722 0.0412,-13.07441 l 0.04074,-0.43127 1.254722,-1.3939 1.254721,-1.39389 h 6.114285 6.114284 l 1.34412,1.33858 1.344119,1.33857 v 12.89249 12.89249 l -4.598359,3.35834 c -2.529098,1.84708 -4.664497,3.39482 -4.745332,3.43941 -0.137885,0.0761 -0.335928,-0.0695 -3.202999,-2.35443 z m 7.464722,-1.46768 c 2.375134,-1.75359 4.358433,-3.22834 4.407329,-3.27724 0.07481,-0.0748 0.08994,-2.08522 0.09545,-12.68415 l 0.0065,-12.59524 -1.186998,-1.18214 -1.186997,-1.18214 h -5.847284 c -4.580484,0 -5.869331,0.0175 -5.949045,0.0807 -0.05597,0.0444 -0.570309,0.61207 -1.14298,1.26144 l -1.04122,1.18069 v 12.8225 12.82249 l 0.177672,0.15789 c 0.471036,0.41858 7.228183,5.78325 7.284498,5.78336 0.03553,6e-5 2.007899,-1.43463 4.383034,-3.18822 z m -3.919255,-5.20707 -2.111727,-1.81129 0.01638,-8.89857 0.01638,-8.89857 h 2.132048 2.132048 l 0.01634,10.65682 c 0.009,5.86125 -0.0075,10.68069 -0.0367,10.70986 -0.02918,0.0292 -1.003322,-0.76203 -2.164772,-1.75825 z m 1.684145,-8.3398 c 0.0087,-4.88299 -0.0058,-9.28518 -0.0323,-9.78265 l -0.04818,-0.90451 h -1.550577 -1.550581 l -0.0164,8.45274 c -0.009,4.649 0.0055,8.48859 0.0323,8.53242 0.05395,0.0883 1.295614,1.18476 2.334856,2.06187 0.369036,0.31145 0.70338,0.55549 0.742986,0.54229 0.05238,-0.0175 0.07634,-2.44478 0.08789,-8.90216 z"
       style="fill:#1e1911;stroke-width:0.06460753" />
  </g>
</svg>
