<?xml version="1.0" encoding="UTF-8" standalone="no"?>
<svg
   xmlns:dc="http://purl.org/dc/elements/1.1/"
   xmlns:cc="http://creativecommons.org/ns#"
   xmlns:rdf="http://www.w3.org/1999/02/22-rdf-syntax-ns#"
   xmlns:svg="http://www.w3.org/2000/svg"
   xmlns="http://www.w3.org/2000/svg"
   xmlns:sodipodi="http://sodipodi.sourceforge.net/DTD/sodipodi-0.dtd"
   xmlns:inkscape="http://www.inkscape.org/namespaces/inkscape"
   width="298.3898"
   height="171.55435"
   viewBox="0 0 78.948964 45.390423"
   version="1.1"
   id="svg8"
   sodipodi:docname="doom.svg"
   inkscape:version="0.92.5 (2060ec1f9f, 2020-04-08)">
  <defs
     id="defs2" />
  <sodipodi:namedview
     id="base"
     pagecolor="#ffffff"
     bordercolor="#666666"
     borderopacity="1.0"
     inkscape:pageopacity="0.0"
     inkscape:pageshadow="2"
     inkscape:zoom="1.7080666"
     inkscape:cx="306.06323"
     inkscape:cy="85.876126"
     inkscape:document-units="mm"
     inkscape:current-layer="layer1"
     showgrid="false"
     units="px"
     inkscape:pagecheckerboard="true"
     inkscape:window-width="1366"
     inkscape:window-height="743"
     inkscape:window-x="0"
     inkscape:window-y="0"
     inkscape:window-maximized="1"
     inkscape:document-rotation="0" />
  <metadata
     id="metadata5">
    <rdf:RDF>
      <cc:Work
         rdf:about="">
        <dc:format>image/svg+xml</dc:format>
        <dc:type
           rdf:resource="http://purl.org/dc/dcmitype/StillImage" />
        <dc:title />
      </cc:Work>
    </rdf:RDF>
  </metadata>
  <g
     inkscape:label="Layer 1"
     inkscape:groupmode="layer"
     id="layer1"
     transform="translate(-30.991025,-244.40466)">
    <path
       inkscape:connector-curvature="0"
       id="path2153"
       d="m 40.259718,289.75716 c -0.0634,-0.0634 -0.03529,-0.30806 0.07071,-0.61541 0.05781,-0.16762 0.119421,-0.44072 0.136914,-0.60688 l 0.03181,-0.30211 -0.149815,0.0776 c -0.0824,0.0427 -0.370399,0.25404 -0.640004,0.46961 -0.454833,0.36369 -0.619187,0.45643 -0.619187,0.34941 0,-0.0236 0.139317,-0.38172 0.309594,-0.79578 l 0.309593,-0.75285 -6.94e-4,-16.24478 -6.93e-4,-16.24476 -0.515296,-0.65777 c -0.283413,-0.36177 -0.515297,-0.69265 -0.515297,-0.73528 0,-0.0685 0.676355,-0.0775 5.817786,-0.0768 l 5.817786,7.2e-4 1.496371,0.90596 c 0.823003,0.49828 1.534218,0.94017 1.580477,0.98197 0.05144,0.0465 0.09349,0.18917 0.10827,0.36737 0.01963,0.23671 0.04742,0.30613 0.148089,0.37 0.06816,0.0432 0.22166,0.17407 0.341114,0.29072 0.24824,0.24243 0.271053,0.22381 0.276628,-0.22581 0.002,-0.16087 0.01941,-0.3321 0.0387,-0.38052 0.0193,-0.0484 0.485295,-0.58828 1.035569,-1.19968 l 1.000494,-1.11163 h 4.934974 4.934973 l 1.094893,1.09923 c 0.735524,0.73842 1.094894,1.13511 1.094894,1.20861 0,0.0601 0.06148,0.18246 0.136621,0.27176 0.153436,0.18235 0.222406,0.14216 0.223782,-0.13038 6.59e-4,-0.13057 0.172552,-0.34663 1.036543,-1.30287 l 1.035754,-1.14635 h 4.938414 4.938414 l 1.094893,1.09923 c 0.876808,0.88027 1.094893,1.12661 1.094893,1.23678 0,0.0975 0.101542,0.24966 0.348294,0.52207 l 0.348293,0.3845 0.03488,-0.21521 c 0.01918,-0.11837 0.0366,-0.51718 0.0387,-0.88624 l 0.0038,-0.67102 -0.49019,-0.69342 c -0.269605,-0.38137 -0.490189,-0.72393 -0.490189,-0.76122 0,-0.0554 0.607811,-0.0654 3.335819,-0.0546 l 3.335821,0.0133 1.272853,3.0412 c 0.700075,1.67266 1.294515,3.04824 1.320995,3.05685 0.0265,0.009 0.55592,-1.26705 1.17654,-2.8348 0.62063,-1.56775 1.17079,-2.94913 1.22259,-3.06974 l 0.0941,-0.21931 h 3.17624 c 3.607699,0 3.258939,-0.0529 3.077819,0.46618 -0.18372,0.52649 -0.18432,0.52492 0.22213,0.59201 0.56002,0.0924 0.66481,0.31934 0.43097,0.9332 l -0.11609,0.30476 -0.0151,15.42811 c -0.011,11.23004 5.6e-4,15.51234 0.0426,15.73769 0.0318,0.17028 0.14892,0.69509 0.26027,1.16625 0.20864,0.88289 0.24813,1.26997 0.14052,1.37757 -0.0788,0.0788 -0.32419,0.0798 -0.47036,0.002 -0.38864,-0.20724 -5.596329,-3.84288 -5.775689,-4.03217 -0.1035,-0.10924 -0.14189,-0.20269 -0.14189,-0.34535 0,-0.21932 -0.0946,-0.32226 -0.66106,-0.71963 -0.17563,-0.1232 -0.31933,-0.25186 -0.31933,-0.28591 0,-0.0341 0.17415,-0.29828 0.387,-0.58717 l 0.38698,-0.52523 -0.005,-3.08179 c -0.003,-1.69499 -0.0204,-3.13644 -0.0392,-3.20322 -0.026,-0.0926 -0.24866,0.42872 -0.93653,2.19243 -0.57319,1.46963 -0.95102,2.36866 -1.03556,2.46408 -0.2522,0.28462 -0.51333,0.0684 -0.67031,-0.55503 -0.0674,-0.26785 -0.12599,-0.29923 -0.21086,-0.11298 -0.0801,0.17585 -0.19109,0.20509 -0.25171,0.0663 -0.0276,-0.0633 -0.399598,-1.26444 -0.826559,-2.66923 -1.034048,-3.40221 -1.170868,-3.83453 -1.30335,-4.11839 l -0.11282,-0.24172 -0.0258,3.56784 c -0.02471,3.41637 -0.02997,3.57245 -0.124095,3.67642 -0.105268,0.1163 -0.334361,0.14301 -0.493938,0.0577 -0.198164,-0.10606 -4.470203,-3.10989 -4.590944,-3.22807 -0.08552,-0.0837 -0.135645,-0.20281 -0.154796,-0.36782 -0.0247,-0.21288 -0.05683,-0.26576 -0.251629,-0.41414 -0.122818,-0.0936 -0.253694,-0.17011 -0.290835,-0.17011 -0.04083,0 -0.0818,0.0952 -0.103621,0.24068 -0.02878,0.19191 -0.08485,0.2906 -0.276752,0.4871 -0.19791,0.20264 -5.627966,4.20576 -6.758296,4.9823 -0.373449,0.25657 -0.643227,0.29329 -0.919033,0.12511 -0.206899,-0.12615 -5.504857,-4.34569 -5.75421,-4.58291 -0.103361,-0.0983 -0.229508,-0.2752 -0.280326,-0.39304 -0.100301,-0.23259 -0.317845,-0.4989 -0.405678,-0.49663 -0.03016,7.2e-4 -0.112894,0.0824 -0.183843,0.18144 -0.07094,0.099 -0.291534,0.30476 -0.49019,0.45722 -0.589774,0.4526 -6.326825,4.62888 -6.576073,4.78704 -0.29531,0.1874 -0.586698,0.19476 -0.84231,0.0213 -0.10072,-0.0684 -1.447113,-1.13372 -2.991984,-2.36749 -2.672411,-2.13424 -3.031169,-2.45207 -3.031169,-2.68533 0,-0.16735 -0.628952,-0.7568 -0.807526,-0.7568 -0.05558,0 -0.06966,0.16718 -0.06966,0.82724 0,0.94789 -0.02756,1.05056 -0.3682,1.37149 -0.123853,0.11669 -2.512313,2.0425 -5.307688,4.27957 -2.795376,2.23709 -5.607372,4.49095 -6.248882,5.0086 -0.641509,0.51764 -1.301312,1.03569 -1.466226,1.15121 -0.275328,0.19287 -0.521395,0.26377 -0.609528,0.17564 z m 6.095811,-14.92284 c 0.161624,-0.10996 0.508643,-0.36611 0.771153,-0.56922 l 0.477291,-0.36928 -0.003,-6.48695 c -0.0017,-3.56781 -0.01939,-6.57982 -0.03946,-6.69334 l -0.03648,-0.20639 -0.463632,-0.014 c -0.62244,-0.0188 -0.898995,0.0625 -1.01824,0.29926 -0.08457,0.16796 -0.09022,0.61914 -0.0903,7.20953 -5.2e-5,4.89635 0.01644,7.03036 0.05435,7.03036 0.02994,0 0.186669,-0.09 0.348294,-0.19993 z m 16.052042,-6.86913 c -0.002,-3.78866 -0.01911,-7.00456 -0.03791,-7.14646 l -0.03418,-0.25799 H 61.7397 c -0.653665,0 -0.831688,0.0605 -0.928692,0.31565 -0.05557,0.14615 -0.07075,12.59714 -0.01553,12.74103 0.01857,0.0483 0.371112,0.37565 0.78343,0.72727 0.531983,0.45365 0.761681,0.62037 0.791034,0.57412 0.02275,-0.0359 0.03969,-3.16496 0.03763,-6.95362 z m 14.427481,-7.31416 c -0.02656,-0.11001 -0.05297,-0.11607 -0.504326,-0.1158 -0.575016,3.6e-4 -0.824021,0.0625 -0.964151,0.24064 -0.105031,0.13353 -0.105546,0.1652 -0.105546,6.48873 v 6.35456 l 0.245095,0.23478 c 0.134803,0.12912 0.488901,0.44004 0.786885,0.6909 l 0.54179,0.45614 0.01414,-7.11692 c 0.0077,-3.91431 0.0015,-7.16917 -0.01388,-7.23303 z"
       style="fill:#666666;stroke-width:0.05159897" />
    <path
       inkscape:connector-curvature="0"
       id="path2151"
       d="m 40.262523,289.73037 c -0.0634,-0.0634 -0.03528,-0.30807 0.07071,-0.61541 0.05781,-0.16763 0.118791,-0.4347 0.135514,-0.59348 l 0.0304,-0.28872 -0.151387,0.0222 c -0.08561,0.0126 -0.351111,0.1795 -0.611065,0.38422 -0.252822,0.19911 -0.467581,0.33831 -0.47724,0.30933 -0.0097,-0.029 0.09985,-0.33639 0.243355,-0.68315 l 0.260919,-0.63044 -10e-4,-16.31105 -10e-4,-16.31104 -0.487003,-0.61919 c -0.267852,-0.34055 -0.487997,-0.64822 -0.489211,-0.68368 -0.0018,-0.0513 1.178424,-0.0642 5.738179,-0.0632 l 5.740387,0.002 1.547969,0.94038 c 1.396372,0.8483 1.550734,0.95555 1.576195,1.09519 0.04885,0.2679 0.189758,0.5127 0.348681,0.60578 0.08432,0.0494 0.22375,0.17003 0.309836,0.26807 l 0.156519,0.17827 0.06643,-0.16487 c 0.03653,-0.0907 0.07899,-0.28504 0.09436,-0.43193 0.02743,-0.26231 0.04572,-0.28686 1.027698,-1.38028 l 0.999766,-1.11321 h 4.885097 4.885097 l 1.119699,1.12715 c 0.615834,0.61992 1.119699,1.15219 1.119699,1.18282 0,0.0306 0.06032,0.12736 0.134043,0.21498 l 0.134042,0.15929 0.09815,-0.12478 c 0.05399,-0.0686 0.09815,-0.16807 0.09815,-0.22098 0,-0.0529 0.454134,-0.60072 1.009188,-1.21734 l 1.009187,-1.12114 h 4.880173 4.880172 l 1.115202,1.09649 c 0.727381,0.71516 1.126183,1.14479 1.146778,1.23541 0.01736,0.0764 0.179904,0.30025 0.361193,0.49743 0.258634,0.28128 0.333168,0.33748 0.346106,0.26096 0.0091,-0.0537 0.03809,-0.0975 0.0645,-0.0975 0.02759,0 0.04801,-0.34739 0.04801,-0.81686 v -0.81687 l -0.464391,-0.65676 c -0.255415,-0.36122 -0.464391,-0.67861 -0.464391,-0.70531 0,-0.0298 1.252782,-0.0486 3.245838,-0.0486 h 3.245838 l 0.25565,0.60629 c 0.140608,0.33346 0.71525,1.70922 1.276977,3.05724 0.561732,1.34802 1.053449,2.48577 1.092689,2.52835 0.0603,0.0654 0.0782,0.0663 0.11572,0.006 0.0244,-0.0394 0.31713,-0.75927 0.65052,-1.59957 0.33339,-0.84031 0.87907,-2.21281 1.21263,-3.05 l 0.60647,-1.52216 3.06256,-0.0134 c 1.6844,-0.007 3.090579,-0.003 3.124829,0.0104 0.0454,0.0173 0.0293,0.12072 -0.06,0.38336 -0.0673,0.19775 -0.10687,0.37494 -0.0881,0.39377 0.0189,0.0188 0.0343,0.06 0.0343,0.0915 0,0.0316 0.16017,0.0835 0.35592,0.11556 0.55998,0.0916 0.66488,0.31868 0.43097,0.93271 l -0.11609,0.30477 -0.0152,15.4281 c -0.011,11.23004 5.6e-4,15.51234 0.0426,15.73769 0.0318,0.17028 0.14892,0.69509 0.26027,1.16625 0.20864,0.88289 0.24812,1.26997 0.14052,1.37758 -0.0788,0.0788 -0.32419,0.0798 -0.47036,0.002 -0.38864,-0.20724 -5.596339,-3.84288 -5.775699,-4.03217 -0.0948,-0.10005 -0.14189,-0.20526 -0.14189,-0.31697 0,-0.27245 -0.13861,-0.4726 -0.51869,-0.74905 -0.19718,-0.14341 -0.3585,-0.28356 -0.3585,-0.31145 0,-0.0279 0.17414,-0.2847 0.387,-0.57069 l 0.38699,-0.52001 v -3.00337 c 0,-2.4698 -0.0127,-3.02146 -0.0712,-3.10515 -0.0391,-0.056 -0.0798,-0.14568 -0.0903,-0.19932 -0.0105,-0.0537 -0.42544,0.94455 -0.92208,2.21822 -0.57372,1.47135 -0.95152,2.37056 -1.03609,2.466 -0.2522,0.28463 -0.51333,0.0684 -0.67032,-0.55503 -0.0611,-0.24275 -0.11285,-0.29099 -0.18729,-0.17463 -0.0227,0.0355 -0.0809,0.0676 -0.12945,0.0713 -0.0681,0.005 -0.12284,-0.10607 -0.24079,-0.49019 -0.08393,-0.27336 -0.527755,-1.72765 -0.986263,-3.23176 -0.458514,-1.50411 -0.873968,-2.78118 -0.923239,-2.83794 -0.04927,-0.0568 -0.123039,-0.17286 -0.16393,-0.258 -0.06576,-0.13692 -0.07733,0.25734 -0.100144,3.41305 -0.0247,3.41638 -0.02997,3.57245 -0.124096,3.67643 -0.105268,0.11629 -0.334361,0.143 -0.493938,0.0576 -0.266153,-0.14245 -4.484537,-3.12276 -4.606364,-3.25442 -0.103825,-0.11222 -0.141897,-0.20683 -0.141897,-0.35262 0,-0.11418 -0.03306,-0.2267 -0.0774,-0.2635 -0.04257,-0.0353 -0.0774,-0.0949 -0.0774,-0.13228 0,-0.0907 -0.0843,-0.13786 -0.285862,-0.16008 -0.162476,-0.0179 -0.167547,-0.0123 -0.202819,0.22287 -0.02888,0.19257 -0.08474,0.29098 -0.276837,0.48767 -0.197909,0.20264 -5.627966,4.20575 -6.758296,4.98231 -0.373449,0.25656 -0.643227,0.29329 -0.919033,0.12511 -0.206898,-0.12617 -5.504857,-4.3457 -5.75421,-4.58291 -0.103361,-0.0983 -0.229508,-0.2752 -0.280326,-0.39305 -0.100301,-0.23259 -0.317845,-0.4989 -0.405678,-0.49663 -0.03016,7.3e-4 -0.112894,0.0824 -0.183843,0.18144 -0.07094,0.099 -0.291534,0.30476 -0.49019,0.45721 -0.589774,0.45261 -6.326825,4.6289 -6.576073,4.78705 -0.29531,0.18739 -0.586697,0.19476 -0.84231,0.0213 -0.10072,-0.0684 -1.447113,-1.13372 -2.991984,-2.3675 -2.625014,-2.09638 -3.031169,-2.45399 -3.031169,-2.66888 0,-0.0783 -0.321449,-0.57282 -0.431957,-0.66453 -0.04243,-0.0352 -0.159971,-0.0743 -0.26119,-0.0869 l -0.184035,-0.0228 v 0.82773 c 0,0.94842 -0.02754,1.05101 -0.3682,1.37197 -0.123854,0.11669 -2.512314,2.0425 -5.307689,4.27958 -2.795375,2.23708 -5.607372,4.49095 -6.248882,5.00859 -0.64151,0.51765 -1.301311,1.03569 -1.466226,1.15121 -0.275327,0.19288 -0.521395,0.26378 -0.609528,0.17565 z m 22.204764,-21.84358 c 0,-4.11579 -0.01942,-7.17225 -0.04558,-7.17225 -0.02507,0 -0.0584,-0.049 -0.07405,-0.10887 -0.02723,-0.10414 -0.05396,-0.10806 -0.614625,-0.0903 -0.640145,0.0204 -0.8255,0.0877 -0.919213,0.33419 -0.03035,0.0799 -0.04929,2.54521 -0.04929,6.41442 0,6.037 0.0038,6.28961 0.09549,6.40782 0.05252,0.0676 0.105443,0.15411 0.117606,0.19207 0.02974,0.0928 1.34345,1.19409 1.425169,1.19469 0.0513,3.7e-4 0.0645,-1.46814 0.0645,-7.1718 z m 14.486596,-0.0173 c 0.0081,-4.41945 -0.0054,-7.15506 -0.03522,-7.15506 -0.02656,0 -0.06305,-0.0465 -0.08106,-0.10319 -0.02963,-0.0934 -0.07793,-0.10317 -0.506567,-0.10291 -0.572572,3.6e-4 -0.821672,0.0627 -0.961656,0.24065 -0.105025,0.13352 -0.105545,0.16534 -0.105545,6.46925 v 6.33509 l 0.141222,0.2157 c 0.157591,0.24071 1.391721,1.30354 1.479608,1.27425 0.04,-0.0133 0.05989,-2.07476 0.06922,-7.17378 z m -30.010101,6.60127 0.688797,-0.52118 0.0131,-6.57795 c 0.01165,-5.85372 0.0042,-6.59651 -0.06692,-6.74656 l -0.08002,-0.16862 -0.47487,0.004 c -0.636198,0.005 -0.862204,0.0762 -0.97788,0.30654 -0.08457,0.16843 -0.09022,0.61968 -0.0903,7.20659 l -8e-5,7.02692 0.149688,-0.004 c 0.106046,-0.003 0.350504,-0.15621 0.838483,-0.52544 z m -2.398169,-10.1186 c 0.04333,-0.11072 0.06169,-0.89735 0.0645,-2.76312 0.003,-1.95543 0.01942,-2.62383 0.06584,-2.67025 0.08857,-0.0886 3.296326,-0.0886 3.384895,0 0.0464,0.0464 0.0632,0.72194 0.06706,2.69605 0.0028,1.44877 0.02024,2.6869 0.03869,2.7514 l 0.03356,0.11727 2.309054,0.0117 c 1.731581,0.009 2.309055,-0.004 2.309055,-0.0485 0,-0.0331 0.02903,-0.0699 0.0645,-0.0817 0.05091,-0.0169 0.0645,-0.92247 0.0645,-4.2971 v -4.2756 l -1.393172,-0.8542 -1.393173,-0.85421 -5.208186,-0.0136 c -3.242636,-0.008 -5.226702,0.005 -5.257245,0.0354 -0.03101,0.031 0.05319,0.17754 0.228886,0.39833 l 0.277941,0.34927 0.02731,4.7236 c 0.01501,2.59798 0.04523,4.77004 0.06714,4.8268 0.03892,0.10083 0.08751,0.1032 2.114056,0.1032 h 2.074225 z m 14.878124,-2.72776 c 4.12e-4,-1.42281 0.01942,-2.61628 0.04219,-2.65215 0.03227,-0.0508 0.410405,-0.0622 1.714877,-0.0516 l 1.673471,0.0136 0.03148,2.63154 c 0.01731,1.44736 0.05239,2.69589 0.07794,2.77451 l 0.04646,0.14295 2.35956,0.0119 2.359558,0.0119 0.0632,-0.1548 c 0.04752,-0.11638 0.06763,-1.17811 0.08104,-4.27808 l 0.01783,-4.12327 -0.946324,-0.94633 -0.946324,-0.94632 h -4.6959 -4.6959 l -0.236881,0.2451 c -0.130284,0.1348 -0.542598,0.59194 -0.916254,1.01586 l -0.679372,0.77077 0.01521,4.05373 c 0.0126,3.35875 0.02764,4.07798 0.08774,4.19509 l 0.07253,0.14134 2.172027,0.0135 2.172027,0.0135 0.0645,-0.14783 c 0.04874,-0.11169 0.06469,-0.7799 0.06529,-2.73473 z m 22.913426,-1.49937 0.01154,-4.1699 -0.95238,-0.94848 -0.952379,-0.94848 h -4.669949 c -3.658217,0 -4.687558,0.014 -4.751222,0.0645 -0.0447,0.0355 -0.456143,0.48957 -0.914321,1.00911 l -0.83305,0.94462 0.01438,4.11579 c 0.01318,3.77259 0.0216,4.12301 0.10099,4.20238 0.07832,0.0783 0.293848,0.0866 2.251935,0.0866 2.010968,0 2.168475,-0.006 2.209543,-0.0903 0.02432,-0.0497 0.05583,-1.29772 0.07002,-2.77345 l 0.0258,-2.68315 h 1.702766 1.702766 l 0.0258,2.68689 c 0.02322,2.41849 0.0344,2.69547 0.111878,2.7729 0.07737,0.0773 0.319969,0.0874 2.399353,0.0995 2.286631,0.0133 2.313975,0.0122 2.374137,-0.0926 0.04511,-0.0786 0.06385,-1.18556 0.0724,-4.27592 z m 17.469488,4.2655 c 0.0243,-0.0495 0.0557,-2.26099 0.0699,-4.91447 0.0258,-4.82375 0.0258,-4.82455 0.139929,-5.12357 0.0836,-0.21897 0.0974,-0.30548 0.0516,-0.32302 -0.0344,-0.0132 -1.234389,-0.0179 -2.666649,-0.0105 l -2.60413,0.0134 -1.36912,3.44177 c -0.75301,1.89298 -1.39684,3.4695 -1.43073,3.50338 -0.0787,0.0788 0.0423,0.35032 -1.611695,-3.61702 l -1.387544,-3.32813 -2.687667,-0.0134 c -1.857756,-0.009 -2.687667,0.004 -2.687667,0.0411 0,0.0299 0.121902,0.23329 0.270894,0.45195 l 0.270894,0.39756 0.0258,4.71702 c 0.02029,3.7093 0.03958,4.72161 0.0903,4.7385 0.03548,0.0118 0.0645,0.0486 0.0645,0.0817 -10e-7,0.0457 1.86223,0.057 7.708665,0.047 7.27182,-0.0125 7.71115,-0.0183 7.75274,-0.1032 z"
       style="fill:#f9f9f9;stroke-width:0.05159897" />
    <path
       inkscape:connector-curvature="0"
       id="path2149"
       d="m 40.584698,289.1959 c -0.01854,-0.0299 -0.01921,-0.11225 -0.0015,-0.1828 0.01771,-0.0706 0.05318,-0.35014 0.07884,-0.62132 0.03337,-0.35275 0.07332,-0.52347 0.140361,-0.59998 0.115825,-0.13217 -0.356698,0.21029 -1.039313,0.75324 -0.282612,0.22478 -0.521928,0.38443 -0.531814,0.35477 -0.0099,-0.0297 0.09944,-0.33762 0.242944,-0.68437 l 0.26092,-0.63045 -10e-4,-16.31104 -10e-4,-16.31104 -0.487003,-0.61919 c -0.267853,-0.34055 -0.487997,-0.64822 -0.489211,-0.68369 -0.0018,-0.0513 1.177879,-0.0645 5.732117,-0.0645 h 5.734325 l 1.540353,0.93245 c 0.847195,0.51285 1.553838,0.95427 1.570319,0.98094 0.01648,0.0267 0.04389,0.26302 0.0609,0.52522 0.01702,0.2622 0.04065,0.44771 0.05251,0.41225 0.01186,-0.0355 0.04928,-0.0645 0.08316,-0.0645 0.09556,0 0.388859,0.28884 0.446053,0.43927 0.03346,0.088 0.05134,3.88242 0.05134,10.89262 0,9.19239 -0.01065,10.77786 -0.07326,10.89692 -0.124471,0.23675 -0.407435,0.47303 -4.286854,3.57966 -2.0717,1.65901 -4.776777,3.8257 -6.011282,4.81486 -1.234507,0.98916 -2.380623,1.89899 -2.546927,2.02185 -0.300339,0.22186 -0.460433,0.27335 -0.525025,0.16883 z m 0.765593,-2.43817 c 0.573201,-0.46284 3.387358,-2.71832 6.253682,-5.01218 2.866323,-2.29385 5.240576,-4.20679 5.276116,-4.25099 0.05138,-0.0639 0.06196,-2.2983 0.0516,-10.91621 l -0.01303,-10.83585 -1.393173,-0.8542 -1.393172,-0.85418 -5.208187,-0.0136 c -3.242636,-0.008 -5.2267,0.005 -5.257244,0.0354 -0.03101,0.031 0.05319,0.17757 0.228885,0.39836 l 0.277942,0.34929 0.01314,16.39786 c 0.0091,11.3858 0.02965,16.39784 0.0672,16.39784 0.02973,0 0.523038,-0.37869 1.096239,-0.84153 z m 3.267598,-10.22771 c -0.01785,-0.0466 -0.03246,-4.02536 -0.03246,-8.84187 0,-6.74242 0.01425,-8.77153 0.06192,-8.8192 0.08857,-0.0886 3.296325,-0.0886 3.384894,0 0.04759,0.0476 0.06192,1.80125 0.06192,7.57934 0,7.08565 -0.0052,7.52335 -0.0903,7.62079 -0.104275,0.11938 -3.182171,2.47978 -3.285039,2.51925 -0.03767,0.0145 -0.08308,-0.0118 -0.100936,-0.0583 z m 2.599091,-2.3356 0.386993,-0.2986 0.0097,-6.9639 c 0.0055,-3.93712 -0.0096,-6.91615 -0.03473,-6.85404 -0.04148,0.10251 -0.08915,0.11127 -0.711097,0.13064 -0.721036,0.0224 -0.851482,0.0653 -1.030445,0.33842 -0.08555,0.13054 -0.09257,0.57568 -0.116816,7.41663 -0.01419,4.00275 -0.04579,7.3087 -0.07021,7.34655 -0.04672,0.0724 0.90829,-0.60776 1.566581,-1.1157 z m 52.449061,14.01992 c -2.38791,-1.63662 -3.8074,-2.63413 -3.98471,-2.80021 -0.18325,-0.17163 -0.2128,-0.27483 -0.0861,-0.30074 0.049,-0.01 -0.1777,-0.20812 -0.56758,-0.496 -0.35705,-0.26363 -0.64917,-0.50148 -0.64917,-0.52856 0,-0.0271 0.17414,-0.28325 0.38699,-0.56924 l 0.38699,-0.52 -0.006,-3.23415 c -0.005,-2.69516 -0.0499,-4.74485 -0.0899,-4.11134 -0.0107,0.16992 -1.9062,5.0579 -2.04134,5.26415 -0.12343,0.18838 -0.26787,0.163 -0.38561,-0.0677 -0.1325,-0.25972 -0.25948,-0.75605 -0.2305,-0.90088 0.0128,-0.0638 -0.0553,0.0648 -0.1511,0.28569 -0.0959,0.22091 -0.19891,0.42625 -0.22897,0.45631 -0.0384,0.0384 -0.10085,-0.0958 -0.21065,-0.45326 -0.0858,-0.27935 -0.527781,-1.72693 -0.982182,-3.21685 -0.45441,-1.48993 -0.956049,-3.11529 -1.114775,-3.61193 -0.158717,-0.49664 -0.293894,-0.92044 -0.300388,-0.94178 -0.0065,-0.0213 -0.0058,1.73311 0.0022,3.89878 0.0077,2.16568 -0.0043,4.02694 -0.02715,4.13613 -0.05176,0.24901 -0.164552,0.32878 -0.360456,0.25483 -0.222274,-0.0839 -4.22213,-2.89456 -4.37096,-3.07143 -0.162858,-0.19356 -0.168171,-0.2732 -0.01564,-0.23409 0.112215,0.0288 0.111781,0.0264 -0.01288,-0.0714 -0.196642,-0.15421 -0.983745,-0.71103 -1.181581,-0.83589 l -0.175403,-0.1107 0.08993,0.13725 c 0.155518,0.23735 0.03055,0.69947 -0.263405,0.97408 -0.123111,0.11502 -3.119915,2.31536 -5.942518,4.36317 -1.059043,0.76835 -1.112227,0.78596 -1.526112,0.50509 -0.375832,-0.25505 -5.554316,-4.42442 -5.656318,-4.5541 -0.131377,-0.16702 -0.09414,-0.2059 0.08998,-0.094 l 0.14351,0.0873 -0.136328,-0.11896 c -0.218105,-0.19032 -0.826164,-0.68167 -1.046152,-0.84535 -0.187079,-0.13919 -0.197395,-0.14157 -0.138731,-0.032 0.0842,0.15733 -0.0022,0.42281 -0.203367,0.62383 -0.08205,0.0821 -0.747797,0.58607 -1.479451,1.12006 -5.673705,4.14086 -5.462354,3.99194 -5.6674,3.99315 -0.05827,3.6e-4 -0.209223,-0.0652 -0.335388,-0.14558 -0.230143,-0.14667 -5.368112,-4.23895 -5.634394,-4.48768 -0.179274,-0.16745 -0.194837,-0.29734 -0.0258,-0.21533 0.115714,0.0562 0.115751,0.0561 0.01119,-0.0369 -0.0577,-0.0513 -0.353747,-0.29824 -0.657887,-0.54882 l -0.552981,-0.4556 0.0016,-10.43178 0.0016,-10.43179 1.011445,-1.12227 1.011446,-1.12228 h 4.882584 4.882577 l 1.07022,1.07113 1.07022,1.07113 v 0.34301 c 0,0.3029 0.01071,0.34022 0.09144,0.3191 0.113664,-0.0298 0.31229,0.17335 0.366899,0.37512 0.02982,0.11029 0.04995,0.009 0.07795,-0.39314 0.02823,-0.40577 0.06066,-0.5677 0.128988,-0.64499 0.05024,-0.0568 0.503531,-0.56179 1.007395,-1.12228 l 0.916113,-1.01908 h 4.881781 4.88178 l 1.073485,1.06906 1.073484,1.06905 0.0073,0.44022 c 0.0036,0.24211 0.01708,0.38797 0.02939,0.32412 0.03431,-0.1781 0.130543,-0.14001 0.339919,0.13453 0.126129,0.16539 0.208709,0.34329 0.242796,0.52304 0.0333,0.17552 0.05169,3.59659 0.05169,9.61908 0,8.73114 -0.0058,9.35499 -0.08815,9.47254 l -0.08815,0.12584 0.178443,-0.12477 c 0.09814,-0.0686 0.195505,-0.14912 0.216353,-0.17887 0.02085,-0.0297 0.0383,-4.79275 0.03873,-10.58445 l 7.24e-4,-10.53037 -0.464391,-0.65677 c -0.255414,-0.36123 -0.46439,-0.67861 -0.46439,-0.70531 0,-0.0298 1.252782,-0.0486 3.245841,-0.0486 h 3.245833 l 0.255653,0.6063 c 0.140607,0.33345 0.715251,1.70921 1.276975,3.05724 0.561733,1.34802 1.053444,2.48578 1.092694,2.52835 0.0603,0.0654 0.0782,0.0663 0.11572,0.006 0.0244,-0.0395 0.31712,-0.75927 0.65051,-1.59958 0.33339,-0.8403 0.87907,-2.21279 1.21264,-3.04998 l 0.60648,-1.52218 3.06256,-0.0134 c 1.68439,-0.007 3.090389,-0.003 3.124409,0.0103 0.0436,0.0167 0.002,0.20194 -0.1419,0.63015 -0.11208,0.33358 -0.2023,0.65403 -0.20048,0.71213 0.003,0.0994 0.006,0.0988 0.0499,-0.0105 0.0402,-0.1 0.0847,-0.1161 0.32064,-0.1161 0.32106,0 0.50334,0.10362 0.50334,0.28614 0,0.0691 -0.0467,0.29559 -0.10371,0.50348 -0.10294,0.37526 -0.10359,0.49049 -0.0896,15.95757 l 0.0141,15.57957 0.2207,0.87718 c 0.12138,0.48246 0.21393,0.94684 0.20567,1.03198 -0.0127,0.13049 -0.0395,0.15721 -0.17112,0.1701 -0.12987,0.0128 -0.39882,-0.15103 -1.599559,-0.97399 z m 0.646299,-0.59136 c 0,-0.0153 -0.10449,-0.44396 -0.2322,-0.9525 l -0.232189,-0.92462 v -15.49853 -15.49854 l 0.12676,-0.37271 c 0.0924,-0.27159 0.109879,-0.37918 0.0645,-0.39655 -0.0343,-0.0131 -1.234129,-0.0178 -2.666389,-0.0104 l -2.60413,0.0134 -1.36913,3.44178 c -0.75301,1.89297 -1.39684,3.4695 -1.43073,3.50338 -0.0787,0.0787 0.0423,0.35032 -1.611695,-3.61702 l -1.387544,-3.32814 -2.687664,-0.0134 c -1.799066,-0.009 -2.687665,0.004 -2.687665,0.0392 0,0.0289 0.127816,0.24463 0.284036,0.47937 l 0.284043,0.42683 -0.01701,10.65355 c -0.0093,5.85946 -0.02686,10.70856 -0.03894,10.77577 -0.01969,0.10958 0.191285,0.27074 2.042015,1.56 1.135181,0.79078 2.081378,1.43818 2.10266,1.43866 0.02128,4.8e-4 0.03873,-2.64615 0.03873,-5.88141 0,-3.96943 0.01716,-5.88228 0.05269,-5.88228 0.02895,0 0.07482,0.0522 0.101842,0.11609 0.027,0.0638 0.830949,2.70508 1.786499,5.86939 0.955543,3.16431 1.756703,5.77482 1.780363,5.80115 0.0586,0.0652 0.0363,0.11998 1.82626,-4.45958 0.87077,-2.22778 1.61574,-4.08452 1.6555,-4.12607 0.062,-0.0648 0.0723,0.81334 0.0723,6.17188 v 6.24744 l -0.28277,0.38118 c -0.15552,0.20966 -0.28323,0.40613 -0.28379,0.4366 -0.002,0.0899 5.110669,3.62692 5.249169,3.6317 0.0355,0.002 0.0645,-0.0104 0.0645,-0.0256 z m -36.016092,-8.97521 c 1.91561,-1.41296 3.499988,-2.59491 3.520836,-2.62655 0.02084,-0.0316 0.03829,-4.57303 0.03873,-10.09198 l 7.23e-4,-10.03446 -0.94323,-0.94323 -0.943229,-0.94323 h -4.695903 -4.695903 l -0.236874,0.2451 c -0.130285,0.1348 -0.541622,0.59083 -0.914072,1.0134 l -0.677189,0.7683 0.01303,10.24808 0.01303,10.24809 2.941144,2.36038 c 1.617626,1.29821 2.975972,2.35245 3.018536,2.34275 0.04256,-0.01 1.64472,-1.1737 3.560331,-2.58665 z m -3.097235,-4.00411 c -0.864863,-0.7388 -1.62472,-1.40127 -1.688574,-1.47216 l -0.116095,-0.12891 7.24e-4,-7.02748 c 4.13e-4,-3.86512 0.0194,-7.05683 0.0422,-7.09271 0.03228,-0.0508 0.410404,-0.0622 1.714872,-0.0516 l 1.673472,0.0136 0.01303,8.51111 c 0.0073,4.68109 -0.005,8.52916 -0.02707,8.55124 -0.02208,0.022 -0.74776,-0.56432 -1.612616,-1.30312 z m 1.239666,-7.07512 c 0,-5.78712 -0.01375,-7.42682 -0.06189,-7.37865 -0.04061,0.0406 -0.266743,0.0629 -0.657884,0.0649 -0.70157,0.004 -0.91067,0.0623 -1.071473,0.3014 l -0.117883,0.17534 v 6.25907 c 0,5.72489 -0.0073,6.2631 -0.08388,6.30602 -0.06848,0.0383 0.01426,0.13235 0.451491,0.51287 0.91143,0.7932 1.409835,1.19769 1.477048,1.19871 0.05132,7.3e-4 0.0645,-1.521 0.0645,-7.43959 z m 16.271276,11.13486 c 1.896905,-1.40051 3.48087,-2.57833 3.519923,-2.61738 0.05972,-0.0597 0.07181,-1.66537 0.07623,-10.13023 l 0.005,-10.05923 -0.948,-0.94412 -0.948,-0.94412 h -4.669952 c -3.658213,0 -4.687556,0.014 -4.751221,0.0645 -0.04473,0.0355 -0.45548,0.48883 -0.912841,1.00745 l -0.831572,0.94296 v 10.24073 10.24071 l 0.141895,0.1261 c 0.376193,0.3343 5.772811,4.61881 5.817786,4.6189 0.02838,5e-5 1.603611,-1.14577 3.500523,-2.54628 z m -3.130129,-4.15864 -1.686531,-1.4466 0.0131,-7.10686 0.01311,-7.10687 h 1.70276 1.702768 l 0.01303,8.5111 c 0.0073,4.6811 -0.0058,8.53016 -0.02932,8.55346 -0.02331,0.0233 -0.801306,-0.6086 -1.728901,-1.40423 z m 1.347299,-6.76381 c 0.0082,-3.95657 4.13e-4,-7.29636 -0.01737,-7.42176 -0.01774,-0.12541 -0.0477,-0.2033 -0.06653,-0.17309 -0.02034,0.0327 -0.307128,0.0623 -0.707375,0.0732 -0.729382,0.0198 -0.860469,0.0625 -1.041801,0.3392 -0.0855,0.13049 -0.09186,0.52002 -0.104919,6.42913 l -0.0139,6.29021 -0.109631,-0.0287 c -0.0603,-0.0158 -0.08886,-0.0112 -0.06349,0.0101 0.02533,0.0213 0.243498,0.21288 0.484724,0.42562 0.883343,0.77904 1.511743,1.28762 1.567858,1.26892 0.04184,-0.014 0.0616,-1.98164 0.07245,-7.21292 z m -17.945573,12.67817 c 0,-0.0107 -0.04061,-0.0513 -0.0903,-0.0903 -0.08184,-0.0642 -0.08367,-0.0623 -0.01947,0.0195 0.06739,0.0859 0.109777,0.11328 0.109777,0.0708 z m -0.257999,-0.20639 c 0,-0.0107 -0.04061,-0.0514 -0.0903,-0.0903 -0.08184,-0.0642 -0.08367,-0.0623 -0.01947,0.0195 0.06739,0.0859 0.109776,0.11328 0.109776,0.0708 z m -0.25799,-0.2064 c 0,-0.0107 -0.04061,-0.0514 -0.09031,-0.0903 -0.08183,-0.0642 -0.08366,-0.0623 -0.01947,0.0195 0.06739,0.0859 0.109784,0.11328 0.109784,0.0708 z m -0.257999,-0.20639 c 0,-0.0107 -0.04061,-0.0514 -0.0903,-0.0903 -0.08184,-0.0642 -0.08367,-0.0623 -0.01947,0.0195 0.06739,0.086 0.109775,0.11328 0.109775,0.0708 z m 14.034923,-0.36119 c 0,-0.0107 -0.04061,-0.0514 -0.0903,-0.0903 -0.08184,-0.0642 -0.08367,-0.0624 -0.01947,0.0195 0.06739,0.0859 0.109784,0.11328 0.109784,0.0708 z m -0.257991,-0.20641 c 0,-0.0107 -0.04061,-0.0514 -0.0903,-0.0903 -0.08183,-0.0642 -0.08366,-0.0623 -0.01947,0.0195 0.06739,0.086 0.109784,0.11329 0.109784,0.0708 z m -0.257998,-0.20639 c 0,-0.0107 -0.04061,-0.0514 -0.0903,-0.0903 -0.08184,-0.0642 -0.08367,-0.0624 -0.01947,0.0195 0.06739,0.086 0.109776,0.11328 0.109776,0.0708 z m -0.257991,-0.2064 c 0,-0.0107 -0.04061,-0.0514 -0.0903,-0.0903 -0.08183,-0.0642 -0.08366,-0.0623 -0.01947,0.0195 0.06739,0.0859 0.109783,0.11328 0.109783,0.0708 z"
       style="fill:#b3b3b3;stroke-width:0.05159897" />
    <path
       inkscape:connector-curvature="0"
       id="path2147"
       d="m 39.232101,288.95798 c 0,-0.0314 0.116098,-0.33763 0.257995,-0.68048 l 0.257995,-0.62339 -0.001,-16.31105 -10e-4,-16.31104 -0.487003,-0.61919 c -0.267852,-0.34055 -0.487998,-0.64821 -0.489212,-0.68368 -0.0018,-0.0513 1.178426,-0.0642 5.73818,-0.0632 l 5.740387,0.002 1.54728,0.94038 1.54728,0.9404 0.03642,0.20639 c 0.02003,0.11352 0.03775,5.09557 0.03939,11.07123 l 0.003,10.86483 -0.141897,0.13113 c -0.226774,0.20958 -12.111508,9.71922 -13.273371,10.62077 -0.720637,0.55918 -0.774453,0.59501 -0.774453,0.51561 z m 2.131153,-2.13113 c 0.573202,-0.46285 3.387359,-2.71832 6.253682,-5.01218 2.866324,-2.29385 5.240577,-4.20679 5.276117,-4.25099 0.05139,-0.0639 0.06196,-2.29831 0.0516,-10.91621 l -0.01303,-10.83586 -1.393173,-0.85419 -1.393172,-0.85418 -5.208187,-0.0136 c -3.242636,-0.008 -5.226701,0.005 -5.257244,0.0354 -0.03101,0.031 0.05319,0.17756 0.228885,0.39835 l 0.277941,0.34929 0.01314,16.39786 c 0.0091,11.38581 0.02965,16.39785 0.0672,16.39785 0.02973,0 0.523038,-0.37869 1.096239,-0.84153 z m 3.267599,-10.22771 c -0.01785,-0.0466 -0.03246,-4.02536 -0.03246,-8.84187 0,-6.74242 0.01425,-8.77153 0.06192,-8.8192 0.08857,-0.0886 3.296326,-0.0886 3.384895,0 0.04759,0.0476 0.06192,1.80125 0.06192,7.57933 0,7.08566 -0.0052,7.52335 -0.0903,7.62079 -0.104274,0.11939 -3.18217,2.47979 -3.285038,2.51926 -0.03766,0.0145 -0.08308,-0.0118 -0.100937,-0.0583 z m 1.341255,-1.40783 c 0.393826,-0.2829 0.925022,-0.6742 1.180438,-0.86952 l 0.46439,-0.35515 0.01248,-6.80996 c 0.0069,-3.74548 -0.0048,-7.03055 -0.0258,-7.30016 l -0.03828,-0.49019 h -1.212581 -1.212576 l -0.01306,8.19692 c -0.01105,6.94038 -0.0022,8.19275 0.05794,8.16968 0.03905,-0.015 0.393218,-0.25871 0.787044,-0.54162 z m 53.394443,12.52371 c -3.24793,-2.22247 -4.97514,-3.45784 -4.97514,-3.5584 0,-0.0264 0.17767,-0.28607 0.3948,-0.57714 l 0.39481,-0.52921 -0.0331,-4.87124 c -0.0182,-2.6792 -0.0449,-4.88312 -0.0594,-4.89761 -0.0144,-0.0145 -0.0393,-0.0134 -0.0551,0.002 -0.0159,0.0158 -0.58146,1.44189 -1.25698,3.16904 -1.43423,3.66701 -1.64944,4.19954 -1.73522,4.29374 -0.0515,0.0566 -0.0933,-0.0268 -0.21977,-0.43859 -0.08587,-0.27966 -0.484614,-1.58818 -0.88609,-2.90783 -0.401476,-1.31964 -0.947344,-3.08433 -1.213038,-3.92152 -0.265693,-0.8372 -0.557475,-1.76597 -0.648405,-2.06396 -0.192906,-0.63218 -0.202382,-0.65253 -0.260884,-0.5602 -0.0244,0.0385 -0.04472,2.17966 -0.04515,4.75814 -6.29e-4,3.73025 -0.01398,4.68307 -0.06532,4.66336 -0.08024,-0.0307 -3.984163,-2.75885 -4.372983,-3.05584 -0.156087,-0.11923 -0.452136,-0.32826 -0.657887,-0.46454 -0.205751,-0.13627 -0.374093,-0.26599 -0.374093,-0.28827 0,-0.0223 0.07546,-0.0932 0.167697,-0.15764 0.09223,-0.0645 0.184756,-0.14147 0.205605,-0.17122 0.02085,-0.0298 0.03826,-4.79274 0.0387,-10.58445 l 7.96e-4,-10.53038 -0.464391,-0.65676 c -0.255415,-0.36122 -0.46439,-0.67861 -0.46439,-0.70531 0,-0.0298 1.252781,-0.0486 3.245838,-0.0486 h 3.245837 l 0.25565,0.6063 c 0.140609,0.33345 0.71525,1.70921 1.276977,3.05724 0.561732,1.34803 1.053451,2.48577 1.092691,2.52835 0.0603,0.0654 0.0782,0.0663 0.11572,0.006 0.0244,-0.0395 0.31713,-0.75927 0.65052,-1.59958 0.33339,-0.8403 0.87907,-2.21279 1.21264,-3.04998 l 0.60647,-1.52218 3.06255,-0.0134 c 1.6844,-0.007 3.090399,-0.003 3.124419,0.0103 0.0436,0.0167 0.002,0.20193 -0.1419,0.63015 l -0.20376,0.60651 v 15.40472 15.40471 l 0.35942,1.52114 c 0.19768,0.83663 0.34083,1.53974 0.31811,1.56246 -0.0228,0.0228 -0.75924,-0.44996 -1.636699,-1.0504 z m 0.958749,-0.0229 c 0,-0.0153 -0.1045,-0.44396 -0.2322,-0.9525 L 99.860911,285.815 V 270.31645 254.8179 l 0.12676,-0.3727 c 0.0924,-0.27159 0.109869,-0.37917 0.0644,-0.39656 -0.0343,-0.0131 -1.234119,-0.0178 -2.666389,-0.0105 l -2.60413,0.0134 -1.36912,3.44177 c -0.75301,1.89298 -1.39684,3.4695 -1.43072,3.50339 -0.0787,0.0787 0.0423,0.35031 -1.611701,-3.61703 l -1.387543,-3.32813 -2.687668,-0.0134 c -1.799068,-0.009 -2.687667,0.004 -2.687667,0.0392 0,0.0289 0.127818,0.24463 0.284039,0.47938 l 0.28404,0.42681 -0.017,10.65356 c -0.0094,5.85946 -0.02688,10.70856 -0.03894,10.77577 -0.01967,0.10957 0.191292,0.27075 2.04202,1.56 1.135177,0.79078 2.081374,1.43818 2.102658,1.43866 0.02128,4.9e-4 0.0387,-2.64615 0.0387,-5.88141 0,-3.96943 0.01714,-5.88228 0.0527,-5.88228 0.02899,0 0.07482,0.0522 0.101842,0.11609 0.02702,0.0638 0.830949,2.70508 1.786498,5.86939 0.955546,3.16431 1.756712,5.77482 1.780362,5.80115 0.0587,0.0653 0.0362,0.11998 1.82626,-4.45958 0.87078,-2.22778 1.61574,-4.08452 1.6555,-4.12608 0.0621,-0.0648 0.0724,0.81334 0.0724,6.17189 v 6.24744 l -0.28277,0.38119 c -0.15552,0.20965 -0.28323,0.40612 -0.28379,0.43659 -0.002,0.0899 5.110669,3.62691 5.249169,3.6317 0.0355,0.002 0.0645,-0.0104 0.0645,-0.0256 z M 58.372017,280.024 c -1.289445,-1.02714 -2.721764,-2.17939 -3.182929,-2.56057 l -0.838484,-0.69304 0.0016,-10.43059 0.0016,-10.43058 1.011446,-1.12227 1.011446,-1.12228 h 4.882582 4.882582 l 1.083118,1.08403 1.083117,1.08404 0.01493,10.17744 c 0.0082,5.59759 0.0029,10.22597 -0.0118,10.28528 -0.01727,0.0696 -1.35231,1.07478 -3.769424,2.83794 -2.05848,1.50157 -3.761292,2.73642 -3.784025,2.74412 -0.02274,0.008 -1.096336,-0.82639 -2.385782,-1.85352 z m 5.937191,-1.30709 c 1.915613,-1.41296 3.499991,-2.59491 3.520841,-2.62655 0.02084,-0.0316 0.03826,-4.57303 0.0387,-10.09198 l 7.97e-4,-10.03446 -0.943229,-0.94323 -0.943229,-0.94323 h -4.695906 -4.6959 l -0.23688,0.2451 c -0.130285,0.1348 -0.541616,0.59083 -0.91407,1.0134 l -0.677189,0.7683 0.01303,10.24808 0.01303,10.24808 2.941141,2.36039 c 1.617628,1.29821 2.975972,2.35245 3.018541,2.34275 0.04257,-0.01 1.644717,-1.1737 3.56033,-2.58665 z m -3.097231,-4.00411 c -0.864862,-0.7388 -1.624721,-1.40128 -1.688575,-1.47216 l -0.116097,-0.12891 7.96e-4,-7.02748 c 4.14e-4,-3.86512 0.01942,-7.05683 0.04219,-7.09271 0.03227,-0.0508 0.410405,-0.0622 1.714876,-0.0516 l 1.673472,0.0136 0.01305,8.5111 c 0.0072,4.6811 -0.005,8.52917 -0.02709,8.55124 -0.02208,0.022 -0.74776,-0.56432 -1.612621,-1.30311 z m 1.234204,-7.0003 c -0.003,-4.05117 -0.02042,-7.57474 -0.0387,-7.83016 l -0.03323,-0.46438 -1.208928,-0.0139 c -0.932737,-0.0107 -1.218424,7.3e-4 -1.250486,0.0516 -0.02285,0.036 -0.04191,3.08696 -0.04234,6.77989 l -7.96e-4,6.71442 0.44725,0.40624 c 0.75293,0.68389 1.999677,1.72201 2.068058,1.72201 0.05151,0 0.06353,-1.49594 0.05918,-7.36576 z m 10.315014,12.2322 c -1.342388,-1.06982 -2.638071,-2.11017 -2.879296,-2.3119 -0.241225,-0.20174 -0.583714,-0.47728 -0.761085,-0.61231 l -0.322494,-0.2455 3.61e-4,-10.09749 c 2.06e-4,-5.55362 0.01501,-10.25248 0.0329,-10.44192 l 0.03254,-0.34443 1.002087,-1.11324 1.002086,-1.11324 h 4.883192 4.88319 l 1.073485,1.06906 1.073485,1.06906 v 10.29662 10.29662 l -3.672493,2.68215 c -2.019871,1.47518 -3.725314,2.71128 -3.789873,2.7469 -0.110122,0.0608 -0.26829,-0.0555 -2.558084,-1.88038 z m 5.961721,-1.17216 c 1.896908,-1.40051 3.480875,-2.57833 3.519926,-2.61738 0.05975,-0.0597 0.07183,-1.66537 0.07623,-10.13023 l 0.0052,-10.05923 -0.947999,-0.94412 -0.947999,-0.94412 h -4.66995 c -3.658217,0 -4.687558,0.014 -4.751222,0.0645 -0.0447,0.0355 -0.455479,0.48883 -0.912844,1.00745 l -0.831573,0.94296 v 10.24073 10.24071 l 0.141898,0.1261 c 0.376194,0.3343 5.772809,4.61881 5.817785,4.6189 0.02838,5e-5 1.603614,-1.14577 3.500523,-2.54628 z m -3.130124,-4.15864 -1.686537,-1.4466 0.01308,-7.10686 0.01308,-7.10687 h 1.702766 1.702767 l 0.01305,8.5111 c 0.0072,4.6811 -0.006,8.53016 -0.02931,8.55346 -0.0233,0.0233 -0.801306,-0.6086 -1.728901,-1.40423 z m 1.345047,-6.66061 c 0.0069,-3.89981 -0.0046,-7.41563 -0.0258,-7.81294 l -0.03848,-0.72239 h -1.238368 -1.238376 l -0.0131,6.7508 c -0.0072,3.71294 0.0044,6.77944 0.0258,6.81445 0.04309,0.0705 1.034745,0.94621 1.864739,1.64671 0.294732,0.24875 0.561757,0.44365 0.593388,0.43311 0.04183,-0.014 0.06097,-1.95253 0.07019,-7.10974 z"
       style="fill:#1e1911;stroke-width:0.05159897" />
  </g>
</svg>
