<?xml version="1.0" encoding="UTF-8" standalone="no"?>
<!-- Created with Inkscape (http://www.inkscape.org/) -->

<svg
   xmlns:dc="http://purl.org/dc/elements/1.1/"
   xmlns:cc="http://creativecommons.org/ns#"
   xmlns:rdf="http://www.w3.org/1999/02/22-rdf-syntax-ns#"
   xmlns:svg="http://www.w3.org/2000/svg"
   xmlns="http://www.w3.org/2000/svg"
   xmlns:sodipodi="http://sodipodi.sourceforge.net/DTD/sodipodi-0.dtd"
   xmlns:inkscape="http://www.inkscape.org/namespaces/inkscape"
   width="500"
   height="200"
   viewBox="0 0 500 200"
   version="1.1"
   id="svg8"
   sodipodi:docname="doom.svg"
   inkscape:version="0.92.5 (2060ec1f9f, 2020-04-08)">
  <defs
     id="defs2" />
  <sodipodi:namedview
     id="base"
     pagecolor="#ffffff"
     bordercolor="#666666"
     borderopacity="1.0"
     inkscape:pageopacity="0.0"
     inkscape:pageshadow="2"
     inkscape:zoom="1.8193668"
     inkscape:cx="125.97541"
     inkscape:cy="91.868047"
     inkscape:document-units="mm"
     inkscape:current-layer="layer1"
     showgrid="false"
     units="px"
     inkscape:pagecheckerboard="true"
     inkscape:window-width="1366"
     inkscape:window-height="743"
     inkscape:window-x="0"
     inkscape:window-y="0"
     inkscape:window-maximized="1" />
  <metadata
     id="metadata5">
    <rdf:RDF>
      <cc:Work
         rdf:about="">
        <dc:format>image/svg+xml</dc:format>
        <dc:type
           rdf:resource="http://purl.org/dc/dcmitype/StillImage" />
        <dc:title />
      </cc:Work>
    </rdf:RDF>
  </metadata>
  <g
     inkscape:label="Layer 1"
     inkscape:groupmode="layer"
     id="layer1"
     transform="translate(-31.055596,-236.77647)">
    <path
       inkscape:connector-curvature="0"
       id="path2151"
       d="m 150.85669,397.60686 c -0.26377,-0.26383 -0.14682,-1.28175 0.29419,-2.56049 0.24052,-0.69741 0.49424,-1.80857 0.56382,-2.46923 l 0.1265,-1.20125 -0.62987,0.0925 c -0.35619,0.0524 -1.46083,0.74686 -2.54239,1.59862 -1.05189,0.82842 -1.94542,1.40755 -1.98561,1.28696 -0.0402,-0.12047 0.41544,-1.3996 1.0125,-2.84227 l 1.08559,-2.62304 -0.004,-67.86369 -0.004,-67.86366 -2.02622,-2.57621 c -1.11443,-1.41689 -2.03036,-2.69695 -2.03541,-2.84453 -0.007,-0.21323 4.90295,-0.26714 23.87425,-0.26292 l 23.88344,0.006 6.44047,3.91256 c 5.80974,3.52941 6.45198,3.97566 6.55791,4.55663 0.20324,1.1146 0.78951,2.13315 1.45072,2.52044 0.35084,0.2054 0.93094,0.7074 1.2891,1.11532 l 0.65122,0.74167 0.27639,-0.68593 c 0.152,-0.37725 0.32868,-1.18594 0.39259,-1.79709 0.11415,-1.09138 0.19019,-1.19354 4.27583,-5.74276 l 4.15963,-4.63162 h 20.32492 20.32492 l 4.65861,4.6896 c 2.56224,2.57925 4.65862,4.79381 4.65862,4.92123 0,0.1274 0.25097,0.5299 0.5577,0.89441 l 0.55769,0.6628 0.40838,-0.51917 c 0.22462,-0.28551 0.40837,-0.6993 0.40837,-0.91943 0,-0.22016 1.88947,-2.49935 4.19883,-5.06487 l 4.19882,-4.66457 h 20.30443 20.30443 l 4.63991,4.56202 c 3.02633,2.97551 4.68559,4.76303 4.77128,5.14004 0.0722,0.31792 0.7485,1.24922 1.50277,2.0696 1.07607,1.17031 1.38618,1.40415 1.44001,1.08574 0.0377,-0.22317 0.15848,-0.4058 0.26835,-0.4058 0.11481,0 0.19974,-1.44535 0.19974,-3.39864 v -3.39863 l -1.93214,-2.73255 c -1.06268,-1.50291 -1.93215,-2.82342 -1.93215,-2.93449 0,-0.12409 5.21232,-0.20209 13.50463,-0.20209 h 13.50462 l 1.06366,2.52254 c 0.58501,1.38737 2.97586,7.11136 5.31298,12.71995 2.33714,5.60858 4.38296,10.3423 4.54625,10.51942 0.25094,0.27227 0.32546,0.27588 0.48145,0.0241 0.10152,-0.16414 1.31946,-3.15902 2.70654,-6.65517 1.38711,-3.49616 3.65746,-9.20657 5.04528,-12.68978 l 2.52329,-6.33315 12.74206,-0.0557 c 7.00812,-0.0307 12.85864,-0.012 13.00113,0.0434 0.18913,0.0723 0.12197,0.50225 -0.24968,1.59501 -0.27979,0.82275 -0.44469,1.55997 -0.36638,1.63831 0.0783,0.0783 0.14245,0.24968 0.14245,0.3809 0,0.13131 0.66636,0.34756 1.4808,0.48083 2.32985,0.38129 2.76631,1.32587 1.79312,3.88061 l -0.48303,1.26801 -0.0629,64.19011 c -0.0458,46.72367 0.002,64.54059 0.17739,65.47819 0.13222,0.70846 0.61958,2.89199 1.08285,4.85232 0.86809,3.67334 1.03238,5.28383 0.58468,5.73153 -0.32789,0.32789 -1.34885,0.33183 -1.95699,0.009 -1.61696,-0.86227 -23.2841,-15.98868 -24.03033,-16.77626 -0.39442,-0.41626 -0.59037,-0.85399 -0.59037,-1.31877 0,-1.13354 -0.57666,-1.96632 -2.15802,-3.11649 -0.82038,-0.59669 -1.49158,-1.1798 -1.49158,-1.29584 0,-0.11596 0.72454,-1.1845 1.61012,-2.37442 l 1.61013,-2.16351 v -12.49584 c 0,-10.27584 -0.0527,-12.57108 -0.29606,-12.9193 -0.16294,-0.23281 -0.33199,-0.60609 -0.37572,-0.82929 -0.0437,-0.22317 -1.77008,3.92991 -3.83641,9.22915 -2.38701,6.1217 -3.95887,9.86292 -4.31076,10.26003 -1.0493,1.18422 -2.13575,0.28461 -2.7889,-2.30925 -0.25431,-1.01 -0.46955,-1.2107 -0.77925,-0.72659 -0.0944,0.14758 -0.33678,0.281 -0.53858,0.29666 -0.28359,0.0211 -0.51109,-0.44129 -1.00184,-2.03948 -0.34922,-1.13731 -2.19577,-7.18802 -4.10344,-13.44603 -1.90769,-6.25798 -3.63623,-11.57138 -3.84122,-11.80753 -0.20498,-0.23612 -0.51192,-0.71918 -0.68205,-1.07343 -0.27359,-0.56964 -0.32172,1.07069 -0.41666,14.2003 -0.10279,14.21421 -0.12469,14.86354 -0.51631,15.29616 -0.43798,0.48384 -1.39114,0.595 -2.05508,0.23973 -1.10735,-0.59265 -18.65835,-12.99251 -19.16522,-13.54032 -0.43198,-0.46689 -0.59038,-0.86053 -0.59038,-1.46713 0,-0.47504 -0.13752,-0.94319 -0.32202,-1.09631 -0.17713,-0.14698 -0.32203,-0.39463 -0.32203,-0.55034 0,-0.3772 -0.35073,-0.5736 -1.18935,-0.66603 -0.676,-0.0744 -0.6971,-0.0512 -0.84385,0.9273 -0.12014,0.80116 -0.35259,1.21061 -1.15181,2.02897 -0.82342,0.84311 -23.4157,17.49845 -28.11854,20.72936 -1.55377,1.06747 -2.67621,1.22025 -3.82373,0.52053 -0.86082,-0.52489 -22.90349,-18.08066 -23.94095,-19.06762 -0.43004,-0.40912 -0.95489,-1.14502 -1.16632,-1.6353 -0.41731,-0.96772 -1.32243,-2.07575 -1.68787,-2.06629 -0.1255,0.003 -0.4697,0.34295 -0.76489,0.7549 -0.29518,0.41195 -1.21296,1.26799 -2.03948,1.90227 -2.45382,1.88311 -26.32337,19.25895 -27.36039,19.917 -1.22867,0.77965 -2.44101,0.81031 -3.50452,0.0885 -0.41905,-0.28431 -6.02085,-4.71695 -12.44843,-9.85018 -10.92163,-8.72221 -12.61148,-10.21009 -12.61148,-11.10416 0,-0.32573 -1.33742,-2.38325 -1.79719,-2.76484 -0.17655,-0.14667 -0.66558,-0.30916 -1.08671,-0.36138 l -0.7657,-0.0949 v 3.44384 c 0,3.94599 -0.11457,4.37285 -1.53193,5.70824 -0.51531,0.4855 -10.45272,8.49802 -22.08315,17.8056 -11.63043,9.30758 -23.33002,18.685 -25.99908,20.83872 -2.66906,2.15372 -5.41423,4.30909 -6.10038,4.78974 -1.14552,0.80246 -2.16931,1.09746 -2.536,0.73078 z m 92.38507,-90.8823 c 0,-17.12419 -0.0808,-29.84088 -0.18965,-29.84088 -0.1043,0 -0.24296,-0.2039 -0.3081,-0.45297 -0.1133,-0.43328 -0.22453,-0.4496 -2.5572,-0.37557 -2.66339,0.0846 -3.43458,0.36493 -3.82448,1.39044 -0.12628,0.33214 -0.2051,10.58957 -0.2051,26.68783 0,25.11748 0.0157,26.1685 0.39731,26.66032 0.2185,0.28161 0.4387,0.64121 0.48931,0.79915 0.12375,0.38626 5.58956,4.9681 5.92955,4.9706 0.21342,0.002 0.26835,-6.1083 0.26835,-29.83892 z m 60.27289,-0.0717 c 0.0336,-18.38757 -0.0223,-29.76932 -0.14655,-29.76932 -0.11054,0 -0.2623,-0.19336 -0.33725,-0.42936 -0.12327,-0.38843 -0.32426,-0.42924 -2.10762,-0.42816 -2.38224,10e-4 -3.41865,0.26082 -4.00107,1.00121 -0.43697,0.55552 -0.43913,0.68795 -0.43913,26.91599 v 26.35774 l 0.58757,0.89745 c 0.65568,1.00147 5.79039,5.4235 6.15605,5.30162 0.16647,-0.0554 0.2492,-8.63225 0.28799,-29.84717 z m -124.85993,27.46519 2.8658,-2.16842 0.0545,-27.36818 c 0.0485,-24.35497 0.0178,-27.44541 -0.27844,-28.06975 l -0.33291,-0.70156 -1.97575,0.0151 c -2.64696,0.0211 -3.58728,0.31687 -4.06856,1.27539 -0.35186,0.70078 -0.37538,2.57823 -0.3757,29.98373 l -3.3e-4,29.23615 0.62279,-0.0181 c 0.44122,-0.0121 1.45831,-0.64991 3.48859,-2.18613 z m -9.97782,-42.0994 c 0.18029,-0.46068 0.25666,-3.73351 0.26835,-11.49623 0.0123,-8.13576 0.0808,-10.91671 0.27395,-11.10983 0.3685,-0.36849 13.71468,-0.36849 14.08318,0 0.19305,0.19306 0.26299,3.0037 0.27901,11.21717 0.0118,6.02773 0.0842,11.17909 0.16101,11.44747 l 0.13963,0.48791 9.60704,0.0488 c 7.20441,0.0367 9.60705,-0.0151 9.60705,-0.20179 0,-0.13764 0.12077,-0.29063 0.26835,-0.33985 0.21178,-0.0705 0.26834,-3.83802 0.26834,-17.87848 v -17.78906 l -5.79642,-3.55401 -5.79643,-3.55401 -21.66917,-0.0566 c -13.4913,-0.0352 -21.74619,0.0211 -21.87327,0.14727 -0.12903,0.12891 0.2213,0.7387 0.95229,1.65729 l 1.15641,1.45315 0.1136,19.65302 c 0.0625,10.80916 0.18818,19.84622 0.27931,20.08237 0.16192,0.41951 0.36409,0.42939 8.79574,0.42939 h 8.63001 z m 61.90188,-11.34914 c 0.002,-5.91972 0.0808,-10.88526 0.17555,-11.03453 0.13427,-0.21142 1.70753,-0.25901 7.13491,-0.21474 l 6.96264,0.0566 0.13098,10.94881 c 0.0721,6.02186 0.21797,11.21647 0.3243,11.54358 l 0.19329,0.59477 9.81717,0.0494 9.81718,0.0494 0.26299,-0.64407 c 0.19772,-0.4842 0.28139,-4.90162 0.33718,-17.79933 l 0.0742,-17.15529 -3.93727,-3.93726 -3.93727,-3.93729 h -19.53774 -19.53774 l -0.98557,1.01975 c -0.54206,0.56086 -2.25753,2.46282 -3.81216,4.2266 l -2.8266,3.20685 0.0633,16.86595 c 0.0524,13.97439 0.11502,16.96682 0.36505,17.45407 l 0.30177,0.58807 9.03693,0.056 9.03692,0.056 0.26835,-0.61503 c 0.20279,-0.46475 0.26916,-3.24488 0.27163,-11.37818 z m 95.33353,-6.23825 0.048,-17.34925 -3.96246,-3.94627 -3.96247,-3.94626 h -19.42977 c -15.22037,0 -19.50304,0.0581 -19.76792,0.26835 -0.18598,0.14757 -1.89783,2.03692 -3.80413,4.19853 l -3.46598,3.93018 0.0598,17.12412 c 0.0548,15.69621 0.0899,17.15418 0.42018,17.48442 0.32587,0.32579 1.22258,0.36027 9.36939,0.36027 8.36683,0 9.02215,-0.0271 9.19302,-0.37572 0.10119,-0.2066 0.23229,-5.39926 0.29133,-11.53918 l 0.10734,-11.16349 h 7.08452 7.08452 l 0.10734,11.17903 c 0.0966,10.06236 0.14312,11.21479 0.46548,11.53696 0.32193,0.32174 1.33126,0.36361 9.98274,0.41384 9.51375,0.0551 9.62752,0.0509 9.87783,-0.3852 0.18767,-0.32687 0.26567,-4.93265 0.30123,-17.79036 z m 72.68353,17.74702 c 0.10089,-0.20601 0.23161,-9.40706 0.29064,-20.44713 0.10721,-20.06967 0.10752,-20.07301 0.5822,-21.31712 0.34768,-0.91103 0.40518,-1.27096 0.21474,-1.34394 -0.14306,-0.0548 -5.13579,-0.0744 -11.09489,-0.0437 l -10.83473,0.0557 -5.69636,14.31986 c -3.13299,7.87591 -5.81169,14.43518 -5.95267,14.57616 -0.32744,0.32744 0.17613,1.45752 -6.70563,-15.04898 l -5.77301,-13.84704 -11.1823,-0.0557 c -7.72938,-0.0385 -11.1823,0.0151 -11.1823,0.17077 0,0.12438 0.50719,0.97063 1.12708,1.88037 l 1.12708,1.65409 0.10734,19.62564 c 0.0844,15.4329 0.16469,19.64471 0.3757,19.715 0.14761,0.0491 0.26835,0.20209 0.26835,0.33985 -1e-5,0.19005 7.74799,0.23733 32.07261,0.19547 30.25516,-0.0518 32.083,-0.0762 32.25606,-0.42939 z"
       style="fill:#ffffff;stroke-width:0.21468258" />
    <path
       d="m 42.529757,435.02581 c 1.582939,0 3.122447,-0.37131 4.618516,-1.11432 1.496069,-0.74293 2.726709,-1.7405 3.691916,-2.99281 v 0 l -2.750841,-2.99282 c -0.714249,0.91271 -1.534676,1.61317 -2.461275,2.10137 -0.9266,0.48816 -1.920762,0.73228 -2.982491,0.73228 -0.945903,0 -1.819412,-0.18566 -2.620535,-0.5572 -0.801123,-0.37131 -1.496069,-0.87554 -2.08485,-1.5123 -0.588776,-0.63676 -1.052073,-1.3956 -1.389896,-2.27645 -0.337831,-0.88088 -0.506731,-1.83072 -0.506731,-2.84955 0,-1.04006 0.164092,-2.00051 0.492256,-2.88135 0.328183,-0.88088 0.781815,-1.64499 1.36094,-2.29236 0.579121,-0.64737 1.269247,-1.15679 2.07037,-1.52825 0.801119,-0.37131 1.655325,-0.55716 2.562621,-0.55716 1.081032,0 2.104153,0.25984 3.06936,0.78002 0.965207,0.52003 1.804937,1.26826 2.519187,2.24462 v 0 l 2.83771,-3.08833 c -0.945904,-1.27353 -2.181368,-2.28702 -3.706396,-3.04056 -1.525028,-0.75349 -3.098315,-1.13022 -4.719861,-1.13022 -1.50572,0 -2.919751,0.29712 -4.242081,0.89145 -1.322334,0.59429 -2.466104,1.40087 -3.431311,2.4197 -0.965206,1.01884 -1.727719,2.23398 -2.28754,3.64549 -0.559821,1.41152 -0.83973,2.92382 -0.83973,4.53695 0,1.61316 0.2751,3.12019 0.825251,4.52106 0.550169,1.40087 1.307857,2.61074 2.273064,3.62958 0.965207,1.0188 2.108973,1.82538 3.431307,2.41971 1.322337,0.59428 2.746016,0.89145 4.27104,0.89145 z m 54.872009,0.0308 c 1.505721,0 2.914924,-0.29713 4.227604,-0.89145 1.31268,-0.59433 2.44679,-1.40622 3.40235,-2.43566 0.95555,-1.02945 1.71325,-2.24989 2.27307,-3.6614 0.55983,-1.41148 0.83972,-2.91321 0.83972,-4.50512 0,-1.59195 -0.27991,-3.09364 -0.83972,-4.50512 -0.55982,-1.41151 -1.31752,-2.63196 -2.27307,-3.6614 -0.95556,-1.02944 -2.08967,-1.84133 -3.40235,-2.43566 -1.31268,-0.59429 -2.721883,-0.89145 -4.227604,-0.89145 -1.486425,0 -2.885976,0.29713 -4.198658,0.89145 -1.312682,0.59433 -2.446792,1.40622 -3.402355,2.43566 -0.955548,1.02944 -1.713232,2.24989 -2.273053,3.6614 -0.559822,1.41148 -0.839734,2.91317 -0.839734,4.50512 0,1.59191 0.279905,3.09364 0.839734,4.50512 0.559821,1.41151 1.317505,2.63195 2.273053,3.6614 0.955563,1.02944 2.089673,1.84133 3.402355,2.43566 1.312682,0.59428 2.712233,0.89145 4.198658,0.89145 z m 0,-4.23452 c -0.907292,0 -1.751854,-0.18565 -2.533662,-0.55715 -0.781823,-0.37131 -1.457466,-0.88085 -2.026947,-1.52822 -0.569469,-0.64741 -1.018289,-1.41682 -1.346461,-2.30827 -0.328183,-0.89153 -0.492262,-1.84667 -0.492262,-2.86547 0,-1.04005 0.164091,-2.0005 0.492262,-2.88135 0.328183,-0.88088 0.776992,-1.64498 1.346461,-2.29239 0.569481,-0.64738 1.245124,-1.15679 2.026947,-1.52822 0.781808,-0.37131 1.62637,-0.5572 2.533662,-0.5572 0.907289,0 1.756671,0.18566 2.548142,0.5572 0.791472,0.37131 1.471942,0.88084 2.041422,1.52822 0.56946,0.64741 1.01828,1.41151 1.34646,2.29239 0.32815,0.88085 0.49225,1.8413 0.49225,2.88135 0,1.0188 -0.16409,1.97394 -0.49225,2.86547 -0.32818,0.89145 -0.777,1.66086 -1.34646,2.30827 -0.56948,0.64737 -1.24995,1.15679 -2.041422,1.52822 -0.791471,0.37131 -1.640853,0.55715 -2.548142,0.55715 z m 63.645734,3.88427 v -4.07526 h -11.09022 v -18.21154 h -4.19866 v 22.2868 z m 52.93192,0 v -4.07526 h -11.09023 v -18.21154 h -4.19863 v 22.2868 z m 53.33733,0 v -4.01157 h -11.49562 v -5.28518 h 7.49968 v -3.88426 h -7.49968 v -5.09414 h 11.3798 v -4.01161 h -15.57842 v 22.2868 z m 46.56151,0.31827 c 1.58295,0 3.12246,-0.37131 4.6185,-1.11436 1.49608,-0.74289 2.72671,-1.7405 3.69193,-2.99281 v 0 l -2.75085,-2.99278 c -0.71422,0.91271 -1.53467,1.61313 -2.46126,2.10133 -0.92662,0.48816 -1.92078,0.73228 -2.98251,0.73228 -0.94588,0 -1.81942,-0.18566 -2.62051,-0.55716 -0.80116,-0.37131 -1.49608,-0.87558 -2.08483,-1.51234 -0.58879,-0.63676 -1.05212,-1.39556 -1.38991,-2.27645 -0.33787,-0.88084 -0.50677,-1.83072 -0.50677,-2.84951 0,-1.04006 0.16413,-2.00051 0.49227,-2.88135 0.32826,-0.88088 0.78183,-1.64499 1.36094,-2.2924 0.57914,-0.64737 1.26926,-1.15679 2.07038,-1.52821 0.80112,-0.37131 1.65533,-0.5572 2.56262,-0.5572 1.08102,0 2.10413,0.26023 3.06934,0.78006 0.96521,0.52003 1.80497,1.26822 2.51922,2.24458 v 0 l 2.83768,-3.08829 c -0.94588,-1.27357 -2.18135,-2.28706 -3.70641,-3.04059 -1.52499,-0.7535 -3.09829,-1.13023 -4.71983,-1.13023 -1.50573,0 -2.91975,0.29712 -4.24209,0.89145 -1.32234,0.59433 -2.4661,1.40091 -3.43131,2.41974 -0.96518,1.01884 -1.72771,2.23398 -2.28752,3.64545 -0.55985,1.41152 -0.83975,2.92382 -0.83975,4.53699 0,1.61312 0.27521,3.12015 0.82526,4.52102 0.55016,1.40091 1.30785,2.61075 2.27306,3.62958 0.96518,1.01884 2.10898,1.82542 3.43128,2.41971 1.32238,0.59432 2.74604,0.89149 4.27107,0.89149 z m 55.53798,-0.31827 v -18.2115 h 6.8047 v -4.0753 h -17.837 v 4.0753 h 6.83369 v 18.2115 z m 48.09629,0 v -22.2868 h -4.19865 v 22.2868 z m 48.35686,0.35017 c 1.50569,0 2.9149,-0.29712 4.22759,-0.89145 1.31269,-0.59433 2.44681,-1.40621 3.40233,-2.43566 0.95557,-1.02944 1.71326,-2.24988 2.27307,-3.6614 0.55985,-1.41148 0.83975,-2.91321 0.83975,-4.50512 0,-1.59194 -0.27983,-3.09363 -0.83975,-4.50511 -0.55981,-1.41152 -1.3175,-2.63196 -2.27307,-3.66141 -0.95552,-1.02944 -2.08964,-1.84133 -3.40233,-2.43565 -1.31269,-0.59429 -2.7219,-0.89146 -4.22759,-0.89146 -1.48644,0 -2.88596,0.29713 -4.19869,0.89146 -1.31266,0.59432 -2.44681,1.40621 -3.40233,2.43565 -0.95557,1.02945 -1.71326,2.24989 -2.27307,3.66141 -0.55981,1.41148 -0.83971,2.91317 -0.83971,4.50511 0,1.59191 0.27982,3.09364 0.83971,4.50512 0.55981,1.41152 1.3175,2.63196 2.27307,3.6614 0.95552,1.02945 2.08967,1.84133 3.40233,2.43566 1.31273,0.59429 2.71225,0.89145 4.19869,0.89145 z m 0,-4.23451 c -0.90729,0 -1.75189,-0.18566 -2.53368,-0.55716 -0.78182,-0.37131 -1.45745,-0.88084 -2.02694,-1.52821 -0.56946,-0.64741 -1.0183,-1.41683 -1.34648,-2.30828 -0.32826,-0.89153 -0.49224,-1.84667 -0.49224,-2.86547 0,-1.04005 0.16413,-2.0005 0.49224,-2.88134 0.32826,-0.88088 0.77702,-1.64499 1.34648,-2.2924 0.56949,-0.64737 1.24512,-1.15679 2.02694,-1.52822 0.78179,-0.37131 1.62639,-0.55719 2.53368,-0.55719 0.90725,0 1.75665,0.18565 2.54812,0.55719 0.79148,0.37131 1.47194,0.88085 2.04144,1.52822 0.56946,0.64741 1.01826,1.41152 1.34644,2.2924 0.32826,0.88084 0.49224,1.84129 0.49224,2.88134 0,1.0188 -0.16413,1.97394 -0.49224,2.86547 -0.32826,0.89145 -0.77698,1.66087 -1.34644,2.30828 -0.5695,0.64737 -1.24996,1.15678 -2.04144,1.52821 -0.79147,0.37131 -1.64087,0.55716 -2.54812,0.55716 z m 52.32384,3.88426 v -14.9003 l 10.33734,14.9003 h 3.70641 v -22.2868 h -3.93804 v 14.42279 l -10.07677,-14.42279 h -3.99596 v 22.2868 z"
       id="COLLECTION"
       inkscape:connector-curvature="0"
       style="fill:#ffffff;fill-rule:nonzero;stroke:none;stroke-width:1.29751229" />
  </g>
</svg>
