<?xml version="1.0" encoding="UTF-8" standalone="no"?>
<svg
   xmlns:dc="http://purl.org/dc/elements/1.1/"
   xmlns:cc="http://creativecommons.org/ns#"
   xmlns:rdf="http://www.w3.org/1999/02/22-rdf-syntax-ns#"
   xmlns:svg="http://www.w3.org/2000/svg"
   xmlns="http://www.w3.org/2000/svg"
   xmlns:xlink="http://www.w3.org/1999/xlink"
   xmlns:sodipodi="http://sodipodi.sourceforge.net/DTD/sodipodi-0.dtd"
   xmlns:inkscape="http://www.inkscape.org/namespaces/inkscape"
   width="461.32788"
   height="199.10481"
   viewBox="0 0 100.7756 43.494435"
   version="1.1"
   id="svg14"
   sodipodi:docname="Ea_.svg"
   inkscape:version="0.92.5 (2060ec1f9f, 2020-04-08)">
  <metadata
     id="metadata20">
    <rdf:RDF>
      <cc:Work
         rdf:about="">
        <dc:format>image/svg+xml</dc:format>
        <dc:type
           rdf:resource="http://purl.org/dc/dcmitype/StillImage" />
        <dc:title></dc:title>
      </cc:Work>
    </rdf:RDF>
  </metadata>
  <defs
     id="defs18">
	
	
	
	
<linearGradient
   x1="287.04117"
   y1="350.87671"
   x2="348.69205"
   y2="275.90128"
   id="linearGradient3545"
   xlink:href="#linearGradient3539"
   gradientUnits="userSpaceOnUse"
   gradientTransform="matrix(0.27391884,0,0,0.27391884,-74.12342,-68.696897)" />
<linearGradient
   id="linearGradient3539">
  <stop
     id="stop3541"
     style="stop-color:#bf0000;stop-opacity:1"
     offset="0" />
  <stop
     id="stop3547"
     style="stop-color:#bf0000;stop-opacity:1"
     offset="0.3747088" />
  <stop
     id="stop3543"
     style="stop-color:#fbe40a;stop-opacity:1"
     offset="1" />
</linearGradient>
<linearGradient
   x1="289.83875"
   y1="355.51709"
   x2="639.31293"
   y2="355.51709"
   id="linearGradient3555"
   xlink:href="#linearGradient3549"
   gradientUnits="userSpaceOnUse"
   gradientTransform="matrix(0.27391884,0,0,0.27391884,-74.12342,-68.696897)" />
<linearGradient
   id="linearGradient3549">
  <stop
     id="stop3551"
     style="stop-color:#bf0000;stop-opacity:1"
     offset="0" />
  <stop
     id="stop3557"
     style="stop-color:#fff20c;stop-opacity:1"
     offset="0.24505855" />
  <stop
     id="stop3559"
     style="stop-color:#0ce500;stop-opacity:1"
     offset="0.44498077" />
  <stop
     id="stop3561"
     style="stop-color:#31e1fd;stop-opacity:1"
     offset="0.64282119" />
  <stop
     id="stop3553"
     style="stop-color:#0019bf;stop-opacity:1"
     offset="1" />
</linearGradient>
</defs>
  <sodipodi:namedview
     pagecolor="#ffffff"
     bordercolor="#666666"
     borderopacity="1"
     objecttolerance="10"
     gridtolerance="10"
     guidetolerance="10"
     inkscape:pageopacity="0"
     inkscape:pageshadow="2"
     inkscape:window-width="1366"
     inkscape:window-height="743"
     id="namedview16"
     showgrid="false"
     inkscape:pagecheckerboard="true"
     inkscape:zoom="1.3368561"
     inkscape:cx="404.73702"
     inkscape:cy="86.870965"
     inkscape:window-x="0"
     inkscape:window-y="0"
     inkscape:window-maximized="1"
     inkscape:current-layer="svg14" />
  <path
     d="m 2.2347207,43.487995 c 0.318527,0 0.628315,-0.07475 0.929362,-0.224231 0.301048,-0.149493 0.548684,-0.350236 0.742908,-0.60223 v 0 l -0.553539,-0.602229 c -0.143726,0.183658 -0.308817,0.324605 -0.495272,0.422845 -0.186455,0.09823 -0.386506,0.147351 -0.600152,0.147351 -0.19034,0 -0.366113,-0.03737 -0.527319,-0.112117 C 1.5695023,42.442638 1.4296612,42.341198 1.3111841,42.213066 1.1927072,42.084932 1.0994799,41.93224 1.0315012,41.754989 c -0.067978,-0.177253 -0.10196708,-0.368385 -0.10196708,-0.5734 0,-0.209284 0.033017,-0.402552 0.099054,-0.579805 0.066036,-0.177251 0.1573217,-0.331013 0.2738562,-0.461281 0.1165341,-0.130268 0.2554045,-0.232775 0.4166114,-0.30752 0.161206,-0.07475 0.3330941,-0.112114 0.5156651,-0.112114 0.217531,0 0.423409,0.05232 0.617633,0.156961 0.194224,0.104647 0.363199,0.255201 0.506925,0.451671 v 0 l 0.571019,-0.62145 c -0.19034,-0.256264 -0.438947,-0.46021 -0.745821,-0.611834 -0.306874,-0.151629 -0.62346,-0.227438 -0.949756,-0.227438 -0.30299,0 -0.587529,0.05981 -0.8536157,0.179389 -0.2660872,0.119587 -0.49624298,0.28189 -0.69046694,0.486904 -0.194224,0.205015 -0.3476613,0.449537 -0.4603113,0.733565 -0.1126497,0.28403 -0.1689746,0.588345 -0.1689746,0.912952 0,0.324602 0.055351,0.627858 0.1660609,0.909752 0.1107079,0.281892 0.263174,0.525345 0.4573982,0.73036 0.19422426,0.205013 0.42437974,0.367319 0.69046704,0.486908 0.2660874,0.119591 0.5525684,0.179386 0.8594423,0.179386 z m 11.0416453,0.0064 c 0.302989,0 0.586557,-0.05979 0.850702,-0.179386 0.264145,-0.119592 0.492356,-0.282959 0.68464,-0.490112 0.192281,-0.207148 0.344748,-0.452739 0.457399,-0.736766 0.112652,-0.28403 0.168973,-0.586217 0.168973,-0.906548 0,-0.320335 -0.05632,-0.622517 -0.168973,-0.906544 -0.112651,-0.284033 -0.265118,-0.529622 -0.457399,-0.73677 -0.192284,-0.20715 -0.420495,-0.37052 -0.68464,-0.490112 -0.264145,-0.119592 -0.547713,-0.179386 -0.850702,-0.179386 -0.299106,0 -0.580731,0.05979 -0.844876,0.179386 -0.264146,0.119592 -0.492357,0.282962 -0.684641,0.490112 -0.192281,0.207148 -0.344747,0.452737 -0.457397,0.736769 -0.112649,0.284027 -0.168975,0.586208 -0.168975,0.906544 0,0.320331 0.05633,0.622517 0.168975,0.906546 0.11265,0.284028 0.265116,0.529618 0.457397,0.736767 0.192284,0.207152 0.420495,0.37052 0.684641,0.490112 0.264145,0.119593 0.54577,0.179386 0.844876,0.179386 z m 0,-0.852089 c -0.182569,0 -0.352517,-0.03737 -0.509837,-0.112117 -0.157323,-0.07475 -0.293279,-0.177249 -0.407873,-0.307519 -0.114591,-0.130271 -0.204906,-0.285099 -0.270942,-0.464486 -0.06604,-0.179392 -0.09906,-0.37159 -0.09906,-0.576602 0,-0.209283 0.03302,-0.402553 0.09906,-0.579803 0.06603,-0.177254 0.156351,-0.331014 0.270942,-0.461282 0.114594,-0.130271 0.25055,-0.232779 0.407873,-0.307523 0.15732,-0.07475 0.327268,-0.112117 0.509837,-0.112117 0.18257,0 0.353488,0.03737 0.512752,0.112117 0.159263,0.07475 0.296192,0.177252 0.410786,0.307523 0.114589,0.130268 0.204904,0.284028 0.270943,0.461282 0.06603,0.17725 0.09906,0.37052 0.09906,0.579803 0,0.205012 -0.03302,0.39721 -0.09906,0.576602 -0.06604,0.179387 -0.156354,0.334215 -0.270943,0.464486 -0.114594,0.13027 -0.251523,0.232775 -0.410786,0.307518 -0.159264,0.07475 -0.330182,0.112116 -0.512752,0.112116 z m 12.807144,0.781659 v -0.820096 h -2.231633 v -3.664621 h -0.844879 v 4.484674 z m 10.651253,0 v -0.820096 h -2.231638 v -3.664621 h -0.844871 v 4.484674 z m 10.732828,0 v -0.807279 h -2.31321 v -1.063511 h 1.509124 v -0.781614 h -1.509124 v -1.025068 h 2.289905 v -0.807242 h -3.134777 v 4.484678 z m 9.369376,0.06406 c 0.318531,0 0.628317,-0.07475 0.929362,-0.224234 0.30105,-0.149488 0.548685,-0.350232 0.742911,-0.602228 v 0 l -0.553538,-0.602228 c -0.143725,0.183659 -0.308818,0.324603 -0.495276,0.42284 -0.186455,0.09823 -0.386506,0.147352 -0.600153,0.147352 -0.190335,0 -0.366112,-0.03737 -0.527314,-0.112114 -0.16121,-0.07475 -0.30105,-0.176188 -0.419525,-0.304319 -0.118478,-0.128132 -0.211709,-0.280824 -0.279681,-0.458077 -0.06799,-0.177251 -0.101977,-0.368387 -0.101977,-0.5734 0,-0.209283 0.03302,-0.402552 0.09906,-0.579803 0.06603,-0.177254 0.157317,-0.331013 0.273854,-0.461281 0.116536,-0.130271 0.255403,-0.232778 0.416611,-0.307523 0.161205,-0.07475 0.333094,-0.112116 0.515664,-0.112116 0.217534,0 0.423409,0.05232 0.617632,0.156967 0.194225,0.104646 0.363203,0.255194 0.506928,0.451665 v 0 l 0.571015,-0.621445 c -0.190333,-0.256268 -0.438945,-0.460214 -0.745821,-0.61184 -0.30687,-0.151623 -0.623457,-0.227434 -0.949754,-0.227434 -0.30299,0 -0.587527,0.0598 -0.853614,0.179385 -0.266086,0.119593 -0.496243,0.281894 -0.690468,0.486909 -0.194223,0.205016 -0.347658,0.449534 -0.460309,0.733564 -0.112653,0.284028 -0.168978,0.588344 -0.168978,0.912952 0,0.324602 0.05535,0.627856 0.166061,0.909749 0.110712,0.281895 0.263175,0.52535 0.457401,0.730362 0.19422,0.205015 0.424377,0.367318 0.690464,0.486907 0.266091,0.119589 0.552567,0.179387 0.859443,0.179387 z m 11.175662,-0.06406 v -3.664622 h 1.369278 v -0.820054 h -3.589263 v 0.820053 h 1.375111 v 3.664621 z m 9.678193,0 V 38.93929 h -0.844874 v 4.484675 z m 9.730631,0.07047 c 0.30299,0 0.586558,-0.05979 0.850702,-0.179386 0.264145,-0.119591 0.49236,-0.28296 0.684641,-0.490111 0.192283,-0.207149 0.344746,-0.452739 0.457398,-0.736767 0.11265,-0.284029 0.168975,-0.586215 0.168975,-0.906548 0,-0.320335 -0.05633,-0.622516 -0.168975,-0.906543 -0.112652,-0.284031 -0.265115,-0.529621 -0.457398,-0.736769 -0.192281,-0.207149 -0.420496,-0.370519 -0.684641,-0.490112 -0.264144,-0.119592 -0.547712,-0.179385 -0.850702,-0.179385 -0.299106,0 -0.580728,0.05979 -0.844878,0.179385 -0.264141,0.119593 -0.49236,0.282963 -0.684635,0.490112 -0.192285,0.207148 -0.344752,0.452738 -0.457399,0.73677 -0.112653,0.284026 -0.168977,0.586208 -0.168977,0.906543 0,0.320333 0.05633,0.622518 0.168977,0.906547 0.112647,0.284028 0.265114,0.529618 0.457399,0.736767 0.192275,0.207152 0.420494,0.37052 0.684635,0.490111 0.26415,0.119593 0.545772,0.179386 0.844878,0.179386 z m 0,-0.852089 c -0.182567,0 -0.352519,-0.03737 -0.509836,-0.112117 -0.157323,-0.07475 -0.293279,-0.177247 -0.407874,-0.307517 -0.114591,-0.130271 -0.204903,-0.285098 -0.270944,-0.464485 -0.06603,-0.179393 -0.09905,-0.37159 -0.09905,-0.576603 0,-0.209283 0.03302,-0.402552 0.09905,-0.579803 0.06604,-0.177254 0.156353,-0.331013 0.270944,-0.461281 0.114595,-0.130272 0.250551,-0.232779 0.407874,-0.307523 0.157317,-0.07475 0.327269,-0.112117 0.509836,-0.112117 0.182568,0 0.35349,0.03737 0.512752,0.112117 0.159267,0.07475 0.296195,0.177251 0.410786,0.307523 0.114589,0.130268 0.204904,0.284027 0.27094,0.461281 0.06604,0.177251 0.09906,0.37052 0.09906,0.579803 0,0.205013 -0.03302,0.39721 -0.09906,0.576603 -0.06604,0.179387 -0.156351,0.334214 -0.27094,0.464485 -0.114591,0.13027 -0.251519,0.232776 -0.410786,0.307518 -0.159262,0.07475 -0.330184,0.112116 -0.512752,0.112116 z m 10.528898,0.781614 v -2.998325 l 2.080139,2.998327 h 0.74583 v -4.484675 h -0.792441 v 2.902228 l -2.027708,-2.902228 h -0.80408 v 4.484675 z"
     id="COLLECTION"
     inkscape:connector-curvature="0"
     style="fill:#ffffff;fill-rule:nonzero;stroke:none;stroke-width:0.26109254" />
  <polygon
     style="clip-rule:evenodd;overflow:visible;fill:#ffffff;fill-rule:evenodd"
     id="polygon7"
     points="328.029,26.258 212.094,26.258 212.094,28.651 163.875,28.651 164.217,23.18 328.029,23.18 "
     transform="matrix(0.14452618,0,0,0.14452618,-3.024658,-2.0154176)" />
  <polygon
     style="clip-rule:evenodd;overflow:visible;fill:#ffffff;fill-rule:evenodd"
     id="polygon9"
     points="327.687,40.618 212.094,40.618 212.094,43.015 163.875,43.015 163.875,36.173 327.687,36.173 "
     transform="matrix(0.14452618,0,0,0.14452618,-3.024658,-2.0154176)" />
  <path
     style="clip-rule:evenodd;overflow:visible;fill:#ffffff;fill-rule:evenodd;stroke-width:0.1041908"
     inkscape:connector-curvature="0"
     id="path11"
     d="M 20.659573,5.2395073 H 43.88984 l 0.444848,0.3459955 0.04939,-0.297 h 18.040329 l 0.444862,0.5438516 H 51.204703 c 0,0 -5.387499,1.0376976 -5.980777,0.9386967 -0.444279,-0.048853 -2.32225,-0.048853 -2.32225,-0.048853 0,0 0.246843,-0.5438516 0.543274,-0.889847 H 27.628431 V 6.277348 h -6.9689 z" />
  <path
     style="clip-rule:evenodd;overflow:visible;fill:#ffffff;fill-rule:evenodd;stroke-width:0.1041908"
     inkscape:connector-curvature="0"
     id="path13"
     d="m 20.659573,7.2159031 h 21.994719 c 0,0 0.543274,0.2970014 1.384131,0.3459955 0.395274,0 0.345839,-0.3459955 0.345839,-0.3459955 h 28.667354 l 0.840121,1.3346988 h -3.212958 l -0.09851,-0.5438513 h -6.475352 l 0.0992,0.2970011 c 0,0 -1.631128,-0.5932796 -2.520823,-0.3954234 -0.04939,0 -9.786168,0 -9.786168,0 -1.136692,0 -3.064681,0.2468502 -5.486356,0.8402755 h -4.448798 l 0.297,-0.7418532 H 27.628584 v 0.4448518 h -6.9689 z" />
  <path
     style="clip-rule:evenodd;overflow:visible;fill:#ffffff;fill-rule:evenodd;stroke-width:0.1041908"
     inkscape:connector-curvature="0"
     id="path15"
     d="m 47.053516,2.5702535 c 0,0 1.333974,-0.9887036 2.569675,-1.1862712 h 7.216479 l 0.889709,0.3954237 c 0,0 -3.756385,-0.098995 -4.547224,0.098995 -1.087714,0.2958443 -3.657376,0.5928456 -3.657376,0.5928456 z" />
  <path
     style="clip-rule:evenodd;overflow:visible;fill:#ffffff;fill-rule:evenodd;stroke-width:0.1041908"
     inkscape:connector-curvature="0"
     id="path17"
     d="m 44.334688,4.8436507 c 0,0 0.444862,-0.6422753 1.581553,-1.5321223 h 14.531245 l 0.593278,0.543273 -9.737315,0.098995 c -1.483127,0 -2.37224,0.5932799 -4.448215,0.7907031 -0.197714,1.457e-4 -2.520546,0.099148 -2.520546,0.099148 z" />
  <path
     style="clip-rule:evenodd;overflow:visible;fill:#ffffff;fill-rule:evenodd;stroke-width:0.1041908"
     inkscape:connector-curvature="0"
     id="path19"
     d="m 74.385452,9.3913106 0.889695,1.4331214 H 71.222345 L 71.073914,10.28058 h -6.276626 c 0,0 0.09837,0.395279 0.04884,0.395279 -1.086994,-0.246851 -2.17425,-0.296423 -2.17425,-0.296423 L 62.918721,9.9841576 H 52.88528 c 0,0 -2.223824,0.1478494 -4.151368,0.5438514 -1.97741,0.394845 -3.904955,0.444851 -3.904955,0.444851 h -3.360959 l 0.09907,-0.741852 H 27.628514 v 0.543851 H 20.659615 V 9.2923097 h 21.10487 c 0,0 0.543843,0.3948465 2.026401,0.3459968 0.741279,0 0.543843,-0.2468516 0.543843,-0.2468516 h 30.050764 v -1.457e-4 z" />
  <path
     style="clip-rule:evenodd;overflow:visible;fill:#ffffff;fill-rule:evenodd;stroke-width:0.1041908"
     inkscape:connector-curvature="0"
     id="path21"
     d="m 41.319581,13.098264 h 5.139935 c 0,0 1.483127,-0.149007 3.411101,-0.494859 2.026402,-0.394847 3.262103,-0.394847 3.262103,-0.394847 h 8.501031 l -0.296417,0.493848 c 0,0 0.988122,-0.099 3.657376,0.345851 0.04953,0 0,-0.543853 0,-0.543853 h 6.573626 l 0.148431,0.494857 h 4.892938 l -0.88971,-1.482549 H 44.384123 c 0,0 0.04939,0.246851 -0.494283,0.246851 -2.224392,0.09843 -2.471388,-0.396001 -2.471388,-0.396001 H 20.659573 v 1.581549 h 6.9689 v -0.543273 h 13.691108 z" />
  <path
     style="clip-rule:evenodd;overflow:visible;fill:#ffffff;fill-rule:evenodd;stroke-width:0.1041908"
     inkscape:connector-curvature="0"
     id="path23"
     d="m 76.955696,13.592108 0.88971,1.532557 h -5.634217 l -0.148431,-0.444852 h -7.216617 l -0.04884,0.345995 c 0,0 -1.433705,0.099 -2.075975,-0.04957 -1.433552,-0.346429 -2.570258,-0.148428 -2.570258,-0.148428 l 0.246858,-0.444852 H 54.91157 c 0,0 -1.581553,-0.04885 -3.311537,0.297002 -2.026402,0.394845 -4.052803,0.493846 -4.052803,0.493846 h -5.931356 l -0.09893,-0.543853 H 27.628417 v 0.396002 h -6.968913 v -1.483127 h 20.660022 c 0,0 0.197422,0.494423 2.61968,0.346429 0.494283,0 0.395426,-0.297 0.395426,-0.297 h 32.621147 v -1.06e-4 z" />
  <polygon
     style="clip-rule:evenodd;overflow:visible;fill:#ffffff;fill-rule:evenodd"
     id="polygon25"
     points="474.742,50.537 472.007,54.985 505.863,54.985 506.548,57.721 522.962,57.721 518.515,50.537 "
     transform="matrix(0.14452618,0,0,0.14452618,-3.024658,-2.0154176)" />
  <polygon
     style="clip-rule:evenodd;overflow:visible;fill:#ffffff;fill-rule:evenodd"
     id="polygon27"
     points="482.265,37.54 480.214,41.303 502.442,41.303 503.127,43.696 514.07,43.696 510.649,37.54 "
     transform="matrix(0.14452618,0,0,0.14452618,-3.024658,-2.0154176)" />
  <polygon
     style="clip-rule:evenodd;overflow:visible;fill:#ffffff;fill-rule:evenodd"
     id="polygon29"
     points="500.049,28.99 505.521,29.675 496.629,13.945 498.68,23.865 490.13,23.865 488.079,26.597 499.021,26.597 "
     transform="matrix(0.14452618,0,0,0.14452618,-3.024658,-2.0154176)" />
  <path
     style="clip-rule:evenodd;overflow:visible;fill:#ffffff;fill-rule:evenodd;stroke-width:0.1041908"
     inkscape:connector-curvature="0"
     id="path31"
     d="m 44.384123,15.667938 h 33.856848 l 1.038265,1.680551 H 72.70561 l -0.09893,-0.444852 h -8.402601 l -0.147848,0.494279 C 62.6721,17.151066 61.287968,17.100915 61.287968,17.100915 H 58.86614 l 0.246857,-0.444851 c 0,0 -1.482558,-0.09843 -3.607954,0.198 -1.82898,0.246851 -7.265914,0.444997 -7.265914,0.444997 H 42.308356 L 42.110365,16.903637 H 27.628542 v 0.444852 h -6.9689 v -1.778973 h 20.95644 c 0,0 0.593278,0.543272 2.372823,0.394845 0.444861,0.09901 0.395287,-0.296423 0.395287,-0.296423 z" />
  <path
     style="clip-rule:evenodd;overflow:visible;fill:#ffffff;fill-rule:evenodd;stroke-width:0.1041908"
     inkscape:connector-curvature="0"
     id="path33"
     d="m 43.642261,19.671313 h 5.78337 c 0,0 4.052802,-0.147849 4.645651,-0.197423 2.125396,-0.148428 3.608523,-0.444852 3.608523,-0.444852 l -0.247426,0.444852 c 0,0 2.273828,-0.148428 3.904955,0.197423 0.04953,0 1.384118,0 1.384118,0 l 0.246857,-0.345851 H 73.15032 l 0.09851,0.345851 h 7.413914 l -1.136705,-1.778972 h -35.14197 c 0,0 0.04939,0.24685 -0.246858,0.24685 -1.532548,0 -1.631557,-0.345851 -1.631557,-0.345851 H 20.659517 v 1.779551 h 6.9689 V 19.276468 H 43.34651 Z" />
  <path
     style="clip-rule:evenodd;overflow:visible;fill:#ffffff;fill-rule:evenodd;stroke-width:0.1041908"
     inkscape:connector-curvature="0"
     id="path35"
     d="m 80.910225,20.067315 1.136553,1.877973 h -8.30361 l -0.04939,-0.246851 H 60.84294 l -0.197436,0.147851 h -4.547072 l 0.197422,-0.345851 c 0,0 -1.779558,0.296423 -3.70695,0.395422 -0.04939,0 -6.870057,0 -6.870057,0 l -1.0877,-1.037697 -0.246857,0.790848 H 27.6285 v 0.246849 h -6.968899 v -1.877972 h 23.081836 l 0.642853,0.444418 V 20.06746 h 36.525963 v -1.06e-4 z" />
  <path
     style="clip-rule:evenodd;overflow:visible;fill:#ffffff;fill-rule:evenodd;stroke-width:0.1041908"
     inkscape:connector-curvature="0"
     id="path37"
     d="m 46.410524,22.39014 c 0,0 2.323402,2.125402 6.919479,2.125402 2.421828,0 3.311523,-0.543852 3.311523,-0.543852 h 26.591379 l -0.889849,-1.58155 z" />
  <polygon
     style="clip-rule:evenodd;overflow:visible;fill:#ffffff;fill-rule:evenodd"
     id="polygon39"
     points="163.875,180.494 163.875,168.866 328.029,168.866 328.029,180.494 "
     transform="matrix(0.14452618,0,0,0.14452618,-3.024658,-2.0154176)" />
  <polygon
     style="clip-rule:evenodd;overflow:visible;fill:#ffffff;fill-rule:evenodd"
     id="polygon41"
     points="329.738,163.737 328.029,163.737 328.029,156.553 330.765,159.631 "
     transform="matrix(0.14452618,0,0,0.14452618,-3.024658,-2.0154176)" />
  <path
     style="clip-rule:evenodd;overflow:visible;fill:#ffffff;fill-rule:evenodd;stroke-width:0.1041908"
     inkscape:connector-curvature="0"
     id="path43"
     d="m 2.3716652,28.938052 c 0,-0.692281 0.049394,-0.692281 1.2357009,-0.692281 1.9279748,0 1.1371218,1.137131 1.6309748,1.137131 0.2468571,0 0.1980046,-0.296422 0.1484306,-0.44485 v -0.988704 c 0,-0.09843 -0.099065,-0.197423 -0.1974219,-0.197423 -0.8898484,0 -1.5821361,0.04957 -2.3234013,0.04957 -1.532132,0 -2.22440595,-0.04957 -2.61983246,-0.04957 -0.14843063,0 -0.24684327201,0.09915 -0.24684327201,0.14785 0,0.44543 1.13669163201,0.09915 1.13669163201,0.988848 v 4.745084 c 0,1.235699 -0.74127899,0.691848 -0.74127899,1.136698 0,0.099 0.0495324,0.14843 0.14786176,0.14843 0.59341723,0 0.98869123,-0.04957 1.28570503,-0.04957 0.4938392,0 1.1366917,0.04957 2.6192359,0.04957 0.8401356,0 1.4335668,-0.840855 1.4335668,-1.631556 0,-0.197424 -0.049394,-0.197424 -0.099065,-0.197424 -0.3954265,0 -0.2468432,1.285128 -2.7182451,1.285128 -0.7418478,0 -0.6924265,-0.345852 -0.6924265,-0.988705 v -1.285126 c 0,-0.59299 -0.049394,-0.691847 0.3954265,-0.691847 h 0.7418479 c 1.0376963,0 0.7907004,1.037698 1.0871316,1.037698 0.2468432,0 0.1974219,-0.345851 0.1974219,-0.493846 l -0.098926,-1.779551 c 0,-0.296425 -0.098371,-0.246851 -0.1974358,-0.246851 -0.1974219,0 -0.1974219,0.938697 -1.0871177,0.938697 H 2.8163882 c -0.4448618,0 -0.4448618,-0.09856 -0.4448618,-0.543419 v -1.383981 h 1.527e-4 z" />
  <path
     style="clip-rule:evenodd;overflow:visible;fill:#ffffff;fill-rule:evenodd;stroke-width:0.1041908"
     inkscape:connector-curvature="0"
     id="path45"
     d="m 9.0442871,29.135474 c 0,-0.691701 0.6918576,-0.345996 0.6918576,-0.741275 0,-0.09843 -0.048977,-0.09843 -0.2468571,-0.09843 -0.1479866,0 -0.2468433,0.04942 -1.0376963,0.04942 -0.3464359,0 -0.8896965,-0.04942 -1.2857057,-0.04942 -0.1974219,0 -0.2958484,0.09843 -0.2958484,0.147849 0,0.345852 1.0376963,0.099 1.0376963,0.889703 v 4.3988 c 0,1.137133 -0.6918438,0.642708 -0.6918438,1.087559 0,0.04957 0.048839,0.09915 0.1974219,0.09915 0.4944219,0 0.8897096,-0.04957 1.1862802,-0.04957 0.4448479,0 0.988705,0.04957 2.4222442,0.04957 0.740696,0 1.284554,-0.791427 1.284554,-1.532557 0,-0.147849 -0.04939,-0.197423 -0.09893,-0.197423 -0.346006,0 -0.246858,1.235699 -2.520255,1.235699 -0.6428525,0 -0.6428525,-0.34643 -0.6428525,-0.889703 z" />
  <path
     style="clip-rule:evenodd;overflow:visible;fill:#ffffff;fill-rule:evenodd;stroke-width:0.1041908"
     inkscape:connector-curvature="0"
     id="path47"
     d="m 15.420491,29.382902 c 0,-0.642706 0.04898,-0.642706 1.185697,-0.642706 1.779558,0 1.038279,1.087558 1.483127,1.087558 0.197421,0 0.14843,-0.296422 0.14843,-0.444852 L 18.188215,28.4932 c 0,-0.099 -0.04939,-0.197279 -0.148431,-0.197279 -0.840122,0 -1.482544,0.04943 -2.125397,0.04943 -1.433122,0 -2.075392,-0.04943 -2.471401,-0.04943 -0.09893,0 -0.197422,0.09843 -0.197422,0.147852 0,0.395278 1.038279,0.09899 1.038279,0.939129 v 4.349371 c 0,1.137133 -0.692426,0.64271 -0.692426,1.087561 0,0.04957 0.04953,0.09915 0.197421,0.09915 0.494852,0 0.88971,-0.04957 1.18671,-0.04957 0.444848,0 0.988705,0.04957 2.421828,0.04957 0.741265,0 1.285122,-0.791426 1.285122,-1.532557 0,-0.147851 -0.04953,-0.197422 -0.09906,-0.197422 -0.345838,0 -0.246843,1.235698 -2.52067,1.235698 -0.642284,0 -0.642284,-0.346428 -0.642284,-0.889702 v -1.2357 c 0,-0.543851 0,-0.642852 0.395426,-0.642852 h 0.691844 c 0.939284,0 0.691858,0.988848 0.988136,0.988848 0.247426,0 0.197991,-0.345996 0.148417,-0.444851 l -0.04953,-1.680552 c 0,-0.24685 -0.09906,-0.197422 -0.147862,-0.197422 -0.197991,0 -0.247426,0.840275 -1.037696,0.840275 H 15.81594 c -0.395426,0 -0.395426,-0.04957 -0.395426,-0.444851 z" />
  <path
     style="clip-rule:evenodd;overflow:visible;fill:#ffffff;fill-rule:evenodd;stroke-width:0.1041908"
     inkscape:connector-curvature="0"
     id="path49"
     d="m 25.701081,28.542772 c 0,-0.04957 -0.04953,-0.04957 -0.09906,-0.04957 -0.148417,0 -0.148417,0.296423 -0.345853,0.296423 -0.247426,0 -0.988122,-0.592846 -2.075961,-0.592846 -2.323415,0 -3.311538,2.075974 -3.311538,3.657524 0,0.741274 0.444862,3.113527 3.113533,3.113527 1.977549,0 2.966115,-1.432976 2.966115,-1.778973 0,-0.04942 -0.09906,-0.09899 -0.14843,-0.09899 -0.198005,0 -0.840136,1.2357 -2.273841,1.2357 -1.779545,0 -2.520241,-1.878552 -2.520241,-3.163102 0,-1.285272 0.740696,-2.570253 2.124828,-2.570253 1.087118,0 1.877971,0.790702 2.322818,1.680551 0.09893,0.147849 0.148431,0.345851 0.297,0.345851 0.147848,0 0.09906,-0.247429 0.09906,-0.296423 z" />
  <path
     style="clip-rule:evenodd;overflow:visible;fill:#ffffff;fill-rule:evenodd;stroke-width:0.1041908"
     inkscape:connector-curvature="0"
     id="path51"
     d="m 29.852879,33.683279 c 0,1.087126 -1.038279,0.642276 -1.038279,1.037698 0,0.198002 0.14843,0.198002 0.296861,0.198002 0.395426,0 0.691844,-0.04957 1.284692,-0.04957 0.642853,0 0.939284,0.04957 1.285705,0.04957 0.295848,0 0.493853,0 0.493853,-0.198002 0,-0.296423 -1.186127,0 -1.186127,-1.136554 V 29.33362 c 0,-0.444852 0.04939,-0.494424 0.444848,-0.494424 h 0.7907 c 1.087132,0 0.790853,1.038275 1.137275,1.038275 0.246857,0 0.147848,-0.395279 0.09837,-0.494423 l -0.09837,-0.840131 c 0,-0.099 0,-0.246851 -0.149,-0.246851 -0.839705,0 -1.482558,0.04942 -2.817101,0.04942 -1.334128,0 -1.97698,-0.04942 -2.817255,-0.04942 -0.147848,0 -0.147848,0.147851 -0.147848,0.246851 l -0.14843,1.186126 c 0,0.148428 -0.04939,0.345996 0.09893,0.345996 0.444418,0 0.14843,-1.2357 1.186279,-1.2357 h 0.790701 c 0.395426,0 0.494422,0.04957 0.494422,0.494425 v 4.349515 0 z" />
  <path
     style="clip-rule:evenodd;overflow:visible;fill:#ffffff;fill-rule:evenodd;stroke-width:0.1041908"
     inkscape:connector-curvature="0"
     id="path53"
     d="m 36.673362,29.234475 c 0,-0.543852 0.297,-0.543852 0.642852,-0.543852 0.938701,0 1.433553,0.692279 1.433553,1.631556 0,0.543419 -0.04995,1.037698 -1.433553,1.037698 -0.297,0 -0.642852,0 -0.642852,-0.197278 z m -1.136706,4.349948 c 0,1.186127 -0.741265,0.840131 -0.741265,1.136554 0,0.198002 0.197422,0.198002 0.296417,0.198002 0.444848,0 0.939284,-0.04957 1.433553,-0.04957 0.346005,0 0.642284,0.04957 0.790853,0.04957 0.198005,0 0.246843,-0.04957 0.246843,-0.148429 0,-0.345996 -0.889848,0.04943 -0.889848,-0.939276 v -1.630977 c 0,-0.345997 -0.04884,-0.395424 0.445,-0.395424 0.444848,0 0.593279,0.09915 0.840136,0.494423 l 0.741279,1.48255 c 0.296848,0.543997 0.593279,1.137277 1.334544,1.137277 0.345852,0 0.988705,-0.198002 0.988705,-0.494424 0,-0.099 -0.04953,-0.148428 -0.147987,-0.148428 -0.09906,0 -0.198004,0.04957 -0.296861,0.04957 -0.04953,0 -0.246857,0 -0.296431,-0.148429 -0.692274,-1.186127 -1.483127,-2.520825 -1.483127,-2.569675 0,-0.09915 0.297014,-0.198002 0.543857,-0.395424 0.297,-0.24743 0.543857,-0.593281 0.543857,-1.186705 0,-0.395278 -0.198004,-1.7294 -2.224406,-1.7294 -0.592848,0 -1.235548,0.04942 -1.828396,0.04942 -0.593279,0 -0.692288,-0.04942 -1.087715,-0.04942 -0.09906,0 -0.19799,0.04942 -0.19799,0.147851 0,0.345849 0.988705,0 0.988705,1.038275 v 4.102086 0 z" />
  <path
     style="clip-rule:evenodd;overflow:visible;fill:#ffffff;fill-rule:evenodd;stroke-width:0.1041908"
     inkscape:connector-curvature="0"
     id="path55"
     d="m 42.110296,31.804729 c 0,1.927544 1.23627,3.163098 3.113519,3.163098 2.966254,0 3.510111,-2.273251 3.510111,-3.60795 0,-1.976975 -1.384701,-3.1631 -3.163676,-3.1631 -2.223684,0.04899 -3.459954,1.581693 -3.459954,3.607952 z m 1.137274,-0.543852 c 0,-1.333977 0.444848,-2.619248 2.026401,-2.668676 1.185683,0 2.322819,1.087124 2.322819,3.163099 0,1.532121 -0.543274,2.767532 -2.124967,2.817105 -1.631557,1.04e-4 -2.224253,-1.927256 -2.224253,-3.311528 z" />
  <path
     style="clip-rule:evenodd;overflow:visible;fill:#ffffff;fill-rule:evenodd;stroke-width:0.1041908"
     inkscape:connector-curvature="0"
     id="path57"
     d="m 50.908314,33.633707 c 0,0.938698 -0.889835,0.790847 -0.889835,1.136698 0,0.197279 0.197991,0.14843 0.297,0.14843 0.246843,0 0.493839,-0.04957 0.790839,-0.04957 0.296431,0 0.642284,0.04957 1.087132,0.04957 0.09837,0 0.345852,0 0.345852,-0.14843 0,-0.44485 -1.186127,0.197279 -1.186127,-1.58155 v -3.163679 c 0,-0.09843 0,-0.147849 0.09893,-0.147849 0,0 0.09906,0.04957 0.148001,0.099 l 4.448215,4.843652 c 0.04995,0.09915 0.09948,0.147849 0.24744,0.147849 0.09893,0 0.09893,-0.09843 0.09893,-0.296421 v -5.238931 c 0,-0.939276 0.7907,-0.741852 0.7907,-1.038276 0,0 0,-0.09843 -0.19799,-0.09843 -0.09837,0 -0.395427,0.04942 -0.988136,0.04942 -0.642853,0 -0.889696,-0.04942 -1.038279,-0.04942 -0.147848,0 -0.147848,0.09843 -0.147848,0.147849 0,0.296423 1.136705,0.148428 1.136705,0.988704 v 3.113673 c 0,0.247427 -0.04953,0.345851 -0.09893,0.345851 -0.04939,0 -0.147862,-0.09843 -0.296431,-0.246852 l -3.70695,-4.102376 c -0.148431,-0.197422 -0.04939,-0.246849 -0.346435,-0.246849 -0.49384,0 -0.740697,0.04942 -0.938687,0.04942 -0.198005,0 -0.345853,-0.04942 -0.543858,-0.04942 -0.09893,0 -0.147847,0.09843 -0.147847,0.147849 0,0.444852 1.037696,-0.147849 1.037696,1.630978 v 3.559102 h -9.7e-5 z" />
  <path
     style="clip-rule:evenodd;overflow:visible;fill:#ffffff;fill-rule:evenodd;stroke-width:0.1041908"
     inkscape:connector-curvature="0"
     id="path59"
     d="m 60.596055,29.284047 c 0,-0.889703 0.691844,-0.543851 0.691844,-0.84013 0,-0.147851 -0.04939,-0.147851 -0.296417,-0.147851 -0.543858,0 -0.88971,0.04942 -1.186127,0.04942 -0.346436,0 -0.692427,-0.04942 -1.087701,-0.04942 -0.04939,0 -0.296431,-0.05016 -0.296431,0.147851 0,0.296423 1.037696,0.04942 1.037696,0.889703 v 4.497654 c 0,0.889703 -0.642269,0.642853 -0.642269,0.939276 0,0.04943 0,0.148429 0.09893,0.148429 0.246857,0 0.642283,-0.04957 1.037696,-0.04957 0.692288,0 1.038279,0.04957 1.384131,0.04957 0.197422,0 0.296432,-0.04957 0.296432,-0.148429 0,-0.296423 -1.037697,0.09899 -1.037697,-1.038277 v -4.448226 h -1.11e-4 z" />
  <path
     style="clip-rule:evenodd;overflow:visible;fill:#ffffff;fill-rule:evenodd;stroke-width:0.1041908"
     inkscape:connector-curvature="0"
     id="path61"
     d="m 68.652086,28.542772 c 0,-0.04957 -0.09893,-0.04957 -0.147848,-0.04957 -0.09893,0 -0.09893,0.296423 -0.297,0.296423 -0.296431,0 -0.988122,-0.592846 -2.12541,-0.592846 -2.32268,0 -3.26195,2.075974 -3.26195,3.657524 0,0.741274 0.444848,3.113527 3.114116,3.113527 1.976966,0 2.96581,-1.432976 2.96581,-1.778973 0,-0.04942 -0.09906,-0.09899 -0.148417,-0.09899 -0.246996,0 -0.840288,1.2357 -2.273841,1.2357 -1.779114,0 -2.520823,-1.878552 -2.520823,-3.163102 0,-1.285272 0.741847,-2.570253 2.125396,-2.570253 1.038279,0 1.878554,0.790702 2.323402,1.680551 0.09906,0.147849 0.147861,0.345851 0.296431,0.345851 0.148569,0 0.09906,-0.247429 0.09906,-0.296423 z" />
  <path
     style="clip-rule:evenodd;overflow:visible;fill:#ffffff;fill-rule:evenodd;stroke-width:0.1041908"
     inkscape:connector-curvature="0"
     id="path63"
     d="m 76.164996,31.8543 c -0.197283,0 -0.345853,0.04957 -0.345853,-0.04957 0,-0.148429 0.09893,-0.296424 0.148431,-0.395279 l 0.741265,-1.779552 c 0.04939,-0.09856 0.09907,-0.14785 0.09907,-0.14785 0.04953,0 0.04953,0 0.09851,0.09843 l 0.840135,1.82898 c 0.04953,0.099 0.09906,0.24685 0.09906,0.395279 0,0.09915 -0.148431,0.04957 -0.345853,0.04957 z m 1.680549,0.543853 c 0.246995,0 0.296417,0.09856 0.642852,0.889268 0.09837,0.297002 0.147848,0.494281 0.147848,0.692283 0,0.642274 -0.691705,0.494423 -0.691705,0.790846 0,0.148429 0.147862,0.148429 0.296431,0.148429 0.297,0 0.692274,-0.04957 1.087118,-0.04957 0.692287,0 0.939131,0.04957 1.334557,0.04957 0.24744,0 0.345853,0 0.345853,-0.148429 0,-0.345996 -0.543275,0.04943 -0.889127,-0.692425 L 77.450118,27.89992 c -0.148431,-0.296424 -0.148431,-0.296424 -0.246996,-0.296424 -0.148417,0 -0.197852,0.198001 -0.247426,0.345995 l -2.718245,6.128634 c -0.247426,0.543997 -0.741279,0.494424 -0.741279,0.692425 0,0.148429 0.147848,0.148429 0.296431,0.148429 0.296417,0 0.543843,-0.04957 0.889696,-0.04957 0.296431,0 0.592848,0.04957 0.938701,0.04957 0.198004,0 0.494422,0.04885 0.494422,-0.148429 0,-0.296423 -1.087132,-0.09915 -1.087132,-0.840275 0,-0.246851 0.147862,-0.59328 0.198005,-0.790703 0.246857,-0.692425 0.444279,-0.741419 0.642131,-0.741419 z" />
  <path
     style="clip-rule:evenodd;overflow:visible;fill:#ffffff;fill-rule:evenodd;stroke-width:0.1041908"
     inkscape:connector-curvature="0"
     id="path65"
     d="m 84.073318,29.234475 c 0,-0.543852 0.296431,-0.543852 0.642284,-0.543852 0.889695,0 1.433552,0.692279 1.433552,1.631556 0,0.543419 -0.04939,1.037698 -1.482558,1.037698 -0.247426,0 -0.593278,0 -0.593278,-0.197278 z m -1.136831,4.349948 c 0,1.186127 -0.741279,0.840131 -0.741279,1.136554 0,0.198002 0.197422,0.198002 0.296418,0.198002 0.444861,0 0.889709,-0.04957 1.384131,-0.04957 0.395427,0 0.64227,0.04957 0.839845,0.04957 0.197852,0 0.247426,-0.04957 0.247426,-0.148429 0,-0.345996 -0.88971,0.04943 -0.88971,-0.939276 v -1.630977 c 0,-0.345997 -0.04953,-0.395424 0.444862,-0.395424 0.444848,0 0.593278,0.09915 0.840121,0.494423 l 0.741418,1.48255 c 0.297,0.543997 0.593279,1.137277 1.334558,1.137277 0.345852,0 0.988122,-0.198002 0.988122,-0.494424 0,-0.099 -0.04898,-0.148428 -0.147848,-0.148428 -0.09879,0 -0.197991,0.04957 -0.296417,0.04957 -0.04953,0 -0.247426,0 -0.297,-0.148429 -0.691705,-1.186127 -1.482558,-2.520825 -1.482558,-2.569675 0,-0.09915 0.296431,-0.198002 0.543857,-0.395424 0.246996,-0.24743 0.543427,-0.593281 0.543427,-1.186705 0,-0.395278 -0.197436,-1.7294 -2.223976,-1.7294 -0.593278,0 -1.235562,0.04942 -1.878401,0.04942 -0.543857,0 -0.642283,-0.04942 -1.03771,-0.04942 -0.14843,0 -0.247565,0.04942 -0.247565,0.147851 0,0.345849 1.038279,0 1.038279,1.038275 z" />
  <path
     style="clip-rule:evenodd;overflow:visible;fill:#ffffff;fill-rule:evenodd;stroke-width:0.1041908"
     inkscape:connector-curvature="0"
     id="path67"
     d="m 91.388223,33.683279 c 0,1.087126 -1.037835,0.642276 -1.037835,1.037698 0,0.198002 0.147848,0.198002 0.296417,0.198002 0.395426,0 0.692426,-0.04957 1.285275,-0.04957 0.64227,0 0.93927,0.04957 1.285122,0.04957 0.296431,0 0.494422,0 0.494422,-0.198002 0,-0.296423 -1.186113,0 -1.186113,-1.136554 V 29.33362 c 0,-0.444852 0.09837,-0.494424 0.444848,-0.494424 h 0.790839 c 1.087132,0 0.790714,1.038275 1.136553,1.038275 0.246996,0 0.148431,-0.395279 0.09907,-0.494423 l -0.09907,-0.840131 c 0,-0.099 0,-0.246851 -0.148431,-0.246851 -0.840121,0 -1.43297,0.04942 -2.817088,0.04942 -1.334571,0 -1.976979,-0.04942 -2.817115,-0.04942 -0.148431,0 -0.148431,0.147851 -0.148431,0.246851 L 88.8187,29.729043 c 0,0.148428 -0.04939,0.345996 0.147986,0.345996 0.395288,0 0.09906,-1.2357 1.137136,-1.2357 h 0.790853 c 0.395274,0 0.493839,0.04957 0.493839,0.494425 v 4.349515 0 z" />
  <path
     style="clip-rule:evenodd;overflow:visible;fill:#ffffff;fill-rule:evenodd;stroke-width:0.1041908"
     inkscape:connector-curvature="0"
     id="path69"
     d="m 96.775583,34.276126 c 0.04953,0.198001 0.04953,0.296423 0.297,0.345996 0.543274,0.099 0.988122,0.345851 1.532118,0.345851 1.235558,0 2.075839,-0.840131 2.075839,-2.07583 0,-1.186125 -0.59328,-1.581405 -1.581556,-2.026402 -1.235548,-0.543419 -1.779544,-0.642274 -1.779544,-1.285271 0,-0.592846 0.444848,-0.988125 1.038265,-0.988125 1.581554,0 1.729555,1.778972 1.927405,1.778972 0.247,0 0.247,-0.14785 0.247,-0.345995 l -0.0985,-1.2357 c -0.0494,-0.24685 0,-0.345849 -0.14843,-0.345849 -0.0989,0 -0.345851,0.148428 -0.444851,0.148428 -0.296418,0 -0.691705,-0.395424 -1.433553,-0.395424 -1.087132,0 -1.828397,0.790847 -1.828397,1.877972 0,0.988705 0.543843,1.334556 1.334544,1.680551 1.482558,0.691703 2.075836,0.790848 2.075836,1.581405 0,0.741275 -0.543857,1.186127 -1.285122,1.186127 -1.038279,0 -1.581553,-0.839698 -1.878415,-1.729401 -0.04953,-0.09899 -0.04953,-0.198 -0.197422,-0.198 -0.247578,0 -0.14843,0.247428 -0.14843,0.395423 z" />
</svg>
