<?xml version="1.0" encoding="UTF-8" standalone="no"?>
<svg
   xmlns:dc="http://purl.org/dc/elements/1.1/"
   xmlns:cc="http://creativecommons.org/ns#"
   xmlns:rdf="http://www.w3.org/1999/02/22-rdf-syntax-ns#"
   xmlns:svg="http://www.w3.org/2000/svg"
   xmlns="http://www.w3.org/2000/svg"
   xmlns:xlink="http://www.w3.org/1999/xlink"
   xmlns:sodipodi="http://sodipodi.sourceforge.net/DTD/sodipodi-0.dtd"
   xmlns:inkscape="http://www.inkscape.org/namespaces/inkscape"
   width="462.33551"
   height="171.26056"
   viewBox="0 0 100.99571 37.411859"
   version="1.1"
   id="svg14"
   sodipodi:docname="Eidos_.svg"
   inkscape:version="0.92.5 (2060ec1f9f, 2020-04-08)">
  <metadata
     id="metadata20">
    <rdf:RDF>
      <cc:Work
         rdf:about="">
        <dc:format>image/svg+xml</dc:format>
        <dc:type
           rdf:resource="http://purl.org/dc/dcmitype/StillImage" />
        <dc:title></dc:title>
      </cc:Work>
    </rdf:RDF>
  </metadata>
  <defs
     id="defs18">
	
	
	
	
<linearGradient
   x1="287.04117"
   y1="350.87671"
   x2="348.69205"
   y2="275.90128"
   id="linearGradient3545"
   xlink:href="#linearGradient3539"
   gradientUnits="userSpaceOnUse"
   gradientTransform="matrix(0.27391884,0,0,0.27391884,-74.12342,-68.696897)" />
<linearGradient
   id="linearGradient3539">
  <stop
     id="stop3541"
     style="stop-color:#bf0000;stop-opacity:1"
     offset="0" />
  <stop
     id="stop3547"
     style="stop-color:#bf0000;stop-opacity:1"
     offset="0.3747088" />
  <stop
     id="stop3543"
     style="stop-color:#fbe40a;stop-opacity:1"
     offset="1" />
</linearGradient>
<linearGradient
   x1="289.83875"
   y1="355.51709"
   x2="639.31293"
   y2="355.51709"
   id="linearGradient3555"
   xlink:href="#linearGradient3549"
   gradientUnits="userSpaceOnUse"
   gradientTransform="matrix(0.27391884,0,0,0.27391884,-74.12342,-68.696897)" />
<linearGradient
   id="linearGradient3549">
  <stop
     id="stop3551"
     style="stop-color:#bf0000;stop-opacity:1"
     offset="0" />
  <stop
     id="stop3557"
     style="stop-color:#fff20c;stop-opacity:1"
     offset="0.24505855" />
  <stop
     id="stop3559"
     style="stop-color:#0ce500;stop-opacity:1"
     offset="0.44498077" />
  <stop
     id="stop3561"
     style="stop-color:#31e1fd;stop-opacity:1"
     offset="0.64282119" />
  <stop
     id="stop3553"
     style="stop-color:#0019bf;stop-opacity:1"
     offset="1" />
</linearGradient>
</defs>
  <sodipodi:namedview
     pagecolor="#ffffff"
     bordercolor="#666666"
     borderopacity="1"
     objecttolerance="10"
     gridtolerance="10"
     guidetolerance="10"
     inkscape:pageopacity="0"
     inkscape:pageshadow="2"
     inkscape:window-width="1366"
     inkscape:window-height="743"
     id="namedview16"
     showgrid="false"
     inkscape:pagecheckerboard="true"
     inkscape:zoom="1.3368561"
     inkscape:cx="360.83789"
     inkscape:cy="84.855754"
     inkscape:window-x="0"
     inkscape:window-y="0"
     inkscape:window-maximized="1"
     inkscape:current-layer="svg14" />
  <path
     d="m 2.4034119,37.405419 c 0.318527,0 0.628315,-0.07475 0.929362,-0.224231 0.301048,-0.149493 0.548684,-0.350236 0.742908,-0.60223 v 0 l -0.553539,-0.602229 c -0.143726,0.183658 -0.308817,0.324605 -0.495272,0.422845 -0.186455,0.09823 -0.386506,0.147351 -0.600152,0.147351 -0.19034,0 -0.366113,-0.03737 -0.527319,-0.112117 C 1.7381935,36.360062 1.5983524,36.258622 1.4798753,36.13049 1.3613984,36.002356 1.2681711,35.849664 1.2001924,35.672413 1.1322144,35.49516 1.0982253,35.304028 1.0982253,35.099013 c 0,-0.209284 0.033017,-0.402552 0.099054,-0.579805 0.066036,-0.177251 0.1573217,-0.331013 0.2738562,-0.461281 0.1165341,-0.130268 0.2554045,-0.232775 0.4166114,-0.30752 0.161206,-0.07475 0.3330941,-0.112114 0.5156651,-0.112114 0.217531,0 0.423409,0.05232 0.617633,0.156961 0.194224,0.104647 0.363199,0.255201 0.506925,0.451671 v 0 l 0.571019,-0.62145 C 3.908649,33.369211 3.660042,33.165265 3.353168,33.013641 3.046294,32.862012 2.729708,32.786203 2.403412,32.786203 c -0.30299,0 -0.587529,0.05981 -0.8536157,0.179389 -0.2660872,0.119587 -0.496243,0.28189 -0.69046696,0.486904 -0.194224,0.205015 -0.3476613,0.449537 -0.4603113,0.733565 -0.1126497,0.28403 -0.1689746,0.588345 -0.1689746,0.912952 0,0.324602 0.055351,0.627858 0.1660609,0.909752 0.1107079,0.281892 0.263174,0.525345 0.4573982,0.73036 0.19422426,0.205013 0.42437976,0.367319 0.69046706,0.486908 0.2660874,0.119591 0.5525684,0.179386 0.8594423,0.179386 z m 11.0416451,0.0064 c 0.302989,0 0.586557,-0.05979 0.850702,-0.179386 0.264145,-0.119592 0.492356,-0.282959 0.68464,-0.490112 0.192281,-0.207148 0.344748,-0.452739 0.457399,-0.736766 0.112652,-0.28403 0.168973,-0.586217 0.168973,-0.906548 0,-0.320335 -0.05632,-0.622517 -0.168973,-0.906544 -0.112651,-0.284033 -0.265118,-0.529622 -0.457399,-0.73677 -0.192284,-0.20715 -0.420495,-0.37052 -0.68464,-0.490112 -0.264145,-0.119592 -0.547713,-0.179386 -0.850702,-0.179386 -0.299106,0 -0.580731,0.05979 -0.844876,0.179386 -0.264146,0.119592 -0.492357,0.282962 -0.684641,0.490112 -0.192281,0.207148 -0.344747,0.452737 -0.457397,0.736769 -0.112649,0.284027 -0.168975,0.586208 -0.168975,0.906544 0,0.320331 0.05633,0.622517 0.168975,0.906546 0.11265,0.284028 0.265116,0.529618 0.457397,0.736767 0.192284,0.207152 0.420495,0.37052 0.684641,0.490112 0.264145,0.119593 0.54577,0.179386 0.844876,0.179386 z m 0,-0.852089 c -0.182569,0 -0.352517,-0.03737 -0.509837,-0.112117 -0.157323,-0.07475 -0.293279,-0.177249 -0.407873,-0.307519 -0.114591,-0.130271 -0.204906,-0.285099 -0.270942,-0.464486 -0.06604,-0.179392 -0.09906,-0.37159 -0.09906,-0.576602 0,-0.209283 0.03302,-0.402553 0.09906,-0.579803 0.06603,-0.177254 0.156351,-0.331014 0.270942,-0.461282 0.114594,-0.130271 0.25055,-0.232779 0.407873,-0.307523 0.15732,-0.07475 0.327268,-0.112117 0.509837,-0.112117 0.18257,0 0.353488,0.03737 0.512752,0.112117 0.159263,0.07475 0.296192,0.177252 0.410786,0.307523 0.114589,0.130268 0.204904,0.284028 0.270943,0.461282 0.06603,0.17725 0.09906,0.37052 0.09906,0.579803 0,0.205012 -0.03302,0.39721 -0.09906,0.576602 -0.06604,0.179387 -0.156354,0.334215 -0.270943,0.464486 -0.114594,0.13027 -0.251523,0.232775 -0.410786,0.307518 -0.159264,0.07475 -0.330182,0.112116 -0.512752,0.112116 z m 12.807144,0.781659 v -0.820096 h -2.231633 v -3.664621 h -0.844879 v 4.484674 z m 10.651253,0 v -0.820096 h -2.231638 v -3.664621 h -0.844871 v 4.484674 z m 10.732828,0 V 36.53411 h -2.31321 v -1.063511 h 1.509124 v -0.781614 h -1.509124 v -1.025068 h 2.289905 V 32.856675 H 44.4782 v 4.484678 z m 9.369376,0.06406 c 0.318531,0 0.628317,-0.07475 0.929362,-0.224234 0.30105,-0.149488 0.548685,-0.350232 0.742911,-0.602228 v 0 l -0.553538,-0.602228 c -0.143725,0.183659 -0.308818,0.324603 -0.495276,0.42284 -0.186455,0.09823 -0.386506,0.147352 -0.600153,0.147352 -0.190335,0 -0.366112,-0.03737 -0.527314,-0.112114 -0.16121,-0.07475 -0.30105,-0.176188 -0.419525,-0.304319 -0.118478,-0.128132 -0.211709,-0.280824 -0.279681,-0.458077 -0.06799,-0.177251 -0.101977,-0.368387 -0.101977,-0.5734 0,-0.209283 0.03302,-0.402552 0.09906,-0.579803 0.06603,-0.177254 0.157317,-0.331013 0.273854,-0.461281 0.116536,-0.130271 0.255403,-0.232778 0.416611,-0.307523 0.161205,-0.07475 0.333094,-0.112116 0.515664,-0.112116 0.217534,0 0.423409,0.05232 0.617632,0.156967 0.194225,0.104646 0.363203,0.255194 0.506928,0.451665 v 0 l 0.571015,-0.621445 c -0.190333,-0.256268 -0.438945,-0.460214 -0.745821,-0.61184 -0.30687,-0.151623 -0.623457,-0.227434 -0.949754,-0.227434 -0.30299,0 -0.587527,0.0598 -0.853614,0.179385 -0.266086,0.119593 -0.496243,0.281894 -0.690468,0.486909 -0.194223,0.205016 -0.347658,0.449534 -0.460309,0.733564 -0.112653,0.284028 -0.168978,0.588344 -0.168978,0.912952 0,0.324602 0.05535,0.627856 0.166061,0.909749 0.110712,0.281895 0.263175,0.52535 0.457401,0.730362 0.19422,0.205015 0.424377,0.367318 0.690464,0.486907 0.266091,0.119589 0.552567,0.179387 0.859443,0.179387 z m 11.175662,-0.06406 v -3.664622 h 1.369278 v -0.820054 h -3.589263 v 0.820053 h 1.375111 v 3.664621 z m 9.678193,0 v -4.484675 h -0.844874 v 4.484675 z m 9.730631,0.07047 c 0.30299,0 0.586558,-0.05979 0.850702,-0.179386 0.264145,-0.119591 0.49236,-0.28296 0.684641,-0.490111 0.192283,-0.207149 0.344746,-0.452739 0.457398,-0.736767 0.11265,-0.284029 0.168975,-0.586215 0.168975,-0.906548 0,-0.320335 -0.05633,-0.622516 -0.168975,-0.906543 -0.112652,-0.284031 -0.265115,-0.529621 -0.457398,-0.736769 -0.192281,-0.207149 -0.420496,-0.370519 -0.684641,-0.490112 -0.264144,-0.119592 -0.547712,-0.179385 -0.850702,-0.179385 -0.299106,0 -0.580728,0.05979 -0.844878,0.179385 -0.264141,0.119593 -0.49236,0.282963 -0.684635,0.490112 -0.192285,0.207148 -0.344752,0.452738 -0.457399,0.73677 -0.112653,0.284026 -0.168977,0.586208 -0.168977,0.906543 0,0.320333 0.05633,0.622518 0.168977,0.906547 0.112647,0.284028 0.265114,0.529618 0.457399,0.736767 0.192275,0.207152 0.420494,0.37052 0.684635,0.490111 0.26415,0.119593 0.545772,0.179386 0.844878,0.179386 z m 0,-0.852089 c -0.182567,0 -0.352519,-0.03737 -0.509836,-0.112117 -0.157323,-0.07475 -0.293279,-0.177247 -0.407874,-0.307517 -0.114591,-0.130271 -0.204903,-0.285098 -0.270944,-0.464485 -0.06603,-0.179393 -0.09905,-0.37159 -0.09905,-0.576603 0,-0.209283 0.03302,-0.402552 0.09905,-0.579803 0.06604,-0.177254 0.156353,-0.331013 0.270944,-0.461281 0.114595,-0.130272 0.250551,-0.232779 0.407874,-0.307523 0.157317,-0.07475 0.327269,-0.112117 0.509836,-0.112117 0.182568,0 0.35349,0.03737 0.512752,0.112117 0.159267,0.07475 0.296195,0.177251 0.410786,0.307523 0.114589,0.130268 0.204904,0.284027 0.27094,0.461281 0.06604,0.177251 0.09906,0.37052 0.09906,0.579803 0,0.205013 -0.03302,0.39721 -0.09906,0.576603 -0.06604,0.179387 -0.156351,0.334214 -0.27094,0.464485 -0.114591,0.13027 -0.251519,0.232776 -0.410786,0.307518 -0.159262,0.07475 -0.330184,0.112116 -0.512752,0.112116 z m 10.528898,0.781614 v -2.998325 l 2.080138,2.998327 h 0.74583 v -4.484675 h -0.79244 v 2.902228 l -2.027708,-2.902228 h -0.80408 v 4.484675 z"
     id="COLLECTION"
     inkscape:connector-curvature="0"
     style="fill:#ffffff;fill-rule:nonzero;stroke:none;stroke-width:0.26109254" />
  <g
     id="g12"
     transform="matrix(0.02773359,0,0,-0.02773359,-0.21342582,28.417277)"
     style="fill:#ffffff">
    <path
       d="m 650.371,611.172 c -11.91,2.762 -18.246,5.734 -24.644,11.562 -3.68,3.356 -4.348,5.942 -4.348,16.895 0,16.141 3.484,21.168 18.891,27.219 9.3,3.664 14.765,4.355 34.261,4.355 19.496,0 24.957,-0.691 34.262,-4.355 14.652,-5.758 18.887,-11.317 18.887,-24.789 0,-16.371 -5.047,-22.875 -22.227,-28.649 -12.598,-4.226 -41.449,-5.398 -55.082,-2.238 z m 1356.079,-356.5 c -5.99,6.25 -10.88,20.41 -10.88,31.492 v 7.426 l 169.6,0.008 c 108.52,0.007 174.07,0.742 182.03,2.031 26.73,4.344 52.42,16.34 59.28,27.676 3.11,5.136 3.66,9.953 3.66,32.129 v 26.093 l -196.18,0.965 c -213.09,1.047 -203.47,0.539 -214.36,11.43 -3.85,3.851 -4.03,5.98 -3.99,47.039 0.04,47.328 1.15,52.867 12.84,64.637 19.88,20.019 62.18,38.355 109.09,47.277 21.36,4.063 27.27,4.215 197.12,4.957 l 175.1,0.766 5.98,-6.828 c 6.72,-7.649 10.04,-17.442 10.06,-29.637 l 0.01,-8.211 h -169.2 c -146.63,0 -171.16,-0.406 -183.97,-3.055 -20.57,-4.246 -37.66,-11.504 -47.36,-20.105 l -8.25,-7.317 -0.61,-29.215 -0.63,-29.218 h 194.03 c 211.65,0 205.73,0.301 216.23,-10.887 4.56,-4.855 4.59,-5.238 4.59,-48.699 0,-41.449 -0.23,-44.242 -4.25,-51.762 -12.47,-23.328 -58.16,-47.266 -109.78,-57.527 -30.79,-6.133 -58.33,-7 -221.42,-7 h -163.44 z m -774.32,149.176 v 110.254 l -127.08,-0.59 -127.077,-0.594 -15.461,-5.238 c -22.848,-7.735 -35.813,-16.114 -41.071,-26.543 -4.269,-8.457 -4.351,-9.942 -4.351,-76.789 0,-77.528 0.246,-79.063 14.121,-89.024 4.457,-3.203 13.367,-8.035 19.805,-10.738 24.699,-10.402 28.703,-10.676 159.834,-10.844 l 121.28,-0.152 z M 964.961,251.254 c -67.371,6.601 -127.895,32.617 -143.793,61.797 -3.371,6.179 -3.613,12.215 -3.613,89.734 0,75.645 0.304,83.727 3.422,89.977 15.078,30.258 76.976,57.133 146.367,63.547 12.883,1.191 73.196,2.054 143.506,2.058 l 121.28,0.004 v 55.086 55.082 l 16.91,0.012 c 9.3,0 31.92,0.57 50.25,1.265 l 33.34,1.266 V 469.238 c 0,-225.523 1.25,-206.59 -14.14,-214.82 l -8.08,-4.316 -164.29,-0.247 c -90.35,-0.144 -171.878,0.493 -181.159,1.399 z m -341.648,152.5 v 154.617 h 99.878 l 1.282,-49.598 c 0.703,-27.277 1.273,-96.855 1.273,-154.621 V 249.137 H 674.531 623.313 Z M 140.219,251.234 C 77.6992,257.25 19.5547,283.117 4.25391,311.73 0.0585938,319.563 0,320.852 0,402.785 c 0,81.938 0.0585938,83.227 4.25391,91.063 13.14059,24.554 59.92969,48.215 116.75809,59.031 21.367,4.062 27.195,4.211 199.062,4.953 l 177.051,0.762 6.043,-5.09 c 6.656,-5.594 11.91,-19.809 11.91,-32.199 v -7.383 l -172.5,-0.035 c -185.074,-0.035 -185.269,-0.043 -210.183,-9.973 -14.563,-5.805 -23.723,-11.762 -28.157,-18.305 -3.254,-4.796 -3.734,-9.019 -3.734,-32.57 V 425.98 L 305.859,425.488 511.211,425 v -21.246 -21.242 l -205.352,-0.496 -205.355,-0.489 -0.5977,-22.226 c -0.336,-12.531 0.3437,-25.418 1.5547,-29.551 2.957,-10.117 11.426,-17.527 27.723,-24.297 28.89,-11.992 26.656,-11.863 214.765,-11.863 h 171.129 v -7.426 c 0,-11.082 -4.898,-25.242 -10.879,-31.492 l -5.308,-5.535 -171.164,0.261 c -94.149,0.149 -178.524,0.965 -187.508,1.836 z m 1586.261,40.137 c 36.95,7.969 64.1,19.727 80.09,34.688 17.05,15.937 16.98,15.656 16.94,77.132 -0.05,61.868 -0.33,63.164 -16.84,78.008 -17.34,15.598 -45.15,27.492 -81.55,34.899 -27.04,5.504 -77.61,6.855 -107.62,2.879 -56.79,-7.512 -101.55,-29.016 -113.11,-54.34 -3.14,-6.883 -3.53,-13.617 -3.56,-61.446 -0.05,-61.586 -0.02,-61.73 17.11,-77.132 17.75,-15.965 48.14,-28.758 83.59,-35.196 25.07,-4.55 27.24,-4.679 68.37,-3.996 29.47,0.488 42.91,1.555 56.58,4.504 z m -127.13,-47.226 c -97.35,11.21 -170.33,43.867 -192.52,86.16 l -5.58,10.636 v 60.879 60.883 l 5.39,10.977 c 25.44,51.808 120.22,88.351 238.13,91.824 100.45,2.957 189.26,-17.063 241.69,-54.481 15.31,-10.921 24.94,-21.968 32.03,-36.722 l 5.56,-11.598 v -56.461 c 0,-52.359 -0.29,-57.234 -3.99,-67.144 -16.26,-43.45 -84.43,-78.594 -180.58,-93.11 -26.98,-4.07 -111.15,-5.175 -140.13,-1.843 z M 2266.77,2.53125 c -5.72,4.21094 -12.22,22.33595 -12.22,34.07425 v 9.5898 h 22.81 c 26.18,0 64.62,2.7266 97.57,6.9141 178.33,22.664 306.54,94.7266 362.58,203.7576 18.33,35.664 26.78,62.813 32.03,103.02 8.2,62.601 -1.34,126.156 -27.03,180.125 -53.52,112.437 -180.07,187.254 -357.74,211.511 -35.25,4.813 -69.98,7.813 -90.8,7.836 -8.61,0.008 -21.11,0.59 -27.78,1.289 l -12.12,1.266 0.95,11.836 c 1.09,13.539 6.99,26.621 14.13,31.293 4.36,2.855 9.97,3.062 51.68,1.898 135.05,-3.765 242.98,-13.902 363.76,-34.175 298.34,-50.067 607.46,-159.586 862.89,-305.719 49.06,-28.074 102.52,-61.621 102.52,-64.348 0,-0.519 -8.48,-6.418 -18.85,-13.105 C 3525.88,321.598 3376.88,246.137 3236.35,189.652 2942.3,71.4375 2628.63,5.71875 2333.8,0.53125 c -55.8,-0.984375 -63.29,-0.761719 -67.03,2"
       style="fill:#ffffff;fill-opacity:1;fill-rule:nonzero;stroke:none"
       id="path14"
       inkscape:connector-curvature="0" />
  </g>
</svg>
