<?xml version="1.0" encoding="UTF-8" standalone="no"?>
<svg
   xmlns:dc="http://purl.org/dc/elements/1.1/"
   xmlns:cc="http://creativecommons.org/ns#"
   xmlns:rdf="http://www.w3.org/1999/02/22-rdf-syntax-ns#"
   xmlns:svg="http://www.w3.org/2000/svg"
   xmlns="http://www.w3.org/2000/svg"
   xmlns:sodipodi="http://sodipodi.sourceforge.net/DTD/sodipodi-0.dtd"
   xmlns:inkscape="http://www.inkscape.org/namespaces/inkscape"
   width="500"
   height="200"
   viewBox="0 0 500 200"
   version="1.1"
   id="svg267"
   sodipodi:docname="Eighting.svg"
   style="fill:none"
   inkscape:version="0.92.5 (2060ec1f9f, 2020-04-08)">
  <metadata
     id="metadata273">
    <rdf:RDF>
      <cc:Work
         rdf:about="">
        <dc:format>image/svg+xml</dc:format>
        <dc:type
           rdf:resource="http://purl.org/dc/dcmitype/StillImage" />
        <dc:title></dc:title>
      </cc:Work>
    </rdf:RDF>
  </metadata>
  <defs
     id="defs271" />
  <sodipodi:namedview
     pagecolor="#ffffff"
     bordercolor="#666666"
     borderopacity="1"
     objecttolerance="10"
     gridtolerance="10"
     guidetolerance="10"
     inkscape:pageopacity="0"
     inkscape:pageshadow="2"
     inkscape:window-width="1366"
     inkscape:window-height="739"
     id="namedview269"
     showgrid="false"
     inkscape:pagecheckerboard="true"
     inkscape:zoom="1.8484804"
     inkscape:cx="285.71616"
     inkscape:cy="91.927768"
     inkscape:window-x="0"
     inkscape:window-y="0"
     inkscape:window-maximized="1"
     inkscape:current-layer="svg267"
     inkscape:snap-others="false"
     inkscape:object-nodes="false"
     inkscape:snap-nodes="false" />
  <path
     id="path265"
     style="fill:#ffffff;stroke-width:1.63726187"
     d="m 10.740234,175.94531 c -1.4464539,-0.009 -2.8802555,0.27082 -4.2187496,0.82422 -1.2681093,0.52064 -2.4270683,1.28276 -3.4121094,2.24219 -0.9722883,0.96107 -1.7460758,2.10776 -2.27539062,3.375 C 0.28526966,183.71455 0.00236629,185.13865 0,186.57617 c -0.00235922,1.43915 0.27596824,2.86585 0.8203125,4.19531 0.52305,1.26234 1.2915056,2.40517 2.2597656,3.36133 0.9855177,0.95944 2.145512,1.72122 3.4140625,2.24024 1.3475476,0.55666 2.7905861,0.83535 4.2460934,0.82226 1.586835,-0.001 3.15325,-0.35343 4.591797,-1.03125 1.414724,-0.63199 2.670035,-1.57761 3.671875,-2.76953 L 16.267578,190.625 c -0.671327,0.81699 -1.505137,1.48127 -2.447266,1.95117 -0.924201,0.4519 -1.938001,0.68428 -2.964843,0.67774 -0.866505,0.008 -1.7260726,-0.15531 -2.5292971,-0.48438 -0.8032411,-0.3291 -1.5343863,-0.81603 -2.1503907,-1.43164 -0.5931635,-0.60416 -1.0619975,-1.3202 -1.3789062,-2.10937 -0.3397802,-0.83664 -0.5095828,-1.73132 -0.5019531,-2.63672 -0.0092,-0.91195 0.1558028,-1.81987 0.4882812,-2.66797 0.3103595,-0.79079 0.7698645,-1.51041 1.3535157,-2.1211 0.5853215,-0.60742 1.285494,-1.0866 2.0585937,-1.41406 0.805631,-0.34709 1.6736131,-0.52216 2.5488285,-0.51562 1.055494,-0.005 2.097465,0.23972 3.042968,0.71289 0.977297,0.49773 1.831778,1.20743 2.503907,2.08008 l 2.822265,-2.85938 c -0.992346,-1.21812 -2.253231,-2.18246 -3.683593,-2.81445 -1.470048,-0.68764 -3.070004,-1.04361 -4.689454,-1.04688 z m 54.580078,0 c -1.423146,0 -2.84575,0.27606 -4.189453,0.82617 -1.262653,0.51738 -2.412086,1.28434 -3.380859,2.25196 -0.968767,0.96926 -1.73762,2.12011 -2.263672,3.39062 -0.550613,1.32128 -0.833984,2.73928 -0.833984,4.17188 0,1.43262 0.283371,2.85225 0.833984,4.17187 0.526216,1.27215 1.294905,2.42302 2.263672,3.39063 0.968773,0.96928 2.118206,1.73652 3.380859,2.2539 1.323779,0.55314 2.745457,0.83379 4.177735,0.82422 1.440948,0.009 2.868888,-0.26944 4.201172,-0.82422 1.262499,-0.51738 2.412083,-1.28462 3.380859,-2.2539 0.968777,-0.96761 1.73746,-2.11848 2.263672,-3.39063 0.550948,-1.31962 0.835937,-2.73925 0.835937,-4.17187 0,-1.4326 -0.284989,-2.8506 -0.835937,-4.17188 -0.526212,-1.27051 -1.294907,-2.42136 -2.263672,-3.39062 -0.968765,-0.96762 -2.118195,-1.73458 -3.380859,-2.25196 -1.343704,-0.55011 -2.766307,-0.82617 -4.189454,-0.82617 z m 366.423828,0.002 c -1.42299,0 -2.84608,0.27605 -4.18945,0.82617 -1.26233,0.51901 -2.40934,1.28269 -3.37696,2.25195 -0.96926,0.96925 -1.74038,2.12012 -2.26757,3.39063 -0.55013,1.31964 -0.83399,2.73927 -0.83399,4.17187 0,1.43261 0.28386,2.85029 0.83399,4.16992 0.52719,1.27052 1.29831,2.42333 2.26757,3.39258 0.96762,0.96764 2.11463,1.73489 3.37696,2.25391 1.32456,0.55175 2.74317,0.8321 4.17578,0.82226 v 0.002 c 1.44243,0.009 2.87039,-0.26919 4.20312,-0.82422 1.26232,-0.51902 2.40964,-1.28465 3.37891,-2.25391 0.96926,-0.96761 1.74007,-2.12206 2.26562,-3.39258 0.55014,-1.31963 0.83399,-2.73731 0.83399,-4.16992 0,-1.4326 -0.28384,-2.85059 -0.83399,-4.17187 -0.52555,-1.27051 -1.29636,-2.42333 -2.26562,-3.39258 -0.96927,-0.96762 -2.11659,-1.73263 -3.37891,-2.25 -1.34418,-0.55012 -2.76646,-0.82617 -4.18945,-0.82617 z m -151.1543,0.006 c -1.4457,-0.009 -2.87948,0.27083 -4.21875,0.82422 -1.26724,0.52066 -2.42649,1.28113 -3.41211,2.24219 -0.97253,0.96108 -1.74655,2.10776 -2.27539,3.375 -0.54847,1.32782 -0.83265,2.75227 -0.83593,4.19141 -0.001,1.43916 0.27706,2.86196 0.82226,4.1914 0.5223,1.26234 1.29051,2.40517 2.25977,3.36133 0.98565,0.95943 2.14323,1.72121 3.41211,2.24024 1.34582,0.55338 2.78602,0.83114 4.23828,0.8164 v 0.002 c 1.58814,-0.001 3.15622,-0.35342 4.59375,-1.03125 1.41459,-0.63199 2.66985,-1.57762 3.67187,-2.76954 l -2.73828,-2.77148 c -0.67128,0.81699 -1.50389,1.48488 -2.44531,1.95312 -0.92507,0.45354 -1.94023,0.6843 -2.9668,0.67774 -0.8661,0.009 -1.72509,-0.15529 -2.52734,-0.48438 -0.8039,-0.32909 -1.53478,-0.81438 -2.15039,-1.43164 -0.59269,-0.60252 -1.06291,-1.3199 -1.37891,-2.10742 -0.34054,-0.83663 -0.51207,-1.73297 -0.5039,-2.63672 -0.009,-0.9136 0.15817,-1.82017 0.49218,-2.66992 0.3078,-0.78914 0.76707,-1.50845 1.35157,-2.11914 0.5845,-0.60744 1.28581,-1.08855 2.05859,-1.41602 0.80554,-0.34543 1.67257,-0.52248 2.54687,-0.51757 1.0593,-0.002 2.10479,0.24457 3.05274,0.72265 0.97746,0.49445 1.83294,1.20547 2.50586,2.07813 l 2.82031,-2.85938 c -0.99218,-1.21811 -2.25458,-2.18247 -3.68555,-2.81445 -1.46862,-0.68765 -3.06824,-1.0436 -4.6875,-1.04688 z m -167.19336,0.31641 v 20.63281 h 15.20118 v -3.77148 h -11.0293 v -16.86133 z m 211.44336,0 v 3.77344 h 6.79493 v 16.85937 h 4.17773 v -16.85937 h 6.76562 v -3.77344 z m 54.625,0.002 v 20.63086 h 4.17578 v -20.63086 z m -158.44922,0.002 c -0.4689,0.0275 -0.9355,0.059 -1.40624,0.084 -0.31269,5.4e-4 -0.62625,-0.0134 -0.93946,-0.0234 v 20.57032 l 15.60742,-0.002 v -3.71289 H 222.8457 v -4.89257 h 7.45899 v -3.59766 h -7.45899 v -4.71289 h 11.31641 v -3.71289 z m 258.80079,0 v 20.63086 h 3.94531 v -13.80078 l 10.28125,13.80078 h 3.68555 v -20.63086 h -3.91797 V 189.625 l -10.01953,-13.35156 z m -414.509769,3.59179 c 0.870869,-0.007 1.732744,0.16852 2.533203,0.51563 0.764433,0.32745 1.456592,0.81023 2.03125,1.41602 0.575672,0.61561 1.029257,1.3352 1.33789,2.12109 0.652606,1.71257 0.652606,3.60775 0,5.32031 -0.306179,0.79244 -0.759764,1.51976 -1.33789,2.13867 -0.574658,0.60577 -1.266817,1.08661 -2.03125,1.41407 -0.800128,0.34546 -1.661042,0.52217 -2.53125,0.51562 l -0.002,0.002 c -0.845979,0.007 -1.685017,-0.16177 -2.464844,-0.49414 -0.779662,-0.33236 -1.484165,-0.8219 -2.070313,-1.4375 -0.578114,-0.61891 -1.031723,-1.34623 -1.33789,-2.13867 -0.652937,-1.71256 -0.652937,-3.60774 0,-5.32031 0.308621,-0.78589 0.76223,-1.50548 1.33789,-2.12109 0.586148,-0.61562 1.290651,-1.10515 2.070313,-1.4375 0.779827,-0.33237 1.618865,-0.50069 2.464844,-0.49415 z m 366.423829,0.002 c 0.87102,-0.007 1.73063,0.16852 2.53125,0.51562 0.7646,0.32743 1.45657,0.80829 2.03125,1.41407 0.57631,0.61561 1.03205,1.33716 1.33984,2.12304 0.65327,1.71257 0.65327,3.60773 0,5.32031 -0.30616,0.79244 -0.76025,1.51946 -1.33984,2.13672 -0.57468,0.60577 -1.26665,1.08692 -2.03125,1.41602 -0.80062,0.34545 -1.66023,0.52022 -2.53125,0.51367 v 0.002 c -0.8661,0.007 -1.72546,-0.16853 -2.51953,-0.51562 -0.75969,-0.33074 -1.44422,-0.81189 -2.01563,-1.41602 -0.57795,-0.61726 -1.03366,-1.34265 -1.33984,-2.13672 -0.65326,-1.71258 -0.65326,-3.60774 0,-5.32031 0.30782,-0.78753 0.76353,-1.50908 1.33984,-2.12304 0.57141,-0.60251 1.25594,-1.08334 2.01563,-1.41407 0.79407,-0.3471 1.65343,-0.52379 2.51953,-0.51562 z m -265.69727,1.64258 v 15.39257 h 15.20313 v -3.77148 h -11.0293 v -11.5293 c -0.084,-0.004 -0.16793,-0.0103 -0.25195,-0.0137 -1.30735,-0.0527 -2.61466,-0.0739 -3.92188,-0.0781 z" />
  <path
     id="path185"
     style="fill:#ffffff;stroke:none;stroke-width:1.24300003;stroke-miterlimit:4;stroke-dasharray:none;stroke-opacity:1"
     d="m 145.3917,8.6091393 -0.6836,0.73828 c -0.37657,0.40537 -0.82566,0.9134597 -0.99805,1.1288997 -0.17238,0.21544 -0.66452,0.39253 -1.09375,0.39454 -0.42922,0.002 -1.43808,0.20705 -2.24023,0.45703 -0.80214,0.24997 -2.05104,0.53461 -2.77539,0.63281 -0.72436,0.0982 -1.65243,0.38351 -2.06445,0.63476 -0.41201,0.25124 -0.93294,0.45848 -1.15625,0.45899 -0.35005,7.8e-4 -1.73775,0.67351 -4.55469,2.20703 -1.81391,0.98749 -5.68658,4.42394 -7.43555,6.59961 -1.75231,2.17983 -3.02815,4.0579 -3.03515,4.46875 -0.002,0.14908 -0.21552,0.5417 -0.47461,0.87109 -0.25909,0.32938 -0.54638,0.91809 -0.63867,1.3086 -0.0923,0.39052 -0.36159,1.03838 -0.59766,1.43945 -0.23607,0.40107 -0.50817,1.22067 -0.60547,1.82227 -0.0973,0.60161 -0.38876,1.635 -0.64844,2.29687 -0.41934,1.06881 -0.47351,1.84373 -0.47851,6.92774 -0.005,5.24059 0.0372,5.8332 0.50195,7.00976 0.27919,0.70683 0.50781,1.5383 0.50781,1.84766 0,0.30937 0.25445,1.04276 0.56641,1.63086 0.31195,0.5881 0.64674,1.38877 0.74414,1.77929 0.0974,0.39052 0.38935,0.98117 0.64844,1.31055 0.25909,0.32938 0.4707,0.71357 0.4707,0.85547 0,0.35139 1.03789,1.8458 2.85742,4.11523 1.9425,2.42281 1.95197,2.62683 0.18555,3.94532 -2.74581,2.04951 -7.72305,7.93564 -9.00586,10.65234 -0.32731,0.69316 -0.76315,1.52146 -1.36914,2.59766 -0.11292,0.20053 -0.37914,0.74693 -0.5918,1.21484 -0.21265,0.46792 -0.58053,1.23325 -0.8164,1.70117 -0.23587,0.46792 -0.50265,1.26027 -0.59375,1.75977 -0.0911,0.4995 -0.37799,1.37528 -0.63672,1.94531 -0.25873,0.57002 -0.47357,1.41987 -0.47657,1.88867 -0.003,0.46879 -0.11549,1.23414 -0.25195,1.70117 -0.73527,2.51658 -0.96661,4.46753 -0.9668,8.14844 -1.4e-4,2.75973 0.10744,4.285316 0.3711,5.226551 0.20477,0.73101 0.51462,2.25816 0.6875,3.39453 0.17288,1.13637 0.48141,2.39581 0.6875,2.79688 0.20609,0.40108 0.45303,1.16109 0.54883,1.68945 0.0958,0.52837 0.43862,1.45752 0.76172,2.06446 0.3231,0.60693 0.58789,1.28105 0.58789,1.49804 0,0.21699 0.21894,0.6718 0.48632,1.01172 0.26738,0.33992 0.48824,0.76586 0.49024,0.94531 0.004,0.40994 2.24905,3.95582 3.80469,6.00977 1.22133,1.61256 4.98593,5.54752 6.31054,6.5957 0.41856,0.33121 1.07541,0.84898 1.45899,1.15039 0.38358,0.30141 1.02471,0.80577 1.42578,1.1211 0.40107,0.31532 0.96097,0.64587 1.24414,0.73437 0.28317,0.0886 0.71033,0.37861 0.94922,0.64258 0.23889,0.26397 0.62292,0.47852 0.85156,0.47852 0.22862,0 0.67531,0.20065 0.99414,0.44531 0.81911,0.62854 3.69473,1.98633 4.20703,1.98633 0.23573,0 0.70696,0.21894 1.04688,0.48632 0.33992,0.26739 0.88572,0.48633 1.21289,0.48633 0.32716,0 1.37764,0.25927 2.33593,0.57813 2.02848,0.67495 5.28974,1.08388 10.73633,1.3457 5.5933,0.26889 7.87348,0.2149 8.12696,-0.19531 0.11466,-0.18554 0.27371,-0.74518 0.35351,-1.24414 0.214,-1.33828 0.58482,-1.51805 3.37891,-1.63672 1.59624,-0.0678 2.94108,-0.2714 3.76758,-0.57031 0.70689,-0.25566 1.63692,-0.46675 2.0664,-0.46875 0.42948,-0.001 1.32764,-0.27078 1.9961,-0.59961 0.66845,-0.32881 1.37737,-0.60147 1.57421,-0.60547 0.51228,-0.0109 5.74166,-2.63475 6.0918,-3.05664 0.16113,-0.19415 0.41113,-0.35352 0.55469,-0.35352 0.40843,0 2.04484,-1.17062 4.30078,-3.07617 3.02468,-2.55491 7.75698,-8.04004 7.77148,-9.00781 0.002,-0.1619 0.20741,-0.48935 0.45704,-0.72852 0.24963,-0.23917 0.58391,-0.83747 0.74218,-1.32812 0.15828,-0.49064 0.4399,-1.01629 0.625,-1.16992 0.18511,-0.15362 0.41111,-0.62749 0.50391,-1.05274 0.0929,-0.42526 0.37504,-1.03469 0.625,-1.35352 0.24996,-0.31883 0.45503,-0.81097 0.45703,-1.09374 0.001,-0.28279 0.25561,-1.06006 0.56641,-1.72852 0.31079,-0.66845 0.63585,-1.89963 0.72265,-2.73438 0.0868,-0.83474 0.34214,-1.92753 0.56641,-2.42968 0.31861,-0.71343 0.43042,-1.896265 0.51172,-5.410151 0.12122,-5.24166 0.0264,-6.06238 -1.375,-11.91016 -0.30427,-1.26967 -0.98832,-3.1667 -1.50781,-4.18164 -0.25306,-0.49441 -0.45899,-1.05337 -0.45899,-1.24218 0,-0.18882 -0.26314,-0.73035 -0.58398,-1.20313 -0.32084,-0.47279 -0.659,-1.09405 -0.75,-1.38086 -0.16426,-0.51754 -1.72649,-3.00035 -2.91602,-4.63281 -1.00714,-1.38216 -6.43383,-6.73857 -7.69531,-7.5957 -0.64012,-0.43494 -1.21901,-0.92897 -1.28711,-1.09766 -0.18502,-0.45799 0.34063,-1.48255 1.5,-2.92188 0.56954,-0.70707 1.03711,-1.43207 1.03711,-1.60937 0,-0.1773 0.22199,-0.60518 0.49414,-0.95117 0.27215,-0.34597 0.61725,-0.98892 0.76758,-1.42969 0.15032,-0.44077 0.47471,-1.06202 0.7207,-1.38086 0.24599,-0.31883 0.44727,-0.77921 0.44727,-1.02148 0,-0.24228 0.27319,-0.95344 0.60742,-1.58203 0.33422,-0.6286 0.60742,-1.51606 0.60742,-1.97071 0,-0.45464 0.18505,-1.17566 0.41016,-1.60351 0.35275,-0.67044 0.80999,-4.58819 0.87109,-7.46289 0.0455,-2.14247 -0.43436,-6.83458 -0.79492,-7.7793 -0.22961,-0.6016 -0.48998,-1.57111 -0.58008,-2.15625 -0.0901,-0.58513 -0.32777,-1.29623 -0.52734,-1.58008 -0.19956,-0.28386 -0.48024,-0.95352 -0.62305,-1.48828 -0.14282,-0.53476 -0.40519,-1.13711 -0.58398,-1.33789 -0.17879,-0.20078 -0.44418,-0.63868 -0.58985,-0.97266 -0.14568,-0.33398 -0.56277,-1.0527 -0.92773,-1.59765 -0.36496,-0.54495 -0.90684,-1.36897 -1.20313,-1.83008 -0.93371,-1.45315 -6.19734,-6.36259 -7.92187,-7.38867 -1.80774,-1.0756 -2.42658,-1.40907 -3.32813,-1.79883 -0.33423,-0.1445 -0.77212,-0.36345 -0.97265,-0.48633 -0.96507,-0.59132 -3.13884,-1.46469 -4.00196,-1.60742 -0.53014,-0.0877 -1.28386,-0.32373 -1.67383,-0.52539 -0.38997,-0.20166 -1.86959,-0.4667397 -3.28906,-0.5878897 -1.41948,-0.12116 -2.96372,-0.32296 -3.43164,-0.44922 -0.46791,-0.12625 -2.84056,-0.30699 -5.27148,-0.40039 z m 9.72265,2.8437497 c 1.4939,-0.0431 3.77116,0.22083 4.95117,0.64257 0.66845,0.23891 1.70894,0.51167 2.31055,0.60547 0.60161,0.0938 1.47544,0.3661 1.94336,0.60547 0.46792,0.23938 1.7816,0.8873 2.91797,1.43946 1.13637,0.55214 2.34273,1.18983 2.68164,1.41796 0.33892,0.22812 0.98188,0.63497 1.42969,0.90235 1.80229,1.07613 5.23523,4.46845 6.51757,6.4414 0.4779,0.7353 1.12552,1.72412 1.43946,2.19922 0.31394,0.4751 0.57031,0.97346 0.57031,1.10742 0,0.13395 0.2732,0.61534 0.60742,1.06836 0.33423,0.45302 0.61024,1.04744 0.61524,1.32227 0.004,0.27483 0.27665,1.04835 0.60547,1.7168 0.32882,0.66845 0.59956,1.50072 0.60156,1.85156 0.001,0.35084 0.14891,1.06194 0.32812,1.58008 1.0598,3.06425 1.14245,8.82568 0.17383,12.12304 -0.27478,0.93541 -0.5,2.04007 -0.5,2.45508 0,0.41501 -0.27319,1.26985 -0.60742,1.89844 -0.33423,0.62859 -0.60865,1.32781 -0.60938,1.55469 -6.8e-4,0.22689 -0.27024,0.85 -0.59961,1.38476 -0.32937,0.53477 -0.60242,1.15155 -0.60742,1.36914 -0.004,0.21759 -0.1889,0.54503 -0.41015,0.72852 -0.22124,0.18348 -0.54988,0.68712 -0.73047,1.11914 -0.18059,0.43203 -1.03093,1.65585 -1.89063,2.7207 -2.39665,2.96855 -2.6045,3.62268 -1.35742,4.26758 3.03491,1.56941 8.02224,6.23029 10.2793,9.60547 0.2235,0.33423 0.75207,1.09952 1.17578,1.69922 0.42371,0.5997 0.97327,1.52778 1.2207,2.06445 0.24744,0.53667 0.55024,1.14127 0.67383,1.3418 0.41551,0.67421 1.45327,3.03124 1.60352,3.64453 0.0819,0.33422 0.34974,1.10152 0.5957,1.70312 0.24595,0.60161 0.56642,1.80484 0.71289,2.67383 0.14646,0.86899 0.44126,2.39967 0.6543,3.40235 0.49061,2.309 0.35625,8.796876 -0.21485,10.361311 -0.20151,0.552 -0.44531,1.64674 -0.54101,2.43164 -0.0957,0.78491 -0.37039,1.81493 -0.60938,2.28907 -0.23898,0.47413 -0.51287,1.29372 -0.60937,1.82226 -0.0965,0.52854 -0.3781,1.25257 -0.62696,1.60743 -0.24886,0.35487 -0.45312,0.80338 -0.45312,0.99804 0,0.19467 -0.27293,0.75606 -0.60547,1.2461 -0.33255,0.49004 -0.6695,1.15368 -0.75,1.4746 -0.0805,0.32092 -0.35598,0.77086 -0.61133,1.00196 -0.25536,0.23109 -0.46484,0.52319 -0.46484,0.64844 0,0.26072 -0.32241,0.69714 -2.70508,3.66015 -2.45037,3.04719 -7.14196,7.01953 -9.90234,8.38477 -0.35194,0.17406 -0.80337,0.42112 -1.00391,0.54883 -0.20053,0.12771 -0.63844,0.35143 -0.97266,0.49609 -0.33423,0.14466 -1.11501,0.52732 -1.73632,0.84961 -0.62131,0.32228 -1.3324,0.58875 -1.58008,0.59375 -0.24768,0.004 -0.99757,0.27666 -1.66602,0.60547 -0.70762,0.34809 -1.64713,0.59761 -2.24804,0.59961 -0.56765,0.001 -1.66043,0.2128 -2.42969,0.4707 -1.75011,0.58674 -4.17124,0.83935 -4.74219,0.49414 -0.39878,-0.24114 -0.42578,-1.35449 -0.42578,-17.82031 0,-13.335335 -0.0695,-17.632031 -0.29102,-17.853511 -0.40737,-0.40737 -1.71512,-0.36914 -3.76953,0.11133 -1.64051,0.38356 -1.85997,0.38467 -3.4375,0.004 -0.92689,-0.22372 -1.94467,-0.40816 -2.25976,-0.41016 -0.3151,-0.002 -0.84547,-0.1634 -1.17969,-0.35742 -0.33423,-0.19401 -1.08763,-0.57666 -1.67383,-0.85156 -0.58621,-0.27491 -1.57872,-0.9099 -2.20703,-1.41016 -1.30268,-1.03722 -3.89844,-3.77107 -3.89844,-4.10742 0,-0.12327 -0.27319,-0.59582 -0.60742,-1.04883 -0.33423,-0.45302 -0.60742,-1.04936 -0.60742,-1.32617 0,-0.27681 -0.24608,-0.93988 -0.54688,-1.47266 -0.49981,-0.88526 -0.54687,-1.28315 -0.54687,-4.61523 0,-3.31587 0.0495,-3.73923 0.54687,-4.66992 0.3008,-0.56286 0.54688,-1.22397 0.54688,-1.47071 0,-0.24673 0.27319,-0.82041 0.60742,-1.27343 0.33423,-0.45303 0.60742,-0.94727 0.60742,-1.09961 0,-0.48098 3.61954,-4.1935 4.68946,-4.81055 3.29656,-1.90121 5.5802,-2.5957 8.5332,-2.5957 0.58232,0 1.52342,-0.1647 2.0918,-0.36524 0.56838,-0.20053 1.2864,-0.36523 1.5957,-0.36523 0.5795,0 2.87929,-1.10964 4.61719,-2.22852 2.43761,-1.56936 5.92183,-6.0704 6.55468,-8.4668 0.0883,-0.33423 0.37867,-1.07073 0.64453,-1.63671 0.43719,-0.93062 0.4744,-1.44221 0.4004,-5.34766 -0.0754,-3.98133 -0.12282,-4.38365 -0.625,-5.16797 -0.2996,-0.46792 -0.5464,-1.09185 -0.54688,-1.38477 -5.1e-4,-0.29291 -0.11481,-0.60149 -0.25391,-0.6875 -0.13912,-0.086 -0.53464,-0.60309 -0.8789,-1.14843 -1.22871,-1.94639 -4.48815,-4.67983 -6.16016,-5.16602 -0.33423,-0.0972 -0.93487,-0.37123 -1.33594,-0.60937 -0.40107,-0.23813 -1.30347,-0.51032 -2.0039,-0.60352 -0.70042,-0.0932 -1.63047,-0.40947 -2.06641,-0.70312 l -0.79297,-0.53321 -0.12109,-8.25586 c -0.0669,-4.54028 -0.082,-8.43851 -0.0352,-8.66406 0.0468,-0.22555 0.42756,-0.53129 0.84765,-0.67773 0.25384,-0.0885 0.6661,-0.13602 1.16407,-0.15039 z m -12.16992,1.89843 c 0.33223,-10e-4 0.58936,0.0991 0.79687,0.30664 0.36441,0.36445 0.40235,1.47514 0.40235,11.39258 0,9.22666 0.0583,11.06985 0.35547,11.49414 0.29427,0.42014 0.69289,0.52769 2.36914,0.63868 1.56518,0.10362 2.31558,0.28739 3.35351,0.82421 3.79298,1.96172 5.77626,4.27708 6.63086,7.74024 0.60103,2.43548 0.60339,2.94415 0.0234,5.34765 -0.82533,3.4205 -3.11987,6.13388 -6.58789,7.79102 -1.49134,0.71261 -2.02035,0.84061 -3.52344,0.84961 -0.97735,0.006 -2.20506,0.17712 -2.74218,0.38281 -0.53477,0.20479 -1.57331,0.51701 -2.3086,0.69336 -0.7353,0.17634 -1.77117,0.55058 -2.30078,0.83203 -0.5296,0.28145 -1.08673,0.51172 -1.23828,0.51172 -0.15155,0 -0.47286,0.21895 -0.71484,0.48633 -0.24197,0.26738 -0.59415,0.48633 -0.78321,0.48633 -0.81032,0 -5.67562,4.77375 -7.18359,7.04883 -0.81484,1.22935 -2.12109,3.97874 -2.12109,4.46484 0,0.22872 -0.21482,0.83857 -0.47852,1.35547 -1.09972,2.15561 -1.11831,10.94176 -0.0273,13.11328 0.24213,0.48194 0.51306,1.27576 0.60156,1.76367 0.0885,0.4879 0.3155,1.01552 0.50391,1.17188 0.18841,0.15636 0.40683,0.57713 0.48633,0.93554 0.0795,0.35841 0.52797,1.19874 0.99609,1.86719 0.46813,0.66845 1.10915,1.5985 1.42578,2.06641 0.75766,1.11967 2.90135,3.131821 4.27149,4.011711 0.60161,0.38635 1.31269,0.88797 1.58007,1.11328 0.26738,0.22531 0.75952,0.49119 1.09375,0.59179 0.33423,0.1006 0.86867,0.38773 1.1875,0.63672 0.31883,0.24899 0.7567,0.45117 0.97461,0.45117 0.21791,0 0.81493,0.22403 1.32618,0.49805 0.54528,0.29225 1.95154,0.63718 3.40039,0.83399 3.34659,0.45459 4.55587,0.74009 4.80468,1.13281 0.11538,0.18208 0.21089,6.18568 0.21289,13.34179 0.003,11.3867 -0.0439,13.07995 -0.375,13.55274 -0.21478,0.30663 -0.60949,0.52631 -0.9121,0.50781 -4.01824,-0.24545 -7.71066,-0.68676 -8.31055,-0.99219 -0.40107,-0.20421 -1.27413,-0.44997 -1.93945,-0.54687 -0.66532,-0.0969 -1.61804,-0.38598 -2.11719,-0.64063 -0.49915,-0.25465 -1.04628,-0.46289 -1.2168,-0.46289 -0.27226,0 -0.99009,-0.31039 -3.35547,-1.44921 -1.38904,-0.66876 -2.67721,-1.424 -4.74219,-2.78321 -2.58103,-1.69887 -7.83186,-6.82008 -9.24413,-9.01562 -0.51597,-0.80214 -1.16126,-1.73562 -1.43555,-2.07617 -0.27429,-0.34055 -1.0859,-1.81699 -1.80273,-3.28126 -0.71682,-1.46427 -1.49645,-3.04575 -1.73242,-3.51367 -0.23597,-0.46791 -0.51008,-1.3437 -0.60938,-1.94531 -0.0993,-0.6016 -0.37068,-1.47545 -0.60352,-1.94336 -0.23283,-0.46792 -0.49844,-1.6169 -0.58984,-2.55273 -0.0914,-0.93583 -0.32502,-2.392465 -0.51954,-3.236325 -0.40486,-1.756326 -0.47959,-6.975966 -0.11328,-7.939446 0.13264,-0.34885 0.3963,-1.81939 0.58595,-3.26758 0.18964,-1.44819 0.50644,-2.9479 0.70312,-3.33203 0.19668,-0.38413 0.43936,-1.19137 0.53906,-1.79297 0.0997,-0.60161 0.37603,-1.34175 0.61524,-1.64649 0.23922,-0.30474 0.50805,-0.98941 0.59765,-1.51953 0.0896,-0.53013 0.26926,-1.02762 0.39844,-1.10742 0.12918,-0.0798 0.50036,-0.71081 0.82422,-1.40039 0.66426,-1.41437 0.96999,-1.92254 1.75391,-2.91016 0.3008,-0.37896 0.54687,-0.79666 0.54687,-0.92773 0,-0.13107 1.03698,-1.48153 2.30274,-3.00195 1.57553,-1.89251 3.26221,-3.5555 5.34765,-5.27149 1.67543,-1.37861 3.04492,-2.64691 3.04492,-2.81836 0,-0.17144 -0.98874,-1.36274 -2.19727,-2.64648 -1.20852,-1.28373 -2.37181,-2.67422 -2.58593,-3.0918 -0.21413,-0.41757 -0.59332,-1.02101 -0.8418,-1.33984 -0.24848,-0.31884 -0.45117,-0.76296 -0.45117,-0.98633 0,-0.22338 -0.27319,-0.77551 -0.60742,-1.22852 -0.33423,-0.45302 -0.60742,-1.03587 -0.60742,-1.29492 0,-0.25905 -0.21758,-0.82147 -0.48242,-1.25 -0.26485,-0.42853 -0.58282,-1.49794 -0.70703,-2.375 -0.12421,-0.87707 -0.37228,-1.85154 -0.55079,-2.16601 -0.51118,-0.90044 -0.45067,-8.46183 0.0801,-10.05079 0.22327,-0.66845 0.47174,-1.71079 0.55274,-2.31445 0.081,-0.60366 0.36198,-1.42325 0.625,-1.82226 0.26301,-0.39902 0.47956,-0.94978 0.48047,-1.22461 8.8e-4,-0.27483 0.27514,-0.87121 0.60937,-1.32422 0.33423,-0.45302 0.60742,-1.01576 0.60742,-1.25196 0,-0.2362 0.20161,-0.62606 0.44727,-0.86523 0.24566,-0.23917 0.86343,-1.12259 1.375,-1.96289 1.83982,-3.0221 6.87177,-7.37225 10.15429,-8.7793 0.60293,-0.25845 1.16299,-0.57842 1.24609,-0.71289 0.0831,-0.13447 0.50649,-0.31981 0.93946,-0.41211 0.43296,-0.0923 1.22461,-0.36494 1.75976,-0.60547 0.53514,-0.24053 1.79262,-0.56138 2.79492,-0.71289 1.00229,-0.15152 2.16129,-0.3355 2.57422,-0.4082 0.12862,-0.0227 0.24668,-0.0348 0.35743,-0.0352 z m 77.52539,54.70118 c -9.42518,-0.0319 -17.27607,0.0307 -17.44531,0.13867 -0.44731,0.28542 -0.44172,58.380371 0.006,58.666001 0.16607,0.106 8.01427,0.16667 17.43945,0.13477 l 17.13672,-0.0566 V 97.523239 68.111129 Z m 25.1582,0.0586 -0.0625,29.50781 c -0.037,17.676011 0.0283,29.614141 0.16211,29.775381 0.15971,0.19251 4.33301,0.25329 14.64649,0.21289 13.28278,-0.0521 14.44673,-0.0882 14.72656,-0.4707 0.23544,-0.32186 0.30273,-3.87177 0.30273,-15.77539 0,-14.006671 0.0368,-15.387171 0.4043,-15.691401 0.66176,-0.54779 4.36021,-0.37717 5.19531,0.24024 0.36401,0.26913 0.9868,0.57919 1.38477,0.6875 1.00442,0.27337 2.36531,1.5351 2.70508,2.509756 0.15626,0.44825 0.47279,1.024645 0.70508,1.281245 0.38832,0.42894 0.42863,1.52554 0.49023,13.6211 0.0368,7.23547 0.15683,13.24471 0.26562,13.35351 0.10879,0.10878 6.69603,0.19636 14.63868,0.19336 13.33711,-0.005 14.46352,-0.0363 14.74414,-0.41992 0.23567,-0.3223 0.30116,-3.79748 0.28906,-15.50195 -0.0174,-16.904391 -0.15902,-20.173751 -0.93359,-21.636711 -0.2804,-0.52961 -0.50977,-1.30886 -0.50977,-1.73047 0,-0.42162 -0.20512,-1.02687 -0.45508,-1.3457 -0.24996,-0.31883 -0.53346,-0.96372 -0.63086,-1.43164 -0.0974,-0.46791 -0.35539,-1.12281 -0.57226,-1.45704 -0.21687,-0.33422 -0.56113,-0.89988 -0.76563,-1.25586 -2.35623,-4.10148 -5.33033,-7.36398 -8.63672,-9.47656 -0.66845,-0.42711 -1.43378,-0.96368 -1.70117,-1.1914 -0.26738,-0.22771 -0.89514,-0.54456 -1.39648,-0.70508 -0.50134,-0.16053 -0.91211,-0.38964 -0.91211,-0.50781 0,-0.11817 -0.46502,-0.33896 -1.03321,-0.49024 -0.56818,-0.15128 -1.21029,-0.43095 -1.42578,-0.62305 -0.21548,-0.1921 -0.99849,-0.44927 -1.74218,-0.57031 -0.74367,-0.12104 -1.71753,-0.41754 -2.16211,-0.66015 -0.76501,-0.41741 -2.06443,-0.44141 -24.26368,-0.44141 z m 119.47071,0.002 c -19.61644,0 -20.82883,0.0231 -21.5918,0.43946 -0.44458,0.24261 -1.41648,0.54108 -2.16016,0.6621 -0.74368,0.12105 -1.52866,0.37202 -1.74414,0.5586 -0.21549,0.18658 -0.71104,0.41666 -1.10156,0.50976 -0.39052,0.0931 -0.9792,0.37959 -1.30859,0.63868 -0.32937,0.2591 -0.71552,0.47265 -0.85743,0.47265 -0.14189,0 -0.70023,0.29105 -1.24218,0.64844 -0.54194,0.35739 -1.42423,0.92613 -1.95899,1.26367 -1.07896,0.68103 -1.30163,0.86911 -3.41992,2.88281 -2.14663,2.04064 -4.96484,5.61807 -4.96484,6.30079 0,0.13921 -0.20736,0.44043 -0.46094,0.66992 -0.25358,0.22949 -0.5799,0.88819 -0.72461,1.46289 -0.14471,0.5747 -0.42238,1.17587 -0.61523,1.33594 -0.19287,0.16006 -0.42358,0.7481 -0.51368,1.30859 -0.0901,0.56049 -0.33919,1.29272 -0.55468,1.62695 -0.91236,1.41465 -1.51569,9.815876 -0.91407,12.728511 0.20864,1.01008 0.37891,2.25276 0.37891,2.76172 0,0.50895 0.21083,1.31956 0.46875,1.80078 0.25792,0.48123 0.54688,1.29888 0.64258,1.81836 0.0957,0.51947 0.37699,1.20656 0.625,1.52539 0.24802,0.31883 0.45117,0.76099 0.45117,0.98437 0,0.22338 0.27319,0.77745 0.60742,1.23047 0.33422,0.45302 0.60938,0.95874 0.60938,1.12305 0,0.1643 0.27319,0.62233 0.60742,1.01953 0.33422,0.39721 0.60742,0.8393 0.60742,0.98047 0,0.14117 0.14666,0.34231 0.32617,0.44922 0.17951,0.10691 0.98868,0.96913 1.79883,1.91601 1.93575,2.2624 6.70084,6.17969 7.51758,6.17969 0.1419,0 0.52609,0.21161 0.85547,0.4707 0.32939,0.25909 0.92002,0.54903 1.31054,0.64453 0.39052,0.0955 0.95467,0.36413 1.25391,0.59571 0.29923,0.23158 1.03905,0.49514 1.64453,0.58594 0.60549,0.0908 1.60252,0.38648 2.2168,0.6582 0.99985,0.44228 1.78294,0.50879 7.4707,0.625 3.62325,0.074 6.48495,0.23163 6.65821,0.36914 0.41848,0.33209 0.38236,1.93153 -0.0566,2.50586 -0.19837,0.25952 -0.46908,0.85657 -0.60156,1.32617 -0.13916,0.49338 -0.7615,1.36588 -1.47265,2.06641 l -1.23047,1.21093 -15.60742,0.12305 -15.60938,0.12109 -0.12109,13.24805 c -0.0669,7.28613 -0.0829,13.38366 -0.0352,13.55078 0.0685,0.23974 4.05109,0.30274 18.86719,0.30274 17.6564,0 18.86716,-0.0268 20.21094,-0.45313 0.78615,-0.2494 2.084,-0.53441 2.88476,-0.63281 0.80074,-0.0985 1.84477,-0.37654 2.32031,-0.61914 0.47553,-0.2426 1.26551,-0.51738 1.75586,-0.60938 0.49036,-0.092 1.01492,-0.31247 1.16407,-0.49218 0.14915,-0.17971 0.67146,-0.45946 1.1621,-0.6211 0.49066,-0.16164 1.16578,-0.48072 1.5,-0.70898 0.33423,-0.22826 1.26427,-0.82931 2.06641,-1.33594 1.47682,-0.93273 5.95508,-5.24673 5.95508,-5.73633 0,-0.14638 0.27319,-0.59108 0.60742,-0.98828 0.33423,-0.39721 0.60742,-0.86169 0.60742,-1.03125 0,-0.16956 0.21895,-0.50606 0.48633,-0.74805 0.26738,-0.24197 0.48633,-0.57055 0.48633,-0.73046 0,-0.15989 0.2732,-0.80501 0.60742,-1.4336 0.33423,-0.6286 0.60938,-1.38206 0.60938,-1.67578 10e-4,-0.29373 0.27273,-1.08155 0.60156,-1.75 0.3288,-0.66846 0.60147,-1.60785 0.60547,-2.08789 0.004,-0.48005 0.25388,-1.95647 0.55468,-3.28125 l 0.54683,-2.41022 V 101.29077 68.113039 Z M 248.75888,149.66577 c -1.58712,-0.003 -2.08845,0.0897 -2.57031,0.46875 -0.32938,0.25909 -0.89044,0.54351 -1.24609,0.63281 -0.35566,0.0893 -0.97284,0.56162 -1.37305,1.04883 -0.40022,0.48721 -0.90654,1.09025 -1.125,1.33984 -0.60097,0.68654 -0.95664,3.73335 -0.62695,5.375 0.40311,2.00725 2.23247,4.06085 4.03711,4.5332 0.41041,0.10794 2.03821,0.15372 3.61914,0.10352 l 2.875,-0.0918 1.3789,-1.20312 c 1.20322,-1.05059 1.46573,-1.44745 2.06055,-3.1211 l 0.68164,-1.91796 -0.59766,-1.7461 c -0.68839,-2.01705 -1.81948,-3.55078 -3.16796,-4.29492 -0.51947,-0.28666 -1.17437,-0.65713 -1.45704,-0.82227 -0.29167,-0.1704 -1.36883,-0.30268 -2.48828,-0.30468 z m -33.53711,1.19336 c -1.07642,0.0481 -2.18524,0.28831 -3.01562,0.70507 -1.58135,0.79367 -2.79078,1.87226 -3.04492,2.7168 -0.10057,0.33422 -0.38578,0.86866 -0.63477,1.1875 -0.72455,0.92779 -0.61233,2.987 0.25977,4.73828 0.99623,2.00054 2.11487,2.6535 4.87695,2.84766 1.13637,0.0799 2.77749,0.13419 3.64648,0.12109 l 1.58008,-0.0234 0.0684,-3.21289 c 0.0779,-3.6933 0.16417,-3.56879 -2.39062,-3.42382 l -1.32422,0.0742 -0.1211,1.70118 c -0.11849,1.65883 -0.13955,1.70365 -0.81836,1.78125 -1.08205,0.12371 -2.09765,-0.97891 -2.09765,-2.27539 0,-0.69763 0.14724,-1.14551 0.47851,-1.44532 0.26397,-0.23888 0.53898,-0.61598 0.60938,-0.83789 0.0704,-0.22191 0.73321,-0.71053 1.47461,-1.08593 1.34729,-0.6822 1.34972,-0.68169 2.58594,-0.27735 0.75782,0.2478 1.32315,0.31746 1.46093,0.17969 0.12359,-0.12368 0.19189,-0.76037 0.15039,-1.41406 -0.0689,-1.08507 -0.15101,-1.22526 -0.92773,-1.61328 -0.69769,-0.34854 -1.73998,-0.49143 -2.81641,-0.44336 z m -62.62109,0.0176 c -1.26767,0 -2.02098,0.13077 -2.625,0.45313 -0.46594,0.24867 -1.11963,0.5363 -1.45117,0.64062 -1.44136,0.45353 -2.89626,2.98078 -2.91406,5.06055 -0.0113,1.31485 0.70401,3.33919 1.43554,4.06445 1.2089,1.19856 2.49946,1.80865 4.14844,1.95899 3.22866,0.29438 4.55473,0.24811 4.71289,-0.16406 0.0811,-0.21147 0.14844,-1.62072 0.14844,-3.13086 0,-2.06867 -0.085,-2.81654 -0.34375,-3.03125 -0.20653,-0.17147 -0.95832,-0.25474 -1.88477,-0.21094 l -1.53906,0.0723 -0.0644,1.21485 c -0.10776,2.06181 -0.2202,2.31055 -1.05078,2.31055 -0.40732,0 -0.94908,-0.11208 -1.20313,-0.24805 -0.56751,-0.30372 -1.03404,-1.92442 -0.81836,-2.8418 0.15793,-0.67173 1.46291,-2.25781 1.85743,-2.25781 0.11287,0 0.51703,-0.23169 0.89843,-0.51367 0.54767,-0.40498 0.91559,-0.48435 1.75196,-0.37891 0.58245,0.0734 1.33178,0.16749 1.66601,0.20899 0.51031,0.0633 0.6205,-0.037 0.6875,-0.62305 0.21748,-1.90309 -0.68026,-2.58399 -3.41211,-2.58399 z m 83.95508,0.008 c -1.55014,0.006 -2.03036,0.11006 -2.83789,0.60742 -0.53476,0.32937 -1.14162,0.59888 -1.34766,0.59961 -0.49099,0.002 -2.17769,1.84219 -2.17969,2.3789 -8.9e-4,0.22944 -0.21875,0.74542 -0.48437,1.14649 -0.26562,0.40107 -0.48362,1.09237 -0.48438,1.53515 -0.002,1.09118 1.01844,3.174 1.99414,4.06836 1.57166,1.44065 1.92487,1.66192 2.93555,1.8418 1.12416,0.20007 4.38376,0.10039 4.7832,-0.14648 0.13816,-0.0854 0.25196,-0.70048 0.25196,-1.36524 0,-1.42899 -0.30348,-1.64161 -1.73438,-1.21289 -1.23395,0.36969 -2.44564,0.019 -3.55273,-1.02929 -0.73239,-0.69352 -0.78906,-0.86231 -0.78906,-2.31641 0,-1.4899 0.0443,-1.61192 0.90039,-2.44336 0.84747,-0.82308 0.98814,-0.87344 2.36914,-0.83594 0.80778,0.0219 1.74389,0.0762 2.07812,0.1211 0.56407,0.0757 0.61199,0.001 0.67969,-1.04297 0.10603,-1.63694 -0.27108,-1.91525 -2.58203,-1.90625 z m 40.07226,0.35351 c -0.27585,-0.007 -0.4838,0.019 -0.55664,0.0918 -0.14624,0.14621 -0.29519,8.92803 -0.19336,11.4043 0.01,0.24108 0.94159,0.29388 4.20508,0.24218 l 4.19336,-0.0664 0.0742,-0.75977 c 0.11508,-1.18277 -0.43676,-1.54773 -2.33984,-1.55273 -0.89285,-0.002 -1.74353,-0.0834 -1.89063,-0.18164 -0.66406,-0.44341 -0.82608,-1.36767 -0.83008,-4.72071 -0.002,-1.91388 -0.0998,-3.63163 -0.21679,-3.8164 -0.18518,-0.29237 -1.61775,-0.61849 -2.44532,-0.64063 z m -134.19531,0.0234 c -1.05294,-0.0738 -3.00167,0.10303 -3.17773,0.38086 -0.3392,0.53525 -0.26895,10.99471 0.0762,11.33984 0.36644,0.36646 3.5088,0.39113 3.73242,0.0293 0.18917,-0.30611 0.21324,-11.28395 0.0254,-11.58789 -0.0533,-0.0862 -0.30527,-0.13752 -0.65625,-0.16211 z m 61.37891,0.0137 c -1.44668,-0.068 -1.81641,0.44542 -1.81641,2.52735 0,2.20101 -0.3637,2.40214 -1.69336,0.93164 -0.52737,-0.58322 -0.96375,-1.19302 -0.96875,-1.35547 -0.005,-0.16247 -0.3507,-0.68174 -0.76562,-1.1543 -0.71115,-0.81002 -0.83993,-0.85937 -2.25977,-0.85937 -0.84738,0 -1.63473,0.12691 -1.79883,0.29101 -0.32187,0.32187 -0.43419,10.90955 -0.11914,11.22461 0.0944,0.0943 0.94113,0.13831 1.88281,0.0996 l 1.7129,-0.0703 0.0742,-1.57032 c 0.12084,-2.57516 0.79233,-2.87301 2.07226,-0.91992 0.45996,0.70187 0.91105,1.52177 1.00195,1.82227 0.20267,0.67032 0.81748,0.83869 2.69532,0.74219 l 1.44922,-0.0742 0.0644,-5.35547 c 0.0738,-6.05538 0.036,-6.2055 -1.53125,-6.2793 z m -25.74024,0.043 c -3.57087,0 -4.62548,0.0711 -4.78711,0.32617 -0.30834,0.48659 -0.25647,2.98377 0.0684,3.3086 0.17006,0.17003 0.67514,0.22919 1.27539,0.15039 0.6766,-0.0889 1.14969,-0.0152 1.48047,0.23242 0.44221,0.33099 0.49086,0.67911 0.53516,3.84766 0.0268,1.91595 0.0536,3.56574 0.0606,3.66601 0.0212,0.31926 3.12783,0.20811 3.33008,-0.11914 0.10244,-0.16577 0.15885,-1.61507 0.12695,-3.2207 -0.069,-3.46994 0.14326,-4.09648 1.42188,-4.20899 1.08854,-0.0958 1.45674,-0.60236 1.43554,-1.97656 -0.0325,-2.10837 0.22342,-2.00586 -4.94726,-2.00586 z m 109.34961,0.0117 c -1.70295,0.0139 -1.99204,0.11008 -2.21289,0.41211 -0.3873,0.52965 -0.42214,1.65875 -0.0723,2.3125 0.16666,0.3114 0.50878,0.4707 1.01367,0.4707 1.51432,0 1.65235,0.37396 1.65235,4.51367 0,2.73752 0.0785,3.74359 0.30273,3.83789 0.16711,0.0703 0.95957,0.10578 1.76172,0.0801 l 1.45898,-0.0469 0.1211,-3.88867 c 0.0668,-2.13905 0.2102,-4.02625 0.31836,-4.19336 0.10816,-0.16711 0.53904,-0.30274 0.95703,-0.30274 0.90685,0 1.88476,-0.82822 1.88476,-1.5957 0,-0.29611 -0.18986,-0.7669 -0.42382,-1.04492 -0.39717,-0.47197 -0.69841,-0.50703 -4.53711,-0.54493 -0.93212,-0.009 -1.65696,-0.0144 -2.22461,-0.01 z m 12.27149,0 c -1.16376,0.012 -1.57305,0.0964 -1.70118,0.29883 -0.24925,0.39381 -0.30823,10.99646 -0.0625,11.24219 0.0891,0.0891 1.70313,0.15734 3.58594,0.15234 3.37044,-0.01 3.43484,-0.0215 4.16797,-0.66992 0.40954,-0.36222 1.05717,-1.20234 1.43945,-1.86719 0.6505,-1.13134 0.69314,-1.37564 0.67774,-3.81836 -0.0159,-2.54317 -0.0354,-2.63258 -0.76172,-3.51367 -1.10693,-1.3429 -2.42733,-1.74925 -5.91211,-1.81446 -0.57308,-0.0107 -1.04568,-0.0137 -1.43359,-0.01 z m -110.81446,0.0332 c -2.52575,0 -2.43945,-0.21511 -2.43945,6.08203 0,4.8085 0.0412,5.34239 0.42578,5.56641 0.23396,0.13626 1.20716,0.25186 2.16211,0.25586 1.36369,0.006 1.76889,-0.075 1.88477,-0.37695 0.25803,-0.67241 0.16362,-10.55383 -0.10547,-11.05664 -0.21142,-0.39506 -0.51989,-0.47071 -1.92774,-0.47071 z m -58.96093,0.002 c -2.89282,0 -4.01112,0.082 -4.19922,0.30859 -0.2904,0.34991 -0.46632,10.63406 -0.18946,11.08203 0.1175,0.19013 1.60227,0.27734 4.77149,0.27734 h 4.59961 l 0.14648,-0.58593 c 0.0808,-0.32177 0.0228,-0.81391 -0.12695,-1.09375 -0.23367,-0.43658 -0.4972,-0.50977 -1.85938,-0.50977 -1.78825,0 -2.52734,-0.28284 -2.52734,-0.9707 0,-0.64862 0.87056,-1.05284 1.90625,-0.88477 1.22453,0.19871 1.74023,-0.32903 1.74023,-1.77929 0,-0.62099 -0.13058,-1.2595 -0.29101,-1.41993 -0.1632,-0.1632 -0.94652,-0.29101 -1.77734,-0.29101 -1.58627,0 -2.48233,-0.40978 -2.2461,-1.02539 0.17116,-0.44602 1.23752,-0.67774 3.1211,-0.67774 1.4766,0 2.01351,-0.37547 1.73632,-1.21484 -0.37789,-1.14427 -0.65878,-1.21484 -4.80468,-1.21484 z m 38.97656,0 c -1.06657,0 -1.20741,0.066 -1.43555,0.66601 -0.13923,0.36626 -0.19003,1.00835 -0.11133,1.42774 0.0787,0.41939 0.0337,1.04967 -0.0996,1.40039 -0.23171,0.60948 -0.32118,0.63867 -2.05273,0.63867 -2.25936,0 -2.57617,-0.254 -2.57617,-2.06641 0,-0.8597 -0.13063,-1.43336 -0.38281,-1.68554 -0.4548,-0.45482 -2.30284,-0.51553 -2.72852,-0.0899 -0.3157,0.3157 -0.43741,10.90635 -0.12891,11.21485 0.26397,0.26396 2.87768,0.18287 3.15821,-0.0977 0.15613,-0.15618 0.21152,-0.90446 0.14062,-1.89649 -0.13974,-1.95301 0.12939,-2.35132 1.7461,-2.59375 2.35856,-0.35369 3.2313,0.38703 2.91796,2.47657 -0.0874,0.5782 -0.0902,1.32618 -0.006,1.66211 0.14005,0.558 0.26784,0.61132 1.4668,0.61132 2.22862,0 2.08008,0.39141 2.08008,-5.5371 0,-6.09135 -0.0128,-6.13086 -1.98828,-6.13086 z m 80.67383,2.41406 c 0.50105,0.0504 0.96868,0.22951 1.33984,0.5625 0.33528,0.3008 0.81593,0.66814 1.06836,0.8164 0.37475,0.22014 0.45898,0.55789 0.45898,1.8418 0,1.42318 -0.0704,1.64234 -0.73046,2.30078 -0.40107,0.40005 -1.10025,0.85582 -1.55469,1.01367 -1.02027,0.35438 -1.3095,0.34463 -2.75391,-0.0996 -1.1001,-0.33836 -1.16643,-0.41021 -1.5332,-1.67187 -0.31849,-1.09574 -0.33354,-1.48609 -0.0859,-2.3125 0.47433,-1.58317 2.28785,-2.60245 3.79101,-2.45117 z m 52.46289,0.71094 c 0.16619,-0.007 0.35204,-0.005 0.56054,0.006 0.71251,0.036 1.89563,1.27157 2.09766,2.1914 0.19871,0.90476 -0.95484,3.33571 -1.67578,3.5293 -1.87445,0.50335 -2.32813,-0.0319 -2.32813,-2.7461 0,-2.34939 0.18235,-2.92854 1.34571,-2.98046 z m -33.08008,6.5996 c -1.37461,-0.007 -1.83606,1.30765 -0.7168,2.04102 0.68425,0.44834 0.763,1.01266 0.23633,1.70898 -0.19629,0.25952 -0.35742,0.55984 -0.35742,0.66797 0,0.41178 0.9286,0.17275 1.54492,-0.39843 0.51139,-0.47395 0.64898,-0.83446 0.67188,-1.76172 0.0505,-2.04356 -0.0765,-2.25081 -1.37891,-2.25782 z m -5.8125,0.01 c -0.16425,-0.002 -0.33852,0.008 -0.52539,0.0293 -0.71228,0.0814 -1.02923,0.76282 -0.72461,1.55664 0.0906,0.23606 0.51689,0.34765 1.33789,0.34765 0.96266,0 1.23713,-0.0926 1.35156,-0.45312 0.28678,-0.90355 -0.28971,-1.46804 -1.43945,-1.48047 z m 49.75976,0.008 c -0.25604,-0.0394 -0.52392,9.3e-4 -0.76562,0.15235 -0.5025,0.31481 -0.64477,1.29351 -0.22656,1.55859 0.51343,0.32545 1.57348,0.24817 1.89453,-0.13867 0.5211,-0.62789 -0.13423,-1.45419 -0.90235,-1.57227 z"
     inkscape:connector-curvature="0" />
</svg>
