<?xml version="1.0" encoding="UTF-8" standalone="no"?>
<svg
   version="1.1"
   viewBox="0 0 500 200"
   id="svg30"
   sodipodi:docname="electron-mono.svg"
   width="500"
   height="200"
   inkscape:version="1.2.2 (b0a8486541, 2022-12-01)"
   xmlns:inkscape="http://www.inkscape.org/namespaces/inkscape"
   xmlns:sodipodi="http://sodipodi.sourceforge.net/DTD/sodipodi-0.dtd"
   xmlns="http://www.w3.org/2000/svg"
   xmlns:svg="http://www.w3.org/2000/svg">
  <defs
     id="defs34" />
  <sodipodi:namedview
     id="namedview32"
     pagecolor="#505050"
     bordercolor="#ffffff"
     borderopacity="1"
     inkscape:showpageshadow="0"
     inkscape:pageopacity="0"
     inkscape:pagecheckerboard="1"
     inkscape:deskcolor="#505050"
     showgrid="false"
     inkscape:zoom="1.5827407"
     inkscape:cx="351.9212"
     inkscape:cy="170.90608"
     inkscape:window-width="1670"
     inkscape:window-height="910"
     inkscape:window-x="0"
     inkscape:window-y="0"
     inkscape:window-maximized="1"
     inkscape:current-layer="svg30" />
  <path
     fill="#000000"
     d="m 350.24925,52.582336 c 2.96422,-16.165418 11.82327,-41.599905 30.36141,-45.3169429 q 2.39288,-0.4772327 5.53186,0.2218124 c 22.74585,5.0815205 32.04853,44.8800395 31.61163,64.3323135 a 1.0015165,1.0015165 0 0 1 -1.00152,0.981352 h -67.81409 a 0.61838604,0.61166446 87.6 0 1 -0.61167,-0.564614 c -0.50412,-6.600599 0.55117,-12.206403 1.92238,-19.653921 z"
     id="path2"
     style="stroke-width:0.672159;fill:#ffffff" />
  <path
     fill="#000000"
     d="m 88.94081,102.13388 q -5.296611,4.81938 -10.337802,6.41911 C 67.613213,112.02805 55.050566,106.38192 53.605424,94.30995 52.395539,84.200683 60.548824,75.765091 70.241353,74.817347 q 9.504325,-0.934301 17.27448,4.073282 a 0.30919302,0.30919302 0 0 0 0.477233,-0.241977 c 0.262142,-4.180828 0.591499,-9.632035 -2.103857,-12.918891 -2.728965,-3.333908 -7.313087,-4.073282 -11.47375,-3.757368 q -5.820895,0.443625 -9.705972,5.578918 a 0.69232351,0.68560192 25.4 0 1 -0.732653,0.25542 l -9.10103,-2.37272 A 0.54444858,0.54444858 0 0 1 54.546447,64.62742 q 5.827616,-9.86729 17.032502,-11.68884 c 10.263864,-1.666954 25.589084,0.309193 26.772083,13.638101 0.887249,10.095824 0.289028,20.722654 0.289028,31.08062 a 0.55789176,0.537727 0.4 0 0 0.55117,0.537727 l 8.22722,0.08738 a 0.36296572,0.35624413 0.6 0 1 0.35625,0.356244 l -0.0134,9.168248 a 0.45706795,0.44362477 0.4 0 1 -0.46379,0.44362 l -17.771878,-0.11426 a 0.36968731,0.34280096 0 0 1 -0.369688,-0.34281 v -5.54531 q 0,-0.30247 -0.21509,-0.11426 z M 87.46206,87.742959 c -5.162179,-4.053117 -14.599288,-7.474405 -20.36641,-2.648305 -4.758884,3.97918 -4.442969,11.903931 0.867085,15.036196 6.244355,3.66998 15.24456,-0.423465 19.741302,-5.202514 a 0.75281779,0.91413589 62.7 0 0 0.248699,-0.578056 l 0.07394,-5.498259 a 1.4921924,1.3174311 21.6 0 0 -0.564614,-1.109062 z"
     id="path4"
     style="stroke-width:0.672159;fill:#ffffff" />
  <path
     fill="#000000"
     d="m 149.37461,57.13285 -0.0672,-2.621419 a 0.68560192,0.60494287 89.4 0 1 0.60494,-0.699045 h 8.60363 a 0.45034636,0.45034636 0 0 1 0.45035,0.450346 v 19.022093 a 0.65199398,0.67888033 0.3 0 1 -0.65872,0.67888 l -8.62379,-0.0941 a 0.4301816,0.41673842 84.8 0 1 -0.4033,-0.349523 c -2.52061,-12.851677 -18.9885,-15.641136 -26.41586,-5.713351 -8.89938,11.89721 -2.6147,34.421249 15.31178,32.169518 q 8.9666,-1.122506 13.36252,-10.095825 a 0.4839543,0.51084065 25.9 0 1 0.65199,-0.241977 l 8.0323,3.804419 a 0.34280096,0.35624413 24 0 1 0.16804,0.457068 q -5.53187,12.730686 -19.23719,15.197506 c -21.68384,3.90525 -37.23759,-13.947291 -33.14415,-34.824542 3.17931,-16.225912 20.30592,-26.113367 35.9605,-19.821961 1.76105,0.712488 3.33391,1.895487 5.08824,2.856674 q 0.32264,0.181483 0.31592,-0.174761 z"
     id="path6"
     style="stroke-width:0.672159;fill:#ffffff" />
  <path
     fill="#000000"
     d="m 187.19698,52.636108 c 18.70618,-2.359277 33.59449,12.240011 31.92754,31.255382 -1.45859,16.70315 -15.24456,27.0275 -31.59146,25.53531 -33.42646,-3.0516 -34.17255,-52.515762 -0.33608,-56.790692 z m 3.65822,46.943096 A 18.538138,17.308088 89.6 0 0 208.0335,80.920683 18.538138,17.308088 89.6 0 0 190.59642,62.503869 18.538138,17.308088 89.6 0 0 173.41813,81.162391 18.538138,17.308088 89.6 0 0 190.8552,99.579204 Z"
     id="path8"
     style="stroke-width:0.672159;fill:#ffffff" />
  <path
     fill="#000000"
     d="m 239.67241,64.587091 q 0.0202,1.445141 0.57806,0.114267 c 4.26821,-10.156319 12.75757,-12.609698 23.09537,-12.233289 a 0.61166446,0.63182922 1.3 0 1 0.5915,0.63855 l -0.10082,9.685808 a 0.42346001,0.43690318 0.5 0 1 -0.42346,0.430181 c -9.2153,-0.01344 -19.8018,0.477233 -20.93103,12.098858 q -1.03512,10.640273 -0.64527,22.161074 a 0.72593144,0.72593144 0 0 0 0.72593,0.699045 l 10.63355,0.02689 a 0.34280096,0.33607937 0.6 0 1 0.33608,0.336079 l 0.0403,9.369886 a 0.34952255,0.34280096 0 0 1 -0.34952,0.3428 h -32.64003 a 0.43690318,0.42346001 0.4 0 1 -0.4369,-0.43018 l 0.0941,-9.195125 a 0.35624413,0.35624413 0 0 1 0.34952,-0.349522 l 9.88746,-0.0941 A 0.56461335,0.58477811 89.7 0 0 231.05531,97.6237 V 64.338392 a 0.44362477,0.44362477 0 0 0 -0.44363,-0.443625 h -10.10254 a 0.3764089,0.3764089 0 0 1 -0.37641,-0.376409 v -9.006927 a 0.67888033,0.69232351 0.3 0 1 0.6856,-0.692323 l 18.34993,0.114267 a 0.34952255,0.34280096 89.4 0 1 0.3428,0.342801 z"
     id="path10"
     style="stroke-width:0.672159;fill:#ffffff" />
  <path
     fill="#000000"
     d="m 286.55548,97.307778 a 0.89397113,0.87380637 0.4 0 0 0.88725,0.880528 l 8.17345,0.0941 a 0.3764089,0.3764089 0 0 1 0.36969,0.349522 q 0.31592,4.624452 -0.0807,9.248912 a 0.35624413,0.36296572 2.3 0 1 -0.35624,0.33607 l -28.66085,0.0403 a 0.54444858,0.54444858 0 0 1 -0.54445,-0.54444 v -8.899389 a 0.64527239,0.63855081 0 0 1 0.64527,-0.638551 l 8.47592,-0.04033 a 0.45706795,0.46378953 0 0 0 0.45707,-0.46379 V 64.351835 a 0.45706795,0.45706795 0 0 0 -0.45707,-0.457068 h -8.53641 a 0.58477811,0.58477811 0 0 1 -0.58478,-0.584778 v -8.865774 a 0.63182922,0.63182922 0 0 1 0.63183,-0.631829 h 19.2439 a 0.45034636,0.43690318 0.4 0 1 0.45035,0.443625 l -0.0538,5.08152 q -0.007,0.604943 0.47723,0.25542 c 5.96877,-4.342145 13.11382,-7.797041 20.58822,-6.929956 9.39678,1.088897 11.64851,7.844092 11.80311,16.104923 q 0.27559,14.027953 0.29575,28.916269 a 0.49067588,0.49067588 0 0 0 0.49068,0.490676 h 8.05918 a 0.52428382,0.52428382 0 0 1 0.52428,0.524284 v 9.107753 a 0.44362477,0.45034636 0 0 1 -0.44362,0.45034 l -18.82045,-0.0403 a 0.57133493,0.57133493 0 0 1 -0.57133,-0.57805 q 0.11427,-17.939919 -0.10755,-35.019472 -0.0739,-5.471373 -0.84692,-7.272758 c -3.36751,-7.857536 -16.73003,-0.389852 -21.13267,3.367515 a 0.77298256,0.73265303 71.2 0 0 -0.25542,0.557892 z"
     id="path12"
     style="stroke-width:0.672159;fill:#ffffff" />
  <path
     fill="#000000"
     d="m 385.51742,110.61652 q 14.51862,2.2719 28.17689,7.64245 a 0.42346001,0.39657366 16.5 0 1 0.26886,0.45706 l -1.06873,5.24284 a 0.40329525,0.3764089 16.3 0 1 -0.531,0.26887 q -30.24715,-11.0839 -61.63024,-16.41412 c -0.34952,-0.0605 -1.59302,0.0134 -1.34432,-0.57806 a 0.55789176,0.4301816 10.6 0 1 0.51084,-0.26214 q 15.3185,0.96119 31.28227,2.88356 a 0.36968731,0.35624413 3.9 0 0 0.41002,-0.3428 l 0.0336,-2.25173 a 0.46378953,0.43690318 5.2 0 0 -0.38313,-0.4369 C 364.94936,104.02937 352.46065,93.005962 349.33511,76.618732 a 0.38313048,0.38985207 84.6 0 1 0.38313,-0.457068 q 21.13939,0 41.79483,0 c 5.67302,0 16.62249,-0.356244 24.93037,-0.0067 a 0.33607937,0.33607937 0 0 1 0.31591,0.396573 c -2.97094,16.151975 -15.23111,26.886353 -31.168,30.213533 a 0.537727,0.63182922 83 0 0 -0.49739,0.54445 l 0.0134,2.93061 a 0.47723271,0.36296572 5.3 0 0 0.41002,0.37641 z"
     id="path14"
     style="stroke-width:0.672159;fill:#ffffff" />
  <path
     fill="#000000"
     d="m 130.60793,181.43517 a 0.75281779,0.75953938 0 0 0 0.75282,0.75954 h 7.2257 a 0.3764089,0.36968731 0.5 0 1 0.37641,0.37641 l -0.0269,9.32284 a 0.34280096,0.34280096 0 0 1 -0.3428,0.3428 l -27.73327,0.0403 a 0.61838604,0.59822128 0.3 0 1 -0.61838,-0.60495 l 0.14787,-9.13463 a 0.36296572,0.35624413 0.5 0 1 0.36297,-0.34953 l 8.7515,-0.0336 a 0.47723271,0.47723271 0 0 0 0.47724,-0.47724 l -0.12099,-56.83102 a 0.34952255,0.33607937 0.6 0 0 -0.3428,-0.33608 l -8.82545,-0.24197 a 0.35624413,0.33607937 1.1 0 1 -0.34952,-0.34281 l 0.0471,-9.26234 a 0.3764089,0.35624413 0.5 0 1 0.37641,-0.34953 l 19.50605,0.11427 a 0.34280096,0.34280096 0 0 1 0.3428,0.3428 z"
     id="path16"
     style="stroke-width:0.672159;fill:#ffffff" />
  <path
     fill="#000000"
     d="m 301.49757,148.23052 q 0.007,1.89549 0.75954,0.1546 c 4.32198,-9.94123 12.77774,-12.28706 22.95422,-11.90393 a 0.53100541,0.55789176 0.7 0 1 0.51084,0.55117 l 0.11427,9.45727 a 0.74609621,0.71248827 89.5 0 1 -0.70577,0.75282 c -14.22288,0.047 -20.26558,1.80139 -21.22677,17.24759 q -0.52428,8.38182 -0.23526,17.16694 a 0.55789176,0.55789176 0 0 0 0.5579,0.53773 h 10.8352 a 0.34952255,0.34952255 0 0 1 0.34952,0.34952 v 9.18841 a 0.54444858,0.54444858 0 0 1 -0.54445,0.54445 h -32.31739 q -0.8402,0 -1.64679,0.2487 c -5.23612,1.63334 -13.48351,1.98959 -17.22071,-2.85668 -2.21812,-2.87684 -2.56765,-7.34669 -2.56765,-11.00324 q 0.0202,-15.12357 0.0202,-30.01861 a 0.73265303,0.73265303 0 0 0 -0.73265,-0.73265 h -5.88139 a 0.4301816,0.41673842 0.4 0 1 -0.43018,-0.42346 l 0.0941,-9.20185 a 0.36296572,0.36296572 0 0 1 0.35624,-0.35625 l 5.95533,-0.0807 a 0.61838604,0.65199398 89.4 0 0 0.63855,-0.61838 v -7.23243 a 0.79314732,0.82003367 67.6 0 1 0.25542,-0.58478 l 9.95467,-9.43039 q 0.4033,-0.38313 0.4033,0.16132 l 0.0202,17.20054 a 0.46378953,0.4839543 0 0 0 0.46379,0.48396 h 28.76839 a 0.46378953,0.46378953 0 0 1 0.46379,0.46379 z m -29.48088,31.82 c 0.0739,6.17042 6.91651,4.27493 10.21681,2.37272 a 1.6535105,1.6669537 30 0 1 0.8402,-0.22853 h 9.37662 a 0.44362477,0.44362477 0 0 0 0.44362,-0.44363 v -33.2853 a 0.55117017,0.55117017 0 0 0 -0.55117,-0.55117 H 272.3931 a 0.54444858,0.54444858 0 0 0 -0.54445,0.54445 q -0.0202,15.67474 0.16804,31.59146 z"
     id="path18"
     style="stroke-width:0.672159;fill:#ffffff" />
  <path
     fill="#000000"
     d="m 100.64309,175.74198 c 2.34584,0.79315 6.00238,2.33239 8.79184,3.77081 a 0.30919302,0.31591461 29.9 0 1 0.11427,0.45035 c -7.27276,11.39309 -22.376168,15.76212 -34.925372,12.73069 -14.404362,-3.47506 -23.350794,-14.74717 -22.194681,-30.15977 1.344317,-17.93991 19.492603,-30.1732 36.639373,-24.78249 13.36924,4.19427 20.41346,14.71355 20.68232,29.00365 a 0.63855081,0.63855081 0 0 1 -0.63855,0.65199 H 65.321151 a 0.94102224,0.94102224 0 0 0 -0.914136,1.16284 q 2.991107,12.48199 13.617937,15.00258 c 8.381819,1.98959 16.676258,-0.92758 22.087138,-7.66933 a 0.47723271,0.49067588 29.1 0 1 0.531,-0.16132 z m -6.741749,-24.77577 c -9.685807,-9.09431 -25.528589,-5.77384 -29.178411,7.64245 a 0.57805652,0.57805652 0 0 0 0.557892,0.73265 h 32.77446 a 0.52428382,0.51756223 82.8 0 0 0.504119,-0.652 q -1.115783,-4.39591 -4.65806,-7.7231 z"
     id="path20"
     style="stroke-width:0.672159;fill:#ffffff" />
  <path
     fill="#000000"
     d="m 188.81016,175.70837 c 2.96422,1.04857 5.90827,2.43994 8.78511,3.77754 a 0.30919302,0.31591461 29.6 0 1 0.12771,0.46379 c -17.14677,25.05807 -61.63023,14.27665 -56.98562,-19.29768 2.10386,-15.18407 16.16542,-25.55548 31.16128,-23.96246 16.19231,1.72073 25.59581,14.39092 25.93861,30.26731 a 0.43690318,0.43690318 0 0 1 -0.4369,0.45034 h -44.43642 a 0.54444858,0.54444858 0 0 0 -0.53772,0.61839 c 2.80962,18.92799 24.98414,20.84364 35.85966,7.83065 a 0.47723271,0.4839543 29.9 0 1 0.52429,-0.14788 z m -2.15091,-17.14677 c -5.47809,-16.441 -29.13808,-17.33497 -33.89024,0.0672 a 0.56461335,0.56461335 0 0 0 0.54445,0.71249 h 32.78118 a 0.59149969,0.59149969 0 0 0 0.56461,-0.77971 z"
     id="path22"
     style="stroke-width:0.672159;fill:#ffffff" />
  <path
     fill="#000000"
     d="m 242.11907,141.14597 0.0202,-2.82979 a 0.47723271,0.49067588 0.4 0 1 0.47724,-0.48395 h 8.6574 a 0.45034636,0.45034636 0 0 1 0.45035,0.45035 v 19.02209 a 0.65199398,0.67888033 0.3 0 1 -0.65872,0.67888 l -8.6238,-0.0941 a 0.4301816,0.41001683 85.4 0 1 -0.39657,-0.35625 c -1.57285,-8.30116 -8.41543,-12.40133 -16.43428,-11.48047 -20.07066,2.31223 -18.3096,39.73803 4.34215,38.03746 q 9.71269,-0.72593 14.37747,-10.17648 a 0.4839543,0.50411906 26.2 0 1 0.64527,-0.23526 l 8.00541,3.77754 a 0.34952255,0.35624413 24.8 0 1 0.16804,0.46379 c -5.78728,13.32218 -19.29095,17.87942 -32.84839,14.86143 -10.84192,-2.41305 -18.16173,-12.85168 -19.8018,-23.37768 -1.9627,-12.6097 3.62966,-24.70856 15.34538,-30.30764 7.4408,-3.55572 16.38051,-3.69688 23.4449,0.74609 q 1.24349,0.77971 2.52732,1.48547 a 0.20164762,0.20836921 14.4 0 0 0.30247,-0.18148 z"
     id="path24"
     style="stroke-width:0.672159;fill:#ffffff" />
  <path
     fill="#000000"
     d="m 355.44503,137.11974 c 16.26624,3.19275 24.8161,18.11468 22.03337,33.95746 -2.97095,16.91151 -20.58823,25.83778 -36.57888,21.38137 -11.02341,-3.07177 -18.41715,-12.1123 -19.94295,-23.37768 -2.8029,-20.70249 14.73372,-35.83951 34.48846,-31.96115 z m -5.92797,46.47904 a 18.538138,17.308088 89.5 0 0 17.14563,-18.68843 18.538138,17.308088 89.5 0 0 -17.4692,-18.38637 18.538138,17.308088 89.5 0 0 -17.14563,18.68843 18.538138,17.308088 89.5 0 0 17.4692,18.38637 z"
     id="path26"
     style="stroke-width:0.672159;fill:#ffffff" />
  <path
     fill="#000000"
     d="m 400.53344,143.6464 q 4.65806,-3.36751 10.10927,-5.53859 c 8.89938,-3.54899 20.05049,-1.714 22.06025,9.30268 q 0.40329,2.19796 0.4369,5.88139 0.14116,14.21616 0.18821,28.43904 a 0.35624413,0.35624413 0 0 0 0.3428,0.34952 l 8.32132,0.22853 a 0.36296572,0.35624413 0.6 0 1 0.34953,0.34953 l 0.0941,9.00692 a 0.60494287,0.62510763 89.7 0 1 -0.62511,0.61167 h -18.81372 a 0.3764089,0.3764089 0 0 1 -0.37641,-0.37641 q 0,-16.0041 0,-31.55113 c 0,-3.97918 0.38313,-9.76647 -2.09042,-12.55593 -4.58412,-5.1689 -15.95704,1.55269 -19.99,4.9202 a 0.73937462,0.73937462 0 0 0 -0.26886,0.57134 v 28.46592 a 0.44362477,0.44362477 0 0 0 0.44362,0.44363 h 8.38182 a 0.57133493,0.55789176 0.3 0 1 0.57134,0.56461 l -0.10755,9.06742 a 0.46378953,0.45706795 0.4 0 1 -0.46379,0.45035 l -28.69445,-0.12099 a 0.35624413,0.34280096 0 0 1 -0.35625,-0.3428 v -9.1548 a 0.35624413,0.35624413 0 0 1 0.34953,-0.35625 l 8.53641,-0.0874 a 0.57133493,0.59149969 89.7 0 0 0.58478,-0.57133 v -33.28529 a 0.44362477,0.44362477 0 0 0 -0.44363,-0.44362 h -8.44231 a 0.67888033,0.65199398 0.3 0 1 -0.67888,-0.65872 l 0.0941,-8.95987 a 0.35624413,0.35624413 0 0 1 0.35625,-0.34952 h 19.41194 a 0.36968731,0.34280096 0.5 0 1 0.36969,0.34952 l -0.0807,5.08824 q -0.0134,0.57806 0.43018,0.26214 z"
     id="path28"
     style="stroke-width:0.672159;fill:#ffffff" />
</svg>
