<?xml version="1.0" encoding="UTF-8" standalone="no"?>
<!-- Created with Inkscape (http://www.inkscape.org/) -->

<svg
   xmlns:dc="http://purl.org/dc/elements/1.1/"
   xmlns:cc="http://creativecommons.org/ns#"
   xmlns:rdf="http://www.w3.org/1999/02/22-rdf-syntax-ns#"
   xmlns:svg="http://www.w3.org/2000/svg"
   xmlns="http://www.w3.org/2000/svg"
   xmlns:sodipodi="http://sodipodi.sourceforge.net/DTD/sodipodi-0.dtd"
   xmlns:inkscape="http://www.inkscape.org/namespaces/inkscape"
   width="220.84372"
   height="179.49583"
   viewBox="0 0 58.431565 47.491607"
   version="1.1"
   id="svg8"
   inkscape:version="0.92.5 (2060ec1f9f, 2020-04-08)"
   sodipodi:docname="fbneo.svg">
  <defs
     id="defs2">
    <clipPath
       clipPathUnits="userSpaceOnUse"
       id="clipPath16">
      <path
         inkscape:connector-curvature="0"
         d="M 0,618.062 H 1949.984 V 0 H 0 Z"
         id="path18" />
    </clipPath>
    <clipPath
       id="clp2"
       style="clip-rule:nonzero">
      <path
         id="path5264"
         d="M 234.2,0.1382 H 5879.3 V 7919 H 234.2 Z"
         inkscape:connector-curvature="0" />
    </clipPath>
    <clipPath
       id="clp3"
       style="clip-rule:nonzero">
      <path
         id="path5273"
         d="M 234.06,0 H 5879.3 V 7919 H 234.06 Z"
         inkscape:connector-curvature="0" />
    </clipPath>
    <clipPath
       id="clp4"
       style="clip-rule:nonzero">
      <path
         id="path5282"
         d="M 437.5,278.39 H 1028 V 456.94 H 437.5 Z"
         inkscape:connector-curvature="0" />
    </clipPath>
    <clipPath
       id="clp5"
       style="clip-rule:nonzero">
      <path
         id="path5291"
         d="M 234.06,0 H 5879.3 V 7919 H 234.06 Z"
         inkscape:connector-curvature="0" />
    </clipPath>
    <clipPath
       id="clp6"
       style="clip-rule:nonzero">
      <path
         id="path5330"
         d="M 437.5,278.39 H 1028 V 456.94 H 437.5 Z"
         inkscape:connector-curvature="0" />
    </clipPath>
    <clipPath
       id="clp7"
       style="clip-rule:nonzero">
      <path
         id="path5341"
         d="M 234.06,0 H 5879.3 V 7919 H 234.06 Z"
         inkscape:connector-curvature="0" />
    </clipPath>
    <clipPath
       id="clp8"
       style="clip-rule:nonzero">
      <path
         id="path5418"
         d="m 4026.3,282.71 h 699.8 v 170.38 h -699.8 z"
         inkscape:connector-curvature="0" />
    </clipPath>
    <clipPath
       id="clp9"
       style="clip-rule:nonzero">
      <path
         id="path5427"
         d="M 234.06,0 H 5879.3 V 7919 H 234.06 Z"
         inkscape:connector-curvature="0" />
    </clipPath>
    <clipPath
       id="clp10"
       style="clip-rule:nonzero">
      <path
         id="path5476"
         d="M 2444.9,428.65 V 306.69 h 506 v 121.96"
         inkscape:connector-curvature="0" />
    </clipPath>
    <clipPath
       id="clp11"
       style="clip-rule:nonzero">
      <path
         id="path5485"
         d="M 234.06,0 H 5879.3 V 7919 H 234.06 Z"
         inkscape:connector-curvature="0" />
    </clipPath>
    <clipPath
       id="clp12"
       style="clip-rule:nonzero">
      <path
         id="path5496"
         d="M 2444.9,428.65 V 306.69 h 506 v 121.96"
         inkscape:connector-curvature="0" />
    </clipPath>
    <clipPath
       id="clp13"
       style="clip-rule:nonzero">
      <path
         id="path5505"
         d="M 234.06,0 H 5879.3 V 7919 H 234.06 Z"
         inkscape:connector-curvature="0" />
    </clipPath>
    <clipPath
       id="clp14"
       style="clip-rule:nonzero">
      <path
         id="path5514"
         d="M 2444.9,428.65 V 306.69 h 506 v 121.96"
         inkscape:connector-curvature="0" />
    </clipPath>
    <clipPath
       id="clp15"
       style="clip-rule:nonzero">
      <path
         id="path5523"
         d="M 234.06,0 H 5879.3 V 7919 H 234.06 Z"
         inkscape:connector-curvature="0" />
    </clipPath>
    <clipPath
       id="clipPath5767"
       style="clip-rule:nonzero">
      <path
         id="path5769"
         d="M 234.2,0.1382 H 5879.3 V 7919 H 234.2 Z"
         inkscape:connector-curvature="0" />
    </clipPath>
    <clipPath
       id="clipPath5775"
       style="clip-rule:nonzero">
      <path
         id="path5777"
         d="M 234.06,0 H 5879.3 V 7919 H 234.06 Z"
         inkscape:connector-curvature="0" />
    </clipPath>
    <clipPath
       id="clipPath5783"
       style="clip-rule:nonzero">
      <path
         id="path5785"
         d="M 437.5,278.39 H 1028 V 456.94 H 437.5 Z"
         inkscape:connector-curvature="0" />
    </clipPath>
    <clipPath
       id="clipPath5791"
       style="clip-rule:nonzero">
      <path
         id="path5793"
         d="M 234.06,0 H 5879.3 V 7919 H 234.06 Z"
         inkscape:connector-curvature="0" />
    </clipPath>
    <clipPath
       id="clipPath5814"
       style="clip-rule:nonzero">
      <path
         id="path5816"
         d="M 437.5,278.39 H 1028 V 456.94 H 437.5 Z"
         inkscape:connector-curvature="0" />
    </clipPath>
    <clipPath
       id="clipPath5823"
       style="clip-rule:nonzero">
      <path
         id="path5825"
         d="M 234.06,0 H 5879.3 V 7919 H 234.06 Z"
         inkscape:connector-curvature="0" />
    </clipPath>
    <clipPath
       id="clipPath5865"
       style="clip-rule:nonzero">
      <path
         id="path5867"
         d="m 4026.3,282.71 h 699.8 v 170.38 h -699.8 z"
         inkscape:connector-curvature="0" />
    </clipPath>
    <clipPath
       id="clipPath5873"
       style="clip-rule:nonzero">
      <path
         id="path5875"
         d="M 234.06,0 H 5879.3 V 7919 H 234.06 Z"
         inkscape:connector-curvature="0" />
    </clipPath>
    <clipPath
       id="clipPath5901"
       style="clip-rule:nonzero">
      <path
         id="path5903"
         d="M 2444.9,428.65 V 306.69 h 506 v 121.96"
         inkscape:connector-curvature="0" />
    </clipPath>
    <clipPath
       id="clipPath5909"
       style="clip-rule:nonzero">
      <path
         id="path5911"
         d="M 234.06,0 H 5879.3 V 7919 H 234.06 Z"
         inkscape:connector-curvature="0" />
    </clipPath>
    <clipPath
       id="clipPath5918"
       style="clip-rule:nonzero">
      <path
         id="path5920"
         d="M 2444.9,428.65 V 306.69 h 506 v 121.96"
         inkscape:connector-curvature="0" />
    </clipPath>
    <clipPath
       id="clipPath5926"
       style="clip-rule:nonzero">
      <path
         id="path5928"
         d="M 234.06,0 H 5879.3 V 7919 H 234.06 Z"
         inkscape:connector-curvature="0" />
    </clipPath>
    <clipPath
       id="clipPath5934"
       style="clip-rule:nonzero">
      <path
         id="path5936"
         d="M 2444.9,428.65 V 306.69 h 506 v 121.96"
         inkscape:connector-curvature="0" />
    </clipPath>
    <clipPath
       id="clipPath5942"
       style="clip-rule:nonzero">
      <path
         id="path5944"
         d="M 234.06,0 H 5879.3 V 7919 H 234.06 Z"
         inkscape:connector-curvature="0" />
    </clipPath>
    <clipPath
       id="clipPath14221"
       style="clip-rule:nonzero">
      <path
         d="M 234.06,0 H 5879.3 V 7919 H 234.06 Z"
         id="path14223"
         inkscape:connector-curvature="0" />
    </clipPath>
    <clipPath
       id="clipPath14217"
       style="clip-rule:nonzero">
      <path
         d="M 2444.9,428.65 V 306.69 h 506 v 121.96"
         id="path14219"
         inkscape:connector-curvature="0" />
    </clipPath>
    <clipPath
       id="clipPath14213"
       style="clip-rule:nonzero">
      <path
         d="M 234.06,0 H 5879.3 V 7919 H 234.06 Z"
         id="path14215"
         inkscape:connector-curvature="0" />
    </clipPath>
    <clipPath
       id="clipPath14209"
       style="clip-rule:nonzero">
      <path
         d="M 2444.9,428.65 V 306.69 h 506 v 121.96"
         id="path14211"
         inkscape:connector-curvature="0" />
    </clipPath>
    <clipPath
       id="clipPath14205"
       style="clip-rule:nonzero">
      <path
         d="M 234.06,0 H 5879.3 V 7919 H 234.06 Z"
         id="path14207"
         inkscape:connector-curvature="0" />
    </clipPath>
    <clipPath
       id="clipPath14201"
       style="clip-rule:nonzero">
      <path
         d="M 2444.9,428.65 V 306.69 h 506 v 121.96"
         id="path14203"
         inkscape:connector-curvature="0" />
    </clipPath>
    <clipPath
       id="clipPath14197"
       style="clip-rule:nonzero">
      <path
         d="M 234.06,0 H 5879.3 V 7919 H 234.06 Z"
         id="path14199"
         inkscape:connector-curvature="0" />
    </clipPath>
    <clipPath
       id="clipPath14193"
       style="clip-rule:nonzero">
      <path
         d="m 4026.3,282.71 h 699.8 v 170.38 h -699.8 z"
         id="path14195"
         inkscape:connector-curvature="0" />
    </clipPath>
    <clipPath
       id="clipPath14189"
       style="clip-rule:nonzero">
      <path
         d="M 234.06,0 H 5879.3 V 7919 H 234.06 Z"
         id="path14191"
         inkscape:connector-curvature="0" />
    </clipPath>
    <clipPath
       id="clipPath14185"
       style="clip-rule:nonzero">
      <path
         d="M 437.5,278.39 H 1028 V 456.94 H 437.5 Z"
         id="path14187"
         inkscape:connector-curvature="0" />
    </clipPath>
    <clipPath
       id="clipPath14181"
       style="clip-rule:nonzero">
      <path
         d="M 234.06,0 H 5879.3 V 7919 H 234.06 Z"
         id="path14183"
         inkscape:connector-curvature="0" />
    </clipPath>
    <clipPath
       id="clipPath14177"
       style="clip-rule:nonzero">
      <path
         d="M 437.5,278.39 H 1028 V 456.94 H 437.5 Z"
         id="path14179"
         inkscape:connector-curvature="0" />
    </clipPath>
    <clipPath
       id="clipPath14173"
       style="clip-rule:nonzero">
      <path
         d="M 234.06,0 H 5879.3 V 7919 H 234.06 Z"
         id="path14175"
         inkscape:connector-curvature="0" />
    </clipPath>
    <clipPath
       id="clipPath14169"
       style="clip-rule:nonzero">
      <path
         d="M 234.2,0.1382 H 5879.3 V 7919 H 234.2 Z"
         id="path14171"
         inkscape:connector-curvature="0" />
    </clipPath>
    <clipPath
       id="clipPath14165"
       style="clip-rule:nonzero">
      <path
         d="M 234.06,0 H 5879.3 V 7919 H 234.06 Z"
         id="path14167"
         inkscape:connector-curvature="0" />
    </clipPath>
    <clipPath
       id="clipPath14161"
       style="clip-rule:nonzero">
      <path
         d="M 2444.9,428.65 V 306.69 h 506 v 121.96"
         id="path14163"
         inkscape:connector-curvature="0" />
    </clipPath>
    <clipPath
       id="clipPath14157"
       style="clip-rule:nonzero">
      <path
         d="M 234.06,0 H 5879.3 V 7919 H 234.06 Z"
         id="path14159"
         inkscape:connector-curvature="0" />
    </clipPath>
    <clipPath
       id="clipPath14153"
       style="clip-rule:nonzero">
      <path
         d="M 2444.9,428.65 V 306.69 h 506 v 121.96"
         id="path14155"
         inkscape:connector-curvature="0" />
    </clipPath>
    <clipPath
       id="clipPath14149"
       style="clip-rule:nonzero">
      <path
         d="M 234.06,0 H 5879.3 V 7919 H 234.06 Z"
         id="path14151"
         inkscape:connector-curvature="0" />
    </clipPath>
    <clipPath
       id="clipPath14145"
       style="clip-rule:nonzero">
      <path
         d="M 2444.9,428.65 V 306.69 h 506 v 121.96"
         id="path14147"
         inkscape:connector-curvature="0" />
    </clipPath>
    <clipPath
       id="clipPath14141"
       style="clip-rule:nonzero">
      <path
         d="M 234.06,0 H 5879.3 V 7919 H 234.06 Z"
         id="path14143"
         inkscape:connector-curvature="0" />
    </clipPath>
    <clipPath
       id="clipPath14137"
       style="clip-rule:nonzero">
      <path
         d="m 4026.3,282.71 h 699.8 v 170.38 h -699.8 z"
         id="path14139"
         inkscape:connector-curvature="0" />
    </clipPath>
    <clipPath
       id="clipPath14133"
       style="clip-rule:nonzero">
      <path
         d="M 234.06,0 H 5879.3 V 7919 H 234.06 Z"
         id="path14135"
         inkscape:connector-curvature="0" />
    </clipPath>
    <clipPath
       id="clipPath14129"
       style="clip-rule:nonzero">
      <path
         d="M 437.5,278.39 H 1028 V 456.94 H 437.5 Z"
         id="path14131"
         inkscape:connector-curvature="0" />
    </clipPath>
    <clipPath
       id="clipPath14125"
       style="clip-rule:nonzero">
      <path
         d="M 234.06,0 H 5879.3 V 7919 H 234.06 Z"
         id="path14127"
         inkscape:connector-curvature="0" />
    </clipPath>
    <clipPath
       id="clipPath14121"
       style="clip-rule:nonzero">
      <path
         d="M 437.5,278.39 H 1028 V 456.94 H 437.5 Z"
         id="path14123"
         inkscape:connector-curvature="0" />
    </clipPath>
    <clipPath
       id="clipPath14117"
       style="clip-rule:nonzero">
      <path
         d="M 234.06,0 H 5879.3 V 7919 H 234.06 Z"
         id="path14119"
         inkscape:connector-curvature="0" />
    </clipPath>
    <clipPath
       id="clipPath14113"
       style="clip-rule:nonzero">
      <path
         d="M 234.2,0.1382 H 5879.3 V 7919 H 234.2 Z"
         id="path14115"
         inkscape:connector-curvature="0" />
    </clipPath>
    <inkscape:perspective
       id="perspective10"
       inkscape:persp3d-origin="372.04724 : 350.78739 : 1"
       inkscape:vp_z="744.09449 : 526.18109 : 1"
       inkscape:vp_y="0 : 999.99999 : 0"
       inkscape:vp_x="0 : 526.18109 : 1"
       sodipodi:type="inkscape:persp3d" />
    <inkscape:perspective
       sodipodi:type="inkscape:persp3d"
       inkscape:vp_x="0 : 0.5 : 1"
       inkscape:vp_y="0 : 999.99999 : 0"
       inkscape:vp_z="1 : 0.5 : 1"
       inkscape:persp3d-origin="0.5 : 0.33333333 : 1"
       id="perspective2824" />
  </defs>
  <sodipodi:namedview
     id="base"
     pagecolor="#ffffff"
     bordercolor="#666666"
     borderopacity="1.0"
     inkscape:pageopacity="0.0"
     inkscape:pageshadow="2"
     inkscape:zoom="1.1842658"
     inkscape:cx="276.66005"
     inkscape:cy="99.759698"
     inkscape:document-units="mm"
     inkscape:current-layer="layer1"
     showgrid="false"
     units="px"
     inkscape:pagecheckerboard="true"
     inkscape:window-width="1366"
     inkscape:window-height="740"
     inkscape:window-x="0"
     inkscape:window-y="0"
     inkscape:window-maximized="1" />
  <metadata
     id="metadata5">
    <rdf:RDF>
      <cc:Work
         rdf:about="">
        <dc:format>image/svg+xml</dc:format>
        <dc:type
           rdf:resource="http://purl.org/dc/dcmitype/StillImage" />
        <dc:title />
      </cc:Work>
    </rdf:RDF>
  </metadata>
  <g
     inkscape:label="Layer 1"
     inkscape:groupmode="layer"
     id="layer1"
     transform="translate(-80.402842,-248.33773)">
    <path
       id="path3505"
       d="m 138.66072,267.04054 -18.50161,-0.006 -39.756268,-12.59926 c 0,0 0,-4.05033 0,-6.09372 0.177699,-0.008 18.342464,-10e-4 27.260308,-10e-4 6.62578,0 13.25166,7.3e-4 19.87745,-3.1e-4 2.51408,-4.1e-4 4.69594,0.89337 6.59536,2.49555 2.31351,1.95169 3.70985,4.47498 4.48088,7.37063 0.0355,0.1331 0.0431,0.27664 0.0432,0.41553 0.002,2.67242 7.2e-4,8.41799 7.2e-4,8.41799 z"
       inkscape:connector-curvature="0"
       style="clip-rule:evenodd;fill:#ffffff;fill-rule:evenodd;stroke-width:0.10349394" />
    <path
       id="path3511"
       d="m 116.44656,267.06122 c 0,5.1155 0,10.18608 0,15.31545 1.72617,0 3.4183,0 5.1363,0 0,4.5143 0,8.96971 0,13.45266 -9.30534,0 -18.58492,0 -27.893687,0 0,-2.3075 0,-4.59285 0,-6.92189 2.250786,-1.13543 4.517097,-2.27852 6.816527,-3.43848 0,-7.80271 0,-15.59239 0,-23.46052 5.34349,1.69379 10.62055,3.36635 15.94086,5.05278 z"
       inkscape:connector-curvature="0"
       style="clip-rule:evenodd;fill:#ffffff;fill-rule:evenodd;stroke-width:0.10349394" />
    <path
       id="path3517"
       d="m 117.66545,268.88956 c 7.06554,0 14.10375,0 21.16896,0 0,3.94229 0,7.85757 0,11.79955 -7.06542,0 -14.10374,0 -21.16896,0 0,-3.94229 0,-7.85757 0,-11.79955 z"
       inkscape:connector-curvature="0"
       style="clip-rule:evenodd;fill:#ffffff;fill-rule:evenodd;stroke-width:0.10349394" />
  </g>
</svg>
