<?xml version="1.0" encoding="UTF-8" standalone="no"?>
<svg
   xmlns:dc="http://purl.org/dc/elements/1.1/"
   xmlns:cc="http://creativecommons.org/ns#"
   xmlns:rdf="http://www.w3.org/1999/02/22-rdf-syntax-ns#"
   xmlns:svg="http://www.w3.org/2000/svg"
   xmlns="http://www.w3.org/2000/svg"
   xmlns:sodipodi="http://sodipodi.sourceforge.net/DTD/sodipodi-0.dtd"
   xmlns:inkscape="http://www.inkscape.org/namespaces/inkscape"
   width="495.9317"
   height="143.12325"
   viewBox="0 0 495.9317 143.12325"
   version="1.1"
   id="svg74"
   sodipodi:docname="fds.svg"
   inkscape:version="1.0.1 (1.0.1+r73)">
  <metadata
     id="metadata80">
    <rdf:RDF>
      <cc:Work
         rdf:about="">
        <dc:format>image/svg+xml</dc:format>
        <dc:type
           rdf:resource="http://purl.org/dc/dcmitype/StillImage" />
        <dc:title>syslogo</dc:title>
      </cc:Work>
    </rdf:RDF>
  </metadata>
  <defs
     id="defs78" />
  <sodipodi:namedview
     pagecolor="#ffffff"
     bordercolor="#666666"
     borderopacity="1"
     objecttolerance="10"
     gridtolerance="10"
     guidetolerance="10"
     inkscape:pageopacity="0"
     inkscape:pageshadow="2"
     inkscape:window-width="1366"
     inkscape:window-height="740"
     id="namedview76"
     showgrid="false"
     inkscape:pagecheckerboard="true"
     inkscape:zoom="1.1594395"
     inkscape:cx="240"
     inkscape:cy="41.243514"
     inkscape:window-x="0"
     inkscape:window-y="0"
     inkscape:window-maximized="1"
     inkscape:current-layer="svg74"
     inkscape:document-rotation="0" />
  <title
     id="title2">syslogo</title>
  <g
     id="Page-1"
     style="fill:none;fill-rule:evenodd;stroke:none;stroke-width:1"
     transform="scale(1.034279)">
    <g
       id="syslogo">
      <g
         id="Group-10"
         transform="translate(0,119.9)"
         style="fill:#ffffff">
        <polygon
           id="path7807"
           points="45.252786,2.3140298e-14 45.252786,4.5711048 67.378869,7.1970563 67.378869,2.8204682 " />
        <polygon
           id="path7807-3"
           points="45.228472,5.6903667 45.228472,10.261472 67.354555,12.887423 67.354555,8.5108349 " />
        <polygon
           id="path7807-3-9"
           points="45.277101,11.282674 45.277101,15.853779 67.403184,18.47973 67.403184,14.103142 " />
        <rect
           id="rect7839"
           x="70.354095"
           y="0.43765914"
           width="3.9875581"
           height="11.038728"
           style="fill-rule:nonzero" />
        <rect
           id="rect7841"
           x="95.406776"
           y="6.9539104"
           width="21.104881"
           height="4.4252172"
           style="fill-rule:nonzero" />
        <rect
           id="rect7843"
           x="152.1743"
           y="0.63217574"
           width="12.789364"
           height="4.473846"
           style="fill-rule:nonzero" />
        <rect
           id="rect7845"
           x="126.73258"
           y="0.58354336"
           width="22.028826"
           height="4.6683602"
           style="fill-rule:nonzero" />
        <rect
           id="rect7845-3"
           x="126.65964"
           y="12.837996"
           width="22.028826"
           height="4.6683602"
           style="fill-rule:nonzero" />
        <rect
           id="rect7864"
           x="145.16287"
           y="3.8416739"
           width="3.5985279"
           height="11.379129"
           style="fill-rule:nonzero" />
        <rect
           id="rect7866"
           x="220.28117"
           y="7.2456856"
           width="21.348024"
           height="4.7656183"
           style="fill-rule:nonzero" />
        <path
           d="m 18.916586,5.3005356 c 0,8.5860484 -6.175852,7.8292284 -6.175852,7.8292284 H 2.1396652 v 4.522476 l 13.2756508,0.04863 c 4.050246,-0.208755 6.953912,-6.000268 6.953912,-8.9476927 l 0.09726,-8.266888 H 0 v 4.8628764 z"
           id="path7870"
           inkscape:connector-curvature="0" />
        <path
           d="m 196.24556,0.74709845 c 1.68068,0 3.04314,1.35476115 3.04314,3.02594365 0,1.6711825 -1.36246,3.0259436 -3.04314,3.0259436 -1.68067,0 -3.04313,-1.3547611 -3.04313,-3.0259436 0,-1.6711825 1.36246,-3.02594365 3.04313,-3.02594365 z m -9.7e-4,1.83841825 c -0.63619,0 -1.15192,0.5311279 -1.15192,1.1863074 0,0.6551795 0.51573,1.1863074 1.15192,1.1863074 0.63619,0 1.15192,-0.5311279 1.15192,-1.1863074 0,-0.6551795 -0.51573,-1.1863074 -1.15192,-1.1863074 z"
           id="Combined-Shape"
           inkscape:connector-curvature="0"
           style="fill-rule:nonzero" />
        <polygon
           id="path7945"
           points="202.61816,13.504204 202.54939,17.56172 220.42996,17.56172 220.42996,13.366661 216.78508,13.366661 216.78508,4.9765453 204.1999,4.9765453 204.1999,9.4810732 213.96545,9.4810732 213.96545,13.504204 " />
        <rect
           id="rect7947"
           x="250.6431"
           y="7.3491578"
           width="13.891833"
           height="4.6764584"
           style="fill-rule:nonzero" />
        <path
           d="m 244.52243,6.1456577 c 2.93751,0 3.1905,-2.6868488 3.33542,-5.29539978 h 18.94653 V 9.9280888 c 0,1.9312962 -2.73419,7.4960872 -6.15504,7.4960872 h -14.47639 v -3.988744 h 12.72271 c 3.05326,0 4.43576,-4.7161841 4.43576,-7.7711743 h -12.82587 c 0,1.0982334 -2.61517,5.2954033 -5.94873,5.2954033 z"
           id="path7951"
           inkscape:connector-curvature="0" />
        <path
           d="M 88.85734,0.31608625 V 6.6621389 c 0,2.8069789 -2.06938,6.3460531 -5.130333,6.3460531 H 73.587909 v 4.619733 h 11.42776 c 3.564711,0 7.269997,-4.333912 7.269997,-7.9264867 l -0.02433,-9.38535205 z"
           id="path7953"
           inkscape:connector-curvature="0" />
        <path
           d="M 171.06692,0.85616884 V 6.7208378 c 0,2.8069789 -1.86307,6.3116682 -4.92402,6.3116682 h -13.93214 v 4.400906 l 15.17218,0.02429 c 3.56471,0 6.69968,-3.898695 6.69968,-7.4912704 l 0.0444,-9.11026776 z"
           id="path7953-8"
           inkscape:connector-curvature="0" />
        <path
           d="M 199.66695,9.859317 180.68603,9.824933 c 0,1.669896 0.0507,3.541728 2.23507,3.541728 h 16.57392 v 4.160671 h -18.19005 c -1.94257,0 -3.81681,-1.771538 -3.81681,-4.057515 V 0.81587034 h 3.23226 V 4.7702296 h 11.58798 c 0,1.0127579 0.47024,1.3754281 1.4442,1.3754281 h 5.91435 z"
           id="path7998"
           inkscape:connector-curvature="0" />
        <path
           d="m 24.352714,17.554982 h 7.877857 c 2.279093,0 3.063614,-2.714437 3.063614,-3.598528 h 4.133443 c 2.205582,0 3.647157,-1.726645 3.647157,-3.793045 V 4.4252173 H 24.401342 v 4.4252173 l 14.637256,-0.097258 v 1.1670899 h -7.00254 v 3.5012695 h -7.634716 z"
           id="path8000"
           inkscape:connector-curvature="0" />
      </g>
      <path
         d="m 23.097101,57.574892 c -0.13843,-0.5559 -0.34771,-1.00825 -0.62566,-1.35705 -0.62675,-0.76518 -1.70585,-0.97446 -3.2373,-0.62675 v 35.926401 c 0.62566,0.20819 1.21753,0.27795 1.77452,0.20819 0.48832,-0.06976 0.92214,-0.27795 1.30582,-0.62566 0.38259,-0.3488 0.64419,-1.01043 0.78262,-1.98598 z m 1.25459,-4.54203 c 0.62566,0.59187 1.11289,1.23606 1.46169,1.93148 0.34771,0.76736 0.5559,1.63609 0.62675,2.61055 v 30.286741 c 0.06867,1.74182 -0.0872,3.08143 -0.47088,4.0221 -0.38259,0.93958 -0.85238,1.61756 -1.40937,2.03503 -0.62675,0.55699 -1.32326,0.87091 -2.08844,0.93958 H 16.20503 L 15.99684,51.935232 h 5.639661 c 1.18374,0.14061 2.08844,0.50576 2.71519,1.09763 z m 15.35156,-4.230291 c -0.20928,-1.53036 -0.66163,-2.92338 -1.35705,-4.17688 -0.55808,-1.04422 -1.4279,-2.00124 -2.61164,-2.87215 -1.18374,-0.87091 -2.78495,-1.23606 -4.80363,-1.09763 L 3.6722101,40.760551 V 106.86905 H 31.348401 c 1.46169,-0.27795 2.78386,-0.76627 3.9676,-1.46169 0.97555,-0.55699 1.91513,-1.39302 2.81983,-2.507 0.9047,-1.11398 1.4279,-2.64543 1.56742,-4.595437 z m -2.29881,-9.7119 c 1.81049,1.2535 3.16863,2.61055 4.07442,4.07224 0.97337,1.74182 1.56524,3.69074 1.77561,5.84785 v 48.145302 c 0,2.925557 -0.53955,5.205837 -1.61974,6.841927 -1.0791,1.63609 -2.28137,2.94082 -3.60245,3.91528 -1.53254,1.11398 -3.27218,1.88025 -5.2211,2.29772 H 0.33136001 V 37.001141 H 29.677431 c 3.34194,0.14061 5.91761,0.83603 7.72701,2.08953 z"
         id="Fill-1"
         inkscape:connector-curvature="0"
         style="fill:#ffffff" />
      <path
         d="m 51.191852,106.03302 h 13.36776 V 41.491941 h -13.36776 z m -3.343031,3.96978 H 68.109742 V 37.315061 H 47.848821 Z"
         id="Fill-3"
         inkscape:connector-curvature="0"
         style="fill:#ffffff" />
      <path
         d="m 93.070743,52.040962 c 1.11289,0.13952 1.96636,0.40003 2.55823,0.78371 0.59187,0.38259 1.06166,0.8175 1.40937,1.30473 0.3488,0.55808 0.59187,1.18374 0.73139,1.87916 v 3.02911 l 13.577037,8.14557 -0.20928,-17.85747 c 0.0687,-1.810491 -0.33136,-3.289621 -1.20118,-4.439571 -0.86982,-1.14777 -1.82684,-2.03612 -2.87106,-2.66287 -1.25459,-0.76518 -2.6814,-1.25241 -4.28261,-1.46278 H 82.522812 c -1.6023,0.14061 -2.8558,0.57552 -3.7605,1.30582 -0.9047,0.73139 -1.60121,1.48022 -2.08844,2.2454 -0.55808,0.97446 -0.94067,2.01977 -1.14886,3.13375 v 16.917891 c -0.06976,1.39302 0.20819,2.61164 0.83603,3.65586 0.62566,1.04422 1.32217,1.94892 2.08844,2.71519 0.83494,0.9047 1.845371,1.70585 3.029111,2.40127 l 17.12717,11.071131 v 6.78743 c 0,1.32326 -0.27904,2.35004 -0.83603,3.08143 -0.55699,0.73139 -1.18374,1.27094 -1.87916,1.61865 -0.76627,0.41747 -1.67206,0.69651 -2.71628,0.83494 -1.32217,-0.13843 -2.33151,-0.43382 -3.02802,-0.88617 -0.69651,-0.45235 -1.21862,-0.95702 -1.56633,-1.5151 -0.41856,-0.62566 -0.6976,-1.35705 -0.83603,-2.19417 v -3.34085 l -12.218901,-7.310631 -0.20819,17.127171 c 0.06867,2.018677 0.50467,3.567567 1.30473,4.646667 0.80006,1.08019 1.68841,1.89878 2.66287,2.45468 1.113981,0.62784 2.401271,1.01043 3.86405,1.14886 h 20.365558 c 2.01759,-0.0687 3.53269,-0.52102 4.54312,-1.35705 1.00934,-0.83603 1.75708,-1.74073 2.24431,-2.71519 0.55699,-1.18374 0.83603,-2.507 0.83603,-3.969777 V 83.058002 c 0.0687,-0.836029 -0.13952,-1.670969 -0.62675,-2.507 -0.48832,-0.83494 -1.04422,-1.56633 -1.66988,-2.19308 -0.76736,-0.76627 -1.6023,-1.49766 -2.507,-2.19308 L 87.743913,64.154132 v -7.7281 c 0.06976,-1.18374 0.40003,-2.05356 0.9919,-2.60946 0.59187,-0.55699 1.20118,-0.97555 1.82793,-1.25459 0.76627,-0.27795 1.6023,-0.45126 2.507,-0.52102 z m 1.67097,9.08515 v -3.02911 c 0.06867,-1.39193 -0.24416,-2.22796 -0.93958,-2.50591 -0.27904,-0.13843 -0.66272,-0.13843 -1.14886,0 -0.55808,0 -0.95811,0.12208 -1.20227,0.36624 -0.24307,0.24307 -0.40003,0.53955 -0.4687,0.88726 -0.14061,0.34771 -0.14061,0.76518 0,1.25241 v 3.96869 l 16.082947,10.44329 c 2.01759,1.11507 3.56757,2.29772 4.64667,3.55122 1.08019,1.2535 1.82793,2.43724 2.2454,3.55122 0.48723,1.253501 0.73139,2.575671 0.73139,3.967601 v 15.9794 c -0.13952,2.297717 -0.73139,4.160527 -1.77561,5.587337 -1.04422,1.4279 -2.22796,2.52444 -3.55122,3.28962 -1.53145,0.9047 -3.2373,1.56742 -5.11646,1.9838 H 83.148472 c -2.646519,-0.0698 -4.71752,-0.7303 -6.21409,-1.9838 -1.49657,-1.25241 -2.59311,-2.57567 -3.28962,-3.96869 -0.83494,-1.67097 -1.35814,-3.55013 -1.56633,-5.638567 V 75.015982 l 19.007421,11.593241 v 4.07224 c 0,0.62675 0.0872,1.09763 0.2616,1.41046 0.17331,0.31283 0.40003,0.53955 0.67907,0.67798 0.27795,0.20928 0.62566,0.31392 1.04422,0.31392 1.04422,-0.06976 1.63609,-0.48723 1.77561,-1.2535 0.06867,-0.27795 0.03379,-0.66163 -0.10464,-1.14886 v -4.80363 l -13.88987,-8.354851 c -2.438331,-1.32217 -4.265171,-2.73263 -5.482701,-4.2292 -1.21971,-1.49657 -2.10697,-2.83836 -2.66396,-4.0221 -0.62675,-1.39193 -0.93958,-2.78386 -0.93958,-4.17688 V 47.966541 c 0.13843,-2.64434 0.76518,-4.6979 1.87916,-6.16068 1.11398,-1.46278 2.36748,-2.54188 3.7605,-3.23839 1.60012,-0.76518 3.37573,-1.21753 5.325741,-1.35705 h 18.694587 c 3.20133,0.13952 5.67345,0.73139 7.41527,1.77561 1.73964,1.04422 3.0629,2.22796 3.9676,3.55013 0.97555,1.53254 1.60121,3.23839 1.88025,5.11755 v 26.630881 z"
         id="Fill-4"
         inkscape:connector-curvature="0"
         style="fill:#ffffff" />
      <path
         d="m 156.15013,41.387301 h -12.11426 l -0.10464,17.441091 -9.81763,10.02691 -0.41747,-27.884381 h -12.2189 v 64.957459 h 12.11535 V 78.984672 l 9.50262,8.981601 v 18.066747 h 12.84565 V 82.953362 l -8.25021,-9.60835 8.45949,-9.81654 z m 3.34194,23.290031 -7.51882,8.66768 7.51882,9.18979 V 110.0028 H 140.17182 V 89.741883 l -2.71628,-2.507 V 110.21099 H 117.92601 V 37.210421 h 19.52953 v 22.975021 l 2.71628,-3.23621 V 37.210421 h 19.32025 z"
         id="Fill-5"
         inkscape:connector-curvature="0"
         style="fill:#ffffff" />
      <path
         d="m 214.53054,52.040962 c 1.11289,0.13952 1.96745,0.40003 2.55932,0.78371 0.59187,0.38259 1.06057,0.8175 1.40937,1.30473 0.34771,0.55808 0.59078,1.18374 0.7303,1.87916 v 3.02911 l 13.57704,8.14557 -0.20928,-17.85747 c 0.0698,-1.810491 -0.33136,-3.289621 -1.20009,-4.439571 -0.87091,-1.14777 -1.82793,-2.03612 -2.87215,-2.66287 -1.25459,-0.76518 -2.6814,-1.25241 -4.28261,-1.46278 h -20.25983 c -1.6023,0.14061 -2.8558,0.57552 -3.7605,1.30582 -0.9047,0.73139 -1.60121,1.48022 -2.08844,2.2454 -0.55808,0.97446 -0.93958,2.01977 -1.14886,3.13375 v 16.917891 c -0.0698,1.39302 0.20928,2.61164 0.83603,3.65586 0.62566,1.04422 1.32217,1.94892 2.08844,2.71519 0.83494,0.9047 1.84537,1.70585 3.02911,2.40127 l 17.12717,11.071131 v 6.78743 c 0,1.32326 -0.27904,2.35004 -0.83603,3.08143 -0.55699,0.73139 -1.18374,1.27094 -1.87916,1.61865 -0.76627,0.41747 -1.67097,0.69651 -2.71519,0.83494 -1.32326,-0.13843 -2.3326,-0.43382 -3.02911,-0.88617 -0.69542,-0.45235 -1.21862,-0.95702 -1.56633,-1.5151 -0.41856,-0.62566 -0.6976,-1.35705 -0.83603,-2.19417 v -3.34085 l -12.2189,-7.310631 -0.20819,17.127171 c 0.0687,2.018677 0.50467,3.567567 1.30473,4.646667 0.80006,1.08019 1.68841,1.89878 2.66287,2.45468 1.11398,0.62784 2.40236,1.01043 3.86405,1.14886 h 20.36556 c 2.01868,-0.0687 3.53269,-0.52102 4.54312,-1.35705 1.00934,-0.83603 1.75708,-1.74073 2.24431,-2.71519 0.55699,-1.18374 0.83603,-2.507 0.83603,-3.969777 V 83.058002 c 0.0698,-0.836029 -0.13952,-1.670969 -0.62675,-2.507 -0.48723,-0.83494 -1.04422,-1.56633 -1.66988,-2.19308 -0.76627,-0.76627 -1.6023,-1.49766 -2.507,-2.19308 l -18.58995,-12.01071 v -7.7281 c 0.0698,-1.18374 0.40003,-2.05356 0.9919,-2.60946 0.59187,-0.55699 1.20118,-0.97555 1.82793,-1.25459 0.76627,-0.27795 1.6023,-0.45126 2.507,-0.52102 z m 1.67097,9.08515 v -3.02911 c 0.0698,-1.39193 -0.24416,-2.22796 -0.93958,-2.50591 -0.27904,-0.13843 -0.66272,-0.13843 -1.14886,0 -0.55808,0 -0.95811,0.12208 -1.20118,0.36624 -0.24416,0.24307 -0.40112,0.53955 -0.46979,0.88726 -0.14061,0.34771 -0.14061,0.76518 0,1.25241 v 3.96869 l 16.08295,10.44329 c 2.01759,1.11507 3.56757,2.29772 4.64667,3.55122 1.08019,1.2535 1.82793,2.43724 2.2454,3.55122 0.48723,1.253501 0.73139,2.575671 0.73139,3.967601 v 15.9794 c -0.13952,2.297717 -0.73139,4.160527 -1.77561,5.587337 -1.04422,1.4279 -2.22796,2.52444 -3.55122,3.28962 -1.53145,0.9047 -3.2373,1.56742 -5.11646,1.9838 h -21.09695 c -2.64543,-0.0698 -4.71752,-0.7303 -6.21409,-1.9838 -1.49657,-1.25241 -2.59311,-2.57567 -3.28853,-3.96869 -0.83603,-1.67097 -1.35814,-3.55013 -1.56742,-5.638567 V 75.015982 l 19.00851,11.593241 v 4.07224 c 0,0.62675 0.0861,1.09763 0.26051,1.41046 0.17331,0.31283 0.40003,0.53955 0.67907,0.67798 0.27795,0.20928 0.62566,0.31392 1.04422,0.31392 1.04422,-0.06976 1.63609,-0.48723 1.77561,-1.2535 0.0687,-0.27795 0.0338,-0.66163 -0.10464,-1.14886 v -4.80363 l -13.88987,-8.354851 c -2.43724,-1.32217 -4.26517,-2.73263 -5.4827,-4.2292 -1.21971,-1.49657 -2.10697,-2.83836 -2.66396,-4.0221 -0.62675,-1.39193 -0.93958,-2.78386 -0.93958,-4.17688 V 47.966541 c 0.13843,-2.64434 0.76518,-4.6979 1.88025,-6.16068 1.11289,-1.46278 2.36639,-2.54188 3.75941,-3.23839 1.60121,-0.76518 3.37573,-1.21753 5.32683,-1.35705 h 18.6935 c 3.20133,0.13952 5.67345,0.73139 7.41527,1.77561 1.73964,1.04422 3.0629,2.22796 3.9676,3.55013 0.97555,1.53254 1.60121,3.23839 1.88025,5.11755 v 26.630881 z"
         id="Fill-6"
         inkscape:connector-curvature="0"
         style="fill:#ffffff" />
      <path
         d="m 279.80192,41.283751 h -12.63528 v 28.511131 c -0.0698,0.9047 -0.31501,1.70476 -0.73139,2.40127 -0.34989,0.62675 -0.88835,1.18374 -1.61865,1.67097 -0.73248,0.48723 -1.79196,0.76627 -3.18498,0.83603 -1.04531,0.06976 -1.95001,-0.03488 -2.71628,-0.31392 -0.69651,-0.27795 -1.32217,-0.76518 -1.87916,-1.46169 -0.55808,-0.69651 -0.87091,-1.8094 -0.93958,-3.34303 V 41.283751 h -12.21999 v 37.074171 c 0.0709,1.39302 0.38368,2.64652 0.94176,3.7605 0.48723,0.974461 1.23388,1.862811 2.24322,2.662871 1.00934,0.80006 2.48847,1.20009 4.43848,1.20009 h 15.56302 v 5.43147 c -0.14061,0.9047 -0.45344,1.70476 -0.94176,2.40127 -0.41638,0.55808 -1.04531,1.0791 -1.87916,1.56633 -0.83712,0.48832 -1.95001,0.73139 -3.34303,0.73139 h -13.99233 v 10.339737 h 26.62979 c 1.18374,-0.13843 2.22905,-0.48723 3.13375,-1.04422 0.76409,-0.48832 1.47804,-1.21753 2.13967,-2.19308 0.66163,-0.97555 0.9919,-2.29772 0.9919,-3.969777 z m 3.44658,-3.86405 v 62.034082 c -0.0698,2.437237 -0.57443,4.369807 -1.51292,5.796617 -0.94176,1.4279 -2.00124,2.52444 -3.18498,3.28962 -1.32435,0.83494 -2.85471,1.42681 -4.59653,1.77561 H 243.14631 V 92.561713 h 19.63308 v -3.44767 h -13.36776 c -2.57567,-0.13734 -4.52568,-0.76518 -5.84785,-1.87916 -1.32435,-1.11398 -2.26284,-2.36748 -2.82092,-3.75941 -0.69542,-1.601211 -1.04313,-3.37573 -1.04313,-5.325741 V 37.419701 h 20.05273 v 33.314761 h 3.44658 V 37.419701 Z"
         id="Fill-7"
         inkscape:connector-curvature="0"
         style="fill:#ffffff" />
      <path
         d="m 308.10595,52.040962 c 1.11398,0.13952 1.96745,0.40003 2.55932,0.78371 0.59187,0.38259 1.05948,0.8175 1.40937,1.30473 0.34662,0.55808 0.59187,1.18374 0.7303,1.87916 v 3.02911 l 13.57813,8.14557 -0.21146,-17.85747 c 0.0709,-1.810491 -0.32918,-3.289621 -1.20009,-4.439571 -0.87091,-1.14777 -1.82684,-2.03612 -2.87215,-2.66287 -1.2535,-0.76518 -2.68031,-1.25241 -4.28152,-1.46278 h -20.26092 c -1.60012,0.14061 -2.85471,0.57552 -3.75941,1.30582 -0.9047,0.73139 -1.60121,1.48022 -2.08844,2.2454 -0.55808,0.97446 -0.94067,2.01977 -1.14995,3.13375 v 16.917891 c -0.0698,1.39302 0.20928,2.61164 0.83712,3.65586 0.62566,1.04422 1.32217,1.94892 2.08844,2.71519 0.83494,0.9047 1.84537,1.70585 3.02911,2.40127 l 17.12717,11.071131 v 6.78743 c 0,1.32326 -0.27904,2.35004 -0.83603,3.08143 -0.55808,0.73139 -1.18374,1.27094 -1.88025,1.61865 -0.76627,0.41747 -1.67097,0.69651 -2.7141,0.83494 -1.32435,-0.13843 -2.33369,-0.43382 -3.0302,-0.88617 -0.69542,-0.45235 -1.21753,-0.95702 -1.56633,-1.5151 -0.41747,-0.62566 -0.69651,-1.35705 -0.83494,-2.19417 v -3.34085 l -12.21999,-7.310631 -0.20819,17.127171 c 0.0698,2.018677 0.50467,3.567567 1.30473,4.646667 0.80115,1.08019 1.68841,1.89878 2.66396,2.45468 1.11289,0.62784 2.40127,1.01043 3.86405,1.14886 h 20.36447 c 2.01868,-0.0687 3.53378,-0.52102 4.54312,-1.35705 1.00934,-0.83603 1.75817,-1.74073 2.24649,-2.71519 0.55481,-1.18374 0.83385,-2.507 0.83385,-3.969777 V 83.058002 c 0.0709,-0.836029 -0.13843,-1.670969 -0.62566,-2.507 -0.48723,-0.83494 -1.04531,-1.56633 -1.67097,-2.19308 -0.76627,-0.76627 -1.60121,-1.49766 -2.50591,-2.19308 l -18.58995,-12.01071 v -7.7281 c 0.0687,-1.18374 0.40003,-2.05356 0.9919,-2.60946 0.59187,-0.55699 1.20118,-0.97555 1.82684,-1.25459 0.76627,-0.27795 1.60339,-0.45126 2.50809,-0.52102 z m 1.67097,9.08515 v -3.02911 c 0.0687,-1.39193 -0.24416,-2.22796 -0.94067,-2.50591 -0.27904,-0.13843 -0.66163,-0.13843 -1.14777,0 -0.55808,0 -0.95811,0.12208 -1.20227,0.36624 -0.24307,0.24307 -0.40003,0.53955 -0.4687,0.88726 -0.14061,0.34771 -0.14061,0.76518 0,1.25241 v 3.96869 l 16.08186,10.44329 c 2.01759,1.11507 3.56757,2.29772 4.64776,3.55122 1.0791,1.2535 1.82793,2.43724 2.2454,3.55122 0.48723,1.253501 0.7303,2.575671 0.7303,3.967601 v 15.9794 c -0.13843,2.297717 -0.7303,4.160527 -1.77561,5.587337 -1.04313,1.4279 -2.22687,2.52444 -3.55122,3.28962 -1.53036,0.9047 -3.23512,1.56742 -5.11537,1.9838 h -21.09695 c -2.64652,-0.0698 -4.71861,-0.7303 -6.21518,-1.9838 -1.49657,-1.25241 -2.59311,-2.57567 -3.28853,-3.96869 -0.83494,-1.67097 -1.35814,-3.55013 -1.56742,-5.638567 V 75.015982 l 19.0096,11.593241 v 4.07224 c 0,0.62675 0.085,1.09763 0.25942,1.41046 0.1744,0.31283 0.40003,0.53955 0.67907,0.67798 0.27904,0.20928 0.62566,0.31392 1.04531,0.31392 1.04313,-0.06976 1.635,-0.48723 1.77561,-1.2535 0.0676,-0.27795 0.0338,-0.66163 -0.10464,-1.14886 v -4.80363 l -13.89096,-8.354851 c -2.43724,-1.32217 -4.26408,-2.73263 -5.48161,-4.2292 -1.21971,-1.49657 -2.10806,-2.83836 -2.66396,-4.0221 -0.62784,-1.39193 -0.94067,-2.78386 -0.94067,-4.17688 V 47.966541 c 0.13843,-2.64434 0.76627,-4.6979 1.88025,-6.16068 1.11289,-1.46278 2.36748,-2.54188 3.75941,-3.23839 1.60121,-0.76518 3.37682,-1.21753 5.32683,-1.35705 h 18.6935 c 3.20242,0.13952 5.67345,0.73139 7.41527,1.77561 1.74073,1.04422 3.0629,2.22796 3.9676,3.55013 0.97555,1.53254 1.60121,3.23839 1.88025,5.11755 v 26.630881 z"
         id="Fill-8"
         inkscape:connector-curvature="0"
         style="fill:#ffffff" />
      <path
         d="m 367.42593,41.387301 h -30.80994 v 11.071131 h 8.77341 v 53.993148 h 12.7421 V 52.771262 h 9.29443 z m 4.07224,-3.75941 v 19.007421 h -8.9816 V 110.21099 H 341.42071 V 56.635312 h -8.56413 V 37.210421 Z"
         id="Fill-9"
         inkscape:connector-curvature="0"
         style="fill:#ffffff" />
      <path
         d="m 391.23807,68.749572 v -16.18759 h 13.78414 V 41.491941 h -26.4216 V 107.4958 h 26.4216 V 95.903653 H 391.02879 V 80.029983 H 405.2304 V 68.749572 Z m 4.07224,-12.32354 v 8.45949 h 13.36776 v 19.007421 h -13.78523 v 8.04093 h 13.78523 v 18.589947 l -33.94151,-0.20819 V 37.210421 h 34.35789 v 19.215611 z"
         id="Fill-10"
         inkscape:connector-curvature="0"
         style="fill:#ffffff" />
      <path
         d="m 475.8297,47.758352 c -0.0697,-1.183741 -0.34661,-2.227961 -0.83494,-3.132661 -0.41855,-0.76627 -1.13251,-1.47913 -2.14076,-2.14185 -1.00934,-0.66054 -2.42089,-0.9919 -4.23029,-0.9919 h -14.30625 c -1.11616,0.06976 -2.15929,0.34771 -3.13375,0.83603 -0.83712,0.41747 -1.68841,1.04531 -2.55932,1.87916 -0.87091,0.83603 -1.54998,1.95001 -2.03721,3.343031 -0.55808,-1.322171 -1.21753,-2.472121 -1.9838,-3.446581 -0.76736,-0.83494 -1.70585,-1.60121 -2.81874,-2.29772 -1.11616,-0.69651 -2.57894,-1.01043 -4.38834,-0.93958 l -19.52844,0.20819 v 65.377109 h 11.59215 V 57.993452 c -0.0698,-0.97555 0.10464,-1.84537 0.52211,-2.61164 0.3488,-0.69542 0.92323,-1.32217 1.72438,-1.87916 0.80006,-0.55699 2.00015,-0.83603 3.60136,-0.83603 0.83712,0 1.63718,0.20928 2.40345,0.62675 0.5559,0.3488 1.09654,0.95702 1.61865,1.82793 0.52102,0.87091 0.78262,2.14076 0.78262,3.81173 v 47.518548 h 12.32463 V 57.993452 c 0,-0.83494 0.20819,-1.63609 0.62566,-2.40236 0.34771,-0.62675 0.9047,-1.20118 1.67206,-1.7222 0.76409,-0.52211 1.91295,-0.78371 3.44658,-0.78371 0.83385,-0.06976 1.635,0.03488 2.40127,0.31283 0.62566,0.27904 1.20009,0.76627 1.7222,1.46278 0.52102,0.69542 0.78371,1.81049 0.78371,3.34085 v 48.249938 h 12.74101 z m -0.20819,-7.883971 c 1.39193,1.14777 2.36639,2.34895 2.92447,3.60136 0.69652,1.46278 1.00934,3.06508 0.93958,4.80472 V 110.62846 H 459.64102 V 58.201642 c -0.0698,-0.76518 -0.34662,-1.25241 -0.83385,-1.46169 -0.27904,-0.06976 -0.55808,-0.10464 -0.83712,-0.10464 -0.41747,0 -0.74665,0.10464 -0.9919,0.31392 -0.24307,0.20819 -0.43382,0.41747 -0.57225,0.62566 -0.21146,0.27904 -0.31501,0.55808 -0.31501,0.83603 V 110.41918 H 436.45781 V 58.514472 c 0,-0.76518 -0.27904,-1.35705 -0.83494,-1.77452 -0.27904,-0.20819 -0.55699,-0.34771 -0.83603,-0.41747 -0.48832,0 -0.87091,0.10464 -1.14995,0.31392 -0.27904,0.20819 -0.48723,0.45235 -0.62566,0.7303 -0.20928,0.27795 -0.31283,0.62675 -0.31283,1.04422 V 110.10635 H 413.69098 V 37.315061 h 24.33316 c 1.53145,-0.13952 2.87215,-0.01853 4.01992,0.36515 1.14995,0.38368 2.14185,0.85347 2.97788,1.41046 0.9047,0.62675 1.73964,1.35814 2.50591,2.19308 0.41747,-0.76627 0.93958,-1.37449 1.56742,-1.82793 0.62566,-0.45235 1.25132,-0.8175 1.87916,-1.09654 0.69651,-0.27904 1.42681,-0.52211 2.19308,-0.73139 h 16.39687 c 2.64434,0.3488 4.66411,1.09763 6.05713,2.24649 z"
         id="Fill-11"
         inkscape:connector-curvature="0"
         style="fill:#ffffff" />
      <polygon
         id="Fill-12"
         points="0.54500002,24.801861 0.54500002,0.72812002 13.33397,0.72812002 13.33397,5.1851302 5.0259902,5.1851302 5.0259902,10.59153 13.33397,10.59153 13.33397,15.192421 5.0259902,15.192421 5.0259902,24.801861 "
         style="fill:#ffffff" />
      <polygon
         id="Stroke-13"
         points="0.54500002,24.801861 0.54500002,0.72812002 13.33397,0.72812002 13.33397,5.1851302 5.0259902,5.1851302 5.0259902,10.59153 13.33397,10.59153 13.33397,15.192421 5.0259902,15.192421 5.0259902,24.801861 " />
      <path
         d="M 23.522201,16.50478 V 9.4808203 l -5.15461,7.0239597 z m 4.35673,8.297081 h -4.35673 v -3.74851 H 15.08233 l -2.50046,3.74851 H 7.4512402 L 24.329891,0.72812002 h 3.54904 z"
         id="Fill-14"
         inkscape:connector-curvature="0"
         style="fill:#ffffff" />
      <path
         d="M 23.522201,16.50478 V 9.4808203 l -5.15461,7.0239597 z m 4.35673,8.297081 h -4.35673 v -3.74851 H 15.08233 l -2.50046,3.74851 H 7.4512402 L 24.329891,0.72812002 h 3.54904 z"
         id="Stroke-15"
         inkscape:connector-curvature="0" />
      <polygon
         id="Fill-16"
         points="49.547041,24.801861 49.547041,12.66471 43.988041,24.801861 39.440561,24.801861 34.083211,12.66471 34.083211,24.801861 29.585871,24.801861 29.585871,0.72812002 34.639111,0.72812002 41.764441,16.91026 48.939912,0.72812002 54.044382,0.72812002 54.044382,24.801861 "
         style="fill:#ffffff" />
      <polygon
         id="Stroke-17"
         points="49.547041,24.801861 49.547041,12.66471 43.988041,24.801861 39.440561,24.801861 34.083211,12.66471 34.083211,24.801861 29.585871,24.801861 29.585871,0.72812002 34.639111,0.72812002 41.764441,16.91026 48.939912,0.72812002 54.044382,0.72812002 54.044382,24.801861 " />
      <polygon
         id="Fill-18"
         points="157.86688,24.801861 157.86688,12.66471 152.30788,24.801861 147.7604,24.801861 142.40414,12.66471 142.40414,24.801861 137.90571,24.801861 137.90571,0.72812002 142.96004,0.72812002 150.08428,16.91026 157.26084,0.72812002 162.36532,0.72812002 162.36532,24.801861 "
         style="fill:#ffffff" />
      <polygon
         id="Stroke-19"
         points="157.86688,24.801861 157.86688,12.66471 152.30788,24.801861 147.7604,24.801861 142.40414,12.66471 142.40414,24.801861 137.90571,24.801861 137.90571,0.72812002 142.96004,0.72812002 150.08428,16.91026 157.26084,0.72812002 162.36532,0.72812002 162.36532,24.801861 " />
      <polygon
         id="Fill-20"
         points="55.462472,0.72812002 55.462472,24.801861 60.117862,24.801861 60.117862,0.72812002 "
         style="fill:#ffffff" />
      <polygon
         id="Stroke-21"
         points="60.117862,24.801861 60.117862,0.72812002 55.463562,0.72812002 55.463562,24.801861 " />
      <polygon
         id="Fill-22"
         points="66.055092,0.72812002 66.055092,20.412431 72.120942,20.412431 72.120942,24.801861 61.400792,24.801861 61.400792,0.72812002 "
         style="fill:#ffffff" />
      <polygon
         id="Stroke-23"
         points="66.055092,0.72812002 66.055092,20.412431 72.120942,20.412431 72.120942,24.801861 61.400792,24.801861 61.400792,0.72812002 " />
      <polygon
         id="Fill-24"
         points="72.120942,0.72812002 77.010682,10.59153 81.758723,0.72812002 86.883903,0.72812002 79.173242,16.04044 79.173242,24.801861 74.659552,24.801861 74.659552,16.04044 66.947802,0.72812002 "
         style="fill:#ffffff" />
      <polygon
         id="Stroke-25"
         points="72.120942,0.72812002 77.010682,10.59153 81.758723,0.72812002 86.883903,0.72812002 79.173242,16.04044 79.173242,24.801861 74.659552,24.801861 74.659552,16.04044 66.947802,0.72812002 " />
      <path
         d="m 112.18498,7.3673102 c -2.04484,-3.8945701 -6.12689,-6.55199018 -10.83133,-6.55199018 -6.751457,0 -12.224347,5.47398018 -12.224347,12.22543998 0,6.752551 5.47289,12.224351 12.224347,12.224351 4.73714,0 8.84644,-2.69448 10.87493,-6.63483 l -5.53938,0.04578 c -1.36577,1.26004 -3.19043,2.02958 -5.19494,2.02958 -4.232467,0 -7.663787,-3.432411 -7.663787,-7.664881 0,-4.2324697 3.43132,-7.6637898 7.663787,-7.6637898 1.97617,0 3.77794,0.74665 5.13717,1.97508 z"
         id="Fill-26"
         inkscape:connector-curvature="0"
         style="fill:#ffffff" />
      <path
         d="m 112.18498,7.3673102 c -2.04484,-3.8945701 -6.12689,-6.55199018 -10.83133,-6.55199018 -6.751457,0 -12.224347,5.47398018 -12.224347,12.22543998 0,6.752551 5.47289,12.224351 12.224347,12.224351 4.73714,0 8.84644,-2.69448 10.87493,-6.63483 l -5.53938,0.04578 c -1.36577,1.26004 -3.19043,2.02958 -5.19494,2.02958 -4.232467,0 -7.663787,-3.432411 -7.663787,-7.664881 0,-4.2324697 3.43132,-7.6637898 7.663787,-7.6637898 1.97617,0 3.77794,0.74665 5.13717,1.97508 z"
         id="Stroke-27"
         inkscape:connector-curvature="0" />
      <path
         d="m 132.10473,13.04076 c 0,-4.2935097 -3.48255,-7.7749698 -7.77606,-7.7749698 -4.29351,0 -7.77388,3.4814601 -7.77388,7.7749698 0,4.29351 3.48037,7.774971 7.77388,7.774971 4.29351,0 7.77606,-3.481461 7.77606,-7.774971 m -7.82293,12.288661 c -6.78634,0 -12.28866,-5.50123 -12.28866,-12.288661 0,-6.7863398 5.50232,-12.28865998 12.28866,-12.28865998 6.78743,0 12.28866,5.50232018 12.28866,12.28865998 0,6.787431 -5.50123,12.288661 -12.28866,12.288661"
         id="Fill-28"
         inkscape:connector-curvature="0"
         style="fill:#ffffff" />
      <path
         d="m 132.10473,13.04076 c 0,-4.2935097 -3.48255,-7.7749698 -7.77606,-7.7749698 -4.29351,0 -7.77388,3.4814601 -7.77388,7.7749698 0,4.29351 3.48037,7.774971 7.77388,7.774971 4.29351,0 7.77606,-3.481461 7.77606,-7.774971 z m -7.82293,12.288661 c -6.78634,0 -12.28866,-5.50123 -12.28866,-12.288661 0,-6.7863398 5.50232,-12.28865998 12.28866,-12.28865998 6.78743,0 12.28866,5.50232018 12.28866,12.28865998 0,6.787431 -5.50123,12.288661 -12.28866,12.288661 z"
         id="Stroke-29"
         inkscape:connector-curvature="0" />
      <path
         d="M 168.43334,5.3617102 V 11.89081 l 3.51961,-0.0033 c 1.53908,-0.28667 2.70538,-1.63827 2.70538,-3.2612797 0,-1.6241001 -1.1663,-2.9746101 -2.70538,-3.2612801 z m 3.51961,-4.63032018 c 4.07333,0.32699998 7.27793,3.73652008 7.27793,7.89487028 0,4.1583497 -3.2046,7.5678697 -7.27793,7.8948707 l -3.51961,-0.01635 v 8.297081 h -4.5126 V 0.72812002 h 4.5126 z"
         id="Fill-30"
         inkscape:connector-curvature="0"
         style="fill:#ffffff" />
      <path
         d="M 168.43334,5.3617102 V 11.89081 l 3.51961,-0.0033 c 1.53908,-0.28667 2.70538,-1.63827 2.70538,-3.2612797 0,-1.6241001 -1.1663,-2.9746101 -2.70538,-3.2612801 z m 3.51961,-4.63032018 c 4.07333,0.32699998 7.27793,3.73652008 7.27793,7.89487028 0,4.1583497 -3.2046,7.5678697 -7.27793,7.8948707 l -3.51961,-0.01635 v 8.297081 h -4.5126 V 0.72812002 h 4.5126 z"
         id="Stroke-31"
         inkscape:connector-curvature="0" />
      <path
         d="m 234.08078,12.08592 c 1.54017,-0.28667 2.70538,-1.63827 2.70538,-3.2601897 0,-1.6241001 -1.16521,-2.9757001 -2.70538,-3.2623701 h -5.25816 V 12.09028 Z m -5.25816,13.028771 H 224.3558 V 0.93631003 l 6.20646,-0.00981 3.51852,0.00327 c 4.07333,0.32699997 7.27793,3.73761007 7.27793,7.89596027 0,3.3964397 -2.13967,6.2947497 -5.1448,7.4196297 l 5.20911,8.869331 h -4.88974 L 229.23355,12.64291 h -0.41093 z"
         id="Fill-32"
         inkscape:connector-curvature="0"
         style="fill:#ffffff" />
      <path
         d="m 234.08078,12.08592 c 1.54017,-0.28667 2.70538,-1.63827 2.70538,-3.2601897 0,-1.6241001 -1.16521,-2.9757001 -2.70538,-3.2623701 h -5.25816 V 12.09028 Z m -5.25816,13.028771 H 224.3558 V 0.93631003 l 6.20646,-0.00981 3.51852,0.00327 c 4.07333,0.32699997 7.27793,3.73761007 7.27793,7.89596027 0,3.3964397 -2.13967,6.2947497 -5.1448,7.4196297 l 5.20911,8.869331 h -4.88974 L 229.23355,12.64291 h -0.41093 z"
         id="Stroke-33"
         inkscape:connector-curvature="0" />
      <path
         d="m 185.11362,14.6387 0.002,3.518521 c 0.28776,1.54017 1.63827,2.70538 3.26128,2.70538 1.6241,0 2.9757,-1.16521 3.26237,-2.70538 l 0.003,-3.518521 0.012,-13.70238997 h 4.6216 V 14.6387 l -0.003,3.518521 c -0.327,4.07442 -3.73652,7.27793 -7.89596,7.27793 -4.15726,0 -7.56678,-3.20351 -7.89487,-7.27793 l 0.0163,-3.518521 -0.008,-13.70238997 h 4.63795 z"
         id="Fill-34"
         inkscape:connector-curvature="0"
         style="fill:#ffffff" />
      <path
         d="m 185.11362,14.6387 0.002,3.518521 c 0.28776,1.54017 1.63827,2.70538 3.26128,2.70538 1.6241,0 2.9757,-1.16521 3.26237,-2.70538 l 0.003,-3.518521 0.012,-13.70238997 h 4.6216 V 14.6387 l -0.003,3.518521 c -0.327,4.07442 -3.73652,7.27793 -7.89596,7.27793 -4.15726,0 -7.56678,-3.20351 -7.89487,-7.27793 l 0.0163,-3.518521 -0.008,-13.70238997 h 4.63795 z"
         id="Stroke-35"
         inkscape:connector-curvature="0" />
      <polygon
         id="Fill-36"
         points="209.54488,5.4925102 209.54488,0.93631003 196.94339,0.93631003 196.94339,5.4925102 200.89355,5.4925102 200.89355,25.114691 205.45411,25.114691 205.45411,5.4925102 "
         style="fill:#ffffff" />
      <polygon
         id="Stroke-37"
         points="209.54488,5.4925102 209.54488,0.93631003 196.94339,0.93631003 196.94339,5.4925102 200.89355,5.4925102 200.89355,25.114691 205.45411,25.114691 205.45411,5.4925102 " />
      <polygon
         id="Fill-38"
         points="223.17969,11.10274 223.17969,15.61752 215.13985,15.61752 215.13985,20.647871 223.17969,20.647871 223.17969,25.114691 210.64905,25.114691 210.64905,0.93631003 223.17969,0.93631003 223.17969,5.3617102 215.13985,5.3617102 215.13985,11.10274 "
         style="fill:#ffffff" />
      <polygon
         id="Stroke-39"
         points="223.17969,11.10274 223.17969,15.61752 215.13985,15.61752 215.13985,20.647871 223.17969,20.647871 223.17969,25.114691 210.64905,25.114691 210.64905,0.93631003 223.17969,0.93631003 223.17969,5.3617102 215.13985,5.3617102 215.13985,11.10274 " />
      <g
         id="Group-13"
         transform="translate(244.16001)"
         style="fill:#ffffff;fill-rule:nonzero">
        <polygon
           id="Path"
           points="3.0619233,1.1036505e-14 3.0619233,0.44376516 1.7874343,0.44376516 1.7874343,3.9005213 1.2851754,3.9005213 1.2851754,0.44376516 1.269198e-13,0.44376516 1.269198e-13,1.1036505e-14 " />
        <polygon
           id="polygon63"
           points="5.3960493,3.3161462 6.5198044,1.1036505e-14 7.2307286,1.1036505e-14 7.2307286,3.9005213 6.7189082,3.9005213 6.7189082,0.73117199 5.6530844,3.9005213 5.1390142,3.9005213 4.0743153,0.73117199 4.0743153,3.9005213 3.5602452,3.9005213 3.5602452,1.1036505e-14 4.2711693,1.1036505e-14 " />
      </g>
      <g
         id="g70"
         transform="translate(269.23001,119.9)"
         style="fill:#ffffff;fill-rule:nonzero">
        <polygon
           id="polygon66"
           points="3.0619233,1.1036505e-14 3.0619233,0.44376516 1.7874343,0.44376516 1.7874343,3.9005213 1.2851754,3.9005213 1.2851754,0.44376516 1.269198e-13,0.44376516 1.269198e-13,1.1036505e-14 " />
        <polygon
           id="polygon68"
           points="5.3960493,3.3161462 6.5198044,1.1036505e-14 7.2307286,1.1036505e-14 7.2307286,3.9005213 6.7189082,3.9005213 6.7189082,0.73117199 5.6530844,3.9005213 5.1390142,3.9005213 4.0743153,0.73117199 4.0743153,3.9005213 3.5602452,3.9005213 3.5602452,1.1036505e-14 4.2711693,1.1036505e-14 " />
      </g>
    </g>
  </g>
</svg>
