<?xml version="1.0" encoding="UTF-8" standalone="no"?>
<svg
   xmlns:dc="http://purl.org/dc/elements/1.1/"
   xmlns:cc="http://creativecommons.org/ns#"
   xmlns:rdf="http://www.w3.org/1999/02/22-rdf-syntax-ns#"
   xmlns:svg="http://www.w3.org/2000/svg"
   xmlns="http://www.w3.org/2000/svg"
   xmlns:sodipodi="http://sodipodi.sourceforge.net/DTD/sodipodi-0.dtd"
   xmlns:inkscape="http://www.inkscape.org/namespaces/inkscape"
   width="291.89813"
   height="195.95514"
   version="1.1"
   id="svg10"
   sodipodi:docname="finalfight.svg"
   inkscape:version="0.92.5 (2060ec1f9f, 2020-04-08)">
  <metadata
     id="metadata16">
    <rdf:RDF>
      <cc:Work
         rdf:about="">
        <dc:format>image/svg+xml</dc:format>
        <dc:type
           rdf:resource="http://purl.org/dc/dcmitype/StillImage" />
        <dc:title />
      </cc:Work>
    </rdf:RDF>
  </metadata>
  <defs
     id="defs14" />
  <sodipodi:namedview
     pagecolor="#ffffff"
     bordercolor="#666666"
     borderopacity="1"
     objecttolerance="10"
     gridtolerance="10"
     guidetolerance="10"
     inkscape:pageopacity="0"
     inkscape:pageshadow="2"
     inkscape:window-width="1366"
     inkscape:window-height="740"
     id="namedview12"
     showgrid="false"
     units="px"
     inkscape:pagecheckerboard="true"
     inkscape:zoom="1.6192529"
     inkscape:cx="264.3523"
     inkscape:cy="85.318351"
     inkscape:window-x="0"
     inkscape:window-y="0"
     inkscape:window-maximized="1"
     inkscape:current-layer="svg10" />
  <path
     inkscape:connector-curvature="0"
     id="path909"
     d="m 62.75463,195.21353 c 0,-0.0914 -2.56693,-8.37089 -5.70431,-18.39895 -4.4938,-14.36366 -5.59061,-18.36983 -5.16853,-18.87842 0.29469,-0.35507 3.56616,-3.30384 7.26993,-6.55282 l 6.73413,-5.90723 1.8378,-5.60335 c 1.01079,-3.08184 3.10059,-9.62015 4.64398,-14.52957 1.54339,-4.90941 3.30769,-10.47183 3.92066,-12.36094 0.61297,-1.88909 1.1145,-3.69592 1.1145,-4.01517 0,-0.76241 -1.20838,-1.2186 -6.17969,-2.33299 -13.78156,-3.08933 -20.59513,-4.71683 -21.22655,-5.0702 -0.89234,-0.49938 -0.59628,-0.54861 12.30033,-2.045657 5.41295,-0.62833 11.95449,-1.38949 14.53675,-1.69146 2.58227,-0.30196 4.87828,-0.77446 5.10225,-1.05001 0.62898,-0.77381 5.53751,-15.8971 5.53751,-17.06119 0,-1.41341 -0.51644,-1.64656 -14.48454,-6.53924 -5.27263,-1.84688 -5.80876,-2.18055 -5.42298,-3.37509 0.88289,-2.73379 0.63712,-3.13117 -2.48541,-4.01842 -1.61609,-0.4592 -3.13235,-1.02891 -3.36946,-1.26603 -0.38589,-0.38589 3.50079,-3.57615 7.56664,-6.21085 1.22205,-0.7919 1.25882,-0.78961 1.25882,0.0785 0,1.31136 4.52572,11.7014 5.3888,12.3715 1.61435,1.25336 2.68152,0.39149 5.6018,-4.52407 1.77514,-2.98799 3.25175,-4.67411 2.59537,-2.96359 -0.30783,0.80217 1.59756,3.02455 2.59314,3.02455 0.26498,0 3.72366,-1.64939 7.68596,-3.6653 4.35669,-2.21657 7.31968,-3.47843 7.49638,-3.19251 0.16072,0.26003 0.39268,1.65193 0.51549,3.0931 0.31532,3.70033 0.53085,4.54666 1.22578,4.81333 0.33553,0.12875 3.86705,-0.0494 7.84784,-0.39592 3.9808,-0.34651 7.41587,-0.51997 7.6335,-0.38547 0.21763,0.1345 0.39569,0.5297 0.39569,0.87821 0,0.80396 1.7656,2.05884 2.89675,2.05884 0.47411,0 1.47402,-0.51497 2.22204,-1.14438 1.90209,-1.60052 2.66304,-1.48476 2.66304,0.4051 0,1.14178 0.29689,1.74403 1.12829,2.28878 0.62055,0.4066 1.31025,0.73928 1.53267,0.73928 0.549,0 29.95293,-14.16832 30.51479,-14.70359 0.28874,-0.27507 0.24834,-0.74216 -0.11444,-1.32304 -0.3084,-0.49383 -0.56072,-1.10666 -0.56072,-1.36184 0,-0.58274 35.99616,-0.64587 36.35592,-0.0638 0.21517,0.34816 -4.05442,4.88346 -22.20298,23.5847 -2.35746,2.42925 -4.16319,3.9422 -4.47504,3.74946 -0.33841,-0.20915 -0.52528,-2.04923 -0.52982,-5.21697 -0.004,-2.69161 -0.19328,-5.18818 -0.42095,-5.54792 -0.35716,-0.56439 -1.28207,-0.54304 -6.74487,0.15568 -3.48201,0.44536 -7.66986,0.97436 -9.30634,1.17556 -7.60979,0.93557 -15.1985,1.88981 -18.53907,2.33118 -2.01412,0.26612 -5.20695,0.68472 -7.0952,0.93023 -1.88823,0.24551 -4.87508,0.63769 -6.63743,0.87152 -1.76236,0.23382 -5.26418,0.65536 -7.78184,0.93676 -2.51764,0.28139 -4.88653,0.66872 -5.26417,0.86072 -0.87382,0.44427 -4.33396,15.56247 -3.70563,16.1908 0.39139,0.39139 14.4004,-0.32539 16.75164,-0.8571 1.59629,-0.36099 2.19402,0.3944 1.69493,2.14197 -1.25669,4.400237 -6.19323,19.962297 -6.5384,20.611797 -0.36438,0.68565 -0.80585,0.65365 -5.10179,-0.36976 -5.693,-1.35624 -8.27769,-1.91649 -10.52264,-2.28088 -2.10458,-0.34161 -2.02867,-0.50202 -4.25685,8.99525 -1.7457,7.4408 -3.22596,13.61127 -7.08072,29.51608 l -2.3276,9.60375 -11.08538,16.80684 c -6.09696,9.24374 -11.34287,16.81796 -11.65757,16.83157 -0.3147,0.0136 -0.5722,-0.05 -0.5722,-0.14138 z m 67.14389,-15.68216 -6.32574,-7.12954 0.31683,-3.0448 c 0.17425,-1.67464 0.41812,-3.21789 0.54192,-3.42943 0.2624,-0.44839 6.17781,-4.85741 23.12882,-17.23892 6.72127,-4.90943 12.2245,-9.24165 12.22938,-9.62718 0.005,-0.38553 -1.20225,-1.89947 -2.68254,-3.36431 -2.49555,-2.46951 -2.77041,-2.62215 -3.77647,-2.09717 -1.11507,0.58184 -14.19208,7.97211 -32.5556,18.39829 -5.7276,3.25194 -10.76091,5.84578 -11.18512,5.76409 -0.4242,-0.0817 -1.2997,-1.01061 -1.94554,-2.06424 -4.04158,-6.59351 -3.86512,-6.21015 -3.10253,-6.7407 0.39344,-0.27372 1.29724,-0.82027 2.00845,-1.21456 1.11241,-0.61673 2.11661,-2.72741 7.18692,-15.10591 3.2416,-7.91395 6.13251,-14.64619 6.42424,-14.96053 0.29173,-0.31434 3.71621,-1.18599 7.60994,-1.93701 3.89373,-0.75101 7.54299,-1.4762 8.10946,-1.61153 0.68348,-0.16327 1.02995,-0.0368 1.02995,0.37593 0,0.57072 -3.53109,6.66143 -10.66293,18.39229 -4.26955,7.02282 -5.4346,9.28289 -4.9421,9.58728 0.40301,0.24907 3.0185,-0.62558 14.46064,-4.83579 2.01412,-0.74111 6.4429,-2.34316 9.84173,-3.56012 4.46091,-1.59724 6.17969,-2.41772 6.17969,-2.94997 0,-0.40552 -1.40181,-2.28509 -3.11513,-4.1768 -2.13077,-2.35264 -2.99865,-3.63535 -2.74654,-4.05931 0.72672,-1.22196 20.41229,-22.22945 21.06558,-22.48014 0.36713,-0.14088 2.68699,0.82285 5.15528,2.14162 l 4.48776,2.39777 2.79155,-1.33423 c 1.53534,-0.73382 2.93217,-1.19359 3.10407,-1.02169 0.33105,0.33105 -0.66059,3.29528 -5.5253,16.51638 -3.0857,8.38619 -3.36649,9.42633 -2.54462,9.42633 0.58863,0 16.41478,-9.90282 17.45895,-10.92451 0.42058,-0.41153 2.34178,-4.35305 4.26933,-8.75894 1.92754,-4.40589 3.78093,-8.62867 4.11864,-9.383967 0.33771,-0.75529 1.05987,-2.40321 1.6048,-3.66204 4.80007,-11.0884 14.84029,-34.16752 15.36381,-35.31629 0.86798,-1.90458 0.83054,-2.59933 -0.23442,-4.35052 -0.49048,-0.80653 -0.78731,-1.63547 -0.65962,-1.84208 0.12769,-0.20661 3.92783,-0.37566 8.44474,-0.37566 6.76096,0 8.21257,0.11406 8.21257,0.64528 0,0.3549 -1.47703,3.49624 -3.28229,6.98076 -1.80526,3.48451 -5.31489,10.24928 -7.79917,15.03282 -7.58141,14.59814 -7.91078,15.29499 -7.44062,15.74274 0.42441,0.40419 1.94907,-0.008 13.68951,-3.69994 l 4.5514,-1.43129 1.51384,1.75127 c 0.83263,0.9632 1.51386,2.00475 1.51386,2.31456 0,0.30981 -1.62091,4.0348 -3.60204,8.27776 -8.46298,18.125107 -9.67284,20.778697 -9.67284,21.215547 0,0.25323 0.369,0.46043 0.82001,0.46043 1.00532,0 16.59885,-6.72767 17.32457,-7.47451 0.28657,-0.29491 1.66298,-3.83203 3.0587,-7.86027 1.39572,-4.02824 3.89979,-11.225727 5.5646,-15.994407 1.6648,-4.76868 2.96626,-9.09446 2.8921,-9.61285 -0.0984,-0.6878 -0.62965,-1.05026 -1.96583,-1.34119 -1.00706,-0.21927 -2.96396,-0.71436 -4.34866,-1.1002 -2.24073,-0.62435 -2.39178,-0.73912 -1.37327,-1.04339 0.62941,-0.18804 2.27733,-0.36733 3.66204,-0.39843 2.76477,-0.0621 5.85272,-0.66568 6.4357,-1.25795 0.20512,-0.2084 1.34316,-3.46874 2.52895,-7.24522 3.42878,-10.91977 3.27027,-9.92358 1.87086,-11.7583 -0.67005,-0.87849 -1.08195,-1.7336 -0.91531,-1.90024 0.48523,-0.48522 17.91587,-0.35626 18.21936,0.13481 0.14881,0.24078 -1.48694,4.49917 -3.63502,9.46309 -2.14808,4.96393 -3.90559,9.2987 -3.90559,9.63282 0,0.75468 3.53608,0.78654 14.38063,0.12956 4.52422,-0.27408 7.91253,-0.29973 8.15058,-0.0617 0.51036,0.51036 -6.51047,12.89901 -7.31006,12.89901 -0.3157,0 -4.53908,-0.93503 -9.38527,-2.07784 -4.84621,-1.14281 -9.42337,-2.01827 -10.17146,-1.94546 -1.31266,0.12775 -1.50913,0.48299 -5.62243,10.16516 -2.54163,5.98269 -4.09509,10.199937 -3.84818,10.446847 0.2469,0.2469 5.28844,0.0307 12.48874,-0.53551 6.64108,-0.52226 12.99598,-0.94905 14.122,-0.94843 1.86181,9.1e-4 1.9655,0.0573 1.14438,0.62154 -0.4966,0.34122 -10.77052,5.62254 -22.8309,11.73624 l -21.92798,11.11584 0.26956,-1.55121 c 0.14825,-0.85316 0.41158,-2.22067 0.58516,-3.0389 0.249,-1.1737 0.16604,-1.4877 -0.39303,-1.4877 -0.38976,0 -6.81373,3.19283 -14.27549,7.09519 -7.46176,3.90236 -13.88532,7.0952 -14.27457,7.0952 -0.38926,0 -0.60235,-0.25748 -0.47355,-0.57219 0.34354,-0.83939 12.68255,-27.73139 15.14517,-33.007837 1.15837,-2.48193 1.99258,-4.69631 1.8538,-4.92086 -0.39897,-0.64554 -1.15405,-0.50843 -6.44148,1.16968 -2.73448,0.86787 -5.95436,1.82031 -7.15529,2.11655 -1.45638,0.35925 -2.46008,0.93894 -3.01405,1.74078 -1.45919,2.112127 -17.00355,33.001407 -17.00355,33.788967 0,0.41646 0.32472,1.11601 0.72158,1.55455 0.66911,0.73934 0.57756,0.87925 -1.25882,1.92375 -4.1669,2.37006 -9.95716,5.09049 -10.23768,4.80996 -0.16116,-0.16115 1.24799,-3.75926 3.13144,-7.99578 2.0155,-4.53357 3.25884,-7.87938 3.02194,-8.13201 -0.24372,-0.25991 -3.85378,1.88284 -9.15093,5.4315 -6.78593,4.54604 -8.88408,6.18542 -9.35314,7.30807 -0.57608,1.37873 -1.85512,4.87395 -11.65991,31.86299 -2.33231,6.42001 -4.47175,11.90533 -4.7543,12.1896 -0.44488,0.44759 -15.38645,4.30799 -16.56128,4.27888 -0.23738,-0.006 -3.27819,-3.219 -6.75734,-7.14025 z m 11.07813,-4.4507 c 2.42149,-1.09384 5.14487,-2.23275 6.05196,-2.53094 0.90711,-0.29817 2.05633,-0.99963 2.55383,-1.5588 0.9422,-1.05896 8.38837,-20.55617 8.38633,-21.95894 -0.001,-1.0787 -0.59272,-1.0082 -2.14037,0.25529 -0.71167,0.58099 -5.46973,4.11632 -10.57346,7.85631 -5.90206,4.32499 -9.35046,7.14771 -9.47447,7.75541 -0.38424,1.88311 -0.76962,11.23069 -0.48219,11.69577 0.46037,0.7449 0.99037,0.60357 5.67837,-1.5141 z m 28.58694,-50.68503 c 1.99203,-4.8918 3.64819,-9.6001 3.68034,-10.46288 0.0546,-1.46396 -0.12495,-1.66941 -2.68808,-3.07646 -1.51058,-0.82925 -3.06501,-1.51377 -3.45426,-1.52113 -0.90149,-0.0171 -13.25378,12.41458 -13.25378,13.33892 0,0.88257 10.87415,11.0223 11.57139,10.78988 0.28738,-0.0958 2.15235,-4.17654 4.14439,-9.06833 z m -34.71744,-18.39258 c -1.66002,-2.32864 -5.25934,-8.350357 -5.25934,-8.798947 0,-0.39942 7.29471,-3.79447 14.76749,-6.87298 l 1.72147,-0.70918 1.36836,2.15771 c 0.75262,1.18673 1.36838,2.50714 1.36838,2.93424 0,0.4271 -2.39311,2.91014 -5.31801,5.517877 -2.9249,2.60772 -5.81937,5.2048 -6.43214,5.77128 -0.61279,0.56646 -1.19691,1.02994 -1.29807,1.02994 -0.10118,0 -0.51432,-0.46348 -0.91814,-1.02994 z M 10.5706,79.297503 c 0,-0.14862 0.60676,-2.569 1.34836,-5.37861 1.3431,-5.08853 3.93793,-15.03594 5.51181,-21.12981 0.45517,-1.762359 1.58496,-6.065531 2.51065,-9.562608 1.38642,-5.237576 1.57626,-6.455677 1.077,-6.910673 C 20.68506,36.012005 18.9704,35.395155 17.20805,34.945023 12.28738,33.688212 3.60954,31.189382 2.33102,30.661109 1.49454,30.315485 4.04741,30.180449 11.81888,30.15924 22.33022,30.13056 22.45859,30.11851 23.1077,29.100277 24.28744,27.249628 27.11349,15.540952 26.60826,14.596931 26.36004,14.133125 23.93746,12.815216 21.22475,11.668245 8.17239,6.1495334 0.5,2.7237964 0.5,2.4145924 c 0,-0.11407 20.33118,-0.207401 45.18039,-0.207401 31.28684,0 45.03395,0.146438 44.70419,0.476199 -0.26192,0.261909 -9.31516,4.915305 -20.11833,10.3408806 -10.80315,5.425576 -19.8378,10.052042 -20.07698,10.281035 -0.56294,0.538972 -1.62503,0.537819 -1.62503,-0.0018 0,-0.229964 1.24876,-2.102315 2.77502,-4.160782 5.06709,-6.833989 4.93192,-7.326442 -1.70512,-6.212119 -6.1098,1.025805 -5.98419,0.966696 -7.19671,3.386347 -1.90891,3.809333 -4.94117,11.905609 -4.77768,12.756614 0.14518,0.755672 0.86596,0.838627 8.27828,0.952744 4.46559,0.06877 8.11927,0.307667 8.11927,0.530896 0,0.22323 -1.37732,3.120077 -3.06071,6.437438 -3.52674,6.949973 -2.24095,6.452966 -10.81731,4.181281 -7.37518,-1.95352 -7.24353,-1.971781 -8.64588,1.199221 -0.6402,1.447649 -1.31817,3.147063 -1.50658,3.776476 -0.18841,0.629412 -0.49974,1.350376 -0.69184,1.602141 -0.59024,0.773564 -5.94724,13.92633 -5.94724,14.60194 0,0.98506 1.22351,1.23144 4.46574,0.89926 2.00507,-0.20543 2.92342,-0.14838 2.8052,0.17425 -0.15764,0.43023 -5.41832,4.91243 -9.27083,7.89891 -0.81192,0.62942 -3.36719,2.74081 -5.67838,4.69199 -3.79707,3.20561 -5.13887,4.06136 -5.13887,3.27738 z m 119.94781,-11.97471 c 0.009,-0.44059 0.30181,-2.1341 0.65103,-3.76335 0.92517,-4.31627 0.46673,-4.6321 -2.87885,-1.98326 -1.17532,0.93054 -2.81539,2.31859 -3.6446,3.08455 -1.79636,1.65932 -2.36505,1.19745 -2.37624,-1.92985 -0.005,-1.41333 -0.22274,-2.04261 -0.78063,-2.25669 -0.42918,-0.1647 -0.85287,-0.0591 -0.95161,0.23711 -0.0979,0.2937 -0.53249,0.97177 -0.96576,1.50683 -0.69634,0.85994 -1.52102,1.02508 -7.10689,1.42313 -3.80542,0.27117 -6.48517,0.28427 -6.73654,0.0329 -0.22956,-0.22956 -0.50434,-1.79789 -0.61059,-3.48515 -0.23712,-3.76501 -0.56824,-4.8823 -1.44689,-4.8823 -0.37279,0 -4.05746,1.69151 -8.18816,3.75891 -4.13072,2.0674 -7.62517,3.64412 -7.76548,3.50381 -0.14031,-0.1403 0.75394,-2.39828 1.9872,-5.01773 5.65737,-12.01623 6.05594,-12.980027 5.79603,-14.015611 -0.38595,-1.537752 -2.23058,-1.385047 -3.41832,0.282984 -0.52068,0.731217 -0.94669,1.460527 -0.94669,1.620676 0,0.160155 -0.39051,0.849319 -0.86781,1.531478 -1.35343,1.93432 -5.98996,9.201663 -8.51616,13.348293 -2.74584,4.50717 -4.30093,6.51459 -4.80523,6.20292 -0.55911,-0.34555 -3.20548,-6.16711 -3.20548,-7.05151 0,-0.42256 1.33894,-2.96306 2.97541,-5.64555 1.63647,-2.682484 2.97541,-4.99149 2.97541,-5.131115 0,-1.078602 -1.84678,0.06757 -20.95049,13.002545 -3.84394,2.6027 -7.09838,4.62277 -7.23211,4.48904 -0.13374,-0.13373 0.0871,-1.6578 0.49056,-3.38681 0.40355,-1.72901 1.15634,-5.20355 1.67289,-7.7212 0.51655,-2.51765 1.14368,-5.504502 1.39366,-6.637445 1.16561,-5.282905 1.17078,-5.409296 0.30121,-7.351562 -0.46694,-1.042925 -0.74923,-2.057611 -0.62732,-2.254857 0.23417,-0.378894 1.48066,-0.671143 5.95477,-1.396129 1.5106,-0.244776 4.25114,-0.776355 6.09008,-1.181287 1.83894,-0.404932 3.46531,-0.614469 3.61414,-0.465639 0.14883,0.14883 -1.70942,4.236823 -4.12942,9.084431 -2.49475,4.997326 -4.22759,8.986268 -4.00181,9.212038 0.4205,0.42051 3.7689,-1.89296 8.46724,-5.850161 1.5273,-1.286377 4.8368,-3.96794 7.35446,-5.959026 2.51765,-1.991082 5.47298,-4.354478 6.56741,-5.251985 3.25786,-2.67167 4.77267,-3.668451 5.18637,-3.412763 0.21482,0.132767 0.68594,0.948272 1.04692,1.812234 0.37725,0.902879 0.9824,1.57084 1.42311,1.57084 0.42173,0 2.41299,-0.823958 4.42504,-1.831019 4.10658,-2.05541 4.33698,-2.098754 6.14724,-1.156425 0.71275,0.371026 2.06839,1.012465 3.0125,1.425421 0.94412,0.412955 1.71482,0.984844 1.71268,1.270864 -0.002,0.28602 -1.64831,3.300896 -3.65813,6.699724 -2.00983,3.398829 -3.656,6.437175 -3.65814,6.751881 -0.005,0.816213 2.21088,0.68931 4.20716,-0.24088 0.93136,-0.433987 4.60357,-3.551333 8.16045,-6.927434 l 6.46706,-6.138364 4.79049,-0.441551 c 2.63477,-0.242853 4.8974,-0.334634 5.02807,-0.203959 0.13068,0.130676 -0.12838,4.272925 -0.57568,9.204998 -0.58078,6.403699 -0.6724,9.108295 -0.32047,9.460225 0.35193,0.35193 1.19803,-0.24588 2.95953,-2.09106 3.34175,-3.500503 3.8819,-4.470571 4.70972,-8.458346 0.39197,-1.888238 1.03222,-4.875088 1.42274,-6.637443 0.39054,-1.762356 0.92649,-4.44022 1.19103,-5.950811 0.47921,-2.736584 0.50292,-2.768073 6.5513,-8.697338 3.33868,-3.272946 10.25396,-9.967607 15.36727,-14.8770256 10.65796,-10.23298 10.39121,-10.239197 6.6287,0.154478 -1.10849,3.0621006 -3.27612,9.2752676 -4.81697,13.8070386 -4.54619,13.370782 -5.25336,14.998877 -7.17252,16.513044 -6.82239,5.382706 -14.06275,11.520299 -14.65314,12.421334 -0.98026,1.496069 -2.35277,6.813519 -1.9337,7.491609 0.41257,0.66753 5.69369,0.29314 10.88672,-0.77179 1.84529,-0.37841 3.5962,-0.59648 3.89091,-0.4846 0.29472,0.11189 -2.03902,1.43382 -5.18609,2.93763 -3.14706,1.50382 -8.14527,3.89586 -11.10714,5.31566 -2.96187,1.4198 -5.58823,2.58146 -5.83637,2.58146 -0.24814,0 -0.44392,-0.36049 -0.43508,-0.80108 z M 116.5408,55.537233 c 5.00282,-1.76149 4.98691,-1.74113 4.59848,-5.886294 -0.43536,-4.645894 -0.94248,-4.976137 -3.82636,-2.491774 -1.25637,1.082333 -3.1223,2.643762 -4.1465,3.469839 -2.34305,1.889809 -3.40341,4.939299 -2.05923,5.922179 0.45639,0.33372 1.0417,0.53222 1.3007,0.44112 0.25898,-0.0911 2.11879,-0.74589 4.13291,-1.45507 z m 32.61444,-22.774919 c 2.1449,-2.165363 3.05507,-3.504358 3.74347,-5.507193 0.9104,-2.648778 0.8626,-3.991216 -0.1421,-3.991216 -0.29452,0 -1.91933,1.394514 -3.61066,3.09892 -2.61295,2.633123 -3.17874,3.496541 -3.7642,5.744267 -0.86973,3.339097 -0.86342,3.516188 0.12527,3.516188 0.44786,0 2.08955,-1.287434 3.64822,-2.860966 z M 46.9621,60.328213 c -0.75529,-0.20505 -3.4868,-1.00679 -6.07003,-1.78164 -2.58321,-0.77485 -4.7976,-1.40882 -4.92085,-1.40882 -0.57663,0 -0.13269,-1.77186 0.61301,-2.44671 0.69569,-0.6296 1.92839,-0.75758 7.29706,-0.75758 3.55296,0 6.56755,0.17413 6.69909,0.38695 0.34726,0.56188 -1.24558,6.15722 -1.78726,6.2783 -0.25177,0.0563 -1.07573,-0.0654 -1.83102,-0.2705 z m 94.98409,-4.92993 c 0,-1.11222 1.36633,-1.46482 5.67616,-1.46482 2.51765,0 4.38185,0.17276 4.14268,0.3839 -1.04131,0.91925 -9.81884,1.88554 -9.81884,1.08092 z M 60.75109,33.277356 c -0.33092,-1.109425 -1.26787,-8.267879 -1.10366,-8.432095 0.0871,-0.08709 3.29371,-1.709815 7.12583,-3.606065 4.43295,-2.193561 6.96748,-3.223754 6.96748,-2.83202 0,0.338639 -0.88988,1.942771 -1.97753,3.564737 -2.751,4.102462 -2.79689,4.308768 -1.46415,6.58291 0.6341,1.082017 1.15291,2.15636 1.15291,2.387428 0,0.461356 -5.50503,2.166193 -8.57528,2.655654 -1.45173,0.231436 -1.98495,0.151025 -2.1256,-0.320549 z"
     style="fill:#ffffff;stroke:#ffffff;stroke-width:1;stroke-miterlimit:4;stroke-dasharray:none;stroke-opacity:1" />
  <path
     inkscape:connector-curvature="0"
     id="path907"
     d="m 62.75463,195.21353 c 0,-0.0914 -2.56693,-8.37089 -5.70431,-18.39895 -4.4938,-14.36366 -5.59061,-18.36983 -5.16853,-18.87842 0.29469,-0.35507 3.56616,-3.30384 7.26993,-6.55282 l 6.73413,-5.90723 1.8378,-5.60335 c 1.01079,-3.08184 3.10059,-9.62015 4.64398,-14.52957 1.54339,-4.90941 3.30769,-10.47183 3.92066,-12.36094 0.61297,-1.88909 1.1145,-3.69592 1.1145,-4.01517 0,-0.76241 -1.20838,-1.2186 -6.17969,-2.33299 -13.78156,-3.08933 -20.59513,-4.71683 -21.22655,-5.0702 -0.98604,-0.55182 -1.82802,-0.43079 19.39553,-2.787927 9.92935,-1.10278 12.47188,-1.52322 12.93156,-2.13836 0.31471,-0.42113 0.5722,-0.94361 0.5722,-1.16106 0,-0.21747 0.39065,-1.25954 0.86809,-2.31573 0.47745,-1.05619 1.22943,-2.7443 1.67107,-3.75136 0.57285,-1.30629 0.85842,-1.60145 0.99649,-1.02995 0.26568,1.09982 0.9166,1.12428 9.91667,0.37269 6.35919,-0.53106 6.84186,-0.30584 6.57451,3.06765 -0.11947,1.50758 0.0103,2.57747 0.34648,2.85648 0.35113,0.2914 3.51201,0.19747 9.11577,-0.27089 4.71804,-0.39434 8.85208,-0.6119 9.18677,-0.48347 0.50034,0.192 0.48546,0.66605 -0.0837,2.66692 -1.62183,5.701727 -5.75593,18.972007 -6.12551,19.662567 -0.36743,0.68656 -0.80674,0.65479 -5.10492,-0.36916 -5.693,-1.35624 -8.27769,-1.91649 -10.52264,-2.28088 -2.10458,-0.34161 -2.02867,-0.50202 -4.25685,8.99525 -1.7457,7.4408 -3.22596,13.61128 -7.08072,29.51608 l -2.3276,9.60375 -11.08538,16.80684 c -6.09696,9.24374 -11.34287,16.81796 -11.65757,16.83157 -0.3147,0.0136 -0.5722,-0.05 -0.5722,-0.14137 z m 67.14389,-15.68216 -6.32574,-7.12954 0.31683,-3.0448 c 0.17425,-1.67464 0.41812,-3.21789 0.54192,-3.42943 0.2624,-0.44839 6.17781,-4.85741 23.12882,-17.23892 6.72127,-4.90943 12.2245,-9.24165 12.22938,-9.62718 0.005,-0.38553 -1.20225,-1.89947 -2.68254,-3.36431 -2.49555,-2.46951 -2.77041,-2.62215 -3.77647,-2.09717 -1.11507,0.58184 -14.19208,7.97211 -32.5556,18.39829 -5.7276,3.25194 -10.76091,5.84578 -11.18512,5.76409 -0.4242,-0.0817 -1.2997,-1.01061 -1.94554,-2.06424 -4.04158,-6.59351 -3.86512,-6.21015 -3.10253,-6.7407 0.39344,-0.27372 1.29724,-0.82027 2.00845,-1.21456 1.11241,-0.61673 2.11661,-2.72741 7.18692,-15.10591 3.2416,-7.91395 6.13251,-14.64619 6.42424,-14.96053 0.29173,-0.31434 3.71621,-1.18599 7.60994,-1.93701 3.89373,-0.75101 7.54299,-1.4762 8.10946,-1.61153 0.68348,-0.16327 1.02995,-0.0368 1.02995,0.37593 0,0.57072 -3.53109,6.66143 -10.66293,18.39229 -4.26955,7.02282 -5.4346,9.28289 -4.9421,9.58728 0.40301,0.24907 3.0185,-0.62558 14.46064,-4.83579 2.01412,-0.74111 6.4429,-2.34316 9.84173,-3.56012 4.46091,-1.59724 6.17969,-2.41772 6.17969,-2.94997 0,-0.40552 -1.40181,-2.28509 -3.11513,-4.1768 -2.13077,-2.35264 -2.99865,-3.63535 -2.74654,-4.05931 0.72672,-1.22196 20.41229,-22.22945 21.06558,-22.48014 0.36713,-0.14088 2.68699,0.82285 5.15528,2.14162 l 4.48776,2.39777 2.79155,-1.33423 c 1.53534,-0.73382 2.93217,-1.19359 3.10407,-1.02169 0.33105,0.33105 -0.66059,3.29528 -5.5253,16.51638 -3.0857,8.38619 -3.36649,9.42633 -2.54462,9.42633 0.58863,0 16.41478,-9.90282 17.45895,-10.92451 0.42058,-0.41153 2.34178,-4.35305 4.26933,-8.75894 1.92754,-4.40589 3.77584,-8.62867 4.10733,-9.383967 2.51775,-5.73665 6.62787,-14.5911 7.65766,-16.49691 1.61741,-2.9933 3.46281,-4.78897 4.01065,-3.90257 0.32466,0.52531 0.63153,0.53377 1.80029,0.0497 0.77492,-0.32097 2.42783,-0.59896 3.67317,-0.61775 1.81298,-0.0273 2.3555,-0.22209 2.72216,-0.97715 0.37096,-0.76391 0.46381,-0.796 0.48891,-0.16894 0.017,0.42573 -0.17502,0.90136 -0.42678,1.05696 -0.25176,0.1556 -0.45775,0.57894 -0.45775,0.94076 0,0.36182 -1.27004,3.34361 -2.82231,6.6262 -1.67935,3.55132 -2.65258,6.12957 -2.40321,6.36645 0.39695,0.37705 2.16673,-0.10485 13.66783,-3.72163 l 4.5514,-1.43129 1.51384,1.75127 c 0.83263,0.9632 1.51386,2.00475 1.51386,2.31457 0,0.3098 -1.62091,4.0348 -3.60204,8.27775 -8.46298,18.125107 -9.67284,20.778697 -9.67284,21.215547 0,0.25323 0.369,0.46043 0.82001,0.46043 1.01776,0 16.61647,-6.7379 17.30402,-7.47451 0.27527,-0.29491 0.93202,-1.77214 1.45945,-3.28273 0.52742,-1.51059 3.1602,-9.01322 5.85063,-16.672507 5.53892,-15.76863 5.48977,-14.57379 0.64175,-15.60261 -1.51645,-0.32182 -2.85484,-0.74313 -2.9742,-0.93626 -0.11936,-0.19313 1.5861,-0.48394 3.78988,-0.64626 4.4428,-0.32722 6.06679,-0.81017 6.06679,-1.80418 0,-1.04399 2.30472,-2.65955 2.98666,-2.09359 0.40253,0.33407 0.63978,0.28591 0.81282,-0.16502 0.16605,-0.43269 0.84159,-0.59425 2.10774,-0.50407 1.02486,0.073 1.98106,-0.0577 2.12489,-0.29039 0.14382,-0.23272 0.6966,-0.42313 1.22839,-0.42313 0.5318,0 1.33062,-0.32916 1.77516,-0.73147 1.14283,-1.03424 1.93032,-0.36309 1.64401,1.40115 -0.44859,2.76433 -0.56725,2.74138 10.9677,2.12205 5.75044,-0.30875 10.81563,-0.63187 11.25596,-0.71806 0.44035,-0.0862 0.89589,-0.003 1.01234,0.18586 0.11644,0.18841 -0.98836,2.48645 -2.45511,5.10677 -4.14211,7.39977 -4.3564,7.73363 -4.96583,7.73671 -0.31499,0.001 -4.53778,-0.93213 -9.38397,-2.07494 -4.84621,-1.14281 -9.42337,-2.01827 -10.17146,-1.94546 -1.31266,0.12775 -1.50913,0.48299 -5.62243,10.16516 -2.54163,5.98269 -4.09509,10.199937 -3.84818,10.446847 0.2469,0.2469 5.28844,0.0307 12.48874,-0.53551 6.64108,-0.52226 12.99598,-0.94906 14.122,-0.94843 1.86181,9.1e-4 1.9655,0.0573 1.14438,0.62154 -0.4966,0.34122 -10.77052,5.62254 -22.8309,11.73624 l -21.92798,11.11584 0.26956,-1.55121 c 0.14825,-0.85316 0.41158,-2.22067 0.58516,-3.0389 0.249,-1.1737 0.16604,-1.4877 -0.39303,-1.4877 -0.38976,0 -6.81373,3.19283 -14.27549,7.09519 -7.46176,3.90236 -13.88532,7.0952 -14.27457,7.0952 -0.38926,0 -0.60235,-0.25748 -0.47355,-0.57219 0.34354,-0.83939 12.68255,-27.73139 15.14517,-33.007837 1.15837,-2.48193 1.99258,-4.69631 1.8538,-4.92086 -0.39897,-0.64554 -1.15405,-0.50843 -6.44148,1.16968 -2.73448,0.86787 -5.95436,1.82031 -7.15529,2.11655 -1.45638,0.35925 -2.46008,0.93894 -3.01405,1.74078 -1.45919,2.112127 -17.00355,33.001407 -17.00355,33.788967 0,0.41646 0.32472,1.11601 0.72158,1.55455 0.66911,0.73934 0.57756,0.87925 -1.25882,1.92375 -4.1669,2.37006 -9.95716,5.09049 -10.23768,4.80996 -0.16116,-0.16115 1.24799,-3.75926 3.13144,-7.99578 2.0155,-4.53357 3.25884,-7.87938 3.02194,-8.13201 -0.24372,-0.25991 -3.85378,1.88284 -9.15093,5.4315 -6.78593,4.54604 -8.88408,6.18542 -9.35314,7.30807 -0.57608,1.37873 -1.85512,4.87395 -11.65991,31.86299 -2.33231,6.42001 -4.47175,11.90533 -4.7543,12.1896 -0.44488,0.44759 -15.38645,4.30799 -16.56128,4.27888 -0.23738,-0.006 -3.27819,-3.219 -6.75734,-7.14025 z m 11.07813,-4.4507 c 2.42149,-1.09384 5.14487,-2.23275 6.05196,-2.53094 0.90711,-0.29817 2.05633,-0.99963 2.55383,-1.5588 0.9422,-1.05896 8.38837,-20.55617 8.38633,-21.95894 -0.001,-1.0787 -0.59272,-1.0082 -2.14037,0.25529 -0.71167,0.58099 -5.46973,4.11632 -10.57346,7.85631 -5.90206,4.32499 -9.35046,7.14771 -9.47447,7.75541 -0.38424,1.88311 -0.76962,11.23069 -0.48219,11.69577 0.46037,0.7449 0.99037,0.60357 5.67837,-1.5141 z m 28.58694,-50.68503 c 1.99203,-4.8918 3.64819,-9.6001 3.68034,-10.46288 0.0546,-1.46396 -0.12495,-1.66941 -2.68808,-3.07646 -1.51058,-0.82925 -3.06501,-1.51377 -3.45426,-1.52113 -0.90149,-0.0171 -13.25378,12.41458 -13.25378,13.33892 0,0.88257 10.87415,11.0223 11.57139,10.78988 0.28738,-0.0958 2.15235,-4.17654 4.14439,-9.06833 z m -34.56793,-18.1745 c -1.1535,-1.37221 -4.42016,-7.159807 -4.57437,-8.104527 -0.12646,-0.77472 0.21622,-0.9613 2.36981,-1.29033 1.3847,-0.21156 2.92963,-0.38891 3.43316,-0.39412 0.50353,-0.005 2.35744,-0.21255 4.11979,-0.46076 5.96105,-0.83953 7.55295,-0.94776 7.55295,-0.51347 0,0.53841 -10.25491,10.377247 -11.726,11.250227 -0.28106,0.16679 -0.80996,-0.0523 -1.17534,-0.48702 z M 10.5706,79.297503 c 0,-0.14862 0.60676,-2.569 1.34836,-5.37861 1.3431,-5.08853 3.93793,-15.03593 5.51181,-21.12981 0.45517,-1.76236 1.58496,-6.06553 2.51065,-9.56261 1.38642,-5.23757 1.57626,-6.455673 1.077,-6.910669 C 20.68506,36.012007 18.9704,35.395157 17.20805,34.945025 12.28738,33.688214 3.60954,31.189384 2.33102,30.661111 1.49454,30.315487 4.04741,30.180451 11.81888,30.159242 22.33022,30.130562 22.45859,30.118512 23.1077,29.100279 24.28744,27.24963 27.11349,15.540954 26.60826,14.596933 26.36004,14.133127 23.93746,12.815218 21.22475,11.668247 8.17239,6.1495354 0.5,2.7237984 0.5,2.4145944 c 0,-0.11407 20.33118,-0.2074 45.18039,-0.2074 31.28684,0 45.03395,0.146437 44.70419,0.476198 -0.26192,0.261909 -9.31516,4.915305 -20.11833,10.3408806 -10.80315,5.425576 -19.8378,10.052042 -20.07698,10.281035 -0.56294,0.538972 -1.62503,0.537819 -1.62503,-0.0018 0,-0.229964 1.24876,-2.102315 2.77502,-4.160782 5.06709,-6.833989 4.93192,-7.326442 -1.70512,-6.212119 -6.1098,1.025805 -5.98419,0.966696 -7.19671,3.386347 -1.90891,3.809333 -4.94117,11.905609 -4.77768,12.756614 0.14518,0.755672 0.86596,0.838627 8.27828,0.952744 4.46559,0.06877 8.11927,0.307667 8.11927,0.530896 0,0.22323 -1.37732,3.120077 -3.06071,6.437438 -3.52674,6.949977 -2.24095,6.452967 -10.81731,4.181277 -7.37518,-1.95352 -7.24353,-1.97178 -8.64588,1.19923 -0.6402,1.44764 -1.31817,3.14706 -1.50658,3.77647 -0.18841,0.62941 -0.49974,1.35038 -0.69184,1.60214 -0.59024,0.77357 -5.94724,13.92634 -5.94724,14.60194 0,0.98506 1.22351,1.23144 4.46574,0.89926 2.00507,-0.20543 2.92342,-0.14838 2.8052,0.17425 -0.15764,0.43023 -5.41832,4.91243 -9.27083,7.89892 -0.81192,0.62941 -3.36719,2.7408 -5.67838,4.69198 -3.79707,3.20561 -5.13887,4.06136 -5.13887,3.27738 z m 119.94781,-11.97471 c 0.009,-0.44059 0.30181,-2.1341 0.65103,-3.76335 0.92517,-4.31627 0.46673,-4.6321 -2.87885,-1.98326 -1.17532,0.93055 -2.81539,2.31859 -3.6446,3.08455 -1.79636,1.65932 -2.36505,1.19746 -2.37624,-1.92985 -0.005,-1.41332 -0.22274,-2.04261 -0.78063,-2.25669 -0.42918,-0.1647 -0.85287,-0.0591 -0.95161,0.23712 -0.0979,0.29369 -0.53249,0.97176 -0.96576,1.50682 -0.69634,0.85995 -1.52102,1.02509 -7.10689,1.42314 -3.80542,0.27117 -6.48517,0.28426 -6.73654,0.0329 -0.22956,-0.22957 -0.50434,-1.7979 -0.61059,-3.48516 -0.23712,-3.765 -0.56824,-4.88229 -1.44689,-4.88229 -0.37279,0 -4.05746,1.69151 -8.18816,3.7589 -4.13072,2.0674 -7.62517,3.64412 -7.76548,3.50381 -0.14031,-0.1403 0.75394,-2.39828 1.9872,-5.01773 5.65737,-12.01623 6.05594,-12.98002 5.79603,-14.01561 -0.38595,-1.53775 -2.23058,-1.38505 -3.41832,0.28299 -0.52068,0.73121 -0.94669,1.46052 -0.94669,1.62067 0,0.16016 -0.39051,0.84932 -0.86781,1.53148 -1.35343,1.93432 -5.98996,9.20166 -8.51616,13.34829 -2.74584,4.50718 -4.30093,6.51459 -4.80523,6.20292 -0.55911,-0.34555 -3.20548,-6.16711 -3.20548,-7.05151 0,-0.42256 1.33894,-2.96306 2.97541,-5.64554 1.63647,-2.68249 2.97541,-4.9915 2.97541,-5.13112 0,-1.0786 -1.84678,0.0676 -20.95049,13.00255 -3.84394,2.60269 -7.09838,4.62276 -7.23211,4.48903 -0.13374,-0.13373 0.0871,-1.65779 0.49056,-3.38681 0.40355,-1.72901 1.15634,-5.20355 1.67289,-7.7212 0.51655,-2.51765 1.14368,-5.5045 1.39366,-6.63744 1.16561,-5.28291 1.17078,-5.4093 0.30121,-7.35156 -0.46694,-1.04293 -0.74923,-2.05762 -0.62732,-2.25486 0.23417,-0.3789 1.48066,-0.67114 5.95477,-1.396131 1.5106,-0.244776 4.25114,-0.776355 6.09008,-1.181287 1.83894,-0.404932 3.46531,-0.614469 3.61414,-0.465639 0.14883,0.14883 -1.70942,4.236827 -4.12942,9.084427 -2.49475,4.99733 -4.22759,8.98627 -4.00181,9.21205 0.4205,0.4205 3.7689,-1.89297 8.46724,-5.85017 1.5273,-1.28638 4.8368,-3.96794 7.35446,-5.95902 2.51765,-1.99109 5.47298,-4.35448 6.56741,-5.25199 3.25786,-2.67167 4.77267,-3.668451 5.18637,-3.412763 0.21482,0.132767 0.68594,0.948272 1.04692,1.812234 0.37725,0.902879 0.9824,1.57084 1.42311,1.57084 0.42173,0 2.41299,-0.823958 4.42504,-1.831019 4.10658,-2.05541 4.33698,-2.098754 6.14724,-1.156425 0.71275,0.371026 2.06839,1.012465 3.0125,1.425421 0.94412,0.412955 1.71482,0.984844 1.71268,1.270864 -0.002,0.28602 -1.64831,3.300898 -3.65813,6.699728 -2.00983,3.39883 -3.656,6.43717 -3.65814,6.75188 -0.005,0.81621 2.21088,0.68931 4.20716,-0.24088 0.93136,-0.43399 4.60357,-3.55134 8.16045,-6.92744 l 6.46706,-6.138361 4.79049,-0.441551 c 2.63477,-0.242853 4.8974,-0.334634 5.02807,-0.203959 0.13068,0.130676 -0.12838,4.272921 -0.57568,9.205001 -0.58078,6.4037 -0.6724,9.10829 -0.32047,9.46022 0.35193,0.35194 1.19803,-0.24588 2.95953,-2.09106 3.34175,-3.5005 3.8819,-4.47057 4.70972,-8.45834 0.39197,-1.88824 1.03222,-4.87509 1.42274,-6.63745 0.39054,-1.762353 0.92649,-4.440217 1.19103,-5.950808 0.47921,-2.736584 0.50292,-2.768073 6.5513,-8.697338 3.33868,-3.272946 10.25396,-9.967607 15.36727,-14.8770256 10.65796,-10.23298 10.39121,-10.239197 6.6287,0.154479 -1.10849,3.0620996 -3.27612,9.2752666 -4.81697,13.8070376 -4.54619,13.370782 -5.25336,14.998877 -7.17252,16.513045 -6.82239,5.38271 -14.06275,11.5203 -14.65314,12.42133 -0.98026,1.49607 -2.35277,6.81352 -1.9337,7.49161 0.41257,0.66754 5.69369,0.29314 10.88672,-0.77179 1.84529,-0.37841 3.5962,-0.59648 3.89091,-0.48459 0.29472,0.11188 -2.03902,1.43381 -5.18609,2.93762 -3.14706,1.50382 -8.14527,3.89586 -11.10714,5.31566 -2.96187,1.4198 -5.58823,2.58146 -5.83637,2.58146 -0.24814,0 -0.44392,-0.36048 -0.43508,-0.80107 z M 116.5408,55.537233 c 5.00282,-1.76149 4.98691,-1.74113 4.59848,-5.88629 -0.43536,-4.6459 -0.94248,-4.97614 -3.82636,-2.49178 -1.25637,1.08234 -3.1223,2.64377 -4.1465,3.46984 -2.34305,1.88982 -3.40341,4.9393 -2.05923,5.92218 0.45639,0.33372 1.0417,0.53222 1.3007,0.44112 0.25898,-0.0911 2.11879,-0.74589 4.13291,-1.45507 z m 32.61444,-22.774917 c 2.1449,-2.165363 3.05507,-3.504358 3.74347,-5.507193 0.9104,-2.648778 0.8626,-3.991216 -0.1421,-3.991216 -0.29452,0 -1.91933,1.394514 -3.61066,3.09892 -2.61295,2.633123 -3.17874,3.496541 -3.7642,5.744267 -0.86973,3.339097 -0.86342,3.516188 0.12527,3.516188 0.44786,0 2.08955,-1.287434 3.64822,-2.860966 z m -88.40415,0.515042 c -0.33092,-1.109425 -1.26787,-8.267879 -1.10366,-8.432095 0.0871,-0.08709 3.29371,-1.709815 7.12583,-3.606065 4.43295,-2.193561 6.96748,-3.223754 6.96748,-2.83202 0,0.338639 -0.88988,1.942771 -1.97753,3.564737 -2.751,4.102462 -2.79689,4.308768 -1.46415,6.58291 0.6341,1.082017 1.15291,2.15636 1.15291,2.387428 0,0.461356 -5.50503,2.166193 -8.57528,2.655654 -1.45173,0.231436 -1.98495,0.151025 -2.1256,-0.320549 z"
     style="fill:#ffffff;stroke:#ffffff;stroke-width:1;stroke-miterlimit:4;stroke-dasharray:none;stroke-opacity:1" />
  <path
     inkscape:connector-curvature="0"
     id="path905"
     d="m 57.46075,177.48826 c -3.0666,-9.88178 -5.57466,-18.29263 -5.57348,-18.69076 0.002,-0.55016 7.2777,-7.26218 13.88838,-12.81175 0.21037,-0.1766 2.34925,-6.16386 4.7531,-13.30503 2.40385,-7.14119 4.78614,-14.17523 5.294,-15.63122 0.92541,-2.65309 1.79992,-3.20099 2.0787,-1.30234 0.10907,0.74289 0.36996,0.94384 0.97574,0.75157 0.50678,-0.16084 0.93087,0.008 1.09557,0.43785 0.3077,0.80186 2.58623,0.96512 2.58623,0.18529 0,-0.32399 0.49182,-0.41661 1.32618,-0.24973 1.1526,0.23052 1.42087,0.0732 2.04948,-1.20161 0.58817,-1.19283 0.72522,-1.28492 0.7337,-0.49293 0.0157,1.45802 1.18407,2.25114 2.42924,1.64887 0.55789,-0.26983 2.0443,-0.59525 3.30312,-0.72312 1.25882,-0.12788 2.64926,-0.37217 3.08984,-0.54286 1.52442,-0.59061 1.12946,1.54916 -5.44123,29.47969 l -3.91603,16.64611 -11.15581,16.88442 c -6.1357,9.28643 -11.33251,16.88442 -11.54847,16.88442 -0.21595,0 -2.90167,-8.08509 -5.96826,-17.96687 z m 77.3652,7.32408 c -0.98916,-1.07 -3.88934,-4.30922 -6.44482,-7.19827 l -4.64637,-5.2528 0.30016,-2.75791 c 0.16509,-1.51684 0.46322,-3.07526 0.66252,-3.46313 0.1993,-0.38788 2.90157,-2.56376 6.00504,-4.83529 23.87446,-17.47443 29.6748,-21.83687 29.6748,-22.31843 0,-0.74498 -5.13603,-5.78601 -5.89505,-5.78601 -0.33236,0 -10.37067,5.56172 -22.30732,12.35938 -11.93667,6.79765 -21.98895,12.35937 -22.33842,12.35937 -0.52012,0 -5.76303,-7.71239 -5.76303,-8.4775 0,-0.12499 0.80865,-0.55081 1.79701,-0.94628 1.99591,-0.7986 1.34781,0.46036 8.93425,-17.35486 5.6765,-13.33013 5.57511,-13.16117 8.26556,-13.77347 2.95984,-0.6736 10.10225,-2.07439 12.02259,-2.3579 l 1.49423,-0.2206 -3.05517,5.42946 c -1.68033,2.9862 -5.18509,9.07664 -7.78835,13.53429 -2.60327,4.45766 -4.7332,8.31996 -4.7332,8.5829 0,0.26293 0.25749,0.47785 0.57219,0.47759 1.21089,-9.2e-4 30.74557,-10.87033 30.9145,-11.37714 0.0981,-0.29435 -1.28154,-2.09845 -3.06589,-4.00912 -1.78436,-1.91067 -3.23865,-3.71057 -3.23175,-3.99978 0.007,-0.2892 2.94563,-3.55101 6.53052,-7.24848 l 6.51797,-6.72266 1.8786,0.25197 c 1.15011,0.15427 2.00084,0.0542 2.19383,-0.25809 0.40538,-0.65592 1.63448,-0.66434 1.63448,-0.0112 0,0.56042 -0.65692,1.31945 -6.98077,8.06606 -2.4547,2.61881 -4.4631,5.03203 -4.4631,5.36272 0,0.33068 2.58383,2.91256 5.74187,5.73749 5.71153,5.10914 6.73371,5.63586 7.38447,3.80518 0.15865,-0.44631 2.02519,-5.02954 4.14787,-10.18497 l 3.85941,-9.37351 -1.29728,-1.03907 c -0.7135,-0.57148 -1.97285,-1.36121 -2.79853,-1.75494 -0.82569,-0.39373 -1.75069,-1.1153 -2.05557,-1.60348 -0.30487,-0.48817 -0.82591,-0.88759 -1.15785,-0.88759 -0.33194,0 -0.48103,-0.19822 -0.3313,-0.44049 0.37193,-0.60178 2.52832,0.41245 2.52832,1.18915 0,0.98858 2.84867,0.21642 3.9407,-1.06817 0.83401,-0.98107 1.00485,-1.03239 1.25622,-0.37733 0.4699,1.22453 2.7173,0.72537 3.04557,-0.67643 0.22403,-0.95673 0.5486,-1.15212 1.97928,-1.19156 1.06131,-0.0293 1.64738,0.14461 1.54299,0.45776 -0.16059,0.48178 -0.33914,0.54459 -1.92303,0.67658 -0.37765,0.0314 -0.68664,0.39023 -0.68664,0.79725 0,0.52774 0.27734,0.66749 0.96685,0.48718 0.8543,-0.2234 0.93664,-0.10179 0.70735,1.0446 -0.14272,0.71359 -1.71916,5.47087 -3.50322,10.57174 -2.02543,5.79101 -3.08206,9.436 -2.81326,9.70479 0.26879,0.26879 3.81393,-1.68203 9.43896,-5.19405 l 9.0085,-5.62451 3.40733,-6.89483 c 2.24946,-4.55189 3.87068,-7.25687 4.77091,-7.96024 1.23423,-0.96432 1.3921,-0.99114 1.66396,-0.28268 0.16519,0.43049 0.0618,1.16461 -0.22965,1.63138 -0.69125,1.10687 -0.66866,1.31884 0.14053,1.31884 0.3688,0 0.89973,-0.42826 1.17986,-0.95168 0.28013,-0.52343 1.11133,-1.16155 1.84712,-1.41805 0.73579,-0.2565 1.3378,-0.79639 1.3378,-1.19976 0,-0.57043 0.12207,-0.61134 0.5493,-0.1841 0.42725,0.42724 0.42725,0.67138 0,1.09861 -0.30212,0.30212 -0.5493,0.83677 -0.5493,1.1881 0,0.35133 -3.22411,7.10851 -7.1647,15.01594 -6.7486,13.54217 -7.12079,14.42568 -6.40857,15.21267 0.41588,0.45955 0.75287,1.0253 0.74888,1.25725 -0.009,0.52927 -11.29092,6.4419 -11.63507,6.09776 -0.13891,-0.13892 1.32028,-3.80201 3.24264,-8.1402 2.19269,-4.94823 3.33412,-8.04871 3.06295,-8.31988 -0.27118,-0.27118 -3.76917,1.7993 -9.38659,5.55595 l -8.95434,5.9882 -2.19119,6.0285 c -6.67434,18.36278 -14.44221,39.39694 -14.61184,39.56659 -0.18978,0.18976 -15.73473,4.19259 -16.37012,4.2153 -0.17496,0.006 -1.12742,-0.86409 -2.1166,-1.93409 z m 8.30228,-10.44154 c 3.5705,-1.52578 6.6453,-2.9255 6.83288,-3.11048 0.30545,-0.30121 7.55933,-19.38631 8.33288,-21.92397 0.48669,-1.59658 -0.67459,-1.29479 -3.70773,0.96358 -1.47259,1.09645 -6.30152,4.67746 -10.73095,7.95781 l -8.0535,5.96426 -0.30051,3.55513 c -0.53356,6.31184 -0.39742,9.36782 0.4173,9.36782 0.3948,0 3.63914,-1.24837 7.20963,-2.77415 z m 35.10148,-64.77168 c 0,-0.3925 -0.20935,-0.58425 -0.46522,-0.42612 -0.25587,0.15814 -0.34672,0.47929 -0.20186,0.71365 0.3924,0.63493 0.66708,0.51654 0.66708,-0.28753 z m 32.67774,20.28266 c 8.00698,-17.39855 12.94557,-27.47846 14.4793,-29.55295 0.82343,-1.113737 1.33631,-1.392087 2.34804,-1.274277 0.71197,0.0829 1.59697,0.40176 1.96667,0.70858 0.36969,0.306817 0.86799,0.436847 1.1073,0.288937 0.79774,-0.493027 -0.0395,1.69376 -4.35898,11.38562 -2.3516,5.27634 -4.27562,9.75661 -4.27562,9.95616 0,0.79962 1.97258,0.13883 10.28631,-3.4458 l 8.68417,-3.74436 0.81853,-2.28877 c 1.88729,-5.27722 4.64908,-12.507907 5.55191,-14.535551 1.01546,-2.280589 1.88932,-2.631022 1.9043,-0.763654 0.005,0.674076 0.31544,1.158715 0.80107,1.252239 0.54548,0.105049 0.79225,-0.143044 0.79225,-0.796503 0,-0.6439 0.29438,-0.949071 0.91551,-0.949071 0.50353,0 0.91551,0.205989 0.91551,0.457754 0,0.251766 0.41198,0.457755 0.91551,0.457755 0.50353,0 0.91551,-0.205989 0.91551,-0.457755 0,-0.251765 -0.25749,-0.460909 -0.57219,-0.464763 -1.07558,-0.01319 0.76179,-0.894228 1.87999,-0.901493 0.83594,-0.0055 1.01252,0.173397 0.78403,0.794062 -0.16218,0.44059 -0.83717,2.197723 -1.49997,3.904723 -0.82161,2.116037 -1.05605,3.252697 -0.73671,3.572027 0.43903,0.43903 8.59185,-0.0513 23.24902,-1.39832 2.5108,-0.23075 4.63303,-0.3516 4.71606,-0.26858 0.28104,0.28105 -2.83371,1.94151 -19.35177,10.31637 -9.06354,4.59532 -18.28016,9.29401 -20.48137,10.44151 -2.2012,1.14751 -4.13961,1.94898 -4.30756,1.78101 -0.16796,-0.16795 -0.0663,-1.10307 0.22572,-2.07801 0.65484,-2.18568 0.6823,-3.72632 0.0664,-3.72632 -0.25558,0 -1.54301,0.59137 -2.86096,1.31418 -1.31796,0.72279 -4.76516,2.54735 -7.66046,4.05455 -2.8953,1.50722 -8.06235,4.21168 -11.48233,6.0099 -3.41998,1.79824 -6.45314,3.26952 -6.74032,3.26952 -0.29864,0 0.13165,-1.42074 1.00513,-3.31872 z M 112.99967,115.9309 c -0.75529,-0.10753 -1.57925,-0.40685 -1.83102,-0.66516 -0.31209,-0.3202 0.1353,-0.37342 1.40596,-0.16723 1.64728,0.2673 1.92277,0.17973 2.37224,-0.75395 0.37128,-0.7713 0.51686,-0.85031 0.53949,-0.29275 0.0398,0.98054 -0.43844,2.23188 -0.81907,2.14319 -0.16187,-0.0377 -0.9123,-0.15657 -1.6676,-0.2641 z m 22.49383,-9.59777 c -0.161,-0.161 -0.29272,-0.67038 -0.29272,-1.13195 0,-0.5931 0.34033,-0.83922 1.16048,-0.83922 1.00757,0 1.09773,0.11729 0.68418,0.89002 -0.57395,1.07243 -1.15551,1.47757 -1.55194,1.08115 z m 70.20149,-6.11797 c 0,-0.266627 0.20599,-0.357457 0.45775,-0.20186 0.25177,0.1556 0.45776,0.37374 0.45776,0.48477 0,0.11102 -0.20599,0.20186 -0.45776,0.20186 -0.25176,0 -0.45775,-0.21815 -0.45775,-0.48477 z M 10.6915,79.37299 c 0,-0.148624 0.60676,-2.569001 1.34836,-5.378616 1.3431,-5.088525 3.93793,-15.035932 5.51181,-21.129809 0.45517,-1.762356 1.58496,-6.065529 2.51065,-9.562606 1.38642,-5.237576 1.57626,-6.455676 1.077,-6.910672 C 20.80596,36.08749 19.0913,35.470639 17.32895,35.020507 12.40828,33.763696 3.73044,31.264866 2.45192,30.736593 1.61544,30.390969 4.16831,30.255933 11.93978,30.234724 22.45112,30.206044 22.57949,30.193994 23.2286,29.175761 24.40834,27.325112 27.23439,15.616437 26.72916,14.672416 26.48094,14.20861 24.05836,12.890701 21.34565,11.74373 8.29329,6.2250184 0.6209,2.7992804 0.6209,2.4900774 c 0,-0.114071 20.33118,-0.207401 45.18039,-0.207401 31.28684,0 45.03395,0.146437 44.70419,0.476198 -0.26192,0.261909 -9.31516,4.915306 -20.11833,10.3408816 -10.80315,5.425576 -19.8378,10.052042 -20.07698,10.281035 -0.56294,0.538972 -1.62503,0.537819 -1.62503,-0.0018 0,-0.229964 1.24876,-2.102315 2.77502,-4.160782 5.06709,-6.833989 4.93192,-7.326442 -1.70512,-6.212119 -6.1098,1.025805 -5.98419,0.966696 -7.19671,3.386347 -1.90891,3.809333 -4.94117,11.905608 -4.77768,12.756613 0.14518,0.755672 0.86596,0.838627 8.27828,0.952744 4.46559,0.06877 8.11927,0.307667 8.11927,0.530896 0,0.22323 -1.37732,3.120077 -3.06071,6.437439 -3.52674,6.949972 -2.24095,6.452965 -10.81731,4.18128 -7.37518,-1.95352 -7.24353,-1.971781 -8.64588,1.199221 -0.6402,1.447649 -1.31817,3.147063 -1.50658,3.776476 -0.18841,0.629412 -0.49974,1.350377 -0.69184,1.602142 -0.59024,0.773564 -5.94724,13.926334 -5.94724,14.601938 0,0.985061 1.22351,1.231438 4.46574,0.89926 2.00507,-0.205427 2.92342,-0.148382 2.8052,0.174248 -0.15764,0.430234 -5.41832,4.912435 -9.27083,7.898918 -0.81192,0.629413 -3.36719,2.740806 -5.67838,4.691985 -3.79707,3.20561 -5.13887,4.061356 -5.13887,3.277377 z M 130.63931,67.398275 c 0.009,-0.440589 0.30181,-2.134098 0.65103,-3.763352 0.92517,-4.316269 0.46673,-4.632093 -2.87885,-1.983258 -1.17532,0.930546 -2.81539,2.318595 -3.6446,3.084552 -1.79636,1.659319 -2.36505,1.197454 -2.37624,-1.929853 -0.005,-1.413322 -0.22274,-2.042606 -0.78063,-2.256689 -0.42918,-0.164695 -0.85287,-0.05912 -0.95161,0.237117 -0.0979,0.293691 -0.53249,0.971763 -0.96576,1.506823 -0.69634,0.859947 -1.52102,1.025086 -7.10689,1.423136 -3.80542,0.27117 -6.48517,0.284262 -6.73654,0.03292 -0.22956,-0.229568 -0.50434,-1.797891 -0.61059,-3.485157 -0.23712,-3.765003 -0.56824,-4.882292 -1.44689,-4.882292 -0.37279,0 -4.05746,1.69151 -8.18816,3.758908 -4.13072,2.067398 -7.62517,3.644116 -7.76548,3.50381 -0.14031,-0.140306 0.75394,-2.398286 1.9872,-5.017732 5.65737,-12.016231 6.05594,-12.980028 5.79603,-14.015612 -0.38595,-1.537752 -2.23058,-1.385047 -3.41832,0.282984 -0.52068,0.731217 -0.94669,1.460528 -0.94669,1.620676 0,0.160155 -0.39051,0.849319 -0.86781,1.531479 -1.35343,1.93432 -5.98996,9.201665 -8.51616,13.348295 -2.74584,4.507171 -4.30093,6.51459 -4.80523,6.202919 -0.55911,-0.34555 -3.20548,-6.167114 -3.20548,-7.05151 0,-0.422562 1.33894,-2.963059 2.97541,-5.645547 1.63647,-2.682488 2.97541,-4.991494 2.97541,-5.131119 0,-1.078602 -1.84678,0.06757 -20.95049,13.002549 -3.84394,2.602697 -7.09838,4.622763 -7.23211,4.489031 -0.13374,-0.133729 0.0871,-1.657791 0.49056,-3.386803 0.40355,-1.729013 1.15634,-5.203554 1.67289,-7.721205 0.51655,-2.517651 1.14368,-5.504499 1.39366,-6.637442 1.16561,-5.282906 1.17078,-5.409297 0.30121,-7.351563 -0.46694,-1.042925 -0.74923,-2.057611 -0.62732,-2.254857 0.23417,-0.378894 1.48066,-0.671143 5.95477,-1.396128 1.5106,-0.244776 4.25114,-0.776355 6.09008,-1.181287 1.83894,-0.404933 3.46531,-0.61447 3.61414,-0.46564 0.14883,0.148831 -1.70942,4.236823 -4.12942,9.084431 -2.49475,4.997327 -4.22759,8.986264 -4.00181,9.212042 0.4205,0.420503 3.7689,-1.892966 8.46724,-5.850164 1.5273,-1.286377 4.8368,-3.967941 7.35446,-5.959027 2.51765,-1.991082 5.47298,-4.354478 6.56741,-5.251984 3.25786,-2.67167 4.77267,-3.668452 5.18637,-3.412764 0.21482,0.132767 0.68594,0.948272 1.04692,1.812234 0.37725,0.90288 0.9824,1.570841 1.42311,1.570841 0.42173,0 2.41299,-0.823958 4.42504,-1.83102 4.10658,-2.05541 4.33698,-2.098754 6.14724,-1.156425 0.71275,0.371026 2.06839,1.012465 3.0125,1.425421 0.94412,0.412955 1.71482,0.984845 1.71268,1.270865 -0.002,0.28602 -1.64831,3.300895 -3.65813,6.699723 -2.00983,3.398829 -3.656,6.437176 -3.65814,6.751882 -0.005,0.816213 2.21088,0.68931 4.20716,-0.24088 0.93136,-0.433987 4.60357,-3.551334 8.16045,-6.927435 l 6.46706,-6.138363 4.79049,-0.441551 c 2.63477,-0.242853 4.8974,-0.334634 5.02807,-0.203959 0.13068,0.130676 -0.12838,4.272924 -0.57568,9.204997 -0.58078,6.4037 -0.6724,9.108297 -0.32047,9.460228 0.35193,0.351932 1.19803,-0.245883 2.95953,-2.09106 3.34175,-3.500505 3.8819,-4.470573 4.70972,-8.458349 0.39197,-1.888238 1.03222,-4.875088 1.42274,-6.637442 0.39054,-1.762356 0.92649,-4.440221 1.19103,-5.950812 0.47921,-2.736584 0.50292,-2.768073 6.5513,-8.697337 3.33868,-3.272946 10.25396,-9.967607 15.36727,-14.8770266 10.65796,-10.23298 10.39121,-10.239196 6.6287,0.154479 -1.10849,3.0621006 -3.27612,9.2752676 -4.81697,13.8070386 -4.54619,13.370781 -5.25336,14.998877 -7.17252,16.513043 -6.82239,5.382706 -14.06275,11.5203 -14.65314,12.421335 -0.98026,1.496071 -2.35277,6.813518 -1.9337,7.491604 0.41257,0.667538 5.69369,0.293145 10.88672,-0.771788 1.84529,-0.378412 3.5962,-0.596482 3.89091,-0.484593 0.29472,0.111884 -2.03902,1.433815 -5.18609,2.937627 -3.14706,1.503815 -8.14527,3.895857 -11.10714,5.315661 -2.96187,1.4198 -5.58823,2.581453 -5.83637,2.581453 -0.24814,0 -0.44392,-0.360482 -0.43508,-0.801071 z M 116.6617,55.612718 c 5.00282,-1.761495 4.98691,-1.741129 4.59848,-5.886294 -0.43536,-4.645895 -0.94248,-4.976137 -3.82636,-2.491774 -1.25637,1.082333 -3.1223,2.643762 -4.1465,3.469839 -2.34305,1.889813 -3.40341,4.939297 -2.05923,5.922179 0.45639,0.333721 1.0417,0.532221 1.3007,0.441115 0.25898,-0.09112 2.11879,-0.745888 4.13291,-1.455065 z m 32.61444,-22.774919 c 2.1449,-2.165364 3.05507,-3.504358 3.74347,-5.507194 0.9104,-2.648777 0.8626,-3.991215 -0.1421,-3.991215 -0.29452,0 -1.91933,1.394514 -3.61066,3.09892 -2.61295,2.633122 -3.17874,3.496541 -3.7642,5.744267 -0.86973,3.339096 -0.86342,3.516188 0.12527,3.516188 0.44786,0 2.08955,-1.287434 3.64822,-2.860966 z M 60.87199,33.35284 c -0.33092,-1.109424 -1.26787,-8.267878 -1.10366,-8.432094 0.0871,-0.08709 3.29371,-1.709815 7.12583,-3.606065 4.43295,-2.193561 6.96748,-3.223754 6.96748,-2.83202 0,0.338639 -0.88988,1.942771 -1.97753,3.564737 -2.751,4.102462 -2.79689,4.308768 -1.46415,6.582909 0.6341,1.082017 1.15291,2.15636 1.15291,2.387428 0,0.461357 -5.50503,2.166193 -8.57528,2.655654 -1.45173,0.231436 -1.98495,0.151026 -2.1256,-0.320549 z"
     style="fill:#ffffff;stroke:#ffffff;stroke-width:1;stroke-miterlimit:4;stroke-dasharray:none;stroke-opacity:1" />
  <path
     inkscape:connector-curvature="0"
     id="path903"
     d="m 10.69149,78.618638 c 0,-0.557453 0.20157,-1.646144 0.44793,-2.419315 0.24637,-0.77317 1.08716,-3.87764 1.86841,-6.898821 2.2424,-8.671475 3.94706,-15.208526 5.19251,-19.912327 2.63388,-9.947571 3.15558,-12.26 2.91021,-12.899423 C 20.96743,36.115753 19.45512,35.461523 17.71737,35.020846 12.4296,33.679917 10.16793,33.043577 5.88507,31.691731 L 1.76527,30.391357 12.13016,30.26845 c 7.61675,-0.09032 10.49104,-0.274887 10.84062,-0.69611 0.26165,-0.315262 0.99889,-2.628833 1.63833,-5.141271 0.63944,-2.512438 1.39807,-5.438125 1.68585,-6.501529 0.80848,-2.987606 0.34248,-3.971793 -2.43694,-5.146736 C 22.53291,12.22264 20.62476,11.394154 19.6177,10.941729 13.94559,8.3934994 7.11964,5.4437294 6.89499,5.4437294 c -0.4573,0 -6.2741,-2.77588 -6.2741,-2.9941 0,-0.1156 20.09614,-0.21018 44.65809,-0.21018 28.54882,0 44.55971,0.1592 44.38533,0.44135 -0.15002,0.24274 -9.161,4.88405 -20.02441,10.3140236 -10.8634,5.429972 -20.02732,10.101474 -20.36426,10.381115 -0.33695,0.279641 -0.73929,0.381787 -0.89408,0.226992 -0.1548,-0.154795 0.9684,-1.916829 2.49601,-3.915634 4.24262,-5.5513 4.90769,-7.375421 2.69027,-7.378725 -0.54549,-8.25e-4 -3.13546,0.347122 -5.75548,0.773189 l -4.76368,0.774668 -1.9882,4.254634 c -1.09351,2.340047 -1.98821,4.45041 -1.98821,4.689692 0,0.239284 -0.5413,1.683229 -1.20291,3.208766 -1.78636,4.118983 -1.72425,4.15296 7.59124,4.15296 4.20722,0 7.76644,0.11696 7.9094,0.259911 0.14295,0.142951 -1.13336,2.975307 -2.83624,6.294126 -3.43646,6.697489 -3.04037,6.428521 -7.57057,5.140816 -5.93108,-1.68591 -9.4918,-2.469646 -10.12184,-2.227878 -0.61373,0.235511 -2.92417,4.539795 -2.92417,5.447651 0,0.223856 -0.50602,1.439917 -1.1245,2.70236 -0.61848,1.262436 -2.26654,5.054915 -3.66237,8.427725 -3.09719,7.483885 -3.0603,7.614799 2.02677,7.194817 l 3.44673,-0.284554 -1.1899,1.031629 c -0.65444,0.567395 -4.46525,3.728585 -8.46846,7.024872 -4.0032,3.296282 -7.5706,6.345875 -7.92754,6.77687 -0.35694,0.430999 -1.02641,0.985623 -1.4877,1.232499 -0.69575,0.372352 -0.83872,0.276087 -0.83872,-0.564686 z M 130.46158,67.807142 c -0.12371,-0.200149 0.0608,-1.696933 0.41003,-3.326187 0.34923,-1.629254 0.64219,-3.329226 0.65104,-3.777716 0.0281,-1.425673 -1.25451,-1.386988 -2.82533,0.08521 -0.82899,0.776943 -1.65489,1.413574 -1.83532,1.414738 -0.18043,0.0013 -1.04901,0.723082 -1.9302,1.604259 -0.88118,0.881178 -1.79097,1.602142 -2.02176,1.602142 -0.52707,0 -0.96974,-1.605936 -0.97791,-3.547599 -0.008,-1.905549 -1.02254,-1.966664 -2.70733,-0.163084 -1.11774,1.196539 -1.63345,1.359422 -5.3334,1.684546 -2.25281,0.197961 -5.12596,0.374343 -6.38479,0.391962 l -2.28877,0.03204 -0.11267,-1.831019 c -0.28968,-4.708034 -0.65476,-6.570495 -1.33945,-6.833237 -0.4074,-0.156333 -3.99877,1.364878 -8.44029,3.575073 -6.05511,3.013156 -7.73115,3.679138 -7.73115,3.072028 0,-0.426335 0.18535,-0.970848 0.41187,-1.210024 0.22653,-0.239177 2.08848,-4.012074 4.13766,-8.384216 3.56236,-7.600673 3.69442,-7.997216 3.01074,-9.040655 -0.39328,-0.600217 -0.88852,-1.091305 -1.10052,-1.091305 -0.86682,0 -2.74167,1.931999 -4.21124,4.339597 -0.85903,1.407348 -2.59183,4.190533 -3.85065,6.184851 -1.25882,1.994323 -3.29523,5.231435 -4.52535,7.193591 -3.75156,5.984053 -4.15556,6.541501 -4.62975,6.388268 -0.25177,-0.08135 -1.15308,-1.573252 -2.00292,-3.315333 l -1.54516,-3.16742 1.24501,-2.288773 c 0.68475,-1.258826 2.07237,-3.574126 3.08362,-5.145112 2.42777,-3.77161 2.13701,-4.766242 -0.8893,-3.042169 -1.19902,0.683071 -3.20997,1.998841 -4.4688,2.923931 -1.25883,0.925095 -2.93434,2.075816 -3.72336,2.557159 -0.78903,0.481343 -4.55825,2.98462 -8.37605,5.562836 -3.81779,2.578216 -7.37432,4.919334 -7.90339,5.202483 -0.90774,0.485805 -0.94626,0.428018 -0.68346,-1.025632 0.26819,-1.483514 2.33378,-11.287168 3.07331,-14.586448 1.35991,-6.067003 1.41944,-6.801983 0.66856,-8.254013 -1.36642,-2.642376 -1.11888,-2.798511 6.87693,-4.337668 4.02651,-0.775087 7.38859,-1.248918 7.47128,-1.052959 0.0827,0.19596 -1.71973,4.140463 -4.00536,8.765566 -4.15495,8.407776 -4.56409,9.45662 -3.68884,9.45662 0.55643,0 3.4272,-1.775671 5.02927,-3.110781 1.04009,-0.866777 12.84917,-10.556225 13.98279,-11.473003 0.26515,-0.21443 1.34659,-0.961973 2.40321,-1.66121 1.05663,-0.699238 1.92113,-1.411219 1.92113,-1.582181 0,-0.455311 2.37336,-2.133896 3.5412,-2.504555 0.82322,-0.261278 1.05968,-0.104797 1.30227,0.86183 0.16304,0.64959 0.71329,1.473049 1.22278,1.829909 0.83705,0.58629 1.32814,0.447044 5.09437,-1.44447 l 4.16802,-2.093306 1.6959,0.976035 c 0.93275,0.536821 1.99275,0.976037 2.35557,0.976037 0.36282,0 1.09491,0.360482 1.62687,0.801071 l 0.96721,0.801071 -2.02536,3.433159 c -5.56859,9.439258 -5.7482,9.808117 -5.09604,10.465992 0.52249,0.527077 0.9675,0.508452 2.85849,-0.119629 2.33925,-0.776975 6.16306,-3.972216 11.95246,-9.987693 1.651,-1.715471 3.58957,-3.265689 4.3856,-3.507027 2.06647,-0.626513 8.87152,-1.058892 9.16601,-0.58239 0.13771,0.222822 -0.14308,4.38822 -0.624,9.256441 -0.4809,4.868216 -0.77302,9.015309 -0.64914,9.215759 0.46701,0.755634 1.25915,0.294647 3.46135,-2.014331 3.85914,-4.046271 3.87913,-4.08979 5.63608,-12.269367 2.70182,-12.578416 2.29595,-11.579697 6.39422,-15.734419 2.02202,-2.049863 6.73849,-6.609332 10.48106,-10.132154 3.74256,-3.522822 8.76337,-8.3193116 11.15733,-10.6588616 2.39397,-2.33955 4.4314,-4.17501997 4.52761,-4.07879997 0.16213,0.16213 -0.83619,3.14386997 -7.46432,22.29404857 -1.35066,3.902358 -2.97761,8.661967 -3.61545,10.576908 -1.28416,3.85538 -1.67556,4.309641 -8.20556,9.52346 -2.26589,1.809175 -4.52593,3.639928 -5.02232,4.068335 -0.4964,0.428409 -1.35732,1.09279 -1.91316,1.476407 -2.01478,1.390488 -3.70662,4.093672 -4.47391,7.1483 -1.09858,4.373457 -1.05321,4.396551 6.60296,3.360162 3.39884,-0.460085 6.54018,-0.977292 6.98076,-1.149344 0.44059,-0.172052 0.80107,-0.177637 0.80107,-0.01241 0,0.165231 -1.59641,1.043328 -3.5476,1.951335 -2.9682,1.381288 -17.04092,8.151063 -18.04967,8.682914 -0.17144,0.09039 -0.4129,4.58e-4 -0.53659,-0.199577 z M 116.6617,55.612718 c 4.68487,-1.763303 4.6875,-1.767807 4.12147,-7.053326 -0.38588,-3.603308 -1.07305,-3.97661 -3.35269,-1.821332 -0.92636,0.875826 -2.45857,2.054311 -3.40491,2.618855 -2.83029,1.68841 -5.16807,6.808249 -3.42912,7.509927 1.12857,0.455384 2.00454,0.27426 6.06525,-1.254124 z m 32.49354,-22.850404 c 2.78547,-2.868006 3.34258,-3.717942 3.86535,-5.897082 1.11564,-4.650478 -0.46344,-4.79851 -4.61376,-0.432521 -2.63194,2.768703 -3.0506,3.46158 -3.56976,5.908011 -1.03128,4.859618 -0.0821,4.952283 4.31817,0.421592 z M 60.5618,33.501943 c -0.0137,-0.200232 -0.2974,-2.114969 -0.6304,-4.254972 -0.69421,-4.461484 -0.75796,-4.331808 2.93787,-5.977149 1.38127,-0.614926 4.15239,-1.996754 6.15802,-3.070729 2.00564,-1.073974 3.81539,-1.896419 4.02169,-1.827655 0.20629,0.06876 -0.34161,1.256454 -1.21756,2.639313 -3.41469,5.390749 -3.38764,5.283152 -1.96798,7.825878 1.49258,2.673342 1.49599,2.699115 0.3577,2.699115 -0.49169,0 -1.36714,0.179645 -1.94547,0.399211 -3.27316,1.242703 -7.67482,2.136849 -7.71387,1.566988 z"
     style="fill:#ffffff;stroke-width:0.45775467" />
</svg>
