<?xml version="1.0" encoding="UTF-8" standalone="no"?>
<svg
   xmlns:dc="http://purl.org/dc/elements/1.1/"
   xmlns:cc="http://creativecommons.org/ns#"
   xmlns:rdf="http://www.w3.org/1999/02/22-rdf-syntax-ns#"
   xmlns:svg="http://www.w3.org/2000/svg"
   xmlns="http://www.w3.org/2000/svg"
   xmlns:sodipodi="http://sodipodi.sourceforge.net/DTD/sodipodi-0.dtd"
   xmlns:inkscape="http://www.inkscape.org/namespaces/inkscape"
   width="291.89813"
   height="195.95514"
   version="1.1"
   id="svg10"
   sodipodi:docname="finalfight.svg"
   inkscape:version="0.92.5 (2060ec1f9f, 2020-04-08)">
  <metadata
     id="metadata16">
    <rdf:RDF>
      <cc:Work
         rdf:about="">
        <dc:format>image/svg+xml</dc:format>
        <dc:type
           rdf:resource="http://purl.org/dc/dcmitype/StillImage" />
        <dc:title />
      </cc:Work>
    </rdf:RDF>
  </metadata>
  <defs
     id="defs14" />
  <sodipodi:namedview
     pagecolor="#ffffff"
     bordercolor="#666666"
     borderopacity="1"
     objecttolerance="10"
     gridtolerance="10"
     guidetolerance="10"
     inkscape:pageopacity="0"
     inkscape:pageshadow="2"
     inkscape:window-width="1366"
     inkscape:window-height="743"
     id="namedview12"
     showgrid="false"
     units="px"
     inkscape:pagecheckerboard="true"
     inkscape:zoom="1.2254914"
     inkscape:cx="195.60978"
     inkscape:cy="45.097227"
     inkscape:window-x="0"
     inkscape:window-y="0"
     inkscape:window-maximized="1"
     inkscape:current-layer="svg10" />
  <path
     inkscape:connector-curvature="0"
     id="path909"
     d="m 78.877539,195.31853 c 0,-0.0785 -2.203496,-7.18571 -4.896675,-15.79397 -3.857553,-12.33 -4.799073,-15.76897 -4.436753,-16.20555 0.252967,-0.3048 3.061252,-2.83607 6.24063,-5.62505 l 5.78069,-5.07086 1.577598,-4.81001 c 0.867678,-2.64551 2.661598,-8.2581 3.986468,-12.47243 1.32487,-4.21432 2.83938,-8.98919 3.36556,-10.61084 0.52619,-1.62162 0.95671,-3.17264 0.95671,-3.44669 0,-0.65446 -1.0373,-1.04606 -5.30475,-2.00267 -11.830323,-2.65194 -17.679206,-4.04901 -18.221227,-4.35235 -0.766,-0.42867 -0.511857,-0.47093 10.558809,-1.75602 4.646566,-0.53937 10.261938,-1.19277 12.478588,-1.45198 2.21666,-0.25921 4.1876,-0.66481 4.37986,-0.90135 0.53992,-0.66425 4.753493,-13.646334 4.753493,-14.645608 0,-1.213295 -0.443323,-1.413435 -12.433773,-5.613393 -4.526116,-1.585393 -4.986339,-1.871821 -4.655179,-2.897234 0.757889,-2.346731 0.546914,-2.687848 -2.133518,-3.449479 -1.387278,-0.394185 -2.688861,-0.883233 -2.8924,-1.086781 -0.331255,-0.331254 3.005136,-3.069827 6.495327,-5.331497 1.04903,-0.679781 1.08059,-0.677815 1.08059,0.06739 0,1.125694 3.88496,10.044678 4.62584,10.619903 1.38579,1.075905 2.30186,0.336061 4.80868,-3.883538 1.52381,-2.56494 2.79136,-4.012334 2.22791,-2.543995 -0.26425,0.688596 1.37137,2.596324 2.22599,2.596324 0.22747,0 3.196463,-1.415864 6.597763,-3.146354 3.73986,-1.902741 6.28334,-2.985943 6.43502,-2.740504 0.13796,0.223214 0.33708,1.418044 0.4425,2.655168 0.27068,3.176426 0.45569,3.902929 1.05223,4.131843 0.28803,0.110522 3.31954,-0.04241 6.73672,-0.339864 3.41719,-0.29745 6.36591,-0.446351 6.55272,-0.330894 0.18682,0.115457 0.33967,0.454703 0.33967,0.75387 0,0.690133 1.51562,1.767343 2.48662,1.767343 0.40698,0 1.26532,-0.442059 1.90744,-0.982355 1.63278,-1.373913 2.28599,-1.274543 2.28599,0.347745 0,0.980123 0.25486,1.497104 0.96855,1.964727 0.53269,0.349032 1.12474,0.63461 1.31567,0.63461 0.47127,0 25.71209,-12.162323 26.1944,-12.621807 0.24786,-0.236125 0.21318,-0.637083 -0.0982,-1.13572 -0.26473,-0.423912 -0.48133,-0.949976 -0.48133,-1.169026 0,-0.500234 30.89971,-0.554426 31.20853,-0.05477 0.18471,0.298866 -3.48038,4.192043 -19.05941,20.2455 -2.02368,2.085309 -3.57375,3.384051 -3.84145,3.218599 -0.29049,-0.179537 -0.4509,-1.759093 -0.4548,-4.478334 -0.003,-2.310523 -0.16592,-4.45362 -0.36135,-4.762427 -0.30659,-0.484482 -1.10055,-0.466155 -5.78991,0.133638 -2.98902,0.382305 -6.58394,0.836407 -7.98872,1.009121 -6.53237,0.803109 -13.04665,1.622244 -15.91425,2.001124 -1.72895,0.228441 -4.46973,0.587775 -6.09064,0.798524 -1.62088,0.21075 -4.18485,0.547404 -5.69768,0.748128 -1.51284,0.200715 -4.51886,0.562572 -6.68006,0.80413 -2.16118,0.24155 -4.19468,0.574041 -4.51885,0.738857 -0.7501,0.381368 -3.72034,13.359086 -3.18097,13.898446 0.33597,0.33598 12.36154,-0.27932 14.37988,-0.73574 1.37029,-0.30988 1.88339,0.33856 1.45496,1.8387 -1.07876,3.77724 -5.31637,17.13597 -5.61267,17.69351 -0.31279,0.58857 -0.69176,0.5611 -4.37946,-0.31741 -4.88697,-1.16422 -7.10571,-1.64515 -9.03281,-1.95794 -1.80661,-0.29325 -1.74145,-0.43095 -3.65415,7.72167 -1.49854,6.38731 -2.76922,11.68414 -6.07821,25.3371 l -1.998053,8.24401 -9.51588,14.42728 c -5.23373,7.93498 -9.736908,14.43682 -10.007052,14.4485 -0.270144,0.0117 -0.491186,-0.0429 -0.491186,-0.12136 z m 57.637441,-13.46183 -5.43012,-6.12012 0.27197,-2.6137 c 0.14958,-1.43754 0.35892,-2.76229 0.46519,-2.94388 0.22525,-0.38491 5.30314,-4.16969 19.85417,-14.79818 5.76965,-4.21434 10.49371,-7.93319 10.4979,-8.26413 0.004,-0.33095 -1.03203,-1.63054 -2.30273,-2.88798 -2.14223,-2.11987 -2.37817,-2.2509 -3.24179,-1.80025 -0.95719,0.49946 -12.18272,6.84339 -27.94627,15.7934 -4.91667,2.79152 -9.23734,5.01812 -9.60149,4.94799 -0.36414,-0.0701 -1.11569,-0.86752 -1.67009,-1.77198 -3.46936,-5.65997 -3.31788,-5.33089 -2.66326,-5.78633 0.33773,-0.23496 1.11357,-0.70413 1.72409,-1.04259 0.95491,-0.52942 1.81693,-2.34126 6.16937,-12.96717 2.78264,-6.79347 5.26425,-12.57253 5.51467,-12.84237 0.25043,-0.26983 3.19006,-1.01807 6.5325,-1.66276 3.34245,-0.64468 6.47503,-1.26719 6.9613,-1.38336 0.58671,-0.14016 0.88412,-0.0316 0.88412,0.3227 0,0.48992 -3.03114,5.71828 -9.15323,15.78825 -3.66506,6.02851 -4.66515,7.96859 -4.24238,8.22988 0.34595,0.21381 2.59113,-0.53701 12.41325,-4.15112 1.72896,-0.63618 5.53069,-2.01141 8.44831,-3.05607 3.82932,-1.3711 5.30475,-2.07541 5.30475,-2.5323 0,-0.34811 -1.20334,-1.96156 -2.67408,-3.58544 -1.82909,-2.01954 -2.57409,-3.12064 -2.35768,-3.48458 0.62383,-1.04895 17.52225,-19.08213 18.08305,-19.29732 0.31515,-0.12094 2.30655,0.70634 4.42537,1.8384 l 3.85237,2.05828 2.39632,-1.14532 c 1.31796,-0.62993 2.51702,-1.0246 2.66458,-0.87704 0.28418,0.28418 -0.56706,2.82873 -4.74301,14.17794 -2.64881,7.19884 -2.88985,8.09172 -2.18434,8.09172 0.50529,0 14.09072,-8.50075 14.98705,-9.37778 0.36103,-0.35327 2.01023,-3.73673 3.66487,-7.51882 1.65463,-3.78209 3.24561,-7.407 3.53551,-8.05536 0.28989,-0.64835 0.90981,-2.06295 1.37758,-3.14355 4.12046,-9.51847 12.73916,-29.329975 13.18855,-30.316098 0.74509,-1.634923 0.71295,-2.231308 -0.20123,-3.734559 -0.42103,-0.692339 -0.67584,-1.403915 -0.56622,-1.581272 0.10961,-0.177358 3.37171,-0.322473 7.2491,-0.322473 5.80372,0 7.04981,0.09791 7.04981,0.553919 0,0.304652 -1.26791,3.001231 -2.81757,5.992401 -1.54967,2.991161 -4.56239,8.798153 -6.69494,12.904424 -6.50801,12.531288 -6.79075,13.129478 -6.38715,13.513828 0.36432,0.34697 1.67311,-0.007 11.7513,-3.17609 l 3.907,-1.22864 1.2995,1.50332 c 0.71475,0.82683 1.29953,1.72091 1.29953,1.98686 0,0.26594 -1.39142,3.46354 -3.09206,7.10576 -7.26476,15.5589 -8.30332,17.83678 -8.30332,18.21178 0,0.21738 0.31675,0.39524 0.70391,0.39524 0.86298,0 14.24873,-5.77514 14.8717,-6.41624 0.24599,-0.25316 1.42753,-3.28948 2.62564,-6.74739 1.19811,-3.45791 3.34764,-9.63635 4.77674,-13.72986 1.42909,-4.09352 2.54629,-7.80684 2.48263,-8.251835 -0.0845,-0.590419 -0.5405,-0.90156 -1.6875,-1.1513 -0.86448,-0.188225 -2.54431,-0.613218 -3.73296,-0.94443 -1.92348,-0.535952 -2.05315,-0.634473 -1.17884,-0.895663 0.54029,-0.161417 1.9549,-0.315322 3.14355,-0.342019 2.37333,-0.05331 5.02408,-0.571431 5.52452,-1.079845 0.17607,-0.178894 1.15299,-2.977625 2.17089,-6.219418 2.94332,-9.373713 2.80725,-8.518567 1.60598,-10.093521 -0.57519,-0.754111 -0.92877,-1.488152 -0.78572,-1.631198 0.41653,-0.416521 15.37928,-0.30582 15.6398,0.115723 0.12774,0.20669 -1.27641,3.862163 -3.12036,8.123275 -1.84395,4.26112 -3.35262,7.982159 -3.35262,8.268973 0,0.64783 3.03543,0.675179 12.34457,0.111217 3.88367,-0.235275 6.79225,-0.257294 6.99659,-0.05297 0.43811,0.438102 -5.58869,11.072731 -6.27507,11.072731 -0.27101,0 -3.89643,-0.80265 -8.05648,-1.78365 -4.16006,-0.981015 -8.08917,-1.732524 -8.73135,-1.670023 -1.12681,0.109663 -1.29546,0.414607 -4.82639,8.725953 -2.18177,5.13564 -3.51529,8.75579 -3.30334,8.96774 0.21195,0.21195 4.53969,0.0264 10.72055,-0.45969 5.70081,-0.44831 11.15596,-0.81468 12.12256,-0.81415 1.59821,7.9e-4 1.68721,0.0492 0.98235,0.53354 -0.42629,0.29291 -9.24559,4.82649 -19.59842,10.07459 l -18.82335,9.54202 0.2314,-1.33158 c 0.12726,-0.73237 0.3533,-1.90626 0.50231,-2.60864 0.21374,-1.00753 0.14253,-1.27707 -0.33739,-1.27707 -0.33457,0 -5.84902,2.74078 -12.25432,6.09063 -6.4053,3.34985 -11.91939,6.09064 -12.25353,6.09064 -0.33414,0 -0.51706,-0.22103 -0.4065,-0.49118 0.2949,-0.72055 10.88691,-23.80509 13.00087,-28.33448 0.99436,-2.13053 1.71046,-4.03139 1.59133,-4.22415 -0.34248,-0.55414 -0.99065,-0.43644 -5.52947,1.00407 -2.34733,0.745 -5.11132,1.56259 -6.14222,1.81689 -1.25018,0.30838 -2.11178,0.806 -2.58731,1.49431 -1.2526,1.81309 -14.59614,28.32896 -14.59614,29.00501 0,0.3575 0.27875,0.95801 0.61942,1.33446 0.57438,0.63466 0.49579,0.75476 -1.08059,1.65138 -3.57694,2.03449 -8.54739,4.36976 -8.7882,4.12895 -0.13834,-0.13834 1.0713,-3.22702 2.68808,-6.86372 1.73014,-3.89169 2.79745,-6.76379 2.59409,-6.98065 -0.20922,-0.22311 -3.30815,1.61626 -7.85531,4.66249 -5.82516,3.9024 -7.62625,5.30967 -8.0289,6.27337 -0.49451,1.18353 -1.59246,4.18388 -10.00906,27.35172 -2.00209,5.51105 -3.83862,10.21974 -4.08117,10.46376 -0.38189,0.38422 -13.20798,3.69805 -14.21648,3.67306 -0.20377,-0.005 -2.81405,-2.76324 -5.80061,-6.12931 z m 9.50965,-3.82056 c 2.07865,-0.93897 4.41644,-1.91663 5.1951,-2.1726 0.77868,-0.25595 1.76519,-0.8581 2.19226,-1.3381 0.8088,-0.90903 7.20071,-17.64576 7.19896,-18.84992 -8.6e-4,-0.92597 -0.5088,-0.86545 -1.83733,0.21915 -0.61091,0.49873 -4.69531,3.53352 -9.07643,6.74399 -5.06643,3.71264 -8.02659,6.13571 -8.13305,6.65737 -0.32983,1.61649 -0.66065,9.64061 -0.41392,10.03984 0.39519,0.63944 0.85015,0.51812 4.87441,-1.29973 z m 24.53951,-43.50887 c 1.70999,-4.1992 3.13167,-8.24089 3.15926,-8.98151 0.0469,-1.25669 -0.10726,-1.43305 -2.30749,-2.64089 -1.29671,-0.71184 -2.63106,-1.29944 -2.96519,-1.30576 -0.77386,-0.0147 -11.37727,10.65688 -11.37727,11.45035 0,0.75761 9.33455,9.46173 9.93307,9.26221 0.2467,-0.0822 1.84762,-3.58521 3.55762,-7.7844 z m -29.80203,-15.7885 c -1.42499,-1.99894 -4.51471,-7.16809 -4.51471,-7.55316 0,-0.34287 6.2619,-3.25724 12.67666,-5.89988 l 1.47774,-0.60878 1.17462,1.85222 c 0.64607,1.01871 1.17464,2.15217 1.17464,2.5188 0,0.36663 -2.05428,2.49811 -4.56506,4.73664 -2.51079,2.23851 -4.99545,4.46788 -5.52146,4.95416 -0.52603,0.48626 -1.02745,0.88412 -1.11429,0.88412 -0.0868,0 -0.4415,-0.39786 -0.78814,-0.88412 z M 34.081896,95.814273 c 0,-0.127577 0.520852,-2.205272 1.157454,-4.617088 1.15294,-4.368079 3.380385,-12.907102 4.73143,-18.138182 0.390726,-1.512839 1.360556,-5.206753 2.155184,-8.208703 1.190126,-4.496023 1.353088,-5.541661 0.924515,-5.932237 -0.286162,-0.260784 -1.758055,-0.790299 -3.270885,-1.1767 -4.223986,-1.078867 -11.673189,-3.223905 -12.770692,-3.677383 -0.718048,-0.296689 1.473378,-0.412606 8.144538,-0.430813 9.02311,-0.02462 9.133305,-0.03496 9.690512,-0.909031 1.012708,-1.588628 3.438637,-11.639551 3.004939,-12.449915 -0.213076,-0.398139 -2.292659,-1.529454 -4.621295,-2.514033 -11.204364,-4.737354 -17.790472,-7.678064 -17.790472,-7.94349 0,-0.09792 17.452625,-0.178036 38.783602,-0.178036 26.857151,0 38.657894,0.125705 38.374824,0.408777 -0.22483,0.224827 -7.996293,4.21938 -17.269913,8.876785 -9.273602,4.657405 -17.029097,8.62884 -17.234413,8.825412 -0.483237,0.462662 -1.394953,0.461673 -1.394953,-0.0015 0,-0.197405 1.071956,-1.804663 2.382124,-3.571685 4.349674,-5.86641 4.233642,-6.28914 -1.463704,-5.332587 -5.244754,0.880568 -5.136929,0.829828 -6.177776,2.906897 -1.63864,3.269995 -4.241583,10.219974 -4.10124,10.950491 0.124625,0.648681 0.743354,0.719891 7.106213,0.817851 3.833338,0.05903 6.969718,0.264107 6.969718,0.45573 0,0.191624 -1.182315,2.678326 -2.627365,5.526004 -3.027413,5.965973 -1.923669,5.539334 -9.28576,3.589282 -6.330978,-1.676934 -6.217967,-1.69261 -7.421768,1.029431 -0.549558,1.242686 -1.131539,2.701492 -1.293273,3.24179 -0.161734,0.540298 -0.428985,1.159186 -0.593887,1.375305 -0.506672,0.66404 -5.10521,11.954594 -5.10521,12.534549 0,0.845592 1.050281,1.057089 3.833466,0.77194 1.721185,-0.176344 2.509512,-0.127372 2.40803,0.149579 -0.135321,0.369317 -4.651176,4.216912 -7.958235,6.780557 -0.696966,0.540304 -2.890452,2.352757 -4.874417,4.027682 -3.259468,2.751749 -4.411291,3.486339 -4.411291,2.813358 z M 137.0471,85.534982 c 0.008,-0.37821 0.25908,-1.831947 0.55886,-3.230522 0.79418,-3.705159 0.40065,-3.976272 -2.47125,-1.702464 -1.00892,0.798791 -2.41678,1.990317 -3.12859,2.64783 -1.54203,1.424388 -2.0302,1.027911 -2.0398,-1.656616 -0.004,-1.213226 -0.19121,-1.753411 -0.67011,-1.93718 -0.36842,-0.141382 -0.73212,-0.05073 -0.81688,0.203539 -0.084,0.252117 -0.4571,0.834183 -0.82902,1.293488 -0.59775,0.738187 -1.30567,0.879946 -6.10068,1.221638 -3.26663,0.232777 -5.56697,0.244023 -5.78275,0.02824 -0.19706,-0.197058 -0.43294,-1.543338 -0.52415,-2.991711 -0.20354,-3.231947 -0.48778,-4.191048 -1.24203,-4.191048 -0.32001,0 -3.48299,1.452021 -7.02885,3.226712 -3.54588,1.77469 -6.54558,3.128173 -6.66602,3.007729 -0.12045,-0.120436 0.64719,-2.058724 1.70584,-4.307304 4.85639,-10.314932 5.19852,-11.142272 4.97541,-12.031234 -0.3313,-1.320032 -1.91476,-1.188948 -2.93434,0.242918 -0.44696,0.627689 -0.81265,1.253741 -0.81265,1.391215 0,0.13748 -0.33522,0.72907 -0.74495,1.314647 -1.1618,1.660452 -5.141883,7.898861 -7.310413,11.458397 -2.35708,3.86903 -3.69199,5.592233 -4.12489,5.32469 -0.47995,-0.296625 -2.75164,-5.29395 -2.75164,-6.053134 0,-0.362732 1.14937,-2.54354 2.55414,-4.846234 1.40478,-2.302689 2.55415,-4.284778 2.55415,-4.404635 0,-0.92589 -1.58531,0.058 -17.984255,11.161602 -3.299702,2.234201 -6.093368,3.968263 -6.208164,3.853467 -0.114805,-0.114796 0.07477,-1.423083 0.421105,-2.907294 0.346414,-1.484211 0.992621,-4.466815 1.436037,-6.628007 0.443415,-2.161193 0.981754,-4.725157 1.196341,-5.697694 1.000579,-4.534934 1.005017,-4.64343 0.258563,-6.310704 -0.400829,-0.895264 -0.643151,-1.766287 -0.538502,-1.935607 0.201016,-0.325249 1.271024,-0.57612 5.111674,-1.19846 1.296725,-0.21012 3.64925,-0.666436 5.227827,-1.014037 1.578574,-0.3476 2.974684,-0.52747 3.102434,-0.399712 0.12776,0.127758 -1.46739,3.63696 -3.544759,7.798227 -2.141535,4.289789 -3.629034,7.713963 -3.435221,7.907768 0.360964,0.360973 3.235287,-1.624949 7.26842,-5.021876 1.31106,-1.104248 4.15199,-3.406146 6.31319,-5.115328 2.16119,-1.709178 4.6981,-3.737956 5.63758,-4.508391 2.796603,-2.293407 4.096943,-3.14906 4.452063,-2.929573 0.18441,0.113969 0.58883,0.814012 0.8987,1.555652 0.32383,0.775046 0.84331,1.348435 1.22162,1.348435 0.36202,0 2.07135,-0.707299 3.79853,-1.571777 3.52515,-1.764399 3.72293,-1.801606 5.27689,-0.992695 0.61184,0.318495 1.77554,0.869117 2.58598,1.223605 0.81045,0.354488 1.47203,0.845407 1.47019,1.090931 -0.002,0.245525 -1.41493,2.833545 -3.1402,5.751155 -1.72527,2.917612 -3.13837,5.525779 -3.1402,5.795928 -0.004,0.700651 1.89785,0.591715 3.61149,-0.206776 0.7995,-0.372541 3.95178,-3.048523 7.00507,-5.946625 l 5.55143,-5.269274 4.11224,-0.379035 c 2.26173,-0.208469 4.20401,-0.287255 4.31618,-0.175081 0.11217,0.112174 -0.11021,3.66795 -0.49418,7.901724 -0.49855,5.497042 -0.5772,7.818712 -0.27509,8.120815 0.3021,0.302102 1.02841,-0.211068 2.54051,-1.795001 2.86861,-3.00489 3.33228,-3.837613 4.0429,-7.260786 0.33647,-1.620895 0.88607,-4.184857 1.2213,-5.697692 0.33525,-1.512835 0.79532,-3.811559 1.0224,-5.108275 0.41136,-2.34913 0.43172,-2.37616 5.62375,-7.46594 2.86598,-2.809552 8.80217,-8.556361 13.19152,-12.770688 9.14897,-8.784161 8.91999,-8.789498 5.69019,0.132607 -0.95155,2.628558 -2.81228,7.962044 -4.13497,11.852192 -3.90253,11.477703 -4.50957,12.875287 -6.15701,14.175073 -5.85646,4.620605 -12.0717,9.889217 -12.5785,10.662681 -0.84147,1.284251 -2.01966,5.848839 -1.65992,6.430922 0.35415,0.573019 4.88756,0.251637 9.34534,-0.662517 1.58403,-0.324834 3.08704,-0.512029 3.34002,-0.415989 0.25299,0.09605 -1.75033,1.230815 -4.45182,2.521711 -2.70149,1.290904 -6.99204,3.344271 -9.53456,4.563051 -2.54252,1.21878 -4.79703,2.215969 -5.01004,2.215969 -0.213,0 -0.38107,-0.309451 -0.37348,-0.687661 z M 125.04849,75.418061 c 4.2945,-1.512093 4.28085,-1.494615 3.94741,-5.052893 -0.37372,-3.988114 -0.80904,-4.2716 -3.28461,-2.138981 -1.07849,0.929093 -2.68023,2.26945 -3.55943,2.978568 -2.01131,1.622243 -2.92154,4.239977 -1.76767,5.083697 0.39177,0.286471 0.89421,0.456867 1.11654,0.378665 0.22231,-0.0782 1.8188,-0.640284 3.54776,-1.249056 z M 153.04527,55.86769 c 1.84122,-1.858784 2.62252,-3.0082 3.21346,-4.727467 0.7815,-2.273755 0.74047,-3.426126 -0.12198,-3.426126 -0.25283,0 -1.64759,1.197074 -3.09946,2.660164 -2.243,2.260317 -2.72868,3.00149 -3.23125,4.930975 -0.74659,2.866337 -0.74117,3.018355 0.10754,3.018355 0.38445,0 1.7937,-1.105155 3.13169,-2.455901 z M 65.320967,79.530718 c -0.648353,-0.176018 -2.993127,-0.864245 -5.210615,-1.52939 -2.217471,-0.665144 -4.11834,-1.209354 -4.22414,-1.209354 -0.494989,0 -0.113903,-1.520994 0.526218,-2.100297 0.597192,-0.540459 1.655362,-0.650319 6.263918,-0.650319 3.049921,0 5.637695,0.149476 5.750611,0.332164 0.298094,0.482327 -1.069226,5.285461 -1.534214,5.389398 -0.216123,0.04833 -0.923424,-0.05614 -1.571778,-0.232202 z M 146.8569,75.298784 c 0,-0.954749 1.17288,-1.257426 4.87251,-1.257426 2.16119,0 3.76145,0.1483 3.55615,0.329546 -0.89388,0.789099 -8.42866,1.618579 -8.42866,0.92788 z M 77.157667,56.30981 c -0.284068,-0.952349 -1.088361,-7.097285 -0.9474,-7.238251 0.07477,-0.07476 2.827375,-1.467734 6.116931,-3.095506 3.805319,-1.88299 5.980999,-2.767325 5.980999,-2.431054 0,0.290694 -0.76389,1.667707 -1.69754,3.06003 -2.36151,3.521622 -2.4009,3.698718 -1.25685,5.65088 0.54432,0.928821 0.98967,1.851055 0.98967,2.049408 0,0.396036 -4.725606,1.859496 -7.36116,2.279658 -1.246189,0.198668 -1.703914,0.129642 -1.82465,-0.275165 z"
     style="fill:#ffffff;stroke:#ffffff;stroke-width:0.85841674;stroke-miterlimit:4;stroke-dasharray:none;stroke-opacity:1" />
  <path
     inkscape:connector-curvature="0"
     id="path907"
     d="m 78.877539,195.31853 c 0,-0.0785 -2.203496,-7.18571 -4.896675,-15.79397 -3.857553,-12.33 -4.799073,-15.76897 -4.436753,-16.20555 0.252967,-0.3048 3.061252,-2.83607 6.24063,-5.62505 l 5.78069,-5.07086 1.577598,-4.81001 c 0.867678,-2.64551 2.661598,-8.2581 3.986468,-12.47243 1.32487,-4.21432 2.83938,-8.98919 3.36556,-10.61084 0.52619,-1.62162 0.95671,-3.17264 0.95671,-3.44669 0,-0.65446 -1.0373,-1.04606 -5.30475,-2.00267 -11.830323,-2.65194 -17.679206,-4.04901 -18.221227,-4.35235 -0.846433,-0.47369 -1.569203,-0.3698 16.649447,-2.3932 8.52352,-0.94665 10.70607,-1.30756 11.10067,-1.8356 0.27015,-0.36151 0.49118,-0.81002 0.49118,-0.99668 0,-0.18668 0.33534,-1.08121 0.74519,-1.98786 0.40985,-0.90665 1.05536,-2.35575 1.43447,-3.22023 0.49174,-1.12134 0.73688,-1.37471 0.8554,-0.88413 0.22807,0.94411 0.78683,0.9651 8.512643,0.31993 5.45883,-0.45587 5.87317,-0.26254 5.64367,2.63332 -0.10256,1.29413 0.009,2.21254 0.29742,2.45205 0.30142,0.25014 3.01477,0.16951 7.82513,-0.23254 4.05005,-0.3385 7.59878,-0.52526 7.88608,-0.41502 0.4295,0.16482 0.41673,0.57175 -0.0719,2.28933 -1.39221,4.89446 -4.94099,16.28589 -5.25824,16.87868 -0.31541,0.58935 -0.69252,0.56208 -4.38215,-0.31689 -4.88697,-1.16422 -7.10571,-1.64515 -9.03281,-1.95795 -1.80661,-0.29324 -1.74144,-0.43094 -3.65415,7.72167 -1.49854,6.38731 -2.76922,11.68415 -6.07821,25.3371 l -1.998053,8.24402 -9.51587,14.42727 c -5.23374,7.93498 -9.736914,14.43682 -10.007058,14.4485 -0.270143,0.0117 -0.491186,-0.0429 -0.491186,-0.12135 z m 57.637441,-13.46183 -5.43012,-6.12012 0.27197,-2.6137 c 0.14958,-1.43754 0.35892,-2.76229 0.46519,-2.94388 0.22525,-0.38491 5.30314,-4.16969 19.85417,-14.79818 5.76965,-4.21434 10.49371,-7.93319 10.4979,-8.26413 0.004,-0.33095 -1.03203,-1.63054 -2.30273,-2.88798 -2.14223,-2.11987 -2.37817,-2.2509 -3.24179,-1.80025 -0.95719,0.49946 -12.18272,6.84339 -27.94627,15.7934 -4.91667,2.79152 -9.23734,5.01812 -9.60149,4.94799 -0.36414,-0.0701 -1.11569,-0.86752 -1.67009,-1.77198 -3.46936,-5.65997 -3.31788,-5.33089 -2.66326,-5.78633 0.33773,-0.23496 1.11357,-0.70413 1.72409,-1.04259 0.95491,-0.52942 1.81693,-2.34126 6.16937,-12.96717 2.78264,-6.79347 5.26425,-12.57253 5.51467,-12.84237 0.25043,-0.26983 3.19006,-1.01807 6.5325,-1.66276 3.34245,-0.64468 6.47503,-1.26719 6.9613,-1.38336 0.58671,-0.14016 0.88412,-0.0316 0.88412,0.3227 0,0.48992 -3.03114,5.71828 -9.15323,15.78825 -3.66506,6.02851 -4.66515,7.96859 -4.24238,8.22988 0.34595,0.21381 2.59113,-0.53701 12.41325,-4.15112 1.72896,-0.63618 5.53069,-2.01141 8.44831,-3.05607 3.82932,-1.3711 5.30475,-2.07541 5.30475,-2.5323 0,-0.34811 -1.20334,-1.96156 -2.67408,-3.58544 -1.82909,-2.01954 -2.57409,-3.12064 -2.35768,-3.48458 0.62383,-1.04895 17.52225,-19.08213 18.08305,-19.29732 0.31515,-0.12094 2.30655,0.70634 4.42537,1.8384 l 3.85237,2.05828 2.39632,-1.14532 c 1.31796,-0.62993 2.51702,-1.0246 2.66458,-0.87704 0.28418,0.28418 -0.56706,2.82873 -4.74301,14.17794 -2.64881,7.19884 -2.88985,8.09172 -2.18434,8.09172 0.50529,0 14.09072,-8.50075 14.98705,-9.37778 0.36103,-0.35327 2.01023,-3.73673 3.66487,-7.51882 1.65463,-3.78209 3.24124,-7.407 3.5258,-8.05536 2.16128,-4.92443 5.68947,-12.52524 6.57346,-14.161222 1.38841,-2.569498 2.97253,-4.110931 3.44281,-3.350031 0.27869,0.450935 0.54212,0.458197 1.5454,0.04266 0.6652,-0.275526 2.08409,-0.514157 3.15311,-0.530286 1.55629,-0.02343 2.022,-0.190646 2.33675,-0.838802 0.31843,-0.655753 0.39814,-0.6833 0.41968,-0.145021 0.0146,0.365453 -0.15024,0.773742 -0.36635,0.907312 -0.21612,0.133569 -0.39294,0.496972 -0.39294,0.807564 0,0.310592 -1.09022,2.870211 -2.42272,5.688046 -1.44158,3.04851 -2.27702,5.26172 -2.06295,5.46506 0.34074,0.32367 1.85995,-0.09 11.73269,-3.1947 l 3.907,-1.22865 1.2995,1.50332 c 0.71475,0.82683 1.29953,1.72091 1.29953,1.98687 0,0.26593 -1.39142,3.46354 -3.09206,7.10576 -7.26476,15.55889 -8.30332,17.83678 -8.30332,18.21178 0,0.21737 0.31675,0.39524 0.70391,0.39524 0.87366,0 14.26385,-5.78393 14.85406,-6.41625 0.23629,-0.25315 0.80006,-1.52123 1.25281,-2.81795 0.45275,-1.29671 2.71277,-7.7371 5.02228,-14.31196 4.7547,-13.536055 4.71251,-12.510384 0.55089,-13.39354 -1.30175,-0.276256 -2.45064,-0.637916 -2.5531,-0.803702 -0.10246,-0.165786 1.36153,-0.415422 3.25329,-0.55476 3.81378,-0.280891 5.20784,-0.695463 5.20784,-1.548738 0,-0.896179 1.97841,-2.283002 2.5638,-1.797173 0.34554,0.286771 0.54919,0.24543 0.69774,-0.141656 0.14254,-0.371428 0.72243,-0.510114 1.80931,-0.432702 0.87976,0.06267 1.70058,-0.04953 1.82405,-0.249276 0.12345,-0.19977 0.59797,-0.363221 1.05447,-0.363221 0.4565,0 1.14222,-0.282557 1.52382,-0.627906 0.98103,-0.887809 1.65702,-0.311683 1.41125,1.20277 -0.38508,2.372947 -0.48694,2.353247 9.41486,1.821603 4.93627,-0.265036 9.28431,-0.542407 9.6623,-0.616394 0.378,-0.074 0.76905,-0.0026 0.86901,0.159545 0.0999,0.161734 -0.84843,2.13441 -2.10751,4.383737 -3.55565,6.352093 -3.7396,6.638683 -4.26275,6.641323 -0.27039,8.6e-4 -3.89531,-0.80016 -8.05536,-1.78116 -4.16006,-0.981013 -8.08917,-1.732522 -8.73135,-1.670021 -1.12681,0.109663 -1.29546,0.414607 -4.82639,8.725951 -2.18177,5.13564 -3.51529,8.75579 -3.30334,8.96774 0.21195,0.21195 4.53969,0.0264 10.72055,-0.45969 5.70081,-0.44831 11.15596,-0.81469 12.12256,-0.81415 1.59821,7.9e-4 1.68721,0.0492 0.98235,0.53354 -0.42629,0.29291 -9.24559,4.82649 -19.59842,10.07459 l -18.82335,9.54202 0.2314,-1.33158 c 0.12726,-0.73237 0.3533,-1.90626 0.50231,-2.60864 0.21374,-1.00753 0.14253,-1.27707 -0.33739,-1.27707 -0.33457,0 -5.84902,2.74078 -12.25432,6.09063 -6.4053,3.34985 -11.91939,6.09064 -12.25353,6.09064 -0.33414,0 -0.51706,-0.22103 -0.4065,-0.49118 0.2949,-0.72055 10.88691,-23.80509 13.00087,-28.33448 0.99436,-2.13053 1.71046,-4.03139 1.59133,-4.22415 -0.34248,-0.55414 -0.99065,-0.43644 -5.52947,1.00407 -2.34733,0.745 -5.11132,1.56259 -6.14222,1.81689 -1.25018,0.30838 -2.11178,0.806 -2.58731,1.49431 -1.2526,1.81309 -14.59614,28.32896 -14.59614,29.00502 0,0.35749 0.27875,0.958 0.61942,1.33445 0.57438,0.63466 0.49579,0.75476 -1.08059,1.65138 -3.57694,2.0345 -8.54739,4.36976 -8.7882,4.12895 -0.13834,-0.13834 1.0713,-3.22702 2.68808,-6.86372 1.73014,-3.89169 2.79745,-6.76379 2.59409,-6.98065 -0.20922,-0.22311 -3.30815,1.61626 -7.85531,4.66249 -5.82516,3.9024 -7.62625,5.30967 -8.0289,6.27337 -0.49451,1.18353 -1.59246,4.18388 -10.00906,27.35172 -2.00209,5.51105 -3.83862,10.21974 -4.08117,10.46376 -0.38189,0.38422 -13.20798,3.69805 -14.21648,3.67306 -0.20377,-0.005 -2.81405,-2.76324 -5.80061,-6.12931 z m 9.50965,-3.82056 c 2.07865,-0.93897 4.41644,-1.91663 5.1951,-2.1726 0.77868,-0.25595 1.76519,-0.8581 2.19226,-1.3381 0.8088,-0.90903 7.20071,-17.64576 7.19896,-18.84992 -8.6e-4,-0.92597 -0.5088,-0.86545 -1.83733,0.21915 -0.61091,0.49873 -4.69531,3.53352 -9.07643,6.74399 -5.06643,3.71264 -8.02659,6.13571 -8.13305,6.65737 -0.32983,1.61649 -0.66065,9.64061 -0.41392,10.03984 0.39519,0.63944 0.85015,0.51812 4.87441,-1.29973 z m 24.53951,-43.50887 c 1.70999,-4.1992 3.13167,-8.24089 3.15926,-8.98151 0.0469,-1.25669 -0.10726,-1.43305 -2.30749,-2.64089 -1.29671,-0.71184 -2.63106,-1.29944 -2.96519,-1.30576 -0.77386,-0.0147 -11.37727,10.65688 -11.37727,11.45035 0,0.75761 9.33455,9.46173 9.93307,9.26221 0.2467,-0.0822 1.84762,-3.58521 3.55762,-7.7844 z m -29.67369,-15.6013 c -0.99018,-1.17792 -3.79434,-6.14609 -3.92672,-6.95706 -0.10855,-0.66503 0.18561,-0.82519 2.03429,-1.10764 1.18865,-0.18161 2.51484,-0.33385 2.94708,-0.33832 0.43224,-0.004 2.02367,-0.18245 3.5365,-0.39552 5.11706,-0.72067 6.48358,-0.81358 6.48358,-0.44077 0,0.46218 -8.80299,8.908 -10.0658,9.65738 -0.24127,0.14317 -0.69528,-0.0449 -1.00893,-0.41807 z M 34.081896,95.814273 c 0,-0.127577 0.520852,-2.205272 1.157454,-4.617088 1.15294,-4.368079 3.380385,-12.907094 4.73143,-18.138182 0.390726,-1.51284 1.360556,-5.206753 2.155184,-8.208704 1.190126,-4.496018 1.353088,-5.541658 0.924515,-5.932234 -0.286162,-0.260785 -1.758055,-0.790299 -3.270885,-1.1767 -4.223986,-1.078867 -11.673189,-3.223905 -12.770692,-3.677383 -0.718048,-0.29669 1.473378,-0.412607 8.144538,-0.430813 9.02311,-0.02462 9.133305,-0.03496 9.690512,-0.909031 C 45.85666,51.13551 48.282589,41.084586 47.848891,40.274223 47.635815,39.876084 45.556232,38.744769 43.227596,37.76019 32.023232,33.022836 25.437124,30.082126 25.437124,29.8167 c 0,-0.09792 17.452625,-0.178036 38.783602,-0.178036 26.857151,0 38.657894,0.125704 38.374824,0.408777 -0.22483,0.224827 -7.996293,4.21938 -17.269913,8.876784 -9.273602,4.657405 -17.029097,8.628841 -17.234413,8.825413 -0.483237,0.462662 -1.394953,0.461672 -1.394953,-0.0015 0,-0.197405 1.071956,-1.804662 2.382124,-3.571684 4.349674,-5.866411 4.233642,-6.289141 -1.463704,-5.332587 -5.244754,0.880568 -5.136929,0.829828 -6.177776,2.906897 -1.63864,3.269995 -4.241583,10.219973 -4.10124,10.95049 0.124625,0.648682 0.743354,0.719892 7.106213,0.817852 3.833338,0.05903 6.969718,0.264106 6.969718,0.45573 0,0.191624 -1.182315,2.678326 -2.627365,5.526004 -3.027413,5.965976 -1.923669,5.539335 -9.28576,3.589278 -6.330978,-1.676934 -6.217967,-1.692609 -7.421768,1.029439 -0.549558,1.242679 -1.131539,2.701489 -1.293273,3.241785 -0.161734,0.540296 -0.428985,1.159189 -0.593887,1.375304 -0.506672,0.664045 -5.10521,11.954603 -5.10521,12.534549 0,0.845592 1.050281,1.057089 3.833466,0.77194 1.721185,-0.176344 2.509512,-0.127372 2.40803,0.149579 -0.135321,0.369317 -4.651176,4.216912 -7.958235,6.780565 -0.696966,0.540296 -2.890452,2.352749 -4.874417,4.027674 -3.259468,2.751749 -4.411291,3.486339 -4.411291,2.813358 z M 137.0471,85.534982 c 0.008,-0.37821 0.25908,-1.831947 0.55886,-3.230522 0.79418,-3.705159 0.40065,-3.976272 -2.47125,-1.702464 -1.00892,0.7988 -2.41678,1.990317 -3.12859,2.64783 -1.54203,1.424388 -2.0302,1.027919 -2.0398,-1.656616 -0.004,-1.213217 -0.19121,-1.753411 -0.67011,-1.93718 -0.36842,-0.141382 -0.73212,-0.05073 -0.81688,0.203547 -0.084,0.252109 -0.4571,0.834175 -0.82902,1.29348 -0.59775,0.738195 -1.30567,0.879954 -6.10068,1.221647 -3.26663,0.232777 -5.56697,0.244014 -5.78275,0.02824 -0.19706,-0.197067 -0.43294,-1.543347 -0.52415,-2.99172 -0.20354,-3.231939 -0.48778,-4.191039 -1.24203,-4.191039 -0.32001,0 -3.48299,1.45202 -7.02885,3.226703 -3.54588,1.77469 -6.54558,3.128173 -6.66602,3.007729 -0.12045,-0.120436 0.64719,-2.058724 1.70584,-4.307304 4.85639,-10.314932 5.19852,-11.142266 4.97541,-12.031233 -0.3313,-1.320031 -1.91476,-1.188951 -2.93434,0.242923 -0.44696,0.627683 -0.81265,1.253735 -0.81265,1.39121 0,0.137484 -0.33522,0.729071 -0.74495,1.314648 -1.1618,1.660453 -5.141883,7.898859 -7.310413,11.458395 -2.35708,3.869039 -3.69199,5.592233 -4.12489,5.32469 -0.47995,-0.296625 -2.75164,-5.29395 -2.75164,-6.053134 0,-0.362732 1.14937,-2.54354 2.55414,-4.846225 1.40478,-2.302695 2.55415,-4.284787 2.55415,-4.40464 0,-0.925888 -1.58531,0.05803 -17.984255,11.161607 -3.299702,2.234192 -6.093368,3.968254 -6.208164,3.853458 -0.114805,-0.114796 0.07477,-1.423075 0.421105,-2.907294 0.346414,-1.484211 0.992621,-4.466815 1.436037,-6.628007 0.443415,-2.161193 0.981754,-4.725155 1.196341,-5.69769 1.000579,-4.534938 1.005017,-4.643433 0.258563,-6.310702 -0.400829,-0.895268 -0.643151,-1.766295 -0.538502,-1.935609 0.201016,-0.325254 1.271024,-0.576118 5.111674,-1.198462 1.296725,-0.21012 3.64925,-0.666437 5.227827,-1.014037 1.578574,-0.3476 2.974684,-0.52747 3.102434,-0.399712 0.12776,0.127758 -1.46739,3.636963 -3.544759,7.798224 -2.141535,4.289791 -3.629034,7.713964 -3.435221,7.907777 0.360964,0.360965 3.235287,-1.624957 7.26842,-5.021883 1.31106,-1.10425 4.15199,-3.406146 6.31319,-5.115323 2.16119,-1.709185 4.6981,-3.737958 5.63758,-4.508396 2.796603,-2.293406 4.096943,-3.149059 4.452063,-2.929572 0.18441,0.113969 0.58883,0.814012 0.8987,1.555651 0.32383,0.775047 0.84331,1.348436 1.22162,1.348436 0.36202,0 2.07135,-0.7073 3.79853,-1.571778 3.52515,-1.764398 3.72293,-1.801605 5.27689,-0.992694 0.61184,0.318495 1.77554,0.869117 2.58598,1.223605 0.81045,0.354488 1.47203,0.845407 1.47019,1.090931 -0.002,0.245524 -1.41493,2.833546 -3.1402,5.751159 -1.72527,2.917612 -3.13837,5.525774 -3.1402,5.795926 -0.004,0.700648 1.89785,0.591715 3.61149,-0.206775 0.7995,-0.372545 3.95178,-3.04853 7.00507,-5.946631 l 5.55143,-5.269271 4.11224,-0.379035 c 2.26173,-0.208469 4.20401,-0.287255 4.31618,-0.175082 0.11217,0.112175 -0.11021,3.667947 -0.49418,7.901727 -0.49855,5.497043 -0.5772,7.818708 -0.27509,8.120811 0.3021,0.302111 1.02841,-0.211068 2.54051,-1.795001 2.86861,-3.004888 3.33228,-3.837612 4.0429,-7.26078 0.33647,-1.620897 0.88607,-4.184859 1.2213,-5.697698 0.33525,-1.512834 0.79532,-3.811557 1.0224,-5.108273 0.41136,-2.34913 0.43172,-2.376161 5.62375,-7.465941 2.86598,-2.809551 8.80217,-8.55636 13.19152,-12.770687 9.14897,-8.784161 8.91999,-8.789498 5.69019,0.132607 -0.95155,2.628558 -2.81228,7.962044 -4.13497,11.852192 -3.90253,11.477703 -4.50957,12.875287 -6.15701,14.175074 -5.85646,4.620608 -12.0717,9.889218 -12.5785,10.662677 -0.84147,1.284252 -2.01966,5.84884 -1.65992,6.430923 0.35415,0.573028 4.88756,0.251637 9.34534,-0.662517 1.58403,-0.324834 3.08704,-0.512029 3.34002,-0.41598 0.25299,0.09604 -1.75033,1.230806 -4.45182,2.521702 -2.70149,1.290904 -6.99204,3.344271 -9.53456,4.563051 -2.54252,1.21878 -4.79703,2.215969 -5.01004,2.215969 -0.213,0 -0.38107,-0.309442 -0.37348,-0.687652 z M 125.04849,75.418061 c 4.2945,-1.512093 4.28085,-1.494615 3.94741,-5.05289 -0.37372,-3.988118 -0.80904,-4.271602 -3.28461,-2.138986 -1.07849,0.929099 -2.68023,2.269457 -3.55943,2.978569 -2.01131,1.622253 -2.92154,4.239978 -1.76767,5.083698 0.39177,0.286471 0.89421,0.456867 1.11654,0.378665 0.22231,-0.0782 1.8188,-0.640284 3.54776,-1.249056 z m 27.99678,-19.55037 c 1.84122,-1.858783 2.62252,-3.008199 3.21346,-4.727466 0.7815,-2.273756 0.74047,-3.426127 -0.12198,-3.426127 -0.25283,0 -1.64759,1.197074 -3.09946,2.660165 -2.243,2.260317 -2.72868,3.001489 -3.23125,4.930975 -0.74659,2.866336 -0.74117,3.018354 0.10754,3.018354 0.38445,0 1.7937,-1.105155 3.13169,-2.455901 z m -75.887603,0.442121 c -0.284068,-0.952349 -1.088361,-7.097286 -0.9474,-7.238251 0.07477,-0.07476 2.827375,-1.467734 6.116931,-3.095507 3.805319,-1.882989 5.980999,-2.767324 5.980999,-2.431053 0,0.290693 -0.76389,1.667707 -1.69754,3.06003 -2.36151,3.521622 -2.4009,3.698718 -1.25685,5.65088 0.54432,0.928821 0.98967,1.851055 0.98967,2.049408 0,0.396036 -4.725606,1.859496 -7.36116,2.279658 -1.246189,0.198668 -1.703914,0.129642 -1.82465,-0.275165 z"
     style="fill:#ffffff;stroke:#ffffff;stroke-width:0.85841674;stroke-miterlimit:4;stroke-dasharray:none;stroke-opacity:1" />
  <path
     inkscape:connector-curvature="0"
     id="path905"
     d="m 74.333184,180.10286 c -2.632421,-8.48268 -4.785381,-15.7027 -4.784368,-16.04446 0.0017,-0.47227 6.247299,-6.23398 11.922017,-10.99782 0.180585,-0.1516 2.016635,-5.29116 4.080144,-11.42126 2.0635,-6.13012 4.1085,-12.16826 4.54445,-13.4181 0.79439,-2.27746 1.54509,-2.74778 1.7844,-1.11795 0.0936,0.63771 0.31758,0.81021 0.83759,0.64516 0.43503,-0.13807 0.79907,0.007 0.94045,0.37586 0.26414,0.68833 2.22007,0.82847 2.22007,0.15905 0,-0.27812 0.42218,-0.35762 1.13841,-0.21437 0.98941,0.19788 1.2197,0.0628 1.75931,-1.03148 0.50489,-1.02395 0.62254,-1.103 0.62982,-0.42314 0.0135,1.25159 1.016423,1.93241 2.085303,1.41542 0.4789,-0.23163 1.75486,-0.51098 2.83545,-0.62074 1.08059,-0.10978 2.27417,-0.31948 2.65237,-0.466 1.30859,-0.50699 0.96955,1.32982 -4.67084,25.30586 l -3.361593,14.2893 -9.57633,14.49386 c -5.26699,7.97163 -9.728015,14.49387 -9.913399,14.49387 -0.185375,0 -2.490842,-6.94037 -5.123254,-15.42306 z m 66.411586,6.28711 c -0.84911,-0.9185 -3.33868,-3.6991 -5.53234,-6.17911 l -3.98853,-4.50909 0.25767,-2.36744 c 0.14171,-1.30208 0.39763,-2.63985 0.56872,-2.97281 0.17108,-0.33296 2.49075,-2.20077 5.15482,-4.15069 20.49424,-15.00034 25.47335,-18.74514 25.47335,-19.15852 0,-0.6395 -4.40886,-4.9668 -5.06041,-4.9668 -0.28531,0 -8.90236,4.77427 -19.14898,10.6095 -10.24664,5.83521 -18.87568,10.60948 -19.17567,10.60948 -0.44648,0 -4.94708,-6.62044 -4.94708,-7.27722 0,-0.1073 0.69415,-0.47283 1.54258,-0.81231 1.71332,-0.68553 1.15698,0.39519 7.66931,-14.8977 4.8728,-11.4428 4.78577,-11.29777 7.09529,-11.82337 2.54078,-0.57823 8.67194,-1.78069 10.3204,-2.02406 l 1.28267,-0.18937 -2.62261,4.66074 c -1.44242,2.5634 -4.45097,7.79154 -6.68565,11.61806 -2.23469,3.82653 -4.06306,7.14199 -4.06306,7.3677 0,0.22571 0.22103,0.4102 0.49118,0.40997 1.03945,-7.9e-4 26.39251,-9.33127 26.53752,-9.76632 0.0842,-0.25268 -1.10009,-1.80135 -2.63181,-3.4415 -1.53172,-1.64015 -2.78011,-3.18521 -2.77419,-3.43348 0.006,-0.24825 2.52858,-3.04824 5.60591,-6.22221 l 5.59513,-5.77085 1.61263,0.2163 c 0.98727,0.13243 1.71755,0.0465 1.88322,-0.22155 0.34798,-0.56305 1.40306,-0.57028 1.40306,-0.01 0,0.48107 -0.56391,1.13263 -5.99241,6.92404 -2.10715,2.24803 -3.8312,4.31958 -3.8312,4.60345 0,0.28386 2.21801,2.50019 4.92892,4.92515 4.90287,4.38577 5.78033,4.83792 6.33895,3.26643 0.13619,-0.38312 1.73846,-4.31744 3.5606,-8.74295 l 3.31298,-8.04637 -1.1136,-0.89196 c -0.61248,-0.49057 -1.69353,-1.16848 -2.40231,-1.50647 -0.70878,-0.33798 -1.50282,-0.95739 -1.76453,-1.37645 -0.26171,-0.41906 -0.70898,-0.76192 -0.99392,-0.76192 -0.28494,0 -0.41292,-0.17016 -0.28439,-0.37813 0.31927,-0.51658 2.17035,0.35406 2.17035,1.02079 0,0.84861 2.44534,0.18578 3.38276,-0.91694 0.71593,-0.84216 0.86258,-0.88622 1.07836,-0.3239 0.40337,1.05115 2.33258,0.62267 2.61437,-0.58066 0.19231,-0.82128 0.47093,-0.989 1.69905,-1.02286 0.91104,-0.0252 1.41414,0.12414 1.32452,0.39295 -0.13785,0.41357 -0.29112,0.46749 -1.65076,0.58079 -0.32418,0.0269 -0.58942,0.33498 -0.58942,0.68437 0,0.45302 0.23807,0.57299 0.82996,0.41821 0.73335,-0.19178 0.80403,-0.0874 0.6072,0.8967 -0.12251,0.61255 -1.47575,4.69628 -3.00722,9.07496 -1.73866,4.9711 -2.64569,8.10002 -2.41495,8.33075 0.23073,0.23073 3.27394,-1.44388 8.10256,-4.45866 l 7.73305,-4.82817 2.92491,-5.91864 c 1.93097,-3.90742 3.32265,-6.22942 4.09543,-6.8332 1.05948,-0.82779 1.195,-0.85081 1.42837,-0.24266 0.1418,0.36954 0.053,0.99972 -0.19714,1.4004 -0.59338,0.95016 -0.57399,1.13212 0.12063,1.13212 0.31659,0 0.77235,-0.36763 1.01282,-0.81694 0.24046,-0.44932 0.95398,-0.99709 1.58559,-1.21728 0.63162,-0.22018 1.14839,-0.68363 1.14839,-1.02989 0,-0.48967 0.10479,-0.52479 0.47153,-0.15804 0.36676,0.36675 0.36676,0.57633 0,0.94307 -0.25934,0.25934 -0.47153,0.7183 -0.47153,1.01988 0,0.30159 -2.76763,6.10207 -6.15029,12.88994 -5.79311,11.62482 -6.11261,12.38324 -5.50123,13.05881 0.357,0.39448 0.64628,0.88013 0.64285,1.07924 -0.008,0.45434 -9.69231,5.52984 -9.98773,5.23442 -0.11925,-0.11925 1.13335,-3.26371 2.78353,-6.98768 1.88224,-4.24765 2.86207,-6.90915 2.62929,-7.14193 -0.23279,-0.23278 -3.23552,1.54455 -8.05761,4.76932 l -7.68655,5.14037 -1.88096,5.17497 c -5.72936,15.76292 -12.39743,33.81899 -12.54304,33.96462 -0.16291,0.16289 -13.50696,3.59899 -14.05239,3.61849 -0.15019,0.005 -0.96779,-0.74175 -1.81692,-1.66026 z m 7.12681,-8.96319 c 3.06498,-1.30975 5.70444,-2.5113 5.86546,-2.67009 0.26221,-0.25856 6.48906,-16.64153 7.15309,-18.8199 0.41778,-1.37053 -0.57908,-1.11147 -3.18278,0.82715 -1.2641,0.94121 -5.40933,4.01521 -9.21163,6.83112 l -6.91326,5.11982 -0.25796,3.05178 c -0.45802,5.41819 -0.34115,8.0415 0.35822,8.0415 0.3389,0 3.1239,-1.07162 6.18886,-2.38138 z m 30.1317,-55.60109 c 0,-0.33693 -0.17971,-0.50153 -0.39935,-0.36579 -0.21965,0.13575 -0.29763,0.41143 -0.17328,0.61261 0.33684,0.54503 0.57263,0.44341 0.57263,-0.24682 z m 28.05112,17.41097 c 6.87332,-14.9352 11.11269,-23.58797 12.42927,-25.36874 0.70685,-0.95605 1.14711,-1.19499 2.0156,-1.09386 0.61117,0.0712 1.37086,0.34487 1.68822,0.60825 0.31735,0.26338 0.7451,0.375 0.95053,0.24803 0.68479,-0.42322 -0.0339,1.45395 -3.74183,9.77361 -2.01865,4.5293 -3.67026,8.37523 -3.67026,8.54653 0,0.68641 1.6933,0.11918 8.82994,-2.95793 l 7.45464,-3.21422 0.70264,-1.96472 c 1.62008,-4.53005 3.99085,-10.737 4.76585,-12.47756 0.87169,-1.9577 1.62182,-2.25851 1.63468,-0.65553 0.004,0.57863 0.27078,0.99466 0.68765,1.07494 0.46825,0.0902 0.68009,-0.12279 0.68009,-0.68373 0,-0.55274 0.2527,-0.8147 0.78588,-0.8147 0.43224,0 0.78589,0.17682 0.78589,0.39294 0,0.21612 0.35365,0.39295 0.78589,0.39295 0.43224,0 0.78589,-0.17683 0.78589,-0.39295 0,-0.21612 -0.22103,-0.39565 -0.49118,-0.39896 -0.92329,-0.0113 0.65394,-0.76762 1.61382,-0.77385 0.71758,-0.005 0.86916,0.14884 0.67302,0.68163 -0.13921,0.37821 -0.71864,1.88656 -1.2876,3.35188 -0.70528,1.81644 -0.90653,2.79217 -0.6324,3.06629 0.37687,0.37687 7.37539,-0.044 19.95735,-1.20034 2.15531,-0.19808 3.97707,-0.30182 4.04834,-0.23056 0.24125,0.24126 -2.4325,1.66663 -16.61188,8.85575 -7.7803,3.9447 -15.692,7.97813 -17.58155,8.96317 -1.88955,0.98504 -3.55351,1.67303 -3.69768,1.52884 -0.14418,-0.14417 -0.0569,-0.94689 0.19376,-1.78379 0.56212,-1.87623 0.5857,-3.19874 0.057,-3.19874 -0.2194,0 -1.32455,0.50764 -2.4559,1.12811 -1.13136,0.62046 -4.09049,2.18669 -6.57586,3.4805 -2.48538,1.29382 -6.92086,3.61537 -9.85663,5.159 -2.93577,1.54364 -5.53948,2.80661 -5.786,2.80661 -0.25636,0 0.11301,-1.21959 0.86282,-2.84885 z m -84.04568,-11.97567 c -0.64835,-0.0923 -1.35565,-0.34924 -1.57177,-0.57098 -0.26791,-0.27487 0.11614,-0.32055 1.2069,-0.14355 1.41405,0.22945 1.65053,0.15428 2.03637,-0.64721 0.31871,-0.66209 0.44368,-0.72992 0.4631,-0.2513 0.0342,0.84171 -0.37636,1.91588 -0.7031,1.83975 -0.13895,-0.0324 -0.78313,-0.1344 -1.4315,-0.22671 z m 19.30908,-8.23888 c -0.1382,-0.13821 -0.25127,-0.57547 -0.25127,-0.97169 0,-0.50912 0.29214,-0.7204 0.99617,-0.7204 0.86492,0 0.94231,0.10069 0.58731,0.76401 -0.49268,0.92059 -0.9919,1.26837 -1.33221,0.92808 z m 60.26214,-5.25177 c 0,-0.22888 0.17682,-0.30685 0.39294,-0.17328 0.21612,0.13357 0.39294,0.32082 0.39294,0.41613 0,0.0953 -0.17682,0.17328 -0.39294,0.17328 -0.21612,0 -0.39294,-0.18726 -0.39294,-0.41613 z M 34.185678,95.879073 c 0,-0.127582 0.520853,-2.205274 1.157455,-4.617094 1.152939,-4.368075 3.380385,-12.907095 4.73143,-18.138181 0.390725,-1.512836 1.360556,-5.206752 2.155184,-8.208701 1.190126,-4.496023 1.353088,-5.54166 0.924514,-5.932236 -0.286161,-0.260785 -1.758054,-0.7903 -3.270885,-1.176701 -4.223985,-1.078867 -11.673188,-3.223905 -12.770691,-3.677383 -0.718048,-0.29669 1.473378,-0.412607 8.144538,-0.430813 9.023109,-0.02462 9.133304,-0.03496 9.690511,-0.909031 1.012709,-1.588628 3.438637,-11.639551 3.004939,-12.449914 -0.213076,-0.398139 -2.292659,-1.529454 -4.621294,-2.514033 -11.204364,-4.737354 -17.790472,-7.678065 -17.790472,-7.94349 0,-0.09792 17.452624,-0.178037 38.783602,-0.178037 26.857148,0 38.657901,0.125704 38.374831,0.408777 -0.22484,0.224827 -7.996293,4.21938 -17.269923,8.876785 -9.2736,4.657405 -17.029094,8.628841 -17.23441,8.825412 -0.483238,0.462663 -1.394953,0.461673 -1.394953,-0.0015 0,-0.197405 1.071956,-1.804662 2.382123,-3.571684 4.349675,-5.866411 4.233643,-6.289141 -1.463703,-5.332587 -5.244755,0.880568 -5.136929,0.829828 -6.177776,2.906897 -1.638641,3.269995 -4.241583,10.219972 -4.101241,10.950489 0.124625,0.648682 0.743355,0.719892 7.106214,0.817852 3.833337,0.05903 6.969717,0.264106 6.969717,0.45573 0,0.191624 -1.182314,2.678326 -2.627364,5.526005 -3.027413,5.965972 -1.923669,5.539333 -9.28576,3.589281 -6.330978,-1.676935 -6.217967,-1.69261 -7.421768,1.029431 -0.549558,1.242686 -1.131539,2.701491 -1.293273,3.24179 -0.161735,0.540298 -0.428986,1.159186 -0.593888,1.375306 -0.506671,0.66404 -5.10521,11.954597 -5.10521,12.534547 0,0.845593 1.050282,1.057087 3.833466,0.77194 1.721186,-0.176342 2.509513,-0.127374 2.408031,0.149577 -0.135321,0.36932 -4.651177,4.216917 -7.958236,6.780564 -0.696965,0.540298 -2.890452,2.352753 -4.874416,4.027678 -3.259468,2.751749 -4.411292,3.486336 -4.411292,2.813355 z M 137.15089,85.599777 c 0.008,-0.378209 0.25907,-1.831945 0.55885,-3.230524 0.79418,-3.705157 0.40065,-3.976266 -2.47125,-1.702462 -1.00892,0.798796 -2.41678,1.990321 -3.12859,2.647831 -1.54202,1.424387 -2.0302,1.027915 -2.0398,-1.656618 -0.004,-1.213219 -0.19121,-1.753407 -0.67011,-1.937179 -0.36841,-0.141377 -0.73212,-0.05075 -0.81688,0.203545 -0.084,0.252109 -0.45709,0.834177 -0.82902,1.293482 -0.59775,0.738193 -1.30567,0.879951 -6.10067,1.221644 -3.26664,0.232776 -5.56698,0.244015 -5.78276,0.02826 -0.19706,-0.197065 -0.43294,-1.54334 -0.52414,-2.991717 -0.20355,-3.231942 -0.48779,-4.191041 -1.24204,-4.191041 -0.32001,0 -3.48299,1.45202 -7.02885,3.226709 -3.54588,1.774689 -6.54557,3.12817 -6.66602,3.007729 -0.12044,-0.120441 0.6472,-2.058729 1.70585,-4.307305 4.85638,-10.314933 5.19852,-11.142273 4.97541,-12.031235 -0.33131,-1.320032 -1.91477,-1.188948 -2.93435,0.242918 -0.44696,0.627689 -0.81265,1.253741 -0.81265,1.391215 0,0.13748 -0.33522,0.72907 -0.74494,1.314647 -1.16181,1.660453 -5.141893,7.898863 -7.310423,11.4584 -2.35707,3.869031 -3.69199,5.592233 -4.12489,5.324689 -0.47995,-0.296626 -2.75164,-5.293954 -2.75164,-6.053134 0,-0.362734 1.14937,-2.543539 2.55415,-4.846232 1.40477,-2.302692 2.55414,-4.284782 2.55414,-4.404638 0,-0.92589 -1.58531,0.058 -17.984252,11.161605 -3.299703,2.234199 -6.093368,3.968257 -6.208165,3.853459 -0.114804,-0.114795 0.07477,-1.423075 0.421105,-2.907288 0.346414,-1.484213 0.992622,-4.466818 1.436037,-6.628011 0.443415,-2.161194 0.981754,-4.725154 1.196341,-5.697691 1.000579,-4.534935 1.005017,-4.643431 0.258564,-6.310705 -0.400829,-0.895264 -0.643152,-1.766288 -0.538502,-1.935607 0.201015,-0.325249 1.271023,-0.57612 5.111674,-1.198459 1.296724,-0.21012 3.64925,-0.666437 5.227826,-1.014037 1.578582,-0.347601 2.974682,-0.527471 3.102442,-0.399713 0.12775,0.127759 -1.4674,3.63696 -3.544767,7.798227 -2.141535,4.289789 -3.629033,7.713959 -3.43522,7.907771 0.360964,0.360967 3.235287,-1.624954 7.268417,-5.021878 1.31106,-1.104248 4.15199,-3.406147 6.31319,-5.115329 2.1612,-1.709178 4.6981,-3.737956 5.63758,-4.508391 2.796603,-2.293406 4.096943,-3.14906 4.452073,-2.929573 0.1844,0.113969 0.58882,0.814012 0.89869,1.555652 0.32384,0.775047 0.84331,1.348436 1.22162,1.348436 0.36202,0 2.07135,-0.707299 3.79853,-1.571778 3.52516,-1.764399 3.72294,-1.801606 5.27689,-0.992695 0.61184,0.318495 1.77554,0.869117 2.58598,1.223605 0.81045,0.354488 1.47203,0.845408 1.4702,1.090932 -0.002,0.245524 -1.41494,2.833544 -3.1402,5.751154 -1.72528,2.917612 -3.13838,5.52578 -3.14021,5.795929 -0.004,0.70065 1.89785,0.591715 3.61149,-0.206776 0.7995,-0.372542 3.95179,-3.048524 7.00507,-5.946626 l 5.55143,-5.269273 4.11224,-0.379035 c 2.26173,-0.208469 4.20401,-0.287255 4.31618,-0.175082 0.11218,0.112175 -0.1102,3.66795 -0.49417,7.901724 -0.49856,5.497043 -0.5772,7.818714 -0.2751,8.120817 0.3021,0.302105 1.02841,-0.21107 2.54051,-1.795001 2.86861,-3.004892 3.33229,-3.837614 4.0429,-7.260788 0.33647,-1.620895 0.88608,-4.184857 1.22131,-5.697691 0.33524,-1.512836 0.79531,-3.81156 1.0224,-5.108276 0.41136,-2.34913 0.43171,-2.37616 5.62374,-7.46594 2.86598,-2.809551 8.80217,-8.55636 13.19152,-12.770688 9.14897,-8.784161 8.91999,-8.789497 5.69019,0.132607 -0.95155,2.628559 -2.81228,7.962045 -4.13497,11.852193 -3.90252,11.477702 -4.50957,12.875287 -6.15701,14.175072 -5.85645,4.620605 -12.0717,9.889218 -12.5785,10.662682 -0.84147,1.284252 -2.01966,5.848837 -1.65992,6.430918 0.35416,0.573026 4.88756,0.25164 9.34534,-0.662516 1.58403,-0.324835 3.08704,-0.51203 3.34002,-0.415983 0.253,0.09604 -1.75032,1.230811 -4.45182,2.521708 -2.70149,1.2909 -6.99204,3.344269 -9.53456,4.563053 -2.54252,1.21878 -4.79703,2.215962 -5.01003,2.215962 -0.21301,0 -0.38107,-0.309444 -0.37348,-0.687653 z M 125.15227,75.482858 c 4.29451,-1.512097 4.28085,-1.494614 3.94741,-5.052893 -0.37372,-3.988114 -0.80904,-4.271599 -3.28461,-2.13898 -1.07849,0.929092 -2.68023,2.269449 -3.55942,2.978567 -2.01132,1.622247 -2.92155,4.239976 -1.76768,5.083698 0.39177,0.286472 0.89421,0.456867 1.11654,0.37866 0.22232,-0.07822 1.81881,-0.640282 3.54776,-1.249052 z m 27.99678,-19.550371 c 1.84122,-1.858784 2.62253,-3.008199 3.21346,-4.727467 0.7815,-2.273755 0.74047,-3.426126 -0.12198,-3.426126 -0.25282,0 -1.64759,1.197074 -3.09945,2.660165 -2.243,2.260316 -2.72869,3.001489 -3.23125,4.930975 -0.7466,2.866335 -0.74118,3.018354 0.10753,3.018354 0.38445,0 1.7937,-1.105155 3.13169,-2.455901 z m -75.887601,0.44212 c -0.284067,-0.952348 -1.08836,-7.097285 -0.9474,-7.23825 0.07477,-0.07476 2.827376,-1.467734 6.116932,-3.095507 3.805316,-1.882989 5.980996,-2.767324 5.980996,-2.431053 0,0.290693 -0.76388,1.667707 -1.69754,3.06003 -2.3615,3.521622 -2.4009,3.698718 -1.25685,5.650879 0.54432,0.928821 0.98968,1.851055 0.98968,2.049408 0,0.396036 -4.725613,1.859496 -7.361167,2.279658 -1.246189,0.198668 -1.703914,0.129643 -1.824651,-0.275165 z"
     style="fill:#ffffff;stroke:#ffffff;stroke-width:0.85841674;stroke-miterlimit:4;stroke-dasharray:none;stroke-opacity:1" />
  <path
     inkscape:connector-curvature="0"
     id="path903"
     d="m 34.18567,95.231524 c 0,-0.478527 0.173031,-1.413077 0.38451,-2.07678 0.211488,-0.663702 0.933236,-3.328631 1.603874,-5.922063 1.924914,-7.443739 3.388223,-13.055253 4.457338,-17.093074 2.260966,-8.539162 2.708802,-10.524189 2.498173,-11.073081 -0.122857,-0.320188 -1.421049,-0.88179 -2.912763,-1.260075 -4.53911,-1.151076 -6.480565,-1.697321 -10.157044,-2.857768 l -3.536505,-1.116263 8.897395,-0.105505 c 6.538345,-0.07753 9.005684,-0.235968 9.305769,-0.597552 0.224605,-0.270627 0.857464,-2.256635 1.40637,-4.413353 0.548906,-2.156719 1.200127,-4.668178 1.447162,-5.581021 0.694013,-2.564611 0.29399,-3.409454 -2.09191,-4.418045 C 44.350542,38.23609 42.712554,37.524904 41.848077,37.136535 36.979043,34.949092 31.119534,32.41696 30.92669,32.41696 c -0.392553,0 -5.385792,-2.382862 -5.385792,-2.570185 0,-0.09923 17.250863,-0.180422 38.335251,-0.180422 24.506788,0 38.250801,0.136659 38.101111,0.378862 -0.12878,0.208372 -7.863953,4.19255 -17.189293,8.85373 -9.325321,4.661179 -17.191783,8.671274 -17.481018,8.911323 -0.289244,0.240048 -0.634619,0.327732 -0.767494,0.194853 -0.132882,-0.132878 0.831291,-1.645438 2.142617,-3.361245 3.641936,-4.765329 4.212843,-6.331185 2.309373,-6.334021 -0.468258,-7.08e-4 -2.691531,0.297975 -4.9406,0.663718 l -4.089223,0.664988 -1.706704,3.652249 c -0.938687,2.008735 -1.706713,3.820306 -1.706713,4.02571 0,0.205405 -0.464661,1.444912 -1.032598,2.754458 -1.533441,3.535804 -1.480125,3.564971 6.516448,3.564971 3.611548,0 6.666841,0.1004 6.789561,0.223112 0.12271,0.122711 -0.972895,2.554053 -2.434676,5.402983 -2.949915,5.749236 -2.609905,5.518349 -6.498704,4.412962 -5.091338,-1.447213 -8.14792,-2.119986 -8.688756,-1.912448 -0.526837,0.202167 -2.510157,3.897036 -2.510157,4.676355 0,0.192162 -0.434376,1.236049 -0.965289,2.319751 -0.530914,1.083696 -1.945636,4.339223 -3.14384,7.2345 -2.65868,6.424292 -2.627013,6.536671 1.739813,6.176151 l 2.958731,-0.244266 -1.02143,0.885568 c -0.561782,0.487061 -3.833045,3.200679 -7.269468,6.030267 -3.436414,2.829584 -6.498729,5.447405 -6.805133,5.817379 -0.306403,0.369976 -0.881087,0.846075 -1.277066,1.057997 -0.597244,0.319633 -0.719971,0.236998 -0.719971,-0.484736 z m 102.81265,-9.280768 c -0.1062,-0.171812 0.0522,-1.456676 0.35198,-2.855255 0.29978,-1.398579 0.55126,-2.857863 0.55886,-3.242854 0.0241,-1.223822 -1.07689,-1.190614 -2.42531,0.07314 -0.71162,0.666941 -1.42059,1.213436 -1.57547,1.214435 -0.15488,0.0011 -0.90049,0.620706 -1.65692,1.377123 -0.75642,0.756418 -1.53739,1.375305 -1.73551,1.375305 -0.45244,0 -0.83244,-1.378562 -0.83945,-3.045318 -0.007,-1.635755 -0.87777,-1.688217 -2.32402,-0.139994 -0.95949,1.027129 -1.40218,1.16695 -4.57828,1.446042 -1.93385,0.169933 -4.40021,0.321343 -5.48081,0.336467 l -1.96472,0.0275 -0.0967,-1.571778 c -0.24866,-4.041455 -0.56205,-5.640222 -1.1498,-5.865764 -0.34972,-0.134199 -3.43261,1.171634 -7.24529,3.068902 -5.19781,2.586543 -6.63655,3.158234 -6.63655,2.63708 0,-0.365973 0.15911,-0.833392 0.35356,-1.038705 0.19446,-0.205313 1.79278,-3.444031 3.55184,-7.197151 3.05798,-6.524545 3.17135,-6.864944 2.58446,-7.760649 -0.33759,-0.515236 -0.76272,-0.936795 -0.9447,-0.936795 -0.74409,0 -2.3535,1.658461 -3.615,3.725183 -0.7374,1.208091 -2.224873,3.597224 -3.305463,5.309179 -1.08059,1.711961 -2.82868,4.490752 -3.88464,6.175099 -3.2204,5.136811 -3.5672,5.615334 -3.97425,5.483796 -0.21613,-0.06983 -0.98983,-1.350506 -1.71934,-2.845937 l -1.32639,-2.718966 1.06873,-1.964721 c 0.58781,-1.080598 1.77896,-3.06809 2.64704,-4.41665 2.08403,-3.237613 1.83444,-4.091422 -0.76339,-2.611449 -1.02926,0.586359 -2.7555,1.715838 -3.8361,2.509951 -1.0806,0.794117 -2.51888,1.781915 -3.19619,2.195108 -0.677318,0.413193 -3.91288,2.562048 -7.190143,4.775231 -3.277255,2.213184 -6.33024,4.222839 -6.784402,4.465899 -0.779219,0.417023 -0.812286,0.367418 -0.586694,-0.88042 0.230219,-1.273473 2.003356,-9.689093 2.638181,-12.521251 1.167369,-5.208016 1.218471,-5.838935 0.573903,-7.085382 -1.172958,-2.26826 -0.960465,-2.402289 5.903272,-3.723527 3.456423,-0.665348 6.342493,-1.072092 6.413473,-0.903878 0.071,0.168216 -1.476247,3.554243 -3.43827,7.524509 -3.566678,7.217375 -3.917891,8.11772 -3.166562,8.11772 0.477649,0 2.941966,-1.524265 4.31721,-2.670346 0.892831,-0.744056 11.029942,-9.06164 12.003062,-9.848617 0.22761,-0.184071 1.15593,-0.825774 2.06295,-1.426011 0.90703,-0.600237 1.64913,-1.211414 1.64913,-1.35817 0,-0.390847 2.037343,-1.831772 3.039833,-2.149952 0.70667,-0.224286 0.90965,-0.08996 1.11789,0.739809 0.13996,0.557619 0.6123,1.26449 1.04965,1.570824 0.71854,0.503282 1.1401,0.38375 4.3731,-1.239957 l 3.57789,-1.796929 1.45579,0.837845 c 0.80069,0.460816 1.71061,0.837847 2.02206,0.837847 0.31146,0 0.93989,0.309443 1.39654,0.687652 l 0.83027,0.687653 -1.73861,2.947081 c -4.78017,8.102817 -4.93435,8.419452 -4.37452,8.984183 0.44851,0.452451 0.83052,0.436463 2.45377,-0.102692 2.00805,-0.666968 5.29048,-3.409817 10.26019,-8.573603 1.41725,-1.472589 3.08135,-2.803322 3.76468,-3.01049 1.77389,-0.537809 7.61546,-0.908971 7.86825,-0.499933 0.11822,0.191274 -0.12282,3.766921 -0.53565,7.945883 -0.41281,4.178958 -0.66357,7.738892 -0.55723,7.910962 0.40089,0.648649 1.08087,0.25293 2.97128,-1.729136 3.31275,-3.473386 3.32991,-3.510744 4.8381,-10.532229 2.31929,-10.797523 1.97089,-9.940206 5.48891,-13.506689 1.73574,-1.759636 5.78443,-5.673561 8.99712,-8.69761 3.21267,-3.024049 7.52262,-7.141436 9.57763,-9.149745 2.05503,-2.008309 3.80399,-3.583907 3.88658,-3.50131 0.13918,0.139175 -0.7178,2.698751 -6.4075,19.137584 -1.15943,3.349849 -2.55603,7.435577 -3.10356,9.079395 -1.10234,3.309522 -1.43833,3.699467 -7.04379,8.175097 -1.94508,1.553026 -3.88513,3.124575 -4.31124,3.492327 -0.42612,0.367753 -1.16515,0.938069 -1.64229,1.267372 -1.72952,1.193618 -3.18182,3.514076 -3.84048,6.13622 -0.94304,3.754249 -0.90409,3.774073 5.66809,2.884419 2.91762,-0.394944 5.6142,-0.838923 5.9924,-0.986616 0.37821,-0.147692 0.68765,-0.152486 0.68765,-0.01065 0,0.141837 -1.37038,0.895611 -3.04531,1.675059 -2.54796,1.185721 -14.62822,6.997009 -15.49414,7.453558 -0.14717,0.07759 -0.35444,3.94e-4 -0.46062,-0.17132 z M 125.15227,75.482858 c 4.02157,-1.513649 4.02383,-1.517515 3.53794,-6.054693 -0.33125,-3.093139 -0.92112,-3.413588 -2.878,-1.563462 -0.79521,0.751824 -2.11048,1.763455 -2.92284,2.248069 -2.42956,1.44936 -4.43635,5.844315 -2.94361,6.446647 0.96878,0.390909 1.72073,0.23543 5.20651,-1.076561 z m 27.893,-19.615168 c 2.39109,-2.461945 2.86933,-3.191544 3.31808,-5.062154 0.95768,-3.992048 -0.39782,-4.119121 -3.96053,-0.371283 -2.2593,2.376701 -2.61868,2.971478 -3.06434,5.071535 -0.88527,4.171577 -0.0705,4.251122 3.70679,0.361902 z m -76.050093,0.634909 c -0.01176,-0.171882 -0.255293,-1.815524 -0.541146,-3.652539 -0.595921,-3.829812 -0.650645,-3.718496 2.521917,-5.130884 1.185705,-0.527863 3.564481,-1.714047 5.286149,-2.635965 1.72167,-0.921918 3.27519,-1.627918 3.45228,-1.56889 0.17709,0.05902 -0.29324,1.078561 -1.04517,2.265631 -2.93123,4.627509 -2.90801,4.535145 -1.68935,6.717864 1.28126,2.294841 1.28419,2.316965 0.30706,2.316965 -0.42208,0 -1.17358,0.154211 -1.670025,0.34269 -2.809735,1.066757 -6.588194,1.834307 -6.621715,1.345128 z"
     style="fill:#ffffff;stroke-width:0.39294425" />
</svg>
