<?xml version="1.0" encoding="UTF-8" standalone="no"?>
<svg
   version="1.1"
   viewBox="0 0 500 200"
   id="svg34"
   sodipodi:docname="gamecom-mono.svg"
   width="500"
   height="200"
   inkscape:version="1.2.2 (b0a8486541, 2022-12-01)"
   xmlns:inkscape="http://www.inkscape.org/namespaces/inkscape"
   xmlns:sodipodi="http://sodipodi.sourceforge.net/DTD/sodipodi-0.dtd"
   xmlns="http://www.w3.org/2000/svg"
   xmlns:svg="http://www.w3.org/2000/svg">
  <defs
     id="defs38" />
  <sodipodi:namedview
     id="namedview36"
     pagecolor="#505050"
     bordercolor="#ffffff"
     borderopacity="1"
     inkscape:showpageshadow="0"
     inkscape:pageopacity="0"
     inkscape:pagecheckerboard="1"
     inkscape:deskcolor="#505050"
     showgrid="false"
     inkscape:zoom="1.1191667"
     inkscape:cx="503.05287"
     inkscape:cy="196.12807"
     inkscape:window-width="1670"
     inkscape:window-height="910"
     inkscape:window-x="0"
     inkscape:window-y="0"
     inkscape:window-maximized="1"
     inkscape:current-layer="svg34" />
  <path
     fill="#000000"
     d="m 54.983508,58.05856 a 0.52758583,0.48879275 0.4 0 1 -0.527586,-0.496551 l 0.10862,-9.287063 a 0.40344798,0.4112066 0.6 0 1 0.403448,-0.403448 l 28.613773,0.0078 a 0.41896521,0.40344798 0 0 1 0.418965,0.403448 v 9.201718 a 0.41896521,0.42672383 89.5 0 1 -0.418965,0.418924 L 75.947285,58.00425 A 0.72930982,0.76034428 89.7 0 0 75.1947,58.73356 v 28.450838 a 0.52758583,0.54310306 89.6 0 1 -0.535345,0.52759 l -10.543958,0.11638 a 0.73706843,0.75258566 89.4 0 1 -0.760344,-0.72931 L 63.223157,58.555111 a 0.4112066,0.4112066 0 0 0 -0.403448,-0.411206 z"
     id="path2"
     style="stroke-width:0.775862;fill:#ffffff" />
  <rect
     fill="#000000"
     x="87.026588"
     y="47.739601"
     width="11.249991"
     height="39.987904"
     rx="0.48103413"
     id="rect4"
     style="stroke-width:0.775862;fill:#ffffff" />
  <path
     fill="#000000"
     d="m 127.51104,72.605968 -7.85948,-0.031 a 0.43448244,0.42672383 0.5 0 1 -0.42672,-0.42672 v -9.186203 a 0.67499951,0.67499951 0 0 1 0.675,-0.675 h 19.25688 a 0.62844782,0.62844782 0 0 1 0.62845,0.628448 v 24.346535 a 0.43448244,0.43448244 0 0 1 -0.43449,0.43448 c -15.4086,0 -37.20255,4.19741 -38.17238,-18.67498 -0.36465,-8.666378 3.56121,-16.487062 11.73103,-19.668094 6.94396,-2.715515 18.41895,-1.761206 26.34825,-1.481896 a 0.41896521,0.40344798 1.1 0 1 0.40345,0.403448 l 0.0931,9.100856 a 0.68275813,0.65172367 0 0 1 -0.69051,0.659482 q -9.55862,-0.147413 -18.09309,0.178448 c -5.99741,0.232759 -10.12499,6.827582 -8.87586,12.289646 1.83104,8.01465 9.19396,6.80431 15.29223,6.95948 a 0.65948228,0.58965475 0.7 0 0 0.68276,-0.59741 l -0.0854,-3.87155 a 0.39568937,0.47327552 89.5 0 0 -0.47327,-0.38793 z"
     id="path6"
     style="stroke-width:0.775862;fill:#ffffff" />
  <path
     fill="#000000"
     d="m 155.91533,61.774937 q 0.85345,1.093964 2.24224,1.093964 h 13.63964 a 0.76810289,0.76810289 0 0 1 0.76811,0.768103 v 8.937924 a 0.76810289,0.76810289 0 0 1 -0.76811,0.7681 H 157.5136 a 2.1103433,2.1181019 15.2 0 0 -1.82327,1.04742 c -1.16379,1.99396 0.675,3.0181 2.45948,3.04137 q 14.66378,0.24052 29.19567,-0.0155 a 0.53534444,0.53534444 0 0 1 0.5431,0.53534 v 9.20948 a 0.58189613,0.58189613 0 0 1 -0.5819,0.58189 q -16.87498,0.0543 -33.95169,-0.19396 c -11.64569,-0.17069 -15.9362,-11.95603 -7.54138,-19.67585 a 0.63620644,0.63620644 0 0 0 0.0543,-0.868965 c -4.2362,-5.136203 -5.39999,-12.274129 -0.0233,-16.874988 4.45344,-3.801721 19.84653,-2.467239 26.04567,-2.381894 a 0.68275813,0.68275813 0 0 1 0.675,0.682758 v 8.992235 a 0.59741336,0.59741336 0 0 1 -0.59742,0.597413 h -13.44564 q -1.2181,0 -2.17241,0.760344 -1.69914,1.365517 -0.43448,2.994826 z"
     id="path8"
     style="stroke-width:0.775862;fill:#ffffff" />
  <path
     fill="#000000"
     d="m 209.05408,77.555958 q 26.66636,-0.24052 53.68186,-0.14741 c 10.06292,0.0388 -0.17845,-7.8362 5.09741,-11.521545 4.32155,-3.018102 9.35689,0.55862 10.88534,4.918965 3.22758,9.19396 -3.51465,17.3405 -12.87154,16.99136 q -2.63018,-0.10086 -2.69224,-0.10086 -32.71033,0.0466 -66.3284,0 a 0.79137874,0.79913735 0 0 1 -0.79138,-0.79914 c 0,-3.75517 -0.17069,-7.49482 0.0776,-11.02499 0.24052,-3.44482 -2.85517,-2.91724 -5.05861,-2.91724 a 0.44224106,0.43448244 0.5 0 1 -0.44225,-0.44224 l 0.031,-9.597405 a 0.42672383,0.40344798 88.9 0 1 0.38793,-0.426724 l 5.74138,-0.256034 a 1.2879301,0.91551658 16 0 0 0.68275,-0.240517 q 2.51379,-2.102585 0.225,-3.421549 c -1.86982,-1.078448 -6.75775,-0.550862 -9.20171,-0.550862 a 0.58965475,0.58965475 0 0 0 -0.58966,0.589655 v 15.656886 a 0.78362012,0.80689597 0.3 0 1 -0.79138,0.80689 l -10.18706,-0.13965 a 0.9232752,0.96982689 0.5 0 1 -0.90776,-0.96983 V 48.569774 a 0.63620644,0.63620644 0 0 1 0.63621,-0.636207 q 10.37327,0 20.36636,0.01552 c 12.44482,0.02327 18.07758,11.878439 9.16293,21.429291 a 0.76810289,0.76034428 46.9 0 0 -0.031,1.00862 q 2.42845,2.96379 1.92414,6.01293 a 0.99310273,0.99310273 0 0 0 0.9931,1.15603 z"
     id="path10"
     style="stroke-width:0.775862;fill:#ffffff" />
  <circle
     fill="#000000"
     cx="58.591263"
     cy="62.82235"
     r="3.7706871"
     id="circle12"
     style="stroke-width:0.775862;fill:#ffffff" />
  <circle
     fill="#000000"
     cx="79.811073"
     cy="62.82235"
     r="3.7706871"
     id="circle14"
     style="stroke-width:0.775862;fill:#ffffff" />
  <circle
     fill="#000000"
     cx="286.36865"
     cy="82.793022"
     r="4.8103414"
     id="circle16"
     style="stroke-width:0.775862;fill:#ffffff" />
  <path
     fill="#000000"
     d="M 61.485227,148.59384 C 44.811963,150.0447 30.466284,145.14126 25.299046,128.08782 19.464567,108.86197 34.167143,91.102498 53.858508,91.156808 q 10.0862,0.031 20.668951,0.031 a 0.86120627,0.86896489 0 0 1 0.861206,0.86896 q -0.147414,26.767232 -0.186207,53.782722 -0.0078,5.28362 -1.047413,8.11551 c -2.506032,6.81207 -8.317235,10.6681 -15.556023,10.82327 q -14.516369,0.32586 -29.040496,-0.0233 a 0.40344798,0.39568937 0 0 1 -0.39569,-0.38793 l -0.178448,-10.93965 a 0.54310306,0.55862029 89.2 0 1 0.558621,-0.55862 q 14.2293,0 28.194807,0.008 3.406032,0.008 4.825858,-2.65345 0.962069,-1.80776 -1.078447,-1.62931 z M 42.414551,131.62575 c 4.352583,5.39224 10.660337,5.47758 17.193091,5.19051 3.142239,-0.13965 3.382756,0.5819 3.35948,-2.9793 q -0.0931,-15.09051 0.147414,-29.99481 a 0.61293059,0.61293059 0 0 0 -0.61293,-0.62845 c -8.255167,0 -16.75085,-1.41207 -21.444813,6.78879 q -6.680167,11.66896 1.357758,21.62326 z"
     id="path18"
     style="stroke-width:0.775862;fill:#ffffff" />
  <path
     fill="#000000"
     d="m 119.79897,116.74473 c 0.59742,-5.57845 1.89311,-13.33706 -5.78016,-13.33706 q -13.35258,0 -27.325843,0 a 0.58965475,0.58189613 0 0 1 -0.589654,-0.5819 l -0.03879,-10.993962 a 0.63620644,0.65172367 89.7 0 1 0.651723,-0.64396 q 12.43706,0 24.393084,0 6.73447,0 9.89223,1.10948 c 7.61896,2.68448 10.97068,9.023272 11.0793,16.843952 q 0.27155,18.94654 0.1319,38.7698 a 0.89224074,0.89224074 0 0 1 -0.89224,0.88449 q -15.97499,0 -31.10428,-0.0698 -6.664654,-0.031 -11.11034,-3.86379 c -9.884476,-8.50344 -5.82672,-25.26981 7.316374,-27.50429 5.687066,-0.96983 15.835336,-0.16293 22.957736,-0.225 a 0.41896521,0.43448244 2.9 0 0 0.41896,-0.38793 z M 95.902443,136.6223 c 1.900861,1.64482 3.14224,1.51293 5.462067,1.50517 q 8.82154,-0.031 18.03102,0.0543 a 0.5663789,0.54310306 0 0 0 0.56638,-0.5431 l -0.008,-8.97672 a 1.0163786,1.0396544 89.8 0 0 -1.03966,-1.00862 q -7.82068,0 -16.02929,0 -4.228448,0 -4.926724,0.18621 c -3.786204,1.02413 -5.330168,5.96637 -2.056033,8.78275 z"
     id="path20"
     style="stroke-width:0.775862;fill:#ffffff" />
  <path
     fill="#000000"
     d="m 154.57309,103.65594 -0.0931,44.23187 a 0.85344766,0.86896489 0.3 0 1 -0.85344,0.8612 l -10.5362,0.0466 a 0.63620644,0.64396505 0 0 1 -0.63621,-0.64397 V 91.746508 a 0.55862029,0.55862029 0 0 1 0.55862,-0.55862 q 26.16205,0 52.05255,0 c 9.79137,0 16.29309,5.91982 16.29309,16.099122 q 0,19.97844 0,40.88015 a 0.62844782,0.62844782 0 0 1 -0.62845,0.62845 h -10.7224 a 0.81465458,0.81465458 0 0 1 -0.81466,-0.83018 q 0.27155,-20.47498 0.10087,-41.13617 c -0.0155,-1.9319 -0.81466,-3.61552 -2.87069,-3.61552 q -6.78879,0 -13.30603,0 a 0.65948228,0.65948228 0 0 0 -0.65948,0.65948 v 44.0767 a 0.84568904,0.84568904 0 0 1 -0.84569,0.84569 h -10.21809 a 0.96206827,0.96206827 0 0 1 -0.96207,-0.96207 V 103.8965 a 0.68275813,0.68275813 0 0 0 -0.68276,-0.68276 l -14.78016,0.0465 a 0.39568937,0.39568937 0 0 0 -0.39569,0.39569 z"
     id="path22"
     style="stroke-width:0.775862;fill:#ffffff" />
  <path
     fill="#000000"
     d="m 234.56441,126.19472 c 4.18965,12.80947 17.40257,10.86982 27.76808,10.42758 a 0.73706843,0.73706843 0 0 1 0.76811,0.72155 c 0.0621,3.22758 -0.0854,6.54051 0.10086,9.79913 0.12414,2.16465 -1.65259,1.63707 -3.04138,1.6681 q -10.86982,0.25604 -16.60344,-0.40345 c -9.90775,-1.14051 -18.61291,-8.79051 -22.1586,-17.89912 -5.5862,-14.3224 1.11724,-31.049982 15.50947,-37.024112 8.01465,-3.32845 18.90775,-2.35862 25.71205,-2.16466 a 0.41896521,0.4112066 0.6 0 1 0.40345,0.40345 l 0.10862,10.784482 a 0.69827536,0.7215512 89.7 0 1 -0.72155,0.70603 c -10.67586,0 -22.68619,-2.77758 -27.69826,10.01637 a 0.37241352,0.37241352 0 0 0 0.34914,0.51207 l 27.51205,-0.0543 a 0.52758583,0.51982721 0 0 1 0.52759,0.51983 l 0.0465,11.0793 a 0.43448244,0.42672383 0 0 1 -0.43449,0.42673 H 234.9135 a 0.36465491,0.36465491 0 0 0 -0.34914,0.48103 z"
     id="path24"
     style="stroke-width:0.775862;fill:#ffffff" />
  <path
     fill="#000000"
     d="m 305.68763,96.044738 c 9.0931,-6.22241 19.87758,-4.85689 30.45257,-4.85689 a 0.50430998,0.48879275 0.4 0 1 0.50431,0.49655 l -0.11638,10.993962 a 0.40344798,0.41896521 88.9 0 1 -0.40345,0.40345 c -11.71551,0.48879 -23.48533,-2.9638 -28.1405,11.34309 -2.38965,7.33189 0.58966,18.10085 8.61983,21.24309 4.90344,1.91638 13.65516,1.20258 19.02412,0.96983 a 0.99310273,0.99310273 0 0 1 1.0319,0.9931 v 10.3112 a 0.85344766,0.85344766 0 0 1 -0.84569,0.85345 c -7.23879,0.0931 -16.27758,0.5431 -22.54654,-1.28793 -23.03533,-6.72672 -27.41894,-37.88532 -7.58017,-51.462902 z"
     id="path26"
     style="stroke-width:0.775862;fill:#ffffff" />
  <path
     fill="#000000"
     d="m 370.11944,148.65583 a 28.078428,28.675841 0.1 0 1 -28.02831,-28.7248 28.078428,28.675841 0.1 0 1 28.1284,-28.626722 28.078428,28.675841 0.1 0 1 28.0283,28.724792 28.078428,28.675841 0.1 0 1 -28.12839,28.62673 z m 0.0985,-12.06457 a 13.996542,16.649988 0.1 0 0 14.02563,-16.62554 13.996542,16.649988 0.1 0 0 -13.96745,-16.67443 13.996542,16.649988 0.1 0 0 -14.02563,16.62555 13.996542,16.649988 0.1 0 0 13.96745,16.67442 z"
     id="path28"
     style="stroke-width:0.775862;fill:#ffffff" />
  <path
     fill="#000000"
     d="m 417.7841,148.27574 a 0.46551691,0.47327552 0 0 1 -0.46551,0.47327 l -10.64482,0.0466 a 0.76810289,0.77586151 0 0 1 -0.76811,-0.77587 l -0.0543,-56.296512 a 0.48879275,0.48879275 0 0 1 0.4888,-0.48879 q 24.0517,-0.0776 48.25082,-0.0543 8.01465,0.008 11.09482,1.23362 c 5.83448,2.31207 8.82931,7.33965 8.93793,13.608612 q 0.36465,21.12671 -0.008,42.37756 a 0.4112066,0.40344798 0.6 0 1 -0.41121,0.39569 h -10.67585 a 0.79137874,0.79137874 0 0 1 -0.79138,-0.79138 q 0.0388,-20.9793 -0.0465,-41.42325 c -0.008,-2.54482 -1.28017,-3.36724 -3.63879,-3.36724 q -6.3,0 -12.3362,0 a 0.65948228,0.65948228 0 0 0 -0.65948,0.65948 v 44.0767 a 0.84568904,0.84568904 0 0 1 -0.84569,0.84569 H 434.6046 a 0.52758583,0.51982721 0 0 1 -0.52758,-0.51983 l -0.0466,-44.45687 a 0.60517198,0.60517198 0 0 0 -0.60517,-0.60517 h -15.02843 a 0.65948228,0.65948228 0 0 0 -0.65949,0.65948 z"
     id="path30"
     style="stroke-width:0.775862;fill:#ffffff" />
  <path
     fill="#000000"
     d="m 274.13335,150.16108 q -1.64483,-0.72155 -2.41293,0.90776 -1.97845,4.18965 -4.77155,1.42758 -1.51293,-1.49741 -0.0776,-3.06465 1.75345,-1.90862 3.6,-0.36465 a 0.65948228,0.46551691 47 0 0 0.65172,0.13189 q 0.51983,-0.29482 -0.23275,-0.97758 c -3.19655,-2.90172 -4.01121,-6.9362 -2.07156,-10.82327 q 2.73104,-5.4931 10.38103,-4.84913 a 1.5439644,1.5051713 31 0 0 0.91552,-0.21725 c 2.3431,-1.4431 7.51034,-3.71637 10.22585,-2.61465 4.725,1.91638 -2.29655,9.24827 -3.98017,10.90861 a 1.0008613,0.93879243 70.4 0 0 -0.28707,0.65949 c -0.21724,5.84999 -6.23016,11.38188 -11.9405,8.87585 z m 11.87844,-11.70775 q 2.5681,-2.62241 3.84827,-5.03534 c 2.62241,-4.95 -6.66465,-0.91552 -7.81293,-0.43448 q -1.0862,0.46551 -0.0776,1.07845 2.28879,1.38103 3.38275,4.25172 a 0.40344798,0.39568937 56.7 0 0 0.65949,0.13965 z"
     id="path32"
     style="stroke-width:0.775862;fill:#ffffff" />
</svg>
