<?xml version="1.0" encoding="UTF-8" standalone="no"?>
<!-- Created with Inkscape (http://www.inkscape.org/) -->

<svg
   xmlns:dc="http://purl.org/dc/elements/1.1/"
   xmlns:cc="http://creativecommons.org/ns#"
   xmlns:rdf="http://www.w3.org/1999/02/22-rdf-syntax-ns#"
   xmlns:svg="http://www.w3.org/2000/svg"
   xmlns="http://www.w3.org/2000/svg"
   xmlns:sodipodi="http://sodipodi.sourceforge.net/DTD/sodipodi-0.dtd"
   xmlns:inkscape="http://www.inkscape.org/namespaces/inkscape"
   width="500"
   height="200"
   viewBox="0 0 132.29166 52.916668"
   version="1.1"
   id="svg8"
   sodipodi:docname="gamecube_.svg"
   inkscape:version="0.92.5 (2060ec1f9f, 2020-04-08)">
  <defs
     id="defs2">
    <clipPath
       id="clp9">
      <path
         id="path17491"
         d="M 582.39,1071.7 L 578.76,1073.8 L 578.76,1074.1 L 582.39,1072 L 582.39,1071.7" />
    </clipPath>
    <clipPath
       id="clp8">
      <path
         id="path17485"
         d="M 564.1,1054.8 L 660,1054.8 L 660,1081 L 564.1,1081 L 564.1,1054.8 z " />
    </clipPath>
    <clipPath
       id="clp14">
      <path
         id="path17527"
         d="M 584.85,1073.4 L 578.74,1077 L 570.68,1072.3 L 573.17,1070.8 L 578.76,1074.1 L 582.39,1072 L 584.85,1073.4" />
    </clipPath>
    <clipPath
       id="clp13">
      <path
         id="path17521"
         d="M 564.1,1054.8 L 660,1054.8 L 660,1081 L 564.1,1081 L 564.1,1054.8 z " />
    </clipPath>
    <clipPath
       id="clp19">
      <path
         id="path17561"
         d="M 573.17,1064.4 L 578.78,1061.2 L 584.38,1064.4 L 584.1,1064.6 L 578.75,1061.5 L 573.45,1064.6 L 573.17,1064.4" />
    </clipPath>
    <clipPath
       id="clp18">
      <path
         id="path17555"
         d="M 564.1,1054.8 L 660,1054.8 L 660,1081 L 564.1,1081 L 564.1,1054.8 z " />
    </clipPath>
    <clipPath
       id="clp24">
      <path
         id="path17595"
         d="M 584.38,1064.4 L 584.38,1067.8 L 584.1,1067.6 L 584.1,1064.5 L 584.38,1064.4" />
    </clipPath>
    <clipPath
       id="clp23">
      <path
         id="path17589"
         d="M 564.1,1054.8 L 660,1054.8 L 660,1081 L 564.1,1081 L 564.1,1054.8 z " />
    </clipPath>
    <clipPath
       id="clp29">
      <path
         id="path17629"
         d="M 578.75,1063.3 L 578.75,1067.6 L 574.98,1069.8 L 574.98,1065.4 L 578.75,1063.3" />
    </clipPath>
    <clipPath
       id="clp28">
      <path
         id="path17623"
         d="M 564.1,1054.8 L 660,1054.8 L 660,1081 L 564.1,1081 L 564.1,1054.8 z " />
    </clipPath>
    <clipPath
       id="clp34">
      <path
         id="path17663"
         d="M 578.75,1067.6 L 586.84,1072.3 L 586.84,1063 L 578.78,1058.3 L 578.78,1061.2 L 584.38,1064.4 L 584.38,1067.8 L 582.55,1066.7 L 582.55,1065.4 L 578.75,1063.3 L 578.75,1067.6" />
    </clipPath>
    <clipPath
       id="clp33">
      <path
         id="path17657"
         d="M 564.1,1054.8 L 660,1054.8 L 660,1081 L 564.1,1081 L 564.1,1054.8 z " />
    </clipPath>
    <clipPath
       id="clp39">
      <path
         id="path17697"
         d="M 578.75,1067.6 L 574.98,1069.8 L 578.75,1072 L 582.29,1069.9 L 586.57,1072.4 L 586.84,1072.3 L 578.75,1067.6" />
    </clipPath>
    <clipPath
       id="clp38">
      <path
         id="path17691"
         d="M 564.1,1054.8 L 660,1054.8 L 660,1081 L 564.1,1081 L 564.1,1054.8 z " />
    </clipPath>
    <clipPath
       id="clp44">
      <path
         id="path17731"
         d="M 570.68,1072.3 L 570.67,1063 L 578.78,1058.3 L 578.78,1061.2 L 573.17,1064.4 L 573.17,1070.8 L 570.68,1072.3" />
    </clipPath>
    <clipPath
       id="clp43">
      <path
         id="path17725"
         d="M 564.1,1054.8 L 660,1054.8 L 660,1081 L 564.1,1081 L 564.1,1054.8 z " />
    </clipPath>
  </defs>
  <sodipodi:namedview
     id="base"
     pagecolor="#ffffff"
     bordercolor="#666666"
     borderopacity="1.0"
     inkscape:pageopacity="0.0"
     inkscape:pageshadow="2"
     inkscape:zoom="1.53125"
     inkscape:cx="346.15371"
     inkscape:cy="55.245753"
     inkscape:document-units="mm"
     inkscape:current-layer="layer1"
     showgrid="false"
     units="px"
     inkscape:pagecheckerboard="true"
     inkscape:window-width="1366"
     inkscape:window-height="740"
     inkscape:window-x="0"
     inkscape:window-y="0"
     inkscape:window-maximized="1" />
  <metadata
     id="metadata5">
    <rdf:RDF>
      <cc:Work
         rdf:about="">
        <dc:format>image/svg+xml</dc:format>
        <dc:type
           rdf:resource="http://purl.org/dc/dcmitype/StillImage" />
        <dc:title></dc:title>
      </cc:Work>
    </rdf:RDF>
  </metadata>
  <g
     inkscape:label="Layer 1"
     inkscape:groupmode="layer"
     id="layer1"
     transform="translate(0,-244.08332)">
    <path
       id="path17461"
       style="fill:#ffffff;fill-rule:nonzero;stroke:none;stroke-width:0.02000142;stroke-linecap:butt;stroke-linejoin:miter;stroke-miterlimit:4;stroke-dasharray:none"
       d="m 2.9343017,264.37807 c 0,0 0,13.74475 -0.014783,13.74475 0.059109,0 11.9268813,6.79846 11.9268813,6.79846 0,0 0.01479,0 0.01479,0 0.01478,0 0.01478,0 0.01478,0 0,0 11.601749,-6.65068 11.852995,-6.79846 0,0 0,-13.59695 0,-13.59695 0,0 0,0 0,0 -0.01478,0 -0.01478,-0.1478 -0.01478,-0.1478 0,0 0,0 0.01478,0 -0.04433,0 -0.13301,0 -0.354706,-0.14778 -0.04434,0 -6.325541,3.69482 -6.325541,3.69482 0,0 -5.187524,-2.95586 -5.231873,-2.95586 -0.04433,0 -5.4831181,3.10366 -5.5274549,3.10366 0,0 0,6.35508 0,6.35508 0.044341,0.14779 5.5126799,3.25144 5.5126799,3.25144 0,0 0,0 0.01478,0 0.01478,0 0.01478,0 0.01478,0 0,0 5.305781,-3.10365 5.55703,-3.25144 0,0 0,-1.77351 0,-1.77351 l 2.379456,-1.47793 v 4.58157 c 0,0 -0.02956,0.1478 -0.02956,0.1478 -0.02956,0 -7.906928,4.58158 -7.906928,4.58158 h -0.01478 l -7.8182424,-4.72938 c -0.014784,0 -0.059114,0 -0.059114,0 0,0 0,-9.01535 0,-9.01535 v 0 l 7.8921294,-4.58158 c 0,0 5.113635,2.95584 5.364892,3.10364 0.04434,0 3.561815,-2.0691 3.591368,-2.21688 0,0 0,-0.2956 0,-0.2956 0,0 -0.01478,0 -0.01478,0 0,0 -8.719788,-5.02495 -8.971035,-5.17275 -0.04433,0 -11.8234371,6.79847 -11.8677712,6.79847"
       inkscape:connector-curvature="0" />
    <path
       id="path17463"
       style="fill:#ffffff;fill-rule:nonzero;stroke:none;stroke-width:0.02000142;stroke-linecap:butt;stroke-linejoin:miter;stroke-miterlimit:4;stroke-dasharray:none"
       d="m 6.9986052,266.74277 7.8330188,-4.58158 v -0.44338 l -8.2616211,4.87716 v 9.45873 l 0.413819,-0.29558 0.014785,-9.01535"
       inkscape:connector-curvature="0" />
    <g
       id="q19"
       style="fill:#ffffff;fill-rule:nonzero;stroke:none;stroke-width:0.11;stroke-linecap:butt;stroke-linejoin:miter;stroke-miterlimit:4;stroke-dasharray:none"
       transform="matrix(1.4779298,0,0,-1.4779282,-840.53551,1849.1609)">
      <clipPath
         id="clipPath107054">
        <path
           id="path107056"
           d="M 564.1,1054.8 H 660 v 26.2 h -95.9 z"
           inkscape:connector-curvature="0" />
      </clipPath>
      <g
         id="g17487"
         clip-path="url(#clp8)"
         style="fill:#ffffff">
        <g
           id="q20"
           style="fill:#ffffff;stroke:none">
          <clipPath
             id="clipPath107060">
            <path
               id="path107062"
               d="m 582.39,1071.7 -3.63,2.1 v 0.3 l 3.63,-2.1 v -0.3"
               inkscape:connector-curvature="0" />
          </clipPath>
          <g
             id="g17493"
             clip-path="url(#clp9)"
             style="fill:#ffffff">
            <path
               id="path17495"
               style="fill:#ffffff;fill-rule:nonzero;stroke:none"
               d="m 582.39,1071.7 -3.63,2.1 v 0.3 l 3.63,-2.1 v -0.3"
               inkscape:connector-curvature="0" />
            <g
               id="q21"
               style="fill:#ffffff;fill-rule:nonzero;stroke:none">
              <g
                 id="xfrm22"
                 transform="matrix(4.2799,-3.5117,-3.4119,-4.1582,579.8674,1076.931)"
                 style="fill:#ffffff" />
            </g>
          </g>
        </g>
      </g>
    </g>
    <path
       id="path17499"
       style="fill:#ffffff;fill-rule:nonzero;stroke:none;stroke-width:0.02000142;stroke-linecap:butt;stroke-linejoin:miter;stroke-miterlimit:4;stroke-dasharray:none"
       d="m 20.196516,265.26483 3.650479,-2.0691 -0.01478,-0.44338 -3.635702,2.06911 v 0.44337"
       inkscape:connector-curvature="0" />
    <g
       id="q33"
       style="fill:#ffffff;fill-rule:nonzero;stroke:none;stroke-width:0.11;stroke-linecap:butt;stroke-linejoin:miter;stroke-miterlimit:4;stroke-dasharray:none"
       transform="matrix(1.4779298,0,0,-1.4779282,-840.53551,1849.1609)">
      <clipPath
         id="clipPath107085">
        <path
           id="path107087"
           d="M 564.1,1054.8 H 660 v 26.2 h -95.9 z"
           inkscape:connector-curvature="0" />
      </clipPath>
      <g
         id="g17557"
         clip-path="url(#clp18)"
         style="fill:#ffffff">
        <g
           id="q34"
           style="fill:#ffffff;stroke:none">
          <clipPath
             id="clipPath107091">
            <path
               id="path107093"
               d="m 573.17,1064.4 5.61,-3.2 5.6,3.2 -0.28,0.2 -5.35,-3.1 -5.3,3.1 -0.28,-0.2"
               inkscape:connector-curvature="0" />
          </clipPath>
          <g
             id="g17563"
             clip-path="url(#clp19)"
             style="fill:#ffffff">
            <path
               id="path17565"
               style="fill:#ffffff;fill-rule:nonzero;stroke:none"
               d="m 573.17,1064.4 5.61,-3.2 5.6,3.2 -0.28,0.2 -5.35,-3.1 -5.3,3.1 -0.28,-0.2"
               inkscape:connector-curvature="0" />
            <g
               id="q35"
               style="fill:#ffffff;fill-rule:nonzero;stroke:none">
              <g
                 id="xfrm36"
                 transform="matrix(23.2638,2.7434,0.6658,-5.6463,574.9815,1065.291)"
                 style="fill:#ffffff" />
            </g>
          </g>
        </g>
      </g>
    </g>
    <g
       id="q40"
       style="fill:#ffffff;fill-rule:nonzero;stroke:none;stroke-width:0.11;stroke-linecap:butt;stroke-linejoin:miter;stroke-miterlimit:4;stroke-dasharray:none"
       transform="matrix(1.4779298,0,0,-1.4779282,-840.53551,1849.1609)">
      <clipPath
         id="clipPath107100">
        <path
           id="path107102"
           d="M 564.1,1054.8 H 660 v 26.2 h -95.9 z"
           inkscape:connector-curvature="0" />
      </clipPath>
      <g
         id="g17591"
         clip-path="url(#clp23)"
         style="fill:#ffffff">
        <g
           id="q41"
           style="fill:#ffffff;stroke:none">
          <clipPath
             id="clipPath107106">
            <path
               id="path107108"
               d="m 584.38,1064.4 v 3.4 l -0.28,-0.2 v -3.1 l 0.28,-0.1"
               inkscape:connector-curvature="0" />
          </clipPath>
          <g
             id="g17597"
             clip-path="url(#clp24)"
             style="fill:#ffffff">
            <path
               id="path17599"
               style="fill:#ffffff;fill-rule:nonzero;stroke:none"
               d="m 584.38,1064.4 v 3.4 l -0.28,-0.2 v -3.1 l 0.28,-0.1"
               inkscape:connector-curvature="0" />
            <g
               id="q42"
               style="fill:#ffffff;fill-rule:nonzero;stroke:none">
              <g
                 id="xfrm43"
                 transform="matrix(-0.7682,5.1029,1.7607,0.2651,583.6733,1063.841)"
                 style="fill:#ffffff" />
            </g>
          </g>
        </g>
      </g>
    </g>
    <g
       id="q47"
       style="fill:#ffffff;fill-rule:nonzero;stroke:none;stroke-width:0.11;stroke-linecap:butt;stroke-linejoin:miter;stroke-miterlimit:4;stroke-dasharray:none"
       transform="matrix(1.4779298,0,0,-1.4779282,-840.53551,1849.1609)">
      <clipPath
         id="clipPath107115">
        <path
           id="path107117"
           d="M 564.1,1054.8 H 660 v 26.2 h -95.9 z"
           inkscape:connector-curvature="0" />
      </clipPath>
      <g
         id="g17625"
         clip-path="url(#clp28)"
         style="fill:#ffffff">
        <g
           id="q48"
           style="fill:#ffffff;stroke:none">
          <clipPath
             id="clipPath107121">
            <path
               id="path107123"
               d="m 578.75,1063.3 v 4.3 l -3.77,2.2 v -4.4 l 3.77,-2.1"
               inkscape:connector-curvature="0" />
          </clipPath>
          <g
             id="g17631"
             clip-path="url(#clp29)"
             style="fill:#ffffff">
            <path
               id="path17633"
               style="fill:#ffffff;fill-rule:nonzero;stroke:none"
               d="m 578.75,1063.3 v 4.3 l -3.77,2.2 v -4.4 l 3.77,-2.1"
               inkscape:connector-curvature="0" />
            <g
               id="q49"
               style="fill:#ffffff;fill-rule:nonzero;stroke:none">
              <g
                 id="xfrm50"
                 transform="matrix(-5.4321,-2.963,-4.1836,7.6699,581.7994,1064.241)"
                 style="fill:#ffffff" />
            </g>
          </g>
        </g>
      </g>
    </g>
    <g
       id="q61"
       style="fill:#ffffff;fill-rule:nonzero;stroke:none;stroke-width:0.11;stroke-linecap:butt;stroke-linejoin:miter;stroke-miterlimit:4;stroke-dasharray:none"
       transform="matrix(1.4779298,0,0,-1.4779282,-840.53551,1849.1609)">
      <clipPath
         id="clipPath107145">
        <path
           id="path107147"
           d="M 564.1,1054.8 H 660 v 26.2 h -95.9 z"
           inkscape:connector-curvature="0" />
      </clipPath>
      <g
         id="g17693"
         clip-path="url(#clp38)"
         style="fill:#ffffff">
        <g
           id="q62"
           style="fill:#ffffff;stroke:none">
          <clipPath
             id="clipPath107151">
            <path
               id="path107153"
               d="m 578.75,1067.6 -3.77,2.2 3.77,2.2 3.54,-2.1 4.28,2.5 0.27,-0.1 -8.09,-4.7"
               inkscape:connector-curvature="0" />
          </clipPath>
          <g
             id="g17699"
             clip-path="url(#clp39)"
             style="fill:#ffffff">
            <path
               id="path17701"
               style="fill:#ffffff;fill-rule:nonzero;stroke:none"
               d="m 578.75,1067.6 -3.77,2.2 3.77,2.2 3.54,-2.1 4.28,2.5 0.27,-0.1 -8.09,-4.7"
               inkscape:connector-curvature="0" />
            <g
               id="q63"
               style="fill:#ffffff;fill-rule:nonzero;stroke:none">
              <g
                 id="xfrm64"
                 transform="matrix(0,10.8274,12.7412,0,574.5365,1068.551)"
                 style="fill:#ffffff" />
            </g>
          </g>
        </g>
      </g>
    </g>
    <path
       id="path17739"
       style="fill:#ffffff;fill-rule:nonzero;stroke:none;stroke-width:0.02000142;stroke-linecap:butt;stroke-linejoin:miter;stroke-miterlimit:4;stroke-dasharray:none"
       d="m 23.093258,271.17655 v 4.87715 l -0.369483,-0.29558 -0.04433,0.1478 0.369491,0.14778 -8.187735,4.72938 -8.2172982,-4.72938 0.3842596,-0.29558 h -0.04433 l -0.3842584,0.1478 v -9.31095 l 8.20251,-4.72938 v 0.44338 l 0.02955,-0.14778 0.04435,0.14778 v -0.44338 l 5.276207,2.95587 v 0.44337 h 0.04434 0.04434 v -0.44337 l 3.591361,-2.06911 v 0 h -0.02954 l -3.60615,2.06911 -5.364892,-3.10365 -8.2616219,4.72938 -3.6357013,-2.06912 h -0.044351 v 0 l 3.6357262,2.2169 v 9.45873 l 8.305946,4.72938 v 4.28599 h 0.02957 0.04434 v -4.28599 l 8.276408,-4.72938 v -5.02495 l -0.08868,0.1478"
       inkscape:connector-curvature="0" />
    <path
       id="path17741"
       style="fill:#ffffff;fill-rule:nonzero;stroke:none;stroke-width:0.02000142;stroke-linecap:butt;stroke-linejoin:miter;stroke-miterlimit:4;stroke-dasharray:none"
       d="m 26.728969,264.37807 -11.912121,6.94627 -5.5422306,-3.25143 h -0.029557 v 0 l 5.5274526,3.25143 v 6.35509 h 0.04433 0.04435 v -6.35509 l 11.912105,-6.79847 v -0.1478 h -0.04433"
       inkscape:connector-curvature="0" />
    <path
       id="path17743"
       style="fill:#ffffff;fill-rule:nonzero;stroke:none;stroke-width:0.02000142;stroke-linecap:butt;stroke-linejoin:miter;stroke-miterlimit:4;stroke-dasharray:none"
       d="m 49.400418,271.02875 -5.424017,9.45875 h 6.783707 v -2.2169 h -3.029761 l 2.793289,-4.58157 3.798273,6.79847 h 2.808075 l -5.468346,-9.45875 h -2.26122"
       inkscape:connector-curvature="0" />
    <path
       id="path17745"
       style="fill:#ffffff;fill-rule:nonzero;stroke:none;stroke-width:0.02000142;stroke-linecap:butt;stroke-linejoin:miter;stroke-miterlimit:4;stroke-dasharray:none"
       d="m 63.263393,280.4875 2.896736,-5.02496 v 5.02496 h 2.335137 v -9.45875 H 66.17492 l -3.842622,6.65068 -3.842624,-6.65068 h -2.320347 v 9.45875 h 2.320347 v -5.02496 l 2.911527,5.02496 h 1.862192"
       inkscape:connector-curvature="0" />
    <path
       id="path17747"
       style="fill:#ffffff;fill-rule:nonzero;stroke:none;stroke-width:0.02000142;stroke-linecap:butt;stroke-linejoin:miter;stroke-miterlimit:4;stroke-dasharray:none"
       d="m 44.286781,274.72358 h -5.882163 v 2.0691 h 3.39923 v 1.47792 h -6.074284 v -5.17274 h 8.453756 v -2.06911 h -8.542441 c -1.847418,0 -2.438582,0.59118 -2.438582,2.36469 v 4.72938 c 0,1.7735 0.591164,2.36468 2.438582,2.36468 h 6.192529 c 1.862192,0 2.453373,-0.59118 2.453373,-2.36468 v -3.39924"
       inkscape:connector-curvature="0" />
    <path
       id="path17749"
       style="fill:#ffffff;fill-rule:nonzero;stroke:none;stroke-width:0.02000142;stroke-linecap:butt;stroke-linejoin:miter;stroke-miterlimit:4;stroke-dasharray:none"
       d="m 89.12716,271.02875 h -5.542236 c -1.847412,0 -2.438578,0.59118 -2.438578,2.36469 v 4.72938 c 0,1.7735 0.591166,2.36468 2.438578,2.36468 h 5.542236 c 1.847419,0 2.453374,-0.59118 2.453374,-2.36468 V 276.3493 H 89.03849 v 1.9213 h -5.364883 v -5.17274 h 5.364883 v 1.62572 h 2.542044 v -1.33014 c 0,-1.77351 -0.605955,-2.36469 -2.453374,-2.36469"
       inkscape:connector-curvature="0" />
    <path
       id="path17751"
       style="fill:#ffffff;fill-rule:nonzero;stroke:none;stroke-width:0.02000142;stroke-linecap:butt;stroke-linejoin:miter;stroke-miterlimit:4;stroke-dasharray:none"
       d="m 100.61068,278.2706 h -5.497896 v -7.24185 h -2.527267 v 7.09407 c 0,1.7735 0.591166,2.36468 2.438582,2.36468 h 5.675251 c 1.86219,0 2.45337,-0.59118 2.45337,-2.36468 v -7.09407 h -2.54204 v 7.24185"
       inkscape:connector-curvature="0" />
    <path
       id="path17753"
       style="fill:#ffffff;fill-rule:nonzero;stroke:none;stroke-width:0.02000142;stroke-linecap:butt;stroke-linejoin:miter;stroke-miterlimit:4;stroke-dasharray:none"
       d="m 113.45388,275.61034 c 0.60595,-0.2956 0.94588,-0.88676 0.94588,-1.47794 v -1.18234 c 0,-1.33013 -0.72418,-1.92131 -2.24645,-1.92131 h -7.89214 v 9.45875 h 7.34531 c 1.90653,0 2.88196,-0.73897 2.88196,-2.0691 v -1.18234 c 0,-0.73896 -0.36949,-1.33014 -1.03456,-1.62572 z m -6.66545,-2.66028 h 4.52245 c 0.70942,0 0.73898,0.1478 0.73898,0.44338 v 0.73896 c 0,0.29559 -0.0296,0.44338 -0.73898,0.44338 h -4.52245 z m 5.32054,4.87716 c 0,0.44338 -0.0887,0.59118 -0.7833,0.59118 h -4.53724 v -1.9213 h 4.53724 c 0.69463,0 0.7833,0.14778 0.7833,0.59116 v 0.73896"
       inkscape:connector-curvature="0" />
    <path
       id="path17755"
       style="fill:#ffffff;fill-rule:nonzero;stroke:none;stroke-width:0.02000142;stroke-linecap:butt;stroke-linejoin:miter;stroke-miterlimit:4;stroke-dasharray:none"
       d="m 117.96158,276.4971 h 4.1382 v -1.92132 h -4.1382 v -1.62572 h 7.10885 v -1.92131 h -9.63612 v 9.45875 h 9.71 v -2.2169 h -7.18273 v -1.7735"
       inkscape:connector-curvature="0" />
    <path
       id="path17757"
       style="fill:#ffffff;fill-rule:nonzero;stroke:none;stroke-width:0.02000142;stroke-linecap:butt;stroke-linejoin:miter;stroke-miterlimit:4;stroke-dasharray:none"
       d="m 72.145753,276.4971 h 4.138204 v -1.92132 h -4.138204 v -1.62572 h 7.094066 v -1.92131 h -9.621332 v 9.45875 h 9.709995 v -2.2169 h -7.182729 v -1.7735"
       inkscape:connector-curvature="0" />
    <path
       id="path17759"
       style="fill:#ffffff;fill-rule:nonzero;stroke:none;stroke-width:0.02000142;stroke-linecap:butt;stroke-linejoin:miter;stroke-miterlimit:4;stroke-dasharray:none"
       d="m 98.940617,268.36849 v -7.24185 h -1.374474 v 4.72937 l -2.349907,-4.72937 h -1.847409 v 7.24185 h 1.374467 v -5.61614 l 2.822849,5.61614 h 1.374474"
       inkscape:connector-curvature="0" />
    <path
       id="path17763"
       style="fill:#ffffff;fill-rule:nonzero;stroke:none;stroke-width:0.01000071;stroke-linecap:butt;stroke-linejoin:miter;stroke-miterlimit:4;stroke-dasharray:none"
       d="m 59.051286,262.75235 2.837634,5.61614 h 1.359698 v -7.24185 h -1.374489 v 4.72937 l -2.335121,-4.72937 h -1.862195 v 7.24185 h 1.374473 v -5.61614"
       inkscape:connector-curvature="0" />
    <path
       id="path17767"
       style="fill:#ffffff;fill-rule:nonzero;stroke:none;stroke-width:0.01000071;stroke-linecap:butt;stroke-linejoin:miter;stroke-miterlimit:4;stroke-dasharray:none"
       d="m 36.49809,262.75235 2.837625,5.61614 h 1.359691 v -7.24185 h -1.374475 v 4.72937 l -2.335138,-4.72937 h -1.862192 v 7.24185 h 1.374489 v -5.61614"
       inkscape:connector-curvature="0" />
    <path
       id="path17771"
       style="fill:#ffffff;fill-rule:nonzero;stroke:none;stroke-width:0.01000071;stroke-linecap:butt;stroke-linejoin:miter;stroke-miterlimit:4;stroke-dasharray:none"
       d="m 48.410195,261.12664 h 1.551828 v 7.24185 h -1.551828 z"
       inkscape:connector-curvature="0" />
    <path
       id="path17775"
       style="fill:#ffffff;fill-rule:nonzero;stroke:none;stroke-width:0.01000071;stroke-linecap:butt;stroke-linejoin:miter;stroke-miterlimit:4;stroke-dasharray:none"
       d="m 71.761485,268.36849 h 1.477935 v -6.05952 h 2.32034 v -1.18233 h -6.133396 v 1.18233 h 2.335121 v 6.05952"
       inkscape:connector-curvature="0" />
    <path
       id="path17779"
       style="fill:#ffffff;fill-rule:nonzero;stroke:none;stroke-width:0.01000071;stroke-linecap:butt;stroke-linejoin:miter;stroke-miterlimit:4;stroke-dasharray:none"
       d="m 109.03489,268.36849 c 1.27101,0 2.29078,-0.73897 2.29078,-1.77352 v -3.54702 c 0,-1.03456 -1.01977,-1.92131 -2.29078,-1.92131 h -3.34012 v 7.24185 z m -1.98043,-6.05952 h 1.93608 c 0.48772,0 0.97543,0.2956 0.97543,0.73898 v 3.39924 c 0,0.59116 -0.50249,0.88674 -0.97543,0.88674 h -1.93608 v -5.02496"
       inkscape:connector-curvature="0" />
    <path
       id="path17783"
       style="fill:#ffffff;fill-rule:nonzero;stroke:none;stroke-width:0.01000071;stroke-linecap:butt;stroke-linejoin:miter;stroke-miterlimit:4;stroke-dasharray:none"
       d="m 123.40035,263.04795 c 0,-1.03456 -1.03454,-1.92131 -2.29078,-1.92131 h -1.22669 c -1.25624,0 -2.2908,0.88675 -2.2908,1.92131 v 3.54702 c 0,1.03455 1.03456,1.9213 2.2908,1.9213 h 1.22669 c 1.25624,0 2.29078,-0.88675 2.29078,-1.9213 z m -1.35969,3.54702 c 0,0.44338 -0.50249,0.73896 -0.97543,0.73896 h -1.138 c -0.48772,0 -0.97543,-0.29558 -0.97543,-0.73896 v -3.54702 c 0,-0.44338 0.48771,-0.73898 0.97543,-0.73898 h 1.138 c 0.47294,0 0.97543,0.2956 0.97543,0.73898 v 3.54702"
       inkscape:connector-curvature="0" />
    <path
       id="path17787"
       style="fill:#ffffff;fill-rule:nonzero;stroke:none;stroke-width:0.01000071;stroke-linecap:butt;stroke-linejoin:miter;stroke-miterlimit:4;stroke-dasharray:none"
       d="m 81.2498,266.59497 c 0,1.03455 0.960656,1.77352 2.187335,1.77352 h 3.177556 v -1.03456 h -3.044545 c -0.472942,0 -0.960648,-0.44338 -0.960648,-0.88674 v -1.18236 h 4.005193 v -1.18234 h -4.005193 v -1.03454 c 0,-0.44338 0.487706,-0.73898 0.960648,-0.73898 h 3.044545 v -1.18233 H 83.48147 c -1.241463,0.14779 -2.23167,0.88675 -2.23167,1.92131 v 3.54702"
       inkscape:connector-curvature="0" />
    <path
       id="path17791"
       style="fill:#ffffff;fill-rule:nonzero;stroke:none;stroke-width:0.01000071;stroke-linecap:butt;stroke-linejoin:miter;stroke-miterlimit:4;stroke-dasharray:none"
       d="m 127.42033,280.4875 h -0.44337 v -1.77352 h -0.63552 v -0.44338 h 1.72918 v 0.44338 h -0.65029 v 1.77352"
       inkscape:connector-curvature="0" />
    <path
       id="path17793"
       style="fill:#ffffff;fill-rule:nonzero;stroke:none;stroke-width:0.01000071;stroke-linecap:butt;stroke-linejoin:miter;stroke-miterlimit:4;stroke-dasharray:none"
       d="m 130.37619,280.4875 h -0.41383 v -1.77352 0 l -0.39903,1.77352 h -0.4286 l -0.39904,-1.77352 v 0 1.77352 h -0.41382 v -2.2169 h 0.65029 l 0.38425,1.77352 v 0 l 0.38427,-1.77352 h 0.63551 v 2.2169"
       inkscape:connector-curvature="0" />
  </g>
</svg>
