<?xml version="1.0" encoding="UTF-8" standalone="no"?>
<svg
   xmlns:dc="http://purl.org/dc/elements/1.1/"
   xmlns:cc="http://creativecommons.org/ns#"
   xmlns:rdf="http://www.w3.org/1999/02/22-rdf-syntax-ns#"
   xmlns:svg="http://www.w3.org/2000/svg"
   xmlns="http://www.w3.org/2000/svg"
   xmlns:sodipodi="http://sodipodi.sourceforge.net/DTD/sodipodi-0.dtd"
   xmlns:inkscape="http://www.inkscape.org/namespaces/inkscape"
   width="500"
   height="200"
   viewBox="0 0 500 200"
   version="1.1"
   id="svg235"
   sodipodi:docname="gb2players.svg"
   style="fill:none"
   inkscape:version="0.92.5 (2060ec1f9f, 2020-04-08)">
  <metadata
     id="metadata241">
    <rdf:RDF>
      <cc:Work
         rdf:about="">
        <dc:format>image/svg+xml</dc:format>
        <dc:type
           rdf:resource="http://purl.org/dc/dcmitype/StillImage" />
        <dc:title></dc:title>
      </cc:Work>
    </rdf:RDF>
  </metadata>
  <defs
     id="defs239" />
  <sodipodi:namedview
     pagecolor="#ffffff"
     bordercolor="#666666"
     borderopacity="1"
     objecttolerance="10"
     gridtolerance="10"
     guidetolerance="10"
     inkscape:pageopacity="0"
     inkscape:pageshadow="2"
     inkscape:window-width="1366"
     inkscape:window-height="740"
     id="namedview237"
     showgrid="false"
     inkscape:pagecheckerboard="true"
     inkscape:zoom="1.2042526"
     inkscape:cx="242.5"
     inkscape:cy="73.5"
     inkscape:window-x="0"
     inkscape:window-y="0"
     inkscape:window-maximized="1"
     inkscape:current-layer="svg235" />
  <path
     d="m 4.9823435,51.163483 c 0,12.598 9.7967495,22.9882 24.4583995,22.9932 H 167.52434 c 14.661,-0.005 24.458,-10.3952 24.458,-22.9932 0,-12.5979 -9.819,-23.107413 -24.436,-23.075126 H 29.418343 C 14.801443,28.056074 4.9823435,38.565583 4.9823435,51.163483 Z m 5.7714795,-0.0298 c 0,-9.5981 7.12472,-17.35606 18.73182,-17.37841 l 137.996697,0.0025 c 11.607,0.02235 18.731,7.78033 18.731,17.37593 0,9.5956 -7.082,17.4156 -18.734,17.3758 H 29.485643 c -11.6518,0.0423 -18.73182,-7.7802 -18.73182,-17.3758 z"
     id="path197"
     inkscape:connector-curvature="0"
     style="clip-rule:evenodd;fill:#ffffff;fill-rule:evenodd" />
  <path
     d="m 171.48234,43.748183 c 0,-1.8427 1.495,-3.3376 3.338,-3.3376 1.842,0 3.337,1.4949 3.337,3.3376 0,1.8426 -1.495,3.3376 -3.337,3.3376 -1.843,0 -3.338,-1.495 -3.338,-3.3376 z m 3.337,2.7019 c 1.49,0 2.7,-1.2094 2.7,-2.6994 0,-1.4925 -1.21,-2.6994 -2.7,-2.6994 -1.49,0 -2.699,1.2094 -2.699,2.6994 0,1.49 1.209,2.6994 2.699,2.6994 z"
     id="path199"
     inkscape:connector-curvature="0"
     style="clip-rule:evenodd;fill:#ffffff;fill-rule:evenodd" />
  <path
     d="m 176.48134,42.921183 c 0,-0.7077 -0.524,-1.0653 -1.579,-1.0653 h -1.451 v 3.6977 h 0.902 v -1.5149 h 0.439 l 0.708,1.5149 h 1.001 l -0.827,-1.6515 c 0.504,-0.1266 0.807,-0.4941 0.807,-0.9809 z m -1.689,0.5763 h -0.439 v -1.0752 h 0.395 c 0.541,0 0.807,0.1663 0.807,0.5513 0,0.3675 -0.249,0.5239 -0.763,0.5239 z"
     id="path201"
     inkscape:connector-curvature="0"
     style="clip-rule:evenodd;fill:#ffffff;fill-rule:evenodd" />
  <path
     d="m 104.34294,57.756683 c 0,-0.8095 -0.005,-0.8741 -0.005,-0.8741 l 6.4964,-0.005 c -1.135,3.4046 -4.852,5.9153 -9.2529,5.9153 -5.304397,0 -9.602997,-3.6232 -9.602997,-8.0957 0,-4.4725 4.2986,-8.0982 9.602997,-8.0982 5.3049,0 9.6229,3.7052 9.6229,8.1777 0,0.0075 -12.284997,0.0025 -12.284997,0.0025 0,0 -0.005,2.1878 -0.005,2.9775 0,2.6373 1.765697,3.2234 2.729197,3.2234 0.9636,0 2.6994,-0.5861 2.6994,-3.2234 z m -4.991497,-8.051 c -0.4147,0.7201 -0.442,1.5645 -0.4321,2.8285 l 5.440897,0.0025 c 0.01,-1.2641 -0.007,-2.1084 -0.4222,-2.831 -0.5088,-0.8886 -1.4443,-1.3108 -2.2933,-1.3162 4e-4,0 9e-4,0 0.001,0 h -0.003 c 5e-4,0 9e-4,0 0.001,0 -0.8489,0.0054 -1.784497,0.4276 -2.293297,1.3162 z"
     id="path203"
     inkscape:connector-curvature="0"
     style="clip-rule:evenodd;fill:#ffffff;fill-rule:evenodd" />
  <path
     d="m 124.85734,46.839983 c 2.439,-0.0696 7.386,1.5272 7.351,7.2364 -0.005,1.0132 -0.002,7.8473 -0.002,7.8473 h -6.48 c 0,0 0,-8.5699 0,-9.4714 0,-1.2566 -1.201,-2.6547 -2.98,-2.6547 -1.775,0 -3.096,1.3981 -3.096,2.6547 0,0.6159 0.007,9.4714 0.007,9.4714 h -6.474 l 0.005,-14.4207 6.472,-0.005 c 0,0 -0.008,1.1598 0,1.5174 1.246,-1.1896 3.044,-2.1134 5.197,-2.1754 z"
     id="path205"
     inkscape:connector-curvature="0"
     style="fill:#ffffff" />
  <path
     d="m 71.858343,46.839983 c 2.4386,-0.0696 7.3854,1.5272 7.3507,7.2364 -0.005,1.0132 -0.0026,7.8473 -0.0026,7.8473 h -6.479 c 0,0 0,-8.5699 0,-9.4714 0,-1.2566 -1.2019,-2.6547 -2.98,-2.6547 -1.7756,0 -3.0967,1.3981 -3.0967,2.6547 0,0.6159 0.0074,9.4714 0.0074,9.4714 h -6.474 l -0.0026,-14.4207 6.479,-0.005 c 0,0 -0.0074,1.1598 0,1.5174 1.2467,-1.1896 3.0421,-2.1134 5.1977,-2.1754 z"
     id="path207"
     inkscape:connector-curvature="0"
     style="fill:#ffffff" />
  <path
     d="m 152.70134,40.241583 h -6.437 v 0 c 0,0 0,4.6414 0.005,7.979 -1.043,-0.5861 -2.143,-1.1498 -3.69,-1.2864 -4.701,-0.4122 -8.292,3.7449 -8.292,7.5518 0,5.0188 3.871,6.8764 4.46,7.1495 2.193,1.0232 5.009,1.0257 7.504,-0.5413 0,0.1341 0.003,0.8344 0.003,0.8344 h 6.447 z m -6.39,11.8258 v 2.5777 0 c 0,0 0.003,1.6316 0.003,2.5579 0,2.2275 -1.543,2.8111 -2.558,2.8111 -1.036,0 -2.556,-0.5836 -2.556,-2.8111 0,-0.7674 0.003,-2.5653 0.003,-2.5653 0,0 -0.003,-1.8302 -0.003,-2.5703 0,-2.23 1.52,-2.7987 2.558,-2.7987 1.013,0 2.553,0.5687 2.553,2.7987 z"
     id="path209"
     inkscape:connector-curvature="0"
     style="clip-rule:evenodd;fill:#ffffff;fill-rule:evenodd" />
  <path
     d="m 154.82434,54.620283 c 0,-4.4725 4.266,-8.0982 9.531,-8.0982 5.264,0 9.531,3.6257 9.531,8.0982 0,4.4725 -4.267,8.0981 -9.531,8.0981 -5.262,0 -9.531,-3.6256 -9.531,-8.0981 z m 12.148,3.0372 c 0,-0.8741 0.003,-3.0545 0.003,-3.0545 l 0.002,0.0075 c -0.006,-0.4704 -0.005,-1.6269 -0.005,-2.5128 0,-0.2037 0,-0.3932 0,-0.5566 0,-2.2897 -1.363,-3.2309 -2.664,-3.2309 -1.299,0 -2.665,0.9412 -2.665,3.2309 0,0.8741 -0.005,3.0073 -0.005,3.0073 0,0 -0.002,2.235 -0.002,3.1091 0,2.2996 1.363,3.2482 2.672,3.2482 1.306,0 2.664,-0.9486 2.664,-3.2482 z"
     id="path211"
     inkscape:connector-curvature="0"
     style="clip-rule:evenodd;fill:#ffffff;fill-rule:evenodd" />
  <path
     d="m 50.054643,44.669483 v -4.4328 h 6.5361 v 4.4328 z"
     id="path213"
     inkscape:connector-curvature="0"
     style="fill:#ffffff" />
  <path
     d="m 50.069743,61.928683 v -14.4232 l 6.5212,0.0026 v 14.4207 z"
     id="path215"
     inkscape:connector-curvature="0"
     style="fill:#ffffff" />
  <path
     d="m 82.787743,61.928783 0.0025,-14.3934 h -3.5462 v -2.1406 l 3.5487,-0.0026 -0.005,-2.9204 h 6.5262 v 2.918 h 3.5313 v 2.1456 h -3.5313 l 0.005,14.3934 z"
     id="path217"
     inkscape:connector-curvature="0"
     style="fill:#ffffff" />
  <path
     d="m 23.530243,61.928583 0.0024,-21.687 h 6.7572 l 9.3473,15.1235 -0.005,-15.1235 h 6.705 v 21.687 h -6.6951 l -9.3969,-15.1235 v 15.1235 z"
     id="path219"
     inkscape:connector-curvature="0"
     style="fill:#ffffff" />
  <path
     d="m 423.30434,91.867083 h 20.424 l 10.089,23.203297 15.129,-23.203297 h 20.923 l -29.501,45.896197 -4.79,35.809 h -18.911 l 5.548,-40.858 z"
     id="path221"
     inkscape:connector-curvature="0"
     style="fill:#ffffff" />
  <path
     d="m 273.01034,173.57228 2.522,-18.164 h -28.742 l 1.764,-14.115 h 24.961 l 2.525,-18.1555 h -24.711 l 1.766,-13.1155 h 28.74 l 2.776,-18.155197 h -47.657 l -11.348,81.705197 z"
     id="path223"
     inkscape:connector-curvature="0"
     style="fill:#ffffff" />
  <path
     d="M 113.64434,149.35728 H 96.497943 l -9.3279,24.208 h -19.1649 l 1.2597,-3.784 c -3.7817,2.018 -14.3735,5.55 -23.704,5.045 -16.1372,0.25 -40.3452155,-12.359 -37.3200695,-38.835 C 13.382423,90.993383 63.717743,87.324783 82.883543,93.879083 l -2.7761,17.399497 c -28.7462,-9.3296 -52.9542,7.565 -53.7098,25.7197 -0.7557,18.157 16.1381,19.669 18.4076,19.669 2.2695,0 8.0682,-0.253 10.5901,-1.764 l 1.0098,-5.547 h -14.3752 l 2.2712,-16.139 h 32.7811 l -3.5309,26.476 26.982397,-67.829497 h 24.2076 l 8.323,67.075497 22.189,-67.075497 h 19.416 l 6.557,43.118497 16.894,-43.118497 h 21.687 l 5.044,81.701497 h -18.155 l -3.027,-46.9025 -18.155,46.9025 h -16.391 l -7.062,-44.381 -14.374,44.381 h -31.015 z m -4.035,-33.0322 -6.3037,16.8932 h 8.3227 z"
     id="path225"
     inkscape:connector-curvature="0"
     style="clip-rule:evenodd;fill:#ffffff;fill-rule:evenodd" />
  <path
     d="m 364.54634,128.68528 c 6.304,-30.513597 25.216,-38.078597 38.33,-37.573697 19.162,0.7573 33.539,16.137197 29.503,45.388697 -4.034,29.251 -25.972,39.085 -41.609,37.068 -15.634,-2.017 -32.527,-14.373 -26.224,-44.883 z m 50.179,4.536 c 2.775,-21.1793 -8.572,-24.7102 -13.867,-24.7102 -5.551,-0.2525 -15.889,5.2955 -18.662,24.7102 -2.774,19.418 7.059,22.693 11.852,23.198 4.791,0.506 17.903,-2.016 20.677,-23.198 z"
     id="path227"
     inkscape:connector-curvature="0"
     style="clip-rule:evenodd;fill:#ffffff;fill-rule:evenodd" />
  <path
     d="m 308.81834,91.869783 -11.347,81.700497 36.059,-0.001 c 16.391,0 25.721,-11.093 27.488,-22.443 1.764,-11.347 -2.522,-17.4 -6.811,-21.18 0.363,-0.263 0.746,-0.505 1.143,-0.755 2.642,-1.6656 5.865,-3.6969 7.18,-14.879 1.512,-12.8596 -10.59,-22.442497 -18.914,-22.442497 z m 14.371,31.268097 h 10.592 c 7.818,0 9.331,-5.0439 9.58,-7.0593 0.253,-2.0187 -2.015,-6.0537 -6.049,-6.0537 h -12.356 z m -4.538,32.2754 h 14.375 c 7.814,0 9.58,-6.05 9.83,-8.069 0.254,-2.017 -2.016,-6.05 -6.05,-6.05 h -16.136 z"
     id="path229"
     inkscape:connector-curvature="0"
     style="clip-rule:evenodd;fill:#ffffff;fill-rule:evenodd" />
  <path
     d="m 465.80734,161.21128 c -3.111,0 -5.623,2.508 -5.623,5.604 0,3.129 2.51,5.639 5.623,5.639 3.095,0 5.603,-2.51 5.603,-5.639 -0.002,-3.097 -2.512,-5.604 -5.603,-5.604 v -0.771 c 3.526,0 6.373,2.861 6.373,6.375 0,3.547 -2.847,6.407 -6.373,6.407 -3.548,-0.001 -6.408,-2.86 -6.408,-6.407 0,-3.515 2.86,-6.374 6.408,-6.374 z"
     id="path231"
     inkscape:connector-curvature="0"
     style="fill:#ffffff" />
  <path
     d="m 464.29434,163.88128 h 2.042 c 0.888,0 1.855,0.132 1.855,1.238 0,1.454 -1.554,1.289 -2.559,1.289 l -1.338,-0.002 v 0.688 h 1.609 l 2.04,3.296 h 1.037 l -2.159,-3.296 c 1.272,-0.033 2.258,-0.551 2.258,-1.957 0,-0.604 -0.266,-1.238 -0.801,-1.541 -0.535,-0.317 -1.139,-0.35 -1.742,-0.35 h -3.108 v 7.142 h 0.867 v -6.507 z"
     id="path233"
     inkscape:connector-curvature="0"
     style="fill:#ffffff" />
</svg>
