<?xml version="1.0" encoding="UTF-8" standalone="no"?>
<svg
   xmlns:dc="http://purl.org/dc/elements/1.1/"
   xmlns:cc="http://creativecommons.org/ns#"
   xmlns:rdf="http://www.w3.org/1999/02/22-rdf-syntax-ns#"
   xmlns:svg="http://www.w3.org/2000/svg"
   xmlns="http://www.w3.org/2000/svg"
   xmlns:sodipodi="http://sodipodi.sourceforge.net/DTD/sodipodi-0.dtd"
   xmlns:inkscape="http://www.inkscape.org/namespaces/inkscape"
   width="500"
   height="200"
   viewBox="0 0 500 200"
   version="1.1"
   id="svg323"
   sodipodi:docname="gbc.svg"
   style="fill:none"
   inkscape:version="0.92.5 (2060ec1f9f, 2020-04-08)">
  <metadata
     id="metadata329">
    <rdf:RDF>
      <cc:Work
         rdf:about="">
        <dc:format>image/svg+xml</dc:format>
        <dc:type
           rdf:resource="http://purl.org/dc/dcmitype/StillImage" />
        <dc:title></dc:title>
      </cc:Work>
    </rdf:RDF>
  </metadata>
  <defs
     id="defs327" />
  <sodipodi:namedview
     pagecolor="#ffffff"
     bordercolor="#666666"
     borderopacity="1"
     objecttolerance="10"
     gridtolerance="10"
     guidetolerance="10"
     inkscape:pageopacity="0"
     inkscape:pageshadow="2"
     inkscape:window-width="1366"
     inkscape:window-height="740"
     id="namedview325"
     showgrid="false"
     inkscape:pagecheckerboard="true"
     inkscape:zoom="0.74308206"
     inkscape:cx="393"
     inkscape:cy="76.5"
     inkscape:window-x="0"
     inkscape:window-y="0"
     inkscape:window-maximized="1"
     inkscape:current-layer="svg323" />
  <path
     d="m 2,61.530705 c 0,7.933097 6.1691201,14.475919 15.401721,14.479068 h 86.952749 c 9.23219,-0.0031 15.40147,-6.545971 15.40147,-14.479068 0,-7.933035 -6.18314,-14.55099 -15.38762,-14.530658 H 17.387615 C 8.1831942,46.979718 2,53.59767 2,61.530705 Z m 3.6343638,-0.01877 c 0,-6.044028 4.4865132,-10.9293 11.7956312,-10.943374 l 86.898025,0.0016 c 7.30905,0.01407 11.79511,4.899358 11.79511,10.941812 0,6.042454 -4.45961,10.966793 -11.797,10.941731 H 17.429995 C 10.09273,72.480306 5.6343638,67.554393 5.6343638,61.511939 Z"
     id="path275"
     inkscape:connector-curvature="0"
     style="clip-rule:evenodd;fill:#ffffff;fill-rule:evenodd;stroke-width:0.62971091" />
  <path
     d="m 106.84686,56.861209 c 0,-1.160368 0.94142,-2.101723 2.10198,-2.101723 1.15992,0 2.10134,0.941355 2.10134,2.101723 0,1.160306 -0.94142,2.101723 -2.10134,2.101723 -1.16056,0 -2.10198,-0.941417 -2.10198,-2.101723 z m 2.10135,1.701416 c 0.93827,0 1.70022,-0.761572 1.70022,-1.699841 0,-0.939844 -0.76195,-1.699842 -1.70022,-1.699842 -0.93827,0 -1.69959,0.761572 -1.69959,1.699842 0,0.938269 0.76132,1.699841 1.69959,1.699841 z"
     id="path277"
     inkscape:connector-curvature="0"
     style="clip-rule:evenodd;fill:#ffffff;fill-rule:evenodd;stroke-width:0.62971091" />
  <path
     d="m 109.99479,56.340439 c 0,-0.445647 -0.32997,-0.670831 -0.99432,-0.670831 h -0.91371 v 2.328481 h 0.568 V 57.04414 h 0.27645 l 0.44583,0.953949 h 0.63034 l -0.52077,-1.039967 c 0.31737,-0.07972 0.50818,-0.31114 0.50818,-0.617683 z m -1.06358,0.362902 h -0.27645 v -0.677065 h 0.24874 c 0.34067,0 0.50817,0.104721 0.50817,0.347159 0,0.231419 -0.15679,0.329906 -0.48046,0.329906 z"
     id="path279"
     inkscape:connector-curvature="0"
     style="clip-rule:evenodd;fill:#ffffff;fill-rule:evenodd;stroke-width:0.62971091" />
  <path
     d="m 64.568451,65.682514 c 0,-0.509751 -0.0031,-0.55043 -0.0031,-0.55043 l 4.090854,-0.0031 c -0.714722,2.143913 -3.055357,3.724928 -5.826652,3.724928 -3.340239,0 -6.047114,-2.281568 -6.047114,-5.09795 0,-2.816382 2.706875,-5.099525 6.047114,-5.099525 3.340553,0 6.059645,2.333205 6.059645,5.149587 0,0.0047 -7.735998,0.0016 -7.735998,0.0016 0,0 -0.0031,1.377682 -0.0031,1.874964 0,1.660737 1.11188,2.02981 1.718607,2.02981 0.606789,0 1.699841,-0.369073 1.699841,-2.02981 z M 61.42525,60.612712 c -0.261142,0.453455 -0.278333,0.985183 -0.272098,1.781137 l 3.426193,0.0016 c 0.0062,-0.796018 -0.0047,-1.327683 -0.265863,-1.782712 -0.320397,-0.559561 -0.909492,-0.825425 -1.444116,-0.828825 2.51e-4,0 5.66e-4,0 8.18e-4,0 h -0.0016 c 3.15e-4,0 5.67e-4,0 8.19e-4,0 -0.534562,0.0034 -1.12372,0.269264 -1.444116,0.828825 z"
     id="path281"
     inkscape:connector-curvature="0"
     style="clip-rule:evenodd;fill:#ffffff;fill-rule:evenodd;stroke-width:0.62971091" />
  <path
     d="m 77.486592,58.80815 c 1.535865,-0.04383 4.651045,0.961694 4.629005,4.556839 -0.0031,0.638023 -0.0013,4.941531 -0.0013,4.941531 H 78.03377 c 0,0 0,-5.39656 0,-5.964244 0,-0.791295 -0.756283,-1.671694 -1.876538,-1.671694 -1.117737,0 -1.949585,0.880399 -1.949585,1.671694 0,0.387839 0.0044,5.964244 0.0044,5.964244 h -4.076748 l 0.0031,-9.080872 4.075489,-0.0031 c 0,0 -0.005,0.730339 0,0.955524 0.78462,-0.749104 1.91684,-1.330831 3.272607,-1.369873 z"
     id="path283"
     inkscape:connector-curvature="0"
     style="fill:#ffffff;stroke-width:0.62971091" />
  <path
     d="m 44.112545,58.80815 c 1.535613,-0.04383 4.650667,0.961694 4.628816,4.556839 -0.0031,0.638023 -0.0016,4.941531 -0.0016,4.941531 h -4.079897 c 0,0 0,-5.39656 0,-5.964244 0,-0.791295 -0.75685,-1.671694 -1.876538,-1.671694 -1.118115,0 -1.950026,0.880399 -1.950026,1.671694 0,0.387839 0.0047,5.964244 0.0047,5.964244 h -4.076749 l -0.0016,-9.080872 4.079897,-0.0031 c 0,0 -0.0047,0.730339 0,0.955524 0.785061,-0.749104 1.915643,-1.330831 3.273048,-1.369873 z"
     id="path285"
     inkscape:connector-curvature="0"
     style="fill:#ffffff;stroke-width:0.62971091" />
  <path
     d="m 95.020262,54.653065 h -4.053449 v 0 c 0,0 0,2.92274 0.0031,5.024463 -0.656788,-0.369073 -1.34947,-0.724041 -2.323633,-0.81006 -2.960271,-0.259567 -5.221563,2.358205 -5.221563,4.755451 0,3.160393 2.437611,4.330144 2.808511,4.502118 1.380956,0.64432 3.154222,0.645894 4.72535,-0.340863 0,0.08445 0.0019,0.525431 0.0019,0.525431 h 4.059746 z M 90.99641,62.0999 v 1.623206 0 c 0,0 0.0019,1.027436 0.0019,1.610737 0,1.402681 -0.971644,1.770181 -1.6108,1.770181 -0.652381,0 -1.609542,-0.3675 -1.609542,-1.770181 0,-0.48324 0.0019,-1.615397 0.0019,-1.615397 0,0 -0.0019,-1.152497 -0.0019,-1.618546 0,-1.404255 0.957161,-1.762372 1.610801,-1.762372 0.637897,0 1.607652,0.358117 1.607652,1.762372 z"
     id="path287"
     inkscape:connector-curvature="0"
     style="clip-rule:evenodd;fill:#ffffff;fill-rule:evenodd;stroke-width:0.62971091" />
  <path
     d="m 96.357139,63.707489 c 0,-2.816382 2.686346,-5.099525 6.001771,-5.099525 3.3148,0 6.00178,2.283143 6.00178,5.099525 0,2.816382 -2.68698,5.099462 -6.00178,5.099462 -3.313536,0 -6.001771,-2.28308 -6.001771,-5.099462 z m 7.649731,1.912558 c 0,-0.55043 0.002,-1.923452 0.002,-1.923452 l 0.001,0.0047 c -0.004,-0.296216 -0.003,-1.024477 -0.003,-1.582338 0,-0.128272 0,-0.247602 0,-0.350497 0,-1.441849 -0.8583,-2.034533 -1.67755,-2.034533 -0.818,0 -1.67818,0.592684 -1.67818,2.034533 0,0.550431 -0.003,1.89373 -0.003,1.89373 0,0 -0.001,1.407404 -0.001,1.957834 0,1.448083 0.85829,2.045427 1.68259,2.045427 0.8224,0 1.67755,-0.597344 1.67755,-2.045427 z"
     id="path289"
     inkscape:connector-curvature="0"
     style="clip-rule:evenodd;fill:#ffffff;fill-rule:evenodd;stroke-width:0.62971091" />
  <path
     d="M 30.382518,57.441362 V 54.64998 h 4.115853 v 2.791382 z"
     id="path291"
     inkscape:connector-curvature="0"
     style="fill:#ffffff;stroke-width:0.62971091" />
  <path
     d="m 30.392027,68.309668 v -9.082446 l 4.10647,0.0016 v 9.080872 z"
     id="path293"
     inkscape:connector-curvature="0"
     style="fill:#ffffff;stroke-width:0.62971091" />
  <path
     d="m 50.994907,68.309731 0.0016,-9.06368 h -2.233081 v -1.34796 l 2.234655,-0.0016 -0.0031,-1.839008 h 4.10962 v 1.837497 h 2.223698 v 1.351108 h -2.223698 l 0.0031,9.06368 z"
     id="path295"
     inkscape:connector-curvature="0"
     style="fill:#ffffff;stroke-width:0.62971091" />
  <path
     d="m 13.679815,68.309605 0.0015,-13.65654 h 4.255082 l 5.886097,9.523433 -0.0031,-9.523433 h 4.222212 v 13.65654 H 23.82559 l -5.91733,-9.523432 v 9.523432 z"
     id="path297"
     inkscape:connector-curvature="0"
     style="fill:#ffffff;stroke-width:0.62971091" />
  <path
     d="m 265.42192,87.162205 h 12.86184 l 6.35253,14.611375 9.52689,-14.611375 h 13.17544 l -18.5771,28.901335 -3.01568,22.54932 h -11.90847 l 3.49301,-25.72873 z"
     id="path299"
     inkscape:connector-curvature="0"
     style="fill:#ffffff;stroke-width:0.62971091" />
  <path
     d="m 170.78015,138.61286 1.58813,-11.43807 h -18.09915 l 1.11081,-8.88837 h 15.71821 l 1.59002,-11.43272 h -15.56078 l 1.11207,-8.258968 h 18.09789 l 1.74808,-11.432527 h -30.01014 l -7.14596,51.450655 z"
     id="path301"
     inkscape:connector-curvature="0"
     style="fill:#ffffff;stroke-width:0.62971091" />
  <path
     d="M 70.425644,123.36441 H 59.62837 l -5.873881,15.24404 H 41.686143 l 0.793247,-2.38283 c -2.381378,1.27076 -9.051149,3.4949 -14.926667,3.1769 C 17.390953,139.55994 2.1469015,131.61992 4.0518688,114.94769 7.2896218,86.612026 38.986321,84.301869 51.055234,88.429183 l -1.748141,10.956654 c -18.101795,-5.87495 -33.345836,4.763763 -33.821645,16.195973 -0.475873,11.43366 10.162337,12.38579 11.591466,12.38579 1.429129,0 5.080633,-0.15932 6.668701,-1.11081 l 0.635882,-3.49301 h -9.05222 l 1.430199,-10.1629 H 47.402092 L 45.178646,129.8731 62.169757,87.160127 H 77.413546 L 82.65463,129.3983 96.627285,87.160127 h 12.226465 l 4.12902,27.152193 10.63833,-27.152193 h 13.65654 l 3.17626,51.448323 h -11.4324 l -1.90613,-29.53501 -11.4324,29.53501 h -10.3216 l -4.44701,-27.9472 -9.051468,27.9472 H 72.332409 Z m -2.540883,-20.80074 -3.969509,10.63784 h 5.240895 z"
     id="path303"
     inkscape:connector-curvature="0"
     style="clip-rule:evenodd;fill:#ffffff;fill-rule:evenodd;stroke-width:0.62971091" />
  <path
     d="m 228.42137,110.34703 c 3.96969,-19.21475 15.87878,-23.978513 24.13681,-23.660572 12.06589,0.47688 21.11925,10.161771 18.57836,28.581762 -2.54088,18.41967 -16.35485,24.61225 -26.20164,23.34212 -9.8449,-1.27013 -20.48323,-9.05083 -16.51353,-28.26331 z m 31.59826,2.85636 c 1.74682,-13.336831 -5.39788,-15.560277 -8.7322,-15.560277 -3.49553,-0.159002 -10.00548,3.334637 -11.75167,15.560277 -1.74682,12.22773 4.44513,14.29003 7.46334,14.60804 3.01694,0.31863 11.27308,-1.2695 13.02053,-14.60804 z"
     id="path305"
     inkscape:connector-curvature="0"
     style="clip-rule:evenodd;fill:#ffffff;fill-rule:evenodd;stroke-width:0.62971091" />
  <path
     d="m 193.32884,87.163905 -7.14533,51.447695 22.70674,-6.3e-4 c 10.32159,0 16.1968,-6.98538 17.3095,-14.1326 1.11081,-7.14533 -1.58814,-10.95697 -4.28897,-13.33728 0.22859,-0.16561 0.46977,-0.318 0.71976,-0.47543 1.6637,-1.04885 3.69326,-2.32798 4.52133,-9.36947 0.95212,-8.097829 -6.66864,-14.132285 -11.91035,-14.132285 z m 9.04957,19.689865 h 6.6699 c 4.92308,0 5.87583,-3.1762 6.03263,-4.44532 0.15932,-1.2712 -1.26887,-3.812081 -3.80912,-3.812081 h -7.78071 z m -2.85763,20.32417 h 9.0521 c 4.92056,0 6.03263,-3.80975 6.19006,-5.08114 0.15994,-1.27013 -1.2695,-3.80975 -3.80975,-3.80975 h -10.16102 z"
     id="path307"
     inkscape:connector-curvature="0"
     style="clip-rule:evenodd;fill:#ffffff;fill-rule:evenodd;stroke-width:0.62971091" />
  <path
     d="m 292.18652,130.829 c -1.95903,0 -3.54024,1.57932 -3.54024,3.5289 0,1.97037 1.58058,3.55094 3.54024,3.55094 1.94895,0 3.5289,-1.58057 3.5289,-3.55094 -0.002,-1.95021 -1.58246,-3.5289 -3.5289,-3.5289 v -0.4855 c 2.22036,0 4.01378,1.8016 4.01378,4.0144 0,2.23359 -1.79342,4.03456 -4.01378,4.03456 -2.23422,-6.3e-4 -4.03519,-1.80097 -4.03519,-4.03456 0,-2.21343 1.80097,-4.01378 4.03519,-4.01378 z"
     id="path309"
     inkscape:connector-curvature="0"
     style="fill:#ffffff;stroke-width:0.62971091" />
  <path
     d="m 291.23377,132.51033 h 1.28587 c 0.55918,0 1.16811,0.0831 1.16811,0.77958 0,0.9156 -0.97857,0.8117 -1.61143,0.8117 l -0.84255,-0.001 v 0.43324 h 1.0132 l 1.28461,2.07553 h 0.65301 l -1.35954,-2.07553 c 0.80099,-0.0208 1.42188,-0.34697 1.42188,-1.23234 0,-0.38035 -0.1675,-0.77958 -0.5044,-0.97039 -0.33689,-0.19962 -0.71724,-0.2204 -1.09695,-0.2204 h -1.95714 v 4.4974 h 0.54596 v -4.09753 z"
     id="path311"
     inkscape:connector-curvature="0"
     style="fill:#ffffff;stroke-width:0.62971091" />
  <path
     d="m 358.6884,93.339102 c -1.79846,-9.893388 -11.69185,-9.893388 -19.33654,-7.195203 -10.343,3.597601 -15.29001,11.24248 -18.88754,21.135801 -3.59754,9.44378 -2.24807,20.68601 5.84623,27.88108 7.64469,6.74547 18.88692,6.74547 27.88108,4.4974 6.74546,-1.34947 4.04715,-12.14209 -2.69831,-10.34363 -11.24223,2.69831 -23.83393,-1.34884 -21.58523,-14.83977 0.89923,-4.94663 3.59754,-12.14177 8.0943,-15.289631 1.79909,-0.899416 9.89339,-4.946694 10.34301,-2.698186 0.89985,6.745467 11.69247,3.597597 10.343,-3.147861 z"
     id="path313"
     inkscape:connector-curvature="0"
     style="fill:#e1e1e1;stroke-width:0.62971091" />
  <path
     d="m 366.33372,97.836812 c -11.69248,3.147858 -15.29001,16.188988 -11.24223,26.531988 5.39599,12.5917 19.33653,15.29001 30.12915,8.54455 21.58585,-13.49093 -3.14793,-53.064419 -22.48446,-34.177122 -4.4974,4.496952 3.14792,11.692032 7.64469,7.195142 8.0943,-7.644882 17.98769,11.69197 9.44377,17.98781 -13.49092,9.89339 -22.9347,-12.59169 -11.24223,-15.7393 6.74547,-2.24851 4.04716,-12.141837 -2.24869,-10.343068 z"
     id="path315"
     inkscape:connector-curvature="0"
     style="fill:#878787;stroke-width:0.62971091" />
  <path
     d="m 440.08357,103.23262 c 0.37341,0.0996 0.74054,0.21026 1.09947,0.3316 6.12646,2.07036 10.06845,7.26202 8.79391,14.05849 -1.34884,5.39662 -7.64469,10.343 -13.49092,8.54454 -4.04715,-0.89922 -5.84624,-6.29585 -6.29585,-9.89339 -0.44961,-5.84623 3.14792,-9.89338 8.99416,-11.69215 0.78714,-0.24609 1.45085,-0.59445 1.9987,-1.01749 4.45898,-3.44238 1.26131,-11.826914 -5.14663,-10.224992 -10.343,3.597601 -17.53807,12.141832 -17.08846,23.384252 0,9.44377 6.29585,18.4373 15.73962,21.13561 11.69185,3.14793 23.38369,-6.29584 26.53161,-17.08846 4.04778,-13.04106 -5.39599,-25.63257 -17.98769,-28.780495 -7.19508,-1.349093 -10.343,9.443645 -3.14792,11.242485 z"
     id="path317"
     inkscape:connector-curvature="0"
     style="fill:#ffffff;stroke-width:0.62971091" />
  <path
     d="m 479.84036,117.82358 c 7.37203,-5.50682 14.1918,-12.39592 11.50923,-21.7856 -2.69831,-11.242418 -18.88755,-10.343065 -27.43147,-8.54417 -2.24869,0.449677 -4.04715,2.698123 -4.04715,4.946505 0.16562,2.65335 0.3772,5.321939 0.59004,8.000225 0.93953,11.84725 1.89417,23.88355 -1.04028,35.62073 -0.89923,6.74546 8.99416,9.44314 10.79324,3.14792 1.27265,-4.80784 1.92251,-9.61568 2.18762,-14.43801 5.26249,5.3431 10.48909,11.01428 15.35046,16.68608 4.49677,4.94638 11.69184,-2.2487 7.19508,-7.19507 -4.78644,-5.58365 -9.92614,-11.16793 -15.10677,-16.43861 z m -8.15475,-16.47569 c 0.22795,3.12733 0.45465,6.24012 0.619,9.3417 3.82927,-2.55858 7.62706,-5.59693 9.15159,-9.2553 1.92503,-4.491605 -5.07736,-4.634234 -10.06467,-4.183802 0.063,0.911821 0.12846,1.822383 0.19458,2.731749 z"
     id="path319"
     inkscape:connector-curvature="0"
     style="clip-rule:evenodd;fill:#929292;fill-rule:evenodd;stroke-width:0.62971091" />
  <path
     d="m 390.16764,91.091034 c 6.74547,12.141766 5.84624,26.981916 5.84624,40.922456 0,3.14792 3.14792,6.29585 6.74546,4.94638 5.84624,-1.79846 11.69184,-2.69768 17.98769,-4.04715 6.74547,-1.34885 3.59754,-11.69185 -2.69831,-9.89339 -3.63658,0.8394 -7.44759,1.50501 -11.21641,2.32048 0.0491,-13.58412 -0.26699,-27.219377 -7.22089,-39.19547 -3.59754,-5.846047 -13.04131,-0.899416 -9.44378,4.946694 z"
     id="path321"
     inkscape:connector-curvature="0"
     style="fill:#b4b4b4;stroke-width:0.62971091" />
</svg>
