<?xml version="1.0" encoding="UTF-8" standalone="no"?>
<svg
   xmlns:dc="http://purl.org/dc/elements/1.1/"
   xmlns:cc="http://creativecommons.org/ns#"
   xmlns:rdf="http://www.w3.org/1999/02/22-rdf-syntax-ns#"
   xmlns:svg="http://www.w3.org/2000/svg"
   xmlns="http://www.w3.org/2000/svg"
   xmlns:sodipodi="http://sodipodi.sourceforge.net/DTD/sodipodi-0.dtd"
   xmlns:inkscape="http://www.inkscape.org/namespaces/inkscape"
   width="484.88699"
   height="171.58357"
   viewBox="0 0 484.88699 171.58357"
   version="1.1"
   id="svg189"
   sodipodi:docname="gbh.svg"
   style="fill:none"
   inkscape:version="1.0.1 (1.0.1+r73)">
  <metadata
     id="metadata195">
    <rdf:RDF>
      <cc:Work
         rdf:about="">
        <dc:format>image/svg+xml</dc:format>
        <dc:type
           rdf:resource="http://purl.org/dc/dcmitype/StillImage" />
        <dc:title />
      </cc:Work>
    </rdf:RDF>
  </metadata>
  <defs
     id="defs193" />
  <sodipodi:namedview
     pagecolor="#ffffff"
     bordercolor="#666666"
     borderopacity="1"
     objecttolerance="10"
     gridtolerance="10"
     guidetolerance="10"
     inkscape:pageopacity="0"
     inkscape:pageshadow="2"
     inkscape:window-width="1366"
     inkscape:window-height="740"
     id="namedview191"
     showgrid="false"
     inkscape:pagecheckerboard="true"
     inkscape:zoom="1.941327"
     inkscape:cx="219.61263"
     inkscape:cy="74.570301"
     inkscape:window-x="0"
     inkscape:window-y="0"
     inkscape:window-maximized="1"
     inkscape:current-layer="svg189"
     inkscape:document-rotation="0" />
  <path
     d="m 0,42.361926 c 0,12.598 9.79675,22.9882 24.4584,22.9932 H 162.542 C 177.203,65.350126 187,54.959926 187,42.361926 187,29.764026 177.181,19.254513 162.564,19.2868 H 24.436 C 9.8191,19.254517 0,29.764026 0,42.361926 Z m 5.77148,-0.0298 c 0,-9.5981 7.12472,-17.35606 18.73182,-17.37841 l 137.9967,0.0025 c 11.607,0.02235 18.731,7.78033 18.731,17.37593 0,9.5956 -7.082,17.4156 -18.734,17.3758 H 24.5033 c -11.6518,0.0423 -18.73182,-7.7802 -18.73182,-17.3758 z"
     id="path151"
     inkscape:connector-curvature="0"
     style="clip-rule:evenodd;fill:#ffffff;fill-rule:evenodd" />
  <path
     d="m 166.5,34.946626 c 0,-1.8427 1.495,-3.3376 3.338,-3.3376 1.842,0 3.337,1.4949 3.337,3.3376 0,1.8426 -1.495,3.3376 -3.337,3.3376 -1.843,0 -3.338,-1.495 -3.338,-3.3376 z m 3.337,2.7019 c 1.49,0 2.7,-1.2094 2.7,-2.6994 0,-1.4925 -1.21,-2.6994 -2.7,-2.6994 -1.49,0 -2.699,1.2094 -2.699,2.6994 0,1.49 1.209,2.6994 2.699,2.6994 z"
     id="path153"
     inkscape:connector-curvature="0"
     style="clip-rule:evenodd;fill:#ffffff;fill-rule:evenodd" />
  <path
     d="m 171.499,34.119626 c 0,-0.7077 -0.524,-1.0653 -1.579,-1.0653 h -1.451 v 3.6977 h 0.902 v -1.5149 h 0.439 l 0.708,1.5149 h 1.001 l -0.827,-1.6515 c 0.504,-0.1266 0.807,-0.4941 0.807,-0.9809 z m -1.689,0.5763 h -0.439 v -1.0752 h 0.395 c 0.541,0 0.807,0.1663 0.807,0.5513 0,0.3675 -0.249,0.5239 -0.763,0.5239 z"
     id="path155"
     inkscape:connector-curvature="0"
     style="clip-rule:evenodd;fill:#ffffff;fill-rule:evenodd" />
  <path
     d="m 99.3606,48.955126 c 0,-0.8095 -0.005,-0.8741 -0.005,-0.8741 l 6.4964,-0.005 c -1.135,3.4046 -4.852,5.9153 -9.2529,5.9153 -5.3044,0 -9.603,-3.6232 -9.603,-8.0957 0,-4.4725 4.2986,-8.0982 9.603,-8.0982 5.3049,0 9.6229,3.7052 9.6229,8.1777 0,0.0075 -12.285,0.0025 -12.285,0.0025 0,0 -0.005,2.1878 -0.005,2.9775 0,2.6373 1.7657,3.2234 2.7292,3.2234 0.9636,0 2.6994,-0.5861 2.6994,-3.2234 z m -4.9915,-8.051 c -0.4147,0.7201 -0.442,1.5645 -0.4321,2.8285 l 5.4409,0.0025 c 0.01,-1.2641 -0.007,-2.1084 -0.4222,-2.831 -0.5088,-0.8886 -1.4443,-1.3108 -2.2933,-1.3162 4e-4,0 9e-4,0 10e-4,0 h -0.003 c 5e-4,0 9e-4,0 0.001,0 -0.8489,0.0054 -1.7845,0.4276 -2.2933,1.3162 z"
     id="path157"
     inkscape:connector-curvature="0"
     style="clip-rule:evenodd;fill:#ffffff;fill-rule:evenodd" />
  <path
     d="m 119.875,38.038426 c 2.439,-0.0696 7.386,1.5272 7.351,7.2364 -0.005,1.0132 -0.002,7.8473 -0.002,7.8473 h -6.48 c 0,0 0,-8.5699 0,-9.4714 0,-1.2566 -1.201,-2.6547 -2.98,-2.6547 -1.775,0 -3.096,1.3981 -3.096,2.6547 0,0.6159 0.007,9.4714 0.007,9.4714 h -6.474 l 0.005,-14.4207 6.472,-0.005 c 0,0 -0.008,1.1598 0,1.5174 1.246,-1.1896 3.044,-2.1134 5.197,-2.1754 z"
     id="path159"
     inkscape:connector-curvature="0"
     style="fill:#ffffff" />
  <path
     d="m 66.876,38.038426 c 2.4386,-0.0696 7.3854,1.5272 7.3507,7.2364 -0.005,1.0132 -0.0026,7.8473 -0.0026,7.8473 h -6.479 c 0,0 0,-8.5699 0,-9.4714 0,-1.2566 -1.2019,-2.6547 -2.98,-2.6547 -1.7756,0 -3.0967,1.3981 -3.0967,2.6547 0,0.6159 0.0074,9.4714 0.0074,9.4714 h -6.474 l -0.0026,-14.4207 6.479,-0.005 c 0,0 -0.0074,1.1598 0,1.5174 1.2467,-1.1896 3.0421,-2.1134 5.1977,-2.1754 z"
     id="path161"
     inkscape:connector-curvature="0"
     style="fill:#ffffff" />
  <path
     d="m 147.719,31.440026 h -6.437 v 0 c 0,0 0,4.6414 0.005,7.979 -1.043,-0.5861 -2.143,-1.1498 -3.69,-1.2864 -4.701,-0.4122 -8.292,3.7449 -8.292,7.5518 0,5.0188 3.871,6.8764 4.46,7.1495 2.193,1.0232 5.009,1.0257 7.504,-0.5413 0,0.1341 0.003,0.8344 0.003,0.8344 h 6.447 z m -6.39,11.8258 v 2.5777 0 c 0,0 0.003,1.6316 0.003,2.5579 0,2.2275 -1.543,2.8111 -2.558,2.8111 -1.036,0 -2.556,-0.5836 -2.556,-2.8111 0,-0.7674 0.003,-2.5653 0.003,-2.5653 0,0 -0.003,-1.8302 -0.003,-2.5703 0,-2.23 1.52,-2.7987 2.558,-2.7987 1.013,0 2.553,0.5687 2.553,2.7987 z"
     id="path163"
     inkscape:connector-curvature="0"
     style="clip-rule:evenodd;fill:#ffffff;fill-rule:evenodd" />
  <path
     d="m 149.842,45.818726 c 0,-4.4725 4.266,-8.0982 9.531,-8.0982 5.264,0 9.531,3.6257 9.531,8.0982 0,4.4725 -4.267,8.0981 -9.531,8.0981 -5.262,0 -9.531,-3.6256 -9.531,-8.0981 z m 12.148,3.0372 c 0,-0.8741 0.003,-3.0545 0.003,-3.0545 l 0.002,0.0075 c -0.006,-0.4704 -0.005,-1.6269 -0.005,-2.5128 0,-0.2037 0,-0.3932 0,-0.5566 0,-2.2897 -1.363,-3.2309 -2.664,-3.2309 -1.299,0 -2.665,0.9412 -2.665,3.2309 0,0.8741 -0.005,3.0073 -0.005,3.0073 0,0 -0.002,2.235 -0.002,3.1091 0,2.2996 1.363,3.2482 2.672,3.2482 1.306,0 2.664,-0.9486 2.664,-3.2482 z"
     id="path165"
     inkscape:connector-curvature="0"
     style="clip-rule:evenodd;fill:#ffffff;fill-rule:evenodd" />
  <path
     d="m 45.0723,35.867926 v -4.4328 h 6.5361 v 4.4328 z"
     id="path167"
     inkscape:connector-curvature="0"
     style="fill:#ffffff" />
  <path
     d="m 45.0874,53.127126 v -14.4232 l 6.5212,0.0026 v 14.4207 z"
     id="path169"
     inkscape:connector-curvature="0"
     style="fill:#ffffff" />
  <path
     d="m 77.8054,53.127226 0.0025,-14.3934 h -3.5462 v -2.1406 l 3.5487,-0.0026 -0.005,-2.9204 h 6.5262 v 2.918 h 3.5313 v 2.1456 h -3.5313 l 0.005,14.3934 z"
     id="path171"
     inkscape:connector-curvature="0"
     style="fill:#ffffff" />
  <path
     d="m 18.5479,53.127026 0.0024,-21.687 h 6.7572 l 9.3473,15.1235 -0.005,-15.1235 h 6.705 v 21.687 h -6.6951 l -9.3969,-15.1235 v 15.1235 z"
     id="path173"
     inkscape:connector-curvature="0"
     style="fill:#ffffff" />
  <path
     d="m 418.322,83.065526 h 20.424 l 10.089,23.203304 15.129,-23.203304 h 20.923 l -29.501,45.896204 -4.79,35.809 h -18.911 l 5.548,-40.858 z"
     id="path175"
     inkscape:connector-curvature="0"
     style="fill:#ffffff" />
  <path
     d="m 268.028,164.77073 2.522,-18.164 h -28.742 l 1.764,-14.115 h 24.961 l 2.525,-18.1555 h -24.711 l 1.766,-13.1155 h 28.74 l 2.776,-18.155204 h -47.657 l -11.348,81.705204 z"
     id="path177"
     inkscape:connector-curvature="0"
     style="fill:#ffffff" />
  <path
     d="M 108.662,140.55573 H 91.5156 l -9.3279,24.208 H 63.0228 l 1.2597,-3.784 c -3.7817,2.018 -14.3735,5.55 -23.704,5.045 -16.1372,0.25 -40.345216,-12.359 -37.32007,-38.835 C 8.40008,82.191826 58.7354,78.523226 77.9012,85.077526 l -2.7761,17.399504 c -28.7462,-9.329604 -52.9542,7.565 -53.7098,25.7197 -0.7557,18.157 16.1381,19.669 18.4076,19.669 2.2695,0 8.0682,-0.253 10.5901,-1.764 l 1.0098,-5.547 H 37.0476 l 2.2712,-16.139 h 32.7811 l -3.5309,26.476 26.9824,-67.829504 h 24.2076 l 8.323,67.075504 22.189,-67.075504 h 19.416 l 6.557,43.118504 16.894,-43.118504 h 21.687 l 5.044,81.701504 h -18.155 l -3.027,-46.9025 -18.155,46.9025 h -16.391 l -7.062,-44.381 -14.374,44.381 H 111.69 Z m -4.035,-33.0322 -6.3037,16.8932 h 8.3227 z"
     id="path179"
     inkscape:connector-curvature="0"
     style="clip-rule:evenodd;fill:#ffffff;fill-rule:evenodd" />
  <path
     d="m 359.564,119.88373 c 6.304,-30.513604 25.216,-38.078604 38.33,-37.573704 19.162,0.7573 33.539,16.1372 29.503,45.388704 -4.034,29.251 -25.972,39.085 -41.609,37.068 -15.634,-2.017 -32.527,-14.373 -26.224,-44.883 z m 50.179,4.536 c 2.775,-21.1793 -8.572,-24.710204 -13.867,-24.710204 -5.551,-0.2525 -15.889,5.295504 -18.662,24.710204 -2.774,19.418 7.059,22.693 11.852,23.198 4.791,0.506 17.903,-2.016 20.677,-23.198 z"
     id="path181"
     inkscape:connector-curvature="0"
     style="clip-rule:evenodd;fill:#ffffff;fill-rule:evenodd" />
  <path
     d="m 303.836,83.068226 -11.347,81.700504 36.059,-0.001 c 16.391,0 25.721,-11.093 27.488,-22.443 1.764,-11.347 -2.522,-17.4 -6.811,-21.18 0.363,-0.263 0.746,-0.505 1.143,-0.755 2.642,-1.6656 5.865,-3.6969 7.18,-14.879 1.512,-12.859604 -10.59,-22.442504 -18.914,-22.442504 z m 14.371,31.268104 h 10.592 c 7.818,0 9.331,-5.0439 9.58,-7.0593 0.253,-2.0187 -2.015,-6.0537 -6.049,-6.0537 h -12.356 z m -4.538,32.2754 h 14.375 c 7.814,0 9.58,-6.05 9.83,-8.069 0.254,-2.017 -2.016,-6.05 -6.05,-6.05 h -16.136 z"
     id="path183"
     inkscape:connector-curvature="0"
     style="clip-rule:evenodd;fill:#ffffff;fill-rule:evenodd" />
  <path
     d="m 460.825,152.40973 c -3.111,0 -5.623,2.508 -5.623,5.604 0,3.129 2.51,5.639 5.623,5.639 3.095,0 5.603,-2.51 5.603,-5.639 -0.002,-3.097 -2.512,-5.604 -5.603,-5.604 v -0.771 c 3.526,0 6.373,2.861 6.373,6.375 0,3.547 -2.847,6.407 -6.373,6.407 -3.548,-0.001 -6.408,-2.86 -6.408,-6.407 0,-3.515 2.86,-6.374 6.408,-6.374 z"
     id="path185"
     inkscape:connector-curvature="0"
     style="fill:#ffffff" />
  <path
     d="m 459.312,155.07973 h 2.042 c 0.888,0 1.855,0.132 1.855,1.238 0,1.454 -1.554,1.289 -2.559,1.289 l -1.338,-0.002 v 0.688 h 1.609 l 2.04,3.296 h 1.037 l -2.159,-3.296 c 1.272,-0.033 2.258,-0.551 2.258,-1.957 0,-0.604 -0.266,-1.238 -0.801,-1.541 -0.535,-0.317 -1.139,-0.35 -1.742,-0.35 h -3.108 v 7.142 h 0.867 v -6.507 z"
     id="path187"
     inkscape:connector-curvature="0"
     style="fill:#ffffff" />
  <g
     aria-label="[HACKS]"
     transform="matrix(2.157844,-0.51428943,0.58119693,2.6463694,-252.73211,186.89393)"
     style="font-style:normal;font-weight:normal;font-size:40px;line-height:125%;font-family:sans-serif;letter-spacing:0px;word-spacing:0px;fill:#ff0000;fill-opacity:1;stroke:none;stroke-width:1px;stroke-linecap:butt;stroke-linejoin:miter;stroke-opacity:1"
     id="flowRoot52">
    <path
       inkscape:connector-curvature="0"
       d="m 162.07617,-12.482817 q 0.41016,-0.03906 0.41016,-0.136719 l 0.625,0.07813 1.77734,-0.01953 h 0.0195 v 2.480469 q -0.8789,-0.117188 -0.8789,-0.292969 l -0.60547,0.09766 -0.0781,-0.07813 h -0.0781 q -0.0977,0.117188 -0.89844,0.175781 0.0977,0.5859378 0.29297,0.839844 -0.15625,0.7617188 -0.46875,1.09375 l 0.0781,0.3125 -0.0781,0.234375 0.0781,0.625 -0.0781,0.078125 0.0781,0.390625 v 0.234375 l -0.0781,1.09375 0.0781,0.078125 v 0.078125 l -0.15625,0.46875 0.23438,1.40625 v 0.234375 l -0.15625,0.625 v 0.390625 q 0,0.5664063 0.23437,1.40625001 l -0.0781,0.234375 0.0781,1.09375 V 1.052339 l -0.3125,1.25 q 0.39063,1.3867188 0.39063,1.875 -0.23438,0 -0.23438,0.3125 l 0.0781,0.46875 -0.0781,0.625 0.0781,0.078125 -0.0781,0.078125 v 0.078125 q 0,1.40625 0.3125,3.046875 l -0.3125,0.859375 0.15625,1.015625 -0.0781,0.625 0.15625,0.46875 v 0.3125 q 0,0.371094 -0.23438,0.78125 l 0.0781,0.703125 q -0.0977,0 -0.3125,0.78125 0.0977,0.410156 0.39062,0.625 l 0.0781,0.3125 -0.0781,0.546875 0.0781,0.07813 -0.23438,2.8125 0.0781,0.3125 -0.23438,0.9375 0.0781,0.859375 -0.0781,0.625 0.23438,1.09375 -0.0781,0.664063 0.58594,0.117187 1.38672,-0.253906 0.66406,0.09766 -0.0391,2.167969 -0.0781,0.07813 -0.0781,-0.07813 h -0.3125 l -1.62109,0.253906 q -0.91797,-0.03906 -1.46485,-0.09766 V 25.36875 l -1.36718,-0.07813 0.21484,-1.503906 q -0.21484,0 -0.3125,-1.171875 l 0.0781,-0.3125 v -0.625 l 0.23438,-0.625 -0.23438,-1.015625 0.0781,-0.234375 q -0.0781,-1.015625 -0.23438,-1.015625 l 0.0781,-0.390625 -0.0781,-0.3125 q 0.39063,-0.429687 0.39063,-1.484375 l -0.15625,-0.15625 v -0.07813 l 0.0781,-0.3125 -0.15625,-0.3125 0.15625,-0.625 -0.23437,-1.25 0.3125,-0.546875 -0.15625,-0.46875 0.0781,-0.07813 v -0.07813 l -0.0781,-0.78125 0.23437,-0.703125 q -0.3125,-0.46875 -0.3125,-1.40625 l 0.15625,-0.703125 q 0,-0.546875 -0.15625,-0.859375 l 0.0781,-0.859375 v -0.70311 l -0.0781,-0.078125 0.15625,-0.625 -0.0781,-0.3125 0.0781,-0.234375 -0.23437,-0.46875 0.23437,-1.25 -0.0781,-1.5625 q 0,-1.015625 0.23437,-1.64062499 -0.54687,-0.80078125 -0.54687,-1.09375 v -0.234375 l 0.3125,-1.48437501 v -1.09375 l -0.15625,-0.546875 0.15625,-1.328125 q 0,-0.3710937 -0.39063,-1.171875 0,-0.390625 0.54688,-1.09375 v -0.15625 l -0.23438,-0.234375 v -0.078125 h 0.15625 v -0.078125 q -0.3125,-0.3125 -0.3125,-0.546875 l 0.0781,-0.625 -0.0781,-0.078125 q 0.23438,-0.078125 0.23438,-0.46875 -0.0195,-1.171875 -0.15625,-1.171875 l 0.23437,-0.859375 -0.0781,-0.46875 v -0.07813 q 0,-0.234375 1.01562,-0.3125 v -0.07813 q 0.72266,0.03906 1.05469,0.292969 z"
       style="font-style:normal;font-variant:normal;font-weight:normal;font-stretch:normal;font-family:'Top Secret';-inkscape-font-specification:'Top Secret';fill:#ff0000"
       id="path68" />
    <path
       inkscape:connector-curvature="0"
       d="m 179.57617,-7.541411 h 1.44531 q 0.25391,0.3515625 2.89063,0.546875 l 0.17578,-0.1953125 h 0.19531 l 2.51953,0.3710938 2.89063,-0.546875 1.26953,0.546875 q 0,2.1679687 -1.79687,2.1679687 l -0.3711,1.2695313 v 1.4453125 l 0.3711,1.44531246 v 1.07421875 q 0,1.32812499 -0.54688,3.08593749 l 0.54688,2.1679688 -0.3711,2.34375 0.3711,2.1679687 -0.3711,0.742188 0.17578,0.527343 -0.17578,2.167969 0.3711,1.269531 -0.19532,0.917969 q 0,1.035156 1.81641,3.066406 l -0.54688,0.722657 h -0.54687 l -1.99219,-0.371094 q -0.89844,0.05859 -0.89844,0.371094 l -2.34375,-0.546875 h -0.54687 q 0,0.546875 -0.54688,0.546875 v -0.175782 q -1.38671,0.527344 -3.96484,0.722657 -1.09375,0 -1.09375,-1.269532 h -0.17578 q 1.79687,-1.835937 1.79687,-2.539062 l 0.72266,-4.511719 -0.72266,-1.269531 0.91797,-2.714844 V 7.6539015 L 180.47461,7.2828078 179.75195,7.458589 178.13086,7.2828078 V 7.458589 q -1.44531,-0.2539062 -1.44531,-1.4453125 v -0.546875 l 0.35156,-0.3515625 h 1.62109 l 0.19532,0.1757813 q 1.79687,-1.328125 1.79687,-5.05859379 L 179.75195,-1.760161 q 0.89844,-1.171875 0.89844,-1.796875 0,-1.3085937 -2.71484,-2.7148437 v -0.546875 q 0.2539,-0.7226563 1.64062,-0.7226563 z m -11.21094,0.1757813 2.16797,0.3710937 1.6211,-0.1953125 2.71484,0.1953125 1.26953,-0.1953125 1.07422,0.3710938 v 1.0742187 q -2.14844,1.5429688 -2.34375,2.5390625 l 0.54688,3.61328126 V 1.8531203 l 0.17578,0.9179687 -0.72266,1.25 v 1.4453125 q 0.54688,0.6640625 0.54688,1.2695313 l -0.3711,1.9921875 0.72266,2.8906247 q -0.89844,0.585938 -0.89844,2.167969 0.54688,0.898438 0.54688,2.363281 v 0.351563 l -0.3711,0.546875 v 0.175781 q 0,0.371094 1.09375,0.546875 0.11719,0.839844 1.26953,1.621094 v 0.546875 l -0.19531,0.175781 -0.52734,0.195313 v 0.175781 q -3.39844,-0.371094 -5.42969,-1.09375 -2.20703,0.195312 -4.88281,0.917969 h -1.09375 l -0.89844,-1.269532 v -0.175781 q 0,-1.152344 1.81641,-1.640625 v -2.890625 l -0.54688,-1.074219 q 0.72266,-1.09375 0.72266,-1.640625 h -0.17578 l 0.35156,-0.898437 -0.17578,-0.175781 v -0.195313 l 0.17578,-0.175781 V 9.9976515 l -0.17578,-0.7226562 0.35156,-0.546875 -0.17578,-0.546875 Q 167.0957,7.224214 167.0957,5.114839 l -1.09375,-1.8164062 0.3711,-2.34375004 q -0.41016,0 -0.54688,-0.8984375 0.41016,-2.16796876 1.09375,-2.16796876 -0.85937,-2.2851562 -2.16797,-4.3554687 l 0.72266,-0.3515625 1.07422,0.1757812 h 0.17578 q 0.97656,-0.7226562 1.64062,-0.7226562 z m 25.625,-2.8906253 q -0.33203,0.03906 -0.70312,0.03906 l -1.5625,-0.07813 -1.25,0.234375 -0.46875,-0.234375 -0.23438,0.07813 -0.3125,-0.07813 -0.625,0.15625 -0.0781,-0.07813 h -0.70313 l -0.85937,0.07813 q -0.3125,-0.15625 -0.85938,-0.15625 l -0.70312,0.15625 q -0.9375,0 -1.40625,-0.3125 l -0.70313,0.234375 -0.78125,-0.07813 h -0.0781 l -0.0781,0.07813 -0.46875,-0.15625 -0.54687,0.3125 -1.25,-0.234375 -0.625,0.15625 -0.3125,-0.15625 -0.3125,0.07813 h -0.0781 l -0.15625,-0.15625 q -1.05468,0 -1.48437,0.3906248 l -0.3125,-0.078125 -0.39063,0.078125 q 0,-0.1562498 -1.01562,-0.2343748 l -0.23438,0.07813 -1.01562,-0.234375 -0.625,0.234375 h -0.625 l -0.3125,0.07813 q -1.17188,-0.09766 -1.17188,-0.3125 l -1.64062,0.234375 -1.40625,-0.07813 -1.25,0.15625 -1.09375,-0.234375 h -1.64063 q -0.11718,0.117187 -0.64453,0.195312 v -2.441406 l 0.80078,0.136719 q 0.42969,0 0.85938,-0.234375 0.48828,0 0.9375,0.234375 l 1.25,-0.234375 1.79687,0.15625 v -0.07813 h 0.15625 l 0.23438,0.15625 0.625,-0.15625 h 0.39062 l 0.46875,0.15625 1.32813,-0.15625 1.09375,0.234375 0.625,-0.07813 0.85937,0.07813 0.9375,-0.234375 0.3125,0.07813 2.8125,-0.234375 0.0781,0.07813 0.54687,-0.07813 0.3125,0.07813 q 0.21485,0.292969 0.625,0.390625 0.78125,-0.214844 0.78125,-0.3125 l 0.70313,0.07813 q 0.41016,-0.234375 0.78125,-0.234375 h 0.3125 l 0.46875,0.15625 0.625,-0.07813 1.01562,0.15625 0.85938,-0.3125 q 1.64062,0.3125 3.04687,0.3125 h 0.0781 l 0.0781,-0.07813 0.0781,0.07813 0.625,-0.07813 0.46875,0.07813 q 0.3125,0 0.3125,-0.234375 0.48828,0 1.875,0.390625 l 0.85937,-0.214844 z m 0,35.703125 -0.8789,-0.175781 -0.78125,0.3125 v -0.07813 q -0.74219,0 -1.40625,0.234375 l -0.78125,-0.15625 q -1.48438,0 -2.26563,0.3125 -1.5625,-0.546875 -2.10937,-0.546875 h -0.39063 q -0.9375,0.3125 -1.79687,0.390625 l -0.23438,-0.234375 h -0.23437 v 0.15625 h -0.23438 q 0,-0.234375 -0.39062,-0.234375 h -0.15625 l -0.0781,0.07813 -0.39062,-0.234375 h -0.23438 q -0.15625,0.15625 -0.625,0.15625 l -0.39062,0.390625 -2.1875,-0.546875 h -0.0781 l -1.01562,0.46875 -0.0781,-0.07813 h -0.70312 q -0.11719,0 -0.23438,-0.3125 l -1.71875,0.234375 q -0.42968,-0.15625 -1.09375,-0.15625 -0.33203,0 -0.70312,0.234375 l -0.46875,-0.234375 h -0.39063 l -0.85937,0.07813 -0.9375,-0.234375 q -0.9961,0.214844 -1.17188,0.46875 l -0.39062,-0.234375 q -0.60547,0 -1.17188,0.546875 -0.33203,-0.07813 -0.625,-0.390625 -1.32812,-0.292969 -1.32812,-0.46875 l -0.625,0.15625 -0.0781,-0.07813 h -0.0781 l -0.46875,0.15625 -0.17578,-0.01953 V 23.31796 l 0.41015,0.07813 0.9375,-0.234375 h 0.23438 l 0.625,0.15625 0.0781,-0.07813 0.70313,0.07813 0.3125,-0.15625 0.3125,0.15625 h 0.85937 l 0.625,-0.234375 h 0.0781 l 0.0781,0.07813 1.25,-0.3125 0.78125,0.390625 h 0.70313 l 0.78125,-0.07813 0.15625,0.15625 0.15625,-0.15625 0.9375,0.07813 h 0.78125 l 0.39062,0.07813 0.23438,-0.234375 0.70312,0.234375 0.3125,-0.07813 h 0.0781 l 0.0781,0.07813 0.46875,-0.234375 0.85938,0.15625 0.54687,-0.07813 1.09375,0.3125 2.1875,-0.3125 0.0781,0.07813 0.39062,-0.07813 0.46875,0.07813 1.17188,-0.15625 q 0.60547,0 1.40625,0.234375 h 0.0781 Q 185.66989,23.0836 185.9238,23.0836 h 0.23437 q 0.46875,0 0.9375,0.46875 l 0.9375,-0.15625 0.3125,0.07813 0.3125,-0.07813 h 0.625 q 0.44922,-0.3125 0.70313,-0.3125 l 0.625,0.07813 h 0.0781 l 0.0781,-0.07813 0.39062,0.234375 0.46875,-0.234375 0.46875,0.15625 q 0.29297,-0.234375 0.70313,-0.234375 h 0.23437 l 0.625,0.234375 h 0.33203 z"
       style="font-style:normal;font-variant:normal;font-weight:normal;font-stretch:normal;font-family:'Top Secret';-inkscape-font-specification:'Top Secret';fill:#ff0000"
       id="path70" />
    <path
       inkscape:connector-curvature="0"
       d="m 210.8457,-7.463286 0.17578,0.1757813 0.3711,0.3515625 h 0.17578 l -0.35156,1.4453125 0.72265,1.9921875 0.72266,0.7226562 v 3.7890625 q 0.52734,0.4882813 1.42578,4.3359375 l 0.72266,0.7226563 -0.17578,0.1757812 v 0.7226563 l 0.17578,0.7226562 -0.17578,0.7226563 1.09375,3.2421877 h -0.19532 l 0.54688,0.898437 -0.54688,0.917969 q 0.625,0 1.09375,2.167969 l -0.17578,1.25 q 0,0.546875 1.6211,1.09375 l 0.52734,1.445312 -0.72266,0.527344 h -0.17578 l -0.52734,-0.351562 h -0.3711 l -2.34375,0.722656 h -0.17578 l -0.72265,-0.175781 -0.72266,0.175781 h -0.37109 l -0.89844,-0.546875 -3.78906,0.546875 q -0.9375,0 -1.44532,-0.898438 v -0.195312 q 1.09375,-0.664063 1.09375,-2.34375 l -0.37109,-1.25 0.17578,-0.195313 -0.35156,-1.621093 0.17578,-0.175782 v -0.722656 h -1.62109 l -1.44532,0.351563 q -0.46875,-0.351563 -1.79687,-0.351563 l -0.19531,-0.175781 v -1.640625 q 0,-0.351563 1.09375,-0.527344 l 0.72265,0.722656 h 1.25 l 0.91797,-0.195312 -0.54687,-3.0664065 0.17578,-1.0742187 q -0.54688,0 -1.26953,-3.9648438 l 0.19531,-0.546875 -1.62109,-5.78125 0.17578,-0.5273437 -0.17578,-1.640625 q 0.13671,-1.0742188 1.07421,-1.0742188 l 0.89844,0.1757813 z m -8.65234,6.1328125 h 0.17578 l 0.17578,0.54687501 -0.17578,0.52734375 0.17578,1.81640624 q 0,2.3632813 -1.07422,3.7890625 0,2.265625 -1.44531,5.058594 l 0.17578,0.527344 -0.17578,1.269531 0.17578,1.269531 -0.54687,0.175781 0.17578,1.074219 -0.52735,1.445313 v 0.175781 q 0,1.582031 2.34375,1.816406 h 0.35157 v 0.175781 q 0,2.167969 -1.25,2.167969 h -2.16797 q -0.60547,0 -1.26953,-0.546875 l -2.51953,0.546875 q -0.70313,0 -1.26954,-1.992187 v -0.351563 q 2.16797,0 2.16797,-1.992187 1.66016,-1.660157 3.06641,-5.761719 l -0.17578,-0.5468752 1.97265,-6.6796875 0.3711,-0.3710938 -0.17578,-0.5273437 q 0,-2.20703129 1.44531,-3.6132813 z m 19.04297,-9.0039065 q -0.44922,-0.136718 -0.44922,-0.234375 l -0.625,0.15625 -0.0781,-0.07813 h -0.0781 l -0.46875,0.15625 -0.85938,-0.07813 -2.34375,0.4687503 -1.95312,-0.2343753 -1.17188,0.07813 -0.0781,-0.07813 -0.3125,0.07813 h -0.9375 l -1.01563,-0.3125 h -0.625 l -0.78125,0.234375 h -0.0781 q -1.03516,0 -1.40625,-0.234375 l -0.54688,0.15625 -1.5625,-0.15625 q 0,0.117188 -1.09375,0.234375 l -0.70312,-0.07813 h -0.9375 q -2.05078,0 -2.26563,0.3125003 h -0.39062 l -2.34375,-0.3906253 -0.46875,0.07813 -0.85938,-0.15625 -1.40625,0.15625 h -0.3125 l -1.17187,0.3125003 q -0.85938,0 -1.09375,-0.6250003 0.39062,-0.585937 0.39062,-1.25 l -0.0781,-0.3125 q 0,-0.546875 1.09375,-0.546875 l 1.64062,0.234375 q 0.29297,-0.234375 0.70313,-0.234375 h 0.3125 q 0.39062,0 0.46875,0.234375 l 2.1875,-0.234375 1.64062,0.46875 1.25,-0.390625 v 0.07813 l 1.01563,-0.234375 0.46875,0.07813 0.3125,-0.07813 0.23437,0.234375 h 0.23438 l 0.23437,-0.234375 0.70313,0.15625 1.17187,-0.15625 q 0.27344,0.234375 1.17188,0.3125 l 0.39062,-0.234375 0.39063,0.234375 0.39062,-0.07813 0.3125,0.07813 0.54688,-0.07813 1.25,0.15625 1.32812,-0.3125 1.09375,0.15625 0.46875,-0.07813 h 1.25 l 0.70313,-0.234375 0.54687,0.15625 0.23438,-0.07813 0.54687,0.15625 h 0.0781 l 0.0781,-0.07813 1.09375,0.234375 0.3125,-0.07813 0.78125,0.15625 0.9375,-0.234375 h 0.23438 l 0.29297,0.07813 z m 0,35.898438 -0.27344,-0.07813 -2.1875,0.3125 -0.0781,-0.07813 -0.39063,0.07813 -0.46875,-0.07813 -1.17187,0.15625 q -0.60547,0 -1.40625,-0.234375 h -0.0781 q -0.29297,0.234375 -0.54687,0.234375 h -0.23438 q -0.46875,0 -0.9375,-0.46875 l -0.9375,0.15625 -0.3125,-0.07813 -0.3125,0.07813 h -0.625 q -0.44922,0.3125 -0.70312,0.3125 l -0.625,-0.07813 h -0.0781 l -0.0781,0.07813 -0.39063,-0.234375 -0.46875,0.234375 -0.46875,-0.15625 q -0.29297,0.234375 -0.70312,0.234375 h -0.23438 l -0.625,-0.234375 q -1.5625,0 -3.04687,0.234375 -0.72266,0 -1.25,-0.46875 0,0.3125 -1.09375,0.390625 l -0.46875,-0.07813 -0.54688,0.15625 q -1.03516,-0.15625 -1.25,-0.3125 h -0.0781 l -0.0781,0.07813 -1.71875,-0.15625 q -0.99609,0 -1.25,0.3125 h -0.15625 l -0.3125,-0.234375 -0.46875,0.15625 -0.0781,-0.07813 h -0.23438 q -0.48828,0.15625 -1.875,0.234375 l -0.54687,-0.3125 v -0.07813 l 0.0781,-0.07813 q 0.3125,-0.117188 0.3125,-0.234375 v -0.07813 l -0.23437,-0.234375 0.15625,-0.546875 v -0.07813 q 0,-0.15625 -0.23438,-0.15625 v -0.3125 l 0.3125,-0.546875 q 0.89844,0 1.5625,0.234375 0.89844,0 1.17188,-0.3125 h 0.39062 l 1.32813,0.234375 h 0.23437 l 0.85938,-0.234375 q 1.66015,0.253906 1.95312,0.46875 h 0.3125 q 0.39063,0 0.46875,-0.234375 h 0.0781 l 0.0781,0.07813 h 0.3125 q 0,-0.15625 1.79688,-0.390625 l 0.46875,0.07813 h 0.0781 l 0.0781,-0.07813 q 0.3125,0.117187 0.3125,0.234375 l 0.54687,-0.07813 h 0.54688 l 2.03125,0.390625 0.78125,-0.3125 v 0.07813 q 0.74218,0 1.40625,-0.234375 l 0.78125,0.15625 q 1.48437,0 2.26562,-0.3125 1.5625,0.546875 2.10938,0.546875 h 0.39062 q 0.9375,-0.3125 1.79688,-0.390625 l 0.23437,0.234375 h 0.23438 v -0.15625 h 0.23437 q 0,0.234375 0.39063,0.234375 h 0.15625 l 0.0781,-0.07813 0.39063,0.234375 h 0.23437 q 0.15625,-0.15625 0.625,-0.15625 l 0.39063,-0.390625 1.28906,0.332031 z"
       style="font-style:normal;font-variant:normal;font-weight:normal;font-stretch:normal;font-family:'Top Secret';-inkscape-font-specification:'Top Secret';fill:#ff0000"
       id="path72" />
    <path
       inkscape:connector-curvature="0"
       d="m 231.99805,-7.5218797 0.52734,0.1757812 v 1.5820313 q 0,1.2109375 -1.77734,1.40625 l 0.17578,0.1757812 -0.52735,0.8984375 0.17579,1.2304688 -0.35157,0.3515625 v 1.23046871 l 0.17578,0.17578125 -0.17578,0.17578125 v 0.17578125 l 0.35157,1.40625004 V 1.989839 q -1.05469,2.5195313 -1.05469,3.5351563 l 1.05469,3.1640625 -0.35157,1.0546875 v 1.2499997 l 0.52735,2.460938 -0.52735,1.582031 v 0.703125 q 0,0.9375 2.48047,3.007813 l -0.35156,1.230468 h -0.17578 q -0.91797,0 -1.60156,-0.527343 h -0.35157 l -1.58203,0.175781 q -0.83984,-0.136719 -1.40625,-0.878906 l -3.71094,-1.953125 0.35157,-0.878907 q -1.23047,-0.273437 -1.23047,-0.878906 l 0.17578,-0.175781 v -0.175781 l -1.75781,-4.394532 q 0.35156,-0.7812497 0.35156,-2.832031 l -0.52734,-2.8125 q 0,-3.73046874 2.10937,-4.76562499 l 0.17578,-0.17578125 v -0.17578125 l -0.52734,-0.87890621 q 0.44922,-0.8984375 1.58203,-1.5820313 0.29297,-1.2890625 4.0625,-3.5351562 0,-0.4101563 3.71094,-1.0546875 z m 3.86718,0.1757812 q 0,0.46875 2.65625,1.40625 1.23047,0 2.28516,-1.2304687 h 0.35156 q 0.87891,0.4492187 0.87891,1.5820312 0,0.8789063 -0.35156,0.8789063 0.35156,0.4296875 0.52734,2.8320312 l -0.17578,2.9882813 0.52734,1.40625 q -0.50781,1.25 -1.58203,1.25 0,-0.46875 -0.8789,-0.703125 l -1.40625,-4.765625 q -0.44922,0 -1.42579,-1.2304688 -0.8789,-0.1367187 -0.8789,-0.5273437 l 0.17578,-0.7226563 q -0.87891,-0.6445312 -2.63672,-0.8789062 0,-1.9335938 1.05469,-1.9335938 0,-0.3515625 0.8789,-0.3515625 z m 6.17188,19.5703125 0.17578,0.175781 q -0.21484,2.734375 -1.05469,4.042969 -1.23047,0 -1.23047,1.425781 l -2.65625,0.878907 V 18.57187 l -1.93359,1.933594 h -1.05469 q -0.70312,-0.292969 -0.70312,-1.230469 V 18.57187 q 0,-0.3125 4.57031,-2.304687 1.95313,-4.042969 3.88672,-4.042969 z m 3.67187,13.398438 -0.3125,0.09766 -0.23437,-0.07813 -0.46875,0.15625 q 0,-0.390625 -1.09375,-0.46875 l -1.32813,0.3125 h -0.625 l -0.70312,-0.07813 h -0.0781 l -0.0781,0.07813 -0.85938,-0.07813 h -0.39062 l -0.23438,-0.15625 h -0.23437 l -0.46875,0.15625 -0.23438,-0.15625 q 0,0.15625 -1.64062,0.234375 -0.15625,-0.15625 -0.9375,-0.234375 0,0.15625 -0.70313,0.234375 0,-0.195313 -0.85937,-0.3125 h -0.85938 l -0.54687,0.234375 -1.64063,-0.3125 -0.54687,0.15625 h -0.0781 l -0.0781,-0.07813 -0.54688,0.15625 -1.32812,-0.234375 -0.625,0.234375 h -0.0781 l -0.0781,-0.07813 -1.17188,0.15625 -1.09375,-0.3125 -1.5625,0.3125 -1.48437,-0.07813 -0.625,0.07813 q 0,-0.136719 -0.78125,-0.15625 h -0.54688 l -0.15625,-0.15625 v -0.15625 l 0.15625,-0.625 v -0.234375 l -0.15625,-0.234375 v -0.3125 q 0,-0.546875 0.625,-0.625 1.50391,0.07813 1.64063,0.234375 h 0.0781 l 0.0781,-0.07813 0.3125,0.15625 q 0,-0.292969 2.34375,-0.390625 l 1.32812,0.3125 h 0.3125 l 0.0781,-0.07813 0.0781,0.07813 h 0.15625 l 0.39063,-0.07813 0.46875,0.07813 h 0.3125 l 1.01562,-0.15625 0.85938,0.15625 h 0.78125 l 0.70312,0.234375 1.09375,-0.234375 h 0.0781 l 0.70312,0.07813 1.09375,-0.3125 0.9375,0.234375 h 0.78125 l 0.0781,-0.07813 0.0781,0.07813 h 0.3125 l 0.70313,0.07813 2.34375,-0.234375 0.23437,0.07813 0.23438,-0.07813 0.3125,0.07813 h 0.0781 l 0.0781,-0.07813 0.54687,0.07813 0.9375,-0.15625 1.25,0.15625 1.17188,-0.3125 0.70312,0.117187 z m 0,-35.644532 -1.03515,0.136719 q -0.60547,0 -1.40625,-0.234375 h -0.0781 q -0.29297,0.234375 -0.54687,0.234375 h -0.23438 q -0.46875,0 -0.9375,-0.46875 l -0.9375,0.15625 -0.3125,-0.07813 -0.3125,0.07813 h -0.625 q -0.44922,0.3125 -0.70312,0.3125 l -0.625,-0.078125 h -0.0781 l -0.0781,0.078125 -0.39063,-0.234375 -0.46875,0.234375 -0.46875,-0.15625 q -0.29297,0.234375 -0.70312,0.234375 h -0.23438 l -0.625,-0.234375 q -1.5625,0 -3.04687,0.234375 -0.72266,0 -1.25,-0.46875 0,0.3125 -1.09375,0.390625 l -0.46875,-0.078125 -0.54688,0.15625 q -1.03515,-0.15625 -1.25,-0.3125 h -0.0781 l -0.0781,0.07813 -1.71875,-0.15625 q -0.99609,0 -1.25,0.3125 h -0.15625 l -0.3125,-0.234375 -0.46875,0.15625 -0.0781,-0.078125 h -0.23438 q -0.48828,0.15625 -1.875,0.234375 l -0.54687,-0.3125 v -0.07813 l 0.0781,-0.07813 q 0.3125,-0.117187 0.3125,-0.234375 v -0.07813 l -0.23437,-0.234375 0.15625,-0.546875 v -0.07813 q 0,-0.15625 -0.23438,-0.15625 v -0.3125 l 0.3125,-0.546875 q 0.89844,0 1.5625,0.234375 0.89844,0 1.17188,-0.3125 h 0.39062 l 1.32813,0.234375 h 0.23437 l 0.85938,-0.234375 q 1.66015,0.253906 1.95312,0.46875 h 0.3125 q 0.39063,0 0.46875,-0.234375 h 0.0781 l 0.0781,0.07813 h 0.3125 q 0,-0.15625 1.79688,-0.390625 l 0.46875,0.07813 h 0.0781 l 0.0781,-0.07813 q 0.3125,0.117188 0.3125,0.234375 l 0.54687,-0.07813 h 0.54688 l 2.03125,0.390625 0.78125,-0.3125 v 0.07813 q 0.74219,0 1.40625,-0.234375 l 0.78125,0.15625 q 1.48437,0 2.26562,-0.3125 1.5625,0.546875 2.10938,0.546875 h 0.39062 q 0.9375,-0.3125 1.79688,-0.390625 l 0.23437,0.234375 h 0.23438 v -0.15625 h 0.23437 q 0,0.05859 0.0195,0.09766 z"
       style="font-style:normal;font-variant:normal;font-weight:normal;font-stretch:normal;font-family:'Top Secret';-inkscape-font-specification:'Top Secret';fill:#ff0000"
       id="path74" />
    <path
       inkscape:connector-curvature="0"
       d="m 248.59961,-7.4828172 q 1.64062,0 2.71484,0.9179687 h 0.3711 l 1.26953,-0.1953125 v 0.1953125 l 0.17578,-0.1953125 h 0.91797 q 2.34375,0 3.26172,-0.3515625 l 0.89843,0.3515625 v 1.2695313 q -1.62109,1.2695312 -1.62109,2.3632812 l 0.17578,2.53906251 -0.17578,3.08593749 h 0.17578 l -0.17578,0.1757813 v 0.9179687 l 0.17578,1.0742188 -0.17578,0.1953125 V 5.036714 l 0.17578,0.7226563 -0.17578,3.4375 v 0.7226562 l 0.35156,1.4648435 v 0.722657 l -0.54687,2.363281 q 0,3.808594 1.64062,3.808594 l 0.72266,1.074218 q 0,0.605469 -2.16797,0.917969 l -1.64062,-0.195312 -1.81641,0.195312 h -0.89844 l -1.99219,-0.195312 -0.19531,0.195312 h -0.17578 l -1.09375,-0.195312 -1.07422,0.371093 -1.46484,-0.546875 h -0.72266 l -0.17578,-0.722656 q 0,-0.488281 1.99219,-1.640625 l 0.91797,-3.613281 -0.19532,-1.269531 0.19532,-0.546875 -0.74219,-5.2539067 0.19531,-1.09375 V 4.3140578 l 0.17578,-0.1953125 -0.54687,-1.4453125 0.54687,-2.16796879 -0.37109,-3.08593751 0.19531,-0.9179687 q 0,-0.9765625 -1.64062,-1.4453125 l -0.35157,-0.7226563 v -0.1757812 l 0.72266,-0.7226563 0.17578,0.1757813 h 0.3711 z m 20.3125,0.3710937 h 1.81641 q 0.33203,0 1.09375,1.2695313 -0.76172,1.2695312 -2.73438,1.2695312 -0.27344,0.5273438 -2.53906,2.1679688 0,0.8007812 -1.44531,1.99218746 -0.17579,0.72265625 -0.72266,0.72265625 v 0.1953125 q 1.58203,3.45703129 1.99219,5.97656249 l -0.17578,0.7226563 q 1.05468,2.4804687 1.62109,2.5390625 0,1.5429687 1.26953,3.2617187 0.72266,1.269531 0.72266,2.734375 l 0.91797,1.796875 q 0.97656,0 1.99218,1.640625 v 0.175781 q 0,0.410157 -1.26953,0.722657 l -0.72265,-0.175782 -1.44532,0.546875 -2.1875,-0.371093 h -3.63281 l -2.89062,0.195312 q -1.09375,-0.429687 -1.09375,-0.722656 V 19.35312 q 0,-0.683593 0.91796,-1.621093 v -1.640625 q 0,-2.441407 -2.1875,-6.1718755 L 258.0332,6.8531203 q 0.44922,-0.15625 2.53907,-4.53125 1.83593,0 3.26171,-4.9023438 v -0.546875 q -0.0391,-0.4101562 -2.16796,-1.9921875 l -0.19532,-1.09375 0.72266,-0.7226562 2.1875,0.1757812 z m 5.64453,32.6562505 q -0.27344,-0.05859 -0.27344,-0.117188 l -0.23437,0.15625 -0.46875,-0.15625 h -0.23438 l -0.23437,0.15625 h -0.39063 l -0.85937,0.07813 -0.0781,-0.07813 h -0.0781 l -0.70313,0.07813 h -0.625 l -1.32812,-0.3125 q -1.09375,0.07813 -1.09375,0.46875 l -0.46875,-0.15625 -0.23438,0.07813 -0.46875,-0.15625 -0.46875,0.07813 q -0.80078,-0.09766 -0.9375,-0.234375 h -1.64062 l -1.09375,0.234375 -1.25,-0.15625 -1.40625,0.07813 -1.64063,-0.234375 q 0,0.214844 -1.17187,0.3125 l -0.3125,-0.07813 h -0.625 l -0.625,-0.234375 -1.01563,0.234375 -0.23437,-0.07813 q -1.01563,0.07813 -1.01563,0.234375 l -0.39062,-0.07813 -0.3125,0.07813 q -0.42969,-0.390625 -1.48438,-0.390625 l -0.15625,0.15625 h -0.0781 l -0.3125,-0.07813 -0.3125,0.15625 -0.625,-0.15625 -1.25,0.234375 -0.54688,-0.3125 -0.46875,0.15625 -0.0781,-0.07813 h -0.0781 l -0.78125,0.07813 -0.70312,-0.234375 q -0.23438,0.15625 -0.58594,0.234375 V 23.10312 l 0.11719,-0.01953 0.625,0.07813 0.46875,-0.15625 h 0.3125 q 0.39062,0 0.78125,0.234375 l 0.70312,-0.07813 q 0,0.09766 0.78125,0.3125 0.41016,-0.09766 0.625,-0.390625 l 0.3125,-0.07813 0.54688,0.07813 0.0781,-0.07813 2.8125,0.234375 0.3125,-0.07813 0.9375,0.234375 0.85938,-0.07813 0.625,0.07813 1.09375,-0.234375 1.32812,0.15625 0.46875,-0.15625 h 0.39063 l 0.625,0.15625 0.23437,-0.15625 h 0.15625 v 0.07813 l 1.79688,-0.15625 1.25,0.234375 q 0.44922,-0.234375 0.9375,-0.234375 0.42969,0.234375 0.85937,0.234375 l 2.42188,-0.390625 1.17187,0.3125 1.25,-0.15625 0.9375,0.15625 0.54688,-0.07813 0.0781,0.07813 h 0.0781 l 0.3125,-0.07813 0.23437,0.07813 0.23438,-0.07813 2.05078,0.214844 z m -0.15625,-35.683594 q -0.23437,-0.03906 -0.60547,-0.292969 h -0.625 l -0.3125,-0.07813 -0.3125,0.07813 -0.9375,-0.15625 q -0.46875,0.46875 -0.9375,0.46875 h -0.23437 q -0.25391,0 -0.54688,-0.234375 h -0.0781 q -0.80078,0.234375 -1.40625,0.234375 l -1.17188,-0.15625 -0.46875,0.07813 -0.39062,-0.07813 -0.0781,0.07813 -2.1875,-0.3125 -1.09375,0.3125 -0.54687,-0.07813 -0.85938,0.15625 -0.46875,-0.234375 -0.0781,0.07813 h -0.0781 l -0.3125,-0.07813 -0.70312,0.234375 -0.23438,-0.234375 -0.39062,0.07813 h -0.78125 l -0.9375,0.07813 -0.15625,-0.15625 -0.15625,0.15625 -0.78125,-0.07813 h -0.70313 l -0.78125,0.390625 -1.25,-0.3125 -0.0781,0.07813 h -0.0781 l -0.625,-0.234375 h -0.85937 l -0.3125,0.15625 -0.3125,-0.15625 -0.70313,0.07813 -0.0781,-0.07813 -0.625,0.15625 h -0.23438 l -0.9375,-0.234375 -0.78125,0.15625 -0.3125,-0.07813 -1.09375,0.234375 -0.0781,-0.07813 h -0.0781 l -0.54687,0.15625 -0.23438,-0.07813 -0.54687,0.15625 -0.15625,-0.058594 v -2.792968 l 0.39062,-0.03906 2.34375,0.46875 0.85938,-0.07813 0.46875,0.15625 h 0.0781 l 0.0781,-0.07813 0.625,0.15625 q 0,-0.175781 1.32812,-0.46875 0.29297,-0.3125 0.625,-0.390625 0.56641,0.546875 1.17188,0.546875 l 0.39062,-0.234375 q 0.17578,0.253906 1.17188,0.46875 l 0.9375,-0.234375 0.85937,0.07813 h 0.39063 l 0.46875,-0.234375 q 0.37109,0.234375 0.70312,0.234375 0.66406,0 1.09375,-0.15625 l 1.71875,0.234375 q 0.11719,-0.3125 0.23438,-0.3125 h 0.70312 l 0.0781,-0.07813 1.01562,0.46875 h 0.0781 l 2.1875,-0.546875 0.39062,0.390625 q 0.46875,0 0.625,0.15625 h 0.23438 l 0.39062,-0.234375 0.0781,0.07813 h 0.15625 q 0.39062,0 0.39062,-0.234375 h 0.23438 v 0.15625 h 0.23437 l 0.23438,-0.234375 q 0.85937,0.07813 1.79687,0.390625 h 0.39063 q 0.54687,0 2.10937,-0.546875 0.70313,0.292969 1.99219,0.3125 z"
       style="font-style:normal;font-variant:normal;font-weight:normal;font-stretch:normal;font-family:'Top Secret';-inkscape-font-specification:'Top Secret';fill:#ff0000"
       id="path76" />
    <path
       inkscape:connector-curvature="0"
       d="m 281.91992,-7.5218797 q 1.75781,0.3515625 1.75781,0.703125 v 0.5273437 q 0,1.328125 -2.10937,1.953125 l -0.72266,2.1289063 q 1.01563,2.65624996 2.12891,2.65624996 0.13672,0.5078125 3.73047,1.40625004 2.73437,2.4804687 4.23828,2.4804687 0,0.3125 1.77734,1.7773438 v 1.2304687 q 0.52735,0 0.52735,0.3515625 l -0.17578,0.7226563 q 0.70312,0.9570312 0.70312,3.1835937 -0.41016,0 -0.70312,3.183594 -1.79688,1.914062 -3.35938,4.433594 -4.02344,1.230468 -5.48828,1.230468 h -0.17578 q -0.3711,0 -0.54688,-1.054687 0.3125,-1.777344 1.60157,-1.777344 1.75781,0 1.95312,-1.601562 v -1.582032 q -0.83984,-3.359375 -4.43359,-3.359375 -0.17578,-0.566406 -3.00782,-1.425781 0,-0.5273437 -2.83203,-1.5820312 Q 275.82617,5.583589 275.37695,5.583589 V 4.6851515 l -1.42578,-1.9335937 0.87891,-1.77734379 -0.52735,-1.77734375 0.52735,-0.17578125 V -1.8578172 q 2.34375,-3.7304688 3.90625,-4.4335938 l 0.17578,0.1953125 h 0.17578 q 0.52734,0 2.83203,-1.4257812 z m 10.27344,0 h 0.17578 q 0.17578,1.2304687 0.52734,1.2304687 l -0.17578,0.8984375 0.17578,1.0546875 -0.52734,1.953125 v 0.1757813 l 0.70313,1.95312496 v 0.52734375 q 0,0.83984379 -1.07422,1.75781249 h -0.87891 V 0.27108901 q -2.10937,-3.39843751 -2.65625,-3.73046871 -2.94922,-1.4453125 -3.35937,-1.9335938 V -5.744536 q 0,-1.4257812 0.70312,-1.4257812 3.45703,0.4882812 4.08203,1.0742187 h 0.70313 q 0,-1.1523437 1.60156,-1.4257812 z m -17.1875,17.34375 h 0.54687 q 0.70313,0.1953127 1.40625,1.9531247 v 0.175782 l -0.17578,0.878906 q 1.15235,0.976562 1.95313,3.730469 v 0.175781 h 0.8789 l 2.83204,2.109375 v 0.898437 q 0,0.527344 -1.95313,0.527344 -0.0977,-0.429687 -1.23047,-0.878906 l -0.17578,0.175781 h -0.17578 q -1.07422,-0.429687 -1.07422,-0.722656 -1.17187,0 -2.10937,1.425781 h -0.54688 l -0.52734,-0.878906 0.17578,-0.898438 -0.35156,-0.351562 v -1.230469 l -0.35157,-1.074219 0.35157,-1.40625 v -1.25 l -0.17579,-0.703125 q 0.23438,-2.6562497 0.70313,-2.6562497 z m 20.99609,-20.0781253 -0.64453,0.05859 -0.23437,-0.07813 -0.23438,0.07813 -0.3125,-0.07813 h -0.0781 l -0.0781,0.07813 -0.54687,-0.07813 -0.9375,0.15625 -1.25,-0.15625 -1.17188,0.3125 -2.42187,-0.390625 q -0.42969,0 -0.85938,0.234375 -0.48828,0 -0.9375,-0.234375 l -1.25,0.234375 -1.79687,-0.15625 v 0.07813 h -0.15625 l -0.23438,-0.15625 -0.625,0.15625 h -0.39062 l -0.46875,-0.15625 -1.32813,0.15625 -1.09375,-0.234375 -0.625,0.07813 -0.85937,-0.07813 -0.9375,0.234375 -0.3125,-0.07813 -2.5,0.214844 v -2.460938 l 0.0781,-0.01953 h 0.0781 l 0.15625,0.15625 q 1.05468,0 1.48437,-0.390625 l 0.3125,0.07813 0.39063,-0.07813 q 0,0.15625 1.01562,0.234375 l 0.23438,-0.07813 1.01562,0.234375 0.625,-0.234375 h 0.625 l 0.3125,-0.07813 q 1.17188,0.09766 1.17188,0.3125 l 1.64062,-0.234375 1.40625,0.07813 1.25,-0.15625 1.09375,0.234375 h 1.64063 q 0.13672,-0.136719 0.9375,-0.234375 l 0.46875,0.07813 0.46875,-0.15625 0.23437,0.07813 0.46875,-0.15625 q 0,0.390625 1.09375,0.46875 l 1.32813,-0.3125 h 0.625 l 0.70312,0.07813 h 0.0781 l 0.0781,-0.07813 0.85938,0.07813 h 0.39062 l 0.0195,0.01953 z m 0,35.585938 q -1.15234,0.03906 -2.46093,0.292969 l -0.85938,-0.3125 -1.01562,0.15625 -0.625,-0.07813 -0.46875,0.15625 h -0.3125 q -0.3711,0 -0.78125,-0.234375 l -0.70313,0.07813 q 0,-0.09766 -0.78125,-0.3125 -0.41016,0.09766 -0.625,0.390625 l -0.3125,0.07813 -0.54687,-0.07813 -0.0781,0.07813 -2.8125,-0.234375 -0.3125,0.07813 -0.9375,-0.234375 -0.85937,0.07813 -0.625,-0.07813 -1.09375,0.234375 -1.32813,-0.15625 -0.46875,0.15625 h -0.39062 l -0.625,-0.15625 -0.23438,0.15625 h -0.15625 v -0.07813 l -1.79687,0.15625 -1.07422,-0.195313 V 23.025 l 0.60547,-0.136718 1.25,0.15625 1.40625,-0.07813 1.64062,0.234375 q 0,-0.214844 1.17188,-0.3125 l 0.3125,0.07813 h 0.625 l 0.625,0.234375 1.01562,-0.234375 0.23438,0.07813 q 1.01562,-0.07813 1.01562,-0.234375 l 0.39063,0.07813 0.3125,-0.07813 q 0.42968,0.390625 1.48437,0.390625 l 0.15625,-0.15625 h 0.0781 l 0.3125,0.07813 0.3125,-0.15625 0.625,0.15625 1.25,-0.234375 0.54687,0.3125 0.46875,-0.15625 0.0781,0.07813 h 0.0781 l 0.78125,-0.07813 0.70313,0.234375 q 0.46875,-0.3125 1.40625,-0.3125 l 0.70312,0.15625 q 0.54688,0 0.85938,-0.15625 l 0.85937,0.07813 h 0.70313 l 0.0781,-0.07813 0.19531,0.03906 z"
       style="font-style:normal;font-variant:normal;font-weight:normal;font-stretch:normal;font-family:'Top Secret';-inkscape-font-specification:'Top Secret';fill:#ff0000"
       id="path78" />
    <path
       inkscape:connector-curvature="0"
       d="m 296.60742,-12.482817 q 0.33203,-0.253906 1.05469,-0.292969 v 0.07813 q 1.01562,0.07813 1.01562,0.3125 v 0.07813 l -0.0781,0.46875 0.23437,0.859375 q -0.13671,0 -0.15625,1.171875 0,0.390625 0.23438,0.46875 l -0.0781,0.078125 0.0781,0.625 q 0,0.234375 -0.3125,0.546875 v 0.078125 h 0.15625 v 0.078125 l -0.23438,0.234375 v 0.15625 q 0.54688,0.703125 0.54688,1.09375 -0.39063,0.8007813 -0.39063,1.171875 l 0.15625,1.328125 -0.15625,0.546875 v 1.09375 l 0.3125,1.48437501 v 0.234375 q 0,0.29296875 -0.54687,1.09375 0.23437,0.62499999 0.23437,1.64062499 l -0.0781,1.5625 0.23437,1.25 -0.23437,0.46875 0.0781,0.234375 -0.0781,0.3125 0.15625,0.625 -0.0781,0.078125 v 0.703125 l 0.0781,0.859375 q -0.15625,0.3125 -0.15625,0.859375 l 0.15625,0.703125 q 0,0.9375 -0.3125,1.40625 l 0.23437,0.703125 -0.0781,0.78125 v 0.07813 l 0.0781,0.07813 -0.15625,0.46875 0.3125,0.546875 -0.23437,1.25 0.15625,0.625 -0.15625,0.3125 0.0781,0.3125 v 0.07813 l -0.15625,0.15625 q 0,1.054688 0.39063,1.484375 l -0.0781,0.3125 0.0781,0.390625 q -0.15625,0 -0.23438,1.015625 l 0.0781,0.234375 -0.23438,1.015625 0.23438,0.625 v 0.625 l 0.0781,0.3125 q -0.0976,1.171875 -0.3125,1.171875 l 0.21485,1.503906 -1.36719,0.07813 v 0.195313 q -0.54687,0.05859 -1.46484,0.09766 l -1.32813,-0.3125 h -0.3125 l -0.0781,0.07813 -0.0781,-0.07813 -0.0391,-2.167969 0.66406,-0.09766 1.09375,0.3125 0.58594,-0.117187 -0.0781,-0.664063 0.23438,-1.09375 -0.0781,-0.625 0.0781,-0.859375 -0.23438,-0.9375 0.0781,-0.3125 -0.23438,-2.8125 0.0781,-0.07813 -0.0781,-0.546875 0.0781,-0.3125 q 0.29297,-0.214844 0.39062,-0.625 -0.21484,-0.78125 -0.3125,-0.78125 l 0.0781,-0.703125 q -0.23438,-0.410156 -0.23438,-0.78125 v -0.3125 l 0.15625,-0.46875 -0.0781,-0.625 0.15625,-1.015625 -0.3125,-0.859375 q 0.3125,-1.640625 0.3125,-3.046875 v -0.07815 l -0.0781,-0.078125 0.0781,-0.078125 -0.0781,-0.625 0.0781,-0.46875 q 0,-0.3125 -0.23438,-0.3125 0,-0.4882812 0.39063,-1.875 l -0.3125,-1.25 V 0.73983901 l 0.0781,-1.09375 -0.0781,-0.234375 q 0.23437,-0.83984371 0.23437,-1.40625001 v -0.390625 l -0.15625,-0.625 v -0.234375 l 0.23438,-1.40625 -0.15625,-0.46875 v -0.078125 l 0.0781,-0.078125 -0.0781,-1.09375 v -0.234375 l 0.0781,-0.390625 -0.0781,-0.078125 0.0781,-0.625 -0.0781,-0.234375 0.0781,-0.3125 q -0.3125,-0.3320312 -0.46875,-1.09375 0.19532,-0.2539062 0.29297,-0.839844 -0.80078,-0.05859 -0.89843,-0.175781 h -0.0781 l -0.0781,0.07813 -0.3125,-0.15625 q 0,0.175781 -0.87891,0.292969 v -2.480469 h 0.0195 l 1.48438,0.07813 0.625,-0.07813 q 0,0.09766 0.41015,0.136719 z"
       style="font-style:normal;font-variant:normal;font-weight:normal;font-stretch:normal;font-family:'Top Secret';-inkscape-font-specification:'Top Secret';fill:#ff0000"
       id="path80" />
  </g>
</svg>
