<?xml version="1.0" encoding="UTF-8" standalone="no"?>
<svg
   xmlns:dc="http://purl.org/dc/elements/1.1/"
   xmlns:cc="http://creativecommons.org/ns#"
   xmlns:rdf="http://www.w3.org/1999/02/22-rdf-syntax-ns#"
   xmlns:svg="http://www.w3.org/2000/svg"
   xmlns="http://www.w3.org/2000/svg"
   xmlns:sodipodi="http://sodipodi.sourceforge.net/DTD/sodipodi-0.dtd"
   xmlns:inkscape="http://www.inkscape.org/namespaces/inkscape"
   width="491.62643"
   height="122.39523"
   viewBox="0 0 491.62643 122.39523"
   version="1.1"
   id="svg26"
   sodipodi:docname="genesis.svg"
   style="fill:none"
   inkscape:version="1.0.1 (1.0.1+r73)">
  <metadata
     id="metadata32">
    <rdf:RDF>
      <cc:Work
         rdf:about="">
        <dc:format>image/svg+xml</dc:format>
        <dc:type
           rdf:resource="http://purl.org/dc/dcmitype/StillImage" />
        <dc:title />
      </cc:Work>
    </rdf:RDF>
  </metadata>
  <defs
     id="defs30" />
  <sodipodi:namedview
     pagecolor="#ffffff"
     bordercolor="#666666"
     borderopacity="1"
     objecttolerance="10"
     gridtolerance="10"
     guidetolerance="10"
     inkscape:pageopacity="0"
     inkscape:pageshadow="2"
     inkscape:window-width="1366"
     inkscape:window-height="740"
     id="namedview28"
     showgrid="false"
     inkscape:pagecheckerboard="true"
     inkscape:zoom="1.1765981"
     inkscape:cx="234.07047"
     inkscape:cy="15.650716"
     inkscape:window-x="0"
     inkscape:window-y="0"
     inkscape:window-maximized="1"
     inkscape:current-layer="svg26"
     inkscape:document-rotation="0" />
  <path
     d="m 118.74701,0 c 5.09712,0 9.35961,2.875682 11.27415,7.017785 l 0.12369,0.278003 13.53895,40.39052 -62.688812,-0.0073 c -3.830737,0 -7.316399,-1.476439 -9.926593,-3.884161 l -0.276786,-0.261508 v 4.141823 l -22.382619,0.0042 c -5.628551,0 -10.507709,-3.177175 -12.942767,-7.822058 l -0.152061,-0.298405 -0.06184,0.17763 c -2.019515,4.238692 -7.755433,7.790044 -13.615246,7.934518 L 21.28535,47.675247 3e-6,47.679047 v -19.19952 l 4.7631222,0.0073 C 1.9507487,25.555116 0.0435841,21.597575 0.0435841,17.233949 0.0544671,7.921816 7.3565503,0.851264 16.326883,0.689631 l 0.328964,-0.0028 21.12632,-0.0182 V 5.264593 C 40.35224,2.556854 43.991211,0.802265 48.007165,0.691884 l 0.40276,-0.0055 h 22.415152 l -0.0077,4.080618 c 2.529538,-2.466135 5.932778,-3.990646 9.7262,-4.092852 l 0.407853,-0.0055 21.89213,0.01102 0.0178,19.85373 4.51277,-13.157108 C 109.15459,3.103113 113.55844,2.6e-5 118.74702,2.6e-5 Z M 34.500431,10.937181 H 16.572489 l -0.235317,0.0044 c -3.357507,0.123998 -6.050849,2.889994 -6.050849,6.270784 0,3.384115 2.692823,6.139717 6.050849,6.263196 l 5.170394,0.07016 c 4.090893,0.132001 7.360885,3.472982 7.360885,7.575724 0,4.105548 -3.269473,7.454013 -7.360885,7.586326 l -0.251426,0.0042 H 3.2956225 l -0.00718,5.682183 17.9495105,-0.01819 0.318362,-0.0042 c 7.196558,-0.168484 12.97665,-6.035364 12.97665,-13.24003 0,-7.218906 -5.780092,-13.08641 -12.976651,-13.254997 l -0.318362,-0.0037 -4.661616,0.02547 -0.09833,-0.0074 c -0.320752,-0.04802 -0.56698,-0.327612 -0.56698,-0.664579 0,-0.337071 0.246228,-0.617079 0.56698,-0.665203 l 0.09833,-0.0073 17.916925,0.0038 z M 48.449213,3.982434 h 19.159295 v 5.63145 l -19.159295,-0.0033 -0.232613,0.0047 c -2.932297,0.118073 -5.310709,2.457394 -5.427847,5.328991 l -0.0045,0.222115 v 17.930749 l 0.0047,0.236459 c 0.120152,2.978446 2.500435,5.295742 5.433461,5.409762 l 0.226792,0.0042 19.075418,-0.0062 0.0038,5.617534 -19.079263,-0.0073 -0.300796,-0.0042 C 42.152653,44.190564 37.324424,39.373041 37.16779,33.397337 L 37.16389,33.09758 V 15.22805 l 0.0039,-0.299653 C 37.324424,8.953286 42.152653,4.142477 48.148417,3.986342 Z m 70.293637,-0.657595 -0.29622,0.0045 c -3.83011,0.11534 -7.03868,2.460762 -8.14562,5.667123 l -0.0821,0.254897 -10.642305,31.209537 1.01e-4,-22.583738 H 83.62919 v 5.613792 h 10.311786 v 15.242363 h -12.90618 l -0.226066,-0.0042 c -2.922319,-0.116202 -5.288882,-2.47445 -5.408306,-5.399679 l -0.0048,-0.232094 V 15.227635 l 0.0045,-0.226481 c 0.115683,-2.92762 2.464056,-5.268313 5.387831,-5.386428 l 0.231989,-0.0047 H 99.576695 V 3.982434 H 80.976798 l -0.300589,0.0039 C 74.683044,4.142428 69.854919,8.953237 69.698182,14.928348 l -0.0038,0.299653 v 17.86953 l 0.004,0.299757 c 0.157985,5.975704 5.026958,10.793227 11.021058,10.949653 l 0.300589,0.0042 18.556767,0.0073 -1e-4,-0.0052 4.643014,9.35e-4 11.62026,-34.122065 0.08,-0.175551 c 0.5093,-1.035867 1.57362,-1.750294 2.81256,-1.750294 1.2327,0 2.30119,0.714427 2.81568,1.744182 l 0.08,0.174481 9.67558,28.508284 H 116.3201 v 5.620443 h 22.80294 l -11.85931,-35.088532 -0.08,-0.248796 c -1.09758,-3.210591 -4.31342,-5.56809 -8.1373,-5.68687 z m -1.6734,7.377234 c 0.28583,-0.641723 0.92713,-1.091068 1.67756,-1.091068 0.80344,0 1.48943,0.515824 1.73265,1.231384 l 9.0083,26.611645 h -13.19077 l 0.0114,-5.004715 0.42614,-1.25557 h 3.98498 l -1.98417,-5.897231 -2.00081,5.897231 h -0.42302 l -0.003,1.25557 -4.03695,11.904427 h -6.64891 l 11.39056,-33.511357 z m -17.493684,0.220245 -18.556769,0.0038 -0.214736,0.0053 c -2.205147,0.108407 -3.973547,1.876807 -4.081954,4.081851 l -0.0052,0.214735 9.36e-4,17.86901 0.0053,0.215152 c 0.108304,2.210032 1.876704,3.98789 4.081851,4.096817 l 0.214736,0.0052 H 92.610883 V 24.820378 h -8.967765 v 5.632397 h 3.328197 l 0.0105,1.322403 H 83.66848 l -0.133871,-0.0073 c -0.616975,-0.06392 -1.111305,-0.563863 -1.174498,-1.181463 l -0.0068,-0.13408 -0.02973,-12.579504 c 0.0023,-0.110694 0.05176,-1.1983 1.15631,-1.328431 l 0.17368,-0.01206 H 99.582895 Z M 16.576335,3.982434 h 17.916924 l 0.0072,5.642468 -17.927943,0.0038 -0.25101,0.0041 c -4.084345,0.132157 -7.3575265,3.477317 -7.3575265,7.579123 0,4.113032 3.2731815,7.457963 7.3575265,7.590068 l 5.1706,0.05914 c 3.367589,0.123374 6.053553,2.875754 6.053553,6.25987 0,3.387753 -2.685964,6.143459 -6.053553,6.266937 l -0.235939,0.0042 H 3.2956225 l -0.00718,-5.602775 17.9240455,-0.01434 0.09458,-0.0073 c 0.309631,-0.04573 0.55586,-0.312333 0.55586,-0.636204 0,-0.330107 -0.246229,-0.597539 -0.55586,-0.643479 l -0.09458,-0.0073 -4.636152,-0.0073 -0.31805,-0.0042 C 9.0688345,30.302169 3.2812582,24.438511 3.2812582,17.226777 c 0,-7.211806 5.7875763,-13.072264 12.9770268,-13.240622 z M 63.531751,24.82755 H 44.150652 v 8.27003 c 0,2.297548 1.810911,4.167703 4.084137,4.278917 l 0.214424,0.0052 19.075002,-0.0073 0.0038,-5.592173 -16.434874,-2.08e-4 c -0.104353,-0.0031 -1.202873,-0.0607 -1.322298,-1.156621 l -0.01029,-0.172641 H 63.531751 Z M 48.449213,10.926163 h 19.159295 v 5.639153 H 51.101605 l -0.172329,0.0079 c -0.932322,0.08793 -1.120762,0.888046 -1.1587,1.18957 l -0.0096,0.114332 h 13.771153 v 5.613791 H 44.151172 l 0.0067,-8.262858 0.0053,-0.214735 c 0.111005,-2.276241 1.978354,-4.087152 4.286088,-4.087152 z"
     id="path2"
     inkscape:connector-curvature="0"
     style="clip-rule:evenodd;fill:#ffffff;fill-rule:evenodd;stroke-width:1.03938" />
  <path
     d="m 137.63461,7.289073 c -0.74939,0.744757 -1.74823,1.159054 -2.80944,1.159054 -1.05705,0 -2.05277,-0.414297 -2.79801,-1.158575 -0.75563,-0.751939 -1.1693,-1.74384 -1.1693,-2.804703 0,-2.180161 1.78357,-3.949871 3.96731,-3.949871 1.06121,0 2.06005,0.414288 2.80944,1.155219 0.74732,0.751939 1.16619,1.740492 1.16619,2.794174 0,1.060863 -0.41887,2.052753 -1.16619,2.804702 z m -5.21872,-5.21045 c -0.64961,0.64322 -0.99884,1.500531 -0.99884,2.40527 0,0.911909 0.34819,1.765864 0.99884,2.408616 0.64649,0.64322 1.50398,0.995725 2.40928,0.995725 1.88647,0 3.41956,-1.525923 3.41956,-3.404341 0,-0.904739 -0.35651,-1.76205 -0.99988,-2.40527 -0.6465,-0.642752 -1.50399,-0.9919 -2.41968,-0.9919 -0.90426,0 -1.76175,0.34867 -2.40928,0.9919 z"
     id="path4"
     inkscape:connector-curvature="0"
     style="clip-rule:evenodd;fill:#ffffff;fill-rule:evenodd;stroke-width:1.03938" />
  <path
     d="m 133.80762,6.685599 v -1.8674 h 1.13396 l 1.20256,1.8674 h 0.69431 l -1.23582,-1.90381 c 0.006,-0.0014 0.0135,-0.0028 0.0218,-0.0045 0.24218,-0.04853 1.02483,-0.205714 1.02483,-1.198186 0,-0.407104 -0.13824,-0.773985 -0.46876,-1.017761 -0.33572,-0.253515 -0.68911,-0.25761 -1.28571,-0.264522 -0.0104,-1.04e-4 -0.0198,-2.18e-4 -0.0301,-3.43e-4 h -1.63079 v 4.38906 z m 1.16618,-2.35066 h -1.16618 V 2.783634 h 1.13396 c 0.0114,0 0.0239,-1e-5 0.0353,-2.1e-5 0.32221,-2.39e-4 0.60076,-4.46e-4 0.82215,0.185374 0.25049,0.203552 0.26192,0.497623 0.26192,0.614003 0,0.319463 -0.14551,0.610178 -0.55191,0.708368 -0.17461,0.04358 -0.34923,0.04358 -0.53528,0.04358 z"
     id="path6"
     inkscape:connector-curvature="0"
     style="clip-rule:evenodd;fill:#ffffff;fill-rule:evenodd;stroke-width:1.03938" />
  <path
     d="m 316.11891,91.697996 h 48.00582 v 19.105044 l -17.14145,11.5922 h -52.98963 l 17.55407,-11.7585 h 31.02132 v -7.18253 H 294.56323 V 84.754946 l 17.72037,-11.99839 h 52.90441 l -17.47508,11.75299 h -31.59402 z"
     id="path8"
     inkscape:connector-curvature="0"
     style="clip-rule:evenodd;fill:#ffffff;fill-rule:evenodd;stroke-width:1.03938" />
  <path
     d="m 370.82249,72.756556 h 21.55257 v 49.638684 h -21.55257 z"
     id="path10"
     inkscape:connector-curvature="0"
     style="clip-rule:evenodd;fill:#ffffff;fill-rule:evenodd;stroke-width:1.03938" />
  <path
     d="m 422.2541,91.697996 h 48.00685 v 19.105044 l -17.14872,11.5922 h -52.9834 l 17.55408,-11.7585 h 31.02547 v -7.18253 H 400.70153 V 84.754946 l 17.71518,-11.99839 h 52.90752 l -17.47612,11.75299 H 422.2541 Z"
     id="path12"
     inkscape:connector-curvature="0"
     style="clip-rule:evenodd;fill:#ffffff;fill-rule:evenodd;stroke-width:1.03938" />
  <path
     d="m 247.86807,110.63674 v -7.18253 h 20.64935 L 286.0715,91.697996 h -38.20343 v -7.18845 h 31.10031 l 17.47508,-11.75299 h -51.35365 l -18.77743,11.51404 v 38.124644 h 52.25376 l 17.63203,-11.7585 z"
     id="path14"
     inkscape:connector-curvature="0"
     style="clip-rule:evenodd;fill:#ffffff;fill-rule:evenodd;stroke-width:1.03938" />
  <path
     d="m 96.991035,110.63674 v -7.18253 H 117.64735 L 135.19831,91.697996 H 96.991035 v -7.18845 h 31.103115 l 17.47301,-11.75299 H 94.21319 l -18.774725,11.51404 v 38.124644 h 52.250325 l 17.63619,-11.7585 z"
     id="path16"
     inkscape:connector-curvature="0"
     style="clip-rule:evenodd;fill:#ffffff;fill-rule:evenodd;stroke-width:1.03938" />
  <path
     d="M 198.71686,105.90445 171.93829,89.247346 V 122.39524 H 150.38364 V 72.756556 h 21.87894 l 26.45428,14.53084 v -14.53084 h 21.55569 v 49.638684 h -21.55569 z"
     id="path18"
     inkscape:connector-curvature="0"
     style="clip-rule:evenodd;fill:#ffffff;fill-rule:evenodd;stroke-width:1.03938" />
  <path
     d="m 21.552467,84.509546 v 26.127194 h 26.777841 v -7.18253 H 26.450645 L 43.922924,91.697996 h 25.963072 v 19.595634 l -16.49391,11.10161 H 0 V 84.842976 l 17.878156,-12.08642 h 58.456981 l -17.390479,11.75299 z"
     id="path20"
     inkscape:connector-curvature="0"
     style="clip-rule:evenodd;fill:#ffffff;fill-rule:evenodd;stroke-width:1.03938" />
  <path
     d="m 478.63419,86.268486 v -7.07661 h -2.59845 v -1.23842 h 6.75597 v 1.23842 h -2.94456 v 7.07661 z"
     id="path22"
     inkscape:connector-curvature="0"
     style="fill:#ffffff;stroke-width:1.03938" />
  <path
     d="m 483.48497,86.268486 v -8.31503 h 2.07876 l 2.07876,6.72281 2.07876,-6.72281 h 1.90518 v 8.31503 h -1.21295 v -7.07661 l -2.07876,7.07661 h -1.21192 l -2.25233,-7.07661 v 7.07661 z"
     id="path24"
     inkscape:connector-curvature="0"
     style="fill:#ffffff;stroke-width:1.03938" />
</svg>
