<?xml version="1.0" encoding="UTF-8" standalone="no"?>
<svg
   xmlns:dc="http://purl.org/dc/elements/1.1/"
   xmlns:cc="http://creativecommons.org/ns#"
   xmlns:rdf="http://www.w3.org/1999/02/22-rdf-syntax-ns#"
   xmlns:svg="http://www.w3.org/2000/svg"
   xmlns="http://www.w3.org/2000/svg"
   xmlns:sodipodi="http://sodipodi.sourceforge.net/DTD/sodipodi-0.dtd"
   xmlns:inkscape="http://www.inkscape.org/namespaces/inkscape"
   width="500"
   height="200"
   viewBox="0 0 500 200"
   version="1.1"
   id="svg68"
   sodipodi:docname="gx4000.svg"
   style="fill:none"
   inkscape:version="0.92.5 (2060ec1f9f, 2020-04-08)">
  <metadata
     id="metadata74">
    <rdf:RDF>
      <cc:Work
         rdf:about="">
        <dc:format>image/svg+xml</dc:format>
        <dc:type
           rdf:resource="http://purl.org/dc/dcmitype/StillImage" />
        <dc:title />
      </cc:Work>
    </rdf:RDF>
  </metadata>
  <defs
     id="defs72" />
  <sodipodi:namedview
     pagecolor="#ffffff"
     bordercolor="#666666"
     borderopacity="1"
     objecttolerance="10"
     gridtolerance="10"
     guidetolerance="10"
     inkscape:pageopacity="0"
     inkscape:pageshadow="2"
     inkscape:window-width="1366"
     inkscape:window-height="743"
     id="namedview70"
     showgrid="false"
     inkscape:pagecheckerboard="true"
     inkscape:zoom="1.5179571"
     inkscape:cx="213.21262"
     inkscape:cy="53.69018"
     inkscape:window-x="0"
     inkscape:window-y="0"
     inkscape:window-maximized="1"
     inkscape:current-layer="svg68" />
  <path
     style="fill:#ffffff;stroke-width:0.72290927"
     d="M 116.73633 24.396484 L 116.73633 174.87891 L 432.96094 174.87891 L 432.96094 24.396484 L 116.73633 24.396484 z M 158.07812 39.466797 C 159.34963 39.558832 160.58285 40.076675 161.61914 41.017578 C 162.87411 42.162956 163.80138 43.636466 164.81055 45.027344 C 165.2472 45.627358 165.51903 46.363741 165.98242 47.291016 C 167.2916 44.700182 168.52056 42.325786 169.74805 39.953125 C 169.80225 39.980385 169.85523 39.980573 169.91016 40.007812 L 169.91016 76.826172 C 169.85526 76.853422 169.80091 76.853609 169.77344 76.880859 C 169.5009 75.817243 169.22957 74.780415 168.95703 73.716797 C 167.04785 65.971549 165.22088 58.225736 163.17578 50.507812 C 162.65744 48.51692 161.72954 46.554076 160.63867 44.835938 C 158.64778 41.672415 155.70217 41.864018 153.79297 45.109375 C 152.4021 47.509289 151.88318 50.180938 151.44727 52.880859 C 150.41061 59.017058 150.05781 65.235092 149.75781 71.453125 C 149.02115 87.079966 149.1844 102.70745 149.32031 118.36133 C 149.37521 125.66994 149.72964 132.97849 150.11133 140.28711 C 150.30219 144.07804 150.7393 147.89659 151.9668 151.52344 C 152.37597 152.72345 152.86519 153.92304 153.54688 154.95898 C 154.99198 157.11398 157.5844 157.30524 159.13867 155.17773 C 160.12111 153.8418 160.80237 152.15022 161.23828 150.54102 C 162.19325 146.99589 162.16602 143.34167 162.16602 139.71484 C 162.16602 125.72438 162.16586 111.70726 162.19336 97.716797 C 162.19336 96.789307 161.91916 96.215626 161.10156 95.751953 C 159.65574 94.879256 158.26562 93.870059 156.92969 92.724609 L 171.41016 92.724609 L 171.41016 159.56836 C 171.32856 159.59586 171.22036 159.62277 171.13867 159.67773 C 169.31115 154.41424 167.45607 149.12441 165.54688 143.64258 C 165.08348 146.34264 164.72927 148.76986 164.21094 151.16992 C 163.74756 153.35166 162.8755 155.42286 161.42969 157.16797 C 158.7571 160.4131 154.88457 160.76959 151.93945 157.76953 C 150.38519 156.16033 149.04838 154.25067 148.01172 152.25977 C 145.09406 146.77795 143.51233 140.80632 142.20312 134.75195 C 140.29393 125.72499 139.20236 116.53448 138.90234 107.26172 C 138.87564 106.71592 138.73989 106.19802 138.6582 105.67969 L 138.6582 94.197266 C 138.76735 93.13365 138.90208 92.044086 138.95703 90.980469 C 139.74789 77.617202 141.6576 64.443517 146.62109 51.898438 C 147.82041 48.898508 149.0485 45.899625 151.12109 43.390625 C 152.02112 42.299755 153.11051 41.263519 154.31055 40.472656 C 155.49684 39.709047 156.80662 39.374761 158.07812 39.466797 z M 302.73438 39.472656 C 304.66048 39.428342 306.6104 40.486183 308.42383 42.654297 C 311.01471 45.736059 312.43325 49.445358 313.6875 53.181641 C 315.84176 59.563269 317.01554 66.162116 317.86133 72.84375 C 319.30643 84.325212 319.77084 95.834917 319.44336 107.37109 C 319.06168 119.91573 317.94337 132.37968 314.28906 144.46094 C 313.17072 148.19767 311.77919 151.8507 309.48828 155.06836 C 308.61574 156.29585 307.52426 157.49633 306.32422 158.42383 C 303.84247 160.33231 300.87084 160.30514 298.60742 158.20508 C 297.16159 156.86842 295.93485 155.23203 294.95312 153.51367 C 292.22559 148.74103 290.83475 143.47812 289.79883 138.10547 C 287.34383 125.45166 286.33303 112.60611 286.22461 95.806641 C 286.5246 91.552175 286.85159 83.426027 287.66992 75.353516 C 288.48826 67.226498 289.93479 59.180817 292.77148 51.462891 C 293.88911 48.435711 295.19662 45.489271 297.1875 42.898438 C 298.90586 40.662154 300.80827 39.516971 302.73438 39.472656 z M 348.49805 39.472656 C 350.42415 39.428342 352.37371 40.486183 354.1875 42.654297 C 356.77839 45.736059 358.19621 49.445358 359.45117 53.181641 C 361.60545 59.563269 362.77724 66.162116 363.62305 72.84375 C 365.06813 84.325212 365.53183 95.834913 365.20508 107.37109 C 364.82339 119.91573 363.70509 132.37968 360.05078 144.46094 C 358.93245 148.19767 357.54284 151.8507 355.25195 155.06836 C 354.3794 156.29585 353.28791 157.49633 352.08789 158.42383 C 349.60614 160.33231 346.63255 160.30514 344.36914 158.20508 C 342.92332 156.86842 341.69726 155.23203 340.71484 153.51367 C 337.98802 148.74103 336.59721 143.47812 335.56055 138.10547 C 333.10628 125.45166 332.06998 112.60611 331.98828 95.806641 C 332.28829 91.552175 332.61525 83.426027 333.43359 75.353516 C 334.25119 67.226498 335.69723 59.180817 338.5332 51.462891 C 339.65154 48.435711 340.96028 45.489272 342.95117 42.898438 C 344.66917 40.662154 346.57195 39.516971 348.49805 39.472656 z M 394.23242 39.472656 C 396.15843 39.428342 398.10846 40.486183 399.92188 42.654297 C 402.51279 45.736059 403.9313 49.445358 405.18555 53.181641 C 407.34055 59.563269 408.51234 66.162116 409.35742 72.84375 C 410.80323 84.325212 411.26691 95.834909 410.93945 107.37109 C 410.55774 119.91573 409.43947 132.37968 405.78516 144.46094 C 404.66755 148.19767 403.27721 151.8507 400.98633 155.06836 C 400.11305 156.29585 399.0223 157.49633 397.82227 158.42383 C 395.34053 160.33231 392.36695 160.30514 390.10352 158.20508 C 388.65844 156.86842 387.43091 155.23203 386.44922 153.51367 C 383.72239 148.74103 382.33158 143.47812 381.29492 138.10547 C 378.86741 125.45166 377.83182 112.60611 377.72266 95.806641 C 378.02267 91.552175 378.35035 83.426027 379.16797 75.353516 C 379.9863 67.226498 381.43161 59.180817 384.26758 51.462891 C 385.38592 48.435711 386.69466 45.489273 388.68555 42.898438 C 390.40354 40.662154 392.30641 39.516971 394.23242 39.472656 z M 181.52734 40.826172 L 202.33789 40.826172 C 202.36459 40.880742 202.39107 40.935747 202.44531 41.017578 C 201.02769 41.944855 199.63722 42.953386 198.19141 43.798828 C 197.34634 44.317011 197.1828 44.86383 197.40039 45.818359 C 200.31876 58.527032 203.18135 71.262049 206.07227 83.998047 C 206.18142 84.407069 206.31875 84.842876 206.70117 85.279297 C 209.94631 71.725109 213.19164 58.198539 216.4375 44.589844 C 214.66421 43.389887 212.94598 42.244499 210.95508 40.908203 L 225.92773 40.908203 C 224.83685 41.644558 223.93679 42.380257 222.95508 42.898438 C 221.12757 43.825642 220.2544 45.245526 219.79102 47.263672 C 216.10924 62.535998 212.26347 77.780407 208.5 93.052734 C 208.3359 93.679931 208.36339 94.388358 208.5 95.015625 C 212.86348 114.51523 217.28091 133.9873 221.67188 153.48633 C 221.86271 154.38636 222.24612 155.01501 223.06445 155.50586 C 224.53701 156.37841 225.92761 157.36017 227.29102 158.47852 L 206.3457 158.47852 C 207.92743 157.44188 209.20874 156.48617 210.59961 155.69531 C 211.69049 155.09529 211.93672 154.46921 211.63672 153.1875 C 208.36411 138.86956 205.20082 124.5523 201.98242 110.23438 C 201.90082 109.85268 201.76425 109.44235 201.4375 109.0332 C 201.16424 110.01491 200.86419 110.97072 200.61914 111.95312 C 197.10073 125.69778 193.5555 139.41549 190.03711 153.16016 C 189.62866 154.76935 189.62912 154.76965 191.07422 155.72461 C 192.35593 156.5697 193.63642 157.41526 195.19141 158.45117 L 180.32812 158.45117 C 181.41899 157.71526 182.2916 156.97718 183.30078 156.48633 C 185.23745 155.53209 186.11058 154.06038 186.62891 151.93359 C 190.80154 135.1339 195.08161 118.38744 199.33594 101.61523 C 199.47185 101.04196 199.49981 100.36173 199.39062 99.761719 C 195.38208 81.871594 191.42684 64.007603 187.5 46.117188 C 187.25494 44.971812 186.73771 44.18011 185.72852 43.607422 C 184.36511 42.816559 183.08234 41.889788 181.52734 40.826172 z M 257.23633 40.826172 L 267.73438 40.826172 C 259.57995 67.00727 251.48117 93.080629 243.35352 119.26172 L 257.28906 119.26172 L 257.28906 117.65234 C 257.28906 111.46206 257.31672 105.29842 257.26172 99.107422 C 257.26172 98.12572 257.58985 97.553481 258.4082 97.035156 C 260.72585 95.61688 262.99035 94.087872 265.28125 92.615234 C 265.66295 92.369733 266.04465 92.180686 266.61719 91.826172 L 266.61719 119.26172 L 274.60742 119.26172 L 274.60742 123.08008 L 266.72656 123.08008 C 266.69906 123.73431 266.61719 124.27853 266.61719 124.79688 C 266.61719 134.28794 266.64484 143.80651 266.58984 153.29688 C 266.58984 154.38774 266.94433 155.04281 267.87109 155.58789 C 269.26197 156.43369 270.59783 157.3603 272.20703 158.45117 L 251.69922 158.45117 C 253.28095 157.38778 254.67138 156.4044 256.11719 155.55859 C 256.98975 155.04099 257.31641 154.4136 257.31641 153.37695 C 257.26141 143.83165 257.28906 134.28748 257.28906 124.74219 L 257.28906 123.1875 L 240 123.1875 C 245.78181 95.534056 251.50872 68.179976 257.23633 40.826172 z M 302.69727 42.558594 C 301.73589 42.585865 300.77539 43.090393 300.10742 44.044922 C 299.50741 44.917619 298.93499 45.953855 298.74414 46.962891 C 298.19835 49.990074 297.62443 53.0451 297.43359 56.099609 C 297.02442 62.753917 296.66945 69.435554 296.61523 76.117188 C 296.45186 89.071359 296.45164 101.99737 296.50586 114.95117 C 296.53336 126.02396 296.56028 137.12472 297.95117 148.14258 C 298.22443 150.27012 298.85136 152.36883 299.56055 154.44141 C 299.99718 155.72313 301.06062 156.62351 302.5332 156.67773 C 304.0607 156.73273 305.01507 155.83299 305.64258 154.60547 C 306.18837 153.51461 306.68045 152.36859 306.98047 151.19531 C 308.39809 145.79591 308.64312 140.26064 308.83398 134.72461 C 309.16145 123.35252 309.29777 111.95312 309.57031 98.371094 C 309.35271 87.489939 309.21581 74.45211 308.80664 61.443359 C 308.67074 57.025299 307.90586 52.607622 307.16992 48.244141 C 306.92415 46.744178 306.16161 45.217337 305.28906 43.935547 C 304.62073 42.981017 303.65864 42.531322 302.69727 42.558594 z M 348.43359 42.558594 C 347.47221 42.585865 346.50976 43.090393 345.8418 44.044922 C 345.24179 44.917619 344.6701 45.953855 344.47852 46.962891 C 343.93345 49.990074 343.36075 53.0451 343.16992 56.099609 C 342.76074 62.753917 342.40578 69.435554 342.35156 76.117188 C 342.18817 89.071359 342.18796 101.99737 342.24219 114.95117 C 342.26969 126.02396 342.2966 137.12472 343.6875 148.14258 C 343.96076 150.27012 344.58768 152.36883 345.29688 154.44141 C 345.7335 155.72313 346.79696 156.62351 348.26953 156.67773 C 349.79704 156.73273 350.75143 155.83299 351.37891 154.60547 C 351.92398 153.51461 352.41484 152.36859 352.71484 151.19531 C 354.13248 145.79591 354.37947 140.26064 354.57031 134.72461 C 354.89779 123.35252 355.03215 111.95312 355.30469 98.371094 C 355.08709 87.489939 354.95019 74.45211 354.54102 61.443359 C 354.40439 57.025299 353.64217 52.607622 352.90625 48.244141 C 352.66046 46.744178 351.89599 45.217337 351.02344 43.935547 C 350.35511 42.981017 349.39497 42.531322 348.43359 42.558594 z M 394.19531 42.558594 C 393.23402 42.585865 392.27184 43.090393 391.60352 44.044922 C 391.0035 44.917619 390.43108 45.953855 390.24023 46.962891 C 389.69443 49.990074 389.12249 53.0451 388.93164 56.099609 C 388.52246 62.753917 388.16822 69.435554 388.11328 76.117188 C 387.9499 89.07136 387.9497 101.99737 388.00391 114.95117 C 388.03141 126.02396 388.05829 137.12472 389.44922 148.14258 C 389.72175 150.27012 390.34942 152.36883 391.05859 154.44141 C 391.4945 155.72313 392.55868 156.62351 394.03125 156.67773 C 395.55802 156.73273 396.51385 155.83299 397.14062 154.60547 C 397.6864 153.51461 398.17656 152.36859 398.47656 151.19531 C 399.89491 145.79591 400.13922 140.26064 400.33008 134.72461 C 400.65755 123.35252 400.79584 111.95312 401.06836 98.371094 C 400.85005 87.489939 400.71313 74.45211 400.30469 61.443359 C 400.16805 57.025299 399.4046 52.607622 398.66797 48.244141 C 398.42216 46.744178 397.65772 45.217337 396.78516 43.935547 C 396.11683 42.981017 395.1566 42.531322 394.19531 42.558594 z "
     id="rect52" />
  <path
     d="m 99.30512,167.0372 -7.71691,-0.58411 v -3.19599 l 7.71691,-0.64265 v -7.8855 l -39.035002,4.94253 v 10.1894 l 39.035002,5.01844 z m -14.1581,-3.31815 v 2.27209 l -15.169244,-1.15159 z m -24.876902,-21.8579 v 10.98533 H 99.30512 v -7.51463 H 77.074578 L 99.30512,142.22261 V 137.3437 L 77.196026,134.35808 H 99.30512 v -7.51536 H 60.270118 v 11.00195 l 17.242036,2.04367 z m 4.750481,-16.38617 c 2.690568,0.004 5.379501,0.0354 8.070025,0.0145 0.439963,-0.0152 0.879998,-0.0412 1.196054,-0.0673 0.666016,-0.0557 0.869515,-0.10918 1.301454,-0.21978 0.427095,-0.1135 0.96118,-0.30651 1.43418,-0.61013 0.225981,-0.14242 0.440756,-0.30145 0.70057,-0.53929 0.259814,-0.23856 0.564665,-0.55375 0.848551,-0.88774 0.592858,-0.68603 1.051327,-1.43279 1.447047,-2.1839 0.90653,-1.63956 1.80178,-3.26755 2.72031,-4.91939 0.14075,-0.21978 0.25743,-0.45544 0.485,-0.68821 0.54536,-0.56677 1.17841,-0.56604 1.78407,-0.55736 l 0.84298,-0.0326 5.28534,-0.0116 c 0.3861,-0.005 0.76736,0.0311 1.17674,0.2176 0.24674,0.13085 0.43534,0.34989 0.52859,0.61303 0.0933,0.26386 0.0843,0.55229 -0.025,0.80893 -0.0537,0.12796 -0.13027,0.24506 -0.22606,0.34555 -0.40295,0.41712 -0.97405,0.36869 -1.46309,0.42941 l -7.95425,0.002 v 8.30838 l 8.90661,-0.008 c 1.0931,-0.007 2.1291,-0.0138 3.20046,-0.25012 0.5518,-0.12723 1.12607,-0.3311 1.63927,-0.63906 0.51478,-0.30796 0.9684,-0.72002 1.32314,-1.20292 0.35394,-0.4829 0.60891,-1.03592 0.75934,-1.474 0.15123,-0.43737 0.19945,-0.75907 0.23806,-1.08148 0.0386,-0.32169 0.0812,-0.64266 0.0812,-0.96508 V 111.435 c 0,-0.38169 0.017,-0.76483 -0.11343,-1.23689 -0.14834,-0.53424 -0.37265,-1.04389 -0.666,-1.5145 -0.30804,-0.48363 -0.69169,-0.89134 -1.10433,-1.17256 -0.41183,-0.28194 -0.8518,-0.43591 -1.24919,-0.56893 -0.39572,-0.13373 -0.75044,-0.24434 -1.22257,-0.3253 -0.4722,-0.0825 -1.06174,-0.13374 -1.65294,-0.16194 -0.59039,-0.0289 -1.18159,-0.0144 -1.77199,-0.0144 H 85.2837 c -0.1174,0 -0.23567,0 -0.49946,0.003 -0.26465,0.003 -0.67563,0.008 -1.14538,0.0268 -0.46974,0.0174 -0.99819,0.0499 -1.33926,0.0787 -0.37403,0.0245 -0.74416,0.0911 -1.10359,0.19807 -0.19186,0.0535 -0.37866,0.12435 -0.55823,0.21038 -0.33623,0.15686 -0.66002,0.33831 -0.96841,0.54435 -0.342803,0.23204 -0.658282,0.50242 -0.940289,0.80531 -0.2815,0.3029 -0.527651,0.63689 -0.782621,1.00847 -0.540808,0.79591 -1.046412,1.61425 -1.515363,2.45428 l -1.924818,3.52707 c -0.114726,0.21326 -0.238199,0.42145 -0.369986,0.62458 -0.116459,0.17495 -0.238271,0.347 -0.365212,0.51543 -0.161644,0.2111 -0.182608,0.21254 -0.276658,0.30146 -0.04027,0.0347 -0.08046,0.0687 -0.176174,0.12723 -0.211523,0.1323 -0.583966,0.29279 -0.898431,0.32243 -0.168945,0.021 -0.339478,0.002 -0.510013,0.002 -1.228222,-0.002 -2.496639,0.007 -3.685536,-0.005 -0.276656,0.007 -0.592785,0 -0.887949,-0.10264 -0.145601,-0.047 -0.285565,-0.10916 -0.404605,-0.18578 -0.534894,-0.4005 -0.61292,-0.87978 -0.390914,-1.4075 0.137483,-0.24579 0.352447,-0.43881 0.611307,-0.54941 0.128693,-0.0543 0.266263,-0.0874 0.456893,-0.10916 0.392467,-0.0441 0.931397,-0.0492 1.405986,-0.0456 h 4.641874 v -8.34454 c -2.396952,0.009 -4.792311,-0.0289 -7.19086,0.0253 -0.555006,0.0245 -1.110012,0.0643 -1.475985,0.0983 -0.240583,0.0188 -0.479889,0.0513 -0.716677,0.0976 -0.174836,0.0354 -0.348176,0.0781 -0.519605,0.12796 -0.217373,0.0615 -0.429568,0.14024 -0.634628,0.23494 -0.37785,0.1641 -0.737693,0.36796 -1.07381,0.60653 -0.368388,0.26892 -0.692547,0.6029 -0.953959,0.97953 -0.261407,0.37735 -0.461688,0.79447 -0.590383,1.15304 -0.242111,0.70627 -0.283137,1.2434 -0.361158,1.85571 -0.03706,0.29999 -0.05693,0.60218 -0.05952,0.90508 l 0.05791,7.22185 c 0.02038,0.85014 0.14519,1.6945 0.371607,2.51356 0.08043,0.26242 0.181787,0.51037 0.305655,0.74532 0.2582,0.47277 0.540526,0.86605 1.041632,1.27376 0.288406,0.2299 0.59846,0.43158 0.925808,0.60147 0.706217,0.36145 1.477583,0.57687 2.237694,0.59495 z m -4.750481,-20.407 h 6.296446 v -4.16179 H 99.30512 V 92.562439 H 66.566564 v -4.130342 h -6.296446 z m 0,-27.761602 v 8.883977 H 99.30512 v -8.33059 H 83.7458 c 0.0202,-0.546954 -0.0466,-1.09152 0.1247,-1.644908 0.0419,-0.117473 0.10461,-0.226053 0.185,-0.320105 0.32979,-0.385309 0.75211,-0.354731 1.15101,-0.415093 0.80113,-0.07236 1.60551,-0.01605 2.40743,-0.03456 h 11.69039 v -8.332253 l -12.20278,0.0081 c -1.20249,0.01445 -2.3945,0.09571 -3.59785,0.357984 -0.27767,0.07598 -0.54905,0.17357 -0.81154,0.291911 -0.42825,0.184776 -0.82607,0.433168 -1.18,0.73679 -0.35307,0.304994 -0.65843,0.661317 -0.90567,1.056965 -0.24578,0.396878 -0.43013,0.8286 -0.54702,1.28049 -0.0539,-0.217163 -0.12145,-0.431938 -0.20509,-0.64592 -0.244487,-0.647005 -0.643534,-1.224392 -1.162437,-1.681704 -0.518905,-0.457313 -1.141835,-0.780742 -1.814431,-0.942023 -0.319309,-0.08928 -0.640282,-0.163306 -0.962843,-0.2228 -1.315117,-0.196269 -2.633414,-0.267044 -3.954964,-0.240513 H 67.87281 c -1.194984,-0.03585 -2.39012,0.06644 -3.561645,0.304853 -0.290458,0.05928 -0.575812,0.141327 -0.853415,0.245282 -0.256287,0.09904 -0.503594,0.219835 -0.739197,0.361165 -0.236253,0.140751 -0.459894,0.30167 -0.668417,0.481024 -0.906217,0.845587 -1.466047,1.997615 -1.570885,3.232634 -0.214762,1.852455 -0.153633,3.712934 -0.209133,5.569364 z m 6.347113,0.553387 c 0.0032,-0.39254 0.0081,-0.784284 0.0096,-1.178415 0.0169,-0.188173 0.06435,-0.382057 0.148806,-0.568641 0.35713,-0.542108 0.809982,-0.568713 1.247559,-0.617725 0.491434,-0.03621 0.986122,-0.03463 1.479218,-0.04988 1.710042,0.0064 3.419288,-0.02176 5.129329,0.01851 0.305863,0.0056 0.611077,0.03079 0.913687,0.07562 0.28844,0.02805 0.554254,0.168511 0.740042,0.390877 0.227645,0.250994 0.238848,0.587219 0.275066,0.888817 0.03217,0.345841 0.03621,0.692548 0.01208,1.040049 H 66.61719 Z M 99.30512,57.55476 91.58821,56.97159 v -3.19562 l 7.71691,-0.644329 v -7.88499 l -39.035001,4.942677 v 10.189479 l 39.035001,5.017568 z m -14.1581,-3.317936 v 2.273117 L 69.977776,55.35813 Z M 62.679147,25.405757 c -0.458483,0.285541 -0.866284,0.654746 -1.192852,1.084269 -0.326566,0.429517 -0.572694,0.919368 -0.718281,1.282124 -0.109848,0.270388 -0.188642,0.552375 -0.23487,0.840547 -0.04182,0.238887 -0.07963,0.477787 -0.106981,0.716679 -0.02734,0.238892 -0.04585,0.479382 -0.06997,1.049664 -0.02494,0.571894 -0.08124,1.471959 -0.08205,2.373644 l -0.0041,10.80236 H 99.3051 L 99.2842,30.313088 c -7.9e-4,-0.329784 -0.0942,-0.652324 -0.15123,-0.975673 -0.12224,-0.6837 -0.25251,-1.283743 -0.5437,-1.926417 -0.15118,-0.33783 -0.35308,-0.700586 -0.60242,-1.030368 -0.24933,-0.329779 -0.54615,-0.626582 -1.00383,-0.906501 -0.45687,-0.281522 -1.07539,-0.545345 -1.83068,-0.738389 -0.75451,-0.191436 -1.6481,-0.341054 -2.54176,-0.339445 l -26.643226,0.05792 c -0.608089,0.0016 -1.208935,0.153626 -1.764744,0.30967 -0.555802,0.156043 -1.064954,0.356329 -1.523431,0.641873 z m 3.971866,9.292638 c 0,-0.179355 -0.01366,-0.356322 0.0072,-0.527653 0.02091,-0.172919 0.06112,-0.337814 0.103761,-0.474589 0.04263,-0.135112 0.08928,-0.242103 0.152829,-0.337816 0.06435,-0.09571 0.145579,-0.179354 0.238886,-0.246946 0.433529,-0.28714 1.048869,-0.252511 1.595028,-0.27832 l 22.480743,7.2e-5 c 0.1657,0 0.33218,0.0017 0.49302,0.02328 0.15492,0.02285 0.30702,0.06195 0.4537,0.116678 0.12782,0.04568 0.24666,0.113207 0.35148,0.19945 0.0982,0.08443 0.18016,0.189835 0.24536,0.304852 0.0652,0.115014 0.14393,0.235667 0.14393,0.369188 v 1.363334 H 66.651002 Z"
     id="path66"
     inkscape:connector-curvature="0"
     style="clip-rule:evenodd;fill:#ffffff;fill-rule:evenodd;stroke-width:0.72290927" />
</svg>
