<?xml version="1.0" encoding="UTF-8" standalone="no"?>
<svg
   xmlns:dc="http://purl.org/dc/elements/1.1/"
   xmlns:cc="http://creativecommons.org/ns#"
   xmlns:rdf="http://www.w3.org/1999/02/22-rdf-syntax-ns#"
   xmlns:svg="http://www.w3.org/2000/svg"
   xmlns="http://www.w3.org/2000/svg"
   xmlns:sodipodi="http://sodipodi.sourceforge.net/DTD/sodipodi-0.dtd"
   xmlns:inkscape="http://www.inkscape.org/namespaces/inkscape"
   width="450.1312"
   height="181.65942"
   viewBox="0 0 450.1312 181.65942"
   version="1.1"
   id="svg50"
   sodipodi:docname="gx4000.svg"
   style="fill:none"
   inkscape:version="0.92.5 (2060ec1f9f, 2020-04-08)">
  <metadata
     id="metadata56">
    <rdf:RDF>
      <cc:Work
         rdf:about="">
        <dc:format>image/svg+xml</dc:format>
        <dc:type
           rdf:resource="http://purl.org/dc/dcmitype/StillImage" />
        <dc:title />
      </cc:Work>
    </rdf:RDF>
  </metadata>
  <defs
     id="defs54" />
  <sodipodi:namedview
     pagecolor="#ffffff"
     bordercolor="#666666"
     borderopacity="1"
     objecttolerance="10"
     gridtolerance="10"
     guidetolerance="10"
     inkscape:pageopacity="0"
     inkscape:pageshadow="2"
     inkscape:window-width="1366"
     inkscape:window-height="740"
     id="namedview52"
     showgrid="false"
     inkscape:pagecheckerboard="true"
     inkscape:zoom="1.7508248"
     inkscape:cx="226.10502"
     inkscape:cy="99.329443"
     inkscape:window-x="0"
     inkscape:window-y="0"
     inkscape:window-maximized="1"
     inkscape:current-layer="svg50" />
  <rect
     x="68.830711"
     y="0.43643418"
     width="380.86414"
     height="180.78636"
     id="rect34"
     style="stroke:#ffffff;stroke-width:0.87267691" />
  <path
     d="m 94.856118,84.26275 c 0.13178,-1.28397 0.29584,-2.600839 0.36216,-3.884809 0.95472,-16.131781 3.25945,-32.033089 9.251252,-47.177263 1.44777,-3.621347 2.92958,-7.242782 5.43154,-10.271668 1.08648,-1.31687 2.40336,-2.567853 3.852,-3.522648 2.86412,-1.843617 6.3208,-1.613143 8.82277,0.658434 1.51496,1.382757 2.63373,3.160574 3.85199,4.839605 0.5271,0.724234 0.8561,1.613144 1.41548,2.732526 1.58042,-3.127587 3.06223,-5.9918 4.54403,-8.856013 0.0655,0.0329 0.1309,0.0329 0.19722,0.0658 0,14.814913 0,29.629825 0,44.44465 -0.0663,0.03298 -0.13178,0.03298 -0.16493,0.06588 -0.329,-1.283969 -0.658,-2.53504 -0.987,-3.818922 -2.30474,-9.349859 -4.51087,-18.69972 -6.97967,-28.016681 -0.62571,-2.403264 -1.74536,-4.773629 -3.06222,-6.847721 -2.40335,-3.818921 -5.95864,-3.588535 -8.26338,0.329174 -1.67903,2.8972 -2.30474,6.123487 -2.83097,9.38276 -1.25141,7.407456 -1.67903,14.913699 -2.04119,22.419942 -0.88926,18.864308 -0.69115,37.728183 -0.52709,56.626004 0.0663,8.82277 0.49393,17.6464 0.95471,26.46917 0.23038,4.57631 0.75748,9.18492 2.23928,13.56401 0.49394,1.44865 1.08649,2.89729 1.90942,4.14784 1.74448,2.60057 4.87216,2.83096 6.74842,0.26355 1.18596,-1.61359 2.0089,-3.65478 2.53512,-5.59649 1.1528,-4.28047 1.11964,-8.69185 1.11964,-13.07008 0,-16.88892 0,-33.81099 0.0332,-50.699915 0,-1.119642 -0.32987,-1.810803 -1.31687,-2.370625 -1.74536,-1.053495 -3.42438,-2.271578 -5.03709,-3.654335 5.7937,0 11.55512,0 17.48147,0 0,26.897655 0,53.794435 0,80.692075 -0.0986,0.0323 -0.23039,0.0655 -0.329,0.13177 -2.20614,-6.35395 -4.44455,-12.74108 -6.74928,-19.35859 -0.5594,3.25945 -0.98788,6.18903 -1.61359,9.08632 -0.55938,2.63374 -1.61271,5.1357 -3.35806,7.24322 -3.22628,3.91745 -7.90121,4.34593 -11.4565,0.72432 -1.87625,-1.94258 -3.48984,-4.24732 -4.74126,-6.65067 -3.52212,-6.61663 -5.43154,-13.82669 -7.011952,-21.13537 -2.30474,-10.89712 -3.62161,-21.99232 -3.98377,-33.18528 -0.0323,-0.658871 -0.19723,-1.284581 -0.29584,-1.909421 0,-4.64264 0,-9.251251 0,-13.860556 z"
     id="path36"
     inkscape:connector-curvature="0"
     style="fill:#ffffff;stroke-width:0.87267691" />
  <path
     d="m 272.99653,86.205066 c 0.36217,-5.13579 0.75662,-14.946511 1.74448,-24.691433 0.98788,-9.810808 2.73235,-19.522742 6.15674,-28.839702 1.34916,-3.654335 2.92958,-7.209882 5.33293,-10.337469 4.14871,-5.399252 9.18579,-5.530939 13.56401,-0.296274 3.12768,3.720135 4.83987,8.197578 6.35396,12.707834 2.60059,7.70373 4.01607,15.670921 5.03709,23.736811 1.74449,13.860117 2.30475,27.753221 1.90942,41.678797 -0.46077,15.14443 -1.8108,30.19025 -6.22218,44.77443 -1.35004,4.50999 -3.02906,8.92137 -5.79458,12.80653 -1.05332,1.4818 -2.37019,2.93045 -3.81883,4.04922 -2.9959,2.30474 -6.58435,2.27158 -9.3167,-0.26354 -1.74535,-1.61271 -3.22629,-3.58845 -4.41138,-5.66194 -3.29261,-5.76141 -4.97165,-12.11537 -6.22218,-18.6011 -2.96362,-15.27621 -4.18187,-30.78194 -4.31278,-51.062164 z m 28.18049,3.094601 c -0.26268,-13.135795 -0.42762,-28.872516 -0.92155,-44.57625 -0.16407,-5.333365 -1.08648,-10.666729 -1.97487,-15.934295 -0.29671,-1.81063 -1.21825,-3.654334 -2.27158,-5.201677 -1.61357,-2.304479 -4.64264,-2.172792 -6.25535,0.131686 -0.72432,1.053583 -1.41547,2.304565 -1.64587,3.522735 -0.65886,3.654334 -1.35003,7.341569 -1.58041,11.028804 -0.49394,8.03299 -0.92242,16.098881 -0.98787,24.164772 -0.19722,15.637934 -0.19722,31.243317 -0.13177,46.880818 0.0331,13.36679 0.0655,26.76588 1.74448,40.06634 0.32987,2.56742 1.08648,5.10254 1.94257,7.60451 0.5271,1.54726 1.81081,2.63374 3.58845,2.70006 1.84397,0.0655 2.9959,-1.02103 3.75339,-2.50197 0.65886,-1.31687 1.25141,-2.70006 1.61357,-4.11554 1.71133,-6.51889 2.00804,-13.20186 2.23842,-19.88482 0.39532,-13.72895 0.55939,-27.49019 0.88839,-43.885173 z"
     id="path38"
     inkscape:connector-curvature="0"
     style="fill:#ffffff;stroke-width:0.87267691" />
  <path
     d="m 146.60848,19.834323 c 8.6587,0 16.88892,0 25.12,0 0.0323,0.0658 0.0655,0.131687 0.13091,0.230473 -1.71132,1.119296 -3.39035,2.337466 -5.13571,3.358061 -1.02016,0.625448 -1.21738,1.283882 -0.95471,2.436165 3.52301,15.34166 6.97968,30.71622 10.46951,46.09078 0.13178,0.493848 0.29583,1.020596 0.75749,1.547344 3.91744,-16.362256 7.83489,-32.691525 11.7532,-49.11958 -2.14067,-1.448556 -4.21415,-2.831313 -6.6175,-4.444456 6.15586,0 11.95044,0 18.07401,0 -1.31687,0.888908 -2.40336,1.777729 -3.58845,2.403264 -2.20612,1.119383 -3.25945,2.831314 -3.81883,5.267565 -4.44454,18.43626 -9.08632,36.839707 -13.62947,55.275966 -0.1981,0.757222 -0.16494,1.613231 0,2.370366 5.26748,23.538889 10.6004,47.045309 15.90104,70.584909 0.2304,1.08648 0.69116,1.84309 1.67904,2.4365 1.77764,1.05333 3.45667,2.23842 5.10254,3.58845 -8.29654,0 -16.59221,0 -25.28407,0 1.90942,-1.25141 3.45667,-2.40335 5.1357,-3.35805 1.31687,-0.72433 1.61359,-1.48181 1.25142,-3.02907 -3.95061,-17.28423 -7.76944,-34.56848 -11.6546,-51.85184 -0.0986,-0.46164 -0.26354,-0.95471 -0.658,-1.44864 -0.32987,1.18509 -0.69203,2.33702 -0.98787,3.52212 -4.24731,16.59308 -8.52692,33.15299 -12.77424,49.7452 -0.49306,1.94258 -0.49306,1.94258 1.25142,3.09452 1.54726,1.02102 3.09451,2.04119 4.97164,3.29261 -6.12357,0 -11.8527,0 -17.94311,0 1.31687,-0.88926 2.37018,-1.77765 3.58844,-2.3702 2.3379,-1.15281 3.39123,-2.93045 4.01694,-5.49786 5.03709,-20.28014 10.20596,-40.49483 15.34165,-60.741801 0.16407,-0.691168 0.19723,-1.514099 0.0655,-2.238425 -4.83899,-21.596744 -9.6134,-43.160677 -14.35379,-64.757511 -0.29583,-1.382756 -0.92154,-2.337465 -2.1398,-3.028799 -1.64586,-0.954796 -3.19312,-2.074092 -5.07025,-3.358061 z"
     id="path40"
     inkscape:connector-curvature="0"
     style="fill:#ffffff;stroke-width:0.87267691" />
  <path
     d="m 217.19321,119.25867 c 6.97967,-33.382865 13.89301,-66.403562 20.80723,-99.424347 4.27961,0 8.36199,0 12.67477,0 -9.84381,31.605128 -19.62128,63.07857 -29.43278,94.683967 5.6628,0 11.12838,0 16.82347,0 0,-0.69204 0,-1.31687 0,-1.94259 0,-7.4736 0.0332,-14.914041 -0.0332,-22.386775 0,-1.185094 0.39532,-1.877131 1.38319,-2.501967 2.7978,-1.712365 5.53103,-3.555982 8.29653,-5.3338 0.46078,-0.296274 0.92155,-0.526747 1.61271,-0.954708 0,11.160665 0,22.05779 0,33.11984 3.29261,0 6.38713,0 9.64658,0 0,1.57954 0,2.9959 0,4.6086 -3.12768,0 -6.25535,0 -9.5148,0 -0.0332,0.79064 -0.13178,1.44864 -0.13178,2.07435 0,11.45651 0.0332,22.94617 -0.0332,34.40354 0,1.31688 0.42849,2.10664 1.54726,2.76552 1.67903,1.02016 3.29261,2.1398 5.23519,3.45668 -8.36199,0 -16.39498,0 -24.75785,0 1.90942,-1.28371 3.58845,-2.46968 5.3338,-3.48984 1.05333,-0.62572 1.44865,-1.38232 1.44865,-2.63374 -0.0663,-11.52282 -0.0332,-23.04565 -0.0332,-34.56848 0,-0.55939 0,-1.08648 0,-1.87625 -6.91334,0 -13.72808,0 -20.87268,0 z"
     id="path42"
     inkscape:connector-curvature="0"
     style="fill:#ffffff;stroke-width:0.87267691" />
  <path
     d="m 328.2396,86.205066 c 0.36216,-5.13579 0.75748,-14.946511 1.74535,-24.691433 0.987,-9.810808 2.73235,-19.522742 6.15587,-28.839702 1.35002,-3.654335 2.93044,-7.209882 5.3338,-10.337469 4.14783,-5.399252 9.18492,-5.530939 13.56402,-0.296274 3.12767,3.720135 4.83899,8.197578 6.35395,12.707834 2.60058,7.70373 4.01606,15.670921 5.0371,23.736811 1.74448,13.860117 2.30386,27.753221 1.90941,41.678797 -0.46077,15.14443 -1.81081,30.19025 -6.22218,44.77443 -1.35003,4.50999 -3.02907,8.92137 -5.79458,12.80653 -1.05332,1.4818 -2.37019,2.93045 -3.81883,4.04922 -2.9959,2.30474 -6.58435,2.27158 -9.3167,-0.26354 -1.74536,-1.61271 -3.22629,-3.58845 -4.41226,-5.66194 -3.29173,-5.76141 -4.97076,-12.11537 -6.22218,-18.6011 -2.96274,-15.27621 -4.21416,-30.78194 -4.31277,-51.062164 z m 28.14819,3.094601 c -0.26267,-13.135795 -0.42761,-28.872516 -0.92155,-44.57625 -0.16493,-5.333365 -1.08648,-10.666729 -1.97486,-15.934295 -0.29671,-1.81063 -1.21826,-3.654334 -2.27158,-5.201677 -1.61358,-2.304479 -4.64264,-2.172792 -6.25535,0.131686 -0.72432,1.053583 -1.41548,2.304565 -1.64674,3.522735 -0.658,3.654334 -1.34916,7.341569 -1.57955,11.028804 -0.49393,8.03299 -0.92242,16.098881 -0.98787,24.164772 -0.19722,15.637934 -0.19722,31.243317 -0.13177,46.880818 0.0332,13.36679 0.0655,26.76588 1.74448,40.06634 0.32987,2.56742 1.08649,5.10254 1.94258,7.60451 0.5271,1.54726 1.81081,2.63374 3.58845,2.70006 1.84396,0.0655 2.9959,-1.02103 3.75338,-2.50197 0.658,-1.31687 1.25142,-2.70006 1.61358,-4.11554 1.71132,-6.51889 2.00803,-13.20186 2.23842,-19.88482 0.39532,-13.72895 0.55938,-27.49019 0.88838,-43.885173 z"
     id="path44"
     inkscape:connector-curvature="0"
     style="fill:#ffffff;stroke-width:0.87267691" />
  <path
     d="m 383.4495,86.205066 c 0.36217,-5.13579 0.75748,-14.946511 1.74448,-24.691433 0.98788,-9.810808 2.73323,-19.522742 6.15674,-28.839702 1.35003,-3.654335 2.93045,-7.209882 5.3338,-10.337469 4.14784,-5.399252 9.18493,-5.530939 13.56314,-0.296274 3.12768,3.720135 4.83987,8.197578 6.35396,12.707834 2.60145,7.70373 4.01694,15.670921 5.03709,23.736811 1.74536,13.860117 2.30475,27.753221 1.90942,41.678797 -0.46076,15.14443 -1.8108,30.19025 -6.22218,44.77443 -1.34916,4.50999 -3.02819,8.92137 -5.7937,12.80653 -1.0542,1.4818 -2.37107,2.93045 -3.81971,4.04922 -2.9959,2.30474 -6.58435,2.27158 -9.3167,-0.26354 -1.74448,-1.61271 -3.22628,-3.58845 -4.41138,-5.66194 -3.29174,-5.76141 -4.97077,-12.11537 -6.22218,-18.6011 -2.93046,-15.27621 -4.18101,-30.78194 -4.31278,-51.062164 z m 28.18136,3.094601 c -0.26355,-13.135795 -0.42849,-28.872516 -0.92155,-44.57625 -0.16494,-5.333365 -1.08648,-10.666729 -1.97574,-15.934295 -0.2967,-1.81063 -1.21825,-3.654334 -2.27158,-5.201677 -1.61357,-2.304479 -4.64176,-2.172792 -6.25534,0.131686 -0.72433,1.053583 -1.41548,2.304565 -1.64588,3.522735 -0.65886,3.654334 -1.35002,7.341569 -1.58041,11.028804 -0.49394,8.03299 -0.92155,16.098881 -0.98787,24.164772 -0.19722,15.637934 -0.19722,31.243317 -0.13177,46.880818 0.0331,13.36679 0.0663,26.76588 1.74535,40.06634 0.329,2.56742 1.08648,5.10254 1.94258,7.60451 0.52622,1.54726 1.8108,2.63374 3.58844,2.70006 1.8431,0.0655 2.9959,-1.02103 3.75252,-2.50197 0.65886,-1.31687 1.25141,-2.70006 1.61357,-4.11554 1.71219,-6.51889 2.00804,-13.20186 2.23842,-19.88482 0.39532,-13.72895 0.56026,-27.49019 0.88926,-43.885173 z"
     id="path46"
     inkscape:connector-curvature="0"
     style="fill:#ffffff;stroke-width:0.87267691" />
  <path
     d="m 47.351167,172.19175 -9.315651,-0.70424 v -3.85811 l 9.315651,-0.77581 v -9.51916 l -47.122021,5.96649 v 12.30038 l 47.122021,6.05813 z m -17.091289,-4.00471 v 2.74282 L 11.947974,169.53969 Z M 0.229146,141.79991 v 13.26207 h 47.122021 v -9.07235 H 20.515043 l 26.836124,-3.75251 v -5.8897 l -26.689514,-3.60415 h 26.689514 v -9.07235 H 0.229146 v 13.28127 l 20.814129,2.46705 z m 5.734656,-19.78097 c 3.247981,0.006 6.493991,0.0428 9.74192,0.0175 0.53111,-0.0183 1.062309,-0.0489 1.443843,-0.0803 0.803997,-0.0681 1.049656,-0.13177 1.571081,-0.26617 0.515577,-0.137 1.16031,-0.37001 1.731303,-0.73566 0.272799,-0.17193 0.532071,-0.36391 0.845711,-0.65189 0.313641,-0.28712 0.681648,-0.6676 1.024348,-1.07078 0.715683,-0.82817 1.269135,-1.73051 1.746838,-2.63635 1.094337,-1.98011 2.17506,-3.94538 3.283883,-5.93857 0.16991,-0.26617 0.31076,-0.55066 0.585479,-0.83079 0.658347,-0.68505 1.422551,-0.68418 2.15368,-0.67284 l 1.017628,-0.0392 6.380316,-0.0149 c 0.466096,-0.006 0.926346,0.0384 1.420542,0.26355 0.297846,0.15795 0.525527,0.42238 0.638102,0.74002 0.112575,0.31766 0.101754,0.66673 -0.03019,0.97654 -0.06476,0.15446 -0.157257,0.29583 -0.272887,0.41626 -0.48643,0.50441 -1.175844,0.44593 -1.76621,0.51924 l -9.602152,0.004 v 10.02968 l 10.751816,-0.0114 c 1.319575,-0.006 2.570208,-0.0165 3.863515,-0.30195 0.666114,-0.15271 1.359369,-0.39881 1.978883,-0.77057 0.621433,-0.37176 1.169038,-0.86919 1.59726,-1.453 0.427262,-0.58208 0.735055,-1.25055 0.91666,-1.77852 0.182564,-0.52797 0.240772,-0.91631 0.287372,-1.3064 0.0466,-0.38834 0.09809,-0.77581 0.09809,-1.16502 v -10.18938 c 0,-0.46077 0.02042,-0.92329 -0.136923,-1.49315 -0.179073,-0.64491 -0.449865,-1.26102 -0.803997,-1.82826 -0.371848,-0.58382 -0.834977,-1.07601 -1.333101,-1.41635 -0.497164,-0.339481 -1.028276,-0.526231 -1.507986,-0.685921 -0.477703,-0.16146 -0.905926,-0.29498 -1.475872,-0.39358 -0.570032,-0.0986 -1.2817,-0.16145 -1.995375,-0.19461 -0.712715,-0.0357 -1.42639,-0.0175 -2.139106,-0.0175 h -7.553368 c -0.141723,0 -0.284492,0 -0.602932,0.003 -0.319487,0.004 -0.815603,0.01 -1.382669,0.0323 -0.567065,0.021 -1.204992,0.0602 -1.616722,0.0951 -0.451522,0.0296 -0.898333,0.10995 -1.332228,0.23823 -0.231608,0.0655 -0.457108,0.1501 -0.673881,0.25482 -0.405882,0.18851 -0.796754,0.408421 -1.169038,0.657141 -0.413824,0.28013 -0.794659,0.6065 -1.135091,0.97216 -0.339821,0.36477 -0.636967,0.76883 -0.94476,1.21738 -0.652849,0.95995 -1.2632,1.94869 -1.829305,2.96273 l -2.32359,4.25779 c -0.138494,0.25745 -0.287547,0.50878 -0.446636,0.75313 -0.140588,0.21206 -0.287634,0.41976 -0.440876,0.62222 -0.19513,0.25569 -0.220438,0.25656 -0.333973,0.36478 -0.04861,0.0418 -0.09713,0.082 -0.212672,0.15359 -0.255345,0.1597 -0.704949,0.35343 -1.084563,0.38921 -0.203944,0.0253 -0.409809,0.004 -0.615673,0.004 -1.482679,-0.002 -3.013878,0.008 -4.449082,-0.007 -0.333973,0.008 -0.715595,0 -1.071909,-0.12305 -0.175766,-0.0576 -0.344725,-0.13177 -0.488428,-0.22427 -0.645711,-0.48347 -0.7399,-1.06206 -0.4719,-1.69911 0.165965,-0.29671 0.425464,-0.52971 0.737953,-0.66324 0.155353,-0.0663 0.321424,-0.10559 0.551548,-0.13177 0.473777,-0.0541 1.124358,-0.0593 1.69727,-0.0559 h 5.603546 V 99.043469 c -2.893535,0.0104 -5.78515,-0.0357 -8.680614,0.0306 -0.669989,0.0288 -1.339977,0.0777 -1.78177,0.11869 -0.290427,0.0218 -0.579309,0.061 -0.865155,0.11694 -0.211056,0.0436 -0.420307,0.0951 -0.627254,0.15446 -0.262405,0.0751 -0.518562,0.16931 -0.766105,0.28362 -0.45613,0.19897 -0.890524,0.444201 -1.296274,0.732181 -0.444708,0.32551 -0.836025,0.72869 -1.151593,1.18248 -0.315569,0.45466 -0.557344,0.95907 -0.7127,1.39192 -0.292269,0.8526 -0.341794,1.501 -0.435979,2.24016 C 0.0271,105.65668 0.00311,106.02146 0,106.38711 l 0.06991,8.71804 c 0.02461,1.02627 0.175269,2.04555 0.448594,3.0343 0.0971,0.31678 0.219447,0.61611 0.368978,0.89885 0.311693,0.57161 0.652509,1.04635 1.257431,1.53853 0.348155,0.27752 0.722446,0.52099 1.117611,0.72608 0.852527,0.43633 1.783699,0.69639 2.701284,0.71734 z M 0.229147,97.384139 H 7.830048 V 92.360144 H 47.351167 V 82.288406 H 7.830048 v -4.98604 H 0.229147 Z m 0,-33.512532 v 10.724588 h 47.12202 V 64.539641 H 28.568368 c 0.02435,-0.660268 -0.05629,-1.317568 0.150537,-1.985602 0.05053,-0.14181 0.126276,-0.272887 0.223318,-0.386509 0.398115,-0.465049 0.907933,-0.428222 1.389476,-0.501003 0.967101,-0.08736 1.938128,-0.01946 2.906189,-0.0418 h 14.11232 V 51.566338 l -14.730873,0.0097 c -1.451612,0.01746 -2.890569,0.115543 -4.343226,0.432062 -0.335196,0.09181 -0.662799,0.209618 -0.979668,0.352475 -0.516973,0.223056 -0.997207,0.522908 -1.42447,0.889432 -0.426216,0.368183 -0.794834,0.798237 -1.09329,1.275854 -0.29671,0.4791 -0.519243,1.000262 -0.660354,1.54586 -0.06502,-0.262152 -0.14661,-0.521425 -0.247579,-0.779737 -0.295139,-0.781046 -0.776856,-1.478053 -1.403264,-2.030108 -0.626408,-0.552144 -1.378394,-0.942579 -2.190332,-1.137274 -0.385461,-0.107775 -0.77293,-0.19705 -1.162318,-0.268959 -1.587575,-0.236932 -3.178988,-0.322367 -4.774328,-0.29034 H 9.406914 c -1.442553,-0.0432 -2.885288,0.08029 -4.299522,0.368008 -0.350633,0.07156 -0.695104,0.170608 -1.030221,0.296187 -0.309382,0.119469 -0.607925,0.265381 -0.892339,0.435989 -0.2852,0.16991 -0.55517,0.364169 -0.806895,0.580592 -1.093961,1.020858 -1.769773,2.411556 -1.896331,3.902436 -0.259254,2.236235 -0.18546,4.482069 -0.252459,6.723104 z m 7.662067,0.668034 c 0.0039,-0.473777 0.0097,-0.94668 0.01165,-1.422464 0.02039,-0.227245 0.07768,-0.46121 0.179631,-0.686447 0.431121,-0.654508 0.977791,-0.686535 1.506023,-0.74579 0.593245,-0.04363 1.190418,-0.04171 1.785671,-0.06021 2.064318,0.0078 4.127675,-0.02618 6.191992,0.02234 0.36923,0.0067 0.737673,0.03726 1.102976,0.09128 0.348199,0.03394 0.669081,0.203421 0.89336,0.471944 0.274806,0.302906 0.288332,0.708788 0.332053,1.072956 0.03884,0.417488 0.04373,0.836024 0.01458,1.255433 H 7.891214 Z M 47.351167,40.028067 38.035516,39.324078 v -3.857756 l 9.315651,-0.777729 V 25.169956 L 0.229148,31.136711 v 12.300468 l 47.122019,6.057076 z M 30.259878,36.022741 v 2.743958 L 11.947974,37.376263 Z M 3.137263,1.2186146 C 2.583794,1.5633133 2.091507,2.0089981 1.697284,2.5275078 1.303061,3.0460175 1.005941,3.6373432 0.830193,4.0752612 0.697588,4.4016692 0.60247,4.7420732 0.546664,5.0899402 0.496174,5.3783252 0.450534,5.6667102 0.41752,5.9550942 0.38451,6.2434792 0.36218,6.5338022 0.33305,7.2222302 0.30295,7.9126052 0.23497,8.9991662 0.234,10.087656 L 0.2291,23.127979 H 47.351167 L 47.325947,7.1426072 c -9.59e-4,-0.398106 -0.113623,-0.787469 -0.182564,-1.177808 -0.147569,-0.825335 -0.304826,-1.5497 -0.65634,-2.325519 C 46.304479,3.2314692 46.06074,2.7935608 45.759753,2.3954543 45.458768,1.9973479 45.100447,1.6390529 44.547955,1.3011524 43.996423,0.96130581 43.249761,0.64282241 42.337988,0.40978281 41.427175,0.17868911 40.348459,-0.00192609 39.269656,1.5507472e-5 L 7.10666,0.06993351 c -0.73407,0.00194 -1.459396,0.1854556 -2.130353,0.373823 -0.670949,0.188376 -1.285584,0.4301511 -1.839044,0.77485809 z M 7.931994,12.436466 c 0,-0.216599 -0.01651,-0.430143 0.0087,-0.636967 0.02524,-0.208832 0.07379,-0.407801 0.125255,-0.572913 0.05146,-0.163103 0.107784,-0.292259 0.184493,-0.407801 0.07768,-0.115543 0.17574,-0.216512 0.288376,-0.298107 0.523344,-0.346627 1.266167,-0.304913 1.925474,-0.33598 H 37.60245 c 0.200017,0 0.400994,0.0019 0.595165,0.02819 0.187015,0.02758 0.370626,0.07479 0.547693,0.140763 0.154289,0.05524 0.297756,0.136749 0.424295,0.240858 0.11851,0.101929 0.217471,0.229166 0.296186,0.368009 0.07863,0.138843 0.17375,0.284492 0.17375,0.445676 v 1.645781 H 7.931994 Z"
     id="path48"
     inkscape:connector-curvature="0"
     style="clip-rule:evenodd;fill:#ffffff;fill-rule:evenodd;stroke-width:0.87267691" />
</svg>
