<?xml version="1.0" encoding="UTF-8" standalone="no"?>
<!-- Created with Inkscape (http://www.inkscape.org/) -->

<svg
   xmlns:dc="http://purl.org/dc/elements/1.1/"
   xmlns:cc="http://creativecommons.org/ns#"
   xmlns:rdf="http://www.w3.org/1999/02/22-rdf-syntax-ns#"
   xmlns:svg="http://www.w3.org/2000/svg"
   xmlns="http://www.w3.org/2000/svg"
   xmlns:sodipodi="http://sodipodi.sourceforge.net/DTD/sodipodi-0.dtd"
   xmlns:inkscape="http://www.inkscape.org/namespaces/inkscape"
   width="500"
   height="200"
   viewBox="0 0 132.29166 52.916668"
   version="1.1"
   id="svg8"
   sodipodi:docname="imageviewer.svg"
   inkscape:version="0.92.5 (2060ec1f9f, 2020-04-08)">
  <defs
     id="defs2" />
  <sodipodi:namedview
     id="base"
     pagecolor="#ffffff"
     bordercolor="#666666"
     borderopacity="1.0"
     inkscape:pageopacity="0.0"
     inkscape:pageshadow="2"
     inkscape:zoom="1.53125"
     inkscape:cx="255.97378"
     inkscape:cy="108.24473"
     inkscape:document-units="mm"
     inkscape:current-layer="layer1"
     showgrid="false"
     units="px"
     inkscape:pagecheckerboard="true"
     inkscape:window-width="1366"
     inkscape:window-height="740"
     inkscape:window-x="0"
     inkscape:window-y="0"
     inkscape:window-maximized="1" />
  <metadata
     id="metadata5">
    <rdf:RDF>
      <cc:Work
         rdf:about="">
        <dc:format>image/svg+xml</dc:format>
        <dc:type
           rdf:resource="http://purl.org/dc/dcmitype/StillImage" />
        <dc:title></dc:title>
      </cc:Work>
    </rdf:RDF>
  </metadata>
  <g
     inkscape:label="Layer 1"
     inkscape:groupmode="layer"
     id="layer1"
     transform="translate(0,-244.08332)">
    <flowRoot
       xml:space="preserve"
       id="flowRoot10"
       style="fill:black;stroke:none;stroke-opacity:1;stroke-width:1px;stroke-linejoin:miter;stroke-linecap:butt;fill-opacity:1;font-family:Dymo;font-style:normal;font-weight:normal;font-size:40px;line-height:125%;letter-spacing:0px;word-spacing:0px;-inkscape-font-specification:Dymo;font-stretch:normal;font-variant:normal;"><flowRegion
         id="flowRegion12"
         style="-inkscape-font-specification:Dymo;font-family:Dymo;font-weight:normal;font-style:normal;font-stretch:normal;font-variant:normal;"><rect
           id="rect14"
           width="69.224487"
           height="121.46939"
           x="12.408163"
           y="37.387756"
           style="-inkscape-font-specification:Dymo;font-family:Dymo;font-weight:normal;font-style:normal;font-stretch:normal;font-variant:normal;" /></flowRegion><flowPara
         id="flowPara16"></flowPara></flowRoot>    <g
       aria-label="images"
       transform="matrix(1.1412135,-0.05791789,0.09706516,0.87133406,0,0)"
       style="font-style:normal;font-weight:normal;font-size:19.91490936px;line-height:125%;font-family:sans-serif;letter-spacing:0px;word-spacing:0px;fill:#ffffff;fill-opacity:1;stroke:none;stroke-width:0.49787274px;stroke-linecap:butt;stroke-linejoin:miter;stroke-opacity:1;image-rendering:auto"
       id="text20">
      <path
         d="m -22.451775,296.71113 h 10.706253 v 31.87978 h -10.706253 z m 5.735493,7.12157 q -0.430162,-0.0956 -0.525754,0 l -0.573549,0.57355 q -0.286775,0.28678 0.09559,1.1471 0,0 0,2.19861 0,0.47795 0.0478,4.15823 0.09559,3.63248 0.09559,3.15452 0,3.82366 0.0478,2.10301 -0.0478,1.33828 -0.430161,1.72065 -0.0478,0.0478 -0.0478,0.19118 0,0.38237 0.382366,0.81253 0.382366,0.43016 0.90812,0.43016 0.66914,0 0.621345,-1.0515 -0.238979,-7.36055 0,-8.02969 0,-1.95963 0,-6.45243 0,-0.38237 -0.286775,-0.66914 -0.286775,-0.33457 -0.33457,-0.28678 z m -2.007423,4.5884 q 0,0.38236 0.286775,0.38236 0.33457,0 0.191183,-0.23898 -0.09559,-0.38236 0,-0.86032 0.09559,-0.33457 -0.09559,-0.33457 -0.382366,0 -0.382366,1.05151 z m 0.143388,11.04082 q 0,0.19118 0.238978,0.14339 0.238979,-0.0478 0.143388,-0.19119 -0.09559,-0.23898 -0.09559,-0.62134 0,-0.38237 0.09559,-1.33828 0.143387,-1.00371 0.143387,-1.52947 0,-0.57355 -0.09559,-0.95591 0,-4.15824 -0.0478,-4.97076 -0.0478,-0.43017 -0.238979,-0.43017 -0.09559,0.14339 -0.191183,0.28678 z"
         style="font-style:normal;font-variant:normal;font-weight:normal;font-stretch:normal;font-size:47.79577255px;font-family:Dymo;-inkscape-font-specification:Dymo;fill:#ffffff;stroke-width:0.49787274px"
         id="path542" />
      <path
         d="M -12.414707,296.71113 H 8.3286586 v 31.87978 H -12.414707 Z m 15.7248095,13.47841 v 8.65103 q 0,0.14339 -0.1911831,0.38237 -0.1911831,0.23898 -0.1911831,0.47796 0,0.90812 1.0037112,0.90812 0.4779577,0 0.621345,-0.62135 0.1433874,-0.62134 -0.1433873,-1.00371 l 0.047796,-13.574 q 0,-1.33828 -1.1470985,-1.33828 -0.9081197,0 -1.051507,0.47796 -0.1433874,0.43016 -0.1911831,0.76473 l -3.2023168,7.40835 q -0.047796,1.52946 -0.8125281,1.52946 -0.3345704,0 -0.8125282,-0.43016 -0.4779577,-0.47796 -0.2867746,-0.47796 0.3823662,0 0.1911831,-0.43016 l -3.9192533,-8.22087 q -0.3345705,-0.66915 -1.051507,-0.66915 -1.481669,0 -1.481669,0.76474 0,0.14338 0.1911831,0.19118 0.1911831,0.0478 0.1911831,0.28677 l 0.047796,8.84222 -0.2389789,0.52576 v 4.01484 q 0,0.52575 -0.5735493,0.52575 -0.1911831,0 -0.2389788,-0.38236 -0.047796,-0.43016 -0.1911835,-0.43016 -0.191183,0 -0.0478,0.62134 0.1911827,0.95592 1.5772601,0.95592 0.7169366,0 0.7169366,-0.76474 v -12.04453 q 0,-0.23898 0.095591,-0.28677 0.095592,-0.0956 0.1433873,-0.33458 0,-0.19118 -0.1433873,-0.38236 -0.1433873,-0.19118 -0.1911831,-0.47796 -0.047796,-0.28677 0.1433874,-0.28677 0.3345704,0 0.621345,0.52575 1.1948943,2.38979 1.1948943,2.43758 -0.4779577,-0.14338 -1.0037112,0 0,0.47796 0.4779577,0.52576 0.5257535,0 0.7169366,0.43016 l 3.0111337,5.92668 -0.2389789,0.38236 q 0.7647324,0.38237 1.051507,0.38237 0.9559155,0 1.19489432,-1.52947 L 2.784349,305.93572 q 0.1911831,-0.47796 0.5257535,-0.47796 0.2867746,0 0.2389788,0.57355 z m 1.672852,8.69883 q 0,0.28677 0.1433873,0.28677 0.2867747,0 0.2867747,-0.62134 0,-3.58468 0.047796,-5.25754 0,-0.71693 0.047796,-1.38607 0.047796,-5.49652 0.047796,-5.01856 0,-0.76473 -0.2389789,-1.48167 -0.047796,-0.19118 -0.1911831,-0.0478 -0.1433873,0.19118 -0.1433873,0.47795 z m -14.7210979,-2.19861 0.047796,-10.56286 q 0,-0.38237 -0.2389788,-0.38237 -0.095591,0.0478 -0.095591,0.28678 l -0.09559,10.61066 q 0,0.28677 0.1911835,0.38236 0.1911831,0.0478 0.1911831,-0.33457 z m 12.187922,-5.78328 -0.1433874,1.76844 q 0,0.19118 -0.1433873,0.28677 -0.1433873,0.0956 -0.1433873,0.28678 0,5.16194 0.1433873,6.21345 0,0.19118 0.095592,0.19118 0.2867746,0 0.2867746,-0.52575 l 0.095591,-6.69141 q 0.5257535,-1.52946 -0.191183,-1.52946 z m -1.0037113,0.0478 -0.95591542,2.19861 -0.19118309,1.19489 q -0.5257535,1.48167 -1.81623939,2.2942 0.1911831,0.14339 0.3823662,0.14339 0.62134506,0 1.2426901,-0.95592 0.62134504,-0.95591 0.81252814,-2.15081 0,-0.33457 0.76473236,-2.2464 0.095592,-0.14339 0,-0.38237 -0.047796,-0.19118 -0.1433873,-0.19118 -0.047796,0 -0.095592,0.0956 z m -4.5405984,5.6877 q -0.621345,-0.57355 -2.103014,-3.77587 -1.4338731,-3.01113 -1.5772604,-3.01113 -0.095592,0 -0.095592,0.14339 0,0.43016 2.3419929,5.49651 0.6691408,1.48167 1.4338731,1.1471 z m 0.4779578,-5.83109 -2.4853802,-5.16194 q -0.047796,-0.14339 -0.2867746,-0.14339 -0.047796,0.0956 -0.1433874,0.19119 l 2.4853802,5.16194 q 0.1911831,0.38237 0.3823662,0.33457 0.1911831,-0.0478 0.047796,-0.38237 z m 3.8236618,-5.73549 -1.86403516,4.06264 q -1.48166894,3.20232 -1.48166894,3.25011 0,0.0956 0.095592,0.14339 0.2389789,0.0956 0.6691409,-0.86032 0.52575345,-1.1471 1.05150695,-2.2942 0.90811968,-1.86403 1.76844355,-4.11044 0.095592,-0.19118 -0.047796,-0.28677 -0.1433874,-0.0478 -0.1911831,0.0956 z m -9.2245841,15.34244 q 0,-0.19118 -0.2389789,-0.14338 -0.3823662,0.0478 -0.4779577,0.0478 -0.047796,0 -0.430162,-0.0956 -0.2389788,-0.0956 -0.2389788,0.0956 0,0.38237 0.6691408,0.38237 0.6691408,0.0478 0.7169366,-0.28678 z m -1.9596267,-15.86819 q -0.1433877,0 -0.1433877,0.38236 0,0.38237 0.1433877,0.38237 0.2389789,0 0.2389789,-0.38237 0,-0.38236 -0.2389789,-0.38236 z"
         style="font-style:normal;font-variant:normal;font-weight:normal;font-stretch:normal;font-size:47.79577255px;font-family:Dymo;-inkscape-font-specification:Dymo;fill:#ffffff;stroke-width:0.49787274px"
         id="path544" />
      <path
         d="m 7.659431,296.71113 h 19.78745 v 31.87978 H 7.659431 Z m 12.09233,8.55544 q -0.33457,-1.00371 -1.864035,-1.00371 -1.481669,0 -1.864035,1.00371 -1.529465,4.34942 -5.161943,13.38282 -0.09559,0.28678 -0.09559,0.52575 0,0.90812 0.716937,0.90812 0.621345,0 0.812528,-0.66914 l 0.716937,-2.48538 q 0.143387,-0.57355 1.481668,-0.57355 h 6.356838 q 1.051507,0 1.24269,0.62135 l 0.669141,2.1986 q 0.286775,0.90812 0.860324,0.90812 1.051507,0 0.573549,-1.43387 z m -1.864035,0 q 0.57355,0 0.860324,0.62135 0.334571,0.62134 0.238979,0.71694 -0.0478,0.0956 -0.143387,0.0956 -0.0478,0 -0.286775,-0.33457 -0.191183,-0.33457 -0.33457,-0.33457 -0.382366,0 -0.09559,0.76473 0.09559,0.23898 0.430162,0.43016 0.382366,0.14339 0.477958,0.38237 l 1.816239,5.11415 q 0.0478,0.38236 0.09559,1.14709 0.0478,0.33457 0.286774,0.33457 0.09559,0 0.09559,-0.28677 0,-0.28677 0.09559,-0.28677 l 0.191184,1.43387 q -6.595817,0.0956 -7.981894,0 1.194894,-2.91554 2.198605,-6.02227 0.621345,-1.95963 0.764732,-1.95963 0.143388,0 0.09559,0.23898 -0.0478,0.23898 0.191183,0.23898 0.191183,0 0.382366,-0.52575 0.191183,-0.52576 0,-0.52576 -0.143387,0 -0.191183,0.19119 0,0.14339 -0.191183,0.14339 -0.09559,0 -0.09559,-0.19119 0,-0.43016 0.286774,-0.90812 0.334571,-0.47796 0.812528,-0.47796 z m -3.250112,1.1949 q -2.294197,5.78329 -4.588394,11.80555 0,0.47796 0.191183,0.57355 0.238979,0.0956 0.238979,-0.19118 0.0478,-0.33457 0.191183,-0.95591 3.106725,-7.59953 4.397211,-11.08862 0.191183,-0.52576 -0.09559,-0.52576 -0.191183,0 -0.33457,0.38237 z m 7.217161,1.62506 q -0.09559,-0.33457 -0.33457,-0.23898 -0.238979,0.0478 -0.143387,0.38236 0.191183,0.66914 3.058929,9.32018 0,0 0.286775,1.1471 0.143387,0.47795 0.33457,0.47795 0.430162,0 0.09559,-1.24269 -1.386078,-4.11043 -3.297909,-9.84592 z m -7.886302,8.89001 q -0.238979,0 -0.669141,0.95591 -0.382366,0.90812 -0.382366,1.38608 0,0.14339 0.0478,0.19119 0.238979,0.0956 0.669141,-0.86033 0.382366,-0.81253 0.812528,-0.95591 0.286774,-0.0956 2.246401,-0.0956 2.867746,0 4.062641,0.0956 0.382366,0.0478 0.430162,0.86032 0.09559,0.81253 0.525753,0.81253 0.382366,0 0.238979,-0.95592 -0.143387,-0.86032 -0.430162,-1.1471 -0.238979,-0.28677 -1.147099,-0.28677 z m 4.397211,-8.65104 1.386077,4.73179 q 0,0.0478 0.09559,0.66914 0.0478,0.33457 0.238979,0.33457 0.191183,0 0.09559,-0.38237 -0.143387,-0.33457 -0.0478,-0.33457 0.477957,0 0.238978,-0.47796 -0.286774,-0.38236 -0.860323,-2.10301 -0.57355,-1.72065 -0.669141,-2.43759 -0.0478,-0.38236 -0.286775,-0.38236 -0.286775,0 -0.191183,0.38236 z m -1.051507,0.28678 q 0.191183,-0.47796 -0.191183,-0.47796 -0.143387,0 -0.238979,0.28678 -1.625056,4.11043 -1.625056,4.73178 0,0.14338 0.09559,0.19118 0.191183,0.0478 0.955916,-2.00742 0.525753,-1.33828 1.003711,-2.72436 z m 1.481669,5.40092 q -1.816239,0.0478 -1.816239,0.38237 0,0.14338 2.437584,0.14338 0.238979,0 0.238979,-0.19118 0,-0.38236 -0.860324,-0.33457 z m -3.058929,-9.36797 q -0.191184,0 -0.334571,0.28677 -0.143387,0.33457 0.0478,0.33457 0.191183,0 0.33457,-0.33457 0.143388,-0.28677 -0.0478,-0.28677 z m 4.588394,0.90812 0.573549,1.57726 q 0.09559,0.23898 0.382366,0.19118 0.238979,-0.0478 0.143387,-0.33457 l -0.525753,-1.43387 q -0.09559,-0.28678 -0.382366,-0.28678 -0.286775,0.0478 -0.191183,0.28678 z"
         style="font-style:normal;font-variant:normal;font-weight:normal;font-stretch:normal;font-size:47.79577255px;font-family:Dymo;-inkscape-font-specification:Dymo;fill:#ffffff;stroke-width:0.49787274px"
         id="path546" />
      <path
         d="m 26.777721,296.71113 h 20.265407 v 31.87978 H 26.777721 Z m 8.459852,6.88259 q 0,-0.28677 -0.860324,-0.19118 -2.437585,0.28677 -3.202317,1.00371 -1.768444,1.52947 -1.768444,6.35684 0,5.11415 0.430162,6.7392 0.191183,0.62135 1.051507,1.62506 0.90812,0.95591 2.676564,1.24269 1.003711,0.14339 3.775866,0.14339 3.919253,0 5.353126,-0.47796 1.24269,-0.38237 1.81624,-1.67285 0.04779,-0.14339 0.04779,-0.33457 0,-0.14339 -0.09559,-0.0956 -0.09559,0 -0.286775,0.33457 -0.525753,0.95592 -1.290486,1.2427 -1.386077,0.52575 -5.400922,0.52575 -2.724359,0 -2.963338,0 -2.007422,-0.19118 -3.154521,-1.00371 -1.481669,-1.09931 -1.481669,-6.45243 0,-0.28678 -0.0478,-1.1471 0,-0.86032 0,-1.38608 0,-6.30904 4.63619,-6.30904 0.764733,0 0.764733,-0.14339 z m 6.452429,4.34942 q 0.238979,0 0.238979,-0.71694 0,-1.29048 -4.731782,-1.29048 -3.058929,0 -3.967049,0.71693 -0.860324,0.71694 -0.860324,2.86775 0,5.44872 0.382366,5.44872 0.09559,0 0.09559,-4.73178 0,-2.67657 0.716937,-3.20232 0.573549,-0.43016 3.775866,-0.43016 3.775866,0 4.158232,0.76473 0.0478,0.0956 0,0.38237 0,0.19118 0.191183,0.19118 z m -8.077486,9.27238 q 0,0.76473 4.110437,0.76473 3.536887,0 3.536887,-0.66914 0,-0.14339 -0.621345,-0.0478 -1.386077,0.19119 -3.489091,0.19119 -1.386078,0 -2.485381,-0.14339 -1.051507,-0.19118 -0.955915,-0.19118 -0.09559,0 -0.09559,0.0956 z m 10.706253,-11.66217 q -0.143387,0.19118 -0.0478,0.38237 0.143387,0.28677 0.143387,0.47795 0,0.66914 0.191183,0.62135 0.238979,0 0.238979,-0.52576 0,-1.00371 -0.430162,-1.00371 -0.0478,0 -0.09559,0.0478 z m 0.669141,8.22087 q 0,-1.0515 -0.238979,-1.0515 -0.238978,0 -0.238978,1.0515 0,1.24269 0.238978,1.24269 0.238979,0 0.238979,-1.24269 z m -2.389788,-3.96705 q 0,0.19119 0.716936,0.19119 0.716937,0 0.716937,-0.19119 0,-0.14338 -0.764733,-0.14338 -0.66914,0 -0.66914,0.14338 z m 0,4.44501 q 0,1.05151 0,2.15081 0,0.76473 -0.382367,1.19489 -0.525753,0.57355 -4.875168,0.57355 -3.536888,0 -4.588395,-0.66914 -1.051506,-0.66914 -1.051506,-6.83479 0,-3.68028 0.812528,-4.5884 0.860324,-0.90812 5.018556,-0.90812 3.441295,0 4.301619,0.62135 0.621345,0.47796 0.621345,2.62877 0,0.86032 0.812528,0.86032 0.860324,0 0.860324,-1.24269 0,-2.48538 -1.099302,-3.15452 -1.338282,-0.81253 -5.687697,-0.81253 -4.63619,0 -5.87888,1.24269 -0.90812,0.90812 -0.90812,6.07006 0,5.78329 1.24269,6.93039 1.24269,1.1471 5.687697,1.1471 4.30162,0 5.305331,-0.62135 1.290486,-0.76473 1.290486,-4.06264 0,-1.48167 0,-1.38607 -0.0478,-0.71694 -0.621345,-0.71694 h -4.540599 q -0.716936,0 -0.716936,0.86032 0,0.81253 0.716936,0.81253 z"
         style="font-style:normal;font-variant:normal;font-weight:normal;font-stretch:normal;font-size:47.79577255px;font-family:Dymo;-inkscape-font-specification:Dymo;fill:#ffffff;stroke-width:0.49787274px"
         id="path548" />
      <path
         d="m 46.373977,296.71113 h 19.309492 v 31.87978 H 46.373977 Z m 15.915992,7.79071 q 0,-0.66914 -1.147098,-0.76473 0.238979,0 -1.720648,0 -4.731781,0 -7.12157,0.0956 -1.672852,0.0478 -1.672852,0.66914 0,0.19119 0.238979,0.38237 0.286774,0.19118 0.286774,0.66914 l -0.09559,12.4747 q -0.860324,0.71693 -0.860324,0.86032 0.0478,0.0956 0.143387,0.0956 0.57355,0.0956 0.716937,0.47796 0.143387,0.38237 0.191183,0.38237 0.143387,0 0.191183,-0.28678 0.09559,-0.28677 0.191183,-0.47796 l 8.794422,0.0478 q 0.57355,0 0.90812,0.33457 0.33457,0.28677 0.430162,0.28677 0.716937,0 0.716937,-1.0993 0,-0.62134 -0.860324,-0.62134 -8.890014,0 -8.890014,0 -0.477958,0.0478 -0.716937,-0.14339 -0.191183,-0.23898 -0.09559,-0.47796 0.143387,-0.33457 0.191183,-1.95963 0.0478,-1.48166 0.286775,-1.91183 0.0478,-0.0478 0.0478,-0.14338 0,-0.0478 -0.286774,-0.23898 -0.238979,-0.19119 -0.238979,-0.52576 0,-0.66914 0.525753,-0.66914 0.238979,0 0.334571,0.19119 0.09559,0.19118 0.191183,0.19118 0.143387,0 0.33457,-0.0956 0.238979,-0.0956 0.430162,-0.0956 h 4.110437 q 2.150809,0 2.007422,0 0.716937,-0.0478 0.716937,-0.71694 0,-0.57355 -1.911831,-0.57355 -0.286775,0 -2.580972,0.14339 -2.294197,0.14338 -3.584683,0.14338 -0.525753,0 -0.525753,-0.57354 0,-0.0956 0.0478,-0.57355 0.09559,-0.47796 0.09559,-1.52947 0,-0.43016 -0.143387,-1.52946 -0.09559,-1.1471 -0.09559,-1.33828 0,-0.76474 0.477958,-0.76474 0.286774,0 0.525753,0.19119 0.238979,0.14338 0.382366,0.14338 0.238979,0 0.621345,-0.19118 h 7.025979 q 0.143387,0 0.669141,0.0478 0.382366,0.0478 0.525753,0 0.191183,-0.14339 0.191183,-0.52576 z m -1.386077,8.02969 q 0,-0.0956 -0.477958,0.0478 -0.669141,0.23898 -1.099302,0.23898 h -5.20974 q -0.33457,0 -0.382366,-0.0956 -0.0478,-0.14339 -0.191183,-0.14339 -0.09559,0 -0.191183,0.28677 -0.09559,0.23898 -0.286775,0.23898 -0.143387,0 -0.33457,-0.0956 -0.0478,0.62135 -0.09559,1.19489 0.09559,2.15081 0.09559,2.15081 0,0.23898 0.191183,0.28678 0.238979,0.0478 0.238979,-0.28678 l 0.0478,-2.81995 q 0.525753,-0.14338 1.816239,-0.14338 0.860324,0 2.294197,0.0478 1.481669,0.0478 1.625056,0.0478 1.959627,0 1.959627,-0.95592 z m -10.84964,-8.31646 q -0.238979,0 -0.238979,7.21716 0,7.21716 0.238979,7.21716 0.191183,0 0.191183,-1.05151 0,0.95592 0,-6.16565 0,-1.72065 0.0478,-4.73178 0,-1.62506 -0.0478,-2.05522 -0.0478,-0.43016 -0.191183,-0.43016 z m 1.338281,15.8204 q 0,0.28677 0.669141,0.23898 1.529465,-0.14339 1.768444,-0.14339 0.669141,0 2.198605,0.19118 1.577261,0.19119 2.772155,0.19119 3.106725,0 3.106725,-0.33457 0,-0.33457 -8.794422,-0.43017 -1.720648,0 -1.720648,0.28678 z m 2.294197,-13.574 6.882592,0.0478 q 1.433873,0 2.103014,-0.66914 0.430162,-0.43016 -0.09559,-0.43016 0,0 -0.430162,0.28678 -0.382366,0.23898 -1.481669,0.28677 0.334571,-0.23898 0,-0.23898 l -7.073774,-0.0956 q -0.430162,0 -0.430162,0.47796 0,0.33457 0.525753,0.33457 z m 0.238979,10.51507 q -0.382366,0 -0.382366,0.19118 0,0.23898 0.430162,0.23898 0.90812,0 3.632479,-0.0956 2.724359,-0.0956 2.867746,-0.0956 0.573549,0 1.338282,0.19118 0.382366,0.0956 0.382366,-0.14339 0,-0.33457 -0.955916,-0.33457 z m -0.430162,-7.21716 q -0.286774,0 -0.286774,0.23898 0,0.33457 0.621345,0.38236 1.24269,0 2.437584,0 3.489091,0.0478 3.489091,-0.33457 -0.0478,-0.0478 -0.33457,-0.0478 l -5.066352,0.0956 q -0.430162,0 -0.621345,-0.14339 -0.191183,-0.19118 -0.238979,-0.19118 z m -0.33457,-2.53318 q 0,-0.38236 -0.143387,-0.38236 -0.286775,0 -0.286775,0.52575 0,1.48167 0.191183,2.00742 0.143387,0.0478 0.286775,-0.14339 z"
         style="font-style:normal;font-variant:normal;font-weight:normal;font-stretch:normal;font-size:47.79577255px;font-family:Dymo;-inkscape-font-specification:Dymo;fill:#ffffff;stroke-width:0.49787274px"
         id="path550" />
      <path
         d="m 65.014305,296.71113 h 19.787449 v 31.87978 H 65.014305 Z m 10.276091,7.36055 q -4.158232,0 -5.353127,0.90812 -1.147098,0.86032 -1.147098,3.82366 0,1.95963 1.194894,2.72436 1.194894,0.71694 4.540598,0.71694 3.106726,0 3.775866,0.19118 1.959627,0.52575 1.959627,2.67656 0,1.76845 -0.955915,2.43759 -1.099303,0.76473 -4.206028,0.76473 -3.919254,0 -4.588395,-0.76473 -0.238978,-0.23898 -0.66914,-1.33828 -0.334571,-0.76474 -0.812528,-0.76474 -1.051507,0 -1.051507,0.86033 0,0.66914 0.621345,0.14339 0.33457,0.19118 0.621345,1.0993 0.286774,0.86032 1.194894,1.24269 1.338282,0.62134 4.492803,0.62134 3.202316,0 4.588394,-0.66914 2.007422,-0.95591 2.007422,-3.58468 0,-2.77216 -1.911831,-3.58468 -1.051507,-0.47796 -3.919253,-0.47796 -3.441296,0 -3.871458,-0.0956 -1.864035,-0.47796 -1.864035,-2.81995 0,-2.05522 1.672852,-2.62877 0.764733,-0.23898 3.441296,-0.23898 3.011134,0 4.158232,0.57355 1.003711,0.52575 1.003711,1.81624 0,0.81253 0.430162,0.81253 0.860324,0 0.860324,-1.1949 0,-3.25011 -6.21345,-3.25011 z m -6.404634,1.00371 q -0.33457,-0.23898 -0.860324,0.76473 -0.573549,1.1471 -0.573549,2.38979 0,2.81995 1.051507,3.87146 1.529465,1.62506 6.309042,1.62506 2.772155,0 3.632479,0.33457 0.669141,0.28677 0.716936,1.0993 0.0478,0.76473 -0.430162,1.0993 -0.430162,0.33457 -0.430162,0.38237 0,0.0956 0.238979,0.0956 0.955916,0 0.955916,-1.67285 0,-1.76845 -0.860324,-1.76845 -1.720648,0 -4.349415,-0.19118 -3.536888,-0.28677 -4.062641,-0.66914 -1.338282,-0.95591 -1.768444,-1.81624 -0.430162,-0.86032 -0.430162,-2.48538 0,-1.72065 0.525754,-2.53317 0.33457,-0.52576 0.33457,-0.52576 z m 13.335021,8.84222 q -0.0478,-0.19118 -0.143388,-0.14339 -0.09559,0.0478 -0.09559,0.28678 0.09559,3.05893 -0.860324,4.30162 -1.481669,1.95962 -6.21345,1.95962 -3.871458,0 -5.54431,-1.0515 -0.191183,-0.14339 -0.238979,-0.0478 -0.09559,0.0956 0.09559,0.23898 1.194894,0.95591 3.106725,1.24269 1.003711,0.14339 3.680274,0.14339 2.437585,0 4.062641,-1.00371 2.294197,-1.38608 2.294197,-4.5406 0,-0.95592 -0.143387,-1.38608 z m -8.173077,3.3457 q -0.955916,0 -2.055219,-0.33457 -1.24269,-0.38236 -1.481669,-0.86032 -0.09559,-0.14339 -0.191183,-0.14339 -0.09559,0.0478 0,0.23898 0.382367,1.00371 1.864036,1.29049 1.481668,0.23898 1.481668,0.38236 0,0.0956 2.007423,0.0956 1.864035,0 1.864035,-0.38236 0,-0.28678 -0.860324,-0.33457 1.720648,0.0478 -2.628767,0.0478 z m -1.386078,-6.97818 q 2.15081,0.14339 4.253824,0.28678 2.533176,0.14338 3.871458,1.0515 0.143387,0.0956 0.238978,0.0478 0.143388,-0.0956 0,-0.19118 -2.055218,-1.76845 -8.316464,-1.48167 -0.382366,0 -0.382366,0.14338 0.0478,0.0956 0.33457,0.14339 z m -2.341993,-2.05522 q 0,1.43388 0.621345,1.43388 0.238979,0 0.238979,-0.28678 0,-0.14339 -0.191183,-0.28677 -0.191183,-0.19119 -0.191183,-0.86033 0,-0.90812 1.577261,-1.1471 0.716936,-0.14338 2.867746,-0.14338 2.15081,0 3.011134,0.52575 0.573549,0.28678 0.66914,0.86032 0.09559,0.52576 0.334571,0.52576 0.430162,-0.0956 0.0478,-1.29049 -0.477958,-1.48167 -4.253824,-1.48167 -3.345704,0 -3.106725,0.0478 -0.57355,-0.0956 -0.57355,0.19118 0,0.0956 0.191183,0.19118 0.191184,0.0956 0.191184,0.14339 0,-0.0956 -0.716937,0.28678 -0.716937,0.38236 -0.716937,1.29048 z m -2.533176,8.50765 q -0.04779,-0.14339 -0.191183,-0.0956 -0.143387,0.0478 -0.143387,0.33457 0,1.33828 0.33457,1.33828 0.191184,0 0.09559,-0.86032 z"
         style="font-style:normal;font-variant:normal;font-weight:normal;font-stretch:normal;font-size:47.79577255px;font-family:Dymo;-inkscape-font-specification:Dymo;fill:#ffffff;stroke-width:0.49787274px"
         id="path552" />
    </g>
  </g>
</svg>
