<?xml version="1.0" encoding="UTF-8" standalone="no"?>
<svg
   xmlns:dc="http://purl.org/dc/elements/1.1/"
   xmlns:cc="http://creativecommons.org/ns#"
   xmlns:rdf="http://www.w3.org/1999/02/22-rdf-syntax-ns#"
   xmlns:svg="http://www.w3.org/2000/svg"
   xmlns="http://www.w3.org/2000/svg"
   xmlns:xlink="http://www.w3.org/1999/xlink"
   xmlns:sodipodi="http://sodipodi.sourceforge.net/DTD/sodipodi-0.dtd"
   xmlns:inkscape="http://www.inkscape.org/namespaces/inkscape"
   width="291.36078"
   height="154.39825"
   viewBox="0 0 63.646829 33.728289"
   version="1.1"
   id="svg14"
   sodipodi:docname="Infogrames.svg"
   inkscape:version="0.92.5 (2060ec1f9f, 2020-04-08)">
  <metadata
     id="metadata20">
    <rdf:RDF>
      <cc:Work
         rdf:about="">
        <dc:format>image/svg+xml</dc:format>
        <dc:type
           rdf:resource="http://purl.org/dc/dcmitype/StillImage" />
        <dc:title></dc:title>
      </cc:Work>
    </rdf:RDF>
  </metadata>
  <defs
     id="defs18">
    <linearGradient
       id="linearGradient1708">
      <stop
         offset="0"
         style="stop-color:#fcff01;stop-opacity:1"
         id="stop1698" />
      <stop
         offset="0.24505855"
         style="stop-color:#ff720c;stop-opacity:1"
         id="stop1700" />
      <stop
         offset="0.48089126"
         style="stop-color:#b300e5;stop-opacity:1"
         id="stop1702" />
      <stop
         offset="0.78216583"
         style="stop-color:#31e1fd;stop-opacity:1"
         id="stop1704" />
      <stop
         offset="1"
         style="stop-color:#00bf19;stop-opacity:1"
         id="stop1706" />
    </linearGradient>
    <linearGradient
       x1="287.04117"
       y1="350.87671"
       x2="348.69205"
       y2="275.90128"
       id="linearGradient3545"
       xlink:href="#linearGradient3539"
       gradientUnits="userSpaceOnUse"
       gradientTransform="matrix(0.27391884,0,0,0.27391884,-74.12342,-68.696897)" />
    <linearGradient
       id="linearGradient3539">
      <stop
         id="stop3541"
         style="stop-color:#bf0000;stop-opacity:1"
         offset="0" />
      <stop
         id="stop3547"
         style="stop-color:#bf0000;stop-opacity:1"
         offset="0.3747088" />
      <stop
         id="stop3543"
         style="stop-color:#fbe40a;stop-opacity:1"
         offset="1" />
    </linearGradient>
    <linearGradient
       x1="289.83875"
       y1="355.51709"
       x2="639.31293"
       y2="355.51709"
       id="linearGradient3555"
       xlink:href="#linearGradient3549"
       gradientUnits="userSpaceOnUse"
       gradientTransform="matrix(0.27391884,0,0,0.27391884,-74.12342,-68.696897)" />
    <linearGradient
       id="linearGradient3549">
      <stop
         id="stop3551"
         style="stop-color:#bf0000;stop-opacity:1"
         offset="0" />
      <stop
         id="stop3557"
         style="stop-color:#fff20c;stop-opacity:1"
         offset="0.24505855" />
      <stop
         id="stop3559"
         style="stop-color:#0ce500;stop-opacity:1"
         offset="0.44498077" />
      <stop
         id="stop3561"
         style="stop-color:#31e1fd;stop-opacity:1"
         offset="0.64282119" />
      <stop
         id="stop3553"
         style="stop-color:#0019bf;stop-opacity:1"
         offset="1" />
    </linearGradient>
  </defs>
  <sodipodi:namedview
     pagecolor="#ffffff"
     bordercolor="#666666"
     borderopacity="1"
     objecttolerance="10"
     gridtolerance="10"
     guidetolerance="10"
     inkscape:pageopacity="0"
     inkscape:pageshadow="2"
     inkscape:window-width="1366"
     inkscape:window-height="743"
     id="namedview16"
     showgrid="false"
     inkscape:pagecheckerboard="true"
     inkscape:zoom="1.4308538"
     inkscape:cx="153.14457"
     inkscape:cy="92.794688"
     inkscape:window-x="0"
     inkscape:window-y="0"
     inkscape:window-maximized="1"
     inkscape:current-layer="svg14" />
  <path
     d="m 1.3661602,33.724267 c 0.200291,0 0.395085,-0.047 0.584385,-0.140997 0.189299,-0.094 0.345012,-0.220228 0.46714,-0.378683 v 0 l -0.348066,-0.378682 c -0.09038,0.115484 -0.194184,0.204111 -0.311427,0.265885 -0.117237,0.06176 -0.243036,0.09265 -0.377376,0.09265 -0.119685,0 -0.230212,-0.02351 -0.331579,-0.0705 -0.10136007,-0.047 -0.18929907,-0.110789 -0.26379907,-0.191354 -0.0745,-0.08058 -0.133113,-0.176585 -0.175864,-0.288041 -0.04275,-0.111458 -0.06412,-0.23164 -0.06412,-0.360554 0,-0.131602 0.02076,-0.253125 0.06229,-0.364582 0.04151,-0.111459 0.09893,-0.208141 0.172201,-0.290054 0.07327,-0.08192 0.160599,-0.146369 0.26196707,-0.193368 0.101359,-0.047 0.209449,-0.07051 0.32425,-0.07051 0.136784,0 0.266239,0.0329 0.388368,0.0987 0.122132,0.0658 0.22838,0.160471 0.318754,0.284012 v 0 l 0.359058,-0.390769 c -0.119685,-0.161138 -0.27601,-0.289381 -0.468972,-0.384722 -0.192964,-0.09534 -0.392033,-0.143012 -0.597208,-0.143012 -0.19052,0 -0.36943807,0.03761 -0.53675507,0.112796 -0.167315,0.0752 -0.312037,0.177251 -0.434166,0.306165 -0.122132,0.128914 -0.21861,0.282669 -0.289444,0.461266 -0.07084,0.178599 -0.10625599503,0.369953 -0.10625599503,0.574065 0,0.204111 0.034809995,0.394799 0.10442399503,0.572054 0.06961,0.177253 0.165485,0.330337 0.287612,0.459251 0.122133,0.128913 0.266851,0.23097 0.434168,0.306168 0.167316,0.0752 0.34745507,0.112796 0.54041807,0.112796 z m 6.942999,0.004 c 0.190519,0 0.368828,-0.03759 0.534921,-0.112796 0.166095,-0.0752 0.309595,-0.177925 0.430504,-0.308183 0.120902,-0.130251 0.216778,-0.284683 0.287612,-0.463281 0.07084,-0.178597 0.106256,-0.368613 0.106256,-0.570037 0,-0.201428 -0.03542,-0.39144 -0.106256,-0.570036 -0.07084,-0.1786 -0.166706,-0.333027 -0.287612,-0.463281 -0.120915,-0.130252 -0.264409,-0.232985 -0.430504,-0.308184 -0.166093,-0.0752 -0.344402,-0.112797 -0.534921,-0.112797 -0.18808,0 -0.365165,0.0376 -0.531259,0.112797 -0.166095,0.0752 -0.309595,0.177927 -0.430503,0.308184 -0.120902,0.13025 -0.216776,0.284681 -0.287613,0.463279 -0.07084,0.178598 -0.106255,0.36861 -0.106255,0.570037 0,0.201424 0.03542,0.39144 0.106255,0.570037 0.07084,0.178597 0.166707,0.333024 0.287613,0.463281 0.120915,0.130251 0.264408,0.232982 0.430503,0.308182 0.166094,0.0752 0.343179,0.112796 0.531259,0.112796 z m 0,-0.535795 c -0.114802,0 -0.221664,-0.02351 -0.320587,-0.07051 -0.09893,-0.047 -0.184413,-0.111458 -0.25647,-0.193368 -0.07206,-0.08191 -0.128847,-0.179272 -0.170368,-0.29207 -0.04154,-0.112796 -0.06229,-0.233655 -0.06229,-0.362568 0,-0.131602 0.02076,-0.253126 0.06229,-0.364581 0.04151,-0.111458 0.09831,-0.208141 0.170368,-0.290054 0.07206,-0.08192 0.157546,-0.146372 0.25647,-0.193371 0.09893,-0.047 0.205787,-0.07051 0.320587,-0.07051 0.114803,0 0.222272,0.02351 0.322418,0.07051 0.100138,0.047 0.186248,0.111459 0.258304,0.193371 0.07206,0.08192 0.128847,0.178597 0.170369,0.290054 0.04151,0.11146 0.06229,0.232984 0.06229,0.364581 0,0.128914 -0.02076,0.249766 -0.06229,0.362568 -0.04154,0.112796 -0.09831,0.210156 -0.170369,0.29207 -0.07206,0.08192 -0.158158,0.146369 -0.258304,0.193367 -0.100138,0.047 -0.207618,0.0705 -0.322418,0.0705 z m 8.0531458,0.491508 v -0.515627 h -1.403254 v -2.304319 h -0.53126 v 2.819969 z m 6.69752,0 v -0.515712 h -1.403257 v -2.304319 h -0.531255 v 2.819968 z m 6.748814,0 v -0.507607 h -1.454548 v -0.668737 h 0.948938 v -0.491478 h -0.948938 v -0.644566 h 1.439893 v -0.507545 h -1.97115 v 2.819971 z m 5.891473,0.04028 c 0.200293,0 0.395087,-0.047 0.584384,-0.141 0.189301,-0.094 0.345014,-0.220226 0.467144,-0.378682 v 0 l -0.348066,-0.378682 c -0.09038,0.115486 -0.194184,0.204113 -0.31143,0.265883 -0.117237,0.06177 -0.243035,0.09265 -0.377376,0.09265 -0.119685,0 -0.230212,-0.02351 -0.331577,-0.0705 -0.10137,-0.047 -0.189299,-0.11079 -0.263796,-0.191356 -0.0745,-0.08058 -0.133127,-0.176584 -0.175865,-0.28804 -0.04275,-0.111458 -0.06412,-0.231641 -0.06412,-0.360554 0,-0.131602 0.02076,-0.253126 0.06229,-0.364581 0.04151,-0.111459 0.09893,-0.208142 0.1722,-0.290055 0.07328,-0.08191 0.160597,-0.146371 0.261965,-0.193371 0.10136,-0.047 0.20945,-0.0705 0.324249,-0.0705 0.136786,0 0.266242,0.0329 0.388368,0.0987 0.122132,0.0658 0.228383,0.160467 0.318758,0.284008 v 0 l 0.359055,-0.390767 c -0.119685,-0.161141 -0.276009,-0.289383 -0.468973,-0.384725 -0.192961,-0.09534 -0.392032,-0.143011 -0.597208,-0.143011 -0.19052,0 -0.369437,0.03759 -0.536753,0.112797 -0.167315,0.0752 -0.312038,0.177255 -0.434167,0.306168 -0.122132,0.128913 -0.218608,0.282668 -0.289443,0.461266 -0.07084,0.178597 -0.106255,0.369952 -0.106255,0.574066 0,0.20411 0.03481,0.394796 0.104423,0.57205 0.06962,0.177256 0.165484,0.330341 0.287614,0.459254 0.122132,0.128913 0.26685,0.230969 0.434164,0.306167 0.167319,0.0752 0.347455,0.112796 0.540418,0.112796 z m 7.02727,-0.04028 v -2.304318 h 0.861002 v -0.515651 h -2.256932 v 0.515651 h 0.864672 v 2.304317 z m 6.085657,0 v -2.819968 h -0.531257 v 2.819968 z m 6.118632,0.04431 c 0.190521,0 0.368828,-0.03759 0.534923,-0.112796 0.166095,-0.0752 0.309596,-0.177927 0.430504,-0.308184 0.120901,-0.13025 0.216776,-0.284682 0.287611,-0.46328 0.07084,-0.178597 0.106256,-0.368611 0.106256,-0.570039 0,-0.201426 -0.03542,-0.391438 -0.106256,-0.570034 -0.07084,-0.178599 -0.166705,-0.333027 -0.287611,-0.463283 -0.120902,-0.13025 -0.264409,-0.232981 -0.430504,-0.308182 -0.166095,-0.0752 -0.344402,-0.112796 -0.534923,-0.112796 -0.188078,0 -0.365162,0.03759 -0.531261,0.112796 -0.166091,0.0752 -0.309596,0.177928 -0.430499,0.308182 -0.120915,0.130252 -0.216779,0.284684 -0.287612,0.463284 -0.07084,0.178595 -0.106255,0.368608 -0.106255,0.570034 0,0.201427 0.03542,0.391441 0.106255,0.570038 0.07084,0.178598 0.166703,0.333025 0.287612,0.46328 0.120902,0.130252 0.264408,0.232984 0.430499,0.308184 0.166099,0.0752 0.343183,0.112796 0.531261,0.112796 z m 0,-0.535795 c -0.114802,0 -0.221664,-0.02351 -0.320585,-0.0705 -0.09893,-0.047 -0.184414,-0.111459 -0.256472,-0.193368 -0.07206,-0.08192 -0.128846,-0.179269 -0.170369,-0.292068 -0.04152,-0.112809 -0.06228,-0.233657 -0.06228,-0.362569 0,-0.131602 0.02076,-0.253124 0.06228,-0.36458 0.04152,-0.111459 0.09831,-0.208141 0.170369,-0.290055 0.07206,-0.08192 0.157547,-0.146371 0.256472,-0.193371 0.09893,-0.047 0.205786,-0.07051 0.320585,-0.07051 0.114803,0 0.222275,0.02351 0.32242,0.07051 0.100138,0.047 0.186247,0.111459 0.258302,0.193371 0.07206,0.08192 0.128847,0.178597 0.170368,0.290055 0.04152,0.111458 0.06229,0.232984 0.06229,0.36458 0,0.128914 -0.02076,0.249766 -0.06229,0.362569 -0.04154,0.112796 -0.09831,0.210153 -0.170368,0.292068 -0.07206,0.08192 -0.158155,0.14637 -0.258302,0.193368 -0.100149,0.047 -0.20762,0.0705 -0.32242,0.0705 z m 6.620584,0.49148 v -1.88535 l 1.307996,1.885351 h 0.468974 v -2.819969 h -0.498281 v 1.824924 l -1.27503,-1.824862 h -0.505606 v 2.819969 z"
     id="COLLECTION"
     inkscape:connector-curvature="0"
     style="fill:#ffffff;fill-rule:nonzero;stroke:none;stroke-width:0.16417529" />
  <path
     d="m 46.292828,26.16527 -0.06714,-0.01508 c -5.43e-4,-0.0033 0,-0.0062 -0.0025,-0.0095 -0.01082,-0.01549 -0.03154,-0.01337 -0.04036,-0.01246 -0.140035,0.01391 -0.992793,0.03801 -4.052209,-0.86727 l -0.604167,-0.180796 c -1.961851,-0.590046 -3.814862,-1.147273 -4.924295,-0.660269 -0.716451,0.314722 -0.740864,0.780128 -0.691359,1.029785 0.09391,0.475105 0.594047,0.933796 1.029412,0.943729 l 0.01492,2.7e-4 0.0071,-0.01337 c 0.194286,-0.368094 0.756463,-0.549666 1.719417,-0.555226 0.867678,-0.005 1.979143,0.131255 3.053991,0.263152 1.724504,0.21168 3.507665,0.430347 4.474689,0.104778 l 0.08239,-0.0278"
     inkscape:connector-curvature="0"
     id="path16"
     style="fill:#ffffff;fill-opacity:1;fill-rule:evenodd;stroke:none;stroke-width:0.03390686" />
  <path
     d="m 32.188658,26.098507 c -0.01116,-0.0159 -0.03258,-0.01376 -0.04279,-0.01272 -0.159328,0.0159 -1.131505,0.04334 -4.615978,-0.98781 l -0.688446,-0.205956 c -2.23338,-0.671629 -4.342862,-1.306058 -5.605248,-0.75192 -0.813899,0.357346 -0.841432,0.885683 -0.785418,1.168874 0.106631,0.539727 0.674815,1.060638 1.169109,1.072166 l 0.01498,2.71e-4 0.0072,-0.01339 c 0.221719,-0.420377 0.863169,-0.627921 1.960902,-0.634296 0.988453,-0.0058 2.254399,0.149664 3.478509,0.299873 1.96341,0.240806 3.993719,0.489921 5.094371,0.119354 l 0.08248,-0.02784 -0.06686,-0.01482 c -5.43e-4,-0.004 0,-0.0079 -0.0028,-0.01191"
     inkscape:connector-curvature="0"
     id="path18"
     style="fill:#ffffff;fill-opacity:1;fill-rule:evenodd;stroke:none;stroke-width:0.03390686" />
  <path
     d="m 52.048179,17.589954 c 0.0027,-0.101049 -0.03832,-0.199035 -0.11867,-0.283124 -0.12783,-0.133931 -0.341443,-0.217342 -0.571331,-0.222427 -0.387217,-0.0092 -0.707637,0.20344 -0.714419,0.473339 -0.0025,0.101049 0.039,0.199033 0.11902,0.283122 0.128169,0.134169 0.341443,0.217344 0.571331,0.222665 0.386876,0.0087 0.707296,-0.203678 0.714079,-0.473575"
     inkscape:connector-curvature="0"
     id="path20"
     style="fill:#ffffff;fill-opacity:1;fill-rule:evenodd;stroke:none;stroke-width:0.03390686" />
  <path
     d="m 49.820497,13.309212 c 0.178352,-1.753663 -0.03662,-3.052634 -0.65474,-4.0064351 -0.450961,-0.69509 -1.311179,-1.1864 -2.090698,-1.231836 -1.484102,-0.08613 -2.405352,1.777398 -2.077473,3.0848461 0.470966,1.877083 2.979396,3.456804 4.034239,3.899967 -0.706959,4.401383 -2.756288,7.085314 -5.271839,6.891164 -1.192165,-0.09205 -1.961513,-1.099194 -2.211407,-1.545814 0.934135,-0.90874 1.539034,-2.072695 2.102565,-3.679844 0.534712,-1.523776 0.824277,-3.243531 0.856488,-4.834778 0.06781,-3.3564421 -0.533015,-6.0279641 -1.625495,-7.1465511 -0.379418,-0.388573 -0.811053,-0.58625 -1.283036,-0.587945 -0.72459,-0.0024 -1.425105,0.429939 -2.028647,1.235905 -0.780197,-2.453162 -2.072048,-3.972189 -3.430358,-3.976597 -0.996522,-0.0034 -1.924214,0.710688 -2.686441,2.050687 l -0.0044,-0.02306 -2.72e-4,-0.0014 -2.72e-4,-0.0014 c -0.82536,-2.17819 -2.022953,-3.37883199 -3.299376,-3.43443899 -1.282494,-0.05561 -2.54949,1.27286399 -3.318092,3.22962899 l -0.0089,-0.01086 c -0.725257,-1.20301 -1.588695,-1.840798 -2.49689,-1.84385 -1.476543,-0.0048 -2.777345,1.544797 -3.592806,4.253277 l -0.01591,-0.01055 -4.06e-4,-0.001 -7.89e-4,-10e-4 c -0.63086,-0.970424 -1.374166,-1.484791 -2.149651,-1.487503 -2.247652,-0.0075 -3.977681,3.9098 -3.979141,9.1555291 0.06239,1.593284 0.365822,3.093663 0.978926,4.467569 0.576688,1.2927 1.383435,2.542371 2.748185,3.462604 -0.214325,0.171533 -0.773923,0.680679 -1.989111,1.245703 -0.722387,0.335881 -1.471118,0.542782 -2.213373,0.620124 -0.927251,0.09681 -1.853484,-0.0066 -2.752796,-0.307434 -1.099193,-0.367551 -2.0576048,-0.975603 -2.8484478,-1.806864 -0.72198,-0.758988 -1.290971,-1.68719 -1.691106,-2.758578 -0.367143,-0.983096 -0.58279,-2.084729 -0.62358,-3.185008 -0.03932,-1.063997 0.08331,-2.130368 0.3547,-3.08315 0.775624,-2.7227201 1.935104,-5.1114591 3.446062,-7.0997581 1.2112548,-1.593962 2.3153288,-2.484356 2.7868388,-2.864452 0.236838,-0.191235 0.275357,-0.223785 0.248605,-0.259048 -0.01322,-0.01695 -0.03442,-0.0081 -0.04238,-0.0047 -0.813089,0.334657 -9.6784118,6.982436 -8.6241128,15.3672651 0.668609,5.317037 4.434645,6.727224 6.0290478,7.057545 4.949486,1.025442 8.190373,-2.336762 8.489294,-2.609609 0.514436,0.235211 1.021582,0.403831 1.732302,0.418646 1.644484,0.03458 2.811762,-0.883034 3.364748,-1.374141 0.726727,0.440007 1.382077,0.685697 2.431869,0.682239 1.557342,-0.0049 2.446213,-0.732049 2.940235,-1.102516 0.607272,0.408103 1.786992,1.034295 3.058634,1.052062 1.46688,0.02052 2.221647,-0.417087 2.608524,-0.666099 1.141982,0.947799 2.247348,1.283172 3.271674,1.279068 1.032125,-0.0042 1.602778,-0.256675 2.079169,-0.531254 0.590318,0.545562 1.696021,1.167549 3.067553,1.182231 3.956933,0.04238 5.577679,-4.44668 6.158844,-7.205581 0.255657,0.113929 2.103241,0.787656 3.310666,1.207084 3.048226,1.058233 6.199869,2.15234 6.663036,3.25245 0.07899,0.187808 0.07662,0.365819 -0.0071,0.544101 -0.08204,0.17401 -0.31669,0.329136 -0.697463,0.46117 -0.820886,0.284375 -2.248704,0.421597 -3.726026,0.35802 -1.618714,-0.06967 -3.062808,-0.367549 -3.961679,-0.817223 -0.329234,-0.164617 -0.505551,-0.34317 -0.524199,-0.530303 -0.02068,-0.20795 0.168178,-0.357343 0.169872,-0.358937 l -0.02677,-0.04028 c -0.358056,0.206221 -0.552343,0.450215 -0.576755,0.725303 -0.02645,0.296685 0.157667,0.565159 0.323471,0.704888 0.660167,0.556684 2.662028,1.027006 4.371611,1.027006 3.526994,0 4.50724,-0.799594 4.765271,-1.143442 l 0.0071,-0.0095 c 0.209204,-0.273492 0.277018,-0.585165 0.18547,-0.922099 -0.614067,-2.267572 -7.468341,-5.255445 -10.053061,-6.411329 z M 17.181411,12.67651 c 0,-2.236835 0.197609,-4.1529121 0.610052,-5.4939281 0.200391,-0.652029 0.697736,-2.047297 1.526488,-2.027631 0.599474,0.01424 1.050571,0.808339 1.227937,1.123673 -0.330219,1.451554 -0.588622,3.166223 -0.581604,5.3277851 0.006,1.923876 0.378807,3.221491 0.829158,4.713054 -0.260134,1.60549 -0.746492,2.94722 -1.763563,4.194754 -0.534304,-0.520777 -1.848468,-2.796436 -1.848468,-7.837707 z m 2.266742,8.151345 c 0.700515,-0.986893 1.273102,-2.02858 1.665133,-3.785159 0.443062,1.056435 1.564225,2.59218 2.484593,3.266349 -0.767921,0.747411 -2.572006,1.579856 -4.149726,0.51881 z m 3.753592,-4.604688 c -0.266745,-1.536321 -0.407697,-3.483591 -0.407697,-5.63125 0,-2.1863151 0.228499,-4.2122501 0.630601,-5.7044921 0.416546,-1.545813 0.99442,-2.396875 1.639837,-2.396875 0.929014,0 1.444907,1.24133 1.566736,1.356613 -0.51403,1.262014 -1.006188,4.329568 -1.006188,6.4019541 0,1.270153 0.242638,3.274725 0.54129,4.471637 1.35e-4,-0.0014 4.07e-4,-0.0027 5.42e-4,-0.0041 l 5.43e-4,0.0088 c -4.08e-4,-0.0016 -6.78e-4,-0.0034 -0.0011,-0.0047 -0.148581,1.673644 -0.679053,3.42595 -1.804997,4.790837 -0.554956,-0.728999 -0.894838,-1.763632 -1.159582,-3.288424 z m 3.890269,4.493676 c -1.174024,0.158687 -2.282608,-0.674949 -2.444988,-0.855604 1.453078,-1.709246 1.809777,-4.102596 1.809777,-4.102596 0.943288,2.855059 2.265386,3.877692 2.538642,4.137555 -0.259218,0.214834 -0.976417,0.695362 -1.903431,0.820645 z m 1.573754,-7.102469 c -0.160379,-2.066283 -0.118946,-3.8979331 -0.1184,-3.9165811 0.01402,-4.049498 0.634162,-7.163843 1.690461,-8.203088 0.234028,-0.229889 0.479717,-0.346528 0.738257,-0.344494 1.295886,0.01086 2.042209,2.953627 2.108703,3.082812 -0.685803,1.527166 -1.336001,4.499441 -1.312572,7.4117021 0.0079,0.988722 0.03354,1.729248 0.247825,2.929891 -0.02583,0.20378 -0.237752,1.499701 -1.010968,2.933283 -0.16967,0.314995 -0.561734,1.031379 -1.083696,1.582364 -0.697734,-0.891241 -1.050976,-2.787754 -1.259607,-5.475889 z m 1.497463,5.81282 c 1.251537,-1.262217 1.835616,-2.612013 2.07032,-3.845883 0.211512,0.836144 0.841194,3.024593 2.450246,4.646664 -2.238734,1.334302 -4.144946,-0.341578 -4.520566,-0.800781 z m 5.728328,-0.09243 c -0.737475,-1.588504 -1.016866,-3.640206 -1.155885,-5.267736 -0.150208,-1.765192 -0.128508,-3.206232 -0.128169,-3.220812 0.0085,-2.4368861 0.245488,-4.5214801 0.672373,-6.0272841 0.208868,-0.737135 0.455031,-1.312196 0.738831,-1.702464 0.267866,-0.368228 0.59371,-0.563871 0.938203,-0.58591 1.240653,-0.07866 2.161563,3.087559 2.238531,3.469689 -0.487919,0.830379 -1.560394,3.80808 -1.53632,7.4174641 0.01216,1.835039 0.139357,2.18767 0.227854,2.794944 -0.05289,0.621851 -1.034158,2.24755 -1.995418,3.122109 z m 2.015763,1.994537 c -0.781553,-0.204492 -1.400016,-0.926471 -1.774685,-1.606473 0.697803,-0.638669 1.465116,-1.677475 1.947611,-2.757441 0.07798,0.626937 0.968719,2.884593 2.002879,4.010131 -0.281428,0.172212 -1.158938,0.619883 -2.175805,0.353783 z m 2.636259,-4.010943 c -0.216325,-1.266761 -0.307875,-2.785111 -0.268203,-4.642529 0.10002,-4.6462561 0.861235,-7.5324091 2.070352,-7.5252881 0.756122,0.0045 1.233532,1.547849 1.456299,2.823425 0.209885,1.20471 0.328559,2.5562381 0.278378,4.0389861 -0.09392,2.763069 -0.817495,4.725259 -1.348477,5.951737 -0.289904,0.669286 -0.886326,1.612304 -1.382383,2.083036 -0.296347,-0.497212 -0.626259,-1.677477 -0.805966,-2.729367 z m 8.747632,-4.184108 c 0,0 -1.383062,-0.790369 -2.22802,-1.818084 -0.476731,-0.580148 -0.989741,-1.3928951 -0.69543,-2.1663101 0.114947,-0.302111 0.449605,-0.476731 0.877847,-0.447231 0.738492,0.05086 1.623123,0.652367 1.92286,1.9387951 0.13122,0.565227 0.260742,1.270828 0.122744,2.49283"
     inkscape:connector-curvature="0"
     id="path22"
     style="fill:#ffffff;fill-opacity:1;fill-rule:evenodd;stroke:none;stroke-width:0.03390686" />
  <path
     d="M 1.5148992,22.863378 H 0.21213309 c 0.146488,0.354565 0.223576,0.716826 0.223576,1.372178 v 2.751881 c 0,0.9637 -0.107943,1.295206 -0.223576,1.657468 H 1.5148992 C 1.3453662,28.035906 1.2991402,27.70426 1.2991402,27.049147 v -2.659418 c 0,-0.871136 0.107818,-1.187146 0.215759,-1.526351"
     inkscape:connector-curvature="0"
     id="path24"
     style="fill:#ffffff;fill-opacity:1;fill-rule:evenodd;stroke:none;stroke-width:0.03390686" />
  <path
     d="m 9.6231432,24.096741 c 0,-0.616666 0.06941,-0.925012 0.146477,-1.233363 h -1.110043 c 0.09256,0.331405 0.161973,0.601203 0.161973,1.665029 v 2.628699 l -2.613336,-3.314803 c -0.454828,-0.578112 -0.50874,-0.716789 -0.616665,-0.978925 h -1.380009 c 0.347035,0.277492 0.501075,0.42397 0.778671,0.778536 v 3.476639 c 0,0.107954 -0.0078,0.925048 -0.192692,1.526352 h 1.225664 C 5.8458512,28.174718 5.7919392,27.457758 5.7919392,26.948883 V 24.66719 l 2.459162,3.145133 c 0.200391,0.254301 0.393117,0.524232 0.493244,0.832582 h 1.071659 c -0.08491,-0.239076 -0.192861,-0.547425 -0.192861,-1.441584 v -3.10658"
     inkscape:connector-curvature="0"
     id="path26"
     style="fill:#ffffff;fill-opacity:1;fill-rule:evenodd;stroke:none;stroke-width:0.03390686" />
  <path
     d="m 15.297523,23.711319 0.470323,-0.847941 h -3.168324 c 0.09246,0.308351 0.192726,0.624361 0.192726,1.449146 v 2.713464 c 0,0.239077 -0.0077,0.894294 -0.192726,1.618917 h 1.233226 C 13.701766,28.19774 13.65555,27.796825 13.65555,27.334336 v -1.29497 c 0.716928,-0.0077 1.071491,0.09248 1.472304,0.262136 l 0.439569,-0.83272 H 13.65555 v -2.05045 c 0.763176,0.02321 1.017613,0.04626 1.641973,0.292987"
     inkscape:connector-curvature="0"
     id="path28"
     style="fill:#ffffff;fill-opacity:1;fill-rule:evenodd;stroke:none;stroke-width:0.03390686" />
  <path
     d="m 20.48724,22.817028 c -2.011897,0 -3.16829,1.587926 -3.16829,2.87547 0,1.480102 1.156393,2.99096 3.021948,2.99096 1.634142,0 3.021678,-1.148597 3.021678,-2.952439 0,-1.464744 -0.963564,-2.913991 -2.875336,-2.913991 z m 0.09246,5.242069 c -1.102244,0 -2.289391,-0.932845 -2.289391,-2.497614 0,-1.117842 0.747681,-2.127657 1.911771,-2.127657 1.348985,0 2.266334,1.310467 2.266334,2.513108 0,0.901823 -0.601202,2.112163 -1.888713,2.112163"
     inkscape:connector-curvature="0"
     id="path30"
     style="fill:#ffffff;fill-opacity:1;fill-rule:evenodd;stroke:none;stroke-width:0.03390686" />
  <path
     d="m 30.516927,25.72322 h -1.410592 c 0.215781,0.292988 0.385317,0.524234 0.385317,1.418389 v 0.639995 c -0.269663,0.107684 -0.493245,0.20039 -1.017478,0.20039 -1.487801,0 -2.343408,-1.017614 -2.343408,-2.281969 0,-1.549373 1.102213,-2.266196 2.081273,-2.266196 0.824886,0 1.449282,0.323708 1.834701,0.524098 v -0.963566 c -0.354699,-0.08478 -0.801727,-0.192693 -1.50316,-0.192693 -1.225833,0 -1.958121,0.285293 -2.574684,1.025139 -0.478018,0.570586 -0.724624,1.318265 -0.724624,2.050587 0,1.094681 0.593506,2.806064 3.191484,2.806064 1.063693,0 1.634142,-0.223447 2.027259,-0.377758 -0.107931,-0.393252 -0.107931,-0.508875 -0.107931,-0.894156 v -0.686207 c 0,-0.562651 0.100127,-0.824784 0.161839,-1.002117"
     inkscape:connector-curvature="0"
     id="path32"
     style="fill:#ffffff;fill-opacity:1;fill-rule:evenodd;stroke:none;stroke-width:0.03390686" />
  <path
     d="m 36.405836,24.513049 c 0,-0.778671 -0.701193,-1.672828 -2.189026,-1.649671 l -1.125371,0.01549 c 0.06171,0.200254 0.153938,0.516436 0.153938,1.194708 v 3.075727 c 0,0.501041 -0.03085,0.925282 -0.153938,1.495596 H 34.26326 C 34.108985,28.028095 34.101185,27.84303 34.101185,27.396034 v -1.426087 c 1.194879,1.587926 1.549546,2.004234 2.328047,2.674945 h 0.793758 c -0.685934,-0.82475 -1.395266,-1.680524 -1.911668,-2.590042 0.262101,-0.138815 1.094514,-0.601305 1.094514,-1.541814 z m -2.304651,1.372144 v -2.528436 c 1.156225,0.115617 1.426125,0.80939 1.426125,1.24106 0,0.886461 -0.878867,1.133199 -1.426125,1.287376"
     inkscape:connector-curvature="0"
     id="path34"
     style="fill:#ffffff;fill-opacity:1;fill-rule:evenodd;stroke:none;stroke-width:0.03390686" />
  <path
     d="m 41.55934,22.840221 h -0.04645 l -2.227681,4.424844 c -0.478087,0.948172 -0.647621,1.156394 -0.840552,1.37984 h 1.410866 c -0.03085,-0.454963 0.192928,-0.955867 0.292954,-1.171786 l 0.259727,-0.550309 h 2.092732 l 0.307196,0.704483 c 0.207848,0.470187 0.238704,0.763174 0.238704,1.017612 l 1.37221,1.36e-4 c -0.215651,-0.292989 -0.485548,-0.678544 -0.901925,-1.5805 z m -0.846992,3.410149 0.783248,-1.629532 0.692377,1.629532 h -1.475625"
     inkscape:connector-curvature="0"
     id="path36"
     style="fill:#ffffff;fill-opacity:1;fill-rule:evenodd;stroke:none;stroke-width:0.03390686" />
  <path
     d="m 52.517022,22.886434 h -1.133169 c -0.169533,0.308349 -0.246501,0.400914 -0.416036,0.609003 l -1.726877,2.135319 -1.580399,-1.965785 c -0.308214,-0.377623 -0.40078,-0.562651 -0.501142,-0.801593 h -1.310501 l 0.570652,0.632059 v 3.607621 c 0,0.894292 -0.146479,1.272051 -0.2621,1.541847 h 1.372211 c -0.246843,-0.555087 -0.246843,-1.194946 -0.246843,-1.287272 v -2.890832 l 1.958122,2.420508 1.942526,-2.420508 v 2.744217 c 0,0.555088 -0.06171,1.002219 -0.254641,1.433887 h 1.387808 c -0.254304,-0.562786 -0.262101,-1.110044 -0.262101,-1.526352 v -2.844582 c 0,-0.840145 0.223785,-1.102244 0.46249,-1.387537"
     inkscape:connector-curvature="0"
     id="path38"
     style="fill:#ffffff;fill-opacity:1;fill-rule:evenodd;stroke:none;stroke-width:0.03390686" />
  <path
     d="m 56.088771,25.985453 c 0.439772,0.03076 0.655418,0.06161 1.318297,0.254303 l 0.493345,-0.809389 h -1.811642 v -2.019698 c 0.609305,-0.0232 0.948374,0.05391 1.595995,0.346868 l 0.439094,-0.894159 h -3.114006 c 0.161737,0.501076 0.215648,1.071524 0.215648,1.46464 v 2.829088 c 0,0.739984 -0.115629,1.148597 -0.215648,1.487802 h 3.029239 l 0.424175,-0.963566 c -1.225733,0.416138 -1.634311,0.416138 -2.374497,0.416138 v -2.112027"
     inkscape:connector-curvature="0"
     id="path40"
     style="fill:#ffffff;fill-opacity:1;fill-rule:evenodd;stroke:none;stroke-width:0.03390686" />
  <path
     d="m 62.58363,25.546124 c -0.72459,-0.416412 -1.210474,-0.701704 -1.210474,-1.248994 0,-0.454827 0.393318,-0.778534 0.894462,-0.778534 0.516402,0 0.840213,0.254303 1.094514,0.454725 v -0.894192 c -0.277697,-0.115493 -0.647621,-0.277461 -1.171822,-0.277461 -0.948035,0 -1.711279,0.75548 -1.711279,1.67283 0,0.878796 0.493345,1.18701 1.726877,1.957985 0.169533,0.107953 0.485546,0.362259 0.485546,0.763174 0,0.408614 -0.362464,0.809393 -0.863268,0.809393 -0.532,0 -0.871407,-0.400779 -1.133167,-0.701602 v 1.225834 c 0.269896,0.07707 0.539457,0.154176 0.994148,0.154176 1.210475,0 1.958121,-0.69377 1.958121,-1.649808 0,-0.554952 -0.231244,-1.009643 -1.063658,-1.487526"
     inkscape:connector-curvature="0"
     id="path42"
     style="fill:#ffffff;fill-opacity:1;fill-rule:evenodd;stroke:none;stroke-width:0.03390686" />
  <path
     d="m 39.404311,20.037012 c -1.084682,-1.753496 -1.810289,-3.811131 -1.756037,-6.815959 0.05695,-3.154015 0.863268,-6.3944941 1.92218,-7.8331621 0.602864,-0.818851 1.338982,-1.267099 2.112396,-1.236922 0.606595,0.02373 0.860558,0.30211 1.184028,0.567261 0,0 -0.77172,0.05595 -1.420019,1.059929 -0.537423,0.832753 -1.110111,3.316431 -1.165379,6.7803541 -0.07867,4.924972 0.72493,6.884451 1.140289,7.629213 1.07688,1.931235 2.480965,2.254535 2.480965,2.254535 -1.32135,0.172044 -3.003131,-0.465166 -3.823,-1.463149 -0.200728,-0.2445 -0.40756,-0.509281 -0.675423,-0.9421"
     inkscape:connector-curvature="0"
     id="path44"
     style="fill:#ffffff;fill-opacity:1;fill-rule:evenodd;stroke:none;stroke-width:0.03390686" />
  <path
     d="m 17.985513,6.6068429 c -0.486225,1.420019 -0.759446,2.838004 -0.797997,5.9676061 -0.05419,4.403485 1.112959,7.392205 1.96541,8.037113 1.831615,1.386216 2.887645,1.123944 2.887645,1.123944 -1.198269,0.349006 -2.350458,0.344258 -3.733859,-0.526741 -2.378905,-1.497869 -3.692016,-5.037136 -3.717175,-7.917185 -0.02702,-3.103495 0.644604,-6.1330731 1.903395,-7.8931781 0.571264,-0.798846 1.316029,-1.275576 2.063572,-1.273542 0.865135,0.002 1.449927,0.64084 1.449927,0.64084 0,0 -1.26822,-0.358056 -2.020918,1.841143"
     inkscape:connector-curvature="0"
     id="path46"
     style="fill:#ffffff;fill-opacity:1;fill-rule:evenodd;stroke:none;stroke-width:0.03390686" />
  <path
     d="m 19.962589,11.387711 c 0.01986,-3.5781921 0.749104,-6.7728971 2.089103,-8.6198031 0.645145,-0.889377 1.396283,-1.390182 2.235987,-1.395268 0.592185,-0.0037 1.017207,0.203102 1.451894,0.544884 5.42e-4,0.01086 -0.927659,0.03798 -1.564599,1.115535 -0.627005,1.060607 -1.35163,3.263536 -1.362107,7.5703871 -0.01167,4.805956 0.670202,7.40363 1.236278,8.418327 0.964481,1.728738 2.7372,2.224086 2.7372,2.224086 -0.822242,0.0094 -1.713247,0.09032 -3.026053,-0.820005 -1.727825,-1.197861 -3.824218,-4.284741 -3.797703,-9.038143"
     inkscape:connector-curvature="0"
     id="path48"
     style="fill:#ffffff;fill-opacity:1;fill-rule:evenodd;stroke:none;stroke-width:0.03390686" />
  <path
     d="m 25.612828,10.189782 c -0.03829,-2.2504001 0.658404,-6.8034131 2.159326,-8.7269491 0.788605,-1.01076399 1.447788,-1.47054099 2.367241,-1.46104699 0.341475,0.0034 0.877474,0.07493 1.501699,0.601847 0,0 -0.913482,-0.03221 -1.70965,1.27320199 -0.627514,1.029074 -1.31718,3.052296 -1.371634,7.518508 -0.06157,5.0565291 0.5143,8.3814371 1.189657,9.4210211 1.557071,2.397455 2.777446,2.37494 2.777446,2.37494 -0.266069,0.08688 -2.405524,-0.112609 -3.964458,-1.698938 -1.44579,-1.47071 -2.867098,-4.456956 -2.949627,-9.302584"
     inkscape:connector-curvature="0"
     id="path50"
     style="fill:#ffffff;fill-opacity:1;fill-rule:evenodd;stroke:none;stroke-width:0.03390686" />
  <path
     d="m 31.76282,11.423653 c 0.02187,-3.0536541 0.682243,-6.1178171 1.694227,-7.9654021 0.962615,-1.757392 2.044244,-2.045261 2.667113,-2.050008 0.390947,-0.003 0.912774,0.127489 1.428836,0.563532 0,0 -0.938204,0.262778 -1.59091,1.243025 -0.52081,0.78291 -1.284054,2.847838 -1.350173,7.3479561 -0.04747,3.228611 0.398746,7.260138 1.395607,8.951343 1.178603,2.000099 2.096801,2.296377 2.096801,2.296377 -0.904974,0 -2.372803,-0.451368 -3.594466,-1.765395 -1.554189,-1.671643 -2.776023,-4.564474 -2.747035,-8.621428"
     inkscape:connector-curvature="0"
     id="path52"
     style="fill:#ffffff;fill-opacity:1;fill-rule:evenodd;stroke:none;stroke-width:0.03390686" />
</svg>
