<?xml version="1.0" encoding="UTF-8" standalone="no"?>
<svg
   xmlns:dc="http://purl.org/dc/elements/1.1/"
   xmlns:cc="http://creativecommons.org/ns#"
   xmlns:rdf="http://www.w3.org/1999/02/22-rdf-syntax-ns#"
   xmlns:svg="http://www.w3.org/2000/svg"
   xmlns="http://www.w3.org/2000/svg"
   xmlns:sodipodi="http://sodipodi.sourceforge.net/DTD/sodipodi-0.dtd"
   xmlns:inkscape="http://www.inkscape.org/namespaces/inkscape"
   width="500"
   height="200"
   viewBox="0 0 500 200"
   version="1.1"
   id="svg126"
   sodipodi:docname="intellivision.svg"
   inkscape:version="0.92.5 (2060ec1f9f, 2020-04-08)">
  <metadata
     id="metadata132">
    <rdf:RDF>
      <cc:Work
         rdf:about="">
        <dc:format>image/svg+xml</dc:format>
        <dc:type
           rdf:resource="http://purl.org/dc/dcmitype/StillImage" />
        <dc:title>syslogo</dc:title>
      </cc:Work>
    </rdf:RDF>
  </metadata>
  <defs
     id="defs130" />
  <sodipodi:namedview
     pagecolor="#ffffff"
     bordercolor="#666666"
     borderopacity="1"
     objecttolerance="10"
     gridtolerance="10"
     guidetolerance="10"
     inkscape:pageopacity="0"
     inkscape:pageshadow="2"
     inkscape:window-width="1366"
     inkscape:window-height="740"
     id="namedview128"
     showgrid="false"
     inkscape:pagecheckerboard="true"
     inkscape:zoom="1.3939439"
     inkscape:cx="209.5"
     inkscape:cy="42.5"
     inkscape:window-x="0"
     inkscape:window-y="0"
     inkscape:window-maximized="1"
     inkscape:current-layer="svg126" />
  <title
     id="title58">syslogo</title>
  <g
     id="Page-1"
     style="fill:none;fill-rule:evenodd;stroke:none;stroke-width:1"
     transform="matrix(1.1903556,0,0,1.1903556,0,52.93943)">
    <g
       id="syslogo">
      <path
         d="m 144.77424,18.17088 h 6.00912 c 0.79872,0 1.4469,-0.39936 1.4469,-1.15752 0,-0.75738 -0.64818,-1.19418 -1.4469,-1.19418 h -6.00912"
         id="Fill-1"
         inkscape:connector-curvature="0"
         style="fill:#ffffff" />
      <path
         d="m 144.77424,18.17088 h 6.00912 c 0.79872,0 1.4469,-0.39936 1.4469,-1.15752 0,-0.75738 -0.64818,-1.19418 -1.4469,-1.19418 h -6.00912"
         id="Stroke-2"
         inkscape:connector-curvature="0" />
      <path
         d="m 129.46362,0.20826 c -0.79872,0 -1.44612,0.39858 -1.44612,1.15674 l 0.008,5.47248 c 0,0.79872 -0.39858,1.4469 -1.15674,1.4469 l -1.5561,0.02886 c -0.7995,0 -1.44612,0.39858 -1.44612,1.15674 l -0.0889,7.46226 c 0,0.75816 0.64896,1.19418 1.4469,1.19418 l 11.7039,0.04446 c 0.7995,0 1.4469,-0.39936 1.4469,-1.15752 0,-0.75738 -0.6474,-1.19418 -1.4469,-1.19418 l -9.1806,0.02418 c -0.7995,0 -1.44846,-0.4368 -1.44846,-1.19418 l 0.0881,-2.7885 c 0,-0.75738 0.64818,-1.15674 1.44768,-1.15674 l 9.09324,0.01248 c 0.7995,0 1.4469,-0.3978 1.4469,-1.15674 0,-0.75738 -0.6474,-1.19418 -1.4469,-1.19418 l -2.0196,-0.01638 c -0.7995,0 -1.4469,-0.43602 -1.4469,-1.19418 l 0.0889,-3.41952 c 0,-0.75816 0.6474,-1.15674 1.4469,-1.15674 l 1.9305,-0.01716 c 0.7995,0 1.4469,-0.39858 1.4469,-1.15674 0,-0.75816 -0.6474,-1.19418 -1.4469,-1.19418 l -7.4646,-0.00234"
         id="Fill-3"
         inkscape:connector-curvature="0"
         style="fill:#ffffff" />
      <path
         d="m 129.46362,0.20826 c -0.79872,0 -1.44612,0.39858 -1.44612,1.15674 l 0.008,5.47248 c 0,0.79872 -0.39858,1.4469 -1.15674,1.4469 l -1.5561,0.02886 c -0.7995,0 -1.44612,0.39858 -1.44612,1.15674 l -0.0889,7.46226 c 0,0.75816 0.64896,1.19418 1.4469,1.19418 l 11.7039,0.04446 c 0.7995,0 1.4469,-0.39936 1.4469,-1.15752 0,-0.75738 -0.6474,-1.19418 -1.4469,-1.19418 l -9.1806,0.02418 c -0.7995,0 -1.44846,-0.4368 -1.44846,-1.19418 l 0.0881,-2.7885 c 0,-0.75738 0.64818,-1.15674 1.44768,-1.15674 l 9.09324,0.01248 c 0.7995,0 1.4469,-0.3978 1.4469,-1.15674 0,-0.75738 -0.6474,-1.19418 -1.4469,-1.19418 l -2.0196,-0.01638 c -0.7995,0 -1.4469,-0.43602 -1.4469,-1.19418 l 0.0889,-3.41952 c 0,-0.75816 0.6474,-1.15674 1.4469,-1.15674 l 1.9305,-0.01716 c 0.7995,0 1.4469,-0.39858 1.4469,-1.15674 0,-0.75816 -0.6474,-1.19418 -1.4469,-1.19418 z"
         id="Stroke-4"
         inkscape:connector-curvature="0" />
      <path
         d="m 239.80086,10.4442 c -0.79872,0 -1.4469,-0.39858 -1.4469,-1.15674 l -0.0881,-7.96692 c 0,-0.75738 0.6474,-1.19496 1.44612,-1.19496 l 8.54568,-0.04368 c 0.7995,0 1.44768,0.39858 1.44768,1.15674 0,0.75816 -0.64818,1.19418 -1.44768,1.19418 l -6.02238,-0.0234 c -0.80028,0 -1.44768,0.4368 -1.44768,1.19418 l 0.0881,3.29316 c 0,0.75894 0.64818,1.15674 1.44768,1.15674 l 6.9459,-0.01248 c 0.7995,0 1.4469,0.39858 1.4469,1.15674 l -0.0897,7.8156 c 0,0.75894 -0.6474,1.15752 -1.44534,1.15752 l -11.25462,-0.0031 c -0.7995,0 -1.44612,-0.43602 -1.44612,-1.19418 0,-0.75816 0.64662,-1.15596 1.44612,-1.15596 l 5.97324,-0.01716 c 0.7995,0 1.4469,-0.39936 1.4469,-1.15674 l 0.0874,-2.91486 c 0,-0.75738 -0.6474,-1.19418 -1.44612,-1.19418 l -4.18704,-0.09048"
         id="Fill-5"
         inkscape:connector-curvature="0"
         style="fill:#ffffff" />
      <path
         d="m 239.80086,10.4442 c -0.79872,0 -1.4469,-0.39858 -1.4469,-1.15674 l -0.0881,-7.96692 c 0,-0.75738 0.6474,-1.19496 1.44612,-1.19496 l 8.54568,-0.04368 c 0.7995,0 1.44768,0.39858 1.44768,1.15674 0,0.75816 -0.64818,1.19418 -1.44768,1.19418 l -6.02238,-0.0234 c -0.80028,0 -1.44768,0.4368 -1.44768,1.19418 l 0.0881,3.29316 c 0,0.75894 0.64818,1.15674 1.44768,1.15674 l 6.9459,-0.01248 c 0.7995,0 1.4469,0.39858 1.4469,1.15674 l -0.0897,7.8156 c 0,0.75894 -0.6474,1.15752 -1.44534,1.15752 l -11.25462,-0.0031 c -0.7995,0 -1.44612,-0.43602 -1.44612,-1.19418 0,-0.75816 0.64662,-1.15596 1.44612,-1.15596 l 5.97324,-0.01716 c 0.7995,0 1.4469,-0.39936 1.4469,-1.15674 l 0.0874,-2.91486 c 0,-0.75738 -0.6474,-1.19418 -1.44612,-1.19418 z"
         id="Stroke-6"
         inkscape:connector-curvature="0" />
      <path
         d="m 100.43826,0.20826 c -0.79872,0 -1.44612,0.39858 -1.44612,1.15674 l 0.0078,5.47248 c 0,0.79872 -0.3978,1.4469 -1.15674,1.4469 l -1.5561,0.02886 c -0.79872,0 -1.44612,0.39858 -1.44612,1.15674 l -0.08892,7.46226 c 0,0.75816 0.64818,1.19418 1.44768,1.19418 l 11.70234,0.04446 c 0.80028,0 1.44768,-0.39936 1.44768,-1.15752 0,-0.75738 -0.6474,-1.19418 -1.44768,-1.19418 l -9.1806,0.02418 c -0.79872,0 -1.4469,-0.4368 -1.4469,-1.19418 l 0.08736,-2.7885 c 0,-0.75738 0.64818,-1.15674 1.4469,-1.15674 l 9.09324,0.01248 c 0.80028,0 1.44768,-0.3978 1.44768,-1.15674 0,-0.75738 -0.6474,-1.19418 -1.44768,-1.19418 l -2.01786,-0.01638 c -0.7995,0 -1.4469,-0.43602 -1.4469,-1.19418 l 0.0874,-3.41952 c 0,-0.75816 0.6474,-1.15674 1.4469,-1.15674 l 1.9305,-0.01716 c 0.80028,0 1.44768,-0.39858 1.44768,-1.15674 0,-0.75816 -0.6474,-1.19418 -1.44768,-1.19418 L 100.4383,0.20826"
         id="Fill-7"
         inkscape:connector-curvature="0"
         style="fill:#ffffff" />
      <path
         d="m 100.43826,0.20826 c -0.79872,0 -1.44612,0.39858 -1.44612,1.15674 l 0.0078,5.47248 c 0,0.79872 -0.3978,1.4469 -1.15674,1.4469 l -1.5561,0.02886 c -0.79872,0 -1.44612,0.39858 -1.44612,1.15674 l -0.08892,7.46226 c 0,0.75816 0.64818,1.19418 1.44768,1.19418 l 11.70234,0.04446 c 0.80028,0 1.44768,-0.39936 1.44768,-1.15752 0,-0.75738 -0.6474,-1.19418 -1.44768,-1.19418 l -9.1806,0.02418 c -0.79872,0 -1.4469,-0.4368 -1.4469,-1.19418 l 0.08736,-2.7885 c 0,-0.75738 0.64818,-1.15674 1.4469,-1.15674 l 9.09324,0.01248 c 0.80028,0 1.44768,-0.3978 1.44768,-1.15674 0,-0.75738 -0.6474,-1.19418 -1.44768,-1.19418 l -2.01786,-0.01638 c -0.7995,0 -1.4469,-0.43602 -1.4469,-1.19418 l 0.0874,-3.41952 c 0,-0.75816 0.6474,-1.15674 1.4469,-1.15674 l 1.9305,-0.01716 c 0.80028,0 1.44768,-0.39858 1.44768,-1.15674 0,-0.75816 -0.6474,-1.19418 -1.44768,-1.19418 z"
         id="Stroke-8"
         inkscape:connector-curvature="0" />
      <path
         d="m 140.87736,16.93224 c 0,0.75816 0.64818,1.19418 1.4469,1.19418 l 8.4591,0.04446 c 0.79872,0 1.44612,-0.39936 1.44612,-1.15752 0,-0.75738 -0.6474,-1.19418 -1.44612,-1.19418 l -5.93736,0.02418 c -0.79872,0 -1.4469,-0.4368 -1.4469,-1.19418 l 0.0881,-8.31324 c 0,-0.75738 0.6474,-1.15674 1.4469,-1.15674 l 5.93658,0.01248 c 0.7995,0 1.4469,-0.3978 1.4469,-1.15596 V 1.26828 c 0,-0.75816 -0.6474,-1.19418 -1.4469,-1.19418 l -8.4591,-0.05226 c -0.7995,0 -1.44534,0.39858 -1.44534,1.15674 l -0.0889,15.75366"
         id="Fill-9"
         inkscape:connector-curvature="0"
         style="fill:#ffffff" />
      <path
         d="m 140.87736,16.93224 c 0,0.75816 0.64818,1.19418 1.4469,1.19418 l 8.4591,0.04446 c 0.79872,0 1.44612,-0.39936 1.44612,-1.15752 0,-0.75738 -0.6474,-1.19418 -1.44612,-1.19418 l -5.93736,0.02418 c -0.79872,0 -1.4469,-0.4368 -1.4469,-1.19418 l 0.0881,-8.31324 c 0,-0.75738 0.6474,-1.15674 1.4469,-1.15674 l 5.93658,0.01248 c 0.7995,0 1.4469,-0.3978 1.4469,-1.15596 V 1.26828 c 0,-0.75816 -0.6474,-1.19418 -1.4469,-1.19418 l -8.4591,-0.05226 c -0.7995,0 -1.44534,0.39858 -1.44534,1.15674 z"
         id="Stroke-10"
         inkscape:connector-curvature="0" />
      <path
         d="m 224.35998,16.93224 c 0,0.75816 0.6474,1.19418 1.44534,1.19418 l 8.45988,0.04446 c 0.79872,0 1.44534,-0.39858 1.44534,-1.15752 0,-0.75738 -0.64662,-1.19418 -1.44534,-1.19418 l -5.93736,0.02418 c -0.79872,0 -1.44612,-0.4368 -1.44612,-1.19418 l 0.0866,-8.31324 c 0,-0.75738 0.64818,-1.15674 1.44768,-1.15674 l 5.93658,0.01248 c 0.7995,0 1.4469,-0.3978 1.4469,-1.15596 V 1.26828 c 0,-0.75816 -0.6474,-1.19418 -1.4469,-1.19418 l -8.4591,-0.05226 c -0.79872,0 -1.44612,0.39858 -1.44612,1.15674 l -0.0874,15.75366"
         id="Fill-12"
         inkscape:connector-curvature="0"
         style="fill:#ffffff" />
      <path
         d="m 224.35998,16.93224 c 0,0.75816 0.6474,1.19418 1.44534,1.19418 l 8.45988,0.04446 c 0.79872,0 1.44534,-0.39858 1.44534,-1.15752 0,-0.75738 -0.64662,-1.19418 -1.44534,-1.19418 l -5.93736,0.02418 c -0.79872,0 -1.44612,-0.4368 -1.44612,-1.19418 l 0.0866,-8.31324 c 0,-0.75738 0.64818,-1.15674 1.44768,-1.15674 l 5.93658,0.01248 c 0.7995,0 1.4469,-0.3978 1.4469,-1.15596 V 1.26828 c 0,-0.75816 -0.6474,-1.19418 -1.4469,-1.19418 l -8.4591,-0.05226 c -0.79872,0 -1.44612,0.39858 -1.44612,1.15674 z"
         id="Stroke-13"
         inkscape:connector-curvature="0" />
      <path
         d="m 196.78152,1.17858 c 0,-0.75816 -0.6474,-1.15674 -1.4469,-1.15674 h -9.86778 c -0.79872,0 -1.4469,0.39858 -1.4469,1.15674 l -0.0881,15.75366 c 0,0.75816 0.64818,1.19418 1.44768,1.19418 h 10.04328 c 0.79872,0 1.44768,-0.43602 1.44768,-1.19418 z m -3.67614,12.0939 h -5.4093 c -0.79872,0 -1.4469,-0.4368 -1.4469,-1.19418 l 0.0881,-8.31324 c 0,-0.75738 0.64818,-1.15596 1.44612,-1.15596 h 5.2338 c 0.79872,0 1.4469,0.39858 1.4469,1.15596 l 0.0881,8.31324 c 0,0.75738 -0.64818,1.19418 -1.4469,1.19418 z"
         id="Fill-15"
         inkscape:connector-curvature="0"
         style="fill:#ffffff" />
      <path
         d="m 196.78152,1.17858 c 0,-0.75816 -0.6474,-1.15674 -1.4469,-1.15674 h -9.86778 c -0.79872,0 -1.4469,0.39858 -1.4469,1.15674 l -0.0881,15.75366 c 0,0.75816 0.64818,1.19418 1.44768,1.19418 h 10.04328 c 0.79872,0 1.44768,-0.43602 1.44768,-1.19418 z m -3.67614,12.0939 h -5.4093 c -0.79872,0 -1.4469,-0.4368 -1.4469,-1.19418 l 0.0881,-8.31324 c 0,-0.75738 0.64818,-1.15596 1.44612,-1.15596 h 5.2338 c 0.79872,0 1.4469,0.39858 1.4469,1.15596 l 0.0881,8.31324 c 0,0.75738 -0.64818,1.19418 -1.4469,1.19418 z"
         id="Stroke-16"
         inkscape:connector-curvature="0" />
      <path
         d="m 212.59368,1.21602 c 0,-0.75816 -0.64818,-1.19418 -1.44768,-1.19418 h -10.04328 c -0.79872,0 -1.44612,0.43602 -1.44612,1.19418 l 0.0725,2.35638 -0.0725,13.07436 c 0,0.7995 0.3978,1.4469 1.15596,1.4469 0.75738,0 1.19418,-0.6474 1.19418,-1.4469 l -7.8e-4,-10.28508 c 0,-0.75816 0.64818,-1.19418 1.44612,-1.19418 h 5.28216 c 0.80028,0 1.44768,0.43602 1.44768,1.19418 l 0.0608,10.25388 c 0,0.7995 0.39936,1.4469 1.15596,1.4469 0.75816,0 1.19496,-0.6474 1.19496,-1.4469 l -0.003,-11.4075 0.003,-3.99204"
         id="Fill-18"
         inkscape:connector-curvature="0"
         style="fill:#ffffff" />
      <path
         d="m 212.59368,1.21602 c 0,-0.75816 -0.64818,-1.19418 -1.44768,-1.19418 h -10.04328 c -0.79872,0 -1.44612,0.43602 -1.44612,1.19418 l 0.0725,2.35638 -0.0725,13.07436 c 0,0.7995 0.3978,1.4469 1.15596,1.4469 0.75738,0 1.19418,-0.6474 1.19418,-1.4469 l -7.8e-4,-10.28508 c 0,-0.75816 0.64818,-1.19418 1.44612,-1.19418 h 5.28216 c 0.80028,0 1.44768,0.43602 1.44768,1.19418 l 0.0608,10.25388 c 0,0.7995 0.39936,1.4469 1.15596,1.4469 0.75816,0 1.19496,-0.6474 1.19496,-1.4469 l -0.003,-11.4075 z"
         id="Stroke-19"
         inkscape:connector-curvature="0" />
      <path
         d="m 160.4109,6.33594 c 0,-0.75738 0.64818,-1.15674 1.44612,-1.15674 l 1.81584,0.01248 c 0.7995,0 1.4469,-0.3978 1.4469,-1.15596 V 1.26828 c 0,-0.75816 -0.6474,-1.19418 -1.4469,-1.19418 h -8.7984 c -0.7995,0 -1.44768,0.43602 -1.44768,1.19418 v 2.76744 c 0,0.75816 0.64818,1.15596 1.44768,1.15596 l 1.81506,-0.01248 c 0.79872,0 1.4469,0.39936 1.4469,1.15674 l -0.0725,10.39662 c 0,0.7995 0.39858,1.4469 1.15596,1.4469 0.75816,0 1.19418,-0.6474 1.19418,-1.4469 l -0.003,-10.39662"
         id="Fill-21"
         inkscape:connector-curvature="0"
         style="fill:#ffffff" />
      <path
         d="m 160.4109,6.33594 c 0,-0.75738 0.64818,-1.15674 1.44612,-1.15674 l 1.81584,0.01248 c 0.7995,0 1.4469,-0.3978 1.4469,-1.15596 V 1.26828 c 0,-0.75816 -0.6474,-1.19418 -1.4469,-1.19418 h -8.7984 c -0.7995,0 -1.44768,0.43602 -1.44768,1.19418 v 2.76744 c 0,0.75816 0.64818,1.15596 1.44768,1.15596 l 1.81506,-0.01248 c 0.79872,0 1.4469,0.39936 1.4469,1.15674 l -0.0725,10.39662 c 0,0.7995 0.39858,1.4469 1.15596,1.4469 0.75816,0 1.19418,-0.6474 1.19418,-1.4469 z"
         id="Stroke-22"
         inkscape:connector-curvature="0" />
      <path
         d="m 219.98418,11.87472 c 0,-1.42116 0.004,-10.39662 0.004,-10.39662 0,-0.7995 -0.43524,-1.4469 -1.19418,-1.4469 -0.75816,0 -1.15674,0.6474 -1.15674,1.4469 l 0.0733,10.39662 c 0,0.75894 -0.52104,1.15674 -1.32054,1.15674 l -0.55224,-0.01248 c -0.79872,0 -1.57326,0.39858 -1.57326,1.15674 v 2.76744 c 0,0.75816 0.77454,1.19418 1.57326,1.19418 h 4.75722 c 0.79872,0 1.44612,-0.43602 1.44612,-1.19418 0,0 0,-0.86268 0,-2.76744 0,-1.90554 -2.05686,-0.33852 -2.05686,-2.301"
         id="Fill-23"
         inkscape:connector-curvature="0"
         style="fill:#ffffff" />
      <path
         d="m 219.98418,11.87472 c 0,-1.42116 0.004,-10.39662 0.004,-10.39662 0,-0.7995 -0.43524,-1.4469 -1.19418,-1.4469 -0.75816,0 -1.15674,0.6474 -1.15674,1.4469 l 0.0733,10.39662 c 0,0.75894 -0.52104,1.15674 -1.32054,1.15674 l -0.55224,-0.01248 c -0.79872,0 -1.57326,0.39858 -1.57326,1.15674 v 2.76744 c 0,0.75816 0.77454,1.19418 1.57326,1.19418 h 4.75722 c 0.79872,0 1.44612,-0.43602 1.44612,-1.19418 0,0 0,-0.86268 0,-2.76744 0,-1.90554 -2.05686,-0.33852 -2.05686,-2.301 z"
         id="Stroke-24"
         inkscape:connector-curvature="0" />
      <path
         d="m 58.60218,0.0741 c 0.80028,0 1.44768,0.43602 1.44768,1.19418 v 2.76744 c 0,0.75816 -0.6474,1.15596 -1.44768,1.15596 L 56.78712,5.1792 c -0.79872,0 -1.44768,0.39936 -1.44768,1.15674 l 0.07332,10.39662 c 0,0.7995 -0.3978,1.4469 -1.15596,1.4469 -0.75894,0 -1.19418,-0.6474 -1.19418,-1.4469 l 0.0031,-10.39662 c 0,-0.75738 -0.64818,-1.15674 -1.4469,-1.15674 h -4.98576 c -0.80028,0 -1.44768,0.39936 -1.44768,1.15674 l 0.0039,10.39662 c 0,0.7995 -0.43602,1.4469 -1.19418,1.4469 -0.75894,0 -1.15752,-0.6474 -1.15752,-1.4469 L 42.91092,6.33594 c 0,-0.75738 -0.6474,-1.15674 -1.44612,-1.15674 l -1.81584,0.01248 c -0.7995,0 -1.4469,-0.3978 -1.4469,-1.15596 V 1.26828 c 0,-0.75816 0.6474,-1.19418 1.4469,-1.19418 h 18.95322"
         id="Fill-26"
         inkscape:connector-curvature="0"
         style="fill:#ffffff" />
      <path
         d="m 58.60218,0.0741 c 0.80028,0 1.44768,0.43602 1.44768,1.19418 v 2.76744 c 0,0.75816 -0.6474,1.15596 -1.44768,1.15596 L 56.78712,5.1792 c -0.79872,0 -1.44768,0.39936 -1.44768,1.15674 l 0.07332,10.39662 c 0,0.7995 -0.3978,1.4469 -1.15596,1.4469 -0.75894,0 -1.19418,-0.6474 -1.19418,-1.4469 l 0.0031,-10.39662 c 0,-0.75738 -0.64818,-1.15674 -1.4469,-1.15674 h -4.98576 c -0.80028,0 -1.44768,0.39936 -1.44768,1.15674 l 0.0039,10.39662 c 0,0.7995 -0.43602,1.4469 -1.19418,1.4469 -0.75894,0 -1.15752,-0.6474 -1.15752,-1.4469 L 42.91092,6.33594 c 0,-0.75738 -0.6474,-1.15674 -1.44612,-1.15674 l -1.81584,0.01248 c -0.7995,0 -1.4469,-0.3978 -1.4469,-1.15596 V 1.26828 c 0,-0.75816 0.6474,-1.19418 1.4469,-1.19418 z"
         id="Stroke-27"
         inkscape:connector-curvature="0" />
      <path
         d="m 112.0275,17.01336 c 0,0.75816 0.6474,1.15752 1.44768,1.15752 l 7.14246,-0.05304 c 0.80028,0 1.44768,-0.43602 1.44768,-1.1934 v -2.8938 c 0,-0.75894 -0.6474,-1.15752 -1.44768,-1.15752 l -4.6215,0.01326 c -0.79872,0 -1.4469,-0.39858 -1.4469,-1.15674 L 114.53754,1.4469 C 114.53754,0.6474 114.13896,0 113.38002,0 c -0.75738,0 -1.19418,0.6474 -1.19418,1.4469 l -0.15834,15.56646"
         id="Fill-28"
         inkscape:connector-curvature="0"
         style="fill:#ffffff" />
      <path
         d="m 112.0275,17.01336 c 0,0.75816 0.6474,1.15752 1.44768,1.15752 l 7.14246,-0.05304 c 0.80028,0 1.44768,-0.43602 1.44768,-1.1934 v -2.8938 c 0,-0.75894 -0.6474,-1.15752 -1.44768,-1.15752 l -4.6215,0.01326 c -0.79872,0 -1.4469,-0.39858 -1.4469,-1.15674 L 114.53754,1.4469 C 114.53754,0.6474 114.13896,0 113.38002,0 c -0.75738,0 -1.19418,0.6474 -1.19418,1.4469 z"
         id="Stroke-29"
         inkscape:connector-curvature="0" />
      <path
         d="m 65.4498,0.20826 c -0.7995,0 -1.4469,0.39858 -1.4469,1.15674 l 0.0078,5.47248 c 0,0.79872 -0.3978,1.4469 -1.15596,1.4469 l -1.55688,0.02886 c -0.79794,0 -1.4469,0.39858 -1.4469,1.15674 l -0.08736,7.46226 c 0,0.75816 0.64818,1.19418 1.4469,1.19418 l 11.7039,0.04446 c 0.79872,0 1.4469,-0.39936 1.4469,-1.15752 0,-0.75738 -0.64818,-1.19418 -1.4469,-1.19418 l -9.18138,0.02418 c -0.7995,0 -1.44768,-0.4368 -1.44768,-1.19418 l 0.08892,-2.7885 c 0,-0.75738 0.6474,-1.15674 1.44612,-1.15674 l 9.09402,0.01248 c 0.79872,0 1.4469,-0.3978 1.4469,-1.15674 0,-0.75738 -0.64818,-1.19418 -1.4469,-1.19418 L 70.89576,8.34912 c -0.80028,0 -1.44768,-0.43602 -1.44768,-1.19418 l 0.08814,-3.41952 c 0,-0.75816 0.6474,-1.15674 1.44612,-1.15674 L 72.9144,2.56152 c 0.79872,0 1.4469,-0.39858 1.4469,-1.15674 0,-0.75816 -0.64818,-1.19418 -1.4469,-1.19418 L 65.4498,0.20826"
         id="Fill-31"
         inkscape:connector-curvature="0"
         style="fill:#ffffff" />
      <path
         d="m 65.4498,0.20826 c -0.7995,0 -1.4469,0.39858 -1.4469,1.15674 l 0.0078,5.47248 c 0,0.79872 -0.3978,1.4469 -1.15596,1.4469 l -1.55688,0.02886 c -0.79794,0 -1.4469,0.39858 -1.4469,1.15674 l -0.08736,7.46226 c 0,0.75816 0.64818,1.19418 1.4469,1.19418 l 11.7039,0.04446 c 0.79872,0 1.4469,-0.39936 1.4469,-1.15752 0,-0.75738 -0.64818,-1.19418 -1.4469,-1.19418 l -9.18138,0.02418 c -0.7995,0 -1.44768,-0.4368 -1.44768,-1.19418 l 0.08892,-2.7885 c 0,-0.75738 0.6474,-1.15674 1.44612,-1.15674 l 9.09402,0.01248 c 0.79872,0 1.4469,-0.3978 1.4469,-1.15674 0,-0.75738 -0.64818,-1.19418 -1.4469,-1.19418 L 70.89576,8.34912 c -0.80028,0 -1.44768,-0.43602 -1.44768,-1.19418 l 0.08814,-3.41952 c 0,-0.75816 0.6474,-1.15674 1.44612,-1.15674 L 72.9144,2.56152 c 0.79872,0 1.4469,-0.39858 1.4469,-1.15674 0,-0.75816 -0.64818,-1.19418 -1.4469,-1.19418 z"
         id="Stroke-32"
         inkscape:connector-curvature="0" />
      <path
         d="m 77.03904,17.01336 c 0,0.75816 0.6474,1.15752 1.44768,1.15752 l 7.14246,-0.05304 c 0.79872,0 1.44612,-0.43602 1.44612,-1.1934 v -2.8938 c 0,-0.75894 -0.6474,-1.15752 -1.44612,-1.15752 l -4.6215,0.01326 c -0.79872,0 -1.4469,-0.39858 -1.4469,-1.15674 L 79.5483,1.4469 C 79.5483,0.6474 79.1505,0 78.39156,0 77.63418,0 77.19738,0.6474 77.19738,1.4469 l -0.15834,15.56646"
         id="Fill-33"
         inkscape:connector-curvature="0"
         style="fill:#ffffff" />
      <path
         d="m 77.03904,17.01336 c 0,0.75816 0.6474,1.15752 1.44768,1.15752 l 7.14246,-0.05304 c 0.79872,0 1.44612,-0.43602 1.44612,-1.1934 v -2.8938 c 0,-0.75894 -0.6474,-1.15752 -1.44612,-1.15752 l -4.6215,0.01326 c -0.79872,0 -1.4469,-0.39858 -1.4469,-1.15674 L 79.5483,1.4469 C 79.5483,0.6474 79.1505,0 78.39156,0 77.63418,0 77.19738,0.6474 77.19738,1.4469 Z"
         id="Stroke-34"
         inkscape:connector-curvature="0" />
      <path
         d="m 181.25952,10.14 c 0,-1.8174 -2.5194,-1.6926 -2.5194,-2.6949 0,-1.00308 -0.0133,-6.26652 -0.0133,-6.26652 0,-0.75816 -0.6474,-1.15674 -1.44612,-1.15674 h -9.10962 c -0.80028,0 -1.4469,0.39858 -1.4469,1.15674 -0.002,0.39468 -0.004,0.79014 -0.007,1.18482 -0.0281,4.4772 -0.117,8.96064 -0.0523,13.43784 0.009,0.54912 -0.19734,1.19262 0.0928,1.68168 0.37908,0.64038 1.05378,0.80574 1.72458,0.78702 1.40868,-0.03822 2.7339,0.34008 3.3852,-1.21212 l 0.19422,-5.1324 c 0,-0.75738 0.6474,-1.19418 1.44612,-1.19418 h 3.89298 c 0.7995,0 1.44846,0.4368 1.44846,1.19418 l 0.0593,4.82508 c 0,0.7995 0.3978,1.4469 1.15596,1.4469 0.75816,0 1.19496,-0.6474 1.19496,-1.4469 l -0.004,-4.20966 c 0,0 0.004,-0.58422 0.004,-2.40084 z m -6.46308,-1.794 h -4.1457 c -0.7995,0 -1.44612,-0.43602 -1.44612,-1.19418 l 0.0874,-3.38676 c 0,-0.75738 0.6474,-1.15596 1.4469,-1.15596 h 3.96942 c 0.7995,0 1.4469,0.39858 1.4469,1.15596 l 0.0881,3.38676 c 0,0.75816 -0.64818,1.19418 -1.4469,1.19418 z"
         id="Fill-36"
         inkscape:connector-curvature="0"
         style="fill:#ffffff" />
      <path
         d="m 181.25952,10.14 c 0,-1.8174 -2.5194,-1.6926 -2.5194,-2.6949 0,-1.00308 -0.0133,-6.26652 -0.0133,-6.26652 0,-0.75816 -0.6474,-1.15674 -1.44612,-1.15674 h -9.10962 c -0.80028,0 -1.4469,0.39858 -1.4469,1.15674 -0.002,0.39468 -0.004,0.79014 -0.007,1.18482 -0.0281,4.4772 -0.117,8.96064 -0.0523,13.43784 0.009,0.54912 -0.19734,1.19262 0.0928,1.68168 0.37908,0.64038 1.05378,0.80574 1.72458,0.78702 1.40868,-0.03822 2.7339,0.34008 3.3852,-1.21212 l 0.19422,-5.1324 c 0,-0.75738 0.6474,-1.19418 1.44612,-1.19418 h 3.89298 c 0.7995,0 1.44846,0.4368 1.44846,1.19418 l 0.0593,4.82508 c 0,0.7995 0.3978,1.4469 1.15596,1.4469 0.75816,0 1.19496,-0.6474 1.19496,-1.4469 l -0.004,-4.20966 c 0,0 0.004,-0.58422 0.004,-2.40084 z m -6.46308,-1.794 h -4.1457 c -0.7995,0 -1.44612,-0.43602 -1.44612,-1.19418 l 0.0874,-3.38676 c 0,-0.75738 0.6474,-1.15596 1.4469,-1.15596 h 3.96942 c 0.7995,0 1.4469,0.39858 1.4469,1.15596 l 0.0881,3.38676 c 0,0.75816 -0.64818,1.19418 -1.4469,1.19418 z"
         id="Stroke-37"
         inkscape:connector-curvature="0" />
      <path
         d="m 34.69674,0.02184 h -7.72122 c -0.79872,0 -1.21836,0.39156 -1.44612,1.15674 0,0 -5.07702,12.83334 -5.20494,13.12506 -0.12714,0.29094 -1.0179,0.45162 -1.0179,-0.13806 0,-0.5889 -0.0312,-12.55956 -0.0312,-12.55956 0,-0.7995 -0.34086,-1.52724 -1.09902,-1.52724 L 15.4557,0.07098 c -0.75738,0 -1.03038,0.51168 -1.57248,1.4469 0,0 -3.2292,7.94976 -3.4203,8.31558 -0.19266,0.3666 -0.78312,0.54366 -0.8814,0.03276 C 9.48246,9.35454 8.0106,1.21602 8.0106,1.21602 8.0106,0.45786 7.36242,0.02184 6.56292,0.02184 H 1.4469 C 0.6474,0.02184 0,0.45786 0,1.21602 L 0.07254,3.5724 0,16.64676 c 0,0.7995 0.39858,1.4469 1.15596,1.4469 0.75816,0 1.19418,-0.6474 1.19418,-1.4469 L 2.34936,6.36168 c 0,-0.75816 0.64818,-1.19418 1.4469,-1.19418 h 0.98826 c 0.79872,0 1.44612,0.43602 1.44612,1.19418 l 0.97812,5.46234 c 0,0.7995 0.39858,1.4469 1.15674,1.4469 l 2.54514,0.0117 c 0.75738,0 1.14036,-0.55068 1.56312,-1.37046 0,0 2.9328,-7.03404 3.05526,-7.3008 0.26442,-0.57408 0.99606,-0.46878 0.99606,0.0897 0,0.351 0.0078,10.45824 0.0078,10.45824 l 0.02964,1.5561 c 0,0.7995 0.3978,1.44612 1.15596,1.44612 l 2.93592,0.03588 c 0.75816,0 0.9087,-0.56472 1.40946,-1.4469 l 2.20818,-4.82508 c 0.35724,-0.69654 0.8424,-1.18014 1.44612,-1.19418 h 3.64026 c 0.80028,0 1.44768,0.4368 1.44768,1.19418 l 0.19266,5.1324 c -0.02964,1.38528 1.97652,1.1739 3.38676,1.21212 0.67002,0.01872 1.72536,-0.42198 1.7238,-1.1661 L 36.14286,1.17858 c 0,-0.75816 -0.6474,-1.15674 -1.44612,-1.15674 z M 32.21634,8.346 H 27.43962 C 25.79928,8.3226 26.01924,7.1604 26.1183,6.77274 l 1.35096,-3.00768 c 0.38844,-0.66144 0.64818,-1.15674 1.4469,-1.15674 h 3.21204 c 0.79872,0 1.44768,0.39936 1.44768,1.15674 l 0.08658,3.38676 c 0,0.75816 -0.6474,1.19418 -1.44612,1.19418 z"
         id="Fill-39"
         inkscape:connector-curvature="0"
         style="fill:#ffffff" />
      <path
         d="m 34.69674,0.02184 h -7.72122 c -0.79872,0 -1.21836,0.39156 -1.44612,1.15674 0,0 -5.07702,12.83334 -5.20494,13.12506 -0.12714,0.29094 -1.0179,0.45162 -1.0179,-0.13806 0,-0.5889 -0.0312,-12.55956 -0.0312,-12.55956 0,-0.7995 -0.34086,-1.52724 -1.09902,-1.52724 L 15.4557,0.07098 c -0.75738,0 -1.03038,0.51168 -1.57248,1.4469 0,0 -3.2292,7.94976 -3.4203,8.31558 -0.19266,0.3666 -0.78312,0.54366 -0.8814,0.03276 C 9.48246,9.35454 8.0106,1.21602 8.0106,1.21602 8.0106,0.45786 7.36242,0.02184 6.56292,0.02184 H 1.4469 C 0.6474,0.02184 0,0.45786 0,1.21602 L 0.07254,3.5724 0,16.64676 c 0,0.7995 0.39858,1.4469 1.15596,1.4469 0.75816,0 1.19418,-0.6474 1.19418,-1.4469 L 2.34936,6.36168 c 0,-0.75816 0.64818,-1.19418 1.4469,-1.19418 h 0.98826 c 0.79872,0 1.44612,0.43602 1.44612,1.19418 l 0.97812,5.46234 c 0,0.7995 0.39858,1.4469 1.15674,1.4469 l 2.54514,0.0117 c 0.75738,0 1.14036,-0.55068 1.56312,-1.37046 0,0 2.9328,-7.03404 3.05526,-7.3008 0.26442,-0.57408 0.99606,-0.46878 0.99606,0.0897 0,0.351 0.0078,10.45824 0.0078,10.45824 l 0.02964,1.5561 c 0,0.7995 0.3978,1.44612 1.15596,1.44612 l 2.93592,0.03588 c 0.75816,0 0.9087,-0.56472 1.40946,-1.4469 l 2.20818,-4.82508 c 0.35724,-0.69654 0.8424,-1.18014 1.44612,-1.19418 h 3.64026 c 0.80028,0 1.44768,0.4368 1.44768,1.19418 l 0.19266,5.1324 c -0.02964,1.38528 1.97652,1.1739 3.38676,1.21212 0.67002,0.01872 1.72536,-0.42198 1.7238,-1.1661 L 36.14286,1.17858 c 0,-0.75816 -0.6474,-1.15674 -1.44612,-1.15674 z M 32.21634,8.346 H 27.43962 C 25.79928,8.3226 26.01924,7.1604 26.1183,6.77274 l 1.35096,-3.00768 c 0.38844,-0.66144 0.64818,-1.15674 1.4469,-1.15674 h 3.21204 c 0.79872,0 1.44768,0.39936 1.44768,1.15674 l 0.08658,3.38676 c 0,0.75816 -0.6474,1.19418 -1.44612,1.19418 z"
         id="Stroke-40"
         inkscape:connector-curvature="0" />
      <path
         d="m 153.4182,38.68644 h 14.33484 c 0,0 0,32.28498 0,34.4994 0,2.21442 1.75422,3.84072 3.96864,3.84072 2.21364,0 6.1698,0 6.1698,0 v 6.52626 c 0,0 -8.42244,0 -13.43316,0 -6.02862,0 -11.14386,-4.54506 -11.14386,-11.27256 0,-3.08802 0.10374,-33.59382 0.10374,-33.59382"
         id="Fill-42"
         inkscape:connector-curvature="0"
         style="fill:#ffffff" />
      <path
         d="m 153.4182,38.68644 h 14.33484 c 0,0 0,32.28498 0,34.4994 0,2.21442 1.75422,3.84072 3.96864,3.84072 2.21364,0 6.1698,0 6.1698,0 v 6.52626 c 0,0 -8.42244,0 -13.43316,0 -6.02862,0 -11.14386,-4.54506 -11.14386,-11.27256 0,-3.08802 0.10374,-33.59382 0.10374,-33.59382 z"
         id="Stroke-43"
         inkscape:connector-curvature="0" />
      <path
         d="m 127.82562,38.68644 h 14.59146 c 0,0 0,32.28498 0,34.4994 0,2.21442 1.75422,3.84072 3.96786,3.84072 2.21442,0 5.91318,0 5.91318,0 v 6.52626 c 0,0 -8.42088,0 -13.43238,0 -6.02862,0 -11.14308,-4.54506 -11.14308,-11.27256 0,-3.08802 0.10296,-33.59382 0.10296,-33.59382"
         id="Fill-44"
         inkscape:connector-curvature="0"
         style="fill:#ffffff" />
      <path
         d="m 127.82562,38.68644 h 14.59146 c 0,0 0,32.28498 0,34.4994 0,2.21442 1.75422,3.84072 3.96786,3.84072 2.21442,0 5.91318,0 5.91318,0 v 6.52626 c 0,0 -8.42088,0 -13.43238,0 -6.02862,0 -11.14308,-4.54506 -11.14308,-11.27256 0,-3.08802 0.10296,-33.59382 0.10296,-33.59382 z"
         id="Stroke-45"
         inkscape:connector-curvature="0" />
      <path
         d="m 180.258,83.65734 c 0,-3.08802 0.10374,-34.59846 0.10374,-34.59846 h 14.33406 c 0,0 0,32.35596 0,34.57038 l -14.4378,0.02808"
         id="Fill-46"
         inkscape:connector-curvature="0"
         style="fill:#ffffff" />
      <path
         d="m 180.258,83.65734 c 0,-3.08802 0.10374,-34.59846 0.10374,-34.59846 h 14.33406 c 0,0 0,32.35596 0,34.57038 z"
         id="Stroke-47"
         inkscape:connector-curvature="0" />
      <path
         d="M 0,83.65734 C 0,80.56932 0.10296,28.8171 0.10296,28.8171 h 14.33406 c 0,0 0,52.59774 0,54.81216 L 0,83.65734"
         id="Fill-48"
         inkscape:connector-curvature="0"
         style="fill:#ffffff" />
      <path
         d="M 0,83.65734 C 0,80.56932 0.10296,28.8171 0.10296,28.8171 h 14.33406 c 0,0 0,52.59774 0,54.81216 z"
         id="Stroke-49"
         inkscape:connector-curvature="0" />
      <path
         d="m 180.258,46.2501 c 0,-3.0888 0.10374,-7.68066 0.10374,-7.68066 h 14.33406 c 0,0 0,5.43738 0,7.65102 L 180.258,46.2501"
         id="Fill-51"
         inkscape:connector-curvature="0"
         style="fill:#ffffff" />
      <path
         d="m 180.258,46.2501 c 0,-3.0888 0.10374,-7.68066 0.10374,-7.68066 h 14.33406 c 0,0 0,5.43738 0,7.65102 z"
         id="Stroke-52"
         inkscape:connector-curvature="0" />
      <path
         d="m 241.62918,83.65734 c 0,-3.08802 0.10374,-34.59846 0.10374,-34.59846 h 14.33406 c 0,0 0,32.35596 0,34.57038 l -14.4378,0.02808"
         id="Fill-53"
         inkscape:connector-curvature="0"
         style="fill:#ffffff" />
      <path
         d="m 241.62918,83.65734 c 0,-3.08802 0.10374,-34.59846 0.10374,-34.59846 h 14.33406 c 0,0 0,32.35596 0,34.57038 z"
         id="Stroke-54"
         inkscape:connector-curvature="0" />
      <path
         d="m 241.62918,46.2501 c 0,-3.0888 0.10374,-7.68066 0.10374,-7.68066 h 14.33406 c 0,0 0,5.43738 0,7.65102 l -14.4378,0.02964"
         id="Fill-55"
         inkscape:connector-curvature="0"
         style="fill:#ffffff" />
      <path
         d="m 241.62918,46.2501 c 0,-3.0888 0.10374,-7.68066 0.10374,-7.68066 h 14.33406 c 0,0 0,5.43738 0,7.65102 z"
         id="Stroke-56"
         inkscape:connector-curvature="0" />
      <path
         d="m 296.88984,83.65734 c 0,-3.08802 0.10296,-34.59846 0.10296,-34.59846 h 14.33484 c 0,0 0,32.35596 0,34.57038 l -14.4378,0.02808"
         id="Fill-57"
         inkscape:connector-curvature="0"
         style="fill:#ffffff" />
      <path
         d="m 296.88984,83.65734 c 0,-3.08802 0.10296,-34.59846 0.10296,-34.59846 h 14.33484 c 0,0 0,32.35596 0,34.57038 z"
         id="Stroke-58"
         inkscape:connector-curvature="0" />
      <path
         d="m 296.88984,46.2501 c 0,-3.0888 0.10296,-7.68066 0.10296,-7.68066 h 14.33484 c 0,0 0,5.43738 0,7.65102 l -14.4378,0.02964"
         id="Fill-59"
         inkscape:connector-curvature="0"
         style="fill:#ffffff" />
      <path
         d="m 296.88984,46.2501 c 0,-3.0888 0.10296,-7.68066 0.10296,-7.68066 h 14.33484 c 0,0 0,5.43738 0,7.65102 z"
         id="Stroke-60"
         inkscape:connector-curvature="0" />
      <path
         d="m 107.92626,48.97854 c 0,-2.21442 1.75422,-3.84072 3.96864,-3.84072 h 12.90588 v -6.52548 h -21.64422 c -6.02862,0 -9.6681,4.54428 -9.6681,11.271 v 22.01238 c 0,6.7275 3.63948,11.52918 9.6681,11.52918 5.01072,0 21.64422,0 21.64422,0 v -6.52704 c 0,0 -10.69146,0 -12.90588,0 -2.21442,0 -3.9234,-1.87824 -3.90468,-4.09656 l -0.009,-8.60652 c 3.91014,0 14.80986,0 14.80986,0 v -6.52626 l -14.8317,-0.03588 -0.0328,-8.6541"
         id="Fill-61"
         inkscape:connector-curvature="0"
         style="fill:#ffffff" />
      <path
         d="m 107.92626,48.97854 c 0,-2.21442 1.75422,-3.84072 3.96864,-3.84072 h 12.90588 v -6.52548 h -21.64422 c -6.02862,0 -9.6681,4.54428 -9.6681,11.271 v 22.01238 c 0,6.7275 3.63948,11.52918 9.6681,11.52918 5.01072,0 21.64422,0 21.64422,0 v -6.52704 c 0,0 -10.69146,0 -12.90588,0 -2.21442,0 -3.9234,-1.87824 -3.90468,-4.09656 l -0.009,-8.60652 c 3.91014,0 14.80986,0 14.80986,0 v -6.52626 l -14.8317,-0.03588 z"
         id="Stroke-62"
         inkscape:connector-curvature="0" />
      <path
         d="m 83.56296,44.37498 c 2.19648,0 6.88818,-0.04992 6.88818,-0.04992 v -5.6277 c 0,0 -8.38578,0 -9.24456,0 -0.85956,0 -1.29948,-0.66846 -1.29948,-1.2987 0,-0.63024 0,-8.84208 0,-8.84208 L 56.4876,43.5084 C 56.48682,40.61928 56.486,38.78706 56.486,38.78706 h -7.45056 c 0,0 0,20.0889 0,20.60448 0,0.5148 -0.9711,1.4547 -1.8369,0.19032 0,0 -9.90756,-14.2194 -13.5018,-18.51954 -2.98506,-3.57318 -13.40118,-3.38988 -13.44174,5.07 -0.02648,5.37108 0.0133,36.82068 0.0133,36.82068 h 7.44978 c 0,0 0,-24.76812 0,-26.00052 0,-1.4391 1.2714,-0.92898 2.06388,-0.03432 0.36738,0.4134 16.34022,24.71508 17.0586,25.68618 1.62708,2.1957 9.65874,3.80796 9.65874,-4.49436 0,-5.94906 -0.007,-23.56068 -0.01092,-33.0681 h 7.27116 c 0.76206,0 1.72848,0.85956 1.72926,0.86034 -0.0055,0.72072 -0.10374,23.38674 -0.10374,26.37804 0,6.7275 5.56452,11.27256 11.59314,11.27256 5.0115,0 13.43316,0 13.43316,0 v -6.52626 c 0,0 -3.95538,0 -6.1698,0 -2.21442,0 -3.96864,-1.6263 -3.96864,-3.84072 V 47.68842 c 0,-1.37046 1.09434,-3.31344 3.29004,-3.31344"
         id="Fill-63"
         inkscape:connector-curvature="0"
         style="fill:#ffffff" />
      <path
         d="m 83.56296,44.37498 c 2.19648,0 6.88818,-0.04992 6.88818,-0.04992 v -5.6277 c 0,0 -8.38578,0 -9.24456,0 -0.85956,0 -1.29948,-0.66846 -1.29948,-1.2987 0,-0.63024 0,-8.84208 0,-8.84208 L 56.4876,43.5084 C 56.48682,40.61928 56.486,38.78706 56.486,38.78706 h -7.45056 c 0,0 0,20.0889 0,20.60448 0,0.5148 -0.9711,1.4547 -1.8369,0.19032 0,0 -9.90756,-14.2194 -13.5018,-18.51954 -2.98506,-3.57318 -13.40118,-3.38988 -13.44174,5.07 -0.02648,5.37108 0.0133,36.82068 0.0133,36.82068 h 7.44978 c 0,0 0,-24.76812 0,-26.00052 0,-1.4391 1.2714,-0.92898 2.06388,-0.03432 0.36738,0.4134 16.34022,24.71508 17.0586,25.68618 1.62708,2.1957 9.65874,3.80796 9.65874,-4.49436 0,-5.94906 -0.007,-23.56068 -0.01092,-33.0681 h 7.27116 c 0.76206,0 1.72848,0.85956 1.72926,0.86034 -0.0055,0.72072 -0.10374,23.38674 -0.10374,26.37804 0,6.7275 5.56452,11.27256 11.59314,11.27256 5.0115,0 13.43316,0 13.43316,0 v -6.52626 c 0,0 -3.95538,0 -6.1698,0 -2.21442,0 -3.96864,-1.6263 -3.96864,-3.84072 V 47.68842 c 0,-1.37046 1.09434,-3.31344 3.29004,-3.31344 z"
         id="Stroke-65"
         inkscape:connector-curvature="0" />
      <path
         d="m 400.1985,38.78706 h -7.449 c 0,0 0,20.0889 0,20.60448 0,0.5148 -0.9711,1.4547 -1.83768,0.1911 0,0 -9.90756,-14.22018 -13.5018,-18.52032 -2.98584,-3.57318 -13.4004,-3.38988 -13.44252,5.07 -0.025,5.37108 0.0156,36.82068 0.0156,36.82068 h 7.44822 c 0,0 0,-24.76812 0,-26.00052 0,-1.4391 1.2714,-0.92898 2.06466,-0.03432 0.36738,0.41418 16.34022,24.71508 17.0586,25.68618 1.62552,2.1957 9.65718,3.80796 9.65718,-4.49436 0,-8.30154 -0.0133,-39.32292 -0.0133,-39.32292"
         id="Fill-66"
         inkscape:connector-curvature="0"
         style="fill:#ffffff" />
      <path
         d="m 400.1985,38.78706 h -7.449 c 0,0 0,20.0889 0,20.60448 0,0.5148 -0.9711,1.4547 -1.83768,0.1911 0,0 -9.90756,-14.22018 -13.5018,-18.52032 -2.98584,-3.57318 -13.4004,-3.38988 -13.44252,5.07 -0.025,5.37108 0.0156,36.82068 0.0156,36.82068 h 7.44822 c 0,0 0,-24.76812 0,-26.00052 0,-1.4391 1.2714,-0.92898 2.06466,-0.03432 0.36738,0.41418 16.34022,24.71508 17.0586,25.68618 1.62552,2.1957 9.65718,3.80796 9.65718,-4.49436 0,-8.30154 -0.0133,-39.32292 -0.0133,-39.32292 z"
         id="Stroke-67"
         inkscape:connector-curvature="0" />
      <path
         d="m 235.74252,25.41708 c 0,0 -10.92702,42.0303 -11.21952,42.98346 -0.3822,1.24098 -1.57638,1.65828 -2.19648,0.22464 -0.76362,-1.52802 -9.03786,-29.92626 -9.03786,-29.92626 l -15.09222,0.0023 c 0,0 11.26632,36.97668 11.77644,38.0718 5.34924,11.46132 17.13114,6.87648 19.55226,-1.52802 2.49054,-8.6502 13.15392,-49.82796 13.15392,-49.82796 h -6.93654"
         id="Fill-68"
         inkscape:connector-curvature="0"
         style="fill:#ffffff" />
      <path
         d="m 235.74252,25.41708 c 0,0 -10.92702,42.0303 -11.21952,42.98346 -0.3822,1.24098 -1.57638,1.65828 -2.19648,0.22464 -0.76362,-1.52802 -9.03786,-29.92626 -9.03786,-29.92626 l -15.09222,0.0023 c 0,0 11.26632,36.97668 11.77644,38.0718 5.34924,11.46132 17.13114,6.87648 19.55226,-1.52802 2.49054,-8.6502 13.15392,-49.82796 13.15392,-49.82796 z"
         id="Stroke-69"
         inkscape:connector-curvature="0" />
      <path
         d="m 338.03406,38.18178 c -13.07748,0 -23.6769,10.25934 -23.6769,22.91406 0,12.6555 10.59942,22.91484 23.6769,22.91484 13.07748,0 23.67846,-10.25934 23.67846,-22.91484 0,-12.65472 -10.60098,-22.91406 -23.67846,-22.91406 z m 0,40.482017 c -5.83596,0.01324 -8.01996,-7.865537 -8.01996,-17.567957 0,-9.70242 1.30026,-17.56716 8.01996,-17.56716 5.73846,0 8.01996,7.86474 8.01996,17.56716 0,9.70242 -2.68398,17.55624 -8.01996,17.567957 z"
         id="Fill-71"
         inkscape:connector-curvature="0"
         style="fill:#ffffff" />
      <path
         d="m 338.03406,38.18178 c -13.07748,0 -23.6769,10.25934 -23.6769,22.91406 0,12.6555 10.59942,22.91484 23.6769,22.91484 13.07748,0 23.67846,-10.25934 23.67846,-22.91484 0,-12.65472 -10.60098,-22.91406 -23.67846,-22.91406 z m 0,40.482017 c -5.83596,0.01324 -8.01996,-7.865537 -8.01996,-17.567957 0,-9.70242 1.30026,-17.56716 8.01996,-17.56716 5.73846,0 8.01996,7.86474 8.01996,17.56716 0,9.70242 -2.68398,17.55624 -8.01996,17.567957 z"
         id="Stroke-72"
         inkscape:connector-curvature="0" />
      <path
         d="m 274.7511,66.11202 c 3.33606,0.35178 6.55434,2.65902 6.55434,5.92956 0,2.63094 -2.27448,4.76346 -4.72212,4.76346 l -15.5064,-0.04836 v 6.52626 l 17.15688,-0.0062 c 8.68842,0 15.73026,-6.82968 15.73026,-15.33402 0,-10.87164 -5.74938,-12.24366 -15.73026,-14.88396 0,0 -4.47018,-1.4001 -4.47018,-4.08798 0,-2.6871 2.49756,-3.9936 4.94442,-3.9936 l 10.50426,0.04914 v -6.52626 l -14.3871,0.0062 c -8.68764,0 -15.42372,6.21426 -15.42372,15.05322 0,9.1026 10.0464,11.99484 15.34962,12.55254"
         id="Fill-73"
         inkscape:connector-curvature="0"
         style="fill:#ffffff" />
      <path
         d="m 274.7511,66.11202 c 3.33606,0.35178 6.55434,2.65902 6.55434,5.92956 0,2.63094 -2.27448,4.76346 -4.72212,4.76346 l -15.5064,-0.04836 v 6.52626 l 17.15688,-0.0062 c 8.68842,0 15.73026,-6.82968 15.73026,-15.33402 0,-10.87164 -5.74938,-12.24366 -15.73026,-14.88396 0,0 -4.47018,-1.4001 -4.47018,-4.08798 0,-2.6871 2.49756,-3.9936 4.94442,-3.9936 l 10.50426,0.04914 v -6.52626 l -14.3871,0.0062 c -8.68764,0 -15.42372,6.21426 -15.42372,15.05322 0,9.1026 10.0464,11.99484 15.34962,12.55254 z"
         id="Stroke-74"
         inkscape:connector-curvature="0" />
      <path
         d="m 410.97732,48.31164 h -1.05456 v -6.9381 h 2.64498 c 1.638,0 2.44842,0.60606 2.44842,1.97184 0,1.24098 -0.77766,1.77996 -1.79868,1.911 l 1.9695,3.05526 h -1.17156 l -1.83456,-3.00846 h -1.20354 z m 1.25736,-3.89922 c 0.89076,0 1.68168,-0.06162 1.68168,-1.13022 0,-0.85644 -0.77766,-1.01712 -1.5054,-1.01712 h -1.43364 v 2.14734 z"
         id="Fill-75"
         inkscape:connector-curvature="0"
         style="fill:#ffffff" />
      <path
         d="m 406.1382,44.82504 c 0,-3.4515 2.80254,-5.9982 6.10896,-5.9982 3.28146,0 6.0762,2.5467 6.0762,5.9982 0,3.4866 -2.79474,6.03096 -6.0762,6.03096 -3.30642,0 -6.10896,-2.54436 -6.10896,-6.03096 z m 6.10896,5.02866 c 2.72532,0 4.86486,-2.13174 4.86486,-5.02866 0,-2.84544 -2.13954,-4.99746 -4.86486,-4.99746 -2.74872,0 -4.89684,2.15202 -4.89684,4.99746 0,2.89692 2.14812,5.02866 4.89684,5.02866 z"
         id="Fill-76"
         inkscape:connector-curvature="0"
         style="fill:#ffffff" />
    </g>
  </g>
</svg>
