<?xml version="1.0" encoding="UTF-8" standalone="no"?>
<svg
   xmlns:dc="http://purl.org/dc/elements/1.1/"
   xmlns:cc="http://creativecommons.org/ns#"
   xmlns:rdf="http://www.w3.org/1999/02/22-rdf-syntax-ns#"
   xmlns:svg="http://www.w3.org/2000/svg"
   xmlns="http://www.w3.org/2000/svg"
   xmlns:sodipodi="http://sodipodi.sourceforge.net/DTD/sodipodi-0.dtd"
   xmlns:inkscape="http://www.inkscape.org/namespaces/inkscape"
   width="471.1955"
   height="147.09277"
   viewBox="0 0 471.1955 147.09277"
   version="1.1"
   id="svg56"
   sodipodi:docname="jaleco.svg"
   style="fill:none"
   inkscape:version="1.0.1 (1.0.1+r73)">
  <metadata
     id="metadata62">
    <rdf:RDF>
      <cc:Work
         rdf:about="">
        <dc:format>image/svg+xml</dc:format>
        <dc:type
           rdf:resource="http://purl.org/dc/dcmitype/StillImage" />
        <dc:title />
      </cc:Work>
    </rdf:RDF>
  </metadata>
  <defs
     id="defs60" />
  <sodipodi:namedview
     pagecolor="#ffffff"
     bordercolor="#666666"
     borderopacity="1"
     objecttolerance="10"
     gridtolerance="10"
     guidetolerance="10"
     inkscape:pageopacity="0"
     inkscape:pageshadow="2"
     inkscape:window-width="1366"
     inkscape:window-height="740"
     id="namedview58"
     showgrid="false"
     inkscape:pagecheckerboard="true"
     inkscape:zoom="1.4723041"
     inkscape:cx="180.58652"
     inkscape:cy="39.099519"
     inkscape:window-x="0"
     inkscape:window-y="0"
     inkscape:window-maximized="1"
     inkscape:current-layer="svg56"
     inkscape:document-rotation="0" />
  <path
     d="m 180.03283,146.44582 c -0.89876,0.42009 -1.82245,0.62951 -2.77232,0.62951 -0.91622,0 -1.7701,-0.16829 -2.56415,-0.50361 -0.79406,-0.33532 -1.47966,-0.79031 -2.0593,-1.36497 -0.57965,-0.57466 -1.03464,-1.25652 -1.36497,-2.04683 -0.33034,-0.79031 -0.49488,-1.64046 -0.49488,-2.55044 0,-0.90998 0.16828,-1.76387 0.5036,-2.56041 0.33657,-0.7953 0.79405,-1.4809 1.3737,-2.05556 0.57964,-0.57466 1.26525,-1.02965 2.0593,-1.36497 0.79405,-0.33532 1.64295,-0.50361 2.5467,-0.50361 0.97231,0 1.91719,0.21316 2.83216,0.63823 0.91621,0.42508 1.65791,0.996 2.22509,1.71526 l -1.70279,1.74142 c -0.42881,-0.55097 -0.93366,-0.9723 -1.51206,-1.26649 -0.57965,-0.29294 -1.1942,-0.44003 -1.8424,-0.44003 -0.54474,0 -1.05832,0.10596 -1.53824,0.31538 -0.48117,0.20942 -0.89503,0.49612 -1.24281,0.86136 -0.34779,0.36524 -0.61954,0.79655 -0.81774,1.29392 -0.19695,0.49613 -0.29543,1.03837 -0.29543,1.6255 0,0.57466 0.10222,1.11067 0.30416,1.6068 0.20318,0.49737 0.48116,0.92494 0.83518,1.28395 0.35278,0.36025 0.77037,0.64446 1.25154,0.85388 0.47992,0.20942 1.00472,0.31413 1.5719,0.31413 0.63823,0 1.23408,-0.13836 1.79129,-0.41261 0.55596,-0.27548 1.04835,-0.67064 1.47716,-1.18546 l 1.65043,1.68782 c -0.57965,0.7068 -1.3176,1.26899 -2.21512,1.68783 z m 32.70072,0.1446 c -0.78782,0.33532 -1.63422,0.50236 -2.53797,0.50236 -0.89253,0 -1.73271,-0.16704 -2.52052,-0.50236 -0.78782,-0.33532 -1.46844,-0.79405 -2.04185,-1.37494 -0.57341,-0.58089 -1.0284,-1.26899 -1.36373,-2.06553 -0.33656,-0.7953 -0.50485,-1.64296 -0.50485,-2.54047 0,-0.89876 0.16829,-1.74517 0.50485,-2.54171 0.33533,-0.79655 0.79032,-1.48464 1.36373,-2.06554 0.57341,-0.58089 1.25403,-1.03837 2.04185,-1.37369 0.78781,-0.33532 1.62799,-0.50361 2.52052,-0.50361 0.90375,0 1.75015,0.16829 2.53797,0.50361 0.78782,0.33532 1.46844,0.7928 2.04185,1.37369 0.57341,0.5809 1.0284,1.26899 1.36497,2.06554 0.33532,0.79654 0.50361,1.64295 0.50361,2.54171 0,0.89751 -0.16829,1.74517 -0.50361,2.54047 -0.33657,0.79654 -0.79156,1.48464 -1.36497,2.06553 -0.57341,0.58089 -1.25403,1.03962 -2.04185,1.37494 z m -2.53797,-1.88603 c -0.54474,0 -1.05084,-0.10471 -1.52079,-0.31413 -0.4687,-0.21066 -0.87508,-0.49737 -1.21663,-0.86261 -0.34156,-0.36524 -0.61081,-0.79904 -0.80777,-1.30264 -0.19695,-0.50236 -0.29543,-1.04087 -0.29543,-1.61553 0,-0.58713 0.0985,-1.12937 0.29543,-1.6255 0.19696,-0.49737 0.46621,-0.92868 0.80777,-1.29392 0.34155,-0.36524 0.74793,-0.65194 1.21663,-0.86136 0.46995,-0.21067 0.97605,-0.31538 1.52079,-0.31538 0.54474,0 1.05458,0.10471 1.52951,0.31538 0.47494,0.20942 0.88381,0.49612 1.22536,0.86136 0.34156,0.36524 0.61081,0.79655 0.80776,1.29392 0.19696,0.49613 0.29544,1.03837 0.29544,1.6255 0,0.57466 -0.0985,1.11317 -0.29544,1.61553 -0.19695,0.5036 -0.4662,0.9374 -0.80776,1.30264 -0.34155,0.36524 -0.75042,0.65195 -1.22536,0.86261 -0.47493,0.20942 -0.98477,0.31413 -1.52951,0.31413 z m 38.20174,-0.10845 v 2.29989 h -9.1771 v -12.5727 h 2.52053 v 10.27281 z m 31.77079,2.29989 v -2.29989 h -6.65657 v -10.27281 h -2.51928 v 12.5727 z m 32.01512,-2.26374 v 2.26374 h -9.42017 v -12.5727 h 9.35036 v 2.26249 h -6.82984 v 2.87329 h 4.50129 v 2.19144 h -4.50129 v 2.98174 z m 27.94763,2.44324 c 0.94987,0 1.87356,-0.20942 2.77232,-0.62951 0.89752,-0.41884 1.63672,-0.98103 2.21512,-1.68783 l -1.65043,-1.68782 c -0.42882,0.51482 -0.9212,0.90998 -1.47716,1.18546 -0.55596,0.27425 -1.15306,0.41261 -1.79005,0.41261 -0.56842,0 -1.09198,-0.10471 -1.57314,-0.31413 -0.48117,-0.20942 -0.89876,-0.49363 -1.25154,-0.85388 -0.35402,-0.35901 -0.632,-0.78658 -0.83394,-1.28395 -0.20319,-0.49613 -0.30416,-1.03214 -0.30416,-1.6068 0,-0.58713 0.0985,-1.12937 0.29543,-1.6255 0.19696,-0.49737 0.46871,-0.92868 0.81649,-1.29392 0.34779,-0.36524 0.76165,-0.65194 1.24281,-0.86136 0.48117,-0.20942 0.9935,-0.31538 1.53825,-0.31538 0.6482,0 1.26275,0.14709 1.84239,0.44003 0.57965,0.29419 1.08326,0.71552 1.51207,1.26649 l 1.70278,-1.74142 c -0.56718,-0.71926 -1.30887,-1.29018 -2.22384,-1.71526 -0.91621,-0.42507 -1.85985,-0.63823 -2.8334,-0.63823 -0.90375,0 -1.75265,0.16829 -2.5467,0.50361 -0.79281,0.33532 -1.47966,0.79031 -2.0593,1.36497 -0.57965,0.57466 -1.03713,1.26026 -1.37245,2.05556 -0.33657,0.79654 -0.50486,1.65043 -0.50486,2.56041 0,0.90998 0.16579,1.76013 0.49613,2.55044 0.33034,0.79031 0.78408,1.47217 1.36372,2.04683 0.57965,0.57466 1.2665,1.02965 2.0593,1.36497 0.79406,0.33532 1.64919,0.50361 2.56416,0.50361 z m 33.33521,-10.45356 v 10.27406 h -2.52052 v -10.27406 h -4.10115 v -2.29864 h 10.70661 v 2.29864 z m 28.86882,10.27406 v -12.5727 h -2.52052 v 12.5727 z m 31.56262,-0.30541 c -0.78781,0.33532 -1.63422,0.50236 -2.53797,0.50236 -0.89128,0 -1.73146,-0.16704 -2.51927,-0.50236 -0.78782,-0.33532 -1.46969,-0.79405 -2.0431,-1.37494 -0.57341,-0.58089 -1.0284,-1.26899 -1.36372,-2.06553 -0.33657,-0.7953 -0.50361,-1.64296 -0.50361,-2.54047 0,-0.89876 0.16704,-1.74517 0.50361,-2.54171 0.33532,-0.79655 0.79031,-1.48464 1.36372,-2.06554 0.57341,-0.58089 1.25528,-1.03837 2.0431,-1.37369 0.78781,-0.33532 1.62799,-0.50361 2.51927,-0.50361 0.90375,0 1.75016,0.16829 2.53797,0.50361 0.78782,0.33532 1.46844,0.7928 2.04185,1.37369 0.57341,0.5809 1.0284,1.26899 1.36497,2.06554 0.33532,0.79654 0.50361,1.64295 0.50361,2.54171 0,0.89751 -0.16829,1.74517 -0.50361,2.54047 -0.33657,0.79654 -0.79156,1.48464 -1.36497,2.06553 -0.57341,0.58089 -1.25403,1.03962 -2.04185,1.37494 z m -2.53797,-1.88603 c -0.54474,0 -1.05084,-0.10471 -1.52079,-0.31413 -0.4687,-0.21066 -0.87383,-0.49737 -1.21663,-0.86261 -0.34156,-0.36524 -0.61081,-0.79904 -0.80776,-1.30264 -0.19696,-0.50236 -0.29544,-1.04087 -0.29544,-1.61553 0,-0.58713 0.0985,-1.12937 0.29544,-1.6255 0.19695,-0.49737 0.4662,-0.92868 0.80776,-1.29392 0.3428,-0.36524 0.74793,-0.65194 1.21663,-0.86136 0.46995,-0.21067 0.97605,-0.31538 1.52079,-0.31538 0.54474,0 1.05458,0.10471 1.52952,0.31538 0.47493,0.20942 0.8838,0.49612 1.22535,0.86136 0.34156,0.36524 0.61206,0.79655 0.80901,1.29392 0.19696,0.49613 0.29544,1.03837 0.29544,1.6255 0,0.57466 -0.0985,1.11317 -0.29544,1.61553 -0.19695,0.5036 -0.46745,0.9374 -0.80901,1.30264 -0.34155,0.36524 -0.75042,0.65195 -1.22535,0.86261 -0.47494,0.20942 -0.98478,0.31413 -1.52952,0.31413 z m 31.4068,-6.21529 v 8.40673 h -2.38091 v -12.5727 h 2.39836 l 6.04826,8.13623 v -8.13623 h 2.36346 v 12.5727 h -2.22509 z"
     id="path40"
     inkscape:connector-curvature="0"
     style="clip-rule:evenodd;fill:#ffffff;fill-rule:evenodd;stroke-width:1.24655" />
  <path
     d="M 0.00194271,73.549385 C -0.30207119,32.952522 35.113788,0 79.053517,0 c 43.939733,0 79.847813,32.952522 80.151973,73.549385 0.30416,40.596855 -35.11192,73.539655 -79.051519,73.539655 -43.939729,0 -79.84803419,-32.9428 -80.15202829,-73.539655 z M 51.858182,30.113382 42.245918,19.885074 31.674435,30.113382 52.413145,51.947809 62.984629,41.648946 74.242835,51.947809 84.541574,41.648946 95.254167,51.947809 105.28029,41.648946 116.40673,51.947809 126.8376,41.648946 105.55291,19.885074 94.840437,30.113382 84.137193,19.885074 73.828857,30.113382 63.257498,19.885074 Z M 63.257373,57.546185 73.697221,67.915483 84.409813,57.546185 94.840317,67.915483 106.10775,57.546185 116.40661,67.915483 126.70547,57.546185 148.13115,79.451042 137.96305,89.542979 127.5232,79.451042 116.53837,89.542979 105.69402,79.451042 95.668017,89.542979 84.409813,79.451042 74.111075,89.542979 63.257373,79.451042 52.544781,89.542979 42.387027,79.451042 31.947055,89.542979 11.076822,67.915483 20.820609,57.546185 31.947055,67.915483 41.973173,57.546185 52.130802,67.915483 Z M 51.858182,105.36966 42.245918,95.141359 31.674435,105.36966 l 20.73871,21.83443 10.571484,-10.29886 11.258206,10.29886 10.298739,-10.29886 10.712593,10.29886 10.026123,-10.29886 11.12644,10.29886 L 126.8376,116.90523 105.55291,95.141359 94.840437,105.36966 84.137193,95.141359 73.828857,105.36966 63.257498,95.141359 Z"
     id="path42"
     inkscape:connector-curvature="0"
     style="clip-rule:evenodd;fill:#ffffff;fill-rule:evenodd;stroke-width:1.24655" />
  <path
     d="m 197.50696,37.590307 h 16.15278 v 50.476512 c 0,34.506971 -44.4482,26.663061 -43.74639,-0.67301 h 15.4784 c -0.11843,9.31745 12.11521,13.336951 12.11521,0.67301 z"
     id="path44"
     inkscape:connector-curvature="0"
     style="clip-rule:evenodd;fill:#ffffff;fill-rule:evenodd;stroke-width:1.24655" />
  <path
     d="m 217.02417,109.60344 h 16.82592 l 4.03757,-22.209631 h 16.15278 l 3.36444,22.209631 H 274.2308 L 262.11684,37.590307 h -32.9787 z m 22.8829,-38.362165 h 11.44083 l -5.75906,-29.746153 z"
     id="path46"
     inkscape:connector-curvature="0"
     style="clip-rule:evenodd;fill:#ffffff;fill-rule:evenodd;stroke-width:1.24655" />
  <path
     d="M 316.63091,109.60344 H 279.61464 V 37.590307 h 16.82592 v 56.533612 h 20.19035 z"
     id="path48"
     inkscape:connector-curvature="0"
     style="clip-rule:evenodd;fill:#ffffff;fill-rule:evenodd;stroke-width:1.24655" />
  <path
     d="M 359.70417,109.60344 H 319.32346 V 37.590307 h 40.38071 v 14.806384 h -23.55604 v 11.441455 h 23.55604 v 15.479396 h -23.55604 v 15.479387 h 23.55604 z"
     id="path50"
     inkscape:connector-curvature="0"
     style="clip-rule:evenodd;fill:#ffffff;fill-rule:evenodd;stroke-width:1.24655" />
  <path
     d="m 400.08612,64.510908 h 16.15154 c 0.1259,-7.724495 -4.02386,-28.903112 -25.97061,-28.291431 -13.09873,0.365114 -24.91726,10.354958 -25.17904,36.367697 -0.38269,38.210216 19.33772,38.630796 23.59593,38.543166 27.95386,-0.57553 27.91023,-26.839071 27.56493,-31.784378 l -16.16275,-0.0287 c -0.6856,8.419437 -1.92093,16.303117 -10.21422,15.723097 -8.04772,-0.85588 -7.2412,-13.12554 -7.28483,-22.453215 -0.0424,-9.070763 -0.015,-20.329598 8.33941,-20.673271 6.67153,0.25629 8.0527,6.732491 9.15964,12.597005 z"
     id="path52"
     inkscape:connector-curvature="0"
     style="clip-rule:evenodd;fill:#ffffff;fill-rule:evenodd;stroke-width:1.24655" />
  <path
     d="m 444.73626,35.955832 c -17.58133,-0.2346 -26.05288,15.612901 -25.45453,37.323551 0.92868,33.709927 15.17548,37.717327 25.98182,37.587317 18.73189,-0.22251 25.7699,-16.775941 25.84968,-35.609044 0.0823,-19.827488 -5.58828,-39.024342 -26.37697,-39.301824 z m 0.39515,15.958195 c -8.4329,0.250432 -9.26684,11.197256 -9.23194,20.178516 0.0137,3.394478 -0.53851,23.376406 9.36408,23.211736 9.33166,-0.15731 9.07986,-14.41921 9.23194,-22.552436 0.15706,-8.400244 -0.55845,-21.099342 -9.36408,-20.837816 z"
     id="path54"
     inkscape:connector-curvature="0"
     style="clip-rule:evenodd;fill:#ffffff;fill-rule:evenodd;stroke-width:1.24655" />
</svg>
