<?xml version="1.0" encoding="UTF-8" standalone="no"?>
<!-- Created with Inkscape (http://www.inkscape.org/) -->

<svg
   xmlns:dc="http://purl.org/dc/elements/1.1/"
   xmlns:cc="http://creativecommons.org/ns#"
   xmlns:rdf="http://www.w3.org/1999/02/22-rdf-syntax-ns#"
   xmlns:svg="http://www.w3.org/2000/svg"
   xmlns="http://www.w3.org/2000/svg"
   xmlns:sodipodi="http://sodipodi.sourceforge.net/DTD/sodipodi-0.dtd"
   xmlns:inkscape="http://www.inkscape.org/namespaces/inkscape"
   width="441.86566"
   height="108.86308"
   viewBox="0 0 116.91029 28.803358"
   version="1.1"
   id="svg38"
   inkscape:version="0.92.5 (2060ec1f9f, 2020-04-08)"
   sodipodi:docname="kaneko.svg">
  <defs
     id="defs32" />
  <sodipodi:namedview
     id="base"
     pagecolor="#ffffff"
     bordercolor="#666666"
     borderopacity="1.0"
     inkscape:pageopacity="0.0"
     inkscape:pageshadow="2"
     inkscape:zoom="1.0595553"
     inkscape:cx="228.40654"
     inkscape:cy="18.41769"
     inkscape:document-units="mm"
     inkscape:current-layer="layer1"
     showgrid="false"
     units="px"
     inkscape:pagecheckerboard="true"
     inkscape:window-width="1366"
     inkscape:window-height="743"
     inkscape:window-x="0"
     inkscape:window-y="0"
     inkscape:window-maximized="1" />
  <metadata
     id="metadata35">
    <rdf:RDF>
      <cc:Work
         rdf:about="">
        <dc:format>image/svg+xml</dc:format>
        <dc:type
           rdf:resource="http://purl.org/dc/dcmitype/StillImage" />
        <dc:title></dc:title>
      </cc:Work>
    </rdf:RDF>
  </metadata>
  <g
     inkscape:label="Layer 1"
     inkscape:groupmode="layer"
     id="layer1"
     transform="translate(-1.8612537,-263.04882)">
    <g
       id="g6"
       style="line-height:125%;fill:#ffffff;stroke:none;stroke-width:5.77144432;stroke-miterlimit:4;stroke-dasharray:none;stroke-opacity:1"
       transform="matrix(0.19031359,0,0,0.19031359,-11.710445,93.392958)">
      <path
         inkscape:connector-curvature="0"
         id="path4"
         word-spacing="0"
         letter-spacing="0"
         font-size="159.402"
         font-weight="400"
         d="m 108.246,940.261 35.219,-43.041 h 33.974 l -42.73,52.926 50.046,53.238 h -41.29 l -35.22,-37.632 z M 226.902,897.22 h 34.09 l 35.57,106.164 H 192.616 l 20.548,-66.314 h 26.775 l -10.663,41.757 h 28.058 z m 140.138,0 q 16.267,0 23.116,6.226 6.694,6.227 6.694,20.237 v 79.7 h -34.286 v -68.22 q 0,-6.382 -0.467,-8.445 -0.467,-1.906 -2.413,-2.568 -1.906,-0.467 -7.627,-0.467 H 335.79 v 79.7 H 304.073 V 897.22 Z m 113.908,39.85 v 26.463 h -43.042 v 13.388 h 43.042 v 26.463 H 406.19 V 937.07 Z M 406.19,897.22 h 74.758 v 26.463 H 406.19 Z m 82.814,43.041 35.219,-43.041 h 33.974 l -42.73,52.926 50.046,53.238 h -41.29 l -35.22,-37.632 z m 139.204,-13.698 q -9.574,0 -16.267,6.849 -6.85,7.005 -6.85,16.734 0,9.885 6.85,16.89 6.849,7.005 16.267,7.005 6.226,0 11.48,-3.347 5.254,-3.191 8.29,-8.6 2.879,-5.41 2.879,-11.948 0,-9.729 -6.538,-16.734 -6.538,-6.85 -16.111,-6.85 z m 0,-32.223 q 11.169,0 21.209,4.475 9.885,4.476 17.357,11.948 7.355,7.666 11.636,17.862 4.32,10.352 4.32,21.521 0,15.139 -7.356,28.059 -7.472,12.92 -20.08,20.392 -12.57,7.666 -27.086,7.666 -14.516,0 -27.242,-7.666 -12.764,-7.472 -20.12,-20.392 -7.472,-12.92 -7.472,-28.059 0,-11.169 4.32,-21.52 4.28,-10.197 11.792,-17.863 7.316,-7.472 17.512,-11.948 10.04,-4.475 21.21,-4.475 z"
         style="font-weight:400;font-size:159.4019928px;font-family:Stop;-inkscape-font-specification:Stop;letter-spacing:0;word-spacing:0;fill:#ffffff;stroke:none;stroke-width:5.77144432;stroke-miterlimit:4;stroke-dasharray:none;stroke-opacity:1" />
    </g>
    <path
       style="fill:#ffffff;stroke:none;stroke-width:1.09838426;stroke-miterlimit:4;stroke-dasharray:none"
       inkscape:connector-curvature="0"
       id="path8"
       d="m 2.4104458,264.41541 h 5.3628466 v 19.67937 H 2.4104458 Z" />
    <path
       d="m 5.4949216,291.6066 c -0.3411055,0.15944 -0.691667,0.23892 -1.0521699,0.23892 -0.3477234,0 -0.671797,-0.0639 -0.9731551,-0.19113 -0.3013678,-0.12726 -0.5615674,-0.29994 -0.78156,-0.51804 -0.2199874,-0.2181 -0.3926692,-0.47689 -0.5180405,-0.77682 -0.125366,-0.29995 -0.1878148,-0.6226 -0.1878148,-0.96796 0,-0.34536 0.063867,-0.66943 0.1911286,-0.97173 0.127742,-0.30184 0.3013643,-0.56204 0.5213515,-0.78014 0.2199892,-0.21811 0.4801896,-0.39078 0.7815565,-0.51804 0.3013643,-0.12726 0.6235434,-0.19114 0.9665338,-0.19114 0.3690187,0 0.7276227,0.0809 1.0748749,0.24223 0.347726,0.16132 0.6292122,0.378 0.8444754,0.65098 l -0.646251,0.66091 c -0.1627442,-0.20911 -0.3543472,-0.36901 -0.5738601,-0.48066 -0.2199917,-0.11117 -0.4532278,-0.16701 -0.6992392,-0.16701 -0.2067429,0 -0.4016614,0.0402 -0.5838005,0.1197 -0.1826117,0.0795 -0.3396854,0.18829 -0.4716788,0.32691 -0.13199,0.13861 -0.2351256,0.30231 -0.3103477,0.49107 -0.074749,0.18829 -0.1121251,0.39409 -0.1121251,0.61692 0,0.2181 0.038775,0.42153 0.1154388,0.60982 0.077113,0.18877 0.1826118,0.35104 0.3169726,0.48729 0.1338853,0.13672 0.2923721,0.24458 0.4749873,0.32408 0.1821416,0.0794 0.3813168,0.11921 0.5965712,0.11921 0.2422284,0 0.4683678,-0.0526 0.6798437,-0.15659 0.2110004,-0.10456 0.3978714,-0.25453 0.5606156,-0.44992 l 0.62638,0.64057 c -0.2199874,0.26824 -0.5000633,0.48161 -0.8406872,0.64057 z m 12.4107204,0.0549 c -0.298997,0.12727 -0.620229,0.19066 -0.963226,0.19066 -0.338736,0 -0.657603,-0.0633 -0.9566,-0.19066 -0.298997,-0.12727 -0.557304,-0.30137 -0.774932,-0.52182 -0.217621,-0.22046 -0.3903,-0.48161 -0.517566,-0.78393 -0.127734,-0.30183 -0.191603,-0.62352 -0.191603,-0.96415 0,-0.34111 0.06386,-0.66235 0.191603,-0.96466 0.127266,-0.30229 0.299945,-0.56345 0.517566,-0.78392 0.217628,-0.22046 0.475935,-0.39408 0.774932,-0.52134 0.298997,-0.12727 0.617864,-0.19114 0.9566,-0.19114 0.342997,0 0.664229,0.0638 0.963226,0.19114 0.298997,0.12726 0.557305,0.30088 0.77493,0.52134 0.217623,0.22047 0.390301,0.48163 0.518041,0.78392 0.127261,0.30231 0.191129,0.62355 0.191129,0.96466 0,0.34063 -0.06386,0.66232 -0.191129,0.96415 -0.12774,0.30232 -0.300418,0.56347 -0.518041,0.78393 -0.217625,0.22045 -0.475933,0.39455 -0.77493,0.52182 z m -0.963226,-0.71578 c -0.206743,0 -0.398819,-0.0398 -0.577176,-0.11923 -0.177884,-0.08 -0.332113,-0.18877 -0.461742,-0.32738 -0.12963,-0.13862 -0.231818,-0.30326 -0.306566,-0.4944 -0.07475,-0.19065 -0.112123,-0.39502 -0.112123,-0.61311 0,-0.22284 0.03738,-0.42864 0.112123,-0.61693 0.07475,-0.18876 0.176936,-0.35245 0.306566,-0.49107 0.129629,-0.13862 0.283858,-0.24743 0.461742,-0.32691 0.178357,-0.08 0.370433,-0.1197 0.577176,-0.1197 0.206745,0 0.400242,0.0398 0.58049,0.1197 0.180249,0.0795 0.335424,0.18829 0.465053,0.32691 0.129629,0.13862 0.231819,0.30231 0.306567,0.49107 0.07475,0.18829 0.112123,0.39409 0.112123,0.61693 0,0.21809 -0.03738,0.42246 -0.112123,0.61311 -0.07475,0.19114 -0.176938,0.35578 -0.306567,0.4944 -0.129629,0.13861 -0.284804,0.24743 -0.465053,0.32738 -0.180248,0.0795 -0.373745,0.11923 -0.58049,0.11923 z m 14.498499,-0.0411 v 0.87286 h -3.482934 v -4.77165 h 0.9566 v 3.89879 z m 12.057792,0.87286 v -0.87286 h -2.526333 v -3.89879 h -0.956126 v 4.77165 z m 12.150523,-0.8592 v 0.85914 h -3.575187 v -4.77165 h 3.548695 v 0.85867 h -2.592093 v 1.09049 h 1.708348 v 0.8317 h -1.708348 v 1.13165 z m 10.606809,0.92727 c 0.360498,0 0.711063,-0.0794 1.052163,-0.23892 0.340631,-0.15896 0.621176,-0.37233 0.840692,-0.64058 l -0.626374,-0.6406 c -0.162748,0.1954 -0.349622,0.34537 -0.560621,0.44992 -0.211001,0.10408 -0.437614,0.15659 -0.679367,0.15659 -0.215729,0 -0.414433,-0.0398 -0.597048,-0.11921 -0.182614,-0.0795 -0.3411,-0.18736 -0.474989,-0.32408 -0.134357,-0.13625 -0.239861,-0.29852 -0.316498,-0.48729 -0.07712,-0.18829 -0.115437,-0.39172 -0.115437,-0.60982 0,-0.22283 0.03738,-0.42863 0.112126,-0.61692 0.07475,-0.18876 0.177883,-0.35246 0.309877,-0.49107 0.131993,-0.13862 0.289059,-0.24744 0.471675,-0.32691 0.182616,-0.0794 0.377055,-0.11969 0.583801,-0.11969 0.246008,0 0.479247,0.0559 0.699237,0.167 0.219987,0.11165 0.411118,0.27156 0.573864,0.48066 l 0.646252,-0.66091 c -0.215262,-0.27298 -0.496754,-0.48965 -0.844009,-0.65098 -0.347725,-0.16133 -0.705857,-0.24223 -1.075344,-0.24223 -0.342996,0 -0.665173,0.0639 -0.966536,0.19114 -0.300889,0.12726 -0.561565,0.29994 -0.781555,0.51804 -0.219988,0.2181 -0.393615,0.4783 -0.520875,0.78014 -0.127739,0.3023 -0.191606,0.62637 -0.191606,0.97173 0,0.34536 0.06292,0.66801 0.188289,0.96796 0.125373,0.29994 0.297581,0.55872 0.51757,0.77682 0.219989,0.2181 0.480663,0.39078 0.781555,0.51804 0.301362,0.12727 0.625902,0.19113 0.973158,0.19113 z m 12.651532,-3.96739 v 3.89926 h -0.956602 v -3.89926 h -1.556485 v -0.87242 h 4.063421 v 0.87239 z M 89.864,291.77743 v -4.77165 h -0.956606 v 4.77165 z m 11.97878,-0.11592 c -0.299,0.12727 -0.62022,0.19067 -0.96322,0.19067 -0.33827,0 -0.65713,-0.0634 -0.956128,-0.19067 -0.298998,-0.12725 -0.557777,-0.30135 -0.775397,-0.52181 -0.21763,-0.22047 -0.390311,-0.48161 -0.517573,-0.78392 -0.127734,-0.30184 -0.191128,-0.62354 -0.191128,-0.96416 0,-0.34111 0.06339,-0.66234 0.191128,-0.96465 0.127262,-0.3023 0.299943,-0.56346 0.517573,-0.78393 0.21762,-0.22046 0.476399,-0.39409 0.775397,-0.52135 0.298998,-0.12726 0.617858,-0.19113 0.956128,-0.19113 0.343,0 0.66422,0.0638 0.96322,0.19113 0.299,0.12726 0.55731,0.30089 0.77493,0.52135 0.21762,0.22047 0.39031,0.48163 0.51804,0.78393 0.12726,0.30231 0.19113,0.62354 0.19113,0.96465 0,0.34062 -0.0638,0.66232 -0.19113,0.96416 -0.12773,0.30231 -0.30042,0.56345 -0.51804,0.78392 -0.21762,0.22046 -0.47593,0.39456 -0.77493,0.52181 z m -0.96322,-0.71578 c -0.20674,0 -0.39882,-0.0398 -0.57718,-0.11922 -0.17788,-0.08 -0.331637,-0.18877 -0.461743,-0.32738 -0.129626,-0.13862 -0.231814,-0.30326 -0.306563,-0.49439 -0.07477,-0.19066 -0.112124,-0.39504 -0.112124,-0.61312 0,-0.22284 0.03738,-0.42864 0.112124,-0.61693 0.07477,-0.18877 0.176937,-0.35245 0.306563,-0.49108 0.130106,-0.13861 0.283863,-0.24742 0.461743,-0.32691 0.17836,-0.08 0.37044,-0.11969 0.57718,-0.11969 0.20673,0 0.40024,0.0398 0.58048,0.11969 0.18026,0.0795 0.33543,0.1883 0.46506,0.32691 0.12963,0.13863 0.23229,0.30231 0.30704,0.49108 0.0748,0.18829 0.11212,0.39409 0.11212,0.61693 0,0.21808 -0.0374,0.42246 -0.11212,0.61312 -0.0748,0.19113 -0.17741,0.35577 -0.30704,0.49439 -0.12963,0.13861 -0.2848,0.24743 -0.46506,0.32738 -0.18024,0.0795 -0.37375,0.11922 -0.58048,0.11922 z m 11.91965,-2.35887 v 3.19057 h -0.90361 v -4.77165 h 0.91023 l 2.29547,3.08791 v -3.08791 h 0.89699 v 4.77165 h -0.84448 z"
       id="path40"
       inkscape:connector-curvature="0"
       style="clip-rule:evenodd;fill:#ffffff;fill-rule:evenodd;stroke-width:0.47309586" />
  </g>
</svg>
