<?xml version="1.0" encoding="UTF-8" standalone="no"?>
<svg
   version="1.1"
   viewBox="0 0 500 200"
   id="svg134"
   sodipodi:docname="m2000-mono.svg"
   width="500"
   height="200"
   inkscape:version="1.2.2 (b0a8486541, 2022-12-01)"
   xmlns:inkscape="http://www.inkscape.org/namespaces/inkscape"
   xmlns:sodipodi="http://sodipodi.sourceforge.net/DTD/sodipodi-0.dtd"
   xmlns="http://www.w3.org/2000/svg"
   xmlns:svg="http://www.w3.org/2000/svg">
  <defs
     id="defs138" />
  <sodipodi:namedview
     id="namedview136"
     pagecolor="#505050"
     bordercolor="#ffffff"
     borderopacity="1"
     inkscape:showpageshadow="0"
     inkscape:pageopacity="0"
     inkscape:pagecheckerboard="1"
     inkscape:deskcolor="#505050"
     showgrid="false"
     inkscape:zoom="1.5827407"
     inkscape:cx="382.88016"
     inkscape:cy="98.247301"
     inkscape:window-width="1670"
     inkscape:window-height="910"
     inkscape:window-x="0"
     inkscape:window-y="0"
     inkscape:window-maximized="1"
     inkscape:current-layer="svg134" />
  <path
     fill="#e2dacb"
     d="m 22.687132,42.877069 c 1.982333,0.586215 2.691961,1.858919 2.691961,3.956951 q -0.0077,103.30495 0,104.78592 c 0.02314,4.35033 -4.975113,4.84398 -6.656625,1.17243 V 45.445616 q 0.732769,-1.951478 2.637968,-2.568547 z"
     id="path2"
     style="stroke-width:0.771335;fill:#ffffff" />
  <path
     fill="#e2dacb"
     d="m 31.233528,42.877069 c 2.005473,0.563075 2.745955,1.858919 2.745955,3.980091 q 0,98.73865 0,104.91704 a 3.7255501,3.9260973 81.8 0 1 -2.869368,3.63299 q -0.06942,0.0231 -0.131127,0.0154 -3.640703,-0.45509 -3.640703,-3.63299 0,-48.50928 0,-106.020053 0,-2.082606 2.7151,-2.892508 z"
     id="path4"
     style="stroke-width:0.771335;fill:#ffffff" />
  <path
     fill="#e2dacb"
     d="m 39.849345,42.877069 c 2.067179,0.609355 2.707387,1.912912 2.707387,4.072651 q 0,86.36643 0.0077,104.8322 0,2.65339 -2.877081,3.60985 -0.06942,0.0231 -0.138841,0.0154 -3.60985,-0.49365 -3.60985,-3.61756 -0.0077,-59.21542 0,-105.063597 c 0,-2.028612 0.779049,-3.255036 2.661108,-3.848964 z"
     id="path6"
     style="stroke-width:0.771335;fill:#ffffff" />
  <path
     fill="#e2dacb"
     d="m 48.403455,42.877069 q 2.799947,0.732769 2.807661,3.262749 0.03085,8.538683 -0.06171,17.3859 a 3.2164687,3.2164687 0 0 1 -2.236873,3.031348 q -0.825329,0.269968 -0.933316,0.254541 -3.393875,-0.439661 -3.424729,-3.386162 -0.09256,-9.7034 -0.04628,-17.655868 0.01543,-2.105746 2.722814,-2.892508 z"
     id="path8"
     style="stroke-width:0.771335;fill:#ffffff" />
  <path
     fill="#e2dacb"
     d="m 57.050125,42.877069 q 2.784521,0.817616 2.776807,3.663843 -0.0077,11.708872 -0.06942,16.907673 -0.03085,2.69196 -3.046775,3.370736 -0.08485,0.01543 -0.131127,0.0077 -3.386162,-0.455088 -3.432442,-3.386163 -0.08485,-5.731022 -0.03857,-16.514291 0.01543,-3.154762 2.676534,-4.049511 z"
     id="path10"
     style="stroke-width:0.771335;fill:#ffffff" />
  <path
     fill="#e2dacb"
     d="m 65.681368,42.877069 c 1.997759,0.586215 2.699674,1.858919 2.699674,3.964664 q 0.0077,35.072622 -0.0077,62.092497 0,2.75367 -3.000495,3.54043 -0.06942,0.0154 -0.13884,0.008 -3.525003,-0.47823 -3.532717,-3.50958 -0.01543,-6.0087 -0.0077,-63.010389 0,-2.27544 2.699674,-3.085342 z"
     id="path12"
     style="stroke-width:0.771335;fill:#ffffff" />
  <path
     fill="#e2dacb"
     d="m 117.25285,42.877069 q 2.74596,0.771336 2.74596,3.278176 0.008,25.384648 -0.0231,37.864855 -0.008,2.630254 -3.01592,3.463296 -0.0617,0.02314 -0.13884,0.0077 -3.49415,-0.493655 -3.50958,-3.509576 -0.0231,-5.214228 -0.0154,-37.934276 0,-2.306293 2.63797,-3.170189 z"
     id="path14"
     style="stroke-width:0.771335;fill:#ffffff" />
  <path
     fill="#e2dacb"
     d="m 125.84553,42.877069 q 2.73824,0.802189 2.73824,3.278176 0.0154,12.225666 -0.0386,17.2702 -0.0309,2.630253 -3.02364,3.401589 -0.0617,0.01543 -0.13884,0.0077 -3.4093,-0.478228 -3.45558,-3.401589 -0.0849,-6.294097 -0.0463,-17.671294 0.0154,-2.074893 2.69196,-2.884795 z"
     id="path16"
     style="stroke-width:0.771335;fill:#ffffff" />
  <path
     fill="#e2dacb"
     d="m 134.48449,42.877069 q 2.66882,0.809902 2.68425,2.892508 0.0694,10.127634 -0.0309,17.671294 -0.0386,2.614827 -3.02363,3.386163 -0.0771,0.02314 -0.13884,0.0077 -3.44016,-0.509081 -3.45558,-3.409302 -0.0771,-11.701159 -0.0463,-17.663581 0.0154,-2.113459 2.72281,-2.884795 z"
     id="path18"
     style="stroke-width:0.771335;fill:#ffffff" />
  <path
     fill="#e2dacb"
     d="m 143.0386,42.877069 c 1.92834,0.539935 2.70739,1.789498 2.70739,3.833537 q 0.008,46.457532 -0.008,69.157934 0,2.78452 -2.99278,3.47101 -0.0771,0.0154 -0.13884,0.008 -3.47101,-0.41652 -3.47872,-3.47872 -0.0154,-16.915386 0,-69.073087 c 0,-2.074892 0.6942,-3.309029 2.64568,-3.918384 z"
     id="path20"
     style="stroke-width:0.771335;fill:#ffffff" />
  <path
     fill="#e2dacb"
     d="m 194.67951,42.877069 q 2.67653,0.856182 2.67653,2.892508 -0.008,53.414978 0,106.829953 0,2.00547 -2.64568,2.89251 h -1.28813 c -2.15974,-0.60935 -2.76138,-1.98233 -2.76138,-4.2192 q 0,-52.173132 -0.008,-104.34626 0,-3.123908 2.69968,-4.049511 z"
     id="path22"
     style="stroke-width:0.771335;fill:#ffffff" />
  <path
     fill="#e2dacb"
     d="m 203.24133,42.877069 c 1.99776,0.593928 2.69196,1.851205 2.69967,3.956951 q 0.0309,10.914396 -0.0308,16.622278 -0.0308,2.637967 -3.00821,3.363023 -0.0617,0.01543 -0.13884,0.0077 -3.37074,-0.485941 -3.41702,-3.370736 -0.0694,-4.658866 -0.0386,-16.614565 c 0.008,-2.098032 0.6942,-3.316742 2.63025,-3.964664 z"
     id="path24"
     style="stroke-width:0.771335;fill:#ffffff" />
  <path
     fill="#e2dacb"
     d="m 211.85714,42.877069 c 1.94377,0.624782 2.67654,1.858919 2.67654,3.956951 q 0.0386,12.23338 -0.0386,16.606851 -0.0308,2.290867 -2.17516,3.100769 -0.84847,0.316247 -0.97189,0.300821 -3.39387,-0.493655 -3.43244,-3.40159 -0.0386,-3.216468 -0.0309,-17.679007 0,-2.028613 2.69196,-2.884795 z"
     id="path26"
     style="stroke-width:0.771335;fill:#ffffff" />
  <path
     fill="#e2dacb"
     d="m 220.44982,42.877069 q 2.72282,0.825329 2.72282,2.892508 -0.008,53.322417 0,106.637123 0,2.20602 -2.68425,3.08534 h -1.33441 q -2.66882,-0.8639 -2.66882,-2.89251 0.008,-53.322415 0,-106.644833 0,-2.190592 2.6611,-3.077628 z"
     id="path28"
     style="stroke-width:0.771335;fill:#ffffff" />
  <path
     fill="#e2dacb"
     d="m 272.02902,42.877069 q 2.69196,0.848469 2.69196,2.900221 -0.008,52.813336 -0.008,105.62667 c 0,2.16745 -0.61707,3.42473 -2.66111,4.08808 h -1.2727 q -2.69196,-0.8639 -2.69196,-2.89251 0.008,-53.414975 0,-106.829953 0,-1.997759 2.6611,-2.892508 z"
     id="path30"
     style="stroke-width:0.771335;fill:#ffffff" />
  <path
     fill="#e2dacb"
     d="m 280.60627,42.877069 q 2.73053,0.779049 2.74595,2.884795 0.0386,10.690709 -0.0386,17.671294 -0.0386,2.637967 -3.03135,3.393876 -0.0617,0.01543 -0.13884,0.0077 -3.40159,-0.470514 -3.44016,-3.393876 -0.10027,-6.471504 -0.0463,-17.671294 0.008,-2.090319 2.69968,-2.892508 z"
     id="path32"
     style="stroke-width:0.771335;fill:#ffffff" />
  <path
     fill="#e2dacb"
     d="m 289.21437,42.877069 q 2.7151,0.779049 2.72282,2.892508 0.0386,10.891256 -0.0386,17.686721 -0.0308,2.653394 -3.03135,3.378449 -0.054,0.0077 -0.13884,0 -3.39387,-0.470514 -3.43244,-3.401589 -0.0848,-6.371231 -0.0386,-17.663581 0.008,-2.044039 2.68425,-2.892508 z"
     id="path34"
     style="stroke-width:0.771335;fill:#ffffff" />
  <path
     fill="#e2dacb"
     d="m 297.86104,42.877069 q 2.67654,0.879323 2.67654,3.077628 -0.008,53.145011 0,106.290023 0,2.34486 -2.6534,3.24732 h -1.31127 q -2.7151,-0.8099 -2.7151,-2.89251 0,-53.414975 0,-106.829953 0,-2.051752 2.69196,-2.892508 z"
     id="path36"
     style="stroke-width:0.771335;fill:#ffffff" />
  <path
     fill="#e2dacb"
     d="m 349.40939,42.877069 q 2.72281,0.833042 2.72281,3.278176 -0.0154,53.129583 0,106.251455 0,2.24458 -2.69967,3.08534 h -1.30356 q -2.67653,-0.87161 -2.67653,-3.08534 0.0154,-53.029312 0.0231,-106.058621 0,-2.568547 2.63797,-3.47101 z"
     id="path38"
     style="stroke-width:0.771335;fill:#ffffff" />
  <path
     fill="#e2dacb"
     d="m 358.03292,42.877069 q 2.70739,0.840756 2.7151,3.093055 0.0308,10.844976 -0.0463,17.455321 -0.0231,2.64568 -3.02363,3.409302 -0.0617,0.01543 -0.13884,0.0077 -3.40931,-0.447375 -3.44016,-3.386163 -0.14655,-13.405809 -0.0771,-17.108219 0.054,-2.645681 2.73052,-3.47101 z"
     id="path40"
     style="stroke-width:0.771335;fill:#ffffff" />
  <path
     fill="#e2dacb"
     d="m 366.59474,42.877069 q 2.73824,0.802189 2.75367,3.077628 0.0463,10.366748 -0.054,17.509314 -0.0386,2.653394 -3.04678,3.363023 -0.054,0.01543 -0.13884,0 -3.39387,-0.455088 -3.42473,-3.409303 -0.0848,-7.142566 -0.054,-17.540167 0.008,-2.121172 2.66882,-3.000495 z"
     id="path42"
     style="stroke-width:0.771335;fill:#ffffff" />
  <path
     fill="#e2dacb"
     d="m 375.20285,42.877069 q 2.70738,0.840756 2.70738,2.892508 -0.008,53.414978 0,106.829953 0,2.01319 -2.64568,2.89251 h -1.29584 q -2.69967,-0.81762 -2.69967,-2.89251 0,-52.836474 0,-105.67295 0,-3.131622 2.66882,-4.049511 z"
     id="path44"
     style="stroke-width:0.771335;fill:#ffffff" />
  <path
     fill="#e2dacb"
     d="m 410.05178,42.877069 c 1.95148,0.617069 2.67653,1.874345 2.68425,3.964664 q 0.0463,10.436168 -0.0386,16.614565 -0.0386,2.57626 -2.99278,3.393876 -0.0617,0.01543 -0.13884,0 -3.39388,-0.501368 -3.44787,-3.386163 -0.0849,-5.538188 -0.0386,-16.622278 c 0.008,-2.113459 0.71734,-3.339882 2.68425,-3.964664 z"
     id="path46"
     style="stroke-width:0.771335;fill:#ffffff" />
  <path
     fill="#e2dacb"
     d="m 418.58275,42.877069 q 2.73824,0.794476 2.74595,2.884795 0.0386,10.922109 -0.0463,17.702147 -0.0308,2.630254 -3.01592,3.363023 -0.054,0.0077 -0.13884,0 -3.37073,-0.462801 -3.4093,-3.386163 -0.0848,-6.540924 -0.0463,-16.637705 c 0.008,-2.067178 0.74048,-3.309028 2.66882,-3.926097 z"
     id="path48"
     style="stroke-width:0.771335;fill:#ffffff" />
  <path
     fill="#e2dacb"
     d="m 427.22171,42.877069 q 2.69196,0.802189 2.74595,3.278176 0.0309,1.558097 -0.0771,17.29334 -0.0231,2.607113 -2.98507,3.409302 -0.054,0.01543 -0.13113,0 -3.45558,-0.509081 -3.47872,-3.424729 -0.0694,-11.523751 -0.0309,-17.663581 0.008,-2.074892 2.69196,-2.892508 z"
     id="path50"
     style="stroke-width:0.771335;fill:#ffffff" />
  <path
     fill="#e2dacb"
     d="m 435.82981,42.877069 c 2.0209,0.547648 2.72281,1.866632 2.72281,3.980091 q 0.008,82.46347 -0.008,104.87848 0,2.7768 -2.97735,3.54043 -0.0771,0.0231 -0.13113,0.0154 -3.57128,-0.40109 -3.57128,-3.60213 0,-81.167629 0,-105.927496 0,-2.051753 2.64568,-2.884795 z"
     id="path52"
     style="stroke-width:0.771335;fill:#ffffff" />
  <path
     fill="#e2dacb"
     d="m 444.43791,42.877069 q 2.69968,0.794476 2.69968,3.085342 -0.008,48.956659 -0.008,105.750089 0,2.67653 -2.90793,3.61756 -0.0694,0.0231 -0.13884,0.0154 -3.61756,-0.48595 -3.61756,-3.61757 0,-67.946934 0,-104.886187 c -0.008,-2.090319 0.67877,-3.363022 2.64568,-3.964664 z"
     id="path54"
     style="stroke-width:0.771335;fill:#ffffff" />
  <path
     fill="#e2dacb"
     d="m 453.06144,42.877069 c 1.9592,0.586215 2.66882,1.897485 2.66882,3.972378 q 0.0154,58.019853 0,104.909333 0,2.69196 -2.95421,3.55585 -0.0617,0.0231 -0.13113,0.0154 -3.60213,-0.43195 -3.60213,-3.6407 0,-50.49933 0,-104.847627 c 0,-2.074892 0.72505,-3.401589 2.69967,-3.964664 z"
     id="path56"
     style="stroke-width:0.771335;fill:#ffffff" />
  <path
     fill="#e2dacb"
     d="m 461.5847,42.877069 c 2.00547,0.570788 2.73053,1.858919 2.73824,3.972378 q 0.0386,10.312754 -0.0463,16.606851 -0.0308,2.676534 -3.00821,3.363023 -0.0848,0.01543 -0.13113,0.0077 -3.37844,-0.462801 -3.41701,-3.370736 -0.0771,-5.630748 -0.0386,-17.694434 0.008,-2.020899 2.66882,-2.884795 z"
     id="path58"
     style="stroke-width:0.771335;fill:#ffffff" />
  <path
     fill="#e2dacb"
     d="m 470.22366,42.877069 q 2.69196,0.840756 2.69967,2.884795 0.0309,11.369484 -0.0463,17.694434 -0.0308,2.583974 -2.99278,3.386163 -0.0694,0.01543 -0.13884,0.0077 -3.40159,-0.509081 -3.44787,-3.401589 -0.0771,-5.299075 -0.0308,-16.606852 c 0.008,-2.105745 0.70962,-3.347595 2.67653,-3.964664 z"
     id="path60"
     style="stroke-width:0.771335;fill:#ffffff" />
  <path
     fill="#e2dacb"
     d="m 478.80862,42.877069 q 1.87434,0.547648 2.7151,2.4837 v 18.890005 c -1.13386,2.753667 -4.82085,3.602136 -6.2401,0.856182 q -0.42424,-0.825329 -0.42424,-2.653394 0.008,-12.148533 0.0154,-15.874083 c 0,-1.951478 0.87161,-3.116195 2.63025,-3.70241 z"
     id="path62"
     style="stroke-width:0.771335;fill:#ffffff" />
  <rect
     fill="#e2dacb"
     x="70.293953"
     y="43.964649"
     width="6.6951919"
     height="67.368431"
     rx="3.3013158"
     id="rect64"
     style="stroke-width:0.771335;fill:#ffffff" />
  <rect
     fill="#e2dacb"
     x="104.69551"
     y="43.980076"
     width="6.6951919"
     height="43.441612"
     rx="3.2781756"
     id="rect66"
     style="stroke-width:0.771335;fill:#ffffff" />
  <rect
     fill="#e2dacb"
     x="147.70518"
     y="43.964649"
     width="6.648911"
     height="64.576202"
     rx="3.270462"
     id="rect68"
     style="stroke-width:0.771335;fill:#ffffff" />
  <rect
     fill="#e2dacb"
     x="182.09903"
     y="43.964649"
     width="6.648911"
     height="110.4398"
     rx="3.2858891"
     id="rect70"
     style="stroke-width:0.771335;fill:#ffffff" />
  <rect
     fill="#e2dacb"
     x="225.08556"
     y="43.964649"
     width="6.648911"
     height="110.4398"
     rx="3.2858891"
     id="rect72"
     style="stroke-width:0.771335;fill:#ffffff" />
  <rect
     fill="#e2dacb"
     x="259.48712"
     y="43.964649"
     width="6.6334848"
     height="110.4398"
     rx="3.270462"
     id="rect74"
     style="stroke-width:0.771335;fill:#ffffff" />
  <rect
     fill="#e2dacb"
     x="302.44278"
     y="43.972363"
     width="6.6797647"
     height="110.42438"
     rx="3.3013158"
     id="rect76"
     style="stroke-width:0.771335;fill:#ffffff" />
  <rect
     fill="#e2dacb"
     x="336.85205"
     y="43.964649"
     width="6.6951919"
     height="110.4398"
     rx="3.3090289"
     id="rect78"
     style="stroke-width:0.771335;fill:#ffffff" />
  <rect
     fill="#e2dacb"
     x="379.854"
     y="43.964649"
     width="6.648911"
     height="110.4398"
     rx="3.2858891"
     id="rect80"
     style="stroke-width:0.771335;fill:#ffffff" />
  <rect
     fill="#e2dacb"
     x="78.470108"
     y="44.828545"
     width="6.6951919"
     height="65.64064"
     rx="3.2936022"
     id="rect82"
     style="stroke-width:0.771335;fill:#ffffff" />
  <rect
     fill="#e2dacb"
     x="96.519356"
     y="44.836258"
     width="6.6951919"
     height="42.593143"
     rx="3.2781756"
     id="rect84"
     style="stroke-width:0.771335;fill:#ffffff" />
  <rect
     fill="#e2dacb"
     x="155.76041"
     y="45.11401"
     transform="rotate(-0.1)"
     width="6.6334848"
     height="48.624985"
     rx="3.2627487"
     id="rect86"
     style="stroke-width:0.771335;fill:#ffffff" />
  <rect
     fill="#e2dacb"
     x="173.92288"
     y="44.820831"
     width="6.648911"
     height="108.72745"
     rx="3.2858891"
     id="rect88"
     style="stroke-width:0.771335;fill:#ffffff" />
  <rect
     fill="#e2dacb"
     x="233.26172"
     y="44.828545"
     width="6.6334848"
     height="108.71201"
     rx="3.2781756"
     id="rect90"
     style="stroke-width:0.771335;fill:#ffffff" />
  <rect
     fill="#e2dacb"
     x="251.31866"
     y="44.820831"
     width="6.6334848"
     height="108.72745"
     rx="3.2858891"
     id="rect92"
     style="stroke-width:0.771335;fill:#ffffff" />
  <rect
     fill="#e2dacb"
     x="310.62665"
     y="44.820831"
     width="6.6951919"
     height="108.72745"
     rx="3.3167424"
     id="rect94"
     style="stroke-width:0.771335;fill:#ffffff" />
  <rect
     fill="#e2dacb"
     x="328.6759"
     y="44.828545"
     width="6.6643381"
     height="108.71201"
     rx="3.3013158"
     id="rect96"
     style="stroke-width:0.771335;fill:#ffffff" />
  <rect
     fill="#e2dacb"
     x="388.03787"
     y="44.820831"
     width="6.6334848"
     height="108.72745"
     rx="3.2858891"
     id="rect98"
     style="stroke-width:0.771335;fill:#ffffff" />
  <rect
     fill="#e2dacb"
     x="44.164867"
     y="88.737411"
     transform="rotate(-0.2)"
     width="6.6797647"
     height="23.834265"
     rx="3.2396085"
     id="rect100"
     style="stroke-width:0.771335;fill:#ffffff" />
  <rect
     fill="#e2dacb"
     x="53.291599"
     y="88.449165"
     transform="rotate(0.1)"
     width="6.6643381"
     height="23.865118"
     rx="3.2241819"
     id="rect102"
     style="stroke-width:0.771335;fill:#ffffff" />
  <rect
     fill="#e2dacb"
     x="130.47356"
     y="95.011627"
     width="6.6951919"
     height="32.457794"
     rx="3.2627487"
     id="rect104"
     style="stroke-width:0.771335;fill:#ffffff" />
  <rect
     fill="#e2dacb"
     x="121.89629"
     y="105.76405"
     width="6.6643381"
     height="49.488884"
     rx="3.2781756"
     id="rect106"
     style="stroke-width:0.771335;fill:#ffffff" />
  <rect
     fill="#e2dacb"
     x="113.30362"
     y="115.68343"
     width="6.6797647"
     height="39.554081"
     rx="3.270462"
     id="rect108"
     style="stroke-width:0.771335;fill:#ffffff" />
  <rect
     fill="#e2dacb"
     x="104.69551"
     y="123.43534"
     width="6.6951919"
     height="31.809874"
     rx="3.2627487"
     id="rect110"
     style="stroke-width:0.771335;fill:#ffffff" />
  <path
     fill="#e2dacb"
     d="m 203.27218,155.49204 h -1.28813 c -1.94376,-0.62478 -2.67653,-1.85892 -2.68425,-3.94924 q -0.0231,-9.49514 0.054,-16.62999 0.0309,-3.15476 3.21647,-3.17019 0.0154,0 0.13112,0 a 3.201042,3.1933286 89.8 0 1 3.19333,3.1779 q 0.0617,8.99378 0.054,17.67901 -0.008,2.03633 -2.67654,2.89251 z"
     id="path112"
     style="stroke-width:0.771335;fill:#ffffff" />
  <path
     fill="#e2dacb"
     d="m 211.90343,155.49204 h -1.30356 q -2.7151,-0.8099 -2.7151,-2.88479 -0.008,-10.01194 0.054,-17.67901 0.0231,-3.0622 3.20876,-3.1779 0.0309,0 0.13112,0 3.17019,0.1157 3.20105,3.16247 0.0848,8.09131 0.0617,16.62999 c -0.008,2.08261 -0.73277,3.2936 -2.63796,3.94924 z"
     id="path114"
     style="stroke-width:0.771335;fill:#ffffff" />
  <path
     fill="#e2dacb"
     d="m 280.71426,155.49204 h -1.36527 q -2.68424,-0.83304 -2.69196,-2.88479 -0.0463,-8.52326 0.0617,-17.54789 0.0309,-3.13162 3.15476,-3.30902 0.12342,-0.008 0.20055,0 3.18561,0.13112 3.21647,3.18561 0.10027,8.8935 0.054,17.6713 -0.008,1.98233 -2.63025,2.88479 z"
     id="path116"
     style="stroke-width:0.771335;fill:#ffffff" />
  <path
     fill="#e2dacb"
     d="m 289.26065,155.49204 h -1.29584 q -2.7151,-0.84076 -2.72281,-3.07763 -0.0154,-9.14032 0.0617,-17.47846 0.0309,-3.08534 3.2319,-3.19333 0.0463,0 0.19283,0.008 3.12391,0.13112 3.15476,3.26274 0.0771,9.18661 0.054,17.58645 -0.008,2.04404 -2.67654,2.89251 z"
     id="path118"
     style="stroke-width:0.771335;fill:#ffffff" />
  <path
     fill="#e2dacb"
     d="m 358.07149,155.49204 h -1.28813 q -2.74596,-0.79448 -2.75367,-3.07763 -0.0308,-9.56456 0.0694,-17.5016 0.0308,-2.96964 3.23961,-3.1779 0.008,0 0.13112,-0.0154 a 3.2318954,2.8925078 86.9 0 1 3.21647,3.22418 q 0.0849,9.16347 0.054,17.54017 -0.008,2.1366 -2.66882,3.00821 z"
     id="path120"
     style="stroke-width:0.771335;fill:#ffffff" />
  <path
     fill="#e2dacb"
     d="m 366.6256,155.49204 h -1.28042 q -2.70739,-0.85618 -2.7151,-3.10077 -0.0231,-8.91664 0.054,-17.43989 0.0309,-3.20876 3.23961,-3.22418 h 0.19283 q 3.12391,-0.008 3.16248,3.28588 0.15427,13.66035 0.0694,17.2085 -0.054,2.43742 -2.72281,3.27046 z"
     id="path122"
     style="stroke-width:0.771335;fill:#ffffff" />
  <rect
     fill="#e2dacb"
     x="96.125977"
     y="132.90733"
     width="6.6180577"
     height="22.337873"
     rx="3.2010419"
     id="rect124"
     style="stroke-width:0.771335;fill:#ffffff" />
  <rect
     fill="#e2dacb"
     x="130.48126"
     y="133.56297"
     width="6.6797647"
     height="21.674526"
     rx="3.2241819"
     id="rect126"
     style="stroke-width:0.771335;fill:#ffffff" />
  <rect
     fill="#e2dacb"
     x="139.12793"
     y="133.56297"
     width="6.6180577"
     height="21.674526"
     rx="3.1933286"
     id="rect128"
     style="stroke-width:0.771335;fill:#ffffff" />
  <rect
     fill="#e2dacb"
     x="147.70518"
     y="133.56297"
     width="6.648911"
     height="21.674526"
     rx="3.2087553"
     id="rect130"
     style="stroke-width:0.771335;fill:#ffffff" />
  <rect
     fill="#e2dacb"
     x="155.62907"
     y="133.84061"
     transform="rotate(-0.1)"
     width="6.6334848"
     height="21.674526"
     rx="3.2087553"
     id="rect132"
     style="stroke-width:0.771335;fill:#ffffff" />
</svg>
