<?xml version="1.0" encoding="UTF-8" standalone="no"?>
<svg
   xmlns:dc="http://purl.org/dc/elements/1.1/"
   xmlns:cc="http://creativecommons.org/ns#"
   xmlns:rdf="http://www.w3.org/1999/02/22-rdf-syntax-ns#"
   xmlns:svg="http://www.w3.org/2000/svg"
   xmlns="http://www.w3.org/2000/svg"
   xmlns:sodipodi="http://sodipodi.sourceforge.net/DTD/sodipodi-0.dtd"
   xmlns:inkscape="http://www.inkscape.org/namespaces/inkscape"
   version="1.1"
   id="Layer_1"
   x="0px"
   y="0px"
   viewBox="0 0 337.04784 150.32775"
   enable-background="new 0 0 10883.2 5095.7"
   xml:space="preserve"
   sodipodi:docname="mario.svg"
   width="337.04785"
   height="150.32776"
   inkscape:version="1.0.1 (1.0.1+r73)"><metadata
   id="metadata43"><rdf:RDF><cc:Work
       rdf:about=""><dc:format>image/svg+xml</dc:format><dc:type
         rdf:resource="http://purl.org/dc/dcmitype/StillImage" /><dc:title /></cc:Work></rdf:RDF></metadata><defs
   id="defs41">
	
	

		
		
	</defs><sodipodi:namedview
   pagecolor="#ffffff"
   bordercolor="#666666"
   borderopacity="1"
   objecttolerance="10"
   gridtolerance="10"
   guidetolerance="10"
   inkscape:pageopacity="0"
   inkscape:pageshadow="2"
   inkscape:window-width="1366"
   inkscape:window-height="740"
   id="namedview39"
   showgrid="false"
   inkscape:pagecheckerboard="true"
   inkscape:zoom="1.6363744"
   inkscape:cx="132.75107"
   inkscape:cy="39.758568"
   inkscape:window-x="0"
   inkscape:window-y="0"
   inkscape:window-maximized="1"
   inkscape:current-layer="Layer_1"
   inkscape:document-rotation="0" />
<g
   id="g26"
   transform="matrix(0.03354593,0,0,0.03354593,-7.3838478,-5.1618464)"
   style="fill:#ffffff">
			<path
   d="m 9153.2,1803.2 -460.8,-392.6 272.9,-170 c 14.5,-9 24.5,-23.8 27.1,-40.6 l 97.2,-586 c 2.5,-15.9 -4.9,-31.8 -18.8,-40 L 8509.1,243.2 c -15,-8.8 -32.5,-12.1 -49.5,-9.5 l -835.1,127.9 c -5.2,0.8 -9.6,3.4 -13.4,6.5 l 104,18.1 c 18.3,3.1 30.4,20.4 27.5,38.7 l -86,512.4 112.2,1092.9 c 1.6,14.8 14.5,25.6 29.3,24.3 l 406.8,-35.7 c 15,-1.3 26.3,-14 25.9,-29.1 l -16.2,-526.6 19.7,-3.9 372.3,573 c 8.5,13 24.9,18.1 39.3,12 l 503.2,-213 c 11.2,-5 13.6,-20 4.1,-28 z m -628.9,-648.9 -318.3,51.1 -16.4,-555.2 390,137.8 z"
   id="path4"
   inkscape:connector-curvature="0"
   style="fill:#ffffff" />
			<path
   d="m 7464.7,1559.6 -604.1,89.3 -43.2,-296.8 487.7,73.7 c 10.6,1.7 20.3,-5.8 21.8,-16.3 l 42.4,-324.3 c 1.4,-10.3 -6.6,-19.5 -16.9,-19.6 l -501.9,-7.5 76.2,-279 557,168.5 c 9.9,2.9 20.2,-3.4 21.9,-13.6 l 67.2,-401.1 c 1.7,-10.7 -5.4,-20.7 -15.9,-22.6 L 6490.3,324.5 c -10.9,-1.8 -21.5,4.8 -24.6,15.5 l -39.9,140.6 64.8,35 c 17.7,9.5 27.6,29.2 24.8,49.1 l -103.5,702.5 c -3.2,21.4 -13.4,41.3 -29,56.2 l -163.1,156 77.9,481.7 c 1.7,11.1 11.2,19.4 22.6,19.8 l 1215.4,43.1 c 10.1,0.3 18,-8.7 16.6,-18.6 L 7487,1576 c -1.6,-10.7 -11.7,-18.1 -22.3,-16.4 z"
   id="path6"
   inkscape:connector-curvature="0"
   style="fill:#ffffff" />
			<path
   d="M 6333.5,600.7 5767,295.1 c -15.3,-8.1 -33,-11 -50,-7.8 l -829.4,152.8 c -14.8,2.8 -24.9,16.6 -23,31.5 l 12.1,101.3 105.7,14.1 c 18.1,2.4 30.6,19.3 27.6,37.4 l -73.8,438.8 115.5,954.3 c 1.7,14.8 15,25.5 29.8,24 l 416.4,-41.9 c 14.8,-1.5 25.9,-14.5 24.9,-29.4 l -24,-391.1 398.1,-21.9 c 17.2,-0.9 33.6,-8 46.1,-20 l 304.1,-290.9 c 12.6,-12 20.7,-27.9 23.3,-45 L 6352.9,640 c 2.6,-15.9 -5.3,-31.7 -19.4,-39.3 z m -540.2,565.5 -316.3,55.4 -32.8,-531.6 403.2,139.1 z"
   id="path8"
   inkscape:connector-curvature="0"
   style="fill:#ffffff" />
			<path
   d="m 4815.9,715.6 -612.8,-81.3 c -13.7,-1.9 -25.9,9.2 -25.2,23.3 l 36.9,818.3 L 3731,1507.2 3902.1,451 c 2.4,-14.4 -7.9,-27.5 -22.4,-28.9 l -612.4,-57.3 c -14.7,-1.4 -27.4,9.5 -28.4,24.2 l -1.7,28 68.1,52.1 c 17,13.1 28.1,32.5 30.6,53.6 l 3.8,30.6 c 2.7,21.2 -3.3,42.7 -16.6,59.5 l -106.8,135.5 -28.2,450.4 39.8,26.2 c 18,11.8 30.9,30 36.1,50.9 l 6.2,24.4 c 5.4,21 3.5,43.3 -5.2,63.1 l -101.4,229.8 -1.4,20.8 c -1.1,16.9 5.7,33.4 18.3,44.6 l 351.8,316.2 c 12.8,11.5 29.3,18.1 46.5,18.6 L 4350,2013 c 17,0.4 33.3,-6.8 44.5,-19.4 l 271.3,-309.5 c 11.5,-13.1 19.2,-29.3 22.1,-46.5 L 4838,745.5 c 2.5,-14.4 -7.4,-28 -22.1,-29.9 z"
   id="path10"
   inkscape:connector-curvature="0"
   style="fill:#ffffff" />
			<path
   d="m 2415,553.1 474.5,325.4 c 12.3,8.5 29.3,5.9 38.5,-5.8 l 231.2,-293.3 c 9.2,-11.6 6.9,-28.4 -4.7,-37.3 L 2666.2,168 c -13.6,-10.5 -30.9,-15.5 -48,-13.8 l -663.1,63.2 c -16.9,1.7 -32,10.9 -41.5,24.8 l -353.3,527.1 c -8,12.1 -4.4,28.6 8,36.2 l 862.4,525.2 -176.4,239.8 -459.5,-386.9 c -11,-9.4 -27.8,-7.4 -36.4,4.1 l -268.6,357.9 c -9,12.1 -7.1,29 4.3,38.8 l 472.8,402.1 c 13.1,11.2 30,17.2 47.2,16.9 l 784.5,-13.8 c 16.2,-0.3 30.9,-10 37.5,-24.9 l 269.3,-609.8 c 6.3,-14.2 1.4,-30.7 -11.5,-39.3 L 2277.7,778.3 Z"
   id="path12"
   inkscape:connector-curvature="0"
   style="fill:#ffffff" />
			<path
   d="m 10254.9,3264.4 -533,-753.2 c -11.5,-16.2 -29.3,-26.8 -49.1,-29.2 L 8634.1,2355.6 c -19.2,-2.4 -38.3,5.5 -50.3,20.7 l -458.2,579.2 -128.7,728.3 216.9,625.4 c 6.3,18.5 21.1,33 39.8,39 l 867.9,283 c 18.9,6.2 39.7,5 57.9,-3.2 l 825.8,-376.6 c 17.8,-8.2 31.1,-24.1 36,-43.1 l 224.3,-888.2 c 4.7,-19.2 0.9,-39.7 -10.6,-55.7 z m -1219.5,624.3 -348.5,-368.8 250.7,-430.6 464.7,124.7 57.6,463.8 z"
   id="path14"
   inkscape:connector-curvature="0"
   style="fill:#ffffff" />
			<path
   d="m 8003.4,2450.9 -793.1,-189.7 c -15.8,-3.8 -30.9,7.7 -31.5,23.8 l -67.5,1773.3 97.6,81.1 c 18.6,15.5 28.1,39.6 24.8,63.4 l -12.8,91.3 c -3.3,23.9 -18.8,44.6 -40.9,54.4 l -81.4,36.4 -4.9,128.7 c -0.5,16.7 13.4,30.1 30,29.1 l 515.8,-35.4 c 18.3,-1.3 33.4,-14.8 36.6,-32.7 l 352.2,-1985.7 c 3,-17.2 -7.8,-33.9 -24.9,-38 z"
   id="path16"
   inkscape:connector-curvature="0"
   style="fill:#ffffff" />
			<path
   d="m 7007.1,4201.6 -612,-507.7 388.5,-226.8 c 17.2,-9.9 29.2,-26.9 32.8,-46.3 l 135.5,-704.9 c 3.6,-18.3 -4.9,-36.9 -21,-46.4 l -788.7,-460.6 c -17.3,-10.2 -37.9,-14 -57.6,-10.7 L 4970,2378.7 c -17.2,2.8 -29.2,18.6 -27.1,35.9 l 154.9,1334.4 269.6,774 391.5,-35.3 c 17.4,-1.6 30.4,-16.5 29.8,-33.9 l -24.4,-690.7 26,-5.3 499.3,762.1 c 9.8,15 29.2,20.6 45.4,13.3 l 667.6,-298.9 c 13.2,-5.9 15.5,-23.5 4.5,-32.7 z m -847.9,-872.2 -407.4,94.9 -23.5,-656.3 483,130.5 z"
   id="path18"
   inkscape:connector-curvature="0"
   style="fill:#ffffff" />
			<g
   id="g22"
   style="fill:#ffffff">
				<path
   d="m 5126.7,4369.1 -676.1,-1942 c -6.3,-17.8 -22.4,-30.7 -41.3,-32.6 l -925.5,-95 c -17.8,-1.7 -34.5,9.5 -39.6,26.8 l -305.3,1053.7 226.7,1123.7 197.3,37.4 c 16.9,3.2 33,-8 35.8,-24.9 l 71.3,-422.6 619.6,-93.1 105.1,506.7 c 3.5,17 20,28 36.9,24.7 l 674.7,-127.5 c 16.1,-3 25.7,-19.7 20.4,-35.3 z m -1362.6,-833.8 100.8,-598.2 207.1,16.4 124.3,597.2 z"
   id="path20"
   inkscape:connector-curvature="0"
   style="fill:#ffffff" />
			</g>
			<path
   d="m 2761.5,2404.9 c -3.6,-18.2 -18.6,-32.3 -36.9,-34.7 l -507.5,-68.5 c -18.5,-2.5 -36.6,6.9 -45.3,23.4 L 1835.3,2976.3 1603.7,2286 c -6,-18 -21.9,-31.2 -40.7,-33.6 l -469.9,-62.5 c -18.1,-2.4 -36,7.7 -43.2,24.5 L 222.7,4150.3 c -6.9,15.7 0.5,34 16.2,40.9 l 756.2,322.7 c 15.3,6.6 32.8,-1.6 37.7,-17.5 l 356.3,-1162.6 333.6,599.5 c 7.1,13 25.2,14.6 34.7,3 l 458.7,-563.2 72.1,1205.6 c 1,16.4 16.2,28.1 32.3,24.8 l 819.3,-169.3 c 16.9,-3.5 27.6,-20 24.3,-36.8 z"
   id="path24"
   inkscape:connector-curvature="0"
   style="fill:#ffffff" />
		</g>
</svg>
