<?xml version="1.0" encoding="UTF-8" standalone="no"?>
<svg
   xmlns:dc="http://purl.org/dc/elements/1.1/"
   xmlns:cc="http://creativecommons.org/ns#"
   xmlns:rdf="http://www.w3.org/1999/02/22-rdf-syntax-ns#"
   xmlns:svg="http://www.w3.org/2000/svg"
   xmlns="http://www.w3.org/2000/svg"
   xmlns:sodipodi="http://sodipodi.sourceforge.net/DTD/sodipodi-0.dtd"
   xmlns:inkscape="http://www.inkscape.org/namespaces/inkscape"
   width="494.65381"
   height="105.3828"
   viewBox="0 0 494.65381 105.3828"
   version="1.1"
   id="svg45"
   sodipodi:docname="megadrive.svg"
   style="fill:none"
   inkscape:version="0.92.5 (2060ec1f9f, 2020-04-08)">
  <metadata
     id="metadata51">
    <rdf:RDF>
      <cc:Work
         rdf:about="">
        <dc:format>image/svg+xml</dc:format>
        <dc:type
           rdf:resource="http://purl.org/dc/dcmitype/StillImage" />
        <dc:title />
      </cc:Work>
    </rdf:RDF>
  </metadata>
  <defs
     id="defs49" />
  <sodipodi:namedview
     pagecolor="#ffffff"
     bordercolor="#666666"
     borderopacity="1"
     objecttolerance="10"
     gridtolerance="10"
     guidetolerance="10"
     inkscape:pageopacity="0"
     inkscape:pageshadow="2"
     inkscape:window-width="1366"
     inkscape:window-height="740"
     id="namedview47"
     showgrid="false"
     inkscape:pagecheckerboard="true"
     inkscape:zoom="0.98198435"
     inkscape:cx="222.56525"
     inkscape:cy="-76.703294"
     inkscape:window-x="0"
     inkscape:window-y="0"
     inkscape:window-maximized="1"
     inkscape:current-layer="svg45" />
  <path
     d="m 124.94848,2.1e-5 c 5.27344,0 9.68339,2.97516 11.66415,7.260551 l 0.12797,0.287619 14.0073,41.787745 -64.857388,-0.008 c -3.963253,0 -7.569494,-1.52751 -10.269981,-4.01852 l -0.286362,-0.27056 v 4.2851 l -23.156896,0.004 c -5.823259,0 -10.871201,-3.28709 -13.390494,-8.09265 l -0.157322,-0.30873 -0.06398,0.18378 c -2.089375,4.38532 -8.023715,8.05952 -14.086236,8.20899 l -0.363893,0.004 -22.0216654,0.004 V 29.464722 l 4.927892,0.0075 C 4.1119112,26.439161 2.1387694,22.344717 2.1387694,17.830141 2.1500281,8.195876 9.7047143,0.880731 18.985356,0.713506 l 0.340343,-0.0032 21.85714,-0.01882 v 4.754946 c 2.658979,-2.801407 6.423832,-4.61669 10.578709,-4.730891 l 0.416693,-0.0054 h 23.190554 l -0.008,4.221773 c 2.617042,-2.551446 6.138009,-4.128692 10.062657,-4.23443 l 0.421961,-0.0054 22.649437,0.0114 0.0184,20.540522 4.66889,-13.61225 C 115.02419,3.210433 119.58038,0 124.94845,0 Z M 37.787578,11.31555 H 19.239457 l -0.243455,0.0043 c -3.473653,0.128288 -6.260167,2.989968 -6.260167,6.487708 0,3.501181 2.785976,6.352108 6.260167,6.479857 l 5.349251,0.07259 c 4.232408,0.136567 7.615518,3.593122 7.615518,7.837789 0,4.247575 -3.382572,7.711872 -7.615518,7.848762 l -0.260124,0.0043 H 5.5033079 l -0.00743,5.87874 18.5704331,-0.0188 0.329375,-0.004 c 7.445508,-0.17431 13.42555,-6.244138 13.42555,-13.698037 0,-7.468627 -5.980041,-13.539105 -13.42555,-13.713524 l -0.329375,-0.0043 -4.822875,0.02635 -0.101727,-0.0075 c -0.331848,-0.04968 -0.586594,-0.338946 -0.586594,-0.687569 0,-0.348731 0.254746,-0.638426 0.586594,-0.688214 l 0.101727,-0.0075 18.536723,0.0043 z m 14.43131,-7.195331 h 19.822069 v 5.826258 l -19.822069,-0.0032 -0.24066,0.0054 c -3.033733,0.122158 -5.494421,2.542402 -5.615611,5.513336 l -0.0046,0.229799 v 18.551024 l 0.0048,0.244639 c 0.124309,3.081481 2.586932,5.478939 5.621418,5.596903 l 0.234638,0.0043 19.73529,-0.0065 0.004,5.811858 -19.739269,-0.008 -0.311202,-0.004 C 45.704512,45.719266 40.709261,40.73509 40.547209,34.552666 l -0.0041,-0.310126 V 15.754853 l 0.0041,-0.310019 C 40.709261,9.263027 45.704512,4.285799 51.907686,4.124262 Z m 72.725292,-0.680343 -0.30647,0.0043 c -3.96261,0.11933 -7.28217,2.545887 -8.4274,5.863165 l -0.0849,0.263715 -11.01045,32.28917 1.1e-4,-23.364981 H 88.615839 v 5.807989 h 10.6685 V 40.072909 H 85.931697 l -0.233885,-0.0043 c -3.02341,-0.120223 -5.471839,-2.56005 -5.595395,-5.586474 l -0.0049,-0.240122 V 15.754434 l 0.0046,-0.234316 c 0.119685,-3.028894 2.549295,-5.450558 5.574211,-5.572759 l 0.240015,-0.0054 H 105.11504 V 4.119669 H 85.871693 l -0.310986,0.0043 C 79.360221,4.285506 74.365078,9.262734 74.202917,15.444541 l -0.004,0.310019 v 18.487687 l 0.0041,0.310126 c 0.163451,6.182424 5.200855,11.166603 11.402308,11.328443 l 0.310987,0.004 19.198698,0.008 -1.1e-4,-0.005 4.80362,9.7e-4 12.02224,-35.302453 0.0828,-0.181624 c 0.52691,-1.0717 1.62806,-1.810842 2.90985,-1.810842 1.27535,0 2.38079,0.739142 2.91309,1.804519 l 0.0828,0.180516 10.01028,29.494469 h -15.50201 v 5.814875 h 23.59176 L 133.75977,9.585369 133.67697,9.327966 C 132.54142,6.006312 129.21433,3.56726 125.25818,3.444371 Z m -1.73129,7.632433 c 0.29572,-0.663922 0.9592,-1.12881 1.73559,-1.12881 0.83123,0 1.54095,0.533667 1.79258,1.273981 l 9.31992,27.53222 h -13.64706 l 0.0118,-5.177846 0.44089,-1.299004 h 4.12283 l -2.05281,-6.101233 -2.07002,6.101233 h -0.43766 l -0.003,1.299004 -4.17659,12.316242 h -6.87892 L 123.15503,11.21748 Z m -18.09884,0.227864 -19.198698,0.0043 -0.222164,0.0054 c -2.28143,0.112157 -4.111004,1.941731 -4.223161,4.223053 l -0.0054,0.222164 9.68e-4,18.487149 0.0055,0.222594 c 0.11205,2.286487 1.941624,4.125847 4.223054,4.238542 l 0.222164,0.0054 H 97.908234 V 25.679007 h -9.277985 v 5.827237 h 3.443328 l 0.01086,1.368148 h -3.427951 l -0.138503,-0.0075 c -0.638319,-0.06613 -1.149748,-0.583369 -1.215128,-1.222333 l -0.007,-0.138718 -0.03075,-13.014665 c 0.0024,-0.114523 0.05355,-1.239753 1.196309,-1.374385 l 0.179689,-0.01247 H 105.12147 Z M 19.243436,4.120219 h 18.536722 l 0.0074,5.837657 -18.548121,0.0043 -0.259693,0.0043 c -4.225634,0.136728 -7.612045,3.597606 -7.612045,7.841306 0,4.255313 3.386411,7.715954 7.612045,7.852629 l 5.349466,0.06119 c 3.484084,0.127642 6.262963,2.975235 6.262963,6.476416 0,3.504945 -2.778879,6.355983 -6.262963,6.483732 l -0.244101,0.0043 H 5.5033079 l -0.00743,-5.796594 18.5440871,-0.01484 0.09786,-0.0075 c 0.320343,-0.04731 0.575089,-0.323138 0.575089,-0.658212 0,-0.341526 -0.254746,-0.61821 -0.575089,-0.665739 l -0.09786,-0.0075 -4.796529,-0.0075 -0.329052,-0.0043 C 11.476231,31.350428 5.4884468,25.283929 5.4884468,17.822721 c 0,-7.461283 5.9877842,-13.52447 13.4259372,-13.698653 z M 67.823173,25.686427 H 47.771628 v 8.556113 c 0,2.37703 1.873555,4.311879 4.225419,4.42694 l 0.221841,0.0054 19.73486,-0.0075 0.004,-5.785625 -17.003403,-2.15e-4 c -0.107964,-0.0032 -1.244485,-0.0628 -1.368041,-1.196632 l -0.01064,-0.178613 H 67.823173 Z M 52.218888,11.304151 h 19.822069 v 5.834227 H 54.963034 l -0.17829,0.0086 c -0.964575,0.09097 -1.159533,0.918766 -1.198783,1.23072 l -0.0099,0.118287 h 14.247535 v 5.807989 H 47.772165 l 0.0069,-8.548694 0.0055,-0.222164 c 0.114845,-2.354982 2.046791,-4.228537 4.434356,-4.228537 z"
     id="path37"
     inkscape:connector-curvature="0"
     style="clip-rule:evenodd;fill:#ffffff;fill-rule:evenodd;stroke-width:1.07533443" />
  <path
     d="m 144.48946,7.541245 c -0.77532,0.77052 -1.80872,1.199148 -2.90663,1.199148 -1.09362,0 -2.12379,-0.428628 -2.8948,-1.198654 -0.78177,-0.77795 -1.20975,-1.804164 -1.20975,-2.901725 0,-2.255579 1.84527,-4.086507 4.10455,-4.086507 1.09791,0 2.13131,0.428617 2.90663,1.19518 0.77316,0.777951 1.20652,1.800701 1.20652,2.890832 0,1.097562 -0.43336,2.123764 -1.20652,2.901726 z M 139.0902,2.15055 c -0.67208,0.665471 -1.03339,1.552439 -1.03339,2.488475 0,0.943455 0.36023,1.82695 1.03339,2.491936 0.66886,0.665471 1.55601,1.030171 2.49263,1.030171 1.95173,0 3.53785,-1.578709 3.53785,-3.522107 0,-0.936036 -0.36884,-1.823004 -1.03447,-2.488475 -0.66886,-0.664987 -1.55601,-1.026213 -2.50338,-1.026213 -0.93554,0 -1.82269,0.360732 -2.49263,1.026213 z"
     id="path39"
     inkscape:connector-curvature="0"
     style="clip-rule:evenodd;fill:#ffffff;fill-rule:evenodd;stroke-width:1.07533443" />
  <path
     d="m 140.53007,6.916895 v -1.932 h 1.17319 l 1.24417,1.932 h 0.71832 l -1.27857,-1.969669 c 0.006,-0.0011 0.014,-0.0032 0.0226,-0.0043 0.25055,-0.05022 1.06028,-0.21283 1.06028,-1.239635 0,-0.421187 -0.14302,-0.800758 -0.48498,-1.052967 -0.34733,-0.262285 -0.71294,-0.266522 -1.33019,-0.273673 -0.0108,-1.08e-4 -0.0204,-2.26e-4 -0.0312,-3.55e-4 h -1.6872 v 4.54089 z m 1.20653,-2.431977 h -1.20653 V 2.87995 h 1.17319 c 0.0118,0 0.0247,-1.1e-5 0.0366,-2.2e-5 0.33335,-2.47e-4 0.62154,-4.62e-4 0.85059,0.191786 0.25915,0.210593 0.27098,0.514838 0.27098,0.635243 0,0.330515 -0.15055,0.631286 -0.571,0.732873 -0.18066,0.04506 -0.36132,0.04506 -0.5538,0.04506 z"
     id="path41"
     inkscape:connector-curvature="0"
     style="clip-rule:evenodd;fill:#ffffff;fill-rule:evenodd;stroke-width:1.07533443" />
  <path
     d="m 391.41203,61.041626 4.99171,11.08521 h 13.61481 l -4.99278,-11.08521 z m 41.29715,0 -4.99278,11.08521 h 13.61481 l 4.9917,-11.08521 z M 0,61.016626 v 10.07746 h 66.369854 c 0,-5.54261 -2.722854,-9.90951 -6.013054,-10.07746 z m 73.290492,0 v 10.07746 h 43.678998 v -10.07746 z m 56.045348,0 c -3.40344,0 -6.12618,4.53485 -6.12618,10.07746 h 51.62142 v -10.07746 z m 57.7476,0 c -3.40343,0 -6.01327,4.53485 -6.01327,10.07746 h 48.89868 c 0,-5.54261 -2.72274,-10.07746 -6.12618,-10.07746 z m 71.47533,0 v 10.07746 h 51.05365 c 0,-5.54261 -2.72274,-10.07746 -6.01327,-10.07746 z m 64.78137,0 c -3.17654,0.50386 -5.67239,4.70281 -5.67239,10.07746 h 49.91918 c 0,-5.54261 -2.72275,-10.07746 -6.01327,-10.07746 z m 51.50744,0 v 10.07746 h 12.25344 v -10.07746 z m 76.12723,0 v 10.07746 h 43.67901 V 61.016576 Z M 0,74.453366 V 104.35002 H 12.13945 V 74.453366 Z m 27.001754,0 V 104.35002 H 39.141205 V 74.453366 Z m 27.001755,0 V 104.35002 H 66.256407 V 74.453366 Z m 19.286983,0 v 19.14719 c 0.113447,6.04663 3.857332,10.749464 8.395458,10.749464 h 35.28354 V 94.272546 H 88.266244 c -1.474929,0 -2.722854,-1.8477 -2.722854,-4.03115 v -2.51936 h 29.27113 v -9.23768 H 88.266244 c -1.474929,0 -2.722854,-1.84754 -2.722854,-4.03099 z m 49.919168,0 v 19.48326 c 0.22689,5.54261 3.51741,9.909514 7.60153,10.413394 h 35.85058 c 4.53791,-0.50388 8.16931,-6.046494 8.16931,-12.932914 0,-7.22218 -3.8583,-12.93275 -8.73601,-12.93275 H 144.9927 v 9.23768 h 15.0891 c 1.24846,0 2.15604,1.51162 2.15604,3.35915 0,1.84754 -1.02157,3.19136 -2.15604,3.19136 h -22.46374 c -1.24739,0 -2.15604,-1.51179 -2.15604,-3.19136 v -16.62782 z m 57.7476,0 v 29.896654 h 12.25236 V 74.453366 Z m 36.64525,0 v 8.90177 h -22.23684 v 11.7572 h 22.23684 v 9.237684 h 12.25236 V 74.453366 Z m 40.95626,0 v 29.896654 h 12.25236 V 74.453366 Z m 38.80129,0 v 16.62782 c 0,1.84754 -1.02157,3.19136 -2.15604,3.19136 h -22.69063 v 10.077474 h 29.38458 c 4.31102,-0.50388 7.71445,-5.206694 7.71445,-11.085384 v -18.81127 z m 20.30769,0 v 29.896654 h 12.25236 V 74.453366 Z m 37.66574,0 v 5.87852 c 0,1.67959 -1.02049,3.1912 -2.15497,3.1912 h -20.53566 v 11.7572 h 17.13223 l 6.23909,9.237684 h 14.52239 l -8.39514,-12.596984 c 3.17654,-1.84754 5.4455,-6.55037 5.4455,-11.92501 v -5.37464 h -12.25344 z m 19.51409,0 v 29.896654 h 12.25344 V 74.453366 Z m 23.03152,1.03278 13.50082,29.896654 h 14.97511 l 13.38791,-29.896654 h -13.61481 l -7.37464,16.45987 -7.37357,-16.45987 z m 53.09571,-1.03278 v 19.14719 c 0.11291,6.04663 3.85722,10.749464 8.39513,10.749464 h 35.28388 V 94.272546 h -28.70391 c -1.47428,0 -2.72274,-1.8477 -2.72274,-4.03115 v -2.51936 h 29.2706 v -9.23768 h -26.54786 c -1.47428,0 -2.72274,-1.84754 -2.72274,-4.03099 z"
     id="path43"
     inkscape:connector-curvature="0"
     style="fill:#ffffff;stroke-width:1.30532575" />
</svg>
