<?xml version="1.0" encoding="UTF-8" standalone="no"?>
<!-- Created with Inkscape (http://www.inkscape.org/) -->

<svg
   xmlns:dc="http://purl.org/dc/elements/1.1/"
   xmlns:cc="http://creativecommons.org/ns#"
   xmlns:rdf="http://www.w3.org/1999/02/22-rdf-syntax-ns#"
   xmlns:svg="http://www.w3.org/2000/svg"
   xmlns="http://www.w3.org/2000/svg"
   xmlns:sodipodi="http://sodipodi.sourceforge.net/DTD/sodipodi-0.dtd"
   xmlns:inkscape="http://www.inkscape.org/namespaces/inkscape"
   version="1.1"
   id="svg2"
   xml:space="preserve"
   width="500"
   height="160"
   viewBox="0 0 500 160"
   sodipodi:docname="metroid.svg"
   inkscape:version="0.92.5 (2060ec1f9f, 2020-04-08)"><metadata
     id="metadata8"><rdf:RDF><cc:Work
         rdf:about=""><dc:format>image/svg+xml</dc:format><dc:type
           rdf:resource="http://purl.org/dc/dcmitype/StillImage" /><dc:title></dc:title></cc:Work></rdf:RDF></metadata><defs
     id="defs6"><clipPath
       clipPathUnits="userSpaceOnUse"
       id="clipPath18"><path
         d="M 0,396.85 H 595.28 V 0 H 0 Z"
         id="path16"
         inkscape:connector-curvature="0" /></clipPath><clipPath
       clipPathUnits="userSpaceOnUse"
       id="clipPath34"><path
         d="m 175.135,266.175 c 0,0 -9.999,-16.667 -40.167,-28 v 0 l -4.916,-12.75 -5.334,0.083 c 0,0 -5.749,-10.584 -37.416,-24.833 v 0 h 33.083 c 0,-1 -14.388,-46.875 -33.756,-65.5 v 0 c 0,0 59.756,10.5 77.006,85.249 v 0 l 5.5,16.001 h 38 l 19.25,29.75 z"
         id="path32"
         inkscape:connector-curvature="0" /></clipPath><linearGradient
       x1="0"
       y1="0"
       x2="1"
       y2="0"
       gradientUnits="userSpaceOnUse"
       gradientTransform="matrix(91.663811,158.7664,158.7664,-91.663811,96.746582,129.33301)"
       spreadMethod="pad"
       id="linearGradient50"><stop
         style="stop-opacity:1;stop-color:#295da9"
         offset="0"
         id="stop40" /><stop
         style="stop-opacity:1;stop-color:#295da9"
         offset="0.0052356"
         id="stop42" /><stop
         style="stop-opacity:1;stop-color:#295da9"
         offset="0.33581042"
         id="stop44" /><stop
         style="stop-opacity:1;stop-color:#272e65"
         offset="0.795811"
         id="stop46" /><stop
         style="stop-opacity:1;stop-color:#272e65"
         offset="1"
         id="stop48" /></linearGradient><clipPath
       clipPathUnits="userSpaceOnUse"
       id="clipPath60"><path
         d="M 0,396.85 H 595.28 V 0 H 0 Z"
         id="path58"
         inkscape:connector-curvature="0" /></clipPath><clipPath
       clipPathUnits="userSpaceOnUse"
       id="clipPath72"><path
         d="m 191.189,251.41 -2.814,-6.94 7.784,-0.094 -7.316,-19.037 h 8.722 l 7.315,19.131 h 7.034 l 2.721,6.94 z"
         id="path70"
         inkscape:connector-curvature="0" /></clipPath><linearGradient
       x1="0"
       y1="0"
       x2="1"
       y2="0"
       gradientUnits="userSpaceOnUse"
       gradientTransform="matrix(-1.1e-6,-26.071289,-26.071289,1.1e-6,201.50488,251.41016)"
       spreadMethod="pad"
       id="linearGradient86"><stop
         style="stop-opacity:1;stop-color:#e6342a"
         offset="0"
         id="stop78" /><stop
         style="stop-opacity:1;stop-color:#e6342a"
         offset="0.0104712"
         id="stop80" /><stop
         style="stop-opacity:1;stop-color:#f9b233"
         offset="0.989529"
         id="stop82" /><stop
         style="stop-opacity:1;stop-color:#f9b233"
         offset="1"
         id="stop84" /></linearGradient><clipPath
       clipPathUnits="userSpaceOnUse"
       id="clipPath96"><path
         d="m 239.206,251.41 c -0.281,0 -3.844,-9.471 -3.844,-9.471 v 0 h -10.599 l 3.095,9.471 h -8.44 l -9.754,-26.071 h 8.536 l 3.749,9.66 h 10.973 l -3.562,-9.66 h 8.814 c 0,0 9.566,26.071 9.847,26.071 v 0 c 0.188,0 -3.667,0.001 -6.342,0.001 v 0 c -1.337,0 -2.38,0 -2.473,-0.001"
         id="path94"
         inkscape:connector-curvature="0" /></clipPath><linearGradient
       x1="0"
       y1="0"
       x2="1"
       y2="0"
       gradientUnits="userSpaceOnUse"
       gradientTransform="matrix(-1.1e-6,-26.071777,-26.071777,1.1e-6,228.84619,251.41064)"
       spreadMethod="pad"
       id="linearGradient110"><stop
         style="stop-opacity:1;stop-color:#e6342a"
         offset="0"
         id="stop102" /><stop
         style="stop-opacity:1;stop-color:#e6342a"
         offset="0.0104712"
         id="stop104" /><stop
         style="stop-opacity:1;stop-color:#f9b233"
         offset="0.989529"
         id="stop106" /><stop
         style="stop-opacity:1;stop-color:#f9b233"
         offset="1"
         id="stop108" /></linearGradient><clipPath
       clipPathUnits="userSpaceOnUse"
       id="clipPath120"><path
         d="m 252.526,251.41 -9.755,-26.071 h 23.165 l 2.439,6.847 h -14.35 l 1.031,2.907 h 14.35 l 2.625,6.751 h -14.347 l 1.031,2.627 h 14.255 l 3.001,6.939 z"
         id="path118"
         inkscape:connector-curvature="0" /></clipPath><linearGradient
       x1="0"
       y1="0"
       x2="1"
       y2="0"
       gradientUnits="userSpaceOnUse"
       gradientTransform="matrix(-1.1e-6,-26.071289,-26.071289,1.1e-6,259.37109,251.41016)"
       spreadMethod="pad"
       id="linearGradient134"><stop
         style="stop-opacity:1;stop-color:#e6342a"
         offset="0"
         id="stop126" /><stop
         style="stop-opacity:1;stop-color:#e6342a"
         offset="0.0104712"
         id="stop128" /><stop
         style="stop-opacity:1;stop-color:#f9b233"
         offset="0.989529"
         id="stop130" /><stop
         style="stop-opacity:1;stop-color:#f9b233"
         offset="1"
         id="stop132" /></linearGradient><clipPath
       clipPathUnits="userSpaceOnUse"
       id="clipPath144"><path
         d="m 309.733,251.41 -11.821,-10.502 h -1.026 l 3.751,10.502 h -8.628 l -9.847,-26.071 h 8.722 l 4.97,13.035 4.501,-13.035 h 8.816 l -4.596,14.068 13.504,12.003 z"
         id="path142"
         inkscape:connector-curvature="0" /></clipPath><linearGradient
       x1="0"
       y1="0"
       x2="1"
       y2="0"
       gradientUnits="userSpaceOnUse"
       gradientTransform="matrix(-1.1e-6,-26.071289,-26.071289,1.1e-6,300.12109,251.41016)"
       spreadMethod="pad"
       id="linearGradient158"><stop
         style="stop-opacity:1;stop-color:#e6342a"
         offset="0"
         id="stop150" /><stop
         style="stop-opacity:1;stop-color:#e6342a"
         offset="0.0104712"
         id="stop152" /><stop
         style="stop-opacity:1;stop-color:#f9b233"
         offset="0.989529"
         id="stop154" /><stop
         style="stop-opacity:1;stop-color:#f9b233"
         offset="1"
         id="stop156" /></linearGradient><clipPath
       clipPathUnits="userSpaceOnUse"
       id="clipPath168"><path
         d="m 323.051,251.41 -9.845,-26.071 h 9.002 l 9.566,26.071 z"
         id="path166"
         inkscape:connector-curvature="0" /></clipPath><linearGradient
       x1="0"
       y1="0"
       x2="1"
       y2="0"
       gradientUnits="userSpaceOnUse"
       gradientTransform="matrix(-1.1e-6,-26.071289,-26.071289,1.1e-6,322.49023,251.41016)"
       spreadMethod="pad"
       id="linearGradient182"><stop
         style="stop-opacity:1;stop-color:#e6342a"
         offset="0"
         id="stop174" /><stop
         style="stop-opacity:1;stop-color:#e6342a"
         offset="0.0104712"
         id="stop176" /><stop
         style="stop-opacity:1;stop-color:#f9b233"
         offset="0.989529"
         id="stop178" /><stop
         style="stop-opacity:1;stop-color:#f9b233"
         offset="1"
         id="stop180" /></linearGradient><clipPath
       clipPathUnits="userSpaceOnUse"
       id="clipPath192"><path
         d="m 360.689,251.421 c -2.012,-0.027 -3.922,-0.054 -3.965,-0.011 v 0 c -0.095,0.093 -4.877,-13.036 -4.877,-13.036 v 0 l -7.409,13.036 h -7.691 l -10.035,-26.071 h 8.629 l 5.346,13.881 8.064,-13.881 h 6.848 c 0,0 9.611,25.931 9.751,26.071 v 0 c 0.034,0.034 -0.447,0.046 -1.197,0.046 v 0 c -0.906,0 -2.205,-0.017 -3.464,-0.035"
         id="path190"
         inkscape:connector-curvature="0" /></clipPath><linearGradient
       x1="0"
       y1="0"
       x2="1"
       y2="0"
       gradientUnits="userSpaceOnUse"
       gradientTransform="matrix(-1.1e-6,-26.117188,-26.117188,1.1e-6,346.03223,251.45605)"
       spreadMethod="pad"
       id="linearGradient206"><stop
         style="stop-opacity:1;stop-color:#e6342a"
         offset="0"
         id="stop198" /><stop
         style="stop-opacity:1;stop-color:#e6342a"
         offset="0.0104712"
         id="stop200" /><stop
         style="stop-opacity:1;stop-color:#f9b233"
         offset="0.989529"
         id="stop202" /><stop
         style="stop-opacity:1;stop-color:#f9b233"
         offset="1"
         id="stop204" /></linearGradient><clipPath
       clipPathUnits="userSpaceOnUse"
       id="clipPath216"><path
         d="m 372.73,249.739 c -1.891,-1.032 -3.723,-2.258 -5.258,-3.774 v 0 c -3.106,-3.063 -5.965,-7.91 -4.909,-12.448 v 0 c 0.541,-2.327 2.196,-4.237 4.119,-5.588 v 0 c 1.501,-1.053 3.24,-1.746 5.034,-2.102 v 0 c 4.794,-0.949 9.897,-0.488 14.759,-0.488 v 0 l 6.176,16.891 c 0,0 -9.992,-0.182 -9.931,0 v 0 c 0.06,0.181 -5.994,-6.965 -5.994,-6.965 v 0 h 4.48 l -1.211,-2.725 c -11.445,-0.787 -8.237,6.238 -8.237,6.238 v 0 c 3.27,6.783 9.206,6.056 9.206,6.056 v 0 h 8.539 l 5.929,6.616 c -0.543,-0.027 -8.169,0.006 -8.169,0.006 v 0 c -1.35,0.099 -2.595,0.142 -3.742,0.142 v 0 c -7.551,0 -10.791,-1.859 -10.791,-1.859 m 22.702,1.711 c 0.038,0.002 0.042,0.004 0.006,0.006 v 0 z"
         id="path214"
         inkscape:connector-curvature="0" /></clipPath><linearGradient
       x1="0"
       y1="0"
       x2="1"
       y2="0"
       gradientUnits="userSpaceOnUse"
       gradientTransform="matrix(-1.2e-6,-26.370605,-26.370605,1.2e-6,378.90137,251.59766)"
       spreadMethod="pad"
       id="linearGradient230"><stop
         style="stop-opacity:1;stop-color:#e6342a"
         offset="0"
         id="stop222" /><stop
         style="stop-opacity:1;stop-color:#e6342a"
         offset="0.0104712"
         id="stop224" /><stop
         style="stop-opacity:1;stop-color:#f9b233"
         offset="0.989529"
         id="stop226" /><stop
         style="stop-opacity:1;stop-color:#f9b233"
         offset="1"
         id="stop228" /></linearGradient><clipPath
       clipPathUnits="userSpaceOnUse"
       id="clipPath240"><path
         d="m 413.146,249.066 c -8.706,-5.017 -13.081,-13.743 -9.766,-19.49 v 0 c 3.308,-5.75 13.056,-6.348 21.767,-1.331 v 0 c 8.703,5.016 13.075,13.744 9.762,19.493 v 0 c -1.802,3.131 -5.512,4.733 -9.925,4.733 v 0 c -3.69,0.001 -7.871,-1.12 -11.838,-3.405 m 0.202,-14.591 c -1.597,2.203 -0.335,5.842 2.815,8.126 v 0 c 3.154,2.285 7.006,2.35 8.602,0.146 v 0 c 1.597,-2.204 0.336,-5.843 -2.814,-8.127 v 0 c -1.614,-1.169 -3.411,-1.757 -4.995,-1.757 v 0 c -1.511,0 -2.828,0.535 -3.608,1.612"
         id="path238"
         inkscape:connector-curvature="0" /></clipPath><linearGradient
       x1="0"
       y1="0"
       x2="1"
       y2="0"
       gradientUnits="userSpaceOnUse"
       gradientTransform="matrix(-1.2e-6,-27.631348,-27.631348,1.2e-6,419.14453,252.47119)"
       spreadMethod="pad"
       id="linearGradient254"><stop
         style="stop-opacity:1;stop-color:#e6342a"
         offset="0"
         id="stop246" /><stop
         style="stop-opacity:1;stop-color:#e6342a"
         offset="0.0104712"
         id="stop248" /><stop
         style="stop-opacity:1;stop-color:#f9b233"
         offset="0.989529"
         id="stop250" /><stop
         style="stop-opacity:1;stop-color:#f9b233"
         offset="1"
         id="stop252" /></linearGradient><clipPath
       clipPathUnits="userSpaceOnUse"
       id="clipPath264"><path
         d="m 442.66,251.599 -9.989,-25.957 h 8.994 l 3.447,9.871 h 13.844 l 2.687,6.835 h -13.552 l 0.877,2.627 h 13.902 l 2.57,6.624 z"
         id="path262"
         inkscape:connector-curvature="0" /></clipPath><linearGradient
       x1="0"
       y1="0"
       x2="1"
       y2="0"
       gradientUnits="userSpaceOnUse"
       gradientTransform="matrix(-1.1e-6,-25.957031,-25.957031,1.1e-6,449.05566,251.59863)"
       spreadMethod="pad"
       id="linearGradient278"><stop
         style="stop-opacity:1;stop-color:#e6342a"
         offset="0"
         id="stop270" /><stop
         style="stop-opacity:1;stop-color:#e6342a"
         offset="0.0104712"
         id="stop272" /><stop
         style="stop-opacity:1;stop-color:#f9b233"
         offset="0.989529"
         id="stop274" /><stop
         style="stop-opacity:1;stop-color:#f9b233"
         offset="1"
         id="stop276" /></linearGradient><clipPath
       clipPathUnits="userSpaceOnUse"
       id="clipPath288"><path
         d="M 0,396.85 H 595.28 V 0 H 0 Z"
         id="path286"
         inkscape:connector-curvature="0" /></clipPath><clipPath
       clipPathUnits="userSpaceOnUse"
       id="clipPath332"><path
         d="m 191.189,251.41 -2.814,-6.94 7.784,-0.094 -7.316,-19.037 h 8.722 l 7.315,19.131 h 7.034 l 2.721,6.94 z"
         id="path330"
         inkscape:connector-curvature="0" /></clipPath><linearGradient
       x1="0"
       y1="0"
       x2="1"
       y2="0"
       gradientUnits="userSpaceOnUse"
       gradientTransform="matrix(-1.1e-6,-26.071289,-26.071289,1.1e-6,201.50488,251.41016)"
       spreadMethod="pad"
       id="linearGradient346"><stop
         style="stop-opacity:1;stop-color:#e6342a"
         offset="0"
         id="stop338" /><stop
         style="stop-opacity:1;stop-color:#e6342a"
         offset="0.0104712"
         id="stop340" /><stop
         style="stop-opacity:1;stop-color:#f9b233"
         offset="0.989529"
         id="stop342" /><stop
         style="stop-opacity:1;stop-color:#f9b233"
         offset="1"
         id="stop344" /></linearGradient><clipPath
       clipPathUnits="userSpaceOnUse"
       id="clipPath356"><path
         d="m 239.206,251.41 c -0.281,0 -3.844,-9.471 -3.844,-9.471 v 0 h -10.599 l 3.095,9.471 h -8.44 l -9.754,-26.071 h 8.536 l 3.749,9.66 h 10.973 l -3.562,-9.66 h 8.814 c 0,0 9.566,26.071 9.847,26.071 v 0 c 0.188,0 -3.667,0.001 -6.342,0.001 v 0 c -1.337,0 -2.38,0 -2.473,-0.001"
         id="path354"
         inkscape:connector-curvature="0" /></clipPath><linearGradient
       x1="0"
       y1="0"
       x2="1"
       y2="0"
       gradientUnits="userSpaceOnUse"
       gradientTransform="matrix(-1.1e-6,-26.071777,-26.071777,1.1e-6,228.84619,251.41064)"
       spreadMethod="pad"
       id="linearGradient370"><stop
         style="stop-opacity:1;stop-color:#e6342a"
         offset="0"
         id="stop362" /><stop
         style="stop-opacity:1;stop-color:#e6342a"
         offset="0.0104712"
         id="stop364" /><stop
         style="stop-opacity:1;stop-color:#f9b233"
         offset="0.989529"
         id="stop366" /><stop
         style="stop-opacity:1;stop-color:#f9b233"
         offset="1"
         id="stop368" /></linearGradient><clipPath
       clipPathUnits="userSpaceOnUse"
       id="clipPath380"><path
         d="m 252.526,251.41 -9.755,-26.071 h 23.165 l 2.439,6.847 h -14.35 l 1.031,2.907 h 14.35 l 2.625,6.751 h -14.347 l 1.031,2.627 h 14.255 l 3.001,6.939 z"
         id="path378"
         inkscape:connector-curvature="0" /></clipPath><linearGradient
       x1="0"
       y1="0"
       x2="1"
       y2="0"
       gradientUnits="userSpaceOnUse"
       gradientTransform="matrix(-1.1e-6,-26.071289,-26.071289,1.1e-6,259.37109,251.41016)"
       spreadMethod="pad"
       id="linearGradient394"><stop
         style="stop-opacity:1;stop-color:#e6342a"
         offset="0"
         id="stop386" /><stop
         style="stop-opacity:1;stop-color:#e6342a"
         offset="0.0104712"
         id="stop388" /><stop
         style="stop-opacity:1;stop-color:#f9b233"
         offset="0.989529"
         id="stop390" /><stop
         style="stop-opacity:1;stop-color:#f9b233"
         offset="1"
         id="stop392" /></linearGradient><clipPath
       clipPathUnits="userSpaceOnUse"
       id="clipPath404"><path
         d="m 309.733,251.41 -11.821,-10.502 h -1.026 l 3.751,10.502 h -8.628 l -9.847,-26.071 h 8.722 l 4.97,13.035 4.501,-13.035 h 8.816 l -4.596,14.068 13.504,12.003 z"
         id="path402"
         inkscape:connector-curvature="0" /></clipPath><linearGradient
       x1="0"
       y1="0"
       x2="1"
       y2="0"
       gradientUnits="userSpaceOnUse"
       gradientTransform="matrix(-1.1e-6,-26.071289,-26.071289,1.1e-6,300.12109,251.41016)"
       spreadMethod="pad"
       id="linearGradient418"><stop
         style="stop-opacity:1;stop-color:#e6342a"
         offset="0"
         id="stop410" /><stop
         style="stop-opacity:1;stop-color:#e6342a"
         offset="0.0104712"
         id="stop412" /><stop
         style="stop-opacity:1;stop-color:#f9b233"
         offset="0.989529"
         id="stop414" /><stop
         style="stop-opacity:1;stop-color:#f9b233"
         offset="1"
         id="stop416" /></linearGradient><clipPath
       clipPathUnits="userSpaceOnUse"
       id="clipPath428"><path
         d="m 323.051,251.41 -9.845,-26.071 h 9.002 l 9.566,26.071 z"
         id="path426"
         inkscape:connector-curvature="0" /></clipPath><linearGradient
       x1="0"
       y1="0"
       x2="1"
       y2="0"
       gradientUnits="userSpaceOnUse"
       gradientTransform="matrix(-1.1e-6,-26.071289,-26.071289,1.1e-6,322.49023,251.41016)"
       spreadMethod="pad"
       id="linearGradient442"><stop
         style="stop-opacity:1;stop-color:#e6342a"
         offset="0"
         id="stop434" /><stop
         style="stop-opacity:1;stop-color:#e6342a"
         offset="0.0104712"
         id="stop436" /><stop
         style="stop-opacity:1;stop-color:#f9b233"
         offset="0.989529"
         id="stop438" /><stop
         style="stop-opacity:1;stop-color:#f9b233"
         offset="1"
         id="stop440" /></linearGradient><clipPath
       clipPathUnits="userSpaceOnUse"
       id="clipPath452"><path
         d="m 360.689,251.421 c -2.012,-0.027 -3.922,-0.054 -3.965,-0.011 v 0 c -0.095,0.093 -4.877,-13.036 -4.877,-13.036 v 0 l -7.409,13.036 h -7.691 l -10.035,-26.071 h 8.629 l 5.346,13.881 8.064,-13.881 h 6.848 c 0,0 9.611,25.931 9.751,26.071 v 0 c 0.034,0.034 -0.447,0.046 -1.197,0.046 v 0 c -0.906,0 -2.205,-0.017 -3.464,-0.035"
         id="path450"
         inkscape:connector-curvature="0" /></clipPath><linearGradient
       x1="0"
       y1="0"
       x2="1"
       y2="0"
       gradientUnits="userSpaceOnUse"
       gradientTransform="matrix(-1.1e-6,-26.117188,-26.117188,1.1e-6,346.03223,251.45605)"
       spreadMethod="pad"
       id="linearGradient466"><stop
         style="stop-opacity:1;stop-color:#e6342a"
         offset="0"
         id="stop458" /><stop
         style="stop-opacity:1;stop-color:#e6342a"
         offset="0.0104712"
         id="stop460" /><stop
         style="stop-opacity:1;stop-color:#f9b233"
         offset="0.989529"
         id="stop462" /><stop
         style="stop-opacity:1;stop-color:#f9b233"
         offset="1"
         id="stop464" /></linearGradient><clipPath
       clipPathUnits="userSpaceOnUse"
       id="clipPath476"><path
         d="m 372.73,249.739 c -1.891,-1.032 -3.723,-2.258 -5.258,-3.774 v 0 c -3.106,-3.063 -5.965,-7.91 -4.909,-12.448 v 0 c 0.541,-2.327 2.196,-4.237 4.119,-5.588 v 0 c 1.501,-1.053 3.24,-1.746 5.034,-2.102 v 0 c 4.794,-0.949 9.897,-0.488 14.759,-0.488 v 0 l 6.176,16.891 c 0,0 -9.992,-0.182 -9.931,0 v 0 c 0.06,0.181 -5.994,-6.965 -5.994,-6.965 v 0 h 4.48 l -1.211,-2.725 c -11.445,-0.787 -8.237,6.238 -8.237,6.238 v 0 c 3.27,6.783 9.206,6.056 9.206,6.056 v 0 h 8.539 l 5.929,6.616 c -0.543,-0.027 -8.169,0.006 -8.169,0.006 v 0 c -1.35,0.099 -2.595,0.142 -3.742,0.142 v 0 c -7.551,0 -10.791,-1.859 -10.791,-1.859 m 22.702,1.711 c 0.038,0.002 0.042,0.004 0.006,0.006 v 0 z"
         id="path474"
         inkscape:connector-curvature="0" /></clipPath><linearGradient
       x1="0"
       y1="0"
       x2="1"
       y2="0"
       gradientUnits="userSpaceOnUse"
       gradientTransform="matrix(-1.2e-6,-26.370605,-26.370605,1.2e-6,378.90137,251.59766)"
       spreadMethod="pad"
       id="linearGradient490"><stop
         style="stop-opacity:1;stop-color:#e6342a"
         offset="0"
         id="stop482" /><stop
         style="stop-opacity:1;stop-color:#e6342a"
         offset="0.0104712"
         id="stop484" /><stop
         style="stop-opacity:1;stop-color:#f9b233"
         offset="0.989529"
         id="stop486" /><stop
         style="stop-opacity:1;stop-color:#f9b233"
         offset="1"
         id="stop488" /></linearGradient><clipPath
       clipPathUnits="userSpaceOnUse"
       id="clipPath500"><path
         d="m 413.146,249.066 c -8.706,-5.017 -13.081,-13.743 -9.766,-19.49 v 0 c 3.308,-5.75 13.056,-6.348 21.767,-1.331 v 0 c 8.703,5.016 13.075,13.744 9.762,19.493 v 0 c -1.802,3.131 -5.512,4.733 -9.925,4.733 v 0 c -3.69,0.001 -7.871,-1.12 -11.838,-3.405 m 0.202,-14.591 c -1.597,2.203 -0.335,5.842 2.815,8.126 v 0 c 3.154,2.285 7.006,2.35 8.602,0.146 v 0 c 1.597,-2.204 0.336,-5.843 -2.814,-8.127 v 0 c -1.614,-1.169 -3.411,-1.757 -4.995,-1.757 v 0 c -1.511,0 -2.828,0.535 -3.608,1.612"
         id="path498"
         inkscape:connector-curvature="0" /></clipPath><linearGradient
       x1="0"
       y1="0"
       x2="1"
       y2="0"
       gradientUnits="userSpaceOnUse"
       gradientTransform="matrix(-1.2e-6,-27.631348,-27.631348,1.2e-6,419.14453,252.47119)"
       spreadMethod="pad"
       id="linearGradient514"><stop
         style="stop-opacity:1;stop-color:#e6342a"
         offset="0"
         id="stop506" /><stop
         style="stop-opacity:1;stop-color:#e6342a"
         offset="0.0104712"
         id="stop508" /><stop
         style="stop-opacity:1;stop-color:#f9b233"
         offset="0.989529"
         id="stop510" /><stop
         style="stop-opacity:1;stop-color:#f9b233"
         offset="1"
         id="stop512" /></linearGradient><clipPath
       clipPathUnits="userSpaceOnUse"
       id="clipPath524"><path
         d="m 442.66,251.599 -9.989,-25.957 h 8.994 l 3.447,9.871 h 13.844 l 2.687,6.835 h -13.552 l 0.877,2.627 h 13.902 l 2.57,6.624 z"
         id="path522"
         inkscape:connector-curvature="0" /></clipPath><linearGradient
       x1="0"
       y1="0"
       x2="1"
       y2="0"
       gradientUnits="userSpaceOnUse"
       gradientTransform="matrix(-1.1e-6,-25.957031,-25.957031,1.1e-6,449.05566,251.59863)"
       spreadMethod="pad"
       id="linearGradient538"><stop
         style="stop-opacity:1;stop-color:#e6342a"
         offset="0"
         id="stop530" /><stop
         style="stop-opacity:1;stop-color:#e6342a"
         offset="0.0104712"
         id="stop532" /><stop
         style="stop-opacity:1;stop-color:#f9b233"
         offset="0.989529"
         id="stop534" /><stop
         style="stop-opacity:1;stop-color:#f9b233"
         offset="1"
         id="stop536" /></linearGradient><clipPath
       clipPathUnits="userSpaceOnUse"
       id="clipPath548"><path
         d="M 0,396.85 H 595.28 V 0 H 0 Z"
         id="path546"
         inkscape:connector-curvature="0" /></clipPath><clipPath
       clipPathUnits="userSpaceOnUse"
       id="clipPath588"><path
         d="m 148.96,216.082 -22.375,-59.125 h 16.25 l 9.125,24.25 h 21 l 5.25,14.375 h -20.625 l 2.625,6.625 h 20.375 l 4.875,13.875 z"
         id="path586"
         inkscape:connector-curvature="0" /></clipPath><linearGradient
       x1="0"
       y1="0"
       x2="1"
       y2="0"
       gradientUnits="userSpaceOnUse"
       gradientTransform="matrix(-2.6e-6,-59.125488,-59.125488,2.6e-6,156.02246,216.08203)"
       spreadMethod="pad"
       id="linearGradient602"><stop
         style="stop-opacity:1;stop-color:#ea5b0b"
         offset="0"
         id="stop594" /><stop
         style="stop-opacity:1;stop-color:#fcea12"
         offset="0.48564172"
         id="stop596" /><stop
         style="stop-opacity:1;stop-color:#fcea12"
         offset="0.989529"
         id="stop598" /><stop
         style="stop-opacity:1;stop-color:#fcea12"
         offset="1"
         id="stop600" /></linearGradient><clipPath
       clipPathUnits="userSpaceOnUse"
       id="clipPath612"><path
         d="m 194.085,216.082 -23.25,-59.125 h 16.5 l 22.875,59.125 z"
         id="path610"
         inkscape:connector-curvature="0" /></clipPath><linearGradient
       x1="0"
       y1="0"
       x2="1"
       y2="0"
       gradientUnits="userSpaceOnUse"
       gradientTransform="matrix(-2.6e-6,-59.125488,-59.125488,2.6e-6,190.52246,216.08203)"
       spreadMethod="pad"
       id="linearGradient626"><stop
         style="stop-opacity:1;stop-color:#ea5b0b"
         offset="0"
         id="stop618" /><stop
         style="stop-opacity:1;stop-color:#fcea12"
         offset="0.48564172"
         id="stop620" /><stop
         style="stop-opacity:1;stop-color:#fcea12"
         offset="0.989529"
         id="stop622" /><stop
         style="stop-opacity:1;stop-color:#fcea12"
         offset="1"
         id="stop624" /></linearGradient><clipPath
       clipPathUnits="userSpaceOnUse"
       id="clipPath636"><path
         d="m 241.085,216.082 c -4.824,-0.195 -10.177,-1.072 -14.635,-2.97 v 0 c -6.127,-2.608 -12.083,-7.142 -15.815,-12.678 v 0 c -3.477,-5.157 -6.548,-10.403 -7.111,-16.805 v 0 c -0.247,-2.816 -0.388,-5.62 0.003,-8.43 v 0 c 0.651,-4.683 2.12,-9.931 5.647,-13.273 v 0 c 2.449,-2.317 6.604,-4.969 10.136,-4.969 v 0 h 21.326 l 13.074,34.375 -19,0.125 -11.75,-14.5 h 8.75 l -2.5,-5.75 c -6.924,-0.537 -10.308,5.512 -9.954,11.716 v 0 c 0.169,2.97 1.818,6.758 3.329,9.282 v 0 c 2.778,4.644 7.625,7.383 12.726,8.785 v 0 c 2.477,0.681 5.029,1.039 7.594,1.151 v 0 c 1.278,0.054 2.557,0.047 3.835,0.007 v 0 c 0.497,-0.015 3.6,-0.496 3.845,-0.191 v 0 c 0.007,0.01 11.375,14.125 11.375,14.125 v 0 z"
         id="path634"
         inkscape:connector-curvature="0" /></clipPath><linearGradient
       x1="0"
       y1="0"
       x2="1"
       y2="0"
       gradientUnits="userSpaceOnUse"
       gradientTransform="matrix(-2.6e-6,-59.125488,-59.125488,2.6e-6,232.62158,216.08203)"
       spreadMethod="pad"
       id="linearGradient650"><stop
         style="stop-opacity:1;stop-color:#ea5b0b"
         offset="0"
         id="stop642" /><stop
         style="stop-opacity:1;stop-color:#fcea12"
         offset="0.48564172"
         id="stop644" /><stop
         style="stop-opacity:1;stop-color:#fcea12"
         offset="0.989529"
         id="stop646" /><stop
         style="stop-opacity:1;stop-color:#fcea12"
         offset="1"
         id="stop648" /></linearGradient><clipPath
       clipPathUnits="userSpaceOnUse"
       id="clipPath660"><path
         d="m 301.084,216.082 -8.499,-20.625 h -14.75 l 8.125,20.625 h -16.25 l -23.25,-59.125 h 16.75 l 9.5,24.5 14.25,-0.125 -8.875,-24.375 h 16.5 l 22.499,59.125 z"
         id="path658"
         inkscape:connector-curvature="0" /></clipPath><linearGradient
       x1="0"
       y1="0"
       x2="1"
       y2="0"
       gradientUnits="userSpaceOnUse"
       gradientTransform="matrix(-2.6e-6,-59.125488,-59.125488,2.6e-6,281.77197,216.08203)"
       spreadMethod="pad"
       id="linearGradient674"><stop
         style="stop-opacity:1;stop-color:#ea5b0b"
         offset="0"
         id="stop666" /><stop
         style="stop-opacity:1;stop-color:#fcea12"
         offset="0.48564172"
         id="stop668" /><stop
         style="stop-opacity:1;stop-color:#fcea12"
         offset="0.989529"
         id="stop670" /><stop
         style="stop-opacity:1;stop-color:#fcea12"
         offset="1"
         id="stop672" /></linearGradient><clipPath
       clipPathUnits="userSpaceOnUse"
       id="clipPath684"><path
         d="m 322.959,216.082 -5.25,-13.625 h 12.375 l -17.125,-45.5 h 16.375 l 17.5,45.5 h 11.5 l 5.375,13.625 z"
         id="path682"
         inkscape:connector-curvature="0" /></clipPath><linearGradient
       x1="0"
       y1="0"
       x2="1"
       y2="0"
       gradientUnits="userSpaceOnUse"
       gradientTransform="matrix(-2.6e-6,-59.125488,-59.125488,2.6e-6,338.33398,216.08203)"
       spreadMethod="pad"
       id="linearGradient698"><stop
         style="stop-opacity:1;stop-color:#ea5b0b"
         offset="0"
         id="stop690" /><stop
         style="stop-opacity:1;stop-color:#fcea12"
         offset="0.48564172"
         id="stop692" /><stop
         style="stop-opacity:1;stop-color:#fcea12"
         offset="0.989529"
         id="stop694" /><stop
         style="stop-opacity:1;stop-color:#fcea12"
         offset="1"
         id="stop696" /></linearGradient><clipPath
       clipPathUnits="userSpaceOnUse"
       id="clipPath708"><path
         d="m 370.604,216.082 -22.299,-59.125 h 40.726 l 4.928,14.469 h -24.293 l 4.108,9.975 h 22.181 l 5.047,14.084 h -21.83 l 2.699,7.16 h 22.533 l 5.047,13.437 z"
         id="path706"
         inkscape:connector-curvature="0" /></clipPath><linearGradient
       x1="0"
       y1="0"
       x2="1"
       y2="0"
       gradientUnits="userSpaceOnUse"
       gradientTransform="matrix(-2.6e-6,-59.125488,-59.125488,2.6e-6,378.87793,216.08203)"
       spreadMethod="pad"
       id="linearGradient722"><stop
         style="stop-opacity:1;stop-color:#ea5b0b"
         offset="0"
         id="stop714" /><stop
         style="stop-opacity:1;stop-color:#fcea12"
         offset="0.48564172"
         id="stop716" /><stop
         style="stop-opacity:1;stop-color:#fcea12"
         offset="0.989529"
         id="stop718" /><stop
         style="stop-opacity:1;stop-color:#fcea12"
         offset="1"
         id="stop720" /></linearGradient><clipPath
       clipPathUnits="userSpaceOnUse"
       id="clipPath732"><path
         d="m 417.084,216.082 -22.25,-59.125 h 16.25 l 9.375,24.125 2.5,-24.125 h 16.125 l -1.875,25.875 c 12.375,9.875 13.375,21 13.375,21 v 0 c 1.25,11.5 -5.875,12.25 -5.875,12.25 v 0 z m 7.084,-24.875 c 0,0.001 5.916,15.166 5.916,15.166 v 0 h 3.918 c 0.594,0 1.256,-1.117 1.498,-1.518 v 0 c 0.699,-1.16 0.871,-2.404 0.611,-3.725 v 0 c -0.588,-2.97 -2.081,-5.862 -4.378,-7.862 v 0 c -0.923,-0.804 -1.975,-1.438 -3.155,-1.78 v 0 c -0.416,-0.122 -3.917,-0.284 -4.363,-0.284 v 0 c -0.031,0 -0.047,0.001 -0.047,0.003"
         id="path730"
         inkscape:connector-curvature="0" /></clipPath><linearGradient
       x1="0"
       y1="0"
       x2="1"
       y2="0"
       gradientUnits="userSpaceOnUse"
       gradientTransform="matrix(-2.6e-6,-59.125488,-59.125488,2.6e-6,422.7832,216.08203)"
       spreadMethod="pad"
       id="linearGradient746"><stop
         style="stop-opacity:1;stop-color:#ea5b0b"
         offset="0"
         id="stop738" /><stop
         style="stop-opacity:1;stop-color:#fcea12"
         offset="0.48564172"
         id="stop740" /><stop
         style="stop-opacity:1;stop-color:#fcea12"
         offset="0.989529"
         id="stop742" /><stop
         style="stop-opacity:1;stop-color:#fcea12"
         offset="1"
         id="stop744" /></linearGradient><clipPath
       clipPathUnits="userSpaceOnUse"
       id="clipPath756"><path
         d="m 474.496,215.932 c -1.789,-0.625 -3.612,-1.411 -5.261,-2.348 v 0 c -3.093,-1.756 -6.069,-3.848 -8.342,-6.616 v 0 c -0.995,-1.209 -1.926,-2.552 -2.678,-3.928 v 0 c -1.946,-3.556 -3.424,-7.574 -2.031,-11.582 v 0 c 1.392,-4.004 4.962,-7.476 8.525,-9.626 v 0 c 0,0 7.668,-4.334 6.625,-7.125 v 0 c 0,0 -4.748,-9.792 -23.5,1.125 v 0 c 0,0 -5.998,-14.998 -6,-15 v 0 c -0.24,-0.602 7.772,-3.207 8.174,-3.31 v 0 c 6.6,-1.7 13.812,-1.44 20.23,0.884 v 0 c 4.994,1.806 9.631,4.746 13.141,8.751 v 0 c 1,1.141 1.888,2.381 2.668,3.682 v 0 c 2.523,4.205 4.381,9.526 1.883,14.184 v 0 c -2.157,4.02 -6.723,6.056 -10.379,8.452 v 0 c -2.227,1.46 -7.9,3.987 -5.443,7.533 v 0 c 0.562,0.812 1.617,1.536 2.529,1.896 v 0 c 1.023,0.404 2.246,0.674 3.351,0.687 v 0 c 1.848,0.02 3.826,-0.386 5.596,-0.884 v 0 c 0,0 5.687,-2.562 8.75,-7.5 v 0 c 0,0 5.998,16.744 6,16.75 v 0 c 0.25,0.702 -3.582,2.373 -4.072,2.607 v 0 c -3.717,1.774 -7.695,2.736 -11.694,2.736 v 0 c -2.706,10e-4 -5.42,-0.44 -8.072,-1.368"
         id="path754"
         inkscape:connector-curvature="0" /></clipPath><linearGradient
       x1="0"
       y1="0"
       x2="1"
       y2="0"
       gradientUnits="userSpaceOnUse"
       gradientTransform="matrix(-2.7e-6,-60.876953,-60.876953,2.7e-6,470.08789,217.30029)"
       spreadMethod="pad"
       id="linearGradient770"><stop
         style="stop-opacity:1;stop-color:#ea5b0b"
         offset="0"
         id="stop762" /><stop
         style="stop-opacity:1;stop-color:#fcea12"
         offset="0.48564172"
         id="stop764" /><stop
         style="stop-opacity:1;stop-color:#fcea12"
         offset="0.989529"
         id="stop766" /><stop
         style="stop-opacity:1;stop-color:#fcea12"
         offset="1"
         id="stop768" /></linearGradient></defs><sodipodi:namedview
     pagecolor="#ffffff"
     bordercolor="#666666"
     borderopacity="1"
     objecttolerance="10"
     gridtolerance="10"
     guidetolerance="10"
     inkscape:pageopacity="0"
     inkscape:pageshadow="2"
     inkscape:window-width="1366"
     inkscape:window-height="743"
     id="namedview4"
     showgrid="false"
     inkscape:pagecheckerboard="true"
     inkscape:zoom="1.1421513"
     inkscape:cx="115.71478"
     inkscape:cy="106.28023"
     inkscape:window-x="0"
     inkscape:window-y="0"
     inkscape:window-maximized="1"
     inkscape:current-layer="g10" /><g
     id="g10"
     inkscape:groupmode="layer"
     inkscape:label="the-king-of-fighters-seeklogo.com"
     transform="matrix(1.3333333,0,0,-1.3333333,0,160.00003)"><path
       inkscape:connector-curvature="0"
       id="path243"
       d="m 7.37809,12.336215 c -1.17813,0.22592 -1.1974,0.34261 -1.05221,6.37317 l 0.14788,6.14303 h 11.31132 11.311313 l 0.14766,-6.11619 c 0.14436,-5.9796 0.12086,-6.12337 -1.05222,-6.43764 -1.33292,-0.35709 -18.921243,-0.3253 -20.813743,0.0376 z m 41.825583,-0.008 c -0.84217,0.21907 -0.92205,0.86526 -0.78916,6.38378 l 0.14787,6.14005 h 11.311309 11.311315 l 0.147626,-6.11279 0.147625,-6.11278 -1.660185,-0.33204 c -1.864283,-0.37285 -19.16214,-0.34452 -20.6164,0.0338 z m 27.610686,0.26552 c -0.935783,0.93578 -0.859844,11.15065 0.08874,11.93792 0.513713,0.42634 5.828484,0.55788 18.545295,0.45899 l 17.825226,-0.1386 0.14959,-6.00803 c 0.11087,-4.45266 -0.0253,-6.11901 -0.52611,-6.43676 -1.14503,-0.72654 -35.346488,-0.54978 -36.082744,0.18648 z m 56.845931,-0.0888 c -1.12051,0.45039 -1.18374,0.76619 -1.18374,5.91167 0,3.52641 0.22176,5.65762 0.63133,6.06719 0.87801,0.87801 21.76481,0.89732 22.30663,0.0206 0.20759,-0.3359 0.48029,-2.90124 0.60599,-5.70078 0.32184,-7.16773 0.85275,-6.84927 -11.34953,-6.80786 -5.40482,0.0184 -10.35962,0.24746 -11.01068,0.50915 z m 42.08861,0 c -1.1213,0.45071 -1.18374,0.76468 -1.18374,5.95247 0,4.02684 0.19308,5.63691 0.72938,6.082 0.4946,0.41048 3.16198,0.55823 8.2862,0.459 l 7.55681,-0.14634 0.1476,-6.11032 0.14761,-6.11032 -1.98898,-0.3287 c -2.93918,-0.48575 -12.32824,-0.34711 -13.69488,0.20221 z m 34.94587,0.0483 c -0.84195,0.48958 -0.94407,1.18816 -0.82446,5.63965 0.0751,2.79448 0.33829,5.49517 0.58491,6.00155 0.39507,0.81121 1.31832,0.92069 7.76434,0.92069 5.28343,0 7.4298,-0.1827 7.72579,-0.65763 0.22542,-0.3617 0.50532,-3.00696 0.62201,-5.87835 0.18629,-4.58408 0.0958,-5.30584 -0.74241,-5.91871 -1.18163,-0.86404 -13.6764,-0.95256 -15.13018,-0.1072 z m 33.84271,-0.12781 c -5.29026,1.16821 -10.7356,5.78336 -12.32402,10.44512 -0.93935,2.75684 -1.17378,12.24063 -0.30257,12.24063 0.28936,0 0.52611,-0.20342 0.52611,-0.45204 0,-1.16387 4.47333,-5.33263 7.45972,-6.95181 l 3.32549,-1.80304 h 13.94185 13.94185 l 2.81443,1.45139 c 1.54794,0.79826 4.15217,2.64471 5.78718,4.10322 l 2.97276,2.65183 0.1522,-4.5108 c 0.1389,-4.11664 0.0111,-4.80657 -1.46332,-7.89581 -1.73382,-3.63289 -4.27981,-6.10162 -8.42187,-8.16628 -2.21027,-1.10175 -3.171,-1.19136 -14.46796,-1.34957 -6.65526,-0.0932 -12.9291,0.0135 -13.94185,0.23716 z m 43.9853,-0.0264 c -0.43519,0.70416 -0.61819,12.0645 -0.20107,12.48216 0.45083,0.45141 21.79263,0.41135 22.52663,-0.0423 0.27764,-0.17159 0.50481,-2.90811 0.50481,-6.08115 0,-5.70872 -0.0142,-5.77453 -1.34952,-6.28224 -1.63782,-0.6227 -21.10044,-0.69199 -21.48085,-0.0765 z m 28.48602,-0.0887 c -0.80024,0.22198 -0.92068,0.95986 -0.92068,5.64039 0,3.49109 0.23129,5.69243 0.65763,6.25909 0.5889,0.78274 2.72086,0.88946 20.39975,1.02124 l 19.74212,0.14716 2.7503,1.76554 c 1.51266,0.97104 3.79205,2.92422 5.06531,4.34039 1.27325,1.41616 2.48394,2.57485 2.69041,2.57485 0.20648,0 0.28238,-2.31619 0.16867,-5.14709 -0.17241,-4.29257 -0.4481,-5.64042 -1.6606,-8.11868 -1.57678,-3.22283 -3.86287,-5.52003 -7.34503,-7.38073 -2.17947,-1.1646 -2.58316,-1.18857 -21.42426,-1.27226 -10.56161,-0.0469 -19.61724,0.0296 -20.12362,0.1701 z M 8.15126,28.084935 c -0.19923,0.19922 -0.36223,18.31565 -0.36223,40.25872 v 39.896505 h 10.90633 10.906323 l 4.61386,-4.59247 4.61384,-4.592485 4.62515,4.603725 4.62515,4.60371 10.763496,-0.14277 10.763505,-0.14276 V 67.992915 28.008735 h -9.732992 -9.732989 l -0.13663,25.12164 c -0.1217,22.37564 -0.22655,25.12164 -0.95926,25.12164 -0.45245,0 -2.82566,-1.8348 -5.2738,-4.07733 -2.44814,-2.24254 -4.63869,-4.14252 -4.86788,-4.22218 -0.2292,-0.0797 -2.44746,1.75513 -4.92948,4.07733 -2.48203,2.3222 -4.88842,4.22218 -5.34755,4.22218 -0.74873,0 -0.84885,-2.58932 -0.9714,-25.12164 l -0.13663,-25.12164 -9.502293,-0.14301 c -5.22627,-0.0787 -9.6653,0.02 -9.86452,0.21921 z m 70.264376,0.0923 c -0.522967,0.33538 -0.632824,8.71131 -0.526108,40.1119 l 0.134878,39.688005 h 16.835445 16.835439 l 0.1463,-7.22257 0.1463,-7.222575 -10.14234,-0.14293 -10.142345,-0.14294 v -9.20689 -9.20688 l 9.996045,-0.26305 9.99604,-0.26306 0.14638,-7.23398 0.14637,-7.23398 h -9.64262 c -6.79833,0 -9.828831,-0.18622 -10.27394,-0.63133 -0.433744,-0.43374 -0.631329,-3.05061 -0.631329,-8.36143 0,-6.56352 0.125593,-7.7783 0.832192,-8.04945 0.457703,-0.17564 5.080979,-0.31934 10.273947,-0.31934 h 9.44175 l -0.14637,-7.23398 -0.14638,-7.23398 -16.309331,-0.12771 c -8.970136,-0.0702 -16.606783,0.063 -16.970323,0.29617 z m 56.516084,-0.0808 c -0.19291,0.19291 -0.35074,14.58931 -0.35074,31.99202 0,24.49325 -0.14857,31.83994 -0.65764,32.52069 -0.5422,0.72506 -1.81191,0.90431 -7.23398,1.02124 l -6.57634,0.14182 v 7.102445 7.10246 h 24.20095 24.20095 v -7.10246 -7.102445 l -6.8394,-0.26305 -6.8394,-0.26305 -0.13561,-32.3271 c -0.10512,-25.05963 -0.28253,-32.4204 -0.78916,-32.74215 -0.79098,-0.50232 -18.48277,-0.57728 -18.97963,-0.0804 z m 41.98633,0.29012 c -0.14162,0.37092 -0.19628,18.43055 -0.12145,40.13249 l 0.13604,39.458075 17.80523,0.13858 c 10.9876,0.0855 18.57355,-0.0683 19.81182,-0.40173 3.38187,-0.91065 6.8532,-3.65972 8.63616,-6.83931 l 1.62259,-2.893585 v -11.04796 c 0,-10.64478 -0.046,-11.13472 -1.25966,-13.41575 -0.6928,-1.30211 -1.84545,-3.13691 -2.56145,-4.07733 l -1.3018,-1.70985 1.3018,-1.70985 c 0.716,-0.94042 1.86865,-2.77522 2.56145,-4.07733 1.23478,-2.32073 1.26295,-2.67621 1.42622,-18.00037 l 0.16656,-15.63289 -1.21878,-0.30375 c -0.67032,-0.16706 -3.70463,-0.23471 -6.7429,-0.15034 l -5.52413,0.1534 -0.13927,15.59237 -0.13926,15.59236 -1.17601,0.31521 c -2.36514,0.63393 -18.55671,0.36134 -19.48556,-0.32806 -0.78952,-0.58597 -0.9008,-2.32021 -1.02125,-15.91476 l -0.13517,-15.25712 -6.19184,-0.14831 c -4.661,-0.11164 -6.2555,0.0184 -6.44934,0.52611 z m 34.88255,55.05659 c 0.0993,5.90348 -0.045,8.83957 -0.459,9.33841 -0.47378,0.57088 -2.67714,0.7276 -10.2294,0.7276 -5.29404,0 -10.00003,-0.1437 -10.45773,-0.31934 -0.71295,-0.27359 -0.83219,-1.58021 -0.83219,-9.1192 0,-4.83992 0.16259,-8.96245 0.36132,-9.16118 0.19872,-0.19872 5.11125,-0.29737 10.91673,-0.21921 l 10.55542,0.14211 z m -19.43547,-6.25289 c -0.0965,0.2841 -0.10265,3.48021 -0.0138,7.10246 l 0.16161,6.5859 h 8.38765 8.38765 v -7.10245 -7.10245 h -8.37388 c -5.00944,0 -8.44434,0.20754 -8.54925,0.51655 z m 52.17235,-48.6263 c -4.81603,1.33304 -8.70128,4.41823 -10.56398,8.38863 -0.92754,1.97709 -0.98798,3.84839 -0.99884,30.92572 -0.0126,31.55706 -0.11297,30.46104 3.1673,34.602715 1.00037,1.26307 2.95206,2.69769 5.12595,3.76788 l 3.5105,1.72822 H 257.153 c 12.21893,0 12.41099,-0.0172 15.26818,-1.36272 3.97685,-1.87285 5.99369,-3.70892 7.58766,-6.907595 l 1.35617,-2.72149 v -28.99238 -28.99237 l -1.32058,-2.65006 c -1.4714,-2.95272 -4.29091,-5.47304 -8.03109,-7.17887 -2.25491,-1.02843 -3.51175,-1.14647 -13.53401,-1.27116 -8.61019,-0.10711 -11.6868,0.0393 -13.94185,0.66349 z m 22.65721,14.98348 c 0.98334,0.52627 1.01763,1.35585 1.01763,24.62184 0,18.02525 -0.15869,24.23591 -0.63133,24.70855 -0.88995,0.88995 -19.94391,0.88995 -20.83386,0 -0.47264,-0.47263 -0.63133,-6.6816 -0.63133,-24.70092 0,-22.36839 0.0651,-24.10749 0.92069,-24.60584 1.22883,-0.71572 18.82646,-0.73635 20.1582,-0.0236 z m -17.35216,35.96718 c -0.39432,0.47513 -0.55709,2.48061 -0.459,5.65565 l 0.15197,4.91949 7.76009,0.14559 7.76008,0.1456 v -5.48192 c 0,-4.51345 -0.14701,-5.53832 -0.83219,-5.80124 -0.4577,-0.17564 -3.74319,-0.31934 -7.30108,-0.31934 -4.90137,0 -6.61695,0.17838 -7.07987,0.73617 z m 40.00125,-51.05302 c -0.43215,0.52071 -0.55715,11.44612 -0.45899,40.11571 l 0.13489,39.400105 9.69439,0.14375 c 7.40378,0.10979 9.79483,-0.0145 10.11951,-0.52611 0.23382,-0.36842 0.42876,-18.201075 0.43319,-39.628125 0.006,-29.60849 -0.14346,-39.10978 -0.62327,-39.5896 -0.95862,-0.95861 -18.49776,-0.88202 -19.29972,0.0843 z m 28.07648,-0.0887 c -0.14457,0.37861 -0.20164,18.44451 -0.12681,40.14645 l 0.13604,39.458075 17.86005,0.13865 c 21.08678,0.16369 22.01652,0.019 26.09499,-4.05941 4.29897,-4.298965 4.24169,-3.77563 4.06955,-37.178145 l -0.14879,-28.87342 -1.30431,-2.55369 c -1.50119,-2.93917 -3.48872,-4.77915 -6.85036,-6.34182 -2.23717,-1.03995 -3.38855,-1.10946 -20.9175,-1.26279 -14.91252,-0.13045 -18.60155,-0.0273 -18.81286,0.5261 z m 34.21443,15.50275 c 0.79306,0.79306 0.85389,3.03439 0.66795,24.60861 -0.11252,13.05484 -0.38384,24.02613 -0.60294,24.38064 -0.55973,0.90565 -19.84452,0.91795 -20.74924,0.0133 -0.47242,-0.47242 -0.63133,-6.62061 -0.63133,-24.42642 0,-20.93044 0.0995,-23.89464 0.82674,-24.62184 1.26399,-1.264 19.21917,-1.22388 20.48882,0.0458 z m -17.58883,35.63897 c -0.39432,0.47514 -0.55708,2.48061 -0.459,5.65566 l 0.15197,4.91949 7.10245,0.26305 c 3.90635,0.14468 7.39839,0.0565 7.76009,-0.19594 0.88683,-0.61898 0.90946,-9.86394 0.0263,-10.7471 -0.96131,-0.96132 -13.77343,-0.8692 -14.58181,0.10484 z M 94.671994,47.910545 c -0.420797,0.50703 -0.594612,2.14214 -0.49381,4.64538 l 0.155559,3.86295 9.622117,0.14347 9.62213,0.14348 -0.15219,-4.61539 -0.15218,-4.61539 -8.97614,-0.17347 c -7.452841,-0.14403 -9.086321,-0.0407 -9.625486,0.60897 z m 99.207676,-0.31981 -1.46674,0.2211 0.15147,4.56657 0.15147,4.56657 8.0097,0.14516 8.0097,0.14516 0.33651,-1.34079 c 0.18508,-0.73743 0.17551,-2.84426 -0.0213,-4.68184 l -0.35779,-3.34107 -2.40619,-0.3298 c -2.55394,-0.35006 -9.95354,-0.32086 -12.40685,0.0489 z m -159.109457,13.00697 -3.70808,3.43311 -0.37324,3.48523 c -0.20528,1.91687 -0.17331,3.68515 0.0711,3.92951 0.44121,0.4412 4.18141,-1.79808 6.26198,-3.74909 0.59737,-0.56018 1.36886,-1.0185 1.71442,-1.0185 0.34556,0 2.04468,1.30212 3.7758,2.8936 1.73113,1.59147 3.3818,2.89359 3.66816,2.89359 0.85211,0 1.21044,-2.4513 0.81777,-5.59416 -0.34645,-2.77291 -0.5683,-3.13267 -3.80618,-6.17222 -1.89106,-1.77523 -3.72523,-3.29665 -4.07594,-3.38094 -0.35071,-0.0843 -2.30629,1.39165 -4.34574,3.27987 z m 59.937998,18.61998 c -0.49583,0.31962 -0.637048,1.83735 -0.526108,5.65448 l 0.15164,5.2176 h 9.469937 9.46994 v -5.52414 -5.52413 l -8.94383,-0.13034 c -4.919107,-0.0717 -9.248816,0.0662 -9.621579,0.30653 z m 24.440279,-0.0885 c -0.19291,0.1929 -0.35074,2.80465 -0.35074,5.80388 v 5.45314 l 6.18176,-0.14822 6.18177,-0.14823 0.15164,-5.2176 c 0.11101,-3.81971 -0.0299,-5.3328 -0.52611,-5.64759 -0.8099,-0.51385 -11.13524,-0.59847 -11.63832,-0.0954 z m 38.69264,0.0954 c -0.49617,0.31479 -0.63712,1.82789 -0.52611,5.6476 l 0.15164,5.21759 6.00802,0.1496 c 4.45267,0.11086 6.11902,-0.0253 6.43677,-0.52611 0.68733,-1.08325 0.53349,-9.5835 -0.18648,-10.30347 -0.72424,-0.72424 -10.78708,-0.88107 -11.88384,-0.18521 z"
       style="fill:#ffffff;stroke-width:0.52610767" /><path
       inkscape:connector-curvature="0"
       id="path241"
       d="m 7.1415666,12.300186 c -0.1985041,0.198505 -0.3609167,2.92569 -0.3609167,6.060418 0,4.199686 0.1730552,5.704022 0.6576346,5.716696 8.0965915,0.211753 21.6717735,-0.03967 22.0402905,-0.408159 0.269236,-0.269236 0.421623,-2.954831 0.33864,-5.967992 L 29.666333,12.22268 18.584406,12.080973 c -6.095057,-0.07794 -11.2443353,0.02073 -11.4428394,0.219213 z m 41.9580774,0.344022 c -0.148914,0.388072 -0.202483,3.047015 -0.119042,5.908762 l 0.151714,5.203178 1.578323,0.283504 c 0.868077,0.155928 6.024974,0.209596 11.459766,0.119263 L 72.051848,23.99467 71.903397,18.108677 71.754945,12.22268 60.562673,12.080652 c -8.973687,-0.113871 -11.245941,-0.0021 -11.463029,0.563556 z m 28.179431,5.358837 v 6.057057 H 95.710073 114.14107 L 113.99231,18.141391 113.84356,12.22268 95.561316,12.084334 77.279075,11.945989 Z m 56.293515,0.0068 v 6.050238 h 11.31132 11.31131 v -6.050238 -6.050238 h -11.31131 -11.31132 z m 42.08862,-0.01368 v 6.063943 l 4.86649,0.04314 c 2.67657,0.02373 6.2228,0.144033 7.88051,0.267373 3.649,0.271503 3.68053,0.206224 3.45352,-7.149887 l -0.15424,-4.998023 -8.02314,-0.145232 -8.02314,-0.145226 v 6.063937 z m 35.36351,-0.117869 0.14875,5.918711 6.57635,0.413799 c 9.55873,0.601463 8.94383,1.028483 8.94383,-6.211006 v -6.040215 h -7.90885 -7.90884 z m 30.663,-4.400275 c -6.95186,3.342204 -9.95342,8.677777 -9.62978,17.117896 l 0.15984,4.168372 1.52383,-2.203381 c 1.67423,-2.420852 6.66482,-6.017672 9.69503,-6.987404 2.80187,-0.896656 22.13387,-1.238583 26.08444,-0.461354 4.08499,0.803671 7.32193,2.46513 10.67352,5.47849 1.47626,1.327291 2.82689,2.413251 3.00139,2.413251 0.68748,0 0.2665,-7.401914 -0.56792,-9.985555 -1.14837,-3.555704 -4.50014,-7.260912 -8.49392,-9.389575 l -3.13169,-1.669176 -13.07905,4.15e-4 -13.07905,4.16e-4 z m 47.20146,4.663329 0.14822,6.181765 h 10.7038 c 5.88708,0 10.91212,-0.128723 11.16676,-0.28605 0.5979,-0.369428 0.6733,-1.319252 0.57238,-7.210984 l -0.0834,-4.866496 h -11.32801 -11.32801 z m 28.11962,-5.831025 c -0.682,0.681988 -0.38182,9.927815 0.35503,10.935511 0.664,0.908072 1.79445,0.958731 19.09699,0.855808 14.44887,-0.08595 18.84059,0.0454 20.48758,0.612853 2.81721,0.97061 7.86109,4.760348 9.30702,6.992865 0.64461,0.995285 1.30134,1.812541 1.45939,1.816123 0.15806,0.0037 0.19359,-2.301784 0.079,-5.123036 -0.31844,-7.837405 -2.49474,-11.888544 -7.94802,-14.79511 l -3.08774,-1.645754 h -19.69924 c -10.83458,0 -19.85707,0.157832 -20.04997,0.35074 z M 95.076771,51.20802 c -0.143964,3.326252 -0.02399,4.078728 0.713012,4.471915 1.014694,0.541338 12.222797,0.638884 15.875917,0.138171 l 2.44091,-0.334567 v -4.137348 -4.137352 h -9.42837 -9.428375 z m 98.310209,-3.661931 c -0.20032,0.200326 -0.36422,2.218754 -0.36422,4.485405 v 4.121175 h 8.17594 8.17595 l -0.15281,-4.340388 -0.1528,-4.340389 -7.65892,-0.145011 c -4.2124,-0.07976 -7.82282,0.01889 -8.02314,0.219208 z M 35.32199,60.350761 31.507709,63.99383 v 3.444926 c 0,1.894709 0.113777,3.444927 0.252837,3.444927 0.473392,0 5.989394,-3.668254 6.319732,-4.202748 0.659602,-1.067257 2.021379,-0.476743 4.838906,2.098317 3.961391,3.620489 4.373933,3.508544 4.362285,-1.183742 l -0.0095,-3.81428 -3.89539,-3.551227 c -2.142469,-1.953175 -3.973008,-3.544719 -4.067865,-3.536769 -0.09486,0.0079 -1.8889,1.653835 -3.986754,3.657527 z M 192.93507,76.65954 c -0.0965,0.28313 -0.057,3.420047 0.0877,6.970927 l 0.26305,6.456145 h 8.15467 8.15467 l 0.1468,-6.970926 0.14679,-6.970926 h -8.38915 c -4.9995,0 -8.46001,0.207996 -8.56452,0.51478 z M 250.94,78.751034 c -0.25231,0.158027 -0.54331,2.536428 -0.64666,5.28534 l -0.1879,4.998023 3.94581,0.404219 c 2.17019,0.222323 5.60304,0.340697 7.62856,0.263054 l 3.68275,-0.141165 -0.19177,-5.261077 c -0.10548,-2.893592 -0.22385,-5.293321 -0.26306,-5.332732 -0.24191,-0.243193 -13.5946,-0.449354 -13.96773,-0.215662 z m 85.18404,-0.13067 c -0.43404,0.17199 -0.9631,0.573142 -1.17569,0.891453 -0.57784,0.865216 -0.48235,9.14816 0.10969,9.514062 0.28178,0.174147 3.71463,0.461376 7.62856,0.63829 l 7.11624,0.321662 v -5.605266 -5.605267 l -5.39261,-0.0072 c -2.96593,-0.0042 -5.8661,-0.109172 -6.44481,-0.233818 -0.57872,-0.12465 -1.40734,-0.08592 -1.84138,0.08607 z m -241.079893,5.02143 c -0.138209,2.676572 -0.03988,5.138251 0.218529,5.470399 0.591761,0.760651 15.579424,0.92636 17.506824,0.19356 1.3029,-0.495362 1.33711,-0.636559 1.33711,-5.519411 v -5.011044 h -9.40558 -9.405588 z m 24.436473,0.509251 0.15012,5.40946 5.44732,0.150535 c 3.63819,0.100539 5.69745,-0.05705 6.20045,-0.474507 0.57464,-0.476911 0.71753,-1.75943 0.60292,-5.411612 l -0.15021,-4.786569 -6.20036,-0.148384 -6.20035,-0.148383 z m 38.64367,-5.025007 c -0.19291,0.192903 -0.35074,2.433685 -0.35074,4.979509 0,5.586395 -0.0592,5.536042 6.65404,5.660955 6.15866,0.114592 6.49865,-0.171148 6.49865,-5.461623 0,-5.787142 0.30485,-5.529581 -6.54495,-5.529581 -3.24845,0 -6.0641,0.157832 -6.257,0.35074 z"
       style="fill:#ffffff;stroke-width:0.52610767" /></g></svg>