<?xml version="1.0" encoding="UTF-8" standalone="no"?>
<!-- Created with Inkscape (http://www.inkscape.org/) -->

<svg
   xmlns:dc="http://purl.org/dc/elements/1.1/"
   xmlns:cc="http://creativecommons.org/ns#"
   xmlns:rdf="http://www.w3.org/1999/02/22-rdf-syntax-ns#"
   xmlns:svg="http://www.w3.org/2000/svg"
   xmlns="http://www.w3.org/2000/svg"
   xmlns:sodipodi="http://sodipodi.sourceforge.net/DTD/sodipodi-0.dtd"
   xmlns:inkscape="http://www.inkscape.org/namespaces/inkscape"
   version="1.1"
   id="svg2"
   xml:space="preserve"
   width="500"
   height="200"
   viewBox="0 0 500 200"
   sodipodi:docname="metroid_.svg"
   inkscape:version="0.92.5 (2060ec1f9f, 2020-04-08)"><metadata
     id="metadata8"><rdf:RDF><cc:Work
         rdf:about=""><dc:format>image/svg+xml</dc:format><dc:type
           rdf:resource="http://purl.org/dc/dcmitype/StillImage" /><dc:title></dc:title></cc:Work></rdf:RDF></metadata><defs
     id="defs6"><clipPath
       clipPathUnits="userSpaceOnUse"
       id="clipPath18"><path
         d="M 0,396.85 H 595.28 V 0 H 0 Z"
         id="path16"
         inkscape:connector-curvature="0" /></clipPath><clipPath
       clipPathUnits="userSpaceOnUse"
       id="clipPath34"><path
         d="m 175.135,266.175 c 0,0 -9.999,-16.667 -40.167,-28 v 0 l -4.916,-12.75 -5.334,0.083 c 0,0 -5.749,-10.584 -37.416,-24.833 v 0 h 33.083 c 0,-1 -14.388,-46.875 -33.756,-65.5 v 0 c 0,0 59.756,10.5 77.006,85.249 v 0 l 5.5,16.001 h 38 l 19.25,29.75 z"
         id="path32"
         inkscape:connector-curvature="0" /></clipPath><linearGradient
       x1="0"
       y1="0"
       x2="1"
       y2="0"
       gradientUnits="userSpaceOnUse"
       gradientTransform="matrix(91.663811,158.7664,158.7664,-91.663811,96.746582,129.33301)"
       spreadMethod="pad"
       id="linearGradient50"><stop
         style="stop-opacity:1;stop-color:#295da9"
         offset="0"
         id="stop40" /><stop
         style="stop-opacity:1;stop-color:#295da9"
         offset="0.0052356"
         id="stop42" /><stop
         style="stop-opacity:1;stop-color:#295da9"
         offset="0.33581042"
         id="stop44" /><stop
         style="stop-opacity:1;stop-color:#272e65"
         offset="0.795811"
         id="stop46" /><stop
         style="stop-opacity:1;stop-color:#272e65"
         offset="1"
         id="stop48" /></linearGradient><clipPath
       clipPathUnits="userSpaceOnUse"
       id="clipPath60"><path
         d="M 0,396.85 H 595.28 V 0 H 0 Z"
         id="path58"
         inkscape:connector-curvature="0" /></clipPath><clipPath
       clipPathUnits="userSpaceOnUse"
       id="clipPath72"><path
         d="m 191.189,251.41 -2.814,-6.94 7.784,-0.094 -7.316,-19.037 h 8.722 l 7.315,19.131 h 7.034 l 2.721,6.94 z"
         id="path70"
         inkscape:connector-curvature="0" /></clipPath><linearGradient
       x1="0"
       y1="0"
       x2="1"
       y2="0"
       gradientUnits="userSpaceOnUse"
       gradientTransform="matrix(-1.1e-6,-26.071289,-26.071289,1.1e-6,201.50488,251.41016)"
       spreadMethod="pad"
       id="linearGradient86"><stop
         style="stop-opacity:1;stop-color:#e6342a"
         offset="0"
         id="stop78" /><stop
         style="stop-opacity:1;stop-color:#e6342a"
         offset="0.0104712"
         id="stop80" /><stop
         style="stop-opacity:1;stop-color:#f9b233"
         offset="0.989529"
         id="stop82" /><stop
         style="stop-opacity:1;stop-color:#f9b233"
         offset="1"
         id="stop84" /></linearGradient><clipPath
       clipPathUnits="userSpaceOnUse"
       id="clipPath96"><path
         d="m 239.206,251.41 c -0.281,0 -3.844,-9.471 -3.844,-9.471 v 0 h -10.599 l 3.095,9.471 h -8.44 l -9.754,-26.071 h 8.536 l 3.749,9.66 h 10.973 l -3.562,-9.66 h 8.814 c 0,0 9.566,26.071 9.847,26.071 v 0 c 0.188,0 -3.667,0.001 -6.342,0.001 v 0 c -1.337,0 -2.38,0 -2.473,-0.001"
         id="path94"
         inkscape:connector-curvature="0" /></clipPath><linearGradient
       x1="0"
       y1="0"
       x2="1"
       y2="0"
       gradientUnits="userSpaceOnUse"
       gradientTransform="matrix(-1.1e-6,-26.071777,-26.071777,1.1e-6,228.84619,251.41064)"
       spreadMethod="pad"
       id="linearGradient110"><stop
         style="stop-opacity:1;stop-color:#e6342a"
         offset="0"
         id="stop102" /><stop
         style="stop-opacity:1;stop-color:#e6342a"
         offset="0.0104712"
         id="stop104" /><stop
         style="stop-opacity:1;stop-color:#f9b233"
         offset="0.989529"
         id="stop106" /><stop
         style="stop-opacity:1;stop-color:#f9b233"
         offset="1"
         id="stop108" /></linearGradient><clipPath
       clipPathUnits="userSpaceOnUse"
       id="clipPath120"><path
         d="m 252.526,251.41 -9.755,-26.071 h 23.165 l 2.439,6.847 h -14.35 l 1.031,2.907 h 14.35 l 2.625,6.751 h -14.347 l 1.031,2.627 h 14.255 l 3.001,6.939 z"
         id="path118"
         inkscape:connector-curvature="0" /></clipPath><linearGradient
       x1="0"
       y1="0"
       x2="1"
       y2="0"
       gradientUnits="userSpaceOnUse"
       gradientTransform="matrix(-1.1e-6,-26.071289,-26.071289,1.1e-6,259.37109,251.41016)"
       spreadMethod="pad"
       id="linearGradient134"><stop
         style="stop-opacity:1;stop-color:#e6342a"
         offset="0"
         id="stop126" /><stop
         style="stop-opacity:1;stop-color:#e6342a"
         offset="0.0104712"
         id="stop128" /><stop
         style="stop-opacity:1;stop-color:#f9b233"
         offset="0.989529"
         id="stop130" /><stop
         style="stop-opacity:1;stop-color:#f9b233"
         offset="1"
         id="stop132" /></linearGradient><clipPath
       clipPathUnits="userSpaceOnUse"
       id="clipPath144"><path
         d="m 309.733,251.41 -11.821,-10.502 h -1.026 l 3.751,10.502 h -8.628 l -9.847,-26.071 h 8.722 l 4.97,13.035 4.501,-13.035 h 8.816 l -4.596,14.068 13.504,12.003 z"
         id="path142"
         inkscape:connector-curvature="0" /></clipPath><linearGradient
       x1="0"
       y1="0"
       x2="1"
       y2="0"
       gradientUnits="userSpaceOnUse"
       gradientTransform="matrix(-1.1e-6,-26.071289,-26.071289,1.1e-6,300.12109,251.41016)"
       spreadMethod="pad"
       id="linearGradient158"><stop
         style="stop-opacity:1;stop-color:#e6342a"
         offset="0"
         id="stop150" /><stop
         style="stop-opacity:1;stop-color:#e6342a"
         offset="0.0104712"
         id="stop152" /><stop
         style="stop-opacity:1;stop-color:#f9b233"
         offset="0.989529"
         id="stop154" /><stop
         style="stop-opacity:1;stop-color:#f9b233"
         offset="1"
         id="stop156" /></linearGradient><clipPath
       clipPathUnits="userSpaceOnUse"
       id="clipPath168"><path
         d="m 323.051,251.41 -9.845,-26.071 h 9.002 l 9.566,26.071 z"
         id="path166"
         inkscape:connector-curvature="0" /></clipPath><linearGradient
       x1="0"
       y1="0"
       x2="1"
       y2="0"
       gradientUnits="userSpaceOnUse"
       gradientTransform="matrix(-1.1e-6,-26.071289,-26.071289,1.1e-6,322.49023,251.41016)"
       spreadMethod="pad"
       id="linearGradient182"><stop
         style="stop-opacity:1;stop-color:#e6342a"
         offset="0"
         id="stop174" /><stop
         style="stop-opacity:1;stop-color:#e6342a"
         offset="0.0104712"
         id="stop176" /><stop
         style="stop-opacity:1;stop-color:#f9b233"
         offset="0.989529"
         id="stop178" /><stop
         style="stop-opacity:1;stop-color:#f9b233"
         offset="1"
         id="stop180" /></linearGradient><clipPath
       clipPathUnits="userSpaceOnUse"
       id="clipPath192"><path
         d="m 360.689,251.421 c -2.012,-0.027 -3.922,-0.054 -3.965,-0.011 v 0 c -0.095,0.093 -4.877,-13.036 -4.877,-13.036 v 0 l -7.409,13.036 h -7.691 l -10.035,-26.071 h 8.629 l 5.346,13.881 8.064,-13.881 h 6.848 c 0,0 9.611,25.931 9.751,26.071 v 0 c 0.034,0.034 -0.447,0.046 -1.197,0.046 v 0 c -0.906,0 -2.205,-0.017 -3.464,-0.035"
         id="path190"
         inkscape:connector-curvature="0" /></clipPath><linearGradient
       x1="0"
       y1="0"
       x2="1"
       y2="0"
       gradientUnits="userSpaceOnUse"
       gradientTransform="matrix(-1.1e-6,-26.117188,-26.117188,1.1e-6,346.03223,251.45605)"
       spreadMethod="pad"
       id="linearGradient206"><stop
         style="stop-opacity:1;stop-color:#e6342a"
         offset="0"
         id="stop198" /><stop
         style="stop-opacity:1;stop-color:#e6342a"
         offset="0.0104712"
         id="stop200" /><stop
         style="stop-opacity:1;stop-color:#f9b233"
         offset="0.989529"
         id="stop202" /><stop
         style="stop-opacity:1;stop-color:#f9b233"
         offset="1"
         id="stop204" /></linearGradient><clipPath
       clipPathUnits="userSpaceOnUse"
       id="clipPath216"><path
         d="m 372.73,249.739 c -1.891,-1.032 -3.723,-2.258 -5.258,-3.774 v 0 c -3.106,-3.063 -5.965,-7.91 -4.909,-12.448 v 0 c 0.541,-2.327 2.196,-4.237 4.119,-5.588 v 0 c 1.501,-1.053 3.24,-1.746 5.034,-2.102 v 0 c 4.794,-0.949 9.897,-0.488 14.759,-0.488 v 0 l 6.176,16.891 c 0,0 -9.992,-0.182 -9.931,0 v 0 c 0.06,0.181 -5.994,-6.965 -5.994,-6.965 v 0 h 4.48 l -1.211,-2.725 c -11.445,-0.787 -8.237,6.238 -8.237,6.238 v 0 c 3.27,6.783 9.206,6.056 9.206,6.056 v 0 h 8.539 l 5.929,6.616 c -0.543,-0.027 -8.169,0.006 -8.169,0.006 v 0 c -1.35,0.099 -2.595,0.142 -3.742,0.142 v 0 c -7.551,0 -10.791,-1.859 -10.791,-1.859 m 22.702,1.711 c 0.038,0.002 0.042,0.004 0.006,0.006 v 0 z"
         id="path214"
         inkscape:connector-curvature="0" /></clipPath><linearGradient
       x1="0"
       y1="0"
       x2="1"
       y2="0"
       gradientUnits="userSpaceOnUse"
       gradientTransform="matrix(-1.2e-6,-26.370605,-26.370605,1.2e-6,378.90137,251.59766)"
       spreadMethod="pad"
       id="linearGradient230"><stop
         style="stop-opacity:1;stop-color:#e6342a"
         offset="0"
         id="stop222" /><stop
         style="stop-opacity:1;stop-color:#e6342a"
         offset="0.0104712"
         id="stop224" /><stop
         style="stop-opacity:1;stop-color:#f9b233"
         offset="0.989529"
         id="stop226" /><stop
         style="stop-opacity:1;stop-color:#f9b233"
         offset="1"
         id="stop228" /></linearGradient><clipPath
       clipPathUnits="userSpaceOnUse"
       id="clipPath240"><path
         d="m 413.146,249.066 c -8.706,-5.017 -13.081,-13.743 -9.766,-19.49 v 0 c 3.308,-5.75 13.056,-6.348 21.767,-1.331 v 0 c 8.703,5.016 13.075,13.744 9.762,19.493 v 0 c -1.802,3.131 -5.512,4.733 -9.925,4.733 v 0 c -3.69,0.001 -7.871,-1.12 -11.838,-3.405 m 0.202,-14.591 c -1.597,2.203 -0.335,5.842 2.815,8.126 v 0 c 3.154,2.285 7.006,2.35 8.602,0.146 v 0 c 1.597,-2.204 0.336,-5.843 -2.814,-8.127 v 0 c -1.614,-1.169 -3.411,-1.757 -4.995,-1.757 v 0 c -1.511,0 -2.828,0.535 -3.608,1.612"
         id="path238"
         inkscape:connector-curvature="0" /></clipPath><linearGradient
       x1="0"
       y1="0"
       x2="1"
       y2="0"
       gradientUnits="userSpaceOnUse"
       gradientTransform="matrix(-1.2e-6,-27.631348,-27.631348,1.2e-6,419.14453,252.47119)"
       spreadMethod="pad"
       id="linearGradient254"><stop
         style="stop-opacity:1;stop-color:#e6342a"
         offset="0"
         id="stop246" /><stop
         style="stop-opacity:1;stop-color:#e6342a"
         offset="0.0104712"
         id="stop248" /><stop
         style="stop-opacity:1;stop-color:#f9b233"
         offset="0.989529"
         id="stop250" /><stop
         style="stop-opacity:1;stop-color:#f9b233"
         offset="1"
         id="stop252" /></linearGradient><clipPath
       clipPathUnits="userSpaceOnUse"
       id="clipPath264"><path
         d="m 442.66,251.599 -9.989,-25.957 h 8.994 l 3.447,9.871 h 13.844 l 2.687,6.835 h -13.552 l 0.877,2.627 h 13.902 l 2.57,6.624 z"
         id="path262"
         inkscape:connector-curvature="0" /></clipPath><linearGradient
       x1="0"
       y1="0"
       x2="1"
       y2="0"
       gradientUnits="userSpaceOnUse"
       gradientTransform="matrix(-1.1e-6,-25.957031,-25.957031,1.1e-6,449.05566,251.59863)"
       spreadMethod="pad"
       id="linearGradient278"><stop
         style="stop-opacity:1;stop-color:#e6342a"
         offset="0"
         id="stop270" /><stop
         style="stop-opacity:1;stop-color:#e6342a"
         offset="0.0104712"
         id="stop272" /><stop
         style="stop-opacity:1;stop-color:#f9b233"
         offset="0.989529"
         id="stop274" /><stop
         style="stop-opacity:1;stop-color:#f9b233"
         offset="1"
         id="stop276" /></linearGradient><clipPath
       clipPathUnits="userSpaceOnUse"
       id="clipPath288"><path
         d="M 0,396.85 H 595.28 V 0 H 0 Z"
         id="path286"
         inkscape:connector-curvature="0" /></clipPath><clipPath
       clipPathUnits="userSpaceOnUse"
       id="clipPath332"><path
         d="m 191.189,251.41 -2.814,-6.94 7.784,-0.094 -7.316,-19.037 h 8.722 l 7.315,19.131 h 7.034 l 2.721,6.94 z"
         id="path330"
         inkscape:connector-curvature="0" /></clipPath><linearGradient
       x1="0"
       y1="0"
       x2="1"
       y2="0"
       gradientUnits="userSpaceOnUse"
       gradientTransform="matrix(-1.1e-6,-26.071289,-26.071289,1.1e-6,201.50488,251.41016)"
       spreadMethod="pad"
       id="linearGradient346"><stop
         style="stop-opacity:1;stop-color:#e6342a"
         offset="0"
         id="stop338" /><stop
         style="stop-opacity:1;stop-color:#e6342a"
         offset="0.0104712"
         id="stop340" /><stop
         style="stop-opacity:1;stop-color:#f9b233"
         offset="0.989529"
         id="stop342" /><stop
         style="stop-opacity:1;stop-color:#f9b233"
         offset="1"
         id="stop344" /></linearGradient><clipPath
       clipPathUnits="userSpaceOnUse"
       id="clipPath356"><path
         d="m 239.206,251.41 c -0.281,0 -3.844,-9.471 -3.844,-9.471 v 0 h -10.599 l 3.095,9.471 h -8.44 l -9.754,-26.071 h 8.536 l 3.749,9.66 h 10.973 l -3.562,-9.66 h 8.814 c 0,0 9.566,26.071 9.847,26.071 v 0 c 0.188,0 -3.667,0.001 -6.342,0.001 v 0 c -1.337,0 -2.38,0 -2.473,-0.001"
         id="path354"
         inkscape:connector-curvature="0" /></clipPath><linearGradient
       x1="0"
       y1="0"
       x2="1"
       y2="0"
       gradientUnits="userSpaceOnUse"
       gradientTransform="matrix(-1.1e-6,-26.071777,-26.071777,1.1e-6,228.84619,251.41064)"
       spreadMethod="pad"
       id="linearGradient370"><stop
         style="stop-opacity:1;stop-color:#e6342a"
         offset="0"
         id="stop362" /><stop
         style="stop-opacity:1;stop-color:#e6342a"
         offset="0.0104712"
         id="stop364" /><stop
         style="stop-opacity:1;stop-color:#f9b233"
         offset="0.989529"
         id="stop366" /><stop
         style="stop-opacity:1;stop-color:#f9b233"
         offset="1"
         id="stop368" /></linearGradient><clipPath
       clipPathUnits="userSpaceOnUse"
       id="clipPath380"><path
         d="m 252.526,251.41 -9.755,-26.071 h 23.165 l 2.439,6.847 h -14.35 l 1.031,2.907 h 14.35 l 2.625,6.751 h -14.347 l 1.031,2.627 h 14.255 l 3.001,6.939 z"
         id="path378"
         inkscape:connector-curvature="0" /></clipPath><linearGradient
       x1="0"
       y1="0"
       x2="1"
       y2="0"
       gradientUnits="userSpaceOnUse"
       gradientTransform="matrix(-1.1e-6,-26.071289,-26.071289,1.1e-6,259.37109,251.41016)"
       spreadMethod="pad"
       id="linearGradient394"><stop
         style="stop-opacity:1;stop-color:#e6342a"
         offset="0"
         id="stop386" /><stop
         style="stop-opacity:1;stop-color:#e6342a"
         offset="0.0104712"
         id="stop388" /><stop
         style="stop-opacity:1;stop-color:#f9b233"
         offset="0.989529"
         id="stop390" /><stop
         style="stop-opacity:1;stop-color:#f9b233"
         offset="1"
         id="stop392" /></linearGradient><clipPath
       clipPathUnits="userSpaceOnUse"
       id="clipPath404"><path
         d="m 309.733,251.41 -11.821,-10.502 h -1.026 l 3.751,10.502 h -8.628 l -9.847,-26.071 h 8.722 l 4.97,13.035 4.501,-13.035 h 8.816 l -4.596,14.068 13.504,12.003 z"
         id="path402"
         inkscape:connector-curvature="0" /></clipPath><linearGradient
       x1="0"
       y1="0"
       x2="1"
       y2="0"
       gradientUnits="userSpaceOnUse"
       gradientTransform="matrix(-1.1e-6,-26.071289,-26.071289,1.1e-6,300.12109,251.41016)"
       spreadMethod="pad"
       id="linearGradient418"><stop
         style="stop-opacity:1;stop-color:#e6342a"
         offset="0"
         id="stop410" /><stop
         style="stop-opacity:1;stop-color:#e6342a"
         offset="0.0104712"
         id="stop412" /><stop
         style="stop-opacity:1;stop-color:#f9b233"
         offset="0.989529"
         id="stop414" /><stop
         style="stop-opacity:1;stop-color:#f9b233"
         offset="1"
         id="stop416" /></linearGradient><clipPath
       clipPathUnits="userSpaceOnUse"
       id="clipPath428"><path
         d="m 323.051,251.41 -9.845,-26.071 h 9.002 l 9.566,26.071 z"
         id="path426"
         inkscape:connector-curvature="0" /></clipPath><linearGradient
       x1="0"
       y1="0"
       x2="1"
       y2="0"
       gradientUnits="userSpaceOnUse"
       gradientTransform="matrix(-1.1e-6,-26.071289,-26.071289,1.1e-6,322.49023,251.41016)"
       spreadMethod="pad"
       id="linearGradient442"><stop
         style="stop-opacity:1;stop-color:#e6342a"
         offset="0"
         id="stop434" /><stop
         style="stop-opacity:1;stop-color:#e6342a"
         offset="0.0104712"
         id="stop436" /><stop
         style="stop-opacity:1;stop-color:#f9b233"
         offset="0.989529"
         id="stop438" /><stop
         style="stop-opacity:1;stop-color:#f9b233"
         offset="1"
         id="stop440" /></linearGradient><clipPath
       clipPathUnits="userSpaceOnUse"
       id="clipPath452"><path
         d="m 360.689,251.421 c -2.012,-0.027 -3.922,-0.054 -3.965,-0.011 v 0 c -0.095,0.093 -4.877,-13.036 -4.877,-13.036 v 0 l -7.409,13.036 h -7.691 l -10.035,-26.071 h 8.629 l 5.346,13.881 8.064,-13.881 h 6.848 c 0,0 9.611,25.931 9.751,26.071 v 0 c 0.034,0.034 -0.447,0.046 -1.197,0.046 v 0 c -0.906,0 -2.205,-0.017 -3.464,-0.035"
         id="path450"
         inkscape:connector-curvature="0" /></clipPath><linearGradient
       x1="0"
       y1="0"
       x2="1"
       y2="0"
       gradientUnits="userSpaceOnUse"
       gradientTransform="matrix(-1.1e-6,-26.117188,-26.117188,1.1e-6,346.03223,251.45605)"
       spreadMethod="pad"
       id="linearGradient466"><stop
         style="stop-opacity:1;stop-color:#e6342a"
         offset="0"
         id="stop458" /><stop
         style="stop-opacity:1;stop-color:#e6342a"
         offset="0.0104712"
         id="stop460" /><stop
         style="stop-opacity:1;stop-color:#f9b233"
         offset="0.989529"
         id="stop462" /><stop
         style="stop-opacity:1;stop-color:#f9b233"
         offset="1"
         id="stop464" /></linearGradient><clipPath
       clipPathUnits="userSpaceOnUse"
       id="clipPath476"><path
         d="m 372.73,249.739 c -1.891,-1.032 -3.723,-2.258 -5.258,-3.774 v 0 c -3.106,-3.063 -5.965,-7.91 -4.909,-12.448 v 0 c 0.541,-2.327 2.196,-4.237 4.119,-5.588 v 0 c 1.501,-1.053 3.24,-1.746 5.034,-2.102 v 0 c 4.794,-0.949 9.897,-0.488 14.759,-0.488 v 0 l 6.176,16.891 c 0,0 -9.992,-0.182 -9.931,0 v 0 c 0.06,0.181 -5.994,-6.965 -5.994,-6.965 v 0 h 4.48 l -1.211,-2.725 c -11.445,-0.787 -8.237,6.238 -8.237,6.238 v 0 c 3.27,6.783 9.206,6.056 9.206,6.056 v 0 h 8.539 l 5.929,6.616 c -0.543,-0.027 -8.169,0.006 -8.169,0.006 v 0 c -1.35,0.099 -2.595,0.142 -3.742,0.142 v 0 c -7.551,0 -10.791,-1.859 -10.791,-1.859 m 22.702,1.711 c 0.038,0.002 0.042,0.004 0.006,0.006 v 0 z"
         id="path474"
         inkscape:connector-curvature="0" /></clipPath><linearGradient
       x1="0"
       y1="0"
       x2="1"
       y2="0"
       gradientUnits="userSpaceOnUse"
       gradientTransform="matrix(-1.2e-6,-26.370605,-26.370605,1.2e-6,378.90137,251.59766)"
       spreadMethod="pad"
       id="linearGradient490"><stop
         style="stop-opacity:1;stop-color:#e6342a"
         offset="0"
         id="stop482" /><stop
         style="stop-opacity:1;stop-color:#e6342a"
         offset="0.0104712"
         id="stop484" /><stop
         style="stop-opacity:1;stop-color:#f9b233"
         offset="0.989529"
         id="stop486" /><stop
         style="stop-opacity:1;stop-color:#f9b233"
         offset="1"
         id="stop488" /></linearGradient><clipPath
       clipPathUnits="userSpaceOnUse"
       id="clipPath500"><path
         d="m 413.146,249.066 c -8.706,-5.017 -13.081,-13.743 -9.766,-19.49 v 0 c 3.308,-5.75 13.056,-6.348 21.767,-1.331 v 0 c 8.703,5.016 13.075,13.744 9.762,19.493 v 0 c -1.802,3.131 -5.512,4.733 -9.925,4.733 v 0 c -3.69,0.001 -7.871,-1.12 -11.838,-3.405 m 0.202,-14.591 c -1.597,2.203 -0.335,5.842 2.815,8.126 v 0 c 3.154,2.285 7.006,2.35 8.602,0.146 v 0 c 1.597,-2.204 0.336,-5.843 -2.814,-8.127 v 0 c -1.614,-1.169 -3.411,-1.757 -4.995,-1.757 v 0 c -1.511,0 -2.828,0.535 -3.608,1.612"
         id="path498"
         inkscape:connector-curvature="0" /></clipPath><linearGradient
       x1="0"
       y1="0"
       x2="1"
       y2="0"
       gradientUnits="userSpaceOnUse"
       gradientTransform="matrix(-1.2e-6,-27.631348,-27.631348,1.2e-6,419.14453,252.47119)"
       spreadMethod="pad"
       id="linearGradient514"><stop
         style="stop-opacity:1;stop-color:#e6342a"
         offset="0"
         id="stop506" /><stop
         style="stop-opacity:1;stop-color:#e6342a"
         offset="0.0104712"
         id="stop508" /><stop
         style="stop-opacity:1;stop-color:#f9b233"
         offset="0.989529"
         id="stop510" /><stop
         style="stop-opacity:1;stop-color:#f9b233"
         offset="1"
         id="stop512" /></linearGradient><clipPath
       clipPathUnits="userSpaceOnUse"
       id="clipPath524"><path
         d="m 442.66,251.599 -9.989,-25.957 h 8.994 l 3.447,9.871 h 13.844 l 2.687,6.835 h -13.552 l 0.877,2.627 h 13.902 l 2.57,6.624 z"
         id="path522"
         inkscape:connector-curvature="0" /></clipPath><linearGradient
       x1="0"
       y1="0"
       x2="1"
       y2="0"
       gradientUnits="userSpaceOnUse"
       gradientTransform="matrix(-1.1e-6,-25.957031,-25.957031,1.1e-6,449.05566,251.59863)"
       spreadMethod="pad"
       id="linearGradient538"><stop
         style="stop-opacity:1;stop-color:#e6342a"
         offset="0"
         id="stop530" /><stop
         style="stop-opacity:1;stop-color:#e6342a"
         offset="0.0104712"
         id="stop532" /><stop
         style="stop-opacity:1;stop-color:#f9b233"
         offset="0.989529"
         id="stop534" /><stop
         style="stop-opacity:1;stop-color:#f9b233"
         offset="1"
         id="stop536" /></linearGradient><clipPath
       clipPathUnits="userSpaceOnUse"
       id="clipPath548"><path
         d="M 0,396.85 H 595.28 V 0 H 0 Z"
         id="path546"
         inkscape:connector-curvature="0" /></clipPath><clipPath
       clipPathUnits="userSpaceOnUse"
       id="clipPath588"><path
         d="m 148.96,216.082 -22.375,-59.125 h 16.25 l 9.125,24.25 h 21 l 5.25,14.375 h -20.625 l 2.625,6.625 h 20.375 l 4.875,13.875 z"
         id="path586"
         inkscape:connector-curvature="0" /></clipPath><linearGradient
       x1="0"
       y1="0"
       x2="1"
       y2="0"
       gradientUnits="userSpaceOnUse"
       gradientTransform="matrix(-2.6e-6,-59.125488,-59.125488,2.6e-6,156.02246,216.08203)"
       spreadMethod="pad"
       id="linearGradient602"><stop
         style="stop-opacity:1;stop-color:#ea5b0b"
         offset="0"
         id="stop594" /><stop
         style="stop-opacity:1;stop-color:#fcea12"
         offset="0.48564172"
         id="stop596" /><stop
         style="stop-opacity:1;stop-color:#fcea12"
         offset="0.989529"
         id="stop598" /><stop
         style="stop-opacity:1;stop-color:#fcea12"
         offset="1"
         id="stop600" /></linearGradient><clipPath
       clipPathUnits="userSpaceOnUse"
       id="clipPath612"><path
         d="m 194.085,216.082 -23.25,-59.125 h 16.5 l 22.875,59.125 z"
         id="path610"
         inkscape:connector-curvature="0" /></clipPath><linearGradient
       x1="0"
       y1="0"
       x2="1"
       y2="0"
       gradientUnits="userSpaceOnUse"
       gradientTransform="matrix(-2.6e-6,-59.125488,-59.125488,2.6e-6,190.52246,216.08203)"
       spreadMethod="pad"
       id="linearGradient626"><stop
         style="stop-opacity:1;stop-color:#ea5b0b"
         offset="0"
         id="stop618" /><stop
         style="stop-opacity:1;stop-color:#fcea12"
         offset="0.48564172"
         id="stop620" /><stop
         style="stop-opacity:1;stop-color:#fcea12"
         offset="0.989529"
         id="stop622" /><stop
         style="stop-opacity:1;stop-color:#fcea12"
         offset="1"
         id="stop624" /></linearGradient><clipPath
       clipPathUnits="userSpaceOnUse"
       id="clipPath636"><path
         d="m 241.085,216.082 c -4.824,-0.195 -10.177,-1.072 -14.635,-2.97 v 0 c -6.127,-2.608 -12.083,-7.142 -15.815,-12.678 v 0 c -3.477,-5.157 -6.548,-10.403 -7.111,-16.805 v 0 c -0.247,-2.816 -0.388,-5.62 0.003,-8.43 v 0 c 0.651,-4.683 2.12,-9.931 5.647,-13.273 v 0 c 2.449,-2.317 6.604,-4.969 10.136,-4.969 v 0 h 21.326 l 13.074,34.375 -19,0.125 -11.75,-14.5 h 8.75 l -2.5,-5.75 c -6.924,-0.537 -10.308,5.512 -9.954,11.716 v 0 c 0.169,2.97 1.818,6.758 3.329,9.282 v 0 c 2.778,4.644 7.625,7.383 12.726,8.785 v 0 c 2.477,0.681 5.029,1.039 7.594,1.151 v 0 c 1.278,0.054 2.557,0.047 3.835,0.007 v 0 c 0.497,-0.015 3.6,-0.496 3.845,-0.191 v 0 c 0.007,0.01 11.375,14.125 11.375,14.125 v 0 z"
         id="path634"
         inkscape:connector-curvature="0" /></clipPath><linearGradient
       x1="0"
       y1="0"
       x2="1"
       y2="0"
       gradientUnits="userSpaceOnUse"
       gradientTransform="matrix(-2.6e-6,-59.125488,-59.125488,2.6e-6,232.62158,216.08203)"
       spreadMethod="pad"
       id="linearGradient650"><stop
         style="stop-opacity:1;stop-color:#ea5b0b"
         offset="0"
         id="stop642" /><stop
         style="stop-opacity:1;stop-color:#fcea12"
         offset="0.48564172"
         id="stop644" /><stop
         style="stop-opacity:1;stop-color:#fcea12"
         offset="0.989529"
         id="stop646" /><stop
         style="stop-opacity:1;stop-color:#fcea12"
         offset="1"
         id="stop648" /></linearGradient><clipPath
       clipPathUnits="userSpaceOnUse"
       id="clipPath660"><path
         d="m 301.084,216.082 -8.499,-20.625 h -14.75 l 8.125,20.625 h -16.25 l -23.25,-59.125 h 16.75 l 9.5,24.5 14.25,-0.125 -8.875,-24.375 h 16.5 l 22.499,59.125 z"
         id="path658"
         inkscape:connector-curvature="0" /></clipPath><linearGradient
       x1="0"
       y1="0"
       x2="1"
       y2="0"
       gradientUnits="userSpaceOnUse"
       gradientTransform="matrix(-2.6e-6,-59.125488,-59.125488,2.6e-6,281.77197,216.08203)"
       spreadMethod="pad"
       id="linearGradient674"><stop
         style="stop-opacity:1;stop-color:#ea5b0b"
         offset="0"
         id="stop666" /><stop
         style="stop-opacity:1;stop-color:#fcea12"
         offset="0.48564172"
         id="stop668" /><stop
         style="stop-opacity:1;stop-color:#fcea12"
         offset="0.989529"
         id="stop670" /><stop
         style="stop-opacity:1;stop-color:#fcea12"
         offset="1"
         id="stop672" /></linearGradient><clipPath
       clipPathUnits="userSpaceOnUse"
       id="clipPath684"><path
         d="m 322.959,216.082 -5.25,-13.625 h 12.375 l -17.125,-45.5 h 16.375 l 17.5,45.5 h 11.5 l 5.375,13.625 z"
         id="path682"
         inkscape:connector-curvature="0" /></clipPath><linearGradient
       x1="0"
       y1="0"
       x2="1"
       y2="0"
       gradientUnits="userSpaceOnUse"
       gradientTransform="matrix(-2.6e-6,-59.125488,-59.125488,2.6e-6,338.33398,216.08203)"
       spreadMethod="pad"
       id="linearGradient698"><stop
         style="stop-opacity:1;stop-color:#ea5b0b"
         offset="0"
         id="stop690" /><stop
         style="stop-opacity:1;stop-color:#fcea12"
         offset="0.48564172"
         id="stop692" /><stop
         style="stop-opacity:1;stop-color:#fcea12"
         offset="0.989529"
         id="stop694" /><stop
         style="stop-opacity:1;stop-color:#fcea12"
         offset="1"
         id="stop696" /></linearGradient><clipPath
       clipPathUnits="userSpaceOnUse"
       id="clipPath708"><path
         d="m 370.604,216.082 -22.299,-59.125 h 40.726 l 4.928,14.469 h -24.293 l 4.108,9.975 h 22.181 l 5.047,14.084 h -21.83 l 2.699,7.16 h 22.533 l 5.047,13.437 z"
         id="path706"
         inkscape:connector-curvature="0" /></clipPath><linearGradient
       x1="0"
       y1="0"
       x2="1"
       y2="0"
       gradientUnits="userSpaceOnUse"
       gradientTransform="matrix(-2.6e-6,-59.125488,-59.125488,2.6e-6,378.87793,216.08203)"
       spreadMethod="pad"
       id="linearGradient722"><stop
         style="stop-opacity:1;stop-color:#ea5b0b"
         offset="0"
         id="stop714" /><stop
         style="stop-opacity:1;stop-color:#fcea12"
         offset="0.48564172"
         id="stop716" /><stop
         style="stop-opacity:1;stop-color:#fcea12"
         offset="0.989529"
         id="stop718" /><stop
         style="stop-opacity:1;stop-color:#fcea12"
         offset="1"
         id="stop720" /></linearGradient><clipPath
       clipPathUnits="userSpaceOnUse"
       id="clipPath732"><path
         d="m 417.084,216.082 -22.25,-59.125 h 16.25 l 9.375,24.125 2.5,-24.125 h 16.125 l -1.875,25.875 c 12.375,9.875 13.375,21 13.375,21 v 0 c 1.25,11.5 -5.875,12.25 -5.875,12.25 v 0 z m 7.084,-24.875 c 0,0.001 5.916,15.166 5.916,15.166 v 0 h 3.918 c 0.594,0 1.256,-1.117 1.498,-1.518 v 0 c 0.699,-1.16 0.871,-2.404 0.611,-3.725 v 0 c -0.588,-2.97 -2.081,-5.862 -4.378,-7.862 v 0 c -0.923,-0.804 -1.975,-1.438 -3.155,-1.78 v 0 c -0.416,-0.122 -3.917,-0.284 -4.363,-0.284 v 0 c -0.031,0 -0.047,0.001 -0.047,0.003"
         id="path730"
         inkscape:connector-curvature="0" /></clipPath><linearGradient
       x1="0"
       y1="0"
       x2="1"
       y2="0"
       gradientUnits="userSpaceOnUse"
       gradientTransform="matrix(-2.6e-6,-59.125488,-59.125488,2.6e-6,422.7832,216.08203)"
       spreadMethod="pad"
       id="linearGradient746"><stop
         style="stop-opacity:1;stop-color:#ea5b0b"
         offset="0"
         id="stop738" /><stop
         style="stop-opacity:1;stop-color:#fcea12"
         offset="0.48564172"
         id="stop740" /><stop
         style="stop-opacity:1;stop-color:#fcea12"
         offset="0.989529"
         id="stop742" /><stop
         style="stop-opacity:1;stop-color:#fcea12"
         offset="1"
         id="stop744" /></linearGradient><clipPath
       clipPathUnits="userSpaceOnUse"
       id="clipPath756"><path
         d="m 474.496,215.932 c -1.789,-0.625 -3.612,-1.411 -5.261,-2.348 v 0 c -3.093,-1.756 -6.069,-3.848 -8.342,-6.616 v 0 c -0.995,-1.209 -1.926,-2.552 -2.678,-3.928 v 0 c -1.946,-3.556 -3.424,-7.574 -2.031,-11.582 v 0 c 1.392,-4.004 4.962,-7.476 8.525,-9.626 v 0 c 0,0 7.668,-4.334 6.625,-7.125 v 0 c 0,0 -4.748,-9.792 -23.5,1.125 v 0 c 0,0 -5.998,-14.998 -6,-15 v 0 c -0.24,-0.602 7.772,-3.207 8.174,-3.31 v 0 c 6.6,-1.7 13.812,-1.44 20.23,0.884 v 0 c 4.994,1.806 9.631,4.746 13.141,8.751 v 0 c 1,1.141 1.888,2.381 2.668,3.682 v 0 c 2.523,4.205 4.381,9.526 1.883,14.184 v 0 c -2.157,4.02 -6.723,6.056 -10.379,8.452 v 0 c -2.227,1.46 -7.9,3.987 -5.443,7.533 v 0 c 0.562,0.812 1.617,1.536 2.529,1.896 v 0 c 1.023,0.404 2.246,0.674 3.351,0.687 v 0 c 1.848,0.02 3.826,-0.386 5.596,-0.884 v 0 c 0,0 5.687,-2.562 8.75,-7.5 v 0 c 0,0 5.998,16.744 6,16.75 v 0 c 0.25,0.702 -3.582,2.373 -4.072,2.607 v 0 c -3.717,1.774 -7.695,2.736 -11.694,2.736 v 0 c -2.706,10e-4 -5.42,-0.44 -8.072,-1.368"
         id="path754"
         inkscape:connector-curvature="0" /></clipPath><linearGradient
       x1="0"
       y1="0"
       x2="1"
       y2="0"
       gradientUnits="userSpaceOnUse"
       gradientTransform="matrix(-2.7e-6,-60.876953,-60.876953,2.7e-6,470.08789,217.30029)"
       spreadMethod="pad"
       id="linearGradient770"><stop
         style="stop-opacity:1;stop-color:#ea5b0b"
         offset="0"
         id="stop762" /><stop
         style="stop-opacity:1;stop-color:#fcea12"
         offset="0.48564172"
         id="stop764" /><stop
         style="stop-opacity:1;stop-color:#fcea12"
         offset="0.989529"
         id="stop766" /><stop
         style="stop-opacity:1;stop-color:#fcea12"
         offset="1"
         id="stop768" /></linearGradient></defs><sodipodi:namedview
     pagecolor="#ffffff"
     bordercolor="#666666"
     borderopacity="1"
     objecttolerance="10"
     gridtolerance="10"
     guidetolerance="10"
     inkscape:pageopacity="0"
     inkscape:pageshadow="2"
     inkscape:window-width="1366"
     inkscape:window-height="740"
     id="namedview4"
     showgrid="false"
     inkscape:pagecheckerboard="true"
     inkscape:zoom="1.3797804"
     inkscape:cx="128.79109"
     inkscape:cy="115.90731"
     inkscape:window-x="0"
     inkscape:window-y="0"
     inkscape:window-maximized="1"
     inkscape:current-layer="g10" /><g
     id="g10"
     inkscape:groupmode="layer"
     inkscape:label="the-king-of-fighters-seeklogo.com"
     transform="matrix(1.3333333,0,0,-1.3333333,0,200.00003)"><g
       id="g1357"
       transform="matrix(2.1622508,0,0,2.1622508,-97.675521,-125.67863)"
       style="fill:#ffffff"><path
         style="fill:#ffffff;stroke-width:0.24000002"
         d="m 70.994801,45.381031 c 0.05775,0.173251 0.246749,0.362249 0.42,0.42 0.18,0.06 0.27,-0.03 0.21,-0.21 -0.05775,-0.173249 -0.246751,-0.362249 -0.42,-0.42 -0.18,-0.06 -0.27,0.03 -0.21,0.21 z m 103.395009,4.905 c 0,0.198 0.162,0.36 0.36,0.36 0.198,0 0.36,-0.162 0.36,-0.36 0,-0.198 -0.162,-0.36 -0.36,-0.36 -0.198,0 -0.36,0.162 -0.36,0.36 z m -87.360007,0.6 c 0,0.132 0.108,0.24 0.24,0.24 0.132,0 0.24,-0.108 0.24,-0.24 0,-0.132 -0.108,-0.24 -0.24,-0.24 -0.132,0 -0.24,0.108 -0.24,0.24 z m 52.800007,3.945836 c 0,0.20579 0.108,0.374165 0.24,0.374165 0.132,0 0.24,-0.101626 0.24,-0.225835 0,-0.12421 -0.108,-0.292584 -0.24,-0.374165 -0.132,-0.08158 -0.24,0.02004 -0.24,0.225835 z m 50.16,4.934165 c 0,0.132 0.108,0.24 0.24,0.24 0.132,0 0.24,-0.108 0.24,-0.24 0,-0.132 -0.108,-0.24 -0.24,-0.24 -0.132,0 -0.24,0.108 -0.24,0.24 z M 48.149799,64.206033 c 0,0.198 0.108,0.36 0.24,0.36 0.132,0 0.24,-0.162 0.24,-0.36 0,-0.198 -0.108,-0.36 -0.24,-0.36 -0.132,0 -0.24,0.162 -0.24,0.36 z m 170.400021,4.92 c 0,0.132 0.108,0.24 0.24,0.24 0.132,0 0.24,-0.108 0.24,-0.24 0,-0.132 -0.108,-0.24 -0.24,-0.24 -0.132,0 -0.24,0.108 -0.24,0.24 z M 49.829799,95.540543 v 19.185497 h 5.781099 5.781097 l 1.598904,-1.56188 c 0.879396,-0.85902 1.791173,-1.62334 2.026171,-1.69848 0.517603,-0.16549 1.928782,0.99462 2.859478,2.35074 l 0.646747,0.94238 5.90671,-0.0105 c 3.248691,-0.006 6.008655,-0.0735 6.133254,-0.15055 0.234062,-0.14466 0.335942,-37.227228 0.103939,-37.832057 -0.09798,-0.255437 -1.194523,-0.307639 -5.460001,-0.259927 -2.935567,0.03283 -5.418396,0.05983 -5.517396,0.06 -0.099,1.63e-4 -0.18,4.907924 -0.18,10.906134 0,6.64099 -0.0893,10.961029 -0.228358,11.04697 -0.125597,0.07762 -0.530597,-0.1267 -0.9,-0.454053 -1.40023,-1.240832 -2.98541,-2.538752 -3.100637,-2.538752 -0.206942,0 -2.341783,1.640012 -3.006653,2.309746 -0.39481,0.397702 -0.78127,0.584419 -1.02,0.492809 C 60.909556,98.196357 60.8698,97.063221 60.8698,87.373566 V 76.566034 l -4.5,-0.03724 c -2.475001,-0.02047 -4.959001,-0.06795 -5.520001,-0.105492 l -1.02,-0.06826 z m 32.50023,-18.994509 c -0.05512,0.055 -0.100227,8.668 -0.100227,19.140002 v 19.040004 h 8.734791 8.734794 l 0.08521,-0.9 c 0.04686,-0.495 0.05282,-2.358 0.01322,-4.14 l -0.07198,-3.24 -4.560699,0.0789 c -3.298404,0.057 -4.65683,-9.6e-4 -4.908024,-0.20938 -0.271416,-0.22527 -0.347316,-0.98986 -0.347316,-3.49887 v -3.210614 h 4.92 4.920001 l 0.01706,-0.66 c 0.01315,-0.508949 0.0017,-7.131063 -0.01397,-8.040001 -0.0017,-0.099 -2.046262,-0.18 -4.543465,-0.18 -2.497205,0 -4.711205,-0.06555 -4.92,-0.145678 -0.312286,-0.119834 -0.379632,-0.585645 -0.379632,-2.625737 v -2.480062 l 4.668564,-0.07426 c 2.946891,-0.04688 4.764651,-0.170559 4.929118,-0.335381 0.206132,-0.206578 0.420992,-6.928424 0.267826,-8.378883 -0.0244,-0.231053 -17.215746,-0.369015 -17.445282,-0.14 z m 25.439571,0 c -0.0549,0.055 -0.0998,6.828865 -0.0998,15.053035 V 106.5521 l -3.18,0.067 -3.18,0.067 v 3.96 3.96 h 11.88001 11.88 l 0.0658,-4.02 0.0658,-4.02 h -2.99736 c -2.70542,0 -3.02127,-0.0447 -3.24287,-0.45874 -0.15973,-0.29847 -0.24354,-5.50818 -0.23988,-14.911446 0.003,-7.948988 -0.0369,-14.495216 -0.0888,-14.547176 -0.12832,-0.128324 -10.73719,-0.228567 -10.86285,-0.102644 z m 19.20046,0 c -0.0551,0.055 -0.10025,8.668 -0.10025,19.140002 v 19.040004 l 8.82,0.0484 c 10.80585,0.0594 10.16105,0.0958 11.32715,-0.64033 0.52982,-0.33446 1.05325,-0.60811 1.16318,-0.60811 0.39717,0 1.43671,-1.34925 2.0915,-2.71463 l 0.66881,-1.39463 -0.0217,-5.25475 c -0.0238,-5.764327 0.11169,-5.091655 -1.62396,-8.063621 l -0.43662,-0.747629 0.74141,-0.936096 c 1.21371,-1.532441 1.31225,-2.331106 1.28023,-10.37666 -0.0161,-4.032132 -0.0519,-7.351731 -0.0796,-7.376886 -0.0277,-0.02515 -1.75142,-0.08388 -3.83042,-0.130502 l -3.78,-0.08476 v 7.015508 7.01551 l -0.54,0.133365 c -0.297,0.07335 -2.16001,0.102411 -4.14001,0.06457 l -3.6,-0.0688 -0.0636,-7.020001 c -0.0587,-6.47114 -0.0962,-7.021196 -0.48,-7.035303 -2.17251,-0.07984 -7.31751,-0.08311 -7.39612,-0.0047 z m 16.45975,26.732006 c 0,1.78933 -0.098,2.80998 -0.288,3 -0.19835,0.19835 -1.40647,0.288 -3.8811,0.288 -4.62272,0 -4.4709,0.11536 -4.4709,-3.3972 v -2.6028 h 4.32 4.32 z M 158.7463,76.806034 c -2.16034,0.692229 -3.9089,1.907868 -4.64299,3.227911 -0.37074,0.666651 -0.82702,1.303541 -1.01397,1.415314 -0.22301,0.133334 -0.28814,0.409473 -0.18939,0.802956 0.0828,0.329854 0.0263,0.749371 -0.12545,0.932261 -0.18058,0.217586 -0.21387,0.686659 -0.0963,1.357044 0.14144,0.806645 0.26354,9.612562 0.34936,25.19616 0.001,0.22641 0.29927,0.76677 0.66227,1.20079 0.363,0.43403 0.77783,1.00172 0.92185,1.26154 0.31667,0.57126 2.81887,2.13539 3.81423,2.38427 0.39384,0.0985 3.33108,0.17826 6.5272,0.1773 6.32172,-0.002 6.47442,-0.0285 8.88258,-1.54874 1.20876,-0.76305 2.71414,-2.93929 2.71414,-3.92365 0,-0.38893 0.135,-0.84206 0.3,-1.00694 0.23018,-0.23001 0.31725,-3.15185 0.3741,-12.55352 0.0624,-10.323205 0.0204,-12.315889 -0.26706,-12.648217 -0.18763,-0.216963 -0.40943,-0.756236 -0.49288,-1.198385 -0.0834,-0.442148 -0.42227,-1.125435 -0.75294,-1.518413 -0.33067,-0.392981 -0.60122,-0.852872 -0.60122,-1.021983 0,-0.578337 -2.71418,-2.036318 -5.04,-2.707344 -0.198,-0.05712 -2.574,-0.122875 -5.28,-0.14611 -3.80656,-0.03268 -5.17426,0.03923 -6.04351,0.317756 z m 10.10049,8.860692 c 0.28393,0.17976 0.31554,1.737593 0.20081,9.896327 -0.084,5.976627 -0.23464,9.938007 -0.39342,10.349257 l -0.25726,0.66627 -3.66355,-0.0663 -3.66356,-0.0663 0.0938,-10.320005 c 0.0654,-7.194972 0.17442,-10.373393 0.36,-10.496326 0.38028,-0.251897 6.91903,-0.218847 7.32317,0.03702 z m 14.96158,-9.158026 -5.34145,0.06653 0.0615,19.015405 0.0614,19.015405 5.58144,0.0644 5.58144,0.0644 -0.0614,-19.124438 c -0.0402,-12.530257 -0.14419,-19.132 -0.30144,-19.146357 -0.132,-0.01205 -2.64365,0.008 -5.58144,0.04461 z m 7.96131,0.03733 c -0.19696,0.197223 -0.0955,37.91441 0.10236,38.03666 0.11122,0.0687 4.32634,0.13837 9.36693,0.15474 l 9.1647,0.0297 1.19681,-0.76799 c 1.55435,-0.99742 2.95143,-2.5997 3.30984,-3.79598 0.20511,-0.6846 0.28794,-4.82262 0.29547,-14.76247 0.009,-11.785119 -0.0415,-13.892173 -0.34404,-14.362972 -0.19498,-0.303456 -0.53303,-0.93178 -0.75122,-1.396279 -0.44047,-0.93767 -2.50793,-2.514852 -3.61836,-2.760303 -0.3863,-0.08539 -0.85529,-0.203719 -1.0422,-0.26296 -0.43367,-0.137451 -17.54663,-0.246046 -17.68029,-0.112196 z m 14.87328,9.129791 0.62685,0.238329 v 10.037941 c 0,7.487289 -0.0732,10.111129 -0.288,10.325949 -0.19694,0.19694 -1.36496,0.288 -3.69432,0.288 -2.88472,0 -3.42863,-0.0581 -3.552,-0.37963 -0.2802,-0.73019 -0.16434,-20.145715 0.12192,-20.43198 0.34164,-0.341637 5.92365,-0.406303 6.78555,-0.07861 z m 18.62686,5.77021 c 0,0.132 0.162,0.24 0.36,0.24 0.198,0 0.36,-0.108 0.36,-0.24 0,-0.132 -0.162,-0.24 -0.36,-0.24 -0.198,0 -0.36,0.108 -0.36,0.24 z m -30.24001,34.560009 c 0,0.132 0.108,0.24 0.24,0.24 0.132,0 0.24,-0.108 0.24,-0.24 0,-0.132 -0.108,-0.24 -0.24,-0.24 -0.132,0 -0.24,0.108 -0.24,0.24 z m -107.353483,3.75347 c -0.191744,0.19175 0.025,0.56653 0.32764,0.56653 0.12421,0 0.225836,-0.162 0.225836,-0.36 0,-0.37114 -0.283191,-0.47681 -0.553476,-0.20653 z m 134.713493,0.20653 c 0,0.22 0.1161,0.3613 0.258,0.314 0.1419,-0.0473 0.258,-0.1886 0.258,-0.314 0,-0.1254 -0.1161,-0.2667 -0.258,-0.314 -0.1419,-0.0473 -0.258,0.094 -0.258,0.314 z m -44.40001,4.2 c 0,0.132 0.16838,0.24 0.37417,0.24 0.20579,0 0.30741,-0.108 0.22583,-0.24 -0.0816,-0.132 -0.24995,-0.24 -0.37416,-0.24 -0.12421,0 -0.22584,0.108 -0.22584,0.24 z m 26.52783,2.38733 c -0.21101,0.34143 0.0581,0.73267 0.50394,0.73267 0.21027,0 0.33073,-0.16862 0.28583,-0.40011 -0.0935,-0.48203 -0.57268,-0.68382 -0.78977,-0.33256 z"
         id="path1363"
         inkscape:connector-curvature="0" /><path
         style="fill:#ffffff;stroke-width:0.24000002"
         d="m 50.669533,77.580979 c -0.07257,0.29978 -0.1022,8.645055 -0.06584,18.545056 l 0.06611,18.000005 5.270141,0.0648 5.270144,0.0648 1.989857,-1.97952 1.989859,-1.97953 1.985014,1.97471 1.985014,1.9747 h 5.189309 c 4.510575,0 5.208363,-0.0497 5.334987,-0.37963 0.190359,-0.49607 0.190359,-35.944679 0,-36.440747 -0.125921,-0.328142 -0.777929,-0.379629 -4.807531,-0.379629 -3.511453,0 -4.688708,0.07403 -4.770668,0.3 -0.05984,0.165 -0.137455,5.232084 -0.172466,11.260189 -0.03501,6.028104 -0.140544,11.036991 -0.234516,11.130857 -0.09397,0.09387 -1.078352,-0.653215 -2.187512,-1.660188 -1.10916,-1.00697 -2.166274,-1.829381 -2.349142,-1.827578 -0.182868,0.0019 -1.196489,0.806801 -2.252489,1.788885 -1.056,0.982083 -2.053942,1.790609 -2.21765,1.796722 -0.231977,0.0087 -0.311408,-2.490888 -0.36,-11.328886 l -0.06235,-11.340001 -4.734159,-0.06506 -4.73416,-0.06505 z m 32.150686,-0.234945 c -0.06298,0.165 -0.08659,8.508 -0.05247,18.540001 l 0.06205,18.240005 7.903775,0.0633 c 6.163469,0.0494 7.946172,-0.003 8.096326,-0.24 0.331728,-0.52259 0.242539,-6.60741 -0.100099,-6.82917 -0.165,-0.10679 -2.298,-0.24816 -4.740001,-0.31416 l -4.44,-0.12 v -3.84 -3.840004 l 4.42213,-0.06558 c 2.765664,-0.04101 4.541199,-0.164395 4.74,-0.329386 0.453951,-0.376747 0.453951,-6.513327 0,-6.890074 -0.198801,-0.16499 -1.974336,-0.288374 -4.74,-0.329385 l -4.42213,-0.06558 v -3.36 V 84.606 l 4.42213,-0.06558 c 2.765664,-0.04101 4.541199,-0.164395 4.74,-0.329386 0.233523,-0.193807 0.317871,-1.078711 0.317871,-3.334795 0,-1.689041 -0.06555,-3.241817 -0.145678,-3.450613 -0.128757,-0.335537 -1.063471,-0.379629 -8.047532,-0.379629 -6.100409,0 -7.927964,0.06839 -8.016375,0.3 z M 108.55473,77.20111 c -0.0907,0.09071 -0.16493,6.788923 -0.16493,14.884926 v 14.720004 l -2.58,0.0284 c -1.419,0.0156 -2.66537,0.0142 -2.76972,-0.003 -0.10435,-0.0174 -0.40428,0.0832 -0.66651,0.22351 -0.44647,0.23894 -0.47257,0.47199 -0.41028,3.66324 l 0.0665,3.40807 h 11.28001 11.28 l 0.0662,-3.51038 c 0.0783,-4.14643 0.41594,-3.80132 -3.72441,-3.80635 l -2.69817,-0.003 -0.0618,-14.820005 -0.0618,-14.820001 -4.69508,-0.06493 c -2.58229,-0.03571 -4.76929,0.0093 -4.86,0.100001 z m 19.14818,0.137923 c -0.0645,0.168852 -0.0893,8.515001 -0.0551,18.547002 l 0.062,18.240005 8.79337,0.0629 8.79337,0.0629 1.52663,-0.78803 c 1.6512,-0.85233 2.85039,-2.28872 3.31883,-3.97528 0.34183,-1.23074 0.319,-9.601044 -0.029,-10.626742 -0.15223,-0.448696 -0.6451,-1.377341 -1.09526,-2.063649 l -0.81849,-1.24784 0.97169,-1.611084 c 0.53443,-0.886097 1.0316,-1.944571 1.10481,-2.352163 0.0732,-0.407592 0.10182,-3.819077 0.0636,-7.581078 l -0.0695,-6.84 h -3.24 -3.24 l -0.12,7.08 -0.12,7.080001 h -4.56 -4.56 l -0.12,-7.080001 -0.12,-7.08 -3.18485,-0.067 c -2.41515,-0.05081 -3.21317,0.0072 -3.30205,0.24 z m 16.09133,22.087003 c 0.0735,0.297 0.10252,2.052004 0.0646,3.900004 l -0.069,3.36 h -4.68 -4.68 l -0.0667,-3.58946 c -0.0367,-1.9742 -0.0131,-3.7292 0.0525,-3.900001 0.0917,-0.23899 1.17053,-0.310543 4.68212,-0.310543 4.53238,0 4.56386,0.0036 4.69654,0.54 z m -8.35843,0.094 c -0.0913,0.0913 -0.166,0.310003 -0.166,0.486004 0,0.25339 0.80293,0.32 3.85759,0.32 3.54462,0 3.85106,-0.0341 3.77698,-0.42 -0.0718,-0.374242 -0.47404,-0.427191 -3.6916,-0.486003 -1.98603,-0.0363 -3.68567,0.0087 -3.77697,0.1 z m 23.1918,-22.136551 c -1.3953,0.447466 -2.51984,1.185262 -3.55793,2.334298 -1.63893,1.814102 -1.58064,1.222152 -1.57221,15.964482 0.007,12.515615 0.035,13.385845 0.45943,14.345275 0.58141,1.31436 1.88126,2.6058 3.46093,3.43852 l 1.25198,0.65998 h 6.12 6.12 l 1.25198,-0.65998 c 1.51008,-0.79604 2.75553,-1.99861 3.4864,-3.3664 l 0.54162,-1.01362 V 95.646035 c 0,-13.33089 -0.004,-13.447794 -0.52019,-14.400001 -0.72627,-1.340292 -2.38013,-2.876079 -3.79981,-3.528519 -1.12844,-0.518594 -1.52918,-0.55458 -6.72,-0.603458 -4.07541,-0.03837 -5.78227,0.03214 -6.5222,0.269424 z m 10.77551,14.722554 c 0.0367,4.059 0.0369,9.027001 4.8e-4,11.040001 l -0.0663,3.66 h -4.55375 -4.55375 V 95.766035 84.726034 h 4.55331 4.5533 z m 9.89906,-14.765094 c -0.0641,0.167801 -0.0885,8.513093 -0.0544,18.545094 l 0.062,18.240001 h 4.8 4.8 V 95.646035 77.166034 l -4.74558,-0.06509 c -3.6657,-0.05028 -4.77208,0.0043 -4.86205,0.24 z m 12.9623,-0.006 c -0.0653,0.171091 -0.0908,8.519069 -0.0567,18.55107 l 0.062,18.240005 8.50867,0.0631 c 9.85445,0.0731 10.14216,0.0289 12.0172,-1.84613 1.95981,-1.95981 1.91671,-1.57795 1.89588,-16.799748 -0.0131,-9.573992 -0.0978,-13.552869 -0.3,-14.101422 -0.52798,-1.432028 -1.71987,-2.818721 -3.05631,-3.555826 l -1.30544,-0.72 -8.82328,-0.07106 c -7.05589,-0.05683 -8.84708,-0.0088 -8.94205,0.240001 z m 15.72533,18.43107 v 11.040005 h -4.56 -4.56 V 95.766035 84.726034 h 4.56 4.56 z"
         id="path1361"
         inkscape:connector-curvature="0" /><path
         style="fill:#ffffff;stroke-width:0.24000002"
         d="m 51.195038,77.440795 c -0.09088,0.09088 -0.165239,8.355239 -0.165239,18.365241 v 18.200004 h 4.975253 4.975251 l 2.10475,-2.095 2.104747,-2.095 2.109901,2.10013 2.109902,2.10012 4.910098,-0.0651 4.910101,-0.0651 V 95.646035 77.406034 h -4.440001 -4.44 l -0.06233,11.460001 c -0.05551,10.207328 -0.103346,11.460005 -0.437594,11.460005 -0.206398,0 -1.289012,-0.837004 -2.405804,-1.860004 -1.116794,-1.023001 -2.11608,-1.889734 -2.220634,-1.926077 -0.104553,-0.03634 -1.116482,0.800659 -2.248733,1.86 -1.13225,1.059343 -2.229998,1.926081 -2.439444,1.926081 -0.341558,0 -0.387233,-1.181203 -0.443136,-11.460005 L 60.0298,77.406034 55.69504,77.340795 c -2.38412,-0.03588 -4.40912,0.0091 -4.500002,0.1 z m 31.866467,0.14186 c -0.0637,0.166857 -0.0879,8.403379 -0.05376,18.30338 l 0.06206,18.000005 h 7.680001 7.680001 l 0.06674,-3.2948 0.06674,-3.29479 -4.62674,-0.0652 -4.626739,-0.0652 v -4.2 -4.200004 l 4.56,-0.12 4.560001,-0.12 0.06677,-3.300001 0.06677,-3.3 h -4.398773 c -3.101268,0 -4.483724,-0.08495 -4.686773,-0.288 -0.197866,-0.197866 -0.288,-1.391628 -0.288,-3.814323 0,-2.994149 0.05729,-3.548309 0.379629,-3.672 0.208796,-0.08012 2.317844,-0.145678 4.686774,-0.145678 h 4.307143 l -0.06677,-3.3 -0.06677,-3.3 -7.626236,-0.06338 c -5.971957,-0.04963 -7.651362,0.0024 -7.742063,0.24 z m 25.938445,-0.07304 c -0.0796,0.128854 -0.1399,6.696433 -0.13392,14.59462 0.008,11.217605 -0.0556,14.449195 -0.29268,14.766365 -0.25177,0.33678 -0.81521,0.41707 -3.30355,0.47073 l -3,0.0647 v 3.24 3.24 h 11.04001 11.04 v -3.24 -3.24 l -3.12,-0.12 -3.12,-0.12 -0.12,-14.88 -0.12,-14.880001 -4.36254,-0.06535 c -2.65237,-0.03973 -4.41929,0.02649 -4.50732,0.168933 z m 19.23706,-0.0708 c -0.092,0.09197 -0.1672,8.362239 -0.1672,18.378385 v 18.21118 l 8.7,-0.0712 8.7,-0.0712 1.24512,-0.6565 c 1.25047,-0.65933 2.03891,-1.50363 2.86081,-3.0635 0.37058,-0.70331 0.45729,-1.54301 0.5329,-5.16 0.10767,-5.150784 -0.0898,-6.274396 -1.43175,-8.148468 l -0.96829,-1.352198 0.58597,-0.769668 c 0.32229,-0.42332 0.84456,-1.255671 1.16061,-1.849671 0.5694,-1.070177 0.57463,-1.145489 0.57463,-8.280001 v -7.2 h -3 -3 l -0.0635,7.112931 -0.0635,7.112933 -0.53647,0.143791 c -1.07893,0.289188 -8.46521,0.164835 -8.88894,-0.149654 -0.36016,-0.26731 -0.41092,-1.058434 -0.46587,-7.260001 l -0.0617,-6.96 -2.7728,-0.06721 c -1.52503,-0.03696 -2.84803,0.008 -2.94,0.1 z m 15.85888,25.255295 c 0.0453,2.69305 -0.0205,4.03244 -0.20939,4.26 -0.21613,0.26042 -1.22126,0.33192 -4.66645,0.33192 -2.41504,0 -4.56182,-0.0656 -4.77061,-0.14568 -0.32524,-0.12481 -0.37963,-0.72086 -0.37963,-4.16 0,-2.20788 0.0742,-4.088497 0.16482,-4.17915 0.0907,-0.09065 2.33166,-0.135655 4.98,-0.100001 l 4.81518,0.06483 z m -8.58608,-2.848084 c 0,0.149332 1.36,0.240004 3.6,0.240004 2.24,0 3.6,-0.09067 3.6,-0.240004 0,-0.149333 -1.36,-0.24 -3.6,-0.24 -2.24,0 -3.6,0.09067 -3.6,0.24 z m 23.52,-22.186728 c -2.19698,0.608107 -3.96935,2.015511 -4.81908,3.826726 -0.42321,0.902093 -0.4507,1.75699 -0.45565,14.17288 l -0.005,13.212876 0.61866,1.24149 c 0.72714,1.45918 1.64718,2.29676 3.46134,3.15112 1.30329,0.61377 1.39139,0.62164 6.96,0.62164 5.56861,0 5.65671,-0.008 6.96,-0.62164 1.81416,-0.85436 2.7342,-1.69194 3.46134,-3.15112 l 0.61866,-1.24149 V 95.646035 82.42028 l -0.61886,-1.241895 c -0.68596,-1.376539 -1.86892,-2.431697 -3.62206,-3.230753 -1.05923,-0.482784 -1.59324,-0.533695 -6.19908,-0.590993 -3.9278,-0.04886 -5.33129,0.01793 -6.36,0.302669 z m 10.33578,6.83517 c 0.44858,0.240074 0.46422,0.618511 0.46422,11.232 0,8.222772 -0.0724,11.055952 -0.288,11.271562 -0.40598,0.40598 -9.09802,0.40598 -9.504,0 -0.21561,-0.21561 -0.288,-3.04802 -0.288,-11.268079 0,-10.204023 0.0297,-10.997365 0.42,-11.224703 0.56057,-0.326501 8.58826,-0.335911 9.19578,-0.01078 z m 10.36269,-7.009659 c -0.23858,0.151468 -0.28868,3.971181 -0.24,18.296327 l 0.0615,18.104894 h 4.56 4.56 l 0.0615,-17.973561 c 0.0448,-13.078509 -0.0122,-18.062467 -0.20939,-18.300002 -0.20938,-0.252286 -1.20474,-0.325608 -4.38153,-0.322769 -2.26084,0.0019 -4.24631,0.08982 -4.41215,0.195111 z m 12.77732,0.08719 c -0.0659,0.172711 -0.092,8.414021 -0.0578,18.314022 l 0.0621,18.000009 8.14741,0.0633 c 9.61566,0.0746 10.04408,0.008 11.90011,-1.84791 1.93504,-1.93504 1.91248,-1.74095 1.91248,-16.455349 0,-14.015365 -0.0253,-14.296748 -1.438,-16.004747 -0.40249,-0.486609 -1.35059,-1.188609 -2.10689,-1.56 l -1.37511,-0.675254 -8.46215,-0.07402 c -6.8028,-0.05951 -8.48567,-0.01246 -8.58206,0.24 z m 15.43544,6.878797 c 0.24595,0.156019 0.32447,2.483316 0.37438,11.096326 0.0347,5.994398 -0.0281,11.087908 -0.13967,11.318908 -0.18257,0.37806 -0.65643,0.42 -4.74594,0.42 -4.24601,0 -4.55936,-0.0304 -4.79155,-0.46423 -0.16058,-0.30004 -0.24845,-4.24076 -0.24845,-11.142858 0,-9.38785 0.0456,-10.724223 0.37715,-11.055778 0.31471,-0.314715 1.07946,-0.376536 4.62,-0.373469 2.33357,0.0019 4.3829,0.09252 4.55408,0.201101 z"
         id="path1359"
         inkscape:connector-curvature="0" /></g></g></svg>