<?xml version="1.0" encoding="UTF-8" standalone="no"?>
<svg
   xmlns:dc="http://purl.org/dc/elements/1.1/"
   xmlns:cc="http://creativecommons.org/ns#"
   xmlns:rdf="http://www.w3.org/1999/02/22-rdf-syntax-ns#"
   xmlns:svg="http://www.w3.org/2000/svg"
   xmlns="http://www.w3.org/2000/svg"
   xmlns:sodipodi="http://sodipodi.sourceforge.net/DTD/sodipodi-0.dtd"
   xmlns:inkscape="http://www.inkscape.org/namespaces/inkscape"
   width="698.33386"
   height="71.199318"
   viewBox="0 0 184.76749 18.838153"
   version="1.1"
   id="svg8"
   sodipodi:docname="mplayer.svg"
   inkscape:version="1.0.1 (1.0.1+r73)">
  <defs
     id="defs2">
    <rect
       x="2.0913119"
       y="8.7527943"
       width="127.69708"
       height="34.515415"
       id="rect12" />
    <rect
       x="2.0913119"
       y="8.7527943"
       width="127.69708"
       height="34.515415"
       id="rect12-5" />
    <rect
       x="2.0913119"
       y="8.7527943"
       width="127.69708"
       height="34.515415"
       id="rect25" />
  </defs>
  <sodipodi:namedview
     id="base"
     pagecolor="#8a8a8a"
     bordercolor="#666666"
     borderopacity="1.0"
     inkscape:pageopacity="0"
     inkscape:pageshadow="2"
     inkscape:zoom="0.92695504"
     inkscape:cx="105.73012"
     inkscape:cy="127.15158"
     inkscape:document-units="mm"
     inkscape:current-layer="layer1"
     inkscape:document-rotation="0"
     showgrid="false"
     units="px"
     inkscape:window-width="1366"
     inkscape:window-height="740"
     inkscape:window-x="0"
     inkscape:window-y="0"
     inkscape:window-maximized="1"
     showguides="true"
     inkscape:guide-bbox="true"
     inkscape:object-nodes="false"
     inkscape:snap-intersection-paths="false"
     inkscape:object-paths="false"
     inkscape:snap-smooth-nodes="false"
     inkscape:snap-midpoints="false"
     inkscape:snap-object-midpoints="false"
     inkscape:snap-center="false"
     inkscape:snap-others="false"
     inkscape:snap-nodes="false">
    <sodipodi:guide
       position="34.50372,43.809143"
       orientation="0,-1"
       id="guide415" />
    <sodipodi:guide
       position="-20.499081,43.809144"
       orientation="1,0"
       id="guide417" />
  </sodipodi:namedview>
  <metadata
     id="metadata5">
    <rdf:RDF>
      <cc:Work
         rdf:about="">
        <dc:format>image/svg+xml</dc:format>
        <dc:type
           rdf:resource="http://purl.org/dc/dcmitype/StillImage" />
        <dc:title />
      </cc:Work>
    </rdf:RDF>
  </metadata>
  <g
     inkscape:label="Layer 1"
     inkscape:groupmode="layer"
     id="layer1"
     transform="translate(-23.191527,-4.1623844)">
    <g
       aria-label="media player"
       transform="matrix(1.9616158,0,0,2.966644,19.15814,-47.404271)"
       id="text10"
       style="font-style:normal;font-weight:normal;font-size:16.9333px;line-height:125%;font-family:sans-serif;letter-spacing:0px;word-spacing:0px;white-space:pre;shape-inside:url(#rect12);fill:#ffffff;fill-opacity:1;stroke:none;stroke-width:0.264583px;stroke-linecap:butt;stroke-linejoin:miter;stroke-opacity:1">
      <path
         d="M 5.2667906,21.617292 V 20.558961 H 4.2084594 v 2.116663 H 2.0917969 v -5.291657 h 2.1166625 v 1.058332 h 1.0583312 v 1.058331 h 1.0583313 v -1.058331 h 1.0583312 v -1.058332 h 2.1166625 v 5.291657 H 7.3834531 V 20.558961 H 6.3251219 v 1.058331 z"
         style="font-style:normal;font-variant:normal;font-weight:normal;font-stretch:normal;font-size:16.9333px;font-family:'8-bit Arcade In';-inkscape-font-specification:'8-bit Arcade In';fill:#ffffff"
         id="path949" />
      <path
         d="m 13.733441,21.617292 h 4.233325 v 1.058332 h -7.408319 v -5.291657 h 7.408319 v 1.058332 h -4.233325 v 1.058331 h 3.174993 v 1.058331 h -3.174993 z"
         style="font-style:normal;font-variant:normal;font-weight:normal;font-stretch:normal;font-size:16.9333px;font-family:'8-bit Arcade In';-inkscape-font-specification:'8-bit Arcade In';fill:#ffffff"
         id="path951" />
      <path
         d="m 25.375084,22.675624 h -6.349987 v -5.291657 h 6.349987 v 1.058332 h 1.058332 v 3.174993 h -1.058332 z m -2.116662,-1.058332 v -3.174993 h -1.058331 v 3.174993 z"
         style="font-style:normal;font-variant:normal;font-weight:normal;font-stretch:normal;font-size:16.9333px;font-family:'8-bit Arcade In';-inkscape-font-specification:'8-bit Arcade In';fill:#ffffff"
         id="path953" />
      <path
         d="m 30.666741,22.675624 h -3.174994 v -5.291657 h 3.174994 z"
         style="font-style:normal;font-variant:normal;font-weight:normal;font-stretch:normal;font-size:16.9333px;font-family:'8-bit Arcade In';-inkscape-font-specification:'8-bit Arcade In';fill:#ffffff"
         id="path955" />
      <path
         d="m 39.13339,22.675624 h -3.174994 v -1.058332 h -1.058331 v 1.058332 h -3.174994 v -4.233325 h 1.058331 v -1.058332 h 5.291656 v 1.058332 h 1.058332 z m -3.174994,-2.116663 v -2.116662 h -1.058331 v 2.116662 z"
         style="font-style:normal;font-variant:normal;font-weight:normal;font-stretch:normal;font-size:16.9333px;font-family:'8-bit Arcade In';-inkscape-font-specification:'8-bit Arcade In';fill:#ffffff"
         id="path957" />
      <path
         d="m 48.658373,22.675624 h -3.174994 v -5.291657 h 6.349988 v 1.058332 h 1.058331 v 2.116662 h -1.058331 v 1.058331 h -3.174994 z m 1.058331,-2.116663 v -2.116662 h -1.058331 v 2.116662 z"
         style="font-style:normal;font-variant:normal;font-weight:normal;font-stretch:normal;font-size:16.9333px;font-family:'8-bit Arcade In';-inkscape-font-specification:'8-bit Arcade In';fill:#ffffff"
         id="path959" />
      <path
         d="m 57.125021,21.617292 h 4.233325 v 1.058332 h -7.408319 v -5.291657 h 3.174994 z"
         style="font-style:normal;font-variant:normal;font-weight:normal;font-stretch:normal;font-size:16.9333px;font-family:'8-bit Arcade In';-inkscape-font-specification:'8-bit Arcade In';fill:#ffffff"
         id="path961" />
      <path
         d="m 69.824998,22.675624 h -3.174994 v -1.058332 h -1.058331 v 1.058332 h -3.174994 v -4.233325 h 1.058332 v -1.058332 h 5.291656 v 1.058332 h 1.058331 z m -3.174994,-2.116663 v -2.116662 h -1.058331 v 2.116662 z"
         style="font-style:normal;font-variant:normal;font-weight:normal;font-stretch:normal;font-size:16.9333px;font-family:'8-bit Arcade In';-inkscape-font-specification:'8-bit Arcade In';fill:#ffffff"
         id="path963" />
      <path
         d="M 76.174988,22.675624 H 72.999994 V 20.558961 H 71.941663 V 19.50063 h -1.058332 v -2.116663 h 2.116663 v 1.058332 h 1.058331 v 1.058331 h 1.058331 v -1.058331 h 1.058332 v -1.058332 h 2.116662 v 2.116663 h -1.058331 v 1.058331 h -1.058331 z"
         style="font-style:normal;font-variant:normal;font-weight:normal;font-stretch:normal;font-size:16.9333px;font-family:'8-bit Arcade In';-inkscape-font-specification:'8-bit Arcade In';fill:#ffffff"
         id="path965" />
      <path
         d="m 82.524969,21.617292 h 4.233325 v 1.058332 h -7.408318 v -5.291657 h 7.408318 v 1.058332 h -4.233325 v 1.058331 h 3.174994 v 1.058331 h -3.174994 z"
         style="font-style:normal;font-variant:normal;font-weight:normal;font-stretch:normal;font-size:16.9333px;font-family:'8-bit Arcade In';-inkscape-font-specification:'8-bit Arcade In';fill:#ffffff"
         id="path967" />
      <path
         d="m 95.224946,22.675624 h -3.174993 v -1.058332 h -1.058332 v 1.058332 h -3.174993 v -5.291657 h 6.349987 v 1.058332 h 1.058331 v 2.116662 h -1.058331 v 1.058331 h 1.058331 z m -3.174993,-2.116663 v -2.116662 h -1.058332 v 2.116662 z"
         style="font-style:normal;font-variant:normal;font-weight:normal;font-stretch:normal;font-size:16.9333px;font-family:'8-bit Arcade In';-inkscape-font-specification:'8-bit Arcade In';fill:#ffffff"
         id="path969" />
    </g>
    <g
       aria-label="media player"
       transform="matrix(1.9616158,0,0,2.966644,19.088225,-47.409657)"
       id="text10-5"
       style="font-style:normal;font-weight:normal;font-size:16.9333px;line-height:125%;font-family:sans-serif;letter-spacing:0px;word-spacing:0px;white-space:pre;shape-inside:url(#rect12-5);fill:#808080;fill-opacity:1;stroke:none;stroke-width:0.264583px;stroke-linecap:butt;stroke-linejoin:miter;stroke-opacity:1">
      <path
         d="M 5.2667906,23.733955 H 2.0917969 v -1.058331 h 2.1166625 v -2.116663 h 1.0583312 v 1.058331 h 1.0583313 v -1.058331 h 1.0583312 v 2.116663 h 2.1166625 v -5.291657 h 1.0583314 v 6.349988 H 7.3834531 V 22.675624 H 5.2667906 Z m 0,-5.291656 H 4.2084594 v -1.058332 h 1.0583312 v 1.058332 H 6.3251219 V 19.50063 H 5.2667906 Z"
         style="font-style:normal;font-variant:normal;font-weight:normal;font-stretch:normal;font-size:16.9333px;font-family:'8-bit Arcade Out';-inkscape-font-specification:'8-bit Arcade Out';fill:#808080"
         id="path972" />
      <path
         d="m 17.966766,21.617292 h -4.233325 v -1.058331 h 3.174993 V 19.50063 h -3.174993 v -1.058331 h 4.233325 v -1.058332 h 1.058331 v 2.116663 h -1.058331 v 2.116662 h 1.058331 v 2.116663 h -8.46665 v -1.058331 h 7.408319 z"
         style="font-style:normal;font-variant:normal;font-weight:normal;font-stretch:normal;font-size:16.9333px;font-family:'8-bit Arcade Out';-inkscape-font-specification:'8-bit Arcade Out';fill:#808080"
         id="path974" />
      <path
         d="m 26.433416,18.442299 h -1.058332 v -1.058332 h 1.058332 v 1.058332 h 1.058331 v 4.233325 h -1.058331 v 1.058331 h -7.408319 v -1.058331 h 6.349987 v -1.058332 h 1.058332 z m -4.233325,3.174993 v -3.174993 h 1.058331 v 3.174993 z"
         style="font-style:normal;font-variant:normal;font-weight:normal;font-stretch:normal;font-size:16.9333px;font-family:'8-bit Arcade Out';-inkscape-font-specification:'8-bit Arcade Out';fill:#808080"
         id="path976" />
      <path
         d="m 31.725072,23.733955 h -4.233325 v -1.058331 h 3.174994 v -5.291657 h 1.058331 z"
         style="font-style:normal;font-variant:normal;font-weight:normal;font-stretch:normal;font-size:16.9333px;font-family:'8-bit Arcade Out';-inkscape-font-specification:'8-bit Arcade Out';fill:#808080"
         id="path978" />
      <path
         d="m 39.13339,18.442299 h -1.058332 v -1.058332 h 1.058332 v 1.058332 h 1.058331 v 5.291656 h -8.46665 v -1.058331 h 3.174994 v -1.058332 h 1.058331 v 1.058332 h 3.174994 z m -4.233325,2.116662 v -2.116662 h 1.058331 v 2.116662 z"
         style="font-style:normal;font-variant:normal;font-weight:normal;font-stretch:normal;font-size:16.9333px;font-family:'8-bit Arcade Out';-inkscape-font-specification:'8-bit Arcade Out';fill:#808080"
         id="path980" />
      <path
         d="m 52.891698,18.442299 h -1.058331 v -1.058332 h 1.058331 v 1.058332 h 1.058331 v 3.174993 h -1.058331 v 1.058332 h -3.174994 v 1.058331 h -4.233325 v -1.058331 h 3.174994 v -1.058332 h 3.174994 v -1.058331 h 1.058331 z m -4.233325,2.116662 v -2.116662 h 1.058331 v 2.116662 z"
         style="font-style:normal;font-variant:normal;font-weight:normal;font-stretch:normal;font-size:16.9333px;font-family:'8-bit Arcade Out';-inkscape-font-specification:'8-bit Arcade Out';fill:#808080"
         id="path982" />
      <path
         d="m 62.416677,23.733955 h -8.46665 v -1.058331 h 7.408319 v -1.058332 h 1.058331 z m -5.291656,-2.116663 v -4.233325 h 1.058331 v 4.233325 z"
         style="font-style:normal;font-variant:normal;font-weight:normal;font-stretch:normal;font-size:16.9333px;font-family:'8-bit Arcade Out';-inkscape-font-specification:'8-bit Arcade Out';fill:#808080"
         id="path984" />
      <path
         d="m 69.824998,18.442299 h -1.058331 v -1.058332 h 1.058331 v 1.058332 h 1.058331 v 5.291656 h -8.46665 v -1.058331 h 3.174994 v -1.058332 h 1.058331 v 1.058332 h 3.174994 z m -4.233325,2.116662 v -2.116662 h 1.058331 v 2.116662 z"
         style="font-style:normal;font-variant:normal;font-weight:normal;font-stretch:normal;font-size:16.9333px;font-family:'8-bit Arcade Out';-inkscape-font-specification:'8-bit Arcade Out';fill:#808080"
         id="path986" />
      <path
         d="m 77.233319,23.733955 h -4.233325 v -1.058331 h 3.174994 v -2.116663 h 1.058331 V 19.50063 h 1.058331 v -2.116663 h 1.058331 v 3.174994 H 78.29165 v 1.058331 H 77.233319 Z M 71.941663,20.558961 H 70.883331 V 19.50063 h 1.058332 v 1.058331 h 1.058331 v 1.058331 h -1.058331 z m 2.116662,-2.116662 h -1.058331 v -1.058332 h 1.058331 v 1.058332 h 1.058331 v 1.058331 h -1.058331 z"
         style="font-style:normal;font-variant:normal;font-weight:normal;font-stretch:normal;font-size:16.9333px;font-family:'8-bit Arcade Out';-inkscape-font-specification:'8-bit Arcade Out';fill:#808080"
         id="path988" />
      <path
         d="m 86.758294,21.617292 h -4.233325 v -1.058331 h 3.174994 V 19.50063 h -3.174994 v -1.058331 h 4.233325 v -1.058332 h 1.058332 v 2.116663 h -1.058332 v 2.116662 h 1.058332 v 2.116663 h -8.46665 v -1.058331 h 7.408318 z"
         style="font-style:normal;font-variant:normal;font-weight:normal;font-stretch:normal;font-size:16.9333px;font-family:'8-bit Arcade Out';-inkscape-font-specification:'8-bit Arcade Out';fill:#808080"
         id="path990" />
      <path
         d="m 95.224946,18.442299 h -1.058331 v -1.058332 h 1.058331 v 1.058332 h 1.058332 v 5.291656 h -8.46665 v -1.058331 h 3.174993 v -1.058332 h 1.058332 v 1.058332 h 3.174993 v -1.058332 h -1.058331 v -1.058331 h 1.058331 z m -4.233325,2.116662 v -2.116662 h 1.058332 v 2.116662 z"
         style="font-style:normal;font-variant:normal;font-weight:normal;font-stretch:normal;font-size:16.9333px;font-family:'8-bit Arcade Out';-inkscape-font-specification:'8-bit Arcade Out';fill:#808080"
         id="path992" />
    </g>
  </g>
</svg>
