<?xml version="1.0" encoding="UTF-8" standalone="no"?>
<svg
   xmlns:dc="http://purl.org/dc/elements/1.1/"
   xmlns:cc="http://creativecommons.org/ns#"
   xmlns:rdf="http://www.w3.org/1999/02/22-rdf-syntax-ns#"
   xmlns:svg="http://www.w3.org/2000/svg"
   xmlns="http://www.w3.org/2000/svg"
   xmlns:sodipodi="http://sodipodi.sourceforge.net/DTD/sodipodi-0.dtd"
   xmlns:inkscape="http://www.inkscape.org/namespaces/inkscape"
   width="382.32043"
   height="154.83786"
   viewBox="0 0 382.32043 154.83786"
   version="1.1"
   id="svg18"
   sodipodi:docname="msx1.svg"
   style="fill:none"
   inkscape:version="1.0.1 (1.0.1+r73)">
  <metadata
     id="metadata24">
    <rdf:RDF>
      <cc:Work
         rdf:about="">
        <dc:format>image/svg+xml</dc:format>
        <dc:type
           rdf:resource="http://purl.org/dc/dcmitype/StillImage" />
        <dc:title />
      </cc:Work>
    </rdf:RDF>
  </metadata>
  <defs
     id="defs22" />
  <sodipodi:namedview
     pagecolor="#ffffff"
     bordercolor="#666666"
     borderopacity="1"
     objecttolerance="10"
     gridtolerance="10"
     guidetolerance="10"
     inkscape:pageopacity="0"
     inkscape:pageshadow="2"
     inkscape:window-width="1366"
     inkscape:window-height="740"
     id="namedview20"
     showgrid="false"
     inkscape:pagecheckerboard="true"
     inkscape:zoom="1.5900884"
     inkscape:cx="156.42322"
     inkscape:cy="33.409162"
     inkscape:window-x="0"
     inkscape:window-y="0"
     inkscape:window-maximized="1"
     inkscape:current-layer="svg18"
     inkscape:document-rotation="0" />
  <path
     d="M 0.71685529,0.71685529 H 381.60358 V 154.12101 H 0.71685529 Z"
     id="path14"
     inkscape:connector-curvature="0"
     style="stroke:#ffffff;stroke-width:1.43371" />
  <path
     d="m 352.07344,21.796701 -36.346,53.087433 39.53314,57.998606 H 318.754 l -21.72358,-31.05015 -21.89993,31.12356 h -36.26857 c 0.98496,-2.04376 39.69944,-58.074886 39.69944,-58.074886 l -16.50201,-22.957859 -69.99948,0.07914 c -3.26313,0.258068 -7.26891,-0.732913 -8.90478,2.949719 -0.57205,1.21966 -0.81721,3.01695 -0.16057,4.24851 0.56488,1.38683 1.87959,2.69151 3.34484,3.09911 l 2.20505,0.16717 h 28.01901 c 12.98225,0.32545 24.99531,8.40613 30.62549,20.087288 4.98644,9.80472 4.25095,23.198298 -1.30611,32.516268 -7.01802,11.83671 -19.52141,18.45716 -33.07571,17.97056 h -77.92761 c 0,0 -11.92747,-43.054038 -12.00962,-43.127308 l -12.00962,43.127308 -28.420159,0.006 L 71.00509,89.749562 58.502847,132.95615 H 27.05971 c 0,0 28.912924,-104.057994 30.792232,-110.924894 h 26.555479 l 12.49636,46.396598 12.742679,-46.396598 26.05697,-0.0057 22.29864,80.798184 h 51.94907 c 3.58571,-0.17305 8.57359,0.80632 10.04601,-3.597608 0.57062,-1.97035 0.0846,-4.00808 -1.30467,-5.39491 -1.31185,-1.14654 -2.94485,-1.46611 -4.6567,-1.46611 l -27.93585,-0.006 c -13.23601,-0.40746 -26.38314,-9.06578 -31.28499,-21.802578 -5.31047,-12.74841 -2.20505,-28.024302 7.51407,-37.893535 6.86174,-6.878657 15.02672,-10.309096 24.59101,-10.713689 l 91.64421,-0.07914 18.46619,26.622858 19.1042,-26.70501 z"
     id="path16"
     inkscape:connector-curvature="0"
     style="fill:#ffffff;stroke-width:1.43371" />
</svg>
