<?xml version="1.0" encoding="UTF-8" standalone="no"?>
<!-- Created with Inkscape (http://www.inkscape.org/) -->

<svg
   xmlns:dc="http://purl.org/dc/elements/1.1/"
   xmlns:cc="http://creativecommons.org/ns#"
   xmlns:rdf="http://www.w3.org/1999/02/22-rdf-syntax-ns#"
   xmlns:svg="http://www.w3.org/2000/svg"
   xmlns="http://www.w3.org/2000/svg"
   xmlns:sodipodi="http://sodipodi.sourceforge.net/DTD/sodipodi-0.dtd"
   xmlns:inkscape="http://www.inkscape.org/namespaces/inkscape"
   width="400.07129"
   height="147.61385"
   viewBox="0 0 105.85219 39.056164"
   version="1.1"
   id="svg8"
   inkscape:version="0.92.5 (2060ec1f9f, 2020-04-08)"
   sodipodi:docname="msx2.svg">
  <defs
     id="defs2">
    <clipPath
       clipPathUnits="userSpaceOnUse"
       id="clipPath16">
      <path
         inkscape:connector-curvature="0"
         d="M 0,618.062 H 1949.984 V 0 H 0 Z"
         id="path18" />
    </clipPath>
    <clipPath
       id="clp2"
       style="clip-rule:nonzero">
      <path
         id="path5264"
         d="M 234.2,0.1382 H 5879.3 V 7919 H 234.2 Z"
         inkscape:connector-curvature="0" />
    </clipPath>
    <clipPath
       id="clp3"
       style="clip-rule:nonzero">
      <path
         id="path5273"
         d="M 234.06,0 H 5879.3 V 7919 H 234.06 Z"
         inkscape:connector-curvature="0" />
    </clipPath>
    <clipPath
       id="clp4"
       style="clip-rule:nonzero">
      <path
         id="path5282"
         d="M 437.5,278.39 H 1028 V 456.94 H 437.5 Z"
         inkscape:connector-curvature="0" />
    </clipPath>
    <clipPath
       id="clp5"
       style="clip-rule:nonzero">
      <path
         id="path5291"
         d="M 234.06,0 H 5879.3 V 7919 H 234.06 Z"
         inkscape:connector-curvature="0" />
    </clipPath>
    <clipPath
       id="clp6"
       style="clip-rule:nonzero">
      <path
         id="path5330"
         d="M 437.5,278.39 H 1028 V 456.94 H 437.5 Z"
         inkscape:connector-curvature="0" />
    </clipPath>
    <clipPath
       id="clp7"
       style="clip-rule:nonzero">
      <path
         id="path5341"
         d="M 234.06,0 H 5879.3 V 7919 H 234.06 Z"
         inkscape:connector-curvature="0" />
    </clipPath>
    <clipPath
       id="clp8"
       style="clip-rule:nonzero">
      <path
         id="path5418"
         d="m 4026.3,282.71 h 699.8 v 170.38 h -699.8 z"
         inkscape:connector-curvature="0" />
    </clipPath>
    <clipPath
       id="clp9"
       style="clip-rule:nonzero">
      <path
         id="path5427"
         d="M 234.06,0 H 5879.3 V 7919 H 234.06 Z"
         inkscape:connector-curvature="0" />
    </clipPath>
    <clipPath
       id="clp10"
       style="clip-rule:nonzero">
      <path
         id="path5476"
         d="M 2444.9,428.65 V 306.69 h 506 v 121.96"
         inkscape:connector-curvature="0" />
    </clipPath>
    <clipPath
       id="clp11"
       style="clip-rule:nonzero">
      <path
         id="path5485"
         d="M 234.06,0 H 5879.3 V 7919 H 234.06 Z"
         inkscape:connector-curvature="0" />
    </clipPath>
    <clipPath
       id="clp12"
       style="clip-rule:nonzero">
      <path
         id="path5496"
         d="M 2444.9,428.65 V 306.69 h 506 v 121.96"
         inkscape:connector-curvature="0" />
    </clipPath>
    <clipPath
       id="clp13"
       style="clip-rule:nonzero">
      <path
         id="path5505"
         d="M 234.06,0 H 5879.3 V 7919 H 234.06 Z"
         inkscape:connector-curvature="0" />
    </clipPath>
    <clipPath
       id="clp14"
       style="clip-rule:nonzero">
      <path
         id="path5514"
         d="M 2444.9,428.65 V 306.69 h 506 v 121.96"
         inkscape:connector-curvature="0" />
    </clipPath>
    <clipPath
       id="clp15"
       style="clip-rule:nonzero">
      <path
         id="path5523"
         d="M 234.06,0 H 5879.3 V 7919 H 234.06 Z"
         inkscape:connector-curvature="0" />
    </clipPath>
    <clipPath
       id="clipPath5767"
       style="clip-rule:nonzero">
      <path
         id="path5769"
         d="M 234.2,0.1382 H 5879.3 V 7919 H 234.2 Z"
         inkscape:connector-curvature="0" />
    </clipPath>
    <clipPath
       id="clipPath5775"
       style="clip-rule:nonzero">
      <path
         id="path5777"
         d="M 234.06,0 H 5879.3 V 7919 H 234.06 Z"
         inkscape:connector-curvature="0" />
    </clipPath>
    <clipPath
       id="clipPath5783"
       style="clip-rule:nonzero">
      <path
         id="path5785"
         d="M 437.5,278.39 H 1028 V 456.94 H 437.5 Z"
         inkscape:connector-curvature="0" />
    </clipPath>
    <clipPath
       id="clipPath5791"
       style="clip-rule:nonzero">
      <path
         id="path5793"
         d="M 234.06,0 H 5879.3 V 7919 H 234.06 Z"
         inkscape:connector-curvature="0" />
    </clipPath>
    <clipPath
       id="clipPath5814"
       style="clip-rule:nonzero">
      <path
         id="path5816"
         d="M 437.5,278.39 H 1028 V 456.94 H 437.5 Z"
         inkscape:connector-curvature="0" />
    </clipPath>
    <clipPath
       id="clipPath5823"
       style="clip-rule:nonzero">
      <path
         id="path5825"
         d="M 234.06,0 H 5879.3 V 7919 H 234.06 Z"
         inkscape:connector-curvature="0" />
    </clipPath>
    <clipPath
       id="clipPath5865"
       style="clip-rule:nonzero">
      <path
         id="path5867"
         d="m 4026.3,282.71 h 699.8 v 170.38 h -699.8 z"
         inkscape:connector-curvature="0" />
    </clipPath>
    <clipPath
       id="clipPath5873"
       style="clip-rule:nonzero">
      <path
         id="path5875"
         d="M 234.06,0 H 5879.3 V 7919 H 234.06 Z"
         inkscape:connector-curvature="0" />
    </clipPath>
    <clipPath
       id="clipPath5901"
       style="clip-rule:nonzero">
      <path
         id="path5903"
         d="M 2444.9,428.65 V 306.69 h 506 v 121.96"
         inkscape:connector-curvature="0" />
    </clipPath>
    <clipPath
       id="clipPath5909"
       style="clip-rule:nonzero">
      <path
         id="path5911"
         d="M 234.06,0 H 5879.3 V 7919 H 234.06 Z"
         inkscape:connector-curvature="0" />
    </clipPath>
    <clipPath
       id="clipPath5918"
       style="clip-rule:nonzero">
      <path
         id="path5920"
         d="M 2444.9,428.65 V 306.69 h 506 v 121.96"
         inkscape:connector-curvature="0" />
    </clipPath>
    <clipPath
       id="clipPath5926"
       style="clip-rule:nonzero">
      <path
         id="path5928"
         d="M 234.06,0 H 5879.3 V 7919 H 234.06 Z"
         inkscape:connector-curvature="0" />
    </clipPath>
    <clipPath
       id="clipPath5934"
       style="clip-rule:nonzero">
      <path
         id="path5936"
         d="M 2444.9,428.65 V 306.69 h 506 v 121.96"
         inkscape:connector-curvature="0" />
    </clipPath>
    <clipPath
       id="clipPath5942"
       style="clip-rule:nonzero">
      <path
         id="path5944"
         d="M 234.06,0 H 5879.3 V 7919 H 234.06 Z"
         inkscape:connector-curvature="0" />
    </clipPath>
    <clipPath
       id="clipPath14221"
       style="clip-rule:nonzero">
      <path
         d="M 234.06,0 H 5879.3 V 7919 H 234.06 Z"
         id="path14223"
         inkscape:connector-curvature="0" />
    </clipPath>
    <clipPath
       id="clipPath14217"
       style="clip-rule:nonzero">
      <path
         d="M 2444.9,428.65 V 306.69 h 506 v 121.96"
         id="path14219"
         inkscape:connector-curvature="0" />
    </clipPath>
    <clipPath
       id="clipPath14213"
       style="clip-rule:nonzero">
      <path
         d="M 234.06,0 H 5879.3 V 7919 H 234.06 Z"
         id="path14215"
         inkscape:connector-curvature="0" />
    </clipPath>
    <clipPath
       id="clipPath14209"
       style="clip-rule:nonzero">
      <path
         d="M 2444.9,428.65 V 306.69 h 506 v 121.96"
         id="path14211"
         inkscape:connector-curvature="0" />
    </clipPath>
    <clipPath
       id="clipPath14205"
       style="clip-rule:nonzero">
      <path
         d="M 234.06,0 H 5879.3 V 7919 H 234.06 Z"
         id="path14207"
         inkscape:connector-curvature="0" />
    </clipPath>
    <clipPath
       id="clipPath14201"
       style="clip-rule:nonzero">
      <path
         d="M 2444.9,428.65 V 306.69 h 506 v 121.96"
         id="path14203"
         inkscape:connector-curvature="0" />
    </clipPath>
    <clipPath
       id="clipPath14197"
       style="clip-rule:nonzero">
      <path
         d="M 234.06,0 H 5879.3 V 7919 H 234.06 Z"
         id="path14199"
         inkscape:connector-curvature="0" />
    </clipPath>
    <clipPath
       id="clipPath14193"
       style="clip-rule:nonzero">
      <path
         d="m 4026.3,282.71 h 699.8 v 170.38 h -699.8 z"
         id="path14195"
         inkscape:connector-curvature="0" />
    </clipPath>
    <clipPath
       id="clipPath14189"
       style="clip-rule:nonzero">
      <path
         d="M 234.06,0 H 5879.3 V 7919 H 234.06 Z"
         id="path14191"
         inkscape:connector-curvature="0" />
    </clipPath>
    <clipPath
       id="clipPath14185"
       style="clip-rule:nonzero">
      <path
         d="M 437.5,278.39 H 1028 V 456.94 H 437.5 Z"
         id="path14187"
         inkscape:connector-curvature="0" />
    </clipPath>
    <clipPath
       id="clipPath14181"
       style="clip-rule:nonzero">
      <path
         d="M 234.06,0 H 5879.3 V 7919 H 234.06 Z"
         id="path14183"
         inkscape:connector-curvature="0" />
    </clipPath>
    <clipPath
       id="clipPath14177"
       style="clip-rule:nonzero">
      <path
         d="M 437.5,278.39 H 1028 V 456.94 H 437.5 Z"
         id="path14179"
         inkscape:connector-curvature="0" />
    </clipPath>
    <clipPath
       id="clipPath14173"
       style="clip-rule:nonzero">
      <path
         d="M 234.06,0 H 5879.3 V 7919 H 234.06 Z"
         id="path14175"
         inkscape:connector-curvature="0" />
    </clipPath>
    <clipPath
       id="clipPath14169"
       style="clip-rule:nonzero">
      <path
         d="M 234.2,0.1382 H 5879.3 V 7919 H 234.2 Z"
         id="path14171"
         inkscape:connector-curvature="0" />
    </clipPath>
    <clipPath
       id="clipPath14165"
       style="clip-rule:nonzero">
      <path
         d="M 234.06,0 H 5879.3 V 7919 H 234.06 Z"
         id="path14167"
         inkscape:connector-curvature="0" />
    </clipPath>
    <clipPath
       id="clipPath14161"
       style="clip-rule:nonzero">
      <path
         d="M 2444.9,428.65 V 306.69 h 506 v 121.96"
         id="path14163"
         inkscape:connector-curvature="0" />
    </clipPath>
    <clipPath
       id="clipPath14157"
       style="clip-rule:nonzero">
      <path
         d="M 234.06,0 H 5879.3 V 7919 H 234.06 Z"
         id="path14159"
         inkscape:connector-curvature="0" />
    </clipPath>
    <clipPath
       id="clipPath14153"
       style="clip-rule:nonzero">
      <path
         d="M 2444.9,428.65 V 306.69 h 506 v 121.96"
         id="path14155"
         inkscape:connector-curvature="0" />
    </clipPath>
    <clipPath
       id="clipPath14149"
       style="clip-rule:nonzero">
      <path
         d="M 234.06,0 H 5879.3 V 7919 H 234.06 Z"
         id="path14151"
         inkscape:connector-curvature="0" />
    </clipPath>
    <clipPath
       id="clipPath14145"
       style="clip-rule:nonzero">
      <path
         d="M 2444.9,428.65 V 306.69 h 506 v 121.96"
         id="path14147"
         inkscape:connector-curvature="0" />
    </clipPath>
    <clipPath
       id="clipPath14141"
       style="clip-rule:nonzero">
      <path
         d="M 234.06,0 H 5879.3 V 7919 H 234.06 Z"
         id="path14143"
         inkscape:connector-curvature="0" />
    </clipPath>
    <clipPath
       id="clipPath14137"
       style="clip-rule:nonzero">
      <path
         d="m 4026.3,282.71 h 699.8 v 170.38 h -699.8 z"
         id="path14139"
         inkscape:connector-curvature="0" />
    </clipPath>
    <clipPath
       id="clipPath14133"
       style="clip-rule:nonzero">
      <path
         d="M 234.06,0 H 5879.3 V 7919 H 234.06 Z"
         id="path14135"
         inkscape:connector-curvature="0" />
    </clipPath>
    <clipPath
       id="clipPath14129"
       style="clip-rule:nonzero">
      <path
         d="M 437.5,278.39 H 1028 V 456.94 H 437.5 Z"
         id="path14131"
         inkscape:connector-curvature="0" />
    </clipPath>
    <clipPath
       id="clipPath14125"
       style="clip-rule:nonzero">
      <path
         d="M 234.06,0 H 5879.3 V 7919 H 234.06 Z"
         id="path14127"
         inkscape:connector-curvature="0" />
    </clipPath>
    <clipPath
       id="clipPath14121"
       style="clip-rule:nonzero">
      <path
         d="M 437.5,278.39 H 1028 V 456.94 H 437.5 Z"
         id="path14123"
         inkscape:connector-curvature="0" />
    </clipPath>
    <clipPath
       id="clipPath14117"
       style="clip-rule:nonzero">
      <path
         d="M 234.06,0 H 5879.3 V 7919 H 234.06 Z"
         id="path14119"
         inkscape:connector-curvature="0" />
    </clipPath>
    <clipPath
       id="clipPath14113"
       style="clip-rule:nonzero">
      <path
         d="M 234.2,0.1382 H 5879.3 V 7919 H 234.2 Z"
         id="path14115"
         inkscape:connector-curvature="0" />
    </clipPath>
    <inkscape:perspective
       id="perspective10"
       inkscape:persp3d-origin="372.04724 : 350.78739 : 1"
       inkscape:vp_z="744.09448 : 526.18109 : 1"
       inkscape:vp_y="0 : 999.99999 : 0"
       inkscape:vp_x="0 : 526.18109 : 1"
       sodipodi:type="inkscape:persp3d" />
    <inkscape:perspective
       sodipodi:type="inkscape:persp3d"
       inkscape:vp_x="0 : 0.5 : 1"
       inkscape:vp_y="0 : 999.99999 : 0"
       inkscape:vp_z="1 : 0.5 : 1"
       inkscape:persp3d-origin="0.5 : 0.33333333 : 1"
       id="perspective2824" />
  </defs>
  <sodipodi:namedview
     id="base"
     pagecolor="#ffffff"
     bordercolor="#666666"
     borderopacity="1.0"
     inkscape:pageopacity="0.0"
     inkscape:pageshadow="2"
     inkscape:zoom="0.83740238"
     inkscape:cx="416.70955"
     inkscape:cy="99.529662"
     inkscape:document-units="mm"
     inkscape:current-layer="layer1"
     showgrid="false"
     units="px"
     inkscape:pagecheckerboard="true"
     inkscape:window-width="1366"
     inkscape:window-height="740"
     inkscape:window-x="0"
     inkscape:window-y="0"
     inkscape:window-maximized="1" />
  <metadata
     id="metadata5">
    <rdf:RDF>
      <cc:Work
         rdf:about="">
        <dc:format>image/svg+xml</dc:format>
        <dc:type
           rdf:resource="http://purl.org/dc/dcmitype/StillImage" />
        <dc:title />
      </cc:Work>
    </rdf:RDF>
  </metadata>
  <g
     inkscape:label="Layer 1"
     inkscape:groupmode="layer"
     id="layer1"
     transform="translate(-15.170914,-246.68246)">
    <g
       transform="matrix(0.24296547,0,0,0.24296547,14.458828,215.9325)"
       id="layer1-2"
       inkscape:label="Ebene 1"
       style="fill:#ffffff">
      <g
         id="g822"
         style="fill:#ffffff">
        <g
           transform="matrix(1.1560505,0,0,1.1852466,-10.077123,-18.269052)"
           id="layer1-1"
           inkscape:label="Ebene 1"
           style="fill:#ffffff">
          <g
             inkscape:label="Ebene 1"
             id="layer1-3"
             transform="matrix(0.69263838,0,0,0.88042971,-12.011993,-643.0944)"
             style="fill:#ffffff">
            <path
               style="fill:#ffffff;fill-opacity:1;stroke:none;stroke-width:0;stroke-linecap:butt;stroke-linejoin:miter;stroke-miterlimit:4;stroke-dasharray:none;stroke-opacity:1"
               d="M 33.587572,181.94796 72.478445,28.859344 h 36.062445 l 18.73833,66.82159 19.44544,-66.82159 h 33.94112 l 31.81981,112.783536 77.6353,-0.14645 c 8.14964,-0.0794 8.64953,-16.93207 -0.60356,-16.92767 l -45.21194,-0.60355 C 224.89048,124.15304 204.41758,103.14886 205.41452,75.174838 205.62167,49.515734 227.99624,29.30949 256.6191,29.31645 l 115.31907,-0.103553 29.34493,39.951533 28.63782,-40.305086 47.72971,0.353553 -52.3259,73.539103 56.56854,79.73886 -47.47971,-0.14645 -32.92335,-45.75484 -31.31981,45.75484 -48.43681,-0.0429 55.15432,-78.84241 -24.04163,-35.001787 -100.24495,0.146447 c -10.94025,0.100271 -10.5391,17.311276 0.0858,16.98833 l 42.23707,0.646446 c 17.85089,0.115598 42.99112,18.665604 42.36574,47.626154 0.27297,33.66878 -30.05167,49.04998 -44.65128,48.22971 L 182.08,182.24086 163.69522,113.3586 145.31044,182.09441 h -34.89823 l -19.195435,-68.38225 -16.86701,68.4858 z"
               id="path2830"
               transform="translate(0,840.36218)"
               sodipodi:nodetypes="cccccccccccccccccccccccccccccccccccc"
               inkscape:connector-curvature="0" />
          </g>
          <path
             inkscape:connector-curvature="0"
             d="m 354.5933,164.67003 c -2.64193,-0.002 -5.27838,0.18004 -7.25324,0.5491 -13.31667,2.48864 -22.10258,10.28445 -24.19348,21.46666 -0.26166,1.39953 -0.41644,3.65433 -0.43593,6.34077 l -0.0306,4.16874 12.08374,0.002 12.08372,0.002 0.15399,-2.88042 c 0.19512,-3.65757 0.52469,-5.11328 1.55605,-6.87061 1.32377,-2.25554 3.06533,-3.15057 6.15524,-3.16301 3.28637,-0.0133 5.48193,1.36343 6.44109,4.03901 1.00248,2.7965 0.53719,7.3187 -1.09993,10.68741 -0.96707,1.98987 -2.2411,3.45032 -4.15289,4.76024 -0.9659,0.66185 -3.45366,2.54617 -5.52893,4.18736 -2.0753,1.64119 -5.51128,4.31085 -7.63525,5.93231 -6.53862,4.99156 -9.03047,7.75391 -12.92445,14.32952 -4.05521,6.84794 -6.0277,12.99863 -6.75883,21.07361 -0.28015,3.09441 -0.32928,8.0607 -0.0818,8.2938 0.0919,0.0866 14.24674,0.13043 31.45517,0.0977 l 31.28818,-0.059 0.0644,-11.32323 0.065,-11.32322 -16.82915,-0.0604 -16.82915,-0.0604 1.1662,-1.5253 c 2.63235,-3.44432 7.11406,-7.073 14.92228,-12.08169 11.67307,-7.48791 15.83627,-11.929 18.048,-19.25225 3.49473,-11.57122 1.49843,-20.99565 -5.94346,-28.05789 -4.52684,-4.2959 -10.8833,-7.28868 -18.49952,-8.71061 -1.99717,-0.37286 -4.64446,-0.56071 -7.28637,-0.56324 z"
             style="fill:#ffffff;fill-opacity:1;stroke:#ffffff;stroke-width:0.24182232;stroke-opacity:1"
             id="path1170" />
        </g>
      </g>
    </g>
  </g>
</svg>
