<?xml version="1.0" encoding="UTF-8" standalone="no"?>
<svg
   xmlns:dc="http://purl.org/dc/elements/1.1/"
   xmlns:cc="http://creativecommons.org/ns#"
   xmlns:rdf="http://www.w3.org/1999/02/22-rdf-syntax-ns#"
   xmlns:svg="http://www.w3.org/2000/svg"
   xmlns="http://www.w3.org/2000/svg"
   xmlns:sodipodi="http://sodipodi.sourceforge.net/DTD/sodipodi-0.dtd"
   xmlns:inkscape="http://www.inkscape.org/namespaces/inkscape"
   width="468.93817"
   height="126.52438"
   viewBox="0 0 468.93817 126.52438"
   version="1.1"
   id="svg50"
   sodipodi:docname="msx2+.svg"
   style="fill:none"
   inkscape:version="1.0.1 (1.0.1+r73)">
  <metadata
     id="metadata56">
    <rdf:RDF>
      <cc:Work
         rdf:about="">
        <dc:format>image/svg+xml</dc:format>
        <dc:type
           rdf:resource="http://purl.org/dc/dcmitype/StillImage" />
        <dc:title />
      </cc:Work>
    </rdf:RDF>
  </metadata>
  <defs
     id="defs54" />
  <sodipodi:namedview
     pagecolor="#ffffff"
     bordercolor="#666666"
     borderopacity="1"
     objecttolerance="10"
     gridtolerance="10"
     guidetolerance="10"
     inkscape:pageopacity="0"
     inkscape:pageshadow="2"
     inkscape:window-width="1366"
     inkscape:window-height="740"
     id="namedview52"
     showgrid="false"
     inkscape:pagecheckerboard="true"
     inkscape:zoom="1.3878577"
     inkscape:cx="188.07386"
     inkscape:cy="10.733475"
     inkscape:window-x="0"
     inkscape:window-y="0"
     inkscape:window-maximized="1"
     inkscape:current-layer="svg50"
     inkscape:document-rotation="0" />
  <path
     d="M 0.58576101,0.58576101 H 311.81714 V 125.93628 H 0.58576101 Z"
     id="path40"
     inkscape:connector-curvature="0"
     style="stroke:#ffffff;stroke-width:1.17152" />
  <path
     d="m 287.68848,17.810649 -29.69926,43.379116 32.30355,47.392165 H 260.4623 l -17.7509,-25.371885 -17.895,25.431875 h -29.63716 c 0.80601,-1.67001 32.44062,-47.454505 32.44062,-47.454505 l -13.48422,-18.759456 -57.19839,0.06467 c -2.66639,0.210874 -5.93962,-0.598882 -7.27633,2.410285 -0.46744,0.996613 -0.66777,2.465233 -0.13121,3.471571 0.46158,1.133213 1.53587,2.199298 2.73316,2.532362 l 1.8018,0.136599 h 22.89506 c 10.60813,0.265936 20.42431,6.868869 25.02371,16.413839 4.07572,8.01169 3.47473,18.95593 -1.06609,26.56989 -5.7346,9.672085 -15.95144,15.081825 -27.02701,14.684215 h -63.67667 c 0,0 -9.74637,-35.180585 -9.81338,-35.240445 l -9.813367,35.240445 -23.222966,0.005 L 58.020249,73.337005 47.804342,108.64224 H 22.111341 c 0,0 23.625382,-85.028486 25.16113,-90.639608 h 21.699166 l 10.211103,37.911854 10.412253,-37.911854 21.291947,-0.0047 18.2208,66.022293 h 42.44893 c 2.92998,-0.1414 7.0057,0.65886 8.20885,-2.9397 0.46627,-1.61002 0.0691,-3.27511 -1.06725,-4.40832 -1.07077,-0.93687 -2.40514,-1.198 -3.80394,-1.198 l -22.82827,-0.005 c -10.81432,-0.33295 -21.55718,-7.40789 -25.56261,-17.81546 -4.33932,-10.417056 -1.80181,-22.899385 6.13994,-30.963791 5.60691,-5.620728 12.27873,-8.423829 20.09395,-8.754433 l 74.88486,-0.06467 15.0892,21.754227 15.61053,-21.821355 z"
     id="path42"
     inkscape:connector-curvature="0"
     style="fill:#ffffff;stroke-width:1.17152" />
  <path
     d="m 317.23895,126.52204 c 0.61739,-5.69243 1.03914,-11.41379 1.89669,-17.07037 1.48315,-9.784675 7.27398,-17.056075 14.36638,-23.464885 5.17461,-4.67672 10.49098,-9.20008 15.51798,-14.03003 3.43022,-3.29667 4.15187,-8.11478 2.27978,-11.55039 -1.45152,-2.66416 -3.83088,-3.82619 -6.68822,-3.21278 -2.80579,0.60134 -4.29363,2.41497 -4.43538,5.22768 -0.11247,2.27603 -0.0234,4.56402 -0.0234,7.06053 -7.62661,0 -15.11146,0 -22.5928,0 -2.52815,-14.209742 8.244,-29.231696 22.79079,-31.91495 5.18515,-0.955962 10.28362,-0.706779 15.32233,0.697173 15.45472,4.307687 22.83648,18.601307 18.175,35.065527 -1.83578,6.48308 -5.40775,11.61259 -10.96662,15.59214 -5.73109,4.10407 -11.11423,8.6921 -16.62156,13.107695 -1.23478,1.00856 -1.37536,1.34397 -1.88849,2.58988 10.29065,0 19.49998,0 29.68988,0 0,7.4606 0,14.68152 0,21.90512 -18.93999,-0.002 -37.88116,-0.002 -56.82233,-0.002 z"
     id="path44"
     inkscape:connector-curvature="0"
     style="fill:#ffffff;stroke-width:1.17152" />
  <path
     d="m 317.15929,126.52204 c 0.61739,-5.69243 1.03914,-11.41379 1.89786,-17.07037 1.48198,-9.784675 7.27281,-17.056075 14.3652,-23.464885 5.17462,-4.67672 10.49098,-9.20008 15.51798,-14.03003 3.43022,-3.29667 4.15188,-8.11478 2.28096,-11.55039 -1.45269,-2.66416 -3.83088,-3.82619 -6.68939,-3.21278 -2.8058,0.60134 -4.29363,2.41497 -4.43538,5.22768 -0.11247,2.27603 -0.0234,4.56402 -0.0234,7.06053 -7.6266,0 -15.11029,0 -22.5928,0 -2.52814,-14.209742 8.244,-29.231696 22.79196,-31.91495 5.18399,-0.955962 10.28245,-0.706779 15.32117,0.697173 15.45589,4.307687 22.83648,18.601307 18.17499,35.065527 -1.83577,6.48308 -5.40774,11.61259 -10.96662,15.59214 -5.72991,4.10407 -11.11423,8.6921 -16.62155,13.107695 -1.23361,1.00856 -1.37537,1.34397 -1.88849,2.58988 10.29065,0 19.49998,0 29.68988,0 0,7.4606 0,14.68152 0,21.90512 -18.94,-0.002 -37.88117,-0.002 -56.82233,-0.002 z"
     id="path46"
     inkscape:connector-curvature="0"
     style="fill:#ffffff;stroke-width:1.17152" />
  <path
     d="M 419.76353,73.506095 V 36.994908 h 15.81672 v 36.511187 h 33.35792 v 16.50662 H 435.58025 V 126.52438 H 419.76353 V 90.012715 h -33.35909 v -16.50662 z"
     id="path48"
     inkscape:connector-curvature="0"
     style="fill:#ffffff;stroke-width:1.17152" />
</svg>
