<?xml version="1.0" encoding="UTF-8" standalone="no"?>
<svg
   xmlns:dc="http://purl.org/dc/elements/1.1/"
   xmlns:cc="http://creativecommons.org/ns#"
   xmlns:rdf="http://www.w3.org/1999/02/22-rdf-syntax-ns#"
   xmlns:svg="http://www.w3.org/2000/svg"
   xmlns="http://www.w3.org/2000/svg"
   xmlns:sodipodi="http://sodipodi.sourceforge.net/DTD/sodipodi-0.dtd"
   xmlns:inkscape="http://www.inkscape.org/namespaces/inkscape"
   width="495.00662"
   height="135.90007"
   viewBox="0 0 495.00662 135.90007"
   version="1.1"
   id="svg71"
   sodipodi:docname="n64.svg"
   inkscape:version="1.0.1 (1.0.1+r73)">
  <metadata
     id="metadata77">
    <rdf:RDF>
      <cc:Work
         rdf:about="">
        <dc:format>image/svg+xml</dc:format>
        <dc:type
           rdf:resource="http://purl.org/dc/dcmitype/StillImage" />
        <dc:title>syslogo</dc:title>
      </cc:Work>
    </rdf:RDF>
  </metadata>
  <defs
     id="defs75" />
  <sodipodi:namedview
     pagecolor="#ffffff"
     bordercolor="#666666"
     borderopacity="1"
     objecttolerance="10"
     gridtolerance="10"
     guidetolerance="10"
     inkscape:pageopacity="0"
     inkscape:pageshadow="2"
     inkscape:window-width="1366"
     inkscape:window-height="740"
     id="namedview73"
     showgrid="false"
     inkscape:pagecheckerboard="true"
     inkscape:zoom="1.1404323"
     inkscape:cx="241.54607"
     inkscape:cy="25.957956"
     inkscape:window-x="0"
     inkscape:window-y="0"
     inkscape:window-maximized="1"
     inkscape:current-layer="svg71"
     inkscape:document-rotation="0" />
  <title
     id="title58">syslogo</title>
  <path
     d="m 52.345711,42.711051 15.695981,-6.01173 17.410061,6.668301 -2.42774,-0.931505 14.506542,-16.346921 -0.0042,-0.0013 19.279805,-7.416522 19.27833,7.416522 -19.27833,7.434754 V 85.040966 L 88.455679,44.52029 l -0.0032,-0.0011 -20.410172,7.819123 V 135.90007 L 47.630257,127.26492 19.278094,72.221596 V 115.34572 L 0,107.24915 V 26.087891 l 19.278081,-7.416522 19.27882,7.416522 -19.27882,7.434756 28.352163,53.416539 V 44.518106 L 38.556901,26.087891 49.046151,7.314049 68.041692,0 87.036251,7.33548 68.041692,14.701259 Z"
     id="Combined-Shape"
     inkscape:connector-curvature="0"
     style="fill:#ffffff;fill-rule:nonzero;stroke:none;stroke-width:1.05899" />
  <polygon
     id="Path"
     points="110.29936,108.92091 83.528068,73.982461 83.528068,93.071115 88.994862,100.74003 "
     style="fill:#ffffff;fill-rule:nonzero;stroke:none;stroke-width:1"
     transform="scale(1.0589867)" />
  <path
     d="m 358.53948,53.8462 h 17.53923 c 14.9764,0 19.70645,8.473776 19.70645,20.149846 0,11.9224 -7.34066,19.31232 -18.81966,19.31232 H 358.53996 V 53.8462 Z m 14.48423,30.495726 h 1.42873 c 2.41403,0 3.99104,-0.73899 4.9266,-2.3155 0.98533,-1.62579 1.08385,-4.63053 1.08385,-8.47378 0,-3.79299 -0.0985,-6.79873 -1.08385,-8.4245 -0.93556,-1.57652 -2.51257,-2.31551 -4.9266,-2.31551 h -1.42873 z m 45.9653,-31.530313 c 12.90772,0 19.31232,8.473773 19.31232,20.741033 0,12.31653 -6.4046,20.79031 -19.31232,20.79031 -12.85846,0 -19.31233,-8.47378 -19.31233,-20.79031 0,-12.26726 6.45436,-20.741033 19.31233,-20.741033 z m 0,31.530313 c 2.31551,0 3.99056,-1.13311 3.99056,-10.78928 0,-9.40983 -1.57603,-10.74001 -3.99056,-10.74001 -2.36478,0 -3.99056,1.33018 -3.99056,10.74001 5e-4,9.65617 1.7248,10.78928 3.99056,10.78928 z m 26.25884,0.64047 c -2.6111,0 -4.68028,2.06917 -4.68028,4.68027 0,2.56184 2.06918,4.68029 4.68028,4.68029 2.56184,0 4.68028,-2.11845 4.68028,-4.68029 0,-2.6111 -2.11844,-4.68027 -4.68028,-4.68027 z m 0,8.52303 c -2.16721,0 -3.89153,-1.72431 -3.89153,-3.84276 0,-2.11843 1.72432,-3.84275 3.89153,-3.84275 2.11844,0 3.84276,1.72432 3.84276,3.84275 0,2.11845 -1.72432,3.84276 -3.84276,3.84276 z"
     id="path63"
     inkscape:connector-curvature="0"
     style="fill:#ffffff;fill-rule:nonzero;stroke:none;stroke-width:1.05899" />
  <path
     d="m 442.19335,93.505426 h -1.08386 v -5.12367 h 2.16771 c 0.88678,0 1.82236,0.29609 1.82236,1.33018 0,0.64046 -0.44291,1.08386 -1.08337,1.23165 0.83704,0.0985 0.83704,0.64047 0.93556,1.33019 0.0498,0.34487 0.0985,0.93606 0.2961,1.23165 h -1.23166 c -0.0986,-0.44339 -0.14829,-0.93605 -0.19706,-1.37945 0,-0.29609 -0.0985,-0.68972 -0.4434,-0.68972 h -1.18238 z m 0,-2.90669 h 0.93605 c 0.49266,0 0.78875,-0.24634 0.78875,-0.739 0,-0.4429 -0.29609,-0.64046 -0.78875,-0.64046 h -0.93605 z m -292.36244,3.98415 h 17.75256 V 55.134025 H 155.5719 v 22.621031 h -0.10251 l -7.92048,-22.621031 h -17.75207 v 39.448861 h 12.00469 v -22.7713 h 0.10789 z m 66.97583,0 h 17.75354 V 55.134025 h -12.00567 v 22.621031 h -0.10789 L 214.5267,55.134025 h -17.75206 v 39.448861 h 12.00959 v -22.7713 h 0.10442 z m 115.32756,0 h 17.756 V 55.134025 h -12.00861 v 22.621031 h -0.1074 l -7.91904,-22.621031 h -17.75354 v 39.448861 h 12.00615 v -22.7713 h 0.10642 z M 174.83643,55.134025 h 14.80694 v 39.448861 h -14.80694 z m 73.4282,10.716361 h -9.40982 V 55.134025 h 33.65467 v 10.716361 h -9.44235 v 28.7325 h -14.8025 z m 28.61721,-10.726707 h 29.28527 v 10.433077 h -14.71087 v 4.12604 h 13.54474 v 10.11335 h -13.54474 v 4.42705 h 15.1789 v 10.34836 h -29.7533 z"
     id="path65"
     inkscape:connector-curvature="0"
     style="fill:#ffffff;fill-rule:nonzero;stroke:none;stroke-width:1.05899" />
  <path
     d="m 464.8065,48.623998 c -0.78825,-0.09849 -1.57651,-0.04924 -2.6111,0 -6.2568,0.295595 -8.76937,2.955971 -9.65665,5.961195 h 0.14828 c 1.57603,-1.379447 3.4979,-2.019911 6.05974,-2.019911 4.97588,0 9.4591,3.596435 9.4591,10.395144 0,6.45437 -4.92662,11.4795 -11.6273,11.4795 -8.76938,0 -12.61213,-6.70068 -12.61213,-13.893046 0,-5.862661 2.06917,-10.789268 5.46854,-13.99157 3.25205,-3.005235 7.43968,-4.532484 12.56287,-4.630525 1.33018,-0.09849 2.1677,0 2.80816,0.04924 v 6.649949 h 4.9e-4 z m -8.32597,19.460118 c 2.02041,0 3.25206,-2.06918 3.25206,-4.72956 0,-2.216973 -1.03509,-4.631007 -3.74473,-4.631007 -1.67455,0 -2.95596,1.034587 -3.44862,2.315506 -0.19658,0.394134 -0.24633,0.935561 -0.24633,1.872111 0.14829,2.51257 1.37995,5.17295 4.13835,5.17295 z m 27.24466,5.8134 v -7.04506 h -13.15405 v -5.665609 l 10.54245,-18.819649 h 10.54295 v 17.982128 h 3.3501 v 6.50313 h -3.3501 v 7.04506 z m 0,-13.54819 v -5.419263 c 0,-2.019912 0.0981,-4.089097 0.19657,-6.306065 h -0.1478 c -0.98532,2.167703 -1.82284,4.187615 -2.95596,6.355329 l -2.56185,5.271471 -0.0492,0.09849 z"
     id="path67"
     inkscape:connector-curvature="0"
     style="fill:#ffffff;fill-rule:nonzero;stroke:none;stroke-width:1.05899" />
</svg>
