<?xml version="1.0" encoding="UTF-8" standalone="no"?>
<svg
   xmlns:dc="http://purl.org/dc/elements/1.1/"
   xmlns:cc="http://creativecommons.org/ns#"
   xmlns:rdf="http://www.w3.org/1999/02/22-rdf-syntax-ns#"
   xmlns:svg="http://www.w3.org/2000/svg"
   xmlns="http://www.w3.org/2000/svg"
   xmlns:sodipodi="http://sodipodi.sourceforge.net/DTD/sodipodi-0.dtd"
   xmlns:inkscape="http://www.inkscape.org/namespaces/inkscape"
   width="500"
   height="200"
   viewBox="0 0 500 200"
   version="1.1"
   id="svg16"
   sodipodi:docname="namco.svg"
   style="fill:none"
   inkscape:version="0.92.5 (2060ec1f9f, 2020-04-08)">
  <metadata
     id="metadata22">
    <rdf:RDF>
      <cc:Work
         rdf:about="">
        <dc:format>image/svg+xml</dc:format>
        <dc:type
           rdf:resource="http://purl.org/dc/dcmitype/StillImage" />
        <dc:title></dc:title>
      </cc:Work>
    </rdf:RDF>
  </metadata>
  <defs
     id="defs20" />
  <sodipodi:namedview
     pagecolor="#ffffff"
     bordercolor="#666666"
     borderopacity="1"
     objecttolerance="10"
     gridtolerance="10"
     guidetolerance="10"
     inkscape:pageopacity="0"
     inkscape:pageshadow="2"
     inkscape:window-width="1366"
     inkscape:window-height="740"
     id="namedview18"
     showgrid="false"
     inkscape:pagecheckerboard="true"
     inkscape:zoom="1.361451"
     inkscape:cx="214.5"
     inkscape:cy="44"
     inkscape:window-x="0"
     inkscape:window-y="0"
     inkscape:window-maximized="1"
     inkscape:current-layer="svg16" />
  <path
     d="m 22.873633,162.98393 c -1.364128,0.62371 -2.767865,0.93557 -4.211223,0.93557 -1.390556,0 -2.688692,-0.24942 -3.894428,-0.74848 -1.205736,-0.49895 -2.248654,-1.17613 -3.128741,-2.03143 -0.880099,-0.85542 -1.570972,-1.87114 -2.0726329,-3.04738 -0.5016553,-1.17613 -0.7524829,-2.44137 -0.7524829,-3.79563 0,-1.35436 0.2552279,-2.62403 0.7656848,-3.80913 0.51046,-1.1851 1.205727,-2.20524 2.085826,-3.06066 0.880098,-0.85542 1.923016,-1.53249 3.128752,-2.03155 1.205725,-0.49894 2.495073,-0.74836 3.868022,-0.74836 1.478562,0 2.913167,0.31628 4.303633,0.94885 1.390579,0.63268 2.517097,1.48356 3.379667,2.55274 l -2.587483,2.59294 c -0.651299,-0.81978 -1.417031,-1.44791 -2.297084,-1.88454 -0.880167,-0.43662 -1.813021,-0.65493 -2.798733,-0.65493 -0.827286,0 -1.606176,0.15599 -2.336659,0.46784 -0.730483,0.31186 -1.359746,0.73951 -1.887812,1.28307 -0.528054,0.54345 -0.941697,1.18499 -1.240929,1.92461 -0.299232,0.73951 -0.448848,1.54588 -0.448848,2.41912 0,0.85531 0.15401,1.65283 0.462051,2.39234 0.30803,0.7395 0.730483,1.37661 1.267336,1.91121 0.536864,0.53459 1.170532,0.95781 1.901014,1.26967 0.730472,0.31186 1.526958,0.46784 2.38946,0.46784 0.968104,0 1.874598,-0.20491 2.719458,-0.61486 0.844973,-0.40982 1.592996,-0.99789 2.244294,-1.76419 l 2.508243,2.51267 c -0.880054,1.05136 -2.002144,1.88896 -3.366385,2.51267 z m 49.677139,0.21388 c -1.196904,0.49895 -2.481905,0.74848 -3.854887,0.74848 -1.355273,0 -2.631418,-0.24953 -3.828322,-0.74848 -1.197018,-0.49894 -2.231126,-1.18067 -3.102438,-2.04494 -0.871311,-0.86427 -1.562117,-1.88896 -2.072643,-3.07394 -0.510413,-1.1851 -0.765619,-2.44592 -0.765619,-3.78235 0,-1.33654 0.255206,-2.59736 0.765619,-3.78245 0.510526,-1.18499 1.201332,-2.20967 2.072643,-3.07395 0.871312,-0.86427 1.90542,-1.54588 3.102438,-2.04494 1.196904,-0.49894 2.473049,-0.74836 3.828322,-0.74836 1.372982,0 2.657983,0.24942 3.854887,0.74836 1.196904,0.49906 2.231012,1.18067 3.102323,2.04494 0.871312,0.86428 1.562117,1.88896 2.072644,3.07395 0.510412,1.18509 0.765619,2.44591 0.765619,3.78245 0,1.33643 -0.255207,2.59725 -0.765619,3.78235 -0.510527,1.18498 -1.201332,2.20967 -2.072644,3.07394 -0.871311,0.86427 -1.905419,1.546 -3.102323,2.04494 z m -3.854887,-2.8067 c -0.827264,0 -1.59731,-0.15598 -2.310253,-0.46784 -0.71283,-0.31185 -1.328935,-0.73951 -1.848203,-1.28307 -0.519268,-0.54345 -0.928415,-1.18952 -1.22767,-1.93789 -0.299254,-0.74847 -0.448881,-1.55042 -0.448881,-2.40573 0,-0.87324 0.149627,-1.67961 0.448881,-2.41912 0.299255,-0.73962 0.708402,-1.38116 1.22767,-1.92461 0.519268,-0.54356 1.135373,-0.97121 1.848203,-1.28307 0.712943,-0.31185 1.482989,-0.46784 2.310253,-0.46784 0.827377,0 1.601851,0.15599 2.323535,0.46784 0.721685,0.31186 1.342104,0.73951 1.861372,1.28307 0.519267,0.54345 0.928528,1.18499 1.227783,1.92461 0.299141,0.73951 0.448768,1.54588 0.448768,2.41912 0,0.85531 -0.149627,1.65726 -0.448768,2.40573 -0.299255,0.74837 -0.708516,1.39444 -1.227783,1.93789 -0.519268,0.54356 -1.139687,0.97122 -1.861372,1.28307 -0.721684,0.31186 -1.496158,0.46784 -2.323535,0.46784 z m 58.033105,-0.16041 v 3.42156 H 112.7888 v -18.71135 h 3.82844 v 15.28979 z m 48.26556,3.42156 v -3.42156 h -10.11289 v -15.28979 h -3.8281 v 18.71135 z m 48.63338,-3.36809 v 3.36809 h -14.30994 v -18.71135 h 14.20436 v 3.36798 h -10.37627 v 4.27686 h 6.8388 v 3.26114 h -6.8388 v 4.43728 z m 42.45644,3.63533 c 1.44291,0 2.84723,-0.31186 4.21067,-0.93557 1.36459,-0.62371 2.48622,-1.46131 3.36718,-2.51267 l -2.50892,-2.51267 c -0.65164,0.7663 -1.39864,1.35437 -2.24441,1.76419 -0.84463,0.40995 -1.75057,0.61486 -2.71894,0.61486 -0.8628,0 -1.65975,-0.15598 -2.38973,-0.46784 -0.72997,-0.31186 -1.36458,-0.73508 -1.90042,-1.26967 -0.53698,-0.5346 -0.96043,-1.17171 -1.26808,-1.91121 -0.30766,-0.73951 -0.46205,-1.53703 -0.46205,-2.39234 0,-0.87324 0.14985,-1.67961 0.44956,-2.41912 0.29857,-0.73962 0.71181,-1.38116 1.24084,-1.92461 0.52789,-0.54356 1.15683,-0.97121 1.88793,-1.28307 0.72997,-0.31185 1.50876,-0.46784 2.33637,-0.46784 0.9854,0 1.91859,0.21831 2.79841,0.65493 0.87983,0.43663 1.64613,1.06476 2.29663,1.88454 l 2.58839,-2.59294 c -0.86279,-1.06918 -1.98897,-1.92006 -3.37966,-2.55274 -1.3907,-0.63257 -2.82567,-0.94885 -4.30377,-0.94885 -1.37367,0 -2.66219,0.24942 -3.86783,0.74836 -1.20565,0.49906 -2.24895,1.17613 -3.12878,2.03155 -0.88096,0.85542 -1.57574,1.87556 -2.0866,3.06066 -0.50974,1.1851 -0.76517,2.45477 -0.76517,3.80913 0,1.35426 0.25089,2.6195 0.75268,3.79563 0.50178,1.17624 1.19202,2.19196 2.07185,3.04738 0.88096,0.8553 1.92313,1.53248 3.12877,2.03143 1.20565,0.49906 2.50438,0.74848 3.89508,0.74848 z m 50.64052,-15.55714 v 15.2899 h -3.8281 v -15.2899 h -6.23144 v -3.42145 h 16.26373 v 3.42145 z m 43.85507,-3.42145 h -3.82809 v 18.71135 h 3.82809 z m 47.94769,18.2569 c -1.19657,0.49895 -2.48168,0.74848 -3.85421,0.74848 -1.3555,0 -2.63153,-0.24953 -3.82923,-0.74848 -1.19656,-0.49894 -2.23078,-1.18067 -3.10153,-2.04494 -0.87188,-0.86427 -1.56212,-1.88896 -2.07298,-3.07394 -0.51087,-1.1851 -0.7663,-2.44592 -0.7663,-3.78235 0,-1.33654 0.25543,-2.59736 0.7663,-3.78245 0.51086,-1.18499 1.2011,-2.20967 2.07298,-3.07395 0.87075,-0.86427 1.90497,-1.54588 3.10153,-2.04494 1.1977,-0.49894 2.47373,-0.74836 3.82923,-0.74836 1.37253,0 2.65764,0.24942 3.85421,0.74836 1.19656,0.49906 2.23078,1.18067 3.10266,2.04494 0.87074,0.86428 1.56212,1.88896 2.07298,3.07395 0.50974,1.18509 0.76517,2.44591 0.76517,3.78245 0,1.33643 -0.25543,2.59725 -0.76517,3.78235 -0.51086,1.18498 -1.20224,2.20967 -2.07298,3.07394 -0.87188,0.86427 -1.9061,1.546 -3.10266,2.04494 z m -3.85421,-2.8067 c -0.8276,0 -1.59731,-0.15598 -2.31025,-0.46784 -0.71295,-0.31185 -1.32939,-0.73951 -1.84821,-1.28307 -0.51994,-0.54345 -0.92864,-1.18952 -1.22835,-1.93789 -0.29857,-0.74847 -0.44842,-1.55042 -0.44842,-2.40573 0,-0.87324 0.14985,-1.67961 0.44842,-2.41912 0.29971,-0.73962 0.70841,-1.38116 1.22835,-1.92461 0.51882,-0.54356 1.13526,-0.97121 1.84821,-1.28307 0.71294,-0.31185 1.48265,-0.46784 2.31025,-0.46784 0.82647,0 1.60185,0.15599 2.32274,0.46784 0.72203,0.31186 1.34188,0.73951 1.86183,1.28307 0.51881,0.54345 0.92864,1.18499 1.22721,1.92461 0.29971,0.73951 0.44957,1.54588 0.44957,2.41912 0,0.85531 -0.14986,1.65726 -0.44957,2.40573 -0.29857,0.74837 -0.7084,1.39444 -1.22721,1.93789 -0.51995,0.54356 -1.1398,0.97122 -1.86183,1.28307 -0.72089,0.31186 -1.49627,0.46784 -2.32274,0.46784 z m 47.70928,-9.24873 v 12.50988 h -3.61694 v -18.71135 h 3.64419 l 9.18765,12.10891 v -12.10891 h 3.59083 v 18.71135 h -3.37967 z"
     id="path2"
     inkscape:connector-curvature="0"
     style="clip-rule:evenodd;fill:#ffffff;fill-rule:evenodd;stroke-width:1.13525951" />
  <path
     d="m 404.02975,64.114634 c -9.03667,0 -16.5782,7.540564 -16.5782,16.5774 V 109.6508 c 0,9.03678 7.54153,16.5774 16.5782,16.5774 h 52.48304 c 9.03667,0 16.57706,-7.54062 16.57706,-16.5774 V 80.692034 c 0,-9.036836 -7.54039,-16.5774 -16.57706,-16.5774 z m 3.75544,17.609124 h 44.58277 v 26.895202 h -44.58277 z"
     id="path4"
     inkscape:connector-curvature="0"
     style="fill:#ffffff;stroke-width:1.13525951" />
  <path
     d="M 8.8141252,65.352169 V 126.29632 H 29.147077 V 82.961304 H 67.533606 V 126.29632 H 87.477391 V 81.92958 c 0,-9.036847 -7.540621,-16.577411 -16.5774,-16.577411 z"
     id="path6"
     inkscape:connector-curvature="0"
     style="fill:#ffffff;stroke-width:1.13525951" />
  <path
     d="m 101.23412,65.352169 v 16.027037 h 55.23527 v 4.333513 h -43.12897 c -9.03678,0 -16.577401,7.609418 -16.577401,16.646201 v 7.36 c 0,9.03678 7.540621,16.5774 16.577401,16.5774 h 43.12897 9.01055 10.93709 V 81.92958 c 0,-9.036847 -7.54039,-16.577411 -16.57706,-16.577411 z m 16.30222,36.593971 h 38.93305 v 8.66702 h -38.93305 z"
     id="path8"
     inkscape:connector-curvature="0"
     style="fill:#ffffff;stroke-width:1.13525951" />
  <path
     d="m 188.93667,65.352169 v 60.944151 h 20.36088 V 82.961304 h 20.91035 v 43.335016 h 20.36088 V 82.961304 h 21.32357 V 126.29632 H 291.84 V 81.92958 c 0,-9.036847 -7.54039,-16.577411 -16.57706,-16.577411 z"
     id="path10"
     inkscape:connector-curvature="0"
     style="fill:#ffffff;stroke-width:1.13525951" />
  <path
     d="m 320.2476,64.114634 c -9.03667,0 -16.57706,7.540564 -16.57706,16.5774 V 109.6508 c 0,9.03678 7.54039,16.5774 16.57706,16.5774 H 375.965 V 108.61896 H 324.39243 V 81.723758 H 375.965 V 64.114634 Z"
     id="path12"
     inkscape:connector-curvature="0"
     style="fill:#ffffff;stroke-width:1.13525951" />
  <path
     d="m 486.12831,64.677825 c 2.65764,2.3e-5 4.93951,0.95229 6.84902,2.856756 1.90837,1.904522 2.86312,4.193796 2.86312,6.867831 0,2.674047 -0.95021,4.965455 -2.85063,6.87428 -1.90043,1.908826 -4.18684,2.863238 -6.86151,2.863238 -2.68262,0 -4.97811,-0.952255 -6.88648,-2.856767 -1.90951,-1.904511 -2.86313,-4.198076 -2.86313,-6.880751 0,-2.682641 0.95589,-4.974048 2.8688,-6.87428 1.91405,-1.900174 4.20727,-2.850284 6.88081,-2.850307 z m -0.025,17.862752 c 2.22625,0 4.13802,-0.797406 5.73193,-2.392446 1.59504,-1.594926 2.39313,-3.510222 2.39313,-5.745719 0,-2.235519 -0.79582,-4.146467 -2.38632,-5.732856 -1.5905,-1.586366 -3.50341,-2.379549 -5.73874,-2.37956 -2.23646,1.1e-5 -4.1471,0.793194 -5.73306,2.37956 -1.58709,1.586389 -2.3795,3.497337 -2.3795,5.732856 0,2.235497 0.79241,4.150793 2.3795,5.745719 1.58596,1.59504 3.4966,2.392446 5.73306,2.392446 z m 4.38438,-2.747101 h -1.93449 l -0.81284,-2.28278 c -0.4893,-1.367079 -1.4134,-2.050699 -2.77231,-2.050699 h -1.32825 v 4.333479 h -1.68927 V 69.333751 h 3.93368 c 2.76776,2.3e-5 4.15278,0.958738 4.15278,2.876101 0,1.848633 -0.90707,2.841724 -2.72122,2.979295 0.92864,0.283758 1.61547,0.945842 2.06277,1.986193 z m -6.84789,-5.790879 h 2.11499 c 1.65975,0 2.48962,-0.545969 2.48962,-1.637953 0,-1.074784 -0.85598,-1.61217 -2.56682,-1.61217 h -2.03779 z"
     id="path14"
     inkscape:connector-curvature="0"
     style="fill:#ffffff;stroke-width:1.13525951" />
</svg>
