<?xml version="1.0" encoding="UTF-8" standalone="no"?>
<svg
   xmlns:dc="http://purl.org/dc/elements/1.1/"
   xmlns:cc="http://creativecommons.org/ns#"
   xmlns:rdf="http://www.w3.org/1999/02/22-rdf-syntax-ns#"
   xmlns:svg="http://www.w3.org/2000/svg"
   xmlns="http://www.w3.org/2000/svg"
   xmlns:sodipodi="http://sodipodi.sourceforge.net/DTD/sodipodi-0.dtd"
   xmlns:inkscape="http://www.inkscape.org/namespaces/inkscape"
   width="495.10593"
   height="93.487831"
   viewBox="0 0 495.10593 93.487829"
   version="1.1"
   id="svg103"
   sodipodi:docname="namco.svg"
   style="fill:none"
   inkscape:version="0.92.5 (2060ec1f9f, 2020-04-08)">
  <metadata
     id="metadata109">
    <rdf:RDF>
      <cc:Work
         rdf:about="">
        <dc:format>image/svg+xml</dc:format>
        <dc:type
           rdf:resource="http://purl.org/dc/dcmitype/StillImage" />
        <dc:title />
      </cc:Work>
    </rdf:RDF>
  </metadata>
  <defs
     id="defs107" />
  <sodipodi:namedview
     pagecolor="#ffffff"
     bordercolor="#666666"
     borderopacity="1"
     objecttolerance="10"
     gridtolerance="10"
     guidetolerance="10"
     inkscape:pageopacity="0"
     inkscape:pageshadow="2"
     inkscape:window-width="1366"
     inkscape:window-height="743"
     id="namedview105"
     showgrid="false"
     inkscape:pagecheckerboard="true"
     inkscape:zoom="3.4117033"
     inkscape:cx="230.14342"
     inkscape:cy="52.682368"
     inkscape:window-x="0"
     inkscape:window-y="0"
     inkscape:window-maximized="1"
     inkscape:current-layer="svg103" />
  <path
     d="m 14.292751,92.509509 c -1.386759,0.63405 -2.813783,0.95108 -4.281086,0.95108 -1.4136249,0 -2.7332961,-0.25355 -3.9590353,-0.76089 C 4.8268905,92.192479 3.7666713,91.504059 2.8719838,90.634569 1.9772846,89.764959 1.2749497,88.732389 0.7649663,87.536629 0.2549888,86.340989 0,85.054759 0,83.678039 c 0,-1.37683 0.259462,-2.66757 0.7783873,-3.87233 0.5189288,-1.20476 1.22573,-2.24183 2.1204291,-3.11143 0.8946992,-0.86961 1.9549183,-1.55792 3.1806575,-2.06525 1.2257277,-0.50723 2.5364662,-0.76078 3.9321911,-0.76078 1.503091,0 2.961496,0.32153 4.375029,0.96459 1.413648,0.64317 2.558855,1.50817 3.435735,2.59509 l -2.630409,2.63595 c -0.662103,-0.83337 -1.440539,-1.47193 -2.335192,-1.91579 -0.894768,-0.44387 -1.843098,-0.6658 -2.845163,-0.6658 -0.8410109,0 -1.6328222,0.15857 -2.3754234,0.4756 -0.7426012,0.31703 -1.3823034,0.75178 -1.9191298,1.30436 -0.5368149,0.55246 -0.9573203,1.20464 -1.2615161,1.95653 -0.3041959,0.75178 -0.4562938,1.57153 -0.4562938,2.45926 0,0.86949 0.1565643,1.68024 0.4697159,2.43202 0.3131401,0.75178 0.7426012,1.39945 1.2883603,1.94291 0.5457706,0.54347 1.1899507,0.97371 1.9325519,1.29074 0.7425897,0.31703 1.5522901,0.4756 2.429101,0.4756 0.984164,0 1.905696,-0.20831 2.764572,-0.62505 0.858991,-0.41663 1.619423,-1.01445 2.281527,-1.79346 l 2.549853,2.55435 c -0.894653,1.06881 -2.035359,1.9203 -3.422232,2.55436 z m 50.501267,0.21743 c -1.21676,0.50722 -2.523078,0.76089 -3.918839,0.76089 -1.377756,0 -2.675072,-0.25367 -3.891832,-0.76089 -1.216876,-0.50723 -2.268139,-1.20026 -3.153906,-2.07887 -0.885766,-0.87861 -1.588032,-1.9203 -2.107028,-3.12494 -0.51888,-1.20476 -0.77832,-2.48649 -0.77832,-3.84509 0,-1.35872 0.25944,-2.64045 0.77832,-3.84521 0.518996,-1.20464 1.221262,-2.24633 2.107028,-3.12494 0.885767,-0.87861 1.93703,-1.57153 3.153906,-2.07886 1.21676,-0.50723 2.514076,-0.76078 3.891832,-0.76078 1.395761,0 2.702079,0.25355 3.918839,0.76078 1.21676,0.50733 2.268024,1.20025 3.15379,2.07886 0.885767,0.87861 1.588032,1.9203 2.107028,3.12494 0.51888,1.20476 0.77832,2.48649 0.77832,3.84521 0,1.3586 -0.25944,2.64033 -0.77832,3.84509 -0.518996,1.20464 -1.221261,2.24633 -2.107028,3.12494 -0.885766,0.87861 -1.93703,1.57164 -3.15379,2.07887 z m -3.918839,-2.85327 c -0.840987,0 -1.623809,-0.15857 -2.348579,-0.4756 -0.724655,-0.31703 -1.350981,-0.75178 -1.878864,-1.30436 -0.527882,-0.55246 -0.943817,-1.20925 -1.248036,-1.97003 -0.304219,-0.7609 -0.456328,-1.57615 -0.456328,-2.44564 0,-0.88773 0.152109,-1.70748 0.456328,-2.45926 0.304219,-0.75189 0.720154,-1.40407 1.248036,-1.95653 0.527883,-0.55258 1.154209,-0.98733 1.878864,-1.30436 0.72477,-0.31703 1.507592,-0.4756 2.348579,-0.4756 0.841104,0 1.628426,0.15857 2.362083,0.4756 0.733657,0.31703 1.364369,0.75178 1.892251,1.30436 0.527882,0.55246 0.943933,1.20464 1.248152,1.95653 0.304103,0.75178 0.456213,1.57153 0.456213,2.45926 0,0.86949 -0.15211,1.68474 -0.456213,2.44564 -0.304219,0.76078 -0.72027,1.41757 -1.248152,1.97003 -0.527882,0.55258 -1.158594,0.98733 -1.892251,1.30436 -0.733657,0.31703 -1.520979,0.4756 -2.362083,0.4756 z m 58.995851,-0.16307 v 3.47832 h -14.17145 v -19.02176 h 3.89195 v 15.54344 z m 49.06627,3.47832 v -3.47832 h -10.28066 v -15.54344 h -3.8916 v 19.02176 z m 49.4402,-3.42396 v 3.42396 h -14.54735 v -19.02176 h 14.44002 v 3.42385 h -10.54842 v 4.34781 h 6.95226 v 3.31525 h -6.95226 v 4.51089 z m 43.16077,3.69563 c 1.46685,0 2.89447,-0.31703 4.28053,-0.95108 1.38722,-0.63406 2.52746,-1.48555 3.42304,-2.55436 l -2.55054,-2.55435 c -0.66245,0.77901 -1.42185,1.37683 -2.28165,1.79346 -0.85864,0.41674 -1.77961,0.62505 -2.76405,0.62505 -0.87711,0 -1.68728,-0.15857 -2.42937,-0.4756 -0.74208,-0.31703 -1.38722,-0.74727 -1.93195,-1.29074 -0.54588,-0.54346 -0.97636,-1.19113 -1.28912,-1.94291 -0.31276,-0.75178 -0.46972,-1.56253 -0.46972,-2.43202 0,-0.88773 0.15234,-1.70748 0.45703,-2.45926 0.30352,-0.75189 0.72361,-1.40407 1.26142,-1.95653 0.53665,-0.55258 1.17602,-0.98733 1.91926,-1.30436 0.74208,-0.31703 1.53379,-0.4756 2.37512,-0.4756 1.00175,0 1.95042,0.22193 2.84484,0.6658 0.89442,0.44386 1.67343,1.08242 2.33473,1.91579 l 2.63133,-2.63595 c -0.87711,-1.08692 -2.02197,-1.95192 -3.43573,-2.59509 -1.41377,-0.64306 -2.87254,-0.96459 -4.37517,-0.96459 -1.39645,0 -2.70635,0.25355 -3.932,0.76078 -1.22564,0.50733 -2.28625,1.19564 -3.18068,2.06525 -0.89557,0.8696 -1.60188,1.90667 -2.12122,3.11143 -0.51819,1.20476 -0.77786,2.4955 -0.77786,3.87233 0,1.37672 0.25506,2.66295 0.76517,3.85859 0.5101,1.19576 1.21179,2.22833 2.10622,3.09794 0.89557,0.86949 1.95503,1.55791 3.18068,2.06513 1.22564,0.50734 2.54593,0.76089 3.95969,0.76089 z m 51.48063,-15.81523 v 15.54356 h -3.8916 v -15.54356 h -6.33482 v -3.4782 h 16.53354 v 3.4782 z m 44.58262,-3.4782 h -3.89161 v 19.02176 h 3.89161 z m 48.74312,18.55978 c -1.21642,0.50722 -2.52285,0.76089 -3.91815,0.76089 -1.37798,0 -2.67519,-0.25367 -3.89275,-0.76089 -1.21642,-0.50723 -2.2678,-1.20026 -3.15299,-2.07887 -0.88634,-0.87861 -1.58803,-1.9203 -2.10737,-3.12494 -0.51934,-1.20476 -0.77901,-2.48649 -0.77901,-3.84509 0,-1.35872 0.25967,-2.64045 0.77901,-3.84521 0.51934,-1.20464 1.22103,-2.24633 2.10737,-3.12494 0.88519,-0.87861 1.93657,-1.57153 3.15299,-2.07886 1.21756,-0.50723 2.51477,-0.76078 3.89275,-0.76078 1.3953,0 2.70173,0.25355 3.91815,0.76078 1.21641,0.50733 2.26779,1.20025 3.15414,2.07886 0.88518,0.87861 1.58803,1.9203 2.10737,3.12494 0.51819,1.20476 0.77786,2.48649 0.77786,3.84521 0,1.3586 -0.25967,2.64033 -0.77786,3.84509 -0.51934,1.20464 -1.22219,2.24633 -2.10737,3.12494 -0.88635,0.87861 -1.93773,1.57164 -3.15414,2.07887 z m -3.91815,-2.85327 c -0.84133,0 -1.62381,-0.15857 -2.34858,-0.4756 -0.72477,-0.31703 -1.35144,-0.75178 -1.87886,-1.30436 -0.52857,-0.55246 -0.94405,-1.20925 -1.24873,-1.97003 -0.30353,-0.7609 -0.45587,-1.57615 -0.45587,-2.44564 0,-0.88773 0.15234,-1.70748 0.45587,-2.45926 0.30468,-0.75189 0.72016,-1.40407 1.24873,-1.95653 0.52742,-0.55258 1.15409,-0.98733 1.87886,-1.30436 0.72477,-0.31703 1.50725,-0.4756 2.34858,-0.4756 0.84018,0 1.62843,0.15857 2.36128,0.4756 0.734,0.31703 1.36414,0.75178 1.89271,1.30436 0.52742,0.55246 0.94405,1.20464 1.24757,1.95653 0.30469,0.75178 0.45703,1.57153 0.45703,2.45926 0,0.86949 -0.15234,1.68474 -0.45703,2.44564 -0.30352,0.76078 -0.72015,1.41757 -1.24757,1.97003 -0.52857,0.55258 -1.15871,0.98733 -1.89271,1.30436 -0.73285,0.31703 -1.5211,0.4756 -2.36128,0.4756 z m 48.50077,-9.40216 v 12.71741 h -3.67695 v -19.02176 h 3.70464 l 9.34008,12.30979 v -12.30979 h 3.6504 v 19.02176 h -3.43574 z"
     id="path89"
     inkscape:connector-curvature="0"
     style="clip-rule:evenodd;fill:#ffffff;fill-rule:evenodd;stroke-width:1.15409315" />
  <path
     d="M 401.77212,0 C 392.58554,0 384.9189,7.665661 384.9189,16.852411 v 29.43919 c 0,9.186689 7.66664,16.852409 16.85322,16.852409 h 53.35373 c 9.18658,0 16.85206,-7.66572 16.85206,-16.852409 V 16.852411 C 471.97791,7.665661 464.31243,0 455.12585,0 Z m 3.81774,17.901251 h 45.32239 v 27.34139 h -45.32239 z"
     id="path91"
     inkscape:connector-curvature="0"
     style="fill:#ffffff;stroke-width:1.15409315" />
  <path
     d="M 0,1.258065 V 63.21326 H 20.670269 V 19.159331 h 39.02335 V 63.21326 H 79.968265 V 18.110491 c 0,-9.18677 -7.665717,-16.852426 -16.852414,-16.852426 z"
     id="path93"
     inkscape:connector-curvature="0"
     style="fill:#ffffff;stroke-width:1.15409315" />
  <path
     d="m 93.953219,1.258065 v 16.292926 h 56.151591 v 4.4054 h -43.84446 c -9.186694,0 -16.852411,7.73565 -16.852411,16.92235 v 7.4821 c 0,9.186699 7.665717,16.852419 16.852411,16.852419 h 43.84446 9.16004 11.11853 V 18.110491 c 0,-9.18677 -7.66549,-16.852426 -16.85207,-16.852426 z m 16.572661,37.201046 h 39.57893 v 8.81081 h -39.57893 z"
     id="path95"
     inkscape:connector-curvature="0"
     style="fill:#ffffff;stroke-width:1.15409315" />
  <path
     d="M 183.11072,1.258065 V 63.21326 h 20.69866 V 19.159331 h 21.25724 V 63.21326 h 20.69866 V 19.159331 h 21.67733 V 63.21326 h 20.27857 V 18.110491 c 0,-9.18677 -7.66549,-16.852426 -16.85207,-16.852426 z"
     id="path97"
     inkscape:connector-curvature="0"
     style="fill:#ffffff;stroke-width:1.15409315" />
  <path
     d="m 316.60005,0 c -9.18658,0 -16.85207,7.665661 -16.85207,16.852411 v 29.43919 c 0,9.186689 7.66549,16.852409 16.85207,16.852409 h 56.64174 V 45.242641 h -52.42814 v -27.34139 h 52.42814 V 0 Z"
     id="path99"
     inkscape:connector-curvature="0"
     style="fill:#ffffff;stroke-width:1.15409315" />
  <path
     d="m 485.23267,0.572534 c 2.70173,2.3e-5 5.02146,0.968088 6.96265,2.904147 1.94003,1.93612 2.91062,4.26337 2.91062,6.98177 0,2.71841 -0.96598,5.04783 -2.89793,6.98832 -1.93195,1.94049 -4.25629,2.91074 -6.97534,2.91074 -2.72712,0 -5.0607,-0.96805 -7.00073,-2.90416 -1.94118,-1.93611 -2.91062,-4.26772 -2.91062,-6.9949 0,-2.72715 0.97175,-5.05657 2.91639,-6.98832 1.94581,-1.931702 4.27707,-2.897574 6.99496,-2.897597 z m -0.0254,18.159087 c 2.26318,0 4.20667,-0.81063 5.82702,-2.43213 1.6215,-1.62139 2.43283,-3.56846 2.43283,-5.84104 0,-2.27261 -0.80902,-4.21526 -2.42591,-5.82796 -1.61688,-1.61269 -3.56153,-2.41903 -5.83394,-2.41904 -2.27356,1e-5 -4.2159,0.80635 -5.82817,2.41904 -1.61342,1.6127 -2.41898,3.55535 -2.41898,5.82796 0,2.27258 0.80556,4.21965 2.41898,5.84104 1.61227,1.6215 3.55461,2.43213 5.82817,2.43213 z m 4.45711,-2.79267 h -1.96657 l -0.82634,-2.32065 c -0.49741,-1.38976 -1.43684,-2.08472 -2.81829,-2.08472 h -1.35029 v 4.40537 H 480.9856 V 5.305701 h 3.99893 c 2.81368,2e-5 4.22168,0.97464 4.22168,2.92381 0,1.87931 -0.92213,2.88887 -2.76637,3.02872 0.94405,0.28847 1.64228,0.96154 2.09699,2.01915 z m -6.96149,-5.88695 h 2.15008 c 1.68728,0 2.53092,-0.55503 2.53092,-1.66513 0,-1.09261 -0.87018,-1.63891 -2.6094,-1.63891 h -2.0716 z"
     id="path101"
     inkscape:connector-curvature="0"
     style="fill:#ffffff;stroke-width:1.15409315" />
</svg>
