<?xml version="1.0" encoding="UTF-8" standalone="no"?>
<svg
   xmlns:dc="http://purl.org/dc/elements/1.1/"
   xmlns:cc="http://creativecommons.org/ns#"
   xmlns:rdf="http://www.w3.org/1999/02/22-rdf-syntax-ns#"
   xmlns:svg="http://www.w3.org/2000/svg"
   xmlns="http://www.w3.org/2000/svg"
   xmlns:sodipodi="http://sodipodi.sourceforge.net/DTD/sodipodi-0.dtd"
   xmlns:inkscape="http://www.inkscape.org/namespaces/inkscape"
   width="400"
   height="200"
   viewBox="0 0 400 200"
   version="1.1"
   id="svg34"
   sodipodi:docname="naomi.svg"
   style="fill:none"
   inkscape:version="0.92.5 (2060ec1f9f, 2020-04-08)">
  <metadata
     id="metadata40">
    <rdf:RDF>
      <cc:Work
         rdf:about="">
        <dc:format>image/svg+xml</dc:format>
        <dc:type
           rdf:resource="http://purl.org/dc/dcmitype/StillImage" />
        <dc:title />
      </cc:Work>
    </rdf:RDF>
  </metadata>
  <defs
     id="defs38" />
  <sodipodi:namedview
     pagecolor="#ffffff"
     bordercolor="#666666"
     borderopacity="1"
     objecttolerance="10"
     gridtolerance="10"
     guidetolerance="10"
     inkscape:pageopacity="0"
     inkscape:pageshadow="2"
     inkscape:window-width="1366"
     inkscape:window-height="740"
     id="namedview36"
     showgrid="false"
     inkscape:pagecheckerboard="true"
     inkscape:zoom="1.8743269"
     inkscape:cx="268.78693"
     inkscape:cy="67.991907"
     inkscape:window-x="0"
     inkscape:window-y="0"
     inkscape:window-maximized="1"
     inkscape:current-layer="svg34" />
  <path
     d="m 97.765826,5.589083 c 4.040654,0 7.419674,2.2796498 8.937394,5.563233 l 0.098,0.220383 10.73279,32.018917 -49.695527,-0.0057 c -3.036753,0 -5.799956,-1.170422 -7.869143,-3.079104 l -0.219418,-0.207307 v 3.283362 l -17.743451,0.0031 c -4.46194,0 -8.329813,-2.518653 -10.260165,-6.200807 l -0.120544,-0.236556 -0.04903,0.140813 c -1.600936,3.360154 -6.147991,6.175429 -10.793261,6.289958 l -0.278825,0.0036 -16.8735916,0.003 V 28.165747 l 3.7758863,0.0061 C 5.1775191,25.847479 3.6656459,22.710203 3.6656459,19.251011 3.6742732,11.868972 9.4628791,6.2639088 16.573961,6.1357765 l 0.26078,-0.00227 16.747543,-0.014429 V 9.762447 c 2.037382,-2.1465148 4.922117,-3.5374365 8.105698,-3.624939 l 0.319281,-0.00435 h 17.76924 l -0.0061,3.2348426 C 61.775625,7.4130138 64.473487,6.2044837 67.48066,6.1234614 l 0.323319,-0.00435 17.354628,0.0087 0.01409,15.7387176 3.577429,-10.43008 C 90.161581,8.0490061 93.65266,5.5890846 97.765823,5.5890846 Z m -66.785085,8.67027 h -14.21208 l -0.186542,0.0035 c -2.661609,0.0983 -4.796712,2.290995 -4.796712,4.97106 0,2.682702 2.134691,4.86716 4.796712,4.965045 l 4.098743,0.05562 c 3.242988,0.104641 5.835219,2.753149 5.835219,6.00553 0,3.254606 -2.591819,5.909045 -5.835219,6.013935 l -0.199314,0.0033 H 6.2436456 l -0.00569,4.504457 14.2291774,-0.01442 0.252376,-0.003 c 5.704953,-0.133562 10.287026,-4.784435 10.287026,-10.495814 0,-5.722668 -4.582073,-10.374035 -10.287026,-10.50768 l -0.252376,-0.003 -3.695419,0.02019 -0.07795,-0.0058 c -0.254271,-0.03807 -0.449465,-0.25971 -0.449465,-0.526834 0,-0.267207 0.195194,-0.489179 0.449465,-0.527328 l 0.07795,-0.0057 14.203346,0.0031 z M 42.038408,8.7460916 h 15.188214 v 4.4642394 l -15.188214,-0.0027 -0.1844,0.0038 c -2.32453,0.0936 -4.209977,1.948059 -4.302836,4.22447 l -0.0036,0.176078 v 14.214306 l 0.0038,0.187448 c 0.09525,2.361113 1.982179,4.198112 4.307285,4.288499 l 0.179787,0.0035 15.121722,-0.0052 0.0031,4.453207 -15.124771,-0.0061 -0.238451,-0.0031 c -4.75309,-0.124035 -8.580588,-3.943046 -8.704758,-8.680187 l -0.0032,-0.237628 V 17.660868 l 0.0032,-0.237544 c 0.12417,-4.736671 3.951668,-8.5503602 8.70471,-8.6741341 z M 97.76253,8.2247943 97.527704,8.2283522 C 94.491446,8.3197891 91.94791,10.179081 91.070402,12.72087 l -0.06509,0.202065 -8.436515,24.740845 8.2e-5,-17.902885 H 69.926753 v 4.450241 h 8.174499 V 36.294269 H 67.87009 l -0.17921,-0.0036 c -2.31662,-0.09212 -4.192674,-1.96158 -4.287346,-4.280507 l -0.0038,-0.183988 V 17.660539 l 0.0036,-0.179539 c 0.0917,-2.320822 1.95334,-4.176368 4.271114,-4.270002 l 0.183906,-0.0038 h 14.71052 V 8.7460916 H 67.824113 l -0.238286,0.00316 c -4.750983,0.1237413 -8.578399,3.9374314 -8.702651,8.6741004 l -0.0031,0.237545 v 14.165742 l 0.0032,0.237628 c 0.125241,4.737141 3.985039,8.556152 8.736764,8.680157 l 0.238286,0.0031 14.71057,0.0061 -8.2e-5,-0.0042 3.68067,7.43e-4 9.211771,-27.049704 0.06344,-0.139165 c 0.403736,-0.821166 1.247462,-1.387516 2.229612,-1.387516 0.977205,0 1.824227,0.56635 2.232082,1.382671 l 0.06345,0.138317 7.67016,22.59947 H 95.841901 v 4.455514 h 18.076649 l -9.40127,-27.815853 -0.0635,-0.19723 C 103.58369,10.19153 101.03439,8.3226601 98.003073,8.2284994 Z m -1.326561,5.8481797 c 0.226586,-0.508715 0.734965,-0.864925 1.329857,-0.864925 0.636914,0 1.180722,0.40891 1.373526,0.976159 L 106.28053,35.28015 H 95.823774 l 0.0091,-3.967406 0.337819,-0.995332 h 3.159028 l -1.572922,-4.674932 -1.586106,4.674932 h -0.335347 l -0.0025,0.995332 -3.200225,9.437039 h -5.270814 l 9.029678,-26.565575 z m -13.867833,0.174596 -14.710571,0.0031 -0.170228,0.0043 c -1.748094,0.08594 -3.149964,1.487808 -3.235902,3.23582 l -0.0042,0.170227 7.43e-4,14.165363 0.0042,0.170558 c 0.08585,1.751966 1.487725,3.161334 3.235819,3.247685 l 0.170229,0.0042 h 9.188534 v -9.983758 h -7.109047 v 4.464989 h 2.638373 l 0.0083,1.048313 h -2.62659 l -0.106125,-0.0054 C 69.362577,30.722287 68.970706,30.32597 68.92061,29.836379 l -0.0053,-0.10629 -0.02356,-9.972194 c 0.0018,-0.08775 0.04103,-0.949932 0.916645,-1.053091 l 0.137682,-0.0096 H 82.573821 Z M 16.77171,8.7460916 h 14.203346 l 0.0057,4.4729734 -14.212079,0.0031 -0.198984,0.0033 c -3.237797,0.104765 -5.832559,2.756584 -5.832559,6.008224 0,3.260538 2.594762,5.912176 5.832559,6.016901 l 4.098907,0.04688 c 2.669601,0.0978 4.798855,2.279707 4.798855,4.962409 0,2.685585 -2.129254,4.870126 -4.798855,4.968012 l -0.187036,0.0035 H 6.2436456 l -0.00569,-4.441507 14.2089904,-0.01137 0.07498,-0.0055 c 0.245456,-0.03625 0.44065,-0.247597 0.44065,-0.50434 0,-0.261687 -0.195194,-0.473689 -0.44065,-0.510108 l -0.07498,-0.0055 -3.675232,-0.0057 -0.25213,-0.003 C 10.820264,29.610627 6.2322586,24.962308 6.2322586,19.245326 c 0,-5.71704 4.5880054,-10.3628212 10.2873214,-10.4962843 z M 53.99484,25.270713 H 38.630795 v 6.555929 c 0,1.821344 1.43557,3.303878 3.237632,3.392041 l 0.169981,0.0042 15.121392,-0.006 0.0031,-4.433102 -13.028475,-1.65e-4 c -0.08273,-0.0024 -0.953558,-0.04812 -1.048231,-0.916893 l -0.0082,-0.136611 H 53.99484 Z M 42.038408,14.250618 h 15.188214 v 4.470345 H 44.141048 l -0.136611,0.0062 c -0.739084,0.0697 -0.888466,0.703984 -0.91854,0.943012 l -0.0076,0.09064 h 10.916854 v 4.450241 H 38.631207 l 0.0052,-6.550244 0.0042,-0.170228 c 0.088,-1.804453 1.568309,-3.240022 3.397727,-3.240022 z"
     id="path24"
     inkscape:connector-curvature="0"
     style="clip-rule:evenodd;fill:#ffffff;fill-rule:evenodd;stroke-width:0.82395077" />
  <path
     d="m 112.73866,11.367326 c -0.59406,0.590394 -1.38589,0.918821 -2.22714,0.918821 -0.83879,0 -1.62731,-0.328427 -2.21808,-0.918442 -0.599,-0.596095 -0.92694,-1.3823997 -0.92694,-2.2233814 0,-1.7282946 1.4139,-3.1311964 3.14502,-3.1311964 0.84125,0 1.63308,0.3284209 2.22714,0.9157817 0.59242,0.5960874 0.92447,1.3797392 0.92447,2.2150273 0,0.8409905 -0.33205,1.6272948 -0.92447,2.2233898 z M 108.6016,7.2368277 c -0.51497,0.5099022 -0.79181,1.1895212 -0.79181,1.90673 0,0.7229092 0.27602,1.3998673 0.79181,1.9093983 0.5125,0.509902 1.19226,0.789345 1.90992,0.789345 1.49548,0 2.7108,-1.20965 2.7108,-2.6987433 0,-0.7172088 -0.28261,-1.3968278 -0.79264,-1.90673 -0.5125,-0.5095307 -1.19226,-0.7863123 -1.91816,-0.7863123 -0.71766,0 -1.3966,0.2764021 -1.90992,0.7863123 z"
     id="path26"
     inkscape:connector-curvature="0"
     style="clip-rule:evenodd;fill:#ffffff;fill-rule:evenodd;stroke-width:0.82395077" />
  <path
     d="M 109.70487,10.888932 V 9.4085726 h 0.89894 l 0.9533,1.4803594 h 0.5504 l -0.97967,-1.5092136 c 0.005,-0.00109 0.0107,-0.00227 0.0173,-0.00356 0.19198,-0.038484 0.81241,-0.1630853 0.81241,-0.9498422 0,-0.3227254 -0.10958,-0.6135634 -0.3716,-0.8068124 -0.26614,-0.2009705 -0.54628,-0.2042171 -1.01922,-0.2096962 -0.008,-8.99e-5 -0.0156,-1.809e-4 -0.0239,-2.718e-4 h -1.29275 v 3.4793692 z m 0.92447,-1.8634468 h -0.92447 V 7.7957137 h 0.89894 c 0.009,0 0.019,-7.9e-6 0.028,-1.68e-5 0.25543,-1.887e-4 0.47625,-3.538e-4 0.65175,0.1469524 0.19857,0.1613627 0.20764,0.3944824 0.20764,0.4867406 0,0.2532414 -0.11536,0.4837085 -0.43752,0.5615386 -0.13842,0.034561 -0.27684,0.034561 -0.42434,0.034561 z"
     id="path28"
     inkscape:connector-curvature="0"
     style="clip-rule:evenodd;fill:#ffffff;fill-rule:evenodd;stroke-width:0.82395077" />
  <path
     d="M 71.624339,135.54755 V 62.582502 H 59.496772 L 59.69658,109.50328 3.6310954,63.179536 3.8286606,136.3443 H 14.36701 V 89.025637 Z m 7.755025,1.19142 9.344426,-15.90472 H 80.173982 V 109.70351 H 94.290401 L 119.9367,63.179536 160.89364,136.73897 h -14.51307 l -8.34991,-15.90472 h -36.38238 l -8.747883,15.90472 z m 27.238166,-27.23569 h 26.24366 L 119.73977,85.445898 Z m 158.05931,27.23569 H 252.74932 V 63.377119 l 40.55733,47.118201 40.9553,-48.110402 V 136.73897 H 321.53521 L 321.33993,96.779009 293.10725,130.7777 264.67684,96.976767 Z m 92.64832,0 0.19775,-75.150812 h 12.12691 l -0.19693,75.150812 z M 380.78551,73.915445 V 63.377119 h -3.3782 v -1.988687 h 9.34443 v 1.988687 h -3.58254 v 10.538326 z m 6.56112,-0.199724 V 61.388432 h 3.3782 l 3.58006,7.755027 3.37821,-7.755027 h 2.5872 v 12.527013 h -2.38781 v -8.152328 l -3.3782,8.152328 -4.77232,-8.152328 v 8.152328 z"
     id="path30"
     inkscape:connector-curvature="0"
     style="clip-rule:evenodd;fill:#ffffff;fill-rule:evenodd;stroke-width:0.82395077" />
  <path
     d="m 160.49649,100.75622 c 0,-22.068531 17.89374,-39.962433 39.96491,-39.962433 22.06705,0 39.96079,17.893902 39.96079,39.962433 0,22.06705 -17.89374,39.9608 -39.96079,39.9608 -22.07117,0 -39.96491,-17.89375 -39.96491,-39.9608 z m 39.96491,28.03328 c 15.50841,0 28.02834,-12.52735 28.02834,-28.03328 0,-15.307851 -12.5224,-27.83487 -28.02834,-27.83487 -15.30982,0 -27.83717,12.527019 -27.83717,27.83487 0,15.50593 12.52488,28.03328 27.83717,28.03328 z"
     id="path32"
     inkscape:connector-curvature="0"
     style="clip-rule:evenodd;fill:#ffffff;fill-rule:evenodd;stroke-width:0.82395077" />
</svg>
