<?xml version="1.0" encoding="UTF-8" standalone="no"?>
<svg
   xmlns:dc="http://purl.org/dc/elements/1.1/"
   xmlns:cc="http://creativecommons.org/ns#"
   xmlns:rdf="http://www.w3.org/1999/02/22-rdf-syntax-ns#"
   xmlns:svg="http://www.w3.org/2000/svg"
   xmlns="http://www.w3.org/2000/svg"
   xmlns:sodipodi="http://sodipodi.sourceforge.net/DTD/sodipodi-0.dtd"
   xmlns:inkscape="http://www.inkscape.org/namespaces/inkscape"
   width="419.53879"
   height="142.77042"
   viewBox="0 0 419.53879 142.77042"
   version="1.1"
   id="svg68"
   sodipodi:docname="nds.svg"
   style="fill:none"
   inkscape:version="1.0.1 (1.0.1+r73)">
  <metadata
     id="metadata74">
    <rdf:RDF>
      <cc:Work
         rdf:about="">
        <dc:format>image/svg+xml</dc:format>
        <dc:type
           rdf:resource="http://purl.org/dc/dcmitype/StillImage" />
        <dc:title />
      </cc:Work>
    </rdf:RDF>
  </metadata>
  <defs
     id="defs72" />
  <sodipodi:namedview
     pagecolor="#ffffff"
     bordercolor="#666666"
     borderopacity="1"
     objecttolerance="10"
     gridtolerance="10"
     guidetolerance="10"
     inkscape:pageopacity="0"
     inkscape:pageshadow="2"
     inkscape:window-width="1366"
     inkscape:window-height="740"
     id="namedview70"
     showgrid="false"
     inkscape:pagecheckerboard="true"
     inkscape:zoom="1.5102604"
     inkscape:cx="341.70171"
     inkscape:cy="59.16922"
     inkscape:window-x="0"
     inkscape:window-y="0"
     inkscape:window-maximized="1"
     inkscape:current-layer="svg68"
     inkscape:document-rotation="0" />
  <path
     d="m 411.81746,82.823857 c 0,0.98358 -0.80657,1.86882 -1.79999,1.86882 h -34.44793 c -1.00344,0 -1.81003,-0.88524 -1.81003,-1.86882 V 57.937272 c 0,-0.983575 0.80659,-1.770563 1.81003,-1.770563 h 34.44793 c 0.99342,0 1.79999,0.786988 1.79999,1.770563 z m -1.4956,-34.132847 h -35.06675 c -5.07646,0 -9.21692,4.131345 -9.21692,9.246262 v 24.984835 c 0,5.01667 4.14046,9.24645 9.21692,9.24645 h 35.06675 c 5.08558,0 9.21692,-4.22978 9.21692,-9.24645 V 57.937272 c 0,-5.114917 -4.13134,-9.246262 -9.21692,-9.246262 z"
     id="path42"
     inkscape:connector-curvature="0"
     style="fill:#929497;stroke-width:0.911393" />
  <path
     d="m 8.046305,11.312052 c 0,0 0,31.673639 0,32.165517 -0.422977,0 -7.613495,0 -8.046305,0 C 0,42.985691 0,0.491812 0,0 0.452477,0 6.669191,0 6.875749,0 L 39.46423,31.673664 c 0,0 0,-31.181852 0,-31.673664 0.44266,0 6.443,0 6.443,0 0,0 1.14097,0 1.49514,0 0,0.491812 0,42.985691 0,43.477569 -0.43282,0 -6.06915,0 -6.28561,0 z"
     id="path44"
     inkscape:connector-curvature="0"
     style="fill:#ffffff;stroke-width:0.911393" />
  <path
     d="m 88.7159,11.312052 c 0,0 0,31.673639 0,32.165517 -0.43282,0 -7.60366,0 -8.04632,0 0,-0.491878 0,-42.985757 0,-43.477569 0.4525,0 6.65936,0 6.86588,0 l 32.58887,31.673664 c 0,0 0,-31.181852 0,-31.673664 0.44203,0 6.45267,0 6.45267,0 0,0 1.15109,0 1.49468,0 0,0.491812 0,42.985691 0,43.477569 -0.44202,0 -6.06896,0 -6.28497,0 z"
     id="path46"
     inkscape:connector-curvature="0"
     style="fill:#ffffff;stroke-width:0.911393" />
  <path
     d="m 255.9082,11.312052 c 0,0 0,31.673639 0,32.165517 -0.44293,0 -7.60375,0 -8.04669,0 0,-0.491878 0,-42.985757 0,-43.477569 0.45205,0 6.66958,0 6.86553,0 l 32.58867,31.673664 c 0,0 0,-31.181852 0,-31.673664 0.44294,0 6.45267,0 6.45267,0 0,0 1.15109,0 1.49559,0 0,0.491812 0,42.985691 0,43.477569 -0.44293,0 -6.06896,0 -6.27585,0 z"
     id="path48"
     inkscape:connector-curvature="0"
     style="fill:#ffffff;stroke-width:0.911393" />
  <path
     d="m 66.56395,0 c 0,0 1.14106,0 1.48539,0 0,0.491812 0,42.985691 0,43.477569 -0.42298,0 -7.61351,0 -8.04633,0 0,-0.491878 0,-42.985757 0,-43.477569 0.44267,0 6.56094,0 6.56094,0 z"
     id="path50"
     inkscape:connector-curvature="0"
     style="fill:#ffffff;stroke-width:0.911393" />
  <path
     d="m 182.87099,0 c 0,0 1.12193,0 1.47555,0 0,0.393439 0,7.082304 0,7.475743 -0.4721,0 -19.39718,0 -19.39718,0 0,0 0,35.509948 0,36.001826 -0.43291,0 -7.9282,0 -8.36112,0 0,-0.491878 0,-36.001826 0,-36.001826 0,0 -18.92598,0 -19.39808,0 0,-0.393439 0,-7.082304 0,-7.475743 0.48213,0 45.68084,0 45.68083,0 z"
     id="path52"
     inkscape:connector-curvature="0"
     style="fill:#ffffff;stroke-width:0.911393" />
  <path
     d="m 234.41482,0 c 0,0 1.16113,0 1.50471,0 0,0.393439 0,7.082304 0,7.475743 -0.46207,0 -34.4862,0 -34.4862,0 v 9.738216 c 0,0 26.22351,0 26.67648,0 0,0.491787 0,6.983913 0,7.475792 -0.45297,0 -26.67648,0 -26.67648,0 v 11.312027 c 0,0 34.02413,0 34.4862,0 0,0.393448 0,6.983913 0,7.475791 -0.46207,0 -41.99152,0 -42.4545,0 0,-0.491878 0,-42.985757 0,-43.477569 0.46298,0 40.94979,0 40.94979,0 z"
     id="path54"
     inkscape:connector-curvature="0"
     style="fill:#ffffff;stroke-width:0.911393" />
  <path
     d="M 340.00062,36.001778 H 315.29093 V 7.475743 h 24.70969 c 7.73133,0 10.47555,7.672453 10.47555,14.263008 0,6.492126 -2.74422,14.263027 -10.47555,14.263027 z M 353.20123,6.393738 C 350.05327,2.164009 345.40062,0 339.77458,0 c 0,0 -31.77206,0 -32.24417,0 0,0.491812 0,42.985691 0,43.477569 0.47211,0 32.24417,0 32.24417,0 5.62604,0 10.27869,-2.262441 13.42665,-6.393786 2.95109,-3.836235 4.51504,-9.148015 4.51504,-15.345032 0,-6.197016 -1.56395,-11.508705 -4.51504,-15.345013 z"
     id="path56"
     inkscape:connector-curvature="0"
     style="fill:#ffffff;stroke-width:0.911393" />
  <path
     d="m 411.81746,34.231215 c 0,0.885235 -0.80657,1.770563 -1.79999,1.770563 h -34.44793 c -1.00344,0 -1.81003,-0.885328 -1.81003,-1.770563 V 9.246288 c 0,-0.983584 0.80659,-1.770545 1.81003,-1.770545 h 34.44793 c 0.99342,0 1.79999,0.786961 1.79999,1.770545 z M 410.32186,0 h -35.06675 c -5.07646,0 -9.21692,4.13136 -9.21692,9.246288 v 24.984927 c 0,5.11501 4.14046,9.246354 9.21692,9.246354 h 35.06675 c 5.08558,0 9.21692,-4.131344 9.21692,-9.246354 V 9.246288 C 419.53878,4.13136 415.40744,0 410.32186,0 Z"
     id="path58"
     inkscape:connector-curvature="0"
     style="fill:#ffffff;stroke-width:0.911393" />
  <path
     d="m 266.5847,124.37605 c 8.34107,3.34435 25.9583,6.00024 39.70939,6.00024 15.04984,0 21.27647,-5.11501 21.27647,-11.60713 0,-5.90191 -5.78369,-9.24645 -22.39748,-15.34504 -22.22068,-8.164343 -38.52003,-14.656473 -38.52003,-29.312943 0,-15.049893 19.6141,-24.001172 49.50779,-24.001172 16.05327,0 21.56173,0.983621 31.75202,2.852578 l 0.0784,14.361354 c -10.01348,-1.868902 -18.8859,-5.115012 -32.66706,-5.115012 -14.77459,0 -21.06958,4.721472 -21.06958,9.541462 0,6.98401 9.69904,10.32836 26.70654,16.42704 23.67617,8.45946 36.84762,14.951593 36.84762,29.214523 0,14.75491 -16.49621,25.37847 -53.69836,25.37847 -15.27586,0 -25.81065,-0.9834 -37.52569,-2.951 z"
     id="path60"
     inkscape:connector-curvature="0"
     style="fill:#ffffff;stroke-width:0.911393" />
  <path
     d="M 187.40014,62.799145 H 169.69451 V 129.8845 h 17.70563 c 27.17865,0 44.32378,-11.70556 44.32378,-33.444383 0,-21.73873 -17.14513,-33.640972 -44.32378,-33.640972 z m 47.52003,73.282285 c -8.75393,3.93467 -25.31941,6.49213 -39.79871,6.49213 H 139.78077 V 50.306702 h 55.34069 c 14.4793,0 31.04478,2.557506 39.81876,6.492086 21.31567,9.639817 28.26047,25.083289 28.26047,39.641329 0,14.558143 -6.88556,30.001513 -28.28052,39.641313 z"
     id="path62"
     inkscape:connector-curvature="0"
     style="fill:#ffffff;stroke-width:0.911393" />
  <path
     d="m 363.36643,128.80232 h -3.55078 v -1.27878 h 8.64547 v 1.27878 h -3.56992 v 10.32836 h -1.52477 z"
     id="path64"
     inkscape:connector-curvature="0"
     style="fill:#ffffff;stroke-width:0.911393" />
  <path
     d="m 379.54731,134.01576 c -0.0884,-1.57389 -0.18685,-3.54113 -0.18685,-5.01667 h -0.0392 c -0.41377,1.37711 -0.88588,2.85257 -1.47555,4.42645 l -2.0561,5.70514 h -1.14107 l -1.90846,-5.6068 c -0.55048,-1.67222 -1.00343,-3.14768 -1.3279,-4.52479 h -0.0392 c -0.0292,1.47554 -0.11757,3.44278 -0.216,5.11501 l -0.31534,5.01658 h -1.43545 l 0.81569,-11.60714 h 1.91849 l 1.98683,5.60689 c 0.48213,1.47555 0.86582,2.75423 1.18026,3.93467 h 0.0301 c 0.31443,-1.18044 0.72729,-2.45912 1.24861,-3.93467 l 2.07615,-5.60689 h 1.91757 l 0.72821,11.60714 h -1.48557 z"
     id="path66"
     inkscape:connector-curvature="0"
     style="fill:#ffffff;stroke-width:0.911393" />
</svg>
