<?xml version="1.0" encoding="UTF-8" standalone="no"?>
<svg
   xmlns:dc="http://purl.org/dc/elements/1.1/"
   xmlns:cc="http://creativecommons.org/ns#"
   xmlns:rdf="http://www.w3.org/1999/02/22-rdf-syntax-ns#"
   xmlns:svg="http://www.w3.org/2000/svg"
   xmlns="http://www.w3.org/2000/svg"
   xmlns:sodipodi="http://sodipodi.sourceforge.net/DTD/sodipodi-0.dtd"
   xmlns:inkscape="http://www.inkscape.org/namespaces/inkscape"
   width="300.94022"
   height="191.91376"
   viewBox="0 0 79.623761 50.777183"
   version="1.1"
   id="svg8"
   inkscape:version="1.0.1 (1.0.1+r73)"
   sodipodi:docname="neogeocd.svg">
  <defs
     id="defs2" />
  <sodipodi:namedview
     id="base"
     pagecolor="#ffffff"
     bordercolor="#666666"
     borderopacity="1.0"
     inkscape:pageopacity="0.0"
     inkscape:pageshadow="2"
     inkscape:zoom="1.4590699"
     inkscape:cx="253.62748"
     inkscape:cy="60.788874"
     inkscape:document-units="mm"
     inkscape:current-layer="layer1"
     showgrid="false"
     units="px"
     inkscape:pagecheckerboard="true"
     inkscape:window-width="1366"
     inkscape:window-height="740"
     inkscape:window-x="0"
     inkscape:window-y="0"
     inkscape:window-maximized="1"
     showguides="true"
     inkscape:guide-bbox="true"
     inkscape:document-rotation="0">
    <sodipodi:guide
       position="99.530579,-3.6667618"
       orientation="1,0"
       id="guide523"
       inkscape:locked="false" />
  </sodipodi:namedview>
  <metadata
     id="metadata5">
    <rdf:RDF>
      <cc:Work
         rdf:about="">
        <dc:format>image/svg+xml</dc:format>
        <dc:type
           rdf:resource="http://purl.org/dc/dcmitype/StillImage" />
        <dc:title />
      </cc:Work>
    </rdf:RDF>
  </metadata>
  <g
     inkscape:label="Layer 1"
     inkscape:groupmode="layer"
     id="layer1"
     transform="translate(-24.532001,-245.14788)">
    <path
       style="fill:#ffffff;stroke-width:0.108361"
       d="m 89.271099,295.75155 c -0.0412,-0.10729 -0.21088,-0.16254 -0.49922,-0.16254 -0.24027,0 -0.43685,-0.0488 -0.43685,-0.10836 0,-0.0596 -0.1219,-0.10836 -0.2709,-0.10836 -0.16856,0 -0.2709,-0.0614 -0.2709,-0.16254 0,-0.0922 -0.0972,-0.16255 -0.22447,-0.16255 -0.2399,0 -0.53406,-0.23447 -0.53406,-0.4257 0,-0.0639 -0.0731,-0.1161 -0.16254,-0.1161 -0.0894,0 -0.16255,-0.0731 -0.16255,-0.16254 0,-0.0894 -0.0522,-0.16255 -0.1161,-0.16255 -0.19122,0 -0.4257,-0.29416 -0.4257,-0.53406 0,-0.12728 -0.0704,-0.22446 -0.16254,-0.22446 -0.10837,0 -0.16255,-0.10837 -0.16255,-0.32509 0,-0.17879 -0.0488,-0.32508 -0.10836,-0.32508 -0.0596,0 -0.10836,-0.16135 -0.10836,-0.35855 0,-0.19721 -0.0716,-0.45321 -0.15909,-0.5689 -0.0988,-0.13068 -0.1591,-0.4566 -0.1591,-0.86051 0,-0.40392 0.0603,-0.72984 0.1591,-0.86051 0.0875,-0.11569 0.15909,-0.37169 0.15909,-0.5689 0,-0.1972 0.0488,-0.35855 0.10836,-0.35855 0.0596,0 0.10836,-0.11669 0.10836,-0.25931 0,-0.14262 0.0731,-0.28738 0.16255,-0.32168 0.0894,-0.0343 0.16254,-0.16143 0.16254,-0.2825 0,-0.12107 0.0488,-0.22012 0.10836,-0.22012 0.0596,0 0.10836,-0.0731 0.10836,-0.16255 0,-0.0894 0.0731,-0.16254 0.16254,-0.16254 0.0894,0 0.16254,-0.045 0.16254,-0.10002 0,-0.13014 0.63673,-0.76687 0.76687,-0.76687 0.055,0 0.10136,-0.0609 0.103,-0.13545 0.002,-0.0745 0.3064,-0.27506 0.67726,-0.4457 0.37085,-0.17063 0.75895,-0.35349 0.86244,-0.40635 0.23186,-0.11843 2.86722,-0.12867 2.93968,-0.0114 0.0288,0.0466 0.20561,0.0964 0.39295,0.11063 0.18733,0.0143 0.45517,0.10102 0.5952,0.19277 0.21289,0.13949 0.29158,0.14372 0.48034,0.0258 0.12416,-0.0775 0.22574,-0.20239 0.22574,-0.27745 0,-0.18395 6.456921,-0.19707 7.035791,-0.0143 0.39968,0.12619 0.99611,0.41029 1.09131,0.51983 0.0928,0.10679 0.47872,0.33655 0.67725,0.40321 0.1043,0.035 0.18963,0.15704 0.18963,0.27116 0,0.11411 0.0731,0.23555 0.16255,0.26985 0.0894,0.0343 0.16254,0.11252 0.16254,0.17381 0,0.0613 0.1219,0.22441 0.2709,0.3625 0.149,0.13808 0.2709,0.34494 0.2709,0.45969 0,0.11474 0.0732,0.26933 0.16255,0.34352 0.0894,0.0742 0.16254,0.29672 0.16254,0.4945 0,0.19778 0.0488,0.38974 0.10836,0.42657 0.0598,0.0369 0.10836,0.52274 0.10836,1.08362 0,0.56087 -0.0486,1.04666 -0.10836,1.08361 -0.0596,0.0368 -0.10836,0.2069 -0.10836,0.37792 0,0.17102 -0.0731,0.38409 -0.16254,0.47349 -0.0894,0.0894 -0.16255,0.28793 -0.16255,0.44118 0,0.17544 -0.0602,0.27865 -0.16254,0.27865 -0.0922,0 -0.16254,0.0972 -0.16254,0.22446 0,0.2399 -0.23448,0.53406 -0.4257,0.53406 -0.0639,0 -0.11611,0.0731 -0.11611,0.16255 0,0.0894 -0.0522,0.16254 -0.1161,0.16254 -0.0639,0 -0.18407,0.061 -0.26714,0.13545 -0.38781,0.34778 -0.86056,0.59516 -1.57495,0.82413 -0.25284,0.081 -1.445321,0.12403 -3.440471,0.12403 h -3.05351 v -0.36752 c 0,-0.31123 0.0456,-0.37854 0.29799,-0.4395 0.1639,-0.0396 0.43209,-0.12993 0.59599,-0.20075 l 0.29799,-0.12875 -8.7e-4,-3.7391 -8.6e-4,-3.7391 -0.25481,-0.11806 c -0.18853,-0.0874 -0.30105,-0.0842 -0.4326,0.012 -0.14621,0.10695 -0.17775,0.34253 -0.17775,1.32826 0,0.65904 -0.0296,1.27539 -0.0658,1.36966 -0.0421,0.1097 -0.19814,0.1714 -0.43344,0.1714 -0.28744,0 -0.36767,-0.0444 -0.36767,-0.20345 0,-0.1119 -0.0731,-0.26416 -0.16254,-0.33835 -0.0894,-0.0742 -0.16255,-0.25083 -0.16255,-0.39253 0,-0.1417 -0.0488,-0.25764 -0.10836,-0.25764 -0.0596,0 -0.10836,-0.1219 -0.10836,-0.2709 0,-0.149 -0.0522,-0.2709 -0.1161,-0.2709 -0.15002,0 -0.4257,-0.27569 -0.4257,-0.42571 0,-0.0639 -0.11669,-0.1161 -0.25931,-0.1161 -0.14262,0 -0.28738,-0.0731 -0.32169,-0.16254 -0.0477,-0.12438 -0.25215,-0.16254 -0.87074,-0.16254 -0.57407,0 -0.85548,0.0471 -0.97091,0.16254 -0.0894,0.0894 -0.23917,0.16254 -0.33283,0.16254 -0.0936,0 -0.17028,0.0522 -0.17028,0.1161 0,0.15002 -0.27568,0.42571 -0.4257,0.42571 -0.0639,0 -0.1161,0.0731 -0.1161,0.16254 0,0.0894 -0.0488,0.16254 -0.10836,0.16254 -0.0596,0 -0.10837,0.11842 -0.10837,0.26316 0,0.14474 -0.0731,0.33631 -0.16254,0.42571 -0.23367,0.23367 -0.23074,3.27539 0.003,3.58502 0.0875,0.11569 0.1591,0.31616 0.1591,0.44549 0,0.3138 0.87108,1.24049 1.16606,1.24049 0.12641,0 0.25998,0.0488 0.29681,0.10836 0.0368,0.0596 0.38105,0.10836 0.76493,0.10836 0.39306,0 0.69795,-0.0473 0.69795,-0.10836 0,-0.0596 0.094,-0.10836 0.20898,-0.10836 0.11494,0 0.28213,-0.0731 0.37153,-0.16255 0.0894,-0.0894 0.21479,-0.16254 0.27864,-0.16254 0.0639,0 0.1161,-0.0488 0.1161,-0.10836 0,-0.0596 0.0731,-0.10836 0.16254,-0.10836 0.0894,0 0.16255,-0.0731 0.16255,-0.16254 0,-0.0894 0.0731,-0.16254 0.16254,-0.16254 0.0894,0 0.16254,-0.0387 0.16254,-0.0861 0,-0.15483 0.86127,-1.01381 0.95712,-0.95457 0.0514,0.0317 0.10086,0.44955 0.10996,0.92845 0.0135,0.7091 -0.0136,0.87071 -0.146,0.87071 -0.0894,0 -0.16255,0.0471 -0.16255,0.10463 0,0.16388 -0.59353,0.72968 -0.85125,0.81148 -0.1278,0.0406 -0.23236,0.11142 -0.23236,0.15746 0,0.046 -0.20725,0.14528 -0.46054,0.22053 -0.25329,0.0752 -0.58996,0.20496 -0.74816,0.28825 -0.42314,0.22279 -2.64521,0.21375 -2.73149,-0.0111 z m 3.45982,-0.70726 c 0.80911,-0.41278 1.34726,-0.91034 1.34726,-1.24565 0,-0.42642 -0.17716,-0.40215 -0.66887,0.0916 -0.72213,0.72518 -1.23742,0.9402 -2.25317,0.9402 -1.06454,0 -1.27131,-0.078 -1.92561,-0.72671 -0.51902,-0.51456 -0.54749,-0.57502 -1.01384,-2.15255 -0.25397,-0.85909 -0.0778,-2.363 0.41466,-3.54087 0.22837,-0.54616 1.23382,-1.49024 1.58712,-1.49024 0.14905,0 0.30113,-0.0488 0.33797,-0.10836 0.0368,-0.0596 0.28123,-0.10836 0.5431,-0.10836 0.44271,0 0.64536,0.0541 1.35322,0.36126 0.39959,0.17339 1.30033,1.14553 1.30033,1.40339 0,0.22753 0.28483,0.6193 0.45024,0.6193 0.10855,0 0.12531,-2.74753 0.0174,-2.85542 -0.0408,-0.0408 -0.23271,0.0795 -0.42651,0.26738 l -0.35237,0.34153 -0.46747,-0.19185 c -1.21927,-0.50038 -2.43619,-0.6389 -3.33903,-0.38008 -1.69289,0.48531 -2.89164,1.49374 -3.47257,2.92126 -0.27389,0.67304 -0.32007,0.92952 -0.32002,1.77764 8e-5,1.38829 0.3237,2.22288 1.23819,3.19318 0.38899,0.41273 0.71235,0.60695 1.79587,1.07869 0.14899,0.0649 0.93246,0.12125 1.74104,0.12528 1.42934,0.007 1.48797,-0.002 2.11304,-0.32066 z m 7.13876,0.22906 c 0.0336,-0.0544 0.268121,-0.13317 0.521111,-0.17501 0.69723,-0.11534 1.71378,-0.63477 2.15097,-1.09909 0.21486,-0.22821 0.49874,-0.65874 0.63084,-0.95673 0.13209,-0.29799 0.28544,-0.62648 0.34077,-0.72997 0.0553,-0.10349 0.10059,-0.80346 0.10059,-1.5555 0,-1.25137 -0.0236,-1.41423 -0.27771,-1.92025 -0.82194,-1.63644 -1.54841,-2.23452 -3.13566,-2.58146 -0.831971,-0.18185 -5.255521,-0.26196 -5.255521,-0.0952 0,0.0633 0.10971,0.1573 0.24381,0.20882 0.1341,0.0515 0.37791,0.21865 0.5418,0.3714 l 0.298,0.27775 -10e-4,3.60818 c -8.7e-4,1.9845 -0.0304,3.71607 -0.0658,3.84793 -0.0385,0.14345 -0.2555,0.33232 -0.54033,0.47021 -0.26183,0.12674 -0.47605,0.27486 -0.47605,0.32914 0,0.13011 4.8442,0.12987 4.92461,-2.1e-4 z m -1.37853,-0.53414 c -0.47429,-0.18745 -0.51197,-0.49671 -0.51197,-4.20138 0,-3.36487 0.009,-3.51828 0.21672,-3.72608 0.42172,-0.42171 1.21426,-0.24696 1.945701,0.42901 0.44051,0.4071 0.60915,0.66531 0.81007,1.24029 0.13955,0.39939 0.28366,0.75608 0.32022,0.79264 0.11737,0.11737 0.0709,2.76427 -0.0556,3.16515 -0.34948,1.1078 -0.4715,1.38734 -0.7244,1.65946 -0.551391,0.5933 -1.418461,0.87106 -2.000751,0.64091 z m 0.73419,-0.34217 c 0.0368,-0.0596 0.21038,-0.10836 0.38566,-0.10836 0.21103,0 0.31868,-0.0549 0.31868,-0.16255 0,-0.0894 0.0612,-0.16254 0.136091,-0.16254 0.13066,0 0.30678,-0.32328 0.45753,-0.8398 0.0391,-0.13409 0.11663,-0.24381 0.17221,-0.24381 0.0589,0 0.10106,-0.83704 0.10106,-2.00468 0,-1.20078 -0.0415,-2.00468 -0.10345,-2.00468 -0.0569,0 -0.13547,-0.17067 -0.1746,-0.37927 -0.0391,-0.20859 -0.11449,-0.37926 -0.16745,-0.37926 -0.053,0 -0.0963,-0.0536 -0.0963,-0.1192 0,-0.0656 -0.16062,-0.27981 -0.356931,-0.47612 -0.27503,-0.27504 -0.46771,-0.36578 -0.8398,-0.39552 l -0.48287,-0.0386 -0.0286,3.56301 c -0.0204,2.53909 0.007,3.60564 0.0945,3.71137 0.14364,0.17307 0.48743,0.19661 0.58422,0.04 z m -38.92406,0.80604 c -1.95099,-0.42773 -3.31929,-1.9148 -3.60308,-3.91582 -0.23069,-1.62653 0.28381,-3.13847 1.44011,-4.23206 0.68683,-0.64957 1.23824,-0.94727 2.15485,-1.16338 1.02938,-0.24269 1.68386,-0.20464 2.77644,0.1614 0.53367,0.1788 1.0693,0.32509 1.19028,0.32509 0.12099,0 0.33956,-0.15279 0.4857,-0.33954 0.43065,-0.55026 0.50852,-0.34796 0.50852,1.32118 0,1.75393 -0.0933,1.88476 -0.64574,0.90584 -0.48238,-0.85472 -1.12479,-1.51142 -1.80325,-1.84336 -0.76493,-0.37424 -1.8466,-0.34923 -2.41549,0.0559 -0.98,0.69782 -1.36498,2.02435 -1.2869,4.4342 0.0702,2.16542 0.37183,2.95598 1.41678,3.71294 0.38314,0.27755 0.52325,0.31342 1.22402,0.31342 0.43524,0 0.91414,-0.0559 1.06421,-0.12432 0.39101,-0.17816 0.52907,-0.71092 0.47535,-1.83434 -0.0539,-1.12816 -0.18781,-1.34217 -0.90711,-1.45003 -0.26459,-0.0397 -0.48107,-0.11792 -0.48107,-0.17387 0,-0.0602 0.95021,-0.10172 2.32976,-0.10172 1.28137,0 2.32977,0.041 2.32977,0.0912 0,0.0502 -0.19329,0.14912 -0.42952,0.2199 -0.66506,0.19925 -0.76245,0.4239 -0.76245,1.7586 0,0.79421 -0.0423,1.18808 -0.13546,1.26188 -0.405,0.3208 -2.63537,0.79351 -3.65719,0.77511 -0.32779,-0.006 -0.89863,-0.0771 -1.26853,-0.15818 z m 18.29207,-0.0527 c -0.96437,-0.25254 -1.51948,-0.56699 -2.20492,-1.24899 -1.7877,-1.77874 -1.72724,-5.0334 0.12635,-6.80142 0.70578,-0.6732 0.9782,-0.82906 1.99789,-1.14306 2.6747,-0.82364 5.50844,0.68509 6.18814,3.29466 0.69686,2.67541 -0.7696,5.24276 -3.37528,5.90918 -1.02553,0.26229 -1.70079,0.25972 -2.73218,-0.0104 z m 2.66268,-0.60404 c 0.54028,-0.43729 0.86526,-1.08901 1.06529,-2.13641 0.27191,-1.42376 0.17031,-3.41525 -0.23262,-4.55954 -0.21588,-0.61308 -0.65332,-1.21574 -1.06881,-1.47254 -0.51427,-0.31783 -1.62714,-0.30251 -2.11932,0.0292 -0.56717,0.38222 -0.94547,1.0213 -1.19725,2.02261 -0.20039,0.79692 -0.22256,1.12193 -0.17368,2.54649 0.0765,2.23009 0.37757,3.07035 1.32283,3.69216 0.38653,0.25427 0.5201,0.28175 1.21207,0.24938 0.67913,-0.0318 0.8301,-0.0788 1.19149,-0.37132 z m -50.911947,-2.18106 c -1.323578,-1.59426 -2.718611,-3.27657 -3.100072,-3.73846 -0.381462,-0.46189 -0.738122,-0.8398 -0.792578,-0.8398 -0.150705,0 -0.127625,5.99523 0.02437,6.32881 0.123569,0.27121 0.678312,0.60631 1.003703,0.60631 0.09529,0 0.173256,0.0745 0.173256,0.16552 0,0.14207 -0.217437,0.16126 -1.535257,0.13545 -1.109826,-0.0217 -1.54773,-0.0676 -1.580268,-0.16552 -0.02565,-0.0772 0.04514,-0.13545 0.164572,-0.13545 0.407094,0 0.863714,-0.23079 0.985515,-0.49812 0.08402,-0.18441 0.123298,-1.3852 0.123298,-3.7698 v -3.49919 l -0.297994,-0.38697 c -0.163896,-0.21284 -0.43209,-0.46726 -0.595986,-0.56539 -0.163897,-0.0981 -0.297994,-0.22441 -0.297994,-0.28064 0,-0.059 0.616696,-0.10223 1.458561,-0.10223 h 1.458561 l 1.115018,1.37062 c 0.613259,0.75384 1.235756,1.52185 1.383325,1.70669 1.077253,1.34931 2.305678,2.77419 2.391697,2.77419 0.149138,0 0.133738,-4.43124 -0.0169,-4.86337 -0.124291,-0.35654 -0.567201,-0.66305 -0.958122,-0.66305 -0.125184,0 -0.222103,-0.0709 -0.222103,-0.16254 0,-0.1365 0.235786,-0.16254 1.471906,-0.16254 1.093564,0 1.460808,0.0333 1.428725,0.12954 -0.02375,0.0713 -0.17934,0.16596 -0.345757,0.21047 -0.166417,0.0445 -0.394861,0.16444 -0.507655,0.26651 -0.194821,0.17631 -0.205079,0.40698 -0.205079,4.61161 0,3.83218 -0.02148,4.42602 -0.160114,4.42602 -0.08806,0 -1.243042,-1.3044 -2.56662,-2.89867 z m 16.594467,2.65206 c -1.36071,-0.46397 -2.22511,-1.18323 -2.80213,-2.33166 -0.98468,-1.95981 -0.63239,-4.35707 0.85946,-5.84845 1.486,-1.48554 3.78765,-1.83364 5.84718,-0.88434 1.18375,0.54562 2.13329,1.69653 2.48873,3.01654 0.21729,0.80696 0.15944,2.36333 -0.11538,3.10386 -0.41713,1.12401 -1.2945,2.15323 -2.25192,2.64167 -1.15881,0.59118 -2.81428,0.71552 -4.02594,0.30238 z m 2.60101,-0.38761 c 0.48432,-0.22924 1.03105,-0.95511 1.26029,-1.67324 0.23838,-0.74675 0.33279,-3.4203 0.15304,-4.33394 -0.37751,-1.91886 -1.12844,-2.78479 -2.41566,-2.78562 -1.43248,-9.8e-4 -2.20293,1.0816 -2.48691,3.49424 -0.2073,1.76121 0.10294,3.66819 0.75772,4.65764 0.57363,0.8668 1.69728,1.13045 2.73152,0.64092 z m 16.82803,0.37829 c -0.0821,-0.13303 0.19211,-0.28227 0.52222,-0.28422 0.63486,-0.004 0.63987,-0.0365 0.63987,-4.18848 0,-4.2054 0.0114,-4.13641 -0.7043,-4.25275 -0.22863,-0.0372 -0.43595,-0.12834 -0.46071,-0.20263 -0.0354,-0.10622 0.8137,-0.13506 3.97671,-0.13506 h 4.02173 l -0.0304,1.32743 c -0.0167,0.73008 -0.0751,1.32742 -0.12976,1.32742 -0.0546,0 -0.19184,-0.27752 -0.3049,-0.61671 -0.24592,-0.73774 -0.82189,-1.31232 -1.51304,-1.50935 -0.66012,-0.18819 -2.17378,-0.18869 -2.40037,-7.6e-4 -0.15354,0.12727 -0.17935,0.40408 -0.17935,1.92337 v 1.77469 h 0.43693 c 0.92602,0 1.49197,-0.47151 1.73781,-1.44783 0.25677,-1.01973 0.37052,-0.52206 0.40108,1.75477 0.0251,1.86736 0.006,2.18537 -0.13054,2.18537 -0.0996,0 -0.18712,-0.15309 -0.23221,-0.40636 -0.10022,-0.56299 -0.44396,-1.15147 -0.79306,-1.35769 -0.16135,-0.0953 -0.54685,-0.20691 -0.85668,-0.24801 l -0.56333,-0.0747 0.002,1.88319 c 8.7e-4,1.03576 0.0476,1.95588 0.10379,2.04473 0.0726,0.11482 0.35085,0.17282 0.96233,0.20059 1.58961,0.0722 2.61352,-0.43003 3.40372,-1.66951 0.2445,-0.38351 0.50308,-0.6973 0.57461,-0.6973 0.13128,0 0.10118,0.21879 -0.28697,2.08596 l -0.12952,0.62307 -2.77535,0.006 c -1.52643,0.003 -3.3286,0.0154 -4.00482,0.0271 -0.67621,0.0117 -1.25542,-0.0208 -1.28712,-0.0721 z m -31.617647,-0.0699 c -0.0721,-0.11666 0.0026,-0.15416 0.59646,-0.29937 0.647727,-0.15839 0.654277,-0.20497 0.623627,-4.43692 -0.0309,-4.26592 -0.003,-4.11697 -0.805901,-4.24754 -0.227542,-0.037 -0.413713,-0.11518 -0.413713,-0.17377 0,-0.0674 1.483424,-0.11696 4.036454,-0.13493 l 4.03646,-0.0284 v 1.35584 c 0,1.09543 -0.0294,1.35583 -0.15302,1.35583 -0.0944,0 -0.18142,-0.16811 -0.22713,-0.43867 -0.096,-0.56829 -0.64714,-1.29159 -1.19325,-1.56601 -0.33087,-0.16626 -0.70051,-0.22521 -1.58754,-0.25317 -1.54558,-0.0487 -1.51498,-0.0936 -1.47441,2.16199 l 0.03,1.6671 0.37927,0.036 c 0.9344,0.0888 1.52272,-0.36201 1.83818,-1.4086 0.0916,-0.30383 0.21526,-0.55816 0.27486,-0.56518 0.0684,-0.008 0.11914,0.8356 0.13761,2.28991 0.0239,1.88419 0.002,2.30268 -0.11821,2.30268 -0.0905,0 -0.19954,-0.23273 -0.28236,-0.60281 -0.1637,-0.7315 -0.62455,-1.29806 -1.18174,-1.45282 -0.57558,-0.15987 -0.96024,-0.13766 -1.03601,0.0598 -0.0832,0.21675 -0.084,3.2715 -9.8e-4,3.58093 0.0888,0.33085 0.48976,0.47375 1.32928,0.47375 1.40611,0 2.4448,-0.52315 3.12679,-1.57484 0.54318,-0.83762 0.65361,-0.97636 0.72334,-0.90873 0.0686,0.0666 -0.0478,0.83193 -0.32409,2.13139 l -0.16705,0.78562 h -4.04976 c -2.60189,0 -4.073873,-0.039 -4.117204,-0.10912 z m 19.628467,-3.90811 c -0.58828,-0.46273 -0.21242,-1.40083 0.56126,-1.40083 0.71942,0 1.05808,0.89168 0.52784,1.38981 -0.31565,0.29654 -0.72091,0.30064 -1.0891,0.011 z m 1.17736,-8.57496 -7.04348,-0.0945 -1.35508,-1.3774 c -0.74529,-0.75758 -3.31751,-3.38251 -5.71605,-5.8332 l -4.36098,-4.45578 v -8.00622 -8.00621 l 4.76786,-4.76693 4.76786,-4.76693 5.17428,5.24079 5.17428,5.24078 2.32977,-2.47717 c 1.28137,-1.36245 2.74792,-2.91644 3.259,-3.45333 0.51108,-0.53688 1.67635,-1.76854 2.5895,-2.73702 l 1.66027,-1.76087 7.37973,0.006 7.37973,0.006 5.39141,5.33094 5.39141,5.33095 -0.003,7.42274 -0.003,7.42274 -4.44546,4.65954 c -2.44501,2.56274 -4.68224,4.89818 -4.97164,5.18988 l -0.52617,0.53034 -3.72231,-3.78118 c -2.04727,-2.07965 -4.06508,-4.1387 -4.48402,-4.57566 l -0.76171,-0.79447 -4.22077,4.64129 c -5.99086,6.58774 -5.39484,5.9994 -6.05572,5.97772 -0.30345,-0.01 -3.72129,-0.0606 -7.5952,-0.11256 z m 12.24039,-6.25439 c 2.44111,-2.73148 4.45752,-5.02375 4.48091,-5.09392 0.0234,-0.0702 -1.0027,-1.1855 -2.2802,-2.47849 -1.2775,-1.293 -2.70877,-2.75366 -3.18058,-3.24592 l -0.85785,-0.89501 -4.06354,-0.0582 c -2.23495,-0.032 -4.26661,-0.0827 -4.51479,-0.11258 l -0.45125,-0.0544 -0.0614,-0.88873 c -0.0338,-0.48881 -0.0839,-2.12586 -0.11127,-3.63789 l -0.0499,-2.74915 -5.03544,-4.97159 c -2.76949,-2.73437 -5.08043,-4.97158 -5.13542,-4.97158 -0.055,0 -0.65575,0.57296 -1.33503,1.27325 -0.67927,0.70028 -2.45931,2.52473 -3.95562,4.05432 l -2.72058,2.78109 -0.0719,3.2777 c -0.0395,1.80274 -0.0701,5.25684 -0.0679,7.67577 l 0.004,4.39807 1.97365,2.01026 c 1.0855,1.10564 3.4075,3.48195 5.15999,5.28069 l 3.18634,3.27043 2.5568,0.0311 c 1.40624,0.0171 4.70235,0.0401 7.32469,0.0511 l 4.7679,0.02 z m -15.50387,0.32237 c -0.31236,-0.0746 -2.34499,-1.52819 -2.25931,-1.61573 0.021,-0.0214 0.37006,0.0873 0.77577,0.24155 0.87979,0.33452 0.78347,0.32372 2.69494,0.30219 l 1.52383,-0.0172 1.31449,-1.21907 c 0.76177,-0.70646 1.58592,-1.5957 1.95999,-2.11477 0.55069,-0.76415 0.66367,-1.00288 0.76919,-1.62542 0.068,-0.40134 0.20699,-1.19295 0.30881,-1.75914 l 0.18513,-1.02943 0.0705,0.92107 c 0.0388,0.50659 0.0722,1.5306 0.0743,2.27559 l 0.004,1.35451 -0.50771,1.04692 c -0.47807,0.98582 -0.57687,1.10894 -1.69285,2.10952 l -1.18515,1.06259 -0.71117,0.0792 c -0.90273,0.10057 -2.88211,0.0932 -3.32449,-0.0125 z m -8.99803,-11.94908 c -0.29788,-0.0959 -0.35114,-0.17243 -0.41468,-0.59617 -0.061,-0.40692 -0.0357,-0.52581 0.15553,-0.72934 0.46818,-0.49835 0.65866,-0.53326 1.51613,-0.2779 0.7096,0.21133 0.77949,0.25681 0.7223,0.47003 -0.0348,0.12984 -0.064,0.38564 -0.0648,0.56845 -0.001,0.30628 -0.0469,0.34671 -0.5799,0.51472 -0.644,0.203 -0.83724,0.21027 -1.33459,0.0502 z m 6.24746,-4.1148 c -0.26819,-0.30409 -0.52385,-0.61389 -0.56812,-0.68846 -0.11388,-0.19181 0.92962,-2.49166 1.1213,-2.47132 0.0831,0.009 0.44714,0.0746 0.80887,0.14611 l 0.65771,0.13006 0.51054,0.85194 0.51055,0.85194 -0.43802,0.87118 -0.43802,0.87119 -0.83859,-0.005 -0.83859,-0.005 -0.48763,-0.55288 z m 33.92971,10.55063 c 0.0368,-0.0401 0.19779,-0.80287 0.35785,-1.69501 0.16006,-0.89214 0.30636,-1.6374 0.3251,-1.65614 0.0187,-0.0187 0.58344,-0.12833 1.2549,-0.24353 0.67146,-0.11521 1.24002,-0.22865 1.26348,-0.25211 0.0446,-0.0446 -0.8129,-6.702 -0.87064,-6.75973 -0.05,-0.05 -4.17298,0.43542 -4.28404,0.50439 -0.0531,0.033 -0.15082,0.71825 -0.21714,1.52283 -0.19358,2.34854 -0.17329,2.27069 -0.78107,2.9981 l -0.54791,0.65578 -1.00473,0.18912 c -0.5526,0.10402 -1.06895,0.22882 -1.14745,0.27733 -0.1165,0.072 -0.12008,0.34358 -0.0195,1.47841 l 0.12327,1.39021 0.89836,0.86849 0.89837,0.86849 1.84214,-0.0368 c 1.01317,-0.0203 1.87221,-0.0697 1.90897,-0.10979 z m -12.22631,-10.73735 c 0.58333,-0.10885 1.09028,-0.2276 1.12657,-0.26389 0.0363,-0.0363 0.11405,-0.55162 0.1728,-1.14518 l 0.10682,-1.07919 -0.95269,-1.08193 -0.95269,-1.08194 -0.89469,-0.0745 c -0.49208,-0.041 -0.95455,-0.0546 -1.02771,-0.0302 -0.0732,0.0244 -0.37392,0.7003 -0.66835,1.50202 l -0.53533,1.45769 1.05576,1.00234 c 0.65883,0.62549 1.14096,1.00053 1.28234,0.99752 0.12462,-0.003 0.70385,-0.0939 1.28717,-0.20273 z m 5.6849,-6.58106 0.56889,-0.0683 v -0.45741 c 0,-1.58073 -0.27608,-1.89635 -1.65877,-1.89635 h -0.82048 l -0.42194,0.80524 -0.42195,0.80524 0.44091,0.44091 c 0.41826,0.41826 0.47442,0.44087 1.09268,0.43997 0.35847,-5.2e-4 0.90776,-0.0317 1.22066,-0.0693 z"
       id="path400" />
  </g>
</svg>
