<?xml version="1.0" encoding="UTF-8" standalone="no"?>
<!-- Created with Inkscape (http://www.inkscape.org/) -->

<svg
   xmlns:dc="http://purl.org/dc/elements/1.1/"
   xmlns:cc="http://creativecommons.org/ns#"
   xmlns:rdf="http://www.w3.org/1999/02/22-rdf-syntax-ns#"
   xmlns:svg="http://www.w3.org/2000/svg"
   xmlns="http://www.w3.org/2000/svg"
   xmlns:sodipodi="http://sodipodi.sourceforge.net/DTD/sodipodi-0.dtd"
   xmlns:inkscape="http://www.inkscape.org/namespaces/inkscape"
   width="500"
   height="200"
   viewBox="0 0 132.29166 52.916668"
   version="1.1"
   id="svg8"
   inkscape:version="0.92.5 (2060ec1f9f, 2020-04-08)"
   sodipodi:docname="neogeocd_.svg">
  <defs
     id="defs2" />
  <sodipodi:namedview
     id="base"
     pagecolor="#ffffff"
     bordercolor="#666666"
     borderopacity="1.0"
     inkscape:pageopacity="0.0"
     inkscape:pageshadow="2"
     inkscape:zoom="1.53125"
     inkscape:cx="338.27912"
     inkscape:cy="146.51059"
     inkscape:document-units="mm"
     inkscape:current-layer="layer1"
     showgrid="false"
     units="px"
     inkscape:pagecheckerboard="true"
     inkscape:window-width="1366"
     inkscape:window-height="740"
     inkscape:window-x="0"
     inkscape:window-y="0"
     inkscape:window-maximized="1"
     showguides="true"
     inkscape:guide-bbox="true">
    <sodipodi:guide
       position="124.06258,-2.5918368"
       orientation="1,0"
       id="guide523"
       inkscape:locked="false" />
  </sodipodi:namedview>
  <metadata
     id="metadata5">
    <rdf:RDF>
      <cc:Work
         rdf:about="">
        <dc:format>image/svg+xml</dc:format>
        <dc:type
           rdf:resource="http://purl.org/dc/dcmitype/StillImage" />
        <dc:title></dc:title>
      </cc:Work>
    </rdf:RDF>
  </metadata>
  <g
     inkscape:label="Layer 1"
     inkscape:groupmode="layer"
     id="layer1"
     transform="translate(0,-244.08332)">
    <path
       inkscape:connector-curvature="0"
       id="path493"
       d="m 29.607066,285.03661 c -0.415339,-0.46596 -1.916046,-2.29118 -3.334905,-4.05603 l -2.579744,-3.20883 -0.06252,3.20449 c -0.03439,1.76247 -0.01174,3.33684 0.05034,3.49859 0.06207,0.16175 0.367805,0.39101 0.679414,0.5095 1.101671,0.41884 0.592896,0.67516 -1.340205,0.67516 -1.121627,0 -1.906767,-0.0924 -1.906767,-0.22433 0,-0.12338 0.08191,-0.22433 0.182027,-0.22433 0.100114,0 0.402954,-0.20582 0.672976,-0.45738 0.469851,-0.43774 0.49095,-0.63055 0.49095,-4.48652 0,-3.64049 -0.04057,-4.06969 -0.42061,-4.44972 -0.231336,-0.23135 -0.559412,-0.47603 -0.729058,-0.54375 -0.680674,-0.2717 0.398593,-0.59913 1.985968,-0.6025 l 1.621439,-0.004 2.304259,2.90399 c 1.267343,1.59721 2.379969,2.90951 2.472503,2.91624 0.09253,0.006 0.168244,-0.99037 0.168244,-2.21576 v -2.22798 l -0.69026,-0.49151 c -0.405614,-0.28882 -0.607558,-0.5742 -0.489712,-0.69205 0.110824,-0.11083 2.853453,-0.17376 6.130156,-0.14067 l 5.929608,0.0598 0.06591,1.62637 c 0.05307,1.30943 0.0018,1.62636 -0.263011,1.62636 -0.180905,0 -0.446101,-0.35507 -0.589325,-0.78905 -0.326718,-0.98996 -1.182134,-1.45421 -2.67948,-1.45421 h -1.132769 v 1.90676 c 0,1.20004 0.08861,1.90677 0.239074,1.90677 0.58369,0 1.111525,-0.52426 1.358806,-1.34961 0.147257,-0.49151 0.403183,-0.89364 0.568722,-0.89364 0.234953,0 0.30098,0.58762 0.30098,2.67867 0,1.47646 -0.09702,2.73862 -0.216174,2.81226 -0.118896,0.0735 -0.446972,-0.34958 -0.729059,-0.94014 -0.355432,-0.74412 -0.667831,-1.09575 -1.017616,-1.14543 -0.489662,-0.0695 -0.504733,-0.0144 -0.504733,1.84641 0,1.86023 0.01697,1.92235 0.562289,2.05922 1.433724,0.35984 3.281927,-0.44384 3.926582,-1.70748 0.809599,-1.58694 1.15334,-1.10504 0.790521,1.10826 l -0.241974,1.47612 -4.649801,0.0606 c -3.122596,0.0407 -4.649802,-0.0164 -4.649802,-0.17379 0,-0.12894 0.238567,-0.32514 0.530149,-0.43599 0.291582,-0.11087 0.593044,-0.43644 0.669914,-0.72352 0.179678,-0.67099 0.182907,-7.53934 0.0039,-8.20754 -0.162319,-0.60575 -0.979011,-0.86275 -1.63168,-0.51346 -0.453497,0.2427 -0.469545,0.41139 -0.469545,4.93589 0,4.51824 -0.07252,5.39427 -0.446548,5.39427 -0.09582,0 -0.514045,-0.38125 -0.929384,-0.8472 z m 16.405747,0.62288 c -0.185068,-0.11961 -0.545448,-0.21901 -0.800842,-0.22089 -0.730713,-0.005 -2.348983,-1.54974 -2.928862,-2.79504 -1.560511,-3.35122 0.338518,-7.24732 3.893261,-7.98752 3.229485,-0.67246 6.228568,1.02949 7.000732,3.97286 l 0.24476,0.93298 0.65257,-0.65257 c 0.810096,-0.8101 1.639724,-0.84194 2.389916,-0.0917 0.308447,0.30844 0.590721,0.56081 0.627273,0.56081 0.03655,0 0.190387,-0.41364 0.341856,-0.9192 0.335196,-1.11879 1.809537,-2.76822 3.031657,-3.3917 1.249593,-0.63749 3.401519,-0.77944 4.813743,-0.31753 1.329971,0.43502 1.752587,0.45796 1.871384,0.10156 0.05027,-0.1508 0.255447,-0.20051 0.476843,-0.11556 0.330771,0.12693 0.378852,0.4084 0.323036,1.89104 -0.07752,2.05905 -0.321861,2.1978 -1.261402,0.71629 -0.770928,-1.21563 -1.814659,-1.77844 -3.298104,-1.77844 -0.920996,0 -1.158489,0.10312 -1.797158,0.78031 -1.464525,1.55284 -1.640064,5.91106 -0.306377,7.60656 0.553003,0.70303 1.80481,1.12113 2.798548,0.9347 l 0.770517,-0.14454 v -1.45277 c 0,-1.3307 -0.04697,-1.47415 -0.559059,-1.70748 -0.433846,-0.19768 -0.50306,-0.32221 -0.309022,-0.55601 0.178204,-0.21471 0.882833,-0.30127 2.452589,-0.30127 2.335852,0 2.944795,0.25425 2.042993,0.85303 -0.413355,0.27445 -0.486942,0.53538 -0.486942,1.7266 0,1.60744 -0.188772,1.85968 -1.630462,2.17863 -3.220601,0.71251 -5.789458,0.31824 -7.40265,-1.13617 -0.94529,-0.85224 -1.721129,-2.25059 -1.729591,-3.11737 -0.0061,-0.61939 -0.115593,-0.62669 -0.841017,-0.056 -0.830251,0.65308 -1.707728,0.57725 -2.365449,-0.20441 l -0.549516,-0.65306 -0.267946,1.19731 c -0.283752,1.26793 -1.233692,2.78181 -2.102963,3.35137 -1.280374,0.83893 -4.297861,1.31002 -5.094316,0.79531 z m 2.874323,-1.17905 c 0.789538,-0.65317 1.153686,-2.01576 1.153686,-4.31693 0,-3.30488 -0.691461,-4.59868 -2.457729,-4.59868 -1.032044,0 -1.562708,0.37319 -2.020943,1.42123 -0.849545,1.943 -0.749182,5.61319 0.188035,6.87625 0.814313,1.09743 2.222241,1.37485 3.136951,0.61813 z m 33.272011,1.05137 c -1.386536,-0.43547 -2.297226,-1.20566 -3.040623,-2.57152 -1.5362,-2.82251 -0.426845,-6.40932 2.449898,-7.92112 0.652031,-0.34267 0.599669,-0.35396 -1.682442,-0.36305 l -2.355419,-0.009 v 1.60711 c 0,1.83327 -0.352851,2.24187 -0.869066,1.00639 -0.471992,-1.12963 -1.202915,-1.52983 -2.64366,-1.44744 l -1.198111,0.0685 -0.06661,1.66071 c -0.03663,0.91338 0.0339,1.7612 0.156726,1.88403 0.358591,0.35859 1.332054,-0.42715 1.544385,-1.24657 0.10374,-0.40034 0.333619,-0.72789 0.510846,-0.72789 0.262185,0 0.322228,0.50159 0.322228,2.69191 0,2.10337 -0.06587,2.69191 -0.301262,2.69191 -0.165696,0 -0.43661,-0.3937 -0.602032,-0.87489 -0.32186,-0.93622 -0.68772,-1.29231 -1.2278,-1.19504 -0.265013,0.0478 -0.336488,0.43067 -0.336488,1.80275 0,2.05422 0.165532,2.24907 1.766897,2.07971 1.345575,-0.14229 1.992728,-0.54892 2.72842,-1.71432 0.751615,-1.19064 1.06854,-0.95402 0.873827,0.65239 -0.264926,2.18571 0.05969,2.05346 -5.040548,2.05346 -4.453691,0 -5.18999,-0.13415 -3.917805,-0.71379 l 0.560814,-0.25552 v -4.45531 -4.45532 l -0.560814,-0.25552 c -0.308449,-0.14054 -0.560815,-0.39075 -0.560815,-0.55601 0,-0.23794 0.711501,-0.30048 3.418808,-0.30048 h 3.418809 l -4.372193,-4.37651 -4.372191,-4.37651 v -6.06594 -6.06594 l 3.61566,-3.5779 c 1.988613,-1.96784 3.743368,-3.5779 3.899456,-3.5779 0.156088,0 2.017706,1.71609 4.13693,3.81354 2.119224,2.09744 3.949422,3.81353 4.067109,3.81353 0.117685,0 1.624521,-1.41325 3.348518,-3.14055 l 3.13455,-3.14056 h 5.283048 5.283046 l 3.861227,3.88414 3.86123,3.88415 v 5.36175 5.36175 l -3.70352,3.70352 -3.703517,3.70353 -2.914259,-2.90779 -2.914253,-2.90778 -3.196468,3.18063 c -2.070988,2.06071 -3.426081,3.23635 -3.848571,3.33889 l -0.652085,0.15825 0.797347,0.40907 c 1.078551,0.55333 2.369183,2.10881 2.668303,3.21586 0.426754,1.57945 0.458938,1.60221 0.740855,0.52437 0.489088,-1.86991 1.980828,-3.52599 3.785966,-4.20307 0.829946,-0.31129 3.038322,-0.30272 3.950702,0.0154 0.535592,0.18671 0.788929,0.18671 0.97564,0 0.354973,-0.35497 7.11993,-0.3364 8.31894,0.0228 1.94492,0.58271 3.28413,2.76225 3.28413,5.34487 0,2.38049 -0.97454,4.09972 -2.80406,4.94676 -1.22092,0.56527 -7.96356,0.64046 -7.96356,0.0888 0,-0.44611 -0.445687,-0.42578 -1.126954,0.0514 -0.430628,0.30163 -1.027959,0.38785 -2.685744,0.38772 -2.294896,-1.9e-4 -3.372575,-0.36195 -4.417357,-1.48284 -0.561943,-0.60288 -1.403725,-2.35565 -1.411034,-2.93807 -0.0076,-0.58452 -0.452766,-0.47555 -0.458498,0.11216 -0.0085,0.82872 -0.780576,2.28133 -1.675281,3.15025 -1.405701,1.36521 -3.946089,1.84195 -6.14128,1.15252 z m 3.080744,-0.86633 c 1.021568,-0.52827 1.488018,-1.90188 1.488018,-4.38191 0,-2.5078 -0.134417,-3.09822 -0.917173,-4.02847 -0.483622,-0.57474 -0.743084,-0.69027 -1.550407,-0.69027 -0.807323,0 -1.066784,0.11553 -1.550404,0.69027 -0.788147,0.93666 -0.917249,1.51866 -0.91674,4.13273 4.48e-4,2.52215 0.395627,3.69878 1.431092,4.2615 0.754961,0.41027 1.24586,0.41421 2.015614,0.0161 z m 11.021852,0.21188 c 0,-0.06 -0.338296,-0.25051 -0.751782,-0.42327 -1.349505,-0.56386 -2.170431,-2.2851 -2.153347,-4.51491 0.01501,-1.95882 0.695826,-3.3016 2.119993,-4.1813 l 0.672978,-0.4157 -0.625829,-8.4e-4 c -0.808887,-8.5e-4 -2.131516,0.68408 -2.881689,1.49281 -0.959116,1.03404 -1.360349,2.04911 -1.360349,3.44157 0,1.82794 0.781271,3.25951 2.175433,3.98619 0.975216,0.50831 2.804592,0.90978 2.804592,0.61549 z m 8.300047,-0.32626 c 0,-0.11609 -0.10468,-0.27578 -0.23263,-0.35487 -0.14939,-0.0923 -0.22315,-1.72291 -0.2061,-4.55583 l 0.0265,-4.41205 h -0.9385 -0.9385 l -0.0331,4.76693 -0.0331,4.76694 1.17771,-1e-5 c 0.64774,-10e-6 1.17771,-0.095 1.17771,-0.21111 z m 3.31774,-0.43803 c 1.54501,-0.78853 2.2904,-2.13023 2.2904,-4.12264 0,-2.28649 -1.41627,-4.19473 -3.39061,-4.5684 l -0.75941,-0.14373 0.60499,0.648 c 0.98543,1.05546 1.3619,2.2359 1.3514,4.23721 -0.0106,2.01945 -0.26052,2.86142 -1.11532,3.75745 -0.48343,0.50674 -0.51934,0.61689 -0.20112,0.61689 0.21306,0 0.76192,-0.19114 1.21967,-0.42478 z m -6.57045,-4.02434 c 0,-2.41488 -0.0837,-3.85251 -0.22433,-3.85518 -0.12338,-0.003 -0.2748,0.57809 -0.33649,1.28986 -0.10398,1.19977 -0.15293,1.29415 -0.67122,1.29415 -0.418857,0 -0.651827,-0.19688 -0.929115,-0.78514 -0.572737,-1.21509 -1.220217,-1.68245 -2.330836,-1.68245 -1.800005,0 -2.73043,1.57952 -2.516646,4.27232 0.133425,1.68062 0.613526,2.64583 1.498336,3.01233 1.084148,0.44907 2.160998,0.11426 3.419943,-1.06335 1.235158,-1.15534 1.560268,-1.07012 1.511938,0.39631 -0.0364,1.10238 -0.0173,1.17063 0.29801,1.06555 0.20981,-0.07 0.28041,-1.06306 0.28041,-3.9444 z m 5.25174,2.85765 c 1.23129,-2.0247 0.45071,-6.70857 -1.118,-6.70857 -0.40948,0 -0.43237,0.19601 -0.43237,3.70137 v 3.70138 h 0.56411 c 0.39012,0 0.69431,-0.21411 0.98626,-0.69418 z m -6.621337,-6.80145 c -0.0838,-0.21826 -0.40359,-0.35577 -0.827472,-0.35577 H 98.42107 l 0.648023,0.6764 c 0.51567,0.53823 0.68469,0.6109 0.82748,0.35576 0.0987,-0.17634 0.117997,-0.48073 0.0429,-0.67639 z m -77.660825,-5.12269 0.0678,-1.17771 4.543196,-0.11216 c 5.694345,-0.14058 6.102713,-0.51498 0.73404,-0.67298 l -3.811241,-0.11216 -0.701396,-0.70177 c -1.231445,-1.23211 -1.134263,-3.53321 0.193321,-4.57749 0.522709,-0.41116 0.93185,-0.44104 6.03815,-0.44104 h 5.477447 l -0.0678,1.17771 -0.0678,1.1777 -4.374351,0.0576 c -4.810317,0.0633 -5.133724,0.10582 -4.708634,0.61802 0.225144,0.27128 0.982114,0.33384 4.039887,0.33384 h 3.76283 l 0.720603,0.82072 c 0.674144,0.7678 0.714337,0.90736 0.623407,2.16444 -0.08442,1.16707 -0.191305,1.4278 -0.813066,1.98335 l -0.715871,0.63962 h -5.504164 -5.504161 z m 13.515051,0.89008 c -0.06071,-0.15819 -0.08278,-2.15188 -0.04903,-4.43042 l 0.06133,-4.14281 1.613892,-0.0656 1.613892,-0.0656 2.953404,2.73083 c 2.241703,2.07278 3.000679,2.6562 3.149592,2.42109 0.107904,-0.17038 0.197735,-1.39956 0.199625,-2.73152 l 0.0034,-2.42174 1.514197,0.0663 1.514199,0.0663 v 4.37435 4.37435 l -1.682442,0.0586 -1.682442,0.0586 -2.691907,-2.57123 c -1.48055,-1.41417 -2.868564,-2.57619 -3.084477,-2.58225 -0.351758,-0.01 -0.39257,0.25716 -0.39257,2.56872 v 2.57974 h -1.465157 c -0.984795,0 -1.501343,-0.0943 -1.575529,-0.28763 z m 13.499517,-0.0575 c -0.208908,-0.5444 -0.162173,-8.02097 0.05226,-8.35902 0.128636,-0.20281 0.624534,-0.27134 1.622927,-0.22433 l 1.437688,0.0678 0.06552,1.73852 c 0.0396,1.05057 0.161019,1.73852 0.306857,1.73852 0.132738,0 1.302056,-0.80758 2.598486,-1.79461 l 2.357149,-1.7946 h 1.906056 c 2.285758,0 2.314904,-0.0727 -0.956348,2.38718 -1.289346,0.96956 -2.345258,1.91426 -2.346474,2.09933 -0.0011,0.18507 1.18316,1.24501 2.631947,2.35542 l 2.63416,2.01894 -1.970416,0.065 -1.970417,0.065 -2.328864,-1.80346 c -1.280874,-0.99189 -2.434107,-1.80344 -2.56274,-1.80344 -0.136532,0 -0.261149,0.72363 -0.299396,1.73853 l -0.06552,1.73852 -1.486506,0.0657 c -1.205228,0.0532 -1.512969,-0.004 -1.62636,-0.29875 z"
       style="fill:#a0a0a0;stroke-width:0.2243256" />
    <path
       inkscape:connector-curvature="0"
       id="path487"
       d="m 27.274789,282.13615 c -1.727306,-2.15271 -3.317216,-4.07486 -3.533127,-4.27144 -0.372399,-0.33904 -0.392569,-0.17479 -0.392569,3.19603 0,3.33966 0.02932,3.58469 0.487752,4.07264 l 0.487752,0.51918 H 23.03542 21.746252 l 0.464931,-0.59106 c 0.429967,-0.54662 0.464931,-0.8851 0.464931,-4.50125 0,-2.24176 -0.09812,-4.09355 -0.229963,-4.3399 -0.126483,-0.23633 -0.505035,-0.57897 -0.841222,-0.76141 -0.579686,-0.31458 -0.51059,-0.33217 1.337769,-0.3407 l 1.949026,-0.009 2.395362,3.02839 c 1.317445,1.66562 2.484555,3.0284 2.593565,3.0284 0.109019,0 0.198212,-1.11042 0.198212,-2.46758 0,-2.16848 -0.05438,-2.52196 -0.448653,-2.91623 -0.246758,-0.24676 -0.448652,-0.49913 -0.448652,-0.56082 0,-0.0617 0.5728,-0.11216 1.272889,-0.11216 h 1.272898 l -0.480178,0.51113 c -0.458561,0.48811 -0.481237,0.73023 -0.503877,5.38053 -0.01303,2.67818 -0.09216,4.90988 -0.175825,4.95933 -0.0837,0.0494 -1.56537,-1.67139 -3.292676,-3.8241 z M 45.9417,285.7937 c -3.29664,-0.92187 -4.954913,-4.81355 -3.389579,-7.95476 1.606994,-3.22482 6.047534,-3.96186 8.824923,-1.46475 2.22227,1.99802 2.419432,5.23587 0.468795,7.69876 -1.208363,1.52567 -3.849261,2.29536 -5.904139,1.72075 z m 3.247071,-1.26696 c 0.33168,-0.35468 0.709662,-1.0288 0.839972,-1.49805 0.308398,-1.11059 0.304163,-4.20018 -0.0072,-5.32201 -0.692895,-2.4956 -3.464221,-2.95329 -4.598684,-0.75949 -0.866096,1.67484 -0.823151,5.64329 0.07755,7.16807 0.825612,1.39766 2.582887,1.59369 3.688439,0.41148 z m 12.407836,1.27473 c -2.825727,-0.93788 -4.20188,-2.63126 -4.213046,-5.1842 -0.01801,-4.1095 3.664161,-6.58508 8.034818,-5.402 1.075555,0.29114 1.53236,0.32912 1.753248,0.1458 0.164297,-0.13635 0.365142,-0.1815 0.446327,-0.10031 0.213251,0.21325 0.182105,2.98906 -0.03357,2.98906 -0.09963,0 -0.488104,-0.43549 -0.863282,-0.96776 -0.885976,-1.25695 -2.034301,-1.80872 -3.47593,-1.6702 -0.627762,0.0603 -1.296018,0.28583 -1.57127,0.53024 -1.814092,1.61081 -2.010865,6.61232 -0.326423,8.29677 0.80442,0.80442 2.164403,1.1456 3.119312,0.78253 0.572349,-0.21759 0.606833,-0.31233 0.606833,-1.66691 0,-1.02248 -0.09999,-1.51918 -0.347108,-1.72427 -0.277243,-0.2301 -0.288536,-0.32524 -0.0561,-0.47269 0.341335,-0.21652 2.892905,-0.25499 3.422923,-0.0517 0.323826,0.12427 0.327219,0.18109 0.0304,0.50909 -0.204093,0.22551 -0.360645,0.93498 -0.40226,1.82297 l -0.06814,1.45376 -1.221908,0.40514 c -1.640059,0.54378 -3.719513,0.67477 -4.834882,0.30458 z m 20.857591,-0.10436 c -1.615464,-0.5586 -2.395859,-1.19303 -3.138767,-2.5517 -0.547554,-1.0014 -0.652157,-1.44775 -0.647923,-2.76449 0.0081,-2.50247 1.042664,-4.04009 3.454893,-5.13463 l 1.23379,-0.55983 -3.919308,-0.0129 -3.919308,-0.0129 -4.324662,-4.32466 -4.324653,-4.32466 v -5.9247 -5.9247 l 3.697497,-3.71491 3.697488,-3.71491 3.987933,3.98177 c 2.193368,2.18999 4.089206,3.98179 4.212992,3.98179 0.123777,0 1.635597,-1.41326 3.3596,-3.14056 l 3.134551,-3.14056 h 5.283281 5.283271 l 3.748827,3.77239 3.74884,3.7724 v 5.36111 5.36111 l -3.59147,3.59147 -3.591487,3.59148 -2.910717,-2.90426 -2.910713,-2.90426 -3.328889,3.30234 -3.32888,3.30232 -1.104792,0.0103 -1.1048,0.0102 1.350934,0.62565 c 2.226649,1.03122 3.301797,2.68816 3.303091,5.09049 9.05e-4,2.55201 -1.525737,4.65076 -3.896233,5.35473 -1.480847,0.43977 -2.049829,0.43071 -3.454386,-0.0549 z m 2.690585,-0.58839 c 1.318052,-0.55072 1.78501,-1.78689 1.785896,-4.7278 9.05e-4,-2.63651 -0.284002,-3.60646 -1.299365,-4.42545 -0.678327,-0.54713 -2.175298,-0.51624 -2.791243,0.0576 -1.047586,0.97598 -1.27402,1.75086 -1.276319,4.36784 -0.0027,2.89151 0.399003,3.9937 1.695672,4.65441 0.929174,0.47346 0.927989,0.47342 1.885359,0.0734 z m 4.770971,-14.31773 c 1.532316,-1.51139 2.889783,-2.93842 3.016592,-3.17117 0.198021,-0.36346 -0.136998,-0.79083 -2.374017,-3.02839 l -2.604586,-2.60522 -3.252165,-0.0727 -3.252156,-0.0727 v -3.28962 -3.28962 l -3.418254,-3.4236 c -1.880039,-1.88298 -3.575701,-3.42359 -3.768149,-3.42359 -0.192448,0 -1.682633,1.3459 -3.311516,2.99091 l -2.96162,2.99092 0.0096,5.58953 0.0096,5.58955 3.867893,3.98177 3.867884,3.98179 h 5.692427 5.692427 l 2.786039,-2.74799 z m -11.844319,-0.81726 c -2.107632,-0.68488 -2.076061,-1.26786 0.06922,-1.27759 2.739502,-0.0125 3.882271,-0.89501 4.766881,-3.68153 0.215422,-0.67859 0.484422,-1.33389 0.597766,-1.45624 0.6022,-0.64999 0.849564,1.81334 0.328486,3.27107 -0.384362,1.07528 -1.416773,2.39951 -2.177388,2.79283 -0.770406,0.3984 -2.821637,0.5995 -3.584922,0.35146 z m -6.099773,-8.63627 c -0.55311,-0.41988 -0.487643,-0.96104 0.168243,-1.39081 0.519513,-0.34039 0.602127,-0.34039 1.121631,0 0.665677,0.43618 0.709735,0.8258 0.150579,1.33183 -0.490674,0.44405 -0.910534,0.46124 -1.440453,0.059 z m 4.436197,-3.04148 c -0.463348,-0.896 -0.4326,-1.22704 0.180114,-1.93936 0.416448,-0.48415 0.643064,-0.577 1.11755,-0.45792 0.615737,0.15455 1.276319,1.13358 1.276319,1.89158 0,0.61996 -0.715752,1.16754 -1.526099,1.16754 -0.554513,0 -0.778939,-0.14174 -1.047884,-0.66184 z m 17.869087,27.15429 c -2.23016,-0.77025 -3.620321,-2.67375 -3.620321,-4.95719 0,-3.87757 3.503937,-6.36791 7.532444,-5.35352 0.754354,0.18995 1.075881,0.18995 1.265831,0 0.330683,-0.33069 6.68283,-0.34209 7.86392,-0.0141 0.4714,0.1309 1.24167,0.58544 1.71171,1.01009 2.75187,2.48615 2.27897,7.07274 -0.89383,8.66903 -1.15077,0.57897 -1.41291,0.61789 -4.25472,0.63178 -1.66562,0.008 -3.15458,0.01 -3.30881,0.004 -0.45698,-0.0187 -0.33613,-0.90875 0.12338,-0.90875 0.85469,0 0.94217,-0.40778 0.94217,-4.39175 0,-2.92358 -0.0717,-3.91283 -0.29696,-4.09981 -0.50915,-0.42256 -0.82466,0.18283 -0.82466,1.58234 0,1.11589 -0.059,1.30109 -0.41459,1.30109 -0.266977,0 -0.559247,-0.32083 -0.820929,-0.90113 -1.028167,-2.28007 -3.827372,-2.36667 -4.833977,-0.14955 -0.476477,1.04948 -0.571724,3.13255 -0.203813,4.45722 0.305367,1.09947 1.36506,1.97728 2.387002,1.97728 1.038546,0 2.238421,-0.58619 2.825627,-1.38044 0.72803,-0.9847 1.15078,-0.84724 0.96836,0.31488 -0.1741,1.10922 -0.633037,1.53996 -2.327601,2.1846 -1.453537,0.55296 -2.275132,0.55825 -3.820233,0.0246 z m 4.168889,-0.57646 c 1.084038,-0.50469 1.635875,-1.07736 1.331468,-1.38176 -0.0672,-0.0672 -0.416754,0.0955 -0.776729,0.36163 -1.300759,0.9617 -3.124705,0.99148 -4.145489,0.0677 -0.731406,-0.66191 -1.055268,-1.52041 -1.181,-3.13062 -0.157682,-2.01921 0.357596,-3.55262 1.436291,-4.27426 1.397635,-0.935 3.396736,-0.53837 4.207943,0.83488 0.578954,0.9801 0.975141,0.86616 0.971011,-0.27926 -0.005,-1.09676 -0.26935,-1.64935 -0.672487,-1.40021 -0.152596,0.0943 -0.997744,-0.007 -1.87811,-0.22712 -1.513087,-0.37679 -1.672054,-0.37784 -2.905356,-0.0194 -2.702429,0.78561 -4.339501,3.47669 -3.741247,6.15 0.219205,0.97949 0.489915,1.44452 1.329878,2.28448 1.634557,1.63456 3.87915,2.01234 6.023827,1.01386 z m 9.585875,-0.35282 c 2.87273,-1.47869 3.21824,-6.13387 0.61452,-8.28006 -0.98921,-0.81539 -2.38278,-1.13166 -4.98638,-1.13166 -1.83647,0 -2.59152,0.20828 -2.02479,0.55854 0.14175,0.0876 0.228,1.78565 0.228,4.48877 0,2.70314 -0.0862,4.40117 -0.228,4.48878 -0.12538,0.0775 -0.16355,0.24514 -0.0848,0.37255 0.0898,0.14544 1.11628,0.20227 2.75788,0.15275 2.26906,-0.0685 2.76129,-0.15436 3.72358,-0.64967 z m -3.59254,-0.49479 c -0.0684,-0.2776 -0.0955,-2.22082 -0.0603,-4.31826 0.0625,-3.72611 0.0752,-3.81513 0.55353,-3.88323 0.82291,-0.11715 1.78887,0.55414 2.29154,1.59252 0.36122,0.74616 0.47163,1.40298 0.47163,2.80564 0,2.88722 -0.80982,4.30807 -2.45542,4.30807 -0.51527,0 -0.70624,-0.12036 -0.80092,-0.50474 z m 2.11947,-0.48851 c 0.63919,-0.68038 1.01815,-2.62805 0.81934,-4.211 -0.22973,-1.82918 -1.35941,-3.36111 -2.23171,-3.02637 -0.31903,0.12242 -0.36699,0.61954 -0.36699,3.80436 0,2.33321 0.0883,3.75188 0.24325,3.90679 0.32971,0.32972 0.96548,0.13363 1.53611,-0.47378 z m -73.787871,1.90885 c 0,-0.11888 0.100947,-0.27854 0.224326,-0.35479 0.137676,-0.0851 0.224326,-1.90469 0.224326,-4.71083 0,-2.80616 -0.08669,-4.62575 -0.224326,-4.71084 -0.70664,-0.43674 0.112321,-0.56081 3.70137,-0.56081 h 3.925696 v 1.34594 c 0,0.74028 -0.04787,1.34596 -0.106404,1.34596 -0.05854,0 -0.262123,-0.30113 -0.452444,-0.66918 -0.487354,-0.94243 -1.464704,-1.38639 -2.872925,-1.30502 l -1.166902,0.0674 -0.06488,1.96652 c -0.05149,1.56079 0.0027,1.99247 0.262882,2.09229 0.531865,0.2041 1.271008,-0.33388 1.671666,-1.21671 l 0.373575,-0.82317 0.06777,1.17771 c 0.03728,0.64775 0.03728,1.69677 0,2.3312 l -0.06777,1.15346 -0.562865,-0.87307 c -0.406304,-0.63021 -0.718295,-0.87307 -1.121631,-0.87307 -0.547664,0 -0.560042,0.0387 -0.623392,1.95039 -0.05999,1.81035 -0.02941,1.96924 0.426185,2.21306 0.594345,0.31808 2.174745,0.13657 3.135138,-0.36006 0.376688,-0.1948 0.904924,-0.72647 1.173842,-1.18148 l 0.488956,-0.8273 0.06859,0.70569 c 0.03773,0.38812 -0.01909,1.04428 -0.12623,1.45811 l -0.194791,0.75243 -4.079868,0.0612 c -2.509755,0.0376 -4.079867,-0.0221 -4.079867,-0.15501 z m 36.866791,-0.20421 c 0.529412,-0.58499 0.560422,-9.02383 0.03475,-9.46009 -0.185073,-0.1536 -0.336485,-0.37018 -0.336485,-0.4813 0,-0.11454 1.724347,-0.1755 3.98178,-0.14078 l 3.98178,0.0613 0.06732,1.28988 c 0.06587,1.26264 -0.227602,1.74967 -0.512808,0.85107 -0.07664,-0.24133 -0.444454,-0.6956 -0.817459,-1.00946 -0.55949,-0.47079 -0.910788,-0.57067 -2.006947,-0.57067 h -1.328738 v 2.00569 c 0,1.15148 0.09973,2.06733 0.234189,2.15043 0.366174,0.2263 1.367123,-0.54589 1.638077,-1.26372 0.435831,-1.15464 0.595314,-0.69753 0.595314,1.70628 0,2.24262 -0.234307,3.01566 -0.542207,1.78889 -0.185507,-0.73913 -0.910724,-1.45241 -1.47672,-1.45241 -0.41529,0 -0.448653,0.14955 -0.448653,2.01104 0,2.39246 0.193986,2.61087 2.094565,2.35827 1.015662,-0.135 1.293195,-0.29594 2.255759,-1.30823 l 1.097607,-1.15431 -0.156995,1.12163 c -0.291739,2.08414 0.132048,1.90677 -4.555684,1.90677 -4.025304,0 -4.156818,-0.0142 -3.798417,-0.41024 z m -15.408927,-4.03786 c -0.544406,-0.60156 -0.477618,-1.73309 0.127306,-2.1568 1.034365,-0.72449 2.417667,-0.09 2.417667,1.10891 0,1.22838 -1.735097,1.9428 -2.544973,1.04789 z"
       style="fill:#ffffff;stroke-width:0.2243256" />
    <path
       inkscape:connector-curvature="0"
       id="path483"
       d="m 108.30353,224.78054 c -1.97884,-1.0475 -2.91433,-2.512 -3.05934,-4.78937 -0.13001,-2.04171 0.39763,-3.47361 1.72031,-4.66858 1.59752,-1.44326 3.61381,-1.99639 2.22886,-0.61144 -1.00103,1.00104 -1.36495,2.36309 -1.35438,5.06912 0.0106,2.70887 0.59618,4.29786 1.87019,5.07459 1.02523,0.62506 1.84249,0.63545 2.82569,0.0359 1.23984,-0.75606 1.69664,-2.01422 1.79776,-4.95162 0.099,-2.87601 -0.29119,-4.38812 -1.39672,-5.41269 -0.49386,-0.45769 -0.53369,-0.57204 -0.19929,-0.57204 0.6143,0 2.17822,0.85613 2.7863,1.52531 1.05941,1.16583 1.44143,2.24054 1.44057,4.05265 -0.001,2.64729 -1.12028,4.38956 -3.56536,5.55113 -1.61733,0.76832 -3.25479,0.67095 -5.09459,-0.30295 z m 17.10405,-0.011 c -0.95064,-0.51472 -1.75464,-1.18667 -2.23118,-1.86471 -0.69176,-0.98425 -0.74501,-1.21645 -0.74501,-3.24849 0,-2.03617 0.0523,-2.26287 0.7514,-3.25758 0.88431,-1.25822 2.56681,-2.35212 3.95888,-2.57393 l 0.99163,-0.158 -1.03208,0.64083 c -1.60611,0.99725 -2.19074,2.4246 -2.19074,5.34868 0,1.94175 0.0979,2.55383 0.55782,3.48707 0.66369,1.34678 2.01864,2.21485 3.45708,2.21485 1.62657,0 1.86665,-0.346 1.77032,-2.55127 -0.0899,-2.05804 -0.03,-2.15901 1.2802,-2.15901 1.31271,0 1.39459,0.12294 1.28437,1.92837 -0.0559,0.91648 -0.21497,1.80676 -0.35338,1.97842 -0.13841,0.17166 -0.68588,0.38154 -1.21659,0.4664 -0.53072,0.0849 -1.02483,0.25121 -1.09803,0.36965 -0.0732,0.11844 -0.93531,0.20816 -1.9158,0.19938 -1.52288,-0.0137 -1.99932,-0.13325 -3.26889,-0.82066 z m 23.79801,0.23482 c -2.29068,-1.05935 -3.41805,-2.869 -3.4318,-5.5087 -0.0107,-2.06253 0.79572,-3.64287 2.41659,-4.73552 0.65736,-0.44314 1.42515,-0.80571 1.70622,-0.80571 h 0.51101 l -0.51003,0.55779 c -1.01477,1.10981 -1.39935,2.23713 -1.50945,4.42476 -0.1412,2.80567 0.35223,4.58281 1.56909,5.65123 1.2661,1.11164 2.36086,1.06287 3.58246,-0.15961 0.68561,-0.68611 1.00271,-1.27385 1.21039,-2.24338 0.62838,-2.93374 0.19532,-6.01106 -1.04487,-7.42474 l -0.78097,-0.89022 0.74373,0.18536 c 1.17819,0.29365 2.22812,1.05238 3.00242,2.16969 0.60667,0.87542 0.72938,1.32319 0.80224,2.92754 0.0708,1.55914 -0.0113,2.10113 -0.46456,3.06536 -0.61866,1.31613 -2.00245,2.59875 -3.03537,2.81342 -0.3778,0.0785 -0.74696,0.2399 -0.82034,0.35865 -0.26616,0.43064 -2.6945,0.1932 -3.94676,-0.38592 z m -65.819908,-0.11162 c 0,-0.11966 0.144046,-0.3371 0.320102,-0.48321 0.237703,-0.19727 0.397781,-0.14128 0.621874,0.21755 0.269034,0.43079 0.234307,0.48321 -0.320101,0.48321 -0.342032,0 -0.621875,-0.0979 -0.621875,-0.21755 z m 4.989061,-4.22872 c -1.960095,-2.44029 -3.772932,-4.49159 -4.028526,-4.55842 -0.256077,-0.067 -0.464716,-0.34092 -0.464716,-0.6102 0,-0.26877 -0.167339,-0.62755 -0.371864,-0.79729 -0.204525,-0.16975 -0.371864,-0.40652 -0.371864,-0.52617 0,-0.26204 2.498117,-0.28641 2.853063,-0.0278 0.137508,0.10017 1.357427,1.57662 2.710929,3.281 2.568441,3.23427 2.837869,3.51671 3.162973,3.31578 0.108773,-0.0673 0.197769,0.88839 0.197769,2.12359 0,1.2352 -0.02789,2.24371 -0.06198,2.24112 -0.03409,-0.003 -1.665692,-2.0013 -3.625787,-4.44158 z m 7.194279,3.56356 c 0.28299,-1.02489 0.17434,-9.19642 -0.13083,-9.83936 -0.18379,-0.38723 -0.0499,-0.43386 1.24609,-0.43409 l 1.452,-2.3e-4 -0.0855,2.48761 c -0.0557,1.62186 0.0132,2.60646 0.19797,2.82912 0.19458,0.23445 0.20194,0.39189 0.0235,0.50218 -0.14876,0.0919 -0.25995,1.07384 -0.25995,2.29571 0,1.63879 0.0954,2.24043 0.41029,2.58842 0.39381,0.43515 0.33984,0.45335 -1.34352,0.45335 h -1.7538 z m 6.211958,0.54518 c 0.36838,-0.16351 0.95362,-0.56393 1.30054,-0.88985 0.7528,-0.70722 0.86113,-0.64188 0.69915,0.42168 -0.12059,0.7918 -0.14469,0.80536 -1.39609,0.78557 -1.20342,-0.019 -1.23658,-0.0365 -0.6036,-0.3174 z m 34.28542,-5.24042 v -5.57796 h 1.41258 1.41259 l -0.25576,0.73365 c -0.14161,0.40624 -0.19409,1.54026 -0.11758,2.54107 0.076,0.99408 0.12167,2.08632 0.1015,2.42719 -0.15124,2.55605 -0.0394,4.67621 0.266,5.04414 0.31042,0.37393 0.20173,0.40986 -1.23954,0.40986 h -1.57979 z m 6.44564,5.17503 c 0.40905,-0.2206 1.00383,-0.63853 1.32174,-0.92874 l 0.57801,-0.52765 -0.0822,0.86768 c -0.081,0.85544 -0.0997,0.86854 -1.32173,0.92874 l -1.23955,0.0611 z m 38.11316,-5.42294 c -5e-4,-2.12482 0.0114,-2.17403 0.24885,-1.03227 0.16696,0.80286 0.16711,1.53994 5e-4,2.23119 -0.22463,0.93175 -0.2489,0.815 -0.24933,-1.19892 z m -80.29491,1.23206 c -0.0801,-0.20864 -0.408868,-0.51731 -0.730688,-0.68592 l -0.58512,-0.30658 0.86242,-0.68814 0.862428,-0.68815 v 1.37407 c 0,1.37552 -0.136,1.70625 -0.40904,0.99472 z m 40.72922,0.17332 c -0.11713,-0.18148 -0.56337,-0.54364 -0.99163,-0.80477 -0.42826,-0.26115 -0.63414,-0.47522 -0.4575,-0.47572 0.17663,-5e-4 0.60681,-0.2866 0.95595,-0.63574 0.34914,-0.34913 0.685,-0.58459 0.74636,-0.52322 0.0614,0.0614 0.0774,0.70958 0.0357,1.4405 -0.0488,0.85379 -0.15203,1.21095 -0.28886,0.99895 z m -22.42113,-0.33937 c -0.4212,-0.4212 -0.36895,-1.57892 0.0921,-2.03994 0.81948,-0.81949 2.33743,-0.15904 2.33743,1.01701 0,1.04408 -1.69478,1.75766 -2.42951,1.02293 z m 13.28605,-5.00964 -0.91914,-1.04598 1.0431,0.0493 c 1.03492,0.0489 1.0437,0.0572 1.11933,1.06931 0.0419,0.56102 -0.0139,1.00952 -0.12395,0.99668 -0.11011,-0.0128 -0.61381,-0.49404 -1.11934,-1.06932 z m -29.34726,-0.17061 c -0.2586,-0.28575 -0.80579,-0.6671 -1.21599,-0.84746 -0.74227,-0.32635 -0.73964,-0.328 0.55572,-0.34813 l 1.30152,-0.0202 v 0.86768 c 0,1.01671 -0.0243,1.02988 -0.64125,0.34813 z m 40.71764,0.16003 c -0.0759,-0.19773 -0.56194,-0.58326 -1.08014,-0.85672 l -0.94217,-0.49721 1.30152,-0.011 1.30152,-0.011 v 0.86768 c 0,0.87915 -0.32817,1.16631 -0.58073,0.50816 z m -51.573623,-0.76587 c -0.223378,-0.58212 -0.20696,-0.60997 0.359498,-0.60997 0.346567,0 0.487886,0.13462 0.433841,0.4133 -0.109762,0.56595 -0.604562,0.68862 -0.793339,0.19667 z m 45.777753,-6.38093 -4.77931,-4.7793 v -6.28865 -6.28864 l 3.54262,-3.62067 c 1.94844,-1.99136 3.71297,-3.89032 3.92118,-4.2199 l 0.37855,-0.59925 2.08983,2.21065 c 4.83827,5.11799 6.54239,6.79698 6.89871,6.79698 0.20765,0 1.9528,-1.56184 3.87811,-3.47073 l 3.50057,-3.47073 5.80666,-0.005 5.80665,-0.005 4.022,4.15692 4.02198,4.15692 0.007,5.70492 0.007,5.7049 -3.78352,3.77762 c -2.08094,2.07769 -3.89551,3.77762 -4.0324,3.77762 -0.13688,0 -1.5841,-1.33871 -3.21604,-2.97491 -1.63194,-1.63621 -3.07583,-2.97492 -3.20864,-2.97492 -0.13281,0 -1.87209,1.61762 -3.86507,3.59469 l -3.62359,3.59469 h -6.29603 -6.29602 z m 20.56786,0.87475 c 1.76104,-1.73846 3.31625,-3.37057 3.45602,-3.6269 0.21793,-0.3997 -0.16293,-0.88421 -2.67443,-3.40227 l -2.92855,-2.93619 -3.48108,-0.0685 -3.48108,-0.0685 -0.0677,-3.59468 -0.0677,-3.59469 -3.89594,-3.90456 c -2.14276,-2.14752 -4.06972,-3.90458 -4.28214,-3.90458 -0.21241,0 -1.91499,1.54288 -3.78352,3.42862 l -3.39732,3.42861 v 6.25848 6.25847 l 4.40039,4.44621 4.40039,4.44623 6.30038,-0.003 6.30038,-0.003 3.2019,-3.16083 z m -13.35966,-1.22518 c -0.29255,-0.0573 -0.70803,-0.29865 -0.92328,-0.53651 -0.36847,-0.40715 -0.29229,-0.43399 1.30158,-0.45855 2.66979,-0.0411 4.31476,-1.1382 5.01818,-3.34675 0.52932,-1.6619 0.77635,-2.17051 0.99006,-2.03844 0.38134,0.23568 0.22637,2.42165 -0.24478,3.45295 -1.13377,2.48171 -3.25386,3.49219 -6.14176,2.9273 z m -6.48393,-9.54647 c -0.72741,-0.72742 0.24231,-1.69713 1.18997,-1.18997 0.80409,0.43034 0.45171,1.48746 -0.49582,1.48746 -0.21816,0 -0.53053,-0.13388 -0.69415,-0.29749 z m 4.89984,-3.44232 c -0.27672,-0.66805 -0.27132,-0.89101 0.0349,-1.43833 0.66786,-1.1939 1.99414,-0.8308 2.36517,0.64752 0.22586,0.89988 -0.18899,1.41925 -1.2034,1.50658 -0.77286,0.0665 -0.90544,-0.0127 -1.19663,-0.71577 z m 26.71486,9.55729 c 0.16708,-0.0524 0.43449,-0.61443 0.59426,-1.24892 0.23753,-0.94332 0.43651,-1.21461 1.09164,-1.48834 0.88025,-0.36779 1.10921,-0.75733 1.10921,-1.88715 0,-0.90422 -0.69605,-3.70729 -0.99789,-4.01867 -0.28471,-0.29371 -3.20647,0.32712 -3.24856,0.69027 -0.0176,0.1518 -0.008,0.80945 0.0234,1.46143 0.0687,1.46994 -0.35713,2.16352 -1.69984,2.769 -1.11065,0.50082 -1.20745,0.80944 -0.75962,2.42193 0.35538,1.2796 1.07326,1.7286 2.46808,1.54367 0.61357,-0.0813 1.25228,-0.19078 1.41936,-0.24322 z m -8.93215,-8.8326 c 0.16452,-0.13653 0.37609,-0.76142 0.47014,-1.38865 0.15825,-1.05529 0.11753,-1.18321 -0.54564,-1.71387 -0.83186,-0.66564 -2.11387,-0.7547 -2.68223,-0.18634 -0.23491,0.23491 -0.38957,0.81829 -0.38957,1.46948 0,0.92147 0.11822,1.17408 0.80571,1.72163 0.81276,0.64733 1.63789,0.68178 2.34159,0.0978 z m 4.27772,-5.27507 c 0.2625,-0.3163 0.24695,-0.49385 -0.0881,-1.00517 -0.48497,-0.74016 -1.26938,-0.80841 -1.6263,-0.14149 -0.84622,1.58118 0.56847,2.5274 1.71438,1.14666 z"
       style="fill:#080807;stroke-width:0.24790928" />
  </g>
</svg>
