<?xml version="1.0" encoding="UTF-8" standalone="no"?>
<svg
   xmlns:dc="http://purl.org/dc/elements/1.1/"
   xmlns:cc="http://creativecommons.org/ns#"
   xmlns:rdf="http://www.w3.org/1999/02/22-rdf-syntax-ns#"
   xmlns:svg="http://www.w3.org/2000/svg"
   xmlns="http://www.w3.org/2000/svg"
   xmlns:sodipodi="http://sodipodi.sourceforge.net/DTD/sodipodi-0.dtd"
   xmlns:inkscape="http://www.inkscape.org/namespaces/inkscape"
   width="500"
   height="200"
   viewBox="0 0 500 200"
   version="1.1"
   id="svg102"
   sodipodi:docname="neogeo.svg"
   inkscape:version="0.92.5 (2060ec1f9f, 2020-04-08)">
  <metadata
     id="metadata108">
    <rdf:RDF>
      <cc:Work
         rdf:about="">
        <dc:format>image/svg+xml</dc:format>
        <dc:type
           rdf:resource="http://purl.org/dc/dcmitype/StillImage" />
        <dc:title>syslogo</dc:title>
      </cc:Work>
    </rdf:RDF>
  </metadata>
  <defs
     id="defs106" />
  <sodipodi:namedview
     pagecolor="#ffffff"
     bordercolor="#666666"
     borderopacity="1"
     objecttolerance="10"
     gridtolerance="10"
     guidetolerance="10"
     inkscape:pageopacity="0"
     inkscape:pageshadow="2"
     inkscape:window-width="1366"
     inkscape:window-height="740"
     id="namedview104"
     showgrid="false"
     inkscape:pagecheckerboard="true"
     inkscape:zoom="1.199307"
     inkscape:cx="243.5"
     inkscape:cy="83.5"
     inkscape:window-x="0"
     inkscape:window-y="0"
     inkscape:window-maximized="1"
     inkscape:current-layer="svg102" />
  <title
     id="title76">syslogo</title>
  <g
     style="fill:#ffffff;fill-rule:nonzero;stroke:none;stroke-width:1"
     id="Neogeo-logo"
     transform="translate(1.58004,82.77126)">
    <path
       d="m 299.37155,50.047105 h 1.89827 c 1.77045,0 4.80337,0.364785 6.0515,1.097486 1.24942,0.72644 2.07172,1.541567 2.46885,2.443423 0.3985,0.90316 0.6,2.89272 0.6,5.965421 v 12.063871 c 0,3.640681 -3.84675,5.495256 -5.70132,5.897603 -1.85914,0.402216 -3.66742,0.603715 -5.43135,0.603715 -5.07922,0 -9.46199,-1.321157 -13.1594,-3.965427 -3.6922,-2.646226 -6.36712,-6.781852 -8.02737,-12.422527 -1.65699,-5.632197 -2.48189,-12.181249 -2.48189,-19.660849 0,-6.170181 0.75709,-12.18777 2.27257,-18.05016 1.51613,-5.864997 4.09715,-10.433618 7.74044,-13.713687 3.64329,-3.2755037 8.20995,-4.914886 13.69412,-4.914886 5.7411,0 9.09681,1.4528814 13.32243,5.844131 4.31952,4.487107 8.46427,9.585886 10.88357,17.072007 h 3.53243 V 0.82051114 h -2.00912 c -0.72514,2.20214556 -1.51679,3.69610926 -2.38213,4.48645586 -0.86795,0.7923029 -1.80762,1.186172 -2.81577,1.186172 -0.65015,0 -2.75644,-0.715355 -6.30908,-2.1460649 -3.55461,-1.4326662 -6.12714,-2.3025691 -7.71436,-2.6090567 -2.92337,-0.6097145 -5.19464,-0.91750626 -8.83597,-0.91750626 -11.7639,0 -21.53238,4.04302706 -29.29238,12.12908086 -7.76001,8.092576 -11.64001,17.997992 -11.64001,29.72277 0,6.553617 1.26117,12.474695 3.78806,17.763235 1.98565,4.100413 4.73882,7.786088 8.2556,11.066157 3.51939,3.276156 7.58394,5.922382 12.18125,7.936071 4.60188,2.009123 10.38797,3.015316 17.35241,3.015316 5.45156,0 10.7075,-0.563286 15.78085,-1.688942 5.07334,-1.12944 9.95106,-2.801427 14.65271,-5.01531 V 59.537654 c 0,-2.841857 0.1595,-4.628614 0.48458,-5.356359 0.576,-1.383758 1.39484,-2.370387 2.45907,-2.967712 1.06227,-0.597716 3.96086,-0.987281 6.66447,-1.182259 v -2.654052 h -38.2979 v 2.654052 z"
       id="Path"
       inkscape:connector-curvature="0" />
    <path
       d="m 387.40521,71.044761 c -4.36517,3.343323 -10.17278,5.012702 -17.41763,5.012702 h -4.13041 c -2.21257,0 -3.81087,-0.301858 -4.80402,-0.910333 -0.98924,-0.608932 -1.66873,-1.387019 -2.02934,-2.337783 -0.36179,-0.949459 -0.54457,-3.551995 -0.54457,-7.805651 V 43.230039 c 3.72089,0 8.07953,0.483859 10.03583,1.457446 1.95239,0.968371 3.66938,2.863377 5.14247,5.680453 1.48027,2.817077 2.44799,5.926948 2.90772,10.342324 h 3.14052 V 20.638647 h -3.14052 c -0.61343,6.02085 -2.03129,10.061921 -4.25757,13.146359 -2.22236,3.085091 -5.80956,4.62731 -10.75314,4.62731 h -3.07597 V 11.532707 c -0.0261,-4.6716526 4.13889,-4.1304086 4.13889,-4.1304086 h 4.86598 c 5.88521,0 9.89237,0.3437877 12.03127,1.0296677 3.66611,1.1398728 6.5021,2.9292379 8.50992,5.3609239 2.00716,2.436249 3.56112,6.446671 4.67034,12.037787 h 2.63254 V 2.9419266 h -65.47096 v 3.1353023 h 2.06521 c 2.5145,0 4.49949,0.5317884 5.9452,1.5937351 1.03032,0.7225281 1.7372,1.7521958 2.11672,3.081178 0.191,0.794911 0.28765,2.943584 0.28765,6.440151 v 48.425031 c 0,3.876089 -0.209,6.269952 -0.62993,7.186154 -0.53408,1.290508 -1.29703,2.20345 -2.28692,2.734912 -1.37463,0.800129 -3.18487,1.197258 -5.43266,1.197258 h -2.06527 v 3.642637 h 66.57959 l 4.00064,-24.623339 h -3.65437 c -1.90674,6.853583 -5.044,11.953014 -9.40982,15.291772"
       id="path79"
       inkscape:connector-curvature="0" />
    <path
       d="m 438.92119,1.72641 c -11.15745,-0.4606442 -20.56074,3.1763847 -28.19685,10.916173 -7.64915,7.73392 -11.46394,17.40458 -11.46394,28.998938 0,10.329282 2.93642,19.256547 8.81641,26.781794 7.43395,9.520676 17.95887,14.287536 31.57474,14.287536 13.57022,0 24.08209,-4.992486 31.52257,-14.978763 5.61459,-7.518727 8.42514,-16.237319 8.42514,-26.149256 0,-11.594358 -3.76784,-21.251976 -11.29439,-28.972854 C 460.7731,4.8891006 450.98507,1.2634182 438.93424,1.72641 m 17.79584,61.975693 c -1.82067,5.392876 -4.36908,9.318525 -7.64263,11.770425 -2.56536,1.92109 -5.76522,2.879027 -9.59893,2.879027 -5.69154,0 -10.11409,-2.226926 -13.2833,-6.677516 -4.53601,-6.370376 -6.80793,-16.211234 -6.80793,-29.533661 0,-11.209618 1.46788,-19.804311 4.4069,-25.7906 3.60677,-7.2904906 8.86857,-10.935736 15.78737,-10.935736 3.7561,0 7.07529,1.0570559 9.95758,3.1679074 2.88229,2.1101996 5.25267,5.7287086 7.11442,10.8509626 1.85914,5.126167 2.78969,12.846393 2.78969,23.175675 0,8.672945 -0.91033,15.709116 -2.73491,21.101993"
       id="Shape"
       inkscape:connector-curvature="0" />
    <path
       d="m 191.70964,82.260901 c 13.57023,0 24.0821,-4.993138 31.52257,-14.978763 5.61459,-7.525247 8.42515,-16.237319 8.42515,-26.149256 0,-11.594358 -3.76784,-21.251976 -11.29439,-28.972854 C 212.8312,4.4391508 203.04316,0.81346845 190.99233,1.2764603 179.83488,0.81659853 170.43158,4.4528449 162.79548,12.192633 c -7.64915,7.73392 -11.46394,17.40458 -11.46394,28.998938 0,10.329282 2.93641,19.256547 8.81641,26.781794 7.43395,9.520677 17.95886,14.287536 31.57473,14.287536 M 175.74621,15.942215 c 3.60677,-7.2904908 8.86857,-10.9357362 15.78737,-10.9357362 3.7561,0 7.07529,1.0550996 9.95758,3.1666031 2.88229,2.1108511 5.25267,5.7293611 7.11442,10.8509631 1.85914,5.126167 2.78969,12.846392 2.78969,23.169153 0,8.672946 -0.91033,15.709117 -2.73491,21.101993 -1.82067,5.393529 -4.36908,9.318526 -7.64263,11.776947 -2.56536,1.919786 -5.76522,2.878375 -9.59893,2.878375 -5.69153,0 -10.11408,-2.226926 -13.2833,-6.677516 -4.53601,-6.370376 -6.80793,-16.211235 -6.80793,-29.533661 0,-11.209619 1.46788,-19.804312 4.4069,-25.7906"
       id="path82"
       inkscape:connector-curvature="0" />
    <path
       d="m 152.38794,55.133493 h -3.65502 c -1.90609,6.853583 -5.04466,11.953014 -9.40982,15.291772 -4.36517,3.342671 -10.17278,5.012702 -17.4111,5.012702 h -4.13041 c -2.21193,0 -3.80958,-0.303358 -4.80403,-0.910333 -0.98989,-0.608932 -1.66808,-1.387672 -2.03064,-2.338435 -0.36101,-0.950764 -0.54379,-3.551995 -0.54379,-7.805651 V 42.609891 c 3.72024,0 8.07953,0.483859 10.03583,1.458098 1.95435,0.967718 3.67068,2.862724 5.14443,5.679801 1.47831,2.817077 2.44734,5.926947 2.90772,10.342324 h 3.14052 V 20.018499 h -3.14052 c -0.61571,6.018242 -2.0339,10.061921 -4.25887,13.146359 -2.22041,3.085091 -5.80892,4.626658 -10.75315,4.626658 h -3.07792 V 10.911907 c -0.0255,-4.672305 4.14215,-4.1304089 4.14215,-4.1304089 h 4.86206 c 5.88652,0 9.8989,0.3430704 12.03779,1.0290156 3.66872,1.1392207 6.50471,2.9285863 8.50992,5.3609233 2.00652,2.435598 3.56243,6.448628 4.671,12.037787 h 2.63188 V 2.3009112 H 81.784627 v 3.1555174 h 2.063639 c 2.515806,0 4.498846,0.532571 5.947815,1.5937352 1.029015,0.7218759 1.733936,1.7508915 2.113459,3.0805262 0.192501,0.795563 0.289142,2.942932 0.289142,6.439498 v 48.425031 c 0,3.874785 -0.208998,6.269953 -0.62993,7.179634 -0.532571,1.290508 -1.298333,2.205406 -2.284962,2.735564 -1.374629,0.800128 -3.184862,1.197258 -5.435915,1.197258 h -2.063248 v 3.643289 h 66.579523 l 4.0026,-24.623339 z"
       id="path84"
       inkscape:connector-curvature="0" />
    <path
       d="m 26.728053,76.06594 h -1.767194 c -2.535369,0 -4.787074,-0.777957 -6.755767,-2.334522 -1.965433,-1.557217 -2.949454,-4.555579 -2.949454,-8.998996 V 17.963728 l 50.661738,63.155996 3.284633,0.0039 V 16.709086 c 0,-3.6622 0.30414,-4.725125 0.908377,-6.232131 0.604433,-1.5070055 1.449621,-2.5947102 2.528848,-3.2624618 1.07988,-0.6670994 3.199208,-1.2102997 6.350161,-1.6309049 V 2.306128 H 53.857417 v 3.2774603 c 4.143451,-0.075644 7.101382,0.9918458 8.855534,3.2050771 1.284639,1.6400346 1.926306,3.2657226 1.926306,7.9230286 V 50.444886 L 25.20018,2.306128 H 1.2028584 v 2.6012314 c 2.2810498,0.075644 2.3619104,0.8405584 3.5767748,1.4848343 l 6.4284128,6.4694953 -0.009,51.868125 c 0,4.101064 -0.809909,7.003566 -2.4277723,8.712071 -1.6191671,1.709157 -4.4897164,2.581669 -8.60773508,2.620143 V 79.19733 H 26.717098 v -3.135302 z"
       id="path86"
       inkscape:connector-curvature="0" />
    <path
       d="m 253.27665,41.764666 c 0,5.147152 -4.17276,9.316944 -9.31694,9.316944 -5.14715,0 -9.31695,-4.172757 -9.31695,-9.316944 0,-5.147151 4.17276,-9.316943 9.31695,-9.316943 5.14715,0 9.31694,4.172757 9.31694,9.316943 z"
       id="path88"
       inkscape:connector-curvature="0" />
    <path
       d="M 474.40701,80.582039 V 75.20318 h -1.97505 v -0.941301 h 5.13513 v 0.941301 h -2.23839 v 5.378859 z m 3.68676,0 v -6.32016 h 1.58004 l 1.58004,5.109917 1.58004,-5.109917 h 1.44837 v 6.32016 h -0.92169 V 75.20318 l -1.58004,5.378859 h -0.92169 l -1.71171,-5.378859 v 5.378859 z"
       id="path90"
       inkscape:connector-curvature="0" />
  </g>
  <g
     style="fill:#ffffff;fill-rule:nonzero;stroke:none;stroke-width:1"
     id="SNK_logo"
     transform="matrix(1.2985818,0,0,1.6534458,2.3440582,31.991332)">
    <path
       d="m 0.23157487,7.3344652 c 0,4.0532358 2.70215713,7.3344648 6.04769793,7.3344648 H 23.071288 c 0.38603,0 0.772033,0.386031 0.772033,0.90071 0,0.514707 -0.321691,0.90071 -0.772033,0.90071 H 0.16726353 v 6.498148 H 25.773445 c 3.345541,0 6.047698,-3.345541 6.047698,-7.398776 0,-4.053236 -2.702157,-7.398777 -6.047698,-7.398777 H 9.0457413 c -0.3860302,0 -0.7720333,-0.3860302 -0.7720333,-0.9007101 0,-0.5147069 0.3216918,-0.90071 0.7720333,-0.90071 H 31.756832 V 0 H 6.2803537 C 2.9348129,0 0.23265573,3.2812294 0.23265573,7.3344652 Z"
       id="S"
       inkscape:connector-curvature="0" />
    <polygon
       id="N"
       points="65.34213,0 57.299834,0 57.299834,14.283116 41.987304,0 33.623317,0 33.623317,22.840118 41.665612,22.840118 41.665612,8.4926638 56.978142,22.840118 65.34213,22.840118 " />
    <polygon
       id="K"
       points="75.250237,12.738996 88.246587,22.840118 98.733739,22.840118 83.935916,11.452228 98.733739,0 88.246587,0 75.250237,10.036784 75.250237,0 67.079265,0 67.079265,22.840118 75.250237,22.840118 " />
    <path
       d="M 102.78465,0.70769496 C 102.33339,0.25735345 101.75513,0 101.11202,0 100.46891,0 99.890644,0.25734804 99.439384,0.70769496 98.989015,1.1580635 98.731689,1.7370817 98.731689,2.3804654 c 0,0.6433836 0.25735,1.2224018 0.707695,1.6727703 0.450368,0.4503686 1.029386,0.707695 1.672766,0.707695 0.64339,0 1.22241,-0.257348 1.67277,-0.707695 0.45127,-0.4504496 0.70797,-1.0295218 0.70797,-1.6727703 -0.0649,-0.707695 -0.2567,-1.2224019 -0.70797,-1.67277044 z m -0.25734,3.08829544 c -0.38603,0.3860301 -0.83638,0.5790452 -1.41542,0.5790452 -0.57905,0 -1.02939,-0.1930124 -1.415418,-0.5790452 -0.38603,-0.3860329 -0.579018,-0.9007101 -0.579018,-1.415417 0,-0.5790452 0.19301,-1.0293867 0.579018,-1.41541691 0.386028,-0.38603017 0.900708,-0.57904525 1.415418,-0.57904525 0.57904,0 1.02939,0.19301238 1.41542,0.57904525 0.38603,0.38603291 0.57904,0.90071001 0.57904,1.41541691 0,0.5147069 -0.19301,1.0293868 -0.57904,1.415417 z"
       id="mark"
       inkscape:connector-curvature="0" />
    <path
       d="m 102.20639,1.9944622 v -0.064338 c 0,-0.3860301 -0.32169,-0.7076949 -0.70769,-0.7076949 h -1.35108 v 2.3804653 h 0.38603 v -0.90071 h 0.83637 c 0.19301,0 0.32169,0.128674 0.32169,0.257348 l 0.0643,0.5790453 h 0.38603 l -0.0643,-0.5790453 c 0,-0.1930124 -0.12867,-0.3216918 -0.19301,-0.4503685 0.19301,-0.064338 0.32169,-0.257348 0.32169,-0.5147069 z M 100.53362,1.608432 h 0.96505 c 0.19301,0 0.32169,0.128674 0.32169,0.3216918 v 0.1286741 c 0,0.1930096 -0.12867,0.3216918 -0.32169,0.3216918 h -0.96505 V 1.6084563 Z"
       id="R"
       inkscape:connector-curvature="0" />
  </g>
</svg>
