<?xml version="1.0" encoding="UTF-8" standalone="no"?>
<svg
   xmlns:dc="http://purl.org/dc/elements/1.1/"
   xmlns:cc="http://creativecommons.org/ns#"
   xmlns:rdf="http://www.w3.org/1999/02/22-rdf-syntax-ns#"
   xmlns:svg="http://www.w3.org/2000/svg"
   xmlns="http://www.w3.org/2000/svg"
   xmlns:sodipodi="http://sodipodi.sourceforge.net/DTD/sodipodi-0.dtd"
   xmlns:inkscape="http://www.inkscape.org/namespaces/inkscape"
   width="457.59665"
   height="159.94234"
   viewBox="0 0 457.59665 159.94234"
   version="1.1"
   id="svg159"
   sodipodi:docname="nes.svg"
   inkscape:version="1.0.1 (1.0.1+r73)">
  <metadata
     id="metadata165">
    <rdf:RDF>
      <cc:Work
         rdf:about="">
        <dc:format>image/svg+xml</dc:format>
        <dc:type
           rdf:resource="http://purl.org/dc/dcmitype/StillImage" />
        <dc:title>syslogo</dc:title>
      </cc:Work>
    </rdf:RDF>
  </metadata>
  <defs
     id="defs163" />
  <sodipodi:namedview
     pagecolor="#ffffff"
     bordercolor="#666666"
     borderopacity="1"
     objecttolerance="10"
     gridtolerance="10"
     guidetolerance="10"
     inkscape:pageopacity="0"
     inkscape:pageshadow="2"
     inkscape:window-width="1366"
     inkscape:window-height="740"
     id="namedview161"
     showgrid="false"
     inkscape:pagecheckerboard="true"
     inkscape:zoom="1.412515"
     inkscape:cx="197"
     inkscape:cy="54.371803"
     inkscape:window-x="0"
     inkscape:window-y="0"
     inkscape:window-maximized="1"
     inkscape:current-layer="svg159"
     inkscape:document-rotation="0" />
  <title
     id="title110">syslogo</title>
  <g
     id="Page-1"
     style="fill:none;fill-rule:evenodd;stroke:none;stroke-width:1"
     transform="scale(1.1616876)">
    <g
       id="syslogo"
       style="fill:#ffffff;fill-rule:nonzero">
      <g
         id="Group-26"
         transform="translate(1.03618,112.49014)">
        <g
           id="Group"
           transform="translate(196.51346,0.14014)">
          <path
             d="M 4.5188,9.20062 V 2.95724 C 4.5188,2.71414 4.43586,2.50536 4.25568,2.32804 4.0755,2.15072 3.86958,2.06206 3.62934,2.06206 H 0.95238 V 0.27742 H 9.87272 V 2.06206 H 7.19004 c -0.24596,0 -0.46332,0.08866 -0.63778,0.26598 -0.16874,0.17732 -0.25168,0.3861 -0.25168,0.6292 v 6.24338 z"
             id="Path"
             inkscape:connector-curvature="0" />
          <path
             d="M 11.65736,9.20062 V 0.28028 h 10.70212 c 0.49192,0 0.90948,0.18018 1.25268,0.53196 0.3575,0.35464 0.53196,0.7722 0.53196,1.25268 v 7.1357 H 22.36234 V 2.95724 c 0,-0.2431 -0.08866,-0.45188 -0.26884,-0.6292 C 21.91904,2.15072 21.7074,2.06206 21.46716,2.06206 h -1.78178 c -0.25168,0 -0.46332,0.08866 -0.6435,0.26598 -0.16874,0.17732 -0.25168,0.3861 -0.25168,0.6292 V 9.20062 H 17.00842 V 2.95724 c 0,-0.2431 -0.08866,-0.45188 -0.26884,-0.6292 -0.17446,-0.17732 -0.3861,-0.26598 -0.62634,-0.26598 h -1.78178 c -0.25168,0 -0.46332,0.08866 -0.6435,0.26598 -0.16874,0.17732 -0.25168,0.3861 -0.25168,0.6292 v 6.24338 z"
             id="path113"
             inkscape:connector-curvature="0" />
        </g>
        <g
           id="Group-24">
          <path
             d="m 0,25.19088 v -6.22336 h 19.0762 c 0.49764,0 0.9152,-0.14872 1.26126,-0.4433 0.34606,-0.32032 0.52052,-0.71786 0.52052,-1.1869 0,-0.4433 -0.17446,-0.82654 -0.52052,-1.14686 -0.36894,-0.32032 -0.79222,-0.48048 -1.26126,-0.48048 H 6.03746 C 4.3329,15.70998 2.90004,15.17802 1.74174,14.1141 0.58058,13.0273 0,11.73172 0,10.22736 V 5.48548 C 0,3.98112 0.58058,2.69412 1.74174,1.6302 2.92578,0.54626 4.35578,0.00286 6.03746,0.00286 H 27.71054 V 6.22622 H 8.62862 c -0.49192,0 -0.92664,0.16302 -1.29558,0.48334 -0.31746,0.32032 -0.48048,0.70356 -0.48048,1.14686 0,0.46904 0.16302,0.86372 0.48048,1.18404 0.34606,0.29744 0.77506,0.4433 1.29558,0.4433 h 13.04446 c 1.67596,0 3.09452,0.5434 4.25568,1.6302 1.18404,1.0868 1.78178,2.37094 1.78178,3.85528 v 4.73902 c 0,1.53296 -0.59774,2.82854 -1.78178,3.8896 -1.20692,1.06106 -2.6312,1.59302 -4.25568,1.59302 z"
             id="path116"
             inkscape:connector-curvature="0" />
          <path
             d="m 41.75028,25.19088 v -9.4809 h -4.40726 c -1.70456,0 -3.14028,-0.53196 -4.30144,-1.59588 -1.15544,-1.0868 -1.73602,-2.38238 -1.73602,-3.88674 V 0.00286 h 6.85256 v 7.85356 c 0,0.46904 0.1573,0.86372 0.48048,1.18404 0.34606,0.29744 0.77506,0.4433 1.29558,0.4433 H 50.3789 c 0.49764,0 0.9152,-0.14586 1.26126,-0.4433 0.34034,-0.32032 0.5148,-0.715 0.5148,-1.18404 V 0.00286 h 6.85256 v 10.2245 c 0,1.5301 -0.59202,2.82568 -1.77606,3.88674 -1.21264,1.06392 -2.6312,1.59588 -4.2614,1.59588 H 48.5628 v 9.4809 z"
             id="path118"
             inkscape:connector-curvature="0" />
          <path
             d="m 62.60826,25.19088 v -6.22336 h 19.0762 c 0.49764,0 0.9152,-0.14872 1.26126,-0.4433 0.34034,-0.32032 0.5148,-0.71786 0.5148,-1.1869 0,-0.4433 -0.17446,-0.82654 -0.5148,-1.14686 -0.37466,-0.32032 -0.79222,-0.48048 -1.26126,-0.48048 H 68.64572 c -1.70456,0 -3.14028,-0.53196 -4.30144,-1.59588 -1.15544,-1.0868 -1.73602,-2.38238 -1.73602,-3.88674 V 5.48548 c 0,-1.50436 0.58058,-2.79136 1.73602,-3.85528 1.18976,-1.08394 2.61976,-1.62734 4.30144,-1.62734 h 21.66736 v 6.22336 h -19.0762 c -0.49764,0 -0.92664,0.16302 -1.29558,0.48334 -0.32318,0.32032 -0.48048,0.70356 -0.48048,1.14686 0,0.46904 0.1573,0.86372 0.48048,1.18404 0.34606,0.29744 0.77506,0.4433 1.29558,0.4433 h 13.03874 c 1.68168,0 3.10024,0.5434 4.2614,1.6302 1.18404,1.0868 1.77606,2.37094 1.77606,3.85528 v 4.73902 c 0,1.53296 -0.59202,2.82854 -1.77606,3.8896 -1.21264,1.06106 -2.6312,1.59302 -4.2614,1.59302 z"
             id="path120"
             inkscape:connector-curvature="0" />
          <path
             d="M 104.35568,25.19088 V 7.85356 c 0,-0.4433 -0.18304,-0.82654 -0.5577,-1.14686 -0.34034,-0.32032 -0.76648,-0.48334 -1.25554,-0.48334 H 93.91096 V 0 h 27.70768 v 6.22336 h -8.63148 c -0.52052,0 -0.94952,0.16302 -1.29558,0.48334 -0.34606,0.32032 -0.52052,0.70356 -0.52052,1.14686 v 17.33732 z"
             id="path122"
             inkscape:connector-curvature="0" />
          <path
             d="m 131.25398,25.19088 c -1.70456,0 -3.14028,-0.53196 -4.30144,-1.59302 -1.15544,-1.0868 -1.73602,-2.38238 -1.73602,-3.8896 V 0 H 152.9242 V 6.22336 H 133.848 c -0.49764,0 -0.92664,0.16302 -1.29558,0.48334 -0.32318,0.32032 -0.48048,0.70356 -0.48048,1.14686 0,0.46904 0.1573,0.86372 0.48048,1.18404 0.34606,0.29744 0.77506,0.4433 1.29558,0.4433 h 19.0762 v 6.22622 H 133.848 c -0.49764,0 -0.92664,0.16016 -1.29558,0.48048 -0.32318,0.32032 -0.48048,0.70356 -0.48048,1.14686 0,0.46904 0.1573,0.86658 0.48048,1.1869 0.34606,0.29744 0.77506,0.4433 1.29558,0.4433 h 19.0762 v 6.22336 h -21.67022 z"
             id="path124"
             inkscape:connector-curvature="0" />
          <path
             d="M 156.51922,25.19088 V 0 h 32.1178 c 1.65308,0 3.0602,0.5434 4.22422,1.62734 1.20692,1.08966 1.8161,2.3738 1.8161,3.85528 v 19.70826 h -6.85256 V 7.85356 c 0,-0.4433 -0.18876,-0.82654 -0.5577,-1.14686 -0.34606,-0.32032 -0.76648,-0.48334 -1.25554,-0.48334 h -5.18804 c -0.52052,0 -0.94952,0.16302 -1.29558,0.48334 -0.34606,0.32032 -0.52052,0.70356 -0.52052,1.14686 v 17.33732 h -6.85256 V 7.85356 c 0,-0.4433 -0.17446,-0.82654 -0.5148,-1.14686 -0.37466,-0.32032 -0.79222,-0.48334 -1.26126,-0.48334 h -5.22236 c -0.49764,0 -0.92664,0.16302 -1.29558,0.48334 -0.32318,0.32032 -0.48048,0.70356 -0.48048,1.14686 v 17.33732 z"
             id="path126"
             inkscape:connector-curvature="0" />
        </g>
      </g>
      <g
         id="Group-30"
         transform="translate(1,79)">
        <path
           d="m 6.03746,25.19088 c -1.70456,0 -3.13742,-0.53196 -4.29572,-1.59302 C 0.58058,22.51106 0,21.21548 0,19.70826 V 0 H 27.71054 V 6.22336 H 8.63148 C 8.1367,6.22336 7.70484,6.38638 7.3359,6.7067 7.01558,7.02702 6.85256,7.41026 6.85256,7.85356 c 0,0.46904 0.16302,0.86372 0.48334,1.18404 0.34606,0.29744 0.77506,0.4433 1.29558,0.4433 h 19.07906 v 6.22622 H 8.63148 c -0.49478,0 -0.92664,0.16016 -1.29558,0.48048 -0.32032,0.32032 -0.48334,0.70356 -0.48334,1.14686 0,0.46904 0.16302,0.86658 0.48334,1.1869 0.34606,0.29744 0.77506,0.4433 1.29558,0.4433 h 19.07906 v 6.22336 H 6.03746 Z"
           id="path130"
           inkscape:connector-curvature="0" />
        <path
           d="M 31.3027,25.19088 V 0 h 21.67308 c 1.67882,0 3.09738,0.5434 4.25854,1.62734 1.1869,1.08966 1.77892,2.3738 1.77892,3.85528 V 25.19088 H 52.16068 V 7.85356 c 0,-0.4433 -0.17446,-0.82654 -0.52052,-1.14686 C 51.27122,6.38638 50.8508,6.22336 50.38176,6.22336 H 39.93418 c -0.49478,0 -0.92664,0.16302 -1.29558,0.48334 -0.32032,0.32032 -0.48334,0.70356 -0.48334,1.14686 v 17.33732 z"
           id="path132"
           inkscape:connector-curvature="0" />
        <path
           d="M 73.05298,25.19088 V 7.85356 c 0,-0.4433 -0.1859,-0.82654 -0.55484,-1.14686 C 72.15208,6.38638 71.73166,6.22336 71.23974,6.22336 H 62.60826 V 0 H 90.3188 v 6.22336 h -8.63148 c -0.52052,0 -0.95238,0.16302 -1.29844,0.48334 -0.34606,0.32032 -0.51766,0.70356 -0.51766,1.14686 v 17.33732 z"
           id="path134"
           inkscape:connector-curvature="0" />
        <path
           d="m 99.94842,25.19088 c -1.70456,0 -3.13742,-0.53196 -4.29572,-1.59302 -1.16116,-1.0868 -1.74174,-2.38238 -1.74174,-3.8896 V 0 h 27.71054 v 6.22336 h -19.07906 c -0.49478,0 -0.92664,0.16302 -1.29558,0.48334 -0.32032,0.32032 -0.48334,0.70356 -0.48334,1.14686 0,0.46904 0.16302,0.86372 0.48334,1.18404 0.34606,0.29744 0.77506,0.4433 1.29558,0.4433 h 19.07906 v 6.22622 h -19.07906 c -0.49478,0 -0.92664,0.16016 -1.29558,0.48048 -0.32032,0.32032 -0.48334,0.70356 -0.48334,1.14686 0,0.46904 0.16302,0.86658 0.48334,1.1869 0.34606,0.29744 0.77506,0.4433 1.29558,0.4433 h 19.07906 v 6.22336 H 99.94842 Z"
           id="path136"
           inkscape:connector-curvature="0" />
        <path
           d="M 125.21366,25.19088 V 0 h 21.67308 c 1.67882,0 3.09738,0.5434 4.25854,1.62734 1.1869,1.08966 1.77892,2.3738 1.77892,3.85528 v 4.8906 c -0.1001,1.40712 -0.66638,2.14786 -1.70456,2.22222 1.03818,0.09724 1.60732,0.83798 1.70456,2.21936 v 10.37322 h -6.85256 v -7.85356 c 0,-0.4433 -0.17446,-0.82654 -0.52052,-1.14686 -0.36894,-0.32032 -0.78936,-0.48048 -1.2584,-0.48048 h -10.44758 c -0.49478,0 -0.92664,0.16016 -1.29558,0.48048 -0.32032,0.32032 -0.48334,0.70356 -0.48334,1.14686 v 7.85356 h -6.85256 z M 144.29272,9.48376 c 0.49192,0 0.91234,-0.14586 1.2584,-0.4433 0.34606,-0.32032 0.52052,-0.715 0.52052,-1.18404 0,-0.4433 -0.17446,-0.82654 -0.52052,-1.14686 -0.36894,-0.32032 -0.78936,-0.48334 -1.2584,-0.48334 h -10.44758 c -0.49478,0 -0.92664,0.16302 -1.29558,0.48334 -0.32032,0.32032 -0.48334,0.70356 -0.48334,1.14686 0,0.46904 0.16302,0.86372 0.48334,1.18404 0.34606,0.29744 0.77506,0.4433 1.29558,0.4433 z"
           id="Shape"
           inkscape:connector-curvature="0" />
        <path
           d="M 166.96394,25.19088 V 7.85356 c 0,-0.4433 -0.1859,-0.82654 -0.55484,-1.14686 -0.34606,-0.32032 -0.76648,-0.48334 -1.2584,-0.48334 h -8.63148 V 0 h 27.71054 v 6.22336 h -8.63148 c -0.52052,0 -0.95238,0.16302 -1.29844,0.48334 -0.34606,0.32032 -0.51766,0.70356 -0.51766,1.14686 v 17.33732 z"
           id="path139"
           inkscape:connector-curvature="0" />
        <path
           d="M 187.82192,25.19088 V 5.48262 c 0,-1.50436 0.58058,-2.79136 1.74174,-3.85528 C 190.7477,0.5434 192.18056,0 193.85938,0 h 15.63276 c 1.67882,0 3.09738,0.5434 4.25854,1.62734 1.1869,1.08966 1.77892,2.3738 1.77892,3.85528 v 19.70826 h -6.85256 v -9.4809 h -14.00256 v 9.4809 z M 208.67704,9.48376 V 7.85642 c 0,-0.4433 -0.17446,-0.82654 -0.52052,-1.14686 -0.36894,-0.32032 -0.78936,-0.48334 -1.2584,-0.48334 h -10.44758 c -0.49478,0 -0.92664,0.16302 -1.29558,0.48334 -0.32032,0.32032 -0.48334,0.70356 -0.48334,1.14686 v 1.62734 z"
           id="path141"
           inkscape:connector-curvature="0" />
        <polygon
           id="polygon143"
           points="219.12462,5.1514348e-14 225.97718,5.1514348e-14 225.97718,25.19088 219.12462,25.19088 " />
        <path
           d="M 229.5722,25.19088 V 0 h 21.67022 c 1.67882,0 3.10024,0.5434 4.2614,1.62734 1.1869,1.08966 1.77892,2.3738 1.77892,3.85528 v 19.70826 h -6.85256 V 7.85356 c 0,-0.4433 -0.17446,-0.82654 -0.51766,-1.14686 -0.3718,-0.32032 -0.78936,-0.48334 -1.2584,-0.48334 h -10.44758 c -0.49478,0 -0.92664,0.16302 -1.29844,0.48334 -0.32032,0.32032 -0.48048,0.70356 -0.48048,1.14686 v 17.33732 z"
           id="path145"
           inkscape:connector-curvature="0" />
        <path
           d="M 260.8749,25.19088 V 0 h 32.1178 c 1.65594,0 3.06306,0.5434 4.22422,1.62734 1.20978,1.08966 1.81324,2.3738 1.81324,3.85528 V 25.19088 H 292.1776 V 7.85356 c 0,-0.4433 -0.1859,-0.82654 -0.55484,-1.14686 -0.34606,-0.32032 -0.76648,-0.48334 -1.2584,-0.48334 h -5.18518 c -0.52052,0 -0.95238,0.16302 -1.29558,0.48334 -0.34606,0.32032 -0.52052,0.70356 -0.52052,1.14686 v 17.33732 h -6.85256 V 7.85356 c 0,-0.4433 -0.1716,-0.82654 -0.51766,-1.14686 -0.36894,-0.32032 -0.78936,-0.48334 -1.2584,-0.48334 h -5.22808 c -0.49478,0 -0.92664,0.16302 -1.29844,0.48334 -0.32032,0.32032 -0.48048,0.70356 -0.48048,1.14686 v 17.33732 z"
           id="path147"
           inkscape:connector-curvature="0" />
        <path
           d="m 308.62832,25.19088 c -1.70456,0 -3.13742,-0.53196 -4.29572,-1.59302 -1.16116,-1.0868 -1.74174,-2.38238 -1.74174,-3.8896 V 0 h 27.71054 v 6.22336 h -19.07906 c -0.49478,0 -0.92664,0.16302 -1.29844,0.48334 -0.32032,0.32032 -0.48048,0.70356 -0.48048,1.14686 0,0.46904 0.16016,0.86372 0.48048,1.18404 0.34606,0.29744 0.77792,0.4433 1.29844,0.4433 h 19.07906 v 6.22622 h -19.07906 c -0.49478,0 -0.92664,0.16016 -1.29844,0.48048 -0.32032,0.32032 -0.48048,0.70356 -0.48048,1.14686 0,0.46904 0.16016,0.86658 0.48048,1.1869 0.34606,0.29744 0.77792,0.4433 1.29844,0.4433 h 19.07906 v 6.22336 h -21.67308 z"
           id="path149"
           inkscape:connector-curvature="0" />
        <path
           d="M 333.8907,25.19088 V 0 h 21.67308 c 1.67882,0 3.10024,0.5434 4.25854,1.62734 1.1869,1.08966 1.77892,2.3738 1.77892,3.85528 v 19.70826 h -6.85256 V 7.85356 c 0,-0.4433 -0.17446,-0.82654 -0.52052,-1.14686 -0.36894,-0.32032 -0.7865,-0.48334 -1.25554,-0.48334 h -10.44758 c -0.49478,0 -0.92378,0.16302 -1.29844,0.48334 -0.31746,0.32032 -0.48048,0.70356 -0.48048,1.14686 v 17.33732 z"
           id="path151"
           inkscape:connector-curvature="0" />
        <path
           d="M 375.64384,25.19088 V 7.85356 c 0,-0.4433 -0.1859,-0.82654 -0.55484,-1.14686 -0.34606,-0.32032 -0.76648,-0.48334 -1.2584,-0.48334 h -8.63434 V 0 h 27.71054 v 6.22336 h -8.63148 c -0.52052,0 -0.95238,0.16302 -1.29844,0.48334 -0.3432,0.32032 -0.51766,0.70356 -0.51766,1.14686 v 17.33732 z"
           id="path153"
           inkscape:connector-curvature="0" />
      </g>
      <path
         d="M 32.022697,60.316268 C 12.826636,60.309765 0,46.706054 0,30.211877 v 0 C 0,13.717705 12.855898,-0.04207355 31.993432,9.669608e-5 H 212.84087 C 231.9784,-0.04207834 244.8343,13.717705 244.8343,30.211877 v 0 c 0,16.494177 -12.82664,30.097888 -32.02269,30.104391 z M 32.081218,7.4198115 C 16.88434,7.4490768 7.5561725,17.606334 7.5561725,30.172861 v 0 c 0,12.563276 9.2696425,22.805078 24.5250455,22.750026 H 212.75308 c 15.25541,0.0518 24.5283,-10.18675 24.5283,-22.750026 v 0 c 0,-12.563275 -9.32817,-22.7205373 -24.52505,-22.7498026 z M 222.47141,18.025761 c 1.38183,0 2.06787,0.468198 2.06787,1.394838 0,0.637268 -0.39667,1.118468 -1.05669,1.28429 l 1.0827,2.162155 h -1.3103 l -0.92664,-1.98333 h -0.57549 v 1.98333 h -1.18024 v -4.841283 z m -0.1073,-1.892292 c -2.41251,0 -4.36983,1.957321 -4.36983,4.369834 0,2.412512 1.95732,4.369833 4.36983,4.369833 2.41252,0 4.36984,-1.957321 4.36984,-4.369833 0,-2.412513 -1.95732,-4.369834 -4.36984,-4.369834 z m 3.53424,4.373085 c 0,1.950818 -1.58341,3.534236 -3.53424,3.534236 -1.95081,0 -3.53423,-1.583418 -3.53423,-3.534236 0,-1.950818 1.58342,-3.534236 3.53423,-3.534236 1.95083,0 3.53424,1.580167 3.53424,3.534236 z m -4.14549,-0.33164 h 0.57549 c 0.67303,0 0.99817,-0.204834 0.99817,-0.686038 0,-0.503962 -0.3479,-0.721803 -1.0567,-0.721803 h -0.51696 z m -98.76347,11.831718 c -0.013,-1.654946 0.0228,-2.760406 0.56574,-3.703305 0.66653,-1.163987 1.89229,-1.716719 3.00426,-1.723223 h -0.003 c 1.11197,0.0065 2.33773,0.559236 3.00426,1.723223 0.54298,0.946146 0.56574,2.051611 0.55274,3.706557 z m 7.09448,5.693139 c 0,0 0.007,0.08454 0.007,1.144481 0,3.452953 -2.2727,4.220274 -3.53423,4.220274 -1.26153,0 -3.57325,-0.767321 -3.57325,-4.220274 0,-1.033933 0.007,-3.898384 0.007,-3.898384 0,0 16.0845,0.0065 16.0845,-0.0033 0,-5.85571 -5.65412,-10.706748 -12.59904,-10.706748 -6.94491,0 -12.57302,4.746993 -12.57302,10.602703 0,5.855709 5.62811,10.599451 12.57302,10.599451 5.76142,0 10.62871,-3.287131 12.11459,-7.74475 z M 156.9499,24.55125 c 3.19284,-0.09104 9.66956,1.999594 9.62428,9.474481 -0.007,1.326557 -0.004,10.274314 -0.004,10.274314 h -8.48281 c 0,0 0,-11.22046 0,-12.40071 0,-1.645191 -1.57366,-3.475705 -3.90164,-3.475705 -2.32472,0 -4.05445,1.830514 -4.05445,3.475705 0,0.806342 0.01,12.40071 0.01,12.40071 h -8.4763 l 0.006,-18.88068 8.47306,-0.0065 c 0,0 -0.01,1.518384 0,1.986581 1.63219,-1.557404 3.98618,-2.766909 6.80511,-2.848197 z m -69.390638,0 c 3.19284,-0.09104 9.669563,1.999594 9.624283,9.474481 -0.0067,1.326557 -0.0036,10.274314 -0.0036,10.274314 H 88.69713 c 0,0 0,-11.22046 0,-12.40071 0,-1.645191 -1.573659,-3.475705 -3.901636,-3.475705 -2.324726,0 -4.054451,1.830514 -4.054451,3.475705 0,0.806342 0.0098,12.40071 0.0098,12.40071 h -8.476307 l -0.0033,-18.88068 8.482811,-0.0065 c 0,0 -0.0098,1.518384 0,1.986581 1.632189,-1.557404 3.982923,-2.766909 6.805107,-2.848197 z m 97.417408,-8.638873 h 8.42754 v 28.394171 h -8.44055 c 0,0 -0.003,-0.916885 -0.003,-1.092458 -3.26762,2.051611 -6.95466,2.048359 -9.82562,0.708795 -0.77058,-0.357649 -5.83946,-2.789672 -5.83946,-9.36068 0,-4.984344 4.70148,-10.42713 10.85632,-9.887399 2.02559,0.178824 3.46595,0.916885 4.83152,1.684206 -0.006,-4.369838 -0.006,-10.446635 -0.006,-10.446635 z m 0.0618,18.857918 c 0,0 0,-2.366998 0,-3.374921 0,-2.919726 -2.01584,-3.664285 -3.3424,-3.664285 -1.35907,0 -3.34891,0.744559 -3.34891,3.664285 0,0.968907 0.003,3.365166 0.003,3.365166 0,0 -0.003,2.353986 -0.003,3.358658 0,2.916474 1.98984,3.680548 3.34566,3.680548 1.32981,0 3.34891,-0.764074 3.34891,-3.680548 0,-1.212757 -0.003,-3.348903 -0.003,-3.348903 z m 27.05461,-0.05527 c 0,0 -0.003,2.854696 -0.003,3.999177 0,3.010764 -1.77849,4.252786 -3.48871,4.252786 -1.71347,0 -3.49847,-1.242022 -3.49847,-4.252786 0,-1.144481 0.003,-4.07071 0.003,-4.07071 0,0 0.006,-2.792919 0.006,-3.9374 0,-2.997761 1.78825,-4.230029 3.48872,-4.230029 1.70371,0 3.48871,1.232268 3.48871,4.230029 0,1.144481 -0.003,3.261117 0.007,4.018688 z m -3.43019,-10.579946 c -6.89289,0 -12.47874,4.746998 -12.47874,10.602703 0,5.85571 5.5891,10.602703 12.47874,10.602703 6.89289,0 12.47874,-4.746993 12.47874,-10.602703 0,-5.855705 -5.58585,-10.602703 -12.47874,-10.602703 z M 59.01228,21.709561 v -5.803687 h 8.55759 v 5.803687 z m 0.01951,22.597083 V 25.422617 l 8.538085,0.0033 v 18.88068 z m 42.83674,-9.6e-5 0.003,-18.844916 h -4.642944 v -2.802673 l 4.646204,-0.0033 -0.007,-3.823604 h 8.54459 v 3.820353 h 4.62344 v 2.809177 h -4.62344 l 0.006,18.845011 z m -77.584079,0 0.0033,-28.394171 h 8.846963 l 12.238138,19.800812 -0.0065,-19.800812 h 8.778687 V 44.306548 H 45.379303 L 33.07614,24.505731 v 19.800817 z"
         id="path29"
         inkscape:connector-curvature="0" />
    </g>
  </g>
</svg>
