<?xml version="1.0" encoding="UTF-8" standalone="no"?>
<svg
   xmlns:dc="http://purl.org/dc/elements/1.1/"
   xmlns:cc="http://creativecommons.org/ns#"
   xmlns:rdf="http://www.w3.org/1999/02/22-rdf-syntax-ns#"
   xmlns:svg="http://www.w3.org/2000/svg"
   xmlns="http://www.w3.org/2000/svg"
   xmlns:sodipodi="http://sodipodi.sourceforge.net/DTD/sodipodi-0.dtd"
   xmlns:inkscape="http://www.inkscape.org/namespaces/inkscape"
   width="500"
   height="200"
   viewBox="0 0 500 200"
   version="1.1"
   id="svg159"
   sodipodi:docname="nesh.svg"
   inkscape:version="0.92.5 (2060ec1f9f, 2020-04-08)">
  <metadata
     id="metadata165">
    <rdf:RDF>
      <cc:Work
         rdf:about="">
        <dc:format>image/svg+xml</dc:format>
        <dc:type
           rdf:resource="http://purl.org/dc/dcmitype/StillImage" />
        <dc:title>syslogo</dc:title>
      </cc:Work>
    </rdf:RDF>
  </metadata>
  <defs
     id="defs163" />
  <sodipodi:namedview
     pagecolor="#ffffff"
     bordercolor="#666666"
     borderopacity="1"
     objecttolerance="10"
     gridtolerance="10"
     guidetolerance="10"
     inkscape:pageopacity="0"
     inkscape:pageshadow="2"
     inkscape:window-width="1366"
     inkscape:window-height="740"
     id="namedview161"
     showgrid="false"
     inkscape:pagecheckerboard="true"
     inkscape:zoom="1.2539616"
     inkscape:cx="136.08886"
     inkscape:cy="40.147587"
     inkscape:window-x="0"
     inkscape:window-y="0"
     inkscape:window-maximized="1"
     inkscape:current-layer="svg159" />
  <title
     id="title110">syslogo</title>
  <g
     id="Page-1"
     style="fill:none;fill-rule:evenodd;stroke:none;stroke-width:1"
     transform="matrix(1.1616876,0,0,1.1616876,-2.0492221e-8,15.128197)">
    <g
       id="syslogo"
       style="fill:#ffffff;fill-rule:nonzero">
      <g
         id="Group-26"
         transform="translate(1.03618,112.49014)">
        <g
           id="Group"
           transform="translate(196.51346,0.14014)">
          <path
             d="M 4.5188,9.20062 V 2.95724 C 4.5188,2.71414 4.43586,2.50536 4.25568,2.32804 4.0755,2.15072 3.86958,2.06206 3.62934,2.06206 H 0.95238 V 0.27742 H 9.87272 V 2.06206 H 7.19004 c -0.24596,0 -0.46332,0.08866 -0.63778,0.26598 -0.16874,0.17732 -0.25168,0.3861 -0.25168,0.6292 v 6.24338 z"
             id="Path"
             inkscape:connector-curvature="0" />
          <path
             d="M 11.65736,9.20062 V 0.28028 h 10.70212 c 0.49192,0 0.90948,0.18018 1.25268,0.53196 0.3575,0.35464 0.53196,0.7722 0.53196,1.25268 v 7.1357 H 22.36234 V 2.95724 c 0,-0.2431 -0.08866,-0.45188 -0.26884,-0.6292 C 21.91904,2.15072 21.7074,2.06206 21.46716,2.06206 h -1.78178 c -0.25168,0 -0.46332,0.08866 -0.6435,0.26598 -0.16874,0.17732 -0.25168,0.3861 -0.25168,0.6292 V 9.20062 H 17.00842 V 2.95724 c 0,-0.2431 -0.08866,-0.45188 -0.26884,-0.6292 -0.17446,-0.17732 -0.3861,-0.26598 -0.62634,-0.26598 h -1.78178 c -0.25168,0 -0.46332,0.08866 -0.6435,0.26598 -0.16874,0.17732 -0.25168,0.3861 -0.25168,0.6292 v 6.24338 z"
             id="path113"
             inkscape:connector-curvature="0" />
        </g>
        <g
           id="Group-24">
          <path
             d="m 0,25.19088 v -6.22336 h 19.0762 c 0.49764,0 0.9152,-0.14872 1.26126,-0.4433 0.34606,-0.32032 0.52052,-0.71786 0.52052,-1.1869 0,-0.4433 -0.17446,-0.82654 -0.52052,-1.14686 -0.36894,-0.32032 -0.79222,-0.48048 -1.26126,-0.48048 H 6.03746 C 4.3329,15.70998 2.90004,15.17802 1.74174,14.1141 0.58058,13.0273 0,11.73172 0,10.22736 V 5.48548 C 0,3.98112 0.58058,2.69412 1.74174,1.6302 2.92578,0.54626 4.35578,0.00286 6.03746,0.00286 H 27.71054 V 6.22622 H 8.62862 c -0.49192,0 -0.92664,0.16302 -1.29558,0.48334 -0.31746,0.32032 -0.48048,0.70356 -0.48048,1.14686 0,0.46904 0.16302,0.86372 0.48048,1.18404 0.34606,0.29744 0.77506,0.4433 1.29558,0.4433 h 13.04446 c 1.67596,0 3.09452,0.5434 4.25568,1.6302 1.18404,1.0868 1.78178,2.37094 1.78178,3.85528 v 4.73902 c 0,1.53296 -0.59774,2.82854 -1.78178,3.8896 -1.20692,1.06106 -2.6312,1.59302 -4.25568,1.59302 z"
             id="path116"
             inkscape:connector-curvature="0" />
          <path
             d="m 41.75028,25.19088 v -9.4809 h -4.40726 c -1.70456,0 -3.14028,-0.53196 -4.30144,-1.59588 -1.15544,-1.0868 -1.73602,-2.38238 -1.73602,-3.88674 V 0.00286 h 6.85256 v 7.85356 c 0,0.46904 0.1573,0.86372 0.48048,1.18404 0.34606,0.29744 0.77506,0.4433 1.29558,0.4433 H 50.3789 c 0.49764,0 0.9152,-0.14586 1.26126,-0.4433 0.34034,-0.32032 0.5148,-0.715 0.5148,-1.18404 V 0.00286 h 6.85256 v 10.2245 c 0,1.5301 -0.59202,2.82568 -1.77606,3.88674 -1.21264,1.06392 -2.6312,1.59588 -4.2614,1.59588 H 48.5628 v 9.4809 z"
             id="path118"
             inkscape:connector-curvature="0" />
          <path
             d="m 62.60826,25.19088 v -6.22336 h 19.0762 c 0.49764,0 0.9152,-0.14872 1.26126,-0.4433 0.34034,-0.32032 0.5148,-0.71786 0.5148,-1.1869 0,-0.4433 -0.17446,-0.82654 -0.5148,-1.14686 -0.37466,-0.32032 -0.79222,-0.48048 -1.26126,-0.48048 H 68.64572 c -1.70456,0 -3.14028,-0.53196 -4.30144,-1.59588 -1.15544,-1.0868 -1.73602,-2.38238 -1.73602,-3.88674 V 5.48548 c 0,-1.50436 0.58058,-2.79136 1.73602,-3.85528 1.18976,-1.08394 2.61976,-1.62734 4.30144,-1.62734 h 21.66736 v 6.22336 h -19.0762 c -0.49764,0 -0.92664,0.16302 -1.29558,0.48334 -0.32318,0.32032 -0.48048,0.70356 -0.48048,1.14686 0,0.46904 0.1573,0.86372 0.48048,1.18404 0.34606,0.29744 0.77506,0.4433 1.29558,0.4433 h 13.03874 c 1.68168,0 3.10024,0.5434 4.2614,1.6302 1.18404,1.0868 1.77606,2.37094 1.77606,3.85528 v 4.73902 c 0,1.53296 -0.59202,2.82854 -1.77606,3.8896 -1.21264,1.06106 -2.6312,1.59302 -4.2614,1.59302 z"
             id="path120"
             inkscape:connector-curvature="0" />
          <path
             d="M 104.35568,25.19088 V 7.85356 c 0,-0.4433 -0.18304,-0.82654 -0.5577,-1.14686 -0.34034,-0.32032 -0.76648,-0.48334 -1.25554,-0.48334 H 93.91096 V 0 h 27.70768 v 6.22336 h -8.63148 c -0.52052,0 -0.94952,0.16302 -1.29558,0.48334 -0.34606,0.32032 -0.52052,0.70356 -0.52052,1.14686 v 17.33732 z"
             id="path122"
             inkscape:connector-curvature="0" />
          <path
             d="m 131.25398,25.19088 c -1.70456,0 -3.14028,-0.53196 -4.30144,-1.59302 -1.15544,-1.0868 -1.73602,-2.38238 -1.73602,-3.8896 V 0 H 152.9242 V 6.22336 H 133.848 c -0.49764,0 -0.92664,0.16302 -1.29558,0.48334 -0.32318,0.32032 -0.48048,0.70356 -0.48048,1.14686 0,0.46904 0.1573,0.86372 0.48048,1.18404 0.34606,0.29744 0.77506,0.4433 1.29558,0.4433 h 19.0762 v 6.22622 H 133.848 c -0.49764,0 -0.92664,0.16016 -1.29558,0.48048 -0.32318,0.32032 -0.48048,0.70356 -0.48048,1.14686 0,0.46904 0.1573,0.86658 0.48048,1.1869 0.34606,0.29744 0.77506,0.4433 1.29558,0.4433 h 19.0762 v 6.22336 h -21.67022 z"
             id="path124"
             inkscape:connector-curvature="0" />
          <path
             d="M 156.51922,25.19088 V 0 h 32.1178 c 1.65308,0 3.0602,0.5434 4.22422,1.62734 1.20692,1.08966 1.8161,2.3738 1.8161,3.85528 v 19.70826 h -6.85256 V 7.85356 c 0,-0.4433 -0.18876,-0.82654 -0.5577,-1.14686 -0.34606,-0.32032 -0.76648,-0.48334 -1.25554,-0.48334 h -5.18804 c -0.52052,0 -0.94952,0.16302 -1.29558,0.48334 -0.34606,0.32032 -0.52052,0.70356 -0.52052,1.14686 v 17.33732 h -6.85256 V 7.85356 c 0,-0.4433 -0.17446,-0.82654 -0.5148,-1.14686 -0.37466,-0.32032 -0.79222,-0.48334 -1.26126,-0.48334 h -5.22236 c -0.49764,0 -0.92664,0.16302 -1.29558,0.48334 -0.32318,0.32032 -0.48048,0.70356 -0.48048,1.14686 v 17.33732 z"
             id="path126"
             inkscape:connector-curvature="0" />
        </g>
      </g>
      <g
         id="Group-30"
         transform="translate(1,79)">
        <path
           d="m 6.03746,25.19088 c -1.70456,0 -3.13742,-0.53196 -4.29572,-1.59302 C 0.58058,22.51106 0,21.21548 0,19.70826 V 0 H 27.71054 V 6.22336 H 8.63148 C 8.1367,6.22336 7.70484,6.38638 7.3359,6.7067 7.01558,7.02702 6.85256,7.41026 6.85256,7.85356 c 0,0.46904 0.16302,0.86372 0.48334,1.18404 0.34606,0.29744 0.77506,0.4433 1.29558,0.4433 h 19.07906 v 6.22622 H 8.63148 c -0.49478,0 -0.92664,0.16016 -1.29558,0.48048 -0.32032,0.32032 -0.48334,0.70356 -0.48334,1.14686 0,0.46904 0.16302,0.86658 0.48334,1.1869 0.34606,0.29744 0.77506,0.4433 1.29558,0.4433 h 19.07906 v 6.22336 H 6.03746 Z"
           id="path130"
           inkscape:connector-curvature="0" />
        <path
           d="M 31.3027,25.19088 V 0 h 21.67308 c 1.67882,0 3.09738,0.5434 4.25854,1.62734 1.1869,1.08966 1.77892,2.3738 1.77892,3.85528 V 25.19088 H 52.16068 V 7.85356 c 0,-0.4433 -0.17446,-0.82654 -0.52052,-1.14686 C 51.27122,6.38638 50.8508,6.22336 50.38176,6.22336 H 39.93418 c -0.49478,0 -0.92664,0.16302 -1.29558,0.48334 -0.32032,0.32032 -0.48334,0.70356 -0.48334,1.14686 v 17.33732 z"
           id="path132"
           inkscape:connector-curvature="0" />
        <path
           d="M 73.05298,25.19088 V 7.85356 c 0,-0.4433 -0.1859,-0.82654 -0.55484,-1.14686 C 72.15208,6.38638 71.73166,6.22336 71.23974,6.22336 H 62.60826 V 0 H 90.3188 v 6.22336 h -8.63148 c -0.52052,0 -0.95238,0.16302 -1.29844,0.48334 -0.34606,0.32032 -0.51766,0.70356 -0.51766,1.14686 v 17.33732 z"
           id="path134"
           inkscape:connector-curvature="0" />
        <path
           d="m 99.94842,25.19088 c -1.70456,0 -3.13742,-0.53196 -4.29572,-1.59302 -1.16116,-1.0868 -1.74174,-2.38238 -1.74174,-3.8896 V 0 h 27.71054 v 6.22336 h -19.07906 c -0.49478,0 -0.92664,0.16302 -1.29558,0.48334 -0.32032,0.32032 -0.48334,0.70356 -0.48334,1.14686 0,0.46904 0.16302,0.86372 0.48334,1.18404 0.34606,0.29744 0.77506,0.4433 1.29558,0.4433 h 19.07906 v 6.22622 h -19.07906 c -0.49478,0 -0.92664,0.16016 -1.29558,0.48048 -0.32032,0.32032 -0.48334,0.70356 -0.48334,1.14686 0,0.46904 0.16302,0.86658 0.48334,1.1869 0.34606,0.29744 0.77506,0.4433 1.29558,0.4433 h 19.07906 v 6.22336 H 99.94842 Z"
           id="path136"
           inkscape:connector-curvature="0" />
        <path
           d="M 125.21366,25.19088 V 0 h 21.67308 c 1.67882,0 3.09738,0.5434 4.25854,1.62734 1.1869,1.08966 1.77892,2.3738 1.77892,3.85528 v 4.8906 c -0.1001,1.40712 -0.66638,2.14786 -1.70456,2.22222 1.03818,0.09724 1.60732,0.83798 1.70456,2.21936 v 10.37322 h -6.85256 v -7.85356 c 0,-0.4433 -0.17446,-0.82654 -0.52052,-1.14686 -0.36894,-0.32032 -0.78936,-0.48048 -1.2584,-0.48048 h -10.44758 c -0.49478,0 -0.92664,0.16016 -1.29558,0.48048 -0.32032,0.32032 -0.48334,0.70356 -0.48334,1.14686 v 7.85356 h -6.85256 z M 144.29272,9.48376 c 0.49192,0 0.91234,-0.14586 1.2584,-0.4433 0.34606,-0.32032 0.52052,-0.715 0.52052,-1.18404 0,-0.4433 -0.17446,-0.82654 -0.52052,-1.14686 -0.36894,-0.32032 -0.78936,-0.48334 -1.2584,-0.48334 h -10.44758 c -0.49478,0 -0.92664,0.16302 -1.29558,0.48334 -0.32032,0.32032 -0.48334,0.70356 -0.48334,1.14686 0,0.46904 0.16302,0.86372 0.48334,1.18404 0.34606,0.29744 0.77506,0.4433 1.29558,0.4433 z"
           id="Shape"
           inkscape:connector-curvature="0" />
        <path
           d="M 166.96394,25.19088 V 7.85356 c 0,-0.4433 -0.1859,-0.82654 -0.55484,-1.14686 -0.34606,-0.32032 -0.76648,-0.48334 -1.2584,-0.48334 h -8.63148 V 0 h 27.71054 v 6.22336 h -8.63148 c -0.52052,0 -0.95238,0.16302 -1.29844,0.48334 -0.34606,0.32032 -0.51766,0.70356 -0.51766,1.14686 v 17.33732 z"
           id="path139"
           inkscape:connector-curvature="0" />
        <path
           d="M 187.82192,25.19088 V 5.48262 c 0,-1.50436 0.58058,-2.79136 1.74174,-3.85528 C 190.7477,0.5434 192.18056,0 193.85938,0 h 15.63276 c 1.67882,0 3.09738,0.5434 4.25854,1.62734 1.1869,1.08966 1.77892,2.3738 1.77892,3.85528 v 19.70826 h -6.85256 v -9.4809 h -14.00256 v 9.4809 z M 208.67704,9.48376 V 7.85642 c 0,-0.4433 -0.17446,-0.82654 -0.52052,-1.14686 -0.36894,-0.32032 -0.78936,-0.48334 -1.2584,-0.48334 h -10.44758 c -0.49478,0 -0.92664,0.16302 -1.29558,0.48334 -0.32032,0.32032 -0.48334,0.70356 -0.48334,1.14686 v 1.62734 z"
           id="path141"
           inkscape:connector-curvature="0" />
        <polygon
           id="polygon143"
           points="225.97718,25.19088 219.12462,25.19088 219.12462,5.1514348e-14 225.97718,5.1514348e-14 " />
        <path
           d="M 229.5722,25.19088 V 0 h 21.67022 c 1.67882,0 3.10024,0.5434 4.2614,1.62734 1.1869,1.08966 1.77892,2.3738 1.77892,3.85528 v 19.70826 h -6.85256 V 7.85356 c 0,-0.4433 -0.17446,-0.82654 -0.51766,-1.14686 -0.3718,-0.32032 -0.78936,-0.48334 -1.2584,-0.48334 h -10.44758 c -0.49478,0 -0.92664,0.16302 -1.29844,0.48334 -0.32032,0.32032 -0.48048,0.70356 -0.48048,1.14686 v 17.33732 z"
           id="path145"
           inkscape:connector-curvature="0" />
        <path
           d="M 260.8749,25.19088 V 0 h 32.1178 c 1.65594,0 3.06306,0.5434 4.22422,1.62734 1.20978,1.08966 1.81324,2.3738 1.81324,3.85528 V 25.19088 H 292.1776 V 7.85356 c 0,-0.4433 -0.1859,-0.82654 -0.55484,-1.14686 -0.34606,-0.32032 -0.76648,-0.48334 -1.2584,-0.48334 h -5.18518 c -0.52052,0 -0.95238,0.16302 -1.29558,0.48334 -0.34606,0.32032 -0.52052,0.70356 -0.52052,1.14686 v 17.33732 h -6.85256 V 7.85356 c 0,-0.4433 -0.1716,-0.82654 -0.51766,-1.14686 -0.36894,-0.32032 -0.78936,-0.48334 -1.2584,-0.48334 h -5.22808 c -0.49478,0 -0.92664,0.16302 -1.29844,0.48334 -0.32032,0.32032 -0.48048,0.70356 -0.48048,1.14686 v 17.33732 z"
           id="path147"
           inkscape:connector-curvature="0" />
        <path
           d="m 308.62832,25.19088 c -1.70456,0 -3.13742,-0.53196 -4.29572,-1.59302 -1.16116,-1.0868 -1.74174,-2.38238 -1.74174,-3.8896 V 0 h 27.71054 v 6.22336 h -19.07906 c -0.49478,0 -0.92664,0.16302 -1.29844,0.48334 -0.32032,0.32032 -0.48048,0.70356 -0.48048,1.14686 0,0.46904 0.16016,0.86372 0.48048,1.18404 0.34606,0.29744 0.77792,0.4433 1.29844,0.4433 h 19.07906 v 6.22622 h -19.07906 c -0.49478,0 -0.92664,0.16016 -1.29844,0.48048 -0.32032,0.32032 -0.48048,0.70356 -0.48048,1.14686 0,0.46904 0.16016,0.86658 0.48048,1.1869 0.34606,0.29744 0.77792,0.4433 1.29844,0.4433 h 19.07906 v 6.22336 h -21.67308 z"
           id="path149"
           inkscape:connector-curvature="0" />
        <path
           d="M 333.8907,25.19088 V 0 h 21.67308 c 1.67882,0 3.10024,0.5434 4.25854,1.62734 1.1869,1.08966 1.77892,2.3738 1.77892,3.85528 v 19.70826 h -6.85256 V 7.85356 c 0,-0.4433 -0.17446,-0.82654 -0.52052,-1.14686 -0.36894,-0.32032 -0.7865,-0.48334 -1.25554,-0.48334 h -10.44758 c -0.49478,0 -0.92378,0.16302 -1.29844,0.48334 -0.31746,0.32032 -0.48048,0.70356 -0.48048,1.14686 v 17.33732 z"
           id="path151"
           inkscape:connector-curvature="0" />
        <path
           d="M 375.64384,25.19088 V 7.85356 c 0,-0.4433 -0.1859,-0.82654 -0.55484,-1.14686 -0.34606,-0.32032 -0.76648,-0.48334 -1.2584,-0.48334 h -8.63434 V 0 h 27.71054 v 6.22336 h -8.63148 c -0.52052,0 -0.95238,0.16302 -1.29844,0.48334 -0.3432,0.32032 -0.51766,0.70356 -0.51766,1.14686 v 17.33732 z"
           id="path153"
           inkscape:connector-curvature="0" />
      </g>
      <path
         d="M 32.022697,60.316268 C 12.826636,60.309765 0,46.706054 0,30.211877 v 0 C 0,13.717705 12.855898,-0.04207355 31.993432,9.669608e-5 H 212.84087 C 231.9784,-0.04207834 244.8343,13.717705 244.8343,30.211877 v 0 c 0,16.494177 -12.82664,30.097888 -32.02269,30.104391 z M 32.081218,7.4198115 C 16.88434,7.4490768 7.5561725,17.606334 7.5561725,30.172861 v 0 c 0,12.563276 9.2696425,22.805078 24.5250455,22.750026 H 212.75308 c 15.25541,0.0518 24.5283,-10.18675 24.5283,-22.750026 v 0 c 0,-12.563275 -9.32817,-22.7205373 -24.52505,-22.7498026 z M 222.47141,18.025761 c 1.38183,0 2.06787,0.468198 2.06787,1.394838 0,0.637268 -0.39667,1.118468 -1.05669,1.28429 l 1.0827,2.162155 h -1.3103 l -0.92664,-1.98333 h -0.57549 v 1.98333 h -1.18024 v -4.841283 z m -0.1073,-1.892292 c -2.41251,0 -4.36983,1.957321 -4.36983,4.369834 0,2.412512 1.95732,4.369833 4.36983,4.369833 2.41252,0 4.36984,-1.957321 4.36984,-4.369833 0,-2.412513 -1.95732,-4.369834 -4.36984,-4.369834 z m 3.53424,4.373085 c 0,1.950818 -1.58341,3.534236 -3.53424,3.534236 -1.95081,0 -3.53423,-1.583418 -3.53423,-3.534236 0,-1.950818 1.58342,-3.534236 3.53423,-3.534236 1.95083,0 3.53424,1.580167 3.53424,3.534236 z m -4.14549,-0.33164 h 0.57549 c 0.67303,0 0.99817,-0.204834 0.99817,-0.686038 0,-0.503962 -0.3479,-0.721803 -1.0567,-0.721803 h -0.51696 z m -98.76347,11.831718 c -0.013,-1.654946 0.0228,-2.760406 0.56574,-3.703305 0.66653,-1.163987 1.89229,-1.716719 3.00426,-1.723223 h -0.003 c 1.11197,0.0065 2.33773,0.559236 3.00426,1.723223 0.54298,0.946146 0.56574,2.051611 0.55274,3.706557 z m 7.09448,5.693139 c 0,0 0.007,0.08454 0.007,1.144481 0,3.452953 -2.2727,4.220274 -3.53423,4.220274 -1.26153,0 -3.57325,-0.767321 -3.57325,-4.220274 0,-1.033933 0.007,-3.898384 0.007,-3.898384 0,0 16.0845,0.0065 16.0845,-0.0033 0,-5.85571 -5.65412,-10.706748 -12.59904,-10.706748 -6.94491,0 -12.57302,4.746993 -12.57302,10.602703 0,5.855709 5.62811,10.599451 12.57302,10.599451 5.76142,0 10.62871,-3.287131 12.11459,-7.74475 z M 156.9499,24.55125 c 3.19284,-0.09104 9.66956,1.999594 9.62428,9.474481 -0.007,1.326557 -0.004,10.274314 -0.004,10.274314 h -8.48281 c 0,0 0,-11.22046 0,-12.40071 0,-1.645191 -1.57366,-3.475705 -3.90164,-3.475705 -2.32472,0 -4.05445,1.830514 -4.05445,3.475705 0,0.806342 0.01,12.40071 0.01,12.40071 h -8.4763 l 0.006,-18.88068 8.47306,-0.0065 c 0,0 -0.01,1.518384 0,1.986581 1.63219,-1.557404 3.98618,-2.766909 6.80511,-2.848197 z m -69.390638,0 c 3.19284,-0.09104 9.669563,1.999594 9.624283,9.474481 -0.0067,1.326557 -0.0036,10.274314 -0.0036,10.274314 H 88.69713 c 0,0 0,-11.22046 0,-12.40071 0,-1.645191 -1.573659,-3.475705 -3.901636,-3.475705 -2.324726,0 -4.054451,1.830514 -4.054451,3.475705 0,0.806342 0.0098,12.40071 0.0098,12.40071 h -8.476307 l -0.0033,-18.88068 8.482811,-0.0065 c 0,0 -0.0098,1.518384 0,1.986581 1.632189,-1.557404 3.982923,-2.766909 6.805107,-2.848197 z m 97.417408,-8.638873 h 8.42754 v 28.394171 h -8.44055 c 0,0 -0.003,-0.916885 -0.003,-1.092458 -3.26762,2.051611 -6.95466,2.048359 -9.82562,0.708795 -0.77058,-0.357649 -5.83946,-2.789672 -5.83946,-9.36068 0,-4.984344 4.70148,-10.42713 10.85632,-9.887399 2.02559,0.178824 3.46595,0.916885 4.83152,1.684206 -0.006,-4.369838 -0.006,-10.446635 -0.006,-10.446635 z m 0.0618,18.857918 c 0,0 0,-2.366998 0,-3.374921 0,-2.919726 -2.01584,-3.664285 -3.3424,-3.664285 -1.35907,0 -3.34891,0.744559 -3.34891,3.664285 0,0.968907 0.003,3.365166 0.003,3.365166 0,0 -0.003,2.353986 -0.003,3.358658 0,2.916474 1.98984,3.680548 3.34566,3.680548 1.32981,0 3.34891,-0.764074 3.34891,-3.680548 0,-1.212757 -0.003,-3.348903 -0.003,-3.348903 z m 27.05461,-0.05527 c 0,0 -0.003,2.854696 -0.003,3.999177 0,3.010764 -1.77849,4.252786 -3.48871,4.252786 -1.71347,0 -3.49847,-1.242022 -3.49847,-4.252786 0,-1.144481 0.003,-4.07071 0.003,-4.07071 0,0 0.006,-2.792919 0.006,-3.9374 0,-2.997761 1.78825,-4.230029 3.48872,-4.230029 1.70371,0 3.48871,1.232268 3.48871,4.230029 0,1.144481 -0.003,3.261117 0.007,4.018688 z m -3.43019,-10.579946 c -6.89289,0 -12.47874,4.746998 -12.47874,10.602703 0,5.85571 5.5891,10.602703 12.47874,10.602703 6.89289,0 12.47874,-4.746993 12.47874,-10.602703 0,-5.855705 -5.58585,-10.602703 -12.47874,-10.602703 z M 59.01228,21.709561 v -5.803687 h 8.55759 v 5.803687 z m 0.01951,22.597083 V 25.422617 l 8.538085,0.0033 v 18.88068 z m 42.83674,-9.6e-5 0.003,-18.844916 h -4.642944 v -2.802673 l 4.646204,-0.0033 -0.007,-3.823604 h 8.54459 v 3.820353 h 4.62344 v 2.809177 h -4.62344 l 0.006,18.845011 z m -77.584079,0 0.0033,-28.394171 h 8.846963 l 12.238138,19.800812 -0.0065,-19.800812 h 8.778687 V 44.306548 H 45.379303 L 33.07614,24.505731 v 19.800817 z"
         id="path29"
         inkscape:connector-curvature="0" />
    </g>
  </g>
  <g
     aria-label="[HACKS]"
     transform="matrix(2.157844,-0.51428943,0.58119693,2.6463694,-252.44168,200.75414)"
     style="font-style:normal;font-weight:normal;font-size:40px;line-height:125%;font-family:sans-serif;letter-spacing:0px;word-spacing:0px;fill:#ff0000;fill-opacity:1;stroke:none;stroke-width:1px;stroke-linecap:butt;stroke-linejoin:miter;stroke-opacity:1"
     id="flowRoot52">
    <path
       inkscape:connector-curvature="0"
       d="m 162.07617,-12.482817 q 0.41016,-0.03906 0.41016,-0.136719 l 0.625,0.07813 1.77734,-0.01953 h 0.0195 v 2.480469 q -0.8789,-0.117188 -0.8789,-0.292969 l -0.60547,0.09766 -0.0781,-0.07813 h -0.0781 q -0.0977,0.117188 -0.89844,0.175781 0.0977,0.5859378 0.29297,0.839844 -0.15625,0.7617188 -0.46875,1.09375 l 0.0781,0.3125 -0.0781,0.234375 0.0781,0.625 -0.0781,0.078125 0.0781,0.390625 v 0.234375 l -0.0781,1.09375 0.0781,0.078125 v 0.078125 l -0.15625,0.46875 0.23438,1.40625 v 0.234375 l -0.15625,0.625 v 0.390625 q 0,0.5664063 0.23437,1.40625001 l -0.0781,0.234375 0.0781,1.09375 V 1.052339 l -0.3125,1.25 q 0.39063,1.3867188 0.39063,1.875 -0.23438,0 -0.23438,0.3125 l 0.0781,0.46875 -0.0781,0.625 0.0781,0.078125 -0.0781,0.078125 v 0.078125 q 0,1.40625 0.3125,3.046875 l -0.3125,0.859375 0.15625,1.015625 -0.0781,0.625 0.15625,0.46875 v 0.3125 q 0,0.371094 -0.23438,0.78125 l 0.0781,0.703125 q -0.0977,0 -0.3125,0.78125 0.0977,0.410156 0.39062,0.625 l 0.0781,0.3125 -0.0781,0.546875 0.0781,0.07813 -0.23438,2.8125 0.0781,0.3125 -0.23438,0.9375 0.0781,0.859375 -0.0781,0.625 0.23438,1.09375 -0.0781,0.664063 0.58594,0.117187 1.38672,-0.253906 0.66406,0.09766 -0.0391,2.167969 -0.0781,0.07813 -0.0781,-0.07813 h -0.3125 l -1.62109,0.253906 q -0.91797,-0.03906 -1.46485,-0.09766 V 25.36875 l -1.36718,-0.07813 0.21484,-1.503906 q -0.21484,0 -0.3125,-1.171875 l 0.0781,-0.3125 v -0.625 l 0.23438,-0.625 -0.23438,-1.015625 0.0781,-0.234375 q -0.0781,-1.015625 -0.23438,-1.015625 l 0.0781,-0.390625 -0.0781,-0.3125 q 0.39063,-0.429687 0.39063,-1.484375 l -0.15625,-0.15625 v -0.07813 l 0.0781,-0.3125 -0.15625,-0.3125 0.15625,-0.625 -0.23437,-1.25 0.3125,-0.546875 -0.15625,-0.46875 0.0781,-0.07813 v -0.07813 l -0.0781,-0.78125 0.23437,-0.703125 q -0.3125,-0.46875 -0.3125,-1.40625 l 0.15625,-0.703125 q 0,-0.546875 -0.15625,-0.859375 l 0.0781,-0.859375 v -0.70311 l -0.0781,-0.078125 0.15625,-0.625 -0.0781,-0.3125 0.0781,-0.234375 -0.23437,-0.46875 0.23437,-1.25 -0.0781,-1.5625 q 0,-1.015625 0.23437,-1.64062499 -0.54687,-0.80078125 -0.54687,-1.09375 v -0.234375 l 0.3125,-1.48437501 v -1.09375 l -0.15625,-0.546875 0.15625,-1.328125 q 0,-0.3710937 -0.39063,-1.171875 0,-0.390625 0.54688,-1.09375 v -0.15625 l -0.23438,-0.234375 v -0.078125 h 0.15625 v -0.078125 q -0.3125,-0.3125 -0.3125,-0.546875 l 0.0781,-0.625 -0.0781,-0.078125 q 0.23438,-0.078125 0.23438,-0.46875 -0.0195,-1.171875 -0.15625,-1.171875 l 0.23437,-0.859375 -0.0781,-0.46875 v -0.07813 q 0,-0.234375 1.01562,-0.3125 v -0.07813 q 0.72266,0.03906 1.05469,0.292969 z"
       style="font-style:normal;font-variant:normal;font-weight:normal;font-stretch:normal;font-family:'Top Secret';-inkscape-font-specification:'Top Secret';fill:#ff0000"
       id="path68" />
    <path
       inkscape:connector-curvature="0"
       d="m 179.57617,-7.541411 h 1.44531 q 0.25391,0.3515625 2.89063,0.546875 l 0.17578,-0.1953125 h 0.19531 l 2.51953,0.3710938 2.89063,-0.546875 1.26953,0.546875 q 0,2.1679687 -1.79687,2.1679687 l -0.3711,1.2695313 v 1.4453125 l 0.3711,1.44531246 v 1.07421875 q 0,1.32812499 -0.54688,3.08593749 l 0.54688,2.1679688 -0.3711,2.34375 0.3711,2.1679687 -0.3711,0.742188 0.17578,0.527343 -0.17578,2.167969 0.3711,1.269531 -0.19532,0.917969 q 0,1.035156 1.81641,3.066406 l -0.54688,0.722657 h -0.54687 l -1.99219,-0.371094 q -0.89844,0.05859 -0.89844,0.371094 l -2.34375,-0.546875 h -0.54687 q 0,0.546875 -0.54688,0.546875 v -0.175782 q -1.38671,0.527344 -3.96484,0.722657 -1.09375,0 -1.09375,-1.269532 h -0.17578 q 1.79687,-1.835937 1.79687,-2.539062 l 0.72266,-4.511719 -0.72266,-1.269531 0.91797,-2.714844 V 7.6539015 L 180.47461,7.2828078 179.75195,7.458589 178.13086,7.2828078 V 7.458589 q -1.44531,-0.2539062 -1.44531,-1.4453125 v -0.546875 l 0.35156,-0.3515625 h 1.62109 l 0.19532,0.1757813 q 1.79687,-1.328125 1.79687,-5.05859379 L 179.75195,-1.760161 q 0.89844,-1.171875 0.89844,-1.796875 0,-1.3085937 -2.71484,-2.7148437 v -0.546875 q 0.2539,-0.7226563 1.64062,-0.7226563 z m -11.21094,0.1757813 2.16797,0.3710937 1.6211,-0.1953125 2.71484,0.1953125 1.26953,-0.1953125 1.07422,0.3710938 v 1.0742187 q -2.14844,1.5429688 -2.34375,2.5390625 l 0.54688,3.61328126 V 1.8531203 l 0.17578,0.9179687 -0.72266,1.25 v 1.4453125 q 0.54688,0.6640625 0.54688,1.2695313 l -0.3711,1.9921875 0.72266,2.8906247 q -0.89844,0.585938 -0.89844,2.167969 0.54688,0.898438 0.54688,2.363281 v 0.351563 l -0.3711,0.546875 v 0.175781 q 0,0.371094 1.09375,0.546875 0.11719,0.839844 1.26953,1.621094 v 0.546875 l -0.19531,0.175781 -0.52734,0.195313 v 0.175781 q -3.39844,-0.371094 -5.42969,-1.09375 -2.20703,0.195312 -4.88281,0.917969 h -1.09375 l -0.89844,-1.269532 v -0.175781 q 0,-1.152344 1.81641,-1.640625 v -2.890625 l -0.54688,-1.074219 q 0.72266,-1.09375 0.72266,-1.640625 h -0.17578 l 0.35156,-0.898437 -0.17578,-0.175781 v -0.195313 l 0.17578,-0.175781 V 9.9976515 l -0.17578,-0.7226562 0.35156,-0.546875 -0.17578,-0.546875 Q 167.0957,7.224214 167.0957,5.114839 l -1.09375,-1.8164062 0.3711,-2.34375004 q -0.41016,0 -0.54688,-0.8984375 0.41016,-2.16796876 1.09375,-2.16796876 -0.85937,-2.2851562 -2.16797,-4.3554687 l 0.72266,-0.3515625 1.07422,0.1757812 h 0.17578 q 0.97656,-0.7226562 1.64062,-0.7226562 z m 25.625,-2.8906253 q -0.33203,0.03906 -0.70312,0.03906 l -1.5625,-0.07813 -1.25,0.234375 -0.46875,-0.234375 -0.23438,0.07813 -0.3125,-0.07813 -0.625,0.15625 -0.0781,-0.07813 h -0.70313 l -0.85937,0.07813 q -0.3125,-0.15625 -0.85938,-0.15625 l -0.70312,0.15625 q -0.9375,0 -1.40625,-0.3125 l -0.70313,0.234375 -0.78125,-0.07813 h -0.0781 l -0.0781,0.07813 -0.46875,-0.15625 -0.54687,0.3125 -1.25,-0.234375 -0.625,0.15625 -0.3125,-0.15625 -0.3125,0.07813 h -0.0781 l -0.15625,-0.15625 q -1.05468,0 -1.48437,0.3906248 l -0.3125,-0.078125 -0.39063,0.078125 q 0,-0.1562498 -1.01562,-0.2343748 l -0.23438,0.07813 -1.01562,-0.234375 -0.625,0.234375 h -0.625 l -0.3125,0.07813 q -1.17188,-0.09766 -1.17188,-0.3125 l -1.64062,0.234375 -1.40625,-0.07813 -1.25,0.15625 -1.09375,-0.234375 h -1.64063 q -0.11718,0.117187 -0.64453,0.195312 v -2.441406 l 0.80078,0.136719 q 0.42969,0 0.85938,-0.234375 0.48828,0 0.9375,0.234375 l 1.25,-0.234375 1.79687,0.15625 v -0.07813 h 0.15625 l 0.23438,0.15625 0.625,-0.15625 h 0.39062 l 0.46875,0.15625 1.32813,-0.15625 1.09375,0.234375 0.625,-0.07813 0.85937,0.07813 0.9375,-0.234375 0.3125,0.07813 2.8125,-0.234375 0.0781,0.07813 0.54687,-0.07813 0.3125,0.07813 q 0.21485,0.292969 0.625,0.390625 0.78125,-0.214844 0.78125,-0.3125 l 0.70313,0.07813 q 0.41016,-0.234375 0.78125,-0.234375 h 0.3125 l 0.46875,0.15625 0.625,-0.07813 1.01562,0.15625 0.85938,-0.3125 q 1.64062,0.3125 3.04687,0.3125 h 0.0781 l 0.0781,-0.07813 0.0781,0.07813 0.625,-0.07813 0.46875,0.07813 q 0.3125,0 0.3125,-0.234375 0.48828,0 1.875,0.390625 l 0.85937,-0.214844 z m 0,35.703125 -0.8789,-0.175781 -0.78125,0.3125 v -0.07813 q -0.74219,0 -1.40625,0.234375 l -0.78125,-0.15625 q -1.48438,0 -2.26563,0.3125 -1.5625,-0.546875 -2.10937,-0.546875 h -0.39063 q -0.9375,0.3125 -1.79687,0.390625 l -0.23438,-0.234375 h -0.23437 v 0.15625 h -0.23438 q 0,-0.234375 -0.39062,-0.234375 h -0.15625 l -0.0781,0.07813 -0.39062,-0.234375 h -0.23438 q -0.15625,0.15625 -0.625,0.15625 l -0.39062,0.390625 -2.1875,-0.546875 h -0.0781 l -1.01562,0.46875 -0.0781,-0.07813 h -0.70312 q -0.11719,0 -0.23438,-0.3125 l -1.71875,0.234375 q -0.42968,-0.15625 -1.09375,-0.15625 -0.33203,0 -0.70312,0.234375 l -0.46875,-0.234375 h -0.39063 l -0.85937,0.07813 -0.9375,-0.234375 q -0.9961,0.214844 -1.17188,0.46875 l -0.39062,-0.234375 q -0.60547,0 -1.17188,0.546875 -0.33203,-0.07813 -0.625,-0.390625 -1.32812,-0.292969 -1.32812,-0.46875 l -0.625,0.15625 -0.0781,-0.07813 h -0.0781 l -0.46875,0.15625 -0.17578,-0.01953 V 23.31796 l 0.41015,0.07813 0.9375,-0.234375 h 0.23438 l 0.625,0.15625 0.0781,-0.07813 0.70313,0.07813 0.3125,-0.15625 0.3125,0.15625 h 0.85937 l 0.625,-0.234375 h 0.0781 l 0.0781,0.07813 1.25,-0.3125 0.78125,0.390625 h 0.70313 l 0.78125,-0.07813 0.15625,0.15625 0.15625,-0.15625 0.9375,0.07813 h 0.78125 l 0.39062,0.07813 0.23438,-0.234375 0.70312,0.234375 0.3125,-0.07813 h 0.0781 l 0.0781,0.07813 0.46875,-0.234375 0.85938,0.15625 0.54687,-0.07813 1.09375,0.3125 2.1875,-0.3125 0.0781,0.07813 0.39062,-0.07813 0.46875,0.07813 1.17188,-0.15625 q 0.60547,0 1.40625,0.234375 h 0.0781 Q 185.66989,23.0836 185.9238,23.0836 h 0.23437 q 0.46875,0 0.9375,0.46875 l 0.9375,-0.15625 0.3125,0.07813 0.3125,-0.07813 h 0.625 q 0.44922,-0.3125 0.70313,-0.3125 l 0.625,0.07813 h 0.0781 l 0.0781,-0.07813 0.39062,0.234375 0.46875,-0.234375 0.46875,0.15625 q 0.29297,-0.234375 0.70313,-0.234375 h 0.23437 l 0.625,0.234375 h 0.33203 z"
       style="font-style:normal;font-variant:normal;font-weight:normal;font-stretch:normal;font-family:'Top Secret';-inkscape-font-specification:'Top Secret';fill:#ff0000"
       id="path70" />
    <path
       inkscape:connector-curvature="0"
       d="m 210.8457,-7.463286 0.17578,0.1757813 0.3711,0.3515625 h 0.17578 l -0.35156,1.4453125 0.72265,1.9921875 0.72266,0.7226562 v 3.7890625 q 0.52734,0.4882813 1.42578,4.3359375 l 0.72266,0.7226563 -0.17578,0.1757812 v 0.7226563 l 0.17578,0.7226562 -0.17578,0.7226563 1.09375,3.2421877 h -0.19532 l 0.54688,0.898437 -0.54688,0.917969 q 0.625,0 1.09375,2.167969 l -0.17578,1.25 q 0,0.546875 1.6211,1.09375 l 0.52734,1.445312 -0.72266,0.527344 h -0.17578 l -0.52734,-0.351562 h -0.3711 l -2.34375,0.722656 h -0.17578 l -0.72265,-0.175781 -0.72266,0.175781 h -0.37109 l -0.89844,-0.546875 -3.78906,0.546875 q -0.9375,0 -1.44532,-0.898438 v -0.195312 q 1.09375,-0.664063 1.09375,-2.34375 l -0.37109,-1.25 0.17578,-0.195313 -0.35156,-1.621093 0.17578,-0.175782 v -0.722656 h -1.62109 l -1.44532,0.351563 q -0.46875,-0.351563 -1.79687,-0.351563 l -0.19531,-0.175781 v -1.640625 q 0,-0.351563 1.09375,-0.527344 l 0.72265,0.722656 h 1.25 l 0.91797,-0.195312 -0.54687,-3.0664065 0.17578,-1.0742187 q -0.54688,0 -1.26953,-3.9648438 l 0.19531,-0.546875 -1.62109,-5.78125 0.17578,-0.5273437 -0.17578,-1.640625 q 0.13671,-1.0742188 1.07421,-1.0742188 l 0.89844,0.1757813 z m -8.65234,6.1328125 h 0.17578 l 0.17578,0.54687501 -0.17578,0.52734375 0.17578,1.81640624 q 0,2.3632813 -1.07422,3.7890625 0,2.265625 -1.44531,5.058594 l 0.17578,0.527344 -0.17578,1.269531 0.17578,1.269531 -0.54687,0.175781 0.17578,1.074219 -0.52735,1.445313 v 0.175781 q 0,1.582031 2.34375,1.816406 h 0.35157 v 0.175781 q 0,2.167969 -1.25,2.167969 h -2.16797 q -0.60547,0 -1.26953,-0.546875 l -2.51953,0.546875 q -0.70313,0 -1.26954,-1.992187 v -0.351563 q 2.16797,0 2.16797,-1.992187 1.66016,-1.660157 3.06641,-5.761719 l -0.17578,-0.5468752 1.97265,-6.6796875 0.3711,-0.3710938 -0.17578,-0.5273437 q 0,-2.20703129 1.44531,-3.6132813 z m 19.04297,-9.0039065 q -0.44922,-0.136718 -0.44922,-0.234375 l -0.625,0.15625 -0.0781,-0.07813 h -0.0781 l -0.46875,0.15625 -0.85938,-0.07813 -2.34375,0.4687503 -1.95312,-0.2343753 -1.17188,0.07813 -0.0781,-0.07813 -0.3125,0.07813 h -0.9375 l -1.01563,-0.3125 h -0.625 l -0.78125,0.234375 h -0.0781 q -1.03516,0 -1.40625,-0.234375 l -0.54688,0.15625 -1.5625,-0.15625 q 0,0.117188 -1.09375,0.234375 l -0.70312,-0.07813 h -0.9375 q -2.05078,0 -2.26563,0.3125003 h -0.39062 l -2.34375,-0.3906253 -0.46875,0.07813 -0.85938,-0.15625 -1.40625,0.15625 h -0.3125 l -1.17187,0.3125003 q -0.85938,0 -1.09375,-0.6250003 0.39062,-0.585937 0.39062,-1.25 l -0.0781,-0.3125 q 0,-0.546875 1.09375,-0.546875 l 1.64062,0.234375 q 0.29297,-0.234375 0.70313,-0.234375 h 0.3125 q 0.39062,0 0.46875,0.234375 l 2.1875,-0.234375 1.64062,0.46875 1.25,-0.390625 v 0.07813 l 1.01563,-0.234375 0.46875,0.07813 0.3125,-0.07813 0.23437,0.234375 h 0.23438 l 0.23437,-0.234375 0.70313,0.15625 1.17187,-0.15625 q 0.27344,0.234375 1.17188,0.3125 l 0.39062,-0.234375 0.39063,0.234375 0.39062,-0.07813 0.3125,0.07813 0.54688,-0.07813 1.25,0.15625 1.32812,-0.3125 1.09375,0.15625 0.46875,-0.07813 h 1.25 l 0.70313,-0.234375 0.54687,0.15625 0.23438,-0.07813 0.54687,0.15625 h 0.0781 l 0.0781,-0.07813 1.09375,0.234375 0.3125,-0.07813 0.78125,0.15625 0.9375,-0.234375 h 0.23438 l 0.29297,0.07813 z m 0,35.898438 -0.27344,-0.07813 -2.1875,0.3125 -0.0781,-0.07813 -0.39063,0.07813 -0.46875,-0.07813 -1.17187,0.15625 q -0.60547,0 -1.40625,-0.234375 h -0.0781 q -0.29297,0.234375 -0.54687,0.234375 h -0.23438 q -0.46875,0 -0.9375,-0.46875 l -0.9375,0.15625 -0.3125,-0.07813 -0.3125,0.07813 h -0.625 q -0.44922,0.3125 -0.70312,0.3125 l -0.625,-0.07813 h -0.0781 l -0.0781,0.07813 -0.39063,-0.234375 -0.46875,0.234375 -0.46875,-0.15625 q -0.29297,0.234375 -0.70312,0.234375 h -0.23438 l -0.625,-0.234375 q -1.5625,0 -3.04687,0.234375 -0.72266,0 -1.25,-0.46875 0,0.3125 -1.09375,0.390625 l -0.46875,-0.07813 -0.54688,0.15625 q -1.03516,-0.15625 -1.25,-0.3125 h -0.0781 l -0.0781,0.07813 -1.71875,-0.15625 q -0.99609,0 -1.25,0.3125 h -0.15625 l -0.3125,-0.234375 -0.46875,0.15625 -0.0781,-0.07813 h -0.23438 q -0.48828,0.15625 -1.875,0.234375 l -0.54687,-0.3125 v -0.07813 l 0.0781,-0.07813 q 0.3125,-0.117188 0.3125,-0.234375 v -0.07813 l -0.23437,-0.234375 0.15625,-0.546875 v -0.07813 q 0,-0.15625 -0.23438,-0.15625 v -0.3125 l 0.3125,-0.546875 q 0.89844,0 1.5625,0.234375 0.89844,0 1.17188,-0.3125 h 0.39062 l 1.32813,0.234375 h 0.23437 l 0.85938,-0.234375 q 1.66015,0.253906 1.95312,0.46875 h 0.3125 q 0.39063,0 0.46875,-0.234375 h 0.0781 l 0.0781,0.07813 h 0.3125 q 0,-0.15625 1.79688,-0.390625 l 0.46875,0.07813 h 0.0781 l 0.0781,-0.07813 q 0.3125,0.117187 0.3125,0.234375 l 0.54687,-0.07813 h 0.54688 l 2.03125,0.390625 0.78125,-0.3125 v 0.07813 q 0.74218,0 1.40625,-0.234375 l 0.78125,0.15625 q 1.48437,0 2.26562,-0.3125 1.5625,0.546875 2.10938,0.546875 h 0.39062 q 0.9375,-0.3125 1.79688,-0.390625 l 0.23437,0.234375 h 0.23438 v -0.15625 h 0.23437 q 0,0.234375 0.39063,0.234375 h 0.15625 l 0.0781,-0.07813 0.39063,0.234375 h 0.23437 q 0.15625,-0.15625 0.625,-0.15625 l 0.39063,-0.390625 1.28906,0.332031 z"
       style="font-style:normal;font-variant:normal;font-weight:normal;font-stretch:normal;font-family:'Top Secret';-inkscape-font-specification:'Top Secret';fill:#ff0000"
       id="path72" />
    <path
       inkscape:connector-curvature="0"
       d="m 231.99805,-7.5218797 0.52734,0.1757812 v 1.5820313 q 0,1.2109375 -1.77734,1.40625 l 0.17578,0.1757812 -0.52735,0.8984375 0.17579,1.2304688 -0.35157,0.3515625 v 1.23046871 l 0.17578,0.17578125 -0.17578,0.17578125 v 0.17578125 l 0.35157,1.40625004 V 1.989839 q -1.05469,2.5195313 -1.05469,3.5351563 l 1.05469,3.1640625 -0.35157,1.0546875 v 1.2499997 l 0.52735,2.460938 -0.52735,1.582031 v 0.703125 q 0,0.9375 2.48047,3.007813 l -0.35156,1.230468 h -0.17578 q -0.91797,0 -1.60156,-0.527343 h -0.35157 l -1.58203,0.175781 q -0.83984,-0.136719 -1.40625,-0.878906 l -3.71094,-1.953125 0.35157,-0.878907 q -1.23047,-0.273437 -1.23047,-0.878906 l 0.17578,-0.175781 v -0.175781 l -1.75781,-4.394532 q 0.35156,-0.7812497 0.35156,-2.832031 l -0.52734,-2.8125 q 0,-3.73046874 2.10937,-4.76562499 l 0.17578,-0.17578125 v -0.17578125 l -0.52734,-0.87890621 q 0.44922,-0.8984375 1.58203,-1.5820313 0.29297,-1.2890625 4.0625,-3.5351562 0,-0.4101563 3.71094,-1.0546875 z m 3.86718,0.1757812 q 0,0.46875 2.65625,1.40625 1.23047,0 2.28516,-1.2304687 h 0.35156 q 0.87891,0.4492187 0.87891,1.5820312 0,0.8789063 -0.35156,0.8789063 0.35156,0.4296875 0.52734,2.8320312 l -0.17578,2.9882813 0.52734,1.40625 q -0.50781,1.25 -1.58203,1.25 0,-0.46875 -0.8789,-0.703125 l -1.40625,-4.765625 q -0.44922,0 -1.42579,-1.2304688 -0.8789,-0.1367187 -0.8789,-0.5273437 l 0.17578,-0.7226563 q -0.87891,-0.6445312 -2.63672,-0.8789062 0,-1.9335938 1.05469,-1.9335938 0,-0.3515625 0.8789,-0.3515625 z m 6.17188,19.5703125 0.17578,0.175781 q -0.21484,2.734375 -1.05469,4.042969 -1.23047,0 -1.23047,1.425781 l -2.65625,0.878907 V 18.57187 l -1.93359,1.933594 h -1.05469 q -0.70312,-0.292969 -0.70312,-1.230469 V 18.57187 q 0,-0.3125 4.57031,-2.304687 1.95313,-4.042969 3.88672,-4.042969 z m 3.67187,13.398438 -0.3125,0.09766 -0.23437,-0.07813 -0.46875,0.15625 q 0,-0.390625 -1.09375,-0.46875 l -1.32813,0.3125 h -0.625 l -0.70312,-0.07813 h -0.0781 l -0.0781,0.07813 -0.85938,-0.07813 h -0.39062 l -0.23438,-0.15625 h -0.23437 l -0.46875,0.15625 -0.23438,-0.15625 q 0,0.15625 -1.64062,0.234375 -0.15625,-0.15625 -0.9375,-0.234375 0,0.15625 -0.70313,0.234375 0,-0.195313 -0.85937,-0.3125 h -0.85938 l -0.54687,0.234375 -1.64063,-0.3125 -0.54687,0.15625 h -0.0781 l -0.0781,-0.07813 -0.54688,0.15625 -1.32812,-0.234375 -0.625,0.234375 h -0.0781 l -0.0781,-0.07813 -1.17188,0.15625 -1.09375,-0.3125 -1.5625,0.3125 -1.48437,-0.07813 -0.625,0.07813 q 0,-0.136719 -0.78125,-0.15625 h -0.54688 l -0.15625,-0.15625 v -0.15625 l 0.15625,-0.625 v -0.234375 l -0.15625,-0.234375 v -0.3125 q 0,-0.546875 0.625,-0.625 1.50391,0.07813 1.64063,0.234375 h 0.0781 l 0.0781,-0.07813 0.3125,0.15625 q 0,-0.292969 2.34375,-0.390625 l 1.32812,0.3125 h 0.3125 l 0.0781,-0.07813 0.0781,0.07813 h 0.15625 l 0.39063,-0.07813 0.46875,0.07813 h 0.3125 l 1.01562,-0.15625 0.85938,0.15625 h 0.78125 l 0.70312,0.234375 1.09375,-0.234375 h 0.0781 l 0.70312,0.07813 1.09375,-0.3125 0.9375,0.234375 h 0.78125 l 0.0781,-0.07813 0.0781,0.07813 h 0.3125 l 0.70313,0.07813 2.34375,-0.234375 0.23437,0.07813 0.23438,-0.07813 0.3125,0.07813 h 0.0781 l 0.0781,-0.07813 0.54687,0.07813 0.9375,-0.15625 1.25,0.15625 1.17188,-0.3125 0.70312,0.117187 z m 0,-35.644532 -1.03515,0.136719 q -0.60547,0 -1.40625,-0.234375 h -0.0781 q -0.29297,0.234375 -0.54687,0.234375 h -0.23438 q -0.46875,0 -0.9375,-0.46875 l -0.9375,0.15625 -0.3125,-0.07813 -0.3125,0.07813 h -0.625 q -0.44922,0.3125 -0.70312,0.3125 l -0.625,-0.078125 h -0.0781 l -0.0781,0.078125 -0.39063,-0.234375 -0.46875,0.234375 -0.46875,-0.15625 q -0.29297,0.234375 -0.70312,0.234375 h -0.23438 l -0.625,-0.234375 q -1.5625,0 -3.04687,0.234375 -0.72266,0 -1.25,-0.46875 0,0.3125 -1.09375,0.390625 l -0.46875,-0.078125 -0.54688,0.15625 q -1.03515,-0.15625 -1.25,-0.3125 h -0.0781 l -0.0781,0.07813 -1.71875,-0.15625 q -0.99609,0 -1.25,0.3125 h -0.15625 l -0.3125,-0.234375 -0.46875,0.15625 -0.0781,-0.078125 h -0.23438 q -0.48828,0.15625 -1.875,0.234375 l -0.54687,-0.3125 v -0.07813 l 0.0781,-0.07813 q 0.3125,-0.117187 0.3125,-0.234375 v -0.07813 l -0.23437,-0.234375 0.15625,-0.546875 v -0.07813 q 0,-0.15625 -0.23438,-0.15625 v -0.3125 l 0.3125,-0.546875 q 0.89844,0 1.5625,0.234375 0.89844,0 1.17188,-0.3125 h 0.39062 l 1.32813,0.234375 h 0.23437 l 0.85938,-0.234375 q 1.66015,0.253906 1.95312,0.46875 h 0.3125 q 0.39063,0 0.46875,-0.234375 h 0.0781 l 0.0781,0.07813 h 0.3125 q 0,-0.15625 1.79688,-0.390625 l 0.46875,0.07813 h 0.0781 l 0.0781,-0.07813 q 0.3125,0.117188 0.3125,0.234375 l 0.54687,-0.07813 h 0.54688 l 2.03125,0.390625 0.78125,-0.3125 v 0.07813 q 0.74219,0 1.40625,-0.234375 l 0.78125,0.15625 q 1.48437,0 2.26562,-0.3125 1.5625,0.546875 2.10938,0.546875 h 0.39062 q 0.9375,-0.3125 1.79688,-0.390625 l 0.23437,0.234375 h 0.23438 v -0.15625 h 0.23437 q 0,0.05859 0.0195,0.09766 z"
       style="font-style:normal;font-variant:normal;font-weight:normal;font-stretch:normal;font-family:'Top Secret';-inkscape-font-specification:'Top Secret';fill:#ff0000"
       id="path74" />
    <path
       inkscape:connector-curvature="0"
       d="m 248.59961,-7.4828172 q 1.64062,0 2.71484,0.9179687 h 0.3711 l 1.26953,-0.1953125 v 0.1953125 l 0.17578,-0.1953125 h 0.91797 q 2.34375,0 3.26172,-0.3515625 l 0.89843,0.3515625 v 1.2695313 q -1.62109,1.2695312 -1.62109,2.3632812 l 0.17578,2.53906251 -0.17578,3.08593749 h 0.17578 l -0.17578,0.1757813 v 0.9179687 l 0.17578,1.0742188 -0.17578,0.1953125 V 5.036714 l 0.17578,0.7226563 -0.17578,3.4375 v 0.7226562 l 0.35156,1.4648435 v 0.722657 l -0.54687,2.363281 q 0,3.808594 1.64062,3.808594 l 0.72266,1.074218 q 0,0.605469 -2.16797,0.917969 l -1.64062,-0.195312 -1.81641,0.195312 h -0.89844 l -1.99219,-0.195312 -0.19531,0.195312 h -0.17578 l -1.09375,-0.195312 -1.07422,0.371093 -1.46484,-0.546875 h -0.72266 l -0.17578,-0.722656 q 0,-0.488281 1.99219,-1.640625 l 0.91797,-3.613281 -0.19532,-1.269531 0.19532,-0.546875 -0.74219,-5.2539067 0.19531,-1.09375 V 4.3140578 l 0.17578,-0.1953125 -0.54687,-1.4453125 0.54687,-2.16796879 -0.37109,-3.08593751 0.19531,-0.9179687 q 0,-0.9765625 -1.64062,-1.4453125 l -0.35157,-0.7226563 v -0.1757812 l 0.72266,-0.7226563 0.17578,0.1757813 h 0.3711 z m 20.3125,0.3710937 h 1.81641 q 0.33203,0 1.09375,1.2695313 -0.76172,1.2695312 -2.73438,1.2695312 -0.27344,0.5273438 -2.53906,2.1679688 0,0.8007812 -1.44531,1.99218746 -0.17579,0.72265625 -0.72266,0.72265625 v 0.1953125 q 1.58203,3.45703129 1.99219,5.97656249 l -0.17578,0.7226563 q 1.05468,2.4804687 1.62109,2.5390625 0,1.5429687 1.26953,3.2617187 0.72266,1.269531 0.72266,2.734375 l 0.91797,1.796875 q 0.97656,0 1.99218,1.640625 v 0.175781 q 0,0.410157 -1.26953,0.722657 l -0.72265,-0.175782 -1.44532,0.546875 -2.1875,-0.371093 h -3.63281 l -2.89062,0.195312 q -1.09375,-0.429687 -1.09375,-0.722656 V 19.35312 q 0,-0.683593 0.91796,-1.621093 v -1.640625 q 0,-2.441407 -2.1875,-6.1718755 L 258.0332,6.8531203 q 0.44922,-0.15625 2.53907,-4.53125 1.83593,0 3.26171,-4.9023438 v -0.546875 q -0.0391,-0.4101562 -2.16796,-1.9921875 l -0.19532,-1.09375 0.72266,-0.7226562 2.1875,0.1757812 z m 5.64453,32.6562505 q -0.27344,-0.05859 -0.27344,-0.117188 l -0.23437,0.15625 -0.46875,-0.15625 h -0.23438 l -0.23437,0.15625 h -0.39063 l -0.85937,0.07813 -0.0781,-0.07813 h -0.0781 l -0.70313,0.07813 h -0.625 l -1.32812,-0.3125 q -1.09375,0.07813 -1.09375,0.46875 l -0.46875,-0.15625 -0.23438,0.07813 -0.46875,-0.15625 -0.46875,0.07813 q -0.80078,-0.09766 -0.9375,-0.234375 h -1.64062 l -1.09375,0.234375 -1.25,-0.15625 -1.40625,0.07813 -1.64063,-0.234375 q 0,0.214844 -1.17187,0.3125 l -0.3125,-0.07813 h -0.625 l -0.625,-0.234375 -1.01563,0.234375 -0.23437,-0.07813 q -1.01563,0.07813 -1.01563,0.234375 l -0.39062,-0.07813 -0.3125,0.07813 q -0.42969,-0.390625 -1.48438,-0.390625 l -0.15625,0.15625 h -0.0781 l -0.3125,-0.07813 -0.3125,0.15625 -0.625,-0.15625 -1.25,0.234375 -0.54688,-0.3125 -0.46875,0.15625 -0.0781,-0.07813 h -0.0781 l -0.78125,0.07813 -0.70312,-0.234375 q -0.23438,0.15625 -0.58594,0.234375 V 23.10312 l 0.11719,-0.01953 0.625,0.07813 0.46875,-0.15625 h 0.3125 q 0.39062,0 0.78125,0.234375 l 0.70312,-0.07813 q 0,0.09766 0.78125,0.3125 0.41016,-0.09766 0.625,-0.390625 l 0.3125,-0.07813 0.54688,0.07813 0.0781,-0.07813 2.8125,0.234375 0.3125,-0.07813 0.9375,0.234375 0.85938,-0.07813 0.625,0.07813 1.09375,-0.234375 1.32812,0.15625 0.46875,-0.15625 h 0.39063 l 0.625,0.15625 0.23437,-0.15625 h 0.15625 v 0.07813 l 1.79688,-0.15625 1.25,0.234375 q 0.44922,-0.234375 0.9375,-0.234375 0.42969,0.234375 0.85937,0.234375 l 2.42188,-0.390625 1.17187,0.3125 1.25,-0.15625 0.9375,0.15625 0.54688,-0.07813 0.0781,0.07813 h 0.0781 l 0.3125,-0.07813 0.23437,0.07813 0.23438,-0.07813 2.05078,0.214844 z m -0.15625,-35.683594 q -0.23437,-0.03906 -0.60547,-0.292969 h -0.625 l -0.3125,-0.07813 -0.3125,0.07813 -0.9375,-0.15625 q -0.46875,0.46875 -0.9375,0.46875 h -0.23437 q -0.25391,0 -0.54688,-0.234375 h -0.0781 q -0.80078,0.234375 -1.40625,0.234375 l -1.17188,-0.15625 -0.46875,0.07813 -0.39062,-0.07813 -0.0781,0.07813 -2.1875,-0.3125 -1.09375,0.3125 -0.54687,-0.07813 -0.85938,0.15625 -0.46875,-0.234375 -0.0781,0.07813 h -0.0781 l -0.3125,-0.07813 -0.70312,0.234375 -0.23438,-0.234375 -0.39062,0.07813 h -0.78125 l -0.9375,0.07813 -0.15625,-0.15625 -0.15625,0.15625 -0.78125,-0.07813 h -0.70313 l -0.78125,0.390625 -1.25,-0.3125 -0.0781,0.07813 h -0.0781 l -0.625,-0.234375 h -0.85937 l -0.3125,0.15625 -0.3125,-0.15625 -0.70313,0.07813 -0.0781,-0.07813 -0.625,0.15625 h -0.23438 l -0.9375,-0.234375 -0.78125,0.15625 -0.3125,-0.07813 -1.09375,0.234375 -0.0781,-0.07813 h -0.0781 l -0.54687,0.15625 -0.23438,-0.07813 -0.54687,0.15625 -0.15625,-0.058594 v -2.792968 l 0.39062,-0.03906 2.34375,0.46875 0.85938,-0.07813 0.46875,0.15625 h 0.0781 l 0.0781,-0.07813 0.625,0.15625 q 0,-0.175781 1.32812,-0.46875 0.29297,-0.3125 0.625,-0.390625 0.56641,0.546875 1.17188,0.546875 l 0.39062,-0.234375 q 0.17578,0.253906 1.17188,0.46875 l 0.9375,-0.234375 0.85937,0.07813 h 0.39063 l 0.46875,-0.234375 q 0.37109,0.234375 0.70312,0.234375 0.66406,0 1.09375,-0.15625 l 1.71875,0.234375 q 0.11719,-0.3125 0.23438,-0.3125 h 0.70312 l 0.0781,-0.07813 1.01562,0.46875 h 0.0781 l 2.1875,-0.546875 0.39062,0.390625 q 0.46875,0 0.625,0.15625 h 0.23438 l 0.39062,-0.234375 0.0781,0.07813 h 0.15625 q 0.39062,0 0.39062,-0.234375 h 0.23438 v 0.15625 h 0.23437 l 0.23438,-0.234375 q 0.85937,0.07813 1.79687,0.390625 h 0.39063 q 0.54687,0 2.10937,-0.546875 0.70313,0.292969 1.99219,0.3125 z"
       style="font-style:normal;font-variant:normal;font-weight:normal;font-stretch:normal;font-family:'Top Secret';-inkscape-font-specification:'Top Secret';fill:#ff0000"
       id="path76" />
    <path
       inkscape:connector-curvature="0"
       d="m 281.91992,-7.5218797 q 1.75781,0.3515625 1.75781,0.703125 v 0.5273437 q 0,1.328125 -2.10937,1.953125 l -0.72266,2.1289063 q 1.01563,2.65624996 2.12891,2.65624996 0.13672,0.5078125 3.73047,1.40625004 2.73437,2.4804687 4.23828,2.4804687 0,0.3125 1.77734,1.7773438 v 1.2304687 q 0.52735,0 0.52735,0.3515625 l -0.17578,0.7226563 q 0.70312,0.9570312 0.70312,3.1835937 -0.41016,0 -0.70312,3.183594 -1.79688,1.914062 -3.35938,4.433594 -4.02344,1.230468 -5.48828,1.230468 h -0.17578 q -0.3711,0 -0.54688,-1.054687 0.3125,-1.777344 1.60157,-1.777344 1.75781,0 1.95312,-1.601562 v -1.582032 q -0.83984,-3.359375 -4.43359,-3.359375 -0.17578,-0.566406 -3.00782,-1.425781 0,-0.5273437 -2.83203,-1.5820312 Q 275.82617,5.583589 275.37695,5.583589 V 4.6851515 l -1.42578,-1.9335937 0.87891,-1.77734379 -0.52735,-1.77734375 0.52735,-0.17578125 V -1.8578172 q 2.34375,-3.7304688 3.90625,-4.4335938 l 0.17578,0.1953125 h 0.17578 q 0.52734,0 2.83203,-1.4257812 z m 10.27344,0 h 0.17578 q 0.17578,1.2304687 0.52734,1.2304687 l -0.17578,0.8984375 0.17578,1.0546875 -0.52734,1.953125 v 0.1757813 l 0.70313,1.95312496 v 0.52734375 q 0,0.83984379 -1.07422,1.75781249 h -0.87891 V 0.27108901 q -2.10937,-3.39843751 -2.65625,-3.73046871 -2.94922,-1.4453125 -3.35937,-1.9335938 V -5.744536 q 0,-1.4257812 0.70312,-1.4257812 3.45703,0.4882812 4.08203,1.0742187 h 0.70313 q 0,-1.1523437 1.60156,-1.4257812 z m -17.1875,17.34375 h 0.54687 q 0.70313,0.1953127 1.40625,1.9531247 v 0.175782 l -0.17578,0.878906 q 1.15235,0.976562 1.95313,3.730469 v 0.175781 h 0.8789 l 2.83204,2.109375 v 0.898437 q 0,0.527344 -1.95313,0.527344 -0.0977,-0.429687 -1.23047,-0.878906 l -0.17578,0.175781 h -0.17578 q -1.07422,-0.429687 -1.07422,-0.722656 -1.17187,0 -2.10937,1.425781 h -0.54688 l -0.52734,-0.878906 0.17578,-0.898438 -0.35156,-0.351562 v -1.230469 l -0.35157,-1.074219 0.35157,-1.40625 v -1.25 l -0.17579,-0.703125 q 0.23438,-2.6562497 0.70313,-2.6562497 z m 20.99609,-20.0781253 -0.64453,0.05859 -0.23437,-0.07813 -0.23438,0.07813 -0.3125,-0.07813 h -0.0781 l -0.0781,0.07813 -0.54687,-0.07813 -0.9375,0.15625 -1.25,-0.15625 -1.17188,0.3125 -2.42187,-0.390625 q -0.42969,0 -0.85938,0.234375 -0.48828,0 -0.9375,-0.234375 l -1.25,0.234375 -1.79687,-0.15625 v 0.07813 h -0.15625 l -0.23438,-0.15625 -0.625,0.15625 h -0.39062 l -0.46875,-0.15625 -1.32813,0.15625 -1.09375,-0.234375 -0.625,0.07813 -0.85937,-0.07813 -0.9375,0.234375 -0.3125,-0.07813 -2.5,0.214844 v -2.460938 l 0.0781,-0.01953 h 0.0781 l 0.15625,0.15625 q 1.05468,0 1.48437,-0.390625 l 0.3125,0.07813 0.39063,-0.07813 q 0,0.15625 1.01562,0.234375 l 0.23438,-0.07813 1.01562,0.234375 0.625,-0.234375 h 0.625 l 0.3125,-0.07813 q 1.17188,0.09766 1.17188,0.3125 l 1.64062,-0.234375 1.40625,0.07813 1.25,-0.15625 1.09375,0.234375 h 1.64063 q 0.13672,-0.136719 0.9375,-0.234375 l 0.46875,0.07813 0.46875,-0.15625 0.23437,0.07813 0.46875,-0.15625 q 0,0.390625 1.09375,0.46875 l 1.32813,-0.3125 h 0.625 l 0.70312,0.07813 h 0.0781 l 0.0781,-0.07813 0.85938,0.07813 h 0.39062 l 0.0195,0.01953 z m 0,35.585938 q -1.15234,0.03906 -2.46093,0.292969 l -0.85938,-0.3125 -1.01562,0.15625 -0.625,-0.07813 -0.46875,0.15625 h -0.3125 q -0.3711,0 -0.78125,-0.234375 l -0.70313,0.07813 q 0,-0.09766 -0.78125,-0.3125 -0.41016,0.09766 -0.625,0.390625 l -0.3125,0.07813 -0.54687,-0.07813 -0.0781,0.07813 -2.8125,-0.234375 -0.3125,0.07813 -0.9375,-0.234375 -0.85937,0.07813 -0.625,-0.07813 -1.09375,0.234375 -1.32813,-0.15625 -0.46875,0.15625 h -0.39062 l -0.625,-0.15625 -0.23438,0.15625 h -0.15625 v -0.07813 l -1.79687,0.15625 -1.07422,-0.195313 V 23.025 l 0.60547,-0.136718 1.25,0.15625 1.40625,-0.07813 1.64062,0.234375 q 0,-0.214844 1.17188,-0.3125 l 0.3125,0.07813 h 0.625 l 0.625,0.234375 1.01562,-0.234375 0.23438,0.07813 q 1.01562,-0.07813 1.01562,-0.234375 l 0.39063,0.07813 0.3125,-0.07813 q 0.42968,0.390625 1.48437,0.390625 l 0.15625,-0.15625 h 0.0781 l 0.3125,0.07813 0.3125,-0.15625 0.625,0.15625 1.25,-0.234375 0.54687,0.3125 0.46875,-0.15625 0.0781,0.07813 h 0.0781 l 0.78125,-0.07813 0.70313,0.234375 q 0.46875,-0.3125 1.40625,-0.3125 l 0.70312,0.15625 q 0.54688,0 0.85938,-0.15625 l 0.85937,0.07813 h 0.70313 l 0.0781,-0.07813 0.19531,0.03906 z"
       style="font-style:normal;font-variant:normal;font-weight:normal;font-stretch:normal;font-family:'Top Secret';-inkscape-font-specification:'Top Secret';fill:#ff0000"
       id="path78" />
    <path
       inkscape:connector-curvature="0"
       d="m 296.60742,-12.482817 q 0.33203,-0.253906 1.05469,-0.292969 v 0.07813 q 1.01562,0.07813 1.01562,0.3125 v 0.07813 l -0.0781,0.46875 0.23437,0.859375 q -0.13671,0 -0.15625,1.171875 0,0.390625 0.23438,0.46875 l -0.0781,0.078125 0.0781,0.625 q 0,0.234375 -0.3125,0.546875 v 0.078125 h 0.15625 v 0.078125 l -0.23438,0.234375 v 0.15625 q 0.54688,0.703125 0.54688,1.09375 -0.39063,0.8007813 -0.39063,1.171875 l 0.15625,1.328125 -0.15625,0.546875 v 1.09375 l 0.3125,1.48437501 v 0.234375 q 0,0.29296875 -0.54687,1.09375 0.23437,0.62499999 0.23437,1.64062499 l -0.0781,1.5625 0.23437,1.25 -0.23437,0.46875 0.0781,0.234375 -0.0781,0.3125 0.15625,0.625 -0.0781,0.078125 v 0.703125 l 0.0781,0.859375 q -0.15625,0.3125 -0.15625,0.859375 l 0.15625,0.703125 q 0,0.9375 -0.3125,1.40625 l 0.23437,0.703125 -0.0781,0.78125 v 0.07813 l 0.0781,0.07813 -0.15625,0.46875 0.3125,0.546875 -0.23437,1.25 0.15625,0.625 -0.15625,0.3125 0.0781,0.3125 v 0.07813 l -0.15625,0.15625 q 0,1.054688 0.39063,1.484375 l -0.0781,0.3125 0.0781,0.390625 q -0.15625,0 -0.23438,1.015625 l 0.0781,0.234375 -0.23438,1.015625 0.23438,0.625 v 0.625 l 0.0781,0.3125 q -0.0976,1.171875 -0.3125,1.171875 l 0.21485,1.503906 -1.36719,0.07813 v 0.195313 q -0.54687,0.05859 -1.46484,0.09766 l -1.32813,-0.3125 h -0.3125 l -0.0781,0.07813 -0.0781,-0.07813 -0.0391,-2.167969 0.66406,-0.09766 1.09375,0.3125 0.58594,-0.117187 -0.0781,-0.664063 0.23438,-1.09375 -0.0781,-0.625 0.0781,-0.859375 -0.23438,-0.9375 0.0781,-0.3125 -0.23438,-2.8125 0.0781,-0.07813 -0.0781,-0.546875 0.0781,-0.3125 q 0.29297,-0.214844 0.39062,-0.625 -0.21484,-0.78125 -0.3125,-0.78125 l 0.0781,-0.703125 q -0.23438,-0.410156 -0.23438,-0.78125 v -0.3125 l 0.15625,-0.46875 -0.0781,-0.625 0.15625,-1.015625 -0.3125,-0.859375 q 0.3125,-1.640625 0.3125,-3.046875 v -0.07815 l -0.0781,-0.078125 0.0781,-0.078125 -0.0781,-0.625 0.0781,-0.46875 q 0,-0.3125 -0.23438,-0.3125 0,-0.4882812 0.39063,-1.875 l -0.3125,-1.25 V 0.73983901 l 0.0781,-1.09375 -0.0781,-0.234375 q 0.23437,-0.83984371 0.23437,-1.40625001 v -0.390625 l -0.15625,-0.625 v -0.234375 l 0.23438,-1.40625 -0.15625,-0.46875 v -0.078125 l 0.0781,-0.078125 -0.0781,-1.09375 v -0.234375 l 0.0781,-0.390625 -0.0781,-0.078125 0.0781,-0.625 -0.0781,-0.234375 0.0781,-0.3125 q -0.3125,-0.3320312 -0.46875,-1.09375 0.19532,-0.2539062 0.29297,-0.839844 -0.80078,-0.05859 -0.89843,-0.175781 h -0.0781 l -0.0781,0.07813 -0.3125,-0.15625 q 0,0.175781 -0.87891,0.292969 v -2.480469 h 0.0195 l 1.48438,0.07813 0.625,-0.07813 q 0,0.09766 0.41015,0.136719 z"
       style="font-style:normal;font-variant:normal;font-weight:normal;font-stretch:normal;font-family:'Top Secret';-inkscape-font-specification:'Top Secret';fill:#ff0000"
       id="path80" />
  </g>
</svg>
