<?xml version="1.0" encoding="UTF-8" standalone="no"?>
<svg
   xmlns:dc="http://purl.org/dc/elements/1.1/"
   xmlns:cc="http://creativecommons.org/ns#"
   xmlns:rdf="http://www.w3.org/1999/02/22-rdf-syntax-ns#"
   xmlns:svg="http://www.w3.org/2000/svg"
   xmlns="http://www.w3.org/2000/svg"
   xmlns:sodipodi="http://sodipodi.sourceforge.net/DTD/sodipodi-0.dtd"
   xmlns:inkscape="http://www.inkscape.org/namespaces/inkscape"
   width="500"
   height="200"
   viewBox="0 0 500 200"
   version="1.1"
   id="svg52"
   sodipodi:docname="ngp.svg"
   style="fill:none"
   inkscape:version="0.92.5 (2060ec1f9f, 2020-04-08)">
  <metadata
     id="metadata58">
    <rdf:RDF>
      <cc:Work
         rdf:about="">
        <dc:format>image/svg+xml</dc:format>
        <dc:type
           rdf:resource="http://purl.org/dc/dcmitype/StillImage" />
        <dc:title></dc:title>
      </cc:Work>
    </rdf:RDF>
  </metadata>
  <defs
     id="defs56" />
  <sodipodi:namedview
     pagecolor="#ffffff"
     bordercolor="#666666"
     borderopacity="1"
     objecttolerance="10"
     gridtolerance="10"
     guidetolerance="10"
     inkscape:pageopacity="0"
     inkscape:pageshadow="2"
     inkscape:window-width="1366"
     inkscape:window-height="740"
     id="namedview54"
     showgrid="false"
     inkscape:pagecheckerboard="true"
     inkscape:zoom="1.0411096"
     inkscape:cx="280.5"
     inkscape:cy="59"
     inkscape:window-x="0"
     inkscape:window-y="0"
     inkscape:window-maximized="1"
     inkscape:current-layer="svg52" />
  <path
     d="M 35.077489,146.24304 H 30.371877 L 5.7868003,110.89044 v 35.3526 H 0.96051364 V 103.65096 H 6.8727266 L 30.280284,137.4354 v -33.78444 h 4.797205 z"
     id="path2"
     inkscape:connector-curvature="0"
     style="fill:#ffffff;stroke-width:0.8858124" />
  <path
     d="M 63.432078,146.24304 H 39.662454 l -0.0915,-42.59208 H 63.340489 V 108.465 H 44.352211 v 13.48029 H 62.09831 v 4.77781 H 44.352211 v 15.52758 h 19.025832 z"
     id="path4"
     inkscape:connector-curvature="0"
     style="fill:#ffffff;stroke-width:0.8858124" />
  <path
     d="m 87.774025,102.43811 c -2.955956,0 -5.882857,0.58224 -8.613728,1.71342 -2.73096,1.13119 -5.212298,2.78916 -7.302461,4.87933 -2.090162,2.09007 -3.748137,4.5715 -4.87932,7.30237 -1.131182,2.73087 -1.713338,5.65786 -1.713338,8.61372 0,2.95596 0.582156,5.88286 1.713338,8.61382 1.131183,2.73105 2.789158,5.21221 4.87932,7.30273 2.090163,2.08963 4.571501,3.74787 7.302461,4.87905 2.730871,1.13118 5.657772,1.71316 8.613728,1.71316 2.955601,0 5.883211,-0.58198 8.614171,-1.71316 2.730074,-1.13118 5.212114,-2.78942 7.301744,-4.87905 2.09052,-2.09052 3.74876,-4.57168 4.87994,-7.30273 1.13119,-2.73096 1.71316,-5.65786 1.71316,-8.61382 0,-2.95586 -0.58197,-5.88285 -1.71316,-8.61372 -1.13118,-2.73087 -2.78942,-5.2123 -4.87994,-7.30237 -2.08963,-2.09017 -4.57167,-3.74814 -7.301744,-4.87933 -2.73096,-1.13118 -5.65857,-1.71342 -8.614171,-1.71342 z m 0.0597,4.95231 c 2.31392,0 4.60463,0.45566 6.742096,1.34094 2.137465,0.88537 4.079166,2.183 5.715259,3.81892 1.6361,1.63591 2.93381,3.57806 3.81874,5.71552 0.88581,2.13738 1.34112,4.42827 1.34112,6.74183 0,4.67222 -1.85666,9.15293 -5.15986,12.45701 -3.304078,3.30319 -7.785403,5.15897 -12.457355,5.15897 -4.67204,0 -9.152745,-1.85578 -12.456382,-5.15986 -3.303726,-3.30319 -5.159768,-7.78399 -5.159857,-12.45612 -8.8e-5,-4.67221 1.855777,-9.15318 5.159503,-12.457 3.303726,-3.3039 7.784519,-5.16003 12.456736,-5.16021 z"
     id="path6"
     inkscape:connector-curvature="0"
     style="fill:#ffffff;stroke-width:0.8858124" />
  <path
     d="m 208.43194,102.43811 c -2.95595,0 -5.88356,0.58224 -8.61452,1.71342 -2.73008,1.13119 -5.21212,2.78916 -7.30175,4.87933 -2.09052,2.09007 -3.74876,4.57141 -4.87995,7.30237 -1.13118,2.73087 -1.71316,5.65786 -1.71316,8.61372 0,2.95596 0.58198,5.88286 1.71316,8.61382 1.13119,2.73105 2.78943,5.21221 4.87995,7.30273 2.08963,2.08963 4.57167,3.74787 7.30175,4.87905 2.73096,1.13118 5.65857,1.71316 8.61452,1.71316 2.95596,0 5.88268,-0.58198 8.61364,-1.71316 2.73096,-1.13118 5.21212,-2.78942 7.30264,-4.87905 2.08963,-2.09052 3.74787,-4.57168 4.87905,-7.30273 1.13119,-2.73096 1.71316,-5.65786 1.71316,-8.61382 0,-2.95586 -0.58197,-5.88285 -1.71316,-8.61372 -1.13118,-2.73087 -2.78942,-5.2123 -4.87905,-7.30237 -2.09052,-2.09017 -4.57168,-3.74814 -7.30264,-4.87933 -2.73096,-1.13118 -5.65768,-1.71342 -8.61364,-1.71342 z m 0.0593,4.95231 c 2.31374,0 4.60445,0.45566 6.74192,1.34094 2.13746,0.88537 4.07917,2.183 5.71526,3.81892 1.6361,1.63591 2.93381,3.57806 3.81874,5.71552 0.88581,2.13738 1.34112,4.42827 1.34112,6.74183 0,4.67222 -1.85578,9.15293 -5.15986,12.45701 -3.30408,3.30319 -7.78452,5.15897 -12.45718,5.15897 -4.67177,0 -9.1531,-1.85578 -12.45629,-5.15986 -3.30408,-3.30319 -5.15986,-7.78408 -5.15986,-12.45612 0,-4.67221 1.85578,-9.15318 5.15986,-12.457 3.30319,-3.3039 7.78452,-5.16003 12.45629,-5.16021 z"
     id="path8"
     inkscape:connector-curvature="0"
     style="fill:#ffffff;stroke-width:0.8858124" />
  <path
     d="m 135.50389,102.20957 c -2.40498,0.0346 -4.83919,0.45646 -7.21494,1.29993 -10.85829,3.85594 -17.12186,15.32136 -14.53795,26.57836 2.5848,11.25663 13.22606,18.81616 24.67165,17.50781 11.44469,-1.30746 20.1168,-12.00896 20.1168,-21.85352 h -5.33968 c 0,7.44065 -6.60373,15.54565 -15.3839,16.54839 -8.78018,1.00363 -16.86942,-4.73467 -18.85806,-13.39809 -1.98865,-8.66298 2.78765,-17.39142 11.12048,-20.35039 7.45057,-2.64592 15.56196,0.0866 19.96533,6.40708 h 6.17588 c -3.78862,-7.7544 -11.49873,-12.47427 -19.68806,-12.73116 -0.34193,-0.0107 -0.68474,-0.0133 -1.02755,-0.009 z"
     id="path10"
     inkscape:connector-curvature="0"
     style="fill:#ffffff;stroke-width:0.8858124" />
  <path
     d="m 158.53945,125.74179 h -29.80759 v 4.8206 h 26.10666 z"
     id="path12"
     inkscape:connector-curvature="0"
     style="fill:#ffffff;stroke-width:0.8858124" />
  <path
     d="m 185.05535,146.24304 h -23.76989 l -0.0912,-42.59208 h 23.769 v 4.81404 h -18.98828 v 13.48029 h 17.74637 v 4.77781 h -17.74637 v 15.52758 h 19.02637 z"
     id="path14"
     inkscape:connector-curvature="0"
     style="fill:#ffffff;stroke-width:0.8858124" />
  <path
     d="m 307.37098,102.43811 c -2.95595,0 -5.88268,0.58224 -8.61364,1.71342 -2.73095,1.13119 -5.21212,2.78916 -7.30263,4.87933 -2.09052,2.09007 -3.74787,4.57141 -4.87906,7.30237 -1.13118,2.73087 -1.71404,5.65786 -1.71404,8.61372 0,2.95596 0.58286,5.88286 1.71404,8.61382 1.13119,2.73105 2.78854,5.21221 4.87906,7.30273 2.09051,2.08963 4.57168,3.74787 7.30263,4.87905 2.73096,1.13118 5.65769,1.71316 8.61364,1.71316 2.95596,0 5.88268,-0.58198 8.61364,-1.71316 2.73096,-1.13118 5.21212,-2.78942 7.30264,-4.87905 2.08963,-2.09052 3.74787,-4.57168 4.87906,-7.30273 1.13118,-2.73096 1.71316,-5.65786 1.71316,-8.61382 0,-2.95586 -0.58198,-5.88285 -1.71316,-8.61372 -1.13119,-2.73087 -2.78943,-5.2123 -4.87906,-7.30237 -2.09052,-2.09017 -4.57168,-3.74814 -7.30264,-4.87933 -2.73096,-1.13118 -5.65768,-1.71342 -8.61364,-1.71342 z m 0.0594,4.95231 c 2.31375,0 4.60446,0.45566 6.74192,1.34094 2.13747,0.88537 4.08005,2.183 5.71526,3.81892 1.6361,1.63591 2.93381,3.57806 3.81963,5.71552 0.88492,2.13738 1.34023,4.42827 1.34023,6.74183 0,4.67222 -1.85578,9.15293 -5.15986,12.45701 -3.30408,3.30319 -7.78452,5.15897 -12.45718,5.15897 -4.67177,0 -9.15221,-1.85578 -12.45629,-5.15986 -3.30319,-3.30319 -5.15986,-7.78408 -5.15986,-12.45612 0,-4.67221 1.85578,-9.15318 5.15986,-12.457 3.30319,-3.3039 7.78452,-5.16003 12.45629,-5.16021 z"
     id="path16"
     inkscape:connector-curvature="0"
     style="fill:#ffffff;stroke-width:0.8858124" />
  <path
     d="m 357.03051,102.20877 v 8.9e-4 c -2.40409,0.0346 -4.83831,0.45637 -7.21405,1.29993 -10.85829,3.85594 -17.12187,15.32136 -14.53796,26.57835 2.5848,11.25735 13.22607,18.81599 24.67165,17.50764 7.96877,-0.91061 14.58933,-6.37607 17.87835,-12.93552 h -6.10502 c -2.75399,3.95693 -7.18571,7.0369 -12.38011,7.63128 -8.78017,1.00274 -16.86941,-4.73555 -18.85806,-13.3988 -1.98865,-8.66298 2.78765,-17.39151 11.12049,-20.35048 7.45056,-2.64583 15.56195,0.0867 19.96532,6.40717 h 6.17589 c -3.78862,-7.7544 -11.49873,-12.47427 -19.68807,-12.73116 -0.34192,-0.0109 -0.68473,-0.0129 -1.02843,-0.009 z"
     id="path18"
     inkscape:connector-curvature="0"
     style="fill:#ffffff;stroke-width:0.8858124" />
  <path
     d="m 450.01867,146.24304 h -23.76901 l -0.0921,-42.59208 h 23.76989 v 4.81404 h -18.98828 v 13.48029 h 17.74637 v 4.77781 h -17.74637 v 15.52758 h 19.02548 z"
     id="path20"
     inkscape:connector-curvature="0"
     style="fill:#ffffff;stroke-width:0.8858124" />
  <path
     d="m 383.29573,103.65096 h 4.85514 v 42.59208 h -4.85514 z"
     id="path22"
     inkscape:connector-curvature="0"
     style="fill:#ffffff;stroke-width:0.8858124" />
  <path
     d="m 412.1617,146.24304 h 6.39468 l -22.08064,-22.92474 -3.98173,3.01646 z"
     id="path24"
     inkscape:connector-curvature="0"
     style="fill:#ffffff;stroke-width:0.8858124" />
  <path
     d="m 412.04123,103.65096 h 6.27421 l -32.69888,33.90491 1.32784,-8.80816 z"
     id="path26"
     inkscape:connector-curvature="0"
     style="fill:#ffffff;stroke-width:0.8858124" />
  <path
     d="m 457.52858,103.65096 h 34.74954 v 4.81404 h -34.74954 z"
     id="path28"
     inkscape:connector-curvature="0"
     style="fill:#ffffff;stroke-width:0.8858124" />
  <path
     d="m 472.36948,103.65096 h 4.91803 v 42.59208 h -4.91803 z"
     id="path30"
     inkscape:connector-curvature="0"
     style="fill:#ffffff;stroke-width:0.8858124" />
  <path
     d="m 245.43941,105.1075 6.09616,-17.572648 16.18822,0.0486 0.13819,7.8785 -10.68378,-0.0859 -2.18264,8.087378 10.9699,7.93546 c 5.40611,-2.221 9.26471,-7.0524 10.0584,-12.593598 0.7928,-5.54111 -1.60598,-10.90541 -6.25295,-13.98263 -4.64698,-3.07714 -10.77591,-3.27946 -16.01283,-0.68057 l -17.61704,8.74261 26.54957,53.500058 -6.91731,3.43252 -30.14331,-60.741308 25.07469,-12.44345 c 8.21414,-4.07606 17.98819,-3.08785 24.97105,2.52448 6.98286,5.61242 9.87504,14.80485 7.38768,23.483768 -2.48648,8.67893 -10.21342,15.12073 -18.42933,17.70783 z"
     id="path32"
     inkscape:connector-curvature="0"
     style="fill:#ffffff;stroke-width:0.8858124" />
  <path
     d="m 265.66694,45.500482 -2.816,20.90287 5.29007,1.02382 7.42222,-20.476287 z"
     id="path34"
     inkscape:connector-curvature="0"
     style="fill:#ffffff;stroke-width:0.8858124" />
  <path
     d="m 286.39849,52.069897 -10.4083,18.087345 4.60712,3.07147 13.13925,-15.954455 z"
     id="path36"
     inkscape:connector-curvature="0"
     style="fill:#ffffff;stroke-width:0.8858124" />
  <path
     d="m 300.30574,64.611442 -15.10132,13.4802 3.49807,5.20433 16.63644,-10.40874 z"
     id="path38"
     inkscape:connector-curvature="0"
     style="fill:#ffffff;stroke-width:0.8858124" />
  <path
     d="m 491.90608,140.78466 v 5.47964 h 0.91327 v -4.66381 l 1.48373,4.66381 h 0.79901 l 1.37035,-4.66381 v 4.66381 h 0.799 v -5.47964 h -1.25608 l -1.36947,4.43083 -1.37035,-4.43083 z m -3.1969,0.81672 v 4.66292 h 0.799 v -4.66292 h 1.94082 v -0.81672 h -4.4521 v 0.81672 z"
     id="path40"
     inkscape:connector-curvature="0"
     style="clip-rule:evenodd;fill:#ffffff;fill-rule:evenodd;stroke-width:0.8858124" />
  <path
     d="m 1.4549201,75.549102 c 0,3.61384 2.4092245,6.53942 5.3920914,6.53942 H 21.81865 c 0.344226,0 0.688364,0.34414 0.688364,0.80307 0,0.45886 -0.286826,0.80299 -0.688364,0.80299 H 1.3975806 v 5.79375 H 24.227882 c 2.982885,0 5.392117,-2.98289 5.392117,-6.59674 0,-3.61384 -2.409232,-6.59664 -5.392117,-6.59664 H 9.3135737 c -0.3441824,0 -0.6883382,-0.34423 -0.6883382,-0.80308 0,-0.45894 0.2868172,-0.80307 0.6883382,-0.80307 H 29.562687 v -5.67904 H 6.847977 c -2.9828669,0 -5.3920932,2.92549 -5.3920932,6.53934 z"
     id="path42"
     inkscape:connector-curvature="0"
     style="fill:#ffffff;stroke-width:0.8858124" />
  <path
     d="m 31.226774,69.009762 v 20.36412 h 7.170474 v -12.7921 l 13.652584,12.7921 h 7.4573 v -20.36412 h -7.170474 v 12.73471 L 38.684074,69.009762 Z"
     id="path44"
     inkscape:connector-curvature="0"
     style="fill:#ffffff;stroke-width:0.8858124" />
  <path
     d="m 68.341161,77.958512 v -8.94875 h -7.285186 v 20.36412 h 7.285186 v -9.00614 l 11.587401,9.00614 h 9.350281 L 76.085199,79.220522 89.278843,69.009762 h -9.350281 z"
     id="path46"
     inkscape:connector-curvature="0"
     style="fill:#ffffff;stroke-width:0.8858124" />
  <path
     d="m 91.3993,69.009762 c 0.573121,0 1.088664,0.22943 1.491708,0.63097 v 0 c 0.402159,0.40154 0.573121,0.86048 0.630699,1.49144 0,0.57347 -0.22854,1.08981 -0.630699,1.49144 -0.402158,0.40154 -0.917701,0.63097 -1.491708,0.63097 -0.57312,0 -1.089549,-0.22943 -1.491708,-0.63097 -0.401184,-0.40154 -0.630609,-0.91779 -0.630609,-1.49144 0,-0.57365 0.229425,-1.0899 0.630609,-1.49144 0.403045,-0.40154 0.918588,-0.63097 1.491708,-0.63097 z m 0,3.90086 c 0.516429,0 0.917702,-0.17203 1.262283,-0.51626 0.343695,-0.34413 0.515543,-0.80307 0.515543,-1.26192 0,-0.45894 -0.171848,-0.91779 -0.515543,-1.26202 -0.344581,-0.34414 -0.745854,-0.51625 -1.262283,-0.51625 -0.45885,0 -0.917701,0.17211 -1.262282,0.51625 -0.343695,0.34423 -0.516429,0.74568 -0.516429,1.26202 0,0.45885 0.172734,0.91779 0.516429,1.26192 0.344581,0.34423 0.745854,0.51626 1.262282,0.51626 z"
     id="path48"
     inkscape:connector-curvature="0"
     style="clip-rule:evenodd;fill:#ffffff;fill-rule:evenodd;stroke-width:0.8858124" />
  <path
     d="m 92.375466,70.730452 v 0.0574 0 c 0,0.22943 -0.115156,0.40154 -0.287004,0.45894 0.01595,0.0315 0.03543,0.0631 0.05669,0.0958 0.05492,0.0864 0.115156,0.18097 0.115156,0.30578 l 0.05758,0.51625 h -0.344581 l -0.05669,-0.51625 c 0,-0.1148 -0.115156,-0.22951 -0.287003,-0.22951 H 90.88376 v 0.80308 h -0.344581 v -2.12241 h 1.204704 c 0.344581,0 0.631585,0.28683 0.631585,0.63096 z m -0.631585,-0.28691 h -0.860123 v 0 0.68836 h 0.860123 c 0.171848,0 0.287004,-0.11471 0.287004,-0.28682 v -0.11471 c 0,-0.17212 -0.115156,-0.28683 -0.287004,-0.28683 z"
     id="path50"
     inkscape:connector-curvature="0"
     style="clip-rule:evenodd;fill:#ffffff;fill-rule:evenodd;stroke-width:0.8858124" />
</svg>
