<?xml version="1.0" encoding="UTF-8" standalone="no"?>
<!-- Created with Inkscape (http://www.inkscape.org/) -->

<svg
   xmlns:dc="http://purl.org/dc/elements/1.1/"
   xmlns:cc="http://creativecommons.org/ns#"
   xmlns:rdf="http://www.w3.org/1999/02/22-rdf-syntax-ns#"
   xmlns:svg="http://www.w3.org/2000/svg"
   xmlns="http://www.w3.org/2000/svg"
   xmlns:sodipodi="http://sodipodi.sourceforge.net/DTD/sodipodi-0.dtd"
   xmlns:inkscape="http://www.inkscape.org/namespaces/inkscape"
   width="500"
   height="200"
   viewBox="0 0 132.29166 52.916668"
   version="1.1"
   id="svg8"
   inkscape:version="0.92.5 (2060ec1f9f, 2020-04-08)"
   sodipodi:docname="ngp.svg">
  <defs
     id="defs2" />
  <sodipodi:namedview
     id="base"
     pagecolor="#ffffff"
     bordercolor="#666666"
     borderopacity="1.0"
     inkscape:pageopacity="0.0"
     inkscape:pageshadow="2"
     inkscape:zoom="1.1842658"
     inkscape:cx="328.10908"
     inkscape:cy="135.51153"
     inkscape:document-units="mm"
     inkscape:current-layer="layer1"
     showgrid="false"
     units="px"
     inkscape:pagecheckerboard="true"
     inkscape:window-width="1366"
     inkscape:window-height="740"
     inkscape:window-x="0"
     inkscape:window-y="0"
     inkscape:window-maximized="1" />
  <metadata
     id="metadata5">
    <rdf:RDF>
      <cc:Work
         rdf:about="">
        <dc:format>image/svg+xml</dc:format>
        <dc:type
           rdf:resource="http://purl.org/dc/dcmitype/StillImage" />
        <dc:title></dc:title>
      </cc:Work>
    </rdf:RDF>
  </metadata>
  <g
     inkscape:label="Layer 1"
     inkscape:groupmode="layer"
     id="layer1"
     transform="translate(0,-244.08332)">
    <path
       inkscape:connector-curvature="0"
       id="path430"
       d="m 171.8998,228.76924 c -0.10753,-0.12073 -0.3912,-0.6395 -0.63036,-1.15281 -0.23917,-0.51331 -1.65014,-3.39717 -3.13549,-6.40859 -3.53856,-7.17413 -3.92003,-7.97924 -3.92003,-8.27369 0,-0.18724 0.26628,-0.38071 1.08884,-0.7911 2.30141,-1.14825 6.21574,-2.93318 6.7508,-3.07838 0.93203,-0.25292 2.79749,-0.18842 3.72644,0.12885 1.61478,0.55149 2.95653,1.78936 3.49656,3.22583 1.305,3.47126 -0.22401,6.87114 -3.86438,8.59276 -0.42413,0.20059 -0.86336,0.33065 -0.97605,0.28903 -0.29892,-0.11039 -5.00409,-4.01442 -5.08158,-4.21635 -0.0361,-0.094 0.28595,-1.15574 0.71564,-2.35933 0.61061,-1.71036 0.83917,-2.21035 1.04643,-2.28915 0.14584,-0.0555 1.11743,-0.10534 2.15909,-0.11074 2.29651,-0.0121 2.38657,0.034 2.38657,1.22122 0,0.4062 -0.0539,0.88025 -0.11974,1.05347 -0.11655,0.30652 -0.15532,0.31589 -1.45107,0.35031 l -1.33132,0.0354 -0.22125,0.78548 c -0.25672,0.91136 -0.38649,0.71477 1.24488,1.88586 0.5752,0.41289 1.11975,0.75073 1.21011,0.75073 0.0904,0 0.50147,-0.32994 0.91359,-0.73319 1.39058,-1.36069 1.71863,-2.7134 1.01421,-4.18214 -0.76264,-1.59013 -2.04253,-2.23018 -3.87882,-1.93974 -0.60168,0.0952 -1.38979,0.41623 -3.14759,1.28223 -1.28971,0.6354 -2.3692,1.19441 -2.39885,1.24223 -0.0297,0.0478 1.45954,3.11348 3.30933,6.81256 1.84979,3.69908 3.36325,6.84131 3.36325,6.98273 0,0.19515 -0.1875,0.34147 -0.77774,0.60696 -1.1463,0.51561 -1.26899,0.53944 -1.49147,0.28963 z m -44.7551,-0.54077 c -0.92761,-0.18217 -2.09747,-0.81328 -2.86551,-1.54588 -2.49445,-2.37929 -2.5034,-6.32178 -0.0197,-8.69081 1.9369,-1.84748 4.59805,-2.21994 7.03694,-0.98488 0.80549,0.40789 2.06163,1.67119 2.47722,2.49131 0.70802,1.39721 0.86698,2.87953 0.47134,4.39517 -0.798,3.05692 -3.91577,4.96049 -7.10027,4.33509 z m 3.1159,-2.00185 c 0.8935,-0.41563 1.65828,-1.17946 2.07863,-2.07606 0.28394,-0.60564 0.32951,-0.86631 0.32951,-1.88499 0,-1.11048 -0.0259,-1.22991 -0.42681,-1.96936 -0.78536,-1.44852 -1.91621,-2.14631 -3.61745,-2.23209 -1.40118,-0.0707 -2.23281,0.22793 -3.15485,1.13271 -1.06395,1.04403 -1.51152,2.30381 -1.31997,3.71532 0.22341,1.64633 1.29041,2.92197 2.96217,3.5414 0.74627,0.27651 2.30857,0.16392 3.14877,-0.22693 z m 9.20402,1.93976 c -1.50563,-0.40491 -3.00051,-1.54159 -3.73904,-2.8431 -1.05803,-1.86454 -1.0099,-4.4361 0.11624,-6.21098 0.81009,-1.27676 2.31314,-2.35767 3.73326,-2.68474 1.3437,-0.30947 3.05551,-0.0756 4.27884,0.58457 0.74026,0.39948 1.94061,1.5348 2.24418,2.1226 0.32734,0.63382 0.20499,0.76651 -0.70681,0.76651 -0.77106,0 -0.79798,-0.0118 -1.34162,-0.57045 -0.85293,-0.87703 -1.59339,-1.20565 -2.85689,-1.26789 -1.35781,-0.0669 -2.20302,0.22668 -3.15346,1.09533 -0.9534,0.87136 -1.37895,1.84842 -1.38043,3.16956 -8.7e-4,0.81491 0.0583,1.12362 0.32644,1.70172 0.739,1.59328 2.02968,2.47019 3.77191,2.56268 1.20041,0.0637 2.09027,-0.21952 2.91951,-0.92931 0.62318,-0.53343 1.27459,-1.38895 1.17736,-1.54627 -0.037,-0.06 -1.34073,-0.10886 -2.89716,-0.10886 -2.03508,0 -2.87179,-0.042 -2.97918,-0.14934 -0.0821,-0.0822 -0.14932,-0.35752 -0.14932,-0.61201 0,-0.91531 -0.27898,-0.85636 4.05319,-0.85636 4.50432,0 4.23448,-0.0825 3.96458,1.2117 -0.68416,3.28055 -4.16125,5.43074 -7.3816,4.56468 z m 19.16305,0.0621 c -2.0694,-0.4064 -4.00296,-2.26458 -4.56916,-4.39103 -0.1997,-0.74996 -0.21936,-2.15319 -0.041,-2.92677 0.3424,-1.48524 1.81061,-3.35124 3.13527,-3.98472 2.33078,-1.11464 4.96683,-0.74225 6.82603,0.96427 2.53379,2.32572 2.6172,6.19572 0.18678,8.66549 -1.43774,1.46102 -3.47803,2.0773 -5.53791,1.67276 z m 3.09748,-1.99516 c 0.86502,-0.40479 1.63614,-1.17602 2.08045,-2.08079 0.30067,-0.61226 0.34611,-0.8518 0.34611,-1.82472 0,-0.95139 -0.0496,-1.22573 -0.32951,-1.82278 -0.40416,-0.86205 -1.12865,-1.6058 -1.99947,-2.05261 -0.52083,-0.26725 -0.87748,-0.34823 -1.71528,-0.38951 -1.4421,-0.071 -2.27927,0.2401 -3.24536,1.20619 -1.9748,1.97482 -1.59897,5.28541 0.7609,6.7025 0.92898,0.55785 1.26792,0.64325 2.42224,0.61036 0.7678,-0.0219 1.15206,-0.10169 1.67992,-0.34864 z m 22.66131,1.99516 c -0.92762,-0.18216 -2.09747,-0.81327 -2.86552,-1.54587 -2.49445,-2.37929 -2.50339,-6.32179 -0.0197,-8.69081 1.92051,-1.83185 4.60903,-2.21542 7.00793,-0.9998 0.8311,0.42115 2.08501,1.67498 2.50609,2.50595 2.31924,4.5768 -1.58641,9.7208 -6.62879,8.73053 z m 3.09748,-1.99516 c 0.8712,-0.40768 1.69126,-1.22673 2.10372,-2.10115 0.27744,-0.58817 0.32258,-0.85065 0.32099,-1.86658 -0.002,-1.05109 -0.0404,-1.25581 -0.34982,-1.84636 -0.44328,-0.8461 -1.22589,-1.62918 -2.01591,-2.01712 -0.90512,-0.44445 -2.45618,-0.493 -3.48012,-0.10897 -1.01032,0.37897 -2.03524,1.39715 -2.40723,2.39139 -0.3369,0.90043 -0.35778,2.38638 -0.0444,3.15748 0.49743,1.22389 1.44077,2.14554 2.63801,2.57737 0.85346,0.30782 2.36505,0.22085 3.23474,-0.18611 z m 9.59575,1.93308 c -2.62206,-0.70517 -4.49681,-3.1382 -4.49229,-5.83007 0.003,-1.61951 0.52145,-2.92487 1.63558,-4.11588 1.88,-2.00973 4.71904,-2.4986 7.2037,-1.24045 0.75461,0.38212 1.74518,1.28799 2.22352,2.03341 0.53267,0.83009 0.43973,1.01228 -0.51636,1.01228 -0.74157,0 -0.756,-0.007 -1.38662,-0.65872 -0.97934,-1.01234 -1.61371,-1.27007 -3.12602,-1.27007 -1.13345,0 -1.30948,0.033 -1.97453,0.36994 -1.44065,0.72996 -2.33907,2.19922 -2.34006,3.82691 -9.9e-4,1.56205 0.73881,2.91089 2.01679,3.67733 0.89873,0.53901 1.48717,0.68408 2.5431,0.62699 1.14113,-0.0617 2.05856,-0.48562 2.86935,-1.32584 0.61248,-0.63472 0.62596,-0.64097 1.38293,-0.64163 0.52408,-5.1e-4 0.78452,0.0517 0.82832,0.16582 0.11275,0.29383 -0.31852,0.99508 -1.09028,1.77282 -1.50054,1.51214 -3.76519,2.13823 -5.77713,1.59716 z m -91.32702,-0.20155 c -0.11164,-0.11168 -0.14933,-1.53689 -0.14933,-5.64671 0,-4.58376 0.0292,-5.52165 0.1758,-5.64329 0.10534,-0.0875 0.48746,-0.13094 0.95353,-0.10863 l 0.77775,0.0374 1.04481,1.49326 c 0.57465,0.82129 1.83948,2.63671 2.81074,4.03427 l 1.76591,2.54101 0.0329,-3.89926 c 0.0221,-2.6239 0.078,-3.95359 0.17078,-4.06538 0.20546,-0.24756 1.4278,-0.22294 1.52513,0.0307 0.0416,0.10827 0.0755,2.64494 0.0755,5.63706 0,4.06538 -0.0377,5.47797 -0.14932,5.58956 -0.24088,0.24089 -1.30762,0.18732 -1.56171,-0.0784 -0.11977,-0.12526 -1.19772,-1.6676 -2.39544,-3.42744 -1.19772,-1.75983 -2.45766,-3.60325 -2.79987,-4.09648 l -0.62219,-0.89682 -0.0622,4.1687 c -0.0342,2.29278 -0.10752,4.2387 -0.1629,4.32424 -0.12917,0.19959 -1.23175,0.20439 -1.42992,0.006 z m 10.07033,-0.0185 c -0.10374,-0.125 -0.13387,-1.69739 -0.11031,-5.7574 l 0.0324,-5.58542 h 3.2354 3.23541 l 0.0376,0.72547 c 0.0322,0.62157 0.004,0.73416 -0.19458,0.78618 -0.12771,0.0334 -1.20858,0.0709 -2.40195,0.0833 l -2.16975,0.0227 v 1.55547 1.55549 l 2.26588,0.0339 2.26589,0.0339 0.0847,0.45161 c 0.0466,0.24839 0.0336,0.59713 -0.0289,0.77495 l -0.11361,0.32335 -2.26811,0.034 -2.26812,0.0339 v 1.67711 1.67711 h 2.28688 c 1.82282,0 2.31661,0.0359 2.4334,0.17656 0.0844,0.10169 0.13044,0.45779 0.10857,0.83996 l -0.038,0.6634 -3.1251,0.0333 c -2.5377,0.0269 -3.15191,8.7e-4 -3.2678,-0.13874 z m 31.61868,0.0204 c -0.11439,-0.11438 -0.15094,-1.49145 -0.1495,-5.63292 0.001,-3.01484 0.047,-5.55251 0.10203,-5.63925 0.0775,-0.12206 0.81593,-0.15021 3.26461,-0.12445 l 3.16449,0.0333 0.0382,0.67107 c 0.0211,0.37085 -0.0223,0.73163 -0.0971,0.80644 -0.0874,0.0875 -0.93812,0.13621 -2.40257,0.13778 l -2.26719,0.002 v 1.55547 1.55549 l 2.23912,0.0417 c 1.52671,0.0285 2.26846,0.0878 2.33132,0.18666 0.15468,0.24312 0.1064,1.16354 -0.0686,1.30882 -0.10188,0.0845 -0.99143,0.14965 -2.33323,0.17077 l -2.16857,0.0341 -0.0347,1.6488 -0.0347,1.64882 2.27461,0.002 c 1.25104,0.001 2.34767,0.0482 2.43696,0.10486 0.11127,0.0705 0.15042,0.3342 0.12444,0.83805 l -0.0379,0.73509 -3.11511,0.0332 c -2.31845,0.0247 -3.15382,-0.006 -3.26651,-0.11821 z m 57.89636,-0.002 c -0.0341,-0.089 -0.0474,-2.68169 -0.0296,-5.76154 l 0.0324,-5.59973 h 0.74664 0.74663 l 0.0335,2.85827 c 0.0184,1.57204 0.0747,2.89948 0.12509,2.94984 0.0504,0.0503 1.37646,-1.25208 2.94688,-2.89433 l 2.85532,-2.9859 0.87588,0.0361 c 0.6807,0.028 0.88423,0.0799 0.91337,0.2328 0.0222,0.1165 -0.97975,1.25859 -2.45629,2.79987 -1.3716,1.43172 -2.49364,2.65913 -2.49344,2.72757 2.5e-4,0.0684 1.1239,1.28816 2.49709,2.7105 1.62591,1.68408 2.4825,2.66063 2.45596,2.79987 -0.0329,0.1728 -0.20426,0.22091 -0.89324,0.25091 l -0.85249,0.0371 -2.25306,-2.32201 -2.25306,-2.32201 -0.71321,0.79164 -0.71322,0.79164 -0.0375,1.49326 -0.0376,1.49327 -0.71703,0.0374 c -0.50186,0.0261 -0.73564,-0.0118 -0.77908,-0.12443 z m 11.16706,0.002 c -0.11438,-0.11438 -0.15094,-1.49145 -0.14949,-5.63292 9.8e-4,-3.01484 0.0469,-5.55251 0.10204,-5.63925 0.0775,-0.12206 0.81593,-0.15021 3.26461,-0.12445 l 3.16448,0.0333 v 0.74663 0.74663 l -2.36433,0.0622 -2.36433,0.0622 v 1.55547 1.55549 l 2.23439,0.0341 c 1.59667,0.0243 2.26205,0.0776 2.33131,0.18666 0.11556,0.18186 0.12702,0.78847 0.0223,1.17919 -0.0744,0.27748 -0.0955,0.27998 -2.36264,0.27998 h -2.2876 v 1.67992 1.67993 l 2.27101,0.002 c 1.24905,0.001 2.34406,0.0482 2.43334,0.10486 0.11133,0.0705 0.15043,0.3342 0.12445,0.83806 l -0.038,0.73508 -3.1151,0.0332 c -2.31846,0.0247 -3.15383,-0.006 -3.26652,-0.11821 z m 12.06847,-0.002 c -0.11098,-0.11097 -0.14932,-1.37382 -0.14932,-4.91295 v -4.76363 l -0.27999,-0.0654 c -0.154,-0.0358 -1.00795,-0.079 -1.8977,-0.0957 l -1.6177,-0.0303 v -0.74663 -0.74663 l 4.52737,-0.0327 c 3.23801,-0.0234 4.57583,0.007 4.69755,0.10862 0.18214,0.15115 0.23059,1.06745 0.0698,1.32046 -0.067,0.10545 -0.64766,0.16261 -1.89578,0.18666 l -1.79922,0.0347 -0.0622,4.79089 c -0.0342,2.63498 -0.10757,4.86088 -0.16289,4.94643 -0.12919,0.19959 -1.23176,0.20439 -1.42993,0.006 z M 180.3597,211.29459 c -0.75352,-1.01192 -0.77889,-1.08138 -0.5166,-1.41434 0.48116,-0.6108 3.81364,-3.43078 4.00967,-3.39303 0.26888,0.0517 1.37424,1.82218 1.38267,2.21454 0.006,0.27008 -0.26805,0.48189 -2.0767,1.60628 -1.14586,0.71237 -2.17485,1.31916 -2.28664,1.34845 -0.12482,0.0327 -0.32257,-0.10698 -0.5124,-0.3619 z m -2.5633,-2.71805 c -0.28403,-0.20575 -0.51642,-0.44609 -0.51642,-0.53409 0,-0.16035 0.56804,-1.18463 1.94624,-3.50938 0.49327,-0.83206 0.82019,-1.25641 0.98661,-1.28063 0.33128,-0.0482 2.04486,1.15839 2.04416,1.43942 -3e-4,0.11799 -0.76105,1.12448 -1.69056,2.23665 -1.27067,1.52037 -1.75993,2.02213 -1.97181,2.02213 -0.15499,0 -0.51418,-0.16834 -0.79822,-0.3741 z m -3.34684,-1.1397 c -0.39156,-0.0877 -0.54364,-0.18894 -0.58754,-0.3911 -0.0326,-0.15003 0.12116,-1.41475 0.34165,-2.81049 0.30349,-1.92123 0.45099,-2.56924 0.60716,-2.66754 0.30318,-0.19083 2.46431,0.16186 2.63228,0.42959 0.0958,0.15276 -0.10572,0.83246 -0.82832,2.79328 -0.52524,1.42527 -1.02442,2.63552 -1.10929,2.68942 -0.1866,0.11851 -0.36704,0.11109 -1.05594,-0.0432 z"
       style="fill:#d0d0d0;stroke-width:0.1244386" />
    <path
       inkscape:connector-curvature="0"
       id="path428"
       d="m 50.224972,232.68381 c -0.0732,-0.0882 -0.85812,-1.64214 -1.74424,-3.45316 -0.88611,-1.81103 -2.59343,-5.29938 -3.79403,-7.75189 -1.20059,-2.45251 -2.15319,-4.53655 -2.11687,-4.63118 0.0363,-0.0946 0.46674,-0.3633 0.95649,-0.59702 7.03659,-3.35792 7.13953,-3.39578 8.91675,-3.27929 3.0858,0.20226 5.25791,2.37819 5.44329,5.45285 0.10376,1.72095 -0.35285,3.0886 -1.48103,4.43598 -0.97501,1.16443 -3.19784,2.55413 -3.70906,2.31886 -0.52517,-0.24169 -4.98187,-4.05653 -4.98187,-4.26438 0,-0.36195 1.46151,-4.2751 1.63863,-4.38738 0.26956,-0.17089 4.13448,-0.13461 4.30954,0.0404 0.15501,0.15501 0.21014,1.66285 0.0738,2.01818 -0.0607,0.15828 -0.28617,0.19717 -1.15106,0.19853 -1.52144,0.002 -1.60015,0.0362 -1.8216,0.78189 -0.31672,1.06652 -0.31668,1.06661 1.12525,2.05919 l 1.31245,0.90345 0.42608,-0.26334 c 0.57183,-0.3534 1.3545,-1.25982 1.69475,-1.96267 0.64296,-1.32818 0.33431,-2.82643 -0.81457,-3.95409 -0.81647,-0.8014 -1.41643,-0.98596 -2.90341,-0.89319 -1.05827,0.0661 -1.12427,0.0896 -3.32474,1.18949 -1.23477,0.61717 -2.34919,1.20036 -2.47649,1.29599 -0.2186,0.1642 -0.0405,0.55138 3.20473,6.96722 1.94474,3.84476 3.40537,6.87368 3.36518,6.9784 -0.0637,0.16599 -1.6399,0.95753 -1.90674,0.95753 -0.0595,0 -0.16801,-0.0722 -0.24122,-0.16041 z m -45.05555,-0.65083 c -2.58405,-0.72524 -4.37128,-3.05963 -4.36689,-5.70379 0.003,-1.65254 0.57555,-3.04149 1.73071,-4.19665 1.99668,-1.99667 5.03203,-2.30671 7.42723,-0.75862 1.79959,1.16313 2.78232,3.17264 2.62752,5.3728 -0.16075,2.28472 -1.65716,4.29426 -3.80803,5.11386 -0.92065,0.35081 -2.67617,0.43463 -3.61054,0.1724 z m 3.50821,-1.78025 c 0.94242,-0.46395 1.60294,-1.14387 2.06169,-2.12225 0.28327,-0.60413 0.32749,-0.86029 0.32476,-1.88151 -0.004,-1.38061 -0.22999,-1.9739 -1.13815,-2.984 -0.80131,-0.89125 -1.68267,-1.2844 -3.01733,-1.34597 -1.48493,-0.0685 -2.28662,0.23839 -3.31857,1.27033 -0.93254,0.93255 -1.29571,1.7851 -1.29571,3.04172 0,1.5848 0.55118,2.70377 1.79481,3.6437 0.8724,0.65937 1.55651,0.86074 2.76642,0.81434 0.84177,-0.0323 1.15236,-0.10662 1.82208,-0.43636 z m 9.07999,1.77746 c -2.68576,-0.72331 -4.41292,-2.98978 -4.40557,-5.78122 0.005,-1.74092 0.63181,-3.13252 1.95838,-4.34493 1.21072,-1.10652 2.59132,-1.57611 4.33179,-1.4734 1.20631,0.0712 2.17838,0.41669 3.08995,1.09824 0.69641,0.52068 1.75201,1.79966 1.67599,2.03065 -0.0251,0.0762 -0.33756,0.15546 -0.69446,0.17624 -0.6182,0.036 -0.67931,0.0106 -1.29121,-0.53968 -0.35327,-0.31762 -0.92482,-0.72601 -1.27011,-0.90753 -0.55706,-0.29285 -0.76804,-0.3302 -1.8722,-0.33139 -1.08277,-0.001 -1.33327,0.0407 -1.92879,0.32185 -0.93198,0.4401 -1.68944,1.21616 -2.15221,2.20508 -0.33232,0.71016 -0.38609,0.96522 -0.38455,1.82409 0.002,1.31447 0.41664,2.2781 1.36497,3.175 0.83644,0.79107 1.61087,1.13444 2.73715,1.21363 1.07988,0.0759 2.0158,-0.1696 2.8575,-0.74965 0.65047,-0.44826 1.63209,-1.72287 1.49619,-1.94276 -0.0583,-0.0943 -1.00334,-0.13774 -2.99972,-0.13774 h -2.91459 l -0.0743,-0.29606 c -0.0409,-0.16283 -0.0559,-0.45682 -0.0335,-0.6533 l 0.0408,-0.35725 3.84912,-0.0329 c 2.66146,-0.0228 3.87482,0.008 3.9324,0.10181 0.0458,0.0741 0.0323,0.42492 -0.03,0.77957 -0.57101,3.24925 -4.0892,5.48183 -7.28302,4.6217 z m 18.89477,-0.005 c -2.06286,-0.55473 -3.74993,-2.30121 -4.24311,-4.39253 -0.0979,-0.41533 -0.13379,-1.09283 -0.0944,-1.78401 0.0563,-0.98743 0.12192,-1.2322 0.57601,-2.1486 1.09451,-2.20881 3.21876,-3.42883 5.69483,-3.2707 1.83686,0.11733 3.47411,1.05909 4.49275,2.58431 0.73694,1.10342 0.96558,1.90641 0.95667,3.35984 -0.009,1.4051 -0.26694,2.22995 -1.04637,3.34112 -1.40815,2.00744 -3.97838,2.94468 -6.3364,2.31057 z m 3.51638,-1.77639 c 0.93207,-0.45886 1.57327,-1.12453 2.05473,-2.13316 0.27792,-0.58222 0.3267,-0.85203 0.3267,-1.80698 0,-1.01758 -0.0383,-1.20025 -0.409,-1.95335 -0.75649,-1.53666 -2.0039,-2.34361 -3.75969,-2.43214 -1.47199,-0.0742 -2.27559,0.23333 -3.30851,1.26625 -0.95351,0.95351 -1.29572,1.77801 -1.29572,3.12186 0,1.16255 0.32324,2.06881 1.02037,2.86079 1.00307,1.13955 2.02876,1.57954 3.54087,1.5189 0.84178,-0.0337 1.15374,-0.10909 1.83025,-0.44217 z m 22.24241,1.77639 c -2.56116,-0.68874 -4.37129,-3.04975 -4.3669,-5.69591 0.008,-4.78618 5.28779,-7.58194 9.23687,-4.89105 0.92441,0.62989 1.82736,1.76568 2.20963,2.77947 0.33597,0.89094 0.45443,2.37328 0.26154,3.27269 -0.4717,2.19947 -2.32815,4.09798 -4.49553,4.5974 -0.77746,0.17916 -2.05079,0.15114 -2.84561,-0.0625 z m 3.49193,-1.76419 c 0.95857,-0.4721 1.61684,-1.14698 2.07797,-2.13042 0.28281,-0.60317 0.32766,-0.86195 0.32607,-1.88152 -0.002,-1.05122 -0.0404,-1.25578 -0.34999,-1.84669 -0.48823,-0.93192 -1.19563,-1.65423 -2.03816,-2.08113 -0.65464,-0.33171 -0.83545,-0.36532 -1.96536,-0.36532 -1.11039,0 -1.32063,0.0375 -1.95245,0.34771 -0.91155,0.44764 -1.86649,1.48372 -2.20746,2.39503 -0.3117,0.83311 -0.34016,2.09848 -0.0678,3.01559 0.23273,0.78368 0.80823,1.55841 1.60497,2.16059 0.85667,0.64747 1.55645,0.85643 2.75015,0.82123 0.84025,-0.0248 1.12896,-0.0937 1.82207,-0.43507 z m 9.44968,1.76419 c -2.56116,-0.68874 -4.37129,-3.04975 -4.36689,-5.69591 0.003,-1.65255 0.57555,-3.04149 1.73071,-4.19664 2.01723,-2.01725 5.08834,-2.31152 7.47697,-0.71645 0.85676,0.57212 1.86568,1.75557 1.8658,2.18855 7e-5,0.25499 -0.0585,0.27999 -0.6566,0.27999 -0.62345,0 -0.69132,-0.0333 -1.34116,-0.6577 -0.96485,-0.92711 -1.67555,-1.2381 -2.97971,-1.30386 -0.88132,-0.0444 -1.18224,-0.006 -1.80436,0.2277 -1.02275,0.38496 -2.15508,1.51081 -2.53077,2.51627 -0.36031,0.9643 -0.36504,2.31165 -0.0114,3.25676 0.33873,0.90532 1.2614,1.90575 2.1892,2.37367 0.65123,0.32845 0.84874,0.36646 1.91038,0.36769 1.08324,0.001 1.25337,-0.0327 1.99811,-0.39903 0.45581,-0.22419 1.04669,-0.6486 1.34268,-0.96439 0.50169,-0.53527 0.56314,-0.56401 1.20618,-0.56401 0.78058,0 0.85301,0.14622 0.42237,0.85259 -0.65288,1.07089 -2.26599,2.18885 -3.6024,2.49664 -0.78075,0.17982 -2.05307,0.15218 -2.84907,-0.0618 z m -91.29399,-0.20759 c -0.0328,-0.0856 -0.045,-2.61944 -0.0272,-5.63086 l 0.0325,-5.47529 0.76329,-0.0367 c 0.52565,-0.0253 0.81622,0.0169 0.93329,0.13532 0.0935,0.0946 1.40194,1.94394 2.90765,4.10965 1.50571,2.16571 2.77965,3.93872 2.83098,3.94004 0.0513,0.001 0.0942,-1.77552 0.0952,-3.94852 9.9e-4,-2.17302 0.0485,-4.02434 0.10536,-4.11407 0.0685,-0.10804 0.30975,-0.15007 0.71362,-0.12445 l 0.61015,0.0387 v 5.59974 5.59973 l -0.62637,0.0367 c -0.52325,0.0307 -0.66828,-0.0106 -0.88083,-0.24888 -0.13994,-0.15706 -1.47439,-2.07747 -2.96543,-4.26759 -1.49104,-2.19012 -2.78859,-4.06403 -2.88344,-4.16425 -0.14718,-0.15549 -0.17246,0.44044 -0.17246,4.06519 0,2.33607 -0.034,4.33598 -0.0755,4.44424 -0.0947,0.24682 -1.26827,0.28242 -1.36077,0.0413 z m 10.08037,0.002 c -0.0333,-0.0868 -0.0459,-2.62162 -0.028,-5.63303 l 0.0325,-5.47529 h 3.11096 3.11097 l 0.0387,0.61015 c 0.0256,0.40388 -0.0165,0.64513 -0.12444,0.71362 -0.0897,0.0569 -1.1851,0.10427 -2.43415,0.10533 l -2.27101,0.002 v 1.60985 1.60984 l 2.24465,0.0389 c 2.45037,0.0426 2.48021,0.052 2.48021,0.78559 0,0.66871 -0.0245,0.67589 -2.42825,0.71256 l -2.23439,0.0341 -0.0345,1.77325 -0.0345,1.77325 2.27442,0.002 c 1.25093,0.001 2.34784,0.0484 2.43757,0.10533 0.10799,0.0685 0.15006,0.30975 0.12444,0.71362 l -0.0387,0.61016 -3.08293,0.0333 c -2.39888,0.0259 -3.09634,-0.001 -3.14342,-0.12443 z m 31.6074,0 c -0.0333,-0.0868 -0.0459,-2.62162 -0.028,-5.63303 l 0.0325,-5.47529 3.07432,-0.0333 c 3.02287,-0.0327 3.07669,-0.0288 3.21569,0.23087 0.17866,0.33383 0.0494,1.06119 -0.20608,1.15921 -0.1064,0.0408 -1.19682,0.0742 -2.42317,0.0742 h -2.22971 v 1.6177 1.61771 h 2.12363 c 1.22591,0 2.22539,0.0544 2.36434,0.12882 0.25116,0.13442 0.33913,0.89239 0.13995,1.20592 -0.0693,0.10897 -0.73464,0.1623 -2.33132,0.18666 l -2.23438,0.0341 -0.0345,1.77056 -0.0345,1.77054 2.39594,0.0339 2.39595,0.0339 0.12025,0.34221 c 0.0774,0.2202 0.0774,0.4642 -4e-5,0.6844 l -0.12028,0.34221 -3.07999,0.0333 c -2.39653,0.0259 -3.09342,-0.001 -3.1405,-0.12443 z m 57.990191,0.005 c -0.0343,-0.0893 -0.0477,-2.6263 -0.0298,-5.63772 l 0.0325,-5.47529 h 0.62219 0.6222 l 0.0335,2.92045 c 0.0184,1.60623 0.0778,2.96472 0.13186,3.01883 0.0541,0.0541 0.59762,-0.42013 1.20779,-1.05387 0.61017,-0.63374 1.94077,-2.00621 2.95689,-3.04994 l 1.84749,-1.89769 h 0.79995 c 0.55705,0 0.79995,0.0473 0.7999,0.15555 -3e-5,0.0856 -1.15452,1.35007 -2.56553,2.81005 l -2.56547,2.6545 0.36757,0.39424 c 0.20217,0.21683 1.35753,1.42756 2.56749,2.6905 1.20995,1.26295 2.18059,2.35489 2.15697,2.42656 -0.0236,0.0717 -0.38119,0.14678 -0.79463,0.16692 l -0.7517,0.0367 -2.25944,-2.33411 -2.25944,-2.33413 -0.77436,0.7741 -0.77437,0.77411 -0.0622,1.52339 -0.0622,1.52339 -0.59236,0.038 c -0.40141,0.0257 -0.61243,-0.0143 -0.65465,-0.12444 z m 11.07239,-0.007 c -0.0328,-0.0856 -0.045,-2.61944 -0.0271,-5.63086 l 0.0324,-5.47529 3.07432,-0.0333 c 3.022867,-0.0327 3.076677,-0.0288 3.215677,0.23087 0.21261,0.39724 0.0454,1.06621 -0.28891,1.15582 -0.1523,0.0408 -1.242867,0.075 -2.423477,0.0759 l -2.14657,0.001 v 1.6177 1.61771 h 2.12363 c 1.22592,0 2.225387,0.0544 2.364347,0.12882 0.25116,0.13441 0.33913,0.89239 0.13995,1.20591 -0.0692,0.10898 -0.73464,0.1623 -2.331317,0.18666 l -2.23438,0.0341 -0.0346,1.77325 -0.0346,1.77325 h 2.29664 c 1.921937,0 2.328547,0.0319 2.492187,0.19555 0.22428,0.22429 0.25468,0.70584 0.0668,1.05703 -0.12196,0.22791 -0.29071,0.24069 -3.177087,0.24069 -2.32383,0 -3.06244,-0.0369 -3.10794,-0.15554 z m 12.096547,0.0725 c -0.0456,-0.0456 -0.083,-2.25751 -0.083,-4.91531 v -4.83237 l -1.64881,-10e-4 c -2.23663,-0.002 -2.22969,2.5e-4 -2.18362,-0.79211 l 0.037,-0.63723 h 4.54201 4.54202 l 0.0396,0.55546 c 0.0584,0.81996 -0.0761,0.87558 -2.11657,0.87558 h -1.71837 v 4.766 c 0,3.54098 -0.0384,4.80438 -0.14932,4.91533 -0.15741,0.1574 -1.11931,0.20803 -1.26098,0.0664 z M 58.624732,215.14282 c -0.5361,-0.71836 -0.62026,-0.95382 -0.43557,-1.21854 0.32446,-0.46509 3.73972,-3.36729 3.91891,-3.33021 0.25086,0.052 1.45672,2.03932 1.34603,2.21843 -0.16531,0.26747 -4.12218,2.73475 -4.38582,2.73475 -0.0779,0 -0.27755,-0.18199 -0.44355,-0.40443 z m -2.48183,-2.64881 c -0.25544,-0.17356 -0.46443,-0.39217 -0.46443,-0.48579 0,-0.18589 0.35211,-0.82776 1.72771,-3.14955 0.58344,-0.98474 0.97712,-1.52447 1.1121,-1.52466 0.32783,-4.5e-4 1.88886,1.1205 1.88886,1.35637 0,0.11532 -0.73591,1.0893 -1.63536,2.16443 -1.16922,1.3976 -1.71077,1.95478 -1.89991,1.95478 -0.1455,0 -0.47354,-0.142 -0.72897,-0.31558 z m -3.43917,-1.1618 c -0.16463,-0.0461 -0.35147,-0.16647 -0.41521,-0.26758 -0.10859,-0.17226 0.55542,-5.0906 0.72411,-5.36354 0.16877,-0.27307 2.5126,0.0445 2.63239,0.3567 0.0794,0.20701 0.0707,0.23447 -0.98269,3.07418 -0.40482,1.09137 -0.79664,2.05733 -0.8707,2.14657 -0.14215,0.17128 -0.58884,0.19332 -1.0879,0.0537 z"
       style="fill:#e59fa3;stroke-width:0.1244386" />
    <path
       inkscape:connector-curvature="0"
       id="path426"
       d="m 162.45843,230.72803 c -0.0803,-0.051 -0.59236,-1.01617 -1.13794,-2.14467 -0.54558,-1.12849 -2.2577,-4.62579 -3.80471,-7.77179 -2.24771,-4.57093 -2.78154,-5.75116 -2.65743,-5.87524 0.20983,-0.20979 6.46683,-3.19481 7.2452,-3.45646 1.46167,-0.49135 3.37297,-0.35514 4.78105,0.34072 0.8272,0.40881 1.94482,1.49924 2.31766,2.2613 1.29488,2.64664 0.72035,5.52696 -1.49659,7.50288 -0.79016,0.70427 -2.58494,1.71024 -2.86174,1.60402 -0.35334,-0.13559 -4.91495,-3.99714 -4.91495,-4.16067 0,-0.24717 1.35966,-4.03281 1.51616,-4.22139 0.19956,-0.24046 3.99785,-0.22563 4.19872,0.0165 0.089,0.10733 0.13121,0.50623 0.10856,1.02662 l -0.037,0.85115 -1.24439,0.063 c -0.68441,0.0347 -1.31292,0.1071 -1.3967,0.16089 -0.17159,0.11027 -0.53209,1.23052 -0.53209,1.65351 0,0.20829 0.30026,0.48986 1.21327,1.13779 1.57494,1.11767 1.46412,1.06659 1.86462,0.85948 0.49147,-0.25415 1.57006,-1.42712 1.91215,-2.07947 0.63572,-1.21228 0.27072,-3.0592 -0.82015,-4.15006 -0.76334,-0.76335 -1.40853,-0.97339 -2.82263,-0.91892 l -1.20372,0.0463 -2.38097,1.17618 c -1.30953,0.64689 -2.46584,1.26996 -2.56958,1.38459 -0.17117,0.18915 0.12197,0.82776 3.17117,6.90832 1.84788,3.68494 3.37787,6.78389 3.39999,6.88656 0.0265,0.12315 -0.23494,0.32322 -0.76865,0.58814 -0.89987,0.44667 -0.87621,0.43985 -1.07926,0.3107 z m -45.19887,-0.59014 c -2.58405,-0.72524 -4.37129,-3.05963 -4.3669,-5.70379 0.003,-1.65254 0.57555,-3.04149 1.73071,-4.19665 1.99668,-1.99667 5.03203,-2.30671 7.42723,-0.75862 1.79959,1.16313 2.78232,3.17264 2.62752,5.3728 -0.16075,2.28472 -1.65715,4.29426 -3.80803,5.11386 -0.92065,0.35081 -2.67617,0.43463 -3.61053,0.1724 z m 3.5082,-1.78025 c 0.94242,-0.46395 1.60294,-1.14387 2.06169,-2.12225 0.28328,-0.60413 0.32749,-0.86029 0.32476,-1.88151 -0.004,-1.38061 -0.22998,-1.9739 -1.13814,-2.984 -0.80131,-0.89125 -1.68268,-1.2844 -3.01733,-1.34597 -1.48493,-0.0685 -2.28663,0.23839 -3.31858,1.27033 -0.93254,0.93255 -1.29571,1.7851 -1.29571,3.04172 0,1.5848 0.55118,2.70377 1.79482,3.6437 0.8724,0.65937 1.55651,0.86074 2.76642,0.81434 0.84176,-0.0323 1.15236,-0.10662 1.82207,-0.43636 z m 9.08,1.77746 c -2.68576,-0.72331 -4.41292,-2.98978 -4.40557,-5.78122 0.005,-1.74092 0.63181,-3.13252 1.95838,-4.34493 1.21071,-1.10652 2.59131,-1.57611 4.33178,-1.4734 1.20631,0.0712 2.17838,0.41669 3.08995,1.09824 0.69642,0.52068 1.75201,1.79966 1.676,2.03065 -0.0251,0.0762 -0.33757,0.15546 -0.69447,0.17624 -0.61819,0.036 -0.67931,0.0106 -1.29121,-0.53968 -0.35327,-0.31762 -0.92482,-0.72601 -1.27011,-0.90753 -0.55706,-0.29285 -0.76803,-0.3302 -1.87219,-0.33139 -1.08278,-0.001 -1.33327,0.0407 -1.9288,0.32185 -0.93198,0.4401 -1.68943,1.21616 -2.1522,2.20508 -0.33233,0.71016 -0.3861,0.96522 -0.38455,1.82409 0.002,1.31447 0.41663,2.2781 1.36496,3.175 0.83645,0.79107 1.61088,1.13444 2.73715,1.21363 1.07989,0.0759 2.0158,-0.1696 2.8575,-0.74965 0.65047,-0.44826 1.63209,-1.72287 1.49619,-1.94276 -0.0583,-0.0943 -1.00334,-0.13774 -2.99972,-0.13774 h -2.91459 l -0.0743,-0.29606 c -0.0409,-0.16283 -0.0559,-0.45682 -0.0335,-0.6533 l 0.0408,-0.35725 3.84912,-0.0329 c 2.66146,-0.0228 3.87482,0.008 3.9324,0.10181 0.0458,0.0741 0.0323,0.42492 -0.03,0.77957 -0.57101,3.24925 -4.08919,5.48183 -7.28302,4.6217 z m 18.89476,-0.005 c -2.06285,-0.55473 -3.74993,-2.30121 -4.24311,-4.39253 -0.098,-0.41533 -0.13379,-1.09283 -0.0944,-1.78401 0.0563,-0.98743 0.12192,-1.2322 0.57601,-2.1486 1.09451,-2.20881 3.21876,-3.42883 5.69483,-3.2707 1.83687,0.11733 3.47411,1.05909 4.49275,2.58431 0.73694,1.10342 0.96558,1.90641 0.95668,3.35984 -0.009,1.4051 -0.26694,2.22995 -1.04638,3.34112 -1.40814,2.00744 -3.97837,2.94468 -6.3364,2.31057 z m 3.51638,-1.77639 c 0.93208,-0.45886 1.57327,-1.12453 2.05474,-2.13316 0.27791,-0.58222 0.3267,-0.85203 0.3267,-1.80698 0,-1.01758 -0.0383,-1.20025 -0.409,-1.95335 -0.75649,-1.53666 -2.0039,-2.34361 -3.7597,-2.43214 -1.47199,-0.0742 -2.27559,0.23333 -3.30851,1.26625 -0.95351,0.95351 -1.29572,1.77801 -1.29572,3.12186 0,1.16255 0.32324,2.06881 1.02037,2.86079 1.00308,1.13955 2.02876,1.57954 3.54087,1.5189 0.84178,-0.0337 1.15374,-0.10909 1.83025,-0.44217 z m 22.24241,1.77639 c -2.56116,-0.68874 -4.37129,-3.04975 -4.36689,-5.69591 0.008,-4.78618 5.28779,-7.58194 9.23686,-4.89105 0.92441,0.62989 1.82736,1.76568 2.20964,2.77947 0.33596,0.89094 0.45442,2.37328 0.26153,3.27269 -0.4717,2.19947 -2.32815,4.09798 -4.49553,4.5974 -0.77746,0.17916 -2.05078,0.15114 -2.84561,-0.0625 z m 3.49193,-1.76419 c 0.95858,-0.4721 1.61684,-1.14698 2.07797,-2.13042 0.28282,-0.60317 0.32766,-0.86195 0.32607,-1.88152 -0.002,-1.05122 -0.0404,-1.25578 -0.34999,-1.84669 -0.48823,-0.93192 -1.19562,-1.65423 -2.03816,-2.08113 -0.65464,-0.33171 -0.83545,-0.36532 -1.96536,-0.36532 -1.11039,0 -1.32062,0.0375 -1.95245,0.34771 -0.91155,0.44764 -1.86649,1.48372 -2.20745,2.39503 -0.31171,0.83311 -0.34017,2.09848 -0.0678,3.01559 0.23273,0.78368 0.80822,1.55841 1.60497,2.16059 0.85666,0.64747 1.55644,0.85643 2.75014,0.82123 0.84025,-0.0248 1.12897,-0.0937 1.82208,-0.43507 z m 9.44969,1.76419 c -2.56117,-0.68874 -4.37129,-3.04975 -4.3669,-5.69591 0.003,-1.65255 0.57555,-3.04149 1.73071,-4.19664 2.01724,-2.01725 5.08835,-2.31152 7.47698,-0.71645 0.85675,0.57212 1.86567,1.75557 1.86579,2.18855 7e-5,0.25499 -0.0585,0.27999 -0.6566,0.27999 -0.62344,0 -0.69132,-0.0333 -1.34116,-0.6577 -0.96484,-0.92711 -1.67555,-1.2381 -2.9797,-1.30386 -0.88133,-0.0444 -1.18225,-0.006 -1.80436,0.2277 -1.02275,0.38496 -2.15509,1.51081 -2.53077,2.51627 -0.36032,0.9643 -0.36505,2.31165 -0.0114,3.25676 0.33872,0.90532 1.2614,1.90575 2.18919,2.37367 0.65124,0.32845 0.84874,0.36646 1.91038,0.36769 1.08324,0.001 1.25337,-0.0327 1.99811,-0.39903 0.45581,-0.22419 1.04669,-0.6486 1.34268,-0.96439 0.50169,-0.53527 0.56315,-0.56401 1.20618,-0.56401 0.78058,0 0.85301,0.14622 0.42237,0.85259 -0.65288,1.07089 -2.26599,2.18885 -3.6024,2.49664 -0.78075,0.17982 -2.05307,0.15218 -2.84907,-0.0618 z m -91.293993,-0.20759 c -0.03282,-0.0856 -0.04506,-2.61944 -0.0272,-5.63086 l 0.03246,-5.47529 0.76329,-0.0367 c 0.525648,-0.0253 0.816218,0.0169 0.93329,0.13532 0.09349,0.0946 1.401941,1.94394 2.907646,4.10965 1.50571,2.16571 2.77965,3.93872 2.83098,3.94004 0.0513,10e-4 0.0942,-1.77552 0.0952,-3.94852 0.001,-2.17302 0.0485,-4.02434 0.10537,-4.11407 0.0685,-0.10804 0.30974,-0.15007 0.71361,-0.12445 l 0.61016,0.0387 v 5.59974 5.59973 l -0.62638,0.0367 c -0.52325,0.0307 -0.66827,-0.0106 -0.88083,-0.24888 -0.13994,-0.15706 -1.47438,-2.07747 -2.96542,-4.26759 -1.491045,-2.19012 -2.788594,-4.06403 -2.883448,-4.16425 -0.147178,-0.15549 -0.172459,0.44044 -0.172459,4.06519 0,2.33607 -0.03399,4.33598 -0.07553,4.44424 -0.09472,0.24682 -1.26827,0.28242 -1.360769,0.0413 z m 10.080363,0.002 c -0.0333,-0.0868 -0.0459,-2.62162 -0.028,-5.63303 l 0.0325,-5.47529 h 3.11096 3.11097 l 0.0387,0.61015 c 0.0256,0.40388 -0.0165,0.64513 -0.12444,0.71362 -0.0897,0.0569 -1.1851,0.10427 -2.43415,0.10533 l -2.271,0.002 v 1.60985 1.60984 l 2.24465,0.0389 c 2.45036,0.0426 2.4802,0.052 2.4802,0.78559 0,0.66871 -0.0244,0.67589 -2.42824,0.71256 l -2.23439,0.0341 -0.0345,1.77325 -0.0345,1.77325 2.27442,0.002 c 1.25093,10e-4 2.34783,0.0484 2.43756,0.10533 0.10799,0.0685 0.15006,0.30975 0.12444,0.71362 l -0.0387,0.61016 -3.08292,0.0333 c -2.39889,0.0259 -3.09635,-0.001 -3.14343,-0.12443 z m 31.60741,0 c -0.0333,-0.0868 -0.0459,-2.62162 -0.028,-5.63303 l 0.0325,-5.47529 3.07432,-0.0333 c 3.02286,-0.0327 3.07668,-0.0288 3.21568,0.23087 0.17866,0.33383 0.0493,1.06119 -0.20608,1.15921 -0.1064,0.0408 -1.19682,0.0742 -2.42316,0.0742 h -2.22972 v 1.6177 1.61771 h 2.12364 c 1.2259,0 2.22538,0.0544 2.36433,0.12882 0.25117,0.13442 0.33914,0.89239 0.13996,1.20592 -0.0693,0.10897 -0.73465,0.1623 -2.33132,0.18666 l -2.23439,0.0341 -0.0345,1.77056 -0.0345,1.77054 2.39595,0.0339 2.39594,0.0339 0.12025,0.34221 c 0.0774,0.2202 0.0774,0.4642 -4e-5,0.6844 l -0.12028,0.34221 -3.07999,0.0333 c -2.39652,0.0259 -3.09342,-0.001 -3.14049,-0.12443 z m 57.99018,0.005 c -0.0343,-0.0893 -0.0477,-2.6263 -0.0298,-5.63772 l 0.0325,-5.47529 h 0.62219 0.6222 l 0.0335,2.92045 c 0.0184,1.60623 0.0778,2.96472 0.13186,3.01883 0.0541,0.0541 0.59762,-0.42013 1.20779,-1.05387 0.61017,-0.63374 1.94077,-2.00621 2.95689,-3.04994 l 1.84749,-1.89769 h 0.79995 c 0.55705,0 0.79995,0.0473 0.7999,0.15555 -3e-5,0.0856 -1.15452,1.35007 -2.56553,2.81005 l -2.56547,2.6545 0.36757,0.39424 c 0.20217,0.21683 1.35753,1.42756 2.56749,2.6905 1.20995,1.26295 2.18059,2.35489 2.15697,2.42656 -0.0236,0.0717 -0.38119,0.14678 -0.79463,0.16692 l -0.7517,0.0367 -2.25944,-2.33411 -2.25944,-2.33413 -0.77436,0.7741 -0.77437,0.77411 -0.0622,1.52339 -0.0622,1.52339 -0.59236,0.038 c -0.40141,0.0257 -0.61243,-0.0143 -0.65465,-0.12444 z m 11.07239,-0.007 c -0.0328,-0.0856 -0.045,-2.61944 -0.0271,-5.63086 l 0.0324,-5.47529 3.07432,-0.0333 c 3.02287,-0.0327 3.07668,-0.0288 3.21568,0.23087 0.21261,0.39724 0.0454,1.06621 -0.28891,1.15582 -0.1523,0.0408 -1.24287,0.075 -2.42348,0.0759 l -2.14657,10e-4 v 1.6177 1.61771 h 2.12363 c 1.22592,0 2.22539,0.0544 2.36435,0.12882 0.25116,0.13441 0.33913,0.89239 0.13995,1.20591 -0.0692,0.10898 -0.73464,0.1623 -2.33132,0.18666 l -2.23438,0.0341 -0.0346,1.77325 -0.0346,1.77325 h 2.29664 c 1.92194,0 2.32855,0.0319 2.49219,0.19555 0.22428,0.22429 0.25468,0.70584 0.0668,1.05703 -0.12196,0.22791 -0.29071,0.24069 -3.17709,0.24069 -2.32383,0 -3.06244,-0.0369 -3.10794,-0.15554 z m 12.09655,0.0725 c -0.0456,-0.0456 -0.083,-2.25751 -0.083,-4.91531 v -4.83237 l -1.64881,-0.001 c -2.23663,-0.002 -2.22969,2.5e-4 -2.18362,-0.79211 l 0.037,-0.63723 h 4.54201 4.54202 l 0.0396,0.55546 c 0.0584,0.81996 -0.0761,0.87558 -2.11657,0.87558 h -1.71837 v 4.766 c 0,3.54098 -0.0384,4.80438 -0.14932,4.91533 -0.15741,0.1574 -1.11931,0.20803 -1.26098,0.0664 z M 170.63356,212.91 c -0.21801,-0.33976 -0.35983,-0.67689 -0.31515,-0.74918 0.14122,-0.2285 3.6924,-3.36176 3.81015,-3.36176 0.16842,0 1.2308,1.70857 1.2308,1.97942 0,0.16949 -0.56831,0.58424 -2.04442,1.49199 -1.12444,0.69149 -2.09855,1.25725 -2.1647,1.25725 -0.0661,0 -0.29866,-0.27798 -0.51668,-0.61772 z m -2.33609,-2.38312 c -0.22243,-0.14245 -0.40442,-0.31228 -0.40442,-0.3774 0,-0.31076 2.44101,-4.45088 2.67781,-4.54175 0.19247,-0.0738 1.65855,0.8816 1.76053,1.14736 0.0624,0.16264 -1.68948,2.39331 -2.80246,3.56834 -0.5069,0.53515 -0.67114,0.56228 -1.23146,0.20345 z m -3.48428,-1.24485 c -0.2273,-0.0656 -0.40442,-0.19948 -0.40442,-0.30562 0,-0.3328 0.75399,-5.07931 0.81684,-5.14215 0.10681,-0.10686 2.18101,0.19767 2.32457,0.34123 0.1016,0.10157 -0.0641,0.69357 -0.62301,2.22545 -1.09287,2.99547 -1.10558,3.02222 -1.43124,3.00909 -0.15307,-0.006 -0.46031,-0.0638 -0.68274,-0.128 z"
       style="fill:#a0a0a0;stroke-width:0.1244386" />
    <path
       inkscape:connector-curvature="0"
       id="path424"
       d="m 10.327951,219.67728 c -0.08029,-0.051 -0.5923613,-1.01617 -1.1379433,-2.14467 -0.545582,-1.12849 -2.2577,-4.62579 -3.804705,-7.77179 -2.247712,-4.57093 -2.781539,-5.75116 -2.657434,-5.87524 0.209833,-0.20979 6.466833,-3.19481 7.245205,-3.45646 1.4616673,-0.49135 3.3729633,-0.35514 4.7810473,0.34072 0.827203,0.40881 1.944821,1.49924 2.317663,2.2613 1.29488,2.64664 0.720344,5.52696 -1.496596,7.50288 -0.790154,0.70427 -2.584937,1.71024 -2.861742,1.60402 -0.353336,-0.13559 -4.9149513,-3.99714 -4.9149513,-4.16067 0,-0.24717 1.359662,-4.03281 1.516162,-4.22139 0.199567,-0.24046 3.9978553,-0.22563 4.1987193,0.0165 0.08903,0.10733 0.131217,0.50623 0.108564,1.02662 l -0.03705,0.85115 -1.244386,0.063 c -0.684412,0.0347 -1.312928,0.1071 -1.396702,0.16089 -0.171595,0.11027 -0.532096,1.23052 -0.532096,1.65351 0,0.20829 0.30026,0.48986 1.213275,1.13779 1.574942,1.11767 1.464118,1.06659 1.864621,0.85948 0.491469,-0.25415 1.570054,-1.42712 1.912148,-2.07947 0.635715,-1.21228 0.27072,-3.0592 -0.820151,-4.15006 -0.763343,-0.76335 -1.408532,-0.97339 -2.822625,-0.91892 l -1.203723,0.0463 -2.3809673,1.17618 c -1.309533,0.64689 -2.465844,1.26996 -2.56958,1.38459 -0.171178,0.18915 0.121966,0.82776 3.171166,6.90832 1.8478773,3.68494 3.3778713,6.78389 3.3999863,6.88656 0.02653,0.12315 -0.234941,0.32322 -0.768642,0.58814 -0.899876,0.44667 -0.876213,0.43985 -1.079263,0.3107 z m -45.489182,-0.81034 c -0.966758,-0.33751 -2.064109,-1.05359 -2.598633,-1.69572 -0.2042,-0.24532 -0.577525,-0.86091 -0.829611,-1.36798 -0.419864,-0.84457 -0.462196,-1.02737 -0.504273,-2.17769 -0.03795,-1.03722 3.73e-4,-1.39274 0.219977,-2.04324 0.626206,-1.8546 1.902748,-3.13444 3.747664,-3.75735 1.167503,-0.3942 2.979518,-0.31847 4.033572,0.16856 1.677207,0.77495 2.809404,2.04338 3.317721,3.7169 0.336162,1.10674 0.281447,2.66889 -0.13093,3.73809 -0.560171,1.4524 -1.882947,2.77645 -3.336603,3.33983 -1.101026,0.4267 -2.822838,0.46124 -3.918884,0.0787 z m 3.661387,-1.36173 c 0.980107,-0.44872 1.765266,-1.21516 2.246755,-2.19319 0.365668,-0.74277 0.404417,-0.92906 0.404417,-1.94406 0,-0.95755 -0.04902,-1.22715 -0.333503,-1.83411 -0.467034,-0.99644 -1.312463,-1.85668 -2.250551,-2.28996 -0.682539,-0.31526 -0.917885,-0.35832 -1.957955,-0.35824 -0.954124,7e-5 -1.296206,0.0528 -1.773344,0.27303 -0.821063,0.37908 -1.848842,1.39121 -2.279503,2.24481 -0.323467,0.64114 -0.362125,0.84324 -0.363351,1.89964 -0.0013,1.04162 0.04123,1.2744 0.356951,1.95795 0.537424,1.16355 1.557562,2.04274 2.87708,2.47958 0.785101,0.2599 2.233383,0.14894 3.073004,-0.23545 z m 9.262291,1.50837 c -0.873654,-0.20516 -2.169553,-0.98285 -2.815535,-1.68967 -3.433663,-3.75696 -0.841087,-9.74496 4.219206,-9.74496 1.539377,0 2.811409,0.46681 3.838861,1.40878 0.676807,0.62049 1.2966,1.44151 1.202794,1.59329 -0.03702,0.06 -0.321755,0.10886 -0.632755,0.10886 -0.498194,0 -0.641641,-0.0689 -1.205933,-0.57899 -0.352261,-0.31844 -0.948462,-0.72443 -1.324888,-0.90218 -0.587127,-0.27724 -0.852451,-0.32319 -1.86658,-0.32319 -1.054327,0 -1.262174,0.0393 -1.922019,0.36327 -0.907788,0.44572 -1.685471,1.20405 -2.136666,2.08351 -0.444858,0.8671 -0.5597,2.48481 -0.243896,3.43561 0.763824,2.29966 3.315852,3.64076 5.623856,2.95535 1.158765,-0.34412 2.552944,-1.5821 2.840725,-2.52248 l 0.08569,-0.27999 h -2.816434 c -1.703472,0 -2.911552,-0.0509 -3.057133,-0.12881 -0.275908,-0.14766 -0.334536,-0.84752 -0.09137,-1.09068 0.1092,-0.10922 1.108265,-0.14933 3.717922,-0.14933 2.954762,0 3.594183,0.0308 3.717362,0.17926 0.116217,0.14003 0.105543,0.34795 -0.04877,0.95034 -0.550944,2.15055 -2.254219,3.86323 -4.314337,4.33816 -0.660596,0.1523 -2.108992,0.14906 -2.770085,-0.006 z m 18.7121357,-0.0965 c -1.715545,-0.55465 -2.83349,-1.51955 -3.578745,-3.08885 -0.409976,-0.8633 -0.464243,-1.09486 -0.5072,-2.16439 -0.09099,-2.2653 0.736681,-3.95551 2.514931,-5.13585 1.117237,-0.74157 2.049249,-0.98487 3.527596,-0.92084 1.16283701,0.0503 1.35335901,0.0952 2.21687601,0.52201 1.08413499,0.5358 2.06432899,1.44563 2.57324099,2.3885 0.955706,1.77065 0.944726,4.01134 -0.02799,5.71147 -0.431619,0.75441 -1.61344,1.91799 -2.30668699,2.27112 -1.314908,0.66979 -3.10617501,0.83902 -4.41202201,0.41683 z m 3.65634001,-1.49101 c 0.94315899,-0.46432 1.70272399,-1.25171 2.17661999,-2.25636 0.272323,-0.57733 0.323144,-0.86006 0.324793,-1.80698 0.0018,-1.0171 -0.03603,-1.19974 -0.402459,-1.94405 -0.479457,-0.97392 -1.26047399,-1.73856 -2.24921699,-2.20207 -0.609368,-0.28565 -0.868316,-0.33105 -1.88837501,-0.33105 -1.036288,0 -1.267713,0.042 -1.875416,0.34046 -0.899363,0.44168 -1.757068,1.29621 -2.193896,2.18576 -0.312322,0.636 -0.347789,0.83758 -0.343716,1.95357 0.0053,1.46006 0.225024,2.07366 1.071098,2.99155 1.010288,1.09602 2.146009,1.57005 3.613869,1.50832 0.77358401,-0.0326 1.11121501,-0.1165 1.76669901,-0.43915 z m 21.94960329,1.43391 c -1.627241,-0.55457 -2.734987,-1.55354 -3.478998,-3.13737 -0.355569,-0.75691 -0.411671,-1.01822 -0.452665,-2.10839 -0.03863,-1.02727 -3.72e-4,-1.38179 0.219122,-2.03191 0.626008,-1.85402 1.900774,-3.13243 3.747665,-3.75839 1.15212,-0.39048 2.975429,-0.31169 4.037348,0.17448 2.224843,1.01856 3.546691,3.01882 3.546691,5.36695 0,3.95123 -3.898471,6.76264 -7.619163,5.49463 z m 3.661386,-1.35477 c 0.980107,-0.44872 1.765266,-1.21516 2.246755,-2.19319 0.365878,-0.74321 0.404417,-0.92872 0.404417,-1.94667 0,-1.01796 -0.03854,-1.20347 -0.404417,-1.94667 -0.479457,-0.97392 -1.260475,-1.73856 -2.249217,-2.20207 -0.610676,-0.28627 -0.866127,-0.33082 -1.888375,-0.3293 -1.034181,10e-4 -1.269583,0.0444 -1.88049,0.3431 -0.836644,0.40897 -1.874955,1.46551 -2.254799,2.2944 -0.221907,0.48423 -0.274048,0.82977 -0.277738,1.84054 -0.0041,1.12471 0.02918,1.3102 0.346056,1.92879 0.597791,1.16696 1.61255,2.03326 2.858179,2.44005 0.814981,0.26615 2.249623,0.16016 3.099629,-0.22898 z m 9.280228,1.35477 c -1.627241,-0.55457 -2.734986,-1.55354 -3.478998,-3.13737 -0.355569,-0.75691 -0.411671,-1.01822 -0.452663,-2.10839 -0.03885,-1.03337 -8.71e-4,-1.3804 0.224039,-2.04651 0.547775,-1.62238 1.515342,-2.70224 3.113838,-3.47523 0.913759,-0.44186 0.964539,-0.4513 2.426553,-0.4513 1.368184,0 1.554323,0.0286 2.22223,0.34147 1.01963,0.47763 1.858437,1.12296 2.375883,1.82787 0.6104,0.83152 0.58681,1.00383 -0.13741,1.00383 -0.525022,0 -0.641116,-0.0587 -1.244056,-0.62892 -0.365749,-0.34592 -0.987131,-0.77989 -1.380849,-0.9644 -0.62133,-0.29118 -0.871944,-0.33524 -1.898018,-0.33372 -1.034181,10e-4 -1.269583,0.0444 -1.880489,0.3431 -0.836645,0.40897 -1.874956,1.46551 -2.2548,2.2944 -0.221907,0.48423 -0.274046,0.82977 -0.277738,1.84054 -0.0041,1.12427 0.02926,1.31045 0.345714,1.92879 0.480948,0.9398 1.339042,1.77895 2.249216,2.1996 0.656121,0.30321 0.913917,0.3514 1.880317,0.3514 0.956329,0 1.224529,-0.049 1.835798,-0.33547 0.393718,-0.18451 1.0151,-0.6185 1.380849,-0.96441 0.60294,-0.57023 0.719034,-0.62892 1.244056,-0.62892 0.4925,0 0.57906,0.0366 0.57906,0.24432 0,0.32476 -1.393517,1.80219 -2.078411,2.20357 -1.405982,0.82396 -3.266537,1.01635 -4.794121,0.49575 z m -90.847393,-0.0342 c -0.04885,-0.0488 -0.08882,-2.54336 -0.08882,-5.54337 v -5.45455 h 0.744218 c 0.88048,0 0.423348,-0.52861 4.082263,4.7205 1.356528,1.94608 2.532673,3.56042 2.613655,3.58741 0.110962,0.037 0.15532,-0.97266 0.180038,-4.09831 l 0.0328,-4.14739 0.592383,-0.038 0.592382,-0.038 -0.03241,5.51328 -0.03241,5.51327 h -0.620859 -0.620855 l -2.987864,-4.38188 c -1.643325,-2.41004 -3.057144,-4.38395 -3.14182,-4.38647 -0.118891,-0.004 -0.161404,0.99449 -0.186657,4.38189 l -0.0327,4.38646 -0.50227,0.037 c -0.276247,0.0203 -0.542235,-0.004 -0.591083,-0.0519 z m 10.073672,-0.006 c -0.04563,-0.0456 -0.08296,-2.5375 -0.08296,-5.53751 v -5.45456 h 3.035431 c 2.653125,0 3.044946,0.0248 3.110966,0.19683 0.126908,0.33072 0.08448,0.76077 -0.08928,0.90498 -0.103074,0.0856 -1.023681,0.14952 -2.457662,0.17079 l -2.292849,0.034 v 1.67991 1.67992 l 2.168579,0.0341 c 1.341796,0.0212 2.231353,0.0863 2.333225,0.17078 0.205495,0.17054 0.215538,0.87657 0.01532,1.07678 -0.104979,0.10498 -0.808208,0.14934 -2.36766,0.14934 h -2.218334 l 0.03443,1.83546 0.03443,1.83547 2.292849,0.034 c 1.433981,0.0213 2.354585,0.0852 2.457662,0.17078 0.173763,0.14421 0.21619,0.57427 0.08928,0.90499 -0.06594,0.17183 -0.45053,0.19684 -3.028006,0.19684 -1.62386,0 -2.989805,-0.0374 -3.035432,-0.083 z m 31.609564,0.002 c -0.04681,-0.0468 -0.08512,-2.54065 -0.08512,-5.54185 v -5.45673 l 3.079855,0.0333 3.0798547,0.0333 0.03741,0.44619 c 0.02244,0.26768 -0.03106,0.50299 -0.133704,0.58819 -0.110963,0.092 -0.977136,0.15396 -2.4639547,0.176 l -2.292848,0.034 v 1.67991 1.67992 l 2.302114,0.0694 c 1.2661627,0.0381 2.3161127,0.0802 2.3332227,0.0933 0.110951,0.0856 7.47e-4,1.01418 -0.133534,1.12566 -0.101876,0.0845 -0.991428,0.14966 -2.3332237,0.17079 l -2.168579,0.0341 v 1.80437 1.80435 l 2.393746,0.0337 2.3937437,0.0339 0.07423,0.29575 c 0.04083,0.16268 0.05559,0.42745 0.03281,0.58841 l -0.04143,0.29264 -2.9947347,0.0333 c -1.647106,0.0183 -3.033041,-0.005 -3.079856,-0.0519 z m 57.854359,-0.11603 c -0.0986,-0.25705 -0.0986,-10.4243 0,-10.68136 0.10559,-0.27515 1.11218,-0.27515 1.21776,0 0.0416,0.10827 0.0755,1.4802 0.0755,3.04875 0,1.56855 0.0461,2.85191 0.10236,2.85191 0.0563,0 1.43305,-1.37194 3.05946,-3.04875 l 2.95709,-3.04874 h 0.7463 c 0.41694,0 0.72799,0.0521 0.70481,0.11809 -0.0228,0.065 -1.13673,1.25489 -2.47537,2.64432 -1.33864,1.38942 -2.47279,2.59122 -2.52035,2.67066 -0.0521,0.0871 0.9234,1.19572 2.45751,2.79275 1.39918,1.45659 2.51604,2.69353 2.4819,2.74877 -0.0341,0.0553 -0.3619,0.1004 -0.72835,0.1004 h -0.66624 l -2.24613,-2.33323 -2.24612,-2.33322 -0.81342,0.80525 -0.81342,0.80526 v 1.33113 c 0,0.73213 -0.034,1.41971 -0.0755,1.52797 -0.0526,0.13713 -0.23733,0.19684 -0.60888,0.19684 -0.37155,0 -0.55626,-0.0597 -0.60888,-0.19684 z m 11.20906,0.11603 c -0.0468,-0.0468 -0.0851,-2.54065 -0.0851,-5.54185 v -5.45673 l 3.07986,0.0333 3.07986,0.0333 0.0374,0.44619 c 0.0225,0.26768 -0.031,0.50299 -0.13371,0.58819 -0.11098,0.092 -0.97713,0.15396 -2.46395,0.176 l -2.29286,0.034 v 1.67991 1.67992 l 2.30212,0.0694 c 1.26617,0.0381 2.31611,0.0802 2.33323,0.0933 0.11097,0.0856 7.4e-4,1.01418 -0.13354,1.12566 -0.10192,0.0845 -0.99143,0.14966 -2.33322,0.17079 l -2.16859,0.0341 v 1.80437 1.80435 l 2.29286,0.034 c 1.48682,0.0221 2.353,0.0839 2.46395,0.176 0.10263,0.0852 0.15614,0.32053 0.13371,0.5882 l -0.0374,0.44618 -2.99474,0.0333 c -1.64711,0.0183 -3.03304,-0.005 -3.07985,-0.0518 z m 12.04668,-0.0676 c -0.0335,-0.0895 -0.075,-2.29067 -0.0922,-4.89143 l -0.0313,-4.72866 -1.83967,-0.0344 c -1.80587,-0.0339 -1.84216,-0.04 -1.9757,-0.33303 -0.0749,-0.16421 -0.0999,-0.44268 -0.0556,-0.61884 l 0.0804,-0.32027 h 4.48423 4.48425 l -0.038,0.59108 -0.038,0.59108 -1.86657,0.0622 -1.86658,0.0622 -0.0622,4.85309 -0.0622,4.85311 -0.53,0.0383 c -0.35166,0.0254 -0.5505,-0.0165 -0.59091,-0.12444 z m -48.465,-16.89539 c -0.218016,-0.33976 -0.359835,-0.67689 -0.315153,-0.74918 0.141221,-0.2285 3.692398,-3.36176 3.810154,-3.36176 0.168418,0 1.230799,1.70857 1.230799,1.97942 0,0.16949 -0.568315,0.58424 -2.044424,1.49199 -1.124434,0.69149 -2.09855,1.25725 -2.164703,1.25725 -0.06615,0 -0.298656,-0.27798 -0.516673,-0.61772 z m -2.33609,-2.38312 c -0.222435,-0.14245 -0.404426,-0.31228 -0.404426,-0.3774 0,-0.31076 2.441017,-4.45088 2.677811,-4.54175 0.192473,-0.0738 1.658555,0.8816 1.760537,1.14736 0.06241,0.16264 -1.689485,2.39331 -2.802468,3.56834 -0.506898,0.53515 -0.671134,0.56228 -1.231454,0.20345 z M 12.68271,198.2308 c -0.227301,-0.0656 -0.404425,-0.19948 -0.404425,-0.30562 0,-0.3328 0.753992,-5.07931 0.816844,-5.14215 0.106813,-0.10686 2.181008,0.19767 2.324568,0.34123 0.101605,0.10157 -0.06412,0.69357 -0.623006,2.22545 -1.092868,2.99547 -1.105586,3.02222 -1.431238,3.00909 -0.153074,-0.006 -0.460309,-0.0638 -0.682743,-0.128 z"
       style="fill:#d25c62;stroke-width:0.1244386" />
    <path
       inkscape:connector-curvature="0"
       id="path422"
       d="m 44.483753,207.63864 c -0.607979,-1.24905 -2.30277,-4.70689 -3.766205,-7.68408 -1.722653,-3.50453 -2.624659,-5.46991 -2.55831,-5.57425 0.139723,-0.21977 6.136111,-3.0755 7.091266,-3.37718 2.022754,-0.63886 4.099389,-0.31333 5.597889,0.87753 1.089714,0.866 1.821686,2.30596 1.985121,3.90521 0.175602,1.71831 -0.536766,3.51104 -1.909654,4.80577 -0.806391,0.76049 -2.389046,1.72725 -2.827616,1.72725 -0.213103,0 -4.490488,-3.44958 -4.75268,-3.83288 -0.116841,-0.17083 -0.01187,-0.58925 0.547266,-2.18136 0.587091,-1.6717 0.738739,-1.98781 1.001582,-2.08774 0.170358,-0.0648 1.072033,-0.10227 2.003726,-0.0832 l 1.693985,0.0344 0.110692,0.44789 c 0.06088,0.24634 0.07234,0.65233 0.02548,0.90218 l -0.08523,0.45429 h -1.235877 c -1.432899,0 -1.439429,0.005 -1.808983,1.34573 -0.185513,0.6731 -0.191586,0.81016 -0.04237,0.95595 0.419623,0.40996 2.667747,1.92923 2.854761,1.92923 0.291436,0 1.107095,-0.61644 1.665933,-1.25906 1.131665,-1.3013 1.370629,-2.68825 0.710833,-4.12564 -0.844508,-1.8398 -2.473076,-2.60931 -4.579336,-2.16374 -1.267506,0.26813 -5.642199,2.47052 -5.642199,2.84051 0,0.14107 1.51193,3.25402 3.359842,6.91769 1.847914,3.66366 3.359843,6.7117 3.359843,6.77346 0,0.13289 -1.220546,0.72002 -1.500479,0.72178 -0.128517,7.5e-4 -0.566515,-0.76435 -1.299286,-2.26979 z m -44.390874,1.61289 c -0.966758,-0.33751 -2.064109,-1.05359 -2.598633,-1.69572 -0.2042,-0.24532 -0.577525,-0.86091 -0.829611,-1.36798 -0.419864,-0.84457 -0.462196,-1.02737 -0.504273,-2.17769 -0.03795,-1.03722 3.73e-4,-1.39274 0.219977,-2.04324 0.626206,-1.8546 1.902748,-3.13444 3.747664,-3.75735 1.167503,-0.3942 2.979518,-0.31847 4.033572,0.16856 1.677207,0.77495 2.809404,2.04338 3.317721,3.7169 0.336162,1.10674 0.281447,2.66889 -0.13093,3.73809 -0.560171,1.4524 -1.882947,2.77645 -3.336603,3.33983 -1.101026,0.4267 -2.822838,0.46124 -3.918884,0.0787 z m 3.661387,-1.36173 c 0.980107,-0.44872 1.765266,-1.21516 2.246755,-2.19319 0.365668,-0.74277 0.404417,-0.92906 0.404417,-1.94406 0,-0.95755 -0.04902,-1.22715 -0.333503,-1.83411 -0.467034,-0.99644 -1.312463,-1.85668 -2.250551,-2.28996 -0.682539,-0.31526 -0.917885,-0.35832 -1.957955,-0.35824 -0.954124,7e-5 -1.296206,0.0528 -1.773344,0.27303 -0.821063,0.37908 -1.848842,1.39121 -2.279503,2.24481 -0.323467,0.64114 -0.362125,0.84324 -0.363351,1.89964 -0.0013,1.04162 0.04123,1.2744 0.356951,1.95795 0.537424,1.16355 1.557562,2.04274 2.87708,2.47958 0.785101,0.2599 2.233383,0.14894 3.073004,-0.23545 z m 9.262291,1.50837 c -0.873654,-0.20516 -2.169553,-0.98285 -2.815535,-1.68967 -3.433663,-3.75696 -0.841087,-9.74496 4.219206,-9.74496 1.539377,0 2.811409,0.46681 3.838861,1.40878 0.676807,0.62049 1.2966,1.44151 1.202794,1.59329 -0.03702,0.06 -0.321755,0.10886 -0.632755,0.10886 -0.498194,0 -0.641641,-0.0689 -1.205933,-0.57899 -0.352261,-0.31844 -0.948462,-0.72443 -1.324888,-0.90218 -0.587127,-0.27724 -0.852451,-0.32319 -1.86658,-0.32319 -1.054327,0 -1.262174,0.0393 -1.922019,0.36327 -0.907788,0.44572 -1.685471,1.20405 -2.136666,2.08351 -0.444858,0.8671 -0.5597,2.48481 -0.243896,3.43561 0.763824,2.29966 3.315852,3.64076 5.623856,2.95535 1.158765,-0.34412 2.552944,-1.5821 2.840725,-2.52248 l 0.08569,-0.27999 h -2.816434 c -1.703472,0 -2.911552,-0.0509 -3.057133,-0.12881 -0.275908,-0.14766 -0.334536,-0.84752 -0.09137,-1.09068 0.1092,-0.10922 1.108265,-0.14933 3.717922,-0.14933 2.954762,0 3.594183,0.0308 3.717362,0.17926 0.116217,0.14003 0.105543,0.34795 -0.04877,0.95034 -0.550944,2.15055 -2.254219,3.86323 -4.314337,4.33816 -0.660596,0.1523 -2.108992,0.14906 -2.770085,-0.006 z m 18.712136,-0.0965 c -1.715545,-0.55465 -2.83349,-1.51955 -3.578745,-3.08885 -0.409976,-0.8633 -0.464243,-1.09486 -0.5072,-2.16439 -0.09099,-2.2653 0.736681,-3.95551 2.514931,-5.13585 1.117237,-0.74157 2.049249,-0.98487 3.527596,-0.92084 1.162837,0.0503 1.353359,0.0952 2.216876,0.52201 1.084135,0.5358 2.064329,1.44563 2.573241,2.3885 0.955706,1.77065 0.944726,4.01134 -0.02799,5.71147 -0.431619,0.75441 -1.61344,1.91799 -2.306687,2.27112 -1.314908,0.66979 -3.106175,0.83902 -4.412022,0.41683 z m 3.65634,-1.49101 c 0.943159,-0.46432 1.702724,-1.25171 2.17662,-2.25636 0.272323,-0.57733 0.323144,-0.86006 0.324793,-1.80698 0.0018,-1.0171 -0.03603,-1.19974 -0.402459,-1.94405 -0.479457,-0.97392 -1.260474,-1.73856 -2.249217,-2.20207 -0.609368,-0.28565 -0.868316,-0.33105 -1.888375,-0.33105 -1.036288,0 -1.267713,0.042 -1.875416,0.34046 -0.899363,0.44168 -1.757068,1.29621 -2.193896,2.18576 -0.312322,0.636 -0.347789,0.83758 -0.343716,1.95357 0.0053,1.46006 0.225024,2.07366 1.071098,2.99155 1.010288,1.09602 2.146009,1.57005 3.613869,1.50832 0.773584,-0.0326 1.111215,-0.1165 1.766699,-0.43915 z m 21.949603,1.43391 c -1.627241,-0.55457 -2.734987,-1.55354 -3.478998,-3.13737 -0.355569,-0.75691 -0.411671,-1.01822 -0.452665,-2.10839 -0.03863,-1.02727 -3.72e-4,-1.38179 0.219122,-2.03191 0.626008,-1.85402 1.900774,-3.13243 3.747665,-3.75839 1.15212,-0.39048 2.975429,-0.31169 4.037348,0.17448 2.224843,1.01856 3.546691,3.01882 3.546691,5.36695 0,3.95123 -3.898471,6.76264 -7.619163,5.49463 z m 3.661386,-1.35477 c 0.980107,-0.44872 1.765266,-1.21516 2.246755,-2.19319 0.365878,-0.74321 0.404417,-0.92872 0.404417,-1.94667 0,-1.01796 -0.03854,-1.20347 -0.404417,-1.94667 -0.479457,-0.97392 -1.260475,-1.73856 -2.249217,-2.20207 -0.610676,-0.28627 -0.866127,-0.33082 -1.888375,-0.3293 -1.034181,0.001 -1.269583,0.0444 -1.88049,0.3431 -0.836644,0.40897 -1.874955,1.46551 -2.254799,2.2944 -0.221907,0.48423 -0.274048,0.82977 -0.277738,1.84054 -0.0041,1.12471 0.02918,1.3102 0.346056,1.92879 0.597791,1.16696 1.61255,2.03326 2.858179,2.44005 0.814981,0.26615 2.249623,0.16016 3.099629,-0.22898 z m 9.280228,1.35477 c -1.627241,-0.55457 -2.734986,-1.55354 -3.478998,-3.13737 -0.355569,-0.75691 -0.411671,-1.01822 -0.452663,-2.10839 -0.03885,-1.03337 -8.71e-4,-1.3804 0.224039,-2.04651 0.547775,-1.62238 1.515342,-2.70224 3.113838,-3.47523 0.913759,-0.44186 0.964539,-0.4513 2.426553,-0.4513 1.368188,0 1.554318,0.0286 2.222228,0.34147 1.01963,0.47763 1.85844,1.12296 2.37588,1.82787 0.6104,0.83152 0.58681,1.00383 -0.13741,1.00383 -0.52502,0 -0.64111,-0.0587 -1.24405,-0.62892 -0.36575,-0.34592 -0.98713,-0.77989 -1.38085,-0.9644 -0.62133,-0.29118 -0.87194,-0.33524 -1.898018,-0.33372 -1.034181,0.001 -1.269583,0.0444 -1.880489,0.3431 -0.836645,0.40897 -1.874956,1.46551 -2.2548,2.2944 -0.221907,0.48423 -0.274046,0.82977 -0.277738,1.84054 -0.0041,1.12427 0.02926,1.31045 0.345714,1.92879 0.480948,0.9398 1.339042,1.77895 2.249216,2.1996 0.656121,0.30321 0.913917,0.3514 1.880317,0.3514 0.956328,0 1.224528,-0.049 1.835798,-0.33547 0.39372,-0.18451 1.0151,-0.6185 1.38085,-0.96441 0.60294,-0.57023 0.71903,-0.62892 1.24405,-0.62892 0.4925,0 0.57906,0.0366 0.57906,0.24432 0,0.32476 -1.39351,1.80219 -2.07841,2.20357 -1.40598,0.82396 -3.266533,1.01635 -4.794117,0.49575 z m -90.847394,-0.0342 c -0.04885,-0.0488 -0.08882,-2.54336 -0.08882,-5.54337 v -5.45455 h 0.744219 c 0.88048,0 0.423348,-0.52861 4.082263,4.7205 1.356527,1.94608 2.532673,3.56042 2.613655,3.58741 0.110962,0.037 0.15532,-0.97266 0.180038,-4.09831 l 0.0328,-4.14739 0.592383,-0.038 0.592382,-0.038 -0.03241,5.51328 -0.03241,5.51327 h -0.620859 -0.620855 l -2.987864,-4.38188 c -1.643325,-2.41004 -3.057144,-4.38395 -3.14182,-4.38647 -0.118892,-0.004 -0.161404,0.99449 -0.186658,4.38189 l -0.0327,4.38646 -0.502269,0.037 c -0.276247,0.0203 -0.542235,-0.004 -0.591083,-0.0519 z m 10.073673,-0.006 c -0.04563,-0.0456 -0.08296,-2.5375 -0.08296,-5.53751 V 198.2123 H -7.545 c 2.653125,0 3.044946,0.0248 3.110966,0.19683 0.126908,0.33072 0.08448,0.76077 -0.08928,0.90498 -0.103074,0.0856 -1.023681,0.14952 -2.457662,0.17079 l -2.292849,0.034 v 1.67991 1.67992 l 2.168579,0.0341 c 1.341796,0.0212 2.231353,0.0863 2.333225,0.17078 0.205495,0.17054 0.215538,0.87657 0.01532,1.07678 -0.104979,0.10498 -0.808208,0.14934 -2.36766,0.14934 h -2.218334 l 0.03443,1.83546 0.03443,1.83547 2.292849,0.034 c 1.433981,0.0213 2.354585,0.0852 2.457662,0.17078 0.173763,0.14421 0.21619,0.57427 0.08928,0.90499 -0.06594,0.17183 -0.45053,0.19684 -3.028006,0.19684 -1.62386,0 -2.989805,-0.0374 -3.035432,-0.083 z m 31.609564,0.002 c -0.04681,-0.0468 -0.08512,-2.54065 -0.08512,-5.54185 v -5.45673 l 3.079855,0.0333 3.079855,0.0333 0.03741,0.44619 c 0.02244,0.26768 -0.03106,0.50299 -0.133704,0.58819 -0.110963,0.092 -0.977136,0.15396 -2.463955,0.176 l -2.292848,0.034 v 1.67991 1.67992 l 2.302114,0.0694 c 1.266163,0.0381 2.316113,0.0802 2.333223,0.0933 0.110951,0.0856 7.47e-4,1.01418 -0.133534,1.12566 -0.101876,0.0845 -0.991428,0.14966 -2.333224,0.17079 l -2.168579,0.0341 v 1.80437 1.80435 l 2.393746,0.0337 2.393744,0.0339 0.07423,0.29575 c 0.04083,0.16268 0.05559,0.42745 0.03281,0.58841 l -0.04143,0.29264 -2.994735,0.0333 c -1.647106,0.0183 -3.033041,-0.005 -3.079856,-0.0519 z m 57.854354,-0.11603 c -0.0986,-0.25705 -0.0986,-10.4243 0,-10.68136 0.10559,-0.27515 1.11218,-0.27515 1.21776,0 0.0416,0.10827 0.0755,1.4802 0.0755,3.04875 0,1.56855 0.0461,2.85191 0.10236,2.85191 0.0563,0 1.43305,-1.37194 3.05946,-3.04875 l 2.95709,-3.04874 h 0.7463 c 0.41694,0 0.72799,0.0521 0.70481,0.11809 -0.0228,0.065 -1.13673,1.25489 -2.47537,2.64432 -1.33864,1.38942 -2.47279,2.59122 -2.52035,2.67066 -0.0521,0.0871 0.9234,1.19572 2.45751,2.79275 1.39918,1.45659 2.51604,2.69353 2.4819,2.74877 -0.0341,0.0553 -0.3619,0.1004 -0.72835,0.1004 h -0.66624 l -2.24613,-2.33323 -2.24612,-2.33322 -0.81342,0.80525 -0.81342,0.80526 v 1.33113 c 0,0.73213 -0.034,1.41971 -0.0755,1.52797 -0.0526,0.13713 -0.23733,0.19684 -0.60888,0.19684 -0.37155,0 -0.55626,-0.0597 -0.60888,-0.19684 z m 11.20906,0.11603 c -0.0468,-0.0468 -0.0851,-2.54065 -0.0851,-5.54185 v -5.45673 l 3.07986,0.0333 3.07986,0.0333 0.0374,0.44619 c 0.0225,0.26768 -0.031,0.50299 -0.13371,0.58819 -0.11098,0.092 -0.97713,0.15396 -2.46395,0.176 l -2.29286,0.034 v 1.67991 1.67992 l 2.30212,0.0694 c 1.26617,0.0381 2.31611,0.0802 2.33323,0.0933 0.11097,0.0856 7.4e-4,1.01418 -0.13354,1.12566 -0.10192,0.0845 -0.99143,0.14966 -2.33322,0.17079 l -2.16859,0.0341 v 1.80437 1.80435 l 2.29286,0.034 c 1.48682,0.0221 2.353,0.0839 2.46395,0.176 0.10263,0.0852 0.15614,0.32053 0.13371,0.5882 l -0.0374,0.44618 -2.99474,0.0333 c -1.64711,0.0183 -3.03304,-0.005 -3.07985,-0.0518 z m 12.046683,-0.0676 c -0.0335,-0.0895 -0.075,-2.29067 -0.0922,-4.89143 l -0.0313,-4.72866 -1.83967,-0.0344 c -1.805873,-0.0339 -1.842163,-0.04 -1.975703,-0.33303 -0.0749,-0.16421 -0.0999,-0.44268 -0.0556,-0.61884 l 0.0804,-0.32027 h 4.484233 4.48425 l -0.038,0.59108 -0.038,0.59108 -1.86657,0.0622 -1.86658,0.0622 -0.0622,4.85309 -0.0622,4.85311 -0.53,0.0383 c -0.35166,0.0254 -0.5505,-0.0165 -0.59091,-0.12444 z M 53.901053,192.1639 c -0.158844,-0.24514 -0.260847,-0.51857 -0.226674,-0.60762 0.101675,-0.26496 3.444176,-3.19378 3.589573,-3.14533 0.135072,0.045 1.094601,1.55642 1.094601,1.72416 0,0.12378 -3.813371,2.47795 -4.010754,2.47604 -0.08686,-8.7e-4 -0.287902,-0.20212 -0.446746,-0.44725 z m -2.293293,-2.38322 c -0.188214,-0.11674 -0.342207,-0.29798 -0.342207,-0.40285 0,-0.30878 2.297857,-4.16502 2.505707,-4.20505 0.270047,-0.052 1.414109,0.76631 1.414109,1.01147 0,0.2377 -2.918204,3.81685 -3.107988,3.81191 -0.07008,-0.002 -0.281408,-0.0987 -0.469621,-0.21548 z m -3.350736,-1.24698 c -0.183206,-0.0233 -0.384777,-0.10898 -0.447938,-0.19042 -0.126787,-0.16358 0.537746,-4.80289 0.713592,-4.9818 0.09643,-0.0982 1.789105,0.10133 2.007985,0.23665 0.157329,0.0972 -1.596695,4.87689 -1.813011,4.9404 -0.07013,0.0206 -0.277423,0.0184 -0.460628,-0.005 z"
       style="fill:#5e5e5e;stroke-width:0.1244386" />
    <path
       inkscape:connector-curvature="0"
       id="path420"
       d="m 66.911384,279.33361 c -0.607979,-1.24905 -2.30277,-4.70689 -3.766205,-7.68408 -1.722653,-3.50453 -2.624659,-5.46991 -2.55831,-5.57425 0.139723,-0.21977 6.136111,-3.0755 7.091266,-3.37718 2.022754,-0.63886 4.099389,-0.31333 5.597889,0.87753 1.089714,0.866 1.821686,2.30596 1.985121,3.90521 0.175602,1.71831 -0.536766,3.51104 -1.909654,4.80577 -0.806391,0.76049 -2.389046,1.72725 -2.827616,1.72725 -0.213103,0 -4.490488,-3.44958 -4.75268,-3.83288 -0.116841,-0.17083 -0.01187,-0.58925 0.547266,-2.18136 0.587091,-1.6717 0.738739,-1.98781 1.001582,-2.08774 0.170358,-0.0648 1.072033,-0.10227 2.003726,-0.0832 l 1.693985,0.0344 0.110692,0.44789 c 0.06088,0.24634 0.07234,0.65233 0.02548,0.90218 l -0.08523,0.45429 h -1.235877 c -1.432899,0 -1.439429,0.005 -1.808983,1.34573 -0.185513,0.6731 -0.191586,0.81016 -0.04237,0.95595 0.419623,0.40996 2.667747,1.92923 2.854761,1.92923 0.291436,0 1.107095,-0.61644 1.665933,-1.25906 1.131665,-1.3013 1.370629,-2.68825 0.710833,-4.12564 -0.844508,-1.8398 -2.473076,-2.60931 -4.579336,-2.16374 -1.267506,0.26813 -5.642199,2.47052 -5.642199,2.84051 0,0.14107 1.51193,3.25402 3.359842,6.91769 1.847914,3.66366 3.359843,6.7117 3.359843,6.77346 0,0.13289 -1.220546,0.72002 -1.500479,0.72178 -0.128517,7.5e-4 -0.566515,-0.76435 -1.299286,-2.26979 z m -43.902231,1.63693 c -2.488496,-0.58562 -4.31783,-2.92667 -4.31783,-5.52563 0,-1.63485 0.589626,-3.00885 1.770416,-4.12559 1.20485,-1.1395 2.484846,-1.5997 4.190406,-1.50661 1.8074,0.0986 3.168902,0.82465 4.275139,2.27963 1.234966,1.62429 1.422711,3.92076 0.482641,5.90356 -0.400533,0.8448 -1.619365,2.09572 -2.413064,2.47657 -1.232361,0.59136 -2.773406,0.78383 -3.987708,0.49807 z m 2.827897,-1.10479 c 3.298893,-1.13499 4.257115,-5.28705 1.789614,-7.75455 -0.33082,-0.33083 -0.922681,-0.75203 -1.315245,-0.936 -0.625547,-0.29318 -0.867536,-0.33451 -1.95814,-0.33451 -1.087427,0 -1.333463,0.0417 -1.950594,0.33105 -0.989378,0.4638 -1.769808,1.22811 -2.249217,2.20276 -0.374889,0.76216 -0.404357,0.91319 -0.403599,2.06849 6.22e-4,1.02347 0.05027,1.35375 0.277365,1.84728 1.039291,2.25852 3.526447,3.36107 5.809816,2.57548 z m 9.542065,1.04419 c -2.657259,-0.71457 -4.475966,-3.43449 -4.120626,-6.16249 0.273897,-2.10274 1.421665,-3.62864 3.416318,-4.54182 0.572047,-0.2619 0.9847,-0.34827 1.890106,-0.39563 1.442917,-0.0755 2.573192,0.24465 3.642052,1.0315 0.705521,0.51937 1.505499,1.40459 1.505499,1.66589 0,0.0785 -0.222188,0.13765 -0.516841,0.13765 -0.44978,0 -0.602508,-0.081 -1.177095,-0.62444 -1.009937,-0.95516 -1.589608,-1.17091 -3.15917,-1.17582 -1.198468,-0.004 -1.362041,0.025 -1.976432,0.34858 -3.565787,1.87745 -3.58874,6.7006 -0.04021,8.44755 0.761125,0.3747 0.926547,0.40823 2.014017,0.40823 1.02009,0 1.281999,-0.0456 1.88413,-0.32792 0.840148,-0.39393 1.642207,-1.09073 2.121422,-1.84301 0.397359,-0.62378 0.444222,-0.9404 0.15558,-1.05116 -0.108258,-0.0415 -1.480194,-0.0756 -3.048746,-0.0756 h -2.851906 v -0.43554 -0.43554 h 3.688272 3.688271 l -0.07725,0.65221 c -0.166647,1.40708 -1.457469,3.19987 -2.789635,3.87445 -1.373754,0.69565 -2.871474,0.87295 -4.247767,0.50284 z m 18.911942,-7.5e-4 c -1.361911,-0.36617 -2.863484,-1.55186 -3.469402,-2.73955 -0.79701,-1.56227 -0.866595,-3.596 -0.1737,-5.07668 0.43456,-0.92864 1.432575,-2.05701 2.235585,-2.52761 1.332494,-0.78088 3.170291,-0.9983 4.621308,-0.54669 4.047587,1.25975 5.319438,6.41846 2.321548,9.41634 -1.432882,1.43289 -3.571018,2.00233 -5.535339,1.47419 z m 3.411767,-1.21086 c 0.978178,-0.45286 1.941702,-1.41125 2.386571,-2.37383 0.302869,-0.65533 0.351079,-0.91343 0.351079,-1.87959 0,-1.00081 -0.04217,-1.20897 -0.396419,-1.95677 -0.475868,-1.00454 -1.273734,-1.8183 -2.252038,-2.29692 -0.63376,-0.31006 -0.84717,-0.34817 -1.955771,-0.34929 -1.088967,-10e-4 -1.33259,0.0401 -1.950595,0.32981 -0.947127,0.44399 -1.721957,1.1841 -2.226096,2.12635 -0.364572,0.68137 -0.422296,0.91707 -0.464815,1.89794 -0.04013,0.92588 -0.0018,1.24398 0.221169,1.83573 0.502432,1.33336 1.687061,2.47211 3.020852,2.90385 0.873727,0.28282 2.37885,0.17347 3.266063,-0.23728 z m 22.548085,1.27221 c -2.483273,-0.5844 -4.31783,-2.92724 -4.31783,-5.51413 0,-1.55112 0.490495,-2.79718 1.536371,-3.90304 3.518858,-3.72068 9.781458,-1.2291 9.781458,3.89154 0,2.60053 -1.715881,4.79841 -4.287048,5.49133 -0.69488,0.18726 -1.993215,0.20368 -2.712951,0.0343 z m 3.296474,-1.31698 c 0.986647,-0.46597 1.78265,-1.24824 2.290673,-2.25117 0.327039,-0.64564 0.361205,-0.83081 0.361183,-1.95748 -2.4e-5,-1.114 -0.03692,-1.31956 -0.352147,-1.96182 -0.462879,-0.9431 -1.33646,-1.8225 -2.261039,-2.27611 -0.675184,-0.33125 -0.865711,-0.36629 -1.991018,-0.36629 -1.087426,0 -1.333462,0.0417 -1.950594,0.33105 -0.989379,0.4638 -1.769807,1.22811 -2.249218,2.20276 -0.374887,0.76216 -0.404357,0.91319 -0.403599,2.06849 6.22e-4,1.02347 0.05027,1.35375 0.277367,1.84728 0.845565,1.83753 2.474343,2.85887 4.450483,2.79072 0.813912,-0.0281 1.147353,-0.10603 1.827909,-0.42743 z m 9.436801,1.26171 c -1.2773,-0.35803 -2.685602,-1.42312 -3.325552,-2.51511 -0.976657,-1.66655 -1.043221,-3.90751 -0.166982,-5.62155 0.360956,-0.70607 1.404932,-1.81039 2.092295,-2.21321 2.126915,-1.24645 4.868562,-0.9909 6.712161,0.62563 0.467476,0.4099 1.155867,1.28697 1.155867,1.47268 0,0.0582 -0.22762,0.1058 -0.50583,0.1058 -0.44046,0 -0.581186,-0.0772 -1.088839,-0.5981 -0.320654,-0.32895 -0.918989,-0.76292 -1.329637,-0.96439 -0.675183,-0.33126 -0.865711,-0.3663 -1.991017,-0.3663 -1.087427,0 -1.333463,0.0417 -1.950594,0.33105 -0.988743,0.46351 -1.769761,1.22815 -2.249218,2.20207 -0.374709,0.76114 -0.404416,0.91309 -0.404416,2.06848 0,1.09345 0.04119,1.33491 0.334512,1.96076 1.404444,2.9967 5.388967,3.628 7.660572,1.21375 0.40205,-0.42729 0.54004,-0.49607 0.995604,-0.49625 0.290873,-1.2e-4 0.528863,0.0508 0.528863,0.11309 0,0.19056 -0.959712,1.34004 -1.397799,1.67417 -0.227112,0.17324 -0.795553,0.49402 -1.263205,0.71286 -0.72106,0.33743 -1.023145,0.40455 -1.987832,0.44176 -0.766047,0.0295 -1.360091,-0.0185 -1.818953,-0.14712 z M 1.8921114,275.4387 v -5.4193 l 0.686493,0.0373 0.686494,0.0374 2.907919,4.16869 c 1.599355,2.29278 2.984353,4.1687 3.077773,4.1687 0.139513,0 0.17571,-0.75025 0.20262,-4.19981 l 0.03276,-4.1998 h 0.496099 0.4960986 v 5.41308 5.41308 H 9.9464474 9.4145214 l -3.045684,-4.47702 c -1.96762,-2.89228 -3.111755,-4.46636 -3.232342,-4.44701 -0.161164,0.0259 -0.191122,0.63735 -0.21934,4.47697 l -0.03268,4.44701 h -0.49618 -0.496183 z m 10.0795276,0.006 v -5.41308 h 2.931819 2.931818 l -0.03862,0.46665 -0.03862,0.46664 -2.364332,0.0622 -2.364334,0.0622 v 1.80435 1.80437 l 2.168579,0.0341 c 1.391969,0.0219 2.229795,0.085 2.339515,0.17601 0.09401,0.0781 0.154105,0.28665 0.133535,0.46361 l -0.03739,0.32175 -2.202956,0.0622 c -1.324978,0.0374 -2.256246,0.11568 -2.336671,0.19634 -0.08663,0.0869 -0.121547,0.78813 -0.09916,1.99101 l 0.03456,1.85691 2.395443,0.0339 2.395443,0.0339 v 0.49507 0.49507 h -2.924305 -2.924307 z m 31.607404,-0.002 v -5.41533 l 2.955416,0.0334 2.955417,0.0334 0.0374,0.32174 c 0.02057,0.17696 -0.03959,0.38565 -0.133705,0.46375 -0.110951,0.0921 -0.977139,0.15396 -2.463952,0.17601 l -2.292849,0.034 v 1.80436 1.80437 l 2.302114,0.0694 c 1.266163,0.0381 2.316114,0.0802 2.333224,0.0933 0.0171,0.0132 0.03111,0.21997 0.03111,0.45951 v 0.43554 h -2.153892 c -1.533233,0 -2.215541,0.0451 -2.367832,0.15643 -0.188676,0.13797 -0.209854,0.37677 -0.179332,2.02213 l 0.03461,1.86569 2.393747,0.0339 2.393744,0.0337 0.07734,0.30815 c 0.171684,0.68404 0.180605,0.68201 -2.994343,0.68201 h -2.928213 z m 57.988397,0.002 v -5.41308 h 0.43553 0.43554 v 2.91412 c 0,2.93645 0.033,3.3078 0.29393,3.3078 0.0786,0 1.48288,-1.39993 3.12067,-3.11096 l 2.9778,-3.11096 h 0.6082 0.60821 l -0.22815,0.29006 c -0.1255,0.15954 -1.23551,1.33699 -2.4667,2.61654 -1.23119,1.27957 -2.23853,2.40307 -2.23853,2.49667 0,0.0936 1.11994,1.33804 2.48877,2.76542 l 2.48877,2.59525 -0.60109,0.0383 -0.60108,0.0383 -2.26326,-2.32916 c -2.59199,-2.66745 -2.33355,-2.57197 -3.45614,-1.27685 l -0.66918,0.77205 -0.0418,1.40975 -0.0418,1.40976 h -0.42484 -0.42482 z m 11.07504,-0.002 v -5.41533 l 2.95541,0.0334 2.95542,0.0334 0.0374,0.32174 c 0.0206,0.17696 -0.0396,0.38565 -0.1337,0.46375 -0.11097,0.0921 -0.97714,0.15396 -2.46396,0.17601 l -2.29284,0.034 v 1.80436 1.80437 l 2.30212,0.0622 2.30211,0.0622 0.0387,0.46664 0.0386,0.46664 h -2.1614 c -1.53927,0 -2.22299,0.045 -2.37535,0.15644 -0.18868,0.13796 -0.20985,0.37677 -0.17933,2.02213 l 0.0346,1.86569 2.39374,0.0338 2.39375,0.0337 0.0773,0.30814 c 0.17168,0.68405 0.1806,0.68201 -2.99434,0.68201 h -2.92821 z m 12.04088,0.53854 -0.0326,-4.89164 -1.86658,-0.0622 -1.86658,-0.0622 -0.0386,-0.46665 -0.0387,-0.46664 h 4.37038 4.37037 l -0.0386,0.46664 -0.0387,0.46665 -1.86658,0.0622 -1.86658,0.0622 -0.0622,4.85311 -0.0622,4.85311 -0.4652,0.0385 -0.4652,0.0386 z m -48.354676,-12.1219 c -0.158844,-0.24514 -0.260847,-0.51857 -0.226674,-0.60762 0.101675,-0.26496 3.444176,-3.19378 3.589573,-3.14533 0.135072,0.045 1.094601,1.55642 1.094601,1.72416 0,0.12378 -3.813371,2.47795 -4.010754,2.47604 -0.08686,-8.7e-4 -0.287902,-0.20212 -0.446746,-0.44725 z m -2.293293,-2.38322 c -0.188214,-0.11674 -0.342207,-0.29798 -0.342207,-0.40285 0,-0.30878 2.297857,-4.16502 2.505707,-4.20505 0.270047,-0.052 1.414109,0.76631 1.414109,1.01147 0,0.2377 -2.918204,3.81685 -3.107988,3.81191 -0.07008,-0.002 -0.281408,-0.0987 -0.469621,-0.21548 z m -3.350736,-1.24698 c -0.183206,-0.0233 -0.384777,-0.10898 -0.447938,-0.19042 -0.126787,-0.16358 0.537746,-4.80289 0.713592,-4.9818 0.09643,-0.0982 1.789105,0.10133 2.007985,0.23665 0.157329,0.0972 -1.596695,4.87689 -1.813011,4.9404 -0.07013,0.0206 -0.277423,0.0184 -0.460628,-0.005 z"
       style="fill:#ffffff;stroke-width:0.1244386" />
    <path
       inkscape:connector-curvature="0"
       id="path418"
       d="m 23.009153,280.97054 c -2.488496,-0.58562 -4.31783,-2.92667 -4.31783,-5.52563 0,-1.63485 0.589626,-3.00885 1.770416,-4.12559 1.20485,-1.1395 2.484846,-1.5997 4.190406,-1.50661 1.8074,0.0986 3.168902,0.82465 4.275139,2.27963 1.234966,1.62429 1.422711,3.92076 0.482641,5.90356 -0.400533,0.8448 -1.619365,2.09572 -2.413064,2.47657 -1.232361,0.59136 -2.773406,0.78383 -3.987708,0.49807 z m 2.827897,-1.10479 c 3.298893,-1.13499 4.257115,-5.28705 1.789614,-7.75455 -0.33082,-0.33083 -0.922681,-0.75203 -1.315245,-0.936 -0.625547,-0.29318 -0.867536,-0.33451 -1.95814,-0.33451 -1.087427,0 -1.333463,0.0417 -1.950594,0.33105 -0.989378,0.4638 -1.769808,1.22811 -2.249217,2.20276 -0.374889,0.76216 -0.404357,0.91319 -0.403599,2.06849 6.22e-4,1.02347 0.05027,1.35375 0.277365,1.84728 1.039291,2.25852 3.526447,3.36107 5.809816,2.57548 z m 9.542065,1.04419 c -2.657259,-0.71457 -4.475966,-3.43449 -4.120626,-6.16249 0.273897,-2.10274 1.421665,-3.62864 3.416318,-4.54182 0.572047,-0.2619 0.9847,-0.34827 1.890106,-0.39563 1.442917,-0.0755 2.573192,0.24465 3.642052,1.0315 0.705521,0.51937 1.505499,1.40459 1.505499,1.66589 0,0.0785 -0.222188,0.13765 -0.516841,0.13765 -0.44978,0 -0.602508,-0.081 -1.177095,-0.62444 -1.009937,-0.95516 -1.589608,-1.17091 -3.15917,-1.17582 -1.198468,-0.004 -1.362041,0.025 -1.976432,0.34858 -3.565787,1.87745 -3.58874,6.7006 -0.04021,8.44755 0.761125,0.3747 0.926547,0.40823 2.014017,0.40823 1.02009,0 1.281999,-0.0456 1.88413,-0.32792 0.840148,-0.39393 1.642207,-1.09073 2.121422,-1.84301 0.397359,-0.62378 0.444222,-0.9404 0.15558,-1.05116 -0.108258,-0.0415 -1.480194,-0.0756 -3.048746,-0.0756 h -2.851906 v -0.43554 -0.43554 h 3.688272 3.688271 l -0.07725,0.65221 c -0.166647,1.40708 -1.457469,3.19987 -2.789635,3.87445 -1.373754,0.69565 -2.871474,0.87295 -4.247767,0.50284 z m 18.911942,-7.5e-4 c -1.361911,-0.36617 -2.863484,-1.55186 -3.469402,-2.73955 -0.79701,-1.56227 -0.866595,-3.596 -0.1737,-5.07668 0.43456,-0.92864 1.432575,-2.05701 2.235585,-2.52761 1.332494,-0.78088 3.170291,-0.9983 4.621308,-0.54669 4.047587,1.25975 5.319438,6.41846 2.321548,9.41634 -1.432882,1.43289 -3.571018,2.00233 -5.535339,1.47419 z m 3.411767,-1.21086 c 0.978178,-0.45286 1.941702,-1.41125 2.386571,-2.37383 0.302869,-0.65533 0.351079,-0.91343 0.351079,-1.87959 0,-1.00081 -0.04217,-1.20897 -0.396419,-1.95677 -0.475868,-1.00454 -1.273734,-1.8183 -2.252038,-2.29692 -0.63376,-0.31006 -0.84717,-0.34817 -1.955771,-0.34929 -1.088967,-10e-4 -1.33259,0.0401 -1.950595,0.32981 -0.947127,0.44399 -1.721957,1.1841 -2.226096,2.12635 -0.364572,0.68137 -0.422296,0.91707 -0.464815,1.89794 -0.04013,0.92588 -0.0018,1.24398 0.221169,1.83573 0.502432,1.33336 1.687061,2.47211 3.020852,2.90385 0.873727,0.28282 2.37885,0.17347 3.266063,-0.23728 z m 22.548085,1.27221 c -2.483273,-0.5844 -4.31783,-2.92724 -4.31783,-5.51413 0,-1.55112 0.490495,-2.79718 1.536371,-3.90304 3.518858,-3.72068 9.781458,-1.2291 9.781458,3.89154 0,2.60053 -1.715881,4.79841 -4.287048,5.49133 -0.69488,0.18726 -1.993215,0.20368 -2.712951,0.0343 z m 3.296474,-1.31698 c 0.986647,-0.46597 1.78265,-1.24824 2.290673,-2.25117 0.327039,-0.64564 0.361205,-0.83081 0.361183,-1.95748 -2.4e-5,-1.114 -0.03692,-1.31956 -0.352147,-1.96182 -0.462879,-0.9431 -1.33646,-1.8225 -2.261039,-2.27611 -0.675184,-0.33125 -0.865711,-0.36629 -1.991018,-0.36629 -1.087426,0 -1.333462,0.0417 -1.950594,0.33105 -0.989379,0.4638 -1.769807,1.22811 -2.249218,2.20276 -0.374887,0.76216 -0.404357,0.91319 -0.403599,2.06849 6.22e-4,1.02347 0.05027,1.35375 0.277367,1.84728 0.845565,1.83753 2.474343,2.85887 4.450483,2.79072 0.813912,-0.0281 1.147353,-0.10603 1.827909,-0.42743 z m 9.436801,1.26171 c -1.2773,-0.35803 -2.685602,-1.42312 -3.325552,-2.51511 -0.976657,-1.66655 -1.043221,-3.90751 -0.166982,-5.62155 0.360956,-0.70607 1.404932,-1.81039 2.092295,-2.21321 2.126915,-1.24645 4.868562,-0.9909 6.712161,0.62563 0.467476,0.4099 1.155867,1.28697 1.155867,1.47268 0,0.0582 -0.22762,0.1058 -0.50583,0.1058 -0.44046,0 -0.581186,-0.0772 -1.088839,-0.5981 -0.320654,-0.32895 -0.918989,-0.76292 -1.329637,-0.96439 -0.675183,-0.33126 -0.865711,-0.3663 -1.991017,-0.3663 -1.087427,0 -1.333463,0.0417 -1.950594,0.33105 -0.988743,0.46351 -1.769761,1.22815 -2.249218,2.20207 -0.374709,0.76114 -0.404416,0.91309 -0.404416,2.06848 0,1.09345 0.04119,1.33491 0.334512,1.96076 1.404444,2.9967 5.388967,3.628 7.660572,1.21375 0.40205,-0.42729 0.54004,-0.49607 0.995604,-0.49625 0.290873,-1.2e-4 0.528863,0.0508 0.528863,0.11309 0,0.19056 -0.959712,1.34004 -1.397799,1.67417 -0.227112,0.17324 -0.795553,0.49402 -1.263205,0.71286 -0.72106,0.33743 -1.023145,0.40455 -1.987832,0.44176 -0.766047,0.0295 -1.360091,-0.0185 -1.818953,-0.14712 z M 1.8921112,275.4387 v -5.4193 l 0.6864936,0.0373 0.6864941,0.0374 2.9079177,4.16869 c 1.5993559,2.29278 2.9843539,4.1687 3.0777739,4.1687 0.139513,0 0.17571,-0.75025 0.20262,-4.19981 l 0.03276,-4.1998 h 0.496099 0.4960985 v 5.41308 5.41308 H 9.9464475 9.4145215 L 6.368837,276.38102 c -1.9676192,-2.89228 -3.1117544,-4.46636 -3.2323414,-4.44701 -0.1611644,0.0259 -0.1911217,0.63735 -0.2193402,4.47697 l -0.032681,4.44701 H 2.3882943 1.8921112 Z m 10.0795278,0.006 v -5.41308 h 2.931819 2.931818 l -0.03862,0.46665 -0.03862,0.46664 -2.364332,0.0622 -2.364334,0.0622 v 1.80435 1.80437 l 2.168579,0.0341 c 1.391969,0.0219 2.229795,0.085 2.339515,0.17601 0.09401,0.0781 0.154105,0.28665 0.133535,0.46361 l -0.03739,0.32175 -2.202956,0.0622 c -1.324978,0.0374 -2.256246,0.11568 -2.336671,0.19634 -0.08663,0.0869 -0.121547,0.78813 -0.09916,1.99101 l 0.03456,1.85691 2.395443,0.0339 2.395443,0.0339 v 0.49507 0.49507 h -2.924305 -2.924307 z m 31.607404,-0.002 v -5.41533 l 2.955416,0.0334 2.955417,0.0334 0.0374,0.32174 c 0.02057,0.17696 -0.03959,0.38565 -0.133705,0.46375 -0.110951,0.0921 -0.977139,0.15396 -2.463952,0.17601 l -2.292849,0.034 v 1.80436 1.80437 l 2.302114,0.0694 c 1.266163,0.0381 2.316114,0.0802 2.333224,0.0933 0.0171,0.0132 0.03111,0.21997 0.03111,0.45951 v 0.43554 h -2.153892 c -1.533233,0 -2.215541,0.0451 -2.367832,0.15643 -0.188676,0.13797 -0.209854,0.37677 -0.179332,2.02213 l 0.03461,1.86569 2.393747,0.0339 2.393744,0.0337 0.07734,0.30815 c 0.171684,0.68404 0.180605,0.68201 -2.994343,0.68201 h -2.928213 z m 57.988397,0.002 v -5.41308 h 0.43553 0.43554 v 2.91412 c 0,2.93645 0.033,3.3078 0.29393,3.3078 0.0786,0 1.48288,-1.39993 3.12067,-3.11096 l 2.9778,-3.11096 h 0.6082 0.60821 l -0.22815,0.29006 c -0.1255,0.15954 -1.23551,1.33699 -2.4667,2.61654 -1.23119,1.27957 -2.23853,2.40307 -2.23853,2.49667 0,0.0936 1.11994,1.33804 2.48877,2.76542 l 2.48877,2.59525 -0.60109,0.0383 -0.60108,0.0383 -2.26326,-2.32916 c -2.59199,-2.66745 -2.33355,-2.57197 -3.45614,-1.27685 l -0.66918,0.77205 -0.0418,1.40975 -0.0418,1.40976 h -0.42484 -0.42482 z m 11.07504,-0.002 v -5.41533 l 2.95541,0.0334 2.95542,0.0334 0.0374,0.32174 c 0.0206,0.17696 -0.0396,0.38565 -0.1337,0.46375 -0.11097,0.0921 -0.97714,0.15396 -2.46396,0.17601 l -2.29284,0.034 v 1.80436 1.80437 l 2.30212,0.0622 2.30211,0.0622 0.0387,0.46664 0.0386,0.46664 h -2.1614 c -1.53927,0 -2.22299,0.045 -2.37535,0.15644 -0.18868,0.13796 -0.20985,0.37677 -0.17933,2.02213 l 0.0346,1.86569 2.39374,0.0338 2.39375,0.0337 0.0773,0.30814 c 0.17168,0.68405 0.1806,0.68201 -2.99434,0.68201 h -2.92821 z m 12.04088,0.53854 -0.0326,-4.89164 -1.86658,-0.0622 -1.86658,-0.0622 -0.0386,-0.46665 -0.0387,-0.46664 h 4.37038 4.37038 l -0.0386,0.46664 -0.0387,0.46665 -1.86658,0.0622 -1.86658,0.0622 -0.0622,4.85311 -0.0622,4.85311 -0.4652,0.0385 -0.4652,0.0386 z"
       style="fill:#ffffff;stroke:#ffffff;stroke-width:0.62400001;stroke-miterlimit:4;stroke-dasharray:none;stroke-opacity:1" />
  </g>
</svg>
