<?xml version="1.0" encoding="UTF-8" standalone="no"?>
<svg
   xmlns:dc="http://purl.org/dc/elements/1.1/"
   xmlns:cc="http://creativecommons.org/ns#"
   xmlns:rdf="http://www.w3.org/1999/02/22-rdf-syntax-ns#"
   xmlns:svg="http://www.w3.org/2000/svg"
   xmlns="http://www.w3.org/2000/svg"
   xmlns:sodipodi="http://sodipodi.sourceforge.net/DTD/sodipodi-0.dtd"
   xmlns:inkscape="http://www.inkscape.org/namespaces/inkscape"
   width="485.0639"
   height="100.43208"
   viewBox="0 0 128.33982 26.572656"
   version="1.1"
   id="svg8"
   inkscape:version="1.0.1 (1.0.1+r73)"
   sodipodi:docname="ngp.svg">
  <defs
     id="defs2" />
  <sodipodi:namedview
     id="base"
     pagecolor="#ffffff"
     bordercolor="#666666"
     borderopacity="1.0"
     inkscape:pageopacity="0.0"
     inkscape:pageshadow="2"
     inkscape:zoom="1.5958577"
     inkscape:cx="225.64998"
     inkscape:cy="42.951372"
     inkscape:document-units="mm"
     inkscape:current-layer="layer1"
     showgrid="false"
     units="px"
     inkscape:pagecheckerboard="true"
     inkscape:window-width="1366"
     inkscape:window-height="740"
     inkscape:window-x="0"
     inkscape:window-y="0"
     inkscape:window-maximized="1"
     inkscape:document-rotation="0" />
  <metadata
     id="metadata5">
    <rdf:RDF>
      <cc:Work
         rdf:about="">
        <dc:format>image/svg+xml</dc:format>
        <dc:type
           rdf:resource="http://purl.org/dc/dcmitype/StillImage" />
        <dc:title />
      </cc:Work>
    </rdf:RDF>
  </metadata>
  <g
     inkscape:label="Layer 1"
     inkscape:groupmode="layer"
     id="layer1"
     transform="translate(-1.5801112,-255.0307)">
    <path
       inkscape:connector-curvature="0"
       id="path420"
       d="m 66.911384,279.33361 c -0.607979,-1.24905 -2.30277,-4.70689 -3.766205,-7.68408 -1.722653,-3.50453 -2.624659,-5.46991 -2.55831,-5.57425 0.139723,-0.21977 6.136111,-3.0755 7.091266,-3.37718 2.022754,-0.63886 4.099389,-0.31333 5.597889,0.87753 1.089714,0.866 1.821686,2.30596 1.985121,3.90521 0.175602,1.71831 -0.536766,3.51104 -1.909654,4.80577 -0.806391,0.76049 -2.389046,1.72725 -2.827616,1.72725 -0.213103,0 -4.490488,-3.44958 -4.75268,-3.83288 -0.116841,-0.17083 -0.01187,-0.58925 0.547266,-2.18136 0.587091,-1.6717 0.738739,-1.98781 1.001582,-2.08774 0.170358,-0.0648 1.072033,-0.10227 2.003726,-0.0832 l 1.693985,0.0344 0.110692,0.44789 c 0.06088,0.24634 0.07234,0.65233 0.02548,0.90218 l -0.08523,0.45429 h -1.235877 c -1.432899,0 -1.439429,0.005 -1.808983,1.34573 -0.185513,0.6731 -0.191586,0.81016 -0.04237,0.95595 0.419623,0.40996 2.667747,1.92923 2.854761,1.92923 0.291436,0 1.107095,-0.61644 1.665933,-1.25906 1.131665,-1.3013 1.370629,-2.68825 0.710833,-4.12564 -0.844508,-1.8398 -2.473076,-2.60931 -4.579336,-2.16374 -1.267506,0.26813 -5.642199,2.47052 -5.642199,2.84051 0,0.14107 1.51193,3.25402 3.359842,6.91769 1.847914,3.66366 3.359843,6.7117 3.359843,6.77346 0,0.13289 -1.220546,0.72002 -1.500479,0.72178 -0.128517,7.5e-4 -0.566515,-0.76435 -1.299286,-2.26979 z m -43.902231,1.63693 c -2.488496,-0.58562 -4.31783,-2.92667 -4.31783,-5.52563 0,-1.63485 0.589626,-3.00885 1.770416,-4.12559 1.20485,-1.1395 2.484846,-1.5997 4.190406,-1.50661 1.8074,0.0986 3.168902,0.82465 4.275139,2.27963 1.234966,1.62429 1.422711,3.92076 0.482641,5.90356 -0.400533,0.8448 -1.619365,2.09572 -2.413064,2.47657 -1.232361,0.59136 -2.773406,0.78383 -3.987708,0.49807 z m 2.827897,-1.10479 c 3.298893,-1.13499 4.257115,-5.28705 1.789614,-7.75455 -0.33082,-0.33083 -0.922681,-0.75203 -1.315245,-0.936 -0.625547,-0.29318 -0.867536,-0.33451 -1.95814,-0.33451 -1.087427,0 -1.333463,0.0417 -1.950594,0.33105 -0.989378,0.4638 -1.769808,1.22811 -2.249217,2.20276 -0.374889,0.76216 -0.404357,0.91319 -0.403599,2.06849 6.22e-4,1.02347 0.05027,1.35375 0.277365,1.84728 1.039291,2.25852 3.526447,3.36107 5.809816,2.57548 z m 9.542065,1.04419 c -2.657259,-0.71457 -4.475966,-3.43449 -4.120626,-6.16249 0.273897,-2.10274 1.421665,-3.62864 3.416318,-4.54182 0.572047,-0.2619 0.9847,-0.34827 1.890106,-0.39563 1.442917,-0.0755 2.573192,0.24465 3.642052,1.0315 0.705521,0.51937 1.505499,1.40459 1.505499,1.66589 0,0.0785 -0.222188,0.13765 -0.516841,0.13765 -0.44978,0 -0.602508,-0.081 -1.177095,-0.62444 -1.009937,-0.95516 -1.589608,-1.17091 -3.15917,-1.17582 -1.198468,-0.004 -1.362041,0.025 -1.976432,0.34858 -3.565787,1.87745 -3.58874,6.7006 -0.04021,8.44755 0.761125,0.3747 0.926547,0.40823 2.014017,0.40823 1.02009,0 1.281999,-0.0456 1.88413,-0.32792 0.840148,-0.39393 1.642207,-1.09073 2.121422,-1.84301 0.397359,-0.62378 0.444222,-0.9404 0.15558,-1.05116 -0.108258,-0.0415 -1.480194,-0.0756 -3.048746,-0.0756 h -2.851906 v -0.43554 -0.43554 h 3.688272 3.688271 l -0.07725,0.65221 c -0.166647,1.40708 -1.457469,3.19987 -2.789635,3.87445 -1.373754,0.69565 -2.871474,0.87295 -4.247767,0.50284 z m 18.911942,-7.5e-4 c -1.361911,-0.36617 -2.863484,-1.55186 -3.469402,-2.73955 -0.79701,-1.56227 -0.866595,-3.596 -0.1737,-5.07668 0.43456,-0.92864 1.432575,-2.05701 2.235585,-2.52761 1.332494,-0.78088 3.170291,-0.9983 4.621308,-0.54669 4.047587,1.25975 5.319438,6.41846 2.321548,9.41634 -1.432882,1.43289 -3.571018,2.00233 -5.535339,1.47419 z m 3.411767,-1.21086 c 0.978178,-0.45286 1.941702,-1.41125 2.386571,-2.37383 0.302869,-0.65533 0.351079,-0.91343 0.351079,-1.87959 0,-1.00081 -0.04217,-1.20897 -0.396419,-1.95677 -0.475868,-1.00454 -1.273734,-1.8183 -2.252038,-2.29692 -0.63376,-0.31006 -0.84717,-0.34817 -1.955771,-0.34929 -1.088967,-10e-4 -1.33259,0.0401 -1.950595,0.32981 -0.947127,0.44399 -1.721957,1.1841 -2.226096,2.12635 -0.364572,0.68137 -0.422296,0.91707 -0.464815,1.89794 -0.04013,0.92588 -0.0018,1.24398 0.221169,1.83573 0.502432,1.33336 1.687061,2.47211 3.020852,2.90385 0.873727,0.28282 2.37885,0.17347 3.266063,-0.23728 z m 22.548085,1.27221 c -2.483273,-0.5844 -4.31783,-2.92724 -4.31783,-5.51413 0,-1.55112 0.490495,-2.79718 1.536371,-3.90304 3.518858,-3.72068 9.781458,-1.2291 9.781458,3.89154 0,2.60053 -1.715881,4.79841 -4.287048,5.49133 -0.69488,0.18726 -1.993215,0.20368 -2.712951,0.0343 z m 3.296474,-1.31698 c 0.986647,-0.46597 1.78265,-1.24824 2.290673,-2.25117 0.327039,-0.64564 0.361205,-0.83081 0.361183,-1.95748 -2.4e-5,-1.114 -0.03692,-1.31956 -0.352147,-1.96182 -0.462879,-0.9431 -1.33646,-1.8225 -2.261039,-2.27611 -0.675184,-0.33125 -0.865711,-0.36629 -1.991018,-0.36629 -1.087426,0 -1.333462,0.0417 -1.950594,0.33105 -0.989379,0.4638 -1.769807,1.22811 -2.249218,2.20276 -0.374887,0.76216 -0.404357,0.91319 -0.403599,2.06849 6.22e-4,1.02347 0.05027,1.35375 0.277367,1.84728 0.845565,1.83753 2.474343,2.85887 4.450483,2.79072 0.813912,-0.0281 1.147353,-0.10603 1.827909,-0.42743 z m 9.436801,1.26171 c -1.2773,-0.35803 -2.685602,-1.42312 -3.325552,-2.51511 -0.976657,-1.66655 -1.043221,-3.90751 -0.166982,-5.62155 0.360956,-0.70607 1.404932,-1.81039 2.092295,-2.21321 2.126915,-1.24645 4.868562,-0.9909 6.712161,0.62563 0.467476,0.4099 1.155867,1.28697 1.155867,1.47268 0,0.0582 -0.22762,0.1058 -0.50583,0.1058 -0.44046,0 -0.581186,-0.0772 -1.088839,-0.5981 -0.320654,-0.32895 -0.918989,-0.76292 -1.329637,-0.96439 -0.675183,-0.33126 -0.865711,-0.3663 -1.991017,-0.3663 -1.087427,0 -1.333463,0.0417 -1.950594,0.33105 -0.988743,0.46351 -1.769761,1.22815 -2.249218,2.20207 -0.374709,0.76114 -0.404416,0.91309 -0.404416,2.06848 0,1.09345 0.04119,1.33491 0.334512,1.96076 1.404444,2.9967 5.388967,3.628 7.660572,1.21375 0.40205,-0.42729 0.54004,-0.49607 0.995604,-0.49625 0.290873,-1.2e-4 0.528863,0.0508 0.528863,0.11309 0,0.19056 -0.959712,1.34004 -1.397799,1.67417 -0.227112,0.17324 -0.795553,0.49402 -1.263205,0.71286 -0.72106,0.33743 -1.023145,0.40455 -1.987832,0.44176 -0.766047,0.0295 -1.360091,-0.0185 -1.818953,-0.14712 z M 1.8921114,275.4387 v -5.4193 l 0.686493,0.0373 0.686494,0.0374 2.907919,4.16869 c 1.599355,2.29278 2.984353,4.1687 3.077773,4.1687 0.139513,0 0.17571,-0.75025 0.20262,-4.19981 l 0.03276,-4.1998 h 0.496099 0.4960986 v 5.41308 5.41308 H 9.9464474 9.4145214 l -3.045684,-4.47702 c -1.96762,-2.89228 -3.111755,-4.46636 -3.232342,-4.44701 -0.161164,0.0259 -0.191122,0.63735 -0.21934,4.47697 l -0.03268,4.44701 h -0.49618 -0.496183 z m 10.0795276,0.006 v -5.41308 h 2.931819 2.931818 l -0.03862,0.46665 -0.03862,0.46664 -2.364332,0.0622 -2.364334,0.0622 v 1.80435 1.80437 l 2.168579,0.0341 c 1.391969,0.0219 2.229795,0.085 2.339515,0.17601 0.09401,0.0781 0.154105,0.28665 0.133535,0.46361 l -0.03739,0.32175 -2.202956,0.0622 c -1.324978,0.0374 -2.256246,0.11568 -2.336671,0.19634 -0.08663,0.0869 -0.121547,0.78813 -0.09916,1.99101 l 0.03456,1.85691 2.395443,0.0339 2.395443,0.0339 v 0.49507 0.49507 h -2.924305 -2.924307 z m 31.607404,-0.002 v -5.41533 l 2.955416,0.0334 2.955417,0.0334 0.0374,0.32174 c 0.02057,0.17696 -0.03959,0.38565 -0.133705,0.46375 -0.110951,0.0921 -0.977139,0.15396 -2.463952,0.17601 l -2.292849,0.034 v 1.80436 1.80437 l 2.302114,0.0694 c 1.266163,0.0381 2.316114,0.0802 2.333224,0.0933 0.0171,0.0132 0.03111,0.21997 0.03111,0.45951 v 0.43554 h -2.153892 c -1.533233,0 -2.215541,0.0451 -2.367832,0.15643 -0.188676,0.13797 -0.209854,0.37677 -0.179332,2.02213 l 0.03461,1.86569 2.393747,0.0339 2.393744,0.0337 0.07734,0.30815 c 0.171684,0.68404 0.180605,0.68201 -2.994343,0.68201 h -2.928213 z m 57.988397,0.002 v -5.41308 h 0.43553 0.43554 v 2.91412 c 0,2.93645 0.033,3.3078 0.29393,3.3078 0.0786,0 1.48288,-1.39993 3.12067,-3.11096 l 2.9778,-3.11096 h 0.6082 0.60821 l -0.22815,0.29006 c -0.1255,0.15954 -1.23551,1.33699 -2.4667,2.61654 -1.23119,1.27957 -2.23853,2.40307 -2.23853,2.49667 0,0.0936 1.11994,1.33804 2.48877,2.76542 l 2.48877,2.59525 -0.60109,0.0383 -0.60108,0.0383 -2.26326,-2.32916 c -2.59199,-2.66745 -2.33355,-2.57197 -3.45614,-1.27685 l -0.66918,0.77205 -0.0418,1.40975 -0.0418,1.40976 h -0.42484 -0.42482 z m 11.07504,-0.002 v -5.41533 l 2.95541,0.0334 2.95542,0.0334 0.0374,0.32174 c 0.0206,0.17696 -0.0396,0.38565 -0.1337,0.46375 -0.11097,0.0921 -0.97714,0.15396 -2.46396,0.17601 l -2.29284,0.034 v 1.80436 1.80437 l 2.30212,0.0622 2.30211,0.0622 0.0387,0.46664 0.0386,0.46664 h -2.1614 c -1.53927,0 -2.22299,0.045 -2.37535,0.15644 -0.18868,0.13796 -0.20985,0.37677 -0.17933,2.02213 l 0.0346,1.86569 2.39374,0.0338 2.39375,0.0337 0.0773,0.30814 c 0.17168,0.68405 0.1806,0.68201 -2.99434,0.68201 h -2.92821 z m 12.04088,0.53854 -0.0326,-4.89164 -1.86658,-0.0622 -1.86658,-0.0622 -0.0386,-0.46665 -0.0387,-0.46664 h 4.37038 4.37037 l -0.0386,0.46664 -0.0387,0.46665 -1.86658,0.0622 -1.86658,0.0622 -0.0622,4.85311 -0.0622,4.85311 -0.4652,0.0385 -0.4652,0.0386 z m -48.354676,-12.1219 c -0.158844,-0.24514 -0.260847,-0.51857 -0.226674,-0.60762 0.101675,-0.26496 3.444176,-3.19378 3.589573,-3.14533 0.135072,0.045 1.094601,1.55642 1.094601,1.72416 0,0.12378 -3.813371,2.47795 -4.010754,2.47604 -0.08686,-8.7e-4 -0.287902,-0.20212 -0.446746,-0.44725 z m -2.293293,-2.38322 c -0.188214,-0.11674 -0.342207,-0.29798 -0.342207,-0.40285 0,-0.30878 2.297857,-4.16502 2.505707,-4.20505 0.270047,-0.052 1.414109,0.76631 1.414109,1.01147 0,0.2377 -2.918204,3.81685 -3.107988,3.81191 -0.07008,-0.002 -0.281408,-0.0987 -0.469621,-0.21548 z m -3.350736,-1.24698 c -0.183206,-0.0233 -0.384777,-0.10898 -0.447938,-0.19042 -0.126787,-0.16358 0.537746,-4.80289 0.713592,-4.9818 0.09643,-0.0982 1.789105,0.10133 2.007985,0.23665 0.157329,0.0972 -1.596695,4.87689 -1.813011,4.9404 -0.07013,0.0206 -0.277423,0.0184 -0.460628,-0.005 z"
       style="fill:#ffffff;stroke-width:0.124439" />
    <path
       inkscape:connector-curvature="0"
       id="path418"
       d="m 23.009153,280.97054 c -2.488496,-0.58562 -4.31783,-2.92667 -4.31783,-5.52563 0,-1.63485 0.589626,-3.00885 1.770416,-4.12559 1.20485,-1.1395 2.484846,-1.5997 4.190406,-1.50661 1.8074,0.0986 3.168902,0.82465 4.275139,2.27963 1.234966,1.62429 1.422711,3.92076 0.482641,5.90356 -0.400533,0.8448 -1.619365,2.09572 -2.413064,2.47657 -1.232361,0.59136 -2.773406,0.78383 -3.987708,0.49807 z m 2.827897,-1.10479 c 3.298893,-1.13499 4.257115,-5.28705 1.789614,-7.75455 -0.33082,-0.33083 -0.922681,-0.75203 -1.315245,-0.936 -0.625547,-0.29318 -0.867536,-0.33451 -1.95814,-0.33451 -1.087427,0 -1.333463,0.0417 -1.950594,0.33105 -0.989378,0.4638 -1.769808,1.22811 -2.249217,2.20276 -0.374889,0.76216 -0.404357,0.91319 -0.403599,2.06849 6.22e-4,1.02347 0.05027,1.35375 0.277365,1.84728 1.039291,2.25852 3.526447,3.36107 5.809816,2.57548 z m 9.542065,1.04419 c -2.657259,-0.71457 -4.475966,-3.43449 -4.120626,-6.16249 0.273897,-2.10274 1.421665,-3.62864 3.416318,-4.54182 0.572047,-0.2619 0.9847,-0.34827 1.890106,-0.39563 1.442917,-0.0755 2.573192,0.24465 3.642052,1.0315 0.705521,0.51937 1.505499,1.40459 1.505499,1.66589 0,0.0785 -0.222188,0.13765 -0.516841,0.13765 -0.44978,0 -0.602508,-0.081 -1.177095,-0.62444 -1.009937,-0.95516 -1.589608,-1.17091 -3.15917,-1.17582 -1.198468,-0.004 -1.362041,0.025 -1.976432,0.34858 -3.565787,1.87745 -3.58874,6.7006 -0.04021,8.44755 0.761125,0.3747 0.926547,0.40823 2.014017,0.40823 1.02009,0 1.281999,-0.0456 1.88413,-0.32792 0.840148,-0.39393 1.642207,-1.09073 2.121422,-1.84301 0.397359,-0.62378 0.444222,-0.9404 0.15558,-1.05116 -0.108258,-0.0415 -1.480194,-0.0756 -3.048746,-0.0756 h -2.851906 v -0.43554 -0.43554 h 3.688272 3.688271 l -0.07725,0.65221 c -0.166647,1.40708 -1.457469,3.19987 -2.789635,3.87445 -1.373754,0.69565 -2.871474,0.87295 -4.247767,0.50284 z m 18.911942,-7.5e-4 c -1.361911,-0.36617 -2.863484,-1.55186 -3.469402,-2.73955 -0.79701,-1.56227 -0.866595,-3.596 -0.1737,-5.07668 0.43456,-0.92864 1.432575,-2.05701 2.235585,-2.52761 1.332494,-0.78088 3.170291,-0.9983 4.621308,-0.54669 4.047587,1.25975 5.319438,6.41846 2.321548,9.41634 -1.432882,1.43289 -3.571018,2.00233 -5.535339,1.47419 z m 3.411767,-1.21086 c 0.978178,-0.45286 1.941702,-1.41125 2.386571,-2.37383 0.302869,-0.65533 0.351079,-0.91343 0.351079,-1.87959 0,-1.00081 -0.04217,-1.20897 -0.396419,-1.95677 -0.475868,-1.00454 -1.273734,-1.8183 -2.252038,-2.29692 -0.63376,-0.31006 -0.84717,-0.34817 -1.955771,-0.34929 -1.088967,-10e-4 -1.33259,0.0401 -1.950595,0.32981 -0.947127,0.44399 -1.721957,1.1841 -2.226096,2.12635 -0.364572,0.68137 -0.422296,0.91707 -0.464815,1.89794 -0.04013,0.92588 -0.0018,1.24398 0.221169,1.83573 0.502432,1.33336 1.687061,2.47211 3.020852,2.90385 0.873727,0.28282 2.37885,0.17347 3.266063,-0.23728 z m 22.548085,1.27221 c -2.483273,-0.5844 -4.31783,-2.92724 -4.31783,-5.51413 0,-1.55112 0.490495,-2.79718 1.536371,-3.90304 3.518858,-3.72068 9.781458,-1.2291 9.781458,3.89154 0,2.60053 -1.715881,4.79841 -4.287048,5.49133 -0.69488,0.18726 -1.993215,0.20368 -2.712951,0.0343 z m 3.296474,-1.31698 c 0.986647,-0.46597 1.78265,-1.24824 2.290673,-2.25117 0.327039,-0.64564 0.361205,-0.83081 0.361183,-1.95748 -2.4e-5,-1.114 -0.03692,-1.31956 -0.352147,-1.96182 -0.462879,-0.9431 -1.33646,-1.8225 -2.261039,-2.27611 -0.675184,-0.33125 -0.865711,-0.36629 -1.991018,-0.36629 -1.087426,0 -1.333462,0.0417 -1.950594,0.33105 -0.989379,0.4638 -1.769807,1.22811 -2.249218,2.20276 -0.374887,0.76216 -0.404357,0.91319 -0.403599,2.06849 6.22e-4,1.02347 0.05027,1.35375 0.277367,1.84728 0.845565,1.83753 2.474343,2.85887 4.450483,2.79072 0.813912,-0.0281 1.147353,-0.10603 1.827909,-0.42743 z m 9.436801,1.26171 c -1.2773,-0.35803 -2.685602,-1.42312 -3.325552,-2.51511 -0.976657,-1.66655 -1.043221,-3.90751 -0.166982,-5.62155 0.360956,-0.70607 1.404932,-1.81039 2.092295,-2.21321 2.126915,-1.24645 4.868562,-0.9909 6.712161,0.62563 0.467476,0.4099 1.155867,1.28697 1.155867,1.47268 0,0.0582 -0.22762,0.1058 -0.50583,0.1058 -0.44046,0 -0.581186,-0.0772 -1.088839,-0.5981 -0.320654,-0.32895 -0.918989,-0.76292 -1.329637,-0.96439 -0.675183,-0.33126 -0.865711,-0.3663 -1.991017,-0.3663 -1.087427,0 -1.333463,0.0417 -1.950594,0.33105 -0.988743,0.46351 -1.769761,1.22815 -2.249218,2.20207 -0.374709,0.76114 -0.404416,0.91309 -0.404416,2.06848 0,1.09345 0.04119,1.33491 0.334512,1.96076 1.404444,2.9967 5.388967,3.628 7.660572,1.21375 0.40205,-0.42729 0.54004,-0.49607 0.995604,-0.49625 0.290873,-1.2e-4 0.528863,0.0508 0.528863,0.11309 0,0.19056 -0.959712,1.34004 -1.397799,1.67417 -0.227112,0.17324 -0.795553,0.49402 -1.263205,0.71286 -0.72106,0.33743 -1.023145,0.40455 -1.987832,0.44176 -0.766047,0.0295 -1.360091,-0.0185 -1.818953,-0.14712 z M 1.8921112,275.4387 v -5.4193 l 0.6864936,0.0373 0.6864941,0.0374 2.9079177,4.16869 c 1.5993559,2.29278 2.9843539,4.1687 3.0777739,4.1687 0.139513,0 0.17571,-0.75025 0.20262,-4.19981 l 0.03276,-4.1998 h 0.496099 0.4960985 v 5.41308 5.41308 H 9.9464475 9.4145215 L 6.368837,276.38102 c -1.9676192,-2.89228 -3.1117544,-4.46636 -3.2323414,-4.44701 -0.1611644,0.0259 -0.1911217,0.63735 -0.2193402,4.47697 l -0.032681,4.44701 H 2.3882943 1.8921112 Z m 10.0795278,0.006 v -5.41308 h 2.931819 2.931818 l -0.03862,0.46665 -0.03862,0.46664 -2.364332,0.0622 -2.364334,0.0622 v 1.80435 1.80437 l 2.168579,0.0341 c 1.391969,0.0219 2.229795,0.085 2.339515,0.17601 0.09401,0.0781 0.154105,0.28665 0.133535,0.46361 l -0.03739,0.32175 -2.202956,0.0622 c -1.324978,0.0374 -2.256246,0.11568 -2.336671,0.19634 -0.08663,0.0869 -0.121547,0.78813 -0.09916,1.99101 l 0.03456,1.85691 2.395443,0.0339 2.395443,0.0339 v 0.49507 0.49507 h -2.924305 -2.924307 z m 31.607404,-0.002 v -5.41533 l 2.955416,0.0334 2.955417,0.0334 0.0374,0.32174 c 0.02057,0.17696 -0.03959,0.38565 -0.133705,0.46375 -0.110951,0.0921 -0.977139,0.15396 -2.463952,0.17601 l -2.292849,0.034 v 1.80436 1.80437 l 2.302114,0.0694 c 1.266163,0.0381 2.316114,0.0802 2.333224,0.0933 0.0171,0.0132 0.03111,0.21997 0.03111,0.45951 v 0.43554 h -2.153892 c -1.533233,0 -2.215541,0.0451 -2.367832,0.15643 -0.188676,0.13797 -0.209854,0.37677 -0.179332,2.02213 l 0.03461,1.86569 2.393747,0.0339 2.393744,0.0337 0.07734,0.30815 c 0.171684,0.68404 0.180605,0.68201 -2.994343,0.68201 h -2.928213 z m 57.988397,0.002 v -5.41308 h 0.43553 0.43554 v 2.91412 c 0,2.93645 0.033,3.3078 0.29393,3.3078 0.0786,0 1.48288,-1.39993 3.12067,-3.11096 l 2.9778,-3.11096 h 0.6082 0.60821 l -0.22815,0.29006 c -0.1255,0.15954 -1.23551,1.33699 -2.4667,2.61654 -1.23119,1.27957 -2.23853,2.40307 -2.23853,2.49667 0,0.0936 1.11994,1.33804 2.48877,2.76542 l 2.48877,2.59525 -0.60109,0.0383 -0.60108,0.0383 -2.26326,-2.32916 c -2.59199,-2.66745 -2.33355,-2.57197 -3.45614,-1.27685 l -0.66918,0.77205 -0.0418,1.40975 -0.0418,1.40976 h -0.42484 -0.42482 z m 11.07504,-0.002 v -5.41533 l 2.95541,0.0334 2.95542,0.0334 0.0374,0.32174 c 0.0206,0.17696 -0.0396,0.38565 -0.1337,0.46375 -0.11097,0.0921 -0.97714,0.15396 -2.46396,0.17601 l -2.29284,0.034 v 1.80436 1.80437 l 2.30212,0.0622 2.30211,0.0622 0.0387,0.46664 0.0386,0.46664 h -2.1614 c -1.53927,0 -2.22299,0.045 -2.37535,0.15644 -0.18868,0.13796 -0.20985,0.37677 -0.17933,2.02213 l 0.0346,1.86569 2.39374,0.0338 2.39375,0.0337 0.0773,0.30814 c 0.17168,0.68405 0.1806,0.68201 -2.99434,0.68201 h -2.92821 z m 12.04088,0.53854 -0.0326,-4.89164 -1.86658,-0.0622 -1.86658,-0.0622 -0.0386,-0.46665 -0.0387,-0.46664 h 4.37038 4.37038 l -0.0386,0.46664 -0.0387,0.46665 -1.86658,0.0622 -1.86658,0.0622 -0.0622,4.85311 -0.0622,4.85311 -0.4652,0.0385 -0.4652,0.0386 z"
       style="fill:#ffffff;stroke:#ffffff;stroke-width:0.624;stroke-miterlimit:4;stroke-dasharray:none;stroke-opacity:1" />
  </g>
</svg>
