<?xml version="1.0" encoding="UTF-8" standalone="no"?>
<svg
   xmlns:dc="http://purl.org/dc/elements/1.1/"
   xmlns:cc="http://creativecommons.org/ns#"
   xmlns:rdf="http://www.w3.org/1999/02/22-rdf-syntax-ns#"
   xmlns:svg="http://www.w3.org/2000/svg"
   xmlns="http://www.w3.org/2000/svg"
   xmlns:sodipodi="http://sodipodi.sourceforge.net/DTD/sodipodi-0.dtd"
   xmlns:inkscape="http://www.inkscape.org/namespaces/inkscape"
   width="500"
   height="200"
   viewBox="0 0 500 200"
   version="1.1"
   id="svg124"
   sodipodi:docname="ngpc.svg"
   style="fill:none"
   inkscape:version="0.92.5 (2060ec1f9f, 2020-04-08)">
  <metadata
     id="metadata130">
    <rdf:RDF>
      <cc:Work
         rdf:about="">
        <dc:format>image/svg+xml</dc:format>
        <dc:type
           rdf:resource="http://purl.org/dc/dcmitype/StillImage" />
        <dc:title></dc:title>
      </cc:Work>
    </rdf:RDF>
  </metadata>
  <defs
     id="defs128" />
  <sodipodi:namedview
     pagecolor="#ffffff"
     bordercolor="#666666"
     borderopacity="1"
     objecttolerance="10"
     gridtolerance="10"
     guidetolerance="10"
     inkscape:pageopacity="0"
     inkscape:pageshadow="2"
     inkscape:window-width="1366"
     inkscape:window-height="740"
     id="namedview126"
     showgrid="false"
     inkscape:pagecheckerboard="true"
     inkscape:zoom="1.0411096"
     inkscape:cx="280.5"
     inkscape:cy="81.5"
     inkscape:window-x="0"
     inkscape:window-y="0"
     inkscape:window-maximized="1"
     inkscape:current-layer="svg124" />
  <path
     d="M 33.972627,119.06656 H 29.286924 L 4.8058668,83.863541 V 119.06656 H 0 V 76.65469 h 5.8871986 l 23.3085194,33.6415 v -33.6415 h 4.776909 z"
     id="path60"
     inkscape:connector-curvature="0"
     style="fill:#ffffff;stroke-width:0.88206452" />
  <path
     d="M 62.207248,119.06656 H 38.538193 L 38.447073,76.65469 H 62.11604 v 4.793668 H 43.208107 v 13.423263 h 17.671017 v 4.75759 H 43.208107 v 15.461879 h 18.945335 z"
     id="path62"
     inkscape:connector-curvature="0"
     style="fill:#ffffff;stroke-width:0.88206452" />
  <path
     d="m 86.446205,75.446879 c -2.943449,0 -5.857967,0.579781 -8.577284,1.706178 -2.719405,1.126396 -5.190244,2.777356 -7.271563,4.858674 -2.08132,2.08123 -3.73228,4.55216 -4.858676,7.27148 -1.126397,2.71931 -1.70609,5.63392 -1.70609,8.57728 0,2.943449 0.579693,5.857969 1.70609,8.577279 1.126396,2.71967 2.777356,5.19034 4.858676,7.27113 2.081319,2.08167 4.552158,3.73289 7.271563,4.85929 2.719317,1.1264 5.633835,1.70591 8.577284,1.70591 2.943097,0 5.85832,-0.57951 8.577725,-1.70591 2.718523,-1.1264 5.19007,-2.77762 7.27086,-4.85929 2.08167,-2.08079 3.73289,-4.55146 4.85929,-7.27113 1.1264,-2.71931 1.70591,-5.63383 1.70591,-8.577279 0,-2.94336 -0.57951,-5.85797 -1.70591,-8.57728 -1.1264,-2.71932 -2.77762,-5.19025 -4.85929,-7.27148 -2.08079,-2.081318 -4.552337,-3.732278 -7.27086,-4.858674 -2.719405,-1.126397 -5.634628,-1.706178 -8.577725,-1.706178 z m 0.05945,4.931358 c 2.304129,0 4.585148,0.453646 6.71357,1.33527 2.128421,0.881534 4.061907,2.173764 5.69108,3.802754 1.629175,1.629 2.921395,3.56293 3.802585,5.69135 0.88206,2.12833 1.33544,4.40953 1.33544,6.7133 0,4.652449 -1.84881,9.114289 -5.138025,12.404389 -3.290101,3.28922 -7.752465,5.13714 -12.40465,5.13714 -4.652273,0 -9.11402,-1.84792 -12.403679,-5.13802 -3.289748,-3.28922 -5.137938,-7.75123 -5.138026,-12.403509 -8.9e-5,-4.65245 1.847925,-9.11446 5.137673,-12.40429 3.289748,-3.28993 7.751583,-5.138207 12.404032,-5.138384 z"
     id="path64"
     inkscape:connector-curvature="0"
     style="fill:#ffffff;stroke-width:0.88206452" />
  <path
     d="m 206.59363,75.446879 c -2.94345,0 -5.85868,0.579781 -8.57808,1.706178 -2.71852,1.126396 -5.19007,2.777356 -7.27086,4.858584 -2.08167,2.08132 -3.7329,4.55216 -4.85929,7.27157 -1.1264,2.71931 -1.70592,5.63392 -1.70592,8.57728 0,2.943359 0.57952,5.857969 1.70592,8.577279 1.12639,2.71967 2.77762,5.19034 4.85929,7.27113 2.08079,2.08167 4.55234,3.73289 7.27086,4.85929 2.7194,1.1264 5.63463,1.70591 8.57808,1.70591 2.94345,0 5.85779,-0.57951 8.57719,-1.70591 2.71941,-1.1264 5.19007,-2.77762 7.27174,-4.85929 2.08079,-2.08079 3.73202,-4.55146 4.85841,-7.27113 1.1264,-2.71931 1.70592,-5.63392 1.70592,-8.577279 0,-2.94336 -0.57952,-5.85797 -1.70592,-8.57728 -1.12639,-2.71941 -2.77762,-5.19025 -4.85841,-7.27157 -2.08167,-2.081228 -4.55233,-3.732188 -7.27174,-4.858584 -2.7194,-1.126397 -5.63374,-1.706178 -8.57719,-1.706178 z m 0.0591,4.931358 c 2.30396,0 4.58498,0.453646 6.7134,1.33527 2.12842,0.881534 4.0619,2.173764 5.69108,3.802754 1.62917,1.629 2.9214,3.56293 3.80258,5.69126 0.88206,2.12842 1.33544,4.40962 1.33544,6.71339 0,4.652449 -1.84792,9.114289 -5.13802,12.404389 -3.2901,3.28922 -7.75159,5.13714 -12.40448,5.13714 -4.652,0 -9.11437,-1.84792 -12.40359,-5.13802 -3.2901,-3.28922 -5.13802,-7.75123 -5.13802,-12.403509 0,-4.65245 1.84792,-9.11446 5.13802,-12.40429 3.28922,-3.28993 7.75159,-5.138207 12.40359,-5.138384 z"
     id="path66"
     inkscape:connector-curvature="0"
     style="fill:#ffffff;stroke-width:0.88206452" />
  <path
     d="m 133.97414,75.219395 c -2.39481,0.03449 -4.81872,0.454528 -7.18442,1.294429 -10.81235,3.839627 -17.04943,15.256537 -14.47644,26.465906 2.57386,11.20901 13.1701,18.73655 24.56726,17.43374 11.39627,-1.30193 20.03168,-11.95815 20.03168,-21.761059 h -5.31708 c 0,7.409159 -6.57579,15.479879 -15.31882,16.478369 -8.74302,0.99938 -16.79803,-4.71463 -18.77827,-13.3414 -1.98023,-8.626319 2.77586,-17.317829 11.07344,-20.264282 7.41904,-2.634727 15.49611,0.08627 19.88085,6.379973 h 6.14976 c -3.77259,-7.721593 -11.45008,-12.421498 -19.60477,-12.677297 -0.34048,-0.01067 -0.68184,-0.01323 -1.02319,-0.0088 z"
     id="path68"
     inkscape:connector-curvature="0"
     style="fill:#ffffff;stroke-width:0.88206452" />
  <path
     d="m 156.91222,98.651881 h -29.68147 v 4.800279 h 25.99621 z"
     id="path70"
     inkscape:connector-curvature="0"
     style="fill:#ffffff;stroke-width:0.88206452" />
  <path
     d="m 183.31594,119.06656 h -23.66932 l -0.0909,-42.41187 h 23.66844 v 4.793668 h -18.90794 v 13.423263 h 17.67128 v 4.75759 h -17.67128 v 15.461879 h 18.94587 z"
     id="path72"
     inkscape:connector-curvature="0"
     style="fill:#ffffff;stroke-width:0.88206452" />
  <path
     d="m 305.11406,75.446879 c -2.94345,0 -5.85779,0.579781 -8.5772,1.706178 -2.7194,1.126396 -5.19006,2.777356 -7.27174,4.858584 -2.08167,2.08132 -3.73201,4.55216 -4.85841,7.27157 -1.12639,2.71931 -1.70679,5.63392 -1.70679,8.57728 0,2.943359 0.5804,5.857969 1.70679,8.577279 1.1264,2.71967 2.77674,5.19034 4.85841,7.27113 2.08168,2.08167 4.55234,3.73289 7.27174,4.85929 2.71941,1.1264 5.63375,1.70591 8.5772,1.70591 2.94345,0 5.85779,-0.57951 8.57719,-1.70591 2.71941,-1.1264 5.19007,-2.77762 7.27174,-4.85929 2.0808,-2.08079 3.73202,-4.55146 4.85842,-7.27113 1.12639,-2.71931 1.70591,-5.63392 1.70591,-8.577279 0,-2.94336 -0.57952,-5.85797 -1.70591,-8.57728 -1.1264,-2.71941 -2.77762,-5.19025 -4.85842,-7.27157 -2.08167,-2.081228 -4.55233,-3.732188 -7.27174,-4.858584 -2.7194,-1.126397 -5.63374,-1.706178 -8.57719,-1.706178 z m 0.0591,4.931358 c 2.30395,0 4.58497,0.453646 6.71339,1.33527 2.12842,0.881534 4.06279,2.173764 5.69108,3.802754 1.62917,1.629 2.9214,3.56293 3.80346,5.69126 0.88119,2.12842 1.33457,4.40962 1.33457,6.71339 0,4.652449 -1.84793,9.114289 -5.13803,12.404389 -3.2901,3.28922 -7.75158,5.13714 -12.40447,5.13714 -4.65201,0 -9.11349,-1.84792 -12.40359,-5.13802 -3.28922,-3.28922 -5.13803,-7.75123 -5.13803,-12.403509 0,-4.65245 1.84793,-9.11446 5.13803,-12.40429 3.28921,-3.28993 7.75158,-5.138207 12.40359,-5.138384 z"
     id="path74"
     inkscape:connector-curvature="0"
     style="fill:#ffffff;stroke-width:0.88206452" />
  <path
     d="m 354.56348,75.218601 v 8.82e-4 c -2.39392,0.03449 -4.81784,0.45444 -7.18353,1.29443 -10.81235,3.839627 -17.04943,15.256538 -14.47645,26.465907 2.57387,11.20971 13.17011,18.73637 24.56726,17.43356 7.93506,-0.90676 14.52761,-6.3491 17.80271,-12.88079 h -6.07919 c -2.74234,3.94019 -7.1553,7.00712 -12.32773,7.59899 -8.74302,0.9985 -16.79804,-4.71552 -18.77827,-13.34211 -1.98024,-8.626329 2.77585,-17.317919 11.07344,-20.264372 7.41904,-2.634639 15.49611,0.08635 19.88085,6.380063 h 6.14975 c -3.77259,-7.721595 -11.45008,-12.4215 -19.60476,-12.677298 -0.34048,-0.01085 -0.68184,-0.01288 -1.02408,-0.0093 z"
     id="path76"
     inkscape:connector-curvature="0"
     style="fill:#ffffff;stroke-width:0.88206452" />
  <path
     d="m 447.1582,119.06656 h -23.66843 l -0.0917,-42.41187 h 23.66932 v 4.793668 h -18.90793 v 13.423263 h 17.67128 v 4.75759 h -17.67128 v 15.461879 h 18.94498 z"
     id="path78"
     inkscape:connector-curvature="0"
     style="fill:#ffffff;stroke-width:0.88206452" />
  <path
     d="m 380.71757,76.65469 h 4.8346 v 42.41187 h -4.8346 z"
     id="path80"
     inkscape:connector-curvature="0"
     style="fill:#ffffff;stroke-width:0.88206452" />
  <path
     d="m 409.46141,119.06656 h 6.36763 l -21.98723,-22.827739 -3.96488,3.00369 z"
     id="path82"
     inkscape:connector-curvature="0"
     style="fill:#ffffff;stroke-width:0.88206452" />
  <path
     d="m 409.34145,76.65469 h 6.24766 l -32.56053,33.76146 1.32222,-8.7709 z"
     id="path84"
     inkscape:connector-curvature="0"
     style="fill:#ffffff;stroke-width:0.88206452" />
  <path
     d="m 454.63635,76.65469 h 34.60251 v 4.793668 h -34.60251 z"
     id="path86"
     inkscape:connector-curvature="0"
     style="fill:#ffffff;stroke-width:0.88206452" />
  <path
     d="m 469.41446,76.65469 h 4.89722 v 42.41187 h -4.89722 z"
     id="path88"
     inkscape:connector-curvature="0"
     style="fill:#ffffff;stroke-width:0.88206452" />
  <path
     d="m 243.44452,78.105069 6.07037,-17.498308 16.11973,0.04842 0.1376,7.84517 -10.63858,-0.08556 -2.17341,8.053161 10.92349,7.901879 c 5.38324,-2.2116 9.22551,-7.022549 10.01584,-12.540303 0.78945,-5.517667 -1.59918,-10.859273 -6.22649,-13.923477 -4.62731,-3.064116 -10.73032,-3.26558 -15.94508,-0.67769 l -17.5425,8.705624 26.43723,53.273695 -6.88804,3.418 -30.01577,-60.484308 24.9686,-12.390802 c 8.17938,-4.05882 17.91208,-3.074788 24.8654,2.513796 6.95331,5.588673 9.83325,14.742209 7.35642,23.384413 -2.47596,8.642202 -10.17021,15.056752 -18.35136,17.632902 z"
     id="path90"
     inkscape:connector-curvature="0"
     style="fill:#ffffff;stroke-width:0.88206452" />
  <path
     d="m 263.58646,18.750241 -2.80408,20.81443 5.26769,1.01949 7.39082,-20.389654 z"
     id="path92"
     inkscape:connector-curvature="0"
     style="fill:#ffffff;stroke-width:0.88206452" />
  <path
     d="m 284.2303,25.291861 -10.36426,18.010823 4.58762,3.05847 13.08366,-15.886952 z"
     id="path94"
     inkscape:connector-curvature="0"
     style="fill:#ffffff;stroke-width:0.88206452" />
  <path
     d="m 298.07871,37.780342 -15.03743,13.42317 3.48327,5.182306 16.56605,-10.3647 z"
     id="path96"
     inkscape:connector-curvature="0"
     style="fill:#ffffff;stroke-width:0.88206452" />
  <path
     d="m 13.30612,135.18276 v 8.8e-4 c -1.432826,0.0203 -2.883204,0.27168 -4.298477,0.77445 -6.4698816,2.29778 -10.2017467,9.12849 -8.6620069,15.83571 1.5397327,6.70722 7.8802331,11.21104 14.6996499,10.43217 4.74833,-0.54247 8.692923,-3.79905 10.652517,-7.70748 h -3.637369 c -1.641081,2.35776 -4.281541,4.19334 -7.376529,4.54617 -5.2313487,0.59803 -10.0513903,-2.82085 -11.2363117,-7.98269 -1.1849302,-5.16184 1.6610951,-10.36249 6.6259367,-12.12574 4.439519,-1.57625 9.272262,0.052 11.896316,3.81758 h 3.67962 c -2.257556,-4.62026 -6.851612,-7.43228 -11.730664,-7.58488 -0.203757,-0.007 -0.407955,-0.007 -0.612682,-0.004 z"
     id="path98"
     inkscape:connector-curvature="0"
     style="fill:#ffffff;stroke-width:0.88206452" />
  <path
     d="m 56.63657,135.60438 c -1.761219,0 -3.505237,0.34754 -5.132381,1.02144 -1.627145,0.67389 -3.105573,1.66181 -4.35096,2.90728 -1.245387,1.24548 -2.233211,2.72382 -2.907196,4.35034 -0.673986,1.62741 -1.020902,3.37125 -1.020902,5.13274 0,1.76148 0.346916,3.50532 1.020902,5.13273 0.673985,1.62653 1.661809,3.10487 2.907196,4.35034 1.245387,1.24548 2.723815,2.23339 4.35096,2.90729 1.627144,0.67389 3.371162,1.02143 5.132381,1.02143 1.761218,0 3.505148,-0.34754 5.132292,-1.02143 1.627144,-0.6739 3.105661,-1.66181 4.35096,-2.90729 1.245387,-1.24547 2.233299,-2.72381 2.907284,-4.35034 0.673986,-1.62741 1.020902,-3.37125 1.020902,-5.13273 0,-1.76149 -0.346916,-3.50533 -1.020902,-5.13274 -0.673985,-1.62652 -1.661897,-3.10486 -2.907284,-4.35034 -1.245299,-1.24547 -2.723816,-2.23339 -4.35096,-2.90728 -1.627144,-0.6739 -3.371074,-1.02144 -5.132292,-1.02144 z m 0.03555,2.95139 c 1.37849,0 2.743485,0.2708 4.01701,0.79827 1.273525,0.52748 2.430705,1.30105 3.405475,2.27573 0.974681,0.97468 1.747899,2.13195 2.275373,3.40565 0.527563,1.2737 0.799063,2.63825 0.798974,4.01692 -8.8e-5,2.7838 -1.10602,5.45381 -3.074524,7.42169 -1.968591,1.96877 -4.638424,3.07488 -7.422308,3.07488 -2.783708,0 -5.453452,-1.10611 -7.421868,-3.07488 -1.968415,-1.96788 -3.074259,-4.63789 -3.074347,-7.42169 -8.8e-5,-2.7838 1.105756,-5.4538 3.074171,-7.42257 1.968415,-1.96789 4.638248,-3.074 7.422044,-3.074 z"
     id="path100"
     inkscape:connector-curvature="0"
     style="fill:#ffffff;stroke-width:0.88206452" />
  <path
     d="m 92.248955,136.07188 h -2.820843 v 25.377 h 2.820843 z"
     id="path102"
     inkscape:connector-curvature="0"
     style="fill:#ffffff;stroke-width:0.88206452" />
  <path
     d="M 103.5579,159.07083 H 89.428112 v 2.37805 H 103.5579 Z"
     id="path104"
     inkscape:connector-curvature="0"
     style="fill:#ffffff;stroke-width:0.88206452" />
  <path
     d="m 131.21327,135.60438 c -1.76148,0 -3.50532,0.34754 -5.13185,1.02144 -1.62741,0.67389 -3.10575,1.66181 -4.35122,2.90728 -1.24548,1.24548 -2.23339,2.72382 -2.90729,4.35034 -0.67389,1.62741 -1.02143,3.37125 -1.02143,5.13274 0,1.76148 0.34754,3.50532 1.02143,5.13273 0.6739,1.62653 1.66181,3.10487 2.90729,4.35034 1.24547,1.24548 2.72381,2.23339 4.35122,2.90729 1.62653,0.67389 3.37037,1.02143 5.13185,1.02143 1.76149,0 3.50533,-0.34754 5.13274,-1.02143 1.62652,-0.6739 3.10486,-1.66181 4.35034,-2.90729 1.24547,-1.24547 2.23339,-2.72381 2.90728,-4.35034 0.6739,-1.62741 1.02143,-3.37125 1.02143,-5.13273 0,-1.76149 -0.34753,-3.50533 -1.02143,-5.13274 -0.67389,-1.62652 -1.66181,-3.10486 -2.90728,-4.35034 -1.24548,-1.24547 -2.72382,-2.23339 -4.35034,-2.90728 -1.62741,-0.6739 -3.37125,-1.02144 -5.13274,-1.02144 z m 0.0353,2.95139 c 1.37866,0 2.7441,0.2708 4.01692,0.79827 1.2737,0.52748 2.43097,1.30105 3.40565,2.27573 0.97468,0.97468 1.74825,2.13195 2.27573,3.40565 0.52747,1.2737 0.79915,2.63825 0.79915,4.01692 0,2.7838 -1.10611,5.45381 -3.07488,7.42169 -1.96877,1.96877 -4.63878,3.07488 -7.42257,3.07488 -2.7838,0 -5.45293,-1.10611 -7.4217,-3.07488 -1.96788,-1.96788 -3.07399,-4.63789 -3.07399,-7.42169 0,-2.7838 1.10523,-5.4538 3.07399,-7.42257 1.96877,-1.96789 4.6379,-3.074 7.4217,-3.074 z"
     id="path106"
     inkscape:connector-curvature="0"
     style="fill:#ffffff;stroke-width:0.88206452" />
  <path
     d="m 163.1246,136.07188 h 2.82173 v 25.377 h -2.82173 z"
     id="path108"
     inkscape:connector-curvature="0"
     style="fill:#ffffff;stroke-width:0.88206452" />
  <path
     d="m 173.0249,152.91314 c 4.21274,-1.00115 7.00888,-4.99778 6.50434,-9.29873 -0.50366,-4.30094 -4.14835,-7.54253 -8.4784,-7.54253 h -7.92624 l 1.57802,2.83848 h 6.31029 c 2.02433,0 3.89431,1.07965 4.90692,2.83319 1.01173,1.75267 1.01173,3.91284 0,5.6655 -1.01261,1.75355 -2.88259,2.8332 -4.90692,2.8332 h -6.25737 l -0.10496,3.0537 h 4.76226 l 5.99098,8.15293 h 3.64911 z"
     id="path110"
     inkscape:connector-curvature="0"
     style="fill:#ffffff;stroke-width:0.88206452" />
  <path
     d="m 488.86839,113.63128 v 5.45645 h 0.90941 v -4.64407 l 1.47746,4.64407 h 0.79562 l 1.36455,-4.64407 v 4.64407 h 0.79562 v -5.45645 h -1.25076 l -1.36368,4.41208 -1.36455,-4.41208 z m -3.18337,0.81326 v 4.64319 h 0.79562 v -4.64319 h 1.9326 v -0.81326 h -4.43325 v 0.81326 z"
     id="path112"
     inkscape:connector-curvature="0"
     style="clip-rule:evenodd;fill:#ffffff;fill-rule:evenodd;stroke-width:0.88206452" />
  <path
     d="m 0.49231461,48.671899 c 0,3.59847 2.39903119,6.511665 5.36927759,6.511665 H 20.769885 c 0.342771,0 0.685453,0.342682 0.685453,0.799679 0,0.45691 -0.285613,0.79968 -0.685453,0.79968 H 0.43521769 v 5.769143 H 23.168924 c 2.970264,0 5.369304,-2.970264 5.369304,-6.568735 0,-3.598558 -2.39904,-6.568822 -5.369304,-6.568822 H 8.3177186 c -0.3427262,0 -0.6854259,-0.342771 -0.6854259,-0.79968 0,-0.456998 0.2856036,-0.79968 0.6854259,-0.79968 H 28.481158 V 42.160145 H 5.8625537 c -2.9702465,0 -5.36927941,2.913195 -5.36927941,6.511754 z"
     id="path114"
     inkscape:connector-curvature="0"
     style="fill:#ffffff;stroke-width:0.88206452" />
  <path
     d="M 30.138204,42.160057 V 62.438015 H 37.27834 V 49.700033 l 13.59482,12.737982 h 7.425748 V 42.160057 H 51.158772 V 54.840882 L 37.563953,42.160057 Z"
     id="path116"
     inkscape:connector-curvature="0"
     style="fill:#ffffff;stroke-width:0.88206452" />
  <path
     d="m 67.095562,51.070938 v -8.910881 h -7.254364 v 20.277958 h 7.254364 v -8.968038 l 11.538374,8.968038 h 9.31072 L 74.806834,52.327615 87.944656,42.160057 h -9.31072 z"
     id="path118"
     inkscape:connector-curvature="0"
     style="fill:#ffffff;stroke-width:0.88206452" />
  <path
     d="m 90.056142,42.160057 c 0.570696,0 1.084058,0.228455 1.485397,0.628295 v 0 c 0.400457,0.39984 0.570696,0.856837 0.62803,1.485132 0,0.571048 -0.227573,1.085204 -0.62803,1.485132 -0.400457,0.39984 -0.913819,0.628294 -1.485397,0.628294 -0.570695,0 -1.084939,-0.228454 -1.485396,-0.628294 -0.399487,-0.39984 -0.627942,-0.913907 -0.627942,-1.485132 0,-0.571225 0.228455,-1.085292 0.627942,-1.485132 0.401339,-0.39984 0.914701,-0.628295 1.485396,-0.628295 z m 0,3.884348 c 0.514244,0 0.913819,-0.171297 1.256942,-0.514067 0.342241,-0.342683 0.513362,-0.79968 0.513362,-1.25659 0,-0.456997 -0.171121,-0.913907 -0.513362,-1.256677 -0.343123,-0.342682 -0.742698,-0.514067 -1.256942,-0.514067 -0.456909,0 -0.913819,0.171385 -1.256942,0.514067 -0.342241,0.34277 -0.514243,0.742522 -0.514243,1.256677 0,0.45691 0.172002,0.913907 0.514243,1.25659 0.343123,0.34277 0.742699,0.514067 1.256942,0.514067 z"
     id="path120"
     inkscape:connector-curvature="0"
     style="clip-rule:evenodd;fill:#ffffff;fill-rule:evenodd;stroke-width:0.88206452" />
  <path
     d="m 91.028177,43.873644 v 0.05707 0 c 0,0.228454 -0.114668,0.399839 -0.285789,0.456997 0.01588,0.0314 0.03528,0.0628 0.05645,0.09535 0.05469,0.086 0.114668,0.180206 0.114668,0.304489 l 0.05733,0.514067 H 90.62772 L 90.57127,44.78755 c 0,-0.114227 -0.114668,-0.228455 -0.285789,-0.228455 h -0.742698 v 0.799592 h -0.343125 v -2.113426 h 1.199607 c 0.343123,0 0.628912,0.285613 0.628912,0.628383 z m -0.628912,-0.285789 h -0.856484 v 0 0.685452 h 0.856484 c 0.171121,0 0.285789,-0.114227 0.285789,-0.285612 v -0.114227 c 0,-0.171386 -0.114668,-0.285613 -0.285789,-0.285613 z"
     id="path122"
     inkscape:connector-curvature="0"
     style="clip-rule:evenodd;fill:#ffffff;fill-rule:evenodd;stroke-width:0.88206452" />
</svg>
