<?xml version="1.0" encoding="UTF-8" standalone="no"?>
<svg
   xmlns:dc="http://purl.org/dc/elements/1.1/"
   xmlns:cc="http://creativecommons.org/ns#"
   xmlns:rdf="http://www.w3.org/1999/02/22-rdf-syntax-ns#"
   xmlns:svg="http://www.w3.org/2000/svg"
   xmlns="http://www.w3.org/2000/svg"
   xmlns:sodipodi="http://sodipodi.sourceforge.net/DTD/sodipodi-0.dtd"
   xmlns:inkscape="http://www.inkscape.org/namespaces/inkscape"
   width="434.42398"
   height="164.75789"
   viewBox="0 0 434.42398 164.75789"
   version="1.1"
   id="svg217"
   sodipodi:docname="nintendo.svg"
   style="fill:none"
   inkscape:version="0.92.5 (2060ec1f9f, 2020-04-08)">
  <metadata
     id="metadata223">
    <rdf:RDF>
      <cc:Work
         rdf:about="">
        <dc:format>image/svg+xml</dc:format>
        <dc:type
           rdf:resource="http://purl.org/dc/dcmitype/StillImage" />
        <dc:title></dc:title>
      </cc:Work>
    </rdf:RDF>
  </metadata>
  <defs
     id="defs221" />
  <sodipodi:namedview
     pagecolor="#ffffff"
     bordercolor="#666666"
     borderopacity="1"
     objecttolerance="10"
     gridtolerance="10"
     guidetolerance="10"
     inkscape:pageopacity="0"
     inkscape:pageshadow="2"
     inkscape:window-width="1366"
     inkscape:window-height="743"
     id="namedview219"
     showgrid="false"
     inkscape:pagecheckerboard="true"
     inkscape:zoom="0.93919681"
     inkscape:cx="209.44285"
     inkscape:cy="63.52091"
     inkscape:window-x="0"
     inkscape:window-y="0"
     inkscape:window-maximized="1"
     inkscape:current-layer="svg217" />
  <path
     d="m 9.3629705,164.729 c 1.3834015,-0.001 2.7497005,-0.30553 4.0039205,-0.88913 1.233215,-0.54423 2.32751,-1.36056 3.200893,-2.38814 v 0 l -2.384796,-2.38933 c -0.585279,0.70414 -1.312223,1.27701 -2.133571,1.68279 -0.805701,0.39027 -1.690279,0.58958 -2.5854785,0.58361 -0.75542,0.008 -1.504957,-0.13367 -2.205215,-0.41652 -0.700258,-0.28405 -1.337346,-0.70296 -1.874384,-1.23525 -0.51712,-0.51916 -0.925705,-1.13738 -1.202006,-1.81646 -0.29622,-0.72205 -0.44538,-1.49542 -0.438732,-2.27476 -0.0081,-0.78769 0.136855,-1.56822 0.426714,-2.30101 0.270572,-0.68028 0.671531,-1.30208 1.180368,-1.8296 0.510281,-0.52274 1.120599,-0.93687 1.794589,-1.21973 0.702358,-0.29836 1.458292,-0.44874 2.221314,-0.44397 0.9201795,-0.004 1.8285195,0.20647 2.6528745,0.61583 0.851901,0.42846 1.59806,1.04071 2.183935,1.7926 v 0 l 2.460582,-2.46572 c -0.865148,-1.05025 -1.966007,-1.8821 -3.212947,-2.42632 -1.28167,-0.59316 -2.676219,-0.90108 -4.0880605,-0.90346 -1.261035,-0.008 -2.511221,0.23392 -3.678127,0.7125 -1.105549,0.44755 -2.114988,1.10396 -2.973763,1.93223 -0.84764,0.82946 -1.521839,1.81766 -1.98330102,2.90969 -0.478373,1.14573 -0.725703,2.37381 -0.72776599991,3.61383 -0.0021000001,1.24121 0.24118199991,2.47049 0.71574699991,3.61622 0.45599802,1.08845 1.12594702,2.07426 1.97007802,2.89895 0.859181,0.82707 1.869037,1.48348 2.974969,1.93104 1.174794,0.47977 2.433227,0.72205 3.702163,0.71011 z m 47.5717515,0.0275 c 1.256727,0.008 2.502831,-0.23272 3.664916,-0.7125 1.10062,-0.44636 2.102063,-1.10635 2.946683,-1.94178 0.84462,-0.83543 1.515591,-1.82959 1.974242,-2.9252 0.480373,-1.13738 0.727899,-2.36069 0.727899,-3.59593 0,-1.23525 -0.247526,-2.45856 -0.727899,-3.59594 -0.458651,-1.0968 -1.129622,-2.09096 -1.974123,-2.9252 -0.84462,-0.83543 -1.846063,-1.49542 -2.946802,-1.94178 -2.343026,-0.94881 -4.962936,-0.94881 -7.305842,0 -1.10074,0.44636 -2.102182,1.10635 -2.946803,1.94178 -0.844501,0.83424 -1.515471,1.8284 -1.974242,2.9252 -0.480015,1.13738 -0.727302,2.36069 -0.727302,3.59594 0,1.23524 0.247287,2.45855 0.727302,3.59593 0.458771,1.09561 1.129741,2.08977 1.974361,2.9252 0.844502,0.83543 1.845944,1.49542 2.946684,1.94178 1.154565,0.47739 2.392912,0.71847 3.64212,0.71131 z m 0,-3.3811 c -0.737566,0.007 -1.468687,-0.13725 -2.148489,-0.42369 -0.679802,-0.28643 -1.293963,-0.70892 -1.804888,-1.24002 -0.504123,-0.53348 -0.900356,-1.16005 -1.167216,-1.84272 -0.569287,-1.47632 -0.569287,-3.11257 0,-4.5889 0.269128,-0.67789 0.665241,-1.29969 1.167216,-1.82959 0.510925,-0.5311 1.125086,-0.95359 1.804888,-1.24002 0.679802,-0.28643 1.410923,-0.43084 2.148489,-0.42368 0.759168,-0.006 1.511414,0.1456 2.209237,0.44397 0.666435,0.28285 1.268423,0.69818 1.769323,1.21973 0.501975,0.5299 0.898088,1.1517 1.167216,1.82959 0.568928,1.47633 0.568928,3.11258 0,4.5889 -0.26686,0.68267 -0.663212,1.30924 -1.167216,1.84272 -0.50102,0.52155 -1.102888,0.93688 -1.769323,1.21973 -0.697584,0.29837 -1.449353,0.44875 -2.208043,0.44278 z m 55.177928,3.10183 v -3.25221 h -9.61604 v -14.54008 h -3.637226 v 17.7899 z m 45.89117,0 v -3.25221 h -9.61581 v -14.54008 h -3.64009 v 17.7899 z m 46.24109,0 v -3.20209 h -9.9655 v -4.22012 h 6.50323 v -3.10183 h -6.50323 v -4.06258 h 9.86644 v -3.20209 h -13.50892 v 17.7899 z m 40.36801,0.25302 c 1.38323,-0.001 2.74976,-0.30553 4.0041,-0.88914 1.23286,-0.54422 2.32727,-1.36175 3.20089,-2.38814 v 0 l -2.38575,-2.38814 c -0.5848,0.70415 -1.31282,1.27702 -2.13393,1.6828 -0.80559,0.39026 -1.68996,0.58957 -2.58506,0.58361 -0.75547,0.008 -1.50497,-0.13367 -2.20434,-0.41653 -0.70057,-0.28404 -1.33789,-0.70295 -1.87375,-1.23524 -0.51797,-0.51916 -0.92614,-1.13738 -1.20302,-1.81646 -0.29599,-0.72206 -0.44517,-1.49543 -0.4392,-2.27476 -0.008,-0.78769 0.13725,-1.56823 0.42726,-2.30102 0.26973,-0.68028 0.67073,-1.30208 1.17915,-1.82959 0.51081,-0.52274 1.12067,-0.93807 1.79498,-1.21973 0.70177,-0.29837 1.45843,-0.44994 2.22106,-0.44397 0.92374,-0.004 1.83556,0.20886 2.66144,0.6206 0.85214,0.42846 1.59806,1.04071 2.18405,1.7926 v 0 l 2.46094,-2.46571 c -0.86526,-1.05026 -1.96684,-1.88211 -3.21282,-2.42633 -1.28179,-0.59197 -2.67577,-0.89988 -4.08765,-0.90346 -1.2603,-0.008 -2.51106,0.23392 -3.67828,0.7125 -1.10515,0.44755 -2.11483,1.10277 -2.97413,1.93104 -0.84856,0.82827 -1.52287,1.81766 -1.98475,2.90968 -0.47858,1.14574 -0.72563,2.37382 -0.72802,3.61384 -0.001,1.24121 0.24109,2.47049 0.71609,3.61741 0.4559,1.08726 1.12544,2.07307 1.96923,2.89776 0.86049,0.82707 1.87017,1.48348 2.97532,1.93103 1.17319,0.47739 2.42991,0.71609 3.69619,0.70415 z m 48.15064,-0.25302 v -14.54007 h 5.89815 v -3.25341 h -15.46383 v 3.25341 h 5.9244 v 14.53768 z m 41.69635,0 v -17.7899 h -3.6389 v 17.7899 z m 41.9255,0.28047 c 1.25672,0.008 2.50271,-0.23273 3.66515,-0.71251 1.10038,-0.44636 2.1017,-1.10635 2.94668,-1.94178 0.84379,-0.83543 1.51571,-1.82959 1.97401,-2.9252 0.47977,-1.13738 0.72682,-2.36069 0.72682,-3.59593 0,-1.23524 -0.24705,-2.45855 -0.72682,-3.59593 -0.4583,-1.0968 -1.13022,-2.09097 -1.97401,-2.9252 -0.84498,-0.83543 -1.8463,-1.49542 -2.94668,-1.94178 -2.34279,-0.94881 -4.96246,-0.94881 -7.30525,0 -1.10038,0.44636 -2.10051,1.10635 -2.94549,1.94178 -0.84378,0.83543 -1.51451,1.82959 -1.974,2.9252 -0.48097,1.13738 -0.72802,2.36069 -0.72802,3.59593 0,1.23524 0.24705,2.45855 0.72802,3.59593 0.45949,1.09561 1.13022,2.08977 1.974,2.9252 0.84498,0.83543 1.84511,1.49542 2.94549,1.94178 1.15409,0.4762 2.39172,0.71847 3.6401,0.71012 z m 0,-3.38111 c -0.75547,0.007 -1.50378,-0.14441 -2.19599,-0.44397 -0.66238,-0.28405 -1.26031,-0.69938 -1.75799,-1.21973 -0.50484,-0.53348 -0.90107,-1.15886 -1.16841,-1.84272 -0.56809,-1.47633 -0.56809,-3.11258 0,-4.58891 0.26973,-0.67789 0.66596,-1.29969 1.16841,-1.82959 0.49768,-0.52035 1.09561,-0.93568 1.75799,-1.21973 0.69221,-0.29956 1.44052,-0.45113 2.19599,-0.44397 0.75904,-0.006 1.51093,0.1456 2.20792,0.44397 0.66715,0.28286 1.26866,0.69818 1.76992,1.21973 0.50245,0.5299 0.89868,1.1517 1.16721,1.82959 0.57048,1.47633 0.57048,3.11258 0,4.58891 -0.26614,0.68266 -0.66237,1.30924 -1.16721,1.84272 -0.50126,0.52155 -1.10277,0.93687 -1.76992,1.21973 -0.69818,0.29836 -1.45007,0.44874 -2.20792,0.44158 z m 45.36269,3.10183 v -11.90011 l 8.96178,11.90011 h 3.21283 v -17.7899 h -3.41333 v 11.51343 l -8.73622,-11.51343 h -3.46584 v 17.7899 z"
     id="path189"
     inkscape:connector-curvature="0"
     style="fill:#ffffff;stroke-width:1.1934725" />
  <path
     d="m 59.946022,125.81931 c -33.033178,-0.01 -55.1056081,-20.32456 -55.1056081,-44.955783 0,-24.631222 22.1227791,-45.179089 55.0552591,-45.115969 H 371.10343 c 32.93225,-0.06313 55.05492,20.484747 55.05492,45.115969 0,24.631223 -22.0729,44.946133 -55.10584,44.955783 z"
     id="path191"
     inkscape:connector-curvature="0"
     style="fill:none;stroke:#ffffff;stroke-width:13.55178165;stroke-miterlimit:4;stroke-dasharray:none;stroke-opacity:1" />
  <path
     d="m 386.79965,63.861843 c 0,-4.280628 3.473,-7.753632 7.75399,-7.753632 4.28098,0 7.75399,3.473004 7.75399,7.753632 0,4.280628 -3.47301,7.753633 -7.75399,7.753633 -4.28099,0 -7.75399,-3.473005 -7.75399,-7.753633 z m 7.75399,6.27671 c 3.46107,0 6.2705,-2.809553 6.2705,-6.270981 0,-3.467276 -2.80943,-6.271101 -6.2705,-6.271101 -3.46227,0 -6.2717,2.809553 -6.2717,6.271101 0,3.461428 2.80943,6.270981 6.2717,6.270981 z"
     id="path195"
     inkscape:connector-curvature="0"
     style="clip-rule:evenodd;fill:#ffffff;fill-rule:evenodd;stroke-width:1.1934725" />
  <path
     d="m 398.41333,61.940711 c 0,-1.644247 -1.21735,-2.475024 -3.66874,-2.475024 h -3.36917 v 8.590257 h 2.09335 v -3.519192 h 1.02161 l 1.64461,3.519192 h 2.32488 l -1.92149,-3.836417 c 1.1708,-0.294311 1.87495,-1.148121 1.87495,-2.278816 z m -3.92295,1.338479 h -1.02042 v -2.498057 h 0.91659 c 1.25792,0 1.87495,0.386565 1.87495,1.280715 0,0.85381 -0.57645,1.217342 -1.77112,1.217342 z"
     id="path197"
     inkscape:connector-curvature="0"
     style="clip-rule:evenodd;fill:#ffffff;fill-rule:evenodd;stroke-width:1.1934725" />
  <path
     d="m 230.82712,96.405207 c 0,-1.88067 -0.0119,-2.03069 -0.0119,-2.03069 l 15.09266,-0.0119 c -2.63638,7.909383 -11.27235,13.742003 -21.49564,13.742003 -12.3226,0 -22.30958,-8.417093 -22.30958,-18.807223 0,-10.39013 9.98698,-18.813065 22.30958,-18.813065 12.32261,0 22.35494,8.607445 22.35494,18.997575 0,0.0175 -28.53951,0.006 -28.53951,0.006 0,0 -0.0119,5.08264 -0.0119,6.91713 0,6.126813 4.10196,7.488323 6.34091,7.488323 2.23777,0 6.27051,-1.36151 6.27051,-7.488323 z m -11.59578,-18.70338 c -0.96433,1.67301 -1.02758,3.63448 -1.00371,6.57102 l 12.63887,0.006 c 0.0239,-2.93654 -0.0167,-4.89801 -0.97984,-6.57675 -1.18273,-2.064351 -3.35604,-3.045146 -5.32766,-3.057678 0,0 0.001,0 0.002,0 h -0.006 c 0.001,0 0.002,0 0.004,0 -1.97281,0.01253 -4.14612,0.993327 -5.32766,3.057678 z"
     id="path199"
     inkscape:connector-curvature="0"
     style="clip-rule:evenodd;fill:#ffffff;fill-rule:evenodd;stroke-width:1.1934725" />
  <path
     d="m 278.48486,71.04428 c 5.66541,-0.161597 17.15736,3.547955 17.0774,16.811137 -0.0119,2.35376 -0.006,18.230293 -0.006,18.230293 h -15.05207 c 0,0 0,-19.909153 0,-22.003343 0,-2.91911 -2.79273,-6.16715 -6.92334,-6.16715 -4.12464,0 -7.19306,3.24804 -7.19306,6.16715 0,1.43074 0.0167,22.003343 0.0167,22.003343 h -15.04014 l 0.0119,-33.501135 15.03417,-0.01194 c 0,0 -0.0179,2.694145 0,3.524802 2.89656,-2.763366 7.07252,-4.909468 12.07436,-5.05364 z"
     id="path201"
     inkscape:connector-curvature="0"
     style="fill:#ffffff;stroke-width:1.1934725" />
  <path
     d="m 155.36147,71.04428 c 5.66541,-0.161597 17.15736,3.547955 17.0762,16.811137 -0.0119,2.35376 -0.006,18.230293 -0.006,18.230293 h -15.05089 c 0,0 0,-19.909153 0,-22.003343 0,-2.91911 -2.79272,-6.16715 -6.92333,-6.16715 -4.12464,0 -7.19425,3.24804 -7.19425,6.16715 0,1.43074 0.0179,22.003343 0.0179,22.003343 H 128.241 l -0.006,-33.501135 15.05088,-0.01194 c 0,0 -0.0167,2.694145 0,3.524802 2.89656,-2.763366 7.06775,-4.909468 12.07556,-5.05364 z"
     id="path203"
     inkscape:connector-curvature="0"
     style="fill:#ffffff;stroke-width:1.1934725" />
  <path
     d="m 343.16868,55.715797 h -14.95302 v 0 c 0,0 0,10.782427 0.0107,18.536059 -2.42274,-1.361513 -4.97797,-2.671111 -8.57271,-2.988335 -10.92027,-0.957643 -19.26264,8.699816 -19.26264,17.543806 0,11.659273 8.99401,15.974633 10.36053,16.609203 5.09494,2.3768 11.63636,2.38265 17.43425,-1.25768 0,0.31149 0.006,1.93843 0.006,1.93843 h 14.97689 z m -14.84441,27.47242 v 5.98837 0 c 0,0 0.006,3.79023 0.006,5.94206 0,5.174903 -3.58281,6.530683 -5.9423,6.530683 -2.40485,0 -5.93633,-1.35578 -5.93633,-6.530683 0,-1.78257 0.006,-5.95937 0.006,-5.95937 0,0 -0.006,-4.25186 -0.006,-5.97106 0,-5.18062 3.53148,-6.501796 5.9423,-6.501796 2.35352,0 5.93036,1.321176 5.93036,6.501796 z"
     id="path205"
     inkscape:connector-curvature="0"
     style="clip-rule:evenodd;fill:#ffffff;fill-rule:evenodd;stroke-width:1.1934725" />
  <path
     d="m 348.1013,89.118827 c 0,-10.39014 9.9106,-18.812949 22.1413,-18.812949 12.23071,0 22.1425,8.422809 22.1425,18.812949 0,10.39013 -9.91179,18.813063 -22.1425,18.813063 -12.22474,0 -22.1413,-8.422933 -22.1413,-18.813063 z m 28.22204,7.05569 c 0,-2.0307 0.006,-7.09603 0.006,-7.09603 l 0.006,0.0173 c -0.0143,-1.09274 -0.0131,-3.77949 -0.0119,-5.83727 0,-0.47345 0,-0.91349 0,-1.29325 0,-5.319186 -3.16747,-7.505627 -6.19054,-7.505627 -3.0171,0 -6.18935,2.186441 -6.18935,7.505627 0,2.03069 -0.0119,6.98635 -0.0119,6.98635 0,0 -0.006,5.1922 -0.006,7.2229 0,5.342223 3.16748,7.545963 6.20725,7.545963 3.035,0 6.19054,-2.20374 6.19054,-7.545963 z"
     id="path207"
     inkscape:connector-curvature="0"
     style="clip-rule:evenodd;fill:#ffffff;fill-rule:evenodd;stroke-width:1.1934725" />
  <path
     d="M 104.70859,66.002097 V 55.70434 h 15.18407 v 10.297757 z"
     id="path209"
     inkscape:connector-curvature="0"
     style="fill:#ffffff;stroke-width:1.1934725" />
  <path
     d="M 104.74356,106.09728 V 72.590423 l 15.1491,0.006 v 33.501007 z"
     id="path211"
     inkscape:connector-curvature="0"
     style="fill:#ffffff;stroke-width:1.1934725" />
  <path
     d="m 180.7514,106.0974 0.006,-33.437755 h -8.23854 v -4.972842 l 8.24451,-0.006 -0.0119,-6.784533 h 15.16188 v 6.778685 h 8.20273 v 4.984537 h -8.20273 l 0.0107,33.437648 z"
     id="path213"
     inkscape:connector-curvature="0"
     style="fill:#ffffff;stroke-width:1.1934725" />
  <path
     d="m 43.089129,106.09728 0.0057,-50.381483 h 15.697743 l 21.714872,35.1338 -0.0116,-35.1338 h 15.57661 V 106.09728 H 80.518934 L 58.688769,70.963482 v 35.133798 z"
     id="path215"
     inkscape:connector-curvature="0"
     style="fill:#ffffff;stroke-width:1.1934725" />
  <g
     id="g48"
     transform="matrix(0.86694402,0,0,0.86694402,30.397795,-104.2693)">
    <path
       d="m 98.368707,123.56449 -3.911684,9.67624 h 7.837657 z m -1.627486,-2.59162 h 3.269259 l 8.12318,19.44364 h -2.99801 l -1.94157,-4.98788 h -9.607908 l -1.941568,4.98788 h -3.040839 z"
       style="font-style:normal;font-weight:normal;font-size:40px;line-height:125%;font-family:sans-serif;letter-spacing:0px;word-spacing:0px;fill:#ffffff;fill-opacity:1;stroke:#ffffff;stroke-width:0.69800001;stroke-linecap:butt;stroke-linejoin:miter;stroke-miterlimit:4;stroke-dasharray:none;stroke-opacity:1"
       id="path36"
       inkscape:connector-curvature="0" />
    <path
       d="m 149.94112,131.30027 q 0.92796,0.28651 1.79881,1.22418 0.88512,0.93767 1.77025,2.5786 l 2.92663,5.31346 h -3.09794 l -2.72677,-4.98788 q -1.05644,-1.95348 -2.05577,-2.59162 -0.98506,-0.63814 -2.69821,-0.63814 h -3.14077 v 8.21764 h -2.88381 v -19.44364 h 6.50997 q 3.65472,0 5.45352,1.39348 1.79881,1.39349 1.79881,4.2065 0,1.83627 -0.94223,3.04743 -0.92796,1.21115 -2.71249,1.67999 z m -7.22378,-8.16555 v 6.9023 h 3.62617 q 2.08433,0 3.14077,-0.87256 1.07072,-0.88557 1.07072,-2.59161 0,-1.70604 -1.07072,-2.56557 -1.05644,-0.87256 -3.14077,-0.87256 z"
       style="font-style:normal;font-weight:normal;font-size:40px;line-height:125%;font-family:sans-serif;letter-spacing:0px;word-spacing:0px;fill:#ffffff;fill-opacity:1;stroke:#ffffff;stroke-width:0.69800001;stroke-linecap:butt;stroke-linejoin:miter;stroke-miterlimit:4;stroke-dasharray:none;stroke-opacity:1"
       id="path38"
       inkscape:connector-curvature="0" />
    <path
       d="m 200.69712,122.47054 v 2.77394 q -1.45617,-1.2372 -3.11221,-1.84929 -1.64177,-0.61209 -3.49768,-0.61209 -3.65472,0 -5.59629,2.04464 -1.94157,2.03162 -1.94157,5.88649 0,3.84184 1.94157,5.88649 1.94157,2.03161 5.59629,2.03161 1.85591,0 3.49768,-0.61209 1.65604,-0.61209 3.11221,-1.84929 v 2.74789 q -1.51328,0.93768 -3.21215,1.40651 -1.6846,0.46884 -3.56906,0.46884 -4.83964,0 -7.62351,-2.69581 -2.78386,-2.70882 -2.78386,-7.38415 0,-4.68836 2.78386,-7.38416 2.78387,-2.70883 7.62351,-2.70883 1.91302,0 3.59761,0.46884 1.69888,0.45581 3.1836,1.38046 z"
       style="font-style:normal;font-weight:normal;font-size:40px;line-height:125%;font-family:sans-serif;letter-spacing:0px;word-spacing:0px;fill:#ffffff;fill-opacity:1;stroke:#ffffff;stroke-width:0.69800001;stroke-linecap:butt;stroke-linejoin:miter;stroke-miterlimit:4;stroke-dasharray:none;stroke-opacity:1"
       id="path40-3"
       inkscape:connector-curvature="0" />
    <path
       d="m 238.86281,123.56449 -3.91168,9.67624 h 7.83765 z m -1.62749,-2.59162 h 3.26926 l 8.12318,19.44364 h -2.998 l -1.94157,-4.98788 h -9.60792 l -1.94157,4.98788 h -3.04083 z"
       style="font-style:normal;font-weight:normal;font-size:40px;line-height:125%;font-family:sans-serif;letter-spacing:0px;word-spacing:0px;fill:#ffffff;fill-opacity:1;stroke:#ffffff;stroke-width:0.69800001;stroke-linecap:butt;stroke-linejoin:miter;stroke-miterlimit:4;stroke-dasharray:none;stroke-opacity:1"
       id="path42"
       inkscape:connector-curvature="0" />
    <path
       d="m 277.21144,123.13472 v 15.11994 h 3.48341 q 4.41135,0 6.45285,-1.82325 2.05578,-1.82325 2.05578,-5.75625 0,-3.90696 -2.05578,-5.71719 -2.0415,-1.82325 -6.45285,-1.82325 z m -2.8838,-2.16185 h 5.92464 q 6.19589,0 9.09396,2.3572 2.89808,2.34418 2.89808,7.34509 0,5.02695 -2.91235,7.38415 -2.91235,2.3572 -9.07969,2.3572 h -5.92464 z"
       style="font-style:normal;font-weight:normal;font-size:40px;line-height:125%;font-family:sans-serif;letter-spacing:0px;word-spacing:0px;fill:#ffffff;fill-opacity:1;stroke:#ffffff;stroke-width:0.69800001;stroke-linecap:butt;stroke-linejoin:miter;stroke-miterlimit:4;stroke-dasharray:none;stroke-opacity:1"
       id="path44"
       inkscape:connector-curvature="0" />
    <path
       d="m 321.42893,120.97287 h 13.47677 v 2.21394 h -10.59297 v 5.75626 h 10.15041 v 2.21394 h -10.15041 v 7.04556 h 10.84994 v 2.21394 h -13.73374 z"
       style="font-style:normal;font-weight:normal;font-size:40px;line-height:125%;font-family:sans-serif;letter-spacing:0px;word-spacing:0px;fill:#ffffff;fill-opacity:1;stroke:#ffffff;stroke-width:0.69800001;stroke-linecap:butt;stroke-linejoin:miter;stroke-miterlimit:4;stroke-dasharray:none;stroke-opacity:1"
       id="path46"
       inkscape:connector-curvature="0" />
  </g>
</svg>
