<?xml version="1.0" encoding="UTF-8" standalone="no"?>
<svg
   xmlns:dc="http://purl.org/dc/elements/1.1/"
   xmlns:cc="http://creativecommons.org/ns#"
   xmlns:rdf="http://www.w3.org/1999/02/22-rdf-syntax-ns#"
   xmlns:svg="http://www.w3.org/2000/svg"
   xmlns="http://www.w3.org/2000/svg"
   xmlns:sodipodi="http://sodipodi.sourceforge.net/DTD/sodipodi-0.dtd"
   xmlns:inkscape="http://www.inkscape.org/namespaces/inkscape"
   width="500"
   height="200"
   viewBox="0 0 500 200"
   version="1.1"
   id="svg217"
   sodipodi:docname="nintendo.svg"
   style="fill:none"
   inkscape:version="0.92.5 (2060ec1f9f, 2020-04-08)">
  <metadata
     id="metadata223">
    <rdf:RDF>
      <cc:Work
         rdf:about="">
        <dc:format>image/svg+xml</dc:format>
        <dc:type
           rdf:resource="http://purl.org/dc/dcmitype/StillImage" />
        <dc:title />
      </cc:Work>
    </rdf:RDF>
  </metadata>
  <defs
     id="defs221" />
  <sodipodi:namedview
     pagecolor="#ffffff"
     bordercolor="#666666"
     borderopacity="1"
     objecttolerance="10"
     gridtolerance="10"
     guidetolerance="10"
     inkscape:pageopacity="0"
     inkscape:pageshadow="2"
     inkscape:window-width="1366"
     inkscape:window-height="743"
     id="namedview219"
     showgrid="false"
     inkscape:pagecheckerboard="true"
     inkscape:zoom="1.0759146"
     inkscape:cx="133.99875"
     inkscape:cy="11.929804"
     inkscape:window-x="0"
     inkscape:window-y="0"
     inkscape:window-maximized="1"
     inkscape:current-layer="svg217" />
  <path
     d="m 10.75775,197.26829 c 1.589483,-0.001 3.159317,-0.35105 4.600375,-1.02159 1.416924,-0.6253 2.674233,-1.56324 3.677722,-2.74389 v 0 l -2.740053,-2.74526 c -0.672467,0.80903 -1.507702,1.46724 -2.451404,1.93347 -0.925725,0.4484 -1.942076,0.6774 -2.970631,0.67055 -0.867953,0.009 -1.7291471,-0.15359 -2.5337208,-0.47857 -0.8045738,-0.32637 -1.5365673,-0.80768 -2.1536065,-1.41926 -0.5941542,-0.5965 -1.0636051,-1.30682 -1.381066,-2.08706 -0.3403472,-0.82961 -0.5117272,-1.71819 -0.5040888,-2.61362 -0.00931,-0.90503 0.1572419,-1.80184 0.4902805,-2.64379 0.3108785,-0.78162 0.7715674,-1.49605 1.3562046,-2.10215 0.5862964,-0.60061 1.287532,-1.07643 2.0619246,-1.40143 0.8069866,-0.34281 1.6755303,-0.51559 2.5522174,-0.51011 1.057257,-0.005 2.10091,0.23723 3.048067,0.70757 0.978807,0.49229 1.83612,1.19574 2.509271,2.05964 v 0 l 2.827129,-2.83303 c -0.994027,-1.20671 -2.258878,-2.16247 -3.691572,-2.78777 -1.472597,-0.68152 -3.074889,-1.03531 -4.697049,-1.03804 -1.4488886,-0.009 -2.8853118,0.26876 -4.226049,0.81864 -1.27024,0.51422 -2.4300527,1.26841 -3.4167573,2.22007 -0.9739109,0.95302 -1.7485437,2.08843 -2.27874865,3.34314 -0.54963508,1.3164 -0.83380924,2.72743 -0.836179561813,4.15217 -0.0024128282,1.42611 0.277110301813,2.83851 0.822370121813,4.15492 0.52392699,1.25059 1.29367669,2.38326 2.26355579,3.3308 0.9871712,0.95028 2.147463,1.70447 3.418143,2.2187 1.3498003,0.55124 2.7956991,0.82961 4.2536656,0.8159 z m 54.658401,0.0316 c 1.443939,0.009 2.875672,-0.26739 4.21087,-0.81864 1.264577,-0.51285 2.415202,-1.27116 3.385643,-2.23104 0.970441,-0.95988 1.741365,-2.10214 2.268341,-3.36096 0.551933,-1.30681 0.836332,-2.71236 0.836332,-4.13161 0,-1.41926 -0.284399,-2.8248 -0.836332,-4.13162 -0.526976,-1.26018 -1.2979,-2.40244 -2.268204,-3.36096 -0.970441,-0.95988 -2.121066,-1.71818 -3.38578,-2.23104 -2.692061,-1.09015 -5.702253,-1.09015 -8.394176,0 -1.264714,0.51286 -2.415339,1.27116 -3.385781,2.23104 -0.970304,0.95852 -1.741227,2.10078 -2.26834,3.36096 -0.551522,1.30682 -0.835646,2.71236 -0.835646,4.13162 0,1.41925 0.284124,2.8248 0.835646,4.13161 0.527113,1.25882 1.298036,2.40108 2.268477,3.36096 0.970305,0.95988 2.12093,1.71819 3.385644,2.23104 1.326558,0.54851 2.749379,0.8255 4.184678,0.81727 z m 0,-3.88477 c -0.847439,0.008 -1.687473,-0.1577 -2.468544,-0.48681 -0.78107,-0.3291 -1.486722,-0.81452 -2.073758,-1.42474 -0.579221,-0.61295 -1.03448,-1.33286 -1.341093,-2.11723 -0.654092,-1.69624 -0.654092,-3.57624 0,-5.27249 0.309219,-0.77888 0.76434,-1.49331 1.341093,-2.10214 0.587036,-0.61022 1.292688,-1.09565 2.073758,-1.42475 0.781071,-0.3291 1.621105,-0.49502 2.468544,-0.48679 0.87226,-0.007 1.736566,0.16729 2.538342,0.51011 0.765712,0.32498 1.457377,0.80218 2.032895,1.40143 0.576753,0.60883 1.031874,1.32326 1.341093,2.10214 0.65368,1.69625 0.65368,3.57625 0,5.27249 -0.306613,0.78437 -0.762009,1.50428 -1.341093,2.11723 -0.575656,0.59924 -1.267183,1.07644 -2.032895,1.40143 -0.801501,0.34282 -1.66526,0.5156 -2.53697,0.50874 z m 63.397649,3.5639 v -3.73668 h -11.04852 v -16.70609 h -4.17905 v 20.44002 z m 52.72747,0 v -3.73668 h -11.04825 v -16.70609 h -4.18235 v 20.44002 z m 53.12952,0 v -3.6791 h -11.45004 v -4.84878 h 7.472 v -3.5639 h -7.472 v -4.66777 h 11.33622 v -3.6791 h -15.52131 v 20.44002 z m 46.38153,0.29071 c 1.58929,-0.001 3.15939,-0.35104 4.60058,-1.02159 1.41652,-0.62529 2.67396,-1.56461 3.67772,-2.7439 v 0 l -2.74115,-2.74389 c -0.67191,0.80904 -1.50839,1.46725 -2.45181,1.93348 -0.9256,0.4484 -1.94171,0.6774 -2.97015,0.67055 -0.86802,0.009 -1.72917,-0.15358 -2.53272,-0.47858 -0.80493,-0.32635 -1.53719,-0.80767 -2.15288,-1.41925 -0.59513,-0.5965 -1.0641,-1.30681 -1.38223,-2.08705 -0.34008,-0.82963 -0.51148,-1.71821 -0.50463,-2.61363 -0.009,-0.90503 0.1577,-1.80185 0.49091,-2.6438 0.30991,-0.78162 0.77065,-1.49605 1.35481,-2.10214 0.5869,-0.60061 1.28761,-1.07781 2.06237,-1.40143 0.80631,-0.34282 1.67569,-0.51696 2.55193,-0.51011 1.06134,-0.005 2.109,0.23998 3.05791,0.71305 0.97908,0.49229 1.83612,1.19575 2.5094,2.05964 v 0 l 2.82754,-2.83302 c -0.99416,-1.20671 -2.25984,-2.16248 -3.69143,-2.78777 -1.47273,-0.68016 -3.07437,-1.03393 -4.69657,-1.03805 -1.44805,-0.009 -2.88513,0.26877 -4.22623,0.81864 -1.26978,0.51422 -2.42987,1.26705 -3.41718,2.2187 -0.97497,0.95166 -1.74973,2.08844 -2.28041,3.34313 -0.54987,1.31642 -0.83373,2.72744 -0.83647,4.15219 -10e-4,1.42611 0.277,2.83851 0.82276,4.15628 0.52382,1.24923 1.2931,2.38189 2.26258,3.32944 0.98868,0.95027 2.14877,1.70447 3.41855,2.21869 1.34796,0.5485 2.79189,0.82276 4.2468,0.80904 z m 55.32353,-0.29071 v -16.70607 h 6.77678 v -3.73806 h -17.76744 v 3.73806 h 6.80694 v 16.70332 z m 47.90775,0 V 176.539 h -4.18098 v 20.44002 z m 48.17104,0.32225 c 1.44393,0.009 2.87554,-0.2674 4.21114,-0.81865 1.2643,-0.51285 2.41479,-1.27116 3.38564,-2.23104 0.96949,-0.95988 1.7415,-2.10214 2.26808,-3.36096 0.55124,-1.30682 0.83509,-2.71236 0.83509,-4.13161 0,-1.41925 -0.28385,-2.82479 -0.83509,-4.13161 -0.52658,-1.26018 -1.29859,-2.40245 -2.26808,-3.36096 -0.97085,-0.95988 -2.12134,-1.71819 -3.38564,-2.23104 -2.69179,-1.09015 -5.7017,-1.09015 -8.39349,0 -1.2643,0.51285 -2.41342,1.27116 -3.38428,2.23104 -0.96947,0.95989 -1.74012,2.10214 -2.26806,3.36096 -0.55262,1.30682 -0.83647,2.71236 -0.83647,4.13161 0,1.41925 0.28385,2.82479 0.83647,4.13161 0.52794,1.25882 1.29859,2.40108 2.26806,3.36096 0.97086,0.95988 2.11998,1.71819 3.38428,2.23104 1.32601,0.54714 2.74801,0.8255 4.18235,0.8159 z m 0,-3.88479 c -0.86801,0.008 -1.72779,-0.16592 -2.52312,-0.5101 -0.76105,-0.32637 -1.44805,-0.80357 -2.01987,-1.40143 -0.58005,-0.61295 -1.0353,-1.3315 -1.34247,-2.11723 -0.65271,-1.69625 -0.65271,-3.57625 0,-5.27251 0.30991,-0.77887 0.76517,-1.4933 1.34247,-2.10214 0.57182,-0.59786 1.25882,-1.07506 2.01987,-1.40143 0.79533,-0.34418 1.65511,-0.51833 2.52312,-0.5101 0.87212,-0.007 1.73601,0.16729 2.53683,0.5101 0.76654,0.325 1.45765,0.80219 2.03358,1.40143 0.5773,0.60884 1.03256,1.32327 1.34109,2.10214 0.65546,1.69626 0.65546,3.57626 0,5.27251 -0.30579,0.78436 -0.76104,1.50428 -1.34109,2.11723 -0.57593,0.59924 -1.26704,1.07643 -2.03358,1.40143 -0.80218,0.3428 -1.66608,0.51559 -2.53683,0.50736 z m 52.12027,3.56391 v -13.67284 l 10.29679,13.67284 h 3.69144 v -20.44002 h -3.92181 v 13.22856 L 484.6037,176.54036 h -3.98214 v 20.44002 z"
     id="path189"
     inkscape:connector-curvature="0"
     style="fill:#ffffff;stroke-width:1.37126124" />
  <g
     id="g48"
     transform="matrix(0.9960906,0,0,0.9960906,34.926082,-117.80205)">
    <path
       d="m 98.368707,123.56449 -3.911684,9.67624 h 7.837657 z m -1.627486,-2.59162 h 3.269259 l 8.12318,19.44364 h -2.99801 l -1.94157,-4.98788 h -9.607908 l -1.941568,4.98788 h -3.040839 z"
       style="font-style:normal;font-weight:normal;font-size:40px;line-height:125%;font-family:sans-serif;letter-spacing:0px;word-spacing:0px;fill:#ffffff;fill-opacity:1;stroke:#ffffff;stroke-width:0.69800001;stroke-linecap:butt;stroke-linejoin:miter;stroke-miterlimit:4;stroke-dasharray:none;stroke-opacity:1"
       id="path36"
       inkscape:connector-curvature="0" />
    <path
       d="m 149.94112,131.30027 q 0.92796,0.28651 1.79881,1.22418 0.88512,0.93767 1.77025,2.5786 l 2.92663,5.31346 h -3.09794 l -2.72677,-4.98788 q -1.05644,-1.95348 -2.05577,-2.59162 -0.98506,-0.63814 -2.69821,-0.63814 h -3.14077 v 8.21764 h -2.88381 v -19.44364 h 6.50997 q 3.65472,0 5.45352,1.39348 1.79881,1.39349 1.79881,4.2065 0,1.83627 -0.94223,3.04743 -0.92796,1.21115 -2.71249,1.67999 z m -7.22378,-8.16555 v 6.9023 h 3.62617 q 2.08433,0 3.14077,-0.87256 1.07072,-0.88557 1.07072,-2.59161 0,-1.70604 -1.07072,-2.56557 -1.05644,-0.87256 -3.14077,-0.87256 z"
       style="font-style:normal;font-weight:normal;font-size:40px;line-height:125%;font-family:sans-serif;letter-spacing:0px;word-spacing:0px;fill:#ffffff;fill-opacity:1;stroke:#ffffff;stroke-width:0.69800001;stroke-linecap:butt;stroke-linejoin:miter;stroke-miterlimit:4;stroke-dasharray:none;stroke-opacity:1"
       id="path38"
       inkscape:connector-curvature="0" />
    <path
       d="m 200.69712,122.47054 v 2.77394 q -1.45617,-1.2372 -3.11221,-1.84929 -1.64177,-0.61209 -3.49768,-0.61209 -3.65472,0 -5.59629,2.04464 -1.94157,2.03162 -1.94157,5.88649 0,3.84184 1.94157,5.88649 1.94157,2.03161 5.59629,2.03161 1.85591,0 3.49768,-0.61209 1.65604,-0.61209 3.11221,-1.84929 v 2.74789 q -1.51328,0.93768 -3.21215,1.40651 -1.6846,0.46884 -3.56906,0.46884 -4.83964,0 -7.62351,-2.69581 -2.78386,-2.70882 -2.78386,-7.38415 0,-4.68836 2.78386,-7.38416 2.78387,-2.70883 7.62351,-2.70883 1.91302,0 3.59761,0.46884 1.69888,0.45581 3.1836,1.38046 z"
       style="font-style:normal;font-weight:normal;font-size:40px;line-height:125%;font-family:sans-serif;letter-spacing:0px;word-spacing:0px;fill:#ffffff;fill-opacity:1;stroke:#ffffff;stroke-width:0.69800001;stroke-linecap:butt;stroke-linejoin:miter;stroke-miterlimit:4;stroke-dasharray:none;stroke-opacity:1"
       id="path40-3"
       inkscape:connector-curvature="0" />
    <path
       d="m 238.86281,123.56449 -3.91168,9.67624 h 7.83765 z m -1.62749,-2.59162 h 3.26926 l 8.12318,19.44364 h -2.998 l -1.94157,-4.98788 h -9.60792 l -1.94157,4.98788 h -3.04083 z"
       style="font-style:normal;font-weight:normal;font-size:40px;line-height:125%;font-family:sans-serif;letter-spacing:0px;word-spacing:0px;fill:#ffffff;fill-opacity:1;stroke:#ffffff;stroke-width:0.69800001;stroke-linecap:butt;stroke-linejoin:miter;stroke-miterlimit:4;stroke-dasharray:none;stroke-opacity:1"
       id="path42"
       inkscape:connector-curvature="0" />
    <path
       d="m 277.21144,123.13472 v 15.11994 h 3.48341 q 4.41135,0 6.45285,-1.82325 2.05578,-1.82325 2.05578,-5.75625 0,-3.90696 -2.05578,-5.71719 -2.0415,-1.82325 -6.45285,-1.82325 z m -2.8838,-2.16185 h 5.92464 q 6.19589,0 9.09396,2.3572 2.89808,2.34418 2.89808,7.34509 0,5.02695 -2.91235,7.38415 -2.91235,2.3572 -9.07969,2.3572 h -5.92464 z"
       style="font-style:normal;font-weight:normal;font-size:40px;line-height:125%;font-family:sans-serif;letter-spacing:0px;word-spacing:0px;fill:#ffffff;fill-opacity:1;stroke:#ffffff;stroke-width:0.69800001;stroke-linecap:butt;stroke-linejoin:miter;stroke-miterlimit:4;stroke-dasharray:none;stroke-opacity:1"
       id="path44"
       inkscape:connector-curvature="0" />
    <path
       d="m 321.42893,120.97287 h 13.47677 v 2.21394 h -10.59297 v 5.75626 h 10.15041 v 2.21394 h -10.15041 v 7.04556 h 10.84994 v 2.21394 h -13.73374 z"
       style="font-style:normal;font-weight:normal;font-size:40px;line-height:125%;font-family:sans-serif;letter-spacing:0px;word-spacing:0px;fill:#ffffff;fill-opacity:1;stroke:#ffffff;stroke-width:0.69800001;stroke-linecap:butt;stroke-linejoin:miter;stroke-miterlimit:4;stroke-dasharray:none;stroke-opacity:1"
       id="path46"
       inkscape:connector-curvature="0" />
  </g>
  <g
     transform="matrix(0.9227204,0,0,0.9227204,15.257304,10.726362)"
     style="fill:none"
     id="g973">
    <path
       style="fill:none;stroke:#ffffff;stroke-width:14.30366611;stroke-miterlimit:4;stroke-dasharray:none;stroke-opacity:1"
       inkscape:connector-curvature="0"
       id="path191"
       d="m 74.058513,150.80285 c -37.552298,-0.0126 -62.644358,-26.62497 -62.644358,-58.891646 0,-32.266673 25.149298,-59.184188 62.58712,-59.101503 H 427.78399 c 37.43754,-0.08271 62.58672,26.83483 62.58672,59.101503 0,32.266676 -25.09258,58.879026 -62.64462,58.891646 z" />
    <path
       style="clip-rule:evenodd;fill:#ffffff;fill-rule:evenodd;stroke-width:1.37987161"
       inkscape:connector-curvature="0"
       id="path195"
       d="m 446.28139,70.87466 c 0,-4.949185 4.01542,-8.96461 8.96503,-8.96461 4.94959,0 8.96502,4.015425 8.96502,8.96461 0,4.949186 -4.01543,8.964612 -8.96502,8.964612 -4.94961,0 -8.96503,-4.015426 -8.96503,-8.964612 z m 8.96503,7.25702 c 4.00162,0 7.24984,-3.248355 7.24984,-7.250396 0,-4.008803 -3.24822,-7.250535 -7.24984,-7.250535 -4.00302,0 -7.25123,3.248355 -7.25123,7.250535 0,4.002041 3.24821,7.250396 7.25123,7.250396 z" />
    <path
       style="clip-rule:evenodd;fill:#ffffff;fill-rule:evenodd;stroke-width:1.37987161"
       inkscape:connector-curvature="0"
       id="path197"
       d="m 459.70892,68.653482 c 0,-1.901049 -1.40748,-2.861579 -4.24173,-2.861579 h -3.89537 v 9.931902 h 2.42029 v -4.068827 h 1.18117 l 1.90147,4.068827 h 2.68798 l -2.22159,-4.435597 c 1.35366,-0.340277 2.16778,-1.327437 2.16778,-2.634726 z m -4.53564,1.547525 h -1.17979 v -2.888209 h 1.05974 c 1.45439,0 2.16778,0.44694 2.16778,1.48074 0,0.98716 -0.66648,1.407469 -2.04773,1.407469 z" />
    <path
       style="clip-rule:evenodd;fill:#ffffff;fill-rule:evenodd;stroke-width:1.37987161"
       inkscape:connector-curvature="0"
       id="path199"
       d="m 265.94875,108.50072 c 0,-2.1744 -0.0138,-2.34785 -0.0138,-2.34785 l 17.44986,-0.0138 c -3.04814,9.14469 -13.03289,15.88826 -24.85287,15.88826 -14.24717,0 -25.79394,-9.7317 -25.79394,-21.74458 0,-12.012881 11.54677,-21.751328 25.79394,-21.751328 14.24718,0 25.84638,9.951774 25.84638,21.964658 0,0.0202 -32.99687,0.007 -32.99687,0.007 0,0 -0.0138,5.87646 -0.0138,7.99746 0,7.08371 4.74261,8.65787 7.33124,8.65787 2.58727,0 7.24986,-1.57416 7.24986,-8.65787 z M 252.54191,86.876202 c -1.11494,1.934304 -1.18807,4.202121 -1.16047,7.597296 l 14.61284,0.0069 c 0.0276,-3.395175 -0.0193,-5.662992 -1.13288,-7.603921 -1.36745,-2.386766 -3.88019,-3.520743 -6.15974,-3.535233 0,0 10e-4,0 0.002,0 h -0.007 c 10e-4,0 0.002,0 0.005,0 -2.28093,0.01449 -4.79367,1.148467 -6.15975,3.535233 z" />
    <path
       style="fill:#ffffff;stroke-width:1.37987161"
       inkscape:connector-curvature="0"
       id="path201"
       d="m 321.04977,79.178865 c 6.55025,-0.186835 19.83703,4.102082 19.74459,19.436736 -0.0138,2.721379 -0.007,21.077539 -0.007,21.077539 h -17.40294 c 0,0 0,-23.018607 0,-25.439872 0,-3.375023 -3.2289,-7.130348 -8.00464,-7.130348 -4.76883,0 -8.31648,3.755325 -8.31648,7.130348 0,1.654196 0.0193,25.439872 0.0193,25.439872 h -17.38914 l 0.0138,-38.733413 17.38224,-0.01381 c 0,0 -0.0207,3.114922 0,4.075313 3.34895,-3.194954 8.17712,-5.676239 13.96016,-5.842928 z" />
    <path
       style="fill:#ffffff;stroke-width:1.37987161"
       inkscape:connector-curvature="0"
       id="path203"
       d="m 178.69671,79.178865 c 6.55025,-0.186835 19.83703,4.102082 19.7432,19.436736 -0.0138,2.721379 -0.007,21.077539 -0.007,21.077539 h -17.40157 c 0,0 0,-23.018607 0,-25.439872 0,-3.375023 -3.22889,-7.130348 -8.00463,-7.130348 -4.76883,0 -8.31786,3.755325 -8.31786,7.130348 0,1.654196 0.0207,25.439872 0.0207,25.439872 h -17.38909 l -0.007,-38.733413 17.40156,-0.01381 c 0,0 -0.0193,3.114922 0,4.075313 3.34895,-3.194954 8.17161,-5.676239 13.96155,-5.842928 z" />
    <path
       style="clip-rule:evenodd;fill:#ffffff;fill-rule:evenodd;stroke-width:1.37987161"
       inkscape:connector-curvature="0"
       id="path205"
       d="m 395.83605,61.456347 h -17.28842 v 0 c 0,0 0,12.46645 0.0124,21.43106 -2.80113,-1.574157 -5.75544,-3.088291 -9.91161,-3.455059 -12.62582,-1.10721 -22.27112,10.058571 -22.27112,20.283834 0,13.480248 10.39871,18.469588 11.97866,19.203268 5.89068,2.74801 13.45375,2.75477 20.15717,-1.45411 0,0.36014 0.007,2.24118 0.007,2.24118 h 17.31602 z m -17.16284,31.763121 v 6.923642 0 c 0,0 0.007,4.3822 0.007,6.87011 0,5.98313 -4.14238,7.55066 -6.87038,7.55066 -2.78044,0 -6.86348,-1.56753 -6.86348,-7.55066 0,-2.06098 0.007,-6.89012 0.007,-6.89012 0,0 -0.007,-4.915924 -0.007,-6.903632 0,-5.98974 4.08304,-7.51726 6.87038,-7.51726 2.7211,0 6.85658,1.52752 6.85658,7.51726 z" />
    <path
       style="clip-rule:evenodd;fill:#ffffff;fill-rule:evenodd;stroke-width:1.37987161"
       inkscape:connector-curvature="0"
       id="path207"
       d="m 401.53905,100.07633 c 0,-12.012891 11.45846,-21.751192 25.59938,-21.751192 14.14093,0 25.60076,9.738301 25.60076,21.751192 0,12.01289 -11.45983,21.75133 -25.60076,21.75133 -14.13403,0 -25.59938,-9.73844 -25.59938,-21.75133 z m 32.62982,8.15767 c 0,-2.34786 0.007,-8.20431 0.007,-8.20431 l 0.007,0.02 c -0.0165,-1.263404 -0.0152,-4.369776 -0.0138,-6.748945 0,-0.547394 0,-1.05616 0,-1.495232 0,-6.149948 -3.66218,-8.677872 -7.15739,-8.677872 -3.48832,0 -7.15602,2.527924 -7.15602,8.677872 0,2.347847 -0.0138,8.077493 -0.0138,8.077493 0,0 -0.007,6.003124 -0.007,8.350984 0,6.17659 3.66219,8.72451 7.17672,8.72451 3.50901,0 7.15739,-2.54792 7.15739,-8.72451 z" />
    <path
       style="fill:#ffffff;stroke-width:1.37987161"
       inkscape:connector-curvature="0"
       id="path209"
       d="M 120.13276,73.349183 V 61.443101 h 17.55555 v 11.906082 z" />
    <path
       style="fill:#ffffff;stroke-width:1.37987161"
       inkscape:connector-curvature="0"
       id="path211"
       d="M 120.17319,119.70652 V 80.966488 l 17.51512,0.0069 v 38.733262 z" />
    <path
       style="fill:#ffffff;stroke-width:1.37987161"
       inkscape:connector-curvature="0"
       id="path213"
       d="m 208.05209,119.70666 0.007,-38.660139 h -9.52525 V 75.29701 l 9.53215,-0.0069 -0.0138,-7.844155 h 17.5299 v 7.837394 h 9.48385 v 5.763032 h -9.48385 l 0.0124,38.660009 z" />
    <path
       style="fill:#ffffff;stroke-width:1.37987161"
       inkscape:connector-curvature="0"
       id="path215"
       d="m 48.889438,119.70652 0.0066,-58.250173 h 18.14945 L 92.151834,102.07742 92.138424,61.456347 H 110.14782 V 119.70652 H 92.165108 L 66.925462,79.085448 v 40.621072 z" />
  </g>
</svg>
