<?xml version="1.0" encoding="UTF-8" standalone="no"?>
<svg
   xmlns:dc="http://purl.org/dc/elements/1.1/"
   xmlns:cc="http://creativecommons.org/ns#"
   xmlns:rdf="http://www.w3.org/1999/02/22-rdf-syntax-ns#"
   xmlns:svg="http://www.w3.org/2000/svg"
   xmlns="http://www.w3.org/2000/svg"
   xmlns:sodipodi="http://sodipodi.sourceforge.net/DTD/sodipodi-0.dtd"
   xmlns:inkscape="http://www.inkscape.org/namespaces/inkscape"
   width="492.578"
   height="143.20152"
   viewBox="0 0 492.578 143.20152"
   version="1.1"
   id="svg176"
   sodipodi:docname="odyssey2.svg"
   style="fill:none"
   inkscape:version="1.0.1 (1.0.1+r73)">
  <metadata
     id="metadata182">
    <rdf:RDF>
      <cc:Work
         rdf:about="">
        <dc:format>image/svg+xml</dc:format>
        <dc:type
           rdf:resource="http://purl.org/dc/dcmitype/StillImage" />
        <dc:title />
      </cc:Work>
    </rdf:RDF>
  </metadata>
  <defs
     id="defs180" />
  <sodipodi:namedview
     pagecolor="#ffffff"
     bordercolor="#666666"
     borderopacity="1"
     objecttolerance="10"
     gridtolerance="10"
     guidetolerance="10"
     inkscape:pageopacity="0"
     inkscape:pageshadow="2"
     inkscape:window-width="1366"
     inkscape:window-height="740"
     id="namedview178"
     showgrid="false"
     inkscape:pagecheckerboard="true"
     inkscape:zoom="1.1716441"
     inkscape:cx="232.62039"
     inkscape:cy="38.226138"
     inkscape:window-x="0"
     inkscape:window-y="0"
     inkscape:window-maximized="1"
     inkscape:current-layer="svg176"
     inkscape:document-rotation="0" />
  <path
     d="m 89.008248,0.001788 c -4.420257,0 -8.002474,3.582778 -8.002474,8.003004 0,4.420237 3.582217,8.002972 8.002474,8.002972 4.420154,0 8.003617,-3.582735 8.003617,-8.002972 0,-4.419624 -3.583463,-8.003004 -8.003617,-8.003004 z m 0,12.075199 c -0.534722,0 -1.064257,-0.105326 -1.558302,-0.309959 -0.494045,-0.204737 -0.942847,-0.50463 -1.320982,-0.882765 -0.378135,-0.378135 -0.678028,-0.827103 -0.882557,-1.321158 -0.204633,-0.494056 -0.309855,-1.02358 -0.309751,-1.558313 0,-0.805436 0.238773,-1.592774 0.686329,-2.262449 0.447453,-0.669685 1.083455,-1.191623 1.827584,-1.499818 0.744129,-0.308194 1.562972,-0.388802 2.352863,-0.231633 0.789995,0.157179 1.515549,0.545079 2.085035,1.114637 0.569485,0.569568 0.957271,1.295216 1.114377,2.08518 0.157003,0.789974 0.07627,1.608765 -0.232028,2.352852 -0.308298,0.744088 -0.830257,1.380058 -1.500087,1.827407 -0.669727,0.447349 -1.457128,0.686122 -2.262481,0.686019 z M 24.622358,0.434286 h -3.110689 l -5.58351,14.316107 V 0.434286 H 11.093344 L 7.9454942,9.353792 4.7976034,0.434286 H 0 V 15.574735 H 3.7475109 V 7.405162 l 2.8861123,8.170092 h 2.623141 L 12.142243,7.368023 v 8.207231 h 7.645404 l 0.749421,-2.173861 h 5.147991 l 0.73562,2.173861 h 4.272282 z m -3.110067,9.969007 1.536511,-4.797012 1.611328,4.797012 z M 78.927796,0.434286 75.741562,9.953422 72.443881,0.434286 h -3.973324 l 5.209734,15.140968 h 3.859592 L 82.600396,0.434286 Z"
     id="path166"
     inkscape:connector-curvature="0"
     style="clip-rule:evenodd;fill:#ffffff;fill-rule:evenodd;stroke-width:1.03769" />
  <path
     d="m 103.73704,8.228249 4.79725,-7.795138 h -4.12171 L 101.60033,5.005488 98.602745,0.433111 H 94.48031 l 4.796415,7.270387 -4.834187,7.870615 h 4.123167 l 2.847735,-4.684972 3.11121,4.684972 h 4.12171 z M 66.372759,0.433111 h -3.110793 l -5.43429,13.941118 V 0.433111 H 53.930312 V 8.45348 L 48.270739,0.433111 H 44.860468 V 7.484857 C 44.832348,7.303956 44.798208,7.12484 44.774858,6.949926 h -8.965037 v 3.001722 h 4.611296 c -0.350014,0.643929 -0.867614,1.181246 -1.497909,1.555127 -0.630397,0.373777 -1.350141,0.570212 -2.083063,0.568448 -1.08003,0 -2.115854,-0.429086 -2.879491,-1.192724 -0.763638,-0.7637 -1.192724,-1.799472 -1.192724,-2.879481 0,-1.080009 0.429086,-2.115792 1.192724,-2.879471 0.763637,-0.763679 1.799461,-1.192713 2.879491,-1.192713 1.11002,0 2.116373,0.429501 2.850748,1.150126 l 4.599882,-0.0054 C 43.122126,2.103786 40.226446,0 36.840145,0 c -4.419634,0 -8.002993,3.582777 -8.002993,8.003003 0,4.420247 3.583359,8.002983 8.002993,8.002983 4.123685,0 7.575257,-3.109548 8.019804,-7.115828 v 6.682695 h 3.897779 V 7.928725 l 5.434394,7.645373 h 7.383594 l 0.673981,-2.173861 h 5.186281 l 0.735101,2.173861 h 4.272802 z m -3.111312,9.969041 1.535888,-4.797043 1.611951,4.797043 z M 111.70756,0.709864 c -0.11415,-0.116745 -0.25009,-0.208999 -0.40159,-0.271109 -0.15047,-0.06211 -0.31235,-0.09277 -0.4763,-0.0901 -0.33933,0 -0.63196,0.120407 -0.8727,0.361216 -0.24075,0.242007 -0.36216,0.533139 -0.36216,0.873377 0,0.344441 0.12038,0.63677 0.36112,0.87877 0.23971,0.243204 0.53234,0.364209 0.87478,0.364209 0.34243,0 0.6361,-0.121597 0.87788,-0.364209 0.24075,-0.243204 0.36216,-0.536124 0.36216,-0.87877 0,-0.341442 -0.12141,-0.632569 -0.36319,-0.873377 z m -0.12349,1.632948 c -0.20754,0.209064 -0.45762,0.31329 -0.7544,0.31329 -0.29574,0 -0.54687,-0.104828 -0.7544,-0.31329 -0.0996,-0.09917 -0.17849,-0.217625 -0.23141,-0.348187 -0.0529,-0.130573 -0.0789,-0.270526 -0.0768,-0.411383 0,-0.294715 0.10377,-0.545712 0.31027,-0.753574 0.0975,-0.10103 0.2148,-0.181025 0.34452,-0.235018 0.12867,-0.05399 0.26772,-0.08084 0.40781,-0.07888 0.2947,0 0.54582,0.10483 0.7544,0.313891 0.2065,0.207862 0.31131,0.459451 0.31131,0.753574 0,0.297122 -0.10481,0.550506 -0.31131,0.75957 z"
     id="path168"
     inkscape:connector-curvature="0"
     style="clip-rule:evenodd;fill:#ffffff;fill-rule:evenodd;stroke-width:1.03769" />
  <path
     d="m 111.38068,2.242779 c -0.005,-0.01078 -0.009,-0.03474 -0.0114,-0.07069 -0.002,-0.03594 -0.004,-0.06948 -0.004,-0.101227 v -0.09944 c 0,-0.06889 -0.0239,-0.138978 -0.0737,-0.210859 -0.0488,-0.07188 -0.1266,-0.116211 -0.23452,-0.133582 0.0695,-0.008 0.13698,-0.03023 0.19716,-0.06529 0.0892,-0.05751 0.13387,-0.14676 0.13387,-0.268368 0,-0.171312 -0.0706,-0.285734 -0.21066,-0.344439 -0.0789,-0.03295 -0.20235,-0.04912 -0.37149,-0.04912 h -0.4763 v 1.359797 h 0.23971 V 1.722825 h 0.18886 c 0.12763,0 0.21584,0.01438 0.26565,0.04374 0.0861,0.05032 0.12971,0.154543 0.12971,0.312086 v 0.108428 l 0.004,0.04373 0.004,0.01497 0.003,0.01318 h 0.22311 z m -0.3663,-0.716433 c -0.0508,0.02037 -0.1266,0.02995 -0.22829,0.02995 h -0.21584 V 1.063898 h 0.20442 c 0.13282,0 0.22933,0.01677 0.28952,0.05092 0.0602,0.03354 0.0903,0.100033 0.0903,0.198873 0,0.104828 -0.0467,0.175516 -0.14009,0.212655 z"
     id="path170"
     inkscape:connector-curvature="0"
     style="clip-rule:evenodd;fill:#ffffff;fill-rule:evenodd;stroke-width:1.03769" />
  <path
     d="M 59.896004,56.636212 C 58.319853,54.729557 57.906125,54.6509 57.058954,54.6509 l -6.324008,-0.01961 c -1.694239,0.01961 -1.812536,1.179337 -0.8865,2.201464 l 20.508739,22.820514 c 0.945649,1.04173 1.359481,1.37587 2.876483,1.39548 1.165328,0.0171 2.986582,-0.0104 4.335685,-0.0308 l 0.569901,-0.008 c 0.590965,0 1.280512,-0.82559 0.236386,-2.08358 z"
     id="path172"
     inkscape:connector-curvature="0"
     style="fill:#ffffff;stroke-width:1.03769" />
  <path
     d="M 399.46373,83.604588 345.5027,143.20153 H 103.56458 L 102.76535,142.43468 9.4609502,53.079004 C 7.3135502,51.054466 4.9493659,48.794062 3.1369225,46.553269 -4.0737095,37.295292 1.7972101,25.128352 14.110434,25.128352 h 43.027177 c 0.399096,0 0.791862,-0.0076 1.179648,-0.01505 1.143433,-0.022 2.243283,-0.04317 3.331926,0.132928 2.482367,0.216152 4.629663,0.904245 6.658974,1.906656 2.1474,-1.238382 4.866153,-2.024537 7.91977,-2.024537 h 38.732791 c 4.05841,-0.117882 7.44648,0.570004 10.38211,1.906655 2.02869,-1.238382 4.63018,-1.906655 7.68307,-1.906655 h 19.3073 c 1.81285,0.216255 3.60494,0.668273 5.08262,1.474249 1.91143,-0.904245 4.29501,-1.474249 6.77716,-1.474249 h 12.43156 c 0.37253,0 0.7378,-0.0019 1.09684,-0.0037 3.45966,-0.01816 6.35586,-0.03331 9.64016,1.694136 0.082,0.08136 0.15358,0.106571 0.26876,0.146626 0.0508,0.01806 0.11103,0.03912 0.18471,0.06963 2.14698,-1.238382 4.74744,-1.906655 7.80137,-1.906655 h 44.15068 c 4.17671,0 7.80137,0 11.40632,2.142523 2.48215,-1.356368 5.29949,-2.142523 8.47171,-2.142523 h 42.12096 c 4.05842,0 7.80137,0.117881 11.07218,2.142523 2.71875,-1.356368 5.65438,-2.142523 8.80585,-2.142523 h 44.50558 c 4.05842,0 7.89995,0.117881 11.18944,2.024537 1.02524,-0.570004 2.02972,-1.022127 3.17222,-1.356264 2.8412,-0.809815 5.39704,-0.799749 8.16456,-0.788853 0.32169,0.0013 0.64752,0.0027 0.97647,0.0027 h 15.01229 c 2.71876,0 5.2995,0.451915 7.44752,1.690297 1.81181,-0.904142 3.72324,-1.474146 5.87022,-1.572415 h 20.90327 c 1.81285,0 3.60494,0.216255 5.2995,0.904141 0.21687,-1.238278 0.67034,-2.47666 1.47767,-3.597056 l 0.57177,-0.904141 0.78761,-0.78626 c 3.17222,-3.498682 6.54057,-6.525734 11.74148,-6.191493 h 15.91924 c 4.41226,0 8.80585,0.904037 12.19495,3.596952 7.3479,5.85746 7.11131,15.881981 2.02869,22.97772 -1.91039,2.810797 -4.96432,5.071201 -8.23512,6.525734 -0.45244,2.260405 -1.69352,4.501197 -3.84154,6.309584 -1.24108,1.120396 -2.48216,2.260404 -3.60494,3.3808 -3.3891,3.164546 -6.44303,3.714938 -10.737,3.714938 h -20.78497 c -2.48216,0 -4.74848,-0.334137 -6.89547,-1.238278 l -15.01229,14.977739 c -4.96432,5.07121 -10.6187,8.78625 -18.18348,8.90413 h -0.1183 c -0.69006,-0.0983 -1.35937,-0.0983 -2.02972,-0.0983 z m 80.40038,-57.454732 c -1.35937,-1.022023 -3.60494,-1.238278 -5.29949,-1.238278 h -16.25337 c -0.78865,0 -1.69455,1.022127 -3.17223,2.810796 -0.7876,1.47425 -0.21687,2.142523 1.57626,2.024538 h 14.0078 c 2.26529,0.786259 0.33518,4.953319 -1.81284,4.737168 h -8.59002 c -1.81181,0 -3.38806,0.117882 -5.20091,0.668274 -2.83186,0.986015 -4.19643,2.264866 -5.7042,3.677477 l -0.16603,0.155342 c -1.6354,1.690401 -3.2459,3.410272 -4.8564,5.130246 -1.61049,1.719871 -3.22099,3.439742 -4.85639,5.130143 -0.90695,0.904244 -1.02524,1.808386 -0.33518,2.358777 0.45347,0.334137 1.24108,0.452019 2.48216,0.452019 h 20.78497 c 0.0633,0 0.12556,5.19e-4 0.18679,10e-4 l 0.0903,10e-4 c 0.11414,0.0021 0.22414,0.0052 0.33102,0.0083 1.0076,0.02729 1.70182,0.04618 2.5631,-0.796844 0.62158,-0.619191 1.27117,-1.238381 1.92181,-1.857469 l 0.003,-0.0031 c 0.64856,-0.618153 1.29815,-1.236306 1.91765,-1.854355 0.90591,-0.78626 0.90591,-1.47425 -0.67035,-1.572519 h -9.83109 c -4.96432,0 -1.35938,-5.641309 1.35938,-5.857461 h 11.19047 c 2.93563,-0.117985 6.65887,-1.808386 8.35342,-4.285046 2.01001,-2.928678 2.81733,-7.331606 -0.0197,-9.690384 z M 274.1043,137.46517 h -30.35665 l 6.30294,-52.956852 c 0.1183,-1.35627 0.67035,-2.14253 2.3649,-2.14253 h 17.0607 c 3.95983,-0.57 4.74744,-3.16465 5.08261,-6.09333 h -15.36614 c -5.53609,0.21626 -8.13654,-3.3808 -7.80241,-8.216131 l 1.81285,-25.120245 c 0.33518,-3.950909 3.17223,-6.64372 6.44199,-6.64372 h 42.12096 c 0.14839,0 0.29575,-5.19e-4 0.44102,-0.0012 l 0.3715,-0.0022 c 4.08124,-0.02532 6.8581,-0.04255 4.84187,6.195022 l -2.26528,6.761602 c -0.33518,1.022126 -0.67035,1.906655 -1.12279,2.810796 -1.12382,2.024537 -3.17222,2.358778 -5.30053,2.358778 h -22.24189 c -1.12278,0 -1.47767,0.117882 -1.69455,0.786259 l -1.12278,4.284942 c -0.19302,0.804938 0.31649,0.799854 1.3905,0.788958 0.13179,-0.001 0.27292,-0.0031 0.42234,-0.0031 h 16.60723 c 0.28121,0 0.56139,-0.0052 0.84053,-0.01038 l 0.005,-1.04e-4 c 1.07297,-0.0193 2.13142,-0.03839 3.11411,0.226321 2.3649,0.570108 3.27081,2.024537 3.5074,3.950909 0.18679,1.36031 -0.20027,2.470643 -0.67761,3.839878 -0.0747,0.213453 -0.15151,0.433236 -0.22829,0.661217 z m -34.67967,0 5.52363,-68.858554 c 0.008,-0.116014 0.0166,-0.230472 0.0249,-0.34358 l 0.0104,-0.127118 0.0166,-0.205774 v -0.0031 c 0.11104,-1.387706 0.20754,-2.583233 -0.26876,-3.939496 -0.66931,-1.906656 -2.02869,-3.498787 -4.62914,-4.049179 -1.17259,-0.26513 -2.25802,-0.245622 -3.33618,-0.226321 h -0.002 c -0.13386,0.0021 -0.26772,0.0052 -0.40262,0.0073 -0.14528,0.0021 -0.29056,0.0031 -0.43583,0.0031 h -19.09042 c -0.16396,0 -0.3165,10e-4 -0.45763,0.0031 -1.13523,0.01069 -1.5721,0.01484 -1.5721,-0.789061 v -3.832923 c 0,-0.668274 0.33517,-0.786155 1.47767,-0.786155 h 25.06027 c 2.14698,0 4.17671,-0.334137 4.74744,-2.47666 0.21688,-1.022127 0.33517,-1.906656 0.45347,-2.928782 l 0.57073,-6.30948 c 0.51885,-6.355553 -2.44376,-6.337808 -6.64642,-6.3128 -0.26772,0.0017 -0.54167,0.0032 -0.81977,0.0032 h -44.05211 c -3.50636,0 -4.62914,2.810797 -3.95983,6.525734 l 4.74848,27.262777 c 0.0176,0.12151 0.0342,0.23981 0.0498,0.3553 l 0.028,0.20692 c 0.1567,1.17944 0.27395,2.06283 1.16326,3.03483 1.0242,1.23828 2.60045,2.02454 5.08261,1.90655 h 24.17304 c 0.45347,3.04667 0.33518,5.73958 -3.60494,6.30959 H 200.5621 c -1.57626,0 -2.02973,0.90414 -1.81285,2.2604 l 9.37244,53.310712 z M 182.16062,76.056208 198.91313,137.46517 H 183.26784 L 158.44106,76.075928 h -6.32474 c -3.84153,0 -5.65334,-2.47666 -7.2296,-5.85747 L 131.11551,41.481549 c -1.24108,-2.594541 -1.47767,-5.189187 2.02869,-5.189187 h 18.18452 c 0.9059,0.117986 1.45795,0.334137 1.57625,0.904141 1.32513,3.319577 2.48839,6.610514 3.6506,9.900932 l 0.001,0.0042 0.009,0.02345 c 1.20268,3.403111 2.40537,6.805703 3.7855,10.238804 0.45347,1.238278 0.90694,1.906552 1.69455,1.6904 h 4.29501 c 1.35937,0 1.81285,-0.786259 1.24108,-2.260404 -0.76893,-2.726848 -1.5555,-5.37234 -2.33585,-7.996456 l -0.003,-0.0093 c -1.05741,-3.558246 -2.10444,-7.077475 -3.07883,-10.707218 -0.45347,-1.572519 0.45347,-1.690401 2.14698,-1.690401 h 12.43155 c 0.48045,0 0.93081,-0.0054 1.35212,-0.01048 5.02035,-0.0607 6.06116,-0.07316 8.24238,9.700865 0.79384,3.69875 1.569,7.393764 2.34208,11.086495 l 0.007,0.0302 c 0.97128,4.637342 1.94256,9.271262 2.95016,13.905288 0.45347,2.69281 -0.66931,4.95321 -3.72324,4.95321 z M 171.63946,137.46517 127.72641,45.982746 c -4.72046,-10.033445 -8.8318,-9.880696 -12.94625,-9.727844 -0.50432,0.01878 -1.00863,0.03746 -1.51399,0.03746 H 76.346329 c -3.506776,0 -4.17671,2.594646 -2.1474,5.287457 l 7.683384,10.594525 c 1.279993,1.702749 2.961884,1.69756 5.029071,1.69123 0.128155,-4.15e-4 0.257659,-8.3e-4 0.388719,-8.3e-4 H 106.7256 c 0.0841,0 0.20961,-0.0052 0.36941,-0.0111 l 0.003,-2.08e-4 c 1.5721,-0.06154 6.46586,-0.252885 8.21748,2.723838 l 12.98257,21.621454 c 1.69455,2.71253 0,3.04667 -2.71876,3.04667 l -0.26461,-0.013 c -2.18642,-0.10708 -3.27184,-0.16021 -4.03039,-1.55954 -1.97992,-2.92868 -3.84154,-5.88693 -5.70316,-8.84508 -1.86162,-2.958252 -3.72324,-5.916403 -5.70316,-8.845185 -1.47767,-2.260405 -2.26632,-2.358675 -4.74847,-2.358675 -2.55646,0 -5.08293,0.02978 -7.594565,0.05946 h -0.0216 -0.005 c -2.473236,0.02937 -4.931944,0.05842 -7.390651,0.05842 -1.241184,0 -1.812433,0.904245 -1.359273,1.690401 0.453056,0.904245 0.571353,1.120396 1.47757,2.260404 l 53.472269,73.772547 z m -33.17605,-3.22722 c 0.82808,1.09061 1.6437,2.16566 2.44791,3.22722 H 107.48519 L 17.164258,47.122755 C 16.979237,46.936178 16.787991,46.743686 16.592386,46.546939 14.89275,44.83703 12.87174,42.803569 11.864557,41.481549 9.9339102,38.887008 10.721954,36.292362 14.228834,36.292362 h 43.007461 c 0.05105,0 0.101901,-1.04e-4 0.152437,-4.15e-4 0.0633,-3.11e-4 0.12608,-8.3e-4 0.188341,-0.0015 0.288479,-0.003 0.566995,-0.0093 0.837314,-0.01557 h 0.001 l 0.0028,-1.04e-4 h 0.0036 c 3.85347,-0.08737 6.090423,-0.138117 13.393285,9.707921 11.796588,15.966657 49.893688,66.174156 63.378498,83.945666 l 0.0789,0.10273 c 1.31994,1.74021 2.40018,3.16392 3.1909,4.20681 z m 202.55439,3.22722 53.24502,-61.408962 h 6.99404 c 4.17671,0 7.23064,-2.47666 10.38211,-5.85746 l 27.10867,-28.618929 c 2.71875,-2.692811 4.07813,-5.287457 0.23659,-5.287457 h -19.99632 c -1.02421,0.117986 -1.81285,0.334137 -2.14699,0.904141 -2.87648,3.380801 -5.61495,6.732235 -8.35342,10.083566 -2.73847,3.35133 -5.47694,6.702661 -8.35342,10.083462 -1.12278,1.238278 -1.81285,1.906551 -2.60046,1.6904 h -4.74848 c -1.47767,0 -1.57625,-0.786259 -0.45243,-2.260405 2.66168,-3.696051 5.3244,-7.242572 7.98608,-10.788988 1.96746,-2.621003 3.93493,-5.242109 5.90239,-7.923506 1.12278,-1.572518 0.21688,-1.6904 -1.57625,-1.6904 h -15.0123 c -0.53441,0 -1.03146,-0.0054 -1.49635,-0.01048 -5.54024,-0.06071 -6.61217,-0.07233 -13.08218,9.700865 -2.90762,4.378334 -5.78306,8.756772 -8.66058,13.138012 l -0.002,0.0042 -0.008,0.01131 -0.0446,0.06755 c -2.58178,3.930778 -5.16459,7.863841 -7.77439,11.801369 -1.69351,2.71242 -1.35937,4.95321 2.02973,4.95321 h 7.80137 l -44.48794,61.408962 z m 4.44547,-55.433512 -35.91971,55.433512 h -32.00554 c 7.158,-17.86491 11.57545,-28.73058 14.53495,-36.01248 l 0.006,-0.0148 c 1.64059,-4.034452 2.8329,-6.967692 3.79691,-9.381672 0,0 3.95984,-11.02704 17.27758,-49.120096 1.35937,-3.931193 5.08261,-6.64372 8.59001,-6.64372 h 44.38625 c 0.2781,0 0.55309,-0.0016 0.82288,-0.0031 l 0.0332,-2.07e-4 c 4.30331,-0.02542 7.24932,-0.04275 3.43891,6.194918 l -4.17671,6.761602 -0.0986,0.147248 -0.16395,0.247386 -0.002,0.0031 c -0.56243,0.846653 -1.08231,1.63011 -1.76511,2.412945 -1.69455,2.024538 -3.94012,2.358778 -6.2054,2.358778 h -17.73105 c -0.0851,0 -0.17329,-6.22e-4 -0.26253,-0.001 l -0.13283,-10e-4 c -1.0792,-0.01038 -2.32339,-0.02138 -2.32339,0.572495 l 0.21688,3.498682 c 0,0.78626 0.7876,1.356368 2.26528,1.356368 h 16.50968 c 1.47767,0 2.14698,1.35616 1.35938,2.594541 l -2.71876,4.5012 -6.32369,9.69028 h -19.76077 c -0.0633,0 -0.12868,-3.1e-4 -0.19301,-7.2e-4 l -0.10377,-9.4e-4 -0.13387,-0.001 h -0.005 c -1.14769,-0.012 -2.38773,-0.025 -2.28293,0.67149 l 0.21688,3.3808 c 0,0.78626 0.78761,1.35626 2.36386,1.35626 z"
     id="path174"
     inkscape:connector-curvature="0"
     style="clip-rule:evenodd;fill:#ffffff;fill-rule:evenodd;stroke-width:1.03769" />
</svg>
