<?xml version="1.0" encoding="UTF-8" standalone="no"?>
<!-- Created with Inkscape (http://www.inkscape.org/) -->

<svg
   xmlns:dc="http://purl.org/dc/elements/1.1/"
   xmlns:cc="http://creativecommons.org/ns#"
   xmlns:rdf="http://www.w3.org/1999/02/22-rdf-syntax-ns#"
   xmlns:svg="http://www.w3.org/2000/svg"
   xmlns="http://www.w3.org/2000/svg"
   xmlns:sodipodi="http://sodipodi.sourceforge.net/DTD/sodipodi-0.dtd"
   xmlns:inkscape="http://www.inkscape.org/namespaces/inkscape"
   width="480.26694"
   height="145.81764"
   viewBox="0 0 127.07062 38.580919"
   version="1.1"
   id="svg8"
   inkscape:version="0.92.5 (2060ec1f9f, 2020-04-08)"
   sodipodi:docname="pcfx.svg">
  <defs
     id="defs2" />
  <sodipodi:namedview
     id="base"
     pagecolor="#ffffff"
     bordercolor="#666666"
     borderopacity="1.0"
     inkscape:pageopacity="0.0"
     inkscape:pageshadow="2"
     inkscape:zoom="1.1842658"
     inkscape:cx="192.66841"
     inkscape:cy="65.416727"
     inkscape:document-units="mm"
     inkscape:current-layer="layer1"
     showgrid="false"
     units="px"
     inkscape:pagecheckerboard="true"
     inkscape:window-width="1366"
     inkscape:window-height="740"
     inkscape:window-x="0"
     inkscape:window-y="0"
     inkscape:window-maximized="1" />
  <metadata
     id="metadata5">
    <rdf:RDF>
      <cc:Work
         rdf:about="">
        <dc:format>image/svg+xml</dc:format>
        <dc:type
           rdf:resource="http://purl.org/dc/dcmitype/StillImage" />
        <dc:title />
      </cc:Work>
    </rdf:RDF>
  </metadata>
  <g
     inkscape:label="Layer 1"
     inkscape:groupmode="layer"
     id="layer1"
     transform="translate(-2.2906766,-249.51207)">
    <path
       inkscape:connector-curvature="0"
       id="path154"
       d="m 17.233379,287.72957 c -0.285345,-0.19988 -1.840746,-1.11306 -3.456448,-2.02929 C 12.16123,284.78406 9.9422632,283.5256 8.8458948,282.90371 7.749526,282.28182 6.7108609,281.68694 6.53775,281.58174 6.2996871,281.43708 2.6653697,279.32436 2.3972849,279.1748 c -0.1511444,-0.0843 -0.1371952,-8.07814 0.014101,-8.07814 0.2861348,0 6.4311674,3.5309 7.2625904,4.17305 0.4101117,0.31674 1.5482627,1.03909 2.5292237,1.60521 0.980962,0.56613 2.073975,1.22085 2.428918,1.45495 0.354944,0.2341 1.259278,0.74975 2.009631,1.14589 l 1.36428,0.72026 0.718176,-0.54 c 0.394997,-0.297 1.379145,-0.87195 2.186996,-1.27765 0.80785,-0.40572 3.876634,-2.11541 6.819519,-3.79933 2.942884,-1.68392 5.468729,-3.06191 5.612988,-3.0622 0.200047,-4.2e-4 0.262289,0.8875 0.262289,3.74157 v 3.74208 l -1.101614,0.74316 c -0.605888,0.40873 -2.14028,1.337 -3.409759,2.0628 -1.26948,0.72581 -4.262628,2.43721 -6.65144,3.8031 -2.388813,1.36589 -4.421527,2.48344 -4.517144,2.48344 -0.09562,0 -0.407311,-0.16353 -0.692657,-0.36342 z m 54.457004,-4.12937 c -4.433274,-0.86386 -8.312796,-3.87494 -10.27332,-7.97363 -1.198596,-2.50579 -1.475842,-3.74175 -1.463287,-6.52331 0.01206,-2.67426 0.383688,-4.32302 1.466125,-6.50478 1.420912,-2.86398 3.80309,-5.14843 6.913181,-6.62956 2.839983,-1.3525 5.578721,-1.71943 8.566679,-1.14774 4.035711,0.77216 7.366875,3.03121 9.681497,6.56557 0.779116,1.18969 0.617456,1.52648 -0.732715,1.52648 -1.059282,0 -1.079792,-0.0128 -2.577018,-1.60549 -2.707458,-2.88013 -5.272583,-4.06404 -8.785416,-4.05483 -1.07602,0.003 -2.381309,0.10198 -2.900641,0.22034 -2.610495,0.59497 -5.92061,2.98475 -7.286954,5.26091 -1.238838,2.06376 -1.735795,3.87976 -1.735795,6.34305 0,4.34099 1.652418,7.5883 5.089701,10.00221 2.58127,1.81275 5.278079,2.48708 8.277893,2.06984 3.667499,-0.51011 6.264796,-2.22427 8.634537,-5.69861 0.669651,-0.98179 0.696737,-0.9967 1.811424,-0.9967 0.622384,0 1.189947,0.0944 1.26125,0.20977 0.180075,0.29136 -0.972086,2.39026 -2.103234,3.83146 -1.743128,2.22093 -4.720664,4.14704 -7.548967,4.88328 -1.783752,0.46434 -4.549863,0.56177 -6.29494,0.22174 z m 21.350337,-0.26246 c -0.206133,-0.0832 -0.26229,-3.09 -0.26229,-14.04497 v -13.93913 l 6.976896,0.0553 6.976894,0.0553 v 2.51797 2.51798 l -4.07583,0.0571 c -2.57342,0.0361 -4.178356,0.14221 -4.353996,0.28798 -0.370987,0.30789 -0.39378,4.59623 -0.02641,4.96364 0.177384,0.17738 1.379899,0.25179 4.069256,0.25179 3.28746,0 3.83515,0.0461 3.94483,0.33191 0.16565,0.43167 0.16565,4.36013 0,4.7918 -0.10989,0.28636 -0.66834,0.3319 -4.06926,0.3319 -3.400927,0 -3.959371,0.0455 -4.069258,0.33192 -0.07003,0.18254 -0.127366,2.81631 -0.127366,5.85283 0,4.84079 -0.04092,5.5366 -0.331913,5.64828 -0.393303,0.15092 -4.272771,0.14125 -4.651586,-0.0116 z m 13.63931,-0.24982 c 0.0576,-0.22035 1.9106,-3.52119 4.11772,-7.33521 2.20714,-3.81401 4.01297,-6.98651 4.01297,-7.05 0,-0.11078 -5.96684,-10.57159 -6.89294,-12.08442 -0.76572,-1.25082 -0.74981,-1.25899 2.45396,-1.25899 2.50484,0 2.94926,0.0506 3.2255,0.36721 0.17622,0.20196 1.09262,1.73635 2.03645,3.40976 0.94383,1.6734 1.8919,3.22051 2.10682,3.43801 0.4448,0.45014 0.3641,0.55988 3.41531,-4.64455 l 1.50697,-2.57043 h 2.9984 c 2.16234,0 2.9984,0.069 2.9984,0.24737 0,0.22758 -1.64589,3.1256 -5.75161,10.1272 -0.87586,1.49365 -1.59248,2.82311 -1.59248,2.95436 0,0.13126 1.83162,3.44153 4.07026,7.35618 2.23864,3.91465 4.02713,7.18837 3.97441,7.27492 -0.0527,0.0866 -1.40579,0.15737 -3.00682,0.15737 h -2.91097 l -0.39224,-0.57703 c -0.21573,-0.31737 -1.37256,-2.30387 -2.57074,-4.41444 -1.49783,-2.63841 -2.27824,-3.81819 -2.49773,-3.77592 -0.17558,0.0338 -0.76092,0.81641 -1.30075,1.73909 -0.53982,0.92268 -1.67719,2.8579 -2.52747,4.30049 l -1.54596,2.6229 -3.01611,0.0584 c -2.87965,0.0558 -3.01138,0.0403 -2.91135,-0.34224 z m -64.950651,0.0319 c -0.05366,-0.0922 -0.132915,-6.39968 -0.176132,-14.01656 l -0.07858,-13.84887 4.068526,-0.0571 c 5.669286,-0.0796 7.270744,0.36362 9.773172,2.70452 5.615802,5.2533 3.634142,14.51294 -3.629602,16.95992 -1.044216,0.35177 -1.815601,0.43214 -4.172824,0.43476 -1.59049,0.002 -3.007574,0.0768 -3.149073,0.16666 -0.183844,0.11679 -0.273675,1.23877 -0.314747,3.93112 l -0.05747,3.76768 -1.082855,0.0628 c -0.595571,0.0345 -1.126757,-0.0127 -1.18041,-0.10491 z m 9.001736,-10.65461 c 3.289114,-0.97676 5.524089,-4.26386 5.252018,-7.72442 -0.2626,-3.34009 -2.548763,-6.02977 -5.769524,-6.78785 -1.704459,-0.40118 -5.775095,-0.38155 -6.116237,0.0295 -0.201347,0.2426 -0.23999,1.92056 -0.168198,7.30331 0.05126,3.84358 0.162908,7.10111 0.248095,7.23895 0.233964,0.37856 5.231518,0.33318 6.553846,-0.0595 z m -30.932024,5.09427 c -0.138489,-0.13849 -0.251798,-0.50548 -0.251798,-0.81553 v -0.56372 l -2.150771,-0.084 c -1.749802,-0.0684 -2.36771,-0.18432 -3.314419,-0.62205 -1.546591,-0.7151 -2.718232,-1.75719 -2.718232,-2.41765 0,-0.29774 -0.256122,-0.75291 -0.607643,-1.07988 -0.8613458,-0.8012 -1.4889702,-1.92692 -1.4898861,-2.67229 -5.876e-4,-0.48163 -0.2367603,-0.86784 -0.9623412,-1.57373 -1.2648493,-1.23055 -1.8232887,-2.34433 -1.8354554,-3.66077 -0.016332,-1.76715 1.0706949,-3.20848 3.2588128,-4.32099 2.9905199,-1.52047 6.4498949,-1.88353 10.4494289,-1.09668 4.43966,0.87345 7.124723,2.29523 8.525681,4.51449 0.598578,0.94821 0.902655,0.99185 1.479021,0.21227 1.242888,-1.68109 1.905947,-3.918 1.55152,-5.23424 -0.766488,-2.84653 -5.309337,-5.83167 -9.814556,-6.44925 -1.150008,-0.15764 -1.659635,-0.52654 -1.456979,-1.05465 0.152927,-0.39852 0.797819,-0.40109 2.482559,-0.01 5.747918,1.3348 9.565011,4.28109 10.106342,7.80077 0.314581,2.04536 -0.634738,4.49525 -2.558755,6.60334 -0.678974,0.74394 -1.389432,1.77876 -1.596529,2.32545 -0.205234,0.54177 -0.859843,1.58044 -1.454689,2.30815 -0.594845,0.72771 -1.256995,1.71924 -1.471443,2.20338 -0.214448,0.48415 -0.623308,1.0979 -0.90858,1.3639 -0.28527,0.266 -0.742629,0.92357 -1.016354,1.46127 -0.54638,1.0733 -1.900079,2.29779 -3.089808,2.79489 -0.915854,0.38266 -0.844049,0.37847 -1.155126,0.0674 z m 1.794058,-3.5158 c 0.605888,-0.26439 1.101615,-0.61072 1.101615,-0.76962 0,-0.35722 0.0081,-0.35733 -1.783645,0.0222 -1.869293,0.39594 -4.511643,0.4041 -5.986845,0.0185 -1.222406,-0.31955 -1.72239,-0.16163 -1.258388,0.39746 0.871671,1.0503 5.807072,1.25668 7.927263,0.3315 z m -1.626193,-2.07597 c 2.311724,-0.27368 0.779425,-1.21926 -2.058887,-1.27056 -1.101419,-0.0199 -3.186897,0.51211 -3.186897,0.81298 0,0.5072 2.778989,0.7496 5.245784,0.45758 z m 4.426525,-1.51482 c 0.625941,-0.44571 0.813367,-1.17961 0.34696,-1.35859 -0.370035,-0.142 -2.521969,0.58675 -2.61999,0.88726 -0.08362,0.25634 0.879877,0.88196 1.381247,0.89688 0.155296,0.005 0.556598,-0.18688 0.891783,-0.42555 z M 12.77238,270.12382 c 0.08047,-0.24169 -1.17886,-0.79556 -1.371305,-0.60311 -0.05752,0.0575 0.07002,0.29749 0.283409,0.53329 0.40386,0.44626 0.950884,0.48137 1.087896,0.0699 z m 8.873227,-1.81259 c 1.315711,-0.21496 1.573735,-0.32244 1.573735,-0.6556 0,-0.29601 -0.35074,-0.53524 -1.363904,-0.9303 -1.124056,-0.43828 -1.696926,-0.52816 -3.257646,-0.51109 -2.76975,0.0303 -6.184764,0.75955 -6.184764,1.32069 0,0.25323 1.984439,0.65692 3.833859,0.77993 0.896847,0.0596 1.688612,0.20226 1.759479,0.31692 0.13083,0.21169 0.674668,0.16378 3.639241,-0.32055 z m 5.060962,-1.95095 c 0.971605,-0.59022 1.233978,-0.86013 1.233978,-1.26941 0,-1.79964 -2.861172,-4.03808 -6.124599,-4.79159 -1.743459,-0.40255 -2.922875,-0.43471 -5.854137,-0.15962 -3.403572,0.31941 -5.594576,1.09964 -6.9808941,2.48596 -0.4316959,0.4317 -0.5546848,0.75951 -0.5546848,1.47844 0,0.78184 0.1240926,1.05679 0.8077565,1.78972 l 0.8077564,0.86595 0.756634,-0.57711 c 1.232427,-0.94002 3.506059,-1.62221 5.472288,-1.64193 2.849223,-0.0285 6.236432,0.79934 7.910155,1.93343 0.509851,0.34547 1.009075,0.62984 1.109386,0.63194 0.10031,0.002 0.737672,-0.33351 1.416361,-0.74578 z m 59.543818,4.79702 c -0.0128,-0.091 -0.0083,-0.7793 0.01005,-1.52945 0.01832,-0.75014 -0.05772,-1.83534 -0.168983,-2.41154 -0.111266,-0.57619 -0.125473,-1.09553 -0.03157,-1.15406 0.0939,-0.0585 1.006624,-0.0592 2.02828,-0.002 l 1.857557,0.10492 v 2.51798 2.51797 l -1.836024,0.0606 c -1.009814,0.0334 -1.846497,-0.0139 -1.859299,-0.10491 z M 17.222142,251.45932 c -0.394209,-0.41962 -0.445839,-0.61271 -0.284719,-1.06482 0.257676,-0.72305 0.736535,-1.00484 1.417264,-0.83398 0.840181,0.21087 1.119456,0.89934 0.630484,1.55426 -0.623238,0.83476 -1.197126,0.94692 -1.763029,0.34454 z"
       style="fill:#ffffff;stroke-width:0.20983136" />
  </g>
</svg>
