<?xml version="1.0" encoding="UTF-8" standalone="no"?>
<!-- Created with Inkscape (http://www.inkscape.org/) -->

<svg
   xmlns:dc="http://purl.org/dc/elements/1.1/"
   xmlns:cc="http://creativecommons.org/ns#"
   xmlns:rdf="http://www.w3.org/1999/02/22-rdf-syntax-ns#"
   xmlns:svg="http://www.w3.org/2000/svg"
   xmlns="http://www.w3.org/2000/svg"
   xmlns:sodipodi="http://sodipodi.sourceforge.net/DTD/sodipodi-0.dtd"
   xmlns:inkscape="http://www.inkscape.org/namespaces/inkscape"
   width="528.92688"
   height="159.54552"
   viewBox="0 0 139.94523 42.213086"
   version="1.1"
   id="svg8"
   inkscape:version="0.92.5 (2060ec1f9f, 2020-04-08)"
   sodipodi:docname="pcfx.svg">
  <defs
     id="defs2" />
  <sodipodi:namedview
     id="base"
     pagecolor="#ffffff"
     bordercolor="#666666"
     borderopacity="1.0"
     inkscape:pageopacity="0.0"
     inkscape:pageshadow="2"
     inkscape:zoom="1.2137936"
     inkscape:cx="450.71869"
     inkscape:cy="56.981153"
     inkscape:document-units="mm"
     inkscape:current-layer="layer1"
     showgrid="false"
     units="px"
     inkscape:pagecheckerboard="true"
     inkscape:window-width="1366"
     inkscape:window-height="743"
     inkscape:window-x="0"
     inkscape:window-y="0"
     inkscape:window-maximized="1" />
  <metadata
     id="metadata5">
    <rdf:RDF>
      <cc:Work
         rdf:about="">
        <dc:format>image/svg+xml</dc:format>
        <dc:type
           rdf:resource="http://purl.org/dc/dcmitype/StillImage" />
        <dc:title></dc:title>
      </cc:Work>
    </rdf:RDF>
  </metadata>
  <g
     inkscape:label="Layer 1"
     inkscape:groupmode="layer"
     id="layer1"
     transform="translate(1.0909515,-248.58921)">
    <path
       id="path79"
       style="fill:#ffffff;stroke-width:0.09353158"
       d="m 16.342933,248.58926 c -0.763476,-0.006 -1.49596,0.58027 -1.49596,1.39055 0,0.45508 0.410024,1.11665 0.775233,1.25047 0.365236,0.13379 0.819847,0.12328 1.180641,-0.0275 0.423927,-0.17713 0.89145,-0.82834 0.89145,-1.24191 0,-0.36323 -0.321908,-0.97904 -0.603609,-1.15496 -0.235348,-0.14698 -0.493263,-0.21475 -0.747755,-0.21667 z m 3.061741,0.79415 c -0.07974,0.002 -0.140671,0.008 -0.176579,0.0194 -0.392257,0.12585 -0.587257,0.32692 -0.652258,0.67343 -0.124208,0.66209 0.319419,0.93203 2.064434,1.25497 0.617308,0.11424 1.206587,0.24223 1.309472,0.28468 0.102885,0.0425 0.50293,0.14767 0.888747,0.23379 0.385818,0.0861 0.869917,0.23504 1.075686,0.33063 0.205769,0.0956 0.601996,0.26264 0.880639,0.37118 1.107131,0.43124 2.106589,0.97445 3.343725,1.81803 0.145808,0.0994 0.679197,0.60069 1.185597,1.11398 0.723987,0.73382 1.002192,1.09517 1.301814,1.6901 l 0.381084,0.75632 0.0077,1.16938 c 0.0072,1.10079 -0.01075,1.22005 -0.305858,2.03876 -0.405912,1.12609 -0.809197,1.80368 -1.686953,2.83245 -0.303086,0.35525 -0.325165,0.36465 -0.494148,0.21172 -0.09726,-0.088 -0.310553,-0.3943 -0.473878,-0.68064 -0.382603,-0.67078 -2.025558,-2.31626 -2.690116,-2.69417 -0.912172,-0.51871 -2.37106,-1.21436 -2.899577,-1.38244 -0.282932,-0.09 -0.556225,-0.1949 -0.607663,-0.23334 -0.115028,-0.086 -1.60714,-0.43081 -2.245067,-0.51892 -0.257211,-0.0355 -0.509819,-0.0966 -0.561266,-0.13559 -0.189621,-0.1437 -2.090922,-0.29391 -3.626611,-0.28694 -1.570981,0.007 -2.995112,0.12076 -3.621656,0.28874 -0.180048,0.0483 -0.706399,0.15707 -1.16938,0.24145 -0.462981,0.0844 -1.0945122,0.24943 -1.4031663,0.36712 -0.3086542,0.11768 -0.7224619,0.26469 -0.9198285,0.32658 -0.3536953,0.11094 -1.5869869,0.75704 -2.2004712,1.15271 -0.4886728,0.31517 -1.6225822,1.47225 -1.897315,1.93605 -0.3432303,0.57945 -0.4525495,1.04255 -0.4531575,1.91804 -5.304e-4,0.76451 0.1959466,1.74517 0.4018055,2.00452 0.062442,0.0787 0.1975617,0.31075 0.3000028,0.51577 0.2053501,0.411 1.5357012,1.79391 1.9761448,2.05408 0.2611703,0.15428 0.2857941,0.21982 0.3864901,1.01758 0.1464377,1.16014 0.5033248,1.86182 1.4027159,2.75903 0.6374691,0.63593 0.6910638,0.72007 0.7427998,1.16938 0.030654,0.26623 0.1556997,0.69683 0.2779305,0.95722 0.2662302,0.56715 1.0384911,1.3489 1.6198351,1.6392 0.231491,0.1156 0.484104,0.26196 0.561267,0.32568 0.07716,0.0637 0.519009,0.22853 0.981991,0.36577 0.462981,0.13724 0.910191,0.28563 0.993703,0.32973 0.464362,0.24521 4.314941,0.35298 4.875271,0.13649 0.267349,-0.10329 0.195313,0.1724 -0.124776,0.47703 -0.557673,0.53075 -0.572344,0.85307 -0.0536,1.16938 0.361505,0.22047 0.265549,0.22345 1.053613,-0.0347 0.780869,-0.25578 1.329418,-0.58122 2.172994,-1.2892 0.844825,-0.70902 1.420077,-1.40468 1.822089,-2.20318 0.185006,-0.36746 0.481164,-0.78819 0.657664,-0.93514 0.40343,-0.33591 0.957067,-1.06174 1.194606,-1.56533 0.524947,-1.11291 0.851006,-1.62617 1.530195,-2.40948 0.410713,-0.47368 0.854913,-1.03264 0.986946,-1.24236 0.280902,-0.44619 1.212624,-2.33525 1.212624,-2.45858 0,-0.0464 0.298493,-0.39772 0.663069,-0.78064 1.980454,-2.08009 3.12642,-4.0657 3.325707,-5.76131 0.03267,-0.27798 0.09545,-0.52768 0.139642,-0.55496 0.104776,-0.0648 0.104776,-1.75127 0,-1.86714 -0.04419,-0.0489 -0.128869,-0.34109 -0.188291,-0.6491 -0.114392,-0.59293 -0.803855,-2.03945 -1.215777,-2.55048 -0.748803,-0.92897 -1.962847,-2.00793 -2.920298,-2.59507 -1.372081,-0.8414 -1.945669,-1.15823 -2.282454,-1.26172 -0.205769,-0.0632 -0.458381,-0.16755 -0.561266,-0.23153 -0.102885,-0.064 -0.518882,-0.23092 -0.924333,-0.37073 -0.405453,-0.13981 -0.805502,-0.29107 -0.888747,-0.33649 -0.08325,-0.0454 -0.550947,-0.17019 -1.03965,-0.27703 -0.488702,-0.10684 -0.972801,-0.23576 -1.075686,-0.28649 -0.317273,-0.15654 -1.799941,-0.36881 -2.35813,-0.35766 z m -4.12076,10.79245 c 2.054151,-0.005 4.296809,0.12189 4.509953,0.33198 0.04887,0.0482 0.169594,0.0878 0.26802,0.0878 0.341624,0 1.781559,0.3881 2.114435,0.56982 0.184084,0.10051 0.523922,0.26636 0.755412,0.36848 1.7209,0.75908 3.330211,2.15223 3.723459,3.2239 0.05663,0.15432 0.149817,0.46433 0.207209,0.68875 0.09522,0.37235 0.08598,0.42727 -0.106758,0.63243 -0.116158,0.12364 -0.403227,0.33508 -0.637844,0.46983 -0.234617,0.13475 -0.511577,0.3217 -0.615321,0.41532 -0.103744,0.0936 -0.390279,0.27719 -0.636492,0.40811 -0.551206,0.29305 -0.813981,0.29971 -1.155417,0.0279 -0.769985,-0.61288 -2.215418,-1.34738 -3.163543,-1.60722 -0.308654,-0.0846 -0.645321,-0.19118 -0.748205,-0.23694 -1.064143,-0.4734 -4.737498,-0.6573 -6.770334,-0.33875 -1.692325,0.26521 -3.5657959,0.99038 -4.7892347,1.85317 l -0.5256807,0.37073 -0.3644178,-0.18829 c -1.1866715,-0.61225 -1.9252765,-2.14064 -1.629745,-3.37256 0.1452652,-0.60553 0.8328349,-1.33282 1.7806473,-1.8838 1.3882172,-0.80697 2.8643769,-1.31984 4.7694149,-1.65722 0.617385,-0.10934 1.781952,-0.16036 3.014442,-0.16351 z m 0.709016,6.74916 c 1.445996,0.0216 3.098964,0.21172 3.759044,0.46892 0.07716,0.0301 0.45969,0.16797 0.850459,0.30676 0.990806,0.35191 1.633475,0.87342 1.31713,1.06893 -0.04247,0.0263 -0.726363,0.15416 -1.519834,0.28424 -0.793472,0.13006 -1.569113,0.27576 -1.723441,0.32387 -0.408537,0.12743 -1.946983,0.18632 -2.759034,0.10586 -3.300368,-0.32704 -5.188249,-0.61495 -5.837893,-0.891 l -0.36622,-0.15541 0.2725251,-0.22117 c 0.1498909,-0.12153 0.5251379,-0.31087 0.8337919,-0.42072 0.308654,-0.10986 0.699858,-0.25976 0.868927,-0.33289 0.416239,-0.18001 1.616969,-0.38148 2.971649,-0.4991 0.391554,-0.034 0.850897,-0.0455 1.332896,-0.0383 z m 7.546468,3.25183 c 0.02521,3.9e-4 0.043,0.003 0.05225,0.009 0.12457,0.077 0.11035,0.64154 -0.02342,0.93514 -0.06158,0.13515 -0.261377,0.32071 -0.444148,0.41217 -0.642365,0.32144 -0.793716,0.31589 -1.268931,-0.0469 -0.240111,-0.18328 -0.536711,-0.37899 -0.659016,-0.43469 -0.122307,-0.0557 -0.202752,-0.13357 -0.17838,-0.17297 0.09128,-0.1477 2.143559,-0.70773 2.521646,-0.70181 z m -14.5623,0.1455 c 0.3948726,-10e-4 2.263535,0.40345 2.263535,0.49009 0,0.0427 -0.06978,0.10425 -0.154957,0.13694 -0.08518,0.0327 -0.387776,0.19971 -0.672528,0.37117 -0.284753,0.17147 -0.5527446,0.31172 -0.5955015,0.31172 -0.162166,0 -0.9049802,-0.77024 -0.9968562,-1.03379 -0.09082,-0.26051 -0.08235,-0.27547 0.1563077,-0.27613 z m 7.262231,1.62208 c 0.180697,-0.002 0.336389,0.003 0.456761,0.0167 1.783828,0.19966 3.131751,0.56961 2.902279,0.79686 -0.04408,0.0436 -0.437069,0.1239 -0.872981,0.17838 -0.917434,0.11456 -4.500782,0.11203 -5.499151,-0.004 -0.73159,-0.0851 -1.124772,-0.23424 -0.985595,-0.37342 0.239576,-0.23958 2.733803,-0.60019 3.998687,-0.61442 z m 17.224486,0.20091 c -0.140179,-0.0186 -0.494018,0.15702 -0.890999,0.44865 -0.124604,0.0915 -0.397892,0.25172 -0.607665,0.35631 -0.602014,0.30017 -1.185145,0.62692 -1.400012,0.78424 -0.108639,0.0795 -0.428785,0.2676 -0.711718,0.41802 -0.282933,0.15044 -0.767032,0.40773 -1.075686,0.57208 -0.308653,0.16436 -0.58239,0.33029 -0.608114,0.36847 -0.02572,0.0382 -0.299009,0.20205 -0.607663,0.36442 -0.837645,0.44065 -1.364917,0.74229 -1.512627,0.86487 -0.07256,0.0602 -0.330284,0.20941 -0.572528,0.33199 -0.242243,0.12257 -0.756085,0.40902 -1.141902,0.63649 -0.385818,0.22747 -0.838447,0.47908 -1.005866,0.55902 -0.167418,0.0799 -0.525211,0.28321 -0.795052,0.4518 -0.269841,0.16859 -0.595725,0.36096 -0.724331,0.42703 -0.128606,0.0661 -0.471182,0.25348 -0.761269,0.41667 -0.290085,0.16321 -0.816437,0.45699 -1.169381,0.65271 -0.352943,0.19572 -0.894059,0.49944 -1.202714,0.67478 -0.308654,0.17535 -0.756802,0.42398 -0.995955,0.55271 -0.239155,0.12873 -0.624126,0.36193 -0.855413,0.51802 -0.231288,0.1561 -0.468592,0.28379 -0.527483,0.28379 -0.111439,0 -0.415107,-0.15598 -1.362625,-0.70001 -0.308654,-0.17722 -0.792303,-0.45108 -1.075235,-0.60856 -0.282934,-0.15749 -0.809284,-0.47317 -1.169381,-0.70181 -0.360096,-0.22864 -0.739015,-0.45532 -0.8419,-0.50361 -0.102884,-0.0483 -0.544731,-0.30112 -0.981991,-0.56171 -0.43726,-0.26059 -1.0683404,-0.62409 -1.4027159,-0.80767 -1.8497308,-1.01553 -3.307251,-1.83515 -4.518511,-2.54192 -0.3700072,-0.21589 -0.8875995,-0.51076 -1.1500108,-0.65496 -0.2624112,-0.14419 -0.7671854,-0.42181 -1.1220827,-0.61712 -0.3548966,-0.1953 -0.8769877,-0.50012 -1.1599206,-0.67703 -0.2829332,-0.17691 -0.7345245,-0.42996 -1.0036132,-0.56262 -0.2690883,-0.13266 -0.5139283,-0.28128 -0.5441493,-0.33018 -0.06604,-0.10686 -0.667395,-0.36667 -0.848656,-0.36667 -0.10765,0 -0.128831,0.72395 -0.128831,4.39463 v 4.39419 l 0.444149,0.23964 c 0.244351,0.13179 0.69676,0.38977 1.0054145,0.57343 0.7472588,0.44461 1.3686567,0.80029 2.1045243,1.20451 0.3343754,0.18369 0.9025285,0.50554 1.2626244,0.71533 0.3600967,0.20979 0.8864474,0.50371 1.1693805,0.65316 0.2829332,0.14945 0.7459059,0.41576 1.0288384,0.59144 0.2829332,0.17568 0.760339,0.45786 1.0608209,0.62749 0.3004824,0.16963 0.6582748,0.37347 0.7950525,0.4527 0.1367778,0.0792 0.659825,0.37362 1.1626236,0.65451 2.1339594,1.19217 3.8181634,2.15134 4.1833724,2.38246 0.353305,0.22358 1.011902,0.59815 1.6838,0.95767 0.231491,0.12387 0.629495,0.345 0.884693,0.49144 0.441893,0.25357 0.479456,0.25964 0.791449,0.12928 0.180179,-0.0753 0.39258,-0.19368 0.471626,-0.26306 0.07905,-0.0694 0.396307,-0.26088 0.704962,-0.42523 0.308654,-0.16437 0.753867,-0.411 0.989648,-0.54821 0.235782,-0.1372 0.6147,-0.3524 0.8419,-0.47838 0.2272,-0.12598 0.524941,-0.29457 0.661718,-0.37433 0.136779,-0.0798 0.494571,-0.28401 0.795053,-0.45406 0.300482,-0.17004 0.756762,-0.4327 1.013974,-0.58379 0.257212,-0.15108 0.741311,-0.42513 1.075685,-0.60856 0.334376,-0.18343 0.881403,-0.49681 1.215778,-0.69685 0.334375,-0.20005 0.860726,-0.49562 1.16938,-0.65677 0.308654,-0.16114 0.792302,-0.43367 1.075235,-0.60541 0.712171,-0.43228 1.84343,-1.07106 2.291463,-1.29415 0.20577,-0.10246 0.441267,-0.24304 0.522978,-0.31217 0.08171,-0.0691 0.363537,-0.24096 0.626583,-0.38198 1.370558,-0.73474 1.665118,-0.89889 1.884702,-1.04866 0.498995,-0.34037 0.79689,-0.5248 1.213073,-0.75136 l 0.429284,-0.23379 0.02433,-4.34328 c 0.0143,-2.55472 -0.01109,-4.37913 -0.06171,-4.42977 -0.01082,-0.0108 -0.02637,-0.0176 -0.0464,-0.0203 z m -12.418134,2.43335 c 0.08866,0.0887 -0.941884,0.62931 -1.527493,0.80136 -0.360096,0.10581 -0.823069,0.2581 -1.028838,0.33829 -0.424151,0.16522 -3.422552,0.25844 -4.162202,0.12928 -1.185875,-0.20707 -2.805882,-0.86594 -2.805882,-1.141 0,-0.10286 -0.05175,-0.10544 1.063524,0.0572 2.514207,0.36664 5.067816,0.35106 7.399168,-0.045 0.564942,-0.096 1.042711,-0.1591 1.061723,-0.1401 z"
       inkscape:connector-curvature="0" />
    <path
       id="path77"
       style="fill:#ffffff;stroke-width:0.09353158"
       d="m 79.383718,254.17788 c -1.119614,3.7e-4 -2.239005,0.0378 -2.393136,0.11214 -0.123534,0.0596 -0.677714,0.19445 -1.231966,0.30024 -0.554249,0.10578 -1.143534,0.25599 -1.309481,0.33383 -0.165939,0.0778 -0.57286,0.22824 -0.904335,0.33331 -0.331475,0.10508 -0.668729,0.24654 -0.748792,0.31471 -0.08006,0.0681 -0.334367,0.19683 -0.565856,0.28629 -0.231492,0.0894 -0.484048,0.21592 -0.561208,0.28112 -0.07717,0.0652 -0.330232,0.21892 -0.561721,0.34158 -0.231492,0.12264 -0.554614,0.32903 -0.718304,0.45837 -0.163693,0.12935 -0.499142,0.38219 -0.745175,0.56224 -0.535856,0.39214 -2.386889,2.24289 -2.818432,2.81792 -0.168804,0.22493 -0.404556,0.53554 -0.524515,0.68988 -0.119962,0.15432 -0.314159,0.46976 -0.430983,0.70125 -0.116824,0.2315 -0.243649,0.44195 -0.282151,0.46767 -0.139298,0.0931 -0.770837,1.36921 -0.944647,1.90893 -0.09788,0.30395 -0.223341,0.60683 -0.278535,0.67334 -0.115729,0.13945 -0.409387,1.26862 -0.508498,1.9544 -0.03718,0.2572 -0.104293,0.51326 -0.148828,0.56948 -0.119885,0.15131 -0.265853,1.71794 -0.267681,2.87114 -0.0019,1.10017 0.155961,2.76907 0.275952,2.91868 0.04138,0.0516 0.105593,0.28321 0.142108,0.5147 0.0954,0.60481 0.419248,1.80144 0.520898,1.92392 0.0476,0.0574 0.171627,0.37009 0.275437,0.69504 0.103809,0.32494 0.237077,0.64925 0.296106,0.72037 0.05903,0.0711 0.208658,0.34762 0.332279,0.61444 0.123621,0.26683 0.258249,0.50697 0.299723,0.53381 0.04147,0.0269 0.167825,0.23023 0.280088,0.45165 0.193865,0.38236 0.591063,0.96336 1.057814,1.54565 0.297604,0.37128 2.333768,2.395 2.718181,2.70164 0.46213,0.36862 1.265262,0.90086 1.749764,1.15962 0.231492,0.12364 0.484563,0.26367 0.561724,0.31161 0.307591,0.19115 1.758971,0.84698 1.874821,0.84698 0.06796,0 0.294693,0.0818 0.503844,0.18138 0.519446,0.24733 1.332677,0.44314 2.391587,0.57722 0.488701,0.0619 0.927817,0.1484 0.976683,0.19172 v -5.2e-4 c 0.119552,0.1061 3.191192,0.10087 3.396692,-0.005 0.08933,-0.0463 0.54161,-0.13246 1.004591,-0.19121 0.887238,-0.11254 1.993114,-0.35464 2.150771,-0.47129 0.05144,-0.0381 0.346088,-0.14583 0.654741,-0.23926 0.308655,-0.0934 0.661765,-0.24633 0.78445,-0.34003 0.122682,-0.0937 0.291047,-0.17123 0.374136,-0.17208 0.08309,-8e-4 0.319262,-0.1037 0.525031,-0.22841 0.205772,-0.12472 0.594879,-0.33739 0.865066,-0.47284 0.27019,-0.13543 0.545481,-0.29947 0.610815,-0.36484 0.06533,-0.0653 0.285787,-0.23186 0.49041,-0.37 1.480889,-0.99971 2.301859,-1.80673 3.785815,-3.7207 0.563446,-0.72673 1.777153,-2.95934 1.777153,-3.26905 0,-0.16703 -0.08892,-0.17725 -1.500685,-0.17725 h -1.501201 l -0.158647,0.28783 c -0.279984,0.50673 -0.938548,1.52697 -1.160653,1.79834 -0.348072,0.42527 -2.4326,2.49649 -2.512507,2.49649 -0.04028,0 -0.192032,0.0987 -0.337447,0.21963 -0.145412,0.12089 -0.46949,0.33367 -0.719852,0.47232 -0.250364,0.13866 -0.516352,0.31278 -0.591179,0.38757 -0.07483,0.0749 -0.175223,0.13643 -0.223242,0.13643 -0.04802,0 -0.307923,0.10889 -0.577742,0.24184 -0.269819,0.13296 -0.84845,0.34518 -1.285711,0.47129 -0.437258,0.12612 -0.878967,0.26816 -0.98185,0.31575 -0.7112,0.32916 -3.433921,0.46079 -5.062225,0.24494 -0.623695,-0.0827 -1.255594,-0.21327 -1.40353,-0.29042 -0.147942,-0.0771 -0.320218,-0.1408 -0.38344,-0.14108 -0.215826,-10e-4 -1.381596,-0.40507 -1.529622,-0.5302 -0.08122,-0.0687 -0.190201,-0.12505 -0.242364,-0.12505 -0.05216,0 -0.280225,-0.10497 -0.506944,-0.23358 -0.226724,-0.1286 -0.538655,-0.29402 -0.692981,-0.36742 -0.154329,-0.0733 -0.50922,-0.30512 -0.788582,-0.5147 -0.279366,-0.20958 -0.535586,-0.38085 -0.569476,-0.38085 -0.03389,0 -0.541624,-0.48262 -1.128612,-1.07229 -0.986155,-0.99066 -1.862418,-2.05883 -1.862418,-2.27066 0,-0.0488 -0.07936,-0.1604 -0.176218,-0.24805 -0.09686,-0.0876 -0.249801,-0.35761 -0.340032,-0.59944 -0.09023,-0.24183 -0.221758,-0.50573 -0.29197,-0.58705 -0.07021,-0.0813 -0.236321,-0.46065 -0.369488,-0.84232 -0.133162,-0.38167 -0.276829,-0.73561 -0.318844,-0.78704 -0.04202,-0.0515 -0.171562,-0.64073 -0.288354,-1.30948 -0.286694,-1.64158 -0.288208,-3.73088 -0.0031,-5.32267 0.109739,-0.61268 0.239126,-1.16109 0.286806,-1.21853 0.04768,-0.0575 0.192834,-0.41914 0.322977,-0.80357 0.414462,-1.22432 1.101257,-2.42954 2.033468,-3.56877 0.593871,-0.72575 1.777831,-1.88228 2.267562,-2.21485 1.518073,-1.03091 2.552035,-1.57838 3.564641,-1.88723 0.360095,-0.10983 0.727416,-0.23792 0.816486,-0.28474 0.76305,-0.40119 4.203908,-0.5375 6.011002,-0.23822 0.565864,0.0937 1.074219,0.20771 1.129646,0.25321 0.05543,0.0455 0.371375,0.1659 0.701768,0.2682 0.687639,0.21291 3.008564,1.39338 3.218924,1.63711 0.05187,0.0601 0.250862,0.21232 0.442351,0.33796 0.191487,0.12563 0.759987,0.65236 1.262973,1.17099 0.917061,0.94557 1.139991,1.20814 1.545124,1.81643 l 0.218075,0.32763 1.488797,0.0253 c 0.819044,0.0142 1.542457,0.006 1.607137,-0.0186 0.15502,-0.0595 -0.0045,-0.44479 -0.546737,-1.3193 -0.554686,-0.89473 -0.678482,-1.06259 -1.467094,-1.99213 -1.118195,-1.31805 -2.615617,-2.59885 -3.848343,-3.29076 -1.283705,-0.72051 -1.958115,-1.05436 -2.478402,-1.22679 -0.308653,-0.1023 -0.667361,-0.243 -0.796333,-0.31265 -0.128973,-0.0697 -0.718261,-0.21891 -1.309481,-0.33176 -0.591222,-0.11286 -1.176131,-0.25328 -1.299662,-0.31212 -0.155972,-0.0741 -1.275588,-0.11045 -2.395204,-0.11008 z m 41.927162,0.61082 -11.04843,0.0238 -11.048934,0.0243 -0.02376,15.29157 c -0.01318,8.41083 -0.0036,15.34592 0.02119,15.41095 0.03618,0.0924 0.663081,0.11338 2.876314,0.094 l 2.83187,-0.0248 0.0465,-6.5009 0.047,-6.50038 4.48914,-0.0465 4.48964,-0.047 v -2.94609 -2.94607 l -4.48964,-0.047 -4.48914,-0.047 v -2.75901 -2.759 l 4.72375,-0.047 4.7227,-0.0465 0.0248,-2.78277 c 0.0274,-3.07606 0.0643,-3.23452 0.53278,-2.29134 0.13416,0.27007 0.43065,0.80689 0.65836,1.1927 0.2277,0.38582 0.4792,0.83819 0.55914,1.00562 0.08,0.16741 0.28163,0.52579 0.44803,0.79633 0.36038,0.58592 0.5371,0.89349 0.87178,1.51826 0.13778,0.25721 0.28179,0.48847 0.31988,0.51418 0.0381,0.0257 0.20061,0.29957 0.36174,0.60823 0.3007,0.57601 0.54438,1.00972 1.21077,2.15129 0.21021,0.36009 0.51106,0.90486 0.66818,1.21078 0.15712,0.30592 0.31955,0.57929 0.36122,0.60771 0.0416,0.0284 0.17501,0.26213 0.29611,0.51935 0.12108,0.25721 0.29827,0.56993 0.39377,0.69453 0.0955,0.12461 0.25702,0.39795 0.35915,0.60772 0.10213,0.20977 0.32819,0.61314 0.5023,0.89607 0.1741,0.28293 0.42999,0.72905 0.56844,0.99167 l 0.25166,0.47749 -0.26562,0.49196 c -0.14611,0.27044 -0.38097,0.70773 -0.52193,0.97203 -0.14096,0.26429 -0.3238,0.57322 -0.40669,0.68626 -0.0828,0.11304 -0.22008,0.3317 -0.30489,0.48628 -0.0849,0.15459 -0.33886,0.60967 -0.56431,1.01079 -0.22544,0.40113 -0.50807,0.91295 -0.62839,1.1374 -0.12031,0.22446 -0.26587,0.46443 -0.32349,0.53382 -0.0576,0.0694 -0.24673,0.39121 -0.41961,0.71468 -0.17288,0.32347 -0.4525,0.83434 -0.62219,1.13482 -0.16969,0.30048 -0.37999,0.67333 -0.46664,0.8294 -0.0867,0.15607 -0.30753,0.52711 -0.49092,0.82424 -0.18339,0.29711 -0.33331,0.58323 -0.33331,0.63614 0,0.0529 -0.0589,0.15545 -0.13074,0.22737 -0.0719,0.0719 -0.26394,0.38 -0.42634,0.68472 -0.1624,0.3047 -0.46589,0.84861 -0.67437,1.20871 -0.52606,0.9086 -0.80125,1.39791 -1.18391,2.10426 -0.18115,0.33438 -0.35864,0.62903 -0.39429,0.65474 -0.0357,0.0257 -0.1604,0.23518 -0.27699,0.46509 -0.1166,0.22991 -0.29644,0.53194 -0.39945,0.67128 -0.10305,0.13933 -0.16178,0.3196 -0.13075,0.40049 0.0499,0.12997 0.44786,0.14676 3.41995,0.14676 h 3.36362 l 0.29042,-0.43046 c 0.15974,-0.23669 0.39685,-0.62592 0.52658,-0.86507 0.12971,-0.23915 0.40739,-0.72925 0.61702,-1.08934 0.6858,-1.17808 0.91262,-1.58212 1.20975,-2.15129 0.16111,-0.30864 0.32458,-0.58251 0.36276,-0.60823 0.0382,-0.0257 0.20358,-0.29906 0.36794,-0.60771 0.70579,-1.32551 0.8471,-1.57507 0.97462,-1.71876 0.0741,-0.0835 0.20406,-0.29952 0.28835,-0.47956 0.30335,-0.64792 0.94292,-1.71836 1.04645,-1.75131 0.0928,-0.0295 0.307,0.2936 0.88108,1.33067 0.0854,0.15433 0.32862,0.57524 0.54054,0.93534 0.21192,0.36009 0.48185,0.84601 0.59996,1.08004 0.11811,0.23403 0.30901,0.54504 0.42375,0.69091 0.11474,0.14586 0.20825,0.31323 0.20825,0.37155 0,0.0583 0.10908,0.26634 0.24237,0.46251 0.1333,0.19616 0.36689,0.59463 0.51934,0.88625 0.15246,0.29162 0.41932,0.76248 0.59222,1.04541 0.1729,0.28293 0.44712,0.77665 0.60978,1.09761 0.16266,0.32096 0.33523,0.60788 0.38344,0.63769 0.0482,0.0298 0.15219,0.2087 0.23099,0.39739 0.0788,0.18868 0.2327,0.43804 0.3421,0.55449 l 0.19895,0.21187 h 3.3352 c 1.83439,0 3.35998,-0.0248 3.38997,-0.0548 0.0593,-0.0593 -0.30042,-0.88383 -0.47955,-1.09967 -0.061,-0.0735 -0.20818,-0.31763 -0.32763,-0.54209 -0.11946,-0.22444 -0.41153,-0.74498 -0.64854,-1.15651 -0.23701,-0.41154 -0.51313,-0.92186 -0.61392,-1.13482 -0.1008,-0.21297 -0.22606,-0.41406 -0.27853,-0.44648 -0.0525,-0.0324 -0.22282,-0.32834 -0.37827,-0.65733 -0.15544,-0.329 -0.32511,-0.62412 -0.37724,-0.65629 -0.0521,-0.0322 -0.18149,-0.25566 -0.28784,-0.49609 -0.10635,-0.24042 -0.22664,-0.45925 -0.26717,-0.48679 -0.0406,-0.0275 -0.22192,-0.32398 -0.40307,-0.65836 -0.38267,-0.70635 -0.65837,-1.19567 -1.18443,-2.10427 -0.20848,-0.3601 -0.51198,-0.904 -0.67437,-1.20871 -0.16239,-0.30471 -0.35391,-0.61332 -0.42582,-0.68523 -0.0719,-0.0719 -0.13074,-0.17454 -0.13074,-0.22841 0,-0.0539 -0.15797,-0.35545 -0.35088,-0.67024 -0.19291,-0.31479 -0.40436,-0.6785 -0.47026,-0.8077 -0.066,-0.1292 -0.2861,-0.50796 -0.48886,-0.84233 -0.20276,-0.33438 -0.49989,-0.87123 -0.66042,-1.19269 -0.16053,-0.32146 -0.33009,-0.6078 -0.37672,-0.63665 -0.1155,-0.0714 -0.10749,-0.48395 0.0109,-0.55708 0.0526,-0.0325 0.22166,-0.29809 0.37568,-0.59014 0.15403,-0.29205 0.42681,-0.78327 0.60617,-1.09192 0.17937,-0.30866 0.45466,-0.79298 0.61185,-1.07591 0.1572,-0.28293 0.44956,-0.78803 0.64957,-1.12241 0.20001,-0.33438 0.49498,-0.87015 0.65526,-1.19062 0.16028,-0.32048 0.33457,-0.60888 0.38705,-0.64131 0.0525,-0.0324 0.17701,-0.23351 0.27751,-0.44648 0.1005,-0.21296 0.39201,-0.7451 0.6475,-1.18236 0.25549,-0.43727 0.55002,-0.97206 0.65423,-1.18856 0.10421,-0.2165 0.2309,-0.41924 0.28163,-0.45062 0.0508,-0.0314 0.15507,-0.19134 0.23151,-0.35501 0.0765,-0.16367 0.34773,-0.65467 0.60358,-1.09193 0.25586,-0.43726 0.54952,-0.9669 0.65216,-1.17667 0.10265,-0.20977 0.26467,-0.4831 0.36019,-0.60771 0.0955,-0.1246 0.27268,-0.43732 0.39377,-0.69453 0.12109,-0.25722 0.24935,-0.48898 0.28474,-0.5147 0.0354,-0.0257 0.17639,-0.26836 0.31315,-0.5395 0.18487,-0.36645 0.21731,-0.5043 0.12816,-0.53847 -0.066,-0.0249 -1.63411,-0.0352 -3.48506,-0.0217 l -3.36517,0.0248 -0.34571,0.60771 c -0.19011,0.33438 -0.46131,0.83949 -0.60203,1.12242 -0.14071,0.28293 -0.29044,0.53796 -0.3328,0.56637 -0.0424,0.0284 -0.20539,0.30128 -0.36225,0.6072 -0.15686,0.30592 -0.47288,0.87198 -0.7028,1.2578 -0.22992,0.38581 -0.48012,0.83575 -0.55604,0.99942 -0.0759,0.16367 -0.17761,0.32159 -0.22582,0.3514 -0.0482,0.0298 -0.22123,0.31726 -0.38448,0.63821 -0.16324,0.32097 -0.46081,0.85676 -0.66094,1.19114 -0.20014,0.33437 -0.41506,0.72411 -0.47852,0.86558 -0.0634,0.14147 -0.16651,0.25683 -0.22893,0.25683 -0.12013,0 -0.37608,-0.32971 -0.61598,-0.79478 -0.19406,-0.37621 -0.75319,-1.35861 -1.19838,-2.10478 -0.1995,-0.33438 -0.44512,-0.78181 -0.5457,-0.99477 -0.10057,-0.21297 -0.22555,-0.41407 -0.27802,-0.44649 -0.0525,-0.0324 -0.22678,-0.32083 -0.38705,-0.6413 -0.16029,-0.32047 -0.45592,-0.85625 -0.65733,-1.19063 -0.20142,-0.33438 -0.48388,-0.83991 -0.62787,-1.12344 -0.14399,-0.28353 -0.38233,-0.67305 -0.52917,-0.86558 z m -73.436865,0.0475 -4.685503,5.2e-4 -0.02429,15.29157 c -0.01323,8.41083 -0.0038,15.34643 0.02119,15.41198 0.03475,0.0918 0.401563,0.11322 1.567865,0.0935 l 1.521354,-0.0253 0.04702,-4.30309 0.04703,-4.30207 3.039607,-0.0594 c 2.916034,-0.0569 4.60303,-0.21009 4.90461,-0.44545 0.05455,-0.0426 0.351772,-0.15293 0.660424,-0.24546 0.308655,-0.0925 0.624605,-0.22051 0.701765,-0.2837 0.07716,-0.0632 0.37129,-0.21158 0.654225,-0.3297 0.282932,-0.11811 0.633351,-0.31194 0.778764,-0.43098 0.145412,-0.11905 0.302016,-0.21601 0.347781,-0.21601 0.0791,0 0.208357,-0.10669 1.19321,-0.98237 0.429946,-0.38229 1.433267,-1.58785 1.722893,-2.07015 0.08855,-0.14746 0.203578,-0.33111 0.25528,-0.40825 0.172133,-0.25693 0.939951,-1.95168 0.940512,-2.07584 2.3e-4,-0.0673 0.06477,-0.24503 0.143142,-0.39532 0.53784,-1.03136 0.597353,-4.77838 0.09509,-5.99344 -0.06379,-0.15433 -0.193415,-0.53315 -0.287837,-0.84181 -0.09443,-0.30865 -0.219805,-0.62462 -0.279054,-0.70176 -0.05925,-0.0772 -0.198437,-0.3557 -0.308509,-0.61909 -0.35928,-0.85972 -1.08631,-1.89653 -1.982825,-2.82773 -0.552174,-0.57355 -2.0048,-1.69705 -2.194179,-1.69705 -0.06317,0 -0.2121,-0.0847 -0.330729,-0.18759 -0.118628,-0.10285 -0.251253,-0.18707 -0.295074,-0.18707 -0.04382,0 -0.300685,-0.10913 -0.570507,-0.24236 -0.61849,-0.30538 -1.500288,-0.5664 -2.196254,-0.65061 -0.296232,-0.0358 -0.597569,-0.11256 -0.669726,-0.17053 -0.09338,-0.075 -1.482439,-0.10542 -4.817277,-0.10542 z m 1.333251,2.86753 v 5.3e-4 c 1.810602,0.006 3.488934,0.1144 4.082439,0.27388 0.205769,0.0553 0.593376,0.20246 0.860928,0.32711 0.267554,0.12464 0.582988,0.26948 0.701252,0.32143 0.753448,0.33121 1.515633,0.88637 2.195729,1.60042 0.464746,0.48794 1.243835,1.56948 1.245402,1.72858 5.29e-4,0.0574 0.08015,0.20522 0.177252,0.32866 0.207671,0.26402 0.535665,1.32362 0.626316,2.02416 0.0351,0.27123 0.100547,0.51549 0.145212,0.54312 0.106865,0.066 0.104886,1.97721 -0.0021,2.04329 -0.04543,0.0281 -0.111273,0.28386 -0.146762,0.56792 -0.07985,0.63908 -0.378539,1.70212 -0.529166,1.88361 -0.06172,0.0744 -0.211336,0.33343 -0.33228,0.57567 -0.383784,0.7687 -1.123476,1.67572 -1.808157,2.21744 -0.848493,0.67132 -0.978408,0.75961 -1.309997,0.88728 -0.180052,0.0693 -0.39456,0.18348 -0.477491,0.25374 -0.241636,0.20468 -1.596295,0.57991 -2.112534,0.58601 -0.163714,0.002 -0.323144,0.0453 -0.355534,0.0966 -0.09173,0.14844 -5.745911,0.1263 -5.802746,-0.0227 -0.02455,-0.0643 -0.03396,-3.73722 -0.02066,-8.16126 l 0.02429,-8.04343 2.057238,-0.0279 c 0.261284,-0.004 0.52269,-0.004 0.781346,-0.004 z m 44.338896,8.88886 c -0.797414,0.003 -1.379067,0.0231 -1.41025,0.0543 -0.04165,0.0416 -0.01304,0.43141 0.06356,0.86661 0.07661,0.4352 0.139456,0.94702 0.139528,1.13689 6.8e-5,0.18987 0.04262,0.37125 0.09405,0.40307 0.115435,0.0713 0.125778,2.125 0.01138,2.24948 -0.09912,0.10781 -0.206449,1.12577 -0.127124,1.20509 0.03106,0.0311 1.005996,0.0453 2.166792,0.0315 l 2.110983,-0.0253 v -2.94659 -2.94607 l -2.191607,-0.0248 c -0.301339,-0.003 -0.591508,-0.005 -0.857311,-0.004 z"
       inkscape:connector-curvature="0" />
  </g>
</svg>
