<?xml version="1.0" encoding="UTF-8" standalone="no"?>
<!-- Created with Inkscape (http://www.inkscape.org/) -->

<svg
   width="500"
   height="200"
   viewBox="0 0 132.29167 52.916666"
   version="1.1"
   id="svg183"
   inkscape:version="1.1.2 (0a00cf5339, 2022-02-04)"
   sodipodi:docname="pgm_.svg"
   inkscape:export-filename="/mnt/Data/Gitea/Crystal WIP/wip/169/pgm.png"
   inkscape:export-xdpi="130.48"
   inkscape:export-ydpi="130.48"
   xmlns:inkscape="http://www.inkscape.org/namespaces/inkscape"
   xmlns:sodipodi="http://sodipodi.sourceforge.net/DTD/sodipodi-0.dtd"
   xmlns="http://www.w3.org/2000/svg"
   xmlns:svg="http://www.w3.org/2000/svg">
  <sodipodi:namedview
     id="namedview185"
     pagecolor="#ffffff"
     bordercolor="#111111"
     borderopacity="1"
     inkscape:pageshadow="0"
     inkscape:pageopacity="0"
     inkscape:pagecheckerboard="1"
     inkscape:document-units="mm"
     showgrid="false"
     units="px"
     width="500px"
     inkscape:zoom="1.4589137"
     inkscape:cx="141.20095"
     inkscape:cy="129.20572"
     inkscape:window-width="1366"
     inkscape:window-height="739"
     inkscape:window-x="0"
     inkscape:window-y="0"
     inkscape:window-maximized="1"
     inkscape:current-layer="layer1"
     showguides="true"
     inkscape:guide-bbox="true">
    <sodipodi:guide
       position="19.812824,32.077936"
       orientation="1,0"
       id="guide1486" />
    <sodipodi:guide
       position="30.830588,-12.19028"
       orientation="0,-1"
       id="guide6204" />
    <sodipodi:guide
       position="64.888601,10.98273"
       orientation="0,-1"
       id="guide6366" />
    <sodipodi:guide
       position="24.365285,14.573403"
       orientation="0,-1"
       id="guide6368" />
  </sodipodi:namedview>
  <defs
     id="defs180" />
  <g
     inkscape:label="Layer 1"
     inkscape:groupmode="layer"
     id="layer1">
    <g
       id="g7676"
       style="fill:#ffffff;stroke:none" />
    <path
       style="fill:#ffffff;fill-opacity:1;stroke:none;stroke-width:0.198389;stroke-opacity:1"
       d="m 19.977417,41.013521 c -0.02687,-0.31781 -0.04885,-0.92957 -0.04885,-1.359464 v -0.781626 h 2.218359 2.218359 l 0.04364,-0.283221 c 0.11021,-0.715202 0.136102,-7.59105 0.05736,-15.233357 -0.04748,-4.608664 -0.105039,-8.398172 -0.127904,-8.42113 -0.02286,-0.02296 -1.253837,-0.06032 -2.735495,-0.08303 -2.621017,-0.04017 -2.713197,-0.03662 -3.406029,0.131242 -1.56785,0.379863 -2.901549,1.294695 -3.418573,2.34492 -0.326985,0.664201 -0.383882,1.563733 -0.148023,2.340246 0.411091,1.353427 1.771744,2.528559 3.303478,2.853055 0.973851,0.20631 1.44507,0.102694 2.060164,-0.453006 0.824992,-0.745332 0.960281,-1.628947 0.329329,-2.150956 -0.373353,-0.308887 -1.118717,-0.534559 -1.722348,-0.52147 -0.574965,0.01247 -0.945783,-0.174669 -1.481955,-0.74788 -0.76934,-0.822486 -0.555648,-1.548013 0.581223,-1.973371 0.652296,-0.244055 0.917849,-0.2586 1.705256,-0.0934 1.581753,0.331853 2.587834,0.798548 3.361948,1.55952 0.597426,0.587285 0.846276,1.090992 0.914153,1.850383 0.188383,2.107551 -2.247103,5.14429 -4.696934,5.856475 -0.678018,0.197105 -2.328062,0.12066 -3.241738,-0.150187 -1.924715,-0.570556 -3.473709,-1.857835 -4.367198,-3.629328 -0.478318,-0.948346 -0.792212,-2.488055 -0.700569,-3.436425 0.303677,-3.142595 2.655361,-5.407051 6.577505,-6.333532 0.591591,-0.139744 0.927973,-0.142022 11.517688,-0.07797 5.999564,0.03629 11.333132,0.09899 11.852373,0.139343 5.40053,0.419675 8.790143,3.264686 9.73331,8.169475 0.386029,2.007479 0.409955,4.572792 0.05507,5.903979 -0.311567,1.16868 -0.475314,1.614805 -0.948257,2.583504 -1.241528,2.54294 -3.294986,4.207852 -7.29184,5.912105 l -1.057362,0.450857 -3.285373,0.08749 c -1.806954,0.04812 -3.463803,0.105816 -3.681884,0.12821 l -0.39651,0.04072 v 1.618371 1.61837 h 1.43499 1.434992 v 1.359464 1.359466 H 28.323013 20.026254 Z M 39.11213,31.889919 c 3.448551,-0.583576 5.893747,-2.214465 7.139312,-4.761754 0.627578,-1.283452 0.750303,-1.84438 0.751852,-3.436425 0.0013,-1.459045 -0.07775,-1.917873 -0.529654,-3.069578 -0.440213,-1.121918 -1.08242,-2.054191 -2.053929,-2.981631 -2.406276,-2.29712 -5.881455,-3.196311 -10.304554,-2.666267 l -0.427661,0.05125 -0.04209,0.764519 c -0.06739,1.224025 -0.217346,15.726603 -0.16434,15.893611 0.0508,0.160069 0.195276,0.193098 1.401619,0.320449 0.876655,0.09255 3.412388,0.02409 4.229446,-0.114173 z"
       id="path7725" />
    <path
       style="fill:#ffffff;stroke:none;stroke-width:0.220371px;stroke-linecap:butt;stroke-linejoin:miter;stroke-opacity:1;fill-opacity:1"
       d="m 63.617829,31.25606 11.53544,-0.10681 0.21362,2.563432 -2.029383,0.10681 c 0.707465,6.072363 -3.388984,8.052504 -10.360537,7.583484 -4.844691,-0.57204 -10.299769,-0.524113 -11.962678,-11.962681 0.540212,-5.529806 3.901991,-9.393661 9.719677,-11.001393 4.162913,-0.839144 5.746535,-0.09103 8.224341,0.106809 6.777685,5.765769 5.25859,8.979833 0.21362,11.321822 -5.405312,0.374921 -7.131444,-3.712245 -2.243001,-7.049435 l 1.22831,1.655549 c -2.262448,3.444955 1.383314,3.078682 1.33512,1.655549 1.696208,-5.923175 -8.01214,-6.504996 -10.146916,-3.204289 -0.880767,4.572384 -0.406065,9.280315 0.10681,13.992063 2.139438,1.27583 3.689952,2.91738 6.088149,0.907882 l -0.106809,-4.11217 -1.76236,-0.05341 z"
       id="path3925"
       sodipodi:nodetypes="cccccccccccccccccc" />
    <path
       style="fill:#ffffff;stroke:none;stroke-width:0.225371px;stroke-linecap:butt;stroke-linejoin:miter;stroke-opacity:1;fill-opacity:1"
       d="m 89.690116,18.118473 c -12.710348,0.05585 -11.599581,0.167568 -11.599581,0.167568 -6.384273,4.644204 -3.831539,7.730548 -0.10681,10.612595 1.476923,0.545081 2.453591,0.218141 3.524718,0.05585 l 0.0534,9.351007 H 79.21851 l -0.01564,2.990669 h 7.005196 l -0.05341,-2.990669 h -1.960337 l -0.06905,-14.042889 c -1.023391,-1.648754 -2.177789,-3.107786 -5.020054,-2.122519 -0.384462,1.149351 0.14796,1.659393 0.587454,2.234231 3.123283,1.147742 0.80605,1.726463 -0.0534,2.457654 -6.218713,-1.464528 -1.130344,-5.69113 -0.267026,-6.088279 l 4.486006,-0.111711 9.239033,20.610778 0.534047,-0.05586 8.651581,-14.410788 0.26703,11.562144 -2.16748,-0.03277 0.0755,2.990669 h 11.65141 l -0.0534,-2.990669 h -1.52015 l 0.0432,-16.883645 2.43829,-2.800674 -0.53405,-0.558558 -9.61287,0.05585 -7.998409,11.841423 z"
       id="path5727"
       sodipodi:nodetypes="ccccccccccccccccccccccccccccccc" />
  </g>
</svg>
