<?xml version="1.0" encoding="UTF-8" standalone="no"?>
<!-- Created with Inkscape (http://www.inkscape.org/) -->

<svg
   xmlns:dc="http://purl.org/dc/elements/1.1/"
   xmlns:cc="http://creativecommons.org/ns#"
   xmlns:rdf="http://www.w3.org/1999/02/22-rdf-syntax-ns#"
   xmlns:svg="http://www.w3.org/2000/svg"
   xmlns="http://www.w3.org/2000/svg"
   xmlns:sodipodi="http://sodipodi.sourceforge.net/DTD/sodipodi-0.dtd"
   xmlns:inkscape="http://www.inkscape.org/namespaces/inkscape"
   width="500"
   height="200"
   viewBox="0 0 132.29166 52.916668"
   version="1.1"
   id="svg8"
   sodipodi:docname="ports.svg"
   inkscape:version="0.92.5 (2060ec1f9f, 2020-04-08)">
  <defs
     id="defs2" />
  <sodipodi:namedview
     id="base"
     pagecolor="#ffffff"
     bordercolor="#666666"
     borderopacity="1.0"
     inkscape:pageopacity="0.0"
     inkscape:pageshadow="2"
     inkscape:zoom="1.53125"
     inkscape:cx="255.97378"
     inkscape:cy="108.24473"
     inkscape:document-units="mm"
     inkscape:current-layer="layer1"
     showgrid="false"
     units="px"
     inkscape:pagecheckerboard="true"
     inkscape:window-width="1366"
     inkscape:window-height="740"
     inkscape:window-x="0"
     inkscape:window-y="0"
     inkscape:window-maximized="1" />
  <metadata
     id="metadata5">
    <rdf:RDF>
      <cc:Work
         rdf:about="">
        <dc:format>image/svg+xml</dc:format>
        <dc:type
           rdf:resource="http://purl.org/dc/dcmitype/StillImage" />
        <dc:title></dc:title>
      </cc:Work>
    </rdf:RDF>
  </metadata>
  <g
     inkscape:label="Layer 1"
     inkscape:groupmode="layer"
     id="layer1"
     transform="translate(0,-244.08332)">
    <flowRoot
       xml:space="preserve"
       id="flowRoot10"
       style="fill:black;stroke:none;stroke-opacity:1;stroke-width:1px;stroke-linejoin:miter;stroke-linecap:butt;fill-opacity:1;font-family:Dymo;font-style:normal;font-weight:normal;font-size:40px;line-height:125%;letter-spacing:0px;word-spacing:0px;-inkscape-font-specification:Dymo;font-stretch:normal;font-variant:normal;"><flowRegion
         id="flowRegion12"
         style="-inkscape-font-specification:Dymo;font-family:Dymo;font-weight:normal;font-style:normal;font-stretch:normal;font-variant:normal;"><rect
           id="rect14"
           width="69.224487"
           height="121.46939"
           x="12.408163"
           y="37.387756"
           style="-inkscape-font-specification:Dymo;font-family:Dymo;font-weight:normal;font-style:normal;font-stretch:normal;font-variant:normal;" /></flowRegion><flowPara
         id="flowPara16"></flowPara></flowRoot>    <g
       aria-label="pc.ports"
       transform="matrix(1.0210139,-0.06473631,0.08684166,0.97391248,0,0)"
       style="font-style:normal;font-weight:normal;font-size:18.03561211px;line-height:125%;font-family:sans-serif;letter-spacing:0px;word-spacing:0px;fill:#ffffff;fill-opacity:1;stroke:none;stroke-width:0.4508903px;stroke-linecap:butt;stroke-linejoin:miter;stroke-opacity:1;image-rendering:auto"
       id="text20">
      <path
         d="m -20.816067,265.41665 h 17.0544714 v 28.87141 H -20.816067 Z m 10.9945068,6.66596 h -5.3241118 q -2.207558,0 -2.207558,0.38957 0,0.34629 0.08657,0.47614 0.08657,0.0866 0.08657,0.25972 0,1.60156 0.08657,3.67926 0.08657,2.03442 0.08657,2.25084 0,4.37184 -0.432854,7.09882 -0.129857,0.90899 1.038851,0.90899 0.389569,0 0.389569,-0.43285 l -0.04329,-4.4584 q 0,-1.86128 0.735853,-1.86128 0.129857,0 0.389569,0.0433 0.259713,0.0433 0.432855,0.0433 4.8046862,0 5.7569664,-0.12985 2.0344166,-0.25972 2.0344166,-4.54498 0,-1.55827 -0.7358528,-2.55384 -0.8224238,-1.16871 -2.3807004,-1.16871 z m -4.8912568,1.08214 5.0211132,0.0433 q 1.9478458,0 1.9478458,2.46727 0,1.94784 -0.1298564,2.3807 -0.3029982,1.12542 -1.6015621,1.29856 -1.4284205,0.17314 -5.9733935,0.0866 -0.47614,0.43286 -0.779138,0.0433 l 0.04329,-3.07327 q 0.04328,-2.77027 0.129856,-2.9867 0.129857,-0.25971 1.34185,-0.25971 z m 5.5838242,8.44067 q 3.3329805,-0.34629 3.3329805,-5.45397 0,-1.81799 -0.47614,-2.46727 -0.043285,-0.0866 -0.2164274,-0.12986 -0.1298563,-0.0433 -0.1298563,0.0866 0,0.0866 0.086571,0.21643 0.3462837,0.51942 0.3462837,1.73142 0,2.12098 -0.2164273,2.94341 -0.3895692,1.42842 -1.7747039,2.16427 -1.0388511,0.56271 -6.8823884,0.303 -0.173142,0 -0.259713,0.12986 -0.04329,0.12985 0,0.25971 0.08657,0.17314 0.259713,0.17314 3.159839,0.34628 5.9301082,0.0433 z m -8.8302342,-8.78695 q -0.259713,0 -0.259713,2.3807 0,2.03441 -0.129856,8.57052 -0.04329,1.73142 0.302998,1.73142 0.129857,0 0.173142,-0.69257 0.04329,-0.56271 0.04329,-2.9867 -0.04329,-4.37183 -0.04329,-6.8391 0,-2.16427 -0.08657,-2.16427 z m 9.0466615,5.54054 q 0.5194255,-0.909 0.5194255,-2.16428 0,-1.4717 -0.562711,-1.90456 -0.8657092,-0.69257 -5.540539,-0.43285 -0.649282,0.0433 -0.649282,0.12985 0,0.34629 0.95228,0.47614 1.904561,-0.0433 5.0643992,0.0866 0.3462837,0.47614 0.3029982,1.73141 0,1.29857 -0.3462837,1.99113 -0.086571,0.17315 0.043285,0.21643 0.1298564,0.0433 0.2164273,-0.12985 z m -4.0688335,0.12985 q -2.077702,0 -2.077702,0.21643 0,0.12986 2.077702,0.12986 2.077702,0 2.077702,-0.12986 0,-0.21643 -2.077702,-0.21643 z m -2.640413,-3.93897 -0.04328,2.42398 q 0.08657,0.0866 0.173141,0.17314 0.173142,0 0.173142,-0.303 0.302998,-2.29412 -0.302998,-2.29412 z m 0.302998,7.27195 q -0.389569,0 -0.302998,3.02998 0.04329,0.303 0.216427,0.303 0.129857,-0.0433 0.173142,-0.303 0.04329,-1.1687 0.08657,-2.29412 0,-0.73586 -0.173142,-0.73586 z"
         style="font-style:normal;font-variant:normal;font-weight:normal;font-stretch:normal;font-size:43.28546143px;font-family:Dymo;-inkscape-font-specification:Dymo;fill:#ffffff;stroke-width:0.4508903px"
         id="path374" />
      <path
         d="M -4.3676287,265.41665 H 14.028692 v 28.87141 H -4.3676287 Z m 14.9334837,11.38408 q 0.779139,0 0.779139,-1.12542 0,-2.25085 -0.995566,-2.85684 -1.2119928,-0.73586 -5.1509698,-0.73586 -4.19868972,0 -5.32411172,1.12543 -0.82242377,0.82242 -0.82242377,5.49725 0,5.23754 1.125422,6.27639 1.12542199,1.03885 5.15096989,1.03885 3.4628369,0 4.8479714,-0.64928 1.125422,-0.51943 1.125422,-2.42399 0,-1.29856 -0.649282,-1.29856 -0.692567,0 -0.692567,0.77914 0,1.51499 -0.3462837,1.90456 -0.4761401,0.51942 -4.4151171,0.51942 -3.2031241,0 -4.1554043,-0.60599 -0.95228011,-0.606 -0.95228011,-6.18982 0,-3.33298 0.73585284,-4.15541 0.77913827,-0.82242 4.54497347,-0.82242 3.1165532,0 3.8956915,0.56271 0.562711,0.43285 0.562711,2.3807 0,0.77914 0.7358524,0.77914 z m -7.2719571,-5.15097 q 0,-0.0866 -0.7791383,-0.0866 -1.73141843,0 -2.98669681,0.82242 -1.21199289,0.82243 -1.47170569,3.02998 -0.043286,0.43286 -0.043286,2.72699 0,4.67483 0.3462837,6.10325 0.1731419,0.64928 0.95228018,1.51499 0.77913831,0.86571 2.46727132,1.08214 0.8657092,0.12985 3.5061224,0.12985 5.3673968,0 6.2331068,-1.60156 0.129856,-0.25971 -0.04329,-0.25971 -0.129856,-0.0433 -0.259713,0.12985 -0.47614,0.73586 -1.4717053,0.99557 -1.2119929,0.303 -4.4151171,0.303 -2.4672713,0 -2.6836986,0 -1.81798937,-0.17314 -2.85684044,-0.909 -1.38513476,-0.99556 -1.38513476,-5.88682 0,-0.43285 0.1731418,-4.54497 0.086571,-1.86128 1.51499119,-2.77027 1.03885111,-0.64928 2.51055681,-0.64928 0.6925673,0 0.6925673,-0.12986 z m 5.8435373,3.93898 q 0.2164273,0 0.1298564,-0.56271 -0.086571,-0.51943 -0.3462837,-0.69257 -0.8657092,-0.56271 -3.852406,-0.56271 -2.7702696,0 -3.5926933,0.64928 -0.77913835,0.64928 -0.77913835,2.59713 0,4.93454 0.30299823,4.93454 0.12985642,0 0.12985642,-4.28526 0,-2.42399 0.6492819,-2.90013 0.5194255,-0.38957 3.4195514,-0.38957 3.1598387,0 3.5061224,0.303 0.2164273,0.17314 0.2164273,0.56271 0,0.34629 0.2164273,0.34629 z m -7.315243,8.18095 q 0,0.69257 3.7225497,0.69257 1.125422,0 2.1642731,-0.21643 1.0388511,-0.21643 1.0388511,-0.51943 0,-0.0866 -0.043285,-0.0866 0.2164273,0 -0.9089947,0.21643 -1.0821365,0.17314 -2.7702695,0.17314 -1.2552784,0 -2.250844,-0.17314 -0.9522802,-0.17314 -0.8657092,-0.17314 -0.086571,0 -0.086571,0.0866 z m 9.7825148,-10.4318 q -0.173142,0.0433 -0.08657,0.303 0.129856,0.43285 0.129856,0.56271 0,0.56271 0.216427,0.56271 0.08657,0 0.08657,-0.56271 0,-0.95228 -0.346283,-0.86571 z m 0.47614,9.78252 q 0,-0.64929 -0.216428,-0.64929 -0.216427,0 -0.216427,0.64929 0,1.12542 0.216427,1.12542 0.216428,0 0.216428,-1.12542 z m -2.8135554,-1.12543 q -0.2164273,0 -0.2164273,0.606 0,0.606 0.2597128,0.606 0.2164273,0 0.2164273,-0.17314 -0.086571,-0.64929 -0.086571,-0.43286 0,-0.606 -0.1731419,-0.606 z m -0.086571,-5.84353 q -0.1298564,0 -0.1298564,0.38957 0,0.38957 0.1298564,0.38957 0.2597128,0 0.2597128,-0.38957 0,-0.38957 -0.2597128,-0.38957 z"
         style="font-style:normal;font-variant:normal;font-weight:normal;font-stretch:normal;font-size:43.28546143px;font-family:Dymo;-inkscape-font-specification:Dymo;fill:#ffffff;stroke-width:0.4508903px"
         id="path376" />
      <path
         d="m 20.088625,265.41665 v 28.87141 h -6.665961 v -28.87141 z m -4.328546,20.73374 q 0.216427,0.38957 0.908995,0.38957 0.389569,0 0.692567,-0.21643 0.346284,-0.21643 0.259713,-0.303 -0.08657,-0.0866 -0.259713,0.0866 -0.302998,0.17315 -0.692567,0.17315 -0.519426,0 -0.86571,-0.34629 -0.346283,-0.38957 -0.346283,-0.82242 0,-0.47614 0.216427,-0.82243 0.173142,-0.21642 0.129856,-0.25971 -0.129856,-0.12986 -0.389569,0.25971 -0.259713,0.38957 -0.259713,0.95228 0,0.99557 0.605997,0.909 z m 1.038851,-0.17314 q 0.95228,0 0.95228,-1.29857 0,-0.95228 -0.995565,-0.95228 -0.302999,0 -0.649282,0.38957 -0.346284,0.38957 -0.346284,0.86571 0,0.99557 1.038851,0.99557 z m 1.082137,-0.25972 q 0.129856,0.0866 0.259712,-0.25971 0.173142,-0.34628 0.173142,-0.69257 0,-0.64928 -0.389569,-1.08213 -0.346284,-0.303 -0.649282,-0.303 -0.08657,0 -0.129856,0.0433 0,0 0.432854,0.34629 0.47614,0.303 0.47614,1.03885 0,0.38957 -0.129856,0.64928 -0.129856,0.21643 -0.04328,0.25971 z"
         style="font-style:normal;font-variant:normal;font-weight:normal;font-stretch:normal;font-size:43.28546143px;font-family:Dymo;-inkscape-font-specification:Dymo;fill:#ffffff;stroke-width:0.4508903px"
         id="path378" />
      <path
         d="m 19.482604,265.41665 h 17.054472 v 28.87141 H 19.482604 Z m 10.994508,6.66596 H 25.153 q -2.207559,0 -2.207559,0.38957 0,0.34629 0.08657,0.47614 0.08657,0.0866 0.08657,0.25972 0,1.60156 0.08657,3.67926 0.08657,2.03442 0.08657,2.25084 0,4.37184 -0.432855,7.09882 -0.129856,0.90899 1.038851,0.90899 0.38957,0 0.38957,-0.43285 l -0.04329,-4.4584 q 0,-1.86128 0.735853,-1.86128 0.129856,0 0.389569,0.0433 0.259713,0.0433 0.432855,0.0433 4.804686,0 5.756966,-0.12985 2.034417,-0.25972 2.034417,-4.54498 0,-1.55827 -0.735853,-2.55384 -0.822424,-1.16871 -2.3807,-1.16871 z m -4.891258,1.08214 5.021114,0.0433 q 1.947846,0 1.947846,2.46727 0,1.94784 -0.129857,2.3807 -0.302998,1.12542 -1.601562,1.29856 -1.42842,0.17314 -5.973393,0.0866 -0.476141,0.43286 -0.779139,0.0433 l 0.04329,-3.07327 q 0.04328,-2.77027 0.129856,-2.9867 0.129856,-0.25971 1.341849,-0.25971 z m 5.583825,8.44067 q 3.33298,-0.34629 3.33298,-5.45397 0,-1.81799 -0.47614,-2.46727 -0.04328,-0.0866 -0.216427,-0.12986 -0.129856,-0.0433 -0.129856,0.0866 0,0.0866 0.08657,0.21643 0.346283,0.51942 0.346283,1.73142 0,2.12098 -0.216427,2.94341 -0.389569,1.42842 -1.774704,2.16427 -1.038851,0.56271 -6.882388,0.303 -0.173142,0 -0.259713,0.12986 -0.04329,0.12985 0,0.25971 0.08657,0.17314 0.259713,0.17314 3.159838,0.34628 5.930108,0.0433 z m -8.830234,-8.78695 q -0.259713,0 -0.259713,2.3807 0,2.03441 -0.129856,8.57052 -0.04329,1.73142 0.302998,1.73142 0.129856,0 0.173142,-0.69257 0.04329,-0.56271 0.04329,-2.9867 -0.04329,-4.37183 -0.04329,-6.8391 0,-2.16427 -0.08657,-2.16427 z m 9.046661,5.54054 q 0.519426,-0.909 0.519426,-2.16428 0,-1.4717 -0.562711,-1.90456 -0.865709,-0.69257 -5.540539,-0.43285 -0.649282,0.0433 -0.649282,0.12985 0,0.34629 0.95228,0.47614 1.90456,-0.0433 5.064399,0.0866 0.346284,0.47614 0.302998,1.73141 0,1.29857 -0.346284,1.99113 -0.08657,0.17315 0.04329,0.21643 0.129856,0.0433 0.216427,-0.12985 z m -4.068833,0.12985 q -2.077702,0 -2.077702,0.21643 0,0.12986 2.077702,0.12986 2.077702,0 2.077702,-0.12986 0,-0.21643 -2.077702,-0.21643 z m -2.640413,-3.93897 -0.04329,2.42398 q 0.08657,0.0866 0.173142,0.17314 0.173142,0 0.173142,-0.303 0.302998,-2.29412 -0.302998,-2.29412 z m 0.302998,7.27195 q -0.389569,0 -0.302998,3.02998 0.04328,0.303 0.216427,0.303 0.129856,-0.0433 0.173142,-0.303 0.04329,-1.1687 0.08657,-2.29412 0,-0.73586 -0.173142,-0.73586 z"
         style="font-style:normal;font-variant:normal;font-weight:normal;font-stretch:normal;font-size:43.28546143px;font-family:Dymo;-inkscape-font-specification:Dymo;fill:#ffffff;stroke-width:0.4508903px"
         id="path380" />
      <path
         d="m 35.931041,265.41665 h 17.920181 v 28.87141 H 35.931041 Z m 15.366339,13.89464 q 0,-4.45841 -0.995566,-5.84354 -1.168707,-1.60156 -5.021113,-1.60156 -3.635979,0 -4.544974,0.73585 -1.471705,1.21199 -1.471705,5.84354 0,4.50168 0.649282,5.54054 1.038851,1.73141 5.497253,1.73141 3.462837,0 4.458403,-0.86571 1.42842,-1.21199 1.42842,-5.54053 z m -0.995566,-0.47614 q 0,3.98226 -0.47614,4.7614 -0.779138,1.29856 -4.501688,1.29856 -3.029982,0 -3.938977,-0.82242 -1.168707,-1.03885 -1.168707,-4.58826 0,-4.7614 0.649282,-5.58383 0.692567,-0.86571 4.544973,-0.86571 3.549408,0 4.415117,1.42842 0.47614,0.82243 0.47614,4.37184 z m -4.891257,-4.97783 h -2.337415 q -2.467271,0 -2.423986,4.67483 0.04329,2.46727 0.259713,2.6837 0.173142,0.0433 0.259713,-0.17315 -0.216427,-0.73585 -0.129856,-2.46727 0.08657,-1.73142 0.302998,-2.81355 0.259713,-1.12542 1.731418,-1.34185 0.216428,-0.0433 2.423986,-0.0433 1.731419,0 2.3807,0.303 0.519426,0.25971 0.519426,-0.38957 0,-0.43285 -2.986697,-0.43285 z m 3.549408,1.42842 q -0.216427,-0.12986 -0.216427,0 -0.04329,0.12985 0.08657,0.34628 0.173141,0.21643 0.173141,1.03885 l -0.04329,5.28083 q 0,2.0777 -2.943411,2.0777 -0.173142,0 -0.216428,0.0866 -0.04328,0.0866 0.129857,0.12986 0.562711,0.12985 1.341849,-0.0433 1.601562,-0.34628 1.991131,-1.25528 0.173142,-0.34628 0.173142,-1.38513 v -5.23754 q 0,-0.73585 -0.47614,-1.03885 z m -7.445099,10.82136 q -0.346284,-0.12985 -0.38957,0 -0.04328,0.17315 0.216428,0.25972 1.688133,0.69256 4.112119,0.69256 5.23754,0 5.930108,-2.6837 0.04328,-0.21642 -0.04329,-0.25971 -0.129856,-0.0433 -0.216427,0.12986 -1.082136,2.33741 -5.713681,2.33741 -2.423986,0 -3.895691,-0.47614 z M 38.1386,282.21141 q 0.04329,0.12986 0.216427,0.12986 0.129856,-0.0433 0.129856,-0.21643 -0.216427,-1.94785 -0.173142,-3.50612 0.129857,-4.50169 1.168708,-5.32411 0.302998,-0.21643 0.08657,-0.303 -0.173142,-0.12986 -0.389569,0.0866 -1.298564,1.60156 -1.298564,5.49725 0,2.46727 0.259713,3.63598 z m 13.981204,-5.19425 q 0,-0.34629 -0.129857,-0.34629 -0.173142,0.0433 -0.173142,0.34629 0,3.41955 -0.129856,4.93454 0,0.21643 0.129856,0.25971 0.129857,0 0.173142,-0.17314 0.129857,-0.606 0.129857,-5.02111 z m -7.964525,6.96896 q -0.432855,0 -0.432855,0.12985 0,0.17314 0.432855,0.17314 0.47614,0 0.47614,-0.17314 0,-0.12985 -0.47614,-0.12985 z m -5.324112,-0.12986 q -0.08657,0 -0.08657,0.12986 0,0.25971 0.259713,0.64928 0.302998,0.34628 0.432854,0.17314 0,0 -0.302998,-0.47614 -0.259713,-0.47614 -0.302998,-0.47614 z"
         style="font-style:normal;font-variant:normal;font-weight:normal;font-stretch:normal;font-size:43.28546143px;font-family:Dymo;-inkscape-font-specification:Dymo;fill:#ffffff;stroke-width:0.4508903px"
         id="path382" />
      <path
         d="m 53.245212,265.41665 h 17.963466 v 28.87141 H 53.245212 Z m 11.427362,6.79582 h -6.059965 q -2.164273,0 -2.207558,0.25971 -0.08657,0.56271 0.216427,0.56271 0.04328,0 0.129856,-0.0866 0.129857,-0.0866 0.173142,-0.0433 0.04329,0.0433 0.04329,0.303 -0.04329,4.67483 -0.38957,12.37964 l -0.908994,0.0433 q -0.173142,0 -0.173142,0.17314 0,0.21643 0.173142,0.21643 l 0.692567,0.0433 q 0,0.82242 0.519426,0.82242 0.47614,0 0.95228,-0.47614 -0.173142,-2.51056 -0.08657,-4.4584 0.08657,-1.81799 0.346284,-1.81799 0,0 0.389569,0.0866 0.389569,0.0433 0.95228,0.0433 h 5.756966 q 1.688133,0 1.688133,1.73141 0,4.02555 -0.389569,4.32855 -0.08657,0.0433 -0.08657,0.12986 0,0.21642 0.302998,0.38957 0.346284,0.17314 0.562711,0.0866 0.605997,-0.25972 0.692568,-1.64485 0,-0.0433 0,-3.15984 0,-0.73585 -0.389569,-1.38513 -0.38957,-0.64929 -0.86571,-0.77914 1.298564,-1.60156 1.298564,-3.80912 0,-3.93898 -3.33298,-3.93898 z m -6.925674,0.99557 q 3.765835,0.0866 7.05553,0.0433 0.735853,0 1.341849,0.73585 0.605997,0.73586 0.605997,1.68814 0,3.63598 -1.168708,3.5494 -4.631544,-0.34628 -6.968959,-0.0433 -0.216427,0.0433 -0.259713,0.21643 0,0.12985 -0.04329,0.12985 -0.346284,0.0433 -0.649282,-0.12985 0,-2.81356 0.08657,-6.18982 z m 7.877954,5.06439 q 0.649282,-0.73585 0.649282,-2.20755 0,-1.64485 -0.779139,-2.07771 -0.995565,-0.56271 -6.233106,-0.25971 -0.649282,0.0433 -0.649282,0.21643 0,0.25971 0.649282,0.34628 0.432855,0.0433 1.341849,0 1.082137,-0.0433 1.211993,-0.0433 0.389569,0 1.038851,0 0.692568,-0.0433 0.908995,-0.0433 1.947846,0 1.947846,2.03442 0,1.25528 -0.216428,1.68813 -0.129856,0.25971 -0.08657,0.38957 0.04328,0.12986 0.216427,-0.0433 z m -7.358529,-3.20312 q -0.129856,3.20312 0.04329,3.33298 0.173142,0.12986 2.683699,0.12986 2.553842,0 2.597127,-0.21643 0,-0.17314 -2.077702,-0.17314 -2.3807,-0.0433 -2.900126,-0.17314 0.173142,-1.38514 0.173142,-2.51056 0,-0.95228 -0.346284,-0.95228 -0.173142,0 -0.173142,0.56271 z m 0.562711,5.80025 0.259713,0.56271 5.194256,0.303 q 1.211992,0.0866 1.211992,-0.56271 0,-0.17314 -0.346283,-0.17314 z m -2.813555,-7.92124 q 0.129857,0 0.129857,9.26309 0,2.85684 -0.259713,2.85684 -0.216427,0 -0.216427,-3.8524 0,-8.26753 0.346283,-8.26753 z m 2.380701,8.52724 q -0.173142,0.56271 -0.173142,2.64041 0,2.03442 0.173142,2.12099 0.346284,0 0.346284,-3.20312 0,-1.42842 -0.346284,-1.55828 z m 7.877954,0.303 q 0,-0.34629 -0.129857,-0.34629 -0.389569,0 -0.346283,0.73586 0.04328,0.86571 -0.04329,2.77027 -0.04328,1.08213 0.129857,1.08213 0.302998,0 0.389569,-1.60156 0,-1.34185 0,-2.64041 z m 1.991131,-2.03442 q 0.692567,-1.08214 0.692567,-2.94341 0,-1.03885 -0.173141,-1.86128 -0.04329,-0.21642 -0.129857,-0.34628 -0.08657,-0.12986 -0.129856,-0.0866 -0.04329,0.0433 0,0.34628 0.346283,3.02999 -0.519426,4.71812 -0.129856,0.21643 0.04329,0.25971 0.129856,0.0866 0.216427,-0.0866 z m 0.389569,1.68813 q -0.259713,0 -0.259713,1.51499 0,1.515 0.259713,1.515 0.08657,0 0.08657,-1.515 0,-1.51499 -0.08657,-1.51499 z"
         style="font-style:normal;font-variant:normal;font-weight:normal;font-stretch:normal;font-size:43.28546143px;font-family:Dymo;-inkscape-font-specification:Dymo;fill:#ffffff;stroke-width:0.4508903px"
         id="path384" />
      <path
         d="m 70.602641,265.41665 h 15.972336 v 28.87141 H 70.602641 Z m 9.176518,8.09438 q 2.077702,-0.0866 4.155405,-0.17314 0.692567,-0.0433 0.692567,-0.34628 0,-0.86571 -1.817989,-0.86571 l -9.046662,-0.0866 q -1.255278,0 -1.255278,0.95228 0,0.34628 0.865709,0.38957 0.302998,0 3.982262,0 0.129857,-0.21643 0.735853,-0.25972 0.605997,-0.0433 0.605997,0.17315 0,0.25971 -0.08657,0.25971 -0.04329,0 -0.259713,-0.0866 -0.173142,-0.0866 -0.346284,-0.0866 -0.302998,0.0433 -0.346283,0.25971 0,0.21643 0.346283,0.21643 0.173142,0.12985 0.08657,0.51942 -0.04328,0.25972 -0.129856,0.51943 l -0.173142,4.89126 v 5.06439 q 0,0.34629 -0.216427,0.77914 -0.216428,0.38957 -0.216428,0.47614 0,0.0866 0.129857,0.17315 0.129856,0.0866 0.389569,0.47614 0.173142,0.21642 0.562711,0.21642 0.779138,0 0.779138,-0.64928 l -0.129856,-10.47508 q 0,-0.25971 0.08657,-0.43286 0.129856,-0.21642 0.129856,-0.60599 0,-1.08214 -0.302998,-1.25528 -0.08657,-0.0866 0.08657,-0.21643 0.173142,-0.12985 0.389569,-0.12985 0.259713,0 0.302998,0.30299 z m -2.813555,12.89907 q 0.259713,0 0.259713,-1.51499 l 0.08657,-8.22424 q 0,-1.99113 -0.432855,-1.99113 -0.216427,0 -0.216427,0.38957 0,0.25971 0.08657,0.38957 0.08657,0.0866 0.08657,0.38957 0,-0.0866 -0.08657,3.20312 -0.08657,3.11656 -0.04329,4.84797 0.04329,2.51056 0.259713,2.51056 z m 2.726984,-9.26309 q 0.04329,0.34629 0.216428,0.25972 0.129856,-0.0433 0.173141,-0.25972 0.04329,-0.73585 0.08657,-1.51499 0.04329,-0.82242 0.346284,-0.86571 1.082137,-0.0433 2.164273,-0.12985 1.255279,-0.0433 1.731419,-0.34629 0.173141,-0.12985 0.216427,-0.17314 -0.04329,-0.0433 -0.08657,-0.0866 -0.08657,0 -0.259713,0.0866 -0.129856,0.0433 -0.47614,0.17314 -0.173142,0.0433 -0.173142,-0.0866 0,-0.12986 0.04329,-0.303 0,-0.12985 -0.173142,-0.0433 -0.519426,0.21642 -1.42842,0.21642 -1.211993,0 -1.428421,0 -0.129856,0.0433 -0.129856,0.0866 0,0.0433 -0.04328,0.0433 -0.432855,0 -0.47614,0.0866 -0.346284,0.303 -0.346284,1.64485 0,0.51943 0.04328,1.21199 z m -3.635978,-2.77027 q 0.259712,0 0.519425,-0.21642 0.04329,-0.12986 0.04329,-0.21643 -1.211993,-0.0433 -3.462837,0.0866 -0.38957,0.0433 -0.432855,0.17314 0,0.12986 0.216427,0.17314 0,0 3.116554,0 z m 3.765835,5.19426 q -0.173142,0 -0.173142,1.42842 0,1.38513 0.173142,1.38513 0.173142,0 0.173142,-1.38513 0,-1.42842 -0.173142,-1.42842 z"
         style="font-style:normal;font-variant:normal;font-weight:normal;font-stretch:normal;font-size:43.28546143px;font-family:Dymo;-inkscape-font-specification:Dymo;fill:#ffffff;stroke-width:0.4508903px"
         id="path386" />
      <path
         d="m 85.968959,265.41665 h 17.920181 v 28.87141 H 85.968959 Z m 9.306374,6.66596 q -3.765835,0 -4.847971,0.82243 -1.038851,0.77914 -1.038851,3.46283 0,1.77471 1.082136,2.46728 1.082137,0.64928 4.112119,0.64928 2.813555,0 3.419551,0.17314 1.774704,0.47614 1.774704,2.42399 0,1.60156 -0.865709,2.20755 -0.995565,0.69257 -3.80912,0.69257 -3.549408,0 -4.155405,-0.69257 -0.216427,-0.21642 -0.605996,-1.21199 -0.302998,-0.69257 -0.735853,-0.69257 -0.95228,0 -0.95228,0.77914 0,0.606 0.562711,0.12986 0.302998,0.17314 0.562711,0.99556 0.259713,0.77914 1.082136,1.12543 1.211993,0.56271 4.068834,0.56271 2.900126,0 4.155404,-0.606 1.817986,-0.86571 1.817986,-3.24641 0,-2.51056 -1.731415,-3.24641 -0.95228,-0.43285 -3.549408,-0.43285 -3.116553,0 -3.506122,-0.0866 -1.688133,-0.43286 -1.688133,-2.55385 0,-1.86127 1.514991,-2.3807 0.692567,-0.21642 3.116553,-0.21642 2.726984,0 3.765835,0.51942 0.908995,0.47614 0.908995,1.64485 0,0.73585 0.389574,0.73585 0.77913,0 0.77913,-1.08213 0,-2.94342 -5.627107,-2.94342 z m -5.800251,0.909 q -0.302999,-0.21643 -0.779139,0.69257 -0.519425,1.03885 -0.519425,2.16427 0,2.55384 0.95228,3.50612 1.385135,1.47171 5.713681,1.47171 2.510557,0 3.289695,0.303 0.605996,0.25971 0.649282,0.99556 0.04328,0.69257 -0.389569,0.99557 -0.38957,0.30299 -0.38957,0.34628 0,0.0866 0.216428,0.0866 0.865709,0 0.865709,-1.51499 0,-1.60156 -0.779138,-1.60156 -1.558277,0 -3.938977,-0.17314 -3.203124,-0.25972 -3.679265,-0.606 -1.211992,-0.86571 -1.601562,-1.64485 -0.389569,-0.77914 -0.389569,-2.25084 0,-1.55828 0.47614,-2.29413 0.302999,-0.47614 0.302999,-0.47614 z m 12.076648,8.00781 q -0.0433,-0.17314 -0.12986,-0.12986 -0.0866,0.0433 -0.0866,0.25972 0.0866,2.77026 -0.77914,3.89569 -1.34185,1.7747 -5.62711,1.7747 -3.506123,0 -5.021114,-0.95228 -0.173142,-0.12986 -0.216427,-0.0433 -0.08657,0.0866 0.08657,0.21643 1.082136,0.86571 2.813555,1.12542 0.908994,0.12986 3.33298,0.12986 2.207559,0 3.679265,-0.90899 2.0777,-1.25528 2.0777,-4.11212 0,-0.86571 -0.12985,-1.25528 z m -7.401819,3.02998 q -0.865709,0 -1.861274,-0.303 -1.125422,-0.34628 -1.34185,-0.77914 -0.08657,-0.12985 -0.173142,-0.12985 -0.08657,0.0433 0,0.21643 0.346284,0.90899 1.688133,1.1687 1.34185,0.21643 1.34185,0.34629 0,0.0866 1.817989,0.0866 1.688133,0 1.688133,-0.34629 0,-0.25971 -0.779138,-0.30299 1.558276,0.0433 -2.380701,0.0433 z m -1.255278,-6.31968 q 1.947846,0.12986 3.852406,0.25972 2.29413,0.12985 3.506121,0.95228 0.12986,0.0866 0.21643,0.0433 0.12986,-0.0866 0,-0.17314 -1.861276,-1.60156 -7.531672,-1.34185 -0.346283,0 -0.346283,0.12986 0.04328,0.0866 0.302998,0.12985 z m -2.120988,-1.86127 q 0,1.29856 0.562711,1.29856 0.216428,0 0.216428,-0.25971 0,-0.12986 -0.173142,-0.25971 -0.173142,-0.17314 -0.173142,-0.77914 0,-0.82242 1.42842,-1.03885 0.649282,-0.12986 2.597128,-0.12986 1.947846,0 2.726984,0.47614 0.519426,0.25971 0.605996,0.77914 0.08657,0.47614 0.302999,0.47614 0.389569,-0.0866 0.04328,-1.16871 -0.432854,-1.34185 -3.852406,-1.34185 -3.029982,0 -2.813555,0.0433 -0.519425,-0.0866 -0.519425,0.17314 0,0.0866 0.173141,0.17314 0.173142,0.0866 0.173142,0.12986 0,-0.0866 -0.649282,0.25971 -0.649282,0.34629 -0.649282,1.16871 z m -2.294129,7.70481 q -0.04329,-0.12986 -0.173142,-0.0866 -0.129856,0.0433 -0.129856,0.303 0,1.21199 0.302998,1.21199 0.173142,0 0.08657,-0.77914 z"
         style="font-style:normal;font-variant:normal;font-weight:normal;font-stretch:normal;font-size:43.28546143px;font-family:Dymo;-inkscape-font-specification:Dymo;fill:#ffffff;stroke-width:0.4508903px"
         id="path388" />
    </g>
  </g>
</svg>
