<?xml version="1.0" encoding="UTF-8" standalone="no"?>
<!-- Created with Inkscape (http://www.inkscape.org/) -->

<svg
   xmlns:dc="http://purl.org/dc/elements/1.1/"
   xmlns:cc="http://creativecommons.org/ns#"
   xmlns:rdf="http://www.w3.org/1999/02/22-rdf-syntax-ns#"
   xmlns:svg="http://www.w3.org/2000/svg"
   xmlns="http://www.w3.org/2000/svg"
   xmlns:sodipodi="http://sodipodi.sourceforge.net/DTD/sodipodi-0.dtd"
   xmlns:inkscape="http://www.inkscape.org/namespaces/inkscape"
   width="500"
   height="200"
   viewBox="0 0 500 200"
   version="1.1"
   id="svg8"
   sodipodi:docname="prboom.svg"
   inkscape:version="0.92.5 (2060ec1f9f, 2020-04-08)">
  <defs
     id="defs2" />
  <sodipodi:namedview
     id="base"
     pagecolor="#ffffff"
     bordercolor="#666666"
     borderopacity="1.0"
     inkscape:pageopacity="0.0"
     inkscape:pageshadow="2"
     inkscape:zoom="1.6737518"
     inkscape:cx="228.65403"
     inkscape:cy="54.201312"
     inkscape:document-units="mm"
     inkscape:current-layer="layer1"
     showgrid="false"
     units="px"
     inkscape:pagecheckerboard="true"
     inkscape:window-width="1366"
     inkscape:window-height="739"
     inkscape:window-x="0"
     inkscape:window-y="0"
     inkscape:window-maximized="1"
     inkscape:snap-others="false" />
  <metadata
     id="metadata5">
    <rdf:RDF>
      <cc:Work
         rdf:about="">
        <dc:format>image/svg+xml</dc:format>
        <dc:type
           rdf:resource="http://purl.org/dc/dcmitype/StillImage" />
        <dc:title></dc:title>
      </cc:Work>
    </rdf:RDF>
  </metadata>
  <g
     inkscape:label="Layer 1"
     inkscape:groupmode="layer"
     id="layer1"
     transform="translate(-31.055596,-236.77647)">
    <path
       inkscape:connector-curvature="0"
       id="path2151"
       d="m 175.2657,402.89923 c -0.22555,-0.2256 -0.12555,-1.09603 0.25156,-2.18949 0.20567,-0.59637 0.42263,-1.54653 0.48213,-2.11146 l 0.10817,-1.0272 -0.53861,0.0791 c -0.30458,0.0448 -1.24916,0.63864 -2.17401,1.36699 -0.89948,0.70839 -1.66355,1.20361 -1.69792,1.10049 -0.0344,-0.10302 0.35525,-1.19681 0.8658,-2.43045 l 0.9283,-2.24298 -0.003,-58.03078 -0.003,-58.03076 -1.73264,-2.20294 c -0.95296,-1.21159 -1.73618,-2.30618 -1.7405,-2.43238 -0.006,-0.18234 4.19256,-0.22843 20.41507,-0.22483 l 20.42292,0.005 5.50729,3.34566 c 4.96796,3.01802 5.51714,3.39962 5.60773,3.89641 0.17379,0.9531 0.67511,1.82407 1.24052,2.15525 0.3,0.17563 0.79605,0.6049 1.10232,0.95371 l 0.55686,0.63421 0.23634,-0.58654 c 0.12998,-0.32259 0.28106,-1.01411 0.33571,-1.53671 0.0976,-0.93325 0.16263,-1.0206 3.6563,-4.91068 l 3.55693,-3.96053 h 17.38 17.38 l 3.98362,4.01011 c 2.19099,2.20554 3.98362,4.09923 3.98362,4.20818 0,0.10895 0.21461,0.45313 0.47689,0.76482 l 0.47689,0.56677 0.34921,-0.44395 c 0.19207,-0.24414 0.3492,-0.59798 0.3492,-0.78621 0,-0.18826 1.6157,-2.13722 3.59045,-4.33101 l 3.59045,-3.98871 h 17.36248 17.36248 l 3.96762,3.90102 c 2.58784,2.54438 4.00669,4.0729 4.07996,4.39529 0.0617,0.27185 0.64005,1.06821 1.28503,1.76973 0.92016,1.00074 1.18533,1.2007 1.23137,0.92842 0.0322,-0.19083 0.13551,-0.347 0.22946,-0.347 0.0982,0 0.1708,-1.23593 0.1708,-2.9062 v -2.9062 l -1.65219,-2.33663 c -0.9087,-1.28515 -1.65219,-2.41432 -1.65219,-2.5093 0,-0.10611 4.45709,-0.17281 11.54791,-0.17281 h 11.54791 l 0.90955,2.15704 c 0.50024,1.18636 2.54468,6.08098 4.54317,10.87693 1.99851,4.79595 3.7479,8.84379 3.88753,8.99524 0.21458,0.23283 0.27831,0.23591 0.4117,0.0206 0.0868,-0.14035 1.12828,-2.7013 2.31438,-5.69089 1.18613,-2.98959 3.12752,-7.87261 4.31426,-10.85113 l 2.15768,-5.41553 10.89584,-0.0476 c 5.9927,-0.0263 10.99553,-0.0103 11.11737,0.0371 0.16173,0.0618 0.1043,0.42947 -0.2135,1.3639 -0.23925,0.70354 -0.38026,1.33395 -0.3133,1.40093 0.067,0.067 0.12181,0.21351 0.12181,0.32572 0,0.11228 0.56981,0.2972 1.26625,0.41116 1.99227,0.32604 2.36549,1.13376 1.53331,3.31834 l -0.41304,1.08428 -0.0538,54.88948 c -0.0392,39.95378 0.002,55.18917 0.15169,55.99092 0.11306,0.60581 0.5298,2.47297 0.92595,4.14926 0.74231,3.1411 0.8828,4.51824 0.49997,4.90108 -0.28039,0.28038 -1.15342,0.28375 -1.67344,0.008 -1.38268,-0.73733 -19.91042,-13.67205 -20.54853,-14.34551 -0.33727,-0.35595 -0.50483,-0.73026 -0.50483,-1.12769 0,-0.9693 -0.49311,-1.68142 -1.84534,-2.66494 -0.70151,-0.51023 -1.27546,-1.00885 -1.27546,-1.10808 0,-0.0992 0.61956,-1.01288 1.37682,-2.03039 l 1.37684,-1.85003 v -10.68529 c 0,-8.78696 -0.0451,-10.74963 -0.25316,-11.0474 -0.13934,-0.19908 -0.28389,-0.51827 -0.32128,-0.70913 -0.0374,-0.19084 -1.51361,3.36049 -3.28055,7.89192 -2.04115,5.23471 -3.38526,8.43386 -3.68617,8.77343 -0.89726,1.01264 -1.82629,0.24337 -2.38481,-1.97466 -0.21746,-0.86366 -0.40151,-1.03528 -0.66634,-0.62131 -0.0807,0.1262 -0.28798,0.24028 -0.46054,0.25368 -0.2425,0.018 -0.43704,-0.37735 -0.85668,-1.74398 -0.29862,-0.97252 -1.87762,-6.14653 -3.50889,-11.49781 -1.63128,-5.35125 -3.10937,-9.89478 -3.28466,-10.09671 -0.17528,-0.20191 -0.43774,-0.61498 -0.58322,-0.9179 -0.23395,-0.4871 -0.27511,0.91556 -0.35629,12.14279 -0.0879,12.15469 -0.10663,12.70993 -0.4415,13.07987 -0.37452,0.41373 -1.18958,0.50879 -1.75732,0.20499 -0.9469,-0.50678 -15.9549,-11.10999 -16.38833,-11.57843 -0.36939,-0.39924 -0.50484,-0.73585 -0.50484,-1.25456 0,-0.40621 -0.11759,-0.80653 -0.27536,-0.93746 -0.15147,-0.12568 -0.27537,-0.33745 -0.27537,-0.4706 0,-0.32255 -0.29991,-0.49049 -1.01702,-0.56953 -0.57806,-0.0636 -0.5961,-0.0438 -0.72159,0.79294 -0.10273,0.68508 -0.3015,1.03521 -0.98492,1.73499 -0.70411,0.72095 -20.02295,14.96307 -24.04439,17.72584 -1.32864,0.91281 -2.28845,1.04345 -3.2697,0.44511 -0.73609,-0.44883 -19.58496,-15.46091 -20.4721,-16.30487 -0.36773,-0.34984 -0.81653,-0.97912 -0.99733,-1.39836 -0.35684,-0.8275 -1.13082,-1.77499 -1.44331,-1.7669 -0.10731,0.003 -0.40164,0.29326 -0.65406,0.64552 -0.25241,0.35226 -1.03721,1.08427 -1.74398,1.62665 -2.09828,1.61026 -22.50932,16.46848 -23.39608,17.03118 -1.05065,0.66669 -2.08733,0.69291 -2.99675,0.0757 -0.35833,-0.24312 -5.14847,-4.0335 -10.64475,-8.42297 -9.33917,-7.45843 -10.78418,-8.73073 -10.78418,-9.49525 0,-0.27854 -1.14364,-2.03794 -1.53679,-2.36424 -0.15097,-0.12542 -0.56914,-0.26437 -0.92925,-0.30902 l -0.65476,-0.0812 v 2.94486 c 0,3.37424 -0.098,3.73926 -1.30996,4.88116 -0.44065,0.41515 -8.93821,7.26672 -18.88348,15.22571 -9.94528,7.95898 -19.94969,15.97769 -22.23202,17.81935 -2.28234,1.84167 -4.62975,3.68474 -5.21649,4.09575 -0.97954,0.68619 -1.85499,0.93845 -2.16855,0.6249 z m 78.99921,-77.71418 c 0,-14.64303 -0.0691,-25.51717 -0.16217,-25.51717 -0.0892,0 -0.20776,-0.17436 -0.26346,-0.38734 -0.0969,-0.3705 -0.192,-0.38446 -2.18668,-0.32116 -2.27749,0.0723 -2.93694,0.31206 -3.27035,1.18898 -0.10798,0.28402 -0.17538,9.05523 -0.17538,22.82098 0,21.47815 0.0134,22.37689 0.33974,22.79745 0.18684,0.24081 0.37514,0.5483 0.41842,0.68336 0.10582,0.33029 4.77967,4.24826 5.0704,4.2504 0.1825,0.002 0.22947,-5.22326 0.22947,-25.5155 z m 51.53983,-0.0613 c 0.0287,-15.72336 -0.0191,-25.45598 -0.12532,-25.45598 -0.0945,0 -0.22429,-0.16535 -0.28838,-0.36715 -0.10541,-0.33215 -0.27728,-0.36705 -1.80225,-0.36613 -2.03707,8.6e-4 -2.92331,0.22303 -3.42134,0.85615 -0.37366,0.47503 -0.37551,0.58827 -0.37551,23.01607 v 22.53872 l 0.50244,0.76741 c 0.56068,0.85637 4.95141,4.63768 5.26409,4.53346 0.14235,-0.0474 0.21309,-7.3815 0.24626,-25.52255 z m -106.76872,23.4857 2.45056,-1.85423 0.0466,-23.40275 c 0.0415,-20.82613 0.0152,-23.46879 -0.2381,-24.00267 l -0.28467,-0.59991 -1.68948,0.0129 c -2.26344,0.018 -3.06751,0.27095 -3.47906,1.09059 -0.30088,0.59924 -0.32099,2.20467 -0.32126,25.63933 l -2.9e-4,25.00006 0.53256,-0.0155 c 0.37729,-0.0104 1.24701,-0.55575 2.98312,-1.86938 z m -8.53212,-35.99953 c 0.15417,-0.39393 0.21947,-3.19255 0.22947,-9.83052 0.0105,-6.95695 0.0691,-9.33496 0.23426,-9.5001 0.3151,-0.3151 11.72753,-0.3151 12.04264,0 0.16508,0.16508 0.22488,2.56848 0.23858,9.59189 0.0101,5.15436 0.072,9.55933 0.13768,9.78882 l 0.1194,0.41722 8.21506,0.0417 c 6.16054,0.0314 8.21506,-0.0129 8.21506,-0.17256 0,-0.11769 0.10327,-0.24852 0.22947,-0.2906 0.18109,-0.0603 0.22946,-3.28193 0.22946,-15.28804 v -15.21156 l -4.95657,-3.03906 -4.95657,-3.03907 -18.52948,-0.0484 c -11.53652,-0.0301 -18.59534,0.0181 -18.70401,0.12594 -0.11033,0.11023 0.18924,0.63166 0.81431,1.41716 l 0.98886,1.2426 0.0971,16.80545 c 0.0534,9.243 0.16091,16.97066 0.23884,17.1726 0.13846,0.35872 0.31134,0.36717 7.52131,0.36717 h 7.37959 z m 52.93279,-9.70474 c 0.002,-5.062 0.0691,-9.30807 0.15012,-9.43572 0.11481,-0.18078 1.46012,-0.22148 6.10112,-0.18362 l 5.95381,0.0484 0.112,9.36241 c 0.0616,5.14934 0.18639,9.5913 0.27731,9.87101 l 0.16528,0.50859 8.39474,0.0422 8.39475,0.0423 0.22489,-0.55075 c 0.16907,-0.41405 0.24062,-4.19142 0.28832,-15.22035 l 0.0634,-14.66963 -3.36679,-3.36678 -3.36679,-3.36681 h -16.70688 -16.70688 l -0.84276,0.872 c -0.46352,0.47959 -1.93044,2.10598 -3.25981,3.6142 l -2.41705,2.7422 0.0541,14.42221 c 0.0448,11.94961 0.0983,14.50846 0.31215,14.92511 l 0.25805,0.50287 7.72755,0.0479 7.72754,0.0479 0.22947,-0.52592 c 0.17341,-0.39741 0.23016,-2.77472 0.23228,-9.72957 z m 81.52047,-5.33438 0.041,-14.83548 -3.38833,-3.37449 -3.38834,-3.37448 h -16.61455 c -13.01506,0 -16.67721,0.0497 -16.90371,0.22947 -0.15903,0.12619 -1.62285,1.74179 -3.25294,3.5902 l -2.96379,3.36073 0.0511,14.64297 c 0.0469,13.42195 0.0769,14.66868 0.3593,14.95107 0.27865,0.27858 1.04544,0.30807 8.01184,0.30807 7.15454,0 7.71491,-0.0232 7.86102,-0.32129 0.0865,-0.17666 0.19864,-4.61695 0.24912,-9.86724 l 0.0918,-9.54599 h 6.05803 6.05803 l 0.0918,9.55928 c 0.0826,8.6044 0.12238,9.58985 0.39803,9.86534 0.27529,0.27513 1.13837,0.31093 8.53632,0.35388 8.13529,0.0471 8.23257,0.0435 8.44661,-0.32939 0.16048,-0.2795 0.22718,-4.21794 0.25759,-15.21267 z m 62.15226,15.17562 c 0.0863,-0.17616 0.19805,-8.04405 0.24853,-17.4845 0.0917,-17.16174 0.0919,-17.1646 0.49785,-18.22844 0.2973,-0.77903 0.34647,-1.08681 0.18362,-1.14922 -0.12233,-0.0469 -4.39165,-0.0636 -9.48733,-0.0374 l -9.26486,0.0476 -4.871,12.24503 c -2.67905,6.73475 -4.96963,12.34364 -5.09018,12.46419 -0.28,0.28 0.15061,1.24634 -5.73404,-12.8685 l -4.93655,-11.84072 -9.56207,-0.0476 c -6.60945,-0.0329 -9.56207,0.0129 -9.56207,0.14603 0,0.10636 0.4337,0.82999 0.96377,1.60792 l 0.96378,1.41443 0.0918,16.78204 c 0.0722,13.19679 0.14083,16.79835 0.32127,16.85845 0.12622,0.042 0.22947,0.17281 0.22947,0.29061 -10e-6,0.16251 6.62536,0.20294 27.42554,0.16715 25.87143,-0.0443 27.43443,-0.0652 27.58242,-0.36718 z"
       style="fill:#ffffff;stroke-width:0.18357679" />
    <path
       d="m 42.529757,435.02581 c 1.582939,0 3.122447,-0.37131 4.618516,-1.11432 1.496069,-0.74293 2.726709,-1.7405 3.691916,-2.99281 v 0 l -2.750841,-2.99282 c -0.714249,0.91271 -1.534676,1.61317 -2.461275,2.10137 -0.9266,0.48816 -1.920762,0.73228 -2.982491,0.73228 -0.945903,0 -1.819412,-0.18566 -2.620535,-0.5572 -0.801123,-0.37131 -1.496069,-0.87554 -2.08485,-1.5123 -0.588776,-0.63676 -1.052073,-1.3956 -1.389896,-2.27645 -0.337831,-0.88088 -0.506731,-1.83072 -0.506731,-2.84955 0,-1.04006 0.164092,-2.00051 0.492256,-2.88135 0.328183,-0.88088 0.781815,-1.64499 1.36094,-2.29236 0.579121,-0.64737 1.269247,-1.15679 2.07037,-1.52825 0.801119,-0.37131 1.655325,-0.55716 2.562621,-0.55716 1.081032,0 2.104153,0.25984 3.06936,0.78002 0.965207,0.52003 1.804937,1.26826 2.519187,2.24462 v 0 l 2.83771,-3.08833 c -0.945904,-1.27353 -2.181368,-2.28702 -3.706396,-3.04056 -1.525028,-0.75349 -3.098315,-1.13022 -4.719861,-1.13022 -1.50572,0 -2.919751,0.29712 -4.242081,0.89145 -1.322334,0.59429 -2.466104,1.40087 -3.431311,2.4197 -0.965206,1.01884 -1.727719,2.23398 -2.28754,3.64549 -0.559821,1.41152 -0.83973,2.92382 -0.83973,4.53695 0,1.61316 0.2751,3.12019 0.825251,4.52106 0.550169,1.40087 1.307857,2.61074 2.273064,3.62958 0.965207,1.0188 2.108973,1.82538 3.431307,2.41971 1.322337,0.59428 2.746016,0.89145 4.27104,0.89145 z m 54.872009,0.0308 c 1.505721,0 2.914924,-0.29713 4.227604,-0.89145 1.31268,-0.59433 2.44679,-1.40622 3.40235,-2.43566 0.95555,-1.02945 1.71325,-2.24989 2.27307,-3.6614 0.55983,-1.41148 0.83972,-2.91321 0.83972,-4.50512 0,-1.59195 -0.27991,-3.09364 -0.83972,-4.50512 -0.55982,-1.41151 -1.31752,-2.63196 -2.27307,-3.6614 -0.95556,-1.02944 -2.08967,-1.84133 -3.40235,-2.43566 -1.31268,-0.59429 -2.721883,-0.89145 -4.227604,-0.89145 -1.486425,0 -2.885976,0.29713 -4.198658,0.89145 -1.312682,0.59433 -2.446792,1.40622 -3.402355,2.43566 -0.955548,1.02944 -1.713232,2.24989 -2.273053,3.6614 -0.559822,1.41148 -0.839734,2.91317 -0.839734,4.50512 0,1.59191 0.279905,3.09364 0.839734,4.50512 0.559821,1.41151 1.317505,2.63195 2.273053,3.6614 0.955563,1.02944 2.089673,1.84133 3.402355,2.43566 1.312682,0.59428 2.712233,0.89145 4.198658,0.89145 z m 0,-4.23452 c -0.907292,0 -1.751854,-0.18565 -2.533662,-0.55715 -0.781823,-0.37131 -1.457466,-0.88085 -2.026947,-1.52822 -0.569469,-0.64741 -1.018289,-1.41682 -1.346461,-2.30827 -0.328183,-0.89153 -0.492262,-1.84667 -0.492262,-2.86547 0,-1.04005 0.164091,-2.0005 0.492262,-2.88135 0.328183,-0.88088 0.776992,-1.64498 1.346461,-2.29239 0.569481,-0.64738 1.245124,-1.15679 2.026947,-1.52822 0.781808,-0.37131 1.62637,-0.5572 2.533662,-0.5572 0.907289,0 1.756671,0.18566 2.548142,0.5572 0.791472,0.37131 1.471942,0.88084 2.041422,1.52822 0.56946,0.64741 1.01828,1.41151 1.34646,2.29239 0.32815,0.88085 0.49225,1.8413 0.49225,2.88135 0,1.0188 -0.16409,1.97394 -0.49225,2.86547 -0.32818,0.89145 -0.777,1.66086 -1.34646,2.30827 -0.56948,0.64737 -1.24995,1.15679 -2.041422,1.52822 -0.791471,0.37131 -1.640853,0.55715 -2.548142,0.55715 z m 63.645734,3.88427 v -4.07526 h -11.09022 v -18.21154 h -4.19866 v 22.2868 z m 52.93192,0 v -4.07526 h -11.09023 v -18.21154 h -4.19863 v 22.2868 z m 53.33733,0 v -4.01157 h -11.49562 v -5.28518 h 7.49968 v -3.88426 h -7.49968 v -5.09414 h 11.3798 v -4.01161 h -15.57842 v 22.2868 z m 46.56151,0.31827 c 1.58295,0 3.12246,-0.37131 4.6185,-1.11436 1.49608,-0.74289 2.72671,-1.7405 3.69193,-2.99281 v 0 l -2.75085,-2.99278 c -0.71422,0.91271 -1.53467,1.61313 -2.46126,2.10133 -0.92662,0.48816 -1.92078,0.73228 -2.98251,0.73228 -0.94588,0 -1.81942,-0.18566 -2.62051,-0.55716 -0.80116,-0.37131 -1.49608,-0.87558 -2.08483,-1.51234 -0.58879,-0.63676 -1.05212,-1.39556 -1.38991,-2.27645 -0.33787,-0.88084 -0.50677,-1.83072 -0.50677,-2.84951 0,-1.04006 0.16413,-2.00051 0.49227,-2.88135 0.32826,-0.88088 0.78183,-1.64499 1.36094,-2.2924 0.57914,-0.64737 1.26926,-1.15679 2.07038,-1.52821 0.80112,-0.37131 1.65533,-0.5572 2.56262,-0.5572 1.08102,0 2.10413,0.26023 3.06934,0.78006 0.96521,0.52003 1.80497,1.26822 2.51922,2.24458 v 0 l 2.83768,-3.08829 c -0.94588,-1.27357 -2.18135,-2.28706 -3.70641,-3.04059 -1.52499,-0.7535 -3.09829,-1.13023 -4.71983,-1.13023 -1.50573,0 -2.91975,0.29712 -4.24209,0.89145 -1.32234,0.59433 -2.4661,1.40091 -3.43131,2.41974 -0.96518,1.01884 -1.72771,2.23398 -2.28752,3.64545 -0.55985,1.41152 -0.83975,2.92382 -0.83975,4.53699 0,1.61312 0.27521,3.12015 0.82526,4.52102 0.55016,1.40091 1.30785,2.61075 2.27306,3.62958 0.96518,1.01884 2.10898,1.82542 3.43128,2.41971 1.32238,0.59432 2.74604,0.89149 4.27107,0.89149 z m 55.53798,-0.31827 v -18.2115 h 6.8047 v -4.0753 h -17.837 v 4.0753 h 6.83369 v 18.2115 z m 48.09629,0 v -22.2868 h -4.19865 v 22.2868 z m 48.35686,0.35017 c 1.50569,0 2.9149,-0.29712 4.22759,-0.89145 1.31269,-0.59433 2.44681,-1.40621 3.40233,-2.43566 0.95557,-1.02944 1.71326,-2.24988 2.27307,-3.6614 0.55985,-1.41148 0.83975,-2.91321 0.83975,-4.50512 0,-1.59194 -0.27983,-3.09363 -0.83975,-4.50511 -0.55981,-1.41152 -1.3175,-2.63196 -2.27307,-3.66141 -0.95552,-1.02944 -2.08964,-1.84133 -3.40233,-2.43565 -1.31269,-0.59429 -2.7219,-0.89146 -4.22759,-0.89146 -1.48644,0 -2.88596,0.29713 -4.19869,0.89146 -1.31266,0.59432 -2.44681,1.40621 -3.40233,2.43565 -0.95557,1.02945 -1.71326,2.24989 -2.27307,3.66141 -0.55981,1.41148 -0.83971,2.91317 -0.83971,4.50511 0,1.59191 0.27982,3.09364 0.83971,4.50512 0.55981,1.41152 1.3175,2.63196 2.27307,3.6614 0.95552,1.02945 2.08967,1.84133 3.40233,2.43566 1.31273,0.59429 2.71225,0.89145 4.19869,0.89145 z m 0,-4.23451 c -0.90729,0 -1.75189,-0.18566 -2.53368,-0.55716 -0.78182,-0.37131 -1.45745,-0.88084 -2.02694,-1.52821 -0.56946,-0.64741 -1.0183,-1.41683 -1.34648,-2.30828 -0.32826,-0.89153 -0.49224,-1.84667 -0.49224,-2.86547 0,-1.04005 0.16413,-2.0005 0.49224,-2.88134 0.32826,-0.88088 0.77702,-1.64499 1.34648,-2.2924 0.56949,-0.64737 1.24512,-1.15679 2.02694,-1.52822 0.78179,-0.37131 1.62639,-0.55719 2.53368,-0.55719 0.90725,0 1.75665,0.18565 2.54812,0.55719 0.79148,0.37131 1.47194,0.88085 2.04144,1.52822 0.56946,0.64741 1.01826,1.41152 1.34644,2.2924 0.32826,0.88084 0.49224,1.84129 0.49224,2.88134 0,1.0188 -0.16413,1.97394 -0.49224,2.86547 -0.32826,0.89145 -0.77698,1.66087 -1.34644,2.30828 -0.5695,0.64737 -1.24996,1.15678 -2.04144,1.52821 -0.79147,0.37131 -1.64087,0.55716 -2.54812,0.55716 z m 52.32384,3.88426 v -14.9003 l 10.33734,14.9003 h 3.70641 v -22.2868 h -3.93804 v 14.42279 l -10.07677,-14.42279 h -3.99596 v 22.2868 z"
       id="COLLECTION"
       inkscape:connector-curvature="0"
       style="fill:#ffffff;fill-rule:nonzero;stroke:none;stroke-width:1.29751229" />
    <flowRoot
       xml:space="preserve"
       id="flowRoot20"
       style="font-style:normal;font-weight:normal;font-size:40px;line-height:125%;font-family:sans-serif;letter-spacing:0px;word-spacing:0px;fill:#ffffff;fill-opacity:1;stroke:none;stroke-width:1px;stroke-linecap:butt;stroke-linejoin:miter;stroke-opacity:1"
       transform="matrix(1.9044125,0,0,1.9044125,991.63128,133.93524)"><flowRegion
         id="flowRegion22"
         style="fill:#ffffff"><rect
           id="rect24"
           width="385.7883"
           height="106.24651"
           x="-447.67944"
           y="-19.71365"
           style="fill:#ffffff" /></flowRegion><flowPara
         id="flowPara26"
         style="font-style:normal;font-variant:normal;font-weight:normal;font-stretch:normal;font-family:'8-bit Arcade Out';-inkscape-font-specification:'8-bit Arcade Out';fill:#ffffff">Chocolate</flowPara></flowRoot>    <g
       aria-label="Chocolate"
       transform="matrix(1.9044125,0,0,1.9044125,965.53322,239.61328)"
       style="font-style:normal;font-weight:normal;font-size:40px;line-height:125%;font-family:sans-serif;letter-spacing:0px;word-spacing:0px;fill:#ffffff;fill-opacity:1;stroke:none;stroke-width:1px;stroke-linecap:butt;stroke-linejoin:miter;stroke-opacity:1"
       id="flowRoot20-7">
      <path
         d="m -432.67969,13.177734 h -12.5 v -2.5 h -2.5 V 3.1777344 h 2.5 V 0.67773437 h 12.5 V 3.1777344 h 2.5 v 2.5 h -7.5 v -2.5 h -2.5 v 7.4999996 h 2.5 V 8.1777344 h 7.5 v 2.4999996 h -2.5 z"
         style="font-style:normal;font-variant:normal;font-weight:normal;font-stretch:normal;font-family:'8-bit Arcade In';-inkscape-font-specification:'8-bit Arcade In';fill:#ffffff;fill-opacity:1"
         id="path17" />
      <path
         d="m -410.17969,13.177734 h -7.5 V 8.1777344 h -2.5 v 4.9999996 h -7.5 V 0.67773437 h 7.5 V 5.6777344 h 2.5 V 0.67773437 h 7.5 z"
         style="font-style:normal;font-variant:normal;font-weight:normal;font-stretch:normal;font-family:'8-bit Arcade In';-inkscape-font-specification:'8-bit Arcade In';fill:#ffffff;fill-opacity:1"
         id="path19" />
      <path
         d="m -392.67969,13.177734 h -12.5 v -2.5 h -2.5 V 3.1777344 h 2.5 V 0.67773437 h 12.5 V 3.1777344 h 2.5 v 7.4999996 h -2.5 z m -5,-2.5 V 3.1777344 h -2.5 v 7.4999996 z"
         style="font-style:normal;font-variant:normal;font-weight:normal;font-stretch:normal;font-family:'8-bit Arcade In';-inkscape-font-specification:'8-bit Arcade In';fill:#ffffff;fill-opacity:1"
         id="path21" />
      <path
         d="m -372.67969,13.177734 h -12.5 v -2.5 h -2.5 V 3.1777344 h 2.5 V 0.67773437 h 12.5 V 3.1777344 h 2.5 v 2.5 h -7.5 v -2.5 h -2.5 v 7.4999996 h 2.5 V 8.1777344 h 7.5 v 2.4999996 h -2.5 z"
         style="font-style:normal;font-variant:normal;font-weight:normal;font-stretch:normal;font-family:'8-bit Arcade In';-inkscape-font-specification:'8-bit Arcade In';fill:#ffffff;fill-opacity:1"
         id="path23" />
      <path
         d="m -352.67969,13.177734 h -12.5 v -2.5 h -2.5 V 3.1777344 h 2.5 V 0.67773437 h 12.5 V 3.1777344 h 2.5 v 7.4999996 h -2.5 z m -5,-2.5 V 3.1777344 h -2.5 v 7.4999996 z"
         style="font-style:normal;font-variant:normal;font-weight:normal;font-stretch:normal;font-family:'8-bit Arcade In';-inkscape-font-specification:'8-bit Arcade In';fill:#ffffff;fill-opacity:1"
         id="path25" />
      <path
         d="m -340.17969,10.677734 h 10 v 2.5 h -17.5 V 0.67773437 h 7.5 z"
         style="font-style:normal;font-variant:normal;font-weight:normal;font-stretch:normal;font-family:'8-bit Arcade In';-inkscape-font-specification:'8-bit Arcade In';fill:#ffffff;fill-opacity:1"
         id="path27" />
      <path
         d="m -310.17969,13.177734 h -7.5 v -2.5 h -2.5 v 2.5 h -7.5 V 3.1777344 h 2.5 V 0.67773437 h 12.5 V 3.1777344 h 2.5 z m -7.5,-4.9999996 v -5 h -2.5 v 5 z"
         style="font-style:normal;font-variant:normal;font-weight:normal;font-stretch:normal;font-family:'8-bit Arcade In';-inkscape-font-specification:'8-bit Arcade In';fill:#ffffff;fill-opacity:1"
         id="path29" />
      <path
         d="m -292.67969,13.177734 h -12.5 v -2.5 h 2.5 V 3.1777344 h -5 V 0.67773437 h 17.5 V 3.1777344 h -5 v 7.4999996 h 2.5 z"
         style="font-style:normal;font-variant:normal;font-weight:normal;font-stretch:normal;font-family:'8-bit Arcade In';-inkscape-font-specification:'8-bit Arcade In';fill:#ffffff;fill-opacity:1"
         id="path31" />
      <path
         d="m -280.17969,10.677734 h 10 v 2.5 h -17.5 V 0.67773437 h 17.5 V 3.1777344 h -10 v 2.5 h 7.5 v 2.5 h -7.5 z"
         style="font-style:normal;font-variant:normal;font-weight:normal;font-stretch:normal;font-family:'8-bit Arcade In';-inkscape-font-specification:'8-bit Arcade In';fill:#ffffff;fill-opacity:1"
         id="path33" />
    </g>
  </g>
</svg>
