<?xml version="1.0" encoding="UTF-8" standalone="no"?>
<svg
   xmlns:dc="http://purl.org/dc/elements/1.1/"
   xmlns:cc="http://creativecommons.org/ns#"
   xmlns:rdf="http://www.w3.org/1999/02/22-rdf-syntax-ns#"
   xmlns:svg="http://www.w3.org/2000/svg"
   xmlns="http://www.w3.org/2000/svg"
   xmlns:sodipodi="http://sodipodi.sourceforge.net/DTD/sodipodi-0.dtd"
   xmlns:inkscape="http://www.inkscape.org/namespaces/inkscape"
   width="500"
   height="200"
   viewBox="0 0 500 200"
   version="1.1"
   id="svg52"
   sodipodi:docname="psp.svg"
   style="fill:none"
   inkscape:version="0.92.5 (2060ec1f9f, 2020-04-08)">
  <metadata
     id="metadata58">
    <rdf:RDF>
      <cc:Work
         rdf:about="">
        <dc:format>image/svg+xml</dc:format>
        <dc:type
           rdf:resource="http://purl.org/dc/dcmitype/StillImage" />
        <dc:title></dc:title>
      </cc:Work>
    </rdf:RDF>
  </metadata>
  <defs
     id="defs56" />
  <sodipodi:namedview
     pagecolor="#ffffff"
     bordercolor="#666666"
     borderopacity="1"
     objecttolerance="10"
     gridtolerance="10"
     guidetolerance="10"
     inkscape:pageopacity="0"
     inkscape:pageshadow="2"
     inkscape:window-width="1366"
     inkscape:window-height="740"
     id="namedview54"
     showgrid="false"
     inkscape:pagecheckerboard="true"
     inkscape:zoom="1.2092391"
     inkscape:cx="241.5"
     inkscape:cy="74"
     inkscape:window-x="0"
     inkscape:window-y="0"
     inkscape:window-maximized="1"
     inkscape:current-layer="svg52" />
  <path
     d="m 0,146.99686 v 24.45431 H 2.2927819 V 160.6513 h 5.2181754 c 4.5065707,0 9.4084557,-1.35942 9.4084557,-6.82263 0,-3.66901 -1.660293,-6.83181 -7.9853271,-6.83181 z m 14.547566,6.66546 c 0,4.1344 -2.609032,5.02027 -6.9575029,5.02027 H 2.2927819 v -9.71702 h 6.0087944 c 4.3484097,0 6.2459897,1.63702 6.2459897,4.69675 z"
     id="path2"
     inkscape:connector-curvature="0"
     style="clip-rule:evenodd;fill:#ffffff;fill-rule:evenodd;stroke-width:1.02058816" />
  <path
     d="m 20.002609,171.45117 h 1.976573 v -24.45431 h -1.976573 z"
     id="path4"
     inkscape:connector-curvature="0"
     style="fill:#ffffff;stroke-width:1.02058816" />
  <path
     d="m 37.791767,160.6115 c -0.632458,0.30822 -1.897477,0.51438 -2.688127,0.58582 l -2.767223,0.37149 c -4.111235,0.545 -6.166904,2.34736 -6.166904,5.29686 0,3.39141 2.767223,5.06007 5.850624,5.06007 2.530038,0 4.901987,-1.01957 6.56228,-2.925 0,1.2247 0.237185,2.41879 1.660293,2.61678 0.31628,0.0714 0.553465,0.10308 0.869643,0.10308 0.63256,0 1.344216,-0.23779 1.581299,-0.34087 v -1.5962 c -1.660293,0.60827 -2.134662,0.23677 -2.134662,-1.36045 v -9.57413 c 0,-4.07215 -2.767223,-5.47138 -6.324993,-5.47138 -3.874153,0 -6.957554,1.66866 -7.273834,5.81123 h 2.055669 c 0.395273,-3.05156 2.371847,-3.96907 5.139069,-3.96907 3.162497,0 4.427516,1.49415 4.427516,3.56594 0,0.60827 -0.0791,1.52578 -0.79065,1.82583 z m -4.506611,2.58617 c 1.739388,-0.13472 3.557872,-0.2776 5.297261,-0.98895 v 2.75151 c 0,3.56593 -3.241592,5.13152 -6.483184,5.13152 -1.897478,0 -3.794955,-1.01243 -3.794955,-3.16281 0,-2.37184 1.897477,-3.49449 4.980878,-3.73127 z"
     id="path6"
     inkscape:connector-curvature="0"
     style="clip-rule:evenodd;fill:#ffffff;fill-rule:evenodd;stroke-width:1.02058816" />
  <path
     d="m 45.619168,176.23467 c 0.553465,0.10307 1.106828,0.2133 1.660293,0.2133 2.371949,0 2.688127,-3.3363 3.478777,-4.86208 l -6.878458,-17.7266 h 2.292853 l 5.692535,15.11695 5.613439,-15.11695 h 2.213757 l -6.562279,17.3551 c -1.660293,4.41098 -2.767121,7.16249 -5.613439,7.16249 -0.711555,0 -1.344013,-0.10206 -1.897478,-0.23678 v -1.90543"
     id="path8"
     inkscape:connector-curvature="0"
     style="fill:#ffffff;stroke-width:1.02058816" />
  <path
     d="m 64.515256,164.1458 c 0.395274,4.38036 3.241694,5.97758 7.036649,5.97758 4.34842,0 6.166904,-2.37184 6.166904,-5.06007 0,-7.57481 -14.863846,-2.54637 -14.863846,-12.15215 0,-3.39957 2.767223,-6.55421 8.301566,-6.55421 5.45535,0 8.222573,3.32099 8.143477,7.30537 h -2.134662 c 0,-3.73944 -2.925312,-5.33666 -6.008815,-5.33666 -4.743796,0 -6.403986,2.8852 -6.008713,5.39993 1.027835,6.30928 14.94284,1.76256 14.94284,11.23464 0,4.49059 -3.320688,7.13187 -8.934127,7.13187 -5.13907,0 -8.934025,-2.64128 -8.934025,-7.9463 h 2.292752"
     id="path10"
     inkscape:connector-curvature="0"
     style="fill:#ffffff;stroke-width:1.02058816" />
  <path
     d="m 90.684871,171.51445 c -0.474471,0.10307 -1.344114,0.41129 -2.371949,0.41129 -1.976573,0 -3.083401,-0.88485 -3.083401,-3.50266 v -12.87063 h -2.530038 v -1.69214 h 2.530038 v -4.89372 h 2.055567 v 4.89372 h 3.241592 v 1.69214 h -3.241592 v 12.0562 c 0,1.74011 0,2.4831 1.73949,2.4831 0.553363,0 1.106828,-0.10308 1.660293,-0.23678 v 1.65948"
     id="path12"
     inkscape:connector-curvature="0"
     style="fill:#ffffff;stroke-width:1.02058816" />
  <path
     d="m 105.23285,160.6115 c -0.71135,0.30822 -1.97688,0.51438 -2.68823,0.58582 l -2.846425,0.37149 c -4.111235,0.545 -6.166903,2.34736 -6.166903,5.29686 0,3.39141 2.846318,5.06007 5.929719,5.06007 2.530039,0 4.822689,-1.01957 6.561769,-2.925 0,1.2247 0.2378,2.41879 1.58191,2.61678 0.31638,0.0714 0.63277,0.10308 0.94813,0.10308 0.53683,0 1.22266,-0.2235 1.55231,-0.33067 0.0102,-0.003 0.0194,-0.007 0.0296,-0.0102 v -1.5962 c -1.7401,0.60827 -2.13507,0.23677 -2.13507,-1.36045 v -9.57413 c 0,-4.07215 -2.84642,-5.47138 -6.40388,-5.47138 -3.795062,0 -6.878565,1.66866 -7.194845,5.81123 h 2.055668 c 0.395274,-3.05156 2.292854,-3.96907 5.139177,-3.96907 3.16249,0 4.34842,1.49415 4.34842,3.56594 0,0.60827 -0.0796,1.52578 -0.71135,1.82583 z m -4.50692,2.58617 c 1.73908,-0.13472 3.47918,-0.2776 5.21827,-0.98895 v 2.75151 c 0,3.56593 -3.16281,5.13152 -6.404094,5.13152 -1.897579,0 -3.795057,-1.01243 -3.795057,-3.16281 0,-2.37184 1.897478,-3.49449 4.980881,-3.73127 z"
     id="path14"
     inkscape:connector-curvature="0"
     style="clip-rule:evenodd;fill:#ffffff;fill-rule:evenodd;stroke-width:1.02058816" />
  <path
     d="m 120.01709,171.51445 c -0.47356,0.10307 -1.34412,0.41129 -2.37185,0.41129 -1.97586,0 -3.0832,-0.88485 -3.0832,-3.50266 v -12.87063 h -2.45043 v -1.69214 h 2.45043 v -4.89372 h 2.05547 v 4.89372 h 3.24138 v 1.69214 h -3.24138 v 12.0562 c 0,1.74011 0,2.4831 1.7401,2.4831 0.55316,0 1.10632,-0.10308 1.65948,-0.23678 v 1.65948"
     id="path16"
     inkscape:connector-curvature="0"
     style="fill:#ffffff;stroke-width:1.02058816" />
  <path
     d="m 123.97084,146.99686 v 3.02094 h 2.29224 v -3.02094 z m 0.15819,24.45431 h 1.97586 v -17.59086 h -1.97586 z"
     id="path18"
     inkscape:connector-curvature="0"
     style="clip-rule:evenodd;fill:#ffffff;fill-rule:evenodd;stroke-width:1.02058816" />
  <path
     d="m 138.12232,153.37757 c -5.37646,0 -8.14327,4.15074 -8.14327,9.27409 0,6.15108 3.71596,9.20264 8.14327,9.27408 4.98149,0 8.22288,-3.69963 8.22288,-9.27408 0,-5.16316 -2.68823,-9.27409 -8.22288,-9.27409 z m -5.92962,9.27409 c 0,-3.80271 1.6605,-7.43193 5.92962,-7.43193 4.34873,0 6.00922,3.28936 6.00922,7.43193 0,3.77107 -1.7401,7.44009 -6.00922,7.44009 -3.87415,0 -5.92962,-3.05973 -5.92962,-7.44009 z"
     id="path20"
     inkscape:connector-curvature="0"
     style="clip-rule:evenodd;fill:#ffffff;fill-rule:evenodd;stroke-width:1.02058816" />
  <path
     d="m 151.24708,171.45117 h -2.05546 v -17.59086 h 2.05546 v 2.44227 c 1.58089,-1.73092 3.24139,-2.92501 5.61324,-2.92501 2.21365,0 4.11093,0.67971 5.37646,2.51371 0.86954,1.26553 0.94812,2.58617 0.94812,4.04051 v 11.51938 h -2.05546 v -11.47958 c 0,-3.15463 -1.34412,-4.75186 -4.5855,-4.75186 -2.53004,0 -4.26912,1.62886 -4.90189,3.42306 -0.39497,1.12264 -0.39497,2.11159 -0.39497,3.33732 v 9.47106"
     id="path22"
     inkscape:connector-curvature="0"
     style="fill:#ffffff;stroke-width:1.02058816" />
  <path
     d="m 170.38005,171.45117 c 1.10734,0 2.13507,-0.4113 2.92603,-1.21756 0.78993,-0.80627 1.18592,-1.78705 1.18592,-2.93317 0,-1.13796 -0.39599,-2.11874 -1.18592,-2.9097 -0.79096,-0.81443 -1.81869,-1.2094 -2.92603,-1.2094 -1.10632,0 -2.13405,0.39497 -2.92501,1.2094 -0.79095,0.79912 -1.18592,1.77889 -1.18592,2.9097 0,1.14612 0.39497,2.1269 1.18592,2.93317 0.79096,0.80626 1.81869,1.21756 2.92501,1.21756 z m -2.53004,-6.67261 c -0.71135,0.69604 -1.02773,1.54211 -1.02773,2.52188 0,1.00426 0.31638,1.85032 1.02773,2.54636 0.71237,0.70319 1.50231,1.05121 2.53004,1.05121 1.02773,0 1.81869,-0.34802 2.53004,-1.05121 0.71237,-0.69604 1.02773,-1.5421 1.02773,-2.54636 0,-0.97977 -0.31536,-1.82584 -1.02773,-2.52188 -0.71135,-0.69604 -1.50231,-1.04406 -2.53004,-1.04406 -1.02773,0 -1.81767,0.34802 -2.53004,1.04406 z m 3.71596,0.39497 c -0.31638,-0.11022 -0.71135,-0.15819 -1.26451,-0.15819 h -1.58089 v 4.55386 h 0.78994 v -1.81052 h 0.63276 c 0.39497,0 0.71135,0.048 0.86954,0.15105 0.23678,0.16533 0.39497,0.51335 0.39497,1.0512 v 0.36333 l 0.0796,0.14289 v 0.0633 0.0388 h 0.71135 v -0.0551 -0.24494 c -0.0786,-0.11022 -0.0786,-0.22963 -0.0786,-0.33985 v -0.3317 c 0,-0.22963 -0.0796,-0.4664 -0.2378,-0.71237 -0.15819,-0.23677 -0.39496,-0.39496 -0.71135,-0.45008 0.23678,-0.048 0.47458,-0.11838 0.63277,-0.22146 0.31638,-0.18983 0.39497,-0.48274 0.39497,-0.88587 0,-0.57664 -0.15819,-0.95629 -0.63277,-1.15429 z m -1.4227,0.39599 c 0.47458,0 0.79096,0.0551 1.02773,0.16533 0.1582,0.11125 0.31639,0.33272 0.31639,0.65624 0,0.34802 -0.15819,0.5848 -0.47458,0.71135 -0.15819,0.0633 -0.47457,0.0949 -0.79095,0.0949 h -0.71135 v -1.62784 z"
     id="path24"
     inkscape:connector-curvature="0"
     style="clip-rule:evenodd;fill:#ffffff;fill-rule:evenodd;stroke-width:1.02058816" />
  <path
     d="m 180.81658,146.99686 v 24.45431 h 2.29327 V 160.6513 h 5.21724 c 4.58652,0 9.4088,-1.35942 9.4088,-6.82263 0,-3.66901 -1.66049,-6.83181 -7.98508,-6.83181 z m 14.62707,6.66546 c 0,4.1344 -2.68823,5.02027 -7.03695,5.02027 h -5.29685 v -9.71702 h 6.0082 c 4.34872,0 6.3256,1.63702 6.3256,4.69675 z"
     id="path26"
     inkscape:connector-curvature="0"
     style="clip-rule:evenodd;fill:#ffffff;fill-rule:evenodd;stroke-width:1.02058816" />
  <path
     d="m 206.82831,153.37757 c -5.45504,0 -8.14327,4.15074 -8.14327,9.27409 0,6.15108 3.63636,9.20264 8.14327,9.27408 4.90189,0 8.14328,-3.69963 8.14328,-9.27408 0,-5.16316 -2.60863,-9.27409 -8.14328,-9.27409 z m -6.00922,9.27409 c 0,-3.80271 1.7401,-7.43193 6.00922,-7.43193 4.34873,0 5.92962,3.28936 6.00923,7.43193 0,3.77107 -1.74011,7.44009 -6.00923,7.44009 -3.87415,0 -6.00922,-3.05973 -6.00922,-7.44009 z"
     id="path28"
     inkscape:connector-curvature="0"
     style="clip-rule:evenodd;fill:#ffffff;fill-rule:evenodd;stroke-width:1.02058816" />
  <path
     d="m 220.03166,171.45117 h -2.05546 v -17.59086 h 2.05546 v 3.2965 h 0.0796 c 1.10632,-2.82295 2.76681,-3.77924 5.69182,-3.77924 v 2.21366 c -4.5855,-0.10308 -5.77143,3.28935 -5.77143,7.22678 v 8.63316"
     id="path30"
     inkscape:connector-curvature="0"
     style="fill:#ffffff;stroke-width:1.02058816" />
  <path
     d="m 237.18877,171.51445 c -0.47457,0.10307 -1.34411,0.41129 -2.29326,0.41129 -2.05547,0 -3.1628,-0.88485 -3.1628,-3.50266 v -12.87063 h -2.45044 v -1.69214 h 2.45044 v -4.89372 h 2.05546 v 4.89372 h 3.32099 v 1.69214 h -3.32099 v 12.0562 c 0,1.74011 0.0796,2.4831 1.7401,2.4831 0.55316,0 1.18593,-0.10308 1.6605,-0.23678 v 1.65948"
     id="path32"
     inkscape:connector-curvature="0"
     style="fill:#ffffff;stroke-width:1.02058816" />
  <path
     d="m 251.10347,160.6115 c -0.71135,0.30822 -1.97688,0.51438 -2.68823,0.58582 l -2.84642,0.37149 c -4.11093,0.545 -6.16639,2.34736 -6.16639,5.29686 0,3.39141 2.84642,5.06007 5.92961,5.06007 2.53004,0 4.82228,-1.01957 6.56239,-2.925 0,1.2247 0.23677,2.41879 1.58089,2.61678 0.31638,0.0714 0.63276,0.10308 0.94914,0.10308 0.53683,0 1.22267,-0.2235 1.5513,-0.33067 0.0102,-0.003 0.0204,-0.007 0.0296,-0.0102 v -1.5962 c -1.73908,0.60827 -2.13507,0.23677 -2.13507,-1.36045 v -9.57413 c 0,-4.07215 -2.8454,-5.47138 -6.40317,-5.47138 -3.79556,0 -6.87876,1.66866 -7.19514,5.81123 h 2.05546 c 0.39497,-3.05156 2.29326,-3.96907 5.13968,-3.96907 3.16179,0 4.34771,1.49415 4.34771,3.56594 0,0.60827 -0.0786,1.52578 -0.71135,1.82583 z m -4.50692,2.58617 c 1.7401,-0.13472 3.47919,-0.2776 5.21827,-0.98895 v 2.75151 c 0,3.56593 -3.16178,5.13152 -6.40419,5.13152 -1.89727,0 -3.79455,-1.01243 -3.79455,-3.16281 0,-2.37184 1.89728,-3.49449 4.98047,-3.73127 z"
     id="path34"
     inkscape:connector-curvature="0"
     style="clip-rule:evenodd;fill:#ffffff;fill-rule:evenodd;stroke-width:1.02058816" />
  <path
     d="m 259.95809,171.45117 h 2.05649 v -3.09136 c 1.26451,2.30857 3.87313,3.56593 6.16639,3.56593 5.69284,0 7.9065,-4.04765 7.9065,-9.23428 0,-4.92536 -2.45146,-9.31389 -7.82791,-9.31389 -2.45044,0 -4.98047,1.16245 -6.24498,3.2965 v -9.67721 h -2.05649 z m 13.99431,-8.2535 c -0.0786,4.41098 -2.60863,6.89408 -6.00821,6.89408 -3.87415,0 -5.92961,-3.25772 -5.92961,-7.51153 0,-3.96907 2.21365,-7.36049 5.92961,-7.36049 4.18952,0 6.1664,3.56594 6.00821,7.97794 z"
     id="path36"
     inkscape:connector-curvature="0"
     style="clip-rule:evenodd;fill:#ffffff;fill-rule:evenodd;stroke-width:1.02058816" />
  <path
     d="m 280.59438,171.45117 h 2.05547 v -24.45431 h -2.05547 z"
     id="path38"
     inkscape:connector-curvature="0"
     style="fill:#ffffff;stroke-width:1.02058816" />
  <path
     d="m 294.82547,170.09175 c -3.87416,0 -5.92962,-3.16281 -5.92962,-6.95735 h 13.67792 c 0,-6.31744 -2.92602,-9.75683 -7.7483,-9.75683 -5.06008,0 -8.06469,4.21401 -8.06469,9.34553 0,5.19377 2.45145,9.20264 8.06469,9.20264 4.50589,0 6.56238,-2.55351 7.59011,-5.8745 h -2.29326 c -0.55316,2.578 -2.68823,4.04051 -5.29685,4.04051 z m 0,-14.87202 c 3.63635,0 5.53465,2.78315 5.53465,6.2062 h -11.46427 c 0.39497,-3.31997 2.29224,-6.2062 5.92962,-6.2062 z"
     id="path40"
     inkscape:connector-curvature="0"
     style="clip-rule:evenodd;fill:#ffffff;fill-rule:evenodd;stroke-width:1.02058816" />
  <path
     d="M 0,49.398133 H 144.05194 V 92.115769 H 5.692555 V 129.14087 H 0 V 86.423234 H 138.36012 V 55.090626 H 0 v -5.692493"
     id="path42"
     inkscape:connector-curvature="0"
     style="fill:#ffffff;stroke-width:1.02058816" />
  <path
     d="m 323.99898,92.115769 v 37.025101 h -5.69182 V 86.423234 H 456.66727 V 55.090626 H 318.30716 V 49.398133 H 462.35909 V 92.115769 H 323.99898"
     id="path44"
     inkscape:connector-curvature="0"
     style="fill:#ffffff;stroke-width:1.02058816" />
  <path
     d="m 217.50162,49.398133 v 74.050207 h -73.44968 v 5.69253 h 79.45891 V 55.090626 h 73.44867 v -5.692493 h -79.4579"
     id="path46"
     inkscape:connector-curvature="0"
     style="fill:#ffffff;stroke-width:1.02058816" />
  <path
     d="m 477.45972,120.72857 h -3.0832 v -1.07529 h 7.43192 v 1.07529 h -3.08319 v 8.42802 h -1.26553 v -8.42802"
     id="path48"
     inkscape:connector-curvature="0"
     style="fill:#ffffff;stroke-width:1.02058816" />
  <path
     d="m 486.86852,129.15659 -2.60862,-7.71647 v 7.71647 h -1.26553 v -9.50331 h 1.7401 l 2.68823,8.0802 2.76681,-8.0802 h 1.73909 v 9.50331 h -1.26451 v -7.71647 l -2.53004,7.71647 h -1.26553"
     id="path50"
     inkscape:connector-curvature="0"
     style="fill:#ffffff;stroke-width:1.02058816" />
</svg>
