<?xml version="1.0" encoding="UTF-8" standalone="no"?>
<svg
   xmlns:dc="http://purl.org/dc/elements/1.1/"
   xmlns:cc="http://creativecommons.org/ns#"
   xmlns:rdf="http://www.w3.org/1999/02/22-rdf-syntax-ns#"
   xmlns:svg="http://www.w3.org/2000/svg"
   xmlns="http://www.w3.org/2000/svg"
   xmlns:sodipodi="http://sodipodi.sourceforge.net/DTD/sodipodi-0.dtd"
   xmlns:inkscape="http://www.inkscape.org/namespaces/inkscape"
   width="500"
   height="200"
   viewBox="0 0 500 200"
   version="1.1"
   id="svg81"
   sodipodi:docname="psx.svg"
   inkscape:version="0.92.5 (2060ec1f9f, 2020-04-08)">
  <metadata
     id="metadata87">
    <rdf:RDF>
      <cc:Work
         rdf:about="">
        <dc:format>image/svg+xml</dc:format>
        <dc:type
           rdf:resource="http://purl.org/dc/dcmitype/StillImage" />
        <dc:title>syslogo</dc:title>
      </cc:Work>
    </rdf:RDF>
  </metadata>
  <defs
     id="defs85" />
  <sodipodi:namedview
     pagecolor="#ffffff"
     bordercolor="#666666"
     borderopacity="1"
     objecttolerance="10"
     gridtolerance="10"
     guidetolerance="10"
     inkscape:pageopacity="0"
     inkscape:pageshadow="2"
     inkscape:window-width="1366"
     inkscape:window-height="740"
     id="namedview83"
     showgrid="false"
     inkscape:pagecheckerboard="true"
     inkscape:zoom="1.1895367"
     inkscape:cx="245.5"
     inkscape:cy="50"
     inkscape:window-x="0"
     inkscape:window-y="0"
     inkscape:window-maximized="1"
     inkscape:current-layer="svg81" />
  <title
     id="title60">syslogo</title>
  <g
     id="Page-1"
     style="fill:none;fill-rule:evenodd;stroke:none;stroke-width:1"
     transform="matrix(1.0137148,0,0,1.0137148,0.84066346,53.241844)">
    <g
       id="syslogo"
       style="fill:#ffffff">
      <g
         id="PlayStation_logo">
        <path
           d="m 127.55544,76.025258 c -2.51401,3.17174 -8.67332,5.434345 -8.67332,5.434345 0,0 -45.819204,16.45796 -45.819204,16.45796 0,0 0,-12.137378 0,-12.137378 0,0 33.719824,-12.014606 33.719824,-12.014606 3.82655,-1.371006 4.41412,-3.309131 1.30377,-4.326426 -3.1045,-1.020221 -8.725928,-0.72789 -12.555402,0.648966 0,0 -22.468192,7.913269 -22.468192,7.913269 0,0 0,-12.596336 0,-12.596336 0,0 1.295008,-0.43849 1.295008,-0.43849 0,0 6.492563,-2.297683 15.621911,-3.309131 9.129347,-1.005602 20.307885,0.137393 29.083525,3.464065 9.88939,3.124965 11.00316,7.732029 8.49208,10.903762 z M 77.424429,55.357802 c 0,0 0,-31.039189 0,-31.039189 0,-3.645306 -0.672354,-7.00121 -4.092569,-7.951271 -2.61924,-0.838977 -4.244578,1.593176 -4.244578,5.235559 0,0 0,77.729523 0,77.729523 0,0 -20.962703,-6.653341 -20.962703,-6.653341 0,0 0,-92.679083 0,-92.679083 8.913022,1.6545684 21.898144,5.5658913 28.878897,7.9191187 17.752968,6.0949963 23.771964,13.6808623 23.771964,30.7731713 0,16.659666 -10.284036,22.97391 -23.351011,16.665512 z M 9.6603023,84.511489 C -0.49218473,81.652542 -2.1818298,75.694935 2.445693,72.263026 c 4.2767322,-3.168815 11.549806,-5.554198 11.549806,-5.554198 0,0 30.056973,-10.687445 30.056973,-10.687445 0,0 0,12.184155 0,12.184155 0,0 -21.62921,7.740797 -21.62921,7.740797 -3.820703,1.371006 -4.408279,3.312056 -1.303775,4.329351 3.107427,1.017289 8.731783,0.727889 12.558332,-0.646041 0,0 10.374653,-3.765164 10.374653,-3.765164 0,0 0,10.900844 0,10.900844 -0.657731,0.116928 -1.391471,0.233857 -2.069668,0.347867 C 31.605226,88.808684 20.552375,88.101257 9.6603023,84.511489 Z M 120.87871,89.337791 c 1.31254,0 2.54323,0.508651 3.46991,1.447017 0.92668,0.923747 1.43824,2.157369 1.43824,3.466989 0,1.315464 -0.51156,2.543235 -1.43824,3.466989 -0.92668,0.932516 -2.15737,1.441167 -3.46991,1.441167 -1.31255,0 -2.54032,-0.508651 -3.46992,-1.441167 -0.92667,-0.923754 -1.43531,-2.151525 -1.43531,-3.466989 0,-2.706944 2.19828,-4.914006 4.90523,-4.914006 z m -4.08088,4.914006 c 0,1.090375 0.42387,2.116439 1.19562,2.882334 0.76881,0.777588 1.7978,1.198535 2.88526,1.198535 2.25383,0 4.08087,-1.829958 4.08087,-4.080869 0,-1.0933 -0.42095,-2.119364 -1.19561,-2.888184 -0.76882,-0.777588 -1.79781,-1.195616 -2.88526,-1.195616 -1.08746,0 -2.11645,0.418028 -2.88526,1.195616 -0.77175,0.76882 -1.19562,1.794884 -1.19562,2.888184 z m 5.56297,-2.645552 c 0.53788,0.236782 0.80974,0.692809 0.80974,1.341776 0,0.333255 -0.0702,0.613886 -0.21339,0.833131 -0.10232,0.157852 -0.24848,0.286481 -0.41219,0.397559 0.12863,0.07601 0.24263,0.166627 0.32742,0.271869 0.11692,0.152009 0.18415,0.394634 0.19293,0.724964 0,0 0.0263,0.698659 0.0263,0.698659 0.009,0.18709 0.0205,0.33033 0.0497,0.418028 0.0292,0.128623 0.0848,0.210477 0.15492,0.236789 0,0 0.0731,0.0351 0.0731,0.0351 0,0 0,0.07893 0,0.07893 0,0 0,0.119853 0,0.119853 0,0 0,0.119886 0,0.119886 0,0 -0.11985,0 -0.11985,0 0,0 -0.86821,0 -0.86821,0 0,0 -0.0702,0 -0.0702,0 0,0 -0.0351,-0.06139 -0.0351,-0.06139 -0.0293,-0.05843 -0.0497,-0.125696 -0.0701,-0.213395 -0.0146,-0.07893 -0.0293,-0.216319 -0.038,-0.426796 0,0 -0.0439,-0.868211 -0.0439,-0.868211 -0.0117,-0.301094 -0.11401,-0.488183 -0.30695,-0.587575 -0.11985,-0.05551 -0.31863,-0.08185 -0.58757,-0.08185 0,0 -1.48794,0 -1.48794,0 0,0 0,2.119364 0,2.119364 0,0 0,0.119854 0,0.119854 0,0 -0.12278,0 -0.12278,0 0,0 -0.70743,0 -0.70743,0 0,0 -0.11985,0 -0.11985,0 0,0 0,-0.119854 0,-0.119854 0,0 0,-5.223867 0,-5.223867 0,0 0,-0.119854 0,-0.119854 0,0 0.11985,0 0.11985,0 0,0 2.41754,0 2.41754,0 0.41511,0 0.76297,0.06136 1.03191,0.187083 z m -2.61924,2.201212 c 0,0 1.51425,0 1.51425,0 0.30401,0 0.54665,-0.05558 0.71912,-0.169546 0.15786,-0.11401 0.23386,-0.321561 0.23386,-0.622654 0,-0.327405 -0.10816,-0.540807 -0.33617,-0.65481 -0.1257,-0.06136 -0.3011,-0.09647 -0.52327,-0.09647 0,0 -1.60779,0 -1.60779,0 0,0 0,1.543477 0,1.543477 z"
           id="path-1"
           inkscape:connector-curvature="0" />
      </g>
      <g
         id="g4781"
         transform="translate(141.70467,24.53158)"
         style="fill-rule:nonzero">
        <path
           d="M 0.77866265,0.6423481 V 49.298604 H 8.3742964 V 5.3041777 h 7.0309686 c 0,0 5.107626,0 6.856877,2.2842072 1.486014,1.9403072 1.757734,5.4600331 1.757734,7.8376561 0,2.543196 -0.161337,6.474755 -1.014732,7.914061 -1.294958,2.199297 -3.422064,2.640859 -5.366627,2.640859 h -4.640604 v 4.317919 h 6.674335 c 0,0 6.020462,0.250687 8.610367,-2.381869 3.175815,-3.22676 3.982502,-7.565915 3.982502,-13.374095 0,-5.2774604 -1.914835,-10.601639 -5.829405,-12.4103067 C 23.1962,0.6423481 17.354056,0.6423481 17.354056,0.6423481 H 0.77866265"
           id="path3003"
           inkscape:connector-curvature="0" />
        <polygon
           id="path3005"
           points="45.828981,0.6423481 38.234635,0.6423481 38.234635,49.298604 45.828981,49.298604 " />
        <polyline
           id="path3007"
           points="86.2370469 11.9912145 100.133389 48.4112318 92.1556418 67.9501589 98.4605652 67.9501589 121.434297 11.9912145 114.394856 11.9912145 104.387622 39.2658985 95.0767045 11.9912145 86.2370469 11.9912145" />
        <path
           d="m 127.15332,49.009895 v -4.598144 c 0,0 8.03295,0.314181 9.70578,0.314181 3.70654,0 5.55768,-0.78971 6.95028,-2.284229 0.82368,-0.895834 1.56668,-4.865606 1.56668,-6.27944 0,-1.409587 -0.27173,-4.458032 -0.82367,-5.706292 -0.56894,-1.222767 -1.86389,-2.364881 -3.80419,-2.530455 -1.38412,-0.118888 -3.52397,-0.399102 -6.02472,-0.513743 -3.50697,-0.165754 -5.82517,-1.995498 -6.94179,-3.311681 -1.10815,-1.316182 -2.58991,-3.298939 -2.58991,-9.366109 0,-6.0756744 1.57093,-9.4807601 3.14609,-11.0601789 1.57517,-1.5879025 3.88063,-2.2842072 5.6511,-2.5983985 2.03796,-0.34814697 5.36662,-0.36937195 5.36662,-0.36937195 l 10.63134,0.31010385 v 4.5981441 c 0,0 -7.75273,-0.3101039 -9.42129,-0.3101039 -3.70654,0 -4.81893,0.7939566 -6.20729,2.2842072 -0.81943,0.8873613 -1.46055,3.3414111 -1.46055,4.7467401 0,1.413845 0.16577,4.266975 0.72178,5.502483 0.55196,1.222789 1.85116,2.369139 3.7957,2.543207 1.37987,0.106019 3.52398,0.386361 6.02048,0.500991 3.52396,0.165435 5.83791,1.991262 6.9418,3.311702 1.11663,1.320419 2.60264,4.10139 2.60264,10.164302 0,6.075675 -1.58366,10.414829 -3.15036,11.998485 -1.57941,1.579419 -3.88061,2.284218 -5.65108,2.589904 -2.0422,0.352405 -5.37087,0.377887 -5.37087,0.377887 l -11.65457,-0.314191"
           id="path3009"
           inkscape:connector-curvature="0" />
        <path
           d="m 168.59605,5.3041777 h -7.59139 V 41.023633 c 0,0 0.18239,3.260747 0.36938,4.407098 0.18681,1.14635 1.85538,3.867873 6.20727,3.867873 l 7.86738,-0.152854 v -4.581145 c 0,0 -2.13137,0.152833 -3.41783,0.152833 -1.30344,0 -2.88287,-0.08484 -3.15034,-2.288465 -0.28464,-2.199286 -0.28464,-4.827404 -0.28464,-4.827404 V 16.568134 h 8.57641 v -4.576919 h -8.57641 V 5.3041777"
           id="path3011"
           inkscape:connector-curvature="0" />
        <polygon
           id="path3013"
           points="249.48642,11.993365 241.89461,11.993365 241.89461,49.298604 249.48642,49.298604 " />
        <polygon
           id="path3015"
           points="249.48642,0.64109205 241.89461,0.64109205 241.89461,7.4143061 249.48642,7.4143061 " />
        <path
           d="m 273.48297,11.672787 c 5.16709,0 9.17507,1.154845 11.32766,2.895612 2.17382,1.744992 4.8444,5.426067 4.8444,16.078628 0,10.652583 -2.67058,14.329411 -4.8444,16.078651 -2.15259,1.740756 -6.16057,2.904084 -11.32766,2.904084 -5.1798,0 -9.17081,-1.163328 -11.34039,-2.904084 -2.16958,-1.74924 -4.8274,-5.426068 -4.8274,-16.078651 0,-10.652561 2.65782,-14.333636 4.8274,-16.078628 2.16958,-1.740767 6.16059,-2.895612 11.34039,-2.895612 z m -5.20528,7.154092 c -1.04446,1.286464 -2.31817,3.990997 -2.31817,11.820148 0,7.824915 1.27371,10.533707 2.31817,11.815923 1.0402,1.273711 2.95928,2.135611 5.44305,2.135611 2.48801,0 4.39858,-0.8619 5.45155,-2.135611 1.04019,-1.282216 2.31393,-3.991008 2.31393,-11.815923 0,-7.829151 -1.27374,-10.533684 -2.31393,-11.820148 -1.05297,-1.277969 -2.96354,-2.131374 -5.45155,-2.131374 -2.48377,0 -4.40285,0.853405 -5.44305,2.131374"
           id="path3017"
           inkscape:connector-curvature="0" />
        <path
           d="m 305.38551,17.230483 7.44705,-0.314192 c 1.94878,0 4.24149,0.526473 5.35389,1.93605 1.03594,1.328934 1.6898,2.912589 1.6898,5.464291 v 24.939511 h 7.60413 V 23.68826 c 0,-4.835919 -1.49025,-7.646599 -3.72353,-9.412828 -3.18431,-2.526218 -8.89059,-2.284217 -8.89059,-2.284217 l -17.01271,0.305707 v 36.959221 h 7.53196 v -32.02566"
           id="path3019"
           inkscape:connector-curvature="0" />
        <path
           d="m 226.77127,5.3041777 h -7.59565 V 41.023633 c 0,0 0.17832,3.260747 0.3609,4.407098 0.19124,1.14635 1.8469,3.867873 6.21576,3.867873 l 7.86738,-0.152854 v -4.581145 c 0,0 -2.1356,0.152833 -3.42631,0.152833 -1.29071,0 -2.87438,-0.08484 -3.15035,-2.288465 -0.27173,-2.199286 -0.27173,-4.827404 -0.27173,-4.827404 V 16.568134 h 8.55519 v -4.576919 h -8.55519 V 5.3041777"
           id="path3021"
           inkscape:connector-curvature="0" />
        <path
           d="m 74.650405,24.316632 c 0,-2.551702 -0.649596,-4.135357 -1.694048,-5.464291 -1.112384,-1.409577 -3.396602,-1.93605 -5.34964,-1.93605 l -10.015728,0.314192 v -4.933561 l 12.053676,-0.305707 c 0,0 5.706282,-0.242172 8.894849,2.284217 2.224769,1.766229 3.702278,4.576909 3.702278,9.412828 v 25.211231 l -14.554412,0.31422 c 0,0 -6.589395,0.02392 -9.909571,-1.320458 -3.235254,-1.316172 -5.001493,-4.929313 -5.001493,-9.943526 0,-4.840156 1.481767,-7.650847 3.706536,-9.417064 3.188546,-2.530477 8.890602,-2.279982 8.890602,-2.279982 h 4.649088 v 4.296705 H 67.41566 c -1.953059,0 -3.961289,0.360888 -5.077909,1.770476 -1.040226,1.316182 -1.596408,2.458286 -1.596408,5.009976 0,3.349905 0.649597,4.844392 2.22478,5.982249 1.392588,1.014743 3.884851,1.235529 6.665811,1.235529 l 5.018471,-0.305697 V 24.316632"
           id="path3023"
           inkscape:connector-curvature="0" />
        <path
           d="m 202.71487,24.316632 c 0,-2.551702 -0.63687,-4.135357 -1.68132,-5.464291 -1.12512,-1.409577 -3.40933,-1.93605 -5.34963,-1.93605 l -10.01147,0.314192 v -4.933561 l 12.04517,-0.305707 c 0,0 5.70204,-0.242172 8.88635,2.284217 2.22477,1.766229 3.71079,4.576909 3.71079,9.412828 v 25.211231 l -14.55443,0.31422 c 0,0 -6.59789,0.02392 -9.90957,-1.320458 -3.2395,-1.316172 -5.00998,-4.929313 -5.00998,-9.943526 0,-4.840156 1.49451,-7.650847 3.70653,-9.417064 3.18432,-2.530477 8.89909,-2.279982 8.89909,-2.279982 h 4.64485 v 4.296705 h -2.61113 c -1.94032,0 -3.96128,0.360888 -5.06518,1.770476 -1.04446,1.316182 -1.6049,2.458286 -1.6049,5.009976 0,3.349905 0.65385,4.844392 2.22478,5.982249 1.38836,1.014743 3.89336,1.235529 6.67431,1.235529 l 5.00574,-0.305697 V 24.316632"
           id="path3025"
           inkscape:connector-curvature="0" />
        <path
           d="m 341.24509,49.604301 c 1.98277,0 3.84665,-0.772732 5.24775,-2.16533 1.39685,-1.40534 2.16957,-3.269242 2.16957,-5.247752 0,-1.982757 -0.77272,-3.846648 -2.16957,-5.247731 -1.4011,-1.396867 -3.26498,-2.16534 -5.24775,-2.16534 -4.07167,0 -7.41307,3.324411 -7.41307,7.413071 0,1.97851 0.76424,3.842412 2.17807,5.247752 1.40534,1.392598 3.26074,2.16533 5.235,2.16533 z m -6.16907,-7.413082 c 0,-1.647341 0.6496,-3.197051 1.80869,-4.36039 1.17181,-1.163318 2.71304,-1.812926 4.36038,-1.812926 1.64735,0 3.2013,0.649608 4.36463,1.812926 1.15909,1.163339 1.80869,2.713049 1.80869,4.36039 0,3.400839 -2.76399,6.173316 -6.17332,6.173316 -1.64734,0 -3.18857,-0.649597 -4.36038,-1.808689 -1.15909,-1.167576 -1.80869,-2.713028 -1.80869,-4.364627"
           id="path3027"
           inkscape:connector-curvature="0" />
        <path
           d="m 344.90493,45.634529 c -0.1104,-0.04247 -0.19532,-0.169843 -0.24184,-0.360889 -0.034,-0.135865 -0.0639,-0.34391 -0.0723,-0.624135 l -0.034,-1.065677 c -0.017,-0.501001 -0.12331,-0.857642 -0.30161,-1.095406 -0.11447,-0.161338 -0.28872,-0.288709 -0.48827,-0.407596 0.24624,-0.161338 0.46703,-0.356642 0.62413,-0.60289 0.2082,-0.331169 0.31826,-0.751506 0.31826,-1.260991 0,-0.976519 -0.41184,-1.66434 -1.2143,-2.025228 -0.42457,-0.191216 -0.9383,-0.276138 -1.56667,-0.276138 h -3.83391 v 8.253736 h 1.42657 v -3.383861 h 2.25448 c 0.4076,0 0.7133,0.04247 0.88738,0.118888 0.29279,0.144349 0.45005,0.437315 0.46703,0.883103 l 0.0634,1.32043 c 0.017,0.322675 0.034,0.526483 0.0595,0.64536 0.0384,0.127371 0.0594,0.22927 0.10592,0.314192 l 0.0595,0.101888 h 1.59216 v -0.484044 l -0.10602,-0.05099 z m -1.65161,-5.315685 c 0,0.462788 -0.11887,0.768485 -0.34814,0.938327 -0.26323,0.174228 -0.62837,0.27172 -1.08692,0.27172 h -2.29694 v -2.335162 h 2.43705 c 0.32675,0 0.59865,0.04652 0.79397,0.139932 0.33964,0.169842 0.50098,0.501001 0.50098,0.985013"
           id="path3029"
           inkscape:connector-curvature="0" />
      </g>
    </g>
  </g>
</svg>
