<?xml version="1.0" encoding="UTF-8" standalone="no"?>
<svg
   xmlns:dc="http://purl.org/dc/elements/1.1/"
   xmlns:cc="http://creativecommons.org/ns#"
   xmlns:rdf="http://www.w3.org/1999/02/22-rdf-syntax-ns#"
   xmlns:svg="http://www.w3.org/2000/svg"
   xmlns="http://www.w3.org/2000/svg"
   xmlns:sodipodi="http://sodipodi.sourceforge.net/DTD/sodipodi-0.dtd"
   xmlns:inkscape="http://www.inkscape.org/namespaces/inkscape"
   version="1.1"
   id="Layer_2"
   x="0px"
   y="0px"
   width="469.81174"
   height="95.52079"
   viewBox="-1 -1 469.81173 95.520795"
   enable-background="new -1 -1 568.929 116.145"
   xml:space="preserve"
   sodipodi:docname="residualvm.svg"
   inkscape:version="1.0.1 (1.0.1+r73)"><metadata
   id="metadata95"><rdf:RDF><cc:Work
       rdf:about=""><dc:format>image/svg+xml</dc:format><dc:type
         rdf:resource="http://purl.org/dc/dcmitype/StillImage" /><dc:title /></cc:Work></rdf:RDF></metadata><defs
   id="defs93" /><sodipodi:namedview
   pagecolor="#ffffff"
   bordercolor="#666666"
   borderopacity="1"
   objecttolerance="10"
   gridtolerance="10"
   guidetolerance="10"
   inkscape:pageopacity="0"
   inkscape:pageshadow="2"
   inkscape:window-width="1366"
   inkscape:window-height="740"
   id="namedview91"
   showgrid="false"
   inkscape:pagecheckerboard="true"
   inkscape:zoom="1.9564162"
   inkscape:cx="198.94224"
   inkscape:cy="40.266093"
   inkscape:window-x="0"
   inkscape:window-y="0"
   inkscape:window-maximized="1"
   inkscape:current-layer="Layer_2"
   inkscape:document-rotation="0" />

<g
   id="g8"
   transform="matrix(1.0226894,0,0,1.0226894,-69.289554,-13.459048)"
   style="fill:#ffffff">
	<g
   id="g6"
   style="fill:#ffffff">
		<path
   d="m 110.903,77.172 c -3.131,-4.412 1.85,-7.685 6.831,-12.381 4.98,-4.697 5.977,-19.497 -3.558,-26.755 -9.535,-7.258 -31.024,-8.397 -39.421,-7.4 -8.396,0.996 -8.396,6.689 -7.685,14.089 0.712,7.4 0.657,20.912 -0.285,50.094 -0.285,8.823 5.266,6.974 11.243,7.116 5.977,0.142 7.542,-1.566 7.685,-5.55 0.142,-3.985 1.281,-9.82 5.55,-10.104 4.269,-0.285 6.689,5.407 8.823,10.673 2.135,5.266 5.266,4.981 17.505,4.554 12.24,-0.428 -3.557,-19.925 -6.688,-24.336 z M 91.691,65.218 c -7.685,-0.285 -7.827,-6.405 -7.685,-8.824 0.142,-2.419 2.704,-8.823 7.116,-8.681 4.27,0 6.974,1.281 8.396,5.692 1.423,4.412 -0.142,12.097 -7.827,11.813 z"
   id="path4"
   inkscape:connector-curvature="0"
   style="fill:#ffffff" />
	</g>
</g>
<g
   id="g14"
   transform="matrix(1.0226894,0,0,1.0226894,-67.966749,-11.949628)"
   style="fill:#ffffff">
	<g
   id="g12"
   style="fill:#ffffff">
		<path
   d="m 163.559,84.003 c -2.277,-3.559 -8.112,-1.708 -16.224,1.281 -3.843,1.28 -5.978,1.992 -6.832,0.427 -0.853,-1.565 3.558,-3.273 10.105,-5.267 6.546,-1.992 13.662,-5.834 14.374,-11.953 0.711,-6.12 -5.265,-14.374 -19.924,-14.943 -14.658,-0.569 -20.778,11.527 -23.055,18.216 -2.276,6.688 0.427,19.64 8.54,25.617 8.112,5.977 17.931,3.415 27.039,-1.139 9.108,-4.554 8.254,-8.681 5.977,-12.239 z M 138.37,73.045 c -2.277,-3.842 0,-7.4 2.703,-9.108 2.704,-1.708 7.828,-1.423 9.251,1.565 1.422,2.989 0,6.547 -3.131,7.97 -3.131,1.423 -7.685,1.423 -8.823,-0.427 z"
   id="path10"
   inkscape:connector-curvature="0"
   style="fill:#ffffff" />
	</g>
</g>
<path
   d="m 131.90562,58.678319 c 4.92936,3.76964 10.76994,4.65733 12.22625,2.47389 1.45528,-2.18344 2.91057,-8.15084 -2.18344,-12.22625 -5.093,-4.07542 -15.71772,-6.11262 -24.45148,-3.20204 -8.73275,2.91159 -12.80714,10.33325 -11.06039,16.44689 1.74573,6.11261 11.21072,8.86774 14.26243,10.33325 3.63873,1.74573 5.24026,3.0558 4.36688,4.36688 -0.87338,1.30905 -4.22064,-0.29146 -7.4237,-1.74675 -3.20102,-1.45631 -8.29606,-3.78395 -10.33326,-1.0186 -2.03719,2.76535 -3.78395,8.73172 3.49249,12.95339 7.27746,4.21961 17.17402,6.11261 25.61632,2.32764 8.44128,-3.78395 9.31466,-10.91619 7.42166,-15.71874 -1.89198,-4.80255 -8.44128,-8.00357 -12.5167,-10.47847 -4.07439,-2.47491 -7.27745,-3.49351 -6.5493,-5.23924 0.72816,-1.74676 4.65733,-1.16484 7.13224,0.72815 z"
   id="path16"
   inkscape:connector-curvature="0"
   style="fill:#ffffff;stroke-width:1.02269" />
<path
   d="m 150.09722,55.184819 c -0.87338,-3.34727 1.89299,-8.00562 6.98701,-8.4423 5.09299,-0.43669 9.02319,3.20204 8.73172,7.27745 -0.29044,4.07542 -1.89197,13.09963 -1.89197,19.066 0,5.96739 1.74675,11.06141 1.6005,14.11823 -0.14624,3.05682 -3.63975,5.5307 -8.15083,5.5307 -4.51211,0 -8.15083,-0.14624 -8.44128,-5.82115 -0.29146,-5.67694 1.31007,-14.40867 1.60051,-19.21224 0.29249,-4.80357 -0.28942,-9.60612 -0.43566,-12.51669 z"
   id="path18"
   inkscape:connector-curvature="0"
   style="fill:#ffffff;stroke-width:1.02269" />
<ellipse
   cx="158.17543"
   cy="34.953976"
   rx="8.9505768"
   ry="8.2960567"
   id="ellipse20"
   style="fill:#ffffff;stroke-width:1.02269" />
<g
   id="g26"
   transform="matrix(1.0226894,0,0,1.0226894,-67.966749,-11.949628)"
   style="fill:#ffffff">
	<g
   id="g24"
   style="fill:#ffffff">
		<path
   d="m 274.279,71.764 c 0.143,-8.823 2.135,-21.632 2.135,-30.74 0,-9.108 -4.98,-10.673 -9.393,-10.247 -4.412,0.427 -5.551,5.408 -4.696,11.812 0,9.82 -2.419,8.396 -5.266,8.539 -19.497,1.281 -22.913,11.669 -25.331,20.92 -2.42,9.25 0.853,18.073 6.403,24.336 5.55,6.261 21.063,5.977 22.201,4.695 1.138,-1.281 2.419,-3.131 4.127,-1.139 1.708,1.993 5.266,2.277 7.827,0.712 2.561,-1.565 3.7,-5.692 2.846,-8.396 -0.853,-2.703 -0.996,-11.669 -0.853,-20.492 z m -21.916,13.662 c -4.087,0 -7.4,-4.078 -7.4,-9.107 0,-5.031 3.313,-9.108 7.4,-9.108 4.087,0 7.4,4.077 7.4,9.108 0,5.029 -3.313,9.107 -7.4,9.107 z"
   id="path22"
   inkscape:connector-curvature="0"
   style="fill:#ffffff" />
	</g>
</g>
<path
   d="m 217.77573,74.105589 c 0.29044,-21.97657 0.29044,-21.5409 0.29044,-24.30626 0,-2.76637 4.51109,-8.004586 9.02319,-8.441277 4.51108,-0.436688 8.73275,-0.873377 8.73275,5.821147 0,6.69453 -0.29147,19.79416 -0.29147,22.26804 0,2.47491 4.22064,5.96739 4.65733,0.29045 0.43771,-5.67593 0.43771,-19.35645 0.58191,-23.1404 0.14624,-3.78395 3.92917,-5.384459 7.85936,-5.530703 3.9302,-0.145222 9.60613,1.45529 8.5865,8.004593 -1.01859,6.5493 -1.01859,12.95338 -1.01859,18.48306 0,5.53071 2.03719,13.09963 1.6005,17.9032 -0.43668,4.80153 -3.78395,7.13122 -7.27643,6.98497 -3.49351,-0.14522 -5.96739,-2.03719 -7.27643,-2.47388 -1.31007,-0.43669 -9.16944,4.94879 -16.44587,0.14522 -7.27746,-4.80153 -9.31466,-10.76994 -9.02319,-16.00816 z"
   id="path28"
   inkscape:connector-curvature="0"
   style="fill:#ffffff;stroke-width:1.02269" />
<g
   id="g34"
   transform="matrix(1.0226894,0,0,1.0226894,-67.966749,-11.949628)"
   style="fill:#ffffff">
	<g
   id="g32"
   style="fill:#ffffff">
		<path
   d="m 360.378,88.557 c -1.52,-9.115 -0.854,-15.085 -0.285,-21.631 0.569,-6.547 -2.277,-10.675 -8.254,-12.951 -5.978,-2.277 -18.358,-0.142 -22.771,5.266 -4.411,5.408 -7.542,16.082 -6.688,22.771 0.854,6.688 1.281,15.37 12.238,19.069 10.959,3.7 11.955,-2.419 14.374,-2.562 2.42,-0.143 3.7,3.131 6.546,3.273 2.847,0.143 5.979,-2.847 6.689,-5.835 0.713,-2.988 -1.422,-4.839 -1.849,-7.4 z M 342.02,85.995 c -3.853,0 -6.974,-4.174 -6.974,-9.321 0,-5.148 3.121,-9.321 6.974,-9.321 3.851,0 6.973,4.173 6.973,9.321 0,5.148 -3.122,9.321 -6.973,9.321 z"
   id="path30"
   inkscape:connector-curvature="0"
   style="fill:#ffffff" />
	</g>
</g>
<path
   d="m 326.64101,19.235236 c -3.20306,-9.024211 8.5865,-17.6107083 14.11721,-6.113637 5.5307,11.498096 21.83135,42.64513 24.16001,46.13863 2.32866,3.49249 5.09299,3.05478 4.65733,-4.65835 -0.43669,-7.71414 0.43669,-44.245632 0.43669,-47.5928953 0,-3.347259 3.20204,-7.859364 8.87898,-8.004586 5.67593,-0.146245 8.87899,3.347262 8.15084,11.6433153 -0.72816,8.296056 -2.18344,55.452266 -2.9116,67.387046 -0.72815,11.93377 -14.84638,26.342441 -26.05301,6.40306 -11.20663,-19.93835 -28.81734,-58.943724 -31.43645,-65.202583 z"
   id="path36"
   inkscape:connector-curvature="0"
   style="fill:#ffffff;stroke-width:1.02269" />
<path
   d="m 392.86219,23.602119 c -1.16484,-9.897587 2.47389,-13.6815383 6.25784,-14.1182263 3.78395,-0.436689 17.90218,14.7001373 25.76052,27.7987423 4.51211,6.549304 5.67593,8.586504 6.98599,-1.746754 1.31007,-10.333253 5.82115,-24.596701 8.00459,-29.1088073 2.18344,-4.512102 12.5167,-10.624717 14.84536,2.910574 2.32867,13.5363163 12.08103,51.8145613 13.09963,58.5080613 1.0186,6.69555 2.32866,13.53529 -2.18344,15.13683 -4.51211,1.60153 -11.93479,4.07541 -14.11823,-5.23924 -2.18242,-9.31466 -4.65733,-33.62091 -5.52968,-35.367668 -0.87338,-1.746757 -2.18344,-0.727132 -2.62013,3.783948 -0.43771,4.51211 -2.03822,21.24944 -2.62115,24.45148 -0.58294,3.20204 -7.85937,10.47848 -13.68052,-0.58191 -5.82115,-11.06038 -11.20561,-20.22982 -12.51465,-21.68613 -1.31006,-1.45528 -1.893,0.87338 -1.45631,4.07542 0.43669,3.20204 3.63975,16.44587 6.69453,23.72333 3.05682,7.27643 2.76535,16.00918 -3.34624,17.61071 -6.11364,1.60051 -10.62472,2.18344 -13.5353,-13.82779 -2.91159,-16.00713 -9.02421,-47.881292 -10.04281,-56.32257 z"
   id="path38"
   inkscape:connector-curvature="0"
   style="fill:#ffffff;stroke-width:1.02269" />
<path
   d="m 304.46911,29.278045 c 0,-4.754483 2.81342,-7.471768 7.37359,-7.374613 4.56119,0.09818 11.54821,0.485778 11.15856,7.084169 -0.38862,6.59737 -1.26098,30.951698 -1.06666,40.170218 0.19328,9.21852 0.38759,15.71874 0.38759,18.24171 0,2.52195 -2.13435,4.26871 -6.79168,4.26871 -4.65732,0 -9.31465,1.35813 -9.80043,-4.9488 -0.48577,-6.3059 0.29147,-24.3533 0.29147,-31.72791 0.001,-7.37564 -1.64858,-21.154335 -1.55244,-25.713484 z"
   id="path40"
   inkscape:connector-curvature="0"
   style="fill:#ffffff;stroke-width:1.02269" />
<path
   d="m -206.9839,-40.036841 c -0.74758,-7.32041 -0.66372,-13.849259 0.83043,-16.520524 1.49312,-2.671264 5.22798,-5.737287 16.93164,-4.451766 11.70366,1.28552 20.58367,2.769442 28.80098,6.924629 -11.53696,-3.856561 -30.21229,-5.044926 -37.01829,-4.451766 -6.806,0.594182 -9.04671,2.473885 -9.54476,18.499427 z"
   id="path42"
   inkscape:connector-curvature="0"
   style="fill:#fff8b6;stroke-width:1.02269" />
<path
   d="m -166.98457,-136.12942 c -0.79975,-24.84779 -2.18242,-40.87613 -5.4581,-46.48548 -3.27465,-5.60935 -8.36866,1.20525 -9.82395,10.01913 2.25605,-17.23353 7.93198,-18.83863 11.35287,-13.62352 3.4209,5.20949 3.78395,41.67584 3.92918,50.08987 z"
   id="path44"
   inkscape:connector-curvature="0"
   style="fill:#f9d84b;stroke-width:2.39993" />






<path
   d="m 149.83029,36.214947 c -0.0716,-4.584716 4.29325,-11.061408 12.0074,-8.004589 -5.60229,-1.527898 -11.56969,2.473885 -12.0074,8.004589 z"
   id="path58"
   inkscape:connector-curvature="0"
   style="fill:#ffffff;stroke-width:1.02269" />


<path
   d="m 207.61122,20.277356 c -2.62013,-0.58191 -6.5493,0.873377 -6.62294,7.714146 1.01962,-5.967392 4.14803,-7.49529 6.62294,-7.714146 z"
   id="path64"
   inkscape:connector-curvature="0"
   style="fill:#fff8b6;stroke-width:1.02269" />












</svg>
