<?xml version="1.0" encoding="UTF-8" standalone="no"?>
<svg
   xmlns:dc="http://purl.org/dc/elements/1.1/"
   xmlns:cc="http://creativecommons.org/ns#"
   xmlns:rdf="http://www.w3.org/1999/02/22-rdf-syntax-ns#"
   xmlns:svg="http://www.w3.org/2000/svg"
   xmlns="http://www.w3.org/2000/svg"
   xmlns:xlink="http://www.w3.org/1999/xlink"
   xmlns:sodipodi="http://sodipodi.sourceforge.net/DTD/sodipodi-0.dtd"
   xmlns:inkscape="http://www.inkscape.org/namespaces/inkscape"
   width="461.0437"
   height="200.05418"
   viewBox="0 0 100.71352 43.701825"
   version="1.1"
   id="svg14"
   sodipodi:docname="Rockstar_.svg"
   inkscape:version="0.92.5 (2060ec1f9f, 2020-04-08)">
  <metadata
     id="metadata20">
    <rdf:RDF>
      <cc:Work
         rdf:about="">
        <dc:format>image/svg+xml</dc:format>
        <dc:type
           rdf:resource="http://purl.org/dc/dcmitype/StillImage" />
        <dc:title></dc:title>
      </cc:Work>
    </rdf:RDF>
  </metadata>
  <defs
     id="defs18"><linearGradient
   id="linearGradient1708">
  <stop
     offset="0"
     style="stop-color:#fcff01;stop-opacity:1"
     id="stop1698" />
  <stop
     offset="0.24505855"
     style="stop-color:#ff720c;stop-opacity:1"
     id="stop1700" />
  <stop
     offset="0.48089126"
     style="stop-color:#b300e5;stop-opacity:1"
     id="stop1702" />
  <stop
     offset="0.78216583"
     style="stop-color:#31e1fd;stop-opacity:1"
     id="stop1704" />
  <stop
     offset="1"
     style="stop-color:#00bf19;stop-opacity:1"
     id="stop1706" />
</linearGradient>

	
	
	
	
<linearGradient
   x1="287.04117"
   y1="350.87671"
   x2="348.69205"
   y2="275.90128"
   id="linearGradient3545"
   xlink:href="#linearGradient3539"
   gradientUnits="userSpaceOnUse"
   gradientTransform="matrix(0.27391884,0,0,0.27391884,-74.12342,-68.696897)" />
<linearGradient
   id="linearGradient3539">
  <stop
     id="stop3541"
     style="stop-color:#bf0000;stop-opacity:1"
     offset="0" />
  <stop
     id="stop3547"
     style="stop-color:#bf0000;stop-opacity:1"
     offset="0.3747088" />
  <stop
     id="stop3543"
     style="stop-color:#fbe40a;stop-opacity:1"
     offset="1" />
</linearGradient>
<linearGradient
   x1="289.83875"
   y1="355.51709"
   x2="639.31293"
   y2="355.51709"
   id="linearGradient3555"
   xlink:href="#linearGradient3549"
   gradientUnits="userSpaceOnUse"
   gradientTransform="matrix(0.27391884,0,0,0.27391884,-74.12342,-68.696897)" />
<linearGradient
   id="linearGradient3549">
  <stop
     id="stop3551"
     style="stop-color:#bf0000;stop-opacity:1"
     offset="0" />
  <stop
     id="stop3557"
     style="stop-color:#fff20c;stop-opacity:1"
     offset="0.24505855" />
  <stop
     id="stop3559"
     style="stop-color:#0ce500;stop-opacity:1"
     offset="0.44498077" />
  <stop
     id="stop3561"
     style="stop-color:#31e1fd;stop-opacity:1"
     offset="0.64282119" />
  <stop
     id="stop3553"
     style="stop-color:#0019bf;stop-opacity:1"
     offset="1" />
</linearGradient>
</defs>
  <sodipodi:namedview
     pagecolor="#ffffff"
     bordercolor="#666666"
     borderopacity="1"
     objecttolerance="10"
     gridtolerance="10"
     guidetolerance="10"
     inkscape:pageopacity="0"
     inkscape:pageshadow="2"
     inkscape:window-width="1366"
     inkscape:window-height="743"
     id="namedview16"
     showgrid="false"
     inkscape:pagecheckerboard="true"
     inkscape:zoom="1.3368561"
     inkscape:cx="233.76568"
     inkscape:cy="82.207357"
     inkscape:window-x="0"
     inkscape:window-y="0"
     inkscape:window-maximized="1"
     inkscape:current-layer="svg14" />
  <path
     d="m 2.1726437,43.695385 c 0.318527,0 0.628315,-0.07475 0.929362,-0.224231 0.301048,-0.149493 0.548684,-0.350236 0.742908,-0.60223 v 0 l -0.553539,-0.602229 c -0.143726,0.183658 -0.308817,0.324605 -0.495272,0.422845 -0.186455,0.09823 -0.386506,0.147351 -0.600152,0.147351 -0.19034,0 -0.366113,-0.03737 -0.527319,-0.112117 C 1.5074253,42.650028 1.3675842,42.548588 1.2491071,42.420456 1.1306302,42.292322 1.0374029,42.13963 0.96942424,41.962379 c -0.067978,-0.177253 -0.10196708,-0.368385 -0.10196708,-0.5734 0,-0.209284 0.033017,-0.402552 0.099054,-0.579805 0.066036,-0.177251 0.15732174,-0.331013 0.27385624,-0.461281 0.1165341,-0.130268 0.2554045,-0.232775 0.4166114,-0.30752 0.161206,-0.07475 0.3330941,-0.112114 0.5156651,-0.112114 0.217531,0 0.423409,0.05232 0.617633,0.156961 0.194224,0.104647 0.363199,0.255201 0.506925,0.451671 v 0 l 0.571019,-0.62145 c -0.19034,-0.256264 -0.438947,-0.46021 -0.745821,-0.611834 -0.306874,-0.151629 -0.62346,-0.227438 -0.949756,-0.227438 -0.30299,0 -0.587529,0.05981 -0.8536157,0.179389 -0.2660872,0.119587 -0.496243,0.28189 -0.69046696,0.486904 -0.194224,0.205015 -0.3476613,0.449537 -0.4603113,0.733565 -0.1126497,0.28403 -0.16897459573,0.588345 -0.16897459573,0.912952 0,0.324602 0.0553509957,0.627858 0.16606089573,0.909752 0.1107079,0.281892 0.263174,0.525345 0.4573982,0.73036 0.19422426,0.205013 0.42437976,0.367319 0.69046706,0.486908 0.2660874,0.119591 0.5525684,0.179386 0.8594422,0.179386 z m 11.0416453,0.0064 c 0.302989,0 0.586557,-0.05979 0.850702,-0.179386 0.264145,-0.119592 0.492356,-0.282959 0.68464,-0.490112 0.192281,-0.207148 0.344748,-0.452739 0.457399,-0.736766 0.112652,-0.28403 0.168973,-0.586217 0.168973,-0.906548 0,-0.320335 -0.05632,-0.622517 -0.168973,-0.906544 -0.112651,-0.284033 -0.265118,-0.529622 -0.457399,-0.73677 -0.192284,-0.20715 -0.420495,-0.37052 -0.68464,-0.490112 -0.264145,-0.119592 -0.547713,-0.179386 -0.850702,-0.179386 -0.299106,0 -0.580731,0.05979 -0.844876,0.179386 -0.264146,0.119592 -0.492357,0.282962 -0.684641,0.490112 -0.192281,0.207148 -0.344747,0.452737 -0.457397,0.736769 -0.112649,0.284027 -0.168975,0.586208 -0.168975,0.906544 0,0.320331 0.05633,0.622517 0.168975,0.906546 0.11265,0.284028 0.265116,0.529618 0.457397,0.736767 0.192284,0.207152 0.420495,0.37052 0.684641,0.490112 0.264145,0.119593 0.54577,0.179386 0.844876,0.179386 z m 0,-0.852089 c -0.182569,0 -0.352517,-0.03737 -0.509837,-0.112117 -0.157323,-0.07475 -0.293279,-0.177249 -0.407873,-0.307519 -0.114591,-0.130271 -0.204906,-0.285099 -0.270942,-0.464486 -0.06604,-0.179392 -0.09906,-0.37159 -0.09906,-0.576602 0,-0.209283 0.03302,-0.402553 0.09906,-0.579803 0.06603,-0.177254 0.156351,-0.331014 0.270942,-0.461282 0.114594,-0.130271 0.25055,-0.232779 0.407873,-0.307523 0.15732,-0.07475 0.327268,-0.112117 0.509837,-0.112117 0.18257,0 0.353488,0.03737 0.512752,0.112117 0.159263,0.07475 0.296192,0.177252 0.410786,0.307523 0.114589,0.130268 0.204904,0.284028 0.270943,0.461282 0.06603,0.17725 0.09906,0.37052 0.09906,0.579803 0,0.205012 -0.03302,0.39721 -0.09906,0.576602 -0.06604,0.179387 -0.156354,0.334215 -0.270943,0.464486 -0.114594,0.13027 -0.251523,0.232775 -0.410786,0.307518 -0.159264,0.07475 -0.330182,0.112116 -0.512752,0.112116 z m 12.807144,0.781659 V 42.811259 H 23.7898 v -3.664621 h -0.844879 v 4.484674 z m 10.651253,0 v -0.820096 h -2.231638 v -3.664621 h -0.844871 v 4.484674 z m 10.732828,0 v -0.807279 h -2.31321 v -1.063511 h 1.509124 v -0.781614 h -1.509124 v -1.025068 h 2.289905 v -0.807242 h -3.134777 v 4.484678 z m 9.369376,0.06406 c 0.318531,0 0.628317,-0.07475 0.929362,-0.224234 0.30105,-0.149488 0.548685,-0.350232 0.742911,-0.602228 v 0 l -0.553538,-0.602228 c -0.143725,0.183659 -0.308818,0.324603 -0.495276,0.42284 -0.186455,0.09823 -0.386506,0.147352 -0.600153,0.147352 -0.190335,0 -0.366112,-0.03737 -0.527314,-0.112114 -0.16121,-0.07475 -0.30105,-0.176188 -0.419525,-0.304319 -0.118478,-0.128132 -0.211709,-0.280824 -0.279681,-0.458077 -0.06799,-0.177251 -0.101977,-0.368387 -0.101977,-0.5734 0,-0.209283 0.03302,-0.402552 0.09906,-0.579803 0.06603,-0.177254 0.157317,-0.331013 0.273854,-0.461281 0.116536,-0.130271 0.255403,-0.232778 0.416611,-0.307523 0.161205,-0.07475 0.333094,-0.112116 0.515664,-0.112116 0.217534,0 0.423409,0.05232 0.617632,0.156967 0.194225,0.104646 0.363203,0.255194 0.506928,0.451665 v 0 l 0.571015,-0.621445 c -0.190333,-0.256268 -0.438945,-0.460214 -0.745821,-0.61184 -0.30687,-0.151623 -0.623457,-0.227434 -0.949754,-0.227434 -0.30299,0 -0.587527,0.0598 -0.853614,0.179385 -0.266086,0.119593 -0.496243,0.281894 -0.690468,0.486909 -0.194223,0.205016 -0.347658,0.449534 -0.460309,0.733564 -0.112653,0.284028 -0.168978,0.588344 -0.168978,0.912952 0,0.324602 0.05535,0.627856 0.166061,0.909749 0.110712,0.281895 0.263175,0.52535 0.457401,0.730362 0.19422,0.205015 0.424377,0.367318 0.690464,0.486907 0.266091,0.119589 0.552567,0.179387 0.859443,0.179387 z m 11.175662,-0.06406 v -3.664622 h 1.369278 v -0.820054 h -3.589263 v 0.820053 h 1.375111 v 3.664621 z m 9.678193,0 V 39.14668 h -0.844874 v 4.484675 z m 9.730631,0.07047 c 0.30299,0 0.586558,-0.05979 0.850702,-0.179386 0.264145,-0.119591 0.49236,-0.28296 0.684641,-0.490111 0.192283,-0.207149 0.344746,-0.452739 0.457398,-0.736767 0.11265,-0.284029 0.168975,-0.586215 0.168975,-0.906548 0,-0.320335 -0.05633,-0.622516 -0.168975,-0.906543 -0.112652,-0.284031 -0.265115,-0.529621 -0.457398,-0.736769 -0.192281,-0.207149 -0.420496,-0.370519 -0.684641,-0.490112 -0.264144,-0.119592 -0.547712,-0.179385 -0.850702,-0.179385 -0.299106,0 -0.580728,0.05979 -0.844878,0.179385 -0.264141,0.119593 -0.49236,0.282963 -0.684635,0.490112 -0.192285,0.207148 -0.344752,0.452738 -0.457399,0.73677 -0.112653,0.284026 -0.168977,0.586208 -0.168977,0.906543 0,0.320333 0.05633,0.622518 0.168977,0.906547 0.112647,0.284028 0.265114,0.529618 0.457399,0.736767 0.192275,0.207152 0.420494,0.37052 0.684635,0.490111 0.26415,0.119593 0.545772,0.179386 0.844878,0.179386 z m 0,-0.852089 c -0.182567,0 -0.352519,-0.03737 -0.509836,-0.112117 -0.157323,-0.07475 -0.293279,-0.177247 -0.407874,-0.307517 -0.114591,-0.130271 -0.204903,-0.285098 -0.270944,-0.464485 -0.06603,-0.179393 -0.09905,-0.37159 -0.09905,-0.576603 0,-0.209283 0.03302,-0.402552 0.09905,-0.579803 0.06604,-0.177254 0.156353,-0.331013 0.270944,-0.461281 0.114595,-0.130272 0.250551,-0.232779 0.407874,-0.307523 0.157317,-0.07475 0.327269,-0.112117 0.509836,-0.112117 0.182568,0 0.35349,0.03737 0.512752,0.112117 0.159267,0.07475 0.296195,0.177251 0.410786,0.307523 0.114589,0.130268 0.204904,0.284027 0.27094,0.461281 0.06604,0.177251 0.09906,0.37052 0.09906,0.579803 0,0.205013 -0.03302,0.39721 -0.09906,0.576603 -0.06604,0.179387 -0.156351,0.334214 -0.27094,0.464485 -0.114591,0.13027 -0.251519,0.232776 -0.410786,0.307518 -0.159262,0.07475 -0.330184,0.112116 -0.512752,0.112116 z m 10.528898,0.781614 v -2.998325 l 2.080139,2.998327 h 0.745827 v -4.484675 h -0.792438 v 2.902228 l -2.027708,-2.902228 h -0.80408 v 4.484675 z"
     id="COLLECTION"
     inkscape:connector-curvature="0"
     style="fill:#ffffff;fill-rule:nonzero;stroke:none;stroke-width:0.26109254" />
  <path
     style="fill:#ffffff;stroke-width:0.18328622"
     d="m 39.666818,0.79290852 c -3.500767,0 -6.231799,2.65746828 -6.231799,6.02993478 V 29.642198 c 0,3.372466 2.694397,6.011823 6.158508,5.993499 h 25.678526 c 3.46411,0 6.176516,-2.621033 6.176516,-5.993499 h 0.01842 V 6.8228433 c 0,-3.390795 -2.676191,-6.02993478 -6.103644,-6.02993478 z m 6.309695,5.15002828 h 7.349585 c 2.730965,0 4.82043,0.6781746 4.82043,3.8123696 0,2.1994336 -1.081524,3.7756186 -3.445916,4.1055326 v 0.03686 c 1.118046,0.274929 1.539941,1.026232 1.539941,2.455864 0,1.08139 -0.05528,1.906329 -0.05528,2.749446 0,0.513202 0.128257,1.337788 0.458171,1.905976 h 0.549888 l 2.896028,-4.91173 0.788188,4.948584 h 4.967012 l -4.471986,3.134327 0.714479,4.930157 -3.88566,-2.987327 -5.20531,3.097472 2.437856,-5.223738 -2.822737,-2.987745 c -0.2016,-0.2566 -0.256308,-0.916147 -0.256308,-1.191078 0,-0.751473 0.109727,-1.539829 0.109727,-2.529574 0,-1.301331 -0.568283,-1.979266 -1.961258,-1.979266 h -2.602445 l -1.136633,5.37032 h -3.903668 z m 3.335771,3.0610359 -0.751753,3.5556433 h 3.1159 c 1.411303,0 2.6393,-0.439958 2.6393,-2.034548 0,-1.2463472 -1.081438,-1.5210953 -2.107839,-1.5210953 z m 10.392193,9.2011153 -2.089411,3.537216 h -3.317344 l 2.016121,2.126266 -1.668095,3.555643 3.628934,-2.162702 2.859591,2.217565 -0.531881,-3.628933 2.969318,-2.070984 h -3.298916 z"
     id="path8"
     inkscape:connector-curvature="0" />
</svg>
