<?xml version="1.0" encoding="UTF-8" standalone="no"?>
<svg
   xmlns:dc="http://purl.org/dc/elements/1.1/"
   xmlns:cc="http://creativecommons.org/ns#"
   xmlns:rdf="http://www.w3.org/1999/02/22-rdf-syntax-ns#"
   xmlns:svg="http://www.w3.org/2000/svg"
   xmlns="http://www.w3.org/2000/svg"
   xmlns:sodipodi="http://sodipodi.sourceforge.net/DTD/sodipodi-0.dtd"
   xmlns:inkscape="http://www.inkscape.org/namespaces/inkscape"
   width="498.14709"
   height="165.3857"
   viewBox="0 0 498.14709 165.3857"
   version="1.1"
   id="svg186"
   sodipodi:docname="satellaview.svg"
   style="fill:none"
   inkscape:version="1.0.1 (1.0.1+r73)">
  <metadata
     id="metadata192">
    <rdf:RDF>
      <cc:Work
         rdf:about="">
        <dc:format>image/svg+xml</dc:format>
        <dc:type
           rdf:resource="http://purl.org/dc/dcmitype/StillImage" />
        <dc:title />
      </cc:Work>
    </rdf:RDF>
  </metadata>
  <defs
     id="defs190" />
  <sodipodi:namedview
     pagecolor="#ffffff"
     bordercolor="#666666"
     borderopacity="1"
     objecttolerance="10"
     gridtolerance="10"
     guidetolerance="10"
     inkscape:pageopacity="0"
     inkscape:pageshadow="2"
     inkscape:window-width="1366"
     inkscape:window-height="740"
     id="namedview188"
     showgrid="false"
     inkscape:pagecheckerboard="true"
     inkscape:zoom="0.99915789"
     inkscape:cx="277.9375"
     inkscape:cy="77.5"
     inkscape:window-x="0"
     inkscape:window-y="0"
     inkscape:window-maximized="1"
     inkscape:current-layer="svg186"
     inkscape:document-rotation="0" />
  <path
     d="M 5.7674788,140.30694 H 43.44209 v 6.42144 H 5.7674788 Z"
     id="path94"
     inkscape:connector-curvature="0"
     style="fill:#ffffff;stroke-width:0.896599" />
  <path
     d="m 9.5552321,137.26478 h 5.8845559 v 17.44064 H 9.5552321 Z"
     id="path96"
     inkscape:connector-curvature="0"
     style="fill:#ffffff;stroke-width:0.896599" />
  <path
     d="m 34.244601,150.31118 v -13.0464 h 5.343369 v 12.50576 c 0,8.22629 -5.731148,15.61516 -17.450679,15.61516 H 9.6918731 v -7.16562 H 23.422475 c 7.213764,0 10.822126,-3.32997 10.822126,-7.9089 z"
     id="path98"
     inkscape:connector-curvature="0"
     style="fill:#ffffff;stroke-width:0.896599" />
  <path
     d="m 68.234837,152.16176 v 2.37868 c 0,2.42351 -1.581421,3.67964 -3.730568,3.67964 H 47.66507 v 7.16562 h 16.695743 c 4.916768,0 8.848084,-3.32011 8.848084,-8.0138 v -6.78815"
     id="path100"
     inkscape:connector-curvature="0"
     style="fill:#ffffff;stroke-width:0.896599" />
  <path
     d="m 50.059795,137.20022 h 30.60961 v 6.78725 h -30.60961 z"
     id="path102"
     inkscape:connector-curvature="0"
     style="fill:#ffffff;stroke-width:0.896599" />
  <path
     d="m 47.668566,146.66472 h 35.201093 v 6.4053 H 47.668566 Z"
     id="path104"
     inkscape:connector-curvature="0"
     style="fill:#ffffff;stroke-width:0.896599" />
  <path
     d="m 117.20921,152.16176 v 2.37868 c 0,2.42351 -1.5816,3.67964 -3.73075,3.67964 H 89.656731 v 7.16562 h 23.678279 c 4.91694,0 8.84763,-3.32011 8.84763,-8.0138 v -10.70718"
     id="path106"
     inkscape:connector-curvature="0"
     style="fill:#ffffff;stroke-width:0.896599" />
  <path
     d="m 86.600585,146.66472 h 35.583855 v 6.4053 H 86.600585 Z"
     id="path108"
     inkscape:connector-curvature="0"
     style="fill:#ffffff;stroke-width:0.896599" />
  <path
     d="m 89.089005,137.20022 h 31.087945 v 6.78725 H 89.089005 Z"
     id="path110"
     inkscape:connector-curvature="0"
     style="fill:#ffffff;stroke-width:0.896599" />
  <path
     d="m 151.26203,144.65723 h -22.45532 v 6.4053 h 22.45532 z"
     id="path112"
     inkscape:connector-curvature="0"
     style="fill:#ffffff;stroke-width:0.896599" />
  <path
     d="m 131.61576,137.1536 v 17.38684 c 0,2.42261 1.5816,3.67964 3.73074,3.67964 h 26.35732 v 7.16562 h -26.21386 c -4.91695,0 -8.84764,-3.32011 -8.84764,-8.0138 v -20.2192"
     id="path114"
     inkscape:connector-curvature="0"
     style="fill:#ffffff;stroke-width:0.896599" />
  <path
     d="m 161.71906,146.81983 h -32.91145 v 5.05323 h 32.91145 z"
     id="path116"
     inkscape:connector-curvature="0"
     style="fill:#ffffff;stroke-width:0.896599" />
  <path
     d="m 153.27131,137.26747 h 3.39541 v 7.48122 h -3.39541 z"
     id="path118"
     inkscape:connector-curvature="0"
     style="fill:#ffffff;stroke-width:0.896599" />
  <path
     d="m 158.34247,137.26747 h 3.39542 v 7.48122 h -3.39542 z"
     id="path120"
     inkscape:connector-curvature="0"
     style="fill:#ffffff;stroke-width:0.896599" />
  <path
     d="m 165.49464,158.89612 h 29.72942 v 6.48958 h -29.72942 z"
     id="path122"
     inkscape:connector-curvature="0"
     style="fill:#ffffff;stroke-width:0.896599" />
  <path
     d="m 168.52335,145.37631 h 19.92242 v 6.48958 h -19.92242 z"
     id="path124"
     inkscape:connector-curvature="0"
     style="fill:#ffffff;stroke-width:0.896599" />
  <path
     d="m 184.06409,145.37631 h 4.38168 v 16.69735 h -4.38168 z"
     id="path126"
     inkscape:connector-curvature="0"
     style="fill:#ffffff;stroke-width:0.896599" />
  <path
     d="m 196.64337,147.40441 h 34.49574 v 7.03023 h -34.49574 z"
     id="path128"
     inkscape:connector-curvature="0"
     style="fill:#ffffff;stroke-width:0.896599" />
  <path
     d="m 69.087681,88.73682 v 9.46764 h 24.826998 c 2.117766,0 4.042763,1.70891 4.042763,3.80695 l -28.222237,7.3826 c -1.983725,0.53078 -3.363231,2.32757 -3.363231,4.37988 v 3.09775 c 0,5.88258 4.771429,10.65249 10.65751,10.65249 l 22.551696,-9e-4 c 5.88438,0 10.65608,-4.76901 10.65608,-10.65159 V 99.38797 c 0,-5.88259 -4.7717,-10.65115 -10.65697,-10.65115 z m 29.061633,21.99581 v 3.71461 c 0,2.20922 -1.791404,3.99883 -4.00152,3.99883 H 81.83328 c -1.907514,0 -3.331043,-1.32338 -3.689593,-2.66021 z"
     id="path130"
     inkscape:connector-curvature="0"
     style="fill:#ffffff;stroke-width:0.896599" />
  <path
     d="m 130.4986,98.26453 h 8.22718 v -9.91809 h -8.22181 V 71.722426 H 118.68411 V 88.44094 h -4.90887 v 9.82359 h 4.90977 v 24.36507 c 0,2.76959 2.24688,5.01467 5.01826,5.01467 h 14.36083 v -9.92265 l -7.5655,-0.005 z"
     id="path132"
     inkscape:connector-curvature="0"
     style="fill:#ffffff;stroke-width:0.896599" />
  <path
     d="m 185.78018,127.45688 v -9.46718 h -27.63317 c -2.11866,0 -4.04366,-1.70892 -4.04366,-3.80696 l 28.22224,-7.38259 c 1.98417,-0.53079 3.36314,-2.32757 3.36314,-4.37989 v -3.09864 c 0,-5.88259 -4.7708,-10.6516 -10.65697,-10.6516 l -22.55215,7.2e-4 c -5.88438,1.8e-4 -10.65608,4.76829 -10.65608,10.65088 v 17.48367 c 0,5.88348 4.7717,10.65159 10.65787,10.65159 z m -31.86781,-21.99536 v -3.7155 c 0,-2.20832 1.79141,-3.99883 4.00063,-3.99883 h 12.31478 c 1.90796,0 3.33086,1.32338 3.6895,2.6611 z"
     id="path134"
     inkscape:connector-curvature="0"
     style="fill:#ffffff;stroke-width:0.896599" />
  <path
     d="m 191.83491,71.722426 h 11.4415 v 55.921844 h -11.4415 z"
     id="path136"
     inkscape:connector-curvature="0"
     style="fill:#ffffff;stroke-width:0.896599" />
  <path
     d="m 209.41363,71.722426 h 11.44149 v 55.921844 h -11.44149 z"
     id="path138"
     inkscape:connector-curvature="0"
     style="fill:#ffffff;stroke-width:0.896599" />
  <path
     d="m 227.67734,88.73682 v 9.46764 h 24.82682 c 2.11777,0 4.04276,1.70891 4.04276,3.80695 l -28.22223,7.3826 c -1.98418,0.53078 -3.36315,2.32757 -3.36315,4.37988 v 3.09775 c 0,5.88258 4.77081,10.65249 10.65698,10.65249 l 22.55214,-9e-4 c 5.88438,0 10.65608,-4.76901 10.65608,-10.65159 V 99.38797 c 0,-5.88259 -4.7717,-10.65115 -10.65787,-10.65115 z m 29.06056,21.99581 v 3.71461 c 0,2.20922 -1.79051,3.99883 -4.00063,3.99883 h -12.31478 c -1.90706,0 -3.33086,-1.32338 -3.6895,-2.66021 z"
     id="path140"
     inkscape:connector-curvature="0"
     style="fill:#ffffff;stroke-width:0.896599" />
  <path
     d="m 295.42344,128.01726 c -4.55382,0 -7.32073,-1.57533 -9.3569,-5.10075 L 268.67701,88.53536 h 12.85274 l 15.5004,29.94209 15.4995,-29.94209 h 12.85364 l -17.39043,34.38115 c -2.03618,3.52542 -4.80218,5.10075 -9.35601,5.10075 h -1.6067 z"
     id="path142"
     inkscape:connector-curvature="0"
     style="fill:#ffffff;stroke-width:0.896599" />
  <path
     d="m 328.49628,88.53536 h 11.44149 v 39.10891 h -11.44149 z"
     id="path144"
     inkscape:connector-curvature="0"
     style="fill:#ffffff;stroke-width:0.896599" />
  <path
     d="m 334.26858,84.473943 c 3.54964,0 6.42682,-2.875661 6.42682,-6.422964 0,-3.547214 -2.87718,-6.422875 -6.42682,-6.422875 -3.54963,0 -6.42682,2.875661 -6.42682,6.422875 0,3.547303 2.87719,6.422964 6.42682,6.422964 z"
     id="path146"
     inkscape:connector-curvature="0"
     style="fill:#ffffff;stroke-width:0.896599" />
  <path
     d="m 389.54299,127.45688 v -9.46718 h -27.63406 c -2.11777,0 -4.04277,-1.70892 -4.04277,-3.80696 l 28.22224,-7.38259 c 1.98417,-0.53079 3.36314,-2.32757 3.36314,-4.38078 v -3.09775 c 0,-5.88259 -4.7708,-10.6516 -10.65697,-10.6516 l -22.55215,7.2e-4 c -5.88438,9e-5 -10.65607,4.76829 -10.65607,10.65088 v 17.48367 c 0,5.88348 4.77169,10.65159 10.65786,10.65159 z m -31.8678,-21.99536 v -3.7155 c 0,-2.20832 1.7905,-3.99883 4.00062,-3.99883 h 12.31478 c 1.90707,0 3.33087,1.32338 3.68951,2.6611 z"
     id="path148"
     inkscape:connector-curvature="0"
     style="fill:#ffffff;stroke-width:0.896599" />
  <path
     d="m 405.93013,122.91651 c 2.03617,3.52542 4.80218,5.10075 9.35601,5.10075 h 1.6067 1.60671 c 4.55382,0 7.41487,-2.14287 8.97853,-5.57236 l 5.43429,-17.10352 5.43518,17.10352 c 1.56277,3.43038 4.42472,5.57236 8.97764,5.57236 h 1.60671 1.6067 c 4.55383,0 7.32073,-1.57533 9.35691,-5.09986 L 477.28504,88.53553 H 464.4323 l -15.5004,29.94192 -10.67939,-29.94192 v 0 -1.7e-4 h -10.67939 l -10.68028,29.94209 -15.4995,-29.94209 H 388.5397 Z"
     id="path150"
     inkscape:connector-curvature="0"
     style="clip-rule:evenodd;fill:#ffffff;fill-rule:evenodd;stroke-width:0.896599" />
  <path
     d="m 3.3145999,116.97923 v 11.03892 l 42.8948421,-0.006 c 14.13963,-0.22594 19.349137,-14.38503 14.549555,-24.7802 -2.75211,-5.95162 -9.351076,-8.27919 -14.768864,-8.45134 H 18.246142 c -0.78551,0.0108 -1.553447,-0.23401 -2.187073,-0.69755 -0.901799,-0.72804 -1.594242,-1.68291 -2.006498,-2.76601 -0.412167,-1.08219 -0.529621,-2.2553 -0.34008,-3.39837 0.161567,-1.11215 0.671104,-2.14467 1.455538,-2.949993 0.784434,-0.805325 1.803688,-1.342119 2.911973,-1.533632 0.890771,-0.17932 1.821441,-0.265662 2.732206,-0.265662 9.639153,-0.0199 24.069729,-0.01327 33.715518,-0.01327 h 2.080736 V 71.830556 l -40.847423,4.48e-4 C 8.0519405,71.831004 9.0725112e-8,79.367185 9.0725112e-8,88.7084 -9.3416927e-4,97.31055 7.2137642,105.08854 17.675009,105.08854 h 22.41945 c 1.31289,0.0242 2.60964,0.29408 3.822469,0.79708 2.645773,1.10281 4.021783,3.61419 3.543179,6.07176 -0.651469,3.33445 -2.499538,5.02185 -5.537483,5.02185 z"
     id="path152"
     inkscape:connector-curvature="0"
     style="fill:#ffffff;stroke-width:0.896599" />
  <path
     d="m 485.9946,79.566858 h 2.58489 v -1.515969 h -7.08582 v 1.515969 h 2.67904 v 7.321982 h 1.82189 z"
     id="path154"
     inkscape:connector-curvature="0"
     style="fill:#ffffff;stroke-width:0.896599" />
  <path
     d="m 496.33148,86.88884 h 1.81562 v -8.837951 h -2.64766 l -1.6614,6.76663 -1.64346,-6.76663 h -2.6629 v 8.837951 h 1.82189 v -7.143111 l 1.57981,7.143111 h 1.82188 l 1.57622,-7.17763 z"
     id="path156"
     inkscape:connector-curvature="0"
     style="fill:#ffffff;stroke-width:0.896599" />
  <path
     d="m 234.32203,138.3398 h 1.82817 v -1.07233 h -5.01109 v 1.07233 h 1.89541 v 5.17786 h 1.28751 z"
     id="path158"
     inkscape:connector-curvature="0"
     style="fill:#ffffff;stroke-width:0.896599" />
  <path
     d="m 241.632,143.51766 h 1.28393 v -6.25019 h -1.8721 l -1.17544,4.78514 -1.16109,-4.78514 h -1.88376 v 6.25019 h 1.28842 v -5.05144 l 1.11716,5.05144 h 1.28841 l 1.11447,-5.07565 z"
     id="path160"
     inkscape:connector-curvature="0"
     style="fill:#ffffff;stroke-width:0.896599" />
  <path
     d="m 0.39226202,27.08786 c 0,14.788679 11.50031298,26.985738 28.71151098,26.991566 H 191.19922 c 17.21111,-0.0058 28.71089,-12.202887 28.71089,-26.991566 0,-14.788678 -11.52668,-27.1256739 -28.68489,-27.087772903861 H 29.077503 C 11.918845,-0.0378099 0.39226202,12.299182 0.39226202,27.08786 Z M 7.1670963,27.0528 c 0,-11.267107 8.3636067,-20.3740929 21.9891277,-20.4003279 l 161.992786,0.0029 c 13.62561,0.02624 21.98909,9.1332739 21.98909,20.3974229 0,11.264238 -8.31416,20.444153 -21.99178,20.397441 H 29.156224 C 15.478252,47.499826 7.1670963,38.317042 7.1670963,27.052803 Z"
     id="path162"
     inkscape:connector-curvature="0"
     style="clip-rule:evenodd;fill:#ffffff;fill-rule:evenodd;stroke-width:0.896599" />
  <path
     d="m 195.8454,18.383053 c 0,-2.163045 1.75464,-3.917957 3.91813,-3.917957 2.1626,0 3.91814,1.754912 3.91814,3.917957 0,2.163044 -1.75554,3.918046 -3.91814,3.918046 -2.16349,0 -3.91813,-1.755002 -3.91813,-3.918046 z m 3.91813,3.171718 c 1.74927,0 3.16858,-1.419675 3.16858,-3.168849 0,-1.751954 -1.41931,-3.168759 -3.16858,-3.168759 -1.74926,0 -3.16858,1.419674 -3.16858,3.168759 0,1.749174 1.41932,3.168849 3.16858,3.168849 z"
     id="path164"
     inkscape:connector-curvature="0"
     style="clip-rule:evenodd;fill:#ffffff;fill-rule:evenodd;stroke-width:0.896599" />
  <path
     d="m 201.71364,17.412395 c 0,-0.830878 -0.61507,-1.250666 -1.85417,-1.250666 h -1.70264 v 4.340704 h 1.05888 v -1.778224 h 0.51555 l 0.83114,1.778224 h 1.17455 l -0.97102,-1.938536 c 0.59176,-0.148746 0.94771,-0.580189 0.94771,-1.151502 z m -1.98238,0.676304 h -0.51555 v -1.262231 h 0.46265 c 0.63569,0 0.9477,0.195279 0.9477,0.647165 0,0.431443 -0.29139,0.615066 -0.8948,0.615066 z"
     id="path166"
     inkscape:connector-curvature="0"
     style="clip-rule:evenodd;fill:#ffffff;fill-rule:evenodd;stroke-width:0.896599" />
  <path
     d="m 117.03168,34.827569 c 0,-0.950394 -0.006,-1.026157 -0.006,-1.026157 l 7.62647,-0.0059 c -1.33235,3.996678 -5.6961,6.943888 -10.8623,6.943888 -6.22688,0 -11.27293,-4.253196 -11.27293,-9.503409 0,-5.250213 5.04605,-9.506367 11.27293,-9.506367 6.22688,0 11.29625,4.349401 11.29625,9.599614 0,0.0089 -14.42089,0.003 -14.42089,0.003 0,0 -0.006,2.568217 -0.006,3.4953 0,3.095866 2.07294,3.783826 3.20444,3.783826 1.13061,0 3.16858,-0.68796 3.16858,-3.783826 z m -5.85927,-9.451046 c -0.48685,0.845402 -0.51913,1.836592 -0.50747,3.320373 l 6.38736,0.003 c 0.0117,-1.483871 -0.009,-2.474971 -0.49581,-3.323332 -0.59714,-1.043103 -1.69547,-1.538653 -2.69249,-1.545019 9e-4,0 9e-4,0 0.002,0 h -0.003 c 0,0 9e-4,0 9e-4,0 -0.99612,0.0064 -2.09445,0.501916 -2.69159,1.545019 z"
     id="path168"
     inkscape:connector-curvature="0"
     style="clip-rule:evenodd;fill:#ffffff;fill-rule:evenodd;stroke-width:0.896599" />
  <path
     d="m 141.11343,22.012574 c 2.86284,-0.08168 8.66921,1.792839 8.62886,8.494735 -0.006,1.189427 -0.004,9.212013 -0.004,9.212013 h -7.60495 c 0,0 0,-10.060285 0,-11.118541 0,-1.474994 -1.41125,-3.116308 -3.49853,-3.116308 -2.08459,0 -3.63481,1.641314 -3.63481,3.116308 0,0.723017 0.008,11.118541 0.008,11.118541 h -7.59957 l 0.006,-16.928411 7.59688,-0.0058 c 0,0 -0.009,1.361396 0,1.781183 1.46325,-1.396452 3.57385,-2.480888 6.10136,-2.553692 z"
     id="path170"
     inkscape:connector-curvature="0"
     style="fill:#ffffff;stroke-width:0.896599" />
  <path
     d="m 78.898085,22.012574 c 2.86266,-0.08168 8.669751,1.792839 8.628866,8.494735 -0.0058,1.189427 -0.003,9.212013 -0.003,9.212013 h -7.605667 c 0,0 0,-10.060285 0,-11.118541 0,-1.474994 -1.410978,-3.116308 -3.498259,-3.116308 -2.084323,0 -3.63517,1.641314 -3.63517,3.116308 0,0.723017 0.0087,11.118541 0.0087,11.118541 h -7.59984 l -0.003,-16.928411 7.605667,-0.0058 c 0,0 -0.0088,1.361396 0,1.781183 1.463428,-1.396452 3.571063,-2.480888 6.101444,-2.553692 z"
     id="path172"
     inkscape:connector-curvature="0"
     style="fill:#ffffff;stroke-width:0.896599" />
  <path
     d="m 173.79804,14.266768 h -7.55654 v 0 c 0,0 0,5.448451 0.006,9.366408 -1.22476,-0.68796 -2.51586,-1.34965 -4.33237,-1.510052 -5.51856,-0.483894 -9.73347,4.396114 -9.73347,8.86503 0,5.89155 4.54486,8.072168 5.23524,8.392792 2.57413,1.201083 5.87989,1.203953 8.80998,-0.635509 0,0.157442 0.003,0.979534 0.003,0.979534 h 7.56819 z m -7.50095,13.882038 v 3.025931 0 c 0,0 0.003,1.915314 0.003,3.002619 0,2.61493 -1.81023,3.300021 -3.00181,3.300021 -1.21579,0 -3.00002,-0.685091 -3.00002,-3.300021 0,-0.900723 0.003,-3.011316 0.003,-3.011316 0,0 -0.003,-2.14852 -0.003,-3.017234 0,-2.6178 1.78423,-3.285407 3.00271,-3.285407 1.18889,0 2.99643,0.667607 2.99643,3.285407 z"
     id="path174"
     inkscape:connector-curvature="0"
     style="clip-rule:evenodd;fill:#ffffff;fill-rule:evenodd;stroke-width:0.896599" />
  <path
     d="m 176.29148,31.145776 c 0,-5.250212 5.0075,-9.506366 11.18776,-9.506366 6.18025,0 11.18865,4.256154 11.18865,9.506366 0,5.250213 -5.0084,9.506367 -11.18865,9.506367 -6.17667,0 -11.18776,-4.256154 -11.18776,-9.506367 z m 14.2604,3.565325 c 0,-1.026157 0.003,-3.585677 0.003,-3.585677 l 0.004,0.0087 c -0.007,-0.552215 -0.007,-1.909756 -0.006,-2.949631 0,-0.239212 0,-0.461569 0,-0.65353 0,-2.687734 -1.60043,-3.792613 -3.12734,-3.792613 -1.52511,0 -3.12823,1.104879 -3.12823,3.792613 0,1.026157 -0.006,3.530267 -0.006,3.530267 0,0 -0.003,2.623717 -0.003,3.649874 0,2.69939 1.60043,3.812965 3.13631,3.812965 1.53408,0 3.12823,-1.113575 3.12823,-3.812965 z"
     id="path176"
     inkscape:connector-curvature="0"
     style="clip-rule:evenodd;fill:#ffffff;fill-rule:evenodd;stroke-width:0.896599" />
  <path
     d="m 53.302972,19.46462 v -5.2035 h 7.672733 v 5.2035 z"
     id="path178"
     inkscape:connector-curvature="0"
     style="fill:#ffffff;stroke-width:0.896599" />
  <path
     d="m 53.320455,39.724971 v -16.93128 l 7.65525,0.003 V 39.72506 Z"
     id="path180"
     inkscape:connector-curvature="0"
     style="fill:#ffffff;stroke-width:0.896599" />
  <path
     d="m 91.726978,39.72524 0.0027,-16.896313 h -4.16246 V 20.31603 l 4.166046,-0.003 -0.0063,-3.428234 H 99.3884 v 3.425365 h 4.14498 v 2.518725 H 99.3884 l 0.0054,16.896313 z"
     id="path182"
     inkscape:connector-curvature="0"
     style="fill:#ffffff;stroke-width:0.896599" />
  <path
     d="m 22.165444,39.724971 0.0029,-25.458203 h 7.932209 l 10.972664,17.753372 -0.0058,-17.753372 h 7.870971 V 39.724971 H 41.079014 L 30.048071,21.971599 v 17.753372 z"
     id="path184"
     inkscape:connector-curvature="0"
     style="fill:#ffffff;stroke-width:0.896599" />
</svg>
