<?xml version="1.0" encoding="UTF-8" standalone="no"?>
<svg
   xmlns:dc="http://purl.org/dc/elements/1.1/"
   xmlns:cc="http://creativecommons.org/ns#"
   xmlns:rdf="http://www.w3.org/1999/02/22-rdf-syntax-ns#"
   xmlns:svg="http://www.w3.org/2000/svg"
   xmlns="http://www.w3.org/2000/svg"
   xmlns:sodipodi="http://sodipodi.sourceforge.net/DTD/sodipodi-0.dtd"
   xmlns:inkscape="http://www.inkscape.org/namespaces/inkscape"
   width="490.73547"
   height="99.724655"
   viewBox="0 0 490.73547 99.724655"
   version="1.1"
   id="svg206"
   sodipodi:docname="saturn.svg"
   style="fill:none"
   inkscape:version="1.0.1 (1.0.1+r73)">
  <metadata
     id="metadata212">
    <rdf:RDF>
      <cc:Work
         rdf:about="">
        <dc:format>image/svg+xml</dc:format>
        <dc:type
           rdf:resource="http://purl.org/dc/dcmitype/StillImage" />
        <dc:title />
      </cc:Work>
    </rdf:RDF>
  </metadata>
  <defs
     id="defs210" />
  <sodipodi:namedview
     pagecolor="#ffffff"
     bordercolor="#666666"
     borderopacity="1"
     objecttolerance="10"
     gridtolerance="10"
     guidetolerance="10"
     inkscape:pageopacity="0"
     inkscape:pageshadow="2"
     inkscape:window-width="1366"
     inkscape:window-height="740"
     id="namedview208"
     showgrid="false"
     inkscape:pagecheckerboard="true"
     inkscape:zoom="1.0480809"
     inkscape:cx="262.77255"
     inkscape:cy="2.911647"
     inkscape:window-x="0"
     inkscape:window-y="0"
     inkscape:window-maximized="1"
     inkscape:current-layer="svg206"
     inkscape:document-rotation="0" />
  <path
     d="m 479.18332,73.009547 v -6.29222 h -2.31043 v -1.10115 h 6.00712 v 1.10115 h -2.61818 v 6.29222 z"
     id="path194"
     inkscape:connector-curvature="0"
     style="fill:#ffffff;stroke-width:0.924172" />
  <path
     d="m 483.49643,73.009547 v -7.39337 h 1.84835 l 1.84834,5.97763 1.84834,-5.97763 h 1.69401 v 7.39337 h -1.07851 v -6.29222 l -1.84834,6.29222 h -1.07759 l -2.00268,-6.29222 v 6.29222 z"
     id="path196"
     inkscape:connector-curvature="0"
     style="fill:#ffffff;stroke-width:0.924172" />
  <path
     d="m 477.79244,30.02353 c -0.21441,0.36523 -0.5277,0.60579 -0.91955,0.75625 -0.60533,0.23197 -1.15984,0.55423 -1.67922,0.9409 -0.37799,0.28354 -0.71808,0.61439 -1.01012,0.98812 -0.46394,0.5973 -0.71346,1.26751 -0.72178,2.02366 -0.004,0.1719 0,0.3437 0,0.5156 0,11.8539 0,23.707787 0,35.561687 0,0.30081 0.0176,0.60154 -0.008,0.90227 -0.0684,0.85504 -0.59332,1.21159 -1.41398,0.99681 -0.3133,-0.0813 -0.60164,-0.22772 -0.88074,-0.38668 -0.45099,-0.25775 -0.85486,-0.57575 -1.25872,-0.89367 -2.7069,-2.11811 -5.36205,-4.29648 -8.00888,-6.4876 -6.76679,-5.60261 -13.52064,-11.21381 -20.27911,-16.820667 -0.23197,-0.19334 -0.45469,-0.39527 -0.69128,-0.58001 -0.26247,-0.20193 -0.42142,-0.12892 -0.48149,0.20627 -0.0166,0.10739 -0.0259,0.21478 -0.0296,0.32217 -0.005,0.15036 -0.005,0.30082 -0.005,0.45118 0,6.118107 0,12.240567 0.005,18.358677 0,0.73047 -0.009,1.4565 0.12384,2.18262 0.15064,0.82492 0.54157,1.48228 1.21159,1.97634 0.5545,0.41246 1.1737,0.70894 1.80491,0.97963 0.19777,0.0859 0.39554,0.1633 0.59332,0.2535 0.2449,0.11173 0.42512,0.28788 0.53694,0.53278 0.24029,0.5241 0.19315,1.09561 -0.46024,1.40058 -0.51568,0.24066 -1.06557,0.32661 -1.61915,0.38668 -1.39272,0.14186 -2.78453,0.15045 -4.18557,0.0813 -1.52489,-0.073 -3.04607,-0.1719 -4.56264,-0.32651 -3.41944,-0.34805 -6.81854,-0.82067 -10.12616,-1.7917 -1.93799,-0.57141 -3.8196,-1.28894 -5.61619,-2.2169 -4.05527,-2.09667 -7.21317,-5.13858 -9.5467,-9.04839 -1.09052,-1.83023 -1.97588,-3.75935 -2.8178,-5.70565 -0.77815,-1.7916 -1.43986,-3.62627 -1.98512,-5.50382 -0.13308,-0.45534 -0.24029,-0.91511 -0.23197,-1.391987 0.0129,-0.67455 0.2791,-0.98387 0.94543,-1.07416 0.47687,-0.0647 0.9408,0.0471 1.40844,0.11173 0.4473,0.0647 0.88535,0.15896 1.32803,0.24066 1.24209,0.24056 2.44906,0.0906 3.57932,-0.45119 2.10526,-1.00965 3.49707,-2.65524 4.14953,-4.90227 0.10813,-0.36948 0.16358,-0.75616 0.19408,-1.13849 0.0943,-1.35345 0.12014,-2.70255 -0.10351,-4.04732 -0.1414,-0.87214 -0.36967,-1.71859 -0.73471,-2.52631 -0.95837,-2.10092 -2.59878,-3.29967 -4.84636,-3.71213 -0.29666,-0.0554 -0.5924,-0.11173 -0.89368,-0.12032 -1.46111,-0.0518 -2.92131,-0.0813 -4.3778,-0.0259 -0.32716,0.0129 -0.64045,0.073 -0.95375,0.15046 -0.77815,0.20193 -1.26334,0.69599 -1.46111,1.47368 -0.0776,0.31357 -0.13308,0.62724 -0.14602,0.95375 -0.0601,1.54678 -0.10721,3.08913 -0.11183,4.63592 -0.0213,6.87002 0.0176,13.744287 0.0906,20.614307 0.0129,1.28894 0.008,2.57789 0.0296,3.86683 0.0176,0.94524 0.12477,1.88614 0.38261,2.80135 0.0564,0.20618 0.12939,0.40812 0.20609,0.61005 0.29204,0.7605 0.80773,1.30188 1.57294,1.6112 0.43806,0.17615 0.87242,0.36089 1.31048,0.53704 0.48057,0.19333 0.92787,0.44249 1.29292,0.82491 0.28834,0.30073 0.49813,0.64443 0.53694,1.06982 0.073,0.78195 -0.42512,1.38774 -1.20697,1.4565 -0.23659,0.0213 -0.47317,0.009 -0.70884,0.009 -4.16802,-0.0342 -8.33511,-0.0859 -12.4985,-0.0945 -2.68565,0 -5.37037,0.0517 -8.05601,0.0859 -0.32254,0 -0.64046,0 -0.94543,-0.13318 -0.71254,-0.32226 -0.975,-0.99247 -0.64877,-1.7014 0.14602,-0.31791 0.37429,-0.57576 0.64045,-0.79913 0.36505,-0.30507 0.77723,-0.53279 1.21621,-0.71328 0.0813,-0.0305 0.15896,-0.0647 0.24029,-0.0859 1.30215,-0.34805 2.05813,-1.24597 2.50081,-2.4705 0.25784,-0.71319 0.40756,-1.4479 0.48519,-2.19547 0.073,-0.72612 0.12014,-1.45224 0.12014,-2.18686 -0.005,-8.73907 -0.005,-17.482287 0,-26.221267 0,-1.42646 -0.67003,-2.4533 -1.877,-3.1493 -0.64507,-0.36948 -1.35391,-0.53278 -2.084,-0.61439 -0.92418,-0.10314 -1.84373,-0.0859 -2.74572,0.17181 -1.13858,0.32651 -1.89455,1.04838 -2.29379,2.15683 -0.2329,0.63158 -0.31422,1.28894 -0.35304,1.9549 -0.0166,0.32226 -0.0129,0.64443 -0.0129,0.96668 0,7.12787 0.0564,14.259977 -0.0129,21.387747 -0.0425,4.74332 -2.09232,8.51126 -5.99325,11.23526 -1.74392,1.21584 -3.69484,1.98919 -5.74466,2.51772 -1.68846,0.4339 -3.4065,0.68315 -5.14209,0.80338 -1.11733,0.0776 -2.23003,0.11599 -3.34735,0.0906 -2.67641,-0.0601 -5.30568,-0.4082 -7.84992,-1.27609 -2.11359,-0.72178 -4.05157,-1.76157 -5.74004,-3.23525 -2.66808,-2.32005 -4.31311,-5.24598 -5.08664,-8.67881 -0.2791,-1.24172 -0.39924,-2.49619 -0.39924,-3.76795 0.004,-6.4619 0.004,-12.928057 0.004,-19.389957 0.13308,-0.65737 -0.22272,-1.05689 -0.73471,-1.35761 -0.33086,-0.19768 -0.67003,-0.38242 -1.01844,-0.54572 -1.84742,-0.88074 -3.78911,-1.49513 -5.78717,-1.92478 -2.01931,-0.43399 -4.05989,-0.70459 -6.12172,-0.80772 -0.34379,-0.0176 -0.68388,-0.0601 -1.02768,-0.0776 -0.19684,-0.009 -0.33917,0.10314 -0.36042,0.29214 -0.0259,0.23206 -0.0259,0.47262 -0.0259,0.70893 -0.005,6.35451 -0.008,12.71319 -0.0129,19.067707 0,4.0816 0.0259,8.15896 -0.005,12.24056 -0.0129,1.46075 0.56282,2.61227 1.55538,3.61333 0.50737,0.507 1.10439,0.88508 1.76148,1.16862 0.19777,0.0859 0.40016,0.15471 0.58869,0.25775 0.50737,0.27929 0.88998,0.6703 1.04894,1.24172 0.1414,0.507 -0.0342,0.9409 -0.48981,1.20299 -0.26709,0.15037 -0.55913,0.22772 -0.85948,0.24066 -0.23659,0.0129 -0.47225,0.0129 -0.70884,0.0129 -7.47563,-0.0176 -14.94756,-0.0471 -22.42319,-0.0555 -4.25397,0 -8.50701,0.0342 -12.75635,0.0517 -0.1719,0 -0.3438,0.0129 -0.51569,-0.009 -0.52863,-0.0564 -0.89737,-0.43399 -0.96669,-0.96244 -0.0989,-0.77769 0.3438,-1.53819 1.09607,-1.86035 0.15434,-0.0684 0.32623,-0.10314 0.48981,-0.15471 1.70972,-0.49406 2.55164,-1.6198 2.55626,-3.40705 0.004,-0.91521 -0.20239,-1.7831 -0.57206,-2.62086 -1.76517,-3.97857 -3.52294,-7.96129 -5.28811,-11.93985 -1.04432,-2.354417 -2.09325,-4.700337 -3.13664,-7.054757 -0.0601,-0.13752 -0.12477,-0.27069 -0.18946,-0.40821 -0.22272,0.073 -0.25322,0.28788 -0.33455,0.44684 -2.28178,4.30073 -4.55432,8.605797 -6.83148,12.910867 -1.05263,1.98928 -2.10157,3.98282 -3.1579,5.9721 -0.34379,0.64442 -0.63213,1.31472 -0.90291,1.99353 -0.0943,0.23631 -0.15896,0.48981 -0.23197,0.73472 -0.20979,0.70884 -0.0508,1.3576 0.33085,1.96774 0.26709,0.42106 0.61458,0.7691 0.97593,1.10846 0.2486,0.23631 0.49813,0.47262 0.73472,0.72187 0.21903,0.23631 0.3863,0.51125 0.48981,0.82491 0.18021,0.54988 0.0259,1.02685 -0.451,1.35336 -0.34379,0.23631 -0.73934,0.33945 -1.15152,0.36523 -0.23659,0.0176 -0.47317,0.0129 -0.70884,0.0129 -4.23271,0 -8.46449,0 -12.69628,0 -0.17189,0 -0.34379,0 -0.51568,0 -0.25323,0.009 -0.2791,0.0305 -0.29204,0.30073 -0.0564,0.98387 -0.0943,1.97209 -0.2024,2.95596 -0.47687,4.434 -2.10526,8.37383 -4.97944,11.79808 -1.55538,1.85176 -3.33349,3.46296 -5.25022,4.92805 -2.5997,1.98938 -5.37868,3.68616 -8.24084,5.2628 -1.67091,0.92417 -3.36769,1.79659 -5.08203,2.63851 -0.10812,0.0555 -0.25414,0.0647 -0.31421,0.20147 -0.30036,0 -0.60164,0 -0.902,0 -0.0129,-0.16266 -0.17189,-0.16728 -0.26616,-0.23567 -0.37799,-0.28834 -0.59701,-0.66633 -0.71346,-1.11732 -0.11645,-0.4473 0.0342,-0.97131 0.50275,-1.20697 0.11552,-0.061 0.22735,-0.12476 0.33917,-0.18484 4.76503,-2.71614 7.87949,-6.72427 9.41362,-11.9745 0.56744,-1.94205 0.88905,-3.92699 1.06095,-5.94205 0.12938,-1.49947 0.15526,-2.99894 0.1377,-4.50266 -0.0166,-1.72284 -0.26154,-3.41999 -0.57114,-5.1128 -0.54618,-3.00319 -1.34467,-5.93772 -2.45367,-8.78195 -0.63121,-1.6197 -1.39181,-3.17934 -2.09603,-4.76475 -1.68846,-3.77654 -3.38986,-7.544577 -5.05707,-11.329707 -0.52862,-1.19449 -0.90661,-2.45331 -1.29754,-3.69927 -0.70052,-2.22985 -1.30678,-4.48547 -1.74853,-6.77982 -0.31791,-1.64549 -0.58038,-3.29542 -0.56282,-4.97954 0.0638,-5.55963 1.72266,-10.57364 5.08664,-15.01613 1.81323,-2.39315 3.94437,-4.46828 6.2816,-6.341581 2.88712,-2.315791 6.0062,-4.274944 9.24542,-6.049447 0.99718,-0.545631 1.98512,-1.099857 3.02482,-1.55954 0.0776,-0.03419 0.0647,-0.09057 0.0342,-0.146112 0.25785,0 0.51569,0 0.77353,0 -0.008,0.223372 0.20609,0.184742 0.31792,0.240562 0.42604,0.223465 0.70514,0.554319 0.8336,1.009751 0.16358,0.58001 0,1.061227 -0.45561,1.439306 -0.18022,0.150362 -0.39093,0.262002 -0.5924,0.386673 -1.60713,1.009658 -3.08489,2.178274 -4.38242,3.566011 -2.13577,2.281407 -3.6052,4.945247 -4.51181,7.922647 -0.54526,1.79161 -0.87612,3.62193 -1.05263,5.48229 -0.1414,1.49947 -0.20979,2.99894 -0.22735,4.50266 -0.0296,3.15364 0.40386,6.24703 1.21991,9.28894 0.87242,3.2567 2.06275,6.40175 3.36491,9.50807 1.04339,2.49194 2.21247,4.92806 3.33349,7.385617 1.49069,3.25669 2.88341,6.55635 4.00906,9.95916 0.36874,1.12139 0.70884,2.24703 0.99256,3.3942 0.0425,0.18475 0.10258,0.36524 0.15433,0.54998 0.23659,-0.073 0.25785,-0.29222 0.3438,-0.45118 1.20697,-2.27282 2.40562,-4.55423 3.60889,-6.82705 4.93693,-9.306127 9.87293,-18.607927 14.81448,-27.909717 0.38168,-0.72187 0.77723,-1.43506 1.17277,-2.14824 0.24029,-0.43399 0.52863,-0.83351 0.88444,-1.18156 0.28002,-0.27069 0.5887,-0.4984 0.95005,-0.65302 0.64045,-0.27069 1.2541,-0.21912 1.84742,0.13743 0.39554,0.23631 0.6959,0.56716 0.96206,0.93665 0.31422,0.43824 0.54619,0.92371 0.76522,1.41352 1.80398,4.05591 3.61351,8.11174 5.4138,12.16756 3.6477,8.21053 7.28617,16.425397 10.93388,24.640187 0.53325,1.19874 1.38811,2.10951 2.59507,2.65949 0.88998,0.40386 1.83911,0.58435 2.81411,0.59295 1.0055,0.009 1.83078,-0.36949 2.45368,-1.18156 0.70052,-0.91086 1.11732,-1.92477 1.18571,-3.07195 0.0259,-0.45118 0.0129,-0.90227 0.0129,-1.35335 0,-9.81314 0,-19.626277 0,-29.443667 0,-0.19334 0.008,-0.38667 -0.005,-0.58001 -0.0296,-0.46403 -0.3133,-0.75616 -0.77354,-0.78194 -0.51476,-0.0305 -1.03045,-0.009 -1.54614,0.0259 -2.75865,0.18909 -5.42674,0.82926 -8.04769,1.65843 -1.20697,0.38242 -2.39268,0.82492 -3.54882,1.34051 -0.80311,0.35664 -1.58958,0.74757 -2.34093,1.21159 -0.36597,0.22772 -0.73934,0.43825 -1.16445,0.53279 -0.1682,0.0388 -0.3401,0.073 -0.50738,0.073 -0.57113,0 -0.9713,-0.37808 -1.02675,-0.94525 -0.0213,-0.23631 -0.0213,-0.47687 0.0601,-0.70033 0.0859,-0.24057 0.17652,-0.48547 0.29666,-0.70884 0.82436,-1.5296 1.5942,-3.08489 2.31135,-4.67031 0.36505,-0.81198 0.99719,-1.19865 1.88624,-1.19005 2.23372,0.0175 4.46837,0.0175 6.7021,0.0342 11.42924,0.0859 22.85293,0.0906 34.28124,0.0988 5.3066,0 10.61227,-0.0176 15.91425,-0.0388 0.79479,0 1.58958,-0.0388 2.38067,-0.0813 0.33085,-0.0176 0.64415,0.0176 0.94912,0.12892 0.73934,0.27069 0.94081,0.97528 0.46856,1.60686 -0.21071,0.27929 -0.48981,0.48122 -0.79479,0.64443 -0.26247,0.14186 -0.53694,0.27069 -0.80773,0.39961 -1.1127,0.53278 -1.81322,1.40927 -2.17827,2.57354 -0.24121,0.76485 -0.36135,1.54244 -0.37799,2.34158 -0.073,3.11492 -0.11182,6.22559 -0.0822,9.34051 0.0434,4.446837 0.0822,8.889337 0.12107,13.336177 0.008,1.03979 0.14971,2.05369 0.51938,3.02897 0.83361,2.20841 2.37605,3.74225 4.51551,4.6875 1.08682,0.48121 2.23465,0.75616 3.40742,0.90652 0.87242,0.11173 1.75316,0.1633 2.63389,0.13751 0.90662,-0.0259 1.79567,-0.15895 2.65885,-0.43399 1.65057,-0.52419 2.97768,-1.50372 3.9915,-2.90439 0.89829,-1.23303 1.45279,-2.62086 1.8049,-4.09455 0.23197,-0.96234 0.33918,-1.94196 0.33918,-2.93443 -0.008,-6.54776 -0.005,-13.099857 -0.005,-19.647717 0,-0.3437 0.0129,-0.6874 0.0259,-1.0311 0.0388,-1.03978 -0.0943,-2.05369 -0.46763,-3.03331 -0.50737,-1.31473 -1.40104,-2.25138 -2.72446,-2.7411 -0.54526,-0.20193 -0.90199,-0.56716 -1.15521,-1.05263 -0.22365,-0.42105 -0.10813,-0.79063 0.28741,-1.06123 0.32624,-0.22346 0.70884,-0.30507 1.09145,-0.35239 0.1719,-0.0213 0.34379,-0.0129 0.51569,-0.0175 12.90606,-0.0989 25.81675,-0.20203 38.72374,-0.30082 1.82616,-0.0129 3.65233,0.009 5.46925,0.18908 2.20415,0.21478 4.37781,0.58861 6.46181,1.39199 0.86411,0.3352 1.68847,0.74331 2.462,1.25031 1.98512,1.29754 3.32517,3.08489 3.99612,5.35336 0.69128,2.35017 0.79017,4.74332 0.25322,7.13212 -0.56744,2.52632 -1.92043,4.57142 -3.98688,6.131047 -2.02393,1.52525 -4.31403,2.35876 -6.83148,2.58648 -0.34379,0.0296 -0.68296,0.0601 -1.02675,0.0906 -0.0176,0 -0.0351,0.0176 -0.0518,0.0259 -0.0129,0.073 0.0296,0.11173 0.0813,0.15036 1.20789,0.80773 2.21709,1.83032 3.11076,2.96456 0.70422,0.89367 1.34098,1.83892 1.89086,2.83564 0.49351,0.90227 1.0092,1.79594 1.5674,2.65958 1.34559,2.07514 2.9823,3.87108 5.00162,5.31898 1.04801,0.75191 2.10526,1.48228 3.25216,2.07514 0.63213,0.3266 1.2809,0.60579 1.95093,0.83351 0.26154,0.0906 0.53232,0.16755 0.81604,0.1633 0.50737,0 0.79941,-0.19768 0.97962,-0.6788 0.0601,-0.15896 0.0906,-0.33086 0.11183,-0.49841 0.0213,-0.21487 0.0213,-0.42965 0.0213,-0.64452 0,-7.79373 0.0471,-15.5918 -0.0166,-23.385527 -0.0388,-4.48556 -1.70602,-8.36089 -4.84266,-11.5833 -0.451,-0.46403 -0.94543,-0.87214 -1.4565,-1.26741 -0.40756,-0.31791 -0.79017,-0.66171 -1.09145,-1.08701 -0.18853,-0.2621 -0.34379,-0.54138 -0.39924,-0.86789 -0.0943,-0.53704 0.11645,-0.91086 0.62289,-1.12999 0.2024,-0.0859 0.41218,-0.10738 0.62752,-0.11598 0.60995,-0.0305 1.19403,0.0906 1.77441,0.26635 3.91387,1.18155 7.6734,2.73259 11.23978,4.74765 2.8483,1.61111 5.53302,3.45003 8.07727,5.51232 5.95444,4.82917 11.86637,9.70566 17.75242,14.616527 0.16358,0.13751 0.33086,0.27494 0.50737,0.39526 0.15434,0.10739 0.28372,0.0305 0.30036,-0.16755 0.009,-0.12892 0.009,-0.25775 0.009,-0.38667 0,-6.015067 -0.005,-12.025787 0.004,-18.040857 0,-0.9409 -0.33455,-1.71425 -0.95837,-2.38021 -0.54988,-0.5886 -1.21529,-1.01825 -1.94169,-1.35335 -0.23196,-0.10739 -0.46393,-0.21913 -0.69128,-0.33945 -0.24952,-0.13318 -0.46023,-0.31792 -0.61457,-0.55857 -0.30128,-0.46394 -0.22827,-0.96669 0.18483,-1.33183 0.32161,-0.28363 0.71254,-0.38667 1.12564,-0.42105 0.19316,-0.0176 0.38631,-0.009 0.57946,0 3.58764,0.0859 7.17527,0.11598 10.75829,0 0.78277,-0.0259 1.35391,0.31792 1.71896,1.00532 -0.005,0.28362 -0.005,0.54138 -0.005,0.79913 z"
     id="path198"
     inkscape:connector-curvature="0"
     style="fill:#ffffff;stroke-width:0.924172" />
  <path
     d="m 162.42328,35.19668 c 0.26616,-0.009 0.43343,-0.18475 0.61457,-0.33086 0.31329,-0.25775 0.61365,-0.53703 0.92787,-0.79479 3.57839,-2.99468 7.66046,-4.9324 12.23142,-5.86895 1.71064,-0.3523 3.43792,-0.51994 5.17721,-0.58436 1.74484,-0.0601 3.47212,0.13752 5.19477,0.40821 1.33636,0.21053 2.65977,0.48113 4.00444,0.64443 0.64415,0.0776 1.2846,0.0859 1.92875,0.0342 0.67095,-0.0555 1.30678,-0.23631 1.89917,-0.56282 0.42974,-0.24065 0.87242,-0.46403 1.31048,-0.69174 0.26616,-0.13752 0.54526,-0.24057 0.84654,-0.30073 0.58408,-0.12467 1.05726,0.0554 1.44356,0.49832 0.28742,0.3266 0.46393,0.72187 0.60533,1.12998 0.28372,0.83351 0.56744,1.66277 0.83361,2.50053 0.85578,2.69822 1.69308,5.40068 2.55718,8.09455 0.13308,0.42105 0.1109,0.80348 -0.0647,1.18581 -0.19315,0.42105 -0.51569,0.61013 -0.97962,0.58435 -0.49444,-0.0305 -0.90662,-0.25784 -1.26335,-0.58001 -0.28372,-0.25784 -0.54156,-0.54997 -0.79479,-0.84211 -0.52031,-0.60154 -1.02213,-1.21593 -1.54706,-1.81313 -1.01382,-1.14717 -2.1219,-2.18687 -3.37231,-3.07195 -2.28178,-1.61979 -4.82048,-2.59932 -7.58375,-3.01178 -1.38719,-0.21053 -2.77529,-0.28363 -4.17541,-0.22347 -1.09607,0.0425 -2.17828,0.20193 -3.23553,0.51125 -2.47863,0.72613 -4.31404,2.23844 -5.49051,4.54139 -0.62751,1.23312 -1.02768,2.5435 -1.29384,3.89686 -0.31329,1.58108 -0.46393,3.18368 -0.54156,4.79488 -0.0859,1.82598 -0.10259,3.647707 -0.0896,5.473687 0.0129,2.16968 0.10258,4.33511 0.37799,6.49194 0.23197,1.81304 0.60533,3.59614 1.27166,5.30614 0.39092,1.00531 0.88074,1.95481 1.51657,2.82704 1.20327,1.65843 2.78822,2.78407 4.75209,3.35123 1.92875,0.55848 3.90093,0.66162 5.8648,0.2621 3.01187,-0.61439 4.86299,-2.48334 5.64484,-5.43506 0.3401,-1.28894 0.36597,-2.58214 0.0434,-3.88402 -0.6229,-2.48334 -2.19122,-4.02144 -4.63565,-4.68305 -0.47318,-0.12893 -0.96669,-0.19334 -1.4565,-0.27069 -0.28372,-0.0425 -0.54618,-0.12458 -0.77815,-0.28788 -0.78555,-0.54564 -0.76429,-1.64124 0.0434,-2.15684 0.25784,-0.1633 0.54156,-0.26209 0.85024,-0.27069 0.23658,-0.009 0.47317,-0.009 0.70884,-0.009 4.74747,0 9.49587,-0.0213 14.24334,0.0129 1.21159,0.009 2.10526,-0.46837 2.82704,-1.37489 0.27078,-0.33511 0.48057,-0.70893 0.68296,-1.08701 2.4315,-4.584357 4.86762,-9.168617 7.30374,-13.752977 1.37886,-2.59498 2.76235,-5.19006 4.14214,-7.78088 0.18021,-0.33936 0.36043,-0.68306 0.56652,-1.00966 0.31791,-0.51551 0.70514,-0.97528 1.21159,-1.31898 0.99256,-0.67881 2.00268,-0.58861 2.85754,0.25775 0.46393,0.45978 0.77722,1.0226 1.03507,1.61555 0.60626,1.37479 1.20327,2.74969 1.81322,4.12458 4.64489,10.49194 9.29348,20.979537 14.03633,31.424257 0.38261,0.83776 0.76984,1.67561 1.21621,2.48334 0.73934,1.34476 1.80029,2.33298 3.14958,3.03757 0.28372,0.15036 0.57576,0.29213 0.84192,0.46828 0.34842,0.22771 0.61458,0.53278 0.75228,0.93665 0.19685,0.56716 0.004,1.08276 -0.52031,1.36629 -0.22735,0.12458 -0.47687,0.19759 -0.73934,0.20193 -0.19315,0 -0.3863,0.009 -0.57945,0.009 -4.40368,0 -8.80829,0 -13.21197,0 -0.0425,0 -0.0859,0 -0.12846,0 -0.82898,0.0776 -1.49069,-0.63593 -1.13488,-1.66703 0.17189,-0.49415 0.51199,-0.83785 0.98886,-1.04838 0.13678,-0.0601 0.28372,-0.0944 0.42974,-0.13742 0.1414,-0.0425 0.29204,-0.0776 0.43344,-0.12033 1.33635,-0.42105 2.23465,-1.34051 2.30304,-3.05476 0.0342,-0.89367 -0.18022,-1.74872 -0.53233,-2.56504 -0.53787,-1.24162 -1.08313,-2.47475 -1.62839,-3.71212 -2.29934,-5.17287 -4.60145,-10.34583 -6.90079,-15.518787 -0.0859,-0.19334 -0.1756,-0.38233 -0.27079,-0.58427 -0.22272,0.0601 -0.2486,0.24916 -0.32161,0.38668 -1.47775,2.80985 -2.9518,5.619697 -4.42586,8.433897 -1.8428,3.51454 -3.68652,7.02898 -5.52932,10.54351 -0.33917,0.64877 -0.63121,1.31473 -0.89368,1.99354 -0.1072,0.27928 -0.18483,0.56716 -0.25322,0.86363 -0.15526,0.69166 0,1.31898 0.35673,1.90759 0.25785,0.4254 0.60164,0.77769 0.96669,1.11705 0.20609,0.18908 0.41218,0.37817 0.59701,0.58435 0.21903,0.24056 0.3863,0.51125 0.47687,0.82917 0.15896,0.53713 0,1.03119 -0.45931,1.36204 -0.32254,0.23631 -0.69221,0.33936 -1.08313,0.36089 -0.23659,0.0129 -0.47225,0.009 -0.70884,0.009 -5.32785,0 -10.65571,0.0176 -15.97894,0 -1.2846,0 -2.52576,0.1804 -3.73365,0.58426 -1.06558,0.35664 -2.16534,0.53713 -3.2688,0.69175 -2.0073,0.28363 -4.022,0.36089 -6.04132,0.26209 -5.50344,-0.26209 -10.58639,-1.83023 -15.17028,-4.92371 -0.55081,-0.37383 -1.07851,-0.78194 -1.61176,-1.17721 -0.22365,-0.16755 -0.451,-0.33085 -0.7301,-0.39527 -0.12014,-0.0305 -0.21902,0.0176 -0.26246,0.12883 -0.0638,0.15905 -0.0943,0.33085 -0.15896,0.48556 -0.36505,0.91512 -0.73472,1.83023 -1.10438,2.74544 -0.0166,0.0388 -0.0342,0.0776 -0.0508,0.11598 -0.48612,1.1128 -1.33266,1.63265 -2.54425,1.58967 -1.37424,-0.0517 -2.74479,-0.0906 -4.11996,-0.14177 -3.28636,-0.12457 -6.57364,-0.11598 -9.8563,-0.11598 -4.53214,0 -9.0652,0.0213 -13.59365,0.0601 -3.41574,0.0296 -6.83148,0.10739 -10.2426,0.15896 -0.53694,0.009 -1.07389,-0.0176 -1.61175,-0.0305 -0.10721,0 -0.21441,-0.0176 -0.32162,-0.0296 -0.42142,-0.0601 -0.81697,-0.18909 -0.95005,-0.64452 -0.14971,-0.51985 -0.12846,-1.0225 0.32716,-1.41352 0.19777,-0.16755 0.4168,-0.29648 0.64877,-0.41246 0.40756,-0.20193 0.8373,-0.32651 1.26704,-0.46403 1.05263,-0.3351 1.77441,-1.00965 2.13946,-2.05794 0.1377,-0.38668 0.22365,-0.78629 0.2449,-1.1944 0.0222,-0.40821 0.0434,-0.81632 0.0434,-1.22453 0.004,-7.53598 0.004,-15.07621 0,-22.612187 0,-0.77344 -0.005,-1.54678 -0.16727,-2.30719 -0.0647,-0.29648 -0.14233,-0.58436 -0.27079,-0.85505 -0.0823,-0.1718 -0.17651,-0.35229 -0.30959,-0.48546 -0.90662,-0.88943 -1.87792,-1.69281 -2.99894,-2.3072 -1.51287,-0.82492 -3.09321,-1.47803 -4.7216,-2.02791 -2.99524,-1.00966 -6.06257,-1.72719 -9.18165,-2.22134 -1.29384,-0.20618 -2.59508,-0.3523 -3.90093,-0.45109 -1.11733,-0.0813 -2.234648,-0.0647 -3.329798,0.21478 -0.43898,0.11173 -0.864098,0.25784 -1.250402,0.4984 -0.236588,0.14611 -0.473176,0.30082 -0.674646,0.48981 -0.846542,0.7777 -1.146897,1.73578 -0.885357,2.86143 0.167275,0.72187 0.494432,1.36629 0.924173,1.96784 0.54064,0.75615 1.202352,1.40058 1.920432,1.98493 1.43893,1.17296 3.041448,2.08808 4.713278,2.87862 0.67834,0.32225 1.37055,0.61013 2.06183,0.90226 3.47581,1.48654 6.69378,3.39846 9.57257,5.86037 1.49069,1.275997 2.82705,2.698117 3.91018,4.343697 0.96668,1.46509 1.69215,3.03332 2.02301,4.76475 0.4131,2.15249 0.30128,4.27495 -0.46394,6.34158 -0.68296,1.84751 -1.87699,3.30826 -3.45825,4.46403 -1.36685,0.99672 -2.88711,1.68421 -4.49425,2.18687 -1.78735,0.55857 -3.62183,0.88508 -5.48681,1.05697 -2.18659,0.20194 -4.37318,0.25341 -6.564398,0.11599 -1.07019,-0.0684 -2.14038,-0.18909 -3.205026,-0.30941 -1.130263,-0.12883 -2.264222,-0.24916 -3.402802,-0.24482 -1.224898,0 -2.449426,0.009 -3.673862,0.0555 -1.052632,0.0388 -2.092419,0.19334 -3.119266,0.4425 -0.167553,0.0388 -0.335105,0.0813 -0.498407,0.12032 -0.640174,0.1633 -1.185805,-0.0176 -1.662678,-0.45109 -0.223465,-0.20193 -0.399612,-0.44683 -0.545631,-0.71327 -1.594012,-2.87002 -3.230999,-5.71425 -4.769099,-8.6144 -0.532785,-1.00531 -1.069822,-2.00637 -1.5381,-3.04182 -0.163301,-0.36089 -0.249249,-0.73046 -0.201931,-1.12573 0.03438,-0.30073 0.115983,-0.58861 0.283536,-0.84636 0.292131,-0.44683 0.738968,-0.57576 1.233123,-0.37383 0.266346,0.10749 0.472529,0.29223 0.687399,0.46838 1.48228,1.24162 2.973155,2.46615 4.507003,3.64336 1.770068,1.36195 3.574606,2.67668 5.507975,3.80667 1.379234,0.80347 2.805602,1.48653 4.374015,1.83457 0.8373,0.18474 1.688462,0.30507 2.525762,0.48547 0.782774,0.16755 1.568319,0.24925 2.367729,0.21052 1.649648,-0.0813 3.222588,-0.48112 4.679088,-1.276 0.64415,-0.3523 1.23284,-0.78194 1.72727,-1.32757 0.78555,-0.86789 1.17278,-1.8819 1.09515,-3.06345 -0.0425,-0.63583 -0.25785,-1.21584 -0.56282,-1.76147 -0.33548,-0.6058 -0.76891,-1.13858 -1.25041,-1.62839 -0.70884,-0.72178 -1.50363,-1.34477 -2.33723,-1.92053 -1.37886,-0.95384 -2.835358,-1.77875 -4.322348,-2.54775 -2.783611,-1.43931 -5.46482,-3.05911 -8.175879,-4.63159 C 88.201842,48.24483 86.78832,47.2653 85.469249,46.1611 84.476781,45.33184 83.557322,44.43392 82.779723,43.39848 81.946212,42.29002 81.301695,41.08694 81.02241,39.71214 80.958,39.39847 80.906426,39.07621 80.884985,38.7583 c -0.163301,-2.88296 0.601452,-5.43506 2.680932,-7.51454 0.747562,-0.74756 1.606858,-1.35336 2.534912,-1.86036 1.594012,-0.87214 3.304008,-1.42211 5.078419,-1.7916 2.066911,-0.4339 4.162934,-0.61439 6.272814,-0.5972 2.51375,0.0213 5.026578,0.0518 7.535708,0.12033 2.44905,0.0684 4.89349,0.17615 7.33423,0.37373 1.37055,0.11174 2.7374,0.23632 4.09501,0.44684 0.54988,0.0859 1.10808,0.12458 1.66628,0.14611 1.78365,0.0601 3.56176,0.12458 5.34541,0.15037 10.59009,0.1633 21.17741,0.12892 31.7675,0.0305 0.85948,-0.009 1.71896,0.0259 2.57382,-0.0517 0.49443,-0.0425 0.93249,0.11164 1.32341,0.40386 0.3133,0.23197 0.57114,0.51985 0.78647,0.84211 0.24029,0.35655 0.42512,0.74322 0.5887,1.14283 0.61365,1.48653 1.23654,2.96881 1.86036,4.45109 0.0213,0.0342 0.0638,0.0813 0.0943,0.13752 z m -10.59934,14.350167 c 0.004,0 0.004,0 0.008,0 0,2.2341 0,4.46403 0,6.69813 0,0.3437 -0.008,0.68749 -0.14602,1.00965 -0.23659,0.56283 -0.70052,0.80773 -1.29754,0.66171 -0.48519,-0.11607 -0.93618,-0.33085 -1.29753,-0.67889 -0.7606,-0.73897 -1.62377,-1.33617 -2.50913,-1.89899 -1.50363,-0.95809 -3.08489,-1.77441 -4.72992,-2.46191 -1.26796,-0.52844 -2.5655,-0.97528 -3.91479,-1.25881 -0.27448,-0.0601 -0.54988,-0.0945 -0.82898,-0.0601 -0.47225,0.0601 -0.78185,0.36523 -0.85486,0.83351 -0.0213,0.14611 -0.0176,0.30072 -0.0176,0.45109 0,3.88402 0,7.77229 0,11.6563 0,0.21478 0.009,0.42965 0.0471,0.64018 0.24953,1.31473 1.06188,2.11811 2.31598,2.49619 0.70514,0.21052 1.43524,0.24925 2.16996,0.21921 1.20327,-0.0517 2.3973,-0.13752 3.59225,-0.30941 2.17366,-0.31367 4.29556,-0.82057 6.35369,-1.58542 2.22633,-0.82917 4.30572,-1.92902 6.13096,-3.46722 0.42974,-0.36089 0.84284,-0.73037 1.21621,-1.14708 0.54618,-0.60154 0.67926,-1.27175 0.30128,-2.01506 -0.0388,-0.0776 -0.0776,-0.15471 -0.11183,-0.23206 -0.99256,-2.23844 -1.59882,-4.58002 -1.77441,-7.01179 -0.15064,-2.07948 -0.0989,-4.163207 0.23566,-6.229847 0.34842,-2.15249 1.13027,-4.12892 2.462,-5.86895 0.0647,-0.0859 0.12938,-0.1719 0.19777,-0.2535 0.15896,-0.1804 0.16358,-0.37808 0.0989,-0.60145 -0.12938,-0.46837 -0.36135,-0.84645 -0.74766,-1.16871 -2.75865,-2.2986 -5.87311,-3.92265 -9.29717,-4.97528 -2.14408,-0.65737 -4.34361,-1.00966 -6.58288,-1.12139 -1.09514,-0.0518 -2.19121,-0.0471 -3.27804,0.0906 -0.59701,0.073 -1.18109,0.20194 -1.73097,0.45969 -0.83823,0.39102 -1.33635,1.04838 -1.50363,1.9549 -0.073,0.40386 -0.10351,0.80773 -0.10351,1.21593 -0.005,3.64762 -0.008,7.29967 -0.0129,10.94729 0,0.0425 0,0.0859 0.005,0.12892 0.0259,0.57576 0.26616,0.80772 0.85023,0.79488 0.25785,0 0.50737,-0.0518 0.7606,-0.11608 1.99344,-0.49831 3.8538,-1.30179 5.63283,-2.31579 1.8086,-1.0311 3.5442,-2.18252 5.25484,-3.37267 0.2828,-0.19759 0.57114,-0.38243 0.85856,-0.56717 0.21903,-0.13742 0.45561,-0.24056 0.70514,-0.30497 0.51939,-0.13327 0.93619,0.0388 1.19403,0.5069 0.0906,0.16765 0.15064,0.35239 0.20609,0.53713 0.12939,0.43825 0.13308,0.88933 0.13308,1.34042 0.009,2.1268 0.009,4.25351 0.009,6.380297 z"
     id="path200"
     inkscape:connector-curvature="0"
     style="fill:#ffffff;stroke-width:0.924172" />
  <path
     d="m 20.030972,67.538357 c -1.457143,-1.64318 -2.635185,-3.28626 -3.565272,-5.08442 -0.155076,-0.27901 -0.31006,-0.217 -0.527055,-0.15508 -2.07717,0.52706 -4.15434,0.9921 -6.2935209,1.11612 -2.077198,0.12403 -4.1233613,0.0314 -6.0455287,-0.96104 -2.232181,-1.17814 -3.34827511,-3.06927 -3.56529351,-5.54947 -0.2480205,-2.94525 0.8680719,-5.42545 2.72822451,-7.62664 1.9841701,-2.356177 4.4333745,-4.216347 7.0686337,-5.797517 1.8291209,-1.11603 3.7513069,-2.07717 5.6113889,-3.13128 0.434084,-0.24796 0.837115,-0.55802 1.085163,-0.713 0.775011,0.68204 1.643086,1.39513 2.449149,2.17014 2.170234,2.10822 4.278363,4.27836 6.417544,6.41755 0.837116,0.837107 1.643179,1.674127 2.449242,2.511247 0.620027,0.65099 0.620027,0.62003 1.612126,0.12393 C 25.270382,46.82859 21.116042,42.86028 16.899691,38.79891 c 0.403032,-0.62002 0.837116,-1.33311 1.333119,-2.07716 0.837115,0.86807 1.643178,1.70519 2.449241,2.54221 3.4723,3.56527 6.913548,7.09958 10.385848,10.633887 0.216996,0.217 0.403032,0.31006 0.682039,0.15499 0.403032,-0.18595 0.806063,-0.34102 1.395131,-0.55802 C 28.30869,45.03042 23.534232,40.59708 18.697853,36.16373 c 0.527056,-0.62003 1.023059,-1.20909 1.42609,-1.67414 0.837116,0.77501 1.674139,1.4881 2.480202,2.26321 3.813319,3.78226 7.657691,7.53357 11.439958,11.34689 0.62012,0.65108 1.116123,0.74405 1.829215,0.31006 0.185943,-0.0931 0.403031,-0.15498 0.682039,-0.27901 -0.403032,-0.40303 -0.775104,-0.74405 -1.147083,-1.08516 -2.201193,-1.89113 -4.402387,-3.78227 -6.60358,-5.70445 -2.356178,-2.10813 -4.681395,-4.21635 -7.037572,-6.32448 -0.186036,-0.15508 -0.372072,-0.34102 -0.496096,-0.52706 -0.371979,-0.52705 -0.309967,-0.80606 0.155076,-1.24014 0.403032,-0.37198 0.806063,-0.713 1.240055,-1.08508 0.06201,0.0619 0.124023,0.0619 0.186035,0.12403 4.526411,4.68139 9.083782,9.36279 13.641153,14.07514 0.372071,0.37207 0.713091,0.71309 1.116123,1.05411 0.09297,0.093 0.279007,0.18604 0.371979,0.12403 0.651079,-0.24805 1.333118,-0.4961 2.04621,-0.80607 -5.487458,-5.17749 -11.346987,-9.82783 -16.648409,-15.19126 0.589067,-0.40303 1.147082,-0.77511 1.73615,-1.17814 1.271106,1.30216 2.480201,2.57327 3.720348,3.81332 3.937251,3.99936 7.874594,7.99871 11.811938,11.96702 0.09297,0.093 0.341019,0.18603 0.465043,0.12402 0.682039,-0.24805 1.364079,-0.52706 2.04621,-0.7751 C 37.454391,40.28711 31.78099,35.07866 26.045485,29.8082 c 0.712999,-0.34102 1.364078,-0.68204 2.046117,-0.9921 0.09306,-0.0314 0.31006,0.0931 0.434084,0.21699 1.643086,1.70519 3.255304,3.41029 4.86743,5.08443 3.410288,3.56536 6.882496,7.13064 10.323836,10.69591 0.248048,0.27901 0.465044,0.34102 0.806063,0.18603 0.68204,-0.31006 1.395131,-0.55801 2.201194,-0.86807 C 40.988703,38.82997 35.28425,33.55951 29.486733,28.22703 c 0.651079,-0.21699 1.240146,-0.43399 1.829214,-0.55801 0.123931,-0.0314 0.341019,0.12402 0.465043,0.24804 2.945245,2.94525 5.859437,5.92145 8.804682,8.8667 2.232153,2.2632 4.495359,4.49536 6.727604,6.7276 0.216996,0.217 0.37198,0.24796 0.650987,0.12403 0.589068,-0.24805 1.209095,-0.46505 1.953238,-0.74415 -5.673493,-5.27037 -11.254015,-10.44786 -16.958468,-15.74928 0.837115,-0.12402 1.581166,-0.24805 2.325217,-0.34102 0.124024,0 0.248048,0.18604 0.371979,0.31006 3.937344,3.99926 7.90574,7.99862 11.842991,11.99797 1.023151,1.02306 2.015157,2.07717 3.038309,3.16224 0.216995,0.217 0.403031,0.27901 0.682039,0.15499 0.527055,-0.217 1.08507,-0.40303 1.73615,-0.62003 -5.20845,-4.9604 -10.385848,-9.95176 -15.594298,-14.97427 0.806063,0 1.550114,0 2.325217,0 0.123932,0 0.247956,0.12402 0.371979,0.21709 4.371428,4.43335 8.773722,8.80468 13.052085,13.30004 0.806063,0.83711 1.457143,1.17813 2.480201,0.62012 0.279008,-0.15508 0.62012,-0.21709 0.96114,-0.31006 -4.650435,-4.49536 -9.269818,-8.95976 -13.858148,-13.42416 1.240054,0.24805 2.449149,0.37207 3.441248,1.39513 3.720347,3.84437 7.564627,7.59568 11.346987,11.409 0.247955,0.24805 0.433991,0.24805 0.744051,0.18604 2.790168,-0.77511 5.580429,-1.4882 8.494714,-1.64318 1.488102,-0.093 2.976204,0.0314 4.402294,0.46504 2.976297,0.89904 4.743407,3.16224 4.991455,6.35554 0.248048,3.2553 -0.899035,6.014507 -3.038216,8.432697 -1.705191,1.89113 -3.720348,3.41029 -5.921542,4.61938 -2.387229,1.33312 -4.86743,2.51116 -7.316579,3.75131 -0.124024,0.0619 -0.372072,0.0314 -0.496096,-0.093 -1.73615,-1.76721 -3.4723,-3.53432 -5.177398,-5.36353 -1.891133,-2.01516 -3.720348,-4.03032 -5.549469,-6.07643 -0.279008,-0.31006 -0.496004,-0.40303 -0.868075,-0.18604 -0.34102,0.18604 -0.744051,0.27901 -1.209095,0.496 4.216351,4.09233 8.339731,8.1537 12.525029,12.21507 -0.309967,0.496 -0.620027,1.02306 -0.992098,1.64308 -0.588975,-0.62002 -1.085071,-1.20909 -1.674138,-1.73615 -3.84428,-3.53422 -7.34754,-7.37859 -10.850892,-11.25392 -0.248048,-0.27901 -0.465043,-0.30997 -0.806063,-0.18594 -0.589067,0.24795 -1.178042,0.496 -1.891134,0.74405 4.805419,4.52632 9.703809,8.83573 14.633252,13.17611 -0.496096,0.62002 -0.992099,1.20909 -1.581167,1.89113 -1.612126,-1.58117 -3.193292,-3.13128 -4.712354,-4.68139 -3.069269,-3.13129 -6.138537,-6.26257 -9.176846,-9.42481 -0.341019,-0.37207 -0.650987,-0.496 -1.085071,-0.21699 -0.248047,0.15498 -0.527055,0.21699 -0.868075,0.37198 5.084427,4.89848 10.137893,9.76582 15.191267,14.66421 -0.682039,0.62012 -1.333119,1.20919 -1.953146,1.7672 -0.744051,-0.71309 -1.457142,-1.33312 -2.139181,-2.04621 -4.185299,-4.30932 -8.339731,-8.6497 -12.49407,-12.95902 -0.682039,-0.71309 -0.712999,-0.68213 -1.705098,-0.15508 5.332474,5.14644 10.633896,10.26192 15.966277,15.43932 -0.650986,0.46504 -1.302066,0.93009 -2.077169,1.45714 -0.526963,-0.55811 -0.992007,-1.11612 -1.519062,-1.64318 -4.743407,-4.65034 -9.486813,-9.26972 -14.199168,-13.92016 -0.372071,-0.37198 -0.682131,-0.496 -1.147175,-0.21699 -0.154983,0.093 -0.371979,0.15498 -0.650987,0.279 5.735414,5.27047 11.408907,10.47892 17.144413,15.71833 -0.806063,0.43408 -1.612127,0.83711 -2.449242,1.24014 -0.09297,0.0619 -0.371979,-0.0931 -0.465043,-0.21708 -1.798162,-1.79817 -3.565272,-3.59624 -5.332382,-5.3944 -3.348276,-3.31731 -6.665592,-6.66559 -10.013868,-9.98281 -0.806063,-0.77511 -0.806063,-0.77511 -1.891134,-0.15508 5.580429,5.39449 11.129899,10.75792 16.77234,16.18336 -0.712999,0.24805 -1.364078,0.49601 -2.046117,0.68204 -0.124024,0.0314 -0.31006,-0.12402 -0.434084,-0.24795 -3.16224,-3.10032 -6.355533,-6.20055 -9.517773,-9.26982 -2.108129,-2.04621 -4.247311,-4.03031 -6.32448,-6.10748 -0.403032,-0.40304 -0.775103,-0.52706 -1.271107,-0.24805 -0.09306,0.0619 -0.186036,0.093 -0.403031,0.15498 5.642441,5.33248 11.22287,10.6339 16.927416,16.02838 -1.085163,0.18604 -2.077262,0.37198 -3.069268,0.52706 -0.124024,0.0314 -0.2791,-0.12402 -0.403032,-0.24805 -3.007256,-2.94524 -5.983553,-5.89049 -8.99081,-8.80477 -1.860081,-1.79807 -3.751307,-3.53422 -5.642441,-5.30142 -0.31006,-0.30997 -0.620027,-0.58907 -0.899035,-0.93009 -0.2791,-0.37198 -0.589067,-0.43399 -1.023151,-0.0619 5.20845,5.14644 10.4169,10.26192 15.718322,15.50133 -0.682039,0.0314 -1.240054,0.0619 -1.829122,0.0619 -0.620027,0 -1.240147,-0.0619 -1.891134,-0.093 -0.403031,-0.0314 -0.744143,-0.18603 -1.023151,-0.49609 -4.55737,-4.52632 -9.145701,-9.02177 -13.703164,-13.51713 -0.309967,-0.30997 -0.620027,-0.65108 -1.11603,-0.18604 4.619382,4.77446 9.455761,9.33183 14.292139,13.92016 -0.03096,0.0619 -0.03096,0.12403 -0.06201,0.15508 -1.45705,-0.40303 -2.945245,-0.74405 -4.402295,-1.2091 -0.868075,-0.279 -1.70519,-0.71309 -2.573265,-1.05411 -0.247955,-0.093 -0.527055,-0.15498 -0.806063,-0.12402 -4.526318,0.7751 -9.083782,1.36408 -13.672112,1.51915 -1.116123,0.0314 -2.232153,0.0314 -3.3173159,-0.0314 -1.612108,-0.12402 -2.790206,-1.51906 -2.790206,-3.1932 0.031006,-1.58116 1.271107,-2.97629 2.88327,-3.06927 1.4570499,-0.0619 2.9452439,-0.0314 4.4022939,-0.0931 1.891226,0.0619 3.844372,-0.12393 5.921542,-0.30997 z M 60.117313,46.23952 c 0.589068,0.65108 1.178135,1.2711 1.73615,1.92218 0.620028,0.74406 0.34102,1.643177 0.465044,2.604227 -0.216996,-0.217 -0.34102,-0.31006 -0.465044,-0.43399 -1.08507,-1.08517 -2.139181,-2.201197 -3.224252,-3.286357 -0.124024,-0.12393 -0.279007,-0.27901 -0.372072,-0.24795 -0.620027,0.15498 -1.209094,0.37198 -1.860173,0.58906 0.217088,0.18595 0.310059,0.27901 0.434083,0.40303 1.705098,1.457047 3.379236,2.945247 5.084426,4.402297 0.247956,0.21709 0.37198,0.43408 0.309968,0.7751 -0.06201,0.34102 -0.06201,0.65108 -0.09297,1.08507 0.682039,-0.37198 1.271107,-0.713 1.829122,-1.05411 0.806063,-0.496 1.612126,-0.992 2.325217,-1.61212 0.930087,-0.77501 1.798162,-1.64309 2.635277,-2.542217 0.588975,-0.65098 0.929995,-1.42609 0.961047,-2.35617 0,-1.2091 -0.154984,-1.42609 -1.39513,-1.55012 -0.216996,-0.0314 -0.433992,-0.0619 -0.65108,-0.0619 -2.604225,0.0619 -5.177398,0.68204 -7.719611,1.36408 z m -46.379862,2.23224 c -1.116123,0.775007 -2.108222,1.426087 -3.069268,2.139187 -1.4881209,1.11603 -2.9142389,2.32521 -3.9373256,3.93734 -0.1860081,0.30997 -0.3720255,0.62003 -0.4960402,0.96105 -0.3100228,0.89903 0.1240147,1.58116 1.0230864,1.61212 0.8370695,0.0314 1.7051445,0.0619 2.5112445,-0.0619 1.4570499,-0.18603 2.8832319,-0.496 4.3713349,-0.77501 -0.527056,-2.57326 -0.65108,-5.11548 -0.403032,-7.812667 z m 35.838938,1.364077 c 3.720348,3.31732 7.409644,6.57253 11.09894,9.85889 0.06201,-0.15508 0.124023,-0.2791 0.186035,-0.40313 0.248048,-0.46495 0.186036,-0.80606 -0.248047,-1.17804 -0.868075,-0.7751 -1.705098,-1.61213 -2.542213,-2.41819 -2.139182,-2.07717 -4.247311,-4.15434 -6.386493,-6.20055 -0.124024,-0.12402 -0.341019,-0.24805 -0.465043,-0.21699 -0.558016,0.12402 -1.054111,0.34102 -1.643179,0.55801 z m 12.122091,6.32457 c 0.371979,-0.71309 0.247955,-1.2711 -0.372072,-1.73615 -0.496003,-0.37207 -0.899035,-0.80606 -1.333119,-1.2711 -1.581166,-1.64318 -3.13128,-3.31732 -4.712354,-4.960397 -0.124024,-0.12403 -0.341019,-0.2791 -0.465043,-0.24805 -0.589068,0.15498 -1.178135,0.40303 -1.798162,0.62003 2.914192,2.573257 5.797425,5.084417 8.68075,7.595667 z M 15.318617,42.33323 c -0.06201,0.0314 -0.09306,0.0314 -0.155076,0.0619 0.06201,0.18603 0.09306,0.40303 0.186036,0.52705 0.837115,0.86808 1.674138,1.73615 2.511253,2.60423 2.170142,2.17014 4.371335,4.309317 6.541477,6.479547 0.217088,0.217 0.372071,0.55802 0.589067,0.62003 0.279008,0.0619 0.589067,-0.18604 0.868075,-0.27901 0.03105,0 0.03105,-0.0619 0.124024,-0.15507 C 22.449161,48.90564 18.883889,45.61938 15.318617,42.33311 Z m -0.930087,3.16224 c -0.2791,0.52705 0.185944,0.71309 0.37198,0.93008 2.201193,2.44925 4.433347,4.867427 6.665592,7.285617 0.06201,0.093 0.248048,0.15499 0.37198,0.12403 0.2791,-0.0619 0.558107,-0.18604 0.806063,-0.27901 -2.759209,-2.69729 -5.487458,-5.363427 -8.215615,-8.060717 z m 0.03096,5.301507 c -0.03096,0.0314 -0.06201,0.0619 -0.09297,0.093 0.03096,0.0619 0.06201,0.12403 0.09297,0.15499 1.147083,1.30216 2.325218,2.63527 3.4723,3.93734 0.06201,0.0619 0.216996,0.12402 0.34102,0.093 0.248048,-0.0619 0.527055,-0.15498 0.806063,-0.24795 -1.550114,-1.39513 -3.069269,-2.72825 -4.619383,-4.03032 z"
     id="path202"
     inkscape:connector-curvature="0"
     style="fill:#ffffff;stroke-width:0.924172" />
  <path
     d="m 49.576389,29.65321 c 5.487458,-0.713 10.819932,-0.96104 16.183366,-0.52705 0.527055,0.0314 1.054111,0.0931 1.581166,0.21709 1.705098,0.37198 2.759209,1.9841 2.449241,3.65824 -0.310059,1.64318 -1.860174,2.7593 -3.596324,2.54221 -3.069268,-0.37198 -6.138537,-0.37198 -9.207805,-0.24795 -0.124024,0 -0.216996,0.0314 -0.371979,0.0619 0.588975,0.80606 1.147082,1.55011 1.705097,2.32512 -3.13128,-2.38713 -5.797517,-5.27037 -8.742762,-8.02967 z"
     id="path204"
     inkscape:connector-curvature="0"
     style="fill:#ffffff;stroke-width:0.924172" />
</svg>
