<?xml version="1.0" encoding="UTF-8" standalone="no"?>
<svg
   xmlns:dc="http://purl.org/dc/elements/1.1/"
   xmlns:cc="http://creativecommons.org/ns#"
   xmlns:rdf="http://www.w3.org/1999/02/22-rdf-syntax-ns#"
   xmlns:svg="http://www.w3.org/2000/svg"
   xmlns="http://www.w3.org/2000/svg"
   xmlns:sodipodi="http://sodipodi.sourceforge.net/DTD/sodipodi-0.dtd"
   xmlns:inkscape="http://www.inkscape.org/namespaces/inkscape"
   width="500"
   height="200"
   viewBox="0 0 500 200"
   version="1.1"
   id="svg220"
   sodipodi:docname="scummvm.svg"
   style="fill:none"
   inkscape:version="0.92.5 (2060ec1f9f, 2020-04-08)">
  <metadata
     id="metadata226">
    <rdf:RDF>
      <cc:Work
         rdf:about="">
        <dc:format>image/svg+xml</dc:format>
        <dc:type
           rdf:resource="http://purl.org/dc/dcmitype/StillImage" />
        <dc:title></dc:title>
      </cc:Work>
    </rdf:RDF>
  </metadata>
  <defs
     id="defs224" />
  <sodipodi:namedview
     pagecolor="#ffffff"
     bordercolor="#666666"
     borderopacity="1"
     objecttolerance="10"
     gridtolerance="10"
     guidetolerance="10"
     inkscape:pageopacity="0"
     inkscape:pageshadow="2"
     inkscape:window-width="1366"
     inkscape:window-height="740"
     id="namedview222"
     showgrid="false"
     inkscape:pagecheckerboard="true"
     inkscape:zoom="0.52713222"
     inkscape:cx="554"
     inkscape:cy="150.5"
     inkscape:window-x="0"
     inkscape:window-y="0"
     inkscape:window-maximized="1"
     inkscape:current-layer="svg220" />
  <path
     d="m 327.56032,135.27874 c 2.13302,-19.55271 -1.33314,-36.794636 -14.48678,-42.038316 -6.57682,-2.62184 -14.22015,-2.9329 -20.61922,-0.97763 -0.53148,0.14931 -1.0945,0.42971 -1.67664,0.719 -0.97497,0.48527 -2.00415,0.99764 -3.03378,0.96964 -0.72834,-0.0262 -1.63976,-0.38705 -2.60896,-0.77144 -0.68612,-0.27196 -1.40157,-0.55548 -2.10147,-0.73945 -1.68864,-0.44438 -3.46616,-0.88876 -5.33255,-0.84432 -0.93676,0 -1.90373,0.21419 -2.86758,0.42749 -1.04785,0.23197 -2.0917,0.46305 -3.08711,0.41683 -1.04385,-0.064 -2.06725,-0.39328 -3.10977,-0.72878 -1.13139,-0.36439 -2.28544,-0.7359 -3.51149,-0.78211 l -0.016,-4.5e-4 c -5.19657,-0.17775 -11.63119,-0.39772 -15.98167,1.28915 -0.64701,0.25863 -1.37891,0.9332 -2.13791,1.63265 -1.06473,0.98119 -2.18279,2.01126 -3.19464,2.01126 -0.89054,0.0271 -2.15791,-0.81454 -3.32441,-1.5891 -0.75455,-0.50126 -1.46689,-0.97408 -2.00815,-1.16605 -6.13244,-2.26634 -12.79813,-2.5774 -18.75282,-1.06651 -0.65902,0.16886 -1.36958,0.48571 -2.10458,0.81366 -1.19805,0.53414 -2.46053,1.09717 -3.67236,1.09717 -0.77455,0 -1.62376,-0.37506 -2.51341,-0.76744 -0.64168,-0.28352 -1.30425,-0.57592 -1.97482,-0.74345 -1.64421,-0.44438 -3.64391,-0.84432 -5.33256,-0.84432 -1.04073,-0.0218 -2.12413,0.21063 -3.18753,0.4386 -1.11584,0.23908 -2.21035,0.47415 -3.21153,0.40572 -1.00564,-0.0644 -2.01171,-0.39639 -3.03201,-0.73323 -1.09895,-0.36305 -2.21523,-0.73145 -3.36706,-0.77766 -2.54097,-0.11065 -5.44765,0.0231 -8.16459,0.14798 -0.5617,0.0258 -1.11539,0.0516 -1.6562,0.0742 -0.75723,0.0195 -1.57355,0.17464 -2.38277,0.3284 -1.04296,0.19774 -2.07392,0.39372 -2.94979,0.29373 -0.93942,-0.12354 -1.83795,-0.71501 -2.70227,-1.28426 -0.68968,-0.45371 -1.35758,-0.89364 -2.00815,-1.07095 -4.48824,-1.2887 -16.70868,-0.75545 -20.7081,0.44438 -0.5137,0.15953 -1.16161,0.58702 -1.86195,1.04962 -1.05673,0.69768 -2.23301,1.47445 -3.24841,1.52778 -0.80611,0.0462 -1.73131,-0.31373 -2.71383,-0.69545 -0.91409,-0.35551 -1.8775,-0.72968 -2.84092,-0.81544 -4.97705,-0.48882 -16.17542,-0.39994 -19.64158,1.06651 -0.65235,0.27951 -1.39891,1.04429 -2.16991,1.8344 -1.0674,1.09317 -2.18235,2.23523 -3.16265,2.20946 -0.64879,0 -1.64198,-0.79544 -2.5454,-1.51889 -0.3955,-0.31685 -0.77367,-0.61991 -1.09851,-0.83633 -8.53209,-5.46587 -23.329932,-5.77693 -32.617467,-1.51089 -1.066956,0.47993 -1.9846,1.11673 -2.8978,1.75041 -1.369134,0.95009 -2.728491,1.89351 -4.567779,2.29345 2.308108,-10.55802 -4.55267,-14.49656 -11.525431,-18.49886 -0.27596,-0.15847 -0.552364,-0.31707 -0.828324,-0.4762 -5.065928,-2.88847 -11.020571,-4.71042 -16.841945,-5.11037 -15.242223,-1.11095 -26.485029,5.77694 -30.751074,15.33115 -3.5550377,8.04327 -2.3996506,18.575066 1.288701,24.974136 0.246986,0.42527 0.714251,0.99452 1.239641,1.63487 1.176185,1.43312 2.643438,3.22131 2.582024,4.542 -0.03333,0.79989 -0.816547,1.59977 -1.599767,2.39965 -0.261073,0.26663 -0.522146,0.53326 -0.755445,0.79989 -0.51788,0.62124 -1.07971,1.26292 -1.654515,1.91927 -2.137933,2.44098 -4.4561236,5.08771 -5.3666842,7.67933 -2.2663363,6.39906 2.5774021,11.55387 5.9546882,14.70896 6.576819,6.13244 16.708676,10.88731 29.417935,10.04299 8.443169,-0.5777 15.242178,-3.37729 20.263668,-7.24339 0.399498,-0.31374 0.922533,-0.86565 1.495782,-1.47046 1.212268,-1.27936 2.648948,-2.79559 3.614585,-2.79559 1.093618,-0.0298 2.304997,1.39535 3.386173,2.66717 0.544365,0.64035 1.055402,1.2416 1.502003,1.59888 9.465287,7.46558 27.684851,9.50972 38.394401,2.35521 1.00697,-0.67146 1.88106,-1.46023 2.74716,-2.2419 1.19716,-1.08028 2.37832,-2.14635 3.8741,-2.86847 5.82137,6.35463 14.53121,11.90938 26.04065,10.88731 0.84521,-0.0751 1.72997,-0.32485 2.65117,-0.58481 1.25848,-0.35506 2.58451,-0.72967 3.97009,-0.7039 1.00829,0 1.98771,0.28574 2.94668,0.5657 0.73189,0.21375 1.45223,0.42394 2.16368,0.50082 4.66599,0.44437 10.22073,0.3555 15.15335,-0.22219 0.88254,-0.10488 1.78507,-0.4586 2.69783,-0.81589 1.01763,-0.3986 2.04859,-0.80255 3.0791,-0.87276 0.62569,-0.024 1.2776,0.0951 1.9415,0.21686 0.5617,0.10265 1.13228,0.20708 1.70242,0.22752 4.31048,0.22219 9.50972,0.17775 13.64245,-0.22219 0.7319,-0.0595 1.46423,-0.25107 2.17658,-0.43727 0.88787,-0.23196 1.74507,-0.45638 2.53385,-0.40705 0.8461,0.0724 1.73219,0.42127 2.6285,0.77455 0.75145,0.29552 1.51001,0.59458 2.25967,0.73634 4.35493,0.79989 11.59831,1.02208 15.99767,0.62213 1.63576,-0.16575 3.05645,-0.82521 4.37714,-1.43801 1.1545,-0.53548 2.23257,-1.03585 3.31063,-1.13939 2.35788,-0.23374 4.95883,0.28396 7.65355,0.81988 2.94269,0.58569 5.99691,1.19361 8.96625,0.86876 0.77722,-0.084 1.54422,-0.37639 2.29211,-0.66168 0.83455,-0.31817 1.6451,-0.62702 2.41832,-0.62702 0.78522,-0.024 1.6602,0.24575 2.55562,0.52126 0.77678,0.23908 1.56911,0.48349 2.33255,0.54525 4.53268,0.39995 10.35405,0.22219 14.70897,-0.22219 0.70834,-0.0764 1.37536,-0.2604 2.01882,-0.43771 0.85054,-0.23419 1.6602,-0.45727 2.46941,-0.40661 0.84966,0.0729 1.67309,0.43772 2.48453,0.79678 0.67324,0.29862 1.33847,0.59324 2.00371,0.71411 2.21523,0.45105 4.77175,0.44794 7.28383,0.44483 0.2093,0 0.41816,-4.5e-4 0.62613,-4.5e-4 1.17183,0 2.31566,0.0338 3.42439,0.0671 3.09644,0.092 5.91869,0.17553 8.30723,-0.51149 0.64435,-0.17553 1.23715,-0.53147 1.83485,-0.89009 0.763,-0.45815 1.53444,-0.9212 2.4312,-1.02074 1.71708,-0.20397 3.60614,0.18353 5.45387,0.56214 0.97363,0.19953 1.93616,0.39683 2.85603,0.50437 0.64612,0.0769 1.30247,0.16887 1.96282,0.2613 2.3841,0.33328 4.82152,0.67412 7.01365,0.36083 7.46602,-1.04384 8.333,-9.80968 9.11867,-17.75119 0.0844,-0.85054 0.16753,-1.69131 0.25774,-2.51252 z M 65.109681,127.63541 c 0,-3.68835 -0.66657,-6.84345 -1.999709,-9.50972 -1.333139,-2.66628 -3.021782,-4.93262 -5.199242,-6.84345 -1.999709,-1.91083 -4.221607,-3.55504 -6.532381,-4.88818 -2.310775,-1.33314 -4.488235,-2.5774 -6.532382,-3.64391 -2.044146,-1.11095 -3.732789,-2.13302 -5.065928,-3.155096 -1.333139,-1.02207 -1.999708,-2.08858 -1.999708,-3.28841 0,-0.93319 0.266627,-1.68864 0.844321,-2.26633 0.577694,-0.5777 1.422015,-0.88876 2.62184,-0.88876 1.022073,0 2.133022,0.17775 3.466162,0.53325 1.288701,0.39994 2.710716,0.9332 4.221606,1.64421 1.510891,0.75544 3.06622,1.59976 4.621549,2.62184 1.599767,1.02207 3.021782,2.266326 3.021782,2.266326 0.799883,0.66657 1.910833,0.53326 2.488526,-0.355496 l 5.68806,-8.75428 c -3.732789,-3.82166 -7.687768,-6.66569 -11.864937,-8.62097 -4.177169,-1.91083 -8.887594,-2.88846 -14.131274,-2.88846 -2.932906,0 -5.732498,0.44438 -8.354338,1.24426 -2.62184,0.84432 -4.932615,2.04415 -6.932323,3.64391 -2.044147,1.59977 -3.599476,3.59948 -4.799301,5.95469 -1.199825,2.35521 -1.777518,5.11037 -1.777518,8.26546 0,3.199536 0.666569,6.043566 1.999708,8.487656 1.333139,2.44408 3.021782,4.62154 5.021491,6.53238 1.999708,1.91083 4.177169,3.55503 6.487943,4.97705 2.310774,1.42201 4.488235,2.75515 6.487943,3.95498 1.999709,1.24426 3.688352,2.39965 5.021491,3.5106 1.333139,1.11095 1.999708,2.31077 1.999708,3.55503 0,1.42202 -0.399942,2.39966 -1.155387,2.93291 -0.755446,0.53326 -1.821957,0.79988 -3.28841,0.79988 -1.422015,0 -2.977344,-0.26662 -4.665986,-0.79988 -1.688643,-0.48882 -3.332848,-1.19982 -4.932615,-1.99971 -1.599767,-0.79988 -3.110658,-1.77752 -4.488235,-2.84403 -1.377577,-1.11095 -2.17746,-1.99971 -2.17746,-1.99971 -0.711007,-0.75544 -1.777519,-0.711 -2.444088,0.0889 l -7.021199,8.84316 c 3.243972,4.53267 6.976761,7.90995 11.065054,10.13185 4.132731,2.2219 9.198659,3.33285 15.242223,3.33285 3.021782,0 6.043564,-0.44438 9.020907,-1.24426 3.021782,-0.79989 5.68806,-2.04415 8.043273,-3.73279 2.39965,-1.68865 4.310482,-3.82167 5.776935,-6.39907 1.466453,-2.5774 2.221899,-5.64362 2.221899,-9.19866 z m 26.351715,-15.19778 c -0.933198,0.44438 -1.777519,1.06651 -2.532964,1.86639 -0.711008,0.79988 -1.333139,1.86639 -1.866395,3.19953 -0.488818,1.24427 -0.755446,2.71072 -0.755446,4.39936 0,3.19954 0.799884,5.77694 2.399651,7.73221 1.599767,1.95527 3.688351,2.9329 6.221315,2.9329 0.711008,0 1.510891,-0.17775 2.355213,-0.53325 0.844321,-0.3555 1.688642,-0.84432 2.488526,-1.46645 0.844324,-0.62214 1.555324,-1.37758 2.221894,-2.2219 0.66657,-0.84432 1.11095,-1.77752 1.2887,-2.84403 l 11.55387,3.28841 c 1.02208,0.26663 1.59977,1.33314 1.28871,2.31077 0,0 -1.28871,4.17717 -2.75516,6.53238 -1.46645,2.35522 -3.19953,4.26605 -5.1548,5.82138 -1.95527,1.51089 -4.13273,2.66627 -6.48794,3.42172 -2.355216,0.75545 -4.754866,1.11095 -7.243392,1.11095 -4.399359,0 -8.132149,-0.66657 -11.287244,-2.04415 -3.155096,-1.37757 -5.776936,-3.24397 -7.821083,-5.55474 -2.088584,-2.31078 -3.599475,-5.02149 -4.57711,-8.08771 -0.977636,-3.06622 -1.466453,-6.31019 -1.466453,-9.68748 0,-3.91054 0.533255,-7.46558 1.599767,-10.62067 1.066511,-3.1551 2.666278,-5.86582 4.754862,-8.13215 2.133023,-2.26634 4.710425,-3.999416 7.776645,-5.199236 3.066219,-1.19983 6.576819,-1.82196 10.48736,-1.82196 6.443508,0 11.553868,1.6442 15.331098,4.977046 3.77723,3.33285 6.31019,7.68777 7.55445,13.1092 l -11.90937,2.97735 c -1.02207,0.22219 -2.17746,-0.35551 -2.5774,-1.28871 0,0 -0.62213,-1.37757 -1.95527,-2.75515 -1.333142,-1.37758 -3.377288,-2.04415 -6.132442,-2.04415 -0.933198,0 -1.866395,0.17776 -2.799592,0.62214 z m 79.060474,3.57192 c 0.0835,2.23034 0.1662,4.43669 0.2613,6.60437 0.0626,1.9055 0.13553,3.83011 0.20885,5.77027 0.0822,2.1779 0.16487,4.37447 0.23553,6.58349 0.17775,4.2216 0.31106,8.75427 0.44438,13.55358 l -15.41998,0.3555 c -1.06651,0 -1.91083,-0.84432 -1.91083,-1.8664 0,-0.12576 0.0191,-0.30617 0.0409,-0.51459 0.0787,-0.74789 0.19464,-1.85439 -0.39639,-2.06281 -0.43993,-0.16931 -0.98296,0.35728 -1.39357,0.75545 -0.12843,0.12487 -0.24396,0.23685 -0.33951,0.31106 -0.93319,0.71101 -1.95527,1.2887 -3.02178,1.82196 -1.06651,0.53326 -2.17746,0.9332 -3.37728,1.24426 -1.19983,0.31107 -2.35522,0.44438 -3.46617,0.44438 -3.8661,0 -7.19895,-0.53325 -9.99854,-1.59976 -2.79959,-1.06652 -5.06593,-2.57741 -6.84344,-4.57711 -1.77752,-1.99971 -3.11066,-4.39936 -3.95498,-7.24339 -0.84433,-2.84403 -1.28871,-5.99913 -1.28871,-9.55417 0,-2.48852 0.13332,-5.28811 0.35551,-8.44321 0.22219,-3.1551 0.53325,-6.13244 0.84432,-8.93203 0.3555,-3.28841 0.75545,-6.53238 1.19983,-9.820786 l 16.79755,-0.17775 c 1.06651,0 1.77752,0.84432 1.59976,1.866386 0,0 -0.66657,3.99942 -1.06651,7.15451 -0.06,0.53015 -0.12131,1.06829 -0.18397,1.61532 -0.26218,2.297 -0.54259,4.74998 -0.79366,7.40559 -0.31107,3.33285 -0.48882,6.53238 -0.48882,9.90967 0,1.86639 0.57769,3.5106 1.68864,4.84374 1.11095,1.33313 2.79959,1.9997 5.02149,1.9997 2.08859,0 3.91054,-0.66657 5.42143,-1.9997 1.5109,-1.37758 2.26634,-3.1551 2.26634,-5.46587 v -0.003 c 0,-3.02089 0,-5.6414 -0.0444,-7.86285 0,-2.2219 -0.0889,-4.39936 -0.17775,-6.48795 -0.0889,-2.08858 -0.22219,-4.26604 -0.39994,-6.57682 -0.17775,-2.26633 -0.3555,-4.97705 -0.53326,-8.132146 l 16.13099,-0.3555 c 1.06651,0 1.91083,0.84432 1.95527,1.8664 0,0 0.22219,7.510006 0.39994,11.731616 0.0827,1.95838 0.15553,3.90743 0.22752,5.83826 z m 65.58511,-15.34799 c 2.62184,1.2887 4.66599,3.11066 6.17688,5.42144 1.51089,2.31077 2.53296,5.11036 3.06622,8.22102 0.57769,3.24397 0.84432,6.75457 0.84432,10.62067 0,3.59948 -0.26663,7.28783 -0.75545,11.06506 -0.48882,3.82166 -1.11095,7.7322 -1.82195,11.77606 l -16.17542,-1.99971 c -1.02208,-0.13331 -1.68865,-1.06651 -1.46646,-2.08858 0,0 1.95527,-8.53209 2.5774,-12.48707 0.62214,-3.95498 0.9332,-7.19895 0.9332,-9.73192 0,-2.66628 -0.3555,-4.57711 -1.11095,-5.7325 -0.75544,-1.15538 -1.82195,-1.73308 -3.19953,-1.73308 -2.2219,0 -3.59948,1.55533 -4.13273,4.62155 -0.53326,3.06622 -0.79989,7.73221 -0.79989,13.99796 v 8.9e-4 c 0,0.84432 0,1.95483 0.0444,3.33196 0.0227,0.70479 0.0338,1.42157 0.0453,2.15569 0.0107,0.70034 0.0218,1.41712 0.0435,2.15479 0,1.46912 0.084,2.85425 0.1702,4.2776 l 0.008,0.12176 c 0.0889,1.46645 0.22219,2.66628 0.3555,3.64392 l -16.08654,-0.35551 c -1.02207,0 -1.86639,-0.88876 -1.82196,-1.91083 0,0 0.0889,-1.55533 0.13332,-2.97734 0.0444,-1.37758 0.0889,-2.88847 0.13331,-4.48824 0.0444,-1.59977 0.0444,-3.46616 0.0444,-5.64362 v -8.3099 c 0,-1.37758 -0.0444,-2.66628 -0.13331,-3.95498 -0.0889,-1.2887 -0.26663,-2.39965 -0.5777,-3.37729 -0.26663,-0.97763 -0.66657,-1.77751 -1.11095,-2.35521 -0.44438,-0.57769 -1.06651,-0.88876 -1.86639,-0.88876 -1.68865,0 -2.79959,0.48882 -3.24397,1.42202 -0.44438,0.97763 -0.66657,1.86639 -0.66657,2.79959 l -0.53326,26.92941 c 0,1.02207 -0.88876,1.91083 -1.91083,1.91083 l -13.6869,0.22219 c -1.02207,0 -1.86639,-0.84432 -1.86639,-1.86639 0,0 0,-7.73221 -0.0444,-11.90938 0.0444,-4.17717 0.0444,-8.13215 0,-11.90938 0,-3.73278 -0.0889,-7.46557 -0.17775,-11.10949 -0.0809,-3.31862 -0.23552,-6.78479 -0.39683,-10.39848 -0.016,-0.354166 -0.0316,-0.709676 -0.0476,-1.066506 l 14.13127,-0.35551 c 1.02208,-0.0444 1.99971,0.79989 2.08859,1.821956 0.0231,0.1382 0.0342,0.28796 0.0458,0.44394 0.0107,0.14486 0.0218,0.29506 0.0431,0.44482 0.0444,0.44438 0.0889,0.84432 0.13332,1.24426 0.007,0.0564 0.012,0.11998 0.0169,0.18664 0.0271,0.35239 0.0609,0.79811 0.47194,0.83544 0.33684,0.0307 0.50526,-0.1502 0.69367,-0.3524 0.0844,-0.0911 0.17375,-0.18708 0.28396,-0.26974 0.2653,-0.21552 0.5177,-0.43682 0.76967,-0.65768 0.42393,-0.3715 0.84521,-0.74078 1.31892,-1.0754 0.84432,-0.62213 1.86639,-1.11095 2.97734,-1.510886 1.11095,-0.39994 2.31077,-0.57769 3.55504,-0.57769 2.48852,0 4.53267,0.57769 6.17687,1.733076 0.9332,0.66657 1.77752,1.46645 2.44409,2.39965 0.0342,0.048 0.0662,0.0955 0.0973,0.1422 0.17331,0.25819 0.32662,0.4866 0.70257,0.52437 0.13331,0 0.26662,0 0.39994,-0.0444 0.38172,-0.0635 0.62657,-0.33195 0.8652,-0.59325 0.0951,-0.10398 0.18887,-0.20708 0.29018,-0.29551 0.44438,-0.39994 0.97764,-0.84432 1.46646,-1.19982 0.57769,-0.39994 1.15538,-0.79989 1.77752,-1.15539 2.26633,-1.377576 4.93261,-2.044146 8.08771,-2.044146 4.17717,0 7.59889,0.66657 10.22073,1.955266 z m 80.29941,5.42144 c 1.51089,2.31077 2.53296,5.06592 3.11066,8.3099 0.53325,3.24397 0.79988,6.79901 0.79988,10.53179 0,3.59948 -0.26663,7.28783 -0.75545,11.06506 -0.0667,0.53325 -0.14442,1.07762 -0.22219,1.62198 -0.0778,0.54437 -0.15553,1.08873 -0.22219,1.62199 -0.17775,1.2887 -0.3555,2.5774 -0.44438,3.8661 -0.0889,0.84432 -0.17775,1.68865 -0.31106,2.53297 -0.0404,0.16264 -0.0649,0.35417 -0.0898,0.55414 -0.0578,0.45682 -0.12087,0.95897 -0.39905,1.26781 -0.30751,0.34173 -0.77322,0.26308 -1.21449,0.18798 -0.13242,-0.0222 -0.26218,-0.0444 -0.38528,-0.0547 -0.28129,-0.0444 -0.56303,-0.0938 -0.84432,-0.14309 -0.56303,-0.0986 -1.12561,-0.19775 -1.68864,-0.25685 -0.71101,-0.0889 -1.41091,-0.16665 -2.1108,-0.24441 -0.6999,-0.0778 -1.3998,-0.15554 -2.11081,-0.24441 -2.17746,-0.31107 -4.39936,-0.5777 -6.62125,-0.84432 -0.44438,-0.0889 -0.88876,-0.13332 -1.33314,-0.17775 -1.02208,-0.13332 -1.68865,-1.06652 -1.46646,-2.08859 0,0 1.95527,-8.53209 2.57741,-12.48707 0.62213,-3.95498 0.93319,-7.19895 0.93319,-9.73191 0,-2.66628 -0.3555,-4.57711 -1.11095,-5.7325 -0.75544,-1.15539 -1.82195,-1.73308 -3.19953,-1.73308 -2.2219,0 -3.59948,1.55533 -4.13273,4.62155 -0.53326,3.06622 -0.79988,7.7322 -0.79988,13.99796 0,0.84432 0,1.95527 0.0444,3.33284 0.0227,0.70479 0.0338,1.42158 0.0453,2.15569 0.0107,0.70034 0.0218,1.41713 0.0435,2.1548 0,1.51089 0.0889,2.97734 0.17775,4.39936 0.0222,0.39994 0.0667,0.78877 0.1111,1.1776 0.0444,0.38883 0.0889,0.77767 0.11109,1.17761 0.005,0.056 0.0102,0.11154 0.016,0.16709 0.0476,0.4737 0.092,0.9132 -0.50482,1.03273 -0.50659,0.1191 -1.09317,0.0787 -1.66598,0.0387 -0.28129,-0.0196 -0.55903,-0.0387 -0.82254,-0.0387 -0.64435,-0.0222 -1.2887,-0.0333 -1.93305,-0.0444 -0.64436,-0.0111 -1.28871,-0.0222 -1.93306,-0.0444 -0.68878,-0.0222 -1.37757,-0.0333 -2.06636,-0.0444 -0.68879,-0.0111 -1.37758,-0.0222 -2.06637,-0.0444 -0.57191,-0.0218 -1.13272,-0.0329 -1.68864,-0.044 -0.56658,-0.0111 -1.12739,-0.0222 -1.68864,-0.0449 -0.26663,0 -0.52215,-0.0111 -0.77767,-0.0222 -0.25552,-0.0111 -0.51103,-0.0222 -0.77766,-0.0222 h -0.0444 c -1.02207,0 -1.86639,-0.88876 -1.82196,-1.91083 0,0 0.0889,-1.55533 0.13332,-2.97735 0.0444,-1.37758 0.0889,-2.88847 0.13331,-4.48823 0.0444,-1.59977 0.0444,-3.46616 0.0444,-5.64363 v -8.3099 c 0,-1.37757 -0.0444,-2.66627 -0.13331,-3.95497 -0.0889,-1.28871 -0.26663,-2.39965 -0.5777,-3.37729 -0.26663,-0.97764 -0.66657,-1.77752 -1.11095,-2.35521 -0.44438,-0.5777 -1.06651,-0.88876 -1.86639,-0.88876 -1.68864,0 -2.79959,0.48882 -3.24397,1.42201 -0.44438,0.97764 -0.66657,1.8664 -0.66657,2.7996 l -0.53326,26.9294 c 0,1.02208 -0.88876,1.91084 -1.91083,1.91084 l -13.6869,0.22219 c -1.02207,0 -1.86639,-0.84433 -1.86639,-1.8664 0,0 0,-7.7322 0.0444,-11.90937 0.0444,-4.17717 0.0444,-8.13215 0,-11.90938 0,-3.73279 -0.0889,-7.46558 -0.17775,-11.10949 -0.0809,-3.31952 -0.23553,-6.78701 -0.39684,-10.401596 -0.016,-0.35283 -0.0316,-0.70745 -0.0475,-1.0634 l 14.13127,-0.3555 c 1.02207,-0.0444 1.99971,0.79988 2.08858,1.821956 0.0889,0.53325 0.13332,1.02207 0.17776,1.55532 0.0147,0.13332 0.0249,0.26663 0.0347,0.39995 0.0195,0.26662 0.0395,0.53325 0.0986,0.79988 0.0444,0.22219 0.17775,0.62213 0.44438,0.66657 0.22219,0.0889 0.44438,-0.13331 0.57769,-0.26663 0.0444,-0.0444 0.0889,-0.1 0.13332,-0.15553 0.0444,-0.0556 0.0889,-0.1111 0.13331,-0.15553 0.5777,-0.66657 1.2887,-1.33314 2.17746,-1.95527 0.88876,-0.62214 1.8664,-1.11095 2.97735,-1.510896 1.11094,-0.39994 2.31077,-0.57769 3.55503,-0.57769 2.48853,0 4.53268,0.57769 6.17688,1.733076 0.84432,0.62213 1.64421,1.33314 2.26634,2.17746 l 0.0244,0.0324 c 0.26352,0.35195 0.61102,0.81588 1.04207,0.9452 0.42927,0.13198 0.80966,-0.3004 1.14117,-0.67724 0.1142,-0.1302 0.22263,-0.25374 0.32528,-0.34484 0.44438,-0.44438 0.9332,-0.84432 1.46645,-1.19982 0.53326,-0.39994 1.11095,-0.75545 1.68865,-1.11095 2.26633,-1.377576 4.93261,-2.044146 8.08771,-2.044146 4.17717,0 7.59889,0.66657 10.22073,1.955266 2.62184,1.2887 4.66599,3.11066 6.17688,5.42144 z"
     id="path214"
     inkscape:connector-curvature="0"
     style="clip-rule:evenodd;fill:#ffffff;fill-rule:evenodd;stroke-width:0.44437969" />
  <path
     d="m 495.94022,52.192943 c -1.6442,-1.955271 -3.95498,-3.199534 -6.53238,-3.421724 l -15.64216,-1.377577 c -4.13274,-0.355503 -8.39878,1.910833 -10.39849,5.554746 0,0 -20.97428,38.305666 -30.92838,56.525222 -5.37699,-19.952636 -16.48649,-61.191208 -16.48649,-61.191208 -1.11095,-4.177169 -4.88817,-7.376703 -9.19866,-7.776645 l -17.24193,-1.733063 c -5.19924,-0.533255 -9.82079,3.11064 -10.62067,8.265445 L 363.87103,147.82358 c -0.39995,2.5774 0.31106,5.24368 1.91083,7.28783 1.59976,2.04414 4.04385,3.33284 6.62125,3.55503 l 13.90909,1.19983 c 5.1548,0.44438 9.77635,-3.24397 10.48736,-8.35434 0,0 1.95527,-14.08684 3.91054,-28.04036 4.71043,16.08655 9.37641,32.21753 9.37641,32.21753 1.19983,4.04385 4.93262,7.19895 9.15422,7.64333 l 9.28754,0.97764 c 4.13273,0.44437 8.44321,-1.77752 10.48736,-5.33256 0,0 8.26546,-14.35346 16.53048,-28.70693 -1.15539,13.33139 -2.31078,26.7961 -2.31078,26.7961 -0.0444,0.26662 -0.0444,0.53325 -0.0444,0.84432 0,4.88817 3.73279,9.10978 8.6654,9.5986 l 16.66424,1.73308 c 2.5774,0.26663 5.11036,-0.48882 7.11007,-2.13302 1.99971,-1.64421 3.24397,-3.95498 3.46616,-6.53238 l 9.02091,-101.3187 c 0.26663,-2.62184 -0.53325,-5.110366 -2.17746,-7.065637 z m -26.08509,4.354921 c 0.5777,-1.066511 2.04415,-1.821957 3.24398,-1.733081 l 5.1548,0.44438 -5.28812,15.864351 h -11.06505 z m -81.14328,-10.398485 17.24193,1.733081 c 1.19983,0.133314 2.44409,1.155387 2.75515,2.310774 l 4.75487,17.641874 h -20.48591 l -0.13331,0.444379 -2.5774,8.132147 h -8.26546 l 4.2216,-28.351422 c 0.17775,-1.155387 1.2887,-2.044147 2.48853,-1.910833 z m -8.3099,78.699771 3.02178,1.6442 0.13331,0.0889 h 9.15423 l -1.19983,9.10978 -17.99738,-2.13302 1.28871,-8.70984 z m 6.57682,27.59598 -13.90909,-1.19983 c -1.19982,-0.0889 -2.04414,-1.15538 -1.86639,-2.35521 l 2.08858,-14.0424 18.04182,2.13302 -1.8664,13.50915 c -0.17775,1.19982 -1.2887,2.08858 -2.48852,1.95527 z m 11.77606,-62.346466 c -0.3555,-1.15539 -0.75545,-1.11095 -0.9332,0.0444 l -4.88817,35.150426 h -8.97647 l -3.02179,-1.64421 -0.13331,-0.0889 h -0.17775 l -5.59918,-0.0444 6.799,-45.726796 h 9.42085 l 0.13332,-0.44438 2.5774,-8.132149 h 19.86377 l 9.5986,35.506065 h -9.99854 v 24.61863 h -3.24397 z m 80.56559,71.767316 -8.04327,-0.84432 0.79988,-11.55388 4.17717,-0.53325 0.35551,-0.0444 0.13331,-0.31107 1.06651,-2.13302 h 5.06593 l -1.19983,13.46471 c -0.0889,1.19982 -1.15538,2.04414 -2.35521,1.95527 z m 3.68835,-16.75312 h -5.99912 l -0.17775,0.35551 -1.06652,2.2219 -4.35492,0.57769 -0.53325,0.0889 -0.0444,0.53326 -0.84432,12.04269 -7.28783,-0.75545 c -1.19982,-0.13331 -2.08858,-1.19982 -1.99971,-2.39965 l 2.93291,-34.35055 h 9.68748 v -0.66656 l 0.0444,-20.93029 3.73279,-13.509136 10.97618,0.0444 z m 5.19924,-58.124856 -11.5983,-0.0444 h -0.48882 l -0.13332,0.48882 -3.91054,14.086836 -0.0444,0.0889 v 0.0889 l -0.0444,20.35259 h -8.26547 l 1.91084,-22.307856 c 0.0889,-1.19983 -0.31107,-1.33314 -0.88876,-0.26663 l -32.17265,55.769646 c -0.62213,1.02207 -2.08858,1.77752 -3.28841,1.6442 l -9.28753,-0.97763 c -1.19983,-0.13331 -2.44409,-1.15539 -2.79959,-2.31078 l -6.6657,-22.92999 h 4.17717 v -24.61863 h 9.02091 l 5.68806,21.15247 c 0.31106,1.15539 1.02207,1.24427 1.59976,0.17775 l 30.08406,-54.969896 h 12.7537 l 0.13332,-0.44438 5.5103,-16.575357 9.15422,0.799883 c 1.19983,0.08888 2.08859,1.155387 1.99971,2.355212 z"
     id="path216"
     inkscape:connector-curvature="0"
     style="fill:#ffffff;stroke-width:0.44437969" />
  <path
     d="m 373.24744,35.839735 c 2.39965,-0.488817 4.88817,0.266628 6.66569,1.955271 1.77752,1.733081 2.5774,4.17716 2.17746,6.532372 L 363.73771,152.66732 c -0.53325,3.11066 -2.88847,5.51031 -5.95469,6.088 l -13.64245,2.5774 c -3.06622,0.57769 -6.17688,-0.79988 -7.77665,-3.5106 l -9.45329,-15.9239 c 0.17109,-1.36025 0.30751,-2.73916 0.44172,-4.09363 0.084,-0.85054 0.16708,-1.69175 0.25729,-2.51252 0.22086,-2.02459 0.38173,-4.02386 0.47816,-5.98757 l 6.23198,10.52024 13.02032,-4.7993 V 128.893 l 0.26663,-0.17775 3.73279,-2.84403 0.17775,-0.13331 h 0.22219 l 4.66599,0.0444 4.97705,-3.91054 2.39965,-14.13128 h -6.44351 v -0.66657 l 0.0444,-13.820206 v -0.26662 l 0.17775,-0.17776 1.73308,-1.68864 v -4.13273 h 7.99884 l 7.06564,-41.682991 c 0.22219,-1.199825 -0.5777,-1.95527 -1.77752,-1.73308 l -8.62097,1.73308 v 5.510308 l -0.31106,0.22219 -1.5109,1.333139 v 3.599476 l -0.17775,0.177752 -1.55533,1.688642 v 10.576237 l -0.22219,0.177752 -2.44408,2.044145 -0.17776,0.13332 h -6.39906 l -6.13244,44.660326 c -0.17776,1.19983 -0.79989,1.33314 -1.37758,0.26663 l -7.77664,-13.82021 -9.51417,7.93707 c -0.1231,-0.44572 -0.2533,-0.88521 -0.38972,-1.31848 l 9.23732,-7.6851 -19.81934,-35.283921 h -4.44379 l -1.15539,1.599767 -0.17775,0.266628 h -6.17688 v 8.70984 h -6.97676 l 9.00846,15.18508 c -2.87958,-0.37195 -5.79382,-0.36084 -8.58541,0.0298 l -16.28737,-27.43528 c -1.19982,-2.044146 -1.37757,-4.621549 -0.39994,-6.799009 0.97764,-2.17746 2.93291,-3.777227 5.28812,-4.266045 l 22.7078,-4.710425 c 3.19954,-0.666569 6.39907,0.799884 7.99884,3.643914 0,0 13.86464,24.574195 24.17425,42.971695 2.84403,-20.79715 6.6657,-48.526441 6.6657,-48.526441 0.44438,-3.110658 2.79959,-5.643622 5.91025,-6.265745 z M 356.5832,46.815904 c -1.19983,0.22219 -2.26634,1.377577 -2.44409,2.577403 l -2.75515,20.130399 h 5.77693 l 2.04415,-1.688643 V 57.303265 l 0.17775,-0.177752 1.55533,-1.688643 v -3.688351 l 0.22219,-0.177752 1.51089,-1.333139 v -4.665987 z m -48.97064,9.020908 -18.44176,3.821665 c -1.19982,0.266628 -1.6442,1.288701 -1.02207,2.355212 l 7.59889,12.798135 h 6.39907 v -8.75428 h 6.84344 l 1.15539,-1.599766 0.17775,-0.266628 h 4.35492 l -3.8661,-6.887885 c -0.57769,-1.066511 -1.99971,-1.688643 -3.19953,-1.466453 z m 46.61543,96.075058 c 1.19982,-0.22219 2.31077,-1.37757 2.53296,-2.5774 l 4.26605,-25.46296 -3.99942,3.1551 -0.17775,0.13331 h -0.22219 l -4.66599,-0.0444 -3.28841,2.53296 v 6.39907 l -0.44438,0.17775 -13.24251,4.88818 6.62125,11.10949 c 0.62213,1.02207 2.08859,1.68864 3.28841,1.46645 z m 6.22131,-60.035686 -1.73308,1.68864 -0.0444,12.931446 h 5.33256 l 3.06622,-18.175126 h -6.44351 v 3.37729 z"
     id="path218"
     inkscape:connector-curvature="0"
     style="clip-rule:evenodd;fill:#ffffff;fill-rule:evenodd;stroke-width:0.44437969" />
</svg>
