<?xml version="1.0" encoding="UTF-8" standalone="no"?>
<svg
   xmlns:dc="http://purl.org/dc/elements/1.1/"
   xmlns:cc="http://creativecommons.org/ns#"
   xmlns:rdf="http://www.w3.org/1999/02/22-rdf-syntax-ns#"
   xmlns:svg="http://www.w3.org/2000/svg"
   xmlns="http://www.w3.org/2000/svg"
   xmlns:sodipodi="http://sodipodi.sourceforge.net/DTD/sodipodi-0.dtd"
   xmlns:inkscape="http://www.inkscape.org/namespaces/inkscape"
   width="500"
   height="200"
   viewBox="0 0 500 200"
   version="1.1"
   id="svg35"
   sodipodi:docname="sega32x.svg"
   inkscape:version="0.92.5 (2060ec1f9f, 2020-04-08)">
  <metadata
     id="metadata41">
    <rdf:RDF>
      <cc:Work
         rdf:about="">
        <dc:format>image/svg+xml</dc:format>
        <dc:type
           rdf:resource="http://purl.org/dc/dcmitype/StillImage" />
        <dc:title>syslogo</dc:title>
      </cc:Work>
    </rdf:RDF>
  </metadata>
  <defs
     id="defs39" />
  <sodipodi:namedview
     pagecolor="#ffffff"
     bordercolor="#666666"
     borderopacity="1"
     objecttolerance="10"
     gridtolerance="10"
     guidetolerance="10"
     inkscape:pageopacity="0"
     inkscape:pageshadow="2"
     inkscape:window-width="1366"
     inkscape:window-height="740"
     id="namedview37"
     showgrid="false"
     inkscape:pagecheckerboard="true"
     inkscape:zoom="1.2193372"
     inkscape:cx="239.5"
     inkscape:cy="73.5"
     inkscape:window-x="0"
     inkscape:window-y="0"
     inkscape:window-maximized="1"
     inkscape:current-layer="svg35" />
  <title
     id="title18">syslogo</title>
  <g
     id="Page-1"
     style="fill:none;fill-rule:evenodd;stroke:none;stroke-width:1"
     transform="matrix(1.02397,0,0,1.02397,2.4603531,24.877008)">
    <g
       id="syslogo"
       style="fill:#ffffff">
      <g
         id="Group-25"
         transform="translate(0,66)">
        <g
           id="Group-22"
           transform="translate(464,1)"
           style="fill-rule:nonzero">
          <polygon
             id="Path"
             points="3.6666667,1.1914894 3.6666667,8 2.5,8 2.5,1.1914894 1.7319479e-14,1.1914894 1.7319479e-14,4.4408921e-16 6.5,4.4408921e-16 6.5,1.1914894 " />
          <polygon
             id="polygon21"
             points="15,8 13.833333,8 13.833333,1.1914894 11.833333,8 10.666667,8 8.5,1.1914894 8.5,8 7.1666667,8 7.1666667,8.2203747e-16 9.1666667,8.2203747e-16 11.166667,6.4680851 13.166667,4.4408921e-16 15,4.4408921e-16 " />
        </g>
        <path
           d="m 261.39651,26.095292 c -0.59033,10.813395 -3.84781,18.899494 -16.20307,23.343364 -1.74426,0.627564 -3.62441,0.714762 -5.47719,0.716989 -11.60644,0.01146 -23.21256,0.0067 -34.81901,0.007 l -11.50369,0.0028 c -3.83456,3.58e-4 -7.66917,-0.0014 -11.50393,-0.0098 -2.22162,-0.0051 -4.44292,-0.11743 -6.66517,-0.126658 -2.65682,-0.01128 -4.95514,1.645921 -5.86365,4.085797 l -0.0416,0.114939 c -0.28195,0.80355 -0.35228,1.222032 0.76823,1.217577 16.15788,-0.05824 32.31639,-0.09929 48.47459,-0.10661 11.60039,-0.0051 23.20047,0.04583 34.80055,0.07224 1.71562,0.0034 3.43304,0.06307 5.14554,0.01464 l 0.57064,-0.02037 c 1.44955,-0.06334 1.93434,0.534336 1.9453,1.87998 l 9e-5,0.08164 c -0.0329,5.364691 -0.0233,10.729602 -0.0192,16.094366 l 0.001,3.630527 v 0 l 2.8e-4,1.625986 c 23.51585,-12.427178 46.37931,-25.377221 69.95499,-37.685696 l -6.62444,-3.677872 c -4.99606,-2.77238 -9.9866,-5.554926 -14.99206,-8.310436 l -3.00523,-1.649764 c -0.58874,-0.322216 -1.00447,-0.660908 -1.01351,-1.23109 l 8.8e-4,-0.06955 h 110.81988 c 0.022,0.951848 -0.86625,1.170478 -1.63702,1.571139 -3.41819,1.777675 -6.77846,3.66546 -10.16387,5.504874 l -3.47606,1.887611 c -3.47912,1.8879 -6.97104,3.779246 -10.50825,5.697264 0.83155,0.927026 2.00266,1.314321 3.02325,1.891922 13.66831,7.738265 27.34425,15.461892 41.03865,23.154649 6.83606,3.840491 13.71445,7.606833 20.56833,11.416774 0.6874,0.381885 1.35633,0.804186 1.99917,1.257357 0.47417,0.334149 0.60052,0.847148 0.46145,1.405973 -0.13716,0.54896 -0.5601,0.739266 -1.07119,0.765998 -0.84651,0.04392 -1.69366,0.09293 -2.54049,0.09324 -14.46804,0.0057 -28.93798,-0.111383 -43.40347,0.07733 -4.23256,0.05474 -7.90853,-0.941665 -11.53866,-2.977112 -8.69454,-4.875111 -17.46535,-9.61451 -26.2125,-14.395847 l -2.62333,-1.435837 c -2.86509,-1.570821 -5.73337,-3.135913 -8.56218,-4.76879 -0.60083,-0.346879 -1.01963,-0.325557 -1.58292,-0.01973 -11.34898,6.160125 -22.70211,12.312294 -34.0616,18.452689 -2.8721,1.552363 -5.7741,3.051262 -8.65384,4.590259 -0.98526,0.527001 -2.05517,0.469718 -3.10027,0.470673 -16.95856,0.01559 -33.92031,0.215447 -50.87569,-0.02864 -41.19376,-0.593726 -82.38813,-0.10441 -123.58136,-0.257693 l -4.78609,-0.02147 c -2.19474,-0.0212 -2.19557,-0.185856 -2.19557,-2.717359 -3.1e-4,-7.805096 0.17026,-15.614646 -0.0407,-23.414332 -0.29914,-11.088989 8.08101,-20.665394 18.69264,-23.208749 2.89246,-0.69344 5.90394,-0.437895 8.85623,-0.495496 5.72152,-0.110747 11.44847,-0.138789 17.17082,-0.04133 l 1.43049,0.027 c 12.90955,0.267196 25.81883,0.06716 38.72835,0.123462 l 2.27815,0.01274 c 3.51303,0.02419 4.84326,-0.997357 5.72764,-4.507199 l 0.0164,-0.05641 v 0 l 0.0173,-0.05497 z m -134.38343,9.5e-5 c 0.29023,1.298728 -0.13207,2.506758 -0.13334,3.757432 -0.007,8.130856 0.0516,16.262811 -0.079,24.390767 l -0.0629,3.437121 c -0.0677,3.272916 -0.23966,6.546158 -1.722,9.686277 -3.26353,6.914349 -8.62678,11.093763 -15.94052,12.968182 -0.60115,0.154346 -1.26436,0.09102 -1.89861,0.09134 l -23.523602,0.0068 c -7.841176,0.0012 -15.682311,4e-5 -23.523368,-0.0068 -15.89324,-0.01364 -31.786246,-0.02868 -47.679018,-0.0846 l -7.9463671,-0.03155 c -1.469171,-0.0065 -3.0782833,0.234735 -4.40534102,-0.762973 L 0,79.470197 V 55.723944 l 0.08242354,-0.104382 0.12061204,0.05696 c 0.25395361,-0.976989 1.03490862,-0.883427 1.78244872,-0.882791 5.139219,0.0035 10.2784377,0.0013 15.4176567,0.0013 17.79871,-6.36e-4 35.597739,-0.06142 53.395813,0.0401 4.63704,0.02673 9.277581,0.183623 13.917803,0.176622 2.828496,-0.0051 4.806661,-1.494762 5.463185,-3.805485 0.348938,-1.228322 -0.102999,-1.359775 -1.024165,-1.368602 L 88.97764,49.83721 C 80.87181,49.86394 72.765662,49.87158 64.659514,49.84671 55.338653,49.81902 46.018111,49.745829 36.69725,49.706049 l -3.214075,-0.01382 c -2.678405,-0.01019 -5.356778,-0.0138 -8.034732,0.01374 l -1.606719,0.02045 c -1.38788,0.0212 -1.931076,-0.533551 -1.841685,-1.794678 l 0.0064,-0.07974 c 0.475447,-5.310113 0.188078,-10.633591 0.294051,-15.950069 0.02992,-1.49858 0.822008,-1.682522 2.045313,-1.676157 12.976457,0.07447 25.952913,0.129204 38.929687,0.167711 7.576283,0.02196 15.152565,0.0038 22.728847,0.0032 2.997472,0 4.496021,-1.170956 4.879673,-4.051786 l 0.02421,-0.185389 v 0 l 0.01002,-0.06413 z M 260.10287,25.7255 h 1.29205 l 3.2e-4,0.021 h -1.29237 z M 238.8271,0.35071836 c 6.47231,-0.0120181 11.41964,2.89508234 15.70311,7.31317484 1.79518,1.8521428 3.40833,3.8624498 4.55876,6.2151798 0.46972,0.96076 0.78191,1.953979 1.0139,2.963747 0.41185,1.791482 0.56772,3.635705 0.87812,5.44769 l 0.0811,0.452276 c 0.0242,0.129204 0.0347,0.244725 0.0361,0.351971 0.002,0.154036 -0.019,0.286164 -0.0592,0.399531 l -0.0217,0.05523 H 132.80243 c -0.0398,-0.102897 -0.0687,-0.223694 -0.0892,-0.366444 l -0.0113,-0.08832 -0.008,-0.07895 c -0.0297,-0.32422 -0.0311,-0.742554 -0.0311,-1.284537 -9.6e-4,-4.959733 -0.0194,-9.919466 0.0134,-14.8788807 0.0108,-1.6777485 0.17535,-3.3548607 0.22754,-5.0329275 0.0309,-0.98971892 0.50377,-1.44448044 1.47822,-1.43620626 0.63584,0.006047 1.27199,-0.002546 1.90783,-0.002546 34.17904,-3.1823e-4 68.35839,0.0327785 102.53743,-0.0299893 z m 76.66519,0.53841643 c 2.22114,-0.0116201 3.81255,1.12913031 5.51596,2.06601011 l 0.12798,0.069863 c 11.11318,6.0194641 22.17989,12.1242151 33.26092,18.2015991 0.36947,0.202717 0.72145,0.440759 1.09919,0.625018 0.54622,0.265636 0.82296,0.630059 0.7983,1.171415 l -0.005,0.07162 -0.0101,0.09044 c -0.008,0.06122 -0.0203,0.124372 -0.0362,0.189929 -0.0102,0.04264 -0.0221,0.08218 -0.0349,0.119633 l -0.0199,0.05476 H 299.3914 c -0.25968,-0.106164 -0.51671,-0.224956 -0.77257,-0.355072 l -0.27662,-0.143447 -0.0845,-0.04471 C 286.59281,16.576519 274.92113,10.157985 263.25199,3.7349955 l -0.28088,-0.1531518 v 0 l -0.28017,-0.1555386 -0.13551,-0.078785 c -0.1347,-0.079913 -0.26663,-0.1638079 -0.39337,-0.2545056 -0.43089,-0.3096451 -0.52127,-0.7758632 -0.44235,-1.2729504 0.0837,-0.5288345 0.46951,-0.7391584 0.91525,-0.8125757 l 0.10658,-0.0163377 c 0.52382,-0.0611016 1.05719,-0.0502815 1.5861,-0.0502815 17.05467,-0.002228 34.11029,0.0394615 51.16465,-0.0517344 z m 143.45552,-0.18299739 0.10364,-0.001234 c 0.78495,-0.0183983 1.72857,-0.21956219 1.92449,0.9489453 0.18394,1.0918732 -0.72367,1.380833 -1.46421,1.77863 -5.74896,3.0856317 -11.49284,6.1782646 -17.24021,9.2658063 l -12.90274,6.929281 v 0 l -6.44992,3.467223 -0.84654,0.454634 h -56.57406 c -0.0194,-0.05824 -0.0366,-0.119658 -0.0493,-0.189988 -0.0113,-0.06216 -0.0184,-0.121638 -0.0225,-0.179368 l -0.004,-0.08541 c -0.0139,-0.63762 0.3842,-1.032872 0.9863,-1.353019 2.27954,-1.210894 4.53807,-2.461886 6.80584,-3.695693 7.58105,-4.123722 15.20411,-8.1742508 22.72311,-12.408402 2.6541,-1.4944438 5.41832,-2.7934896 7.99063,-4.4295491 0.75836,-0.48213001 1.58196,-0.51204435 2.43325,-0.51140787 8.73848,0.004455 17.47665,0.002546 26.21482,0.002228 8.79068,-6.3647e-4 17.58135,-0.004774 26.37171,0.007319 z M 126.48194,23.091638 c -0.0888,0.18531 -0.2165,0.323447 -0.39613,0.425084 l -0.0618,0.03254 H 1.3490092 C 1.1504289,23.459309 0.98931425,23.332391 0.87080588,23.158899 l -0.0424334,-0.06726 z M 104.61835,0 c 1.41107,0.66766247 2.95738,0.31123637 4.43814,0.5900125 9.12928,1.7188013 16.89714,10.3096255 17.5123,19.5324685 l 0.0431,0.661563 c 0.0688,1.112995 0.0806,1.8152 -0.1082,2.259304 l -0.0218,0.04829 H 0.82834064 C 0.68513372,22.845322 0.61193907,22.521038 0.6143597,22.10001 0.6612659,15.192026 0.67049479,8.2837246 0.71091096,1.3757411 0.71345686,0.96754837 0.83669732,0.56010995 0.9235059,0.15275536 L 0.95404448,0 Z"
           id="Shape"
           inkscape:connector-curvature="0" />
      </g>
      <g
         id="SEGA_logo"
         style="fill-rule:nonzero">
        <path
           d="m 114.24798,-5.6250029e-7 c 4.90406,0 9.0051,2.76672706250029 10.84671,6.75189976250029 l 0.11941,0.2674663 13.02589,38.8601835 -60.313646,-0.0069 c -3.685637,0 -7.039218,-1.420584 -9.550592,-3.737084 l -0.266291,-0.251601 v 3.984998 l -21.534565,0.0037 c -5.415302,0 -10.109586,-3.056814 -12.4524,-7.525713 l -0.146332,-0.287151 -0.05944,0.170957 c -1.94304,4.07808 -7.461664,7.4949 -13.099465,7.633838 L 20.478872,45.86895 0,45.872637 V 27.400548 l 4.5826557,0.0074 C 1.8768383,24.586904 0.0419328,20.779313 0.0419328,16.580965 0.05240351,7.621681 7.0778316,0.81901184 15.708324,0.66350213 l 0.316456,-0.002716 20.325887,-0.0175104 V 5.0651128 c 2.472712,-2.605155 5.973809,-4.29326525 9.837589,-4.39946471 l 0.387562,-0.005322 h 21.565899 l -0.0074,3.92601581 c 2.433659,-2.3727067 5.707984,-3.83945336 9.357619,-3.937787 l 0.392447,-0.005278 21.062706,0.0105984 0.01705,19.1015417 4.342121,-12.6586364 C 105.01908,2.9855225 109.25613,-5.6250029e-7 114.24798,-5.6250029e-7 Z M 33.193265,10.522828 H 15.944601 l -0.226386,0.0042 c -3.230349,0.119285 -5.821614,2.780514 -5.821614,6.033228 0,3.255866 2.590825,5.907045 5.821584,6.025871 l 4.97452,0.0675 c 3.935909,0.126999 7.082013,3.341427 7.082013,7.288723 0,3.950005 -3.145661,7.171569 -7.081987,7.298851 l -0.241967,0.0039 H 3.1707646 l -0.00691,5.466931 17.2694004,-0.01751 0.306336,-0.0036 C 27.663465,42.52876 33.2246,36.884172 33.2246,29.952459 c 0,-6.945338 -5.561135,-12.590571 -12.485011,-12.752742 l -0.306336,-0.0036 -4.484966,0.02442 -0.09457,-0.007 c -0.308608,-0.04623 -0.545482,-0.315248 -0.545482,-0.639484 0,-0.324236 0.236874,-0.593632 0.545482,-0.639934 l 0.09457,-0.007 17.238066,0.0037 z M 65.046985,3.8315512 H 46.613604 l -0.289355,0.00376 C 40.555572,3.9855248 35.910304,8.6140666 35.759551,14.362781 l -0.0038,0.288354 v 17.192447 l 0.0038,0.288381 c 0.150753,5.749358 4.796021,10.384383 10.564698,10.534806 l 0.289355,0.0038 18.356427,0.0074 -0.0037,-5.404723 -18.352741,0.0065 -0.218234,-0.0042 c -2.821886,-0.109749 -5.111947,-2.33918 -5.227531,-5.204757 l -0.0046,-0.227524 V 14.591692 l 0.0044,-0.213653 c 0.112722,-2.76287 2.401002,-5.0135263 5.222187,-5.1271281 l 0.223803,-0.0045 18.433381,0.00323 z m 49.196845,-0.6326783 -0.28482,0.00428 c -3.68518,0.1109703 -6.77172,2.3675391 -7.83665,5.4524171 l -0.0799,0.2452398 -10.238569,30.0270612 6e-5,-21.728054 H 80.460744 v 5.401037 h 9.921023 V 37.265815 H 77.964591 l -0.217452,-0.0043 C 74.935489,37.149756 72.658598,34.8808 72.543683,32.066427 l -0.0046,-0.223291 V 14.650674 l 0.0043,-0.217897 c 0.111279,-2.816653 2.370625,-5.0686888 5.183674,-5.182326 l 0.223204,-0.0045 h 17.85374 V 3.8315512 H 77.908834 l -0.289223,0.00376 C 71.853524,3.9855248 67.208298,8.6140666 67.057545,14.362781 l -0.0038,0.288354 v 17.192447 l 0.0038,0.288381 c 0.152041,5.749358 4.836551,10.384383 10.603495,10.534806 l 0.289233,0.0038 17.853695,0.0074 -6e-5,-0.005 4.467522,8.9e-4 11.17993,-32.8292328 0.0767,-0.168902 c 0.49036,-0.9966195 1.51384,-1.6839747 2.70605,-1.6839747 1.18566,0 2.21416,0.6873552 2.7086,1.6780976 l 0.0774,0.1678671 9.30908,27.4281968 h -14.41658 v 5.407488 h 21.9396 L 122.44193,8.914175 122.36469,8.6748088 c -1.05606,-3.0889483 -4.14974,-5.3571265 -7.82918,-5.4714125 z m 0.004,6.0479997 c -0.72125,0 -1.33892,0.4323164 -1.61364,1.0496814 l -0.0535,0.135035 -10.95966,32.241714 h 6.39729 l 3.88397,-11.45343 -0.0105,4.815145 h 12.69043 L 115.9155,10.431589 c -0.23409,-0.6884348 -0.89442,-1.1847164 -1.66764,-1.1847164 z m -18.444441,1.2616704 -17.853695,0.0037 -0.206588,0.0051 c -2.121596,0.104265 -3.822987,1.805656 -3.927252,3.927253 l -0.0051,0.206588 9.21e-4,17.191986 0.0051,0.207022 c 0.104265,2.126226 1.805657,3.836708 3.927253,3.941536 l 0.206588,0.0051 h 11.15182 V 23.880036 h -8.628019 v 5.419008 h 3.202099 l 0.01014,1.272269 H 80.49853 l -0.128877,-0.0066 c -0.593507,-0.06149 -1.069135,-0.542455 -1.129914,-1.136671 l -0.0066,-0.128954 -0.02857,-12.102911 c 0.0022,-0.106542 0.04978,-1.152885 1.112499,-1.278133 l 0.167143,-0.01165 h 15.32578 z M 33.186353,3.8315512 H 15.948287 l -0.306025,0.00358 C 8.7252363,3.997106 3.1569406,9.6355273 3.1569406,16.574053 c 0,6.938526 5.5682957,12.58008 12.4853214,12.742146 l 0.306025,0.0036 4.460544,0.0069 0.09102,0.0067 c 0.297875,0.04417 0.534749,0.301532 0.534749,0.619065 0,0.311668 -0.236874,0.568116 -0.534749,0.612168 l -0.09102,0.0067 -17.2449784,0.01382 0.00691,5.390438 H 20.450764 l 0.22708,-0.0042 c 3.239922,-0.118829 5.824145,-2.770089 5.824145,-6.029558 0,-3.255866 -2.584223,-5.903964 -5.824145,-6.02265 l -4.974782,-0.0569 C 11.773534,23.735138 8.6243323,20.51697 8.6243323,16.55974 c 0,-3.946392 3.1492017,-7.164786 7.0787297,-7.2919432 l 0.241539,-0.0039 17.248664,-0.00369 z M 61.124656,23.886948 H 42.477924 v 7.956634 c 0,2.210499 1.742282,4.009801 3.929376,4.116819 l 0.206304,0.005 18.35228,-0.0074 0.0037,-5.380301 -15.812167,-1.58e-4 c -0.100399,-0.0029 -1.157331,-0.05844 -1.272202,-1.112798 l -0.0099,-0.165764 h 13.249382 z m 51.187284,6.124925 -0.41,1.208 0.003,-1.207971 z m 1.92498,-5.673801 1.9091,5.67383 h -3.83408 z M 65.046985,10.512229 H 46.613604 c -2.22033,0 -4.016897,1.742283 -4.123741,3.932318 l -0.005,0.206588 -0.0065,7.949721 H 61.125116 V 17.199819 H 47.875735 l 0.0092,-0.109998 c 0.03652,-0.290167 0.217828,-1.059915 1.114776,-1.144547 l 0.16583,-0.0076 h 15.881471 z"
           id="path26"
           inkscape:connector-curvature="0" />
        <path
           d="m 129.71703,8.1280502 c 1.02114,0 1.98237,-0.3985919 2.7026,-1.1151359 0.71977,-0.7234559 1.12204,-1.6777727 1.12204,-2.6984447 0,-1.0137599 -0.40227,-1.9648511 -1.12204,-2.6883071 -0.72023,-0.71285751 -1.68146,-1.11144948 -2.7026,-1.11144948 -2.10078,0 -3.81726,1.70265588 -3.81726,3.80021738 0,1.020672 0.39859,1.9749888 1.12527,2.6984447 0.71701,0.7160832 1.67455,1.1146751 2.69199,1.1146751 m -3.27859,-3.8140414 c 0,-0.8704512 0.33547,-1.6952831 0.96077,-2.3141375 0.62254,-0.6188543 1.44737,-0.9543167 2.31782,-0.9543167 0.88105,0 1.70589,0.3359232 2.32843,0.9543167 0.61885,0.6188544 0.96169,1.4436863 0.96169,2.3141375 0,1.8072576 -1.47548,3.2753663 -3.29012,3.2753663 -0.87091,0 -1.69574,-0.3391488 -2.31782,-0.9580032 -0.62577,-0.6183935 -0.96077,-1.4399999 -0.96077,-2.3173631 z"
           id="path28"
           inkscape:connector-curvature="0" />
        <path
           d="m 128.7383,4.6356473 v 1.7966591 h -0.5525 V 2.2095353 h 1.56948 c 0.59121,0.00691 0.93727,0.00691 1.26582,0.2548224 0.31795,0.2345472 0.45112,0.58752 0.45112,0.9791999 0,0.986112 -0.80363,1.115136 -1.00731,1.1570688 l 1.18887,1.83168 h -0.6677 l -1.15707,-1.7966591 h -1.09071 m 0,-0.4649473 h 1.12204 c 0.17879,0 0.34653,0 0.51426,-0.041933 0.39168,-0.094464 0.5313,-0.3741696 0.5313,-0.6815232 0,-0.1119743 -0.0106,-0.3949055 -0.25206,-0.5907455 -0.22072,-0.1852416 -0.49997,-0.1783296 -0.82483,-0.1783296 h -1.09071 z"
           id="path30"
           inkscape:connector-curvature="0" />
      </g>
    </g>
  </g>
</svg>
