<?xml version="1.0" encoding="UTF-8" standalone="no"?>
<svg
   xmlns:dc="http://purl.org/dc/elements/1.1/"
   xmlns:cc="http://creativecommons.org/ns#"
   xmlns:rdf="http://www.w3.org/1999/02/22-rdf-syntax-ns#"
   xmlns:svg="http://www.w3.org/2000/svg"
   xmlns="http://www.w3.org/2000/svg"
   xmlns:sodipodi="http://sodipodi.sourceforge.net/DTD/sodipodi-0.dtd"
   xmlns:inkscape="http://www.inkscape.org/namespaces/inkscape"
   width="500"
   height="200"
   viewBox="0 0 500 200"
   version="1.1"
   id="svg117"
   sodipodi:docname="sg-1000.svg"
   inkscape:version="0.92.5 (2060ec1f9f, 2020-04-08)">
  <metadata
     id="metadata123">
    <rdf:RDF>
      <cc:Work
         rdf:about="">
        <dc:format>image/svg+xml</dc:format>
        <dc:type
           rdf:resource="http://purl.org/dc/dcmitype/StillImage" />
        <dc:title>syslogo</dc:title>
      </cc:Work>
    </rdf:RDF>
  </metadata>
  <defs
     id="defs121" />
  <sodipodi:namedview
     pagecolor="#ffffff"
     bordercolor="#666666"
     borderopacity="1"
     objecttolerance="10"
     gridtolerance="10"
     guidetolerance="10"
     inkscape:pageopacity="0"
     inkscape:pageshadow="2"
     inkscape:window-width="1366"
     inkscape:window-height="740"
     id="namedview119"
     showgrid="false"
     inkscape:pagecheckerboard="true"
     inkscape:zoom="1.2479968"
     inkscape:cx="234"
     inkscape:cy="63.5"
     inkscape:window-x="0"
     inkscape:window-y="0"
     inkscape:window-maximized="1"
     inkscape:current-layer="svg117" />
  <title
     id="title93">syslogo</title>
  <g
     id="Page-1"
     style="fill:none;fill-rule:evenodd;stroke:none;stroke-width:1"
     transform="matrix(1.0548925,0,0,1.0548925,3.2051364,39.635208)">
    <g
       id="syslogo"
       style="fill:#ffffff;fill-rule:nonzero">
      <g
         id="SG-1000_logo"
         transform="translate(0,69)">
        <path
           d="m 0,22.62368 v -9.405 C 0,4.8586799 4.17924,0.67867999 12.54,0.67867999 H 68.969999 V 13.21868 H 12.54 v 9.405 h 43.889999 c 8.36,0 12.54,4.18 12.54,12.54 v 9.404999 c 0,8.36076 -4.18,12.54 -12.54,12.54 H 0 v -12.54 H 56.429999 V 35.16368 H 12.54 C 4.17924,35.16368 0,30.98444 0,22.62368 Z"
           id="Path"
           inkscape:connector-curvature="0" />
        <path
           d="M 75.239999,44.568679 V 13.21868 c 0,-8.3600001 4.17924,-12.54000001 12.54,-12.54000001 H 144.21 V 13.21868 H 87.779999 V 44.568679 H 131.67 V 35.16368 h -25.08 v -12.54 h 37.62 V 57.108679 H 87.779999 c -8.36076,0 -12.54,-4.17924 -12.54,-12.54 z"
           id="path96"
           inkscape:connector-curvature="0" />
        <polygon
           id="polygon98"
           points="172.425,22.62368 172.425,35.16368 150.48,35.16368 150.48,22.62368 " />
        <polygon
           id="polygon100"
           points="213.18,0.67867999 213.18,44.568679 231.99,44.568679 231.99,57.108679 178.695,57.108679 178.695,44.568679 197.505,44.568679 197.505,13.21868 178.695,13.21868 178.695,0.67867999 " />
        <path
           d="m 310.365,44.568679 c 0,8.36076 -4.18,12.54 -12.54,12.54 H 250.8 c -8.36076,0 -12.54,-4.17924 -12.54,-12.54 V 13.21868 c 0,-8.3600001 4.17924,-12.54000001 12.54,-12.54000001 h 47.025 c 8.36,0 12.54,4.17999991 12.54,12.54000001 z m -12.54,0 V 13.21868 H 250.8 v 31.349999 z"
           id="Shape"
           inkscape:connector-curvature="0" />
        <path
           d="m 388.74,44.568679 c 0,8.36076 -4.18,12.54 -12.54001,12.54 H 329.175 c -8.36,0 -12.54,-4.17924 -12.54,-12.54 V 13.21868 c 0,-8.3600001 4.18,-12.54000001 12.54,-12.54000001 h 47.02499 c 8.36001,0 12.54001,4.17999991 12.54001,12.54000001 z m -12.54001,0 V 13.21868 H 329.175 v 31.349999 z"
           id="path103"
           inkscape:connector-curvature="0" />
        <path
           d="m 467.11499,44.568679 c 0,8.36076 -4.18,12.54 -12.54,12.54 H 407.55 c -8.36001,0 -12.54001,-4.17924 -12.54001,-12.54 V 13.21868 c 0,-8.3600001 4.18,-12.54000001 12.54001,-12.54000001 h 47.02499 c 8.36,0 12.54,4.17999991 12.54,12.54000001 z m -12.54,0 V 13.21868 H 407.55 v 31.349999 z"
           id="path105"
           inkscape:connector-curvature="0" />
      </g>
      <g
         id="SEGA_logo">
        <path
           d="m 114.24798,-5.6250029e-7 c 4.90406,0 9.0051,2.76672706250029 10.84671,6.75189976250029 l 0.11941,0.2674663 13.02589,38.8601835 -60.313646,-0.0069 c -3.685637,0 -7.039218,-1.420584 -9.550592,-3.737084 l -0.266291,-0.251601 v 3.984998 l -21.534565,0.0037 c -5.415302,0 -10.109586,-3.056814 -12.4524,-7.525713 l -0.146332,-0.287151 -0.05944,0.170957 c -1.94304,4.07808 -7.461664,7.4949 -13.099465,7.633838 L 20.478872,45.86895 0,45.872637 V 27.400548 l 4.5826557,0.0074 C 1.8768383,24.586904 0.0419328,20.779313 0.0419328,16.580965 0.05240351,7.621681 7.0778316,0.81901184 15.708324,0.66350213 l 0.316456,-0.002716 20.325887,-0.0175104 V 5.0651128 c 2.472712,-2.605155 5.973809,-4.29326525 9.837589,-4.39946471 l 0.387562,-0.005322 h 21.565899 l -0.0074,3.92601581 c 2.433659,-2.3727067 5.707984,-3.83945336 9.357619,-3.937787 l 0.392447,-0.005278 21.062706,0.0105984 0.01705,19.1015417 4.342121,-12.6586364 C 105.01908,2.9855225 109.25613,-5.6250029e-7 114.24798,-5.6250029e-7 Z M 33.193265,10.522828 H 15.944601 l -0.226386,0.0042 c -3.230349,0.119285 -5.821614,2.780514 -5.821614,6.033228 0,3.255866 2.590825,5.907045 5.821584,6.025871 l 4.97452,0.0675 c 3.935909,0.126999 7.082013,3.341427 7.082013,7.288723 0,3.950005 -3.145661,7.171569 -7.081987,7.298851 l -0.241967,0.0039 H 3.1707646 l -0.00691,5.466931 17.2694004,-0.01751 0.306336,-0.0036 C 27.663465,42.52876 33.2246,36.884172 33.2246,29.952459 c 0,-6.945338 -5.561135,-12.590571 -12.485011,-12.752742 l -0.306336,-0.0036 -4.484966,0.02442 -0.09457,-0.007 c -0.308608,-0.04623 -0.545482,-0.315248 -0.545482,-0.639484 0,-0.324236 0.236874,-0.593632 0.545482,-0.639934 l 0.09457,-0.007 17.238066,0.0037 z M 65.046985,3.8315512 H 46.613604 l -0.289355,0.00376 C 40.555572,3.9855248 35.910304,8.6140666 35.759551,14.362781 l -0.0038,0.288354 v 17.192447 l 0.0038,0.288381 c 0.150753,5.749358 4.796021,10.384383 10.564698,10.534806 l 0.289355,0.0038 18.356427,0.0074 -0.0037,-5.404723 -18.352741,0.0065 -0.218234,-0.0042 c -2.821886,-0.109749 -5.111947,-2.33918 -5.227531,-5.204757 l -0.0046,-0.227524 V 14.591692 l 0.0044,-0.213653 c 0.112722,-2.76287 2.401002,-5.0135263 5.222187,-5.1271281 l 0.223803,-0.0045 18.433381,0.00323 z m 49.196845,-0.6326783 -0.28482,0.00428 c -3.68518,0.1109703 -6.77172,2.3675391 -7.83665,5.4524171 l -0.0799,0.2452398 -10.238569,30.0270612 6e-5,-21.728054 H 80.460744 v 5.401037 h 9.921023 V 37.265815 H 77.964591 l -0.217452,-0.0043 C 74.935489,37.149756 72.658598,34.8808 72.543683,32.066427 l -0.0046,-0.223291 V 14.650674 l 0.0043,-0.217897 c 0.111279,-2.816653 2.370625,-5.0686888 5.183674,-5.182326 l 0.223204,-0.0045 h 17.85374 V 3.8315512 H 77.908834 l -0.289223,0.00376 C 71.853524,3.9855248 67.208298,8.6140666 67.057545,14.362781 l -0.0038,0.288354 v 17.192447 l 0.0038,0.288381 c 0.152041,5.749358 4.836551,10.384383 10.603495,10.534806 l 0.289233,0.0038 17.853695,0.0074 -6e-5,-0.005 4.467522,8.9e-4 11.17993,-32.8292328 0.0767,-0.168902 c 0.49036,-0.9966195 1.51384,-1.6839747 2.70605,-1.6839747 1.18566,0 2.21416,0.6873552 2.7086,1.6780976 l 0.0774,0.1678671 9.30908,27.4281968 h -14.41658 v 5.407488 h 21.9396 L 122.44193,8.914175 122.36469,8.6748088 c -1.05606,-3.0889483 -4.14974,-5.3571265 -7.82918,-5.4714125 z m 0.004,6.0479997 c -0.72125,0 -1.33892,0.4323164 -1.61364,1.0496814 l -0.0535,0.135035 -10.95966,32.241714 h 6.39729 l 3.88397,-11.45343 -0.0105,4.815145 h 12.69043 L 115.9155,10.431589 c -0.23409,-0.6884348 -0.89442,-1.1847164 -1.66764,-1.1847164 z m -18.444441,1.2616704 -17.853695,0.0037 -0.206588,0.0051 c -2.121596,0.104265 -3.822987,1.805656 -3.927252,3.927253 l -0.0051,0.206588 9.21e-4,17.191986 0.0051,0.207022 c 0.104265,2.126226 1.805657,3.836708 3.927253,3.941536 l 0.206588,0.0051 h 11.15182 V 23.880036 h -8.628019 v 5.419008 h 3.202099 l 0.01014,1.272269 H 80.49853 l -0.128877,-0.0066 c -0.593507,-0.06149 -1.069135,-0.542455 -1.129914,-1.136671 l -0.0066,-0.128954 -0.02857,-12.102911 c 0.0022,-0.106542 0.04978,-1.152885 1.112499,-1.278133 l 0.167143,-0.01165 h 15.32578 z M 33.186353,3.8315512 H 15.948287 l -0.306025,0.00358 C 8.7252363,3.997106 3.1569406,9.6355273 3.1569406,16.574053 c 0,6.938526 5.5682957,12.58008 12.4853214,12.742146 l 0.306025,0.0036 4.460544,0.0069 0.09102,0.0067 c 0.297875,0.04417 0.534749,0.301532 0.534749,0.619065 0,0.311668 -0.236874,0.568116 -0.534749,0.612168 l -0.09102,0.0067 -17.2449784,0.01382 0.00691,5.390438 H 20.450764 l 0.22708,-0.0042 c 3.239922,-0.118829 5.824145,-2.770089 5.824145,-6.029558 0,-3.255866 -2.584223,-5.903964 -5.824145,-6.02265 l -4.974782,-0.0569 C 11.773534,23.735138 8.6243323,20.51697 8.6243323,16.55974 c 0,-3.946392 3.1492017,-7.164786 7.0787297,-7.2919432 l 0.241539,-0.0039 17.248664,-0.00369 z M 61.124656,23.886948 H 42.477924 v 7.956634 c 0,2.210499 1.742282,4.009801 3.929376,4.116819 l 0.206304,0.005 18.35228,-0.0074 0.0037,-5.380301 -15.812167,-1.58e-4 c -0.100399,-0.0029 -1.157331,-0.05844 -1.272202,-1.112798 l -0.0099,-0.165764 h 13.249382 z m 51.187284,6.124925 -0.41,1.208 0.003,-1.207971 z m 1.92498,-5.673801 1.9091,5.67383 h -3.83408 z M 65.046985,10.512229 H 46.613604 c -2.22033,0 -4.016897,1.742283 -4.123741,3.932318 l -0.005,0.206588 -0.0065,7.949721 H 61.125116 V 17.199819 H 47.875735 l 0.0092,-0.109998 c 0.03652,-0.290167 0.217828,-1.059915 1.114776,-1.144547 l 0.16583,-0.0076 h 15.881471 z"
           id="path108"
           inkscape:connector-curvature="0" />
        <path
           d="m 129.71703,8.1280502 c 1.02114,0 1.98237,-0.3985919 2.7026,-1.1151359 0.71977,-0.7234559 1.12204,-1.6777727 1.12204,-2.6984447 0,-1.0137599 -0.40227,-1.9648511 -1.12204,-2.6883071 -0.72023,-0.71285751 -1.68146,-1.11144948 -2.7026,-1.11144948 -2.10078,0 -3.81726,1.70265588 -3.81726,3.80021738 0,1.020672 0.39859,1.9749888 1.12527,2.6984447 0.71701,0.7160832 1.67455,1.1146751 2.69199,1.1146751 m -3.27859,-3.8140414 c 0,-0.8704512 0.33547,-1.6952831 0.96077,-2.3141375 0.62254,-0.6188543 1.44737,-0.9543167 2.31782,-0.9543167 0.88105,0 1.70589,0.3359232 2.32843,0.9543167 0.61885,0.6188544 0.96169,1.4436863 0.96169,2.3141375 0,1.8072576 -1.47548,3.2753663 -3.29012,3.2753663 -0.87091,0 -1.69574,-0.3391488 -2.31782,-0.9580032 -0.62577,-0.6183935 -0.96077,-1.4399999 -0.96077,-2.3173631 z"
           id="path110"
           inkscape:connector-curvature="0" />
        <path
           d="m 128.7383,4.6356473 v 1.7966591 h -0.5525 V 2.2095353 h 1.56948 c 0.59121,0.00691 0.93727,0.00691 1.26582,0.2548224 0.31795,0.2345472 0.45112,0.58752 0.45112,0.9791999 0,0.986112 -0.80363,1.115136 -1.00731,1.1570688 l 1.18887,1.83168 h -0.6677 l -1.15707,-1.7966591 h -1.09071 m 0,-0.4649473 h 1.12204 c 0.17879,0 0.34653,0 0.51426,-0.041933 0.39168,-0.094464 0.5313,-0.3741696 0.5313,-0.6815232 0,-0.1119743 -0.0106,-0.3949055 -0.25206,-0.5907455 -0.22072,-0.1852416 -0.49997,-0.1783296 -0.82483,-0.1783296 h -1.09071 z"
           id="path112"
           inkscape:connector-curvature="0" />
      </g>
    </g>
  </g>
</svg>
