<?xml version="1.0" encoding="UTF-8" standalone="no"?>
<!-- Created with Inkscape (http://www.inkscape.org/) -->

<svg
   xmlns:dc="http://purl.org/dc/elements/1.1/"
   xmlns:cc="http://creativecommons.org/ns#"
   xmlns:rdf="http://www.w3.org/1999/02/22-rdf-syntax-ns#"
   xmlns:svg="http://www.w3.org/2000/svg"
   xmlns="http://www.w3.org/2000/svg"
   xmlns:sodipodi="http://sodipodi.sourceforge.net/DTD/sodipodi-0.dtd"
   xmlns:inkscape="http://www.inkscape.org/namespaces/inkscape"
   width="500"
   height="200"
   viewBox="0 0 132.29166 52.916668"
   version="1.1"
   id="svg8"
   inkscape:version="0.92.5 (2060ec1f9f, 2020-04-08)"
   sodipodi:docname="sgb.svg">
  <defs
     id="defs2" />
  <sodipodi:namedview
     id="base"
     pagecolor="#ffffff"
     bordercolor="#666666"
     borderopacity="1.0"
     inkscape:pageopacity="0.0"
     inkscape:pageshadow="2"
     inkscape:zoom="1.0750233"
     inkscape:cx="484.78825"
     inkscape:cy="247.82545"
     inkscape:document-units="mm"
     inkscape:current-layer="layer1"
     showgrid="false"
     units="px"
     inkscape:window-width="1366"
     inkscape:window-height="739"
     inkscape:window-x="0"
     inkscape:window-y="0"
     inkscape:window-maximized="1" />
  <metadata
     id="metadata5">
    <rdf:RDF>
      <cc:Work
         rdf:about="">
        <dc:format>image/svg+xml</dc:format>
        <dc:type
           rdf:resource="http://purl.org/dc/dcmitype/StillImage" />
        <dc:title></dc:title>
      </cc:Work>
    </rdf:RDF>
  </metadata>
  <g
     inkscape:label="Layer 1"
     inkscape:groupmode="layer"
     id="layer1"
     transform="translate(0,-244.08332)">
    <path
       inkscape:connector-curvature="0"
       id="path97"
       d="m 12.067369,292.5424 c -3.0728935,-0.51854 -5.8691841,-2.37043 -7.2121374,-4.77632 -1.2503112,-2.23991 -1.3405732,-5.40141 -0.242576,-8.49635 0.3961661,-1.11666 0.7744362,-1.78365 1.7156351,-3.02509 1.9270331,-2.54176 4.7536663,-4.21101 8.4885413,-5.01287 1.789892,-0.38428 5.67122,-0.42036 7.17835,-0.0667 0.545359,0.12796 1.026974,0.28996 1.070258,0.36 0.08247,0.13343 -0.455028,3.87596 -0.587435,4.0902 -0.04738,0.0767 -0.657807,0.027 -1.609102,-0.13083 -4.201794,-0.69726 -7.502853,0.20684 -10.214563,2.79759 -0.8106776,0.77451 -1.1178667,1.18177 -1.5516998,2.05712 l -0.5409183,1.09142 v 1.55133 c 0,1.49498 0.015342,1.58251 0.4222552,2.40949 0.6605279,1.3424 1.8439599,2.18782 3.5529819,2.53817 0.949375,0.19463 2.339997,0.082 3.091374,-0.25037 0.555519,-0.24573 0.622986,-0.37567 0.736703,-1.41887 0.01743,-0.15992 -0.275045,-0.20323 -1.732531,-0.25653 -0.964427,-0.0353 -1.79092,-0.1018 -1.836654,-0.14781 -0.08889,-0.0894 0.140918,-1.96983 0.318975,-2.60994 0.05887,-0.21163 0.143375,-0.60124 0.187786,-0.8658 l 0.08075,-0.48099 h 4.098731 4.098732 l -0.0023,0.35273 c -0.0013,0.194 -0.08474,0.93209 -0.18542,1.64018 -0.254778,1.79176 -0.382344,4.13499 -0.216206,3.9715 0.07168,-0.0705 1.426524,-3.41831 3.010747,-7.43948 1.584223,-4.02118 3.102436,-7.78742 3.373807,-8.36943 l 0.493402,-1.0582 h 3.048093 c 1.676448,0 3.048089,0.0447 3.048089,0.0993 0,0.0546 0.402485,3.38796 0.894412,7.40743 0.931165,7.60841 1.232715,9.59195 1.447348,9.52041 0.07009,-0.0234 1.26805,-3.50327 2.662139,-7.73314 1.394087,-4.22987 2.674599,-8.03699 2.84558,-8.46027 l 0.310872,-0.7696 h 2.42878 2.428781 l 0.726708,4.79669 c 0.758596,5.00718 0.949078,5.95398 1.182213,5.87626 0.07709,-0.0257 0.931032,-2.08464 1.897649,-4.57545 0.966618,-2.49079 1.811652,-4.5829 1.877853,-4.64909 0.07498,-0.075 0.301049,0.10012 0.599511,0.46436 0.494807,0.60385 1.174128,1.1015 1.503608,1.1015 0.103576,0 0.808531,-0.69264 1.566565,-1.5392 1.307444,-1.46014 1.403541,-1.53921 1.870668,-1.53921 h 0.492423 l 0.07665,0.80167 c 0.04216,0.44092 0.278308,4.1783 0.524788,8.30529 0.246478,4.127 0.50281,7.90765 0.569625,8.40149 0.06681,0.49382 0.138288,1.53279 0.158825,2.30881 l 0.03733,1.41093 -2.269757,0.0383 -2.269758,0.0383 -0.06547,-0.4231 c -0.03602,-0.23271 -0.217834,-2.87621 -0.404044,-5.87446 -0.186212,-2.99824 -0.358071,-5.47155 -0.381907,-5.49625 -0.109454,-0.11343 -0.29779,0.15124 -0.508148,0.71412 -0.126093,0.3374 -0.398836,0.98131 -0.606101,1.43089 -0.207262,0.4496 -1.117684,2.74851 -2.023162,5.10871 -0.905476,2.36021 -1.684965,4.33003 -1.7322,4.37738 -0.137644,0.138 -3.926444,0.18804 -4.060844,0.0536 -0.06636,-0.0664 -0.494445,-2.51046 -0.95129,-5.43132 -0.456846,-2.92086 -0.856369,-5.3828 -0.887832,-5.47099 -0.190418,-0.53371 -0.290043,-0.27548 -2.506232,6.4963 -0.771056,2.35603 -1.436671,4.31852 -1.479146,4.36108 -0.04247,0.0426 -1.847379,0.0773 -4.010901,0.0773 h -3.933674 l -0.387185,-3.0784 -0.387185,-3.07841 -2.263617,-0.035 -2.263617,-0.035 -0.343731,0.74045 c -0.189053,0.40725 -0.739781,1.77215 -1.223843,3.03314 -0.48406,1.26096 -0.916113,2.3288 -0.960117,2.37294 -0.044,0.0441 -1.128701,0.0802 -2.410439,0.0802 h -2.33043 l 0.04124,-0.35273 c 0.02268,-0.194 -2.57e-4,-0.35273 -0.05087,-0.35273 -0.05066,0 -0.631486,0.17277 -1.290717,0.38394 -2.17475,0.69664 -4.481222,0.93348 -6.224976,0.63922 z m 18.664174,-10.90187 c 0.145151,-0.13212 -0.329831,-3.85419 -0.4927,-3.86091 -0.118751,-0.004 -0.71764,1.35288 -1.381746,3.13263 -0.239919,0.64297 -0.252125,0.76094 -0.0894,0.86399 0.206926,0.13103 1.791045,0.0216 1.963837,-0.13571 z m 73.004287,10.70485 c -0.14109,-0.0325 -0.574,-0.12081 -0.96201,-0.19626 -0.388,-0.0754 -1.24717,-0.39742 -1.90925,-0.71549 -3.246104,-1.55944 -4.765974,-4.87218 -4.254368,-9.27286 0.4247,-3.65314 1.644802,-6.49971 3.697078,-8.6255 1.97912,-2.05001 4.54878,-3.00861 7.18044,-2.67864 3.49019,0.43764 5.88855,2.52573 6.7589,5.8845 0.41152,1.58811 0.47127,2.65849 0.26077,4.67165 -0.41022,3.92317 -1.3533,6.15508 -3.51593,8.32084 -1.67689,1.67932 -3.51817,2.49436 -5.90883,2.61557 -0.59964,0.0304 -1.20571,0.0287 -1.3468,-0.003 z m 2.96394,-4.83757 c 2.67474,-1.36962 4.24607,-6.9255 2.85594,-10.09795 -0.54386,-1.24115 -1.89017,-2.17688 -3.13549,-2.17928 -1.06226,-0.002 -1.78264,0.32391 -2.76603,1.2516 -1.38815,1.30951 -2.15752,3.18043 -2.40948,5.85931 -0.25737,2.73629 0.43571,4.47628 2.10632,5.28794 0.88533,0.43014 2.37701,0.37597 3.34874,-0.12162 z m -45.997518,4.43807 c 0,-0.47312 2.537083,-18.96669 2.68922,-19.60256 0.06752,-0.28219 0.158431,-0.70066 0.202032,-0.92993 l 0.07927,-0.41688 h 6.010786 c 3.305933,0 6.032663,0.0433 6.059404,0.0962 0.02676,0.0528 -0.09972,1.04858 -0.281032,2.2126 l -0.329646,2.11641 -0.577199,0.0867 c -0.317464,0.0477 -1.975818,0.091 -3.685235,0.0962 l -3.108031,0.009 -0.07382,0.35274 c -0.0406,0.19401 -0.138656,0.60832 -0.217904,0.9207 -0.07925,0.31237 -0.148144,0.94729 -0.153097,1.41092 l -0.0091,0.84299 3.110475,0.0344 c 2.61585,0.029 3.110474,0.0639 3.110474,0.22033 0,0.55242 -0.557503,4.12578 -0.660678,4.23467 -0.07104,0.075 -1.410403,0.15491 -3.223763,0.1924 l -3.102227,0.0641 -0.09465,0.51307 c -0.291041,1.57767 -0.466184,2.91779 -0.402886,3.08274 0.06102,0.15902 0.625212,0.18805 3.653942,0.18805 2.747186,0 3.596077,0.0374 3.643143,0.16034 0.03374,0.0882 -0.06907,1.08356 -0.228495,2.21197 l -0.289854,2.05163 -0.384802,0.0817 c -0.21164,0.0449 -2.938917,0.0885 -6.060614,0.0969 l -5.675815,0.0152 z m 18.72906,0.0543 c 0.0029,-0.42056 2.662425,-19.39303 2.841521,-20.27176 l 0.151457,-0.7431 4.947888,0.0377 4.947888,0.0377 0.76519,0.3848 c 0.982987,0.49433 2.108855,1.60131 2.548442,2.50567 0.54702,1.12542 0.656477,2.04523 0.413035,3.47109 -0.250616,1.46788 -0.669222,2.37229 -1.351963,2.92096 -0.283157,0.22755 -0.514832,0.47043 -0.514832,0.53972 0,0.0693 0.226397,0.41241 0.503099,0.76246 0.825382,1.04419 1.178565,1.89915 1.254464,3.03672 0.08964,1.34352 -0.114323,2.32566 -0.751986,3.62108 -0.663103,1.3471 -2.018732,2.79203 -3.069865,3.2721 -1.495616,0.68305 -1.814592,0.71359 -7.454419,0.71359 h -5.231994 l 0.0019,-0.28861 z m 10.353872,-4.58138 c 0.575304,-0.26113 1.230462,-1.11688 1.381464,-1.80437 0.09285,-0.42276 -0.143503,-0.94202 -0.640212,-1.40647 -0.34041,-0.3183 -0.360566,-0.32067 -2.732919,-0.32067 h -2.389973 l -0.222727,0.962 c -0.278045,1.20095 -0.419948,2.36377 -0.320183,2.62375 0.06444,0.16792 0.404139,0.1977 2.228529,0.19531 1.846153,-0.002 2.229849,-0.0379 2.696021,-0.24955 z m -0.0601,-8.34893 c 0.618265,-0.1717 1.323361,-0.87592 1.513966,-1.51209 0.125463,-0.41877 0.112965,-0.57088 -0.08041,-0.9784 -0.3976,-0.83787 -0.762539,-0.96428 -2.785533,-0.96484 -1.71363,-4.6e-4 -1.76974,0.008 -1.877493,0.28813 -0.29305,0.76143 -0.605331,2.77963 -0.48046,3.10506 0.06272,0.16344 0.349625,0.19769 1.65121,0.1971 0.866413,-3.9e-4 1.792835,-0.0611 2.058722,-0.13496 z m 26.007026,13.00875 c 0.002,-0.13133 0.31509,-2.54146 0.69614,-5.35584 l 0.69284,-5.11708 -1.86757,-4.05401 c -1.02716,-2.22972 -2.06649,-4.54465 -2.30963,-5.14429 -0.24313,-0.59965 -0.47301,-1.16366 -0.51083,-1.25336 -0.0545,-0.12943 0.45398,-0.1559 2.46373,-0.12827 l 2.53249,0.0348 1.17039,2.6936 c 1.30833,3.01108 1.30997,3.01428 1.54884,3.01428 0.0944,0 0.82045,-0.99567 1.61329,-2.21261 0.79285,-1.21693 1.64737,-2.51563 1.89894,-2.886 l 0.45742,-0.6734 h 2.53933 c 1.39663,0 2.53933,0.0313 2.53933,0.0694 0,0.0382 -1.68343,2.70776 -3.74097,5.93235 l -3.74098,5.8629 -0.62076,4.60759 c -0.34142,2.53416 -0.65351,4.64032 -0.69354,4.68035 -0.04,0.04 -1.10755,0.0943 -2.37228,0.12054 -2.17499,0.0451 -2.29932,0.0348 -2.29618,-0.19102 z M 53.519671,272.84146 c -0.564639,-0.51012 -0.618713,-0.75571 -0.301706,-1.37032 0.465822,-0.90311 2.646763,-3.67611 5.114724,-6.50318 0.708234,-0.81129 1.427445,-1.67366 1.598247,-1.91639 0.170803,-0.24273 0.617345,-0.78515 0.992319,-1.2054 0.374971,-0.42023 0.65512,-0.79071 0.622554,-0.82329 -0.03256,-0.0325 -0.924703,0.41138 -1.982521,0.98655 -2.328495,1.26607 -5.938515,3.01386 -7.53496,3.64804 -1.569402,0.62344 -2.177758,0.6262 -2.85655,0.013 -0.914737,-0.82641 -1.128436,-1.69824 -0.647395,-2.64115 0.145216,-0.28466 0.246227,-0.56682 0.224467,-0.62705 -0.02176,-0.0602 -0.991944,0.43529 -2.155966,1.10117 -4.375244,2.50285 -8.109263,4.15818 -9.379876,4.15818 -0.622768,0 -0.706114,-0.0389 -1.207929,-0.56254 -0.296452,-0.3094 -0.64072,-0.82888 -0.765041,-1.1544 -0.214434,-0.56149 -0.214708,-0.62152 -0.0054,-1.16969 0.65964,-1.72725 4.328924,-5.39475 9.217886,-9.21342 0.692313,-0.54076 1.283283,-0.98319 1.313266,-0.98319 0.101598,0 1.211857,1.58954 1.211857,1.735 0,0.0795 -0.732512,0.71342 -1.627802,1.40882 -3.42669,2.66161 -7.484198,6.27969 -7.887525,7.03332 -0.211993,0.3961 0.08609,0.45382 1.032752,0.19991 3.47403,-0.93174 11.062561,-5.35029 16.034609,-9.33644 0.44991,-0.3607 0.88281,-0.65458 0.962002,-0.65307 0.13299,0.002 0.468643,0.42736 1.039538,1.31569 l 0.229057,0.35643 -1.600397,1.63171 c -2.507484,2.55655 -4.462492,4.95523 -4.462492,5.47523 0,0.18566 0.08392,0.20668 0.545135,0.13656 1.02567,-0.15596 2.610092,-1.04835 10.101025,-5.68911 3.544815,-2.19608 5.595326,-3.29072 5.925239,-3.16308 0.261254,0.10113 1.258335,1.39315 1.256215,1.62787 -7.76e-4,0.0912 -0.724899,0.94506 -1.609053,1.89745 -2.836984,3.05589 -3.060022,3.38767 -1.694815,2.52111 0.886963,-0.563 4.037136,-2.13799 5.668709,-2.83419 1.429459,-0.60996 3.987229,-1.45838 5.440784,-1.80477 1.155988,-0.27546 1.730288,-0.14776 2.311284,0.51396 1.22443,1.39456 0.710574,2.6187 -2.153901,5.13123 -1.70841,1.49849 -2.858752,2.35205 -4.414171,3.27536 -3.007403,1.78519 -5.940365,2.26638 -7.935295,1.30184 -0.443773,-0.21455 -0.988373,-0.51151 -1.210226,-0.6599 l -0.403367,-0.26982 -0.947219,0.75273 c -1.595389,1.26779 -4.095146,3.63924 -5.55672,5.27151 -1.575446,1.75943 -1.698618,1.81299 -2.501378,1.08776 z m 14.3014,-7.93897 c 1.619006,-0.34132 3.895879,-1.59888 6.10165,-3.37003 1.342327,-1.07783 2.934291,-2.77095 2.76479,-2.94045 -0.220138,-0.22014 -3.842102,1.03473 -6.190094,2.14462 -2.319557,1.09644 -5.947155,3.28662 -5.947155,3.59062 0,0.13213 0.64248,0.49367 1.153574,0.64915 0.504557,0.15347 1.144679,0.13113 2.117235,-0.0739 z m -63.622558,4.1678 c -0.3108052,-0.32442 -0.3787372,-0.51638 -0.419885,-1.18648 -0.026998,-0.43969 0.013253,-0.96096 0.089452,-1.15838 0.2010348,-0.52086 0.8867031,-0.76883 1.9584927,-0.70827 0.7287024,0.0411 0.9240192,0.10392 1.2268179,0.394 l 0.3601351,0.34504 2.3698382,-0.18872 c 9.2301391,-0.73499 18.6484391,-2.15584 21.8022871,-3.2891 0.904877,-0.32515 1.113054,-0.64192 0.679048,-1.03327 -0.419424,-0.37822 -6.67313,-2.36237 -10.427339,-3.30835 -1.361577,-0.34309 -1.870063,-0.62864 -2.428447,-1.36373 -0.576856,-0.75942 -0.897127,-1.71644 -0.902307,-2.69624 -0.0059,-1.12235 0.267196,-1.40246 2.356636,-2.41689 2.075579,-1.00769 4.16558,-1.71045 7.297203,-2.45363 5.300478,-1.25789 9.303485,-1.50306 12.204368,-0.74748 1.124136,0.2928 1.375188,0.4478 1.833188,1.13184 0.67616,1.00987 0.891819,2.3088 0.553517,3.33385 -0.232681,0.70504 -1.376297,1.65732 -2.899743,2.41459 -2.044656,1.01637 -2.622376,0.8584 -2.622376,-0.71702 0,-1.04705 0.167483,-1.21172 1.74807,-1.7187 2.833462,-0.90882 3.106493,-1.6068 0.871874,-2.22885 -1.532186,-0.42651 -4.915152,-0.39924 -7.49409,0.0603 -3.86147,0.68824 -7.52439,1.76031 -10.38705,3.0401 -2.067811,0.92444 -2.345542,1.2344 -1.445579,1.61339 0.26455,0.11141 1.750843,0.5507 3.302874,0.97619 3.945612,1.08174 6.938854,1.99979 7.711923,2.3653 0.900198,0.42562 1.720289,1.17849 2.098576,1.92656 0.257229,0.50867 0.316906,0.81896 0.319456,1.66103 0.0028,0.9182 -0.03689,1.09597 -0.350184,1.5694 -0.220763,0.33361 -0.581684,0.64822 -0.962001,0.83861 -2.793545,1.39845 -9.824945,2.49068 -23.224814,3.60765 -4.9544962,0.41299 -4.7618411,0.41531 -5.2199363,-0.0628 z m 74.885904,-1.14519 c -0.62182,-0.28231 -1.257896,-1.0859 -1.463282,-1.84864 -0.188461,-0.69989 0.110807,-1.90496 0.723581,-2.9137 1.374308,-2.26236 5.119514,-5.29037 8.695741,-7.03055 2.269082,-1.10413 3.113258,-1.35752 4.529782,-1.35968 1.121286,-0.002 1.196172,0.016 1.662466,0.39311 0.618891,0.50051 1.075498,1.35605 1.075498,2.01514 0,0.6094 -0.297601,0.92507 -2.229401,2.36471 -3.295462,2.45589 -6.382868,3.76704 -8.929826,3.79228 -0.599645,0.006 -1.310335,-0.0634 -1.579311,-0.1541 -0.59085,-0.19925 -0.736025,-0.0976 -1.505826,1.05528 -0.5655,0.84685 -0.640299,1.36466 -0.253069,1.75189 0.362089,0.36209 0.784471,0.43417 2.039559,0.34804 3.500702,-0.24018 8.945504,-2.92449 14.702547,-7.24838 2.129803,-1.59962 4.810164,-3.89258 4.807674,-4.11282 -0.001,-0.11382 -0.17505,-0.46185 -0.38616,-0.77342 -0.68666,-1.01338 -0.88447,-2.16042 -0.46739,-2.71022 0.8538,-1.12547 2.60206,-0.68151 3.30632,0.83962 0.29814,0.64396 0.29667,0.97516 -0.008,1.85847 l -0.24301,0.70405 0.43504,0.70688 c 0.23927,0.38879 0.82111,1.13801 1.29298,1.66495 1.01653,1.13513 1.39195,1.88457 1.28357,2.56233 -0.0415,0.25938 -0.39393,1.23095 -0.78323,2.15903 -0.38931,0.92808 -0.70783,1.77591 -0.70783,1.88407 0,0.25368 0.55391,0.25619 2.31855,0.0101 3.97326,-0.55317 8.17738,-0.84031 12.28203,-0.83889 4.39996,0.001 7.14448,0.27011 9.29921,0.91004 0.77528,0.23025 0.89681,0.31025 1.05821,0.6965 0.24569,0.58803 0.23556,1.52749 -0.0192,1.78227 -0.14995,0.14996 -0.50298,0.20747 -1.37887,0.22462 -2.04314,0.04 -2.39584,-0.0406 -2.39584,-0.54732 0,-0.12997 -0.10102,-0.28828 -0.22448,-0.3518 -0.48794,-0.25106 -4.04417,-0.47046 -7.47155,-0.46095 -3.91237,0.0112 -6.85475,0.25845 -12.05709,1.01463 -3.2798,0.47673 -3.15593,0.49407 -3.86921,-0.54145 -0.61587,-0.89407 -0.56634,-1.18286 0.63529,-3.70441 1.1278,-2.3666 1.24957,-2.71139 1.12828,-3.19464 -0.0857,-0.3414 -1.77823,-2.34279 -2.07879,-2.45813 -0.101,-0.0388 -0.70938,0.39228 -1.42696,1.01102 -6.929232,5.9747 -12.912658,9.60139 -17.413634,10.55479 -1.336795,0.28316 -3.7046,0.25338 -4.384133,-0.0551 z m 6.350749,-6.62108 c 2.496274,-0.83409 7.269899,-3.98649 7.020573,-4.63623 -0.105689,-0.2754 -1.381938,-0.16205 -2.548752,0.22637 -1.914309,0.63726 -5.206809,2.55304 -6.693878,3.89491 -0.529583,0.47788 -0.607809,0.60148 -0.448934,0.70937 0.356765,0.24227 1.644636,0.14853 2.670991,-0.19442 z"
       style="fill:#ffffff;stroke-width:0.12826699" />
    <path
       inkscape:connector-curvature="0"
       id="path95"
       d="m 12.067369,292.5424 c -3.0728935,-0.51854 -5.8691841,-2.37043 -7.2121374,-4.77632 -1.2503112,-2.23991 -1.3405732,-5.40141 -0.242576,-8.49635 0.3961661,-1.11666 0.7744362,-1.78365 1.7156351,-3.02509 1.9270331,-2.54176 4.7536663,-4.21101 8.4885413,-5.01287 1.789892,-0.38428 5.67122,-0.42036 7.17835,-0.0667 0.545359,0.12796 1.026974,0.28996 1.070258,0.36 0.08247,0.13343 -0.455028,3.87596 -0.587435,4.0902 -0.04738,0.0767 -0.657807,0.027 -1.609102,-0.13083 -4.201794,-0.69726 -7.502853,0.20684 -10.214563,2.79759 -0.8106776,0.77451 -1.1178667,1.18177 -1.5516998,2.05712 l -0.5409183,1.09142 v 1.55133 c 0,1.49498 0.015342,1.58251 0.4222552,2.40949 0.6605279,1.3424 1.8439599,2.18782 3.5529819,2.53817 0.949375,0.19463 2.339997,0.082 3.091374,-0.25037 0.555519,-0.24573 0.622986,-0.37567 0.736703,-1.41887 0.01743,-0.15992 -0.275045,-0.20323 -1.732531,-0.25653 -0.964427,-0.0353 -1.79092,-0.1018 -1.836654,-0.14781 -0.08889,-0.0894 0.140918,-1.96983 0.318975,-2.60994 0.05887,-0.21163 0.143375,-0.60124 0.187786,-0.8658 l 0.08075,-0.48099 h 4.098731 4.098732 l -0.0023,0.35273 c -0.0013,0.194 -0.08474,0.93209 -0.18542,1.64018 -0.254778,1.79176 -0.382344,4.13499 -0.216206,3.9715 0.07168,-0.0705 1.426524,-3.41831 3.010747,-7.43948 1.584223,-4.02118 3.102436,-7.78742 3.373807,-8.36943 l 0.493402,-1.0582 h 3.048093 c 1.676448,0 3.048089,0.0447 3.048089,0.0993 0,0.0546 0.402485,3.38796 0.894412,7.40743 0.931165,7.60841 1.232715,9.59195 1.447348,9.52041 0.07009,-0.0234 1.26805,-3.50327 2.662139,-7.73314 1.394087,-4.22987 2.674599,-8.03699 2.84558,-8.46027 l 0.310872,-0.7696 h 2.42878 2.428781 l 0.726708,4.79669 c 0.758596,5.00718 0.949078,5.95398 1.182213,5.87626 0.07709,-0.0257 0.931032,-2.08464 1.897649,-4.57545 0.966618,-2.49079 1.811652,-4.5829 1.877853,-4.64909 0.07498,-0.075 0.301049,0.10012 0.599511,0.46436 0.494807,0.60385 1.174128,1.1015 1.503608,1.1015 0.103576,0 0.808531,-0.69264 1.566565,-1.5392 1.307444,-1.46014 1.403541,-1.53921 1.870668,-1.53921 h 0.492423 l 0.07665,0.80167 c 0.04216,0.44092 0.278308,4.1783 0.524788,8.30529 0.246478,4.127 0.50281,7.90765 0.569625,8.40149 0.06681,0.49382 0.138288,1.53279 0.158825,2.30881 l 0.03733,1.41093 -2.269757,0.0383 -2.269758,0.0383 -0.06547,-0.4231 c -0.03602,-0.23271 -0.217834,-2.87621 -0.404044,-5.87446 -0.186212,-2.99824 -0.358071,-5.47155 -0.381907,-5.49625 -0.109454,-0.11343 -0.29779,0.15124 -0.508148,0.71412 -0.126093,0.3374 -0.398836,0.98131 -0.606101,1.43089 -0.207262,0.4496 -1.117684,2.74851 -2.023162,5.10871 -0.905476,2.36021 -1.684965,4.33003 -1.7322,4.37738 -0.137644,0.138 -3.926444,0.18804 -4.060844,0.0536 -0.06636,-0.0664 -0.494445,-2.51046 -0.95129,-5.43132 -0.456846,-2.92086 -0.856369,-5.3828 -0.887832,-5.47099 -0.190418,-0.53371 -0.290043,-0.27548 -2.506232,6.4963 -0.771056,2.35603 -1.436671,4.31852 -1.479146,4.36108 -0.04247,0.0426 -1.847379,0.0773 -4.010901,0.0773 h -3.933674 l -0.387185,-3.0784 -0.387185,-3.07841 -2.263617,-0.035 -2.263617,-0.035 -0.343731,0.74045 c -0.189053,0.40725 -0.739781,1.77215 -1.223843,3.03314 -0.48406,1.26096 -0.916113,2.3288 -0.960117,2.37294 -0.044,0.0441 -1.128701,0.0802 -2.410439,0.0802 h -2.33043 l 0.04124,-0.35273 c 0.02268,-0.194 -2.57e-4,-0.35273 -0.05087,-0.35273 -0.05066,0 -0.631486,0.17277 -1.290717,0.38394 -2.17475,0.69664 -4.481222,0.93348 -6.224976,0.63922 z m 18.664174,-10.90187 c 0.145151,-0.13212 -0.329831,-3.85419 -0.4927,-3.86091 -0.118751,-0.004 -0.71764,1.35288 -1.381746,3.13263 -0.239919,0.64297 -0.252125,0.76094 -0.0894,0.86399 0.206926,0.13103 1.791045,0.0216 1.963837,-0.13571 z m 73.004287,10.70485 c -0.14109,-0.0325 -0.574,-0.12081 -0.96201,-0.19626 -0.388,-0.0754 -1.24717,-0.39742 -1.90925,-0.71549 -3.246104,-1.55944 -4.765974,-4.87218 -4.254368,-9.27286 0.4247,-3.65314 1.644802,-6.49971 3.697078,-8.6255 1.97912,-2.05001 4.54878,-3.00861 7.18044,-2.67864 3.49019,0.43764 5.88855,2.52573 6.7589,5.8845 0.41152,1.58811 0.47127,2.65849 0.26077,4.67165 -0.41022,3.92317 -1.3533,6.15508 -3.51593,8.32084 -1.67689,1.67932 -3.51817,2.49436 -5.90883,2.61557 -0.59964,0.0304 -1.20571,0.0287 -1.3468,-0.003 z m 2.96394,-4.83757 c 2.67474,-1.36962 4.24607,-6.9255 2.85594,-10.09795 -0.54386,-1.24115 -1.89017,-2.17688 -3.13549,-2.17928 -1.06226,-0.002 -1.78264,0.32391 -2.76603,1.2516 -1.38815,1.30951 -2.15752,3.18043 -2.40948,5.85931 -0.25737,2.73629 0.43571,4.47628 2.10632,5.28794 0.88533,0.43014 2.37701,0.37597 3.34874,-0.12162 z m -45.997518,4.43807 c 0,-0.47312 2.537083,-18.96669 2.68922,-19.60256 0.06752,-0.28219 0.158431,-0.70066 0.202032,-0.92993 l 0.07927,-0.41688 h 6.010786 c 3.305933,0 6.032663,0.0433 6.059404,0.0962 0.02676,0.0528 -0.09972,1.04858 -0.281032,2.2126 l -0.329646,2.11641 -0.577199,0.0867 c -0.317464,0.0477 -1.975818,0.091 -3.685235,0.0962 l -3.108031,0.009 -0.07382,0.35274 c -0.0406,0.19401 -0.138656,0.60832 -0.217904,0.9207 -0.07925,0.31237 -0.148144,0.94729 -0.153097,1.41092 l -0.0091,0.84299 3.110475,0.0344 c 2.61585,0.029 3.110474,0.0639 3.110474,0.22033 0,0.55242 -0.557503,4.12578 -0.660678,4.23467 -0.07104,0.075 -1.410403,0.15491 -3.223763,0.1924 l -3.102227,0.0641 -0.09465,0.51307 c -0.291041,1.57767 -0.466184,2.91779 -0.402886,3.08274 0.06102,0.15902 0.625212,0.18805 3.653942,0.18805 2.747186,0 3.596077,0.0374 3.643143,0.16034 0.03374,0.0882 -0.06907,1.08356 -0.228495,2.21197 l -0.289854,2.05163 -0.384802,0.0817 c -0.21164,0.0449 -2.938917,0.0885 -6.060614,0.0969 l -5.675815,0.0152 z m 18.72906,0.0543 c 0.0029,-0.42056 2.662425,-19.39303 2.841521,-20.27176 l 0.151457,-0.7431 4.947888,0.0377 4.947888,0.0377 0.76519,0.3848 c 0.982987,0.49433 2.108855,1.60131 2.548442,2.50567 0.54702,1.12542 0.656477,2.04523 0.413035,3.47109 -0.250616,1.46788 -0.669222,2.37229 -1.351963,2.92096 -0.283157,0.22755 -0.514832,0.47043 -0.514832,0.53972 0,0.0693 0.226397,0.41241 0.503099,0.76246 0.825382,1.04419 1.178565,1.89915 1.254464,3.03672 0.08964,1.34352 -0.114323,2.32566 -0.751986,3.62108 -0.663103,1.3471 -2.018732,2.79203 -3.069865,3.2721 -1.495616,0.68305 -1.814592,0.71359 -7.454419,0.71359 h -5.231994 l 0.0019,-0.28861 z m 10.353872,-4.58138 c 0.575304,-0.26113 1.230462,-1.11688 1.381464,-1.80437 0.09285,-0.42276 -0.143503,-0.94202 -0.640212,-1.40647 -0.34041,-0.3183 -0.360566,-0.32067 -2.732919,-0.32067 h -2.389973 l -0.222727,0.962 c -0.278045,1.20095 -0.419948,2.36377 -0.320183,2.62375 0.06444,0.16792 0.404139,0.1977 2.228529,0.19531 1.846153,-0.002 2.229849,-0.0379 2.696021,-0.24955 z m -0.0601,-8.34893 c 0.618265,-0.1717 1.323361,-0.87592 1.513966,-1.51209 0.125463,-0.41877 0.112965,-0.57088 -0.08041,-0.9784 -0.3976,-0.83787 -0.762539,-0.96428 -2.785533,-0.96484 -1.71363,-4.6e-4 -1.76974,0.008 -1.877493,0.28813 -0.29305,0.76143 -0.605331,2.77963 -0.48046,3.10506 0.06272,0.16344 0.349625,0.19769 1.65121,0.1971 0.866413,-3.9e-4 1.792835,-0.0611 2.058722,-0.13496 z m 26.007026,13.00875 c 0.002,-0.13133 0.31509,-2.54146 0.69614,-5.35584 l 0.69284,-5.11708 -1.86757,-4.05401 c -1.02716,-2.22972 -2.06649,-4.54465 -2.30963,-5.14429 -0.24313,-0.59965 -0.47301,-1.16366 -0.51083,-1.25336 -0.0545,-0.12943 0.45398,-0.1559 2.46373,-0.12827 l 2.53249,0.0348 1.17039,2.6936 c 1.30833,3.01108 1.30997,3.01428 1.54884,3.01428 0.0944,0 0.82045,-0.99567 1.61329,-2.21261 0.79285,-1.21693 1.64737,-2.51563 1.89894,-2.886 l 0.45742,-0.6734 h 2.53933 c 1.39663,0 2.53933,0.0313 2.53933,0.0694 0,0.0382 -1.68343,2.70776 -3.74097,5.93235 l -3.74098,5.8629 -0.62076,4.60759 c -0.34142,2.53416 -0.65351,4.64032 -0.69354,4.68035 -0.04,0.04 -1.10755,0.0943 -2.37228,0.12054 -2.17499,0.0451 -2.29932,0.0348 -2.29618,-0.19102 z"
       style="fill:#ffffff;stroke-width:0.12826699" />
  </g>
</svg>
