<?xml version="1.0" encoding="UTF-8" standalone="no"?>
<!-- Created with Inkscape (http://www.inkscape.org/) -->

<svg
   xmlns:dc="http://purl.org/dc/elements/1.1/"
   xmlns:cc="http://creativecommons.org/ns#"
   xmlns:rdf="http://www.w3.org/1999/02/22-rdf-syntax-ns#"
   xmlns:svg="http://www.w3.org/2000/svg"
   xmlns="http://www.w3.org/2000/svg"
   xmlns:xlink="http://www.w3.org/1999/xlink"
   xmlns:sodipodi="http://sodipodi.sourceforge.net/DTD/sodipodi-0.dtd"
   xmlns:inkscape="http://www.inkscape.org/namespaces/inkscape"
   version="1.1"
   width="500"
   height="200"
   id="svg2"
   sodipodi:docname="Swhite.svg"
   inkscape:version="0.92.5 (2060ec1f9f, 2020-04-08)">
  <sodipodi:namedview
     pagecolor="#ffffff"
     bordercolor="#666666"
     borderopacity="1"
     objecttolerance="10"
     gridtolerance="10"
     guidetolerance="10"
     inkscape:pageopacity="0"
     inkscape:pageshadow="2"
     inkscape:window-width="1366"
     inkscape:window-height="743"
     id="namedview54"
     showgrid="false"
     inkscape:pagecheckerboard="true"
     inkscape:zoom="0.90081194"
     inkscape:cx="47.659554"
     inkscape:cy="20.543861"
     inkscape:window-x="0"
     inkscape:window-y="0"
     inkscape:window-maximized="1"
     inkscape:current-layer="svg2" />
  <title
     id="title3095">The Simpsons Logo</title>
  <defs
     id="defs4" />
  <metadata
     id="metadata7">
    <rdf:RDF>
      <cc:Work
         rdf:about="">
        <dc:format>image/svg+xml</dc:format>
        <dc:type
           rdf:resource="http://purl.org/dc/dcmitype/StillImage" />
        <dc:title>The Simpsons Logo</dc:title>
      </cc:Work>
    </rdf:RDF>
  </metadata>
  <g
     transform="translate(-246.99831,-178.35736)"
     id="layer1"
     style="display:none">
    <image
       xlink:href="file:///C:/Documents%20and%20Settings/admin/Desktop/The_Simpsons_Logo_2009.jpg"
       x="233.21429"
       y="290.93362"
       width="185"
       height="100"
       id="image2993" />
    <image
       xlink:href="file:///C:/Documents%20and%20Settings/admin/Desktop/The_Simpsons_Logo_2009.jpg"
       x="233.21429"
       y="290.93362"
       width="185"
       height="100"
       id="image3000" />
  </g>
  <path
     inkscape:connector-curvature="0"
     style="display:inline;fill:#ffffff;fill-opacity:1;stroke:none;stroke-width:2.65222001"
     id="path3930"
     d="m 69.89887,180.47569 c -28.621967,-7.05306 -38.811688,-13.49483 -32.04699,-20.25952 3.426588,-3.42662 5.948663,-3.46868 19.320123,-0.32244 23.543735,5.53977 59.140717,4.45504 59.140717,-1.80216 0,-1.22803 -15.4007,-12.35622 -34.223769,-24.72927 C 63.265906,120.98924 44.709618,106.72868 40.852813,101.67212 27.987159,84.804369 29.495982,67.607506 45.121641,53.018307 54.119669,44.617134 79.099342,33.823076 97.43422,30.413355 c 13.47126,-2.505235 17.64119,-2.261628 27.81892,1.62528 9.70925,3.70799 12.55837,6.348063 15.07273,13.966591 2.59336,7.858052 2.41927,10.07544 -1.06461,13.559344 -3.78519,3.785168 -4.40825,3.525224 -6.83243,-2.850819 -3.33799,-8.779565 -11.32525,-10.90638 -34.232071,-9.115176 -19.852133,1.552344 -40.647292,9.794595 -46.77148,18.538116 -6.652326,9.497521 -5.098019,21.841298 4.064209,32.27649 4.47398,5.095569 22.232449,18.819799 39.463261,30.498299 17.230841,11.67849 32.037521,23.08055 32.903761,25.3379 2.32883,6.06889 -3.65641,17.20273 -11.39707,21.20092 -7.38609,3.81503 -38.044132,7.12404 -46.56057,5.02539 z" />
  <path
     inkscape:connector-curvature="0"
     style="display:inline;fill:#ffffff;fill-opacity:1;stroke:none;stroke-width:2.65222001"
     id="path3928"
     d="m 108.13505,174.59825 c 6.96518,-0.7306 0.005,-4.22265 -9.874001,-4.95408 -26.57445,-1.96753 -34.037957,-2.87718 -38.308005,-4.66889 -2.880154,-1.20854 -4.641387,-0.77405 -4.641387,1.14496 0,1.70087 1.377907,2.24092 3.062016,1.20008 1.964023,-1.21384 2.339153,-0.72286 1.046196,1.36924 -1.487923,2.4075 -3.336629,1.84395 -7.059337,-2.1519 -4.778691,-5.12935 -14.610365,-5.1027 -11.437594,0.031 0.821791,1.32966 2.503244,1.79391 3.736581,1.03166 1.233335,-0.76225 2.642725,-0.21933 3.132006,1.20615 0.489255,1.42563 3.544188,2.99364 6.788729,3.48449 3.24454,0.49082 6.461155,1.4544 7.148027,2.14129 1.096853,1.09683 36.330881,1.22289 46.406769,0.16603 z" />
  <path
     inkscape:connector-curvature="0"
     style="display:inline;fill:#ffffff;fill-opacity:1;stroke:none;stroke-width:2.65222001"
     id="path3926"
     d="m 119.03294,165.50007 c 2.22548,-1.77701 3.86654,-4.7228 3.64681,-6.5462 -0.21988,-1.8234 -0.54872,-4.57922 -0.73107,-6.12403 -0.18247,-1.54482 -1.39997,-2.1484 -2.70584,-1.34134 -1.30585,0.80707 -3.02871,-0.2379 -3.82851,-2.3222 -1.7312,-4.51146 -12.36271,-10.69585 -12.36271,-7.19145 0,1.33991 2.08862,2.98413 4.64139,3.65384 2.55276,0.66968 6.34236,4.40327 8.42135,8.29686 3.42425,6.41301 3.29944,7.44277 -1.32611,10.94234 -2.80835,2.1247 -3.91258,3.86309 -2.45386,3.86309 1.45872,0 4.47307,-1.45392 6.69855,-3.23091 z" />
  <path
     inkscape:connector-curvature="0"
     style="display:inline;fill:#ffffff;fill-opacity:1;stroke:none;stroke-width:2.65222001"
     id="path3924"
     d="M 88.455924,130.23719 C 71.333615,117.97862 65.920539,115.06143 65.920539,118.09244 c 0,1.33305 3.296684,3.78928 7.325963,5.45827 4.02928,1.66898 10.8919,5.94811 15.250266,9.50916 4.358367,3.56105 9.113983,6.51756 10.568036,6.57002 1.454056,0.0525 -3.319943,-4.17425 -10.60888,-9.3927 z" />
  <path
     inkscape:connector-curvature="0"
     style="display:inline;fill:#ffffff;fill-opacity:1;stroke:none;stroke-width:2.65222001"
     id="path3922"
     d="M 55.311657,105.24641 C 50.690348,99.411531 45.617129,94.637533 44.037864,94.637533 c -1.579264,0 -2.184793,-0.686583 -1.34563,-1.525747 0.839162,-0.839163 0.524636,-5.01641 -0.69894,-9.282771 -1.223575,-4.266361 -1.368466,-7.757027 -0.322005,-7.757027 1.046486,0 2.086263,-2.437046 2.31064,-5.415675 0.224378,-2.978629 3.059097,-7.562435 6.299368,-10.186275 3.591822,-2.908479 4.803329,-5.443073 3.10376,-6.493458 -3.865134,-2.388775 -16.807198,15.275648 -17.67145,24.119449 -0.91987,9.413074 2.1649,15.62163 13.819339,27.813431 12.589853,13.17038 16.389663,12.73437 5.778711,-0.66305 z" />
  <path
     inkscape:connector-curvature="0"
     style="display:inline;fill:#ffffff;fill-opacity:1;stroke:none;stroke-width:2.65222001"
     id="path3920"
     d="m 50.007216,103.9203 c 0,-0.72937 0.596749,-1.32611 1.32611,-1.32611 0.729361,0 1.32611,0.59674 1.32611,1.32611 0,0.72936 -0.596749,1.32611 -1.32611,1.32611 -0.729361,0 -1.32611,-0.59675 -1.32611,-1.32611 z" />
  <path
     inkscape:connector-curvature="0"
     style="display:inline;fill:#ffffff;fill-opacity:1;stroke:none;stroke-width:2.65222001"
     id="path3918"
     d="m 39.398336,90.659198 c 0,-0.72936 0.596749,-1.32611 1.32611,-1.32611 0.729361,0 1.32611,0.59675 1.32611,1.32611 0,0.72936 -0.596749,1.32611 -1.32611,1.32611 -0.729361,0 -1.32611,-0.59675 -1.32611,-1.32611 z" />
  <path
     inkscape:connector-curvature="0"
     style="display:inline;fill:#ffffff;fill-opacity:1;stroke:none;stroke-width:2.65222001"
     id="path3916"
     d="m 48.681106,57.506446 c 0.901542,-1.458721 2.235902,-2.65222 2.965262,-2.65222 0.72936,0 0.588501,1.193499 -0.313042,2.65222 -0.901542,1.458721 -2.235901,2.652221 -2.965261,2.652221 -0.729361,0 -0.588502,-1.1935 0.313041,-2.652221 z" />
  <path
     inkscape:connector-curvature="0"
     style="display:inline;fill:#ffffff;fill-opacity:1;stroke:none;stroke-width:2.65222001"
     id="path3914"
     d="m 136.64641,53.086071 c -0.97249,-0.972463 -1.76816,-0.176903 -1.76816,1.768155 0,1.944953 0.79567,2.740619 1.76816,1.768156 0.97246,-0.972489 0.97246,-2.563821 0,-3.536311 z" />
  <path
     inkscape:connector-curvature="0"
     style="display:inline;fill:#ffffff;fill-opacity:1;stroke:none;stroke-width:2.65222001"
     id="path3912"
     d="m 70.291319,48.158803 c 2.701604,-0.65486 11.476235,-3.008281 19.499202,-5.229833 8.022966,-2.221553 16.377459,-3.251463 18.565539,-2.288708 2.18808,0.962757 6.3683,1.967656 9.28934,2.233117 2.92108,0.265487 8.09567,1.97296 11.49911,3.794425 3.40342,1.821465 6.88149,2.618298 7.72904,1.770754 0.84755,-0.847543 0.14853,-1.540992 -1.55324,-1.540992 -1.70186,0 -2.7959,-1.253068 -2.43122,-2.784593 0.36469,-1.531524 -3.26287,-4.477451 -8.06123,-6.546474 -6.23134,-2.686938 -8.16998,-2.838592 -6.78449,-0.530683 1.46278,2.436594 0.93464,2.417711 -2.14769,-0.07692 -4.9188,-3.980903 -29.023211,-1.833267 -32.003033,2.851376 -1.087649,1.709912 -1.995849,2.06767 -2.018181,0.795003 -0.02122,-1.272642 -1.830854,-0.82813 -4.018935,0.987819 -2.188083,1.815948 -3.978331,2.412698 -3.978331,1.32611 0,-1.086588 -1.601676,-0.64632 -3.559306,0.978351 -1.957603,1.62467 -4.344602,2.168641 -5.30444,1.208828 -0.959813,-0.959838 -1.745134,-0.352718 -1.745134,1.349106 0,1.70185 -0.895125,2.952929 -1.989165,2.78019 -4.458306,-0.703953 -6.185484,0.467904 -4.561796,3.095087 1.190957,1.926971 2.784861,1.896205 5.190371,-0.100254 1.909387,-1.584648 5.682011,-3.416988 8.383589,-4.071847 z" />
  <path
     inkscape:connector-curvature="0"
     style="display:inline;fill:#ffffff;fill-opacity:1;stroke:none;stroke-width:2.65222001"
     id="path3910"
     d="m 71.22498,45.571456 c 0,-0.729361 0.596749,-1.32611 1.32611,-1.32611 0.729361,0 1.32611,0.596749 1.32611,1.32611 0,0.729361 -0.596749,1.32611 -1.32611,1.32611 -0.729361,0 -1.32611,-0.596749 -1.32611,-1.32611 z" />
  <path
     inkscape:connector-curvature="0"
     style="display:inline;fill:#ffffff;fill-opacity:1;stroke:none;stroke-width:2.65222001"
     id="path3908"
     d="m 129.57382,42.919236 c 0,-0.729361 0.59674,-1.326111 1.32611,-1.326111 0.72936,0 1.32611,0.59675 1.32611,1.326111 0,0.72936 -0.59675,1.32611 -1.32611,1.32611 -0.72937,0 -1.32611,-0.59675 -1.32611,-1.32611 z" />
  <path
     inkscape:connector-curvature="0"
     style="display:inline;fill:#ffffff;fill-opacity:1;stroke:none;stroke-width:2.65222001"
     id="path3906"
     d="m 455.05653,87.343949 c -1.17812,0.0422 -2.45036,0.216183 -3.81257,0.41441 -16.32903,2.376124 -29.92036,17.610131 -29.92036,33.567161 0,6.70282 2.39715,10.84421 10.94041,18.7313 12.5755,11.60964 11.56843,15.6904 -5.22156,21.052 -11.69809,3.73557 -14.89288,6.34722 -12.51516,10.19448 2.56234,4.14594 9.23426,3.5128 21.71505,-2.15493 10.85787,-4.93074 19.56013,-14.21644 19.56013,-20.80336 0,-1.8961 -4.77401,-8.58865 -10.60889,-14.91874 -12.32399,-13.36995 -13.07613,-18.0046 -4.14409,-26.93661 8.19557,-8.195599 16.25991,-8.528879 18.31689,-0.66306 2.07226,7.92445 7.70802,2.6117 7.70802,-7.293589 0,-7.877157 -3.77114,-11.484429 -12.01787,-11.189062 z" />
  <path
     inkscape:connector-curvature="0"
     style="display:inline;fill:#ffffff;fill-opacity:1;stroke:none;stroke-width:2.65222001"
     id="path3884"
     d="m 141.09074,156.83158 c -0.91602,-2.38709 -0.28068,-12.28492 1.41185,-21.99517 1.69257,-9.71026 3.35485,-22.42901 3.69402,-28.26389 0.42942,-7.387889 1.82451,-10.608883 4.59497,-10.608883 5.19036,0 6.27162,10.260193 3.98657,37.829833 -1.4733,17.77617 -2.78045,22.43243 -6.91921,24.6474 -3.97221,2.12589 -5.47172,1.76935 -6.7682,-1.60929 z" />
  <path
     inkscape:connector-curvature="0"
     style="display:inline;fill:#ffffff;fill-opacity:1;stroke:none;stroke-width:2.65222001"
     id="path3882"
     d="m 149.34522,136.87366 c 0.98456,-11.34072 0.73217,-12.75084 -1.19168,-6.65841 -1.34242,4.25117 -1.88734,8.62487 -1.21094,9.7193 0.67639,1.09444 -0.18593,2.46177 -1.91609,3.03852 -1.87603,0.62535 -2.39281,3.0112 -1.28021,5.91059 2.75489,7.17913 4.20258,4.07375 5.59892,-12.01 z" />
  <path
     inkscape:connector-curvature="0"
     style="display:inline;fill:#ffffff;fill-opacity:1;stroke:none;stroke-width:2.65222001"
     id="path3880"
     d="m 151.48328,116.14889 c 0.72071,-2.75598 0.28143,-6.63484 -0.97617,-8.61972 -1.55458,-2.45365 -2.29954,-0.84961 -2.32715,5.01084 -0.0454,9.64981 1.33049,11.15304 3.30332,3.60888 z" />
  <path
     inkscape:connector-curvature="0"
     style="display:inline;fill:#ffffff;fill-opacity:1;stroke:none;stroke-width:2.65222001"
     id="path3878"
     d="m 216.39207,155.88124 c -0.72803,-2.78398 -0.44287,-9.87867 0.63369,-15.76596 1.20915,-6.61238 0.88723,-11.77433 -0.84219,-13.50373 -4.06139,-4.0614 1.69205,-3.56793 6.01217,0.51567 2.87286,2.71556 3.074,2.35573 1.11199,-1.98916 -1.31743,-2.91745 -2.23609,-8.74228 -2.04141,-12.94406 l 0.35392,-7.63961 -4.71409,6.24959 c -2.59274,3.43727 -4.50557,7.32267 -4.25074,8.63419 0.25488,1.31155 -1.09542,2.95394 -3.00056,3.64978 -2.6592,0.97121 -2.50516,-1.02954 0.66306,-8.6121 2.26982,-5.43247 4.12695,-10.41124 4.12695,-11.0639 0,-0.65269 2.68538,-0.80529 5.9675,-0.33917 5.63782,0.80071 6.00983,2.21752 6.73361,25.64766 0.49446,16.00612 -0.32606,26.11614 -2.31393,28.51139 -4.21531,5.07914 -6.86964,4.65441 -8.43997,-1.35059 z" />
  <path
     inkscape:connector-curvature="0"
     style="display:inline;fill:#ffffff;fill-opacity:1;stroke:none;stroke-width:2.65222001"
     id="path3876"
     d="m 223.17001,147.68193 c 0.76291,-2.91745 0.30537,-5.30444 -1.01678,-5.30444 -1.32217,0 -2.40393,2.38699 -2.40393,5.30444 0,2.91744 0.45756,5.30444 1.01678,5.30444 0.55922,0 1.64098,-2.387 2.40393,-5.30444 z" />
  <path
     inkscape:connector-curvature="0"
     style="display:inline;fill:#ffffff;fill-opacity:1;stroke:none;stroke-width:2.65222001"
     id="path3874"
     d="m 225.05375,138.39916 c 0,-0.72936 -0.59676,-1.32611 -1.32612,-1.32611 -0.72936,0 -1.32611,0.59675 -1.32611,1.32611 0,0.72936 0.59675,1.32611 1.32611,1.32611 0.72936,0 1.32612,-0.59675 1.32612,-1.32611 z" />
  <path
     inkscape:connector-curvature="0"
     style="display:inline;fill:#ffffff;fill-opacity:1;stroke:none;stroke-width:2.65222001"
     id="path3872"
     d="m 287.04547,157.0474 c -7.24665,-5.29887 -2.65724,-12.01769 8.20888,-12.01769 11.25239,0 11.77914,-3.17407 2.73545,-16.48305 -9.81799,-14.44849 -8.763,-21.72226 4.54943,-31.365734 7.81715,-5.662701 13.60093,-7.86155 19.2286,-7.310232 10.52888,1.0315 10.58429,7.899924 0.092,11.397376 -16.92159,5.64054 -18.8485,12.0065 -7.95665,26.28646 8.36671,10.96934 8.6635,21.50499 0.72546,25.75329 -10.47133,5.60409 -22.7556,7.26952 -27.58312,3.73958 z" />
  <path
     inkscape:connector-curvature="0"
     style="display:inline;fill:#ffffff;fill-opacity:1;stroke:none;stroke-width:2.65222001"
     id="path3870"
     d="m 298.936,152.69544 c -4.68382,-2.9678 -10.22897,-2.98981 -10.22897,-0.0405 0,1.27638 3.11116,2.32069 6.91369,2.32069 4.87922,0 5.85481,-0.67096 3.31528,-2.28008 z" />
  <path
     inkscape:connector-curvature="0"
     style="display:inline;fill:#ffffff;fill-opacity:1;stroke:none;stroke-width:2.65222001"
     id="path3868"
     d="m 313.35363,143.22805 c -1.18589,-3.09039 -0.69037,-3.76254 1.68949,-2.2917 2.67346,1.65231 2.73059,0.89112 0.27721,-3.69305 -1.69968,-3.17588 -4.80248,-6.43134 -6.89513,-7.23439 -2.09269,-0.80301 -3.80485,-3.12259 -3.80485,-5.15462 0,-2.03202 -1.15605,-3.69456 -2.569,-3.69456 -1.41292,0 -1.95535,-1.59903 -1.2054,-3.55342 0.74996,-1.95437 -0.48098,-5.08425 -2.73545,-6.95529 -3.44168,-2.85633 -4.09904,-2.62834 -4.09904,1.42168 0,6.71107 13.3167,25.27905 16.6516,23.21795 1.75699,-1.08587 1.90157,-0.35863 0.40467,2.03566 -1.28086,2.04878 -2.36039,5.51531 -2.39896,7.7034 -0.0432,2.45203 -2.10517,3.68152 -5.37454,3.20468 -4.20522,-0.61332 -4.50964,-0.2395 -1.46901,1.80412 5.4465,3.66054 13.68002,-1.20345 11.52841,-6.81046 z" />
  <path
     inkscape:connector-curvature="0"
     style="display:inline;fill:#ffffff;fill-opacity:1;stroke:none;stroke-width:2.65222001"
     id="path3866"
     d="m 311.57439,114.61277 c 2.01017,0 3.65484,-1.26395 3.65484,-2.80876 0,-1.54481 -1.49187,-1.96002 -3.31527,-0.92268 -6.56051,3.73225 -12.59538,9.914 -12.45895,12.76221 0.0766,1.59731 2.01235,0.21882 4.30182,-3.06328 2.28951,-3.28212 5.80742,-5.96749 7.81756,-5.96749 z" />
  <path
     inkscape:connector-curvature="0"
     style="display:inline;fill:#ffffff;fill-opacity:1;stroke:none;stroke-width:2.65222001"
     id="path3864"
     d="m 323.18589,109.30833 c 0,-1.45873 -0.52631,-2.65223 -1.16958,-2.65223 -0.64326,0 -1.90721,1.1935 -2.80876,2.65223 -0.90154,1.45872 -0.37522,2.65222 1.16958,2.65222 1.54481,0 2.80876,-1.1935 2.80876,-2.65222 z" />
  <path
     inkscape:connector-curvature="0"
     style="display:inline;fill:#ffffff;fill-opacity:1;stroke:none;stroke-width:2.65222001"
     id="path3862"
     d="m 344.57498,116.76702 c -3.78363,0.27322 -6.10372,4.04295 -10.526,13.17822 -6.19954,12.80654 -6.8275,18.36725 -2.81799,25.85914 3.68747,6.89007 23.80564,7.23096 29.58883,0.49729 10.40814,-12.11868 6.92867,-29.96353 -7.12783,-36.63379 -4.10357,-1.94727 -6.84682,-3.0648 -9.11701,-2.90086 z m 4.72427,15.25026 c 5.6797,-0.36111 8.49277,5.14877 5.30443,11.10617 -1.68421,5.53787 -4.58465,7.09023 -7.95665,7.70802 -6.16159,1.17785 -6.50553,0.71366 -5.0558,-8.20531 1.03606,-6.37391 3.21332,-9.80098 6.54767,-10.44311 0.40289,-0.0777 0.78168,-0.14169 1.16035,-0.16577 z" />
  <path
     inkscape:connector-curvature="0"
     style="display:inline;fill:#ffffff;fill-opacity:1;stroke:none;stroke-width:2.65222001"
     id="path3858"
     d="m 333.79477,147.68196 c 0,-1.94496 0.79566,-2.74062 1.76815,-1.76816 0.97247,0.97249 0.97247,2.56382 0,3.53632 -0.97249,0.97245 -1.76815,0.17689 -1.76815,-1.76816 z" />
  <path
     inkscape:connector-curvature="0"
     style="display:inline;fill:#ffffff;fill-opacity:1;stroke:none;stroke-width:2.65222001"
     id="path3852"
     d="m 399.85719,99.941991 c -4.84409,0 -5.44434,1.072589 -3.97833,7.293609 5.98745,25.40766 3.81923,40.03637 -3.81256,25.77626 -2.20419,-4.11858 -5.75142,-6.54767 -9.69718,-6.54767 -7.09239,0 -7.76549,1.23745 -10.02871,20.55471 -1.3522,11.54135 -0.85831,13.92416 2.56934,13.92416 2.27441,0 5.24405,-2.98376 6.63055,-6.63055 2.96889,-7.80877 4.575,-8.14842 11.10617,-2.23781 4.57749,4.14257 5.24171,4.08031 11.4377,-1.74052 5.55354,-5.21729 6.63056,-8.6159 6.63056,-21.46641 0,-19.66006 -3.47097,-28.925779 -10.85754,-28.925779 z" />
  <path
     inkscape:connector-curvature="0"
     style="display:inline;fill:#ffffff;fill-opacity:1;stroke:none;stroke-width:2.65222001"
     id="path3840"
     d="m 170.48965,149.46001 c -0.82277,-2.14414 0.37605,-10.20222 2.6641,-17.90684 2.28801,-7.70462 4.16003,-16.59054 4.16003,-19.7465 0,-3.15598 2.45685,-7.96154 5.4597,-10.67905 7.45086,-6.742959 13.1366,-2.773739 19.15885,13.37463 5.65871,15.17362 3.99485,19.17941 -2.39807,5.77334 -2.578,-5.40614 -5.76894,-8.75589 -7.40727,-7.77589 -1.58304,0.9469 -1.32839,-0.1915 0.56585,-2.52969 4.51363,-5.5716 -0.18009,-8.59956 -7.36758,-4.7529 -9.44326,5.05384 -6.37689,12.26436 4.60627,10.83166 3.12541,-0.40771 9.96946,12.01169 9.0283,16.38292 -0.71441,3.31804 2.85465,2.24049 7.99885,-2.41495 6.59211,-5.96578 9.5538,-2.27659 3.52257,4.38785 -5.44801,6.01999 -11.54721,6.941 -13.28036,2.00543 -7.90414,-22.50891 -9.89391,-22.47449 -11.9156,0.20608 -1.16824,13.10637 -2.11112,15.15348 -7.32031,15.89319 -3.44563,0.48928 -6.61326,-0.80286 -7.47533,-3.04937 z" />
  <path
     inkscape:connector-curvature="0"
     style="display:inline;fill:#ffffff;fill-opacity:1;stroke:none;stroke-width:2.65222001"
     id="path3838"
     d="m 180.56349,144.36668 c 0.64078,-1.8234 0.29069,-6.29902 -0.77798,-9.94582 -1.88169,-6.42143 -2.45218,-5.31898 -3.77421,7.2936 -0.66404,6.3351 2.59148,8.23183 4.55219,2.65222 z" />
  <path
     inkscape:connector-curvature="0"
     style="display:inline;fill:#ffffff;fill-opacity:1;stroke:none;stroke-width:2.65222001"
     id="path3836"
     d="m 179.966,125.13809 c 0,-0.72937 -0.59675,-1.32612 -1.32611,-1.32612 -0.72936,0 -1.32611,0.59675 -1.32611,1.32612 0,0.72936 0.59675,1.3261 1.32611,1.3261 0.72936,0 1.32611,-0.59674 1.32611,-1.3261 z" />
  <path
     inkscape:connector-curvature="0"
     style="display:inline;fill:#ffffff;fill-opacity:1;stroke:none;stroke-width:2.65222001"
     id="path3834"
     d="m 189.68451,126.85502 c 0,-3.08764 -2.44908,-5.6139 -5.4424,-5.6139 -2.99331,0 -5.44239,2.52626 -5.44239,5.6139 0,3.08765 2.44908,5.61391 5.44239,5.61391 2.99332,0 5.4424,-2.52626 5.4424,-5.61391 z" />
  <path
     inkscape:connector-curvature="0"
     style="display:inline;fill:#ffffff;fill-opacity:1;stroke:none;stroke-width:2.65222001"
     id="path3832"
     d="m 266.83178,92.316862 c -7.70843,0.480487 -15.08591,7.381349 -17.48809,20.886228 -1.26146,7.09199 -3.40366,11.68054 -5.30443,11.27194 -5.27535,-1.13409 -6.68599,7.16819 -2.07205,12.26652 2.36498,2.61329 4.30986,6.82079 4.30986,9.36565 0,7.56349 9.18825,3.87388 10.11158,-4.06122 0.72303,-6.21372 1.82628,-6.87614 11.18906,-6.63055 14.5918,0.38262 22.45049,-7.63276 20.05742,-20.38894 -2.92227,-15.577049 -12.06714,-23.254181 -20.80335,-22.709628 z m 1.24322,10.691768 c 1.59075,0.13648 3.44016,1.98025 5.88462,5.4702 7.15669,10.21765 5.39342,15.33314 -5.30444,15.33314 -2.26922,0 -4.14673,0.22404 -5.55309,0.58018 l -4.80715,-3.31527 c 1.27978,-2.86651 2.71528,-6.45566 3.97833,-9.86295 2.11815,-5.71413 3.75649,-8.3808 5.80173,-8.2053 z" />
  <path
     inkscape:connector-curvature="0"
     style="display:inline;fill:#ffffff;fill-opacity:1;stroke:none;stroke-width:2.65222001"
     id="path3810"
     d="m 183.74288,110.8596 c -2.875,-5.02446 -1.19662,-9.13537 3.72974,-9.13537 4.92635,0 8.95702,4.11091 8.95702,9.13537 0,5.02444 -1.67837,9.13536 -3.72974,9.13536 -2.05136,0 -6.08203,-4.11092 -8.95702,-9.13536 z" />
  <path
     inkscape:connector-curvature="0"
     style="display:inline;fill:#ffffff;fill-opacity:1;stroke:none;stroke-width:2.65222001"
     id="path3808"
     d="m 190.57488,121.24334 c 0,-0.72936 0.59675,-1.32611 1.32611,-1.32611 0.72936,0 1.32611,0.59675 1.32611,1.32611 0,0.72937 -0.59675,1.32611 -1.32611,1.32611 -0.72936,0 -1.32611,-0.59674 -1.32611,-1.32611 z" />
  <path
     inkscape:connector-curvature="0"
     style="display:inline;fill:#ffffff;fill-opacity:1;stroke:none;stroke-width:2.65222001"
     id="path3806"
     d="m 207.90276,16.56353 c -2.10789,-0.01698 -4.57581,2.242107 -5.71885,6.796314 -1.60743,6.404527 -2.59241,6.791858 -15.25027,5.967495 -11.21059,-0.730103 -13.67246,-0.120835 -14.42145,3.729684 -0.97978,5.037123 0.86521,5.959434 16.32773,8.536834 l 10.19448,1.740519 -0.58017,15.084503 c -0.30315,8.297338 -0.42291,15.979626 -0.24865,17.073667 0.47379,2.975817 2.17933,2.462082 6.79631,-2.154929 2.76524,-2.765205 4.14409,-9.01296 4.14409,-18.565541 0,-14.011652 0.20943,-14.421447 7.45938,-14.421447 9.08737,0 17.91901,-5.959247 15.25026,-10.277353 -1.24116,-2.008261 -5.21106,-2.499373 -11.02329,-1.408992 -8.45071,1.585365 -9.03412,1.22705 -9.03412,-5.221558 0,-4.563357 -1.78755,-6.86232 -3.89545,-6.879196 z" />
  <path
     inkscape:connector-curvature="0"
     style="display:inline;fill:#ffffff;fill-opacity:1;stroke:none;stroke-width:2.65222001"
     id="path3800"
     d="m 265.42276,11.507735 c -2.45058,0.01273 -3.23239,2.268099 -3.23239,8.453952 0,18.014065 -2.84265,26.067956 -8.95123,25.196091 -5.07927,-0.724931 -5.54331,-2.26786 -4.80715,-16.079084 0.63117,-11.841766 -0.0357,-15.250266 -2.98376,-15.250266 -3.65921,0 -7.12783,10.602568 -7.12783,21.880816 0,2.938951 -2.08862,6.973005 -4.64138,8.868361 -3.90264,2.89763 -4.1137,4.302644 -1.32611,8.868361 1.8234,2.98648 3.31527,8.776753 3.31527,12.929573 0,4.152847 0.82052,8.362768 1.82341,9.365653 3.78658,3.786574 7.45232,-0.35569 7.708,-8.702598 0.2586,-8.442706 5.02306,-14.179883 10.36024,-12.515164 1.45871,0.455015 3.24896,5.41647 3.97833,11.023291 0.72936,5.606846 2.71618,10.637762 4.39273,11.189053 3.81787,1.255481 7.14495,-20.438698 7.04496,-45.667916 -0.0597,-15.082485 -0.84588,-18.697727 -4.39274,-19.39436 -0.42184,-0.08286 -0.81026,-0.167592 -1.16035,-0.165763 z" />
  <path
     inkscape:connector-curvature="0"
     style="display:inline;fill:#ffffff;fill-opacity:1;stroke:none;stroke-width:2.65222001"
     id="path3786"
     d="m 308.18984,11.176208 c -15.26873,0 -30.08612,19.623776 -30.08612,39.866183 0,8.531609 1.6502,12.590647 7.70801,18.648423 4.27413,4.274159 10.5217,7.772199 13.92415,7.708015 15.40012,-0.290498 39.66608,-13.958502 34.3131,-19.311478 -1.59284,-1.592844 -5.91909,-0.414833 -11.68635,3.149511 -7.38258,4.562694 -13.63473,6.236842 -19.56011,5.138677 -2.1265,-0.394109 -4.22539,-1.128035 -6.29903,-2.23781 -7.6512,-4.09479 -6.218,-9.680233 2.98375,-11.520582 4.47085,-0.894169 11.79273,-5.245031 16.24485,-9.69718 6.72656,-6.726561 7.75477,-9.463307 6.3819,-16.32773 -2.19301,-10.965074 -6.16557,-15.416029 -13.92415,-15.416029 z m -0.49729,12.017872 c 0.33385,-0.02441 0.68231,-0.03813 0.99457,0 2.27118,0.277308 3.89546,2.241988 3.89546,6.464786 0,2.876118 -7.33462,10.781488 -13.50975,15.83044 l -3.97833,-4.890032 c 0.0239,-0.310301 0.0687,-0.586519 0.0828,-0.9117 0.39112,-8.934467 7.50714,-16.129235 12.51516,-16.493494 z" />
  <path
     inkscape:connector-curvature="0"
     style="display:inline;fill:#ffffff;fill-opacity:1;stroke:none;stroke-width:2.65222001"
     id="path3834-1"
     d="m 205.7251,129.92785 c 0,-2.80464 -2.37189,-5.09937 -5.27089,-5.09937 -2.89898,0 -5.27087,2.29473 -5.27087,5.09937 0,2.80465 2.37189,5.09937 5.27087,5.09937 2.899,0 5.27089,-2.29472 5.27089,-5.09937 z" />
  <path
     inkscape:connector-curvature="0"
     style="display:inline;fill:#ffffff;fill-opacity:1;stroke:none;stroke-width:2.65222001"
     id="path3834-7"
     d="m 203.66696,120.66622 c 0,-3.59704 -2.63431,-6.54007 -5.85402,-6.54007 -3.21971,0 -5.85402,2.94303 -5.85402,6.54007 0,3.59703 2.63431,6.54006 5.85402,6.54006 3.21971,0 5.85402,-2.94303 5.85402,-6.54006 z" />
  <rect
     style="display:inline;fill:#ffffff;fill-opacity:1;stroke:none;stroke-width:2.65222001"
     id="rect3981-8"
     y="104.50905"
     x="214.90392"
     height="19.889444"
     width="8.1498213" />
  <rect
     style="display:inline;fill:#ffffff;fill-opacity:1;stroke:none;stroke-width:2.65222001"
     id="rect3981-82"
     y="122.55511"
     x="217.81458"
     height="9.2170591"
     width="8.1498213" />
  <rect
     style="display:inline;fill:#ffffff;fill-opacity:1;stroke:none;stroke-width:2.65222001"
     id="rect3981-45"
     y="113.4164"
     x="210.95782"
     height="9.2170591"
     width="8.1498213" />
  <rect
     style="display:inline;fill:#ffffff;fill-opacity:1;stroke:none;stroke-width:2.65222001"
     id="rect3981-5"
     transform="matrix(0.87620877,0.48193173,-0.48417118,0.8749733,0,0)"
     y="3.2379138"
     x="240.5144"
     height="10.066784"
     width="8.9155207" />
  <rect
     style="display:inline;fill:#ffffff;fill-opacity:1;stroke:none;stroke-width:2.65222001"
     id="rect3981-1"
     y="126.03968"
     x="200.94154"
     height="9.2170591"
     width="8.1498213" />
</svg>
