<?xml version="1.0" encoding="UTF-8" standalone="no"?>
<svg
   xmlns:dc="http://purl.org/dc/elements/1.1/"
   xmlns:cc="http://creativecommons.org/ns#"
   xmlns:rdf="http://www.w3.org/1999/02/22-rdf-syntax-ns#"
   xmlns:svg="http://www.w3.org/2000/svg"
   xmlns="http://www.w3.org/2000/svg"
   xmlns:sodipodi="http://sodipodi.sourceforge.net/DTD/sodipodi-0.dtd"
   xmlns:inkscape="http://www.inkscape.org/namespaces/inkscape"
   width="500"
   height="200"
   viewBox="0 0 500 200"
   version="1.1"
   id="svg155"
   sodipodi:docname="snes.svg"
   style="fill:none"
   inkscape:version="0.92.5 (2060ec1f9f, 2020-04-08)">
  <metadata
     id="metadata161">
    <rdf:RDF>
      <cc:Work
         rdf:about="">
        <dc:format>image/svg+xml</dc:format>
        <dc:type
           rdf:resource="http://purl.org/dc/dcmitype/StillImage" />
        <dc:title></dc:title>
      </cc:Work>
    </rdf:RDF>
  </metadata>
  <defs
     id="defs159" />
  <sodipodi:namedview
     pagecolor="#ffffff"
     bordercolor="#666666"
     borderopacity="1"
     objecttolerance="10"
     gridtolerance="10"
     guidetolerance="10"
     inkscape:pageopacity="0"
     inkscape:pageshadow="2"
     inkscape:window-width="1366"
     inkscape:window-height="740"
     id="namedview157"
     showgrid="false"
     inkscape:pagecheckerboard="true"
     inkscape:zoom="1.3426724"
     inkscape:cx="217.5"
     inkscape:cy="57"
     inkscape:window-x="0"
     inkscape:window-y="0"
     inkscape:window-maximized="1"
     inkscape:current-layer="svg155" />
  <path
     d="m 22.901069,72.880628 c 1.726211,2.87702 10.012025,17.03195 11.047752,19.44865 1.265888,2.18653 2.071453,6.09928 1.265888,9.896942 l -3.10718,17.03196 c -0.920646,4.48814 -4.833392,7.94057 -9.781864,7.94057 H 7.5953294 C 3.2222609,127.19875 0,123.63124 0,119.25818 c 0,-0.46033 0,-1.03573 0,-1.38097 L 3.7976647,95.436458 H 14.039851 L 10.70251,114.42478 c 0,0.23017 0,0.34525 0,0.34525 0,1.38096 1.150807,2.64685 2.531776,2.64685 h 5.638957 c 1.841292,0 3.452422,-1.26589 3.797664,-3.10718 l 2.186535,-12.42872 c 0.460323,-2.416692 0.11508,-3.682582 -2.071454,-7.480252 -1.726211,-3.10718 -8.746137,-16.34146 -10.81759,-20.25421 C 9.3215406,68.967886 9.0913791,66.666271 9.8969443,62.293203 L 12.658882,47.102544 c 0.920646,-4.60323 4.948472,-7.940574 9.666783,-7.940574 h 14.845417 c 4.257987,0 7.940571,3.567506 7.940571,7.940574 0,0.460323 0,0.920646 -0.115081,1.380969 L 41.198908,70.118694 H 30.84164 l 3.222261,-18.297839 c 0.115081,-0.230162 0.115081,-0.345242 0.115081,-0.345242 0,-1.380969 -1.265888,-2.531777 -2.646857,-2.531777 h -5.638957 c -1.841292,0 -3.337341,1.265888 -3.682584,2.877019 l -1.841292,9.781863 c -0.920646,5.178634 0.230162,7.59533 2.531777,11.27791 z"
     id="path125"
     inkscape:connector-curvature="0"
     style="fill:#ffffff;stroke-width:1.1508075" />
  <path
     d="m 49.484837,114.42467 c 0,0.23016 0,0.34524 0,0.34524 0,1.38097 1.150807,2.64686 2.531776,2.64686 h 5.638957 c 1.841292,0 3.337342,-1.26589 3.797665,-3.10718 L 75.147844,39.046777 H 85.620192 L 70.889856,119.25806 c -0.920646,4.48815 -4.948472,7.94057 -9.666783,7.94057 H 46.377657 c -4.257988,0 -7.710411,-3.5675 -7.710411,-7.94057 0,-0.46032 0,-1.03573 0,-1.49605 L 52.822178,39.046777 h 10.242187 z"
     id="path127"
     inkscape:connector-curvature="0"
     style="fill:#ffffff;stroke-width:1.1508075" />
  <path
     d="m 129.81108,39.046777 h 23.82172 l -1.61113,10.012025 H 138.6723 l -4.94847,27.849536 h 13.1192 l -1.72621,9.78187 h -13.23428 l -5.4088,30.726562 h 13.00413 l -1.8413,9.78186 h -23.82183 z"
     id="path129"
     inkscape:connector-curvature="0"
     style="fill:#ffffff;stroke-width:1.1508075" />
  <path
     d="M 198.62937,127.19863 214.6256,39.046777 h 10.58742 c 4.60323,47.068021 4.71831,58.576101 4.8334,67.322243 0.34524,-9.206462 1.49605,-22.210592 9.5517,-67.322243 h 10.58743 l -15.99623,88.151853 h -10.58743 c -4.48815,-46.952942 -4.60323,-56.964972 -4.71831,-65.711107 -0.34524,10.587425 -1.49605,20.714535 -9.5517,65.711107 z"
     id="path131"
     inkscape:connector-curvature="0"
     style="fill:#ffffff;stroke-width:1.1508075" />
  <path
     d="m 252.8324,127.19863 h -10.70251 l 15.99623,-88.151853 h 10.70251 z"
     id="path133"
     inkscape:connector-curvature="0"
     style="fill:#ffffff;stroke-width:1.1508075" />
  <path
     d="m 340.06361,49.058802 h -7.25009 L 318.65859,127.19863 H 307.841 l 14.27001,-78.139828 h -7.59533 l 1.8413,-10.012025 h 25.663 z"
     id="path135"
     inkscape:connector-curvature="0"
     style="fill:#ffffff;stroke-width:1.1508075" />
  <path
     d="m 346.39305,39.046777 h 23.9368 l -1.72621,10.012025 h -13.23429 l -4.94847,27.849536 h 13.1192 l -1.84129,9.78187 h -13.1192 l -5.52388,30.726562 h 13.11921 l -1.8413,9.78186 h -23.93679 z"
     id="path137"
     inkscape:connector-curvature="0"
     style="fill:#ffffff;stroke-width:1.1508075" />
  <path
     d="m 260.88806,127.19863 15.99622,-88.151853 h 10.58743 c 4.60323,47.068021 4.71831,58.576101 4.83339,67.322243 0.34524,-9.206462 1.49605,-22.210592 9.5517,-67.322243 h 10.58743 l -15.99622,88.151853 h -10.58743 c -4.48815,-46.952942 -4.60323,-56.964972 -4.71831,-65.711107 -0.46033,10.587425 -1.49605,20.714535 -9.5517,65.711107 z"
     id="path139"
     inkscape:connector-curvature="0"
     style="fill:#ffffff;stroke-width:1.1508075" />
  <path
     d="m 361.35355,127.19863 15.99622,-88.151853 h 10.58743 c 4.60323,47.068021 4.71831,58.576101 4.83339,67.322243 0.34525,-9.206462 1.49605,-22.210592 9.55171,-67.322243 h 10.58742 l -15.88114,88.151853 h -10.58743 c -4.48815,-46.952942 -4.60323,-56.964972 -4.71831,-65.711107 -0.34524,10.587425 -1.49605,20.714535 -9.5517,65.711107 z"
     id="path141"
     inkscape:connector-curvature="0"
     style="fill:#ffffff;stroke-width:1.1508075" />
  <path
     d="M 76.183455,127.19863 92.179679,39.046777 h 23.131231 c 4.37307,0 7.94057,3.567503 7.94057,7.940571 0,0.460323 -0.11508,0.920646 -0.23016,1.380969 l -5.63896,31.301961 c -0.80556,4.60323 -4.71831,8.05566 -9.5517,8.05566 H 94.020971 L 86.770884,127.19863 Z M 104.26316,77.828988 c 1.84129,0 3.33734,-1.26589 3.68258,-2.87702 l 4.37307,-22.901067 c 0,-0.11508 0,-0.345242 0,-0.345242 0,-1.380969 -1.15081,-2.531776 -2.53178,-2.531776 h -8.74613 l -5.408798,28.770185 h 8.631058 z m 68.24288,13.34937 c 0,-0.11508 0,-0.23016 0,-0.34524 0,-1.38097 -1.15081,-2.53178 -2.53178,-2.53178 h -8.51597 l -6.90485,38.897292 h -10.7025 L 159.617,39.046777 h 23.59155 c 4.37307,0 7.94057,3.567503 8.05565,7.940571 0,0.460323 -0.11508,0.920646 -0.23016,1.49605 l -4.94847,27.73446 c -0.69048,3.68258 -3.22226,6.32944 -6.78976,7.36517 2.99209,1.15081 4.37306,4.02782 4.02782,7.25009 0,0.34524 0,0.92064 -0.11508,1.38096 l -6.32944,34.754392 h -10.81759 z m -0.5754,-13.34937 c 1.84129,0 3.33734,-1.26589 3.68258,-2.9921 l 4.14291,-22.785987 c 0,-0.230161 0,-0.345242 0,-0.345242 0,-1.380969 -1.15081,-2.531776 -2.64686,-2.531776 h -8.51597 l -5.17864,28.770185 h 8.51598 z M 420.8503,39.046777 h 23.93679 c 4.37307,0 7.94057,3.567503 7.94057,7.940571 0,0.460323 -0.11508,0.920646 -0.23016,1.380969 l -12.88904,70.889743 c -0.80557,4.48815 -4.71831,7.94057 -9.5517,7.94057 h -25.31777 z m 5.75403,78.369993 c 1.84129,0 3.33734,-1.26589 3.68259,-3.10718 l 11.39299,-62.373769 c 0.11508,-0.230162 0.11508,-0.345243 0.11508,-0.345243 0,-1.380969 -1.15081,-2.531776 -2.64686,-2.531776 h -9.5517 l -12.42872,68.357968 z m 42.81004,-78.369993 h 14.84542 c 4.25799,0 7.82549,3.567503 7.82549,7.940571 0,0.460323 0,0.920646 -0.11508,1.380969 l -12.65888,70.774663 c -0.92065,4.48815 -4.94848,7.94057 -9.78187,7.94057 h -14.73033 c -4.37307,0 -7.82549,-3.5675 -7.82549,-7.94057 0,-0.46032 0,-1.03573 0,-1.49605 l 12.65888,-70.659582 c 1.15081,-4.488149 5.17863,-7.940571 9.78186,-7.940571 z m -11.39299,75.723133 c 0,1.38097 1.1508,2.64686 2.53177,2.64686 h 5.63896 c 1.95637,0 3.33734,-1.26589 3.79766,-3.10718 l 11.27792,-62.373769 c 0,-0.230162 0,-0.345243 0,-0.345243 0,-1.380969 -1.15081,-2.531776 -2.53178,-2.531776 h -5.75404 c -1.72621,0 -3.33734,1.265888 -3.68258,2.877019 l -11.27791,62.488849 c 0,0.23016 0,0.34524 0,0.34524 z"
     id="path143"
     inkscape:connector-curvature="0"
     style="fill:#ffffff;stroke-width:1.1508075" />
  <path
     d="m 162.26385,154.81801 0.69049,-5.98431 c 0.11508,-0.92065 0.34524,-1.95638 0.46032,-2.87702 0.11508,-0.46032 0.23016,-1.61102 0.23016,-1.95626 -0.11508,0.46032 -0.46032,1.49594 -0.69048,1.95626 -0.34524,0.92064 -0.69049,1.95637 -1.15081,2.87702 l -2.64686,5.98431 z"
     id="path145"
     inkscape:connector-curvature="0"
     style="fill:#ffffff;stroke-width:1.1508075" />
  <path
     d="m 116.11647,145.38127 h -2.64685 l -1.49605,5.75404 h 2.76194 c 1.1508,-0.11508 2.30161,-0.92064 2.87701,-2.9921 0.57541,-2.30161 -0.11508,-2.76194 -1.49605,-2.76194 z"
     id="path147"
     inkscape:connector-curvature="0"
     style="fill:#ffffff;stroke-width:1.1508075" />
  <path
     d="m 0.92070237,135.59941 v 34.40926 H 492.89084 v -34.40926 z m 22.44068963,9.78186 h -6.329441 l -1.380969,5.29372 h 5.869233 l -0.80568,3.10718 h -5.869119 l -1.726211,6.44464 h 6.444522 l -0.805565,3.10718 H 8.8612751 l 5.4087379,-20.82973 h 9.896944 z m 22.555942,17.83764 H 42.23475 l -0.805681,-7.48025 c -0.230161,-2.41681 -0.345127,-5.06367 -0.345127,-8.28593 -0.345242,1.72621 -0.690484,3.79766 -1.150807,5.9842 -0.460323,2.07157 -0.920761,4.14302 -1.381084,5.86923 l -1.035727,3.91275 h -3.452423 l 5.408796,-20.82973 h 3.682584 l 0.690484,7.59532 c 0.230161,2.4167 0.345357,4.94859 0.345357,8.28593 0.345243,-1.84129 0.805566,-3.91274 1.150808,-5.98431 0.460323,-1.95637 0.920531,-4.02783 1.380854,-5.86912 l 1.035726,-4.02782 h 3.452423 z m 28.53991,-17.83764 h -4.027711 l -4.60323,17.83764 h -3.452422 l 4.603229,-17.83764 h -4.143022 l 0.805566,-2.99209 H 75.37789 Z m 22.325665,0 h -6.329441 l -1.380969,5.29372 h 5.869118 l -0.805565,3.10718 h -5.869118 l -1.726211,6.44464 h 6.329441 l -0.805566,3.10718 h -9.896944 l 5.408795,-20.82973 h 9.896945 z m 24.742361,1.95638 c -0.5754,2.30161 -1.72621,4.71831 -4.14291,5.06355 1.95638,0.34524 2.18654,1.84141 1.72621,3.79778 -0.23016,0.92065 -1.61113,5.9842 -0.92064,6.5596 l -0.11508,0.34525 h -3.91275 c -0.11508,-1.38097 0.69049,-3.91275 1.03573,-5.29372 0.34524,-1.26589 0.80556,-2.9921 -0.34524,-3.45242 -0.92065,-0.34536 -1.95638,-0.23028 -2.87702,-0.23028 h -0.57541 l -2.30161,8.97642 h -3.45242 l 5.40879,-20.82974 h 6.67469 c 2.76193,0.11509 4.71831,1.26589 3.79766,5.06356 z m 23.82171,-1.95638 h -4.02782 l -4.60323,17.83764 h -3.45242 l 4.60323,-17.83764 h -4.14291 l 0.80556,-2.99209 h 11.62316 z m 19.90897,17.83764 h -3.79766 l 0.46032,-5.29372 h -4.1429 l -2.30162,5.29372 h -3.79766 l 9.89694,-20.82973 h 4.71831 z m 17.9526,0 h -3.45242 l 5.40879,-20.82973 h 3.45243 z m 27.84954,0 h -3.68258 l -0.80557,-7.48025 c -0.23016,-2.41681 -0.34524,-5.06367 -0.34524,-8.28593 -0.34524,1.72621 -0.69048,3.79766 -1.15081,5.9842 -0.46032,2.07157 -0.92064,4.14302 -1.38097,5.86923 l -1.03572,3.91275 h -3.45243 l 5.4088,-20.82973 h 3.5675 l 0.69049,7.59532 c 0.23016,2.4167 0.34524,4.94859 0.34524,8.28593 0.34524,-1.84129 0.80557,-3.91274 1.15081,-5.98431 0.46032,-1.95637 0.92064,-4.02783 1.38097,-5.86912 l 1.03572,-4.02782 h 3.56751 z m 31.64721,0 h -3.45242 l 1.72621,-6.55961 c 1.03572,-4.14302 2.18653,-8.28593 3.5675,-12.42883 l -8.74614,18.98844 h -2.18653 l 1.26589,-18.98844 h -0.11508 c -0.80557,4.1429 -1.8413,8.28581 -2.9921,12.42883 l -1.72621,6.55961 h -3.45243 l 5.4088,-20.82973 h 5.63895 l -0.69048,9.66678 c -0.11508,1.61113 -0.5754,4.14302 -0.92065,5.75415 0.69049,-2.07145 1.49605,-4.37318 2.07146,-5.75415 l 4.37307,-9.66678 h 5.52387 z m 29.23051,-17.83764 h -6.32944 l -1.38097,5.29372 h 5.86912 l -0.80557,3.10718 h -5.86912 l -1.72621,6.44464 h 6.32944 l -0.80556,3.10718 h -9.89695 l 5.4088,-20.82973 h 9.89694 z m 20.02405,17.83764 h -3.68259 l -0.80556,-7.48025 c -0.23016,-2.41681 -0.34524,-5.06367 -0.34524,-8.28593 -0.34525,1.72621 -0.69049,3.79766 -1.15081,5.9842 -0.46032,2.07157 -0.92065,4.14302 -1.38097,5.86923 l -1.03573,3.91275 h -3.45242 l 5.4088,-20.82973 h 3.5675 l 0.80556,7.59532 c 0.23017,2.4167 0.34525,4.94859 0.34525,8.28593 0.34524,-1.84129 0.80556,-3.91274 1.1508,-5.98431 0.46033,-1.95637 0.92065,-4.02783 1.38097,-5.86912 l 1.03573,-4.02782 h 3.5675 z m 29.00035,-17.83764 h -4.02783 l -4.60323,17.83764 h -3.5675 l 4.60323,-17.83764 h -4.14291 l 0.80557,-2.99209 h 11.73823 z m 38.32189,3.33735 h -3.33735 c 0.46033,-1.8413 0.80557,-3.68259 -1.03572,-3.68259 -1.15081,0 -2.07146,0.57541 -2.4167,1.95638 -0.46032,1.61113 0.34524,2.18653 1.26589,2.99209 0.92065,0.80557 2.64686,2.30162 3.33734,3.45243 0.92065,1.266 0.92065,2.53189 0.46032,4.37318 -1.03572,3.91275 -3.91274,5.9842 -7.36516,5.9842 -4.25799,0 -5.06356,-2.64686 -4.02783,-6.32944 l 0.34524,-1.49605 h 3.45242 l -0.34524,1.26589 c -0.5754,2.07145 -0.46032,3.45242 1.26589,3.45242 1.49605,0 2.4167,-0.80557 2.76194,-2.4167 0.34524,-1.26588 0,-2.07145 -0.69049,-2.76193 -1.38096,-1.61125 -3.45242,-2.76206 -4.25798,-4.83351 -0.34525,-0.92065 -0.34525,-2.07145 -0.11508,-3.22226 0.92064,-3.5675 3.22226,-5.52388 6.90484,-5.52388 5.75404,-0.11508 4.25799,4.71831 3.79767,6.78977 z m 19.44864,5.63907 -2.30161,8.86122 h -3.45243 l 2.30162,-8.86122 -1.72621,-11.96851 h 3.79766 l 0.57541,5.52387 c 0.11508,1.03573 0.11508,2.07145 0,3.22226 0.69048,-1.61113 1.49605,-2.76194 2.18653,-3.91274 l 2.87702,-4.71831 h 3.79766 z m 29.46067,-5.63907 h -3.33734 c 0.46032,-1.8413 0.80557,-3.68259 -1.03573,-3.68259 -1.1508,0 -2.07145,0.57541 -2.41669,1.95638 -0.46032,1.61113 0.34524,2.18653 1.26589,2.99209 0.92064,0.80557 2.64685,2.30162 3.33734,3.45243 0.80556,1.266 0.92065,2.53189 0.46032,4.37318 -1.03572,3.91275 -3.91274,5.9842 -7.36517,5.9842 -4.25798,0 -5.06355,-2.64686 -4.02782,-6.32944 l 0.34524,-1.49605 h 3.5675 l -0.34524,1.26589 c -0.5754,2.07145 -0.46032,3.45242 1.26589,3.45242 1.49605,0 2.4167,-0.80557 2.87702,-2.4167 0.34524,-1.26588 0,-2.07145 -0.69049,-2.76193 -1.38097,-1.61125 -3.33734,-2.76206 -4.25798,-4.83351 -0.34525,-0.92065 -0.34525,-2.07145 -0.11508,-3.22226 0.92064,-3.5675 3.22226,-5.52388 6.90484,-5.52388 5.4088,-0.11508 4.02783,4.71831 3.5675,6.78977 z m 23.59156,-3.33735 h -4.02783 l -4.60323,17.83764 h -3.45242 l 4.60323,-17.83764 h -4.14291 l 0.80557,-2.99209 h 11.73823 z m 23.47647,0 h -6.44452 l -1.38097,5.29372 h 5.86912 l -0.80557,3.10718 h -5.86912 l -1.72621,6.44464 h 6.32944 l -0.80556,3.10718 h -9.89695 l 5.4088,-20.82973 h 9.89694 z m 26.23841,17.83764 h -3.45242 l 1.72621,-6.55961 c 1.03573,-4.14302 2.18653,-8.28593 3.5675,-12.42883 l -8.74614,18.98844 h -2.18653 l 1.26589,-18.98844 h -0.11508 c -0.80557,4.1429 -1.84129,8.28581 -2.9921,12.42883 l -1.72621,6.55961 h -3.45242 l 5.40879,-20.82973 h 5.63896 l -0.69049,9.66678 c -0.11508,1.61113 -0.5754,4.14302 -0.92064,5.75415 0.69048,-2.07145 1.49605,-4.37318 2.07145,-5.75415 l 4.37307,-9.66678 h 5.52387 z"
     id="path149"
     inkscape:connector-curvature="0"
     style="fill:#ffffff;stroke-width:1.1508075" />
  <path
     d="m 487.94237,127.19852 h -0.80556 v -7.48025 h -2.76194 v -0.80557 h 6.44452 v 0.80557 h -2.87702 z"
     id="path151"
     inkscape:connector-curvature="0"
     style="fill:#ffffff;stroke-width:1.1508075" />
  <path
     d="m 496.1131,125.70247 2.76194,-6.78977 h 1.26589 v 8.28582 h -0.80556 v -7.13501 l -2.9921,7.13501 h -0.46033 l -2.9921,-7.13501 v 7.13501 h -0.80556 v -8.28582 h 1.26589 z"
     id="path153"
     inkscape:connector-curvature="0"
     style="fill:#ffffff;stroke-width:1.1508075" />
</svg>
