<?xml version="1.0" encoding="UTF-8" standalone="no"?>
<svg
   xmlns:dc="http://purl.org/dc/elements/1.1/"
   xmlns:cc="http://creativecommons.org/ns#"
   xmlns:rdf="http://www.w3.org/1999/02/22-rdf-syntax-ns#"
   xmlns:svg="http://www.w3.org/2000/svg"
   xmlns="http://www.w3.org/2000/svg"
   xmlns:sodipodi="http://sodipodi.sourceforge.net/DTD/sodipodi-0.dtd"
   xmlns:inkscape="http://www.inkscape.org/namespaces/inkscape"
   width="500"
   height="200"
   viewBox="0 0 500 200"
   version="1.1"
   id="svg155"
   sodipodi:docname="snesh.svg"
   style="fill:none"
   inkscape:version="0.92.5 (2060ec1f9f, 2020-04-08)">
  <metadata
     id="metadata161">
    <rdf:RDF>
      <cc:Work
         rdf:about="">
        <dc:format>image/svg+xml</dc:format>
        <dc:type
           rdf:resource="http://purl.org/dc/dcmitype/StillImage" />
        <dc:title />
      </cc:Work>
    </rdf:RDF>
  </metadata>
  <defs
     id="defs159" />
  <sodipodi:namedview
     pagecolor="#ffffff"
     bordercolor="#666666"
     borderopacity="1"
     objecttolerance="10"
     gridtolerance="10"
     guidetolerance="10"
     inkscape:pageopacity="0"
     inkscape:pageshadow="2"
     inkscape:window-width="1366"
     inkscape:window-height="740"
     id="namedview157"
     showgrid="false"
     inkscape:pagecheckerboard="true"
     inkscape:zoom="1.6062243"
     inkscape:cx="221.95484"
     inkscape:cy="34.665692"
     inkscape:window-x="0"
     inkscape:window-y="0"
     inkscape:window-maximized="1"
     inkscape:current-layer="svg155" />
  <path
     d="m 22.901069,72.880628 c 1.726211,2.87702 10.012025,17.03195 11.047752,19.44865 1.265888,2.18653 2.071453,6.09928 1.265888,9.896942 l -3.10718,17.03196 c -0.920646,4.48814 -4.833392,7.94057 -9.781864,7.94057 H 7.5953294 C 3.2222609,127.19875 0,123.63124 0,119.25818 c 0,-0.46033 0,-1.03573 0,-1.38097 L 3.7976647,95.436458 H 14.039851 L 10.70251,114.42478 c 0,0.23017 0,0.34525 0,0.34525 0,1.38096 1.150807,2.64685 2.531776,2.64685 h 5.638957 c 1.841292,0 3.452422,-1.26589 3.797664,-3.10718 l 2.186535,-12.42872 c 0.460323,-2.416692 0.11508,-3.682582 -2.071454,-7.480252 -1.726211,-3.10718 -8.746137,-16.34146 -10.81759,-20.25421 C 9.3215406,68.967886 9.0913791,66.666271 9.8969443,62.293203 L 12.658882,47.102544 c 0.920646,-4.60323 4.948472,-7.940574 9.666783,-7.940574 h 14.845417 c 4.257987,0 7.940571,3.567506 7.940571,7.940574 0,0.460323 0,0.920646 -0.115081,1.380969 L 41.198908,70.118694 H 30.84164 l 3.222261,-18.297839 c 0.115081,-0.230162 0.115081,-0.345242 0.115081,-0.345242 0,-1.380969 -1.265888,-2.531777 -2.646857,-2.531777 h -5.638957 c -1.841292,0 -3.337341,1.265888 -3.682584,2.877019 l -1.841292,9.781863 c -0.920646,5.178634 0.230162,7.59533 2.531777,11.27791 z"
     id="path125"
     inkscape:connector-curvature="0"
     style="fill:#ffffff;stroke-width:1.1508075" />
  <path
     d="m 49.484837,114.42467 c 0,0.23016 0,0.34524 0,0.34524 0,1.38097 1.150807,2.64686 2.531776,2.64686 h 5.638957 c 1.841292,0 3.337342,-1.26589 3.797665,-3.10718 L 75.147844,39.046777 H 85.620192 L 70.889856,119.25806 c -0.920646,4.48815 -4.948472,7.94057 -9.666783,7.94057 H 46.377657 c -4.257988,0 -7.710411,-3.5675 -7.710411,-7.94057 0,-0.46032 0,-1.03573 0,-1.49605 L 52.822178,39.046777 h 10.242187 z"
     id="path127"
     inkscape:connector-curvature="0"
     style="fill:#ffffff;stroke-width:1.1508075" />
  <path
     d="m 129.81108,39.046777 h 23.82172 l -1.61113,10.012025 H 138.6723 l -4.94847,27.849536 h 13.1192 l -1.72621,9.78187 h -13.23428 l -5.4088,30.726562 h 13.00413 l -1.8413,9.78186 h -23.82183 z"
     id="path129"
     inkscape:connector-curvature="0"
     style="fill:#ffffff;stroke-width:1.1508075" />
  <path
     d="M 198.62937,127.19863 214.6256,39.046777 h 10.58742 c 4.60323,47.068021 4.71831,58.576101 4.8334,67.322243 0.34524,-9.206462 1.49605,-22.210592 9.5517,-67.322243 h 10.58743 l -15.99623,88.151853 h -10.58743 c -4.48815,-46.952942 -4.60323,-56.964972 -4.71831,-65.711107 -0.34524,10.587425 -1.49605,20.714535 -9.5517,65.711107 z"
     id="path131"
     inkscape:connector-curvature="0"
     style="fill:#ffffff;stroke-width:1.1508075" />
  <path
     d="m 252.8324,127.19863 h -10.70251 l 15.99623,-88.151853 h 10.70251 z"
     id="path133"
     inkscape:connector-curvature="0"
     style="fill:#ffffff;stroke-width:1.1508075" />
  <path
     d="m 340.06361,49.058802 h -7.25009 L 318.65859,127.19863 H 307.841 l 14.27001,-78.139828 h -7.59533 l 1.8413,-10.012025 h 25.663 z"
     id="path135"
     inkscape:connector-curvature="0"
     style="fill:#ffffff;stroke-width:1.1508075" />
  <path
     d="m 346.39305,39.046777 h 23.9368 l -1.72621,10.012025 h -13.23429 l -4.94847,27.849536 h 13.1192 l -1.84129,9.78187 h -13.1192 l -5.52388,30.726562 h 13.11921 l -1.8413,9.78186 h -23.93679 z"
     id="path137"
     inkscape:connector-curvature="0"
     style="fill:#ffffff;stroke-width:1.1508075" />
  <path
     d="m 260.88806,127.19863 15.99622,-88.151853 h 10.58743 c 4.60323,47.068021 4.71831,58.576101 4.83339,67.322243 0.34524,-9.206462 1.49605,-22.210592 9.5517,-67.322243 h 10.58743 l -15.99622,88.151853 h -10.58743 c -4.48815,-46.952942 -4.60323,-56.964972 -4.71831,-65.711107 -0.46033,10.587425 -1.49605,20.714535 -9.5517,65.711107 z"
     id="path139"
     inkscape:connector-curvature="0"
     style="fill:#ffffff;stroke-width:1.1508075" />
  <path
     d="m 361.35355,127.19863 15.99622,-88.151853 h 10.58743 c 4.60323,47.068021 4.71831,58.576101 4.83339,67.322243 0.34525,-9.206462 1.49605,-22.210592 9.55171,-67.322243 h 10.58742 l -15.88114,88.151853 h -10.58743 c -4.48815,-46.952942 -4.60323,-56.964972 -4.71831,-65.711107 -0.34524,10.587425 -1.49605,20.714535 -9.5517,65.711107 z"
     id="path141"
     inkscape:connector-curvature="0"
     style="fill:#ffffff;stroke-width:1.1508075" />
  <path
     d="M 76.183455,127.19863 92.179679,39.046777 h 23.131231 c 4.37307,0 7.94057,3.567503 7.94057,7.940571 0,0.460323 -0.11508,0.920646 -0.23016,1.380969 l -5.63896,31.301961 c -0.80556,4.60323 -4.71831,8.05566 -9.5517,8.05566 H 94.020971 L 86.770884,127.19863 Z M 104.26316,77.828988 c 1.84129,0 3.33734,-1.26589 3.68258,-2.87702 l 4.37307,-22.901067 c 0,-0.11508 0,-0.345242 0,-0.345242 0,-1.380969 -1.15081,-2.531776 -2.53178,-2.531776 h -8.74613 l -5.408798,28.770185 h 8.631058 z m 68.24288,13.34937 c 0,-0.11508 0,-0.23016 0,-0.34524 0,-1.38097 -1.15081,-2.53178 -2.53178,-2.53178 h -8.51597 l -6.90485,38.897292 h -10.7025 L 159.617,39.046777 h 23.59155 c 4.37307,0 7.94057,3.567503 8.05565,7.940571 0,0.460323 -0.11508,0.920646 -0.23016,1.49605 l -4.94847,27.73446 c -0.69048,3.68258 -3.22226,6.32944 -6.78976,7.36517 2.99209,1.15081 4.37306,4.02782 4.02782,7.25009 0,0.34524 0,0.92064 -0.11508,1.38096 l -6.32944,34.754392 h -10.81759 z m -0.5754,-13.34937 c 1.84129,0 3.33734,-1.26589 3.68258,-2.9921 l 4.14291,-22.785987 c 0,-0.230161 0,-0.345242 0,-0.345242 0,-1.380969 -1.15081,-2.531776 -2.64686,-2.531776 h -8.51597 l -5.17864,28.770185 h 8.51598 z M 420.8503,39.046777 h 23.93679 c 4.37307,0 7.94057,3.567503 7.94057,7.940571 0,0.460323 -0.11508,0.920646 -0.23016,1.380969 l -12.88904,70.889743 c -0.80557,4.48815 -4.71831,7.94057 -9.5517,7.94057 h -25.31777 z m 5.75403,78.369993 c 1.84129,0 3.33734,-1.26589 3.68259,-3.10718 l 11.39299,-62.373769 c 0.11508,-0.230162 0.11508,-0.345243 0.11508,-0.345243 0,-1.380969 -1.15081,-2.531776 -2.64686,-2.531776 h -9.5517 l -12.42872,68.357968 z m 42.81004,-78.369993 h 14.84542 c 4.25799,0 7.82549,3.567503 7.82549,7.940571 0,0.460323 0,0.920646 -0.11508,1.380969 l -12.65888,70.774663 c -0.92065,4.48815 -4.94848,7.94057 -9.78187,7.94057 h -14.73033 c -4.37307,0 -7.82549,-3.5675 -7.82549,-7.94057 0,-0.46032 0,-1.03573 0,-1.49605 l 12.65888,-70.659582 c 1.15081,-4.488149 5.17863,-7.940571 9.78186,-7.940571 z m -11.39299,75.723133 c 0,1.38097 1.1508,2.64686 2.53177,2.64686 h 5.63896 c 1.95637,0 3.33734,-1.26589 3.79766,-3.10718 l 11.27792,-62.373769 c 0,-0.230162 0,-0.345243 0,-0.345243 0,-1.380969 -1.15081,-2.531776 -2.53178,-2.531776 h -5.75404 c -1.72621,0 -3.33734,1.265888 -3.68258,2.877019 l -11.27791,62.488849 c 0,0.23016 0,0.34524 0,0.34524 z"
     id="path143"
     inkscape:connector-curvature="0"
     style="fill:#ffffff;stroke-width:1.1508075" />
  <path
     d="m 162.26385,154.81801 0.69049,-5.98431 c 0.11508,-0.92065 0.34524,-1.95638 0.46032,-2.87702 0.11508,-0.46032 0.23016,-1.61102 0.23016,-1.95626 -0.11508,0.46032 -0.46032,1.49594 -0.69048,1.95626 -0.34524,0.92064 -0.69049,1.95637 -1.15081,2.87702 l -2.64686,5.98431 z"
     id="path145"
     inkscape:connector-curvature="0"
     style="fill:#ffffff;stroke-width:1.1508075" />
  <path
     d="m 116.11647,145.38127 h -2.64685 l -1.49605,5.75404 h 2.76194 c 1.1508,-0.11508 2.30161,-0.92064 2.87701,-2.9921 0.57541,-2.30161 -0.11508,-2.76194 -1.49605,-2.76194 z"
     id="path147"
     inkscape:connector-curvature="0"
     style="fill:#ffffff;stroke-width:1.1508075" />
  <path
     d="m 0.92070237,135.59941 v 34.40926 H 492.89084 v -34.40926 z m 22.44068963,9.78186 h -6.329441 l -1.380969,5.29372 h 5.869233 l -0.80568,3.10718 h -5.869119 l -1.726211,6.44464 h 6.444522 l -0.805565,3.10718 H 8.8612751 l 5.4087379,-20.82973 h 9.896944 z m 22.555942,17.83764 H 42.23475 l -0.805681,-7.48025 c -0.230161,-2.41681 -0.345127,-5.06367 -0.345127,-8.28593 -0.345242,1.72621 -0.690484,3.79766 -1.150807,5.9842 -0.460323,2.07157 -0.920761,4.14302 -1.381084,5.86923 l -1.035727,3.91275 h -3.452423 l 5.408796,-20.82973 h 3.682584 l 0.690484,7.59532 c 0.230161,2.4167 0.345357,4.94859 0.345357,8.28593 0.345243,-1.84129 0.805566,-3.91274 1.150808,-5.98431 0.460323,-1.95637 0.920531,-4.02783 1.380854,-5.86912 l 1.035726,-4.02782 h 3.452423 z m 28.53991,-17.83764 h -4.027711 l -4.60323,17.83764 h -3.452422 l 4.603229,-17.83764 h -4.143022 l 0.805566,-2.99209 H 75.37789 Z m 22.325665,0 h -6.329441 l -1.380969,5.29372 h 5.869118 l -0.805565,3.10718 h -5.869118 l -1.726211,6.44464 h 6.329441 l -0.805566,3.10718 h -9.896944 l 5.408795,-20.82973 h 9.896945 z m 24.742361,1.95638 c -0.5754,2.30161 -1.72621,4.71831 -4.14291,5.06355 1.95638,0.34524 2.18654,1.84141 1.72621,3.79778 -0.23016,0.92065 -1.61113,5.9842 -0.92064,6.5596 l -0.11508,0.34525 h -3.91275 c -0.11508,-1.38097 0.69049,-3.91275 1.03573,-5.29372 0.34524,-1.26589 0.80556,-2.9921 -0.34524,-3.45242 -0.92065,-0.34536 -1.95638,-0.23028 -2.87702,-0.23028 h -0.57541 l -2.30161,8.97642 h -3.45242 l 5.40879,-20.82974 h 6.67469 c 2.76193,0.11509 4.71831,1.26589 3.79766,5.06356 z m 23.82171,-1.95638 h -4.02782 l -4.60323,17.83764 h -3.45242 l 4.60323,-17.83764 h -4.14291 l 0.80556,-2.99209 h 11.62316 z m 19.90897,17.83764 h -3.79766 l 0.46032,-5.29372 h -4.1429 l -2.30162,5.29372 h -3.79766 l 9.89694,-20.82973 h 4.71831 z m 17.9526,0 h -3.45242 l 5.40879,-20.82973 h 3.45243 z m 27.84954,0 h -3.68258 l -0.80557,-7.48025 c -0.23016,-2.41681 -0.34524,-5.06367 -0.34524,-8.28593 -0.34524,1.72621 -0.69048,3.79766 -1.15081,5.9842 -0.46032,2.07157 -0.92064,4.14302 -1.38097,5.86923 l -1.03572,3.91275 h -3.45243 l 5.4088,-20.82973 h 3.5675 l 0.69049,7.59532 c 0.23016,2.4167 0.34524,4.94859 0.34524,8.28593 0.34524,-1.84129 0.80557,-3.91274 1.15081,-5.98431 0.46032,-1.95637 0.92064,-4.02783 1.38097,-5.86912 l 1.03572,-4.02782 h 3.56751 z m 31.64721,0 h -3.45242 l 1.72621,-6.55961 c 1.03572,-4.14302 2.18653,-8.28593 3.5675,-12.42883 l -8.74614,18.98844 h -2.18653 l 1.26589,-18.98844 h -0.11508 c -0.80557,4.1429 -1.8413,8.28581 -2.9921,12.42883 l -1.72621,6.55961 h -3.45243 l 5.4088,-20.82973 h 5.63895 l -0.69048,9.66678 c -0.11508,1.61113 -0.5754,4.14302 -0.92065,5.75415 0.69049,-2.07145 1.49605,-4.37318 2.07146,-5.75415 l 4.37307,-9.66678 h 5.52387 z m 29.23051,-17.83764 h -6.32944 l -1.38097,5.29372 h 5.86912 l -0.80557,3.10718 h -5.86912 l -1.72621,6.44464 h 6.32944 l -0.80556,3.10718 h -9.89695 l 5.4088,-20.82973 h 9.89694 z m 20.02405,17.83764 h -3.68259 l -0.80556,-7.48025 c -0.23016,-2.41681 -0.34524,-5.06367 -0.34524,-8.28593 -0.34525,1.72621 -0.69049,3.79766 -1.15081,5.9842 -0.46032,2.07157 -0.92065,4.14302 -1.38097,5.86923 l -1.03573,3.91275 h -3.45242 l 5.4088,-20.82973 h 3.5675 l 0.80556,7.59532 c 0.23017,2.4167 0.34525,4.94859 0.34525,8.28593 0.34524,-1.84129 0.80556,-3.91274 1.1508,-5.98431 0.46033,-1.95637 0.92065,-4.02783 1.38097,-5.86912 l 1.03573,-4.02782 h 3.5675 z m 29.00035,-17.83764 h -4.02783 l -4.60323,17.83764 h -3.5675 l 4.60323,-17.83764 h -4.14291 l 0.80557,-2.99209 h 11.73823 z m 38.32189,3.33735 h -3.33735 c 0.46033,-1.8413 0.80557,-3.68259 -1.03572,-3.68259 -1.15081,0 -2.07146,0.57541 -2.4167,1.95638 -0.46032,1.61113 0.34524,2.18653 1.26589,2.99209 0.92065,0.80557 2.64686,2.30162 3.33734,3.45243 0.92065,1.266 0.92065,2.53189 0.46032,4.37318 -1.03572,3.91275 -3.91274,5.9842 -7.36516,5.9842 -4.25799,0 -5.06356,-2.64686 -4.02783,-6.32944 l 0.34524,-1.49605 h 3.45242 l -0.34524,1.26589 c -0.5754,2.07145 -0.46032,3.45242 1.26589,3.45242 1.49605,0 2.4167,-0.80557 2.76194,-2.4167 0.34524,-1.26588 0,-2.07145 -0.69049,-2.76193 -1.38096,-1.61125 -3.45242,-2.76206 -4.25798,-4.83351 -0.34525,-0.92065 -0.34525,-2.07145 -0.11508,-3.22226 0.92064,-3.5675 3.22226,-5.52388 6.90484,-5.52388 5.75404,-0.11508 4.25799,4.71831 3.79767,6.78977 z m 19.44864,5.63907 -2.30161,8.86122 h -3.45243 l 2.30162,-8.86122 -1.72621,-11.96851 h 3.79766 l 0.57541,5.52387 c 0.11508,1.03573 0.11508,2.07145 0,3.22226 0.69048,-1.61113 1.49605,-2.76194 2.18653,-3.91274 l 2.87702,-4.71831 h 3.79766 z m 29.46067,-5.63907 h -3.33734 c 0.46032,-1.8413 0.80557,-3.68259 -1.03573,-3.68259 -1.1508,0 -2.07145,0.57541 -2.41669,1.95638 -0.46032,1.61113 0.34524,2.18653 1.26589,2.99209 0.92064,0.80557 2.64685,2.30162 3.33734,3.45243 0.80556,1.266 0.92065,2.53189 0.46032,4.37318 -1.03572,3.91275 -3.91274,5.9842 -7.36517,5.9842 -4.25798,0 -5.06355,-2.64686 -4.02782,-6.32944 l 0.34524,-1.49605 h 3.5675 l -0.34524,1.26589 c -0.5754,2.07145 -0.46032,3.45242 1.26589,3.45242 1.49605,0 2.4167,-0.80557 2.87702,-2.4167 0.34524,-1.26588 0,-2.07145 -0.69049,-2.76193 -1.38097,-1.61125 -3.33734,-2.76206 -4.25798,-4.83351 -0.34525,-0.92065 -0.34525,-2.07145 -0.11508,-3.22226 0.92064,-3.5675 3.22226,-5.52388 6.90484,-5.52388 5.4088,-0.11508 4.02783,4.71831 3.5675,6.78977 z m 23.59156,-3.33735 h -4.02783 l -4.60323,17.83764 h -3.45242 l 4.60323,-17.83764 h -4.14291 l 0.80557,-2.99209 h 11.73823 z m 23.47647,0 h -6.44452 l -1.38097,5.29372 h 5.86912 l -0.80557,3.10718 h -5.86912 l -1.72621,6.44464 h 6.32944 l -0.80556,3.10718 h -9.89695 l 5.4088,-20.82973 h 9.89694 z m 26.23841,17.83764 h -3.45242 l 1.72621,-6.55961 c 1.03573,-4.14302 2.18653,-8.28593 3.5675,-12.42883 l -8.74614,18.98844 h -2.18653 l 1.26589,-18.98844 h -0.11508 c -0.80557,4.1429 -1.84129,8.28581 -2.9921,12.42883 l -1.72621,6.55961 h -3.45242 l 5.40879,-20.82973 h 5.63896 l -0.69049,9.66678 c -0.11508,1.61113 -0.5754,4.14302 -0.92064,5.75415 0.69048,-2.07145 1.49605,-4.37318 2.07145,-5.75415 l 4.37307,-9.66678 h 5.52387 z"
     id="path149"
     inkscape:connector-curvature="0"
     style="fill:#ffffff;stroke-width:1.1508075" />
  <path
     d="m 487.94237,127.19852 h -0.80556 v -7.48025 h -2.76194 v -0.80557 h 6.44452 v 0.80557 h -2.87702 z"
     id="path151"
     inkscape:connector-curvature="0"
     style="fill:#ffffff;stroke-width:1.1508075" />
  <path
     d="m 496.1131,125.70247 2.76194,-6.78977 h 1.26589 v 8.28582 h -0.80556 v -7.13501 l -2.9921,7.13501 h -0.46033 l -2.9921,-7.13501 v 7.13501 h -0.80556 v -8.28582 h 1.26589 z"
     id="path153"
     inkscape:connector-curvature="0"
     style="fill:#ffffff;stroke-width:1.1508075" />
  <g
     aria-label="[HACKS]"
     transform="matrix(2.157844,-0.51428943,0.58119693,2.6463694,-255.48009,197.30114)"
     style="font-style:normal;font-weight:normal;font-size:40px;line-height:125%;font-family:sans-serif;letter-spacing:0px;word-spacing:0px;fill:#ff0000;fill-opacity:1;stroke:none;stroke-width:1px;stroke-linecap:butt;stroke-linejoin:miter;stroke-opacity:1"
     id="flowRoot52">
    <path
       inkscape:connector-curvature="0"
       d="m 162.07617,-12.482817 q 0.41016,-0.03906 0.41016,-0.136719 l 0.625,0.07813 1.77734,-0.01953 h 0.0195 v 2.480469 q -0.8789,-0.117188 -0.8789,-0.292969 l -0.60547,0.09766 -0.0781,-0.07813 h -0.0781 q -0.0977,0.117188 -0.89844,0.175781 0.0977,0.5859378 0.29297,0.839844 -0.15625,0.7617188 -0.46875,1.09375 l 0.0781,0.3125 -0.0781,0.234375 0.0781,0.625 -0.0781,0.078125 0.0781,0.390625 v 0.234375 l -0.0781,1.09375 0.0781,0.078125 v 0.078125 l -0.15625,0.46875 0.23438,1.40625 v 0.234375 l -0.15625,0.625 v 0.390625 q 0,0.5664063 0.23437,1.40625001 l -0.0781,0.234375 0.0781,1.09375 V 1.052339 l -0.3125,1.25 q 0.39063,1.3867188 0.39063,1.875 -0.23438,0 -0.23438,0.3125 l 0.0781,0.46875 -0.0781,0.625 0.0781,0.078125 -0.0781,0.078125 v 0.078125 q 0,1.40625 0.3125,3.046875 l -0.3125,0.859375 0.15625,1.015625 -0.0781,0.625 0.15625,0.46875 v 0.3125 q 0,0.371094 -0.23438,0.78125 l 0.0781,0.703125 q -0.0977,0 -0.3125,0.78125 0.0977,0.410156 0.39062,0.625 l 0.0781,0.3125 -0.0781,0.546875 0.0781,0.07813 -0.23438,2.8125 0.0781,0.3125 -0.23438,0.9375 0.0781,0.859375 -0.0781,0.625 0.23438,1.09375 -0.0781,0.664063 0.58594,0.117187 1.38672,-0.253906 0.66406,0.09766 -0.0391,2.167969 -0.0781,0.07813 -0.0781,-0.07813 h -0.3125 l -1.62109,0.253906 q -0.91797,-0.03906 -1.46485,-0.09766 V 25.36875 l -1.36718,-0.07813 0.21484,-1.503906 q -0.21484,0 -0.3125,-1.171875 l 0.0781,-0.3125 v -0.625 l 0.23438,-0.625 -0.23438,-1.015625 0.0781,-0.234375 q -0.0781,-1.015625 -0.23438,-1.015625 l 0.0781,-0.390625 -0.0781,-0.3125 q 0.39063,-0.429687 0.39063,-1.484375 l -0.15625,-0.15625 v -0.07813 l 0.0781,-0.3125 -0.15625,-0.3125 0.15625,-0.625 -0.23437,-1.25 0.3125,-0.546875 -0.15625,-0.46875 0.0781,-0.07813 v -0.07813 l -0.0781,-0.78125 0.23437,-0.703125 q -0.3125,-0.46875 -0.3125,-1.40625 l 0.15625,-0.703125 q 0,-0.546875 -0.15625,-0.859375 l 0.0781,-0.859375 v -0.70311 l -0.0781,-0.078125 0.15625,-0.625 -0.0781,-0.3125 0.0781,-0.234375 -0.23437,-0.46875 0.23437,-1.25 -0.0781,-1.5625 q 0,-1.015625 0.23437,-1.64062499 -0.54687,-0.80078125 -0.54687,-1.09375 v -0.234375 l 0.3125,-1.48437501 v -1.09375 l -0.15625,-0.546875 0.15625,-1.328125 q 0,-0.3710937 -0.39063,-1.171875 0,-0.390625 0.54688,-1.09375 v -0.15625 l -0.23438,-0.234375 v -0.078125 h 0.15625 v -0.078125 q -0.3125,-0.3125 -0.3125,-0.546875 l 0.0781,-0.625 -0.0781,-0.078125 q 0.23438,-0.078125 0.23438,-0.46875 -0.0195,-1.171875 -0.15625,-1.171875 l 0.23437,-0.859375 -0.0781,-0.46875 v -0.07813 q 0,-0.234375 1.01562,-0.3125 v -0.07813 q 0.72266,0.03906 1.05469,0.292969 z"
       style="font-style:normal;font-variant:normal;font-weight:normal;font-stretch:normal;font-family:'Top Secret';-inkscape-font-specification:'Top Secret';fill:#ff0000"
       id="path68" />
    <path
       inkscape:connector-curvature="0"
       d="m 179.57617,-7.541411 h 1.44531 q 0.25391,0.3515625 2.89063,0.546875 l 0.17578,-0.1953125 h 0.19531 l 2.51953,0.3710938 2.89063,-0.546875 1.26953,0.546875 q 0,2.1679687 -1.79687,2.1679687 l -0.3711,1.2695313 v 1.4453125 l 0.3711,1.44531246 v 1.07421875 q 0,1.32812499 -0.54688,3.08593749 l 0.54688,2.1679688 -0.3711,2.34375 0.3711,2.1679687 -0.3711,0.742188 0.17578,0.527343 -0.17578,2.167969 0.3711,1.269531 -0.19532,0.917969 q 0,1.035156 1.81641,3.066406 l -0.54688,0.722657 h -0.54687 l -1.99219,-0.371094 q -0.89844,0.05859 -0.89844,0.371094 l -2.34375,-0.546875 h -0.54687 q 0,0.546875 -0.54688,0.546875 v -0.175782 q -1.38671,0.527344 -3.96484,0.722657 -1.09375,0 -1.09375,-1.269532 h -0.17578 q 1.79687,-1.835937 1.79687,-2.539062 l 0.72266,-4.511719 -0.72266,-1.269531 0.91797,-2.714844 V 7.6539015 L 180.47461,7.2828078 179.75195,7.458589 178.13086,7.2828078 V 7.458589 q -1.44531,-0.2539062 -1.44531,-1.4453125 v -0.546875 l 0.35156,-0.3515625 h 1.62109 l 0.19532,0.1757813 q 1.79687,-1.328125 1.79687,-5.05859379 L 179.75195,-1.760161 q 0.89844,-1.171875 0.89844,-1.796875 0,-1.3085937 -2.71484,-2.7148437 v -0.546875 q 0.2539,-0.7226563 1.64062,-0.7226563 z m -11.21094,0.1757813 2.16797,0.3710937 1.6211,-0.1953125 2.71484,0.1953125 1.26953,-0.1953125 1.07422,0.3710938 v 1.0742187 q -2.14844,1.5429688 -2.34375,2.5390625 l 0.54688,3.61328126 V 1.8531203 l 0.17578,0.9179687 -0.72266,1.25 v 1.4453125 q 0.54688,0.6640625 0.54688,1.2695313 l -0.3711,1.9921875 0.72266,2.8906247 q -0.89844,0.585938 -0.89844,2.167969 0.54688,0.898438 0.54688,2.363281 v 0.351563 l -0.3711,0.546875 v 0.175781 q 0,0.371094 1.09375,0.546875 0.11719,0.839844 1.26953,1.621094 v 0.546875 l -0.19531,0.175781 -0.52734,0.195313 v 0.175781 q -3.39844,-0.371094 -5.42969,-1.09375 -2.20703,0.195312 -4.88281,0.917969 h -1.09375 l -0.89844,-1.269532 v -0.175781 q 0,-1.152344 1.81641,-1.640625 v -2.890625 l -0.54688,-1.074219 q 0.72266,-1.09375 0.72266,-1.640625 h -0.17578 l 0.35156,-0.898437 -0.17578,-0.175781 v -0.195313 l 0.17578,-0.175781 V 9.9976515 l -0.17578,-0.7226562 0.35156,-0.546875 -0.17578,-0.546875 Q 167.0957,7.224214 167.0957,5.114839 l -1.09375,-1.8164062 0.3711,-2.34375004 q -0.41016,0 -0.54688,-0.8984375 0.41016,-2.16796876 1.09375,-2.16796876 -0.85937,-2.2851562 -2.16797,-4.3554687 l 0.72266,-0.3515625 1.07422,0.1757812 h 0.17578 q 0.97656,-0.7226562 1.64062,-0.7226562 z m 25.625,-2.8906253 q -0.33203,0.03906 -0.70312,0.03906 l -1.5625,-0.07813 -1.25,0.234375 -0.46875,-0.234375 -0.23438,0.07813 -0.3125,-0.07813 -0.625,0.15625 -0.0781,-0.07813 h -0.70313 l -0.85937,0.07813 q -0.3125,-0.15625 -0.85938,-0.15625 l -0.70312,0.15625 q -0.9375,0 -1.40625,-0.3125 l -0.70313,0.234375 -0.78125,-0.07813 h -0.0781 l -0.0781,0.07813 -0.46875,-0.15625 -0.54687,0.3125 -1.25,-0.234375 -0.625,0.15625 -0.3125,-0.15625 -0.3125,0.07813 h -0.0781 l -0.15625,-0.15625 q -1.05468,0 -1.48437,0.3906248 l -0.3125,-0.078125 -0.39063,0.078125 q 0,-0.1562498 -1.01562,-0.2343748 l -0.23438,0.07813 -1.01562,-0.234375 -0.625,0.234375 h -0.625 l -0.3125,0.07813 q -1.17188,-0.09766 -1.17188,-0.3125 l -1.64062,0.234375 -1.40625,-0.07813 -1.25,0.15625 -1.09375,-0.234375 h -1.64063 q -0.11718,0.117187 -0.64453,0.195312 v -2.441406 l 0.80078,0.136719 q 0.42969,0 0.85938,-0.234375 0.48828,0 0.9375,0.234375 l 1.25,-0.234375 1.79687,0.15625 v -0.07813 h 0.15625 l 0.23438,0.15625 0.625,-0.15625 h 0.39062 l 0.46875,0.15625 1.32813,-0.15625 1.09375,0.234375 0.625,-0.07813 0.85937,0.07813 0.9375,-0.234375 0.3125,0.07813 2.8125,-0.234375 0.0781,0.07813 0.54687,-0.07813 0.3125,0.07813 q 0.21485,0.292969 0.625,0.390625 0.78125,-0.214844 0.78125,-0.3125 l 0.70313,0.07813 q 0.41016,-0.234375 0.78125,-0.234375 h 0.3125 l 0.46875,0.15625 0.625,-0.07813 1.01562,0.15625 0.85938,-0.3125 q 1.64062,0.3125 3.04687,0.3125 h 0.0781 l 0.0781,-0.07813 0.0781,0.07813 0.625,-0.07813 0.46875,0.07813 q 0.3125,0 0.3125,-0.234375 0.48828,0 1.875,0.390625 l 0.85937,-0.214844 z m 0,35.703125 -0.8789,-0.175781 -0.78125,0.3125 v -0.07813 q -0.74219,0 -1.40625,0.234375 l -0.78125,-0.15625 q -1.48438,0 -2.26563,0.3125 -1.5625,-0.546875 -2.10937,-0.546875 h -0.39063 q -0.9375,0.3125 -1.79687,0.390625 l -0.23438,-0.234375 h -0.23437 v 0.15625 h -0.23438 q 0,-0.234375 -0.39062,-0.234375 h -0.15625 l -0.0781,0.07813 -0.39062,-0.234375 h -0.23438 q -0.15625,0.15625 -0.625,0.15625 l -0.39062,0.390625 -2.1875,-0.546875 h -0.0781 l -1.01562,0.46875 -0.0781,-0.07813 h -0.70312 q -0.11719,0 -0.23438,-0.3125 l -1.71875,0.234375 q -0.42968,-0.15625 -1.09375,-0.15625 -0.33203,0 -0.70312,0.234375 l -0.46875,-0.234375 h -0.39063 l -0.85937,0.07813 -0.9375,-0.234375 q -0.9961,0.214844 -1.17188,0.46875 l -0.39062,-0.234375 q -0.60547,0 -1.17188,0.546875 -0.33203,-0.07813 -0.625,-0.390625 -1.32812,-0.292969 -1.32812,-0.46875 l -0.625,0.15625 -0.0781,-0.07813 h -0.0781 l -0.46875,0.15625 -0.17578,-0.01953 V 23.31796 l 0.41015,0.07813 0.9375,-0.234375 h 0.23438 l 0.625,0.15625 0.0781,-0.07813 0.70313,0.07813 0.3125,-0.15625 0.3125,0.15625 h 0.85937 l 0.625,-0.234375 h 0.0781 l 0.0781,0.07813 1.25,-0.3125 0.78125,0.390625 h 0.70313 l 0.78125,-0.07813 0.15625,0.15625 0.15625,-0.15625 0.9375,0.07813 h 0.78125 l 0.39062,0.07813 0.23438,-0.234375 0.70312,0.234375 0.3125,-0.07813 h 0.0781 l 0.0781,0.07813 0.46875,-0.234375 0.85938,0.15625 0.54687,-0.07813 1.09375,0.3125 2.1875,-0.3125 0.0781,0.07813 0.39062,-0.07813 0.46875,0.07813 1.17188,-0.15625 q 0.60547,0 1.40625,0.234375 h 0.0781 Q 185.66989,23.0836 185.9238,23.0836 h 0.23437 q 0.46875,0 0.9375,0.46875 l 0.9375,-0.15625 0.3125,0.07813 0.3125,-0.07813 h 0.625 q 0.44922,-0.3125 0.70313,-0.3125 l 0.625,0.07813 h 0.0781 l 0.0781,-0.07813 0.39062,0.234375 0.46875,-0.234375 0.46875,0.15625 q 0.29297,-0.234375 0.70313,-0.234375 h 0.23437 l 0.625,0.234375 h 0.33203 z"
       style="font-style:normal;font-variant:normal;font-weight:normal;font-stretch:normal;font-family:'Top Secret';-inkscape-font-specification:'Top Secret';fill:#ff0000"
       id="path70" />
    <path
       inkscape:connector-curvature="0"
       d="m 210.8457,-7.463286 0.17578,0.1757813 0.3711,0.3515625 h 0.17578 l -0.35156,1.4453125 0.72265,1.9921875 0.72266,0.7226562 v 3.7890625 q 0.52734,0.4882813 1.42578,4.3359375 l 0.72266,0.7226563 -0.17578,0.1757812 v 0.7226563 l 0.17578,0.7226562 -0.17578,0.7226563 1.09375,3.2421877 h -0.19532 l 0.54688,0.898437 -0.54688,0.917969 q 0.625,0 1.09375,2.167969 l -0.17578,1.25 q 0,0.546875 1.6211,1.09375 l 0.52734,1.445312 -0.72266,0.527344 h -0.17578 l -0.52734,-0.351562 h -0.3711 l -2.34375,0.722656 h -0.17578 l -0.72265,-0.175781 -0.72266,0.175781 h -0.37109 l -0.89844,-0.546875 -3.78906,0.546875 q -0.9375,0 -1.44532,-0.898438 v -0.195312 q 1.09375,-0.664063 1.09375,-2.34375 l -0.37109,-1.25 0.17578,-0.195313 -0.35156,-1.621093 0.17578,-0.175782 v -0.722656 h -1.62109 l -1.44532,0.351563 q -0.46875,-0.351563 -1.79687,-0.351563 l -0.19531,-0.175781 v -1.640625 q 0,-0.351563 1.09375,-0.527344 l 0.72265,0.722656 h 1.25 l 0.91797,-0.195312 -0.54687,-3.0664065 0.17578,-1.0742187 q -0.54688,0 -1.26953,-3.9648438 l 0.19531,-0.546875 -1.62109,-5.78125 0.17578,-0.5273437 -0.17578,-1.640625 q 0.13671,-1.0742188 1.07421,-1.0742188 l 0.89844,0.1757813 z m -8.65234,6.1328125 h 0.17578 l 0.17578,0.54687501 -0.17578,0.52734375 0.17578,1.81640624 q 0,2.3632813 -1.07422,3.7890625 0,2.265625 -1.44531,5.058594 l 0.17578,0.527344 -0.17578,1.269531 0.17578,1.269531 -0.54687,0.175781 0.17578,1.074219 -0.52735,1.445313 v 0.175781 q 0,1.582031 2.34375,1.816406 h 0.35157 v 0.175781 q 0,2.167969 -1.25,2.167969 h -2.16797 q -0.60547,0 -1.26953,-0.546875 l -2.51953,0.546875 q -0.70313,0 -1.26954,-1.992187 v -0.351563 q 2.16797,0 2.16797,-1.992187 1.66016,-1.660157 3.06641,-5.761719 l -0.17578,-0.5468752 1.97265,-6.6796875 0.3711,-0.3710938 -0.17578,-0.5273437 q 0,-2.20703129 1.44531,-3.6132813 z m 19.04297,-9.0039065 q -0.44922,-0.136718 -0.44922,-0.234375 l -0.625,0.15625 -0.0781,-0.07813 h -0.0781 l -0.46875,0.15625 -0.85938,-0.07813 -2.34375,0.4687503 -1.95312,-0.2343753 -1.17188,0.07813 -0.0781,-0.07813 -0.3125,0.07813 h -0.9375 l -1.01563,-0.3125 h -0.625 l -0.78125,0.234375 h -0.0781 q -1.03516,0 -1.40625,-0.234375 l -0.54688,0.15625 -1.5625,-0.15625 q 0,0.117188 -1.09375,0.234375 l -0.70312,-0.07813 h -0.9375 q -2.05078,0 -2.26563,0.3125003 h -0.39062 l -2.34375,-0.3906253 -0.46875,0.07813 -0.85938,-0.15625 -1.40625,0.15625 h -0.3125 l -1.17187,0.3125003 q -0.85938,0 -1.09375,-0.6250003 0.39062,-0.585937 0.39062,-1.25 l -0.0781,-0.3125 q 0,-0.546875 1.09375,-0.546875 l 1.64062,0.234375 q 0.29297,-0.234375 0.70313,-0.234375 h 0.3125 q 0.39062,0 0.46875,0.234375 l 2.1875,-0.234375 1.64062,0.46875 1.25,-0.390625 v 0.07813 l 1.01563,-0.234375 0.46875,0.07813 0.3125,-0.07813 0.23437,0.234375 h 0.23438 l 0.23437,-0.234375 0.70313,0.15625 1.17187,-0.15625 q 0.27344,0.234375 1.17188,0.3125 l 0.39062,-0.234375 0.39063,0.234375 0.39062,-0.07813 0.3125,0.07813 0.54688,-0.07813 1.25,0.15625 1.32812,-0.3125 1.09375,0.15625 0.46875,-0.07813 h 1.25 l 0.70313,-0.234375 0.54687,0.15625 0.23438,-0.07813 0.54687,0.15625 h 0.0781 l 0.0781,-0.07813 1.09375,0.234375 0.3125,-0.07813 0.78125,0.15625 0.9375,-0.234375 h 0.23438 l 0.29297,0.07813 z m 0,35.898438 -0.27344,-0.07813 -2.1875,0.3125 -0.0781,-0.07813 -0.39063,0.07813 -0.46875,-0.07813 -1.17187,0.15625 q -0.60547,0 -1.40625,-0.234375 h -0.0781 q -0.29297,0.234375 -0.54687,0.234375 h -0.23438 q -0.46875,0 -0.9375,-0.46875 l -0.9375,0.15625 -0.3125,-0.07813 -0.3125,0.07813 h -0.625 q -0.44922,0.3125 -0.70312,0.3125 l -0.625,-0.07813 h -0.0781 l -0.0781,0.07813 -0.39063,-0.234375 -0.46875,0.234375 -0.46875,-0.15625 q -0.29297,0.234375 -0.70312,0.234375 h -0.23438 l -0.625,-0.234375 q -1.5625,0 -3.04687,0.234375 -0.72266,0 -1.25,-0.46875 0,0.3125 -1.09375,0.390625 l -0.46875,-0.07813 -0.54688,0.15625 q -1.03516,-0.15625 -1.25,-0.3125 h -0.0781 l -0.0781,0.07813 -1.71875,-0.15625 q -0.99609,0 -1.25,0.3125 h -0.15625 l -0.3125,-0.234375 -0.46875,0.15625 -0.0781,-0.07813 h -0.23438 q -0.48828,0.15625 -1.875,0.234375 l -0.54687,-0.3125 v -0.07813 l 0.0781,-0.07813 q 0.3125,-0.117188 0.3125,-0.234375 v -0.07813 l -0.23437,-0.234375 0.15625,-0.546875 v -0.07813 q 0,-0.15625 -0.23438,-0.15625 v -0.3125 l 0.3125,-0.546875 q 0.89844,0 1.5625,0.234375 0.89844,0 1.17188,-0.3125 h 0.39062 l 1.32813,0.234375 h 0.23437 l 0.85938,-0.234375 q 1.66015,0.253906 1.95312,0.46875 h 0.3125 q 0.39063,0 0.46875,-0.234375 h 0.0781 l 0.0781,0.07813 h 0.3125 q 0,-0.15625 1.79688,-0.390625 l 0.46875,0.07813 h 0.0781 l 0.0781,-0.07813 q 0.3125,0.117187 0.3125,0.234375 l 0.54687,-0.07813 h 0.54688 l 2.03125,0.390625 0.78125,-0.3125 v 0.07813 q 0.74218,0 1.40625,-0.234375 l 0.78125,0.15625 q 1.48437,0 2.26562,-0.3125 1.5625,0.546875 2.10938,0.546875 h 0.39062 q 0.9375,-0.3125 1.79688,-0.390625 l 0.23437,0.234375 h 0.23438 v -0.15625 h 0.23437 q 0,0.234375 0.39063,0.234375 h 0.15625 l 0.0781,-0.07813 0.39063,0.234375 h 0.23437 q 0.15625,-0.15625 0.625,-0.15625 l 0.39063,-0.390625 1.28906,0.332031 z"
       style="font-style:normal;font-variant:normal;font-weight:normal;font-stretch:normal;font-family:'Top Secret';-inkscape-font-specification:'Top Secret';fill:#ff0000"
       id="path72" />
    <path
       inkscape:connector-curvature="0"
       d="m 231.99805,-7.5218797 0.52734,0.1757812 v 1.5820313 q 0,1.2109375 -1.77734,1.40625 l 0.17578,0.1757812 -0.52735,0.8984375 0.17579,1.2304688 -0.35157,0.3515625 v 1.23046871 l 0.17578,0.17578125 -0.17578,0.17578125 v 0.17578125 l 0.35157,1.40625004 V 1.989839 q -1.05469,2.5195313 -1.05469,3.5351563 l 1.05469,3.1640625 -0.35157,1.0546875 v 1.2499997 l 0.52735,2.460938 -0.52735,1.582031 v 0.703125 q 0,0.9375 2.48047,3.007813 l -0.35156,1.230468 h -0.17578 q -0.91797,0 -1.60156,-0.527343 h -0.35157 l -1.58203,0.175781 q -0.83984,-0.136719 -1.40625,-0.878906 l -3.71094,-1.953125 0.35157,-0.878907 q -1.23047,-0.273437 -1.23047,-0.878906 l 0.17578,-0.175781 v -0.175781 l -1.75781,-4.394532 q 0.35156,-0.7812497 0.35156,-2.832031 l -0.52734,-2.8125 q 0,-3.73046874 2.10937,-4.76562499 l 0.17578,-0.17578125 v -0.17578125 l -0.52734,-0.87890621 q 0.44922,-0.8984375 1.58203,-1.5820313 0.29297,-1.2890625 4.0625,-3.5351562 0,-0.4101563 3.71094,-1.0546875 z m 3.86718,0.1757812 q 0,0.46875 2.65625,1.40625 1.23047,0 2.28516,-1.2304687 h 0.35156 q 0.87891,0.4492187 0.87891,1.5820312 0,0.8789063 -0.35156,0.8789063 0.35156,0.4296875 0.52734,2.8320312 l -0.17578,2.9882813 0.52734,1.40625 q -0.50781,1.25 -1.58203,1.25 0,-0.46875 -0.8789,-0.703125 l -1.40625,-4.765625 q -0.44922,0 -1.42579,-1.2304688 -0.8789,-0.1367187 -0.8789,-0.5273437 l 0.17578,-0.7226563 q -0.87891,-0.6445312 -2.63672,-0.8789062 0,-1.9335938 1.05469,-1.9335938 0,-0.3515625 0.8789,-0.3515625 z m 6.17188,19.5703125 0.17578,0.175781 q -0.21484,2.734375 -1.05469,4.042969 -1.23047,0 -1.23047,1.425781 l -2.65625,0.878907 V 18.57187 l -1.93359,1.933594 h -1.05469 q -0.70312,-0.292969 -0.70312,-1.230469 V 18.57187 q 0,-0.3125 4.57031,-2.304687 1.95313,-4.042969 3.88672,-4.042969 z m 3.67187,13.398438 -0.3125,0.09766 -0.23437,-0.07813 -0.46875,0.15625 q 0,-0.390625 -1.09375,-0.46875 l -1.32813,0.3125 h -0.625 l -0.70312,-0.07813 h -0.0781 l -0.0781,0.07813 -0.85938,-0.07813 h -0.39062 l -0.23438,-0.15625 h -0.23437 l -0.46875,0.15625 -0.23438,-0.15625 q 0,0.15625 -1.64062,0.234375 -0.15625,-0.15625 -0.9375,-0.234375 0,0.15625 -0.70313,0.234375 0,-0.195313 -0.85937,-0.3125 h -0.85938 l -0.54687,0.234375 -1.64063,-0.3125 -0.54687,0.15625 h -0.0781 l -0.0781,-0.07813 -0.54688,0.15625 -1.32812,-0.234375 -0.625,0.234375 h -0.0781 l -0.0781,-0.07813 -1.17188,0.15625 -1.09375,-0.3125 -1.5625,0.3125 -1.48437,-0.07813 -0.625,0.07813 q 0,-0.136719 -0.78125,-0.15625 h -0.54688 l -0.15625,-0.15625 v -0.15625 l 0.15625,-0.625 v -0.234375 l -0.15625,-0.234375 v -0.3125 q 0,-0.546875 0.625,-0.625 1.50391,0.07813 1.64063,0.234375 h 0.0781 l 0.0781,-0.07813 0.3125,0.15625 q 0,-0.292969 2.34375,-0.390625 l 1.32812,0.3125 h 0.3125 l 0.0781,-0.07813 0.0781,0.07813 h 0.15625 l 0.39063,-0.07813 0.46875,0.07813 h 0.3125 l 1.01562,-0.15625 0.85938,0.15625 h 0.78125 l 0.70312,0.234375 1.09375,-0.234375 h 0.0781 l 0.70312,0.07813 1.09375,-0.3125 0.9375,0.234375 h 0.78125 l 0.0781,-0.07813 0.0781,0.07813 h 0.3125 l 0.70313,0.07813 2.34375,-0.234375 0.23437,0.07813 0.23438,-0.07813 0.3125,0.07813 h 0.0781 l 0.0781,-0.07813 0.54687,0.07813 0.9375,-0.15625 1.25,0.15625 1.17188,-0.3125 0.70312,0.117187 z m 0,-35.644532 -1.03515,0.136719 q -0.60547,0 -1.40625,-0.234375 h -0.0781 q -0.29297,0.234375 -0.54687,0.234375 h -0.23438 q -0.46875,0 -0.9375,-0.46875 l -0.9375,0.15625 -0.3125,-0.07813 -0.3125,0.07813 h -0.625 q -0.44922,0.3125 -0.70312,0.3125 l -0.625,-0.078125 h -0.0781 l -0.0781,0.078125 -0.39063,-0.234375 -0.46875,0.234375 -0.46875,-0.15625 q -0.29297,0.234375 -0.70312,0.234375 h -0.23438 l -0.625,-0.234375 q -1.5625,0 -3.04687,0.234375 -0.72266,0 -1.25,-0.46875 0,0.3125 -1.09375,0.390625 l -0.46875,-0.078125 -0.54688,0.15625 q -1.03515,-0.15625 -1.25,-0.3125 h -0.0781 l -0.0781,0.07813 -1.71875,-0.15625 q -0.99609,0 -1.25,0.3125 h -0.15625 l -0.3125,-0.234375 -0.46875,0.15625 -0.0781,-0.078125 h -0.23438 q -0.48828,0.15625 -1.875,0.234375 l -0.54687,-0.3125 v -0.07813 l 0.0781,-0.07813 q 0.3125,-0.117187 0.3125,-0.234375 v -0.07813 l -0.23437,-0.234375 0.15625,-0.546875 v -0.07813 q 0,-0.15625 -0.23438,-0.15625 v -0.3125 l 0.3125,-0.546875 q 0.89844,0 1.5625,0.234375 0.89844,0 1.17188,-0.3125 h 0.39062 l 1.32813,0.234375 h 0.23437 l 0.85938,-0.234375 q 1.66015,0.253906 1.95312,0.46875 h 0.3125 q 0.39063,0 0.46875,-0.234375 h 0.0781 l 0.0781,0.07813 h 0.3125 q 0,-0.15625 1.79688,-0.390625 l 0.46875,0.07813 h 0.0781 l 0.0781,-0.07813 q 0.3125,0.117188 0.3125,0.234375 l 0.54687,-0.07813 h 0.54688 l 2.03125,0.390625 0.78125,-0.3125 v 0.07813 q 0.74219,0 1.40625,-0.234375 l 0.78125,0.15625 q 1.48437,0 2.26562,-0.3125 1.5625,0.546875 2.10938,0.546875 h 0.39062 q 0.9375,-0.3125 1.79688,-0.390625 l 0.23437,0.234375 h 0.23438 v -0.15625 h 0.23437 q 0,0.05859 0.0195,0.09766 z"
       style="font-style:normal;font-variant:normal;font-weight:normal;font-stretch:normal;font-family:'Top Secret';-inkscape-font-specification:'Top Secret';fill:#ff0000"
       id="path74" />
    <path
       inkscape:connector-curvature="0"
       d="m 248.59961,-7.4828172 q 1.64062,0 2.71484,0.9179687 h 0.3711 l 1.26953,-0.1953125 v 0.1953125 l 0.17578,-0.1953125 h 0.91797 q 2.34375,0 3.26172,-0.3515625 l 0.89843,0.3515625 v 1.2695313 q -1.62109,1.2695312 -1.62109,2.3632812 l 0.17578,2.53906251 -0.17578,3.08593749 h 0.17578 l -0.17578,0.1757813 v 0.9179687 l 0.17578,1.0742188 -0.17578,0.1953125 V 5.036714 l 0.17578,0.7226563 -0.17578,3.4375 v 0.7226562 l 0.35156,1.4648435 v 0.722657 l -0.54687,2.363281 q 0,3.808594 1.64062,3.808594 l 0.72266,1.074218 q 0,0.605469 -2.16797,0.917969 l -1.64062,-0.195312 -1.81641,0.195312 h -0.89844 l -1.99219,-0.195312 -0.19531,0.195312 h -0.17578 l -1.09375,-0.195312 -1.07422,0.371093 -1.46484,-0.546875 h -0.72266 l -0.17578,-0.722656 q 0,-0.488281 1.99219,-1.640625 l 0.91797,-3.613281 -0.19532,-1.269531 0.19532,-0.546875 -0.74219,-5.2539067 0.19531,-1.09375 V 4.3140578 l 0.17578,-0.1953125 -0.54687,-1.4453125 0.54687,-2.16796879 -0.37109,-3.08593751 0.19531,-0.9179687 q 0,-0.9765625 -1.64062,-1.4453125 l -0.35157,-0.7226563 v -0.1757812 l 0.72266,-0.7226563 0.17578,0.1757813 h 0.3711 z m 20.3125,0.3710937 h 1.81641 q 0.33203,0 1.09375,1.2695313 -0.76172,1.2695312 -2.73438,1.2695312 -0.27344,0.5273438 -2.53906,2.1679688 0,0.8007812 -1.44531,1.99218746 -0.17579,0.72265625 -0.72266,0.72265625 v 0.1953125 q 1.58203,3.45703129 1.99219,5.97656249 l -0.17578,0.7226563 q 1.05468,2.4804687 1.62109,2.5390625 0,1.5429687 1.26953,3.2617187 0.72266,1.269531 0.72266,2.734375 l 0.91797,1.796875 q 0.97656,0 1.99218,1.640625 v 0.175781 q 0,0.410157 -1.26953,0.722657 l -0.72265,-0.175782 -1.44532,0.546875 -2.1875,-0.371093 h -3.63281 l -2.89062,0.195312 q -1.09375,-0.429687 -1.09375,-0.722656 V 19.35312 q 0,-0.683593 0.91796,-1.621093 v -1.640625 q 0,-2.441407 -2.1875,-6.1718755 L 258.0332,6.8531203 q 0.44922,-0.15625 2.53907,-4.53125 1.83593,0 3.26171,-4.9023438 v -0.546875 q -0.0391,-0.4101562 -2.16796,-1.9921875 l -0.19532,-1.09375 0.72266,-0.7226562 2.1875,0.1757812 z m 5.64453,32.6562505 q -0.27344,-0.05859 -0.27344,-0.117188 l -0.23437,0.15625 -0.46875,-0.15625 h -0.23438 l -0.23437,0.15625 h -0.39063 l -0.85937,0.07813 -0.0781,-0.07813 h -0.0781 l -0.70313,0.07813 h -0.625 l -1.32812,-0.3125 q -1.09375,0.07813 -1.09375,0.46875 l -0.46875,-0.15625 -0.23438,0.07813 -0.46875,-0.15625 -0.46875,0.07813 q -0.80078,-0.09766 -0.9375,-0.234375 h -1.64062 l -1.09375,0.234375 -1.25,-0.15625 -1.40625,0.07813 -1.64063,-0.234375 q 0,0.214844 -1.17187,0.3125 l -0.3125,-0.07813 h -0.625 l -0.625,-0.234375 -1.01563,0.234375 -0.23437,-0.07813 q -1.01563,0.07813 -1.01563,0.234375 l -0.39062,-0.07813 -0.3125,0.07813 q -0.42969,-0.390625 -1.48438,-0.390625 l -0.15625,0.15625 h -0.0781 l -0.3125,-0.07813 -0.3125,0.15625 -0.625,-0.15625 -1.25,0.234375 -0.54688,-0.3125 -0.46875,0.15625 -0.0781,-0.07813 h -0.0781 l -0.78125,0.07813 -0.70312,-0.234375 q -0.23438,0.15625 -0.58594,0.234375 V 23.10312 l 0.11719,-0.01953 0.625,0.07813 0.46875,-0.15625 h 0.3125 q 0.39062,0 0.78125,0.234375 l 0.70312,-0.07813 q 0,0.09766 0.78125,0.3125 0.41016,-0.09766 0.625,-0.390625 l 0.3125,-0.07813 0.54688,0.07813 0.0781,-0.07813 2.8125,0.234375 0.3125,-0.07813 0.9375,0.234375 0.85938,-0.07813 0.625,0.07813 1.09375,-0.234375 1.32812,0.15625 0.46875,-0.15625 h 0.39063 l 0.625,0.15625 0.23437,-0.15625 h 0.15625 v 0.07813 l 1.79688,-0.15625 1.25,0.234375 q 0.44922,-0.234375 0.9375,-0.234375 0.42969,0.234375 0.85937,0.234375 l 2.42188,-0.390625 1.17187,0.3125 1.25,-0.15625 0.9375,0.15625 0.54688,-0.07813 0.0781,0.07813 h 0.0781 l 0.3125,-0.07813 0.23437,0.07813 0.23438,-0.07813 2.05078,0.214844 z m -0.15625,-35.683594 q -0.23437,-0.03906 -0.60547,-0.292969 h -0.625 l -0.3125,-0.07813 -0.3125,0.07813 -0.9375,-0.15625 q -0.46875,0.46875 -0.9375,0.46875 h -0.23437 q -0.25391,0 -0.54688,-0.234375 h -0.0781 q -0.80078,0.234375 -1.40625,0.234375 l -1.17188,-0.15625 -0.46875,0.07813 -0.39062,-0.07813 -0.0781,0.07813 -2.1875,-0.3125 -1.09375,0.3125 -0.54687,-0.07813 -0.85938,0.15625 -0.46875,-0.234375 -0.0781,0.07813 h -0.0781 l -0.3125,-0.07813 -0.70312,0.234375 -0.23438,-0.234375 -0.39062,0.07813 h -0.78125 l -0.9375,0.07813 -0.15625,-0.15625 -0.15625,0.15625 -0.78125,-0.07813 h -0.70313 l -0.78125,0.390625 -1.25,-0.3125 -0.0781,0.07813 h -0.0781 l -0.625,-0.234375 h -0.85937 l -0.3125,0.15625 -0.3125,-0.15625 -0.70313,0.07813 -0.0781,-0.07813 -0.625,0.15625 h -0.23438 l -0.9375,-0.234375 -0.78125,0.15625 -0.3125,-0.07813 -1.09375,0.234375 -0.0781,-0.07813 h -0.0781 l -0.54687,0.15625 -0.23438,-0.07813 -0.54687,0.15625 -0.15625,-0.058594 v -2.792968 l 0.39062,-0.03906 2.34375,0.46875 0.85938,-0.07813 0.46875,0.15625 h 0.0781 l 0.0781,-0.07813 0.625,0.15625 q 0,-0.175781 1.32812,-0.46875 0.29297,-0.3125 0.625,-0.390625 0.56641,0.546875 1.17188,0.546875 l 0.39062,-0.234375 q 0.17578,0.253906 1.17188,0.46875 l 0.9375,-0.234375 0.85937,0.07813 h 0.39063 l 0.46875,-0.234375 q 0.37109,0.234375 0.70312,0.234375 0.66406,0 1.09375,-0.15625 l 1.71875,0.234375 q 0.11719,-0.3125 0.23438,-0.3125 h 0.70312 l 0.0781,-0.07813 1.01562,0.46875 h 0.0781 l 2.1875,-0.546875 0.39062,0.390625 q 0.46875,0 0.625,0.15625 h 0.23438 l 0.39062,-0.234375 0.0781,0.07813 h 0.15625 q 0.39062,0 0.39062,-0.234375 h 0.23438 v 0.15625 h 0.23437 l 0.23438,-0.234375 q 0.85937,0.07813 1.79687,0.390625 h 0.39063 q 0.54687,0 2.10937,-0.546875 0.70313,0.292969 1.99219,0.3125 z"
       style="font-style:normal;font-variant:normal;font-weight:normal;font-stretch:normal;font-family:'Top Secret';-inkscape-font-specification:'Top Secret';fill:#ff0000"
       id="path76" />
    <path
       inkscape:connector-curvature="0"
       d="m 281.91992,-7.5218797 q 1.75781,0.3515625 1.75781,0.703125 v 0.5273437 q 0,1.328125 -2.10937,1.953125 l -0.72266,2.1289063 q 1.01563,2.65624996 2.12891,2.65624996 0.13672,0.5078125 3.73047,1.40625004 2.73437,2.4804687 4.23828,2.4804687 0,0.3125 1.77734,1.7773438 v 1.2304687 q 0.52735,0 0.52735,0.3515625 l -0.17578,0.7226563 q 0.70312,0.9570312 0.70312,3.1835937 -0.41016,0 -0.70312,3.183594 -1.79688,1.914062 -3.35938,4.433594 -4.02344,1.230468 -5.48828,1.230468 h -0.17578 q -0.3711,0 -0.54688,-1.054687 0.3125,-1.777344 1.60157,-1.777344 1.75781,0 1.95312,-1.601562 v -1.582032 q -0.83984,-3.359375 -4.43359,-3.359375 -0.17578,-0.566406 -3.00782,-1.425781 0,-0.5273437 -2.83203,-1.5820312 Q 275.82617,5.583589 275.37695,5.583589 V 4.6851515 l -1.42578,-1.9335937 0.87891,-1.77734379 -0.52735,-1.77734375 0.52735,-0.17578125 V -1.8578172 q 2.34375,-3.7304688 3.90625,-4.4335938 l 0.17578,0.1953125 h 0.17578 q 0.52734,0 2.83203,-1.4257812 z m 10.27344,0 h 0.17578 q 0.17578,1.2304687 0.52734,1.2304687 l -0.17578,0.8984375 0.17578,1.0546875 -0.52734,1.953125 v 0.1757813 l 0.70313,1.95312496 v 0.52734375 q 0,0.83984379 -1.07422,1.75781249 h -0.87891 V 0.27108901 q -2.10937,-3.39843751 -2.65625,-3.73046871 -2.94922,-1.4453125 -3.35937,-1.9335938 V -5.744536 q 0,-1.4257812 0.70312,-1.4257812 3.45703,0.4882812 4.08203,1.0742187 h 0.70313 q 0,-1.1523437 1.60156,-1.4257812 z m -17.1875,17.34375 h 0.54687 q 0.70313,0.1953127 1.40625,1.9531247 v 0.175782 l -0.17578,0.878906 q 1.15235,0.976562 1.95313,3.730469 v 0.175781 h 0.8789 l 2.83204,2.109375 v 0.898437 q 0,0.527344 -1.95313,0.527344 -0.0977,-0.429687 -1.23047,-0.878906 l -0.17578,0.175781 h -0.17578 q -1.07422,-0.429687 -1.07422,-0.722656 -1.17187,0 -2.10937,1.425781 h -0.54688 l -0.52734,-0.878906 0.17578,-0.898438 -0.35156,-0.351562 v -1.230469 l -0.35157,-1.074219 0.35157,-1.40625 v -1.25 l -0.17579,-0.703125 q 0.23438,-2.6562497 0.70313,-2.6562497 z m 20.99609,-20.0781253 -0.64453,0.05859 -0.23437,-0.07813 -0.23438,0.07813 -0.3125,-0.07813 h -0.0781 l -0.0781,0.07813 -0.54687,-0.07813 -0.9375,0.15625 -1.25,-0.15625 -1.17188,0.3125 -2.42187,-0.390625 q -0.42969,0 -0.85938,0.234375 -0.48828,0 -0.9375,-0.234375 l -1.25,0.234375 -1.79687,-0.15625 v 0.07813 h -0.15625 l -0.23438,-0.15625 -0.625,0.15625 h -0.39062 l -0.46875,-0.15625 -1.32813,0.15625 -1.09375,-0.234375 -0.625,0.07813 -0.85937,-0.07813 -0.9375,0.234375 -0.3125,-0.07813 -2.5,0.214844 v -2.460938 l 0.0781,-0.01953 h 0.0781 l 0.15625,0.15625 q 1.05468,0 1.48437,-0.390625 l 0.3125,0.07813 0.39063,-0.07813 q 0,0.15625 1.01562,0.234375 l 0.23438,-0.07813 1.01562,0.234375 0.625,-0.234375 h 0.625 l 0.3125,-0.07813 q 1.17188,0.09766 1.17188,0.3125 l 1.64062,-0.234375 1.40625,0.07813 1.25,-0.15625 1.09375,0.234375 h 1.64063 q 0.13672,-0.136719 0.9375,-0.234375 l 0.46875,0.07813 0.46875,-0.15625 0.23437,0.07813 0.46875,-0.15625 q 0,0.390625 1.09375,0.46875 l 1.32813,-0.3125 h 0.625 l 0.70312,0.07813 h 0.0781 l 0.0781,-0.07813 0.85938,0.07813 h 0.39062 l 0.0195,0.01953 z m 0,35.585938 q -1.15234,0.03906 -2.46093,0.292969 l -0.85938,-0.3125 -1.01562,0.15625 -0.625,-0.07813 -0.46875,0.15625 h -0.3125 q -0.3711,0 -0.78125,-0.234375 l -0.70313,0.07813 q 0,-0.09766 -0.78125,-0.3125 -0.41016,0.09766 -0.625,0.390625 l -0.3125,0.07813 -0.54687,-0.07813 -0.0781,0.07813 -2.8125,-0.234375 -0.3125,0.07813 -0.9375,-0.234375 -0.85937,0.07813 -0.625,-0.07813 -1.09375,0.234375 -1.32813,-0.15625 -0.46875,0.15625 h -0.39062 l -0.625,-0.15625 -0.23438,0.15625 h -0.15625 v -0.07813 l -1.79687,0.15625 -1.07422,-0.195313 V 23.025 l 0.60547,-0.136718 1.25,0.15625 1.40625,-0.07813 1.64062,0.234375 q 0,-0.214844 1.17188,-0.3125 l 0.3125,0.07813 h 0.625 l 0.625,0.234375 1.01562,-0.234375 0.23438,0.07813 q 1.01562,-0.07813 1.01562,-0.234375 l 0.39063,0.07813 0.3125,-0.07813 q 0.42968,0.390625 1.48437,0.390625 l 0.15625,-0.15625 h 0.0781 l 0.3125,0.07813 0.3125,-0.15625 0.625,0.15625 1.25,-0.234375 0.54687,0.3125 0.46875,-0.15625 0.0781,0.07813 h 0.0781 l 0.78125,-0.07813 0.70313,0.234375 q 0.46875,-0.3125 1.40625,-0.3125 l 0.70312,0.15625 q 0.54688,0 0.85938,-0.15625 l 0.85937,0.07813 h 0.70313 l 0.0781,-0.07813 0.19531,0.03906 z"
       style="font-style:normal;font-variant:normal;font-weight:normal;font-stretch:normal;font-family:'Top Secret';-inkscape-font-specification:'Top Secret';fill:#ff0000"
       id="path78" />
    <path
       inkscape:connector-curvature="0"
       d="m 296.60742,-12.482817 q 0.33203,-0.253906 1.05469,-0.292969 v 0.07813 q 1.01562,0.07813 1.01562,0.3125 v 0.07813 l -0.0781,0.46875 0.23437,0.859375 q -0.13671,0 -0.15625,1.171875 0,0.390625 0.23438,0.46875 l -0.0781,0.078125 0.0781,0.625 q 0,0.234375 -0.3125,0.546875 v 0.078125 h 0.15625 v 0.078125 l -0.23438,0.234375 v 0.15625 q 0.54688,0.703125 0.54688,1.09375 -0.39063,0.8007813 -0.39063,1.171875 l 0.15625,1.328125 -0.15625,0.546875 v 1.09375 l 0.3125,1.48437501 v 0.234375 q 0,0.29296875 -0.54687,1.09375 0.23437,0.62499999 0.23437,1.64062499 l -0.0781,1.5625 0.23437,1.25 -0.23437,0.46875 0.0781,0.234375 -0.0781,0.3125 0.15625,0.625 -0.0781,0.078125 v 0.703125 l 0.0781,0.859375 q -0.15625,0.3125 -0.15625,0.859375 l 0.15625,0.703125 q 0,0.9375 -0.3125,1.40625 l 0.23437,0.703125 -0.0781,0.78125 v 0.07813 l 0.0781,0.07813 -0.15625,0.46875 0.3125,0.546875 -0.23437,1.25 0.15625,0.625 -0.15625,0.3125 0.0781,0.3125 v 0.07813 l -0.15625,0.15625 q 0,1.054688 0.39063,1.484375 l -0.0781,0.3125 0.0781,0.390625 q -0.15625,0 -0.23438,1.015625 l 0.0781,0.234375 -0.23438,1.015625 0.23438,0.625 v 0.625 l 0.0781,0.3125 q -0.0976,1.171875 -0.3125,1.171875 l 0.21485,1.503906 -1.36719,0.07813 v 0.195313 q -0.54687,0.05859 -1.46484,0.09766 l -1.32813,-0.3125 h -0.3125 l -0.0781,0.07813 -0.0781,-0.07813 -0.0391,-2.167969 0.66406,-0.09766 1.09375,0.3125 0.58594,-0.117187 -0.0781,-0.664063 0.23438,-1.09375 -0.0781,-0.625 0.0781,-0.859375 -0.23438,-0.9375 0.0781,-0.3125 -0.23438,-2.8125 0.0781,-0.07813 -0.0781,-0.546875 0.0781,-0.3125 q 0.29297,-0.214844 0.39062,-0.625 -0.21484,-0.78125 -0.3125,-0.78125 l 0.0781,-0.703125 q -0.23438,-0.410156 -0.23438,-0.78125 v -0.3125 l 0.15625,-0.46875 -0.0781,-0.625 0.15625,-1.015625 -0.3125,-0.859375 q 0.3125,-1.640625 0.3125,-3.046875 v -0.07815 l -0.0781,-0.078125 0.0781,-0.078125 -0.0781,-0.625 0.0781,-0.46875 q 0,-0.3125 -0.23438,-0.3125 0,-0.4882812 0.39063,-1.875 l -0.3125,-1.25 V 0.73983901 l 0.0781,-1.09375 -0.0781,-0.234375 q 0.23437,-0.83984371 0.23437,-1.40625001 v -0.390625 l -0.15625,-0.625 v -0.234375 l 0.23438,-1.40625 -0.15625,-0.46875 v -0.078125 l 0.0781,-0.078125 -0.0781,-1.09375 v -0.234375 l 0.0781,-0.390625 -0.0781,-0.078125 0.0781,-0.625 -0.0781,-0.234375 0.0781,-0.3125 q -0.3125,-0.3320312 -0.46875,-1.09375 0.19532,-0.2539062 0.29297,-0.839844 -0.80078,-0.05859 -0.89843,-0.175781 h -0.0781 l -0.0781,0.07813 -0.3125,-0.15625 q 0,0.175781 -0.87891,0.292969 v -2.480469 h 0.0195 l 1.48438,0.07813 0.625,-0.07813 q 0,0.09766 0.41015,0.136719 z"
       style="font-style:normal;font-variant:normal;font-weight:normal;font-stretch:normal;font-family:'Top Secret';-inkscape-font-specification:'Top Secret';fill:#ff0000"
       id="path80" />
  </g>
</svg>
