<?xml version="1.0" encoding="UTF-8" standalone="no"?>
<svg
   xmlns:dc="http://purl.org/dc/elements/1.1/"
   xmlns:cc="http://creativecommons.org/ns#"
   xmlns:rdf="http://www.w3.org/1999/02/22-rdf-syntax-ns#"
   xmlns:svg="http://www.w3.org/2000/svg"
   xmlns="http://www.w3.org/2000/svg"
   xmlns:sodipodi="http://sodipodi.sourceforge.net/DTD/sodipodi-0.dtd"
   xmlns:inkscape="http://www.inkscape.org/namespaces/inkscape"
   width="500"
   height="200"
   viewBox="0 0 500 200"
   version="1.1"
   id="svg14"
   sodipodi:docname="snk.svg"
   style="fill:none"
   inkscape:version="0.92.5 (2060ec1f9f, 2020-04-08)">
  <metadata
     id="metadata20">
    <rdf:RDF>
      <cc:Work
         rdf:about="">
        <dc:format>image/svg+xml</dc:format>
        <dc:type
           rdf:resource="http://purl.org/dc/dcmitype/StillImage" />
        <dc:title></dc:title>
      </cc:Work>
    </rdf:RDF>
  </metadata>
  <defs
     id="defs18" />
  <sodipodi:namedview
     pagecolor="#ffffff"
     bordercolor="#666666"
     borderopacity="1"
     objecttolerance="10"
     gridtolerance="10"
     guidetolerance="10"
     inkscape:pageopacity="0"
     inkscape:pageshadow="2"
     inkscape:window-width="1366"
     inkscape:window-height="740"
     id="namedview16"
     showgrid="false"
     inkscape:pagecheckerboard="true"
     inkscape:zoom="1.6831772"
     inkscape:cx="173.5"
     inkscape:cy="55"
     inkscape:window-x="0"
     inkscape:window-y="0"
     inkscape:window-maximized="1"
     inkscape:current-layer="svg14" />
  <path
     d="m 37.704198,60.16729 c 0,17.330978 11.554022,31.361084 25.859039,31.361084 h 71.800193 c 1.65057,0 3.301,1.650562 3.301,3.851232 0,2.20092 -1.37544,3.85135 -3.301,3.85135 H 37.429213 V 127.01606 H 146.91738 c 14.30509,0 25.85903,-14.30509 25.85903,-31.636074 0,-17.330978 -11.55394,-31.636072 -25.85903,-31.636072 H 75.392295 c -1.650691,0 -3.301127,-1.650563 -3.301127,-3.851229 0,-2.200793 1.375448,-3.851356 3.301127,-3.851356 H 172.50092 V 28.806207 H 63.567829 c -14.304992,0 -25.859009,14.030106 -25.859009,31.361083 z"
     id="path2"
     inkscape:connector-curvature="0"
     style="fill:#ffffff;stroke-width:1.27545261" />
  <path
     d="m 180.4827,28.806207 v 97.660903 h 34.38748 V 65.119618 l 65.47408,61.347492 h 35.76242 V 28.806207 H 281.7192 V 89.878704 L 216.24511,28.806207 Z"
     id="path4"
     inkscape:connector-curvature="0"
     style="fill:#ffffff;stroke-width:1.27545261" />
  <path
     d="M 358.47211,71.721998 V 28.806207 h -34.9372 v 97.660903 h 34.9372 V 83.276196 l 55.57147,43.190914 h 44.84109 L 395.61074,77.774276 458.88467,28.806207 h -44.84109 z"
     id="path6"
     inkscape:connector-curvature="0"
     style="fill:#ffffff;stroke-width:1.27545261" />
  <path
     d="m 469.05385,28.806207 c 2.74988,0 5.22298,1.100404 7.15146,3.025998 h 10e-4 c 1.92976,1.925704 2.74988,4.12651 3.02792,7.152509 0,2.7505 -1.09816,5.226409 -3.02792,7.15247 -1.92466,1.925678 -4.40159,3.026011 -7.15146,3.026011 -2.75115,0 -5.22681,-1.100205 -7.15274,-3.026011 -1.92593,-1.925678 -3.02665,-4.401459 -3.02665,-7.15247 0,-2.751011 1.10072,-5.226805 3.02665,-7.152509 1.92976,-1.925617 4.40159,-3.025998 7.15146,-3.025998 z m 0,18.706808 c 2.47566,0 4.40031,-0.825346 6.05202,-2.475909 1.65044,-1.650691 2.47566,-3.851331 2.47566,-6.052137 0,-2.200819 -0.82522,-4.401498 -2.47566,-6.052112 -1.65171,-1.650627 -3.57636,-2.475909 -6.05202,-2.475909 -2.20143,0 -4.40159,0.825295 -6.0533,2.475909 -1.65043,1.650601 -2.47565,3.576203 -2.47565,6.052112 0,2.200806 0.82522,4.401446 2.47565,6.052137 1.65171,1.650563 3.57637,2.475909 6.0533,2.475909 z"
     id="path8"
     inkscape:connector-curvature="0"
     style="clip-rule:evenodd;fill:#ffffff;fill-rule:evenodd;stroke-width:1.27545261" />
  <path
     d="m 473.73349,37.059035 v 0.275103 -2.6e-5 c 0,1.100435 -0.551,1.925717 -1.37622,2.200806 0.0765,0.151269 0.17219,0.302525 0.27295,0.459495 0.26402,0.414025 0.55227,0.867805 0.55227,1.466222 l 0.2755,2.475883 h -1.65044 l -0.27549,-2.475883 c 0,-0.550192 -0.54972,-1.100384 -1.37494,-1.100384 h -3.57637 v 3.851255 h -1.65044 V 34.033037 h 5.77653 c 1.65043,0 3.02665,1.375397 3.02665,3.025998 z m -3.02665,-1.375741 h -4.12609 v 1.02e-4 3.301101 h 4.12609 c 0.82522,0 1.37494,-0.55023 1.37494,-1.375512 v -0.550179 c 0,-0.82532 -0.54972,-1.375512 -1.37494,-1.375512 z"
     id="path10"
     inkscape:connector-curvature="0"
     style="clip-rule:evenodd;fill:#ffffff;fill-rule:evenodd;stroke-width:1.27545261" />
  <path
     d="m 46.511175,169.07921 c 1.341879,-0.003 2.667201,-0.29718 3.883652,-0.86603 1.196374,-0.52931 2.257806,-1.32392 3.104961,-2.32387 v 0 L 51.1865,163.56416 c -0.567704,0.68619 -1.272774,1.24356 -2.069473,1.63768 -0.781559,0.38008 -1.639581,0.57395 -2.50791,0.56885 -0.73276,0.008 -1.459793,-0.1301 -2.139036,-0.40687 -0.679242,-0.2755 -1.297211,-0.68364 -1.818132,-1.2002 -0.501597,-0.50636 -0.897918,-1.10709 -1.165917,-1.76905 -0.287334,-0.7015 -0.432021,-1.45402 -0.425567,-2.21164 -0.0078,-0.76655 0.132736,-1.52672 0.413897,-2.23842 0.26245,-0.66323 0.651386,-1.2678 1.144948,-1.7804 0.494965,-0.50891 1.086967,-0.91259 1.740725,-1.18707 0.681283,-0.29016 1.414528,-0.43735 2.154635,-0.43276 0.892575,-0.004 1.773645,0.20203 2.5732,0.59998 0.826455,0.4163 1.550185,1.01194 2.118527,1.74418 v 0 l 2.386627,-2.399 c -0.83912,-1.02215 -1.906929,-1.83117 -3.116568,-2.36125 -1.243095,-0.57625 -2.595814,-0.87598 -3.965281,-0.87827 -1.223197,-0.009 -2.435846,0.22703 -3.567734,0.69231 -1.072375,0.43633 -2.051514,1.0747 -2.884512,1.88053 -0.822208,0.80634 -1.476167,1.76892 -1.92378,2.83099 -0.464016,1.11475 -0.703922,2.30985 -0.705923,3.51643 -0.002,1.20785 0.233943,2.40295 0.694264,3.51897 0.442313,1.05863 1.092148,2.01649 1.91095,2.81875 0.833393,0.80609 1.812941,1.44381 2.885673,1.88002 1.13954,0.46681 2.360212,0.7015 3.591062,0.69129 z m 46.143988,0.0255 c 1.219078,0.009 2.427697,-0.22703 3.554814,-0.69257 1.067681,-0.43493 2.039066,-1.07648 2.858289,-1.88894 0.819224,-0.81247 1.470084,-1.78054 1.915094,-2.84681 0.46592,-1.1071 0.70596,-2.29709 0.70596,-3.49857 0,-1.20148 -0.24004,-2.39147 -0.70596,-3.49857 -0.44501,-1.06666 -1.095743,-2.03396 -1.914966,-2.84668 -0.819223,-0.81272 -1.790736,-1.45478 -2.858417,-1.8892 -2.272601,-0.92266 -4.813813,-0.92266 -7.086415,0 -1.067809,0.43442 -2.039193,1.07648 -2.858417,1.8892 -0.819223,0.81272 -1.470086,1.78002 -1.914964,2.84668 -0.46554,1.1071 -0.705453,2.29709 -0.705453,3.49857 0,1.20148 0.239913,2.39147 0.705453,3.49857 0.445005,1.06627 1.095869,2.03434 1.915092,2.84681 0.819223,0.81246 1.790608,1.45401 2.858289,1.88894 1.119848,0.46427 2.320941,0.69895 3.532749,0.6913 z m 0,-3.28939 c -0.715529,0.006 -1.424681,-0.13392 -2.083962,-0.41197 -0.659409,-0.27933 -1.255173,-0.69002 -1.750814,-1.20658 -0.488881,-0.51911 -0.873302,-1.12878 -1.132091,-1.79329 -0.552271,-1.43616 -0.552271,-3.02792 0,-4.46408 0.260957,-0.66068 0.645251,-1.26397 1.132091,-1.78002 0.495641,-0.51758 1.091405,-0.92815 1.750814,-1.20671 0.659281,-0.27843 1.368433,-0.41898 2.083962,-0.41299 0.736319,-0.005 1.466005,0.1417 2.142888,0.43263 0.646399,0.27499 1.230302,0.6788 1.716249,1.18707 0.48684,0.51605 0.871134,1.11934 1.132092,1.78002 0.552016,1.43616 0.552016,3.02792 0,4.46408 -0.25879,0.66451 -0.643211,1.27418 -1.132092,1.79329 -0.485947,0.50763 -1.06985,0.91195 -1.716249,1.18617 -0.676628,0.2908 -1.405804,0.43748 -2.14174,0.43238 z m 53.521817,3.01772 v -3.1644 h -9.32739 v -14.1463 h -3.52803 v 17.30815 z m 44.51444,0 v -3.1644 h -9.32738 v -14.1463 h -3.53046 v 17.30815 z m 44.85257,0 v -3.11593 h -9.66666 v -4.10568 h 6.30839 v -3.01772 h -6.30839 v -3.95238 h 9.56972 v -3.11554 h -13.10272 v 17.30853 z m 39.15639,0.24744 c 1.34178,-0.003 2.66697,-0.29718 3.88376,-0.86603 1.19637,-0.53059 2.25755,-1.32392 3.10572,-2.32388 v 0 l -2.31494,-2.32387 c -0.56758,0.68619 -1.2729,1.24356 -2.07006,1.63768 -0.78058,0.38008 -1.63896,0.57395 -2.50754,0.56885 -0.73211,0.008 -1.45912,-0.1301 -2.13766,-0.40687 -0.67982,-0.2755 -1.29714,-0.68364 -1.81752,-1.2002 -0.50253,-0.50636 -0.89919,-1.10709 -1.16704,-1.76905 -0.28698,-0.7015 -0.43238,-1.45402 -0.426,-2.21291 -0.008,-0.76528 0.13265,-1.52545 0.41452,-2.23842 0.26147,-0.66196 0.65048,-1.26653 1.14408,-1.77939 0.49488,-0.5089 1.08669,-0.91258 1.74099,-1.18706 0.6811,-0.29017 1.41448,-0.43748 2.15424,-0.43263 0.89537,-0.004 1.77926,0.20381 2.58152,0.60456 0.82649,0.41618 1.54968,1.01182 2.11853,1.74354 v 0 l 2.38637,-2.39836 c -0.83925,-1.02214 -1.9068,-1.83116 -3.11593,-2.36124 -1.24357,-0.576 -2.59555,-0.8756 -3.96411,-0.87828 -1.22316,-0.008 -2.43611,0.22703 -3.56871,0.69232 -1.07266,0.43582 -2.05221,1.0738 -2.88508,1.87938 -0.82267,0.80621 -1.47697,1.76879 -1.92466,2.8315 -0.46426,1.11347 -0.70405,2.30857 -0.7066,3.51642 -10e-4,1.20658 0.23469,2.40296 0.69512,3.5177 0.44259,1.05863 1.09179,2.01777 1.91063,2.82003 0.83287,0.80481 1.81242,1.44253 2.88508,1.87874 1.13898,0.46426 2.35703,0.69767 3.58529,0.68619 z m 46.70453,-0.24744 V 154.687 h 5.72168 v -3.16581 h -14.99933 v 3.16581 h 5.74719 v 14.14349 z m 40.44715,0 v -17.3084 h -3.53045 v 17.3084 z m 40.66526,0.27295 c 1.21933,0.009 2.42846,-0.22703 3.55596,-0.69257 1.06755,-0.43493 2.03817,-1.07649 2.85829,-1.88895 0.81884,-0.81246 1.46932,-1.78053 1.91445,-2.84681 0.46554,-1.10709 0.70533,-2.29709 0.70533,-3.49857 0,-1.20147 -0.23979,-2.39147 -0.70533,-3.49984 -0.44513,-1.06551 -1.09561,-2.03281 -1.91445,-2.84553 -0.82012,-0.81259 -1.79074,-1.45478 -2.85829,-1.8892 -2.27286,-0.92228 -4.81356,-0.92228 -7.08514,0 -1.06756,0.43505 -2.03818,1.07737 -2.85829,1.89009 -0.81884,0.81259 -1.46932,1.77951 -1.91446,2.84464 -0.46681,1.10837 -0.7066,2.29709 -0.7066,3.49984 0,1.20148 0.23979,2.39148 0.7066,3.49857 0.44514,1.06628 1.09562,2.03307 1.91446,2.84554 0.82011,0.81246 1.79073,1.45529 2.85829,1.89022 1.11857,0.46299 2.31877,0.69767 3.52918,0.69002 z m 0,-3.2894 c -0.73211,0.006 -1.45785,-0.14029 -2.13001,-0.43237 -0.64155,-0.27678 -1.22188,-0.67982 -1.70401,-1.18745 -0.48977,-0.51783 -0.87496,-1.1275 -1.13387,-1.79201 -0.551,-1.43616 -0.551,-3.02793 0,-4.46408 0.26147,-0.66069 0.64665,-1.26525 1.13387,-1.78015 0.48213,-0.50649 1.06246,-0.91029 1.70401,-1.18694 0.67216,-0.29182 1.3979,-0.43927 2.13001,-0.43276 0.73721,-0.005 1.46549,0.1417 2.14276,0.43276 0.64665,0.27486 1.23081,0.67867 1.71676,1.18694 0.48722,0.51617 0.87113,1.11946 1.1326,1.78015 0.55227,1.43615 0.55227,3.02792 0,4.46408 -0.25892,0.66451 -0.64283,1.27418 -1.1326,1.79201 -0.48595,0.50891 -1.07011,0.91322 -1.71676,1.18745 -0.67727,0.2908 -1.40683,0.4362 -2.14276,0.4311 z m 44.00183,3.01773 v -11.57856 l 8.69349,11.57856 h 3.11593 v -17.30853 h -3.31107 v 11.20166 l -8.47411,-11.20166 h -3.36082 v 17.30853 z"
     id="path12"
     inkscape:connector-curvature="0"
     style="fill:#ffffff;stroke-width:1.27545261" />
</svg>
