<?xml version="1.0" encoding="UTF-8" standalone="no"?>
<!-- Created with Inkscape (http://www.inkscape.org/) -->

<svg
   xmlns:dc="http://purl.org/dc/elements/1.1/"
   xmlns:cc="http://creativecommons.org/ns#"
   xmlns:rdf="http://www.w3.org/1999/02/22-rdf-syntax-ns#"
   xmlns:svg="http://www.w3.org/2000/svg"
   xmlns="http://www.w3.org/2000/svg"
   xmlns:sodipodi="http://sodipodi.sourceforge.net/DTD/sodipodi-0.dtd"
   xmlns:inkscape="http://www.inkscape.org/namespaces/inkscape"
   version="1.1"
   id="svg2"
   xml:space="preserve"
   width="428.00711"
   height="152.25188"
   viewBox="0 0 428.00711 152.25187"
   sodipodi:docname="sonic.svg"
   inkscape:version="0.92.5 (2060ec1f9f, 2020-04-08)"><metadata
     id="metadata8"><rdf:RDF><cc:Work
         rdf:about=""><dc:format>image/svg+xml</dc:format><dc:type
           rdf:resource="http://purl.org/dc/dcmitype/StillImage" /><dc:title /></cc:Work></rdf:RDF></metadata><defs
     id="defs6"><clipPath
   clipPathUnits="userSpaceOnUse"
   id="clipPath18"><path
     d="M 0,396.85 H 595.28 V 0 H 0 Z"
     id="path16"
     inkscape:connector-curvature="0" /></clipPath><clipPath
   clipPathUnits="userSpaceOnUse"
   id="clipPath34"><path
     d="m 175.135,266.175 c 0,0 -9.999,-16.667 -40.167,-28 v 0 l -4.916,-12.75 -5.334,0.083 c 0,0 -5.749,-10.584 -37.416,-24.833 v 0 h 33.083 c 0,-1 -14.388,-46.875 -33.756,-65.5 v 0 c 0,0 59.756,10.5 77.006,85.249 v 0 l 5.5,16.001 h 38 l 19.25,29.75 z"
     id="path32"
     inkscape:connector-curvature="0" /></clipPath><linearGradient
   x1="0"
   y1="0"
   x2="1"
   y2="0"
   gradientUnits="userSpaceOnUse"
   gradientTransform="matrix(91.663811,158.7664,158.7664,-91.663811,96.746582,129.33301)"
   spreadMethod="pad"
   id="linearGradient50"><stop
     style="stop-opacity:1;stop-color:#295da9"
     offset="0"
     id="stop40" /><stop
     style="stop-opacity:1;stop-color:#295da9"
     offset="0.0052356"
     id="stop42" /><stop
     style="stop-opacity:1;stop-color:#295da9"
     offset="0.33581042"
     id="stop44" /><stop
     style="stop-opacity:1;stop-color:#272e65"
     offset="0.795811"
     id="stop46" /><stop
     style="stop-opacity:1;stop-color:#272e65"
     offset="1"
     id="stop48" /></linearGradient><clipPath
   clipPathUnits="userSpaceOnUse"
   id="clipPath60"><path
     d="M 0,396.85 H 595.28 V 0 H 0 Z"
     id="path58"
     inkscape:connector-curvature="0" /></clipPath><clipPath
   clipPathUnits="userSpaceOnUse"
   id="clipPath72"><path
     d="m 191.189,251.41 -2.814,-6.94 7.784,-0.094 -7.316,-19.037 h 8.722 l 7.315,19.131 h 7.034 l 2.721,6.94 z"
     id="path70"
     inkscape:connector-curvature="0" /></clipPath><linearGradient
   x1="0"
   y1="0"
   x2="1"
   y2="0"
   gradientUnits="userSpaceOnUse"
   gradientTransform="matrix(-1.1e-6,-26.071289,-26.071289,1.1e-6,201.50488,251.41016)"
   spreadMethod="pad"
   id="linearGradient86"><stop
     style="stop-opacity:1;stop-color:#e6342a"
     offset="0"
     id="stop78" /><stop
     style="stop-opacity:1;stop-color:#e6342a"
     offset="0.0104712"
     id="stop80" /><stop
     style="stop-opacity:1;stop-color:#f9b233"
     offset="0.989529"
     id="stop82" /><stop
     style="stop-opacity:1;stop-color:#f9b233"
     offset="1"
     id="stop84" /></linearGradient><clipPath
   clipPathUnits="userSpaceOnUse"
   id="clipPath96"><path
     d="m 239.206,251.41 c -0.281,0 -3.844,-9.471 -3.844,-9.471 v 0 h -10.599 l 3.095,9.471 h -8.44 l -9.754,-26.071 h 8.536 l 3.749,9.66 h 10.973 l -3.562,-9.66 h 8.814 c 0,0 9.566,26.071 9.847,26.071 v 0 c 0.188,0 -3.667,0.001 -6.342,0.001 v 0 c -1.337,0 -2.38,0 -2.473,-0.001"
     id="path94"
     inkscape:connector-curvature="0" /></clipPath><linearGradient
   x1="0"
   y1="0"
   x2="1"
   y2="0"
   gradientUnits="userSpaceOnUse"
   gradientTransform="matrix(-1.1e-6,-26.071777,-26.071777,1.1e-6,228.84619,251.41064)"
   spreadMethod="pad"
   id="linearGradient110"><stop
     style="stop-opacity:1;stop-color:#e6342a"
     offset="0"
     id="stop102" /><stop
     style="stop-opacity:1;stop-color:#e6342a"
     offset="0.0104712"
     id="stop104" /><stop
     style="stop-opacity:1;stop-color:#f9b233"
     offset="0.989529"
     id="stop106" /><stop
     style="stop-opacity:1;stop-color:#f9b233"
     offset="1"
     id="stop108" /></linearGradient><clipPath
   clipPathUnits="userSpaceOnUse"
   id="clipPath120"><path
     d="m 252.526,251.41 -9.755,-26.071 h 23.165 l 2.439,6.847 h -14.35 l 1.031,2.907 h 14.35 l 2.625,6.751 h -14.347 l 1.031,2.627 h 14.255 l 3.001,6.939 z"
     id="path118"
     inkscape:connector-curvature="0" /></clipPath><linearGradient
   x1="0"
   y1="0"
   x2="1"
   y2="0"
   gradientUnits="userSpaceOnUse"
   gradientTransform="matrix(-1.1e-6,-26.071289,-26.071289,1.1e-6,259.37109,251.41016)"
   spreadMethod="pad"
   id="linearGradient134"><stop
     style="stop-opacity:1;stop-color:#e6342a"
     offset="0"
     id="stop126" /><stop
     style="stop-opacity:1;stop-color:#e6342a"
     offset="0.0104712"
     id="stop128" /><stop
     style="stop-opacity:1;stop-color:#f9b233"
     offset="0.989529"
     id="stop130" /><stop
     style="stop-opacity:1;stop-color:#f9b233"
     offset="1"
     id="stop132" /></linearGradient><clipPath
   clipPathUnits="userSpaceOnUse"
   id="clipPath144"><path
     d="m 309.733,251.41 -11.821,-10.502 h -1.026 l 3.751,10.502 h -8.628 l -9.847,-26.071 h 8.722 l 4.97,13.035 4.501,-13.035 h 8.816 l -4.596,14.068 13.504,12.003 z"
     id="path142"
     inkscape:connector-curvature="0" /></clipPath><linearGradient
   x1="0"
   y1="0"
   x2="1"
   y2="0"
   gradientUnits="userSpaceOnUse"
   gradientTransform="matrix(-1.1e-6,-26.071289,-26.071289,1.1e-6,300.12109,251.41016)"
   spreadMethod="pad"
   id="linearGradient158"><stop
     style="stop-opacity:1;stop-color:#e6342a"
     offset="0"
     id="stop150" /><stop
     style="stop-opacity:1;stop-color:#e6342a"
     offset="0.0104712"
     id="stop152" /><stop
     style="stop-opacity:1;stop-color:#f9b233"
     offset="0.989529"
     id="stop154" /><stop
     style="stop-opacity:1;stop-color:#f9b233"
     offset="1"
     id="stop156" /></linearGradient><clipPath
   clipPathUnits="userSpaceOnUse"
   id="clipPath168"><path
     d="m 323.051,251.41 -9.845,-26.071 h 9.002 l 9.566,26.071 z"
     id="path166"
     inkscape:connector-curvature="0" /></clipPath><linearGradient
   x1="0"
   y1="0"
   x2="1"
   y2="0"
   gradientUnits="userSpaceOnUse"
   gradientTransform="matrix(-1.1e-6,-26.071289,-26.071289,1.1e-6,322.49023,251.41016)"
   spreadMethod="pad"
   id="linearGradient182"><stop
     style="stop-opacity:1;stop-color:#e6342a"
     offset="0"
     id="stop174" /><stop
     style="stop-opacity:1;stop-color:#e6342a"
     offset="0.0104712"
     id="stop176" /><stop
     style="stop-opacity:1;stop-color:#f9b233"
     offset="0.989529"
     id="stop178" /><stop
     style="stop-opacity:1;stop-color:#f9b233"
     offset="1"
     id="stop180" /></linearGradient><clipPath
   clipPathUnits="userSpaceOnUse"
   id="clipPath192"><path
     d="m 360.689,251.421 c -2.012,-0.027 -3.922,-0.054 -3.965,-0.011 v 0 c -0.095,0.093 -4.877,-13.036 -4.877,-13.036 v 0 l -7.409,13.036 h -7.691 l -10.035,-26.071 h 8.629 l 5.346,13.881 8.064,-13.881 h 6.848 c 0,0 9.611,25.931 9.751,26.071 v 0 c 0.034,0.034 -0.447,0.046 -1.197,0.046 v 0 c -0.906,0 -2.205,-0.017 -3.464,-0.035"
     id="path190"
     inkscape:connector-curvature="0" /></clipPath><linearGradient
   x1="0"
   y1="0"
   x2="1"
   y2="0"
   gradientUnits="userSpaceOnUse"
   gradientTransform="matrix(-1.1e-6,-26.117188,-26.117188,1.1e-6,346.03223,251.45605)"
   spreadMethod="pad"
   id="linearGradient206"><stop
     style="stop-opacity:1;stop-color:#e6342a"
     offset="0"
     id="stop198" /><stop
     style="stop-opacity:1;stop-color:#e6342a"
     offset="0.0104712"
     id="stop200" /><stop
     style="stop-opacity:1;stop-color:#f9b233"
     offset="0.989529"
     id="stop202" /><stop
     style="stop-opacity:1;stop-color:#f9b233"
     offset="1"
     id="stop204" /></linearGradient><clipPath
   clipPathUnits="userSpaceOnUse"
   id="clipPath216"><path
     d="m 372.73,249.739 c -1.891,-1.032 -3.723,-2.258 -5.258,-3.774 v 0 c -3.106,-3.063 -5.965,-7.91 -4.909,-12.448 v 0 c 0.541,-2.327 2.196,-4.237 4.119,-5.588 v 0 c 1.501,-1.053 3.24,-1.746 5.034,-2.102 v 0 c 4.794,-0.949 9.897,-0.488 14.759,-0.488 v 0 l 6.176,16.891 c 0,0 -9.992,-0.182 -9.931,0 v 0 c 0.06,0.181 -5.994,-6.965 -5.994,-6.965 v 0 h 4.48 l -1.211,-2.725 c -11.445,-0.787 -8.237,6.238 -8.237,6.238 v 0 c 3.27,6.783 9.206,6.056 9.206,6.056 v 0 h 8.539 l 5.929,6.616 c -0.543,-0.027 -8.169,0.006 -8.169,0.006 v 0 c -1.35,0.099 -2.595,0.142 -3.742,0.142 v 0 c -7.551,0 -10.791,-1.859 -10.791,-1.859 m 22.702,1.711 c 0.038,0.002 0.042,0.004 0.006,0.006 v 0 z"
     id="path214"
     inkscape:connector-curvature="0" /></clipPath><linearGradient
   x1="0"
   y1="0"
   x2="1"
   y2="0"
   gradientUnits="userSpaceOnUse"
   gradientTransform="matrix(-1.2e-6,-26.370605,-26.370605,1.2e-6,378.90137,251.59766)"
   spreadMethod="pad"
   id="linearGradient230"><stop
     style="stop-opacity:1;stop-color:#e6342a"
     offset="0"
     id="stop222" /><stop
     style="stop-opacity:1;stop-color:#e6342a"
     offset="0.0104712"
     id="stop224" /><stop
     style="stop-opacity:1;stop-color:#f9b233"
     offset="0.989529"
     id="stop226" /><stop
     style="stop-opacity:1;stop-color:#f9b233"
     offset="1"
     id="stop228" /></linearGradient><clipPath
   clipPathUnits="userSpaceOnUse"
   id="clipPath240"><path
     d="m 413.146,249.066 c -8.706,-5.017 -13.081,-13.743 -9.766,-19.49 v 0 c 3.308,-5.75 13.056,-6.348 21.767,-1.331 v 0 c 8.703,5.016 13.075,13.744 9.762,19.493 v 0 c -1.802,3.131 -5.512,4.733 -9.925,4.733 v 0 c -3.69,0.001 -7.871,-1.12 -11.838,-3.405 m 0.202,-14.591 c -1.597,2.203 -0.335,5.842 2.815,8.126 v 0 c 3.154,2.285 7.006,2.35 8.602,0.146 v 0 c 1.597,-2.204 0.336,-5.843 -2.814,-8.127 v 0 c -1.614,-1.169 -3.411,-1.757 -4.995,-1.757 v 0 c -1.511,0 -2.828,0.535 -3.608,1.612"
     id="path238"
     inkscape:connector-curvature="0" /></clipPath><linearGradient
   x1="0"
   y1="0"
   x2="1"
   y2="0"
   gradientUnits="userSpaceOnUse"
   gradientTransform="matrix(-1.2e-6,-27.631348,-27.631348,1.2e-6,419.14453,252.47119)"
   spreadMethod="pad"
   id="linearGradient254"><stop
     style="stop-opacity:1;stop-color:#e6342a"
     offset="0"
     id="stop246" /><stop
     style="stop-opacity:1;stop-color:#e6342a"
     offset="0.0104712"
     id="stop248" /><stop
     style="stop-opacity:1;stop-color:#f9b233"
     offset="0.989529"
     id="stop250" /><stop
     style="stop-opacity:1;stop-color:#f9b233"
     offset="1"
     id="stop252" /></linearGradient><clipPath
   clipPathUnits="userSpaceOnUse"
   id="clipPath264"><path
     d="m 442.66,251.599 -9.989,-25.957 h 8.994 l 3.447,9.871 h 13.844 l 2.687,6.835 h -13.552 l 0.877,2.627 h 13.902 l 2.57,6.624 z"
     id="path262"
     inkscape:connector-curvature="0" /></clipPath><linearGradient
   x1="0"
   y1="0"
   x2="1"
   y2="0"
   gradientUnits="userSpaceOnUse"
   gradientTransform="matrix(-1.1e-6,-25.957031,-25.957031,1.1e-6,449.05566,251.59863)"
   spreadMethod="pad"
   id="linearGradient278"><stop
     style="stop-opacity:1;stop-color:#e6342a"
     offset="0"
     id="stop270" /><stop
     style="stop-opacity:1;stop-color:#e6342a"
     offset="0.0104712"
     id="stop272" /><stop
     style="stop-opacity:1;stop-color:#f9b233"
     offset="0.989529"
     id="stop274" /><stop
     style="stop-opacity:1;stop-color:#f9b233"
     offset="1"
     id="stop276" /></linearGradient><clipPath
   clipPathUnits="userSpaceOnUse"
   id="clipPath288"><path
     d="M 0,396.85 H 595.28 V 0 H 0 Z"
     id="path286"
     inkscape:connector-curvature="0" /></clipPath><clipPath
   clipPathUnits="userSpaceOnUse"
   id="clipPath332"><path
     d="m 191.189,251.41 -2.814,-6.94 7.784,-0.094 -7.316,-19.037 h 8.722 l 7.315,19.131 h 7.034 l 2.721,6.94 z"
     id="path330"
     inkscape:connector-curvature="0" /></clipPath><linearGradient
   x1="0"
   y1="0"
   x2="1"
   y2="0"
   gradientUnits="userSpaceOnUse"
   gradientTransform="matrix(-1.1e-6,-26.071289,-26.071289,1.1e-6,201.50488,251.41016)"
   spreadMethod="pad"
   id="linearGradient346"><stop
     style="stop-opacity:1;stop-color:#e6342a"
     offset="0"
     id="stop338" /><stop
     style="stop-opacity:1;stop-color:#e6342a"
     offset="0.0104712"
     id="stop340" /><stop
     style="stop-opacity:1;stop-color:#f9b233"
     offset="0.989529"
     id="stop342" /><stop
     style="stop-opacity:1;stop-color:#f9b233"
     offset="1"
     id="stop344" /></linearGradient><clipPath
   clipPathUnits="userSpaceOnUse"
   id="clipPath356"><path
     d="m 239.206,251.41 c -0.281,0 -3.844,-9.471 -3.844,-9.471 v 0 h -10.599 l 3.095,9.471 h -8.44 l -9.754,-26.071 h 8.536 l 3.749,9.66 h 10.973 l -3.562,-9.66 h 8.814 c 0,0 9.566,26.071 9.847,26.071 v 0 c 0.188,0 -3.667,0.001 -6.342,0.001 v 0 c -1.337,0 -2.38,0 -2.473,-0.001"
     id="path354"
     inkscape:connector-curvature="0" /></clipPath><linearGradient
   x1="0"
   y1="0"
   x2="1"
   y2="0"
   gradientUnits="userSpaceOnUse"
   gradientTransform="matrix(-1.1e-6,-26.071777,-26.071777,1.1e-6,228.84619,251.41064)"
   spreadMethod="pad"
   id="linearGradient370"><stop
     style="stop-opacity:1;stop-color:#e6342a"
     offset="0"
     id="stop362" /><stop
     style="stop-opacity:1;stop-color:#e6342a"
     offset="0.0104712"
     id="stop364" /><stop
     style="stop-opacity:1;stop-color:#f9b233"
     offset="0.989529"
     id="stop366" /><stop
     style="stop-opacity:1;stop-color:#f9b233"
     offset="1"
     id="stop368" /></linearGradient><clipPath
   clipPathUnits="userSpaceOnUse"
   id="clipPath380"><path
     d="m 252.526,251.41 -9.755,-26.071 h 23.165 l 2.439,6.847 h -14.35 l 1.031,2.907 h 14.35 l 2.625,6.751 h -14.347 l 1.031,2.627 h 14.255 l 3.001,6.939 z"
     id="path378"
     inkscape:connector-curvature="0" /></clipPath><linearGradient
   x1="0"
   y1="0"
   x2="1"
   y2="0"
   gradientUnits="userSpaceOnUse"
   gradientTransform="matrix(-1.1e-6,-26.071289,-26.071289,1.1e-6,259.37109,251.41016)"
   spreadMethod="pad"
   id="linearGradient394"><stop
     style="stop-opacity:1;stop-color:#e6342a"
     offset="0"
     id="stop386" /><stop
     style="stop-opacity:1;stop-color:#e6342a"
     offset="0.0104712"
     id="stop388" /><stop
     style="stop-opacity:1;stop-color:#f9b233"
     offset="0.989529"
     id="stop390" /><stop
     style="stop-opacity:1;stop-color:#f9b233"
     offset="1"
     id="stop392" /></linearGradient><clipPath
   clipPathUnits="userSpaceOnUse"
   id="clipPath404"><path
     d="m 309.733,251.41 -11.821,-10.502 h -1.026 l 3.751,10.502 h -8.628 l -9.847,-26.071 h 8.722 l 4.97,13.035 4.501,-13.035 h 8.816 l -4.596,14.068 13.504,12.003 z"
     id="path402"
     inkscape:connector-curvature="0" /></clipPath><linearGradient
   x1="0"
   y1="0"
   x2="1"
   y2="0"
   gradientUnits="userSpaceOnUse"
   gradientTransform="matrix(-1.1e-6,-26.071289,-26.071289,1.1e-6,300.12109,251.41016)"
   spreadMethod="pad"
   id="linearGradient418"><stop
     style="stop-opacity:1;stop-color:#e6342a"
     offset="0"
     id="stop410" /><stop
     style="stop-opacity:1;stop-color:#e6342a"
     offset="0.0104712"
     id="stop412" /><stop
     style="stop-opacity:1;stop-color:#f9b233"
     offset="0.989529"
     id="stop414" /><stop
     style="stop-opacity:1;stop-color:#f9b233"
     offset="1"
     id="stop416" /></linearGradient><clipPath
   clipPathUnits="userSpaceOnUse"
   id="clipPath428"><path
     d="m 323.051,251.41 -9.845,-26.071 h 9.002 l 9.566,26.071 z"
     id="path426"
     inkscape:connector-curvature="0" /></clipPath><linearGradient
   x1="0"
   y1="0"
   x2="1"
   y2="0"
   gradientUnits="userSpaceOnUse"
   gradientTransform="matrix(-1.1e-6,-26.071289,-26.071289,1.1e-6,322.49023,251.41016)"
   spreadMethod="pad"
   id="linearGradient442"><stop
     style="stop-opacity:1;stop-color:#e6342a"
     offset="0"
     id="stop434" /><stop
     style="stop-opacity:1;stop-color:#e6342a"
     offset="0.0104712"
     id="stop436" /><stop
     style="stop-opacity:1;stop-color:#f9b233"
     offset="0.989529"
     id="stop438" /><stop
     style="stop-opacity:1;stop-color:#f9b233"
     offset="1"
     id="stop440" /></linearGradient><clipPath
   clipPathUnits="userSpaceOnUse"
   id="clipPath452"><path
     d="m 360.689,251.421 c -2.012,-0.027 -3.922,-0.054 -3.965,-0.011 v 0 c -0.095,0.093 -4.877,-13.036 -4.877,-13.036 v 0 l -7.409,13.036 h -7.691 l -10.035,-26.071 h 8.629 l 5.346,13.881 8.064,-13.881 h 6.848 c 0,0 9.611,25.931 9.751,26.071 v 0 c 0.034,0.034 -0.447,0.046 -1.197,0.046 v 0 c -0.906,0 -2.205,-0.017 -3.464,-0.035"
     id="path450"
     inkscape:connector-curvature="0" /></clipPath><linearGradient
   x1="0"
   y1="0"
   x2="1"
   y2="0"
   gradientUnits="userSpaceOnUse"
   gradientTransform="matrix(-1.1e-6,-26.117188,-26.117188,1.1e-6,346.03223,251.45605)"
   spreadMethod="pad"
   id="linearGradient466"><stop
     style="stop-opacity:1;stop-color:#e6342a"
     offset="0"
     id="stop458" /><stop
     style="stop-opacity:1;stop-color:#e6342a"
     offset="0.0104712"
     id="stop460" /><stop
     style="stop-opacity:1;stop-color:#f9b233"
     offset="0.989529"
     id="stop462" /><stop
     style="stop-opacity:1;stop-color:#f9b233"
     offset="1"
     id="stop464" /></linearGradient><clipPath
   clipPathUnits="userSpaceOnUse"
   id="clipPath476"><path
     d="m 372.73,249.739 c -1.891,-1.032 -3.723,-2.258 -5.258,-3.774 v 0 c -3.106,-3.063 -5.965,-7.91 -4.909,-12.448 v 0 c 0.541,-2.327 2.196,-4.237 4.119,-5.588 v 0 c 1.501,-1.053 3.24,-1.746 5.034,-2.102 v 0 c 4.794,-0.949 9.897,-0.488 14.759,-0.488 v 0 l 6.176,16.891 c 0,0 -9.992,-0.182 -9.931,0 v 0 c 0.06,0.181 -5.994,-6.965 -5.994,-6.965 v 0 h 4.48 l -1.211,-2.725 c -11.445,-0.787 -8.237,6.238 -8.237,6.238 v 0 c 3.27,6.783 9.206,6.056 9.206,6.056 v 0 h 8.539 l 5.929,6.616 c -0.543,-0.027 -8.169,0.006 -8.169,0.006 v 0 c -1.35,0.099 -2.595,0.142 -3.742,0.142 v 0 c -7.551,0 -10.791,-1.859 -10.791,-1.859 m 22.702,1.711 c 0.038,0.002 0.042,0.004 0.006,0.006 v 0 z"
     id="path474"
     inkscape:connector-curvature="0" /></clipPath><linearGradient
   x1="0"
   y1="0"
   x2="1"
   y2="0"
   gradientUnits="userSpaceOnUse"
   gradientTransform="matrix(-1.2e-6,-26.370605,-26.370605,1.2e-6,378.90137,251.59766)"
   spreadMethod="pad"
   id="linearGradient490"><stop
     style="stop-opacity:1;stop-color:#e6342a"
     offset="0"
     id="stop482" /><stop
     style="stop-opacity:1;stop-color:#e6342a"
     offset="0.0104712"
     id="stop484" /><stop
     style="stop-opacity:1;stop-color:#f9b233"
     offset="0.989529"
     id="stop486" /><stop
     style="stop-opacity:1;stop-color:#f9b233"
     offset="1"
     id="stop488" /></linearGradient><clipPath
   clipPathUnits="userSpaceOnUse"
   id="clipPath500"><path
     d="m 413.146,249.066 c -8.706,-5.017 -13.081,-13.743 -9.766,-19.49 v 0 c 3.308,-5.75 13.056,-6.348 21.767,-1.331 v 0 c 8.703,5.016 13.075,13.744 9.762,19.493 v 0 c -1.802,3.131 -5.512,4.733 -9.925,4.733 v 0 c -3.69,0.001 -7.871,-1.12 -11.838,-3.405 m 0.202,-14.591 c -1.597,2.203 -0.335,5.842 2.815,8.126 v 0 c 3.154,2.285 7.006,2.35 8.602,0.146 v 0 c 1.597,-2.204 0.336,-5.843 -2.814,-8.127 v 0 c -1.614,-1.169 -3.411,-1.757 -4.995,-1.757 v 0 c -1.511,0 -2.828,0.535 -3.608,1.612"
     id="path498"
     inkscape:connector-curvature="0" /></clipPath><linearGradient
   x1="0"
   y1="0"
   x2="1"
   y2="0"
   gradientUnits="userSpaceOnUse"
   gradientTransform="matrix(-1.2e-6,-27.631348,-27.631348,1.2e-6,419.14453,252.47119)"
   spreadMethod="pad"
   id="linearGradient514"><stop
     style="stop-opacity:1;stop-color:#e6342a"
     offset="0"
     id="stop506" /><stop
     style="stop-opacity:1;stop-color:#e6342a"
     offset="0.0104712"
     id="stop508" /><stop
     style="stop-opacity:1;stop-color:#f9b233"
     offset="0.989529"
     id="stop510" /><stop
     style="stop-opacity:1;stop-color:#f9b233"
     offset="1"
     id="stop512" /></linearGradient><clipPath
   clipPathUnits="userSpaceOnUse"
   id="clipPath524"><path
     d="m 442.66,251.599 -9.989,-25.957 h 8.994 l 3.447,9.871 h 13.844 l 2.687,6.835 h -13.552 l 0.877,2.627 h 13.902 l 2.57,6.624 z"
     id="path522"
     inkscape:connector-curvature="0" /></clipPath><linearGradient
   x1="0"
   y1="0"
   x2="1"
   y2="0"
   gradientUnits="userSpaceOnUse"
   gradientTransform="matrix(-1.1e-6,-25.957031,-25.957031,1.1e-6,449.05566,251.59863)"
   spreadMethod="pad"
   id="linearGradient538"><stop
     style="stop-opacity:1;stop-color:#e6342a"
     offset="0"
     id="stop530" /><stop
     style="stop-opacity:1;stop-color:#e6342a"
     offset="0.0104712"
     id="stop532" /><stop
     style="stop-opacity:1;stop-color:#f9b233"
     offset="0.989529"
     id="stop534" /><stop
     style="stop-opacity:1;stop-color:#f9b233"
     offset="1"
     id="stop536" /></linearGradient><clipPath
   clipPathUnits="userSpaceOnUse"
   id="clipPath548"><path
     d="M 0,396.85 H 595.28 V 0 H 0 Z"
     id="path546"
     inkscape:connector-curvature="0" /></clipPath><clipPath
   clipPathUnits="userSpaceOnUse"
   id="clipPath588"><path
     d="m 148.96,216.082 -22.375,-59.125 h 16.25 l 9.125,24.25 h 21 l 5.25,14.375 h -20.625 l 2.625,6.625 h 20.375 l 4.875,13.875 z"
     id="path586"
     inkscape:connector-curvature="0" /></clipPath><linearGradient
   x1="0"
   y1="0"
   x2="1"
   y2="0"
   gradientUnits="userSpaceOnUse"
   gradientTransform="matrix(-2.6e-6,-59.125488,-59.125488,2.6e-6,156.02246,216.08203)"
   spreadMethod="pad"
   id="linearGradient602"><stop
     style="stop-opacity:1;stop-color:#ea5b0b"
     offset="0"
     id="stop594" /><stop
     style="stop-opacity:1;stop-color:#fcea12"
     offset="0.48564172"
     id="stop596" /><stop
     style="stop-opacity:1;stop-color:#fcea12"
     offset="0.989529"
     id="stop598" /><stop
     style="stop-opacity:1;stop-color:#fcea12"
     offset="1"
     id="stop600" /></linearGradient><clipPath
   clipPathUnits="userSpaceOnUse"
   id="clipPath612"><path
     d="m 194.085,216.082 -23.25,-59.125 h 16.5 l 22.875,59.125 z"
     id="path610"
     inkscape:connector-curvature="0" /></clipPath><linearGradient
   x1="0"
   y1="0"
   x2="1"
   y2="0"
   gradientUnits="userSpaceOnUse"
   gradientTransform="matrix(-2.6e-6,-59.125488,-59.125488,2.6e-6,190.52246,216.08203)"
   spreadMethod="pad"
   id="linearGradient626"><stop
     style="stop-opacity:1;stop-color:#ea5b0b"
     offset="0"
     id="stop618" /><stop
     style="stop-opacity:1;stop-color:#fcea12"
     offset="0.48564172"
     id="stop620" /><stop
     style="stop-opacity:1;stop-color:#fcea12"
     offset="0.989529"
     id="stop622" /><stop
     style="stop-opacity:1;stop-color:#fcea12"
     offset="1"
     id="stop624" /></linearGradient><clipPath
   clipPathUnits="userSpaceOnUse"
   id="clipPath636"><path
     d="m 241.085,216.082 c -4.824,-0.195 -10.177,-1.072 -14.635,-2.97 v 0 c -6.127,-2.608 -12.083,-7.142 -15.815,-12.678 v 0 c -3.477,-5.157 -6.548,-10.403 -7.111,-16.805 v 0 c -0.247,-2.816 -0.388,-5.62 0.003,-8.43 v 0 c 0.651,-4.683 2.12,-9.931 5.647,-13.273 v 0 c 2.449,-2.317 6.604,-4.969 10.136,-4.969 v 0 h 21.326 l 13.074,34.375 -19,0.125 -11.75,-14.5 h 8.75 l -2.5,-5.75 c -6.924,-0.537 -10.308,5.512 -9.954,11.716 v 0 c 0.169,2.97 1.818,6.758 3.329,9.282 v 0 c 2.778,4.644 7.625,7.383 12.726,8.785 v 0 c 2.477,0.681 5.029,1.039 7.594,1.151 v 0 c 1.278,0.054 2.557,0.047 3.835,0.007 v 0 c 0.497,-0.015 3.6,-0.496 3.845,-0.191 v 0 c 0.007,0.01 11.375,14.125 11.375,14.125 v 0 z"
     id="path634"
     inkscape:connector-curvature="0" /></clipPath><linearGradient
   x1="0"
   y1="0"
   x2="1"
   y2="0"
   gradientUnits="userSpaceOnUse"
   gradientTransform="matrix(-2.6e-6,-59.125488,-59.125488,2.6e-6,232.62158,216.08203)"
   spreadMethod="pad"
   id="linearGradient650"><stop
     style="stop-opacity:1;stop-color:#ea5b0b"
     offset="0"
     id="stop642" /><stop
     style="stop-opacity:1;stop-color:#fcea12"
     offset="0.48564172"
     id="stop644" /><stop
     style="stop-opacity:1;stop-color:#fcea12"
     offset="0.989529"
     id="stop646" /><stop
     style="stop-opacity:1;stop-color:#fcea12"
     offset="1"
     id="stop648" /></linearGradient><clipPath
   clipPathUnits="userSpaceOnUse"
   id="clipPath660"><path
     d="m 301.084,216.082 -8.499,-20.625 h -14.75 l 8.125,20.625 h -16.25 l -23.25,-59.125 h 16.75 l 9.5,24.5 14.25,-0.125 -8.875,-24.375 h 16.5 l 22.499,59.125 z"
     id="path658"
     inkscape:connector-curvature="0" /></clipPath><linearGradient
   x1="0"
   y1="0"
   x2="1"
   y2="0"
   gradientUnits="userSpaceOnUse"
   gradientTransform="matrix(-2.6e-6,-59.125488,-59.125488,2.6e-6,281.77197,216.08203)"
   spreadMethod="pad"
   id="linearGradient674"><stop
     style="stop-opacity:1;stop-color:#ea5b0b"
     offset="0"
     id="stop666" /><stop
     style="stop-opacity:1;stop-color:#fcea12"
     offset="0.48564172"
     id="stop668" /><stop
     style="stop-opacity:1;stop-color:#fcea12"
     offset="0.989529"
     id="stop670" /><stop
     style="stop-opacity:1;stop-color:#fcea12"
     offset="1"
     id="stop672" /></linearGradient><clipPath
   clipPathUnits="userSpaceOnUse"
   id="clipPath684"><path
     d="m 322.959,216.082 -5.25,-13.625 h 12.375 l -17.125,-45.5 h 16.375 l 17.5,45.5 h 11.5 l 5.375,13.625 z"
     id="path682"
     inkscape:connector-curvature="0" /></clipPath><linearGradient
   x1="0"
   y1="0"
   x2="1"
   y2="0"
   gradientUnits="userSpaceOnUse"
   gradientTransform="matrix(-2.6e-6,-59.125488,-59.125488,2.6e-6,338.33398,216.08203)"
   spreadMethod="pad"
   id="linearGradient698"><stop
     style="stop-opacity:1;stop-color:#ea5b0b"
     offset="0"
     id="stop690" /><stop
     style="stop-opacity:1;stop-color:#fcea12"
     offset="0.48564172"
     id="stop692" /><stop
     style="stop-opacity:1;stop-color:#fcea12"
     offset="0.989529"
     id="stop694" /><stop
     style="stop-opacity:1;stop-color:#fcea12"
     offset="1"
     id="stop696" /></linearGradient><clipPath
   clipPathUnits="userSpaceOnUse"
   id="clipPath708"><path
     d="m 370.604,216.082 -22.299,-59.125 h 40.726 l 4.928,14.469 h -24.293 l 4.108,9.975 h 22.181 l 5.047,14.084 h -21.83 l 2.699,7.16 h 22.533 l 5.047,13.437 z"
     id="path706"
     inkscape:connector-curvature="0" /></clipPath><linearGradient
   x1="0"
   y1="0"
   x2="1"
   y2="0"
   gradientUnits="userSpaceOnUse"
   gradientTransform="matrix(-2.6e-6,-59.125488,-59.125488,2.6e-6,378.87793,216.08203)"
   spreadMethod="pad"
   id="linearGradient722"><stop
     style="stop-opacity:1;stop-color:#ea5b0b"
     offset="0"
     id="stop714" /><stop
     style="stop-opacity:1;stop-color:#fcea12"
     offset="0.48564172"
     id="stop716" /><stop
     style="stop-opacity:1;stop-color:#fcea12"
     offset="0.989529"
     id="stop718" /><stop
     style="stop-opacity:1;stop-color:#fcea12"
     offset="1"
     id="stop720" /></linearGradient><clipPath
   clipPathUnits="userSpaceOnUse"
   id="clipPath732"><path
     d="m 417.084,216.082 -22.25,-59.125 h 16.25 l 9.375,24.125 2.5,-24.125 h 16.125 l -1.875,25.875 c 12.375,9.875 13.375,21 13.375,21 v 0 c 1.25,11.5 -5.875,12.25 -5.875,12.25 v 0 z m 7.084,-24.875 c 0,0.001 5.916,15.166 5.916,15.166 v 0 h 3.918 c 0.594,0 1.256,-1.117 1.498,-1.518 v 0 c 0.699,-1.16 0.871,-2.404 0.611,-3.725 v 0 c -0.588,-2.97 -2.081,-5.862 -4.378,-7.862 v 0 c -0.923,-0.804 -1.975,-1.438 -3.155,-1.78 v 0 c -0.416,-0.122 -3.917,-0.284 -4.363,-0.284 v 0 c -0.031,0 -0.047,0.001 -0.047,0.003"
     id="path730"
     inkscape:connector-curvature="0" /></clipPath><linearGradient
   x1="0"
   y1="0"
   x2="1"
   y2="0"
   gradientUnits="userSpaceOnUse"
   gradientTransform="matrix(-2.6e-6,-59.125488,-59.125488,2.6e-6,422.7832,216.08203)"
   spreadMethod="pad"
   id="linearGradient746"><stop
     style="stop-opacity:1;stop-color:#ea5b0b"
     offset="0"
     id="stop738" /><stop
     style="stop-opacity:1;stop-color:#fcea12"
     offset="0.48564172"
     id="stop740" /><stop
     style="stop-opacity:1;stop-color:#fcea12"
     offset="0.989529"
     id="stop742" /><stop
     style="stop-opacity:1;stop-color:#fcea12"
     offset="1"
     id="stop744" /></linearGradient><clipPath
   clipPathUnits="userSpaceOnUse"
   id="clipPath756"><path
     d="m 474.496,215.932 c -1.789,-0.625 -3.612,-1.411 -5.261,-2.348 v 0 c -3.093,-1.756 -6.069,-3.848 -8.342,-6.616 v 0 c -0.995,-1.209 -1.926,-2.552 -2.678,-3.928 v 0 c -1.946,-3.556 -3.424,-7.574 -2.031,-11.582 v 0 c 1.392,-4.004 4.962,-7.476 8.525,-9.626 v 0 c 0,0 7.668,-4.334 6.625,-7.125 v 0 c 0,0 -4.748,-9.792 -23.5,1.125 v 0 c 0,0 -5.998,-14.998 -6,-15 v 0 c -0.24,-0.602 7.772,-3.207 8.174,-3.31 v 0 c 6.6,-1.7 13.812,-1.44 20.23,0.884 v 0 c 4.994,1.806 9.631,4.746 13.141,8.751 v 0 c 1,1.141 1.888,2.381 2.668,3.682 v 0 c 2.523,4.205 4.381,9.526 1.883,14.184 v 0 c -2.157,4.02 -6.723,6.056 -10.379,8.452 v 0 c -2.227,1.46 -7.9,3.987 -5.443,7.533 v 0 c 0.562,0.812 1.617,1.536 2.529,1.896 v 0 c 1.023,0.404 2.246,0.674 3.351,0.687 v 0 c 1.848,0.02 3.826,-0.386 5.596,-0.884 v 0 c 0,0 5.687,-2.562 8.75,-7.5 v 0 c 0,0 5.998,16.744 6,16.75 v 0 c 0.25,0.702 -3.582,2.373 -4.072,2.607 v 0 c -3.717,1.774 -7.695,2.736 -11.694,2.736 v 0 c -2.706,10e-4 -5.42,-0.44 -8.072,-1.368"
     id="path754"
     inkscape:connector-curvature="0" /></clipPath><linearGradient
   x1="0"
   y1="0"
   x2="1"
   y2="0"
   gradientUnits="userSpaceOnUse"
   gradientTransform="matrix(-2.7e-6,-60.876953,-60.876953,2.7e-6,470.08789,217.30029)"
   spreadMethod="pad"
   id="linearGradient770"><stop
     style="stop-opacity:1;stop-color:#ea5b0b"
     offset="0"
     id="stop762" /><stop
     style="stop-opacity:1;stop-color:#fcea12"
     offset="0.48564172"
     id="stop764" /><stop
     style="stop-opacity:1;stop-color:#fcea12"
     offset="0.989529"
     id="stop766" /><stop
     style="stop-opacity:1;stop-color:#fcea12"
     offset="1"
     id="stop768" /></linearGradient>
	
	
	
	
	
</defs><sodipodi:namedview
     pagecolor="#ffffff"
     bordercolor="#666666"
     borderopacity="1"
     objecttolerance="10"
     gridtolerance="10"
     guidetolerance="10"
     inkscape:pageopacity="0"
     inkscape:pageshadow="2"
     inkscape:window-width="1366"
     inkscape:window-height="740"
     id="namedview4"
     showgrid="false"
     inkscape:pagecheckerboard="true"
     inkscape:zoom="1.5091348"
     inkscape:cx="231.07269"
     inkscape:cy="26.991003"
     inkscape:window-x="0"
     inkscape:window-y="0"
     inkscape:window-maximized="1"
     inkscape:current-layer="g10" /><g
     id="g10"
     inkscape:groupmode="layer"
     inkscape:label="the-king-of-fighters-seeklogo.com"
     transform="matrix(1.3333333,0,0,-1.3333333,-29.909863,187.80241)"><rect
       style="fill:#ffffff;stroke-width:0.57496929"
       x="22.432398"
       y="-61.736034"
       class="st0"
       width="321.00534"
       height="35.073128"
       id="rect2986"
       transform="scale(1,-1)" /><polygon
       style="fill:#999999"
       class="st1"
       points="57.5,390.6 57.5,421.7 44.8,421.7 44.8,390.6 37.3,390.6 37.3,382.8 65,382.8 65,390.6 "
       id="polygon2988"
       transform="matrix(0.57496929,0,0,-0.57496929,7.0807175,275.73961)" /><polygon
       style="fill:#999999"
       class="st1"
       points="101.3,396.7 101.3,382.8 114,382.8 114,421.7 101.3,421.7 101.3,405.4 97.5,405.4 97.5,421.7 84.9,421.7 84.9,382.8 97.5,382.8 97.5,396.7 "
       id="polygon2990"
       transform="matrix(0.57496929,0,0,-0.57496929,7.0807175,275.73961)" /><polygon
       style="fill:#999999"
       class="st1"
       points="158.2,421.7 136.2,421.7 136.2,382.8 157.3,382.8 157.3,390.6 148.9,390.6 148.9,398 156.8,398 156.8,405.4 148.9,405.4 148.9,413.9 158.2,413.9 "
       id="polygon2992"
       transform="matrix(0.57496929,0,0,-0.57496929,7.0807175,275.73961)" /><polygon
       style="fill:#999999"
       class="st1"
       points="221.3,396.7 221.3,382.8 233.9,382.8 233.9,421.7 221.3,421.7 221.3,405.4 217.5,405.4 217.5,421.7 204.8,421.7 204.8,382.8 217.5,382.8 217.5,396.7 "
       id="polygon2994"
       transform="matrix(0.57496929,0,0,-0.57496929,7.0807175,275.73961)" /><polygon
       style="fill:#999999"
       class="st1"
       points="278.1,421.7 256.1,421.7 256.1,382.8 277.3,382.8 277.3,390.6 268.8,390.6 268.8,398 276.7,398 276.7,405.4 268.8,405.4 268.8,413.9 278.1,413.9 "
       id="polygon2996"
       transform="matrix(0.57496929,0,0,-0.57496929,7.0807175,275.73961)" /><g
       id="g3002"
       transform="matrix(0.57496929,0,0,-0.57496929,7.0807175,275.73961)"
       style="fill:#999999">
	<path
   style="fill:#999999"
   inkscape:connector-curvature="0"
   class="st1"
   d="m 315.2,421.7 c 3,0 5.3,-0.1 6.8,-0.4 1.5,-0.3 2.8,-0.7 3.8,-1.4 1,-0.7 1.7,-1.6 2.2,-2.8 0.4,-1.2 0.6,-3.5 0.6,-7 v -13.6 c 0,-3.7 -0.1,-6.2 -0.4,-7.4 -0.3,-1.3 -1,-2.4 -2.1,-3.4 -1.1,-1 -2.8,-1.8 -4.9,-2.2 -2.2,-0.4 -6.3,-0.7 -12.4,-0.7 h -9.5 v 39 h 15.9 z m -0.5,-31.9 c 0.5,0.2 0.8,0.6 1,1.1 0.1,0.5 0.2,1.6 0.2,3.4 v 15.1 c 0,2.6 -0.2,4.2 -0.6,4.8 -0.4,0.6 -1.6,0.9 -3.4,0.9 v -25.6 c 1.3,-0.1 2.3,0.1 2.8,0.3"
   id="path2998" />
	<path
   style="fill:#999999"
   inkscape:connector-curvature="0"
   class="st1"
   d="m 378.7,395.4 v 1.7 H 366 v -3.5 c 0,-2.2 -0.1,-3.6 -0.4,-4.2 -0.2,-0.6 -0.8,-0.9 -1.7,-0.9 -0.8,0 -1.3,0.2 -1.6,0.7 -0.3,0.5 -0.4,1.7 -0.4,3.7 v 18.7 c 0,1.7 0.1,2.9 0.4,3.5 0.3,0.5 0.8,0.8 1.7,0.8 0.9,0 1.6,-0.3 1.9,-1 0.3,-0.6 0.5,-1.8 0.5,-3.7 v -4.6 h -2.6 v -5.9 h 14.8 v 20.9 h -8 l -1.2,-2.8 c -0.9,1.2 -2,2.1 -3.3,2.7 -1.3,0.6 -2.9,0.9 -4.6,0.9 -2.1,0 -4.1,-0.4 -6,-1.2 -1.9,-0.8 -3.3,-1.8 -4.2,-3.1 -1,-1.2 -1.6,-2.5 -1.8,-3.8 -0.2,-1.3 -0.4,-3.4 -0.4,-6 v -11.6 c 0,-3.7 0.2,-6.4 0.7,-8.1 0.5,-1.7 1.9,-3.2 4.3,-4.6 2.4,-1.4 5.4,-2.1 9.2,-2.1 3.7,0 6.8,0.6 9.2,1.8 2.4,1.2 4.1,2.7 4.8,4.3 1.1,1.8 1.4,4.2 1.4,7.4"
   id="path3000" />
</g><polygon
       style="fill:#999999"
       class="st1"
       points="422.7,421.7 400.8,421.7 400.8,382.8 421.9,382.8 421.9,390.6 413.4,390.6 413.4,398 421.4,398 421.4,405.4 413.4,405.4 413.4,413.9 422.7,413.9 "
       id="polygon3004"
       transform="matrix(0.57496929,0,0,-0.57496929,7.0807175,275.73961)" /><polygon
       style="fill:#999999"
       class="st1"
       points="460.3,396.7 460.3,382.8 473,382.8 473,421.7 460.3,421.7 460.3,405.4 456.5,405.4 456.5,421.7 443.8,421.7 443.8,382.8 456.5,382.8 456.5,396.7 "
       id="polygon3006"
       transform="matrix(0.57496929,0,0,-0.57496929,7.0807175,275.73961)" /><path
       id="path3008"
       d="m 307.78966,51.214102 c -0.115,0.919951 -0.57497,1.782405 -1.26494,2.587362 -0.74746,0.804957 -1.66741,1.379926 -2.87484,1.782405 -1.20744,0.402478 -2.52987,0.574969 -4.02479,0.574969 -1.60991,0 -2.98984,-0.229988 -4.13978,-0.632466 -1.20743,-0.402479 -2.12738,-1.034945 -2.81735,-1.782405 -0.68996,-0.74746 -1.09244,-1.609914 -1.26493,-2.587362 -0.11499,-0.919951 -0.17249,-2.529865 -0.17249,-4.772245 v -3.852294 c 0,-2.299877 0.0575,-3.909791 0.22999,-4.829742 0.11499,-0.919951 0.57497,-1.782405 1.26493,-2.529865 0.74746,-0.804957 1.66741,-1.379926 2.87485,-1.782405 1.20743,-0.402478 2.52986,-0.574969 4.02478,-0.574969 1.55242,0 2.98984,0.229988 4.13978,0.632466 1.20744,0.402479 2.12739,1.034945 2.81735,1.782405 0.68996,0.74746 1.09244,1.609914 1.26493,2.587362 0.115,0.919951 0.17249,2.529865 0.17249,4.772245 v 3.852294 c 0,2.24238 -0.0575,3.852294 -0.22998,4.772245 m -7.24462,-14.086747 c -0.11499,-0.344982 -0.45997,-0.517473 -0.97744,-0.517473 -0.45998,0 -0.80496,0.172491 -0.91996,0.459976 -0.11499,0.287484 -0.17249,1.092441 -0.17249,2.414871 V 49.94917 c 0,1.149938 0.115,1.839902 0.28749,2.069889 0.22999,0.229988 0.51747,0.344982 0.86245,0.344982 0.45998,0 0.74746,-0.172491 0.91995,-0.459976 0.17249,-0.287484 0.22999,-0.977447 0.22999,-2.012392 v -10.29195 c -0.0575,-1.32243 -0.11499,-2.127387 -0.22999,-2.472368"
       class="st1"
       inkscape:connector-curvature="0"
       style="fill:#999999;stroke-width:0.57496929" /><path
       id="path3010"
       d="m 336.8831,48.396753 v -0.977448 h -7.30211 v 2.012392 c 0,1.264933 -0.0575,2.06989 -0.22999,2.414871 -0.11499,0.344982 -0.45997,0.517473 -0.97744,0.517473 -0.45998,0 -0.74746,-0.114994 -0.91995,-0.402479 -0.17249,-0.287484 -0.22999,-0.977447 -0.22999,-2.127386 V 39.08225 c 0,-0.977448 0.0575,-1.667411 0.22999,-2.012392 0.17249,-0.287485 0.45997,-0.459976 0.97744,-0.459976 0.51748,0 0.91995,0.172491 1.09245,0.57497 0.17249,0.344981 0.28748,1.034944 0.28748,2.127386 v 2.644859 h -1.49492 v 3.392318 h 8.50955 V 33.332557 h -4.59976 l -0.68996,1.609914 c -0.51747,-0.689963 -1.14994,-1.207435 -1.8974,-1.552417 -0.74746,-0.344981 -1.66741,-0.517472 -2.64486,-0.517472 -1.20744,0 -2.35737,0.229988 -3.44982,0.689963 -1.03494,0.459975 -1.89739,1.034945 -2.41487,1.782405 -0.57497,0.689963 -0.91995,1.437423 -1.03494,2.184883 -0.11499,0.74746 -0.22999,1.954896 -0.22999,3.449816 v 6.669644 c 0,2.127386 0.17249,3.679803 0.45998,4.657251 0.28748,0.977448 1.09244,1.839902 2.47236,2.644859 1.37993,0.804957 3.16234,1.207435 5.28972,1.207435 2.12739,0 3.90979,-0.344981 5.28972,-1.034945 1.37993,-0.689963 2.29988,-1.552417 2.75985,-2.472368 0.51747,-1.034944 0.74746,-2.414871 0.74746,-4.254772"
       class="st1"
       inkscape:connector-curvature="0"
       style="fill:#999999;stroke-width:0.57496929" /><path
       id="path3014"
       d="m 306.75471,139.87437 c 7.99207,0.68996 16.67411,0.0575 19.26147,-0.22999 2.06989,-0.17249 4.65725,-0.68996 4.65725,-0.68996 l -6.55465,-23.22876 c 0,0 -0.68996,0.97744 -1.03494,1.37992 -5.34722,6.26717 -13.0518,3.62231 -18.8015,-1.49492 -6.72714,-6.03717 -9.71698,-15.35168 -1.95489,-19.893935 4.42726,-2.587362 9.71698,-2.184883 14.43173,1.32243 1.7824,1.379926 3.6223,3.047335 5.11722,4.829745 0.22999,0.28748 0.68997,0.91995 0.68997,0.91995 l 7.93457,-24.781179 c 0,0 -0.86245,-0.114994 -1.32243,-0.172491 -8.56704,-1.264932 -18.629,-3.909791 -28.11599,-1.897398 -36.16557,7.819582 -31.9683,60.659258 5.69219,63.936588"
       class="st3"
       inkscape:connector-curvature="0"
       style="fill:#ffffff;stroke-width:0.57496929" /><path
       id="path3016"
       d="m 58.71296,140.16185 c 6.612147,0.45998 13.339287,-0.40248 18.571508,-1.20743 4.48476,-0.68997 8.567042,-1.78241 8.567042,-1.78241 L 81.711731,122.4528 c 0,0 -4.427263,0.57497 -7.819582,0.86245 -4.887239,0.40248 -10.694429,0.57497 -13.85676,-0.22999 -1.092442,-0.28748 -1.839902,-0.68996 -2.24238,-1.20743 -1.264933,-1.55242 -0.632466,-2.98984 -0.287485,-3.7373 0.402479,-0.74746 0.919951,-0.97745 1.954896,-1.37993 2.702355,-1.20743 16.156637,-1.49492 20.986379,-4.88724 3.162331,-2.18488 5.404711,-5.6347 6.209668,-10.29195 C 89.243829,86.344726 78.779388,76.627745 65.670088,75.5928 58.310481,75.075328 52.790776,75.190322 47.616052,75.707794 41.981353,76.282763 35.196716,77.260211 35.196716,77.260211 l 4.312269,15.811656 c 0,0 4.484761,-0.57497 7.647092,-0.747461 4.599754,-0.229987 9.831975,-0.229987 12.994306,0.57497 1.264932,0.344981 2.012392,0.919951 2.529865,1.437423 0.804957,0.862454 0.977448,2.644859 0.172491,3.794797 -0.74746,1.034945 -1.494921,1.379927 -3.219828,1.552417 -1.667411,0.172491 -3.507313,0.229988 -5.289718,0.459977 -11.269398,1.43742 -19.548956,2.70235 -20.698894,15.86915 -0.57497,6.49715 0.804957,11.49939 3.564809,15.29418 4.369767,6.09468 11.786871,8.16457 21.503852,8.85453"
       class="st3"
       inkscape:connector-curvature="0"
       style="fill:#ffffff;stroke-width:0.57496929" /><polygon
       style="fill:#ffffff"
       class="st3"
       points="413.8,348 413.8,234.7 455.4,234.7 455.3,348 "
       id="polygon3020"
       transform="matrix(0.57496929,0,0,-0.57496929,7.0807175,275.73961)" /><g
       id="g3026"
       transform="matrix(0.57496929,0,0,-0.57496929,7.0807175,275.73961)"
       style="fill:#ffffff">
	<path
   style="fill:#ffffff"
   inkscape:connector-curvature="0"
   class="st3"
   d="m 230.9,290.3 c -1.8,10 -14.7,22.7 -24.9,24.4 -8.5,1.4 -14.2,-0.8 -18.4,-5 -14.8,-14.7 8.9,-38.7 22.9,-40.8 12.7,-1.9 22.6,8.6 20.4,21.4 m 31.9,-19.9 c -8.1,-22.2 -28.4,-37.7 -61.2,-35.3 -20.1,1.5 -37.3,13 -45.3,26.9 -6.5,11.3 -10.7,28.9 -6.5,45.3 14.1,55.2 101,54.4 114.4,-2 2.6,-10.9 2.1,-25.1 -1.4,-34.9"
   id="path3022" />
	<path
   style="fill:#ffffff"
   inkscape:connector-curvature="0"
   class="st3"
   d="m 355.2,234.7 v 59.7 c -1.9,-3.8 -30.4,-59.7 -30.4,-59.7 l -47.1,-0.1 v 0.5 112.9 h 35.9 v -57.6 c 1.9,3.8 29.4,57.7 29.4,57.7 L 391.1,348 V 234.7 Z"
   id="path3024" />
</g></g><style
     id="style1420">.st0{fill:#d82b46}.st1{fill:#231f20}</style><style
     id="style2984"
     type="text/css">
	.st0{fill:#D80B24;}
	.st1{fill:#FFFFFF;}
	.st2{fill:#0069AC;}
	.st3{fill:#F39700;}
</style></svg>