<?xml version="1.0" encoding="UTF-8" standalone="no"?>
<svg
   xmlns:dc="http://purl.org/dc/elements/1.1/"
   xmlns:cc="http://creativecommons.org/ns#"
   xmlns:rdf="http://www.w3.org/1999/02/22-rdf-syntax-ns#"
   xmlns:svg="http://www.w3.org/2000/svg"
   xmlns="http://www.w3.org/2000/svg"
   xmlns:sodipodi="http://sodipodi.sourceforge.net/DTD/sodipodi-0.dtd"
   xmlns:inkscape="http://www.inkscape.org/namespaces/inkscape"
   width="498.08401"
   height="166.54832"
   viewBox="0 0 498.08401 166.54832"
   version="1.1"
   id="svg72"
   sodipodi:docname="sufami.svg"
   style="fill:none"
   inkscape:version="1.0.1 (1.0.1+r73)">
  <metadata
     id="metadata78">
    <rdf:RDF>
      <cc:Work
         rdf:about="">
        <dc:format>image/svg+xml</dc:format>
        <dc:type
           rdf:resource="http://purl.org/dc/dcmitype/StillImage" />
        <dc:title />
      </cc:Work>
    </rdf:RDF>
  </metadata>
  <defs
     id="defs76" />
  <sodipodi:namedview
     pagecolor="#ffffff"
     bordercolor="#666666"
     borderopacity="1"
     objecttolerance="10"
     gridtolerance="10"
     guidetolerance="10"
     inkscape:pageopacity="0"
     inkscape:pageshadow="2"
     inkscape:window-width="1366"
     inkscape:window-height="740"
     id="namedview74"
     showgrid="false"
     inkscape:pagecheckerboard="true"
     inkscape:zoom="0.83688862"
     inkscape:cx="332.2793"
     inkscape:cy="114.03435"
     inkscape:window-x="0"
     inkscape:window-y="0"
     inkscape:window-maximized="1"
     inkscape:current-layer="svg72"
     inkscape:document-rotation="0" />
  <path
     d="m 457.2859,127.50846 c 13.99685,3.719 30.9497,-14.36859 37.86606,-40.399348 6.9171,-26.030902 1.17745,-50.147894 -12.81939,-53.866744 -13.99684,-3.718926 -30.9497,14.368443 -37.86605,40.399049 -6.91635,26.030755 -1.17746,50.148043 12.81938,53.867043 z m -1.04629,-37.067828 c -0.0113,-0.35377 -0.0217,-0.67755 -0.036,-0.95711 0.0967,-7.77603 1.79804,-14.726105 5.58899,-21.043909 1.40906,-2.284165 3.25582,-4.422553 5.15129,-6.366521 1.21494,-1.215009 2.81886,-2.18703 4.42278,-2.91599 3.98507,-1.798192 7.53244,-0.485974 9.67075,3.304754 1.99291,3.499173 2.47859,7.38711 2.3819,11.274747 -0.14615,7.533189 -1.79879,14.774819 -5.58899,21.335159 -1.40981,2.43062 -3.20785,4.61765 -5.05461,6.755958 -0.92338,1.06878 -2.23574,1.89473 -3.49939,2.57527 -4.03379,2.18703 -7.77528,1.16697 -10.2059,-2.77014 -1.60317,-2.575268 -2.38115,-5.442838 -2.6727,-8.455808 -0.10193,-0.94887 -0.13266,-1.92171 -0.15814,-2.73641 z"
     id="path22"
     inkscape:connector-curvature="0"
     style="clip-rule:evenodd;fill:#ffffff;fill-rule:evenodd;stroke-width:0.749496" />
  <path
     d="m 323.23549,129.77194 c -0.14615,-0.29155 -0.24358,-0.77723 -0.4377,-0.87466 -6.75521,-2.23575 -8.79684,-7.62987 -9.28251,-13.94813 -0.58311,-7.8727 0.53439,-15.648728 2.08959,-23.376038 3.83967,-18.711171 7.63062,-37.373179 11.46954,-56.083979 0.53439,-2.478584 0.48643,-2.527152 3.15913,-2.527152 2.0896,0 4.22791,0 6.3175,0 2.47859,0.04857 2.62474,0.145777 2.13907,2.672929 -1.45852,7.435753 -2.91629,14.920073 -4.42278,22.35575 -2.28447,11.566752 -4.66562,23.133732 -6.80393,34.748672 -0.58311,3.15913 -0.82594,6.46366 -0.68054,9.671498 0.29155,6.22082 3.83967,7.53244 9.13711,5.44284 2.77014,-1.1175 4.66486,-3.35324 5.63696,-6.07466 1.4098,-3.937108 2.72217,-7.970148 3.54812,-12.052648 3.74223,-17.98192 7.33831,-35.963835 10.98311,-53.9456 0.48643,-2.527227 0.53514,-2.527227 3.11041,-2.527227 2.42987,0 4.86049,-0.04857 7.29035,0 1.89548,0.04864 1.94345,0.04864 1.55521,1.895401 -1.36109,7.046915 -2.67345,14.142471 -4.08251,21.189385 -2.72142,13.948351 -5.39487,27.944441 -8.16501,41.892571 -1.50649,7.435748 -4.17919,14.434548 -8.55325,20.703338 -2.96426,4.22865 -6.60981,7.7273 -11.51826,9.72021 -0.38899,0.14541 -0.58311,0.68055 -0.82595,1.06879 -3.88838,0.0487 -7.77602,0.0487 -11.66366,0.0487 z"
     id="path24"
     inkscape:connector-curvature="0"
     style="fill:#ffffff;stroke-width:0.749496" />
  <path
     d="m 0.09719918,125.88431 c 1.26358402,0.1454 1.21498672,-1.02082 1.50658572,-1.70136 2.2355751,-4.7623 4.4225528,-9.52535 6.463716,-14.38508 0.6318254,-1.45777 1.4094278,-2.0896 3.0617671,-2.04163 2.915991,0.14615 5.831981,0.0487 8.747896,0.0487 5.005736,-0.0967 8.456342,-2.47859 9.768485,-6.80393 1.555205,-5.005888 0.145852,-9.525348 -3.985147,-12.441638 -0.145777,-0.0967 -0.242986,-0.19412 -0.388763,-0.29155 -6.803928,-3.54737 -9.136735,-9.47664 -9.039525,-16.718269 0.145777,-8.747521 1.798191,-17.203863 5.686128,-25.125589 1.652415,-3.353321 3.693593,-6.463731 6.463731,-9.039525 3.693593,-3.450531 7.970369,-5.443142 13.121882,-5.443142 4.616972,0 9.233869,0 13.850841,0 2.089746,0 2.138388,0.04864 1.652415,1.992611 -1.117799,4.616972 -2.332808,9.233869 -3.353397,13.899484 -0.291629,1.409353 -0.923379,1.846759 -2.332732,1.798116 -3.256187,-0.09713 -6.463731,-0.04857 -9.719918,0 -0.972021,0 -1.943968,0.04864 -2.91599,0.145852 -3.353321,0.388764 -6.220744,1.55513 -7.241333,5.102946 -1.166366,3.936504 -1.069157,7.727307 2.235597,10.740432 1.263576,1.166441 2.575794,2.18703 3.93658,3.207394 4.37391,3.256561 6.755285,7.67859 6.998271,13.02475 0.583258,11.80981 -1.749549,22.987798 -8.261847,33.096248 -2.041178,3.15913 -4.519763,5.92927 -7.532963,8.16502 -3.985146,3.01297 -8.407699,4.66561 -13.510645,4.56818 -5.102945,-0.0974 -10.2058907,0 -15.308834,0 0.0971992,-0.48568 0.0971992,-1.16622 0.0971992,-1.79804 z"
     id="path26"
     inkscape:connector-curvature="0"
     style="fill:#ffffff;stroke-width:0.749496" />
  <path
     d="m 164.21711,124.81477 c 1.31237,-6.3175 2.67346,-12.63575 3.98582,-18.95326 4.90845,-23.522188 9.81691,-47.04468 14.72536,-70.566797 0.58311,-2.72157 0.58311,-2.72157 3.45068,-2.72157 2.5273,0 5.00588,0.04857 7.53244,0 1.31236,-0.04857 1.84675,0.437406 1.99291,1.798191 1.60392,13.753632 3.25581,27.458696 4.90845,41.212028 0.29155,2.5273 0.63182,5.0546 1.4098,7.67934 0.53439,-0.9721 1.1175,-1.89548 1.65189,-2.86757 8.21373,-14.968719 16.42671,-29.937359 24.54301,-44.954642 0.92338,-1.700981 1.89547,-2.527151 3.93635,-2.381374 2.33318,0.194419 4.71433,0.04864 7.04676,0.04864 2.67346,0 2.72218,0 2.23575,2.575719 -1.99216,10.060114 -3.98507,20.168796 -5.97798,30.22891 -3.83892,19.293757 -7.62987,38.588045 -11.51751,57.833605 -0.87541,4.27663 0.048,3.6448 -4.56893,3.69352 -2.28371,0.0487 -4.51946,0 -6.80393,0 -2.33243,0 -2.38115,-0.0487 -1.89472,-2.28446 1.60317,-7.33832 3.15837,-14.72536 4.7623,-22.06443 1.65264,-7.581148 3.30453,-15.163058 4.95716,-22.744208 0.0974,-0.34027 0.0487,-0.72926 -0.19411,-1.16622 -0.34028,0.68055 -0.72926,1.40906 -1.06954,2.0896 -6.90061,14.62867 -13.85069,29.256588 -20.65461,43.933968 -0.82595,1.79804 -1.79805,2.38115 -3.64481,2.28447 -5.0546,-0.24359 -4.52021,0.97134 -4.85973,-4.6169 -0.87541,-13.90016 -1.84751,-27.750848 -2.77089,-41.650258 -0.0967,-1.36033 -0.1454,-2.72142 -0.58311,-4.17919 -0.34027,1.5552 -0.67979,3.06169 -0.97209,4.6169 -2.86683,14.57995 -5.7344,29.207868 -8.65069,43.787818 -0.43695,2.28446 -0.48567,2.33318 -2.77014,2.33318 -7.38703,0 -14.72535,0 -22.11239,0 -2.47858,0 -2.47858,-0.0487 -2.47858,-2.62473 0,-3.4994 -0.0487,-6.94933 0.0487,-10.44873 0.0487,-1.60392 -0.58311,-2.0896 -2.13832,-2.04088 -4.52021,0.048 -9.08839,0.0967 -13.60785,0 -1.45852,-0.0487 -2.18703,0.53439 -2.67345,1.84676 -1.45777,4.03304 -3.0617,8.01886 -4.51947,12.05265 -0.48567,1.31162 -1.16621,1.89472 -2.62473,1.84676 -3.15838,-0.0974 -6.31751,0 -9.47663,-0.0487 -2.04088,0 -2.0896,-0.0487 -1.31237,-2.04163 3.64555,-9.18508 7.33907,-18.32144 10.98387,-27.507258 8.55325,-21.33516 17.05853,-42.670102 25.61178,-64.005264 1.16622,-2.91599 0.87467,-2.527226 3.83967,-2.527226 2.67271,0 5.34541,0.04864 8.01886,0 1.21494,0 1.79805,0.437406 1.74933,1.700981 -0.0487,0.729035 0,1.457995 0,2.187031 0,28.722272 0,57.493188 0,86.215386 0,0.77797 0,1.60392 0,2.38115 0.14615,0 0.34027,0 0.48567,0.0487 z M 149.7346,67.807788 c -0.14541,-0.04864 -0.29156,-0.09721 -0.43696,-0.145852 -0.24359,0.486048 -0.48642,0.972097 -0.68054,1.45777 -2.0896,5.443592 -4.13123,10.837716 -6.22082,16.281306 -0.68055,1.79804 -1.31237,3.6448 -2.0896,5.44284 -0.48642,1.16622 -0.14615,1.60393 1.06878,1.60393 2.18703,-0.0487 4.37406,-0.0487 6.51238,0 1.45852,0.0487 1.75007,-0.63183 1.75007,-1.89548 0.048,-7.58115 0.0967,-15.16306 0.0967,-22.744514 z"
     id="path28"
     inkscape:connector-curvature="0"
     style="fill:#ffffff;stroke-width:0.749496" />
  <path
     d="m 373.0013,98.911432 c -1.65264,8.748118 -3.30453,17.447528 -4.95717,26.194898 -0.43771,2.28446 -0.43771,2.28446 -2.81886,2.28446 -3.01297,0 -5.97798,0 -8.99095,0 -2.28372,0 -2.33244,-0.0487 -1.89548,-2.23574 1.65264,-8.40785 3.354,-16.81495 5.0546,-25.222798 4.32535,-21.33517 8.65069,-42.621984 12.92731,-63.957146 0.68055,-3.499173 0.68055,-2.81878 3.35325,-2.81878 5.10332,-0.04857 10.20589,0 15.30921,0 5.29744,-0.04857 9.03968,2.430016 10.98312,7.241333 0.9721,2.381375 1.65264,4.957168 1.84676,7.48432 0.77798,10.157324 -0.82594,20.023018 -5.15129,29.305303 -2.57602,5.54028 -6.07467,10.35205 -11.71238,13.1709 -1.21493,0.63183 -0.92338,1.50649 -0.72926,2.47858 1.79805,9.136358 3.54812,18.273468 5.34616,27.361118 0.34027,1.84676 0.68054,3.6448 1.06953,5.49156 0.24284,1.06953 0.0967,1.70135 -1.21568,1.70135 -4.37331,-0.0487 -8.74737,-0.0487 -13.12143,0 -1.16622,0 -1.45777,-0.58311 -1.60392,-1.65264 -0.77723,-6.85264 -1.60393,-13.65657 -2.42987,-20.4605 -0.24284,-2.13831 -0.53439,-4.27662 -0.77798,-6.414928 -0.19412,0 -0.33952,0.0487 -0.48567,0.0487 z m 16.47542,-36.935625 c -0.0487,-0.340196 0,-1.263576 -0.19486,-2.089745 -0.6798,-3.401964 -2.42987,-5.977758 -5.97724,-6.852495 -2.13831,-0.534616 -2.28446,-0.388839 -2.62473,1.798117 -1.02082,6.366596 -2.04088,12.733117 -3.01298,19.148506 -0.14615,1.068782 -0.0974,2.187032 -0.0974,3.255812 1.16621,-0.19412 2.5273,-0.0974 3.45068,-0.63183 1.79804,-1.02081 3.59608,-2.235743 4.95717,-3.742231 2.5273,-2.91554 3.54811,-6.512148 3.49939,-10.886134 z"
     id="path30"
     inkscape:connector-curvature="0"
     style="fill:#ffffff;stroke-width:0.749496" />
  <path
     d="m 411.10269,127.39079 c -2.81885,0 -5.68643,0 -8.50528,0 -2.96426,0 -2.96426,0 -2.5273,-2.81885 1.50723,-9.47663 3.06244,-19.00273 4.56893,-28.479358 3.15912,-19.73124 6.3175,-39.414065 9.47663,-59.145454 0.0974,-0.631825 0.24283,-1.263576 0.29155,-1.895401 0.0974,-1.069157 0.58311,-1.506563 1.74932,-1.506563 5.97799,0.04857 11.95597,-0.04864 17.98192,0.09721 3.64555,0.09721 6.12413,2.284165 7.77602,5.3945 1.60393,3.110409 2.13832,6.463731 2.18703,9.865694 0.14616,5.92919 -0.48567,11.809663 -2.33243,17.447225 -1.4098,4.276401 -3.4994,8.164787 -6.70724,11.372629 -0.87466,0.87466 -1.02007,1.45777 0.0974,2.28372 3.30453,2.47858 4.4715,5.92926 4.4715,10.01177 0,8.65069 -0.92338,17.106498 -4.37406,25.126108 -1.31237,3.0617 -3.06169,5.88055 -5.49231,8.21298 -2.77014,2.62399 -5.97723,4.08251 -9.8169,4.03379 -3.01298,0 -5.92927,0 -8.84481,0 z m 14.62867,-27.896248 c 0.048,-5.2 -2.3819,-8.21298 -6.9988,-8.89352 -1.21493,-0.19412 -1.79804,0.19412 -2.04088,1.36033 -1.16621,5.92927 -2.33318,11.858528 -3.59683,17.787798 -0.29155,1.45777 0.29156,1.60392 1.50724,1.5552 6.65777,-0.24283 11.08055,-4.90845 11.12927,-11.809808 z m 4.66486,-38.053276 c -0.1454,-1.506562 -0.048,-2.770213 -0.43695,-3.887937 -0.48642,-1.215008 -1.26365,-2.478584 -2.28447,-3.207619 -1.99216,-1.360785 -2.91554,-0.82617 -3.40196,1.506638 -0.0487,0.242986 -0.0967,0.485973 -0.1454,0.72896 -0.87466,4.276775 -1.75008,8.504909 -2.57602,12.781984 -0.38899,2.040879 -0.0974,2.283716 1.94419,1.798042 3.2071,-0.72926 5.34541,-2.624736 6.22082,-5.734921 0.38824,-1.360785 0.48568,-2.81878 0.67979,-3.985147 z"
     id="path32"
     inkscape:connector-curvature="0"
     style="fill:#ffffff;stroke-width:0.749496" />
  <path
     d="m 47.724774,107.65955 c 0.485973,-9.574058 2.91599,-18.711168 4.811316,-27.993678 3.0132,-15.065629 6.074968,-30.131478 9.136735,-45.197328 0.485973,-2.429942 0.534541,-2.429942 2.915915,-2.478585 2.187031,0 4.373986,0 6.560941,0 2.478584,0 2.527227,0.09721 2.089821,2.430017 -1.263576,6.512299 -2.575794,13.024597 -3.83937,19.53697 -2.478584,12.538624 -5.054378,25.077096 -7.387111,37.616166 -0.583183,3.0617 -0.583183,6.26879 -0.729035,9.427918 -0.04857,0.97209 0.145852,1.94419 0.388839,2.86757 0.82617,3.06169 2.672929,4.22791 5.783338,3.83967 3.499174,-0.43771 6.172102,-2.23575 7.727532,-5.24872 1.311618,-2.576018 2.527301,-5.297438 3.158377,-8.116298 2.235748,-9.96305 4.228658,-19.926106 6.269537,-29.937428 2.041628,-9.914337 3.985072,-19.828599 6.0267,-29.742861 0.485673,-2.430017 0.53439,-2.430017 2.964257,-2.430017 2.333182,0 4.714332,-0.04857 7.046764,0 2.23575,0.04864 2.33319,0.194419 1.9442,2.430017 -1.31237,6.852495 -2.623993,13.656422 -3.936361,20.508917 -2.721421,13.899109 -5.394874,27.799272 -8.116295,41.698672 -1.409053,7.144198 -3.742235,13.948128 -7.921426,19.925358 -1.992911,2.86758 -4.422778,5.63771 -7.095482,7.87346 -5.492084,4.6169 -11.907172,5.10257 -18.565323,3.01298 -5.443142,-1.74933 -7.775874,-6.07467 -8.553476,-11.37211 -0.437406,-2.81886 -0.485974,-5.78386 -0.680393,-8.65069 z"
     id="path34"
     inkscape:connector-curvature="0"
     style="fill:#ffffff;stroke-width:0.749496" />
  <path
     d="m 123.73382,52.644728 c -1.79804,0 -3.54737,0.09721 -5.34541,0 -1.45852,-0.09721 -2.18703,0.340197 -2.47858,1.895401 -0.8267,4.519763 -1.75008,9.03945 -2.62474,13.559213 -0.34027,1.895026 -0.34027,1.943744 1.75008,1.943744 3.30452,0 6.65777,0 9.9623,0 1.99291,0 2.04163,0.04872 1.60392,2.090345 -1.06878,5.151291 -2.18703,10.302571 -3.15912,15.454611 -0.34028,1.70061 -1.06879,2.235 -2.77014,2.18703 -3.0617,-0.0974 -6.1721,0.048 -9.2338,-0.0487 -1.7006,-0.0487 -2.38115,0.48567 -2.72142,2.23499 -2.13831,10.935148 -4.32534,21.919018 -6.60981,32.853418 -0.87466,4.17994 0,3.4994 -4.422027,3.54812 -2.090345,0.0487 -4.228658,0.0487 -6.318254,0 -1.992911,-0.0487 -2.089596,-0.0974 -1.652639,-2.0896 1.603922,-7.77602 3.207844,-15.50333 4.811766,-23.27935 4.665614,-22.501378 9.331234,-45.00328 13.996844,-67.504807 0.0967,-0.388839 0.24284,-0.777603 0.29156,-1.166441 0.0967,-1.506563 0.82594,-2.041178 2.33243,-2.041178 7.38703,0.04864 14.72535,0 22.11314,0.04864 1.94344,0 1.99216,0.04857 1.60317,1.895401 -1.06878,5.491709 -2.235,10.934851 -3.25581,16.42656 -0.29156,1.555205 -0.92338,2.187031 -2.57602,2.089821 -1.74933,-0.242987 -3.54737,-0.09721 -5.29744,-0.09721 z"
     id="path36"
     inkscape:connector-curvature="0"
     style="fill:#ffffff;stroke-width:0.749496" />
  <path
     d="m 307.43986,32.961981 c 4.76305,0 9.52535,0 14.33711,0 2.0896,0 2.13832,0.09713 1.70061,2.089746 -1.40905,6.074967 -2.81886,12.101292 -4.17919,18.176184 -0.29156,1.312218 -0.87466,1.895402 -2.28447,1.798192 -1.7006,-0.09721 -3.40196,-0.04857 -5.10257,-0.04857 -2.47858,0 -2.5273,0 -3.01372,2.332733 -1.99216,9.914337 -3.98507,19.828296 -6.02595,29.694666 -2.57602,12.73245 -5.20001,25.514358 -7.72731,38.247548 -0.29155,1.60392 -0.92338,2.18703 -2.5273,2.0896 -2.6727,-0.0974 -5.34616,0 -8.01886,-0.0487 -2.33243,0 -2.42987,-0.1454 -1.99291,-2.5273 0.82669,-4.27663 1.70136,-8.55326 2.5273,-12.82988 3.59683,-18.176038 7.19292,-36.304098 10.789,-54.480062 0.48642,-2.478585 0.38899,-2.575794 -2.18703,-2.575794 -1.84676,0 -3.74149,-0.04864 -5.58825,0 -1.06953,0 -1.45851,-0.437406 -1.26365,-1.506563 1.31162,-6.317954 2.62399,-12.684475 3.88764,-19.002429 0.29156,-1.409353 1.21493,-1.506562 2.33318,-1.506562 4.81102,0.09721 9.57407,0.09721 14.33637,0.09721 z"
     id="path38"
     inkscape:connector-curvature="0"
     style="fill:#ffffff;stroke-width:0.749496" />
  <path
     d="m 255.19622,33.059191 c 1.31237,0 2.57602,0 3.88764,0 2.62473,0 2.62473,0 2.13831,2.527151 -1.21493,6.123535 -2.47858,12.198427 -3.69352,18.321962 -4.81102,23.619248 -9.62278,47.190156 -14.4338,70.809786 -0.53439,2.72142 -0.53439,2.72142 -3.40196,2.72142 -2.67271,0 -5.34616,-0.0487 -8.01886,0 -1.31237,0.0487 -1.65264,-0.38899 -1.36109,-1.70136 1.36109,-6.65777 2.67346,-13.3163 3.98507,-19.97407 4.66562,-23.473478 9.33123,-46.947175 13.99685,-70.372157 0.4377,-2.284165 0.48642,-2.284165 2.77014,-2.284165 1.4098,-0.04857 2.77013,-0.04857 4.13122,-0.04857 z"
     id="path40"
     inkscape:connector-curvature="0"
     style="fill:#ffffff;stroke-width:0.749496" />
  <path
     d="m 160.74245,143.269 c -1.84676,-0.19412 -2.5273,-1.1175 -2.23575,-2.96426 0.14615,-1.06953 -0.0967,-2.18703 -0.1454,-3.25656 1.79804,0 3.54736,0 5.34541,0 -0.38824,1.26365 0.68054,0.82669 1.16696,0.92338 3.45068,0.53514 6.90061,0.97209 10.30258,1.45852 6.31825,0.87466 12.6365,1.74932 19.00273,2.5273 1.60392,0.19412 2.33243,0.82594 2.18703,2.38115 -0.0487,0.34027 -0.0974,0.63182 -0.0974,0.97209 -0.0974,2.67271 -0.0974,2.72142 -2.6727,2.38115 -5.20001,-0.68054 -10.40076,-1.45777 -15.55205,-2.13831 -5.78311,-0.77798 -11.56623,-1.50649 -17.30137,-2.28446 z"
     id="path42"
     inkscape:connector-curvature="0"
     style="fill:#ffffff;stroke-width:0.749496" />
  <path
     d="m 321.21785,140.93656 c -0.0487,-1.31237 -0.0974,-2.57602 -0.0974,-3.88838 2.57602,0 5.20001,0 7.77603,0 0.0487,0.77797 0.0967,1.5552 0.1454,2.3819 -0.0487,0.97209 -0.29155,1.65188 -1.50649,1.5552 -1.31236,-0.0974 -2.6727,0.0487 -3.98507,0.0487 -0.77723,-0.0487 -1.5552,-0.0974 -2.38115,-0.14615 0,0 0.0487,0.0487 0.0487,0.0487 z"
     id="path44"
     inkscape:connector-curvature="0"
     style="fill:#ffffff;stroke-width:0.749496" />
  <path
     d="m 338.61666,137.04818 c 0.048,0.77797 0.0967,1.5552 0.1454,2.33318 0,1.16621 -0.48568,1.65264 -1.70061,1.60392 -1.26365,-0.0487 -2.5273,0.0487 -3.79095,0.0487 -0.68054,-0.0487 -1.31237,-0.0487 -1.99291,-0.0974 -0.0967,-0.53439 -0.24284,-1.02081 -0.34027,-1.5552 -0.048,-0.77798 -0.048,-1.60392 -0.0967,-2.38115 2.57527,0.048 5.20001,0.048 7.77603,0.048 z"
     id="path46"
     inkscape:connector-curvature="0"
     style="fill:#ffffff;stroke-width:0.749496" />
  <path
     d="m 212.69603,153.47489 c -2.18703,-0.34028 -2.18703,-0.34028 -2.23575,-2.42987 0,-0.87466 -0.0974,-1.79804 0.0487,-2.6727 0.0967,-0.5344 0.48568,-1.21494 0.92338,-1.40981 2.62399,-0.97134 3.40196,-3.15837 3.59608,-5.54027 0.14616,-1.74933 0.63183,-2.28372 2.42987,-2.235 10.30333,0.0967 20.65462,0.048 30.95795,0.048 2.08959,0 2.08959,0 2.28446,2.23574 -0.0487,3.93636 0.0967,7.92218 -0.14615,11.85853 -0.1454,1.9442 -0.68054,4.03379 -1.65264,5.68568 -2.57527,4.27738 -6.41494,6.65853 -11.61494,6.56109 -6.85265,-0.0487 -13.70529,0.0487 -20.60591,0.0974 -1.60392,0.0974 -2.18703,-0.53439 -2.13831,-2.23575 0.0967,-3.93635 0,-3.93635 3.98507,-3.93635 5.78312,0 11.56623,0 17.39806,0 1.70136,0 3.40196,-0.0487 4.61765,-1.55521 0.38824,-0.68054 0.77722,-1.31237 1.16621,-1.99291 -0.68054,-0.1454 -1.31237,-0.43696 -1.99291,-0.43696 -5.39412,0 -10.83771,0.0487 -16.23184,0.0967 -0.0974,0 -0.14615,-0.048 -0.24359,-0.048 -2.38115,-0.14615 -2.38115,-0.14615 -1.79804,-2.57602 0.0974,-0.29155 0.0487,-0.63182 0.0487,-0.92338 l -0.0487,0.0487 c 0.19487,-0.38899 0.34027,-0.82669 0.53514,-1.21493 0.24284,-0.48643 0.48568,-0.92338 0.72851,-1.40981 6.36697,0 12.68448,0.0487 19.05145,0.0487 2.62399,0 2.62399,0 2.42987,-2.6727 0.38824,-2.28447 -0.38899,-2.23575 -1.99291,-2.23575 -6.36623,0 -12.7332,0.0487 -19.09942,0 -1.26365,0 -1.94419,0.29155 -2.38115,1.65264 -1.26365,3.88764 -3.79095,6.56034 -8.01886,7.19217 z"
     id="path48"
     inkscape:connector-curvature="0"
     style="fill:#ffffff;stroke-width:0.749496" />
  <path
     d="m 6.7794016,164.75031 c -1.6037797,0.0974 -2.1869777,-0.53439 -2.1383804,-2.23575 0.097202,-4.13122 0,-4.13122 4.0337966,-4.13122 3.5477402,0 7.0954812,0.0487 10.6432222,0 4.859959,-0.0967 8.456342,-2.52655 11.032136,-6.41494 0.72896,-1.06878 0.53454,-2.72142 0.777602,-4.13048 0.291554,-1.21493 0.437331,-2.23574 -1.409428,-2.23574 -7.241333,0.0487 -14.482667,0.0974 -21.723925,0.1454 -0.7290275,-0.24284 -1.9926108,-0.38824 -2.089813,-0.72851 -0.2429942,-1.31237 -0.1457995,-2.72142 0.048597,-4.08251 0.048597,-0.24283 1.2635832,-0.38899 1.9925733,-0.38899 7.6787397,-0.0487 15.3574047,0 23.0361437,0 1.798192,0 3.547741,0 5.345932,0 2.478585,0 2.478585,0 2.770214,2.33319 -0.437406,3.01297 -0.680393,6.07466 -1.409428,8.99095 -0.631751,2.57527 -0.874737,2.52656 1.069231,4.37331 2.964558,3.40197 5.929116,6.80393 8.893673,10.2059 -3.061767,0.0487 -6.074892,0.0487 -9.136659,0.0974 -1.166442,-1.06878 -2.28424,-2.18703 -3.450606,-3.25581 -0.291555,-0.29156 -0.534541,-0.63183 -0.82617,-0.87541 -1.846759,-1.70061 -1.846759,-1.70061 -3.887937,-0.24284 -2.381375,1.75007 -4.957169,2.5273 -7.921726,2.47858 -5.151588,-0.0487 -10.400311,0.0974 -15.6490488,0.0974 z"
     id="path50"
     inkscape:connector-curvature="0"
     style="fill:#ffffff;stroke-width:0.749496" />
  <path
     d="m 84.392756,165.72241 c -2.18703,-0.24284 -2.18703,-0.24284 -2.235747,-2.33319 -0.04872,-4.51946 -0.04872,-4.51946 4.37406,-4.51946 4.519463,0 9.039675,0 13.607861,0 3.88763,0 6.99804,-1.79804 9.42791,-4.71433 1.16697,-1.40905 1.75007,-3.06169 1.36109,-4.95717 0.24283,-1.26365 0.4377,-2.42987 -1.55521,-2.38115 -9.28251,0.0974 -18.613743,0.0974 -27.896254,0.0974 -2.18703,-0.24359 -2.18703,-0.24359 -2.234998,-2.33319 -0.04872,-4.22791 -0.04872,-4.22791 4.179191,-4.22791 9.963055,0 19.926111,0 29.840451,0.0487 2.77014,0 2.18628,-0.34027 2.62398,2.235 -0.0487,0.9721 -0.0974,1.94419 -0.14615,2.86757 -0.048,2.72142 0.0487,5.49156 -0.1454,8.21373 -0.53439,6.7065 -4.27663,10.64285 -10.88643,11.56623 -1.40906,0.19487 -2.91554,0.24284 -4.32535,0.29155 -5.346157,0.0974 -10.691564,0.0974 -15.989004,0.14616 z"
     id="path52"
     inkscape:connector-curvature="0"
     style="fill:#ffffff;stroke-width:0.749496" />
  <path
     d="m 336.62375,143.31771 c 0,0.58311 0,1.16622 0,1.75008 -0.24359,2.86682 -0.24359,2.86682 -3.25657,2.86682 -4.03379,0 -8.06757,0 -12.10136,0 -2.47859,0 -2.47859,0 -2.47859,2.57602 0,4.42278 -0.0487,8.8448 0,13.26758 0,1.45777 -0.43695,1.99291 -1.94344,1.9442 -1.70136,-0.0974 -3.40197,0.0487 -5.0546,0.0487 -2.18703,-0.24358 -2.18703,-0.24358 -2.18703,-2.33318 0,-4.42278 -0.0487,-8.79609 -0.0487,-13.21887 0.19487,-1.11824 0.63182,-2.38115 -1.26365,-2.33318 -4.27663,0.0487 -8.50454,0.0974 -12.78116,0.14615 -1.60393,0.0487 -2.3819,-0.5831 -2.09035,-2.28446 0.0974,-0.48567 0.0487,-0.9721 0,-1.45777 -0.19412,-1.36109 0.48642,-1.60392 1.70136,-1.60392 4.03379,0.0487 8.06758,0 12.10137,0 2.38115,0 2.5273,0 2.47858,-2.47859 0,-1.5552 0.58311,-1.94344 1.99216,-1.84676 1.60392,0.0974 3.20785,0 4.81177,0.0487 2.235,0 2.235,0 2.42986,2.33318 -0.0487,1.94345 -0.0487,1.94345 2.13832,1.89473 0.82594,0 1.65264,0 2.5273,0 2.5273,0 5.10257,0 7.62987,-0.048 0.68054,0 1.36109,0 2.04088,-0.0487 1.11825,0.38824 2.23575,0.58311 3.354,0.77723 z"
     id="path54"
     inkscape:connector-curvature="0"
     style="fill:#ffffff;stroke-width:0.749496" />
  <path
     d="m 123.46625,150.75347 c -2.0896,-0.24284 -2.0896,-0.24284 -2.0896,-2.42987 0,-2.91629 -0.29155,-2.67271 2.52731,-2.67271 9.18507,0 18.41887,0 27.60394,0 2.67346,0 2.28447,-0.34027 2.52731,2.235 -0.0487,1.9442 -0.0487,3.88839 -0.0974,5.78387 -0.048,3.83892 -1.74932,5.58899 -5.58824,5.68567 -2.43062,0.0487 -4.86049,0.0487 -7.24164,0 -1.31236,-0.0487 -1.79804,0.38899 -1.84676,1.75008 -0.19412,3.69352 -1.65264,5.00513 -5.34615,5.05385 -2.96426,0.0487 -5.97724,0.0487 -8.94224,0.0974 -1.55521,0.0974 -2.18703,-0.43771 -2.13832,-2.18703 0.0974,-4.66562 0,-4.66562 4.71434,-4.66562 1.84675,0 3.69351,-0.0487 5.54027,0 1.06878,0.0487 1.40906,-0.43696 1.40906,-1.45777 0,-1.1175 -0.24284,-2.72142 0.34027,-3.15913 0.82669,-0.5831 2.28446,-0.34027 3.49939,-0.34027 2.57602,-0.0487 5.15129,-0.0487 7.72731,0 1.16622,0 1.40905,-0.48567 1.16622,-1.45777 0.14615,-1.21493 0.48642,-2.42986 -1.55521,-2.38115 -7.43575,0.14541 -14.82279,0.14541 -22.20982,0.14541 z"
     id="path56"
     inkscape:connector-curvature="0"
     style="fill:#ffffff;stroke-width:0.749496" />
  <path
     d="m 160.7417,161.05679 c -1.60317,-0.0974 -2.57527,-0.68054 -2.235,-2.5273 0.048,-0.24284 0,-0.48567 0,-0.72926 0.048,-2.77014 -0.53514,-2.96426 2.86682,-2.47859 10.83772,1.55521 21.72415,3.06245 32.56187,4.4715 1.70136,0.19412 2.5273,0.68054 2.33243,2.42987 -0.048,0.5831 -0.1454,1.1175 -0.0967,1.70135 0.19412,1.55521 -0.48643,2.0896 -1.9442,1.70061 -0.38898,-0.0974 -0.77722,-0.1454 -1.21493,-0.19412 -10.69156,-1.45852 -21.48056,-2.91629 -32.27031,-4.37406 z"
     id="path58"
     inkscape:connector-curvature="0"
     style="fill:#ffffff;stroke-width:0.749496" />
  <path
     d="m 160.7417,152.30867 c -1.60317,-0.0974 -2.57527,-0.68054 -2.235,-2.5273 0.048,-0.24284 0,-0.48568 0,-0.72851 0.048,-2.72217 -0.58311,-2.96501 2.86682,-2.47859 10.93515,1.60318 21.87031,3.11041 32.80471,4.47075 1.70135,0.19487 2.18703,0.92338 2.08959,2.42987 -0.048,0.24358 -0.048,0.48642 -0.0967,0.72926 -0.0974,2.96425 -0.0974,2.91629 -3.15913,2.5273 -10.69156,-1.50649 -21.48056,-2.96501 -32.27031,-4.42278 z"
     id="path60"
     inkscape:connector-curvature="0"
     style="fill:#ffffff;stroke-width:0.749496" />
  <path
     d="m 45.172964,155.56523 c -1.603847,0.0967 -2.138388,-0.53514 -2.138388,-2.23575 0.09721,-4.52021 0,-4.52021 4.616897,-4.52021 7.046989,0 14.045261,0 21.092175,0 2.235598,0 2.235598,0 2.527227,2.33318 -0.04864,0.38899 -0.09721,0.77723 -0.09721,1.21494 0,3.4994 0.242987,3.11041 -3.11041,3.11041 -7.581455,0.0487 -15.260194,0.0487 -22.890291,0.0974 z"
     id="path62"
     inkscape:connector-curvature="0"
     style="fill:#ffffff;stroke-width:0.749496" />
  <path
     d="m 259.69095,155.56523 c -2.13831,-0.24359 -2.13831,-0.24359 -2.18703,-2.3819 -0.0487,-4.37406 -0.0487,-4.37406 4.22866,-4.37406 7.14345,0 14.33636,0 21.48056,0 2.5273,0 2.18703,-0.38824 2.47858,2.33318 -0.0487,0.38899 -0.0974,0.82595 -0.0974,1.21494 -0.048,3.30453 0.48642,3.11041 -3.15838,3.11041 -7.53318,0.0487 -15.16306,0.0487 -22.74496,0.0974 z"
     id="path64"
     inkscape:connector-curvature="0"
     style="fill:#ffffff;stroke-width:0.749496" />
  <path
     d="m 329.14002,164.21592 c -3.79095,-3.01373 -4.71433,-7.24164 -5.10257,-11.7611 -0.0974,-1.16696 0.33953,-1.60392 1.45777,-1.50649 0.9721,0.048 1.94345,0 2.86683,0 2.18703,0 2.18703,0 2.62473,2.28372 0.34027,2.08959 1.1175,3.98507 2.77014,5.44359 0.58311,0.43696 1.06953,1.06878 1.70136,1.21493 1.16621,0.29156 1.1175,1.1175 1.21493,1.99217 -0.0487,0.38898 -0.0974,0.82669 -0.0974,1.21493 -0.0974,2.04163 -0.0974,2.09034 -2.23575,2.04163 -1.50649,-0.0487 -3.06169,-0.24359 -4.56818,-0.38899 l 0.0487,0.0487 c -0.19487,-0.24284 -0.43771,-0.38899 -0.68055,-0.58311 z"
     id="path66"
     inkscape:connector-curvature="0"
     style="fill:#ffffff;stroke-width:0.749496" />
  <path
     d="m 294.53653,165.18726 c -0.67979,-0.33952 -2.0896,0.38899 -2.04088,-1.02006 0.0487,-1.4098 -0.97209,-3.30528 0.77798,-4.13122 3.10966,-1.55521 4.32534,-4.22791 4.85973,-7.2896 0.24284,-1.40981 0.63183,-1.99291 2.0896,-1.79805 0.87466,0.0967 1.74932,0 2.6727,0 2.13906,0 2.13906,0 2.23575,2.235 -0.24284,1.16697 -0.43696,2.33318 -0.68054,3.4994 -1.50649,5.97798 -3.93636,8.06758 -9.91434,8.50453 z"
     id="path68"
     inkscape:connector-curvature="0"
     style="fill:#ffffff;stroke-width:0.749496" />
  <path
     d="m 110.47073,0.04242812 h 5.19851 V 22.713801 h -5.19851 z M 103.66231,22.713801 h 5.32292 L 100.07297,0.04242812 H 95.245462 L 87.94237,22.713801 h 11.511514 v -4.831553 h -4.703839 l 3.09467,-9.7871469 z M 31.869929,0.04242812 24.566912,22.713801 h 11.635331 v -4.831553 h -4.827431 l 3.09452,-9.7871469 5.817666,14.6186999 h 5.446289 L 36.69736,0.04242812 Z M 59.59672,11.811703 51.551027,0.04242812 H 47.218714 V 22.713801 h 5.198731 V 10.696752 l 8.293327,12.017049 h 4.084679 V 0.04242812 H 59.59672 Z M 77.668275,0.04242812 H 68.013789 V 22.713801 h 9.654486 c 3.389972,-0.0061 10.22238,-1.682769 10.274095,-11.39759 C 87.89065,1.6736111 81.058247,-0.00299688 77.668275,0.04242812 Z M 76.554524,17.882248 H 73.336337 V 4.7501511 h 3.218187 c 2.05287,0.02065 5.792857,0.794946 5.81759,6.5660599 -0.02473,5.843298 -3.76472,6.617602 -5.81759,6.566037 z M 20.977275,11.316211 c 1.6731,-1.3834209 2.316693,-3.7063339 2.351769,-5.6988479 -0.03508,-1.878957 -2.228027,-5.62035998 -6.436524,-5.57493498 H 4.6382406 V 22.713801 H 17.882755 c 4.249793,-0.0041 6.05488,-4.005683 6.065223,-6.07047 -0.01034,-2.064788 -0.268169,-4.129575 -2.970703,-5.32712 z m -5.941482,6.566037 H 9.836987 V 4.7501511 h 4.951247 c 2.510663,0.02065 2.832497,1.697257 2.846962,2.477782 -0.01447,0.768084 -0.40233,2.316693 -2.846962,2.353793 h -1.980469 v 3.5927859 h 2.104211 c 2.836694,-0.01656 2.966656,1.759218 2.96868,2.353868 -0.002,0.695832 -0.131986,2.405433 -2.844863,2.353868 z M 119.27132,3.9097781 c 0.26157,0.0081 0.5224,-0.03658 0.76673,-0.131349 0.24434,-0.09477 0.46694,-0.23771 0.65431,-0.420325 0.18813,-0.182615 0.33728,-0.401175 0.43921,-0.642686 0.10193,-0.24151 0.15439,-0.501038 0.15365,-0.763159 -7.5e-4,-0.262121 -0.0532,-0.521485 -0.1559,-0.762673 -0.10268,-0.24118698 -0.25258,-0.45926798 -0.44145,-0.64128398 -0.18813,-0.182022 -0.41148,-0.324254 -0.65581,-0.418252 -0.24434,-0.094 -0.50516,-0.137839 -0.76674,-0.128917 -0.50741,0.01728 -0.98708,0.231159 -1.33935,0.596426 -0.35226,0.365267 -0.54863,0.85329398 -0.54788,1.36089798 7.5e-4,0.507604 0.19862,0.995002 0.55163,1.359152 0.35376,0.36415 0.83494,0.576505 1.3416,0.592169 z m 0,-0.258096 c -0.95336,0 -1.65039,-0.743321 -1.65039,-1.703448 0,-0.94980698 0.69478,-1.69313198 1.65039,-1.69313198 0.94886,0 1.6399,0.743325 1.6399,1.69313198 0,0.960127 -0.69104,1.703448 -1.6399,1.703448 z m 0.31554,-1.616731 c 0.38749,-0.01032 0.68728,-0.17138 0.68728,-0.598788 0,-0.361339 -0.19636,-0.57813898 -0.77423,-0.57813898 h -0.9526 V 3.0405051 h 0.26831 v -1.005554 h 0.48868 l 0.62508,1.005554 h 0.32003 z m -0.77348,-0.210609 v -0.774297 h 0.62283 c 0.26832,0 0.54638,0.0413 0.54638,0.381988 0,0.443927 -0.45344,0.392309 -0.76299,0.392309 z"
     id="path70"
     inkscape:connector-curvature="0"
     style="fill:#ffffff;stroke-width:0.749496" />
</svg>
