<?xml version="1.0" encoding="UTF-8" standalone="no"?>
<svg
   xmlns:dc="http://purl.org/dc/elements/1.1/"
   xmlns:cc="http://creativecommons.org/ns#"
   xmlns:rdf="http://www.w3.org/1999/02/22-rdf-syntax-ns#"
   xmlns:svg="http://www.w3.org/2000/svg"
   xmlns="http://www.w3.org/2000/svg"
   xmlns:sodipodi="http://sodipodi.sourceforge.net/DTD/sodipodi-0.dtd"
   xmlns:inkscape="http://www.inkscape.org/namespaces/inkscape"
   width="431.05215"
   height="165.328"
   viewBox="0 0 431.05215 165.328"
   version="1.1"
   id="svg49"
   sodipodi:docname="taito.svg"
   inkscape:version="0.92.5 (2060ec1f9f, 2020-04-08)">
  <metadata
     id="metadata55">
    <rdf:RDF>
      <cc:Work
         rdf:about="">
        <dc:format>image/svg+xml</dc:format>
        <dc:type
           rdf:resource="http://purl.org/dc/dcmitype/StillImage" />
        <dc:title>mainlogo</dc:title>
      </cc:Work>
    </rdf:RDF>
  </metadata>
  <defs
     id="defs53" />
  <sodipodi:namedview
     pagecolor="#ffffff"
     bordercolor="#666666"
     borderopacity="1"
     objecttolerance="10"
     gridtolerance="10"
     guidetolerance="10"
     inkscape:pageopacity="0"
     inkscape:pageshadow="2"
     inkscape:window-width="1366"
     inkscape:window-height="743"
     id="namedview51"
     showgrid="false"
     inkscape:pagecheckerboard="true"
     inkscape:zoom="4.791371"
     inkscape:cx="203.99441"
     inkscape:cy="168.53266"
     inkscape:window-x="0"
     inkscape:window-y="0"
     inkscape:window-maximized="1"
     inkscape:current-layer="svg49" />
  <title
     id="title33">mainlogo</title>
  <g
     style="fill:#ffffff;fill-rule:nonzero;stroke:none;stroke-width:1"
     id="Taito_logo">
    <polygon
       id="path3027"
       points="57.253125,134.8245 57.253125,60.490125 92.34375,60.490125 92.34375,42.48075 0,42.48075 0,60.490125 35.090625,60.490125 35.090625,134.8245 "
       style="fill:#ffffff" />
    <polygon
       id="path3031"
       points="247.85483,134.8245 270.02201,134.8245 270.02201,60.490125 305.11264,60.490125 305.11264,42.48075 212.7642,42.48075 212.7642,60.490125 247.85483,60.490125 "
       style="fill:#ffffff" />
    <polygon
       id="path3033"
       points="205.75733,134.82638 205.75733,42.482625 183.59482,42.482625 183.59482,134.82638 "
       style="fill:#ffffff" />
    <path
       d="m 122.355,134.82525 v 0 h 60.03281 L 142.4175,61.28775 c -14.87344,20.521875 -22.63125,46.32656 -20.0625,73.5375"
       id="path3037"
       inkscape:connector-curvature="0"
       style="fill:#ffffff" />
    <path
       d="M 66.952012,134.82525 H 98.3442 c 3.39375,-32.30156 18.16875,-60.590625 39.88125,-81.248437 L 124.6692,28.629937 Z"
       id="path3041"
       inkscape:connector-curvature="0"
       style="fill:#ffffff" />
    <path
       d="m 194.67701,0 c -9.18281,0 -16.62656,7.44375 -16.62656,16.621875 0,9.178125 7.44375,16.621875 16.62656,16.621875 9.17813,0 16.62188,-7.44375 16.62188,-16.621875 C 211.29889,7.44375 203.85514,0 194.67701,0"
       id="path3045"
       inkscape:connector-curvature="0"
       style="fill:#ffffff" />
    <path
       d="m 170.04937,34.717125 -1.46718,-2.685937 C 157.4775,37.7265 147.25406,44.987437 138.22594,53.574937 l 4.19062,7.715625 c 7.52813,-10.378124 16.87969,-19.40625 27.63281,-26.573437"
       id="path3049"
       inkscape:connector-curvature="0"
       style="fill:#ffffff" />
    <path
       d="m 360.51562,120.447 c -17.64843,0 -31.94062,-12.70781 -31.94062,-31.926563 0,-19.21875 14.29219,-31.921875 31.94062,-31.921875 17.64844,0 31.94063,12.703125 31.94063,31.921875 0,19.218753 -14.29219,31.926563 -31.94063,31.926563 m 0,-80.925 c -31.75312,0 -55.40625,19.710937 -55.40625,48.998437 0,29.287503 23.65313,48.998433 55.40625,48.998433 31.75782,0 55.40625,-19.71093 55.40625,-48.998433 0,-29.2875 -23.64843,-48.998437 -55.40625,-48.998437"
       id="path3053"
       inkscape:connector-curvature="0"
       style="fill:#ffffff" />
    <path
       d="m 417.15371,23.035537 c -6.71718,0.0038 -12.16406,5.451563 -12.16406,12.16875 0,6.7125 5.44688,12.154688 12.16875,12.154688 6.71719,-0.0038 12.16406,-5.446875 12.15937,-12.159375 0,-6.717188 -5.44687,-12.164063 -12.16406,-12.164063 v -1.734376 c 7.67813,-0.0037 13.89844,6.215626 13.89844,13.898439 0.004,7.66875 -6.21563,13.898437 -13.89375,13.898437 -7.67813,0 -13.89844,-6.224999 -13.90313,-13.89375 0,-7.678124 6.22032,-13.903126 13.89844,-13.903126 z"
       id="path3019-1"
       inkscape:connector-curvature="0"
       style="fill:#ffffff" />
    <path
       d="m 414.04541,34.497787 -0.004,-3.932812 c 0,0 4.75781,-0.0038 5.775,-0.0038 1.21407,0 1.89844,1.073437 1.89375,1.992187 0.004,0.970313 -0.87656,1.940625 -1.9875,1.940625 -1.11562,0 -5.67656,0.0038 -5.67656,0.0038 v 2.325 l 3.39844,-0.0037 3.85312,5.414063 2.8875,0.0225 -3.88125,-5.578125 c 2.08594,0 3.82032,-2.039063 3.82032,-4.270313 0,-2.23125 -1.93126,-4.120312 -3.67969,-4.120312 h -8.97188 v 14.1187 h 2.57344 v -5.582813 -2.325 z"
       id="path3023-7"
       inkscape:connector-curvature="0"
       style="fill:#ffffff" />
  </g>
  <path
     d="m 9.816,165.304 c 1.312,0 2.588,-0.28 3.828,-0.84 1.24,-0.56 2.26,-1.312 3.06,-2.256 v 0 l -2.28,-2.256 c -0.592,0.688 -1.272,1.216 -2.04,1.584 -0.768,0.368 -1.592,0.552 -2.472,0.552 -0.784,0 -1.508,-0.14 -2.172,-0.42 -0.664,-0.28 -1.24,-0.66 -1.728,-1.14 -0.488,-0.48 -0.872,-1.052 -1.152,-1.716 -0.28,-0.664 -0.42,-1.38 -0.42,-2.148 0,-0.784 0.136,-1.508 0.408,-2.172 0.272,-0.664 0.648,-1.24 1.128,-1.728 0.48,-0.488 1.052,-0.872 1.716,-1.152 0.664,-0.28 1.372,-0.42 2.124,-0.42 0.896,0 1.744,0.196 2.544,0.588 0.8,0.392 1.496,0.956 2.088,1.692 v 0 l 2.352,-2.328 c -0.784,-0.96 -1.808,-1.724 -3.072,-2.292 C 12.464,148.284 11.16,148 9.816,148 c -1.248,0 -2.42,0.224 -3.516,0.672 -1.096,0.448 -2.044,1.056 -2.844,1.824 -0.8,0.768 -1.432,1.684 -1.896,2.748 -0.464,1.064 -0.696,2.204 -0.696,3.42 0,1.216 0.228,2.352 0.684,3.408 0.456,1.056 1.084,1.968 1.884,2.736 0.8,0.768 1.748,1.376 2.844,1.824 1.096,0.448 2.276,0.672 3.54,0.672 z m 45.48,0.024 c 1.248,0 2.416,-0.224 3.504,-0.672 1.088,-0.448 2.028,-1.06 2.82,-1.836 0.792,-0.776 1.42,-1.696 1.884,-2.76 0.464,-1.064 0.696,-2.196 0.696,-3.396 0,-1.2 -0.232,-2.332 -0.696,-3.396 -0.464,-1.064 -1.092,-1.984 -1.884,-2.76 -0.792,-0.776 -1.732,-1.388 -2.82,-1.836 C 57.712,148.224 56.544,148 55.296,148 c -1.232,0 -2.392,0.224 -3.48,0.672 -1.088,0.448 -2.028,1.06 -2.82,1.836 -0.792,0.776 -1.42,1.696 -1.884,2.76 -0.464,1.064 -0.696,2.196 -0.696,3.396 0,1.2 0.232,2.332 0.696,3.396 0.464,1.064 1.092,1.984 1.884,2.76 0.792,0.776 1.732,1.388 2.82,1.836 1.088,0.448 2.248,0.672 3.48,0.672 z m 0,-3.192 c -0.752,0 -1.452,-0.14 -2.1,-0.42 -0.648,-0.28 -1.208,-0.664 -1.68,-1.152 -0.472,-0.488 -0.844,-1.068 -1.116,-1.74 -0.272,-0.672 -0.408,-1.392 -0.408,-2.16 0,-0.784 0.136,-1.508 0.408,-2.172 0.272,-0.664 0.644,-1.24 1.116,-1.728 0.472,-0.488 1.032,-0.872 1.68,-1.152 0.648,-0.28 1.348,-0.42 2.1,-0.42 0.752,0 1.456,0.14 2.112,0.42 0.656,0.28 1.22,0.664 1.692,1.152 0.472,0.488 0.844,1.064 1.116,1.728 0.272,0.664 0.408,1.388 0.408,2.172 0,0.768 -0.136,1.488 -0.408,2.16 -0.272,0.672 -0.644,1.252 -1.116,1.74 -0.472,0.488 -1.036,0.872 -1.692,1.152 -0.656,0.28 -1.36,0.42 -2.112,0.42 z m 52.752,2.928 v -3.072 h -9.192 v -13.728 h -3.48 v 16.8 z m 43.872,0 v -3.072 h -9.192 v -13.728 h -3.48 v 16.8 z m 44.208,0 V 162.04 H 186.6 v -3.984 h 6.216 v -2.928 H 186.6 v -3.84 h 9.432 v -3.024 H 183.12 v 16.8 z m 38.592,0.24 c 1.312,0 2.588,-0.28 3.828,-0.84 1.24,-0.56 2.26,-1.312 3.06,-2.256 v 0 l -2.28,-2.256 c -0.592,0.688 -1.272,1.216 -2.04,1.584 -0.768,0.368 -1.592,0.552 -2.472,0.552 -0.784,0 -1.508,-0.14 -2.172,-0.42 -0.664,-0.28 -1.24,-0.66 -1.728,-1.14 -0.488,-0.48 -0.872,-1.052 -1.152,-1.716 -0.28,-0.664 -0.42,-1.38 -0.42,-2.148 0,-0.784 0.136,-1.508 0.408,-2.172 0.272,-0.664 0.648,-1.24 1.128,-1.728 0.48,-0.488 1.052,-0.872 1.716,-1.152 0.664,-0.28 1.372,-0.42 2.124,-0.42 0.896,0 1.744,0.196 2.544,0.588 0.8,0.392 1.496,0.956 2.088,1.692 v 0 l 2.352,-2.328 c -0.784,-0.96 -1.808,-1.724 -3.072,-2.292 -1.264,-0.568 -2.568,-0.852 -3.912,-0.852 -1.248,0 -2.42,0.224 -3.516,0.672 -1.096,0.448 -2.044,1.056 -2.844,1.824 -0.8,0.768 -1.432,1.684 -1.896,2.748 -0.464,1.064 -0.696,2.204 -0.696,3.42 0,1.216 0.228,2.352 0.684,3.408 0.456,1.056 1.084,1.968 1.884,2.736 0.8,0.768 1.748,1.376 2.844,1.824 1.096,0.448 2.276,0.672 3.54,0.672 z m 46.032,-0.24 v -13.728 h 5.64 v -3.072 h -14.784 v 3.072 h 5.664 v 13.728 z m 39.864,0 v -16.8 h -3.48 v 16.8 z m 40.08,0.264 c 1.248,0 2.416,-0.224 3.504,-0.672 1.088,-0.448 2.028,-1.06 2.82,-1.836 0.792,-0.776 1.42,-1.696 1.884,-2.76 0.464,-1.064 0.696,-2.196 0.696,-3.396 0,-1.2 -0.232,-2.332 -0.696,-3.396 -0.464,-1.064 -1.092,-1.984 -1.884,-2.76 -0.792,-0.776 -1.732,-1.388 -2.82,-1.836 -1.088,-0.448 -2.256,-0.672 -3.504,-0.672 -1.232,0 -2.392,0.224 -3.48,0.672 -1.088,0.448 -2.028,1.06 -2.82,1.836 -0.792,0.776 -1.42,1.696 -1.884,2.76 -0.464,1.064 -0.696,2.196 -0.696,3.396 0,1.2 0.232,2.332 0.696,3.396 0.464,1.064 1.092,1.984 1.884,2.76 0.792,0.776 1.732,1.388 2.82,1.836 1.088,0.448 2.248,0.672 3.48,0.672 z m 0,-3.192 c -0.752,0 -1.452,-0.14 -2.1,-0.42 -0.648,-0.28 -1.208,-0.664 -1.68,-1.152 -0.472,-0.488 -0.844,-1.068 -1.116,-1.74 -0.272,-0.672 -0.408,-1.392 -0.408,-2.16 0,-0.784 0.136,-1.508 0.408,-2.172 0.272,-0.664 0.644,-1.24 1.116,-1.728 0.472,-0.488 1.032,-0.872 1.68,-1.152 0.648,-0.28 1.348,-0.42 2.1,-0.42 0.752,0 1.456,0.14 2.112,0.42 0.656,0.28 1.22,0.664 1.692,1.152 0.472,0.488 0.844,1.064 1.116,1.728 0.272,0.664 0.408,1.388 0.408,2.172 0,0.768 -0.136,1.488 -0.408,2.16 -0.272,0.672 -0.644,1.252 -1.116,1.74 -0.472,0.488 -1.036,0.872 -1.692,1.152 -0.656,0.28 -1.36,0.42 -2.112,0.42 z m 43.368,2.928 v -11.232 l 8.568,11.232 h 3.072 v -16.8 h -3.264 v 10.872 l -8.352,-10.872 h -3.312 v 16.8 z"
     id="COLLECTION"
     inkscape:connector-curvature="0"
     style="fill:#ffffff;fill-rule:nonzero;stroke:none;stroke-width:1" />
</svg>
