<?xml version="1.0" encoding="UTF-8" standalone="no"?>
<!-- Created with Inkscape (http://www.inkscape.org/) -->

<svg
   xmlns:dc="http://purl.org/dc/elements/1.1/"
   xmlns:cc="http://creativecommons.org/ns#"
   xmlns:rdf="http://www.w3.org/1999/02/22-rdf-syntax-ns#"
   xmlns:svg="http://www.w3.org/2000/svg"
   xmlns="http://www.w3.org/2000/svg"
   xmlns:sodipodi="http://sodipodi.sourceforge.net/DTD/sodipodi-0.dtd"
   xmlns:inkscape="http://www.inkscape.org/namespaces/inkscape"
   width="500"
   height="200"
   viewBox="0 0 132.29166 52.916668"
   version="1.1"
   id="svg8"
   inkscape:version="0.92.5 (2060ec1f9f, 2020-04-08)"
   sodipodi:docname="tekken.svg">
  <defs
     id="defs2" />
  <sodipodi:namedview
     id="base"
     pagecolor="#ffffff"
     bordercolor="#666666"
     borderopacity="1.0"
     inkscape:pageopacity="0.0"
     inkscape:pageshadow="2"
     inkscape:zoom="1.0595553"
     inkscape:cx="377.44814"
     inkscape:cy="142.05088"
     inkscape:document-units="mm"
     inkscape:current-layer="layer1"
     showgrid="false"
     units="px"
     inkscape:pagecheckerboard="true"
     inkscape:window-width="1366"
     inkscape:window-height="743"
     inkscape:window-x="0"
     inkscape:window-y="0"
     inkscape:window-maximized="1" />
  <metadata
     id="metadata5">
    <rdf:RDF>
      <cc:Work
         rdf:about="">
        <dc:format>image/svg+xml</dc:format>
        <dc:type
           rdf:resource="http://purl.org/dc/dcmitype/StillImage" />
        <dc:title></dc:title>
      </cc:Work>
    </rdf:RDF>
  </metadata>
  <g
     inkscape:label="Layer 1"
     inkscape:groupmode="layer"
     id="layer1"
     transform="translate(0,-244.08332)">
    <path
       inkscape:connector-curvature="0"
       id="path77"
       d="m 9.3166569,278.37308 c 0.0076,-0.0327 2.1382901,-2.34114 4.7349011,-5.12997 2.596611,-2.78882 4.726906,-5.0949 4.733991,-5.12461 0.01081,-0.0453 -1.057494,-0.054 -6.624211,-0.054 H 5.5242454 l -2.6686075,-1.18125 c -1.4677339,-0.64968 -2.66860655,-1.1965 -2.66860655,-1.21514 0,-0.0187 6.42728305,-0.0338 14.28285265,-0.0338 11.399903,0 14.282783,0.0101 14.282511,0.0498 -1.99e-4,0.0274 -0.403868,0.58281 -0.897067,1.23427 l -0.896725,1.18447 -0.843887,0.0108 -0.843886,0.0108 -2.142247,2.50995 c -1.178236,1.38048 -2.142813,2.53452 -2.143504,2.56453 -10e-4,0.0457 0.21413,0.0498 1.323442,0.0254 0.728585,-0.016 1.336614,-0.0362 1.351177,-0.0448 0.01457,-0.009 1.4546,-1.70979 3.200084,-3.78036 l 3.173603,-3.76469 h 9.279985 c 6.050709,0 9.27998,0.0136 9.27998,0.0391 0,0.0375 -1.570801,2.09903 -1.707031,2.24034 -0.06125,0.0635 -0.540602,0.0726 -6.838773,0.12945 -3.725098,0.0336 -6.875098,0.0612 -6.999998,0.0612 l -0.227095,2e-5 -0.559673,0.68725 c -0.307817,0.37799 -0.559709,0.70669 -0.559752,0.73046 0,0.0409 6.864817,0.0962 11.938775,0.0962 1.392253,0 1.766304,0.0106 1.766304,0.0501 0,0.0276 -0.438829,0.60127 -0.975182,1.27489 l -0.975175,1.2248 h -7.01223 -7.012228 l -0.598241,0.7468 c -0.329034,0.41074 -0.598242,0.77156 -0.598242,0.80184 0,0.0467 1.032132,0.0505 6.832661,0.0253 5.785183,-0.0252 6.832658,-0.0214 6.832658,0.025 0,0.0302 -0.448378,0.61499 -0.996393,1.29967 l -0.996401,1.24489 -2.459771,-10e-6 c -7.003219,-4e-5 -16.145017,-0.055 -16.145017,-0.0971 0,-0.0243 0.268949,-0.38432 0.597665,-0.80017 0.399545,-0.50546 0.5781,-0.76032 0.538643,-0.76882 -0.03246,-0.007 -2.340753,0.82927 -5.129533,1.85838 l -5.07051,1.87112 -1.467972,0.0288 c -1.2901081,0.0253 -1.4663011,0.0216 -1.4541821,-0.0306 z M 111.56354,273.52259 c -1.39912,-2.43228 -2.5659,-4.44063 -2.59285,-4.46301 -0.0366,-0.0304 -0.50082,0.52673 -1.82681,2.19191 -1.84084,2.31173 -1.88813,2.37317 -1.85329,2.40801 0.0115,0.0115 1.16544,0.0479 2.56421,0.0808 1.39876,0.0329 2.55249,0.0691 2.56382,0.0804 0.0113,0.0113 0.012,0.0292 0.002,0.0397 -0.0105,0.0105 -1.67244,0.57527 -3.69315,1.25498 l -3.67401,1.23584 h -0.6695 c -0.36822,0 -1.47996,-0.0119 -2.47052,-0.0265 -1.482693,-0.0218 -1.79898,-0.036 -1.789407,-0.0803 0.0063,-0.0297 2.000007,-2.42923 4.430257,-5.33242 l 4.41865,-5.27854 2.49167,0.0103 2.49168,0.0103 1.38423,2.30707 c 0.76133,1.26889 1.40954,2.33239 1.44048,2.36332 0.0485,0.0485 0.33997,-0.27333 2.09927,-2.31703 l 2.04304,-2.37328 h 6.47202 c 5.15955,0 6.46879,0.0101 6.4561,0.0498 -0.009,0.0274 -0.75876,0.57311 -1.66666,1.21272 l -1.65074,1.1629 -3.01161,0.002 -3.01161,0.002 -3.98041,4.829 c -2.41685,2.93208 -4.04303,4.87218 -4.13978,4.93892 -0.0877,0.0605 -0.18712,0.1105 -0.22103,0.11123 -0.0405,7.8e-4 -0.93327,-1.51389 -2.60553,-4.42101 z m -68.68731,2.78862 c -0.701199,-0.0158 -1.433087,-0.0312 -1.62643,-0.0342 -0.289823,-0.005 -0.349269,-0.0159 -0.338644,-0.0652 0.0071,-0.0329 2.01892,-2.42628 4.470741,-5.31871 l 4.457855,-5.25896 h 2.362488 c 1.299377,0 2.371958,0.0153 2.383525,0.0341 0.01154,0.0187 -0.794152,1.01771 -1.790483,2.22 -0.996322,1.2023 -1.811496,2.20203 -1.811496,2.22163 0,0.0196 0.03141,0.0265 0.06973,0.0154 0.03832,-0.0111 2.337336,-1.02618 5.108867,-2.25564 l 5.039142,-2.23538 h 3.317418 c 1.82458,0 3.317418,0.0141 3.317418,0.0315 0,0.0424 0.415735,-0.1548 -7.031865,3.33524 -3.637443,1.70456 -6.63676,3.11734 -6.665148,3.13952 -0.02835,0.0222 -0.04405,0.0598 -0.03479,0.0837 0.0093,0.0239 0.637222,0.93924 1.395535,2.03415 0.758312,1.09491 1.364571,2.00492 1.347248,2.02224 -0.01736,0.0174 -1.077701,0.0269 -2.356394,0.0212 l -2.324905,-0.0103 -1.340211,-2.18194 c -0.737118,-1.20007 -1.367681,-2.20942 -1.401252,-2.24299 -0.05481,-0.0548 -0.241371,0.16329 -1.832189,2.1421 -1.564322,1.94588 -1.789564,2.20976 -1.928888,2.25981 -0.195197,0.0701 -1.014949,0.0827 -2.787229,0.0426 z m 16.752965,-0.01 c 0,-0.04 7.312202,-9.10928 8.351612,-10.35851 l 0.256912,-0.30877 h 2.349115 c 1.5222,0 2.349122,0.0139 2.349122,0.0394 0,0.0217 -0.752988,1.02649 -1.673311,2.23293 -0.920316,1.20643 -1.673304,2.21061 -1.673304,2.2315 0,0.0209 0.01343,0.0381 0.02984,0.0381 0.01641,4e-5 2.353496,-1.02188 5.193472,-2.27091 l 5.163596,-2.27097 h 3.400712 c 2.888538,0 3.391926,0.008 3.342375,0.0548 -0.03204,0.0301 -3.168891,1.47599 -6.970685,3.21296 -3.801788,1.73697 -6.937642,3.18148 -6.968574,3.20999 -0.04775,0.0441 -0.02599,0.0956 0.145017,0.34281 0.110678,0.16003 0.749533,1.0794 1.419667,2.04306 0.670125,0.96365 1.205473,1.76444 1.189642,1.77953 -0.01578,0.0151 -1.058202,0.0335 -2.316392,0.0408 l -2.287611,0.0133 -1.377717,-2.19881 c -0.757747,-1.20935 -1.399076,-2.20788 -1.425171,-2.21896 -0.02725,-0.0115 -0.817624,0.92589 -1.853925,2.19881 l -1.806471,2.21896 -2.418981,0.0103 c -1.930796,0.008 -2.418981,8e-5 -2.418981,-0.0402 z m 18.532904,-0.0506 c 0.0071,-0.0334 1.999845,-2.43583 4.428352,-5.33873 l 4.415449,-5.278 h 9.279742 c 7.622128,0 9.279758,0.009 9.279758,0.0522 0,0.0287 -0.36432,0.55309 -0.80959,1.16533 l -0.80958,1.11317 -2.00913,0.011 c -1.10503,0.006 -4.284562,0.024 -7.065627,0.0399 l -5.056489,0.0288 -0.590914,0.75616 c -0.325012,0.41588 -0.590923,0.77893 -0.590923,0.80677 0,0.0408 1.330137,0.0506 6.812741,0.0506 5.647412,0 6.812742,0.009 6.812742,0.0531 0,0.0292 -0.41754,0.58943 -0.92787,1.24502 l -0.92787,1.19194 -6.979911,0.01 -6.979904,0.01 -0.577823,0.72698 c -0.317803,0.39984 -0.578028,0.74939 -0.578272,0.77678 -3.92e-4,0.0397 1.384439,0.0498 6.792379,0.0498 5.523219,0 6.792821,0.01 6.792821,0.0514 0,0.0283 -0.435644,0.60648 -0.968086,1.28486 l -0.9681,1.23342 -9.393403,0.01 c -8.398541,0.009 -9.392028,0.004 -9.380492,-0.0507 z"
       style="fill:#ffffff;stroke-width:0.03984059" />
  </g>
</svg>
