<?xml version="1.0" encoding="UTF-8" standalone="no"?>
<!-- Created with Inkscape (http://www.inkscape.org/) -->

<svg
   xmlns:dc="http://purl.org/dc/elements/1.1/"
   xmlns:cc="http://creativecommons.org/ns#"
   xmlns:rdf="http://www.w3.org/1999/02/22-rdf-syntax-ns#"
   xmlns:svg="http://www.w3.org/2000/svg"
   xmlns="http://www.w3.org/2000/svg"
   xmlns:sodipodi="http://sodipodi.sourceforge.net/DTD/sodipodi-0.dtd"
   xmlns:inkscape="http://www.inkscape.org/namespaces/inkscape"
   width="500"
   height="200"
   viewBox="0 0 132.29166 52.916668"
   version="1.1"
   id="svg8"
   inkscape:version="0.92.5 (2060ec1f9f, 2020-04-08)"
   sodipodi:docname="tg16cd_.svg">
  <defs
     id="defs2" />
  <sodipodi:namedview
     id="base"
     pagecolor="#ffffff"
     bordercolor="#666666"
     borderopacity="1.0"
     inkscape:pageopacity="0.0"
     inkscape:pageshadow="2"
     inkscape:zoom="1.53125"
     inkscape:cx="282.82073"
     inkscape:cy="84.76678"
     inkscape:document-units="mm"
     inkscape:current-layer="layer1"
     showgrid="false"
     units="px"
     inkscape:pagecheckerboard="true"
     inkscape:window-width="1366"
     inkscape:window-height="740"
     inkscape:window-x="0"
     inkscape:window-y="0"
     inkscape:window-maximized="1" />
  <metadata
     id="metadata5">
    <rdf:RDF>
      <cc:Work
         rdf:about="">
        <dc:format>image/svg+xml</dc:format>
        <dc:type
           rdf:resource="http://purl.org/dc/dcmitype/StillImage" />
        <dc:title></dc:title>
      </cc:Work>
    </rdf:RDF>
  </metadata>
  <g
     inkscape:label="Layer 1"
     inkscape:groupmode="layer"
     id="layer1"
     transform="translate(0,-244.08332)">
    <g
       id="g1201"
       transform="matrix(1.0483925,0,0,1.0483925,-3.9206976,-13.109018)"
       style="fill:#ffffff">
      <path
         style="fill:#ffffff;stroke-width:0.25967473"
         d="m 114.00312,280.15778 c -3.99689,-1.68413 -6.07897,-4.99174 -5.88193,-9.34407 0.119,-2.62847 0.93618,-4.54915 2.67549,-6.28846 4.48841,-4.48841 12.19183,-3.39715 15.13759,2.14439 2.57059,4.83576 0.87933,10.51055 -3.89506,13.06931 -1.46414,0.78468 -1.87567,0.88079 -4.09464,0.95625 -2.13447,0.0726 -2.66563,1.6e-4 -3.94145,-0.53742 z m 2.07179,-5.16081 c 0.17138,-0.17138 0.31161,-0.6388 0.31161,-1.0387 0,-0.55397 -0.12366,-0.72708 -0.51935,-0.72708 -0.34623,0 -0.51935,0.17311 -0.51935,0.51935 0,0.45639 -0.17312,0.51934 -1.42821,0.51934 h -1.42821 v -2.98625 -2.98626 h 1.42821 c 1.25509,0 1.42821,0.063 1.42821,0.51935 0,0.34623 0.17312,0.51934 0.51935,0.51934 0.60904,0 0.71586,-0.93036 0.18947,-1.65025 -0.27473,-0.3757 -0.67635,-0.43828 -2.40199,-0.37422 l -2.07211,0.0769 -0.0726,3.62295 c -0.0399,1.99261 -0.0144,3.77463 0.0568,3.96004 0.17167,0.44737 4.0643,0.46938 4.50819,0.0255 z m 7.53056,0 c 0.43264,-0.43263 0.43264,-6.99406 0,-7.42669 -0.20389,-0.2039 -1.28106,-0.31161 -3.11609,-0.31161 -2.63137,0 -2.80449,0.0321 -2.80449,0.51935 0,0.28852 0.17312,0.51935 0.38951,0.51935 0.32366,0 0.38952,0.50492 0.38952,2.98626 0,2.48133 -0.0659,2.98625 -0.38952,2.98625 -0.21639,0 -0.38951,0.23083 -0.38951,0.51935 0,0.48729 0.17312,0.51935 2.80449,0.51935 1.83503,0 2.9122,-0.10771 3.11609,-0.31161 z m -3.99113,-1.07016 c -0.0724,-0.18869 -0.098,-1.5033 -0.0568,-2.92134 l 0.0749,-2.57827 1.49313,-0.0779 1.49313,-0.0779 v 2.99922 2.99921 h -1.43636 c -0.95081,0 -1.48086,-0.11597 -1.56801,-0.34307 z M 7.5828097,270.37476 v -9.86764 H 6.658273 c -0.909565,0 -0.923232,-0.0158 -0.8439429,-0.97378 l 0.080594,-0.97378 2.7915032,-0.0737 2.7915037,-0.0737 v 1.04748 c 0,0.99076 -0.04219,1.04748 -0.779025,1.04748 H 9.9198822 v 9.86764 9.86764 H 8.751346 7.5828097 Z m 8.2734403,9.37142 -0.613036,-0.49622 v -8.52747 -8.52748 l 0.97378,-0.0806 0.97378,-0.0806 v 8.06559 8.0656 h 1.038699 1.038699 v -8.0656 -8.06559 l 0.97378,0.0806 0.973781,0.0806 v 8.52753 8.52752 l -0.613036,0.49617 c -0.872222,0.70595 -3.87429,0.70592 -4.746447,-5e-5 z m 9.90379,-8.62416 v -9.12037 l 2.374024,0.1135 c 2.217973,0.10604 2.415549,0.16178 3.005691,0.84786 0.612022,0.71152 0.629041,0.84293 0.547316,4.226 -0.08251,3.4157 -0.09944,3.50462 -0.77819,4.08784 l -0.693841,0.59619 0.888316,4.11976 c 0.488576,2.26587 0.888444,4.14898 0.888597,4.18468 1.53e-4,0.0357 -0.437921,0.0648 -0.9735,0.0648 l -0.97378,-1.7e-4 -0.92385,-4.07306 c -0.508116,-2.24018 -1.063171,-4.1195 -1.233455,-4.17627 -0.231135,-0.077 -0.309605,0.95533 -0.309605,4.07324 v 4.17643 H 26.668902 25.76004 Z m 3.895121,-4.12303 v -2.85642 h -0.908862 -0.908861 v 2.85642 2.85642 h 0.908861 0.908862 z m 6.813096,4.21972 0.06828,-9.0237 h 2.425432 c 3.346124,0 3.417249,0.0941 3.417249,4.52114 0,2.2539 -0.100509,3.39558 -0.318091,3.61316 -0.251004,0.25101 -0.251004,0.42551 0,0.82744 0.212998,0.34106 0.318091,1.75451 0.318091,4.27815 0,4.83404 0.01937,4.8075 -3.508974,4.8075 h -2.470275 z m 3.833567,3.96004 v -3.24594 h -0.908861 -0.908862 v 3.24594 3.24593 h 0.908862 0.908861 z m 0,-8.17976 v -2.85642 h -0.908861 -0.908862 v 2.85642 2.85642 h 0.908862 0.908861 z m 7.277499,12.73067 c -0.28201,-0.28201 -0.579496,-0.7787 -0.66108,-1.10375 -0.08158,-0.32506 -0.113769,-3.889 -0.07152,-7.91987 0.07582,-7.23428 0.08445,-7.3365 0.668955,-7.91995 0.504603,-0.50369 0.863248,-0.59084 2.425882,-0.58944 1.692728,0.002 1.882649,0.0585 2.469839,0.74115 l 0.636104,0.73951 -0.07573,7.78644 -0.07573,7.78644 -0.613035,0.49611 c -0.892073,0.72192 -3.976045,0.71101 -4.70369,-0.0166 z m 3.369165,-8.57587 v -7.01122 h -0.908862 -0.908861 v 7.01122 7.01122 h 0.908861 0.908862 z m 7.648602,8.45123 -0.637385,-0.63738 v -9.47545 c 0,-9.46111 7.79e-4,-9.47644 0.584269,-10.12402 0.474181,-0.52636 0.853369,-0.65747 2.012479,-0.69588 2.094544,-0.0694 2.286628,-0.0333 2.856422,0.53646 0.432792,0.43279 0.519349,0.86558 0.519349,2.59675 v 2.0774 h -1.038699 -1.038699 v -1.68789 -1.68789 h -0.908861 -0.908862 v 8.95878 8.95878 h 0.887223 c 0.48797,0 0.926171,-0.11517 0.97378,-0.25594 0.04761,-0.14077 0.05163,-2.06885 0.0089,-4.28463 -0.0638,-3.31195 -0.144649,-4.0287 -0.454423,-4.0287 -0.257527,0 -0.376814,-0.28771 -0.376814,-0.90886 v -0.90886 h 1.428211 1.428211 v 6.10236 6.10235 h -2.348875 c -2.147637,0 -2.403484,-0.0546 -2.986259,-0.63738 z m 10.268954,-8.47788 v -9.11526 l 2.15416,0.0916 c 1.501805,0.0638 2.366828,0.231 2.856422,0.55199 l 0.702261,0.46041 v 3.7711 c 0,3.70146 -0.01231,3.7834 -0.665857,4.43696 l -0.665856,0.66586 0.809032,3.80173 c 0.444969,2.09095 0.857792,3.94779 0.917382,4.12632 0.07421,0.22233 -0.207462,0.32459 -0.89405,0.32459 -0.826861,0 -1.025769,-0.10231 -1.135864,-0.58427 -1.348737,-5.90426 -1.82551,-7.72532 -2.022578,-7.72532 -0.133433,0 -0.237329,1.81885 -0.237329,4.1548 v 4.15479 h -0.908862 -0.908861 z m 3.635446,-4.12815 v -2.85642 h -0.908862 -0.908861 v 2.85642 2.85642 h 0.908861 0.908862 z m 6.751542,4.86176 c 0,-10.14292 -0.190094,-9.5359 2.98626,-9.5359 3.176354,0 2.986259,-0.60702 2.986259,9.5359 v 8.38165 h -1.038699 -1.038699 v -4.28463 -4.28463 H 82.239292 81.33043 v 4.28463 4.28463 h -1.038699 -1.038699 z m 3.895121,-4.86176 v -2.85642 H 82.239292 81.33043 v 2.85642 2.85642 h 0.908862 0.908861 z m 6.232194,4.86176 c 0,-10.05458 -0.149106,-9.5359 2.741308,-9.5359 h 1.932836 v 0.77902 c 0,0.76171 -0.02885,0.77903 -1.298373,0.77903 h -1.298374 v 2.98626 2.98625 h 1.038699 c 1.013968,0 1.038699,0.0216 1.038699,0.90887 0,0.88722 -0.02472,0.90886 -1.038699,0.90886 h -1.038699 v 4.28463 4.28463 h -1.038699 -1.038698 z m 9.088615,5.2222 c 0,-3.12026 0.01122,-3.17987 0.905132,-4.80614 l 0.905136,-1.64669 -0.840217,-1.36113 c -0.788266,-1.27698 -0.845649,-1.53373 -0.928109,-4.15264 l -0.08789,-2.7915 h 1.061673 1.061673 v 2.53897 c 0,1.93773 0.10132,2.68362 0.42787,3.14983 l 0.42786,0.61086 0.47522,-0.618 c 0.38463,-0.50019 0.47633,-1.10066 0.481,-3.14983 l 0.006,-2.53183 h 1.0387 1.0387 v 2.44804 c 0,2.28243 -0.0602,2.5635 -0.88962,4.15479 l -0.88962,1.70676 0.88962,1.70675 c 0.86792,1.66513 0.88962,1.7823 0.88962,4.80398 v 3.09723 h -1.0387 -1.0387 v -3.12523 c 0,-2.48634 -0.089,-3.261 -0.43515,-3.78936 l -0.43515,-0.66413 -0.46794,0.60835 c -0.39136,0.50879 -0.46888,1.12889 -0.47371,3.78936 l -0.006,3.18101 h -1.038697 -1.038699 z"
         id="path1211"
         inkscape:connector-curvature="0" />
      <path
         style="fill:#ffffff;stroke-width:0.25967473"
         d="m 115.08814,280.53319 c -2.63291,-0.86586 -4.90808,-2.79863 -6.15015,-5.22461 -0.65791,-1.285 -0.73122,-1.68858 -0.73117,-4.02495 4e-5,-2.30888 0.0794,-2.7583 0.71598,-4.05399 0.85481,-1.73993 3.08007,-3.92935 4.80185,-4.72455 1.00972,-0.46633 1.70504,-0.56975 3.8304,-0.56975 2.32244,0 2.75419,0.0773 4.08714,0.73186 1.89885,0.93244 3.59685,2.63044 4.52929,4.52929 0.65455,1.33295 0.73186,1.7647 0.73186,4.08714 0,2.32243 -0.0773,2.75418 -0.73186,4.08713 -0.93005,1.89398 -2.6308,3.59776 -4.5083,4.51634 -1.19755,0.5859 -1.88163,0.73192 -3.69762,0.78924 -1.22553,0.0387 -2.52036,-0.0257 -2.87742,-0.14315 z m 0.98677,-5.53622 c 0.17138,-0.17138 0.31161,-0.6388 0.31161,-1.0387 0,-0.53896 -0.12654,-0.72708 -0.48907,-0.72708 -0.27526,0 -0.55015,0.23361 -0.62881,0.5344 -0.12071,0.46158 -0.31063,0.52351 -1.39358,0.45444 l -1.25383,-0.08 -0.0737,-2.79151 -0.0737,-2.7915 h 1.43699 c 1.10421,0 1.437,0.0902 1.437,0.38951 0,0.2164 0.23082,0.38951 0.51935,0.38951 0.39569,0 0.51935,-0.17311 0.51935,-0.72708 0,-0.3999 -0.14023,-0.86732 -0.31161,-1.0387 -0.41633,-0.41633 -4.15395,-0.41633 -4.57028,0 -0.43263,0.43263 -0.43263,6.99406 0,7.42669 0.1877,0.1877 1.09641,0.31161 2.28514,0.31161 1.18873,0 2.09744,-0.12391 2.28514,-0.31161 z m 7.53056,0 c 0.43264,-0.43263 0.43264,-6.99406 0,-7.42669 -0.20389,-0.2039 -1.28106,-0.31161 -3.11609,-0.31161 -2.64581,0 -2.80449,0.0298 -2.80449,0.5275 0,0.29012 0.17528,0.59476 0.38951,0.67697 0.31177,0.11963 0.38952,0.68979 0.38952,2.85642 0,2.16663 -0.0777,2.73678 -0.38952,2.85642 -0.21423,0.0822 -0.38951,0.37067 -0.38951,0.64104 0,0.45196 0.22595,0.49156 2.80449,0.49156 1.83503,0 2.9122,-0.10771 3.11609,-0.31161 z m -3.84318,-3.58351 v -2.85642 h 1.42821 1.42821 v 2.85642 2.85642 h -1.42821 -1.42821 z M 7.8424845,270.37476 v -9.86764 H 6.8037856 c -1.013968,0 -1.0386989,-0.0216 -1.0386989,-0.90886 v -0.90886 h 2.8564219 2.8564224 v 0.90886 c 0,0.86559 -0.04328,0.90886 -0.908862,0.90886 H 9.6602075 v 9.86764 9.86764 H 8.751346 7.8424845 Z m 8.0499165,9.34829 c -0.498043,-0.49804 -0.51935,-0.86558 -0.51935,-8.95877 v -8.43943 h 0.908862 0.908861 v 8.04991 8.04992 h 1.038699 1.038699 v -8.04992 -8.04991 h 0.908862 0.908861 v 8.43943 c 0,9.99857 0.156848,9.47812 -2.856422,9.47812 -1.47149,0 -1.916646,-0.0989 -2.337072,-0.51935 z m 9.867639,-8.43942 v -8.95878 h 2.279292 c 3.476931,0 3.433552,-0.059 3.433552,4.67002 0,3.81502 -0.0079,3.86773 -0.65256,4.37485 l -0.65256,0.51331 0.790016,3.72525 c 0.434511,2.0489 0.855325,3.93742 0.935143,4.19673 0.12526,0.40694 0.01015,0.46026 -0.840969,0.38951 l -0.986094,-0.082 -0.919456,-4.00358 c -1.24016,-5.40002 -1.568641,-5.40903 -1.568641,-0.043 v 4.17643 H 26.668902 25.76004 Z m 3.895121,-4.28464 v -2.85642 h -0.908862 -0.908861 v 2.85642 2.85642 h 0.908861 0.908862 z m 7.011217,10.16928 c 0,-1.69077 -0.07707,-5.72222 -0.17126,-8.95878 l -0.171258,-5.88464 h 2.50833 c 3.506045,0 3.547032,0.0488 3.547032,4.22685 0,2.31252 -0.09985,3.33072 -0.363568,3.70722 -0.311638,0.44493 -0.311638,0.59008 0,1.01627 0.271002,0.37062 0.363568,1.43078 0.363568,4.1639 0,4.74868 -0.03851,4.80331 -3.385888,4.80331 h -2.326956 z m 3.895121,-1.98952 v -3.24594 H 39.5228 38.484101 v 3.24594 3.24593 h 1.038699 1.038699 z m 0,-8.17976 v -2.85642 H 39.5228 38.484101 v 2.85642 2.85642 h 1.038699 1.038699 z m 7.056482,12.64241 c -0.553959,-0.58966 -0.564614,-0.74893 -0.564614,-8.43943 0,-9.29066 -0.130372,-8.87712 2.798642,-8.87712 3.094577,0 2.914202,-0.54458 2.914202,8.7984 v 7.98992 l -0.601004,0.56462 c -0.49003,0.46036 -0.913211,0.56461 -2.291809,0.56461 -1.431625,0 -1.777351,-0.0921 -2.255417,-0.601 z m 3.330507,-8.48761 v -7.01122 h -0.908862 -0.908861 v 7.01122 7.01122 h 0.908861 0.908862 z m 7.75409,8.59221 -0.613035,-0.49641 v -9.78369 -9.78369 l 0.613035,-0.4964 c 0.467565,-0.37861 1.026805,-0.49641 2.356727,-0.49641 1.486908,0 1.826838,0.0885 2.308306,0.60101 0.478593,0.50944 0.564613,0.90506 0.564613,2.59674 v 1.99575 h -0.878576 c -0.992123,0 -1.18918,-0.3746 -1.195277,-2.27216 -0.0035,-1.08748 -0.01683,-1.10362 -0.912406,-1.10362 h -0.908862 v 8.95878 8.95878 h 1.038699 1.038699 v -4.28463 c 0,-4.11152 -0.02098,-4.28464 -0.51935,-4.28464 -0.420426,0 -0.519349,-0.17311 -0.519349,-0.90886 v -0.90886 h 1.428211 1.428211 v 6.10236 6.10235 h -2.308306 c -1.885835,0 -2.420503,-0.0908 -2.92134,-0.4964 z m 10.163466,-8.46237 v -8.95878 h 2.337072 c 3.357758,0 3.375771,0.0247 3.375771,4.63873 0,3.55442 -0.0088,3.60882 -0.692936,4.29297 l -0.692937,0.69294 0.822774,3.83347 c 0.452525,2.10841 0.822774,3.97432 0.822774,4.14646 0,0.18113 -0.361937,0.31298 -0.859128,0.31298 h -0.859132 l -0.736377,-3.30579 c -1.448406,-6.50227 -1.700158,-6.62798 -1.700158,-0.849 v 4.15479 h -0.908862 -0.908861 z m 3.89512,-4.28464 v -2.85642 h -1.038698 -1.038699 v 2.85642 2.85642 h 1.038699 1.038698 z m 6.491868,5.04659 c 0,-8.09896 0.08238,-8.98754 0.882817,-9.522 0.564883,-0.37718 3.990052,-0.22259 4.411767,0.19913 0.638244,0.63824 0.702638,1.64346 0.623279,9.72945 l -0.07518,7.66041 -0.843943,0.0814 -0.843943,0.0814 v -4.30109 -4.30108 h -1.168536 -1.168537 v 4.28463 4.28463 h -0.908861 -0.908862 z m 3.895121,-5.04659 v -2.85642 H 82.239292 81.33043 v 2.85642 2.85642 h 0.908862 0.908861 z m 6.405311,13.0703 c -0.296497,-0.2965 -0.200461,-15.82099 0.102803,-16.61864 0.382264,-1.00542 0.646057,-1.11729 2.64542,-1.12183 l 1.752804,-0.004 v 0.77902 c 0,0.76171 -0.02885,0.77903 -1.298373,0.77903 h -1.298374 v 2.98626 2.98625 h 1.038699 c 1.013968,0 1.038699,0.0216 1.038699,0.90887 0,0.88722 -0.02472,0.90886 -1.038699,0.90886 h -1.038699 v 4.28463 4.28463 h -0.865581 c -0.476072,0 -0.943487,-0.0779 -1.038699,-0.17311 z m 8.915498,-2.98295 c 0,-3.12676 0.0085,-3.17121 0.912684,-4.78809 l 0.912684,-1.63203 -0.912684,-1.66042 c -0.866345,-1.57612 -0.912684,-1.78788 -0.912684,-4.17069 v -2.51026 h 0.908861 0.908857 v 2.36192 c 0,1.76524 0.11255,2.55245 0.44551,3.1161 0.53511,0.90588 0.70046,0.92972 1.22766,0.17704 0.29895,-0.42681 0.40423,-1.23841 0.40423,-3.11609 v -2.53897 h 1.0689 1.0689 l -0.11138,2.53183 c -0.0977,2.2197 -0.21476,2.73365 -0.94995,4.16894 l -0.83856,1.63712 0.91975,1.83846 c 0.89142,1.78185 0.91974,1.92934 0.91974,4.78983 v 2.95137 h -0.90886 -0.90886 l -0.001,-2.92134 c -7.8e-4,-2.51622 -0.0771,-3.04629 -0.55023,-3.82234 l -0.54926,-0.901 -0.61702,0.77116 c -0.5706,0.71316 -0.61711,1.00068 -0.6183,3.82234 l -10e-4,3.05118 h -0.908857 -0.908861 z"
         id="path1209"
         inkscape:connector-curvature="0" />
      <path
         style="fill:#ffffff;stroke-width:0.25967473"
         d="m 114.90275,280.40039 c -2.6964,-0.88055 -4.81421,-2.75668 -6.00566,-5.32032 -0.57088,-1.22835 -0.6792,-1.83005 -0.68428,-3.80103 -0.005,-2.12338 0.0726,-2.50152 0.83788,-4.05679 1.00045,-2.03325 2.62952,-3.62847 4.6936,-4.59607 1.25361,-0.58767 1.82272,-0.69084 3.81076,-0.69084 2.01541,0 2.55152,0.10005 3.89512,0.72696 2.02817,0.94631 3.80226,2.71201 4.71988,4.69754 0.63276,1.36917 0.73329,1.90713 0.73329,3.92379 0,2.02709 -0.0992,2.55179 -0.74773,3.95596 -0.90811,1.96609 -2.71245,3.73428 -4.77351,4.67787 -1.78511,0.81725 -4.77355,1.03999 -6.47935,0.48293 z m 1.17216,-5.40342 c 0.17138,-0.17138 0.31161,-0.6388 0.31161,-1.0387 0,-0.55397 -0.12366,-0.72708 -0.51935,-0.72708 -0.28853,0 -0.51935,0.17311 -0.51935,0.38951 0,0.29902 -0.33181,0.38951 -1.42821,0.38951 h -1.42821 v -2.72658 -2.72659 h 1.42821 c 1.0964,0 1.42821,0.0905 1.42821,0.38951 0,0.2164 0.23082,0.38951 0.51935,0.38951 0.39569,0 0.51935,-0.17311 0.51935,-0.72708 0,-0.3999 -0.14023,-0.86732 -0.31161,-1.0387 -0.41633,-0.41633 -4.15395,-0.41633 -4.57028,0 -0.43263,0.43263 -0.43263,6.99406 0,7.42669 0.1877,0.1877 1.09641,0.31161 2.28514,0.31161 1.18873,0 2.09744,-0.12391 2.28514,-0.31161 z m 7.78477,-3.418 c 0.049,-2.43303 -0.0245,-3.71655 -0.22655,-3.96004 -0.22144,-0.26683 -1.03156,-0.36026 -3.12361,-0.36026 h -2.82463 v 0.64918 c 0,0.40394 0.14715,0.64919 0.38951,0.64919 0.32151,0 0.38952,0.47607 0.38952,2.72659 0,2.25051 -0.068,2.72658 -0.38952,2.72658 -0.24366,0 -0.38951,0.24616 -0.38951,0.65743 v 0.65743 l 3.05118,-0.0732 3.05118,-0.0732 z m -4.09739,-0.29534 v -2.72659 h 1.42821 1.42821 v 2.72659 2.72658 h -1.42821 -1.42821 z M 7.8424845,270.39044 v -9.85196 l -0.9737802,-0.0806 c -0.889017,-0.0736 -0.9808631,-0.15405 -1.0551514,-0.92454 l -0.081371,-0.84394 h 2.8728746 2.8728745 v 0.90886 c 0,0.86559 -0.04328,0.90886 -0.908862,0.90886 H 9.6602075 v 9.86764 9.86764 H 8.751346 7.8424845 Z m 8.2147735,9.31377 -0.684207,-0.5382 v -8.42058 -8.42058 h 0.908862 0.908861 v 8.04991 8.04992 h 1.038699 1.038699 v -8.04992 -8.04991 h 0.908862 0.908861 v 8.42058 8.42058 l -0.684206,0.5382 c -0.511395,0.40226 -1.060035,0.53819 -2.172216,0.53819 -1.112181,0 -1.66082,-0.13593 -2.172215,-0.53819 z m 9.702782,-8.42058 v -8.95878 h 2.337073 c 3.3628,0 3.375771,0.018 3.375771,4.68654 0,3.59414 -0.0099,3.65705 -0.674606,4.27305 l -0.674609,0.62521 0.804446,3.79226 c 0.442444,2.08575 0.804444,3.96062 0.804444,4.16638 0,0.56523 -1.489585,0.49278 -1.651215,-0.0803 -0.07049,-0.24993 -0.508456,-2.11959 -0.973255,-4.15479 -1.170069,-5.12331 -1.530326,-5.01633 -1.530326,0.45443 v 4.15479 H 26.668902 25.76004 Z m 3.895121,-4.28464 v -2.85642 h -1.038699 -1.038699 v 2.85642 2.85642 h 1.038699 1.038699 z m 7.011217,4.28464 v -8.95878 h 2.318226 c 2.195124,0 2.346805,0.0363 2.856422,0.6842 0.471805,0.59981 0.537724,1.04026 0.534369,3.57053 -0.0023,1.82724 -0.125828,3.12453 -0.336316,3.53551 -0.270479,0.52812 -0.270064,0.77025 0.0023,1.29837 0.223554,0.43359 0.335245,1.79578 0.336315,4.10168 0.0016,3.32041 -0.02277,3.47688 -0.635785,4.08988 -0.577387,0.57728 -0.846748,0.63738 -2.856531,0.63738 H 36.66634 Z m 3.837962,3.8302 -0.07268,-3.31086 -0.97378,-0.0806 -0.973781,-0.0806 v 3.39144 3.39145 h 1.046458 1.046456 z m 0.05716,-8.11484 v -2.85642 h -1.0387 -1.038699 v 2.85642 2.85642 h 1.038699 1.038699 z m 7.176075,12.70522 -0.684207,-0.5382 v -7.89112 c 0,-7.78334 0.0078,-7.89834 0.568314,-8.42058 0.819809,-0.76376 3.756408,-0.76376 4.576216,0 0.560552,0.52224 0.568314,0.63724 0.568314,8.42058 v 7.89112 l -0.684207,0.5382 c -0.511395,0.40226 -1.060033,0.53819 -2.172215,0.53819 -1.112182,0 -1.66082,-0.13593 -2.172215,-0.53819 z m 3.210914,-8.42058 v -7.14106 h -1.0387 -1.038699 v 6.96794 c 0,3.83236 0.0779,7.04584 0.173118,7.14105 0.09521,0.0952 0.562626,0.17312 1.038698,0.17312 h 0.865582 z m 8.569266,8.77455 c -0.214232,-0.0788 -0.594006,-0.32136 -0.843943,-0.53909 -0.417596,-0.36379 -0.454431,-1.18111 -0.454431,-10.08332 0,-9.63125 0.0033,-9.69051 0.568314,-10.2169 0.448359,-0.41771 0.916737,-0.52947 2.21904,-0.52947 1.406388,0 1.745068,0.0944 2.288105,0.63739 0.556107,0.5561 0.637385,0.87068 0.637385,2.4669 v 1.82953 h -0.908862 -0.908861 v -1.55805 -1.55805 h -1.168536 -1.168537 v 8.95878 8.95878 h 1.168537 1.168536 v -4.41447 c 0,-4.24135 -0.02036,-4.41447 -0.51935,-4.41447 -0.403939,0 -0.519349,-0.17312 -0.519349,-0.77902 0,-0.77116 0.01444,-0.77903 1.428211,-0.77903 h 1.428211 v 6.10236 6.10235 l -2.012479,-0.0205 c -1.106864,-0.0113 -2.18776,-0.0849 -2.401991,-0.16372 z m 9.34829,-8.7581 v -8.97523 h 2.219037 c 2.028093,0 2.275605,0.0566 2.876391,0.65735 0.64841,0.64841 0.656195,0.70527 0.572466,4.18 -0.08353,3.4664 -0.09603,3.53157 -0.782751,4.08171 l -0.697863,0.55906 0.883886,4.02496 c 0.48614,2.21373 0.887818,4.1126 0.892622,4.21972 0.0048,0.10711 -0.339605,0.19475 -0.765347,0.19475 -0.879363,0 -0.713591,0.41938 -1.942609,-4.91457 -0.441818,-1.91751 -0.943198,-3.533 -1.114181,-3.59 -0.231035,-0.077 -0.329226,0.98511 -0.382321,4.13556 l -0.07144,4.23918 -0.843943,0.0814 -0.843942,0.0814 z m 3.89512,-4.43092 v -2.98626 h -1.038698 -1.038699 v 2.98626 2.98625 h 1.038699 1.038698 z m 6.751543,4.8187 c 0,-8.54565 5.2e-4,-8.55496 0.57713,-8.95878 0.777585,-0.54464 3.521324,-0.54464 4.29891,0 0.576529,0.40382 0.577129,0.41313 0.577129,8.95878 v 8.55454 h -0.779024 -0.779024 v -4.28463 -4.28463 h -1.168536 -1.168537 v 4.28463 4.28463 h -0.779024 -0.779024 z m 3.895121,-4.68887 v -2.85642 h -1.168536 -1.168537 v 2.85642 2.85642 h 1.168537 1.168536 z m 6.232193,4.68887 c 0,-8.54565 5.2e-4,-8.55496 0.57713,-8.95878 0.37355,-0.26164 1.152135,-0.40423 2.207235,-0.40423 h 1.630105 v 0.77902 c 0,0.77116 -0.01444,0.77903 -1.42821,0.77903 H 91.19807 v 2.98626 2.98625 h 1.168536 c 1.162353,0 1.168536,0.005 1.168536,0.90887 0,0.90405 -0.0062,0.90886 -1.168536,0.90886 H 91.19807 v 4.28463 4.28463 h -0.779025 -0.779024 z m 8.828941,5.59496 c 0,-2.89425 0.02085,-3.00014 0.944938,-4.79654 l 0.944939,-1.83696 -0.944939,-1.79822 c -0.885919,-1.6859 -0.944938,-1.94587 -0.944938,-4.16223 v -2.36402 h 0.908861 0.908856 v 2.49174 c 0,2.13501 0.0801,2.60422 0.55943,3.27739 l 0.55943,0.78564 0.4735,-0.61572 c 0.3863,-0.50234 0.47456,-1.10586 0.47927,-3.27739 l 0.006,-2.66166 h 0.90886 0.90887 v 2.57479 c 0,2.41837 -0.0526,2.67397 -0.86548,4.20733 l -0.86547,1.63255 0.80055,1.28645 c 0.77421,1.24411 0.80336,1.40048 0.8856,4.75144 l 0.085,3.46499 h -0.79914 -0.79914 v -3.02052 c 0,-2.60676 -0.074,-3.14034 -0.54053,-3.89513 -0.29729,-0.48102 -0.5799,-0.87459 -0.62801,-0.87459 -0.0481,0 -0.33072,0.39357 -0.62801,0.87459 -0.46648,0.75479 -0.54053,1.28837 -0.54053,3.89513 v 3.02052 h -0.908856 -0.908861 z"
         id="path1207"
         inkscape:connector-curvature="0" />
      <path
         style="fill:#ffffff;stroke-width:0.25967473"
         d="m 114.90275,280.40039 c -2.6964,-0.88055 -4.81421,-2.75668 -6.00566,-5.32032 -0.57088,-1.22835 -0.6792,-1.83005 -0.68428,-3.80103 -0.005,-2.12338 0.0726,-2.50152 0.83788,-4.05679 1.00045,-2.03325 2.62952,-3.62847 4.6936,-4.59607 1.25361,-0.58767 1.82272,-0.69084 3.81076,-0.69084 2.01541,0 2.55152,0.10005 3.89512,0.72696 2.02817,0.94631 3.80226,2.71201 4.71988,4.69754 0.63276,1.36917 0.73329,1.90713 0.73329,3.92379 0,2.02709 -0.0992,2.55179 -0.74773,3.95596 -0.90811,1.96609 -2.71245,3.73428 -4.77351,4.67787 -1.78511,0.81725 -4.77355,1.03999 -6.47935,0.48293 z m 1.17216,-5.40342 c 0.17138,-0.17138 0.31161,-0.6388 0.31161,-1.0387 0,-0.55397 -0.12366,-0.72708 -0.51935,-0.72708 -0.28853,0 -0.51935,0.17311 -0.51935,0.38951 0,0.29902 -0.33181,0.38951 -1.42821,0.38951 h -1.42821 v -2.72658 -2.72659 h 1.42821 c 1.0964,0 1.42821,0.0905 1.42821,0.38951 0,0.2164 0.23082,0.38951 0.51935,0.38951 0.39569,0 0.51935,-0.17311 0.51935,-0.72708 0,-0.3999 -0.14023,-0.86732 -0.31161,-1.0387 -0.41633,-0.41633 -4.15395,-0.41633 -4.57028,0 -0.43263,0.43263 -0.43263,6.99406 0,7.42669 0.1877,0.1877 1.09641,0.31161 2.28514,0.31161 1.18873,0 2.09744,-0.12391 2.28514,-0.31161 z m 7.78477,-3.418 c 0.049,-2.43303 -0.0245,-3.71655 -0.22655,-3.96004 -0.22144,-0.26683 -1.03156,-0.36026 -3.12361,-0.36026 h -2.82463 v 0.64918 c 0,0.40394 0.14715,0.64919 0.38951,0.64919 0.32151,0 0.38952,0.47607 0.38952,2.72659 0,2.25051 -0.068,2.72658 -0.38952,2.72658 -0.24366,0 -0.38951,0.24616 -0.38951,0.65743 v 0.65743 l 3.05118,-0.0732 3.05118,-0.0732 z m -4.09739,-0.29534 v -2.72659 h 1.42821 1.42821 v 2.72659 2.72658 h -1.42821 -1.42821 z M 7.8424845,270.39044 v -9.85196 l -0.9737802,-0.0806 c -0.889017,-0.0736 -0.9808631,-0.15405 -1.0551514,-0.92454 l -0.081371,-0.84394 h 2.8728746 2.8728745 v 0.90886 c 0,0.86559 -0.04328,0.90886 -0.908862,0.90886 H 9.6602075 v 9.86764 9.86764 H 8.751346 7.8424845 Z m 8.2147735,9.31377 -0.684207,-0.5382 v -8.42058 -8.42058 h 0.908862 0.908861 v 8.04991 8.04992 h 1.038699 1.038699 v -8.04992 -8.04991 h 0.908862 0.908861 v 8.42058 8.42058 l -0.684206,0.5382 c -0.511395,0.40226 -1.060035,0.53819 -2.172216,0.53819 -1.112181,0 -1.66082,-0.13593 -2.172215,-0.53819 z m 9.702782,-8.42058 v -8.95878 h 2.337073 c 3.3628,0 3.375771,0.018 3.375771,4.68654 0,3.59414 -0.0099,3.65705 -0.674606,4.27305 l -0.674609,0.62521 0.804446,3.79226 c 0.442444,2.08575 0.804444,3.96062 0.804444,4.16638 0,0.56523 -1.489585,0.49278 -1.651215,-0.0803 -0.07049,-0.24993 -0.508456,-2.11959 -0.973255,-4.15479 -1.170069,-5.12331 -1.530326,-5.01633 -1.530326,0.45443 v 4.15479 H 26.668902 25.76004 Z m 3.895121,-4.28464 v -2.85642 h -1.038699 -1.038699 v 2.85642 2.85642 h 1.038699 1.038699 z m 7.011217,4.28464 v -8.95878 h 2.318226 c 2.195124,0 2.346805,0.0363 2.856422,0.6842 0.471805,0.59981 0.537724,1.04026 0.534369,3.57053 -0.0023,1.82724 -0.125828,3.12453 -0.336316,3.53551 -0.270479,0.52812 -0.270064,0.77025 0.0023,1.29837 0.223554,0.43359 0.335245,1.79578 0.336315,4.10168 0.0016,3.32041 -0.02277,3.47688 -0.635785,4.08988 -0.577387,0.57728 -0.846748,0.63738 -2.856531,0.63738 H 36.66634 Z m 3.837962,3.8302 -0.07268,-3.31086 -0.97378,-0.0806 -0.973781,-0.0806 v 3.39144 3.39145 h 1.046458 1.046456 z m 0.05716,-8.11484 v -2.85642 h -1.0387 -1.038699 v 2.85642 2.85642 h 1.038699 1.038699 z m 7.176075,12.70522 -0.684207,-0.5382 v -7.89112 c 0,-7.78334 0.0078,-7.89834 0.568314,-8.42058 0.819809,-0.76376 3.756408,-0.76376 4.576216,0 0.560552,0.52224 0.568314,0.63724 0.568314,8.42058 v 7.89112 l -0.684207,0.5382 c -0.511395,0.40226 -1.060033,0.53819 -2.172215,0.53819 -1.112182,0 -1.66082,-0.13593 -2.172215,-0.53819 z m 3.210914,-8.42058 v -7.14106 h -1.0387 -1.038699 v 6.96794 c 0,3.83236 0.0779,7.04584 0.173118,7.14105 0.09521,0.0952 0.562626,0.17312 1.038698,0.17312 h 0.865582 z"
         id="path1205"
         inkscape:connector-curvature="0" />
      <path
         style="fill:#ffffff;stroke-width:0.25967473"
         d="m 115.69969,280.50579 c -2.86305,-0.6038 -5.35963,-2.62903 -6.65603,-5.39937 -2.48515,-5.31064 0.6106,-11.52195 6.46231,-12.96601 1.42584,-0.35186 2.02623,-0.37759 3.38395,-0.14503 4.29511,0.73573 7.21765,3.65827 7.95337,7.95338 0.71615,4.18084 -2.04223,8.81527 -6.0423,10.15185 -1.53183,0.51185 -3.75736,0.68861 -5.1013,0.40518 z m 0.37522,-5.24914 c 0.17138,-0.17139 0.31161,-0.75566 0.31161,-1.29838 0,-0.82835 -0.0873,-0.98676 -0.54366,-0.98676 -0.32528,0 -0.59822,0.20862 -0.67948,0.51935 -0.10975,0.41971 -0.3542,0.51935 -1.27406,0.51935 h -1.13825 v -2.72658 -2.72659 h 1.13825 c 0.91986,0 1.16431,0.0996 1.27406,0.51935 0.0813,0.31073 0.3542,0.51935 0.67948,0.51935 0.45638,0 0.54366,-0.15841 0.54366,-0.98676 0,-0.54272 -0.14023,-1.12699 -0.31161,-1.29838 -0.41633,-0.41633 -4.15395,-0.41633 -4.57028,0 -0.43422,0.43423 -0.43422,7.51182 0,7.94605 0.41633,0.41633 4.15395,0.41633 4.57028,0 z m 7.62697,-0.11815 c 0.41372,-0.37441 0.47488,-0.86505 0.47488,-3.80976 0,-4.42145 0.0778,-4.32975 -3.67569,-4.32975 h -2.81618 v 0.77903 c 0,0.42846 0.11685,0.77902 0.25968,0.77902 0.15662,0 0.25967,1.08198 0.25967,2.72659 0,1.6446 -0.10305,2.72658 -0.25967,2.72658 -0.14283,0 -0.25968,0.35056 -0.25968,0.77902 v 0.77903 h 2.77106 c 2.21409,0 2.8665,-0.0864 3.24593,-0.42976 z m -3.93959,-3.85487 v -2.72659 h 1.42821 1.42821 v 2.72659 2.72658 h -1.42821 -1.42821 z M 7.8424845,270.24493 v -9.99748 H 6.9336229 c -0.8367296,0 -0.9088615,-0.0618 -0.9088615,-0.77902 v -0.77903 h 2.7265846 2.726585 v 0.77903 c 0,0.71719 -0.07213,0.77902 -0.908862,0.77902 H 9.6602075 v 9.99748 9.99747 H 8.751346 7.8424845 Z m 8.6511595,9.75001 c -0.312011,-0.13342 -0.691785,-0.47521 -0.843942,-0.75952 -0.178991,-0.33444 -0.276651,-3.41048 -0.276651,-8.71375 v -8.19682 h 0.779024 0.779025 l 0.03246,7.6604 c 0.01785,4.21322 0.04707,7.80647 0.06492,7.985 0.01894,0.18938 0.492185,0.35785 1.136077,0.40444 l 1.103617,0.0799 v -8.06485 -8.06484 h 0.908862 0.908861 v 8.28082 c 0,9.73829 0.08512,9.41225 -2.493206,9.55002 -0.842463,0.045 -1.787034,-0.0273 -2.099045,-0.16075 z m 9.526071,-8.71131 v -8.95878 h 2.042378 c 1.673022,0 2.166116,0.0973 2.726584,0.53819 0.678814,0.53396 0.684207,0.56585 0.684207,4.04494 0,3.49495 -0.0023,3.50918 -0.727502,4.23424 l -0.727505,0.7275 0.841892,3.86175 c 0.463039,2.12396 0.848842,4.00781 0.857339,4.18634 0.0089,0.1869 -0.296507,0.32459 -0.719956,0.32459 -0.804355,0 -0.64955,0.45894 -2.299264,-6.81646 -0.257083,-1.13377 -0.525065,-1.7528 -0.758787,-1.7528 -0.294068,0 -0.361338,0.79767 -0.361338,4.28463 v 4.28463 h -0.779024 -0.779024 z m 3.765283,-4.28464 v -2.98626 l -1.103617,-0.0798 -1.103618,-0.0799 v 3.14596 3.14596 l 1.103618,-0.0799 1.103617,-0.0798 z m 6.88138,4.3164 v -8.99054 h 2.149455 c 3.283159,0 3.303714,0.0264 3.303714,4.24742 0,2.36743 -0.09911,3.53806 -0.318091,3.75704 -0.251004,0.25101 -0.251004,0.42551 0,0.82744 0.213962,0.3426 0.318091,1.77519 0.318091,4.37619 0,3.21663 -0.06938,3.92443 -0.412612,4.20929 -0.246,0.20416 -1.346995,0.38711 -2.726585,0.45307 l -2.313972,0.11063 z m 3.895121,3.71859 v -3.3907 l -1.103617,0.0799 -1.103618,0.0798 -0.07268,3.31086 -0.07267,3.31085 h 1.176293 1.176295 z m 0,-8.04992 v -3.13103 l -1.103617,0.0799 -1.103618,0.0798 -0.07453,2.70903 c -0.04099,1.48997 -0.01545,2.863 0.05677,3.05118 0.07858,0.20479 0.551564,0.34215 1.178144,0.34215 h 1.046847 z m 7.660404,12.97348 c -1.15624,-0.6658 -1.168536,-0.75771 -1.168536,-8.73535 v -7.62258 l 0.637385,-0.63738 c 0.537199,-0.5372 0.885981,-0.63738 2.219037,-0.63738 1.333056,0 1.681838,0.10018 2.219037,0.63738 l 0.637385,0.63738 v 7.64344 c 0,9.0117 0.06771,8.76939 -2.493207,8.92217 -0.857534,0.0512 -1.760348,-0.0402 -2.051101,-0.20768 z m 2.726585,-8.80375 V 263.8829 H 49.909789 48.87109 v 7.27089 7.27089 h 1.038699 1.038699 z"
         id="path1203"
         inkscape:connector-curvature="0" />
    </g>
  </g>
</svg>
