<?xml version="1.0" encoding="UTF-8" standalone="no"?>
<!-- Created with Inkscape (http://www.inkscape.org/) -->

<svg
   xmlns:dc="http://purl.org/dc/elements/1.1/"
   xmlns:cc="http://creativecommons.org/ns#"
   xmlns:rdf="http://www.w3.org/1999/02/22-rdf-syntax-ns#"
   xmlns:svg="http://www.w3.org/2000/svg"
   xmlns="http://www.w3.org/2000/svg"
   xmlns:sodipodi="http://sodipodi.sourceforge.net/DTD/sodipodi-0.dtd"
   xmlns:inkscape="http://www.inkscape.org/namespaces/inkscape"
   width="500"
   height="200"
   viewBox="0 0 132.29166 52.916668"
   version="1.1"
   id="svg8"
   inkscape:version="0.92.5 (2060ec1f9f, 2020-04-08)"
   sodipodi:docname="tg16_.svg">
  <defs
     id="defs2" />
  <sodipodi:namedview
     id="base"
     pagecolor="#ffffff"
     bordercolor="#666666"
     borderopacity="1.0"
     inkscape:pageopacity="0.0"
     inkscape:pageshadow="2"
     inkscape:zoom="1.53125"
     inkscape:cx="253.31876"
     inkscape:cy="107.97929"
     inkscape:document-units="mm"
     inkscape:current-layer="layer1"
     showgrid="false"
     units="px"
     inkscape:pagecheckerboard="true"
     inkscape:window-width="1366"
     inkscape:window-height="740"
     inkscape:window-x="0"
     inkscape:window-y="0"
     inkscape:window-maximized="1" />
  <metadata
     id="metadata5">
    <rdf:RDF>
      <cc:Work
         rdf:about="">
        <dc:format>image/svg+xml</dc:format>
        <dc:type
           rdf:resource="http://purl.org/dc/dcmitype/StillImage" />
        <dc:title></dc:title>
      </cc:Work>
    </rdf:RDF>
  </metadata>
  <g
     inkscape:label="Layer 1"
     inkscape:groupmode="layer"
     id="layer1"
     transform="translate(0,-244.08332)">
    <g
       id="g1038"
       transform="matrix(1.0400662,0,0,1.0400662,-1.1560568,-9.9076411)"
       style="fill:#ffffff">
      <path
         style="fill:#ffffff;stroke-width:0.30188727"
         d="m 112.13697,282.76368 c -2.53878,-0.96456 -4.91145,-3.37071 -5.79599,-5.87777 -0.25192,-0.71402 -0.45804,-2.2783 -0.45804,-3.47619 0,-1.82175 0.14992,-2.478 0.91662,-4.01229 1.78234,-3.56678 4.63667,-5.34457 8.59283,-5.35197 2.03543,-0.004 2.68374,0.12741 4.12394,0.83467 1.87926,0.92287 3.47965,2.51173 4.53839,4.50572 0.99317,1.87049 1.00433,6.40724 0.0207,8.40309 -0.87562,1.77665 -2.81339,3.71842 -4.57116,4.58059 -1.73775,0.85236 -5.61522,1.0598 -7.36725,0.39415 z m 0.0117,-5.51516 c 0.0727,-0.22089 -0.13656,-0.37736 -0.5047,-0.37736 -0.60238,0 -0.62894,-0.15296 -0.62894,-3.62265 v -3.62265 h -0.90566 c -0.60377,0 -0.90566,0.15095 -0.90566,0.45283 0,0.24906 0.20378,0.45284 0.45283,0.45284 0.37377,0 0.45283,0.55345 0.45283,3.16981 0,2.61636 -0.0791,3.16982 -0.45283,3.16982 -0.24905,0 -0.45283,0.21122 -0.45283,0.46937 0,0.37072 0.29642,0.45003 1.41037,0.37736 0.78825,-0.0514 1.46516,-0.25847 1.53459,-0.46937 z m 9.10939,0.10094 c 0.20919,-0.25206 0.31723,-1.14986 0.26338,-2.18868 l -0.0913,-1.76133 -3.69811,-0.0848 -3.69812,-0.0848 v -1.3492 -1.3492 h 3.32076 c 2.75052,0 3.32076,0.0778 3.32076,0.45283 0,0.24905 0.21279,0.45283 0.47288,0.45283 0.33777,0 0.44559,-0.2372 0.37736,-0.83019 l -0.0955,-0.83019 h -3.92453 -3.92453 l -0.0852,3.74977 c -0.0635,2.79705 0.0132,3.81218 0.30189,3.99539 0.21288,0.13508 1.89873,0.24769 3.74633,0.25023 2.53314,0.003 3.44649,-0.10048 3.71394,-0.42274 z m -7.22415,-1.83679 v -1.3585 h 3.32076 3.32076 v 1.3585 1.35849 h -3.32076 -3.32076 z M 5.9582618,272.94662 v -9.96228 H 5.0526001 c -0.8337839,0 -0.9056618,-0.0838 -0.9056618,-1.0566 v -1.05661 h 2.8679289 2.8679289 v 1.05661 c 0,0.97275 -0.071878,1.0566 -0.9056618,1.0566 H 8.0714725 v 9.96228 9.96228 H 7.0148672 5.9582618 Z m 8.3773712,9.36627 -0.83019,-0.65536 v -8.58187 -8.58188 h 1.056605 1.056606 v 8.00001 8.00002 h 0.905662 0.905661 v -8.00002 -8.00001 h 1.056606 1.056605 v 8.4194 c 0,9.85405 0.04471,9.69228 -2.742305,9.92093 -1.349289,0.1107 -1.780158,0.0196 -2.46525,-0.52122 z m 9.635235,0.39475 c -0.110692,-0.11069 -0.201258,-4.25409 -0.201258,-9.20756 v -9.0063 h 2.548923 c 3.407667,0 3.488822,0.11522 3.488822,4.95338 0,3.24457 -0.06392,3.67953 -0.629158,4.2812 l -0.629158,0.66971 0.780101,3.85081 c 0.429056,2.11794 0.780102,4.03287 0.780102,4.25541 0,0.24688 -0.347529,0.40461 -0.891472,0.40461 -1.016802,0 -0.987029,0.0722 -2.159525,-5.23593 -0.390817,-1.7693 -0.815166,-3.21691 -0.943,-3.21691 -0.127833,0 -0.232425,1.90189 -0.232425,4.22642 v 4.22642 h -0.855347 c -0.470441,0 -0.945913,-0.0906 -1.056605,-0.20126 z m 3.723276,-13.38366 v -2.71699 H 26.788482 25.88282 v 2.71699 2.71698 h 0.905662 0.905662 z m 6.943407,4.40933 v -9.23953 h 2.415098 c 2.03651,0 2.512643,0.0976 3.037369,0.62227 0.574968,0.57497 0.610621,0.87902 0.469015,4.00001 -0.184444,4.06513 -0.18445,3.68335 9.3e-5,8.38056 0.135409,3.44652 0.09483,3.86231 -0.441561,4.52473 -0.519328,0.64134 -0.885961,0.74286 -3.035344,0.84047 l -2.44467,0.11101 z m 3.859275,3.66615 0.08568,-3.24529 h -0.915874 -0.915875 v 3.34081 3.34082 l 0.83019,-0.0955 0.83019,-0.0955 z m 0.06526,-8.07548 v -2.71699 h -0.905662 -0.905662 v 2.71699 2.71698 h 0.905662 0.905662 z m 7.956842,13.30171 c -1.536195,-0.65824 -1.61721,-1.1142 -1.61721,-9.10175 0,-7.06902 0.03114,-7.47889 0.625686,-8.23473 0.557126,-0.70827 0.833169,-0.79543 2.519252,-0.79543 3.115838,0 3.043751,-0.21505 3.043751,9.07993 0,7.57447 -0.01938,7.82837 -0.645432,8.45442 -0.720841,0.72084 -2.87365,1.04851 -3.926047,0.59756 z m 2.37197,-9.07504 -0.0863,-6.94366 h -0.819364 -0.819365 v 6.94341 6.94341 l 0.905662,2.5e-4 0.905662,2.6e-4 z m 8.768213,9.15181 c -1.531311,-0.30948 -1.587565,-0.70033 -1.587565,-11.03056 0,-11.25356 -0.126557,-10.80077 3.018873,-10.80077 2.574814,0 3.075829,0.55217 2.956886,3.25878 l -0.08896,2.02425 h -0.905662 c -0.8797,0 -0.908276,-0.0454 -0.99691,-1.58491 -0.08825,-1.53287 -0.120465,-1.58491 -0.981134,-1.58491 h -0.889885 v 8.90568 8.90567 h 0.905662 0.905662 v -4.22642 c 0,-3.55556 -0.07188,-4.22642 -0.452831,-4.22642 -0.316263,0 -0.452831,-0.31866 -0.452831,-1.05661 v -1.0566 h 1.515561 1.515562 l -0.0816,6.26416 -0.0816,6.26416 -1.811324,0.0406 c -0.996228,0.0223 -2.115789,-0.0209 -2.487913,-0.0961 z m 9.193608,0.0191 C 66.734403,282.60324 66.6376,278.4536 66.6376,273.50013 v -9.0063 h 2.415098 c 3.493596,0 3.622647,0.17245 3.622647,4.84098 0,3.36869 -0.04949,3.68215 -0.679246,4.3019 l -0.679247,0.66846 0.830136,3.92453 c 0.456574,2.1585 0.83016,4.10295 0.83019,4.32102 3.6e-5,0.26453 -0.321567,0.365 -0.966257,0.30189 l -0.966314,-0.0946 -0.920481,-4.15079 c -0.506268,-2.28293 -1.018537,-4.15086 -1.138381,-4.15095 -0.119843,-9e-5 -0.255692,1.86777 -0.301887,4.15079 l -0.08399,4.15095 -0.766015,0.0893 c -0.42131,0.0491 -0.862821,-0.007 -0.981133,-0.12579 z m 3.709415,-13.39753 v -2.71699 H 69.656472 68.75081 v 2.71699 2.71698 h 0.905662 0.905661 z m 6.856639,13.39752 c -0.118316,-0.11831 -0.215119,-3.96602 -0.215119,-8.55047 0,-9.96106 -0.08398,-9.67725 2.863485,-9.67725 2.045869,0 2.728233,0.36142 3.032204,1.60602 0.0884,0.36197 0.122572,4.25814 0.07592,8.65815 l -0.08481,8.00001 H 82.184791 81.27913 l -0.08376,-4.30189 -0.08376,-4.3019 H 80.222525 79.33344 l -0.08376,4.3019 -0.08376,4.30189 -0.766015,0.0893 c -0.421311,0.0491 -0.862821,-0.007 -0.981133,-0.12579 z m 3.709415,-13.39752 v -2.71699 h -0.905662 -0.905661 v 2.71699 2.71698 h 0.905661 0.905662 z m 6.339632,4.87698 c 0,-10.10012 -0.113998,-9.70718 2.816228,-9.70718 1.701053,0 1.712081,0.006 1.712081,0.90566 0,0.87212 -0.05031,0.90566 -1.358493,0.90566 h -1.358492 v 2.86793 2.86793 h 1.207549 c 1.178797,0 1.207549,0.0251 1.207549,1.05661 0,1.03145 -0.02874,1.0566 -1.207549,1.0566 h -1.207549 v 4.37737 4.37736 H 88.373482 87.46782 Z m 8.969849,8.52054 c -0.118315,-0.11831 -0.215118,-1.63782 -0.215118,-3.3767 0,-3.01102 0.04482,-3.23443 0.941145,-4.69114 l 0.941149,-1.52956 -0.941149,-1.71195 c -0.848487,-1.5434 -0.941145,-1.96823 -0.941145,-4.31516 v -2.60321 h 1.056605 1.056605 v 2.43494 c 0,2.0611 0.24497,3.2519 0.798731,3.88266 0.06224,0.0709 0.311218,-0.13288 0.55328,-0.45284 0.305619,-0.40396 0.443048,-1.38895 0.449708,-3.22325 l 0.01,-2.64151 h 1.05661 1.0566 v 2.76603 c 0,2.56781 -0.0659,2.86872 -0.91964,4.19916 l -0.91964,1.43314 0.92977,1.51107 c 0.91318,1.48411 0.92824,1.57211 0.84417,4.93292 l -0.0856,3.42186 h -0.90566 -0.90566 l -0.0861,-3.28488 c -0.0555,-2.11699 -0.228846,-3.48871 -0.487621,-3.85816 -0.387509,-0.55325 -0.418401,-0.54754 -0.884186,0.16334 -0.345519,0.52733 -0.507179,1.62352 -0.568982,3.85816 -0.08549,3.09106 -0.09381,3.12241 -0.852348,3.21087 -0.421311,0.0491 -0.862821,-0.007 -0.981134,-0.12579 z M 14.299781,261.53064 c -0.101155,-0.61178 -0.185414,-2.33627 -0.187241,-3.83218 -0.0029,-2.39632 -0.07558,-2.76496 -0.61076,-3.09919 -0.60348,-0.37688 -0.603634,-0.38669 -0.02363,-1.50658 1.283229,-2.4777 1.062875,-2.48884 4.412115,0.22308 l 3.011418,2.43839 0.08603,-3.02643 c 0.04732,-1.66453 0.173523,-3.02643 0.280454,-3.02643 0.596913,0 2.199555,0.77571 2.199555,1.06463 0,0.18676 -0.339623,0.65862 -0.754718,1.04858 -0.734994,0.6905 -0.754718,0.81895 -0.754718,4.91512 0,3.58729 -0.06566,4.1809 -0.44628,4.03485 -0.245454,-0.0942 -1.658644,-1.1276 -3.140424,-2.29646 -1.481779,-1.16886 -2.775295,-2.1252 -2.874479,-2.1252 -0.09918,0 -0.180336,0.74404 -0.180336,1.65342 0,1.43053 0.101744,1.72009 0.754718,2.14794 0.415095,0.27198 0.754718,0.59668 0.754718,0.72156 0,0.12487 -0.527064,0.57584 -1.171252,1.00214 l -1.171253,0.7751 z m 9.998131,-1.61176 c 0.889211,-0.97796 0.990106,-3.9635 0.150944,-4.4665 -0.503146,-0.30158 -0.503146,-0.33623 0,-0.72752 0.400218,-0.31125 0.528303,-0.85609 0.528303,-2.24726 0,-1.54283 -0.104855,-1.90984 -0.655911,-2.29582 -0.794627,-0.55657 -0.89759,-0.51792 3.674783,-1.3796 1.909437,-0.35984 3.777364,-0.72702 4.15095,-0.81595 0.644962,-0.15354 0.679246,-0.0733 0.679246,1.59062 v 1.75233 l -0.995505,-0.96488 c -1.013226,-0.98206 -2.303057,-1.25625 -3.209918,-0.68236 -0.532163,0.33676 -0.870271,3.9439 -0.369674,3.9439 0.180216,0 0.807866,-0.42162 1.394776,-0.93694 l 1.06711,-0.93693 v 2.14448 c 0,1.17947 -0.07361,2.14449 -0.163566,2.14449 -0.08996,0 -0.455201,-0.2717 -0.811643,-0.60378 -0.356441,-0.33207 -0.894158,-0.60377 -1.194926,-0.60377 -0.472465,0 -0.54685,0.27017 -0.54685,1.98625 v 1.98626 l 0.981134,-0.19814 c 1.290736,-0.26065 2.384041,-1.05596 2.9434,-2.14114 l 0.452831,-0.87851 0.09373,1.47608 c 0.05155,0.81184 -0.01637,1.56871 -0.150944,1.68192 -0.134572,0.11322 -1.942792,0.52166 -4.018267,0.90765 -2.075475,0.386 -3.977364,0.77164 -4.226421,0.85699 -0.283546,0.0972 -0.198904,-0.1241 0.226415,-0.59187 z m 11.609382,-2.41165 c -1.361768,-0.87196 -2.175405,-2.57822 -2.175405,-4.56197 0,-3.02983 2.802975,-6.30835 5.757669,-6.73451 0.941342,-0.13577 1.111383,-0.0368 1.882853,1.096 0.806159,1.18374 0.821073,1.26571 0.301887,1.65936 -0.80449,0.60996 -1.321937,0.5261 -2.252016,-0.36497 -0.812402,-0.77833 -0.853121,-0.78524 -1.629666,-0.27643 -1.042461,0.68305 -2.064513,2.97955 -1.800186,4.04493 0.564025,2.27337 2.762138,2.83155 4.939458,1.2543 1.459703,-1.0574 1.512394,-0.90203 0.645697,1.90401 -0.526382,1.70423 -0.73316,2.00964 -1.554484,2.29595 -1.45301,0.50653 -3.018296,0.38609 -4.115807,-0.31667 z"
         id="path1048"
         inkscape:connector-curvature="0" />
      <path
         style="fill:#ffffff;stroke-width:0.30188727"
         d="m 112.82635,282.94622 c -4.01143,-1.31888 -6.61097,-4.59888 -6.87739,-8.67762 -0.26592,-4.07104 1.57228,-7.32162 5.18146,-9.16266 1.79062,-0.91339 2.33882,-1.04822 4.26197,-1.04822 1.92315,0 2.47135,0.13483 4.26197,1.04822 3.60918,1.84104 5.44738,5.09162 5.18146,9.16266 -0.22535,3.45002 -2.15489,6.40434 -5.19785,7.95846 -1.63257,0.8338 -5.28884,1.21982 -6.81162,0.71916 z m -0.60378,-5.65049 c 0,-0.2646 -0.27962,-0.55422 -0.62138,-0.64359 -0.58844,-0.15388 -0.61644,-0.34442 -0.5283,-3.59498 l 0.0931,-3.43248 -0.98114,6e-4 c -0.67059,3e-4 -0.98113,0.14392 -0.98113,0.45342 0,0.24906 0.20378,0.45283 0.45283,0.45283 0.37233,0 0.45283,0.53669 0.45283,3.01888 0,2.48218 -0.0805,3.01887 -0.45283,3.01887 -0.25157,0 -0.45283,0.26834 -0.45283,0.60377 0,0.52327 0.20126,0.60378 1.50944,0.60378 1.17987,0 1.50943,-0.10504 1.50943,-0.48109 z m 9.20756,-1.78306 v -2.11322 l -3.62264,-0.15094 -3.62265,-0.15094 v -1.20755 -1.20755 l 3.24529,-0.0857 c 3.09011,-0.0816 3.24529,-0.0563 3.24529,0.52831 0,0.35557 0.19864,0.61398 0.47196,0.61398 0.35061,0 0.44763,-0.25226 0.37735,-0.98113 l -0.0946,-0.98113 -3.73114,-0.085 c -2.49307,-0.0568 -3.87044,0.0306 -4.15095,0.26338 -0.56006,0.46481 -0.60241,6.91453 -0.049,7.4679 0.26323,0.26323 1.46722,0.34641 4.15095,0.28679 l 3.78018,-0.084 z m -7.33899,-0.0755 0.0937,-1.13207 3.24529,-0.0857 3.24529,-0.0857 v 1.21776 1.21776 h -3.33899 -3.33898 z M 5.9582618,272.81573 v -9.79128 l -0.8301899,-0.0955 c -0.691761,-0.0796 -0.8459637,-0.25912 -0.9247889,-1.07665 l -0.094599,-0.98114 h 2.9061831 2.9061831 l -0.094599,0.98114 c -0.078825,0.81753 -0.2330277,0.99706 -0.9247887,1.07665 l -0.83019,0.0955 v 9.79128 9.79129 H 7.0148672 5.9582618 Z m 8.0171302,9.12034 c -0.397959,-0.56816 -0.469949,-1.95552 -0.469949,-9.05662 v -8.38567 h 1.06623 1.066229 l -0.0851,8.00022 -0.0851,8.00022 0.981134,-2.1e-4 0.981133,-2e-4 v -8.00002 -8.00001 h 1.056606 1.056605 v 8.26119 c 0,7.9005 -0.02732,8.29591 -0.625685,9.05662 -0.55896,0.7106 -0.830788,0.79543 -2.548924,0.79543 -1.645194,0 -1.991178,-0.097 -2.393187,-0.67095 z m 10.096105,-8.38567 v -9.05662 h 2.264154 c 3.322826,0 3.471704,0.20811 3.471704,4.85304 0,3.41717 -0.04323,3.68399 -0.690229,4.26029 l -0.690228,0.61481 0.8315,3.96613 c 0.457325,2.18138 0.835852,4.06802 0.841172,4.19255 0.0053,0.12453 -0.39264,0.22642 -0.884354,0.22642 -1.000976,0 -0.929493,0.1714 -2.140376,-5.13209 -0.360141,-1.57736 -0.775676,-2.99698 -0.923411,-3.15472 -0.157741,-0.16842 -0.268609,1.48258 -0.268609,4.00001 v 4.2868 h -0.905661 -0.905662 z m 3.622647,-4.22642 V 266.3051 H 26.788482 25.88282 v 3.01888 3.01887 h 0.905662 0.905662 z m 6.943407,4.22642 v -9.05662 h 2.393187 c 2.225829,0 2.436942,0.0556 3.018872,0.79543 0.530002,0.67379 0.625006,1.21624 0.621236,3.54718 -0.0027,1.62453 -0.162041,3.0609 -0.38916,3.50646 -0.315231,0.61842 -0.309767,0.90598 0.03025,1.59229 0.300423,0.6064 0.387001,1.80065 0.313685,4.32682 -0.123834,4.26679 -0.189232,4.34506 -3.630671,4.34506 h -2.357398 z m 3.924534,3.92453 v -3.32076 h -0.886239 -0.886238 l -0.0949,3.19623 c -0.05219,1.75792 -0.03829,3.25227 0.03089,3.32076 0.06918,0.0685 0.510691,0.12453 0.981134,0.12453 h 0.855346 z m 0,-8.17008 v -3.038 l -0.933765,0.0946 -0.933764,0.0946 0.01497,2.79245 c 0.0082,1.53586 0.02089,2.86039 0.0281,2.94341 0.0072,0.083 0.420674,0.15094 0.918788,0.15094 h 0.905662 z m 7.065668,12.6667 c -0.53447,-0.59059 -0.575092,-1.18953 -0.575092,-8.47952 v -7.84405 l 0.712689,-0.5771 c 1.013746,-0.82088 3.738686,-0.80498 4.570338,0.0267 0.573217,0.57322 0.603774,1.0063 0.603774,8.557 0,9.28628 0.108894,8.95247 -2.920382,8.95247 -1.463036,0 -1.928072,-0.12358 -2.391327,-0.63547 z m 3.349442,-8.44752 v -7.06798 h -0.905662 -0.905662 l -0.08143,6.78563 c -0.04478,3.7321 -0.02614,6.92971 0.04143,7.10581 0.06757,0.1761 0.511766,0.30315 0.987093,0.28235 l 0.864228,-0.0378 z m 7.750747,8.38428 c -0.644843,-0.6864 -0.656397,-0.86369 -0.656397,-10.07251 0,-9.02611 0.02321,-9.40331 0.625686,-10.16924 0.548653,-0.6975 0.843295,-0.79543 2.393187,-0.79543 2.340613,0 3.018872,0.75523 3.018872,3.36148 v 1.77061 H 61.052685 59.99608 v -1.50944 -1.50944 h -1.061164 -1.061167 l 0.08003,8.83021 0.08003,8.8302 0.981134,0.0946 0.981134,0.0946 v -4.21325 c 0,-3.46663 -0.08024,-4.24405 -0.452831,-4.38702 -0.267161,-0.10252 -0.452831,-0.55578 -0.452831,-1.10545 0,-0.92313 0.01316,-0.93083 1.433964,-0.83966 l 1.433965,0.092 0.08172,6.11322 0.08172,6.11322 h -2.368725 c -2.085669,0 -2.447164,-0.0835 -3.025124,-0.69871 z m 10.211544,-8.35791 v -9.05662 h 2.242244 c 2.062762,0 2.292326,0.0637 2.867929,0.79543 0.548616,0.69745 0.625685,1.21298 0.625685,4.18526 0,3.16633 -0.04734,3.43732 -0.717966,4.11023 l -0.717964,0.72042 0.666797,3.16981 c 1.197206,5.69128 1.178743,5.13209 0.169446,5.13209 -0.992101,0 -0.923253,0.16566 -2.132827,-5.13209 -0.360143,-1.57736 -0.775675,-2.99698 -0.92341,-3.15472 -0.157742,-0.16842 -0.26861,1.48258 -0.26861,4.00001 v 4.2868 h -0.905662 -0.905662 z m 3.622647,-4.22642 V 266.3051 H 69.656472 68.75081 v 3.01888 3.01887 h 0.905662 0.905661 z m 6.64152,4.83019 c 0,-9.93592 -0.08477,-9.66039 2.972083,-9.66039 2.859874,0 2.763775,-0.33411 2.763775,9.60869 v 8.50455 h -0.905662 -0.905662 v -4.22643 -4.22642 h -1.056605 -1.056606 v 4.22642 4.22643 h -0.905661 -0.905662 z m 3.924534,-4.83019 v -2.71699 h -1.056605 -1.056606 v 2.71699 2.71698 h 1.056606 1.056605 z m 6.339632,4.72604 c 0,-9.92919 -0.109908,-9.55624 2.816228,-9.55624 1.701053,0 1.712081,0.006 1.712081,0.90566 0,0.87212 -0.05031,0.90566 -1.358493,0.90566 h -1.358492 v 2.84971 2.84971 l 1.118586,0.0937 c 1.020795,0.0855 1.118589,0.17287 1.118589,0.99936 0,0.82648 -0.09779,0.91385 -1.118589,0.99936 l -1.118586,0.0937 v 4.2082 4.2082 h -0.905662 -0.905662 z m 8.754731,5.44489 c 0,-2.99726 0.03748,-3.17434 1.015578,-4.79864 l 1.015579,-1.68653 -0.933885,-1.46552 c -0.837616,-1.31445 -0.945308,-1.75338 -1.04472,-4.25798 l -0.110835,-2.79246 h 1.085747 1.085746 l 0.0096,2.64151 c 0.0069,1.89481 0.140173,2.8122 0.471497,3.24529 0.456423,0.59662 0.467041,0.59683 0.896062,0.0178 0.300421,-0.40549 0.434161,-1.4052 0.434161,-3.24529 v -2.65929 h 1.05661 1.0566 v 2.60477 c 0,2.34892 -0.0902,2.76235 -0.91796,4.20919 l -0.91796,1.60444 0.91796,1.62654 c 0.8637,1.53039 0.91796,1.81694 0.91796,4.84742 v 3.22088 h -1.0566 -1.05661 v -3.26306 c 0,-2.25346 -0.12536,-3.43451 -0.405177,-3.81718 -0.386878,-0.52909 -0.427796,-0.52184 -0.905662,0.16041 -0.387234,0.55286 -0.500481,1.41658 -0.500481,3.81718 v 3.10265 H 97.279155 96.22255 Z M 14.295642,258.68245 c -0.172779,-3.10092 -0.297578,-3.77124 -0.772816,-4.15095 -0.548372,-0.43814 -0.537066,-0.50469 0.348474,-2.05125 0.808499,-1.41201 0.972559,-1.55061 1.406766,-1.18852 3.039386,2.53464 5.444532,4.44732 5.592383,4.44732 0.100196,0 0.182175,-1.35849 0.182175,-3.01887 0,-1.66038 0.07229,-3.01888 0.16064,-3.01888 0.08835,0 0.645,0.20238 1.236994,0.44973 l 1.076355,0.44973 -0.784163,0.93193 c -0.753358,0.89531 -0.784346,1.08223 -0.788787,4.75782 -0.0025,2.10425 -0.108376,3.98913 -0.235186,4.18863 -0.163153,0.25667 -0.625185,0.0483 -1.580285,-0.71259 -0.742347,-0.59142 -2.130855,-1.67957 -3.085574,-2.41811 l -1.735851,-1.34279 v 1.9289 c 0,1.74852 0.07057,1.96667 0.754718,2.33281 0.415095,0.22215 0.753036,0.48284 0.750981,0.57931 -0.0035,0.16556 -1.975796,1.5339 -2.210888,1.5339 -0.06044,0 -0.202607,-1.66415 -0.315936,-3.69812 z m 10.153214,1.16467 c 0.719429,-0.54613 0.763592,-3.94639 0.0564,-4.34216 -0.427951,-0.23949 -0.427951,-0.30057 0,-0.65574 0.692798,-0.57497 0.673019,-4.40237 -0.02413,-4.66989 -0.272822,-0.10469 -0.41349,-0.2729 -0.312597,-0.37379 0.273523,-0.27353 8.316006,-1.85474 8.499647,-1.6711 0.260747,0.26074 0.178112,2.77441 -0.09121,2.77441 -0.137095,0 -0.568324,-0.33962 -0.958285,-0.75472 -0.704543,-0.74995 -1.60607,-0.92283 -2.943401,-0.56444 -0.614453,0.16467 -0.679246,0.36585 -0.679246,2.10909 0,2.26736 0.431028,2.49901 1.841147,0.98947 l 0.875838,-0.93759 v 2.19776 2.19776 l -0.698703,-0.65639 c -0.384287,-0.36102 -0.995608,-0.6564 -1.358493,-0.6564 -0.611929,0 -0.659789,0.14477 -0.659789,1.99586 v 1.99587 l 1.100741,-0.2065 c 1.419829,-0.26637 2.324437,-0.87079 2.847634,-1.90267 l 0.418786,-0.82596 0.09947,1.31445 c 0.05471,0.72294 0.03488,1.37902 -0.04406,1.45796 -0.173423,0.17342 -7.403815,1.60616 -8.045218,1.5942 -0.366239,-0.007 -0.351807,-0.0851 0.07547,-0.40948 z m 11.695061,-2.37222 c -1.403438,-0.95517 -2.127497,-2.04068 -2.320378,-3.47872 -0.401233,-2.99141 1.033296,-5.56523 3.900298,-6.99789 1.012189,-0.5058 2.017525,-0.91963 2.234075,-0.91963 0.371137,0 1.924933,1.99744 1.924933,2.47455 0,0.12165 -0.280439,0.37127 -0.623198,0.55471 -0.514851,0.27554 -0.805888,0.19418 -1.674032,-0.46798 -0.995376,-0.75921 -1.089719,-0.77603 -1.787694,-0.3187 -2.492846,1.63337 -2.50148,5.38158 -0.01428,6.20243 1.093433,0.36086 2.307898,-0.0245 3.57276,-1.13364 0.804621,-0.70557 0.861058,-0.36372 0.290978,1.76247 -0.456231,1.70158 -0.65362,2.01111 -1.576981,2.47288 -1.428238,0.71425 -2.729181,0.66439 -3.926472,-0.15048 z"
         id="path1046"
         inkscape:connector-curvature="0" />
      <path
         style="fill:#ffffff;stroke-width:0.30188727"
         d="m 112.32294,282.67044 c -6.86369,-2.45315 -8.61622,-11.12494 -3.24111,-16.03749 1.89473,-1.73168 3.7286,-2.44106 6.31056,-2.44106 2.58196,0 4.41583,0.70938 6.31056,2.44106 2.22188,2.03067 3.03168,3.91618 3.03578,7.06839 0.004,2.80879 -0.6146,4.47135 -2.39592,6.44307 -2.37873,2.63296 -6.68396,3.71832 -10.01987,2.52603 z m -0.10037,-5.49739 c 0,-0.33543 -0.20126,-0.60378 -0.45283,-0.60378 -0.37626,0 -0.45283,-0.587 -0.45283,-3.4717 v -3.47171 h -1.20755 c -1.29921,0 -1.72476,0.69999 -0.60377,0.99314 0.55019,0.14388 0.60377,0.41177 0.60377,3.01887 0,2.60709 -0.0536,2.87499 -0.60377,3.01887 -0.33208,0.0868 -0.60378,0.37439 -0.60378,0.63899 0,0.38188 0.3424,0.48109 1.66038,0.48109 1.45912,0 1.66038,-0.0732 1.66038,-0.60377 z m 9.24957,0.23392 c 0.3597,-0.582 0.21622,-3.51449 -0.19626,-4.01151 -0.28786,-0.34685 -1.11865,-0.44884 -3.6563,-0.44884 h -3.2838 v -1.20755 -1.20754 h 3.16982 c 3.00593,0 3.16982,0.0324 3.16982,0.6259 0,0.84273 0.96341,0.6518 1.09561,-0.21713 0.17649,-1.16007 -0.48176,-1.33832 -4.60942,-1.24823 l -3.88243,0.0847 -0.0853,3.57983 c -0.0568,2.38122 0.0314,3.72051 0.26338,4 0.46876,0.56482 7.66901,0.61003 8.01492,0.0503 z m -7.13636,-2.04525 v -1.20755 h 3.16982 3.16982 v 1.20755 1.20755 h -3.16982 -3.16982 z M 5.9582618,272.64474 v -9.96228 H 5.0526001 c -0.8050327,0 -0.9056618,-0.10063 -0.9056618,-0.90567 v -0.90566 h 2.8679289 2.8679289 v 0.90566 c 0,0.80504 -0.100629,0.90567 -0.9056618,0.90567 H 8.0714725 v 9.96228 9.96228 H 7.0148672 5.9582618 Z m 8.1509562,9.3585 c -0.575024,-0.57502 -0.603775,-1.00629 -0.603775,-9.05662 v -8.45284 h 0.900731 0.900731 l 0.0804,8.07548 0.0804,8.07549 0.981134,0.0946 0.981133,0.0946 v -8.17009 -8.17008 h 0.905662 0.905662 v 8.557 c 0,9.92919 0.109909,9.55624 -2.816228,9.55624 -1.309565,0 -1.85403,-0.14195 -2.315855,-0.60378 z m 9.962279,-8.45284 v -9.05662 h 2.126933 c 1.855708,0 2.221424,0.0945 2.867929,0.741 0.700139,0.70014 0.740996,0.9309 0.740996,4.18525 0,3.24832 -0.04189,3.48615 -0.736247,4.18051 l -0.736247,0.73624 0.73504,3.45587 c 0.404273,1.90073 0.806097,3.76153 0.892942,4.13512 0.136307,0.58635 0.03635,0.67925 -0.730884,0.67925 h -0.888786 l -0.98281,-4.22643 c -0.540545,-2.32453 -1.094124,-4.22642 -1.230176,-4.22642 -0.136052,0 -0.247367,1.90189 -0.247367,4.22642 v 4.22643 h -0.905661 -0.905662 z m 3.77359,-4.22642 v -2.86793 l -0.981133,-0.0946 -0.981134,-0.0946 v 3.05713 3.05712 l 0.981134,-0.0946 0.981133,-0.0946 z m 6.792464,4.22642 v -9.05662 h 2.196981 c 3.421892,0 3.538876,0.14967 3.538876,4.52761 0,2.07262 -0.127831,3.66672 -0.302702,3.77479 -0.202349,0.12506 -0.202349,0.3746 0,0.75269 0.166485,0.31109 0.302702,2.2516 0.302702,4.31226 0,4.66044 -0.06158,4.74589 -3.420002,4.74589 h -2.315855 z m 3.924534,3.92453 v -3.32076 h -1.056606 -1.056605 v 3.32076 3.32076 h 1.056605 1.056606 z m 0,-8.15095 v -3.01888 h -1.056606 -1.056605 v 3.01888 3.01887 h 1.056605 1.056606 z m 7.245294,12.67926 c -0.572813,-0.57281 -0.603775,-1.00629 -0.603775,-8.45284 0,-7.44655 0.03096,-7.88003 0.603775,-8.45285 0.909432,-0.90943 3.58546,-0.85267 4.475687,0.0949 0.638766,0.67994 0.656396,0.90698 0.656396,8.45285 0,7.35162 -0.03134,7.78548 -0.603774,8.35791 -0.457405,0.45741 -1.00629,0.60378 -2.264155,0.60378 -1.257864,0 -1.80675,-0.14637 -2.264154,-0.60378 z m 3.32076,-8.45284 v -7.2453 h -1.056606 -1.056605 v 7.2453 7.24529 h 1.056605 1.056606 z m 7.916241,8.58667 c -0.670211,-0.46944 -0.670947,-0.48086 -0.670947,-10.398 0,-9.91713 6.03e-4,-9.92856 0.670947,-10.39799 0.369018,-0.25847 1.289738,-0.46995 2.046038,-0.46995 0.7563,0 1.67702,0.21148 2.046038,0.46995 0.583792,0.40891 0.670947,0.74223 0.670947,2.56604 0,2.02264 -0.0259,2.0961 -0.738941,2.0961 -0.678577,0 -0.746396,-0.12948 -0.83019,-1.58491 l -0.09125,-1.58491 -1.132077,-0.0937 -1.132077,-0.0937 v 9.07484 9.07484 h 1.207549 1.207549 V 276.541 c 0,-4.0008 -0.03603,-4.26411 -0.603775,-4.41258 -0.390723,-0.10217 -0.603774,-0.41178 -0.603774,-0.8774 0,-0.65706 0.124459,-0.71953 1.433964,-0.71982 l 1.433965,-3e-4 -0.08759,6.03806 -0.08759,6.03805 h -2.033921 c -1.352258,0 -2.25878,-0.1575 -2.704861,-0.46995 z m 9.895106,-8.61967 v -9.08961 l 2.258977,0.11407 c 3.238185,0.16352 3.325937,0.29068 3.325937,4.81957 0,3.44856 -0.03681,3.66835 -0.705072,4.20947 l -0.705073,0.57094 0.87281,4.23259 0.872814,4.23259 h -0.822788 c -0.769112,0 -0.852789,-0.13294 -1.282649,-2.03774 -0.252928,-1.12076 -0.683878,-3.0298 -0.957671,-4.24231 -0.767171,-3.39745 -1.182097,-2.69975 -1.280896,2.15384 l -0.08399,4.12621 h -0.746199 -0.746199 z m 3.924535,-4.21165 v -3.03709 l -1.132078,0.0937 -1.132077,0.0937 -0.08849,2.5408 c -0.04867,1.39745 -0.01896,2.72198 0.066,2.94341 0.0884,0.23036 0.610557,0.40259 1.220572,0.40259 h 1.066079 z m 6.641519,4.7146 c 0,-8.531 0.0043,-8.58972 0.670947,-9.05662 0.993086,-0.69559 3.407523,-0.6179 4.159249,0.13382 0.575023,0.57503 0.603775,1.0063 0.603775,9.05662 v 8.45285 h -0.746429 -0.746431 l -0.08376,-4.3019 -0.08376,-4.30189 H 80.222525 79.16592 l -0.08376,4.30189 -0.08376,4.3019 H 78.251968 77.50554 Z m 3.773591,-4.69637 v -2.86793 l -1.132078,-0.0937 -1.132077,-0.0937 v 3.05532 3.05532 l 1.132077,-0.0937 1.132078,-0.0937 z m 6.188688,4.88789 c 0,-6.6187 0.08724,-8.51444 0.412264,-8.95895 0.302204,-0.41328 0.912991,-0.60002 2.287873,-0.69947 l 1.875611,-0.13567 -0.09919,0.86819 c -0.08991,0.78696 -0.219237,0.87688 -1.382212,0.96102 l -1.283021,0.0928 v 3.00152 3.00151 h 1.056605 c 0.925789,0 1.056606,0.0934 1.056606,0.75472 0,0.66128 -0.130817,0.75472 -1.056606,0.75472 h -1.056605 v 4.37736 4.37737 H 88.373482 87.46782 Z m 9.056618,5.07892 c 0,-3.16429 0.04194,-3.38439 0.91553,-4.80415 l 0.915531,-1.48793 -0.915531,-1.44364 c -0.851609,-1.34284 -0.91553,-1.64115 -0.91553,-4.27252 v -2.82887 l 0.83019,0.0955 c 0.822135,0.0946 0.830573,0.11824 0.86974,2.43685 0.03652,2.16163 0.510084,4.14925 0.98859,4.14925 0.110095,0 0.433238,-0.39455 0.718093,-0.87677 0.37539,-0.63548 0.51792,-1.55488 0.51792,-3.34081 v -2.46404 l 0.80132,0.0955 0.80132,0.0955 -0.0653,2.71699 c -0.0538,2.23969 -0.1946,2.94905 -0.80133,4.03803 -0.90354,1.62173 -0.90355,1.59536 0.002,3.02956 0.65883,1.04366 0.74386,1.53592 0.7942,4.59778 l 0.0564,3.42899 -0.79421,0.0955 -0.79421,0.0955 -0.002,-3.1144 c -10e-4,-2.51894 -0.10853,-3.27598 -0.559244,-3.95955 l -0.55726,-0.84515 -0.53275,0.81308 c -0.432432,0.65997 -0.523348,1.4018 -0.482811,3.9395 l 0.05007,3.12642 H 97.444646 96.524437 Z M 14.411105,258.76488 c 0,-3.5011 -0.02337,-3.631 -0.737504,-4.09892 l -0.737505,-0.48323 0.914342,-1.48599 c 0.502889,-0.8173 0.989358,-1.486 1.081043,-1.486 0.09169,0 1.50645,1.09545 3.143922,2.43432 l 2.977221,2.43433 0.0026,-1.45319 c 0.0038,-2.09956 0.344149,-4.62301 0.623545,-4.62301 0.132101,0 0.608427,0.14001 1.058502,0.31112 l 0.818317,0.31113 -0.723193,0.76708 c -0.656671,0.69653 -0.750961,1.16432 -1.02508,5.08562 l -0.301887,4.31853 -3.018872,-2.38482 -3.018873,-2.38481 -0.09163,1.88568 c -0.08431,1.73506 -0.02878,1.93147 0.695185,2.45884 l 0.786811,0.57315 -1.056527,0.71793 c -0.58109,0.39486 -1.131659,0.71793 -1.223487,0.71793 -0.09183,0 -0.16696,-1.62706 -0.16696,-3.61569 z m 10.037751,1.17641 c 0.421983,-0.24578 0.528303,-0.7249 0.528303,-2.38076 0,-1.38339 -0.12554,-2.11908 -0.37736,-2.21142 -0.301887,-0.11069 -0.301887,-0.21836 0,-0.53836 0.224458,-0.23793 0.37736,-1.2187 0.37736,-2.42054 0,-1.59577 -0.104281,-2.06055 -0.49604,-2.21088 -0.272822,-0.10469 -0.432325,-0.25407 -0.354452,-0.33194 0.162531,-0.16253 7.364827,-1.65552 7.986357,-1.65552 0.290723,0 0.408624,0.42042 0.402136,1.43396 -0.0072,1.12104 -0.07633,1.31868 -0.316892,0.90566 -0.565236,-0.97046 -1.887604,-1.44091 -3.105181,-1.10472 l -1.097056,0.30291 v 1.94808 c 0,2.23508 0.29193,2.42552 1.788161,1.16652 l 0.928824,-0.78155 v 1.83816 c 0,1.01099 -0.07343,1.83816 -0.163168,1.83816 -0.08974,0 -0.552299,-0.2877 -1.027905,-0.63933 -0.475606,-0.35163 -1.013502,-0.54739 -1.195325,-0.43501 -0.187357,0.11579 -0.330587,1.09839 -0.330587,2.26791 v 2.06361 l 1.06342,-0.23984 c 1.241576,-0.28003 2.520943,-1.05687 2.758029,-1.6747 0.257342,-0.67063 0.70686,-0.19657 0.70686,0.74544 0,0.84262 -0.0108,0.84706 -4.000006,1.64279 -4.381558,0.87399 -4.862172,0.92958 -4.075478,0.47137 z m 12.150962,-2.20337 c -1.633705,-0.73408 -2.874508,-2.80763 -2.861299,-4.78163 0.01427,-2.13213 1.840053,-4.90805 3.917904,-5.95678 2.139608,-1.0799 2.556801,-1.04167 3.45574,0.31672 0.777251,1.17451 0.789199,1.24903 0.264082,1.64708 -0.738776,0.55999 -0.790918,0.54965 -1.606611,-0.31861 -0.912319,-0.97112 -1.513648,-0.95277 -2.472674,0.0755 -1.606125,1.72203 -1.923037,3.62147 -0.835005,5.00467 0.999129,1.27019 2.430914,1.35758 4.130379,0.25209 0.781767,-0.50854 1.454939,-0.89107 1.495936,-0.85007 0.246986,0.24699 -1.228645,4.16236 -1.652585,4.3849 -1.005445,0.52777 -2.914169,0.64031 -3.835867,0.22616 z"
         id="path1044"
         inkscape:connector-curvature="0" />
      <path
         style="fill:#ffffff;stroke-width:0.30188727"
         d="m 113.5339,282.90511 c -8.67563,-1.7766 -10.22605,-13.81397 -2.28172,-17.71513 1.4538,-0.71391 2.10494,-0.84714 4.14021,-0.84714 2.03527,0 2.68641,0.13323 4.14021,0.84714 7.00782,3.44128 6.87684,13.7527 -0.21568,16.97893 -1.77693,0.8083 -4.0302,1.09514 -5.78302,0.7362 z m -1.31133,-5.73206 c 0,-0.33543 -0.20126,-0.60378 -0.45283,-0.60378 -0.37736,0 -0.45283,-0.60377 -0.45283,-3.62265 v -3.62264 h -1.20755 c -1.08679,0 -1.20755,0.0755 -1.20755,0.75471 0,0.51753 0.16604,0.75472 0.52831,0.75472 0.46607,0 0.5283,0.33783 0.5283,2.86793 0,2.5301 -0.0622,2.86793 -0.5283,2.86793 -0.32705,0 -0.52831,0.23001 -0.52831,0.60378 0,0.53059 0.20126,0.60377 1.66038,0.60377 1.45912,0 1.66038,-0.0732 1.66038,-0.60377 z m 9.29813,0.24151 c 0.19925,-0.19925 0.36227,-1.12303 0.36227,-2.05284 0,-0.92981 -0.16302,-1.85359 -0.36227,-2.05283 -0.23902,-0.23902 -1.52285,-0.36227 -3.77359,-0.36227 h -3.41133 v -1.0566 -1.05661 h 3.16982 c 2.61636,0 3.16982,0.0791 3.16982,0.45283 0,0.25158 0.26834,0.45283 0.60377,0.45283 0.46002,0 0.60378,-0.20125 0.60378,-0.84528 0,-0.46491 -0.16302,-1.0083 -0.36227,-1.20755 -0.5008,-0.5008 -7.5294,-0.5008 -8.0302,0 -0.38844,0.38845 -0.53391,7.51641 -0.16101,7.88932 0.37379,0.37379 7.80243,0.22777 8.19121,-0.161 z m -7.18555,-1.97737 -6.1e-4,-1.13207 3.17046,0.0949 3.17045,0.0949 v 1.03718 1.03718 h -3.16982 -3.16981 l -6.1e-4,-1.13208 z M 5.9582618,272.64474 v -9.96228 H 5.0526001 c -0.8050327,0 -0.9056618,-0.10063 -0.9056618,-0.90567 v -0.90566 h 2.7169853 2.7169852 v 0.90566 c 0,0.80504 -0.100629,0.90567 -0.9056618,0.90567 H 7.7695853 v 9.96228 9.96228 H 6.8639236 5.9582618 Z m 8.2833092,9.21641 -0.745864,-0.74586 0.08034,-8.23528 0.08034,-8.23529 0.83019,-0.0955 0.83019,-0.0955 v 8.17101 8.171 h 1.051674 1.051675 l 0.0804,-8.07548 0.0804,-8.07549 0.83019,-0.0955 0.83019,-0.0955 v 8.47289 c 0,8.07038 -0.02868,8.50158 -0.603775,9.07667 -0.925303,0.9253 -3.408837,0.84503 -4.395955,-0.14209 z m 9.829926,-8.34375 v -9.08961 l 2.222276,0.11222 c 3.202245,0.1617 3.211694,0.17584 3.211694,4.80381 0,3.61691 -0.04247,3.9002 -0.648341,4.32457 l -0.648341,0.45412 0.897396,4.24225 0.897397,4.24226 H 29.20065 c -0.773073,0 -0.828094,-0.11506 -1.479705,-3.09435 -1.059778,-4.8455 -1.222414,-5.3585 -1.698817,-5.3585 -0.365992,0 -0.441195,0.72041 -0.441195,4.22642 v 4.22643 h -0.754718 -0.754718 z m 3.924534,-4.19342 v -3.01888 h -1.207549 -1.207549 v 3.01888 3.01887 h 1.207549 1.207549 z m 6.943407,4.19342 v -9.08961 l 2.293878,0.11583 c 1.826451,0.0922 2.380094,0.23375 2.716985,0.69447 0.556351,0.76086 0.600179,6.80693 0.05331,7.3538 -0.291807,0.29181 -0.291807,0.49469 0,0.96195 0.240327,0.38482 0.3698,1.90878 0.3698,4.35271 0,4.54006 -0.115619,4.70047 -3.387932,4.70047 h -2.046038 z m 3.622647,3.78746 v -3.49083 l -0.981134,0.0946 -0.981133,0.0946 -0.08536,3.39623 -0.08536,3.39623 h 1.066493 1.066492 z m 0,-7.98088 v -3.01888 h -1.056606 -1.056605 v 3.01888 3.01887 h 1.056605 1.056606 z m 7.43695,12.65735 -0.795431,-0.62568 v -7.78037 c 0,-7.52633 0.02074,-7.79915 0.63547,-8.35546 0.462271,-0.41836 1.086634,-0.5751 2.290826,-0.5751 1.375459,0 1.752939,0.12051 2.232459,0.71269 0.533728,0.65913 0.577103,1.27847 0.577103,8.24016 v 7.52745 l -0.740997,0.741 c -0.971724,0.97173 -3.038529,1.02848 -4.19943,0.11531 z m 3.129104,-8.43093 v -7.2453 h -1.056606 -1.056605 v 7.2453 7.24529 h 1.056605 1.056606 z m 7.916241,8.58667 c -0.670211,-0.46944 -0.670947,-0.48086 -0.670947,-10.398 0,-9.91713 6.03e-4,-9.92856 0.670947,-10.39799 0.369018,-0.25847 1.289738,-0.46995 2.046038,-0.46995 0.7563,0 1.67702,0.21148 2.046038,0.46995 0.583792,0.40891 0.670947,0.74223 0.670947,2.56604 0,2.02264 -0.0259,2.0961 -0.738941,2.0961 -0.678577,0 -0.746396,-0.12948 -0.83019,-1.58491 l -0.09125,-1.58491 -1.132077,-0.0937 -1.132077,-0.0937 v 9.07484 9.07484 h 1.207549 1.207549 V 276.541 c 0,-4.0008 -0.03603,-4.26411 -0.603775,-4.41258 -0.390723,-0.10217 -0.603774,-0.41178 -0.603774,-0.8774 0,-0.65706 0.124459,-0.71953 1.433964,-0.71982 l 1.433965,-3e-4 -0.08759,6.03806 -0.08759,6.03805 h -2.033921 c -1.352258,0 -2.25878,-0.1575 -2.704861,-0.46995 z m 9.895106,-8.61967 v -9.08961 l 2.258977,0.11407 c 3.238185,0.16352 3.325937,0.29068 3.325937,4.81957 0,3.44856 -0.03681,3.66835 -0.705072,4.20947 l -0.705073,0.57094 0.87281,4.23259 0.872814,4.23259 h -0.822788 c -0.769112,0 -0.852789,-0.13294 -1.282649,-2.03774 -0.252928,-1.12076 -0.683878,-3.0298 -0.957671,-4.24231 -0.767171,-3.39745 -1.182097,-2.69975 -1.280896,2.15384 l -0.08399,4.12621 h -0.746199 -0.746199 z m 3.924535,-4.21165 v -3.03709 l -1.132078,0.0937 -1.132077,0.0937 -0.08849,2.5408 c -0.04867,1.39745 -0.01896,2.72198 0.066,2.94341 0.0884,0.23036 0.610557,0.40259 1.220572,0.40259 h 1.066079 z m 6.641519,4.7146 c 0,-8.531 0.0043,-8.58972 0.670947,-9.05662 0.993086,-0.69559 3.407523,-0.6179 4.159249,0.13382 0.575023,0.57503 0.603775,1.0063 0.603775,9.05662 v 8.45285 h -0.746429 -0.746431 l -0.08376,-4.3019 -0.08376,-4.30189 H 80.222525 79.16592 l -0.08376,4.30189 -0.08376,4.3019 H 78.251968 77.50554 Z m 3.773591,-4.69637 v -2.86793 l -1.132078,-0.0937 -1.132077,-0.0937 v 3.05532 3.05532 l 1.132077,-0.0937 1.132078,-0.0937 z m 6.188688,4.88789 c 0,-6.6187 0.08724,-8.51444 0.412264,-8.95895 0.302204,-0.41328 0.912991,-0.60002 2.287873,-0.69947 l 1.875611,-0.13567 -0.09919,0.86819 c -0.08991,0.78696 -0.219237,0.87688 -1.382212,0.96102 l -1.283021,0.0928 v 3.00152 3.00151 h 1.056605 c 0.925789,0 1.056606,0.0934 1.056606,0.75472 0,0.66128 -0.130817,0.75472 -1.056606,0.75472 h -1.056605 v 4.37736 4.37737 H 88.373482 87.46782 Z m 9.056618,5.07892 c 0,-3.16429 0.04194,-3.38439 0.91553,-4.80415 l 0.915531,-1.48793 -0.915531,-1.44364 c -0.851609,-1.34284 -0.91553,-1.64115 -0.91553,-4.27252 v -2.82887 l 0.83019,0.0955 c 0.822135,0.0946 0.830573,0.11824 0.86974,2.43685 0.03652,2.16163 0.510084,4.14925 0.98859,4.14925 0.110095,0 0.433238,-0.39455 0.718093,-0.87677 0.37539,-0.63548 0.51792,-1.55488 0.51792,-3.34081 v -2.46404 l 0.80132,0.0955 0.80132,0.0955 -0.0653,2.71699 c -0.0538,2.23969 -0.1946,2.94905 -0.80133,4.03803 -0.90354,1.62173 -0.90355,1.59536 0.002,3.02956 0.65883,1.04366 0.74386,1.53592 0.7942,4.59778 l 0.0564,3.42899 -0.79421,0.0955 -0.79421,0.0955 -0.002,-3.1144 c -10e-4,-2.51894 -0.10853,-3.27598 -0.559244,-3.95955 l -0.55726,-0.84515 -0.53275,0.81308 c -0.432432,0.65997 -0.523348,1.4018 -0.482811,3.9395 l 0.05007,3.12642 H 97.444646 96.524437 Z M 14.411105,258.67345 c 0,-3.47311 -0.04863,-3.79871 -0.624457,-4.18104 l -0.624457,-0.41463 0.80121,-1.43352 c 0.440666,-0.78844 0.843697,-1.43352 0.895625,-1.43352 0.05193,0 1.429448,1.08679 3.061156,2.4151 1.631708,1.3283 3.071949,2.4151 3.200535,2.4151 0.128587,0 0.233795,-1.36765 0.233795,-3.03922 0,-3.01133 0.0062,-3.03733 0.679246,-2.834 1.195703,0.36125 1.289768,0.69445 0.444986,1.57621 -0.777836,0.81188 -0.806608,0.96954 -0.888577,4.86916 l -0.08471,4.0301 -2.942899,-2.30113 c -1.618594,-1.26562 -3.078974,-2.30112 -3.245288,-2.30112 -0.170085,0 -0.302389,0.83623 -0.302389,1.91125 0,1.73433 0.0705,1.94899 0.761637,2.31887 0.931056,0.49829 0.866414,0.75571 -0.389437,1.55086 l -0.975974,0.61794 z m 10.164324,1.27293 c 0.488431,-0.60451 0.596476,-4.06176 0.143976,-4.60698 -0.286237,-0.3449 -0.265619,-0.47227 0.09911,-0.61223 0.661028,-0.25366 0.64414,-3.71884 -0.02171,-4.4546 -0.451377,-0.49876 -0.407898,-0.54601 0.679246,-0.73812 0.638821,-0.11288 2.433053,-0.46114 3.987181,-0.77391 1.554127,-0.31277 2.878658,-0.56867 2.9434,-0.56867 0.06474,0 0.117712,0.55547 0.117712,1.23438 v 1.23439 l -0.928824,-0.78156 c -1.00106,-0.84233 -1.613235,-0.94789 -2.825114,-0.48714 -0.729351,0.2773 -0.774371,0.41716 -0.774371,2.40563 0,2.30173 0.243298,2.46846 1.697269,1.16313 0.589423,-0.52916 0.656308,-0.5344 0.836267,-0.0654 0.107581,0.28035 0.10887,0.97206 0.0029,1.53713 -0.187481,0.99936 -0.212071,1.01473 -0.901117,0.56325 -1.410306,-0.92407 -1.635287,-0.67198 -1.635287,1.8323 0,1.97004 0.06788,2.27041 0.477521,2.11321 0.262637,-0.10078 0.751695,-0.18324 1.086794,-0.18324 0.3351,0 1.071161,-0.46189 1.63569,-1.02641 l 1.026417,-1.02642 v 0.99441 0.99442 l -3.698119,0.67438 c -2.033966,0.3709 -3.833968,0.751 -4.000006,0.84467 -0.166038,0.0937 -0.143043,-0.0263 0.0511,-0.26659 z M 35.97188,257.283 c -1.19023,-0.7258 -1.970688,-2.37782 -1.980491,-4.19215 -0.0174,-3.22129 2.021243,-5.72202 5.467763,-6.70709 0.652565,-0.18652 0.882305,-0.0507 1.583456,0.93583 l 0.820143,1.154 -0.656152,0.45959 c -0.609015,0.42657 -0.716825,0.40146 -1.50076,-0.3496 -0.716418,-0.68637 -0.968989,-0.76545 -1.66409,-0.52099 -1.769965,0.62246 -2.912898,4.15252 -1.80969,5.58941 1.036792,1.35038 2.725691,1.51091 4.449235,0.42288 0.660852,-0.41718 1.201551,-0.66382 1.201551,-0.54811 0,0.11572 -0.217284,0.9848 -0.482854,1.93128 -0.35645,1.27038 -0.676288,1.80901 -1.221753,2.05754 -1.128898,0.51436 -3.166175,0.40171 -4.206358,-0.23259 z"
         id="path1042"
         inkscape:connector-curvature="0" />
      <path
         style="fill:#ffffff;stroke-width:0.30188727"
         d="m 113.5339,282.90511 c -8.67563,-1.7766 -10.22605,-13.81397 -2.28172,-17.71513 1.4538,-0.71391 2.10494,-0.84714 4.14021,-0.84714 2.03527,0 2.68641,0.13323 4.14021,0.84714 7.00782,3.44128 6.87684,13.7527 -0.21568,16.97893 -1.77693,0.8083 -4.0302,1.09514 -5.78302,0.7362 z m -1.31133,-5.73206 c 0,-0.33543 -0.20126,-0.60378 -0.45283,-0.60378 -0.37736,0 -0.45283,-0.60377 -0.45283,-3.62265 v -3.62264 h -1.20755 c -1.08679,0 -1.20755,0.0755 -1.20755,0.75471 0,0.51753 0.16604,0.75472 0.52831,0.75472 0.46607,0 0.5283,0.33783 0.5283,2.86793 0,2.5301 -0.0622,2.86793 -0.5283,2.86793 -0.32705,0 -0.52831,0.23001 -0.52831,0.60378 0,0.53059 0.20126,0.60377 1.66038,0.60377 1.45912,0 1.66038,-0.0732 1.66038,-0.60377 z m 9.29813,0.24151 c 0.19925,-0.19925 0.36227,-1.12303 0.36227,-2.05284 0,-0.92981 -0.16302,-1.85359 -0.36227,-2.05283 -0.23902,-0.23902 -1.52285,-0.36227 -3.77359,-0.36227 h -3.41133 v -1.0566 -1.05661 h 3.16982 c 2.61636,0 3.16982,0.0791 3.16982,0.45283 0,0.25158 0.26834,0.45283 0.60377,0.45283 0.46002,0 0.60378,-0.20125 0.60378,-0.84528 0,-0.46491 -0.16302,-1.0083 -0.36227,-1.20755 -0.5008,-0.5008 -7.5294,-0.5008 -8.0302,0 -0.38844,0.38845 -0.53391,7.51641 -0.16101,7.88932 0.37379,0.37379 7.80243,0.22777 8.19121,-0.161 z m -7.18555,-1.97737 -6.1e-4,-1.13207 3.17046,0.0949 3.17045,0.0949 v 1.03718 1.03718 h -3.16982 -3.16981 l -6.1e-4,-1.13208 z M 5.9582618,272.64474 v -9.96228 H 5.0526001 c -0.8050327,0 -0.9056618,-0.10063 -0.9056618,-0.90567 v -0.90566 h 2.7169853 2.7169852 v 0.90566 c 0,0.80504 -0.100629,0.90567 -0.9056618,0.90567 H 7.7695853 v 9.96228 9.96228 H 6.8639236 5.9582618 Z m 8.2833092,9.21641 -0.745864,-0.74586 0.08034,-8.23528 0.08034,-8.23529 0.83019,-0.0955 0.83019,-0.0955 v 8.17101 8.171 h 1.051674 1.051675 l 0.0804,-8.07548 0.0804,-8.07549 0.83019,-0.0955 0.83019,-0.0955 v 8.47289 c 0,8.07038 -0.02868,8.50158 -0.603775,9.07667 -0.925303,0.9253 -3.408837,0.84503 -4.395955,-0.14209 z m 9.829926,-8.34375 v -9.08961 l 2.222276,0.11222 c 3.202245,0.1617 3.211694,0.17584 3.211694,4.80381 0,3.61691 -0.04247,3.9002 -0.648341,4.32457 l -0.648341,0.45412 0.897396,4.24225 0.897397,4.24226 H 29.20065 c -0.773073,0 -0.828094,-0.11506 -1.479705,-3.09435 -1.059778,-4.8455 -1.222414,-5.3585 -1.698817,-5.3585 -0.365992,0 -0.441195,0.72041 -0.441195,4.22642 v 4.22643 h -0.754718 -0.754718 z m 3.924534,-4.19342 v -3.01888 h -1.207549 -1.207549 v 3.01888 3.01887 h 1.207549 1.207549 z m 6.943407,4.19342 v -9.08961 l 2.293878,0.11583 c 1.826451,0.0922 2.380094,0.23375 2.716985,0.69447 0.556351,0.76086 0.600179,6.80693 0.05331,7.3538 -0.291807,0.29181 -0.291807,0.49469 0,0.96195 0.240327,0.38482 0.3698,1.90878 0.3698,4.35271 0,4.54006 -0.115619,4.70047 -3.387932,4.70047 h -2.046038 z m 3.622647,3.78746 v -3.49083 l -0.981134,0.0946 -0.981133,0.0946 -0.08536,3.39623 -0.08536,3.39623 h 1.066493 1.066492 z m 0,-7.98088 v -3.01888 h -1.056606 -1.056605 v 3.01888 3.01887 h 1.056605 1.056606 z m 7.43695,12.65735 -0.795431,-0.62568 v -7.78037 c 0,-7.52633 0.02074,-7.79915 0.63547,-8.35546 0.462271,-0.41836 1.086634,-0.5751 2.290826,-0.5751 1.375459,0 1.752939,0.12051 2.232459,0.71269 0.533728,0.65913 0.577103,1.27847 0.577103,8.24016 v 7.52745 l -0.740997,0.741 c -0.971724,0.97173 -3.038529,1.02848 -4.19943,0.11531 z m 3.129104,-8.43093 v -7.2453 h -1.056606 -1.056605 v 7.2453 7.24529 h 1.056605 1.056606 z M 14.411105,258.67345 c 0,-3.47311 -0.04863,-3.79871 -0.624457,-4.18104 l -0.624457,-0.41463 0.80121,-1.43352 c 0.440666,-0.78844 0.843697,-1.43352 0.895625,-1.43352 0.05193,0 1.429448,1.08679 3.061156,2.4151 1.631708,1.3283 3.071949,2.4151 3.200535,2.4151 0.128587,0 0.233795,-1.36765 0.233795,-3.03922 0,-3.01133 0.0062,-3.03733 0.679246,-2.834 1.195703,0.36125 1.289768,0.69445 0.444986,1.57621 -0.777836,0.81188 -0.806608,0.96954 -0.888577,4.86916 l -0.08471,4.0301 -2.942899,-2.30113 c -1.618594,-1.26562 -3.078974,-2.30112 -3.245288,-2.30112 -0.170085,0 -0.302389,0.83623 -0.302389,1.91125 0,1.73433 0.0705,1.94899 0.761637,2.31887 0.931056,0.49829 0.866414,0.75571 -0.389437,1.55086 l -0.975974,0.61794 z m 10.164324,1.27293 c 0.488431,-0.60451 0.596476,-4.06176 0.143976,-4.60698 -0.286237,-0.3449 -0.265619,-0.47227 0.09911,-0.61223 0.661028,-0.25366 0.64414,-3.71884 -0.02171,-4.4546 -0.451377,-0.49876 -0.407898,-0.54601 0.679246,-0.73812 0.638821,-0.11288 2.433053,-0.46114 3.987181,-0.77391 1.554127,-0.31277 2.878658,-0.56867 2.9434,-0.56867 0.06474,0 0.117712,0.55547 0.117712,1.23438 v 1.23439 l -0.928824,-0.78156 c -1.00106,-0.84233 -1.613235,-0.94789 -2.825114,-0.48714 -0.729351,0.2773 -0.774371,0.41716 -0.774371,2.40563 0,2.30173 0.243298,2.46846 1.697269,1.16313 0.589423,-0.52916 0.656308,-0.5344 0.836267,-0.0654 0.107581,0.28035 0.10887,0.97206 0.0029,1.53713 -0.187481,0.99936 -0.212071,1.01473 -0.901117,0.56325 -1.410306,-0.92407 -1.635287,-0.67198 -1.635287,1.8323 0,1.97004 0.06788,2.27041 0.477521,2.11321 0.262637,-0.10078 0.751695,-0.18324 1.086794,-0.18324 0.3351,0 1.071161,-0.46189 1.63569,-1.02641 l 1.026417,-1.02642 v 0.99441 0.99442 l -3.698119,0.67438 c -2.033966,0.3709 -3.833968,0.751 -4.000006,0.84467 -0.166038,0.0937 -0.143043,-0.0263 0.0511,-0.26659 z M 35.97188,257.283 c -1.19023,-0.7258 -1.970688,-2.37782 -1.980491,-4.19215 -0.0174,-3.22129 2.021243,-5.72202 5.467763,-6.70709 0.652565,-0.18652 0.882305,-0.0507 1.583456,0.93583 l 0.820143,1.154 -0.656152,0.45959 c -0.609015,0.42657 -0.716825,0.40146 -1.50076,-0.3496 -0.716418,-0.68637 -0.968989,-0.76545 -1.66409,-0.52099 -1.769965,0.62246 -2.912898,4.15252 -1.80969,5.58941 1.036792,1.35038 2.725691,1.51091 4.449235,0.42288 0.660852,-0.41718 1.201551,-0.66382 1.201551,-0.54811 0,0.11572 -0.217284,0.9848 -0.482854,1.93128 -0.35645,1.27038 -0.676288,1.80901 -1.221753,2.05754 -1.128898,0.51436 -3.166175,0.40171 -4.206358,-0.23259 z"
         id="path1040"
         inkscape:connector-curvature="0" />
    </g>
  </g>
</svg>
