<?xml version="1.0" encoding="UTF-8" standalone="no"?>
<svg
   version="1.1"
   viewBox="0 0 500 200"
   id="svg38"
   sodipodi:docname="ti99-mono.svg"
   width="500"
   height="200"
   inkscape:version="1.2.2 (b0a8486541, 2022-12-01)"
   xmlns:inkscape="http://www.inkscape.org/namespaces/inkscape"
   xmlns:sodipodi="http://sodipodi.sourceforge.net/DTD/sodipodi-0.dtd"
   xmlns="http://www.w3.org/2000/svg"
   xmlns:svg="http://www.w3.org/2000/svg">
  <defs
     id="defs42" />
  <sodipodi:namedview
     id="namedview40"
     pagecolor="#505050"
     bordercolor="#ffffff"
     borderopacity="1"
     inkscape:showpageshadow="0"
     inkscape:pageopacity="0"
     inkscape:pagecheckerboard="1"
     inkscape:deskcolor="#505050"
     showgrid="false"
     inkscape:zoom="1.5827407"
     inkscape:cx="366.45296"
     inkscape:cy="88.138254"
     inkscape:window-width="1670"
     inkscape:window-height="910"
     inkscape:window-x="0"
     inkscape:window-y="0"
     inkscape:window-maximized="1"
     inkscape:current-layer="svg38" />
  <path
     fill="#919191"
     d="m 351.25356,39.89569 h 24.05373 q 0.34701,4.463742 0.34701,11.435381 0.008,25.007995 -0.14196,36.632652 a 0.39432348,0.37855054 1.2 0 0 0.38644,0.386437 l 9.85809,0.181388 a 0.40220995,0.40220995 0 0 1 0.39432,0.40221 c -0.11041,9.589947 0.4653,14.574202 -0.0631,21.506412 a 0.41798289,0.41009642 2.3 0 1 -0.41799,0.37855 l -9.66881,0.18927 a 0.40220995,0.41798289 89.4 0 0 -0.41009,0.40221 l -0.1183,13.50164 a 0.71766874,0.74921462 0.3 0 1 -0.71767,0.74133 L 350.1731,125.5191 a 0.41009642,0.40220995 0 0 1 -0.41009,-0.40221 l -0.12619,-13.83287 a 0.41798289,0.40220995 89.4 0 0 -0.40221,-0.4101 h -41.79829 a 0.54416641,0.53627994 0 0 1 -0.54416,-0.53628 l -0.0473,-20.757191 a 1.0331275,1.0252411 66.1 0 1 0.26025,-0.686123 z m 2.10569,5.662485 c -13.68303,15.07893 -27.27141,30.189406 -40.92289,45.457611 a 1.0725599,1.0962193 65.1 0 0 -0.26814,0.709783 v 13.430661 a 0.39432348,0.39432348 0 0 0 0.39432,0.39432 h 41.96391 a 0.61514463,0.60725816 0.4 0 1 0.61514,0.61515 l -0.0473,13.64359 a 0.48107465,0.48107465 0 0 0 0.48896,0.48108 l 14.06158,-0.14196 a 0.48107465,0.49684759 89.5 0 0 0.48896,-0.48108 v -13.50952 a 0.60725816,0.60725816 0 0 1 0.60726,-0.60726 h 9.64515 a 0.39432348,0.39432348 0 0 0 0.39432,-0.39432 V 94.304444 a 0.46530171,0.44952877 0 0 0 -0.4653,-0.449529 l -9.62938,0.02366 a 0.55205288,0.56782582 0 0 1 -0.55205,-0.567826 v -47.38191 a 0.7018958,0.69400933 89.7 0 0 -0.7019,-0.701895 l -15.41805,0.03943 a 0.87539813,0.90694401 22 0 0 -0.65457,0.291799 z"
     id="path2"
     style="stroke-width:0.788647;fill:#ffffff" />
  <path
     fill="#919191"
     d="m 384.6291,125.10111 c 11.16724,-27.862899 22.54742,-55.568067 33.5175,-83.399418 a 0.58359875,0.58359875 0 0 1 0.54416,-0.378551 l 31.44336,-0.04732 a 0.59937169,0.59148522 79.1 0 1 0.55205,0.378551 l 33.54116,83.265348 a 0.53627994,0.53627994 0 0 1 -0.49685,0.74133 h -31.96386 a 0.70978227,0.73344168 81.5 0 1 -0.69401,-0.49685 l -4.04576,-12.30289 a 0.37066407,0.37066407 0 0 0 -0.35489,-0.26814 l -25.03166,0.10253 a 0.54416641,0.53627994 8.6 0 0 -0.52051,0.37855 l -3.86437,12.0032 a 0.82019284,0.84385225 9.2 0 1 -0.78864,0.5836 h -31.45124 a 0.41009642,0.41009642 0 0 1 -0.38644,-0.55994 z m 32.42916,-17.54739 a 0.57571228,0.61514463 10.5 0 1 0.57572,-0.42587 q 16.47483,0.45741 32.82348,0 a 0.51262053,0.51262053 0 0 1 0.49685,0.35489 l 4.0773,12.43696 a 0.520507,0.56782582 81.7 0 0 0.5284,0.35489 l 20.41807,0.0158 a 0.38643701,0.38643701 0 0 0 0.36278,-0.5284 L 447.10571,47.198561 a 0.94637636,0.95426283 79.3 0 0 -0.88328,-0.599372 h -23.76194 a 0.56782582,0.56782582 0 0 0 -0.52839,0.354891 l -29.32978,72.80789 a 0.38643701,0.37066407 10.6 0 0 0.36278,0.51262 h 19.51112 a 0.58359875,0.51262053 8.2 0 0 0.53628,-0.35489 z"
     id="path4"
     style="stroke-width:0.788647;fill:#ffffff" />
  <path
     fill="#919191"
     d="m 183.27964,88.720824 q -5.76501,5.394345 -12.23191,6.624634 c -18.81712,3.59623 -35.27618,-9.724017 -32.9339,-29.321894 2.47635,-20.725642 21.77454,-25.394432 39.39292,-23.564771 26.71147,2.776037 32.61844,27.728827 29.33766,50.03965 -3.61989,24.645217 -20.78873,33.801417 -44.34561,30.796667 q -16.97957,-2.16878 -22.7367,-18.38336 a 0.29968585,0.29968585 0 0 1 0.24448,-0.40221 l 22.60263,-2.6814 a 0.44952877,0.45741524 82.3 0 1 0.50473,0.37855 c 1.73502,11.7745 15.71773,9.62149 18.43857,-0.37855 q 1.73502,-6.380158 2.00316,-12.981133 0.0158,-0.40221 -0.27603,-0.126183 z M 161.24485,75.305939 c 3.88803,10.891214 19.29819,8.651457 21.34867,-2.216098 1.59307,-8.42275 -2.64985,-18.091562 -12.6499,-17.342347 -9.70824,0.733442 -11.30131,12.26346 -8.69877,19.558445 z"
     id="path6"
     style="stroke-width:0.788647;fill:#ffffff" />
  <path
     fill="#919191"
     d="m 256.63958,89.249217 q 0.11041,-1.135651 -0.74132,-0.37855 c -21.04111,18.738253 -52.45291,-1.49843 -43.57275,-28.478042 4.56627,-13.880187 18.14677,-18.746139 31.97175,-18.414907 12.26346,0.283913 23.04426,3.335977 29.89761,14.108894 5.55996,8.746095 6.92432,21.056874 6.10412,31.601084 -1.30126,16.703544 -7.31075,30.197294 -25.15784,34.771444 q -5.48898,1.4038 -11.94011,1.26184 c -13.95117,-0.2918 -25.24459,-4.03787 -30.426,-18.47011 a 0.60725816,0.61514463 76.6 0 1 0.50473,-0.81231 l 22.05846,-2.58676 a 0.65457698,0.66246345 82.5 0 1 0.72555,0.55205 c 1.75869,11.94012 16.02531,9.14042 18.51744,-1.19086 q 1.52208,-6.309174 2.05836,-11.963773 z m -1.25394,-16.230354 c 4.55837,-22.744579 -27.88656,-23.564772 -21.66414,1.261835 2.91011,11.640429 19.31397,10.481118 21.66414,-1.261835 z"
     id="path8"
     style="stroke-width:0.788647;fill:#ffffff" />
  <path
     fill="#919191"
     d="m 304.10036,54.580297 q 2.53155,-5.985831 5.19718,-11.90857 a 0.65457698,0.54416641 9.1 0 1 0.55994,-0.331231 l 9.44799,-0.13407 a 0.75710109,0.72555521 11 0 1 0.71767,1.017354 l -35.41813,80.63127 a 0.71766874,0.71766874 0 0 1 -0.65458,0.42587 h -8.81707 a 0.35489113,0.35489113 0 0 1 -0.32335,-0.48896 q 14.79502,-34.952839 29.29035,-69.211663 z"
     id="path10"
     style="stroke-width:0.788647;fill:#ffffff" />
  <path
     fill="#919191"
     d="m 11.465012,61.38632 v -9.266602 l 0.03155,-8.966916 a 0.68612286,0.69400933 0 0 1 0.686123,-0.694009 h 66.411961 a 0.52839347,0.52839347 0 0 1 0.528393,0.528393 l -0.04732,19.132576 a 0.39432348,0.40220995 0 0 1 -0.394324,0.40221 l -22.097888,0.04732 a 0.52839347,0.520507 0 0 0 -0.528393,0.520507 v 57.926121 a 1.1119922,1.1119922 0 0 1 -1.167198,1.11199 q -10.268183,-0.4653 -20.583686,0.008 A 0.69400933,0.69400933 0 0 1 33.578673,121.4419 V 63.294846 a 0.71766874,0.7018958 89.7 0 0 -0.709782,-0.717669 l -20.733529,0.13407 A 0.52839347,0.64669051 81.4 0 1 11.559649,62.372129 Q 11.386147,61.9226 11.465012,61.38632 Z"
     id="path12"
     style="stroke-width:0.788647;fill:#ffffff" />
  <rect
     fill="#919191"
     x="85.394287"
     y="42.290276"
     transform="rotate(0.1)"
     width="22.460665"
     height="79.653343"
     rx="0.44952875"
     id="rect14"
     style="stroke-width:0.788647;fill:#ffffff" />
  <path
     fill="#919191"
     d="m 421.34062,95.187729 12.55526,-38.793544 a 0.25236703,0.25236703 0 0 1 0.48107,-0.0079 l 12.68933,38.754112 a 0.25236703,0.25236703 0 0 1 -0.23659,0.331232 l -25.25248,0.04732 a 0.25236703,0.25236703 0 0 1 -0.23659,-0.33122 z m 7.35807,-5.331254 a 0.25236703,0.25236703 0 0 0 0.2366,0.331232 l 10.48111,-0.03943 a 0.25236703,0.25236703 0 0 0 0.2366,-0.331232 l -5.29182,-15.985874 a 0.25236703,0.25236703 0 0 0 -0.48108,0 z"
     id="path16"
     style="stroke-width:0.788647;fill:#ffffff" />
  <path
     fill="#919191"
     d="m 352.79931,61.607141 q 0.74133,-0.820193 1.86909,-1.766569 0.48108,-0.40221 0.48108,0.228707 v 33.067968 a 0.7807605,0.7807605 0 0 1 -0.78076,0.78076 h -29.99225 q -0.82019,0 -0.26814,-0.607258 14.3376,-15.796599 28.69098,-31.703608 z M 348.79298,74.288584 336.1904,87.94795 q -0.41798,0.449528 0.19716,0.449528 h 12.79186 a 0.45741524,0.46530171 0.5 0 0 0.45741,-0.457415 l 0.11041,-13.257155 q 0.0158,-1.443224 -0.95426,-0.394324 z"
     id="path18"
     style="stroke-width:0.788647;fill:#ffffff" />
  <rect
     fill="#919191"
     x="114.276"
     y="71.85585"
     transform="rotate(-0.1)"
     width="20.110498"
     height="15.77294"
     rx="0.46530169"
     id="rect20"
     style="stroke-width:0.788647;fill:#ffffff" />
  <path
     fill="#919191"
     d="m 231.68679,142.77469 0.0789,-5.43378 a 0.7018958,0.61514463 79.5 0 1 0.35489,-0.59937 l 4.70822,-2.22398 a 0.28391291,0.26813997 77.7 0 1 0.37855,0.26025 l 0.0394,7.94956 a 0.45741524,0.41798289 89.5 0 0 0.42587,0.45742 l 4.45586,-0.0868 a 0.48896112,0.7018958 80.8 0 1 0.59937,0.2918 q 0.43376,0.92271 0.008,2.77603 a 0.59148522,0.54416641 5.3 0 1 -0.55994,0.42587 l -4.38488,0.071 a 0.41798289,0.45741524 0.6 0 0 -0.4101,0.44164 q -0.33123,7.38962 -0.0158,14.77136 c 0.14196,3.28866 1.90064,3.74607 4.77132,3.0915 a 0.82807931,0.8832846 78.5 0 1 1.05678,0.64669 l 0.48896,2.78392 a 0.39432348,0.43375583 79.5 0 1 -0.35489,0.4653 c -3.4385,0.64669 -9.60572,0.88329 -11.20667,-3.17824 q -0.65458,-1.67194 -0.55205,-5.91486 0.15773,-6.30917 0.15773,-12.33444 a 0.91483048,0.91483048 0 0 0 -1.10411,-0.89117 q -4.1956,0.90695 -2.92588,-2.91799 a 0.58359875,0.52839347 7.7 0 1 0.52839,-0.36278 l 3.05995,-0.0789 a 0.41009642,0.41798289 0 0 0 0.40221,-0.4101 z"
     id="path22"
     style="stroke-width:0.788647;fill:#ffffff" />
  <path
     fill="#919191"
     d="m 59.651342,159.58864 c 1.151424,-0.0867 5.678258,-0.26814 4.850179,1.78235 -3.911689,9.67669 -17.744557,10.17354 -24.763515,4.46374 -3.659322,-2.98109 -4.353331,-8.61203 -3.612003,-13.05211 1.111992,-6.60886 7.381735,-9.91329 13.675138,-10.12623 6.419587,-0.22082 11.419608,1.19875 14.40858,7.35019 a 0.50473406,0.45741524 73.1 0 1 -0.339118,0.70979 l -4.605698,0.52839 a 0.60725816,0.48896112 73 0 1 -0.552053,-0.37066 c -2.381714,-5.61517 -9.818655,-5.86754 -13.943278,-2.78393 -2.965313,2.20821 -3.430615,6.4117 -3.004745,9.99216 1.096219,9.25083 14.976406,11.0174 17.397552,1.9243 a 0.53627994,0.55993935 6 0 1 0.488961,-0.41799 z"
     id="path24"
     style="stroke-width:0.788647;fill:#ffffff" />
  <path
     fill="#919191"
     d="m 67.687654,154.2495 c 1.20663,-15.33918 28.919685,-15.48114 31.001713,-0.94637 0.891171,6.24608 -1.20663,12.05841 -7.50792,14.56631 -10.630961,4.22714 -24.590012,0.37066 -23.493793,-13.61994 z m 25.222586,0.84504 a 8.848619,8.848619 0 0 0 -8.833161,-8.864 l -1.750796,-0.003 a 8.848619,8.848619 0 0 0 -8.864077,8.83316 l -0.0033,1.90852 a 8.848619,8.848619 0 0 0 8.833161,8.864 l 1.750797,0.003 a 8.848619,8.848619 0 0 0 8.864076,-8.83317 z"
     id="path26"
     style="stroke-width:0.788647;fill:#ffffff" />
  <path
     fill="#919191"
     d="m 110.81876,146.25262 c 5.04734,-4.23503 14.75558,-5.76501 19.09314,0.47319 a 0.35489113,0.35489113 0 0 0 0.5284,0.0631 q 6.23031,-5.7098 13.84075,-3.69875 c 4.09308,1.08045 6.43536,3.51736 6.45902,7.8076 q 0.0631,8.69878 -0.18139,17.39756 a 0.41009642,0.45741524 1.1 0 1 -0.4101,0.44164 l -4.42431,0.0552 a 0.56782582,0.60725816 0.8 0 1 -0.57571,-0.63091 q 0.25237,-8.91171 -0.26025,-17.05844 c -0.15773,-2.4448 -1.44323,-4.29024 -3.85648,-4.5426 q -11.10415,-1.15931 -10.05525,10.05524 0.25236,2.66563 -0.13407,11.67987 a 0.41009642,0.46530171 1.1 0 1 -0.4101,0.44953 l -4.63724,-0.008 a 0.45741524,0.40220995 88.8 0 1 -0.40221,-0.44164 q -0.36278,-11.26977 -0.13407,-15.42594 0.37855,-7.01896 -6.90067,-6.30917 c -5.84387,0.56782 -7.04261,3.68298 -7.20823,9.23505 q -0.18139,6.19877 -0.0789,12.63413 a 0.40220995,0.40220995 0 0 1 -0.40221,0.41009 h -4.67667 a 0.4416423,0.43375583 0.5 0 1 -0.44165,-0.44164 l 0.13407,-24.84238 a 0.38643701,0.41009642 1.1 0 1 0.40221,-0.4101 l 3.84072,0.16562 a 0.48107465,0.46530171 0 0 1 0.44952,0.44164 l 0.14985,2.36594 q 0.0158,0.37067 0.2918,0.13407 z"
     id="path28"
     style="stroke-width:0.788647;fill:#ffffff" />
  <path
     fill="#919191"
     d="m 164.44675,178.69756 h -5.1262 l -0.14196,-35.03958 a 0.59937169,0.56782582 1.1 0 1 0.62303,-0.56783 l 3.8486,0.16562 a 0.50473406,0.59148522 84.3 0 1 0.52839,0.37066 q 0.28392,0.93849 -0.0158,1.76657 -0.47319,1.31704 0.64669,0.47319 6.2934,-4.73188 13.6988,-2.72084 c 12.8234,3.47005 12.63412,21.28559 0.28391,25.42598 -5.14198,1.71925 -9.3849,0.9937 -13.73823,-2.05837 q -0.40221,-0.27602 -0.41009,0.22083 z m 7.82456,-12.70928 a 9.1798507,10.055249 5.8 0 0 10.14902,-9.07607 9.1798507,10.055249 5.8 0 0 -8.11667,-10.93143 9.1798507,10.055249 5.8 0 0 -10.14902,9.07606 9.1798507,10.055249 5.8 0 0 8.11667,10.93144 z"
     id="path30"
     style="stroke-width:0.788647;fill:#ffffff" />
  <path
     fill="#919191"
     d="m 252.42821,157.58548 c 1.55363,9.71613 13.80132,11.10415 19.10103,3.30443 a 0.70978227,0.59148522 16.7 0 1 0.60726,-0.26025 l 3.93535,0.32334 a 0.92271695,0.87539813 16 0 1 0.76498,1.29338 c -6.4669,11.79816 -30.76512,9.21929 -30.15786,-6.32494 0.40221,-10.39437 9.43222,-14.25874 18.54898,-13.01268 q 11.93223,1.6325 12.2398,13.56473 a 0.52839347,0.52839347 0 0 1 -0.52839,0.53628 l -24.15626,0.14984 a 0.3627776,0.3627776 0 0 0 -0.35489,0.42587 z m 0.89906,-6.26186 q -1.459,2.2161 1.16719,2.23187 l 15.80449,0.0868 a 1.041014,1.0252411 82.5 0 0 0.99369,-1.30916 c -1.52208,-5.61516 -7.61044,-7.17669 -12.5868,-5.67826 q -2.89434,0.8754 -5.37857,4.66879 z"
     id="path32"
     style="stroke-width:0.788647;fill:#ffffff" />
  <path
     fill="#919191"
     d="m 289.92837,146.4419 q 4.724,-6.16722 11.97166,-2.57888 a 0.45741524,0.41009642 25.4 0 1 0.2366,0.55206 l -1.25395,2.82335 a 1.0962193,0.93848989 19.3 0 1 -1.24606,0.48896 q -5.03157,-1.41167 -7.50792,1.10411 c -3.29655,3.34386 -2.42115,14.89754 -2.08992,19.31396 a 0.60725816,0.56782582 88.1 0 1 -0.56782,0.65458 l -4.55838,-0.0631 a 0.41009642,0.44952877 0.5 0 1 -0.40221,-0.44953 l -0.13407,-24.39285 a 0.67823639,0.69400933 89.7 0 1 0.69401,-0.68612 h 3.58045 a 0.81230637,0.81230637 0 0 1 0.78865,1.00946 q -0.35489,1.4038 0.0473,2.2161 a 0.24448056,0.27602644 49.4 0 0 0.44164,0.008 z"
     id="path34"
     style="stroke-width:0.788647;fill:#ffffff" />
  <path
     fill="#919191"
     d="m 216.38704,165.59813 q -8.12306,6.74294 -17.63414,2.10569 -3.78551,-1.84543 -3.90381,-6.55365 -0.20504,-8.2808 0.0316,-17.35024 a 0.59937169,0.59937169 0 0 1 0.59937,-0.59148 h 4.29813 a 0.59937169,0.59937169 0 0 1 0.59937,0.59937 q 0,8.2729 -0.0158,15.76505 c -0.0158,7.84704 11.37229,7.6341 14.70038,2.61831 2.01893,-3.04418 1.15142,-14.43224 1.08044,-18.5332 a 0.4416423,0.4416423 0 0 1 0.44164,-0.44953 h 4.58993 a 0.69400933,0.69400933 0 0 1 0.69401,0.69401 v 24.23512 a 0.60725816,0.65457698 0.3 0 1 -0.61515,0.65457 l -3.97478,-0.0473 a 0.46530171,0.4416423 88.9 0 1 -0.43375,-0.44165 l -0.15773,-2.57099 q -0.0158,-0.37066 -0.29969,-0.13407 z"
     id="path36"
     style="stroke-width:0.788647;fill:#ffffff" />
</svg>
