<?xml version="1.0" encoding="UTF-8" standalone="no"?>
<svg
   xmlns:dc="http://purl.org/dc/elements/1.1/"
   xmlns:cc="http://creativecommons.org/ns#"
   xmlns:rdf="http://www.w3.org/1999/02/22-rdf-syntax-ns#"
   xmlns:svg="http://www.w3.org/2000/svg"
   xmlns="http://www.w3.org/2000/svg"
   xmlns:xlink="http://www.w3.org/1999/xlink"
   xmlns:sodipodi="http://sodipodi.sourceforge.net/DTD/sodipodi-0.dtd"
   xmlns:inkscape="http://www.inkscape.org/namespaces/inkscape"
   width="461.71844"
   height="176.27106"
   viewBox="0 0 100.86092 38.506402"
   version="1.1"
   id="svg14"
   sodipodi:docname="Ultimate_.svg"
   inkscape:version="0.92.5 (2060ec1f9f, 2020-04-08)">
  <metadata
     id="metadata20">
    <rdf:RDF>
      <cc:Work
         rdf:about="">
        <dc:format>image/svg+xml</dc:format>
        <dc:type
           rdf:resource="http://purl.org/dc/dcmitype/StillImage" />
        <dc:title></dc:title>
      </cc:Work>
    </rdf:RDF>
  </metadata>
  <defs
     id="defs18"><linearGradient
   id="linearGradient1708">
  <stop
     offset="0"
     style="stop-color:#fcff01;stop-opacity:1"
     id="stop1698" />
  <stop
     offset="0.24505855"
     style="stop-color:#ff720c;stop-opacity:1"
     id="stop1700" />
  <stop
     offset="0.48089126"
     style="stop-color:#b300e5;stop-opacity:1"
     id="stop1702" />
  <stop
     offset="0.78216583"
     style="stop-color:#31e1fd;stop-opacity:1"
     id="stop1704" />
  <stop
     offset="1"
     style="stop-color:#00bf19;stop-opacity:1"
     id="stop1706" />
</linearGradient>

	
	
	
	
<linearGradient
   x1="287.04117"
   y1="350.87671"
   x2="348.69205"
   y2="275.90128"
   id="linearGradient3545"
   xlink:href="#linearGradient3539"
   gradientUnits="userSpaceOnUse"
   gradientTransform="matrix(0.27391884,0,0,0.27391884,-74.12342,-68.696897)" />
<linearGradient
   id="linearGradient3539">
  <stop
     id="stop3541"
     style="stop-color:#bf0000;stop-opacity:1"
     offset="0" />
  <stop
     id="stop3547"
     style="stop-color:#bf0000;stop-opacity:1"
     offset="0.3747088" />
  <stop
     id="stop3543"
     style="stop-color:#fbe40a;stop-opacity:1"
     offset="1" />
</linearGradient>
<linearGradient
   x1="289.83875"
   y1="355.51709"
   x2="639.31293"
   y2="355.51709"
   id="linearGradient3555"
   xlink:href="#linearGradient3549"
   gradientUnits="userSpaceOnUse"
   gradientTransform="matrix(0.27391884,0,0,0.27391884,-74.12342,-68.696897)" />
<linearGradient
   id="linearGradient3549">
  <stop
     id="stop3551"
     style="stop-color:#bf0000;stop-opacity:1"
     offset="0" />
  <stop
     id="stop3557"
     style="stop-color:#fff20c;stop-opacity:1"
     offset="0.24505855" />
  <stop
     id="stop3559"
     style="stop-color:#0ce500;stop-opacity:1"
     offset="0.44498077" />
  <stop
     id="stop3561"
     style="stop-color:#31e1fd;stop-opacity:1"
     offset="0.64282119" />
  <stop
     id="stop3553"
     style="stop-color:#0019bf;stop-opacity:1"
     offset="1" />
</linearGradient>
</defs>
  <sodipodi:namedview
     pagecolor="#ffffff"
     bordercolor="#666666"
     borderopacity="1"
     objecttolerance="10"
     gridtolerance="10"
     guidetolerance="10"
     inkscape:pageopacity="0"
     inkscape:pageshadow="2"
     inkscape:window-width="1366"
     inkscape:window-height="743"
     id="namedview16"
     showgrid="false"
     inkscape:pagecheckerboard="true"
     inkscape:zoom="1.3368561"
     inkscape:cx="245.0941"
     inkscape:cy="171.9702"
     inkscape:window-x="0"
     inkscape:window-y="0"
     inkscape:window-maximized="1"
     inkscape:current-layer="svg14" />
  <path
     d="m 2.2080628,38.499963 c 0.318527,0 0.628315,-0.07475 0.929362,-0.224231 0.301048,-0.149493 0.548684,-0.350236 0.742908,-0.60223 v 0 l -0.553539,-0.602229 c -0.143726,0.183658 -0.308817,0.324605 -0.495272,0.422845 -0.186455,0.09823 -0.386506,0.147351 -0.600152,0.147351 -0.19034,0 -0.366113,-0.03737 -0.527319,-0.112117 C 1.5428444,37.454606 1.4030033,37.353166 1.2845262,37.225034 1.1660493,37.0969 1.072822,36.944208 1.0048433,36.766957 c -0.067978,-0.177253 -0.10196708,-0.368385 -0.10196708,-0.5734 0,-0.209284 0.033017,-0.402552 0.099054,-0.579805 0.066036,-0.177251 0.1573218,-0.331013 0.2738563,-0.461281 0.1165341,-0.130268 0.2554045,-0.232775 0.4166114,-0.30752 0.161206,-0.07475 0.3330941,-0.112114 0.5156651,-0.112114 0.217531,0 0.423409,0.05232 0.617633,0.156961 0.194224,0.104647 0.363199,0.255201 0.506925,0.451671 v 0 L 3.90364,34.720019 C 3.7133,34.463755 3.464693,34.259809 3.157819,34.108185 2.850945,33.956556 2.534359,33.880747 2.208063,33.880747 c -0.30299,0 -0.587529,0.05981 -0.8536157,0.179389 -0.2660872,0.119587 -0.49624304,0.28189 -0.690467,0.486904 -0.194224,0.205015 -0.3476613,0.449537 -0.4603113,0.733565 -0.1126497,0.28403 -0.16897459,0.588345 -0.16897459,0.912952 0,0.324602 0.05535099,0.627858 0.16606089,0.909752 0.1107079,0.281892 0.263174,0.525345 0.4573982,0.73036 0.19422426,0.205013 0.4243798,0.367319 0.6904671,0.486908 0.2660874,0.119591 0.5525684,0.179386 0.8594422,0.179386 z m 11.0416452,0.0064 c 0.302989,0 0.586557,-0.05979 0.850702,-0.179386 0.264145,-0.119592 0.492356,-0.282959 0.68464,-0.490112 0.192281,-0.207148 0.344748,-0.452739 0.457399,-0.736766 0.112652,-0.28403 0.168973,-0.586217 0.168973,-0.906548 0,-0.320335 -0.05632,-0.622517 -0.168973,-0.906544 -0.112651,-0.284033 -0.265118,-0.529622 -0.457399,-0.73677 -0.192284,-0.20715 -0.420495,-0.37052 -0.68464,-0.490112 -0.264145,-0.119592 -0.547713,-0.179386 -0.850702,-0.179386 -0.299106,0 -0.580731,0.05979 -0.844876,0.179386 -0.264146,0.119592 -0.492357,0.282962 -0.684641,0.490112 -0.192281,0.207148 -0.344747,0.452737 -0.457397,0.736769 -0.112649,0.284027 -0.168975,0.586208 -0.168975,0.906544 0,0.320331 0.05633,0.622517 0.168975,0.906546 0.11265,0.284028 0.265116,0.529618 0.457397,0.736767 0.192284,0.207152 0.420495,0.37052 0.684641,0.490112 0.264145,0.119593 0.54577,0.179386 0.844876,0.179386 z m 0,-0.852089 c -0.182569,0 -0.352517,-0.03737 -0.509837,-0.112117 -0.157323,-0.07475 -0.293279,-0.177249 -0.407873,-0.307519 -0.114591,-0.130271 -0.204906,-0.285099 -0.270942,-0.464486 -0.06604,-0.179392 -0.09906,-0.37159 -0.09906,-0.576602 0,-0.209283 0.03302,-0.402553 0.09906,-0.579803 0.06603,-0.177254 0.156351,-0.331014 0.270942,-0.461282 0.114594,-0.130271 0.25055,-0.232779 0.407873,-0.307523 0.15732,-0.07475 0.327268,-0.112117 0.509837,-0.112117 0.18257,0 0.353488,0.03737 0.512752,0.112117 0.159263,0.07475 0.296192,0.177252 0.410786,0.307523 0.114589,0.130268 0.204904,0.284028 0.270943,0.461282 0.06603,0.17725 0.09906,0.37052 0.09906,0.579803 0,0.205012 -0.03302,0.39721 -0.09906,0.576602 -0.06604,0.179387 -0.156354,0.334215 -0.270943,0.464486 -0.114594,0.13027 -0.251523,0.232775 -0.410786,0.307518 -0.159264,0.07475 -0.330182,0.112116 -0.512752,0.112116 z m 12.807144,0.781659 V 37.615837 H 23.825219 V 33.951216 H 22.98034 v 4.484674 z m 10.651253,0 v -0.820096 h -2.231638 v -3.664621 h -0.844871 v 4.484674 z m 10.732828,0 v -0.807279 h -2.31321 v -1.063511 h 1.509124 v -0.781614 h -1.509124 v -1.025068 h 2.289905 v -0.807242 h -3.134777 v 4.484678 z m 9.369376,0.06406 c 0.318531,0 0.628317,-0.07475 0.929362,-0.224234 0.30105,-0.149488 0.548685,-0.350232 0.742911,-0.602228 v 0 l -0.553538,-0.602228 c -0.143725,0.183659 -0.308818,0.324603 -0.495276,0.42284 -0.186455,0.09823 -0.386506,0.147352 -0.600153,0.147352 -0.190335,0 -0.366112,-0.03737 -0.527314,-0.112114 -0.16121,-0.07475 -0.30105,-0.176188 -0.419525,-0.304319 -0.118478,-0.128132 -0.211709,-0.280824 -0.279681,-0.458077 -0.06799,-0.177251 -0.101977,-0.368387 -0.101977,-0.5734 0,-0.209283 0.03302,-0.402552 0.09906,-0.579803 0.06603,-0.177254 0.157317,-0.331013 0.273854,-0.461281 0.116536,-0.130271 0.255403,-0.232778 0.416611,-0.307523 0.161205,-0.07475 0.333094,-0.112116 0.515664,-0.112116 0.217534,0 0.423409,0.05232 0.617632,0.156967 0.194225,0.104646 0.363203,0.255194 0.506928,0.451665 v 0 l 0.571015,-0.621445 c -0.190333,-0.256268 -0.438945,-0.460214 -0.745821,-0.61184 -0.30687,-0.151623 -0.623457,-0.227434 -0.949754,-0.227434 -0.30299,0 -0.587527,0.0598 -0.853614,0.179385 -0.266086,0.119593 -0.496243,0.281894 -0.690468,0.486909 -0.194223,0.205016 -0.347658,0.449534 -0.460309,0.733564 -0.112653,0.284028 -0.168978,0.588344 -0.168978,0.912952 0,0.324602 0.05535,0.627856 0.166061,0.909749 0.110712,0.281895 0.263175,0.52535 0.457401,0.730362 0.19422,0.205015 0.424377,0.367318 0.690464,0.486907 0.266091,0.119589 0.552567,0.179387 0.859443,0.179387 z m 11.175662,-0.06406 v -3.664622 h 1.369278 v -0.820054 h -3.589263 v 0.820053 h 1.375111 v 3.664621 z m 9.678193,0 V 33.951258 H 76.81929 v 4.484675 z m 9.730631,0.07047 c 0.30299,0 0.586558,-0.05979 0.850702,-0.179386 0.264145,-0.119591 0.49236,-0.28296 0.684641,-0.490111 0.192283,-0.207149 0.344746,-0.452739 0.457398,-0.736767 0.11265,-0.284029 0.168975,-0.586215 0.168975,-0.906548 0,-0.320335 -0.05633,-0.622516 -0.168975,-0.906543 -0.112652,-0.284031 -0.265115,-0.529621 -0.457398,-0.736769 -0.192281,-0.207149 -0.420496,-0.370519 -0.684641,-0.490112 -0.264144,-0.119592 -0.547712,-0.179385 -0.850702,-0.179385 -0.299106,0 -0.580728,0.05979 -0.844878,0.179385 -0.264141,0.119593 -0.49236,0.282963 -0.684635,0.490112 -0.192285,0.207148 -0.344752,0.452738 -0.457399,0.73677 -0.112653,0.284026 -0.168977,0.586208 -0.168977,0.906543 0,0.320333 0.05633,0.622518 0.168977,0.906547 0.112647,0.284028 0.265114,0.529618 0.457399,0.736767 0.192275,0.207152 0.420494,0.37052 0.684635,0.490111 0.26415,0.119593 0.545772,0.179386 0.844878,0.179386 z m 0,-0.852089 c -0.182567,0 -0.352519,-0.03737 -0.509836,-0.112117 -0.157323,-0.07475 -0.293279,-0.177247 -0.407874,-0.307517 -0.114591,-0.130271 -0.204903,-0.285098 -0.270944,-0.464485 -0.06603,-0.179393 -0.09905,-0.37159 -0.09905,-0.576603 0,-0.209283 0.03302,-0.402552 0.09905,-0.579803 0.06604,-0.177254 0.156353,-0.331013 0.270944,-0.461281 0.114595,-0.130272 0.250551,-0.232779 0.407874,-0.307523 0.157317,-0.07475 0.327269,-0.112117 0.509836,-0.112117 0.182568,0 0.35349,0.03737 0.512752,0.112117 0.159267,0.07475 0.296195,0.177251 0.410786,0.307523 0.114589,0.130268 0.204904,0.284027 0.27094,0.461281 0.06604,0.177251 0.09906,0.37052 0.09906,0.579803 0,0.205013 -0.03302,0.39721 -0.09906,0.576603 -0.06604,0.179387 -0.156351,0.334214 -0.27094,0.464485 -0.114591,0.13027 -0.251519,0.232776 -0.410786,0.307518 -0.159262,0.07475 -0.330184,0.112116 -0.512752,0.112116 z m 10.528898,0.781614 v -2.998325 l 2.080137,2.998327 h 0.74583 v -4.484675 h -0.792439 v 2.902228 l -2.027708,-2.902228 h -0.80408 v 4.484675 z"
     id="COLLECTION"
     inkscape:connector-curvature="0"
     style="fill:#ffffff;fill-rule:nonzero;stroke:none;stroke-width:0.26109254" />
  <path
     style="fill:#ffffff;stroke-width:0.16699067"
     d="M 3.7151413,-4.7009124e-7 3.4356273,0.42628109 C 3.2819859,0.66076833 3.0290835,0.83996554 2.8736648,0.82451556 2.2594783,0.76346017 2.0526636,0.85172178 1.8700899,1.2524292 1.7654717,1.4820416 1.5656057,1.669906 1.4258693,1.669906 c -0.1397378,0 -0.2540743,0.1034158 -0.2540743,0.2299381 0,0.1265223 -0.1127174,0.323686 -0.25048613,0.4380248 C 0.78354096,2.4522038 0.6708228,2.7227204 0.6708228,2.9389698 c 0,0.2351201 -0.16782549,0.5030812 -0.41747681,0.6666572 l -0.41747681,0.2736439 v 11.3168801 11.31688 l 0.41747681,0.273642 c 0.25478221,0.166941 0.41747681,0.431002 0.41747681,0.677421 0,0.222075 0.0799178,0.453103 0.17742757,0.513366 0.097511,0.06027 0.24583523,0.290067 0.32974113,0.510756 0.083908,0.22069 0.2621001,0.40117 0.3959519,0.40117 0.1338509,0 0.2910095,0.150292 0.3493091,0.333982 0.080912,0.254925 0.2527557,0.333981 0.725693,0.333981 0.4129483,0 0.7148135,0.11139 0.9054023,0.333982 0.2846908,0.332493 0.4927958,0.333981 46.6853092,0.333981 46.187086,0 46.400424,-0.0015 46.701291,-0.333981 0.180658,-0.199626 0.514304,-0.333982 0.829409,-0.333982 0.5233,0 1.030005,-0.469951 1.305594,-1.210682 0.05979,-0.160729 0.215877,-0.292234 0.3467,-0.292234 0.260796,0 0.440633,-0.347796 0.440633,-0.852566 0,-0.192433 0.169876,-0.38922 0.417476,-0.483359 l 0.41747,-0.158511 -0.003,-11.234363 c -10e-4,-6.178842 -0.0578,-11.3148774 -0.12525,-11.4134221 -0.0675,-0.098545 -0.25414,-0.2277136 -0.41487,-0.2870154 -0.160726,-0.059305 -0.292226,-0.2543969 -0.292226,-0.4334573 0,-0.4955883 -0.177852,-0.8538703 -0.423999,-0.8538703 -0.121752,0 -0.269158,-0.1502917 -0.32746,-0.3339815 -0.0583,-0.1836898 -0.177884,-0.3339814 -0.265813,-0.3339814 -0.08793,0 -0.231356,-0.1878644 -0.318653,-0.4174768 -0.121127,-0.31858957 -0.278725,-0.41747682 -0.665028,-0.41747682 -0.331832,0 -0.631249,-0.14381001 -0.869199,-0.41747604 L 96.630134,-4.7009124e-7 H 50.172796 Z M 50.126482,2.5048596 c 43.729998,0 46.434904,0.016756 46.862085,0.289298 0.249342,0.1590803 0.660004,0.5051368 0.912577,0.7690708 l 0.459225,0.4797706 v 11.24317 c 0,10.914806 -0.0094,11.245797 -0.318652,11.343951 -0.175205,0.0556 -0.360735,0.211124 -0.412258,0.345396 -0.05152,0.134271 -0.206022,0.243964 -0.34344,0.243964 -0.137418,0 -0.330257,0.150291 -0.428567,0.333981 -0.178082,0.332752 -0.349693,0.333981 -46.639647,0.333981 -46.2800084,0 -46.4615662,-0.0013 -46.6693288,-0.333981 -0.1147164,-0.18369 -0.2755144,-0.333981 -0.3571384,-0.333981 -0.081621,0 -0.3813527,-0.204596 -0.6663309,-0.454659 L 2.0067478,26.310162 V 15.16484 c 0,-10.8441954 0.00861,-11.1498354 0.3225662,-11.3178581 C 2.5067851,3.7520024 2.6998744,3.5239265 2.7582061,3.3401381 2.8165401,3.156352 2.9627229,3.0058318 3.0830564,3.0058318 c 0.1203319,0 0.3122707,-0.1127189 0.426608,-0.2504861 C 3.6935391,2.5337889 9.0779018,2.5048596 50.126482,2.5048596 Z m 27.599775,1.9601829 c -1.992929,0.00566 -3.451685,0.045904 -3.537789,0.1059996 -0.261906,0.1827992 -0.288126,2.541027 -0.03,2.700553 0.09837,0.060796 0.808575,0.1242107 1.578258,0.1408983 0.769683,0.016688 1.436577,0.067056 1.481715,0.112196 0.04514,0.04514 0.09284,2.2971487 0.106001,5.0041766 0.01316,2.707027 0.06342,5.241029 0.11187,5.631369 l 0.08806,0.709711 h 2.134022 c 1.791931,0 2.150346,-0.04239 2.235458,-0.264184 0.05575,-0.145281 0.101433,-2.692126 0.101433,-5.659745 0,-4.1632732 0.04768,-5.4134891 0.208739,-5.4741638 0.114806,-0.043252 0.727039,-0.054596 1.360388,-0.025112 1.678191,0.078127 1.770687,-0.00573 1.770687,-1.6033732 V 4.5178802 l -5.468946,-0.046315 c -0.751979,-0.00634 -1.475583,-0.00839 -2.139894,-0.0065 z m -29.664328,0.01207 c -0.424106,-0.00199 -0.960174,0.00982 -1.635661,0.03164 l -2.588355,0.083495 -0.0437,6.9301135 c -0.02399,3.811503 -0.0076,7.023986 0.03653,7.138851 0.05798,0.151091 0.634826,0.208738 2.086079,0.208738 1.942876,0 2.008789,-0.0118 2.093906,-0.375729 0.04833,-0.206651 0.106205,-1.464207 0.128505,-2.794811 0.03607,-2.152488 0.07268,-2.425613 0.332677,-2.475506 0.226127,-0.04339 0.292233,0.05801 0.292233,0.447808 0,0.298465 0.125066,0.592493 0.306911,0.721779 0.168804,0.120013 0.354354,0.514599 0.412258,0.876701 0.05791,0.362103 0.220379,0.722634 0.361052,0.801359 0.140671,0.07873 0.255705,0.362389 0.255705,0.630129 0,0.315891 0.117256,0.549366 0.333981,0.665354 0.210352,0.112577 0.333981,0.349774 0.333981,0.640565 0,0.72361 0.274119,0.862351 1.703175,0.862351 h 1.302657 v -0.672202 c 0,-0.56325 0.06761,-0.697696 0.417477,-0.830714 0.322125,-0.122471 0.417477,-0.277577 0.417477,-0.679378 0,-0.371887 0.09116,-0.544548 0.318652,-0.604037 0.326178,-0.0853 0.509974,-0.509191 0.514018,-1.184916 0.0013,-0.209533 0.115002,-0.424296 0.25277,-0.477162 0.330224,-0.12672 0.346322,-1.229274 0.01794,-1.229274 -0.255332,0 -0.435415,0.350936 -0.435415,0.848652 0,0.176177 -0.06964,0.320283 -0.154924,0.320283 -0.320367,0 -0.68003,0.542566 -0.68003,1.026079 0,0.387181 -0.06652,0.488937 -0.292233,0.446178 -0.197739,-0.03746 -0.31024,-0.24374 -0.34768,-0.637304 -0.03043,-0.319904 -0.143154,-0.637517 -0.250486,-0.705797 -0.254266,-0.161749 -2.307736,-0.160904 -2.562263,9.78e-4 -0.107965,0.06867 -0.220683,0.424408 -0.250486,0.790597 -0.07786,0.956591 -0.537115,0.916333 -0.606972,-0.05316 -0.0312,-0.433035 -0.147385,-0.755559 -0.292234,-0.811144 -0.143889,-0.05521 -0.240375,-0.319754 -0.240375,-0.658832 0,-0.60945 0.169015,-0.716027 0.500972,-0.316041 0.140719,0.169556 0.518388,0.250486 1.168934,0.250486 0.650546,0 1.028216,-0.08093 1.168935,-0.250486 0.151925,-0.183057 0.554626,-0.250486 1.496393,-0.250486 1.212535,0 1.30013,-0.02467 1.479107,-0.417477 0.174083,-0.382071 0.280848,-0.417476 1.259932,-0.417476 0.956863,0 1.098767,0.04408 1.343427,0.417476 0.298041,0.454868 1.047602,0.571097 1.401482,0.217218 0.119258,-0.119258 0.200258,-0.693939 0.200258,-1.41942 0,-1.107705 0.0305,-1.219162 0.333982,-1.219162 0.320486,0 0.333981,0.111326 0.333981,2.755346 0,1.859977 -0.05841,2.755346 -0.180037,2.755346 -0.09909,0 -0.527338,-0.346975 -0.95139,-0.771028 l -0.771027,-0.771028 -0.286037,0.353551 c -0.454077,0.560763 -0.678824,0.437167 -0.647415,-0.356159 0.04378,-1.105687 0.02682,-1.154443 -0.378664,-1.096855 -0.367336,0.05217 -0.376807,0.107246 -0.423674,2.474528 -0.06875,3.472648 -0.263645,3.192423 2.181642,3.136294 l 2.04107,-0.04697 V 11.689352 4.5922482 l -2.705119,-0.04566 -2.705445,-0.045988 -0.11024,0.5887071 c -0.06073,0.3237097 -0.171836,0.5883822 -0.246898,0.5883822 -0.299342,0 -0.66144,0.5518674 -0.66144,1.0081408 0,0.3122608 -0.118136,0.5462481 -0.333981,0.6617656 -0.193995,0.1038217 -0.333982,0.3495782 -0.333982,0.5864245 0,0.2481867 -0.159896,0.5126764 -0.408344,0.6754643 -0.286923,0.1879997 -0.423341,0.4493163 -0.459224,0.8802876 -0.0465,0.5585537 -0.09545,0.6131697 -0.551852,0.6131697 -0.4564,0 -0.505675,-0.05462 -0.552179,-0.6131697 -0.03588,-0.4309713 -0.1723,-0.6922879 -0.459224,-0.8802876 -0.252865,-0.1656835 -0.408018,-0.4264474 -0.408018,-0.6852498 0,-0.2919567 -0.125718,-0.4657134 -0.417477,-0.576639 C 50.175628,7.2175985 50.099201,7.0748916 50.094852,6.5586299 50.091952,6.2119375 49.979212,5.7822603 49.844366,5.6039781 49.70952,5.4256952 49.599099,5.1465367 49.599099,4.9836341 c 0,-0.3688121 -0.264845,-0.5004424 -1.537163,-0.5065173 z m 43.458672,0.00459 c -2.218717,-0.00573 -4.437414,0.06591 -4.535166,0.2201541 -0.16009,0.2525952 -0.20388,13.4924814 -0.04599,13.9039314 0.08894,0.231764 0.649385,0.264184 4.572676,0.264184 h 4.471566 l 0.100455,-0.375729 c 0.146796,-0.547768 0.122841,-2.010257 -0.03718,-2.262529 -0.09836,-0.155054 -0.775864,-0.233277 -2.377335,-0.274948 -1.231734,-0.03204 -2.295731,-0.06592 -2.364614,-0.07534 -0.06888,-0.0094 -0.125244,-0.616408 -0.125244,-1.348645 v -1.33136 l 2.375705,-0.04631 2.376029,-0.04631 0.157532,-0.448787 c 0.0977,-0.278198 0.09924,-0.817889 0.0039,-1.419421 l -0.153946,-0.970633 -2.337869,-0.0835 -2.337869,-0.0835 -0.04957,-1.2377531 c -0.02749,-0.685931 0.02345,-1.2828007 0.114153,-1.3388612 0.09002,-0.055636 1.163812,-0.1244079 2.386467,-0.1529664 1.222658,-0.028559 2.258828,-0.087623 2.302319,-0.1311128 0.138235,-0.138235 0.172232,-2.3076146 0.03947,-2.5172546 -0.098,-0.1547453 -2.316777,-0.2375924 -4.535493,-0.2433104 z m -77.396265,0.00359 c -0.240148,0.00268 -0.498168,0.00978 -0.762222,0.021527 l -1.920393,0.085452 -0.04403,5.145726 -0.04436,5.1457255 -0.557071,0.573705 c -0.306438,0.315529 -0.654752,0.573705 -0.773964,0.573705 -0.1192107,0 -0.4684716,-0.259085 -0.7762436,-0.575988 L 8.6863707,14.878832 V 9.9577974 c 0,-2.7064652 -0.045683,-5.0395866 -0.1014336,-5.1848659 -0.08511,-0.2217915 -0.4433453,-0.264184 -2.2348045,-0.264184 -2.0719035,0 -2.1364049,0.010855 -2.2325219,0.3757288 C 3.989688,5.3700955 3.990275,15.724823 4.118262,16.657319 c 0.059947,0.436751 0.1840285,0.709711 0.3228934,0.709711 0.1241074,0 0.3061223,0.150291 0.4044294,0.333981 0.2354,0.43985 0.7709429,0.42922 0.8877913,-0.01761 0.104262,-0.398702 0.5036103,-0.348578 0.585446,0.07338 0.036402,0.187711 -0.058785,0.27821 -0.2922341,0.27821 -0.3372747,0 -0.4894514,0.469113 -0.2348305,0.723734 0.061231,0.06123 1.9755664,0.111219 4.2540225,0.111219 h 4.142803 l 0.257336,-0.498038 c 0.141641,-0.273907 0.481679,-0.663674 0.755698,-0.866264 l 0.498361,-0.368226 v -6.210294 c 0,-4.7782057 -0.04814,-6.2444974 -0.208738,-6.3580374 -0.0861,-0.060872 -0.646469,-0.091957 -1.366909,-0.083823 z m 26.551518,3.279e-4 c -0.24024,0.0026 -0.498168,0.00946 -0.762222,0.021198 l -1.920393,0.085452 -0.04631,6.7631226 c -0.02554,3.719717 -0.005,6.934612 0.04599,7.14407 0.09097,0.373927 0.129855,0.379982 2.134024,0.333981 l 2.041069,-0.04697 0.04338,-7.033504 c 0.0341,-5.5085565 -0.0021,-7.0654856 -0.16699,-7.1822301 -0.08684,-0.061491 -0.647827,-0.093032 -1.368541,-0.085125 z m -9.987479,0.016305 c -4.013208,0.014226 -5.407048,0.070488 -5.503191,0.2217854 -0.153186,0.241056 -0.176957,1.9827138 -0.03229,2.3597222 0.08083,0.2106285 0.376855,0.2647535 1.461168,0.2667923 0.747895,0.00138 1.472454,0.073737 1.610221,0.1607942 0.21279,0.1344709 0.256528,0.9696546 0.291256,5.5498315 0.02248,2.965372 0.07651,5.485577 0.120024,5.600385 0.05744,0.151544 0.647638,0.208738 2.153919,0.208738 1.737861,0 2.091195,-0.04293 2.176098,-0.264184 0.05575,-0.14528 0.101433,-2.695011 0.101433,-5.666268 0,-6.2101177 -0.185401,-5.6322266 1.79515,-5.5902752 0.62003,0.013133 1.221119,0.018064 1.335925,0.011092 0.260923,-0.015839 0.295445,-2.611183 0.03686,-2.7710011 -0.09458,-0.058456 -2.590647,-0.09789 -5.546571,-0.08741 z m 31.768998,3.257e-4 v 7.0726429 c 0,3.889926 0.04999,7.122634 0.111219,7.183861 0.196712,0.196713 3.866795,0.127442 3.992121,-0.07534 0.06342,-0.102626 0.127306,-0.66549 0.141876,-1.2508 0.01456,-0.585309 0.105177,-1.142996 0.201563,-1.239383 0.104899,-0.104899 0.806272,-0.155826 1.746879,-0.126875 l 1.571409,0.04827 0.05284,0.551199 c 0.03834,0.398946 0.162342,0.592649 0.448788,0.701556 0.304248,0.115675 0.407912,0.296977 0.448135,0.784726 l 0.05219,0.63437 h 2.421364 2.421365 l 0.05088,-0.610234 c 0.03858,-0.462828 -0.03165,-0.668352 -0.290929,-0.849956 -0.188055,-0.131719 -0.388986,-0.474631 -0.446504,-0.762222 -0.06062,-0.303119 -0.236704,-0.564838 -0.418782,-0.622627 -0.227832,-0.07231 -0.314085,-0.258486 -0.314085,-0.678074 0,-0.360135 -0.09454,-0.614968 -0.250487,-0.674811 -0.154979,-0.05947 -0.250486,-0.313552 -0.250486,-0.666333 0,-0.442989 -0.09124,-0.61157 -0.408997,-0.756351 -0.321907,-0.146669 -0.419692,-0.33258 -0.459224,-0.873112 -0.04144,-0.566559 -0.115995,-0.696022 -0.425956,-0.740042 -0.303364,-0.04308 -0.375729,-0.160285 -0.375729,-0.607298 0,-0.406957 -0.111173,-0.62645 -0.419434,-0.828431 C 71.735335,9.9059733 71.661453,9.7494324 71.738733,9.4415235 71.810445,9.1558008 71.739121,8.9543418 71.490204,8.7412717 71.293477,8.5728278 71.140893,8.2422664 71.140893,7.984269 71.140893,7.6971925 71.01626,7.4596567 70.806912,7.3476173 70.589818,7.2314302 70.47293,6.9980628 70.47293,6.6806329 70.47293,6.3806512 70.316834,6.0447595 70.0685,5.8098021 69.846156,5.5994335 69.639505,5.2393581 69.609275,5.009748 l -0.05479,-0.4174768 -3.548553,-0.04501 z m -41.670044,0.023812 c -0.377328,0 -0.892748,0.00634 -1.455299,0.019241 l -2.045635,0.046967 -0.0437,6.9301139 c -0.02399,3.811501 -0.0071,7.025204 0.03751,7.141459 0.06342,0.165257 1.147785,0.201606 4.96993,0.166991 l 4.888717,-0.04436 0.0486,-1.377674 c 0.04305,-1.222689 0.01486,-1.380517 -0.250486,-1.404092 -0.164442,-0.01461 -1.42627,-0.0334 -2.803943,-0.04175 l -2.50486,-0.01533 -0.08904,-5.677683 C 21.490133,7.1472206 21.433774,4.5710854 21.41388,4.5452972 21.40398,4.5324012 21.164667,4.5260562 20.78734,4.5260562 Z m 46.429278,4.2409773 h 0.834954 V 9.421305 c 0,0.710096 -0.377624,1.037191 -0.529021,0.4582456 -0.06203,-0.2372086 -0.250802,-0.3579564 -0.615126,-0.3933413 -0.397333,-0.038589 -0.52576,-0.1327494 -0.52576,-0.3851878 0,-0.2894494 0.111328,-0.3339807 0.834953,-0.3339811 z M 7.3504495,9.6019936 c 0.2098556,0 0.2580241,0.4188764 0.2968008,2.5815064 0.05494,3.064245 0.015251,3.249287 -0.5613105,2.627494 -0.4177772,-0.450554 -0.8127384,-0.555875 -1.1885046,-0.317022 -0.1186754,0.07544 -0.2210301,0.636704 -0.250486,1.373434 -0.039712,0.993282 -0.1049798,1.256072 -0.3219126,1.297439 -0.1941671,0.03702 -0.2978161,-0.105744 -0.3613795,-0.499015 -0.1269497,-0.785474 -0.04715,-3.850984 0.1066531,-4.099751 0.183024,-0.296047 0.4354471,-0.258522 0.5616369,0.08349 0.059305,0.160728 0.1814707,0.341761 0.2716854,0.402147 0.2285935,0.153012 0.6118641,-0.01883 0.6118641,-0.274296 0,-0.116695 0.109587,-0.303288 0.2436375,-0.414541 C 6.924732,12.225446 7.0184104,11.750716 7.0513675,10.88149 7.0894435,9.8771843 7.1538132,9.6019886 7.3504495,9.6019886 Z M 67.051574,10.366171 c 0.20132,0.01164 0.415519,0.256039 0.415519,0.582185 0,0.29791 0.107002,0.466402 0.333982,0.525758 0.259298,0.06781 0.333981,0.227657 0.333981,0.715257 0,0.354536 0.109084,0.718577 0.250486,0.835932 0.445074,0.369376 0.269615,0.500972 -0.667963,0.500972 -0.621507,0 -0.919594,-0.06749 -0.922036,-0.208739 -0.002,-0.114806 -0.02867,-0.747759 -0.05936,-1.406701 -0.03069,-0.658942 8.41e-4,-1.289972 0.07012,-1.402135 0.06492,-0.105051 0.153759,-0.14782 0.245268,-0.142529 z m 13.738244,0.01305 c 0.182864,0.02586 0.20352,0.364821 0.20352,1.966055 0,2.106131 0.0078,2.085889 -0.766786,2.026066 -0.441725,-0.03412 -1.237102,0.972134 -1.237102,1.565212 0,0.319226 -0.08639,0.428566 -0.338547,0.428566 -0.326421,0 -0.336903,-0.08535 -0.292234,-2.379617 0.03862,-1.983296 0.08803,-2.379617 0.2968,-2.379617 0.164325,0 0.269594,0.20083 0.305932,0.583814 0.07168,0.755436 0.313332,1.031557 0.848653,0.96933 0.416027,-0.04836 0.43487,-0.09886 0.515321,-1.384523 0.06873,-1.098352 0.135174,-1.34397 0.375729,-1.389741 0.03316,-0.0063 0.06259,-0.0092 0.08871,-0.0056 z m 9.273201,0.03751 c 0.06915,-0.01804 0.142463,0.07452 0.199608,0.305606 0.130927,0.529454 0.02613,3.917725 -0.125897,4.069745 -0.06808,0.06809 -0.261672,-0.0011 -0.430196,-0.153618 -0.358101,-0.324076 -1.045493,-0.36349 -1.332338,-0.07665 -0.110214,0.110214 -0.200259,0.561089 -0.200259,1.001944 0,0.795008 -0.224881,1.074707 -0.405734,0.504887 -0.149259,-0.470266 -0.06696,-3.375196 0.0985,-3.477451 0.08226,-0.05084 0.278883,0.06758 0.437046,0.262881 l 0.287667,0.35518 0.626215,-0.573705 c 0.548063,-0.502027 0.626215,-0.668744 0.626215,-1.334619 0,-0.51672 0.103924,-0.854143 0.219175,-0.884204 z m -69.687296,0.103718 c 0.101646,0 0.16699,0.751458 0.16699,1.920392 v 1.920393 H 20.10045 c -0.283352,0 -0.640059,0.203654 -0.99216,0.566202 -0.442092,0.455207 -0.559885,0.724444 -0.601427,1.376043 -0.03947,0.619022 -0.121484,0.823503 -0.348333,0.86659 -0.275007,0.05223 -0.293476,-0.119221 -0.250485,-2.322867 0.03356,-1.720218 0.104183,-2.397976 0.255051,-2.448108 0.114757,-0.03814 0.259355,0.06842 0.321587,0.236787 0.150418,0.406942 0.383929,0.550724 0.897575,0.553808 0.665544,0.004 0.826474,-0.294667 0.826474,-1.533573 0,-0.645698 0.07203,-1.135667 0.166991,-1.135667 z m -5.761179,0.125242 c 0.09838,0.0246 0.166991,0.779289 0.166991,1.836898 v 1.79515 l -0.87083,0.08774 c -0.607175,0.06106 -0.975837,0.200145 -1.217206,0.459224 -0.190427,0.204399 -0.418575,0.37149 -0.506843,0.37149 -0.08918,0 -0.160467,-0.589257 -0.160467,-1.326142 0,-0.729338 0.07059,-1.369679 0.156881,-1.423007 0.08629,-0.05333 0.346211,0.107249 0.577617,0.356812 l 0.420738,0.453678 0.58088,-0.597839 c 0.45112,-0.464505 0.592451,-0.760663 0.633063,-1.326793 0.02876,-0.40086 0.127332,-0.710166 0.219176,-0.687206 z m 17.209172,0.22896 c 0.33304,0.005 0.403982,0.633793 0.366597,2.65163 -0.03945,2.129124 -0.0603,2.254374 -0.375729,2.254374 -0.265394,0 -0.344656,-0.128603 -0.385839,-0.626215 -0.02851,-0.344418 -0.114539,-0.626215 -0.191128,-0.626215 -0.321482,0 -1.152751,0.979479 -1.204158,1.418768 -0.06037,0.515819 -0.417797,0.757032 -0.562615,0.379643 -0.04925,-0.128346 -0.06799,-1.049042 -0.04175,-2.045963 0.03465,-1.316546 0.107818,-1.832524 0.267446,-1.885494 0.121237,-0.04023 0.261146,0.08554 0.312129,0.280493 0.09732,0.372145 0.713314,0.619111 1.137624,0.456289 0.184982,-0.07099 0.250811,-0.362039 0.250811,-1.108597 0,-0.774253 0.063,-1.036666 0.267447,-1.11512 0.05872,-0.02253 0.111585,-0.0343 0.159163,-0.03359 z m 36.710226,0.0437 c 0.05988,0.0027 0.102086,0.06939 0.102086,0.176774 0,0.143188 -0.07514,0.260272 -0.16699,0.260272 -0.09185,0 -0.166991,-0.07078 -0.166991,-0.157207 0,-0.08642 0.07514,-0.203507 0.166991,-0.26027 0.02296,-0.01419 0.04494,-0.02046 0.0649,-0.01957 z m 24.816706,0.01957 h 2.087384 v 0.582184 c 0,0.669653 -0.481139,0.92481 -0.663071,0.351593 -0.09696,-0.305506 -0.269738,-0.342234 -1.8095,-0.385187 -1.380655,-0.03851 -1.702196,-0.09494 -1.702196,-0.298104 0,-0.209294 0.343259,-0.250486 2.087383,-0.250486 z m -21.959273,0.0835 c 0.137767,0 0.250486,0.07514 0.250486,0.16699 0,0.09184 -0.112719,0.166991 -0.250486,0.166991 -0.137768,0 -0.250486,-0.07514 -0.250486,-0.166991 0,-0.09185 0.112718,-0.16699 0.250486,-0.16699 z m 0.751458,0.500972 c 0.285511,0 0.333981,0.111349 0.333981,0.767113 0,0.62665 0.06115,0.783173 0.333981,0.854521 0.250963,0.06563 0.333981,0.227757 0.333981,0.652308 v 0.564899 H 71.391375 69.637973 V 13.77673 13.192263 h 0.908663 c 1.083121,0 1.1456,-0.06932 1.241015,-1.377673 0.01267,-0.173804 0.15655,-0.292234 0.355182,-0.292234 z m -3.129771,0.0225 c 0.02458,1.24e-4 0.05187,0.0036 0.08219,0.0095 0.225549,0.04344 0.292234,0.2241 0.292234,0.791576 0,0.685984 -0.203042,1.005355 -0.469662,0.738738 -0.06314,-0.06314 -0.114806,-0.446206 -0.114806,-0.850936 0,-0.534574 0.03801,-0.689702 0.210043,-0.688837 z m -20.582906,0.06099 c 0.135253,0 0.271065,0.131505 0.302018,0.292233 0.03948,0.205038 -0.05051,0.292234 -0.302018,0.292234 -0.251512,0 -0.341831,-0.0872 -0.302344,-0.292234 0.03095,-0.160728 0.167092,-0.292233 0.302344,-0.292233 z m -3.693364,0.08349 c 0.174064,0 0.353483,0.149136 0.401822,0.333981 0.06577,0.251504 0.227963,0.333981 0.656221,0.333981 0.436522,0 0.653641,0.114776 0.934104,0.494123 0.308755,0.417612 0.365292,0.715256 0.365292,1.920393 0,0.839462 -0.0687,1.42627 -0.16699,1.42627 -0.09185,0 -0.166991,-0.328855 -0.166991,-0.730911 0,-0.444042 -0.09764,-0.812196 -0.248856,-0.937691 -0.207131,-0.171904 -0.371149,-0.07729 -0.97683,0.563919 -0.400355,0.423841 -0.814435,0.770702 -0.92008,0.770702 -0.134539,0 -0.192103,-0.625337 -0.192103,-2.087384 0,-1.932967 0.02317,-2.087383 0.314411,-2.087383 z m 20.972007,0.02936 c 0.02014,-6.65e-4 0.04053,9.93e-4 0.06099,0.0049 0.231558,0.04428 0.285861,0.315127 0.326154,1.622615 0.05317,1.725638 -0.133777,2.223401 -0.585446,1.557711 -0.310738,-0.45798 -0.823354,-0.489814 -0.959871,-0.05969 -0.05515,0.173774 -0.248243,0.354581 -0.428892,0.401823 -0.262459,0.06864 -0.329004,0.231534 -0.331046,0.811144 -0.0027,0.746934 -0.183959,1.234809 -0.384535,1.034233 -0.06261,-0.06261 -0.113827,-0.895405 -0.113827,-1.850597 0,-1.616198 0.03042,-1.776604 0.437372,-2.310145 0.343077,-0.449798 0.556368,-0.573378 0.990528,-0.573378 0.411835,0 0.581289,-0.08783 0.662419,-0.34344 0.05616,-0.176948 0.185178,-0.290517 0.326153,-0.295169 z m -26.695351,0.03783 c 0.02017,-0.003 0.04227,0.0021 0.06523,0.01631 0.09185,0.05677 0.166991,0.360525 0.166991,0.674811 0,0.470259 0.07391,0.58989 0.417477,0.676117 0.615659,0.154522 1.199797,-0.04607 1.304942,-0.448135 0.05105,-0.195208 0.190733,-0.32063 0.312129,-0.280167 0.165192,0.05506 0.219826,0.563908 0.219826,2.049225 0,1.843921 -0.116069,2.333344 -0.469661,1.979753 -0.06314,-0.06314 -0.114806,-0.294184 -0.114806,-0.51304 0,-0.228449 -0.247908,-0.652869 -0.581857,-0.996726 -0.486328,-0.500755 -0.623208,-0.564509 -0.834954,-0.388774 -0.139297,0.115604 -0.253096,0.422139 -0.253096,0.681008 0,0.497879 -0.249237,0.798609 -0.370836,0.447483 -0.03957,-0.114279 -0.04951,-0.921645 -0.02186,-1.794171 0.02766,-0.872526 0.05217,-1.722282 0.05447,-1.888431 0.0018,-0.12461 0.04548,-0.206249 0.106,-0.215261 z m 10.16784,0.699599 c 0.04831,-0.0029 0.09439,0.01187 0.132419,0.0499 0.187281,0.187282 0.04138,0.686228 -0.200585,0.686228 -0.08931,0 -0.210805,-0.0783 -0.270055,-0.174166 -0.127154,-0.205738 0.128898,-0.549253 0.338221,-0.561965 z m 20.061387,2.072056 c 0.146308,0 0.230191,0.117461 0.198953,0.278535 -0.06505,0.335394 -0.39852,0.475643 -0.549569,0.231242 -0.146825,-0.237567 0.04039,-0.509777 0.350616,-0.509777 z m 4.415467,0 c 0.233449,0 0.32864,0.09082 0.292235,0.278535 -0.0596,0.307341 -0.344819,0.460781 -0.523803,0.281797 -0.236379,-0.236379 -0.102471,-0.560332 0.231568,-0.560332 z m -61.965935,0.834953 c 0.09185,0 0.166991,0.112719 0.166991,0.250486 0,0.137767 -0.07514,0.250486 -0.166991,0.250486 -0.09184,0 -0.166991,-0.112719 -0.166991,-0.250486 0,-0.137767 0.07514,-0.250486 0.166991,-0.250486 z m 13.549403,4.648341 -1.639902,0.03131 c -2.68319,0.05109 -3.423439,0.160211 -3.517241,0.518911 -0.04489,0.171637 -0.142647,0.312129 -0.217218,0.312129 -0.07457,0 -0.248903,0.113551 -0.387471,0.252116 -0.198256,0.198258 -0.2528,0.713171 -0.255704,2.4168 -0.0032,1.868223 0.03547,2.187886 0.281797,2.331998 0.156996,0.09185 0.385503,0.131187 0.507821,0.08774 0.122318,-0.04345 0.667125,-0.07893 1.210682,-0.07893 h 0.988246 v -0.678727 c 0,-0.821805 0.24333,-1.325161 0.640566,-1.325161 0.486541,0 0.695359,0.3573 0.695359,1.18883 v 0.78766 l 1.210682,0.06067 c 0.665876,0.03341 1.304615,0.03175 1.419421,-0.0039 0.153909,-0.04785 0.208739,-0.676631 0.208739,-2.393315 v -2.32845 l -0.573052,-0.589685 z m -12.312954,0.01924 c -0.976638,-0.0055 -0.902467,0.365828 -0.902467,3.013333 v 2.831666 l 2.880588,0.0499 c 1.584325,0.02744 2.930764,0.06677 2.992135,0.08741 0.06138,0.02065 0.23045,-0.0082 0.375729,-0.06393 0.185398,-0.07114 0.264184,-0.320059 0.264184,-0.834953 v -0.733556 h -1.649359 c -1.156694,0 -1.703953,-0.06535 -1.831353,-0.218849 -0.100542,-0.121147 -0.202665,-1.071955 -0.228959,-2.129132 L 14.781534,20.12236 13.78644,20.07115 c -0.351116,-0.01804 -0.632408,-0.03918 -0.857784,-0.04044 z m 15.887924,0.0082 c -1.59164,0 -1.59424,0.0022 -1.59424,1.445513 0,1.180749 0.02758,1.271287 0.552505,1.811784 0.531892,0.547672 0.605178,0.570874 1.962141,0.618061 2.074979,0.07215 1.750894,0.368067 -0.510758,0.4664 l -1.920393,0.08349 -0.05055,0.695685 c -0.03967,0.544839 0.01037,0.707832 0.230917,0.751458 0.154899,0.03064 1.532381,0.0182 3.061278,-0.02772 2.594876,-0.07794 2.812864,-0.109416 3.275888,-0.473902 l 0.496079,-0.390405 0.05479,-2.142831 c 0.07084,-2.772443 0.03748,-2.837536 -1.459539,-2.837536 -0.722502,0 -1.20785,0.07831 -1.319617,0.212978 -0.09722,0.117102 -0.200124,0.586763 -0.22896,1.043655 -0.05065,0.802542 -0.07091,0.83267 -0.595231,0.883223 -0.575584,0.0555 -0.613217,-0.01345 -0.548917,-1.002269 0.05878,-0.903904 -0.229971,-1.137624 -1.405395,-1.137624 z m 58.040349,0 c -1.604642,0 -1.630474,0.0064 -2.226325,0.552178 -0.373302,0.341929 -0.624188,0.739391 -0.65883,1.043692 -0.05154,0.452717 -0.108756,0.491514 -0.724062,0.491514 -0.585766,0 -0.675048,-0.05137 -0.725691,-0.417477 -0.03176,-0.229612 -0.141543,-0.519226 -0.243963,-0.643828 -0.102418,-0.124601 -0.266389,-0.387612 -0.364314,-0.584467 -0.159937,-0.321516 -0.336381,-0.363146 -1.733507,-0.407693 -1.01073,-0.03223 -1.637673,0.01889 -1.790583,0.145791 -0.184267,0.152929 -0.235157,0.768306 -0.235157,2.838189 0,2.30009 0.03639,2.663608 0.280166,2.80003 0.252459,0.141282 1.997324,0.0963 2.516927,-0.0649 0.125636,-0.03898 0.208739,-0.357897 0.208739,-0.801034 0,-1.401407 0.965926,-1.338091 1.154585,0.07567 0.0965,0.723163 0.108648,0.73495 0.849303,0.839847 0.413302,0.05853 0.958111,0.06792 1.210682,0.02087 0.394793,-0.07355 0.459224,-0.165504 0.459224,-0.656549 0,-0.3943 0.136135,-0.707229 0.439657,-1.010749 0.411605,-0.411607 0.453547,-0.420975 0.655241,-0.145138 0.118501,0.162056 0.180811,0.532292 0.138616,0.822885 -0.135224,0.931258 0.03693,1.019434 1.897562,0.972264 l 1.043692,-0.02642 v -2.82094 c 0,-2.418314 -0.03774,-2.835443 -0.264184,-2.922337 -0.145279,-0.05575 -0.994787,-0.101433 -1.887778,-0.101433 z m -35.481605,0.0029 c -0.737074,-0.0062 -1.663189,0.147381 -1.788953,0.34605 -0.08198,0.129509 -0.150256,0.59699 -0.151661,1.038799 l -0.0026,0.803317 -0.626215,-0.05186 c -0.625671,-0.05178 -0.626181,-0.05258 -0.675139,-0.88681 -0.03134,-0.534045 -0.148208,-0.910183 -0.324197,-1.043692 -0.304258,-0.230825 -2.175494,-0.281864 -2.511709,-0.06849 -0.161731,0.102638 -0.201935,0.795489 -0.166991,2.877981 l 0.04599,2.742952 0.834953,0.09915 c 0.459225,0.05445 0.924103,0.110813 1.032929,0.125243 0.108828,0.01442 0.386435,-0.04571 0.617083,-0.133397 0.36431,-0.138511 0.425911,-0.275517 0.469987,-1.043692 0.04795,-0.835653 0.07712,-0.887207 0.530326,-0.938997 0.638061,-0.07291 0.803245,0.128614 0.882246,1.076959 0.03645,0.437503 0.100682,0.829963 0.142855,0.872136 0.06544,0.06544 1.511925,0.0896 2.461481,0.04109 0.266258,-0.01361 0.292235,-0.266969 0.292235,-2.850583 v -2.83558 l -0.425305,-0.10698 c -0.166991,-0.04191 -0.391613,-0.06152 -0.637304,-0.0636 z m -10.611735,0.0046 c -1.718323,0.0094 -3.219086,0.07563 -3.335248,0.147421 -0.123154,0.07608 -0.188775,0.367008 -0.157207,0.697606 0.05323,0.557489 0.06948,0.56825 0.972591,0.650351 l 0.918448,0.0835 0.04403,1.920393 c 0.02421,1.056216 0.07941,2.017434 0.122633,2.135979 0.05758,0.157905 0.447643,0.202557 1.458886,0.166991 l 1.380281,-0.0486 0.08349,-2.087383 0.0835,-2.087384 0.830713,-0.05251 c 0.456892,-0.02883 0.926554,-0.131742 1.043692,-0.228959 0.292222,-0.242522 0.267312,-0.725822 -0.05414,-1.047279 -0.227291,-0.227291 -0.734718,-0.264682 -3.391672,-0.25016 z m -34.9672617,0.01794 c -1.2058626,0.002 -1.4378914,0.06452 -1.5769528,0.2544 -0.2197581,0.300067 -0.3083736,4.777246 -0.1050203,5.307172 0.08616,0.224529 0.3347841,0.262411 1.4611685,0.222437 l 1.3574499,-0.04827 0.083495,-0.918449 0.083495,-0.918449 1.718179,-0.04762 c 1.6243694,-0.04506 1.7258584,-0.06885 1.8655974,-0.436393 0.08129,-0.213807 0.30404,-0.429565 0.494776,-0.479445 0.289568,-0.07573 0.3467,-0.22129 0.3467,-0.882573 0,-0.693657 -0.07652,-0.866381 -0.617082,-1.391371 l -0.617409,-0.599505 -2.9311418,-0.04631 c -0.6509581,-0.01028 -1.1612999,-0.01633 -1.5632549,-0.01566 z m 60.4591057,0.0046 c -2.664727,0.01352 -2.844304,0.03456 -2.923968,0.3392 -0.04668,0.178513 -0.262389,0.392029 -0.479446,0.474554 -0.383675,0.145873 -0.394646,0.203872 -0.394646,2.09358 0,1.897004 0.01104,1.954937 0.459224,2.406363 l 0.459225,0.462811 3.089328,-0.02283 3.089327,-0.0225 0.04924,-1.419421 c 0.07899,-2.27566 0.148805,-2.191292 -1.76547,-2.135002 l -1.623592,0.04762 -0.05153,0.61904 c -0.02828,0.340531 0.02815,0.767694 0.125244,0.949106 0.146118,0.273025 0.115641,0.349009 -0.176123,0.441612 -0.61325,0.1946 -0.791129,-0.204805 -0.672202,-1.508823 l 0.106653,-1.168935 1.916805,-0.0835 1.916805,-0.0835 0.166664,-0.475532 c 0.29164,-0.831721 -0.06332,-0.930275 -3.291542,-0.913884 z m -11.223927,0.02348 c -1.156561,-0.0047 -1.752798,0.03957 -1.868207,0.135354 -0.335537,0.27847 -0.323595,5.416695 0.01305,5.605929 0.130664,0.07345 1.614793,0.09582 3.298065,0.0499 l 3.060626,-0.08349 0.05382,-0.563921 c 0.02965,-0.31021 -0.01345,-0.631541 -0.09589,-0.713987 -0.08245,-0.08245 -0.773599,-0.153855 -1.535858,-0.158837 -0.762259,-0.005 -1.48941,-0.0487 -1.615765,-0.09719 -0.48234,-0.185091 -0.195588,-0.370918 0.647089,-0.419434 l 0.876701,-0.05055 V 23.044788 22.29333 l -0.918449,-0.0835 c -0.667963,-0.06073 -0.918449,-0.151809 -0.918449,-0.333981 0,-0.201556 0.308029,-0.259774 1.57728,-0.298758 0.867554,-0.02665 1.675372,-0.129879 1.795149,-0.229285 0.230164,-0.191019 0.306012,-1.134358 0.09263,-1.152301 -0.06888,-0.0058 -1.470755,-0.04278 -3.11542,-0.08219 -0.512941,-0.01229 -0.960841,-0.01932 -1.346363,-0.02087 z m 19.154353,0.01794 c -1.274344,0.0037 -2.610172,0.03046 -2.919728,0.07697 -0.06888,0.01035 -0.125242,0.132928 -0.125242,0.272665 0,0.139736 -0.187865,0.339603 -0.417477,0.444221 -0.416103,0.18959 -0.417477,0.197993 -0.417477,2.506818 0,2.696607 -0.06366,2.608157 1.784387,2.472571 l 1.13795,-0.0835 0.08349,-0.918448 c 0.08097,-0.890617 0.09868,-0.918449 0.584468,-0.918449 0.485791,0 0.503502,0.02783 0.584467,0.918449 l 0.0835,0.918448 h 1.41942 1.41942 l 0.04697,-2.167945 c 0.03931,-1.812291 -0.0018,-2.26453 -0.250486,-2.755346 -0.163632,-0.322955 -0.371826,-0.640466 -0.462811,-0.705469 -0.06358,-0.04542 -1.276504,-0.06469 -2.550848,-0.06099 z m 18.648489,0.0088 -2.907008,0.0033 -0.04566,2.880589 -0.04566,2.880589 h 3.081826 c 2.971137,0 3.08619,-0.01246 3.192066,-0.346049 0.06041,-0.19032 0.0638,-0.528476 0.0078,-0.751459 -0.08624,-0.343593 -0.209436,-0.40918 -0.80821,-0.430522 -0.388591,-0.01384 -0.921739,-0.0078 -1.184916,0.01337 -0.651468,0.05234 -1.31083,-0.129204 -1.188504,-0.327131 0.0551,-0.08915 0.469983,-0.162098 0.922037,-0.162098 0.737442,0 0.832916,-0.04291 0.926929,-0.417477 0.05763,-0.229612 0.05763,-0.605343 0,-0.834953 -0.09603,-0.382623 -0.1822,-0.417477 -1.032277,-0.417477 -0.793289,0 -0.919569,-0.04229 -0.87181,-0.292234 0.04709,-0.246436 0.278144,-0.299365 1.473562,-0.338548 1.423516,-0.04665 1.834941,-0.228029 1.834941,-0.808534 0,-0.575168 -0.409853,-0.654727 -3.355142,-0.651329 z m -69.953766,1.422645 c 0.389645,0 0.500972,0.07422 0.500972,0.333981 0,0.259764 -0.111327,0.333981 -0.500972,0.333981 -0.389644,0 -0.500972,-0.07422 -0.500972,-0.333981 0,-0.259764 0.111328,-0.333981 0.500972,-0.333981 z m 50.969665,0.01631 c 0.268368,0.0091 0.54696,0.134611 0.54696,0.317674 0,0.302936 -0.834618,0.437588 -1.00488,0.162098 -0.06496,-0.105112 -0.04334,-0.266171 0.04827,-0.357791 0.09119,-0.09118 0.248629,-0.12746 0.40965,-0.121981 z m -66.1935383,0.0039 c 0.067515,-9.48e-4 0.1394122,0.0022 0.2152609,0.0095 0.7990008,0.07638 0.763463,0.538144 -0.046638,0.605667 -0.3358849,0.02799 -0.6638059,-0.03471 -0.7286269,-0.139593 -0.1666804,-0.269695 0.087389,-0.468878 0.5600064,-0.475532 z"
     id="path2013"
     inkscape:connector-curvature="0" />
</svg>
