<?xml version="1.0" encoding="UTF-8" standalone="no"?>
<svg
   xmlns:dc="http://purl.org/dc/elements/1.1/"
   xmlns:cc="http://creativecommons.org/ns#"
   xmlns:rdf="http://www.w3.org/1999/02/22-rdf-syntax-ns#"
   xmlns:svg="http://www.w3.org/2000/svg"
   xmlns="http://www.w3.org/2000/svg"
   xmlns:sodipodi="http://sodipodi.sourceforge.net/DTD/sodipodi-0.dtd"
   xmlns:inkscape="http://www.inkscape.org/namespaces/inkscape"
   width="500"
   height="200"
   viewBox="0 0 500 200"
   version="1.1"
   id="svg158"
   sodipodi:docname="vectrex.svg"
   inkscape:version="0.92.5 (2060ec1f9f, 2020-04-08)">
  <metadata
     id="metadata164">
    <rdf:RDF>
      <cc:Work
         rdf:about="">
        <dc:format>image/svg+xml</dc:format>
        <dc:type
           rdf:resource="http://purl.org/dc/dcmitype/StillImage" />
        <dc:title>syslogo</dc:title>
      </cc:Work>
    </rdf:RDF>
  </metadata>
  <defs
     id="defs162" />
  <sodipodi:namedview
     pagecolor="#ffffff"
     bordercolor="#666666"
     borderopacity="1"
     objecttolerance="10"
     gridtolerance="10"
     guidetolerance="10"
     inkscape:pageopacity="0"
     inkscape:pageshadow="2"
     inkscape:window-width="1366"
     inkscape:window-height="740"
     id="namedview160"
     showgrid="false"
     inkscape:pagecheckerboard="true"
     inkscape:zoom="1.2270221"
     inkscape:cx="238"
     inkscape:cy="33.5"
     inkscape:window-x="0"
     inkscape:window-y="0"
     inkscape:window-maximized="1"
     inkscape:current-layer="svg158" />
  <title
     id="title135">syslogo</title>
  <g
     id="Page-1"
     style="fill:none;fill-rule:evenodd;stroke:none;stroke-width:1"
     transform="matrix(1.0498429,0,0,1.0498429,0.81317741,70.198004)">
    <g
       id="syslogo"
       transform="translate(0.036191,0.788372)"
       style="fill-rule:nonzero">
      <polygon
         id="path855-6-5"
         points="2.0280015,4.6753386 28.293852,4.6753386 39.990892,20.047131 51.687936,4.6753386 77.953787,4.6753386 39.990892,62.473672 " />
      <polygon
         id="path872-4-6-7"
         points="84.844994,19.024344 82.720155,33.330208 82.720155,62.275417 131.98114,62.275417 135.35148,46.613282 106.00976,46.613282 106.00976,40.269129 117.70679,40.269129 117.70679,33.330208 117.70679,26.391287 106.00976,26.391287 106.00976,20.047135 135.35148,20.047135 131.98114,4.3849997 1.7758109,4.3849997 " />
      <path
         d="M 194.02564,12.786089 C 185.62397,2.970873 171.98514,-0.549772 159.88245,3.9725658 147.77976,8.4949036 139.79167,20.096746 139.8852,33.016413 c 0.0935,12.919672 8.24875,24.404651 20.41564,28.751293 12.16689,4.346645 25.75332,0.628912 34.01202,-9.306905 L 180.33438,37.152652 c -3.32742,3.873951 -8.24122,6.481626 -12.70723,5.188474 -4.46601,-1.293156 -7.4823,-5.455495 -7.32063,-10.102148 0.16168,-4.646652 3.45995,-8.58929 8.00504,-9.568928 4.54508,-0.979638 8.05314,0.833701 11.93702,5.421754 z"
         id="path898-4-5"
         inkscape:connector-curvature="0" />
      <path
         d="M 194.02564,12.786089 C 185.62397,2.970873 171.98515,-0.549772 159.88246,3.9725658 147.77977,8.4949036 139.79168,20.096746 139.8852,33.016413 c 0.0935,12.919672 8.24875,24.404651 20.41564,28.751297 12.1669,4.346646 25.75332,0.628912 34.01202,-9.306909 L 180.33438,37.152652 c -3.32741,3.873951 -8.24121,6.481626 -12.70723,5.188474 -4.46601,-1.293156 -7.48229,-5.455495 -7.32062,-10.102148 0.16167,-4.646652 3.45994,-8.58929 8.00503,-9.568928 4.54509,-0.979638 8.05314,0.833701 11.93702,5.421754 z"
         id="path898-1-5"
         inkscape:connector-curvature="0" />
      <polygon
         id="path904-8-6-1"
         points="214.20436,24.654423 197.46518,24.654423 201.13964,4.4449373 227.67734,4.4449373 251.15301,4.4449373 255.43987,24.654423 238.7007,24.654423 435.36951,62.215484 227.67734,62.215484 214.20436,62.215484 " />
      <path
         d="m 316.28323,18.421078 c 1.55946,8.081625 -2.83372,16.133449 -10.1554,19.947295 l 15.60596,23.766763 H 296.1216 l -7.90465,-8.452534 V 27.25726 h 2.20101 c 1.0551,0 2.03007,-0.56289 2.55763,-1.476645 0.52755,-0.913754 0.52755,-2.039543 0,-2.953294 -0.52756,-0.913754 -1.50253,-1.476649 -2.55763,-1.476649 h -8.17422 V 62.135136 H 258.94031 V 4.5002927 h 26.90395 13.57519 c 8.2307,0 15.30432,5.8391603 16.86378,13.9207853 z"
         id="path944-0-2"
         inkscape:connector-curvature="0" />
      <path
         d="m 316.28323,18.421078 c 1.55946,8.081625 -2.83371,16.133449 -10.1554,19.947295 l 15.60596,23.766767 h -25.6122 l -7.90464,-8.452538 V 27.25726 h 2.20101 c 1.05511,0 2.03007,-0.56289 2.55763,-1.476645 0.52755,-0.913754 0.52755,-2.039543 0,-2.953294 -0.52756,-0.913754 -1.50252,-1.476649 -2.55763,-1.476649 h -8.17421 V 62.13514 H 258.9403 L 225.03872,4.5002927 h 60.80554 13.57519 c 8.23071,0 15.30433,5.8391603 16.86378,13.9207853 z"
         id="path944-7-0"
         inkscape:connector-curvature="0" />
      <polygon
         id="path872-4-3-7-9"
         points="327.76766,33.330208 327.76766,62.275417 377.02865,62.275417 380.39899,46.613282 351.05727,46.613282 351.05727,40.269129 362.75431,40.269129 362.75431,33.330208 362.75431,26.391287 351.05727,26.391287 351.05727,20.047135 380.39899,20.047135 377.02865,4.3849997 327.76766,4.3849997 " />
      <polygon
         id="path965-5-7"
         points="420.12378,16.997367 326.05543,4.3700992 455.94408,4.3700992 437.93574,33.417782 455.94404,62.465452 213.98437,62.465452 420.12378,49.838192 411.49615,43.960725 384.30354,59.241146 196.51611,36.277636 173.12923,33.417782 372.0117,4.3701034 411.49611,4.3701034 " />
      <path
         d="M 28.293852,2.6507038 H 2.0280015 c -1.61079072,0 -2.57655557,1.7897852 -1.69225194,3.1361336 L 38.29864,63.58517 c 0.799684,1.217515 2.58482,1.217515 3.384504,1e-6 L 79.646039,5.7868375 C 80.530342,4.4404891 79.564578,2.6507038 77.953787,2.6507038 H 51.687936 l -0.171414,0.00726 C 50.949026,2.7061318 50.42482,2.9918579 50.07673,3.449304 L 39.990809,16.702628 29.905059,3.4493043 C 29.52216,2.9461134 28.92616,2.6507038 28.293852,2.6507038 Z m 45.906957,4.048924 -34.21,52.0850002 L 5.7798088,6.6996278 H 27.289809 l 11.089877,14.5735372 0.10529,0.127554 c 0.837079,0.935398 2.340631,0.89288 3.117122,-0.127554 L 52.690809,6.6996278 Z"
         id="path855-6"
         inkscape:connector-curvature="0"
         style="fill:#ffffff" />
      <path
         d="M 131.98114,2.3603648 H 82.720155 c -1.118175,0 -2.024635,0.9064599 -2.024635,2.0246349 V 62.275417 c 0,1.118175 0.90646,2.024635 2.024635,2.024635 h 49.260985 c 0.95404,0 1.77862,-0.666019 1.97933,-1.598703 l 3.37034,-15.662135 0.0259,-0.145101 c 0.17103,-1.205485 -0.76512,-2.305466 -2.00521,-2.305466 l -27.31767,-1.9e-5 v -2.295 l 9.67298,1.36e-4 c 1.11818,0 2.02464,-0.90646 2.02464,-2.024635 V 26.391287 l -0.006,-0.151101 c -0.0773,-1.047606 -0.95174,-1.873534 -2.01909,-1.873534 l -9.67298,-2.4e-5 v -2.295 l 27.31767,1.41e-4 c 1.28969,0 2.25064,-1.18974 1.97933,-2.450566 L 133.96046,3.9590676 c -0.2007,-0.9326846 -1.02529,-1.5987028 -1.97932,-1.5987028 z m -1.63533,4.049263 2.499,11.6120002 -26.83505,8.72e-4 c -1.11817,0 -2.02463,0.90646 -2.02463,2.024635 v 6.344152 l 0.006,0.151101 c 0.0773,1.047607 0.95173,1.873534 2.01908,1.873534 l 9.67205,-2.94e-4 v 9.828 l -9.67205,8.67e-4 c -1.11817,0 -2.02463,0.906459 -2.02463,2.024634 v 6.344153 l 0.006,0.151101 c 0.0773,1.047607 0.95173,1.873534 2.01908,1.873534 l 26.83505,-2.89e-4 -2.499,11.613 H 84.743809 V 6.4096278 Z"
         id="path872-4-6"
         inkscape:connector-curvature="0"
         style="fill:#ffffff" />
      <path
         d="m 159.17378,2.0760094 c -12.8991,4.8199273 -21.41285,17.1852206 -21.31316,30.9550596 0.0997,13.769847 8.79155,26.010586 21.75908,30.643254 12.96753,4.632674 27.448,0.670299 36.25015,-9.919339 0.64632,-0.777566 0.6199,-1.91276 -0.0619,-2.659411 L 181.82947,35.787424 c -0.8194,-0.897354 -2.23918,-0.875788 -3.03095,0.04604 -3.16024,3.679309 -7.3136,5.516896 -10.60826,4.562913 -3.57514,-1.035201 -5.98975,-4.367247 -5.86033,-8.086998 0.12943,-3.719753 2.76977,-6.875922 6.40821,-7.660144 3.59264,-0.774349 6.40218,0.54175 9.96514,4.750697 0.79266,0.936376 2.22933,0.958225 3.0501,0.04639 l 13.77706,-15.305715 c 0.68023,-0.7557 0.69448,-1.898683 0.0333,-2.671101 C 186.6092,1.0084017 172.07288,-2.7439187 159.17378,2.0760094 Z m 32.12103,10.7166186 -11.056,12.282 -0.10301,-0.106166 c -3.85553,-3.878969 -7.658,-5.267525 -12.25083,-4.277596 -5.45173,1.175053 -9.40793,5.904154 -9.60186,11.477709 -0.19392,5.573558 3.42405,10.566189 8.78093,12.117301 l 0.30342,0.0829 c 4.25789,1.094323 8.92298,-0.586793 12.6964,-4.032003 l 0.23595,-0.219144 11.291,12.365 -0.26425,0.279382 c -7.79224,8.073376 -19.65488,10.917992 -30.34458,7.099078 -11.36625,-4.060612 -18.98482,-14.789827 -19.0722,-26.859332 -0.0874,-12.069496 7.37507,-22.907886 18.68135,-27.1326337 10.62518,-3.9702456 22.51772,-1.3047708 30.42607,6.6408227 z"
         id="path898-4"
         inkscape:connector-curvature="0"
         style="fill:#ffffff" />
      <path
         d="m 159.17378,2.0760094 c -12.8991,4.8199273 -21.41284,17.1852206 -21.31316,30.9550596 0.0997,13.769846 8.79156,26.010585 21.75908,30.643258 12.96753,4.632674 27.448,0.670298 36.25015,-9.919344 0.64632,-0.777566 0.61989,-1.912759 -0.0619,-2.65941 L 181.82947,35.787424 c -0.8194,-0.897354 -2.23918,-0.875788 -3.03095,0.04604 -3.16024,3.679309 -7.31359,5.516896 -10.60826,4.562913 -3.57514,-1.035201 -5.98974,-4.367247 -5.86032,-8.086998 0.12942,-3.719753 2.76976,-6.875922 6.40821,-7.660144 3.59264,-0.774349 6.40217,0.54175 9.96513,4.750697 0.79266,0.936376 2.22934,0.958225 3.05011,0.04639 l 13.77706,-15.305715 c 0.68022,-0.7557 0.69447,-1.898683 0.0333,-2.671102 C 186.6092,1.0084011 172.07288,-2.7439184 159.17378,2.0760094 Z m 32.12103,10.7166186 -11.056,12.282 -0.10301,-0.106166 c -3.85552,-3.878969 -7.65799,-5.267525 -12.25083,-4.277596 -5.45173,1.175053 -9.40793,5.904154 -9.60185,11.477709 -0.19392,5.573558 3.42404,10.566189 8.78092,12.117301 l 0.30343,0.0829 c 4.25788,1.094323 8.92298,-0.586794 12.69639,-4.032004 l 0.23595,-0.219143 11.291,12.365 -0.26425,0.279383 c -7.79224,8.073378 -19.65488,10.917994 -30.34457,7.09908 C 149.61573,55.800476 141.99716,45.07126 141.90978,33.001756 141.82241,20.93226 149.28485,10.09387 160.59113,5.8691223 171.21631,1.8988769 183.10885,4.5643511 191.01721,12.509945 Z"
         id="path898-1"
         inkscape:connector-curvature="0"
         style="fill:#ffffff" />
      <path
         d="m 251.15301,2.4203024 h -50.01337 c -0.99123,0 -1.8367,0.7176515 -1.99774,1.6957058 l -3.32751,20.2094858 -0.0189,0.147344 c -0.10755,1.17341 0.81709,2.20622 2.01661,2.20622 l 14.36668,-4.3e-4 9.1e-4,35.536856 c 0,1.118174 0.90646,2.024634 2.02464,2.024634 h 24.49634 l 0.1511,-0.0056 c 1.0476,-0.07729 1.87353,-0.951733 1.87353,-2.019081 l -5.2e-4,-35.536856 12.4946,4.3e-4 c 1.19962,0 2.13616,-1.037184 2.01414,-2.230579 L 253.16714,4.2389934 c -0.10563,-1.0330475 -0.9757,-1.818691 -2.01413,-1.818691 z m -1.8282,4.0483254 1.652,16.1610002 -12.27611,1.6e-4 -0.1511,0.0056 c -1.04761,0.07729 -1.87354,0.951732 -1.87354,2.019081 l -2.5e-4,35.536205 h -20.447 l 1.8e-4,-35.536205 -0.006,-0.151101 c -0.0773,-1.047606 -0.95174,-1.873534 -2.01908,-1.873534 l -14.00755,-1.6e-4 2.661,-16.1610002 z"
         id="path904-8-6"
         inkscape:connector-curvature="0"
         style="fill:#ffffff" />
      <path
         d="m 282.73331,62.135136 -5e-4,-38.760508 7.68515,6.79e-4 c 0.33177,0 0.63836,0.177005 0.80425,0.464336 0.16588,0.287317 0.16588,0.641332 -1e-5,0.928669 -0.16588,0.287311 -0.47246,0.464313 -0.80424,0.464313 h -2.20101 c -1.11817,0 -2.02463,0.90646 -2.02463,2.024635 v 26.425342 c 0,0.513514 0.19513,1.007843 0.54588,1.382904 l 7.90464,8.452534 c 0.38284,0.409377 0.91826,0.641731 1.47876,0.641731 h 25.61219 l 0.14908,-0.0052 c 1.52015,-0.106239 2.39976,-1.826448 1.54332,-3.130738 l -14.43938,-21.99023 0.0871,-0.05551 c 6.97274,-4.62513 10.75867,-12.848996 9.19729,-20.940619 C 316.5279,9.0031589 308.62042,2.4756578 299.41945,2.4756578 h -40.47914 c -1.11818,0 -2.02464,0.9064599 -2.02464,2.0246349 V 62.135136 c 0,1.118175 0.90646,2.024635 2.02464,2.024635 h 21.76837 c 1.11817,0 2.02463,-0.90646 2.02463,-2.024635 z m -21.7685,-2.025508 V 6.5246278 h 38.45464 c 7.26044,0 13.5002,5.1511202 14.87582,12.2800542 1.3567,7.030867 -2.4113,14.282488 -9.10278,17.768061 l -0.13461,0.07666 c -0.95722,0.593955 -1.2518,1.871794 -0.62245,2.830248 l 13.54638,20.629977 h -20.982 l -6.759,-7.226 v -23.602 l 0.17715,2.67e-4 c 1.77844,0 3.42179,-0.948784 4.31101,-2.488958 0.88922,-1.54019 0.88922,-3.437754 10e-6,-4.977922 -0.88923,-1.54019 -2.53258,-2.488978 -4.31102,-2.488978 h -9.70928 l -0.1511,0.0056 c -1.04761,0.07729 -1.87354,0.951733 -1.87354,2.019081 l -2.3e-4,38.758956 z"
         id="path944-0"
         inkscape:connector-curvature="0"
         style="fill:#ffffff" />
      <path
         d="m 282.73332,62.13514 -5.1e-4,-38.760512 7.68515,6.79e-4 c 0.33178,0 0.63835,0.177002 0.80424,0.46433 0.16589,0.287329 0.16589,0.641332 0,0.928663 -0.16589,0.287326 -0.47246,0.464325 -0.80424,0.464325 h -2.20101 c -1.11817,0 -2.02463,0.90646 -2.02463,2.024635 v 26.425342 c 0,0.513514 0.19512,1.007842 0.54587,1.382904 l 7.90464,8.452538 c 0.38285,0.409377 0.91826,0.641731 1.47876,0.641731 h 25.6122 l 0.14907,-0.0052 c 1.52016,-0.106239 2.39976,-1.826448 1.54333,-3.130738 l -14.43938,-21.990234 0.0871,-0.05551 C 316.04665,34.352966 319.83258,26.129101 318.2712,18.037475 316.52791,9.0031592 308.62042,2.4756578 299.41945,2.4756578 H 258.9403 c -1.11817,0 -2.02463,0.9064599 -2.02463,2.0246349 V 62.13514 c 0,1.118175 0.90646,2.024635 2.02463,2.024635 h 21.76839 c 1.11817,0 2.02463,-0.90646 2.02463,-2.024635 z M 260.96481,60.109628 V 6.5246278 h 38.45464 c 7.26044,0 13.5002,5.1511192 14.87582,12.2800532 1.3567,7.030871 -2.4113,14.282491 -9.10278,17.768061 l -0.13461,0.07666 c -0.95722,0.593954 -1.2518,1.871793 -0.62245,2.830248 l 13.54638,20.629977 h -20.982 l -6.759,-7.226 v -23.602 l 0.17715,2.67e-4 c 1.77844,0 3.42179,-0.948785 4.31101,-2.488964 0.88922,-1.540179 0.88922,-3.437754 0,-4.977928 -0.88922,-1.540176 -2.53257,-2.488966 -4.31101,-2.488966 h -9.70928 l -0.1511,0.0056 c -1.04761,0.07729 -1.87354,0.951733 -1.87354,2.019082 l -2.3e-4,38.758955 z"
         id="path944-7"
         inkscape:connector-curvature="0"
         style="fill:#ffffff" />
      <path
         d="m 377.02865,2.3603648 h -49.26099 c -1.11817,0 -2.02463,0.9064599 -2.02463,2.0246349 V 62.275417 c 0,1.118175 0.90646,2.024635 2.02463,2.024635 h 49.26099 c 0.95404,0 1.77862,-0.666019 1.97933,-1.598703 l 3.37034,-15.662135 0.0259,-0.145101 c 0.17102,-1.205485 -0.76513,-2.305466 -2.00522,-2.305466 l -27.31718,-1.9e-5 v -2.295 l 9.6725,1.36e-4 c 1.11817,0 2.02463,-0.90646 2.02463,-2.024635 V 26.391287 l -0.006,-0.151101 c -0.0773,-1.047606 -0.95173,-1.873534 -2.01908,-1.873534 l -9.6725,-2.4e-5 v -2.295 l 27.31718,1.41e-4 c 1.28969,0 2.25065,-1.18974 1.97933,-2.450566 L 379.00797,3.9590676 c -0.2007,-0.9326846 -1.02529,-1.5987028 -1.97932,-1.5987028 z m -1.63584,4.049263 2.499,11.6120002 -26.83454,8.72e-4 c -1.11817,0 -2.02463,0.90646 -2.02463,2.024635 v 6.344152 l 0.006,0.151101 c 0.0773,1.047607 0.95173,1.873534 2.01908,1.873534 l 9.67154,-2.94e-4 v 9.828 l -9.67154,8.67e-4 c -1.11817,0 -2.02463,0.906459 -2.02463,2.024634 v 6.344153 l 0.006,0.151101 c 0.0773,1.047607 0.95173,1.873534 2.01908,1.873534 l 26.83454,-2.89e-4 -2.499,11.613 h -45.601 V 6.4096278 Z"
         id="path872-4-3-7"
         inkscape:connector-curvature="0"
         style="fill:#ffffff" />
      <path
         d="m 384.3035,2.3603595 -0.15049,0.00533 c -1.48501,0.1058687 -2.36087,1.7677302 -1.55762,3.0633711 l 17.35042,27.9885684 -17.35042,27.988867 c -0.83002,1.338829 0.13287,3.0687 1.70811,3.0687 h 27.19265 l 0.16495,-0.0068 c 0.60069,-0.0494 1.15114,-0.366735 1.49444,-0.869186 l 6.96827,-10.198614 6.96821,10.198614 c 0.37451,0.548128 0.99553,0.875953 1.65939,0.875953 h 27.19267 l 0.15049,-0.0053 c 1.48501,-0.105868 2.36087,-1.767729 1.55763,-3.06337 L 440.30081,33.417628 457.6522,5.4290589 c 0.83001,-1.338829 -0.13288,-3.0686994 -1.70812,-3.0686994 h -27.19263 l -0.16495,0.00677 c -0.60069,0.0494 -1.15114,0.3667335 -1.49444,0.8691823 L 420.12381,13.433628 413.1555,3.2363092 c -0.37452,-0.5481259 -0.99554,-0.8759497 -1.65939,-0.8759497 z m 68.02931,4.0192683 -16.10519,25.9791942 -0.0857,0.152593 c -0.31412,0.621323 -0.28556,1.366528 0.0857,1.965327 l 16.10619,25.978886 h -22.522 l -8.02864,-11.751223 -0.0961,-0.129579 c -0.83307,-1.036631 -2.4554,-0.993438 -3.2227,0.129579 l -8.02958,11.751223 h -22.522 l 16.10716,-25.978886 0.0857,-0.152593 c 0.31412,-0.621323 0.28556,-1.366529 -0.0857,-1.965328 L 387.91381,6.3796278 h 22.521 l 8.02958,11.7515292 0.0961,0.129579 c 0.83308,1.036627 2.4554,0.993434 3.22271,-0.129579 l 8.02864,-11.7515292 z"
         id="path965-5"
         inkscape:connector-curvature="0"
         style="fill:#ffffff" />
      <path
         d="m 463.99971,64.590802 v -5.429084 h -2.0359 v -0.95009 h 5.29336 v 0.95009 h -2.30736 v 5.429084 z m 3.80036,0 v -6.379174 h 1.62873 l 1.62872,5.15763 1.62873,-5.15763 h 1.493 v 6.379174 h -0.95009 v -5.429084 l -1.62873,5.429084 h -0.95009 l -1.76445,-5.429084 v 5.429084 z"
         id="Shape"
         inkscape:connector-curvature="0"
         style="fill:#ffffff" />
    </g>
  </g>
</svg>
