<?xml version="1.0" encoding="UTF-8" standalone="no"?>
<!-- Created with Inkscape (http://www.inkscape.org/) -->

<svg
   width="500"
   height="200"
   viewBox="0 0 132.29166 52.916668"
   version="1.1"
   id="svg8"
   inkscape:version="1.2.2 (b0a8486541, 2022-12-01)"
   sodipodi:docname="vircon32.svg"
   inkscape:export-filename="apple2.png"
   inkscape:export-xdpi="96"
   inkscape:export-ydpi="96"
   xml:space="preserve"
   xmlns:inkscape="http://www.inkscape.org/namespaces/inkscape"
   xmlns:sodipodi="http://sodipodi.sourceforge.net/DTD/sodipodi-0.dtd"
   xmlns="http://www.w3.org/2000/svg"
   xmlns:svg="http://www.w3.org/2000/svg"
   xmlns:rdf="http://www.w3.org/1999/02/22-rdf-syntax-ns#"
   xmlns:cc="http://creativecommons.org/ns#"
   xmlns:dc="http://purl.org/dc/elements/1.1/"><defs
     id="defs2"><filter
       inkscape:label="Relief Print"
       inkscape:menu="Bumps"
       inkscape:menu-tooltip="Bumps effect with a bevel, color flood and complex lighting"
       style="color-interpolation-filters:sRGB;"
       id="filter1045"
       x="-0.1267519"
       y="-0.45850731"
       width="1.2535038"
       height="1.9170146"><feGaussianBlur
         stdDeviation="5"
         result="result8"
         id="feGaussianBlur1011" /><feComposite
         result="result6"
         in="SourceGraphic"
         operator="in"
         in2="result8"
         id="feComposite1013" /><feComposite
         operator="in"
         result="result11"
         in2="result6"
         id="feComposite1015" /><feFlood
         result="result10"
         flood-opacity="1"
         flood-color="rgb(255,255,255)"
         id="feFlood1017" /><feBlend
         mode="multiply"
         in="result10"
         in2="result11"
         result="result12"
         id="feBlend1019" /><feComposite
         result="fbSourceGraphic"
         operator="in"
         in2="SourceGraphic"
         in="result12"
         id="feComposite1021" /><feFlood
         result="result6"
         flood-color="rgb(75,101,154)"
         id="feFlood1023" /><feComposite
         k3="0.3"
         k2="0.3"
         k1="0.5"
         operator="arithmetic"
         result="result2"
         in="fbSourceGraphic"
         in2="result6"
         id="feComposite1025"
         k4="0" /><feColorMatrix
         result="fbSourceGraphicAlpha"
         in="result2"
         values="1 0 0 -1 0 1 0 1 -1 0 1 0 0 -1 0 -0.8 -1 0 3.9 -2.7 "
         type="matrix"
         id="feColorMatrix1027" /><feGaussianBlur
         result="result0"
         in="fbSourceGraphicAlpha"
         stdDeviation="0.5"
         id="feGaussianBlur1029" /><feDiffuseLighting
         lighting-color="rgb(255,255,255)"
         diffuseConstant="0.7"
         surfaceScale="50"
         result="result13"
         in="result0"
         id="feDiffuseLighting1033"><feDistantLight
           elevation="20"
           azimuth="225"
           id="feDistantLight1031" /></feDiffuseLighting><feSpecularLighting
         specularExponent="20"
         specularConstant="0.7"
         surfaceScale="10"
         lighting-color="rgb(255,255,255)"
         result="result1"
         in="result0"
         id="feSpecularLighting1037"><feDistantLight
           elevation="45"
           azimuth="225"
           id="feDistantLight1035" /></feSpecularLighting><feBlend
         mode="screen"
         result="result5"
         in2="SourceGraphic"
         in="result13"
         id="feBlend1039" /><feComposite
         in="result1"
         k3="1"
         k2="1"
         operator="arithmetic"
         in2="result5"
         result="result9"
         id="feComposite1041"
         k1="0"
         k4="0" /><feComposite
         in2="SourceGraphic"
         operator="in"
         id="feComposite1043" /></filter><filter
       inkscape:label="Relief Print"
       inkscape:menu="Bumps"
       inkscape:menu-tooltip="Bumps effect with a bevel, color flood and complex lighting"
       style="color-interpolation-filters:sRGB;"
       id="filter1141"
       x="-0.12952109"
       y="-0.58973628"
       width="1.2590422"
       height="2.1794726"><feGaussianBlur
         stdDeviation="5"
         result="result8"
         id="feGaussianBlur1107" /><feComposite
         result="result6"
         in="SourceGraphic"
         operator="in"
         in2="result8"
         id="feComposite1109" /><feComposite
         operator="in"
         result="result11"
         in2="result6"
         id="feComposite1111" /><feFlood
         result="result10"
         flood-opacity="1"
         flood-color="rgb(255,255,255)"
         id="feFlood1113" /><feBlend
         mode="multiply"
         in="result10"
         in2="result11"
         result="result12"
         id="feBlend1115" /><feComposite
         result="fbSourceGraphic"
         operator="in"
         in2="SourceGraphic"
         in="result12"
         id="feComposite1117" /><feFlood
         result="result6"
         flood-color="rgb(75,101,154)"
         id="feFlood1119" /><feComposite
         k3="0.3"
         k2="0.3"
         k1="0.5"
         operator="arithmetic"
         result="result2"
         in="fbSourceGraphic"
         in2="result6"
         id="feComposite1121"
         k4="0" /><feColorMatrix
         result="fbSourceGraphicAlpha"
         in="result2"
         values="1 0 0 -1 0 1 0 1 -1 0 1 0 0 -1 0 -0.8 -1 0 3.9 -2.7 "
         type="matrix"
         id="feColorMatrix1123" /><feGaussianBlur
         result="result0"
         in="fbSourceGraphicAlpha"
         stdDeviation="0.5"
         id="feGaussianBlur1125" /><feDiffuseLighting
         lighting-color="rgb(255,255,255)"
         diffuseConstant="0.7"
         surfaceScale="50"
         result="result13"
         in="result0"
         id="feDiffuseLighting1129"><feDistantLight
           elevation="20"
           azimuth="225"
           id="feDistantLight1127" /></feDiffuseLighting><feSpecularLighting
         specularExponent="20"
         specularConstant="0.7"
         surfaceScale="10"
         lighting-color="rgb(255,255,255)"
         result="result1"
         in="result0"
         id="feSpecularLighting1133"><feDistantLight
           elevation="45"
           azimuth="225"
           id="feDistantLight1131" /></feSpecularLighting><feBlend
         mode="screen"
         result="result5"
         in2="SourceGraphic"
         in="result13"
         id="feBlend1135" /><feComposite
         in="result1"
         k3="1"
         k2="1"
         operator="arithmetic"
         in2="result5"
         result="result9"
         id="feComposite1137"
         k1="0"
         k4="0" /><feComposite
         in2="SourceGraphic"
         operator="in"
         id="feComposite1139" /></filter></defs><sodipodi:namedview
     id="base"
     pagecolor="#ffffff"
     bordercolor="#666666"
     borderopacity="1.0"
     inkscape:pageopacity="0.0"
     inkscape:pageshadow="2"
     inkscape:zoom="0.91071775"
     inkscape:cx="257.48922"
     inkscape:cy="139.99947"
     inkscape:document-units="mm"
     inkscape:current-layer="layer1"
     showgrid="false"
     units="px"
     inkscape:pagecheckerboard="true"
     inkscape:window-width="1366"
     inkscape:window-height="740"
     inkscape:window-x="0"
     inkscape:window-y="0"
     inkscape:window-maximized="1"
     inkscape:showpageshadow="0"
     inkscape:deskcolor="#d1d1d1" /><metadata
     id="metadata5"><rdf:RDF><cc:Work
         rdf:about=""><dc:format>image/svg+xml</dc:format><dc:type
           rdf:resource="http://purl.org/dc/dcmitype/StillImage" /></cc:Work></rdf:RDF></metadata><g
     inkscape:label="Layer 1"
     inkscape:groupmode="layer"
     id="layer1"
     transform="translate(0,-244.08332)"><g
       id="g1547"
       transform="matrix(1.0783424,0,0,1.0783424,-2.6992494,-21.279749)"
       style="fill:#ffffff"><path
         id="path1461"
         style="fill:#ffffff;stroke-width:0.0957175"
         d="m 18.162716,256.7921 c -1.937324,0 -2.101107,0.013 -2.101681,0.16744 -5.66e-4,0.14909 0.122195,0.90603 0.38499,2.36884 0.234414,1.30485 0.405547,2.24293 0.479557,2.6324 0.04502,0.2369 0.149624,0.81863 0.232544,1.29243 0.08292,0.4738 0.190875,1.07675 0.240295,1.33997 0.04942,0.26323 0.13498,0.73678 0.190169,1.05265 0.05519,0.31587 0.1886,1.06994 0.296106,1.67535 0.107507,0.60542 0.282004,1.59599 0.38809,2.20141 0.264637,1.51022 0.367906,2.08047 0.467155,2.58434 0.07867,0.39941 0.142396,0.75204 0.535885,2.96726 0.158999,0.89512 0.321315,1.70485 0.379305,1.89033 0.02852,0.0912 0.568159,0.11989 2.271696,0.11989 h 2.233972 l 0.712618,-1.3131 c 0.391706,-0.72214 0.755063,-1.38348 0.807703,-1.46968 0.05264,-0.0862 0.299479,-0.53991 0.548287,-1.00821 0.436924,-0.82237 0.656609,-1.22075 1.581299,-2.86184 0.237306,-0.42115 0.571034,-1.0241 0.741556,-1.33997 0.170523,-0.31587 0.407551,-0.74647 0.526583,-0.95704 0.119034,-0.21057 0.380484,-0.69073 0.58136,-1.06712 0.200876,-0.37638 0.683485,-1.25933 1.072286,-1.96216 0.388801,-0.70282 0.892424,-1.62264 1.119312,-2.0438 0.226886,-0.42115 0.444544,-0.80885 0.483174,-0.86145 0.03864,-0.0527 0.263548,-0.46202 0.500228,-0.9095 0.23668,-0.44748 0.520627,-0.97364 0.630969,-1.16944 0.110343,-0.19581 0.35958,-0.64814 0.553972,-1.00511 0.194391,-0.35696 0.519156,-0.94373 0.721403,-1.30379 0.605301,-1.0776 0.696997,-1.0201 -1.630392,-1.0201 -1.484031,0 -2.023149,0.0306 -2.093929,0.11938 -0.05242,0.0658 -0.276237,0.46457 -0.497644,0.88573 -0.42901,0.81606 -0.76234,1.42882 -1.196309,2.20142 -0.147853,0.26323 -0.429763,0.78026 -0.626835,1.14876 -0.197072,0.36852 -0.455786,0.84207 -0.574642,1.05265 -0.118855,0.21057 -0.388376,0.70587 -0.59893,1.10071 -0.210554,0.39483 -0.479965,0.89013 -0.59893,1.10071 -0.63257,1.1197 -2.521417,4.58707 -3.337264,6.12624 -0.111618,0.21058 -0.226738,0.40417 -0.255798,0.43047 -0.02907,0.0263 -0.128889,0.21187 -0.222209,0.41237 -0.219867,0.4724 -0.380572,0.40847 -0.451652,-0.18035 -0.05631,-0.4665 -0.340556,-2.20354 -0.617533,-3.77341 -0.209433,-1.18703 -0.310248,-1.78402 -0.428915,-2.5368 -0.05809,-0.36852 -0.144499,-0.88503 -0.191719,-1.14825 -0.04722,-0.26323 -0.152495,-0.90964 -0.234095,-1.43608 -0.0816,-0.52644 -0.208573,-1.28001 -0.282153,-1.67484 -0.07358,-0.39484 -0.183116,-1.04125 -0.243396,-1.43609 -0.06028,-0.39483 -0.148777,-0.93308 -0.196887,-1.19631 -0.04811,-0.26322 -0.112307,-0.64026 -0.142627,-0.83767 L 20.2644,256.7921 Z m 73.754671,0.007 c -0.105289,-0.003 -0.255893,0.0369 -0.334863,0.0879 v -5.2e-4 c -0.127623,0.0825 -0.127623,0.0928 0,0.0879 0.07897,-0.003 0.229574,-0.0426 0.334863,-0.0879 l 0.191719,-0.0822 z m 2.727999,0.003 -0.239262,0.008 0.239262,0.077 c 0.131612,0.0421 0.303952,0.0808 0.382922,0.0848 0.127623,0.007 0.127623,-0.002 0,-0.0848 -0.07897,-0.051 -0.25131,-0.0887 -0.382922,-0.0847 z m 14.166574,0 -0.23926,0.008 0.23926,0.077 c 0.13161,0.0421 0.30393,0.0808 0.38293,0.0848 0.12762,0.007 0.12762,-0.002 0,-0.0848 -0.079,-0.051 -0.25132,-0.0887 -0.38293,-0.0847 z m -2.68045,0.005 c -0.13161,-0.002 -0.32518,0.0344 -0.43047,0.0796 l -0.19172,0.0827 0.19172,-0.003 c 0.10529,-0.002 0.29886,-0.0374 0.43047,-0.0796 l 0.23926,-0.0765 z m -10.767822,0.17776 c -0.05264,0 -0.03143,0.042 0.04754,0.093 0.07897,0.0511 0.186622,0.093 0.239262,0.093 0.05264,0 0.03143,-0.042 -0.04754,-0.093 -0.07897,-0.0511 -0.186622,-0.093 -0.239262,-0.093 z m -4.140832,0.003 c -0.12844,-0.006 -0.980302,0.37314 -0.980302,0.43614 0,0.0632 0.05437,0.0451 0.58601,-0.19637 0.283135,-0.12858 0.460672,-0.23677 0.394292,-0.23977 z m 14.143324,0.003 c -0.079,-0.003 -0.20832,0.0363 -0.28732,0.0873 -0.17497,0.11307 -0.0239,0.11307 0.23926,0 0.1263,-0.0542 0.14276,-0.0843 0.0481,-0.0873 z m 4.21111,0 c -0.0946,0.003 -0.0782,0.0331 0.0481,0.0873 0.26309,0.11307 0.41424,0.11307 0.23926,0 -0.079,-0.051 -0.20832,-0.0903 -0.28732,-0.0873 z m -13.704072,0.18603 c -0.06975,10e-4 0.122558,0.13799 0.427364,0.30335 0.304806,0.16536 0.714186,0.45999 0.909505,0.65474 0.406443,0.40527 0.649857,0.50809 0.299723,0.1266 -0.281927,-0.30718 -1.460352,-1.08869 -1.636592,-1.08469 z m 8.918322,10e-4 c -0.079,0.001 -0.22699,0.0658 -0.32918,0.14314 v -5.2e-4 c -0.23891,0.18116 -0.15065,0.18 0.19844,-0.002 0.15077,-0.0786 0.20974,-0.14156 0.13074,-0.14056 z m 5.36608,5.1e-4 c -0.0821,0.002 -0.02,0.0631 0.13797,0.1354 0.37546,0.17193 0.42377,0.17212 0.19689,5.1e-4 -0.1022,-0.0773 -0.25276,-0.13791 -0.33486,-0.13591 z m 0.6165,0.28319 c -0.0264,0 -0.0481,0.0218 -0.0481,0.0481 0,0.0263 0.0218,0.0475 0.0481,0.0475 0.0264,0 0.0481,-0.0212 0.0481,-0.0475 0,-0.0264 -0.0218,-0.0481 -0.0481,-0.0481 z m -20.682978,5.2e-4 c -0.04826,2.6e-4 -0.217237,0.11131 -0.375171,0.24701 l -0.286804,0.24702 0.334863,-0.21653 c 0.429736,-0.27734 0.43093,-0.27806 0.327112,-0.2775 z m 14.070458,0 c -0.0483,2.6e-4 -0.21724,0.11131 -0.37517,0.24701 l -0.2868,0.24702 0.33486,-0.21653 c 0.42973,-0.27734 0.43092,-0.27806 0.32711,-0.2775 z m 6.7877,0.13487 c 0.004,0.0133 0.0566,0.0588 0.15968,0.14315 0.26801,0.21919 0.32618,0.24469 0.23978,0.1049 -0.0324,-0.0524 -0.15372,-0.14142 -0.26924,-0.19792 -0.0905,-0.0442 -0.13439,-0.0634 -0.13022,-0.0501 z m 0.49454,0.29559 0.47491,0.5023 c 0.44135,0.46699 0.5302,0.5463 0.5302,0.4749 0,-0.0151 -0.22591,-0.24105 -0.50229,-0.50229 z m -22.099423,0.0476 c -0.02633,0 -0.07443,0.043 -0.10697,0.0956 -0.03254,0.0526 -0.03769,0.0961 -0.01137,0.0961 0.02632,0 0.07443,-0.0434 0.106971,-0.0961 0.03254,-0.0526 0.03769,-0.0956 0.01137,-0.0956 z m 13.988293,0.108 c -0.008,-0.001 -0.0471,0.0265 -0.11627,0.0847 -0.43746,0.3681 -0.53072,0.45921 -0.53072,0.51831 0,0.10099 0.0555,0.0565 0.43563,-0.35088 0.15421,-0.16526 0.22497,-0.24975 0.21136,-0.25218 z m -14.190864,0.0367 -0.369487,0.33435 c -0.59687,0.54031 -1.601567,2.0166 -1.588017,2.33319 0.0025,0.0592 0.137476,-0.15129 0.299724,-0.46716 0.322022,-0.62692 0.665545,-1.10694 1.267106,-1.76992 z m 8.66252,0.53123 c -0.02313,0 -0.04653,0.009 -0.06408,0.0264 -0.0351,0.0351 -0.0061,0.0636 0.06408,0.0636 0.07021,0 0.09866,-0.0285 0.06356,-0.0636 -0.01755,-0.0175 -0.04043,-0.0264 -0.06356,-0.0264 z m 0.128674,0.21653 c -0.02665,0.0267 0.02446,0.15992 0.113689,0.2961 0.222631,0.33972 0.273976,0.31136 0.08785,-0.0486 -0.0842,-0.1628 -0.174888,-0.27423 -0.201538,-0.24753 z m 4.59662,0.009 c -0.002,-0.008 -0.0106,-0.008 -0.0274,0.003 -0.16884,0.10435 -0.96525,1.34923 -0.96325,1.50534 9.6e-4,0.0697 0.12973,-0.10511 0.28629,-0.38913 0.15655,-0.28402 0.40051,-0.66858 0.54209,-0.85421 0.10652,-0.13925 0.16703,-0.2403 0.16226,-0.26458 z m 9.93789,0.1695 c -0.007,0.007 -9.9e-4,0.0288 0.0202,0.063 0.0376,0.0608 0.0874,0.11007 0.11059,0.11007 0.0798,0 0.0421,-0.0842 -0.0682,-0.15244 -0.0343,-0.0212 -0.0553,-0.028 -0.0625,-0.0207 z m 0.19121,0.28732 c -0.007,0.007 -4.8e-4,0.0283 0.0207,0.0625 0.0376,0.0608 0.0869,0.11058 0.11007,0.11058 0.0798,0 0.0421,-0.0848 -0.0682,-0.15296 -0.0342,-0.0211 -0.0552,-0.0274 -0.0625,-0.0202 z m -14.357783,0.19947 c -0.03738,-0.0123 -0.0095,0.0863 0.09767,0.25787 0.06381,0.10217 0.132959,0.16881 0.153479,0.14831 0.02052,-0.0205 -0.03142,-0.13591 -0.115755,-0.25632 -0.06687,-0.0955 -0.112965,-0.14249 -0.135392,-0.14986 z m 14.559833,0.12454 c -5.7e-4,0.0276 0.0531,0.1748 0.16072,0.45424 h 5.1e-4 c 0.0775,0.20115 0.1551,0.32245 0.1726,0.26975 0.0176,-0.0527 -0.0583,-0.26036 -0.16898,-0.46147 -0.10935,-0.19832 -0.16428,-0.29011 -0.16485,-0.26252 z m -5.29322,0.25683 c -0.11358,-3.4e-4 -0.23266,0.0144 -0.35088,0.0439 -0.34024,0.0848 -0.31794,0.0915 0.30283,0.0935 0.57789,0.002 0.62858,-0.0106 0.36741,-0.0915 -0.0975,-0.0302 -0.20577,-0.0457 -0.31936,-0.046 z m -14.561381,0.0816 c -0.08674,-2e-4 -0.176849,0.005 -0.249597,0.016 -0.145497,0.022 -0.04928,0.0406 0.213941,0.0413 0.263238,7e-4 0.38231,-0.0176 0.264583,-0.0403 -0.05886,-0.0112 -0.142183,-0.0169 -0.228927,-0.0171 z m 13.615191,0.0848 c -0.0526,0 -0.12201,0.0434 -0.15451,0.0961 -0.0325,0.0526 -0.0164,0.0956 0.0362,0.0956 0.0526,0 0.12253,-0.043 0.15503,-0.0956 0.0325,-0.0526 0.0159,-0.0961 -0.0367,-0.0961 z m 1.65106,0.005 c -0.0236,0.0107 0.0438,0.0725 0.21808,0.1788 0.16554,0.10094 0.42378,0.33765 0.57412,0.52606 h 5.2e-4 c 0.42523,0.53332 0.42039,0.42164 -0.008,-0.16898 -0.10866,-0.14991 -0.31416,-0.33289 -0.45631,-0.40669 -0.19049,-0.0989 -0.30507,-0.13986 -0.32866,-0.12919 z m -14.661636,0.002 c -0.131944,0.005 -0.126087,0.0223 0.02997,0.0894 0.256134,0.11006 0.259223,0.11006 0.191203,0 -0.03254,-0.0527 -0.132156,-0.0934 -0.221175,-0.0894 z m 4.998144,0.0109 c -0.02288,-0.003 -0.03876,0.0259 -0.03876,0.0786 0,0.0698 0.02846,0.0987 0.06356,0.0636 0.03509,-0.0351 0.03509,-0.0925 0,-0.12764 -0.0088,-0.009 -0.01718,-0.0133 -0.02481,-0.0145 z m -6.251815,0.003 c -0.183073,0.0124 -0.690495,0.31728 -0.91829,0.56999 l -0.286804,0.31833 0.286287,-0.23874 c 0.157479,-0.13142 0.308084,-0.26319 0.334864,-0.29249 0.02678,-0.0293 0.189986,-0.11045 0.362768,-0.18035 0.172784,-0.0699 0.297949,-0.1434 0.278019,-0.1633 -0.01116,-0.0112 -0.03069,-0.0152 -0.05684,-0.0134 z m 14.013617,0.12351 -0.35864,0.3297 c -0.19741,0.18142 -0.35915,0.37161 -0.35915,0.42271 0,0.0511 0.0111,0.0747 0.0243,0.0522 0.0132,-0.0225 0.17439,-0.21323 0.35863,-0.42323 z m -12.347569,0.0481 c -0.02632,0 -0.04754,0.0212 -0.04754,0.0475 0,0.0264 0.02122,0.0481 0.04754,0.0481 0.02632,0 0.04806,-0.0218 0.04806,-0.0481 0,-0.0264 -0.02174,-0.0475 -0.04806,-0.0475 z m 0.09612,0.0475 0.232027,0.26355 c 0.216887,0.24605 0.294039,0.30713 0.294039,0.23203 0,-0.0171 -0.11826,-0.13592 -0.263033,-0.26355 z m 4.561478,0.0718 c -0.0079,0.01 0.0018,0.064 0.02481,0.16743 0.02923,0.13161 0.0599,0.30393 0.0677,0.38293 0.0079,0.079 0.03267,0.0477 0.05529,-0.0693 0.02261,-0.11693 -0.008,-0.28932 -0.0677,-0.38292 -0.04694,-0.0736 -0.07222,-0.10798 -0.0801,-0.0982 z m 2.846341,0.18914 c -0.0142,-0.0124 -0.0475,0.0147 -0.0858,0.0739 -0.0511,0.079 -0.0925,0.18666 -0.0925,0.23926 0,0.0526 0.0415,0.0315 0.0925,-0.0476 0.051,-0.079 0.093,-0.18717 0.093,-0.23977 0,-0.0132 -0.003,-0.0217 -0.007,-0.0258 z m 11.70316,0.003 c -0.008,0.01 0.001,0.0637 0.0243,0.16692 0.0292,0.13162 0.0597,0.32569 0.0687,0.43098 0.0102,0.12482 0.0295,0.10072 0.0553,-0.0693 0.0218,-0.14343 -0.009,-0.33748 -0.0687,-0.43098 -0.0468,-0.0734 -0.0717,-0.10752 -0.0796,-0.0977 z m -18.559075,0.36897 c -0.0081,0.008 0.0025,0.045 0.02842,0.11317 0.03595,0.0944 0.08939,0.14784 0.118856,0.11834 0.02948,-0.0295 3.07e-4,-0.10666 -0.06511,-0.17156 -0.04726,-0.0469 -0.07409,-0.068 -0.08217,-0.0599 z m -7.519438,0.017 c -0.01514,-0.004 -0.03741,0.002 -0.0677,0.0207 -0.05264,0.0325 -0.09533,0.13165 -0.09457,0.22065 0.0013,0.13951 0.01461,0.14234 0.09457,0.0186 0.09085,-0.14062 0.113124,-0.24711 0.0677,-0.25994 z m 3.995622,0.0682 c -0.064,0 -0.425336,0.60259 -0.425814,0.71003 -4.45e-4,0.10909 0.01299,0.0913 0.266134,-0.35088 0.113023,-0.19742 0.185,-0.35915 0.15968,-0.35915 z m 10.170951,0.0372 c -0.0163,8.8e-4 -0.0559,0.0634 -0.11937,0.20206 -0.0723,0.15793 -0.13067,0.35198 -0.12867,0.43098 h -5.2e-4 c 0.002,0.079 0.0608,-0.007 0.13177,-0.19172 0.10547,-0.27313 0.14401,-0.44278 0.11679,-0.44132 z m 4.19458,0.0966 c -0.0292,0.007 -0.0661,0.0543 -0.093,0.12506 -0.0519,0.1364 -0.0408,0.14754 0.0537,0.0537 0.0654,-0.0649 0.0946,-0.14207 0.0651,-0.17157 -0.007,-0.007 -0.0161,-0.01 -0.0258,-0.007 z m 3.91294,0.0899 c -0.0202,0.0201 -0.0198,0.13899 0.0201,0.33848 0.0336,0.16812 0.081,0.28588 0.10542,0.26148 0.0244,-0.0244 0.0146,-0.17973 -0.0217,-0.3452 -0.0429,-0.19625 -0.0837,-0.2749 -0.10387,-0.25476 z m -10.522355,0.1204 c -0.02098,-0.0115 -0.02532,0.1863 -0.02532,0.66043 h 5.17e-4 c -1.9e-4,0.75477 0.01024,0.80865 0.08372,0.43356 0.04771,-0.2446 0.0478,-0.61384 0,-0.86144 -0.02763,-0.14311 -0.04632,-0.22564 -0.05891,-0.23255 z m -11.945524,0.061 c -0.01682,0.009 -0.04011,0.0339 -0.06563,0.0734 -0.05104,0.079 -0.0925,0.18656 -0.0925,0.23926 0,0.0526 0.04147,0.0315 0.0925,-0.0475 0.05104,-0.079 0.09302,-0.18666 0.09302,-0.23926 0,-0.0263 -0.01057,-0.0345 -0.02739,-0.0258 z m 18.380789,0.11731 c -0.004,-0.0156 -0.0213,0.002 -0.0522,0.0517 -0.0488,0.079 -0.11777,0.25132 -0.15297,0.38292 -0.0445,0.1663 -0.0369,0.19592 0.0248,0.0961 0.0488,-0.079 0.11724,-0.25131 0.15244,-0.38292 0.0222,-0.0831 0.0319,-0.13218 0.0279,-0.14779 z m -10.455175,0.014 c -0.02033,0.0195 -0.02665,0.20875 -0.02584,0.61185 0.0015,0.74913 0.0077,0.77608 0.08061,0.34055 0.04358,-0.26015 0.04289,-0.62606 -0.0015,-0.81339 -0.02402,-0.10124 -0.04103,-0.15071 -0.05323,-0.13901 z m 18.578195,0.20464 c -0.0134,-0.0301 -0.0227,0.1394 -0.0227,0.45527 h -5.2e-4 c -3e-4,0.42113 0.0161,0.60529 0.0367,0.40927 0.0209,-0.19603 0.0212,-0.5407 0.001,-0.76584 -0.005,-0.0563 -0.01,-0.0887 -0.0145,-0.0987 z m -76.312655,0.0243 c -1.369958,0 -1.660762,0.0724 -1.651062,0.41031 l 0.0062,0.21187 0.0863,-0.21497 c 0.09449,-0.23482 0.0014,-0.224 1.839681,-0.231 l 0.981336,-0.004 -0.01757,0.59324 c -0.02032,0.69693 0.06063,0.69004 0.172082,-0.015 0.116263,-0.73551 0.08877,-0.75034 -1.416967,-0.75034 z m 49.708077,0.10748 c -0.0069,0.002 -0.01432,0.007 -0.02222,0.0145 -0.03164,0.0316 -0.02902,0.10307 0.0057,0.15917 0.0347,0.0562 0.135773,0.0969 0.224793,0.091 0.145971,-0.01 0.14533,-0.0153 -0.0057,-0.0548 -0.09213,-0.0241 -0.167431,-0.0907 -0.167431,-0.14831 0,-0.0432 -0.01454,-0.0662 -0.03514,-0.0615 z m 3.826639,0.0145 c -0.02108,-0.0211 -0.101323,0.14763 -0.178283,0.37466 -0.105226,0.3104 -0.185207,0.40704 -0.321428,0.38964 -0.09962,-0.0128 -0.374948,-0.0447 -0.611849,-0.0708 -0.415256,-0.0457 -0.41142,-0.0424 0.09612,0.0822 v -5.2e-4 c 0.289544,0.0711 0.553487,0.13563 0.586527,0.14263 0.135927,0.0299 0.53107,-0.81563 0.428914,-0.91778 z m 10.323919,0.0181 c -0.0173,-0.006 -0.03,0.0486 -0.03,0.14728 0,0.13165 0.022,0.18569 0.0486,0.11989 0.0266,-0.0658 0.0266,-0.17398 0,-0.23978 -0.007,-0.0164 -0.0128,-0.0252 -0.0186,-0.0274 z m -13.444142,0.25993 c -0.07333,0 -0.07545,0.0261 0.04651,0.0786 0.10529,0.0453 0.277633,0.0816 0.382923,0.0796 0.153891,-0.002 0.144823,-0.018 -0.04754,-0.0796 -0.163656,-0.0524 -0.308561,-0.0786 -0.381889,-0.0786 z m 17.494542,0.17208 c -0.0242,0.01 -0.0769,0.13276 -0.13591,0.32505 l -0.14315,0.46612 -0.49609,-0.0615 c -0.27295,-0.0338 -0.69018,-0.0799 -0.92707,-0.10283 l -0.43099,-0.0419 0.47853,0.0946 c 0.26322,0.0521 0.65086,0.12861 0.86144,0.17001 0.21058,0.041 0.41977,0.0563 0.46457,0.0331 0.11424,-0.0591 0.35062,-0.64773 0.34262,-0.85318 -9.2e-4,-0.0235 -0.006,-0.0327 -0.014,-0.0295 z m -16.537494,0.0196 c -0.07333,0 -0.07493,0.0261 0.04703,0.0786 0.105289,0.0453 0.277116,0.0816 0.382405,0.0796 0.153893,-0.002 0.144825,-0.018 -0.04754,-0.0796 -0.163656,-0.0524 -0.308562,-0.0786 -0.381889,-0.0786 z m 12.358414,5.2e-4 c -0.0173,-0.003 -0.0146,0.0241 0.004,0.0796 0.0256,0.078 0.19436,0.19351 0.37466,0.25631 0.18031,0.0628 0.47823,0.11314 0.66249,0.11214 0.40518,-0.003 0.29924,-0.0472 -0.30954,-0.12919 -0.24943,-0.0336 -0.52582,-0.13307 -0.61392,-0.22117 -0.0627,-0.0626 -0.10002,-0.0949 -0.11731,-0.0977 z m -65.420291,0.10852 c -0.02753,-0.0275 -0.07878,0.11604 -0.113689,0.31884 -0.03491,0.2028 -0.123634,0.61185 -0.197404,0.90899 -0.16557,0.66692 -0.169215,0.91325 -0.01447,0.97565 0.273186,0.11019 2.716609,0.0622 2.865975,-0.0563 0.162301,-0.12879 0.263097,-0.46803 0.319877,-1.07693 0.02467,-0.26455 -0.01497,-0.18164 -0.127641,0.26768 -0.08968,0.35764 -0.222055,0.68631 -0.294555,0.73071 -0.17876,0.1096 -2.51429,0.12263 -2.683041,0.015 -0.10983,-0.0701 -0.114611,-0.16251 -0.02687,-0.50178 0.183357,-0.70906 0.324257,-1.52941 0.271818,-1.58181 z m 74.084881,0.007 c -0.0119,0.007 -0.0312,0.0573 -0.062,0.15348 -0.0421,0.13162 -0.0776,0.30392 -0.0796,0.38292 -0.002,0.088 0.0292,0.0697 0.0796,-0.0475 0.0452,-0.10529 0.0816,-0.27763 0.0796,-0.38292 -0.001,-0.0769 -0.006,-0.1131 -0.0176,-0.10594 z m -6.86935,0.3576 c -0.0521,-7e-4 -0.10744,0.005 -0.15399,0.0171 -0.0931,0.0243 -0.0401,0.0461 0.11782,0.0481 0.15792,0.002 0.23378,-0.0182 0.16898,-0.0444 -0.0324,-0.0134 -0.0808,-0.02 -0.13281,-0.0207 z m -3.842655,0.17932 c -0.01774,-0.0117 -0.05345,0.0932 -0.120407,0.33435 -0.07309,0.26322 -0.133364,0.50028 -0.133842,0.52658 -4.59e-4,0.0263 0.06067,-0.0596 0.135909,-0.1912 0.07524,-0.13161 0.135542,-0.36865 0.133842,-0.52659 -9.29e-4,-0.0868 -0.0049,-0.1361 -0.0155,-0.14314 z m 14.553115,0.0227 c -0.0223,-0.0353 -0.0615,0.12018 -0.11007,0.45527 -0.0437,0.30096 -0.0337,0.38765 0.0331,0.28732 0.0526,-0.079 0.0962,-0.2909 0.0971,-0.47077 7.2e-4,-0.16093 -0.007,-0.25067 -0.0202,-0.27182 z m -18.571475,0.11265 c -0.02077,-0.0208 -0.109337,0.11251 -0.196887,0.29611 -0.08755,0.18359 -0.139358,0.33383 -0.115239,0.33383 0.0655,0 0.355916,-0.58614 0.312126,-0.62994 z m 14.538125,0.15452 c -0.0198,-0.0202 -0.13837,0.15544 -0.29817,0.47077 -0.32663,0.64458 -0.92105,1.37113 -2.23965,2.73678 -0.93497,0.96833 -0.89772,0.93746 0.23254,-0.19172 1.24671,-1.24551 1.94186,-2.10763 2.22209,-2.7559 0.0714,-0.1652 0.0951,-0.24781 0.0832,-0.25993 z m -14.849734,0.52348 -0.382922,0.33434 c -0.210468,0.18411 -0.425367,0.37248 -0.478007,0.41858 h -5.17e-4 c -0.05264,0.0461 -0.0092,0.0391 0.09612,-0.0155 0.10529,-0.0546 0.320184,-0.24295 0.478007,-0.41858 z m 4.024044,0.18138 c -0.02917,0.007 -0.06606,0.0548 -0.09302,0.12558 -0.05195,0.1364 -0.0413,0.14702 0.05323,0.0532 0.06541,-0.0649 0.0951,-0.14206 0.06563,-0.17156 -0.0074,-0.007 -0.01611,-0.01 -0.02584,-0.007 z m 14.67094,0.0274 c -0.0214,-0.002 -0.0715,0.0759 -0.12919,0.20877 -0.0769,0.17714 -0.13843,0.34953 -0.13643,0.38293 0.007,0.12454 0.27647,-0.42327 0.27647,-0.56121 -5e-5,-0.0197 -0.004,-0.0297 -0.0109,-0.0305 z m -14.855425,0.37104 c -0.03572,0.0157 -0.09242,0.0793 -0.144694,0.1664 -0.12107,0.20163 -0.118828,0.20334 0.04599,0.0455 0.09488,-0.0909 0.151787,-0.18564 0.126607,-0.21084 -0.0063,-0.006 -0.016,-0.006 -0.02791,-0.001 z m -4.892208,0.23668 c -0.05264,0 -0.160292,0.0415 -0.239262,0.0925 -0.07897,0.051 -0.100699,0.093 -0.04806,0.093 0.05264,0 0.160292,-0.042 0.239262,-0.093 0.07897,-0.0511 0.100699,-0.0925 0.04806,-0.0925 z m 19.468583,0.13229 c -0.0277,0.006 -0.14541,0.18922 -0.28474,0.44596 -0.15926,0.29342 -0.52193,0.8428 -0.80615,1.2206 -0.28421,0.3778 -0.48649,0.68609 -0.44959,0.68523 0.15617,-0.004 1.54968,-2.11563 1.54668,-2.34352 -1e-4,-0.007 -0.002,-0.009 -0.006,-0.008 z m -14.862662,0.0563 c -0.02633,0 -0.07443,0.043 -0.10697,0.0956 -0.03254,0.0526 -0.03769,0.0956 -0.01137,0.0956 0.02632,0 0.07443,-0.043 0.10697,-0.0956 0.03254,-0.0526 0.03769,-0.0956 0.01137,-0.0956 z m -5.118551,0.009 c -0.05866,-7.5e-4 -0.147925,0.007 -0.253214,0.0238 -0.210578,0.0332 -0.56292,0.0609 -0.782898,0.0615 -0.422423,10e-4 -0.70122,0.18597 -0.699182,0.46251 0.0011,0.10916 0.03994,0.0844 0.122473,-0.0791 0.108107,-0.21406 0.199887,-0.24627 0.872298,-0.30747 0.413446,-0.0376 0.778213,-0.0977 0.810803,-0.13333 0.01629,-0.0176 -0.01162,-0.0272 -0.07028,-0.0279 z m 4.668449,0.56844 c 0.01805,-0.0235 -0.02594,0.0104 -0.136943,0.10645 -0.222004,0.19201 -0.581813,0.46681 -0.799434,0.61082 -0.217622,0.14402 -0.395841,0.28 -0.395841,0.3023 0,0.10603 0.645085,-0.35555 1.09554,-0.78393 0.138392,-0.13161 0.218625,-0.21218 0.236678,-0.23564 z m -6.444568,0.31626 c -0.04139,0.0542 -0.127574,0.43535 -0.201021,0.92449 -0.03466,0.23081 -0.0063,0.18606 0.09095,-0.14366 0.07764,-0.26323 0.138059,-0.58617 0.134359,-0.71779 -0.0018,-0.0626 -0.01049,-0.0811 -0.02429,-0.063 z m -26.370483,0.0253 c -0.251373,-0.0129 -0.96366,0.0523 -1.44384,0.14676 -0.849197,0.16711 -1.999972,0.76074 -2.661336,1.37304 -0.591991,0.54808 -1.454692,1.72503 -1.454692,1.98489 0,0.0763 -0.02955,0.16803 -0.06563,0.20413 -0.09297,0.093 -0.314892,0.75191 -0.311092,0.92345 0.0018,0.079 0.126451,-0.18727 0.276986,-0.59221 0.820093,-2.20609 2.718638,-3.70299 4.918046,-3.87728 0.376964,-0.0298 0.743404,-0.0848 0.813904,-0.12196 0.04439,-0.0234 0.01144,-0.0365 -0.07235,-0.0408 z m 15.190287,0.003 c -0.18161,0.0151 0.03416,0.10036 0.523482,0.16381 0.569888,0.0739 1.084675,0.3355 1.472779,0.74828 0.387389,0.41203 0.560895,0.76765 0.696598,1.42627 0.113502,0.55087 0.02804,1.33483 -0.328145,3.00912 -0.07839,0.36849 -0.142627,0.73103 -0.142627,0.80563 0,0.66561 0.474556,-1.60188 0.630452,-3.01273 0.17524,-1.58592 -0.9577,-2.9849 -2.533695,-3.1285 -0.153436,-0.014 -0.258307,-0.0169 -0.318844,-0.0119 z m -26.732218,0.0196 c -1.236619,-10e-4 -1.899616,0.14869 -2.919719,0.65939 -0.914195,0.45768 -2.128186,1.62913 -2.557466,2.46806 -0.725031,1.41691 -1.049253,3.18047 -0.838709,4.56303 0.06666,0.43771 0.154057,0.88225 0.193787,0.98754 0.524792,1.39062 1.600143,2.41577 2.911967,2.77606 v 10e-4 c 0.630605,0.1727 2.348344,0.17111 2.87476,-0.003 l 0.430981,-0.14263 -0.382922,0.0532 c -0.995367,0.13845 -2.126064,0.15323 -2.629297,0.0346 -1.795244,-0.42312 -2.979041,-1.70536 -3.265434,-3.53673 -0.208401,-1.33264 0.04081,-3.10746 0.604097,-4.30362 0.504273,-1.07083 1.555551,-2.20788 2.497522,-2.70112 2.038519,-1.06745 4.442485,-1.03601 5.901966,0.077 0.54881,0.41852 1.009008,1.02441 1.254704,1.65261 0.0957,0.24466 0.175783,0.36917 0.178283,0.27647 0.0075,-0.28272 -0.374674,-0.99697 -0.780314,-1.4578 -0.887307,-1.00803 -1.862675,-1.40204 -3.474206,-1.40404 z m -7.595919,0.0217 c -0.470882,-0.0139 -1.395187,0.54062 -2.053622,1.23248 -0.352025,0.3699 -0.640271,0.69502 -0.640271,0.72192 0,0.027 0.04296,0.0491 0.0956,0.0491 0.05265,0 0.0956,-0.0376 0.0956,-0.0832 0,-0.14488 0.989751,-1.11929 1.399915,-1.37821 0.217106,-0.13705 0.60475,-0.31343 0.861446,-0.39223 0.293691,-0.0902 0.383297,-0.14586 0.241329,-0.14986 z m 0.859896,0.007 c -0.256732,0.01 -0.28492,0.0239 -0.108004,0.0543 1.019343,0.17547 1.112981,0.29172 0.772046,0.9586 -0.101757,0.19904 -0.316628,0.65285 -0.47749,1.0082 l -0.292489,0.64596 -0.74259,0.001 c -0.4086,8e-4 -0.79528,0.0347 -0.859379,0.0754 v 5.2e-4 c -0.0641,0.0407 0.271426,0.0674 0.74569,0.0584 0.474265,-0.009 0.878654,-0.0317 0.898654,-0.0517 0.08044,-0.0804 1.104325,-2.28203 1.104325,-2.37453 0,-0.15418 -0.654314,-0.3907 -1.040763,-0.3762 z m 32.825903,0 c -0.402281,-0.0124 -0.908214,0.10106 -1.273824,0.28577 -0.09141,0.0462 -0.213405,0.0842 -0.270785,0.0842 -0.05738,0 -0.428804,0.21787 -0.825272,0.48421 -0.396468,0.26634 -0.737383,0.46718 -0.758093,0.44648 -0.02071,-0.0207 -0.0023,-0.22858 0.04134,-0.46198 0.04356,-0.2334 0.06142,-0.47719 0.03979,-0.54209 -0.02879,-0.0864 -0.417598,-0.11782 -1.452625,-0.11782 h -1.413867 l -0.149345,0.59789 c -0.08239,0.32903 -0.220995,0.9431 -0.307475,1.36426 -0.08648,0.42116 -0.194012,0.93767 -0.239262,1.14825 -0.04525,0.21058 -0.133167,0.6417 -0.195337,0.95757 -0.06217,0.31586 -0.169665,0.83238 -0.238745,1.14825 -0.157899,0.722 -0.263676,1.22742 -0.572058,2.728 -0.135236,0.65805 -0.284446,1.36865 -0.331246,1.57923 -0.33002,1.485 -0.331413,1.49625 -0.189652,1.58595 0.226711,0.14347 2.703365,0.11089 2.907316,-0.0382 0.09605,-0.0702 0.207253,-0.31789 0.247013,-0.55036 0.03975,-0.23247 0.101253,-0.57383 0.136943,-0.75809 0.04282,-0.22104 0.03476,-0.2859 -0.02377,-0.1912 -0.04878,0.079 -0.142023,0.42365 -0.207223,0.76584 -0.0652,0.3422 -0.168317,0.65377 -0.228927,0.69247 -0.06061,0.0387 -0.682117,0.0711 -1.381311,0.0718 -1.072248,10e-4 -1.280077,-0.0226 -1.329117,-0.15038 -0.03198,-0.0833 0.01615,-0.52455 0.10697,-0.98082 0.249026,-1.25107 0.606601,-2.97664 0.915706,-4.41885 0.35553,-1.65882 0.764353,-3.65904 0.861963,-4.2168 0.04196,-0.23978 0.125132,-0.61793 0.185002,-0.84026 l 0.109037,-0.40462 1.311548,0.0269 1.311548,0.0263 -0.02481,0.55036 c -0.03065,0.6801 0.04819,0.69594 0.810286,0.16174 0.836584,-0.58642 1.442962,-0.81518 2.612761,-0.98598 0.131611,-0.0192 0.04868,-0.0411 -0.184485,-0.0481 z m -13.646712,0.004 -0.574125,0.0139 0.526066,0.0646 c 0.868551,0.10644 0.930545,0.10644 0.765844,0 -0.07897,-0.051 -0.401918,-0.0865 -0.717785,-0.0785 z m -29.41836,0.17466 c -1.618207,0 -1.620887,0.002 -1.753898,0.74724 -0.155265,0.87047 -0.170648,1.20747 -0.0248,0.54519 0.265156,-1.20415 0.180673,-1.14484 1.671732,-1.17254 0.708768,-0.0132 1.338805,0.008 1.399915,0.0481 0.07605,0.0494 0.08634,0.19295 0.03359,0.45475 -0.158513,0.78677 -0.381864,1.85302 -0.622184,2.96675 -0.136316,0.63173 -0.288397,1.36406 -0.337447,1.62729 -0.04905,0.26322 -0.154618,0.78027 -0.235128,1.14876 -0.08051,0.36849 -0.146761,0.72382 -0.146761,0.78962 0,0.28377 0.09002,0.0784 0.189136,-0.43098 0.121195,-0.6228 0.251919,-1.24432 0.436666,-2.08153 0.0697,-0.31587 0.175871,-0.8329 0.236161,-1.14876 0.06029,-0.31587 0.148711,-0.72525 0.196371,-0.90951 0.206475,-0.7983 0.477611,-2.33869 0.432531,-2.45618 -0.03805,-0.0992 -0.371852,-0.12816 -1.475879,-0.12816 z m 5.035869,0.0165 c -0.505047,0.004 -0.82935,0.0312 -0.885218,0.0775 -0.06621,0.0549 -0.14743,0.26071 -0.18035,0.45734 -0.03292,0.19664 -0.10348,0.5729 -0.15658,0.83612 -0.0531,0.26323 -0.11695,0.65087 -0.14211,0.86145 l -0.04599,0.38292 0.0925,-0.33486 c 0.05085,-0.18426 0.174442,-0.71704 0.274402,-1.18391 0.09996,-0.46688 0.240652,-0.88677 0.312642,-0.93327 0.07199,-0.0465 0.66951,-0.0737 1.327567,-0.0605 l 1.19631,0.0238 -0.0072,0.28732 c -0.0039,0.15793 -0.03688,0.45966 -0.07338,0.67024 -0.05574,0.32157 -0.04992,0.34453 0.03617,0.14521 0.05637,-0.13053 0.11105,-0.45348 0.12144,-0.71779 l 0.0186,-0.48059 -1.327051,-0.0269 c -0.205259,-0.004 -0.393373,-0.005 -0.561722,-0.004 z m 25.410852,0.003 c -0.0938,0.0191 0.06398,0.11014 0.359668,0.20774 0.775394,0.2558 1.636737,0.91162 2.090828,1.59163 0.212375,0.31803 0.414292,0.66668 0.448552,0.77463 0.03426,0.10798 0.08543,0.173 0.113688,0.1447 0.113077,-0.11307 -0.378521,-0.93331 -0.890902,-1.48674 -0.396073,-0.4278 -0.734427,-0.67853 -1.249019,-0.92604 -0.388191,-0.18671 -0.780965,-0.32462 -0.872815,-0.30592 z m 29.362032,0.46405 c -0.02313,0 -0.04653,0.009 -0.06408,0.0264 -0.0351,0.0351 -0.0061,0.0641 0.06408,0.0641 0.07021,0 0.09866,-0.029 0.06356,-0.0641 -0.01755,-0.0176 -0.04043,-0.0264 -0.06356,-0.0264 z m -0.242879,0.13901 c -0.01235,-0.0125 -0.04355,0.006 -0.0987,0.0522 -0.07424,0.0616 -0.111533,0.15018 -0.08268,0.19688 0.0781,0.12636 0.109548,0.1058 0.166398,-0.11162 0.02104,-0.0805 0.02733,-0.12491 0.01499,-0.13746 z m 0.146761,0.39998 c -0.01761,0.006 0.05353,0.0826 0.191719,0.20154 0.184256,0.1586 0.353208,0.27026 0.375688,0.24856 0.04601,-0.0445 -0.230088,-0.27447 -0.519348,-0.43253 -0.02632,-0.0144 -0.04219,-0.0197 -0.04806,-0.0176 z m -5.106665,0.1633 c -0.01188,0.007 -0.03121,0.0573 -0.06201,0.15347 -0.04215,0.13162 -0.07756,0.30393 -0.07906,0.38293 -0.0017,0.088 0.02867,0.0697 0.07906,-0.0476 0.04525,-0.10529 0.08108,-0.27763 0.07958,-0.38292 -0.0011,-0.077 -0.0057,-0.11308 -0.01757,-0.10593 z m 20.421488,0.0682 c 0,-0.0685 -3.10529,2.9914 -3.14709,3.1011 -0.0201,0.0526 0.67991,-0.61331 1.55546,-1.48001 0.87556,-0.8667 1.59163,-1.59639 1.59163,-1.62109 z m -14.582568,0.35243 c -0.02194,0.008 0.110695,0.21348 0.369486,0.55346 0.163097,0.21426 0.354224,0.52801 0.424264,0.69711 0.07004,0.16909 0.147105,0.28753 0.171565,0.26303 0.06881,-0.0688 -0.427664,-0.92784 -0.752408,-1.30172 -0.130735,-0.15053 -0.199741,-0.21677 -0.212907,-0.21188 z m 8.791708,0.21136 c -0.0264,0 -0.0475,0.0218 -0.0475,0.0481 0,0.0264 0.0212,0.0481 0.0475,0.0481 0.0264,0 0.0481,-0.0218 0.0481,-0.0481 0,-0.0264 -0.0218,-0.0481 -0.0481,-0.0481 z m -0.17983,0.0961 c -0.0263,0 -0.0745,0.0429 -0.10697,0.0956 -0.0325,0.0526 -0.0377,0.0956 -0.0114,0.0956 0.0263,0 0.0745,-0.043 0.10697,-0.0956 0.0325,-0.0526 0.0377,-0.0956 0.0114,-0.0956 z m -14.652853,0.0439 c -0.0063,0.004 -0.01337,0.0141 -0.02015,0.031 -0.02709,0.0675 -0.02499,0.18583 0.0047,0.26303 0.04108,0.10707 0.208499,0.13626 0.703316,0.12196 l 0.649056,-0.0191 -0.646472,-0.0336 c -0.58933,-0.0305 -0.646807,-0.052 -0.653707,-0.24443 -0.0031,-0.0871 -0.01785,-0.13076 -0.03669,-0.11886 z m -12.242664,0.0248 c -0.831603,0.047 -1.80454,0.6611 -2.410705,1.60868 -0.382573,0.59805 -0.612013,1.33672 -1.05575,3.39618 -0.311362,1.44507 -0.561747,3.02874 -0.332796,2.10581 0.04571,-0.18426 0.199906,-0.89485 0.342615,-1.57923 0.484426,-2.32314 0.637618,-2.88919 0.964799,-3.56464 0.948229,-1.95757 3.69167,-2.57221 3.67006,-0.82217 -0.0031,0.25411 -0.04809,0.6778 -0.09974,0.94103 -0.05165,0.26322 -0.135018,0.69382 -0.185518,0.95704 -0.198454,1.03446 -0.275832,1.40524 -0.667143,3.20653 -0.49913,2.29761 -0.567688,2.74322 -0.441317,2.86959 0.111684,0.1117 2.726575,0.13362 2.896464,0.0243 0.0601,-0.0387 0.205964,-0.52262 0.324012,-1.07539 0.587593,-2.75147 0.654869,-3.08694 0.717269,-3.58944 0.09029,-0.72714 -0.04496,-0.18272 -0.534851,2.15387 -0.270422,1.28979 -0.541154,2.37666 -0.601514,2.41536 -0.06036,0.0387 -0.681601,0.0711 -1.380794,0.0718 -1.085088,10e-4 -1.280335,-0.0215 -1.331185,-0.154 -0.06507,-0.16957 -0.0027,-0.53305 0.448551,-2.62051 1.157481,-5.35429 1.189341,-5.80294 0.442867,-6.19394 -0.227026,-0.11891 -0.488127,-0.16657 -0.765328,-0.15089 z m -44.121854,0.0336 c -0.0041,-4.8e-4 -0.0092,0.002 -0.01499,0.008 -0.05308,0.0531 -0.777314,3.41118 -1.080554,5.01055 -0.04991,0.26322 -0.250563,1.24716 -0.445967,2.18643 -0.195403,0.93927 -0.331791,1.76817 -0.303341,1.84227 0.07032,0.18331 2.7193,0.19723 2.945557,0.0155 0.159796,-0.12835 0.658191,-2.23829 0.79685,-3.37396 0.04306,-0.35271 0.03625,-0.34526 -0.08475,0.0956 -0.07224,0.26322 -0.250388,1.05973 -0.396358,1.77043 -0.145971,0.7107 -0.307565,1.346 -0.358635,1.4118 -0.06599,0.0851 -0.460015,0.11989 -1.361674,0.11989 -1.463686,0 -1.510869,-0.0232 -1.379244,-0.67024 0.04819,-0.2369 0.129481,-0.64576 0.180351,-0.90899 0.05087,-0.26322 0.180735,-0.88791 0.288871,-1.38803 0.108136,-0.50013 0.30228,-1.42602 0.431498,-2.05776 0.129217,-0.63174 0.301476,-1.4505 0.382406,-1.81901 0.333991,-1.52085 0.461657,-2.23562 0.399976,-2.24275 z m 18.644856,0.0202 c -0.621855,0.0274 -1.248786,0.33162 -1.740979,0.86558 -0.688624,0.74707 -1.08649,1.79573 -1.269173,3.3445 -0.162694,1.37929 0.09523,2.16133 0.842326,2.55591 0.392294,0.20718 1.011947,0.2483 1.423169,0.0941 0.411686,-0.15441 0.960094,-0.55957 1.138948,-0.84181 0.135837,-0.21437 0.103373,-0.20088 -0.210839,0.0884 -0.544988,0.50169 -0.822882,0.64749 -1.342037,0.70539 -0.615553,0.0686 -1.04901,-0.10095 -1.413351,-0.55397 l -0.296106,-0.36846 0.0057,-1.21129 c 0.0059,-1.33403 0.08902,-1.71137 0.665592,-3.01894 0.209945,-0.47612 0.889001,-1.15653 1.344104,-1.34669 0.510259,-0.21325 1.45154,-0.19257 1.83348,0.0403 0.317046,0.19331 0.697632,0.81384 0.697632,1.13688 0,0.34649 0.19267,0.39609 1.153935,0.29869 1.922498,-0.1947 1.964707,-0.20965 1.8526,-0.67799 l -0.07751,-0.3235 -0.05271,0.32866 c -0.06625,0.41404 -0.249643,0.46952 -1.670182,0.50592 l -1.052132,0.0269 -0.08423,-0.35037 c -0.123399,-0.51182 -0.6714,-1.10708 -1.133264,-1.23145 -0.201095,-0.0541 -0.407664,-0.0758 -0.61495,-0.0667 z m 11.956893,0.0677 c -0.385253,-10e-4 -0.777219,0.0594 -1.047998,0.18241 -1.13165,0.51399 -1.883096,1.74501 -2.154907,3.5295 -0.204954,1.34557 0.245348,2.49669 1.156518,2.95796 v -5.1e-4 c 0.2369,0.11994 0.538116,0.21645 0.669727,0.21445 0.162132,-0.003 0.07496,-0.0602 -0.270268,-0.17776 -0.530772,-0.18077 -0.998512,-0.55242 -1.210779,-0.9617 -0.262221,-0.5056 -0.361211,-1.32067 -0.242362,-1.99523 0.329481,-1.87006 0.91238,-2.88612 1.946651,-3.39256 1.101996,-0.53959 2.372906,-0.24631 2.954859,0.68162 0.201671,0.32156 0.219407,0.45557 0.212907,1.59525 -0.0039,0.68438 0.02441,1.13671 0.06253,1.0051 0.123933,-0.42788 0.09633,-1.9971 -0.04082,-2.3244 -0.189371,-0.4519 -0.610113,-0.91241 -1.027845,-1.12552 -0.244164,-0.12441 -0.622954,-0.18747 -1.008207,-0.18861 z m 40.163952,0.0971 c -0.034,0 -0.85724,0.80763 -1.82934,1.79472 -1.68622,1.71221 -2.50439,2.65852 -2.75229,3.18275 l -0.11317,0.23926 0.17053,-0.23564 c 0.81019,-1.12261 1.24458,-1.61685 2.80345,-3.18637 0.98039,-0.98709 1.75472,-1.79472 1.72082,-1.79472 z m -12.873111,0.19792 c -0.05264,0 0.01205,0.0617 0.14366,0.13694 0.131612,0.0752 0.282224,0.13694 0.334864,0.13694 0.05264,0 -0.01205,-0.0617 -0.143661,-0.13694 -0.131612,-0.0752 -0.282223,-0.13694 -0.334863,-0.13694 z m -52.340475,0.2837 c -0.03036,0.028 -0.143107,0.48037 -0.25063,1.00511 -0.107522,0.52474 -0.257817,1.23446 -0.334347,1.57665 -0.210408,0.94083 -0.401498,1.89077 -0.500228,2.48822 -0.03046,0.18422 -0.03106,0.31232 -0.001,0.28422 0.03003,-0.0281 0.164107,-0.58809 0.297656,-1.24437 0.133548,-0.65628 0.308977,-1.49493 0.390157,-1.86345 0.147364,-0.66891 0.307486,-1.46684 0.403076,-2.0097 0.02784,-0.15789 0.02571,-0.26468 -0.0047,-0.23668 z m 4.651396,0.016 c -0.04499,0.007 -0.171591,0.0706 -0.383956,0.20464 -0.405672,0.25609 -1.058442,0.95085 -1.239717,1.3193 -0.470961,0.95725 -0.777458,2.01172 -1.219564,4.20026 -0.450379,2.22948 -0.522401,2.51847 -0.647506,2.59777 -0.0687,0.0436 -0.696587,0.0799 -1.39578,0.0806 -1.039972,0.001 -1.281674,-0.0247 -1.326534,-0.14159 -0.03016,-0.0786 0.04222,-0.60623 0.160713,-1.17254 0.243678,-1.16463 0.329832,-1.72178 0.255282,-1.65158 -0.02795,0.0263 -0.118972,0.371 -0.202572,0.76584 -0.0836,0.39483 -0.220024,1.03637 -0.302824,1.42576 -0.123969,0.583 -0.127953,0.72196 -0.02377,0.78806 0.165939,0.10531 2.76851,0.1043 2.934705,-0.001 0.07057,-0.0447 0.193501,-0.39928 0.272851,-0.78807 0.07935,-0.38878 0.184691,-0.90101 0.234611,-1.13791 0.04992,-0.2369 0.126436,-0.62455 0.170016,-0.86145 0.09015,-0.49005 0.35649,-1.69853 0.42168,-1.91409 0.620797,-2.05276 1.030293,-2.7899 1.856734,-3.34088 0.358748,-0.23918 0.510621,-0.38476 0.435632,-0.37311 z m 48.429602,0.0693 c -0.02135,0.0121 0.06653,0.13628 0.240812,0.33538 0.223739,0.2556 0.406694,0.50875 0.406694,0.56275 v 5.2e-4 c 0,0.054 0.02533,0.0723 0.05633,0.0413 0.08016,-0.0802 -0.377126,-0.72806 -0.644922,-0.91364 -0.03211,-0.0222 -0.05179,-0.0304 -0.05891,-0.0263 z m -23.154659,0.12454 c -0.02752,-0.006 -0.02513,0.0509 0.0072,0.17001 0.17242,0.6349 0.25728,1.56472 0.21394,2.34508 -0.02908,0.52351 -0.0172,0.74914 0.02997,0.57464 0.191891,-0.70995 0.0461,-2.80257 -0.213424,-3.06338 -0.01581,-0.0159 -0.02855,-0.0244 -0.03772,-0.0264 z m 27.926978,0.36328 c -0.0072,5.3e-4 0.0053,0.0422 0.03152,0.12558 0.03029,0.0964 0.05833,0.2253 0.06253,0.2868 0.0055,0.0809 0.0208,0.0802 0.05478,-0.004 0.0259,-0.0638 -0.0022,-0.19322 -0.06253,-0.28732 -0.05214,-0.0814 -0.07913,-0.12196 -0.0863,-0.12144 z m -3.974952,0.60358 c -0.009,-0.005 -0.01719,-0.004 -0.02377,0.003 -0.02632,0.0263 -0.01837,0.14051 0.01757,0.25373 0.03594,0.11321 0.08685,0.18391 0.113172,0.15761 0.02632,-0.0263 0.01837,-0.14051 -0.01757,-0.25373 -0.02695,-0.0849 -0.06229,-0.14599 -0.0894,-0.1602 z m 4.21318,0.42582 c -0.01314,-0.0219 -0.02222,0.16462 -0.02222,0.50023 0,0.4475 0.01654,0.63095 0.03669,0.40721 0.02015,-0.22374 0.02015,-0.59017 0,-0.81391 -0.005,-0.0559 -0.01009,-0.0862 -0.01447,-0.0935 z m 10.087241,0.1173 c -0.0263,0 -0.56312,0.51703 -1.19321,1.14877 -0.63009,0.63173 -1.12443,1.14877 -1.09813,1.14877 0.0263,0 0.56364,-0.51704 1.19373,-1.14877 0.63009,-0.63174 1.12391,-1.14877 1.09761,-1.14877 z m -49.245574,0.20774 c -0.02124,-0.004 -0.05938,0.12941 -0.110588,0.42995 -0.123023,0.72194 -0.09312,2.23188 0.05478,2.76056 0.498521,1.78203 1.609228,2.89334 3.408061,3.41064 0.75456,0.21695 2.395609,0.23107 3.271635,0.0279 1.095908,-0.25416 1.803356,-0.6647 2.710429,-1.57252 0.649144,-0.64969 0.894072,-0.97868 1.210778,-1.62729 0.512156,-1.04887 0.609681,-1.30211 0.600481,-1.55908 -0.0062,-0.17302 -0.02487,-0.15966 -0.103353,0.076 -0.458562,1.37681 -0.922761,2.20107 -1.679484,2.98276 -1.121485,1.15848 -2.576518,1.7509 -4.307231,1.7539 -1.082907,0.002 -1.688684,-0.12255 -2.584338,-0.53072 -1.340324,-0.6108 -2.175203,-1.74907 -2.479952,-3.38119 -0.12581,-0.67378 -0.132314,-0.95618 -0.03927,-1.75648 0.07235,-0.62233 0.08346,-1.00823 0.04806,-1.01441 z m 35.131189,0.0651 c -0.0157,-0.009 -0.02636,0.068 -0.02636,0.20618 0,0.18431 0.01933,0.25954 0.04341,0.16744 0.02408,-0.0921 0.02408,-0.24328 0,-0.33538 -0.006,-0.023 -0.01182,-0.0352 -0.01705,-0.0382 z m -5.827552,0.59841 c -0.181398,0.008 -0.177534,0.0166 0.03359,0.0754 0.184353,0.0514 0.254787,0.15574 0.316777,0.46922 0.04383,0.22166 0.10048,0.40307 0.12609,0.40307 0.07572,0 -0.07441,-0.70744 -0.177767,-0.83767 -0.05223,-0.0658 -0.186686,-0.11507 -0.29869,-0.11007 z m -0.682129,0.10283 c -0.157933,-0.003 -0.459664,0.0298 -0.670243,0.0734 -0.333082,0.0689 -0.34541,0.0797 -0.0956,0.0848 0.157934,0.003 0.459664,-0.0298 0.670243,-0.0734 0.333083,-0.0689 0.345411,-0.0797 0.0956,-0.0847 z m 6.447669,0.12713 -0.08268,0.1912 c -0.04524,0.10529 -0.08443,0.25586 -0.08733,0.33486 -0.0047,0.12763 0.0049,0.12763 0.08733,0 0.05103,-0.079 0.09075,-0.22957 0.08785,-0.33486 z m -8.016565,0.0512 c -0.378365,0.0162 -1.079091,0.13075 -1.199927,0.21911 -0.11416,0.0835 -0.138747,0.19508 -0.09302,0.42374 0.03417,0.17087 0.08375,0.31058 0.11007,0.31058 0.02633,0 0.0224,-0.1252 -0.0083,-0.27854 -0.07472,-0.37362 0.05014,-0.45472 0.82579,-0.53692 0.357736,-0.0378 0.629384,-0.0905 0.603064,-0.11678 -0.02102,-0.021 -0.11159,-0.0266 -0.237712,-0.0212 z m 12.028206,0.3886 c -0.02249,-0.006 -0.0619,0.1056 -0.111104,0.32557 -0.04691,0.20967 -0.0384,0.24852 0.03256,0.14366 0.05343,-0.079 0.09794,-0.22622 0.0987,-0.32712 7.34e-4,-0.0918 -0.0067,-0.13822 -0.02015,-0.14211 z m -31.021879,0.11886 c -0.02474,-0.0247 -0.115508,0.16733 -0.201538,0.42633 -0.175723,0.52906 -0.616575,1.27135 -0.997355,1.67949 -0.303599,0.32539 -0.677658,0.53117 -1.258838,0.69246 -0.36926,0.1025 -0.390642,0.12116 -0.149861,0.12816 0.627453,0.0191 1.44543,-0.58198 2.030883,-1.49294 0.318845,-0.4961 0.661669,-1.3485 0.576709,-1.4335 z m 26.784412,0.25477 c -0.02632,0 -0.04806,0.0217 -0.04806,0.048 0,0.0264 0.02174,0.0476 0.04806,0.0476 0.02632,0 0.04754,-0.0212 0.04754,-0.0476 0,-0.0264 -0.02122,-0.048 -0.04754,-0.048 z m -4.986259,0.017 c -0.02288,-0.003 -0.03927,0.0259 -0.03927,0.0786 0,0.0698 0.02898,0.0992 0.06408,0.0641 0.03509,-0.0351 0.03509,-0.0926 0,-0.12765 -0.0088,-0.009 -0.01718,-0.0138 -0.02481,-0.015 z m 4.909261,0.1943 c -0.0013,-0.006 -0.04425,0.0532 -0.130225,0.17157 -0.09561,0.13161 -0.289724,0.35752 -0.430981,0.50229 -0.141262,0.14478 -0.224422,0.26355 -0.185002,0.26355 0.102075,0 0.434234,-0.38051 0.626319,-0.71778 0.08088,-0.14205 0.121189,-0.21358 0.119889,-0.21963 z m 4.135148,0.12196 c -0.02867,0.0119 -0.147663,0.2281 -0.288354,0.5271 -0.319808,0.67963 -0.974141,1.639 -1.366842,2.00401 -0.137312,0.12763 -0.249597,0.26899 -0.249597,0.31419 0,0.11201 0.773497,-0.76688 1.126546,-1.28002 0.316397,-0.45986 0.789465,-1.39845 0.784965,-1.55753 -1.96e-4,-0.007 -0.0026,-0.009 -0.0067,-0.008 z m -8.950358,0.076 c -0.08036,0.0804 0.142102,0.46353 0.471289,0.81132 0.161945,0.17109 0.316295,0.31109 0.342615,0.31109 0.02632,0 -0.08767,-0.14 -0.252698,-0.31109 -0.165033,-0.1711 -0.34676,-0.43549 -0.40411,-0.58756 -0.05735,-0.15207 -0.127986,-0.25286 -0.157096,-0.22376 z m -4.04213,0.0124 c -0.0054,0.002 -0.0085,0.01 -0.0093,0.0253 -0.0033,0.0615 0.0204,0.18166 0.05323,0.26716 0.03282,0.0855 0.07724,0.13821 0.09819,0.11731 0.02095,-0.021 -0.0033,-0.14108 -0.05374,-0.26717 -0.03782,-0.0948 -0.07222,-0.14788 -0.08837,-0.14263 z m 20.946521,0.0625 c -0.0231,0 -0.046,0.009 -0.0636,0.0264 -0.0351,0.0351 -0.007,0.0636 0.0636,0.0636 0.0698,0 0.0992,-0.0285 0.0641,-0.0636 -0.0176,-0.0175 -0.041,-0.0264 -0.0641,-0.0264 z m -51.767896,0.0682 -0.198437,0.41082 c -0.255288,0.52835 -0.181464,0.61699 0.08268,0.0992 0.110032,-0.21568 0.25307,-0.39186 0.31781,-0.39119 0.389231,0.004 2.51034,0.39114 2.59209,0.47284 0.13775,0.13775 -0.440853,1.24029 -1.015959,1.93632 -0.468207,0.56665 -1.293016,1.19139 -1.918229,1.45262 -0.194469,0.0813 -0.353984,0.17099 -0.353984,0.19999 v 5.2e-4 c 0,0.23959 1.370867,-0.58186 1.990576,-1.1927 0.633508,-0.62442 1.455726,-1.94704 1.455726,-2.34197 0,-0.0741 -0.05036,-0.16519 -0.111622,-0.20309 -0.129468,-0.08 -1.508952,-0.31457 -2.29805,-0.39067 z m 51.672296,0.11782 c -0.005,-0.005 -0.044,0.0237 -0.11989,0.0832 -0.0921,0.0722 -0.16743,0.14753 -0.16743,0.16743 0,0.0788 0.0786,0.0282 0.20361,-0.13126 0.0595,-0.0759 0.0886,-0.11444 0.0837,-0.11937 z m 5.13044,0.39687 c -0.50086,-0.003 -1.17743,0.002 -2.08825,0.008 l -3.37705,0.0227 3.37395,0.0264 3.30523,0.0258 c -0.17865,-0.0572 -0.53051,-0.0788 -1.21388,-0.0832 z m 1.21388,0.0832 c 0.0265,0.009 0.0506,0.0177 0.0698,0.0279 l -0.001,-0.0274 z m 0.0698,0.0279 0.0119,0.28267 c 0.01,0.23681 0.0234,0.25727 0.0558,0.0873 0.035,-0.18339 0.0679,-0.29799 -0.0677,-0.37 z m -27.064497,-0.11059 c -0.01539,-0.003 -0.0205,0.0267 -0.0217,0.0889 -0.0016,0.0834 0.02588,0.18039 0.06098,0.21549 0.11678,0.11678 0.146475,-0.015 0.04341,-0.19223 -0.04171,-0.0717 -0.06729,-0.10873 -0.08268,-0.11214 z m 15.445047,0.0811 c -0.0263,0 -0.0745,0.0429 -0.10697,0.0956 -0.0325,0.0526 -0.0377,0.0956 -0.0114,0.0956 0.0263,0 0.0745,-0.043 0.10697,-0.0956 0.0325,-0.0526 0.0377,-0.0956 0.0114,-0.0956 z m -7.682213,0.0956 c -0.05136,0 -0.176863,0.0669 -0.279053,0.14883 -0.175197,0.14036 -0.172406,0.14259 0.05323,0.0351 0.292991,-0.13955 0.347439,-0.18397 0.225826,-0.18397 z m 7.479133,0.20723 c -0.0409,-0.0409 -0.718455,1.36247 -0.713655,1.47794 0.002,0.0471 0.170441,-0.2589 0.374654,-0.68006 0.204211,-0.42116 0.356701,-0.78018 0.339001,-0.79788 z m -10.432958,0.0827 c -0.05264,0 -0.03091,0.042 0.04806,0.093 0.07897,0.0511 0.186622,0.0925 0.239262,0.0925 0.05264,0 0.03091,-0.0415 -0.04806,-0.0925 -0.07897,-0.0511 -0.186622,-0.093 -0.239262,-0.093 z m -4.61884,0.0377 c -0.02007,0.0201 0.05327,0.21324 0.163298,0.42892 0.27148,0.53213 0.34199,0.50023 0.08113,-0.0367 -0.114534,-0.23575 -0.22436,-0.41233 -0.24443,-0.39223 z m 6.976835,5.2e-4 c -0.012,0.002 -0.03195,0.009 -0.06046,0.0196 -0.10529,0.0405 -0.579365,0.10052 -1.053166,0.13332 l -0.861446,0.0594 0.813904,0.0134 c 0.582607,0.01 0.881293,-0.0282 1.052649,-0.13333 0.106927,-0.0656 0.144514,-0.0986 0.10852,-0.0925 z m 19.872173,0.35708 c -0.0215,0.0116 -0.0694,0.15078 -0.12351,0.36794 -0.0723,0.28954 -0.12912,0.6125 -0.12712,0.71779 0.002,0.10528 0.0631,-0.0459 0.13539,-0.33538 0.0723,-0.28955 0.12912,-0.6125 0.12712,-0.71779 -5.6e-4,-0.0263 -0.005,-0.0364 -0.0119,-0.0326 z m -26.358082,0.55914 c -0.06082,0 0.05045,0.19407 0.233061,0.4067 0.230038,0.26786 0.241635,0.19384 0.0186,-0.11938 -0.112459,-0.15794 -0.225815,-0.28732 -0.251665,-0.28732 z m 0.490927,0.67025 c -0.02632,0 -0.04806,0.0212 -0.04806,0.0475 0,0.0264 0.02174,0.0481 0.04806,0.0481 0.02632,0 0.04754,-0.0218 0.04754,-0.0481 0,-0.0264 -0.02122,-0.0475 -0.04754,-0.0475 z m 13.320117,0.0222 c -0.01413,0.006 -0.0353,0.0296 -0.06356,0.0734 -0.05103,0.079 -0.09023,0.20832 -0.08733,0.28732 0.0035,0.0946 0.03309,0.0782 0.08733,-0.0481 0.0848,-0.19733 0.105963,-0.33161 0.06356,-0.31264 z m 12.271088,0.0253 -0.0827,0.19172 c -0.0453,0.10529 -0.0816,0.29885 -0.0796,0.43046 l 0.003,0.23926 0.0765,-0.23926 c 0.0421,-0.13161 0.0776,-0.32517 0.0796,-0.43046 z m -15.996959,0.0997 c -0.01095,-0.016 -0.169364,0.0948 -0.386023,0.27234 -0.247609,0.2029 -0.450102,0.38901 -0.450102,0.41341 0,0.0653 0.751014,-0.54109 0.831474,-0.67128 0.0047,-0.008 0.0062,-0.0122 0.0047,-0.0145 z m -9.450586,0.0723 c 0,0.0282 0.220826,0.22677 0.490926,0.44183 0.2701,0.21505 0.515723,0.39119 0.545703,0.39119 0.0649,0 0.01078,-0.048 -0.582393,-0.52141 -0.250062,-0.19959 -0.454236,-0.33981 -0.454236,-0.31161 z m 12.964583,0.55139 c -0.01041,-0.006 -0.02524,0.025 -0.04547,0.0904 -0.04067,0.13162 -0.07842,0.35753 -0.08372,0.5023 -0.0053,0.14477 0.02305,0.26289 0.06253,0.26251 0.03948,-4.1e-4 0.0768,-0.22632 0.0832,-0.50229 0.0053,-0.22873 8.18e-4,-0.34258 -0.01654,-0.35295 z m -4.445723,0.13487 c 0,-0.0429 -0.947258,0.40451 -1.044898,0.49351 -0.02194,0.0199 -0.01,0.0362 0.02687,0.0362 0.103705,0 1.018026,-0.47569 1.018026,-0.52969 z m -7.343221,0.18552 c -0.06282,-0.005 0.01251,0.0725 0.236161,0.19379 0.300802,0.16317 0.311092,0.1665 0.311092,0.1049 0,-0.025 -0.129387,-0.11209 -0.287321,-0.19379 -0.134993,-0.0698 -0.222242,-0.10208 -0.259932,-0.1049 z m 24.076566,0.008 c -0.0219,-0.0219 -0.0873,0.088 -0.14624,0.24391 h -5.2e-4 c -0.0588,0.15592 -0.0683,0.28319 -0.0212,0.28319 0.0901,0 0.23625,-0.4588 0.16795,-0.5271 z m -23.386169,0.339 c -0.05264,0 -0.03091,0.0415 0.04806,0.0925 0.07897,0.051 0.186622,0.093 0.239262,0.093 0.05264,0 0.03143,-0.042 -0.04754,-0.093 -0.07897,-0.051 -0.187139,-0.0925 -0.239779,-0.0925 z m 5.455998,0 c -0.05264,0 -0.160292,0.0415 -0.239262,0.0925 -0.07897,0.051 -0.100182,0.093 -0.04754,0.093 0.05264,0 0.160291,-0.042 0.239261,-0.093 0.07897,-0.051 0.100183,-0.0925 0.04754,-0.0925 z m 17.516241,0.1881 c -0.0264,0 -0.0475,0.0218 -0.0475,0.0481 0,0.0264 0.0212,0.0481 0.0475,0.0481 0.0264,0 0.0481,-0.0218 0.0481,-0.0481 0,-0.0264 -0.0218,-0.0481 -0.0481,-0.0481 z m -22.350055,0.006 c -0.02313,0 -0.04601,0.009 -0.06356,0.0264 -0.0351,0.0351 -0.0066,0.0641 0.06356,0.0641 0.07021,0 0.09918,-0.029 0.06408,-0.0641 -0.01755,-0.0175 -0.04095,-0.0264 -0.06408,-0.0264 z m 16.367995,0.007 c -1.03226,0 -2.0648,0.004 -2.84789,0.0114 -1.56618,0.0147 -0.28447,0.0269 2.84789,0.0269 3.13234,0 4.41355,-0.0122 2.84737,-0.0269 -0.78309,-0.007 -1.81512,-0.0114 -2.84737,-0.0114 z m -12.101588,0.0191 c -0.03138,0.004 -0.08189,0.0119 -0.150379,0.0243 -0.184257,0.0333 -0.485471,0.0942 -0.669726,0.13487 -0.263369,0.0581 -0.284237,0.0757 -0.09612,0.0837 0.131612,0.005 0.433343,-0.0556 0.670244,-0.13488 0.264156,-0.0883 0.34013,-0.1191 0.24598,-0.108 z m -3.9672,0.108 c -0.03985,0.005 -0.02774,0.0208 0.03617,0.0491 0.182807,0.081 0.792658,0.13556 0.709518,0.0636 -0.02194,-0.019 -0.233355,-0.0602 -0.470256,-0.0915 -0.143806,-0.019 -0.235585,-0.0258 -0.275435,-0.0212 z m 1.806608,0.15813 c -0.182162,0 -0.364103,0.005 -0.502295,0.0145 -0.276384,0.0193 -0.05047,0.0351 0.502295,0.0351 0.552766,0 0.779196,-0.0158 0.502812,-0.0351 -0.138192,-0.01 -0.32065,-0.0145 -0.502812,-0.0145 z" /><g
         id="g1475"
         style="fill:#ffffff"><path
           style="fill:#ffffff;stroke-width:0.0957175"
           d="m 89.141815,277.2188 c -2.052682,-0.45553 -3.582698,-1.92163 -4.244754,-4.06743 -0.268138,-0.86906 -0.31365,-1.20375 -0.17812,-1.30985 0.06357,-0.0498 0.524777,-0.14052 1.024901,-0.20166 0.500124,-0.0611 1.241913,-0.15848 1.648419,-0.2163 0.802053,-0.11407 1.031673,-0.0778 1.031673,0.1628 0,0.0856 0.09186,0.4581 0.204142,0.82775 0.370542,1.21992 1.018963,1.69695 2.311625,1.7006 0.612883,0.002 0.831027,-0.0415 1.230154,-0.24375 0.703732,-0.35661 1.105476,-0.76426 1.436286,-1.45741 0.245212,-0.5138 0.29413,-0.73671 0.305583,-1.39251 0.02949,-1.68862 -0.819059,-2.63031 -2.455522,-2.72505 l -0.755908,-0.0437 0.05688,-0.29818 c 0.03128,-0.164 0.121784,-0.59969 0.20111,-0.96821 0.07933,-0.36851 0.18612,-0.90067 0.237319,-1.18258 0.0512,-0.28191 0.137806,-0.56645 0.192461,-0.6323 0.05465,-0.0658 0.418734,-0.14389 0.809068,-0.17341 1.554771,-0.11759 2.498675,-0.93264 2.726617,-2.3544 0.113941,-0.71069 -0.004,-1.44058 -0.300486,-1.86031 -0.279785,-0.39603 -0.884666,-0.73959 -1.412126,-0.80206 -1.078928,-0.12779 -2.050052,0.60597 -2.555653,1.93098 -0.14084,0.36909 -0.280838,0.70147 -0.31111,0.73862 -0.03027,0.0371 -0.227085,0.0287 -0.437364,-0.0189 -0.21028,-0.0475 -0.962386,-0.19819 -1.671349,-0.33479 -0.708963,-0.1366 -1.317667,-0.29471 -1.352678,-0.35136 -0.06668,-0.10789 0.243889,-0.94071 0.654564,-1.75528 0.819645,-1.62576 2.288434,-2.76323 4.217239,-3.26595 0.655944,-0.17097 2.391329,-0.16463 3.128775,0.0114 1.200882,0.28668 2.640784,1.23949 3.099241,2.05081 0.07188,0.12721 0.230004,0.40917 0.351386,0.62659 0.575189,1.03025 0.69275,3.01661 0.247178,4.17629 -0.414846,1.07971 -1.430802,2.18002 -2.459274,2.66345 -0.224707,0.10563 -0.431199,0.22868 -0.458873,0.27346 -0.02767,0.0448 0.183569,0.25075 0.469429,0.45771 0.613626,0.44427 1.087863,1.03774 1.454024,1.81959 0.228593,0.4881 0.269973,0.71105 0.298112,1.60614 0.03712,1.18063 -0.05209,1.63739 -0.507377,2.5979 -0.922244,1.94565 -2.566681,3.36544 -4.550468,3.92882 -0.780223,0.22157 -2.849662,0.2679 -3.685126,0.0825 z m 10.04817,-0.23398 c -0.153062,-0.24765 0.190459,-1.53691 0.68349,-2.56519 0.813235,-1.69611 1.279245,-2.24511 5.253775,-6.18945 1.95446,-1.93961 3.43267,-3.48642 3.65891,-3.8287 1.26109,-1.90802 0.98085,-3.86339 -0.63038,-4.3984 -0.44952,-0.14926 -0.5819,-0.15539 -1.07864,-0.05 -0.9952,0.21119 -1.65357,0.98727 -2.08883,2.46224 -0.15097,0.5116 -0.24773,0.69372 -0.36823,0.69307 -0.27433,-10e-4 -3.32427,-0.46617 -3.49851,-0.53303 -0.12954,-0.0497 -0.15049,-0.13426 -0.10171,-0.41044 0.0997,-0.56431 0.65135,-1.96641 1.00392,-2.55143 0.34199,-0.56746 1.15878,-1.42483 1.72082,-1.80628 1.79059,-1.2153 4.76737,-1.35723 6.8858,-0.32831 0.81535,0.396 1.87342,1.44672 2.2338,2.21825 0.72529,1.55278 0.71883,3.44595 -0.0173,5.06946 -0.60447,1.33313 -1.16781,1.99856 -4.43524,5.23897 -1.7278,1.7135 -3.14144,3.18875 -3.14144,3.27832 0,0.15024 0.25971,0.16287 3.35012,0.16287 h 3.35011 v 0.22476 c 0,0.12362 -0.0875,0.62973 -0.19441,1.12468 -0.10693,0.49496 -0.23356,1.12406 -0.28141,1.39801 -0.0478,0.27394 -0.13418,0.58622 -0.19183,0.69395 -0.1039,0.19413 -0.15774,0.19586 -6.07816,0.19586 -4.01993,0 -5.993382,-0.0325 -6.034655,-0.0992 z"
           id="path1465" /><path
           style="fill:#ffffff;stroke-width:0.0957175"
           d="m 50.136915,277.13355 c -1.710164,-0.50117 -2.795485,-1.73775 -3.070895,-3.49889 -0.159948,-1.02281 -0.05069,-2.40838 0.266246,-3.37646 0.71277,-2.17717 1.945301,-3.43344 4.044696,-4.12262 1.39913,-0.45929 3.220101,-0.34069 4.276773,0.27856 0.972318,0.56982 1.790535,1.75725 1.800538,2.61302 0.0046,0.39753 -0.01671,0.43657 -0.277842,0.50776 -0.155582,0.0424 -0.756261,0.0892 -1.334842,0.10407 l -1.051965,0.0269 -0.0845,-0.35048 c -0.123399,-0.51182 -0.671289,-1.10739 -1.133154,-1.23176 -0.804381,-0.21659 -1.699478,0.087 -2.355735,0.79892 -0.688625,0.74707 -1.086669,1.79589 -1.269352,3.34466 -0.09312,0.78946 -0.08744,1.01183 0.03667,1.43576 0.189871,0.64857 0.368293,0.89162 0.825899,1.12507 0.975848,0.49785 2.106757,0.0176 2.816471,-1.19591 0.200711,-0.3432 0.413093,-0.62344 0.471959,-0.62276 0.383074,0.004 2.500843,0.39207 2.581231,0.47246 0.13775,0.13775 -0.440599,1.24031 -1.015706,1.93634 -0.657908,0.79623 -1.898138,1.58646 -2.75068,1.75262 -0.66671,0.12994 -2.336066,0.13156 -2.775809,0.003 z m 12.203987,0.006 c -1.42652,-0.3569 -2.477849,-1.143 -3.052523,-2.28243 -0.523127,-1.03723 -0.673439,-1.96133 -0.532993,-3.27675 0.346857,-3.24865 2.369687,-5.37708 5.40247,-5.68448 2.475895,-0.25095 4.432626,0.64968 5.358279,2.46629 0.364153,0.71465 0.471114,1.28255 0.470927,2.50031 -1.92e-4,1.19868 -0.04577,1.45318 -0.445714,2.48866 -0.72334,1.87275 -2.244484,3.27576 -4.042804,3.72882 -0.883039,0.22247 -2.39271,0.25096 -3.157642,0.0596 z m 2.583319,-2.35213 c 0.772979,-0.37419 1.520341,-1.33317 1.886484,-2.42063 0.264517,-0.78563 0.349537,-2.46483 0.149028,-2.94341 -0.37264,-0.88943 -1.062898,-1.3378 -2.054573,-1.3346 -1.677166,0.005 -2.834693,1.34927 -3.193981,3.70807 -0.204954,1.34557 0.244999,2.49677 1.15617,2.95805 0.57094,0.28903 1.496747,0.30367 2.056872,0.0325 z m -32.283548,2.17707 c -0.0653,-0.0788 -0.06921,-0.26655 -0.01147,-0.55038 0.04819,-0.2369 0.129239,-0.64609 0.180112,-0.90932 0.05087,-0.26322 0.180971,-0.88778 0.289107,-1.3879 0.108136,-0.50012 0.302372,-1.42619 0.431634,-2.05793 0.129264,-0.63173 0.304735,-1.47165 0.389938,-1.86649 0.0852,-0.39483 0.296249,-1.41784 0.468992,-2.27336 0.172742,-0.85551 0.367674,-1.62005 0.43318,-1.69898 0.0949,-0.11435 0.374443,-0.14322 1.375639,-0.14205 0.691096,7.7e-4 1.306534,0.0333 1.367641,0.0722 0.07609,0.0484 0.08682,0.19123 0.03404,0.45319 -0.160452,0.79639 -0.383216,1.85733 -0.622948,2.96688 -0.136494,0.63173 -0.284583,1.34244 -0.329087,1.57934 -0.09773,0.52024 -0.376286,1.8626 -0.774634,3.73298 -0.162575,0.76335 -0.320797,1.51712 -0.351605,1.67506 -0.09958,0.51048 -0.145446,0.52644 -1.512699,0.52644 -0.898338,0 -1.297675,-0.0349 -1.367835,-0.11964 z m 5.662141,-0.0233 c -0.03016,-0.0786 0.04137,-0.60624 0.158945,-1.17254 0.11758,-0.56631 0.245817,-1.20194 0.284973,-1.41252 0.08671,-0.46632 0.51686,-2.52708 0.719262,-3.44583 0.08118,-0.36851 0.188872,-0.88538 0.239305,-1.14861 0.09711,-0.50686 0.258515,-1.27781 0.558451,-2.66749 0.100767,-0.46688 0.242111,-0.88688 0.314099,-0.93334 0.07199,-0.0465 0.669299,-0.0737 1.327357,-0.0605 l 1.196469,0.024 -0.01389,0.28715 c -0.0076,0.15793 -0.04597,0.53482 -0.08518,0.83753 -0.0505,0.38983 -0.03947,0.55037 0.03781,0.55037 0.06001,0 0.109109,-0.0373 0.109109,-0.0829 0,-0.14499 0.989761,-1.11922 1.400457,-1.37847 0.64584,-0.4077 1.340244,-0.56851 1.954289,-0.45258 0.967388,0.18263 1.018008,0.2527 0.671814,0.92986 -0.101757,0.19904 -0.316626,0.65263 -0.477489,1.00798 l -0.292479,0.6461 h -0.725005 c -0.593843,0 -0.820658,0.0468 -1.253734,0.25889 -0.965664,0.47284 -1.626837,1.38005 -2.078474,2.85193 -0.224341,0.73112 -0.411071,1.51076 -0.676291,2.82366 -0.450379,2.22949 -0.52244,2.51859 -0.647545,2.59794 -0.0687,0.0436 -0.696973,0.0799 -1.396167,0.0807 -1.039973,0.001 -1.281238,-0.0245 -1.326096,-0.14143 z m 33.019242,-0.009 c -0.03198,-0.0833 0.01616,-0.52483 0.10698,-0.9811 0.249026,-1.25108 0.606642,-2.97677 0.915747,-4.41899 0.35553,-1.65882 0.764435,-3.65905 0.86204,-4.21681 0.04196,-0.23977 0.125274,-0.61787 0.185142,-0.8402 l 0.108849,-0.40423 1.311707,0.0266 1.311708,0.0266 -0.0248,0.55037 c -0.03065,0.6801 0.04812,0.69581 0.81022,0.1616 0.579569,-0.40625 1.1216,-0.67641 1.607519,-0.80121 1.041993,-0.26762 2.134927,-0.21605 2.811299,0.13266 1.038496,0.5354 1.57193,1.77168 1.350007,3.12875 -0.334767,2.04712 -1.536553,7.63561 -1.658921,7.71423 -0.0602,0.0387 -0.681513,0.071 -1.380707,0.0718 -1.085089,10e-4 -1.279987,-0.0213 -1.33084,-0.15379 -0.06507,-0.16957 -0.0029,-0.53309 0.448398,-2.62055 1.002779,-4.63867 1.082363,-5.21284 0.81309,-5.86624 -0.204669,-0.49664 -1.244803,-0.63134 -1.992313,-0.25802 -1.003413,0.50113 -1.703465,1.35412 -2.06079,2.511 -0.182177,0.58982 -0.805145,3.37512 -0.979417,4.379 -0.168156,0.96864 -0.403692,1.87071 -0.505716,1.93681 -0.05969,0.0387 -0.680599,0.071 -1.379793,0.0718 -1.072249,0.001 -1.280365,-0.0223 -1.329408,-0.15006 z M 35.21394,264.55327 c -0.10981,-0.0701 -0.114818,-0.1625 -0.02718,-0.5017 0.05909,-0.22871 0.174549,-0.75931 0.256583,-1.17911 0.08203,-0.4198 0.18403,-0.79815 0.226656,-0.84078 0.04263,-0.0426 0.676908,-0.0828 1.409512,-0.0892 l 1.332008,-0.0117 0.03092,0.26076 c 0.04542,0.38315 -0.362141,2.19193 -0.522475,2.31877 -0.166717,0.13188 -2.508355,0.16908 -2.706016,0.043 z"
           id="path1463" /><path
           style="fill:#ffffff;stroke-width:0.0957175"
           d="m 12.26339,282.6596 c 0.07883,-0.99114 0.348863,-2.53126 0.469928,-2.68018 0.07773,-0.0956 10.490321,-0.1149 51.701234,-0.0957 l 51.603898,0.024 -0.0114,0.62217 c -0.0104,0.56709 -0.10272,1.32772 -0.28475,2.34508 -0.0377,0.21057 -0.11568,0.41451 -0.17334,0.45319 -0.0577,0.0387 -23.338293,0.071 -51.734724,0.0718 l -51.629874,10e-4 z"
           id="path1459" /></g></g></g></svg>
