<?xml version="1.0" encoding="UTF-8" standalone="no"?>
<svg
   xmlns:dc="http://purl.org/dc/elements/1.1/"
   xmlns:cc="http://creativecommons.org/ns#"
   xmlns:rdf="http://www.w3.org/1999/02/22-rdf-syntax-ns#"
   xmlns:svg="http://www.w3.org/2000/svg"
   xmlns="http://www.w3.org/2000/svg"
   xmlns:sodipodi="http://sodipodi.sourceforge.net/DTD/sodipodi-0.dtd"
   xmlns:inkscape="http://www.inkscape.org/namespaces/inkscape"
   width="462.18707"
   height="167.05309"
   viewBox="0 0 462.18707 167.05309"
   version="1.1"
   id="svg50"
   sodipodi:docname="virtualboy.svg"
   inkscape:version="1.0.1 (1.0.1+r73)"
   style="fill:none">
  <metadata
     id="metadata56">
    <rdf:RDF>
      <cc:Work
         rdf:about="">
        <dc:format>image/svg+xml</dc:format>
        <dc:type
           rdf:resource="http://purl.org/dc/dcmitype/StillImage" />
        <dc:title />
      </cc:Work>
    </rdf:RDF>
  </metadata>
  <defs
     id="defs54" />
  <sodipodi:namedview
     pagecolor="#ffffff"
     bordercolor="#666666"
     borderopacity="1"
     objecttolerance="10"
     gridtolerance="10"
     guidetolerance="10"
     inkscape:pageopacity="0"
     inkscape:pageshadow="2"
     inkscape:window-width="1366"
     inkscape:window-height="740"
     id="namedview52"
     showgrid="false"
     inkscape:pagecheckerboard="true"
     inkscape:zoom="1.3175448"
     inkscape:cx="197.43258"
     inkscape:cy="36.945277"
     inkscape:window-x="0"
     inkscape:window-y="0"
     inkscape:window-maximized="1"
     inkscape:current-layer="svg50"
     inkscape:document-rotation="0" />
  <path
     d="m 0,25.139322 c 0,13.724869 11.483838,25.044546 28.67038,25.049954 h 161.86324 c 17.18645,-0.0055 28.66975,-11.325085 28.66975,-25.049954 0,-13.724869 -11.51016,-25.17441587 -28.64379,-25.139241168713 H 28.644148 C 11.51007,-0.03508997 0,11.414453 0,25.139322 Z m 6.7651289,-0.03254 c 0,-10.456618 8.3516261,-18.908502 21.9576271,-18.93285 l 161.760734,0.0027 c 13.60609,0.02435 21.95757,8.47628 21.95757,18.930153 0,10.453958 -8.30225,18.973525 -21.96027,18.930173 H 28.722756 C 15.064379,44.082974 6.7651289,35.560743 6.7651289,25.106786 Z"
     id="path2"
     inkscape:connector-curvature="0"
     style="clip-rule:evenodd;fill:#ffffff;fill-rule:evenodd;stroke-width:0.86313" />
  <path
     d="m 195.17314,17.060686 c 0,-2.007448 1.75213,-3.636122 3.91252,-3.636122 2.1595,0 3.91253,1.628674 3.91253,3.636122 0,2.007448 -1.75303,3.636206 -3.91253,3.636206 -2.16039,0 -3.91252,-1.628758 -3.91252,-3.636206 z m 3.91252,2.943563 c 1.74676,0 3.16404,-1.317551 3.16404,-2.940901 0,-1.625928 -1.41728,-2.940817 -3.16404,-2.940817 -1.74676,0 -3.16404,1.317552 -3.16404,2.940817 0,1.62335 1.41728,2.940901 3.16404,2.940901 z"
     id="path4"
     inkscape:connector-curvature="0"
     style="clip-rule:evenodd;fill:#ffffff;fill-rule:evenodd;stroke-width:0.86313" />
  <path
     d="m 201.03297,16.159852 c 0,-0.77111 -0.61419,-1.1607 -1.85062,-1.1607 h -1.70019 v 4.028459 h 1.05647 v -1.65031 h 0.51481 l 0.82995,1.65031 h 1.17286 l -0.96873,-1.79909 c 0.59091,-0.138046 0.94545,-0.538454 0.94545,-1.068669 z m -1.97953,0.627655 h -0.51481 v -1.171435 h 0.46287 c 0.63478,0 0.94634,0.181233 0.94634,0.600612 0,0.400408 -0.29098,0.570823 -0.8944,0.570823 z"
     id="path6"
     inkscape:connector-curvature="0"
     style="clip-rule:evenodd;fill:#ffffff;fill-rule:evenodd;stroke-width:0.86313" />
  <path
     d="m 116.47143,32.322283 c 0,-0.88203 -0.005,-0.952342 -0.005,-0.952342 l 7.61464,-0.0055 c -1.32953,3.70918 -5.68792,6.444385 -10.84583,6.444385 -6.21796,0 -11.25679,-3.947246 -11.25679,-8.819789 0,-4.872545 5.03883,-8.822536 11.25679,-8.822536 6.21795,0 11.28007,4.03653 11.28007,8.909074 0,0.0083 -14.40113,0.0028 -14.40113,0.0028 0,0 -0.005,2.383475 -0.005,3.243869 0,2.873168 2.06997,3.511641 3.19896,3.511641 1.12988,0 3.16404,-0.638473 3.16404,-3.511641 z m -5.85088,-8.771195 c -0.48616,0.78459 -0.51838,1.704479 -0.50674,3.081525 l 6.37821,0.0028 c 0.0116,-1.37713 -0.009,-2.296936 -0.49511,-3.084273 -0.59628,-0.968069 -1.69303,-1.427971 -2.68772,-1.433879 0,0 8.9e-4,0 8.9e-4,0 h -0.003 c 9e-4,0 9e-4,0 0.002,0 -0.99559,0.0059 -2.09234,0.46581 -2.68863,1.433879 z"
     id="path8"
     inkscape:connector-curvature="0"
     style="clip-rule:evenodd;fill:#ffffff;fill-rule:evenodd;stroke-width:0.86313" />
  <path
     d="m 140.51958,20.429121 c 2.85874,-0.0758 8.65679,1.663873 8.6165,7.883675 -0.006,1.103867 -0.004,8.549357 -0.004,8.549357 h -7.59405 c 0,0 0,-9.33661 0,-10.318741 0,-1.368892 -1.40922,-2.892139 -3.49351,-2.892139 -2.08161,0 -3.62961,1.523247 -3.62961,2.892139 0,0.671008 0.008,10.318741 0.008,10.318741 h -7.58868 l 0.006,-15.710683 7.58599,-0.0055 c 0,0 -0.009,1.263465 0,1.653056 1.46116,-1.296 3.56873,-2.302429 6.09262,-2.369996 z"
     id="path10"
     inkscape:connector-curvature="0"
     style="fill:#ffffff;stroke-width:0.86313" />
  <path
     d="m 78.392911,20.429121 c 2.85856,-0.0758 8.657331,1.663873 8.616505,7.883675 -0.0058,1.103867 -0.003,8.549357 -0.003,8.549357 H 79.41164 c 0,0 0,-9.33661 0,-10.318741 0,-1.368892 -1.408955,-2.892139 -3.493247,-2.892139 -2.081338,0 -3.629962,1.523247 -3.629962,2.892139 0,0.671008 0.0087,10.318741 0.0087,10.318741 H 64.70809 l -0.003,-15.710683 7.59477,-0.0055 c 0,0 -0.0087,1.263465 0,1.653056 1.461333,-1.296 3.565948,-2.302429 6.092705,-2.369996 z"
     id="path12"
     inkscape:connector-curvature="0"
     style="fill:#ffffff;stroke-width:0.86313" />
  <path
     d="m 173.15736,13.240503 h -7.54482 v 0 c 0,0 0,5.056521 0.005,8.692643 -1.22211,-0.638472 -2.51226,-1.252564 -4.32527,-1.401427 -5.51066,-0.449085 -9.72042,4.079883 -9.72042,8.227334 0,5.467746 4.53834,7.491503 5.22863,7.789064 2.57045,1.114685 5.87147,1.117348 8.79647,-0.589795 0,0.146118 0.004,0.909073 0.004,0.909073 h 7.55645 z m -7.48931,12.883446 v 2.808264 0 c 0,0 0.003,1.777538 0.003,2.786629 0,2.426828 -1.80763,3.062637 -2.99841,3.062637 -1.21404,0 -2.99572,-0.635809 -2.99572,-3.062637 0,-0.835931 0.004,-2.794701 0.004,-2.794701 0,0 -0.004,-1.993968 -0.004,-2.800192 0,-2.42949 1.78168,-3.049074 2.99841,-3.049074 1.18809,0 2.99304,0.619584 2.99304,3.049074 z"
     id="path14"
     inkscape:connector-curvature="0"
     style="clip-rule:evenodd;fill:#ffffff;fill-rule:evenodd;stroke-width:0.86313" />
  <path
     d="m 175.64633,28.905336 c 0,-4.872543 5.00123,-8.822536 11.17263,-8.822536 6.1714,0 11.17263,3.949993 11.17263,8.822536 0,4.872544 -5.00123,8.822536 -11.17263,8.822536 -6.16871,0 -11.17263,-3.949992 -11.17263,-8.822536 z m 14.24087,3.308857 c 0,-0.952341 0.003,-3.327746 0.003,-3.327746 l 0.003,0.0081 c -0.007,-0.512491 -0.006,-1.772378 -0.005,-2.737451 0,-0.222005 0,-0.428367 0,-0.606519 0,-2.494395 -1.59814,-3.519795 -3.12376,-3.519795 -1.52203,0 -3.12374,1.0254 -3.12374,3.519795 0,0.952341 -0.005,3.276321 -0.005,3.276321 0,0 -0.004,2.434982 -0.004,3.387323 0,2.505212 1.59814,3.538684 3.13271,3.538684 1.53099,0 3.12375,-1.033472 3.12375,-3.538684 z"
     id="path16"
     inkscape:connector-curvature="0"
     style="clip-rule:evenodd;fill:#ffffff;fill-rule:evenodd;stroke-width:0.86313" />
  <path
     d="M 52.834464,18.064451 V 13.23526 h 7.661742 v 4.829191 z"
     id="path18"
     inkscape:connector-curvature="0"
     style="fill:#ffffff;stroke-width:0.86313" />
  <path
     d="M 52.851923,36.867395 V 21.154049 l 7.644283,0.0028 v 15.710683 z"
     id="path20"
     inkscape:connector-curvature="0"
     style="fill:#ffffff;stroke-width:0.86313" />
  <path
     d="m 91.204769,36.867644 0.0027,-15.680893 h -4.15696 v -2.332134 l 4.15963,-0.0028 -0.0054,-3.181629 h 7.649565 v 3.178966 h 4.139926 V 21.1867 h -4.139926 l 0.0062,15.680893 z"
     id="path22"
     inkscape:connector-curvature="0"
     style="fill:#ffffff;stroke-width:0.86313" />
  <path
     d="m 21.741991,36.867395 0.0029,-23.626892 h 7.920846 l 10.956945,16.4763 -0.0058,-16.4763 h 7.859695 V 36.867395 H 40.628538 L 29.613325,20.391094 v 16.476301 z"
     id="path24"
     inkscape:connector-curvature="0"
     style="fill:#ffffff;stroke-width:0.86313" />
  <path
     d="M 0,54.913705 24.234808,167.04004 48.344066,54.913705 H 35.295185 L 24.234808,117.93282 13.049682,54.913705 Z"
     id="path26"
     inkscape:connector-curvature="0"
     style="fill:#ffffff;stroke-width:0.98272" />
  <path
     d="M 53.68773,54.914188 H 66.736512 V 167.041 H 53.68773 Z"
     id="path28"
     inkscape:connector-curvature="0"
     style="fill:#ffffff;stroke-width:0.98272" />
  <path
     d="M 78.411136,54.901445 V 167.04487 H 91.46482 v -57.94208 l 18.15255,57.94111 h 12.03487 l -14.52288,-53.02074 c 8.06826,-4.67034 10.44322,-10.78485 10.44322,-10.78485 V 67.614875 C 112.22643,56.162479 103.00869,54.901445 103.00869,54.901445 Z M 91.46482,66.316097 h 13.05349 V 105.28484 H 91.46482 Z"
     id="path30"
     inkscape:connector-curvature="0"
     style="fill:#ffffff;stroke-width:0.98272" />
  <path
     d="m 121.66725,54.914188 h 39.02379 V 66.306057 H 147.64076 V 167.04004 H 134.59248 V 66.306829 h -12.92523 z"
     id="path32"
     inkscape:connector-curvature="0"
     style="fill:#ffffff;stroke-width:0.98272" />
  <path
     d="m 232.89126,54.901445 -25.2112,112.024685 v 0.11777 h 12.93123 l 2.7331,-15.11444 h 18.23439 l 2.61006,15.11444 h 13.05328 z m 0,48.335895 5.95542,38.6139 h -12.89123 z"
     id="path34"
     inkscape:connector-curvature="0"
     style="fill:#ffffff;stroke-width:0.98272" />
  <path
     d="m 262.47223,54.914188 h 13.05029 V 155.64701 h 19.5129 v 11.39303 h -32.56118 z"
     id="path36"
     inkscape:connector-curvature="0"
     style="fill:#ffffff;stroke-width:0.98272" />
  <path
     d="m 402.03672,54.914188 h 11.92983 l 12.17892,48.329922 11.06049,-48.329922 h 13.17132 L 432.1099,120.87038 v 46.16966 h -13.04929 v -46.1687 z"
     id="path38"
     inkscape:connector-curvature="0"
     style="fill:#ffffff;stroke-width:0.98272" />
  <path
     d="m 378.61825,54.913899 c -14.83101,0 -19.59894,12.701652 -19.59894,12.701652 0.12205,0.180134 0,84.316799 0,86.715699 1.9668,13.62973 19.59894,12.70879 19.59894,12.70879 19.56591,0 19.55991,-12.70879 19.55991,-12.70879 V 67.614778 C 393.11912,54.285361 378.61825,54.913899 378.61825,54.913899 Z m -6.54666,12.700879 h 13.05429 v 88.013892 h -13.05429 z"
     id="path40"
     inkscape:connector-curvature="0"
     style="fill:#ffffff;stroke-width:0.98272" />
  <path
     d="m 165.7851,54.914188 h 13.17433 v 99.415122 h 13.17334 V 54.914188 h 12.92422 v 99.415122 c 0,0 -4.2257,12.71169 -19.01369,12.71169 -14.78898,0 -20.2582,-12.71169 -20.2582,-12.71169 z"
     id="path42"
     inkscape:connector-curvature="0"
     style="fill:#ffffff;stroke-width:0.98272" />
  <path
     d="M 309.45725,54.901445 V 167.04487 h 26.22862 c 12.17392,-3.05919 12.93023,-11.4162 12.93023,-11.4162 0,0 -0.02,-29.9528 -0.02,-37.69585 -0.91338,-4.88754 -5.07807,-5.05166 -5.07807,-5.05166 0,0 -0.017,-1.36307 0,-2.4404 4.60187,-0.3398 5.09907,-5.15688 5.09907,-5.15688 0,0 -0.019,-29.923832 0,-37.669777 -1.99181,-9.146665 -12.93124,-12.712658 -12.93124,-12.712658 z m 13.0933,12.791334 h 13.13432 v 37.591101 h -13.13432 z m -0.04,48.968681 h 13.17434 v 38.96721 h -13.17434 z"
     id="path44"
     inkscape:connector-curvature="0"
     style="fill:#ffffff;stroke-width:0.98272" />
  <path
     d="m 440.00409,155.64798 h 9.06967 v 1.30225 h -3.85156 v 10.08981 h -1.30653 v -10.08981 h -3.91358 v -1.30225 z"
     id="path46"
     inkscape:connector-curvature="0"
     style="fill:#ffffff;stroke-width:0.98272" />
  <path
     d="m 450.38029,167.04004 v -11.39206 h 1.30552 l 4.6609,10.16317 4.47281,-10.16317 h 1.36755 v 11.39206 h -1.36755 v -8.81748 l -3.85657,8.81748 h -1.31854 l -3.9566,-8.81748 v 8.81748 z"
     id="path48"
     inkscape:connector-curvature="0"
     style="fill:#ffffff;stroke-width:0.98272" />
</svg>
