<?xml version="1.0" encoding="UTF-8" standalone="no"?>
<svg
   xmlns:dc="http://purl.org/dc/elements/1.1/"
   xmlns:cc="http://creativecommons.org/ns#"
   xmlns:rdf="http://www.w3.org/1999/02/22-rdf-syntax-ns#"
   xmlns:svg="http://www.w3.org/2000/svg"
   xmlns="http://www.w3.org/2000/svg"
   xmlns:sodipodi="http://sodipodi.sourceforge.net/DTD/sodipodi-0.dtd"
   xmlns:inkscape="http://www.inkscape.org/namespaces/inkscape"
   width="492.53546"
   height="68.171547"
   viewBox="0 0 492.53546 68.171547"
   version="1.1"
   id="svg222"
   sodipodi:docname="wonderswan.svg"
   style="fill:none"
   inkscape:version="1.0.1 (1.0.1+r73)">
  <metadata
     id="metadata228">
    <rdf:RDF>
      <cc:Work
         rdf:about="">
        <dc:format>image/svg+xml</dc:format>
        <dc:type
           rdf:resource="http://purl.org/dc/dcmitype/StillImage" />
        <dc:title />
      </cc:Work>
    </rdf:RDF>
  </metadata>
  <defs
     id="defs226" />
  <sodipodi:namedview
     pagecolor="#ffffff"
     bordercolor="#666666"
     borderopacity="1"
     objecttolerance="10"
     gridtolerance="10"
     guidetolerance="10"
     inkscape:pageopacity="0"
     inkscape:pageshadow="2"
     inkscape:window-width="1366"
     inkscape:window-height="740"
     id="namedview224"
     showgrid="false"
     inkscape:pagecheckerboard="true"
     inkscape:zoom="0.93377674"
     inkscape:cx="295.95912"
     inkscape:cy="-33.662012"
     inkscape:window-x="0"
     inkscape:window-y="0"
     inkscape:window-maximized="1"
     inkscape:current-layer="svg222"
     inkscape:document-rotation="0" />
  <path
     d="m 176.09603,53.309148 c -0.29763,0.40808 -0.62833,0.79409 -0.88214,1.22424 -1.632,2.74629 -3.23175,5.51464 -4.86375,8.26093 -0.22074,0.37501 -0.4853,0.77201 -0.82757,1.02574 -1.88581,1.33454 -3.79394,2.62492 -5.71281,3.9153 -0.23149,0.15444 -0.5407,0.2868 -0.816,0.2868 -5.44826,0.011 -10.88576,0.011 -16.63247,0.011 0.88213,-0.83816 1.58818,-1.49997 2.34961,-2.22783 3.13171,0 6.3089,-0.0662 9.47368,0.022 2.44882,0.0662 4.08082,-1.30138 5.40444,-2.98885 1.62124,-2.07356 2.93412,-4.38969 4.42309,-6.56246 1.45589,-2.12863 3.31938,-3.66166 6.07658,-3.7168 0.67297,-0.0111 1.33519,-0.0883 2.00734,-0.14344 0,0.29779 0,0.59558 0,0.89338 z"
     id="path194"
     inkscape:connector-curvature="0"
     style="fill:#ffffff;stroke-width:0.826746" />
  <path
     d="m 72.518503,67.956018 c -2.437495,0 -4.819763,0 -7.466838,0 2.029413,-2.5477 3.981608,-4.98519 6.033012,-7.56604 -3.397015,0 -6.617521,0 -10.014537,0 -2.1397,2.27206 -5.040338,1.80883 -8.128564,1.73162 2.812506,-3.34188 5.492568,-6.50724 7.941058,-9.41895 6.165374,0 12.066024,0 18.209242,0 -0.507291,1.6544 -0.904377,2.94478 -1.334533,4.33446 1.058813,0 2.018417,0 3.297806,0 -2.93379,3.77203 -5.735218,7.34547 -8.536646,10.91891 z m -6.72781,-12.94832 c -0.860311,0.9596 -1.676475,1.88605 -2.625001,2.95586 3.319799,0 6.374872,0 9.716743,0 0.06622,-0.63965 0.375012,-1.41175 0.121366,-1.89705 -0.264724,-0.50729 -1.058813,-0.97052 -1.6544,-1.01467 -1.808837,-0.12128 -3.639665,-0.0441 -5.558708,-0.0441 z"
     id="path196"
     inkscape:connector-curvature="0"
     style="fill:#ffffff;stroke-width:0.826746" />
  <path
     d="m 125.48265,68.022158 c 1.04749,-0.8713 1.83124,-1.53303 2.55878,-2.15069 0.1546,-0.0331 0.23149,-0.0772 0.29763,-0.0661 2.11812,0.35293 3.58477,-0.60667 4.91913,-2.1507 1.75353,-2.01842 3.7278,-3.86024 5.5144,-5.84551 0.35302,-0.39708 0.62915,-1.22424 0.44148,-1.6434 -0.22074,-0.4963 -0.95985,-1.04774 -1.48897,-1.06981 -3.5732,-0.0882 -7.15796,-0.0442 -10.86344,-0.0442 0.1761,1.10296 0.34145,2.10663 0.51837,3.25366 -0.33152,0.61766 -0.71762,1.33453 -1.1252,2.08456 -1.4559,0 -2.90105,0 -4.42309,0 -0.37452,-2.625 -0.74986,-5.22793 -1.13595,-7.97421 0.37534,0 0.69529,0 1.00367,0 7.01494,0.0993 14.02905,0.17651 21.05473,0.29779 0.80526,0.0111 1.6659,0.0883 2.41576,0.36402 2.28264,0.83823 2.79026,3.38593 1.06981,5.06241 -2.71338,2.65807 -5.44826,5.29398 -8.15089,7.97413 -1.32362,1.31246 -2.85641,1.95219 -4.71989,1.91904 -2.51496,-0.0331 -5.02992,-0.011 -7.88633,-0.011 z"
     id="path198"
     inkscape:connector-curvature="0"
     style="fill:#ffffff;stroke-width:0.826746" />
  <path
     d="m 6.1212258,55.062838 c 0.3529295,1.94112 1.0146899,3.81609 -0.7610195,5.33813 -1.3124755,0 -2.7242183,0 -4.2352285,0 C 0.7499874,57.764978 0.3860233,55.162048 0,52.470908 c 0.3308769,-0.022 0.6066082,-0.0551 0.8933649,-0.0551 7.0918006,0.0883 14.1835841,0.17651 21.2754091,0.29779 0.772015,0.0111 1.588179,0.0993 2.294054,0.36402 2.283059,0.84923 2.790432,3.37494 1.058813,5.06241 -2.713214,2.65807 -5.44842,5.29398 -8.150638,7.97413 -1.323455,1.31246 -2.856572,1.94111 -4.720471,1.91904 -2.51463,-0.0331 -5.0403618,-0.011 -7.8859051,-0.011 1.0367475,-0.8713 1.8198246,-1.53303 2.5587865,-2.15069 0.1433742,-0.0331 0.220584,-0.0661 0.2867568,-0.0551 2.1176513,0.35294 3.5844628,-0.59559 4.9300738,-2.15069 1.753611,-2.01834 3.716801,-3.86025 5.514643,-5.84551 0.352938,-0.39709 0.639653,-1.21317 0.452147,-1.63233 -0.20958,-0.49629 -0.948525,-1.06981 -1.477891,-1.08088 -3.562447,-0.0992 -7.1469675,-0.0441 -10.9079172,-0.0441 z"
     id="path200"
     inkscape:connector-curvature="0"
     style="fill:#ffffff;stroke-width:0.826746" />
  <path
     d="m 110.73598,61.173068 c 2.98869,2.27198 5.81203,4.42268 8.88917,6.76088 -2.7018,0 -5.08448,0 -7.62094,0 -1.80892,-1.38968 -3.76086,-2.87865 -5.74588,-4.40069 -2.52571,1.33454 -5.0076,2.68015 -7.533307,3.95954 -0.57376,0.28671 -1.257482,0.46322 -1.897383,0.4853 -2.051158,0.0551 -4.102313,0.0221 -6.264253,-0.19859 6.860336,-3.48523 13.731423,-6.98145 20.569433,-10.45569 0.38609,-1.52203 -0.23149,-2.30513 -1.90813,-2.32712 -3.55087,-0.0332 -7.09182,-0.0221 -10.642698,-0.0332 -0.44148,0 -0.882963,0 -1.500541,0 0.286879,-0.8933 0.529944,-1.65432 0.794501,-2.48156 0.816,0.0331 1.58818,0.0993 2.360358,0.0993 4.85217,0.0331 9.70517,0.0442 14.56892,0.0993 0.80525,0.011 1.64357,0.15436 2.405,0.40808 0.94828,0.31979 1.5766,1.05873 1.5766,2.09556 0.0116,1.03674 -0.33069,1.94111 -1.37818,2.47048 -2.20576,1.11396 -4.35695,2.29414 -6.67267,3.51838 z"
     id="path202"
     inkscape:connector-curvature="0"
     style="fill:#ffffff;stroke-width:0.826746" />
  <path
     d="m 55.015301,52.371698 c -0.253728,0.4853 -0.408081,0.81616 -0.595587,1.12495 -1.764689,3.01101 -3.507304,6.04401 -5.327137,9.03294 -0.408082,0.67281 -1.003669,1.27939 -1.643405,1.74262 -1.775685,1.29047 -3.48523,2.95586 -5.492486,3.57353 -2.018417,0.61757 -4.367615,0.16543 -6.56246,0.17642 -3.022004,0.0111 -6.055003,0 -9.077007,0 -0.352938,0 -0.716954,0 -1.389677,0 0.948525,-0.8713 1.665397,-1.53303 2.415338,-2.22791 3.17644,0 6.35288,-0.0661 9.518241,0.0221 2.371273,0.0662 3.97053,-1.26831 5.249919,-2.86757 1.68747,-2.11762 3.000012,-4.52196 4.555121,-6.74988 1.444821,-2.07356 3.286645,-3.60659 6.010938,-3.65066 0.716871,-0.0111 1.444821,-0.0993 2.338202,-0.17651 z"
     id="path204"
     inkscape:connector-curvature="0"
     style="fill:#ffffff;stroke-width:0.826746" />
  <path
     d="m 92.448367,62.904608 c -3.97086,0 -7.830936,0 -11.889927,0 0.716954,-1.29039 1.356607,-2.43742 2.007339,-3.58453 3.937459,0 7.80911,0 11.867605,0 -0.683719,1.24632 -1.323621,2.39335 -1.985017,3.58453 z"
     id="path206"
     inkscape:connector-curvature="0"
     style="fill:#ffffff;stroke-width:0.826746" />
  <path
     d="m 40.291539,55.724648 c -3.849163,0 -7.566047,0 -11.514503,0 0.871308,-1.11396 1.632326,-2.09555 2.393347,-3.06615 3.794102,0 7.521981,0 11.503506,0 -0.860312,1.11396 -1.610253,2.08455 -2.38235,3.06615 z"
     id="path208"
     inkscape:connector-curvature="0"
     style="fill:#ffffff;stroke-width:0.826746" />
  <path
     d="m 161.69246,55.724648 c -3.83858,0 -7.56638,0 -11.51491,0 0.87139,-1.11396 1.64357,-2.09555 2.39342,-3.05516 3.78319,0 7.52256,0 11.50335,0 -0.85982,1.10297 -1.62125,2.07356 -2.38186,3.05516 z"
     id="path210"
     inkscape:connector-curvature="0"
     style="fill:#ffffff;stroke-width:0.826746" />
  <path
     d="m 83.536874,52.084978 c 0.760607,0 1.38976,0 2.183436,0 -0.441482,1.40068 -0.860642,2.71322 -1.29055,4.06983 -0.706041,0 -1.367438,0 -2.172605,0 0.429825,-1.36769 0.848985,-2.68015 1.279719,-4.06983 z"
     id="path212"
     inkscape:connector-curvature="0"
     style="fill:#ffffff;stroke-width:0.826746" />
  <path
     d="m 79.114859,56.143728 c 0.441234,-1.38968 0.860312,-2.71313 1.279389,-4.02568 0.750024,0 1.389677,0 2.172771,0 -0.441153,1.38968 -0.849233,2.68015 -1.268311,4.02568 -0.69488,0 -1.378681,0 -2.183849,0 z"
     id="path214"
     inkscape:connector-curvature="0"
     style="fill:#ffffff;stroke-width:0.826746" />
  <path
     d="m 190.79061,15.02048 9.02971,-10.6491 h -13.32549 l -3.32434,5.3528 -4.66202,4.39457 h -14.17125 l -11.77534,7.25436 -3.24002,12.100338 c -0.71844,2.66319 1.63365,4.81736 5.23992,4.81736 h 22.94633 l 9.77544,0.23984 5.16964,-19.565928 c 0.43735,-1.60513 -0.25133,-3.04267 -1.66176,-3.92903 z m -15.5792,19.536498 -4.94477,0.11947 h -6.52137 c -0.8871,0 -1.47905,-0.5631 -1.31039,-1.19788 l 3.1838,-12.100408 5.88808,-3.62164 h 6.59247 c 0.87304,0 1.47905,0.50712 1.29551,1.19795 l -4.18333,15.606728 z m 242.69122,3.70556 -8.07152,-0.0424 5.49373,-20.495028 h -4.91666 c -4.47931,0 -8.94456,2.71917 -9.8176,6.0283 l -1.3104,4.817448 c -0.83005,3.3541 2.11317,6.07129 6.59248,6.07129 h 3.84602 l -4.8034,3.62147 h -8.15584 c -7.22659,0 -12.01593,-4.35265 -10.5931,-9.69152 l 1.35256,-4.817368 c 1.4931,-5.32449 8.49398,-9.64895 15.70569,-9.64895 h 13.0725 l 13.24034,-0.49117 -6.53626,24.453078 -5.09936,0.19974 z M 324.96318,6.7213 h -18.10077 c -1.78908,0 -3.74682,1.62114 -4.2966,3.67743 l -0.52085,1.90068 c -0.52002,2.05637 0.46546,3.67737 2.28264,3.67737 h 14.77643 c 4.49336,0 7.09927,4.15547 5.67644,9.324948 l -1.02765,3.66157 c -1.40877,5.15567 -6.29649,9.31106 -10.78986,9.31106 h -49.90733 l 6.45192,-5.56408 h 36.82078 c 1.80313,0 3.70465,-1.705 4.26766,-3.74532 l 0.50762,-1.8448 c 0.56302,-2.0562 -0.46546,-3.733258 -2.26859,-3.733258 h -14.78965 c -4.49337,0 -6.9579,-4.15555 -5.62022,-9.24045 l 1.02764,-3.74533 c 1.39555,-5.08487 6.22623,-9.24035 10.79069,-9.24035 h 17.93129 l 13.86122,-0.84623 -7.07116,6.40945 z m -81.78169,31.539338 h -8.19802 l 4.52148,-16.889588 11.77616,-7.26834 h 19.64927 c 5.4094,0 8.88835,3.25424 7.81771,7.26834 l -0.0314,0.0849 -5.81781,3.621478 h -8.21206 l 1.00036,-3.717378 c 0.59195,-2.04041 -1.2674,-3.6495 -3.9444,-3.6495 h -3.29541 l -5.88809,3.6495 -4.40903,16.692738 -4.97288,0.19958 z m -104.64866,0.003 h -8.21207 l 4.52148,-16.889588 c 0.54978,-2.0404 -1.25335,-3.6495 -3.92953,-3.6495 h -8.21206 l -3.88819,14.747328 -6.46515,5.78961 h -8.21289 l 6.62058,-24.707708 12.86086,0.55144 h 16.46629 c 5.4094,0 8.9024,3.25424 7.81771,7.26834 l -4.39415,16.692658 -4.97288,0.19974 z m 323.50232,0.002 h -8.22695 l 4.53636,-16.889578 c 0.54896,-2.04025 -1.25418,-3.64951 -3.93035,-3.64951 h -8.22612 l -3.87331,14.747238 -6.48003,5.78979 h -8.19801 l 6.60652,-24.707708 12.87492,0.55135 h 16.46629 c 5.42345,0 8.9024,3.25424 7.83176,7.26817 l -4.4082,16.692658 -4.97288,0.19966 z m -255.63724,-4.81786 1.15579,-4.39489 h 16.35386 l 11.77617,-7.254368 0.70439,-2.87484 c 0.71844,-2.66328 -1.63365,-4.81737 -5.23992,-4.81737 h -22.89011 l -11.77534,7.26826 -1.1128,4.155388 c -0.0422,0.11938 -0.0529,0.23975 -0.0851,0.35922 l -2.01396,7.55017 c -0.71844,2.64724 1.63365,4.81737 5.23992,4.81737 h 22.25682 l 5.88808,-3.62148 h -18.96058 c -0.87305,0 -1.47905,-0.55144 -1.29551,-1.19796 z m 3.15569,-12.072058 5.88808,-3.64942 h 8.69076 c 0.85898,0 1.47904,0.50705 1.29551,1.19779 l -0.78872,2.87493 -5.87403,3.621478 h -10.29712 l 1.08469,-4.042788 z M 89.763097,38.265848 H 66.802961 c -3.605935,0 -5.944302,-2.16814 -5.24008,-4.81745 L 64.802732,21.37634 76.578651,14.108 h 22.889612 c 3.606267,0 5.944307,2.15632 5.239917,4.81753 l -3.1838,12.085038 z m -1.35173,-7.2547 3.225135,-12.085038 C 91.832441,18.2352 91.228089,17.72824 90.340991,17.72824 H 83.74852 l -5.873946,3.6495 -3.18355,12.072148 c -0.167995,0.64651 0.42255,1.1977 1.296172,1.1977 h 6.521784 l 5.902387,-3.63338 z m 281.822753,7.25527 h -44.25818 l 5.52184,-20.664838 5.69049,-3.50573 8.05746,-0.53457 -5.66238,21.198918 h 3.1127 l 5.69049,-3.49383 3.66248,-13.663708 5.67644,-3.50582 8.07152,-0.53449 -4.74717,17.705508 -2.26777,3.49374 h 4.4512 l 5.73266,-3.49374 3.60626,-13.662638 5.69049,-3.50581 8.07152,-0.53565 -4.76123,17.706658 -11.33882,7.00105 z m -324.398177,0.005 H 0 L 7.4374299,4.92974 13.339543,0.56309 21.664376,0 14.086095,33.919478 h 3.239851 l 5.888084,-4.36663 5.507615,-24.622868 5.888,-4.36664 8.338971,-0.56307 -6.606443,29.552338 -2.338284,4.36654 h 4.606214 L 44.554322,29.552608 49.991499,4.92979 55.8795,0.56314 64.218471,3e-5 57.612028,29.552358 45.836192,38.271798"
     id="path216"
     inkscape:connector-curvature="0"
     style="fill:#ffffff;stroke-width:0.826746" />
  <path
     d="m 474.55208,28.936098 h 7.52587 v 1.41878 h -2.95562 v 8.19479 h -1.60554 v -8.19479 h -2.96471 z"
     id="path218"
     inkscape:connector-curvature="0"
     style="fill:#ffffff;stroke-width:0.826746" />
  <path
     d="m 483.22878,28.936098 h 2.3091 l 2.31571,7.69188 2.35458,-7.69188 h 2.32729 v 9.61357 h -1.527 v -7.94379 l -2.39013,7.94379 h -1.56916 l -2.34796,-7.94379 v 7.94379 h -1.47243 z"
     id="path220"
     inkscape:connector-curvature="0"
     style="fill:#ffffff;stroke-width:0.826746" />
</svg>
