<?xml version="1.0" encoding="UTF-8" standalone="no"?>
<svg
   xmlns:dc="http://purl.org/dc/elements/1.1/"
   xmlns:cc="http://creativecommons.org/ns#"
   xmlns:rdf="http://www.w3.org/1999/02/22-rdf-syntax-ns#"
   xmlns:svg="http://www.w3.org/2000/svg"
   xmlns="http://www.w3.org/2000/svg"
   xmlns:sodipodi="http://sodipodi.sourceforge.net/DTD/sodipodi-0.dtd"
   xmlns:inkscape="http://www.inkscape.org/namespaces/inkscape"
   width="500"
   height="200"
   viewBox="0 0 500 200"
   version="1.1"
   id="svg246"
   sodipodi:docname="wonderswancolor.svg"
   style="fill:none"
   inkscape:version="0.92.5 (2060ec1f9f, 2020-04-08)">
  <metadata
     id="metadata252">
    <rdf:RDF>
      <cc:Work
         rdf:about="">
        <dc:format>image/svg+xml</dc:format>
        <dc:type
           rdf:resource="http://purl.org/dc/dcmitype/StillImage" />
        <dc:title></dc:title>
      </cc:Work>
    </rdf:RDF>
  </metadata>
  <defs
     id="defs250" />
  <sodipodi:namedview
     pagecolor="#ffffff"
     bordercolor="#666666"
     borderopacity="1"
     objecttolerance="10"
     gridtolerance="10"
     guidetolerance="10"
     inkscape:pageopacity="0"
     inkscape:pageshadow="2"
     inkscape:window-width="1366"
     inkscape:window-height="740"
     id="namedview248"
     showgrid="false"
     inkscape:pagecheckerboard="true"
     inkscape:zoom="1.0035438"
     inkscape:cx="291"
     inkscape:cy="76.5"
     inkscape:window-x="0"
     inkscape:window-y="0"
     inkscape:window-maximized="1"
     inkscape:current-layer="svg246" />
  <path
     d="m 199.16364,62.679672 9.426,-11.116453 h -13.91029 l -3.47024,5.587721 -4.86662,4.587427 h -14.79317 l -12.29211,7.572728 -3.38221,12.63137 c -0.74997,2.780073 1.70535,5.02878 5.46988,5.02878 h 23.95335 l 10.20445,0.250364 5.39651,-20.424602 c 0.45655,-1.675569 -0.26236,-3.176203 -1.73468,-4.101455 z m -16.2629,20.393878 -5.16178,0.124707 h -6.80756 c -0.92603,0 -1.54396,-0.587808 -1.3679,-1.250441 l 3.32352,-12.631456 6.14649,-3.780582 h 6.88178 c 0.91136,0 1.54396,0.529381 1.35237,1.250528 l -4.36692,16.291645 z m 253.34197,3.868179 -8.42574,-0.04427 5.73482,-21.394473 h -5.13243 c -4.67589,0 -9.3371,2.8385 -10.24846,6.292857 l -1.3679,5.028867 c -0.86648,3.501306 2.2059,6.337735 6.88179,6.337735 h 4.0148 l -5.01419,3.780409 h -8.51378 c -7.54373,0 -12.54325,-4.543672 -11.05798,-10.11685 l 1.41192,-5.02878 c 1.55863,-5.558161 8.86675,-10.072404 16.39495,-10.072404 h 13.6462 l 13.8214,-0.512725 -6.8231,25.526221 -5.32316,0.208508 z M 339.22452,54.016274 h -18.89515 c -1.86759,0 -3.91124,1.692286 -4.48516,3.83881 l -0.5437,1.984103 c -0.54285,2.14661 0.48588,3.83875 2.38282,3.83875 h 15.4249 c 4.69056,0 7.41083,4.337839 5.92556,9.734183 l -1.07275,3.822266 c -1.4706,5.381931 -6.57282,9.719684 -11.26338,9.719684 h -52.09757 l 6.73507,-5.808267 h 38.4367 c 1.88226,0 3.86723,-1.779823 4.45495,-3.909691 l 0.5299,-1.925761 c 0.58772,-2.146438 -0.48589,-3.897091 -2.36815,-3.897091 h -15.43872 c -4.69056,0 -7.26324,-4.337926 -5.86686,-9.645982 l 1.07274,-3.909691 c 1.45679,-5.30803 6.49947,-9.645878 11.26425,-9.645878 h 18.71822 l 14.46953,-0.883358 -7.38148,6.690728 z m -85.37077,32.92347 h -8.55779 l 4.7199,-17.630806 12.29298,-7.587314 h 20.51159 c 5.6468,0 9.27842,3.397052 8.1608,7.587314 l -0.0328,0.08863 -6.07313,3.780409 h -8.57246 l 1.04427,-3.88052 c 0.61793,-2.129954 -1.32302,-3.809667 -4.11751,-3.809667 h -3.44003 l -6.14649,3.809667 -4.60253,17.425319 -5.19112,0.208335 z m -109.24127,0.0037 h -8.57246 l 4.71991,-17.630806 c 0.57391,-2.129954 -1.30836,-3.809666 -4.10198,-3.809666 h -8.57246 l -4.05882,15.394527 -6.74888,6.043701 h -8.57333 l 6.91113,-25.792034 13.42527,0.57564 h 17.18894 c 5.64679,0 9.29309,3.397052 8.16079,7.587314 l -4.58699,17.425233 -5.19112,0.208508 z m 337.69955,0.0024 h -8.588 l 4.73544,-17.630807 c 0.57305,-2.129781 -1.30921,-3.809666 -4.10284,-3.809666 h -8.58713 l -4.04329,15.394441 -6.76441,6.043874 h -8.55779 l 6.89646,-25.792034 13.43994,0.575554 h 17.18893 c 5.66147,0 9.29309,3.397052 8.17547,7.587141 l -4.60167,17.425233 -5.19111,0.208421 z m -266.85614,-5.029298 1.20652,-4.587773 h 17.07156 l 12.29298,-7.572728 0.7353,-3.001009 c 0.74997,-2.780159 -1.70535,-5.02878 -5.46988,-5.02878 h -23.89466 l -12.29212,7.587228 -1.16163,4.337753 c -0.044,0.124621 -0.0552,0.250278 -0.0889,0.374986 l -2.10234,7.88152 c -0.74997,2.763417 1.70534,5.02878 5.46987,5.02878 h 23.23359 l 6.14649,-3.780409 h -19.7927 c -0.91135,0 -1.54395,-0.57564 -1.35236,-1.250529 z m 3.29418,-12.601854 6.14649,-3.80958 h 9.07215 c 0.89669,0 1.54396,0.529296 1.35237,1.250356 l -0.82333,3.001095 -6.13182,3.780409 h -10.74901 l 1.13229,-4.220209 z M 93.702441,86.945181 H 69.734676 c -3.764184,0 -6.205174,-2.263292 -5.470046,-5.028866 l 3.382035,-12.601854 12.292717,-7.587314 h 23.894148 c 3.76453,0 6.20517,2.250951 5.46987,5.028953 l -3.32352,12.615403 z M 92.29139,79.372107 95.658063,66.756704 c 0.204538,-0.721233 -0.426336,-1.250442 -1.352365,-1.250442 H 87.42391 l -6.131731,3.809666 -3.323263,12.60194 c -0.175367,0.674889 0.441094,1.25027 1.353056,1.25027 h 6.807999 l 6.161419,-3.792837 z m 294.19083,7.573678 h -46.2005 l 5.76417,-21.571739 5.94023,-3.659585 8.41107,-0.558034 -5.91088,22.129255 h 3.2493 l 5.94022,-3.647158 3.82322,-14.263356 5.92555,-3.659671 8.42575,-0.557948 -4.95551,18.482529 -2.36729,3.647071 h 4.64655 l 5.98424,-3.647071 3.76453,-14.262234 5.94022,-3.659672 8.42575,-0.559156 -4.97018,18.483737 -11.83644,7.308297 z M 47.8475,86.95105 H 0 L 7.763829,52.146083 13.924963,47.587798 22.61514,47 14.704277,82.408069 h 3.382036 l 6.146488,-4.558257 5.749322,-25.70347 6.146402,-4.558281 8.704935,-0.58778 -6.896373,30.849272 -2.440903,4.55817 h 4.808362 l 6.205088,-4.55817 5.675792,-25.703418 6.146402,-4.558281 8.704935,-0.587816 -6.896373,30.849256 -12.292631,9.102101"
     id="path230"
     inkscape:connector-curvature="0"
     style="fill:#ffffff;stroke-width:0.86302835" />
  <path
     d="m 496.26892,85.532835 h -0.86303 V 79.85385 h 2.16534 c 1.34029,0 2.00395,0.496069 2.00395,1.613949 0,1.015785 -0.63691,1.456965 -1.47232,1.564239 l 1.61213,2.500797 h -0.95882 l -1.50167,-2.462478 h -0.98558 z m 1.0296,-3.191651 c 0.72839,0 1.37653,-0.0504 1.37653,-0.92508 0,-0.701038 -0.63692,-0.832564 -1.23241,-0.832564 h -1.17372 v 1.757644 z"
     id="path232"
     inkscape:connector-curvature="0"
     style="clip-rule:evenodd;fill:#ffffff;fill-rule:evenodd;stroke-width:0.86302835" />
  <path
     d="m 492.30849,82.678973 c 0,-2.825123 2.29392,-4.909682 5.00038,-4.909682 2.68661,0 4.97363,2.084559 4.97363,4.909682 0,2.853862 -2.28702,4.936522 -4.97363,4.936522 -2.70646,0 -5.00038,-2.08266 -5.00038,-4.936522 z m 4.99952,4.116041 c 2.23093,0 3.98201,-1.74487 3.98201,-4.116041 0,-2.329054 -1.75108,-4.090582 -3.98201,-4.090582 -2.24992,0 -4.00791,1.761528 -4.00791,4.090582 0,2.371171 1.75799,4.116041 4.00791,4.116041 z"
     id="path234"
     inkscape:connector-curvature="0"
     style="clip-rule:evenodd;fill:#ffffff;fill-rule:evenodd;stroke-width:0.86302835" />
  <path
     d="M 31.617993,167.79931 C 24.194655,167.66813 14.928751,165.95675 7.4790987,158.92824 0.42433033,152.29501 -0.99715159,143.8451 0.58227229,134.86874 3.714802,117.15267 16.587146,108.72899 32.065473,103.38529 c 9.265991,-3.2115 18.979461,-3.448398 28.719254,-2.52703 4.317127,0.42116 8.66049,0.76335 12.924972,1.57934 0.658059,0.1317 0.658059,0.31596 0.526447,0.81608 -1.895297,7.02842 -3.132534,14.24118 -5.633245,21.08525 -0.579092,1.6061 -1.658395,2.89546 -3.027245,3.86982 -1.342527,0.94761 -2.842988,0.73703 -4.238159,0.0259 -1.605751,-0.81556 -1.868975,-2.34226 -1.895297,-3.89571 -0.07897,-3.44832 0,-6.92304 -1.71104,-10.10822 -2.26381,-4.18551 -8.10772,-5.92288 -13.68832,-4.0539 -12.924972,4.34345 -23.902002,22.00705 -22.006705,35.43145 1.579428,11.2142 12.793359,16.6366 23.586133,11.50417 4.317041,-2.05314 8.265654,-4.5542 11.950958,-7.55495 2.632409,-2.13254 6.344035,-1.92196 8.081397,0.31587 1.763685,2.28962 0.974014,5.63299 -1.868974,7.76553 -9.055411,6.87057 -18.610947,10.10779 -32.167656,10.16043 z"
     id="path236"
     inkscape:connector-curvature="0"
     style="fill:#ffffff;stroke-width:0.86302835" />
  <path
     d="m 115.30145,142.87074 c 0.0268,-6.65999 -1.86932,-10.10779 -6.26472,-11.42391 -0.0526,0 -0.0794,-0.0268 -0.13204,-0.0268 -1.02615,-0.21058 -2.07904,-0.39441 -3.10604,-0.60498 0.57909,-1.31699 1.92196,-1.73814 3.00075,-2.39577 6.73938,-4.001 13.81967,-5.18594 21.32197,-2.39577 3.34338,1.26348 6.18619,7.42377 6.13355,12.68825 -0.13118,10.87156 -6.21208,18.03211 -14.76728,23.45452 -9.18694,5.84356 -19.34823,8.34462 -30.219802,7.13379 -7.160029,-0.78967 -13.477741,-3.68513 -17.373624,-10.00336 -4.606673,-7.50231 -3.053567,-15.08315 1.342441,-22.05901 4.896305,-7.76553 11.529627,-13.55679 20.795962,-15.66275 1.684632,-0.39484 3.369263,-0.39484 5.028003,0.0526 2.974,0.78976 3.21133,3.21185 0.94761,6.18584 -4.554205,6.02826 -9.081652,12.18855 -9.687498,20.08526 -0.368513,4.92272 0.315869,9.79278 5.159184,12.58296 5.291224,3.0275 12.241194,-0.18469 15.320484,-6.71264 1.71138,-3.47455 2.58045,-7.08115 2.50105,-10.89832 z"
     id="path238"
     inkscape:connector-curvature="0"
     style="fill:#ffffff;stroke-width:0.86302835" />
  <path
     d="m 249.6836,167.74667 c -3.44866,0.0267 -6.60735,0.39527 -9.05576,-2.23697 -3.13279,-3.39602 -1.34287,-7.00261 -0.49969,-10.50306 1.78992,-7.47641 3.65837,-14.95196 5.73827,-22.37573 1.15819,-4.10629 4.29098,-6.65999 8.31787,-7.76553 3.23808,-0.9212 6.5547,-0.84223 9.08165,1.97461 2.44841,2.71077 0.15793,5.31711 -0.26323,7.97611 -0.13118,0.89496 -0.52644,1.73727 -0.76291,2.63223 -0.23734,0.81556 -0.39527,1.65874 -0.60585,2.50106 0.65849,-0.65849 1.36876,-1.29023 1.97461,-1.97461 8.31873,-9.45016 18.26858,-15.55738 31.35123,-15.1099 0.71114,0.0263 1.23758,0.13161 1.00111,1.02666 -1.92196,7.23942 -3.76453,14.5044 -5.76503,21.71672 -0.5532,2.02726 -1.86932,3.65924 -4.21244,3.73864 -2.34226,0.0785 -3.15868,-1.71138 -3.94835,-3.55395 -1.81581,-4.26422 -5.76503,-5.47505 -9.79192,-3.00075 -8.89782,5.5277 -13.97847,13.95172 -17.53242,23.48042 -0.63692,1.70965 -3.21565,1.47405 -5.02714,1.47405 z"
     id="path240"
     inkscape:connector-curvature="0"
     style="fill:#ffffff;stroke-width:0.86302835" />
  <path
     d="m 172.95002,153.68966 c 1.18494,2.50106 2.66935,4.85195 3.88018,7.35214 -6.37002,3.73864 -13.17241,7.15278 -20.88529,6.70487 -11.71388,-0.68438 -17.92596,-8.13404 -15.55695,-19.6106 2.81692,-13.68849 7.26497,-26.95591 11.42477,-40.30204 1.39465,-4.44874 5.13329,-6.92313 9.79192,-7.58127 5.34387,-0.737028 8.6346,3.52737 7.16055,9.21334 -3.21133,12.42485 -6.50206,24.82355 -9.6875,37.2477 -0.68438,2.6331 -0.9476,5.34388 -0.65763,8.0814 0.36852,3.84393 3.13193,5.52856 6.71178,4.0804 2.92221,-1.18408 5.31798,-3.23722 7.81817,-5.18594 z"
     id="path242"
     inkscape:connector-curvature="0"
     style="fill:#ffffff;stroke-width:0.86302835" />
  <path
     d="m 236.5742,132.13121 -0.0259,-0.0794 c -0.73703,-1.76403 -1.39552,-3.71189 -3.02751,-4.73803 -5.97561,-3.76453 -12.21444,-3.15903 -18.50592,-0.71114 -0.15793,-0.0259 -0.34175,0.11824 -1.26347,0.5791 -2.36901,1.18493 -3.31662,1.60609 -5.36976,2.79017 -0.31587,0.18469 -0.55234,0.5532 -0.81556,0.84231 0.36851,0.0794 0.71027,0.1588 1.07878,0.23734 5.42241,0.92171 7.44966,2.92221 8.29198,8.23933 0.84231,5.23858 0.10529,10.21394 -2.34312,14.97785 -3.4478,6.73939 -11.47655,10.66186 -17.79478,4.81743 -0.10529,-0.0785 -0.18383,-0.23647 -0.28912,-0.31587 -0.65849,-1.18407 -1.97461,-3.94835 -2.57959,-6.34412 -1.027,-5.58034 1.13143,-10.63424 3.26397,-15.45166 1.4473,-3.29073 4.10629,-6.05501 6.31737,-9.00311 1.027,-1.36877 2.0799,-2.71077 1.39552,-4.44848 -0.60585,-1.57943 -2.15844,-1.63208 -3.63249,-1.81633 -2.52781,-0.31587 -4.81742,0.3686 -7.13379,1.10562 -4.81743,2.0005 -7.75172,3.96044 -11.43685,7.61968 l -3.09396,3.48922 c -4.0804,4.65863 -6.29148,10.05515 -6.52881,16.26809 -0.0526,1.18407 -0.13118,2.34226 -0.18382,3.5272 1.18407,2.50105 2.52608,4.7596 3.73691,7.26065 0.19591,0.23906 0.36937,0.39959 0.52731,0.58341 2.81692,2.94897 6.21294,5.05476 10.00336,6.42352 6.18619,2.21108 12.5562,1.73728 18.92621,0.86821 0.0268,-0.0526 0.0794,-0.10529 0.13205,-0.15794 -0.0268,0.0268 -0.0457,0.0526 -0.0656,0.0794 -0.0198,0.0259 -0.0397,0.0526 -0.0665,0.0785 0.79054,-0.23647 1.21169,-0.22007 2.00136,-0.45654 0.23734,0 1.21083,-0.33313 1.4473,-0.33313 3.6066,-0.89496 6.97586,-2.36902 10.34512,-3.9216 4.65949,-2.55371 10.39777,-7.23909 13.63585,-11.47742 4.13304,-5.39651 5.76503,-15.63635 3.0534,-20.53231 z"
     id="path244"
     inkscape:connector-curvature="0"
     style="fill:#ffffff;stroke-width:0.86302835" />
</svg>
