<?xml version="1.0" encoding="UTF-8" standalone="no"?>
<svg
   xmlns:dc="http://purl.org/dc/elements/1.1/"
   xmlns:cc="http://creativecommons.org/ns#"
   xmlns:rdf="http://www.w3.org/1999/02/22-rdf-syntax-ns#"
   xmlns:svg="http://www.w3.org/2000/svg"
   xmlns="http://www.w3.org/2000/svg"
   xmlns:sodipodi="http://sodipodi.sourceforge.net/DTD/sodipodi-0.dtd"
   xmlns:inkscape="http://www.inkscape.org/namespaces/inkscape"
   width="492.89191"
   height="139.98961"
   viewBox="0 0 492.89191 139.98961"
   version="1.1"
   id="svg334"
   sodipodi:docname="zxspectrum.svg"
   style="fill:none"
   inkscape:version="1.0.1 (1.0.1+r73)">
  <metadata
     id="metadata340">
    <rdf:RDF>
      <cc:Work
         rdf:about="">
        <dc:format>image/svg+xml</dc:format>
        <dc:type
           rdf:resource="http://purl.org/dc/dcmitype/StillImage" />
        <dc:title />
      </cc:Work>
    </rdf:RDF>
  </metadata>
  <defs
     id="defs338" />
  <sodipodi:namedview
     pagecolor="#ffffff"
     bordercolor="#666666"
     borderopacity="1"
     objecttolerance="10"
     gridtolerance="10"
     guidetolerance="10"
     inkscape:pageopacity="0"
     inkscape:pageshadow="2"
     inkscape:window-width="1366"
     inkscape:window-height="740"
     id="namedview336"
     showgrid="false"
     inkscape:pagecheckerboard="true"
     inkscape:zoom="1.1716441"
     inkscape:cx="236.68673"
     inkscape:cy="35.232757"
     inkscape:window-x="0"
     inkscape:window-y="0"
     inkscape:window-maximized="1"
     inkscape:current-layer="svg334"
     inkscape:document-rotation="0" />
  <path
     d="M 82.801796,0 H 69.981833 v 11.057071 h 12.819963 z"
     id="path294"
     inkscape:connector-curvature="0"
     style="fill:#ffffff;stroke-width:1.03767" />
  <path
     d="M 66.918431,28.493304 H 12.749091 V 24.098887 H 66.856068 V 13.041817 H 0.017578 L 0,38.983393 h 54.097949 v 4.252671 H 2e-8 V 54.576625 H 66.918431 Z"
     id="path296"
     inkscape:connector-curvature="0"
     style="fill:#ffffff;stroke-width:1.03767" />
  <path
     d="m 236.61095,1.370551 h -12.81934 v 53.30071 h 12.81934 z"
     id="path298"
     inkscape:connector-curvature="0"
     style="fill:#ffffff;stroke-width:1.03767" />
  <path
     d="m 320.81453,13.175261 h -12.81934 v 41.402195 h 12.81934 z"
     id="path300"
     inkscape:connector-curvature="0"
     style="fill:#ffffff;stroke-width:1.03767" />
  <path
     d="M 82.801796,13.175261 H 69.981833 v 41.402195 h 12.819963 z"
     id="path302"
     inkscape:connector-curvature="0"
     style="fill:#ffffff;stroke-width:1.03767" />
  <path
     d="M 152.05041,13.175261 H 85.645938 V 54.624566 H 98.465901 V 24.232331 h 40.764129 v 30.345125 h 12.82038 z"
     id="path304"
     inkscape:connector-curvature="0"
     style="fill:#ffffff;stroke-width:1.03767" />
  <path
     d="M 221.06358,54.577456 V 43.236895 h -53.4191 V 24.232331 h 53.4191 l 0.0176,-11.05707 h -66.25605 v 41.402195 z"
     id="path306"
     inkscape:connector-curvature="0"
     style="fill:#ffffff;stroke-width:1.03767" />
  <path
     d="M 305.28999,54.577456 V 13.175261 h -65.8929 v 11.05707 h 53.07356 v 4.292933 H 239.39709 V 54.577456 Z M 292.47065,43.236895 h -40.25318 v -4.252776 h 40.25318 z"
     id="path308"
     inkscape:connector-curvature="0"
     style="fill:#ffffff;stroke-width:1.03767" />
  <path
     d="m 320.81453,0 h -12.81934 v 11.00996 h 12.81934 z"
     id="path310"
     inkscape:connector-curvature="0"
     style="fill:#ffffff;stroke-width:1.03767" />
  <path
     d="m 324.01366,13.175261 v 41.402195 h 12.82038 V 24.241462 h 51.97779 V 13.175261 Z"
     id="path312"
     inkscape:connector-curvature="0"
     style="fill:#ffffff;stroke-width:1.03767" />
  <path
     d="M 2e-8,126.55701 H 47.846938 v -12.3773 H 17.848291 L 46.828157,82.520687 V 71.389117 H 1.6980386 v 12.33911 H 28.300713 L 2e-8,114.82099 Z"
     id="path314"
     inkscape:connector-curvature="0"
     style="fill:#ffffff;stroke-width:1.03767" />
  <path
     d="M 48.319388,126.55701 H 64.84704 l 11.282556,-18.37709 10.339108,18.37709 H 103.94001 L 84.468808,97.576727 102.3171,71.389117 H 85.940428 l -9.810832,17.13137 -9.28266,-17.13137 H 49.941989 l 17.999271,26.18761 z"
     id="path316"
     inkscape:connector-curvature="0"
     style="fill:#ffffff;stroke-width:1.03767" />
  <path
     d="m 127.94022,108.02946 c 0.30196,6.94303 2.755,11.98609 7.35809,15.13126 4.52838,3.04348 10.06226,4.56574 16.60268,4.56574 6.34015,0.0498 11.87402,-1.29605 16.60371,-4.03756 4.85525,-2.76746 7.3332,-7.58431 7.43385,-14.45263 0,-2.51531 -0.44101,-4.65394 -1.32095,-6.41455 -0.93079,-1.73581 -2.13863,-3.219993 -3.6225,-4.452633 -3.19497,-2.38985 -6.88077,-4.07533 -11.05634,-5.05634 -0.9806,-0.30186 -1.93733,-0.57861 -2.86811,-0.83024 -1.03144,-0.25153 -2.01204,-0.49051 -2.94283,-0.71693 -1.83667,-0.45283 -3.56023,-0.90557 -5.16966,-1.35841 -1.48386,-0.52827 -2.6668,-1.11943 -3.54674,-1.77347 -0.98164,-0.72959 -1.47245,-1.58483 -1.47245,-2.56595 0.0508,-1.81125 0.84362,-3.06911 2.37729,-3.77347 1.40916,-0.62883 2.93141,-0.94335 4.56678,-0.94335 2.38974,0 4.47753,0.4654 6.26336,1.39618 1.81176,0.98112 2.69171,2.72948 2.6419,5.2451 h 14.37584 c -0.0498,-3.19487 -0.66618,-5.89914 -1.84809,-8.1129 -1.25869,-2.26408 -2.94386,-4.08789 -5.05655,-5.47141 -4.42773,-2.79236 -9.49673,-4.18854 -15.20701,-4.18854 -5.45917,0 -10.47733,1.25786 -15.05655,3.77347 -2.21335,1.30809 -3.99917,3.0439 -5.35748,5.20733 -1.38425,2.16343 -2.07533,4.75449 -2.07533,7.77316 0.10065,4.90547 1.82318,8.51541 5.16965,10.82972 3.19394,2.364743 6.85483,4.062783 10.9806,5.094123 4.17557,0.98163 7.83542,1.96223 10.98059,2.94282 1.48387,0.52921 2.66577,1.1954 3.54675,2.00062 0.87994,0.83014 1.32095,1.86158 1.32095,3.09433 -0.0508,1.96223 -0.95673,3.40874 -2.71765,4.33952 -0.83013,0.45243 -1.74743,0.76684 -2.75397,0.94324 -1.08229,0.25112 -2.20089,0.37668 -3.35893,0.37668 -3.01857,0.0508 -5.45813,-0.59044 -7.3197,-1.92384 -1.86158,-1.25765 -2.89302,-3.47203 -3.09433,-6.64107 z"
     id="path318"
     inkscape:connector-curvature="0"
     style="fill:#ffffff;stroke-width:1.03767" />
  <path
     d="m 202.07012,95.350307 c 1.48387,0 2.71662,0.30196 3.69721,0.90567 0.98163,0.62893 1.77337,1.45907 2.3773,2.49041 1.13209,2.213753 1.69866,4.653933 1.69866,7.320843 0,2.84217 -0.56657,5.44568 -1.69866,7.81052 -0.60393,1.08229 -1.39567,1.98714 -2.3773,2.71662 -1.08125,0.70457 -2.3389,1.05738 -3.77296,1.05738 -2.89301,0 -4.9559,-1.08229 -6.18864,-3.24582 -1.18191,-2.03695 -1.77338,-4.81686 -1.77338,-8.3387 0,-2.11373 0.27706,-3.86178 0.83014,-5.24541 0.47836,-1.383623 1.09474,-2.465293 1.84912,-3.245093 0.83013,-0.83024 1.71007,-1.4214 2.64086,-1.77358 0.93079,-0.30186 1.83667,-0.45284 2.71765,-0.45284 z m -20.71599,44.639303 h 13.13065 v -17.77213 h 0.15149 c 2.66681,3.67231 6.47712,5.50898 11.43302,5.50898 5.71028,-0.10065 9.96264,-2.18844 12.75397,-6.2644 2.79236,-4.02511 4.18906,-8.7164 4.18906,-14.07492 0,-2.89301 -0.31441,-5.64708 -0.94324,-8.263353 -0.30196,-1.3333 -0.74193,-2.59106 -1.32095,-3.77348 -0.50327,-1.18232 -1.14454,-2.26398 -1.92487,-3.2451 -2.89198,-4.42752 -7.48366,-6.70416 -13.77296,-6.82992 -4.72865,0.0503 -8.40199,1.98734 -11.01795,5.81114 h -0.18885 v -4.64138 h -12.48937 z"
     id="path320"
     inkscape:connector-curvature="0"
     style="fill:#ffffff;stroke-width:1.03767" />
  <path
     d="m 240.46485,102.36888 c 0.40261,-2.515613 1.34585,-4.528073 2.83075,-6.037463 1.45896,-1.43385 3.34544,-2.15087 5.65944,-2.15087 2.26419,0.0503 4.11331,0.84279 5.54737,2.37729 1.40811,1.55972 2.16353,3.496733 2.26419,5.811043 z m 29.43343,7.3582 c 0.30092,-6.96824 -1.29605,-12.741623 -4.79299,-17.320013 -3.54674,-4.62872 -8.93016,-7.00602 -16.15025,-7.13178 -6.03715,0.0503 -11.10615,2.01255 -15.20701,5.88658 -4.22538,3.87403 -6.36402,8.955593 -6.41486,15.244683 0.0508,6.74172 2.07533,11.96119 6.07554,15.65943 3.97427,3.72315 9.25703,5.60963 15.84829,5.66048 4.57819,0 8.7548,-1.05635 12.52776,-3.17007 3.6474,-2.16354 6.11289,-5.54634 7.39649,-10.15046 h -12.26419 c -0.67863,1.45896 -1.68517,2.54124 -3.01857,3.24582 -1.33341,0.77929 -2.82972,1.16945 -4.48999,1.16945 -2.76746,0 -4.90609,-0.84259 -6.41486,-2.5288 -1.53471,-1.66026 -2.37729,-3.8487 -2.52879,-6.56532 z"
     id="path322"
     inkscape:connector-curvature="0"
     style="fill:#ffffff;stroke-width:1.03767" />
  <path
     d="m 314.59475,101.12368 c -0.57901,-5.307983 -2.71661,-9.270003 -6.41485,-11.886273 -3.77296,-2.64138 -8.22559,-3.96212 -13.35789,-3.96212 -6.49061,0.0503 -11.59697,2.08799 -15.32012,6.113 -3.74806,3.97468 -5.64803,9.232333 -5.69783,15.772643 0.0498,6.18865 2.05043,11.1321 5.99979,14.8293 3.87361,3.774 8.88035,5.68538 15.01816,5.73623 5.45916,-0.0508 10.01245,-1.54716 13.65985,-4.49102 3.6474,-2.94283 5.81093,-7.0935 6.4906,-12.45201 h -12.755 c -0.50223,4.52838 -3.00612,6.81747 -7.50856,6.86832 -1.38321,0 -2.54125,-0.3279 -3.47203,-0.98164 -1.03145,-0.57901 -1.84913,-1.38321 -2.45201,-2.41465 -1.23275,-2.06288 -1.84913,-4.42772 -1.84913,-7.09453 0,-1.43405 0.10066,-2.85462 0.30197,-4.26377 0.2013,-1.43385 0.61637,-2.69171 1.2452,-3.773373 0.60392,-1.18232 1.47141,-2.11311 2.6035,-2.79237 1.1321,-0.65404 2.57861,-0.98111 4.33953,-0.98111 1.76092,0 3.25724,0.51572 4.48998,1.54716 1.23275,1.08166 1.87403,2.4904 1.92488,4.226213 z"
     id="path324"
     inkscape:connector-curvature="0"
     style="fill:#ffffff;stroke-width:1.03767" />
  <path
     d="m 344.95275,86.445047 h -8.11249 v -12.11269 h -13.13168 v 12.11269 h -6.67946 v 8.49019 h 6.67946 v 17.848813 c -0.0757,5.30767 0.8924,9.01837 2.90547,11.13106 1.96223,2.01203 5.67293,3.01857 11.13106,3.01857 2.44059,-0.0498 4.84279,-0.17536 7.20764,-0.37667 v -9.66068 c -1.18295,0.10065 -2.314,0.1515 -3.39629,0.1515 -1.40811,0 -2.5537,-0.27706 -3.43364,-0.83014 -0.85504,-0.52817 -1.28256,-1.53471 -1.28256,-3.01857 V 94.935237 h 8.11249 z"
     id="path326"
     inkscape:connector-curvature="0"
     style="fill:#ffffff;stroke-width:1.03767" />
  <path
     d="m 350.55719,126.55701 h 13.13167 v -19.8485 c 0,-2.6419 0.85504,-4.88046 2.56512,-6.716823 1.63536,-1.81125 4.07595,-2.74204 7.32074,-2.79236 1.71111,0 3.38383,0.25153 5.0192,0.75469 v -11.96171 c -1.03144,-0.2013 -2.06289,-0.30196 -3.09433,-0.30196 -5.86178,0.0503 -9.87444,2.65404 -12.03797,7.81104 h -0.15047 v -7.05634 h -12.75396 z"
     id="path328"
     inkscape:connector-curvature="0"
     style="fill:#ffffff;stroke-width:1.03767" />
  <path
     d="m 422.08255,86.445047 h -13.13168 v 21.471303 c 0,1.76093 -0.22621,3.2064 -0.67863,4.33849 -0.47837,1.1321 -1.0688,2.06288 -1.77338,2.79236 -0.72948,0.65477 -1.4849,1.11965 -2.26419,1.3967 -0.85504,0.30196 -1.67272,0.45243 -2.45304,0.45243 -2.11269,0.0508 -3.7107,-0.48978 -4.79195,-1.62188 -1.13209,-1.13209 -1.69762,-2.98122 -1.69762,-5.54737 V 86.445047 h -13.13168 v 24.112173 c -0.0509,5.30767 1.0055,9.45833 3.16903,12.452 2.16354,3.09433 6.05064,4.66639 11.66027,4.71724 2.41465,-0.0508 4.72969,-0.66722 6.94303,-1.84912 2.21335,-1.20785 3.96181,-2.80482 5.24541,-4.79195 h 0.18782 v 5.47162 h 12.71661 z"
     id="path330"
     inkscape:connector-curvature="0"
     style="fill:#ffffff;stroke-width:1.03767" />
  <path
     d="m 430.14003,126.55701 h 13.13168 v -19.54654 c 0,-4.07554 0.54063,-6.93079 1.62188,-8.565943 1.08228,-1.60994 2.77991,-2.38975 5.09494,-2.33953 1.76092,0 3.04348,0.6667 3.84871,2 0.72948,1.35841 1.0937,3.245103 1.0937,5.660063 v 22.79195 h 13.13168 v -19.62229 c -0.0498,-3.29542 0.28951,-5.92425 1.01899,-7.886373 0.78032,-1.91191 2.50285,-2.89302 5.16966,-2.94335 3.59759,0.0503 5.42077,2.33953 5.47162,6.867703 v 23.58431 h 13.16903 V 102.5953 c 0,-1.96212 -0.13801,-3.974683 -0.41507,-6.037463 -0.25111,-1.93701 -0.86749,-3.78603 -1.84912,-5.54695 -0.93079,-1.76092 -2.3389,-3.1571 -4.22642,-4.18844 -1.91138,-1.03144 -4.46508,-1.54716 -7.66006,-1.54716 -5.30766,0.0503 -9.48324,2.21376 -12.52775,6.49029 -1.08125,-2.41496 -2.65332,-4.113 -4.7162,-5.09411 -2.06288,-0.93079 -4.37792,-1.39618 -6.94303,-1.39618 -5.05655,0.12576 -8.89281,2.35218 -11.50877,6.67894 h -0.1515 v -5.50918 h -12.75397 z"
     id="path332"
     inkscape:connector-curvature="0"
     style="fill:#ffffff;stroke-width:1.03767" />
</svg>
