<?xml version="1.0" encoding="UTF-8" standalone="no"?>
<!-- Created with Inkscape (http://www.inkscape.org/) -->

<svg
   xmlns:dc="http://purl.org/dc/elements/1.1/"
   xmlns:cc="http://creativecommons.org/ns#"
   xmlns:rdf="http://www.w3.org/1999/02/22-rdf-syntax-ns#"
   xmlns:svg="http://www.w3.org/2000/svg"
   xmlns="http://www.w3.org/2000/svg"
   xmlns:sodipodi="http://sodipodi.sourceforge.net/DTD/sodipodi-0.dtd"
   xmlns:inkscape="http://www.inkscape.org/namespaces/inkscape"
   width="150"
   height="150"
   viewBox="0 0 39.687499 39.687501"
   version="1.1"
   id="svg8"
   sodipodi:docname="b.svg"
   inkscape:version="0.92.5 (2060ec1f9f, 2020-04-08)">
  <defs
     id="defs2" />
  <sodipodi:namedview
     id="base"
     pagecolor="#ffffff"
     bordercolor="#666666"
     borderopacity="1.0"
     inkscape:pageopacity="0.0"
     inkscape:pageshadow="2"
     inkscape:zoom="3.2075928"
     inkscape:cx="100.16278"
     inkscape:cy="59.66628"
     inkscape:document-units="mm"
     inkscape:current-layer="layer1"
     showgrid="false"
     units="px"
     inkscape:pagecheckerboard="true"
     inkscape:window-width="1366"
     inkscape:window-height="743"
     inkscape:window-x="0"
     inkscape:window-y="0"
     inkscape:window-maximized="1" />
  <metadata
     id="metadata5">
    <rdf:RDF>
      <cc:Work
         rdf:about="">
        <dc:format>image/svg+xml</dc:format>
        <dc:type
           rdf:resource="http://purl.org/dc/dcmitype/StillImage" />
        <dc:title />
      </cc:Work>
    </rdf:RDF>
  </metadata>
  <g
     inkscape:label="Layer 1"
     inkscape:groupmode="layer"
     id="layer1"
     transform="translate(0,-257.31248)">
    <ellipse
       style="opacity:0.98000004;fill:#837f7c;fill-opacity:0.58095242;stroke:#ffffff;stroke-width:1.29981375;stroke-linecap:round;stroke-linejoin:round;stroke-miterlimit:4;stroke-dasharray:none;stroke-opacity:1"
       id="path10"
       cx="19.908587"
       cy="277.00314"
       rx="19.226885"
       ry="19.138601" />
    <g
       aria-label="B"
       transform="matrix(1.083435,0,0,1.0490144,55.515179,228.29646)"
       style="font-style:normal;font-weight:normal;font-size:40px;line-height:125%;font-family:sans-serif;letter-spacing:0px;word-spacing:0px;fill:#000000;fill-opacity:1;stroke:none;stroke-width:1px;stroke-linecap:butt;stroke-linejoin:miter;stroke-opacity:1"
       id="flowRoot817">
      <path
         d="m -33.263672,47.871094 h -1.230469 q -0.3125,0 -0.566406,0.214843 -0.253906,0.214844 -0.253906,0.546875 v 6.09375 q 0,0.292969 0.234375,0.488282 0.234375,0.214843 0.605469,0.214843 0.371093,0 1.992187,0.01953 1.601563,0.01953 3.046875,-0.742188 1.445313,-0.761719 1.445313,-3.046875 0,-2.285156 -1.464844,-3.027344 -1.464844,-0.761718 -3.808594,-0.761718 z m -2.050781,-8.75 v 5.097656 q 0,0.292969 0.214844,0.488281 0.214843,0.195313 0.585937,0.214844 h 1.035156 q 2.167969,0 3.300782,-0.703125 1.132812,-0.722656 1.113281,-2.5 -0.05859,-3.339844 -3.886719,-3.359375 -0.9375,0 -1.640625,0.03906 -0.722656,0.03906 -0.722656,0.722657 z m 9.0625,6.757812 q 0,0.488281 0.253906,0.566406 4.179688,1.269532 4.160156,5.546875 0,3.027344 -2.675781,5 -2.675781,1.972657 -10.214844,1.992188 -0.195312,0 -3.710937,0.136719 -1.035156,0.03906 -1.855469,-0.664063 -0.820312,-0.722656 -0.820312,-1.835937 V 37.109375 q 0,-1.054688 0.761718,-1.757813 0.761719,-0.703125 1.777344,-0.703125 2.070313,0.05859 5.058594,0.09766 5.332031,0.05859 7.734375,1.328125 3.105469,1.503906 3.105469,4.707031 0,3.203125 -3.359375,4.726562 -0.214844,0.117188 -0.214844,0.371094 z"
         style="font-style:normal;font-variant:normal;font-weight:normal;font-stretch:normal;font-family:Dyuthi;-inkscape-font-specification:Dyuthi;fill:#ffffff"
         id="path888"
         inkscape:connector-curvature="0" />
    </g>
  </g>
</svg>
