<?xml version="1.0" encoding="UTF-8" standalone="no"?>
<!-- Created with Inkscape (http://www.inkscape.org/) -->

<svg
   width="500"
   height="200"
   viewBox="0 0 132.29167 52.916666"
   version="1.1"
   id="svg5"
   xml:space="preserve"
   sodipodi:docname="apfm1000-mono.svg"
   inkscape:version="1.2.2 (b0a8486541, 2022-12-01)"
   xmlns:inkscape="http://www.inkscape.org/namespaces/inkscape"
   xmlns:sodipodi="http://sodipodi.sourceforge.net/DTD/sodipodi-0.dtd"
   xmlns="http://www.w3.org/2000/svg"
   xmlns:svg="http://www.w3.org/2000/svg"><sodipodi:namedview
     id="namedview7"
     pagecolor="#505050"
     bordercolor="#ffffff"
     borderopacity="1"
     inkscape:showpageshadow="0"
     inkscape:pageopacity="0"
     inkscape:pagecheckerboard="1"
     inkscape:deskcolor="#505050"
     inkscape:document-units="mm"
     showgrid="false"
     inkscape:zoom="0.92725428"
     inkscape:cx="292.26072"
     inkscape:cy="191.42538"
     inkscape:window-width="1670"
     inkscape:window-height="910"
     inkscape:window-x="0"
     inkscape:window-y="0"
     inkscape:window-maximized="1"
     inkscape:current-layer="layer1" /><defs
     id="defs2" /><g
     inkscape:label="Layer 1"
     inkscape:groupmode="layer"
     id="layer1"><g
       id="g2234"
       transform="matrix(0.50988029,0,0,0.50988029,29.517869,40.637709)"
       style="fill:#ffffff"><path
         style="fill:#ffffff;stroke-width:0.117805"
         d="m 71.930387,-52.771467 c 0.06846,-0.06846 0.194004,-0.101287 0.278993,-0.07296 0.08823,0.02941 0.03483,0.08281 -0.124467,0.124466 -0.19595,0.05124 -0.241945,0.03591 -0.154526,-0.05151 z M 49.07548,-62.494924 c 0.146538,-0.02818 0.358587,-0.02711 0.471218,0.0024 0.112632,0.02949 -0.0073,0.05254 -0.266434,0.05123 -0.25917,-0.0013 -0.351323,-0.02543 -0.204784,-0.05361 z m 59.14458,-0.177967 c 0.0628,-0.06282 0.21263,-0.09337 0.3329,-0.06787 0.16196,0.03433 0.13233,0.06395 -0.11423,0.114223 -0.21497,0.04383 -0.29243,0.02741 -0.21867,-0.04635 z"
         id="path2242" /><path
         style="fill:#ffffff;stroke-width:0.117805"
         d="m 79.180554,-52.957594 c 1.024526,-0.01963 2.667901,-0.01959 3.651945,9e-5 0.984043,0.01968 0.145794,0.03575 -1.862776,0.0357 -2.00857,-5e-5 -2.813696,-0.01615 -1.789169,-0.03579 z"
         id="path2240" /><path
         style="fill:#ffffff;stroke-width:0.117805"
         d="m 25.0459,-42.589603 c 0.342333,-0.02387 0.872454,-0.02362 1.178047,5.89e-4 0.305592,0.02418 0.0255,0.04371 -0.622423,0.0434 -0.647926,-3.53e-4 -0.897957,-0.02009 -0.555624,-0.04396 z m 29.211612,7.07e-4 c 0.275368,-0.0248 0.725971,-0.0248 1.00134,0 0.275368,0.0248 0.05007,0.0451 -0.50067,0.0451 -0.550737,0 -0.776038,-0.02029 -0.50067,-0.0451 z m 47.858148,0.03996 c 0,-0.02546 0.0823,-0.07787 0.18283,-0.116455 0.10484,-0.04023 0.15212,-0.02048 0.11085,0.0463 -0.0692,0.111962 -0.29368,0.165591 -0.29368,0.07018 z m -26.942918,-10.40796 c 0.440044,-0.02273 1.129202,-0.02256 1.531461,3.53e-4 0.402258,0.02294 0.04222,0.04153 -0.800081,0.04132 -0.842304,-2.36e-4 -1.171425,-0.01897 -0.73138,-0.0417 z m 10.721973,-5.89e-4 c 0.764968,-0.02055 1.984247,-0.02048 2.709508,1.18e-4 0.725261,0.02063 0.09938,0.03745 -1.390852,0.03737 -1.490229,-8.2e-5 -2.083624,-0.01697 -1.318656,-0.03752 z m 38.957255,0.04253 c 0,-0.02504 0.15623,-0.06846 0.34719,-0.09649 0.19095,-0.02802 0.32036,-0.0075 0.28756,0.04553 -0.0584,0.09445 -0.63475,0.140722 -0.63475,0.05096 z m -95.921091,-3.807536 c 0.146539,-0.02818 0.358587,-0.02711 0.471219,0.0024 0.112632,0.02949 -0.0073,0.05254 -0.266434,0.05123 -0.25917,-0.0013 -0.351323,-0.02543 -0.204785,-0.05361 z m 11.197434,0.0029 c 0.08504,-0.03403 0.186646,-0.02985 0.225793,0.0093 0.03914,0.03915 -0.03043,0.06699 -0.154619,0.06187 -0.137236,-0.0057 -0.16515,-0.03357 -0.07117,-0.07117 z m 87.433157,-6.090545 c 0,-0.02484 0.13093,-0.0702 0.29095,-0.100787 0.16002,-0.03059 0.26292,-0.01026 0.22866,0.04517 -0.0603,0.09761 -0.51961,0.14677 -0.51961,0.05562 z m -65.939546,-2.984482 c 0.17907,-0.02708 0.444131,-0.02635 0.589024,0.0016 0.144892,0.02796 -0.0016,0.05012 -0.325583,0.04923 -0.323963,-8.84e-4 -0.442511,-0.02376 -0.263441,-0.05084 z"
         id="path2238" /><path
         style="fill:#ffffff;stroke-width:0.117805"
         d="m 25.639994,-42.590331 -1.139577,-0.0384 0.270675,-0.967731 c 0.148872,-0.532252 0.724681,-2.399058 1.279576,-4.148458 0.554895,-1.749399 1.282803,-4.081932 1.617574,-5.183405 0.33477,-1.101474 0.662341,-2.068635 0.727937,-2.149246 0.09296,-0.11424 2.22391,-0.153214 9.661868,-0.176707 l 9.542605,-0.03014 0.38867,-1.413656 c 0.360335,-1.310602 1.563095,-5.154817 1.759977,-5.625173 0.08113,-0.193808 -0.136345,-0.206158 -3.630204,-0.206158 -2.846038,0 -3.737854,0.03449 -3.807674,0.147256 -0.05015,0.08099 -0.500734,1.364738 -1.001309,2.852772 -0.654305,1.945019 -0.970048,2.729146 -1.123277,2.789581 -0.271074,0.106914 -10.295442,0.110153 -10.953889,0.0035 l -0.491742,-0.07962 0.749013,-2.414995 c 0.411957,-1.328248 1.057338,-3.342708 1.434179,-4.476578 l 0.685166,-2.061582 14.628198,-0.02991 c 8.04551,-0.01645 14.969295,0.01006 15.386189,0.0589 l 0.757991,0.08881 -0.67747,2.356093 c -0.372608,1.295852 -1.407217,4.874169 -2.299129,7.951816 -0.891913,3.077647 -1.929056,6.708976 -2.304764,8.06962 -0.375706,1.360644 -0.824352,2.956407 -0.996991,3.54614 l -0.313889,1.07224 -1.487645,0.07588 c -1.456682,0.0743 -26.415697,0.06482 -28.662058,-0.01089 z m 19.57589,-4.123802 c 0.208308,-0.904458 0.901425,-3.374165 1.603977,-5.715266 0.05879,-0.195923 -0.142443,-0.206102 -3.493443,-0.176707 l -3.555831,0.03119 -0.340556,0.858312 c -0.187306,0.472071 -0.703842,2.049181 -1.147857,3.504689 l -0.8073,2.646377 h 3.738238 3.738237 z m 12.862935,3.76975 c 0.06317,-0.242972 1.555127,-5.477918 3.315456,-11.633212 l 3.200598,-11.191444 15.293236,-0.02989 c 14.529506,-0.0284 15.290278,-0.01958 15.234,0.176707 -0.03258,0.11363 -0.354051,1.240336 -0.714382,2.503791 -0.360331,1.263456 -1.198757,4.062152 -1.86317,6.219325 l -1.208022,3.922132 -9.679648,0.02432 c -5.323806,0.01338 -9.712094,0.05678 -9.751752,0.09646 -0.03966,0.03967 -0.630106,2.027628 -1.312109,4.417675 -0.682002,2.390047 -1.345361,4.703373 -1.474131,5.140723 l -0.234128,0.795181 h -5.460403 -5.460403 z m 22.298394,-12.967323 c 0.09992,-0.591417 1.697036,-5.881405 2.006864,-6.647155 0.07841,-0.193789 -0.143164,-0.206159 -3.692718,-0.206159 h -3.776128 l -0.468142,1.443108 c -0.527764,1.626905 -1.664791,5.544167 -1.664791,5.735506 0,0.08588 1.182205,0.125276 3.759395,0.125276 h 3.759394 z m 9.997647,13.334475 c -0.174317,-0.07125 0.104141,-1.125502 1.489393,-5.638911 0.576697,-1.878985 1.364251,-4.476578 1.75012,-5.772429 0.38587,-1.295852 1.213963,-4.052481 1.840208,-6.125843 0.626247,-2.073363 1.269631,-4.2071 1.429744,-4.741638 l 0.291115,-0.971889 h 15.89984 c 8.74492,0 15.89985,0.01835 15.89985,0.04078 0,0.02243 -0.20697,0.671364 -0.45993,1.442083 -0.38563,1.174916 -0.50458,1.413851 -0.73628,1.478943 -0.15199,0.0427 -4.62856,0.08292 -9.94794,0.08938 l -9.67159,0.01174 -0.27003,1.030791 c -0.25761,0.98341 -1.47193,5.399256 -1.60338,5.830668 -0.0592,0.194173 0.48859,0.207155 9.94073,0.23561 l 10.00335,0.03011 -0.36877,1.295333 c -0.34948,1.227577 -0.38707,1.299253 -0.7185,1.370268 -0.19235,0.04121 -4.73547,0.08121 -10.09582,0.08887 l -9.74609,0.01394 -0.0775,0.323963 c -0.0721,0.301172 -0.88585,3.157118 -2.2238,7.804559 -0.30778,1.069078 -0.6427,2.010043 -0.74426,2.091033 -0.14243,0.113588 -1.50603,0.14513 -5.964013,0.137956 -3.178651,-0.0051 -5.841034,-0.03451 -5.916407,-0.06531 z"
         id="path2236" /></g><path
       id="path2260"
       style="fill:#e5eaec;stroke-width:0.206337"
       d="m 21.606433,23.208919 c -0.715225,0 -0.926725,0.797547 -3.530534,13.308749 l -0.987536,4.745446 -0.708484,0.0677 c -1.295042,0.123815 -1.486463,0.493916 -1.390613,2.690791 0.06964,1.596218 0.152402,1.982509 0.47439,2.217953 0.292943,0.214189 1.060209,0.273975 3.084566,0.240295 l 2.694409,-0.04444 -2.669088,-0.06511 c -1.525701,-0.03703 -2.784802,-0.161204 -2.939872,-0.289905 -0.186582,-0.15485 -0.271301,-0.792588 -0.271301,-2.042252 0,-2.072726 0.213817,-2.465483 1.342037,-2.465483 0.480237,0 0.727995,-0.111184 0.805635,-0.361218 0.140652,-0.452941 1.745613,-8.139211 2.810681,-13.460677 0.580097,-2.898372 0.904027,-4.09374 1.160653,-4.281393 0.195817,-0.143194 0.252125,-0.260449 0.125057,-0.260449 z m 29.24576,0 c -0.01065,0.01065 0.0515,0.09423 0.179834,0.257866 0.155741,0.198611 0.318388,0.361218 0.361218,0.361218 0.169821,0 0.06052,-0.169698 -0.283186,-0.43925 -0.163638,-0.128324 -0.247215,-0.190484 -0.257866,-0.179834 z m 12.586312,0 c -0.01065,0.01065 0.05202,0.09423 0.180351,0.257866 0.269544,0.343697 0.438733,0.453 0.438733,0.283187 0,-0.04285 -0.162624,-0.205468 -0.361219,-0.361219 -0.163633,-0.128324 -0.247214,-0.190484 -0.257865,-0.179834 z m 4.373377,0 c -0.719651,0 -0.761051,0.516887 -0.831991,10.399882 -0.07298,10.169212 0.0056,12.100468 0.513664,12.608533 0.261771,0.261787 1.281661,0.300209 6.844026,0.258899 l 6.536552,-0.04858 -6.481775,-0.05736 c -4.358622,-0.03874 -6.572513,-0.132558 -6.757727,-0.286287 -0.223412,-0.185426 -0.275435,-2.306665 -0.275435,-11.227739 0,-9.723994 0.03735,-11.036684 0.324011,-11.323339 0.178321,-0.178339 0.236371,-0.324012 0.128675,-0.324012 z m 16.713191,0 c -0.733919,0 -0.762227,0.434741 -0.762227,11.706262 0,10.674335 0.01267,11.032962 0.400492,11.316622 0.329434,0.241024 1.556406,0.28435 6.91224,0.24443 l 6.511747,-0.04858 -6.481775,-0.05736 c -4.358631,-0.03874 -6.572513,-0.132558 -6.757727,-0.286287 -0.223413,-0.185426 -0.275435,-2.306665 -0.275435,-11.227739 0,-9.723995 0.03735,-11.036684 0.324011,-11.323339 0.178321,-0.178338 0.236371,-0.324012 0.128674,-0.324012 z m -46.402335,0.0062 c -0.593888,-0.01513 -0.888835,0.899529 -0.888835,2.757455 0,2.133375 0.246802,2.600875 1.373043,2.600875 h 0.690397 v 8.624796 c 0,6.433128 0.06285,8.688163 0.24753,8.872844 0.304091,0.3041 0.441431,0.321905 0.26355,0.03411 -0.07261,-0.117441 -0.120897,-4.144116 -0.107487,-8.947774 l 0.02429,-8.733834 -0.86248,-0.115755 c -0.474532,-0.06365 -0.941239,-0.238661 -1.036629,-0.389124 -0.09541,-0.150464 -0.174817,-1.17447 -0.176217,-2.275313 -0.0027,-1.690647 0.0526,-2.034114 0.357601,-2.211751 0.198593,-0.115662 0.250662,-0.213125 0.115239,-0.216525 z m 20.633366,0 c -0.597831,-0.01523 -0.888318,0.898741 -0.888318,2.793112 0,1.995016 0.187493,2.424705 1.134814,2.598807 0.401935,0.07388 0.412378,0.238688 0.412378,6.363436 0,6.124837 -0.01039,6.289249 -0.412378,6.362919 -0.940501,0.172336 -1.134814,0.607396 -1.134814,2.540931 0,1.549937 0.06191,1.887641 0.412378,2.238106 0.382992,0.383051 0.653859,0.409036 3.765661,0.366386 l 3.353284,-0.04599 -3.287138,-0.06253 c -1.986968,-0.03787 -3.394211,-0.152127 -3.558956,-0.288871 -0.188059,-0.156068 -0.272851,-0.789457 -0.272851,-2.043286 0,-1.988514 0.2229,-2.465483 1.152384,-2.465483 h 0.504362 l -0.05478,-6.63112 -0.05426,-6.631636 -0.60048,-0.06408 c -0.330162,-0.03516 -0.676846,-0.184618 -0.770496,-0.332279 -0.09368,-0.147668 -0.172233,-1.169303 -0.173633,-2.270146 -0.0027,-1.690646 0.05312,-2.034114 0.358118,-2.211751 0.198593,-0.115663 0.250145,-0.213125 0.114722,-0.216525 z m 42.519366,0 c -0.77463,-0.0209 -0.79943,0.333956 -0.79943,11.700061 0,10.674357 0.0127,11.032989 0.40049,11.316622 0.32942,0.240997 1.5572,0.28435 6.91276,0.24443 l 6.51174,-0.04858 -6.48229,-0.05736 c -4.35863,-0.03874 -6.57251,-0.132558 -6.75773,-0.286287 -0.22354,-0.185477 -0.27543,-2.324374 -0.27543,-11.335226 0,-10.36011 0.0244,-11.120956 0.36122,-11.317138 0.19863,-0.115663 0.25662,-0.213125 0.12867,-0.216525 z m -40.04975,0.393775 c -1.142854,-0.0038 -2.312884,0.08201 -2.491321,0.260449 -0.272359,0.272367 -0.345974,3.40531 -0.0894,3.808553 0.08375,0.131625 0.430924,0.270942 0.771013,0.309542 0.615959,0.06993 0.618084,0.07612 0.677994,1.542025 l 0.06046,1.471744 1.177706,0.523483 c 0.647843,0.287892 1.410242,0.554115 1.693953,0.591695 l 0.515731,0.06821 0.05633,-4.017843 c 0.03084,-2.209764 0.01018,-4.136338 -0.04548,-4.281392 -0.06879,-0.179234 -1.184136,-0.272649 -2.32699,-0.276469 z m -25.85837,0.0072 -6.958748,0.05426 -6.959265,0.05426 -0.954981,4.593518 c -0.525228,2.526318 -1.009827,4.867662 -1.076937,5.2033 -0.118551,0.59276 -0.103026,0.606938 0.542086,0.484208 0.365282,-0.06948 0.683571,-0.140036 0.707451,-0.157096 0.02379,-0.01695 0.284078,-1.187703 0.578259,-2.601392 0.294182,-1.413686 0.582814,-2.733009 0.641304,-2.931604 0.09042,-0.306938 0.367377,-0.360701 1.846399,-0.360701 h 1.739946 v 2.475818 2.475818 h 0.612365 0.612366 l 0.0584,-2.424142 0.05788,-2.424658 h 2.78536 2.785876 l 0.05891,2.023132 0.05943,2.023649 0.968417,-0.14521 c 0.532636,-0.07987 1.202336,-0.207841 1.488281,-0.284221 l 0.519865,-0.139009 0.05891,-3.49281 c 0.03236,-1.921196 0.0069,-3.703117 -0.05633,-3.959965 z m 6.407361,0.04186 c -2.434335,0.0059 -3.488567,0.06753 -3.646289,0.198438 -0.218995,0.181763 -0.27599,0.700381 -0.23151,2.1177 l 0.05891,1.877405 0.980302,0.06304 0.980302,0.06253 v 1.502234 c 0,0.825172 0.05151,1.551849 0.114721,1.616438 0.06331,0.06322 0.295845,0.06797 0.516248,0.01034 0.351269,-0.09185 0.400492,-0.293361 0.400492,-1.632976 v -1.528588 l 3.559473,0.05684 3.559472,0.05633 0.0615,1.175639 c 0.06843,1.306714 0.06161,1.301386 1.893942,1.591117 l 1.045414,0.164848 -0.05633,-3.632337 -0.05581,-3.632336 -6.268868,-0.05478 c -1.136067,-0.0099 -2.100522,-0.01384 -2.911967,-0.01189 z m 35.394739,5.17e-4 c -0.820468,-0.002 -1.790434,0.0022 -2.922819,0.01189 l -6.371704,0.05426 -0.05529,4.359941 -0.05581,4.35994 0.519865,0.09922 0.519865,0.09922 v -2.447396 -2.447396 h 5.571236 5.571237 l 0.0026,2.837036 c 0.0032,2.877734 0.06313,3.207904 0.615983,3.397726 h 5.17e-4 c 0.170232,0.05844 0.378925,0.06673 0.464055,0.0186 0.08511,-0.04812 0.154512,-2.299224 0.154512,-5.002278 0,-3.909764 -0.05778,-4.962387 -0.28267,-5.14904 -0.15073,-0.125149 -1.270151,-0.185656 -3.731555,-0.19172 z m 16.713192,0 c -0.820467,-0.002 -1.790438,0.0022 -2.922819,0.01189 l -6.371705,0.05426 -0.05478,5.107182 -0.05529,5.106665 h 0.519348 0.519348 v -3.094902 -3.095418 h 5.571236 5.571236 v 3.060795 c 0,1.683368 0.06191,3.122605 0.13746,3.198255 0.255059,0.255058 0.848894,0.14026 0.975134,-0.188619 0.06896,-0.179511 0.125057,-2.443202 0.125057,-5.030184 0,-3.731071 -0.05846,-4.752082 -0.28267,-4.9382 -0.150741,-0.125149 -1.270156,-0.185656 -3.731555,-0.19172 z m 16.712678,0 c -0.82047,-0.002 -1.78992,0.0022 -2.92231,0.01189 l -6.3717,0.05426 -0.0548,5.107182 -0.0553,5.106665 h 0.51935 0.51935 v -3.094902 -3.095418 h 5.56503 5.56504 l 0.0579,2.628263 c 0.0524,2.383284 0.0937,2.635198 0.44545,2.702678 0.21336,0.04093 0.46731,-0.05058 0.56431,-0.203605 0.0968,-0.15302 0.17832,-2.193682 0.17932,-4.534607 0.002,-3.355215 -0.0568,-4.305734 -0.27957,-4.490682 -0.15074,-0.125149 -1.27068,-0.185656 -3.73207,-0.19172 z M 36.598283,24.973153 C 36.482885,24.853891 36.40863,28.917527 36.40863,35.350814 v 10.574031 l -0.506429,0.506429 c -0.473689,0.473686 -0.647406,0.506429 -2.682523,0.506429 -1.196756,0 -2.176095,0.05539 -2.176095,0.12299 0,0.0676 0.192159,0.392318 0.426848,0.72192 l 0.426847,0.599447 h 2.45463 c 2.231115,0 2.474445,-0.03723 2.672189,-0.406694 0.147272,-0.275412 0.189014,-3.552476 0.128674,-10.16217 -0.08955,-9.812545 -0.204601,-12.47839 -0.554488,-12.840043 z m 63.265906,0.128157 c -0.04296,-0.02207 -0.09566,0.04318 -0.160197,0.141077 -0.33069,0.501471 -0.360219,1.42761 -0.361219,11.443229 -9.8e-4,7.120172 0.07275,11.036225 0.212391,11.296985 h -5.17e-4 c 0.20452,0.382052 0.501833,0.399459 6.995443,0.399459 h 6.78149 l 0.42478,-0.67076 0.42478,-0.67076 -6.71431,-0.102837 c -6.32259,-0.09714 -6.73166,-0.126469 -7.00475,-0.500227 -0.15952,-0.218319 -0.34226,-0.682352 -0.40566,-1.031462 -0.0641,-0.349111 -0.08734,-5.151788 -0.0537,-10.672217 0.0475,-7.803503 0.0477,-9.536869 -0.138491,-9.632487 z m -48.282841,0.0677 -0.05839,5.45083 c -0.03807,3.538836 -0.137496,5.546074 -0.283187,5.721615 -0.167088,0.20132 -1.206855,0.284845 -4.071586,0.326595 l -3.84731,0.05581 -0.05839,2.424658 -0.05788,2.424141 h 0.623735 c 0.400346,0 0.716191,0.14805 0.881599,0.412895 0.32864,0.526336 0.369001,0.51844 0.320911,-0.06253 -0.03037,-0.366978 -0.177444,-0.485765 -0.645439,-0.521415 -0.333246,-0.02539 -0.685614,-0.09562 -0.783414,-0.156063 -0.0978,-0.06044 -0.177767,-1.032953 -0.177767,-2.161108 v -2.051038 h 3.713985 c 3.438951,0 3.744257,-0.03079 4.126363,-0.412894 0.394657,-0.394656 0.410756,-0.65344 0.364836,-5.931938 z m 31.677653,0.09509 c -0.004,-0.001 -0.0078,0.002 -0.01189,0.0083 -0.313002,0.484294 -0.273074,22.54776 0.04134,22.862171 0.182366,0.182363 2.004447,0.24753 6.91534,0.24753 h 6.66781 l 0.407727,-0.67076 0.407728,-0.67076 -6.697783,-0.102837 c -5.973747,-0.09201 -6.743076,-0.142254 -7.116878,-0.462504 -0.411084,-0.352171 -0.419297,-0.562253 -0.422197,-10.935766 -0.002,-6.689099 -0.06835,-10.243436 -0.191202,-10.275342 z m -31.188278,0.299723 c -0.09517,0.04768 -0.16463,2.138687 -0.172599,5.299418 -0.01404,5.514454 -0.02796,5.706283 -0.448034,6.086967 -0.384969,0.348871 -0.837359,0.400264 -4.023528,0.457854 l -3.589961,0.06459 0.03824,1.792139 c 0.02651,1.244541 0.06157,1.461267 0.114205,0.709 l 0.07545,-1.083138 h 3.795117 c 3.687478,0 3.80338,-0.01326 4.115511,-0.458886 0.273682,-0.390723 0.319358,-1.344527 0.306958,-6.447669 -0.008,-3.294192 -0.09419,-6.175231 -0.191719,-6.402193 -0.0066,-0.01527 -0.01329,-0.02126 -0.01964,-0.01809 z m 16.939018,2.390552 v 6.809404 6.808886 h 4.229716 4.230233 v -1.609204 c 0,-0.976663 0.09726,-1.707007 0.24753,-1.857251 0.136181,-0.136182 0.646829,-0.24753 1.134815,-0.24753 h 0.887284 v -4.952152 -4.952153 h -5.364531 z m 16.713192,0 v 6.809404 6.808886 h 4.230233 4.229716 v -1.609204 c 0,-0.976663 0.09716,-1.707007 0.24753,-1.857251 0.136182,-0.136182 0.646843,-0.24753 1.134814,-0.24753 h 0.887285 V 32.906519 27.954366 H 91.08798 Z m 16.713707,0 v 6.809404 6.808886 h 4.22972 4.22971 v -1.609204 c 0,-0.976663 0.0972,-1.707007 0.24753,-1.857251 0.13619,-0.136182 0.64736,-0.24753 1.13533,-0.24753 h 0.88677 v -4.952152 -4.952153 h -5.36453 z m -66.515318,0.192236 c -0.0211,-0.280852 -0.03617,2.112722 -0.03617,6.410979 0,5.73101 0.02655,8.075007 0.05891,5.209501 0.03236,-2.865502 0.03236,-7.554015 0,-10.419519 -0.0081,-0.716377 -0.01571,-1.107343 -0.02274,-1.200961 z m 45.595666,0.01085 c -0.01823,0.132851 -0.03098,2.574031 -0.03101,6.709152 -7e-5,6.014721 0.02616,8.505035 0.05839,5.534029 0.03222,-2.971003 0.03216,-7.892049 0,-10.935767 -0.01005,-0.951161 -0.0191,-1.3678 -0.02739,-1.307414 z m -17.491955,0.0036 c -0.177165,0 -0.20351,0.967882 -0.102837,3.747058 0.07468,2.060927 0.135393,5.078705 0.135393,6.706051 v 2.958475 h 0.604614 c 0.985972,0 1.247258,0.451422 1.293978,2.232939 l 0.04134,1.584399 0.0708,-1.62419 c 0.08057,-1.848944 -0.198671,-2.399337 -1.217497,-2.399337 H 64.263778 V 34.76377 c 0,-4.864266 -0.06274,-6.602698 -0.238745,-6.602698 z m -16.267225,0.102836 -3.301607,0.0615 -3.302124,0.06149 v 3.704166 3.704167 h 3.301607 3.301608 v -3.765662 z m -22.49165,0.08578 -1.5875,0.06046 -1.588017,0.05994 -1.363224,6.551538 -1.363224,6.551021 0.836124,0.0031 c 1.277329,0.0048 1.439638,0.200034 1.576648,1.897558 l 0.12144,1.503785 0.03307,-1.42782 c 0.04053,-1.734714 -0.255511,-2.182813 -1.442806,-2.182813 -0.502997,0 -0.789481,-0.09434 -0.782381,-0.257865 0.006,-0.141858 0.586752,-2.997018 1.29036,-6.344832 l 1.278992,-6.086967 1.291911,-0.0615 1.291911,-0.06149 -0.05426,6.354651 -0.05478,6.35465 -0.552421,0.06408 c -0.916606,0.105932 -1.073243,0.501053 -1.020093,2.573487 0.02663,1.038314 0.147275,2.007128 0.268201,2.15284 0.325981,0.392757 0.420389,0.320934 0.176733,-0.134359 -0.117487,-0.219511 -0.213423,-1.080743 -0.213423,-1.914095 0,-1.798233 0.325618,-2.43241 1.249536,-2.43241 h 0.607198 v -6.611482 z m 72.969189,0.0031 c -0.02107,-0.280852 -0.03617,2.112722 -0.03617,6.410979 0,5.731006 0.02651,8.075521 0.05891,5.210017 0.0324,-2.865504 0.0324,-7.55453 0,-10.420035 -0.008,-0.716376 -0.01572,-1.107343 -0.02274,-1.200961 z m 16.713193,0 c -0.0211,-0.280852 -0.0362,2.112722 -0.0362,6.410979 0,5.731006 0.0265,8.075521 0.0589,5.210017 0.0324,-2.865504 0.0324,-7.55453 0,-10.420035 -0.008,-0.716376 -0.0157,-1.107343 -0.0227,-1.200961 z m -82.94946,0.01344 c -0.07162,5.89e-4 -1.19761,0.001 -2.502689,0.001 h -2.372982 v 6.602697 6.602698 h 0.476457 c 0.932686,0 1.157149,0.395513 1.229899,2.166793 l 0.0677,1.650545 0.04134,-1.687752 c 0.04565,-1.855301 -0.182252,-2.335775 -1.107943,-2.335775 H 27.329598 V 34.969958 28.57345 h 2.166793 2.166276 v 6.396508 6.396509 h -0.503845 c -0.888458,0 -1.13738,0.658976 -1.004073,2.659269 0.07666,1.150188 0.22916,1.904093 0.432531,2.137854 0.267247,0.307092 0.640453,0.354831 2.500106,0.317811 l 2.18643,-0.04341 -2.154907,-0.06718 C 31.933865,46.333792 30.843184,46.202527 30.694767,46.079358 30.511059,45.926885 30.4245,45.292339 30.4245,44.091366 c 0,-1.936389 0.269755,-2.51871 1.166853,-2.51871 h 0.484209 l 0.05168,-4.384745 c 0.06992,-5.942869 0.02776,-8.822684 -0.128158,-8.821684 z m 37.21685,0.001 h 5.055506 5.054988 v 4.539258 4.539774 h -0.72192 c -1.192799,0 -1.547709,0.543512 -1.547709,2.372465 v 1.547709 H 73.27408 c -2.080562,0 -3.844534,-0.06181 -3.920174,-0.137459 -0.07562,-0.07566 -0.137976,-3.00073 -0.137976,-6.499862 z m 16.713709,0 h 5.054988 5.055506 v 4.539258 4.539774 h -0.676445 c -0.37194,0 -0.88261,0.144249 -1.134814,0.320911 -0.408427,0.286082 -0.458887,0.500305 -0.458887,1.960087 v 1.639176 h -3.782715 c -2.080562,0 -3.844534,-0.06181 -3.920174,-0.137459 -0.07562,-0.07566 -0.137459,-3.00073 -0.137459,-6.499862 z m 16.713191,0 h 5.05499 5.0555 v 4.539258 4.539774 h -0.69918 c -1.20239,0 -1.55389,0.49262 -1.61799,2.269629 l -0.0558,1.547192 -3.7269,0.05633 c -2.04971,0.03085 -3.7903,-0.0082 -3.8685,-0.0863 -0.0782,-0.07813 -0.14211,-3.004864 -0.14211,-6.503996 z M 57.960803,28.57345 c -0.224528,0 -0.06465,0.981216 0.227893,1.398881 0.485766,0.693527 0.91674,0.585165 0.91674,-0.230477 0,-0.538157 -0.115096,-0.741607 -0.525549,-0.928626 -0.289053,-0.131723 -0.567684,-0.239778 -0.619084,-0.239778 z m 11.668022,0 v 0.825272 0.825273 h 4.642611 4.64261 V 29.398722 28.57345 h -4.64261 z m 16.713192,0 v 0.821655 0.821138 l 4.488098,0.05581 4.487581,0.05529 0.05684,3.45612 c 0.0312,1.90088 0.100443,3.456119 0.154513,3.456119 0.0541,0 0.09819,-1.949877 0.09819,-4.333068 V 28.57345 h -4.642611 z m 16.713193,0 v 0.821138 0.821139 l 4.28139,0.05581 4.28191,0.05581 0.0563,3.422013 c 0.0471,2.854408 0.10706,3.421497 0.36122,3.421497 0.25876,0 0.30437,-0.645257 0.30437,-4.298446 V 28.57345 h -4.64261 z m -61.694427,5.16e-4 h 2.991549 2.992065 v 3.50728 3.507796 h -2.854606 c -1.569881,0 -2.915899,-0.06181 -2.991549,-0.137459 -0.07561,-0.07566 -0.137459,-1.6542 -0.137459,-3.507796 z m -3.562057,0.236162 c -0.115892,-0.0073 -0.07937,0.122039 0.08785,0.51263 0.139425,0.325668 0.339216,0.708217 0.444418,0.850077 0.33861,0.456592 0.553454,0.27659 0.553454,-0.464054 0,-0.485858 -0.09562,-0.722437 -0.292488,-0.722437 -0.160946,0 -0.442535,-0.0573 -0.625802,-0.12764 -0.07327,-0.02812 -0.128801,-0.04614 -0.167432,-0.04858 z m -14.272513,0.176216 c -0.692986,0 -0.94002,0.08763 -1.02061,0.361219 -0.124591,0.422999 -2.397786,11.289168 -2.397786,11.461832 0,0.06434 0.255321,0.146498 0.567407,0.182418 0.373592,0.04299 0.592804,-0.04064 0.641304,-0.244429 0.0405,-0.170228 0.528139,-2.477607 1.083655,-5.127336 0.555516,-2.649726 1.061786,-4.901028 1.124996,-5.003312 0.06322,-0.102306 0.294952,-0.186035 0.515214,-0.186035 0.320145,0 0.400492,-0.145133 0.400492,-0.722437 0,-0.716879 -0.007,-0.72192 -0.914672,-0.72192 z m 4.009574,0 v 5.968628 c 0,5.520307 0.02725,5.973842 0.361218,6.038391 0.334144,0.06451 0.369111,-0.323319 0.464571,-5.195031 l 0.102836,-5.264795 1.496033,-0.06046 1.496033,-0.06046 v -0.713135 -0.713135 h -1.960087 z m 14.237374,0 0.04134,3.146578 0.04134,3.146578 0.113171,-2.372465 0.113689,-2.372981 2.527494,-0.05788 2.528011,-0.05788 v -0.716235 -0.715719 h -2.682524 z m -2.757971,4.572331 c -0.02198,-0.176906 -0.03778,1.545434 -0.03772,4.609538 7e-5,4.085471 0.02782,5.727355 0.0615,3.648873 0.03369,-2.07848 0.03374,-5.42098 0,-7.427971 -0.0084,-0.501747 -0.01645,-0.771471 -0.02377,-0.83044 z m 11.403438,1.968355 c -0.198365,7.75e-4 -0.457933,0.01143 -0.796334,0.02739 -1.083899,0.05113 -1.452624,0.142882 -1.452624,0.361218 0,0.241303 -0.626961,0.292489 -3.576526,0.292489 -1.967084,0 -3.645909,-0.0699 -3.731039,-0.155029 -0.255542,-0.255551 -0.627452,-0.183588 -0.776696,0.150378 -0.26326,0.589106 -0.191681,9.390677 0.07855,9.660909 0.283407,0.28341 3.821165,0.343666 4.248836,0.07235 0.192935,-0.12245 0.249739,-0.676152 0.206189,-2.008663 l -0.05995,-1.839681 -0.619083,-0.06718 c -0.340457,-0.03712 -0.683695,-0.129809 -0.762745,-0.206189 -0.07906,-0.07638 -0.159847,-1.299615 -0.179317,-2.718181 l -0.03566,-2.57917 3.996655,-0.103353 c 3.79893,-0.09807 3.999413,-0.123454 4.056083,-0.515731 0.04168,-0.288441 -0.0013,-0.373876 -0.596346,-0.371554 z m -15.203723,0.370004 c -0.25029,-0.0055 -0.76965,0.04743 -1.337903,0.141593 l -1.377694,0.22841 -0.05736,2.807581 -0.05684,2.80758 -0.722436,0.103353 -0.72192,0.102836 -0.06046,1.839681 c -0.04354,1.332511 0.01369,1.886221 0.206705,2.008663 0.440751,0.279623 3.753929,0.207593 4.161503,-0.09043 0.332159,-0.242876 0.357947,-0.674824 0.297657,-5.038452 -0.03629,-2.625043 -0.116811,-4.823193 -0.178801,-4.884973 -0.0155,-0.01545 -0.06902,-0.024 -0.152445,-0.02584 z m 25.15247,0.774629 c -0.163696,0.01943 -0.23488,0.703128 -0.275436,2.560051 l -0.05788,2.650484 -0.61805,0.07028 c -0.340082,0.03861 -0.687283,0.177916 -0.771013,0.309542 -0.08378,0.131616 -0.153629,0.95444 -0.155029,1.828312 -0.0026,1.297674 0.06269,1.627094 0.357601,1.798857 0.198594,0.115662 1.677565,0.213124 3.286621,0.216524 3.405671,0.0073 3.575475,-0.06917 3.571875,-1.607654 -0.0012,-0.530948 -0.0588,-1.308334 -0.128158,-1.72806 -0.119484,-0.7227 -0.171687,-0.766859 -0.978235,-0.825789 l -0.851627,-0.06201 -0.05839,-2.076359 -0.05839,-2.076876 -1.488798,-0.478524 c -0.819034,-0.263181 -1.602606,-0.521138 -1.740979,-0.573608 -0.01175,-0.0045 -0.02319,-0.0065 -0.03411,-0.0052 z m 7.530289,0.307475 c -0.05312,0.105697 -0.101116,1.960233 -0.109554,4.3186 -0.01239,3.478431 0.04517,4.59859 0.241329,4.67775 0.520372,0.209979 12.352553,0.138535 12.755294,-0.077 0.352974,-0.18891 0.398942,-0.447425 0.398942,-2.239139 0,-1.114212 -0.05848,-2.587863 -0.130224,-3.274219 l -0.130742,-1.247469 -1.159102,-0.144694 c -0.637541,-0.07943 -1.321727,-0.230944 -1.520321,-0.336931 -0.328349,-0.175254 -0.361419,-0.05648 -0.364319,1.310515 -0.0018,0.826762 -0.07797,1.621043 -0.169498,1.765267 -0.12784,0.201445 -1.167639,0.249109 -4.484481,0.206189 l -4.3186,-0.05581 -0.05788,-2.321305 c -0.05317,-2.115409 -0.09327,-2.321306 -0.447518,-2.321306 -0.2138,0 -0.435237,-0.116004 -0.492477,-0.257865 -0.0036,-0.0089 -0.0073,-0.0096 -0.01085,-0.0026 z m 46.191496,0.188102 c -0.0327,-0.0012 -0.0686,0.0049 -0.10904,0.0155 -0.20032,0.05239 -0.40915,0.2667 -0.46405,0.476457 -0.0763,0.291913 -0.33289,0.396094 -1.09399,0.444934 -1.16825,0.07497 -1.26728,0.265058 -1.30018,2.492871 l -0.0191,1.396814 -4.38475,-0.05581 -4.38474,-0.05581 -0.0532,-1.238167 c -0.0761,-1.774192 -0.19782,-2.166276 -0.67283,-2.166276 -0.39165,0 -0.40876,0.149473 -0.40876,3.696932 0,2.764434 0.0651,3.722981 0.25787,3.800801 0.52655,0.209764 12.35111,0.138475 12.75374,-0.077 0.35834,-0.191741 0.39863,-0.45024 0.39791,-2.527494 -7.3e-4,-1.272716 -0.0599,-3.207324 -0.13229,-4.298962 -0.10206,-1.54084 -0.15774,-1.896551 -0.38654,-1.904794 z m -87.717126,0.199471 c -0.04645,0.0041 -0.09924,0.01377 -0.15968,0.02532 -0.572057,0.109358 -0.734023,0.786088 -0.737423,3.085083 l -0.0021,1.48363 -0.774113,0.06356 -0.773596,0.06408 -0.05994,1.839681 c -0.04354,1.332511 0.01317,1.886225 0.206189,2.008663 0.478519,0.303577 4.004612,0.209333 4.273124,-0.114205 0.152395,-0.183608 0.218561,-0.919479 0.180351,-2.011763 l -0.06046,-1.722376 -0.825272,-0.102836 -0.825273,-0.103353 -0.05788,-2.291333 c -0.0506,-1.99683 -0.0588,-2.253164 -0.383956,-2.224154 z m 58.272412,1.062985 c -0.0859,0.06306 -0.154751,1.603969 -0.156063,3.589961 -0.0024,2.890663 0.06119,3.877721 0.254765,3.955831 0.520371,0.209979 12.35203,0.138535 12.754777,-0.077 0.35301,-0.188909 0.398942,-0.447424 0.398942,-2.239139 0,-2.399359 -0.203129,-4.588929 -0.413928,-4.458643 -0.08262,0.05105 -0.766086,0.01878 -1.518771,-0.07183 L 94.595776,38.96403 v 0.866097 c 0,0.476209 -0.05885,1.157782 -0.130224,1.514636 l -0.129708,0.648539 -4.357874,-0.05529 -4.357873,-0.05581 -0.103353,-1.650545 c -0.07971,-1.275165 -0.169298,-1.636784 -0.393774,-1.588534 -0.159829,0.03436 -0.367184,-0.05833 -0.460954,-0.206189 -0.0059,-0.0092 -0.01184,-0.01144 -0.01757,-0.0072 z m -65.15933,0.173632 c -0.0943,-0.004 -0.237982,0.01834 -0.446485,0.06098 -0.577032,0.118017 -0.692139,0.24881 -0.838192,0.95498 -0.484875,2.344325 -0.498561,2.366264 -1.489831,2.366264 h -0.905371 l -0.06666,1.791622 c -0.04788,1.284942 0.01012,1.868525 0.205672,2.06344 0.193468,0.192816 0.953606,0.271301 2.616378,0.271301 2.896206,0 2.991549,-0.06554 2.991549,-2.060856 0,-1.965617 -0.06042,-2.065507 -1.247986,-2.065507 -0.548588,0 -1.055406,-0.09416 -1.126546,-0.20929 -0.111537,-0.18047 0.140944,-1.872874 0.434599,-2.912483 0.04935,-0.174721 0.03003,-0.253788 -0.127124,-0.26045 z m 90.517474,0.768946 c -0.0418,-0.0031 -0.11418,0.121223 -0.24133,0.343648 -0.16231,0.283712 -0.29731,0.678353 -0.30231,0.876949 -0.004,0.198588 0.13196,0.360702 0.30231,0.360702 0.22759,0 0.30731,-0.231762 0.30231,-0.876949 -0.004,-0.486156 -0.007,-0.700339 -0.061,-0.70435 z m -16.762286,0.714168 c -0.02655,0.0144 -0.04597,0.138615 -0.04909,0.3514 h 5.17e-4 c -0.0044,0.340456 0.03856,0.505044 0.09508,0.365352 0.05604,-0.139696 0.06016,-0.41832 0.0078,-0.619083 -0.01964,-0.07529 -0.03833,-0.106306 -0.05426,-0.09767 z M 22.31285,42.98859 c -0.05783,0.013 -0.04484,0.22907 0.01189,0.732256 0.138395,1.227829 -0.08686,2.324453 -0.577743,2.815332 -0.357857,0.357855 -0.703026,0.401525 -3.197221,0.401525 H 15.75356 l 0.550871,0.72192 0.550871,0.722437 h 2.839103 c 2.025361,0 2.897383,-0.07387 3.042192,-0.257866 0.293096,-0.372452 0.473605,-1.77682 0.246496,-1.917195 -0.106012,-0.06552 -0.195771,-0.69423 -0.199471,-1.396814 -0.0038,-0.743067 -0.122892,-1.430513 -0.284737,-1.643828 -0.09118,-0.120183 -0.151335,-0.185568 -0.186035,-0.177767 z m 7.240385,0.127641 c -0.10171,0.05102 -0.160197,0.520176 -0.160197,1.310515 0,2.205791 -0.216044,2.382014 -3.075265,2.510957 l -2.287715,0.102837 0.40876,0.67076 0.408761,0.67076 h 2.471684 c 2.232634,0 2.492683,-0.03897 2.685624,-0.399459 0.272385,-0.508879 0.276804,-1.600737 0.0072,-1.767334 -0.113495,-0.07014 -0.206189,-0.766191 -0.206189,-1.547192 0,-0.781003 -0.09321,-1.47758 -0.206706,-1.54771 -0.01625,-0.01004 -0.03146,-0.01142 -0.04599,-0.0041 z m 16.038297,1.215947 c -0.0151,-0.0022 -0.0322,0.159328 -0.05064,0.483174 -0.0625,1.096807 -0.152079,1.344723 -0.621667,1.714108 -0.495771,0.389919 -0.772795,0.425673 -2.855123,0.368453 l -2.305802,-0.06356 0.194303,0.509012 c 0.106709,0.279996 0.292579,0.62855 0.413412,0.774113 0.296708,0.357494 4.724987,0.372376 5.08031,0.01705 0.166761,-0.166784 0.234559,-0.958346 0.207739,-2.424659 -0.01674,-0.916332 -0.03737,-1.374098 -0.06253,-1.377693 z m -19.500101,2.009179 c -0.392685,0 -0.78524,0.01069 -1.083138,0.03152 -0.595799,0.0417 -0.108458,0.07545 1.083138,0.07545 1.191595,0 1.679453,-0.03378 1.083654,-0.07545 -0.297898,-0.02084 -0.690969,-0.03152 -1.083654,-0.03152 z m 16.281176,0 c -0.411384,-1.45e-4 -0.830761,0.01047 -1.159102,0.03101 -0.656682,0.04106 -0.172955,0.07504 1.075387,0.07545 1.248326,4.6e-4 1.785894,-0.0334 1.194242,-0.07493 -0.295826,-0.02075 -0.699142,-0.03138 -1.110527,-0.03152 z m 15.556157,0.248564 c -0.09359,0.01987 -0.07162,0.204474 0.0036,0.668176 0.0697,0.429465 0.246339,0.856736 0.392224,0.949296 0.440548,0.279529 7.055951,0.213373 7.342705,-0.07338 0.136187,-0.136183 0.24753,-0.572249 0.24753,-0.96945 0,-0.561694 -0.05495,-0.667481 -0.24753,-0.474906 -0.329823,0.329877 -6.819454,0.345175 -7.431588,0.01757 -0.153201,-0.08199 -0.250807,-0.129228 -0.306958,-0.117306 z m 9.351884,0.01395 c -0.09672,-0.02525 -0.127641,0.139419 -0.127641,0.560689 0,0.396952 0.111464,0.832979 0.24753,0.96945 0.363614,0.363691 13.441629,0.354287 13.731978,-0.0098 0.113126,-0.141856 0.24682,-0.553962 0.29714,-0.915706 0.07998,-0.575071 0.04579,-0.633727 -0.270268,-0.464571 -0.564832,0.302284 -13.453136,0.25197 -13.75885,-0.05374 -0.04815,-0.04814 -0.08765,-0.07788 -0.119889,-0.0863 z" /></g></svg>
