<?xml version="1.0" encoding="UTF-8" standalone="no"?>
<svg
   version="1.1"
   viewBox="0 0 500 200"
   id="svg1033"
   sodipodi:docname="astrocde-mono.svg"
   width="500"
   height="200"
   inkscape:version="1.2.2 (b0a8486541, 2022-12-01)"
   xmlns:inkscape="http://www.inkscape.org/namespaces/inkscape"
   xmlns:sodipodi="http://sodipodi.sourceforge.net/DTD/sodipodi-0.dtd"
   xmlns="http://www.w3.org/2000/svg"
   xmlns:svg="http://www.w3.org/2000/svg">
  <defs
     id="defs1037" />
  <sodipodi:namedview
     id="namedview1035"
     pagecolor="#505050"
     bordercolor="#ffffff"
     borderopacity="1"
     inkscape:showpageshadow="0"
     inkscape:pageopacity="0"
     inkscape:pagecheckerboard="1"
     inkscape:deskcolor="#505050"
     showgrid="false"
     inkscape:zoom="1.1191667"
     inkscape:cx="410.12658"
     inkscape:cy="187.19285"
     inkscape:window-width="1670"
     inkscape:window-height="910"
     inkscape:window-x="0"
     inkscape:window-y="0"
     inkscape:window-maximized="1"
     inkscape:current-layer="svg1033" />
  <path
     fill="#000000"
     d="m 191.03849,94.28608 q -0.39112,0.7982 0.47891,0.59865 c 6.48132,-1.53253 12.87484,-5.1244 15.42108,-11.31837 3.5759,-8.700291 -3.59985,-14.686733 -8.27726,-21.311728 a 1.4846374,1.5006013 39.6 0 1 -0.13569,-1.508583 c 2.4744,-5.196231 11.94894,-8.317162 17.60014,-10.783576 9.41867,-4.11069 16.78598,-9.402704 17.11324,-20.752996 0.27937,-9.67409 -7.13584,-13.569267 -15.65255,-14.255713 -32.35871,-2.586142 -61.08565,29.038232 -73.81681,55.426465 -3.56792,7.399241 -5.53946,15.556761 -3.92711,23.690341 2.65,13.40963 16.54653,10.32063 22.55691,1.93961 q 7.17575,-10.02529 12.06867,-22.852243 5.43569,-14.255712 15.96384,-31.329042 c 5.18027,-8.396982 12.00481,-14.918212 22.02212,-16.825891 q 1.30106,-0.24744 2.80964,0.606626 a 0.87801139,0.88599331 39.4 0 1 0.13569,1.436746 q -1.88373,1.604366 -3.93508,2.929365 -6.78464,4.382075 -10.6878,11.478003 c -7.68659,13.976345 -14.02423,28.862629 -20.6173,43.381746 -4.94879,10.89532 -15.94788,24.33688 -29.18191,23.97769 C 135.82754,108.4061 126.792,94.42178 129.86504,80.27781 q 4.7253,-21.774681 19.73929,-38.169548 c 19.5158,-21.295767 50.85283,-37.5230143 80.29015,-30.059917 16.1155,4.086744 20.4896,22.125887 10.22484,33.971059 -4.31023,4.980719 -8.70029,6.090206 -16.3789,8.68433 q -9.15526,3.096986 -18.03116,5.922586 -1.74804,0.558735 -0.1756,1.500602 c 4.96475,2.969275 10.31264,7.000145 11.59773,12.978604 2.83358,13.226044 -7.9021,21.782664 -19.36414,24.544414 -4.58961,1.10948 -11.22258,0.97379 -14.7027,-2.3866 -3.14488,-3.04111 -2.92937,-9.91355 2.14714,-11.36626 4.93282,-1.42078 7.71053,4.5497 5.8268,8.389 z"
     id="path1011"
     style="stroke-width:0.798192;fill:#ffffff" />
  <path
     fill="#000000"
     d="m 253.04206,91.66003 c 3.8393,2.63404 10.2408,-3.04909 12.84291,-5.739 a 1.0057221,0.98177637 67.6 0 0 0.27937,-0.69443 q 0.0639,-10.0652 1.04563,-13.712938 6.8405,-25.478294 24.07347,-45.369243 c 3.84729,-4.437949 9.68207,-9.817764 15.43704,-10.480264 7.91807,-0.917921 7.80632,7.279513 6.46536,12.675292 -5.02861,20.14637 -19.81113,41.649668 -35.70314,55.610053 q -1.05361,0.93388 -0.63855,2.27484 c 3.32846,10.72771 13.43357,5.27605 18.00721,-0.47891 a 1.2292159,1.1493967 67.2 0 0 0.26341,-0.71039 c 1.1015,-20.561433 13.97634,-40.604039 29.41338,-53.383095 2.49834,-2.067318 7.48704,-4.014907 9.98538,-0.901958 2.3866,2.969275 1.17334,9.458578 0.0239,12.882822 -4.88494,14.567007 -14.58297,30.594706 -27.4658,39.398761 q -1.12545,0.77425 -0.98177,2.1232 0.47891,4.68538 4.82108,5.11641 c 5.70707,0.56671 10.6399,-6.73674 12.75511,-11.05496 4.09473,-8.381022 8.91581,-16.506618 13.98433,-24.44863 a 2.6180703,2.6659618 7.9 0 1 1.42876,-1.101505 q 3.94307,-1.24518 7.67861,0 a 0.82213794,0.82213794 0 0 1 0.50286,1.093523 q -0.77425,1.851806 -2.03539,3.959033 -6.01837,10.065203 -11.11882,20.625289 -1.64427,3.4003 -2.24292,7.1518 -0.38313,2.38659 2.03539,2.37861 4.38208,-0.0239 7.52696,-4.21445 10.62393,-14.143969 16.62634,-28.06444 c 1.53253,-3.543973 6.0902,-2.570179 9.12333,-2.218974 q 1.77997,0.20753 0.98976,1.811896 -15.3652,31.233258 -30.9938,63.344528 c -1.71611,3.52801 -2.69789,6.04232 -6.17002,8.24533 a 1.0615956,1.0695775 33 0 1 -0.72636,0.15964 c -6.28975,-0.84609 -4.61355,-5.57139 -2.57018,-9.52244 q 6.55316,-12.70722 13.49743,-25.21489 1.06958,-1.92364 -0.5747,-0.44698 c -5.39578,4.86897 -15.50887,8.89984 -18.68568,-1.35693 q -0.21551,-0.67846 -0.68644,-0.15166 c -6.32168,6.96822 -18.53402,14.01626 -24.68808,1.81988 a 0.71837295,0.71039103 53.6 0 0 -1.1494,-0.1756 c -6.88042,7.11189 -21.21595,14.45526 -27.47378,1.5884 a 0.88599331,0.87801139 54.5 0 0 -1.4128,-0.23946 c -6.74472,6.74473 -20.0426,12.64337 -25.31067,0.0718 a 0.79021025,0.79021025 0 0 0 -1.33298,-0.19955 c -3.83931,4.61355 -11.05496,8.35707 -16.69818,5.18027 -6.36957,-3.5759 -5.08449,-14.64683 -2.62605,-20.0905 3.32846,-7.367312 8.81204,-14.383421 14.95812,-19.300284 5.78689,-4.621533 15.25345,-9.522433 22.90811,-7.542916 6.30572,1.628312 5.40376,11.038997 -1.79593,10.791558 q -3.30451,-0.111747 -4.86099,-3.839305 a 1.3728905,1.3728905 0 0 0 -1.63629,-0.79021 c -8.67635,2.442468 -15.34126,11.501949 -19.09276,19.531767 -1.47666,3.14487 -4.03087,11.34231 -0.91792,13.86459 5.83478,4.7253 19.14065,-20.210222 21.03236,-23.881906 a 2.6021065,2.5861426 6.8 0 1 1.69217,-1.324999 q 3.60783,-0.87003 7.55888,0.327259 a 1.0615956,1.0536137 21.3 0 1 0.64654,1.468673 q -4.94081,10.224843 -8.70828,21.040343 -0.46295,1.325 0.69443,2.11521 z m 51.88249,-68.836091 c -8.27726,5.48358 -15.014,17.129204 -19.6036,26.452089 q -6.0503,12.268213 -8.66039,26.300432 -0.29533,1.61235 0.78223,0.383132 14.99803,-17.065349 24.36881,-37.562924 c 2.62605,-5.754965 4.33418,-9.394721 5.30798,-14.574989 q 0.5268,-2.801654 -2.19503,-0.99774 z m 1.34894,53.574661 c 10.83147,-9.306923 16.64231,-20.353903 21.7667,-33.42829 q 0.75828,-1.931625 1.02967,-3.982979 0.43102,-3.296534 -2.54623,-1.348945 -1.68419,1.101505 -2.97726,2.61807 -10.36852,12.164449 -15.70842,27.16248 c -0.95783,2.697889 -1.51657,5.683128 -2.20301,8.588548 q -0.27139,1.181326 0.63855,0.391116 z"
     id="path1013"
     style="stroke-width:0.798192;fill:#ffffff" />
  <path
     fill="#000000"
     d="m 389.91605,174.77578 q -2.09925,-0.95783 -2.7378,-3.25662 a 1.0695775,1.1015052 9.3 0 0 -0.42304,-0.60663 c -1.33298,-0.94186 -1.76401,-1.35692 -2.44247,-3.02515 q -0.79819,-1.97951 -3.10497,-2.21099 a 0.46295146,0.43102377 2.4 0 1 -0.41506,-0.42304 l -0.23945,-27.26624 a 1.2371979,1.2371979 0 0 1 1.33298,-1.2372 q 2.81761,0.19955 2.05933,-2.17907 -0.80617,-2.53027 1.19729,-2.19503 3.28855,0.54278 2.27485,-2.54623 -0.53479,-1.63629 1.15738,-1.31702 2.69789,0.51883 2.13117,-2.01942 -0.35919,-1.6363 1.30903,-1.52455 2.40256,0.16762 1.86777,-2.13915 a 0.82213794,0.82213794 0 0 1 0.98976,-0.98178 q 1.47666,0.3512 2.13118,-0.19955 a 0.97379445,0.54277068 79.2 0 0 0.23147,-0.69443 c -0.0798,-2.86551 3.36039,0.0798 4.47786,-2.41852 a 0.57469836,0.67846334 13.6 0 1 0.54277,-0.39909 l 10.9512,-0.11973 a 0.62258989,0.61460797 0.4 0 1 0.62259,0.62259 l -0.0878,16.38688 a 0.42304185,0.41505993 89.4 0 1 -0.40708,0.42304 l -6.84051,0.1357 a 1.2531617,1.3090352 85.1 0 0 -1.27711,1.45271 c 0.71039,4.5896 -4.31023,-0.35919 -3.47213,4.34216 q 0.31129,1.73208 -1.42877,1.4128 c -2.76972,-0.51084 -2.17906,1.02967 -2.21897,2.77771 q -0.12771,6.75271 0.24744,13.49743 a 0.62258989,0.62258989 0 0 0 0.38313,0.55075 l 2.2509,0.89398 a 0.94186676,0.8460837 3.6 0 1 0.51883,0.52681 l 0.63855,1.93162 a 0.71837295,0.7343368 87.8 0 0 0.51883,0.47093 q 2.22695,0.55076 3.14487,2.64202 a 0.92590292,0.80617409 84.2 0 0 0.52681,0.49488 c 2.32274,0.71837 7.29548,1.31702 8.7402,-1.55648 a 1.2850894,1.3569267 85.9 0 1 0.51085,-0.55873 q 1.1893,-0.74232 1.29307,-2.35467 0.49488,-8.00586 0.3991,-13.76881 -0.36717,-21.92634 -0.15166,-43.55735 a 0.74231872,0.75030064 0.6 0 1 0.7503,-0.74232 q 6.19397,0.0319 12.22032,-0.0399 c 2.88946,-0.0319 5.18825,-1.764 4.57364,2.9613 -0.1756,1.40481 -0.43102,2.68192 -0.43102,4.09472 q -0.11175,29.21384 0.19955,58.29198 a 0.9578306,0.9578306 0 0 1 -1.18133,0.94186 q -2.61807,-0.60662 -1.92364,2.3866 0.40708,1.75602 -1.38886,1.64427 -2.72183,-0.15964 -2.4265,2.53825 a 0.87002947,0.87002947 0 0 1 -0.63057,0.93389 q -1.99548,0.54277 -2.3866,1.62831 -0.1756,0.47892 -0.36716,0.67048 -3.06506,3.00919 -4.01491,3.41626 -10.07319,4.35813 -20.07453,0.39112 c -1.85979,-0.74232 -3.09699,-2.24292 -5.10045,-3.12891 a 1.2531617,0.917921 81.2 0 1 -0.51883,-0.51883 l -0.73433,-1.38885 a 1.1972883,0.75030064 7.4 0 0 -0.58268,-0.47892 q -2.09127,-0.8381 -2.72184,-3.06506 a 0.83810178,0.87002947 3.3 0 0 -0.46295,-0.54277 z"
     id="path1015"
     style="stroke-width:0.798192;fill:#ffffff" />
  <path
     fill="#000000"
     d="m 167.59558,126.26964 q 0.60663,0.26341 1.6363,0.11973 2.08328,-0.29533 1.59638,1.79594 -0.60662,2.6021 2.36265,1.90767 1.59639,-0.36716 1.60437,1.2372 l 0.0239,4.44593 a 0.79819217,0.79021025 0 0 1 -0.79819,0.79021 h -8.82002 a 0.75030064,0.7343368 0 0 0 -0.7503,0.73434 l 0.1756,22.61278 a 1.0296679,1.0057221 0.5 0 0 1.00572,0.99774 q 2.61009,0.0718 2.03539,2.63404 a 0.63057181,0.62258989 9.1 0 0 0.55075,0.75828 q 1.59639,0.15964 2.5622,1.28509 a 0.72635487,0.9578306 22.8 0 1 0.1756,0.69443 c -0.25542,1.93162 1.49262,1.4128 2.53027,1.5884 q 2.80964,0.45497 5.66717,0.47093 a 0.43102377,0.43102377 0 0 1 0.43102,0.40708 q 0.54277,7.75843 0.008,15.78824 a 1.4606917,1.4447278 89.1 0 1 -1.29307,1.34895 q -6.78463,0.7503 -14.20782,-1.81988 a 3.8871959,3.8472863 79.4 0 1 -1.69217,-1.17334 q -0.64653,-0.78223 -1.74804,-0.98178 a 0.80617409,1.3329809 84.3 0 1 -0.68644,-0.32726 q -0.61461,-0.67048 -0.74232,-1.53253 a 1.1653606,1.1653606 0 0 0 -0.9259,-0.97379 c -3.25663,-0.63057 -0.51085,-4.65346 -4.03087,-3.99894 q -1.77997,0.32725 -1.39684,-1.79594 0.22349,-1.24518 -0.55874,-2.0753 a 0.70240911,1.1893063 82 0 0 -0.68644,-0.28735 c -2.81762,-0.25542 -0.35121,-4.42198 -4.30226,-4.7652 a 0.4789153,0.4789153 0 0 1 -0.439,-0.43901 c -0.75829,-9.4027 0.0718,-19.00495 -0.62259,-28.50344 a 0.51882491,0.51084299 3.5 0 0 -0.42304,-0.47093 q -4.86898,-0.83811 -7.13584,-0.37515 c -3.44021,0.7024 -1.88374,-2.95332 -2.27485,-4.79714 q -0.40708,-1.94759 1.54051,-1.50858 3.24066,0.72635 2.84955,-2.54624 a 0.89397523,0.90195715 3.2 0 1 1.09352,-0.98177 q 2.72982,0.64653 2.28283,-2.30678 a 0.72635487,0.72635487 0 0 1 0.73434,-0.8381 q 1.62033,0.0319 1.46069,-1.0137 c -0.41506,-2.66597 -0.10377,-6.11416 -0.10377,-9.15527 a 0.79819217,0.79819217 0 0 1 0.7982,-0.79819 h 16.08357 a 0.94186676,0.9578306 0.2 0 1 0.94186,0.96581 l -0.0559,9.17123 a 1.0775594,1.0855414 83.7 0 0 1.325,1.05361 q 1.94759,-0.439 1.82786,2.03539 a 0.63855374,0.63855374 0 0 0 0.39111,0.62259 z"
     id="path1017"
     style="stroke-width:0.798192;fill:#ffffff" />
  <path
     fill="#000000"
     d="m 459.79777,162.9785 2.17907,0.9738 a 0.51882491,0.67048142 9.7 0 1 0.31129,0.59066 q -0.016,1.2372 0.83012,2.05135 a 1.0137041,1.0137041 0 0 0 0.68645,0.28735 l 7.95797,0.21551 a 0.80617409,0.75828256 0.9 0 1 0.78223,0.75829 v 15.25345 q 0,1.82786 -1.82786,1.90768 -5.24412,0.22349 -9.72198,-0.35121 c -1.89171,-0.24744 -3.3524,-1.50858 -5.37183,-1.97153 a 1.021686,0.98177637 78.5 0 1 -0.59865,-0.41506 q -0.99774,-1.46069 -2.43448,-1.69217 a 1.221234,1.2052702 86.7 0 1 -0.98178,-0.88599 q -0.5268,-1.99548 -1.83584,-2.0753 c -1.27711,-0.0798 -2.35467,-0.12771 -1.57244,-1.94759 q 0.90196,-2.10723 -1.59638,-1.59638 -2.74578,0.55873 -1.99548,-1.99548 0.69442,-2.37064 -1.19729,-1.99549 c -4.84503,0.94985 0.3512,-5.73102 -4.22244,-4.44593 a 1.0376498,1.0615956 81.9 0 1 -1.34894,-0.98975 l -0.1756,-27.23432 a 0.96581253,0.93388484 4.7 0 1 1.12545,-0.9259 q 2.70587,0.46295 2.08328,-2.65 -0.36717,-1.77997 1.44473,-1.55648 2.74578,0.35121 2.09126,-3.30451 a 1.1653606,0.89397523 4.2 0 1 1.44473,-0.94985 q 1.15738,0.2634 1.84382,-0.39111 a 0.94186676,0.64653566 71.5 0 0 0.19955,-0.70241 q -0.23946,-2.51431 2.2509,-2.60211 a 0.70240911,0.58268028 10 0 0 0.59066,-0.33524 q 0.43901,-0.90196 0.35121,-1.95557 a 0.35918648,0.35120455 88.2 0 1 0.3512,-0.38313 q 1.86777,-0.008 2.96129,-1.47666 0.27139,-0.3512 0.59865,-0.50286 7.34337,-3.27259 16.57047,-1.89172 a 0.90195715,0.90195715 0 0 1 0.77424,0.89398 v 15.8521 a 0.63057181,0.6624995 88.9 0 1 -0.63855,0.63057 l -8.67635,0.39111 a 0.7343368,0.69442719 89 0 0 -0.6625,0.72636 q -0.0239,2.34668 -2.10722,2.61008 a 1.0456317,1.0456317 0 0 0 -0.90994,0.85407 q -0.62259,3.52003 2.01942,3.0012 1.89172,-0.36717 10.78358,0.17561 a 0.43102377,0.41505993 1.8 0 1 0.40708,0.41505 l 0.15964,14.95014 a 1.2052702,1.2451798 89.6 0 1 -1.24518,1.22124 q -5.2122,0 -9.90557,-0.0319 -3.49608,-0.0319 -2.29879,3.00919 a 1.0695775,0.68644527 10.1 0 0 0.5268,0.48689 z"
     id="path1019"
     style="stroke-width:0.798192;fill:#ffffff" />
  <path
     fill="#000000"
     d="m 277.82592,128.76799 q 3.06506,0.34322 3.55196,3.36038 a 0.59864413,0.61460797 2.9 0 0 0.43102,0.4869 c 3.52801,0.98178 1.45271,5.17229 3.94307,4.79714 a 1.2292159,1.221234 84.3 0 1 1.4128,1.16536 q 0.51084,12.68327 0.40708,25.39049 c -0.016,1.80391 0.46295,2.94533 -2.14714,2.69789 q -1.71611,-0.15964 -1.26912,1.5006 0.22349,0.84609 -0.0878,2.17108 a 1.021686,1.0137041 12.3 0 1 -1.19729,0.76627 q -2.41852,-0.47892 -1.77199,2.53825 0.36717,1.70813 -1.34894,1.35693 -2.81762,-0.58268 -2.24292,2.26686 a 1.0855414,1.0935233 0.3 0 1 -1.29308,1.28509 q -2.29879,-0.4869 -1.89171,2.12319 a 0.69442719,0.59864413 70 0 1 -0.23946,0.63856 q -0.90196,0.60662 -2.09126,0.43102 a 0.63057181,0.43900569 13.2 0 0 -0.62259,0.24744 l -0.53479,1.22922 a 0.53478875,0.86204754 12.4 0 1 -0.47093,0.48689 c -3.08901,0.78223 -6.02635,2.03539 -9.00361,2.27485 q -7.69457,0.62259 -14.69472,-2.79367 a 1.5085832,1.0695775 79.5 0 1 -0.54277,-0.52681 q -0.42304,-0.72635 -1.10949,-1.18931 a 0.69442719,0.93388484 57.9 0 0 -0.71837,-0.0559 q -0.89398,0.29533 -1.42078,-0.41506 a 0.63057181,1.0376498 21.3 0 1 -0.12771,-0.71837 q 0.27138,-1.85979 -1.91566,-1.8119 a 1.1573786,1.1573786 0 0 1 -1.16536,-1.37289 q 0.53478,-2.75376 -2.4744,-2.38659 a 1.1813244,1.1813244 0 0 1 -1.325,-1.30904 q 0.34322,-2.85753 -2.38659,-2.5143 a 0.71039103,0.69442719 86 0 1 -0.79021,-0.70241 l -0.024,-2.70587 a 1.2371979,1.2850894 83.1 0 0 -1.56446,-1.18133 q -2.33072,0.52681 -1.80391,-1.79593 0.27138,-1.21325 0,-6.39352 c -0.35121,-6.50527 0.20753,-13.1143 0.0559,-19.6036 a 1.117469,1.1094871 89.8 0 1 1.12545,-1.14141 q 1.74804,0.0239 2.04338,-2.26687 0.20753,-1.65226 1.77996,-2.20301 0.87003,-0.30331 1.97952,-2.93735 a 1.0137041,1.0376498 2.8 0 1 0.63057,-0.58268 c 1.70015,-0.56671 2.01943,-1.58042 3.00919,-2.85753 6.56114,-8.49276 19.03688,-11.19065 28.12031,-6.50526 a 2.2828296,2.2828296 0 0 0 1.47665,0.20753 q 1.92365,-0.38313 1.48464,1.59638 a 0.55873452,0.55873452 0 0 0 0.70241,0.6625 q 2.9134,-0.86205 2.59412,2.27485 a 0.39909609,0.43102377 7.4 0 0 0.33524,0.47093 l 2.00347,0.28735 a 0.51084299,0.49487915 0.7 0 1 0.43102,0.43103 l 0.30331,2.40255 a 0.52680683,0.4789153 0.3 0 0 0.45497,0.42305 z m -25.01534,10.26475 c -2.49036,0.9259 -2.21099,3.75948 -5.51551,4.85301 a 0.63057181,0.6624995 84.5 0 0 -0.44699,0.51882 q -0.90195,6.89638 0.40708,14.94216 a 1.221234,1.2371979 1.7 0 0 0.93389,0.99774 q 1.97153,0.44699 2.5143,2.52229 a 1.4926194,1.4766555 1.2 0 0 1.02967,1.06159 q 1.78795,0.51883 2.24292,2.37063 a 1.1653606,1.1653606 0 0 0 0.7503,0.82214 c 2.59413,0.9259 7.94201,1.78795 8.94774,-1.87575 a 0.71039103,0.71039103 0 0 1 0.48689,-0.49488 q 2.06732,-0.63057 2.7378,-2.66596 a 0.43900569,1.0855414 11 0 1 0.40708,-0.63057 l 2.01943,-1.14142 a 0.78222833,1.1493967 73.1 0 0 0.55873,-0.69443 q 1.11747,-6.69683 0.23148,-12.77107 c -0.23148,-1.59639 0.2634,-2.88946 -1.86777,-3.34443 a 1.6203301,1.628312 89.3 0 1 -1.2372,-1.20527 q -0.54277,-2.21099 -2.76175,-3.05707 a 1.1813244,1.2691256 85.3 0 1 -0.59864,-0.47094 c -0.69443,-1.08554 -1.03765,-1.87575 -2.38659,-2.23493 -2.54624,-0.67847 -6.4494,-0.71838 -7.89413,2.01942 a 1.1015052,1.021686 2.2 0 1 -0.55873,0.47892 z"
     id="path1021"
     style="stroke-width:0.798192;fill:#ffffff" />
  <path
     fill="#000000"
     d="m 343.26172,160.00125 2.13117,0.6625 a 0.8460837,1.1334329 89.2 0 1 0.60663,0.439 q 0.5268,0.89398 0.64653,1.95557 a 0.76626448,0.60662605 13.1 0 0 0.42304,0.52681 l 2.36265,1.14141 a 0.50286107,0.65451758 14 0 1 0.27139,0.62259 c -0.29533,2.45844 6.77665,2.17907 8.54864,2.43449 a 0.48689722,0.47093338 4.5 0 1 0.41506,0.47093 l 0.10376,16.32303 a 0.94186676,0.97379445 85.4 0 1 -0.82214,0.93389 q -7.39924,1.14939 -13.3777,-1.4128 c -0.91792,-0.39112 -1.82786,-0.36717 -2.45843,-1.45271 q -0.64654,-1.10949 -1.8997,-1.33298 -1.29307,-0.2235 -1.4128,-1.61235 a 1.125451,1.117469 1.9 0 0 -0.94985,-1.00572 q -1.99548,-0.29533 -2.36264,-2.22696 a 2.0513539,2.0673177 2.9 0 0 -1.42877,-1.59638 q -1.38087,-0.40708 -1.90768,-2.18705 -0.36717,-1.22123 -1.46867,-1.85181 c -1.97154,-1.12545 -1.79593,-4.79713 -4.14262,-4.73328 a 0.6624995,0.65451758 86.3 0 1 -0.67846,-0.60662 c -0.79021,-8.97168 -0.63856,-18.03915 -0.79021,-27.11459 q -0.0319,-1.73208 1.66822,-1.39684 c 4.27831,0.82214 -0.43901,-5.35587 4.01491,-4.46987 q 1.75602,0.3512 1.38087,-1.40482 -0.61461,-2.85753 1.92364,-2.32274 1.9875,0.41506 1.39684,-1.19729 c -1.65226,-4.51777 3.75948,-0.27138 3.13689,-4.55768 a 0.67846334,0.67048142 2.2 0 1 0.81416,-0.7503 q 2.3387,0.51085 2.65,-1.82786 a 0.4789153,0.48689722 1.2 0 1 0.439,-0.42304 c 2.42651,-0.19156 4.27831,-1.38885 6.34563,-1.74006 6.59307,-1.12545 14.27966,0.27937 19.16459,5.15632 1.38088,1.37289 3.12094,2.06732 3.55196,4.29428 a 0.60662605,0.61460797 0.5 0 0 0.45497,0.47093 q 2.76174,0.58268 3.13689,3.44819 a 0.83011986,0.82213794 86.7 0 0 0.7982,0.71837 c 2.28283,0.0639 2.15512,1.50859 2.29081,3.48012 1.12545,16.08357 0.31927,32.87754 0.31927,49.06488 a 0.53478875,0.52680683 89.6 0 1 -0.51882,0.53478 l -15.00601,0.35121 a 0.83011986,0.82213794 88.9 0 1 -0.8381,-0.81416 q -0.34323,-20.38583 -0.20753,-40.84349 0.016,-2.44247 -1.05362,-4.58162 a 1.1972883,0.90993907 4.8 0 0 -0.55873,-0.50287 q -1.30106,-0.56671 -1.87575,-1.87575 a 1.1493967,0.90993907 85.2 0 0 -0.51085,-0.54277 q -3.44819,-1.54849 -7.19969,-0.47093 a 1.3170171,1.3170171 0 0 0 -0.94985,1.1494 q -0.20753,2.55421 -2.5143,2.05933 a 1.0536137,1.0536137 0 0 0 -1.25317,1.26115 q 0.68645,3.03313 -1.66024,2.62605 c -2.93734,-0.51085 -1.74804,1.79593 -1.83584,3.22469 q -0.39111,6.49729 0.27139,12.97861 a 0.58268028,0.63855374 4.1 0 0 0.41506,0.52681 z"
     id="path1023"
     style="stroke-width:0.798192;fill:#ffffff" />
  <path
     fill="#000000"
     d="m 36.269031,129.40654 q 1.356926,0.016 1.133432,-1.80391 c -0.423041,-3.45618 2.147137,-1.15738 3.009185,-3.41627 q 0.16762,-0.46295 0.391114,-0.68644 c 6.074242,-6.2259 17.312788,-6.36159 24.751939,-3.55994 1.197288,0.44699 2.362649,0.19955 2.354667,2.02741 a 0.76626448,0.77424641 77.6 0 0 1.093523,0.69443 q 1.173343,-0.55076 1.843824,0.38313 a 0.6624995,1.0137041 26.4 0 1 0.0878,0.74232 q -0.439005,1.85978 2.179065,1.54849 1.644276,-0.19157 1.277108,1.42078 -0.670482,2.95331 1.78795,2.39458 a 1.2451798,1.2451798 0 0 1 1.476656,0.90994 q 0.774246,3.05707 1.795932,2.88945 1.572438,-0.27138 1.58042,1.325 c 0.03991,16.65827 0.83012,33.88326 0.02395,50.71713 a 0.88599331,0.89397523 1.4 0 1 -0.885993,0.85407 l -15.413091,0.008 a 0.89397523,0.90195715 0.3 0 1 -0.893975,-0.90994 q 0.159638,-22.14185 -0.590662,-42.99063 -0.06386,-1.74804 -1.859788,-2.2509 a 0.93388484,0.52680683 75.5 0 1 -0.470934,-0.4869 l -0.965812,-1.99548 a 1.0296679,0.52680683 7 0 0 -0.62259,-0.42304 q -2.961293,-0.85407 -5.914604,-0.19955 a 1.8118962,1.8198781 4.4 0 0 -1.309035,1.12545 q -0.83012,2.20301 -2.586143,2.77771 a 1.221234,1.0137041 3.9 0 0 -0.606626,0.43901 q -1.324999,1.97153 -3.456172,3.03313 a 0.7343368,0.79021025 79.7 0 0 -0.423042,0.56671 q -1.061595,7.22364 0.439006,15.34924 a 1.5165651,1.524547 87.6 0 0 1.348945,1.2372 q 0.62259,0.0559 0.941867,0.9259 c 0.638553,1.70813 1.588402,2.60211 3.20075,3.42424 a 0.93388484,0.99774021 3 0 1 0.470934,0.55874 c 0.933884,2.84156 4.956773,2.40256 7.343367,2.23494 q 1.628312,-0.11175 1.708132,1.52454 0.295331,6.1381 0.183584,12.92273 c -0.03193,1.54052 0.574698,3.52003 -1.795932,3.43223 -6.241863,-0.22349 -11.262492,0.3991 -16.40285,-3.52801 -1.005722,-0.75828 -1.795932,-0.5747 -2.306775,-2.17108 q -0.41506,-1.30105 -1.771987,-1.40482 -1.16536,-0.0958 -1.324999,-2.11521 -0.119728,-1.45271 -1.572438,-1.45271 -0.79021,-0.008 -1.500601,-0.91792 a 0.97379445,1.3649086 18.4 0 1 -0.223494,-0.72635 q -0.04789,-2.41054 -1.524547,-2.94533 a 2.1870465,2.2109923 1 0 1 -1.356927,-1.42079 q -0.822138,-2.61807 -2.649998,-2.8256 a 0.82213794,0.82213794 0 0 1 -0.726355,-0.76626 Q 26.82642,152.53817 27.385155,138.09089 a 0.89397523,0.90195715 7.7 0 1 1.093523,-0.8381 q 3.07304,0.71837 2.298793,-2.61009 -0.399096,-1.71611 1.348945,-1.50858 2.250902,0.27138 1.62033,-2.9134 a 0.70240911,0.76626448 85.5 0 1 0.782229,-0.83811 z"
     id="path1025"
     style="stroke-width:0.798192;fill:#ffffff" />
  <path
     fill="#000000"
     d="m 222.7347,128.86377 1.43675,0.88599 a 0.50286107,1.0137041 0.7 0 1 0.32725,0.67847 q 0.23148,1.54849 1.31702,2.66596 a 1.4527097,1.0855414 25.1 0 1 0.35919,0.67048 c 0.79819,4.55768 0.33524,8.42093 0.1756,12.94668 -0.0479,1.3649 -0.95783,2.0274 -1.22922,3.07304 q -0.32725,1.25316 -0.41506,2.55421 a 0.65451758,0.65451758 0 0 1 -0.81415,0.59066 q -2.98524,-0.77424 -2.21099,2.53825 a 0.94984868,0.94984868 0 0 1 -1.06958,1.15738 q -2.95331,-0.44698 -2.19503,1.36491 5.64322,13.43358 11.23855,26.76338 a 0.79819217,0.79021025 79.1 0 1 -0.74232,1.10151 l -15.30135,-0.19955 a 1.2531617,1.2451798 78.2 0 1 -1.12545,-0.74232 l -10.40842,-23.55465 q -0.31928,-0.71837 -0.31928,-1.50858 v -10.6399 a 0.87002947,0.87002947 0 0 1 0.87003,-0.87003 c 1.325,0 4.43795,0.63855 4.50978,-1.48464 a 0.79021025,0.79819217 86.8 0 1 0.67847,-0.7503 c 3.75948,-0.55873 2.90542,-5.72304 2.75376,-8.39698 a 1.428764,1.4207821 88.3 0 0 -1.42078,-1.34096 h -8.70828 a 1.2771075,1.2771075 0 0 0 -1.27711,1.2771 v 47.46051 a 0.75030064,0.75030064 0 0 1 -0.7503,0.7503 h -15.32529 a 0.94186676,0.94186676 0 0 1 -0.94186,-0.93388 l -0.0958,-51.49138 a 0.51084299,0.42304185 88.1 0 1 0.39112,-0.50286 l 2.46641,-0.20753 a 0.94186676,1.1094871 80.7 0 0 1.02967,-1.20527 c -1.28509,-4.68539 4.60557,-0.0319 3.04909,-4.92485 q -0.59864,-1.87575 1.79594,-1.39683 2.45045,0.48689 2.29081,-1.74805 a 0.59066221,0.49487915 78.5 0 1 0.31129,-0.56671 l 1.80392,-0.74232 q 0.40708,-0.1756 0.64653,-0.43102 c 4.9009,-5.39578 13.4256,-3.85527 18.9411,-0.15166 2.65,1.77997 6.41747,3.82334 7.4631,6.8006 a 1.117469,0.50286107 21.5 0 0 0.49488,0.51084 z"
     id="path1027"
     style="stroke-width:0.798192;fill:#ffffff" />
  <path
     fill="#000000"
     d="m 102.22365,163.75275 q 1.74804,0.53479 3.01717,2.98524 a 1.5165651,1.532529 82.2 0 0 1.06159,0.79819 c 2.09126,0.39111 8.00586,1.22123 8.05376,-2.01943 a 0.67846334,0.67048142 76.9 0 1 0.35918,-0.58268 q 4.82907,-2.52228 0.25542,-4.51776 a 0.59864413,0.65451758 9.6 0 1 -0.35918,-0.55874 c -0.0559,-1.69217 -0.9259,-2.52229 -2.66596,-2.5622 q -10.34457,-0.21551 -20.689141,-0.22349 -0.925903,0 -1.221234,-1.10949 a 1.3329809,0.64653566 87.8 0 0 -0.359186,-0.67048 l -1.676204,-1.38087 a 1.4048182,0.98975829 20.2 0 1 -0.431024,-0.62259 Q 86.85845,150.71827 84.408,149.85622 a 0.64653566,0.59864413 7.7 0 1 -0.423042,-0.51084 q -0.798192,-7.86219 -0.566716,-15.44502 a 0.76626448,0.76626448 0 0 1 0.814156,-0.74232 q 2.69789,0.19157 2.370631,-2.49834 -0.20753,-1.72409 1.500601,-1.46069 c 4.573641,0.68645 -0.391114,-4.61355 3.839304,-3.78343 a 1.0695775,1.0695775 0 0 0 1.277108,-1.10151 c -0.167621,-3.44819 2.929365,-0.27138 3.336443,-2.9134 a 0.78222833,0.69442719 83.8 0 1 0.399096,-0.56671 c 5.866709,-2.65 10.328599,-2.86551 16.785979,-2.20301 2.68192,0.27936 4.92484,1.35692 7.56686,2.1152 a 0.45496954,0.48689722 9.9 0 1 0.32726,0.50287 q -0.15166,1.81987 1.8997,1.34894 1.98749,-0.45497 1.59638,1.39684 -0.44699,2.11521 1.39684,1.39683 2.09126,-0.81415 1.59638,1.59639 -0.61461,3.0012 2.39458,2.39457 1.78795,-0.35918 1.19729,1.79594 c -0.51883,1.89969 0.47093,1.97153 1.96355,1.85978 2.01943,-0.14367 1.06958,2.30678 1.14141,3.50407 q 0.19955,3.20873 0.0639,5.96249 a 1.2292159,1.2691256 1.7 0 1 -1.24518,1.21326 l -15.28538,-0.15964 a 0.69442719,0.63057181 75.4 0 1 -0.58268,-0.38314 q -1.25316,-2.57017 -3.0012,-3.49608 a 0.94984868,0.90993907 6.1 0 1 -0.47094,-0.55873 q -0.43102,-1.42877 -1.49262,-2.44247 a 1.0536137,0.90195715 62.9 0 0 -0.69442,-0.28735 l -5.69909,0.12771 a 1.628312,1.835842 6.9 0 0 -1.59639,1.4128 q -0.53479,2.27485 -2.44246,2.58614 a 0.7343368,0.63057181 4.3 0 0 -0.55076,0.40708 q -1.03765,2.57816 2.01145,2.93735 a 0.58268028,0.59864413 86.1 0 1 0.50286,0.42304 l 0.59066,2.21898 a 0.53478875,0.52680683 83 0 0 0.50286,0.39909 c 8.80406,0.24744 14.54306,-0.39909 21.1042,0.5747 a 1.0775594,1.2451798 76 0 1 0.67846,0.34322 q 0.90994,0.93389 0.79021,1.8997 a 1.0775594,1.0855414 2.9 0 0 1.09353,1.22123 q 1.81189,-0.0479 2.13915,2.55422 a 0.917921,0.917921 0 0 0 1.11747,0.78223 c 1.59638,-0.35121 2.35467,0.25542 2.4744,1.85979 q 0.55873,7.07996 0.10376,14.15992 a 0.62258989,0.53478875 84.4 0 1 -0.38313,0.54278 l -2.2509,0.7503 a 0.45496954,0.48689722 76.8 0 0 -0.32726,0.48689 q 0.27138,2.68193 -2.21099,3.01717 a 1.2930713,0.88599331 10.6 0 0 -0.68645,0.30331 q -0.81416,0.83012 -0.96581,2.01943 a 1.0775594,0.55873452 87.2 0 1 -0.31928,0.69443 l -1.65226,1.22123 q -0.39111,0.28735 -0.51882,0.55075 c -0.79021,1.64428 -2.10723,1.96356 -3.43223,2.77771 -9.00361,5.53147 -21.24787,4.75723 -28.93446,-3.00918 q -0.375151,-0.37515 -1.596385,-1.21326 c -1.748041,-1.19728 -1.380872,-2.88147 -3.82334,-4.04683 a 0.98177637,1.0695775 0.2 0 1 -0.494879,-0.54277 Q 86.603069,172.03 84.344185,170.7928 a 0.94186676,0.9578306 9.6 0 1 -0.486897,-0.69442 q -0.654518,-4.24639 -0.383133,-8.3012 a 1.1493967,1.1414148 0.4 0 1 1.093524,-1.06958 q 7.942012,-0.3991 15.620621,0.34322 a 0.9578306,1.2451798 75.5 0 1 0.69443,0.29533 q 0.76626,0.75829 0.91792,1.88374 a 0.62258989,0.62258989 0 0 0 0.42304,0.50286 z"
     id="path1029"
     style="stroke-width:0.798192;fill:#ffffff" />
  <path
     fill="#000000"
     d="m 291.67456,166.31495 -1.77199,-0.14368 a 0.43102377,0.42304185 2.3 0 1 -0.3991,-0.42304 l -0.3512,-26.49998 q -0.024,-1.78795 1.77997,-1.89172 c 2.92936,-0.16762 0.70241,-4.20647 4.18253,-4.74126 a 1.3649086,1.3649086 0 0 0 1.11746,-1.65226 c -0.94186,-4.13463 4.34217,-0.0639 3.50407,-4.77318 a 1.4367459,0.89397523 1.9 0 1 1.64427,-0.94985 c 3.40828,0.39909 -0.91792,-3.16883 3.36039,-3.01717 a 1.2771075,1.2771075 0 0 0 1.31702,-1.34096 c -0.10376,-1.92365 3.24066,0.24744 4.42997,-1.95557 a 0.59066221,0.75030064 17.8 0 1 0.57469,-0.39112 h 12.46777 a 0.41505993,0.41505993 0 0 1 0.41506,0.41506 l 0.0958,16.36294 a 0.41505993,0.41505993 0 0 1 -0.40708,0.41506 l -8.89984,0.28735 a 1.0536137,1.0536137 0 0 0 -0.98976,1.30904 q 0.53479,2.12319 -1.08554,2.08328 -1.40482,-0.0399 -1.81988,1.30105 -0.79021,2.53027 -2.57018,2.8256 a 1.6762036,1.6682216 87.5 0 0 -1.38885,1.51657 q -0.4869,6.50526 0.55873,14.35947 a 1.0855414,1.0855414 0 0 0 1.00572,0.93389 c 1.8997,0.10376 2.05136,3.20873 4.42199,4.07876 a 1.524547,0.89397523 3.7 0 1 0.63855,0.43102 q 0.60663,0.83012 0.63856,1.76401 a 1.0775594,1.0296679 89.7 0 0 0.99774,1.02967 l 7.95797,0.25542 a 0.92590292,0.94984868 89.2 0 1 0.90994,0.86205 q 0.51883,8.02981 0.0559,16.09953 a 1.2850894,1.2771075 88.3 0 1 -1.12546,1.19729 c -3.91912,0.47093 -14.14396,-0.27937 -17.03342,-3.82334 q -0.22349,-0.27139 -0.63057,-0.43102 l -1.54051,-0.59865 a 0.51882491,0.6624995 8.9 0 1 -0.33524,-0.59864 q 0.0718,-2.54624 -2.24292,-2.25889 a 1.1414148,1.1414148 0 0 1 -1.27711,-1.22921 c 0.42304,-4.85301 -4.37409,0.0239 -3.48012,-3.82334 q 0.35919,-1.5485 -0.90993,-2.41054 a 0.67846334,0.94984868 59.7 0 0 -0.71838,-0.0639 q -1.94759,0.55075 -1.74006,-2.76174 0.0958,-1.62033 -1.35692,-1.74804 z"
     id="path1031"
     style="stroke-width:0.798192;fill:#ffffff" />
</svg>
