<?xml version="1.0" encoding="UTF-8" standalone="no"?>
<svg
   version="1.1"
   viewBox="0 0 500 200"
   id="svg32"
   sodipodi:docname="coco-mono.svg"
   width="500"
   height="200"
   inkscape:version="1.2.2 (b0a8486541, 2022-12-01)"
   xmlns:inkscape="http://www.inkscape.org/namespaces/inkscape"
   xmlns:sodipodi="http://sodipodi.sourceforge.net/DTD/sodipodi-0.dtd"
   xmlns="http://www.w3.org/2000/svg"
   xmlns:svg="http://www.w3.org/2000/svg">
  <defs
     id="defs36" />
  <sodipodi:namedview
     id="namedview34"
     pagecolor="#505050"
     bordercolor="#ffffff"
     borderopacity="1"
     inkscape:showpageshadow="0"
     inkscape:pageopacity="0"
     inkscape:pagecheckerboard="1"
     inkscape:deskcolor="#505050"
     showgrid="false"
     inkscape:zoom="1.1191667"
     inkscape:cx="347.58004"
     inkscape:cy="205.06329"
     inkscape:window-width="1670"
     inkscape:window-height="910"
     inkscape:window-x="0"
     inkscape:window-y="0"
     inkscape:window-maximized="1"
     inkscape:current-layer="svg32" />
  <path
     fill="#000000"
     d="m 414.31909,14.525042 c 5.8696,2.151406 6.85176,6.606221 6.83422,12.358894 q -0.12862,37.544378 -0.13446,75.088754 0,3.69481 -0.81263,5.50713 c -1.52586,3.40835 -5.4662,5.92806 -8.83362,5.92806 q -163.13272,0.0292 -326.271283,-0.0351 -2.496333,0 -4.080656,-0.71908 -4.571739,-2.06369 -6.243755,-7.1382 C 74.309209,104.09487 74.63075,99.260049 74.63075,97.716649 q 0,-36.375135 0,-72.750271 0,-3.0868 0.754162,-4.817279 1.806479,-4.127426 6.407449,-5.641595 a 0.21630987,0.17538638 66.4 0 0 0.076,-0.286465 c -0.128616,-0.257233 0.146156,-0.344926 0.350773,-0.344926 q 8.617318,-0.14031 30.704306,-0.146156 244.01507,-0.04092 300.60641,0.03508 0.36247,0 0.4677,0.374158 a 0.61969855,0.47354323 87.5 0 0 0.32154,0.38585 z m -223.99764,24.308553 -11.30658,0.07015 a 0.9178554,0.88862433 89.4 0 0 -0.88277,0.929548 l 0.11692,7.728693 a 0.36246519,0.37415761 89.6 0 1 -0.37416,0.368312 c -9.91517,0.05846 -19.61988,5.588979 -19.50296,16.661706 0.19293,17.760794 21.11067,14.761687 32.35878,14.761687 a 0.38585004,0.38585004 0 0 0 0.38585,-0.38585 V 39.62868 a 0.79508493,0.78923872 89.8 0 0 -0.79508,-0.795085 z m -69.225,23.332235 q 8.02685,-4.174196 6.49514,-13.656753 c -1.26863,-7.851464 -9.98533,-9.821638 -16.56817,-9.728098 q -6.50683,0.08769 -13.054589,0.08769 A 0.53785157,0.53785157 0 0 0 97.43098,39.40652 l 0.03508,39.619784 a 0.29231064,0.29231064 0 0 0 0.292311,0.292311 l 10.979189,0.03508 a 0.38585004,0.38585004 0 0 0 0.38585,-0.38585 q 0,-3.536959 0,-7.027148 c 0,-2.303408 1.90002,-1.683709 2.65418,-0.192925 q 1.75971,3.484343 3.16865,6.980378 a 0.99970237,0.99385616 79 0 0 0.9237,0.625545 h 12.2712 a 0.34492655,0.33908034 77.1 0 0 0.304,-0.491082 L 120.85675,62.84399 a 0.50862051,0.52615914 63.6 0 1 0.2397,-0.67816 z M 259.28337,49.380162 q -1.68955,6.109293 -1.52001,13.311827 0.0877,3.659729 -2.88803,5.132974 c -1.30371,0.643084 -2.95818,0.549544 -4.46066,0.654776 a 0.31569549,0.3215417 87.7 0 0 -0.29816,0.315696 l -0.0701,10.955802 a 0.31569549,0.31569549 0 0 0 0.29815,0.315696 C 260.79175,80.610631 269.54937,79.114 270.38538,66.67326 q 0.33908,-5.045282 0.71324,-10.084717 c 0.34493,-4.676971 3.43173,-4.595124 7.10315,-4.741279 a 0.48523565,0.48523565 0 0 0 0.46185,-0.485236 V 40.593305 a 0.54954399,0.54369778 1 0 0 -0.53201,-0.543698 c -8.20808,-0.222156 -16.18231,-0.304003 -18.84819,9.330555 z m 20.50852,30.248305 a 0.40923489,0.42092731 0.4 0 0 0.40339,0.420927 l 11.38257,0.181233 a 0.66646825,0.6898531 0.2 0 0 0.67816,-0.6957 q -0.0292,-9.663789 0.0702,-19.000191 0.0175,-1.631093 1.78309,-1.812326 a 0.99385616,0.99385616 0 0 1 1.0114,0.584621 q 0.63723,1.432323 0.6197,2.508026 -0.12277,8.769319 -0.12277,17.866026 a 0.54954399,0.54954399 0 0 0 0.54954,0.549544 h 11.94381 a 0.65477582,0.64892961 0.3 0 0 0.65478,-0.643084 q 0.0935,-10.803801 -0.11693,-20.870979 C 308.42664,48.053072 301.42287,48.017995 293.10371,48.397999 a 0.53200536,0.53200536 0 0 1 -0.55539,-0.532006 v -7.331151 a 0.49692808,0.49692808 0 0 0 -0.49692,-0.496928 h -11.92043 a 0.33908034,0.33908034 0 0 0 -0.33908,0.339081 z M 386.56127,58.278098 386.42096,40.441303 a 0.30400306,0.30400306 0 0 0 -0.304,-0.304003 l -9.3364,-0.08769 a 0.33908034,0.34492655 0 0 0 -0.33908,0.344926 v 39.304088 a 0.49692808,0.49108187 0 0 0 0.49692,0.491082 l 9.25456,0.0058 a 0.29815685,0.29815685 0 0 0 0.29816,-0.292311 q 0.0585,-4.174196 0.0409,-8.348392 c -0.0175,-3.162801 1.60186,-3.90527 2.95234,-0.836008 q 2.01109,4.577584 4.04558,9.13763 a 0.4618508,0.45600459 77.6 0 0 0.41508,0.268926 l 13.25336,0.07015 a 0.26892578,0.26307957 76.3 0 0 0.23385,-0.391697 l -8.92717,-17.608792 a 0.9178554,0.93539403 49.1 0 1 0.076,-0.947087 l 6.34899,-8.857012 q 0.39754,-0.55539 -0.27477,-0.561237 l -12.08412,-0.09354 a 1.4615532,1.7246327 21.8 0 0 -1.26863,0.672314 l -4.54835,5.933906 q -0.18708,0.239695 -0.19293,-0.06431 z m -143.91785,5.041248 a 16.878016,16.585705 0.8 0 0 -16.64482,-16.81973 16.878016,16.585705 0.8 0 0 -17.10794,16.348408 16.878016,16.585705 0.8 0 0 16.64481,16.819729 16.878016,16.585705 0.8 0 0 17.10795,-16.348407 z m 119.01298,1.9859 q 0.45601,0.684007 0.89448,1.379706 a 0.54369778,0.49692808 73 0 0 0.43846,0.257233 l 11.41181,0.116925 a 0.46769702,0.47938944 0.3 0 0 0.47354,-0.47939 q -0.0234,-5.226514 -1.83571,-9.359786 c -6.55945,-14.98969 -27.96828,-12.218585 -31.42924,3.554497 -2.21571,10.102255 6.68807,20.257127 16.97156,19.923893 6.30221,-0.204618 11.97889,-4.425583 14.90784,-9.821638 a 0.19292502,0.18707881 16.3 0 0 -0.15785,-0.280618 q -5.03359,-0.356619 -10.07887,-0.06431 a 0.56123642,0.60215991 17 0 0 -0.456,0.263079 c -1.64864,2.391101 -5.20313,3.431727 -7.55331,1.788942 -6.62961,-4.624355 2.61326,-13.025362 6.41329,-7.278535 z M 207.36637,48.532111 a 0.31569549,0.31569549 0 0 0 -0.31511,-0.316222 l -12.33551,-0.02157 a 0.31569549,0.31569549 0 0 0 -0.31622,0.315169 l -0.0533,30.517172 a 0.31569549,0.31569549 0 0 0 0.31511,0.316221 l 12.33551,0.02157 a 0.31569549,0.31569549 0 0 0 0.31623,-0.315169 z m -50.30402,8.313665 c -0.0935,-3.548651 -2.36772,-7.600077 -6.28468,-7.892387 q -9.87425,-0.736623 -19.54973,-0.339081 a 0.49108187,0.49108187 0 0 0 -0.47355,0.491082 v 8.804397 a 0.39754246,0.39754246 0 0 0 0.39754,0.397542 h 10.52319 a 0.94708646,0.93539403 85.9 0 1 0.92954,0.812624 q 0.17539,1.303705 -1.47324,1.408937 c -2.32095,0.152001 -4.87574,-0.163694 -6.92776,0.643083 -4.63605,1.829865 -7.01546,6.477604 -5.98652,11.30073 1.29785,6.074215 7.20838,6.880992 12.62197,6.880992 q 11.12534,0.0058 15.93093,-0.134463 a 0.31569549,0.31569549 0 0 0 0.304,-0.304003 q 0.30985,-10.149025 -0.0117,-22.069453 z m 167.64599,3.648037 q -0.67231,0.935394 -1.81817,0.818469 -8.90963,-0.888624 -11.67489,5.612365 c -3.33234,7.839771 1.94094,12.849975 9.54102,13.148132 q 8.52962,0.333234 17.89526,0.01754 a 0.67816067,0.67231446 89.7 0 0 0.65477,-0.666469 q 0.18708,-11.031803 -0.19292,-21.402984 c -0.228,-6.138524 -3.26803,-8.646549 -9.29548,-8.640703 q -8.1847,0.01169 -16.34016,0.01169 a 0.3683114,0.37415761 0 0 0 -0.36832,0.374157 v 8.558856 a 0.59046748,0.57877506 87.9 0 0 0.6197,0.590467 q 5.27329,-0.409235 10.24257,0.09354 a 0.6898531,0.92370161 76 0 1 0.51446,0.21631 q 0.67232,0.643083 0.22216,1.268628 z"
     id="path2"
     style="stroke-width:0.584621;fill:#ffffff" />
  <circle
     fill="#000000"
     cx="110.49726"
     cy="60.125504"
     r="4.9575882"
     id="circle4"
     style="stroke-width:0.584621;fill:#ffffff" />
  <circle
     fill="#000000"
     cx="225.79042"
     cy="67.731422"
     r="4.9926658"
     id="circle6"
     style="stroke-width:0.584621;fill:#ffffff" />
  <circle
     fill="#000000"
     cx="140.82742"
     cy="68.754509"
     r="5.0218968"
     id="circle8"
     style="stroke-width:0.584621;fill:#ffffff" />
  <circle
     fill="#000000"
     cx="175.18561"
     cy="68.748665"
     r="4.9809737"
     id="circle10"
     style="stroke-width:0.584621;fill:#ffffff" />
  <circle
     fill="#000000"
     cx="323.07141"
     cy="69.426826"
     r="4.9868193"
     id="circle12"
     style="stroke-width:0.584621;fill:#ffffff" />
  <path
     fill="#000000"
     d="m 123.18939,130.39697 0.10523,28.99137 a 0.59046748,0.58462127 1.3 0 1 -0.62554,0.59047 q -4.79389,-0.25723 -10.60503,0.0935 -1.1517,0.0701 -1.1517,-1.0757 l -0.0351,-28.38337 a 0.52031293,0.52031293 0 0 0 -0.5437,-0.52031 q -8.5764,0.30985 -16.45709,-0.0117 a 0.56123642,0.56708263 1.2 0 1 -0.537852,-0.56708 v -9.22533 a 0.44431217,0.45015838 0 0 1 0.444312,-0.45016 l 46.226,-0.11107 a 0.68400689,0.68400689 0 0 1 0.68401,0.684 v 9.2721 a 0.39169625,0.39169625 0 0 1 -0.37416,0.39169 q -8.37762,0.30985 -16.83709,0.0292 a 0.28646442,0.29231064 0.6 0 0 -0.29231,0.29231 z"
     id="path14"
     style="stroke-width:0.584621;fill:#ffffff" />
  <path
     fill="#000000"
     d="m 190.7833,145.03589 c 3.27972,0.38 6.05083,1.40894 6.61791,5.05697 q 0.55539,3.60127 0.26893,9.45918 a 0.30984927,0.3215417 0.6 0 1 -0.30401,0.30985 l -11.5755,0.16369 a 0.52031293,0.50277429 87.9 0 1 -0.50862,-0.49108 q -0.152,-2.78865 -0.0994,-5.34929 c 0.10523,-4.94589 -3.10434,-4.66527 -7.13238,-4.69451 q -8.40101,-0.0702 -16.99494,-0.12861 a 0.33323412,0.33323412 0 0 0 -0.33908,0.33323 v 9.71056 a 0.48523565,0.49108187 89.7 0 1 -0.48523,0.48524 l -10.97334,0.10523 a 0.93539403,0.95293267 89.6 0 1 -0.96463,-0.9354 v -38.83639 a 0.38585004,0.38585004 0 0 1 0.38585,-0.38585 q 17.11771,-0.14031 34.32311,-0.006 c 5.67667,0.0409 12.21858,0.006 14.39922,6.43668 1.14586,3.37911 1.27448,9.95025 0.076,12.98444 q -1.55509,3.95204 -6.72899,5.36097 -1.0757,0.29231 0.0351,0.42093 z m -5.51298,-13.3469 c -1.11663,-2.26249 -3.15111,-2.04033 -5.40775,-2.05787 q -8.99147,-0.076 -18.62603,-0.152 a 0.52615914,0.53785157 0.6 0 0 -0.532,0.532 l -0.0935,9.22533 a 0.31569549,0.32738791 0.5 0 0 0.30985,0.32739 q 10.43549,0.10523 20.28635,-0.10524 2.10464,-0.0468 3.03419,-0.61969 c 1.9234,-1.18679 1.88248,-5.41944 1.02893,-7.14992 z"
     id="path16"
     style="stroke-width:0.584621;fill:#ffffff" />
  <path
     fill="#000000"
     d="m 221.20114,146.76637 c 0.1637,3.05757 0.91786,4.20927 4.11574,4.34958 q 7.07392,0.304 16.62663,-0.0351 c 5.30836,-0.19292 5.92221,-6.6296 0.12277,-6.89268 q -8.21978,-0.36831 -16.45709,-0.16369 -5.95729,0.14615 -10.52318,-0.94709 c -6.46592,-1.54925 -6.93361,-10.33026 -5.66498,-15.45739 q 1.42647,-5.75852 7.56499,-6.75822 c 10.02041,-1.63694 21.59007,-1.30955 30.40031,-0.73078 7.25515,0.47355 9.68133,5.02775 9.3364,11.62812 a 0.38000383,0.38000383 0 0 1 -0.38,0.35662 h -10.56411 q -0.68985,0 -1.20432,-1.28032 c -0.67816,-1.67202 -1.90586,-2.19818 -3.73573,-2.29172 q -9.28378,-0.48523 -17.42171,0.64893 -2.04618,0.28647 -2.19233,2.48464 c -0.24554,3.60127 4.10404,3.18619 6.36652,3.22711 7.21423,0.14616 14.49861,-0.0877 21.70115,0.3157 q 6.7816,0.38 8.47116,6.83422 c 1.11078,4.23266 1.09324,11.30073 -2.36187,14.55707 -2.13972,2.02279 -6.00991,2.57818 -8.86286,2.78865 q -12.09581,0.90031 -26.04488,0.19292 c -8.96224,-0.456 -11.98473,-3.77081 -11.38257,-12.82659 a 0.30400306,0.30984927 1.8 0 1 0.304,-0.29231 l 11.47611,-0.006 a 0.31569549,0.30984927 88.3 0 1 0.30985,0.29816 z"
     id="path18"
     style="stroke-width:0.584621;fill:#ffffff" />
  <path
     fill="#000000"
     d="m 329.56654,139.6983 q 5.84037,0.40923 6.96284,6.15606 c 1.85325,9.46502 -2.27417,13.71522 -11.39427,13.90229 q -9.48255,0.19293 -18.96511,0.14616 c -5.1739,-0.0234 -8.14377,0.16954 -11.68658,-1.51417 -4.56005,-2.16894 -4.92251,-8.54716 -3.85265,-12.82074 0.80093,-3.18619 2.77695,-4.97513 5.9339,-5.52468 0.29231,-0.0468 1.85325,-0.456 0.0643,-0.69569 -6.52437,-0.87109 -6.98622,-9.14348 -5.28498,-13.98999 1.87079,-5.34929 8.93886,-5.52467 13.62753,-5.52467 8.08531,0.006 16.86047,-0.72493 24.88148,0.8477 3.37911,0.66062 5.29082,2.43787 6.19698,5.81698 1.30955,4.87574 0.62555,12.21274 -5.9339,12.67459 q -0.40339,0.0292 -0.66063,0.28062 -0.23384,0.22215 0.11108,0.24554 z m -27.28427,-9.74564 c -1.5434,4.14497 1.13416,5.34344 4.68866,5.44283 q 5.64744,0.15784 11.30073,0.0818 c 2.66587,-0.0351 6.61791,0.17539 6.83422,-3.39665 0.33324,-5.57728 -8.20808,-4.29696 -13.06628,-4.22096 -2.67757,0.0351 -5.15052,-0.0234 -7.8047,0.456 q -1.44401,0.26308 -1.95263,1.63694 z m 2.98157,13.18321 c -3.53696,0.11108 -4.74713,4.57759 -2.82372,6.66468 2.33848,2.54311 8.28993,2.3268 11.48196,1.97018 a 0.28646442,0.77170008 36.5 0 0 0.43262,-0.28062 c 0.17538,-0.17539 6.52437,-0.42677 8.249,-0.66062 3.43173,-0.47355 3.43758,-5.32006 1.33294,-6.81669 -2.53141,-1.80063 -15.11831,-0.98801 -18.6728,-0.87693 z"
     id="path20"
     style="stroke-width:0.584621;fill:#ffffff" />
  <path
     fill="#000000"
     d="m 350.35568,123.87845 q 0.67231,-0.74247 1.52586,-1.26863 c 5.90467,-3.66558 14.22383,-2.78864 22.0753,-2.77111 q 7.21422,0.0117 12.26535,0.80678 c 8.22562,1.29201 9.13763,6.72899 9.69302,14.34076 q 0.53201,7.34284 -0.532,14.63892 c -0.99971,6.82253 -4.12158,9.20194 -10.67519,9.77487 -8.12623,0.70154 -18.07064,0.74246 -26.50673,0.0935 -5.44282,-0.42092 -9.43578,-2.11632 -10.55241,-7.64684 q -1.12832,-5.58898 -0.89447,-12.50505 c 0.18708,-5.39021 -0.11108,-11.40012 3.60127,-15.46323 z m 9.83917,7.64684 q -0.92955,0.79509 -1.11663,2.0111 -0.85354,5.6416 -0.28646,10.9558 c 0.38,3.54865 1.44986,5.04528 5.08036,5.30836 q 7.85146,0.56709 14.09522,-0.0468 c 3.68896,-0.35661 6.01575,-1.19847 6.22037,-5.21482 q 0.228,-4.54835 0.0117,-8.52378 c -0.21631,-3.82342 -1.3154,-5.79359 -5.27328,-6.09175 -4.84651,-0.36246 -15.49247,-1.17509 -18.73127,1.60186 z"
     id="path22"
     style="stroke-width:0.584621;fill:#ffffff" />
  <rect
     fill="#000000"
     x="263.44403"
     y="140.08879"
     transform="rotate(-0.1)"
     width="20.812517"
     height="10.476413"
     rx="0.53785157"
     id="rect24"
     style="stroke-width:0.584621;fill:#ffffff" />
  <rect
     fill="#000000"
     x="93.326935"
     y="165.73148"
     width="95.608955"
     height="20.169434"
     rx="0.15200153"
     id="rect26"
     style="stroke-width:0.584621;fill:#ffffff" />
  <rect
     fill="#000000"
     x="196.81076"
     y="165.73148"
     width="95.293266"
     height="20.169434"
     rx="0.26307955"
     id="rect28"
     style="stroke-width:0.584621;fill:#ffffff" />
  <rect
     fill="#000000"
     x="300.28287"
     y="165.73148"
     width="95.608955"
     height="20.169434"
     rx="0.15200153"
     id="rect30"
     style="stroke-width:0.584621;fill:#ffffff" />
</svg>
