<?xml version="1.0" encoding="UTF-8" standalone="no"?>
<svg
   enable-background="new 0 0 559.249 81.18"
   viewBox="0 0 499.99998 200"
   version="1.1"
   id="svg49"
   sodipodi:docname="fm7-mono.svg"
   width="500"
   height="200"
   inkscape:version="1.2.2 (b0a8486541, 2022-12-01)"
   xml:space="preserve"
   xmlns:inkscape="http://www.inkscape.org/namespaces/inkscape"
   xmlns:sodipodi="http://sodipodi.sourceforge.net/DTD/sodipodi-0.dtd"
   xmlns="http://www.w3.org/2000/svg"
   xmlns:svg="http://www.w3.org/2000/svg"><defs
     id="defs53"><rect
       x="83.638153"
       y="41.480737"
       width="337.56025"
       height="138.51746"
       id="rect1219" /></defs><sodipodi:namedview
     id="namedview51"
     pagecolor="#505050"
     bordercolor="#ffffff"
     borderopacity="1"
     inkscape:showpageshadow="0"
     inkscape:pageopacity="0"
     inkscape:pagecheckerboard="1"
     inkscape:deskcolor="#505050"
     showgrid="false"
     showguides="true"
     inkscape:zoom="1.2007174"
     inkscape:cx="205.71036"
     inkscape:cy="184.47306"
     inkscape:window-width="1670"
     inkscape:window-height="910"
     inkscape:window-x="0"
     inkscape:window-y="0"
     inkscape:window-maximized="1"
     inkscape:current-layer="svg49"><sodipodi:guide
       position="268.17301,120.04779"
       orientation="0,-1"
       id="guide2256"
       inkscape:locked="false" /><sodipodi:guide
       position="411.11816,75.299153"
       orientation="0,-1"
       id="guide2258"
       inkscape:locked="false" /></sodipodi:namedview><linearGradient
     id="a"
     gradientUnits="userSpaceOnUse"
     x1="102.2983"
     x2="355.62921"
     y1="38.639503"
     y2="38.639503"
     gradientTransform="matrix(1.0993119,0,0,1.0993119,-2.5457669,61.730504)"><stop
       offset="0"
       stop-color="#f50019"
       id="stop2" /><stop
       offset=".2761"
       stop-color="#f66d19"
       id="stop4" /><stop
       offset=".4785"
       stop-color="#fbfa35"
       id="stop6" /><stop
       offset=".681"
       stop-color="#74b719"
       id="stop8" /><stop
       offset=".7914"
       stop-color="#17710a"
       id="stop10" /><stop
       offset=".8834"
       stop-color="#226887"
       id="stop12" /><stop
       offset="1"
       stop-color="#3262d9"
       id="stop14" /></linearGradient><path
     style="fill:#ffffff;stroke-width:0.896763"
     d="m 214.02712,113.32815 c 0,-0.43944 0.66783,-1.35283 1.48406,-2.02975 3.544,-2.9391 3.89652,-6.00436 3.89652,-33.880883 0,-16.95185 -0.33119,-27.08346 -0.89676,-27.433 -2.27561,-1.4064 -0.40174,-2.24191 5.02814,-2.24191 5.33769,0 5.84873,0.15554 5.15639,1.56934 -0.42269,0.86313 -0.97029,13.47387 -1.2169,28.02385 -0.46656,27.526933 -0.56533,28.208783 -4.6379,32.016473 -2.44231,2.28348 -8.81355,5.1576 -8.81355,3.97588 z m -25.896,-17.119613 c -3.57984,-0.89553 -6.91449,-3.24071 -9.47073,-6.66054 -1.69993,-2.27423 -1.87113,-3.93197 -2.1243,-20.57014 -0.15144,-9.95312 -0.65587,-18.47994 -1.12095,-18.9485 -1.76719,-1.78042 -0.66378,-2.28675 4.98337,-2.28675 5.34605,0 7.19779,0.8417 4.93219,2.24191 -0.5469,0.33801 -0.89676,7.19826 -0.89676,17.58434 0,13.4358 0.28586,17.5829 1.35443,19.64928 1.63391,3.15963 3.86072,4.46587 7.6132,4.46587 3.75249,0 5.9793,-1.30624 7.61321,-4.46587 1.06856,-2.06638 1.35442,-6.21348 1.35442,-19.64928 0,-10.38608 -0.34985,-17.24633 -0.89676,-17.58434 -2.26559,-1.40021 -0.41386,-2.24191 4.9322,-2.24191 5.34605,0 7.19779,0.8417 4.93219,2.24191 -0.54825,0.33884 -0.89676,7.35253 -0.89676,18.04714 0,11.19875 -0.36299,18.1977 -1.00882,19.45167 -1.48637,2.88598 -4.50351,5.99983 -7.146,7.37506 -3.07513,1.60039 -10.37159,2.29639 -14.15413,1.35015 z m 100.47555,0.26728 c -1.30885,-0.28297 -2.56945,-1.59131 -3.36286,-3.49019 -1.83544,-4.39283 -1.5796,-5.13343 1.15449,-3.34199 1.72495,1.13024 4.20271,1.58861 8.59486,1.59001 5.65057,0.002 6.35397,-0.2103 8.33751,-2.51413 2.54379,-2.95457 2.81364,-6.96266 0.59695,-8.86668 -0.86313,-0.74139 -4.74611,-3.1243 -8.62884,-5.29537 -8.27646,-4.62787 -11.32414,-8.36538 -11.32414,-13.88734 0,-8.33082 6.79624,-13.36908 17.82314,-13.21284 7.14679,0.10127 8.14542,0.71166 8.16927,4.99333 0.0161,2.87784 -0.2087,2.94929 -3.17108,1.00826 -3.22322,-2.11193 -10.93233,-1.26513 -13.12411,1.44161 -2.24652,2.77433 -2.072,6.84196 0.39137,9.12186 1.10974,1.02709 5.1637,3.6564 9.00879,5.84292 4.34954,2.47337 7.65192,5.05931 8.74009,6.84396 3.86709,6.34223 1.05995,14.69343 -5.98676,17.81053 -3.89568,1.72324 -13.33539,2.7956 -17.21868,1.95606 z m 40.59231,-0.21082 c -3.86064,-0.98345 -7.69693,-3.42013 -9.80219,-6.22602 -1.61594,-2.15372 -1.83986,-4.21063 -2.26142,-20.77405 -0.25735,-10.111 -0.80496,-19.08985 -1.2169,-19.95298 -0.67383,-1.41183 -0.15435,-1.56934 5.1759,-1.56934 5.42988,0 7.30375,0.83551 5.02814,2.24191 -0.54952,0.33962 -0.89676,7.50533 -0.89676,18.50555 v 17.95132 l 2.62131,2.62131 c 4.77121,4.77121 13.2634,2.59891 14.87019,-3.80379 0.78259,-3.11851 0.11455,-34.12873 -0.77439,-35.94696 -0.69116,-1.41367 -0.17957,-1.56934 5.15764,-1.56934 5.42988,0 7.30375,0.83551 5.02814,2.24191 -0.54659,0.33782 -0.89676,7.16396 -0.89676,17.48143 0,9.81384 -0.40196,17.98806 -0.9565,19.45167 -1.17419,3.099 -4.10294,6.32984 -7.19833,7.94077 -2.99761,1.56005 -10.35025,2.30528 -13.87807,1.40661 z m -185.29873,-2.07006 c 1.37708,-1.37707 1.54741,-43.36491 0.17935,-44.21042 -2.89416,-1.78869 0.21321,-2.26804 13.22726,-2.04049 l 14.12402,0.24697 0.28412,3.58705 c 0.22879,2.88859 0.0629,3.36878 -0.85193,2.4661 -0.74487,-0.73497 -4.00776,-1.12096 -9.47594,-1.12096 h -8.3399 v 7.17411 7.1741 h 7.62249 7.62249 v 3.76641 c 0,2.92942 -0.23914,3.52727 -1.07612,2.69029 -0.64043,-0.64043 -3.72655,-1.07612 -7.62249,-1.07612 h -6.54637 v 9.47497 c 0,5.21123 0.41774,10.25552 0.92832,11.20954 0.87508,1.63511 0.582,1.73457 -5.11155,1.73457 -4.69767,0 -5.80073,-0.23914 -4.96375,-1.07612 z m 92.22906,-1.60832 c 1.09655,-2.19807 1.28182,-6.21934 1.0226,-22.19488 -0.17412,-10.73075 -0.64908,-20.21666 -1.05546,-21.07979 -0.65919,-1.40004 -0.17229,-1.56942 4.51343,-1.57014 l 5.25233,-8e-4 -0.26851,22.49879 c -0.19371,16.23148 0.0242,22.85151 0.78238,23.76502 0.88811,1.0701 0.0722,1.26624 -5.26753,1.26624 h -6.31841 z m 25.2469,1.60832 c 0.77264,-0.77263 1.07612,-6.71576 1.07612,-21.07393 v -19.99782 h -4.54277 c -2.49852,0 -5.32333,0.41774 -6.27734,0.92832 -1.99211,1.06614 -2.1236,0.45528 -0.75008,-3.48479 l 0.98449,-2.82411 h 15.45616 c 8.5009,0 15.67736,0.22119 15.94771,0.49154 0.27034,0.27034 0.083,2.10103 -0.41632,4.06818 -0.83528,3.29073 -1.02956,3.4665 -2.4304,2.19876 -0.91206,-0.82541 -3.2022,-1.3779 -5.71157,-1.3779 h -4.18901 v 19.33936 c 0,11.6162 0.37072,20.03207 0.92831,21.07394 0.87509,1.63511 0.58201,1.73457 -5.11155,1.73457 -4.69767,0 -5.80072,-0.23914 -4.96375,-1.07612 z m -42.49003,-49.96969 c -3.31753,-1.4163 -6.65258,-6.22846 -6.65258,-9.59904 0,-6.53561 4.59816,-11.0962 11.18762,-11.0962 2.67775,0 4.15854,0.8863 8.98955,5.38058 4.4671,4.15573 6.41143,5.38058 8.54116,5.38058 8.39722,0 12.82065,-8.87772 7.54652,-15.14568 -4.23195,-5.02938 -11.17051,-4.3833 -15.51781,1.44493 l -1.8582,2.49121 -0.0284,-3.3018 c -0.0231,-2.68346 0.49076,-3.67147 2.74379,-5.27577 3.66375,-2.60883 9.57604,-3.24852 13.11411,-1.41891 4.96777,2.56893 7.42995,6.42642 7.42618,11.63462 -0.006,8.81184 -5.28154,13.68594 -14.02719,12.96069 -4.36625,-0.36209 -5.22943,-0.83418 -10.20821,-5.58314 -4.90268,-4.67637 -5.72173,-5.13293 -8.31102,-4.63285 -5.60048,1.08165 -7.62707,6.3239 -4.15243,10.74119 2.54706,3.23806 8.0296,3.31732 11.18521,0.1617 l 2.20115,-2.20114 v 2.62885 c 0,4.24777 -7.31239,7.50798 -12.17944,5.43018 z"
     id="path1565" /><path
     style="fill:#ffffff;stroke-width:0.896763"
     d="m 333.29662,145.93817 v -43.49301 h 55.15093 55.15093 v 43.49301 43.49301 h -55.15093 -55.15093 z m 106.7148,-0.007 v -40.81001 l -51.78807,0.23148 -51.78806,0.23147 -0.23333,40.57853 -0.23333,40.57853 h 52.0214 52.02139 z m -66.69666,32.51484 c 3.081,-20.18428 12.16439,-36.77351 25.65581,-46.85588 l 5.99989,-4.48381 -17.88615,-0.24271 c -21.28371,-0.28881 -23.44603,0.22669 -25.17641,6.00217 l -1.09553,3.65655 h -7.03215 -7.03216 V 123.51927 110.5162 h 41.2511 41.25111 v 7.98526 7.98527 l -4.70801,2.66099 c -12.25237,6.92508 -20.81559,22.755 -22.66588,41.89999 -0.286,2.95932 -0.71886,6.69209 -0.96191,8.29506 l -0.4419,2.91448 h -13.86978 -13.8698 z M 70.545023,176.42812 v -6.72572 h 4.932197 4.932197 v -22.86746 -22.86746 h -4.483815 -4.483816 v -7.62249 -7.62249 h 43.941394 43.94139 v 15.24498 15.24497 h -9.41601 -9.41601 v -7.62249 -7.62248 h -18.38364 -18.38365 v 8.07087 8.07086 h 13.00306 13.00307 v 8.07087 8.07087 h -13.00307 -13.00306 v 6.72572 6.72573 h 4.9322 4.93219 v 6.72572 6.72572 H 92.067338 70.545023 Z m 94.160127,-0.89676 v -7.62249 h 4.48382 4.48381 v -22.86746 -22.86746 h -4.48381 -4.48382 v -6.72572 -6.72573 h 16.87221 16.8722 l 9.85709,20.40137 9.8571,20.40136 10.2793,-20.17717 10.2793,-20.17717 17.69395,-0.24315 17.69395,-0.24315 v 6.74468 6.74468 h -4.48381 -4.48382 v 22.86746 22.86746 h 4.03543 4.03544 v 7.62249 7.62248 H 253.4847 233.75591 v -7.62248 -7.62249 h 3.58705 3.58706 l -0.051,-12.33049 -0.051,-12.3305 -10.03759,19.98692 -10.03752,19.9869 -5.30982,-0.25812 -5.30981,-0.25812 -10.00252,-19.49723 c -5.50138,-10.72346 -10.27486,-19.76956 -10.60773,-20.10243 -0.33287,-0.33287 -0.60521,5.11165 -0.60521,12.09892 v 12.70415 h 3.58705 3.58705 v 7.62249 7.62248 h -15.69341 -15.69336 z m 117.47597,-30.04157 v -7.1741 h 18.83202 18.83203 v 7.1741 7.17411 h -18.83203 -18.83202 z"
     id="path1563" /></svg>
