<?xml version="1.0" encoding="UTF-8" standalone="no"?>
<svg
   version="1.1"
   viewBox="0 0 500 200"
   id="svg509"
   sodipodi:docname="lowresnx-mono.svg"
   width="500"
   height="200"
   inkscape:version="1.2.2 (b0a8486541, 2022-12-01)"
   xmlns:inkscape="http://www.inkscape.org/namespaces/inkscape"
   xmlns:sodipodi="http://sodipodi.sourceforge.net/DTD/sodipodi-0.dtd"
   xmlns="http://www.w3.org/2000/svg"
   xmlns:svg="http://www.w3.org/2000/svg">
  <defs
     id="defs513" />
  <sodipodi:namedview
     id="namedview511"
     pagecolor="#505050"
     bordercolor="#ffffff"
     borderopacity="1"
     inkscape:showpageshadow="0"
     inkscape:pageopacity="0"
     inkscape:pagecheckerboard="1"
     inkscape:deskcolor="#505050"
     showgrid="false"
     inkscape:zoom="1.5827407"
     inkscape:cx="395.51647"
     inkscape:cy="181.64694"
     inkscape:window-width="1670"
     inkscape:window-height="910"
     inkscape:window-x="0"
     inkscape:window-y="0"
     inkscape:window-maximized="1"
     inkscape:current-layer="svg509" />
  <path
     fill="#000000"
     d="m 105.94577,81.245761 c 2.53905,2.29422 5.14158,4.7698 7.41766,7.33606 a 1.124438,1.1969823 22.4 0 1 0.29925,0.78892 q 0,9.4217 0,18.852469 c 0,2.10378 0.40806,5.15972 -0.13602,7.90734 a 1.3057989,1.5597043 69.1 0 1 -0.4262,0.76171 l -7.04587,6.83731 a 1.1425741,1.2332545 23.4 0 1 -0.77985,0.34459 q -13.402583,0.48967 -26.805153,0.0544 a 1.1516421,1.1063019 68.4 0 1 -0.76172,-0.34458 l -7.181894,-7.26351 a 1.3420711,1.2785948 23.4 0 1 -0.389926,-0.92494 V 89.597441 a 1.2423226,1.2332545 65.3 0 1 0.290177,-0.79799 q 3.590947,-4.28919 7.970813,-7.76225 a 1.2967309,1.2967309 0 0 1 0.80706,-0.28111 h 25.481213 a 1.8680179,1.8680179 0 0 1 1.26046,0.48967 z m -6.791973,7.39953 a 0.63476336,0.63476336 0 0 0 -0.63476,-0.63476 h -13.23935 a 0.63476336,0.63476336 0 0 0 -0.63476,0.63476 v 27.748229 a 0.63476336,0.63476336 0 0 0 0.63476,0.63476 h 13.23935 a 0.63476336,0.63476336 0 0 0 0.63476,-0.63476 z"
     id="path493"
     style="stroke-width:0.906805;fill:#ffffff" />
  <path
     fill="#000000"
     d="m 55.336992,117.63584 q 0.707308,3.05593 0.09975,6.14814 a 0.56221898,0.54408288 5 0 1 -0.553151,0.44433 H 12.816915 A 0.70730775,0.70730775 0 0 1 12.109607,123.521 l 0.154157,-42.130149 a 0.46247045,0.4896746 0 0 1 0.46247,-0.48967 h 13.257487 a 0.46247045,0.48060655 0 0 1 0.46247,0.48061 l 0.217633,34.893839 a 0.78892018,0.77985213 0 0 0 0.779852,0.77079 l 27.340165,0.14509 a 0.57128703,0.56221898 83.6 0 1 0.553151,0.44433 z"
     id="path495"
     style="stroke-width:0.906805;fill:#ffffff" />
  <path
     fill="#000000"
     d="m 134.94539,123.71143 a 2.0493789,1.9768345 22 0 1 -1.41462,0.57129 h -4.3708 a 0.98841724,0.98841724 0 0 1 -0.98841,-0.98842 V 81.354581 a 0.59849117,0.59849117 0 0 1 0.59849,-0.59849 H 141.556 a 1.124438,1.124438 0 0 1 1.12443,1.12444 V 101.8393 q 0,1.86802 1.13351,0.68011 l 4.71539,-4.960229 a 1.7954735,1.6866569 41.3 0 1 2.36676,-0.0816 q 3.065,2.49371 4.47961,4.361729 1.81361,2.3849 1.81361,-0.9068 V 81.363651 a 0.60755922,0.60755922 0 0 1 0.60756,-0.60756 h 13.29376 a 0.60755922,0.60755922 0 0 1 0.60756,0.60756 V 123.2943 a 0.98841724,0.98841724 0 0 1 -0.98842,0.98842 h -4.90581 a 1.1153699,1.0881658 67 0 1 -0.77986,-0.32645 l -13.90131,-13.90132 a 1.5959765,1.6050445 45.1 0 0 -2.25795,0 z"
     id="path497"
     style="stroke-width:0.906805;fill:#ffffff" />
  <path
     fill="#000000"
     d="m 215.65102,104.16072 13.61114,13.38444 a 1.2241865,1.4508877 14.8 0 1 0.37179,0.78892 c 0.28111,1.99497 1.27859,6.57434 -2.62974,6.22975 q -3.39145,-0.29925 -6.79197,-0.28111 a 1.1153699,1.0881658 67 0 1 -0.77985,-0.32645 l -17.33811,-17.45599 q -1.32393,-1.333 -1.333,0.53501 l -0.0453,16.47665 a 0.76171604,0.77078409 0 0 1 -0.76171,0.77078 H 186.99602 A 0.78892018,0.78892018 0 0 1 186.2071,123.4938 V 81.526871 a 0.77078409,0.77078409 0 0 1 0.77075,-0.77078 h 33.38855 a 2.3848966,2.3848966 0 0 1 1.55971,0.58036 c 2.61159,2.25794 7.52648,6.08466 8.07963,9.40356 0.69824,4.15317 -3.87206,7.69877 -7.91641,11.189969 a 0.87960066,1.4780918 33.7 0 1 -0.79799,0.38086 l -4.95115,0.20857 q -2.24888,0.0907 -0.68917,1.64131 z m -0.44017,-15.346759 a 0.81612433,0.81612433 0 0 0 -0.81757,-0.81468 l -12.87663,0.0225 a 0.81612433,0.81612433 0 0 0 -0.81467,0.81758 l 0.01,5.62219 a 0.81612433,0.81612433 0 0 0 0.81758,0.81467 l 12.87662,-0.0225 a 0.81612433,0.81612433 0 0 0 0.81468,-0.81757 z"
     id="path499"
     style="stroke-width:0.906805;fill:#ffffff" />
  <path
     fill="#000000"
     d="m 258.79679,103.5985 -0.0453,12.64993 a 0.78892018,0.77985213 0 0 0 0.78892,0.77985 h 27.28576 a 0.89773676,0.84332847 0.3 0 1 0.89773,0.8524 l -0.0816,5.77635 a 0.50781069,0.46247045 0 0 1 -0.50781,0.46247 l -42.12108,0.15415 a 0.7163758,0.7163758 0 0 1 -0.71638,-0.71637 l -0.0544,-42.030409 a 0.77078409,0.77078409 0 0 1 0.77073,-0.77078 h 41.48632 a 1.0790977,1.0790977 0 0 1 1.07003,0.94308 q 0.4534,3.5456 -0.0816,5.71287 a 0.58942312,0.56221898 6.1 0 1 -0.57128,0.43526 l -27.1044,0.15416 a 0.93400895,1.0337575 89.5 0 0 -1.03376,0.95215 l 0.0998,5.68566 a 0.50781069,0.4896746 0 0 0 0.49874,0.48061 l 12.6318,0.12695 a 1.0790977,1.1063019 87.1 0 1 1.08816,0.95215 q 0.4262,3.46399 -0.11788,5.712869 a 0.59849117,0.60755922 6.2 0 1 -0.57129,0.46247 l -12.4595,0.11788 a 1.1153699,1.1697782 89.8 0 0 -1.15164,1.1063 z"
     id="path501"
     style="stroke-width:0.906805;fill:#ffffff" />
  <path
     fill="#000000"
     d="m 341.46112,99.001001 c 1.35113,1.459959 2.82923,2.620669 4.05341,4.071559 a 1.3874114,1.4599557 21.5 0 1 0.32645,0.80705 q 0.49875,5.8761 -0.0453,11.74312 a 1.3602072,1.1607102 73.7 0 1 -0.35365,0.78892 l -7.2363,7.34512 a 1.1516421,1.0337575 20.3 0 1 -0.77986,0.30832 l -34.35883,0.20856 a 0.79798823,0.77985213 89.7 0 1 -0.78892,-0.79799 v -5.84889 a 0.59849117,0.59849117 0 0 1 0.59849,-0.59849 h 27.43085 a 0.98841724,0.98841724 0 0 0 0.98841,-0.98842 v -12.53204 a 0.98841724,0.98841724 0 0 0 -0.98841,-0.98841 h -19.41469 a 1.124438,1.1153699 67 0 1 -0.77986,-0.31739 c -4.12596,-3.999009 -12.19652,-9.321949 -5.51337,-15.723989 q 4.3436,-4.15317 5.77635,-5.37735 a 1.2513906,1.1788462 23.2 0 1 0.79799,-0.29018 l 33.70589,-0.05441 a 0.9249409,0.93400895 0 0 1 0.92494,0.93401 v 5.43176 a 0.88866871,0.88866871 0 0 1 -0.88867,0.88867 h -27.12253 a 0.87960066,0.93400895 89.7 0 0 -0.93401,0.88867 l 0.0453,5.74914 a 0.51687874,0.4715385 0.1 0 0 0.50781,0.46247 l 18.789,0.14509 a 2.448373,2.7113464 65.9 0 1 1.51436,0.48967 q 2.30329,1.69573 3.74511,3.25543 z"
     id="path503"
     style="stroke-width:0.906805;fill:#ffffff" />
  <path
     fill="#000000"
     d="m 403.89463,104.38742 -0.10882,19.03384 a 0.85239652,0.86146457 0 0 1 -0.8524,0.86146 l -12.89476,-0.0453 a 0.70730775,0.70730775 0 0 1 -0.69824,-0.70731 l 0.15416,-42.139219 a 0.4534024,0.48060655 0 0 1 0.4534,-0.4806 l 14.28217,-0.10882 a 1.0428255,1.0972338 68.3 0 1 0.78892,0.31738 l 12.19653,12.33255 q 1.13351,1.14257 1.13351,-0.45341 v -11.15369 a 1.0428255,1.0337575 89.7 0 1 1.02468,-1.04283 l 12.57739,-0.04538 a 0.85239652,0.86146457 0 0 1 0.85239,0.86146 l 0.0544,41.876249 a 0.79798823,0.78892018 0 0 1 -0.79799,0.78892 h -12.64086 a 0.91587285,0.84332847 87.7 0 1 -0.84332,-0.84333 l -0.4262,-5.45896 a 1.3874114,0.77985213 32.1 0 0 -0.41713,-0.76172 l -12.98545,-13.1124 q -0.84333,-0.85239 -0.85239,0.28111 z"
     id="path505"
     style="stroke-width:0.906805;fill:#ffffff" />
  <path
     fill="#000000"
     d="m 482.55088,100.64232 c 2.69321,2.16726 5.83982,5.26854 8.06149,8.0887 a 1.3692753,1.4236835 23.7 0 1 0.29925,0.81612 q 0.18136,5.74008 0.009,11.48922 c -0.0544,1.5597 0.61663,3.53654 -1.86801,3.34611 -3.58188,-0.29018 -7.44487,-0.0998 -11.40761,-0.0998 a 1.0246894,0.99748529 88.1 0 1 -0.99748,-0.96121 l -0.50781,-8.50583 a 1.0156214,1.3692753 15.1 0 0 -0.31739,-0.80706 l -5.37735,-5.69473 a 1.5778404,1.5597043 46.5 0 0 -2.22167,-0.0725 l -5.72194,5.46804 a 2.457441,1.895222 73.1 0 0 -0.62569,1.64131 v 7.94361 a 0.98841724,0.98841724 0 0 1 -0.98842,0.98842 h -12.9129 a 0.60755922,0.60755922 0 0 1 -0.60756,-0.60756 V 109.7285 a 2.0312428,1.895222 68.9 0 1 0.56222,-1.39648 l 8.37887,-8.415139 a 1.124438,1.2151184 45.5 0 0 0.0726,-1.64132 l -8.17031,-8.42422 a 1.8408138,1.0972338 28.7 0 1 -0.44434,-0.75265 q -0.7073,-3.065 -0.26297,-7.35418 a 1.1063019,1.0972338 2.9 0 1 1.09724,-0.98842 h 13.72903 a 1.0337575,1.1516421 69.7 0 1 0.77985,0.30831 l 4.63377,4.62471 q 1.47809,1.47809 2.90178,0.009 l 4.27105,-4.38894 a 1.8680179,1.8045416 21.3 0 1 1.32393,-0.55308 h 13.39351 a 1.2513906,1.2332545 0 0 1 1.25139,1.23325 l -0.0363,6.64688 a 1.0246894,1.1607102 65 0 1 -0.33552,0.77079 l -8.12497,8.01615 q -1.72293,1.69573 0.16323,3.219159 z"
     id="path507"
     style="stroke-width:0.906805;fill:#ffffff" />
</svg>
