<?xml version="1.0" encoding="UTF-8" standalone="no"?>
<svg
   enable-background="new 0 0 559.249 81.18"
   viewBox="0 0 499.99998 200"
   version="1.1"
   id="svg49"
   sodipodi:docname="multivision-mono.svg"
   width="500"
   height="200"
   inkscape:version="1.2.2 (b0a8486541, 2022-12-01)"
   xml:space="preserve"
   xmlns:inkscape="http://www.inkscape.org/namespaces/inkscape"
   xmlns:sodipodi="http://sodipodi.sourceforge.net/DTD/sodipodi-0.dtd"
   xmlns="http://www.w3.org/2000/svg"
   xmlns:svg="http://www.w3.org/2000/svg"><defs
     id="defs53"><rect
       x="83.638153"
       y="41.480737"
       width="337.56025"
       height="138.51746"
       id="rect1219" /></defs><sodipodi:namedview
     id="namedview51"
     pagecolor="#505050"
     bordercolor="#ffffff"
     borderopacity="1"
     inkscape:showpageshadow="0"
     inkscape:pageopacity="0"
     inkscape:pagecheckerboard="1"
     inkscape:deskcolor="#505050"
     showgrid="false"
     showguides="true"
     inkscape:zoom="1.2007174"
     inkscape:cx="205.71036"
     inkscape:cy="284.41331"
     inkscape:window-width="1670"
     inkscape:window-height="910"
     inkscape:window-x="0"
     inkscape:window-y="0"
     inkscape:window-maximized="1"
     inkscape:current-layer="svg49"><sodipodi:guide
       position="268.17301,120.04779"
       orientation="0,-1"
       id="guide2256"
       inkscape:locked="false" /><sodipodi:guide
       position="411.11816,75.299153"
       orientation="0,-1"
       id="guide2258"
       inkscape:locked="false" /></sodipodi:namedview><linearGradient
     id="a"
     gradientUnits="userSpaceOnUse"
     x1="102.2983"
     x2="355.62921"
     y1="38.639503"
     y2="38.639503"
     gradientTransform="matrix(1.0993119,0,0,1.0993119,-2.5457669,61.730504)"><stop
       offset="0"
       stop-color="#f50019"
       id="stop2" /><stop
       offset=".2761"
       stop-color="#f66d19"
       id="stop4" /><stop
       offset=".4785"
       stop-color="#fbfa35"
       id="stop6" /><stop
       offset=".681"
       stop-color="#74b719"
       id="stop8" /><stop
       offset=".7914"
       stop-color="#17710a"
       id="stop10" /><stop
       offset=".8834"
       stop-color="#226887"
       id="stop12" /><stop
       offset="1"
       stop-color="#3262d9"
       id="stop14" /></linearGradient><path
     id="path1654"
     style="fill:#ffffff;stroke-width:1.02657"
     d="m 480.30632,132.6375 c -0.0764,0.0557 -0.15195,0.1369 -0.22857,0.19097 0.0922,-0.0543 0.16487,-0.12264 0.22857,-0.19097 z m -27.29624,11.45413 c -75.50794,0 -373.218952,1.64549 -397.538285,2.197 l -28.487215,0.64511 v 16.44962 16.44812 l 157.32177,-0.6797 c 175.91907,-0.76027 291.14185,-1.65296 293.11125,-2.26917 1.00474,-0.3144 1.24261,-4.17556 1.02557,-16.6 l -0.28272,-16.19098 z m -109.94885,5.90376 c 1.51305,-0.10815 2.13556,0.25551 2.51127,1.23459 0.43291,1.12814 -0.0889,1.93621 -1.61503,2.50075 l -2.25414,0.83459 2.27219,1.21503 c 2.90264,1.55347 2.85615,2.3583 -0.42256,7.31279 -1.75846,2.65722 -4.52229,4.94676 -7.9564,6.59247 -2.89386,1.38683 -7.41489,2.82478 -10.04661,3.19549 -4.20138,0.59183 -4.92728,0.40789 -5.95038,-1.50375 -1.51311,-2.82728 -0.59191,-4.18556 2.8406,-4.19249 10.47687,-0.0217 20.40929,-9.14109 15.40602,-14.14435 -1.56843,-1.56844 -1.10942,-1.94615 3.38195,-2.78497 0.72578,-0.13555 1.32871,-0.22409 1.83309,-0.26015 z m -200.14584,0.61354 c 1.6234,0.0136 3.15188,0.7536 3.15188,2.20902 0,1.88204 0.68391,2.05263 8.21202,2.05263 7.86166,0 8.21203,0.10026 8.21203,2.33834 0,2.56327 -2.36519,6.43143 -5.61353,9.17744 -2.03951,1.72413 -2.00312,1.76201 1.70376,1.7955 4.11704,0.0371 5.2907,0.99867 4.31729,3.53533 -0.51331,1.33763 -2.433,1.63158 -10.62405,1.63158 -11.66897,0 -13.39399,-1.02629 -13.39399,-7.96541 0,-3.58505 -0.3432,-4.25904 -2.30977,-4.53835 -3.20706,-0.45547 -3.29581,-5.31963 -0.10526,-5.77443 1.21281,-0.17288 2.44082,-1.21228 2.72781,-2.30977 0.37978,-1.45225 2.09839,-2.16551 3.72181,-2.15188 z m -21.4812,0.0662 c 1.50081,0.0105 3.00141,0.72788 3.37142,2.14286 0.39416,1.50725 1.40112,2.05264 3.78496,2.05264 2.78028,0 3.19967,0.33216 2.9188,2.30977 -0.25142,1.77031 -1.10755,2.38502 -3.66466,2.63158 l -3.33534,0.3218 v 7.12181 7.1203 h -3.07969 c -2.90859,0 -3.07971,-0.22864 -3.07971,-4.10678 0,-2.2584 -0.24242,-4.10525 -0.53834,-4.10525 -0.29592,0 -2.868,1.60149 -5.71428,3.55939 -4.41087,3.03412 -5.46809,3.376 -7.16091,2.3188 -2.63172,-1.64354 -2.51016,-3.48258 0.32481,-4.94436 2.83998,-1.46436 6.92933,-5.11689 6.92933,-6.18947 0,-0.43526 -2.1948,-0.93318 -4.87669,-1.10527 -4.08751,-0.26227 -4.8767,-0.64435 -4.8767,-2.3654 0,-1.83951 0.78652,-2.0842 7.55189,-2.3564 6.48717,-0.26101 7.62452,-0.58643 8.07518,-2.30977 0.36867,-1.40984 1.86911,-2.10674 3.36993,-2.09625 z m 121.08268,0.16692 c 1.26775,0.19975 1.26613,1.81422 1.58797,9.16241 0.11128,2.54075 0.2871,5.0805 0.39098,5.64511 0.30967,1.68308 4.22707,-3.65436 4.22707,-5.7594 0,-1.06663 0.6549,-1.93985 1.45564,-1.93985 8.60689,0 4.44887,11.61125 -5.10827,14.26467 -7.94449,2.20565 -7.74473,2.47202 -7.41805,-9.90075 l 0.29173,-11.03609 2.82406,-0.32482 c 0.76365,-0.0879 1.32629,-0.17786 1.74887,-0.11128 z m 51.84812,0.0256 c 1.34974,0.0562 1.58045,0.60902 1.58045,2.22707 0,1.3532 0.24569,2.70584 0.54587,3.00602 0.96318,0.96317 9.95882,-1.16981 11.14285,-2.6421 1.71082,-2.12725 6.93128,-3.09183 7.9594,-1.47068 1.28581,2.0274 1.07717,2.59316 -1.17444,3.18194 -1.30547,0.3414 -1.84198,1.09772 -1.46917,2.06918 0.81516,2.12428 -0.25358,2.5757 -9.24361,3.91279 -7.13479,1.06113 -7.83953,1.37358 -7.55789,3.34737 0.28929,2.02753 0.94398,2.18275 9.54887,2.25112 9.0779,0.0721 9.2391,0.11746 9.2391,2.56691 0,2.46325 -0.12912,2.49648 -10.7955,2.78196 -14.33204,0.3836 -14.49492,0.25246 -14.70525,-11.63759 l -0.16241,-9.18346 3.33534,-0.3218 c 0.73138,-0.0706 1.30648,-0.10746 1.75639,-0.0887 z m 29.5233,0.015 c 1.03413,-0.14001 2.47763,0.21569 4.75339,1.00902 3.39923,1.18497 4.05732,2.77129 2.0015,4.82706 -1.5545,1.5545 -2.56985,1.50629 -6.77444,-0.3203 -2.96206,-1.28681 -3.24762,-1.73208 -2.27368,-3.55187 0.63554,-1.1875 1.25911,-1.8239 2.29323,-1.96391 z m -93.39246,0.15636 c 0.30977,-0.0542 0.69429,0.0131 1.18345,0.14436 1.18745,0.31878 2.56685,0.58576 3.06617,0.594 1.84374,0.0285 -0.0298,14.06809 -2.38647,17.88119 -2.46715,3.992 -3.6641,4.39665 -6.54586,2.21204 -1.79537,-1.36104 -1.7861,-1.56864 0.2391,-5.53835 1.15702,-2.26802 2.41139,-6.73501 2.78646,-9.92632 0.46354,-3.94388 0.72783,-5.20433 1.65715,-5.36692 z m 149.99396,0.0541 c 0.78604,-0.007 1.77722,0.21909 3.17293,0.67971 4.2469,1.40157 5.03893,2.38501 4.1579,5.16089 -0.77222,2.43303 -2.91293,2.50597 -7.44061,0.25264 -3.62453,-1.80387 -4.17727,-3.41937 -1.83608,-5.36241 0.57863,-0.48022 1.15982,-0.72302 1.94586,-0.73083 z m -103.33381,0.0541 c 1.99587,0.0835 3.51464,0.32062 4.03608,0.75337 1.94795,1.61666 1.29094,3.29732 -1.55188,3.96842 -4.05766,0.95789 -2.83224,2.58604 2.18947,2.90827 4.40242,0.28249 4.87669,0.55627 4.87669,2.82256 0,2.31491 -0.38455,2.50977 -4.94286,2.50977 -4.65265,0 -5.04438,0.21403 -6.6827,3.64963 -1.12378,2.35665 -2.99823,4.17618 -5.29022,5.13384 -4.27962,1.78817 -4.66359,1.79123 -6.95188,0.0541 -2.65397,-2.01466 -2.21288,-3.14097 1.79699,-4.59097 5.47061,-1.97821 4.62163,-4.08009 -1.79699,-4.44963 -4.60163,-0.26494 -5.38948,-0.60938 -5.38948,-2.3624 0,-1.75863 0.88354,-2.13947 6.1594,-2.65113 4.10238,-0.39786 4.91486,-0.655 2.43459,-0.76993 -3.9639,-0.1837 -6.60493,-2.31865 -5.72031,-4.62406 0.5606,-1.46085 10.84533,-2.60258 16.8331,-2.35187 z m -60.07669,0.79097 c 5.6448,0.0198 7.26776,0.36753 7.61203,1.26466 0.83857,2.18528 -3.26095,9.50466 -6.78046,12.10676 -2.22929,1.64817 -2.90412,2.82194 -2.44811,4.25865 0.36817,1.16006 0.0523,2.34994 -0.76241,2.86617 -2.92925,1.85606 -5.62422,0.6803 -10.06015,-4.39098 -4.33207,-4.95257 -4.46355,-5.2827 -2.62707,-6.62557 2.43678,-1.78182 3.12287,-1.7695 5.99097,0.10978 2.06261,1.35147 2.58028,1.34452 4.58346,-0.0587 1.24204,-0.86994 2.25865,-1.99986 2.25865,-2.51127 0,-0.5114 -4.2721,-1.06323 -9.49473,-1.22557 -9.36567,-0.29112 -9.49625,-0.33039 -9.49625,-2.86166 v -2.56541 l 14.13685,-0.28571 c 2.87689,-0.0582 5.20561,-0.0878 7.08722,-0.0812 z m -50.99398,0.36692 h 12.83157 12.83158 l 0.29323,10.57895 0.29324,10.57894 -8.50527,-0.69023 c -4.8759,-0.39529 -10.0944,-0.25129 -12.22856,0.33834 -5.72583,1.58198 -6.14459,0.81701 -5.81203,-10.62555 z m 233.56839,1.20751 c 0.34126,0.0274 0.70991,0.1748 1.15037,0.41053 3.10144,1.65984 3.33773,3.64015 0.90526,7.57594 -2.89742,4.68816 -6.44646,7.13407 -13.30224,9.16842 -7.30428,2.16742 -10.03182,2.08797 -11.32633,-0.33083 -1.55473,-2.90501 -1.50118,-2.9573 3.81354,-3.73232 7.40408,-1.07973 12.12189,-3.92411 15.18647,-9.15339 1.76624,-3.01392 2.54911,-4.02067 3.57293,-3.93835 z m -38.34886,0.34587 c 10.79554,-0.0205 10.606,-0.19441 10.606,9.73835 0,6.80945 -0.32414,8.63048 -1.62406,9.12932 -0.89308,0.34267 -2.16296,0.53812 -2.82255,0.43458 -0.65958,-0.10354 -4.89518,-0.45 -9.41203,-0.76992 -7.52831,-0.53322 -8.23914,-0.77438 -8.53985,-2.89174 -0.31387,-2.20996 -0.0123,-2.30977 6.98948,-2.30977 5.00172,0 7.09931,-0.3526 6.62856,-1.11428 -0.41446,-0.67066 -3.19766,-0.97722 -6.98947,-0.76992 -5.73161,0.31333 -6.30075,0.15927 -6.30075,-1.70827 0,-1.82038 0.78559,-2.08727 6.92932,-2.3564 9.15686,-0.40113 8.94522,-2.26315 -0.25714,-2.26315 -6.35321,0 -7.18496,-0.22448 -7.18496,-1.93384 0,-2.45943 2.66248,-3.16718 11.97745,-3.18496 z m -40.13985,3.27368 c 0.85968,-0.01 1.97409,0.23332 3.61954,0.72632 3.38442,1.01399 4.07994,1.64848 3.81805,3.48872 -0.39507,2.776 -3.25638,3.23798 -7.7624,1.25263 -3.69652,-1.62868 -4.11114,-2.72869 -1.76392,-4.67668 0.62541,-0.51908 1.22904,-0.78112 2.08873,-0.79099 z m -148.4075,0.81804 v 4.61956 4.61954 h 6.15939 6.1594 v -4.61954 -4.61956 h -6.1594 z m -23.45263,3.0797 c -2.87195,0 -3.23759,0.33062 -3.23759,2.90978 0,1.59974 0.30779,3.21609 0.6842,3.59249 0.37641,0.37641 2.0957,0.6842 3.82106,0.6842 h 3.13684 l -2.34737,-1.64361 c -2.23166,-1.56311 -2.25957,-1.73875 -0.58195,-3.59248 1.69734,-1.87561 1.64106,-1.95038 -1.47519,-1.95038 z" /><path
     style="fill:#ffffff;stroke-width:0.685371"
     d="m 110.41028,110.48045 c -0.36134,-22.912747 -0.33477,-23.565697 1.06134,-26.083587 1.02598,-1.85034 2.13992,-2.79464 3.92901,-3.33066 3.53953,-1.06047 5.53986,0.17288 12.3303,7.60255 3.1128,3.40584 6.06155,6.19244 6.55277,6.19244 0.49122,0 1.29614,-0.56551 1.78871,-1.25668 2.52499,-3.54308 10.67434,-11.81708 12.30386,-12.49205 2.3532,-0.97473 5.54762,-0.29941 7.19706,1.5215 1.16655,1.28781 1.2985,3.23284 1.61316,23.777867 0.18848,12.30642 0.24621,23.54451 0.1283,24.97352 l -0.21439,2.59821 -5.2686,-0.19941 -5.26859,-0.19939 -0.18311,-17.30567 c -0.17163,-16.22016 -0.51342,-18.996447 -2.0103,-16.328947 -1.19632,2.131907 -9.31831,9.989247 -10.3257,9.989247 -0.5902,0 -3.37707,-2.46734 -6.19305,-5.48298 -2.81598,-3.01564 -5.38106,-5.482977 -5.70019,-5.482977 -0.31912,0 -0.66263,7.787547 -0.76334,17.305657 l -0.18311,17.30567 -5.21176,0.19837 -5.21176,0.19837 z m 59.95976,22.77601 c -3.68748,-0.87464 -7.41856,-3.79668 -8.98828,-7.03928 -1.34443,-2.77723 -1.45378,-4.12095 -1.45378,-17.86492 V 93.490443 h 5.48298 5.48299 v 12.304467 c 0,7.74151 0.28937,12.93958 0.78033,14.01711 1.74571,3.83142 8.7522,4.88522 11.85809,1.7835 1.30379,-1.30203 1.43792,-2.44341 1.75441,-14.92879 l 0.34268,-13.518967 h 5.1403 5.1403 v 19.875807 19.87581 l -4.96896,0.20138 -4.96895,0.20136 v -2.3146 c 0,-1.27303 -0.20007,-2.51467 -0.44459,-2.7592 -0.24453,-0.24452 -1.61058,0.6088 -3.03567,1.89629 -2.41182,2.17893 -6.46028,3.88346 -8.85645,3.72886 -0.56543,-0.0365 -2.03486,-0.30514 -3.2654,-0.59701 z m 28.39574,-0.47131 c -0.2513,-0.2513 -0.45691,-12.12538 -0.45691,-26.38685 V 80.468363 h 5.11547 5.11548 l 0.19616,6.68238 0.19616,6.68239 2.19908,0.21265 2.19908,0.21265 0.19972,-5.69563 0.19973,-5.69564 h 4.79761 4.79761 l 0.34269,5.48298 0.34269,5.48299 3.25552,0.20889 3.25552,0.2089 v 3.38931 3.389307 h -3.03799 c -2.42022,0 -3.12511,0.27445 -3.46635,1.34964 -0.70957,2.23563 0.23859,19.98181 1.12464,21.04944 0.54645,0.65842 1.91738,0.90261 4.29077,0.76425 l 3.48773,-0.20333 0.18421,-15.59224 0.18421,-15.592227 h 10.20098 10.20097 l 1.47221,4.96895 c 4.12876,13.935267 6.47413,21.075217 6.92291,21.075217 0.27394,0 1.16461,-2.54445 1.97926,-5.65432 4.00302,-15.281197 4.96772,-18.756237 5.4701,-19.704477 0.44556,-0.84097 2.33959,-1.02806 10.4079,-1.02806 h 9.86321 l 0.18482,15.388777 c 0.10166,8.46382 0.45546,15.55743 0.78623,15.76357 0.33076,0.20615 4.66837,0.2206 9.63914,0.0321 7.92426,-0.30047 9.15733,-0.50659 10.00839,-1.67308 1.37081,-1.87885 1.21542,-2.94208 -0.71162,-4.86911 -1.15915,-1.15919 -2.44475,-1.68231 -4.13424,-1.68231 -2.76456,0 -6.85403,-1.52554 -8.79273,-3.28004 -5.67267,-5.1337 -3.98937,-15.122877 3.12908,-18.568857 2.80648,-1.35859 4.08832,-1.45378 19.57835,-1.45378 h 16.57525 v 6.16836 c 0,3.392587 0.23131,6.151607 0.51403,6.131137 0.28272,-0.0205 1.43928,-1.4766 2.57015,-3.23585 4.14405,-6.446757 11.94431,-10.299607 19.31243,-9.539147 6.61311,0.68253 13.34127,4.8318 16.49673,10.173547 0.6346,1.07431 1.41589,1.95329 1.73618,1.95329 0.3203,0 0.53965,-2.23603 0.48746,-4.968947 -0.0522,-2.73293 -0.0723,-5.50869 -0.0448,-6.16836 0.0428,-1.02328 0.75462,-1.1994 4.84775,-1.1994 h 4.79761 v 2.35835 c 0,2.96284 0.8199,3.50565 2.47855,1.64093 0.71006,-0.79826 2.52468,-2.01788 4.0325,-2.71028 6.12875,-2.81434 13.36627,-0.75273 17.1296,4.87935 l 2.06084,3.084177 0.20716,15.59224 0.20716,15.59223 h -5.17611 c -4.89061,0 -5.1799,-0.0851 -5.24465,-1.54209 -0.0377,-0.84815 -0.26902,-6.83028 -0.51403,-13.29361 -0.38827,-10.24196 -0.61442,-11.93808 -1.7605,-13.20379 -2.82855,-3.12379 -8.32474,-2.97254 -11.19305,0.30803 -1.48287,1.696 -1.54209,2.26234 -1.54209,14.74759 v 12.98387 h -5.1403 -5.1403 l -0.0403,-5.99701 c -0.0331,-4.91549 -0.18753,-5.76419 -0.85671,-4.70605 -4.92807,7.79259 -10.63157,11.52464 -18.27165,11.95593 -7.38164,0.4167 -15.36345,-3.78473 -19.02559,-10.0146 l -1.90006,-3.23229 -0.34269,6.16835 -0.34269,6.16836 h -4.79761 -4.7976 l -0.34269,-15.76358 -0.34269,-15.76358 h -9.74369 c -8.28648,0 -9.91905,0.17559 -10.91617,1.17409 -0.95541,0.95673 -1.03037,1.48593 -0.40494,2.85859 0.64432,1.41415 1.40632,1.75594 4.74781,2.12955 5.23404,0.58523 7.36341,1.45856 10.14677,4.16156 2.08337,2.02324 3.76379,5.82893 3.76379,8.52397 0,2.34454 -1.53313,6.26525 -3.24586,8.30071 -3.63025,4.31432 -5.51564,4.68955 -23.64738,4.70632 l -16.27761,0.0151 v -17.61408 c 0,-10.84499 -0.24447,-17.363857 -0.63615,-16.962977 -0.34989,0.35811 -1.56948,3.735277 -2.71019,7.504827 -5.20641,17.20477 -6.75858,22.04051 -7.54644,23.5107 -1.27681,2.38261 -4.83105,4.24144 -8.1155,4.24434 -5.6883,0.005 -6.97123,-2.20555 -14.61637,-25.18489 -1.66171,-4.99465 -3.25744,-9.081187 -3.54607,-9.081187 -0.28863,0 -0.52479,7.710447 -0.52479,17.134317 v 17.13433 l -11.13731,-0.003 c -9.83018,-0.002 -11.39436,-0.15929 -13.32753,-1.33803 -3.91641,-2.38798 -4.17812,-3.34491 -4.78805,-17.50716 l -0.56083,-13.02209 h -2.05612 -2.05612 l -0.18397,15.93492 -0.18398,15.93492 h -4.67074 c -2.56892,0 -4.87637,-0.20561 -5.12767,-0.45691 z m 163.30486,-10.41566 c 3.30708,-2.38695 4.25428,-4.39462 4.28128,-9.07449 0.0485,-8.40903 -3.43889,-12.57711 -10.11238,-12.08613 -2.00077,0.14721 -4.24194,0.81751 -5.28355,1.58024 -3.83281,2.80666 -5.05548,10.4105 -2.55855,15.91193 2.33305,5.1404 9.11345,6.95954 13.6732,3.66845 z M 233.26288,85.951343 v -3.42686 h 4.79761 4.79761 v 3.42686 3.42686 h -4.79761 -4.79761 z m 48.40692,2.86258 c -0.83192,-0.16517 -1.11619,-1.00224 -1.11619,-3.28683 v -3.06524 l 4.62627,0.20265 4.62627,0.20266 0.20755,2.84731 0.20754,2.8473 -3.71762,0.23687 c -2.04469,0.13028 -4.21992,0.13716 -4.83382,0.0153 z m 44.8038,-3.57927 v -3.45818 l 4.62626,0.20266 4.62627,0.20266 0.2089,3.25552 0.20889,3.25552 h -4.83516 -4.83516 z M 175.84775,73.602143 c -7.88102,-1.14911 -15.58988,-7.07316 -19.05591,-14.64396 -3.42435,-7.47977 -3.46069,-19.32855 -0.0819,-26.70878 2.04623,-4.46953 6.48333,-9.48361 10.44889,-11.80758 12.66572,-7.42261 29.87941,-3.00446 36.73834,9.42943 1.44187,2.61384 1.91644,2.96369 4.0203,2.96369 h 2.38543 l 0.19906,-5.65433 0.19906,-5.65433 h 5.01942 5.01942 l 0.43585,3.17984 c 0.23971,1.74891 0.43584,4.37046 0.43584,5.82567 0,2.4409 0.14864,2.64584 1.91904,2.64584 2.5701,0 3.56395,1.14674 3.56395,4.11223 0,2.95429 -0.99339,4.11224 -3.52782,4.11224 h -1.88292 l -0.20746,9.64527 c -0.11411,5.3049 0.0105,10.23036 0.27688,10.94546 0.58447,1.56889 3.75973,2.49514 5.27606,1.53906 0.95752,-0.60376 1.11577,-3.42535 1.27415,-22.71824 l 0.18084,-22.02886 h 5.05747 c 3.97951,0 5.14615,0.23108 5.47349,1.08412 0.22881,0.59626 0.41602,4.24587 0.41602,8.11025 0,3.86437 0.17929,7.20542 0.39842,7.42456 0.21914,0.21913 1.47232,-0.33033 2.78483,-1.22102 3.15673,-2.14221 7.67828,-2.7751 11.72719,-1.64147 3.84824,1.07744 8.70509,5.60455 9.39817,8.76012 0.69115,3.14681 1.5176,3.21487 3.03039,0.24955 1.50457,-2.94921 5.67181,-6.98209 9.11616,-8.82227 3.30054,-1.76334 12.19576,-1.63532 16.31855,0.23485 3.50739,1.59102 7.41841,5.28655 9.30782,8.79497 0.70647,1.31183 1.52278,2.38514 1.814,2.38514 0.29124,0 0.53291,-4.70337 0.53707,-10.45194 0.004,-5.74856 0.20076,-11.62115 0.43692,-13.05021 l 0.42938,-2.59827 4.87472,0.19947 4.87471,0.19947 v 26.72954 26.72954 l -4.43729,0.20804 c -5.31276,0.24908 -6.18599,-0.52439 -6.18599,-5.47933 0,-1.81272 -0.30842,-3.29586 -0.68537,-3.29586 -0.37696,0 -0.68538,0.30752 -0.68538,0.68339 0,1.5023 -5.00154,6.08927 -8.08682,7.41652 -9.75195,4.19517 -20.56139,1.54231 -26.30525,-6.45587 -1.19078,-1.65813 -2.4212,-3.01479 -2.73424,-3.01479 -0.31306,0 -0.56919,1.82528 -0.56919,4.05618 0,6.1706 -0.0509,6.22441 -5.88595,6.22441 -4.68148,0 -5.07944,-0.11363 -5.40048,-1.54209 -0.19061,-0.84815 -0.4278,-6.88969 -0.52709,-13.42566 l -0.18051,-11.88357 -1.92299,-1.65254 c -2.03728,-1.75075 -5.12415,-2.14747 -7.36751,-0.94686 -2.81043,1.5041 -3.46716,4.32926 -3.95306,17.00556 l -0.4639,12.10247 -10.62328,0.19378 c -8.85342,0.16148 -11.05934,-0.002 -13.24067,-0.98211 -4.44767,-1.99815 -4.92171,-3.67157 -4.92171,-17.37405 0,-11.29726 -0.0751,-11.99402 -1.29317,-11.99402 -1.12188,0 -1.32413,0.63545 -1.52692,4.79761 -0.3377,6.9309 -1.43053,10.78004 -4.33762,15.27786 -4.22219,6.53256 -10.30944,10.52161 -17.94697,11.7609 -2.4015,0.38966 -4.67477,0.67234 -5.05173,0.62816 -0.37695,-0.0442 -2.31138,-0.31741 -4.29873,-0.60718 z m 10.46709,-10.87812 c 3.47201,-1.60244 5.37231,-3.67383 7.23642,-7.88795 4.23685,-9.57811 1.05962,-22.74821 -6.40684,-26.55731 -2.16838,-1.10623 -3.70079,-1.35546 -7.03053,-1.14344 -5.27196,0.3357 -8.05584,2.24762 -10.911,7.49349 -3.74933,6.88875 -3.02517,19.27033 1.43723,24.57359 3.87477,4.60491 10.23262,6.03331 15.67472,3.52162 z m 103.567,-0.54491 c 2.32881,-1.60766 3.35892,-1.84592 8.14878,-1.88478 5.4421,-0.0442 5.48458,-0.0583 5.69755,-1.90535 0.29238,-2.53585 -0.59016,-2.68036 -14.9413,-2.44659 -13.44753,0.21905 -14.03775,0.47773 -10.54928,4.62355 3.31906,3.94447 7.44019,4.5154 11.64425,1.61317 z m 1.58165,-15.72289 c 0.15764,-0.14222 -0.0978,-0.97693 -0.56773,-1.85493 -1.1149,-2.08321 -4.22053,-3.88456 -6.69719,-3.88456 -2.83867,0 -6.99297,3.1136 -7.05003,5.28392 -0.0321,1.22181 13.00576,1.63674 14.31495,0.45557 z m 51.4583,26.57141 c -4.01991,-0.85859 -9.48181,-4.26919 -11.82806,-7.38586 -1.22173,-1.6229 -2.45264,-2.96026 -2.73536,-2.97192 -0.28271,-0.0117 -0.51402,1.64988 -0.51402,3.69231 0,5.78869 -0.0931,5.88172 -5.88595,5.88172 -4.72833,0 -5.07986,-0.10341 -5.45677,-1.60515 -0.61759,-2.46065 -0.045,-50.9776 0.60923,-51.62633 0.91893,-0.91114 9.5168,-0.39862 10.15377,0.60527 0.3073,0.4843 0.56345,5.89234 0.56922,12.01787 0.007,6.96096 0.2675,11.13731 0.69587,11.13731 0.37695,0 0.68537,-0.32164 0.68537,-0.71474 0,-0.3931 1.39906,-2.21044 3.10901,-4.03852 4.2167,-4.50799 8.72403,-6.38822 15.3932,-6.42125 6.22833,-0.0308 10.09107,1.48096 14.7452,5.77099 5.08151,4.68397 6.16301,7.32013 6.15329,14.99874 -0.007,5.91874 -0.19244,6.84494 -2.03307,10.18159 -3.4971,6.33942 -9.64375,10.22789 -16.92288,10.70569 -2.38617,0.15663 -5.41829,0.0541 -6.73805,-0.22772 z m 8.69381,-9.65479 c 3.98578,-1.80961 5.28956,-4.52207 5.28956,-11.00477 0,-6.04884 -1.26103,-9.00658 -4.56933,-10.71736 -2.67767,-1.38468 -7.00374,-1.3232 -9.22326,0.13108 -5.53337,3.6256 -6.54764,15.06625 -1.74304,19.66081 3.53494,3.3804 6.02059,3.84868 10.24607,1.93024 z m 12.40822,-28.51284 c -0.18506,-0.18507 -0.18884,-1.87298 -0.008,-3.75092 0.24939,-2.59547 0.10168,-3.41967 -0.61583,-3.43623 -0.63528,-0.0147 -0.50891,-0.35082 0.38648,-1.02806 0.73172,-0.55345 1.96539,-0.97552 2.74149,-0.93795 1.19437,0.0578 1.14793,0.14329 -0.30233,0.55646 l -1.71343,0.48814 1.84356,0.47432 c 1.53109,0.39392 1.87959,0.90947 2.05612,3.04174 0.14177,1.71239 0.51927,2.50325 1.13352,2.37468 0.50653,-0.10602 0.79568,0.18312 0.64254,0.64253 -0.5047,1.51411 -1.64289,1.32286 -2.58316,-0.43406 -1.17245,-2.19068 -2.06456,-2.21494 -2.06456,-0.0562 0,1.62089 -0.82993,2.75162 -1.51604,2.06551 z m 3.22946,-5.79461 c 0,-0.50261 -0.38552,-1.04234 -0.85671,-1.1994 -0.50964,-0.16988 -0.85672,0.31603 -0.85672,1.1994 0,0.88337 0.34708,1.36928 0.85672,1.1994 0.47119,-0.15706 0.85671,-0.69679 0.85671,-1.1994 z"
     id="path1768" /></svg>
