<?xml version="1.0" encoding="UTF-8" standalone="no"?>
<svg
   version="1.1"
   viewBox="0 0 500 200"
   id="svg445"
   sodipodi:docname="pico-mono.svg"
   width="500"
   height="200"
   inkscape:version="1.2.2 (b0a8486541, 2022-12-01)"
   xmlns:inkscape="http://www.inkscape.org/namespaces/inkscape"
   xmlns:sodipodi="http://sodipodi.sourceforge.net/DTD/sodipodi-0.dtd"
   xmlns="http://www.w3.org/2000/svg"
   xmlns:svg="http://www.w3.org/2000/svg">
  <defs
     id="defs449" />
  <sodipodi:namedview
     id="namedview447"
     pagecolor="#505050"
     bordercolor="#ffffff"
     borderopacity="1"
     inkscape:showpageshadow="0"
     inkscape:pageopacity="0"
     inkscape:pagecheckerboard="1"
     inkscape:deskcolor="#505050"
     showgrid="false"
     inkscape:zoom="1.5827407"
     inkscape:cx="343.07578"
     inkscape:cy="169.01063"
     inkscape:window-width="1670"
     inkscape:window-height="910"
     inkscape:window-x="0"
     inkscape:window-y="0"
     inkscape:window-maximized="1"
     inkscape:current-layer="svg445" />
  <ellipse
     fill="#000000"
     cx="77.963623"
     cy="-161.52582"
     transform="rotate(78.5)"
     rx="2.9402173"
     ry="2.2484012"
     id="ellipse429"
     style="stroke-width:0.786154;fill:#ffffff" />
  <ellipse
     fill="#000000"
     cx="-55.273342"
     cy="-185.58345"
     transform="rotate(120.3)"
     rx="3.8285716"
     ry="2.1619244"
     id="ellipse431"
     style="stroke-width:0.786154;fill:#ffffff" />
  <ellipse
     fill="#000000"
     cx="146.12363"
     cy="-85.038025"
     transform="rotate(46.8)"
     rx="3.757818"
     ry="1.894632"
     id="ellipse433"
     style="stroke-width:0.786154;fill:#ffffff" />
  <path
     fill="#000000"
     d="m 488.25686,70.052022 v 0.982694 q -0.34591,0.172953 -0.63678,0.888354 -18.19162,44.0325 -36.6977,89.03984 a 0.98269293,1.0062775 10.9 0 1 -0.88835,0.6132 c -40.1882,0.84905 -80.06981,0.9827 -120.04576,1.53301 -5.81755,0.0786 -11.35207,-0.38522 -17.05168,-0.8805 q -48.21485,-4.20593 -96.43756,-8.30965 -4.66976,-0.39308 -9.15084,0.0393 -8.05021,0.78615 -16.07685,1.77671 -28.6396,3.5377 -57.26349,7.13829 c -6.10055,0.76256 -9.48101,1.35217 -14.06429,0.48741 Q 80.517916,155.89222 40.612723,148.38445 a 1.2657085,1.2578469 87 0 1 -0.974831,-0.8805 Q 30.715039,116.7496 21.627094,86.168185 17.727769,73.062992 16.564261,69.761146 L 16.532813,69.06933 Q 42.916155,61.302125 69.370248,53.786489 c 3.231094,-0.919799 5.943327,0.01571 8.765621,0.345909 q 31.328251,3.577002 62.664351,7.03608 10.88824,1.202817 21.42271,2.64934 a 0.51886186,0.51886186 0 0 0 0.56603,-0.676091 q -1.31287,-4.150896 1.83175,-7.028221 c 7.87726,-7.185451 20.60509,-9.182282 28.30155,-0.644647 3.11317,3.451218 2.13047,8.14456 -0.36163,11.6115 q -0.33018,0.463832 0.23584,0.400939 c 1.26571,-0.149369 2.54715,0.165093 3.49054,0.180816 q 50.65978,0.715399 101.32742,1.360047 c 2.77512,0.03145 4.33957,-0.440247 6.75307,-0.974832 q 42.2558,-9.441714 84.04776,-19.174305 0.92766,-0.220122 1.8396,-0.02358 z M 188.6613,61.986079 c 0.87263,-8.922851 -17.8457,-10.573775 -19.5831,-2.987386 q -1.17923,5.172896 2.61003,7.84582 c 2.68079,1.886771 4.74837,3.773541 6.78451,6.367849 q 1.56445,1.988971 3.32543,0.165089 c 2.63362,-2.727951 6.50151,-7.735754 6.86313,-11.391372 z m 218.08402,12.703393 a 4.0565564,9.1744211 42.1 0 0 9.16066,-4.087612 4.0565564,9.1744211 42.1 0 0 3.14091,-9.526855 4.0565564,9.1744211 42.1 0 0 -9.16066,4.08761 4.0565564,9.1744211 42.1 0 0 -3.14091,9.526857 z m -24.58785,-1.414218 c 0.9198,-5.542387 -5.88044,-11.037606 -10.56591,-12.342622 a 0.98269293,0.98269293 0 0 0 -1.24213,1.029863 q 0.75471,8.647697 8.73417,12.8379 2.59431,1.367912 3.07387,-1.525141 z M 87.978522,110.80627 q 1.556581,-0.83333 4.064417,-0.66823 18.057971,1.21854 30.612861,-10.896106 c 4.44175,-4.284543 3.24681,-18.340983 -1.38364,-21.328363 C 106.84622,68.61336 89.047694,66.663698 72.389082,69.407376 64.54326,70.70453 59.629797,71.608608 58.081072,79.878954 c -0.943385,5.031385 -9.205867,1.014138 -8.797067,7.209031 q 0.08648,1.328608 1.682371,4.426054 c 3.781402,7.374138 5.432325,15.605161 7.028219,23.089361 0.7154,3.35687 2.067586,5.79395 3.506247,8.79706 4.111588,8.56909 12.916517,10.51088 21.532769,8.33323 8.859954,-2.24053 7.484186,-11.39137 3.95436,-17.40545 q -1.336463,-2.27985 0.990551,-3.52197 z M 433.7685,81.624217 q -1.1242,1.800296 0.76257,2.759401 c 5.11787,2.61003 12.15395,-3.018838 15.46366,-6.509363 2.18551,-2.311288 2.0833,-5.243647 -1.85533,-3.954355 -3.35687,1.100616 -12.52344,4.771959 -14.3709,7.704317 z m -73.46612,10.620947 c -9.76404,8.742026 -9.63826,23.050036 2.36632,29.645886 q 8.56122,4.7012 20.86454,7.51563 25.72297,5.88043 46.62681,-8.5062 c 9.87411,-6.80022 6.40716,-11.17125 7.35841,-21.218299 1.87891,-19.960456 -35.66782,-20.833093 -47.5309,-20.046935 Q 373.14028,80.75158 360.30238,92.245164 Z M 337.63755,81.396227 q -0.85691,1.61162 0.42452,2.91664 c 2.59432,2.641476 11.72157,9.347373 15.48725,7.083247 q 2.21695,-1.336465 0.12578,-3.946496 C 351.75688,85.043981 340.49916,75.99535 337.63755,81.396227 Z M 231.5303,106.12079 c -7.81438,19.39443 17.9086,29.37072 31.49334,30.31411 7.54708,0.51885 14.61461,0.18867 20.96674,-0.2044 8.86782,-0.55817 17.49979,-4.01725 24.94467,-8.8914 q 2.75941,-1.81603 3.26254,-2.28772 c 3.23896,-3.09744 2.09904,-7.72003 -2.12261,-9.08794 q -0.76258,-0.24371 -4.88201,-0.76257 c -7.33483,-0.91195 -13.40395,1.97325 -19.96832,4.16661 -8.33324,2.76728 -12.81432,4.47322 -20.23562,3.30971 -9.96844,-1.56444 -7.60211,-12.69638 -0.9827,-16.3127 q 8.01091,-4.37888 17.65702,-5.81753 5.7861,-0.856912 8.22318,-1.462257 c 4.24523,-1.053438 14.91335,-2.287712 9.81907,-8.356821 -1.76884,-2.099027 -6.81595,-4.976352 -9.45743,-5.078559 Q 259.88689,84.430781 235.6812,102.38655 c -1.06918,0.80189 -3.61632,2.39777 -4.1509,3.73424 z m -59.86565,-9.198016 c -8.02664,2.012565 -9.67756,9.787636 -9.69328,17.106726 -0.007,4.99994 -0.25944,9.9763 -1.05345,14.91335 q -0.92767,5.7232 4.08014,9.21373 12.32689,8.5848 21.91798,-2.35847 c 1.9418,-2.22481 3.42763,-4.59114 3.28613,-7.79079 q -0.30661,-7.07539 0.29874,-11.61936 c 0.65251,-4.85844 1.60375,-15.10988 -1.81603,-17.248217 -4.30811,-2.688657 -12.14608,-3.443369 -17.02023,-2.216969 z m 270.35848,7.429166 q -1.58803,1.28144 0.78614,3.04241 5.4402,4.05656 12.0832,2.35846 c 2.12262,-0.53458 4.46537,-0.0472 5.95118,-1.02985 2.05973,-1.35219 0.44026,-3.27041 -1.21067,-3.96222 -5.51094,-2.31916 -9.54392,-1.88677 -15.32216,-1.33646 q -1.29714,0.12578 -2.28769,0.92766 z m -110.13237,7.67286 c -1.58017,4.8663 16.35201,2.59431 18.24664,2.26412 q 2.08331,-0.36949 1.52514,-2.41348 c -1.66664,-6.11628 -14.46523,-2.70438 -18.5611,-1.1242 a 2.0361398,2.0597244 88.1 0 0 -1.21068,1.27356 z m 101.09158,12.96369 c -2.61789,5.14145 15.25139,14.07216 16.58787,9.74046 1.5723,-5.11001 -14.19796,-14.44167 -16.58787,-9.74046 z m -82.77418,10.01561 q -1.99684,3.71064 2.29557,3.87573 c 5.50307,0.22013 11.16339,-5.4795 13.6555,-9.9134 a 0.80187743,0.85690824 48.2 0 0 0.0629,-0.7154 c -2.37417,-5.8883 -14.19793,3.38833 -16.01395,6.75307 z m 60.57318,-0.79402 c -1.68235,4.75623 0.70755,11.08478 3.86004,14.7168 3.16819,3.65563 5.85684,0.0157 5.50307,-3.48265 q -0.73113,-7.39772 -6.34427,-12.06747 -2.1069,-1.76099 -3.01884,0.83332 z m -23.69468,0.50313 c -4.46536,2.66507 -6.77666,7.51565 -7.24834,12.5313 -0.19654,2.18552 1.05344,3.54556 3.24681,2.35061 5.17289,-2.80657 6.79238,-8.23104 6.90243,-13.74984 q 0.0629,-2.89304 -2.9009,-1.13207 z"
     id="path435"
     style="stroke-width:0.786154;fill:#ffffff" />
  <ellipse
     fill="#000000"
     cx="145.3808"
     cy="144.47267"
     transform="rotate(-29.9)"
     rx="3.6556177"
     ry="1.9968319"
     id="ellipse437"
     style="stroke-width:0.786154;fill:#ffffff" />
  <path
     fill="#000000"
     d="m 155.09251,55.201568 c 1.80815,0.56603 4.52039,1.077031 4.26096,3.404047 -0.46384,4.088003 -6.54081,0.550308 -5.84113,-2.499971 a 1.2421239,1.2342623 15.1 0 1 1.58017,-0.904076 z"
     id="path439"
     style="stroke-width:0.786154;fill:#ffffff" />
  <path
     fill="#000000"
     d="m 89.204915,82.29245 c 3.46695,0.14936 7.720048,2.319148 10.039194,5.039244 q 0.888361,1.045584 0.09426,2.161928 c -2.106896,2.987381 -7.720037,5.188614 -11.580051,5.880435 -5.448048,0.982692 -9.268757,-2.877325 -10.070635,-8.07381 q -0.353769,-2.264125 1.918216,-2.798705 c 3.10531,-0.746853 6.705898,-2.334886 9.598941,-2.209092 z"
     id="path441"
     style="stroke-width:0.786154;fill:#ffffff" />
  <path
     fill="#000000"
     d="m 398.06923,96.537565 q 0.0708,-0.92767 -2.54714,-1.281433 a 2.5078323,2.4763861 32.2 0 0 -1.66664,0.369492 q -0.8412,0.526721 -1.13207,0.141512 a 0.4166618,0.5974773 46 0 1 0.12579,-0.652516 q 3.38833,-3.694918 8.12883,-2.782988 1.66665,0.322329 0.66038,1.690241 c -2.02828,2.775118 1.69023,5.731061 4.17447,6.014077 1.14779,0.12578 2.95595,0.56603 4.39461,0.11793 a 1.1320623,1.1084777 7.8 0 0 0.60533,-0.448118 q 1.22641,-1.886761 -1.09274,-3.278263 a 0.62892347,0.62892347 0 0 1 -0.007,-1.06917 c 3.37261,-2.099027 9.3002,2.154071 12.56275,3.89934 a 1.8631858,1.8631858 0 0 1 0.9591,1.949651 c -1.63519,9.9134 -6.14772,13.78128 -15.55799,16.2734 -8.42758,2.22481 -18.12873,0.88836 -26.30472,-1.97325 q -5.74679,-2.01256 -8.41972,-7.86941 a 3.1131712,3.0817251 41.6 0 1 -0.1415,-2.23268 c 1.41508,-4.53611 4.24522,-6.926012 7.8065,-9.866235 1.74527,-1.438663 4.93706,-3.76568 6.45434,-0.927659 a 0.82546206,1.1477854 31.3 0 1 0.055,0.723255 q -0.37735,1.430804 0.35377,2.334889 3.08957,3.81284 9.25304,0.825463 1.23425,-0.597483 1.33645,-1.957528 z m 14.90549,15.306425 q 0.98269,-2.03614 -0.46383,-3.27825 a 0.84118514,1.0377237 66.4 0 0 -0.70754,-0.19655 c -8.08167,0.7783 -16.18692,0.65251 -24.04846,-1.47797 q -2.36633,-0.64464 -4.84272,-0.55031 a 1.1635084,0.99841601 18.4 0 0 -0.69181,0.28302 q -1.28143,1.24998 0.34591,2.44494 c 7.60998,5.56597 20.76234,4.96063 29.71664,3.30185 a 0.99055447,0.96696984 7.2 0 0 0.69181,-0.52673 z"
     id="path443"
     style="stroke-width:0.786154;fill:#ffffff" />
</svg>
