<?xml version="1.0" encoding="UTF-8" standalone="no"?>
<svg
   version="1.1"
   viewBox="0 0 500 200"
   id="svg76"
   sodipodi:docname="arduboy.svg"
   width="500"
   height="200"
   inkscape:version="1.2.2 (b0a8486541, 2022-12-01)"
   xmlns:inkscape="http://www.inkscape.org/namespaces/inkscape"
   xmlns:sodipodi="http://sodipodi.sourceforge.net/DTD/sodipodi-0.dtd"
   xmlns="http://www.w3.org/2000/svg"
   xmlns:svg="http://www.w3.org/2000/svg">
  <defs
     id="defs80" />
  <sodipodi:namedview
     id="namedview78"
     pagecolor="#505050"
     bordercolor="#ffffff"
     borderopacity="1"
     inkscape:showpageshadow="0"
     inkscape:pageopacity="0"
     inkscape:pagecheckerboard="1"
     inkscape:deskcolor="#505050"
     showgrid="false"
     inkscape:zoom="1.5827407"
     inkscape:cx="349.39394"
     inkscape:cy="71.079237"
     inkscape:window-width="1670"
     inkscape:window-height="910"
     inkscape:window-x="0"
     inkscape:window-y="0"
     inkscape:window-maximized="1"
     inkscape:current-layer="svg76" />
  <g
     stroke-width="2"
     fill="none"
     stroke-linecap="butt"
     id="g32"
     transform="matrix(0.77626427,0,0,0.77626427,15.995388,60.679129)">
    <path
       stroke="#c596da"
       vector-effect="non-scaling-stroke"
       d="M 561.76,43.76 C 554.91,36.7 547.88,29.46 540.68,22.78 A 1.18,1.14 21.4 0 1 540.3,21.95 C 540.22,17.2 541.9,6.8 536.25,5 q -3.97,-1.26 -6.18,1.55 c -2.42,3.09 -1.32,14.78 -1.32,19.12 q 0,1.71 1.21,2.91 l 26,26.01 a 1.23,1.22 22.2 0 1 0.36,0.84 q 0.11,19.16 -0.04,38.32 c -0.07,8.57 11.75,9.77 11.71,0 q -0.08,-18.96 -0.18,-37.93 a 1.26,1.23 67.6 0 1 0.35,-0.87 q 12.46,-12.93 25.29,-25.51 2.05,-2.01 2.05,-6.19 0,-6.5 0.12,-13 c 0.14,-8.09 -11.86,-7.28 -11.7,1 q 0.08,4 0.08,9.9 a 2.32,2.32 -22.5 0 1 -0.68,1.64 l -20.83,20.97 a 0.52,0.51 -44.6 0 1 -0.73,0"
       id="path2" />
    <path
       stroke="#b782cf"
       vector-effect="non-scaling-stroke"
       d="m 490.99,100.93 q 8.16,-7.41 15.29,-15.64"
       id="path4" />
    <path
       stroke="#c596da"
       vector-effect="non-scaling-stroke"
       d="m 506.28,85.29 q 2.47,-1.74 2.47,-5.54 0,-26 0,-52 c 0,-3.03 -0.26,-5.08 -2.43,-7.43 Q 499.16,12.56 492.16,6.2 490.75,4.92 488.75,4.94 l -28.14,0.29 q -2.39,0.03 -3.88,1.51 l -13.8,13.7 q -1.69,1.69 -1.69,4.17 l 0.01,57.16 q 0,1.62 1.1,2.73 l 15.27,15.27 q 1.5,1.5 3.64,1.48 l 29.73,-0.32"
       id="path6" />
    <path
       stroke="#7d19a9"
       vector-effect="non-scaling-stroke"
       d="m 506.28,85.29 q -8.1,7.26 -16.03,14.71 -0.22,0.22 0.74,0.93"
       id="path8" />
    <path
       stroke="#c596da"
       vector-effect="non-scaling-stroke"
       d="m 266.19,19.94 q -0.32,5.77 -0.17,11.55 c 0.43,15.81 0.49,31.64 0.71,47.46 0.05,3.02 -0.38,5.03 1.9,7.41 3.12,3.27 13.35,15.06 17.37,15.39 q 6.33,0.51 24.25,0.25 c 6.96,-0.1 8.07,-2.23 13.48,-7.54 q 7.27,-7.13 8.96,-9.27 c 1.81,-2.3 1.11,-5 1.14,-7.45 q 0.41,-32.18 -0.04,-64.36 c -0.07,-5.21 -2.54,-9.96 -8.48,-7.32 -3.39,1.51 -3.06,4.6 -3.06,7.8 q 0,31.09 0,63.4 0,1.62 -1.14,2.75 l -8.18,8.19 q -1.3,1.3 -3.15,1.3 h -19.54 q -1.88,0 -3.15,-1.28 l -8.24,-8.35 A 1.26,1.23 -67.6 0 1 278.5,79 q 0.14,-33 -0.25,-66 c -0.05,-4.52 -2.55,-8.04 -7.4,-7.13 -6.23,1.16 -4.43,9.99 -4.66,14.07"
       id="path10" />
    <path
       stroke="#c596da"
       vector-effect="non-scaling-stroke"
       d="m 353.66,13.26 c -0.42,17.1 -0.26,34.32 -0.19,51.43 0.02,5.36 0.52,15.69 0.1,23.56 -0.24,4.55 -0.44,11.38 4.96,12.79 q 0.82,0.21 6.96,0.21 18.01,0 36.01,-0.02 2.57,0 5.31,-2.67 6.15,-5.97 12.03,-12.22 c 4.03,-4.28 2.72,-12.87 2.5,-18.42 -0.2,-4.94 -7.18,-10.64 -10.73,-14.18 a 0.81,0.81 -46.6 0 1 -0.03,-1.11 c 3.24,-3.68 11.02,-10.01 10.77,-14.74 -0.2,-3.59 -0.1,-7.21 -0.1,-10.8 0,-4.22 -1.18,-5.39 -3.94,-8.15 q -6.25,-6.25 -12.5,-12.51 -1.18,-1.18 -2.86,-1.18 -20.32,0 -40.7,0 c -5.7,0 -7.45,2.43 -7.59,8.01"
       id="path12" />
    <path
       stroke="#c596da"
       vector-effect="non-scaling-stroke"
       d="m 94.47,101.33 c 6.14,2.82 8.95,-0.94 9,-6.66 q 0.07,-9.36 0.02,-19.59 a 0.83,0.83 0 0 1 0.83,-0.83 h 18.02 a 3.07,3.04 -21.7 0 1 2.21,0.94 q 11.37,11.86 23.37,23.75 c 7.47,7.4 15.16,-1.04 9.36,-7.1 Q 149.66,83.87 141.01,75.4 a 1.09,1.09 52 0 1 0.21,-1.72 c 5.85,-3.43 12.2,-10.71 16.68,-15.95 q 1.1,-1.28 1.1,-2.97 0,-12.97 0,-25.93 c 0,-3.98 0.31,-5.29 -2.19,-7.89 -4.82,-5.04 -8.73,-9.79 -13.33,-13.13 -3.63,-2.64 -6.46,-2.05 -12.51,-2.09 q -15.19,-0.1 -30.38,0.21 c -5.54,0.12 -8.81,1.25 -8.84,7.32 q -0.19,42.13 0.25,84.26 0.03,2.69 2.47,3.82"
       id="path14" />
    <path
       stroke="#c596da"
       vector-effect="non-scaling-stroke"
       d="m 182.17,101.06 q 2.75,1.1 5.68,1 c 12.56,-0.44 25.32,-0.06 37.9,-0.05 q 3.74,0 6.12,-2.64 c 4.2,-4.64 8.89,-9.01 13.33,-13.45 a 3.55,3.49 -22.7 0 0 1.05,-2.5 l 0.24,-58.41 Q 246.5,23.45 245.44,22.25 238.43,14.32 229.78,7 228.35,5.79 225,5.75 c -7.58,-0.1 -15.15,0.27 -22.67,0 Q 190.03,5.31 184.5,6 c -6.38,0.8 -6,7.45 -5.71,12.25 1.58,26.1 0.35,52.89 0.7,78.89 q 0.04,2.85 2.68,3.92"
       id="path16" />
    <path
       stroke="#c596da"
       vector-effect="non-scaling-stroke"
       d="M 59.95,61.05 60.74,98 a 1.65,1.47 -66.6 0 0 0.3,0.91 c 4.46,6.26 10.42,3.5 11.01,-3.02 q 0.2,-2.14 0.2,-5.14 0,-24 0.16,-48 0.03,-4.06 -1.72,-5.94 Q 65.12,30.84 40.86,7.1 A 1.6,1.49 69.5 0 0 40,6.67 c -4.68,-0.63 -5.89,1.4 -8.78,4.21 Q 17.77,23.95 5.61,37.22 4.47,38.45 4.49,40.13 4.66,68.25 4.24,94 c -0.18,10.86 12.27,11.48 12.07,1.75 Q 15.96,78.25 16,61.2 a 0.94,0.93 -89.7 0 1 0.94,-0.94 l 42.5,0.29 a 0.51,0.51 89.4 0 1 0.51,0.5"
       id="path18" />
    <path
       stroke="#c596da"
       vector-effect="non-scaling-stroke"
       d="m 452.75,27.74 c 0.1,16.65 -0.27,33.29 0.05,49.95 a 1.27,1.22 -69 0 0 0.36,0.86 l 10.29,10.29 a 1.2,1.2 66.4 0 0 0.86,0.34 l 21.88,-0.48 a 1.25,1.17 20.2 0 0 0.85,-0.36 l 9.86,-9.98 a 1.27,1.14 69.7 0 0 0.34,-0.86 l -0.8,-50.44 a 1.3,1.11 -71.7 0 0 -0.35,-0.86 l -9.53,-9.3 a 1.35,1.12 -19.1 0 0 -0.88,-0.33 l -21.91,0.17 a 1.31,1.26 -67.3 0 0 -0.88,0.38 l -9.77,9.78 a 1.23,1.12 -24.1 0 0 -0.37,0.84"
       id="path20" />
    <path
       stroke="#c596da"
       vector-effect="non-scaling-stroke"
       d="m 401,45.52 c 5.4,-5.83 10.54,-8.23 8.37,-17.54 A 1.65,1.61 -75.2 0 0 408.9,27.15 L 398.61,17.09 a 1.27,1.19 -21.6 0 0 -0.86,-0.34 q -12.63,0 -25.25,0 -4.18,0 -6.71,0.67 a 0.68,0.66 -8.1 0 0 -0.49,0.64 l 0.24,28.63 a 0.52,0.51 -0.6 0 0 0.52,0.5 q 14.85,0.15 29.69,0.31 3.37,0.04 5.25,-1.98"
       id="path22" />
    <path
       stroke="#c596da"
       vector-effect="non-scaling-stroke"
       d="m 409.92,76.6 c 1.23,-7.96 -4.78,-11.58 -9.72,-16.52 A 3.67,3.64 -22.2 0 0 397.6,59 h -30.96 a 0.89,0.89 89.7 0 0 -0.89,0.9 l 0.26,28.94 a 0.68,0.66 0.4 0 0 0.67,0.66 l 29.98,0.19 q 2.17,0.01 3.72,-1.47 c 3.01,-2.88 8.91,-7.54 9.54,-11.62"
       id="path24" />
    <path
       stroke="#c596da"
       vector-effect="non-scaling-stroke"
       d="m 136.82,18.43 -32.76,-0.12 a 0.5,0.49 -89.4 0 0 -0.5,0.5 l -0.06,43.33 a 0.37,0.37 -0.8 0 0 0.38,0.37 l 32.3,-0.57 a 1.41,0.95 14.1 0 0 0.89,-0.32 l 9.12,-8.75 q 1.06,-1.02 1.06,-2.72 V 29.26 a 1.47,1.42 -65.1 0 0 -0.31,-0.9 Q 142.8,23.1 137.7,18.77 a 1.4,1.28 63.8 0 0 -0.88,-0.34"
       id="path26" />
    <path
       stroke="#c596da"
       vector-effect="non-scaling-stroke"
       d="m 224.34,89.89 c 3.5,-2.67 6.93,-6.36 9.91,-9.7 a 1.97,1.97 -24.2 0 0 0.5,-1.31 V 29.02 a 2.39,1.99 -71.3 0 0 -0.62,-1.6 l -9.21,-9.06 a 3.43,2.91 -19.5 0 0 -2.26,-0.86 l -30.98,0.06 A 0.69,0.68 90 0 0 191,18.25 v 71.48 a 0.52,0.51 90 0 0 0.51,0.52 l 31.93,-0.06 a 1.5,1.5 -65.7 0 0 0.9,-0.3"
       id="path28" />
    <path
       stroke="#c596da"
       vector-effect="non-scaling-stroke"
       d="m 20.14,38.83 c -3.64,3.94 -4.82,3.86 -3.89,9.09 a 1,1 85.1 0 0 0.97,0.82 Q 38.1,48.97 58.9,48.02 a 0.66,0.66 4 0 0 0.61,-0.53 Q 60.34,43.24 58.29,41.21 48.21,31.17 38.61,21.37 a 0.92,0.92 0 0 0 -1.3,-0.02 q -9.23,8.91 -17.17,17.48"
       id="path30" />
  </g>
  <path
     fill="#ffffff"
     d="m 451.7358,89.556159 a 0.66758727,0.65206198 45.5 0 0 0.94705,0.01553 l 13.42161,-13.522524 a 0.86165333,0.83060276 66.1 0 0 0.24064,-0.667587 c -0.17078,-2.14249 -0.13973,-4.300504 -0.17854,-6.474044 -0.16302,-10.33984 15.51752,-11.535287 15.3545,0.116439 q -0.10091,7.157157 -0.38037,14.314314 a 1.0169062,1.0169062 0 0 1 -0.28721,0.667587 l -20.60206,20.982416 a 1.2575481,1.2730734 66.4 0 0 -0.3726,0.93152 q 0.25616,14.25221 0.11644,28.65191 -0.031,2.91875 -1.04796,4.40142 c -2.86442,4.1763 -10.1613,4.14525 -12.97914,0.0155 q -1.07901,-1.57581 -1.13334,-4.71968 -0.2717,-14.38418 -0.1475,-28.76059 a 0.92375448,0.91599183 22.2 0 0 -0.27945,-0.65983 q -9.27636,-9.175438 -18.54495,-18.358645 c -1.66897,-1.653442 -2.70917,-2.678111 -2.74022,-5.208733 q -0.0776,-6.8156 0.14749,-13.623438 c 0.19407,-5.915133 6.73798,-8.31379 11.41109,-5.814219 5.21649,2.794551 3.66397,8.500094 3.64844,13.545811 a 0.96256769,0.90822919 23.6 0 0 0.27946,0.659825 z m 0.3338,5.092294 C 446.75219,89.168027 441.29505,83.547874 435.70595,78.362429 a 0.91599183,0.88494126 21.4 0 1 -0.29498,-0.6443 c -0.0621,-3.687255 1.24202,-11.760403 -3.14387,-13.157679 q -3.08177,-0.978093 -4.79732,1.20321 c -1.87856,2.398656 -1.02467,11.473185 -1.02467,14.842172 q 0,1.327412 0.93928,2.258929 l 20.18288,20.190629 a 0.95480505,0.9470424 22.2 0 1 0.27945,0.65207 q 0.0854,14.87322 -0.031,29.74644 c -0.0543,6.65259 9.12111,7.5841 9.09005,0 q -0.0621,-14.71797 -0.13972,-29.4437 a 0.97809297,0.95480505 67.6 0 1 0.27169,-0.67535 q 9.67225,-10.037097 19.63172,-19.802501 1.59134,-1.560292 1.59134,-4.805076 0,-5.045718 0.0932,-10.091436 c 0.10867,-6.279978 -9.2065,-5.651204 -9.0823,0.776265 q 0.0621,3.105057 0.0621,7.685016 a 1.8009331,1.8009331 0 0 1 -0.52786,1.273073 l -16.16967,16.278262 a 0.39589478,0.40365742 45.4 0 1 -0.56667,0 z"
     id="path34"
     style="stroke-width:0.776264" />
  <path
     fill="#ffffff"
     d="m 399.51651,61.952202 c 4.87494,4.215115 9.7033,9.190969 13.92618,14.058146 a 1.6922561,3.4854266 10.7 0 1 0.5822,2.134727 q 0,23.776975 0,47.546185 c 0,2.84113 -11.80698,13.45266 -14.36089,15.91342 a 2.6160106,2.6237732 23 0 1 -1.79317,0.72968 l -25.43818,0.0466 q -1.97171,0 -3.38452,-1.4128 -5.82198,-5.81422 -11.73711,-11.73711 -1.91737,-1.90961 -1.90961,-4.12197 0.0155,-23.96328 0.0155,-47.763538 a 2.9886174,2.9808548 66.7 0 1 0.81508,-2.049337 q 5.51924,-5.853033 11.2636,-11.465423 c 1.75435,-1.715544 2.13472,-2.189066 4.79731,-2.17354 8.84165,0.06986 17.72211,-0.357082 26.54824,0.02329 a 1.0712447,1.08677 67.3 0 1 0.67535,0.271692 z m -2.38313,77.075278 q 6.33431,-5.75212 11.86908,-12.14077 1.91737,-1.3507 1.91737,-4.30051 0,-20.18287 0,-40.365738 c 0,-2.352081 -0.20183,-3.943422 -1.88632,-5.767644 q -5.55805,-6.02381 -10.9919,-10.960851 -1.09454,-0.993618 -2.64707,-0.978093 l -21.84407,0.225117 q -1.85527,0.02329 -3.01191,1.172159 l -10.71244,10.63482 q -1.31189,1.311887 -1.31189,3.237022 l 0.008,44.371268 q 0,1.25755 0.85389,2.1192 l 11.85356,11.85355 q 1.16439,1.1644 2.8256,1.14887 z"
     id="path36"
     style="stroke-width:0.776264" />
  <path
     fill="#ffffff"
     d="m 263.44514,65.724846 c 3.64845,-5.829744 11.16268,-5.658966 14.39194,0.147491 q 0.34156,0.605486 0.34156,1.304124 V 126.59173 A 2.6470611,2.6548238 66.3 0 1 277.48,128.3849 q -5.79093,6.33431 -11.5741,11.81474 c -1.58358,1.49819 -2.2434,2.35208 -4.59548,2.41418 q -10.58048,0.27169 -21.16873,0.17078 c -2.46076,-0.0311 -5.07677,0.36484 -6.9398,-1.42057 q -6.34208,-6.07814 -12.66087,-12.88598 a 2.0726256,2.1114388 22.5 0 1 -0.55891,-1.38951 Q 219.56293,98.087304 219.57069,70.7007 c 0,-4.882702 1.0169,-8.096436 6.21011,-8.663109 q 6.52838,-0.714163 8.49233,3.834746 0.79956,1.855271 0.86942,7.972234 0.2484,23.202538 0.14749,46.412839 a 0.83836541,0.98585562 19 0 0 0.26393,0.66759 l 5.85303,5.67449 a 0.9470424,1.1643964 74.7 0 0 0.66759,0.29498 q 6.76902,0.65206 13.53805,-0.0466 a 1.304124,0.84612805 10.9 0 0 0.69087,-0.27946 l 6.48181,-6.21787 a 1.0091435,0.75297634 74 0 0 0.25617,-0.67535 v -52.5298 a 2.7013996,2.693637 61 0 1 0.40365,-1.420564 z m -40.81597,10.432992 q -0.24841,4.479045 -0.13197,8.965852 c 0.3338,12.272738 0.38037,24.561 0.55115,36.8415 0.0388,2.34432 -0.29498,3.90461 1.4749,5.75212 2.42195,2.53838 10.36313,11.69054 13.48371,11.9467 q 4.91376,0.3959 18.82441,0.19407 c 5.4028,-0.0776 6.26446,-1.73107 10.46405,-5.85303 q 5.64344,-5.53476 6.95532,-7.19597 c 1.40504,-1.78541 0.86166,-3.88132 0.88494,-5.78317 q 0.31827,-24.980181 -0.031,-49.960366 c -0.0543,-4.044336 -1.97171,-7.731592 -6.58272,-5.682254 -2.63153,1.172159 -2.37537,3.570816 -2.37537,6.054861 q 0,24.134056 0,49.215159 0,1.25754 -0.88494,2.13472 l -6.34984,6.35761 q -1.00914,1.00914 -2.44523,1.00914 h -15.16821 q -1.45937,0 -2.44523,-0.99362 l -6.39642,-6.48181 a 0.95480505,0.97809297 22.4 0 1 -0.27169,-0.67534 q 0.10868,-25.616725 -0.19406,-51.233446 c -0.0388,-3.508714 -1.97948,-6.241165 -5.74436,-5.534764 -4.83613,0.900466 -3.43885,7.75488 -3.61739,10.922038 z"
     id="path38"
     style="stroke-width:0.776264" />
  <path
     fill="#ffffff"
     d="m 337.8035,68.309806 c 2.17354,2.002762 8.29826,7.110581 8.29826,10.029335 0,4.595484 -0.20959,9.346221 0.0931,13.926181 0.2096,3.074006 -4.82836,7.296884 -6.86217,9.338458 a 0.53562234,0.54338499 41 0 0 0.0543,0.81508 q 3.94342,3.04295 6.46628,7.07953 a 1.3429372,1.3739877 28.6 0 1 0.20183,0.71416 l 0.0388,15.26136 q 0.008,1.52924 -0.97809,2.74021 c -3.4699,4.28498 -7.43661,7.96447 -11.42661,12.02433 -1.20321,1.2265 -1.96395,1.9329 -3.83475,1.97171 q -17.20201,0.30274 -34.40403,0.17078 c -2.10368,-0.0155 -3.33794,0.28722 -4.98362,-1.13335 -2.25116,-1.94842 -2.96533,-3.89684 -2.98085,-7.03295 q -0.14749,-31.91998 -0.1863,-63.839971 c 0,-5.123344 1.90184,-8.72521 7.33569,-8.72521 q 17.77645,0 35.55291,0 c 1.99499,0 6.20235,5.356223 7.61515,6.660347 z m -47.2745,2.662587 c -0.32603,13.274119 -0.20182,26.641389 -0.14749,39.923267 0.0155,4.16078 0.40366,12.17959 0.0776,18.28879 -0.1863,3.532 -0.34156,8.83388 3.85027,9.92842 q 0.63654,0.16301 5.4028,0.16301 13.98052,0 27.95328,-0.0155 1.995,0 4.12196,-2.07263 4.77403,-4.63429 9.33846,-9.48595 c 3.12834,-3.32241 2.11144,-9.99052 1.94066,-14.29878 -0.15525,-3.83475 -5.57358,-8.25945 -8.32932,-11.00743 a 0.62877405,0.62877405 0 0 1 -0.0233,-0.86165 c 2.51509,-2.856656 8.55443,-7.770408 8.36036,-11.442138 -0.15525,-2.786789 -0.0776,-5.596866 -0.0776,-8.383654 0,-3.275836 -0.916,-4.184065 -3.05849,-6.326554 q -4.85165,-4.851652 -9.7033,-9.711066 -0.91599,-0.915992 -2.22011,-0.915992 -15.77369,0 -31.59396,0 c -4.42471,0 -5.78317,1.886322 -5.89185,6.217877 z"
     id="path40"
     style="stroke-width:0.776264" />
  <path
     fill="#ffffff"
     d="m 99.490373,121.85651 c -0.04658,4.37037 0.962567,14.45405 -0.908229,18.07143 -2.460758,4.7585 -10.821124,4.56444 -13.289645,0.2096 q -1.179921,-2.06487 -1.179921,-7.36675 0,-30.98847 0,-61.976938 c 0,-5.658966 2.080388,-8.492331 7.762642,-8.601008 q 14.78007,-0.279455 29.56014,-0.163016 c 2.32879,0.01553 5.47266,-0.364844 7.26583,1.218735 q 6.74574,5.96171 12.87823,12.699684 a 2.7635008,2.6315359 24.6 0 1 0.71416,1.79317 l 0.23288,27.697113 a 2.3598434,2.0726256 69.7 0 1 -0.61325,1.5991 l -11.51976,11.79145 a 0.35708156,0.38036949 43.8 0 0 -0.008,0.52786 q 5.30188,5.13887 10.48733,10.38642 1.33517,1.3507 1.66897,2.89547 c 0.66758,3.11282 0.22511,8.17406 -2.98086,9.65672 -1.8087,0.83837 -4.89823,0.47352 -6.79231,0.47352 q -1.83975,0 -3.20597,-1.38175 l -19.41413,-19.65501 a 0.96256769,0.90822919 66.4 0 0 -0.65982,-0.27945 h -9.610155 a 0.38813213,0.40365742 0 0 0 -0.388132,0.40365 z m -10.161299,17.48147 c 4.766262,2.18907 6.947565,-0.72968 6.986378,-5.16991 q 0.05434,-7.26584 0.01552,-15.20702 a 0.64429934,0.64429934 0 0 1 0.6443,-0.6443 h 13.988278 a 2.3598434,2.3831313 68.3 0 1 1.71555,0.72969 q 8.82611,9.20649 18.14128,18.43627 c 5.7987,5.74436 11.76817,-0.80731 7.26584,-5.51147 q -5.91513,-6.18683 -12.62981,-12.76179 a 0.84612805,0.84612805 0 0 1 0.16301,-1.33517 c 4.54115,-2.66259 9.47043,-8.31379 12.94809,-12.38142 q 0.85389,-0.99361 0.85389,-2.3055 0,-10.068148 0,-20.128533 c 0,-3.089531 0.24064,-4.106438 -1.70002,-6.124725 -3.74159,-3.912372 -6.77678,-7.599627 -10.3476,-10.192349 -2.81784,-2.049338 -5.01467,-1.591342 -9.71106,-1.622393 q -11.79146,-0.07763 -23.582909,0.163016 c -4.300504,0.09315 -6.838888,0.97033 -6.862176,5.682254 q -0.14749,32.70401 0.194066,65.40803 0.02329,2.08814 1.917373,2.96532 z"
     id="path42"
     style="stroke-width:0.776264" />
  <path
     fill="#ffffff"
     d="m 207.61622,130.96986 q -5.36399,5.54252 -11.18597,11.15491 a 2.3055049,2.2977422 22.9 0 1 -1.5991,0.6443 q -18.16459,0 -36.06524,0 c -3.72607,0 -6.54391,-2.10367 -6.52838,-5.91513 q 0.20959,-49.937079 -0.3959,-66.083376 c -0.34156,-9.13663 5.20097,-8.732973 12.60653,-8.732973 q 14.98967,0 29.61448,0 1.47491,0 2.55391,1.009144 c 4.12973,3.889084 9.60239,8.492331 12.91704,13.025714 q 0.7685,1.055719 0.76074,2.724688 -0.1863,24.126293 0.15525,43.012803 c 0.0854,4.84389 0.34156,5.87632 -2.83336,9.15992 z m -50.20877,8.15853 q 2.13472,0.85389 4.40918,0.77627 c 9.74988,-0.34156 19.65501,-0.0466 29.42041,-0.0388 q 2.90323,0 4.75074,-2.04933 c 3.26031,-3.60187 6.90099,-6.99414 10.3476,-10.44076 a 2.7091623,2.7557381 67.3 0 0 0.81508,-1.94066 l 0.1863,-45.341592 q 0.008,-1.210972 -0.81507,-2.142489 -5.44162,-6.155776 -12.1563,-11.838031 -1.11006,-0.939279 -3.71055,-0.97033 c -5.88408,-0.07763 -11.7604,0.209591 -17.59791,0 q -9.54805,-0.341556 -13.84079,0.194066 c -4.95256,0.621012 -4.65758,5.783169 -4.43247,9.509237 1.2265,20.260498 0.27169,41.056619 0.54339,61.239489 q 0.031,2.21235 2.08039,3.04295 z"
     id="path44"
     style="stroke-width:0.776264" />
  <path
     fill="#ffffff"
     d="m 67.616962,143.57639 q -4.812838,0.0233 -7.452137,-4.16078 a 1.9717112,2.2045905 25.8 0 1 -0.318268,-1.1023 l -0.194066,-27.29344 a 0.45023327,0.42694535 0 0 0 -0.450233,-0.42695 l -27.130437,-0.0466 a 0.53562234,0.55891027 89.6 0 0 -0.55891,0.54339 q 0.14749,12.80836 0.03105,25.08886 c -0.09315,10.45628 -14.648106,9.73435 -15.385557,-0.39589 v -4.46352 q 0.326031,-4.05987 0.248404,-8.11973 c -0.163015,-9.26859 0.03105,-18.5139 -0.05434,-27.782496 0.08539,-4.742974 -0.752976,-6.093674 2.7014,-9.749879 Q 29.758554,74.349142 40.890183,63.434867 a 2.5461468,2.7091623 23.9 0 1 1.816459,-0.768502 l 6.047098,-0.04658 a 1.0479568,1.0013809 66.3 0 1 0.714164,0.294981 q 12.482329,12.164061 24.312596,24.397986 1.366226,1.420563 1.373988,4.805075 0.03105,19.297933 0.03105,38.588093 c 0,6.94757 0.349319,11.99329 -7.568577,12.87047 z m -5.084531,-35.50633 0.613249,28.68296 a 1.1411085,1.280836 23.4 0 0 0.232879,0.7064 c 3.462139,4.85942 8.088674,2.71693 8.54667,-2.34431 q 0.155253,-1.66121 0.155253,-3.99 0,-18.63034 0.124202,-37.260684 0.02329,-3.151633 -1.335175,-4.61101 -4.323792,-4.634297 -23.155963,-23.062811 a 1.2420228,1.1566338 69.5 0 0 -0.667587,-0.333794 c -3.632917,-0.489046 -4.572196,1.08677 -6.8156,3.268073 Q 29.789604,79.270658 20.350231,89.571685 19.46529,90.52649 19.480815,91.830614 19.61278,113.65916 19.286749,133.64797 c -0.139728,8.43023 9.524763,8.91151 9.36951,1.35846 Q 28.384566,121.42181 28.415617,108.1865 a 0.72192577,0.72968841 0.3 0 1 0.729688,-0.72969 l 32.991231,0.22512 a 0.39589478,0.39589478 0 0 1 0.395895,0.38813 z"
     id="path46"
     style="stroke-width:0.776264" />
  <path
     fill="#8b2db4"
     d="m 435.70595,78.362429 c 5.5891,5.185445 11.04624,10.805598 16.36365,16.286024 a 0.39589478,0.40365742 45.4 0 0 0.56667,0 l 16.16959,-16.278262 a 1.8009331,1.8009331 0 0 0 0.52786,-1.273073 q 0,-4.579959 -0.0621,-7.685016 c -0.1242,-6.427469 9.19097,-7.056243 9.0823,-0.776265 q -0.0932,5.045718 -0.0932,10.091436 0,3.244784 -1.59134,4.805076 -9.95947,9.765404 -19.63172,19.802501 a 0.97809297,0.95480505 67.6 0 0 -0.27169,0.67535 q 0.0776,14.72573 0.13972,29.4437 c 0.0311,7.5841 -9.14439,6.65259 -9.09005,0 q 0.11644,-14.87322 0.031,-29.74644 a 0.95480505,0.9470424 22.2 0 0 -0.27945,-0.65207 l -20.1828,-20.190629 q -0.93928,-0.931517 -0.93928,-2.258929 c 0,-3.368987 -0.85389,-12.443516 1.02467,-14.842172 q 1.71555,-2.181303 4.79732,-1.20321 c 4.38589,1.397276 3.08177,9.470424 3.14387,13.157679 a 0.91599183,0.88494126 21.4 0 0 0.29498,0.6443 z"
     id="path48"
     style="stroke-width:0.776264" />
  <path
     fill="#8b2db4"
     d="m 409.00246,126.88671 q -6.28774,5.63568 -12.44352,11.41884 -0.17078,0.17078 0.57444,0.72193 l -23.07834,0.2484 q -1.66121,0.0155 -2.8256,-1.14887 l -11.85356,-11.85355 q -0.85389,-0.86165 -0.85389,-2.1192 l -0.008,-44.371268 q 0,-1.925135 1.31189,-3.237022 l 10.71244,-10.63482 q 1.15664,-1.148871 3.01191,-1.172159 l 21.84407,-0.225117 q 1.55253,-0.01553 2.64707,0.978093 5.43385,4.937041 10.9919,10.960851 c 1.68449,1.824222 1.88632,3.415563 1.88632,5.767644 q 0,20.182868 0,40.365738 0,2.94981 -1.91737,4.30051 z M 367.44903,82.212699 c 0.0776,12.9248 -0.20959,25.841841 0.0388,38.774401 a 0.9470424,0.98585562 21 0 0 0.27946,0.66759 l 7.98776,7.98776 a 0.93151712,0.93151712 0 0 0 0.66759,0.26393 l 16.98466,-0.37261 a 0.97033033,0.90822919 20.2 0 0 0.65982,-0.27946 l 7.65397,-7.74711 a 0.98585562,0.88494126 69.7 0 0 0.26393,-0.66759 l -0.62101,-39.15477 a 0.86165333,1.0091435 18.3 0 0 -0.2717,-0.667588 l -7.39779,-7.219257 a 0.86941598,1.0479568 70.9 0 0 -0.68312,-0.256168 l -17.00795,0.131965 a 0.97809297,1.0169062 22.7 0 0 -0.68311,0.294981 l -7.5841,7.591864 a 0.86941598,0.95480505 65.9 0 0 -0.28722,0.652062 z"
     id="path50"
     style="stroke-width:0.776264" />
  <path
     fill="#8b2db4"
     d="m 222.62917,76.157838 c 0.17854,-3.167158 -1.21874,-10.021572 3.61739,-10.922038 3.76488,-0.706401 5.70554,2.02605 5.74436,5.534764 q 0.30274,25.616721 0.19406,51.233446 a 0.95480505,0.97809297 22.4 0 0 0.27169,0.67534 l 6.39642,6.48181 q 0.98586,0.99362 2.44523,0.99362 h 15.16821 q 1.43609,0 2.44523,-1.00914 l 6.34984,-6.35761 q 0.88494,-0.87718 0.88494,-2.13472 0,-25.081103 0,-49.215159 c 0,-2.484045 -0.25616,-4.882702 2.37537,-6.054861 4.61101,-2.049338 6.52839,1.637918 6.58272,5.682254 q 0.34932,24.980185 0.031,49.960366 c -0.0233,1.90185 0.5201,3.99776 -0.88494,5.78317 q -1.31188,1.66121 -6.95532,7.19597 c -4.19959,4.12196 -5.06125,5.7754 -10.46405,5.85303 q -13.91065,0.20183 -18.82441,-0.19407 c -3.12058,-0.25616 -11.06176,-9.40832 -13.48371,-11.9467 -1.76988,-1.84751 -1.43608,-3.4078 -1.4749,-5.75212 -0.17078,-12.2805 -0.21735,-24.568762 -0.55115,-36.8415 q -0.11644,-4.486807 0.13197,-8.965852 z"
     id="path52"
     style="stroke-width:0.776264" />
  <path
     fill="#8b2db4"
     d="m 290.38151,110.89566 c -0.0543,-13.281878 -0.17854,-26.649148 0.14749,-39.923267 0.10868,-4.331555 1.46714,-6.217877 5.89185,-6.217877 q 15.82027,0 31.59396,0 1.30412,0 2.22011,0.915992 4.85165,4.859414 9.7033,9.711066 c 2.14249,2.142489 3.05849,3.050718 3.05849,6.326554 0,2.786788 -0.0776,5.596865 0.0776,8.383654 0.19407,3.67173 -5.84527,8.585482 -8.36036,11.442138 a 0.62877405,0.62877405 0 0 0 0.0233,0.86165 c 2.75574,2.74798 8.17407,7.17268 8.32932,11.00743 0.17078,4.30826 1.18768,10.97637 -1.94066,14.29878 q -4.56443,4.85166 -9.33846,9.48595 -2.12696,2.07263 -4.12196,2.07263 -13.97276,0.0155 -27.95328,0.0155 -4.76626,0 -5.4028,-0.16301 c -4.19183,-1.09454 -4.03657,-6.39642 -3.85027,-9.92842 0.32603,-6.1092 -0.0621,-14.12801 -0.0776,-18.28879 z m 36.89584,-14.880982 c 4.19183,-4.525621 8.18183,-6.388655 6.49734,-13.615675 a 1.2497855,1.280836 14.8 0 0 -0.36485,-0.6443 l -7.98776,-7.809218 a 0.92375448,0.98585562 68.4 0 0 -0.66758,-0.26393 q -9.80422,0 -19.60068,0 -3.24478,0 -5.20873,0.520097 a 0.51233441,0.5278597 81.9 0 0 -0.38037,0.496809 l 0.1863,22.224446 a 0.39589478,0.40365742 89.4 0 0 0.40366,0.388132 q 11.52753,0.11644 23.04729,0.240642 2.61601,0.03105 4.07538,-1.537003 z m 6.92428,24.126292 c 0.95481,-6.17906 -3.71054,-8.98914 -7.54529,-12.82388 a 2.8256019,2.8488899 67.8 0 0 -2.01828,-0.83837 h -24.03315 a 0.6908752,0.6908752 0 0 0 -0.69087,0.69864 l 0.20183,22.46509 a 0.5278597,0.51233441 0.4 0 0 0.5201,0.51233 l 23.2724,0.14749 q 1.68449,0.008 2.8877,-1.14111 c 2.33656,-2.23564 6.91652,-5.85303 7.40556,-9.02019 z"
     id="path54"
     style="stroke-width:0.776264" />
  <path
     fill="#8b2db4"
     d="m 89.329074,139.33798 q -1.894085,-0.87718 -1.917373,-2.96532 -0.341556,-32.70402 -0.194066,-65.40803 c 0.02329,-4.711924 2.561672,-5.589103 6.862176,-5.682254 Q 105.87126,65.041734 117.66272,65.11936 c 4.69639,0.03105 6.89322,-0.426945 9.71106,1.622393 3.57082,2.592722 6.60601,6.279977 10.3476,10.192349 1.94066,2.018287 1.70002,3.035194 1.70002,6.124725 q 0,10.060385 0,20.128533 0,1.31189 -0.85389,2.3055 c -3.47766,4.06763 -8.40694,9.71883 -12.94809,12.38142 a 0.84612805,0.84612805 0 0 0 -0.16301,1.33517 q 6.71468,6.57496 12.62982,12.76179 c 4.50233,4.70416 -1.46714,11.25583 -7.26584,5.51147 q -9.31517,-9.22978 -18.14129,-18.43627 a 2.3598434,2.3831313 68.3 0 0 -1.71554,-0.72969 H 96.975277 a 0.64429934,0.64429934 0 0 0 -0.6443,0.6443 q 0.03881,7.94118 -0.01552,15.20702 c -0.03881,4.44023 -2.220116,7.35898 -6.986378,5.16991 z M 122.20386,74.985679 96.773448,74.892529 a 0.38036949,0.38813213 0.6 0 0 -0.388132,0.388132 l -0.04658,33.635529 a 0.28721778,0.28721778 0 0 0 0.29498,0.28722 l 25.073334,-0.44247 a 1.0945326,0.73745105 14.1 0 0 0.69088,-0.24841 l 7.07953,-6.79231 q 0.82284,-0.79179 0.82284,-2.111436 V 83.392621 a 1.1022953,1.1411085 24.9 0 0 -0.24064,-0.698638 q -3.21374,-4.08315 -7.17269,-7.444374 a 1.08677,0.99361826 63.8 0 0 -0.68311,-0.26393 z"
     id="path56"
     style="stroke-width:0.776264" />
  <path
     fill="#8b2db4"
     d="m 157.40745,139.12839 q -2.04934,-0.8306 -2.08039,-3.04295 c -0.2717,-20.18287 0.68311,-40.978991 -0.54339,-61.239489 -0.22511,-3.726068 -0.52009,-8.888225 4.43247,-9.509237 q 4.29274,-0.535622 13.84079,-0.194066 c 5.83751,0.209591 11.71383,-0.07763 17.59791,0 q 2.60049,0.03105 3.71055,0.97033 6.71468,5.682255 12.1563,11.838031 0.82284,0.931517 0.81507,2.142489 l -0.1863,45.341592 a 2.7091623,2.7557381 67.3 0 1 -0.81508,1.94066 c -3.44661,3.44662 -7.08729,6.83889 -10.3476,10.44076 q -1.84751,2.04933 -4.75074,2.04933 c -9.7654,-0.008 -19.67053,-0.30274 -29.42041,0.0388 q -2.27446,0.0776 -4.40918,-0.77627 z m 32.73506,-8.67087 c 2.71692,-2.07262 5.37951,-4.93704 7.69278,-7.52976 a 1.5292406,1.5292406 0 0 0 0.38813,-1.01691 V 83.206318 a 1.5447659,1.8552716 18.7 0 0 -0.48128,-1.242023 l -7.1494,-7.032954 a 2.258929,2.6625864 70.5 0 0 -1.75435,-0.667588 l -24.04867,0.04658 a 0.5278597,0.53562234 0 0 0 -0.52786,0.535622 v 55.487365 a 0.39589478,0.40365742 0 0 0 0.39589,0.40366 l 24.78612,-0.0466 a 1.1643964,1.1643964 0 0 0 0.69864,-0.23288 z"
     id="path58"
     style="stroke-width:0.776264" />
  <path
     fill="#8b2db4"
     d="m 62.136536,107.68193 -32.991231,-0.22512 a 0.72192577,0.72968841 0.3 0 0 -0.729688,0.72969 q -0.03105,13.23531 0.240642,26.81993 c 0.155253,7.55305 -9.509238,7.07177 -9.36951,-1.35846 Q 19.61278,113.65916 19.480815,91.830614 19.46529,90.52649 20.350231,89.571685 29.789604,79.270658 40.230359,69.124884 c 2.243404,-2.181303 3.182683,-3.757119 6.8156,-3.268073 a 1.2420228,1.1566338 69.5 0 1 0.667587,0.333794 q 18.832171,18.428514 23.155963,23.062811 1.358463,1.459377 1.335175,4.61101 -0.124202,18.630344 -0.124202,37.260684 0,2.32879 -0.155253,3.99 c -0.457996,5.06124 -5.084531,7.20373 -8.54667,2.34431 a 1.1411085,1.280836 23.4 0 1 -0.232879,-0.7064 l -0.613249,-28.68296 a 0.39589478,0.39589478 0 0 0 -0.395895,-0.38813 z M 31.629351,90.82147 c -2.825602,3.058481 -3.741594,2.99638 -3.019668,7.056242 a 0.77626427,0.77626427 0 0 0 0.752976,0.636537 q 16.208398,0.178541 32.354695,-0.55891 a 0.51233441,0.51233441 0 0 0 0.473521,-0.41142 q 0.644299,-3.299124 -0.947042,-4.87494 -7.824744,-7.793693 -15.276881,-15.401083 a 0.71416312,0.71416312 0 0 0 -1.009144,-0.01552 Q 37.792889,84.16889 31.629351,90.821475 Z"
     id="path60"
     style="stroke-width:0.776264" />
  <path
     fill="#ffffff"
     d="m 333.77469,82.399003 c 1.68449,7.22702 -2.30551,9.090054 -6.49734,13.615675 q -1.45937,1.568054 -4.07538,1.537003 -11.51976,-0.124202 -23.04729,-0.240642 a 0.39589478,0.40365742 89.4 0 1 -0.40366,-0.388132 l -0.1863,-22.224446 a 0.51233441,0.5278597 81.9 0 1 0.38037,-0.496809 q 1.96395,-0.520097 5.20873,-0.520097 9.79646,0 19.60068,0 a 0.92375448,0.98585562 68.4 0 1 0.66758,0.26393 l 7.98776,7.809218 a 1.2497855,1.280836 14.8 0 1 0.36485,0.6443 z m -9.73436,11.643964 q 3.30689,-3.004143 5.80646,-6.016048 c 2.31327,-2.794552 0.6443,-4.253928 -1.32741,-6.210114 q -2.46076,-2.43747 -4.89823,-4.905991 a 0.88494126,0.96256769 69.2 0 0 -0.65982,-0.263929 l -19.58515,0.131964 a 0.74521369,0.75297634 89.7 0 0 -0.74522,0.745214 V 93.7868 a 0.65982463,0.65982463 0 0 0 0.65983,0.659824 h 19.70159 a 1.5680538,1.5447659 23.5 0 0 1.04795,-0.403657 z"
     id="path62"
     style="stroke-width:0.776264" />
  <path
     fill="#ffffff"
     d="m 367.48784,120.9871 c -0.2484,-12.93256 0.0388,-25.849601 -0.0388,-38.774401 a 0.86941598,0.95480505 65.9 0 1 0.28722,-0.652062 l 7.5841,-7.591864 a 0.97809297,1.0169062 22.7 0 1 0.68311,-0.294981 l 17.00795,-0.131965 a 0.86941598,1.0479568 70.9 0 1 0.68312,0.256168 l 7.39779,7.219257 a 0.86165333,1.0091435 18.3 0 1 0.2717,0.667588 l 0.62101,39.15477 a 0.98585562,0.88494126 69.7 0 1 -0.26393,0.66759 l -7.65397,7.74711 a 0.97033033,0.90822919 20.2 0 1 -0.65982,0.27946 l -16.98466,0.37261 a 0.93151712,0.93151712 0 0 1 -0.66759,-0.26393 l -7.98776,-7.98776 a 0.9470424,0.98585562 21 0 1 -0.27946,-0.66759 z m 24.8327,5.09229 1.71554,-1.71554 4.41695,-4.57996 a 1.2730734,0.85389069 78.8 0 0 0.28721,-0.69088 q 0.28722,-2.67034 -0.0466,-6.79231 -0.5201,-6.3576 -0.38813,-28.519947 a 0.79178955,1.0169062 17.2 0 0 -0.25617,-0.67535 l -6.31879,-6.101437 a 1.412801,1.5602912 68.4 0 0 -1.08677,-0.41142 l -12.87046,0.225117 a 0.93151712,1.08677 25.5 0 0 -0.68312,0.302743 l -5.96947,5.977235 a 1.7854078,1.9561859 65.7 0 0 -0.56667,1.319649 v 34.7223 a 0.90046655,1.0246688 19.6 0 0 0.27945,0.69864 l 6.66035,6.51285 a 1.1411085,1.304124 74.5 0 0 0.67535,0.32604 q 2.5151,0.36484 6.16354,-0.0155 c 2.56167,-0.26393 7.32793,0.16301 7.98776,-0.5822 z"
     id="path64"
     style="stroke-width:0.776264" />
  <path
     fill="#ffffff"
     d="m 197.83529,122.92776 c -2.31327,2.59272 -4.97586,5.45714 -7.69278,7.52976 a 1.1643964,1.1643964 0 0 1 -0.69864,0.23288 l -24.78612,0.0466 a 0.39589478,0.40365742 0 0 1 -0.39589,-0.40366 V 74.845955 a 0.5278597,0.53562234 0 0 1 0.52786,-0.535622 l 24.04867,-0.04658 a 2.258929,2.6625864 70.5 0 1 1.75435,0.667588 l 7.1494,7.032954 a 1.5447659,1.8552716 18.7 0 1 0.48128,1.242023 v 38.704532 a 1.5292406,1.5292406 0 0 1 -0.38813,1.01691 z m -10.06039,4.7585 a 0.98585562,0.91599183 21.1 0 0 0.67535,-0.27169 l 6.3809,-6.38866 a 0.95480505,0.9470424 68.1 0 0 0.28721,-0.68311 l -0.0466,-35.746969 a 0.88494126,0.93927976 20.9 0 0 -0.27169,-0.659825 l -6.38866,-6.303266 a 0.88494126,0.98585562 69.7 0 0 -0.66759,-0.26393 l -19.96551,-0.05434 a 0.55114763,0.55891027 0 0 0 -0.55115,0.55891 v 49.51013 a 0.38036949,0.37260685 89.4 0 0 0.38037,0.38037 z"
     id="path66"
     style="stroke-width:0.776264" />
  <path
     fill="#ffffff"
     d="m 122.88697,75.249609 q 3.95895,3.361224 7.17269,7.444374 a 1.1022953,1.1411085 24.9 0 1 0.24064,0.698638 v 16.216161 q 0,1.319648 -0.82284,2.111438 l -7.07953,6.79231 a 1.0945326,0.73745105 14.1 0 1 -0.69088,0.24841 l -25.07333,0.44247 a 0.28721778,0.28721778 0 0 1 -0.29498,-0.28722 l 0.04658,-33.635531 a 0.38036949,0.38813213 0.6 0 1 0.388132,-0.388132 l 25.430408,0.09315 a 1.08677,0.99361826 63.8 0 1 0.68311,0.26393 z M 99.769828,105.9431 119.40931,105.68693 q 1.31189,-0.0155 2.22788,-0.93152 l 5.04572,-5.037951 a 2.4219445,2.4141819 67.6 0 0 0.7064,-1.707782 V 85.690363 a 1.8630342,2.5461468 16.2 0 0 -0.60549,-1.661205 l -5.88408,-5.829745 a 0.76850162,1.063482 73.9 0 0 -0.69088,-0.248404 l -20.237203,-0.04658 a 0.38813213,0.38036949 0 0 0 -0.388132,0.380369 l -0.09315,27.394368 a 0.26392985,0.27169249 89.2 0 0 0.279455,0.26393 z"
     id="path68"
     style="stroke-width:0.776264" />
  <path
     fill="#ffffff"
     d="m 31.629351,90.82147 q 6.163538,-6.652585 13.328457,-13.569099 a 0.71416312,0.71416312 0 0 1 1.009144,0.01552 q 7.452137,7.60739 15.276881,15.401083 1.591341,1.575816 0.947042,4.87494 a 0.51233441,0.51233441 0 0 1 -0.473521,0.41142 q -16.146297,0.737451 -32.354695,0.55891 a 0.77626427,0.77626427 0 0 1 -0.752976,-0.636537 c -0.721926,-4.059862 0.194066,-3.997761 3.019668,-7.056242 z m 15.998806,-6.691398 -1.521478,-1.715544 q -0.419182,-1.125583 -1.071244,-0.457996 -6.574959,6.722449 -13.010189,13.437135 -0.706401,0.737451 0.263929,0.41142 1.800934,-0.589961 3.695018,-0.566673 11.232544,0.170778 22.465088,-0.240642 0.38037,-0.01552 0.108677,-0.279455 z"
     id="path70"
     style="stroke-width:0.776264" />
  <path
     fill="#ffffff"
     d="m 334.20163,120.14097 c -0.48904,3.16716 -5.069,6.78455 -7.40556,9.02019 q -1.20321,1.14887 -2.8877,1.14111 l -23.2724,-0.14749 a 0.5278597,0.51233441 0.4 0 1 -0.5201,-0.51233 l -0.20183,-22.46509 a 0.6908752,0.6908752 0 0 1 0.69087,-0.69864 h 24.03315 a 2.8256019,2.8488899 67.8 0 1 2.01828,0.83837 c 3.83475,3.83474 8.5001,6.64482 7.54529,12.82388 z m -31.07386,6.51286 a 0.44247063,0.43470799 1 0 0 0.44247,0.45023 l 19.19702,-0.0543 q 1.31189,-0.008 2.22012,-0.91599 c 1.89408,-1.88632 6.07814,-5.10006 6.02381,-7.90237 -0.0388,-2.61601 -4.23841,-6.03157 -6.27222,-7.88685 q -1.04019,-0.94704 -2.49181,-0.93927 l -18.85546,0.17854 a 0.6365367,0.64429934 87.1 0 0 -0.63653,0.69087 q 0.67535,8.1042 0.3726,16.37918 z"
     id="path72"
     style="stroke-width:0.776264" />
  <path
     fill="#6e059e"
     d="m 409.00246,126.88671 q -5.53477,6.38865 -11.86908,12.14077 -0.74522,-0.55115 -0.57444,-0.72193 6.15578,-5.78316 12.44352,-11.41884 z"
     id="path74"
     style="stroke-width:0.776264" />
</svg>
