<?xml version="1.0" encoding="UTF-8" standalone="no"?>
<svg
   enable-background="new 0 0 559.249 81.18"
   viewBox="0 0 499.99998 200"
   version="1.1"
   id="svg49"
   sodipodi:docname="dice.svg"
   width="500"
   height="200"
   inkscape:version="1.2.2 (b0a8486541, 2022-12-01)"
   xml:space="preserve"
   xmlns:inkscape="http://www.inkscape.org/namespaces/inkscape"
   xmlns:sodipodi="http://sodipodi.sourceforge.net/DTD/sodipodi-0.dtd"
   xmlns="http://www.w3.org/2000/svg"
   xmlns:svg="http://www.w3.org/2000/svg"><defs
     id="defs53"><rect
       x="83.638153"
       y="41.480737"
       width="337.56025"
       height="138.51746"
       id="rect1219" /></defs><sodipodi:namedview
     id="namedview51"
     pagecolor="#505050"
     bordercolor="#ffffff"
     borderopacity="1"
     inkscape:showpageshadow="0"
     inkscape:pageopacity="0"
     inkscape:pagecheckerboard="1"
     inkscape:deskcolor="#505050"
     showgrid="false"
     showguides="true"
     inkscape:zoom="1.2007174"
     inkscape:cx="205.71036"
     inkscape:cy="184.47306"
     inkscape:window-width="1670"
     inkscape:window-height="910"
     inkscape:window-x="0"
     inkscape:window-y="0"
     inkscape:window-maximized="1"
     inkscape:current-layer="svg49"><sodipodi:guide
       position="268.17301,120.04779"
       orientation="0,-1"
       id="guide2256"
       inkscape:locked="false" /><sodipodi:guide
       position="250.26705,75.074678"
       orientation="0,-1"
       id="guide2258"
       inkscape:locked="false" /></sodipodi:namedview><linearGradient
     id="a"
     gradientUnits="userSpaceOnUse"
     x1="102.2983"
     x2="355.62921"
     y1="38.639503"
     y2="38.639503"
     gradientTransform="matrix(1.0993119,0,0,1.0993119,-2.5457669,61.730504)"><stop
       offset="0"
       stop-color="#f50019"
       id="stop2" /><stop
       offset=".2761"
       stop-color="#f66d19"
       id="stop4" /><stop
       offset=".4785"
       stop-color="#fbfa35"
       id="stop6" /><stop
       offset=".681"
       stop-color="#74b719"
       id="stop8" /><stop
       offset=".7914"
       stop-color="#17710a"
       id="stop10" /><stop
       offset=".8834"
       stop-color="#226887"
       id="stop12" /><stop
       offset="1"
       stop-color="#3262d9"
       id="stop14" /></linearGradient><path
     style="fill:#ffffff;stroke:none;stroke-width:0.630838"
     d="m 370.72802,38.811522 v 8.2009 h 75.7006 v 8.83173 h -8.2009 v 8.2009 h 8.2009 v -8.2009 h 8.2009 v 58.667968 c 0,5.73305 -2.91511,19.72946 6.84586,16.83202 3.98626,-1.18282 1.98587,-16.39296 1.98587,-19.98621 V 47.643262 c -7.58141,0 -8.83173,-1.25033 -8.83173,-8.83174 h -83.9015 M 67.92564,47.643262 V 164.97918 h 33.43443 V 148.57739 H 84.95828 V 64.045052 h 16.40179 V 47.643262 H 67.92564 m 67.4997,0 v 16.40179 h 16.4018 v 84.532338 h -16.4018 v 16.40179 h 50.46707 V 148.57739 H 168.85977 V 64.045052 h 17.03264 v -16.40179 h -50.46707 m 66.86886,0 V 164.97918 h 50.46707 V 148.57739 H 219.32684 V 64.045052 h 33.43443 V 47.643262 H 202.2942 m 67.4997,0 V 164.97918 h 50.46706 v -16.40179 h -33.43443 v -34.06527 h 16.4018 V 98.110322 h -16.4018 v -34.06527 h 33.43443 V 47.643262 H 269.7939 m 92.73323,0 v 8.20089 h -8.83174 v 8.2009 h -8.2009 v 8.83173 h -8.2009 v 83.901498 h 8.2009 v 8.2009 h 83.9015 v -8.2009 c 7.45839,0 8.83173,-0.55513 8.83173,-8.20089 -2.14926,0 -5.49523,0.60245 -7.36945,-0.64851 -3.40716,-2.27354 -1.46228,-14.52758 -1.46228,-18.27665 V 72.876782 h -56.77545 c -3.74907,0 -16.00311,1.9452 -18.27665,-1.46221 -1.25095,-1.87441 -0.6485,-5.21994 -0.6485,-7.36952 h 8.83174 v -8.2009 h 8.20089 v -8.20089 h -8.20089 m 33.43443,8.20089 v 8.2009 h 8.20089 v -8.2009 h -8.20089 M 101.36007,147.94655 h 17.03264 V 64.045052 c -3.33329,0 -14.20301,-1.74263 -16.38426,1.01149 -1.13526,1.43332 -0.64825,4.22863 -0.64838,5.92774 v 15.77095 61.191318 M 429.39599,72.245952 h 8.83173 c 0,-1.99074 0.51981,-4.90925 -0.38039,-6.73868 -1.00997,-2.05218 -6.44213,-2.16869 -7.80284,-0.45073 -1.30899,1.6526 -0.6485,5.20542 -0.6485,7.18941 m -8.2009,8.83174 v 75.700588 h -75.7006 V 81.077692 h 75.7006 m 17.03263,0 v 8.20089 h 8.2009 v -8.20089 h -8.2009 m -84.53233,41.635318 h 8.83174 V 98.110322 c 0,-2.09186 0.85226,-6.70739 -1.01124,-8.18336 -2.13097,-1.68774 -7.22877,-1.01098 -7.72714,1.91194 -1.65405,9.708858 -0.0934,21.014738 -0.0934,30.874108 m 25.23353,0 h 8.83174 c 0,-1.99092 0.51981,-4.90918 -0.38039,-6.73861 -1.00998,-2.05212 -6.44213,-2.16882 -7.80284,-0.45105 -1.30899,1.6528 -0.64851,5.20568 -0.64851,7.18966 m 25.23353,25.23354 h 8.83174 v -24.6027 c 0,-2.09186 0.85226,-6.70707 -1.01124,-8.18323 -2.13096,-1.68813 -7.22877,-1.01124 -7.72713,1.91207 -1.65406,9.7086 -0.0934,21.01448 -0.0934,30.87386 m 34.06527,-33.43443 v 8.20089 h 8.2009 v -8.20089 h -8.2009 m 8.2009,17.03263 v 8.2009 h -8.2009 v 8.2009 h 8.2009 v -8.2009 h 8.2009 v -8.2009 z"
     id="path1485" /></svg>
