<?xml version="1.0" encoding="UTF-8" standalone="no"?>
<svg
   version="1.1"
   viewBox="0 0 500 200"
   id="svg306"
   sodipodi:docname="electron.svg"
   width="500"
   height="200"
   inkscape:version="1.2.2 (b0a8486541, 2022-12-01)"
   xmlns:inkscape="http://www.inkscape.org/namespaces/inkscape"
   xmlns:sodipodi="http://sodipodi.sourceforge.net/DTD/sodipodi-0.dtd"
   xmlns="http://www.w3.org/2000/svg"
   xmlns:svg="http://www.w3.org/2000/svg">
  <defs
     id="defs310" />
  <sodipodi:namedview
     id="namedview308"
     pagecolor="#505050"
     bordercolor="#ffffff"
     borderopacity="1"
     inkscape:showpageshadow="0"
     inkscape:pageopacity="0"
     inkscape:pagecheckerboard="1"
     inkscape:deskcolor="#505050"
     showgrid="false"
     inkscape:zoom="1.1191667"
     inkscape:cx="348.47357"
     inkscape:cy="160.38719"
     inkscape:window-width="1670"
     inkscape:window-height="910"
     inkscape:window-x="0"
     inkscape:window-y="0"
     inkscape:window-maximized="1"
     inkscape:current-layer="svg306" />
  <g
     stroke-width="2"
     fill="none"
     stroke-linecap="butt"
     id="g142"
     transform="matrix(0.63067757,0,0,0.63067757,56.405268,7.811402)">
    <path
       stroke="#408b50"
       stroke-opacity="0.878"
       vector-effect="non-scaling-stroke"
       d="m 552.54,81 q -1,3.72 0.71,1.71"
       id="path2" />
    <path
       stroke="#64b178"
       vector-effect="non-scaling-stroke"
       d="m 550.81,99.22 c 0.67,-28.77 -8.7,-71.65 -34.58,-89.37 q -0.42,-0.29 -0.23,0.18 17.52,42.92 11.75,89.18"
       id="path4" />
    <path
       stroke="#408b50"
       stroke-opacity="0.878"
       vector-effect="non-scaling-stroke"
       d="m 450.47,86.59 q 1.79,-2.58 1.24,-5.84"
       id="path6" />
    <path
       stroke="#9d8e4d"
       stroke-opacity="0.961"
       vector-effect="non-scaling-stroke"
       d="m 92.25,152.3 -10.51,0.61"
       id="path8" />
    <path
       stroke="#bba14a"
       stroke-opacity="0.996"
       vector-effect="non-scaling-stroke"
       d="M 43.5,154.54 C 25.49,155.8 10.56,144.36 11.21,125.5"
       id="path10" />
    <path
       stroke="#bfb25b"
       stroke-opacity="0.925"
       vector-effect="non-scaling-stroke"
       d="m 62.15,107.93 q 0.84,-3.15 0.66,-9.87 Q 62.51,87.04 52.77,84.19 46.52,82.36 40.25,83.96"
       id="path12" />
    <path
       stroke="#b3a750"
       stroke-opacity="0.945"
       vector-effect="non-scaling-stroke"
       d="m 40.25,83.96 q -1.52,-0.04 -2.79,0.79"
       id="path14" />
    <path
       stroke="#ccbf5e"
       stroke-opacity="0.992"
       vector-effect="non-scaling-stroke"
       d="M 25,92.46 Q 20.02,89.26 14,89.54"
       id="path16" />
    <path
       stroke="#b3a750"
       stroke-opacity="0.945"
       vector-effect="non-scaling-stroke"
       d="m 153.46,75.75 q 1.04,1.49 0.64,-0.15 -0.09,-0.33 0.01,-0.7 0.34,-1.35 -0.17,-3.31"
       id="path18" />
    <path
       stroke="#c0b356"
       stroke-opacity="0.965"
       vector-effect="non-scaling-stroke"
       d="m 167.54,101.66 -12.01,-0.47 a 1.27,1.12 -7.1 0 1 -1.13,-0.77 Q 146.87,78.44 124.85,84.93"
       id="path20" />
    <path
       stroke="#c1b358"
       stroke-opacity="0.933"
       vector-effect="non-scaling-stroke"
       d="m 148,152.54 c -20.43,4.63 -39.75,0.14 -50.29,-19.29 Q 88.46,116.21 93.96,96"
       id="path22" />
    <path
       stroke="#9d8e4d"
       stroke-opacity="0.961"
       vector-effect="non-scaling-stroke"
       d="m 94.04,95.75 q 1.09,-1.59 1.42,-3.5"
       id="path24" />
    <path
       stroke="#c0b356"
       stroke-opacity="0.965"
       vector-effect="non-scaling-stroke"
       d="m 224.25,154.04 q -7.69,0.31 -12,-0.04 c -20.43,-1.68 -36.48,-16.56 -38.5,-36.75 q -0.74,-7.43 -0.04,-15.75"
       id="path26" />
    <path
       stroke="#b7a666"
       stroke-opacity="0.996"
       vector-effect="non-scaling-stroke"
       d="m 324.21,85.5 q -4.77,-0.31 -9.46,0.5"
       id="path28" />
    <path
       stroke="#b7a666"
       stroke-opacity="0.996"
       vector-effect="non-scaling-stroke"
       d="m 314.75,86 q -3.04,-0.29 -5.96,0.5"
       id="path30" />
    <path
       stroke="#b3a750"
       stroke-opacity="0.945"
       vector-effect="non-scaling-stroke"
       d="m 275.14,125.76 q 0.98,-19.34 0.67,-39.07 a 0.52,0.51 -1.1 0 0 -0.53,-0.5 l -14.49,0.06 a 1.42,1.33 89.6 0 1 -1.33,-1.4 l -0.19,-13.43"
       id="path32" />
    <path
       stroke="#b3a750"
       stroke-opacity="0.945"
       vector-effect="non-scaling-stroke"
       d="m 391,100.79 c 0.88,-3.34 0.46,-7.77 -0.19,-10.78 -1.76,-8.18 -11.1,-7.48 -16.81,-4.8"
       id="path34" />
    <path
       stroke="#9cad6a"
       stroke-opacity="0.878"
       vector-effect="non-scaling-stroke"
       d="m 327.54,82.25 q 0.72,-0.85 0.42,-2"
       id="path36" />
    <path
       stroke="#b7a961"
       stroke-opacity="0.816"
       vector-effect="non-scaling-stroke"
       d="m 327.96,80.25 v -3"
       id="path38" />
    <path
       stroke="#b7a961"
       stroke-opacity="0.816"
       vector-effect="non-scaling-stroke"
       d="m 327.96,77.25 0.19,-5.91"
       id="path40" />
    <path
       stroke="#64b178"
       vector-effect="non-scaling-stroke"
       d="m 549.75,104.29 c -3.64,19.32 -16.28,33.38 -34.44,40.55 q -1.24,0.49 -0.68,-0.73 8.93,-19.35 11.96,-39.87"
       id="path42" />
    <path
       stroke="#b3a750"
       stroke-opacity="0.945"
       vector-effect="non-scaling-stroke"
       d="m 138.72,277.5 -23.97,0.04"
       id="path44" />
    <path
       stroke="#b7a666"
       stroke-opacity="0.996"
       vector-effect="non-scaling-stroke"
       d="m 114.75,277.54 q -8.78,-0.53 -17.52,0.15"
       id="path46" />
    <path
       stroke="#c0b356"
       stroke-opacity="0.965"
       vector-effect="non-scaling-stroke"
       d="m 109.95,261.69 q 1.02,-9.63 0.51,-19.19"
       id="path48" />
    <path
       stroke="#ccbf5e"
       stroke-opacity="0.992"
       vector-effect="non-scaling-stroke"
       d="m 110.46,242.5 c 0.43,-16.63 -0.75,-30.78 0.06,-44.4 0.22,-3.73 -0.21,-6.89 -0.67,-10.36"
       id="path50" />
    <path
       stroke="#bfb25b"
       stroke-opacity="0.925"
       vector-effect="non-scaling-stroke"
       d="m 415.25,210.79 q -7.65,-1.05 -15.03,1.07"
       id="path52" />
    <path
       stroke="#9d8e4d"
       stroke-opacity="0.961"
       vector-effect="non-scaling-stroke"
       d="m 401.29,277.55 -21.54,-0.01"
       id="path54" />
    <path
       stroke="#b7a666"
       stroke-opacity="0.996"
       vector-effect="non-scaling-stroke"
       d="m 379.75,277.54 q -17.16,-0.43 -28.5,-0.29 -1.65,0.02 -2.75,1.46"
       id="path56" />
    <path
       stroke="#c2ae4f"
       stroke-opacity="0.988"
       vector-effect="non-scaling-stroke"
       d="m 346.5,279.04 q -10.13,0.18 -12.06,-0.23 c -12.46,-2.6 -12.94,-10.48 -13.9,-21.31"
       id="path58" />
    <path
       stroke="#d3c777"
       vector-effect="non-scaling-stroke"
       d="m 320.54,257.5 q 0.83,-8.94 -0.75,-17.75"
       id="path60" />
    <path
       stroke="#cec07c"
       stroke-opacity="0.588"
       vector-effect="non-scaling-stroke"
       d="m 319.79,239.75 -0.2,-27.83"
       id="path62" />
    <path
       stroke="#b3a750"
       stroke-opacity="0.945"
       vector-effect="non-scaling-stroke"
       d="m 309.5,209.79 0.41,-13.27"
       id="path64" />
    <path
       stroke="#bfb25b"
       stroke-opacity="0.925"
       vector-effect="non-scaling-stroke"
       d="m 319.97,195.67 q 1.25,-5.49 -0.01,-10.67"
       id="path66" />
    <path
       stroke="#a0944e"
       stroke-opacity="0.588"
       vector-effect="non-scaling-stroke"
       d="m 319.79,239.75 -0.08,8"
       id="path68" />
    <path
       stroke="#a79434"
       stroke-opacity="0.988"
       vector-effect="non-scaling-stroke"
       d="m 320.54,257.5 q 0.22,-1.11 -0.75,-1.25"
       id="path70" />
    <path
       stroke="#b7a666"
       stroke-opacity="0.996"
       vector-effect="non-scaling-stroke"
       d="m 95.11,240.59 q -2.92,-0.98 -5.14,-0.27 -0.32,0.11 -0.97,0.11 l -6,0.03"
       id="path72" />
    <path
       stroke="#c0b356"
       stroke-opacity="0.965"
       vector-effect="non-scaling-stroke"
       d="M 83,240.46 Q 76.76,239.97 70.5,240 52.62,240.08 34.74,240.49"
       id="path74" />
    <path
       stroke="#9d8e4d"
       stroke-opacity="0.961"
       vector-effect="non-scaling-stroke"
       d="m 34.74,240.49 -6.71,0.3"
       id="path76" />
    <path
       stroke="#c2ae4f"
       stroke-opacity="0.988"
       vector-effect="non-scaling-stroke"
       d="M 62.5,279.37 Q 57,279.1 51.51,278.85 C 30.37,277.86 12.25,263.68 10.2,241.84 9.78,237.37 10.38,231.58 10.46,226.5"
       id="path78" />
    <path
       stroke="#b7a666"
       stroke-opacity="0.996"
       vector-effect="non-scaling-stroke"
       d="m 224.75,240.54 h -10.5"
       id="path80" />
    <path
       stroke="#c0b356"
       stroke-opacity="0.965"
       vector-effect="non-scaling-stroke"
       d="m 214.25,240.54 q -27.52,-1.01 -55.08,0.34"
       id="path82" />
    <path
       stroke="#bfb25b"
       stroke-opacity="0.925"
       vector-effect="non-scaling-stroke"
       d="m 194.49,278.92 c -25.02,3.2 -51.07,-10.65 -53.03,-37.68 q -0.41,-5.62 -0.75,-11.24"
       id="path84" />
    <path
       stroke="#b3a750"
       stroke-opacity="0.945"
       vector-effect="non-scaling-stroke"
       d="m 291.25,200.79 q 1.34,1.47 0.89,-0.31 -0.12,-0.45 -0.02,-0.96 0.22,-1.2 -0.15,-2.92"
       id="path86" />
    <path
       stroke="#9d8e4d"
       stroke-opacity="0.961"
       vector-effect="non-scaling-stroke"
       d="m 301.25,227.04 q -1.06,-0.57 -2.25,-0.33"
       id="path88" />
    <path
       stroke="#c0b356"
       stroke-opacity="0.965"
       vector-effect="non-scaling-stroke"
       d="m 299,226.71 -6.06,-0.38 a 0.64,0.63 -3.4 0 1 -0.59,-0.51 C 289.95,212.39 275.76,204 263.06,209.97"
       id="path90" />
    <path
       stroke="#b7a666"
       stroke-opacity="0.996"
       vector-effect="non-scaling-stroke"
       d="M 277.5,279.54 270,279.29"
       id="path92" />
    <path
       stroke="#c1b358"
       stroke-opacity="0.933"
       vector-effect="non-scaling-stroke"
       d="m 270,279.29 c -32.43,-0.59 -46.83,-34.1 -36.54,-62.04"
       id="path94" />
    <path
       stroke="#c0b356"
       stroke-opacity="0.965"
       vector-effect="non-scaling-stroke"
       d="m 455.75,279.71 c -4.41,-0.56 -9.28,-0.44 -13.26,-1.43 Q 413.28,271.01 409.29,240"
       id="path96" />
    <path
       stroke="#b7a961"
       stroke-opacity="0.816"
       vector-effect="non-scaling-stroke"
       d="m 409.29,240 -0.08,-1.5"
       id="path98" />
    <path
       stroke="#bfb25b"
       stroke-opacity="0.925"
       vector-effect="non-scaling-stroke"
       d="M 409.21,238.5 410.04,227"
       id="path100" />
    <path
       stroke="#9cad6a"
       stroke-opacity="0.878"
       vector-effect="non-scaling-stroke"
       d="m 410.04,227 1.42,-6.5"
       id="path102" />
    <path
       stroke="#87794d"
       stroke-opacity="0.953"
       vector-effect="non-scaling-stroke"
       d="m 577.01,277.83 q -7.89,-0.5 -15.76,0.13"
       id="path104" />
    <path
       stroke="#bfb25b"
       stroke-opacity="0.925"
       vector-effect="non-scaling-stroke"
       d="m 560.04,233.25 c 1.33,-7.97 2.97,-28.47 -11.79,-24.54"
       id="path106" />
    <path
       stroke="#b3a750"
       stroke-opacity="0.945"
       vector-effect="non-scaling-stroke"
       d="m 548.25,208.71 -4.75,1.08"
       id="path108" />
    <path
       stroke="#87794d"
       stroke-opacity="0.953"
       vector-effect="non-scaling-stroke"
       d="m 541.24,277.39 -13.49,0.15"
       id="path110" />
    <path
       stroke="#beaf73"
       stroke-opacity="0.996"
       vector-effect="non-scaling-stroke"
       d="m 527.75,277.54 q -14.65,-0.72 -29.26,0.22"
       id="path112" />
    <path
       stroke="#bfb25b"
       stroke-opacity="0.925"
       vector-effect="non-scaling-stroke"
       d="m 510.79,254.25 q 1.33,-5.88 0,-11.75"
       id="path114" />
    <path
       stroke="#bfb25b"
       stroke-opacity="0.925"
       vector-effect="non-scaling-stroke"
       d="m 510.79,236 0.25,-6.75"
       id="path116" />
    <path
       stroke="#bfb25b"
       stroke-opacity="0.925"
       vector-effect="non-scaling-stroke"
       d="m 511.04,229.25 c 0.49,-3.69 -0.7,-7.43 0.47,-9.82 q 0.23,-0.46 0.22,-0.93 l -0.18,-6.83 a 0.43,0.42 89.3 0 0 -0.42,-0.42 q -5.21,-0.06 -10.54,-0.01 c -2.35,0.03 -3.71,0.62 -3.34,-2.74 q 0.21,-1.93 -0.07,-12.11"
       id="path118" />
    <path
       stroke="#55442c"
       stroke-opacity="0.949"
       vector-effect="non-scaling-stroke"
       d="m 527.75,277.54 q -0.15,0.3 -0.5,0.25"
       id="path120" />
    <path
       stroke="#c0b356"
       stroke-opacity="0.965"
       vector-effect="non-scaling-stroke"
       d="m 62.15,132.5 q 1.5,-3.94 0.63,-9.68 a 2.18,2.15 -75.8 0 0 -0.82,-1.4 Q 50.14,112.2 36.49,115.4"
       id="path122" />
    <path
       stroke="#b3a750"
       stroke-opacity="0.945"
       vector-effect="non-scaling-stroke"
       d="m 210.46,85 q -1.93,0.07 -3.59,1.01"
       id="path124" />
    <path
       stroke="#c2ae4f"
       stroke-opacity="0.988"
       vector-effect="non-scaling-stroke"
       d="M 240.69,113.01 Q 242.37,91.5 222.44,85.06 216.94,83.29 210.46,85"
       id="path126" />
    <path
       stroke="#b3a750"
       stroke-opacity="0.945"
       vector-effect="non-scaling-stroke"
       d="m 367.32,261.75 0.37,-49.95 a 0.52,0.48 0.6 0 0 -0.51,-0.48 l -13.93,-0.03"
       id="path128" />
    <path
       stroke="#d3c777"
       vector-effect="non-scaling-stroke"
       d="m 353.25,211.29 q -8.18,-1.01 -16.21,0.71"
       id="path130" />
    <path
       stroke="#968b33"
       stroke-opacity="0.945"
       vector-effect="non-scaling-stroke"
       d="m 353.25,211.29 q -1.05,0 -1.54,0.71"
       id="path132" />
    <path
       stroke="#b3a750"
       stroke-opacity="0.945"
       vector-effect="non-scaling-stroke"
       d="m 47.5,209.04 q -2.17,-0.37 -3.5,1.17"
       id="path134" />
    <path
       stroke="#c1b358"
       stroke-opacity="0.933"
       vector-effect="non-scaling-stroke"
       d="m 77.75,227.71 q 1.54,0.25 0.9,-1.39 C 73.78,213.78 61.15,205.73 47.5,209.04"
       id="path136" />
    <path
       stroke="#c1b358"
       stroke-opacity="0.933"
       vector-effect="non-scaling-stroke"
       d="m 209,227.71 q 1.31,0.14 0.75,-1.21 -9.29,-22.29 -33.54,-16.92"
       id="path138" />
    <path
       stroke="#c1b358"
       stroke-opacity="0.933"
       vector-effect="non-scaling-stroke"
       d="m 476.71,238.25 q 1.82,-20.92 -16.9,-27.81 -7.95,-2.93 -16.81,0.77"
       id="path140" />
  </g>
  <path
     fill="#4da664"
     d="m 404.87986,58.896285 q -0.63069,2.346121 0.44778,1.078459 0.59283,4.887751 0.18289,9.80073 a 0.35948622,0.47931496 0.3 0 1 -0.32164,0.428861 l -1.4001,0.182896 c 0.42255,-18.144594 -5.4869,-45.188048 -21.80883,-56.363655 q -0.26489,-0.182896 -0.14506,0.113522 11.04947,27.068682 7.41046,56.243826 l -47.78013,0.02523 a 1.0343113,0.95232316 0.2 0 1 -1.03432,-0.958631 l 0.0757,-7.025748 q 1.12892,-1.627148 0.78204,-3.683157 C 342.72659,43.274404 352.67237,8.3916274 373.30184,8.8835558 393.925,9.3691776 403.28425,43.255483 404.87987,58.896287 Z"
     id="path144"
     style="stroke-width:0.630678" />
  <path
     fill="#7abc8b"
     d="m 403.78879,70.387231 -14.54343,-0.0063 q 3.63901,-29.175144 -7.41046,-56.243826 -0.11983,-0.296418 0.14506,-0.113522 c 16.32193,11.175607 22.23138,38.219061 21.80883,56.363655 z"
     id="path146"
     style="stroke-width:0.630678" />
  <path
     fill="#eee192"
     d="m 114.58527,103.86359 -6.62842,0.38472 -10.759356,-0.0441 a 0.39732687,0.37209977 84.1 0 1 -0.3721,-0.32164 q -0.422554,-2.14431 -0.05676,-4.320154 0.233351,-1.368567 -0.775733,-0.409934 -4.969739,4.711158 -12.153157,6.123878 C 72.48124,106.07096 63.065223,98.856016 63.475163,86.961438 q 0.517157,-4.603947 3.298444,-7.763642 C 74.41742,70.500753 85.971433,70.380924 95.60188,75.880433 q 0.529769,-1.986635 0.416246,-6.224789 -0.189203,-6.950066 -6.332003,-8.747497 -3.941735,-1.15414 -7.896082,-0.145056 -0.958631,-0.02523 -1.759591,0.498236 -3.191228,1.179366 -5.688711,4.534571 -0.700053,0.93971 -2.169531,0.327952 -3.140775,-2.018168 -6.937454,-1.841578 -1.639762,-0.01892 -0.908176,-1.248741 6.313083,-10.557544 19.040156,-11.547707 c 8.034832,-0.624371 18.239196,0.750506 21.569176,8.968235 q 1.1163,2.749754 1.22351,10.273738 0.15767,11.421571 0.0631,23.133254 a 0.35317944,0.35317944 0 0 0 0.35318,0.353179 h 7.73842 a 0.54238272,0.54238272 0 0 1 0.54238,0.517155 q 0.2838,4.982353 -0.27119,9.132205 z M 79.418693,80.591594 c -10.134989,4.080484 -6.37615,18.062609 4.427356,16.643578 q 6.811319,-0.895559 11.755831,-5.858991 0.946015,-2.48487 0.397326,-6.104959 A 1.3559568,1.3748771 14.2 0 0 95.482051,84.388273 Q 88.027442,78.573426 79.418693,80.591594 Z"
     id="path148"
     style="stroke-width:0.630678" />
  <path
     fill="#eee192"
     d="m 153.18905,55.585229 q 0.65591,0.939709 0.40363,-0.0946 -0.0568,-0.208123 0.006,-0.441474 0.21444,-0.851414 -0.10721,-2.087542 4.43366,-0.712666 8.91778,-0.283806 a 0.35317944,0.37209977 1.6 0 1 0.31534,0.35318 q 0.19551,8.45108 0.10721,16.902159 -0.0126,1.513627 -0.76311,1.992941 l -7.57445,-0.296418 a 0.70635889,0.80096052 82.9 0 1 -0.71266,-0.485622 q -4.7487,-13.862296 -18.63622,-9.769199 c -16.13904,7.044669 -11.77475,36.339641 7.50507,34.56744 7.02574,-0.643291 9.49169,-4.275996 13.16224,-9.567381 a 0.53607594,0.54238272 29.6 0 1 0.66852,-0.189203 l 7.54921,3.563328 a 0.39102009,0.39732687 24.7 0 1 0.1892,0.517156 q -4.36429,10.071922 -14.47405,13.748772 c -12.88474,2.92004 -25.06944,0.0883 -31.71678,-12.165772 q -5.83376,-10.746745 -2.36504,-23.492739 l 0.0505,-0.157669 q 0.68744,-1.002777 0.89557,-2.207372 c 6.92483,-13.912748 23.29722,-19.040155 36.57929,-10.406179 z"
     id="path150"
     style="stroke-width:0.630678" />
  <path
     fill="#eee192"
     d="m 197.83471,104.96097 q -4.84991,0.19552 -7.56812,-0.0252 C 177.38184,103.87621 167.25946,94.491728 165.9855,81.758348 q -0.46671,-4.685935 -0.0252,-9.933173 c 2.92003,-12.411734 13.84968,-20.478101 26.51368,-20.497021 15.80478,-0.02523 27.48493,11.831512 27.07499,27.907483 -0.32164,12.720767 -9.24574,23.316153 -21.71423,25.725333 z m -8.69704,-43.541974 q -1.21721,0.04415 -2.26413,0.636984 -11.42158,5.518428 -10.15391,18.441012 c 2.00555,20.301508 30.83382,19.727598 31.48342,-1.412717 q 1.05954,-13.565875 -11.50986,-17.627439 -3.46873,-1.116299 -7.55552,-0.03784 z"
     id="path152"
     style="stroke-width:0.630678" />
  <path
     fill="#eee192"
     d="m 260.87725,61.734334 q -3.00834,-0.195509 -5.96621,0.31534 -1.91726,-0.182897 -3.75884,0.315338 c -7.87086,1.463172 -9.63675,6.55274 -10.2359,14.177632 q -0.6496,8.261876 -0.32165,17.066135 a 0.6243708,0.6243708 0 0 0 0.62437,0.605451 h 10.03409 a 0.36579299,0.34687266 0 0 1 0.36578,0.346872 l -0.0568,9.176358 a 0.42255398,0.40994042 0 0 1 -0.42255,0.40994 l -31.05456,0.15136 a 0.49192851,0.49192851 0 0 1 -0.49194,-0.49192 v -8.022227 q 0,-1.519929 1.51993,-1.538849 l 8.38802,-0.06937 a 0.54238272,0.49192851 89.3 0 0 0.48562,-0.548689 l -0.0568,-6.502286 q 0.61807,-12.197305 0.42256,-24.640573 a 0.32164556,0.32795234 88.9 0 0 -0.33426,-0.315339 l -9.13852,0.03784 a 0.89556219,0.83880118 89.6 0 1 -0.8388,-0.882949 l -0.11983,-8.469999 q 9.08806,-0.542383 18.15721,-0.15767 a 0.34056589,0.33425911 0.6 0 1 0.32795,0.327952 l 0.22074,9.775503 q 0.006,0.302725 0.13244,0.02523 c 4.35798,-9.952092 12.26038,-11.661229 22.16201,-11.497253 a 0.46039463,0.46039463 0 0 1 0.45409,0.460396 c 0,2.34612 0.52976,8.192501 -0.49824,9.945784 z"
     id="path154"
     style="stroke-width:0.630678" />
  <path
     fill="#eee192"
     d="m 303.0002,71.377395 c 0.55499,-2.106464 0.29011,-4.900365 -0.11983,-6.798705 -1.10999,-5.158942 -7.00052,-4.717468 -10.60169,-3.027252 q -4.82468,1.709136 -9.13852,5.083261 a 1.2487416,1.2613551 70.7 0 0 -0.47931,0.983857 v 26.267721 a 0.32795234,0.32795234 0 0 0 0.32795,0.327953 h 8.08529 a 0.4162472,0.4162472 0 0 1 0.41624,0.416247 v 8.419553 a 0.95232316,0.95232316 0 0 1 -0.8451,0.94601 c -8.67813,0.94602 -18.13829,0.30903 -27.05607,0.30903 a 0.61806402,0.58653014 0.6 0 1 -0.61806,-0.59914 l 0.13874,-8.697047 a 0.63067757,0.6495979 0 0 1 0.61807,-0.636984 l 7.12035,-0.107215 a 1.0469248,1.1099925 89.3 0 0 1.09107,-1.053232 l -0.11352,-30.095934 a 0.32795234,0.32164556 1.2 0 0 -0.31534,-0.321645 l -8.04745,-0.290112 a 0.35317944,0.34687266 89.4 0 1 -0.33426,-0.334259 l -0.15136,-2.48487 q 0.45409,-0.536075 0.26488,-1.261355 v -1.892033 l 0.11983,-3.727304 18.75636,-0.19551 a 0.63698435,0.58022337 89.4 0 1 0.58652,0.630678 l 0.0757,4.402129 q 0,0.33426 0.29641,0.126135 c 5.13372,-3.582248 11.71168,-6.798703 18.12567,-6.39507 10.72783,0.674825 12.41174,8.64659 12.51896,17.614825 q 0.13875,12.197304 -0.0442,24.86131 a 0.35948622,0.35948622 0 0 0 0.35949,0.365793 h 7.78256 a 0.4162472,0.4162472 0 0 1 0.41625,0.416247 v 8.867333 a 0.6495979,0.6495979 0 0 1 -0.62437,0.64959 q -9.08807,0.35949 -18.17613,0.0505 a 0.33425911,0.33425911 0 0 1 -0.32165,-0.33426 z"
     id="path156"
     style="stroke-width:0.630678" />
  <path
     fill="#716505"
     fill-opacity="0.89"
     d="m 219.92105,52.854394 0.11983,8.47 a 0.89556219,0.83880118 89.6 0 0 0.83879,0.882948 l 9.13852,-0.03784 a 0.32164556,0.32795234 88.9 0 1 0.33426,0.31534 q 0.19551,12.443268 -0.42256,24.640573 l -0.35948,-23.852227 a 0.34056589,0.34056589 0 0 0 -0.32165,-0.334259 q -6.00404,-0.315339 -7.4483,-0.100908 c -3.2606,0.479315 -2.2389,-2.125383 -2.37135,-3.746225 q -0.24596,-3.002025 0.49194,-6.237402 z"
     id="path158"
     style="stroke-width:0.630678" />
  <path
     fill="#615113"
     fill-opacity="0.631"
     d="m 263.36211,52.80394 -0.11983,3.727304 q -0.13874,0.454088 -0.473,0.788348 -0.30904,-2.056009 0.59283,-4.515652 z"
     id="path160"
     style="stroke-width:0.630678" />
  <path
     fill="#716505"
     fill-opacity="0.89"
     d="m 153.49178,52.96161 q 0.32164,1.236128 0.10721,2.087542 -0.0631,0.233351 -0.006,0.441474 0.25228,1.034312 -0.40363,0.0946 -0.2775,-1.128913 0.30273,-2.623619 z"
     id="path162"
     style="stroke-width:0.630678" />
  <path
     fill="#615113"
     fill-opacity="0.631"
     d="m 263.24228,56.531244 v 1.892033 q -0.23966,-0.0063 -0.42255,0.15767 0.18289,-0.636985 -0.0505,-1.261355 0.33426,-0.33426 0.47301,-0.788348 z"
     id="path164"
     style="stroke-width:0.630678" />
  <path
     fill="#2f6835"
     fill-opacity="0.753"
     d="m 263.24228,58.423277 q 0.18921,0.72528 -0.26488,1.261355 l -0.15767,-1.103685 q 0.18289,-0.163976 0.42255,-0.15767 z"
     id="path166"
     style="stroke-width:0.630678" />
  <path
     fill="#2f6835"
     fill-opacity="0.753"
     d="m 341.28863,58.738616 q 0.34688,2.056009 -0.78204,3.683157 -0.46039,-2.144303 0.78204,-3.683157 z"
     id="path168"
     style="stroke-width:0.630678" />
  <path
     fill="#2f6835"
     fill-opacity="0.753"
     d="m 404.87986,58.896285 q 0.48561,0.435168 0.44778,1.078459 -1.07847,1.267662 -0.44778,-1.078459 z"
     id="path170"
     style="stroke-width:0.630678" />
  <path
     fill="#877a19"
     fill-opacity="0.847"
     d="m 95.60188,75.880433 q 0.264884,-6.231095 -0.882949,-9.731356 c -1.34965,-4.099403 -7.788869,-5.549962 -11.667535,-5.177862 l -1.261355,-0.208124 q 3.954347,-1.009084 7.896082,0.145056 6.1428,1.797431 6.332003,8.747497 0.113523,4.238154 -0.416246,6.224789 z"
     id="path172"
     style="stroke-width:0.630678" />
  <path
     fill="#8f8116"
     fill-opacity="0.925"
     d="m 162.06899,71.926084 q -3.84714,0.72528 -8.42586,0.170283 a 0.71266567,0.71897244 89 0 1 -0.61175,-0.58653 c -1.45056,-8.62767 -9.85749,-11.856739 -17.88602,-10.134989 q 13.88752,-4.093097 18.63652,9.769196 a 0.70635889,0.80096052 82.9 0 0 0.71267,0.485622 z"
     id="path174"
     style="stroke-width:0.630678" />
  <path
     fill="#716505"
     fill-opacity="0.89"
     d="m 303.0002,71.377395 c -0.34688,-8.205116 -1.51993,-12.033328 -10.72152,-9.825957 3.60117,-1.690216 9.4917,-2.13169 10.60169,3.027252 0.40994,1.89834 0.67482,4.692241 0.11983,6.798705 z"
     id="path176"
     style="stroke-width:0.630678" />
  <path
     fill="#716505"
     fill-opacity="0.89"
     d="m 81.790041,60.763091 1.261355,0.208124 -3.020946,0.290112 q 0.80096,-0.523463 1.759591,-0.498236 z"
     id="path178"
     style="stroke-width:0.630678" />
  <path
     fill="#957a0b"
     fill-opacity="0.976"
     d="m 208.20305,79.084275 c -0.16397,-10.56385 -7.46722,-18.239196 -18.09414,-17.482383 l -0.97124,-0.182896 q 4.08679,-1.078459 7.55552,0.03784 12.5694,4.061564 11.50986,17.627439 z"
     id="path180"
     style="stroke-width:0.630678" />
  <path
     fill="#716505"
     fill-opacity="0.89"
     d="m 189.13767,61.418996 0.97124,0.182896 -3.23537,0.454088 q 1.04692,-0.592837 2.26413,-0.636984 z"
     id="path182"
     style="stroke-width:0.630678" />
  <path
     fill="#7f6a3a"
     fill-opacity="0.988"
     d="m 260.87725,61.734334 q -2.95158,0.542383 -5.96621,0.31534 2.95787,-0.510849 5.96621,-0.31534 z"
     id="path184"
     style="stroke-width:0.630678" />
  <path
     fill="#7f6a3a"
     fill-opacity="0.988"
     d="m 254.91104,62.049674 q -1.83528,0.542382 -3.75884,0.315338 1.84158,-0.498235 3.75884,-0.315338 z"
     id="path186"
     style="stroke-width:0.630678" />
  <path
     fill="#aa9c29"
     fill-opacity="0.984"
     d="m 65.234754,64.282272 q 3.796679,-0.17659 6.937454,1.841578 z"
     id="path188"
     style="stroke-width:0.630678" />
  <path
     fill="#443402"
     fill-opacity="0.918"
     d="m 116.60975,65.991408 q -0.20812,1.204595 -0.89556,2.207372 -0.0378,-1.299197 0.89556,-2.207372 z"
     id="path190"
     style="stroke-width:0.630678" />
  <path
     fill="#8e7e16"
     fill-opacity="0.867"
     d="m 115.66373,68.356449 q -3.46872,12.745994 2.36504,23.492739 c 6.64734,12.254062 18.83204,15.085812 31.71678,12.165772 q -6.12388,2.24521 -12.61355,1.52624 -1.24874,-0.6496 -2.68038,-0.42255 c -16.03183,-2.5101 -23.09541,-19.557317 -19.99879,-34.043981 q 0.32165,-1.494706 1.2109,-2.71822 z"
     id="path192"
     style="stroke-width:0.630678" />
  <path
     fill="#8f8116"
     fill-opacity="0.925"
     d="m 165.96027,71.825175 q -0.44148,5.247238 0.0252,9.933173 c 1.27397,12.73338 11.39634,22.117862 24.28109,23.177402 q 2.71821,0.22074 7.56813,0.0252 -3.48134,0.97124 -7.09512,0.72528 C 172.63912,104.46271 161.81038,89.181396 165.96024,71.825149 Z"
     id="path194"
     style="stroke-width:0.630678" />
  <path
     fill="#7abc8b"
     d="m 403.12027,73.584766 c -2.29567,12.184691 -10.26744,21.052018 -21.72054,25.573972 q -0.78204,0.309033 -0.42886,-0.460389 5.63195,-12.203613 7.5429,-25.145117 z"
     id="path196"
     style="stroke-width:0.630678" />
  <path
     fill="#4da664"
     d="m 388.51377,73.553232 q -1.91095,12.941504 -7.5429,25.145117 -0.35318,0.769422 0.42886,0.460389 c 11.4531,-4.521954 19.42487,-13.389281 21.72054,-25.573972 1.72805,-0.491928 1.61453,0.182897 1.36856,1.318116 -3.11555,14.486665 -14.6128,24.754092 -29.14361,27.308338 a 0.54238272,0.54868949 84.8 0 0 -0.44777,0.53607 v 2.5038 a 0.68113178,0.674825 4.7 0 0 0.5676,0.66852 q 13.32622,2.11908 26.10375,6.96899 a 0.6495979,0.56760982 16.7 0 1 0.41625,0.66851 l -0.96494,4.80576 a 0.30903201,0.27119136 16.5 0 1 -0.40364,0.1829 q -28.77151,-10.33681 -58.91159,-15.50836 c -0.27119,-0.0442 -0.49823,-0.1829 -0.23335,-0.44147 a 0.63067757,0.39102009 15.7 0 1 0.44148,-0.12614 q 14.70109,0.91449 29.3202,2.70561 a 0.37209977,0.27749813 4.4 0 0 0.41624,-0.26489 l -0.0315,-2.18214 a 0.50454206,0.42255398 5.2 0 0 -0.42255,-0.42256 C 356.06541,99.675901 344.39157,89.301252 341.48414,73.982093 a 0.35317944,0.35317944 0 0 1 0.34687,-0.422554 z"
     id="path198"
     style="stroke-width:0.630678" />
  <path
     fill="#8f8116"
     fill-opacity="0.925"
     d="M 95.60188,91.376181 95.51989,85.93974 a 0.90186892,1.0153909 15.7 0 0 -0.378409,-0.775734 q -7.189724,-5.3986 -15.722792,-4.572412 8.60875,-2.018168 16.063358,3.796679 a 1.3559568,1.3748771 14.2 0 1 0.517155,0.882949 q 0.54869,3.620089 -0.397326,6.104959 z"
     id="path200"
     style="stroke-width:0.630678" />
  <path
     fill="#886102"
     fill-opacity="0.988"
     d="M 63.475163,86.961438 C 63.065223,98.856016 72.48124,106.07096 83.839742,105.27632 72.550614,107.31971 61.56421,99.076755 63.475163,86.961438 Z"
     id="path202"
     style="stroke-width:0.630678" />
  <path
     fill="#443402"
     fill-opacity="0.918"
     d="m 114.58527,103.86359 c -1.42533,1.05955 -5.06434,0.66221 -6.62842,0.38472 z"
     id="path204"
     style="stroke-width:0.630678" />
  <path
     fill="#615113"
     fill-opacity="0.631"
     d="m 134.45162,105.11865 q 1.43164,-0.22705 2.68038,0.42255 -1.38749,0.0631 -2.68038,-0.42255 z"
     id="path206"
     style="stroke-width:0.630678" />
  <path
     fill="#eee192"
     d="m 143.89287,182.82443 -15.11735,0.0252 q -5.53735,-0.33426 -11.04947,0.0946 c -1.68391,0.74421 -1.07215,-0.48562 -1.13522,-1.19829 q -0.33426,-3.84082 0.0568,-7.47352 0.13244,-1.20459 1.43164,-1.23613 l 7.66904,-0.1829 q 0.64329,-6.07343 0.32164,-12.1027 c 0.27119,-10.48817 -0.47301,-19.41226 0.0378,-28.00208 0.13875,-2.35243 -0.13244,-4.34537 -0.42255,-6.53382 l -0.0631,-6.47707 a 0.34056589,0.33425911 89.5 0 0 -0.34057,-0.34056 l -8.18619,0.0378 a 0.59283692,0.57391659 0.3 0 1 -0.59915,-0.58647 l 0.11352,-8.17989 q 0.0189,-1.31812 1.40641,-1.31812 h 17.91125 a 0.4162472,0.42255398 0 0 1 0.41624,0.42256 l 0.0378,62.9227 a 0.32164556,0.31533879 0.6 0 0 0.31534,0.31534 l 6.94377,0.14505 a 0.34687266,0.34056589 88.2 0 1 0.33426,0.32165 q 0.30272,4.53457 -0.082,9.34664 z"
     id="path208"
     style="stroke-width:0.630678" />
  <path
     fill="#eee192"
     d="m 318.29413,140.75193 q -4.82468,-0.66221 -9.47908,0.67482 c -6.6978,1.1163 -8.89886,5.42383 -9.74397,11.88197 -0.8325,6.3383 -0.48562,12.89105 -0.48562,19.38703 a 0.35317944,0.35317944 0 0 0 0.35318,0.35317 h 10.33049 a 0.47300819,0.46039463 0.7 0 1 0.47301,0.47302 l -0.25227,9.33403 -13.5848,-0.006 q -10.82242,-0.27119 -17.9743,-0.18289 -1.04062,0.0126 -1.73437,0.92079 l -1.26135,0.20812 q -6.38877,0.11352 -7.60598,-0.14506 c -7.85824,-1.63976 -8.16096,-6.6095 -8.76641,-13.43974 q 0.52346,-5.63826 -0.47301,-11.19452 l -0.12614,-17.55176 c -2.02447,0.0568 -3.8156,0 -5.53104,0.10721 q -1.37488,0.0883 -0.8325,-1.45056 l 0.25858,-8.36908 6.34462,-0.53608 q 0.78835,-3.46242 -0.006,-6.72933 c 0.27119,-1.45056 8.08528,-8.07899 9.61783,-9.44124 q 0.97125,-0.85773 0.97125,0.44147 l 0.0378,15.57773 a 0.31533879,0.32164556 0 0 0 0.31534,0.32165 l 26.91732,0.0378 a 0.49192851,0.50454206 0 0 1 0.49192,0.50455 l 0.0946,9.69982 q 0,0.34057 0.13875,0.0252 c 4.25707,-9.75659 12.34867,-11.83151 22.30707,-11.49095 a 0.32164556,0.32164556 0 0 1 0.30903,0.32165 q 0,4.40843 0.0505,8.82318 0.0126,1.22351 -1.15415,1.44425 z m -49.32529,0.76312 q -0.43517,15.21194 0.0505,30.43019 c 0.15136,4.64809 6.87438,2.86958 9.27727,1.28659 a 1.1352196,0.99016375 24.1 0 1 0.58022,-0.1766 l 9.18897,-0.16397 0.23335,-31.50235 a 0.32795234,0.30272524 0.6 0 0 -0.32165,-0.30272 l -8.78533,-0.0189 q -5.15895,-0.63698 -10.22329,0.44779 z"
     id="path210"
     style="stroke-width:0.630678" />
  <path
     fill="#877a19"
     fill-opacity="0.847"
     d="m 258.19687,124.48675 q 0.79465,3.26692 0.006,6.72933 -0.61806,-3.51287 -0.006,-6.72933 z"
     id="path212"
     style="stroke-width:0.630678" />
  <path
     fill="#aa9c29"
     fill-opacity="0.984"
     d="m 125.6852,126.21481 c 0.29011,2.18846 0.5613,4.1814 0.42255,6.53382 -0.51085,8.58983 0.23335,17.51391 -0.0378,28.00208 l -0.42255,-3.31106 z"
     id="path214"
     style="stroke-width:0.630678" />
  <path
     fill="#eee192"
     d="m 116.38901,159.54612 q -1.84158,-0.61806 -3.24168,-0.17028 -0.20182,0.0694 -0.61176,0.0694 l -3.78406,0.0189 q -3.93543,-0.30903 -7.88347,-0.29011 -11.276518,0.0505 -22.553033,0.30903 l -4.231846,0.1892 q 2.54163,13.2064 14.228086,14.89661 c 7.404155,1.07846 14.076723,-1.33073 18.762653,-7.17711 a 1.3748771,1.3433432 31.2 0 1 1.61454,-0.37841 l 7.58074,3.38043 a 0.58653014,0.58022337 30.1 0 1 0.23966,0.87664 q -7.78887,10.72783 -20.686223,12.73338 -3.468727,-0.17027 -6.931147,-0.32795 c -13.332524,-0.62438 -24.760402,-9.56738 -26.053291,-23.34138 -0.264885,-2.81913 0.113522,-6.47075 0.163976,-9.67459 3.355205,-15.19934 19.897878,-23.40445 34.13227,-19.39334 12.512645,3.53179 20.251055,15.14257 19.254585,28.27958 z M 86.362453,139.64824 q -1.368571,-0.23335 -2.207372,0.73789 -7.416768,2.52272 -9.674594,10.70891 a 0.39102009,0.39732687 7.8 0 0 0.378407,0.50454 L 105.44045,151.423 q 0.97124,0.15766 0.56761,-0.87664 c -3.0714,-7.90871 -11.036858,-12.98566 -19.645607,-10.89812 z"
     id="path216"
     style="stroke-width:0.630678" />
  <path
     fill="#eee192"
     d="m 198.15005,159.51459 h -6.62211 q -17.35625,-0.63699 -34.73772,0.21443 c 1.4947,9.83857 8.62767,15.66603 18.45993,15.09211 q 8.29341,-0.47931 14.63172,-7.50506 a 1.2172077,1.2172077 0 0 1 1.4001,-0.29642 l 7.63751,3.41197 a 0.50454206,0.49823529 29.1 0 1 0.21443,0.73789 q -7.31586,10.65845 -20.06816,12.55048 c -15.77956,2.01817 -32.2087,-6.71671 -33.44483,-23.76393 q -0.25858,-3.5444 -0.47301,-7.08881 c 2.74975,-17.14812 20.59162,-26.72181 36.56669,-20.93219 11.77474,4.26968 17.11658,14.44882 17.68419,26.77226 a 0.68113178,0.54238272 73.8 0 1 -0.21443,0.52346 q -0.43516,0.32164 -1.03431,0.28381 z m -30.61309,-19.52578 q -8.28079,2.73714 -10.46294,11.11885 a 0.38471332,0.39102009 7.2 0 0 0.37841,0.49192 l 30.76445,-0.17658 q 0.82619,0.0883 0.47301,-0.76312 -5.85899,-14.05781 -21.15293,-10.67107 z"
     id="path218"
     style="stroke-width:0.630678" />
  <path
     fill="#eee192"
     d="m 240.09011,134.44515 q 0.84511,0.9271 0.5613,-0.19551 -0.0757,-0.28381 -0.0126,-0.60545 0.13875,-0.75681 -0.0946,-1.84158 4.13094,-0.66221 8.82318,-0.34687 a 0.52976916,0.53607594 1.8 0 1 0.49823,0.53607 v 17.6716 a 1.1730603,0.9586299 88.4 0 1 -0.89556,1.16044 l -2.57317,0.17659 q -0.66852,-0.35948 -1.41902,-0.20813 l -3.8219,-0.23965 a 0.39732687,0.40363365 86.6 0 1 -0.37211,-0.32165 c -1.51362,-8.47 -10.46293,-13.76138 -18.47254,-9.99623 q -8.87364,3.85343 -9.81334,14.20915 c -0.93971,10.38097 4.71116,21.13402 16.4796,20.37089 q 9.24573,-0.59914 13.6794,-9.46016 a 0.69374533,0.71897244 26.1 0 1 0.9334,-0.33426 l 7.38524,3.56333 a 0.48562174,0.49823529 25.2 0 1 0.22704,0.65591 q -6.07342,12.91627 -19.78435,14.87137 l -4.73009,-0.15767 c -20.45287,-0.3721 -29.53463,-21.5061 -23.04495,-39.12724 6.55904,-13.43973 23.73239,-19.48793 36.44685,-10.38095 z"
     id="path220"
     style="stroke-width:0.630678" />
  <path
     fill="#eee192"
     d="m 343.83657,184.21822 c -2.78129,-0.35317 -5.85269,-0.27749 -8.36278,-0.90186 q -18.4221,-4.58503 -20.9385,-24.14234 l -0.0505,-0.94602 0.52346,-7.25279 0.89557,-4.0994 q 5.07695,-11.35851 15.97506,-15.11104 c 14.54342,-5.00757 31.13024,2.00556 35.45038,17.31841 4.81838,17.07875 -5.88421,32.97813 -23.49273,35.13504 z m -8.04113,-43.2014 c -8.39432,3.43088 -11.86305,11.94503 -9.93318,20.52224 4.16878,18.54192 30.46803,16.16427 31.19332,-3.46872 q 1.14782,-13.19378 -10.65846,-17.53915 -5.01389,-1.84788 -10.60168,0.48563 z"
     id="path222"
     style="stroke-width:0.630678" />
  <path
     fill="#eee192"
     d="m 420.31253,183.03255 q -4.97604,-0.31534 -9.93947,0.082 -0.78204,0.25227 -0.78835,-0.44778 -0.0442,-7.03836 0.0252,-27.74981 c 0.8388,-5.0265 1.87311,-17.9554 -7.43569,-15.47683 l -2.99571,0.68113 q -5.31661,1.77221 -9.53585,5.44275 a 0.674825,0.69374533 69.4 0 0 -0.24597,0.52346 l -0.11352,26.60199 a 0.30903201,0.32164556 0.6 0 0 0.30903,0.32795 l 7.82671,0.0252 a 0.61806402,0.6243708 88.4 0 1 0.61807,0.58022 q 0.27749,4.88144 -0.28381,9.13221 l -8.50784,0.0946 q -9.23942,-0.45409 -18.45362,0.13875 -0.51085,0.31534 -0.90187,0.082 a 0.52346239,0.6495979 12.4 0 1 -0.25858,-0.52346 l 0.0252,-8.23035 q 0,-1.24243 1.43795,-1.27396 l 7.08251,-0.16398 a 0.34056589,0.32164556 89.5 0 0 0.31533,-0.34057 l 0.0568,-4.3769 q 0.8388,-3.70839 0,-7.41046 v -4.0994 l 0.15767,-4.25708 c 0.30903,-2.3272 -0.44148,-4.68593 0.29642,-6.19326 q 0.14506,-0.2901 0.13875,-0.58652 l -0.11352,-4.30753 a 0.27119136,0.26488458 89.3 0 0 -0.26489,-0.26488 q -3.28583,-0.0379 -6.64734,-0.006 c -1.4821,0.0189 -2.33982,0.39102 -2.10647,-1.72805 q 0.13245,-1.21721 -0.0442,-7.63751 8.93039,-0.42886 18.73113,-0.22704 a 0.60545047,0.6495979 0.3 0 1 0.59284,0.64328 l 0.0757,4.38952 q 0,0.33426 0.29641,0.13244 c 5.61303,-3.82821 11.32067,-6.62842 18.18244,-6.31308 11.49725,0.51716 12.26668,9.54215 12.30452,18.63022 q 0.0505,11.84412 0.11352,23.68825 a 0.33425911,0.33425911 0 0 0 0.32165,0.32795 l 7.80778,0.21443 a 0.34056589,0.34056589 0 0 1 0.32795,0.32164 c 0.13245,2.66777 -0.006,5.32923 0.1829,7.98438 0.1829,2.57317 -6.04189,1.66499 -8.58983,1.57039 z"
     id="path224"
     style="stroke-width:0.630678" />
  <path
     fill="#716505"
     fill-opacity="0.89"
     d="m 251.85855,131.75216 -0.25858,8.36909 q -0.73158,-2.25783 -0.37209,-4.59764 0.0505,-0.29642 -0.0505,-0.61806 -0.50455,-1.66499 0.68113,-3.15339 z"
     id="path226"
     style="stroke-width:0.630678" />
  <path
     fill="#877a19"
     fill-opacity="0.847"
     d="m 369.96554,131.67017 q 0.17659,6.4203 0.0442,7.63751 c -0.23335,2.11907 0.62437,1.74697 2.10647,1.72806 q 3.36151,-0.0315 6.64734,0.006 a 0.27119136,0.26488458 89.3 0 1 0.26489,0.26488 l 0.11352,4.30753 q 0.006,0.29642 -0.13875,0.58653 c -0.7379,1.50732 0.0126,3.86606 -0.29642,6.19326 l -0.15767,-3.78407 -0.13875,-6.36985 a 0.61175725,0.6243708 89.7 0 0 -0.61806,-0.59914 l -7.62489,-0.1009 a 0.76311987,0.80096052 69.5 0 1 -0.54869,-0.23336 q -0.62438,-0.63068 -0.15137,-1.3938 a 0.66221145,0.74419954 51.3 0 0 0.0946,-0.555 q -0.27749,-0.95231 -0.24596,-1.91094 c 0.0631,-2.06232 -0.17659,-3.67685 0.6496,-5.77701 z"
     id="path228"
     style="stroke-width:0.630678" />
  <path
     fill="#716505"
     fill-opacity="0.89"
     d="m 240.5442,131.80261 q 0.23335,1.08477 0.0946,1.84158 -0.0631,0.32164 0.0126,0.60545 0.28381,1.12261 -0.56129,0.19551 z"
     id="path230"
     style="stroke-width:0.630678" />
  <path
     fill="#8f8116"
     fill-opacity="0.925"
     d="m 244.97786,150.79231 -4.43997,0.3658 q -1.27397,-5.64457 -4.90036,-8.50153 -5.43644,-4.27599 -13.32622,-2.4218 c 8.00961,-3.76515 16.95892,1.52623 18.47254,9.99623 a 0.39732687,0.40363365 86.6 0 0 0.37211,0.32165 z"
     id="path232"
     style="stroke-width:0.630678" />
  <path
     fill="#8e7e16"
     fill-opacity="0.867"
     d="m 105.44045,151.423 q -4.76162,-12.12794 -18.131981,-11.61708 l -0.946016,-0.15768 c 8.608749,-2.08754 16.574207,2.98941 19.645607,10.89812 q 0.40363,1.0343 -0.56761,0.87664 z"
     id="path234"
     style="stroke-width:0.630678" />
  <path
     fill="#8e7e16"
     fill-opacity="0.867"
     d="m 188.21688,151.423 c -2.30197,-5.58781 -6.64104,-9.90165 -12.6577,-11.18192 q -3.9102,-0.8325 -8.02222,-0.25227 15.29394,-3.38674 21.15293,10.67107 0.35318,0.85141 -0.47301,0.76312 z"
     id="path236"
     style="stroke-width:0.630678" />
  <path
     fill="#877a19"
     fill-opacity="0.847"
     d="m 409.60994,154.91695 q -0.32165,-4.13724 -0.1829,-7.25279 c 0.0505,-1.10999 -0.38471,-1.86681 -0.49193,-2.79391 q -0.59284,-5.14002 -6.13019,-5.11479 l -0.63067,-0.31534 c 9.3088,-2.47857 8.27448,10.45033 7.43569,15.47683 z"
     id="path238"
     style="stroke-width:0.630678" />
  <path
     fill="#716505"
     fill-opacity="0.89"
     d="m 402.17425,139.44012 0.63067,0.31534 -3.62639,0.36579 z"
     id="path240"
     style="stroke-width:0.630678" />
  <path
     fill="#716505"
     fill-opacity="0.89"
     d="m 86.362453,139.64824 0.946016,0.15768 -3.153388,0.58021 q 0.838801,-0.97124 2.207372,-0.73789 z"
     id="path242"
     style="stroke-width:0.630678" />
  <path
     fill="#8e7e16"
     fill-opacity="0.867"
     d="m 357.05558,158.07034 c -0.37841,-11.88828 -8.96193,-19.88527 -21.26014,-17.05352 q 5.58779,-2.33351 10.60168,-0.48563 11.80628,4.34537 10.65846,17.53915 z"
     id="path244"
     style="stroke-width:0.630678" />
  <path
     fill="#877a19"
     fill-opacity="0.847"
     d="m 318.29413,140.75193 -9.47908,0.67482 q 4.6544,-1.33703 9.47908,-0.67482 z"
     id="path246"
     style="stroke-width:0.630678" />
  <path
     fill="#b8ad5c"
     fill-opacity="0.996"
     d="m 279.19212,141.06726 q -0.66221,0 -0.97124,0.44779 -4.62287,0.33426 -9.25204,0 5.06434,-1.08477 10.22328,-0.44779 z"
     id="path248"
     style="stroke-width:0.630678" />
  <path
     fill="#716505"
     fill-opacity="0.89"
     d="m 279.19212,141.06726 8.78534,0.0189 a 0.32795234,0.30272524 0.6 0 1 0.32165,0.30273 l -0.23336,31.50234 q -0.63698,-10.46294 -0.29641,-20.86912 c 0.10721,-3.32367 -0.0315,-6.49598 -0.0694,-9.87641 a 0.52976916,0.50454206 0 0 0 -0.52347,-0.49824 l -8.95562,-0.13243 q 0.30903,-0.44779 0.97124,-0.44779 z"
     id="path250"
     style="stroke-width:0.630678" />
  <path
     fill="#170501"
     fill-opacity="0.176"
     d="m 258.08965,159.01635 -0.0505,5.04543 q -0.30903,-2.7876 -0.29012,-7.72581 0.0315,-7.41677 0.21444,-14.87137 z"
     id="path252"
     style="stroke-width:0.630678" />
  <path
     fill="#8e7e16"
     fill-opacity="0.867"
     d="m 203.64326,144.8261 c -6.48968,17.62114 2.59208,38.75514 23.04495,39.12724 l 0.78835,0.42256 c -4.8373,0.59284 -10.77197,-1.27397 -14.82093,-3.6264 l -1.10368,-0.89556 c -10.65845,-8.21773 -13.67309,-23.10802 -7.90869,-35.02784 z"
     id="path254"
     style="stroke-width:0.630678" />
  <path
     fill="#2f6835"
     fill-opacity="0.753"
     d="m 315.90386,146.87581 -0.89556,4.0994 -0.0504,-0.63068 q 0.15767,-1.81004 0.94602,-3.46872 z"
     id="path256"
     style="stroke-width:0.630678" />
  <path
     fill="#877a19"
     fill-opacity="0.847"
     d="m 378.54907,148.61017 0.15766,3.78407 -0.15766,4.25707 q -0.31535,-4.01741 0,-8.04114 z"
     id="path258"
     style="stroke-width:0.630678" />
  <path
     fill="#877a19"
     fill-opacity="0.847"
     d="m 314.95785,150.34453 0.0504,0.63068 -0.52346,7.25279 -0.25858,-4.43366 q -0.23965,-1.8605 0.7316,-3.44981 z"
     id="path260"
     style="stroke-width:0.630678" />
  <path
     fill="#957a0b"
     fill-opacity="0.976"
     d="m 63.002155,150.65988 c -0.05045,3.20384 -0.428861,6.85546 -0.163976,9.67459 1.292889,13.774 12.720767,22.717 26.053291,23.34137 q 3.46242,0.15768 6.931147,0.32795 c -11.9135,1.9488 -24.949605,-2.57946 -30.695078,-13.50911 -3.084014,-5.85899 -3.941735,-13.54064 -2.125384,-19.8348 z"
     id="path262"
     style="stroke-width:0.630678" />
  <path
     fill="#443402"
     fill-opacity="0.918"
     d="m 246.39688,151.00044 -5.85899,0.15767 4.43997,-0.3658 q 0.75051,-0.15135 1.41902,0.20813 z"
     id="path264"
     style="stroke-width:0.630678" />
  <path
     fill="#877a19"
     fill-opacity="0.847"
     d="m 145.14791,152.86725 q 0.21443,3.54441 0.47301,7.08881 c 1.23613,17.04722 17.66527,25.7821 33.44483,23.76393 q -14.19655,3.08401 -24.86762,-5.50581 -11.79367,-9.49801 -9.05022,-25.34693 z"
     id="path266"
     style="stroke-width:0.630678" />
  <path
     fill="#615113"
     fill-opacity="0.631"
     d="m 314.22626,153.79434 0.25857,4.43366 0.0505,0.94602 q 0.18921,1.05954 -0.34056,1.91726 -0.86403,-3.66424 0.0315,-7.29694 z"
     id="path268"
     style="stroke-width:0.630678" />
  <path
     fill="#8f8116"
     fill-opacity="0.925"
     d="m 125.64736,157.43965 0.42255,3.31106 q 0.32165,6.02928 -0.32164,12.10271 -0.4667,-7.85194 -0.10091,-15.41377 z"
     id="path270"
     style="stroke-width:0.630678" />
  <path
     fill="#b8ad5c"
     fill-opacity="0.996"
     d="m 258.08965,159.01635 q 0.99647,5.55627 0.47301,11.19453 0.13874,-0.70006 -0.47301,-0.78835 l -0.0505,-5.36075 z"
     id="path272"
     style="stroke-width:0.630678" />
  <path
     fill="#8f8116"
     fill-opacity="0.925"
     d="m 108.75151,159.46413 q -0.22074,0.0946 -0.15767,0.31534 l -28.695832,0.15767 q -0.794654,-0.0252 -1.583001,-0.45409 11.276515,-0.25858 22.553033,-0.30903 3.94804,-0.0189 7.88347,0.29011 z"
     id="path274"
     style="stroke-width:0.630678" />
  <path
     fill="#7f6a3a"
     fill-opacity="0.988"
     d="m 116.38901,159.54612 q -4.15616,0.77573 -7.79517,0.23335 -0.0631,-0.22074 0.15767,-0.31534 l 3.78406,-0.0189 q 0.40994,0 0.61176,-0.0694 1.4001,-0.44778 3.24168,0.17028 z"
     id="path276"
     style="stroke-width:0.630678" />
  <path
     fill="#8f8116"
     fill-opacity="0.925"
     d="m 191.52794,159.51459 1.73436,0.26488 q -18.20135,0.41625 -36.47208,-0.0505 17.38147,-0.85141 34.73772,-0.21443 z"
     id="path278"
     style="stroke-width:0.630678" />
  <path
     fill="#8f8116"
     fill-opacity="0.925"
     d="m 314.53529,159.17402 q 2.5164,19.55731 20.9385,24.14234 c 2.51009,0.62437 5.58149,0.54869 8.36278,0.90186 q -11.85674,1.40011 -20.97002,-6.1491 l -1.70914,-1.55147 q -6.09866,-6.51489 -6.96268,-15.42637 0.52976,-0.85772 0.34056,-1.91726 z"
     id="path280"
     style="stroke-width:0.630678" />
  <path
     fill="#7f6a3a"
     fill-opacity="0.988"
     d="m 198.15005,159.51459 q -2.4218,0.54869 -4.88775,0.26488 l -1.73436,-0.26488 z"
     id="path282"
     style="stroke-width:0.630678" />
  <path
     fill="#443402"
     fill-opacity="0.918"
     d="m 78.315007,159.48305 q 0.788347,0.42886 1.583001,0.45409 -2.730834,0.2838 -5.814847,-0.26489 z"
     id="path284"
     style="stroke-width:0.630678" />
  <path
     fill="#877a19"
     fill-opacity="0.847"
     d="m 378.54907,160.75071 q 0.8388,3.70208 0,7.41047 z"
     id="path286"
     style="stroke-width:0.630678" />
  <path
     fill="#957a0b"
     fill-opacity="0.976"
     d="m 258.08965,169.42253 q 0.61175,0.0883 0.47301,0.78835 c 0.60545,6.83023 0.90817,11.79997 8.76641,13.43974 q 1.21721,0.25857 7.60598,0.14505 c -5.19678,1.59562 -11.7306,0.81358 -15.09842,-3.84713 -1.70284,-2.37135 -1.89835,-7.65643 -1.74698,-10.52601 z"
     id="path288"
     style="stroke-width:0.630678" />
  <path
     fill="#443402"
     fill-opacity="0.918"
     d="m 309.48987,182.85597 q -9.04392,0.7505 -17.99954,0.41624 l 4.41474,-0.42255 z"
     id="path290"
     style="stroke-width:0.630678" />
  <path
     fill="#8e7c54"
     fill-opacity="0.992"
     d="m 389.24536,182.84966 q -0.0946,0.1892 -0.31534,0.15766 -9.05653,0.63699 -18.13828,-0.0189 9.21419,-0.59283 18.45362,-0.13874 z"
     id="path292"
     style="stroke-width:0.630678" />
  <path
     fill="#7f6a3a"
     fill-opacity="0.988"
     d="m 128.77552,182.84966 q -0.27119,0.21443 -0.63068,0.15766 -5.18417,0.7379 -10.41879,-0.0631 5.51212,-0.42886 11.04947,-0.0946 z"
     id="path294"
     style="stroke-width:0.630678" />
  <path
     fill="#716505"
     fill-opacity="0.89"
     d="m 143.89287,182.82443 q -6.36985,0.76312 -13.69833,0.47301 -1.32442,-0.0505 -2.0497,-0.29012 0.35949,0.0568 0.63068,-0.15766 z"
     id="path296"
     style="stroke-width:0.630678" />
  <path
     fill="#7f6a3a"
     fill-opacity="0.988"
     d="m 295.90507,182.84966 -4.41474,0.42255 q -6.54012,0.0441 -13.08656,0.0315 -1.12261,0 -2.20737,0.28381 0.69375,-0.90818 1.73437,-0.92079 7.15188,-0.0883 17.9743,0.18289 z"
     id="path298"
     style="stroke-width:0.630678" />
  <path
     fill="#160600"
     fill-opacity="0.906"
     d="m 397.7532,182.75506 c -2.14431,1.05323 -7.18973,0.56761 -8.82318,0.25226 q 0.22074,0.0315 0.31534,-0.15766 z"
     id="path300"
     style="stroke-width:0.630678" />
  <path
     fill="#160600"
     fill-opacity="0.906"
     d="m 420.31253,183.03255 q -4.96974,0.53608 -9.93947,0.082 4.96343,-0.39733 9.93947,-0.082 z"
     id="path302"
     style="stroke-width:0.630678" />
  <path
     fill="#7f6a3a"
     fill-opacity="0.988"
     d="m 231.4183,184.11101 -3.94174,0.26489 -0.78835,-0.42256 z"
     id="path304"
     style="stroke-width:0.630678" />
</svg>
