<?xml version="1.0" encoding="UTF-8" standalone="no"?>
<svg
   version="1.1"
   viewBox="0 0 500 200"
   id="svg250"
   sodipodi:docname="pico.svg"
   width="500"
   height="200"
   inkscape:version="1.2.2 (b0a8486541, 2022-12-01)"
   xmlns:inkscape="http://www.inkscape.org/namespaces/inkscape"
   xmlns:sodipodi="http://sodipodi.sourceforge.net/DTD/sodipodi-0.dtd"
   xmlns="http://www.w3.org/2000/svg"
   xmlns:svg="http://www.w3.org/2000/svg">
  <defs
     id="defs254" />
  <sodipodi:namedview
     id="namedview252"
     pagecolor="#505050"
     bordercolor="#ffffff"
     borderopacity="1"
     inkscape:showpageshadow="0"
     inkscape:pageopacity="0"
     inkscape:pagecheckerboard="1"
     inkscape:deskcolor="#505050"
     showgrid="false"
     inkscape:zoom="1.5827407"
     inkscape:cx="334.23037"
     inkscape:cy="102.67001"
     inkscape:window-width="1670"
     inkscape:window-height="910"
     inkscape:window-x="0"
     inkscape:window-y="0"
     inkscape:window-maximized="1"
     inkscape:current-layer="svg250" />
  <g
     stroke-width="2"
     fill="none"
     stroke-linecap="butt"
     id="g152"
     transform="matrix(0.79643455,0,0,0.79643455,11.196511,23.922557)">
    <path
       stroke="#5aae8d"
       stroke-opacity="0.996"
       vector-effect="non-scaling-stroke"
       d="m 160.04,173.5 q -4.32,-1.62 -8,1"
       id="path2" />
    <path
       stroke="#90bc68"
       vector-effect="non-scaling-stroke"
       d="m 177.68,39.83 3.82,3.63"
       id="path4" />
    <path
       stroke="#477ab1"
       vector-effect="non-scaling-stroke"
       d="m 181.5,43.46 c -0.67,0.34 -0.89,0.58 -1.7,0.49 Q 129.31,38.22 78.83,32.35 C 75.87,32 73.32,31.71 70.5,32.5 Q 37.82,41.7 6.1,51 a 1.47,1.46 -16.3 0 0 -1,1.81 l 28.57,97.4 a 1.05,0.97 -89.6 0 0 0.6,0.66 q 1.97,0.74 6.73,1.63 45.54,8.55 91.06,17.19 7.18,1.36 13.23,0.49 c 6.47,-0.92 12.89,-1.46 19.4,-1.96 a 1.33,0.7 -58.1 0 0 0.77,-0.45 c 0.47,-0.52 16.29,-2.3 18.26,-2.52 q 9.58,-1.05 19.12,-2.41 c 0.97,-0.13 1.62,0.28 2.61,0.15 q 18.62,-2.43 37.27,-4.62 c 3.23,-0.38 5.59,-0.7 9.28,-0.37 q 28.12,2.53 131.75,11.25 c 13.82,1.16 31.77,0.02 43.76,-0.08 q 59.82,-0.48 119.13,-1.16 a 1.92,1.91 10.7 0 0 1.74,-1.18 L 594.9,53.74 A 0.99,0.98 -72.6 0 0 594.2,52.4 Q 533.86,39.22 474.13,26.51 471.75,26 469.38,26.53 416.64,38.3 364,50.5 q -3.6,0.83 -8.75,0.75 -17.5,-0.26 -96.75,-1 -21.52,-0.2 -32.86,-1.14"
       id="path6" />
    <path
       stroke="#90bc68"
       vector-effect="non-scaling-stroke"
       d="m 225.64,49.11 1.32,-3.61"
       id="path8" />
    <path
       stroke="#90bc68"
       vector-effect="non-scaling-stroke"
       d="m 183.75,41.04 q 0.67,1.33 -0.21,2.46"
       id="path10" />
    <path
       stroke="#90bc68"
       vector-effect="non-scaling-stroke"
       d="m 186.96,44.75 0.25,-3.5"
       id="path12" />
    <path
       stroke="#a99358"
       vector-effect="non-scaling-stroke"
       d="m 181.5,43.46 q 1.05,0.5 2.04,0.04"
       id="path14" />
    <path
       stroke="#477ab1"
       vector-effect="non-scaling-stroke"
       d="m 183.54,43.5 q 1.42,1.38 3.42,1.25"
       id="path16" />
    <path
       stroke="#a99358"
       vector-effect="non-scaling-stroke"
       d="m 186.96,44.75 q 1.77,7.12 8.3,9.67 2.27,0.89 3.01,1.89 c 1.95,2.64 1.26,5.8 4.67,7.63 q 1.46,0.78 1.89,1.46 c 2.3,3.62 -4.01,2.27 -4.73,4.88 -0.8,2.91 1.88,4.64 4.6,4.28 q 1.12,-0.15 0.62,0.86 -1.95,3.99 1.6,4.92 c 3.44,0.9 3.8,0.68 3.08,-3.19 q -0.4,-2.1 1.57,-1.71 l 1.89,0.38 a 0.94,0.83 25.3 0 0 0.83,-0.24 q 2.74,-2.88 -1.36,-4.02 a 1.17,1.16 26.3 0 1 -0.62,-1.82 q 0.81,-1.09 2.45,-1.41 a 1.63,1 4.5 0 0 0.85,-0.43 q 1.16,-1.27 -0.68,-2.09 a 1.37,1.26 -68.7 0 1 -0.64,-1.65 l 2.12,-6.25 a 4.26,2.15 -85.7 0 1 1.08,-1.79 l 8.15,-7.01"
       id="path18" />
    <path
       stroke="#a33451"
       vector-effect="non-scaling-stroke"
       d="m 495.5,59.04 c -0.16,4.03 2.2,4.81 5.4,3.21 q 7.19,-3.58 10.91,-11.46 0.87,-1.84 0.08,-3.71 -0.88,-2.09 -2.85,-1.83"
       id="path20" />
    <path
       stroke="#a99358"
       vector-effect="non-scaling-stroke"
       d="m 509.04,45.25 c 0.19,-6.07 -5.97,-3.48 -8.48,-1.44 -2.15,1.76 -13.84,15.07 -5.06,15.23"
       id="path22" />
    <path
       stroke="#ed7608"
       vector-effect="non-scaling-stroke"
       d="M 509.04,45.25 Q 505.47,55.31 495.5,59.04"
       id="path24" />
    <path
       stroke="#a33451"
       vector-effect="non-scaling-stroke"
       d="m 455.39,57.03 q 2.73,4.66 7.56,5.61 2.56,0.51 2.34,-2.09 -0.47,-5.81 -4.43,-9.14"
       id="path26" />
    <path
       stroke="#a99358"
       vector-effect="non-scaling-stroke"
       d="m 460.86,51.41 q -4.02,-7.36 -11.65,-9.53 a 0.99,0.99 3.9 0 0 -1.25,1.09 q 1.2,8.57 7.43,14.06"
       id="path28" />
    <path
       stroke="#ed7608"
       vector-effect="non-scaling-stroke"
       d="m 460.86,51.41 q 1.19,3.3 1.15,5.88 -0.03,2.2 -1.99,1.46 l -4.63,-1.72"
       id="path30" />
    <path
       stroke="#a33451"
       vector-effect="non-scaling-stroke"
       d="m 67.31,127.48 q 3.68,5.35 10.26,6.66 c 6.48,1.3 18.03,1.49 21.02,-6.14 2.28,-5.83 -1.42,-12 -3.03,-17.3 q -0.65,-2.16 1.48,-2.88 3.63,-1.23 7.47,-1.04 20.25,0.98 35.05,-12.47 c 4.4,-4 4.54,-7.85 4.19,-13.83 -0.26,-4.52 -0.73,-10.25 -4.71,-13.23"
       id="path32" />
    <path
       stroke="#a99358"
       vector-effect="non-scaling-stroke"
       d="m 139.04,67.25 q -3.09,-4.67 -8.11,-7.18 C 111.76,50.46 91.59,49.28 70.67,53.17 62.7,54.65 57.48,58.12 56.78,66.41 q -0.18,2.1 -2.26,2.34 c -3.7,0.43 -10.69,1.78 -7.96,7.44 q 4.54,9.36 6.96,17.25 c 3.71,12.11 3.61,24.73 13.79,34.04"
       id="path34" />
    <path
       stroke="#ed7608"
       vector-effect="non-scaling-stroke"
       d="m 139.04,67.25 c 1.79,6.48 3.28,17.74 -1.98,22.56 q -16.37,15 -39.31,13.19 -5.17,-0.41 -5.29,3.22 -0.05,1.19 1.41,4.75 c 8.9,21.8 -13.82,23.23 -26.56,16.51"
       id="path36" />
    <path
       stroke="#a33451"
       vector-effect="non-scaling-stroke"
       d="m 530.11,71.77 q 1.43,5.71 7.96,3.05 c 1.79,-0.73 18.18,-10.17 12.9,-12.88 a 1.69,0.57 -13.2 0 0 -0.96,-0.09 q -1,0.09 -2.2,-0.59"
       id="path38" />
    <path
       stroke="#a99358"
       vector-effect="non-scaling-stroke"
       d="m 547.81,61.26 q 1.82,-2.47 -0.6,-3.57 a 1.39,1.2 -37.8 0 0 -0.93,-0.05 q -9.81,3.03 -18.31,8.99 -1.73,1.21 -0.63,3.01 0.82,1.35 2.77,2.13"
       id="path40" />
    <path
       stroke="#ed7608"
       vector-effect="non-scaling-stroke"
       d="m 547.81,61.26 q -6.8,8.69 -17.7,10.51"
       id="path42" />
    <path
       stroke="#a33451"
       vector-effect="non-scaling-stroke"
       d="m 434.29,115.65 c 5.56,6.47 11.73,8.53 21.04,11.9 21.95,7.96 47.18,7.71 67.18,-5.24 7.38,-4.78 12.08,-8 11.88,-16.81 q -0.14,-5.96 0.11,-14.25 0.17,-5.62 -4.01,-9.22"
       id="path44" />
    <path
       stroke="#a99358"
       vector-effect="non-scaling-stroke"
       d="m 530.49,82.03 c -4.58,-8 -14.58,-12.22 -23.16,-14.17 -25.34,-5.76 -51.83,-4.69 -72.35,13.11 -11.28,9.79 -11,24.49 -0.69,34.68"
       id="path46" />
    <path
       stroke="#ed7608"
       vector-effect="non-scaling-stroke"
       d="m 530.49,82.03 c 1.32,6.17 0.49,12.44 0.8,18.72 q 0.42,8.29 -6.01,13.27 c -27.57,21.32 -62.02,17.72 -90.99,1.63"
       id="path48" />
    <path
       stroke="#a33451"
       vector-effect="non-scaling-stroke"
       d="m 410.06,73.44 q 6.5,8.1 16.69,10.31 c 6.26,1.35 3.87,-5.05 0.79,-7"
       id="path50" />
    <path
       stroke="#a99358"
       vector-effect="non-scaling-stroke"
       d="m 427.54,76.75 q -5.75,-8.24 -15.49,-11.03 -5.71,-1.63 -5.06,3.72 a 1.77,1.5 24.8 0 0 0.41,0.88 l 2.66,3.12"
       id="path52" />
    <path
       stroke="#ed7608"
       vector-effect="non-scaling-stroke"
       d="m 427.54,76.75 c -0.82,7.49 -14.47,-1.11 -17.48,-3.31"
       id="path54" />
    <path
       stroke="#a33451"
       vector-effect="non-scaling-stroke"
       d="m 280.37,123.6 q 11.54,11.12 26.61,14.83 7.24,1.78 19.19,1.85 c 18.28,0.11 34.39,-2.1 49.44,-13.33 4.58,-3.41 6.46,-7.89 0.93,-11.7"
       id="path56" />
    <path
       stroke="#a99358"
       vector-effect="non-scaling-stroke"
       d="m 376.54,115.25 q -0.99,-3.03 -3.6,-3.94 c -22.89,-7.92 -41.74,16.25 -63.01,5.43"
       id="path58" />
    <path
       stroke="#a33451"
       vector-effect="non-scaling-stroke"
       d="m 309.93,116.74 c -0.16,-14.94 16.75,-20.05 28.73,-21.78 q 11.39,-1.65 22.36,-5.16 c 4.72,-1.51 2.51,-6.38 -0.48,-8.05"
       id="path60" />
    <path
       stroke="#a99358"
       vector-effect="non-scaling-stroke"
       d="m 360.54,81.75 q -3.11,-4.92 -8.04,-7.32 -3.72,-1.8 -10.27,-1.78 -33.39,0.14 -60.72,19.41 c -4,2.82 -7.86,4.74 -8.76,9.94 q -2.16,12.43 7.62,21.6"
       id="path62" />
    <path
       stroke="#ed7608"
       vector-effect="non-scaling-stroke"
       d="m 360.54,81.75 q 0.35,2.86 -1.85,3.69 c -13.9,5.22 -30.86,4.68 -44.38,12.99 -6.13,3.77 -10.98,12.22 -4.38,18.31"
       id="path64" />
    <path
       stroke="#ed7608"
       vector-effect="non-scaling-stroke"
       d="m 376.54,115.25 c 0.35,5.89 -2.85,7.17 -8.01,10.41 -14.96,9.41 -28.77,10.25 -46.28,10.59 q -23.14,0.45 -41.88,-12.65"
       id="path66" />
    <path
       stroke="#a33451"
       vector-effect="non-scaling-stroke"
       d="m 190.1,137.72 q 1.61,3.09 4.35,4.85 c 11.53,7.39 23.09,4.3 29.43,-7.67 q 1.05,-1.99 1.06,-4.68 0.03,-13.2 1.31,-24.97 0.78,-7.23 -3.69,-12.15"
       id="path68" />
    <path
       stroke="#a99358"
       vector-effect="non-scaling-stroke"
       d="m 222.56,93.1 q -2.08,-3.47 -3.75,-4.16 c -13.35,-5.5 -31.23,-3.66 -31.41,14.77 -0.06,6.98 -0.74,14.52 -1.65,24.79 q -0.52,5.84 4.35,9.22"
       id="path70" />
    <path
       stroke="#ed7608"
       vector-effect="non-scaling-stroke"
       d="m 222.56,93.1 c 0.71,10.84 -1.09,21.43 -0.88,32.57 q 0.06,2.87 -0.94,4.95 c -6.03,12.6 -19.57,15.79 -30.64,7.1"
       id="path72" />
    <path
       stroke="#a33451"
       vector-effect="non-scaling-stroke"
       d="m 540.25,101.24 q 5.37,7.06 14.17,5.6 c 1.96,-0.32 3.7,-1.4 6.32,-1.02 5.17,0.74 4.98,-5.1 0.51,-5.36"
       id="path74" />
    <path
       stroke="#a99358"
       vector-effect="non-scaling-stroke"
       d="m 561.25,100.46 q 0.82,-2.15 -0.94,-3.02 -10.76,-5.33 -22.25,-1.71 -2.11,0.67 -0.76,2.2 l 2.95,3.31"
       id="path76" />
    <path
       stroke="#ed7608"
       vector-effect="non-scaling-stroke"
       d="m 561.25,100.46 q -2.36,1.92 -5.33,1.23 a 1.68,1.45 37.6 0 0 -0.94,0.05 q -7.12,2.63 -14.73,-0.5"
       id="path78" />
    <path
       stroke="#a33451"
       vector-effect="non-scaling-stroke"
       d="m 403.75,108.54 q -2.21,3.54 1.8,4.02 9.79,1.2 20,-0.58 2.07,-0.36 1.46,-2.38 -1.04,-3.41 -2.82,-2.85"
       id="path80" />
    <path
       stroke="#a99358"
       vector-effect="non-scaling-stroke"
       d="m 424.19,106.75 c -1.7,-8.28 -15.82,-5.16 -21.32,-3.33 -3.85,1.29 -5.1,4.94 0.88,5.12"
       id="path82" />
    <path
       stroke="#ed7608"
       vector-effect="non-scaling-stroke"
       d="m 424.19,106.75 q -9.95,3.52 -20.44,1.79"
       id="path84" />
    <path
       stroke="#a33451"
       vector-effect="non-scaling-stroke"
       d="m 529.78,129.25 q 5.93,7.31 15.14,9.56 c 1.49,0.36 3.35,1.55 4.39,-0.4 1.25,-2.36 -0.85,-5.33 -2.77,-6.66"
       id="path86" />
    <path
       stroke="#a99358"
       vector-effect="non-scaling-stroke"
       d="m 546.54,131.75 q -5.62,-8.16 -15.54,-11 c -4.73,-1.36 -6.24,2 -3.88,5.42 q 1.15,1.66 2.66,3.08"
       id="path88" />
    <path
       stroke="#ed7608"
       vector-effect="non-scaling-stroke"
       d="m 546.54,131.75 q 0.23,2.23 -1.38,3.47 a 1.17,1.02 29.7 0 1 -0.9,0.18 q -7.76,-1.57 -14.48,-6.15"
       id="path90" />
    <path
       stroke="#a33451"
       vector-effect="non-scaling-stroke"
       d="m 425.5,139.04 c -0.7,2.36 0.38,4.01 2.96,3.88 q 6.2,-0.3 10.68,-4.78 c 2.78,-2.78 9.82,-9.26 2.61,-10.68"
       id="path92" />
    <path
       stroke="#a99358"
       vector-effect="non-scaling-stroke"
       d="m 441.75,127.46 c 0.61,-8.72 -13.67,1 -15.75,2.79 -1.9,1.63 -7.62,9.51 -0.5,8.79"
       id="path94" />
    <path
       stroke="#ed7608"
       vector-effect="non-scaling-stroke"
       d="m 441.75,127.46 c -4.69,5.98 -8.76,10.61 -16.25,11.58"
       id="path96" />
    <path
       stroke="#a33451"
       vector-effect="non-scaling-stroke"
       d="m 504.75,153.04 q 1.36,4.22 5.53,3.91 2.03,-0.16 2.22,-2.18 0.83,-9.14 -5.42,-15.84"
       id="path98" />
    <path
       stroke="#a99358"
       vector-effect="non-scaling-stroke"
       d="m 507.08,138.93 q -2.19,-3.47 -5.4,-6.13 -1.94,-1.59 -3.2,0.58 c -3.23,5.57 2.17,15.77 6.27,19.66"
       id="path100" />
    <path
       stroke="#ed7608"
       vector-effect="non-scaling-stroke"
       d="m 507.08,138.93 c 1.55,3.85 5.71,15.1 -2.33,14.11"
       id="path102" />
    <path
       stroke="#a33451"
       vector-effect="non-scaling-stroke"
       d="m 462.75,152.54 c -0.35,4.67 2.55,4.73 5.46,2.69 4.79,-3.36 6.3,-8.76 6.72,-14.46 0.16,-2.3 -1.23,-3.27 -3.39,-2.85"
       id="path104" />
    <path
       stroke="#a99358"
       vector-effect="non-scaling-stroke"
       d="m 471.54,137.92 q 0.84,-6.62 -4.48,-2.61 -5.49,4.15 -6.87,11.48 c -0.54,2.88 -1.66,5.99 2.56,5.75"
       id="path106" />
    <path
       stroke="#ed7608"
       vector-effect="non-scaling-stroke"
       d="m 471.54,137.92 q -0.28,9.99 -8.79,14.62"
       id="path108" />
    <path
       stroke="#a99358"
       vector-effect="non-scaling-stroke"
       d="m 85.16,82.17 c 5.32,6.58 17.03,0.87 22.36,-3.4 q 2.12,-1.7 1.02,-3.64"
       id="path110" />
    <path
       stroke="#ed7608"
       vector-effect="non-scaling-stroke"
       d="m 108.54,75.13 q -3.58,-5.06 -9.33,-6.88 C 95.37,67.03 80.7,69.07 81.28,75.22 q 0.39,4.14 3.88,6.95"
       id="path112" />
    <path
       stroke="#a33451"
       vector-effect="non-scaling-stroke"
       d="M 108.54,75.13 Q 103.43,71.7 97.58,71.99 c -2.87,0.14 -6.11,1.39 -9.07,2.31 q -5.95,1.84 -3.35,7.87"
       id="path114" />
    <path
       stroke="#a99358"
       vector-effect="non-scaling-stroke"
       d="m 481.71,86.25 q -0.06,1.02 -0.75,1.75"
       id="path116" />
    <path
       stroke="#ed7608"
       vector-effect="non-scaling-stroke"
       d="m 480.96,88 q -3.81,2.72 -8.46,1.79"
       id="path118" />
    <path
       stroke="#a99358"
       vector-effect="non-scaling-stroke"
       d="M 472.5,89.79 Q 469.09,88.6 468.71,85"
       id="path120" />
    <path
       stroke="#ed7608"
       vector-effect="non-scaling-stroke"
       d="m 468.71,85 c 0.08,-3.8 -2.9,-3.89 -5.46,-2.44 -7.45,4.25 -18.96,15 -8.84,23.18"
       id="path122" />
    <path
       stroke="#a99358"
       vector-effect="non-scaling-stroke"
       d="m 454.41,105.74 c 5.8,6.21 16.81,7.39 24.01,8.18 q 11.29,1.25 21.6,-3.51"
       id="path124" />
    <path
       stroke="#ed7608"
       vector-effect="non-scaling-stroke"
       d="m 500.02,110.41 q 2.16,-0.28 3.98,-1.7"
       id="path126" />
    <path
       stroke="#a99358"
       vector-effect="non-scaling-stroke"
       d="m 504,108.71 c 6.93,-3.41 8.99,-10.79 9.96,-18"
       id="path128" />
    <path
       stroke="#ed7608"
       vector-effect="non-scaling-stroke"
       d="M 513.96,90.71 Q 508.79,86.74 502.9,84 q -3.27,-1.53 -6.42,0.36 a 0.85,0.84 -40.2 0 0 -0.12,1.37 c 7.05,6.07 -3.81,4.49 -5.61,4.06"
       id="path130" />
    <path
       stroke="#a99358"
       vector-effect="non-scaling-stroke"
       d="m 490.75,89.79 q -4.2,-1.12 -4.54,-5.54"
       id="path132" />
    <path
       stroke="#ed7608"
       vector-effect="non-scaling-stroke"
       d="m 486.21,84.25 0.89,-2.4 a 1.08,0.98 13.4 0 0 -0.91,-1.33 q -6.29,-0.8 -10.38,3.53 c -1.85,1.95 0.55,1.55 1.34,1.1 q 2.81,-1.62 4.56,1.1"
       id="path134" />
    <path
       stroke="#a33451"
       vector-effect="non-scaling-stroke"
       d="m 486.21,84.25 c -1.3,0.33 -4.56,0.24 -4.5,2"
       id="path136" />
    <path
       stroke="#a33451"
       vector-effect="non-scaling-stroke"
       d="m 504,108.71 q 0.81,-3.98 -3.22,-3.41"
       id="path138" />
    <path
       stroke="#a99358"
       vector-effect="non-scaling-stroke"
       d="m 500.78,105.3 q 0.68,-2.77 -0.84,-3.81 a 1.5,1.05 -24.2 0 0 -0.93,-0.18 q -16.11,1.9 -34.18,-2.67 a 3.22,3.18 44 0 0 -1.65,0.02 c -3.24,0.94 1.58,4.16 2.36,4.59"
       id="path140" />
    <path
       stroke="#a33451"
       vector-effect="non-scaling-stroke"
       d="m 465.54,103.25 c -1.39,4.34 13.07,7.05 15.71,7.17 q 9.35,0.45 18.77,-0.01"
       id="path142" />
    <path
       stroke="#a33451"
       vector-effect="non-scaling-stroke"
       d="m 472.5,89.79 c 0.34,5.57 9.72,5.06 11.92,1.72 2.44,-3.72 -3.82,-1.4 -3.46,-3.51"
       id="path144" />
    <path
       stroke="#ed7608"
       vector-effect="non-scaling-stroke"
       d="m 500.78,105.3 q -8.03,1.78 -17.28,1.7 -9.64,-0.08 -17.96,-3.75"
       id="path146" />
    <path
       stroke="#a33451"
       vector-effect="non-scaling-stroke"
       d="m 513.96,90.71 q -0.38,0.66 -0.64,0.86 c -0.29,0.23 -8.85,-5.05 -12.22,-3.94 q -2.44,0.81 -0.67,2.67 c 6.3,6.62 -12.3,4.35 -9.68,-0.51"
       id="path148" />
    <path
       stroke="#a33451"
       vector-effect="non-scaling-stroke"
       d="m 468.71,85 q -5.41,3.2 -10.9,8.56 -5.42,5.3 -3.4,12.18"
       id="path150" />
  </g>
  <ellipse
     fill="#f2d50f"
     cx="68.519386"
     cy="-162.58511"
     transform="rotate(80.3)"
     rx="2.7954853"
     ry="1.9433004"
     id="ellipse154"
     style="stroke-width:0.796435" />
  <ellipse
     fill="#f2d50f"
     cx="-54.914661"
     cy="-182.59579"
     transform="rotate(119.4)"
     rx="3.4644902"
     ry="1.959229"
     id="ellipse156"
     style="stroke-width:0.796435" />
  <ellipse
     fill="#f2d50f"
     cx="139.93532"
     cy="-89.263176"
     transform="rotate(48)"
     rx="3.4644902"
     ry="1.7202986"
     id="ellipse158"
     style="stroke-width:0.796435" />
  <path
     fill="#2ea3c0"
     d="m 138.6579,162.10395 q -3.4406,-1.29023 -6.37148,0.79643 c -3.63971,0.67697 -6.87323,1.41766 -10.62444,0.67697 q -40.626123,-7.96434 -81.25225,-15.93665 -2.046837,-0.40619 -4.045887,-0.4699 a 0.8920067,0.8920067 0 0 1 -0.836257,-0.64511 L 11.531013,63.449604 a 0.73271979,0.72475544 74 0 1 0.501754,-0.907935 q 27.739815,-7.956381 55.511488,-15.94462 1.991087,-0.573433 4.061816,-0.326538 40.530549,4.778607 81.100929,9.374035 l 3.04238,2.891057 c -0.53361,0.270788 -0.70883,0.461932 -1.35394,0.390253 Q 114.18346,54.362286 73.979446,49.687215 C 71.622,49.408463 69.591092,49.177497 67.345147,49.80668 Q 41.317665,57.133878 16.054761,64.54072 a 1.1627944,1.1707588 73.7 0 0 -0.796434,1.441546 l 22.754135,77.572724 a 0.77254151,0.83625628 0.4 0 0 0.477861,0.52564 q 1.568976,0.58937 5.360004,1.29819 36.26963,6.80952 72.523333,13.69071 5.7184,1.08315 10.53683,0.39026 c 5.15293,-0.73272 10.26604,-1.1628 15.45083,-1.56102 a 0.55750419,1.059258 31.9 0 0 0.61325,-0.35839 c 0.37432,-0.41415 12.97392,-1.8318 14.5429,-2.00702 q 7.62984,-0.83625 15.22782,-1.9194 c 0.77255,-0.10354 1.29023,0.223 2.0787,0.11946 q 14.82961,-1.93534 29.68311,-3.67953 c 2.57249,-0.30264 4.45207,-0.5575 7.39092,-0.29468 q 22.39574,2.01498 104.93025,8.95989 c 11.00672,0.92387 25.30272,0.0159 34.85197,-0.0637 q 47.64272,-0.38229 94.87925,-0.92387 a 1.5291543,1.52119 10.7 0 0 1.3858,-0.93979 l 37.05013,-90.06878 a 0.78050586,0.78847021 17.4 0 0 -0.5575,-1.067222 q -48.05686,-10.497007 -95.6279,-20.619691 -1.89551,-0.406181 -3.78306,0.01593 -42.00396,9.374035 -83.92827,19.090536 -2.86717,0.661041 -6.96881,0.597326 -13.9376,-0.207073 -77.05504,-0.796434 -17.13927,-0.159287 -26.17084,-0.907936 l 1.0513,-2.875128 c 14.42343,0.541575 29.18136,0.493789 43.23843,0.756612 q 29.76276,0.54954 59.52552,0.629184 3.58395,0.008 7.08826,-0.780506 41.93228,-9.445714 84.57339,-19.257788 0.40618,-0.09557 0.8044,-0.008 l 101.17904,22.220524 a 0.49378942,0.49378942 0 0 1 0.35043,0.661041 l -38.09346,96.806612 a 0.63714764,0.6132546 8.6 0 1 -0.54954,0.39025 q -4.85029,0.27079 -15.96851,0.32654 -47.06929,0.25486 -94.1306,0.38229 c -8.38646,0.0239 -17.89589,0.42211 -27.32567,-0.38229 q -50.63731,-4.32464 -101.28258,-8.64928 -3.64767,-0.31061 -7.27145,0.18318 -32.7016,4.4441 -65.43506,8.66521 z"
     id="path160"
     style="stroke-width:0.796435" />
  <path
     fill="#5f50a1"
     d="m 155.74938,58.535603 q 0.83626,0.398217 1.62473,0.03186 1.13093,1.09908 2.7238,0.995544 1.40969,5.670614 6.61041,7.701522 1.80791,0.708826 2.39727,1.505261 c 1.55305,2.102587 1.00351,4.61932 3.71935,6.076796 q 1.16279,0.621219 1.50526,1.162794 c 1.8318,2.883093 -3.1937,1.807907 -3.76714,3.886601 -0.63714,2.317624 1.4973,3.695456 3.6636,3.40874 q 0.89201,-0.119466 0.49379,0.684933 -1.55305,3.177774 1.2743,3.918458 c 2.73973,0.716792 3.02645,0.541572 2.45302,-2.540626 q -0.31858,-1.672512 1.2504,-1.361903 l 1.50526,0.302645 a 0.74864848,0.66104068 25.3 0 0 0.66104,-0.191144 q 2.18223,-2.293732 -1.08315,-3.201667 a 0.93182842,0.92386408 26.3 0 1 -0.49379,-1.449511 q 0.64511,-0.868114 1.95126,-1.122973 a 1.2981883,0.79643455 4.5 0 0 0.67697,-0.342467 q 0.92387,-1.011471 -0.54157,-1.664548 a 1.0035075,1.0911153 21.3 0 1 -0.50972,-1.31412 l 1.68844,-4.977716 a 1.7123343,3.3928112 4.3 0 1 0.86015,-1.425618 l 6.49094,-5.583006 q 9.03157,0.748649 26.17084,0.907936 63.11744,0.589361 77.05504,0.796434 4.10164,0.06372 6.96881,-0.597326 41.92431,-9.716501 83.92827,-19.090536 1.88755,-0.42211 3.78306,-0.01593 47.57104,10.122684 95.6279,20.619691 a 0.78050586,0.78847021 17.4 0 1 0.5575,1.067222 l -37.05013,90.068781 a 1.5291543,1.52119 10.7 0 1 -1.3858,0.93979 q -47.23653,0.54158 -94.87925,0.92387 c -9.54925,0.0796 -23.84525,0.98758 -34.85197,0.0637 q -82.53451,-6.94491 -104.93025,-8.95989 c -2.93885,-0.26282 -4.81843,-0.008 -7.39092,0.29468 q -14.8535,1.74419 -29.68311,3.67953 c -0.78847,0.10354 -1.30615,-0.223 -2.0787,-0.11946 q -7.59798,1.08315 -15.22782,1.9194 c -1.56898,0.17522 -14.16858,1.59287 -14.5429,2.00702 a 0.55750419,1.059258 31.9 0 1 -0.61325,0.35839 c -5.18479,0.39822 -10.2979,0.8283 -15.45083,1.56102 q -4.81843,0.69289 -10.53683,-0.39026 -36.253703,-6.88119 -72.523333,-13.69071 -3.791028,-0.70882 -5.360004,-1.29819 a 0.77254151,0.83625628 0.4 0 1 -0.477861,-0.52564 L 15.258327,65.982266 A 1.1627944,1.1707588 73.7 0 1 16.054761,64.54072 Q 41.317665,57.133878 67.345147,49.80668 c 2.245945,-0.629183 4.276853,-0.398217 6.634299,-0.119465 q 40.204014,4.675071 80.415994,9.238641 c 0.64511,0.07168 0.82033,-0.119465 1.35394,-0.390253 z m 250.08045,12.40845 c -0.12743,3.209632 1.75216,3.830851 4.30075,2.556555 q 5.72636,-2.851235 8.6891,-9.12714 0.6929,-1.465439 0.0637,-2.954772 -0.70086,-1.664548 -2.26984,-1.457475 c 0.15133,-4.834358 -4.75471,-2.771592 -6.75376,-1.146866 -1.71234,1.401725 -11.02266,12.002269 -4.02996,12.129698 z M 373.88484,69.34322 q 2.17427,3.711385 6.02105,4.467998 2.03887,0.406181 1.86365,-1.664548 -0.37432,-4.627285 -3.5282,-7.279412 -3.20167,-5.861759 -9.27847,-7.590022 a 0.78847021,0.78847021 0 0 0 -0.99554,0.868114 q 0.95572,6.825444 5.91751,11.19787 z M 64.80452,125.45203 q 2.93088,4.26092 8.171419,5.30425 c 5.160896,1.03537 14.359715,1.18669 16.741054,-4.8901 1.815871,-4.64322 -1.130937,-9.55722 -2.413197,-13.77832 q -0.517682,-1.7203 1.178724,-2.29373 2.891057,-0.97962 5.949366,-0.8283 16.127794,0.78051 27.915034,-9.931526 c 3.50431,-3.18574 3.61581,-6.25202 3.33706,-11.014694 -0.20708,-3.599884 -0.5814,-8.163454 -3.75121,-10.536829 q -2.46098,-3.719349 -6.45908,-5.7184 C 100.20604,64.110645 84.141951,63.170852 67.48054,66.268983 61.132957,67.447706 56.975569,70.211334 56.418065,76.813776 q -0.143359,1.672513 -1.799943,1.863657 c -2.946807,0.342467 -8.513885,1.417653 -6.339619,5.925473 q 3.615813,7.454628 5.543185,13.738498 c 2.954772,9.644816 2.875129,19.695816 10.982832,27.110626 z M 433.39443,81.082665 q 1.1389,4.547641 6.33962,2.429126 c 1.42562,-0.581398 14.47918,-8.09974 10.274,-10.258077 a 0.45396769,1.3459744 76.8 0 0 -0.76457,-0.07168 q -0.79644,0.07168 -1.75216,-0.469896 1.44951,-1.967193 -0.47786,-2.843271 a 0.95572146,1.107044 52.2 0 0 -0.74068,-0.03982 q -7.81303,2.413197 -14.58272,7.159947 -1.37783,0.963685 -0.50175,2.397268 0.65307,1.075186 2.20612,1.696405 z m -76.31436,34.947545 c 4.42818,5.15293 9.34218,6.79359 16.75698,9.47757 17.48174,6.33962 37.57579,6.14051 53.50448,-4.17332 5.87768,-3.80695 9.62093,-6.37147 9.46164,-13.38806 q -0.1115,-4.74675 0.0876,-11.349186 0.13539,-4.47597 -3.19371,-7.34313 c -3.64767,-6.371477 -11.61201,-9.732431 -18.44542,-11.285478 -20.18165,-4.587463 -41.2792,-3.735278 -57.62204,10.441258 -8.98378,7.79709 -8.76078,19.504676 -0.54954,27.620346 z M 337.78246,82.412711 q 5.17683,6.451123 13.29249,8.211243 c 4.98568,1.07518 3.08221,-4.021997 0.62919,-5.575045 q -4.5795,-6.56262 -12.33677,-8.784673 -4.54764,-1.298188 -4.02996,2.962737 a 1.4096892,1.1946518 24.8 0 0 0.32654,0.700862 z m -103.2896,39.949149 q 9.19086,8.85636 21.19313,11.81113 5.76618,1.41765 15.28358,1.4734 c 14.55882,0.0876 27.38938,-1.67251 39.37572,-10.61647 3.64767,-2.71584 5.14497,-6.28387 0.74069,-9.31828 q -0.78847,-2.4132 -2.86717,-3.13796 c -18.23039,-6.30776 -33.24318,12.94206 -50.18334,4.32464 -0.12743,-11.89873 13.34028,-15.96851 22.88156,-17.346336 q 9.07139,-1.31412 17.80828,-4.1096 c 3.75917,-1.20262 1.99905,-5.08126 -0.38229,-6.4113 q -2.47691,-3.91846 -6.40333,-5.829903 -2.96274,-1.433582 -8.17938,-1.417653 -26.59295,0.1115 -48.35951,15.458796 c -3.18574,2.24594 -6.25998,3.775096 -6.97677,7.916556 q -1.7203,9.89968 6.06883,17.20298 z m -71.89414,11.24566 q 1.28226,2.46098 3.46449,3.86271 c 9.18289,5.88565 18.38967,3.42467 23.43907,-6.10866 q 0.83625,-1.5849 0.84422,-3.72731 0.0239,-10.51294 1.04333,-19.88697 0.62122,-5.75822 -2.93885,-9.676676 -1.65658,-2.76363 -2.98663,-3.31317 c -10.6324,-4.38039 -24.87265,-2.91495 -25.01601,11.763336 -0.0478,5.55911 -0.58936,11.56423 -1.31411,19.74361 q -0.41415,4.65118 3.46449,7.34313 z m 278.87156,-29.05393 q 4.27685,5.62283 11.28547,4.46003 c 1.56102,-0.25486 2.94681,-1.11501 5.03347,-0.81236 4.11757,0.58936 3.96624,-4.06182 0.40618,-4.26889 q 0.65308,-1.71234 -0.74865,-2.40523 -8.56963,-4.244996 -17.72067,-1.36191 -1.68047,0.53361 -0.60529,1.75216 z m -108.71332,5.81397 q -1.76012,2.81938 1.43358,3.20167 7.7971,0.95572 15.92869,-0.46194 1.64862,-0.28671 1.1628,-1.89551 -0.82829,-2.71584 -2.24595,-2.26984 c -1.35394,-6.59448 -12.59959,-4.1096 -16.97998,-2.65213 -3.06628,1.02741 -4.06182,3.93439 0.70086,4.07775 z m 100.37465,16.49416 q 4.72285,5.82194 12.05802,7.61391 c 1.18668,0.28672 2.66805,1.23448 3.49634,-0.31857 0.99555,-1.87959 -0.67697,-4.245 -2.20612,-5.30425 q -4.47596,-6.49891 -12.37659,-8.76078 c -3.76714,-1.08316 -4.96976,1.59286 -3.09017,4.31667 q 0.9159,1.32208 2.11852,2.45302 z m -83.0522,7.79709 c -0.5575,1.87959 0.30265,3.19371 2.35745,3.09017 q 4.93789,-0.23893 8.50592,-3.80696 c 2.21409,-2.21409 7.82099,-7.37498 2.07869,-8.50592 0.48583,-6.94491 -10.88726,0.79644 -12.54384,2.22205 -1.51323,1.29819 -6.06883,7.5741 -0.39822,7.00066 z m 63.11744,11.15009 q 1.08315,3.36095 4.40428,3.11406 1.61676,-0.12743 1.76809,-1.73623 0.66104,-7.27941 -4.31668,-12.61552 -1.74419,-2.76363 -4.30074,-4.88215 -1.54509,-1.26633 -2.5486,0.46193 c -2.57248,4.43614 1.72827,12.55978 4.99365,15.65791 z m -33.45025,-0.39822 c -0.27875,3.71935 2.03091,3.76714 4.34853,2.14241 3.81492,-2.67602 5.01754,-6.97677 5.35204,-11.51644 0.12743,-1.8318 -0.97961,-2.60435 -2.69991,-2.26984 q 0.669,-5.2724 -3.56803,-2.0787 -4.37242,3.30521 -5.4715,9.14307 c -0.43008,2.29373 -1.32209,4.77064 2.03887,4.5795 z"
     id="path162"
     style="stroke-width:0.796435" />
  <path
     fill="#f2d50f"
     d="m 180.23974,45.991759 c 6.97677,1.178723 14.26415,5.782115 11.71556,14.168571 l -1.0513,2.875128 -6.49094,5.583006 a 1.7123343,3.3928112 4.3 0 0 -0.86015,1.425618 l -1.68844,4.977716 a 1.0035075,1.0911153 21.3 0 0 0.50972,1.314117 q 1.46544,0.653077 0.54157,1.664548 a 1.2981883,0.79643455 4.5 0 1 -0.67697,0.342467 q -1.30615,0.254859 -1.95126,1.122973 a 0.93182842,0.92386408 26.3 0 0 0.49379,1.449511 q 3.26538,0.907935 1.08315,3.201667 a 0.74864848,0.66104068 25.3 0 1 -0.66104,0.191144 l -1.50526,-0.302645 q -1.56898,-0.310609 -1.2504,1.361903 c 0.57343,3.082201 0.28671,3.257421 -2.45302,2.540626 q -2.82735,-0.740684 -1.2743,-3.918458 0.39822,-0.804399 -0.49379,-0.684933 c -2.1663,0.286716 -4.30074,-1.091116 -3.6636,-3.40874 0.57344,-2.078694 5.59894,-1.003508 3.76714,-3.886601 q -0.34247,-0.541575 -1.50526,-1.162794 c -2.71584,-1.457476 -2.1663,-3.974209 -3.71935,-6.076796 q -0.58936,-0.796435 -2.39727,-1.505261 -5.20072,-2.030908 -6.61041,-7.701522 l 0.19911,-2.787521 c 1.79994,-7.080303 10.75983,-10.449222 17.1552,-10.783724 z m 3.43264,6.156439 c -4.39632,-2.691949 -16.60566,-3.822886 -17.27467,4.221103 q -0.32654,3.878636 2.77159,6.08476 3.89457,2.771592 6.84138,6.522799 1.91144,2.429125 4.04588,0.191144 c 3.53617,-3.70342 10.70408,-12.687202 3.61582,-17.019806 z"
     id="path164"
     style="stroke-width:0.796435" />
  <path
     fill="#f2d50f"
     d="m 198.31084,49.026174 c -5.79804,5.137003 -7.5263,-1.377831 -2.34948,-2.158337 q 0.36636,-0.05575 0.71679,-0.302645 1.11501,-0.764577 1.91145,0.509718 a 1.5132256,1.52119 53 0 1 -0.27876,1.951264 z"
     id="path166"
     style="stroke-width:0.796435" />
  <path
     fill="#f2d50f"
     d="m 157.54136,56.608231 q 0.53361,1.059258 -0.16725,1.959229 -0.78847,0.36636 -1.62473,-0.03186 l -3.04238,-2.891057 -0.94776,-2.508769 a 1.1150084,0.42211031 62 0 1 -0.0956,-0.73272 q 0.2469,-0.700862 0.92387,-1.043329 a 1.0672223,0.6291833 30.5 0 1 0.74068,0 l 2.57248,0.884042 q 1.56102,0.541576 1.19466,2.588412 -0.19115,1.027401 0.446,1.776049 z"
     id="path168"
     style="stroke-width:0.796435" />
  <path
     fill="#2ea3c0"
     d="m 157.54136,56.608231 2.75566,0.167252 -0.19911,2.787521 q -1.59287,0.103536 -2.7238,-0.995544 0.70086,-0.899971 0.16725,-1.959229 z"
     id="path170"
     style="stroke-width:0.796435" />
  <path
     fill="#f2d50f"
     d="m 416.61355,59.961221 q -2.84327,8.012131 -10.78372,10.982832 c -6.9927,-0.127429 2.31762,-10.727973 4.02996,-12.129698 1.99905,-1.624726 6.90509,-3.687492 6.75376,1.146866 z"
     id="path172"
     style="stroke-width:0.796435" />
  <path
     fill="#f2d50f"
     d="m 378.24134,64.867258 q 0.94775,2.628234 0.9159,4.683035 -0.0239,1.752156 -1.58491,1.162794 l -3.68749,-1.369867 q -4.96179,-4.372426 -5.91751,-11.19787 a 0.78847021,0.78847021 0 0 1 0.99554,-0.868114 q 6.0768,1.728263 9.27847,7.590022 z"
     id="path174"
     style="stroke-width:0.796435" />
  <path
     fill="#e71701"
     d="m 416.61355,59.961221 q 1.56898,-0.207073 2.26984,1.457475 0.62919,1.489333 -0.0637,2.954772 -2.96274,6.275905 -8.6891,9.12714 c -2.54859,1.274296 -4.42818,0.653077 -4.30075,-2.556555 q 7.94045,-2.970701 10.78372,-10.982832 z"
     id="path176"
     style="stroke-width:0.796435" />
  <path
     fill="#f2d50f"
     d="m 121.93277,77.482781 c 1.42562,5.160896 2.61231,14.128753 -1.57694,17.967563 q -13.03763,11.946516 -31.307842,10.504966 -4.117567,-0.32654 -4.213139,2.56452 -0.03982,0.94776 1.122973,3.78307 C 93.04609,129.66517 74.951097,130.80407 64.80452,125.45203 56.696817,118.03722 56.77646,107.98622 53.821688,98.341404 q -1.927372,-6.28387 -5.543185,-13.738498 c -2.174266,-4.50782 3.392812,-5.583006 6.339619,-5.925473 q 1.656584,-0.191144 1.799943,-1.863657 c 0.557504,-6.602442 4.714892,-9.36607 11.062475,-10.544793 16.661411,-3.098131 32.7255,-2.158338 47.99315,5.495398 q 3.9981,1.999051 6.45908,5.7184 z M 79.020877,89.365584 c 4.237032,5.24054 13.563281,0.6929 17.808277,-2.707877 q 1.688441,-1.353939 0.812363,-2.899022 -2.851236,-4.029959 -7.430734,-5.479469 c -3.058309,-0.971651 -14.742004,0.653076 -14.280072,5.551148 q 0.31061,3.297239 3.090166,5.53522 z"
     id="path178"
     style="stroke-width:0.796435" />
  <path
     fill="#e71701"
     d="m 373.88484,69.34322 3.68749,1.369867 q 1.56101,0.589362 1.58491,-1.162794 0.0319,-2.054801 -0.9159,-4.683035 3.15388,2.652127 3.5282,7.279412 0.17522,2.070729 -1.86365,1.664548 -3.84678,-0.756613 -6.02105,-4.467998 z"
     id="path180"
     style="stroke-width:0.796435" />
  <path
     fill="#f2d50f"
     d="m 447.49132,72.712138 q -5.41575,6.921016 -14.09689,8.370527 -1.55305,-0.621219 -2.20612,-1.696405 -0.87608,-1.433583 0.50175,-2.397268 6.76969,-4.74675 14.58272,-7.159947 a 0.95572146,1.107044 52.2 0 1 0.74068,0.03982 q 1.92737,0.876078 0.47786,2.843271 z"
     id="path182"
     style="stroke-width:0.796435" />
  <path
     fill="#e71701"
     d="m 447.49132,72.712138 q 0.95572,0.541576 1.75216,0.469896 a 0.45396769,1.3459744 76.8 0 1 0.76457,0.07168 c 4.20518,2.158337 -8.84838,9.676679 -10.274,10.258077 q -5.20072,2.118515 -6.33962,-2.429126 8.68114,-1.449511 14.09689,-8.370527 z"
     id="path184"
     style="stroke-width:0.796435" />
  <path
     fill="#f2d50f"
     d="m 433.69707,89.254084 c 1.0513,4.914 0.39026,9.90765 0.63715,14.909246 q 0.3345,6.60245 -4.78657,10.56869 c -21.9577,16.97999 -49.39487,14.11282 -72.46758,1.29819 -8.21124,-8.11567 -8.43424,-19.823256 0.54954,-27.620346 16.34284,-14.176536 37.44039,-15.028721 57.62204,-10.441258 6.83341,1.553047 14.79775,4.914001 18.44542,11.285478 z m -38.85007,3.36095 q -0.0478,0.81237 -0.59733,1.39376 -3.03441,2.16631 -6.73783,1.42562 -2.71585,-0.94776 -3.01849,-3.81492 c 0.0637,-3.02645 -2.30966,-3.09813 -4.34853,-1.9433 -5.93344,3.38485 -15.1004,11.946516 -7.04049,18.461346 4.61932,4.94586 13.38807,5.88565 19.1224,6.51484 q 8.99174,0.99554 17.20298,-2.79549 1.7203,-0.223 3.16981,-1.35394 c 5.51929,-2.71584 7.15995,-8.59353 7.93249,-14.335816 q -4.11757,-3.16184 -8.80856,-5.34407 -2.60435,-1.21855 -5.11311,0.28671 a 0.66900502,0.67696937 49.8 0 0 -0.0956,1.09112 c 5.61487,4.83436 -3.03441,3.57599 -4.46799,3.23352 q -3.34503,-0.892 -3.61582,-4.41225 l 0.70883,-1.91144 A 0.86014932,0.78050586 13.4 0 0 398.415,88.051467 q -5.00957,-0.637147 -8.26699,2.811417 c -1.4734,1.55304 0.43804,1.23447 1.06723,0.87608 q 2.23798,-1.29023 3.63174,0.87607 z"
     id="path186"
     style="stroke-width:0.796435" />
  <path
     fill="#f2d50f"
     d="m 351.70414,85.048909 c -0.65308,5.965295 -11.52441,-0.884042 -13.92168,-2.636198 l -2.11851,-2.484876 a 1.4096892,1.1946518 24.8 0 1 -0.32654,-0.700862 q -0.51768,-4.260925 4.02996,-2.962737 7.75727,2.222053 12.33677,8.784673 z"
     id="path188"
     style="stroke-width:0.796435" />
  <path
     fill="#e71701"
     d="m 121.93277,77.482781 c 3.16981,2.373375 3.54413,6.936945 3.75121,10.536829 0.27875,4.762674 0.16725,7.828954 -3.33706,11.014694 q -11.78724,10.712036 -27.915034,9.931526 -3.058309,-0.15132 -5.949366,0.8283 -1.696406,0.57343 -1.178724,2.29373 c 1.28226,4.2211 4.229068,9.1351 2.413197,13.77832 -2.381339,6.07679 -11.580158,5.92547 -16.741054,4.8901 Q 67.7354,129.71295 64.80452,125.45203 c 10.146577,5.35204 28.24157,4.21314 21.153302,-13.14913 q -1.162794,-2.83531 -1.122973,-3.78307 0.09557,-2.89106 4.213139,-2.56452 18.270212,1.44155 31.307842,-10.504966 c 4.18925,-3.83881 3.00256,-12.806667 1.57694,-17.967563 z"
     id="path190"
     style="stroke-width:0.796435" />
  <path
     fill="#e71701"
     d="m 97.641517,83.758685 q -4.069781,-2.73177 -8.728923,-2.500804 c -2.285767,0.111501 -4.866215,1.107044 -7.223661,1.839764 q -4.738786,1.465439 -2.668056,6.267939 -2.779556,-2.237981 -3.090166,-5.53522 c -0.461932,-4.898072 11.221763,-6.522799 14.280072,-5.551148 q 4.579498,1.44951 7.430734,5.479469 z"
     id="path192"
     style="stroke-width:0.796435" />
  <path
     fill="#5f50a1"
     d="m 97.641517,83.758685 q 0.876078,1.545083 -0.812363,2.899022 c -4.244996,3.400777 -13.571245,7.948417 -17.808277,2.707877 q -2.07073,-4.8025 2.668056,-6.267939 c 2.357446,-0.73272 4.937894,-1.728263 7.223661,-1.839764 q 4.659142,-0.230966 8.728923,2.500804 z"
     id="path194"
     style="stroke-width:0.796435" />
  <path
     fill="#f2d50f"
     d="m 298.34302,89.031084 q 0.27875,2.2778 -1.4734,2.93884 c -11.07044,4.15739 -24.57797,3.72732 -35.34577,10.345686 -4.88214,3.00255 -8.74485,9.73243 -3.48838,14.58271 16.94016,8.61742 31.95295,-10.6324 50.18334,-4.32464 q 2.0787,0.72476 2.86717,3.13796 c 0.27875,4.69099 -2.26984,5.71043 -6.37945,8.29088 -11.91466,7.49445 -22.91342,8.16345 -36.85899,8.43424 q -18.42949,0.3584 -33.35468,-10.0749 -7.78913,-7.3033 -6.06883,-17.20298 c 0.71679,-4.14146 3.79103,-5.670616 6.97677,-7.916556 q 21.76656,-15.347296 48.35951,-15.458796 5.21664,-0.01593 8.17938,1.417653 3.92642,1.911443 6.40333,5.829903 z"
     id="path196"
     style="stroke-width:0.796435" />
  <path
     fill="#e71701"
     d="m 337.78246,82.412711 c 2.39727,1.752156 13.2686,8.601493 13.92168,2.636198 2.45302,1.553048 4.35649,6.650225 -0.62919,5.575045 q -8.11566,-1.76012 -13.29249,-8.211243 z"
     id="path198"
     style="stroke-width:0.796435" />
  <path
     fill="#e71701"
     d="m 398.43095,91.022164 c -1.03536,0.26283 -3.63174,0.19115 -3.58395,1.59287 q -1.39376,-2.1663 -3.63174,-0.87607 c -0.62919,0.35839 -2.54063,0.67696 -1.06723,-0.87608 q 3.25742,-3.448564 8.26699,-2.811417 a 0.86014932,0.78050586 13.4 0 1 0.72476,1.059257 z"
     id="path200"
     style="stroke-width:0.796435" />
  <path
     fill="#e71701"
     d="m 298.34302,89.031084 c 2.38134,1.33004 4.14146,5.20868 0.38229,6.4113 q -8.73689,2.79548 -17.80828,4.1096 c -9.54128,1.377826 -23.00899,5.447606 -22.88156,17.346336 -5.25647,-4.85028 -1.39376,-11.58016 3.48838,-14.58271 10.7678,-6.618366 24.27533,-6.188296 35.34577,-10.345686 q 1.75215,-0.66104 1.4734,-2.93884 z"
     id="path202"
     style="stroke-width:0.796435" />
  <path
     fill="#e71701"
     d="m 384.49335,91.619494 q -4.30871,2.54859 -8.68114,6.81748 -4.31667,4.221096 -2.70788,9.700566 c -8.05991,-6.51483 1.10705,-15.076496 7.04049,-18.461346 2.03887,-1.15483 4.41224,-1.08315 4.34853,1.9433 z"
     id="path204"
     style="stroke-width:0.796435" />
  <path
     fill="#e71701"
     d="m 357.08007,116.03021 c 23.07271,12.81463 50.50988,15.6818 72.46758,-1.29819 q 5.12107,-3.96624 4.78657,-10.56869 c -0.24689,-5.001596 0.41415,-9.995246 -0.63715,-14.909246 q 3.3291,2.86716 3.19371,7.34313 -0.19911,6.602436 -0.0876,11.349186 c 0.15929,7.01659 -3.58396,9.58111 -9.46164,13.38806 -15.92869,10.31383 -36.02274,10.51294 -53.50448,4.17332 -7.4148,-2.68398 -12.3288,-4.32464 -16.75698,-9.47757 z"
     id="path206"
     style="stroke-width:0.796435" />
  <path
     fill="#e71701"
     d="m 420.53201,96.167134 q -0.30264,0.52565 -0.50972,0.68494 c -0.23096,0.18318 -7.04844,-4.022 -9.73243,-3.13796 q -1.9433,0.64512 -0.53361,2.12648 c 5.01754,5.272396 -9.79614,3.46449 -7.70948,-0.40618 1.43358,0.34247 10.08286,1.60084 4.46799,-3.23352 a 0.66900502,0.67696937 49.8 0 1 0.0956,-1.09112 q 2.50876,-1.50526 5.11311,-0.28671 4.69099,2.18223 8.80856,5.34407 z"
     id="path208"
     style="stroke-width:0.796435" />
  <path
     fill="#5f50a1"
     d="m 398.43095,91.022164 q 0.27079,3.52025 3.61582,4.41225 c -2.08666,3.87067 12.72702,5.678576 7.70948,0.40618 q -1.40969,-1.48136 0.53361,-2.12648 c 2.68399,-0.88404 9.50147,3.32114 9.73243,3.13796 q 0.20708,-0.15929 0.50972,-0.68494 c -0.77254,5.742286 -2.4132,11.619976 -7.93249,14.335816 q 0.64512,-3.16981 -2.56452,-2.71584 0.54158,-2.20612 -0.669,-3.03441 a 0.83625628,1.1946518 65.8 0 0 -0.74068,-0.14336 q -12.83057,1.51322 -27.22214,-2.12648 a 2.5645193,2.5326619 44 0 0 -1.31411,0.0159 c -2.58045,0.74864 1.25836,3.31316 1.87958,3.65563 -1.10704,3.45653 10.4094,5.61486 12.51199,5.71044 q 7.44666,0.35839 14.94907,-0.008 -8.21124,3.79103 -17.20298,2.79549 c -5.73433,-0.62919 -14.50308,-1.56898 -19.1224,-6.51484 q -1.60879,-5.47947 2.70788,-9.700566 4.37243,-4.26889 8.68114,-6.81748 0.30264,2.86716 3.01849,3.81492 c 0.27078,4.43614 7.74134,4.02996 9.49349,1.36987 1.94331,-2.96274 -3.04238,-1.11501 -2.75566,-2.79549 q 0.54954,-0.58139 0.59733,-1.39376 c -0.0478,-1.40172 2.54859,-1.33004 3.58395,-1.59287 z"
     id="path210"
     style="stroke-width:0.796435" />
  <path
     fill="#f2d50f"
     d="m 188.45098,98.070614 c 0.56547,8.633346 -0.86811,17.067586 -0.70086,25.939866 q 0.0478,2.28577 -0.74865,3.94235 c -4.8025,10.03508 -15.58622,12.57571 -24.40275,5.65469 q -3.87864,-2.69195 -3.46449,-7.34313 c 0.72475,-8.17938 1.26633,-14.1845 1.31411,-19.74361 0.14336,-14.678286 14.38361,-16.143726 25.01601,-11.763336 q 1.33005,0.54954 2.98663,3.31317 z"
     id="path212"
     style="stroke-width:0.796435" />
  <path
     fill="#e71701"
     d="m 394.24967,94.008794 c -0.28672,1.68048 4.69897,-0.16725 2.75566,2.79549 -1.75215,2.66009 -9.22271,3.06627 -9.49349,-1.36987 q 3.70342,0.74069 6.73783,-1.42562 z"
     id="path214"
     style="stroke-width:0.796435" />
  <path
     fill="#e71701"
     d="m 188.45098,98.070614 q 3.56007,3.918456 2.93885,9.676676 -1.01944,9.37403 -1.04333,19.88697 -0.008,2.14241 -0.84422,3.72731 c -5.0494,9.53333 -14.25618,11.99431 -23.43907,6.10866 q -2.18223,-1.40173 -3.46449,-3.86271 c 8.81653,6.92102 19.60025,4.38039 24.40275,-5.65469 q 0.79644,-1.65658 0.74865,-3.94235 c -0.16725,-8.87228 1.26633,-17.30652 0.70086,-25.939866 z"
     id="path216"
     style="stroke-width:0.796435" />
  <path
     fill="#f2d50f"
     d="m 458.1954,103.93237 q -1.87958,1.52915 -4.24499,0.97961 a 1.33801,1.1548301 37.6 0 0 -0.74865,0.0398 q -5.67062,2.09463 -11.73148,-0.39821 l -2.34949,-2.6362 q -1.07518,-1.21855 0.60529,-1.75216 9.15104,-2.883086 17.72067,1.36191 1.40173,0.69289 0.74865,2.40523 z"
     id="path218"
     style="stroke-width:0.796435" />
  <path
     fill="#f2d50f"
     d="m 410.035,107.78711 q -6.39537,1.41766 -13.76238,1.35394 -7.67763,-0.0637 -14.30397,-2.98663 c -0.62122,-0.34247 -4.46003,-2.90699 -1.87958,-3.65563 a 2.5645193,2.5326619 44 0 1 1.31411,-0.0159 q 14.39157,3.6397 27.22214,2.12648 a 0.83625628,1.1946518 65.8 0 1 0.74068,0.14336 q 1.21058,0.82829 0.669,3.03441 z"
     id="path220"
     style="stroke-width:0.796435" />
  <path
     fill="#e71701"
     d="m 458.1954,103.93237 c 3.56006,0.20707 3.71139,4.85825 -0.40618,4.26889 -2.08666,-0.30265 -3.47245,0.5575 -5.03347,0.81236 q -7.00862,1.1628 -11.28547,-4.46003 6.06086,2.49284 11.73148,0.39821 a 1.33801,1.1548301 37.6 0 1 0.74865,-0.0398 q 2.36541,0.54954 4.24499,-0.97961 z"
     id="path222"
     style="stroke-width:0.796435" />
  <path
     fill="#f2d50f"
     d="m 349.03608,108.94194 q -7.92452,2.80345 -16.27912,1.42562 c -4.76268,-0.14336 -3.76714,-3.05034 -0.70086,-4.07775 4.38039,-1.45747 15.62604,-3.94235 16.97998,2.65213 z"
     id="path224"
     style="stroke-width:0.796435" />
  <path
     fill="#e71701"
     d="m 381.96865,106.15442 q 6.62634,2.92292 14.30397,2.98663 7.36701,0.0637 13.76238,-1.35394 3.20964,-0.45397 2.56452,2.71584 -1.44951,1.13094 -3.16981,1.35394 -7.50241,0.36636 -14.94907,0.008 c -2.10259,-0.0956 -13.61903,-2.25391 -12.51199,-5.71044 z"
     id="path226"
     style="stroke-width:0.796435" />
  <path
     fill="#e71701"
     d="m 349.03608,108.94194 q 1.41766,-0.446 2.24595,2.26984 0.48582,1.6088 -1.1628,1.89551 -8.13159,1.41766 -15.92869,0.46194 -3.1937,-0.38229 -1.43358,-3.20167 8.3546,1.37783 16.27912,-1.42562 z"
     id="path228"
     style="stroke-width:0.796435" />
  <path
     fill="#e71701"
     d="m 311.08598,115.71164 c 4.40428,3.03441 2.90698,6.60244 -0.74069,9.31828 -11.98634,8.94396 -24.8169,10.70408 -39.37572,10.61647 q -9.5174,-0.0558 -15.28358,-1.4734 -12.00227,-2.95477 -21.19313,-11.81113 14.92519,10.4333 33.35468,10.0749 c 13.94557,-0.27079 24.94433,-0.93979 36.85899,-8.43424 4.10961,-2.58045 6.6582,-3.59989 6.37945,-8.29088 z"
     id="path230"
     style="stroke-width:0.796435" />
  <path
     fill="#f2d50f"
     d="m 446.47985,128.85281 q 0.18318,1.77604 -1.09908,2.76362 a 0.93182842,0.81236324 29.7 0 1 -0.71679,0.14336 q -6.18033,-1.2504 -11.53237,-4.89807 -1.20262,-1.13094 -2.11852,-2.45302 c -1.87959,-2.72381 -0.67697,-5.39983 3.09017,-4.31667 q 7.90063,2.26187 12.37659,8.76078 z"
     id="path232"
     style="stroke-width:0.796435" />
  <path
     fill="#f2d50f"
     d="m 363.02147,125.4361 c -3.73528,4.76268 -6.97676,8.45017 -12.94206,9.22271 -5.67061,0.57344 -1.11501,-5.70247 0.39822,-7.00066 1.65658,-1.42561 13.02967,-9.16696 12.54384,-2.22205 z"
     id="path234"
     style="stroke-width:0.796435" />
  <path
     fill="#e71701"
     d="m 363.02147,125.4361 c 5.7423,1.13094 0.1354,6.29183 -2.07869,8.50592 q -3.56803,3.56803 -8.50592,3.80696 c -2.0548,0.10354 -2.91495,-1.21058 -2.35745,-3.09017 5.9653,-0.77254 9.20678,-4.46003 12.94206,-9.22271 z"
     id="path236"
     style="stroke-width:0.796435" />
  <path
     fill="#e71701"
     d="m 433.13161,126.86172 q 5.35204,3.64767 11.53237,4.89807 a 0.93182842,0.81236324 29.7 0 0 0.71679,-0.14336 q 1.28226,-0.98758 1.09908,-2.76362 c 1.52915,1.05925 3.20167,3.42466 2.20612,5.30425 -0.82829,1.55305 -2.30966,0.60529 -3.49634,0.31857 q -7.33517,-1.79197 -12.05802,-7.61391 z"
     id="path238"
     style="stroke-width:0.796435" />
  <path
     fill="#f2d50f"
     d="m 415.05254,134.57121 c 1.23448,3.06627 4.54764,12.02616 -1.85569,11.23769 -3.26538,-3.09813 -7.56613,-11.22177 -4.99365,-15.65791 q 1.00351,-1.72826 2.5486,-0.46193 2.55655,2.11852 4.30074,4.88215 z"
     id="path240"
     style="stroke-width:0.796435" />
  <path
     fill="#f2d50f"
     d="m 386.74726,133.76681 q -0.223,7.95638 -7.00066,11.64387 c -3.36096,0.19114 -2.46895,-2.28577 -2.03887,-4.5795 q 1.09908,-5.83786 5.4715,-9.14307 4.23703,-3.1937 3.56803,2.0787 z"
     id="path242"
     style="stroke-width:0.796435" />
  <path
     fill="#e71701"
     d="m 379.7466,145.41068 q 6.77766,-3.68749 7.00066,-11.64387 c 1.7203,-0.33451 2.82734,0.43804 2.69991,2.26984 -0.3345,4.53967 -1.53712,8.84042 -5.35204,11.51644 -2.31762,1.62473 -4.62728,1.57694 -4.34853,-2.14241 z"
     id="path244"
     style="stroke-width:0.796435" />
  <path
     fill="#e71701"
     d="m 415.05254,134.57121 q 4.97772,5.33611 4.31668,12.61552 -0.15133,1.6088 -1.76809,1.73623 -3.32113,0.24689 -4.40428,-3.11406 c 6.40333,0.78847 3.09017,-8.17142 1.85569,-11.23769 z"
     id="path246"
     style="stroke-width:0.796435" />
  <path
     fill="#87b959"
     fill-opacity="0.992"
     d="m 138.6579,162.10395 -6.37148,0.79643 q 2.93088,-2.08666 6.37148,-0.79643 z"
     id="path248"
     style="stroke-width:0.796435" />
</svg>
