<?xml version="1.0" encoding="UTF-8" standalone="no"?>
<!-- Created with Inkscape (http://www.inkscape.org/) -->

<svg
   xmlns:dc="http://purl.org/dc/elements/1.1/"
   xmlns:cc="http://creativecommons.org/ns#"
   xmlns:rdf="http://www.w3.org/1999/02/22-rdf-syntax-ns#"
   xmlns:svg="http://www.w3.org/2000/svg"
   xmlns="http://www.w3.org/2000/svg"
   xmlns:sodipodi="http://sodipodi.sourceforge.net/DTD/sodipodi-0.dtd"
   xmlns:inkscape="http://www.inkscape.org/namespaces/inkscape"
   width="256"
   height="256"
   viewBox="0 0 67.73333 67.733337"
   version="1.1"
   id="svg8"
   sodipodi:docname="cheevos.svg"
   inkscape:version="0.92.5 (2060ec1f9f, 2020-04-08)">
  <defs
     id="defs2" />
  <sodipodi:namedview
     id="base"
     pagecolor="#ffffff"
     bordercolor="#666666"
     borderopacity="1.0"
     inkscape:pageopacity="0.0"
     inkscape:pageshadow="2"
     inkscape:zoom="1.1098262"
     inkscape:cx="-90.619654"
     inkscape:cy="86.968779"
     inkscape:document-units="mm"
     inkscape:current-layer="layer1"
     showgrid="false"
     units="px"
     inkscape:pagecheckerboard="true"
     inkscape:window-width="1366"
     inkscape:window-height="743"
     inkscape:window-x="0"
     inkscape:window-y="0"
     inkscape:window-maximized="1" />
  <metadata
     id="metadata5">
    <rdf:RDF>
      <cc:Work
         rdf:about="">
        <dc:format>image/svg+xml</dc:format>
        <dc:type
           rdf:resource="http://purl.org/dc/dcmitype/StillImage" />
        <dc:title></dc:title>
      </cc:Work>
    </rdf:RDF>
  </metadata>
  <g
     inkscape:label="Layer 1"
     inkscape:groupmode="layer"
     id="layer1"
     transform="translate(0,-229.26666)">
    <path
       style="fill:#ffffff;fill-opacity:1;fill-rule:evenodd;stroke:none;stroke-width:0.99999994px;stroke-linecap:butt;stroke-linejoin:miter;stroke-opacity:1"
       d="M 257.62109 49.951172 C 125.20322 51.252236 48.975366 112.82989 48.642578 255.82227 L 258.25781 257.01953 L 257.62109 49.951172 z M 128.37695 107.03125 L 171.01172 107.03125 L 213.64648 107.03125 L 213.59961 109.14258 C 213.53827 111.81837 213.35085 116.31822 213.25977 117.3125 L 213.19141 118.07227 L 223.23438 118.07227 L 233.27734 118.07227 L 233.27734 123.41992 C 233.27734 128.18772 233.25084 128.93311 233.04883 130.32031 C 231.13813 143.41959 226.62567 154.84817 219.75391 163.98828 C 218.02181 166.29202 216.92125 167.5596 214.85742 169.63086 C 209.91425 174.59175 204.7805 177.9131 198.91211 179.94531 C 197.07845 180.57993 194.34166 181.25167 192.73633 181.46094 C 192.19654 181.53161 192.0845 181.59895 191.55469 182.16992 C 190.08287 183.754 189.09492 184.74137 188.23633 185.48828 C 187.72521 185.93415 187.30676 186.33252 187.30664 186.375 C 187.30643 186.42224 187.47054 186.46875 187.67188 186.49219 L 188.03906 186.52734 L 188.03906 190.75195 L 188.03906 194.97656 L 183.78516 195.01172 L 179.53125 195.04492 L 179.53125 205.74609 L 179.53125 216.44727 L 183.78516 216.48242 L 188.03906 216.51562 L 188.06836 220.82617 L 188.09766 225.13477 L 192.32031 225.13477 L 196.54492 225.13477 L 196.54492 233.69922 L 196.54492 242.26172 L 170.96875 242.26172 L 145.39258 242.26172 L 145.39062 233.67578 L 145.39062 225.11133 L 149.66992 225.11133 L 153.95117 225.11133 L 153.98047 220.80273 L 154.00977 216.49219 L 158.26367 216.45898 L 162.51562 216.42383 L 162.51562 205.72266 L 162.51562 195.01953 L 158.23438 195.01953 L 153.95312 195.01953 L 153.95312 190.73828 L 153.95312 186.45703 L 154.34375 186.45703 C 154.72688 186.45703 154.68532 186.40851 152.28906 184.02344 L 149.83984 181.5918 L 148.72852 181.42578 C 142.12341 180.44787 135.72532 177.4867 130.00195 172.76172 C 128.16175 171.2425 125.0477 168.13078 123.5293 166.29688 C 113.73189 154.46363 108.14971 138.43262 107.57227 120.46289 L 107.49609 118.07227 L 118.12305 118.07227 L 128.74805 118.07227 L 128.66797 116.35547 C 128.47688 112.26239 128.3843 109.69987 128.38086 108.41211 L 128.37695 107.03125 z M 116.54492 126.62305 L 116.54492 126.93555 C 116.54492 127.48641 117.19988 131.72786 117.55859 133.50586 C 119.99386 145.57665 125.08203 155.964 132.09375 163.17383 C 135.02954 166.19239 137.79663 168.2989 141.16406 170.08008 C 141.7837 170.40814 142.3254 170.67734 142.36719 170.67969 C 142.40967 170.68109 141.85081 169.50375 141.12695 168.0625 L 141.12695 168.07227 C 136.26478 158.39475 132.72933 146.95203 130.58008 133.94531 C 130.29967 132.24849 129.95126 129.92379 129.80664 128.77734 L 129.54492 126.69141 L 123.04492 126.6582 L 116.54492 126.62305 z M 212.45703 126.63672 L 212.38086 127.2832 C 212.15662 129.21753 211.35655 134.48401 210.96094 136.625 C 208.75833 148.54552 205.44076 158.92787 200.98633 167.8457 C 200.29756 169.22466 199.75541 170.35352 199.78125 170.35352 C 199.80733 170.35352 200.34415 170.06802 200.97461 169.71875 C 207.7844 165.95007 213.83699 159.20365 218.14844 150.57812 C 221.54778 143.77717 223.92943 135.53425 224.87891 127.2832 L 224.95312 126.63672 L 218.70508 126.63672 L 212.45703 126.63672 z "
       transform="matrix(0.26458333,0,0,0.26458333,0,229.26666)"
       id="path991" />
  </g>
</svg>
