<?xml version="1.0" encoding="UTF-8" standalone="no"?>
<!-- Created with Inkscape (http://www.inkscape.org/) -->

<svg
   xmlns:dc="http://purl.org/dc/elements/1.1/"
   xmlns:cc="http://creativecommons.org/ns#"
   xmlns:rdf="http://www.w3.org/1999/02/22-rdf-syntax-ns#"
   xmlns:svg="http://www.w3.org/2000/svg"
   xmlns="http://www.w3.org/2000/svg"
   xmlns:sodipodi="http://sodipodi.sourceforge.net/DTD/sodipodi-0.dtd"
   xmlns:inkscape="http://www.inkscape.org/namespaces/inkscape"
   width="256"
   height="256"
   viewBox="0 0 67.733332 67.733335"
   version="1.1"
   id="svg8"
   sodipodi:docname="cheevos.svg"
   inkscape:version="0.92.5 (2060ec1f9f, 2020-04-08)">
  <defs
     id="defs2" />
  <sodipodi:namedview
     id="base"
     pagecolor="#ffffff"
     bordercolor="#666666"
     borderopacity="1.0"
     inkscape:pageopacity="0.0"
     inkscape:pageshadow="2"
     inkscape:zoom="1.2396745"
     inkscape:cx="78.015121"
     inkscape:cy="143.25475"
     inkscape:document-units="mm"
     inkscape:current-layer="layer1"
     showgrid="false"
     units="px"
     inkscape:pagecheckerboard="true"
     inkscape:window-width="1366"
     inkscape:window-height="743"
     inkscape:window-x="0"
     inkscape:window-y="0"
     inkscape:window-maximized="1" />
  <metadata
     id="metadata5">
    <rdf:RDF>
      <cc:Work
         rdf:about="">
        <dc:format>image/svg+xml</dc:format>
        <dc:type
           rdf:resource="http://purl.org/dc/dcmitype/StillImage" />
        <dc:title></dc:title>
      </cc:Work>
    </rdf:RDF>
  </metadata>
  <g
     inkscape:label="Layer 1"
     inkscape:groupmode="layer"
     id="layer1"
     transform="translate(0,-229.26665)">
    <path
       style="fill:#ffffff;fill-opacity:1;fill-rule:evenodd;stroke:none;stroke-width:1.08812082;stroke-linecap:butt;stroke-linejoin:miter;stroke-miterlimit:4;stroke-dasharray:none;stroke-opacity:1"
       d="m -0.48268104,241.69165 c 3.85820334,0.10814 7.47942524,0.39433 10.87653304,0.8501 33.843461,4.5405 45.384077,25.86741 46.148661,54.72187 l -56.64313987,0.27268 z m 32.66103004,18.93068 -10.067106,0.1 -10.066589,0.1 0.01632,0.49854 c 0.02071,0.63166 0.07489,1.69365 0.09873,1.92819 l 0.01832,0.17915 -2.3707982,0.0236 -2.371315,0.0236 0.012538,1.26239 c 0.011181,1.12574 0.018429,1.30168 0.06941,1.62875 0.481869,3.08851 1.5746786,5.77633 3.2186631,7.91832 0.414378,0.53991 0.677014,0.83699 1.169181,1.3212 1.178805,1.15976 2.399265,1.93195 3.789664,2.39799 0.434448,0.14562 1.08173,0.29746 1.461273,0.3431 0.127612,0.0153 0.154274,0.0313 0.2807,0.16465 0.351236,0.3706 0.587199,0.60175 0.791678,0.77611 0.121719,0.10377 0.221035,0.19705 0.221178,0.2071 1.51e-4,0.01 -0.03853,0.0222 -0.08603,0.0273 l -0.08622,0.009 0.0099,0.9973 0.0099,0.99782 1.004093,-0.003 1.004608,-0.003 0.0251,2.52685 0.0251,2.52685 -1.004469,0.017 -1.003954,0.017 0.0029,1.01753 0.0034,1.01753 -0.997306,0.01 -0.997305,0.01 0.02008,2.022 0.02008,2.022 6.039126,-0.06 6.039126,-0.06 -0.02008,-2.02148 -0.02008,-2.022 -1.010741,0.01 -1.01074,0.01 -0.01681,-1.0174 -0.01731,-1.01791 -1.004093,0.003 -1.004608,0.003 -0.0251,-2.52685 -0.0251,-2.52737 1.011256,-0.01 1.010743,-0.01 -0.01004,-1.01074 -0.01004,-1.01126 -0.09249,9.2e-4 c -0.09046,9e-4 -0.08021,-0.011 0.480031,-0.57892 l 0.572013,-0.57984 0.26263,-0.0419 c 1.557268,-0.2483 3.060561,-0.96319 4.400873,-2.09227 0.430938,-0.36303 1.159135,-1.10452 1.513357,-1.5411 2.285598,-2.81701 3.565852,-6.61519 3.660054,-10.85949 l 0.01248,-0.56497 -2.508766,0.0249 -2.509282,0.0249 0.01509,-0.40583 c 0.03552,-0.96691 0.05125,-1.57234 0.04907,-1.87644 z m 2.83946,4.60068 7.29e-4,0.0734 c 0.0013,0.13022 -0.142793,1.13347 -0.22332,1.55413 -0.546702,2.85581 -1.723928,5.31972 -3.362612,7.03849 -0.686107,0.71966 -1.335258,1.22418 -2.126197,1.65262 -0.145551,0.0788 -0.272418,0.14349 -0.282287,0.14389 -0.0099,4.2e-4 0.119478,-0.27883 0.286857,-0.62041 1.125245,-2.29633 1.933192,-5.00627 2.410137,-8.08224 0.06223,-0.40133 0.138823,-0.95183 0.17028,-1.22287 l 0.05712,-0.49255 1.534643,-0.0222 z m -22.646592,0.22545 0.01961,0.15278 c 0.05749,0.45619 0.258844,1.69803 0.357275,2.20263 0.548032,2.80949 1.355311,5.25315 2.427996,7.3484 0.165852,0.32396 0.296706,0.58878 0.290599,0.58884 -0.0061,6e-5 -0.133435,-0.0662 -0.28311,-0.14706 -1.616751,-0.8739 -3.061494,-2.45205 -4.099732,-4.4786 -0.818594,-1.59782 -1.4005856,-3.5389 -1.6441218,-5.4849 l -0.019088,-0.15278 1.4752881,-0.0147 z"
       id="path978"
       inkscape:connector-curvature="0" />
  </g>
</svg>
