<?xml version="1.0" encoding="UTF-8" standalone="no"?>
<!-- Created with Inkscape (http://www.inkscape.org/) -->

<svg
   xmlns:dc="http://purl.org/dc/elements/1.1/"
   xmlns:cc="http://creativecommons.org/ns#"
   xmlns:rdf="http://www.w3.org/1999/02/22-rdf-syntax-ns#"
   xmlns:svg="http://www.w3.org/2000/svg"
   xmlns="http://www.w3.org/2000/svg"
   xmlns:xlink="http://www.w3.org/1999/xlink"
   xmlns:sodipodi="http://sodipodi.sourceforge.net/DTD/sodipodi-0.dtd"
   xmlns:inkscape="http://www.inkscape.org/namespaces/inkscape"
   width="500"
   height="200"
   viewBox="0 0 132.29166 52.916668"
   version="1.1"
   id="svg8"
   sodipodi:docname="1970s.svg"
   inkscape:version="0.92.5 (2060ec1f9f, 2020-04-08)">
  <defs
     id="defs2">
    <linearGradient
       inkscape:collect="always"
       id="linearGradient864">
      <stop
         style="stop-color:#a4fcfc;stop-opacity:1;"
         offset="0"
         id="stop860" />
      <stop
         style="stop-color:#a4fcfc;stop-opacity:0;"
         offset="1"
         id="stop862" />
    </linearGradient>
    <linearGradient
       inkscape:collect="always"
       xlink:href="#linearGradient864"
       id="linearGradient5" />
  </defs>
  <sodipodi:namedview
     id="base"
     pagecolor="#ffffff"
     bordercolor="#666666"
     borderopacity="1.0"
     inkscape:pageopacity="0.0"
     inkscape:pageshadow="2"
     inkscape:zoom="1.4690673"
     inkscape:cx="522.2805"
     inkscape:cy="67.211801"
     inkscape:document-units="mm"
     inkscape:current-layer="layer1"
     showgrid="false"
     units="px"
     inkscape:pagecheckerboard="true"
     inkscape:window-width="1366"
     inkscape:window-height="739"
     inkscape:window-x="0"
     inkscape:window-y="0"
     inkscape:window-maximized="1" />
  <metadata
     id="metadata5">
    <rdf:RDF>
      <cc:Work
         rdf:about="">
        <dc:format>image/svg+xml</dc:format>
        <dc:type
           rdf:resource="http://purl.org/dc/dcmitype/StillImage" />
        <dc:title></dc:title>
      </cc:Work>
    </rdf:RDF>
  </metadata>
  <g
     inkscape:label="Layer 1"
     inkscape:groupmode="layer"
     id="layer1"
     transform="translate(0,-244.08332)">
    <g
       transform="matrix(0.26458333,0,0,0.26458333,0,244.08332)"
       style="font-style:normal;font-weight:normal;font-size:40px;line-height:125%;font-family:sans-serif;letter-spacing:0px;word-spacing:0px;fill:#ffffff;fill-opacity:1;stroke:none;stroke-width:1px;stroke-linecap:butt;stroke-linejoin:miter;stroke-opacity:1"
       id="flowRoot18" />
    <g
       aria-label="games"
       transform="matrix(0.55151646,0,0,0.55151646,51.430742,192.55501)"
       style="font-style:normal;font-weight:normal;font-size:40px;line-height:125%;font-family:sans-serif;letter-spacing:0px;word-spacing:0px;fill:#ffffff;fill-opacity:1;stroke:none;stroke-width:1px;stroke-linecap:butt;stroke-linejoin:miter;stroke-opacity:1"
       id="flowRoot21">
      <path
         d="m 51.927734,180.21484 v -5 h -5 v 5 z m -10,5 v -25 h 15 v 5 h -10 v 5 h 10 v 15 z"
         style="font-style:normal;font-variant:normal;font-weight:normal;font-stretch:normal;font-family:Bit5x3;-inkscape-font-specification:Bit5x3;fill:#ffffff"
         id="path22" />
      <path
         d="m 61.927734,185.21484 v -20 h 5 v 5 h 5 v -5 h 5 v 20 h -5 v -10 h -5 v 10 z m 5,-20 v -5 h 5 v 5 z"
         style="font-style:normal;font-variant:normal;font-weight:normal;font-stretch:normal;font-family:Bit5x3;-inkscape-font-specification:Bit5x3;fill:#ffffff"
         id="path24" />
      <path
         d="m 81.927734,185.21484 v -25 h 5 v 5 h 5 v -5 h 5 v 25 h -5 v -10 h -5 v 10 z"
         style="font-style:normal;font-variant:normal;font-weight:normal;font-stretch:normal;font-family:Bit5x3;-inkscape-font-specification:Bit5x3;fill:#ffffff"
         id="path26" />
      <path
         d="m 101.92773,185.21484 v -25 h 15 v 5 h -10 v 5 h 5 v 5 h -5 v 5 h 10 v 5 z"
         style="font-style:normal;font-variant:normal;font-weight:normal;font-stretch:normal;font-family:Bit5x3;-inkscape-font-specification:Bit5x3;fill:#ffffff"
         id="path28" />
      <path
         d="m 121.92773,185.21484 v -5 h 10 v 5 z m 10,-5 v -5 h -10 v -10 h 5 v 5 h 10 v 10 z m -5,-15 v -5 h 10 v 5 z"
         style="font-style:normal;font-variant:normal;font-weight:normal;font-stretch:normal;font-family:Bit5x3;-inkscape-font-specification:Bit5x3;fill:#ffffff"
         id="path30" />
    </g>
    <g
       aria-label="1970's"
       transform="matrix(1.1798481,0,0,1.1798481,-45.458626,59.808288)"
       style="font-style:normal;font-weight:normal;font-size:40px;line-height:125%;font-family:sans-serif;letter-spacing:0px;word-spacing:0px;fill:#ffffff;fill-opacity:1;stroke:none;stroke-width:1px;stroke-linecap:butt;stroke-linejoin:miter;stroke-opacity:1"
       id="flowRoot21-2">
      <path
         d="m 41.927734,185.21484 v -5 h 5 v -15 h -5 v -5 h 10 v 20 h 5 v 5 z"
         style="font-style:normal;font-variant:normal;font-weight:normal;font-stretch:normal;font-family:Bit5x3;-inkscape-font-specification:Bit5x3;fill:#ffffff;fill-opacity:1"
         id="path33" />
      <path
         d="m 71.927734,170.21484 v -5 h -5 v 5 z m 0,15 v -10 h -10 v -15 h 15 v 25 z"
         style="font-style:normal;font-variant:normal;font-weight:normal;font-stretch:normal;font-family:Bit5x3;-inkscape-font-specification:Bit5x3;fill:#ffffff;fill-opacity:1"
         id="path35" />
      <path
         d="m 91.927734,185.21484 v -10 h -5 v -5 h 5 v -5 h -10 v -5 h 15 v 25 z"
         style="font-style:normal;font-variant:normal;font-weight:normal;font-stretch:normal;font-family:Bit5x3;-inkscape-font-specification:Bit5x3;fill:#ffffff;fill-opacity:1"
         id="path37" />
      <path
         d="m 111.92773,180.21484 v -15 h -5 v 15 z m -10,5 v -25 h 15 v 25 z"
         style="font-style:normal;font-variant:normal;font-weight:normal;font-stretch:normal;font-family:Bit5x3;-inkscape-font-specification:Bit5x3;fill:#ffffff;fill-opacity:1"
         id="path39" />
      <path
         d="m 121.92773,170.21484 v -10 h 5 v 10 z"
         style="font-style:normal;font-variant:normal;font-weight:normal;font-stretch:normal;font-family:Bit5x3;-inkscape-font-specification:Bit5x3;fill:#ffffff;fill-opacity:1"
         id="path41" />
      <path
         d="m 131.92773,185.21484 v -5 h 10 v 5 z m 10,-5 v -5 h -10 v -10 h 5 v 5 h 10 v 10 z m -5,-15 v -5 h 10 v 5 z"
         style="font-style:normal;font-variant:normal;font-weight:normal;font-stretch:normal;font-family:Bit5x3;-inkscape-font-specification:Bit5x3;fill:#ffffff;fill-opacity:1"
         id="path43" />
    </g>
  </g>
</svg>
