<?xml version="1.0" encoding="UTF-8" standalone="no"?>
<!-- Created with Inkscape (http://www.inkscape.org/) -->

<svg
   xmlns:dc="http://purl.org/dc/elements/1.1/"
   xmlns:cc="http://creativecommons.org/ns#"
   xmlns:rdf="http://www.w3.org/1999/02/22-rdf-syntax-ns#"
   xmlns:svg="http://www.w3.org/2000/svg"
   xmlns="http://www.w3.org/2000/svg"
   xmlns:xlink="http://www.w3.org/1999/xlink"
   xmlns:sodipodi="http://sodipodi.sourceforge.net/DTD/sodipodi-0.dtd"
   xmlns:inkscape="http://www.inkscape.org/namespaces/inkscape"
   width="500"
   height="200"
   viewBox="0 0 132.29166 52.916668"
   version="1.1"
   id="svg8"
   sodipodi:docname="1990s.svg"
   inkscape:version="0.92.5 (2060ec1f9f, 2020-04-08)">
  <defs
     id="defs2">
    <linearGradient
       inkscape:collect="always"
       id="linearGradient998">
      <stop
         style="stop-color:#f4fa00;stop-opacity:1;"
         offset="0"
         id="stop994" />
      <stop
         id="stop1004"
         offset="0.23936377"
         style="stop-color:#ff8200;stop-opacity:1" />
      <stop
         style="stop-color:#fff8ed;stop-opacity:1"
         offset="0.60195041"
         id="stop1006" />
      <stop
         id="stop1002"
         offset="0.75008339"
         style="stop-color:#ffb526;stop-opacity:1" />
      <stop
         style="stop-color:#fa9a00;stop-opacity:1"
         offset="1"
         id="stop996" />
    </linearGradient>
    <linearGradient
       inkscape:collect="always"
       xlink:href="#linearGradient998"
       id="linearGradient1000"
       x1="4.3190079"
       y1="245.85268"
       x2="127.92823"
       y2="293.86481"
       gradientUnits="userSpaceOnUse" />
  </defs>
  <sodipodi:namedview
     id="base"
     pagecolor="#ffffff"
     bordercolor="#666666"
     borderopacity="1.0"
     inkscape:pageopacity="0.0"
     inkscape:pageshadow="2"
     inkscape:zoom="1.1291611"
     inkscape:cx="259.17599"
     inkscape:cy="153.82869"
     inkscape:document-units="mm"
     inkscape:current-layer="layer1"
     showgrid="false"
     units="px"
     inkscape:pagecheckerboard="true"
     inkscape:window-width="1366"
     inkscape:window-height="739"
     inkscape:window-x="0"
     inkscape:window-y="0"
     inkscape:window-maximized="1" />
  <metadata
     id="metadata5">
    <rdf:RDF>
      <cc:Work
         rdf:about="">
        <dc:format>image/svg+xml</dc:format>
        <dc:type
           rdf:resource="http://purl.org/dc/dcmitype/StillImage" />
        <dc:title></dc:title>
      </cc:Work>
    </rdf:RDF>
  </metadata>
  <g
     inkscape:label="Layer 1"
     inkscape:groupmode="layer"
     id="layer1"
     transform="translate(0,-244.08332)">
    <flowRoot
       xml:space="preserve"
       id="flowRoot18"
       style="font-style:normal;font-weight:normal;font-size:40px;line-height:125%;font-family:sans-serif;letter-spacing:0px;word-spacing:0px;fill:#000000;fill-opacity:1;stroke:none;stroke-width:1px;stroke-linecap:butt;stroke-linejoin:miter;stroke-opacity:1"
       transform="matrix(0.26458333,0,0,0.26458333,0,244.08332)"><flowRegion
         id="flowRegion20"><rect
           id="rect22"
           width="296.23761"
           height="45.609077"
           x="111.14445"
           y="148.19164" /></flowRegion><flowPara
         id="flowPara24"
         style="-inkscape-font-specification:Bit5x3;font-family:Bit5x3;font-weight:normal;font-style:normal;font-stretch:normal;font-variant:normal">games</flowPara></flowRoot>    <g
       id="g971"
       style="fill-opacity:1;fill:url(#linearGradient1000)">
      <g
         id="flowRoot10"
         style="font-style:normal;font-weight:normal;font-size:40px;line-height:125%;font-family:sans-serif;letter-spacing:0px;word-spacing:0px;fill:url(#linearGradient1000);fill-opacity:1;stroke:#000000;stroke-width:0.76624065;stroke-linecap:butt;stroke-linejoin:miter;stroke-miterlimit:4;stroke-dasharray:none;stroke-opacity:1"
         transform="matrix(1.208552,0,0,1.208552,-15.449787,213.32398)"
         aria-label="1990's">
        <path
           id="path910"
           style="font-style:normal;font-variant:normal;font-weight:normal;font-stretch:normal;font-family:'Metal Slug Latino';-inkscape-font-specification:'Metal Slug Latino';fill:url(#linearGradient1000);stroke:#000000;stroke-width:0.76624065;stroke-miterlimit:4;stroke-dasharray:none;stroke-opacity:1;fill-opacity:1"
           d="m 16.357422,26.915424 q 3.203125,0 9.570312,0 0,7.265625 0,21.796875 0.742188,0 2.226563,0 0,2.34375 0,6.992188 -3.945313,0 -11.796875,0 0,-2.265625 0,-6.835938 0.625,0 1.796875,0 0,-5 0,-14.921875 -0.585938,0 -1.796875,0 0,-1.757812 0,-3.515625 0,-1.757812 0,-3.515625 z" />
        <path
           id="path912"
           style="font-style:normal;font-variant:normal;font-weight:normal;font-stretch:normal;font-family:'Metal Slug Latino';-inkscape-font-specification:'Metal Slug Latino';fill:url(#linearGradient1000);stroke:#000000;stroke-width:0.76624065;stroke-miterlimit:4;stroke-dasharray:none;stroke-opacity:1;fill-opacity:1"
           d="m 37.490234,36.212299 q 0,0.117188 0,0.273438 0,0.07813 0.03906,0.234375 0,0.07813 0.03906,0.195312 0.03906,0.07813 0.117188,0.234375 0.03906,0.07813 0.117187,0.195313 0.07813,0.03906 0.15625,0.15625 0.07813,0.03906 0.195313,0.15625 0.07813,0.03906 0.195312,0.117187 0.07813,0 0.234375,0.07813 1.171875,0 3.476563,0 0.07813,-0.03906 0.234375,-0.07813 0.07813,-0.03906 0.195312,-0.117187 0.07813,-0.03906 0.195313,-0.15625 0.03906,-0.03906 0.15625,-0.15625 0.03906,-0.07813 0.117187,-0.195313 0.03906,-0.07813 0.117188,-0.234375 0.03906,-0.07813 0.07813,-0.195312 0,-0.07813 0.03906,-0.234375 0,-0.07813 0,-0.273438 -0.03906,-0.07813 -0.03906,-0.195312 -0.03906,-0.117188 -0.117188,-0.3125 -0.03906,-0.07813 -0.117187,-0.273438 -0.03906,-0.07813 -0.15625,-0.273437 -0.03906,-0.07813 -0.15625,-0.234375 -0.07813,-0.07813 -0.195313,-0.234375 -0.07813,-0.03906 -0.234375,-0.195313 -0.07813,-0.03906 -0.273437,-0.15625 -0.07813,-0.03906 -0.234375,-0.15625 -0.117188,-0.03906 -0.3125,-0.117187 -0.07813,0 -0.273438,-0.07813 -0.07813,0 -0.3125,-0.03906 -0.07813,0 -0.273437,-0.03906 -0.117188,0 -0.351563,0 -0.07813,0.03906 -0.273437,0.03906 -0.117188,0 -0.3125,0.03906 -0.07813,0.03906 -0.273438,0.07813 -0.117187,0.03906 -0.3125,0.117187 -0.07813,0.03906 -0.234375,0.15625 -0.07813,0.03906 -0.273437,0.15625 -0.07813,0.07813 -0.195313,0.195313 -0.07813,0.07813 -0.234375,0.234375 -0.03906,0.07813 -0.15625,0.234375 -0.07813,0.117187 -0.15625,0.273437 -0.03906,0.07813 -0.117187,0.273438 -0.03906,0.117187 -0.07813,0.3125 -0.03906,0.03906 -0.03906,0.195312 z m 5.625,10.390625 q 0.03906,-0.15625 0.117188,-0.390625 0.03906,-0.15625 0.07813,-0.429687 0,-0.117188 0.03906,-0.390625 0,-0.15625 0,-0.429688 0,-0.117187 0,-0.195312 0,-0.117188 -0.03906,-0.234375 -2.148438,0 -6.484375,0 -0.15625,0 -0.46875,0 -0.15625,-0.03906 -0.507813,-0.07813 -0.15625,0 -0.46875,-0.07813 -0.15625,-0.03906 -0.46875,-0.117188 -0.15625,-0.03906 -0.46875,-0.117187 -0.15625,-0.07813 -0.429687,-0.195313 -0.15625,-0.07813 -0.46875,-0.195312 -0.15625,-0.07813 -0.429688,-0.273438 -0.117187,-0.07813 -0.390625,-0.273437 -0.15625,-0.07813 -0.390625,-0.273438 -0.15625,-0.117187 -0.390625,-0.3125 -0.117187,-0.117187 -0.3125,-0.351562 -0.117187,-0.117188 -0.351562,-0.351563 -0.07813,-0.15625 -0.273438,-0.390625 -0.117187,-0.15625 -0.273437,-0.429687 -0.07813,-0.15625 -0.234375,-0.429688 -0.07813,-0.15625 -0.234375,-0.429687 -0.03906,-0.15625 -0.15625,-0.46875 -0.07813,-0.15625 -0.15625,-0.429688 -0.03906,-0.15625 -0.117188,-0.507812 0,-1.71875 0,-5.234375 0,-0.15625 0.03906,-0.507813 0.03906,-0.15625 0.117187,-0.46875 0.03906,-0.15625 0.117188,-0.507812 0.07813,-0.15625 0.195312,-0.46875 0.03906,-0.15625 0.195313,-0.46875 0.03906,-0.15625 0.195312,-0.429688 0.117188,-0.15625 0.273438,-0.46875 0.07813,-0.117187 0.273437,-0.390625 0.117188,-0.15625 0.351563,-0.390625 0.07813,-0.15625 0.3125,-0.390625 0.117187,-0.117187 0.351562,-0.351562 0.15625,-0.117188 0.429688,-0.3125 0.117187,-0.117188 0.390625,-0.3125 0.15625,-0.07813 0.429687,-0.273438 0.15625,-0.07813 0.429688,-0.195312 0.15625,-0.07813 0.46875,-0.234375 0.15625,-0.03906 0.46875,-0.15625 0.15625,-0.03906 0.507812,-0.15625 0.15625,-0.03906 0.46875,-0.117188 0.195313,0 0.507813,-0.03906 0.15625,-0.03906 0.507812,-0.03906 2.5,0 7.539063,0 0.15625,0.03906 0.46875,0.07813 0.195312,0.03906 0.507812,0.117188 0.15625,0.07813 0.46875,0.15625 0.15625,0.07813 0.46875,0.195312 0.15625,0.07813 0.46875,0.234375 0.15625,0.07813 0.429688,0.234375 0.15625,0.07813 0.429687,0.273438 0.15625,0.117187 0.429688,0.3125 0.117187,0.07813 0.351562,0.3125 0.15625,0.117187 0.390625,0.351562 0.117188,0.117188 0.351563,0.351563 0.07813,0.117187 0.3125,0.390625 0.07813,0.15625 0.273437,0.429687 0.117188,0.117188 0.273438,0.429688 0.07813,0.117187 0.234375,0.429687 0.07813,0.15625 0.234375,0.46875 0.03906,0.15625 0.15625,0.46875 0.07813,0.15625 0.15625,0.46875 0.03906,0.15625 0.117187,0.507813 0.03906,0.15625 0.117188,0.507812 0,5.117188 0,15.351563 -0.03906,0.15625 -0.07813,0.507812 -0.03906,0.15625 -0.117188,0.507813 -0.03906,0.15625 -0.117187,0.46875 -0.07813,0.15625 -0.195313,0.46875 -0.07813,0.15625 -0.195312,0.507812 -0.07813,0.117188 -0.234375,0.429688 -0.117188,0.15625 -0.273438,0.429687 -0.117187,0.117188 -0.273437,0.429688 -0.117188,0.117187 -0.351563,0.390625 -0.117187,0.117187 -0.351562,0.351562 -0.117188,0.117188 -0.351563,0.351563 -0.117187,0.117187 -0.390625,0.3125 -0.15625,0.117187 -0.429687,0.3125 -0.117188,0.07813 -0.429688,0.273437 -0.15625,0.07813 -0.429687,0.234375 -0.15625,0.07813 -0.46875,0.195313 -0.15625,0.07813 -0.46875,0.195312 -0.195313,0.03906 -0.507813,0.15625 -0.15625,0.03906 -0.507812,0.117188 -0.15625,0 -0.46875,0.07813 -2.539063,0 -7.539063,0 -0.15625,-0.03906 -0.507812,-0.03906 -0.15625,-0.03906 -0.507813,-0.07813 -0.15625,-0.03906 -0.46875,-0.117187 -0.15625,-0.03906 -0.507812,-0.117188 -0.15625,-0.07813 -0.46875,-0.195312 -0.15625,-0.07813 -0.46875,-0.195313 -0.15625,-0.07813 -0.429688,-0.234375 -0.15625,-0.07813 -0.429687,-0.273437 -0.15625,-0.117188 -0.390625,-0.3125 -0.15625,-0.07813 -0.429688,-0.3125 -0.117187,-0.117188 -0.351562,-0.351563 -0.117188,-0.117187 -0.3125,-0.351562 -0.117188,-0.15625 -0.351563,-0.390625 -0.07813,-0.15625 -0.273437,-0.429688 -0.07813,-0.15625 -0.273438,-0.429687 -0.07813,-0.15625 -0.195312,-0.46875 -0.07813,-0.15625 -0.195313,-0.46875 -0.07813,-0.15625 -0.195312,-0.46875 -0.03906,-0.15625 -0.117188,-0.46875 -0.03906,-0.195313 -0.117187,-0.507813 0,-0.15625 -0.03906,-0.507812 0,-0.859375 0,-2.578125 2.460938,0 7.382813,0 0,0.742187 0,2.1875 1.054687,0 3.203125,0 0.117187,0 0.351562,0 0.07813,-0.03906 0.3125,-0.07813 0.117188,-0.03906 0.3125,-0.07813 0.07813,-0.03906 0.3125,-0.15625 0.07813,-0.03906 0.273438,-0.15625 0.07813,-0.07813 0.273437,-0.195313 0.07813,-0.07813 0.195313,-0.195312 0.07813,-0.117188 0.234375,-0.273438 0.07813,-0.07813 0.15625,-0.273437 0.07813,-0.07813 0.15625,-0.273438 0.03906,-0.117187 0.117187,-0.3125 z" />
        <path
           id="path914"
           style="font-style:normal;font-variant:normal;font-weight:normal;font-stretch:normal;font-family:'Metal Slug Latino';-inkscape-font-specification:'Metal Slug Latino';fill:url(#linearGradient1000);stroke:#000000;stroke-width:0.76624065;stroke-miterlimit:4;stroke-dasharray:none;stroke-opacity:1;fill-opacity:1"
           d="m 59.912109,36.212299 q 0,0.117188 0,0.273438 0,0.07813 0.03906,0.234375 0,0.07813 0.03906,0.195312 0.03906,0.07813 0.117188,0.234375 0.03906,0.07813 0.117187,0.195313 0.07813,0.03906 0.15625,0.15625 0.07813,0.03906 0.195313,0.15625 0.07813,0.03906 0.195312,0.117187 0.07813,0 0.234375,0.07813 1.171875,0 3.476563,0 0.07813,-0.03906 0.234375,-0.07813 0.07813,-0.03906 0.195312,-0.117187 0.07813,-0.03906 0.195313,-0.15625 0.03906,-0.03906 0.15625,-0.15625 0.03906,-0.07813 0.117187,-0.195313 0.03906,-0.07813 0.117188,-0.234375 0.03906,-0.07813 0.07813,-0.195312 0,-0.07813 0.03906,-0.234375 0,-0.07813 0,-0.273438 -0.03906,-0.07813 -0.03906,-0.195312 -0.03906,-0.117188 -0.117188,-0.3125 -0.03906,-0.07813 -0.117187,-0.273438 -0.03906,-0.07813 -0.15625,-0.273437 -0.03906,-0.07813 -0.15625,-0.234375 -0.07813,-0.07813 -0.195313,-0.234375 -0.07813,-0.03906 -0.234375,-0.195313 -0.07813,-0.03906 -0.273437,-0.15625 -0.07813,-0.03906 -0.234375,-0.15625 -0.117188,-0.03906 -0.3125,-0.117187 -0.07813,0 -0.273438,-0.07813 -0.07813,0 -0.3125,-0.03906 -0.07813,0 -0.273437,-0.03906 -0.117188,0 -0.351563,0 -0.07813,0.03906 -0.273437,0.03906 -0.117188,0 -0.3125,0.03906 -0.07813,0.03906 -0.273438,0.07813 -0.117187,0.03906 -0.3125,0.117187 -0.07813,0.03906 -0.234375,0.15625 -0.07813,0.03906 -0.273437,0.15625 -0.07813,0.07813 -0.195313,0.195313 -0.07813,0.07813 -0.234375,0.234375 -0.03906,0.07813 -0.15625,0.234375 -0.07813,0.117187 -0.15625,0.273437 -0.03906,0.07813 -0.117187,0.273438 -0.03906,0.117187 -0.07813,0.3125 -0.03906,0.03906 -0.03906,0.195312 z m 5.625,10.390625 q 0.03906,-0.15625 0.117188,-0.390625 0.03906,-0.15625 0.07813,-0.429687 0,-0.117188 0.03906,-0.390625 0,-0.15625 0,-0.429688 0,-0.117187 0,-0.195312 0,-0.117188 -0.03906,-0.234375 -2.148438,0 -6.484375,0 -0.15625,0 -0.46875,0 -0.15625,-0.03906 -0.507813,-0.07813 -0.15625,0 -0.46875,-0.07813 -0.15625,-0.03906 -0.46875,-0.117188 -0.15625,-0.03906 -0.46875,-0.117187 -0.15625,-0.07813 -0.429687,-0.195313 -0.15625,-0.07813 -0.46875,-0.195312 -0.15625,-0.07813 -0.429688,-0.273438 -0.117187,-0.07813 -0.390625,-0.273437 -0.15625,-0.07813 -0.390625,-0.273438 -0.15625,-0.117187 -0.390625,-0.3125 -0.117187,-0.117187 -0.3125,-0.351562 -0.117187,-0.117188 -0.351562,-0.351563 -0.07813,-0.15625 -0.273438,-0.390625 -0.117187,-0.15625 -0.273437,-0.429687 -0.07813,-0.15625 -0.234375,-0.429688 -0.07813,-0.15625 -0.234375,-0.429687 -0.03906,-0.15625 -0.15625,-0.46875 -0.07813,-0.15625 -0.15625,-0.429688 -0.03906,-0.15625 -0.117188,-0.507812 0,-1.71875 0,-5.234375 0,-0.15625 0.03906,-0.507813 0.03906,-0.15625 0.117187,-0.46875 0.03906,-0.15625 0.117188,-0.507812 0.07813,-0.15625 0.195312,-0.46875 0.03906,-0.15625 0.195313,-0.46875 0.03906,-0.15625 0.195312,-0.429688 0.117188,-0.15625 0.273438,-0.46875 0.07813,-0.117187 0.273437,-0.390625 0.117188,-0.15625 0.351563,-0.390625 0.07813,-0.15625 0.3125,-0.390625 0.117187,-0.117187 0.351562,-0.351562 0.15625,-0.117188 0.429688,-0.3125 0.117187,-0.117188 0.390625,-0.3125 0.15625,-0.07813 0.429687,-0.273438 0.15625,-0.07813 0.429688,-0.195312 0.15625,-0.07813 0.46875,-0.234375 0.15625,-0.03906 0.46875,-0.15625 0.15625,-0.03906 0.507812,-0.15625 0.15625,-0.03906 0.46875,-0.117188 0.195313,0 0.507813,-0.03906 0.15625,-0.03906 0.507812,-0.03906 2.5,0 7.539063,0 0.15625,0.03906 0.46875,0.07813 0.195312,0.03906 0.507812,0.117188 0.15625,0.07813 0.46875,0.15625 0.15625,0.07813 0.46875,0.195312 0.15625,0.07813 0.46875,0.234375 0.15625,0.07813 0.429688,0.234375 0.15625,0.07813 0.429687,0.273438 0.15625,0.117187 0.429688,0.3125 0.117187,0.07813 0.351562,0.3125 0.15625,0.117187 0.390625,0.351562 0.117188,0.117188 0.351563,0.351563 0.07813,0.117187 0.3125,0.390625 0.07813,0.15625 0.273437,0.429687 0.117188,0.117188 0.273438,0.429688 0.07813,0.117187 0.234375,0.429687 0.07813,0.15625 0.234375,0.46875 0.03906,0.15625 0.15625,0.46875 0.07813,0.15625 0.15625,0.46875 0.03906,0.15625 0.117187,0.507813 0.03906,0.15625 0.117188,0.507812 0,5.117188 0,15.351563 -0.03906,0.15625 -0.07813,0.507812 -0.03906,0.15625 -0.117188,0.507813 -0.03906,0.15625 -0.117187,0.46875 -0.07813,0.15625 -0.195313,0.46875 -0.07813,0.15625 -0.195312,0.507812 -0.07813,0.117188 -0.234375,0.429688 -0.117188,0.15625 -0.273438,0.429687 -0.117187,0.117188 -0.273437,0.429688 -0.117188,0.117187 -0.351563,0.390625 -0.117187,0.117187 -0.351562,0.351562 -0.117188,0.117188 -0.351563,0.351563 -0.117187,0.117187 -0.390625,0.3125 -0.15625,0.117187 -0.429687,0.3125 -0.117188,0.07813 -0.429688,0.273437 -0.15625,0.07813 -0.429687,0.234375 -0.15625,0.07813 -0.46875,0.195313 -0.15625,0.07813 -0.46875,0.195312 -0.195313,0.03906 -0.507813,0.15625 -0.15625,0.03906 -0.507812,0.117188 -0.15625,0 -0.46875,0.07813 -2.539063,0 -7.539063,0 -0.15625,-0.03906 -0.507812,-0.03906 -0.15625,-0.03906 -0.507813,-0.07813 -0.15625,-0.03906 -0.46875,-0.117187 -0.15625,-0.03906 -0.507812,-0.117188 -0.15625,-0.07813 -0.46875,-0.195312 -0.15625,-0.07813 -0.46875,-0.195313 -0.15625,-0.07813 -0.429688,-0.234375 -0.15625,-0.07813 -0.429687,-0.273437 -0.15625,-0.117188 -0.390625,-0.3125 -0.15625,-0.07813 -0.429688,-0.3125 -0.117187,-0.117188 -0.351562,-0.351563 -0.117188,-0.117187 -0.3125,-0.351562 -0.117188,-0.15625 -0.351563,-0.390625 -0.07813,-0.15625 -0.273437,-0.429688 -0.07813,-0.15625 -0.273438,-0.429687 -0.07813,-0.15625 -0.195312,-0.46875 -0.07813,-0.15625 -0.195313,-0.46875 -0.07813,-0.15625 -0.195312,-0.46875 -0.03906,-0.15625 -0.117188,-0.46875 -0.03906,-0.195313 -0.117187,-0.507813 0,-0.15625 -0.03906,-0.507812 0,-0.859375 0,-2.578125 2.460938,0 7.382813,0 0,0.742187 0,2.1875 1.054687,0 3.203125,0 0.117187,0 0.351562,0 0.07813,-0.03906 0.3125,-0.07813 0.117188,-0.03906 0.3125,-0.07813 0.07813,-0.03906 0.3125,-0.15625 0.07813,-0.03906 0.273438,-0.15625 0.07813,-0.07813 0.273437,-0.195313 0.07813,-0.07813 0.195313,-0.195312 0.07813,-0.117188 0.234375,-0.273438 0.07813,-0.07813 0.15625,-0.273437 0.07813,-0.07813 0.15625,-0.273438 0.03906,-0.117187 0.117187,-0.3125 z" />
        <path
           id="path916"
           style="font-style:normal;font-variant:normal;font-weight:normal;font-stretch:normal;font-family:'Metal Slug Latino';-inkscape-font-specification:'Metal Slug Latino';fill:url(#linearGradient1000);stroke:#000000;stroke-width:0.76624065;stroke-miterlimit:4;stroke-dasharray:none;stroke-opacity:1;fill-opacity:1"
           d="m 89.990234,41.993549 q -1.71875,2.03125 -5.195312,6.054688 -0.03906,0 -0.03906,0.03906 0,0 -0.03906,0.03906 0,0 0,0 0,0 0,0 0,0 0.03906,0.03906 0.03906,0 0.117188,0 0.07813,0.03906 0.234375,0.07813 0.07813,0 0.234375,0.03906 0.07813,0 0.234375,0 0.07813,0.03906 0.234375,0.03906 0.07813,0 0.234375,0 0.07813,0 0.234375,0 0.07813,0 0.234375,0 0.07813,-0.03906 0.273437,-0.03906 0.07813,0 0.234375,-0.03906 0.07813,0 0.234375,-0.03906 0.07813,0 0.234375,-0.03906 0.07813,-0.03906 0.195313,-0.07813 0.07813,-0.03906 0.234375,-0.07813 0.07813,-0.03906 0.195312,-0.07813 0.07813,-0.03906 0.195313,-0.07813 0.07813,-0.03906 0.195312,-0.117187 0.03906,-0.03906 0.15625,-0.07813 0.07813,-0.03906 0.195313,-0.117188 0.03906,-0.07813 0.15625,-0.15625 0.07813,-0.03906 0.15625,-0.117187 0.03906,-0.03906 0.15625,-0.15625 0.03906,-0.03906 0.117187,-0.117188 0.03906,-0.07813 0.117188,-0.15625 0.03906,-0.07813 0.117187,-0.15625 0.03906,-0.07813 0.07813,-0.15625 0.03906,-0.07813 0.07813,-0.15625 0.03906,-0.07813 0.07813,-0.195312 0,-0.03906 0.03906,-0.15625 0,-0.03906 0.03906,-0.15625 0,-0.07813 0,-0.195313 0,0 0,-0.07813 0,0 0,-0.03906 0,0 0,-0.03906 0,-0.898437 0,-1.757812 0,-0.898438 0,-1.757813 z m -7.773437,-2.539062 q 0,0 0,0.07813 0,0 0,0.03906 0,0 0,0 0,0 0.03906,-0.03906 0,0 0.07813,-0.07813 0.07813,-0.117188 0.273438,-0.351563 0.195312,-0.195312 0.585937,-0.664062 0.390625,-0.46875 1.171875,-1.367188 0.78125,-0.898437 2.34375,-2.734375 0.117188,-0.117187 0.3125,-0.3125 0.03906,-0.03906 0.07813,-0.117187 0,0 0.03906,-0.03906 0,0 -0.03906,0 -0.03906,0 -0.117187,0 -0.07813,-0.03906 -0.195313,-0.03906 -0.07813,0 -0.234375,-0.03906 -0.07813,0 -0.234375,0 -0.07813,0 -0.234375,0 -0.07813,0 -0.234375,0 -0.07813,0 -0.234375,0 -0.07813,0.03906 -0.234375,0.03906 -0.07813,0 -0.234375,0.03906 -0.07813,0 -0.234375,0.03906 -0.07813,0.03906 -0.234375,0.07813 -0.07813,0 -0.195312,0.03906 -0.07813,0.03906 -0.195313,0.07813 -0.07813,0.03906 -0.234375,0.117188 -0.03906,0 -0.195312,0.07813 -0.03906,0.03906 -0.15625,0.07813 -0.07813,0.03906 -0.15625,0.117187 -0.07813,0.03906 -0.195313,0.117188 -0.03906,0.03906 -0.15625,0.117187 -0.03906,0.03906 -0.15625,0.117188 -0.03906,0.03906 -0.117187,0.15625 -0.03906,0.03906 -0.15625,0.117187 -0.03906,0.03906 -0.117188,0.15625 0,0.03906 -0.07813,0.15625 -0.03906,0.03906 -0.117187,0.15625 0,0.03906 -0.03906,0.15625 -0.03906,0.03906 -0.07813,0.15625 0,0.03906 -0.03906,0.15625 0,0.07813 -0.03906,0.15625 0,0.07813 0,0.195313 -0.03906,0.03906 -0.03906,0.15625 0,0.703125 0,1.445312 0,0.703125 0,1.445313 z m -0.625,-12.539063 q 3.125,0 9.335937,0 0.15625,0 0.46875,0.03906 0.15625,0 0.46875,0.03906 0.15625,0.03906 0.46875,0.07813 0.15625,0.03906 0.46875,0.15625 0.117188,0.03906 0.429688,0.15625 0.15625,0.03906 0.429687,0.15625 0.15625,0.07813 0.429688,0.234375 0.15625,0.07813 0.429687,0.234375 0.117188,0.07813 0.390625,0.273438 0.117188,0.117187 0.351563,0.3125 0.117187,0.117187 0.351562,0.3125 0.117188,0.117187 0.3125,0.351562 0.117188,0.117188 0.3125,0.390625 0.07813,0.117188 0.273438,0.351563 0.07813,0.15625 0.234375,0.429687 0.07813,0.15625 0.195312,0.429688 0.07813,0.15625 0.195313,0.429687 0.03906,0.15625 0.15625,0.46875 0.03906,0.15625 0.117187,0.46875 0.03906,0.117188 0.07813,0.429688 0,0.15625 0.03906,0.507812 0,0.15625 0.03906,0.46875 0,5.117188 0,15.351563 -0.03906,0.195312 -0.07813,0.507812 -0.03906,0.15625 -0.117187,0.46875 -0.03906,0.195313 -0.117188,0.507813 -0.07813,0.15625 -0.195312,0.46875 -0.07813,0.15625 -0.195313,0.46875 -0.07813,0.15625 -0.234375,0.46875 -0.117187,0.117187 -0.273437,0.429687 -0.117188,0.117188 -0.273438,0.390625 -0.117187,0.15625 -0.351562,0.429688 -0.117188,0.117187 -0.351563,0.351562 -0.117187,0.117188 -0.351562,0.351563 -0.117188,0.117187 -0.390625,0.3125 -0.15625,0.117187 -0.429688,0.3125 -0.117187,0.07813 -0.429687,0.273437 -0.15625,0.07813 -0.429688,0.234375 -0.15625,0.07813 -0.46875,0.195313 -0.15625,0.07813 -0.46875,0.195312 -0.15625,0.03906 -0.507812,0.15625 -0.15625,0.03906 -0.46875,0.07813 -0.195313,0.03906 -0.507813,0.117188 -3.125,0 -9.335937,0 -0.15625,0 -0.507813,-0.03906 -0.15625,-0.03906 -0.507812,-0.07813 -0.15625,-0.03906 -0.46875,-0.117187 -0.15625,-0.03906 -0.507813,-0.117188 -0.15625,-0.07813 -0.429687,-0.195312 -0.15625,-0.03906 -0.46875,-0.195313 -0.15625,-0.07813 -0.46875,-0.234375 -0.117188,-0.07813 -0.390625,-0.273437 -0.15625,-0.117188 -0.429688,-0.3125 -0.117187,-0.07813 -0.390625,-0.3125 -0.117187,-0.117188 -0.351562,-0.351563 -0.117188,-0.117187 -0.3125,-0.351562 -0.117188,-0.15625 -0.3125,-0.390625 -0.117188,-0.15625 -0.3125,-0.429688 -0.07813,-0.15625 -0.234375,-0.429687 -0.07813,-0.15625 -0.195313,-0.429688 -0.07813,-0.15625 -0.195312,-0.46875 -0.07813,-0.15625 -0.15625,-0.507812 -0.03906,-0.15625 -0.15625,-0.46875 0,-0.15625 -0.07813,-0.507813 0,-0.15625 -0.03906,-0.46875 0,-5.15625 0,-15.429687 0,-0.15625 0.03906,-0.46875 0.03906,-0.15625 0.07813,-0.507813 0.07813,-0.15625 0.15625,-0.507812 0.03906,-0.15625 0.15625,-0.46875 0.03906,-0.15625 0.195312,-0.46875 0.07813,-0.117188 0.195313,-0.429688 0.07813,-0.15625 0.273437,-0.429687 0.07813,-0.15625 0.273438,-0.429688 0.07813,-0.117187 0.3125,-0.390625 0.117187,-0.117187 0.3125,-0.351562 0.117187,-0.117188 0.390625,-0.351563 0.117187,-0.117187 0.351562,-0.351562 0.15625,-0.07813 0.429688,-0.273438 0.117187,-0.07813 0.429687,-0.273437 0.117188,-0.07813 0.429688,-0.234375 0.15625,-0.07813 0.46875,-0.234375 0.15625,-0.03906 0.429687,-0.15625 0.195313,-0.03906 0.507813,-0.117188 0.15625,-0.03906 0.46875,-0.117187 0.15625,-0.03906 0.507812,-0.07813 0.15625,0 0.507813,-0.03906 z" />
        <path
           id="path918"
           style="font-style:normal;font-variant:normal;font-weight:normal;font-stretch:normal;font-family:'Metal Slug Latino';-inkscape-font-specification:'Metal Slug Latino';fill:url(#linearGradient1000);stroke:#000000;stroke-width:0.76624065;stroke-miterlimit:4;stroke-dasharray:none;stroke-opacity:1;fill-opacity:1"
           d="m 98.505859,27.032612 q 1.09375,0 4.335941,0 0,1.132812 0,4.492187 -1.09375,0 -4.335941,0 0,-1.09375 0,-4.492187 z m 1.757811,3.515625 q 0.66406,0.15625 2.61719,0.585937 -0.35156,0.976563 -1.52344,3.984375 -0.66406,-0.15625 -2.617186,-0.585937 0.390625,-0.976563 1.523436,-3.984375 z" />
        <path
           id="path920"
           style="font-style:normal;font-variant:normal;font-weight:normal;font-stretch:normal;font-family:'Metal Slug Latino';-inkscape-font-specification:'Metal Slug Latino';fill:url(#linearGradient1000);stroke:#000000;stroke-width:0.76624065;stroke-miterlimit:4;stroke-dasharray:none;stroke-opacity:1;fill-opacity:1"
           d="m 105.9668,42.735737 q -0.0781,-0.03906 -0.15625,-0.117188 -0.0391,-0.03906 -0.11719,-0.117187 -0.0391,-0.03906 -0.11719,-0.117188 -0.0391,-0.03906 -0.11719,-0.117187 -0.0391,-0.03906 -0.11718,-0.15625 -0.0391,-0.03906 -0.0781,-0.117188 -0.0391,-0.03906 -0.11719,-0.117187 -0.0391,-0.07813 -0.0781,-0.15625 -0.0391,-0.03906 -0.11719,-0.15625 0,-0.03906 -0.0781,-0.15625 0,-0.03906 -0.0781,-0.117188 0,-0.07813 -0.0781,-0.15625 0,-0.07813 -0.0391,-0.15625 -0.0391,-0.07813 -0.0781,-0.15625 0,-0.07813 -0.0391,-0.195312 -0.0391,-0.03906 -0.0391,-0.15625 -0.0391,-0.03906 -0.0781,-0.15625 0,-0.03906 0,-0.15625 -0.0391,-0.07813 -0.0391,-0.15625 0,-0.820313 0,-2.460938 0,-0.07813 0.0391,-0.195312 0,-0.03906 0,-0.15625 0.0391,-0.07813 0.0391,-0.195313 0.0391,-0.03906 0.0781,-0.15625 0,-0.03906 0.0391,-0.15625 0,-0.07813 0.0391,-0.195312 0.0391,-0.03906 0.0781,-0.15625 0.0391,-0.03906 0.0781,-0.15625 0.0391,-0.03906 0.0781,-0.15625 0.0391,-0.03906 0.0781,-0.15625 0.0391,-0.03906 0.0781,-0.15625 0.0391,-0.03906 0.11718,-0.15625 0,-0.03906 0.0781,-0.117188 0.0391,-0.07813 0.11719,-0.15625 0.0391,-0.03906 0.0781,-0.15625 0.0391,-0.03906 0.11719,-0.117187 0.0391,-0.03906 0.11719,-0.117188 0.0391,-0.03906 0.11718,-0.15625 0.0391,-0.03906 0.15625,-0.117187 0.0391,-0.03906 0.11719,-0.117188 0.0391,-0.03906 0.11719,-0.117187 0.0781,0 0.15625,-0.07813 0.0391,-0.03906 0.15625,-0.117188 0.0391,-0.03906 0.11719,-0.07813 0.0781,-0.03906 0.15625,-0.117187 0.0391,-0.03906 0.15625,-0.07813 0.0391,-0.03906 0.15625,-0.07813 0.0391,-0.03906 0.15625,-0.07813 0.0391,-0.03906 0.15625,-0.07813 0.0781,0 0.15625,-0.03906 0.0781,-0.03906 0.19531,-0.07813 0.0391,0 0.15625,-0.03906 0.0391,-0.03906 0.15625,-0.07813 0.0781,0 0.19531,-0.03906 0.0391,0 0.15625,0 0.0391,-0.03906 0.15625,-0.03906 0.0781,0 0.19531,-0.03906 0.0391,0 0.15625,0 0.0781,0 0.19532,0 0.0391,0 0.15625,0 3.55468,0 10.625,0 0,2.382813 0,7.109375 -1.99219,0 -5.9375,0 0,-0.625 0,-1.875 -0.97657,0 -2.96875,0 -0.0781,0.195313 -0.15625,0.585938 2.38281,1.914062 7.14843,5.742187 0.0781,0.03906 0.19532,0.15625 0.0391,0.03906 0.15625,0.117188 0.0391,0.07813 0.15625,0.15625 0.0391,0.07813 0.15625,0.15625 0.0391,0.07813 0.15625,0.195312 0.0391,0.03906 0.15625,0.15625 0.0391,0.03906 0.11718,0.15625 0.0781,0.07813 0.15625,0.195313 0.0391,0.03906 0.11719,0.15625 0.0391,0.07813 0.15625,0.195312 0.0391,0.07813 0.11719,0.195313 0.0391,0.03906 0.11719,0.195312 0.0391,0.03906 0.11718,0.195313 0,0.03906 0.0781,0.195312 0.0391,0.03906 0.11719,0.195313 0,0.03906 0.0781,0.195312 0.0391,0.07813 0.0781,0.195313 0.0391,0.07813 0.0781,0.234375 0.0391,0.03906 0.0781,0.195312 0.0391,0.07813 0.0781,0.195313 0.0391,0.07813 0.0781,0.234375 0,1.132812 0,3.359375 -0.0391,0.07813 -0.0391,0.195312 -0.0391,0.03906 -0.0781,0.15625 0,0.07813 -0.0391,0.15625 -0.0391,0.07813 -0.0781,0.195313 -0.0391,0.03906 -0.0781,0.15625 0,0.03906 -0.0781,0.15625 0,0.03906 -0.0781,0.15625 -0.0391,0.03906 -0.0781,0.15625 -0.0391,0.03906 -0.0781,0.15625 -0.0391,0.03906 -0.11719,0.117187 -0.0391,0.07813 -0.11719,0.15625 -0.0391,0.03906 -0.0781,0.15625 -0.0391,0.03906 -0.11719,0.117188 -0.0391,0.03906 -0.15625,0.117187 -0.0391,0.03906 -0.11719,0.15625 -0.0391,0.03906 -0.11719,0.117188 -0.0391,0.03906 -0.11718,0.117187 -0.0781,0.03906 -0.15625,0.117188 -0.0391,0 -0.15625,0.07813 -0.0391,0.03906 -0.11719,0.117187 -0.0781,0.03906 -0.15625,0.07813 -0.0391,0.03906 -0.15625,0.117188 -0.0391,0 -0.15625,0.07813 -0.0391,0 -0.15625,0.07813 -0.0391,0 -0.15625,0.03906 -0.0781,0.03906 -0.15625,0.07813 -0.0781,0.03906 -0.19531,0.07813 -0.0391,0 -0.15625,0.03906 -0.0391,0 -0.15625,0.03906 -0.0781,0.03906 -0.19532,0.03906 -0.0391,0.03906 -0.15625,0.03906 -0.0781,0 -0.19531,0.03906 -4.21875,0 -12.73437,0 0,-2.460938 0,-7.421875 1.91406,0 5.78125,0 0,0.546875 0,1.601562 1.36718,0 4.02343,0 0.0391,0 0.0781,0 0.0391,0 0.11719,-0.03906 0,0 0.0781,-0.03906 0.0391,0 0.0781,-0.03906 0.0391,0 0.0781,-0.03906 0.0391,0 0.0781,-0.03906 0,0 0.0781,-0.03906 0,-0.03906 0.0391,-0.07813 0,-0.15625 0,-0.507812 -2.38281,-1.875 -7.22656,-5.625 -0.0781,-0.07813 -0.27344,-0.195313 -0.0781,-0.03906 -0.23437,-0.15625 -0.0781,-0.07813 -0.27344,-0.195312 -0.0781,-0.03906 -0.23437,-0.15625 z" />
      </g>
      <g
         id="flowRoot26"
         style="font-style:normal;font-weight:normal;font-size:40px;line-height:125%;font-family:sans-serif;letter-spacing:0px;word-spacing:0px;fill:url(#linearGradient1000);fill-opacity:1;stroke:#000000;stroke-width:1.7641025;stroke-linecap:butt;stroke-linejoin:miter;stroke-miterlimit:4;stroke-dasharray:none;stroke-opacity:1"
         transform="matrix(0.52493643,0,0,0.52493643,60.961973,195.53896)"
         aria-label="games">
        <path
           id="path899"
           style="font-style:normal;font-variant:normal;font-weight:normal;font-stretch:normal;font-family:'Metal Slug Latino';-inkscape-font-specification:'Metal Slug Latino';fill:url(#linearGradient1000);stroke:#000000;stroke-width:1.7641025;stroke-miterlimit:4;stroke-dasharray:none;stroke-opacity:1;fill-opacity:1"
           d="m 43.3125,166.60683 q -3.710938,0 -11.171875,0 -0.07813,0 -0.195313,0 -0.07813,0 -0.195312,0 -0.03906,0 -0.195313,0 -0.03906,0.0391 -0.15625,0.0391 -0.07813,0 -0.195312,0.0391 -0.07813,0 -0.195313,0 -0.03906,0.0391 -0.15625,0.0391 -0.07813,0.0391 -0.195312,0.0781 -0.03906,0 -0.15625,0.0391 -0.07813,0 -0.195313,0.0391 -0.03906,0.0391 -0.15625,0.0781 -0.07813,0.0391 -0.195312,0.0781 -0.03906,0 -0.15625,0.0781 -0.03906,0 -0.15625,0.0781 -0.07813,0 -0.15625,0.0781 -0.07813,0.0391 -0.195313,0.0781 -0.03906,0.0391 -0.15625,0.11719 -0.03906,0.0391 -0.15625,0.0781 -0.03906,0.0391 -0.117187,0.11719 -0.07813,0.0391 -0.15625,0.11719 -0.03906,0.0391 -0.15625,0.11718 -0.03906,0.0391 -0.117188,0.11719 -0.07813,0.0391 -0.15625,0.11719 -0.03906,0.0391 -0.117187,0.15625 -0.03906,0.0391 -0.117188,0.11719 -0.07813,0.0391 -0.15625,0.11718 -0.03906,0.0781 -0.117187,0.15625 -0.03906,0.0391 -0.07813,0.15625 -0.03906,0.0391 -0.117188,0.15625 -0.03906,0.0391 -0.117187,0.15625 -0.03906,0.0391 -0.07813,0.15625 -0.03906,0.0391 -0.117188,0.15625 0,0.0391 -0.07813,0.15625 -0.03906,0.0391 -0.07813,0.15625 -0.03906,0.0781 -0.07813,0.15625 -0.03906,0.0781 -0.07813,0.19532 0,0.0391 -0.03906,0.15625 -0.03906,0.0781 -0.07813,0.19531 0,0.0391 -0.03906,0.15625 -0.03906,0.0781 -0.07813,0.19531 0,0.0391 -0.03906,0.19531 0,0.0391 -0.03906,0.15625 0,0.0781 0,0.19532 0,0.0391 -0.03906,0.15625 0,4.17968 0,12.5 0,0.0781 0.03906,0.19531 0,0.0391 0,0.15625 0.03906,0.0781 0.03906,0.19531 0.03906,0.0781 0.03906,0.19531 0.03906,0.0391 0.07813,0.15625 0,0.0781 0.03906,0.19532 0.03906,0.0391 0.07813,0.15625 0,0.0781 0.03906,0.19531 0.03906,0.0391 0.07813,0.15625 0.03906,0.0781 0.07813,0.15625 0.03906,0.0781 0.07813,0.19531 0.03906,0.0391 0.07813,0.15625 0.03906,0.0391 0.117188,0.15625 0,0.0391 0.07813,0.15625 0.03906,0.0391 0.117187,0.15625 0.03906,0.0391 0.117188,0.15625 0,0.0391 0.07813,0.11719 0.03906,0.0781 0.117187,0.15625 0.03906,0.0391 0.15625,0.15625 0.03906,0.0391 0.117188,0.11719 0.03906,0.0391 0.117187,0.11718 0.03906,0.0781 0.15625,0.15625 0.03906,0.0391 0.117188,0.11719 0.03906,0.0391 0.15625,0.11719 0.03906,0.0391 0.15625,0.11719 0.03906,0.0391 0.117187,0.0781 0.07813,0.0391 0.15625,0.11719 0.07813,0.0391 0.15625,0.0781 0.07813,0.0391 0.195313,0.11719 0.03906,0 0.15625,0.0781 0.03906,0.0391 0.15625,0.0781 0.03906,0.0391 0.15625,0.0781 0.07813,0 0.195312,0.0781 0.03906,0 0.15625,0.0391 0.07813,0.0391 0.195313,0.0781 0.03906,0 0.15625,0.0391 0.07813,0 0.195312,0.0391 0.03906,0.0391 0.15625,0.0391 0.07813,0 0.195313,0.0391 0.07813,0 0.195312,0.0391 0.03906,0 0.15625,0 0.07813,0 0.195313,0.0391 0.07813,0 0.195312,0 0.03906,0 0.195313,0 3.828125,0 11.523437,0 0,-4.25781 0,-12.8125 -3.085937,0 -9.257812,0 0,1.75782 0,5.3125 1.171875,0 3.515625,0 0,0.625 0,1.91407 -1.171875,0 -3.515625,0 -0.03906,0 -0.117188,0 -0.03906,0 -0.117187,0 -0.03906,0 -0.117188,-0.0391 -0.03906,0 -0.117187,0 -0.03906,-0.0391 -0.117188,-0.0391 -0.03906,0 -0.117187,-0.0391 -0.03906,0 -0.117188,-0.0391 -0.03906,0 -0.07813,-0.0391 -0.03906,-0.0391 -0.117187,-0.0391 -0.03906,-0.0391 -0.117188,-0.0781 -0.03906,0 -0.07813,-0.0781 -0.03906,0 -0.117187,-0.0391 0,-0.0391 -0.07813,-0.0781 -0.03906,-0.0391 -0.07813,-0.0781 -0.03906,-0.0391 -0.07813,-0.0781 -0.03906,-0.0391 -0.07813,-0.0781 -0.03906,-0.0391 -0.07813,-0.11719 -0.03906,-0.0391 -0.07813,-0.0781 0,-0.0391 -0.03906,-0.11719 -0.03906,-0.0391 -0.07813,-0.0781 0,-0.0391 -0.03906,-0.11718 -0.03906,-0.0391 -0.03906,-0.11719 -0.03906,-0.0391 -0.03906,-0.0781 -0.03906,-0.0391 -0.03906,-0.11718 -0.03906,-0.0391 -0.03906,-0.11719 0,-0.0391 -0.03906,-0.11719 0,-0.0391 0,-0.11719 0,-0.0391 0,-0.11718 0,-0.0391 0,-0.11719 0,-2.30469 0,-6.91406 0,-0.0391 0,-0.11719 0,-0.0391 0,-0.11719 0,-0.0391 0,-0.11719 0.03906,-0.0391 0.03906,-0.11718 0,-0.0391 0.03906,-0.11719 0,-0.0391 0.03906,-0.11719 0,-0.0391 0.03906,-0.11719 0,-0.0391 0.03906,-0.11718 0,0 0.03906,-0.0781 0.03906,-0.0391 0.07813,-0.11719 0,-0.0391 0.03906,-0.0781 0.03906,-0.0391 0.07813,-0.11719 0,0 0.07813,-0.0781 0,-0.0391 0.07813,-0.0781 0,-0.0391 0.07813,-0.0781 0.03906,-0.0391 0.07813,-0.0781 0.03906,-0.0391 0.07813,-0.0781 0.03906,-0.0391 0.117187,-0.0781 0.03906,0 0.07813,-0.0781 0.03906,0 0.117188,-0.0391 0.03906,0 0.117187,-0.0391 0,-0.0391 0.07813,-0.0781 0.03906,0 0.117188,-0.0391 0.03906,0 0.117187,0 0.03906,-0.0391 0.117188,-0.0391 0.03906,0 0.117187,-0.0391 0.03906,0 0.117188,0 0.03906,0 0.117187,0 0.03906,0 0.117188,0 1.09375,0 3.242187,0 0,0.50781 0,1.5625 1.914063,0 5.664063,0 0,-2.38281 0,-7.14844 z" />
        <path
           id="path901"
           style="font-style:normal;font-variant:normal;font-weight:normal;font-stretch:normal;font-family:'Metal Slug Latino';-inkscape-font-specification:'Metal Slug Latino';fill:url(#linearGradient1000);stroke:#000000;stroke-width:1.7641025;stroke-miterlimit:4;stroke-dasharray:none;stroke-opacity:1;fill-opacity:1"
           d="m 46.75,183.28652 q 1.71875,-3.63281 5.234375,-10.9375 -0.625,0 -1.875,0 0.859375,-1.91406 2.65625,-5.74219 4.179687,0 12.5,0 0,1.91406 0,5.82031 -0.546875,0 -1.640625,0 0,3.59375 0,10.78125 0.546875,0 1.601562,0 0,1.95313 0,5.78125 -4.570312,0 -13.789062,0 0.9375,-1.95312 2.734375,-5.82031 1.289062,0 3.828125,0 0,-3.4375 0,-10.3125 -2.617188,5.39063 -7.8125,16.13281 -1.992188,0 -5.976563,0 0,-1.91406 0,-5.70312 0.625,0 1.25,0 0.625,0 1.289063,0 z" />
        <path
           id="path903"
           style="font-style:normal;font-variant:normal;font-weight:normal;font-stretch:normal;font-family:'Metal Slug Latino';-inkscape-font-specification:'Metal Slug Latino';fill:url(#linearGradient1000);stroke:#000000;stroke-width:1.7641025;stroke-miterlimit:4;stroke-dasharray:none;stroke-opacity:1;fill-opacity:1"
           d="m 92.765625,184.96621 q 0,1.32812 0,3.98437 -2.5,0 -7.578125,0 0,-1.32812 0,-3.98437 0.351562,0 1.054687,0 0,-1.40625 0,-4.21875 -1.289062,2.73437 -3.90625,8.20312 -1.054687,0 -3.164062,0 0,-2.73437 0,-8.20312 -1.328125,2.77343 -3.945313,8.24218 -2.65625,0 -7.96875,0 0.625,-1.36718 1.953125,-4.0625 0.664063,0 2.03125,0 2.34375,-4.76562 7.070313,-14.375 -0.703125,0 -2.070313,0 0.664063,-1.32812 1.953125,-3.94531 2.070313,0 6.25,0 0,1.71875 0,5.23438 0.859375,-1.75782 2.578125,-5.23438 1.914063,0 5.78125,0 0,1.32813 0,3.94531 -0.390625,0 -1.210937,0 0,4.80469 0,14.41407 0.3125,0 0.585937,0 0.3125,0 0.585938,0 z" />
        <path
           id="path905"
           style="font-style:normal;font-variant:normal;font-weight:normal;font-stretch:normal;font-family:'Metal Slug Latino';-inkscape-font-specification:'Metal Slug Latino';fill:url(#linearGradient1000);stroke:#000000;stroke-width:1.7641025;stroke-miterlimit:4;stroke-dasharray:none;stroke-opacity:1;fill-opacity:1"
           d="m 105.1875,175.04433 q 0,1.83594 0,5.54688 -1.40625,0 -4.25781,0 0,0.89843 0,2.73437 1.40625,0 4.14062,0 0,-0.54687 0,-1.67969 1.83594,0 5.50782,0 0,2.46094 0,7.34375 -5.58594,0 -16.718755,0 0,-1.875 0,-5.66406 0.507812,0 1.5625,0 0,-3.63281 0,-10.9375 -0.546875,0 -1.5625,0 0,-1.91406 0,-5.78125 5.585937,0 16.718755,0 0,2.46094 0,7.42188 -1.83594,0 -5.50782,0 0,-0.54688 0,-1.64063 -1.36718,0 -4.14062,0 0,0.89844 0,2.65625 1.09375,0 2.14844,0 1.05468,0 2.10937,0 z" />
        <path
           id="path907"
           style="font-style:normal;font-variant:normal;font-weight:normal;font-stretch:normal;font-family:'Metal Slug Latino';-inkscape-font-specification:'Metal Slug Latino';fill:url(#linearGradient1000);stroke:#000000;stroke-width:1.7641025;stroke-miterlimit:4;stroke-dasharray:none;stroke-opacity:1;fill-opacity:1"
           d="m 113.97656,176.02089 q -0.0781,-0.0391 -0.15625,-0.11718 -0.0391,-0.0391 -0.11718,-0.11719 -0.0391,-0.0391 -0.11719,-0.11719 -0.0391,-0.0391 -0.11719,-0.11719 -0.0391,-0.0391 -0.11719,-0.15625 -0.0391,-0.0391 -0.0781,-0.11718 -0.0391,-0.0391 -0.11719,-0.11719 -0.0391,-0.0781 -0.0781,-0.15625 -0.0391,-0.0391 -0.11719,-0.15625 0,-0.0391 -0.0781,-0.15625 0,-0.0391 -0.0781,-0.11719 0,-0.0781 -0.0781,-0.15625 0,-0.0781 -0.0391,-0.15625 -0.0391,-0.0781 -0.0781,-0.15625 0,-0.0781 -0.0391,-0.19531 -0.0391,-0.0391 -0.0391,-0.15625 -0.0391,-0.0391 -0.0781,-0.15625 0,-0.0391 0,-0.15625 -0.0391,-0.0781 -0.0391,-0.15625 0,-0.82031 0,-2.46094 0,-0.0781 0.0391,-0.19531 0,-0.0391 0,-0.15625 0.0391,-0.0781 0.0391,-0.19531 0.0391,-0.0391 0.0781,-0.15625 0,-0.0391 0.0391,-0.15625 0,-0.0781 0.0391,-0.19532 0.0391,-0.0391 0.0781,-0.15625 0.0391,-0.0391 0.0781,-0.15625 0.0391,-0.0391 0.0781,-0.15625 0.0391,-0.0391 0.0781,-0.15625 0.0391,-0.0391 0.0781,-0.15625 0.0391,-0.0391 0.11719,-0.15625 0,-0.0391 0.0781,-0.11718 0.0391,-0.0781 0.11718,-0.15625 0.0391,-0.0391 0.0781,-0.15625 0.0391,-0.0391 0.11719,-0.11719 0.0391,-0.0391 0.11718,-0.11719 0.0391,-0.0391 0.11719,-0.15625 0.0391,-0.0391 0.15625,-0.11719 0.0391,-0.0391 0.11719,-0.11718 0.0391,-0.0391 0.11719,-0.11719 0.0781,0 0.15625,-0.0781 0.0391,-0.0391 0.15625,-0.11718 0.0391,-0.0391 0.11718,-0.0781 0.0781,-0.0391 0.15625,-0.11719 0.0391,-0.0391 0.15625,-0.0781 0.0391,-0.0391 0.15625,-0.0781 0.0391,-0.0391 0.15625,-0.0781 0.0391,-0.0391 0.15625,-0.0781 0.0781,0 0.15625,-0.0391 0.0781,-0.0391 0.19532,-0.0781 0.0391,0 0.15625,-0.0391 0.0391,-0.0391 0.15625,-0.0781 0.0781,0 0.19531,-0.0391 0.0391,0 0.15625,0 0.0391,-0.0391 0.15625,-0.0391 0.0781,0 0.19531,-0.0391 0.0391,0 0.15625,0 0.0781,0 0.19531,0 0.0391,0 0.15625,0 3.55469,0 10.625,0 0,2.38281 0,7.10938 -1.99218,0 -5.9375,0 0,-0.625 0,-1.875 -0.97656,0 -2.96875,0 -0.0781,0.19531 -0.15625,0.58593 2.38282,1.91407 7.14844,5.74219 0.0781,0.0391 0.19531,0.15625 0.0391,0.0391 0.15625,0.11719 0.0391,0.0781 0.15625,0.15625 0.0391,0.0781 0.15625,0.15625 0.0391,0.0781 0.15625,0.19531 0.0391,0.0391 0.15625,0.15625 0.0391,0.0391 0.11719,0.15625 0.0781,0.0781 0.15625,0.19531 0.0391,0.0391 0.11719,0.15625 0.0391,0.0781 0.15625,0.19532 0.0391,0.0781 0.11719,0.19531 0.0391,0.0391 0.11718,0.19531 0.0391,0.0391 0.11719,0.19531 0,0.0391 0.0781,0.19532 0.0391,0.0391 0.11718,0.19531 0,0.0391 0.0781,0.19531 0.0391,0.0781 0.0781,0.19531 0.0391,0.0781 0.0781,0.23438 0.0391,0.0391 0.0781,0.19531 0.0391,0.0781 0.0781,0.19531 0.0391,0.0781 0.0781,0.23438 0,1.13281 0,3.35937 -0.0391,0.0781 -0.0391,0.19532 -0.0391,0.0391 -0.0781,0.15625 0,0.0781 -0.0391,0.15625 -0.0391,0.0781 -0.0781,0.19531 -0.0391,0.0391 -0.0781,0.15625 0,0.0391 -0.0781,0.15625 0,0.0391 -0.0781,0.15625 -0.0391,0.0391 -0.0781,0.15625 -0.0391,0.0391 -0.0781,0.15625 -0.0391,0.0391 -0.11718,0.11719 -0.0391,0.0781 -0.11719,0.15625 -0.0391,0.0391 -0.0781,0.15625 -0.0391,0.0391 -0.11718,0.11718 -0.0391,0.0391 -0.15625,0.11719 -0.0391,0.0391 -0.11719,0.15625 -0.0391,0.0391 -0.11719,0.11719 -0.0391,0.0391 -0.11719,0.11719 -0.0781,0.0391 -0.15625,0.11718 -0.0391,0 -0.15625,0.0781 -0.0391,0.0391 -0.11718,0.11719 -0.0781,0.0391 -0.15625,0.0781 -0.0391,0.0391 -0.15625,0.11719 -0.0391,0 -0.15625,0.0781 -0.0391,0 -0.15625,0.0781 -0.0391,0 -0.15625,0.0391 -0.0781,0.0391 -0.15625,0.0781 -0.0781,0.0391 -0.19532,0.0781 -0.0391,0 -0.15625,0.0391 -0.0391,0 -0.15625,0.0391 -0.0781,0.0391 -0.19531,0.0391 -0.0391,0.0391 -0.15625,0.0391 -0.0781,0 -0.19531,0.0391 -4.21875,0 -12.73438,0 0,-2.46093 0,-7.42187 1.91407,0 5.78125,0 0,0.54687 0,1.60156 1.36719,0 4.02344,0 0.0391,0 0.0781,0 0.0391,0 0.11718,-0.0391 0,0 0.0781,-0.0391 0.0391,0 0.0781,-0.0391 0.0391,0 0.0781,-0.0391 0.0391,0 0.0781,-0.0391 0,0 0.0781,-0.0391 0,-0.0391 0.0391,-0.0781 0,-0.15625 0,-0.50781 -2.38281,-1.875 -7.22656,-5.625 -0.0781,-0.0781 -0.27344,-0.19531 -0.0781,-0.0391 -0.23437,-0.15625 -0.0781,-0.0781 -0.27344,-0.19532 -0.0781,-0.0391 -0.23438,-0.15625 z" />
      </g>
    </g>
  </g>
</svg>
