<?xml version="1.0" encoding="UTF-8" standalone="no"?>
<svg
   xmlns:dc="http://purl.org/dc/elements/1.1/"
   xmlns:cc="http://creativecommons.org/ns#"
   xmlns:rdf="http://www.w3.org/1999/02/22-rdf-syntax-ns#"
   xmlns:svg="http://www.w3.org/2000/svg"
   xmlns="http://www.w3.org/2000/svg"
   xmlns:sodipodi="http://sodipodi.sourceforge.net/DTD/sodipodi-0.dtd"
   xmlns:inkscape="http://www.inkscape.org/namespaces/inkscape"
   width="500"
   height="200"
   viewBox="0 0 500 200"
   version="1.1"
   id="svg61"
   sodipodi:docname="3ds.svg"
   style="fill:none"
   inkscape:version="0.92.5 (2060ec1f9f, 2020-04-08)">
  <metadata
     id="metadata67">
    <rdf:RDF>
      <cc:Work
         rdf:about="">
        <dc:format>image/svg+xml</dc:format>
        <dc:type
           rdf:resource="http://purl.org/dc/dcmitype/StillImage" />
        <dc:title></dc:title>
      </cc:Work>
    </rdf:RDF>
  </metadata>
  <defs
     id="defs65" />
  <sodipodi:namedview
     pagecolor="#ffffff"
     bordercolor="#666666"
     borderopacity="1"
     objecttolerance="10"
     gridtolerance="10"
     guidetolerance="10"
     inkscape:pageopacity="0"
     inkscape:pageshadow="2"
     inkscape:window-width="1366"
     inkscape:window-height="740"
     id="namedview63"
     showgrid="false"
     inkscape:pagecheckerboard="true"
     inkscape:zoom="0.9734375"
     inkscape:cx="300"
     inkscape:cy="35.5"
     inkscape:window-x="0"
     inkscape:window-y="0"
     inkscape:window-maximized="1"
     inkscape:current-layer="svg61" />
  <path
     d="m 462.82816,101.65687 c 0,1.01351 -0.8364,1.8429 -1.85328,1.8429 h -35.36176 c -1.02765,0 -1.85058,-0.82939 -1.85058,-1.8429 V 76.078146 c 0,-1.016878 0.82293,-1.839404 1.85058,-1.839404 h 35.36176 c 1.01688,0 1.85328,0.822526 1.85328,1.839404 z m -1.53408,-35.091717 h -36.0069 c -5.21369,0 -9.44821,4.265365 -9.44821,9.461005 v 25.689712 c 0,5.18863 4.23452,9.45063 9.44821,9.45063 h 36.0069 c 5.21369,0 9.45764,-4.262 9.45764,-9.45063 V 76.026158 c 0,-5.19564 -4.24395,-9.461005 -9.45764,-9.461005 z"
     id="path33"
     inkscape:connector-curvature="0"
     style="fill:#a1a2a2;stroke-width:1.34685814" />
  <path
     d="M 48.327841,28.130602 V 61.185128 H 40.064205 V 16.569846 h 7.055841 L 80.573659,49.065559 V 16.569846 h 6.608224 1.54781 v 44.615282 h -6.455357 z"
     id="path35"
     inkscape:connector-curvature="0"
     style="fill:#ffffff;stroke-width:1.34685814" />
  <path
     d="m 131.13916,28.130602 v 33.054526 h -8.26015 V 16.569846 h 7.04892 l 33.45353,32.495713 V 16.569846 h 6.62209 1.54094 v 44.615282 h -6.45198 z"
     id="path37"
     inkscape:connector-curvature="0"
     style="fill:#ffffff;stroke-width:1.34685814" />
  <path
     d="m 302.77023,28.130602 v 33.054526 h -8.25624 V 16.569846 h 7.04811 l 33.45056,32.495713 V 16.569846 h 6.61847 1.54484 v 44.615282 h -6.44876 z"
     id="path39"
     inkscape:connector-curvature="0"
     style="fill:#ffffff;stroke-width:1.34685814" />
  <path
     d="m 108.39342,16.571502 h 1.52706 v 44.611875 h -8.25664 V 16.571502 Z"
     id="path41"
     inkscape:connector-curvature="0"
     style="fill:#ffffff;stroke-width:1.34685814" />
  <path
     d="m 227.79198,16.571502 h 1.5206 v 7.67363 H 209.3912 v 36.938245 h -8.57948 V 24.245132 h -19.90791 v -7.67363 z"
     id="path43"
     inkscape:connector-curvature="0"
     style="fill:#ffffff;stroke-width:1.34685814" />
  <path
     d="m 280.71004,16.571502 h 1.54754 v 7.67363 h -35.40486 v 10.0128 h 27.38701 v 7.673724 h -27.38701 v 11.567626 h 35.40486 v 7.684095 h -43.5776 V 16.571502 Z"
     id="path45"
     inkscape:connector-curvature="0"
     style="fill:#ffffff;stroke-width:1.34685814" />
  <path
     d="m 389.10114,53.497935 h -25.37077 v -29.25415 h 0.23705 25.13372 c 7.93838,0 10.76274,7.888804 10.76274,14.618381 0,6.757457 -2.82436,14.635769 -10.76274,14.635769 z M 402.65457,23.08806 C 399.4302,18.833039 394.6475,16.570169 388.86544,16.570169 H 355.7664 v 44.615228 h 33.09904 c 5.78206,0 10.56476,-2.259354 13.78913,-6.517851 3.02235,-3.966901 4.62916,-9.415885 4.62916,-15.80538 0,-6.354746 -1.60681,-11.827973 -4.62916,-15.774106 z"
     id="path47"
     inkscape:connector-curvature="0"
     style="fill:#ffffff;stroke-width:1.34685814" />
  <path
     d="m 462.82816,51.666073 c 0,1.006507 -0.8364,1.836037 -1.85328,1.836037 h -35.36176 c -1.02765,0 -1.85058,-0.82953 -1.85058,-1.836037 V 26.087365 c 0,-1.009955 0.82293,-1.832508 1.85058,-1.832508 h 35.36176 c 1.01688,0 1.85328,0.822553 1.85328,1.832508 z m -1.53408,-35.095244 h -36.0069 c -5.21369,0 -9.44821,4.268907 -9.44821,9.46448 v 25.69676 c 0,5.192138 4.23452,9.454002 9.44821,9.454002 h 36.0069 c 5.21369,0 9.45764,-4.261864 9.45764,-9.454002 v -25.69676 c 0,-5.195573 -4.24395,-9.46448 -9.45764,-9.46448 z"
     id="path49"
     inkscape:connector-curvature="0"
     style="fill:#ffffff;stroke-width:1.34685814" />
  <path
     d="m 306.552,152.12488 c 9.05449,3.57156 28.15811,6.46834 43.06391,6.46834 16.32025,0 23.09368,-5.60287 23.09368,-12.6323 0,-6.30683 -6.28534,-10.014 -24.31176,-16.62164 -24.09403,-8.90678 -41.76472,-15.91413 -41.76472,-31.74018 0,-16.390725 21.26088,-26.030841 53.68936,-26.030841 17.41027,0 23.38682,1.10006 34.45056,3.127809 l 0.0769,15.551018 c -10.85741,-2.064329 -20.4825,-5.613893 -35.43669,-5.613893 -16.02,0 -22.84465,5.085965 -22.84465,10.329526 0,7.608571 10.51019,11.246171 28.96066,17.820801 25.67499,9.19264 39.96178,16.28439 39.96178,31.78045 0,15.94331 -17.88696,27.45359 -58.23723,27.45359 -16.57354,0 -27.99587,-1.09272 -40.70174,-3.13514 z"
     id="path51"
     inkscape:connector-curvature="0"
     style="fill:#ffffff;stroke-width:1.42298865" />
  <path
     d="m 220.66041,85.310608 h -19.19895 v 72.687662 h 19.19895 c 29.47721,0 48.07283,-12.60298 48.07283,-36.19529 0,-23.585174 -18.59562,-36.492372 -48.07283,-36.492372 z m 51.5563,79.460232 c -9.5084,4.30128 -27.46937,7.02942 -43.18485,7.02942 H 169.01304 V 71.783662 h 60.01882 c 15.71548,0 33.67645,2.764777 43.19197,7.054983 23.11503,10.435821 30.66256,27.138295 30.66256,42.964335 0,15.83702 -7.47781,32.51374 -30.66968,42.96786 z"
     id="path53"
     inkscape:connector-curvature="0"
     style="fill:#ffffff;stroke-width:1.42298865" />
  <path
     d="m 126.93954,117.0717 c 0,0 28.00015,-4.48455 28.00015,-21.91673 0,-17.039763 -29.81446,-24.010419 -61.537146,-24.010419 -28.63053,0 -47.452401,3.498141 -47.452401,3.498141 v 15.481439 c 12.996156,-3.142516 25.423115,-5.819302 42.363795,-5.819302 18.180102,0 32.055662,5.423286 32.055662,13.086935 0,9.240456 -13.72188,14.517036 -43.250313,14.517036 H 63.548244 v 13.93021 H 76.1545 c 31.10511,0 48.79428,4.67893 48.79428,16.09742 0,10.19387 -15.80371,16.38714 -35.509258,16.38714 -17.182587,0 -32.902342,-3.65951 -45.652322,-7.19806 v 16.69878 c 6.123121,1.0523 22.370805,4.31578 52.633504,4.31578 33.522766,0 62.692606,-10.78041 62.692606,-29.78201 0,-15.93605 -20.20786,-25.28636 -32.17377,-25.28636 z"
     id="path55"
     inkscape:connector-curvature="0"
     style="fill:#d12228;stroke-width:1.42298865" />
  <path
     d="m 413.63474,158.17657 h -3.15619 v -1.69406 h 8.37857 v 1.69406 h -3.19746 v 9.39812 h -2.02492 z"
     id="path57"
     inkscape:connector-curvature="0"
     style="fill:#ffffff;stroke-width:1.42298865" />
  <path
     d="m 429.51957,163.04817 c -0.0626,-1.43366 -0.14658,-3.16074 -0.12808,-4.65687 h -0.0555 c -0.35859,1.35312 -0.81679,2.8491 -1.31199,4.2462 l -1.63218,4.80727 h -1.54678 l -1.47849,-4.74125 c -0.42832,-1.41545 -0.82533,-2.92979 -1.11846,-4.31222 h -0.0327 c -0.0512,1.44845 -0.11664,3.20855 -0.20207,4.7266 l -0.24475,4.45879 h -1.89685 l 0.74422,-11.09576 h 2.66669 l 1.45144,4.4588 c 0.38849,1.30175 0.74138,2.62185 1.02029,3.85758 h 0.0512 c 0.29313,-1.20641 0.67022,-2.57418 1.09996,-3.87223 l 1.52544,-4.44415 h 2.6368 l 0.64462,11.09576 h -1.97653 z"
     id="path59"
     inkscape:connector-curvature="0"
     style="fill:#ffffff;stroke-width:1.42298865" />
</svg>
