<?xml version="1.0" encoding="UTF-8" standalone="no"?>
<svg
   xmlns:dc="http://purl.org/dc/elements/1.1/"
   xmlns:cc="http://creativecommons.org/ns#"
   xmlns:rdf="http://www.w3.org/1999/02/22-rdf-syntax-ns#"
   xmlns:svg="http://www.w3.org/2000/svg"
   xmlns="http://www.w3.org/2000/svg"
   xmlns:sodipodi="http://sodipodi.sourceforge.net/DTD/sodipodi-0.dtd"
   xmlns:inkscape="http://www.inkscape.org/namespaces/inkscape"
   width="429.84918"
   height="167.44052"
   viewBox="0 0 429.84919 167.44052"
   version="1.1"
   id="svg29"
   sodipodi:docname="activision.svg"
   inkscape:version="0.92.5 (2060ec1f9f, 2020-04-08)">
  <metadata
     id="metadata35">
    <rdf:RDF>
      <cc:Work
         rdf:about="">
        <dc:format>image/svg+xml</dc:format>
        <dc:type
           rdf:resource="http://purl.org/dc/dcmitype/StillImage" />
        <dc:title>mainlogo</dc:title>
      </cc:Work>
    </rdf:RDF>
  </metadata>
  <defs
     id="defs33">
    <clipPath
       id="clipPath3361"
       clipPathUnits="userSpaceOnUse">
      <path
         id="path3363"
         d="M 0,864 H 1296 V 0 H 0 Z"
         inkscape:connector-curvature="0" />
    </clipPath>
  </defs>
  <sodipodi:namedview
     pagecolor="#ffffff"
     bordercolor="#666666"
     borderopacity="1"
     objecttolerance="10"
     gridtolerance="10"
     guidetolerance="10"
     inkscape:pageopacity="0"
     inkscape:pageshadow="2"
     inkscape:window-width="1366"
     inkscape:window-height="743"
     id="namedview31"
     showgrid="false"
     inkscape:pagecheckerboard="true"
     inkscape:zoom="1.4755262"
     inkscape:cx="307.24333"
     inkscape:cy="29.55127"
     inkscape:window-x="0"
     inkscape:window-y="0"
     inkscape:window-maximized="1"
     inkscape:current-layer="svg29" />
  <title
     id="title14">mainlogo</title>
  <path
     d="m 9.1669107,167.41353 c 1.3434973,0 2.6501313,-0.31526 3.9198993,-0.94577 1.269768,-0.63054 2.314256,-1.47724 3.133461,-2.54011 v 0 l -2.334736,-2.5401 c -0.606211,0.77464 -1.302537,1.36913 -2.088974,1.78349 -0.786437,0.41433 -1.630219,0.6215 -2.5313453,0.6215 -0.802822,0 -1.5442028,-0.15762 -2.2241427,-0.47289 -0.679942,-0.31527 -1.269769,-0.74312 -1.769486,-1.28356 -0.499716,-0.54045 -0.892933,-1.18448 -1.179656,-1.93209 -0.286722,-0.74763 -0.430082,-1.55379 -0.430082,-2.41851 0,-0.88273 0.139265,-1.6979 0.417795,-2.44552 0.278529,-0.74762 0.663557,-1.39616 1.15508,-1.94561 0.491522,-0.54945 1.077254,-0.98181 1.757196,-1.29707 0.6799399,-0.31526 1.4049357,-0.47288 2.1749907,-0.47288 0.9175103,0 1.7858683,0.22067 2.6050743,0.66204 0.819206,0.44136 1.531915,1.07639 2.138126,1.90507 v 0 l 2.408465,-2.62117 c -0.802822,-1.08088 -1.851405,-1.94109 -3.14575,-2.58062 -1.294346,-0.63954 -2.62965,-0.95929 -4.0059153,-0.95929 -1.277961,0 -2.4780977,0.25221 -3.6004087,0.75663 -1.122312,0.5044 -2.093071,1.18897 -2.912276,2.05368 -0.819205,0.86472 -1.466378,1.89607 -1.941517,3.09406 C 0.237569,155.0328 0,156.31635 0,157.68549 c 0,1.36912 0.233473,2.6482 0.700419,3.83718 0.466948,1.18898 1.110025,2.21582 1.929231,3.08054 0.819206,0.86471 1.789964,1.54929 2.912276,2.0537 1.122312,0.50441 2.3306399,0.75662 3.6249847,0.75662 z m 46.5718413,0.027 c 1.27796,0 2.474,-0.2522 3.58812,-0.75662 1.11412,-0.50442 2.07668,-1.19348 2.8877,-2.06721 0.81101,-0.87372 1.45409,-1.90958 1.92923,-3.10756 0.47515,-1.19799 0.7127,-2.47256 0.7127,-3.82367 0,-1.35112 -0.23755,-2.62567 -0.7127,-3.82365 -0.47514,-1.198 -1.11822,-2.23385 -1.92923,-3.10757 -0.81102,-0.87372 -1.77358,-1.56279 -2.8877,-2.06721 -1.11412,-0.50442 -2.31016,-0.75662 -3.58812,-0.75662 -1.26158,0 -2.44943,0.2522 -3.56355,0.75662 -1.11412,0.50442 -2.07668,1.19349 -2.8877,2.06721 -0.81101,0.87372 -1.454084,1.90957 -1.929224,3.10757 -0.47514,1.19798 -0.712711,2.47253 -0.712711,3.82365 0,1.35111 0.237571,2.62568 0.712711,3.82367 0.47514,1.19798 1.118214,2.23384 1.929224,3.10756 0.81102,0.87373 1.77358,1.56279 2.8877,2.06721 1.11412,0.50442 2.30197,0.75662 3.56355,0.75662 z m 0,-3.59397 c -0.77005,0 -1.48686,-0.15762 -2.15041,-0.47289 -0.66356,-0.31525 -1.237,-0.7476 -1.72034,-1.29706 -0.48333,-0.54946 -0.86426,-1.2025 -1.14279,-1.95912 -0.27853,-0.75665 -0.4178,-1.56731 -0.4178,-2.43202 0,-0.88272 0.13927,-1.6979 0.4178,-2.44551 0.27853,-0.74763 0.65946,-1.39616 1.14279,-1.94561 0.48334,-0.54946 1.05678,-0.98182 1.72034,-1.29708 0.66355,-0.31526 1.38036,-0.47289 2.15041,-0.47289 0.77005,0 1.49095,0.15763 2.1627,0.47289 0.67175,0.31526 1.24929,0.74762 1.73263,1.29708 0.48332,0.54945 0.86425,1.19798 1.14279,1.94561 0.27852,0.74761 0.41779,1.56279 0.41779,2.44551 0,0.86471 -0.13927,1.67537 -0.41779,2.43202 -0.27854,0.75662 -0.65947,1.40966 -1.14279,1.95912 -0.48334,0.54946 -1.06088,0.98181 -1.73263,1.29706 -0.67175,0.31527 -1.39265,0.47289 -2.1627,0.47289 z m 54.018418,3.29672 v -3.45885 h -9.41266 v -15.45677 h -3.563558 v 18.91562 z m 44.92523,0 v -3.45885 h -9.41268 v -15.45677 h -3.56353 v 18.91562 z m 45.2693,0 v -3.40479 h -9.75674 v -4.48571 h 6.36524 v -3.29672 h -6.36524 v -4.32357 h 9.65844 v -3.40481 h -13.22197 v 18.91563 z m 39.51848,0.27023 c 1.34351,0 2.65014,-0.31526 3.9199,-0.94578 1.26977,-0.63052 2.31426,-1.47722 3.13347,-2.5401 v 0 l -2.33473,-2.54009 c -0.60621,0.77464 -1.30254,1.36912 -2.08899,1.78347 -0.78644,0.41433 -1.63022,0.62151 -2.53135,0.62151 -0.8028,0 -1.5442,-0.15763 -2.22412,-0.47288 -0.67996,-0.31528 -1.26978,-0.74313 -1.76949,-1.28357 -0.49972,-0.54044 -0.89295,-1.18447 -1.17965,-1.93209 -0.28674,-0.74762 -0.4301,-1.5538 -0.4301,-2.41851 0,-0.88272 0.13926,-1.6979 0.41781,-2.44551 0.27852,-0.74763 0.66354,-1.39616 1.15507,-1.94561 0.49153,-0.54946 1.07725,-0.98182 1.7572,-1.29708 0.67993,-0.31526 1.40493,-0.47289 2.17498,-0.47289 0.91752,0 1.78587,0.22069 2.60507,0.66206 0.81921,0.44136 1.53193,1.07637 2.13814,1.90505 v 0 l 2.40845,-2.62115 c -0.8028,-1.0809 -1.8514,-1.94111 -3.14575,-2.58064 -1.29433,-0.63952 -2.62964,-0.95928 -4.00591,-0.95928 -1.27796,0 -2.47809,0.2522 -3.6004,0.75662 -1.12231,0.50442 -2.09307,1.18898 -2.91228,2.0537 -0.8192,0.86472 -1.46637,1.89606 -1.94151,3.09405 -0.47515,1.19798 -0.71272,2.48154 -0.71272,3.85068 0,1.36912 0.23348,2.64819 0.70042,3.83717 0.46696,1.18899 1.11003,2.21584 1.92924,3.08055 0.81919,0.86472 1.78995,1.54929 2.91226,2.05369 1.12233,0.50441 2.33064,0.75663 3.62499,0.75663 z m 47.1371,-0.27023 v -15.45677 h 5.77539 v -3.45885 h -15.13892 v 3.45885 h 5.79999 v 15.45677 z m 40.82102,0 v -18.91562 h -3.56354 v 18.91562 z m 41.0422,0.29725 c 1.27796,0 2.474,-0.2522 3.58812,-0.75662 1.11412,-0.50442 2.07669,-1.19348 2.8877,-2.06721 0.81102,-0.87372 1.45408,-1.90958 1.92923,-3.10756 0.47514,-1.19799 0.71271,-2.47256 0.71271,-3.82367 0,-1.35112 -0.23757,-2.62567 -0.71271,-3.82365 -0.47515,-1.198 -1.11821,-2.23385 -1.92923,-3.10757 -0.81101,-0.87372 -1.77358,-1.56279 -2.8877,-2.06721 -1.11412,-0.50442 -2.31016,-0.75662 -3.58812,-0.75662 -1.26158,0 -2.44942,0.2522 -3.56356,0.75662 -1.1141,0.50442 -2.07669,1.19349 -2.88768,2.06721 -0.81102,0.87372 -1.4541,1.90957 -1.92923,3.10757 -0.47515,1.19798 -0.71272,2.47253 -0.71272,3.82365 0,1.35111 0.23757,2.62568 0.71272,3.82367 0.47513,1.19798 1.11821,2.23384 1.92923,3.10756 0.81099,0.87373 1.77358,1.56279 2.88768,2.06721 1.11414,0.50442 2.30198,0.75662 3.56356,0.75662 z m 0,-3.59397 c -0.77004,0 -1.48687,-0.15762 -2.15041,-0.47289 -0.66356,-0.31525 -1.237,-0.7476 -1.72034,-1.29706 -0.48333,-0.54946 -0.86425,-1.2025 -1.1428,-1.95912 -0.27851,-0.75665 -0.41778,-1.56731 -0.41778,-2.43202 0,-0.88272 0.13927,-1.6979 0.41778,-2.44551 0.27855,-0.74763 0.65947,-1.39616 1.1428,-1.94561 0.48334,-0.54946 1.05678,-0.98182 1.72034,-1.29708 0.66354,-0.31526 1.38037,-0.47289 2.15041,-0.47289 0.77004,0 1.49096,0.15763 2.1627,0.47289 0.67176,0.31526 1.2493,0.74762 1.73263,1.29708 0.48332,0.54945 0.86425,1.19798 1.14278,1.94561 0.27853,0.74761 0.4178,1.56279 0.4178,2.44551 0,0.86471 -0.13927,1.67537 -0.4178,2.43202 -0.27853,0.75662 -0.65946,1.40966 -1.14278,1.95912 -0.48333,0.54946 -1.06087,0.98181 -1.73263,1.29706 -0.67174,0.31527 -1.39266,0.47289 -2.1627,0.47289 z m 44.40913,3.29672 v -12.64645 l 8.7737,12.64645 h 3.14575 v -18.91562 h -3.34236 v 12.24112 l -8.55252,-12.24112 h -3.39151 v 18.91562 z"
     id="COLLECTION"
     inkscape:connector-curvature="0"
     style="fill:#ffffff;fill-rule:nonzero;stroke:none;stroke-width:1.10124528" />
  <g
     id="g48"
     transform="translate(4.1033511,-118.02301)">
    <path
       d="m 98.368707,123.56449 -3.911684,9.67624 h 7.837657 z m -1.627486,-2.59162 h 3.269259 l 8.12318,19.44364 h -2.99801 l -1.94157,-4.98788 h -9.607908 l -1.941568,4.98788 h -3.040839 z"
       style="font-style:normal;font-weight:normal;font-size:40px;line-height:125%;font-family:sans-serif;letter-spacing:0px;word-spacing:0px;fill:#ffffff;fill-opacity:1;stroke:#ffffff;stroke-width:0.69800001;stroke-linecap:butt;stroke-linejoin:miter;stroke-miterlimit:4;stroke-dasharray:none;stroke-opacity:1"
       id="path36"
       inkscape:connector-curvature="0" />
    <path
       d="m 149.94112,131.30027 q 0.92796,0.28651 1.79881,1.22418 0.88512,0.93767 1.77025,2.5786 l 2.92663,5.31346 h -3.09794 l -2.72677,-4.98788 q -1.05644,-1.95348 -2.05577,-2.59162 -0.98506,-0.63814 -2.69821,-0.63814 h -3.14077 v 8.21764 h -2.88381 v -19.44364 h 6.50997 q 3.65472,0 5.45352,1.39348 1.79881,1.39349 1.79881,4.2065 0,1.83627 -0.94223,3.04743 -0.92796,1.21115 -2.71249,1.67999 z m -7.22378,-8.16555 v 6.9023 h 3.62617 q 2.08433,0 3.14077,-0.87256 1.07072,-0.88557 1.07072,-2.59161 0,-1.70604 -1.07072,-2.56557 -1.05644,-0.87256 -3.14077,-0.87256 z"
       style="font-style:normal;font-weight:normal;font-size:40px;line-height:125%;font-family:sans-serif;letter-spacing:0px;word-spacing:0px;fill:#ffffff;fill-opacity:1;stroke:#ffffff;stroke-width:0.69800001;stroke-linecap:butt;stroke-linejoin:miter;stroke-miterlimit:4;stroke-dasharray:none;stroke-opacity:1"
       id="path38"
       inkscape:connector-curvature="0" />
    <path
       d="m 200.69712,122.47054 v 2.77394 q -1.45617,-1.2372 -3.11221,-1.84929 -1.64177,-0.61209 -3.49768,-0.61209 -3.65472,0 -5.59629,2.04464 -1.94157,2.03162 -1.94157,5.88649 0,3.84184 1.94157,5.88649 1.94157,2.03161 5.59629,2.03161 1.85591,0 3.49768,-0.61209 1.65604,-0.61209 3.11221,-1.84929 v 2.74789 q -1.51328,0.93768 -3.21215,1.40651 -1.6846,0.46884 -3.56906,0.46884 -4.83964,0 -7.62351,-2.69581 -2.78386,-2.70882 -2.78386,-7.38415 0,-4.68836 2.78386,-7.38416 2.78387,-2.70883 7.62351,-2.70883 1.91302,0 3.59761,0.46884 1.69888,0.45581 3.1836,1.38046 z"
       style="font-style:normal;font-weight:normal;font-size:40px;line-height:125%;font-family:sans-serif;letter-spacing:0px;word-spacing:0px;fill:#ffffff;fill-opacity:1;stroke:#ffffff;stroke-width:0.69800001;stroke-linecap:butt;stroke-linejoin:miter;stroke-miterlimit:4;stroke-dasharray:none;stroke-opacity:1"
       id="path40"
       inkscape:connector-curvature="0" />
    <path
       d="m 238.86281,123.56449 -3.91168,9.67624 h 7.83765 z m -1.62749,-2.59162 h 3.26926 l 8.12318,19.44364 h -2.998 l -1.94157,-4.98788 h -9.60792 l -1.94157,4.98788 h -3.04083 z"
       style="font-style:normal;font-weight:normal;font-size:40px;line-height:125%;font-family:sans-serif;letter-spacing:0px;word-spacing:0px;fill:#ffffff;fill-opacity:1;stroke:#ffffff;stroke-width:0.69800001;stroke-linecap:butt;stroke-linejoin:miter;stroke-miterlimit:4;stroke-dasharray:none;stroke-opacity:1"
       id="path42"
       inkscape:connector-curvature="0" />
    <path
       d="m 277.21144,123.13472 v 15.11994 h 3.48341 q 4.41135,0 6.45285,-1.82325 2.05578,-1.82325 2.05578,-5.75625 0,-3.90696 -2.05578,-5.71719 -2.0415,-1.82325 -6.45285,-1.82325 z m -2.8838,-2.16185 h 5.92464 q 6.19589,0 9.09396,2.3572 2.89808,2.34418 2.89808,7.34509 0,5.02695 -2.91235,7.38415 -2.91235,2.3572 -9.07969,2.3572 h -5.92464 z"
       style="font-style:normal;font-weight:normal;font-size:40px;line-height:125%;font-family:sans-serif;letter-spacing:0px;word-spacing:0px;fill:#ffffff;fill-opacity:1;stroke:#ffffff;stroke-width:0.69800001;stroke-linecap:butt;stroke-linejoin:miter;stroke-miterlimit:4;stroke-dasharray:none;stroke-opacity:1"
       id="path44"
       inkscape:connector-curvature="0" />
    <path
       d="m 321.42893,120.97287 h 13.47677 v 2.21394 h -10.59297 v 5.75626 h 10.15041 v 2.21394 h -10.15041 v 7.04556 h 10.84994 v 2.21394 h -13.73374 z"
       style="font-style:normal;font-weight:normal;font-size:40px;line-height:125%;font-family:sans-serif;letter-spacing:0px;word-spacing:0px;fill:#ffffff;fill-opacity:1;stroke:#ffffff;stroke-width:0.69800001;stroke-linecap:butt;stroke-linejoin:miter;stroke-miterlimit:4;stroke-dasharray:none;stroke-opacity:1"
       id="path46"
       inkscape:connector-curvature="0" />
  </g>
  <path
     style="fill:#ffffff;fill-opacity:1;fill-rule:nonzero;stroke:none;stroke-width:0.40783447"
     d="M 139.49805 67.394531 C 123.56224 67.394531 110.64453 79.819826 110.64453 95.136719 C 110.64453 110.45321 123.56224 122.86914 139.49805 122.86914 C 146.60372 122.86914 153.10473 120.39633 158.13281 116.30273 L 150.41992 107.43359 C 147.527 109.94742 143.70536 111.49219 139.49805 111.49219 C 130.48985 111.49219 123.1875 104.47296 123.1875 95.814453 C 123.1875 87.155933 130.48985 80.136719 139.49805 80.136719 C 143.49911 80.136719 147.15844 81.526263 149.99609 83.824219 L 157.8457 73.726562 C 152.85878 69.77108 146.4674 67.394531 139.49805 67.394531 z "
     id="path14" />
  <path
     style="fill:#ffffff;fill-opacity:1;fill-rule:nonzero;stroke:none;stroke-width:0.40783447"
     d="M 356.46484 67.394531 C 340.52901 67.394531 327.61133 79.819826 327.61133 95.136719 C 327.61133 110.45321 340.52901 122.86914 356.46484 122.86914 C 372.40064 122.86914 385.32031 110.45321 385.32031 95.136719 C 385.32031 79.819826 372.40064 67.394531 356.46484 67.394531 z M 356.46484 79.458984 C 365.47343 79.458984 372.77539 86.478202 372.77539 95.136719 C 372.77539 103.79523 365.47343 110.81445 356.46484 110.81445 C 347.45661 110.81445 340.1543 103.79523 340.1543 95.136719 C 340.1543 86.478202 347.45661 79.458984 356.46484 79.458984 z "
     id="path20" />
  <path
     inkscape:connector-curvature="0"
     id="path24"
     style="fill:#ffffff;fill-opacity:1;fill-rule:nonzero;stroke:none;stroke-width:0.40783447"
     d="m 198.76973,122.86936 c 0,0 -13.86637,0 -13.86637,0 0,0 0,-55.202823 0,-55.202823 0,0 13.86637,0 13.86637,0 0,0 0,55.202823 0,55.202823 z" />
  <path
     inkscape:connector-curvature="0"
     id="path26"
     style="fill:#ffffff;fill-opacity:1;fill-rule:nonzero;stroke:none;stroke-width:0.40783447"
     d="m 323.76501,122.86936 c 0,0 -13.86636,0 -13.86636,0 0,0 0,-55.20322 0,-55.20322 0,0 13.86636,0 13.86636,0 0,0 0,55.20322 0,55.20322 z" />
  <path
     inkscape:connector-curvature="0"
     id="path28"
     style="fill:#ffffff;fill-opacity:1;fill-rule:nonzero;stroke:none;stroke-width:0.40783447"
     d="m 269.52662,122.86936 c 0,0 -13.86637,0 -13.86637,0 0,0 0,-55.20322 0,-55.20322 0,0 13.86637,0 13.86637,0 0,0 0,55.20322 0,55.20322 z" />
  <path
     inkscape:connector-curvature="0"
     id="path30"
     style="fill:#ffffff;fill-opacity:1;fill-rule:nonzero;stroke:none;stroke-width:0.40783447"
     d="m 388.68518,122.66544 c 0,0 13.66246,0 13.66246,0 0,0 0,-24.266146 0,-24.266146 0,0 27.3249,24.470066 27.3249,24.470066 0,0 0,-56.902865 0,-56.902865 0,0 -13.86636,0 -13.86636,0 0,0 0,23.052605 0,23.052605 0,0 -27.03138,-25.092969 -27.03138,-25.092969 0,0 -0.0896,58.739309 -0.0896,58.739309 z" />
  <path
     id="path40-3"
     style="fill:#231f20;fill-opacity:1;fill-rule:nonzero;stroke:none;stroke-width:0.40783447"
     d="m -2.890625,36.623047 -0.056641,83.519533 65.1933596,-0.0547 c 0.44407,-1.71312 1.256102,-3.54915 2.542968,-5.46484 0.710555,-1.05777 1.21634,-2.22595 1.779297,-3.36328 -0.0011,-0.005 -7.92e-4,-0.0142 -0.002,-0.0195 0.210233,-2.52664 1.426636,-4.60829 2.632813,-6.76367 0.189341,-0.33834 0.416566,-0.76544 0.658203,-1.15234 0.191549,-0.80529 0.461143,-1.56354 1.017578,-2.1543 2.784559,-2.9563 4.249957,-3.572051 6.03125,-3.501951 0.09922,0.0039 0.213869,0.02474 0.316406,0.0332 0.330595,-1.676987 0.0789,-0.298817 0.117188,-1.652344 -0.366122,-0.962827 -0.661039,-2.026094 -0.845703,-3.220703 -0.433206,-0.37442 -0.857591,-0.720421 -1.267579,-1.019531 -0.250106,1.115658 -0.147876,2.284858 -0.208984,3.429687 0.09073,0.214553 0.14807,0.28549 -0.002,0.101563 0.0021,-0.03365 -3.4e-5,-0.06787 0.002,-0.101563 -0.08552,-0.202224 -0.201614,-0.530649 -0.201172,-0.912109 0.0054,-4.671741 -0.126343,-4.098836 1.212891,-6.609375 0.01339,-0.199836 0.101169,-0.78823 0.177734,-1.333985 -5e-6,-0.002 5e-6,-0.0039 0,-0.0059 -0.0061,-2.742778 0.285496,-5.06195 2.460938,-7.931641 0.207586,-1.348326 0.844087,-3.144065 1.070312,-3.958984 0.300081,-0.925803 0.651559,-2.225579 1.132813,-3.523437 1.449957,-5.938891 5.230739,-8.918611 8.808594,-8.917969 1.809933,3.25e-4 3.562782,0.767448 4.933593,2.287109 L 85.232422,36.634766 Z M 99.257812,78.042969 c -0.0054,0.126028 -0.0071,0.261295 -0.01562,0.380859 0.04009,-0.0019 0.103403,-0.004 0.142578,-0.0059 z m -20.638671,0.765625 c -0.03424,0.02231 -0.07177,0.04164 -0.105469,0.06445 -0.274322,0.865189 -0.471745,1.447465 -0.681641,2.078125 0.325392,0.01555 0.614283,0.02406 0.927735,0.03711 0.08236,-0.09716 0.252716,-0.306138 0.355468,-0.429687 -0.14574,-0.240736 -0.293657,-0.481004 -0.414062,-0.734375 -0.110208,-0.231914 -0.122365,-0.593636 -0.08203,-1.015625 z m -0.976563,5.654297 c -0.01202,0.06183 -0.03923,0.122259 -0.05664,0.183593 0.0035,7.25e-4 0.0062,0.0012 0.0098,0.002 -0.0021,0.01337 0.05354,-0.219847 0.04687,-0.185547 z m -1.615234,3.283203 c -0.599955,1.144864 -1.675522,3.27033 -0.15625,1.099609 0.377892,-1.472191 0.114257,-0.394438 0.15625,-1.099609 z m 27.527346,2.982422 c -0.427,0.419876 -0.87609,0.82766 -1.34571,1.222656 -0.0258,2.06571 -0.009,3.915002 -1.0996,6.074219 -0.1843,0.364701 -0.40307,0.707092 -0.63868,1.039062 0.36779,-0.152663 0.33837,0.07515 0.0566,0.742188 0.24216,-0.102379 0.49741,-0.214286 0.69922,-0.289063 0.0702,-0.02601 0.14448,-0.08059 0.22071,-0.142578 0.36263,-0.472294 0.71767,-0.951719 1.03125,-1.457031 0.31732,-0.511345 -0.41839,0.958695 -1.03125,1.457031 -0.21955,0.285934 -0.43948,0.570535 -0.66211,0.85352 -0.12535,0.15931 -0.54331,0.51871 -0.75196,0.70117 0.24057,-0.53018 0.36936,-0.82738 0.49414,-1.123049 -0.30805,0.130235 -0.632543,0.268789 -0.986324,0.427739 0.329052,-0.377935 0.642524,-0.76532 0.929684,-1.169927 -0.521462,0.216456 -1.760043,0.987647 -3.791012,1.589847 0.313974,0.13344 0.621578,0.27977 0.921874,0.43945 0.655783,-0.28113 1.318996,-0.57962 1.9375,-0.85742 -0.381803,0.43839 -0.77257,0.87091 -1.15625,1.30859 0.890063,0.55697 1.726988,1.21909 2.523438,1.96289 0.44904,0.41937 0.79766,0.93351 1.19336,1.4043 -0.0748,-0.10397 -0.12953,-0.20237 -0.0586,-0.20508 0.25704,-0.01 0.41524,0.3035 0.62304,0.45508 2.57716,2.70418 2.50685,2.17573 4.07227,5.92578 0.24246,0.58083 0.32484,1.21397 0.48242,1.82422 -0.0109,-0.0801 -0.0142,-0.1569 0.0156,-0.19531 0.0619,-0.0797 0.15057,0.13908 0.19726,0.22851 0.29438,0.56385 0.54663,1.14849 0.82031,1.72266 0.84459,3.35485 0.88114,2.76177 0.66797,5.38281 l 4.56641,-0.004 z m -2.87696,3.367187 c -0.008,0.160633 -0.009,0.322102 -0.0215,0.482422 0.005,0.101952 0.004,0.172967 0.006,0.248047 0.0211,-0.259867 0.0358,-0.511756 0.0156,-0.730469 z m -0.0293,0.845703 c 2.8e-4,0.0122 0.002,0.03024 0.002,0.04297 9.3e-4,-0.01049 7.5e-4,-0.02078 0.002,-0.03125 -10e-4,-0.0023 -0.003,-0.0077 -0.004,-0.01172 z m -30.869143,8.714844 c -0.03084,0.0453 -0.08661,0.12019 -0.109375,0.15625 -0.215735,0.93911 -1.046224,3.6951 -0.646484,2.81836 0.41431,-0.90871 0.543553,-1.96876 0.755859,-2.97461 z m -2.246094,5.87109 c 0.170922,-0.25787 -0.26873,0.3174 -0.435547,0.74805 0.141743,-0.25092 0.275728,-0.50693 0.435547,-0.74805 z" />
  <g
     id="g137"
     transform="matrix(1,0,0,1.0235933,-1.0617496,-1.8963575)">
    <g
       id="g129">
      <path
         inkscape:connector-curvature="0"
         id="path42-6"
         style="fill:#0eaaeb;fill-opacity:1;fill-rule:nonzero;stroke:none;stroke-width:0.40783447"
         d="m 65.463612,118.87903 c 0,0 -67.2924874,0 -67.2924874,0 0,0 0,-15.22529 0,-15.22529 0,0 67.2924874,0 67.2924874,0 0,0 0,15.22529 0,15.22529 z" />
      <path
         inkscape:connector-curvature="0"
         id="path44-7"
         style="fill:#54be36;fill-opacity:1;fill-rule:nonzero;stroke:none;stroke-width:0.40783447"
         d="m 65.463612,102.40156 c 0,0 -67.2924874,0 -67.2924874,0 0,0 0,-15.225288 0,-15.225288 0,0 72.5800004,0 72.5800004,0 0,0 -5.287513,15.225288 -5.287513,15.225288 z" />
      <path
         inkscape:connector-curvature="0"
         id="path46-5"
         style="fill:#f7de18;fill-opacity:1;fill-rule:nonzero;stroke:none;stroke-width:0.40783447"
         d="m 75.156851,85.883469 c 0,0 -76.9857264,0 -76.9857264,0 0,0 0,-15.233254 0,-15.233254 0,0 80.8043944,0 80.8043944,0 0,0 -3.818668,15.233254 -3.818668,15.233254 z" />
      <path
         inkscape:connector-curvature="0"
         id="path48"
         style="fill:#ef8122;fill-opacity:1;fill-rule:nonzero;stroke:none;stroke-width:0.40783447"
         d="m 79.592051,69.308823 c 0,0 -81.4209264,0 -81.4209264,0 0,0 0,-15.235643 0,-15.235643 0,0 84.9161934,0 84.9161934,0 0,0 -3.495267,15.235643 -3.495267,15.235643 z" />
      <path
         inkscape:connector-curvature="0"
         id="path50"
         style="fill:#eb222c;fill-opacity:1;fill-rule:nonzero;stroke:none;stroke-width:0.40783447"
         d="m 83.381249,52.867197 c 0,0 -85.2101244,0 -85.2101244,0 0,0 0,-15.235644 0,-15.235644 0,0 87.0017654,0 87.0017654,0 0,0 -1.791641,15.235644 -1.791641,15.235644 z" />
    </g>
  </g>
  <path
     style="fill:#ffffff;fill-opacity:1;fill-rule:nonzero;stroke:none;stroke-width:0.40783447"
     d="M 85.232422 36.634766 L 54.935547 120.08398 L 69.923828 120.08203 L 74.25 106.6875 L 95.335938 106.6875 L 99.097656 120.04688 L 114.36719 120.04688 L 85.232422 36.634766 z M 85.544922 72.087891 L 92.679688 92.576172 L 77.988281 92.591797 L 85.544922 72.087891 z "
     id="path54" />
  <path
     inkscape:connector-curvature="0"
     id="path58"
     style="fill:#ffffff;fill-opacity:1;fill-rule:nonzero;stroke:none;stroke-width:0.40783447"
     d="m 276.78241,88.145678 c -7.28686,-8.209663 0.91762,-21.065209 10.65945,-20.555016 2.34505,-0.101959 14.86724,0 14.86724,0 0,0 0,11.018896 0,11.018896 0,0 -11.73759,0 -13.21758,0 -2.41594,0 -3.7414,1.989588 -1.76118,4.188868 0.91763,1.019586 13.08138,13.281304 13.89704,14.300891 -9.33518,-0.03385 -14.90866,4.452323 -24.44497,-8.953639 z" />
  <path
     inkscape:connector-curvature="0"
     id="path60"
     style="fill:#ffffff;fill-opacity:1;fill-rule:nonzero;stroke:none;stroke-width:0.40783447"
     d="m 304.51595,101.24298 c 7.28685,8.62466 -0.91763,22.12104 -10.65946,21.58535 -2.34504,0.10714 -19.27017,-0.0295 -19.27017,-0.0295 0,0 0,-11.53885 0,-11.53885 0,0 16.14052,0 17.62051,0 2.41594,0 3.74141,-2.08896 1.76118,-4.39936 -0.91763,-1.07096 -13.49398,-13.952793 -14.30965,-15.024158 9.33519,0.03544 15.02097,-4.559063 24.85759,9.406478 z" />
  <path
     inkscape:connector-curvature="0"
     id="path62"
     style="fill:#ffffff;fill-opacity:1;fill-rule:nonzero;stroke:none;stroke-width:0.40783447"
     d="m 164.66128,122.08218 c 0,0 13.45854,0 13.45854,0 0,0 0,-62.398668 0,-62.398668 0,0 23.24656,0 23.24656,0 0,0 27.32471,73.818028 27.32471,73.818028 0,0 28.95744,-73.614111 28.95744,-73.614111 0,0 71.98279,0 71.98279,0 0,0 -6.32144,-13.866372 -6.32144,-13.866372 0,0 -76.06112,0 -76.06112,0 0,0 -17.742,46.493129 -17.742,46.493129 0,0 -17.91524,-46.519014 -17.91524,-46.519014 0,0 -72.857,0 -72.857,0 0,0 -7.51567,13.68834 -7.51567,13.68834 0,0 33.44243,0 33.44243,0 0,0 0,62.398668 0,62.398668 z" />
</svg>
