<?xml version="1.0" encoding="UTF-8" standalone="no"?>
<svg
   version="1.1"
   viewBox="0 0 500 200"
   id="svg92"
   sodipodi:docname="advision.svg"
   width="500"
   height="200"
   inkscape:version="1.2.2 (b0a8486541, 2022-12-01)"
   xmlns:inkscape="http://www.inkscape.org/namespaces/inkscape"
   xmlns:sodipodi="http://sodipodi.sourceforge.net/DTD/sodipodi-0.dtd"
   xmlns="http://www.w3.org/2000/svg"
   xmlns:svg="http://www.w3.org/2000/svg">
  <defs
     id="defs96" />
  <sodipodi:namedview
     id="namedview94"
     pagecolor="#505050"
     bordercolor="#ffffff"
     borderopacity="1"
     inkscape:showpageshadow="0"
     inkscape:pageopacity="0"
     inkscape:pagecheckerboard="1"
     inkscape:deskcolor="#505050"
     showgrid="false"
     inkscape:zoom="1.5827407"
     inkscape:cx="372.77111"
     inkscape:cy="220.8195"
     inkscape:window-width="1670"
     inkscape:window-height="910"
     inkscape:window-x="0"
     inkscape:window-y="0"
     inkscape:window-maximized="1"
     inkscape:current-layer="svg92" />
  <g
     stroke-width="2"
     fill="none"
     stroke-linecap="butt"
     id="g46"
     transform="matrix(0.80575697,0,0,0.80575697,8.4222923,-12.029655)">
    <path
       stroke="#d88880"
       vector-effect="non-scaling-stroke"
       d="m 94.44,118.32 0.06,19.62 a 0.56,0.55 90 0 0 0.55,0.56 h 11.64 a 0.62,0.61 -0.5 0 0 0.62,-0.62 l -0.37,-72.06 a 0.51,0.5 90 0 0 -0.5,-0.51 L 94.9,65.19 a 1.72,1.71 -72 0 0 -1.42,0.73 L 42.57,137.7 q -0.56,0.8 0.42,0.8 h 13.85 a 1.31,1.27 -71.9 0 0 1.05,-0.55 l 14.02,-19.59 a 1.47,1.44 17.2 0 1 1.19,-0.61 l 20.83,0.06 a 0.51,0.51 0 0 1 0.51,0.51"
       id="path2" />
    <path
       stroke="#d88880"
       vector-effect="non-scaling-stroke"
       d="M 174.15,114.83 C 180.83,93 168.64,66.04 143.56,65.44 q -13.65,-0.33 -28.19,-0.18 a 0.63,0.63 -0.5 0 0 -0.62,0.63 v 71.8 a 0.81,0.81 0 0 0 0.81,0.81 c 21.99,0 50.11,4.07 58.59,-23.67"
       id="path4" />
    <path
       stroke="#d88880"
       vector-effect="non-scaling-stroke"
       d="m 235.44,77.16 0.12,60.77 a 0.52,0.51 90 0 0 0.51,0.52 l 36.23,-0.13 a 0.51,0.5 0 0 0 0.51,-0.5 l -0.12,-8.51 a 0.51,0.51 0.6 0 0 -0.5,-0.51 l -25.62,-0.3 a 0.84,0.84 0.3 0 1 -0.83,-0.84 l 0.19,-20.48 a 0.51,0.51 0 0 1 0.5,-0.5 l 25.76,-0.48 a 0.53,0.52 -90 0 0 0.51,-0.52 l 0.11,-8.19 a 1.01,0.99 0.3 0 0 -1.01,-1 l -25.36,-0.17 a 0.52,0.51 0 0 1 -0.52,-0.51 l -0.15,-19.94 a 0.92,0.88 -0.6 0 1 0.91,-0.89 l 25.38,-0.15 a 0.55,0.52 0 0 0 0.54,-0.51 l 0.11,-8.29 a 0.8,0.76 0.7 0 0 -0.8,-0.78 h -41.59 a 1.17,1.15 16 0 0 -0.98,0.53 l -35.04,53.04 q -0.99,1.51 -0.98,-0.3 l 0.24,-52.58 a 0.52,0.5 -89.4 0 0 -0.5,-0.53 l -11.75,-0.12 a 0.52,0.5 90 0 0 -0.5,0.52 l 0.37,72.01 a 0.53,0.51 90 0 0 0.5,0.52 l 13.51,0.11 a 0.93,0.87 -72.1 0 0 0.77,-0.43 l 39.11,-60.97 q 0.37,-0.57 0.37,0.11"
       id="path6" />
    <path
       stroke="#d88880"
       vector-effect="non-scaling-stroke"
       d="M 325.82,115.6 291.19,66 a 1.78,1.76 72.2 0 0 -1.44,-0.75 h -9.95 a 1.04,1.03 -89.4 0 0 -1.03,1.02 c -0.15,7.76 0.24,15.98 0.12,22.98 q -0.4,24.28 0.04,48.56 a 0.55,0.5 89.4 0 0 0.5,0.54 l 9.63,0.01 a 0.54,0.5 -90 0 0 0.5,-0.54 l -0.07,-54.35 q 0,-2.11 1.14,-0.33 l 34.88,54.68 a 1.51,1.49 -16.2 0 0 1.26,0.68 h 9.73 A 0.5,0.5 0 0 0 337,138 V 65.81 a 0.56,0.56 0 0 0 -0.56,-0.56 h -9.69 a 0.5,0.5 0 0 0 -0.5,0.5 v 49.71 q 0,0.75 -0.43,0.14"
       id="path8" />
    <path
       stroke="#d88880"
       vector-effect="non-scaling-stroke"
       d="M 345.09,74.24 A 0.77,0.71 89.6 0 0 345.8,75 h 12.6 a 0.85,0.85 0 0 1 0.85,0.85 v 61.91 a 0.73,0.72 90 0 0 0.72,0.73 l 9.48,-0.04 a 0.51,0.48 89.4 0 0 0.48,-0.52 l -0.18,-62.04 a 1,0.94 -0.6 0 1 0.98,-0.94 l 12.72,-0.22 a 0.54,0.51 89.5 0 0 0.5,-0.54 l 0.04,-8.38 a 0.56,0.56 0 0 0 -0.56,-0.56 H 345.64 A 0.72,0.64 89.6 0 0 345,65.98 l 0.09,8.26"
       id="path10" />
    <path
       stroke="#d88880"
       vector-effect="non-scaling-stroke"
       d="m 436.51,126.92 q 2.68,-5.32 2.69,-11.67 0.05,-24.75 0.05,-49.49 a 0.5,0.47 89.4 0 0 -0.48,-0.5 l -9.96,0.25 a 0.55,0.5 88.9 0 0 -0.49,0.56 q 0.21,24.21 -0.07,48.43 c -0.24,20.94 -27.5,20.34 -27.5,0.75 q 0,-24 0,-49.22 a 0.78,0.78 89.9 0 0 -0.78,-0.78 h -9.41 A 0.56,0.56 0 0 0 390,65.81 q 0,20.54 0,40.63 0,13.97 1.53,18.45 c 6.47,18.96 35.84,20.21 44.98,2.03"
       id="path12" />
    <path
       stroke="#d88880"
       vector-effect="non-scaling-stroke"
       d="m 475.57,111.26 c 15.46,-1.71 22.06,-13.46 19.61,-27.99 Q 493.04,70.53 480.67,66.72 c -8.63,-2.66 -22.58,-1.47 -33.16,-1.47 A 0.51,0.51 -89.8 0 0 447,65.76 l -0.06,72.06 a 0.53,0.5 -89.5 0 0 0.49,0.53 l 9.6,0.12 a 0.72,0.7 90 0 0 0.71,-0.73 l -0.17,-32.16 q -0.01,-1.51 0.86,-0.28 l 23.1,32.74 a 0.97,0.94 71.9 0 0 0.78,0.41 l 12.32,0.04 q 0.87,0 0.34,-0.7 l -19.61,-26.07 q -0.3,-0.4 0.21,-0.46"
       id="path14" />
    <path
       stroke="#d88880"
       vector-effect="non-scaling-stroke"
       d="m 512.33,127.94 0.12,-20.75 a 0.52,0.49 89.4 0 1 0.48,-0.52 l 27.67,-0.15 a 1.16,1.14 -0.3 0 0 1.15,-1.14 v -8.22 a 0.66,0.66 90 0 0 -0.66,-0.66 h -28.08 a 0.58,0.57 0 0 1 -0.58,-0.57 l 0.13,-20.37 a 0.51,0.5 0 0 1 0.51,-0.5 l 27.87,-0.12 a 0.57,0.5 0.5 0 0 0.57,-0.49 l 0.11,-8.51 a 0.56,0.5 0.5 0 0 -0.56,-0.51 l -38.75,-0.17 a 0.56,0.55 -89.5 0 0 -0.56,0.56 v 71.95 a 0.73,0.73 0.1 0 0 0.73,0.73 h 38.79 a 0.45,0.41 -89.3 0 0 0.41,-0.44 l 0.14,-8.36 a 0.94,0.9 -89.4 0 0 -0.9,-0.96 l -28.11,-0.28 a 0.52,0.49 -89.4 0 1 -0.48,-0.52"
       id="path16" />
    <path
       stroke="#d88880"
       vector-effect="non-scaling-stroke"
       d="m 93.47,84.14 -14.39,22.37 q -0.27,0.41 0.23,0.41 l 14.63,-0.15 a 0.88,0.86 89.3 0 0 0.85,-0.89 L 94.65,84.52 q -0.02,-2.19 -1.18,-0.38"
       id="path18" />
    <path
       stroke="#d88880"
       vector-effect="non-scaling-stroke"
       d="m 145.93,127.88 c 27.73,-5.66 24.69,-49.11 -2.18,-52.38 q -7.96,-0.97 -17.56,-0.35 a 0.55,0.54 -1.8 0 0 -0.51,0.53 l -0.18,52.49 a 0.52,0.52 -1.1 0 0 0.54,0.52 c 6.56,-0.29 14.41,0.31 19.89,-0.81"
       id="path20" />
    <path
       stroke="#d88880"
       vector-effect="non-scaling-stroke"
       d="m 482.36,96.86 c 3.93,-4.51 3.26,-12.41 -0.33,-16.57 -5.08,-5.88 -16.41,-6.09 -23.72,-5.05 a 0.58,0.57 -4 0 0 -0.5,0.57 l -0.06,26.62 a 0.55,0.54 1.7 0 0 0.52,0.54 c 8.05,0.36 18.46,0.37 24.09,-6.11"
       id="path22" />
    <path
       stroke="#c76e59"
       vector-effect="non-scaling-stroke"
       d="m 248,233.79 q 3.03,1.5 6.25,0.25"
       id="path24" />
    <path
       stroke="#d88880"
       vector-effect="non-scaling-stroke"
       d="m 254.25,234.04 q 9.62,-1.33 15.11,-8.17 c 8.93,-11.15 6.05,-29.28 -7.59,-35.16 q -9.93,-4.29 -12.27,-4.96 c -12.74,-3.65 -9.42,-20.74 3.22,-19.56 q 8.04,0.76 9.16,9.87 a 0.62,0.56 86.4 0 0 0.55,0.54 l 9.7,0.11 a 0.86,0.82 88.1 0 0 0.83,-0.93 c -2.65,-30.85 -49.35,-23.46 -41.97,6.72 2.87,11.73 16.03,14.54 25.61,18.61 12.74,5.41 6.4,25.76 -8.11,22.27 q -7.8,-1.88 -9.47,-12.3 a 0.95,0.88 84.5 0 0 -0.9,-0.8 l -9.48,0.25 a 0.57,0.53 87 0 0 -0.51,0.62 q 1.65,19.3 19.87,22.64"
       id="path26" />
    <path
       stroke="#efe5d9"
       vector-effect="non-scaling-stroke"
       d="M 254.25,234.04 248,233.79"
       id="path28" />
    <path
       stroke="#c76e59"
       vector-effect="non-scaling-stroke"
       d="m 328,233.79 q 3.68,1.5 7.5,0.25"
       id="path30" />
    <path
       stroke="#d88880"
       vector-effect="non-scaling-stroke"
       d="m 335.5,234.04 q 12.53,-1.61 21.56,-9.12 C 381.38,204.7 372.58,164.03 341.5,157 c -27.65,-6.25 -52.9,16.54 -47.9,44.93 3.02,17.14 17.17,29.7 34.4,31.86"
       id="path32" />
    <path
       stroke="#efe5d9"
       vector-effect="non-scaling-stroke"
       d="M 335.5,234.04 328,233.79"
       id="path34" />
    <path
       stroke="#d88880"
       vector-effect="non-scaling-stroke"
       d="m 180.09,212.36 q -0.42,1.23 -0.88,0.02 l -20.62,-54.55 a 0.6,0.56 78.4 0 0 -0.55,-0.39 l -10.98,0.09 a 0.38,0.37 79.1 0 0 -0.33,0.51 l 26.54,73.8 a 0.76,0.67 79.1 0 0 0.66,0.51 h 11.64 a 0.75,0.66 -79.7 0 0 0.65,-0.51 l 24.23,-73.69 a 0.46,0.44 -80.4 0 0 -0.41,-0.6 l -10.98,-0.02 a 0.75,0.68 -79.9 0 0 -0.66,0.51 l -18.31,54.32"
       id="path36" />
    <path
       stroke="#d88880"
       vector-effect="non-scaling-stroke"
       d="m 222.5,157.81 a 0.47,0.47 0 0 0 -0.47,-0.47 h -10.06 a 0.47,0.47 0 0 0 -0.47,0.47 v 74.22 a 0.47,0.47 0 0 0 0.47,0.47 h 10.06 a 0.47,0.47 0 0 0 0.47,-0.47 v -74.22"
       id="path38" />
    <path
       stroke="#d88880"
       vector-effect="non-scaling-stroke"
       d="m 290.25,157.56 a 0.26,0.26 0 0 0 -0.26,-0.26 h -10.48 a 0.26,0.26 0 0 0 -0.26,0.26 v 74.7 a 0.26,0.26 0 0 0 0.26,0.26 h 10.48 a 0.26,0.26 0 0 0 0.26,-0.26 v -74.7"
       id="path40" />
    <path
       stroke="#d88880"
       vector-effect="non-scaling-stroke"
       d="m 384.81,175.39 q 0,-1.38 0.75,-0.21 l 36.39,56.89 a 0.96,0.95 -16.3 0 0 0.8,0.43 h 10.44 a 0.56,0.56 0 0 0 0.56,-0.56 l 0.06,-73.8 a 0.58,0.58 -86.7 0 0 -0.51,-0.58 q -5.18,-0.6 -10.29,0 a 0.58,0.57 -3.4 0 0 -0.51,0.57 l 0.07,50.32 q 0,1.49 -0.85,0.27 l -35.19,-50.53 a 1.97,1.74 70.1 0 0 -1.55,-0.85 l -10.67,0.17 a 0.55,0.51 89.5 0 0 -0.5,0.55 l -0.06,73.54 a 0.9,0.89 90 0 0 0.89,0.9 h 9.44 a 0.74,0.74 0 0 0 0.74,-0.74 l -0.01,-56.37"
       id="path42" />
    <path
       stroke="#d88880"
       vector-effect="non-scaling-stroke"
       d="m 332.09,223.94 a 28.99,28.01 90 0 0 28.01,-28.99 28.99,28.01 90 0 0 -28.01,-28.99 28.99,28.01 90 0 0 -28.01,28.99 28.99,28.01 90 0 0 28.01,28.99"
       id="path44" />
  </g>
  <path
     fill="#b01000"
     d="m 450.02545,52.986874 33.28582,-0.153093 q 0.85411,0 0.37065,0.701008 L 459.0177,89.318456 a 0.78158426,0.77352669 16.4 0 1 -0.62849,0.33842 l -8.17037,0.0403 a 0.64460557,0.62849043 0 0 0 -0.64461,0.62849 l 0.0645,14.423054 a 0.65266314,0.66072071 0 0 1 -0.65266,0.66072 h -54.3322 a 1.3697868,1.4584201 73.6 0 1 -1.16834,-0.58821 l -9.76578,-13.891254 q -0.99108,-1.41007 -0.97496,0.31425 l 0.13698,13.585064 a 0.57208745,0.58820259 89.6 0 1 -0.58821,0.58015 h -18.51629 a 1.0152538,0.95885079 0.7 0 1 -1.01526,-0.98303 l 0.1531,-6.260734 q 0.0322,-1.12 -0.7413,-0.33842 c -13.49643,13.665644 -36.251,11.046934 -43.7526,-7.53382 a 0.62043286,0.59626015 79.1 0 0 -0.56403,-0.39482 l -5.21325,0.0403 a 0.40287848,0.41093605 0 0 0 -0.40288,0.41094 l -0.0483,14.302194 a 0.74935398,0.76546912 0.3 0 1 -0.74936,0.75741 h -18.33097 a 1.0958295,1.0716568 89.8 0 1 -1.07165,-1.08778 l -0.12893,-13.875134 a 0.41093605,0.44316633 0.5 0 0 -0.40287,-0.44317 l -5.11656,-0.0403 a 0.91050537,0.82992968 89.7 0 0 -0.83799,0.92662 l 0.24979,13.456144 a 1.0394265,1.0716568 89.4 0 1 -1.07166,1.0636 h -15.78478 a 1.8854713,1.8048956 72.8 0 1 -1.539,-0.85411 L 258.1748,90.277316 a 0.65266314,0.76546912 75.5 0 0 -0.62849,-0.30619 l -9.66103,0.0886 a 0.39482091,0.41093605 89.4 0 0 -0.40288,0.39482 l 0.0483,13.713984 a 1.2328082,1.2408657 89.8 0 1 -1.24087,1.24087 h -52.95434 a 0.99913864,0.99108107 0.2 0 1 -0.99914,-0.99914 l 0.0483,-13.762334 a 0.41093605,0.41093605 0 0 0 -0.41093,-0.41094 l -12.46506,-0.12892 a 1.0313689,1.1441749 18.3 0 0 -0.90245,0.51569 l -9.12117,14.189384 a 1.3536717,1.3053263 15.9 0 1 -1.12,0.59626 h -19.00781 a 0.80575697,0.76546912 89.4 0 1 -0.76547,-0.78965 l -0.14503,-10.700454 q 0,-0.41093 -0.29813,-0.0967 c -8.12203,8.798874 -18.12148,11.586794 -29.74049,11.586794 q -19.338169,0 -38.934178,0 a 0.74935398,0.74129641 0 0 1 -0.749354,-0.7413 l 0.0564,-13.915424 a 0.43510876,0.4512239 0 0 0 -0.435109,-0.45123 l -9.644911,0.0403 a 0.78158426,0.82992968 18.3 0 0 -0.636548,0.34648 L 57.936045,104.80508 a 1.4825928,1.4503625 17.5 0 1 -1.19252,0.60432 h -24.55946 q -1.055541,0 -0.443166,-0.85411 l 9.669084,-13.577004 q 0.475396,-0.67684 -0.354533,-0.67684 l -24.124364,-0.0483 q -0.402878,0 -0.185324,-0.33842 L 40.201347,53.784574 a 0.77352669,0.76546912 16.3 0 1 0.644606,-0.346476 h 26.581922 a 0.95885079,0.94273565 17.5 0 0 0.773527,-0.394821 L 80.747038,35.421373 a 1.6598594,1.6920896 17.8 0 1 1.345614,-0.709067 q 17.968378,-0.128921 35.211578,0.08058 c 13.18218,0.161152 22.44839,2.078853 30.65905,11.892973 q 0.70907,0.846045 0.69295,-0.282015 l -0.20949,-10.909949 a 0.77352669,0.80575697 89.4 0 1 0.80575,-0.789642 h 20.08752 a 0.82187211,0.80575697 0.3 0 1 0.82188,0.813814 l -0.12087,17.476869 a 0.39482091,0.39482091 0 0 0 0.39482,0.402878 l 6.92146,0.04029 a 1.5228807,1.5873412 17.7 0 0 1.30532,-0.709066 l 11.29672,-17.10622 a 2.0627378,2.0627378 0 0 1 1.71626,-0.918563 h 52.89794 a 1.5631685,1.6115139 73.1 0 1 1.30533,0.668778 l 12.08635,17.291545 a 1.2972687,1.1844627 70.8 0 0 1.0072,0.547914 l 6.23656,-0.0081 a 0.40287848,0.42705119 0 0 0 0.40288,-0.427051 l 0.0483,-17.364063 a 0.70100856,0.70906613 0 0 1 0.70101,-0.709066 h 70.07668 a 0.5317996,0.5317996 0 0 1 0.5318,0.531799 v 17.283487 a 0.70100856,0.68489342 89.7 0 0 0.69295,0.701009 l 9.72549,-0.02417 a 0.41093605,0.41093605 0 0 0 0.41094,-0.410936 l 0.0483,-17.347947 a 0.73323884,0.72518127 89.7 0 1 0.71713,-0.733239 q 18.76608,-0.08863 37.01647,0.128921 c 8.92779,0.104748 14.88233,0.942736 20.95774,6.59915 q 0.55597,0.523742 0.5318,-0.2659 l -0.18532,-5.664472 a 0.76546912,0.84604481 89 0 1 0.84604,-0.797699 h 41.04526 a 0.7976994,0.7976994 0 0 1 0.7977,0.797699 l 0.0483,17.090106 a 0.40287848,0.39482091 0 0 0 0.40288,0.39482 z m -365.50747,30.320632 0.04835,15.80895 a 0.44316633,0.4512239 0 0 0 0.443166,0.45123 h 9.379011 a 0.49151175,0.49956932 89.5 0 0 0.49957,-0.49957 L 94.589942,41.005268 a 0.40287848,0.41093605 0 0 0 -0.402878,-0.410936 l -9.298435,-0.09669 a 1.3778444,1.385902 18 0 0 -1.144175,0.588203 L 42.723367,98.923076 q -0.451224,0.64461 0.338417,0.64461 h 11.159734 a 1.0233113,1.0555416 18.1 0 0 0.846045,-0.44317 l 11.296713,-15.78478 a 1.1844627,1.16029 17.2 0 1 0.958851,-0.49151 l 16.783917,0.0483 a 0.41093605,0.41093605 0 0 1 0.410936,0.41093 z m 64.22689,-2.81209 c 5.38245,-17.589673 -4.43972,-39.312881 -24.64811,-39.796335 q -10.99858,-0.2659 -22.71429,-0.145037 a 0.50762689,0.50762689 0 0 0 -0.49957,0.507627 v 57.853355 a 0.65266314,0.65266314 0 0 0 0.65267,0.65266 c 17.71859,0 40.37648,3.279434 47.2093,-19.07227 z m 49.38484,-30.352864 0.0967,48.965854 a 0.41093605,0.41899362 0 0 0 0.41094,0.41899 l 29.19257,-0.10475 a 0.41093605,0.40287848 0 0 0 0.41094,-0.40288 l -0.0967,-6.85699 a 0.41093605,0.41093605 0 0 0 -0.40288,-0.41093 l -20.64349,-0.24173 a 0.67683585,0.67683585 0 0 1 -0.66878,-0.67684 l 0.15309,-16.5019 a 0.41093605,0.41093605 0 0 1 0.40288,-0.402878 l 20.7563,-0.386763 a 0.41899362,0.42705119 0 0 0 0.41094,-0.418994 l 0.0886,-6.59915 A 0.81381454,0.7976994 0.3 0 0 227.427,65.717834 l -20.43396,-0.136978 a 0.41899362,0.41093605 0 0 1 -0.419,-0.410936 l -0.12086,-16.066794 a 0.70906613,0.74129641 89.4 0 1 0.73324,-0.717124 l 20.45011,-0.120863 a 0.44316633,0.41899362 0 0 0 0.43511,-0.410936 l 0.0886,-6.679726 a 0.64460557,0.61237529 0.7 0 0 -0.6446,-0.62849 H 194.0042 a 0.94273565,0.92662051 16 0 0 -0.78964,0.427051 l -28.23372,42.737348 q -0.7977,1.21669 -0.78964,-0.24173 l 0.19338,-42.366697 a 0.40287848,0.41899362 0.6 0 0 -0.40288,-0.427051 l -9.46764,-0.09669 a 0.40287848,0.41899362 0 0 0 -0.40288,0.418994 l 0.29813,58.022554 a 0.41093605,0.42705119 0 0 0 0.40288,0.419 l 10.88577,0.0886 a 0.70100856,0.74935398 17.9 0 0 0.62044,-0.34647 L 197.83155,50.05389 q 0.29813,-0.459281 0.29813,0.08863 z m 72.82432,30.973294 -27.90337,-39.965541 a 1.4342474,1.4181323 72.2 0 0 -1.16029,-0.604318 h -8.01728 a 0.82992968,0.83798724 0.6 0 0 -0.82993,0.821872 c -0.12086,6.252674 0.19338,12.875996 0.0967,18.516295 q -0.3223,19.563782 0.0322,39.127562 a 0.44316633,0.40287848 89.4 0 0 0.40288,0.43511 l 7.75944,0.008 a 0.40287848,0.43510876 0 0 0 0.40288,-0.43511 l -0.0564,-43.792887 q 0,-1.700147 0.91857,-0.2659 l 28.1048,44.058787 a 1.2005779,1.216693 73.8 0 0 1.01525,0.54792 h 7.84002 a 0.40287848,0.40287848 0 0 0 0.40288,-0.40288 V 40.997211 a 0.4512239,0.4512239 0 0 0 -0.45123,-0.451224 h -7.80778 a 0.40287848,0.40287848 0 0 0 -0.40288,0.402878 v 40.054181 q 0,0.60432 -0.34647,0.1128 z m 15.52693,-33.326104 a 0.62043286,0.57208745 89.6 0 0 0.57209,0.612375 h 10.15254 a 0.68489342,0.68489342 0 0 1 0.68489,0.684894 v 49.884415 a 0.58014502,0.58820259 0 0 0 0.58015,0.5882 l 7.63857,-0.0322 a 0.41093605,0.38676334 89.4 0 0 0.38677,-0.41899 l -0.14504,-49.989165 a 0.75741155,0.80575697 89.4 0 1 0.78964,-0.757412 l 10.24923,-0.177266 a 0.43510876,0.41093605 89.5 0 0 0.40288,-0.435109 l 0.0322,-6.752243 a 0.4512239,0.4512239 0 0 0 -0.45123,-0.451224 H 286.9241 a 0.58014502,0.51568446 89.6 0 0 -0.51569,0.588202 z m 73.6623,42.447274 q 2.15943,-4.28662 2.16749,-9.40318 0.0403,-19.942486 0.0403,-39.876913 a 0.40287848,0.37870577 89.4 0 0 -0.38677,-0.402879 l -8.02533,0.20144 a 0.44316633,0.40287848 88.9 0 0 -0.39483,0.451224 q 0.16921,19.507376 -0.0564,39.022808 c -0.19338,16.87255 -22.15832,16.3891 -22.15832,0.60432 q 0,-19.338168 0,-39.659359 a 0.62849043,0.62849043 0 0 0 -0.62849,-0.62849 h -7.58217 a 0.4512239,0.4512239 0 0 0 -0.45122,0.451224 q 0,16.550248 0,32.737905 0,11.25643 1.23281,14.86622 c 5.21324,15.277154 28.87833,16.284344 36.24294,1.63568 z m 31.47287,-12.61815 c 12.457,-1.377846 17.775,-10.84549 15.8009,-22.553139 Q 405.69271,44.800384 395.72549,41.73045 c -6.95368,-2.143314 -18.19399,-1.184463 -26.7189,-1.184463 a 0.41093605,0.41093605 0 0 0 -0.41094,0.410936 l -0.0483,58.062843 a 0.40287848,0.42705119 0.5 0 0 0.39482,0.42706 l 7.73527,0.0967 a 0.56402988,0.58014502 0 0 0 0.57208,-0.58821 l -0.13697,-25.913141 q -0.008,-1.216693 0.69295,-0.225612 l 18.61298,26.380483 a 0.78158426,0.75741155 71.9 0 0 0.62849,0.33036 l 9.92693,0.0322 q 0.70101,0 0.27396,-0.56403 l -15.8009,-21.00608 q -0.24173,-0.32231 0.16921,-0.37065 z m 29.61963,13.44003 0.0967,-16.719462 a 0.41899362,0.39482091 89.4 0 1 0.38676,-0.418994 l 22.2953,-0.120863 a 0.91856294,0.93467808 89.7 0 0 0.92662,-0.918563 v -6.623322 a 0.5317996,0.5317996 0 0 0 -0.5318,-0.5318 h -22.62566 a 0.46733904,0.45928147 0 0 1 -0.46734,-0.459281 l 0.10475,-16.41327 a 0.41093605,0.40287848 0 0 1 0.41094,-0.402878 l 22.45644,-0.09669 a 0.45928147,0.40287848 0.5 0 0 0.45929,-0.394821 l 0.0886,-6.856992 a 0.4512239,0.40287848 0.5 0 0 -0.45121,-0.410937 l -31.22308,-0.136979 a 0.44316633,0.4512239 0.5 0 0 -0.45122,0.451224 v 57.974218 a 0.58820259,0.58820259 0 0 0 0.5882,0.5882 h 31.25531 a 0.33036036,0.36259063 0.7 0 0 0.33036,-0.35453 l 0.11281,-6.73613 a 0.72518127,0.75741155 0.6 0 0 -0.72518,-0.77353 l -22.64983,-0.22561 a 0.39482091,0.41899362 0.6 0 1 -0.38676,-0.41899 z"
     id="path48"
     style="stroke-width:0.805757" />
  <path
     fill="#ffffff"
     d="m 84.107044,82.896576 -16.783917,-0.0483 a 1.1844627,1.16029 17.2 0 0 -0.958851,0.49151 l -11.296713,15.78478 a 1.0233113,1.0555416 18.1 0 1 -0.846045,0.44317 H 43.061784 q -0.789641,0 -0.338417,-0.64461 L 83.744454,41.085844 a 1.3778444,1.385902 18 0 1 1.144175,-0.588203 l 9.298435,0.09669 a 0.40287848,0.41093605 0 0 1 0.402878,0.410936 l 0.298131,58.062849 a 0.49151175,0.49956932 89.5 0 1 -0.49957,0.49957 h -9.379011 a 0.44316633,0.4512239 0 0 1 -0.443166,-0.45123 l -0.04835,-15.80895 A 0.41093605,0.41093605 0 0 0 84.10704,82.896576 Z M 83.736396,55.766736 72.141553,73.791519 q -0.217554,0.330361 0.185325,0.330361 l 11.788224,-0.120864 a 0.70906613,0.69295099 89.3 0 0 0.684893,-0.717124 L 84.687189,56.072924 q -0.01611,-1.764608 -0.950793,-0.306188 z"
     id="path50"
     style="stroke-width:0.805757" />
  <path
     fill="#ffffff"
     d="m 124.09676,40.699081 c 20.20839,0.483454 30.03056,22.206662 24.64811,39.796335 -6.83282,22.351704 -29.49071,19.07227 -47.2093,19.07227 a 0.65266314,0.65266314 0 0 1 -0.65267,-0.65266 V 41.061671 a 0.50762689,0.50762689 0 0 1 0.49957,-0.507627 q 11.71571,-0.120863 22.71429,0.145037 z m 1.90964,50.311465 c 22.34365,-4.56058 19.89414,-39.570725 -1.75655,-42.20555 q -6.41382,-0.781584 -14.14909,-0.282015 a 0.43510876,0.44316633 88.2 0 0 -0.41093,0.427051 l -0.14504,42.294184 a 0.41899362,0.41899362 0 0 0 0.43511,0.41899 c 5.28576,-0.23367 11.61096,0.24979 16.0265,-0.65266 z"
     id="path52"
     style="stroke-width:0.805757" />
  <path
     fill="#ffffff"
     d="m 198.12971,50.142552 q 0,-0.547914 -0.29813,-0.08863 l -31.51315,49.127004 a 0.70100856,0.74935398 17.9 0 1 -0.62044,0.34647 l -10.88577,-0.0886 a 0.41093605,0.42705119 0 0 1 -0.40288,-0.419 l -0.29813,-58.022552 a 0.40287848,0.41899362 0 0 1 0.40288,-0.418994 l 9.46764,0.09669 a 0.40287848,0.41899362 0.6 0 1 0.40288,0.427051 l -0.19338,42.366695 q -0.008,1.45842 0.78964,0.24173 L 193.21459,40.97307 a 0.94273565,0.92662051 16 0 1 0.78964,-0.427051 h 33.51144 a 0.64460557,0.61237529 0.7 0 1 0.6446,0.62849 l -0.0886,6.679726 a 0.44316633,0.41899362 0 0 1 -0.43511,0.410936 l -20.45011,0.120863 a 0.70906613,0.74129641 89.4 0 0 -0.73324,0.717124 l 0.12086,16.066794 a 0.41899362,0.41093605 0 0 0 0.419,0.410936 l 20.43399,0.136978 a 0.81381454,0.7976994 0.3 0 1 0.81382,0.805757 l -0.0886,6.59915 a 0.41899362,0.42705119 0 0 1 -0.41094,0.418994 l -20.7563,0.386763 a 0.41093605,0.41093605 0 0 0 -0.40288,0.402878 l -0.15309,16.501898 a 0.67683585,0.67683585 0 0 0 0.66878,0.67684 l 20.64349,0.24173 a 0.41093605,0.41093605 0 0 1 0.40288,0.41093 l 0.0967,6.85699 a 0.41093605,0.40287848 0 0 1 -0.41094,0.40288 l -29.19257,0.10475 a 0.41093605,0.41899362 0 0 1 -0.41094,-0.41899 z"
     id="path54"
     style="stroke-width:0.805757" />
  <path
     fill="#ffffff"
     d="m 270.95403,81.115846 q 0.34647,0.49152 0.34647,-0.1128 V 40.948865 a 0.40287848,0.40287848 0 0 1 0.40288,-0.402878 h 7.80778 a 0.4512239,0.4512239 0 0 1 0.45123,0.451224 v 58.167595 a 0.40287848,0.40287848 0 0 1 -0.40288,0.40288 h -7.84002 a 1.2005779,1.216693 73.8 0 1 -1.01525,-0.54792 l -28.1048,-44.058787 q -0.91857,-1.434247 -0.91857,0.2659 l 0.0564,43.792887 a 0.40287848,0.43510876 0 0 1 -0.40288,0.43511 l -7.75944,-0.008 a 0.44316633,0.40287848 89.4 0 1 -0.40288,-0.43511 q -0.35453,-19.56378 -0.0322,-39.127562 c 0.0967,-5.640299 -0.21755,-12.263621 -0.0967,-18.516295 a 0.82992968,0.83798724 0.6 0 1 0.82993,-0.821872 h 8.01728 a 1.4342474,1.4181323 72.2 0 1 1.16029,0.604318 z"
     id="path56"
     style="stroke-width:0.805757" />
  <path
     fill="#ffffff"
     d="m 286.48096,47.789742 -0.0725,-6.655553 a 0.58014502,0.51568446 89.6 0 1 0.51569,-0.588202 h 30.44955 a 0.4512239,0.4512239 0 0 1 0.45123,0.451224 l -0.0322,6.752243 a 0.43510876,0.41093605 89.5 0 1 -0.40288,0.435109 l -10.24923,0.177266 a 0.75741155,0.80575697 89.4 0 0 -0.78964,0.757412 l 0.14504,49.989165 a 0.41093605,0.38676334 89.4 0 1 -0.38677,0.41899 l -7.63857,0.0322 a 0.58014502,0.58820259 0 0 1 -0.58015,-0.5882 V 49.087011 a 0.68489342,0.68489342 0 0 0 -0.68489,-0.684894 h -10.15259 a 0.62043286,0.57208745 89.6 0 1 -0.57209,-0.612375 z"
     id="path58"
     style="stroke-width:0.805757" />
  <path
     fill="#ffffff"
     d="m 360.14326,90.237016 c -7.36461,14.648664 -31.0297,13.641474 -36.24294,-1.63568 q -1.23281,-3.60979 -1.23281,-14.86622 0,-16.187657 0,-32.737905 a 0.4512239,0.4512239 0 0 1 0.45122,-0.451224 h 7.58217 a 0.62849043,0.62849043 0 0 1 0.62849,0.62849 q 0,20.321191 0,39.659359 c 0,15.78478 21.96494,16.26823 22.15832,-0.60432 q 0.22561,-19.515432 0.0564,-39.022808 a 0.44316633,0.40287848 88.9 0 1 0.39483,-0.451224 l 8.02533,-0.20144 a 0.40287848,0.37870577 89.4 0 1 0.38677,0.402879 q 0,19.934427 -0.0403,39.876913 -0.008,5.11656 -2.16749,9.40318 z"
     id="path60"
     style="stroke-width:0.805757" />
  <path
     fill="#ffffff"
     d="m 391.44692,77.989516 15.8009,21.00608 q 0.42705,0.56403 -0.27396,0.56403 l -9.92693,-0.0322 a 0.78158426,0.75741155 71.9 0 1 -0.62849,-0.33036 L 377.80546,72.816553 q -0.70101,-0.991081 -0.69295,0.225612 l 0.13697,25.913141 a 0.56402988,0.58014502 0 0 1 -0.57208,0.58821 l -7.73527,-0.0967 a 0.40287848,0.42705119 0.5 0 1 -0.39482,-0.42706 l 0.0483,-58.062843 a 0.41093605,0.41093605 0 0 1 0.41094,-0.410936 c 8.52491,0 19.76522,-0.958851 26.7189,1.184463 q 9.96722,3.069934 11.69154,13.335277 c 1.9741,11.707649 -3.3439,21.175293 -15.8009,22.553139 q -0.41094,0.0483 -0.16921,0.37065 z m 5.6403,-11.973551 c 3.16663,-3.633964 2.62677,-9.999444 -0.2659,-13.351393 -4.09324,-4.737851 -13.22247,-4.90706 -19.11255,-4.069073 a 0.45928147,0.46733904 86 0 0 -0.40288,0.459281 l -0.0483,21.449251 a 0.44316633,0.43510876 1.7 0 0 0.419,0.435109 c 6.48634,0.290072 14.87427,0.29813 19.41068,-4.923175 z"
     id="path62"
     style="stroke-width:0.805757" />
  <path
     fill="#ffffff"
     d="m 421.62252,91.477886 22.64983,0.22561 a 0.72518127,0.75741155 0.6 0 1 0.72518,0.77353 l -0.11281,6.73613 a 0.33036036,0.36259063 0.7 0 1 -0.33036,0.35453 h -31.25531 a 0.58820259,0.58820259 0 0 1 -0.5882,-0.5882 V 41.005268 a 0.44316633,0.4512239 0.5 0 1 0.45122,-0.451224 l 31.22308,0.136979 a 0.4512239,0.40287848 0.5 0 1 0.45123,0.410936 l -0.0886,6.856992 a 0.45928147,0.40287848 0.5 0 1 -0.45929,0.394821 l -22.45644,0.09669 a 0.41093605,0.40287848 0 0 0 -0.41094,0.402878 l -0.10475,16.41327 a 0.46733904,0.45928147 0 0 0 0.46734,0.459281 h 22.62566 a 0.5317996,0.5317996 0 0 1 0.5318,0.5318 v 6.623322 a 0.91856294,0.93467808 89.7 0 1 -0.92662,0.918563 l -22.2953,0.120863 a 0.41899362,0.39482091 89.4 0 0 -0.38676,0.418994 l -0.0967,16.719463 a 0.39482091,0.41899362 0.6 0 0 0.38676,0.41899 z"
     id="path64"
     style="stroke-width:0.805757" />
  <path
     fill="#b01000"
     d="m 124.24985,48.804996 c 21.65069,2.634825 24.1002,37.64497 1.75655,42.20555 -4.41554,0.90245 -10.74074,0.41899 -16.0265,0.65266 a 0.41899362,0.41899362 0 0 1 -0.43511,-0.41899 l 0.14504,-42.294184 a 0.43510876,0.44316633 88.2 0 1 0.41093,-0.427051 q 7.73527,-0.499569 14.14909,0.282015 z"
     id="path66"
     style="stroke-width:0.805757" />
  <path
     fill="#b01000"
     d="m 397.08722,66.015965 c -4.53641,5.221305 -12.92434,5.213247 -19.41068,4.923175 a 0.44316633,0.43510876 1.7 0 1 -0.419,-0.435109 l 0.0483,-21.449251 a 0.45928147,0.46733904 86 0 1 0.40288,-0.459281 c 5.89008,-0.837987 15.01931,-0.668778 19.11255,4.069073 2.89267,3.351949 3.43253,9.717429 0.2659,13.351393 z"
     id="path68"
     style="stroke-width:0.805757" />
  <path
     fill="#b01000"
     d="m 83.736396,55.766736 q 0.934678,-1.45842 0.950793,0.306188 l 0.112806,17.210968 a 0.70906613,0.69295099 89.3 0 1 -0.684893,0.717124 L 72.326878,74.12188 q -0.402879,0 -0.185325,-0.330361 z"
     id="path70"
     style="stroke-width:0.805757" />
  <path
     fill="#b01000"
     d="m 248.25585,119.97751 c 15.41413,-16.20377 40.11864,-16.14737 55.25076,-0.0967 q 0.66877,0.70101 0.6446,-0.27396 l -0.22561,-9.76577 a 0.99108107,1.0233113 89.6 0 1 1.02331,-1.0072 h 16.56636 a 1.5148231,1.4664777 72 0 1 1.2167,0.64461 l 11.82851,16.7114 a 0.7976994,0.82992968 73.3 0 0 0.64461,0.33036 l 7.46131,0.0886 a 0.40287848,0.40287848 0 0 0 0.41093,-0.39482 l 0.13698,-16.2924 a 0.85410238,0.82992968 88.9 0 1 0.78964,-0.84605 q 9.99139,-0.51568 19.0481,-0.0483 a 0.53985717,0.53985717 0 0 1 0.50762,0.53985 v 16.45356 a 0.53985717,0.53985717 0 0 0 0.53986,0.53986 h 33.72093 q 0.62043,0 0.27396,0.50762 l -24.78509,35.8723 a 0.77352669,0.80575697 17.2 0 1 -0.63655,0.35454 l -8.65383,0.18532 a 0.40287848,0.41899362 89.4 0 0 -0.41093,0.40288 l -0.0484,16.50996 a 0.74935398,0.75741155 0 0 1 -0.74935,0.75741 h -16.64694 a 1.1200022,1.16029 74.4 0 1 -0.96691,-0.52374 L 334.47185,163.7704 a 0.74129641,0.74129641 0 0 0 -0.62849,-0.34647 h -9.03254 a 0.5317996,0.5317996 0 0 0 -0.5318,0.5318 v 16.65499 a 0.53985717,0.53985717 0 0 1 -0.53986,0.53986 h -19.0078 a 0.77352669,0.74129641 0.6 0 1 -0.77353,-0.75741 l 0.15309,-9.90275 q 0.008,-0.93468 -0.62849,-0.28202 c -15.01125,15.51082 -39.78022,16.49385 -54.5578,0.18533 q -1.12,-1.23281 -0.97497,0.42705 0.42706,5.05209 0.0242,9.72548 a 0.4512239,0.46733904 2.3 0 1 -0.44317,0.419 l -19.12867,0.16921 a 0.62043286,0.60431772 89.6 0 1 -0.61238,-0.62044 v -3.6259 q 0,-0.81382 -0.6446,-0.31425 c -9.91081,7.66275 -24.31775,7.87225 -33.26971,-1.13612 q -0.57208,-0.57208 -0.5318,0.25785 l 0.20144,4.62504 a 0.78158426,0.82992968 88.7 0 1 -0.82993,0.82187 l -19.16895,-0.12892 a 0.41899362,0.41093605 0.6 0 1 -0.41094,-0.41093 v -16.51802 a 0.39482091,0.42705119 0.5 0 0 -0.38676,-0.42705 l -4.03685,-0.0806 a 0.53985717,0.5317996 9.3 0 0 -0.52374,0.37065 l -5.42274,16.26823 a 1.329499,1.3697868 9.6 0 1 -1.2731,0.93468 h -16.66305 a 0.91050537,0.88633266 79.7 0 1 -0.83799,-0.59626 l -5.95454,-16.5019 a 0.58014502,0.57208745 80.1 0 0 -0.53986,-0.38676 l -45.78311,-0.0242 q -1.337556,0 -0.580145,-1.09583 l 23.987385,-34.8087 a 2.3528103,2.2802922 16.7 0 1 1.89353,-0.98302 l 7.18735,-0.0322 a 0.29007251,0.29007251 0 0 0 0.27396,-0.38676 l -5.97872,-16.58248 a 0.65266314,0.636548 79.8 0 1 0.5882,-0.87022 l 19.65241,-0.0483 a 1.6518018,1.6759745 79.8 0 1 1.56317,1.07166 l 6.13987,16.33269 a 1.103887,1.0152538 78.4 0 0 0.98302,0.70907 l 10.32175,-0.11281 a 0.56402988,0.60431772 9.6 0 0 0.5318,-0.40287 l 5.71282,-16.76781 a 1.2005779,1.2247506 9.5 0 1 1.14417,-0.82993 h 27.30711 a 1.0716568,1.0071962 0.6 0 1 1.07165,1.03137 l -0.10475,4.90706 q -0.0242,1.22475 0.78965,0.37065 c 9.20174,-9.65297 22.62565,-9.41124 32.98769,-1.39396 q 0.60431,0.4754 0.60431,-0.29813 v -4.02077 a 0.43510876,0.42705119 89.5 0 1 0.419,-0.4351 l 18.91917,-0.14504 a 1.0071962,0.99108107 0.2 0 1 1.01526,1.0072 l -0.13698,10.0075 q -0.008,0.38676 0.24978,0.1128 z m -40.00583,56.37076 q 2.44144,1.20864 5.03598,0.20144 7.75138,-1.07166 12.17499,-6.58304 c 7.19541,-8.98419 4.87483,-23.59256 -6.1157,-28.33041 q -8.00117,-3.4567 -9.88664,-3.99655 c -10.26534,-2.94102 -7.59023,-16.7114 2.59454,-15.76061 q 6.47829,0.61237 7.38073,7.95282 a 0.49956932,0.4512239 86.4 0 0 0.44317,0.43511 l 7.81584,0.0886 a 0.69295099,0.66072071 88.1 0 0 0.66878,-0.74935 c -2.13525,-24.8576 -39.7641,-18.90306 -33.81762,5.41469 2.31252,9.45152 12.91629,11.7157 20.63544,14.99513 10.26534,4.35915 5.15684,20.7563 -6.53469,17.94421 q -6.28491,-1.51482 -7.63052,-9.91081 a 0.76546912,0.70906613 84.5 0 0 -0.72518,-0.64461 l -7.63858,0.20144 a 0.45928147,0.42705119 87 0 0 -0.41093,0.49957 q 1.3295,15.55111 16.01039,18.24234 z m 64.46056,0 q 2.96518,1.20864 6.04317,0.20144 10.09614,-1.29727 17.37212,-7.3485 c 19.59601,-16.29241 12.50535,-49.06255 -12.53758,-54.72702 -22.27918,-5.03598 -42.62454,13.32722 -38.59575,36.20266 2.43338,13.81068 13.83484,23.93098 27.71804,25.67142 z M 153.53106,159.0809 q -0.33842,0.99108 -0.70906,0.0161 l -16.61471,-43.95404 a 0.48345418,0.4512239 78.4 0 0 -0.44317,-0.31424 l -8.84721,0.0725 a 0.30618765,0.29813008 79.1 0 0 -0.2659,0.41094 l 21.38479,59.46486 a 0.61237529,0.53985717 79.1 0 0 0.5318,0.41094 h 9.37901 a 0.5317996,0.60431772 10.3 0 0 0.52374,-0.41094 l 19.52349,-59.37623 a 0.35453307,0.3706482 9.6 0 0 -0.33036,-0.48345 l -8.84721,-0.0161 a 0.54791474,0.60431772 10.1 0 0 -0.5318,0.41094 z m 34.17216,-43.95404 a 0.37870577,0.37870577 0 0 0 -0.37871,-0.37871 h -8.10592 a 0.37870577,0.37870577 0 0 0 -0.3787,0.37871 v 59.80328 a 0.37870577,0.37870577 0 0 0 0.3787,0.3787 h 8.10592 a 0.37870577,0.37870577 0 0 0 0.37871,-0.3787 z m 54.59003,-0.20144 a 0.20949681,0.20949681 0 0 0 -0.2095,-0.2095 h -8.44433 a 0.20949681,0.20949681 0 0 0 -0.2095,0.2095 v 60.19004 a 0.20949681,0.20949681 0 0 0 0.2095,0.2095 h 8.44433 a 0.20949681,0.20949681 0 0 0 0.2095,-0.2095 z m 76.19238,14.36664 q 0,-1.11194 0.60432,-0.16921 l 29.32149,45.83952 a 0.76546912,0.77352669 73.7 0 0 0.64461,0.34647 h 8.4121 a 0.4512239,0.4512239 0 0 0 0.45122,-0.45122 l 0.0483,-59.46486 a 0.46733904,0.46733904 0 0 0 -0.41094,-0.46734 q -4.17382,-0.48346 -8.29124,0 a 0.45928147,0.46733904 86.6 0 0 -0.41093,0.45928 l 0.0564,40.54569 q 0,1.20058 -0.68489,0.21755 l -28.35459,-40.7149 a 1.5873412,1.4020171 70.1 0 0 -1.24892,-0.68489 l -8.59743,0.13698 a 0.44316633,0.41093605 89.5 0 0 -0.40288,0.44316 l -0.0483,59.25537 a 0.7171237,0.72518127 0 0 0 0.71712,0.72518 h 7.60635 a 0.59626015,0.59626015 0 0 0 0.59626,-0.59626 z"
     id="path72"
     style="stroke-width:0.805757" />
  <path
     fill="#ffffff"
     d="m 213.286,176.54971 -5.03598,-0.20144 q -14.68089,-2.69123 -16.01039,-18.24234 a 0.45928147,0.42705119 87 0 1 0.41093,-0.49957 l 7.63858,-0.20144 a 0.76546912,0.70906613 84.5 0 1 0.72518,0.64461 q 1.34561,8.39599 7.63052,9.91081 c 11.69153,2.81209 16.80003,-13.58506 6.53469,-17.94421 -7.71915,-3.27943 -18.32292,-5.54361 -20.63544,-14.99513 -5.94648,-24.31775 31.68237,-30.27229 33.81762,-5.41469 a 0.69295099,0.66072071 88.1 0 1 -0.66878,0.74935 l -7.81584,-0.0886 a 0.49956932,0.4512239 86.4 0 1 -0.44317,-0.43511 q -0.90244,-7.34045 -7.38073,-7.95282 c -10.18477,-0.95079 -12.85988,12.81959 -2.59454,15.76061 q 1.88547,0.53985 9.88664,3.99655 c 10.99053,4.73785 13.31111,19.34622 6.1157,28.33041 q -4.42361,5.51138 -12.17499,6.58304 z"
     id="path74"
     style="stroke-width:0.805757" />
  <path
     fill="#ffffff"
     d="m 278.75375,176.54971 -6.04317,-0.20144 c -13.8832,-1.74044 -25.28466,-11.86074 -27.71804,-25.67142 -4.02879,-22.87544 16.31657,-41.23864 38.59575,-36.20266 25.04293,5.66447 32.13359,38.43461 12.53758,54.72702 q -7.27598,6.05123 -17.37212,7.3485 z m -2.74763,-8.13815 a 22.569253,23.358894 0 0 0 22.56925,-23.35889 22.569253,23.358894 0 0 0 -22.56925,-23.3589 22.569253,23.358894 0 0 0 -22.56925,23.3589 22.569253,23.358894 0 0 0 22.56925,23.35889 z"
     id="path76"
     style="stroke-width:0.805757" />
  <path
     fill="#ffffff"
     d="m 153.53106,159.0809 14.75341,-43.76872 a 0.54791474,0.60431772 10.1 0 1 0.5318,-0.41094 l 8.84721,0.0161 a 0.35453307,0.3706482 9.6 0 1 0.33036,0.48345 l -19.52349,59.37623 a 0.5317996,0.60431772 10.3 0 1 -0.52374,0.41094 h -9.37901 a 0.61237529,0.53985717 79.1 0 1 -0.5318,-0.41094 l -21.38479,-59.46486 a 0.30618765,0.29813008 79.1 0 1 0.2659,-0.41094 l 8.84721,-0.0725 a 0.48345418,0.4512239 78.4 0 1 0.44317,0.31424 L 152.822,159.097 q 0.37064,0.97497 0.70906,-0.0161 z"
     id="path78"
     style="stroke-width:0.805757" />
  <rect
     fill="#ffffff"
     x="178.8399"
     y="114.74815"
     width="8.863327"
     height="60.560696"
     rx="0.37870577"
     id="rect80"
     style="stroke-width:0.805757" />
  <rect
     fill="#ffffff"
     x="233.42993"
     y="114.71592"
     width="8.863327"
     height="60.609039"
     rx="0.2094968"
     id="rect82"
     style="stroke-width:0.805757" />
  <path
     fill="#ffffff"
     d="m 318.48563,129.29206 0.008,45.42052 a 0.59626015,0.59626015 0 0 1 -0.59626,0.59626 h -7.60635 a 0.7171237,0.72518127 0 0 1 -0.71712,-0.72518 l 0.0483,-59.25537 a 0.44316633,0.41093605 89.5 0 1 0.40288,-0.44316 l 8.59743,-0.13698 a 1.5873412,1.4020171 70.1 0 1 1.24892,0.68489 l 28.35459,40.7149 q 0.68489,0.98303 0.68489,-0.21755 l -0.0564,-40.54569 a 0.45928147,0.46733904 86.6 0 1 0.41093,-0.45928 q 4.11742,-0.48346 8.29124,0 a 0.46733904,0.46733904 0 0 1 0.41094,0.46734 l -0.0483,59.46486 a 0.4512239,0.4512239 0 0 1 -0.45122,0.45122 h -8.4121 a 0.76546912,0.77352669 73.7 0 1 -0.64461,-0.34647 l -29.32144,-45.83952 q -0.60432,-0.94273 -0.60432,0.16921 z"
     id="path84"
     style="stroke-width:0.805757" />
  <ellipse
     fill="#b01000"
     cx="145.05266"
     cy="-276.0061"
     transform="rotate(90)"
     rx="23.358894"
     ry="22.569252"
     id="ellipse86"
     style="stroke-width:0.805757" />
  <path
     fill="#decbb2"
     d="m 208.25002,176.34827 5.03598,0.20144 q -2.59454,1.0072 -5.03598,-0.20144 z"
     id="path88"
     style="stroke-width:0.805757" />
  <path
     fill="#decbb2"
     d="m 272.71058,176.34827 6.04317,0.20144 q -3.07799,1.0072 -6.04317,-0.20144 z"
     id="path90"
     style="stroke-width:0.805757" />
</svg>
