<?xml version="1.0" encoding="UTF-8" standalone="no"?>
<!-- Created with Inkscape (http://www.inkscape.org/) -->

<svg
   width="500"
   height="200"
   viewBox="0 0 132.29166 52.916668"
   version="1.1"
   id="svg8"
   inkscape:version="1.2.2 (b0a8486541, 2022-12-01)"
   sodipodi:docname="apple2.svg"
   inkscape:export-filename="apple2.png"
   inkscape:export-xdpi="96"
   inkscape:export-ydpi="96"
   xml:space="preserve"
   xmlns:inkscape="http://www.inkscape.org/namespaces/inkscape"
   xmlns:sodipodi="http://sodipodi.sourceforge.net/DTD/sodipodi-0.dtd"
   xmlns="http://www.w3.org/2000/svg"
   xmlns:svg="http://www.w3.org/2000/svg"
   xmlns:rdf="http://www.w3.org/1999/02/22-rdf-syntax-ns#"
   xmlns:cc="http://creativecommons.org/ns#"
   xmlns:dc="http://purl.org/dc/elements/1.1/"><defs
     id="defs2"><filter
       inkscape:label="Relief Print"
       inkscape:menu="Bumps"
       inkscape:menu-tooltip="Bumps effect with a bevel, color flood and complex lighting"
       style="color-interpolation-filters:sRGB;"
       id="filter1045"
       x="-0.1267519"
       y="-0.45850731"
       width="1.2535038"
       height="1.9170146"><feGaussianBlur
         stdDeviation="5"
         result="result8"
         id="feGaussianBlur1011" /><feComposite
         result="result6"
         in="SourceGraphic"
         operator="in"
         in2="result8"
         id="feComposite1013" /><feComposite
         operator="in"
         result="result11"
         in2="result6"
         id="feComposite1015" /><feFlood
         result="result10"
         flood-opacity="1"
         flood-color="rgb(255,255,255)"
         id="feFlood1017" /><feBlend
         mode="multiply"
         in="result10"
         in2="result11"
         result="result12"
         id="feBlend1019" /><feComposite
         result="fbSourceGraphic"
         operator="in"
         in2="SourceGraphic"
         in="result12"
         id="feComposite1021" /><feFlood
         result="result6"
         flood-color="rgb(75,101,154)"
         id="feFlood1023" /><feComposite
         k3="0.3"
         k2="0.3"
         k1="0.5"
         operator="arithmetic"
         result="result2"
         in="fbSourceGraphic"
         in2="result6"
         id="feComposite1025"
         k4="0" /><feColorMatrix
         result="fbSourceGraphicAlpha"
         in="result2"
         values="1 0 0 -1 0 1 0 1 -1 0 1 0 0 -1 0 -0.8 -1 0 3.9 -2.7 "
         type="matrix"
         id="feColorMatrix1027" /><feGaussianBlur
         result="result0"
         in="fbSourceGraphicAlpha"
         stdDeviation="0.5"
         id="feGaussianBlur1029" /><feDiffuseLighting
         lighting-color="rgb(255,255,255)"
         diffuseConstant="0.7"
         surfaceScale="50"
         result="result13"
         in="result0"
         id="feDiffuseLighting1033"><feDistantLight
           elevation="20"
           azimuth="225"
           id="feDistantLight1031" /></feDiffuseLighting><feSpecularLighting
         specularExponent="20"
         specularConstant="0.7"
         surfaceScale="10"
         lighting-color="rgb(255,255,255)"
         result="result1"
         in="result0"
         id="feSpecularLighting1037"><feDistantLight
           elevation="45"
           azimuth="225"
           id="feDistantLight1035" /></feSpecularLighting><feBlend
         mode="screen"
         result="result5"
         in2="SourceGraphic"
         in="result13"
         id="feBlend1039" /><feComposite
         in="result1"
         k3="1"
         k2="1"
         operator="arithmetic"
         in2="result5"
         result="result9"
         id="feComposite1041"
         k1="0"
         k4="0" /><feComposite
         in2="SourceGraphic"
         operator="in"
         id="feComposite1043" /></filter><filter
       inkscape:label="Relief Print"
       inkscape:menu="Bumps"
       inkscape:menu-tooltip="Bumps effect with a bevel, color flood and complex lighting"
       style="color-interpolation-filters:sRGB;"
       id="filter1141"
       x="-0.12952109"
       y="-0.58973628"
       width="1.2590422"
       height="2.1794726"><feGaussianBlur
         stdDeviation="5"
         result="result8"
         id="feGaussianBlur1107" /><feComposite
         result="result6"
         in="SourceGraphic"
         operator="in"
         in2="result8"
         id="feComposite1109" /><feComposite
         operator="in"
         result="result11"
         in2="result6"
         id="feComposite1111" /><feFlood
         result="result10"
         flood-opacity="1"
         flood-color="rgb(255,255,255)"
         id="feFlood1113" /><feBlend
         mode="multiply"
         in="result10"
         in2="result11"
         result="result12"
         id="feBlend1115" /><feComposite
         result="fbSourceGraphic"
         operator="in"
         in2="SourceGraphic"
         in="result12"
         id="feComposite1117" /><feFlood
         result="result6"
         flood-color="rgb(75,101,154)"
         id="feFlood1119" /><feComposite
         k3="0.3"
         k2="0.3"
         k1="0.5"
         operator="arithmetic"
         result="result2"
         in="fbSourceGraphic"
         in2="result6"
         id="feComposite1121"
         k4="0" /><feColorMatrix
         result="fbSourceGraphicAlpha"
         in="result2"
         values="1 0 0 -1 0 1 0 1 -1 0 1 0 0 -1 0 -0.8 -1 0 3.9 -2.7 "
         type="matrix"
         id="feColorMatrix1123" /><feGaussianBlur
         result="result0"
         in="fbSourceGraphicAlpha"
         stdDeviation="0.5"
         id="feGaussianBlur1125" /><feDiffuseLighting
         lighting-color="rgb(255,255,255)"
         diffuseConstant="0.7"
         surfaceScale="50"
         result="result13"
         in="result0"
         id="feDiffuseLighting1129"><feDistantLight
           elevation="20"
           azimuth="225"
           id="feDistantLight1127" /></feDiffuseLighting><feSpecularLighting
         specularExponent="20"
         specularConstant="0.7"
         surfaceScale="10"
         lighting-color="rgb(255,255,255)"
         result="result1"
         in="result0"
         id="feSpecularLighting1133"><feDistantLight
           elevation="45"
           azimuth="225"
           id="feDistantLight1131" /></feSpecularLighting><feBlend
         mode="screen"
         result="result5"
         in2="SourceGraphic"
         in="result13"
         id="feBlend1135" /><feComposite
         in="result1"
         k3="1"
         k2="1"
         operator="arithmetic"
         in2="result5"
         result="result9"
         id="feComposite1137"
         k1="0"
         k4="0" /><feComposite
         in2="SourceGraphic"
         operator="in"
         id="feComposite1139" /></filter></defs><sodipodi:namedview
     id="base"
     pagecolor="#ffffff"
     bordercolor="#666666"
     borderopacity="1.0"
     inkscape:pageopacity="0.0"
     inkscape:pageshadow="2"
     inkscape:zoom="1.2879494"
     inkscape:cx="263.2091"
     inkscape:cy="144.80383"
     inkscape:document-units="mm"
     inkscape:current-layer="layer1"
     showgrid="false"
     units="px"
     inkscape:pagecheckerboard="true"
     inkscape:window-width="1366"
     inkscape:window-height="740"
     inkscape:window-x="0"
     inkscape:window-y="0"
     inkscape:window-maximized="1"
     inkscape:showpageshadow="0"
     inkscape:deskcolor="#d1d1d1" /><metadata
     id="metadata5"><rdf:RDF><cc:Work
         rdf:about=""><dc:format>image/svg+xml</dc:format><dc:type
           rdf:resource="http://purl.org/dc/dcmitype/StillImage" /></cc:Work></rdf:RDF></metadata><g
     inkscape:label="Layer 1"
     inkscape:groupmode="layer"
     id="layer1"
     transform="translate(0,-244.08332)"><path
       style="fill:#f0c90a;stroke-width:0.0124957"
       d="m 4.4761455,268.23397 c 0.05385,-0.19397 0.2383094,-0.72762 0.3353729,-0.97025 0.248002,-0.61995 0.4944929,-1.10246 0.8248267,-1.61464 0.413358,-0.6409 0.8321636,-1.14952 1.5396351,-1.86982 l 0.2730784,-0.27803 H 20.816078 34.183096 l 0.09038,0.11559 c 0.274122,0.35056 0.29617,0.61509 0.06887,0.82625 -0.876373,0.81411 -1.017856,0.95356 -1.296753,1.27815 -0.436853,0.50842 -0.780386,1.05352 -1.054004,1.67242 -0.111648,0.25253 -0.242122,0.59495 -0.303535,0.7966 l -0.04091,0.13432 H 18.049069 4.4509945 Z"
       id="path1314" /><path
       style="fill:#397cca;stroke-width:0.0124957"
       d="m 25.291849,289.34182 c -0.88824,-0.0547 -1.58879,-0.20569 -2.286708,-0.49287 -0.314921,-0.12959 -0.762515,-0.36685 -1.07463,-0.56965 -0.157252,-0.10218 -0.209515,-0.12626 -0.363531,-0.16751 -0.795728,-0.21309 -2.695413,-0.24077 -3.803773,-0.0554 -0.463248,0.0775 -0.699178,0.15407 -1.055884,0.34282 -0.994867,0.52645 -1.621258,0.75838 -2.311699,0.85596 -0.319505,0.0452 -0.467261,0.0524 -1.193337,0.0583 l -0.737245,0.006 -0.156196,-0.0376 c -1.029297,-0.24784 -1.992593,-0.80328 -2.8411031,-1.6382 -0.4763853,-0.46875 -0.8300484,-0.89691 -1.2031262,-1.45655 -0.1088836,-0.16333 -0.1827236,-0.28412 -0.42778,-0.69976 -0.1094466,-0.18563 -0.7102934,-1.41293 -0.9298597,-1.89934 -0.031023,-0.0687 -0.06533,-0.14183 -0.076239,-0.16244 -0.010909,-0.0206 -0.019868,-0.0417 -0.019911,-0.0469 -4.23e-5,-0.005 6.18528,-0.009 13.745161,-0.009 7.559882,0 13.745239,0.003 13.745239,0.007 0,0.008 -0.0266,0.0649 -0.165249,0.35534 -0.329501,0.6902 -0.741211,1.33961 -1.239787,1.95557 -0.236759,0.29251 -0.944185,1.01301 -1.393994,1.41977 -1.311862,1.18631 -2.541038,1.87355 -3.810332,2.13039 -0.119805,0.0242 -0.229454,0.0409 -0.243665,0.0371 -0.01421,-0.004 -0.152359,0.004 -0.306993,0.0177 -0.154634,0.0136 -0.36831,0.0306 -0.474835,0.0378 -0.26407,0.0179 -1.151911,0.0255 -1.374524,0.0118 z"
       id="path1312" /><path
       style="fill:#dd7e06;stroke-width:0.0124957"
       d="m 4.1241417,273.70083 c -2.19e-5,-0.0189 -0.00837,-0.19462 -0.018548,-0.39049 -0.043045,-0.82827 -0.054035,-1.75197 -0.031519,-2.64908 0.017364,-0.69182 0.054753,-1.03225 0.169204,-1.54063 0.053078,-0.23576 0.1488299,-0.60881 0.20032,-0.78045 0.0069,-0.023 27.1961273,-0.023 27.1958903,0 -1.25e-4,0.009 -0.01163,0.0522 -0.02565,0.0968 -0.125695,0.40053 -0.294741,1.24211 -0.32504,1.61819 -0.02132,0.2646 -0.02947,1.34777 -0.01245,1.65499 0.03808,0.68751 0.124565,1.3387 0.248621,1.87191 l 0.03561,0.15307 H 17.842381 4.1241814 Z"
       id="path1310" /><path
       style="fill:#75c00d;stroke-width:0.0124957"
       d="m 7.5169049,263.44095 c 1.6534577,-1.59909 2.4396019,-2.18681 3.4786041,-2.60059 0.351852,-0.14013 0.716725,-0.24402 1.278308,-0.36397 0.389781,-0.0832 1.044158,-0.11932 1.953115,-0.10765 0.855634,0.011 1.480324,0.0678 2.090707,0.1902 1.141678,0.22892 1.918302,0.60382 2.670144,1.28895 0.183932,0.16762 0.303425,0.25685 0.46406,0.34654 0.277003,0.15467 0.615934,0.24628 1.041668,0.28157 0.283876,0.0235 0.754239,0.0381 0.830407,0.0257 0.03966,-0.006 0.148795,-0.0124 0.242514,-0.0131 0.276602,-0.002 0.572579,-0.022 0.72728,-0.0485 0.158178,-0.0271 0.835676,-0.22606 0.986334,-0.28972 0.25166,-0.10635 0.551981,-0.25508 1.030893,-0.51054 0.691623,-0.36892 1.088429,-0.55811 1.337037,-0.63748 0.02749,-0.009 0.05619,-0.0208 0.06377,-0.0268 0.02318,-0.0183 0.393327,-0.10854 0.531176,-0.12953 0.699161,-0.10641 1.270993,-0.14167 1.926829,-0.11883 1.54682,0.0539 2.860794,0.36578 3.888499,0.92299 0.386593,0.20961 0.801835,0.52246 1.049636,0.7908 0.04124,0.0447 0.238043,0.23595 0.437349,0.42509 0.199306,0.18914 0.425136,0.40945 0.501846,0.48957 l 0.139473,0.14567 H 20.820567 7.4545753 Z m 13.2265201,-1.90082 c -0.07216,-0.004 -0.142451,-0.0139 -0.156196,-0.0217 -0.08381,-0.0476 -0.10623,-0.12415 -0.106171,-0.36252 0,-0.2422 0.02472,-0.48455 0.11863,-1.16594 0.175828,-1.27574 0.512533,-2.46765 0.863845,-3.05794 0.03182,-0.0535 0.07209,-0.12252 0.08947,-0.15345 0.04673,-0.0831 0.313111,-0.48039 0.456654,-0.68101 0.889353,-1.243 1.893425,-2.24311 2.976048,-2.96429 1.011789,-0.67399 2.101268,-1.07232 2.873729,-1.05067 l 0.137177,0.004 0.03382,0.1 c 0.106814,0.31574 0.0726,1.08945 -0.08425,1.90497 -0.28148,1.46356 -0.935169,2.99931 -1.837897,4.31788 -0.329917,0.48189 -0.396375,0.56353 -0.727726,0.89395 -1.044251,1.04133 -2.282136,1.82396 -3.337582,2.11012 -0.148762,0.0403 -0.466797,0.10039 -0.637033,0.12031 -0.155862,0.0182 -0.4138,0.0208 -0.662516,0.007 z"
       id="path1308" /><path
       style="fill:#99087f;stroke-width:0.0124957"
       d="m 6.8064434,283.35998 c -0.014073,-0.0228 -0.1654715,-0.37213 -0.2802617,-0.64665 -0.5250939,-1.25575 -1.0210162,-2.72022 -1.5487242,-4.57341 -0.058711,-0.20618 -0.13715,-0.48171 -0.17431,-0.61229 -0.3667709,-1.28883 -0.5277159,-2.13142 -0.6348937,-3.32385 -0.017296,-0.19243 -0.034816,-0.37659 -0.038933,-0.40923 l -0.00748,-0.0594 H 17.847784 31.57373 l 0.0082,0.0701 c 0.0092,0.0781 0.02603,0.13557 0.135107,0.46101 0.451551,1.34721 1.236728,2.45596 2.315499,3.26974 0.25981,0.19598 0.502847,0.35252 0.823175,0.53018 0.170753,0.0947 0.187808,0.10738 0.209379,0.15556 0.02911,0.065 0.06685,0.24909 0.08827,0.4305 0.02168,0.18364 0.02141,0.99548 -4.25e-4,1.26206 -0.0907,1.10751 -0.334835,2.15847 -0.740915,3.18951 l -0.104579,0.26553 -13.747625,10e-6 c -7.561194,0 -13.7502274,-0.004 -13.7534076,-0.009 z"
       id="path1306" /><path
       style="fill:#ffffff;stroke-width:0.0124957"
       d="m 50.020782,273.19163 v -9.14059 l 5.544955,8e-5 c 6.081763,7e-5 5.656023,-0.005 5.90108,0.0748 0.135466,0.0443 0.469651,0.20572 0.699758,0.33806 1.05635,0.60753 2.104467,1.50942 2.813775,2.42123 0.509354,0.65477 0.908909,1.41709 1.02621,1.95795 0.06328,0.29175 0.10021,0.83305 0.100606,1.47449 5.5e-4,0.88221 -0.07815,1.6748 -0.242568,2.4429 -0.107542,0.50241 -0.189022,0.74248 -0.405021,1.19334 -0.545845,1.13935 -1.370247,2.13228 -2.424635,2.92027 -0.83052,0.62068 -1.927983,1.1437 -2.932546,1.39755 l -0.146093,0.0369 h -1.868834 -1.868834 v -1.8806 -1.8806 h 1.286883 1.286885 l 0.178233,-0.0762 c 1.818995,-0.77771 2.646081,-2.0634 2.450941,-3.80995 -0.02132,-0.19082 -0.06366,-0.43146 -0.116859,-0.66418 -0.115223,-0.50404 -0.504179,-1.19176 -0.998652,-1.76572 -0.127896,-0.14846 -0.302372,-0.3247 -0.390059,-0.39401 l -0.06338,-0.0501 H 57.335876 54.81912 v 7.27248 7.27249 h -2.399169 -2.399169 z m 17.094079,-0.0375 v -9.16557 h 5.034431 c 3.368185,0 5.077261,0.004 5.163836,0.0129 0.500289,0.0498 1.106097,0.23515 1.691906,0.5175 1.222047,0.589 2.249161,1.54865 2.948496,2.75483 0.307977,0.53118 0.664575,1.5217 0.855335,2.37586 0.152694,0.6837 0.194172,1.19662 0.137888,1.70512 -0.142534,1.28773 -0.370586,2.20665 -0.728757,2.93648 -0.330074,0.67258 -0.740794,1.14403 -1.476606,1.69496 -0.87473,0.65493 -1.727744,1.24491 -2.286708,1.58155 -0.367933,0.2216 -0.794138,0.4349 -0.999215,0.50008 -0.05522,0.0176 -0.106203,0.0364 -0.113292,0.0419 -0.0071,0.005 -0.06254,0.0244 -0.123231,0.0419 l -0.110342,0.032 h -2.041645 -2.041644 v -1.89934 -1.89934 h 1.134777 c 0.935881,0 1.159825,-0.003 1.277683,-0.0187 0.300295,-0.0393 0.419226,-0.0693 0.717706,-0.18117 0.426417,-0.15977 0.774418,-0.37616 1.084415,-0.67428 0.472511,-0.45442 0.755533,-1.00811 0.888103,-1.73743 0.04752,-0.26143 0.06301,-0.4548 0.06306,-0.78723 0,-0.41841 -0.0321,-0.72821 -0.11932,-1.14937 -0.03068,-0.14814 -0.04801,-0.20136 -0.09554,-0.2934 -0.07087,-0.13721 -0.229083,-0.37583 -0.344151,-0.51905 -0.360789,-0.44904 -0.906829,-0.90126 -1.351605,-1.11936 -0.263039,-0.12898 -0.01999,-0.11771 -2.538621,-0.11771 h -2.203487 v 7.26623 7.26624 H 69.3266 67.114866 Z m -29.208632,5.14635 c -0.02062,-0.002 -0.09091,-0.0105 -0.156196,-0.0181 -0.15726,-0.0182 -0.55268,-0.12018 -0.849601,-0.21918 -1.089141,-0.36316 -2.120614,-1.18438 -3.003172,-2.39103 -0.468524,-0.64058 -0.918015,-1.44772 -1.169171,-2.09945 -0.03575,-0.0928 -0.08139,-0.21144 -0.101406,-0.26368 -0.112415,-0.29338 -0.173807,-0.61494 -0.220569,-1.15528 -0.03016,-0.34846 -0.03008,-1.2312 1.38e-4,-1.69871 0.03806,-0.58878 0.09688,-1.14915 0.146582,-1.39647 0.0435,-0.21644 0.201861,-0.61383 0.42449,-1.06518 0.298864,-0.60592 0.611607,-1.08494 1.048311,-1.60569 0.172597,-0.20582 0.639888,-0.67196 0.84415,-0.84208 0.91148,-0.75911 1.914409,-1.26153 2.915846,-1.46069 0.132961,-0.0264 0.136135,-0.0265 3.091448,-0.0304 1.924638,-0.003 2.958346,-0.008 2.958346,-0.0162 0,-0.008 0.831235,-0.0123 2.380425,-0.0123 h 2.380426 v 7.13503 7.13503 H 46.21585 43.835425 v -5.25461 -5.25461 l -2.083653,0.003 -2.083653,0.003 -0.137143,0.0475 c -0.635472,0.21989 -1.045573,0.45968 -1.413548,0.82652 -0.241317,0.24058 -0.407486,0.4748 -0.548081,0.77257 -0.22406,0.47452 -0.323259,0.96756 -0.339993,1.6898 -0.01651,0.71244 0.07262,1.23891 0.282864,1.67077 0.137977,0.28342 0.326418,0.49149 0.648131,0.71565 0.0573,0.0399 0.10759,0.0815 0.111767,0.0924 0.0042,0.0109 0.02197,0.0328 0.03953,0.0487 0.01756,0.0159 0.05161,0.0471 0.07567,0.0693 0.02405,0.0222 0.06763,0.0565 0.09684,0.0761 0.02921,0.0197 0.05311,0.0402 0.05311,0.0456 0,0.005 0.02952,0.0241 0.0656,0.0415 0.03608,0.0174 0.127456,0.0714 0.203054,0.11999 0.280709,0.18048 0.71648,0.37823 1.036603,0.47039 0.340492,0.098 0.244686,0.0921 1.483814,0.0921 h 1.109576 v 1.8681 1.86811 l -2.246097,-0.002 c -1.235353,-10e-4 -2.262966,-0.004 -2.283584,-0.006 z m 45.715413,-9.45736 v -9.11559 h 2.317948 2.317947 v 9.11559 9.1156 H 85.93959 83.621642 Z m 25.416198,7.27249 v -1.84312 h 1.97431 1.97432 v -5.44811 -5.44811 h -2.0243 -2.0243 v -2.00556 -2.00555 h 4.21729 4.21729 v 9.29678 9.29678 h -4.16731 -4.1673 z m 10.109,-7.45367 v -9.29678 h 4.39847 4.39848 v 2.00555 2.00556 h -2.13676 -2.13676 v 5.44811 5.44811 h 2.14925 2.14926 v 1.84312 1.84311 h -4.41097 -4.41097 z m -24.210367,9.25118 c -0.02062,-0.002 -0.09091,-0.0103 -0.156196,-0.0176 -0.182334,-0.0204 -0.521907,-0.0915 -0.743108,-0.15552 -1.328514,-0.3848 -2.554035,-1.26081 -3.461182,-2.47406 -0.259565,-0.34715 -0.4748,-0.68947 -0.680303,-1.08197 -0.06265,-0.11967 -0.133784,-0.25413 -0.158063,-0.2988 -0.37021,-0.68117 -0.586653,-1.45724 -0.676078,-2.42416 -0.02697,-0.29162 -0.03082,-1.096 -0.0067,-1.39327 0.03775,-0.4646 0.115165,-1.04819 0.176534,-1.33079 0.27267,-1.25564 1.385444,-2.8187 2.731746,-3.83715 0.3826,-0.28943 0.712343,-0.48938 1.217672,-0.73838 0.468884,-0.23104 0.650182,-0.30552 0.908909,-0.3734 l 0.140425,-0.0368 h 5.37329 5.373281 v 2.08227 2.08227 l -0.11553,0.18882 c -0.0636,0.10385 -0.72066,1.2094 -1.46026,2.45678 l -1.34473,2.26796 -2.394646,0.003 c -1.31706,0.002 -2.394654,1.3e-4 -2.394654,-0.004 0,-0.004 0.661703,-1.12101 1.47045,-2.4829 l 1.47045,-2.47617 0.006,-0.0967 c 0.0108,-0.1864 0.0188,-0.18183 -0.378637,-0.21698 -0.947559,-0.0838 -3.02764,-0.0261 -3.854207,0.10685 -0.262668,0.0423 -0.37717,0.0779 -0.544046,0.16907 -0.619617,0.33872 -1.068708,0.8189 -1.351054,1.44457 -0.131973,0.29245 -0.250737,0.73728 -0.294623,1.1035 -0.02466,0.20583 -0.02051,0.93297 0.0063,1.10968 0.09287,0.61125 0.312138,1.14004 0.656465,1.58314 0.104756,0.1348 0.338866,0.37063 0.47658,0.48007 0.300266,0.23862 0.678349,0.45172 1.098261,0.61901 l 0.126817,0.0505 h 4.429464 4.42946 v 1.84936 1.84936 l -5.020131,-0.002 c -2.761075,-10e-4 -5.037005,-0.004 -5.057623,-0.006 z"
       id="path1304" /></g></svg>
