<?xml version="1.0" encoding="UTF-8" standalone="no"?>
<svg
   xmlns:dc="http://purl.org/dc/elements/1.1/"
   xmlns:cc="http://creativecommons.org/ns#"
   xmlns:rdf="http://www.w3.org/1999/02/22-rdf-syntax-ns#"
   xmlns:svg="http://www.w3.org/2000/svg"
   xmlns="http://www.w3.org/2000/svg"
   xmlns:sodipodi="http://sodipodi.sourceforge.net/DTD/sodipodi-0.dtd"
   xmlns:inkscape="http://www.inkscape.org/namespaces/inkscape"
   width="500"
   height="200"
   viewBox="0 0 500 200"
   version="1.1"
   id="svg32"
   sodipodi:docname="atarijaguar.svg"
   style="fill:none"
   inkscape:version="0.92.5 (2060ec1f9f, 2020-04-08)">
  <metadata
     id="metadata38">
    <rdf:RDF>
      <cc:Work
         rdf:about="">
        <dc:format>image/svg+xml</dc:format>
        <dc:type
           rdf:resource="http://purl.org/dc/dcmitype/StillImage" />
        <dc:title></dc:title>
      </cc:Work>
    </rdf:RDF>
  </metadata>
  <defs
     id="defs36" />
  <sodipodi:namedview
     pagecolor="#ffffff"
     bordercolor="#666666"
     borderopacity="1"
     objecttolerance="10"
     gridtolerance="10"
     guidetolerance="10"
     inkscape:pageopacity="0"
     inkscape:pageshadow="2"
     inkscape:window-width="1366"
     inkscape:window-height="740"
     id="namedview34"
     showgrid="false"
     inkscape:pagecheckerboard="true"
     inkscape:zoom="1.6452465"
     inkscape:cx="177.5"
     inkscape:cy="51.5"
     inkscape:window-x="0"
     inkscape:window-y="0"
     inkscape:window-maximized="1"
     inkscape:current-layer="svg32" />
  <path
     d="m 139.88066,89.664303 c 2.04546,-6.10309 3.87494,-12.2789 5.78357,-18.429014 0.47081,-1.516537 0.91211,-3.041397 1.36773,-4.56319 0.0581,-0.329447 1.73705,-6.201516 2.37666,-8.842349 0.76521,-3.159243 1.58883,-6.331484 1.96997,-9.547388 0.23657,-1.991868 1.11422,-3.020952 2.83447,-3.550754 1.00323,-0.309002 1.55815,-0.822011 2.5979,-0.897655 0.85428,-0.06265 1.44863,-0.276583 1.84291,-1.061648 0.33295,-0.664151 1.196,-1.07596 1.64286,-1.667679 0.33003,-0.43897 0.74914,-0.960449 1.2325,-1.106918 1.37854,-0.416482 2.84907,-0.54864 4.21301,-1.000461 1.72025,-0.569085 3.7092,-0.979287 4.96069,-2.133227 1.28069,-1.18027 2.46939,-1.822546 4.12246,-1.948746 1.53041,-0.117117 2.86222,-0.708778 3.3558,-2.312218 0.30667,-0.993656 1.06603,-1.440994 1.83416,-1.935164 0.70241,-0.142089 1.09231,-0.423915 1.17847,-1.267188 0.0862,-0.842528 -3.0798,-0.372526 -3.28863,-0.584111 -0.97402,-0.989874 -0.88056,-1.18633 0.40159,-1.670687 0.8353,-0.315106 1.75238,-0.414846 2.63295,-0.612061 0.53301,-0.126945 1.06749,-0.25465 1.6005,-0.382354 1.26463,-0.164724 2.52635,-0.343057 3.7939,-0.491163 2.19339,-0.259935 4.39262,-0.482078 6.58163,-0.764693 0.51257,-0.06649 1.06165,-0.223662 1.48368,-0.505517 0.38845,-0.259177 0.92,-1.171222 0.93314,-1.617042 0.0131,-0.445821 -0.86596,-0.697446 -1.28653,-0.683845 -1.75092,0.05894 -3.50768,0.180595 -5.24253,0.426175 -2.69866,0.38386 -5.38564,0.854615 -8.06678,1.348794 -2.23574,0.412583 -4.45688,0.910536 -6.68385,1.369965 -0.31251,0.03702 -4.32984,0.973241 -4.61752,1.055603 -0.86158,0.20478 -1.72171,0.409559 -2.58329,0.61358 l -0.1913,0.02716 c -0.84261,0.148864 -1.68375,0.298473 -2.52635,0.447338 -2.61396,0.541791 -5.22354,1.109269 -7.84335,1.617809 -1.41942,0.274291 -2.87389,0.62868 -4.28602,0.930176 -2.01523,0.430705 -3.99104,0.807014 -6.01284,1.202963 -4.47105,0.876525 -8.95874,1.663137 -13.44044,2.48601 -0.43065,0.01592 -15.91421,2.764857 -24.15141,3.006655 -1.90936,0.05593 -3.82719,0.02336 -5.74195,0.0073 -0.66196,-0.0058 -1.19161,0.104997 -1.40321,0.866711 -0.27133,0.97549 -0.0483,1.293692 1.08427,1.743177 0.50936,0.203276 0.92949,0.632462 1.39037,0.958988 -0.53039,0.355879 -1.02456,0.796456 -1.60343,1.036677 -0.39515,0.165454 -0.91196,0.0146 -1.36392,0.07856 -0.36187,0.0514 -0.770028,0.136102 -1.048071,0.348431 -1.212061,0.922627 -0.840995,2.011437 0.932551,2.820743 2.35446,1.07523 2.49422,1.578454 1.02602,3.705548 -0.2833,0.194221 -0.85005,0.375592 -0.84932,0.582665 7.3e-4,0.205466 0.50629,0.48351 0.80478,0.568938 0.25322,0.07258 0.57273,-0.08543 0.8629,-0.142088 0.3861,0.427726 0.90598,0.796455 1.1297,1.295883 0.4746,1.060188 1.16445,1.48105 2.3327,1.390365 3.26205,-0.254679 6.55959,-0.230438 9.78761,-0.698177 3.37537,-0.488913 6.651,-1.558885 10.0861,-1.86263 2.80337,-0.247085 5.58103,-0.793389 8.37081,-1.205198 0.75338,-0.11113 1.18797,0.176114 1.16154,0.980017 -0.0348,1.068512 0.0619,2.205659 -0.12924,3.203199 -0.19043,0.995789 -0.77601,4.307781 -1.30654,6.643408 -0.70198,3.095136 -1.72361,6.58149 -1.74318,6.764467 -0.30988,1.066906 -0.61815,2.132351 -0.92715,3.199257 -1.04208,3.256063 -3.49483,11.393373 -3.69358,12.203403 -0.91357,3.71694 -4.87526,13.25528 -5.44814,14.48924 -1.31778,2.83885 -2.64229,5.693617 -4.23681,8.379867 -1.57246,2.6493 -3.47803,5.10131 -5.24399,7.63496 -1.35794,1.94718 -4.81188,5.35658 -4.85642,5.40725 -5.14965,5.87426 -10.995865,7.1256 -11.12963,7.17087 -3.830258,1.32611 -7.486739,1.29516 -11.241498,-0.60442 -1.69119,-0.85618 -3.491028,-1.61029 -4.959227,-2.76642 -1.571737,-1.23776 -3.274901,-2.83053 -4.71813,-4.11823 -0.432253,-0.38611 -0.739795,-0.94001 -1.334435,-1.25208 -0.879547,-0.45941 -1.490834,-0.0626 -1.534644,0.95359 -0.01898,0.44218 0.01431,0.96351 0.230438,1.32699 1.652491,2.77532 3.491757,5.4458 6.269421,7.1973 2.696032,1.70097 6.765927,3.64217 9.471744,4.72952 2.705962,1.08662 4.864744,1.81955 6.954162,2.24567 2.089271,0.42539 5.621039,1.02237 8.571749,0.14662 2.95085,-0.87196 6.22123,-2.21997 10.77916,-5.93852 4.55793,-3.71985 13.70403,-14.16125 17.22674,-20.64899 1.51581,-2.78978 2.88281,-5.661197 4.2558,-8.525017 1.14926,-2.39681 2.42324,-4.76646 3.26424,-7.27528 z"
     id="path2"
     inkscape:connector-curvature="0"
     style="fill:#f50005;stroke-width:1.46031415" />
  <path
     d="m 275.8032,96.982673 -0.007,0.006 -0.007,0.007 z"
     id="path4"
     inkscape:connector-curvature="0"
     style="fill:#f50005;stroke-width:1.46031415" />
  <path
     d="m 197.0689,42.124655 c -0.46438,-0.117117 -0.9273,-0.234234 -1.39168,-0.351351 l -0.0526,-0.01314 c -0.0935,-1.282302 -0.14749,-2.568401 -0.29499,-3.844569 -0.0788,-0.692189 0.17816,-1.634486 -0.9565,-1.792404 l -0.009,0.01314 c -0.7214,-0.59921 -2.28394,-0.117847 -2.28394,-0.117847 0,0 -1.56691,0.290924 -1.88526,1.11457 -0.97549,0.126171 -1.94806,0.348285 -2.92355,0.358946 -3.30177,0.03768 -3.29301,0.01314 -4.50215,3.065491 -0.15479,0.389174 -0.47314,0.711903 -0.71701,1.065445 -0.27454,-0.317326 -0.72432,-0.602233 -0.79295,-0.959572 -0.23219,-1.193223 -0.99886,-1.425121 -2.01816,-1.338232 -1.00615,0.08616 -1.01784,0.826684 -1.22812,1.611749 -0.50819,1.898116 -1.01054,3.891445 -2.6899,5.151842 -2.02692,1.5234 -2.83593,3.688316 -3.50183,5.975606 -0.50235,1.730326 -0.68635,3.612671 -2.36279,4.78983 -0.23511,0.16633 -0.45854,1.294423 -0.38407,1.442499 -1.42964,1.908776 -5.81497,8.390527 -6.45604,9.675165 -0.70096,1.406137 -1.54356,2.811689 -1.86921,4.31537 -0.26723,1.23923 -0.61771,2.28948 -1.49244,3.17516 -1.6998,0.93008 -1.29092,2.59484 -1.4165,4.07282 -0.28622,0.45869 -0.57245,0.92117 -0.85867,1.38058 -0.2132,0.30448 -0.42641,0.61129 -0.63961,0.9165 -0.10661,0.11492 -0.21467,0.23204 -0.32273,0.34682 -0.28915,0.33485 -0.33004,0.7579 -0.86743,1.00806 -0.5374,0.24942 -2.42266,0.93022 -3.66685,1.28303 -1.88819,0.53272 -2.29561,0.7912 -2.23428,1.8083 0.0832,1.38803 1.12006,1.43257 2.14812,1.49756 0.86159,0.0537 1.03975,0.58266 0.71994,1.27105 -0.9974,2.13761 -1.97727,4.28822 -3.06958,6.37676 -2.57571,4.925197 -7.96032,15.147977 -8.02837,15.358847 -0.49184,1.24375 -0.98382,2.4875 -1.47492,3.73213 -0.004,0.15932 -0.008,0.31878 -0.0114,0.47825 -0.19641,0.26972 -0.39297,0.54032 -0.58938,0.80931 -0.11026,0.17903 -0.22066,0.35967 -0.33091,0.53871 -0.0326,0.1526 -0.065,0.30447 -0.0975,0.45634 -0.54324,0.99755 -1.34875,1.94208 -1.56108,3.00679 -0.23657,1.18096 -0.66955,2.19573 -1.42293,3.03001 -1.59437,1.76669 -1.01477,3.6905 -0.57346,5.61812 0.14282,0.62341 0.68766,0.68985 1.02456,0.2871 0.57361,-0.68533 1.06398,-1.46368 1.46746,-2.26305 0.43912,-0.87123 0.69146,-1.83766 1.12897,-2.70976 0.12837,-0.25541 0.63772,-0.48804 0.92263,-0.44043 0.20401,0.0355 0.51608,0.61201 0.44729,0.85224 -0.24401,0.85764 -0.65816,1.66621 -0.94307,2.51407 -0.0724,0.21525 -0.0407,0.70869 0.14969,0.77149 0.19042,0.0626 0.64005,-0.14063 0.7284,-0.32273 0.56222,-1.16212 1.03668,-2.36659 1.58006,-3.53864 0.95505,-2.05758 1.92762,-4.10684 2.92808,-6.14252 0.10426,-0.21145 0.50468,-0.46992 0.67013,-0.41472 0.2116,0.071 0.368,0.42305 0.46628,0.68225 0.0755,0.20182 0.0612,0.4565 0.025,0.67701 -0.39297,2.37052 -0.80098,4.73638 -1.19234,7.10369 -0.0212,0.12705 0.065,0.38772 0.10792,0.38991 0.20327,0.007 0.52147,0.0131 0.59098,-0.10573 0.21759,-0.36946 0.34902,-0.79193 0.50016,-1.19921 0.67861,-1.82787 0.82143,-3.92167 2.69487,-5.15184 0.33441,-0.21992 0.64691,-0.76316 0.64545,-1.15394 -0.009,-1.7039 3.96184,-10.19869 4.43498,-11.10686 l 0.009,-0.0102 c 0.37384,-0.93767 4.84678,-10.126987 5.72443,-12.482177 0.10807,-0.2909 1.53333,-3.41319 1.63117,-3.5401 0.6294,-1.37605 1.25879,-2.75356 1.88819,-4.12889 0.95066,-0.46686 1.87066,-1.00645 2.85491,-1.38876 5.01326,-1.94733 16.78485,-6.78097 17.37044,-6.63975 0.006,0.14895 0.0117,1.2785 0.0161,1.42891 0.0117,0.30828 0.0234,0.61582 0.0351,0.92482 -0.009,2.12417 -0.057,4.2482 -0.0131,6.3715 0.035,1.676 0.46,7.13319 0.33441,8.16388 -0.1986,1.61935 -0.26286,3.13355 0.4673,4.696957 0.67905,1.45155 0.96673,3.06184 0.51257,4.69403 l -0.0321,0.0476 c -0.009,0.61961 -0.019,1.24287 -0.0278,1.86409 v 0.004 c 0.10952,1.12809 0.10222,2.25093 1.01784,3.17063 0.62939,0.63247 1.10984,0.83414 1.63555,0.0467 0.37822,-0.56587 0.60311,-0.47898 1.00616,-0.0293 1.02222,1.14474 1.59174,2.37418 1.29968,3.97381 -0.0949,0.5206 0.14311,1.15832 0.38698,1.66622 0.13435,0.28184 0.36362,0.8001 0.9127,0.60296 0.55053,-0.19875 0.49796,-0.72388 0.54323,-1.10925 0.0876,-0.75338 -0.0277,-1.53027 0.0482,-2.28583 0.0672,-0.66342 0.20153,-1.34349 0.45708,-1.95405 0.14895,-0.35588 0.55784,-0.68007 0.92584,-0.82143 0.13289,-0.0498 0.5374,0.44204 0.72724,0.74287 0.23949,0.38158 0.31542,0.87954 0.5885,1.22403 0.66007,0.83048 1.5713,0.67861 1.87359,-0.32784 0.19422,-0.64531 0.27892,-1.35108 0.26139,-2.02662 -0.0759,-2.82454 -0.32419,-5.65054 -0.29498,-8.47289 0.057,-5.657407 0.25994,-11.316267 0.39136,-16.973667 0.12997,-5.58337 0.22051,-11.16673 0.37822,-16.749221 0.0467,-1.672206 0.3607,-3.339154 0.37531,-5.0099 0.0497,-5.43821 0.53885,-10.83115 1.40044,-16.198389 0.25555,-1.596707 -0.0205,-3.110907 -0.88057,-4.499812 z m -16.522,29.978938 c -0.91707,0.37472 -1.89695,0.60223 -2.81548,0.97549 -0.38699,0.15713 -1.26025,0.77294 -1.26025,0.77294 0,0 -0.36508,0.43459 -0.47169,0.57653 -0.66152,0.3166 -1.3245,0.89927 -1.98602,0.89781 -1.65162,-0.007 -2.77314,0.69817 -3.61574,2.01903 -0.2059,0.32258 -0.3534,0.70489 -0.62355,0.95811 -0.18985,0.17757 -0.57537,0.30228 -0.81194,0.23569 -0.21175,-0.0619 -0.49213,-0.43298 -0.47314,-0.64224 0.0628,-0.66956 0.13581,-1.37752 0.41035,-1.97756 1.1113,-2.42398 2.23428,-4.847221 3.47408,-7.206359 1.9539,-3.716208 4.00419,-7.381012 6.01358,-11.066991 0.33149,-0.606761 0.57682,-1.252073 1.54209,-0.990531 0.32711,0.08835 0.80025,-0.22153 1.15803,-0.432253 0.34317,-0.202546 0.62355,-0.512278 0.93022,-0.773821 0.0774,0.444374 0.21905,0.888602 0.22051,1.333705 0.0161,4.217242 -0.0394,8.435067 0.0307,12.650702 0.0234,1.368461 -0.55346,2.192078 -1.72171,2.669748 z"
     id="path6"
     inkscape:connector-curvature="0"
     style="fill:#f50005;stroke-width:1.46031415" />
  <path
     d="m 284.34896,38.487889 c -0.46,-0.173777 -0.92,-0.349891 -1.37854,-0.523669 -0.003,-0.11332 -0.038,-0.211599 -0.10952,-0.292501 -0.0204,-0.02263 1.37561,-1.712948 0.58266,-2.534316 -0.2132,-0.167747 -1.40628,-0.57957 -1.61949,-0.745812 -0.10806,-0.667962 -0.23365,-1.333676 -0.31981,-2.003916 -0.14311,-1.08056 -0.80171,-1.348046 -1.76698,-1.168208 -0.31104,0.221398 -0.62355,0.442037 -0.93606,0.663436 l -0.13727,-0.0029 -1.45739,-0.114781 c -1.04851,0.311325 -0.6294,0.868975 -1.67644,1.181044 -0.23949,0.174551 -0.47752,0.349103 -0.71555,0.522895 -0.71702,0.608293 -1.22083,0.954359 -2.09848,2.170932 -0.87765,1.21577 -1.88672,3.199315 -2.49859,4.301852 -0.61042,1.101661 -3.12362,7.643868 -3.1645,7.72477 -0.20153,0.184291 -4.39847,9.471744 -5.78431,12.584257 -1.07917,2.421055 -2.4986,5.32562 -3.55294,8.243912 -1.05435,2.918146 -2.06781,7.369619 -2.30438,7.644599 -0.0789,0.20254 -0.15917,0.40363 -0.23803,0.60603 -0.10514,0.30988 -0.20883,0.61961 -0.31251,0.92949 -0.0423,0.30374 -0.0818,0.60983 -0.12412,0.9143 -0.29791,1.67294 -0.74769,3.96096 -1.06749,4.98186 -0.32127,1.02091 -1.00908,2.17324 -1.39899,3.30732 -0.31688,2.16419 -0.6878,4.3237 -0.93606,6.49621 -0.18984,1.66461 -0.22342,3.34748 -0.32711,5.02188 0.0657,0.60676 0.13143,1.21206 0.19861,1.820277 0.3052,1.08282 0.3753,1.5967 0.91707,3.24847 0.54178,1.65103 2.82425,3.1994 2.82425,3.1994 2.69428,1.51274 7.23586,1.50894 9.28176,0.10646 2.0459,-1.40234 3.45072,-2.34016 4.33275,-3.11383 0.88203,-0.77309 5.34037,-4.312457 7.44906,-6.665457 2.11016,-2.35374 2.90311,-3.48416 3.52812,-4.10684 0.31543,1.08662 0.009,2.03042 -0.66736,2.88952 -0.14311,0.41254 -0.28768,0.82508 -0.43372,1.23776 -0.11244,1.87768 -0.3125,3.754617 -0.31834,5.631707 -0.0102,2.52532 0.99885,7.81998 3.63326,8.27866 2.6344,0.45781 3.06666,0.47446 4.62189,-0.31513 1.20622,-0.61436 2.58622,-0.93022 3.92241,-1.23543 0.96526,-0.21919 1.29383,0.24402 0.87034,1.16358 -0.48044,1.03974 -1.03536,2.05013 -1.6151,3.03848 -2.31314,3.95569 -4.61022,7.91826 -6.973,11.84752 -0.94045,1.56254 -0.40451,1.77721 0.86742,1.79531 0.22781,0.004 -0.22927,1.27544 -0.1913,1.69791 0.11975,1.34729 0.77835,1.75223 1.89403,0.97242 0.65422,-0.45707 1.15219,-1.18402 1.61365,-1.86175 0.4673,-0.6862 0.76666,-1.48864 1.2325,-2.17704 0.0862,-0.12996 0.79003,-0.0778 0.90832,0.0976 0.29498,0.42466 -0.15772,1.44995 0.82653,1.27018 0.46438,-0.0838 0.83676,-0.75717 1.22229,-1.18709 0.25409,-0.28563 0.43809,-0.62866 0.68342,-0.92335 0.41035,-0.49651 0.79734,-0.6808 1.22083,0.0369 0.43225,0.73834 1.06749,0.57581 1.5158,0.0718 0.70972,-0.79645 1.42527,-1.62314 1.92908,-2.55175 1.34203,-2.48005 2.60374,-5.0061 3.83478,-7.54428 0.4454,-0.91956 0.92876,-1.60561 2.07073,-1.30712 0.95796,0.25073 1.36977,-0.19423 1.67644,-1.05493 0.43225,-1.22419 0.90831,-2.44822 1.53041,-3.58318 2.0459,-3.74264 4.17066,-7.44293 6.25744,-11.162927 1.67791,-2.99072 3.3412,-5.99065 5.00742,-8.98663 0.8981,-1.61408 1.59905,-3.36033 2.68406,-4.86562 1.42089,-1.97522 4.16774,-2.38776 5.02202,-2.2978 0.85282,0.0892 1.76406,-0.42612 2.15542,-0.82362 0.39283,-0.39604 0.48775,-0.34464 1.04413,-0.70358 0.55638,-0.3588 0.91416,-0.65583 1.18139,-0.85005 0.26432,-0.19422 4.35174,-1.80816 5.21186,-2.64843 1.65746,-1.62153 4.21885,-2.56387 6.50716,-2.74451 0.21613,1.05259 0.27162,2.19441 0.28331,3.26818 0.0219,2.40967 -0.0278,4.82313 -0.0467,7.23367 -0.0161,0.3166 -0.0336,0.63392 -0.0482,0.94979 -0.62501,1.54895 0.0394,2.94925 0.44686,4.40153 0.19276,0.68766 0.39283,1.56108 0.13727,2.15499 -0.84406,1.9466 -0.4454,3.92547 -0.40451,5.89163 0.0161,0.77908 0.31981,1.5732 1.36978,1.46747 0.86596,-0.0869 0.99885,0.36946 1.05727,1.086617 0.11244,1.36992 0.32126,2.73079 0.49212,4.09472 0.16064,1.28537 0.2906,2.57673 0.50673,3.85304 0.11391,0.67701 0.39283,1.20973 1.18724,1.5142 1.29091,0.49578 1.33034,0.7065 0.69365,2.00166 -0.3607,0.73293 -0.73308,1.37824 0.006,2.05612 1.22666,1.1221 1.27923,2.33636 0.35631,3.67225 -0.55346,0.80405 -0.45561,1.46455 0.59581,1.70024 0.89079,0.20021 0.94775,0.92949 1.04121,1.58459 0.0774,0.51987 -0.0263,1.06311 -0.0657,1.59583 -0.0482,0.71862 0.18838,1.21425 0.98717,1.23017 0.69949,0.0159 0.88203,-0.43298 0.9127,-1.04953 0.1694,-3.35346 0.30375,-6.70693 0.55054,-10.05295 0.10368,-1.42891 0.70971,-4.80881 0.73016,-5.08452 0.14165,-1.39956 0.56368,-4.84444 0.63523,-5.16863 0.14165,-3.674587 0.47314,-13.073027 0.68051,-16.530027 0.20882,-3.45627 1.3026,-19.668387 1.37561,-22.106673 -0.0832,-0.158006 2.024,-15.405877 2.73225,-18.865069 0.70972,-3.460069 0.66591,-6.574773 0.58121,-6.931381 -0.0862,-0.356755 -1.59759,-0.771484 -2.43727,-0.909776 -1.68812,-0.275854 -3.40399,-0.37866 -5.10964,-0.551649 -1.1113,-0.137561 -0.88349,-1.497654 -0.97695,-1.737949 -0.092,-0.239535 -3.70481,-1.274737 -4.42913,-0.896925 -0.72285,0.377813 -0.89517,3.865861 -1.07041,5.47834 -0.45124,0.771484 -0.89809,1.543698 -1.34641,2.315182 -0.33149,0.300825 -0.66298,0.60384 -0.99447,0.905249 -0.13143,0.135225 -0.26578,0.26972 -0.39721,0.405091 -0.89079,0.557548 -1.77866,1.115972 -2.66945,1.673666 -1.27048,1.35561 -2.53949,2.710489 -3.81142,4.066099 -0.0847,0.09142 -0.73454,0.907439 -0.92,1.153794 -0.69073,0.952855 -2.3146,3.018762 -2.3292,3.182755 -0.2541,0.349015 -0.50965,0.698176 -0.76521,1.046461 0,0 -0.5739,0.220654 -0.66006,0.37939 -1.08939,1.983544 -2.1525,3.982861 -3.21999,5.979256 0,0 -0.76959,0.371796 -1.17994,0.571275 -0.35485,0.274247 -0.70971,0.54937 -1.0631,0.822887 -0.14165,0.04761 -2.33943,2.922819 -3.51352,4.150651 -0.23949,0.253073 -0.67613,1.153064 -0.67174,1.297489 -1.57422,0.653491 -1.37708,3.130476 -1.60781,3.424437 -0.23073,0.293961 -1.29384,0.788132 -1.56984,1.30421 -0.80025,1.49609 -1.7626,4.14773 -2.1306,4.63051 -0.36508,0.48438 -0.92146,0.96716 -1.27193,1.29515 -0.23365,0.0937 -0.46438,0.18663 -0.69949,0.28038 -1.00762,0.10427 -1.47492,1.39942 -1.60635,1.6706 -0.13289,0.27279 -0.4819,0.32419 -0.72139,0.48584 -0.17232,0.11873 -0.34756,0.23658 -0.52133,0.35749 l 0.0292,-0.0279 c -0.35339,0.15406 -0.70533,0.30754 -1.0558,0.46087 -2.21092,1.33823 -4.4233,2.66435 -6.61815,4.03427 -0.18546,0.11711 -0.3607,0.5977 -0.2687,0.76929 0.77105,1.48178 0.29061,2.65149 -0.80317,3.71387 -0.0935,0.09 -0.16209,0.37253 -0.12851,0.39443 0.17524,0.11639 0.42495,0.29163 0.58267,0.23949 0.9419,-0.31046 1.8546,-0.71175 2.80088,-1.00951 0.33003,-0.10266 0.95943,-0.11785 1.04559,0.0447 0.17961,0.33471 0.19276,0.84626 0.0788,1.2293 -0.11828,0.41867 -0.45415,0.77761 -0.70387,1.15773 -0.87473,1.33663 -3.14406,4.33655 -3.31199,4.56772 -1.25295,1.71981 -2.46647,3.47058 -3.72526,5.185137 -0.74038,1.00805 -1.55378,1.54078 -2.70889,0.65816 -0.8353,-0.63932 -1.62971,-1.33297 -2.4431,-1.99946 -0.0555,-0.466857 -0.11245,-0.932407 -0.17086,-1.400877 0.32711,-1.77954 0.41911,-3.5544 1.26171,-5.28634 1.18432,-2.43171 1.90571,-5.08992 2.80089,-7.66066 0.97695,-2.80336 1.93053,-5.61505 2.8885,-8.42368 0.48774,-1.43417 0.96673,-2.87521 1.43257,-4.31917 1.61656,-3.221303 3.25212,-6.43122 4.83218,-9.668298 0.83237,-1.700974 1.56253,-3.450138 2.33942,-5.179004 0.13143,-0.03782 0.184,-0.123251 0.16209,-0.257016 1.42527,-2.756489 2.96736,-5.462451 4.21301,-8.296775 0.45708,-1.04208 0.39429,-2.421055 0.21029,-3.589306 -0.0862,-0.553021 -0.9974,-1.002652 -1.57714,-1.448486 -0.6148,-0.474456 -0.60749,-0.895464 -0.18984,-1.545304 0.84698,-1.326842 0.72285,-2.145202 -0.18839,-3.240145 -0.72431,-0.871224 -1.6779,-1.003382 -2.69427,-0.962639 -1.2807,0.04921 -2.4986,0.03329 -3.79828,-0.335435 -1.06895,-0.303745 -2.5833,-0.791198 -3.5398,0.613478 l -0.092,0.09229 c -0.36216,0.646773 -6.05447,10.531932 -6.36843,11.041144 l -1.61073,2.470997 c -0.41181,0.618005 0.53447,1.607952 0.33003,2.102123 -0.20444,0.4949 -0.70387,-0.240222 -1.4866,0.542506 -0.0496,0.01592 -0.69073,2.280573 -1.2179,4.357724 -0.0453,0.176114 0.644,0.358945 0.59727,0.542507 -0.0394,0.149682 -0.81194,0.791928 -0.85137,0.946137 -0.39282,1.545305 -0.83237,2.794311 -1.25002,4.402994 -0.0774,0.294691 0.092,0.340107 0.0161,0.623408 -0.073,0.27965 -0.38991,0.06279 -0.46,0.327986 -0.39867,1.498429 -0.74914,3.47438 -0.97403,4.112099 -0.0643,0.183562 0.11829,0.366539 0.054,0.550831 -0.0891,0.253948 -0.42349,0.508627 -0.51257,0.764034 -1.05873,3.05878 -2.06488,6.12967 -2.98926,9.23226 -0.0832,0.2078 -0.16794,0.41779 -0.25264,0.62559 -0.74768,1.00426 -1.49682,2.00852 -2.24596,3.01278 -0.43079,0.38231 -0.86304,0.76316 -1.29238,1.14401 0.001,0.0838 0,0.16691 -0.007,0.24402 0.007,-0.0786 0.009,-0.1602 0.007,-0.24402 -0.33295,0.38085 -0.66444,0.76082 -0.98863,1.1424 -0.21759,0.17685 -0.43809,0.35515 -0.65714,0.53272 -0.14895,0.0371 -0.24095,0.13158 -0.27162,0.28418 -0.17232,0.17904 -0.34463,0.35895 -0.51987,0.53871 -10e-4,-0.0188 0.003,-0.0339 -10e-4,-0.0529 -0.51111,0.51461 -1.02368,1.02762 -1.53771,1.54151 0.12266,-0.004 0.23803,-0.0146 0.35193,-0.0295 -0.11244,0.0159 -0.22927,0.025 -0.35193,0.0295 -0.21029,0.18662 -0.42057,0.37252 -0.63232,0.55842 -0.25701,0.26826 -0.51403,0.53725 -0.76958,0.80478 -0.13727,0.0505 -0.81048,0.69058 -1.10546,0.8886 -0.13581,0.0679 -0.2833,0.11858 -0.40159,0.20707 -3.39815,2.56461 -6.79338,5.1314 -10.18861,7.699797 -0.27016,0.0892 -0.26432,0.11026 -0.80755,0.27045 -0.5447,0.1602 -2.1014,-0.0634 -2.15105,-0.726067 -0.0496,-0.66269 0.51111,-4.46724 1.10546,-6.69875 1.19892,-4.49675 2.7819,-8.8 4.90081,-12.92641 0.82216,-1.59977 1.62826,-3.79331 2.33651,-4.86474 0.70971,-1.07158 2.1379,-2.97875 2.64609,-3.999659 0.50819,-1.022366 0.78126,-2.955238 1.46323,-4.281349 1.24857,-2.428649 2.66654,-4.776396 4.12977,-7.086321 0.94774,-1.499889 1.74654,-2.966628 1.92908,-4.806478 0.11974,-1.237762 0.63231,-2.478445 0.91853,-2.900184 0.28622,-0.422323 1.0047,-1.039013 1.14489,-1.31326 0.92876,-1.818092 1.79034,-3.671522 2.67383,-5.513125 0,0 1.83562,-2.945307 2.54533,-4.510326 0.71994,-1.589844 0.64692,-1.623869 -1.14196,-2.449677 z m -4.64672,48.070034 c -0.004,0.0159 -0.006,0.0355 -0.009,0.0507 0.003,-0.0152 0.004,-0.034 0.009,-0.0507 z m 14.18549,-36.171102 0.0759,0.10339 -0.073,-0.09054 c -0.003,-0.0044 -0.003,-0.0088 -0.003,-0.01314 z m 45.93126,7.680961 c -0.43517,1.175699 -0.83384,2.245671 -0.7287,3.513662 0.0482,0.581059 -0.14749,1.196143 -0.30228,1.776472 -0.20298,0.757173 -0.68927,1.137147 -1.52749,1.061648 -2.20507,-0.201085 -3.7311,0.999731 -5.1111,2.510865 -0.30228,0.331053 -0.65422,0.689998 -1.05727,0.840264 -0.84114,0.313676 -1.73193,0.496507 -2.59936,0.733078 0.18546,-0.779808 0.28184,-1.595977 0.58267,-2.3311 0.42495,-1.046607 0.87035,-2.124903 1.52895,-3.028691 2.46355,-3.383694 5.01764,-6.700798 7.55712,-10.025641 1.12153,-1.4682 0.92876,-0.02191 1.46032,0.104996 0.14749,0.03563 0.55784,-0.700366 0.70241,-0.654366 0.18692,0.06119 0.24679,0.248691 0.33149,0.405821 0.0774,0.146615 0.14019,0.300679 0.18546,0.460145 0.11098,0.377053 0.14165,0.778347 0.12121,1.168981 -0.0409,0.797186 -0.34464,1.530848 -0.64546,2.259399 -0.16794,0.401148 -0.34902,0.798645 -0.49797,1.204467 z"
     id="path8"
     inkscape:connector-curvature="0"
     style="fill:#f50005;stroke-width:1.46031415" />
  <path
     d="m 395.60299,82.235833 c 0.69657,0.22971 2.29124,0.64678 3.4478,0.93548 1.43403,0.36041 2.69428,0.9603 3.71212,2.10285 1.30991,1.47273 2.72787,2.84951 4.08888,4.27989 0.30667,0.32185 0.65568,0.65057 0.83092,1.04661 1.16095,2.62491 2.62565,4.916 5.55796,5.89689 0.61479,0.20474 1.11714,0.76316 1.65307,1.18096 0.40159,0.31747 0.73892,0.72694 1.16972,1.00353 1.78888,1.15759 3.63618,2.230627 5.39294,3.435817 1.2471,0.85458 2.38323,1.8733 3.569,2.81695 0.16356,0.12544 0.32565,0.24869 0.48775,0.37253 1.06603,0.94161 2.13352,1.88307 3.20101,2.82541 6.32608,6.31396 12.41997,12.90305 20.27646,17.44068 0.61333,0.37705 1.22812,0.75411 1.84,1.13189 0.42641,0.2538 0.84552,0.50702 1.26901,0.76082 0.35778,0.26826 0.71117,0.53579 1.06603,0.80405 1.82831,1.37226 3.70043,2.69384 5.47618,4.13021 2.96735,2.40149 5.86462,4.88753 8.81299,7.30931 0.88495,0.72607 9.32119,6.41443 10.26163,7.06807 0.0905,0.0635 2.59352,0.74359 0.61917,-0.92862 -1.27047,-1.07829 -7.30157,-4.75288 -7.35998,-4.80355 -1.72463,-1.49391 -3.94577,-2.7067 -5.65142,-4.2225 -2.27955,-2.02356 -4.51967,-4.08567 -6.77439,-6.13873 -2.69282,-2.45347 -4.97091,-5.39513 -8.36322,-7.02206 -0.39429,-0.18736 -0.78127,-0.54178 -0.99302,-0.91956 -1.6005,-2.87142 -4.18526,-4.83905 -6.54512,-6.97213 -1.62095,-1.46747 -3.66831,-2.45654 -5.42507,-3.79097 -2.24597,-1.70331 -4.39117,-3.53864 -6.58018,-5.31438 -0.19714,-0.20634 -0.39428,-0.41414 -0.59435,-0.62034 -0.97403,-0.8886 -1.94659,-1.77735 -2.92062,-2.66361 -1.70857,-1.26113 -3.40108,-2.54504 -5.13447,-3.772137 -0.73892,-0.52367 -1.57714,-0.91197 -2.34526,-1.40176 -0.25702,-0.16472 -0.84114,-0.44422 -0.15042,-0.76695 1.10838,-0.51987 0.43226,-0.81909 -0.0774,-1.20812 -3.08857,-2.36147 -6.10412,-4.78399 -8.68303,-7.74142 -0.96381,-1.10487 -2.44165,-1.75836 -3.67853,-2.62886 -0.42641,-0.30155 -0.89225,-0.58646 -1.23397,-0.97183 -1.71003,-1.92674 -2.67967,-4.45586 -4.89643,-5.9778 -0.22197,-0.15406 -0.3461,-0.50848 -0.42641,-0.79558 -0.0745,-0.25541 -0.0204,-0.54557 -0.0248,-0.81982 0.27162,0.0264 0.64108,-0.0514 0.80464,0.0959 0.80317,0.7065 1.52894,1.49463 2.32043,2.21165 0.43664,0.39516 0.91562,0.93927 1.43403,1.01258 1.00908,0.14282 1.67352,0.45562 2.06343,1.47346 0.16355,0.4194 0.80463,0.66502 1.24564,0.96191 1.26318,0.85165 2.5687,1.64051 3.78952,2.55029 0.68489,0.51301 1.20184,1.19162 2.19047,0.57653 0.19276,-0.11945 0.74476,0.0665 0.94921,0.28418 2.48253,2.68537 4.91979,5.41397 7.39503,8.10562 1.1186,1.21279 2.03129,2.63411 3.63618,3.36471 0.86597,0.3937 1.72463,0.92876 2.39491,1.59218 1.18724,1.177297 2.3,2.448217 3.31784,3.778847 1.16095,1.52107 2.58183,2.5722 4.44519,3.01643 0.49359,0.36128 0.9901,0.72169 1.48368,1.0837 0.66737,0.50016 1.33473,1.00192 2.00063,1.50062 1.76552,1.31559 3.5325,2.63031 5.29656,3.94737 0.30959,0.263 0.61918,0.52367 0.93022,0.78667 0.17232,0.14282 0.34318,0.28783 0.51696,0.43138 0.28476,0.22606 0.57098,0.45197 0.85574,0.67715 0.14895,0.0914 0.2979,0.1821 0.44686,0.27278 2.1379,1.71295 4.29916,3.39655 6.40347,5.14425 2.81987,2.34176 5.57402,4.76194 8.40411,7.08632 2.11162,1.73573 4.49047,3.148 6.29103,5.26137 0.24096,0.28199 0.59581,0.58573 0.93461,0.63933 0.55784,0.0838 1.34933,0.19641 1.68082,-0.105 0.56222,-0.51009 0.0409,-1.07231 -0.41765,-1.52866 -0.80171,-0.80857 -1.80057,-1.53917 -2.28247,-2.51773 -0.45854,-0.93401 -1.05435,-1.4682 -1.93492,-1.76668 -3.60259,-1.22419 -6.1596,-3.8802 -8.84074,-6.36916 -2.28831,-2.12418 -4.57663,-4.24747 -6.86494,-6.37223 -0.644,-0.60384 -1.28508,-1.20827 -1.92907,-1.8105 -0.1475,-0.14355 -0.29499,-0.2887 -0.44102,-0.43225 -0.35486,-0.35588 -0.70825,-0.71249 -1.06019,-1.06997 -0.24971,-0.27805 -0.49942,-0.55697 -0.74768,-0.83501 -0.89809,-0.80697 -1.74069,-1.68959 -2.70596,-2.4028 -1.4647,-1.0783 -3.10171,-1.93448 -4.51091,-3.07396 -1.39752,-1.13189 -2.83447,-2.34016 -3.83625,-3.7993 -1.21498,-1.773407 -2.44018,-3.279427 -4.64818,-3.731977 -0.42495,-0.087 -0.78272,-0.45869 -1.18431,-0.67715 -2.12768,-1.15993 -3.5398,-3.09952 -5.1038,-4.83744 -1.52019,-1.68958 -2.81548,-3.58171 -4.20862,-5.38461 -0.17378,-0.17086 -0.3461,-0.34157 -0.51988,-0.51243 -0.76666,-1.02528 -1.41942,-2.17017 -2.32774,-3.05045 -1.24857,-1.21045 -2.6899,-2.22157 -4.05091,-3.31418 -1.24419,-0.99667 -1.25879,-1.52252 0.10806,-2.38922 0.76229,-0.48599 1.69689,-0.69672 2.46355,-1.18037 4.7212,-2.98094 9.2584,-6.187062 12.5149,-10.862112 0.97841,-1.602695 2.13936,-3.124634 2.8958,-4.825462 1.38584,-3.111638 1.57568,-6.387415 1.3099,-9.818715 -0.26724,-3.446341 -1.51142,-6.277744 -3.67561,-8.830228 -0.019,-0.151142 -1.13612,-1.243749 -1.25149,-1.36773 -0.43225,-0.433713 -1.43111,-1.282302 -4.22761,-3.42064 -2.79504,-2.139243 -6.76271,-4.258028 -10.24702,-4.712916 -3.48285,-0.456392 -8.28875,0.252386 -10.38284,0.442797 -0.35193,0.03169 -0.79587,0.220653 -1.00031,0.486635 -0.97403,1.267188 -2.45187,1.467426 -3.8158,1.92005 -1.13613,-0.02497 -2.27517,-0.1012 -3.40984,-0.06352 -1.18431,0.04074 -2.36863,0.189665 -3.55148,0.292427 -0.42641,0.0257 -1.54501,0.169265 -1.6779,0.213849 -0.5447,0.08996 -2.48254,0.55086 -2.83447,0.667977 -2.08095,0.947612 -7.9777,3.166852 -9.19852,3.647441 -1.21936,0.48132 -1.73193,0.472266 -3.41421,0.828874 -0.71848,0.153479 -1.5494,0.683866 -2.29708,1.14182 l -0.24387,0.182101 c -0.81048,0.413999 -1.62095,0.828875 -2.43434,1.24302 -0.43956,0.265923 -0.87911,0.530386 -1.31867,0.796455 -0.77835,0.336895 -1.55815,0.675541 -2.3365,1.013166 -0.28768,0.119454 -0.94482,0.246355 -1.35225,0.489789 -0.40889,0.244749 -1.48222,1.275439 -1.60781,1.812688 -0.12412,0.53798 -0.20444,0.905979 -0.30666,1.360137 -0.10515,0.361866 -0.21029,0.724608 -0.31689,1.08662 0,0 -0.0759,0.173777 -0.0759,0.175238 -0.24241,0.566017 -1.11422,0.815293 -1.62241,1.030689 -0.69803,0.297028 -1.58882,0.549371 -2.18755,1.026893 -0.55054,0.439847 -0.6513,1.148537 -0.90101,1.768149 -0.1913,0.470075 -0.14165,1.206803 0.0686,1.662421 0.20299,0.444374 1.07479,1.265655 1.54648,1.337502 0.53885,0.08163 1.35517,0.136686 1.6151,0.244749 0.25994,0.108063 1.04559,0.975636 0.9974,1.338232 -0.0497,0.362742 0.23657,1.295152 0.97549,1.553628 0.52863,0.08689 1.06019,0.173777 1.59028,0.263003 0.53593,0.02263 1.07187,0.04527 1.60781,0.0679 0.12704,0.144425 0.25409,0.288704 0.3826,0.432983 0.23073,0.70431 0.60749,1.191617 1.45447,0.978557 0.61771,0.0015 1.78158,0.248691 3.01117,-0.0073 1.22958,-0.256139 1.83561,-0.677001 2.69282,-1.128823 0.92,-0.485846 1.76698,-1.107064 2.64463,-1.669285 0.50965,-0.407281 1.09377,-0.583249 1.04704,0.314406 -0.0964,1.831672 -0.54908,3.596024 -1.56545,5.16776 -0.0701,0.165453 -0.13873,0.330907 -0.20591,0.496507 -0.47022,2.464864 -5.96392,16.135598 -6.697,18.888428 -0.73454,2.75416 -1.44717,5.60221 -1.656,6.09258 -0.0467,0.20021 -0.0905,0.39896 -0.13873,0.59844 -0.2979,0.94307 -0.65714,1.87241 -0.86596,2.83213 -0.13581,0.6294 -0.49067,2.15426 -0.0131,1.92835 1.50413,-0.70504 0.53302,0.91591 -0.81631,1.83167 -0.81048,0.0529 -3.01993,5.018947 -3.28863,7.597137 -0.16647,1.58677 -1.22958,3.90736 -0.82508,4.55267 0.0832,0.13143 0.37092,0.40801 0.20883,0.47519 -1.0967,0.44364 -1.87943,4.95397 -1.87943,4.95397 0,0 0.36216,0.19714 0.18108,0.37924 -0.18108,0.1821 -0.20298,0.22825 -0.32857,0.33865 -0.2205,0.21832 -1.44717,2.75955 -1.67498,3.34587 -0.0964,0.16925 -1.24272,2.49655 -1.38438,2.77168 -0.80025,1.12736 -1.07041,4.01907 -0.77104,5.43967 0.1986,0.93854 0.39574,-0.17831 0.41473,0.78667 0.004,0.22898 -0.054,0.36347 -0.0526,0.58179 10e-4,0.45649 0.27746,3.10112 0.66444,3.2787 0.72139,0.33105 0.77251,-0.4473 1.00762,-0.87955 0.0701,-0.12997 0.18692,-0.23278 0.2833,-0.34829 -0.0438,-0.1656 0.65422,-0.90758 0.80317,-0.98761 0.15187,0.0491 -0.6732,2.34322 -0.10368,2.18755 0.56952,-0.15348 2.25034,-5.79949 2.44164,-6.21509 0.33003,-0.62867 0.6586,-1.25587 0.98864,-1.88381 0.2833,-0.0846 0.5666,-0.17071 0.84844,-0.25687 0.2906,0.0869 0.58266,0.17378 0.86889,0.25994 0.10076,0.15333 0.1986,0.30754 0.29936,0.46087 0.007,0.44744 -0.0438,0.90452 0.0423,1.33604 0.0438,0.22212 0.32273,0.39823 0.49212,0.59537 0.17962,-0.2002 0.3607,-0.39749 0.54178,-0.59916 0.14165,-0.3423 0.27454,-0.68533 0.42057,-1.02617 1.52749,-3.61267 3.0579,-7.22534 4.58247,-10.83655 0.33149,-0.79032 0.52863,-1.63132 0.87765,-2.41565 0.0569,-0.12924 1.25003,-2.02735 1.45739,-1.70477 0.15917,0.24416 0.42641,0.47767 0.45124,0.73454 0.0409,0.44276 -0.14311,0.9105 -0.0876,1.34801 0.0409,0.3166 0.28476,0.80858 0.50381,0.84786 0.27162,0.0476 0.70095,-0.22138 0.90247,-0.47986 0.32565,-0.41108 0.62209,-0.89765 0.75644,-1.40015 0.30229,-1.14941 2.24743,-11.270257 4.5445,-21.148557 2.25035,-9.68641 5.33453,-20.052157 5.64996,-20.052887 0.70679,-7.3e-4 1.03974,-0.338501 1.17117,-0.97549 0.31251,-1.385838 0.62793,-2.772406 0.9419,-4.158244 0.16356,-0.562952 0.32711,-1.125903 0.48775,-1.688854 0.16063,-0.360405 0.32127,-0.720081 0.4819,-1.081363 0.47022,-0.870493 0.90832,-1.762891 1.42235,-2.606806 0.41034,-0.674812 0.88787,-0.923503 1.19745,0.09813 0.23073,0.76316 0.74038,0.894734 1.08648,0.232044 0.76374,-1.46893 1.60926,-2.968089 1.96412,-4.556473 0.2614,-1.165915 0.80755,-1.734123 1.73777,-2.170173 5.52583,-2.587238 10.9436,-2.353004 16.24162,0.6605 2.18755,1.245941 3.12507,2.98386 2.59936,5.074738 -0.48191,1.923818 -1.19746,3.753154 -2.44749,5.368699 -1.72755,2.235888 -3.35872,4.549755 -4.97675,6.868004 -1.33765,1.914764 -4.63796,2.232825 -6.3363,0.581789 -0.82216,-0.799522 -1.6633,-1.589114 -2.57016,-2.282763 -0.78272,-0.599167 -1.87358,-0.370189 -2.12913,0.439847 -0.2468,0.776011 -0.48045,1.643437 0.34901,2.318249 0.8353,0.677001 1.73339,1.304943 2.42412,2.108983 0.39137,0.45402 0.644,1.26259 0.53156,1.827 -0.0774,0.39443 -0.85867,0.87663 -1.35663,0.91737 -0.97257,0.0786 -1.96851,-0.16925 -2.95714,-0.19042 -0.49943,-0.0117 -1.24127,0.007 -1.46178,0.30988 -0.49212,0.67554 -1.25879,1.57845 -1.29968,2.44821 -0.0569,1.11145 2.68406,3.51513 3.29155,3.71621 z"
     id="path10"
     inkscape:connector-curvature="0"
     style="fill:#f50005;stroke-width:1.46031415" />
  <path
     d="m 471.19616,147.41331 c -2.41828,-1.44469 -4.87307,-2.83053 -7.29427,-4.27011 -1.5494,-0.92175 -3.26672,-1.68345 -4.55618,-2.89244 -5.89967,-5.5381 -11.63579,-11.25143 -17.51647,-16.81056 -2.25911,-2.13541 -4.59707,-4.2111 -7.70024,-5.17988 -1.36977,-0.42831 -2.67091,-1.1386 -3.92094,-1.86788 -0.75644,-0.44131 -1.55232,-1.04501 -1.98019,-1.77867 -1.65891,-2.85257 -4.37364,-4.56625 -6.8036,-6.59594 -2.86222,-2.17543 -4.59415,-5.57578 -7.89738,-7.27967 -0.2614,-0.13537 -0.49067,-0.37486 -0.67467,-0.61362 -2.17586,-2.837397 -4.50945,-5.518387 -7.19642,-7.900887 -2.7673,-2.45493 -5.07752,-5.41411 -8.29459,-7.3832 -0.7579,-0.46321 -1.34349,-1.22564 -1.95682,-1.90045 -0.0672,-0.0748 -1.4092,-1.36306 -2.26495,-1.84599 -0.8572,-0.48438 -2.85199,-0.99067 -4.2977,-1.43271 -1.78597,-0.54923 -2.52781,-0.034 -2.80234,1.87329 -0.0993,0.67846 -0.15042,1.37138 -0.1475,2.05904 0.006,1.42366 0.24096,1.64125 1.7261,1.8438 0.59726,0.0816 1.37561,0.0188 1.74507,0.36799 0.92,0.87415 1.94368,0.841 3.00241,0.67014 1.05872,-0.17071 1.65599,0.25541 2.29707,1.07684 1.21352,1.55056 2.4212,3.20305 3.96621,4.36678 1.98019,1.49156 3.53542,3.34368 5.2586,5.05663 1.99478,1.98427 3.6683,4.278417 6.32754,5.581017 0.99301,0.48819 1.6151,1.7388 2.40513,2.64405 0.79588,0.91197 1.45886,1.99932 2.4066,2.69983 1.52749,1.1297 3.23898,2.00472 4.87161,2.98853 0.58997,0.47154 1.19454,0.92715 1.76844,1.41826 1.2106,1.04135 2.58038,1.96164 3.54856,3.19414 0.84261,1.06837 1.656,1.78392 2.99365,2.20187 1.35225,0.42392 2.6899,1.17949 3.77929,2.09087 3.40545,2.84265 6.70284,5.8122 10.01922,8.76218 2.27809,2.02808 4.4043,4.23915 7.53668,5.02348 0.68051,0.17071 1.26463,0.80098 1.8473,1.27325 1.29237,1.04953 2.55555,2.13089 3.82894,3.19853 0.36362,0.27804 0.7287,0.55696 1.09085,0.83573 0.0993,0.11478 0.18254,0.25089 0.29937,0.34537 3.65809,3.00051 7.85941,5.26589 11.33642,8.52575 0.66152,0.61888 2.03276,0.34069 2.75123,1.01098 11.12029,10.40576 11.35686,8.02705 11.73947,7.84948 -0.20883,-0.29236 -10.95674,-9.03657 -11.2415,-9.20582 z"
     id="path12"
     inkscape:connector-curvature="0"
     style="fill:#f50005;stroke-width:1.46031415" />
  <path
     d="m 453.78045,145.3731 c -0.36362,-1.09859 -1.12736,-1.58897 -1.88965,-2.12549 -0.99009,-0.69598 -2.10723,-1.20373 -3.15574,-1.81736 -1.49828,-0.88101 -3.0871,-1.63219 -3.72234,-3.49628 -0.17085,-0.50016 -0.78857,-1.10926 -1.27923,-1.19235 -2.10285,-0.36201 -3.22876,-2.60914 -5.44551,-2.71808 -0.27454,-0.0131 -0.51841,-0.519 -0.78711,-0.78273 -0.54178,-0.53433 -1.13467,-1.02237 -1.62679,-1.59671 -1.10546,-1.29442 -2.99803,-1.80976 -3.57193,-3.66027 -0.0818,-0.26286 -0.73162,-0.40422 -1.14197,-0.49491 -2.19777,-0.48818 -3.98227,-1.56487 -4.80589,-3.73212 -0.59435,-1.56254 -1.73923,-2.62506 -2.8038,-3.80908 -0.90394,-1.00266 -1.90425,-1.45608 -3.22584,-1.2861 -1.08939,0.14063 -1.91593,-0.18356 -2.4358,-1.255 -0.22051,-0.45649 -0.70533,-0.78521 -1.06895,-1.17277 -0.50089,-0.57362 -1.00032,-1.14635 -1.5012,-1.71836 -0.12705,-0.17304 -0.25264,-0.34755 -0.37969,-0.5206 -0.009,-0.14968 -0.0672,-0.27585 -0.17523,-0.38012 -0.21175,-1.32538 -0.84699,-2.36352 -2.04298,-3.02168 -1.87651,-1.5567 -3.85815,-3.00138 -5.60031,-4.69622 -2.34964,-2.28802 -4.61459,-4.66074 -5.39148,-8.087517 -0.23365,-1.02236 -1.06019,-2.05539 -1.88672,-2.76189 -1.38292,-1.18022 -2.91187,-2.23516 -4.51092,-3.10112 -2.39783,-1.29968 -4.72411,-2.81841 -7.49433,-3.29374 -0.87473,-0.14881 -1.76844,-0.49797 -2.37593,0.45109 -0.39282,0.61202 0.0949,1.03449 0.60457,1.40176 0.30375,0.21758 0.67467,0.47752 1.01784,0.48132 1.60781,0.0181 2.29415,1.10779 2.70742,2.37344 0.5666,1.73413 1.65454,2.53131 3.47263,2.77913 1.4866,0.20488 3.08126,0.74432 3.60698,2.40601 0.92291,2.904567 2.90164,4.959077 5.20164,6.734087 2.12621,1.64432 3.98227,3.51367 5.56087,5.67712 0.30959,0.42466 0.60311,0.8886 1.00324,1.21192 1.58298,1.2861 3.20685,2.52459 4.81465,3.77973 0.16356,0.15041 0.32419,0.30068 0.48629,0.45182 0.46292,0.46248 0.92876,0.92715 1.39168,1.39036 1.21644,2.22304 3.08126,3.57339 5.54919,4.11064 0.31981,0.12471 0.64108,0.24942 0.96089,0.37326 0.55054,0.47387 1.15803,0.89765 1.64577,1.43198 0.85867,0.94001 1.59028,1.9964 2.47085,2.91143 0.62794,0.65364 1.40483,1.16285 2.12622,1.7258 2.46939,1.93375 4.89643,3.92781 7.42716,5.77686 2.57599,1.88293 5.27611,3.60055 7.89008,5.43441 1.18285,0.83048 2.34526,1.70857 3.40983,2.67953 1.80349,1.64417 3.57047,3.29754 5.78284,4.41278 0.90248,0.45576 1.66184,1.19162 2.48546,1.80144 0.14311,0.0174 10.7114,7.15656 11.71902,8.01873 0.58997,0.50556 4.88037,3.24993 8.78525,6.2649 2.76876,2.13848 5.13885,4.5905 6.77002,5.6888 7.38189,4.96799 4.59123,1.33765 4.82634,1.36831 -0.21175,-0.32273 -27.37067,-20.05771 -27.58096,-20.37956 -0.74622,-0.7617 -5.51707,-3.13281 -5.81643,-4.0366 z"
     id="path14"
     inkscape:connector-curvature="0"
     style="fill:#f50005;stroke-width:1.46031415" />
  <path
     d="m 373.18279,113.78782 c -0.57829,0 -1.18432,0.4194 -1.71587,0.76696 -0.21029,0.13756 -0.29352,0.52892 -0.35924,0.82142 -0.19422,0.88714 -0.34171,1.78407 -0.52571,2.6734 -0.25556,1.22637 -0.0774,2.59104 -1.35371,3.46606 -0.57537,0.39516 -0.23365,0.96497 0.15187,1.37824 0.4819,0.51388 1.05143,0.39297 1.36247,-0.10354 0.59873,-0.9603 1.14051,-1.97434 1.57714,-3.02022 0.60603,-1.45155 1.43549,-3.6943 1.68667,-4.60247 0.25409,-0.90905 -0.54762,-1.37985 -0.82362,-1.37985 z"
     id="path16"
     inkscape:connector-curvature="0"
     style="fill:#f50005;stroke-width:1.46031415" />
  <path
     d="m 219.42631,110.69955 c 3.27402,1.36086 6.97446,1.76508 10.6267,1.01097 1.50413,-0.30973 1.85022,-0.41327 4.29187,-1.84817 2.44018,-1.43578 4.10786,-4.89205 4.60729,-5.07182 0.49797,-0.18064 2.05904,-0.26753 2.53803,0.13683 0.2833,0.23643 1.0339,1.21498 1.97872,1.94719 0.94336,0.73293 0.007,0.66342 0.72286,1.65716 0.71409,0.9936 1.73485,-0.0952 1.75237,0.40115 0.019,0.4949 0.38845,0.894 1.19892,0.89094 0.81194,-0.003 0.64254,-3.15852 0.47168,-4.9826 -0.16647,-1.05259 -0.54031,-5.141317 -0.46292,-6.034447 0.0759,-0.89313 0.32565,-2.42339 0.48921,-3.63691 -0.0599,-1.56269 1.31282,-6.71833 1.53479,-7.83211 -0.10076,-0.15406 0.97403,-3.11397 1.6005,-5.99284 0.62648,-2.8774 1.09816,-6.29672 1.13175,-7.3629 0.0613,-1.66461 0.3753,-4.467246 0.18692,-4.995442 -0.18692,-0.528196 -1.21352,-0.311339 -1.60051,-0.09594 -0.38698,0.216127 -0.20006,0.357339 -0.30082,0.53652 l -0.0175,0.07783 c -0.0745,-0.01168 -0.14165,0.0073 -0.1913,0.0793 -1.43257,0.251613 -2.17587,-1.180225 -2.74101,-1.391825 -0.5666,-0.211599 -0.97257,-0.259206 -1.66183,-0.150412 -0.68781,0.108063 -3.23898,2.654559 -4.46272,3.227294 -1.22229,0.572735 -5.33745,2.411265 -6.7598,2.200395 -0.11828,0.11785 -0.2614,0.15874 -0.42495,0.12238 -0.54908,0.56821 -1.05289,1.56867 -1.656,1.63219 -2.95859,0.31353 -4.65256,2.51101 -6.72328,4.15372 -0.36362,0.4708 -0.87619,0.89006 -1.06165,1.42351 -0.55638,1.59291 -1.15803,2.61762 -2.76438,3.46387 -0.0876,0.0469 -0.16647,0.29162 -0.11974,0.36201 0.0672,0.10427 0.24533,0.18429 0.37968,0.18955 1.01638,0.0333 2.22114,-0.83413 2.22114,-0.83413 0,0 4.99573,-2.14521 7.48265,-3.24249 1.07479,-0.47445 2.08679,-0.74724 3.2638,-0.17903 0.44832,0.2154 1.13904,-0.0688 1.71879,-0.12544 0.22781,-0.13143 0.45416,-0.263 0.68197,-0.39443 0.23365,-0.0612 0.46584,-0.12165 0.69949,-0.18283 l 0.43371,-0.0438 c 0.31689,0.0505 0.63378,0.10426 0.95066,0.15479 -0.57536,1.72434 -0.8426,4.77114 -0.9273,5.31963 -0.0832,0.54791 -0.28476,0.85312 -0.40888,1.29136 -0.18108,0.64911 -0.38553,1.30129 -0.48483,1.9669 -0.32127,2.15659 -0.74914,4.31464 -0.83676,6.48408 -0.054,1.34203 0.74622,3.41013 1.16533,3.90211 0.41911,0.49271 0.88641,1.179487 0.15918,1.784057 -0.72578,0.60531 -1.29238,1.16446 -1.93784,1.74771 -0.80755,0.30009 -2.3993,1.53012 -4.74018,1.89286 -2.34088,0.36201 -4.36196,0.26972 -7.67249,-1.20827 -3.31053,-1.47725 -6.00043,-4.164957 -7.82728,-5.818327 -1.82686,-1.65409 -4.49777,-7.99755 -4.68615,-10.8697 -0.18838,-2.87214 0.0847,-5.78591 0.17231,-6.95095 0.0891,-1.16606 0.73892,-5.08846 1.78889,-7.798218 1.04851,-2.708882 4.09326,-6.466563 4.51675,-6.942625 1.5786,-1.527197 3.1572,-3.053517 4.73726,-4.580714 1.79473,-1.364663 4.63212,-3.823394 8.68157,-6.070672 0.91708,-0.448901 5.99167,-3.347478 9.84106,-3.651224 1.12152,-0.08835 2.21675,-0.532722 3.28862,-0.911966 0.97403,-0.345364 1.53479,-1.033026 1.07479,-2.1287 -0.31542,-0.755566 -0.30812,-1.488498 0.54032,-1.698637 1.06749,-0.265193 0.10514,-1.909507 -0.40013,-1.79239 -0.54469,0.127047 -1.08647,0.362012 -1.86336,-0.141942 -0.84844,-0.551707 -1.56107,-1.648111 -1.84583,-3.056584 -0.11683,-0.582519 0.79441,-0.551561 0.21904,-1.326842 -0.57536,-0.77382 -1.6925,-0.293961 -2.17294,-0.685325 -0.15918,-0.05666 -0.31689,-0.11259 -0.47607,-0.170127 -0.5958,-0.07477 -1.19015,-0.149536 -1.78596,-0.224304 -0.092,-0.08236 -0.18692,-0.164723 -0.27892,-0.247085 -0.59727,-0.706646 -1.28946,-0.790468 -2.2299,-0.711903 -2.7746,0.228247 -5.32138,1.292086 -7.98208,1.926154 -0.95066,0.333244 -1.90133,0.667218 -2.85199,1.001192 -0.41473,0.32492 -0.81486,0.668678 -1.24419,0.969502 -1.11714,0.782729 -2.24742,1.546765 -3.37186,2.318979 -0.13727,0.144279 -0.276,0.288704 -0.41327,0.433714 l -0.0438,0.05447 c -0.35486,0.454888 -0.70972,0.909046 -1.06603,1.363934 -0.1066,0.141212 -0.21321,0.28184 -0.31981,0.422323 -0.30667,0.299948 -0.61479,0.600773 -0.92292,0.901452 -0.16355,0.147345 -0.32711,0.294691 -0.49066,0.442037 -0.27746,0.176114 -0.55638,0.351351 -0.8353,0.527465 l -0.0263,0.0295 c -0.17524,0.297759 -0.35194,0.59464 -0.52863,0.893129 l -0.0292,0.179764 c -0.24095,0.250152 -0.48336,0.500304 -0.72432,0.750456 -0.21174,0.246355 -0.42349,0.49344 -0.63523,0.739649 -0.15772,0.194952 -0.31689,0.389904 -0.4746,0.584856 -0.14604,0.129238 -0.29353,0.258475 -0.43956,0.387713 -0.26578,0.346825 -0.53009,0.69438 -0.79587,1.041934 l -0.054,0.05973 c -0.3461,0.417942 -0.69073,0.834278 -1.03683,1.252804 -0.11682,0.192761 -0.23511,0.385377 -0.35339,0.578138 -0.54616,0.909046 -1.09232,1.818091 -1.63847,2.726991 -0.15334,0.06425 -0.23657,0.17845 -0.25118,0.345364 -0.14603,0.346825 -0.29352,0.693649 -0.43955,1.040474 -0.15626,0.274393 -0.31251,0.550831 -0.46876,0.825954 v 7.3e-4 c -1.55524,1.203007 -2.39054,2.851701 -2.89727,4.700751 -0.1066,0.132305 -0.2132,0.265193 -0.31981,0.396768 -0.18253,0.482049 -0.36507,0.964975 -0.54761,1.447755 -0.28038,0.747389 -0.5593,1.494632 -0.83822,2.241144 -1.69543,3.061111 -2.12622,6.466712 -2.35111,9.841352 -0.29206,4.41672 -0.23511,8.85972 0.828,13.20985 0.35193,1.4425 2.82425,7.00557 4.05091,8.86061 1.2252,1.851967 4.51383,5.507717 6.60938,6.942617 2.09847,1.43505 4.00418,2.52839 7.27821,3.88853 z"
     id="path18"
     inkscape:connector-curvature="0"
     style="fill:#f50005;stroke-width:1.46031415" />
  <path
     d="m 481.66953,139.15435 c -2.08533,-1.54224 -4.1984,-3.04607 -6.31148,-4.54975 -0.43517,-0.309 -0.7433,-1.2309 -1.3873,-0.63319 -0.22342,0.20561 0.0789,1.12137 0.31397,1.63818 0.1767,0.3899 0.59143,0.70285 0.95943,0.9695 2.22698,1.617 4.45104,3.24701 6.72913,4.78764 0.60603,0.40582 1.40482,0.53126 2.12913,0.73673 0.12413,0.0348 0.31835,-0.17977 0.53156,-0.31047 -0.21613,-0.25161 -0.34025,-0.4413 -0.50673,-0.58266 -0.80901,-0.69511 -1.59904,-1.42132 -2.45771,-2.05598 z"
     id="path20"
     inkscape:connector-curvature="0"
     style="fill:#f50005;stroke-width:1.46031415" />
  <path
     d="m 496.53991,148.48401 c -0.12121,-0.14501 -3.11485,-1.76202 -3.25504,-1.85957 -0.62794,-0.44422 -1.01638,-0.27278 -1.64431,-0.72314 -1.19746,-0.8629 -2.33651,-1.80364 -3.496,-2.71268 -0.60749,-0.47899 -1.53187,-0.83793 -1.63409,0.1104 -0.0643,0.61055 0.0847,1.35473 0.65568,1.68126 0.20445,0.11711 0.40889,0.23642 0.6148,0.35281 1.17409,0.60676 2.34234,1.21892 3.51497,1.82262 0.51695,0.26519 8.10767,5.58862 9.34601,5.35745 1.24273,-0.2335 0.1548,-1.62694 0.1548,-1.62694 0,0 -4.0553,-2.15659 -4.25682,-2.40221 z"
     id="path22"
     inkscape:connector-curvature="0"
     style="fill:#f50005;stroke-width:1.46031415" />
  <path
     d="m 481.27525,149.02739 c 0,0 5.34621,3.64056 7.35998,4.57151 2.01377,0.92876 3.17764,1.70405 2.47961,0.61889 -0.69803,-1.08575 0,-0.85312 -2.25034,-2.1693 -2.24596,-1.31633 -3.48285,-1.78115 -4.49047,-2.78906 -1.00761,-1.00732 -3.02285,-1.85883 -3.1017,-1.16226 -0.0745,0.69745 0.003,0.93022 0.003,0.93022 z"
     id="path24"
     inkscape:connector-curvature="0"
     style="fill:#f50005;stroke-width:1.46031415" />
  <path
     d="m 485.77009,160.88324 c 2.24597,1.31545 3.33244,2.32278 2.55847,0.30828 -0.77396,-2.01451 -2.01523,-1.62606 -3.71942,-2.47772 -1.70564,-0.85311 -1.77136,-0.0146 -1.38437,0.45255 z"
     id="path26"
     inkscape:connector-curvature="0"
     style="fill:#f50005;stroke-width:1.46031415" />
  <path
     d="m 443.13768,40.186088 v 4.102315 h 0.71848 v -4.102315 h 1.74361 v -0.71789 h -3.9998 v 0.71789 z m 2.87244,-0.71789 v 4.820205 h 0.81923 v -4.102315 l 1.33327,4.102315 h 0.71848 l 1.23104,-4.102315 v 4.102315 h 0.71702 v -4.820205 h -1.12737 l -1.23104,3.897286 -1.23105,-3.897286 z"
     id="path28"
     inkscape:connector-curvature="0"
     style="clip-rule:evenodd;fill:#f50005;fill-rule:evenodd;stroke-width:1.46031415" />
  <path
     d="m 10.248908,31.911875 h 2.211864 l 0.0081,7.8773 c 0.0056,6.216704 -4.6052854,11.392203 -10.645437,12.379229 l 0.00812,-3.476716 c 4.8381128,-1.207387 8.4173579,-5.52247 8.4173579,-10.661023 z m 6.416576,1.5e-5 h 2.211792 v 6.118775 c 0,5.138553 3.57923,9.453636 8.417397,10.661023 l 0.008,3.476862 C 21.263138,51.181378 16.651757,46.005879 16.657891,39.789175 Z m 74.128761,1.346614 C 90.5365,32.825331 90.061168,32.563 89.551372,32.572521 c -0.767833,0.0146 -1.382772,0.63128 -1.382772,1.387372 0,0.756107 0.614939,1.373046 1.382772,1.387386 0.509796,0.01022 0.985128,-0.25281 1.242873,-0.685983 0.257746,-0.433173 0.257746,-0.969619 0,-1.402792 z m -2.325696,0.701608 c 0,-0.58877 0.484824,-1.066059 1.082969,-1.066059 0.597999,2.78e-4 1.082969,0.477246 1.083845,1.066059 0,0.5882 -0.485408,1.066058 -1.083845,1.066058 -0.598145,0 -1.082969,-0.477289 -1.082969,-1.066058 z m 0.473726,0.779954 h 0.32565 v -0.616662 h 0.382456 c 0.113029,0 0.191155,0.0514 0.196267,0.156283 -0.0051,0.11332 -0.0051,0.237681 0,0.314581 0.0032,0.05126 0.01811,0.101054 0.04352,0.145739 h 0.349453 c -0.0091,-0.02103 -0.01752,-0.03782 -0.02526,-0.05286 v -7.3e-5 c -0.02103,-0.04162 -0.03505,-0.06907 -0.03505,-0.133327 l -0.0023,-0.07491 c -0.0029,-0.09477 -0.0069,-0.225472 -0.01344,-0.274116 -0.01417,-0.119891 -0.09185,-0.165774 -0.14866,-0.199186 -0.01008,-0.0058 -0.01942,-0.01168 -0.02775,-0.01709 0.107041,-0.06192 0.176406,-0.111422 0.21598,-0.24618 0.03855,-0.134787 0.0061,-0.245669 -0.01563,-0.314566 -0.04571,-0.168769 -0.205904,-0.241682 -0.364641,-0.248166 h -0.880595 z m 0.766373,-1.292291 h -0.440723 v 0.40845 h 0.445834 c 0.05783,-0.0044 0.111422,-0.03096 0.148076,-0.07521 0.03665,-0.04425 0.05301,-0.101346 0.04512,-0.157962 0,-0.111276 -0.0517,-0.175267 -0.198311,-0.175267 z M 12.978191,31.91189 h 3.16234 v 20.264108 h -3.16234 z m 48.160286,6.096286 1.959303,6.295998 -3.710512,-0.01022 z m -2.636743,9.441223 -1.30961,4.700605 H 53.56923 l 5.060281,-18.05658 c 0.326088,-1.074748 1.3302,-1.811169 2.469537,-1.811053 1.140944,-7.88e-4 2.147246,0.735385 2.475525,1.811053 l 5.550216,18.082574 -3.595878,-0.02643 -1.45418,-4.692719 z m -19.555944,-9.441223 1.958865,6.295998 -3.71022,-0.01022 z m -2.637473,9.441223 -1.30961,4.700605 h -3.62231 l 5.059697,-18.05658 c 0.326088,-1.074748 1.3302,-1.811169 2.469537,-1.811053 1.140652,-8.47e-4 2.146662,0.735429 2.474649,1.811053 l 5.550654,18.082574 -3.59544,-0.02643 -1.45418,-4.692719 z m 45.722437,-9.029853 c 0,2.556134 -1.624454,4.738136 -3.91189,5.601912 l 0.01665,0.0073 c -0.03461,0.0073 -0.06805,0.01884 -0.09886,0.03592 -0.0809,0.0479 -0.139168,0.125587 -0.161803,0.215834 -0.02264,0.0901 -0.0079,0.185606 0.04118,0.265047 l 4.712287,7.630142 H 78.982644 L 74.6496,45.125742 c -0.723586,-1.18227 -0.336895,-2.718229 0.863776,-3.430862 0.225764,-0.133765 0.468614,-0.203714 0.712049,-0.262565 1.498866,-0.26052 2.545912,-1.606637 2.410541,-3.099078 -0.135518,-1.492441 -1.408474,-2.634524 -2.930413,-2.629223 h -2.12666 v 16.35881 H 70.128609 V 35.806372 c 0,-2.270423 1.264924,-3.40589 3.450284,-3.395902 l 2.358554,0.01022 c 3.365148,0 6.093307,2.685372 6.093307,5.997861 z M 44.157651,35.800152 v -3.36195 h 12.039707 v 3.36195 h -4.282226 l -0.0127,16.37643 H 48.45302 V 35.817631 Z M 87.089428,32.4217 H 83.64002 v 19.754736 h 3.449408 z"
     id="path30"
     inkscape:connector-curvature="0"
     style="clip-rule:evenodd;fill:#ffffff;fill-rule:evenodd;stroke-width:1.46031415" />
</svg>
