<?xml version="1.0" encoding="UTF-8" standalone="no"?>
<!-- Created with Inkscape (http://www.inkscape.org/) -->

<svg
   xmlns:dc="http://purl.org/dc/elements/1.1/"
   xmlns:cc="http://creativecommons.org/ns#"
   xmlns:rdf="http://www.w3.org/1999/02/22-rdf-syntax-ns#"
   xmlns:svg="http://www.w3.org/2000/svg"
   xmlns="http://www.w3.org/2000/svg"
   xmlns:sodipodi="http://sodipodi.sourceforge.net/DTD/sodipodi-0.dtd"
   xmlns:inkscape="http://www.inkscape.org/namespaces/inkscape"
   width="500"
   height="200"
   viewBox="0 0 132.29166 52.916668"
   version="1.1"
   id="svg8"
   sodipodi:docname="auto-neverplayed.svg"
   inkscape:version="0.92.5 (2060ec1f9f, 2020-04-08)">
  <defs
     id="defs2" />
  <sodipodi:namedview
     id="base"
     pagecolor="#ffffff"
     bordercolor="#666666"
     borderopacity="1.0"
     inkscape:pageopacity="0.0"
     inkscape:pageshadow="2"
     inkscape:zoom="1.6748047"
     inkscape:cx="305.06214"
     inkscape:cy="99.493392"
     inkscape:document-units="mm"
     inkscape:current-layer="layer1"
     showgrid="false"
     units="px"
     inkscape:pagecheckerboard="true"
     inkscape:window-width="1366"
     inkscape:window-height="740"
     inkscape:window-x="0"
     inkscape:window-y="0"
     inkscape:window-maximized="1" />
  <metadata
     id="metadata5">
    <rdf:RDF>
      <cc:Work
         rdf:about="">
        <dc:format>image/svg+xml</dc:format>
        <dc:type
           rdf:resource="http://purl.org/dc/dcmitype/StillImage" />
        <dc:title />
      </cc:Work>
    </rdf:RDF>
  </metadata>
  <g
     inkscape:label="Layer 1"
     inkscape:groupmode="layer"
     id="layer1"
     transform="translate(0,-244.08332)">
    <flowRoot
       xml:space="preserve"
       id="flowRoot10"
       style="fill:black;stroke:none;stroke-opacity:1;stroke-width:1px;stroke-linejoin:miter;stroke-linecap:butt;fill-opacity:1;font-family:Dymo;font-style:normal;font-weight:normal;font-size:40px;line-height:125%;letter-spacing:0px;word-spacing:0px;-inkscape-font-specification:Dymo;font-stretch:normal;font-variant:normal;"><flowRegion
         id="flowRegion12"
         style="-inkscape-font-specification:Dymo;font-family:Dymo;font-weight:normal;font-style:normal;font-stretch:normal;font-variant:normal;"><rect
           id="rect14"
           width="69.224487"
           height="121.46939"
           x="12.408163"
           y="37.387756"
           style="-inkscape-font-specification:Dymo;font-family:Dymo;font-weight:normal;font-style:normal;font-stretch:normal;font-variant:normal;" /></flowRegion><flowPara
         id="flowPara16" /></flowRoot>    <path
       inkscape:connector-curvature="0"
       id="path312"
       style="font-style:normal;font-variant:normal;font-weight:normal;font-stretch:normal;font-size:35.22367477px;line-height:125%;font-family:Dymo;-inkscape-font-specification:Dymo;letter-spacing:0px;word-spacing:0px;fill:#008080;fill-opacity:1;stroke:none;stroke-width:0.36691332px;stroke-linecap:butt;stroke-linejoin:miter;stroke-opacity:1;image-rendering:auto"
       d="m 1.7957281,262.63807 14.5467999,-0.96624 1.993377,23.41962 -14.5467993,0.96623 z m 4.4017074,17.25688 q 0.4007259,-0.27379 0.370115,-1.04859 0.016483,-0.63667 -0.2272171,-1.0089 l -0.7292116,-8.5673 q -0.050806,-0.5969 0.3357032,-0.62257 0.4216473,-0.028 0.7999154,0.26466 0.4134066,0.29033 0.322938,0.47289 -0.061311,0.11001 -0.3805366,0.0959 -0.2870703,-0.0515 -0.2631659,0.22934 0.032874,0.38623 0.3842465,0.36289 l 0.035134,-0.002 q 0.2459606,-0.0163 0.3252003,0.0843 l 5.5976138,7.64365 q 0.161469,0.23644 0.06203,0.31367 -0.134576,0.0795 -0.128594,0.14979 0.01195,0.14044 0.307994,0.29733 0.331177,0.15456 0.612275,0.13589 1.12439,-0.0747 1.57746,-0.56382 0.160743,-0.18723 0.154765,-0.25746 -0.006,-0.0702 -0.152502,-0.1311 -0.146522,-0.0608 -0.155492,-0.16623 l -0.517662,-8.15762 q 0.01422,-0.24812 0.02545,-0.53135 0,0 -0.254926,-0.089 -0.03812,-0.0328 -0.04111,-0.0678 -0.009,-0.10533 0.101698,-0.46578 0.1458,-0.36279 0.139823,-0.43302 -0.06276,-0.73734 -0.589818,-0.70233 -0.281097,0.0187 -0.50315,0.31589 -0.22504,0.26213 -0.201131,0.54302 0.01793,0.21067 0.199594,0.26923 0.21381,0.0211 0.243698,0.37223 l 0.520011,6.10946 q 0.170349,2.00138 0.153143,2.21438 0.0097,0.52902 -0.306544,0.55002 -0.632469,0.042 -0.761789,-0.23188 -0.13231,-0.30901 -0.229481,-0.62035 -3.6450446,-4.63072 -6.1470429,-8.70177 -0.1233429,-0.20367 -0.3693025,-0.18733 l -1.3382004,0.0536 q -0.7760051,0.0162 -0.7102591,0.78868 0.011955,0.14046 0.3050068,0.26223 0.1495137,0.096 0.2182513,0.90357 0.135215,2.00371 0.267431,3.97231 l 0.3451343,4.88521 q 0.044829,0.52669 -0.1659952,0.54069 -0.2810972,0.0187 -0.3050058,-0.26223 -0.00597,-0.0702 -0.087398,-1.44191 -0.1195431,-1.40448 -0.1404626,-1.65026 -0.026898,-0.31601 -0.1734233,-0.37689 -0.1786722,-0.0234 -0.1607435,0.18722 l 0.3018464,3.5463 q 0.062759,0.73735 0.6279429,0.73512 z m 6.3090275,-1.01933 q 0.102425,-0.0421 0.09047,-0.18257 -0.02092,-0.24578 -0.956858,-1.27823 l -0.03287,-0.38623 q -0.938927,-1.06757 -3.0380211,-4.14138 -1.6146881,-2.36448 -1.8135565,-2.21003 -0.099438,0.0772 0.4963604,0.84979 0.6309321,0.77023 0.5314969,0.84746 -0.064304,0.0748 2.2605633,3.31026 2.32486,3.23537 2.462421,3.19093 z m 3.256702,-3.25302 -0.577519,-7.20026 q -0.07924,-0.10067 -0.155492,-0.16622 -0.137562,0.0444 -0.122618,0.22 l 0.485601,6.53548 -0.0815,0.2879 0.182303,2.14182 q 0.01195,0.14044 0.155491,0.16622 0.18166,0.0585 0.163732,-0.15212 z M 4.1541025,268.34294 q -0.1756866,0.0117 -0.121892,0.64369 -0.014943,-0.17557 0.2360971,2.77383 0.077703,0.91291 0.1441807,2.10905 0.071726,0.84268 0.089657,1.05335 0.06203,0.31367 0.167445,0.30667 0.1756866,-0.0117 -0.1201816,-3.48774 0.04184,0.49156 -0.1568544,-2.67317 -0.06276,-0.73735 -0.2384459,-0.72568 z m 2.1529749,2.04624 q -0.1756866,0.0117 -0.1592918,1.03458 0.027627,0.73969 0.217436,2.13949 0.1815735,1.71814 0.1875509,1.78837 0.2869025,3.37074 0.4304407,3.39652 0.1786722,0.0234 0.2048416,-0.0843 -0.00597,-0.0702 -0.068738,-0.80758 -0.1569451,-1.01357 -0.2204243,-2.17459 -0.093375,-1.51215 -0.2121885,-2.49294 -0.091916,-0.66479 -0.1599341,-1.04869 -0.068008,-0.3839 -0.068008,-0.3839 -0.1165548,-1.36937 -0.1516884,-1.36703 z m 7.3657866,5.58412 q 0.140549,-0.009 -0.03433,-1.23357 -0.291429,-2.59362 -0.509594,-5.15677 -0.149429,-1.7556 -0.25484,-1.7486 -0.210824,0.014 -0.0614,1.7696 -0.07471,-0.8778 0.111307,1.72282 0.126248,1.89836 0.295139,3.05239 0.207751,1.61047 0.453708,1.59413 z m -5.159572,-6.64873 q -0.1054116,0.007 -0.093458,0.14745 0.02092,0.24578 0.5083151,0.99024 0.3640529,0.54078 1.4853676,2.09058 0.47843,0.63912 0.921722,1.28057 l 0.571886,0.49167 q 0.122618,-0.22001 -0.396926,-0.92702 z m 7.145827,8.81198 q 0,0 -0.34467,0.51724 -0.347657,0.48212 -1.155813,0.5358 -0.210823,0.014 -0.676572,-0.061 -0.248947,-0.0188 -0.239987,0.0865 0.0269,0.316 0.905326,0.25765 0.773019,-0.0513 1.261225,-0.54281 0.359612,-0.34167 0.329726,-0.6928 -0.009,-0.10533 -0.07924,-0.10066 z m -2.724861,-2.53791 -0.414132,-0.71401 q -0.08223,-0.13577 -0.219789,-0.0913 -0.1727,0.0468 -0.09346,0.14746 l 0.414132,0.714 q 0.08223,0.13578 0.219789,0.0913 0.137561,-0.0444 0.09346,-0.14745 z m 0.566635,0.84512 q 0.05678,0.66713 0.408155,0.64379 0.105411,-0.007 0.06955,-0.42834 -0.03586,-0.42135 -0.179401,-0.44712 -0.3252,-0.0843 -0.298303,0.23167 z" />
    <path
       inkscape:connector-curvature="0"
       id="path314"
       style="font-style:normal;font-variant:normal;font-weight:normal;font-stretch:normal;font-size:35.22367477px;line-height:125%;font-family:Dymo;-inkscape-font-specification:Dymo;letter-spacing:0px;word-spacing:0px;fill:#ffffff;fill-opacity:1;stroke:none;stroke-width:0.36691332px;stroke-linecap:butt;stroke-linejoin:miter;stroke-opacity:1;image-rendering:auto"
       d="m 15.850594,261.70451 14.546799,-0.96623 1.993378,23.41961 -14.5468,0.96624 z m 13.433036,10.44237 q -0.307822,-3.61651 -1.211612,-4.68641 -1.059282,-1.23613 -4.186493,-1.02841 -2.951524,0.19604 -3.6386,0.84195 -1.110984,1.0625 -0.791207,4.81946 0.310811,3.65163 0.909595,4.45931 0.962836,1.34846 4.581967,1.10807 2.810976,-0.18671 3.559359,-0.94263 1.075848,-1.06015 0.776991,-4.57134 z m -0.84103,-0.33255 q 0.274949,3.23029 -0.05777,3.88798 -0.542812,1.09537 -3.564611,1.29608 -2.459604,0.16338 -3.254268,-0.45474 -1.02043,-0.77967 -1.265493,-3.65884 -0.328743,-3.86231 0.141532,-4.56444 0.502424,-0.73958 3.629635,-0.94729 2.88125,-0.19138 3.682616,0.92063 0.443292,0.64145 0.688355,3.52062 z m -4.314189,-3.77413 -1.897408,0.12603 q -2.00282,0.13303 -1.644917,3.92278 0.205486,1.99905 0.396114,2.16294 0.143536,0.0257 0.198869,-0.15446 -0.226492,-0.58523 -0.27576,-1.99437 -0.04927,-1.40915 0.0517,-2.29861 0.133121,-0.92691 1.312842,-1.18182 0.1727,-0.0468 1.964697,-0.16579 1.405488,-0.0934 1.953466,0.11742 0.439578,0.18267 0.39475,-0.34401 -0.02989,-0.35112 -2.454353,-0.19008 z m 2.979873,0.96731 q -0.184651,-0.0937 -0.175686,0.0117 -0.02617,0.10767 0.09418,0.27623 0.155492,0.16622 0.212275,0.83335 l 0.329468,4.28598 q 0.143451,1.68536 -2.245879,1.84407 -0.140548,0.009 -0.169704,0.0819 -0.02916,0.0725 0.114377,0.0983 0.465749,0.075 1.086267,-0.10744 1.276168,-0.36725 1.529642,-1.12561 0.11664,-0.29023 0.04491,-1.13292 l -0.361616,-4.24853 q -0.05081,-0.59689 -0.458235,-0.81701 z m -5.296455,9.1794 q -0.290063,-0.0867 -0.316235,0.021 -0.02318,0.14279 0.193618,0.199 1.418168,0.47077 3.385851,0.34007 4.2516,-0.2824 4.628504,-2.49668 0.0202,-0.17788 -0.05307,-0.20833 -0.108398,-0.0281 -0.16672,0.117 -0.717047,1.95439 -4.476727,2.20412 -1.967683,0.13069 -3.195222,-0.17618 z m -3.009673,-2.97803 q 0.0441,0.10301 0.184652,0.0937 0.102425,-0.0421 0.09047,-0.18256 -0.310171,-1.56836 -0.382623,-2.83472 -0.2054,-3.65864 0.58111,-4.38178 0.231017,-0.1919 0.04935,-0.25045 -0.149514,-0.096 -0.310261,0.0912 -0.943539,1.36916 -0.674567,4.52923 0.170348,2.00138 0.461863,2.93539 z m 10.990687,-4.96727 q -0.02391,-0.28089 -0.12932,-0.27389 -0.137563,0.0444 -0.116641,0.29023 0.236098,2.77384 0.235286,4.00976 0.01494,0.17556 0.123343,0.20366 0.105411,-0.007 0.128595,-0.14978 0.06357,-0.49857 -0.241263,-4.07998 z m -5.984085,6.08245 q -0.351372,0.0233 -0.342406,0.12867 0.01196,0.14045 0.363327,0.11712 0.386509,-0.0257 0.374554,-0.16613 -0.009,-0.10533 -0.395475,-0.0797 z m -4.330841,0.18173 q -0.07027,0.005 -0.06131,0.11001 0.01793,0.21066 0.255652,0.51267 0.269869,0.26456 0.363326,0.11711 0,0 -0.278835,-0.36989 -0.243697,-0.37223 -0.278835,-0.3699 z" />
    <path
       inkscape:connector-curvature="0"
       id="path316"
       style="font-style:normal;font-variant:normal;font-weight:normal;font-stretch:normal;font-size:35.22367477px;line-height:125%;font-family:Dymo;-inkscape-font-specification:Dymo;letter-spacing:0px;word-spacing:0px;fill:#ffffff;fill-opacity:1;stroke:none;stroke-width:0.36691332px;stroke-linecap:butt;stroke-linejoin:miter;stroke-opacity:1;image-rendering:auto"
       d="m 29.905459,260.77095 12.965626,-0.86121 1.993377,23.41962 -12.965625,0.86121 z m 8.007949,6.07113 q 1.680613,-0.1822 3.361217,-0.36449 0.559209,-0.0724 0.538287,-0.31824 -0.05977,-0.70224 -1.535535,-0.60422 l -7.349647,0.41761 q -1.018979,0.0677 -0.95323,0.84014 0.02391,0.2809 0.729641,0.26933 0.24596,-0.0163 3.232621,-0.21472 0.09047,-0.18256 0.579402,-0.25035 0.488934,-0.0678 0.503874,0.10777 0.01793,0.21068 -0.05235,0.21535 -0.03513,0.002 -0.216796,-0.0562 -0.146522,-0.0608 -0.287071,-0.0515 -0.242973,0.0514 -0.263166,0.22934 0.01494,0.17556 0.29604,0.15689 0.149515,0.096 0.106139,0.41667 -0.0172,0.21301 -0.06955,0.42835 l 0.197159,3.97697 0.349663,4.10809 q 0.02391,0.28089 -0.121891,0.64368 -0.14879,0.32768 -0.142812,0.3979 0.006,0.0702 0.117366,0.13345 0.111385,0.0632 0.349109,0.36523 0.155491,0.16621 0.471726,0.14521 0.632469,-0.042 0.587641,-0.56868 l -0.828646,-8.49007 q -0.01793,-0.21067 0.04039,-0.35579 0.09047,-0.18256 0.06357,-0.49857 -0.07471,-0.87779 -0.332629,-1.0019 -0.07625,-0.0655 0.05533,-0.18023 0.131584,-0.11467 0.307269,-0.12634 0.210824,-0.014 0.266881,0.22944 z m -1.393324,10.61505 q 0.210824,-0.014 0.106223,-1.24292 l -0.497551,-6.67593 q -0.137475,-1.61514 -0.488847,-1.5918 -0.175685,0.0117 -0.148788,0.32767 0.01793,0.21068 0.09717,0.31134 0.07625,0.0655 0.09717,0.31134 -0.006,-0.0702 0.150877,2.60294 0.144901,2.53273 0.299587,3.93486 0.208471,2.03417 0.38416,2.0225 z m 1.57409,-7.66098 q 0.05904,0.27856 0.193617,0.199 0.102425,-0.0421 0.122618,-0.22001 -0.01567,-0.59923 -0.03432,-1.23358 -0.02165,-0.66946 0.221328,-0.7209 0.875442,-0.0934 1.747893,-0.22203 1.015993,-0.10278 1.381579,-0.37426 0.131584,-0.11467 0.163732,-0.15212 -0.03812,-0.0328 -0.07625,-0.0655 -0.07028,0.005 -0.20485,0.0842 -0.102425,0.0421 -0.374554,0.16613 -0.137563,0.0444 -0.146522,-0.0608 -0.009,-0.10534 0.01421,-0.24812 -0.009,-0.10534 -0.143536,-0.0258 -0.406703,0.20357 -1.144584,0.25258 -0.983842,0.0653 -1.159527,0.077 -0.102425,0.0421 -0.09944,0.0772 0.003,0.0351 -0.03215,0.0374 -0.351372,0.0233 -0.380535,0.0958 -0.260179,0.26445 -0.167533,1.35292 0.03586,0.42134 0.118814,0.9808 z m -3.142794,-2.05112 q 0.210823,-0.014 0.406704,-0.20355 0.02617,-0.10767 0.02019,-0.1779 -0.986829,0.0303 -2.804995,0.25699 -0.313248,0.0561 -0.339418,0.16378 0.009,0.10534 0.18764,0.12877 0,0 2.529878,-0.16804 z m 3.415566,4.01039 q -0.140549,0.009 -0.04193,1.16802 0.09563,1.12357 0.236183,1.11424 0.140549,-0.009 0.04492,-1.13291 -0.09862,-1.15869 -0.239172,-1.14935 z" />
    <path
       inkscape:connector-curvature="0"
       id="path318"
       style="font-style:normal;font-variant:normal;font-weight:normal;font-stretch:normal;font-size:35.22367477px;line-height:125%;font-family:Dymo;-inkscape-font-specification:Dymo;letter-spacing:0px;word-spacing:0px;fill:#ffffff;fill-opacity:1;stroke:none;stroke-width:0.36691332px;stroke-linecap:butt;stroke-linejoin:miter;stroke-opacity:1;image-rendering:auto"
       d="m 47.790279,259.583 1.993378,23.41961 -5.411129,0.35943 -1.993378,-23.41962 z m -2.082195,17.05197 q 0.202585,0.30434 0.764779,0.267 0.316235,-0.021 0.547252,-0.2129 0.266155,-0.19424 0.189903,-0.2598 -0.07625,-0.0655 -0.20485,0.0842 -0.234006,0.15679 -0.550241,0.1778 -0.421646,0.028 -0.726652,-0.23422 -0.307995,-0.29734 -0.33788,-0.64845 -0.03287,-0.38623 0.118903,-0.6788 0.125606,-0.18489 0.08748,-0.21768 -0.114378,-0.0983 -0.298303,0.23169 -0.183926,0.33 -0.145075,0.78646 0.06874,0.80757 0.55468,0.70467 z m 0.831339,-0.19646 q 0.773018,-0.0514 0.683361,-1.1047 -0.06575,-0.77246 -0.873903,-0.71878 -0.245961,0.0163 -0.500161,0.35101 -0.254202,0.33468 -0.221326,0.72092 0.06874,0.80756 0.912029,0.75155 z m 0.860499,-0.26902 q 0.111384,0.0632 0.192892,-0.22467 0.11664,-0.29023 0.09273,-0.57113 -0.04483,-0.52668 -0.390949,-0.85679 -0.302017,-0.22711 -0.547978,-0.21077 -0.07028,0.005 -0.102425,0.0421 0,0 0.375281,0.25755 0.407429,0.22012 0.458235,0.81702 0.0269,0.316 -0.06058,0.53368 -0.09047,0.18255 -0.0172,0.213 z" />
    <path
       inkscape:connector-curvature="0"
       id="path320"
       style="font-style:normal;font-variant:normal;font-weight:normal;font-stretch:normal;font-size:35.22367477px;line-height:125%;font-family:Dymo;-inkscape-font-specification:Dymo;letter-spacing:0px;word-spacing:0px;fill:#ffffff;fill-opacity:1;stroke:none;stroke-width:0.36691332px;stroke-linecap:butt;stroke-linejoin:miter;stroke-opacity:1;image-rendering:auto"
       d="m 47.298333,259.61567 13.844055,-0.91955 1.993378,23.41962 -13.844056,0.91955 z m 9.385089,4.81442 -4.321876,0.28707 q -1.791997,0.11903 -1.7651,0.43504 0.02391,0.28089 0.103151,0.38156 0.07625,0.0655 0.08821,0.20601 0.110577,1.29913 0.324305,2.97984 0.21074,1.64558 0.225683,1.82114 0.301846,3.5463 0.138753,5.78168 -0.04265,0.74436 0.906053,0.68134 0.316235,-0.021 0.286349,-0.37212 l -0.342957,-3.61419 q -0.128508,-1.5098 0.468824,-1.54948 0.105412,-0.007 0.319222,0.0141 0.213809,0.0211 0.354358,0.0118 3.900229,-0.25906 4.664282,-0.41574 1.633516,-0.32036 1.337648,-3.79643 -0.107589,-1.26404 -0.773658,-2.03193 -0.748298,-0.90368 -2.013237,-0.81966 z m -3.895789,1.14153 4.078901,-0.23565 q 1.581173,-0.10502 1.751522,1.89636 0.134485,1.58002 0.05896,1.93815 -0.168258,0.92924 -1.21042,1.13971 -1.147573,0.21746 -4.84296,0.39225 -0.356622,0.3768 -0.629482,0.0771 l -0.177055,-2.49527 q -0.156136,-2.2495 -0.100801,-2.42973 0.08748,-0.21767 1.071322,-0.28302 z m 5.11547,6.54574 q 2.681655,-0.4606 2.329004,-4.6038 -0.12552,-1.4747 -0.556858,-1.9757 -0.04111,-0.0679 -0.184651,-0.0937 -0.108398,-0.0281 -0.09944,0.0772 0.006,0.0702 0.08522,0.17089 0.316961,0.40267 0.400642,1.38581 0.14644,1.72048 0.02754,2.39927 -0.217612,1.1797 -1.291196,1.85128 -0.804442,0.51247 -5.565895,0.61688 -0.140548,0.009 -0.201858,0.11934 -0.02617,0.10767 0.01793,0.21067 0.08223,0.13577 0.222777,0.12644 2.588923,0.11052 4.816783,-0.28466 z m -7.774669,-6.65159 q -0.210823,0.014 -0.04645,1.94515 0.140463,1.65026 0.486326,6.95915 0.08441,1.40681 0.365503,1.38814 0.105412,-0.007 0.09273,-0.57113 -0.0037,-0.45879 -0.171077,-2.42504 -0.336979,-3.54397 -0.507328,-5.54534 -0.149429,-1.7556 -0.219706,-1.75093 z m 7.726211,4.00653 q 0.358887,-0.76535 0.272218,-1.7836 -0.101612,-1.19381 -0.588281,-1.51458 -0.75056,-0.51511 -4.527446,-0.0524 -0.524072,0.0701 -0.518093,0.14034 0.02391,0.2809 0.805893,0.33489 1.54305,-0.13778 4.117025,-0.20289 0.313972,0.36756 0.365503,1.38814 0.08966,1.05335 -0.143623,1.63382 -0.05832,0.14511 0.05008,0.17321 0.108398,0.0281 0.16672,-0.117 z m -3.29393,0.32472 q -1.686586,0.11203 -1.671643,0.28759 0.009,0.10533 1.695551,-0.007 1.686585,-0.11202 1.67762,-0.21736 -0.01494,-0.17556 -1.701528,-0.0635 z m -2.41533,-3.05281 0.132227,1.9686 q 0.07625,0.0655 0.152502,0.13111 0.140549,-0.009 0.119629,-0.25512 0.08757,-1.87726 -0.404355,-1.84459 z m 0.748041,5.88246 q -0.316235,0.021 -0.03676,2.47416 0.05605,0.24345 0.196607,0.23412 0.102425,-0.0421 0.119628,-0.25513 -0.04556,-0.95035 -0.08812,-1.86559 -0.05081,-0.5969 -0.191355,-0.58756 z" />
    <path
       inkscape:connector-curvature="0"
       id="path322"
       style="font-style:normal;font-variant:normal;font-weight:normal;font-stretch:normal;font-size:35.22367477px;line-height:125%;font-family:Dymo;-inkscape-font-specification:Dymo;letter-spacing:0px;word-spacing:0px;fill:#ffffff;fill-opacity:1;stroke:none;stroke-width:0.36691332px;stroke-linecap:butt;stroke-linejoin:miter;stroke-opacity:1;image-rendering:auto"
       d="m 60.650439,258.72879 12.78994,-0.84953 1.993378,23.41961 -12.78994,0.84954 z m 5.236636,5.47839 q -0.06276,-0.73735 -1.046602,-0.672 -0.737881,0.049 -0.296851,1.07902 0.176412,0.41202 0.165183,0.69525 0.01866,0.63434 0.03958,0.88012 l 0.645617,5.92457 q 0.08368,0.98313 0.129238,1.93348 0.100882,0.77013 0.624956,0.70001 0.210823,-0.014 1.127377,-0.0396 1.267925,-0.0489 2.919374,-0.15863 1.686585,-0.11202 2.120185,4.1e-4 0.430612,0.0773 0.3252,0.0843 0.421647,-0.028 0.355898,-0.80047 -0.04483,-0.52667 -0.536748,-0.49399 -1.513886,0.0653 -2.638277,0.13995 -1.827134,0.12136 -2.588198,0.31316 -0.764052,0.15668 -0.904601,0.16602 -0.421646,0.028 -0.142003,-0.83802 0.03812,0.0328 0.07326,0.0304 0.386509,-0.0257 -0.372588,-8.94408 z m -1.842802,-0.47787 q -0.175685,0.0117 0.275588,5.31355 0.448286,5.26678 0.623972,5.25511 0.140549,-0.009 -0.307737,-5.27611 -0.107588,-1.26403 -0.260735,-3.47841 -0.101611,-1.1938 -0.163642,-1.50747 -0.06203,-0.31367 -0.167446,-0.30667 z m 2.815883,6.0982 q -0.01195,-0.14044 -0.152503,-0.13111 -0.172699,0.0468 -0.160742,0.18723 l 0.206211,2.42272 q 0.01494,0.17556 0.225766,0.16156 0.207837,-0.0491 0.157754,-0.22234 -0.112117,-0.48691 -0.276489,-2.41806 z m 0.470829,3.04073 q 0.02092,0.24579 1.426408,0.15243 3.021799,-0.20071 3.4554,-0.0883 0.688527,0.20144 0.667606,-0.0443 -0.0269,-0.31601 -0.732629,-0.30444 -4.828739,0.14419 -4.816782,0.28466 z m -1.371974,2.56286 q 0.02092,0.24577 0.509853,0.17799 1.361384,-0.19635 1.326248,-0.19402 0.597332,-0.0397 1.519865,0.005 0.922532,0.0446 1.20363,0.026 2.319055,-0.15404 2.301123,-0.36471 -0.01195,-0.14044 -0.92552,-0.0798 -4.650066,0.16762 -4.650066,0.16762 -1.303063,0.0513 -1.285133,0.26192 z" />
    <path
       inkscape:connector-curvature="0"
       id="path324"
       style="font-style:normal;font-variant:normal;font-weight:normal;font-stretch:normal;font-size:35.22367477px;line-height:125%;font-family:Dymo;-inkscape-font-specification:Dymo;letter-spacing:0px;word-spacing:0px;fill:#ffffff;fill-opacity:1;stroke:none;stroke-width:0.36691332px;stroke-linecap:butt;stroke-linejoin:miter;stroke-opacity:1;image-rendering:auto"
       d="m 72.948408,257.91193 14.546799,-0.96623 1.993378,23.41962 -14.546799,0.96623 z m 9.424666,5.69455 q -0.308721,-0.72101 -1.433112,-0.64633 -1.089253,0.0724 -1.30759,0.82838 -0.85243,3.26987 -2.958017,10.08338 -0.05235,0.21534 -0.0374,0.3909 0.05678,0.66712 0.58384,0.63211 0.456784,-0.0303 0.555492,-0.53124 l 0.371653,-1.86082 q 0.06955,-0.42835 1.05339,-0.4937 l 4.673247,-0.31041 q 0.773019,-0.0513 0.952419,0.39578 l 0.629395,1.58247 q 0.267606,0.65312 0.689252,0.62511 0.773019,-0.0513 0.331989,-1.08136 z m -1.370352,0.091 q 0.421647,-0.028 0.671321,0.41445 0.284813,0.44012 0.220515,0.515 -0.02916,0.0725 -0.09944,0.0772 -0.03513,0.002 -0.231743,-0.23177 -0.161469,-0.23645 -0.266881,-0.22945 -0.281097,0.0187 -0.02246,0.56646 0.08522,0.17089 0.343132,0.295 0.290063,0.0867 0.37528,0.25755 l 1.654991,3.66829 q 0.05904,0.27855 0.142002,0.83801 0.05605,0.24345 0.231745,0.23178 0.07028,-0.005 0.05235,-0.21534 -0.01793,-0.21066 0.05235,-0.21533 l 0.230206,1.04402 q -4.842959,0.39225 -5.867912,0.38976 0.696127,-2.20018 1.239751,-4.53146 0.334252,-1.46993 0.439664,-1.47693 0.105411,-0.007 0.08522,0.17089 -0.02019,0.1779 0.155492,0.16623 0.140549,-0.009 0.248224,-0.4049 0.107674,-0.39557 -0.03287,-0.38623 -0.105412,0.007 -0.128596,0.14978 0.009,0.10533 -0.131583,0.11467 -0.07028,0.005 -0.08223,-0.13578 -0.0269,-0.316 0.15404,-0.68113 0.216075,-0.36746 0.567446,-0.3908 z m -2.314615,1.0365 q -1.324968,4.36057 -2.634993,8.89669 0.02989,0.35112 0.176412,0.41201 0.181659,0.0585 0.163731,-0.15212 0.01421,-0.24811 0.08078,-0.71157 1.808735,-5.73449 2.539273,-8.36068 0.107675,-0.39556 -0.103151,-0.38156 -0.140549,0.009 -0.222052,0.29723 z m 5.407329,0.84139 q -0.0912,-0.24112 -0.260903,-0.15922 -0.1727,0.0468 -0.0815,0.2879 0.182388,0.48223 2.831552,6.69744 0,0 0.282548,0.82868 0.135298,0.34412 0.275847,0.33478 0.316235,-0.021 -0.0074,-0.91757 -1.275997,-2.95194 -3.040113,-7.07201 z m -5.241764,6.9159 q -0.175685,0.0117 -0.432148,0.73492 -0.224315,0.68579 -0.19443,1.0369 0.009,0.10534 0.04709,0.13812 0.181659,0.0585 0.438126,-0.66469 0.230293,-0.61557 0.537562,-0.74191 0.20485,-0.0842 1.645474,-0.17987 2.108232,-0.14003 2.992636,-0.1282 0.284083,0.0164 0.370028,0.611 0.121083,0.59224 0.437315,0.57124 0.281098,-0.0187 0.115915,-0.71392 -0.159206,-0.625 -0.387961,-0.82168 -0.193618,-0.199 -0.861225,-0.15465 z m 2.691692,-6.56996 1.314847,3.40839 q 0.003,0.0351 0.112117,0.48689 0.05605,0.24346 0.196606,0.23412 0.140549,-0.009 0.04637,-0.28556 -0.126332,-0.23879 -0.05605,-0.24346 0.351373,-0.0233 0.145801,-0.36278 -0.234732,-0.26689 -0.763967,-1.50292 -0.529235,-1.23602 -0.644337,-1.75802 -0.05904,-0.27856 -0.234732,-0.26689 -0.210823,0.014 -0.11664,0.29023 z m -0.755088,0.26201 q 0.110663,-0.36045 -0.170434,-0.34178 -0.105412,0.007 -0.157755,0.22234 -0.937647,3.09897 -0.898796,3.55543 0.009,0.10533 0.08223,0.13577 0.143535,0.0258 0.577224,-1.52137 0.302829,-1.0088 0.567532,-2.05039 z m 1.426962,3.89529 q -1.332228,0.12377 -1.311306,0.36958 0.009,0.10534 1.800964,-0.0137 0.175685,-0.0117 0.163731,-0.15212 -0.02391,-0.28089 -0.653389,-0.20377 z m -2.834541,-6.73256 q -0.140549,0.009 -0.228028,0.22702 -0.08449,0.25278 0.05605,0.24344 0.140549,-0.009 0.225041,-0.26211 0.08748,-0.21768 -0.05307,-0.20835 z m 3.429954,0.44307 0.52027,1.1307 q 0.08522,0.17088 0.293051,0.12177 0.1727,-0.0468 0.08449,-0.25279 l -0.476165,-1.02768 q -0.08821,-0.206 -0.29903,-0.192 -0.207836,0.0491 -0.122617,0.22 z" />
    <path
       inkscape:connector-curvature="0"
       id="path326"
       style="font-style:normal;font-variant:normal;font-weight:normal;font-stretch:normal;font-size:35.22367477px;line-height:125%;font-family:Dymo;-inkscape-font-specification:Dymo;letter-spacing:0px;word-spacing:0px;fill:#ffffff;fill-opacity:1;stroke:none;stroke-width:0.36691332px;stroke-linecap:butt;stroke-linejoin:miter;stroke-opacity:1;image-rendering:auto"
       d="m 87.003272,256.97838 13.668368,-0.90789 1.99338,23.41962 -13.66837,0.90788 z m 3.487205,6.51265 3.788496,6.31609 0.702744,-0.0467 q 0.105411,-0.007 0.117365,0.13344 0.01196,0.14045 -0.128594,0.14979 l -0.59135,0.10995 0.241344,2.42038 q 0.02391,0.2809 -0.113652,0.32534 -0.102425,0.0421 -0.08748,0.21768 0.07472,0.8778 0.672046,0.83812 0.632471,-0.042 0.503962,-1.55182 -0.02989,-0.35112 -0.130768,-1.12125 -0.09192,-0.66479 -0.115825,-0.94569 -0.03287,-0.38623 1.390718,-3.58809 1.566402,-3.59978 1.650894,-3.85256 0.02617,-0.10767 0.251212,-0.36979 0.225041,-0.26212 0.198143,-0.57813 -0.07398,-0.45411 -0.741595,-0.40977 -0.562195,0.0373 -0.593619,0.49846 -0.106949,0.81925 -0.165269,0.96436 -0.554041,1.37859 -1.11107,2.72208 -0.825447,1.92627 -1.238128,2.05961 -0.102426,0.0421 -0.122617,0.22002 -0.02019,0.17788 0.08522,0.17088 0.175687,-0.0117 0.38651,-0.0257 0.07326,0.0304 0.02092,0.24578 -0.02318,0.14278 -0.166721,0.11701 -0.146522,-0.0608 -0.210824,0.014 -0.03215,0.0374 0.07399,0.45412 0.100163,0.34646 -0.145801,0.3628 -0.07028,0.005 -0.05605,-0.24346 0.01421,-0.24812 -0.06502,-0.34879 l -3.618061,-5.97429 q -0.167447,-0.30668 -0.37003,-0.61102 -0.120354,-0.16855 -0.471726,-0.14522 -0.281099,0.0187 -0.538287,0.31824 -0.260177,0.26446 -0.204121,0.5079 0.01494,0.17556 0.416396,0.32545 0.401451,0.14989 0.48667,0.32078 z m -0.764053,0.15668 q -0.207836,0.0491 -0.0023,0.38857 l 3.873713,6.48698 0.257018,3.01962 q 0.01195,0.14044 0.152503,0.13111 0.140549,-0.009 0.128595,-0.14978 l -0.133038,-0.73269 q 0.165995,-0.54068 -0.04175,-2.15116 -0.01494,-0.17555 -0.164456,-0.27156 -0.149515,-0.096 -0.173424,-0.3769 -0.0269,-0.316 -1.874054,-3.33593 -1.815008,-3.05738 -2.022842,-3.00826 z m 6.485649,9.77391 q 0.175685,-0.0117 0.05614,-1.41615 -0.09935,-1.58236 -0.04103,-1.72748 0.110664,-0.36045 1.706226,-4.03279 1.446774,-3.34464 1.404934,-3.83622 -0.009,-0.10533 -0.07924,-0.10066 -0.140549,0.009 -0.177949,0.40023 -0.0374,0.3909 -0.341681,0.55236 -2.823999,6.26095 -2.796375,7.00064 0.163559,3.16707 0.268971,3.16007 z m -1.320653,-6.79781 q 0.146521,0.0608 1.106545,-1.94494 0.81123,-1.67816 0.799275,-1.81862 v 0 q -0.006,-0.0702 -0.04111,-0.0678 -0.111394,-0.0633 -1.007111,1.86772 -0.898709,1.89584 -0.898709,1.89584 0.003,0.0351 0.04111,0.0678 z m -3.310153,-4.01737 q -0.03215,0.0374 -0.02617,0.10767 -0.009,-0.10534 0.710899,1.29457 0.884321,1.67147 1.051041,1.55447 0.06729,-0.0398 0.06131,-0.11001 -0.009,-0.10533 -0.840219,-1.56847 -0.328914,-0.54311 -0.622692,-1.08857 -0.164458,-0.27156 -0.334166,-0.18966 z" />
    <path
       inkscape:connector-curvature="0"
       id="path328"
       style="font-style:normal;font-variant:normal;font-weight:normal;font-stretch:normal;font-size:35.22367477px;line-height:125%;font-family:Dymo;-inkscape-font-specification:Dymo;letter-spacing:0px;word-spacing:0px;fill:#ffffff;fill-opacity:1;stroke:none;stroke-width:0.36691332px;stroke-linecap:butt;stroke-linejoin:miter;stroke-opacity:1;image-rendering:auto"
       d="m 100.17965,256.10317 14.19543,-0.9429 1.99338,23.41962 -14.19543,0.9429 z m 12.18783,4.94604 q -0.0418,-0.49156 -0.89111,-0.50577 0.17568,-0.0117 -1.26494,0.084 -3.47859,0.23105 -5.22946,0.41802 -1.22682,0.11678 -1.18797,0.57325 0.012,0.14046 0.1996,0.26923 0.22278,0.12645 0.25266,0.47756 l 0.70974,9.16887 q -0.58764,0.56869 -0.57867,0.67402 0.0411,0.0679 0.11139,0.0633 0.42762,0.0422 0.55694,0.3161 0.12932,0.27389 0.16446,0.27156 0.10541,-0.007 0.12262,-0.22 0.0523,-0.21534 0.11066,-0.36046 l 6.46823,-0.39435 q 0.42165,-0.028 0.68853,0.20143 0.26389,0.19434 0.33416,0.18968 0.52706,-0.035 0.45832,-0.84259 -0.0388,-0.45646 -0.67132,-0.41445 -6.53552,0.43411 -6.53552,0.43411 -0.34838,0.0584 -0.53602,-0.0703 -0.15549,-0.16622 -0.10016,-0.34644 0.0845,-0.25279 0.018,-1.44893 -0.0575,-1.0908 0.0913,-1.41847 0.0321,-0.0374 0.0262,-0.10767 -0.003,-0.0351 -0.22576,-0.16156 -0.18764,-0.12878 -0.20856,-0.37456 -0.0418,-0.49156 0.34467,-0.51724 0.17568,-0.0117 0.25791,0.12411 0.0822,0.13578 0.1525,0.13112 0.10542,-0.007 0.23999,-0.0865 0.16971,-0.0818 0.31026,-0.0912 l 3.0218,-0.20071 q 1.58118,-0.10503 1.47576,-0.098 0.52408,-0.0701 0.48223,-0.56168 -0.0359,-0.42135 -1.44135,-0.32799 -0.21082,0.014 -1.88844,0.23136 -1.67762,0.21737 -2.62632,0.28038 -0.38651,0.0257 -0.42238,-0.39566 -0.006,-0.0702 -7.3e-4,-0.42368 0.0404,-0.35579 -0.0254,-1.12825 -0.0269,-0.316 -0.20105,-1.11658 -0.142,-0.83801 -0.15396,-0.97846 -0.0478,-0.56179 0.30356,-0.58513 0.21082,-0.014 0.39846,0.11477 0.18465,0.0937 0.29007,0.0867 0.17568,-0.0117 0.44482,-0.17079 l 5.16517,-0.34308 q 0.10542,-0.007 0.49491,0.002 0.28408,0.0164 0.38651,-0.0257 0.13158,-0.11467 0.10767,-0.39557 z m -0.5169,5.96648 q -0.006,-0.0702 -0.34839,0.0584 -0.47698,0.20823 -0.79321,0.22924 l -3.82996,0.25439 q -0.24596,0.0163 -0.28707,-0.0515 -0.0441,-0.10301 -0.14951,-0.096 -0.0703,0.005 -0.12262,0.22001 -0.0553,0.18022 -0.19588,0.18956 -0.10541,0.007 -0.25193,-0.0538 0.004,0.45879 0.004,0.88246 0.20477,1.57536 0.20477,1.57536 0.0149,0.17556 0.15848,0.20135 0.17867,0.0234 0.15775,-0.22235 l -0.14119,-2.07393 q 0.37754,-0.13101 1.32625,-0.19402 0.63247,-0.042 1.68957,-0.0769 1.09224,-0.0373 1.19765,-0.0443 1.44063,-0.0957 1.38086,-0.79793 z m -8.49616,-5.57967 q -0.17568,0.0117 0.27559,5.31357 0.45127,5.30188 0.62696,5.29021 0.14055,-0.009 0.0748,-0.78179 0.0598,0.70223 -0.38552,-4.52943 -0.10759,-1.26403 -0.26074,-3.47841 -0.10161,-1.1938 -0.16364,-1.50748 -0.062,-0.31367 -0.16745,-0.30667 z m 1.97306,11.55668 q 0.0179,0.21067 0.50686,0.14289 1.11543,-0.18003 1.29111,-0.1917 0.49192,-0.0327 1.62827,0.0331 1.17148,0.0634 2.04991,0.005 2.28392,-0.1517 2.263,-0.39748 -0.0209,-0.24579 -6.49214,0.11343 -1.26494,0.084 -1.24701,0.29469 z m 0.83783,-10.0838 5.06274,-0.30099 q 1.05412,-0.07 1.5042,-0.59426 0.28934,-0.33702 -0.0972,-0.31134 0,0 -0.29831,0.23168 -0.26615,0.19422 -1.07132,0.28302 0.23102,-0.1919 -0.0149,-0.17556 l -5.20628,0.27524 q -0.31623,0.021 -0.28635,0.37213 0.0209,0.24577 0.40743,0.2201 z m 0.83317,7.71294 q -0.28109,0.0187 -0.26914,0.15913 0.0149,0.17556 0.33118,0.15455 0.66761,-0.0443 2.66445,-0.24755 1.99685,-0.20321 2.10226,-0.21021 0.42165,-0.028 0.9958,0.0751 0.28707,0.0515 0.27213,-0.12401 -0.0209,-0.24578 -0.72367,-0.1991 z m -0.76751,-5.28088 q -0.21082,0.014 -0.19588,0.18957 0.0209,0.24577 0.4807,0.25055 0.91356,-0.0607 1.79199,-0.11903 2.56801,-0.13528 2.5441,-0.41616 -0.0381,-0.0327 -0.24895,-0.0187 l -3.71857,0.31757 q -0.31623,0.021 -0.46575,-0.075 -0.1525,-0.1311 -0.18764,-0.12877 z m -0.40435,-1.8446 q -0.0239,-0.28089 -0.12932,-0.27389 -0.21082,0.014 -0.17795,0.40023 0.0926,1.08848 0.26607,1.46537 0.1084,0.0281 0.20186,-0.11934 z" />
    <path
       inkscape:connector-curvature="0"
       id="path330"
       style="font-style:normal;font-variant:normal;font-weight:normal;font-stretch:normal;font-size:35.22367477px;line-height:125%;font-family:Dymo;-inkscape-font-specification:Dymo;letter-spacing:0px;word-spacing:0px;fill:#ffffff;fill-opacity:1;stroke:none;stroke-width:0.36691332px;stroke-linecap:butt;stroke-linejoin:miter;stroke-opacity:1;image-rendering:auto"
       d="m 113.88314,255.19295 14.5468,-0.96623 1.99338,23.41961 -14.5468,0.96624 z m 9.84187,4.78408 -6.11387,0.4061 q -0.73788,0.049 -0.70202,0.47035 -0.0344,0.42601 0.14127,0.41434 0.17569,-0.0117 0.15178,-0.29256 -0.0119,-0.14045 0.0965,-0.11234 0.0733,0.0304 0.0912,0.24111 l 0.82186,9.65576 q 0.0179,0.21068 -0.22205,0.29723 -0.20485,0.0842 -0.1899,0.2598 0.012,0.14044 0.20557,0.33945 0.22576,0.16155 0.43659,0.14754 0.21082,-0.014 0.23102,-0.19189 -0.012,-0.14045 -0.29306,-0.12178 -0.24596,0.0163 -0.22576,-0.16156 -0.012,-0.14044 0.19887,-0.15444 0.14055,-0.009 0.14951,0.096 0.0441,0.103 0.29604,0.15689 0.43061,0.0773 1.59014,3.1e-4 3.54885,-0.23573 4.5499,-0.51408 2.72504,-0.78129 2.44112,-4.1169 l -0.34069,-4.00276 q -0.11357,-1.33425 -0.99346,-2.12325 -0.87987,-0.78901 -2.3205,-0.69332 z m -5.6205,1.22078 q 0.0905,-0.18257 0.37455,-0.16613 0.60331,0.0305 0.60331,0.0305 l 4.74352,-0.31507 q 2.24878,-0.14937 2.455,2.27334 l 0.34368,4.03787 q 0.11357,1.33425 -0.47932,2.25639 -0.5929,0.92214 -1.8227,1.00383 l -4.00564,0.26606 q -0.21083,0.014 -0.43061,-0.0773 -0.11438,-0.0983 -0.21083,0.014 l -0.19588,0.18956 q -0.0643,0.0748 -0.16971,0.0818 -0.0351,0.002 -0.57488,-0.52679 0.0232,-0.14278 0.15776,-0.22234 l -0.66047,-7.75962 q 0,0 -0.14725,-0.48457 -0.0972,-0.31133 0.0195,-0.60156 z m 1.22528,0.69544 q -0.10541,0.007 2.06712,-0.20788 1.78901,-0.15412 2.1785,-0.1447 1.73966,0.0963 2.03553,3.57239 0.20621,2.42271 -0.27828,3.37297 -0.44935,0.94791 -1.64402,1.02726 -0.2811,0.0187 -0.26915,0.15913 0.012,0.14044 0.22278,0.12643 1.89741,-0.12603 2.28102,-1.8464 0.21236,-0.82625 0.0151,-3.14363 -0.32575,-3.82719 -2.74425,-3.59592 l -4.10208,0.3784 q 0.006,0.0702 -0.0202,0.17788 -0.0262,0.10768 0.009,0.10535 0.0381,0.0328 0.24894,0.0188 z m 7.73914,-0.40812 q 0.13829,0.37922 0.27658,0.75845 0.17415,0.80058 0.39232,3.36374 0.24207,2.84406 -0.51683,4.30688 -0.51962,0.95258 -1.54385,1.37372 -0.85452,0.33924 -0.84556,0.44458 0.009,0.10533 0.39548,0.0797 1.12439,-0.0747 1.94531,-1.22383 1.20072,-1.66873 0.91681,-5.00435 -0.27196,-3.19518 -0.80943,-4.11286 -0.0852,-0.17089 -0.19063,-0.16389 -0.10541,0.007 -0.0202,0.17789 z m -10.49325,-0.39763 q -0.14055,0.009 -0.16373,0.15211 0.009,0.10533 0.062,0.31367 0.0501,0.17322 0.0531,0.20834 0.0149,0.17555 -0.004,1.2008 -0.0217,0.99013 0.0261,1.55192 0.0388,0.45646 0.3004,2.69896 0.26154,2.24248 0.3243,2.97983 0.009,0.10534 0.14652,0.0608 0.10243,-0.0421 0.0965,-0.11234 l -0.67841,-7.97039 q -0.0329,-0.38623 0.0344,-0.426 0.0643,-0.075 0.0464,-0.28557 -0.0329,-0.38623 -0.2437,-0.37222 z m 5.22814,10.77549 q -2.67043,0.17737 -2.64951,0.42316 0.006,0.0702 2.6764,-0.1072 1.65145,-0.10969 1.63651,-0.28525 -0.012,-0.14046 -1.66341,-0.0308 z m -2.75902,-7.09067 q -0.21082,0.014 -0.0494,1.91004 0.21817,2.56316 0.42899,2.54916 0.14055,-0.009 -0.0776,-2.57249 -0.16138,-1.89605 -0.30193,-1.88671 z m 0.852,5.0281 q -0.14055,0.009 -0.13158,0.11467 0.0471,0.13811 0.1525,0.13111 l 2.92536,-0.0884 q 0.0643,-0.0749 0.1256,-0.1849 -0.0501,-0.17321 -0.29604,-0.15688 z m -0.12581,-10.19635 q -0.10541,0.007 -0.0935,0.14746 0.0119,0.14044 0.11737,0.13344 l 1.30007,-0.0863 q 0.14055,-0.009 0.1286,-0.14978 -0.012,-0.14046 -0.11737,-0.13345 z m -0.86212,2.74086 q -0.21083,0.014 -0.14209,0.82158 0.0538,0.63201 0.26462,0.618 0.10541,-0.007 0.0516,-0.63901 -0.0687,-0.80757 -0.17414,-0.80057 z m -1.35153,-2.59382 q -0.10541,0.007 -0.0934,0.14745 0.0119,0.14045 0.11736,0.13345 l 0.73788,-0.049 q 0.14055,-0.009 0.1286,-0.14977 -0.012,-0.14046 -0.11737,-0.13346 z" />
  </g>
</svg>
