<?xml version="1.0" encoding="UTF-8" standalone="no"?>
<!-- Created with Inkscape (http://www.inkscape.org/) -->

<svg
   xmlns:dc="http://purl.org/dc/elements/1.1/"
   xmlns:cc="http://creativecommons.org/ns#"
   xmlns:rdf="http://www.w3.org/1999/02/22-rdf-syntax-ns#"
   xmlns:svg="http://www.w3.org/2000/svg"
   xmlns="http://www.w3.org/2000/svg"
   xmlns:sodipodi="http://sodipodi.sourceforge.net/DTD/sodipodi-0.dtd"
   xmlns:inkscape="http://www.inkscape.org/namespaces/inkscape"
   width="500"
   height="200"
   viewBox="0 0 132.29166 52.916668"
   version="1.1"
   id="svg8"
   sodipodi:docname="auto-allgames.svg"
   inkscape:version="0.92.5 (2060ec1f9f, 2020-04-08)">
  <defs
     id="defs2" />
  <sodipodi:namedview
     id="base"
     pagecolor="#ffffff"
     bordercolor="#666666"
     borderopacity="1.0"
     inkscape:pageopacity="0.0"
     inkscape:pageshadow="2"
     inkscape:zoom="2.5905814"
     inkscape:cx="84.859474"
     inkscape:cy="146.39328"
     inkscape:document-units="mm"
     inkscape:current-layer="layer1"
     showgrid="false"
     units="px"
     inkscape:pagecheckerboard="true"
     inkscape:window-width="1366"
     inkscape:window-height="740"
     inkscape:window-x="0"
     inkscape:window-y="0"
     inkscape:window-maximized="1" />
  <metadata
     id="metadata5">
    <rdf:RDF>
      <cc:Work
         rdf:about="">
        <dc:format>image/svg+xml</dc:format>
        <dc:type
           rdf:resource="http://purl.org/dc/dcmitype/StillImage" />
        <dc:title />
      </cc:Work>
    </rdf:RDF>
  </metadata>
  <g
     inkscape:label="Layer 1"
     inkscape:groupmode="layer"
     id="layer1"
     transform="translate(0,-244.08332)">
    <flowRoot
       xml:space="preserve"
       id="flowRoot10"
       style="fill:black;stroke:none;stroke-opacity:1;stroke-width:1px;stroke-linejoin:miter;stroke-linecap:butt;fill-opacity:1;font-family:Dymo;font-style:normal;font-weight:normal;font-size:40px;line-height:125%;letter-spacing:0px;word-spacing:0px;-inkscape-font-specification:Dymo;font-stretch:normal;font-variant:normal;"><flowRegion
         id="flowRegion12"
         style="-inkscape-font-specification:Dymo;font-family:Dymo;font-weight:normal;font-style:normal;font-stretch:normal;font-variant:normal;"><rect
           id="rect14"
           width="69.224487"
           height="121.46939"
           x="12.408163"
           y="37.387756"
           style="-inkscape-font-specification:Dymo;font-family:Dymo;font-weight:normal;font-style:normal;font-stretch:normal;font-variant:normal;" /></flowRegion><flowPara
         id="flowPara16" /></flowRoot>    <path
       inkscape:connector-curvature="0"
       id="path190"
       style="font-style:normal;font-variant:normal;font-weight:normal;font-stretch:normal;font-size:37.52463913px;line-height:125%;font-family:Dymo;-inkscape-font-specification:Dymo;letter-spacing:0px;word-spacing:0px;fill:#ff00ff;fill-opacity:1;stroke:none;stroke-width:0.39088169px;stroke-linecap:butt;stroke-linejoin:miter;stroke-opacity:1;image-rendering:auto"
       d="M 1.7957268,261.95117 17.83469,260.9566 20.032542,285.06312 3.9935781,286.0577 Z m 10.3914172,5.86157 q -0.340388,-0.74215 -1.580114,-0.66527 -1.2009854,0.0745 -1.4417199,0.85266 -0.9398707,3.36577 -3.2614413,10.37913 -0.057713,0.22166 -0.041237,0.40236 0.062608,0.6867 0.64373,0.65066 0.5036386,-0.0312 0.6124735,-0.54682 l 0.4097738,-1.91541 q 0.076683,-0.4409 1.1614444,-0.50817 l 5.1526139,-0.31951 q 0.852312,-0.0529 1.050115,0.40738 l 0.693956,1.62888 q 0.295056,0.67228 0.759954,0.64345 0.852312,-0.0529 0.366043,-1.11308 z m -1.510917,0.0937 q 0.464897,-0.0288 0.740182,0.4266 0.314028,0.45303 0.243134,0.53012 -0.03215,0.0746 -0.109638,0.0794 -0.03874,0.002 -0.255514,-0.23857 -0.178032,-0.24338 -0.294256,-0.23618 -0.309932,0.0192 -0.02476,0.58307 0.09396,0.1759 0.378329,0.30365 0.319818,0.0892 0.413776,0.26512 l 1.824754,3.77587 q 0.06511,0.28673 0.156567,0.8626 0.0618,0.25059 0.255513,0.23857 0.07748,-0.005 0.05771,-0.22165 -0.01977,-0.21686 0.05771,-0.22166 l 0.25382,1.07464 q -5.3397363,0.40376 -6.4698239,0.4012 0.7675339,-2.2647 1.3669208,-4.66436 0.3685384,-1.51304 0.4847629,-1.52025 0.1162244,-0.007 0.093959,0.1759 -0.022271,0.18312 0.1714412,0.17111 0.154967,-0.01 0.273685,-0.41679 0.11872,-0.40717 -0.03625,-0.39756 -0.116224,0.007 -0.141784,0.15418 0.0099,0.10843 -0.1450807,0.11804 -0.077484,0.005 -0.090664,-0.13976 -0.029656,-0.32528 0.169841,-0.70111 0.238238,-0.37824 0.625654,-0.40226 z m -2.5520411,1.06691 q -1.4608788,4.48846 -2.9052833,9.15762 0.032952,0.36142 0.1945072,0.4241 0.200294,0.0602 0.1805274,-0.15658 0.015671,-0.25539 0.089063,-0.73244 1.9942696,-5.90269 2.7997442,-8.6059 0.1187199,-0.40717 -0.11373,-0.39275 -0.1549663,0.01 -0.2448295,0.30595 z m 5.9619951,0.86607 q -0.10055,-0.2482 -0.287667,-0.1639 -0.190414,0.0481 -0.08986,0.29634 0.201099,0.49638 3.122003,6.89388 0,0 0.311533,0.85299 0.149175,0.35421 0.304141,0.3446 0.348673,-0.0216 -0.0082,-0.94449 -1.406883,-3.03852 -3.351956,-7.27942 z m -5.7794473,7.11874 q -0.1937071,0.012 -0.4764781,0.75646 -0.247324,0.70592 -0.2143724,1.06734 0.00989,0.10842 0.051917,0.14216 0.2002931,0.0602 0.4830676,-0.68419 0.2539143,-0.63363 0.5927026,-0.76367 0.225862,-0.0867 1.8142623,-0.18514 2.324487,-0.14415 3.29961,-0.13197 0.313224,0.0169 0.407985,0.62893 0.133501,0.6096 0.482173,0.58798 0.309932,-0.0192 0.127805,-0.73484 -0.175537,-0.64335 -0.427756,-0.84578 -0.213478,-0.20484 -0.949566,-0.1592 z m 2.9677963,-6.76267 1.44972,3.50837 q 0.0033,0.0361 0.123615,0.50117 0.0618,0.2506 0.216774,0.24099 0.154966,-0.01 0.05112,-0.29394 -0.13929,-0.24579 -0.0618,-0.25059 0.387414,-0.024 0.160756,-0.37343 -0.258811,-0.27473 -0.842333,-1.54699 -0.583521,-1.27228 -0.710432,-1.8096 -0.0651,-0.28673 -0.258809,-0.27472 -0.232449,0.0144 -0.128605,0.29874 z m -0.832541,0.26971 q 0.122014,-0.37103 -0.187918,-0.35181 -0.116224,0.007 -0.173936,0.22886 -1.033828,3.18987 -0.9909913,3.65971 0.00989,0.10842 0.090664,0.13976 0.1582582,0.0265 0.6364335,-1.566 0.3338925,-1.03839 0.6257475,-2.11052 z m 1.573334,4.00953 q -1.468882,0.12741 -1.445814,0.38043 0.0099,0.10842 1.985699,-0.0141 0.193707,-0.012 0.180527,-0.15658 -0.02636,-0.28913 -0.720412,-0.20975 z M 8.8900246,267.5447 q -0.1549663,0.01 -0.2514198,0.23367 -0.093158,0.26019 0.061813,0.25058 0.1549662,-0.01 0.248125,-0.2698 0.096452,-0.22406 -0.058518,-0.21445 z m 3.7817874,0.45607 0.573637,1.16384 q 0.09396,0.17591 0.323112,0.12535 0.190414,-0.0481 0.09316,-0.26019 l -0.52501,-1.05783 q -0.09726,-0.21205 -0.329703,-0.19763 -0.229156,0.0505 -0.135195,0.22646 z" />
    <path
       inkscape:connector-curvature="0"
       id="path192"
       style="font-style:normal;font-variant:normal;font-weight:normal;font-stretch:normal;font-size:37.52463913px;line-height:125%;font-family:Dymo;-inkscape-font-specification:Dymo;letter-spacing:0px;word-spacing:0px;fill:#ffffff;fill-opacity:1;stroke:none;stroke-width:0.39088169px;stroke-linecap:butt;stroke-linejoin:miter;stroke-opacity:1;image-rendering:auto"
       d="m 17.292295,260.99023 14.101891,-0.87445 2.197851,24.10652 -14.101891,0.87446 z m 5.773793,5.63907 q -0.0692,-0.75898 -1.153959,-0.69171 -0.81357,0.0505 -0.327302,1.11068 0.194508,0.42409 0.182127,0.71562 0.02057,0.65296 0.04364,0.90595 l 0.711842,6.09834 q 0.09226,1.01196 0.142491,1.9902 0.111234,0.79271 0.68906,0.72053 0.232449,-0.0144 1.24302,-0.0408 1.397985,-0.0504 3.218834,-0.16328 1.85959,-0.11531 2.337668,4.3e-4 0.474783,0.0796 0.358559,0.0868 0.464897,-0.0288 0.392404,-0.82395 -0.04943,-0.54213 -0.591808,-0.5085 -1.669175,0.0672 -2.908902,0.14406 -2.014556,0.12492 -2.853687,0.32234 -0.842427,0.16128 -0.997393,0.17089 -0.464898,0.0288 -0.156566,-0.8626 0.04204,0.0337 0.08078,0.0313 0.426156,-0.0264 -0.410807,-9.20643 z m -2.031831,-0.49189 q -0.193708,0.012 0.303857,5.46941 0.494269,5.42126 0.687977,5.40925 0.154965,-0.01 -0.339304,-5.43087 -0.118625,-1.3011 -0.287476,-3.58043 -0.112035,-1.22882 -0.180433,-1.55169 -0.0684,-0.32288 -0.184621,-0.31567 z m 3.104727,6.27707 q -0.01318,-0.14456 -0.168146,-0.13495 -0.190414,0.0481 -0.177232,0.19272 l 0.227364,2.49377 q 0.01648,0.18071 0.248924,0.16629 0.229156,-0.0505 0.173937,-0.22886 -0.123615,-0.50117 -0.304847,-2.48897 z m 0.519125,3.12992 q 0.02307,0.25299 1.572724,0.15689 3.331766,-0.2066 3.809844,-0.0909 0.759153,0.20735 0.736088,-0.0456 -0.02966,-0.32528 -0.807781,-0.31338 -5.324055,0.14842 -5.310873,0.29301 z m -1.512707,2.63802 q 0.02307,0.253 0.562152,0.18322 1.501031,-0.20212 1.46229,-0.19971 0.658605,-0.0408 1.675768,0.005 1.017163,0.046 1.327094,0.0267 2.556937,-0.15856 2.537166,-0.3754 -0.01318,-0.14457 -1.020458,-0.0821 -5.127053,0.17255 -5.127053,0.17255 -1.436727,0.0528 -1.416959,0.26959 z" />
    <path
       inkscape:connector-curvature="0"
       id="path194"
       style="font-style:normal;font-variant:normal;font-weight:normal;font-stretch:normal;font-size:37.52463913px;line-height:125%;font-family:Dymo;-inkscape-font-specification:Dymo;letter-spacing:0px;word-spacing:0px;fill:#ffffff;fill-opacity:1;stroke:none;stroke-width:0.39088169px;stroke-linecap:butt;stroke-linejoin:miter;stroke-opacity:1;image-rendering:auto"
       d="m 30.851746,260.14941 14.101891,-0.87445 2.197851,24.10652 -14.10189,0.87446 z m 5.773794,5.63907 q -0.0692,-0.75898 -1.153959,-0.69171 -0.81357,0.0505 -0.327302,1.11068 0.194508,0.42409 0.182127,0.71562 0.02057,0.65296 0.04363,0.90595 l 0.711843,6.09834 q 0.09226,1.01196 0.142486,1.9902 0.111239,0.79271 0.68906,0.72053 0.232449,-0.0144 1.24302,-0.0408 1.397985,-0.0504 3.218834,-0.16328 1.85959,-0.11531 2.337668,4.3e-4 0.474783,0.0796 0.358559,0.0868 0.464898,-0.0288 0.392404,-0.82395 -0.04943,-0.54213 -0.591807,-0.5085 -1.669176,0.0672 -2.908903,0.14406 -2.014555,0.12493 -2.853687,0.32235 -0.842427,0.16127 -0.997393,0.17088 -0.464898,0.0288 -0.156567,-0.8626 0.04203,0.0337 0.08078,0.0313 0.426156,-0.0264 -0.410807,-9.20643 z m -2.031832,-0.49189 q -0.193707,0.012 0.303857,5.46941 0.49427,5.42126 0.687977,5.40925 0.154966,-0.01 -0.339303,-5.43087 -0.118625,-1.3011 -0.287471,-3.58043 -0.112035,-1.22882 -0.180438,-1.55169 -0.06839,-0.32288 -0.184622,-0.31567 z m 3.104727,6.27707 q -0.01318,-0.14456 -0.168146,-0.13495 -0.190414,0.0481 -0.177231,0.19272 l 0.227364,2.49377 q 0.01647,0.18071 0.248924,0.16629 0.229156,-0.0505 0.173936,-0.22886 -0.123615,-0.50117 -0.304847,-2.48897 z m 0.519126,3.12992 q 0.02307,0.25299 1.572724,0.15689 3.331765,-0.2066 3.809843,-0.0909 0.759154,0.20735 0.736088,-0.0456 -0.02966,-0.32528 -0.807781,-0.31338 -5.324054,0.14842 -5.310872,0.29301 z m -1.512707,2.63802 q 0.02307,0.253 0.562151,0.18322 1.501032,-0.20211 1.46229,-0.19971 0.658605,-0.0408 1.675769,0.005 1.017162,0.046 1.327094,0.0267 2.556937,-0.15856 2.537167,-0.3754 -0.01318,-0.14457 -1.020459,-0.0821 -5.127053,0.17255 -5.127053,0.17255 -1.436727,0.0528 -1.416959,0.26959 z" />
    <path
       inkscape:connector-curvature="0"
       id="path196"
       style="font-style:normal;font-variant:normal;font-weight:normal;font-stretch:normal;font-size:37.52463913px;line-height:125%;font-family:Dymo;-inkscape-font-specification:Dymo;letter-spacing:0px;word-spacing:0px;fill:#ffffff;fill-opacity:1;stroke:none;stroke-width:0.39088169px;stroke-linecap:butt;stroke-linejoin:miter;stroke-opacity:1;image-rendering:auto"
       d="m 50.377382,258.93863 2.197851,24.10653 -5.966184,0.36996 -2.197851,-24.10653 z m -2.29578,17.55211 q 0.223364,0.31327 0.843228,0.27484 0.348673,-0.0216 0.603387,-0.21916 0.293456,-0.19992 0.209383,-0.2674 -0.08408,-0.0675 -0.225863,0.0867 -0.25801,0.16138 -0.606682,0.18301 -0.464898,0.0288 -0.801191,-0.24109 -0.339587,-0.30606 -0.372539,-0.66748 -0.03625,-0.39756 0.1311,-0.6987 0.138489,-0.19032 0.09645,-0.22405 -0.12611,-0.10123 -0.328903,0.23846 -0.202792,0.3397 -0.159956,0.80954 0.07579,0.83125 0.611578,0.72533 z m 0.916615,-0.20221 q 0.852313,-0.0528 0.753459,-1.13711 -0.07249,-0.79512 -0.963547,-0.73987 -0.271191,0.0168 -0.551466,0.36132 -0.280275,0.34449 -0.244029,0.74205 0.07579,0.83126 1.005583,0.77361 z m 0.948766,-0.27691 q 0.122819,0.0651 0.212677,-0.23127 0.128605,-0.29875 0.102245,-0.58787 -0.04943,-0.54213 -0.431052,-0.88193 -0.332997,-0.23377 -0.604188,-0.21695 -0.07748,0.005 -0.11293,0.0433 0,0 0.413775,0.26512 0.449222,0.22656 0.505239,0.84097 0.02966,0.32527 -0.0668,0.54933 -0.09975,0.18791 -0.01897,0.21926 z" />
    <path
       inkscape:connector-curvature="0"
       id="path198"
       style="font-style:normal;font-variant:normal;font-weight:normal;font-stretch:normal;font-size:37.52463913px;line-height:125%;font-family:Dymo;-inkscape-font-specification:Dymo;letter-spacing:0px;word-spacing:0px;fill:#ffffff;fill-opacity:1;stroke:none;stroke-width:0.39088169px;stroke-linecap:butt;stroke-linejoin:miter;stroke-opacity:1;image-rendering:auto"
       d="m 49.83498,258.97227 16.426379,-1.0186 2.197851,24.10652 -16.426378,1.0186 z m 7.331737,4.77919 q -0.01977,-0.21686 -0.710526,-0.10133 -1.956044,0.33937 -2.52648,0.91994 -1.32799,1.24542 -0.995182,4.89573 0.352578,3.86716 0.813286,5.07436 0.197802,0.46023 0.964347,1.17597 0.80199,0.67719 2.255195,0.80515 0.823455,0.058 3.07046,-0.0814 3.1768,-0.197 4.306093,-0.63048 0.980916,-0.3516 1.356844,-1.35626 0.02886,-0.11082 0.01568,-0.25539 -0.0099,-0.10842 -0.08407,-0.0674 -0.07748,0.005 -0.209382,0.26741 -0.360253,0.74926 -0.960346,1.00455 -1.087255,0.46723 -4.341538,0.66903 -2.208263,0.13693 -2.40197,0.14894 -1.640322,-0.0437 -2.626135,-0.60042 -1.276773,-0.75679 -1.645827,-4.80466 -0.01977,-0.21686 -0.11783,-0.865 -0.05931,-0.65055 -0.09556,-1.0481 -0.434958,-4.77072 3.322963,-5.00375 0.619864,-0.0384 0.609979,-0.14686 z m 5.529953,2.96457 q 0.193708,-0.012 0.144281,-0.55414 -0.08897,-0.97582 -3.924373,-0.73798 -2.479453,0.15375 -3.166114,0.74152 -0.647919,0.58537 -0.499638,2.21174 0.375644,4.12015 0.685576,4.10093 0.07748,-0.005 -0.248733,-3.58282 -0.184528,-2.02394 0.360347,-2.45754 0.435241,-0.3541 3.030919,-0.51506 3.060576,-0.18979 3.42323,0.36927 0.04533,0.0699 0.02636,0.28912 0.01318,0.14457 0.168145,0.13496 z m -5.908051,7.41749 q 0.05272,0.57827 3.384488,0.37167 2.866868,-0.17777 2.820736,-0.68376 -0.0099,-0.10842 -0.506932,-0.005 -1.110322,0.21424 -2.814946,0.31994 -1.123502,0.0697 -2.024442,0.0165 -0.865493,-0.0917 -0.788009,-0.0965 -0.07748,0.005 -0.0709,0.077 z m 7.874076,-9.3567 q -0.103044,0.15177 -0.01238,0.29154 0.135995,0.20964 0.149175,0.3542 0.04613,0.50599 0.197802,0.46023 0.193708,-0.012 0.157462,-0.40957 -0.0692,-0.75896 -0.417871,-0.73734 -0.03874,0.002 -0.07419,0.0409 z m 1.109143,6.18274 q -0.07249,-0.79511 -0.266201,-0.7831 -0.193707,0.012 -0.121214,0.80713 0.08567,0.93968 0.27938,0.92767 0.193708,-0.012 0.108035,-0.9517 z m -2.210569,-2.87965 q 0.01318,0.14457 0.594302,0.10854 0.581122,-0.036 0.567941,-0.18061 -0.0099,-0.10842 -0.629748,-0.07 -0.54238,0.0336 -0.532495,0.14205 z m 0.306447,3.36118 q 0.07249,0.79513 0.14828,1.62638 0.05272,0.57827 -0.227554,0.92276 -0.386614,0.46014 -3.912086,0.67875 -2.866868,0.17777 -3.765312,-0.27536 -0.898443,-0.45313 -1.323515,-5.11541 -0.253725,-2.78292 0.342272,-3.51045 0.634738,-0.72994 4.005245,-0.93894 2.789385,-0.17297 3.529568,0.25363 0.536591,0.33019 0.684872,1.95657 0.05931,0.65054 0.717917,0.6097 0.697346,-0.0432 0.611672,-0.98292 -0.171346,-1.87937 -1.108531,-2.3301 -1.140779,-0.54714 -4.666251,-0.32853 -3.757922,0.23303 -4.679526,1.23518 -0.67348,0.73234 -0.317606,4.63564 0.398711,4.37314 1.485071,5.17808 1.086361,0.80494 4.689316,0.58152 3.486732,-0.21621 4.257466,-0.7365 0.993297,-0.64313 0.765933,-3.1369 -0.102149,-1.1204 -0.09556,-1.04812 -0.08816,-0.53972 -0.553066,-0.51089 l -3.680438,0.22822 q -0.581122,0.036 -0.521809,0.68659 0.05602,0.6144 0.637138,0.57837 z" />
    <path
       inkscape:connector-curvature="0"
       id="path200"
       style="font-style:normal;font-variant:normal;font-weight:normal;font-stretch:normal;font-size:37.52463913px;line-height:125%;font-family:Dymo;-inkscape-font-specification:Dymo;letter-spacing:0px;word-spacing:0px;fill:#ffffff;fill-opacity:1;stroke:none;stroke-width:0.39088169px;stroke-linecap:butt;stroke-linejoin:miter;stroke-opacity:1;image-rendering:auto"
       d="m 65.71897,257.9873 16.038963,-0.99457 2.197851,24.10652 -16.038963,0.99458 z m 10.391416,5.86157 q -0.340387,-0.74215 -1.580114,-0.66528 -1.200984,0.0745 -1.441719,0.85267 -0.93987,3.36576 -3.261441,10.37913 -0.05771,0.22166 -0.04124,0.40236 0.06261,0.6867 0.64373,0.65066 0.503638,-0.0312 0.612473,-0.54682 l 0.409774,-1.91541 q 0.07668,-0.4409 1.161444,-0.50817 l 5.152614,-0.31951 q 0.852312,-0.0528 1.050115,0.40738 l 0.693956,1.62888 q 0.295057,0.67228 0.759954,0.64345 0.852312,-0.0528 0.366043,-1.11308 z m -1.510917,0.0937 q 0.464898,-0.0288 0.740184,0.4266 0.314026,0.45303 0.243134,0.53012 -0.03215,0.0746 -0.109639,0.0794 -0.03874,0.002 -0.255514,-0.23858 -0.178031,-0.24338 -0.294256,-0.23617 -0.309931,0.0192 -0.02476,0.58307 0.09396,0.1759 0.378329,0.30365 0.319818,0.0892 0.413776,0.26512 l 1.824754,3.77587 q 0.06511,0.28673 0.156567,0.8626 0.06181,0.25058 0.255514,0.23857 0.07748,-0.005 0.05771,-0.22165 -0.01977,-0.21686 0.05771,-0.22166 l 0.253819,1.07464 q -5.339735,0.40376 -6.469823,0.40119 0.767534,-2.2647 1.366921,-4.66436 0.368539,-1.51304 0.484763,-1.52024 0.116224,-0.007 0.09396,0.1759 -0.02227,0.18312 0.171442,0.1711 0.154966,-0.01 0.273684,-0.41678 0.11872,-0.40717 -0.03625,-0.39756 -0.116225,0.007 -0.141785,0.15418 0.0099,0.10843 -0.14508,0.11804 -0.07748,0.005 -0.09067,-0.13977 -0.02966,-0.32527 0.169842,-0.7011 0.238238,-0.37824 0.625652,-0.40226 z m -2.55204,1.06691 q -1.46088,4.48846 -2.905283,9.15762 0.03295,0.36142 0.194507,0.4241 0.200293,0.0602 0.180526,-0.15658 0.01567,-0.25539 0.08906,-0.73244 1.99427,-5.90269 2.799745,-8.6059 0.118718,-0.40717 -0.11373,-0.39275 -0.154966,0.01 -0.244829,0.30595 z m 5.961995,0.86606 q -0.10055,-0.24819 -0.287667,-0.16389 -0.190414,0.0481 -0.08986,0.29634 0.201099,0.49638 3.122003,6.89388 0,0 0.311533,0.85299 0.149175,0.35421 0.304141,0.3446 0.348673,-0.0216 -0.0082,-0.94449 -1.406884,-3.03852 -3.351957,-7.27943 z m -5.779447,7.11875 q -0.193707,0.012 -0.476478,0.75646 -0.247324,0.70592 -0.214373,1.06734 0.0099,0.10842 0.05193,0.14216 0.200293,0.0602 0.483068,-0.68419 0.253914,-0.63363 0.592701,-0.76367 0.225863,-0.0867 1.814264,-0.18515 2.324487,-0.14414 3.299609,-0.13196 0.313225,0.0169 0.407986,0.62893 0.133501,0.6096 0.482173,0.58798 0.309932,-0.0192 0.127805,-0.73484 -0.175538,-0.64335 -0.427757,-0.84578 -0.213478,-0.20484 -0.949565,-0.1592 z m 2.967796,-6.76267 1.449719,3.50836 q 0.0033,0.0361 0.123616,0.50118 0.0618,0.2506 0.216773,0.24099 0.154965,-0.01 0.05112,-0.29395 -0.139291,-0.24578 -0.0618,-0.25058 0.387414,-0.024 0.160756,-0.37344 -0.258811,-0.27472 -0.842332,-1.54698 -0.583522,-1.27228 -0.710433,-1.8096 -0.0651,-0.28674 -0.25881,-0.27472 -0.232448,0.0144 -0.128604,0.29874 z m -0.832541,0.26971 q 0.122014,-0.37103 -0.187918,-0.35181 -0.116224,0.007 -0.173936,0.22886 -1.033829,3.18987 -0.990992,3.65971 0.0099,0.10842 0.09066,0.13976 0.158258,0.0265 0.636433,-1.566 0.333892,-1.0384 0.625749,-2.11052 z m 1.573334,4.00953 q -1.468883,0.12741 -1.445814,0.38043 0.0099,0.10842 1.985699,-0.0141 0.193708,-0.012 0.180527,-0.15658 -0.02636,-0.28913 -0.720412,-0.20975 z m -3.125298,-6.93002 q -0.154967,0.01 -0.25142,0.23367 -0.09316,0.26019 0.06181,0.25058 0.154965,-0.01 0.248124,-0.2698 0.09645,-0.22406 -0.05851,-0.21445 z m 3.781787,0.45607 0.573637,1.16384 q 0.09396,0.17591 0.323112,0.12535 0.190414,-0.0481 0.09316,-0.2602 l -0.52501,-1.05782 q -0.09725,-0.21205 -0.329703,-0.19764 -0.229156,0.0505 -0.135195,0.22647 z" />
    <path
       inkscape:connector-curvature="0"
       id="path202"
       style="font-style:normal;font-variant:normal;font-weight:normal;font-stretch:normal;font-size:37.52463913px;line-height:125%;font-family:Dymo;-inkscape-font-specification:Dymo;letter-spacing:0px;word-spacing:0px;fill:#ffffff;fill-opacity:1;stroke:none;stroke-width:0.39088169px;stroke-linecap:butt;stroke-linejoin:miter;stroke-opacity:1;image-rendering:auto"
       d="m 81.215539,257.02636 16.813793,-1.04262 2.197848,24.10653 -16.81379,1.04262 z m 13.675166,9.40159 0.596418,6.54165 q 0.0099,0.10842 -0.128605,0.29875 -0.13849,0.19031 -0.122014,0.37102 0.06261,0.68669 0.876178,0.63624 0.387415,-0.024 0.460803,-0.50107 0.07339,-0.47705 -0.185423,-0.75177 l -0.897079,-10.26664 q -0.09226,-1.01197 -1.022058,-0.95431 -0.736088,0.0456 -0.819362,0.41426 -0.08657,0.33248 -0.102243,0.58788 l -2.084933,5.76292 q 0.06671,1.15893 -0.553161,1.19737 -0.27119,0.0168 -0.688261,-0.28443 -0.420365,-0.33739 -0.265399,-0.347 0.309931,-0.0192 0.125308,-0.33489 l -3.74356,-6.01938 q -0.317322,-0.48917 -0.898445,-0.45313 -1.200985,0.0745 -1.148262,0.65274 0.0099,0.10842 0.168146,0.13495 0.158258,0.0265 0.174736,0.20725 l 0.648335,6.68381 -0.15746,0.40957 0.27679,3.0359 q 0.03625,0.39756 -0.428651,0.42639 -0.154965,0.01 -0.220068,-0.27711 -0.0684,-0.32289 -0.184623,-0.31568 -0.154965,0.01 0.0041,0.47225 0.220869,0.71323 1.344372,0.64356 0.581121,-0.036 0.528398,-0.61431 l -0.830372,-9.10771 q -0.01648,-0.18071 0.05771,-0.22165 0.07089,-0.0771 0.09316,-0.2602 -0.01318,-0.14457 -0.142585,-0.28192 -0.129405,-0.13737 -0.187918,-0.35182 -0.05852,-0.21445 0.09645,-0.22405 0.27119,-0.0168 0.539885,0.36632 1.133293,1.74703 1.136588,1.78317 -0.397299,-0.0844 -0.81357,0.0505 0.03295,0.36142 0.423661,0.37354 0.426156,-0.0264 0.610778,0.28924 l 2.849308,4.33022 -0.167347,0.30114 q 0.646224,0.2507 0.878673,0.23629 0.77483,-0.0481 0.863093,-1.2166 l 2.319077,-6.61339 q 0.122013,-0.37103 0.393204,-0.38785 0.232449,-0.0144 0.233249,0.42169 z m 1.955664,6.49371 q 0.01977,0.21685 0.135995,0.20964 0.232449,-0.0144 0.189612,-0.48426 -0.247134,-2.71063 -0.323727,-3.97799 -0.04943,-0.54212 -0.05682,-1.0505 -0.340193,-4.15871 -0.307241,-3.79729 -0.05272,-0.57826 -0.295856,-1.10837 -0.05193,-0.14217 -0.158259,-0.0265 -0.103044,0.15177 -0.08327,0.36862 z m -12.083945,-0.9226 -0.689476,-7.98971 q -0.02636,-0.28914 -0.220069,-0.27713 -0.07419,0.0409 -0.05771,0.22166 l 0.654035,8.02827 q 0.01977,0.21684 0.181326,0.27951 0.158259,0.0265 0.1319,-0.2626 z m 9.480361,-4.98574 0.0057,1.34445 q 0.01318,0.14457 -0.09645,0.22406 -0.10963,0.0795 -0.09645,0.22406 0.355874,3.9033 0.544591,4.69121 0.01318,0.14457 0.09067,0.13976 0.232449,-0.0144 0.196202,-0.41197 l -0.383834,-5.06464 q 0.320712,-1.18297 -0.260411,-1.14693 z m -0.810277,0.0866 -0.623253,1.71057 -0.07259,0.91314 q -0.324007,1.14683 -1.31401,1.8261 0.164852,0.0988 0.319817,0.0892 0.503639,-0.0312 0.941376,-0.7853 0.437736,-0.75406 0.510324,-1.66721 -0.02307,-0.25299 0.464992,-1.7371 0.0676,-0.11323 -0.02636,-0.28914 -0.05192,-0.14216 -0.129404,-0.13735 -0.03874,0.002 -0.0709,0.077 z m -3.288318,4.52909 q -0.54318,-0.40247 -1.964939,-2.74949 -1.369837,-2.20486 -1.486061,-2.19765 -0.07748,0.005 -0.0676,0.11322 0.02966,0.32528 2.277272,4.03859 0.644529,1.08676 1.241327,0.79533 z m -0.01459,-4.43332 -2.37043,-3.77838 q -0.04862,-0.10602 -0.242333,-0.094 -0.03215,0.0747 -0.103045,0.15176 l 2.370431,3.77839 q 0.181325,0.27952 0.332997,0.23377 0.151673,-0.0457 0.01239,-0.29154 z m 2.703901,-4.52919 -1.23083,3.16574 q -0.980212,2.49597 -0.976917,2.5321 0.0066,0.0722 0.08737,0.10363 0.200303,0.0603 0.483068,-0.68419 0.347073,-0.89382 0.694146,-1.78765 0.607577,-1.45517 1.150053,-3.19707 0.0643,-0.14938 -0.05852,-0.21445 -0.119517,-0.0289 -0.148371,0.0819 z m -6.419366,12.06514 q -0.01318,-0.14457 -0.203592,-0.0964 -0.306638,0.0553 -0.384121,0.0601 -0.03875,0.002 -0.355259,-0.0506 -0.200293,-0.0602 -0.187121,0.0842 0.02636,0.28913 0.568741,0.2555 0.545674,0.002 0.561351,-0.25289 z m -2.682382,-11.90055 q -0.116224,0.007 -0.08986,0.29634 0.02636,0.28914 0.142586,0.28193 0.193707,-0.012 0.167346,-0.30114 -0.02636,-0.28914 -0.220069,-0.27713 z" />
    <path
       inkscape:connector-curvature="0"
       id="path204"
       style="font-style:normal;font-variant:normal;font-weight:normal;font-stretch:normal;font-size:37.52463913px;line-height:125%;font-family:Dymo;-inkscape-font-specification:Dymo;letter-spacing:0px;word-spacing:0px;fill:#ffffff;fill-opacity:1;stroke:none;stroke-width:0.39088169px;stroke-linecap:butt;stroke-linejoin:miter;stroke-opacity:1;image-rendering:auto"
       d="m 97.486877,256.01738 15.651553,-0.97055 2.19785,24.10652 -15.651552,0.97055 z m 13.438013,5.09112 q -0.0461,-0.50599 -0.98252,-0.52062 0.19371,-0.012 -1.39469,0.0865 -3.8354,0.23784 -5.76588,0.43029 -1.35266,0.1202 -1.30982,0.59007 0.0132,0.14457 0.22007,0.27712 0.24562,0.13015 0.27858,0.49157 l 0.78254,9.43779 q -0.64792,0.58537 -0.63803,0.69379 0.0453,0.0699 0.12282,0.0651 0.47148,0.0434 0.61407,0.32539 0.14258,0.28193 0.18133,0.27953 0.11622,-0.007 0.13519,-0.22647 0.0577,-0.22165 0.12202,-0.37103 l 7.13172,-0.40591 q 0.46489,-0.0288 0.75915,0.20734 0.29096,0.20004 0.36844,0.19523 0.58113,-0.036 0.50534,-0.86729 -0.0428,-0.46984 -0.74019,-0.4266 -7.20591,0.44684 -7.20591,0.44684 -0.38412,0.0601 -0.591,-0.0724 -0.17145,-0.17111 -0.11044,-0.35662 0.0932,-0.26019 0.0199,-1.49142 -0.0634,-1.12279 0.10064,-1.46007 0.0355,-0.0385 0.0289,-0.11084 -0.003,-0.0361 -0.24892,-0.16629 -0.20689,-0.13255 -0.22996,-0.38554 -0.0461,-0.50599 0.38003,-0.53242 0.19371,-0.012 0.28437,0.12775 0.0907,0.13977 0.16815,0.13496 0.11622,-0.007 0.2646,-0.089 0.18712,-0.0842 0.34209,-0.0939 l 3.33176,-0.2066 q 1.74337,-0.10811 1.62714,-0.1009 0.57783,-0.0721 0.5317,-0.57816 -0.0395,-0.4337 -1.5892,-0.3376 -0.23245,0.0144 -2.08216,0.23815 -1.8497,0.22373 -2.89572,0.2886 -0.42616,0.0264 -0.4657,-0.40727 -0.007,-0.0723 -7.9e-4,-0.43611 0.0445,-0.36622 -0.028,-1.16134 -0.0297,-0.32528 -0.22167,-1.14933 -0.15657,-0.8626 -0.16975,-1.00716 -0.0527,-0.57827 0.33469,-0.60229 0.23245,-0.0144 0.43934,0.11814 0.20359,0.0964 0.31982,0.0892 0.19371,-0.012 0.49046,-0.1758 l 5.69499,-0.35314 q 0.11623,-0.007 0.54567,0.002 0.31323,0.0169 0.42616,-0.0264 0.14508,-0.11803 0.11872,-0.40717 z m -0.56992,6.14147 q -0.007,-0.0722 -0.38412,0.0601 -0.52591,0.21435 -0.87458,0.23597 l -4.22282,0.26186 q -0.27119,0.0168 -0.31653,-0.0531 -0.0486,-0.10603 -0.16485,-0.0988 -0.0775,0.005 -0.13519,0.22647 -0.061,0.18551 -0.21598,0.19512 -0.11622,0.007 -0.27777,-0.0554 0.004,0.47224 0.005,0.90835 0.22577,1.62157 0.22577,1.62157 0.0165,0.18071 0.17473,0.20724 0.197,0.0241 0.17394,-0.22886 l -0.15566,-2.13476 q 0.41627,-0.13486 1.46228,-0.19972 0.69735,-0.0432 1.86289,-0.0792 1.20428,-0.0383 1.3205,-0.0456 1.5884,-0.0985 1.5225,-0.82133 z m -9.36766,-5.74332 q -0.19371,0.012 0.30385,5.46941 0.49757,5.45739 0.69127,5.44538 0.15497,-0.01 0.0825,-0.80472 0.0659,0.72283 -0.42508,-4.66229 -0.11862,-1.3011 -0.28747,-3.58043 -0.11203,-1.22882 -0.18043,-1.55169 -0.0684,-0.32287 -0.18462,-0.31566 z m 2.17544,11.89564 q 0.0198,0.21684 0.55886,0.14707 1.22984,-0.18529 1.42355,-0.19731 0.54238,-0.0336 1.79529,0.034 1.29164,0.0653 2.26018,0.005 2.51819,-0.15616 2.49513,-0.40915 -0.0231,-0.25299 -7.15808,0.11676 -1.3947,0.0865 -1.37493,0.30334 z m 0.92378,-10.37956 5.58206,-0.30982 q 1.16224,-0.0721 1.65849,-0.61168 0.31902,-0.3469 -0.10714,-0.32047 0,0 -0.3289,0.23846 -0.29346,0.19994 -1.18121,0.29133 0.25471,-0.19753 -0.0165,-0.18071 l -5.74033,0.28322 q -0.34867,0.0216 -0.31572,0.38304 0.0231,0.25299 0.44922,0.22656 z m 0.91863,7.93916 q -0.30993,0.0192 -0.29675,0.16379 0.0165,0.18071 0.36515,0.15908 0.73609,-0.0456 2.93777,-0.25481 2.20166,-0.20927 2.31789,-0.21647 0.4649,-0.0288 1.09794,0.0773 0.31652,0.053 0.30005,-0.12764 -0.0231,-0.253 -0.7979,-0.20495 z m -0.84623,-5.43577 q -0.23245,0.0144 -0.21598,0.19512 0.0231,0.25299 0.53,0.2579 1.00728,-0.0625 1.97582,-0.12252 2.83142,-0.13925 2.80506,-0.42836 -0.042,-0.0337 -0.27449,-0.0193 l -4.1,0.32698 q -0.34867,0.0216 -0.51352,-0.0772 -0.16815,-0.13496 -0.20689,-0.13256 z m -0.44584,-1.8987 q -0.0264,-0.28913 -0.14258,-0.28192 -0.23245,0.0144 -0.19621,0.41197 0.10215,1.12039 0.29337,1.50834 0.11951,0.0289 0.22256,-0.12284 z" />
    <path
       inkscape:connector-curvature="0"
       id="path206"
       style="font-style:normal;font-variant:normal;font-weight:normal;font-stretch:normal;font-size:37.52463913px;line-height:125%;font-family:Dymo;-inkscape-font-specification:Dymo;letter-spacing:0px;word-spacing:0px;fill:#ffffff;fill-opacity:1;stroke:none;stroke-width:0.39088169px;stroke-linecap:butt;stroke-linejoin:miter;stroke-opacity:1;image-rendering:auto"
       d="m 112.59603,255.08046 16.03896,-0.99457 2.19785,24.10652 -16.03896,0.99458 z m 8.83686,5.04932 q -3.37051,0.20901 -4.27644,0.95575 -0.87048,0.70822 -0.66618,2.949 0.1351,1.48181 1.15636,2.00002 1.01796,0.48207 3.72986,0.3139 2.5182,-0.15615 3.07376,-0.0452 1.62464,0.29906 1.77293,1.92544 0.12192,1.33724 -0.60678,1.89127 -0.83833,0.63353 -3.35653,0.78968 -3.1768,0.19699 -3.7719,-0.34765 -0.21018,-0.16869 -0.63464,-0.97833 -0.32392,-0.56145 -0.71133,-0.53743 -0.85231,0.0529 -0.793,0.7034 0.0461,0.50599 0.51352,0.0772 0.28437,0.12776 0.57943,0.80003 0.29176,0.63614 1.05421,0.87963 1.1276,0.40258 3.68453,0.24402 2.59568,-0.16096 3.67305,-0.73661 1.56124,-0.82373 1.38001,-2.81153 -0.19112,-2.09622 -1.79679,-2.61454 -0.88527,-0.30856 -3.20975,-0.16442 -2.78939,0.17297 -3.14465,0.12236 -1.54387,-0.26773 -1.70533,-2.03867 -0.14169,-1.55409 1.17472,-2.07188 0.60339,-0.21914 2.77291,-0.35367 2.44071,-0.15135 3.41005,0.22469 0.84982,0.34711 0.93878,1.32294 0.056,0.61441 0.40469,0.59279 0.69735,-0.0433 0.61497,-0.94679 -0.22407,-2.45763 -5.26046,-2.14533 z m -5.12216,1.08089 q -0.28766,-0.16389 -0.64462,0.62151 -0.38582,0.89623 -0.30014,1.83592 0.19441,2.13235 1.11921,2.87463 1.35177,1.15193 5.22591,0.9117 2.24701,-0.13934 2.96742,0.0704 0.56215,0.18321 0.65691,0.79521 0.0915,0.57587 -0.27289,0.85289 -0.32561,0.27461 -0.32231,0.31076 0.007,0.0722 0.20029,0.0602 0.77483,-0.048 0.6595,-1.31301 -0.12192,-1.33725 -0.81926,-1.294 -1.3947,0.0865 -3.53866,0.074 -2.88663,-0.0391 -3.33915,-0.30178 -1.15067,-0.65556 -1.55865,-1.2845 -0.40799,-0.62893 -0.52002,-1.85775 -0.11863,-1.3011 0.25151,-1.94193 0.23495,-0.41438 0.23495,-0.41438 z m 11.41847,6.01596 q -0.0519,-0.14217 -0.12611,-0.10121 -0.0742,0.0409 -0.0577,0.22165 0.28837,2.30826 -0.40079,3.29599 -1.06588,1.55628 -4.90129,1.79412 -3.13806,0.19459 -4.5665,-0.51645 -0.16485,-0.0988 -0.197,-0.0241 -0.0709,0.077 0.094,0.1759 1.03444,0.66277 2.60387,0.78353 0.82345,0.058 2.99297,-0.0766 1.97582,-0.12252 3.22383,-0.96317 1.76403,-1.16343 1.54655,-3.54877 -0.0659,-0.72284 -0.21178,-1.04091 z m -6.39413,2.94073 q -0.77483,0.048 -1.68895,-0.1497 -1.03364,-0.22667 -1.2603,-0.57608 -0.0874,-0.10361 -0.16485,-0.0988 -0.0742,0.0409 0.0165,0.18071 0.37913,0.73976 1.59988,0.88214 1.21746,0.10623 1.22735,0.21465 0.007,0.0723 1.63373,-0.0286 1.51092,-0.0937 1.48456,-0.38282 -0.0198,-0.21685 -0.72041,-0.20975 1.39798,-0.0504 -2.12749,0.16825 z m -1.60459,-5.20703 q 1.75325,3.2e-4 3.46776,0.003 2.06318,-0.0189 3.21055,0.60052 0.12281,0.065 0.197,0.0241 0.10963,-0.0795 -0.0132,-0.14456 -1.78781,-1.23395 -6.84317,-0.70239 -0.30993,0.0192 -0.30004,0.12765 0.0453,0.0698 0.28107,0.0916 z m -2.04003,-1.43638 q 0.0989,1.08426 0.6025,1.05303 0.1937,-0.012 0.17393,-0.22887 -0.01,-0.10842 -0.17473,-0.20724 -0.16815,-0.13495 -0.21428,-0.64094 -0.0626,-0.68669 1.19938,-0.94668 0.57124,-0.14446 2.31461,-0.25257 1.74336,-0.1081 2.47695,0.24622 0.48467,0.18801 0.6017,0.61691 0.11373,0.39276 0.30743,0.38075 0.34208,-0.094 -0.0502,-0.97823 -0.48956,-1.09637 -3.55014,-0.90659 -2.7119,0.16817 -2.5149,0.19227 -0.47148,-0.0434 -0.45172,0.17339 0.007,0.0722 0.16815,0.13496 0.16155,0.0626 0.16485,0.0988 -0.007,-0.0722 -0.56135,0.25288 -0.55476,0.32517 -0.49215,1.01186 z m -1.46676,6.56056 q -0.0486,-0.10603 -0.16155,-0.0626 -0.11293,0.0433 -0.0932,0.2602 0.0923,1.01196 0.36345,0.99515 0.15497,-0.01 0.0182,-0.65535 z" />
  </g>
</svg>
