<?xml version="1.0" encoding="UTF-8" standalone="no"?>
<!-- Created with Inkscape (http://www.inkscape.org/) -->

<svg
   xmlns:dc="http://purl.org/dc/elements/1.1/"
   xmlns:cc="http://creativecommons.org/ns#"
   xmlns:rdf="http://www.w3.org/1999/02/22-rdf-syntax-ns#"
   xmlns:svg="http://www.w3.org/2000/svg"
   xmlns="http://www.w3.org/2000/svg"
   xmlns:sodipodi="http://sodipodi.sourceforge.net/DTD/sodipodi-0.dtd"
   xmlns:inkscape="http://www.inkscape.org/namespaces/inkscape"
   width="500"
   height="200"
   viewBox="0 0 132.29166 52.916668"
   version="1.1"
   id="svg8"
   sodipodi:docname="auto-at4players.svg"
   inkscape:version="0.92.5 (2060ec1f9f, 2020-04-08)">
  <defs
     id="defs2" />
  <sodipodi:namedview
     id="base"
     pagecolor="#ffffff"
     bordercolor="#666666"
     borderopacity="1.0"
     inkscape:pageopacity="0.0"
     inkscape:pageshadow="2"
     inkscape:zoom="1.2952907"
     inkscape:cx="373.02421"
     inkscape:cy="135.6603"
     inkscape:document-units="mm"
     inkscape:current-layer="layer1"
     showgrid="false"
     units="px"
     inkscape:pagecheckerboard="true"
     inkscape:window-width="1366"
     inkscape:window-height="740"
     inkscape:window-x="0"
     inkscape:window-y="0"
     inkscape:window-maximized="1" />
  <metadata
     id="metadata5">
    <rdf:RDF>
      <cc:Work
         rdf:about="">
        <dc:format>image/svg+xml</dc:format>
        <dc:type
           rdf:resource="http://purl.org/dc/dcmitype/StillImage" />
        <dc:title />
      </cc:Work>
    </rdf:RDF>
  </metadata>
  <g
     inkscape:label="Layer 1"
     inkscape:groupmode="layer"
     id="layer1"
     transform="translate(0,-244.08332)">
    <flowRoot
       xml:space="preserve"
       id="flowRoot10"
       style="fill:black;stroke:none;stroke-opacity:1;stroke-width:1px;stroke-linejoin:miter;stroke-linecap:butt;fill-opacity:1;font-family:Dymo;font-style:normal;font-weight:normal;font-size:40px;line-height:125%;letter-spacing:0px;word-spacing:0px;-inkscape-font-specification:Dymo;font-stretch:normal;font-variant:normal;"><flowRegion
         id="flowRegion12"
         style="-inkscape-font-specification:Dymo;font-family:Dymo;font-weight:normal;font-style:normal;font-stretch:normal;font-variant:normal;"><rect
           id="rect14"
           width="69.224487"
           height="121.46939"
           x="12.408163"
           y="37.387756"
           style="-inkscape-font-specification:Dymo;font-family:Dymo;font-weight:normal;font-style:normal;font-stretch:normal;font-variant:normal;" /></flowRegion><flowPara
         id="flowPara16" /></flowRoot>    <path
       inkscape:connector-curvature="0"
       id="path485"
       style="font-style:normal;font-variant:normal;font-weight:normal;font-stretch:normal;font-size:38.66601562px;line-height:125%;font-family:Dymo;-inkscape-font-specification:Dymo;letter-spacing:0px;word-spacing:0px;fill:#00ff00;fill-opacity:1;stroke:none;stroke-width:0.40277109px;stroke-linecap:butt;stroke-linejoin:miter;stroke-opacity:1;image-rendering:auto"
       d="m 17.190956,261.58459 2.216726,25.37735 -15.395226,0.99643 -2.2167265,-25.37736 z m -3.428707,18.77903 q 0.820558,-0.0531 0.747442,-0.89014 -0.01994,-0.22827 -0.167074,-0.56312 -0.108059,-0.33736 -0.124676,-0.52759 -0.08973,-1.02728 0.808973,-1.08545 0.46889,-0.0303 0.432333,-0.44885 -0.0565,-0.6468 -0.564462,-0.61392 -0.07815,0.005 -0.231119,0.0532 -0.195371,0.0126 -0.273519,0.0177 -0.351668,0.0228 -0.388225,-0.39575 l -0.545849,-6.6988 q 0.180463,-1.08302 0.193756,-0.93084 -0.06647,-0.76094 -1.590361,-0.66231 -0.156297,0.0101 -1.096594,0.49186 l 0.02326,0.26633 -1.0035366,1.55718 -4.6110404,5.69339 q -0.107252,0.12173 -0.1006054,0.19782 0,0 0.1371634,0.2207 0.1371634,0.2207 0.1670739,0.56312 0.023264,0.26633 -0.194564,0.47174 -0.1787537,0.20288 -0.1588128,0.43116 0.056498,0.6468 0.7207589,0.60381 0.3125933,-0.0202 0.4165224,-0.18001 0.1006053,-0.19782 0.2178278,-0.20541 l 5.8320228,-0.26268 q 0.742409,-0.048 0.868699,1.39773 0.03323,0.38047 -0.148842,0.54531 -0.143003,0.1623 -0.123062,0.39059 0.05317,0.60874 0.756509,0.56322 z m -2.118595,-10.30843 q -0.06324,1.07543 -0.0059,2.18132 0.03071,0.80152 0.178663,1.59545 0.11884,0.9106 0.112193,0.83451 0.08973,1.02726 -0.652677,1.07531 l -2.504074,0.12378 q -0.1953708,0.0126 -0.1854013,0.12678 0.00997,0.11414 0.127193,0.10655 l 2.5564383,0.0258 q 1.061648,0.008 1.020963,-0.90784 l -0.268296,-4.42104 q -0.03404,-0.83956 -0.366575,-1.04762 -0.335857,-0.24609 -0.332533,-0.20804 -0.01662,-0.19024 0.305139,-0.55543 0.321757,-0.36518 0.63435,-0.38541 0.273519,-0.0177 0.317531,0.936 l 0.287332,5.98855 q 0.01994,0.22829 -0.123062,0.39059 -0.143002,0.16231 -0.09728,0.23587 0.04905,0.11162 0.166267,0.10403 0.07815,-0.005 0.2278,-0.0912 0.146327,-0.12426 0.185401,-0.12679 0.08147,0.033 0.08479,0.071 0.111381,0.37541 -0.20121,0.39564 l -2.227229,0.14416 -0.32921,-0.17001 -3.1359046,0.0882 q -0.2735191,0.0177 -0.4098749,0.25611 -0.1396795,0.20035 -0.256903,0.20793 -0.4298158,0.0278 -0.4663738,-0.3907 -0.033234,-0.38047 0.2851989,-0.7837 0.2502564,-0.28403 0.5362621,-0.60864 l 3.8503033,-4.95544 q 0.276845,0.0204 0.686718,-0.23576 z m 2.736901,-1.05717 q -0.02991,-0.34242 -0.225281,-0.32978 -0.273519,0.0177 -0.253578,0.24599 -0.0989,-0.68232 0.459439,5.70958 0.10635,1.2175 0.02407,0.72542 0.07231,0.37794 0.384902,0.35771 0.195371,-0.0126 0.01258,-2.10523 -0.331536,-3.34561 -0.402135,-4.60369 z m -8.7888441,9.5987 q 0.013294,0.15219 0.9153228,0.13207 2.5888662,-0.0528 5.2168063,-0.10807 0.394069,0.0128 0.408167,0.62403 0.01077,0.57324 0.167074,0.56312 0.507964,-0.0329 0.424878,-0.98405 -0.01994,-0.22829 -0.27765,-0.47944 -0.218634,-0.25368 -0.414005,-0.24104 -0.976855,0.0632 -5.1644366,0.25777 -1.2894473,0.0835 -1.276154,0.23564 z M 4.7637,278.11464 q 0.1953708,-0.0126 0.1687832,-0.31702 -0.1645557,-0.98417 -0.161232,-0.94612 -0.066469,-0.76094 0.1247717,-1.27072 0.1879174,-0.54783 0.1912403,-0.50979 -0.023264,-0.26633 -0.2577088,-0.25115 -0.6251866,0.0405 -0.4556915,1.98086 0.11632,1.33165 0.3898391,1.31394 z m 4.7498165,-4.55451 q 1.8947895,-2.15053 1.6079765,-2.28502 -0.0424,-0.0356 -0.120549,-0.0305 -0.273519,0.0177 -1.8299339,1.99329 l -1.1664817,1.49119 q -0.6335426,0.84452 -0.6102788,1.11084 0.00664,0.0761 0.1305159,0.1446 0.1238665,0.0685 0.8970921,-0.97635 1.0201547,-1.36694 1.0916563,-1.44809 z m -4.0013769,0.52681 q 0.045722,0.0735 0.1238666,0.0685 0.1562966,-0.0101 0.5819827,-0.53506 0.5686887,-0.68727 0.6792645,-0.77095 0.1105784,-0.0836 0.097282,-0.23587 -0.016617,-0.19023 -0.2119879,-0.17759 -0.1562967,0.0101 -0.2635496,0.13184 -1.1864217,1.26292 -1.0068613,1.51913 z m 4.386565,-5.56408 q 0.1695914,0.14207 0.5628484,-0.30427 0.28933,-0.28656 0.123063,-0.39058 -0.208665,-0.13954 -0.423172,0.10388 -0.432332,0.44887 -0.2627419,0.59094 z m 5.1713194,11.06741 q 0.234445,-0.0152 0.21118,-0.28151 -0.01,-0.11413 -0.02659,-0.30437 -0.05569,-0.18771 -0.06566,-0.30185 -0.02326,-0.26633 0.168783,-0.31702 0.846338,-0.20783 0.78984,-0.85463 -0.01329,-0.15218 -0.179561,-0.25621 -0.0424,-0.0356 -0.32508,0.32714 -0.286006,0.32461 -0.865472,0.43863 -0.231118,0.0533 -0.04743,0.80658 0.183691,0.75336 0.339988,0.74324 z" />
    <path
       inkscape:connector-curvature="0"
       id="path487"
       style="font-style:normal;font-variant:normal;font-weight:normal;font-stretch:normal;font-size:38.66601562px;line-height:125%;font-family:Dymo;-inkscape-font-specification:Dymo;letter-spacing:0px;word-spacing:0px;fill:#ffffff;fill-opacity:1;stroke:none;stroke-width:0.40277109px;stroke-linecap:butt;stroke-linejoin:miter;stroke-opacity:1;image-rendering:auto"
       d="m 22.661307,261.23053 2.216727,25.37736 -6.017423,0.38946 L 16.643884,261.62 Z m -2.315495,18.47742 q 0.225281,0.32977 0.850468,0.28931 0.351668,-0.0228 0.60857,-0.2307 0.295976,-0.21047 0.211181,-0.2815 -0.08479,-0.071 -0.227801,0.0912 -0.260225,0.1699 -0.611893,0.19266 -0.46889,0.0303 -0.808071,-0.2538 -0.342505,-0.32219 -0.375739,-0.70266 -0.03656,-0.41851 0.132226,-0.73554 0.13968,-0.20035 0.09728,-0.23587 -0.127193,-0.10656 -0.331727,0.25105 -0.204534,0.35759 -0.16133,0.8522 0.07644,0.87509 0.616831,0.76359 z m 0.924486,-0.21289 q 0.859632,-0.0556 0.759929,-1.19705 -0.07312,-0.83703 -0.971821,-0.77886 -0.27352,0.0177 -0.556203,0.38035 -0.282682,0.36266 -0.246124,0.78118 0.07644,0.87507 1.014219,0.81438 z m 0.956914,-0.2915 q 0.123867,0.0685 0.214504,-0.24346 0.129709,-0.3145 0.103123,-0.61886 -0.04985,-0.57072 -0.434754,-0.92843 -0.335858,-0.24609 -0.609377,-0.22839 -0.07815,0.005 -0.113896,0.0457 0,0 0.417329,0.27908 0.45308,0.23851 0.509578,0.88531 0.02991,0.34243 -0.06737,0.57829 -0.100605,0.19782 -0.01913,0.23082 z" />
    <path
       inkscape:connector-curvature="0"
       id="path489"
       style="font-style:normal;font-variant:normal;font-weight:normal;font-stretch:normal;font-size:38.66601562px;line-height:125%;font-family:Dymo;-inkscape-font-specification:Dymo;letter-spacing:0px;word-spacing:0px;fill:#ffffff;fill-opacity:1;stroke:none;stroke-width:0.40277109px;stroke-linecap:butt;stroke-linejoin:miter;stroke-opacity:1;image-rendering:auto"
       d="m 22.114245,261.26594 15.395226,-0.99643 2.216727,25.37736 -15.395226,0.99642 z m 10.436649,5.21687 -4.806124,0.31106 q -1.992783,0.12898 -1.962872,0.47141 0.02659,0.30437 0.114706,0.41345 0.08479,0.071 0.09809,0.22323 0.122966,1.40774 0.360639,3.22894 0.23435,1.78315 0.250967,1.97338 0.335666,3.84275 0.154301,6.26501 -0.04743,0.80657 1.007572,0.73829 0.351668,-0.0228 0.318433,-0.40323 l -0.381387,-3.91631 q -0.142907,-1.63603 0.521354,-1.67902 0.117222,-0.008 0.354994,0.0153 0.237771,0.0229 0.394068,0.0128 4.337234,-0.28072 5.186895,-0.4505 1.816547,-0.34714 1.487527,-4.1138 -0.119644,-1.36969 -0.860344,-2.20178 -0.832142,-0.97922 -2.238812,-0.88818 z m -4.332297,1.23695 4.535931,-0.25529 q 1.758338,-0.1138 1.947773,2.05488 0.149554,1.71211 0.06557,2.10017 -0.18711,1.00693 -1.346041,1.23498 -1.276154,0.23565 -5.385593,0.42507 -0.396582,0.40828 -0.700009,0.0836 l -0.196889,-2.70387 q -0.173625,-2.43754 -0.112094,-2.63283 0.09728,-0.23587 1.191359,-0.30668 z m 5.688638,7.09293 q 2.982124,-0.49911 2.58996,-4.98866 -0.139584,-1.59797 -0.619251,-2.14086 -0.04572,-0.0735 -0.205342,-0.10149 -0.120548,-0.0305 -0.110578,0.0836 0.0066,0.0761 0.09476,0.18517 0.352474,0.43633 0.44553,1.50165 0.162847,1.8643 0.03062,2.59984 -0.241994,1.27832 -1.43587,2.00604 -0.894575,0.55531 -6.18953,0.66844 -0.156297,0.0101 -0.224475,0.12932 -0.0291,0.11667 0.01994,0.22828 0.09144,0.14713 0.247739,0.13701 2.879002,0.11976 5.356488,-0.30839 z m -8.645789,-7.20764 q -0.234445,0.0152 -0.05166,2.10777 0.1562,1.78821 0.540816,7.5409 0.09386,1.52441 0.406456,1.50417 0.117223,-0.008 0.103122,-0.61887 -0.0041,-0.49714 -0.190242,-2.62776 -0.374741,-3.84023 -0.564176,-6.0089 -0.166172,-1.90236 -0.244321,-1.89731 z m 8.591902,4.34146 q 0.399099,-0.82933 0.302719,-1.9327 -0.112996,-1.29359 -0.654195,-1.64118 -0.834658,-0.55818 -5.034729,-0.0568 -0.582786,0.076 -0.576142,0.15208 0.02659,0.30437 0.896189,0.36287 1.715938,-0.14936 4.578323,-0.21983 0.349151,0.39828 0.406456,1.50418 0.0997,1.14141 -0.159716,1.77038 -0.06485,0.15726 0.05569,0.18771 0.120549,0.0305 0.185401,-0.12679 z m -3.663002,0.35187 q -1.875561,0.12139 -1.858943,0.31163 0.01,0.11414 1.885531,-0.007 1.87556,-0.12139 1.86559,-0.23554 -0.01662,-0.19023 -1.892178,-0.0688 z m -2.685956,-3.308 0.147037,2.13315 q 0.08479,0.071 0.169591,0.14208 0.156297,-0.0101 0.133032,-0.27645 0.09738,-2.03419 -0.44966,-1.99878 z m 0.831855,6.37419 q -0.351668,0.0228 -0.04088,2.681 0.06234,0.26379 0.218634,0.25368 0.113896,-0.0457 0.133033,-0.27644 -0.05066,-1.02981 -0.09799,-2.02156 -0.0565,-0.64679 -0.212795,-0.63668 z" />
    <path
       inkscape:connector-curvature="0"
       id="path491"
       style="font-style:normal;font-variant:normal;font-weight:normal;font-stretch:normal;font-size:38.66601562px;line-height:125%;font-family:Dymo;-inkscape-font-specification:Dymo;letter-spacing:0px;word-spacing:0px;fill:#ffffff;fill-opacity:1;stroke:none;stroke-width:0.40277109px;stroke-linecap:butt;stroke-linejoin:miter;stroke-opacity:1;image-rendering:auto"
       d="m 36.962399,260.30492 14.223001,-0.92056 2.216726,25.37736 -14.223001,0.92056 z m 5.823379,5.93634 q -0.06979,-0.79899 -1.163869,-0.72818 -0.820558,0.0531 -0.330113,1.16923 0.196179,0.44646 0.183691,0.75335 0.02074,0.68738 0.04401,0.95371 l 0.717956,6.41983 q 0.09306,1.06532 0.14371,2.09511 0.112194,0.83451 0.694979,0.75853 0.234445,-0.0152 1.2537,-0.0429 1.409997,-0.053 3.246484,-0.17182 1.875559,-0.12139 2.357744,4.4e-4 0.47886,0.0838 0.361638,0.0914 0.46889,-0.0303 0.395774,-0.86738 -0.04985,-0.5707 -0.596889,-0.5353 -1.683517,0.0707 -2.93389,0.1516 -2.031857,0.13151 -2.878196,0.33934 -0.849661,0.16978 -1.005957,0.1799 -0.46889,0.0303 -0.15791,-0.90808 0.04241,0.0355 0.08147,0.033 0.429816,-0.0278 -0.414335,-9.69176 z m -2.049281,-0.51782 q -0.195371,0.0127 0.306466,5.75774 0.498515,5.70706 0.693886,5.69441 0.156296,-0.0101 -0.342219,-5.71717 -0.119643,-1.36969 -0.28994,-3.76918 -0.112998,-1.2936 -0.181986,-1.63349 -0.06899,-0.33989 -0.186207,-0.33231 z m 3.131391,6.60799 q -0.01329,-0.1522 -0.169591,-0.14208 -0.192044,0.0507 -0.178753,0.20288 l 0.229317,2.62525 q 0.01662,0.19023 0.251062,0.17506 0.231119,-0.0533 0.17543,-0.24093 -0.124674,-0.5276 -0.307463,-2.62019 z m 0.523583,3.29491 q 0.02326,0.26632 1.586232,0.16516 3.360379,-0.21749 3.842564,-0.0956 0.765673,0.21827 0.742409,-0.048 -0.02991,-0.34243 -0.814718,-0.32989 -5.36978,0.15623 -5.356489,0.30839 z m -1.525697,2.77709 q 0.02326,0.26633 0.566979,0.19288 1.513923,-0.21277 1.474849,-0.21024 0.664261,-0.043 1.690159,0.005 1.0259,0.0484 1.338493,0.0282 2.578896,-0.16691 2.558955,-0.3952 -0.01329,-0.15218 -1.029223,-0.0864 -5.171085,0.18163 -5.171085,0.18163 -1.449071,0.0555 -1.429127,0.28381 z" />
    <path
       inkscape:connector-curvature="0"
       id="path493"
       style="font-style:normal;font-variant:normal;font-weight:normal;font-stretch:normal;font-size:38.66601562px;line-height:125%;font-family:Dymo;-inkscape-font-specification:Dymo;letter-spacing:0px;word-spacing:0px;fill:#ffffff;fill-opacity:1;stroke:none;stroke-width:0.40277109px;stroke-linecap:butt;stroke-linejoin:miter;stroke-opacity:1;image-rendering:auto"
       d="m 50.638302,259.41977 16.176709,-1.047 2.216727,25.37736 -16.17671,1.047 z m 10.48066,6.17058 q -0.343311,-0.78128 -1.593685,-0.70035 -1.211299,0.0784 -1.454102,0.89761 -0.947941,3.54321 -3.28945,10.9263 -0.05821,0.23333 -0.04159,0.42357 0.06315,0.7229 0.649258,0.68496 0.507964,-0.0329 0.617732,-0.57565 l 0.413296,-2.01638 q 0.07734,-0.46415 1.171418,-0.53496 l 5.196865,-0.33636 q 0.859632,-0.0556 1.059133,0.42886 l 0.699917,1.71475 q 0.29759,0.70773 0.76648,0.67738 0.859632,-0.0556 0.369188,-1.17176 z m -1.523893,0.0986 q 0.46889,-0.0303 0.746539,0.44909 0.316724,0.47691 0.245223,0.55806 -0.03243,0.0786 -0.110579,0.0837 -0.03908,0.003 -0.257709,-0.25115 -0.17956,-0.25622 -0.296783,-0.24863 -0.312593,0.0202 -0.02497,0.61381 0.09476,0.18518 0.381578,0.31966 0.322564,0.0939 0.417329,0.27909 l 1.840426,3.97493 q 0.06567,0.30184 0.157909,0.90807 0.06234,0.2638 0.257709,0.25115 0.07815,-0.005 0.05821,-0.23334 -0.01994,-0.22827 0.05821,-0.23333 l 0.255999,1.13129 q -5.385592,0.42507 -6.525387,0.42234 0.774125,-2.38409 1.378659,-4.91026 0.371705,-1.5928 0.488927,-1.60039 0.117223,-0.008 0.09476,0.18518 -0.02246,0.19276 0.172914,0.18012 0.156297,-0.0101 0.276036,-0.43875 0.119739,-0.42863 -0.03656,-0.41852 -0.117222,0.008 -0.143003,0.1623 0.01,0.11414 -0.146326,0.12426 -0.07815,0.005 -0.09144,-0.14713 -0.02991,-0.34242 0.1713,-0.73807 0.240284,-0.39817 0.631026,-0.42346 z m -2.573959,1.12314 q -1.473425,4.72509 -2.930233,9.6404 0.03323,0.38047 0.196177,0.44645 0.202015,0.0634 0.182078,-0.16483 0.01581,-0.26885 0.08983,-0.77105 2.011396,-6.21387 2.823788,-9.05958 0.11974,-0.42863 -0.114703,-0.41346 -0.156297,0.0101 -0.246933,0.32207 z m 6.013198,0.91173 q -0.10141,-0.26127 -0.290136,-0.17253 -0.192045,0.0507 -0.09063,0.31196 0.202824,0.52254 3.148815,7.25731 0,0 0.314207,0.89795 0.150457,0.37288 0.306754,0.36277 0.351668,-0.0228 -0.0083,-0.99428 -1.418965,-3.1987 -3.380744,-7.66318 z m -5.829081,7.49403 q -0.195371,0.0127 -0.48057,0.79635 -0.249449,0.74312 -0.216215,1.12359 0.01,0.11414 0.05237,0.14966 0.202016,0.0634 0.487218,-0.72025 0.256095,-0.66703 0.597792,-0.80394 0.227801,-0.0912 1.829842,-0.19492 2.344451,-0.15174 3.327949,-0.1389 0.31592,0.0179 0.41149,0.66208 0.134644,0.64174 0.486314,0.61898 0.312593,-0.0202 0.128902,-0.77358 -0.177045,-0.67726 -0.43143,-0.89038 -0.215311,-0.21563 -0.95772,-0.16758 z m 2.993283,-7.11918 1.462171,3.69331 q 0.0033,0.0381 0.124675,0.52761 0.06234,0.26379 0.218634,0.25368 0.156297,-0.0101 0.05156,-0.30944 -0.140486,-0.25874 -0.06234,-0.2638 0.390741,-0.0253 0.162136,-0.39311 -0.261032,-0.28921 -0.849566,-1.62855 -0.588534,-1.33934 -0.716533,-1.90499 -0.06567,-0.30185 -0.261033,-0.2892 -0.234445,0.0152 -0.129709,0.31449 z m -0.839691,0.28392 q 0.123062,-0.39059 -0.189531,-0.37036 -0.117223,0.008 -0.17543,0.24093 -1.042708,3.35803 -0.999503,3.85265 0.01,0.11413 0.09144,0.14712 0.159623,0.028 0.6419,-1.64855 0.33676,-1.09314 0.631122,-2.22179 z m 1.586846,4.22091 q -1.481492,0.13418 -1.458231,0.40048 0.01,0.11414 2.002754,-0.0148 0.195371,-0.0126 0.182078,-0.16483 -0.02659,-0.30437 -0.726601,-0.22081 z m -3.152139,-7.29536 q -0.156297,0.0101 -0.253579,0.24599 -0.09396,0.27391 0.06234,0.2638 0.156297,-0.0101 0.250256,-0.28403 0.09728,-0.23588 -0.05902,-0.22576 z m 3.814267,0.48011 0.578563,1.22521 q 0.09476,0.18518 0.325887,0.13195 0.192044,-0.0507 0.09396,-0.27391 l -0.529518,-1.11359 q -0.09809,-0.22323 -0.332534,-0.20806 -0.231119,0.0533 -0.136356,0.2384 z" />
    <path
       inkscape:connector-curvature="0"
       id="path495"
       style="font-style:normal;font-variant:normal;font-weight:normal;font-stretch:normal;font-size:38.66601562px;line-height:125%;font-family:Dymo;-inkscape-font-specification:Dymo;letter-spacing:0px;word-spacing:0px;fill:#ffffff;fill-opacity:1;stroke:none;stroke-width:0.40277109px;stroke-linecap:butt;stroke-linejoin:miter;stroke-opacity:1;image-rendering:auto"
       d="m 66.267959,258.40818 15.199855,-0.98378 2.216726,25.37735 -15.199855,0.98378 z m 3.877932,7.05707 4.212981,6.84407 0.781483,-0.0506 q 0.117223,-0.008 0.130517,0.1446 0.01329,0.15219 -0.143004,0.1623 l -0.657616,0.11906 0.268395,2.62272 q 0.02659,0.30438 -0.126386,0.35253 -0.113896,0.0457 -0.09728,0.23588 0.08309,0.95117 0.747347,0.90818 0.703335,-0.0455 0.560427,-1.68155 -0.03323,-0.38047 -0.145428,-1.21497 -0.102223,-0.72037 -0.12881,-1.02474 -0.03656,-0.41852 1.546541,-3.88805 1.741913,-3.90068 1.83587,-4.17461 0.02911,-0.11666 0.279359,-0.4007 0.250256,-0.28403 0.220345,-0.62645 -0.08228,-0.49208 -0.824688,-0.44403 -0.625186,0.0405 -0.66013,0.54013 -0.118932,0.88773 -0.183787,1.04497 -0.616119,1.49384 -1.235562,2.94963 -0.917935,2.08731 -1.376855,2.2318 -0.113896,0.0457 -0.136357,0.23839 -0.02246,0.19276 0.09476,0.18518 0.195371,-0.0127 0.429816,-0.0278 0.08147,0.033 0.02327,0.26633 -0.02579,0.15472 -0.185402,0.12678 -0.162941,-0.0659 -0.234445,0.0152 -0.03575,0.0406 0.08228,0.49208 0.11138,0.37541 -0.162137,0.39312 -0.07815,0.005 -0.06234,-0.2638 0.01582,-0.26886 -0.07231,-0.37794 l -4.023438,-6.4737 q -0.186207,-0.3323 -0.41149,-0.66209 -0.133839,-0.18264 -0.524581,-0.15735 -0.312594,0.0202 -0.5986,0.34484 -0.289329,0.28656 -0.226991,0.55036 0.01662,0.19023 0.46305,0.35265 0.446435,0.16242 0.5412,0.3476 z m -0.849663,0.16977 q -0.231119,0.0533 -0.0025,0.42105 l 4.307748,7.02926 0.285815,3.27204 q 0.01329,0.15219 0.16959,0.14207 0.156297,-0.0101 0.143003,-0.1623 l -0.147938,-0.79393 q 0.184593,-0.58588 -0.04643,-2.33099 -0.01662,-0.19024 -0.182884,-0.29426 -0.166266,-0.10402 -0.192854,-0.4084 -0.02991,-0.34243 -2.084034,-3.6148 -2.018373,-3.31295 -2.249495,-3.25974 z m 7.21234,10.59095 q 0.195371,-0.0127 0.06243,-1.53453 -0.110476,-1.71464 -0.04562,-1.87188 0.123062,-0.39059 1.897401,-4.3699 1.60888,-3.62425 1.562352,-4.15691 -0.01,-0.11414 -0.08812,-0.10909 -0.156297,0.0101 -0.197887,0.4337 -0.04159,0.42358 -0.379965,0.59852 -3.140417,6.78434 -3.109698,7.58586 0.181885,3.43182 0.299108,3.42423 z m -1.468627,-7.36606 q 0.162941,0.0659 1.230529,-2.10753 0.902125,-1.81845 0.888831,-1.97064 v 0 q -0.0066,-0.0761 -0.04572,-0.0735 -0.123867,-0.0685 -1.119953,2.02385 -0.999407,2.05432 -0.999407,2.05432 0.0033,0.0381 0.04572,0.0735 z m -3.681042,-4.3532 q -0.03575,0.0406 -0.02911,0.11666 -0.01,-0.11413 0.790551,1.4028 0.983407,1.8112 1.168807,1.68441 0.07482,-0.0431 0.06818,-0.1192 -0.01,-0.11414 -0.934361,-1.69958 -0.365769,-0.58852 -0.692463,-1.17957 -0.182884,-0.29427 -0.371608,-0.20552 z" />
    <path
       inkscape:connector-curvature="0"
       id="path497"
       style="font-style:normal;font-variant:normal;font-weight:normal;font-stretch:normal;font-size:38.66601562px;line-height:125%;font-family:Dymo;-inkscape-font-specification:Dymo;letter-spacing:0px;word-spacing:0px;fill:#ffffff;fill-opacity:1;stroke:none;stroke-width:0.40277109px;stroke-linecap:butt;stroke-linejoin:miter;stroke-opacity:1;image-rendering:auto"
       d="m 80.920703,257.45981 15.785967,-1.02172 2.216727,25.37736 -15.785968,1.02171 z m 13.55342,5.3595 q -0.04653,-0.53266 -0.990957,-0.54806 0.195372,-0.0126 -1.406669,0.091 -3.868344,0.25037 -5.815408,0.45288 -1.364271,0.1266 -1.321069,0.62118 0.01329,0.15218 0.221958,0.29172 0.247739,0.13702 0.280973,0.51749 l 0.789269,9.93533 q -0.653484,0.61623 -0.643513,0.73037 0.04572,0.0735 0.123866,0.0685 0.475534,0.0457 0.619347,0.34253 0.14381,0.29679 0.182884,0.29426 0.117223,-0.008 0.136356,-0.2384 0.05821,-0.23333 0.123062,-0.39059 l 7.192976,-0.42725 q 0.46889,-0.0303 0.765674,0.21828 0.29346,0.21058 0.371608,0.20552 0.586112,-0.0379 0.509673,-0.91302 -0.0432,-0.49461 -0.746539,-0.44909 -7.267797,0.4704 -7.267797,0.4704 -0.387416,0.0634 -0.596084,-0.0762 -0.172914,-0.18012 -0.111381,-0.37541 0.09396,-0.27392 0.02004,-1.57005 -0.06395,-1.18198 0.101508,-1.53706 0.03575,-0.0406 0.02911,-0.11666 -0.0033,-0.0381 -0.251062,-0.17506 -0.208666,-0.13955 -0.23193,-0.40588 -0.04653,-0.53265 0.38329,-0.56047 0.19537,-0.0126 0.286812,0.13448 0.09144,0.14713 0.16959,0.14207 0.117223,-0.008 0.266875,-0.0938 0.188727,-0.0887 0.345023,-0.0988 l 3.360379,-0.21749 q 1.758339,-0.11381 1.641116,-0.10622 0.582786,-0.076 0.536261,-0.60864 -0.03988,-0.45656 -1.602847,-0.3554 -0.234445,0.0152 -2.100036,0.2507 -1.865591,0.23553 -2.920593,0.30382 -0.429817,0.0278 -0.469698,-0.42875 -0.0066,-0.0761 -8.03e-4,-0.45909 0.04491,-0.38553 -0.0282,-1.22256 -0.02991,-0.34243 -0.223574,-1.20992 -0.157908,-0.90807 -0.171201,-1.06025 -0.05317,-0.60876 0.337567,-0.63405 0.234445,-0.0152 0.443109,0.12437 0.205342,0.10149 0.322564,0.0939 0.195371,-0.0126 0.494671,-0.18507 l 5.743904,-0.37176 q 0.117222,-0.008 0.550365,0.003 0.31592,0.0179 0.429816,-0.0278 0.146326,-0.12426 0.11974,-0.42863 z m -0.574816,6.46524 q -0.0066,-0.0761 -0.387416,0.0634 -0.530421,0.22564 -0.882088,0.2484 l -4.259086,0.27566 q -0.273519,0.0177 -0.319237,-0.0558 -0.04905,-0.11161 -0.166267,-0.10402 -0.07815,0.005 -0.136356,0.2384 -0.06153,0.19529 -0.217828,0.20541 -0.117222,0.008 -0.280163,-0.0584 0.0041,0.49714 0.0049,0.95623 0.227701,1.70706 0.227701,1.70706 0.01662,0.19023 0.176236,0.21816 0.198698,0.0254 0.175431,-0.24092 l -0.157004,-2.24731 q 0.419846,-0.14195 1.474848,-0.21024 0.703336,-0.0455 1.878887,-0.0833 1.214627,-0.0403 1.331849,-0.0479 1.602041,-0.10369 1.535572,-0.86463 z m -9.448115,-6.0461 q -0.195371,0.0127 0.306467,5.75775 0.501838,5.7451 0.697209,5.73245 0.156296,-0.0101 0.08318,-0.84716 0.06647,0.76095 -0.428721,-4.90806 -0.119644,-1.36969 -0.289942,-3.76918 -0.112996,-1.2936 -0.181986,-1.6335 -0.06899,-0.33989 -0.186207,-0.3323 z m 2.194131,12.52275 q 0.01994,0.22828 0.563657,0.15483 1.240402,-0.19507 1.435773,-0.20772 0.547039,-0.0354 1.810707,0.0359 1.302741,0.0687 2.279596,0.005 2.539821,-0.16438 2.516557,-0.43071 -0.02326,-0.26633 -7.219559,0.12292 -1.406671,0.091 -1.386731,0.31932 z m 0.931707,-10.92675 5.630008,-0.32609 q 1.172226,-0.0759 1.672737,-0.64393 0.321756,-0.36519 -0.108058,-0.33737 0,0 -0.331727,0.25104 -0.295976,0.21047 -1.19136,0.30668 0.256902,-0.20794 -0.01662,-0.19024 l -5.789622,0.29823 q -0.351667,0.0228 -0.318433,0.40323 0.02326,0.26633 0.453079,0.23851 z m 0.926526,8.35771 q -0.312593,0.0202 -0.2993,0.17241 0.01662,0.19024 0.368285,0.16748 0.742409,-0.0481 2.962993,-0.26827 2.220584,-0.22021 2.337806,-0.2278 0.46889,-0.0303 1.107371,0.0814 0.319238,0.0558 0.302623,-0.13437 -0.02326,-0.26633 -0.804747,-0.21575 z m -0.853505,-5.72234 q -0.234445,0.0152 -0.217828,0.20541 0.02326,0.26632 0.534552,0.2715 1.015928,-0.0658 1.992783,-0.12898 2.855741,-0.14654 2.82915,-0.45095 -0.04241,-0.0356 -0.276846,-0.0204 l -4.135219,0.34413 q -0.351667,0.0228 -0.517934,-0.0813 -0.16959,-0.14207 -0.208664,-0.13954 z m -0.449661,-1.99879 q -0.02659,-0.30438 -0.14381,-0.29679 -0.234445,0.0152 -0.197887,0.43369 0.103025,1.17945 0.29588,1.58786 0.120549,0.0305 0.224475,-0.12932 z" />
    <path
       inkscape:connector-curvature="0"
       id="path499"
       style="font-style:normal;font-variant:normal;font-weight:normal;font-stretch:normal;font-size:38.66601562px;line-height:125%;font-family:Dymo;-inkscape-font-specification:Dymo;letter-spacing:0px;word-spacing:0px;fill:#ffffff;fill-opacity:1;stroke:none;stroke-width:0.40277109px;stroke-linecap:butt;stroke-linejoin:miter;stroke-opacity:1;image-rendering:auto"
       d="m 96.159605,256.4735 16.215785,-1.04954 2.21673,25.37736 -16.215789,1.04953 z m 10.837365,5.30572 -5.47039,0.35406 q -1.953708,0.12645 -1.972842,0.35726 -0.03494,0.49967 0.238575,0.48196 0.03908,-0.003 0.110578,-0.0837 0.110579,-0.0836 0.152969,-0.0482 0.0424,0.0356 0.0623,0.26379 0.31986,4.11161 0.59884,10.90421 l -0.817234,0.0912 q -0.156297,0.0101 -0.143004,0.1623 0.01662,0.19024 0.172914,0.18012 l 0.628514,-0.002 q 0.0631,0.72288 0.53203,0.69254 0.42982,-0.0278 0.82308,-0.47416 -0.34906,-2.19661 -0.42046,-3.91379 -0.0614,-1.60303 0.17301,-1.6182 0,0 0.35831,0.0533 0.35499,0.0153 0.86296,-0.0176 l 5.19686,-0.33635 q 1.5239,-0.0986 1.65683,1.42325 0.30908,3.53837 -0.0193,3.82746 -0.0748,0.0431 -0.0682,0.1192 0.0166,0.19023 0.30343,0.32471 0.32589,0.13196 0.51461,0.0432 0.5271,-0.26369 0.4989,-1.48625 -0.003,-0.0381 -0.24261,-2.77744 -0.0565,-0.64679 -0.45802,-1.19474 -0.40152,-0.54794 -0.84131,-0.63427 1.04926,-1.48361 0.87977,-3.424 -0.30243,-3.46228 -3.31115,-3.26755 z m -6.17543,1.27972 q 3.40609,-0.14396 6.37241,-0.37414 0.66427,-0.043 1.2678,0.5684 0.60354,0.61139 0.67665,1.44843 0.27917,3.19595 -0.78248,3.18814 -4.20752,-0.0338 -6.29427,0.36909 -0.19204,0.0507 -0.21782,0.20541 0.01,0.11414 -0.0291,0.11667 -0.30927,0.0583 -0.59608,-0.0762 -0.21603,-2.47305 -0.39711,-5.44578 z m 7.50034,3.99122 q 0.52961,-0.68473 0.41662,-1.97832 -0.12629,-1.44579 -0.86286,-1.78074 -0.94192,-0.43645 -5.64663,0.13589 -0.58278,0.076 -0.56949,0.22817 0.0199,0.22829 0.6127,0.26644 0.39407,0.0128 1.2113,-0.0784 0.97353,-0.1013 1.09075,-0.10889 0.35167,-0.0228 0.93778,-0.0607 0.62186,-0.0786 0.81723,-0.0912 1.75834,-0.11381 1.91454,1.6744 0.0964,1.10336 -0.0658,1.49647 -0.0973,0.23587 -0.0482,0.34749 0.0491,0.11161 0.19204,-0.0507 z m -6.88855,-2.38554 q 0.12871,2.82306 0.29499,2.92708 0.16626,0.10403 2.43257,-0.0426 2.30537,-0.14921 2.32783,-0.34197 -0.0133,-0.1522 -1.88886,-0.0308 -2.1524,0.10102 -2.63126,0.0173 0.05,-1.22762 -0.0365,-2.21684 -0.0731,-0.83703 -0.38571,-0.8168 -0.1563,0.0101 -0.11309,0.50473 z m 0.95331,5.06541 0.27765,0.47944 4.71216,-0.0371 q 1.10072,0.005 1.05088,-0.56541 -0.0133,-0.1522 -0.32589,-0.13197 z m -3.148012,-6.79821 q 0.117223,-0.008 0.828432,8.13447 0.21935,2.51111 -0.0151,2.52628 -0.195375,0.0126 -0.49116,-3.37354 -0.634775,-7.26698 -0.322182,-7.28721 z m 2.803792,7.35617 q -0.11309,0.50473 0.0464,2.33098 0.1562,1.78821 0.31914,1.85419 0.31259,-0.0202 0.0667,-2.83572 -0.10967,-1.25554 -0.43224,-1.34945 z m 7.13477,-0.19395 q -0.0266,-0.30438 -0.14381,-0.29679 -0.35167,0.0228 -0.2561,0.66703 0.10555,0.75841 0.17362,2.43754 0.044,0.9537 0.20031,0.94359 0.27352,-0.0177 0.2287,-1.4305 -0.10302,-1.17946 -0.20273,-2.32087 z m 1.64121,-1.90454 q 0.5421,-0.99164 0.39919,-2.62767 -0.0798,-0.91313 -0.2992,-1.6259 -0.0557,-0.18771 -0.14381,-0.29679 -0.0881,-0.10909 -0.12387,-0.0685 -0.0358,0.0406 0.0266,0.30438 0.54523,2.64306 -0.10664,4.17747 -0.1006,0.19782 0.059,0.22575 0.12387,0.0685 0.18873,-0.0887 z m 0.48128,1.46106 q -0.23444,0.0152 -0.11812,1.34682 0.11632,1.33165 0.35076,1.31647 0.0782,-0.005 -0.0382,-1.3367 -0.11632,-1.33164 -0.19447,-1.32659 z" />
    <path
       inkscape:connector-curvature="0"
       id="path501"
       style="font-style:normal;font-variant:normal;font-weight:normal;font-stretch:normal;font-size:38.66601562px;line-height:125%;font-family:Dymo;-inkscape-font-specification:Dymo;letter-spacing:0px;word-spacing:0px;fill:#ffffff;fill-opacity:1;stroke:none;stroke-width:0.40277109px;stroke-linecap:butt;stroke-linejoin:miter;stroke-opacity:1;image-rendering:auto"
       d="m 111.82831,255.45937 16.17671,-1.047 2.21673,25.37735 -16.17671,1.04701 z m 8.91276,5.3155 q -3.39945,0.22002 -4.31316,1.00615 -0.87796,0.74554 -0.67191,3.10445 0.13626,1.55993 1.16629,2.10546 1.02671,0.50748 3.7619,0.33045 2.53982,-0.16439 3.10015,-0.0476 1.6386,0.31482 1.78815,2.02694 0.12297,1.40773 -0.61198,1.99098 -0.84553,0.66692 -3.38536,0.8313 -3.20408,0.20738 -3.80429,-0.36597 -0.21199,-0.17759 -0.6401,-1.02991 -0.32669,-0.59105 -0.71743,-0.56576 -0.85963,0.0556 -0.79981,0.74048 0.0465,0.53267 0.51793,0.0813 0.28681,0.13448 0.58441,0.84221 0.29426,0.66967 1.06326,0.926 1.13728,0.42379 3.71618,0.25687 2.61797,-0.16944 3.70459,-0.77543 1.57465,-0.86716 1.39186,-2.95975 -0.19276,-2.20672 -1.81223,-2.75236 -0.89286,-0.32483 -3.23731,-0.17309 -2.81334,0.18208 -3.17166,0.12878 -1.55712,-0.28184 -1.71997,-2.14614 -0.14291,-1.63602 1.18481,-2.1811 0.60857,-0.23069 2.79672,-0.37232 2.46167,-0.15933 3.43933,0.23654 0.85713,0.36541 0.94686,1.39268 0.0565,0.6468 0.40816,0.62404 0.70334,-0.0455 0.62025,-0.9967 -0.22599,-2.5872 -5.30564,-2.25843 z m -5.16615,1.13788 q -0.29013,-0.17253 -0.65016,0.65428 -0.38913,0.94347 -0.30272,1.93269 0.19608,2.24477 1.12883,3.02617 1.36337,1.21267 5.27079,0.95977 2.2663,-0.14668 2.9929,0.0741 0.56698,0.19288 0.66255,0.83714 0.0923,0.60622 -0.27523,0.89785 -0.3284,0.28909 -0.32508,0.32713 0.007,0.0761 0.20202,0.0634 0.78148,-0.0506 0.66516,-1.38222 -0.12297,-1.40775 -0.8263,-1.36223 -1.40667,0.091 -3.56904,0.078 -2.91143,-0.0411 -3.36784,-0.31769 -1.16054,-0.69014 -1.57203,-1.35221 -0.41149,-0.66209 -0.52449,-1.9557 -0.11964,-1.36968 0.25368,-2.0443 0.23696,-0.43622 0.23696,-0.43622 z m 11.51653,6.3331 q -0.0524,-0.14965 -0.12719,-0.10655 -0.0748,0.0431 -0.0582,0.23334 0.29082,2.42995 -0.40423,3.46975 -1.07504,1.63833 -4.94338,1.8887 -3.16501,0.20485 -4.60572,-0.54367 -0.16627,-0.10402 -0.1987,-0.0254 -0.0715,0.0811 0.0948,0.18517 1.04332,0.69772 2.62623,0.82485 0.83053,0.061 3.01868,-0.0806 1.99278,-0.12898 3.25152,-1.01395 1.77918,-1.22476 1.55983,-3.73586 -0.0665,-0.76094 -0.2136,-1.09578 z m -6.44904,3.09575 q -0.78149,0.0506 -1.70346,-0.15758 -1.04251,-0.23862 -1.27112,-0.60645 -0.0881,-0.10908 -0.16627,-0.10402 -0.0748,0.0431 0.0166,0.19023 0.38239,0.77876 1.61363,0.92865 1.22791,0.11183 1.23788,0.22597 0.007,0.0761 1.64776,-0.0301 1.5239,-0.0986 1.49731,-0.40301 -0.0199,-0.22829 -0.7266,-0.2208 1.41,-0.053 -2.14575,0.17717 z m -1.61838,-5.48152 q 1.76831,3.3e-4 3.49755,0.003 2.0809,-0.0199 3.23812,0.63218 0.12387,0.0685 0.1987,0.0254 0.11058,-0.0836 -0.0133,-0.15219 -1.80316,-1.29899 -6.90194,-0.73941 -0.31259,0.0202 -0.30262,0.13438 0.0457,0.0735 0.28349,0.0964 z m -2.05754,-1.5121 q 0.0997,1.14141 0.60767,1.10854 0.19537,-0.0127 0.17543,-0.24093 -0.01,-0.11415 -0.17624,-0.21817 -0.16959,-0.14207 -0.21612,-0.67473 -0.0631,-0.72289 1.20969,-0.99659 0.57614,-0.15207 2.33448,-0.26588 1.75834,-0.1138 2.49823,0.25919 0.48883,0.19794 0.60686,0.64945 0.11471,0.41345 0.31008,0.4008 0.34502,-0.0988 -0.0507,-1.02979 -0.49376,-1.15416 -3.58062,-0.95437 -2.7352,0.17703 -2.5365,0.20246 -0.47553,-0.0457 -0.45559,0.18255 0.007,0.0761 0.16959,0.14206 0.16294,0.0659 0.16626,0.10403 -0.007,-0.0761 -0.56617,0.26621 -0.55953,0.34231 -0.49638,1.06521 z m -1.47936,6.90641 q -0.049,-0.11161 -0.16294,-0.0659 -0.1139,0.0457 -0.094,0.27393 0.0931,1.06531 0.36658,1.04761 0.1563,-0.0101 0.0183,-0.6899 z" />
  </g>
</svg>
