<?xml version="1.0" encoding="UTF-8" standalone="no"?>
<!-- Created with Inkscape (http://www.inkscape.org/) -->

<svg
   xmlns:dc="http://purl.org/dc/elements/1.1/"
   xmlns:cc="http://creativecommons.org/ns#"
   xmlns:rdf="http://www.w3.org/1999/02/22-rdf-syntax-ns#"
   xmlns:svg="http://www.w3.org/2000/svg"
   xmlns="http://www.w3.org/2000/svg"
   xmlns:sodipodi="http://sodipodi.sourceforge.net/DTD/sodipodi-0.dtd"
   xmlns:inkscape="http://www.inkscape.org/namespaces/inkscape"
   width="400"
   height="150"
   viewBox="0 0 105.83333 39.687501"
   version="1.1"
   id="svg8"
   sodipodi:docname="4players.svg"
   inkscape:version="0.92.5 (2060ec1f9f, 2020-04-08)">
  <defs
     id="defs2" />
  <sodipodi:namedview
     id="base"
     pagecolor="#ffffff"
     bordercolor="#666666"
     borderopacity="1.0"
     inkscape:pageopacity="0.0"
     inkscape:pageshadow="2"
     inkscape:zoom="1.53125"
     inkscape:cx="202.15232"
     inkscape:cy="57.882286"
     inkscape:document-units="mm"
     inkscape:current-layer="layer1"
     showgrid="false"
     units="px"
     inkscape:pagecheckerboard="true"
     inkscape:window-width="1366"
     inkscape:window-height="740"
     inkscape:window-x="0"
     inkscape:window-y="0"
     inkscape:window-maximized="1"
     showguides="true"
     inkscape:guide-bbox="true">
    <sodipodi:guide
       position="14.168707,31.44762"
       orientation="0,1"
       id="guide344"
       inkscape:locked="false" />
    <sodipodi:guide
       position="9.8489793,8.639456"
       orientation="0,1"
       id="guide346"
       inkscape:locked="false" />
  </sodipodi:namedview>
  <metadata
     id="metadata5">
    <rdf:RDF>
      <cc:Work
         rdf:about="">
        <dc:format>image/svg+xml</dc:format>
        <dc:type
           rdf:resource="http://purl.org/dc/dcmitype/StillImage" />
        <dc:title></dc:title>
      </cc:Work>
    </rdf:RDF>
  </metadata>
  <g
     inkscape:label="Layer 1"
     inkscape:groupmode="layer"
     id="layer1"
     transform="translate(0,-257.31248)">
    <g
       aria-label="[4 players]"
       transform="matrix(0.33950123,0,0,0.52732254,12.740155,250.88967)"
       style="font-style:normal;font-weight:normal;font-size:40px;line-height:125%;font-family:sans-serif;letter-spacing:0px;word-spacing:0px;fill:#ffffff;fill-opacity:1;stroke:none;stroke-width:1px;stroke-linecap:butt;stroke-linejoin:miter;stroke-opacity:1"
       id="flowRoot10">
      <path
         d="m 3.6283803,30.74925 q 0.4029465,-0.03838 0.4029465,-0.134316 l 0.6140138,0.07675 1.7461017,-0.01919 h 0.019188 v 2.436867 Q 5.5471734,32.994238 5.5471734,32.821546 l -0.5948259,0.09594 -0.076752,-0.07675 h -0.076752 q -0.09594,0.115128 -0.8826449,0.172692 0.09594,0.575637 0.287819,0.825081 -0.1535034,0.748329 -0.4605103,1.074524 l 0.076752,0.307007 -0.076752,0.230255 0.076752,0.614014 -0.076752,0.07675 0.076752,0.383759 v 0.230255 l -0.076752,1.074524 0.076752,0.07675 v 0.07675 l -0.1535035,0.46051 0.2302552,1.381531 v 0.230255 L 3.7435079,40.66941 v 0.383759 q 0,0.55645 0.2302551,1.381531 l -0.076752,0.230255 0.076752,1.074524 v 0.307007 l -0.3070069,1.228027 q 0.3837587,1.362344 0.3837587,1.842042 -0.2302552,0 -0.2302552,0.307007 l 0.076752,0.46051 -0.076752,0.614014 0.076752,0.07675 -0.076752,0.07675 v 0.07675 q 0,1.381531 0.3070069,2.993317 l -0.3070069,0.844269 0.1535034,0.997773 -0.076752,0.614013 0.1535035,0.460511 v 0.307007 q 0,0.36457 -0.2302552,0.767517 l 0.076752,0.690765 q -0.09594,0 -0.3070069,0.767518 0.09594,0.402946 0.3837586,0.614013 l 0.076752,0.307007 -0.076752,0.537262 0.076752,0.07675 -0.2302552,2.763062 0.076752,0.307007 -0.2302552,0.921021 0.076752,0.844269 -0.076752,0.614014 0.2302552,1.074524 -0.076752,0.652389 0.5756379,0.115128 1.3623431,-0.249443 0.6523897,0.09594 -0.038376,2.129861 -0.076752,0.07675 -0.076752,-0.07675 H 5.9117441 L 4.3191458,68.223279 Q 3.417313,68.184903 2.880051,68.127339 V 67.93546 l -1.3431552,-0.07675 0.2110672,-1.47747 q -0.2110672,0 -0.3070069,-1.151276 l 0.076752,-0.307007 V 64.308941 L 1.747963,63.694927 1.5177079,62.697155 1.5944596,62.4669 Q 1.5177079,61.469127 1.3642044,61.469127 l 0.076752,-0.383758 -0.076752,-0.307007 Q 1.747963,60.356227 1.747963,59.320079 L 1.5944596,59.166575 v -0.07675 L 1.6712113,58.782817 1.5177079,58.47581 1.6712113,57.861796 1.4409561,56.633769 1.747963,56.096507 1.5944596,55.635996 l 0.076752,-0.07675 v -0.07675 L 1.5944596,54.714975 1.8247148,54.02421 Q 1.5177079,53.5637 1.5177079,52.642679 l 0.1535034,-0.690766 q 0,-0.537262 -0.1535034,-0.844269 l 0.076752,-0.844269 V 49.57261 l -0.076752,-0.07675 0.1535034,-0.614014 -0.076752,-0.307006 0.076752,-0.230256 -0.2302552,-0.46051 0.2302552,-1.228028 -0.076752,-1.535034 q 0,-0.997772 0.2302552,-1.611786 Q 1.2874527,42.722519 1.2874527,42.4347 v -0.230256 l 0.3070069,-1.458282 v -1.074524 l -0.1535035,-0.537262 0.1535035,-1.30478 q 0,-0.36457 -0.3837586,-1.151276 0,-0.383758 0.537262,-1.074524 V 35.450293 L 1.5177079,35.220038 v -0.07675 h 0.1535034 v -0.07675 Q 1.3642044,34.759527 1.3642044,34.529272 l 0.076752,-0.614014 -0.076752,-0.07675 Q 1.5944596,33.761755 1.5944596,33.377996 1.5752717,32.22672 1.4409561,32.22672 l 0.2302552,-0.844269 -0.076752,-0.46051 v -0.07675 q 0,-0.230255 0.9977724,-0.307007 v -0.07675 q 0.7099534,0.03838 1.0361483,0.287819 z"
         style="font-style:normal;font-variant:normal;font-weight:normal;font-stretch:normal;font-size:39.29688263px;font-family:'Top Secret';-inkscape-font-specification:'Top Secret';fill:#ffffff"
         id="path501" />
      <path
         d="m 21.012646,35.642172 0.537262,0.191879 0.901833,-0.191879 q 1.419907,0.191879 1.419907,0.537262 -0.537263,0.767517 -0.537263,1.439095 0.422135,0 0.901833,3.031693 l -0.537262,3.031693 h 0.172692 q -0.364571,0.690766 -0.364571,1.957169 v 0.882645 l 0.729141,0.901833 v 2.321739 l -0.191879,2.494431 0.191879,0.537262 -0.36457,1.074525 v 1.055336 q 3.031693,0.230255 3.031693,1.247215 L 26.53877,56.691332 24.946172,56.34595 H 24.40891 l -0.537262,0.537262 q 0.115127,3.741646 0.36457,3.741646 1.592598,0.614014 1.592598,0.882645 v 0.191879 q 0,0.479699 -4.4516,1.055337 L 21.204525,62.582027 H 19.76543 q -0.671577,0.537262 -1.611786,0.537262 h -0.345383 q -4.106217,0 -4.106217,-1.247215 0,-0.844269 2.32174,-1.247216 l 0.537262,-3.568955 -0.364571,-3.396264 0.537262,-1.957169 q 0,-1.266403 -0.345383,-1.957169 l 0.345383,-6.965219 -0.172691,-0.882644 q 0,-0.74833 2.494431,-4.816171 0,-0.594826 1.957169,-1.439095 z m -6.600648,8.212435 q 0.422134,0 0.537262,1.247215 -0.115128,0.863457 -1.784478,3.204385 0,0.959396 -1.611786,1.784477 0,1.323967 -2.6671226,4.278909 v 0.537262 h 0.9018328 l 1.9571688,0.36457 h 1.419907 l 1.439095,-0.36457 0.709953,1.976357 v 0.172691 h -0.191879 l -1.247216,-0.364571 -3.031693,0.19188 -2.3217393,-0.19188 -0.5180741,0.537262 q -2.1490483,-0.287819 -2.1490483,-1.247215 0.6140138,-2.494431 2.1490483,-2.494431 0,-1.381531 2.3025514,-3.204385 l 0.19188,-0.191879 v -0.172691 l -0.19188,-0.709954 q 0.959397,-0.959396 1.976357,-3.933526 1.189652,-0.287819 2.129861,-1.419906 z M 29.282644,32.898298 28.879698,32.763982 q -0.460511,0.307007 -1.381532,0.307007 l -0.690765,-0.153503 q -0.537262,0 -0.844269,0.153503 l -0.844269,-0.07675 h -0.690765 l -0.07675,0.07675 -0.614014,-0.153503 -0.307007,0.07675 -0.230255,-0.07675 -0.46051,0.230255 -1.228028,-0.230255 -1.535034,0.07675 q -0.997773,0 -1.611787,-0.230256 -0.786705,0.537263 -1.074524,0.537263 h -0.230255 l -1.458283,-0.307007 h -1.074524 l -0.537262,0.153503 -1.304779,-0.153503 q -0.364571,0 -1.151276,0.383758 -0.364571,0 -1.074524,-0.537262 H 10.30578 l -0.230255,0.230255 h -0.076752 v -0.153503 h -0.076752 q -0.287819,0.307007 -0.5372621,0.307007 l -0.6140138,-0.07675 -0.076752,0.07675 Q 8.6172424,32.994238 8.2334838,32.994238 7.0822079,33.013426 7.0822079,33.147741 L 6.237939,32.917486 5.7774286,32.994238 h -0.076752 q -0.2302552,0 -0.3070069,-0.997773 H 5.3169183 Q 5.39367,30.691686 6.1611872,30.691686 l 0.6907656,-0.153504 q 0,0.153504 0.2302551,0.153504 l 0.6140138,-0.07675 v 0.07675 q 0.7099535,-0.09594 0.9977724,-0.307007 0.7483293,0.153503 1.0745242,0.46051 l 0.3070067,-0.07675 0.230255,0.07675 0.614014,-0.07675 0.07675,0.07675 0.383758,-0.07675 h 0.230256 l 1.074524,0.07675 0.07675,-0.07675 h 0.07675 l 0.460511,0.153503 1.381531,-0.230255 h 0.230255 l 0.614014,0.153503 h 0.383758 q 0.55645,0 1.381531,-0.230255 l 0.230255,0.07675 1.074525,-0.07675 h 0.307006 l 1.228028,0.307007 q 1.362343,-0.383759 1.842041,-0.383759 0,0.230256 0.307007,0.230256 l 0.460511,-0.07675 0.614013,0.07675 0.07675,-0.07675 0.07675,0.07675 h 0.07675 q 1.400719,0 2.993317,-0.307007 l 0.844269,0.307007 0.997772,-0.153504 0.614014,0.07675 0.249443,-0.07675 z m 0,35.497672 -0.07675,0.01919 q 0,-0.383758 -1.074524,-0.46051 l -1.304779,0.307007 h -0.614014 l -0.690765,-0.07675 h -0.07675 l -0.07675,0.07675 -0.844269,-0.07675 H 24.140279 L 23.910023,68.0314 h -0.230255 l -0.46051,0.153503 -0.230255,-0.153503 q 0,0.153503 -1.611787,0.230255 -0.153503,-0.153504 -0.92102,-0.230255 0,0.153503 -0.690766,0.230255 0,-0.19188 -0.844269,-0.307007 H 18.076892 L 17.53963,68.184903 15.927844,67.877896 15.390582,68.0314 h -0.07675 l -0.07675,-0.07675 -0.537262,0.153503 -1.30478,-0.230255 -0.614014,0.230255 h -0.07675 L 12.62752,68.0314 11.476244,68.184903 10.40172,67.877896 8.8666855,68.184903 7.4084027,68.108151 6.794389,68.184903 q 0,-0.134315 -0.7675173,-0.153503 H 5.4896097 L 5.3361062,67.877896 V 67.724393 L 5.4896097,67.110379 V 66.880124 L 5.3361062,66.649869 v -0.307007 q 0,-0.537262 0.6140138,-0.614014 1.4774707,0.07675 1.6117862,0.230255 h 0.076752 l 0.076752,-0.07675 0.3070069,0.153504 q 0,-0.287819 2.3025515,-0.383759 l 1.30478,0.307007 h 0.307006 l 0.07675,-0.07675 0.07675,0.07675 h 0.153503 l 0.383759,-0.07675 0.46051,0.07675 h 0.307007 l 0.997773,-0.153503 0.844269,0.153503 h 0.767517 l 0.690765,0.230255 1.074524,-0.230255 h 0.07675 l 0.690766,0.07675 1.074524,-0.307007 0.921021,0.230255 h 0.767517 l 0.07675,-0.07675 0.07675,0.07675 h 0.307007 l 0.690766,0.07675 2.302551,-0.230255 0.230256,0.07675 0.230255,-0.07675 0.307007,0.07675 h 0.07675 l 0.07675,-0.07675 0.537262,0.07675 0.921021,-0.153503 1.228027,0.153503 0.921021,-0.249443 z"
         style="font-style:normal;font-variant:normal;font-weight:normal;font-stretch:normal;font-size:39.29688263px;font-family:'Top Secret';-inkscape-font-specification:'Top Secret';fill:#ffffff"
         id="path503" />
      <path
         d="m 48.796768,68.242467 -1.055336,-0.134316 -0.46051,0.07675 -0.383759,-0.07675 -0.07675,0.07675 -2.149048,-0.307007 -1.074524,0.307007 -0.537262,-0.07675 -0.844269,0.153504 -0.46051,-0.230255 -0.07675,0.07675 h -0.07675 l -0.307007,-0.07675 -0.690765,0.230255 -0.230255,-0.230255 -0.383759,0.07675 h -0.767517 l -0.921021,0.07675 -0.153503,-0.153503 -0.153504,0.153503 -0.767517,-0.07675 H 36.53568 l -0.767517,0.383759 -1.228027,-0.307007 -0.07675,0.07675 h -0.07675 L 33.772618,68.0314 h -0.844269 l -0.307007,0.153503 -0.307006,-0.153503 -0.690766,0.07675 -0.07675,-0.07675 -0.614014,0.153503 h -0.230255 l -0.92102,-0.230255 -0.767518,0.153503 -0.307006,-0.07675 -0.172692,0.03838 v -2.072296 l 0.172692,0.03838 0.844268,-0.07675 0.460511,0.153503 h 0.07675 l 0.07675,-0.07675 0.614014,0.153503 q 0,-0.172691 1.304779,-0.46051 0.287819,-0.307007 0.614014,-0.383759 0.55645,0.537262 1.151276,0.537262 l 0.383759,-0.230255 q 0.172691,0.249443 1.151275,0.46051 l 0.921021,-0.230255 0.844269,0.07675 h 0.383759 l 0.46051,-0.230255 q 0.364571,0.230255 0.690766,0.230255 0.652389,0 1.074524,-0.153503 l 1.688538,0.230255 q 0.115127,-0.307007 0.230255,-0.307007 h 0.690765 l 0.07675,-0.07675 0.997772,0.46051 h 0.07675 l 2.149048,-0.537262 0.383759,0.383759 q 0.46051,0 0.614014,0.153503 h 0.230255 l 0.383759,-0.230255 0.07675,0.07675 h 0.153504 q 0.383758,0 0.383758,-0.230255 h 0.230256 v 0.153503 h 0.230255 l 0.230255,-0.230255 q 0.09594,0 0.211067,0.01919 z m -3.415451,-34.998786 -0.211068,0.115127 q -1.362343,-0.07675 -1.842041,-0.230255 h -0.230255 l -0.07675,0.07675 -0.46051,-0.153504 -0.307007,0.230256 H 42.10018 Q 41.850737,32.97505 40.872153,32.97505 l -1.688538,0.153503 -0.07675,-0.07675 h -0.07675 q -0.211067,0.153504 -1.228027,0.307007 l -0.537262,-0.153503 -0.460511,0.07675 q -1.074524,-0.07675 -1.074524,-0.383759 -0.518074,0.46051 -1.228027,0.46051 -1.458283,-0.230255 -2.993318,-0.230255 l -0.614013,0.230255 h -0.230256 q -0.402946,0 -0.690765,-0.230255 l -0.46051,0.153504 -0.460511,-0.230256 -0.383758,0.230256 -0.07675,-0.07675 v -2.494431 l 0.230255,-0.03838 q 0.65239,0.230255 1.381531,0.230255 v -0.07675 l 0.767517,0.307007 1.995545,-0.383758 h 0.537262 l 0.537262,0.07675 q 0,-0.115127 0.307007,-0.230255 l 0.07675,0.07675 h 0.07675 l 0.46051,-0.07675 q 1.76529,0.230255 1.76529,0.383759 h 0.307007 l 0.07675,-0.07675 h 0.07675 q 0.07675,0.230255 0.46051,0.230255 h 0.307007 q 0.287819,-0.211067 1.918793,-0.46051 l 0.844269,0.230255 h 0.230255 l 1.30478,-0.230255 h 0.383758 q 0.287819,0.307007 1.151276,0.307007 0.383759,-0.134316 0.825081,-0.191879 v -0.07675 q 0.153504,0.01919 0.326195,0.05756 0.191879,-0.01919 0.383759,-0.01919 l 0.05756,0.09594 q 0.383758,0.09594 0.786705,0.230256 h 0.383758 q 0.537262,0 2.072297,-0.537263 0.134315,0.05756 0.287819,0.09594 v 2.32174 l -0.134316,0.03838 -0.92102,-0.153504 q -0.460511,0.460511 -0.921021,0.460511 h -0.230255 q -0.249443,0 -0.537262,-0.230256 h -0.07675 q -0.383759,0.115128 -0.709953,0.172692 z"
         style="font-style:normal;font-variant:normal;font-weight:normal;font-stretch:normal;font-size:39.29688263px;font-family:'Top Secret';-inkscape-font-specification:'Top Secret';fill:#ffffff"
         id="path505" />
      <path
         d="m 65.10651,35.622984 q 1.554222,0.402947 2.149048,1.611786 3.914338,1.228028 3.914338,4.259721 l 0.345383,1.439095 -0.172692,0.537262 0.709954,3.377076 q 0,1.189652 -4.278909,4.106217 -3.971902,1.957169 -6.408769,1.957169 0,-0.537262 -0.345383,-0.537262 l 0.518074,-1.074524 -0.345382,-0.709954 q 1.247215,-0.92102 1.957169,-3.741646 V 45.965279 L 62.78477,42.933586 q 1.074524,-0.767517 1.074524,-1.439095 0,-1.66935 -3.031693,-3.914338 v -1.074524 l 0.537262,-0.518074 1.419907,0.345383 q 0.479698,-0.479699 2.32174,-0.709954 z m -15.849231,0.172692 0.172691,0.191879 h 0.172691 l 1.074525,-0.191879 6.600648,0.537262 1.055336,-0.345383 h 0.901833 v 0.172691 l -0.19188,1.074524 q 0.230256,5.698816 0.729142,5.698816 -0.364571,0.402946 -0.364571,2.12986 l -0.172691,0.172692 -0.19188,0.537262 0.19188,1.074524 -0.364571,1.611786 0.364571,0.709953 -0.364571,1.055337 0.537262,0.901832 -0.172691,0.172692 v 0.901833 l 0.172691,0.172691 q -0.364571,1.477471 -0.709953,1.592598 l 1.074524,1.976357 v 0.172691 l -0.191879,4.278909 q 0.422134,0.345383 1.247215,0.345383 l 0.537262,1.439095 h -0.172691 q -2.513619,0.479698 -3.031693,0.882644 l -3.568956,-0.882644 h -1.784477 l -1.247216,0.709953 q -3.204384,-0.326195 -3.204384,-1.074524 0,-0.709954 2.149048,-0.882645 L 51.387139,59.49277 V 58.782817 L 50.849877,56.998339 V 56.461077 L 51.214448,55.04117 50.139923,53.084001 V 52.91131 l 0.537263,-2.68631 -0.364571,-0.709954 0.364571,-1.247215 -0.172692,-0.709954 0.172692,-1.419907 h -0.172692 l 0.172692,-0.172691 V 45.7734 l -0.172692,-1.247216 0.172692,-1.055336 -0.172692,-0.191879 v -0.172692 l 0.345383,-1.419907 v -1.957169 q -0.709954,0 -1.419907,-1.976356 -0.882645,-0.172692 -1.247215,-0.709954 z M 74.393468,68.0314 h -0.05756 l -2.379303,0.383758 -1.151276,-0.307007 -1.228027,0.153504 -0.921021,-0.153504 -0.537262,0.07675 -0.07675,-0.07675 h -0.07675 l -0.307007,0.07675 -0.230255,-0.07675 -0.230255,0.07675 -2.302552,-0.230255 -0.690765,0.07675 H 63.89767 l -0.07675,0.07675 -0.07675,-0.07675 h -0.767518 l -0.92102,0.230255 -1.074525,-0.307007 -0.690765,0.07675 h -0.07675 L 59.139063,67.801144 58.448298,68.0314 H 57.68078 L 56.836511,68.184903 55.838739,68.0314 h -0.307007 l -0.46051,0.07675 -0.383759,-0.07675 H 54.53396 l -0.07675,0.07675 -0.07675,-0.07675 h -0.307007 l -1.304779,0.307006 q -2.302552,-0.09594 -2.302552,-0.383758 l -0.307007,0.153503 -0.07675,-0.07675 h -0.07675 q -0.134316,0.153503 -1.611786,0.230255 -0.614014,-0.07675 -0.614014,-0.614014 v -0.307007 l 0.153503,-0.230255 V 66.880124 L 47.779808,66.26611 v -0.153504 l 0.153503,-0.153503 h 0.537262 q 0.767518,-0.01919 0.767518,-0.153503 l 0.614014,0.07675 1.458282,-0.07675 1.535035,0.307006 1.074524,-0.307006 1.151276,0.153503 0.07675,-0.07675 h 0.07675 l 0.614014,0.230255 1.304779,-0.230255 0.537262,0.153504 0.07675,-0.07675 h 0.07675 l 0.537262,0.153503 1.611786,-0.307006 0.537262,0.230255 h 0.844269 q 0.844269,-0.115128 0.844269,-0.307007 0.690766,0.07675 0.690766,0.230255 0.767517,-0.07675 0.92102,-0.230255 1.611786,0.07675 1.611786,0.230255 l 0.230256,-0.153503 0.46051,0.153503 h 0.230255 L 66.58398,65.8056 h 0.383759 l 0.844269,-0.07675 0.07675,0.07675 h 0.07675 l 0.690766,-0.07675 h 0.614014 l 1.304779,0.307007 q 1.074524,-0.07675 1.074524,-0.460511 l 0.46051,0.153504 0.230256,-0.07675 0.46051,0.153504 0.46051,-0.07675 q 0.786705,0.09594 0.921021,0.230255 h 0.211067 z m 0,-35.094726 -0.805893,0.115127 -0.07675,-0.07675 -0.383758,0.07675 -0.460511,-0.07675 -1.151275,0.153503 q -0.594826,0 -1.381531,-0.230255 h -0.07675 q -0.287819,0.230255 -0.537262,0.230255 h -0.230255 q -0.460511,0 -0.921021,-0.46051 l -0.921021,0.153503 -0.307007,-0.07675 -0.307007,0.07675 H 66.21941 q -0.441323,0.307007 -0.690766,0.307007 l -0.614014,-0.07675 h -0.07675 l -0.07675,0.07675 -0.383759,-0.230255 -0.46051,0.230255 -0.46051,-0.153503 q -0.287819,0.230255 -0.690766,0.230255 H 62.535327 L 61.921313,32.97505 q -1.535034,0 -2.993317,0.230255 -0.709954,0 -1.228028,-0.46051 0,0.307006 -1.074524,0.383758 l -0.46051,-0.07675 -0.537262,0.153504 q -1.016961,-0.153504 -1.228028,-0.307007 h -0.07675 l -0.07675,0.07675 -1.688538,-0.153504 q -0.978585,0 -1.228028,0.307007 h -0.153503 l -0.307007,-0.230255 -0.46051,0.153503 -0.07675,-0.07675 h -0.230255 q -0.479699,0.153503 -1.842042,0.230255 l -0.537262,-0.307007 v -0.07675 l 0.07675,-0.07675 q 0.307007,-0.115128 0.307007,-0.230256 v -0.07675 l -0.230255,-0.230256 0.153503,-0.537262 v -0.07675 q 0,-0.153504 -0.230255,-0.153504 v -0.307007 l 0.307007,-0.537262 q 0.882645,0 1.535034,0.230255 0.882645,0 1.151276,-0.307006 h 0.383759 l 1.304779,0.230255 h 0.230255 l 0.844269,-0.230255 q 1.630974,0.249443 1.918793,0.46051 h 0.307007 q 0.383759,0 0.460511,-0.230255 h 0.07675 l 0.07675,0.07675 h 0.307007 q 0,-0.153503 1.76529,-0.383758 l 0.46051,0.07675 h 0.07675 l 0.07675,-0.07675 q 0.307007,0.115127 0.307007,0.230255 l 0.537262,-0.07675 h 0.537262 l 1.995545,0.383759 0.767517,-0.307007 v 0.07675 q 0.729142,0 1.381531,-0.230255 l 0.767518,0.153503 q 1.458282,0 2.2258,-0.307007 1.535034,0.537262 2.072296,0.537262 h 0.383759 q 0.921021,-0.307007 1.765289,-0.383758 l 0.230256,0.230255 h 0.230255 v -0.153504 h 0.230255 q 0,0.230255 0.383759,0.230255 h 0.153503 l 0.07675,-0.07675 0.383758,0.230255 h 0.230256 q 0.153503,-0.153504 0.614013,-0.153504 l 0.03838,-0.03838 z"
         style="font-style:normal;font-variant:normal;font-weight:normal;font-stretch:normal;font-size:39.29688263px;font-family:'Top Secret';-inkscape-font-specification:'Top Secret';fill:#ffffff"
         id="path507" />
      <path
         d="m 76.734398,35.622984 q 4.029466,0.460511 4.029466,0.690766 l 0.518074,-0.172692 q 0.997772,0.537262 2.091485,0.537262 l 0.36457,-0.36457 h 0.690766 l 1.57341,-0.172692 q 1.228028,0.249443 1.228028,1.76529 l -0.172692,0.518074 h -0.709953 q -1.381531,0 -1.381531,3.664895 v 0.364571 l 0.172691,2.091484 h -0.172691 q 0.518074,0.709954 0.690765,2.801438 0,0.518074 -0.518074,0.518074 l -0.172691,0.191879 v 0.172692 l 0.172691,0.863457 -0.172691,0.537262 0.172691,1.57341 v 1.400719 q 0.03838,0.863457 0.345383,0.863457 l -1.055336,4.202157 0.537262,1.055336 h -0.19188 l 0.709954,2.974129 h -0.518074 q -0.74833,0 -1.76529,0.882645 H 83.02804 q -0.997773,0 -1.918793,-0.709953 h -0.882645 l -1.400719,0.345382 -2.974129,-0.345382 -1.055337,0.172691 -0.345382,-0.518074 v -0.345383 q 0,-0.441322 1.937981,-1.055336 l 0.345382,-1.57341 q 0,-1.285592 -0.537262,-2.283364 0.115128,-1.688538 0.882645,-2.801438 l -0.172691,-0.690766 0.172691,-0.537262 -0.518074,-1.036148 0.345383,-2.974129 q 0,-2.264176 -0.518074,-4.029466 l 0.518074,-0.709953 v -0.172692 l -0.518074,-0.518074 0.172691,-0.172691 v -1.228028 l -0.172691,-1.055336 0.172691,-0.172691 v -0.172692 q 0,-2.283363 -2.283364,-2.283363 l -0.172691,-0.172692 v -0.345382 q 1.400719,-1.573411 2.628746,-1.573411 z M 92.833072,53.46776 q 1.573411,0.422134 1.573411,2.110672 v 1.228028 q -0.882645,0 -0.882645,1.036148 L 94.406483,61.354 v 0.172691 q 0,1.151276 -0.690766,1.57341 l -1.765289,-1.228027 -4.202157,0.345382 q -1.036148,0 -1.036148,-1.036148 v -0.36457 q 0,-0.249444 2.091484,-0.863457 0,-0.709954 0.882645,-1.400719 l 1.228027,-1.228028 0.172692,-0.690765 -0.172692,-0.19188 v -0.172691 l 0.863457,-1.228028 q 0.09594,-1.57341 1.055336,-1.57341 z m 4.355661,-20.742153 q -0.460511,0.268631 -1.323967,0.268631 L 95.174,32.840734 q -0.537262,0 -0.844269,0.153504 l -0.844269,-0.07675 h -0.690765 l -0.07675,0.07675 -0.614014,-0.153504 -0.307007,0.07675 -0.230255,-0.07675 -0.46051,0.230255 -1.228028,-0.230255 -1.535034,0.07675 q -0.997773,0 -1.611787,-0.230255 -0.786705,0.537262 -1.074524,0.537262 h -0.230255 l -1.458283,-0.307007 h -1.074524 l -0.537262,0.153503 -1.304779,-0.153503 q -0.364571,0 -1.151276,0.383759 -0.364571,0 -1.074524,-0.537263 h -0.153504 l -0.230255,0.230256 h -0.07675 v -0.153504 h -0.07675 q -0.287819,0.307007 -0.537262,0.307007 l -0.614014,-0.07675 -0.07675,0.07675 q -0.07675,-0.230255 -0.46051,-0.230255 -1.151276,0.01919 -1.151276,0.153503 l -0.844269,-0.230255 -0.46051,0.07675 h -0.07675 q -0.230255,0 -0.307007,-0.997773 h -0.07675 q 0.07675,-1.304779 0.844269,-1.304779 l 0.690766,-0.153503 q 0,0.153503 0.230255,0.153503 l 0.614014,-0.07675 v 0.07675 q 0.709953,-0.09594 0.997772,-0.307007 0.74833,0.153504 1.074524,0.460511 l 0.307007,-0.07675 0.230255,0.07675 0.614014,-0.07675 0.07675,0.07675 0.383759,-0.07675 h 0.230255 l 1.074524,0.07675 0.07675,-0.07675 h 0.07675 l 0.460511,0.153503 1.381531,-0.230255 h 0.230255 l 0.614014,0.153504 h 0.383758 q 0.55645,0 1.381531,-0.230256 l 0.230255,0.07675 1.074525,-0.07675 h 0.307007 l 1.228027,0.307007 q 1.362343,-0.383758 1.842041,-0.383758 0,0.230255 0.307007,0.230255 l 0.460511,-0.07675 0.614014,0.07675 0.07675,-0.07675 0.07675,0.07675 h 0.07675 q 1.400719,0 2.993317,-0.307007 l 0.844269,0.307007 0.997772,-0.153504 0.402947,0.05756 z m 0,35.344168 q -0.268631,-0.07675 -0.709954,-0.115127 L 95.174,68.261655 h -0.614014 l -0.690765,-0.07675 h -0.07675 l -0.07675,0.07675 -0.844269,-0.07675 H 92.48769 L 92.257435,68.0314 h -0.230256 l -0.46051,0.153503 -0.230255,-0.153503 q 0,0.153503 -1.611786,0.230255 -0.153504,-0.153504 -0.921021,-0.230255 0,0.153503 -0.690766,0.230255 0,-0.19188 -0.844268,-0.307007 h -0.844269 l -0.537263,0.230255 -1.611786,-0.307007 -0.537262,0.153504 h -0.07675 l -0.07675,-0.07675 -0.537262,0.153503 -1.30478,-0.230255 -0.614013,0.230255 h -0.07675 l -0.07675,-0.07675 -1.151276,0.153503 -1.074524,-0.307007 -1.535034,0.307007 -1.458283,-0.07675 -0.614014,0.07675 q 0,-0.134315 -0.767517,-0.153503 h -0.537262 l -0.153504,-0.153504 v -0.153503 l 0.153504,-0.614014 v -0.230255 l -0.153504,-0.230255 v -0.307007 q 0,-0.537262 0.614014,-0.614014 1.477471,0.07675 1.611786,0.230255 h 0.07675 l 0.07675,-0.07675 0.307007,0.153504 q 0,-0.287819 2.302551,-0.383759 l 1.30478,0.307007 h 0.307007 l 0.07675,-0.07675 0.07675,0.07675 h 0.153504 l 0.383758,-0.07675 0.460511,0.07675 h 0.307006 l 0.997773,-0.153503 0.844269,0.153503 h 0.767517 l 0.690766,0.230255 1.074524,-0.230255 h 0.07675 l 0.690766,0.07675 1.074524,-0.307007 0.921021,0.230255 h 0.767517 l 0.07675,-0.07675 0.07675,0.07675 h 0.307007 l 0.690766,0.07675 2.302552,-0.230255 0.230255,0.07675 0.230255,-0.07675 0.307007,0.07675 h 0.07675 l 0.07675,-0.07675 0.537262,0.07675 0.921021,-0.153503 1.228028,0.153503 0.479698,-0.134315 z"
         style="font-style:normal;font-variant:normal;font-weight:normal;font-stretch:normal;font-size:39.29688263px;font-family:'Top Secret';-inkscape-font-specification:'Top Secret';fill:#ffffff"
         id="path509" />
      <path
         d="m 113.69035,35.680548 0.17269,0.172691 0.36457,0.345383 h 0.17269 l -0.34538,1.419907 0.70995,1.957169 0.70996,0.709953 v 3.722459 q 0.51807,0.479698 1.40072,4.259721 l 0.70995,0.709953 -0.17269,0.172691 v 0.709954 l 0.17269,0.709953 -0.17269,0.709954 1.07452,3.185196 h -0.19188 l 0.53726,0.882645 -0.53726,0.901833 q 0.61402,0 1.07453,2.12986 l -0.17269,1.228028 q 0,0.537262 1.59259,1.074524 l 0.51808,1.419907 -0.70996,0.518074 h -0.17269 l -0.51807,-0.345383 h -0.36457 l -2.30255,0.709954 h -0.1727 l -0.70995,-0.172692 -0.70995,0.172692 h -0.36457 l -0.88265,-0.537262 -3.72246,0.537262 q -0.92102,0 -1.4199,-0.882645 V 61.91045 q 1.07452,-0.65239 1.07452,-2.302552 l -0.36457,-1.228028 0.17269,-0.191879 -0.34538,-1.592598 0.17269,-0.172692 v -0.709953 h -1.5926 l -1.4199,0.345383 q -0.46052,-0.345383 -1.76529,-0.345383 l -0.19188,-0.172691 V 53.92827 q 0,-0.345382 1.07452,-0.518074 l 0.70995,0.709954 h 1.22803 l 0.90183,-0.19188 -0.53726,-3.012505 0.17269,-1.055336 q -0.53726,0 -1.24721,-3.89515 l 0.19188,-0.537262 -1.5926,-5.679628 0.17269,-0.518074 -0.17269,-1.611786 q 0.13431,-1.055336 1.05534,-1.055336 l 0.88264,0.172691 z m -8.50025,6.02501 h 0.17269 l 0.17269,0.537262 -0.17269,0.518074 0.17269,1.784478 q 0,2.32174 -1.05534,3.722459 0,2.2258 -1.4199,4.969674 l 0.17269,0.518074 -0.17269,1.247215 0.17269,1.247216 -0.53727,0.172691 0.1727,1.055337 -0.51808,1.419906 v 0.172692 q 0,1.554222 2.30255,1.784477 h 0.34539 v 0.172692 q 0,2.12986 -1.22803,2.12986 h -2.12986 q -0.59483,0 -1.24722,-0.537262 l -2.47524,0.537262 q -0.690766,0 -1.247216,-1.957169 v -0.345383 q 2.129861,0 2.129861,-1.957169 1.630975,-1.630974 3.012505,-5.660439 l -0.17269,-0.537262 1.93798,-6.562273 0.36457,-0.36457 -0.17269,-0.518074 q 0,-2.168237 1.41991,-3.549768 z m 18.70823,-8.845636 q -0.44132,-0.134315 -0.44132,-0.230255 l -0.61402,0.153503 -0.0768,-0.07675 h -0.0767 l -0.46051,0.153503 -0.84427,-0.07675 -2.30255,0.460511 -1.9188,-0.230255 -1.15127,0.07675 -0.0768,-0.07675 -0.30701,0.07675 h -0.92102 l -0.99777,-0.307007 h -0.61402 l -0.76751,0.230256 h -0.0768 q -1.01696,0 -1.38153,-0.230256 l -0.53726,0.153504 -1.53503,-0.153504 q 0,0.115128 -1.07453,0.230256 l -0.69076,-0.07675 h -0.92102 q -2.01474,0 -2.2258,0.307007 h -0.38376 l -2.30255,-0.383759 -0.46051,0.07675 -0.844273,-0.153504 -1.381531,0.153504 h -0.307007 l -1.151276,0.307007 q -0.844269,0 -1.074524,-0.614014 0.383758,-0.575638 0.383758,-1.228028 l -0.07675,-0.307007 q 0,-0.537262 1.074524,-0.537262 l 1.611786,0.230256 q 0.287819,-0.230256 0.690766,-0.230256 h 0.307006 q 0.383762,0 0.460512,0.230256 l 2.14905,-0.230256 1.61178,0.460511 1.22803,-0.383759 v 0.07675 l 0.99777,-0.230255 0.46051,0.07675 0.30701,-0.07675 0.23026,0.230255 h 0.23025 l 0.23026,-0.230255 0.69076,0.153503 1.15128,-0.153503 q 0.26863,0.230255 1.15127,0.307007 l 0.38376,-0.230256 0.38376,0.230256 0.38376,-0.07675 0.30701,0.07675 0.53726,-0.07675 1.22803,0.153503 1.30477,-0.307007 1.07453,0.153504 0.46051,-0.07675 h 1.22803 l 0.69076,-0.230255 0.53726,0.153503 0.23026,-0.07675 0.53726,0.153503 h 0.0768 l 0.0768,-0.07675 1.07452,0.230256 0.30701,-0.07675 0.76751,0.153503 0.92102,-0.230255 h 0.23026 l 0.28782,0.07675 z m 0,35.267417 -0.26863,-0.07675 -2.14905,0.307006 -0.0768,-0.07675 -0.38376,0.07675 -0.46051,-0.07675 -1.15128,0.153503 q -0.59482,0 -1.38153,-0.230255 h -0.0768 q -0.28782,0.230255 -0.53726,0.230255 h -0.23026 q -0.46051,0 -0.92102,-0.46051 l -0.92102,0.153503 -0.30701,-0.07675 -0.307,0.07675 h -0.61402 q -0.44132,0.307007 -0.69076,0.307007 l -0.61402,-0.07675 h -0.0767 l -0.0768,0.07675 -0.38376,-0.230255 -0.46051,0.230255 -0.46051,-0.153503 q -0.28782,0.230255 -0.69076,0.230255 h -0.23026 l -0.61401,-0.230255 q -1.53504,0 -2.99332,0.230255 -0.70995,0 -1.22803,-0.46051 0,0.307006 -1.07452,0.383758 l -0.46051,-0.07675 -0.53726,0.153504 q -1.01696,-0.153504 -1.22803,-0.307007 h -0.0768 l -0.0768,0.07675 -1.68853,-0.153504 q -0.978588,0 -1.228031,0.307007 h -0.153503 l -0.307007,-0.230255 -0.460511,0.153503 -0.07675,-0.07675 h -0.230255 q -0.479699,0.153503 -1.842042,0.230255 l -0.537262,-0.307007 v -0.07675 l 0.07675,-0.07675 q 0.307007,-0.115128 0.307007,-0.230256 v -0.07675 l -0.230255,-0.230256 0.153503,-0.537262 v -0.07675 q 0,-0.153504 -0.230255,-0.153504 v -0.307007 l 0.307007,-0.537262 q 0.882645,0 1.535034,0.230255 0.882645,0 1.151276,-0.307006 h 0.383759 l 1.304774,0.230255 h 0.23026 l 0.84427,-0.230255 q 1.63097,0.249443 1.91879,0.46051 h 0.30701 q 0.38376,0 0.46051,-0.230255 h 0.0768 l 0.0767,0.07675 h 0.30701 q 0,-0.153503 1.76529,-0.383758 l 0.46051,0.07675 h 0.0767 l 0.0768,-0.07675 q 0.30701,0.115127 0.30701,0.230255 l 0.53726,-0.07675 h 0.53726 l 1.99555,0.383759 0.76752,-0.307007 v 0.07675 q 0.72914,0 1.38153,-0.230255 l 0.76751,0.153503 q 1.45829,0 2.2258,-0.307007 1.53504,0.537262 2.0723,0.537262 h 0.38376 q 0.92102,-0.307007 1.76529,-0.383758 l 0.23025,0.230255 h 0.23026 v -0.153504 h 0.23025 q 0,0.230255 0.38376,0.230255 h 0.15351 l 0.0768,-0.07675 0.38376,0.230255 h 0.23025 q 0.15351,-0.153504 0.61402,-0.153504 l 0.38375,-0.383758 1.26641,0.326195 z"
         style="font-style:normal;font-variant:normal;font-weight:normal;font-stretch:normal;font-size:39.29688263px;font-family:'Top Secret';-inkscape-font-specification:'Top Secret';fill:#ffffff"
         id="path511" />
      <path
         d="m 143.06707,35.622984 1.41991,0.345383 2.45606,-0.172691 0.34538,1.055336 q 0,1.266403 -1.40072,1.592598 v -0.172691 q -2.45606,1.726913 -2.45606,3.3387 -1.4199,2.820625 -2.12986,5.103989 -0.47969,0 -0.86345,1.400719 h -0.36457 v -0.172691 l 0.17269,-1.76529 q -0.51808,-0.172691 -0.51808,-1.055336 l 1.93798,-4.931298 q 0,-1.688538 -2.28336,-2.628747 l -0.19188,-0.172691 v -0.172692 q 0,-0.959396 0.70996,-1.247215 h 1.40071 q 1.76529,0 1.76529,-0.345383 z m -5.43018,32.465979 -0.11513,0.115128 h -0.53726 q -0.76752,0.01919 -0.76752,0.153503 l -0.61401,-0.07675 -1.45828,0.07675 -1.53504,-0.307006 -1.07452,0.307006 -1.15128,-0.153503 -0.0768,0.07675 h -0.0768 l -0.61402,-0.230255 -1.30478,0.230255 -0.53726,-0.153504 -0.0767,0.07675 h -0.0768 l -0.53726,-0.153503 -1.61179,0.307006 -0.53726,-0.230255 h -0.84427 q -0.67158,0.09594 -0.80589,0.230255 v -2.436867 l 0.11512,-0.01919 1.07453,0.307007 0.69076,-0.07675 h 0.0768 l 1.07452,0.230256 0.69077,-0.230256 h 0.76751 l 0.84427,-0.153503 0.99777,0.153503 h 0.30701 l 0.46051,-0.07675 0.38376,0.07675 h 0.1535 l 0.0768,-0.07675 0.0768,0.07675 h 0.307 l 1.30478,-0.307006 q 2.30255,0.09594 2.30255,0.383758 l 0.30701,-0.153503 0.0768,0.07675 h 0.0768 q 0.13431,-0.153503 1.61178,-0.230255 0.13432,0.01919 0.24944,0.05756 0.15351,-0.134315 0.44133,-0.172691 1.47747,0.07675 1.61178,0.230255 h 0.0768 l 0.0768,-0.07675 0.307,0.153504 q 0,-0.287819 2.30256,-0.383759 l 1.30477,0.307007 h 0.30701 l 0.0768,-0.07675 0.0767,0.07675 h 0.15351 l 0.38376,-0.07675 0.46051,0.07675 h 0.307 l 0.99778,-0.153504 0.84427,0.153504 h 0.76751 l 0.69077,0.230255 1.07452,-0.230255 h 0.0768 l 0.30701,0.03838 0.0192,1.957169 h -0.0959 l -0.53726,0.230255 -1.61179,-0.307007 -0.53726,0.153503 h -0.0767 l -0.0768,-0.07675 -0.53727,0.153503 -1.30478,-0.230255 -0.61401,0.230255 h -0.0768 l -0.0768,-0.07675 -1.15128,0.153504 -1.07452,-0.307007 -1.53504,0.307007 -1.45828,-0.07675 -0.61401,0.07675 q 0,-0.134316 -0.76752,-0.153504 z m 0.0192,-35.113913 -0.51808,0.287819 q -1.36234,-0.07675 -1.84204,-0.230256 h -0.23025 l -0.0768,0.07675 -0.46051,-0.153503 -0.307,0.230255 h -0.15351 q -0.24944,-0.307007 -1.22802,-0.307007 l -1.68854,0.153503 -0.0767,-0.07675 h -0.0768 q -0.21107,0.153503 -1.22803,0.307007 l -0.53726,-0.153504 -0.46051,0.07675 q -1.07453,-0.07675 -1.07453,-0.383759 -0.51807,0.460511 -1.22803,0.460511 -1.45828,-0.230256 -2.99331,-0.230256 l -0.19188,0.07675 v -2.12986 l 1.65016,-0.326195 h 0.53726 l 0.53726,0.07675 q 0,-0.115128 0.30701,-0.230255 l 0.0767,0.07675 h 0.0768 l 0.46051,-0.07675 q 1.76529,0.230255 1.76529,0.383758 h 0.30701 l 0.0768,-0.07675 h 0.0768 q 0.0768,0.230256 0.46051,0.230256 h 0.30701 q 0.28782,-0.211068 1.91879,-0.460511 l 0.84427,0.230255 h 0.23026 l 1.30478,-0.230255 h 0.38376 q 0.28782,0.307007 1.15127,0.307007 0.65239,-0.230255 1.53504,-0.230255 l 0.0576,0.09594 q 0.0384,-0.03838 0.0959,-0.03838 h 0.0768 l 0.46051,0.07675 0.84427,-0.230256 q 0,0.134316 1.15128,0.153504 0.38376,0 0.46051,-0.230255 l 0.0768,0.07675 0.61401,-0.07675 q 0.24945,0 0.53726,0.307007 h 0.0768 v -0.153504 h 0.0768 l 0.23025,0.230255 h 0.15351 q 0.70995,-0.537262 1.07452,-0.537262 0.78671,0.383759 1.15128,0.383759 l 1.30478,-0.153504 0.53726,0.153504 h 1.07452 l 1.45829,-0.307007 h 0.23025 q 0.24944,0 0.82508,0.383759 l 0.0192,2.264175 -0.61401,-0.03837 -0.23026,0.07675 q -0.82508,-0.230255 -1.38153,-0.230255 h -0.38376 l -0.61401,0.153504 h -0.23026 l -1.38153,-0.230256 -0.46051,0.153504 h -0.0768 l -0.0768,-0.07675 -1.07453,0.07675 h -0.23025 l -0.38376,-0.07675 -0.0768,0.07675 -0.61402,-0.07675 -0.23025,0.07675 -0.30701,-0.07675 q -0.32619,0.307007 -1.07452,0.46051 -0.28782,-0.211067 -0.99778,-0.307006 v 0.07675 l -0.61401,-0.07675 q -0.23025,0 -0.23025,0.153503 l -0.69077,-0.153503 q -0.13432,0 -0.24944,-0.03838 z m -9.36371,2.820626 0.88264,0.36457 5.96745,-0.36457 0.70995,0.172691 v 0.191879 l -0.17269,0.690766 0.34538,1.055336 q -0.88264,0.230255 -0.88264,0.537262 0,1.515847 1.5926,5.794755 0.95939,2.302552 2.11067,4.048654 0.11513,1.765289 0.34538,1.765289 L 139.01842,50.225 q 0,2.647934 1.05534,5.46856 -0.69077,1.036148 -0.88265,2.993317 0.4797,1.266404 2.30255,1.937981 -0.69076,2.110673 -1.05533,2.110673 l -4.24054,-0.537262 -2.45605,0.882644 -2.45606,-1.055336 -1.93798,0.172692 h -0.17269 l -0.36457,-0.345383 v -0.172692 l 0.88265,-1.592598 0.17269,0.172692 h 0.53726 q 0.69076,-0.345383 0.69076,-1.055337 l -0.34538,-2.456055 0.53726,-2.110672 Q 131.0938,53.92827 130.57573,53.92827 v -0.345382 q 0.88265,0 0.88265,-0.537263 v -1.055336 q -0.61402,-1.228027 -1.5926,-1.228027 v -0.882645 q -1.40072,-1.247216 -1.40072,-3.511391 -0.23026,0 -1.41991,-3.53058 -0.57564,-0.518074 -2.62875,-4.758607 -0.88264,-0.191879 -0.88264,-1.400719 l 0.17269,-0.172691 h 0.17269 l 2.11068,0.345383 z"
         style="font-style:normal;font-variant:normal;font-weight:normal;font-stretch:normal;font-size:39.29688263px;font-family:'Top Secret';-inkscape-font-specification:'Top Secret';fill:#ffffff"
         id="path513" />
      <path
         d="m 154.06176,35.622984 q 2.05311,0.882645 4.27891,1.074524 l 1.24721,-0.36457 q 0.34539,0 1.24722,1.419907 v 1.611786 l -0.70995,1.055336 V 41.3218 l 0.17269,2.12986 -0.36457,2.494431 1.24721,2.859002 q 0,0.997772 -1.5926,5.161553 v 0.172692 l 0.34539,0.537262 -0.17269,0.709953 0.36457,1.784478 -0.19188,0.172691 v 0.172691 l 0.19188,0.172692 v 0.537262 h -0.19188 l 0.19188,1.247215 v 3.031693 l -0.19188,0.172692 v 0.172691 l -0.17269,-0.172691 h -0.1727 l -3.20438,0.537262 -2.32174,-1.247216 -2.12986,0.882645 h -0.36457 q -0.97858,0 -1.76529,-1.228027 0,-0.729142 1.5926,-1.074525 l 0.17269,-0.172691 v -0.191879 l -0.34538,-0.709954 0.70995,-1.957169 q 0,-1.57341 -0.53726,-2.302551 l 0.36457,-1.439095 v -1.76529 l -0.19188,-0.729141 0.19188,-0.709954 -0.36457,-2.494431 0.53726,-1.957169 -0.53726,-2.839813 0.53726,-2.859002 q -0.97858,-1.880417 -2.49443,-2.667122 0,-1.957169 4.62429,-1.957169 z m 9.26777,0 0.70995,0.364571 0.1727,-0.191879 h 0.17269 l 1.95717,0.36457 1.95717,-0.172691 1.43909,0.345383 v 0.882644 l 0.17269,5.698816 q -0.76752,0.959396 -1.78448,1.074524 l -1.4199,-1.784478 v -0.537262 l 0.17269,-0.172691 q -1.13209,-2.12986 -2.30255,-2.12986 l -0.19188,-0.709954 -1.5926,0.172692 q -0.90183,-0.115128 -0.90183,-1.074524 v -1.419907 q 0,-0.345383 1.43909,-0.709954 z m 2.12986,7.828676 v 1.074524 q 0.4797,0 0.88265,5.871507 l -0.17269,0.537262 0.53726,1.419907 -0.17269,0.172691 0.17269,0.901833 q -0.23026,1.419907 -1.07453,1.419907 -0.67157,-0.03838 -2.12986,-2.32174 -0.36457,0 -0.36457,-1.055336 L 161.89044,50.225 q 0,-2.494431 1.24721,-2.494431 0,-0.364571 0.53726,-0.364571 l 0.90184,-3.741647 0.17269,-0.172691 z m 3.74165,11.03306 q 0.82508,0 1.05533,2.859002 h 0.19188 l -0.53726,1.419907 0.17269,0.172691 -0.17269,0.901833 v 2.839814 l -0.70995,0.172691 -3.37708,-0.518074 -3.74164,0.518074 0.17269,-0.518074 -0.17269,-1.074524 v -0.172691 q 0,-0.364571 1.59259,-0.364571 0.23026,-0.537262 2.49444,-1.784478 1.36234,-3.357888 2.66712,-4.4516 z m 3.79921,-21.432919 -0.53726,-0.172691 q -0.46051,0.307007 -1.38153,0.307007 l -0.69077,-0.153504 q -0.53726,0 -0.84427,0.153504 l -0.84427,-0.07675 h -0.69076 l -0.0768,0.07675 -0.61401,-0.153504 -0.30701,0.07675 -0.23025,-0.07675 -0.46051,0.230256 -1.22803,-0.230256 -1.53503,0.07675 q -0.99778,0 -1.61179,-0.230255 -0.7867,0.537262 -1.07452,0.537262 h -0.23026 l -1.45828,-0.307007 h -1.07453 l -0.53726,0.153504 -1.30478,-0.153504 q -0.36457,0 -1.15127,0.383759 -0.36457,0 -1.07453,-0.537262 h -0.1535 l -0.23026,0.230255 h -0.0767 v -0.153504 h -0.0768 q -0.28782,0.307007 -0.53726,0.307007 l -0.61402,-0.07675 -0.0768,0.07675 q -0.0768,-0.230255 -0.46051,-0.230255 -1.15127,0.01919 -1.15127,0.153504 l -0.84427,-0.230256 -0.46051,0.07675 h -0.0767 q -0.23026,0 -0.30701,-0.997772 h -0.0768 q 0.0768,-1.30478 0.84427,-1.30478 l 0.69076,-0.153503 q 0,0.153503 0.23026,0.153503 l 0.61401,-0.07675 v 0.07675 q 0.70995,-0.09594 0.99777,-0.307006 0.74833,0.153503 1.07453,0.46051 l 0.307,-0.07675 0.23026,0.07675 0.61401,-0.07675 0.0767,0.07675 0.38376,-0.07675 h 0.23026 l 1.07452,0.07675 0.0768,-0.07675 h 0.0768 l 0.46051,0.153504 1.38153,-0.230256 h 0.23025 l 0.61402,0.153504 h 0.38376 q 0.55645,0 1.38153,-0.230255 l 0.23025,0.07675 1.07453,-0.07675 h 0.307 l 1.22803,0.307007 q 1.36234,-0.383759 1.84204,-0.383759 0,0.230255 0.30701,0.230255 l 0.46051,-0.07675 0.61401,0.07675 0.0768,-0.07675 0.0768,0.07675 h 0.0768 q 1.40072,0 2.99331,-0.307007 l 0.84427,0.307007 0.99778,-0.153503 0.61401,0.07675 0.38376,-0.134315 z m -0.0576,35.229042 -0.53726,0.153503 -0.23025,-0.07675 -0.53726,0.153504 -0.69077,-0.230255 h -1.22803 l -0.46051,-0.07675 -1.07452,0.153503 -1.30478,-0.307006 -1.22803,0.153503 -0.53726,-0.07675 -0.30701,0.07675 -0.38376,-0.07675 -0.38376,0.230255 -0.38375,-0.230255 q -0.88265,0.07675 -1.15128,0.307007 l -1.15128,-0.153503 -0.69076,0.153503 -0.23026,-0.230255 h -0.23025 l -0.23026,0.230255 -0.307,-0.07675 -0.46051,0.07675 -0.99778,-0.230255 v 0.07675 l -1.22802,-0.383759 -1.61179,0.46051 -2.14905,-0.230255 q -0.0768,0.230255 -0.46051,0.230255 h -0.30701 q -0.40294,0 -0.69076,-0.230255 l -1.61179,0.230255 q -1.07452,0 -1.07452,-0.537262 l 0.0768,-0.307007 q 0,-0.652389 -0.38376,-1.228027 0.23026,-0.614014 1.07453,-0.614014 l 1.15127,0.307007 h 0.30701 l 1.38153,0.153503 0.84427,-0.153503 0.46051,0.07675 2.30255,-0.383759 h 0.38376 q 0.21107,0.307007 2.2258,0.307007 h 0.92102 l 0.69077,-0.07675 q 1.07452,0.115128 1.07452,0.230255 l 1.53503,-0.153503 0.53727,0.153503 q 0.36457,-0.230255 1.38153,-0.230255 h 0.0768 l 0.76752,0.230255 h 0.61401 l 0.99777,-0.307006 h 0.92102 l 0.30701,0.07675 0.0768,-0.07675 1.15128,0.07675 1.91879,-0.230255 1.07452,0.211067 z"
         style="font-style:normal;font-variant:normal;font-weight:normal;font-stretch:normal;font-size:39.29688263px;font-family:'Top Secret';-inkscape-font-specification:'Top Secret';fill:#ffffff"
         id="path515" />
      <path
         d="m 181.27025,35.622984 h 1.05534 q 0.88264,0 1.05533,0.709954 l -0.17269,0.518074 0.34538,1.957169 -0.17269,1.055336 0.36457,0.518074 -0.19188,0.191879 v 0.882645 q 0,1.66935 -0.69076,3.166009 v 0.172691 q 0.88264,2.168236 0.88264,3.530579 l -0.36457,1.419907 v 1.937981 l -0.70995,2.110673 0.19188,1.247215 -0.19188,0.709954 q 0.49889,0 0.88264,3.70327 l 0.19188,0.882645 1.22803,0.882645 v 0.882645 l -0.34538,0.345383 h -2.30255 l -1.22803,0.36457 -1.07453,-0.36457 v 0.172691 L 178.9677,62.27502 h -0.17269 l -2.64794,0.537262 -0.88264,-0.191879 -0.53726,0.364571 q -2.11068,-0.134316 -2.11068,-0.537262 0,-2.475243 1.41991,-2.475243 l 1.40072,-2.456056 q 0,-1.247215 -1.05534,-3.012505 v -0.172691 l 0.34539,-1.592598 -0.1727,-3.166009 0.1727,-1.419907 -0.1727,-0.518074 0.53727,-2.647935 -0.1727,-1.074524 0.1727,-1.055336 -0.1727,-0.172691 v -0.172692 l 0.1727,-0.882644 -0.1727,-0.709954 0.1727,-0.172691 -0.53727,-0.537262 0.36457,-0.518074 v -0.19188 q 0,-0.307007 -1.76528,-1.228027 l -0.36458,-1.937981 1.05534,-0.364571 h 0.70995 l 0.70996,0.537262 h 0.17269 l 0.17269,-0.172691 1.41991,0.345382 2.99331,-0.345382 v 0.172691 z m 4.24053,0.345383 1.57341,0.364571 h 2.12986 q 2.26418,0 3.16601,1.228027 0.97859,0 1.41991,1.247216 0.6332,0 1.40072,2.110672 h 0.19188 l -0.36457,4.585916 0.17269,0.172691 q -0.38376,0.03838 -2.45606,2.647934 -0.82508,0 -2.47524,1.76529 v 0.364571 h 1.05534 q 3.54976,0 4.24053,3.3387 l 0.17269,0.191879 -0.17269,0.882645 0.17269,0.882645 q -0.30701,0.36457 -0.53726,2.456055 0.26863,0.709953 0.53726,0.709953 h 0.17269 l 2.30255,-0.709953 0.51808,1.074524 q -2.28337,3.3387 -4.04866,3.3387 0,0.537262 -0.36457,0.537262 l -0.88264,-0.172691 -0.88265,0.172691 q -2.34092,-0.05756 -4.93129,-2.820626 l -0.1727,-1.419907 0.1727,-1.228027 -0.70996,-1.76529 0.34538,-1.055336 q 0,-3.530579 -1.40071,-3.530579 -0.70996,0 -0.70996,-2.475243 1.5926,-0.441323 1.5926,-1.76529 l 0.51807,-2.820626 -0.51807,-2.475243 0.17269,-0.882645 q 0,-1.688538 -1.76529,-2.993317 l -0.17269,-1.76529 z m 15.29278,-2.839814 -0.307,0.01919 -0.0767,-0.07675 -0.53727,0.07675 -0.307,-0.07675 q -0.21107,-0.287819 -0.61402,-0.383758 -0.76751,0.211067 -0.76751,0.307007 l -0.69077,-0.07675 q -0.38376,0.230255 -0.76752,0.230255 h -0.307 l -0.46051,-0.153503 -0.61402,0.07675 -0.99777,-0.153503 -0.84427,0.307007 q -1.5926,-0.307007 -2.99332,-0.307007 h -0.0768 l -0.0768,0.07675 -0.0768,-0.07675 -0.61402,0.07675 -0.46051,-0.07675 q -0.307,0 -0.307,0.230255 -0.4797,0 -1.84204,-0.383759 l -1.22803,0.307007 h -0.30701 l -1.07452,-0.07675 -0.23026,0.07675 q -0.82508,-0.230255 -1.38153,-0.230255 h -0.38376 l -0.61401,0.153504 h -0.23026 l -1.38153,-0.230256 -0.46051,0.153504 h -0.0768 l -0.0768,-0.07675 -1.07453,0.07675 h -0.23025 l -0.38376,-0.07675 -0.0767,0.07675 -0.61402,-0.07675 -0.23025,0.07675 -0.30701,-0.07675 q -0.32619,0.307007 -1.07452,0.460511 -0.28782,-0.211068 -0.99777,-0.307007 v 0.07675 l -0.61402,-0.07675 q -0.23025,0 -0.23025,0.153503 l -0.69077,-0.153503 q -0.76752,0 -0.84427,-1.30478 h 0.0767 q 0.0768,-0.997772 0.30701,-0.997772 h 0.0768 l 0.46051,0.07675 0.84427,-0.230256 q 0,0.134316 1.15128,0.153504 0.38376,0 0.46051,-0.230255 l 0.0768,0.07675 0.61401,-0.07675 q 0.24945,0 0.53727,0.307007 h 0.0768 v -0.153504 h 0.0767 l 0.23025,0.230255 h 0.15351 q 0.70995,-0.537262 1.07452,-0.537262 0.78671,0.383759 1.15128,0.383759 l 1.30478,-0.153504 0.53726,0.153504 h 1.07452 l 1.45829,-0.307007 h 0.23025 q 0.28782,0 1.07453,0.537262 0.61401,-0.230255 1.61178,-0.230255 l 1.53504,0.07675 1.22802,-0.230256 0.46051,0.230256 0.23026,-0.07675 0.30701,0.07675 0.61401,-0.153504 0.0768,0.07675 h 0.69077 l 0.84427,-0.07675 q 0.307,0.153504 0.84427,0.153504 l 0.69076,-0.153504 q 0.92102,0 1.38153,0.307007 l 0.69077,-0.230255 0.76751,0.07675 h 0.0768 l 0.0768,-0.07675 0.46051,0.153503 0.53726,-0.307007 1.22803,0.230256 0.61401,-0.153504 0.30701,0.153504 0.23025,-0.05756 z m 0,34.710967 -0.17269,-0.03838 q -0.44132,0.230256 -0.92102,0.230256 -0.42213,-0.230256 -0.84427,-0.230256 l -2.3793,0.383759 -1.15128,-0.307007 -1.22802,0.153504 -0.92102,-0.153504 -0.53727,0.07675 -0.0767,-0.07675 h -0.0768 l -0.30701,0.07675 -0.23025,-0.07675 -0.23026,0.07675 -2.30255,-0.230255 -0.69076,0.07675 h -0.30701 l -0.0768,0.07675 -0.0768,-0.07675 h -0.76751 l -0.92102,0.230256 -1.07453,-0.307007 -0.69076,0.07675 h -0.0768 l -1.07453,-0.230255 -0.69076,0.230255 h -0.76752 l -0.84427,0.153504 -0.99777,-0.153504 h -0.30701 l -0.46051,0.07675 -0.38376,-0.07675 h -0.1535 l -0.0768,0.07675 -0.0768,-0.07675 h -0.307 l -1.30478,0.307007 q -2.30255,-0.09594 -2.30255,-0.383758 l -0.30701,0.153503 -0.0768,-0.07675 h -0.0768 q -0.13432,0.153504 -1.61179,0.230256 -0.61401,-0.07675 -0.61401,-0.614014 v -0.307007 l 0.1535,-0.230255 v -0.230255 l -0.1535,-0.614014 v -0.153504 l 0.1535,-0.153503 h 0.53726 q 0.76752,-0.01919 0.76752,-0.153504 l 0.61401,0.07675 1.45829,-0.07675 1.53503,0.307007 1.07452,-0.307007 1.15128,0.153504 0.0768,-0.07675 h 0.0768 l 0.61402,0.230255 1.30478,-0.230255 0.53726,0.153504 0.0767,-0.07675 h 0.0768 l 0.53726,0.153503 1.61179,-0.307007 0.53726,0.230256 h 0.84427 q 0.84427,-0.115128 0.84427,-0.307007 0.69077,0.07675 0.69077,0.230255 0.76751,-0.07675 0.92102,-0.230255 1.61178,0.07675 1.61178,0.230255 l 0.23026,-0.153504 0.46051,0.153504 h 0.23025 l 0.23026,-0.153504 h 0.38376 l 0.84427,-0.07675 0.0768,0.07675 h 0.0768 l 0.69077,-0.07675 h 0.61401 l 1.30478,0.307007 q 1.07452,-0.07675 1.07452,-0.460511 l 0.46051,0.153504 0.23026,-0.07675 0.46051,0.153503 0.46051,-0.07675 q 0.7867,0.09594 0.92102,0.230255 h 1.61179 l 0.47969,-0.09594 z"
         style="font-style:normal;font-variant:normal;font-weight:normal;font-stretch:normal;font-size:39.29688263px;font-family:'Top Secret';-inkscape-font-specification:'Top Secret';fill:#ffffff"
         id="path517" />
      <path
         d="m 208.34442,35.622984 q 1.72692,0.345383 1.72692,0.690766 v 0.518074 q 0,1.304779 -2.0723,1.918793 l -0.70995,2.091484 q 0.99777,2.609559 2.09148,2.609559 0.13432,0.498886 3.6649,1.381531 2.68631,2.436867 4.16378,2.436867 0,0.307007 1.7461,1.746102 V 50.225 q 0.51807,0 0.51807,0.345382 l -0.17269,0.709954 q 0.69077,0.940208 0.69077,3.127633 -0.40295,0 -0.69077,3.127632 -1.76529,1.880418 -3.30032,4.355661 -3.95272,1.208839 -5.39181,1.208839 h -0.17269 q -0.36457,0 -0.53726,-1.036148 0.307,-1.746102 1.57341,-1.746102 1.72691,0 1.91879,-1.57341 v -1.554222 q -0.82508,-3.300325 -4.35566,-3.300325 -0.17269,-0.55645 -2.95494,-1.400719 0,-0.518074 -2.78225,-1.554222 -0.94021,-2.436867 -1.38153,-2.436867 v -0.882645 l -1.40072,-1.899605 0.86345,-1.746102 -0.51807,-1.746102 0.51807,-0.172691 v -0.863457 q 2.30256,-3.664895 3.83759,-4.35566 l 0.17269,0.191879 h 0.17269 q 0.51808,0 2.78225,-1.400719 z m 10.09285,0 h 0.1727 q 0.17269,1.20884 0.51807,1.20884 l -0.17269,0.882645 0.17269,1.036148 -0.51807,1.918793 v 0.172691 l 0.69076,1.918793 v 0.518075 q 0,0.825081 -1.05533,1.726913 h -0.86346 v -1.726913 q -2.0723,-3.3387 -2.60956,-3.664895 -2.89738,-1.419907 -3.30032,-1.899605 v -0.345383 q 0,-1.400719 0.69076,-1.400719 3.39626,0.479698 4.01028,1.055336 h 0.69076 q 0,-1.132088 1.57341,-1.400719 z M 201.5519,52.661867 h 0.53726 q 0.69076,0.191879 1.38153,1.918793 v 0.172691 l -0.17269,0.863457 q 1.13208,0.959397 1.91879,3.664895 v 0.172691 h 0.86346 l 2.78225,2.072297 v 0.882645 q 0,0.518074 -1.9188,0.518074 -0.0959,-0.422135 -1.20884,-0.863457 l -0.17269,0.172691 h -0.17269 q -1.05533,-0.422134 -1.05533,-0.709953 -1.15128,0 -2.0723,1.400719 h -0.53726 l -0.51808,-0.863457 0.17269,-0.882645 -0.34538,-0.345383 v -1.208839 l -0.34538,-1.055336 0.34538,-1.381531 v -1.228028 l -0.17269,-0.690766 q 0.23025,-2.609558 0.69077,-2.609558 z m 20.62702,-19.725193 -0.6332,0.05756 -0.23026,-0.07675 -0.23025,0.07675 -0.30701,-0.07675 h -0.0768 l -0.0768,0.07675 -0.53726,-0.07675 -0.92102,0.153503 -1.22803,-0.153503 -1.15128,0.307007 -2.3793,-0.383759 q -0.42214,0 -0.84427,0.230255 -0.4797,0 -0.92102,-0.230255 l -1.22803,0.230255 -1.76529,-0.153503 v 0.07675 h -0.1535 l -0.23026,-0.153504 -0.61401,0.153504 h -0.38376 l -0.46051,-0.153504 -1.30478,0.153504 -1.07452,-0.230256 -0.61402,0.07675 -0.84427,-0.07675 -0.92102,0.230256 -0.307,-0.07675 -2.45606,0.211067 v -2.417679 l 0.0768,-0.01919 h 0.0768 l 0.1535,0.153503 q 1.03615,0 1.45828,-0.383758 l 0.30701,0.07675 0.38376,-0.07675 q 0,0.153503 0.99777,0.230255 l 0.23025,-0.07675 0.99778,0.230255 0.61401,-0.230255 h 0.61401 l 0.30701,-0.07675 q 1.15128,0.09594 1.15128,0.307007 l 1.61178,-0.230255 1.38153,0.07675 1.22803,-0.153504 1.07453,0.230256 h 1.61178 q 0.13432,-0.134316 0.92102,-0.230256 l 0.46051,0.07675 0.46051,-0.153503 0.23026,0.07675 0.46051,-0.153503 q 0,0.383759 1.07452,0.46051 l 1.30478,-0.307007 h 0.61402 l 0.69076,0.07675 h 0.0768 l 0.0768,-0.07675 0.84426,0.07675 h 0.38376 l 0.0192,0.01919 z m 0,34.96041 q -1.13209,0.03838 -2.41768,0.287819 l -0.84427,-0.307007 -0.99777,0.153504 -0.61401,-0.07675 -0.46051,0.153503 h -0.30701 q -0.36457,0 -0.76752,-0.230255 l -0.69076,0.07675 q 0,-0.09594 -0.76752,-0.307007 -0.40295,0.09594 -0.61401,0.383759 l -0.30701,0.07675 -0.53726,-0.07675 -0.0768,0.07675 -2.76306,-0.230255 -0.307,0.07675 -0.92102,-0.230255 -0.84427,0.07675 -0.61402,-0.07675 -1.07452,0.230255 -1.30478,-0.153504 -0.46051,0.153504 h -0.38376 l -0.61401,-0.153504 -0.23026,0.153504 h -0.1535 v -0.07675 l -1.76529,0.153504 -1.05534,-0.19188 v -2.206612 l 0.59483,-0.134315 1.22803,0.153503 1.38153,-0.07675 1.61178,0.230256 q 0,-0.211068 1.15128,-0.307007 l 0.30701,0.07675 h 0.61401 l 0.61401,0.230256 0.99778,-0.230256 0.23025,0.07675 q 0.99777,-0.07675 0.99777,-0.230255 l 0.38376,0.07675 0.30701,-0.07675 q 0.42213,0.383759 1.45828,0.383759 l 0.1535,-0.153504 h 0.0768 l 0.307,0.07675 0.30701,-0.153504 0.61401,0.153504 1.22803,-0.230255 0.53726,0.307007 0.46051,-0.153504 0.0768,0.07675 h 0.0767 l 0.76751,-0.07675 0.69077,0.230255 q 0.46051,-0.307007 1.38153,-0.307007 l 0.69077,0.153504 q 0.53726,0 0.84427,-0.153504 l 0.84426,0.07675 h 0.69077 l 0.0768,-0.07675 0.19188,0.03838 z"
         style="font-style:normal;font-variant:normal;font-weight:normal;font-stretch:normal;font-size:39.29688263px;font-family:'Top Secret';-inkscape-font-specification:'Top Secret';fill:#ffffff"
         id="path519" />
      <path
         d="m 222.77374,30.74925 q 0.32619,-0.249443 1.03614,-0.287819 v 0.07675 q 0.99778,0.07675 0.99778,0.307007 v 0.07675 l -0.0768,0.46051 0.23026,0.844269 q -0.13432,0 -0.1535,1.151276 0,0.383759 0.23025,0.460511 l -0.0768,0.07675 0.0768,0.614014 q 0,0.230255 -0.30701,0.537262 v 0.07675 h 0.15351 v 0.07675 l -0.23026,0.230255 v 0.153503 q 0.53726,0.690766 0.53726,1.074524 -0.38375,0.786706 -0.38375,1.151276 l 0.1535,1.30478 -0.1535,0.537262 v 1.074524 l 0.307,1.458282 V 42.4347 q 0,0.287819 -0.53726,1.074524 0.23026,0.614014 0.23026,1.611786 l -0.0768,1.535034 0.23026,1.228028 -0.23026,0.46051 0.0768,0.230256 -0.0768,0.307006 0.15351,0.614014 -0.0768,0.07675 v 0.690765 l 0.0768,0.844269 q -0.15351,0.307007 -0.15351,0.844269 l 0.15351,0.690766 q 0,0.921021 -0.30701,1.381531 l 0.23026,0.690765 -0.0768,0.767518 v 0.07675 l 0.0768,0.07675 -0.15351,0.460511 0.30701,0.537262 -0.23026,1.228027 0.15351,0.614014 -0.15351,0.307007 0.0768,0.307007 v 0.07675 l -0.15351,0.153504 q 0,1.036148 0.38376,1.458283 l -0.0768,0.307007 0.0768,0.383758 q -0.1535,0 -0.23025,0.997773 l 0.0768,0.230255 -0.23026,0.997772 0.23026,0.614014 v 0.614014 l 0.0768,0.307007 q -0.0959,1.151276 -0.30701,1.151276 l 0.21107,1.47747 -1.34316,0.07675 v 0.191879 q -0.53726,0.05756 -1.43909,0.09594 l -1.30478,-0.307007 h -0.30701 l -0.0768,0.07675 -0.0768,-0.07675 -0.0384,-2.12986 0.65239,-0.09594 1.07453,0.307007 0.57564,-0.115128 -0.0768,-0.652389 0.23026,-1.074524 -0.0767,-0.614014 0.0767,-0.844269 -0.23026,-0.921021 0.0768,-0.307007 -0.23026,-2.763062 0.0768,-0.07675 -0.0768,-0.537262 0.0768,-0.307007 q 0.28782,-0.211067 0.38376,-0.614013 -0.21107,-0.767518 -0.30701,-0.767518 l 0.0768,-0.690765 q -0.23026,-0.402947 -0.23026,-0.767517 v -0.307007 l 0.1535,-0.460511 -0.0768,-0.614013 0.15351,-0.997773 -0.30701,-0.844269 q 0.30701,-1.611786 0.30701,-2.993317 v -0.07675 l -0.0768,-0.07675 0.0768,-0.07675 -0.0768,-0.614014 0.0768,-0.46051 q 0,-0.307007 -0.23026,-0.307007 0,-0.479698 0.38376,-1.842042 l -0.30701,-1.228027 v -0.307007 l 0.0768,-1.074524 -0.0768,-0.230255 q 0.23026,-0.825081 0.23026,-1.381531 V 40.66941 l -0.15351,-0.614014 v -0.230255 l 0.23026,-1.381531 -0.1535,-0.46051 v -0.07675 l 0.0768,-0.07675 -0.0768,-1.074524 v -0.230255 l 0.0768,-0.383759 -0.0768,-0.07675 0.0768,-0.614014 -0.0768,-0.230255 0.0768,-0.307007 q -0.30701,-0.326195 -0.46051,-1.074524 0.19188,-0.249444 0.28782,-0.825081 -0.78671,-0.05756 -0.88265,-0.172692 h -0.0768 l -0.0768,0.07675 -0.30701,-0.153504 q 0,0.172692 -0.86346,0.287819 v -2.436867 h 0.0192 l 1.45828,0.07675 0.61402,-0.07675 q 0,0.09594 0.40295,0.134316 z"
         style="font-style:normal;font-variant:normal;font-weight:normal;font-stretch:normal;font-size:39.29688263px;font-family:'Top Secret';-inkscape-font-specification:'Top Secret';fill:#ffffff"
         id="path521" />
    </g>
  </g>
</svg>
