<?xml version="1.0" encoding="UTF-8" standalone="no"?>
<!-- Created with Inkscape (http://www.inkscape.org/) -->

<svg
   xmlns:dc="http://purl.org/dc/elements/1.1/"
   xmlns:cc="http://creativecommons.org/ns#"
   xmlns:rdf="http://www.w3.org/1999/02/22-rdf-syntax-ns#"
   xmlns:svg="http://www.w3.org/2000/svg"
   xmlns="http://www.w3.org/2000/svg"
   xmlns:sodipodi="http://sodipodi.sourceforge.net/DTD/sodipodi-0.dtd"
   xmlns:inkscape="http://www.inkscape.org/namespaces/inkscape"
   width="500"
   height="200"
   viewBox="0 0 132.29166 52.916668"
   version="1.1"
   id="svg8"
   inkscape:version="0.92.5 (2060ec1f9f, 2020-04-08)"
   sodipodi:docname="auto-favorites.svg">
  <defs
     id="defs2" />
  <sodipodi:namedview
     id="base"
     pagecolor="#ffffff"
     bordercolor="#666666"
     borderopacity="1.0"
     inkscape:pageopacity="0.0"
     inkscape:pageshadow="2"
     inkscape:zoom="3.3496094"
     inkscape:cx="36.968146"
     inkscape:cy="108.24473"
     inkscape:document-units="mm"
     inkscape:current-layer="layer1"
     showgrid="false"
     units="px"
     inkscape:pagecheckerboard="true"
     inkscape:window-width="1366"
     inkscape:window-height="740"
     inkscape:window-x="0"
     inkscape:window-y="0"
     inkscape:window-maximized="1" />
  <metadata
     id="metadata5">
    <rdf:RDF>
      <cc:Work
         rdf:about="">
        <dc:format>image/svg+xml</dc:format>
        <dc:type
           rdf:resource="http://purl.org/dc/dcmitype/StillImage" />
        <dc:title />
      </cc:Work>
    </rdf:RDF>
  </metadata>
  <g
     inkscape:label="Layer 1"
     inkscape:groupmode="layer"
     id="layer1"
     transform="translate(0,-244.08332)">
    <flowRoot
       xml:space="preserve"
       id="flowRoot10"
       style="fill:black;stroke:none;stroke-opacity:1;stroke-width:1px;stroke-linejoin:miter;stroke-linecap:butt;fill-opacity:1;font-family:Dymo;font-style:normal;font-weight:normal;font-size:40px;line-height:125%;letter-spacing:0px;word-spacing:0px;-inkscape-font-specification:Dymo;font-stretch:normal;font-variant:normal;"><flowRegion
         id="flowRegion12"
         style="-inkscape-font-specification:Dymo;font-family:Dymo;font-weight:normal;font-style:normal;font-stretch:normal;font-variant:normal;"><rect
           id="rect14"
           width="69.224487"
           height="121.46939"
           x="12.408163"
           y="37.387756"
           style="-inkscape-font-specification:Dymo;font-family:Dymo;font-weight:normal;font-style:normal;font-stretch:normal;font-variant:normal;" /></flowRegion><flowPara
         id="flowPara16" /></flowRoot>    <path
       inkscape:connector-curvature="0"
       id="path22"
       style="font-style:normal;font-variant:normal;font-weight:normal;font-stretch:normal;font-size:36.54740524px;line-height:125%;font-family:Dymo;-inkscape-font-specification:Dymo;letter-spacing:0px;word-spacing:0px;fill:#800080;fill-opacity:1;stroke:none;stroke-width:0.38070214px;stroke-linecap:butt;stroke-linejoin:miter;stroke-opacity:1;image-rendering:auto"
       d="m 1.2773576,260.895 13.5008624,-1.01513 1.943961,25.85385 -13.5008626,1.01513 z m 5.6399188,18.63742 q 0.051051,-0.23772 -0.3190888,-5.16042 -0.011658,-0.15504 -0.088938,-0.26617 -0.077281,-0.11114 -0.063414,-0.38505 -0.00653,-0.54523 0.4731897,-0.5813 0.034269,-0.003 0.1516367,0.18351 0.1173701,0.18607 0.2515211,0.13701 l 0.4338017,-0.18854 3.7007445,-0.27826 q 0.391499,0.16545 0.665628,0.14484 0.651057,-0.0489 0.589854,-0.86293 -0.04372,-0.58142 -1.208767,-0.49382 l -4.3175339,0.32463 q -0.137065,0.0103 -0.1224931,0.20411 0.014573,0.19381 -0.293823,0.217 -0.5139922,0.0386 -0.3951219,-0.67194 0.027724,-0.54782 -0.045137,-1.51685 l -0.1974801,-2.16806 q -0.029145,-0.38761 0.021906,-0.62533 0.082396,-0.27907 0.262471,-0.17566 0.4658609,0.23783 0.7028094,0.18103 0.2712103,-0.0594 0.5424285,-0.11875 l 4.4516812,-0.37376 q 0.17133,-0.0129 0.557001,0.0751 0.385671,0.0879 0.557002,0.0751 0.44546,-0.0335 0.398828,-0.65368 -0.05537,-0.73647 -2.14561,-0.5793 -6.3049713,0.47407 -6.409977,0.91075 -0.076568,0.35659 0.034974,0.46514 0.2631791,0.29206 0.3061891,0.40576 0.043013,0.11372 0.048841,0.19124 -0.00874,-0.11629 -0.1451001,0.36173 -0.1363568,0.47803 0.039298,1.43933 l 0.4808897,6.39562 q 0.043718,0.58143 -0.080982,1.21449 -0.090432,0.63049 0.066242,2.25589 0.3885852,0.12671 0.6284483,0.10867 0.2398632,-0.018 0.4680684,-0.19112 z m 5.9786336,-6.64744 q -0.03427,0.003 -0.287994,0.29452 -0.222377,0.2506 -0.839167,0.29698 l -3.7692765,0.28341 q -0.1859025,-0.18092 -0.3914999,-0.16546 0,0 0.020401,0.27133 0.060498,0.34627 -0.5789026,0.55027 l 0.297983,4.42138 q 0.014572,0.1938 0.1545506,0.22226 0.1771601,0.0646 0.1596727,-0.16793 l -0.2010152,-4.50663 q 0.2282052,-0.17308 2.0472253,-0.27087 2.3016614,-0.0951 2.3016614,-0.0951 0.408283,-0.0696 0.793242,-0.44945 0.382049,-0.41853 0.364562,-0.65111 -0.03718,-0.0361 -0.07144,-0.0336 z m -5.4211284,-4.27005 4.8001714,-0.32199 q 1.062251,-0.0799 1.31015,-0.44933 0.125407,-0.16535 0.0824,-0.27906 -0.07728,-0.11114 -0.205597,0.0155 -0.422144,0.34359 -1.004668,0.38739 -0.171331,0.0129 -0.111543,-0.10857 l 0.122493,-0.2041 -5.0429531,0.30121 q -0.3769272,0.0283 -0.3477819,0.41597 0.020401,0.27132 0.3973285,0.24298 z m -2.8782723,-1.61566 q -0.1713307,0.0129 0.2687565,5.86585 0.1224083,1.62798 0.2367785,3.60739 0.093263,1.24036 0.1136642,1.51168 0.054671,0.26877 0.157467,0.26104 0.2055965,-0.0155 -0.1995168,-5.4033 -0.102007,-1.35665 -0.2484365,-3.76243 -0.102007,-1.35665 -0.1625062,-1.70293 -0.063413,-0.38503 -0.1662085,-0.3773 z m 2.3788521,1.84811 q -0.02623,-0.34884 -0.1975606,-0.33596 -0.1713307,0.0129 -0.1188702,0.71058 0.023316,0.31009 0.089644,0.73389 0.075072,0.54009 0.3192624,1.49624 0.096969,-0.0853 0.1392715,-0.43926 z m 0.4613645,2.92784 q 1.9648283,0.008 1.9327691,-0.41819 -0.040098,-0.075 -0.2114259,-0.0621 l -1.1307834,0.085 q -0.7538554,0.0567 -0.7392827,0.25049 0.011658,0.15505 0.1487229,0.14474 z" />
    <path
       inkscape:connector-curvature="0"
       id="path24"
       style="font-style:normal;font-variant:normal;font-weight:normal;font-stretch:normal;font-size:36.54740524px;line-height:125%;font-family:Dymo;-inkscape-font-specification:Dymo;letter-spacing:0px;word-spacing:0px;fill:#ffffff;fill-opacity:1;stroke:none;stroke-width:0.38070214px;stroke-linecap:butt;stroke-linejoin:miter;stroke-opacity:1;image-rendering:auto"
       d="m 14.298465,259.91594 14.186185,-1.06666 1.943961,25.85385 -14.186185,1.06666 z m 9.191028,6.28645 q -0.301067,-0.79596 -1.397584,-0.71352 -1.06225,0.0799 -1.275175,0.91448 -0.831299,3.60973 -2.884689,11.13145 -0.05104,0.23773 -0.03647,0.43153 0.05537,0.73646 0.569367,0.69781 0.44546,-0.0335 0.541722,-0.58645 l 0.362439,-2.05425 q 0.06782,-0.47285 1.027277,-0.545 l 4.557398,-0.34267 q 0.753855,-0.0567 0.928808,0.4369 l 0.613792,1.74696 q 0.260972,0.721 0.672166,0.69009 0.753855,-0.0567 0.323759,-1.19376 z m -1.336379,0.10048 q 0.411193,-0.0309 0.654678,0.45751 0.277752,0.48587 0.215049,0.56855 -0.02844,0.0801 -0.09697,0.0853 -0.03427,0.003 -0.225998,-0.25587 -0.157466,-0.26102 -0.260265,-0.25329 -0.274129,0.0206 -0.0219,0.62532 0.0831,0.18866 0.334626,0.32567 0.282872,0.0957 0.365977,0.28433 l 1.613963,4.04956 q 0.05758,0.30751 0.138481,0.92512 0.05467,0.26875 0.225998,0.25587 0.06853,-0.005 0.05105,-0.23772 -0.01749,-0.23257 0.05105,-0.23772 l 0.2245,1.15254 q -4.722899,0.43308 -5.722447,0.43027 0.67887,-2.42886 1.209017,-5.00246 0.325967,-1.62271 0.428765,-1.63043 0.102799,-0.008 0.0831,0.18865 -0.01969,0.19638 0.151637,0.1835 0.137064,-0.0103 0.24207,-0.44699 0.105005,-0.43668 -0.03206,-0.42637 -0.102798,0.008 -0.125406,0.16535 0.0087,0.11628 -0.128322,0.12659 -0.06853,0.005 -0.08019,-0.1499 -0.02623,-0.34884 0.150222,-0.75192 0.210718,-0.40565 0.55338,-0.43141 z m -2.257237,1.14423 q -1.292122,4.8138 -2.569672,9.82141 0.02914,0.38762 0.172038,0.45483 0.17716,0.0646 0.159673,-0.16793 0.01386,-0.2739 0.07878,-0.78554 1.763897,-6.33052 2.476326,-9.22967 0.105004,-0.43669 -0.100593,-0.42123 -0.137064,0.0103 -0.216547,0.32813 z m 5.273281,0.92883 q -0.08893,-0.26617 -0.254435,-0.17576 -0.168412,0.0517 -0.07948,0.31782 0.177868,0.53235 2.761358,7.39357 0,0 0.275545,0.91482 0.131943,0.37988 0.269007,0.36958 0.308396,-0.0232 -0.0072,-1.01295 -1.244364,-3.25877 -2.964748,-7.80708 z m -5.11182,7.63475 q -0.171331,0.0129 -0.421437,0.8113 -0.218754,0.75708 -0.189609,1.14469 0.0087,0.11629 0.04592,0.15246 0.17716,0.0647 0.427265,-0.73377 0.224584,-0.67955 0.524235,-0.81903 0.199767,-0.093 1.60468,-0.19862 2.055968,-0.15459 2.918451,-0.14147 0.27704,0.0181 0.360857,0.67452 0.118078,0.65378 0.426473,0.6306 0.27413,-0.0206 0.113041,-0.78812 -0.155259,-0.68997 -0.378342,-0.90707 -0.188818,-0.21969 -0.839875,-0.17074 z m 2.624964,-7.25285 1.282252,3.76266 q 0.0029,0.0388 0.109335,0.53751 0.05467,0.26875 0.191732,0.25844 0.137065,-0.0103 0.04522,-0.31524 -0.1232,-0.2636 -0.05467,-0.26875 0.342661,-0.0258 0.142186,-0.40049 -0.228913,-0.29464 -0.745028,-1.65913 -0.516116,-1.3645 -0.628365,-1.94077 -0.05758,-0.30751 -0.228913,-0.29463 -0.205597,0.0155 -0.113749,0.3204 z m -0.736368,0.28926 q 0.107919,-0.39793 -0.16621,-0.37732 -0.102799,0.008 -0.153843,0.24546 -0.914404,3.42107 -0.876516,3.92497 0.0087,0.11628 0.08019,0.1499 0.139984,0.0285 0.562915,-1.67951 0.295322,-1.11366 0.553464,-2.2635 z m 1.391587,4.30015 q -1.299195,0.13673 -1.278798,0.408 0.0087,0.11628 1.756317,-0.0151 0.17133,-0.0129 0.159672,-0.16792 -0.02332,-0.31009 -0.637191,-0.22496 z m -2.764273,-7.43233 q -0.137064,0.0103 -0.222375,0.25061 -0.0824,0.27905 0.05467,0.26875 0.137065,-0.0103 0.219462,-0.28936 0.08531,-0.24031 -0.05175,-0.23 z m 3.344926,0.48912 0.507372,1.24822 q 0.0831,0.18864 0.285787,0.13443 0.168412,-0.0517 0.0824,-0.27907 l -0.464361,-1.1345 q -0.08602,-0.22741 -0.291616,-0.21195 -0.202678,0.0543 -0.119578,0.24287 z" />
    <path
       inkscape:connector-curvature="0"
       id="path26"
       style="font-style:normal;font-variant:normal;font-weight:normal;font-stretch:normal;font-size:36.54740524px;line-height:125%;font-family:Dymo;-inkscape-font-specification:Dymo;letter-spacing:0px;word-spacing:0px;fill:#ffffff;fill-opacity:1;stroke:none;stroke-width:0.38070214px;stroke-linecap:butt;stroke-linejoin:miter;stroke-opacity:1;image-rendering:auto"
       d="m 28.004911,258.88535 13.329531,-1.00225 1.943961,25.85385 -13.329531,1.00225 z m 3.645033,6.31364 q -0.252228,-0.60472 -0.560623,-0.58153 -0.308395,0.0232 -0.527857,0.31255 -0.185196,0.28679 -0.167709,0.51935 0.02914,0.38762 0.200476,0.37474 0.308395,-0.0232 0.480434,0.43164 3.431316,8.51262 3.875984,9.8435 0.08602,0.22742 -0.04813,0.27648 -0.09988,0.0466 -0.09405,0.12402 0.04663,0.62018 1.11471,0.61783 0.06853,-0.005 0.0627,-0.0827 -0.0029,-0.0387 -0.08601,-0.22741 -0.0831,-0.18866 -0.08893,-0.26617 -0.01457,-0.19381 0.22529,-0.21185 0.239863,-0.018 0.234742,0.37215 0.02914,0.38762 0.09768,0.38247 0.137064,-0.0103 0.487762,-0.3875 0.350697,-0.37719 0.336124,-0.571 -0.04372,-0.58142 0.06129,-1.0181 l 2.184709,-9.44165 q 0.07657,-0.35657 0.270507,-0.52708 0.193939,-0.1705 0.182281,-0.32555 -0.04663,-0.62018 -0.737784,-0.64618 -0.554088,-0.0363 -0.684616,0.51924 0.111544,0.10857 0.06703,0.89152 l -1.866778,8.17036 q -0.04813,0.27648 -0.310602,0.45213 -0.265386,0.1369 -0.287995,0.29452 -0.15605,0.67441 -0.118869,0.7106 0.151637,0.18349 0.705017,-0.24792 -0.03648,0.43153 -0.270507,0.52709 -0.236953,0.0568 -0.234034,0.0956 0,0 0.0204,0.27133 0.01166,0.15505 -0.159673,0.16793 -0.205596,0.0155 -0.182988,-0.14216 0.05104,-0.23772 0.01387,-0.27391 -0.07437,-0.0724 -0.282872,-0.0957 -0.208508,-0.0232 -0.223085,-0.21711 -0.0087,-0.11629 0.0824,-0.27906 0.122492,-0.20412 0.116664,-0.28164 -0.01457,-0.19381 -0.160381,-0.29978 -0.114456,-0.14732 -0.117371,-0.18608 z m -1.488016,-0.083 q -0.239864,0.018 -0.201976,0.52192 0.02915,0.38762 0.370309,1.25852 l 3.586576,9.2026 q 0.424266,1.05954 0.901786,1.45243 0.474604,0.35412 1.365524,0.28713 1.404912,-0.10564 1.57412,-1.52166 0.01678,-0.23514 -0.09184,-0.30494 -0.07145,-0.0336 -0.131236,0.0878 -0.284371,0.801 -0.315723,0.84233 -0.336125,0.57101 -1.08998,0.62769 -1.130783,0.085 -1.652019,-0.88928 -0.43884,-1.25336 -0.911945,-2.50414 l -3.268022,-8.17408 q -0.1232,-0.26359 -0.08382,-0.65637 0.05104,-0.23771 -0.05175,-0.22998 z m 5.941489,8.44082 q 0.06853,-0.005 0.221668,-0.71833 l 1.472281,-6.54249 q -0.01166,-0.15504 -0.0605,-0.34627 -0.1028,0.008 -0.185196,0.28679 l -1.655269,6.40033 q -0.0824,0.27905 0.0094,0.58399 0.0605,0.34628 0.197562,0.33598 z m 4.134173,-8.26289 q -0.17716,-0.0646 -0.648226,1.91981 -1.1434,4.95854 -1.998015,8.25818 -0.05104,0.23772 0.09184,0.30494 0.139976,0.0284 0.193939,-0.1705 2.484361,-9.58111 2.440643,-10.16254 -0.0087,-0.11628 -0.08019,-0.14989 z" />
    <path
       inkscape:connector-curvature="0"
       id="path28"
       style="font-style:normal;font-variant:normal;font-weight:normal;font-stretch:normal;font-size:36.54740524px;line-height:125%;font-family:Dymo;-inkscape-font-specification:Dymo;letter-spacing:0px;word-spacing:0px;fill:#ffffff;fill-opacity:1;stroke:none;stroke-width:0.38070214px;stroke-linecap:butt;stroke-linejoin:miter;stroke-opacity:1;image-rendering:auto"
       d="m 40.854651,257.91917 14.186186,-1.06666 1.94396,25.85385 -14.186185,1.06666 z m 13.100032,11.52776 q -0.300191,-3.99242 -1.181576,-5.17353 -1.033022,-1.3646 -4.082709,-1.13529 -2.878356,0.21642 -3.5484,0.92946 -1.083443,1.17293 -0.771594,5.32039 0.303106,4.03119 0.887046,4.92282 0.938968,1.48862 4.468381,1.22324 2.741292,-0.20612 3.471124,-1.0406 1.049177,-1.17035 0.757728,-5.04649 z m -0.82018,-0.36711 q 0.268132,3.56604 -0.05634,4.29209 -0.529356,1.20921 -3.476245,1.43079 -2.39863,0.18035 -3.173595,-0.50201 -0.995133,-0.8607 -1.234121,-4.03913 -0.320593,-4.26376 0.138024,-5.03888 0.489969,-0.81644 3.539656,-1.04575 2.809824,-0.21127 3.591325,1.01632 0.432303,0.70813 0.671291,3.88657 z m -4.20724,-4.16642 -1.850372,0.13913 q -1.953171,0.14686 -1.604141,4.33051 0.200394,2.20682 0.386296,2.38775 0.139974,0.0284 0.193938,-0.1705 -0.220877,-0.64607 -0.268924,-2.20168 -0.04805,-1.5556 0.05042,-2.53753 0.12982,-1.02325 1.280296,-1.30466 0.16842,-0.0516 1.915994,-0.18299 1.370646,-0.10306 1.905039,0.12962 0.428681,0.20164 0.384964,-0.37978 -0.02914,-0.3876 -2.393509,-0.20983 z m 2.906001,1.06785 q -0.180074,-0.1034 -0.171331,0.0129 -0.02552,0.11886 0.09184,0.30494 0.151638,0.18351 0.207013,0.91997 l 0.321298,4.73146 q 0.139896,1.86056 -2.190202,2.03576 -0.137065,0.0103 -0.165501,0.0904 -0.02844,0.0801 0.111541,0.10855 0.454204,0.0828 1.05934,-0.11858 1.244531,-0.40542 1.491722,-1.24261 0.113749,-0.32039 0.0438,-1.25067 l -0.352653,-4.69012 q -0.04955,-0.65895 -0.446875,-0.90194 z m -5.165157,10.1335 q -0.282872,-0.0957 -0.308394,0.0232 -0.02261,0.15762 0.188818,0.21969 1.383011,0.51969 3.301914,0.37541 4.146204,-0.31175 4.513766,-2.75618 0.0197,-0.19638 -0.05176,-0.22999 -0.105717,-0.0311 -0.162588,0.12916 -0.699271,2.15753 -4.365749,2.43321 -1.918904,0.14429 -3.116013,-0.19449 z m -2.935062,-3.28755 q 0.04301,0.1137 0.180074,0.1034 0.09989,-0.0464 0.08823,-0.20154 -0.302482,-1.73138 -0.373137,-3.12937 -0.200308,-4.03891 0.566703,-4.83721 0.225291,-0.21185 0.04813,-0.27648 -0.145807,-0.10598 -0.302565,0.10071 -0.920149,1.51148 -0.657846,4.99999 0.166126,2.20941 0.450414,3.24051 z m 10.718228,-5.48357 q -0.02332,-0.3101 -0.126114,-0.30237 -0.134146,0.0491 -0.113749,0.3204 0.230244,3.06215 0.229452,4.42653 0.01457,0.19381 0.120286,0.22484 0.102798,-0.008 0.125407,-0.16535 0.062,-0.5504 -0.235282,-4.50405 z m -5.83574,6.71465 q -0.342661,0.0258 -0.333918,0.14205 0.01166,0.15504 0.354319,0.12928 0.376928,-0.0283 0.36527,-0.18339 -0.0087,-0.11628 -0.385671,-0.0879 z m -4.223479,0.20063 q -0.06853,0.005 -0.05979,0.12143 0.01749,0.23257 0.249314,0.56596 0.263179,0.29206 0.354319,0.12928 0,0 -0.271922,-0.40833 -0.237656,-0.41092 -0.271923,-0.40834 z" />
    <path
       inkscape:connector-curvature="0"
       id="path30"
       style="font-style:normal;font-variant:normal;font-weight:normal;font-stretch:normal;font-size:36.54740524px;line-height:125%;font-family:Dymo;-inkscape-font-specification:Dymo;letter-spacing:0px;word-spacing:0px;fill:#ffffff;fill-opacity:1;stroke:none;stroke-width:0.38070214px;stroke-linecap:butt;stroke-linejoin:miter;stroke-opacity:1;image-rendering:auto"
       d="m 54.561095,256.88858 14.700178,-1.10531 1.94396,25.85385 -14.700177,1.10531 z m 8.77571,16.80343 q -1.850372,0.13913 -2.66181,-0.1117 -1.197108,-0.33877 -1.290371,-1.57914 l -0.550838,-7.3259 0.137064,-0.0103 -0.11075,-1.47293 q -0.04955,-0.65894 -0.63207,-0.61514 -0.788122,0.0593 -0.729833,0.83448 0.01457,0.19381 0.163296,0.33855 0.180074,0.1034 0.197561,0.33597 l 0.533351,7.09333 q 0.16904,2.24816 1.183867,2.91249 1.014827,0.66432 3.995982,0.44017 2.364364,-0.17778 2.992104,-0.53682 1.32693,-0.68448 1.149147,-3.04893 l -0.323508,-4.30251 0.159673,-0.16793 -0.250646,-3.33348 q 0.17716,0.0646 0.153844,-0.24545 -0.08161,-1.08532 -0.801195,-1.03121 -0.239863,0.018 -0.524942,0.35131 -0.250814,0.33071 -0.233328,0.56327 0.0087,0.11629 0.260266,0.2533 0.282872,0.0957 0.32076,0.59956 0.02914,0.38763 0.09539,2.64352 0.100503,2.25331 0.123819,2.5634 0.238987,3.17843 -0.06579,3.7081 -0.481225,0.93273 -3.291049,1.144 z m 2.226303,-10.26335 0.439296,7.21735 q 0.04663,0.62018 -0.05254,1.13438 -0.09918,0.51421 -0.09918,0.51421 0.0087,0.11628 0.114458,0.14731 0.571573,0.26887 0.408362,-1.90177 l -0.53335,-7.09333 q -0.02332,-0.31009 -0.16038,-0.29979 -0.137065,0.0103 -0.116664,0.28164 z m -8.040514,8.55659 q 0.105627,1.86313 1.318018,2.86343 0.148721,0.14473 0.239863,-0.018 0.05978,-0.12144 -0.163296,-0.33855 -0.920772,-0.78833 -1.040266,-2.37756 l -0.486718,-6.47314 q -0.02332,-0.31009 -0.120286,-0.22485 -0.131235,0.0878 -0.116664,0.28164 z m 1.831014,-7.2711 q -0.06854,0.005 0.05096,1.59436 0.0204,0.27133 0.108541,1.90188 0.08523,1.59181 0.117285,2.01818 0.03206,0.42637 0.06774,1.35923 0.03789,0.50389 0.08382,0.65636 0.04593,0.15247 0.148723,0.14474 0.205596,-0.0155 0.05404,-2.03105 -0.02332,-0.31009 -0.120198,-2.05693 -0.131153,-1.74427 -0.157383,-2.09311 -0.113665,-1.5117 -0.353528,-1.49366 z m 8.456493,-1.64935 q -0.137065,0.0103 0.07569,2.8399 0.06412,0.85274 0.170449,3.18358 0.04955,0.65894 0.186612,0.64864 0.205596,-0.0155 -0.01882,-3.00009 -0.276876,-3.68234 -0.41394,-3.67203 z m -2.971499,12.26841 q 0.01749,0.23258 0.497214,0.19651 1.713307,-0.12883 2.704902,-1.60669 0.621205,-0.90428 0.490052,-2.64855 -0.06995,-0.93026 -0.30981,-0.91223 -0.06854,0.005 -0.01828,1.13181 0.06191,1.28171 -0.239947,1.85013 -0.515491,0.93531 -1.308734,1.38476 -0.499419,0.23245 -1.281712,0.36924 -0.542428,0.11875 -0.533686,0.23502 z m -5.426417,-0.21567 q -0.210718,0.40565 1.117627,0.6566 1.154097,0.22506 1.122038,-0.20131 -0.0204,-0.27133 -0.500127,-0.23526 -0.616791,0.0464 -1.145356,-0.10879 -0.497213,-0.19649 -0.462946,-0.19907 -0.06854,0.005 -0.131235,0.0878 z m 3.541779,0.35738 q -0.928096,0.0308 -0.916442,0.18586 0.01749,0.23256 0.914235,0.24309 0.999548,0.003 0.976232,-0.30728 -0.01457,-0.19381 -0.288702,-0.1732 -0.342661,0.0258 -0.685323,0.0515 z m -5.792599,-11.96026 q -0.102798,0.008 -0.110835,0.35915 -0.01095,0.31267 0.04955,0.65895 0.09476,0.34371 0.231828,0.3334 0.411194,-0.0309 0.07365,-0.39535 -0.148723,-0.14474 -0.143601,-0.53493 0.0022,-0.42895 -0.100596,-0.42122 z m 2.190115,-0.20371 q -0.205596,0.0155 -0.158964,0.63564 0.02332,0.31009 0.126114,0.30237 0.205596,-0.0155 0.18228,-0.32556 -0.04663,-0.62018 -0.14943,-0.61245 z" />
    <path
       inkscape:connector-curvature="0"
       id="path32"
       style="font-style:normal;font-variant:normal;font-weight:normal;font-stretch:normal;font-size:36.54740524px;line-height:125%;font-family:Dymo;-inkscape-font-specification:Dymo;letter-spacing:0px;word-spacing:0px;fill:#ffffff;fill-opacity:1;stroke:none;stroke-width:0.38070214px;stroke-linecap:butt;stroke-linejoin:miter;stroke-opacity:1;image-rendering:auto"
       d="m 68.781513,255.81934 14.220452,-1.06924 1.94396,25.85385 -14.220452,1.06924 z m 9.503836,5.40535 -4.79726,0.3607 q -1.713308,0.12883 -1.730086,0.36398 -0.03064,0.50905 0.209219,0.49102 0.03427,-0.003 0.09697,-0.0853 0.09697,-0.0853 0.134146,-0.0491 0.03719,0.0362 0.05467,0.26876 0.280495,4.1888 0.525147,11.10894 l -0.716671,0.0929 q -0.137064,0.0103 -0.125406,0.16535 0.01457,0.19381 0.151637,0.18351 l 0.551169,-0.003 q 0.05538,0.73648 0.466569,0.70556 0.376928,-0.0283 0.721795,-0.48306 -0.306104,-2.23786 -0.368719,-3.98727 -0.05388,-1.63313 0.151721,-1.64859 0,0 0.314224,0.0543 0.311314,0.0156 0.756774,-0.0179 l 4.557398,-0.34267 q 1.336379,-0.10048 1.452959,1.44998 0.271047,3.60481 -0.01695,3.89932 -0.06562,0.0439 -0.05978,0.12144 0.01457,0.19381 0.266093,0.33082 0.285788,0.13443 0.45129,0.044 0.462239,-0.26863 0.437508,-1.51415 -0.0029,-0.0387 -0.212757,-2.82958 -0.04955,-0.65895 -0.401659,-1.21718 -0.352113,-0.55823 -0.737784,-0.64617 0.920149,-1.51147 0.771511,-3.4883 -0.265219,-3.52729 -2.903713,-3.3289 z m -5.415549,1.30375 q 2.986984,-0.14662 5.588293,-0.38125 0.582525,-0.0438 1.111797,0.57908 0.529272,0.62286 0.593391,1.47562 0.244816,3.25596 -0.686199,3.24799 -3.689793,-0.0344 -5.51976,0.37611 -0.16842,0.0516 -0.191026,0.20925 0.0087,0.1163 -0.02552,0.11887 -0.271219,0.0593 -0.522736,-0.0776 -0.189442,-2.51949 -0.348243,-5.54802 z m 6.577433,4.06616 q 0.464446,-0.69758 0.365353,-2.01548 -0.11075,-1.47293 -0.756685,-1.81416 -0.82601,-0.44465 -4.951813,0.13844 -0.511073,0.0775 -0.499419,0.23245 0.01749,0.23258 0.537308,0.27145 0.34558,0.013 1.06225,-0.0799 0.853735,-0.10323 0.956534,-0.11096 0.308395,-0.0232 0.822387,-0.0618 0.545348,-0.0799 0.716679,-0.0928 1.541976,-0.11594 1.678956,1.70584 0.08452,1.12409 -0.05767,1.52458 -0.08531,0.2403 -0.04231,0.35401 0.04301,0.1137 0.168412,-0.0517 z m -6.040918,-2.43034 q 0.112874,2.87607 0.258684,2.98205 0.145808,0.10599 2.133245,-0.0435 2.021703,-0.15201 2.041396,-0.3484 -0.01166,-0.15505 -1.656432,-0.0314 -1.887557,0.10288 -2.30749,0.0176 0.0438,-1.25067 -0.03198,-2.25846 -0.06412,-0.85275 -0.338248,-0.83214 -0.137064,0.0103 -0.09918,0.5142 z m 0.836002,5.16054 0.243485,0.48843 4.132339,-0.0378 q 0.965281,0.005 0.921564,-0.57603 -0.01166,-0.15505 -0.285787,-0.13444 z m -2.760651,-6.92587 q 0.1028,-0.008 0.726499,8.28721 0.192356,2.55825 -0.01324,2.57371 -0.17133,0.0129 -0.430719,-3.43688 -0.556667,-7.40343 -0.282538,-7.42404 z m 2.458793,7.49429 q -0.09918,0.51421 0.04072,2.37475 0.136981,1.82179 0.279874,1.889 0.274129,-0.0206 0.05846,-2.88895 -0.09618,-1.27913 -0.37905,-1.3748 z m 6.256839,-0.19759 q -0.02332,-0.31009 -0.126114,-0.30237 -0.308395,0.0232 -0.224583,0.67956 0.09256,0.77266 0.152258,2.48331 0.03859,0.97161 0.175661,0.96131 0.239863,-0.018 0.200559,-1.45737 -0.09035,-1.2016 -0.177784,-2.36444 z m 1.439262,-1.94031 q 0.475397,-1.01025 0.350074,-2.67699 -0.06995,-0.93028 -0.262387,-1.65644 -0.04884,-0.19123 -0.126115,-0.30236 -0.07728,-0.11113 -0.108628,-0.0698 -0.03136,0.0413 0.02332,0.31009 0.478143,2.69268 -0.09352,4.2559 -0.08823,0.20154 0.05176,0.23 0.108627,0.0698 0.165501,-0.0904 z m 0.422061,1.48851 q -0.205598,0.0155 -0.103591,1.37211 0.102007,1.35665 0.307605,1.34119 0.06853,-0.005 -0.03348,-1.3618 -0.102007,-1.35665 -0.170535,-1.3515 z" />
    <path
       inkscape:connector-curvature="0"
       id="path34"
       style="font-style:normal;font-variant:normal;font-weight:normal;font-stretch:normal;font-size:36.54740524px;line-height:125%;font-family:Dymo;-inkscape-font-specification:Dymo;letter-spacing:0px;word-spacing:0px;fill:#ffffff;fill-opacity:1;stroke:none;stroke-width:0.38070214px;stroke-linecap:butt;stroke-linejoin:miter;stroke-opacity:1;image-rendering:auto"
       d="m 82.52221,254.78617 7.675617,-0.57713 1.943961,25.85385 -7.675617,0.57713 z m 4.546196,5.46628 q -0.314224,-0.0543 -0.376927,0.0283 l -0.376221,0.49605 q -0.188109,0.24803 0.138475,0.92512 0,0 0.134067,1.78302 0.02914,0.38762 0.287829,3.36967 0.290028,2.94071 0.260884,2.5531 0.233158,3.10091 0.162505,1.70292 0.04734,1.0879 -0.203474,1.41861 -0.03136,0.0413 -0.02261,0.15762 0.02332,0.31009 0.323675,0.63832 0.30036,0.32825 0.677287,0.29991 0.479726,-0.0361 0.381342,-0.88625 -0.620161,-5.95637 -0.489634,-6.51192 -0.119493,-1.58921 -0.393455,-5.23279 -0.02332,-0.31009 -0.2464,-0.52719 -0.225998,-0.25587 -0.25735,-0.21453 z m -1.159388,3.8293 q 0.02332,0.3101 0.228913,0.29464 0.239864,-0.018 0.122493,-0.20412 -0.09184,-0.30494 -0.05246,-0.6977 0.04813,-0.27649 -0.08893,-0.26619 -0.27413,0.0206 -0.21001,0.87337 z m 0.776045,8.94616 q 0.01166,0.15504 0.180074,0.1034 0.16842,-0.0516 0.09114,-0.16278 -0.0831,-0.18866 -0.106416,-0.49875 -0.02332,-0.31009 -0.01308,-1.09046 0.04159,-0.82173 0.0095,-1.2481 -0.03497,-0.46514 -0.126827,-0.77008 -0.25356,-3.37223 -0.337375,-4.0286 -0.0605,-0.34628 -0.197561,-0.33598 -0.05979,0.12145 -0.119578,0.24288 z" />
    <path
       inkscape:connector-curvature="0"
       id="path36"
       style="font-style:normal;font-variant:normal;font-weight:normal;font-stretch:normal;font-size:36.54740524px;line-height:125%;font-family:Dymo;-inkscape-font-specification:Dymo;letter-spacing:0px;word-spacing:0px;fill:#ffffff;fill-opacity:1;stroke:none;stroke-width:0.38070214px;stroke-linecap:butt;stroke-linejoin:miter;stroke-opacity:1;image-rendering:auto"
       d="m 89.718067,254.24511 12.644213,-0.95072 1.94396,25.85385 -12.644212,0.95073 z m 7.809433,6.70218 q 1.638945,-0.2012 3.27789,-0.40239 0.54535,-0.0799 0.52494,-0.35132 -0.0583,-0.77523 -1.497464,-0.66702 l -7.167454,0.46096 q -0.993718,0.0747 -0.9296,0.92747 0.02332,0.31009 0.711553,0.29731 0.239863,-0.018 3.152485,-0.23703 0.08823,-0.20153 0.565038,-0.27637 0.476808,-0.0749 0.491384,0.11898 0.01749,0.23256 -0.05105,0.23771 -0.03427,0.003 -0.211426,-0.0621 -0.142894,-0.0672 -0.279959,-0.0569 -0.236945,0.0569 -0.256642,0.25318 0.01457,0.19381 0.288702,0.1732 0.145808,0.10598 0.103501,0.45999 -0.01678,0.23514 -0.06782,0.47285 l 0.192272,4.39035 0.340997,4.53511 q 0.02332,0.31009 -0.118871,0.71058 -0.1451,0.36174 -0.139271,0.43926 0.0058,0.0775 0.114456,0.14732 0.108629,0.0698 0.340455,0.40318 0.151638,0.18351 0.460032,0.16032 0.616792,-0.0464 0.573075,-0.6278 l -0.808095,-9.37253 q -0.01749,-0.23257 0.03938,-0.39277 0.08823,-0.20153 0.062,-0.55038 -0.07286,-0.96904 -0.324383,-1.10605 -0.07436,-0.0724 0.05396,-0.19896 0.128322,-0.12658 0.299653,-0.13947 0.205597,-0.0155 0.260264,0.2533 z m -1.358784,11.71836 q 0.205596,-0.0155 0.103589,-1.37211 l -0.485214,-7.36981 q -0.134066,-1.78303 -0.476727,-1.75726 -0.171331,0.0129 -0.145101,0.36172 0.01749,0.23258 0.09477,0.34371 0.07436,0.0724 0.09476,0.3437 -0.0058,-0.0775 0.147143,2.87349 0.141306,2.79598 0.292154,4.34385 0.203309,2.24559 0.374637,2.2327 z m 1.535068,-8.45726 q 0.05758,0.30752 0.188817,0.21968 0.09989,-0.0464 0.119578,-0.24287 -0.01528,-0.66152 -0.03348,-1.3618 -0.02111,-0.73904 0.215839,-0.79584 0.853735,-0.10323 1.704564,-0.24511 0.990797,-0.11353 1.347327,-0.41315 0.12832,-0.12658 0.15968,-0.16793 -0.0372,-0.0362 -0.0744,-0.0724 -0.0685,0.005 -0.19977,0.093 -0.0999,0.0464 -0.36527,0.18338 -0.13414,0.0491 -0.14289,-0.0672 -0.009,-0.11629 0.0139,-0.27391 -0.009,-0.11629 -0.13997,-0.0284 -0.39662,0.22472 -1.116212,0.27882 -0.959452,0.0722 -1.130783,0.085 -0.09988,0.0466 -0.09697,0.0853 0.0029,0.0388 -0.03135,0.0414 -0.342662,0.0258 -0.371098,0.10587 -0.253728,0.29194 -0.163379,1.49354 0.03497,0.46514 0.115874,1.08275 z m -3.064883,-2.2643 q 0.205596,-0.0155 0.396621,-0.22473 0.02553,-0.11885 0.0197,-0.19638 -0.962371,0.0333 -2.735462,0.28365 -0.305485,0.0619 -0.331004,0.18081 0.0087,0.11628 0.182989,0.14216 0,0 2.467162,-0.18551 z m 3.330891,4.42721 q -0.137064,0.0103 -0.04089,1.28943 0.09326,1.24037 0.230328,1.23007 0.137065,-0.0103 0.0438,-1.25068 -0.09618,-1.27913 -0.233244,-1.26882 z" />
    <path
       inkscape:connector-curvature="0"
       id="path38"
       style="font-style:normal;font-variant:normal;font-weight:normal;font-stretch:normal;font-size:36.54740524px;line-height:125%;font-family:Dymo;-inkscape-font-specification:Dymo;letter-spacing:0px;word-spacing:0px;fill:#ffffff;fill-opacity:1;stroke:none;stroke-width:0.38070214px;stroke-linecap:butt;stroke-linejoin:miter;stroke-opacity:1;image-rendering:auto"
       d="m 101.88253,253.33046 13.84352,-1.0409 1.94397,25.85385 -13.84353,1.0409 z m 11.88569,5.46014 q -0.0408,-0.54265 -0.86902,-0.55834 0.17133,-0.0129 -1.23358,0.0928 -3.39235,0.25507 -5.09983,0.46142 -1.1964,0.12889 -1.15851,0.63284 0.0117,0.15504 0.19465,0.29721 0.21725,0.13958 0.2464,0.52719 l 0.69215,10.12188 q -0.57307,0.6278 -0.56433,0.74409 0.0401,0.075 0.10863,0.0698 0.41702,0.0466 0.54314,0.34898 0.12611,0.30236 0.16038,0.29978 0.10279,-0.008 0.11957,-0.24288 0.051,-0.23771 0.10792,-0.39791 l 6.30789,-0.43526 q 0.4112,-0.0309 0.67146,0.22238 0.25735,0.21452 0.32588,0.20937 0.51399,-0.0387 0.44696,-0.93016 -0.0379,-0.5039 -0.65468,-0.45752 -6.3735,0.47922 -6.3735,0.47922 -0.33975,0.0645 -0.52274,-0.0776 -0.15163,-0.18349 -0.0977,-0.38246 0.0824,-0.27906 0.0176,-1.59952 -0.0561,-1.20418 0.089,-1.56592 0.0313,-0.0414 0.0255,-0.11886 -0.003,-0.0388 -0.22017,-0.17835 -0.18299,-0.14216 -0.20339,-0.41349 -0.0408,-0.54266 0.33612,-0.57101 0.17133,-0.0129 0.25152,0.13702 0.0802,0.14989 0.14872,0.14474 0.1028,-0.008 0.23404,-0.0956 0.1655,-0.0904 0.30256,-0.10071 l 2.94689,-0.22158 q 1.54198,-0.11594 1.43918,-0.10821 0.51108,-0.0774 0.47028,-0.62007 -0.035,-0.46514 -1.40562,-0.36208 -0.2056,0.0155 -1.84163,0.25542 -1.63603,0.23996 -2.56122,0.30952 -0.37693,0.0283 -0.4119,-0.4368 -0.006,-0.0775 -7.1e-4,-0.46771 0.0394,-0.39276 -0.0247,-1.24552 -0.0262,-0.34885 -0.19606,-1.23263 -0.13849,-0.92512 -0.15015,-1.08017 -0.0466,-0.62018 0.29603,-0.64595 0.2056,-0.0155 0.38859,0.12671 0.18007,0.1034 0.28287,0.0957 0.17133,-0.0129 0.4338,-0.18854 l 5.03713,-0.37875 q 0.1028,-0.008 0.48264,0.003 0.27705,0.0182 0.37693,-0.0283 0.12833,-0.12659 0.10501,-0.43668 z m -0.50408,6.58663 q -0.006,-0.0775 -0.33975,0.0646 -0.46515,0.22989 -0.77354,0.25307 l -3.73502,0.28084 q -0.23986,0.018 -0.27995,-0.0569 -0.043,-0.1137 -0.14581,-0.10597 -0.0685,0.005 -0.11958,0.24288 -0.054,0.19895 -0.19102,0.20926 -0.1028,0.008 -0.2457,-0.0595 0.004,0.50647 0.004,0.97419 0.19968,1.73911 0.19968,1.73911 0.0146,0.1938 0.15455,0.22226 0.17425,0.0259 0.15384,-0.24545 l -0.13768,-2.2895 q 0.36818,-0.14462 1.29337,-0.21419 0.61679,-0.0464 1.64768,-0.085 1.06516,-0.0412 1.16796,-0.0489 1.40491,-0.10563 1.34662,-0.88086 z m -8.28554,-6.15962 q -0.17133,0.0129 0.26876,5.86585 0.44008,5.85298 0.61142,5.8401 0.13706,-0.0103 0.0729,-0.86306 0.0583,0.77523 -0.37597,-5.00022 -0.10492,-1.39541 -0.25426,-3.83996 -0.0991,-1.31788 -0.15959,-1.66416 -0.0605,-0.34628 -0.1633,-0.33855 z m 1.92415,12.75789 q 0.0175,0.23256 0.4943,0.15773 1.08777,-0.19873 1.2591,-0.21161 0.47973,-0.0361 1.5879,0.0365 1.14244,0.07 1.99909,0.006 2.22731,-0.16747 2.2069,-0.4388 -0.0204,-0.27132 -6.3312,0.12522 -1.23358,0.0928 -1.21609,0.32533 z m 0.81706,-11.13192 4.93724,-0.33219 q 1.02799,-0.0773 1.46691,-0.65602 0.28216,-0.37205 -0.0948,-0.34371 0,0 -0.29091,0.25576 -0.25956,0.21442 -1.04476,0.31244 0.22529,-0.21184 -0.0146,-0.19381 l -5.07722,0.30379 q -0.30839,0.0232 -0.27925,0.4108 0.0204,0.27133 0.39733,0.24299 z m 0.81252,8.51463 q -0.27413,0.0206 -0.26247,0.17566 0.0146,0.19381 0.32296,0.17062 0.65106,-0.049 2.5984,-0.27334 1.94734,-0.22439 2.05014,-0.23212 0.41119,-0.0309 0.97111,0.0829 0.27996,0.0569 0.26539,-0.1369 -0.0204,-0.27134 -0.70573,-0.21981 z m -0.74849,-5.82978 q -0.20559,0.0154 -0.19102,0.20926 0.0204,0.27133 0.46878,0.2766 0.89092,-0.067 1.74757,-0.1314 2.50435,-0.14926 2.48103,-0.45941 -0.0372,-0.0362 -0.24279,-0.0208 l -3.62638,0.35063 q -0.30839,0.0232 -0.4542,-0.0828 -0.14872,-0.14474 -0.18299,-0.14217 z m -0.39433,-2.03632 q -0.0233,-0.31009 -0.12611,-0.30236 -0.2056,0.0155 -0.17354,0.44183 0.0904,1.2016 0.25947,1.61767 0.10572,0.0311 0.19686,-0.13174 z" />
    <path
       inkscape:connector-curvature="0"
       id="path40"
       style="font-style:normal;font-variant:normal;font-weight:normal;font-stretch:normal;font-size:36.54740524px;line-height:125%;font-family:Dymo;-inkscape-font-specification:Dymo;letter-spacing:0px;word-spacing:0px;fill:#ffffff;fill-opacity:1;stroke:none;stroke-width:0.38070214px;stroke-linecap:butt;stroke-linejoin:miter;stroke-opacity:1;image-rendering:auto"
       d="m 115.2463,252.32564 14.18619,-1.06667 1.94396,25.85385 -14.18619,1.06667 z m 7.81606,5.41531 q -2.98116,0.22415 -3.78243,1.02503 -0.76993,0.75955 -0.58923,3.16275 0.11949,1.58922 1.02277,2.14499 0.90038,0.51701 3.29901,0.33665 2.2273,-0.16747 2.71868,-0.0485 1.43698,0.32073 1.56813,2.06499 0.10784,1.43418 -0.53669,2.02837 -0.74149,0.67944 -2.96878,0.84691 -2.80983,0.21127 -3.33619,-0.37284 -0.1859,-0.18093 -0.56133,-1.04925 -0.2865,-0.60214 -0.62915,-0.57637 -0.75387,0.0567 -0.70141,0.75438 0.0408,0.54266 0.45421,0.0828 0.25152,0.13701 0.5125,0.85801 0.25805,0.68225 0.93242,0.94339 0.99735,0.43176 3.25891,0.26171 2.29583,-0.17263 3.24875,-0.79 1.38089,-0.88344 1.22059,-3.01532 -0.16904,-2.24816 -1.58923,-2.80404 -0.783,-0.33094 -2.83897,-0.17635 -2.46717,0.18551 -2.78138,0.13117 -1.36553,-0.28714 -1.50834,-2.18645 -0.12532,-1.66674 1.03902,-2.22205 0.53368,-0.23502 2.45259,-0.37931 2.15877,-0.16232 3.01612,0.24098 0.75165,0.37227 0.83034,1.41883 0.0495,0.65894 0.35795,0.63575 0.61679,-0.0464 0.54393,-1.01541 -0.19819,-2.63578 -4.65279,-2.30083 z m -4.53046,1.15924 q -0.25444,-0.17578 -0.57016,0.66656 -0.34125,0.96118 -0.26547,1.96899 0.17195,2.28691 0.98994,3.08299 1.1956,1.23544 4.62221,0.97779 1.98744,-0.14944 2.62464,0.0755 0.49721,0.19649 0.58102,0.85287 0.0809,0.61761 -0.24136,0.9147 -0.288,0.29451 -0.28509,0.33328 0.006,0.0775 0.17717,0.0646 0.68532,-0.0515 0.58332,-1.40818 -0.10784,-1.43417 -0.72463,-1.3878 -1.23358,0.0928 -3.12988,0.0794 -2.55319,-0.0419 -2.95343,-0.32366 -1.01774,-0.70309 -1.37859,-1.3776 -0.36086,-0.67452 -0.45995,-1.99241 -0.10492,-1.3954 0.22246,-2.08269 0.2078,-0.44441 0.2078,-0.44441 z m 10.09944,6.45202 q -0.046,-0.15247 -0.11154,-0.10855 -0.0656,0.0439 -0.0511,0.23771 0.25506,2.47557 -0.35449,3.53491 -0.94276,1.66908 -4.3351,1.92415 -2.77556,0.2087 -4.03899,-0.55387 -0.14581,-0.10598 -0.17425,-0.0258 -0.0627,0.0827 0.0831,0.18866 0.91494,0.71082 2.30308,0.84032 0.72832,0.0622 2.64723,-0.0821 1.74758,-0.1314 2.85142,-1.03298 1.56025,-1.24776 1.3679,-3.80601 -0.0583,-0.77523 -0.18732,-1.11635 z m -5.65551,3.15388 q -0.68531,0.0515 -1.49383,-0.16055 -0.91425,-0.2431 -1.11471,-0.61783 -0.0773,-0.11113 -0.14581,-0.10598 -0.0656,0.0439 0.0146,0.19381 0.33533,0.79337 1.41507,0.94607 1.07681,0.11393 1.08556,0.23023 0.006,0.0775 1.44501,-0.0307 1.33638,-0.10048 1.31306,-0.41057 -0.0175,-0.23257 -0.63719,-0.22495 1.2365,-0.0541 -1.88173,0.18041 z m -1.41922,-5.58445 q 1.55071,3.4e-4 3.06717,0.003 1.82485,-0.0203 2.83968,0.64405 0.10862,0.0698 0.17424,0.0258 0.097,-0.0853 -0.0117,-0.15505 -1.58128,-1.32338 -6.05266,-0.75329 -0.27413,0.0206 -0.26538,0.13689 0.04,0.075 0.2486,0.0983 z m -1.80436,-1.54049 q 0.0874,1.16284 0.53288,1.12934 0.17134,-0.0129 0.15385,-0.24545 -0.009,-0.11629 -0.15455,-0.22226 -0.14872,-0.14474 -0.18953,-0.6874 -0.0554,-0.73646 1.06083,-1.0153 0.50526,-0.15493 2.04723,-0.27087 1.54198,-0.11594 2.19083,0.26406 0.42868,0.20164 0.53219,0.66163 0.10059,0.42122 0.27192,0.40834 0.30257,-0.10072 -0.0445,-1.04913 -0.43302,-1.17584 -3.14004,-0.9723 -2.39863,0.18035 -2.22438,0.20629 -0.41702,-0.0466 -0.39953,0.18596 0.006,0.0775 0.14872,0.14474 0.14289,0.0672 0.14581,0.10598 -0.006,-0.0775 -0.49651,0.27122 -0.49067,0.34874 -0.4353,1.0852 z m -1.29734,7.03608 q -0.043,-0.11372 -0.14289,-0.0672 -0.0999,0.0466 -0.0824,0.27906 0.0816,1.08532 0.32147,1.06728 0.13706,-0.0103 0.0161,-0.70285 z" />
  </g>
</svg>
