<?xml version="1.0" encoding="UTF-8" standalone="no"?>
<!-- Created with Inkscape (http://www.inkscape.org/) -->

<svg
   xmlns:dc="http://purl.org/dc/elements/1.1/"
   xmlns:cc="http://creativecommons.org/ns#"
   xmlns:rdf="http://www.w3.org/1999/02/22-rdf-syntax-ns#"
   xmlns:svg="http://www.w3.org/2000/svg"
   xmlns="http://www.w3.org/2000/svg"
   xmlns:sodipodi="http://sodipodi.sourceforge.net/DTD/sodipodi-0.dtd"
   xmlns:inkscape="http://www.inkscape.org/namespaces/inkscape"
   width="400"
   height="150"
   viewBox="0 0 105.83333 39.687501"
   version="1.1"
   id="svg8"
   inkscape:version="0.92.5 (2060ec1f9f, 2020-04-08)"
   sodipodi:docname="auto-favorites.svg">
  <defs
     id="defs2" />
  <sodipodi:namedview
     id="base"
     pagecolor="#ffffff"
     bordercolor="#666666"
     borderopacity="1.0"
     inkscape:pageopacity="0.0"
     inkscape:pageshadow="2"
     inkscape:zoom="1.53125"
     inkscape:cx="202.15232"
     inkscape:cy="57.882286"
     inkscape:document-units="mm"
     inkscape:current-layer="layer1"
     showgrid="false"
     units="px"
     inkscape:pagecheckerboard="true"
     inkscape:window-width="1366"
     inkscape:window-height="740"
     inkscape:window-x="0"
     inkscape:window-y="0"
     inkscape:window-maximized="1" />
  <metadata
     id="metadata5">
    <rdf:RDF>
      <cc:Work
         rdf:about="">
        <dc:format>image/svg+xml</dc:format>
        <dc:type
           rdf:resource="http://purl.org/dc/dcmitype/StillImage" />
        <dc:title></dc:title>
      </cc:Work>
    </rdf:RDF>
  </metadata>
  <g
     inkscape:label="Layer 1"
     inkscape:groupmode="layer"
     id="layer1"
     transform="translate(0,-257.31248)">
    <path
       inkscape:connector-curvature="0"
       id="path18"
       style="font-style:normal;font-variant:normal;font-weight:normal;font-stretch:normal;font-size:53.33333588px;line-height:125%;font-family:'Top Secret';-inkscape-font-specification:'Top Secret';letter-spacing:0px;word-spacing:0px;fill:#ffffff;fill-opacity:1;stroke:none;stroke-width:0.32318085px;stroke-linecap:butt;stroke-linejoin:miter;stroke-opacity:1"
       d="m 4.2093662,269.33813 q 0.1601144,-0.0186 0.1601144,-0.065 l 0.243984,0.0372 0.6938293,-0.009 h 0.00762 v 1.17984 Q 4.971816,270.42507 4.971816,270.34145 l -0.2363595,0.0464 -0.030498,-0.0372 h -0.030498 q -0.038123,0.0558 -0.3507269,0.0836 0.038122,0.2787 0.1143674,0.39947 -0.060996,0.36231 -0.1829879,0.52024 l 0.030498,0.14864 -0.030498,0.11148 0.030498,0.29728 -0.030498,0.0372 0.030498,0.1858 v 0.11148 l -0.030498,0.52025 0.030498,0.0372 v 0.0372 l -0.060996,0.22296 0.091494,0.66888 v 0.11148 l -0.060996,0.29728 v 0.1858 q 0,0.26941 0.091494,0.66888 l -0.030498,0.11149 0.030498,0.52024 v 0.14864 l -0.121992,0.59456 q 0.1524899,0.65959 0.1524899,0.89184 -0.091494,0 -0.091494,0.14865 l 0.030498,0.22296 -0.030498,0.29728 0.030498,0.0372 -0.030498,0.0372 v 0.0372 q 0,0.66888 0.1219919,1.44924 l -0.1219919,0.40877 0.060996,0.48308 -0.030498,0.29728 0.060996,0.22296 v 0.14864 q 0,0.17651 -0.091494,0.3716 l 0.030498,0.33444 q -0.038123,0 -0.121992,0.37161 0.038123,0.19509 0.15249,0.29728 l 0.030498,0.14864 -0.030498,0.26012 0.030498,0.0372 -0.091494,1.33776 0.030498,0.14865 -0.091494,0.44592 0.030498,0.40876 -0.030498,0.29728 0.091494,0.52024 -0.030498,0.31586 0.2287349,0.0557 0.5413394,-0.12077 0.2592329,0.0464 -0.015249,1.0312 -0.030498,0.0372 -0.030498,-0.0372 H 5.1166815 l -0.6328334,0.12077 q -0.3583514,-0.0186 -0.5718374,-0.0464 v -0.0929 l -0.5337148,-0.0372 0.083869,-0.71534 q -0.083869,0 -0.1219919,-0.5574 l 0.030498,-0.14864 v -0.29728 l 0.091494,-0.29728 -0.091494,-0.48308 0.030498,-0.11148 q -0.030498,-0.48309 -0.091494,-0.48309 l 0.030498,-0.1858 -0.030498,-0.14864 q 0.1524899,-0.20438 0.1524899,-0.70604 l -0.060996,-0.0743 v -0.0372 l 0.030498,-0.14864 -0.060996,-0.14864 0.060996,-0.29728 -0.091494,-0.59457 0.1219919,-0.26012 -0.060996,-0.22296 0.030498,-0.0372 v -0.0372 l -0.030498,-0.3716 0.091494,-0.33444 q -0.1219919,-0.22296 -0.1219919,-0.66888 l 0.060996,-0.33445 q 0,-0.26012 -0.060996,-0.40876 l 0.030498,-0.40876 v -0.33444 l -0.030498,-0.0372 0.060996,-0.29728 -0.030498,-0.14864 0.030498,-0.11148 -0.091494,-0.22296 0.091494,-0.59457 -0.030498,-0.7432 q 0,-0.48308 0.091494,-0.78036 -0.2134859,-0.38089 -0.2134859,-0.52025 v -0.11148 l 0.1219919,-0.70604 V 273.658 l -0.060996,-0.26012 0.060996,-0.63172 q 0,-0.17652 -0.1524899,-0.55741 0,-0.1858 0.2134859,-0.52024 v -0.0743 l -0.091494,-0.11148 v -0.0372 h 0.060996 v -0.0372 Q 3.309675,271.27969 3.309675,271.16821 l 0.030498,-0.29728 -0.030498,-0.0372 q 0.091494,-0.0372 0.091494,-0.22296 -0.00762,-0.55741 -0.060996,-0.55741 l 0.091494,-0.40876 -0.030498,-0.22296 v -0.0372 q 0,-0.11148 0.396474,-0.14864 v -0.0372 q 0.2821064,0.0186 0.4117229,0.13935 z" />
    <path
       inkscape:connector-curvature="0"
       id="path20"
       style="font-style:normal;font-variant:normal;font-weight:normal;font-stretch:normal;font-size:53.33333588px;line-height:125%;font-family:'Top Secret';-inkscape-font-specification:'Top Secret';letter-spacing:0px;word-spacing:0px;fill:#ffffff;fill-opacity:1;stroke:none;stroke-width:0.32318085px;stroke-linecap:butt;stroke-linejoin:miter;stroke-opacity:1"
       d="m 11.925358,271.6978 1.128426,0.26012 v 0.68746 l -0.07625,0.0836 0.144866,0.68746 -0.06862,0.34373 0.137241,1.29132 v 0.34373 q 0,0.44592 -0.213486,0.51095 h -0.137241 q -0.510841,0 -0.564213,-0.77107 -0.106743,0 -0.564212,-1.20771 -0.23636,0 -0.777699,-0.51095 -0.91494,-0.38089 -0.91494,-1.29132 0.251608,-0.26012 0.846319,-0.26012 h 0.282107 l 0.282106,0.0929 z m -2.8896845,0.0836 0.2058615,0.0836 v 0.26012 l 0.1448655,0.52024 -0.1448655,0.9383 H 9.31778 l -0.076245,0.26012 0.2821065,0.86397 -0.06862,0.51096 0.1448656,0.52024 q -0.2821066,0.13935 -0.4269721,2.31322 l 0.068621,0.26012 -0.137241,1.03119 0.213486,0.85469 -0.076245,0.34373 v 0.17651 l 0.076245,0.0836 -0.076245,0.0836 v 0.94758 l 0.076245,0.77108 -0.076245,0.0836 v 0.0929 q 0,0.85468 0.426972,0.85468 0.3049798,0.21367 0.419347,0.60385 0,0.44593 -0.419347,0.77108 H 9.0356735 q -0.350727,-0.42734 -1.1970463,-0.42734 H 7.4116555 q -0.396474,0 -1.1970463,0.42734 l -0.7776989,-0.0836 h -0.06862 l -0.2821065,-1.0312 q 0.2821065,-0.26012 0.6328334,-0.26012 l 0.2821064,-1.71866 q 0,-0.88255 -0.2821064,-1.45853 l 0.2821064,-1.11481 -0.137241,-0.52024 0.06862,-0.51095 -0.1448654,-0.17651 v -0.0836 l 0.2134859,-0.34373 v -0.0836 l -0.2134859,-0.42735 0.2821063,-0.60385 q -0.083869,-0.85468 -0.2058614,-0.85468 0.1524901,-1.0312 0.350727,-1.0312 v -0.17651 l -0.213486,-0.51095 0.06862,-0.26012 q 0,-0.86397 -0.8463192,-0.86397 l -0.06862,-0.0836 v -0.42735 q 0.182988,-0.42734 0.5642129,-0.42734 h 1.3419117 l 1.0598053,0.16722 0.06862,-0.0836 h 0.06862 l 0.4269718,0.0836 h 0.137241 q 0.1067431,0 0.2134869,-0.34373 z m 2.4627135,3.69744 0.564212,0.77107 -0.205861,0.26012 v 1.19842 l 0.137241,0.52024 -0.137241,0.42734 0.06862,0.94758 v 0.51096 l -0.426971,0.51095 q -0.564213,0 -0.564213,-0.59456 l 0.07625,-0.42735 q -0.84632,-0.72462 -0.84632,-1.55143 l -0.144865,-0.16722 v -0.17651 q 0.91494,-0.71534 0.91494,-1.19842 0,-1.03119 0.564213,-1.03119 z m 2.836313,-4.9423 -0.449846,-0.13006 q -0.426972,0.0372 -0.426972,0.22296 l -0.182988,-0.0743 -0.09149,0.0372 -0.182987,-0.0743 -0.182988,0.0372 q -0.312605,-0.0464 -0.365976,-0.11148 h -0.640458 l -0.426972,0.11148 -0.487968,-0.0743 -0.548964,0.0372 -0.6404576,-0.11148 q 0,0.10219 -0.4574698,0.14864 L 9.1271715,270.5181 H 8.8831837 l -0.2439842,-0.11148 -0.3964737,0.11148 -0.091494,-0.0372 q -0.396474,0.0372 -0.396474,0.11148 l -0.1524899,-0.0372 -0.1219921,0.0372 q -0.167739,-0.1858 -0.5794619,-0.1858 l -0.060996,0.0743 H 6.80932 l -0.121992,-0.0372 -0.1219918,0.0743 -0.2439841,-0.0743 -0.4879677,0.11148 -0.2134861,-0.14864 -0.182988,0.0743 -0.030498,-0.0372 h -0.030498 l -0.30498,0.0372 -0.060996,-0.0279 v -1.15196 l 0.030498,-0.009 h 0.121992 q 0.15249,0 0.3049799,0.11148 l 0.274482,-0.0372 q 0,0.0464 0.3049798,0.14864 0.1601145,-0.0464 0.2439842,-0.1858 l 0.1219917,-0.0372 0.2134861,0.0372 0.030498,-0.0372 1.0979277,0.11148 0.121992,-0.0372 0.3659759,0.11148 0.3354778,-0.0372 0.2439839,0.0372 0.4269721,-0.11148 0.5184657,0.0743 0.182988,-0.0743 h 0.1524899 l 0.243984,0.0743 0.09149,-0.0743 h 0.061 v 0.0372 l 0.701454,-0.0743 0.487968,0.11148 q 0.175363,-0.11148 0.365976,-0.11148 0.167739,0.11148 0.335478,0.11148 l 0.945438,-0.1858 0.45747,0.14864 0.487967,-0.0743 0.05337,0.009 z m -0.04575,17.01006 q -0.09912,0 -0.213486,-0.11148 h -0.0305 Q 13.73236,287.5466 13.496,287.5466 l -0.45747,-0.0743 -0.182988,0.0372 -0.15249,-0.0372 -0.0305,0.0372 -0.853944,-0.14864 -0.426972,0.14864 -0.213485,-0.0372 -0.335478,0.0743 -0.182988,-0.11148 -0.0305,0.0372 h -0.0305 l -0.121992,-0.0372 -0.274482,0.11148 -0.09149,-0.11148 -0.1524901,0.0372 h -0.30498 l -0.3659759,0.0372 -0.060996,-0.0743 -0.060996,0.0743 -0.3049797,-0.0372 h -0.274482 l -0.30498,0.1858 -0.4879679,-0.14864 -0.030498,0.0372 H 7.7318844 L 7.4879005,287.43513 H 7.1524224 l -0.121992,0.0743 -0.1219918,-0.0743 -0.2744819,0.0372 -0.030498,-0.0372 -0.2439838,0.0743 h -0.091494 l -0.3659759,-0.11148 -0.3049801,0.0743 -0.1219919,-0.0372 -0.4269719,0.11148 -0.030498,-0.0372 H 4.987065 v -1.16126 l 0.4879679,0.12077 0.3354779,-0.0372 0.1829881,0.0743 h 0.030498 l 0.030498,-0.0372 0.2439839,0.0743 q 0,-0.0836 0.518466,-0.22296 0.1143675,-0.14864 0.2439839,-0.1858 0.2211103,0.26012 0.4574698,0.26012 l 0.1524902,-0.11148 q 0.06862,0.12077 0.4574699,0.22296 l 0.3659759,-0.11148 0.3354778,0.0372 h 0.1524898 l 0.182988,-0.11148 q 0.1448655,0.11148 0.2744819,0.11148 0.259233,0 0.4269721,-0.0743 l 0.6709559,0.11148 q 0.04575,-0.14864 0.09149,-0.14864 h 0.274482 l 0.0305,-0.0372 0.396473,0.22296 h 0.0305 l 0.853943,-0.26012 0.15249,0.1858 q 0.182988,0 0.243984,0.0743 h 0.09149 l 0.15249,-0.11148 0.0305,0.0372 h 0.061 q 0.15249,0 0.15249,-0.11148 h 0.09149 v 0.0743 h 0.09149 l 0.09149,-0.11148 q 0.335478,0.0372 0.701454,0.1858 h 0.15249 q 0.061,0 0.144865,-0.0186 l 0.0076,1.09622 z" />
    <path
       inkscape:connector-curvature="0"
       id="path22"
       style="font-style:normal;font-variant:normal;font-weight:normal;font-stretch:normal;font-size:53.33333588px;line-height:125%;font-family:'Top Secret';-inkscape-font-specification:'Top Secret';letter-spacing:0px;word-spacing:0px;fill:#ffffff;fill-opacity:1;stroke:none;stroke-width:0.32318085px;stroke-linecap:butt;stroke-linejoin:miter;stroke-opacity:1"
       d="m 21.006135,271.72567 0.06862,0.0836 0.144865,0.16722 h 0.06862 l -0.137241,0.68746 0.282106,0.94759 0.282107,0.34373 v 1.80227 q 0.205861,0.23225 0.556588,2.06239 l 0.282107,0.34373 -0.06862,0.0836 v 0.34373 l 0.06862,0.34373 -0.06862,0.34373 0.426972,1.54215 h -0.07625 l 0.213486,0.42734 -0.213486,0.43663 q 0.243984,0 0.426972,1.0312 l -0.06862,0.59456 q 0,0.26012 0.632834,0.52024 l 0.205861,0.68747 -0.282106,0.25083 h -0.06862 l -0.205861,-0.16722 h -0.144866 l -0.914939,0.34373 h -0.06862 l -0.282106,-0.0836 -0.282107,0.0836 h -0.144865 l -0.350727,-0.26012 -1.479153,0.26012 q -0.365976,0 -0.564213,-0.42734 v -0.0929 q 0.426972,-0.31587 0.426972,-1.11481 l -0.144865,-0.59456 0.06862,-0.0929 -0.137241,-0.77108 0.06862,-0.0836 v -0.34373 h -0.632834 l -0.564212,0.16722 q -0.182988,-0.16722 -0.701454,-0.16722 l -0.07625,-0.0836 v -0.78036 q 0,-0.16722 0.426973,-0.25083 l 0.282106,0.34373 h 0.487968 l 0.358351,-0.0929 -0.213486,-1.45854 0.06862,-0.51095 q -0.213486,0 -0.495592,-1.88588 l 0.07624,-0.26012 -0.632833,-2.74985 0.06862,-0.25083 -0.06862,-0.78037 q 0.05337,-0.51095 0.419348,-0.51095 l 0.350726,0.0836 z m -3.377652,2.91707 h 0.06862 l 0.06862,0.26012 -0.06862,0.25084 0.06862,0.86397 q 0,1.12409 -0.419348,1.80227 0,1.07764 -0.564213,2.40612 l 0.06862,0.25083 -0.06862,0.60385 0.06862,0.60385 -0.213486,0.0836 0.06862,0.51096 -0.205861,0.68746 v 0.0836 q 0,0.75249 0.91494,0.86397 h 0.13724 v 0.0836 q 0,1.0312 -0.487967,1.0312 h -0.846319 q -0.23636,0 -0.495593,-0.26012 l -0.98356,0.26012 q -0.274482,0 -0.495593,-0.94759 v -0.16722 q 0.84632,0 0.84632,-0.94758 0.648082,-0.78965 1.197046,-2.74056 l -0.06862,-0.26012 0.770074,-3.1772 0.144865,-0.17651 -0.06862,-0.25083 q 0,-1.04977 0.564213,-1.71866 z m 7.433885,-4.28271 q -0.175363,-0.065 -0.175363,-0.11148 l -0.243984,0.0743 -0.0305,-0.0372 h -0.0305 l -0.182988,0.0743 -0.335478,-0.0372 -0.91494,0.22297 -0.762449,-0.11148 -0.45747,0.0372 -0.0305,-0.0372 -0.121992,0.0372 h -0.365976 l -0.396474,-0.14865 H 20.76977 l -0.30498,0.11149 h -0.0305 q -0.404098,0 -0.548964,-0.11149 l -0.213486,0.0743 -0.60996,-0.0743 q 0,0.0557 -0.426972,0.11149 l -0.274482,-0.0372 H 17.99445 q -0.800572,0 -0.884441,0.14864 h -0.15249 l -0.91494,-0.18581 -0.182988,0.0372 -0.335478,-0.0743 -0.548964,0.0743 h -0.121992 l -0.45747,0.14864 q -0.335477,0 -0.426971,-0.29729 0.152489,-0.2787 0.152489,-0.59456 l -0.0305,-0.14864 q 0,-0.26012 0.426972,-0.26012 l 0.640458,0.11148 q 0.114368,-0.11148 0.274482,-0.11148 h 0.121992 q 0.15249,0 0.182988,0.11148 l 0.853944,-0.11148 0.640458,0.22296 0.487968,-0.1858 v 0.0372 l 0.396474,-0.11148 0.182987,0.0372 0.121993,-0.0372 0.09149,0.11148 h 0.09149 l 0.09149,-0.11148 0.274482,0.0743 0.45747,-0.0743 q 0.106743,0.11148 0.45747,0.14864 l 0.15249,-0.11148 0.15249,0.11148 0.15249,-0.0372 0.121992,0.0372 0.213486,-0.0372 0.487968,0.0743 0.518466,-0.14864 0.426972,0.0743 0.182988,-0.0372 h 0.487968 l 0.274481,-0.11148 0.213486,0.0743 0.09149,-0.0372 0.213486,0.0743 h 0.0305 l 0.0305,-0.0372 0.426972,0.11148 0.121992,-0.0372 0.30498,0.0743 0.365976,-0.11148 h 0.09149 l 0.114367,0.0372 z m 0,17.0751 -0.106743,-0.0372 -0.853943,0.14864 -0.0305,-0.0372 -0.15249,0.0372 -0.182988,-0.0372 -0.45747,0.0743 q -0.23636,0 -0.548964,-0.11148 h -0.0305 q -0.114368,0.11148 -0.213486,0.11148 h -0.09149 q -0.182988,0 -0.365976,-0.22296 l -0.365976,0.0743 -0.121992,-0.0372 -0.121992,0.0372 h -0.243984 q -0.175363,0.14864 -0.274482,0.14864 l -0.243984,-0.0372 h -0.0305 l -0.0305,0.0372 -0.152489,-0.11148 -0.182988,0.11148 -0.182988,-0.0743 q -0.114368,0.11148 -0.274482,0.11148 h -0.09149 l -0.243984,-0.11148 q -0.60996,0 -1.189422,0.11148 -0.282107,0 -0.487968,-0.22296 0,0.14864 -0.426972,0.1858 l -0.182988,-0.0372 -0.213486,0.0743 q -0.404098,-0.0743 -0.487968,-0.14864 h -0.0305 l -0.0305,0.0372 -0.670956,-0.0743 q -0.388849,0 -0.487967,0.14864 h -0.061 l -0.121992,-0.11148 -0.182988,0.0743 -0.0305,-0.0372 h -0.09149 q -0.190613,0.0743 -0.731952,0.11148 l -0.213486,-0.14864 v -0.0372 l 0.0305,-0.0372 q 0.121992,-0.0557 0.121992,-0.11148 v -0.0372 l -0.09149,-0.11148 0.061,-0.26012 v -0.0372 q 0,-0.0743 -0.09149,-0.0743 v -0.14865 l 0.121992,-0.26012 q 0.350727,0 0.60996,0.11148 0.350727,0 0.45747,-0.14864 h 0.15249 l 0.518466,0.11148 h 0.09149 l 0.335477,-0.11148 q 0.648083,0.12077 0.76245,0.22296 h 0.121992 q 0.15249,0 0.182988,-0.11148 h 0.0305 l 0.0305,0.0372 h 0.121992 q 0,-0.0743 0.701454,-0.1858 l 0.182988,0.0372 h 0.0305 l 0.0305,-0.0372 q 0.121992,0.0557 0.121992,0.11148 l 0.213486,-0.0372 h 0.213486 l 0.792948,0.1858 0.30498,-0.14864 v 0.0372 q 0.289731,0 0.548964,-0.11148 l 0.304979,0.0743 q 0.579462,0 0.884442,-0.14864 0.60996,0.26012 0.823446,0.26012 h 0.15249 q 0.365976,-0.14864 0.701454,-0.1858 l 0.09149,0.11148 h 0.09149 v -0.0743 h 0.09149 q 0,0.11148 0.15249,0.11148 h 0.061 l 0.0305,-0.0372 0.15249,0.11148 h 0.09149 q 0.061,-0.0743 0.243984,-0.0743 l 0.152489,-0.1858 0.503217,0.15793 z" />
    <path
       inkscape:connector-curvature="0"
       id="path24"
       style="font-style:normal;font-variant:normal;font-weight:normal;font-stretch:normal;font-size:53.33333588px;line-height:125%;font-family:'Top Secret';-inkscape-font-specification:'Top Secret';letter-spacing:0px;word-spacing:0px;fill:#ffffff;fill-opacity:1;stroke:none;stroke-width:0.32318085px;stroke-linecap:butt;stroke-linejoin:miter;stroke-opacity:1"
       d="m 27.334469,271.6978 q 2.622827,0.23225 2.622827,0.42734 v 0.52024 l -0.495593,0.60386 v 0.34373 l 0.137241,0.17651 -0.06862,0.60385 q 0.05337,1.20771 0.282106,1.20771 l -0.06862,0.43663 v 0.16722 l 0.213486,0.78036 q 0.350727,0 0.922564,2.41541 l -0.07625,0.78037 q 0.144866,0 0.144866,0.86397 l 0.282106,0.42734 q -0.213486,0.41805 -0.213486,1.1241 v 0.60385 q -0.587086,1.63505 -0.846319,1.63505 l -0.991185,0.17651 q -0.701454,-0.0836 -0.922564,-0.34373 l 0.06862,-0.52025 q 0,-0.85468 -0.495592,-1.38421 l 0.06862,-0.0836 v -0.16722 q -0.777699,-3.39087 -1.273291,-4.49638 l 0.144865,-0.26012 q -0.144865,-1.29132 -0.709078,-2.67554 v -0.86397 q 0,-0.78965 -0.991185,-1.29131 l -0.144865,-0.52025 q 0.167739,-0.51095 0.282106,-0.51095 h 0.06862 l 0.571837,0.16722 h 0.350727 l 0.495593,-0.16722 0.426971,0.0836 z m 5.947108,0 h 0.28973 q 0.632834,0 0.632834,0.42734 0,0.95688 -0.632834,0.95688 l -0.922563,1.29131 q 0,1.67221 -0.495593,2.3318 l -0.06862,0.78037 q 0,0.42734 0.137242,0.42734 -0.350728,0.91971 -0.564214,2.24819 h -0.07625 l -0.205861,-0.17651 0.282106,-0.52025 q -0.282106,-0.62243 -0.358351,-1.55143 l 0.07625,-0.52024 -0.07625,-0.26013 q 0,-0.70604 0.495592,-1.46782 l 0.144865,-1.20771 v -0.42734 q 0,-0.7432 -0.640457,-1.2077 l -0.350727,-0.60386 0.06862,-0.26012 z m 1.883251,15.83023 q -0.0305,0 -0.06862,0.009 l -0.213487,-0.0743 -0.182988,0.0372 q -0.426971,-0.0372 -0.426971,-0.1858 -0.205863,0.22296 -0.487969,0.22296 -0.579462,-0.11148 -1.189421,-0.11148 l -0.243983,0.11148 h -0.09149 q -0.160116,0 -0.274484,-0.11148 l -0.182988,0.0743 -0.182988,-0.11148 -0.152489,0.11148 -0.0305,-0.0372 h -0.0305 l -0.243983,0.0372 q -0.09912,0 -0.274482,-0.14864 h -0.243984 l -0.121992,-0.0372 -0.121992,0.0372 -0.365976,-0.0743 q -0.182988,0.22296 -0.365976,0.22296 h -0.09149 q -0.09912,0 -0.213486,-0.11148 h -0.0305 q -0.312605,0.11148 -0.548964,0.11148 l -0.45747,-0.0743 -0.182988,0.0372 -0.15249,-0.0372 -0.0305,0.0372 -0.853943,-0.14864 -0.426972,0.14864 -0.213486,-0.0372 -0.335478,0.0743 -0.182988,-0.11148 -0.0305,0.0372 h -0.0305 l -0.121992,-0.0372 -0.274482,0.11148 -0.09149,-0.11148 -0.15249,0.0372 h -0.30498 l -0.114367,0.009 v -1.04978 q 0.190612,-0.0186 0.327853,-0.0743 l 0.670956,0.11148 q 0.04575,-0.14864 0.09149,-0.14864 h 0.274482 l 0.0305,-0.0372 0.396474,0.22296 h 0.0305 l 0.853943,-0.26012 0.15249,0.1858 q 0.182988,0 0.243984,0.0743 h 0.09149 l 0.15249,-0.11148 0.0305,0.0372 h 0.061 q 0.15249,0 0.15249,-0.11148 h 0.09149 v 0.0743 h 0.09149 l 0.09149,-0.11148 q 0.335478,0.0372 0.701454,0.1858 h 0.15249 q 0.213486,0 0.823446,-0.26012 0.30498,0.14864 0.884441,0.14864 l 0.30498,-0.0743 q 0.259233,0.11148 0.548964,0.11148 v -0.0372 l 0.30498,0.14864 0.792949,-0.1858 h 0.213484 l 0.213487,0.0372 q 0,-0.0557 0.121993,-0.11148 l 0.0305,0.0372 h 0.0305 l 0.182988,-0.0372 q 0.701453,0.11148 0.701453,0.1858 h 0.121993 l 0.0305,-0.0372 h 0.0305 q 0.0305,0.11148 0.182988,0.11148 h 0.121993 l 0.0076,-0.009 z m 0,-17.27019 -0.129617,-0.0464 -0.487966,0.18581 v -0.0372 l -0.396475,0.11149 -0.182988,-0.0372 -0.121993,0.0372 -0.09149,-0.11149 h -0.09149 l -0.09149,0.11149 -0.274482,-0.0743 -0.457469,0.0743 q -0.106742,-0.11149 -0.45747,-0.14865 l -0.152489,0.11149 -0.152491,-0.11149 -0.15249,0.0372 -0.121992,-0.0372 -0.213486,0.0372 -0.487967,-0.0743 -0.518466,0.14865 -0.426972,-0.0743 -0.182988,0.0372 h -0.487968 l -0.274482,0.11148 -0.213486,-0.0743 -0.09149,0.0372 -0.213486,-0.0743 h -0.0305 l -0.0305,0.0372 -0.426972,-0.11149 -0.121992,0.0372 -0.30498,-0.0743 -0.365976,0.11149 h -0.09149 l -0.243984,-0.0743 -0.0305,0.0372 -0.274482,-0.0372 -0.121991,0.0743 -0.121992,-0.0743 h -0.335478 l -0.243984,0.11149 h -0.0305 l -0.0305,-0.0372 -0.487968,0.14864 -0.30498,-0.18581 h -0.236359 v -1.04048 l 0.327853,-0.0372 0.365976,0.11148 q 0.388849,-0.10219 0.45747,-0.22296 l 0.15249,0.11148 q 0.236359,0 0.45747,-0.26012 0.129616,0.0372 0.243983,0.1858 0.518467,0.13935 0.518467,0.22296 l 0.243983,-0.0743 0.0305,0.0372 h 0.0305 l 0.182988,-0.0743 0.335478,0.0372 0.91494,-0.22296 0.76245,0.11148 0.45747,-0.0372 0.0305,0.0372 0.121992,-0.0372 h 0.365976 l 0.396474,0.14864 h 0.243983 l 0.30498,-0.11148 h 0.0305 q 0.404099,0 0.548964,0.11148 l 0.213487,-0.0743 0.609959,0.0743 q 0,-0.0557 0.426973,-0.11148 l 0.274482,0.0372 h 0.365976 q 0.800571,0 0.884441,-0.14864 h 0.0076 z" />
    <path
       inkscape:connector-curvature="0"
       id="path26"
       style="font-style:normal;font-variant:normal;font-weight:normal;font-stretch:normal;font-size:53.33333588px;line-height:125%;font-family:'Top Secret';-inkscape-font-specification:'Top Secret';letter-spacing:0px;word-spacing:0px;fill:#ffffff;fill-opacity:1;stroke:none;stroke-width:0.32318085px;stroke-linecap:butt;stroke-linejoin:miter;stroke-opacity:1"
       d="m 39.495544,271.6978 q 0.274482,0.0836 0.274482,0.42734 -0.213487,0.80824 -0.83107,1.17984 l -0.137241,1.01261 v 0.76179 l 0.06862,0.59456 q -0.274482,0.0464 -0.274482,0.25083 l 0.06862,0.0929 v 0.0836 l -0.137241,0.58527 0.137241,0.51095 -0.06862,0.42735 0.137241,0.16722 v 0.16722 l -0.137241,0.25083 v 0.26012 l 0.137241,0.25083 v 0.33444 l -0.06862,0.0929 0.137241,0.33444 -0.137241,0.51096 v 1.52356 l -0.137241,0.25083 v 0.41806 q 0,0.38089 1.03693,1.86729 0,0.92901 -0.274482,0.92901 -0.28973,-0.33444 -1.387658,-0.59456 -1.555397,-0.94759 -2.020491,-2.45258 0,-0.3716 -0.343104,-1.09622 0,-0.20438 -0.487966,-0.929 l -0.06862,-0.42735 q 0.274482,-0.51095 0.274482,-0.76178 l -0.06862,-1.09622 q 0.282106,-0.7525 0.419347,-2.54547 l 0.20586,-0.25084 -0.06862,-0.76178 q 0.282106,0 0.282106,-0.42734 0.62521,0 0.62521,-0.66888 l 0.693828,-0.59457 0.411723,0.0836 q 0.434595,-0.33444 1.738386,-0.76178 z m 1.456279,0.16722 q 1.250417,0.2787 1.250417,0.84539 0.152489,0.17652 0.762451,0.17652 0.487966,0.78965 0.487966,1.26344 0.518468,0 1.113178,3.38158 l 0.06862,0.0929 q -0.274482,0.64101 -0.274482,2.02522 l 0.06862,0.76179 q -0.198238,0.84539 -0.487968,0.84539 0,1.66292 -1.45628,2.45257 -0.45747,0.8454 -1.875627,0.8454 -0.312604,0.42734 -0.625206,0.42734 l -0.06862,-0.25083 q 0,-0.91972 0.831069,-1.43996 0.144865,-0.94758 0.350728,-1.01261 l -0.07625,-0.0929 v -0.16722 l 0.07625,-0.8454 q -0.419347,-1.52357 -0.419347,-2.28535 0,-0.4645 0.419347,-0.84539 l 0.06862,-0.67817 -0.419347,-1.09623 0.274482,-1.27274 -0.274482,-0.59456 0.06862,-0.41805 v -0.25083 q 0,-0.63172 -0.693828,-1.18913 v -0.0836 l 0.06862,-0.42734 h 0.205863 z m 4.689065,-1.52357 -0.04575,-0.0186 q -0.144865,0.11148 -0.548964,0.11148 h -0.0305 L 44.7107,270.32288 h -0.243983 l -0.396474,0.14864 h -0.365976 l -0.121993,-0.0372 -0.0305,0.0372 -0.45747,-0.0372 -0.762451,0.11148 -0.91494,-0.22296 -0.335477,0.0372 -0.182988,-0.0743 h -0.0305 l -0.0305,0.0372 -0.243983,-0.0743 q 0,0.0836 -0.518464,0.22296 -0.114369,0.14864 -0.243986,0.1858 -0.221111,-0.26012 -0.45747,-0.26012 l -0.152489,0.11148 q -0.06862,-0.12077 -0.45747,-0.22296 l -0.365976,0.11148 -0.335477,-0.0372 h -0.152492 l -0.182988,0.11148 q -0.144865,-0.11148 -0.274482,-0.11148 -0.259231,0 -0.426971,0.0743 l -0.670956,-0.11148 q -0.04575,0.14864 -0.09149,0.14864 h -0.274482 l -0.0305,0.0372 -0.396472,-0.22296 h -0.0305 l -0.594711,0.17651 v -1.05907 l 0.137241,0.0279 0.426971,-0.14864 0.213487,0.0372 0.33548,-0.0743 0.182988,0.11148 0.0305,-0.0372 h 0.0305 l 0.121993,0.0372 0.274482,-0.11148 0.09149,0.11148 0.152489,-0.0372 h 0.304981 l 0.365976,-0.0372 0.06099,0.0743 0.06099,-0.0743 0.304981,0.0372 h 0.274482 l 0.304981,-0.1858 0.487966,0.14864 0.0305,-0.0372 h 0.0305 l 0.243983,0.11148 h 0.335477 l 0.121993,-0.0743 0.121993,0.0743 0.274482,-0.0372 0.0305,0.0372 0.243985,-0.0743 h 0.09149 l 0.365976,0.11148 0.304978,-0.0743 0.121993,0.0372 0.426971,-0.11148 0.0305,0.0372 h 0.0305 l 0.213484,-0.0743 0.09149,0.0372 0.213487,-0.0743 0.274482,0.11148 h 0.487969 l 0.182988,0.0372 0.426971,-0.0743 0.518464,0.14864 0.487969,-0.0743 0.213487,0.0372 0.12199,-0.0372 0.152492,0.0372 0.152489,-0.11148 0.152489,0.11148 q 0.02287,0 0.04575,-0.009 z m -0.02287,17.29806 -0.08387,0.0372 h -0.09149 q -0.160116,0 -0.274482,-0.11148 l -0.182988,0.0743 -0.182988,-0.11148 -0.152489,0.11148 -0.0305,-0.0372 h -0.0305 l -0.243989,0.0372 q -0.09912,0 -0.274481,-0.14864 H 43.82626 l -0.121993,-0.0372 -0.121993,0.0372 -0.365976,-0.0743 q -0.182988,0.22296 -0.365976,0.22296 h -0.09149 q -0.09912,0 -0.213484,-0.11148 h -0.0305 q -0.312605,0.11148 -0.548964,0.11148 l -0.45747,-0.0743 -0.182988,0.0372 -0.152489,-0.0372 -0.0305,0.0372 -0.853944,-0.14864 -0.426971,0.14864 -0.213487,-0.0372 -0.335477,0.0743 -0.182988,-0.11148 -0.0305,0.0372 h -0.0305 l -0.121993,-0.0372 -0.274482,0.11148 -0.09149,-0.11148 -0.152489,0.0372 h -0.304981 l -0.365976,0.0372 -0.06099,-0.0743 -0.061,0.0743 -0.304978,-0.0372 h -0.274482 l -0.30498,0.1858 -0.487969,-0.14864 -0.0305,0.0372 h -0.0305 l -0.243986,-0.11148 h -0.335477 l -0.121993,0.0743 -0.12199,-0.0743 -0.274482,0.0372 -0.0305,-0.0372 -0.137241,0.0372 v -1.04049 q 0.129617,-0.0557 0.350728,-0.11148 0.114366,-0.14864 0.243983,-0.1858 0.221111,0.26012 0.45747,0.26012 l 0.152492,-0.11148 q 0.06862,0.12077 0.45747,0.22296 l 0.365975,-0.11148 0.335477,0.0372 h 0.152489 l 0.182988,-0.11148 q 0.144865,0.11148 0.274482,0.11148 0.259234,0 0.426974,-0.0743 l 0.670954,0.11148 q 0.04575,-0.14864 0.09149,-0.14864 h 0.274482 l 0.0305,-0.0372 0.396475,0.22296 h 0.0305 l 0.853944,-0.26012 0.152489,0.1858 q 0.182988,0 0.243986,0.0743 h 0.09149 l 0.152489,-0.11148 0.0305,0.0372 h 0.06099 q 0.152489,0 0.152489,-0.11148 h 0.09149 v 0.0743 h 0.09149 l 0.09149,-0.11148 q 0.33548,0.0372 0.701456,0.1858 h 0.152489 q 0.213487,0 0.823446,-0.26012 0.304981,0.14864 0.88444,0.14864 l 0.304981,-0.0743 q 0.259234,0.11148 0.548964,0.11148 v -0.0372 l 0.304981,0.14864 0.05337,-0.009 z" />
    <path
       inkscape:connector-curvature="0"
       id="path28"
       style="font-style:normal;font-variant:normal;font-weight:normal;font-stretch:normal;font-size:53.33333588px;line-height:125%;font-family:'Top Secret';-inkscape-font-specification:'Top Secret';letter-spacing:0px;word-spacing:0px;fill:#ffffff;fill-opacity:1;stroke:none;stroke-width:0.32318085px;stroke-linecap:butt;stroke-linejoin:miter;stroke-opacity:1"
       d="m 49.666626,271.6978 q 0.648082,0 0.686205,0.929 -0.754827,0.52025 -0.754827,1.76511 l -0.20586,0.92901 0.20586,0.91971 -0.06862,1.34706 0.137241,0.26012 -0.205863,0.75249 v 0.59456 l 0.137241,2.26677 v 0.51095 q 0.213487,1.84872 0.754827,1.84872 0.213487,0 0.213487,0.16722 v 0.59457 q 0,0.16722 -0.213487,0.16722 l -0.343104,-0.0836 -0.899689,0.33444 q -1.029309,-0.97546 -1.928997,-1.09623 l -0.62521,-0.75249 -0.205863,-1.52357 0.06862,-0.0836 v -0.0836 l -0.06862,-0.25083 0.137241,-1.76511 q -0.228735,0 -0.274482,-1.09622 v -0.25083 l 0.205863,-2.27606 -0.274482,-1.26345 v -0.33444 q 0,-0.43663 0.20586,-0.76178 v -0.33444 q -0.716701,-0.19509 -0.899689,-0.50167 0,-0.34373 0.343101,-0.34373 l 0.06862,-0.41805 h 0.487966 l 0.762451,-0.0836 q 0.205863,0.16722 1.105551,0.25083 z m 3.728381,0 q 0.716701,0 1.03693,0.50166 0.487968,0 0.487968,0.26012 -1.105551,1.63505 -1.105551,2.43399 l 0.06862,0.0836 v 0.0929 l -0.282106,0.75249 0.282106,1.26344 -0.282106,1.94162 q 0.213487,0.41805 0.282106,1.17055 l -0.20586,1.52356 h 0.06862 l -0.282106,0.66889 0.06862,0.0836 v 0.0836 q -0.617586,2.10884 -1.242796,2.10884 l -1.03693,-0.0836 v -0.8454 q 0.381224,0 1.319039,-0.84539 v -0.50166 q 0.617583,-0.5667 0.617583,-1.34706 l -0.274482,-1.59789 q 0,-2.69411 0.274482,-2.69411 l -0.06862,-0.59456 v -0.50166 l -0.137241,-0.25083 0.137241,-0.33444 q -0.114369,-0.17652 -0.205863,-1.43996 -0.274482,0 -0.274482,-0.16722 l 0.06862,-0.33444 q -0.831073,-0.29728 -0.831073,-0.41806 l -0.06862,-0.25083 q 0,-0.34373 1.036933,-0.51095 z m 2.439838,15.7652 -0.25161,0.0279 -0.061,-0.0743 -0.06099,0.0743 -0.304981,-0.0372 h -0.274481 l -0.304981,0.1858 -0.487966,-0.14864 -0.0305,0.0372 h -0.0305 l -0.243983,-0.11148 h -0.335477 l -0.121993,0.0743 -0.121993,-0.0743 -0.274482,0.0372 -0.0305,-0.0372 -0.243986,0.0743 h -0.09149 l -0.365976,-0.11148 -0.304978,0.0743 -0.121993,-0.0372 -0.426971,0.11148 -0.0305,-0.0372 h -0.0305 l -0.213484,0.0743 -0.09149,-0.0372 -0.213487,0.0743 -0.274482,-0.11148 h -0.487969 l -0.182988,-0.0372 -0.426971,0.0743 -0.518465,-0.14864 -0.487969,0.0743 -0.213487,-0.0372 -0.12199,0.0372 -0.152492,-0.0372 -0.152489,0.11148 -0.152489,-0.11148 q -0.350727,0.0372 -0.457469,0.14864 l -0.45747,-0.0743 -0.274482,0.0743 -0.09149,-0.11148 h -0.09149 l -0.09149,0.11148 -0.121993,-0.0372 -0.182988,0.0372 -0.396475,-0.11148 v 0.0372 l -0.12199,-0.0464 v -1.07764 q 0.167737,0.009 0.396472,0.009 h 0.365976 l 0.274482,-0.0372 q 0.426974,0.0557 0.426974,0.11149 l 0.609959,-0.0743 0.213486,0.0743 q 0.144865,-0.11149 0.548964,-0.11149 h 0.0305 l 0.304981,0.11149 h 0.243983 l 0.396475,-0.14865 h 0.365976 l 0.121993,0.0372 0.0305,-0.0372 0.45747,0.0372 0.762451,-0.11148 0.914939,0.22296 0.335477,-0.0372 0.182988,0.0743 h 0.0305 l 0.0305,-0.0372 0.243983,0.0743 q 0,-0.0836 0.518465,-0.22296 0.114369,-0.14864 0.243986,-0.1858 0.221111,0.26012 0.45747,0.26012 l 0.152489,-0.11148 q 0.06862,0.12077 0.45747,0.22296 l 0.365976,-0.11148 0.335476,0.0372 h 0.152492 l 0.182988,-0.11148 q 0.144865,0.11148 0.274482,0.11148 h 0.09912 z m 0.0305,-17.0751 h -0.03812 l -0.304981,0.0372 -0.06099,-0.0743 -0.061,0.0743 -0.365975,-0.0372 h -0.304978 l -0.152492,-0.0372 -0.09149,0.11149 -0.274482,-0.11149 -0.12199,0.0372 h -0.0305 l -0.0305,-0.0372 -0.182988,0.11149 -0.335477,-0.0743 -0.213487,0.0372 -0.426971,-0.14865 -0.853945,0.14865 -0.0305,-0.0372 -0.152492,0.0372 -0.182988,-0.0372 -0.457469,0.0743 q -0.236359,0 -0.548964,-0.11149 h -0.0305 q -0.114369,0.11149 -0.213487,0.11149 h -0.09149 q -0.182988,0 -0.365976,-0.22297 l -0.365976,0.0743 -0.121993,-0.0372 -0.12199,0.0372 h -0.243986 q -0.175364,0.14865 -0.274482,0.14865 l -0.243983,-0.0372 h -0.0305 l -0.0305,0.0372 -0.152492,-0.11149 -0.182988,0.11149 -0.182988,-0.0743 q -0.114366,0.11149 -0.274481,0.11149 h -0.09149 l -0.243983,-0.11149 q -0.609959,0 -1.189422,0.11149 -0.282106,0 -0.487969,-0.22297 0,0.13935 -0.396472,0.18581 v -1.11481 q 0,-0.0743 0.701453,-0.1858 l 0.182988,0.0372 h 0.0305 l 0.0305,-0.0372 q 0.121993,0.0557 0.121993,0.11148 l 0.213487,-0.0372 h 0.213484 l 0.792949,0.1858 0.304978,-0.14864 v 0.0372 q 0.289733,0 0.548964,-0.11148 l 0.304981,0.0743 q 0.579463,0 0.884441,-0.14864 0.609962,0.26012 0.823446,0.26012 h 0.152492 q 0.365976,-0.14864 0.701452,-0.1858 l 0.09149,0.11148 h 0.09149 v -0.0743 h 0.09149 q 0,0.11148 0.152489,0.11148 h 0.061 l 0.0305,-0.0372 0.152492,0.11148 h 0.09149 q 0.06099,-0.0743 0.243983,-0.0743 l 0.152489,-0.1858 0.853945,0.26012 h 0.0305 l 0.396472,-0.22296 0.0305,0.0372 h 0.274482 q 0.04575,0 0.09149,0.14864 l 0.670957,-0.11148 q 0.167737,0.0743 0.42697,0.0743 0.129617,0 0.274482,-0.11148 l 0.182988,0.11148 h 0.160116 z" />
    <path
       inkscape:connector-curvature="0"
       id="path30"
       style="font-style:normal;font-variant:normal;font-weight:normal;font-stretch:normal;font-size:53.33333588px;line-height:125%;font-family:'Top Secret';-inkscape-font-specification:'Top Secret';letter-spacing:0px;word-spacing:0px;fill:#ffffff;fill-opacity:1;stroke:none;stroke-width:0.32318085px;stroke-linecap:butt;stroke-linejoin:miter;stroke-opacity:1"
       d="m 59.166748,271.6978 h 0.419347 q 0.350728,0 0.419347,0.34373 l -0.06862,0.25083 0.137241,0.94759 -0.06862,0.51095 0.144868,0.25083 -0.07625,0.0929 v 0.42734 q 0,0.80824 -0.274482,1.53286 v 0.0836 q 0.350728,1.04977 0.350728,1.70937 l -0.144868,0.68746 v 0.93829 l -0.282106,1.02191 0.07625,0.60385 -0.07625,0.34373 q 0.198239,0 0.350728,1.79298 l 0.07625,0.42734 0.487966,0.42734 v 0.42735 l -0.137241,0.16722 h -0.91494 l -0.487966,0.17651 -0.426973,-0.17651 v 0.0836 l -0.419347,-0.16722 h -0.06862 l -1.052181,0.26012 -0.350728,-0.0929 -0.213487,0.17651 q -0.838694,-0.065 -0.838694,-0.26012 0,-1.19842 0.564212,-1.19842 l 0.556588,-1.18912 q 0,-0.60386 -0.419347,-1.45854 v -0.0836 l 0.137241,-0.77107 -0.06862,-1.53286 0.06862,-0.68746 -0.06862,-0.25083 0.213484,-1.28203 -0.06862,-0.52024 0.06862,-0.51095 -0.06862,-0.0836 v -0.0836 l 0.06862,-0.42734 -0.06862,-0.34373 0.06862,-0.0836 -0.213484,-0.26012 0.144865,-0.25083 v -0.0929 q 0,-0.14864 -0.701453,-0.59456 l -0.144868,-0.9383 0.41935,-0.17651 h 0.282106 l 0.282106,0.26012 h 0.06862 l 0.06862,-0.0836 0.564212,0.16722 1.189422,-0.16722 v 0.0836 z m 1.685015,0.16722 0.62521,0.17651 h 0.846318 q 0.899691,0 1.258043,0.59456 0.388848,0 0.564212,0.60386 0.25161,0 0.556588,1.0219 h 0.07625 l -0.144865,2.22032 0.06862,0.0836 q -0.152489,0.0186 -0.975935,1.28203 -0.327853,0 -0.983562,0.85468 v 0.17651 h 0.41935 q 1.41053,0 1.685012,1.61647 l 0.06862,0.0929 -0.06862,0.42734 0.06862,0.42734 q -0.121993,0.17651 -0.213487,1.18913 0.106745,0.34373 0.213487,0.34373 h 0.06862 l 0.91494,-0.34373 0.205862,0.52024 q -0.907315,1.61647 -1.608768,1.61647 0,0.26012 -0.144865,0.26012 l -0.350728,-0.0836 -0.350728,0.0836 q -0.930188,-0.0279 -1.959496,-1.36564 l -0.06862,-0.68746 0.06862,-0.59456 -0.282106,-0.85469 0.137241,-0.51095 q 0,-1.70937 -0.556588,-1.70937 -0.282106,0 -0.282106,-1.19841 0.632834,-0.21367 0.632834,-0.85469 l 0.20586,-1.36563 -0.20586,-1.19842 0.06862,-0.42734 q 0,-0.81752 -0.701453,-1.44924 l -0.06862,-0.85469 z m 6.076725,-1.37492 -0.121993,0.009 -0.0305,-0.0371 -0.213487,0.0371 -0.121993,-0.0371 q -0.08387,-0.13936 -0.243983,-0.18581 -0.30498,0.10219 -0.30498,0.14864 l -0.274482,-0.0372 q -0.152489,0.11148 -0.304978,0.11148 h -0.121993 l -0.182988,-0.0743 -0.243983,0.0372 -0.396475,-0.0743 -0.335477,0.14865 q -0.632834,-0.14865 -1.189422,-0.14865 h -0.0305 l -0.0305,0.0372 -0.0305,-0.0372 -0.243986,0.0372 -0.182987,-0.0372 q -0.12199,0 -0.12199,0.11148 -0.190615,0 -0.731955,-0.1858 l -0.487966,0.14865 h -0.121993 l -0.426971,-0.0372 -0.09149,0.0372 q -0.327853,-0.11149 -0.548964,-0.11149 H 59.63946 l -0.243983,0.0743 h -0.09149 l -0.548963,-0.11148 -0.182988,0.0743 h -0.0305 l -0.0305,-0.0372 -0.426974,0.0372 h -0.09149 l -0.152489,-0.0372 -0.0305,0.0372 -0.243983,-0.0372 -0.09149,0.0372 -0.121993,-0.0372 q -0.129614,0.14864 -0.426971,0.22297 -0.114366,-0.1022 -0.396475,-0.14865 v 0.0372 l -0.243983,-0.0372 q -0.09149,0 -0.09149,0.0743 l -0.274482,-0.0743 q -0.304981,0 -0.335477,-0.63172 h 0.0305 q 0.0305,-0.48308 0.121993,-0.48308 h 0.0305 l 0.182988,0.0372 0.335477,-0.11148 q 0,0.065 0.45747,0.0743 0.152489,0 0.182988,-0.11148 l 0.0305,0.0372 0.243983,-0.0372 q 0.09912,0 0.213487,0.14864 h 0.0305 v -0.0743 h 0.0305 l 0.09149,0.11148 h 0.06099 q 0.282109,-0.26012 0.426974,-0.26012 0.312605,0.1858 0.45747,0.1858 l 0.518464,-0.0743 0.213487,0.0743 h 0.426971 l 0.579463,-0.14864 h 0.09149 q 0.114366,0 0.426971,0.26012 0.243983,-0.11148 0.640458,-0.11148 l 0.609962,0.0372 0.487965,-0.11148 0.182988,0.11148 0.09149,-0.0372 0.121993,0.0372 0.243983,-0.0743 0.0305,0.0372 h 0.274482 l 0.335477,-0.0372 q 0.121993,0.0743 0.33548,0.0743 l 0.274482,-0.0743 q 0.365976,0 0.548964,0.14864 l 0.274482,-0.11148 0.304978,0.0372 h 0.0305 l 0.0305,-0.0372 0.182988,0.0743 0.213484,-0.14864 0.487968,0.11148 0.243983,-0.0743 0.121993,0.0743 0.09149,-0.0279 z m 0,16.80568 -0.06862,-0.0186 q -0.175361,0.11148 -0.365976,0.11148 -0.167737,-0.11148 -0.335477,-0.11148 l -0.945438,0.1858 -0.45747,-0.14864 -0.487966,0.0743 -0.365976,-0.0743 -0.213487,0.0372 -0.0305,-0.0372 h -0.0305 l -0.121993,0.0372 -0.09149,-0.0372 -0.09149,0.0372 -0.91494,-0.11148 -0.274481,0.0372 h -0.121993 l -0.0305,0.0372 -0.0305,-0.0372 H 61.64471 l -0.365976,0.11148 -0.426971,-0.14864 -0.274482,0.0372 h -0.0305 l -0.426971,-0.11148 -0.274482,0.11148 h -0.304981 l -0.335477,0.0743 -0.396474,-0.0743 h -0.121991 l -0.182987,0.0372 -0.152492,-0.0372 h -0.06099 l -0.0305,0.0372 -0.0305,-0.0372 h -0.121993 l -0.518465,0.14864 q -0.91494,-0.0464 -0.91494,-0.1858 l -0.121993,0.0743 -0.0305,-0.0372 h -0.0305 q -0.05337,0.0743 -0.640458,0.11148 -0.243986,-0.0372 -0.243986,-0.29728 v -0.14864 l 0.061,-0.11148 v -0.11148 l -0.061,-0.29728 v -0.0743 l 0.061,-0.0743 h 0.213484 q 0.304981,-0.009 0.304981,-0.0743 l 0.243983,0.0372 0.579463,-0.0372 0.609959,0.14864 0.426974,-0.14864 0.45747,0.0743 0.0305,-0.0372 h 0.0305 l 0.243983,0.11148 0.518467,-0.11148 0.213484,0.0743 0.0305,-0.0372 h 0.0305 l 0.213484,0.0743 0.640458,-0.14864 0.213487,0.11148 h 0.335477 q 0.33548,-0.0557 0.33548,-0.14864 0.274482,0.0372 0.274482,0.11148 0.304978,-0.0372 0.365976,-0.11148 0.640457,0.0372 0.640457,0.11148 l 0.09149,-0.0743 0.182988,0.0743 h 0.09149 l 0.09149,-0.0743 h 0.152489 l 0.335477,-0.0372 0.0305,0.0372 h 0.0305 l 0.274482,-0.0372 h 0.243983 l 0.518465,0.14864 q 0.426974,-0.0372 0.426974,-0.22296 l 0.182988,0.0743 0.09149,-0.0372 0.182988,0.0743 0.182988,-0.0372 q 0.312604,0.0464 0.365975,0.11148 h 0.640458 l 0.190612,-0.0464 z" />
    <path
       inkscape:connector-curvature="0"
       id="path32"
       style="font-style:normal;font-variant:normal;font-weight:normal;font-stretch:normal;font-size:53.33333588px;line-height:125%;font-family:'Top Secret';-inkscape-font-specification:'Top Secret';letter-spacing:0px;word-spacing:0px;fill:#ffffff;fill-opacity:1;stroke:none;stroke-width:0.32318085px;stroke-linecap:butt;stroke-linejoin:miter;stroke-opacity:1"
       d="m 71.007594,271.6978 0.07625,0.0836 h 0.411723 q 0,0.23225 0.350725,0.42734 l 0.06862,0.51096 q -0.762451,0 -0.762451,0.59456 l -0.144865,0.59456 0.07625,0.0836 v 0.0836 l -0.213487,0.51095 0.06862,0.25083 -0.06862,0.26013 q 0,1.35634 0.350728,1.35634 l -0.06862,0.59456 v 1.52357 l 0.137241,0.34373 -0.419347,1.18913 0.419347,2.03452 v 0.59456 l -0.06862,0.51095 q 0,0.16722 0.693829,0.84539 l -0.419347,0.9383 q -0.533716,-0.0836 -1.044557,-0.51095 l -0.907315,0.26012 q -0.28973,-0.23225 -0.899692,-0.34373 l -0.487966,0.34373 h -0.41935 q -0.510841,0 -0.907313,-0.51096 v -0.17651 l 0.693829,-0.50166 0.282106,-0.77107 -0.06862,-0.76178 q 0,-0.42735 0.137241,-0.42735 l -0.137241,-1.43995 0.06862,-0.0836 v -0.0836 l -0.137241,-1.02191 v -1.18912 l -0.06862,-0.0836 0.06862,-0.0836 v -0.16722 q 0,-0.42735 -0.144865,-0.42735 l 0.282106,-1.35634 -0.137241,-0.51095 0.137241,-1.18913 q 0,-0.61314 -0.770075,-1.10551 l -0.06862,-0.59457 v -0.0836 q 1.029306,-0.26012 2.439839,-0.34373 l 0.06862,-0.0836 0.770074,0.0836 q 0.762451,-0.0464 0.762451,-0.16722 z m 1.761261,-1.26344 -0.061,0.0186 -0.45747,-0.0743 -0.0305,0.0372 h -0.0305 l -0.243986,-0.11148 -0.518465,0.11148 -0.213487,-0.0743 -0.0305,0.0372 h -0.0305 l -0.213487,-0.0743 -0.640458,0.14864 -0.213484,-0.11148 h -0.335479 q -0.335477,0.0557 -0.335477,0.14864 -0.274482,-0.0372 -0.274482,-0.11148 -0.304981,0.0372 -0.365976,0.11148 -0.640458,-0.0372 -0.640458,-0.11148 l -0.09149,0.0743 -0.182988,-0.0743 h -0.09149 l -0.09149,0.0743 h -0.152489 l -0.33548,0.0372 -0.0305,-0.0372 h -0.0305 l -0.274482,0.0372 h -0.243983 l -0.06862,-0.0186 v -1.19842 l 0.312605,0.065 0.213487,-0.0372 0.0305,0.0372 h 0.0305 l 0.121993,-0.0372 0.09149,0.0372 0.09149,-0.0372 0.91494,0.11148 0.274482,-0.0372 h 0.12199 l 0.0305,-0.0372 0.0305,0.0372 h 0.304978 l 0.365976,-0.11148 0.426973,0.14864 0.274482,-0.0372 h 0.0305 l 0.426974,0.11148 0.274482,-0.11148 h 0.304978 l 0.33548,-0.0743 0.396472,0.0743 h 0.121993 l 0.182988,-0.0372 0.152489,0.0372 h 0.061 l 0.0305,-0.0372 0.0305,0.0372 h 0.121993 l 0.121993,-0.0372 z m 0.02287,16.94503 -0.228735,0.0279 -0.0305,-0.0372 h -0.0305 q -0.08387,0.0743 -0.487969,0.14864 l -0.213487,-0.0743 -0.182988,0.0372 q -0.426971,-0.0372 -0.426971,-0.1858 -0.205863,0.22296 -0.487969,0.22296 -0.579459,-0.11148 -1.189421,-0.11148 l -0.243983,0.11148 h -0.09149 q -0.160116,0 -0.274482,-0.11148 l -0.182988,0.0743 -0.182988,-0.11148 -0.152489,0.11148 -0.0305,-0.0372 h -0.0305 l -0.243983,0.0372 q -0.09912,0 -0.274482,-0.14864 h -0.243983 l -0.121993,-0.0372 -0.121993,0.0372 -0.365976,-0.0743 q -0.182988,0.22296 -0.365975,0.22296 l -0.0076,-1.09622 q 0.236359,-0.0557 0.678581,-0.24155 0.304981,0.14865 0.884441,0.14865 l 0.304981,-0.0743 q 0.259234,0.11148 0.548964,0.11148 v -0.0372 l 0.30498,0.14864 0.792947,-0.1858 h 0.213487 l 0.213484,0.0372 q 0,-0.0557 0.121993,-0.11149 l 0.0305,0.0372 h 0.0305 l 0.182988,-0.0372 q 0.701456,0.11149 0.701456,0.18581 h 0.12199 l 0.0305,-0.0372 h 0.0305 q 0.0305,0.11148 0.182988,0.11148 h 0.12199 q 0.106745,-0.10219 0.716704,-0.21368 z" />
    <path
       inkscape:connector-curvature="0"
       id="path34"
       style="font-style:normal;font-variant:normal;font-weight:normal;font-stretch:normal;font-size:53.33333588px;line-height:125%;font-family:'Top Secret';-inkscape-font-specification:'Top Secret';letter-spacing:0px;word-spacing:0px;fill:#ffffff;fill-opacity:1;stroke:none;stroke-width:0.32318085px;stroke-linecap:butt;stroke-linejoin:miter;stroke-opacity:1"
       d="m 73.272069,271.6978 0.571838,0.0836 0.495593,-0.0836 q 0.701453,0 0.785323,1.13339 l -0.70908,0.52024 v 0.16722 q 0,0.81752 -0.426971,1.30989 0,1.73724 -0.503217,1.73724 h -0.213486 q -0.259231,0 -0.426971,-1.21699 l 0.06862,-0.0929 v -0.0836 l -0.06862,-0.52025 0.06862,-1.21699 -0.06862,-0.0836 v -0.0929 l 0.06862,-0.26012 q -0.160116,0 -0.282109,-1.04049 0,-0.26012 0.640458,-0.26012 z m 6.412205,-1.24486 q -0.02287,0.009 -0.03812,0.009 -0.587087,-0.0372 -0.640458,-0.11148 h -0.0305 l -0.0305,0.0372 -0.121993,-0.0743 q 0,0.13935 -0.91494,0.1858 l -0.518468,-0.14864 h -0.12199 l -0.0305,0.0372 -0.0305,-0.0372 h -0.061 l -0.152488,0.0372 -0.182988,-0.0372 h -0.121993 l -0.396475,0.0743 -0.335477,-0.0743 h -0.304981 l -0.274482,-0.11148 -0.426971,0.11148 h -0.0305 l -0.274482,-0.0372 -0.426971,0.14864 -0.365976,-0.11148 H 73.54655 l -0.0305,0.0372 -0.0305,-0.0372 h -0.121992 l -0.274482,-0.0372 -0.66333,0.0836 v -1.1148 l 0.08387,0.065 h 0.09149 l 0.182988,-0.0743 0.09149,0.0743 q 0,-0.0743 0.640457,-0.11148 0.061,0.0743 0.365976,0.11148 0,-0.0743 0.274482,-0.11148 0,0.0929 0.335477,0.14864 h 0.335477 l 0.213487,-0.11148 0.640458,0.14864 0.213487,-0.0743 h 0.0305 l 0.0305,0.0372 0.213487,-0.0743 0.518465,0.11148 0.243983,-0.11148 h 0.0305 l 0.0305,0.0372 0.457469,-0.0743 0.426971,0.14864 0.609959,-0.14864 0.579463,0.0372 0.243986,-0.0372 q 0,0.065 0.304978,0.0743 h 0.01525 l 0.05337,-0.11148 q 0.350725,0 0.609959,0.11148 0.350727,0 0.457469,-0.14864 h 0.152489 l 0.518468,0.11148 h 0.09149 l 0.335477,-0.11148 q 0.648082,0.12077 0.762451,0.22296 h 0.12199 q 0.152492,0 0.182988,-0.11148 h 0.0305 l 0.0305,0.0372 h 0.12199 v 1.1148 h -0.0305 l -0.182988,-0.0372 -0.213487,0.0743 q -0.404099,-0.0743 -0.487969,-0.14864 h -0.0305 l -0.0305,0.0372 -0.670957,-0.0743 q -0.388848,0 -0.487966,0.14864 h -0.061 l -0.12199,-0.11148 -0.182988,0.0743 -0.0305,-0.0372 h -0.09149 q -0.190611,0.0743 -0.731951,0.11148 z m -0.07625,16.89858 h -0.0305 l -0.274482,0.0743 q 0,-0.0743 -0.09149,-0.0743 l -0.243983,0.0372 v -0.0372 q -0.282106,0.0464 -0.396475,0.14864 -0.297354,-0.0743 -0.426971,-0.22296 l -0.121993,0.0372 -0.09149,-0.0372 -0.243983,0.0372 -0.0305,-0.0372 -0.152489,0.0372 h -0.09149 l -0.426971,-0.0372 -0.0305,0.0372 h -0.0305 l -0.182988,-0.0743 -0.548964,0.11148 h -0.09149 l -0.243983,-0.0743 h -0.152489 q -0.221111,0 -0.548964,0.11148 l -0.09149,-0.0372 -0.426974,0.0372 h -0.12199 l -0.487969,-0.14864 q -0.54134,0.1858 -0.731951,0.1858 0,-0.11148 -0.121993,-0.11148 l -0.182988,0.0372 -0.243983,-0.0372 -0.0305,0.0372 -0.0305,-0.0372 h -0.0305 q -0.114369,0 -0.228735,0.009 v -1.10552 l 0.16774,0.0557 0.12199,-0.0372 0.09149,0.0372 0.182988,-0.11148 0.487968,0.11148 0.609959,-0.0372 q 0.396475,0 0.640458,0.11148 0.312605,-0.26012 0.426974,-0.26012 h 0.09149 l 0.57946,0.14864 h 0.426974 l 0.213484,-0.0743 0.518467,0.0743 q 0.144865,0 0.45747,-0.1858 0.152489,0 0.426971,0.26012 h 0.061 l 0.09149,-0.11148 h 0.0305 v 0.0743 h 0.0305 q 0.12199,-0.14864 0.213484,-0.14864 l 0.243986,0.0372 0.0305,-0.0372 q 0.0305,0.11148 0.182988,0.11148 0.45747,-0.009 0.45747,-0.0743 l 0.33548,0.11148 0.182988,-0.0372 h 0.04575 q 0.05337,-0.009 0.12199,-0.009 l 0.45747,0.14864 h 0.121993 l 0.548963,0.0743 0.335477,-0.0743 0.182988,0.0372 0.91494,-0.1858 h 0.152492 q 0.06099,0.10219 0.487966,0.13935 v 1.07765 l -0.365976,-0.13935 -0.640458,0.22296 -0.853942,-0.11148 q -0.0305,0.11148 -0.182988,0.11148 h -0.122 q -0.160113,0 -0.274481,-0.11148 l -0.640458,0.11148 q -0.350728,0 -0.411723,-0.17651 z m 0.869193,-15.57011 h 1.067428 q 0.358352,0.8361 0.358352,1.83014 -0.213484,0.45521 -0.213484,1.21699 l 0.144865,0.34374 -0.289733,1.3935 H 81.1863 q -0.213487,0 -0.350728,-0.95687 l 0.137241,-0.17651 q 0,-1.5886 -0.640457,-1.99736 0,-0.52024 -0.495593,-0.52024 l -0.07625,-0.0836 v -0.0929 l 0.144868,-0.34373 -0.06862,-0.43663 z m -2.714321,0 0.28973,0.0929 0.358352,-0.0929 q 0.350728,0 0.709077,0.43663 l -0.06862,1.65363 0.06862,0.78036 -0.144865,0.43664 0.213487,1.56072 q -0.160116,0 -0.213487,0.61314 l 0.07625,0.26013 -0.144865,0.52024 v 0.0836 l 0.06862,0.26012 -0.137241,1.83014 q 0.16774,0.26941 0.282106,1.90446 l -0.06862,0.35302 0.06862,0.26012 -0.144865,0.17651 v 0.42734 q 0.07625,0.2787 0.785323,0.52024 l 0.07625,0.43663 v 0.17652 q -0.190612,0 -0.358352,0.43663 h -0.213484 l -0.426974,-0.0929 q -0.320229,0.17651 -0.930188,0.17651 l -0.426974,-0.17651 v 0.0929 l -0.06862,-0.0929 h -0.144865 l -0.571838,0.17651 q -0.343101,0 -0.853942,-0.43663 l -0.716704,0.26012 q 0,-0.21367 -0.282106,-0.26012 V 284.388 q 0.213484,0 0.213484,-0.43664 0.33548,0 0.495593,-1.13338 l 0.07625,-0.0836 V 281.954 q 0,-1.80226 0.282106,-1.99735 v -0.0929 q -0.137241,-1.09623 -0.426971,-1.30061 v -0.0836 q 0.213484,-0.32515 0.213484,-0.61314 v -0.60386 l -0.144865,-1.3935 v -0.0836 q 0,-0.60385 0.434598,-1.3099 0,-1.31918 -0.213487,-2.43399 h 0.06862 l 1.357158,0.0929 q 0,-0.23225 0.564215,-0.35302 z" />
    <path
       inkscape:connector-curvature="0"
       id="path36"
       style="font-style:normal;font-variant:normal;font-weight:normal;font-stretch:normal;font-size:53.33333588px;line-height:125%;font-family:'Top Secret';-inkscape-font-specification:'Top Secret';letter-spacing:0px;word-spacing:0px;fill:#ffffff;fill-opacity:1;stroke:none;stroke-width:0.32318085px;stroke-linecap:butt;stroke-linejoin:miter;stroke-opacity:1"
       d="m 84.754568,271.6978 q 0.815822,0.42734 1.700263,0.52024 l 0.495593,-0.17651 q 0.137241,0 0.495593,0.68747 v 0.78036 l -0.282106,0.51095 v 0.43663 l 0.06862,1.0312 -0.144865,1.2077 0.495592,1.38422 q 0,0.48308 -0.632833,2.49902 v 0.0836 l 0.137241,0.26012 -0.06862,0.34373 0.144868,0.86398 -0.07625,0.0836 v 0.0836 l 0.07625,0.0836 v 0.26012 h -0.07625 l 0.07625,0.60385 v 1.46783 l -0.07625,0.0836 v 0.0836 l -0.06862,-0.0836 h -0.06862 l -1.273292,0.26012 -0.922564,-0.60385 -0.84632,0.42734 h -0.144865 q -0.388848,0 -0.701453,-0.59456 0,-0.35303 0.632834,-0.52025 l 0.06862,-0.0836 v -0.0929 l -0.137241,-0.34373 0.282106,-0.94758 q 0,-0.76179 -0.213484,-1.11481 l 0.144865,-0.69675 v -0.85469 l -0.07625,-0.35302 0.07625,-0.34373 -0.144865,-1.2077 0.213484,-0.94759 -0.213484,-1.37492 0.213484,-1.38422 q -0.388848,-0.91042 -0.991183,-1.29131 0,-0.94759 1.837503,-0.94759 z m 3.682634,0 0.282106,0.17651 0.06862,-0.0929 h 0.06862 l 0.777699,0.17651 0.777699,-0.0836 0.571836,0.16722 v 0.42734 l 0.06862,2.75915 q -0.304981,0.4645 -0.70908,0.52024 l -0.564212,-0.86398 v -0.26012 l 0.06862,-0.0836 q -0.449843,-1.03119 -0.91494,-1.03119 l -0.07624,-0.34373 -0.632834,0.0836 q -0.358352,-0.0557 -0.358352,-0.52024 v -0.68747 q 0,-0.16722 0.571839,-0.34373 z m 0.846318,3.79034 v 0.52024 q 0.190612,0 0.350728,2.84275 l -0.06862,0.26012 0.213487,0.68747 -0.06862,0.0836 0.06862,0.43663 q -0.09149,0.68746 -0.426971,0.68746 -0.266858,-0.0186 -0.846321,-1.12409 -0.144865,0 -0.144865,-0.51096 l -0.495593,-0.60385 q 0,-1.2077 0.495593,-1.2077 0,-0.17651 0.213487,-0.17651 l 0.358349,-1.81156 0.06862,-0.0836 z m 1.486779,5.34177 q 0.327853,0 0.419347,1.38422 h 0.07624 l -0.213484,0.68746 0.06862,0.0836 -0.06862,0.43663 v 1.37493 l -0.282106,0.0836 -1.341914,-0.25083 -1.486776,0.25083 0.06862,-0.25083 -0.06862,-0.52025 v -0.0836 q 0,-0.17651 0.632834,-0.17651 0.09149,-0.26012 0.991183,-0.86397 0.54134,-1.62576 1.059805,-2.15529 z m 1.50965,-10.37697 -0.213487,-0.0836 q -0.182988,0.14865 -0.548964,0.14865 l -0.274482,-0.0743 q -0.213486,0 -0.335476,0.0743 l -0.33548,-0.0372 h -0.274482 l -0.0305,0.0372 -0.243986,-0.0743 -0.12199,0.0372 -0.09149,-0.0372 -0.182988,0.11148 -0.487969,-0.11148 -0.609959,0.0372 q -0.396475,0 -0.640458,-0.11149 -0.312605,0.26013 -0.426973,0.26013 h -0.09149 l -0.579463,-0.14864 h -0.426971 l -0.213487,0.0743 -0.518465,-0.0743 q -0.144865,0 -0.45747,0.1858 -0.144865,0 -0.426971,-0.26012 h -0.061 l -0.09149,0.11148 h -0.0305 v -0.0743 h -0.0305 q -0.114366,0.14864 -0.213487,0.14864 l -0.243983,-0.0372 -0.0305,0.0372 q -0.0305,-0.11148 -0.182988,-0.11148 -0.45747,0.009 -0.45747,0.0743 l -0.335477,-0.11148 -0.182988,0.0372 h -0.0305 q -0.09149,0 -0.12199,-0.48309 h -0.0305 q 0.0305,-0.63172 0.335477,-0.63172 l 0.274482,-0.0743 q 0,0.0743 0.09149,0.0743 l 0.243986,-0.0372 v 0.0372 q 0.282106,-0.0464 0.396472,-0.14864 0.297356,0.0743 0.426973,0.22296 l 0.12199,-0.0372 0.09149,0.0372 0.243986,-0.0372 0.0305,0.0372 0.152492,-0.0372 h 0.09149 l 0.426971,0.0372 0.0305,-0.0372 h 0.0305 l 0.182988,0.0743 0.548964,-0.11148 h 0.09149 l 0.243986,0.0743 h 0.152489 q 0.221111,0 0.548964,-0.11148 l 0.09149,0.0372 0.426973,-0.0372 h 0.12199 l 0.487969,0.14864 q 0.54134,-0.1858 0.731952,-0.1858 0,0.11148 0.121993,0.11148 l 0.182988,-0.0372 0.243983,0.0372 0.0305,-0.0372 0.0305,0.0372 h 0.0305 q 0.556588,0 1.189422,-0.14864 l 0.335476,0.14864 0.396475,-0.0743 0.243983,0.0372 0.152492,-0.065 z m -0.02287,17.05651 -0.213487,0.0743 -0.09149,-0.0372 -0.213484,0.0743 -0.274482,-0.11148 h -0.487969 l -0.182988,-0.0372 -0.42697,0.0743 -0.518468,-0.14864 -0.487966,0.0743 -0.213487,-0.0372 -0.121993,0.0372 -0.152489,-0.0372 -0.152489,0.11148 -0.152492,-0.11148 q -0.350725,0.0372 -0.45747,0.14864 l -0.45747,-0.0743 -0.274482,0.0743 -0.09149,-0.11148 h -0.09149 l -0.09149,0.11148 -0.12199,-0.0372 -0.182988,0.0372 -0.396474,-0.11148 v 0.0372 l -0.487969,-0.1858 -0.640458,0.22296 -0.853942,-0.11148 q -0.0305,0.11148 -0.182988,0.11148 h -0.121993 q -0.160116,0 -0.274482,-0.11148 l -0.640458,0.11148 q -0.42697,0 -0.42697,-0.26012 l 0.0305,-0.14864 q 0,-0.31586 -0.152489,-0.59457 0.09149,-0.29728 0.426971,-0.29728 l 0.457469,0.14864 h 0.121993 l 0.548964,0.0743 0.335477,-0.0743 0.182988,0.0372 0.91494,-0.1858 h 0.152492 q 0.08387,0.14864 0.884441,0.14864 h 0.365975 l 0.274482,-0.0372 q 0.426971,0.0557 0.426971,0.11148 l 0.609962,-0.0743 0.213484,0.0743 q 0.144868,-0.11148 0.548964,-0.11148 h 0.0305 l 0.304981,0.11148 h 0.243983 l 0.396475,-0.14864 h 0.365975 l 0.12199,0.0372 0.0305,-0.0372 0.45747,0.0372 0.762451,-0.11148 0.426971,0.10219 z" />
    <path
       inkscape:connector-curvature="0"
       id="path38"
       style="font-style:normal;font-variant:normal;font-weight:normal;font-stretch:normal;font-size:53.33333588px;line-height:125%;font-family:'Top Secret';-inkscape-font-specification:'Top Secret';letter-spacing:0px;word-spacing:0px;fill:#ffffff;fill-opacity:1;stroke:none;stroke-width:0.32318085px;stroke-linecap:butt;stroke-linejoin:miter;stroke-opacity:1"
       d="m 95.230625,271.6978 q 0.686205,0.16722 0.686205,0.33444 v 0.25083 q 0,0.63173 -0.823445,0.92901 l -0.282106,1.01261 q 0.396472,1.26345 0.831069,1.26345 0.05337,0.24154 1.45628,0.66888 1.067429,1.17983 1.654516,1.17983 0,0.14865 0.693828,0.8454 v 0.58527 q 0.205863,0 0.205863,0.16722 l -0.06862,0.34373 q 0.274482,0.45522 0.274482,1.51428 -0.160113,0 -0.274482,1.51428 -0.701453,0.91042 -1.311411,2.10884 -1.570649,0.58527 -2.142485,0.58527 h -0.06862 q -0.144865,0 -0.213487,-0.50166 0.121993,-0.8454 0.62521,-0.8454 0.686205,0 0.762451,-0.76178 v -0.75249 q -0.327853,-1.59789 -1.730762,-1.59789 -0.06862,-0.26941 -1.174173,-0.67817 0,-0.25084 -1.105552,-0.7525 -0.3736,-1.17983 -0.548964,-1.17983 v -0.42734 l -0.556588,-0.91972 0.343101,-0.84539 -0.20586,-0.8454 0.20586,-0.0836 v -0.41805 q 0.91494,-1.7744 1.524902,-2.10884 l 0.06862,0.0929 h 0.06862 q 0.20586,0 1.105551,-0.67817 z m 4.010487,0 h 0.06862 q 0.06862,0.58527 0.205863,0.58527 l -0.06862,0.42734 0.06862,0.50167 -0.205863,0.929 v 0.0836 l 0.274482,0.92901 v 0.25083 q 0,0.39947 -0.419347,0.8361 h -0.343101 v -0.8361 q -0.823445,-1.61647 -1.036932,-1.7744 -1.151299,-0.68746 -1.311415,-0.91972 v -0.16722 q 0,-0.67817 0.274482,-0.67817 1.349538,0.23225 1.593521,0.51095 h 0.274482 q 0,-0.54811 0.625209,-0.67817 z m -6.709559,8.24956 h 0.213487 q 0.274482,0.0929 0.548964,0.929 v 0.0836 l -0.06862,0.41805 q 0.449846,0.4645 0.762451,1.7744 v 0.0836 h 0.343101 l 1.105551,1.00332 v 0.42735 q 0,0.25083 -0.762447,0.25083 -0.03812,-0.20438 -0.480345,-0.41805 l -0.06862,0.0836 h -0.06862 q -0.419347,-0.20438 -0.419347,-0.34374 -0.45747,0 -0.823446,0.67818 h -0.213487 l -0.20586,-0.41805 0.06862,-0.42735 -0.137241,-0.16722 v -0.58527 l -0.137241,-0.51095 0.137241,-0.66888 v -0.59457 l -0.06862,-0.33444 q 0.09149,-1.26344 0.274482,-1.26344 z m 8.196337,-9.55016 -0.25161,0.0279 -0.0915,-0.0372 -0.0915,0.0372 -0.12199,-0.0372 h -0.0305 l -0.0305,0.0372 -0.213492,-0.0372 -0.365976,0.0743 -0.487969,-0.0743 -0.457469,0.14864 -0.945436,-0.1858 q -0.16774,0 -0.33548,0.11148 -0.190612,0 -0.365976,-0.11148 l -0.487966,0.11148 -0.701456,-0.0743 v 0.0372 h -0.06099 l -0.09149,-0.0743 -0.243983,0.0743 h -0.152491 l -0.182988,-0.0743 -0.518465,0.0743 -0.426971,-0.11148 -0.243986,0.0372 -0.335477,-0.0372 -0.365976,0.11148 -0.121993,-0.0372 -0.975935,0.10219 v -1.17055 l 0.0305,-0.009 h 0.0305 l 0.061,0.0743 q 0.411723,0 0.57946,-0.1858 l 0.121993,0.0372 0.152489,-0.0372 q 0,0.0743 0.396475,0.11148 l 0.09149,-0.0372 0.396475,0.11148 0.243983,-0.11148 h 0.243983 l 0.121993,-0.0372 q 0.45747,0.0464 0.45747,0.14864 l 0.640457,-0.11148 0.548964,0.0372 0.487969,-0.0743 0.426971,0.11148 h 0.640458 q 0.05337,-0.065 0.365976,-0.11148 l 0.182988,0.0372 0.182988,-0.0743 0.09149,0.0372 0.182988,-0.0743 q 0,0.1858 0.42697,0.22296 l 0.518468,-0.14864 h 0.243983 l 0.274484,0.0372 h 0.0305 l 0.0305,-0.0372 0.33548,0.0372 h 0.15248 l 0.008,0.009 z m 0,16.92645 q -0.44985,0.0186 -0.960689,0.13935 l -0.335477,-0.14864 -0.396475,0.0743 -0.243982,-0.0372 -0.182988,0.0743 h -0.121993 q -0.144865,0 -0.304978,-0.11148 l -0.274482,0.0372 q 0,-0.0464 -0.304981,-0.14864 -0.160116,0.0464 -0.243986,0.1858 l -0.12199,0.0372 -0.213487,-0.0372 -0.0305,0.0372 -1.097928,-0.11148 -0.12199,0.0372 -0.365976,-0.11148 -0.335479,0.0372 -0.243983,-0.0372 -0.426971,0.11148 -0.518468,-0.0743 -0.182988,0.0743 H 93.54561 l -0.243983,-0.0743 -0.09149,0.0743 h -0.061 v -0.0372 l -0.701453,0.0743 -0.419347,-0.0929 v -1.06836 l 0.236359,-0.065 0.487969,0.0743 0.548964,-0.0372 0.640458,0.11148 q 0,-0.10219 0.45747,-0.14864 l 0.12199,0.0372 h 0.243986 l 0.243983,0.11148 0.396474,-0.11148 0.09149,0.0372 q 0.396472,-0.0372 0.396472,-0.11148 l 0.152492,0.0372 0.12199,-0.0372 q 0.16774,0.1858 0.579463,0.1858 l 0.061,-0.0743 h 0.0305 l 0.121993,0.0372 0.12199,-0.0743 0.243986,0.0743 0.487969,-0.11148 0.213484,0.14864 0.182988,-0.0743 0.0305,0.0372 h 0.0305 l 0.304978,-0.0372 0.274482,0.11148 q 0.182987,-0.14864 0.548963,-0.14864 l 0.274482,0.0743 q 0.213487,0 0.335488,-0.0743 l 0.33547,0.0372 h 0.27449 l 0.0305,-0.0372 0.0763,0.0186 z" />
    <path
       inkscape:connector-curvature="0"
       id="path40"
       style="font-style:normal;font-variant:normal;font-weight:normal;font-stretch:normal;font-size:53.33333588px;line-height:125%;font-family:'Top Secret';-inkscape-font-specification:'Top Secret';letter-spacing:0px;word-spacing:0px;fill:#ffffff;fill-opacity:1;stroke:none;stroke-width:0.32318085px;stroke-linecap:butt;stroke-linejoin:miter;stroke-opacity:1"
       d="m 100.96425,269.33813 q 0.12961,-0.12077 0.41172,-0.13935 v 0.0372 q 0.39647,0.0372 0.39647,0.14864 v 0.0372 l -0.0305,0.22296 0.0915,0.40876 q -0.0534,0 -0.061,0.55741 0,0.1858 0.0915,0.22296 l -0.0305,0.0372 0.0305,0.29728 q 0,0.11148 -0.12199,0.26012 v 0.0372 h 0.061 v 0.0372 l -0.0915,0.11148 v 0.0743 q 0.21348,0.33444 0.21348,0.52024 -0.15249,0.38089 -0.15249,0.55741 l 0.061,0.63172 -0.061,0.26012 v 0.52024 l 0.122,0.70604 v 0.11148 q 0,0.13936 -0.21349,0.52025 0.0915,0.29728 0.0915,0.78036 l -0.0305,0.7432 0.0915,0.59457 -0.0915,0.22296 0.0305,0.11148 -0.0305,0.14864 0.061,0.29728 -0.0305,0.0372 v 0.33444 l 0.0305,0.40876 q -0.061,0.14864 -0.061,0.40876 l 0.061,0.33445 q 0,0.44592 -0.12199,0.66888 l 0.0915,0.33444 -0.0305,0.3716 v 0.0372 l 0.0305,0.0372 -0.061,0.22296 0.12199,0.26012 -0.0915,0.59457 0.061,0.29728 -0.061,0.14864 0.0305,0.14864 v 0.0372 l -0.061,0.0743 q 0,0.50166 0.15249,0.70604 l -0.0305,0.14864 0.0305,0.1858 q -0.061,0 -0.0915,0.48309 l 0.0305,0.11148 -0.0915,0.48308 0.0915,0.29728 v 0.29728 l 0.0305,0.14864 q -0.0381,0.5574 -0.12199,0.5574 l 0.0839,0.71534 -0.53372,0.0372 v 0.0929 q -0.21348,0.0279 -0.57183,0.0464 l -0.51847,-0.14864 h -0.12199 l -0.0305,0.0372 -0.0305,-0.0372 -0.01525,-1.0312 0.25923,-0.0464 0.42697,0.14864 0.22874,-0.0557 -0.0305,-0.31586 0.0915,-0.52024 -0.0305,-0.29728 0.0305,-0.40876 -0.0915,-0.44592 0.0305,-0.14865 -0.0915,-1.33776 0.0305,-0.0372 -0.0305,-0.26012 0.0305,-0.14864 q 0.11437,-0.10219 0.15249,-0.29728 -0.0839,-0.37161 -0.12199,-0.37161 l 0.0305,-0.33444 q -0.0915,-0.19509 -0.0915,-0.3716 v -0.14864 l 0.061,-0.22296 -0.0305,-0.29728 0.061,-0.48308 -0.12199,-0.40877 q 0.12199,-0.78036 0.12199,-1.44924 v -0.0372 l -0.0305,-0.0372 0.0305,-0.0372 -0.0305,-0.29728 0.0305,-0.22296 q 0,-0.14865 -0.0915,-0.14865 0,-0.23225 0.15249,-0.89184 l -0.12199,-0.59456 v -0.14864 l 0.0305,-0.52024 -0.0305,-0.11149 q 0.0915,-0.39947 0.0915,-0.66888 v -0.1858 l -0.061,-0.29728 v -0.11148 l 0.0915,-0.66888 -0.061,-0.22296 v -0.0372 l 0.0305,-0.0372 -0.0305,-0.52025 v -0.11148 l 0.0305,-0.1858 -0.0305,-0.0372 0.0305,-0.29728 -0.0305,-0.11148 0.0305,-0.14864 q -0.12199,-0.15793 -0.18298,-0.52024 0.0762,-0.12077 0.11437,-0.39947 -0.31261,-0.0279 -0.35073,-0.0836 h -0.0305 l -0.0305,0.0372 -0.12199,-0.0743 q 0,0.0836 -0.3431,0.13936 v -1.17984 h 0.0076 l 0.57946,0.0372 0.24399,-0.0372 q 0,0.0464 0.16011,0.065 z" />
  </g>
</svg>
