<?xml version="1.0" encoding="UTF-8" standalone="no"?>
<!-- Created with Inkscape (http://www.inkscape.org/) -->

<svg
   xmlns:dc="http://purl.org/dc/elements/1.1/"
   xmlns:cc="http://creativecommons.org/ns#"
   xmlns:rdf="http://www.w3.org/1999/02/22-rdf-syntax-ns#"
   xmlns:svg="http://www.w3.org/2000/svg"
   xmlns="http://www.w3.org/2000/svg"
   xmlns:sodipodi="http://sodipodi.sourceforge.net/DTD/sodipodi-0.dtd"
   xmlns:inkscape="http://www.inkscape.org/namespaces/inkscape"
   width="500mm"
   height="200mm"
   viewBox="0 0 500 200"
   version="1.1"
   id="svg8"
   sodipodi:docname="auto-at2players.svg"
   inkscape:version="0.92.5 (2060ec1f9f, 2020-04-08)">
  <defs
     id="defs2" />
  <sodipodi:namedview
     id="base"
     pagecolor="#ffffff"
     bordercolor="#666666"
     borderopacity="1.0"
     inkscape:pageopacity="0.0"
     inkscape:pageshadow="2"
     inkscape:zoom="0.3828125"
     inkscape:cx="1151.4872"
     inkscape:cy="442.0087"
     inkscape:document-units="mm"
     inkscape:current-layer="layer1"
     showgrid="false"
     inkscape:pagecheckerboard="true"
     inkscape:window-width="1366"
     inkscape:window-height="740"
     inkscape:window-x="0"
     inkscape:window-y="0"
     inkscape:window-maximized="1" />
  <metadata
     id="metadata5">
    <rdf:RDF>
      <cc:Work
         rdf:about="">
        <dc:format>image/svg+xml</dc:format>
        <dc:type
           rdf:resource="http://purl.org/dc/dcmitype/StillImage" />
        <dc:title></dc:title>
      </cc:Work>
    </rdf:RDF>
  </metadata>
  <g
     inkscape:label="Layer 1"
     inkscape:groupmode="layer"
     id="layer1"
     transform="translate(0,-97)">
    <g
       aria-label="[2 players]"
       transform="matrix(1.0880151,0,0,1.0880151,19.319565,116.59114)"
       style="font-style:normal;font-weight:normal;font-size:40px;line-height:125%;font-family:sans-serif;letter-spacing:0px;word-spacing:0px;fill:#ffffff;fill-opacity:1;stroke:none;stroke-width:1px;stroke-linecap:butt;stroke-linejoin:miter;stroke-opacity:1"
       id="flowRoot10">
      <path
         d="m 32.515625,40.718117 q 0.65625,-0.0625 0.65625,-0.21875 l 1,0.125 2.84375,-0.03125 h 0.03125 v 3.96875 q -1.40625,-0.1875 -1.40625,-0.46875 l -0.96875,0.15625 -0.125,-0.125 h -0.125 q -0.15625,0.1875 -1.4375,0.28125 0.15625,0.9375 0.46875,1.34375 -0.25,1.21875 -0.75,1.75 l 0.125,0.5 -0.125,0.375 0.125,1 -0.125,0.125 0.125,0.625 v 0.375 l -0.125,1.75 0.125,0.125 v 0.125 l -0.25,0.75 0.375,2.25 v 0.375 l -0.25,1 v 0.625 q 0,0.90625 0.375,2.25 l -0.125,0.375 0.125,1.75 v 0.5 l -0.5,2 q 0.625,2.21875 0.625,3 -0.375,0 -0.375,0.5 l 0.125,0.75 -0.125,1 0.125,0.125 -0.125,0.125 v 0.125 q 0,2.25 0.5,4.875 l -0.5,1.375 0.25,1.625 -0.125,1 0.25,0.75 v 0.5 q 0,0.59375 -0.375,1.25 l 0.125,1.125 q -0.15625,0 -0.5,1.25 0.15625,0.65625 0.625,1 l 0.125,0.5 -0.125,0.875 0.125,0.125 -0.375,4.5 0.125,0.5 -0.375,1.5 0.125,1.375 -0.125,1 0.375,1.75 -0.125,1.0625 0.9375,0.1875 2.21875,-0.40625 1.0625,0.15625 -0.0625,3.468753 -0.125,0.125 -0.125,-0.125 h -0.5 l -2.59375,0.40625 q -1.46875,-0.0625 -2.34375,-0.15625 v -0.3125 l -2.1875,-0.125 0.34375,-2.406253 q -0.34375,0 -0.5,-1.875 l 0.125,-0.5 v -1 l 0.375,-1 -0.375,-1.625 0.125,-0.375 q -0.125,-1.625 -0.375,-1.625 l 0.125,-0.625 -0.125,-0.5 q 0.625,-0.6875 0.625,-2.375 l -0.25,-0.25 v -0.125 l 0.125,-0.5 -0.25,-0.5 0.25,-1 -0.375,-2 0.5,-0.875 -0.25,-0.75 0.125,-0.125 v -0.125 l -0.125,-1.25 0.375,-1.125 q -0.5,-0.75 -0.5,-2.25 l 0.25,-1.125 q 0,-0.875 -0.25,-1.375 l 0.125,-1.375 v -1.125 l -0.125,-0.125 0.25,-1 -0.125,-0.5 0.125,-0.375 -0.375,-0.75 0.375,-2 -0.125,-2.5 q 0,-1.625 0.375,-2.625 -0.875,-1.28125 -0.875,-1.75 v -0.375 l 0.5,-2.375 v -1.75 l -0.25,-0.875 0.25,-2.125 q 0,-0.59375 -0.625,-1.875 0,-0.625 0.875,-1.75 v -0.25 l -0.375,-0.375 v -0.125 h 0.25 v -0.125 q -0.5,-0.5 -0.5,-0.875 l 0.125,-1 -0.125,-0.125 q 0.375,-0.125 0.375,-0.75 -0.03125,-1.875 -0.25,-1.875 l 0.375,-1.375 -0.125,-0.75 v -0.125 q 0,-0.375 1.625,-0.5 v -0.125 q 1.15625,0.0625 1.6875,0.46875 z"
         style="font-style:normal;font-variant:normal;font-weight:normal;font-stretch:normal;font-size:64px;font-family:'Top Secret';-inkscape-font-specification:'Top Secret';fill:#ffffff"
         id="path321" />
      <path
         d="m 48.234375,48.655617 0.5625,0.5625 v 1.71875 q 0,1.1875 -2,2.875 l 2.5625,3.125 0.59375,3.15625 v 1.40625 q -1.71875,1.65625 -1.71875,2.59375 l -1.71875,1.6875 -1.15625,0.3125 q -1.09375,-0.875 -5.125,-1.15625 -0.90625,-0.75 -2.84375,-4.28125 v -2 l 0.28125,-0.28125 -0.28125,-0.28125 v -0.3125 q 0,-2.53125 2,-3.40625 0,-2.03125 6.84375,-4.28125 0.5625,-1.4375 2,-1.4375 z m 3.125,0 h 0.3125 q 8.59375,1.03125 8.84375,2.84375 4.84375,0 6,10 v 0.875 q 0,1.0625 -1.15625,2.84375 v 0.28125 l 0.28125,0.28125 v 0.3125 q -0.625,0 -1.125,3.40625 -3.71875,1.09375 -3.71875,3.71875 h -3.4375 q -0.46875,0 -0.84375,1.4375 -0.8125,0 -1.4375,0.84375 l -0.28125,-0.28125 h -0.5625 q -0.96875,0 -5.71875,2.28125 l -1.71875,0.28125 -0.84375,-0.28125 -3.71875,1.71875 q 0,-0.875 4,-3.4375 1.25,-1.625 5.71875,-4.5625 2,-5.75 2,-7.125 l -0.59375,-1.71875 v -0.875 l 0.3125,-4.5625 q -2.3125,-2.78125 -2.3125,-3.71875 v -0.28125 l 0.3125,-2.5625 z m 15.4375,30 0.84375,3.40625 q 0,4.625 -3.6875,7.15625 -0.3125,0.8125 -5.71875,4.28125 h -0.28125 l -3.4375,-0.84375 h -0.28125 l -0.875,0.5625 q -2.75,0 -4.84375,-1.71875 h -0.5625 l -0.875,0.5625 h -0.28125 q -0.5625,0 -0.5625,-0.84375 h -2.5625 l -2.28125,-0.5625 q -1.40625,0.84375 -3.71875,0.84375 h -0.875 l -0.5625,-0.5625 q 0,-2.59375 1.15625,-2.59375 1.09375,0 2,-4.5625 3.71875,-1.125 4.28125,-2.84375 h 0.84375 q 2,0.09375 2,0.5625 l 2.28125,-0.5625 h 1.15625 q 1.78125,0 5.40625,2.28125 l 2.3125,0.28125 1.6875,-0.5625 2.28125,0.28125 3.71875,-4.28125 z m 4.875,-34.84375 -0.34375,0.09375 -1.375,-0.125 h -0.625 l -0.75,0.375 q -0.59375,-0.375 -1.125,-0.375 -1.0625,0 -1.75,0.25 l -2.75,-0.375 q -0.1875,0.5 -0.375,0.5 h -1.125 l -0.125,0.125 -1.625,-0.75 h -0.125 l -3.5,0.875 -0.625,-0.625 q -0.75,0 -1,-0.25 h -0.375 l -0.625,0.375 -0.125,-0.125 h -0.25 q -0.625,0 -0.625,0.375 h -0.375 v -0.25 h -0.375 l -0.375,0.375 q -1.375,-0.125 -2.875,-0.625 h -0.625 q -0.875,0 -3.375,0.875 -1.25,-0.5 -3.625,-0.5 l -1.25,0.25 q -1.0625,-0.375 -2.25,-0.375 v 0.125 l -1.25,-0.5 -0.4375,0.09375 v -3.5 l 0.5625,-0.21875 h 0.375 q 0.65625,0 1.125,0.375 l 0.75,-0.25 0.75,0.375 0.625,-0.375 0.125,0.125 h 0.125 l 1,-0.125 q 0.40625,0 1.125,0.5 h 1 l 0.5,0.125 0.5,-0.125 1.5,0.25 q 0.75,-0.75 1.5,-0.75 h 0.375 q 0.40625,0 0.875,0.375 h 0.125 q 1.28125,-0.375 2.25,-0.375 l 1.875,0.25 0.75,-0.125 0.625,0.125 0.125,-0.125 3.5,0.5 1.75,-0.5 0.875,0.125 1.375,-0.25 0.75,0.375 0.125,-0.125 h 0.125 l 0.5,0.125 1.125,-0.375 0.375,0.375 0.625,-0.125 h 1.25 l 1.5,-0.125 0.25,0.25 0.25,-0.25 1.25,0.125 h 1.125 l 0.71875,-0.375 z m 0,57.562503 h -1.3125 l -1.5,0.125 -0.25,-0.25 -0.25,0.25 -1.25,-0.125 h -1.125 l -1.25,0.625 -2,-0.5 -0.125,0.125 h -0.125 l -1,-0.375 h -1.375 l -0.5,0.25 -0.5,-0.25 -1.125,0.125 -0.125,-0.125 -1,0.25 h -0.375 l -1.5,-0.375 -1.25,0.25 -0.5,-0.125 -1.75,0.375 -0.125,-0.125 h -0.125 l -0.875,0.25 -0.375,-0.125 -0.875,0.25 -1.125,-0.375 h -2 l -0.75,-0.125 -1.75,0.25 -2.125,-0.5 -2,0.25 -0.875,-0.125 -0.5,0.125 -0.625,-0.125 -0.625,0.375 -0.625,-0.375 q -0.25,0.0312 -0.46875,0.0625 v -3.437503 l 0.46875,0.125 q 0.59375,-0.375 2.25,-0.375 h 0.125 l 1.25,0.375 h 1 l 1.625,-0.5 h 1.5 l 0.5,0.125 0.125,-0.125 1.875,0.125 3.125,-0.375 3.75,0.75 1.375,-0.125 0.75,0.25 h 0.125 l 0.125,-0.125 1,0.25 q 0,-0.28125 2.125,-0.75 0.46875,-0.5 1,-0.625 0.90625,0.875 1.875,0.875 l 0.625,-0.375 q 0.28125,0.40625 1.875,0.75 l 1.5,-0.375 1.375,0.125 h 0.625 l 0.75,-0.375 q 0.59375,0.375 1.125,0.375 1.0625,0 1.75,-0.25 l 0.4375,0.0625 z"
         style="font-style:normal;font-variant:normal;font-weight:normal;font-stretch:normal;font-size:64px;font-family:'Top Secret';-inkscape-font-specification:'Top Secret';fill:#ffffff"
         id="path323" />
      <path
         d="m 103.42188,101.78062 -1.71875,-0.21875 -0.75,0.125 -0.625,-0.125 -0.125,0.125 -3.500005,-0.5 -1.75,0.5 -0.875,-0.125 -1.375,0.25 -0.75,-0.375 -0.125,0.125 h -0.125 l -0.5,-0.125 -1.125,0.375 -0.375,-0.375 -0.625,0.125 h -1.25 l -1.5,0.125 -0.25,-0.25 -0.25,0.25 -1.25,-0.125 h -1.125 l -1.25,0.625 -2,-0.5 -0.125,0.125 h -0.125 l -1,-0.375 h -1.375 l -0.5,0.25 -0.5,-0.25 -1.125,0.125 -0.125,-0.125 -1,0.25 h -0.375 l -1.5,-0.375 -1.25,0.25 -0.5,-0.125 -0.28125,0.0625 v -3.375003 l 0.28125,0.0625 1.375,-0.125 0.75,0.25 h 0.125 l 0.125,-0.125 1,0.25 q 0,-0.28125 2.125,-0.75 0.46875,-0.5 1,-0.625 0.90625,0.875 1.875,0.875 l 0.625,-0.375 q 0.28125,0.40625 1.875,0.75 l 1.5,-0.375 1.375,0.125 h 0.625 l 0.75,-0.375 q 0.59375,0.375 1.125,0.375 1.0625,0 1.75,-0.25 l 2.75,0.375 q 0.1875,-0.5 0.375,-0.5 h 1.125 l 0.125,-0.125 1.625,0.75 h 0.125 l 3.5,-0.875 0.625,0.625 q 0.75,0 1,0.25 h 0.375005 l 0.625,-0.375 0.125,0.125 h 0.25 q 0.625,0 0.625,-0.375 h 0.375 v 0.25 h 0.375 l 0.375,-0.375 q 0.15625,0 0.34375,0.03125 z m -5.562505,-57.000003 -0.34375,0.1875 q -2.21875,-0.125 -3,-0.375 h -0.375 l -0.125,0.125 -0.75,-0.25 -0.5,0.375 h -0.25 q -0.40625,-0.5 -2,-0.5 l -2.75,0.25 -0.125,-0.125 h -0.125 q -0.34375,0.25 -2,0.5 l -0.875,-0.25 -0.75,0.125 q -1.75,-0.125 -1.75,-0.625 -0.84375,0.75 -2,0.75 -2.375,-0.375 -4.875,-0.375 l -1,0.375 h -0.375 q -0.65625,0 -1.125,-0.375 l -0.75,0.25 -0.75,-0.375 -0.625,0.375 -0.125,-0.125 v -4.0625 l 0.375,-0.0625 q 1.0625,0.375 2.25,0.375 v -0.125 l 1.25,0.5 3.25,-0.625 h 0.875 l 0.875,0.125 q 0,-0.1875 0.5,-0.375 l 0.125,0.125 h 0.125 l 0.75,-0.125 q 2.875,0.375 2.875,0.625 h 0.5 l 0.125,-0.125 h 0.125 q 0.125,0.375 0.75,0.375 h 0.5 q 0.46875,-0.34375 3.125,-0.75 l 1.375,0.375 h 0.375 l 2.125,-0.375 h 0.625 q 0.46875,0.5 1.875,0.5 0.625,-0.21875 1.34375,-0.3125 v -0.125 q 0.25,0.03125 0.53125,0.09375 0.3125,-0.03125 0.625,-0.03125 l 0.09375,0.15625 q 0.625,0.15625 1.28125,0.375 h 0.625 q 0.875005,0 3.375005,-0.875 0.21875,0.09375 0.46875,0.15625 v 3.78125 l -0.21875,0.0625 -1.5,-0.25 q -0.75,0.75 -1.5,0.75 h -0.375 q -0.406255,0 -0.875005,-0.375 h -0.125 q -0.625,0.1875 -1.15625,0.28125 z"
         style="font-style:normal;font-variant:normal;font-weight:normal;font-stretch:normal;font-size:64px;font-family:'Top Secret';-inkscape-font-specification:'Top Secret';fill:#ffffff"
         id="path325" />
      <path
         d="m 129.98437,48.655617 q 2.53125,0.65625 3.5,2.625 6.375,2 6.375,6.9375 l 0.5625,2.34375 -0.28125,0.875 1.15625,5.5 q 0,1.9375 -6.96875,6.6875 -6.46874,3.1875 -10.43749,3.1875 0,-0.875 -0.5625,-0.875 l 0.84375,-1.75 -0.5625,-1.15625 q 2.03125,-1.5 3.1875,-6.09375 v -1.4375 l -0.59375,-4.9375 q 1.75,-1.25 1.75,-2.34375 0,-2.71875 -4.9375,-6.375 v -1.75 l 0.875,-0.84375 2.3125,0.5625 q 0.78125,-0.78125 3.78124,-1.15625 z m -25.81249,0.28125 0.28125,0.3125 h 0.28125 l 1.75,-0.3125 10.75,0.875 1.71875,-0.5625 h 1.46875 v 0.28125 l -0.3125,1.75 q 0.375,9.28125 1.1875,9.28125 -0.59375,0.65625 -0.59375,3.46875 l -0.28125,0.28125 -0.3125,0.875 0.3125,1.75 -0.59375,2.625 0.59375,1.15625 -0.59375,1.71875 0.875,1.46875 -0.28125,0.28125 v 1.46875 l 0.28125,0.28125 q -0.59375,2.40625 -1.15625,2.59375 l 1.75,3.21875 v 0.28125 l -0.3125,6.96875 q 0.6875,0.5625 2.03125,0.5625 l 0.875,2.34375 h -0.28125 q -4.09375,0.78125 -4.9375,1.4375 l -5.8125,-1.4375 h -2.90625 l -2.03125,1.15625 q -5.21875,-0.53125 -5.21875,-1.75 0,-1.15625 3.5,-1.4375 l 1.4375,-2.34375 v -1.15625 l -0.875,-2.90625 v -0.875 l 0.59375,-2.3125 -1.75,-3.1875 v -0.28125 l 0.875,-4.375 -0.59375,-1.15625 0.59375,-2.03125 -0.28125,-1.15625 0.28125,-2.3125 h -0.28125 l 0.28125,-0.28125 v -0.3125 l -0.28125,-2.03125 0.28125,-1.71875 -0.28125,-0.3125 v -0.28125 l 0.5625,-2.3125 v -3.1875 q -1.15625,0 -2.3125,-3.21875 -1.4375,-0.28125 -2.03125,-1.15625 z m 40.93749,52.500003 h -0.0937 l -3.875,0.625 -1.875,-0.5 -2,0.25 -1.5,-0.25 -0.875,0.125 -0.125,-0.125 h -0.125 l -0.5,0.125 -0.375,-0.125 -0.375,0.125 -3.75,-0.375 -1.125,0.125 h -0.5 l -0.12499,0.125 -0.125,-0.125 h -1.25 l -1.5,0.375 -1.75,-0.5 -1.125,0.125 h -0.125 l -1.75,-0.375 -1.125,0.375 h -1.25 l -1.375,0.25 -1.625,-0.25 h -0.5 l -0.75,0.125 -0.625,-0.125 h -0.25 l -0.125,0.125 -0.125,-0.125 h -0.5 l -2.125,0.5 q -3.75,-0.15625 -3.75,-0.625 l -0.5,0.25 -0.125,-0.125 h -0.125 q -0.21875,0.25 -2.625,0.375 -1,-0.125 -1,-1 v -0.5 l 0.25,-0.375003 v -0.375 l -0.25,-1 v -0.25 l 0.25,-0.25 h 0.875 q 1.25,-0.03125 1.25,-0.25 l 1,0.125 2.375,-0.125 2.5,0.5 1.75,-0.5 1.875,0.25 0.125,-0.125 h 0.125 l 1,0.375 2.125,-0.375 0.875,0.25 0.125,-0.125 h 0.125 l 0.875,0.25 2.625,-0.5 0.875,0.375 h 1.375 q 1.375,-0.1875 1.375,-0.5 1.125,0.125 1.125,0.375 1.25,-0.125 1.5,-0.375 2.62499,0.125 2.62499,0.375 l 0.375,-0.25 0.75,0.25 h 0.375 l 0.375,-0.25 h 0.625 l 1.375,-0.125 0.125,0.125 h 0.125 l 1.125,-0.125 h 1 l 2.125,0.5 q 1.75,-0.125 1.75,-0.75 l 0.75,0.25 0.375,-0.125 0.75,0.25 0.75,-0.125 q 1.28125,0.15625 1.5,0.375 h 0.34375 z m 0,-57.156253 -1.3125,0.1875 -0.125,-0.125 -0.625,0.125 -0.75,-0.125 -1.875,0.25 q -0.96875,0 -2.25,-0.375 h -0.125 q -0.46875,0.375 -0.875,0.375 h -0.375 q -0.75,0 -1.5,-0.75 l -1.5,0.25 -0.5,-0.125 -0.5,0.125 h -1 q -0.71875,0.5 -1.125,0.5 l -1,-0.125 h -0.125 l -0.125,0.125 -0.625,-0.375 -0.75,0.375 -0.74999,-0.25 q -0.46875,0.375 -1.125,0.375 h -0.375 l -1,-0.375 q -2.5,0 -4.875,0.375 -1.15625,0 -2,-0.75 0,0.5 -1.75,0.625 l -0.75,-0.125 -0.875,0.25 q -1.65625,-0.25 -2,-0.5 h -0.125 l -0.125,0.125 -2.75,-0.25 q -1.59375,0 -2,0.5 h -0.25 l -0.5,-0.375 -0.75,0.25 -0.125,-0.125 h -0.375 q -0.78125,0.25 -3,0.375 l -0.875,-0.5 v -0.125 l 0.125,-0.125 q 0.5,-0.1875 0.5,-0.375 v -0.125 l -0.375,-0.375 0.25,-0.875 v -0.125 q 0,-0.25 -0.375,-0.25 v -0.5 l 0.5,-0.875 q 1.4375,0 2.5,0.375 1.4375,0 1.875,-0.5 h 0.625 l 2.125,0.375 h 0.375 l 1.375,-0.375 q 2.65625,0.40625 3.125,0.75 h 0.5 q 0.625,0 0.75,-0.375 h 0.125 l 0.125,0.125 h 0.5 q 0,-0.25 2.875,-0.625 l 0.75,0.125 h 0.125 l 0.125,-0.125 q 0.5,0.1875 0.5,0.375 l 0.875,-0.125 h 0.875 l 3.25,0.625 1.25,-0.5 v 0.125 q 1.18749,0 2.24999,-0.375 l 1.25,0.25 q 2.375,0 3.625,-0.5 2.5,0.875 3.375,0.875 h 0.625 q 1.5,-0.5 2.875,-0.625 l 0.375,0.375 h 0.375 v -0.25 h 0.375 q 0,0.375 0.625,0.375 h 0.25 l 0.125,-0.125 0.625,0.375 h 0.375 q 0.25,-0.25 1,-0.25 l 0.0625,-0.0625 z"
         style="font-style:normal;font-variant:normal;font-weight:normal;font-stretch:normal;font-size:64px;font-family:'Top Secret';-inkscape-font-specification:'Top Secret';fill:#ffffff"
         id="path327" />
      <path
         d="m 148.92187,48.655617 q 6.5625,0.75 6.5625,1.125 l 0.84375,-0.28125 q 1.625,0.875 3.40625,0.875 l 0.59375,-0.59375 h 1.125 l 2.5625,-0.28125 q 2,0.40625 2,2.875 l -0.28125,0.84375 h -1.15625 q -2.25,0 -2.25,5.96875 v 0.59375 l 0.28125,3.40625 h -0.28125 q 0.84375,1.15625 1.125,4.5625 0,0.84375 -0.84375,0.84375 l -0.28125,0.3125 v 0.28125 l 0.28125,1.40625 -0.28125,0.875 0.28125,2.5625 v 2.28125 q 0.0625,1.40625 0.5625,1.40625 l -1.71875,6.84375 0.875,1.71875 h -0.3125 l 1.15625,4.84375 h -0.84375 q -1.21875,0 -2.875,1.4375 h -0.28125 q -1.625,0 -3.125,-1.15625 h -1.4375 l -2.28125,0.5625 -4.84375,-0.5625 -1.71875,0.28125 -0.5625,-0.84375 v -0.5625 q 0,-0.71875 3.15625,-1.71875 l 0.5625,-2.5625 q 0,-2.09375 -0.875,-3.71875 0.1875,-2.75 1.4375,-4.5625 l -0.28125,-1.125 0.28125,-0.875 -0.84375,-1.6875 0.5625,-4.84375 q 0,-3.6875 -0.84375,-6.5625 l 0.84375,-1.15625 v -0.28125 l -0.84375,-0.84375 0.28125,-0.28125 v -2 l -0.28125,-1.71875 0.28125,-0.28125 v -0.28125 q 0,-3.71875 -3.71875,-3.71875 l -0.28125,-0.28125 v -0.5625 q 2.28125,-2.5625 4.28125,-2.5625 z m 26.21875,29.0625 q 2.5625,0.6875 2.5625,3.4375 v 2 q -1.4375,0 -1.4375,1.6875 l 1.4375,5.71875 v 0.28125 q 0,1.875 -1.125,2.5625 l -2.875,-2 -6.84375,0.5625 q -1.6875,0 -1.6875,-1.6875 v -0.59375 q 0,-0.40625 3.40625,-1.40625 0,-1.15625 1.4375,-2.28125 l 2,-2 0.28125,-1.125 -0.28125,-0.3125 v -0.28125 l 1.40625,-2 q 0.15625,-2.5625 1.71875,-2.5625 z m 7.09375,-33.78125 q -0.75,0.4375 -2.15625,0.4375 l -1.125,-0.25 q -0.875,0 -1.375,0.25 l -1.375,-0.125 h -1.125 l -0.125,0.125 -1,-0.25 -0.5,0.125 -0.375,-0.125 -0.75,0.375 -2,-0.375 -2.5,0.125 q -1.625,0 -2.625,-0.375 -1.28125,0.875 -1.75,0.875 h -0.375 l -2.375,-0.5 h -1.75 l -0.875,0.25 -2.125,-0.25 q -0.59375,0 -1.875,0.625 -0.59375,0 -1.75,-0.875 h -0.25 l -0.375,0.375 h -0.125 v -0.25 h -0.125 q -0.46875,0.5 -0.875,0.5 l -1,-0.125 -0.125,0.125 q -0.125,-0.375 -0.75,-0.375 -1.875,0.03125 -1.875,0.25 l -1.375,-0.375 -0.75,0.125 h -0.125 q -0.375,0 -0.5,-1.625 h -0.125 q 0.125,-2.125 1.375,-2.125 l 1.125,-0.25 q 0,0.25 0.375,0.25 l 1,-0.125 v 0.125 q 1.15625,-0.15625 1.625,-0.5 1.21875,0.25 1.75,0.75 l 0.5,-0.125 0.375,0.125 1,-0.125 0.125,0.125 0.625,-0.125 h 0.375 l 1.75,0.125 0.125,-0.125 h 0.125 l 0.75,0.25 2.25,-0.375 h 0.375 l 1,0.25 h 0.625 q 0.90625,0 2.25,-0.375 l 0.375,0.125 1.75,-0.125 h 0.5 l 2,0.5 q 2.21875,-0.625 3,-0.625 0,0.375 0.5,0.375 l 0.75,-0.125 1,0.125 0.125,-0.125 0.125,0.125 h 0.125 q 2.28125,0 4.875,-0.5 l 1.375,0.5 1.625,-0.25 0.65625,0.09375 z m 0,57.562503 q -0.4375,-0.125 -1.15625,-0.1875 l -2.125,0.5 h -1 l -1.125,-0.125 h -0.125 l -0.125,0.125 -1.375,-0.125 h -0.625 l -0.375,-0.25 h -0.375 l -0.75,0.25 -0.375,-0.25 q 0,0.25 -2.625,0.375 -0.25,-0.25 -1.5,-0.375 0,0.25 -1.125,0.375 0,-0.3125 -1.375,-0.5 h -1.375 l -0.875,0.375 -2.625,-0.5 -0.875,0.25 h -0.125 l -0.125,-0.125 -0.875,0.25 -2.125,-0.375 -1,0.375 h -0.125 l -0.125,-0.125 -1.875,0.25 -1.75,-0.5 -2.5,0.5 -2.375,-0.125 -1,0.125 q 0,-0.21875 -1.25,-0.25 h -0.875 l -0.25,-0.25 v -0.25 l 0.25,-1.000003 v -0.375 l -0.25,-0.375 v -0.5 q 0,-0.875 1,-1 2.40625,0.125 2.625,0.375 h 0.125 l 0.125,-0.125 0.5,0.25 q 0,-0.46875 3.75,-0.625 l 2.125,0.5 h 0.5 l 0.125,-0.125 0.125,0.125 h 0.25 l 0.625,-0.125 0.75,0.125 h 0.5 l 1.625,-0.25 1.375,0.25 h 1.25 l 1.125,0.375 1.75,-0.375 h 0.125 l 1.125,0.125 1.75,-0.5 1.5,0.375 h 1.25 l 0.125,-0.125 0.125,0.125 h 0.5 l 1.125,0.125 3.75,-0.375 0.375,0.125 0.375,-0.125 0.5,0.125 h 0.125 l 0.125,-0.125 0.875,0.125 1.5,-0.25 2,0.25 0.78125,-0.21875 z"
         style="font-style:normal;font-variant:normal;font-weight:normal;font-stretch:normal;font-size:64px;font-family:'Top Secret';-inkscape-font-specification:'Top Secret';fill:#ffffff"
         id="path329" />
      <path
         d="m 209.10937,48.749367 0.28125,0.28125 0.59375,0.5625 h 0.28125 l -0.5625,2.3125 1.15625,3.1875 1.15625,1.15625 v 6.0625 q 0.84375,0.78125 2.28125,6.9375 l 1.15625,1.15625 -0.28125,0.28125 v 1.15625 l 0.28125,1.15625 -0.28125,1.15625 1.75,5.1875 h -0.3125 l 0.875,1.4375 -0.875,1.46875 q 1,0 1.75,3.46875 l -0.28125,2 q 0,0.875 2.59375,1.75 l 0.84375,2.3125 -1.15625,0.84375 h -0.28125 l -0.84375,-0.5625 h -0.59375 l -3.75,1.15625 h -0.28125 l -1.15625,-0.28125 -1.15625,0.28125 h -0.59375 l -1.4375,-0.875 -6.0625,0.875 q -1.5,0 -2.3125,-1.4375 v -0.3125 q 1.75,-1.0625 1.75,-3.75 l -0.59375,-2 0.28125,-0.3125 -0.5625,-2.59375 0.28125,-0.28125 v -1.15625 h -2.59375 l -2.3125,0.5625 q -0.75,-0.5625 -2.875,-0.5625 l -0.3125,-0.28125 v -2.625 q 0,-0.5625 1.75,-0.84375 l 1.15625,1.15625 h 2 l 1.46875,-0.3125 -0.875,-4.90625 0.28125,-1.71875 q -0.875,0 -2.03125,-6.34375 l 0.3125,-0.875 -2.59375,-9.25 0.28125,-0.84375 -0.28125,-2.625 q 0.21875,-1.71875 1.71875,-1.71875 l 1.4375,0.28125 z m -13.84375,9.8125 h 0.28125 l 0.28125,0.875 -0.28125,0.84375 0.28125,2.90625 q 0,3.78125 -1.71875,6.0625 0,3.625 -2.3125,8.09375 l 0.28125,0.84375 -0.28125,2.03125 0.28125,2.03125 -0.875,0.28125 0.28125,1.71875 -0.84375,2.3125 v 0.28125 q 0,2.53125 3.75,2.90625 h 0.5625 v 0.28125 q 0,3.46875 -2,3.46875 h -3.46875 q -0.96875,0 -2.03125,-0.875 l -4.03125,0.875 q -1.125,0 -2.03125,-3.1875 v -0.5625 q 3.46875,0 3.46875,-3.1875 2.65625,-2.65625 4.90625,-9.21875 l -0.28125,-0.875 3.15625,-10.6875 0.59375,-0.59375 -0.28125,-0.84375 q 0,-3.53125 2.3125,-5.78125 z m 30.46875,-14.40625 q -0.71875,-0.21875 -0.71875,-0.375 l -1,0.25 -0.125,-0.125 h -0.125 l -0.75,0.25 -1.375,-0.125 -3.75,0.75 -3.125,-0.375 -1.875,0.125 -0.125,-0.125 -0.5,0.125 h -1.5 l -1.625,-0.5 h -1 l -1.25,0.375 h -0.125 q -1.65625,0 -2.25,-0.375 l -0.875,0.25 -2.5,-0.25 q 0,0.1875 -1.75,0.375 l -1.125,-0.125 h -1.5 q -3.28125,0 -3.625,0.5 h -0.625 l -3.75,-0.625 -0.75,0.125 -1.375,-0.25 -2.25,0.25 h -0.5 l -1.875,0.5 q -1.375,0 -1.75,-1 0.625,-0.9375 0.625,-2 l -0.125,-0.5 q 0,-0.875 1.75,-0.875 l 2.625,0.375 q 0.46875,-0.375 1.125,-0.375 h 0.5 q 0.625,0 0.75,0.375 l 3.5,-0.375 2.625,0.75 2,-0.625 v 0.125 l 1.625,-0.375 0.75,0.125 0.5,-0.125 0.375,0.375 h 0.375 l 0.375,-0.375 1.125,0.25 1.875,-0.25 q 0.4375,0.375 1.875,0.5 l 0.625,-0.375 0.625,0.375 0.625,-0.125 0.5,0.125 0.875,-0.125 2,0.25 2.125,-0.5 1.75,0.25 0.75,-0.125 h 2 l 1.125,-0.375 0.875,0.25 0.375,-0.125 0.875,0.25 h 0.125 l 0.125,-0.125 1.75,0.375 0.5,-0.125 1.25,0.25 1.5,-0.375 h 0.375 l 0.46875,0.125 z m 0,57.437503 -0.4375,-0.125 -3.5,0.5 -0.125,-0.125 -0.625,0.125 -0.75,-0.125 -1.875,0.25 q -0.96875,0 -2.25,-0.375 h -0.125 q -0.46875,0.375 -0.875,0.375 h -0.375 q -0.75,0 -1.5,-0.75 l -1.5,0.25 -0.5,-0.125 -0.5,0.125 h -1 q -0.71875,0.5 -1.125,0.5 l -1,-0.125 h -0.125 l -0.125,0.125 -0.625,-0.375 -0.75,0.375 -0.75,-0.25 q -0.46875,0.375 -1.125,0.375 h -0.375 l -1,-0.375 q -2.5,0 -4.875,0.375 -1.15625,0 -2,-0.75 0,0.5 -1.75,0.625 l -0.75,-0.125 -0.875,0.25 q -1.65625,-0.25 -2,-0.5 h -0.125 l -0.125,0.125 -2.75,-0.25 q -1.59375,0 -2,0.5 h -0.25 l -0.5,-0.375 -0.75,0.25 -0.125,-0.125 h -0.375 q -0.78125,0.25 -3,0.375 l -0.875,-0.5 v -0.125 l 0.125,-0.125 q 0.5,-0.1875 0.5,-0.375 v -0.125 l -0.375,-0.375 0.25,-0.875003 v -0.125 q 0,-0.25 -0.375,-0.25 v -0.5 l 0.5,-0.875 q 1.4375,0 2.5,0.375 1.4375,0 1.875,-0.5 h 0.625 l 2.125,0.375 h 0.375 l 1.375,-0.375 q 2.65625,0.40625 3.125,0.75 h 0.5 q 0.625,0 0.75,-0.375 h 0.125 l 0.125,0.125 h 0.5 q 0,-0.25 2.875,-0.625 l 0.75,0.125 h 0.125 l 0.125,-0.125 q 0.5,0.1875 0.5,0.375 l 0.875,-0.125 h 0.875 l 3.25,0.625 1.25,-0.5 v 0.125 q 1.1875,0 2.25,-0.375 l 1.25,0.25 q 2.375,0 3.625,-0.5 2.5,0.875 3.375,0.875 h 0.625 q 1.5,-0.5 2.875,-0.625 l 0.375,0.375 h 0.375 v -0.25 h 0.375 q 0,0.375 0.625,0.375 h 0.25 l 0.125,-0.125 0.625,0.375 h 0.375 q 0.25,-0.25 1,-0.25 l 0.625,-0.625 2.0625,0.53125 z"
         style="font-style:normal;font-variant:normal;font-weight:normal;font-stretch:normal;font-size:64px;font-family:'Top Secret';-inkscape-font-specification:'Top Secret';fill:#ffffff"
         id="path331" />
      <path
         d="m 256.95312,48.655617 2.3125,0.5625 4,-0.28125 0.5625,1.71875 q 0,2.0625 -2.28125,2.59375 v -0.28125 q -4,2.8125 -4,5.4375 -2.3125,4.59375 -3.46875,8.3125 -0.78125,0 -1.40625,2.28125 h -0.59375 v -0.28125 l 0.28125,-2.875 q -0.84375,-0.28125 -0.84375,-1.71875 l 3.15625,-8.03125 q 0,-2.75 -3.71875,-4.28125 l -0.3125,-0.28125 v -0.28125 q 0,-1.5625 1.15625,-2.03125 h 2.28125 q 2.875,0 2.875,-0.5625 z m -8.84375,52.875003 -0.1875,0.1875 h -0.875 q -1.25,0.0312 -1.25,0.25 l -1,-0.125 -2.375,0.125 -2.5,-0.5 -1.75,0.5 -1.875,-0.25 -0.125,0.125 h -0.125 l -1,-0.375 -2.125,0.375 -0.875,-0.25 -0.125,0.125 h -0.125 l -0.875,-0.25 -2.625,0.5 -0.875,-0.375 h -1.375 q -1.09375,0.15625 -1.3125,0.375 v -3.968753 l 0.1875,-0.03125 1.75,0.5 1.125,-0.125 h 0.125 l 1.75,0.375 1.125,-0.375 h 1.25 l 1.375,-0.25 1.625,0.25 h 0.5 l 0.75,-0.125 0.625,0.125 h 0.25 l 0.125,-0.125 0.125,0.125 h 0.5 l 2.125,-0.5 q 3.75,0.15625 3.75,0.625 l 0.5,-0.25 0.125,0.125 h 0.125 q 0.21875,-0.25 2.625,-0.375 0.21875,0.03125 0.40625,0.09375 0.25,-0.21875 0.71875,-0.28125 2.40625,0.125 2.625,0.375 h 0.125 l 0.125,-0.125 0.5,0.25 q 0,-0.46875 3.75,-0.625 l 2.125,0.5 h 0.5 l 0.125,-0.125 0.125,0.125 h 0.25 l 0.625,-0.125 0.75,0.125 h 0.5 l 1.625,-0.25 1.375,0.25 h 1.25 l 1.125,0.375 1.75,-0.375 h 0.125 l 0.5,0.0625 0.0312,3.187503 h -0.15625 l -0.875,0.375 -2.625,-0.5 -0.875,0.25 h -0.125 l -0.125,-0.125 -0.875,0.25 -2.125,-0.375 -1,0.375 h -0.125 l -0.125,-0.125 -1.875,0.25 -1.75,-0.5 -2.5,0.5 -2.375,-0.125 -1,0.125 q 0,-0.21875 -1.25,-0.25 z m 0.0312,-57.187503 -0.84375,0.46875 q -2.21875,-0.125 -3,-0.375 h -0.375 l -0.125,0.125 -0.75,-0.25 -0.5,0.375 h -0.25 q -0.40625,-0.5 -2,-0.5 l -2.75,0.25 -0.125,-0.125 h -0.125 q -0.34375,0.25 -2,0.5 l -0.875,-0.25 -0.75,0.125 q -1.75,-0.125 -1.75,-0.625 -0.84375,0.75 -2,0.75 -2.375,-0.375 -4.875,-0.375 l -0.3125,0.125 v -3.46875 l 2.6875,-0.53125 h 0.875 l 0.875,0.125 q 0,-0.1875 0.5,-0.375 l 0.125,0.125 h 0.125 l 0.75,-0.125 q 2.875,0.375 2.875,0.625 h 0.5 l 0.125,-0.125 h 0.125 q 0.125,0.375 0.75,0.375 h 0.5 q 0.46875,-0.34375 3.125,-0.75 l 1.375,0.375 h 0.375 l 2.125,-0.375 h 0.625 q 0.46875,0.5 1.875,0.5 1.0625,-0.375 2.5,-0.375 l 0.0937,0.15625 q 0.0625,-0.0625 0.15625,-0.0625 h 0.125 l 0.75,0.125 1.375,-0.375 q 0,0.21875 1.875,0.25 0.625,0 0.75,-0.375 l 0.125,0.125 1,-0.125 q 0.40625,0 0.875,0.5 h 0.125 v -0.25 h 0.125 l 0.375,0.375 h 0.25 q 1.15625,-0.875 1.75,-0.875 1.28125,0.625 1.875,0.625 l 2.125,-0.25 0.875,0.25 h 1.75 l 2.375,-0.5 h 0.375 q 0.40625,0 1.34375,0.625 l 0.0312,3.6875 -1,-0.0625 -0.375,0.125 q -1.34375,-0.375 -2.25,-0.375 h -0.625 l -1,0.25 h -0.375 l -2.25,-0.375 -0.75,0.25 h -0.125 l -0.125,-0.125 -1.75,0.125 h -0.375 l -0.625,-0.125 -0.125,0.125 -1,-0.125 -0.375,0.125 -0.5,-0.125 q -0.53125,0.5 -1.75,0.75 -0.46875,-0.34375 -1.625,-0.5 v 0.125 l -1,-0.125 q -0.375,0 -0.375,0.25 l -1.125,-0.25 q -0.21875,0 -0.40625,-0.0625 z m -15.25,4.59375 1.4375,0.59375 9.71875,-0.59375 1.15625,0.28125 v 0.3125 l -0.28125,1.125 0.5625,1.71875 q -1.4375,0.375 -1.4375,0.875 0,2.46875 2.59375,9.4375 1.5625,3.75 3.4375,6.59375 0.1875,2.875 0.5625,2.875 l -0.28125,0.28125 q 0,4.3125 1.71875,8.90625 -1.125,1.6875 -1.4375,4.875 0.78125,2.0625 3.75,3.15625 -1.125,3.4375 -1.71875,3.4375 l -6.90625,-0.875 -4,1.4375 -4,-1.71875 -3.15625,0.28125 h -0.28125 l -0.59375,-0.5625 v -0.28125 l 1.4375,-2.59375 0.28125,0.28125 h 0.875 q 1.125,-0.5625 1.125,-1.71875 l -0.5625,-4 0.875,-3.4375 q -0.3125,-1.15625 -1.15625,-1.15625 v -0.5625 q 1.4375,0 1.4375,-0.875 v -1.71875 q -1,-2 -2.59375,-2 v -1.4375 q -2.28125,-2.03125 -2.28125,-5.71875 -0.375,0 -2.3125,-5.75 -0.9375,-0.84375 -4.28125,-7.75 -1.4375,-0.3125 -1.4375,-2.28125 l 0.28125,-0.28125 h 0.28125 l 3.4375,0.5625 z"
         style="font-style:normal;font-variant:normal;font-weight:normal;font-stretch:normal;font-size:64px;font-family:'Top Secret';-inkscape-font-specification:'Top Secret';fill:#ffffff"
         id="path333" />
      <path
         d="m 274.85937,48.655617 q 3.34375,1.4375 6.96875,1.75 l 2.03125,-0.59375 q 0.5625,0 2.03125,2.3125 v 2.625 l -1.15625,1.71875 v 1.46875 l 0.28125,3.46875 -0.59375,4.0625 2.03125,4.65625 q 0,1.625 -2.59375,8.40625 v 0.28125 l 0.5625,0.875 -0.28125,1.15625 0.59375,2.90625 -0.3125,0.28125 v 0.28125 l 0.3125,0.28125 v 0.875 h -0.3125 l 0.3125,2.03125 v 4.9375 l -0.3125,0.28125 v 0.28125 l -0.28125,-0.28125 h -0.28125 l -5.21875,0.875 -3.78125,-2.03125 -3.46875,1.4375 h -0.59375 q -1.59375,0 -2.875,-2 0,-1.1875 2.59375,-1.75 l 0.28125,-0.28125 v -0.3125 l -0.5625,-1.15625 1.15625,-3.1875 q 0,-2.5625 -0.875,-3.75 l 0.59375,-2.34375 v -2.875 l -0.3125,-1.1875 0.3125,-1.15625 -0.59375,-4.0625 0.875,-3.1875 -0.875,-4.625 0.875,-4.65625 q -1.59375,-3.0625 -4.0625,-4.34375 0,-3.1875 7.53125,-3.1875 z m 15.09375,0 1.15625,0.59375 0.28125,-0.3125 h 0.28125 l 3.1875,0.59375 3.1875,-0.28125 2.34375,0.5625 v 1.4375 l 0.28125,9.28125 q -1.25,1.5625 -2.90625,1.75 l -2.3125,-2.90625 v -0.875 l 0.28125,-0.28125 q -1.84375,-3.46875 -3.75,-3.46875 l -0.3125,-1.15625 -2.59375,0.28125 q -1.46875,-0.1875 -1.46875,-1.75 v -2.3125 q 0,-0.5625 2.34375,-1.15625 z m 3.46875,12.75 v 1.75 q 0.78125,0 1.4375,9.5625 l -0.28125,0.875 0.875,2.3125 -0.28125,0.28125 0.28125,1.46875 q -0.375,2.3125 -1.75,2.3125 -1.09375,-0.0625 -3.46875,-3.78125 -0.59375,0 -0.59375,-1.71875 l -2.03125,-2.03125 q 0,-4.0625 2.03125,-4.0625 0,-0.59375 0.875,-0.59375 l 1.46875,-6.09375 0.28125,-0.28125 z m 6.09375,17.96875 q 1.34375,0 1.71875,4.65625 h 0.3125 l -0.875,2.3125 0.28125,0.28125 -0.28125,1.46875 v 4.625 l -1.15625,0.28125 -5.5,-0.84375 -6.09375,0.84375 0.28125,-0.84375 -0.28125,-1.75 v -0.28125 q 0,-0.59375 2.59375,-0.59375 0.375,-0.875 4.0625,-2.90625 2.21875,-5.46875 4.34375,-7.25 z m 6.1875,-34.90625 -0.875,-0.28125 q -0.75,0.5 -2.25,0.5 l -1.125,-0.25 q -0.875,0 -1.375,0.25 l -1.375,-0.125 h -1.125 l -0.125,0.125 -1,-0.25 -0.5,0.125 -0.375,-0.125 -0.75,0.375 -2,-0.375 -2.5,0.125 q -1.625,0 -2.625,-0.375 -1.28125,0.875 -1.75,0.875 h -0.375 l -2.375,-0.5 h -1.75 l -0.875,0.25 -2.125,-0.25 q -0.59375,0 -1.875,0.625 -0.59375,0 -1.75,-0.875 h -0.25 l -0.375,0.375 h -0.125 v -0.25 h -0.125 q -0.46875,0.5 -0.875,0.5 l -1,-0.125 -0.125,0.125 q -0.125,-0.375 -0.75,-0.375 -1.875,0.03125 -1.875,0.25 l -1.375,-0.375 -0.75,0.125 h -0.125 q -0.375,0 -0.5,-1.625 h -0.125 q 0.125,-2.125 1.375,-2.125 l 1.125,-0.25 q 0,0.25 0.375,0.25 l 1,-0.125 v 0.125 q 1.15625,-0.15625 1.625,-0.5 1.21875,0.25 1.75,0.75 l 0.5,-0.125 0.375,0.125 1,-0.125 0.125,0.125 0.625,-0.125 h 0.375 l 1.75,0.125 0.125,-0.125 h 0.125 l 0.75,0.25 2.25,-0.375 h 0.375 l 1,0.25 h 0.625 q 0.90625,0 2.25,-0.375 l 0.375,0.125 1.75,-0.125 h 0.5 l 2,0.5 q 2.21875,-0.625 3,-0.625 0,0.375 0.5,0.375 l 0.75,-0.125 1,0.125 0.125,-0.125 0.125,0.125 h 0.125 q 2.28125,0 4.875,-0.5 l 1.375,0.5 1.625,-0.25 1,0.125 0.625,-0.21875 z m -0.0937,57.375003 -0.875,0.25 -0.375,-0.125 -0.875,0.25 -1.125,-0.375 h -2 l -0.75,-0.125 -1.75,0.25 -2.125,-0.5 -2,0.25 -0.875,-0.125 -0.5,0.125 -0.625,-0.125 -0.625,0.375 -0.625,-0.375 q -1.4375,0.125 -1.875,0.5 l -1.875,-0.25 -1.125,0.25 -0.375,-0.375 h -0.375 l -0.375,0.375 -0.5,-0.125 -0.75,0.125 -1.625,-0.375 v 0.125 l -2,-0.625 -2.625,0.75 -3.5,-0.375 q -0.125,0.375 -0.75,0.375 h -0.5 q -0.65625,0 -1.125,-0.375 l -2.625,0.375 q -1.75,0 -1.75,-0.875 l 0.125,-0.5 q 0,-1.062503 -0.625,-2.000003 0.375,-1 1.75,-1 l 1.875,0.5 h 0.5 l 2.25,0.25 1.375,-0.25 0.75,0.125 3.75,-0.625 h 0.625 q 0.34375,0.5 3.625,0.5 h 1.5 l 1.125,-0.125 q 1.75,0.1875 1.75,0.375 l 2.5,-0.25 0.875,0.25 q 0.59375,-0.375 2.25,-0.375 h 0.125 l 1.25,0.375 h 1 l 1.625,-0.5 h 1.5 l 0.5,0.125 0.125,-0.125 1.875,0.125 3.125,-0.375 1.75,0.34375 z"
         style="font-style:normal;font-variant:normal;font-weight:normal;font-stretch:normal;font-size:64px;font-family:'Top Secret';-inkscape-font-specification:'Top Secret';fill:#ffffff"
         id="path335" />
      <path
         d="m 319.17187,48.655617 h 1.71875 q 1.4375,0 1.71875,1.15625 l -0.28125,0.84375 0.5625,3.1875 -0.28125,1.71875 0.59375,0.84375 -0.3125,0.3125 v 1.4375 q 0,2.71875 -1.125,5.15625 v 0.28125 q 1.4375,3.53125 1.4375,5.75 l -0.59375,2.3125 v 3.15625 l -1.15625,3.4375 0.3125,2.03125 -0.3125,1.15625 q 0.8125,0 1.4375,6.03125 l 0.3125,1.4375 2,1.4375 v 1.4375 l -0.5625,0.5625 h -3.75 l -2,0.59375 -1.75,-0.59375 v 0.28125 l -1.71875,-0.5625 h -0.28125 l -4.3125,0.875 -1.4375,-0.3125 -0.875,0.59375 q -3.4375,-0.21875 -3.4375,-0.875 0,-4.03125 2.3125,-4.03125 l 2.28125,-4 q 0,-2.03125 -1.71875,-4.90625 v -0.28125 l 0.5625,-2.59375 -0.28125,-5.15625 0.28125,-2.3125 -0.28125,-0.84375 0.875,-4.3125 -0.28125,-1.75 0.28125,-1.71875 -0.28125,-0.28125 v -0.28125 l 0.28125,-1.4375 -0.28125,-1.15625 0.28125,-0.28125 -0.875,-0.875 0.59375,-0.84375 v -0.3125 q 0,-0.5 -2.875,-2 l -0.59375,-3.15625 1.71875,-0.59375 h 1.15625 l 1.15625,0.875 h 0.28125 l 0.28125,-0.28125 2.3125,0.5625 4.875,-0.5625 v 0.28125 z m 6.90625,0.5625 2.5625,0.59375 h 3.46875 q 3.6875,0 5.15625,2 1.59375,0 2.3125,2.03125 1.03125,0 2.28125,3.4375 h 0.3125 l -0.59375,7.46875 0.28125,0.28125 q -0.625,0.0625 -4,4.3125 -1.34375,0 -4.03125,2.875 v 0.59375 h 1.71875 q 5.78125,0 6.90625,5.4375 l 0.28125,0.3125 -0.28125,1.4375 0.28125,1.4375 q -0.5,0.59375 -0.875,4 0.4375,1.15625 0.875,1.15625 h 0.28125 l 3.75,-1.15625 0.84375,1.75 q -3.71875,5.4375 -6.59375,5.4375 0,0.875 -0.59375,0.875 l -1.4375,-0.28125 -1.4375,0.28125 q -3.8125,-0.09375 -8.03125,-4.59375 l -0.28125,-2.3125 0.28125,-2 -1.15625,-2.875 0.5625,-1.71875 q 0,-5.75 -2.28125,-5.75 -1.15625,0 -1.15625,-4.03125 2.59375,-0.71875 2.59375,-2.875 l 0.84375,-4.59375 -0.84375,-4.03125 0.28125,-1.4375 q 0,-2.75 -2.875,-4.875 l -0.28125,-2.875 z m 24.90625,-4.625 -0.5,0.03125 -0.125,-0.125 -0.875,0.125 -0.5,-0.125 q -0.34375,-0.46875 -1,-0.625 -1.25,0.34375 -1.25,0.5 l -1.125,-0.125 q -0.625,0.375 -1.25,0.375 h -0.5 l -0.75,-0.25 -1,0.125 -1.625,-0.25 -1.375,0.5 q -2.59375,-0.5 -4.875,-0.5 h -0.125 l -0.125,0.125 -0.125,-0.125 -1,0.125 -0.75,-0.125 q -0.5,0 -0.5,0.375 -0.78125,0 -3,-0.625 l -2,0.5 h -0.5 l -1.75,-0.125 -0.375,0.125 q -1.34375,-0.375 -2.25,-0.375 h -0.625 l -1,0.25 h -0.375 l -2.25,-0.375 -0.75,0.25 h -0.125 l -0.125,-0.125 -1.75,0.125 h -0.375 l -0.625,-0.125 -0.125,0.125 -1,-0.125 -0.375,0.125 -0.5,-0.125 q -0.53125,0.5 -1.75,0.75 -0.46875,-0.34375 -1.625,-0.5 v 0.125 l -1,-0.125 q -0.375,0 -0.375,0.25 l -1.125,-0.25 q -1.25,0 -1.375,-2.125 h 0.125 q 0.125,-1.625 0.5,-1.625 h 0.125 l 0.75,0.125 1.375,-0.375 q 0,0.21875 1.875,0.25 0.625,0 0.75,-0.375 l 0.125,0.125 1,-0.125 q 0.40625,0 0.875,0.5 h 0.125 v -0.25 h 0.125 l 0.375,0.375 h 0.25 q 1.15625,-0.875 1.75,-0.875 1.28125,0.625 1.875,0.625 l 2.125,-0.25 0.875,0.25 h 1.75 l 2.375,-0.5 h 0.375 q 0.46875,0 1.75,0.875 1,-0.375 2.625,-0.375 l 2.5,0.125 2,-0.375 0.75,0.375 0.375,-0.125 0.5,0.125 1,-0.25 0.125,0.125 h 1.125 l 1.375,-0.125 q 0.5,0.25 1.375,0.25 l 1.125,-0.25 q 1.5,0 2.25,0.5 l 1.125,-0.375 1.25,0.125 h 0.125 l 0.125,-0.125 0.75,0.25 0.875,-0.5 2,0.375 1,-0.25 0.5,0.25 0.375,-0.09375 z m 0,56.531253 -0.28125,-0.0625 q -0.71875,0.375 -1.5,0.375 -0.6875,-0.375 -1.375,-0.375 l -3.875,0.625 -1.875,-0.5 -2,0.25 -1.5,-0.25 -0.875,0.125 -0.125,-0.125 h -0.125 l -0.5,0.125 -0.375,-0.125 -0.375,0.125 -3.75,-0.375 -1.125,0.125 h -0.5 l -0.125,0.125 -0.125,-0.125 h -1.25 l -1.5,0.375 -1.75,-0.5 -1.125,0.125 h -0.125 l -1.75,-0.375 -1.125,0.375 h -1.25 l -1.375,0.25 -1.625,-0.25 h -0.5 l -0.75,0.125 -0.625,-0.125 h -0.25 l -0.125,0.125 -0.125,-0.125 h -0.5 l -2.125,0.5 q -3.75,-0.15625 -3.75,-0.625 l -0.5,0.25 -0.125,-0.125 h -0.125 q -0.21875,0.25 -2.625,0.375 -1,-0.125 -1,-1 v -0.500003 l 0.25,-0.375 v -0.375 l -0.25,-1 v -0.25 l 0.25,-0.25 h 0.875 q 1.25,-0.03125 1.25,-0.25 l 1,0.125 2.375,-0.125 2.5,0.5 1.75,-0.5 1.875,0.25 0.125,-0.125 h 0.125 l 1,0.375 2.125,-0.375 0.875,0.25 0.125,-0.125 h 0.125 l 0.875,0.25 2.625,-0.5 0.875,0.375 h 1.375 q 1.375,-0.1875 1.375,-0.5 1.125,0.125 1.125,0.375 1.25,-0.125 1.5,-0.375 2.625,0.125 2.625,0.375 l 0.375,-0.25 0.75,0.25 h 0.375 l 0.375,-0.25 h 0.625 l 1.375,-0.125 0.125,0.125 h 0.125 l 1.125,-0.125 h 1 l 2.125,0.5 q 1.75,-0.125 1.75,-0.75 l 0.75,0.25 0.375,-0.125 0.75,0.25 0.75,-0.125 q 1.28125,0.15625 1.5,0.375 h 2.625 l 0.78125,-0.15625 z"
         style="font-style:normal;font-variant:normal;font-weight:normal;font-stretch:normal;font-size:64px;font-family:'Top Secret';-inkscape-font-specification:'Top Secret';fill:#ffffff"
         id="path337" />
      <path
         d="m 363.26562,48.655617 q 2.8125,0.5625 2.8125,1.125 v 0.84375 q 0,2.125 -3.375,3.125 l -1.15625,3.40625 q 1.625,4.25 3.40625,4.25 0.21875,0.8125 5.96875,2.25 4.375,3.96875 6.78125,3.96875 0,0.5 2.84375,2.84375 v 1.96875 q 0.84375,0 0.84375,0.5625 l -0.28125,1.15625 q 1.125,1.53125 1.125,5.09375 -0.65625,0 -1.125,5.09375 -2.875,3.0625 -5.375,7.09375 -6.4375,1.96875 -8.78125,1.96875 h -0.28125 q -0.59375,0 -0.875,-1.6875 0.5,-2.84375 2.5625,-2.84375 2.8125,0 3.125,-2.5625 v -2.53125 q -1.34375,-5.375 -7.09375,-5.375 -0.28125,-0.90625 -4.8125,-2.28125 0,-0.84375 -4.53125,-2.53125 -1.53125,-3.96875 -2.25,-3.96875 v -1.4375 l -2.28125,-3.09375 1.40625,-2.84375 -0.84375,-2.84375 0.84375,-0.28125 v -1.40625 q 3.75,-5.96875 6.25,-7.09375 l 0.28125,0.3125 h 0.28125 q 0.84375,0 4.53125,-2.28125 z m 16.4375,0 h 0.28125 q 0.28125,1.96875 0.84375,1.96875 l -0.28125,1.4375 0.28125,1.6875 -0.84375,3.125 v 0.28125 l 1.125,3.125 v 0.84375 q 0,1.34375 -1.71875,2.8125 h -1.40625 v -2.8125 q -3.375,-5.4375 -4.25,-5.96875 -4.71875,-2.3125 -5.375,-3.09375 v -0.5625 q 0,-2.28125 1.125,-2.28125 5.53125,0.78125 6.53125,1.71875 h 1.125 q 0,-1.84375 2.5625,-2.28125 z m -27.5,27.75 h 0.875 q 1.125,0.3125 2.25,3.125 v 0.28125 l -0.28125,1.40625 q 1.84375,1.5625 3.125,5.96875 v 0.28125 h 1.40625 l 4.53125,3.375 v 1.4375 q 0,0.84375 -3.125,0.84375 -0.15625,-0.6875 -1.96875,-1.40625 l -0.28125,0.28125 h -0.28125 q -1.71875,-0.6875 -1.71875,-1.15625 -1.875,0 -3.375,2.28125 h -0.875 l -0.84375,-1.40625 0.28125,-1.4375 -0.5625,-0.5625 v -1.96875 l -0.5625,-1.71875 0.5625,-2.25 v -2 l -0.28125,-1.125 q 0.375,-4.25 1.125,-4.25 z m 33.59375,-32.125 -1.03125,0.09375 -0.375,-0.125 -0.375,0.125 -0.5,-0.125 h -0.125 l -0.125,0.125 -0.875,-0.125 -1.5,0.25 -2,-0.25 -1.875,0.5 -3.875,-0.625 q -0.6875,0 -1.375,0.375 -0.78125,0 -1.5,-0.375 l -2,0.375 -2.875,-0.25 v 0.125 h -0.25 l -0.375,-0.25 -1,0.25 h -0.625 l -0.75,-0.25 -2.125,0.25 -1.75,-0.375 -1,0.125 -1.375,-0.125 -1.5,0.375 -0.5,-0.125 -4,0.34375 v -3.9375 l 0.125,-0.03125 h 0.125 l 0.25,0.25 q 1.6875,0 2.375,-0.625 l 0.5,0.125 0.625,-0.125 q 0,0.25 1.625,0.375 l 0.375,-0.125 1.625,0.375 1,-0.375 h 1 l 0.5,-0.125 q 1.875,0.15625 1.875,0.5 l 2.625,-0.375 2.25,0.125 2,-0.25 1.75,0.375 h 2.625 q 0.21875,-0.21875 1.5,-0.375 l 0.75,0.125 0.75,-0.25 0.375,0.125 0.75,-0.25 q 0,0.625 1.75,0.75 l 2.125,-0.5 h 1 l 1.125,0.125 h 0.125 l 0.125,-0.125 1.375,0.125 h 0.625 l 0.0312,0.03125 z m 0,56.937503 q -1.84375,0.0625 -3.9375,0.46875 l -1.375,-0.5 -1.625,0.25 -1,-0.125 -0.75,0.25 h -0.5 q -0.59375,0 -1.25,-0.375 l -1.125,0.125 q 0,-0.15625 -1.25,-0.5 -0.65625,0.15625 -1,0.625 l -0.5,0.125 -0.875,-0.125 -0.125,0.125 -4.5,-0.375 -0.5,0.125 -1.5,-0.375 -1.375,0.125 -1,-0.125 -1.75,0.375 -2.125,-0.25 -0.75,0.25 h -0.625 l -1,-0.25 -0.375,0.25 h -0.25 v -0.125 l -2.875,0.25 -1.71875,-0.3125 v -3.593753 l 0.96875,-0.21875 2,0.25 2.25,-0.125 2.625,0.375 q 0,-0.34375 1.875,-0.5 l 0.5,0.125 h 1 l 1,0.375 1.625,-0.375 0.375,0.125 q 1.625,-0.125 1.625,-0.375 l 0.625,0.125 0.5,-0.125 q 0.6875,0.625 2.375,0.625 l 0.25,-0.25 h 0.125 l 0.5,0.125 0.5,-0.25 1,0.25 2,-0.375 0.875,0.5 0.75,-0.25 0.125,0.125 h 0.125 l 1.25,-0.125 1.125,0.375 q 0.75,-0.5 2.25,-0.5 l 1.125,0.25 q 0.875,0 1.375,-0.25 l 1.375,0.125 h 1.125 l 0.125,-0.125 0.3125,0.0625 z"
         style="font-style:normal;font-variant:normal;font-weight:normal;font-stretch:normal;font-size:64px;font-family:'Top Secret';-inkscape-font-specification:'Top Secret';fill:#ffffff"
         id="path339" />
      <path
         d="m 386.76562,40.718117 q 0.53125,-0.40625 1.6875,-0.46875 v 0.125 q 1.625,0.125 1.625,0.5 v 0.125 l -0.125,0.75 0.375,1.375 q -0.21875,0 -0.25,1.875 0,0.625 0.375,0.75 l -0.125,0.125 0.125,1 q 0,0.375 -0.5,0.875 v 0.125 h 0.25 v 0.125 l -0.375,0.375 v 0.25 q 0.875,1.125 0.875,1.75 -0.625,1.28125 -0.625,1.875 l 0.25,2.125 -0.25,0.875 v 1.75 l 0.5,2.375 v 0.375 q 0,0.46875 -0.875,1.75 0.375,1 0.375,2.625 l -0.125,2.5 0.375,2 -0.375,0.75 0.125,0.375 -0.125,0.5 0.25,1 -0.125,0.125 v 1.125 l 0.125,1.375 q -0.25,0.5 -0.25,1.375 l 0.25,1.125 q 0,1.5 -0.5,2.25 l 0.375,1.125 -0.125,1.25 v 0.125 l 0.125,0.125 -0.25,0.75 0.5,0.875 -0.375,2 0.25,1 -0.25,0.5 0.125,0.5 v 0.125 l -0.25,0.25 q 0,1.6875 0.625,2.375 l -0.125,0.5 0.125,0.625 q -0.25,0 -0.375,1.625 l 0.125,0.375 -0.375,1.625 0.375,1 v 1 l 0.125,0.5 q -0.15625,1.875 -0.5,1.875 l 0.34375,2.406253 -2.1875,0.125 v 0.3125 q -0.875,0.0937 -2.34375,0.15625 l -2.125,-0.5 h -0.5 l -0.125,0.125 -0.125,-0.125 -0.0625,-3.468753 1.0625,-0.15625 1.75,0.5 0.9375,-0.1875 -0.125,-1.0625 0.375,-1.75 -0.125,-1 0.125,-1.375 -0.375,-1.5 0.125,-0.5 -0.375,-4.5 0.125,-0.125 -0.125,-0.875 0.125,-0.5 q 0.46875,-0.34375 0.625,-1 -0.34375,-1.25 -0.5,-1.25 l 0.125,-1.125 q -0.375,-0.65625 -0.375,-1.25 v -0.5 l 0.25,-0.75 -0.125,-1 0.25,-1.625 -0.5,-1.375 q 0.5,-2.625 0.5,-4.875 v -0.125 l -0.125,-0.125 0.125,-0.125 -0.125,-1 0.125,-0.75 q 0,-0.5 -0.375,-0.5 0,-0.78125 0.625,-3 l -0.5,-2 v -0.5 l 0.125,-1.75 -0.125,-0.375 q 0.375,-1.34375 0.375,-2.25 v -0.625 l -0.25,-1 v -0.375 l 0.375,-2.25 -0.25,-0.75 v -0.125 l 0.125,-0.125 -0.125,-1.75 v -0.375 l 0.125,-0.625 -0.125,-0.125 0.125,-1 -0.125,-0.375 0.125,-0.5 q -0.5,-0.53125 -0.75,-1.75 0.3125,-0.40625 0.46875,-1.34375 -1.28125,-0.09375 -1.4375,-0.28125 h -0.125 l -0.125,0.125 -0.5,-0.25 q 0,0.28125 -1.40625,0.46875 v -3.96875 h 0.0312 l 2.375,0.125 1,-0.125 q 0,0.15625 0.65625,0.21875 z"
         style="font-style:normal;font-variant:normal;font-weight:normal;font-stretch:normal;font-size:64px;font-family:'Top Secret';-inkscape-font-specification:'Top Secret';fill:#ffffff"
         id="path341" />
    </g>
  </g>
</svg>
