<?xml version="1.0" encoding="UTF-8" standalone="no"?>
<!-- Created with Inkscape (http://www.inkscape.org/) -->

<svg
   xmlns:dc="http://purl.org/dc/elements/1.1/"
   xmlns:cc="http://creativecommons.org/ns#"
   xmlns:rdf="http://www.w3.org/1999/02/22-rdf-syntax-ns#"
   xmlns:svg="http://www.w3.org/2000/svg"
   xmlns="http://www.w3.org/2000/svg"
   xmlns:sodipodi="http://sodipodi.sourceforge.net/DTD/sodipodi-0.dtd"
   xmlns:inkscape="http://www.inkscape.org/namespaces/inkscape"
   width="500"
   height="200"
   viewBox="0 0 132.29166 52.916668"
   version="1.1"
   id="svg8"
   inkscape:version="0.92.5 (2060ec1f9f, 2020-04-08)"
   sodipodi:docname="c16.svg">
  <defs
     id="defs2" />
  <sodipodi:namedview
     id="base"
     pagecolor="#ffffff"
     bordercolor="#666666"
     borderopacity="1.0"
     inkscape:pageopacity="0.0"
     inkscape:pageshadow="2"
     inkscape:zoom="1.6748047"
     inkscape:cx="334.33831"
     inkscape:cy="69.597433"
     inkscape:document-units="mm"
     inkscape:current-layer="layer1"
     showgrid="false"
     units="px"
     inkscape:pagecheckerboard="true"
     inkscape:window-width="1366"
     inkscape:window-height="740"
     inkscape:window-x="0"
     inkscape:window-y="0"
     inkscape:window-maximized="1" />
  <metadata
     id="metadata5">
    <rdf:RDF>
      <cc:Work
         rdf:about="">
        <dc:format>image/svg+xml</dc:format>
        <dc:type
           rdf:resource="http://purl.org/dc/dcmitype/StillImage" />
        <dc:title />
      </cc:Work>
    </rdf:RDF>
  </metadata>
  <g
     inkscape:label="Layer 1"
     inkscape:groupmode="layer"
     id="layer1"
     transform="translate(0,-244.08332)">
    <path
       inkscape:connector-curvature="0"
       id="path276"
       d="m 32.973285,288.1648 c -0.239923,-0.28908 -0.32194,-2.09878 -0.264669,-5.83978 l 0.08299,-5.42087 1.971874,-0.0882 c 1.08453,-0.0485 3.085557,-0.16091 4.446726,-0.24975 2.669182,-0.17421 3.986823,0.21832 4.730592,1.40929 0.632507,1.01279 0.833734,0.67619 0.833734,-1.39463 0,-2.69185 0.291733,-3.1654 1.950089,-3.1654 1.484403,0 1.690292,0.26042 1.690292,2.13792 v 1.1782 l 1.137619,-0.10709 c 0.625692,-0.0589 1.444777,0.01 1.820192,0.15228 0.610747,0.23212 0.682572,0.46585 0.682572,2.22132 0,1.07903 0.133141,2.31207 0.295857,2.74006 0.262053,0.68924 0.465781,0.77816 1.783043,0.77816 0.82648,0 1.62133,-0.16847 1.789121,-0.37921 0.166063,-0.20856 0.367991,-1.35032 0.448729,-2.53725 0.08074,-1.18692 0.242671,-2.31315 0.359848,-2.50275 0.117181,-0.1896 0.832092,-0.34474 1.588694,-0.34474 1.120509,0 1.405066,0.11251 1.534303,0.60674 0.08727,0.3337 0.223595,0.60673 0.302955,0.60673 0.07936,0 0.491394,-0.27303 0.915627,-0.60673 0.678948,-0.53406 1.230685,-0.60674 4.606667,-0.60674 2.882712,0 3.993412,0.11076 4.471757,0.44578 0.832561,0.58314 1.074244,1.57561 0.518921,2.13093 -0.387724,0.38773 -0.363149,0.54976 0.198587,1.30956 0.941639,1.27364 0.745,3.2658 -0.40692,4.12259 -0.761634,0.56651 -1.271233,0.63706 -4.600902,0.63706 -3.452528,0 -3.819429,-0.0555 -4.706873,-0.71158 l -0.96247,-0.7116 -0.438825,0.62652 c -0.37904,0.54115 -0.757657,0.62641 -2.779168,0.62584 -1.28719,-3e-4 -3.131663,0.005 -4.098824,0.0127 -1.983253,0.0143 -2.79245,-0.29876 -3.776431,-1.46277 l -0.681065,-0.80567 -0.0015,0.77357 c -0.0021,1.06324 -0.533914,1.50166 -1.821687,1.50166 -1.32772,0 -1.820191,-0.44049 -1.820191,-1.62805 v -0.89996 l -0.985937,1.11752 c -1.156518,1.31085 -2.848862,1.74557 -5.904052,1.51654 l -1.907603,-0.14306 v 1.32295 c 0,0.7276 -0.163817,1.48675 -0.364038,1.68698 -0.495975,0.49596 -2.212061,0.4603 -2.639615,-0.0549 z m 34.250268,-5.34504 c 0,-0.16685 -0.716699,-0.30128 -1.592667,-0.29872 -1.140182,0.003 -1.463385,0.0882 -1.137618,0.29872 0.600359,0.38798 2.730285,0.38798 2.730285,0 z m -26.756809,-0.6674 c 0.421469,-0.42147 0.473878,-1.72318 0.09355,-2.32345 -0.351304,-0.55445 -2.814818,-0.8056 -3.628838,-0.36994 -0.490496,0.26251 -0.651151,0.63277 -0.651151,1.50071 0,0.63372 0.09101,1.24324 0.202244,1.35447 0.350952,0.35095 3.603535,0.21888 3.984195,-0.16179 z m 20.689506,-0.21448 c 0,-0.28801 -0.672795,-0.93831 -0.970769,-0.93831 -0.281343,0 -0.329958,1.02508 -0.06134,1.29368 0.219458,0.21946 1.032119,-0.0603 1.032119,-0.35537 z m 5.388269,-2.66357 c -0.290043,-0.0759 -0.836102,-0.0786 -1.213461,-0.006 -0.377359,0.0726 -0.140047,0.13462 0.527352,0.13812 0.667403,0.003 0.976154,-0.056 0.686109,-0.13191 z m 5.223728,8.84737 c -0.470448,-0.56686 -0.367234,-0.81185 3.825845,-9.08123 1.688512,-3.32999 3.292543,-6.19489 3.564513,-6.36644 0.376534,-0.23752 0.649896,-0.15658 1.14598,0.33956 l 0.651492,0.65149 -2.926197,5.86665 c -1.609411,3.22666 -3.336847,6.58335 -3.838747,7.45933 -0.949051,1.65636 -1.69693,2.00537 -2.422886,1.13064 z m 18.889779,-0.20687 c -0.178767,-0.21609 -0.37124,-0.80242 -0.427714,-1.30299 l -0.102685,-0.91009 -5.306369,-0.15165 -5.306368,-0.15165 -0.194153,-0.91009 c -0.258348,-1.21102 -0.310879,-3.92871 -0.0872,-4.51159 0.09831,-0.25617 1.547026,-1.46183 3.219384,-2.67926 1.672355,-1.21741 3.430172,-2.52882 3.906255,-2.91424 1.324189,-1.07199 2.57831,-1.31506 5.655276,-1.09605 3.299246,0.23482 3.261183,0.18645 2.950331,3.75001 -0.115447,1.32342 -0.118597,2.89289 -0.007,3.48769 0.176858,0.94274 0.31508,1.08147 1.077562,1.08147 1.306857,0 1.92187,0.76931 1.674291,2.09439 -0.268203,1.43545 -0.648173,1.84935 -1.697732,1.84935 -0.701207,0 -0.900764,0.15967 -1.042702,0.83426 -0.324787,1.54362 -0.573182,1.73982 -2.321685,1.83388 -1.089302,0.0586 -1.776751,-0.0461 -1.989469,-0.30337 z m -1.212972,-6.27997 c 0.821604,-0.0282 0.834254,-0.0584 0.834254,-2.00042 0,-1.37585 -0.114619,-1.97153 -0.379206,-1.97073 -0.844727,0.003 -5.800246,3.51573 -5.543971,3.93038 0.08831,0.14289 1.081754,0.21697 2.207628,0.16457 1.125873,-0.0524 2.422455,-0.10805 2.881295,-0.1238 z M 41.513558,270.84195 c -2.476909,-0.69623 -3.983921,-1.59464 -5.706907,-3.40219 -3.823873,-4.01156 -4.209948,-10.4162 -0.899011,-14.91378 2.551667,-3.46619 5.326204,-4.89658 9.497963,-4.89658 1.444689,0 2.563462,0.14862 2.853297,0.3792 0.325458,0.25886 0.535901,1.13374 0.663066,2.75659 0.102461,1.30756 0.275373,2.52154 0.384252,2.69771 0.131566,0.21286 1.592553,0.26509 4.355782,0.15562 2.286803,-0.0905 4.337765,-0.0533 4.557698,0.0826 0.516756,0.31938 0.08162,0.99255 -2.332101,3.60778 l -1.793939,1.9437 2.056789,2.15172 c 1.741953,1.82235 2.353607,2.73275 1.986214,2.95629 -0.04171,0.0253 -2.055299,0.12778 -4.474637,0.22752 l -4.398796,0.18137 -0.151679,2.64495 c -0.104753,1.82657 -0.297653,2.7905 -0.623458,3.11538 -0.688559,0.68662 -4.022507,0.86078 -5.97453,0.3121 z m 4.15174,-5.91519 c 1.373585,-0.39394 1.526029,-0.7025 1.531507,-3.09996 0.0035,-1.52439 0.123228,-2.09901 0.478863,-2.29803 0.430046,-0.24066 0.430046,-0.30204 0,-0.65896 -0.346231,-0.28733 -0.474218,-0.95869 -0.474218,-2.48748 0,-1.96854 -0.04659,-2.11163 -0.77816,-2.38978 -0.42799,-0.16271 -1.319718,-0.29585 -1.981618,-0.29585 -3.33158,0 -6.121939,3.21891 -5.603087,6.46363 0.371636,2.32409 1.763112,3.90546 4.094443,4.65324 1.425451,0.4572 1.51921,0.46108 2.73227,0.11314 z m 32.782768,5.56139 c -0.417128,-0.0629 -1.610535,-0.33223 -2.652022,-0.59846 -2.207127,-0.56422 -3.470125,-1.75381 -4.062957,-3.82687 -0.491052,-1.71715 -0.46891,-12.32705 0.02961,-14.18632 0.424365,-1.5827 1.8369,-3.19536 3.174801,-3.62457 4.054473,-1.30073 16.838092,-1.17216 20.27731,0.20394 1.421119,0.56862 2.328029,2.21453 2.338605,4.24422 0.0086,1.65201 -0.468653,1.9067 -3.572866,1.9067 -2.036032,0 -2.539206,-0.10486 -3.272615,-0.68257 -0.805084,-0.63407 -1.212129,-0.68841 -5.72901,-0.76473 -5.489501,-0.0928 -6.232816,0.0948 -6.551693,1.65404 -0.311465,1.52291 0.01787,1.74307 1.723445,1.15217 1.171369,-0.40582 2.518329,-0.50853 6.41439,-0.48915 5.668271,0.0282 7.719943,0.45233 9.161471,1.89386 1.170177,1.17017 1.526407,2.53646 1.528482,5.86236 0.0027,4.53837 -1.434739,6.52422 -5.160506,7.1287 -1.81729,0.29483 -11.910285,0.38852 -13.646443,0.12666 z m 11.127492,-5.89109 c 0.545765,-0.2075 0.70375,-0.49926 0.70375,-1.2997 0,-1.69384 -0.460436,-1.85471 -5.58235,-1.95054 -5.305445,-0.0993 -6.039336,0.10503 -6.195148,1.72385 -0.128288,1.33289 0.243099,1.65076 2.153101,1.84283 2.178454,0.21905 8.061051,0.0111 8.920647,-0.31644 z m -27.080111,5.13602 c -0.117388,-0.18995 -0.212175,-5.10235 -0.21063,-10.91647 0.0021,-8.0422 0.09408,-10.68108 0.384361,-11.03084 0.49299,-0.59402 5.686319,-0.65867 6.467834,-0.0805 0.463227,0.34268 0.514698,1.38727 0.534399,10.8453 0.01193,5.75636 -0.07068,10.705 -0.183707,10.997 -0.178182,0.46029 -0.642548,0.5309 -3.492164,0.5309 -2.13024,0 -3.361757,-0.12158 -3.500093,-0.34536 z"
       style="fill:#ffffff;stroke-width:0.3033652" />
    <path
       inkscape:connector-curvature="0"
       id="path274"
       d="m 33.431878,287.72789 c -0.277841,-0.44957 -0.328906,-9.8908 -0.05588,-10.33255 0.164141,-0.26558 0.561675,-0.33361 1.195887,-0.20462 1.105839,0.22489 1.129911,0.2248 4.210289,-0.0167 2.718343,-0.2132 3.472164,-0.0777 4.405729,0.79208 0.583742,0.54382 0.676536,0.94262 0.676536,2.90748 0,1.97147 -0.09365,2.37086 -0.697454,2.97467 -0.84386,0.84386 -3.105102,1.2099 -5.67681,0.91895 -1.967484,-0.2226 -1.972197,-0.21797 -2.188459,2.14809 -0.06702,0.73336 -0.239615,0.9282 -0.888791,1.00332 -0.443083,0.0512 -0.884552,-0.0345 -0.981042,-0.19063 z m 7.398904,-5.21149 c 1.377233,-1.37724 0.465512,-3.48791 -1.643222,-3.80413 -2.326145,-0.34884 -3.516935,0.40891 -3.509342,2.23313 0.0076,1.82412 0.407107,2.1155 2.953166,2.15378 1.209903,0.0181 1.738482,-0.12189 2.199398,-0.58278 z m 31.246615,5.05118 c 0,-0.48438 6.566011,-13.52935 7.079594,-14.06534 0.217173,-0.22662 0.51599,-0.26736 0.777118,-0.10597 0.338556,0.20931 -0.135416,1.3868 -2.346262,5.82882 -3.484001,7.00001 -4.497156,8.75183 -5.06154,8.75183 -0.246899,0 -0.44891,-0.18422 -0.44891,-0.40938 z m 19.010887,-0.0963 c -0.11123,-0.11123 -0.202245,-0.58423 -0.202245,-1.05109 0,-0.52878 -0.221272,-0.96729 -0.586787,-1.16292 -0.33413,-0.17881 -2.670096,-0.31403 -5.425193,-0.31403 -5.538878,0 -5.20041,0.19838 -5.208391,-3.05273 -0.0046,-1.86412 0.275118,-2.2509 3.029511,-4.18938 0.750828,-0.52841 1.979458,-1.43312 2.730286,-2.01048 2.479476,-1.90662 2.778235,-2.00161 5.9975,-1.90699 l 2.951774,0.0867 0.08564,3.77277 c 0.0471,2.07503 0.227905,3.94421 0.401797,4.15373 0.173889,0.20952 0.748554,0.42298 1.277026,0.47434 1.036986,0.10073 1.312272,0.64124 0.986912,1.93756 -0.141224,0.5627 -0.387072,0.73442 -1.051497,0.73442 -1.017522,0 -1.400549,0.39558 -1.688945,1.74434 -0.20196,0.94451 -0.271413,0.98595 -1.65298,0.98595 -0.793187,0 -1.533171,-0.091 -1.644402,-0.20225 z m -0.528272,-5.68607 c 0.217036,-0.26151 0.319892,-1.23412 0.264668,-2.50276 -0.08036,-1.84626 -0.160951,-2.08511 -0.730934,-2.16646 -0.911977,-0.13016 -6.307266,3.59903 -6.43373,4.44697 -0.09408,0.63073 0.0015,0.65 3.22403,0.65 2.48766,0 3.410048,-0.10741 3.675966,-0.42775 z m -38.907399,2.87905 c -0.638602,-0.13192 -1.430643,-0.50941 -1.760088,-0.83887 -0.710809,-0.7108 -1.198649,-3.61773 -0.906986,-5.40449 0.18699,-1.14554 0.25723,-1.21347 1.25471,-1.21347 h 1.056632 l 0.326515,2.67982 c 0.205893,1.68986 0.486061,2.7808 0.758413,2.95316 0.237544,0.15038 1.056546,0.27543 1.820003,0.278 2.012967,0.006 2.707325,-0.81863 2.707325,-3.2181 0,-2.22336 0.472846,-3.02008 1.621309,-2.73184 0.61146,0.1534 0.814659,0.40186 0.843151,1.03067 0.155037,3.42162 0.163945,4.88464 0.03418,5.61209 -0.1456,0.81622 -0.20209,0.83856 -2.0068,0.79331 -1.021343,-0.0256 -2.471304,0.0313 -3.222133,0.1265 -0.750829,0.0952 -1.887636,0.0651 -2.526238,-0.0668 z m 10.186209,-0.15722 c -1.214739,-0.54774 -1.338466,-1.53307 -0.227524,-1.81189 0.978786,-0.24566 0.955445,-0.48326 -0.151679,-1.54395 -0.588875,-0.56418 -0.910096,-1.17311 -0.910096,-1.72526 0,-1.86899 1.934023,-2.56445 6.410782,-2.3053 1.975997,0.11441 2.54606,0.26321 3.087686,0.8061 0.571824,0.57318 0.600941,0.70799 0.209218,0.96878 -0.250276,0.16662 -1.001105,0.22509 -1.668509,0.13001 -3.324342,-0.47396 -4.129929,-0.49853 -4.562986,-0.13908 -0.910525,0.75566 0.0725,1.20308 2.643321,1.20308 1.562289,0 2.718423,0.16215 3.299874,0.46283 0.804555,0.41606 0.89503,0.61162 0.89503,1.93473 0,0.99887 -0.161184,1.6057 -0.501551,1.88824 -0.748547,0.62139 -7.216029,0.7214 -8.523563,0.13176 z m 5.70804,-1.09127 c 0.709636,-0.37977 0.76541,-1.06933 0.106933,-1.32201 -0.799845,-0.30692 -4.021289,-0.20602 -4.230513,0.13255 -0.638672,1.03339 2.645253,1.98068 4.123584,1.18949 z m -22.024031,0.85214 c -0.08669,-0.22593 -0.119886,-2.58952 -0.07376,-5.25244 l 0.08388,-4.84166 1.106663,-0.0923 1.106665,-0.0923 0.182518,3.42932 c 0.100393,1.88613 0.08018,4.24843 -0.04489,5.24952 -0.222163,1.77826 -0.250172,1.82238 -1.215426,1.91541 -0.623585,0.0601 -1.046163,-0.0563 -1.145646,-0.31553 z M 42.12606,270.38058 c -8.065844,-1.68754 -11.555328,-11.13916 -6.598457,-17.8726 1.587756,-2.1568 2.701309,-2.97317 5.054668,-3.70561 2.087406,-0.64967 6.149207,-0.77789 6.503096,-0.20529 0.122703,0.19852 0.285222,1.43427 0.361162,2.74608 l 0.138074,2.38511 -0.874146,-0.24332 c -0.48078,-0.13382 -1.635183,-0.24332 -2.565339,-0.24332 -1.333847,0 -1.955284,0.17485 -2.941041,0.82746 -4.574075,3.02827 -3.53811,9.70856 1.749068,11.2787 1.334531,0.3963 1.703095,0.39834 2.962087,0.0164 0.790848,-0.24 1.472033,-0.43781 1.513745,-0.43962 0.190898,-0.008 0.04074,4.73946 -0.159865,5.05485 -0.30555,0.48037 -3.553676,0.73378 -5.143049,0.40125 z m 35.411911,-0.58611 c -2.410456,-0.3582 -4.205188,-1.36321 -4.752654,-2.66135 -0.833204,-1.97569 -1.104637,-5.77653 -0.788612,-11.04279 0.317684,-5.29392 0.5308,-5.91597 2.402437,-7.01224 1.278517,-0.74887 7.464676,-1.24893 13.149879,-1.06299 7.738705,0.25311 9.233185,0.91681 9.245805,4.10607 l 0.0068,1.72719 -2.498546,0.088 c -2.20765,0.0778 -2.607868,0.006 -3.437544,-0.60673 -0.860346,-0.63657 -1.313419,-0.70336 -5.409041,-0.79732 -6.600879,-0.15149 -7.615193,0.2702 -7.615193,3.16547 0,1.34195 0.543812,1.55503 2.200013,0.86205 1.073229,-0.44905 2.160139,-0.53582 6.501019,-0.519 8.855798,0.0344 10.230534,1.02175 10.251699,7.3635 0.0059,1.77031 -0.144869,2.57818 -0.679386,3.64037 -0.885991,1.76061 -1.794408,2.39312 -3.942286,2.74492 -1.939399,0.31766 -12.505833,0.32113 -14.634424,0.005 z M 90.3351,264.62484 c 0.696942,-0.86135 0.586772,-2.64909 -0.19864,-3.22339 -0.689341,-0.50407 -9.481585,-0.83713 -10.708862,-0.40568 -2.133172,0.74993 -2.177188,3.49452 -0.06944,4.33 0.250275,0.0991 2.685675,0.15117 5.412,0.11536 4.873319,-0.0638 4.967212,-0.0777 5.564937,-0.81635 z m -26.193979,4.90597 -1.110562,-0.0924 -0.220826,-2.94112 c -0.286422,-3.81474 0.01305,-17.92532 0.388334,-18.30065 0.15884,-0.15881 1.504957,-0.24904 2.991391,-0.20044 l 2.702604,0.0883 0.265412,7.1004 c 0.151647,4.05671 0.151647,8.67321 0,10.76948 l -0.265412,3.66906 h -1.820191 c -1.001105,0 -2.319943,-0.0417 -2.93075,-0.0926 z m -16.87912,-4.97266 c -0.116719,-0.11632 -0.143978,-1.27586 -0.06055,-2.57689 0.149532,-2.33194 0.164241,-2.36769 1.036088,-2.51893 0.486421,-0.0843 1.883091,-0.0851 3.103704,-0.002 l 2.219305,0.15165 1.811663,1.97186 c 0.996419,1.08455 1.818107,2.13634 1.825979,2.33735 0.0078,0.20099 -0.429358,0.4366 -0.971623,0.52356 -1.585617,0.25428 -8.732269,0.34441 -8.964565,0.11314 z m 0.748425,-6.20986 c -0.11123,-0.11123 -0.202113,-1.10097 -0.201951,-2.1994 l 2.93e-4,-1.99717 4.398503,-0.10136 c 3.235693,-0.0746 4.398501,-0.006 4.398501,0.25674 0,0.19696 -0.767499,1.23232 -1.705555,2.30077 l -1.705556,1.94265 h -2.490996 c -1.370048,0 -2.582007,-0.091 -2.693239,-0.20223 z"
       style="fill:#d82b29;stroke-width:0.3033652" />
    <path
       inkscape:connector-curvature="0"
       id="path272"
       d="m 33.431878,287.72789 c -0.277841,-0.44957 -0.328906,-9.8908 -0.05588,-10.33255 0.164141,-0.26558 0.561675,-0.33361 1.195887,-0.20462 1.105839,0.22489 1.129911,0.2248 4.210289,-0.0167 2.718343,-0.2132 3.472164,-0.0777 4.405729,0.79208 0.583742,0.54382 0.676536,0.94262 0.676536,2.90748 0,1.97147 -0.09365,2.37086 -0.697454,2.97467 -0.84386,0.84386 -3.105102,1.2099 -5.67681,0.91895 -1.967484,-0.2226 -1.972197,-0.21797 -2.188459,2.14809 -0.06702,0.73336 -0.239615,0.9282 -0.888791,1.00332 -0.443083,0.0512 -0.884552,-0.0345 -0.981042,-0.19063 z m 7.398904,-5.21149 c 1.377233,-1.37724 0.465512,-3.48791 -1.643222,-3.80413 -2.326145,-0.34884 -3.516935,0.40891 -3.509342,2.23313 0.0076,1.82412 0.407107,2.1155 2.953166,2.15378 1.209903,0.0181 1.738482,-0.12189 2.199398,-0.58278 z m 31.246615,5.05118 c 0,-0.48438 6.566011,-13.52935 7.079594,-14.06534 0.217173,-0.22662 0.51599,-0.26736 0.777118,-0.10597 0.338556,0.20931 -0.135416,1.3868 -2.346262,5.82882 -3.484001,7.00001 -4.497156,8.75183 -5.06154,8.75183 -0.246899,0 -0.44891,-0.18422 -0.44891,-0.40938 z m 19.010887,-0.0963 c -0.11123,-0.11123 -0.202245,-0.58423 -0.202245,-1.05109 0,-0.52878 -0.221272,-0.96729 -0.586787,-1.16292 -0.33413,-0.17881 -2.670096,-0.31403 -5.425193,-0.31403 -5.538878,0 -5.20041,0.19838 -5.208391,-3.05273 -0.0046,-1.86412 0.275118,-2.2509 3.029511,-4.18938 0.750828,-0.52841 1.979458,-1.43312 2.730286,-2.01048 2.479476,-1.90662 2.778235,-2.00161 5.9975,-1.90699 l 2.951774,0.0867 0.08564,3.77277 c 0.0471,2.07503 0.227905,3.94421 0.401797,4.15373 0.173889,0.20952 0.748554,0.42298 1.277026,0.47434 1.036986,0.10073 1.312272,0.64124 0.986912,1.93756 -0.141224,0.5627 -0.387072,0.73442 -1.051497,0.73442 -1.017522,0 -1.400549,0.39558 -1.688945,1.74434 -0.20196,0.94451 -0.271413,0.98595 -1.65298,0.98595 -0.793187,0 -1.533171,-0.091 -1.644402,-0.20225 z m -0.528272,-5.68607 c 0.217036,-0.26151 0.319892,-1.23412 0.264668,-2.50276 -0.08036,-1.84626 -0.160951,-2.08511 -0.730934,-2.16646 -0.911977,-0.13016 -6.307266,3.59903 -6.43373,4.44697 -0.09408,0.63073 0.0015,0.65 3.22403,0.65 2.48766,0 3.410048,-0.10741 3.675966,-0.42775 z m -38.907399,2.87905 c -0.638602,-0.13192 -1.430643,-0.50941 -1.760088,-0.83887 -0.710809,-0.7108 -1.198649,-3.61773 -0.906986,-5.40449 0.18699,-1.14554 0.25723,-1.21347 1.25471,-1.21347 h 1.056632 l 0.326515,2.67982 c 0.205893,1.68986 0.486061,2.7808 0.758413,2.95316 0.237544,0.15038 1.056546,0.27543 1.820003,0.278 2.012967,0.006 2.707325,-0.81863 2.707325,-3.2181 0,-2.22336 0.472846,-3.02008 1.621309,-2.73184 0.61146,0.1534 0.814659,0.40186 0.843151,1.03067 0.155037,3.42162 0.163945,4.88464 0.03418,5.61209 -0.1456,0.81622 -0.20209,0.83856 -2.0068,0.79331 -1.021343,-0.0256 -2.471304,0.0313 -3.222133,0.1265 -0.750829,0.0952 -1.887636,0.0651 -2.526238,-0.0668 z m 10.186209,-0.15722 c -1.214739,-0.54774 -1.338466,-1.53307 -0.227524,-1.81189 0.978786,-0.24566 0.955445,-0.48326 -0.151679,-1.54395 -0.588875,-0.56418 -0.910096,-1.17311 -0.910096,-1.72526 0,-1.86899 1.934023,-2.56445 6.410782,-2.3053 1.975997,0.11441 2.54606,0.26321 3.087686,0.8061 0.571824,0.57318 0.600941,0.70799 0.209218,0.96878 -0.250276,0.16662 -1.001105,0.22509 -1.668509,0.13001 -3.324342,-0.47396 -4.129929,-0.49853 -4.562986,-0.13908 -0.910525,0.75566 0.0725,1.20308 2.643321,1.20308 1.562289,0 2.718423,0.16215 3.299874,0.46283 0.804555,0.41606 0.89503,0.61162 0.89503,1.93473 0,0.99887 -0.161184,1.6057 -0.501551,1.88824 -0.748547,0.62139 -7.216029,0.7214 -8.523563,0.13176 z m 5.70804,-1.09127 c 0.709636,-0.37977 0.76541,-1.06933 0.106933,-1.32201 -0.799845,-0.30692 -4.021289,-0.20602 -4.230513,0.13255 -0.638672,1.03339 2.645253,1.98068 4.123584,1.18949 z m -22.024031,0.85214 c -0.08669,-0.22593 -0.119886,-2.58952 -0.07376,-5.25244 l 0.08388,-4.84166 1.106663,-0.0923 1.106665,-0.0923 0.182518,3.42932 c 0.100393,1.88613 0.08018,4.24843 -0.04489,5.24952 -0.222163,1.77826 -0.250172,1.82238 -1.215426,1.91541 -0.623585,0.0601 -1.046163,-0.0563 -1.145646,-0.31553 z M 42.12606,270.38058 c -8.065844,-1.68754 -11.555328,-11.13916 -6.598457,-17.8726 1.587756,-2.1568 2.701309,-2.97317 5.054668,-3.70561 2.087406,-0.64967 6.149207,-0.77789 6.503096,-0.20529 0.122703,0.19852 0.285222,1.43427 0.361162,2.74608 l 0.138074,2.38511 -0.874146,-0.24332 c -0.48078,-0.13382 -1.635183,-0.24332 -2.565339,-0.24332 -1.333847,0 -1.955284,0.17485 -2.941041,0.82746 -4.574075,3.02827 -3.53811,9.70856 1.749068,11.2787 1.334531,0.3963 1.703095,0.39834 2.962087,0.0164 0.790848,-0.24 1.472033,-0.43781 1.513745,-0.43962 0.190898,-0.008 0.04074,4.73946 -0.159865,5.05485 -0.30555,0.48037 -3.553676,0.73378 -5.143049,0.40125 z m 35.411911,-0.58611 c -2.410456,-0.3582 -4.205188,-1.36321 -4.752654,-2.66135 -0.833204,-1.97569 -1.104637,-5.77653 -0.788612,-11.04279 0.317684,-5.29392 0.5308,-5.91597 2.402437,-7.01224 1.278517,-0.74887 7.464676,-1.24893 13.149879,-1.06299 7.738705,0.25311 9.233185,0.91681 9.245805,4.10607 l 0.0068,1.72719 -2.498546,0.088 c -2.20765,0.0778 -2.607868,0.006 -3.437544,-0.60673 -0.860346,-0.63657 -1.313419,-0.70336 -5.409041,-0.79732 -6.600879,-0.15149 -7.615193,0.2702 -7.615193,3.16547 0,1.34195 0.543812,1.55503 2.200013,0.86205 1.073229,-0.44905 2.160139,-0.53582 6.501019,-0.519 8.855798,0.0344 10.230534,1.02175 10.251699,7.3635 0.0059,1.77031 -0.144869,2.57818 -0.679386,3.64037 -0.885991,1.76061 -1.794408,2.39312 -3.942286,2.74492 -1.939399,0.31766 -12.505833,0.32113 -14.634424,0.005 z M 90.3351,264.62484 c 0.696942,-0.86135 0.586772,-2.64909 -0.19864,-3.22339 -0.689341,-0.50407 -9.481585,-0.83713 -10.708862,-0.40568 -2.133172,0.74993 -2.177188,3.49452 -0.06944,4.33 0.250275,0.0991 2.685675,0.15117 5.412,0.11536 4.873319,-0.0638 4.967212,-0.0777 5.564937,-0.81635 z m -26.193979,4.90597 -1.110562,-0.0924 -0.220826,-2.94112 c -0.286422,-3.81474 0.01305,-17.92532 0.388334,-18.30065 0.15884,-0.15881 1.504957,-0.24904 2.991391,-0.20044 l 2.702604,0.0883 0.265412,7.1004 c 0.151647,4.05671 0.151647,8.67321 0,10.76948 l -0.265412,3.66906 h -1.820191 c -1.001105,0 -2.319943,-0.0417 -2.93075,-0.0926 z M 48.010426,258.34829 c -0.11123,-0.11123 -0.202113,-1.10097 -0.201951,-2.1994 l 2.93e-4,-1.99717 4.398503,-0.10136 c 3.235693,-0.0746 4.398501,-0.006 4.398501,0.25674 0,0.19696 -0.767499,1.23232 -1.705555,2.30077 l -1.705556,1.94265 h -2.490996 c -1.370048,0 -2.582007,-0.091 -2.693239,-0.20223 z"
       style="fill:#000080;stroke-width:0.3033652" />
  </g>
</svg>
