<?xml version="1.0" encoding="UTF-8" standalone="no"?>
<!-- Created with Inkscape (http://www.inkscape.org/) -->

<svg
   xmlns:dc="http://purl.org/dc/elements/1.1/"
   xmlns:cc="http://creativecommons.org/ns#"
   xmlns:rdf="http://www.w3.org/1999/02/22-rdf-syntax-ns#"
   xmlns:svg="http://www.w3.org/2000/svg"
   xmlns="http://www.w3.org/2000/svg"
   xmlns:sodipodi="http://sodipodi.sourceforge.net/DTD/sodipodi-0.dtd"
   xmlns:inkscape="http://www.inkscape.org/namespaces/inkscape"
   width="292.38345"
   height="185.40166"
   viewBox="0 0 77.359785 49.05419"
   version="1.1"
   id="svg8"
   inkscape:version="0.92.5 (2060ec1f9f, 2020-04-08)"
   sodipodi:docname="c16.svg">
  <defs
     id="defs2" />
  <sodipodi:namedview
     id="base"
     pagecolor="#ffffff"
     bordercolor="#666666"
     borderopacity="1.0"
     inkscape:pageopacity="0.0"
     inkscape:pageshadow="2"
     inkscape:zoom="1.2952907"
     inkscape:cx="73.523828"
     inkscape:cy="117.09296"
     inkscape:document-units="mm"
     inkscape:current-layer="layer1"
     showgrid="false"
     units="px"
     inkscape:pagecheckerboard="true"
     inkscape:window-width="1366"
     inkscape:window-height="740"
     inkscape:window-x="0"
     inkscape:window-y="0"
     inkscape:window-maximized="1" />
  <metadata
     id="metadata5">
    <rdf:RDF>
      <cc:Work
         rdf:about="">
        <dc:format>image/svg+xml</dc:format>
        <dc:type
           rdf:resource="http://purl.org/dc/dcmitype/StillImage" />
        <dc:title />
      </cc:Work>
    </rdf:RDF>
  </metadata>
  <g
     inkscape:label="Layer 1"
     inkscape:groupmode="layer"
     id="layer1"
     transform="translate(-32.659916,-247.30426)">
    <path
       inkscape:connector-curvature="0"
       id="path276"
       d="m 33.032278,295.85692 c -0.28509,-0.3435 -0.382546,-2.49388 -0.314494,-6.93914 l 0.09861,-6.44136 2.343085,-0.10481 c 1.288696,-0.0576 3.666423,-0.1912 5.283836,-0.29676 3.171664,-0.20701 4.737354,0.25942 5.62114,1.67459 0.751579,1.20345 0.990687,0.80349 0.990687,-1.65717 0,-3.1986 0.346653,-3.7613 2.317199,-3.7613 1.763847,0 2.008495,0.30945 2.008495,2.54039 v 1.4 l 1.351779,-0.12725 c 0.74348,-0.07 1.716761,0.0119 2.162849,0.18095 0.725722,0.27581 0.811068,0.55355 0.811068,2.63949 0,1.28216 0.158205,2.74732 0.351553,3.25588 0.311385,0.81899 0.553466,0.92465 2.118706,0.92465 0.982067,0 1.92655,-0.20018 2.125929,-0.45059 0.197324,-0.24783 0.437266,-1.60453 0.533203,-3.0149 0.09594,-1.41036 0.288355,-2.74861 0.427591,-2.9739 0.13924,-0.22529 0.988735,-0.40964 1.88777,-0.40964 1.331448,0 1.669574,0.13369 1.82314,0.72096 0.103699,0.39652 0.265688,0.72095 0.359987,0.72095 0.0943,0 0.583901,-0.32443 1.087997,-0.72095 0.806762,-0.6346 1.462365,-0.72096 5.473886,-0.72096 3.425391,0 4.745184,0.13161 5.313579,0.5297 0.989293,0.69292 1.276473,1.87223 0.616609,2.53209 -0.460714,0.46072 -0.431513,0.65325 0.235972,1.55608 1.118905,1.51341 0.885248,3.8806 -0.483524,4.89868 -0.905014,0.67316 -1.510547,0.75699 -5.467036,0.75699 -4.102477,0 -4.538448,-0.0659 -5.592956,-0.84553 l -1.143658,-0.84556 -0.521435,0.74446 c -0.450395,0.64302 -0.900288,0.74433 -3.302355,0.74366 -1.529507,-3.6e-4 -3.721208,0.006 -4.87044,0.0151 -2.356606,0.017 -3.318137,-0.35501 -4.487355,-1.73814 l -0.809278,-0.95734 -0.0018,0.91919 c -0.0025,1.2634 -0.634425,1.78435 -2.164625,1.78435 -1.577668,0 -2.162848,-0.52341 -2.162848,-1.93453 v -1.06938 l -1.171542,1.3279 c -1.374236,1.55762 -3.385169,2.07417 -7.015508,1.80203 l -2.266694,-0.17 v 1.572 c 0,0.86457 -0.194656,1.76663 -0.432569,2.00456 -0.589344,0.58932 -2.628488,0.54695 -3.136531,-0.0652 z m 40.697984,-6.35126 c 0,-0.19826 -0.85162,-0.358 -1.892491,-0.35496 -1.354825,0.004 -1.738872,0.10481 -1.351778,0.35496 0.713378,0.46102 3.244269,0.46102 3.244269,0 z m -31.793859,-0.79304 c 0.500812,-0.50081 0.563087,-2.04758 0.111161,-2.76085 -0.417438,-0.65882 -3.344716,-0.95725 -4.311978,-0.43958 -0.582833,0.31193 -0.773732,0.75189 -0.773732,1.78322 0,0.75302 0.108143,1.47729 0.240317,1.60946 0.41702,0.41701 4.281912,0.26008 4.734232,-0.19225 z m 24.584368,-0.25486 c 0,-0.34223 -0.799451,-1.11495 -1.153519,-1.11495 -0.334307,0 -0.392074,1.21806 -0.07289,1.53722 0.260772,0.26078 1.226419,-0.0716 1.226419,-0.42227 z m 6.402627,-3.16499 c -0.344645,-0.0902 -0.993501,-0.0934 -1.441899,-0.007 -0.448398,0.0863 -0.166411,0.15996 0.626628,0.16412 0.793043,0.004 1.159918,-0.0665 0.815271,-0.15674 z m 6.20711,10.51291 c -0.559011,-0.67357 -0.436366,-0.96468 4.546072,-10.7908 2.00638,-3.95687 3.912375,-7.36109 4.235544,-7.56494 0.447417,-0.28223 0.772241,-0.18606 1.361714,0.40348 l 0.774137,0.77414 -3.477062,6.97106 c -1.912388,3.83409 -3.965019,7.82269 -4.561403,8.86357 -1.127713,1.96818 -2.016382,2.38289 -2.879002,1.34349 z m 22.445842,-0.24581 c -0.21242,-0.25677 -0.44113,-0.95348 -0.50824,-1.54828 l -0.12201,-1.08142 -6.305312,-0.1802 -6.305308,-0.1802 -0.230702,-1.08142 c -0.306983,-1.43899 -0.369403,-4.6683 -0.103616,-5.36091 0.116817,-0.30439 1.838258,-1.73702 3.825443,-3.18364 1.987181,-1.44659 4.075912,-3.00487 4.641619,-3.46285 1.573472,-1.2738 3.063685,-1.56262 6.719896,-1.30238 3.92034,0.27902 3.87511,0.22155 3.50574,4.45596 -0.13718,1.57255 -0.14092,3.43748 -0.008,4.14425 0.21016,1.12022 0.3744,1.28506 1.28042,1.28506 1.55288,0 2.28367,0.91414 1.98948,2.48867 -0.31869,1.70568 -0.77019,2.1975 -2.01733,2.1975 -0.83321,0 -1.07034,0.18972 -1.239,0.99131 -0.38593,1.83421 -0.68108,2.06734 -2.75875,2.17911 -1.29436,0.0696 -2.11123,-0.0548 -2.36399,-0.36048 z m -1.44132,-7.4622 c 0.97627,-0.0335 0.9913,-0.0694 0.9913,-2.377 0,-1.63486 -0.13619,-2.34268 -0.45059,-2.34173 -1.003749,0.004 -6.89216,4.17758 -6.58764,4.67029 0.104934,0.16979 1.285397,0.25781 2.62322,0.19555 1.337822,-0.0623 2.87849,-0.12839 3.42371,-0.14711 z M 43.180283,275.27299 c -2.943195,-0.8273 -4.733906,-1.89484 -6.78125,-4.04266 -4.543728,-4.76675 -5.002483,-12.37708 -1.068252,-17.72135 3.032026,-4.11871 6.328878,-5.81837 11.285983,-5.81837 1.716656,0 3.046042,0.1766 3.390439,0.45058 0.386726,0.30759 0.636786,1.34717 0.78789,3.27553 0.12175,1.55371 0.327213,2.99623 0.456589,3.20556 0.156333,0.25293 1.892356,0.315 5.175771,0.18492 2.7173,-0.10754 5.154362,-0.0633 5.415698,0.0982 0.614037,0.3795 0.09699,1.1794 -2.771126,4.28695 l -2.131653,2.30961 2.443985,2.55679 c 2.069881,2.16541 2.796681,3.2472 2.360125,3.51282 -0.04956,0.0301 -2.442215,0.15183 -5.317001,0.27035 l -5.226882,0.21551 -0.180233,3.14287 c -0.124473,2.17043 -0.353687,3.31582 -0.740826,3.70186 -0.818183,0.81588 -4.779756,1.02283 -7.099254,0.37086 z m 4.933318,-7.02874 c 1.632166,-0.4681 1.813308,-0.83475 1.819817,-3.68354 0.0042,-1.81136 0.146426,-2.49415 0.569011,-2.73064 0.511003,-0.28597 0.511003,-0.3589 0,-0.78301 -0.41141,-0.34142 -0.563491,-1.13917 -0.563491,-2.95576 0,-2.33912 -0.05536,-2.50915 -0.924651,-2.83966 -0.508561,-0.19334 -1.568159,-0.35155 -2.354664,-0.35155 -3.95876,0 -7.274412,3.82488 -6.657885,7.68043 0.441598,2.76161 2.095023,4.64068 4.865234,5.52923 1.693797,0.54327 1.805206,0.54788 3.246629,0.13444 z m 38.954223,6.60834 c -0.495654,-0.0747 -1.913723,-0.39478 -3.151274,-0.71113 -2.622625,-0.67043 -4.123386,-2.08397 -4.82782,-4.54729 -0.583495,-2.0404 -0.557184,-14.64765 0.03518,-16.85693 0.504253,-1.88065 2.182702,-3.7969 3.772467,-4.30691 4.817739,-1.5456 20.007913,-1.39282 24.094583,0.24233 1.68864,0.67567 2.76628,2.63142 2.77885,5.04321 0.0102,1.96301 -0.55688,2.26564 -4.24547,2.26564 -2.41932,0 -3.01722,-0.1246 -3.88869,-0.81106 -0.95665,-0.75344 -1.44032,-0.81801 -6.807521,-0.9087 -6.522916,-0.11027 -7.406162,0.11265 -7.785069,1.96542 -0.370099,1.8096 0.02123,2.07121 2.047889,1.36907 1.391882,-0.48222 2.992412,-0.60426 7.621918,-0.58123 6.735343,0.0335 9.173253,0.53748 10.886153,2.25038 1.39046,1.39046 1.81375,3.01396 1.81622,6.96597 0.003,5.39273 -1.70483,7.75242 -6.13199,8.4707 -2.1594,0.35033 -14.152433,0.46166 -16.215428,0.1505 z m 13.222276,-7.00011 c 0.64851,-0.24656 0.83623,-0.59325 0.83623,-1.54437 0,-2.01271 -0.54711,-2.20387 -6.633242,-2.31774 -6.304211,-0.11799 -7.176259,0.12481 -7.361403,2.04837 -0.152439,1.58381 0.288863,1.96152 2.558429,2.18975 2.588554,0.26029 9.578568,0.0132 10.599986,-0.37601 z m -32.178024,6.10289 c -0.139487,-0.22571 -0.252118,-6.06288 -0.250282,-12.97153 0.0025,-9.55617 0.111791,-12.69182 0.456718,-13.10743 0.585797,-0.70584 6.756786,-0.78266 7.685424,-0.0957 0.55043,0.40719 0.611591,1.64843 0.635001,12.88696 0.01418,6.84001 -0.08399,12.72025 -0.218291,13.06722 -0.211725,0.54694 -0.763509,0.63084 -4.149574,0.63084 -2.531264,0 -3.994618,-0.14447 -4.158996,-0.41037 z"
       style="fill:#ffffff;stroke-width:0.36047462" />
    <path
       inkscape:connector-curvature="0"
       id="path274"
       d="m 33.577202,295.33776 c -0.330145,-0.5342 -0.390823,-11.75277 -0.0664,-12.27768 0.195041,-0.31558 0.667412,-0.39642 1.421016,-0.24314 1.314017,0.26722 1.34262,0.26711 5.002889,-0.0198 3.230079,-0.25333 4.125809,-0.0923 5.23512,0.94119 0.693634,0.6462 0.803896,1.12007 0.803896,3.45482 0,2.34261 -0.11128,2.81719 -0.828751,3.53467 -1.00272,1.00271 -3.689647,1.43766 -6.745487,1.09194 -2.337869,-0.2645 -2.343469,-0.259 -2.600443,2.55247 -0.07964,0.87142 -0.284723,1.10294 -1.056109,1.1922 -0.526494,0.0608 -1.051071,-0.041 -1.165726,-0.22651 z m 8.79177,-6.19257 c 1.636502,-1.63651 0.553146,-4.14452 -1.952563,-4.52027 -2.764049,-0.41451 -4.179009,0.48589 -4.169986,2.65352 0.009,2.16752 0.483746,2.51375 3.509108,2.55924 1.437671,0.0215 2.065756,-0.14484 2.613441,-0.69249 z m 37.128885,6.00208 c 0,-0.57557 7.802082,-16.07629 8.412349,-16.71318 0.258056,-0.26928 0.613127,-0.31769 0.923413,-0.12592 0.40229,0.24871 -0.160909,1.64787 -2.787953,6.92611 -4.139875,8.31778 -5.343759,10.39939 -6.01439,10.39939 -0.293379,0 -0.533419,-0.2189 -0.533419,-0.48645 z m 22.589743,-0.11443 c -0.13217,-0.13217 -0.24032,-0.69421 -0.24032,-1.24896 0,-0.62832 -0.26292,-1.14938 -0.69725,-1.38184 -0.39703,-0.21247 -3.172748,-0.37315 -6.446501,-0.37315 -6.581588,0 -6.179403,0.23573 -6.188886,-3.62742 -0.0055,-2.21504 0.32691,-2.67463 3.599825,-4.97804 0.892174,-0.62788 2.352097,-1.70291 3.244271,-2.38896 2.946245,-2.26554 3.301246,-2.37842 7.126551,-2.26598 l 3.50745,0.10302 0.10176,4.483 c 0.056,2.46566 0.27081,4.68672 0.47744,4.93568 0.20662,0.24897 0.88947,0.50261 1.51743,0.56364 1.2322,0.11969 1.55931,0.76196 1.1727,2.30231 -0.16781,0.66863 -0.45994,0.87268 -1.24944,0.87268 -1.20908,0 -1.66421,0.47005 -2.0069,2.07272 -0.23998,1.12231 -0.32251,1.17155 -1.96416,1.17155 -0.9425,0 -1.82179,-0.10813 -1.95396,-0.24032 z m -0.62772,-6.75649 c 0.25789,-0.31074 0.38011,-1.46645 0.31449,-2.97391 -0.0955,-2.19382 -0.19125,-2.47764 -0.86853,-2.5743 -1.083661,-0.15467 -7.49463,4.27656 -7.644901,5.28412 -0.111791,0.74947 0.0018,0.77237 3.830963,0.77237 2.955968,0 4.051998,-0.12763 4.367978,-0.50828 z m -46.231834,3.42104 c -0.758821,-0.15675 -1.699966,-0.60531 -2.09143,-0.99679 -0.844621,-0.84461 -1.424299,-4.29878 -1.077729,-6.4219 0.222191,-1.36119 0.305654,-1.44191 1.490913,-1.44191 h 1.255546 l 0.387982,3.1843 c 0.244653,2.00799 0.577564,3.3043 0.901187,3.50911 0.282262,0.17869 1.255444,0.32728 2.162624,0.33033 2.391914,0.007 3.216987,-0.97274 3.216987,-3.82392 0,-2.64191 0.561861,-3.58862 1.926525,-3.24611 0.72657,0.18227 0.968021,0.47751 1.001877,1.22469 0.184223,4.06575 0.194808,5.80419 0.04062,6.66859 -0.17301,0.96987 -0.240134,0.99642 -2.384586,0.94265 -1.213614,-0.0304 -2.936535,0.0372 -3.82871,0.15031 -0.892175,0.11312 -2.242989,0.0774 -3.00181,-0.0794 z m 12.103793,-0.18682 c -1.443417,-0.65085 -1.590436,-1.82167 -0.270356,-2.15298 1.163046,-0.29191 1.135311,-0.57423 -0.180233,-1.8346 -0.699732,-0.67039 -1.081424,-1.39395 -1.081424,-2.05005 0,-2.22083 2.298108,-3.04721 7.617631,-2.73928 2.347984,0.13595 3.025363,0.31276 3.668952,0.95785 0.679472,0.68109 0.71407,0.84127 0.248604,1.15116 -0.297391,0.19799 -1.189566,0.26746 -1.982611,0.15448 -3.950159,-0.56318 -4.9074,-0.59238 -5.421982,-0.16526 -1.081934,0.89792 0.08615,1.42956 3.140934,1.42956 1.856395,0 3.230175,0.19268 3.921086,0.54996 0.956015,0.49439 1.063522,0.72676 1.063522,2.29895 0,1.18691 -0.191528,1.90798 -0.59597,2.24371 -0.889463,0.73837 -8.574468,0.85721 -10.128149,0.15656 z m 6.782596,-1.2967 c 0.843227,-0.45126 0.909501,-1.27064 0.127063,-1.57088 -0.950418,-0.3647 -4.778308,-0.24481 -5.026919,0.1575 -0.758904,1.22793 3.143229,2.35355 4.899861,1.41342 z m -26.170121,1.01256 c -0.10301,-0.26846 -0.142455,-3.07701 -0.08765,-6.24123 l 0.09967,-5.75312 1.314995,-0.10967 1.314998,-0.10968 0.216878,4.0749 c 0.119292,2.2412 0.09527,5.04821 -0.05334,6.23776 -0.263986,2.11302 -0.297267,2.16545 -1.444233,2.27599 -0.740977,0.0714 -1.243107,-0.0669 -1.361318,-0.37493 z M 43.90809,274.72477 c -9.584263,-2.00523 -13.730653,-13.23614 -7.840636,-21.23718 1.886656,-2.56282 3.209838,-3.53287 6.006224,-4.4032 2.480367,-0.77197 7.306814,-0.92433 7.727324,-0.24393 0.145802,0.23589 0.338916,1.70427 0.429152,3.26303 l 0.164066,2.83412 -1.038706,-0.28913 c -0.571288,-0.15901 -1.943011,-0.28912 -3.048272,-0.28912 -1.584948,0 -2.323372,0.20776 -3.494701,0.98323 -5.435158,3.59835 -4.20417,11.53622 2.078336,13.40195 1.58576,0.4709 2.023707,0.47333 3.519708,0.0195 0.939728,-0.28519 1.749148,-0.52023 1.798712,-0.52238 0.226836,-0.01 0.04841,5.63167 -0.18996,6.00644 -0.36307,0.5708 -4.222666,0.87191 -6.111243,0.47678 z m 42.07831,-0.69645 c -2.864231,-0.42563 -4.996827,-1.61984 -5.647355,-3.16236 -0.990057,-2.34762 -1.312588,-6.86398 -0.937071,-13.12163 0.377489,-6.29051 0.630725,-7.02967 2.854703,-8.33231 1.519202,-0.88985 8.869924,-1.48405 15.625384,-1.2631 9.195539,0.30076 10.971359,1.0894 10.986359,4.87905 l 0.008,2.05234 -2.96891,0.10456 c -2.62324,0.0925 -3.09881,0.007 -4.08467,-0.72095 -1.02231,-0.7564 -1.56067,-0.83577 -6.427309,-0.94742 -7.843515,-0.18 -9.048777,0.32107 -9.048777,3.76138 0,1.59458 0.646187,1.84777 2.614173,1.02434 1.275267,-0.53359 2.566791,-0.63669 7.724855,-0.61671 10.522928,0.0409 12.156458,1.2141 12.181608,8.74971 0.007,2.10357 -0.17214,3.06353 -0.80728,4.32568 -1.05278,2.09205 -2.13221,2.84363 -4.68443,3.26166 -2.3045,0.37746 -14.860095,0.38158 -17.3894,0.006 z m 15.20623,-6.14283 c 0.82814,-1.0235 0.69723,-3.14779 -0.23604,-3.8302 -0.81911,-0.59897 -11.266519,-0.99472 -12.724835,-0.48205 -2.534748,0.8911 -2.58705,4.15237 -0.08251,5.14513 0.29739,0.11776 3.191262,0.17963 6.430826,0.13708 5.790729,-0.0758 5.902299,-0.0923 6.612549,-0.97003 z m -31.125077,5.82953 -1.319629,-0.10979 -0.262397,-3.4948 c -0.340342,-4.53287 0.01551,-21.29981 0.461439,-21.7458 0.188742,-0.1887 1.78827,-0.29592 3.55453,-0.23817 l 3.211377,0.10492 0.315377,8.43707 c 0.180195,4.8204 0.180195,10.30597 0,12.79687 l -0.315377,4.35977 h -2.162847 c -1.189567,0 -2.75668,-0.0496 -3.482473,-0.11003 z m -20.056665,-5.90877 c -0.138692,-0.13822 -0.171083,-1.51605 -0.07195,-3.062 0.177682,-2.77094 0.19516,-2.81342 1.231135,-2.99313 0.577991,-0.10017 2.237588,-0.10112 3.687985,-0.002 l 2.637096,0.18019 2.152714,2.34307 c 1.183998,1.28872 2.160371,2.53852 2.169725,2.77737 0.0093,0.23882 -0.510186,0.51879 -1.154534,0.62212 -1.884114,0.30215 -10.376145,0.40924 -10.652171,0.13444 z m 0.889318,-7.37889 c -0.132169,-0.13217 -0.240161,-1.30823 -0.239969,-2.61344 l 3.48e-4,-2.37315 5.226535,-0.12044 c 3.844822,-0.0886 5.226532,-0.007 5.226532,0.30507 0,0.23404 -0.911983,1.46431 -2.026631,2.7339 l -2.026632,2.30836 h -2.959934 c -1.627963,0 -3.068077,-0.10813 -3.200249,-0.2403 z"
       style="fill:#d82b29;stroke-width:0.36047462" />
    <path
       inkscape:connector-curvature="0"
       id="path272"
       d="m 33.577202,295.33776 c -0.330145,-0.5342 -0.390823,-11.75277 -0.0664,-12.27768 0.195041,-0.31558 0.667412,-0.39642 1.421016,-0.24314 1.314017,0.26722 1.34262,0.26711 5.002889,-0.0198 3.230079,-0.25333 4.125809,-0.0923 5.23512,0.94119 0.693634,0.6462 0.803896,1.12007 0.803896,3.45482 0,2.34261 -0.11128,2.81719 -0.828751,3.53467 -1.00272,1.00271 -3.689647,1.43766 -6.745487,1.09194 -2.337869,-0.2645 -2.343469,-0.259 -2.600443,2.55247 -0.07964,0.87142 -0.284723,1.10294 -1.056109,1.1922 -0.526494,0.0608 -1.051071,-0.041 -1.165726,-0.22651 z m 8.79177,-6.19257 c 1.636502,-1.63651 0.553146,-4.14452 -1.952563,-4.52027 -2.764049,-0.41451 -4.179009,0.48589 -4.169986,2.65352 0.009,2.16752 0.483746,2.51375 3.509108,2.55924 1.437671,0.0215 2.065756,-0.14484 2.613441,-0.69249 z m 37.128885,6.00208 c 0,-0.57557 7.802082,-16.07629 8.412349,-16.71318 0.258056,-0.26928 0.613127,-0.31769 0.923413,-0.12592 0.40229,0.24871 -0.160909,1.64787 -2.787953,6.92611 -4.139875,8.31778 -5.343759,10.39939 -6.01439,10.39939 -0.293379,0 -0.533419,-0.2189 -0.533419,-0.48645 z m 22.589743,-0.11443 c -0.13217,-0.13217 -0.24032,-0.69421 -0.24032,-1.24896 0,-0.62832 -0.26292,-1.14938 -0.69725,-1.38184 -0.39703,-0.21247 -3.172748,-0.37315 -6.446501,-0.37315 -6.581588,0 -6.179403,0.23573 -6.188886,-3.62742 -0.0055,-2.21504 0.32691,-2.67463 3.599825,-4.97804 0.892174,-0.62788 2.352097,-1.70291 3.244271,-2.38896 2.946245,-2.26554 3.301246,-2.37842 7.126551,-2.26598 l 3.50745,0.10302 0.10176,4.483 c 0.056,2.46566 0.27081,4.68672 0.47744,4.93568 0.20662,0.24897 0.88947,0.50261 1.51743,0.56364 1.2322,0.11969 1.55931,0.76196 1.1727,2.30231 -0.16781,0.66863 -0.45994,0.87268 -1.24944,0.87268 -1.20908,0 -1.66421,0.47005 -2.0069,2.07272 -0.23998,1.12231 -0.32251,1.17155 -1.96416,1.17155 -0.9425,0 -1.82179,-0.10813 -1.95396,-0.24032 z m -0.62772,-6.75649 c 0.25789,-0.31074 0.38011,-1.46645 0.31449,-2.97391 -0.0955,-2.19382 -0.19125,-2.47764 -0.86853,-2.5743 -1.083661,-0.15467 -7.49463,4.27656 -7.644901,5.28412 -0.111791,0.74947 0.0018,0.77237 3.830963,0.77237 2.955968,0 4.051998,-0.12763 4.367978,-0.50828 z m -46.231834,3.42104 c -0.758821,-0.15675 -1.699966,-0.60531 -2.09143,-0.99679 -0.844621,-0.84461 -1.424299,-4.29878 -1.077729,-6.4219 0.222191,-1.36119 0.305654,-1.44191 1.490913,-1.44191 h 1.255546 l 0.387982,3.1843 c 0.244653,2.00799 0.577564,3.3043 0.901187,3.50911 0.282262,0.17869 1.255444,0.32728 2.162624,0.33033 2.391914,0.007 3.216987,-0.97274 3.216987,-3.82392 0,-2.64191 0.561861,-3.58862 1.926525,-3.24611 0.72657,0.18227 0.968021,0.47751 1.001877,1.22469 0.184223,4.06575 0.194808,5.80419 0.04062,6.66859 -0.17301,0.96987 -0.240134,0.99642 -2.384586,0.94265 -1.213614,-0.0304 -2.936535,0.0372 -3.82871,0.15031 -0.892175,0.11312 -2.242989,0.0774 -3.00181,-0.0794 z m 12.103793,-0.18682 c -1.443417,-0.65085 -1.590436,-1.82167 -0.270356,-2.15298 1.163046,-0.29191 1.135311,-0.57423 -0.180233,-1.8346 -0.699732,-0.67039 -1.081424,-1.39395 -1.081424,-2.05005 0,-2.22083 2.298108,-3.04721 7.617631,-2.73928 2.347984,0.13595 3.025363,0.31276 3.668952,0.95785 0.679472,0.68109 0.71407,0.84127 0.248604,1.15116 -0.297391,0.19799 -1.189566,0.26746 -1.982611,0.15448 -3.950159,-0.56318 -4.9074,-0.59238 -5.421982,-0.16526 -1.081934,0.89792 0.08615,1.42956 3.140934,1.42956 1.856395,0 3.230175,0.19268 3.921086,0.54996 0.956015,0.49439 1.063522,0.72676 1.063522,2.29895 0,1.18691 -0.191528,1.90798 -0.59597,2.24371 -0.889463,0.73837 -8.574468,0.85721 -10.128149,0.15656 z m 6.782596,-1.2967 c 0.843227,-0.45126 0.909501,-1.27064 0.127063,-1.57088 -0.950418,-0.3647 -4.778308,-0.24481 -5.026919,0.1575 -0.758904,1.22793 3.143229,2.35355 4.899861,1.41342 z m -26.170121,1.01256 c -0.10301,-0.26846 -0.142455,-3.07701 -0.08765,-6.24123 l 0.09967,-5.75312 1.314995,-0.10967 1.314998,-0.10968 0.216878,4.0749 c 0.119292,2.2412 0.09527,5.04821 -0.05334,6.23776 -0.263986,2.11302 -0.297267,2.16545 -1.444233,2.27599 -0.740977,0.0714 -1.243107,-0.0669 -1.361318,-0.37493 z M 43.90809,274.72477 c -9.584263,-2.00523 -13.730653,-13.23614 -7.840636,-21.23718 1.886656,-2.56282 3.209838,-3.53287 6.006224,-4.4032 2.480367,-0.77197 7.306814,-0.92433 7.727324,-0.24393 0.145802,0.23589 0.338916,1.70427 0.429152,3.26303 l 0.164066,2.83412 -1.038706,-0.28913 c -0.571288,-0.15901 -1.943011,-0.28912 -3.048272,-0.28912 -1.584948,0 -2.323372,0.20776 -3.494701,0.98323 -5.435158,3.59835 -4.20417,11.53622 2.078336,13.40195 1.58576,0.4709 2.023707,0.47333 3.519708,0.0195 0.939728,-0.28519 1.749148,-0.52023 1.798712,-0.52238 0.226836,-0.01 0.04841,5.63167 -0.18996,6.00644 -0.36307,0.5708 -4.222666,0.87191 -6.111243,0.47678 z m 42.07831,-0.69645 c -2.864231,-0.42563 -4.996827,-1.61984 -5.647355,-3.16236 -0.990057,-2.34762 -1.312588,-6.86398 -0.937071,-13.12163 0.377489,-6.29051 0.630725,-7.02967 2.854703,-8.33231 1.519202,-0.88985 8.869924,-1.48405 15.625384,-1.2631 9.195539,0.30076 10.971359,1.0894 10.986359,4.87905 l 0.008,2.05234 -2.96891,0.10456 c -2.62324,0.0925 -3.09881,0.007 -4.08467,-0.72095 -1.02231,-0.7564 -1.56067,-0.83577 -6.427309,-0.94742 -7.843515,-0.18 -9.048777,0.32107 -9.048777,3.76138 0,1.59458 0.646187,1.84777 2.614173,1.02434 1.275267,-0.53359 2.566791,-0.63669 7.724855,-0.61671 10.522928,0.0409 12.156458,1.2141 12.181608,8.74971 0.007,2.10357 -0.17214,3.06353 -0.80728,4.32568 -1.05278,2.09205 -2.13221,2.84363 -4.68443,3.26166 -2.3045,0.37746 -14.860095,0.38158 -17.3894,0.006 z m 15.20623,-6.14283 c 0.82814,-1.0235 0.69723,-3.14779 -0.23604,-3.8302 -0.81911,-0.59897 -11.266519,-0.99472 -12.724835,-0.48205 -2.534748,0.8911 -2.58705,4.15237 -0.08251,5.14513 0.29739,0.11776 3.191262,0.17963 6.430826,0.13708 5.790729,-0.0758 5.902299,-0.0923 6.612549,-0.97003 z m -31.125077,5.82953 -1.319629,-0.10979 -0.262397,-3.4948 c -0.340342,-4.53287 0.01551,-21.29981 0.461439,-21.7458 0.188742,-0.1887 1.78827,-0.29592 3.55453,-0.23817 l 3.211377,0.10492 0.315377,8.43707 c 0.180195,4.8204 0.180195,10.30597 0,12.79687 l -0.315377,4.35977 h -2.162847 c -1.189567,0 -2.75668,-0.0496 -3.482473,-0.11003 z M 50.900206,260.42736 c -0.132169,-0.13217 -0.240161,-1.30823 -0.239969,-2.61344 l 3.48e-4,-2.37315 5.226535,-0.12044 c 3.844822,-0.0886 5.226532,-0.007 5.226532,0.30507 0,0.23404 -0.911983,1.46431 -2.026631,2.7339 l -2.026632,2.30836 h -2.959934 c -1.627963,0 -3.068077,-0.10813 -3.200249,-0.2403 z"
       style="fill:#000080;stroke-width:0.36047462" />
  </g>
</svg>
