<?xml version="1.0" encoding="UTF-8" standalone="no"?>
<svg
   xmlns:dc="http://purl.org/dc/elements/1.1/"
   xmlns:cc="http://creativecommons.org/ns#"
   xmlns:rdf="http://www.w3.org/1999/02/22-rdf-syntax-ns#"
   xmlns:svg="http://www.w3.org/2000/svg"
   xmlns="http://www.w3.org/2000/svg"
   xmlns:sodipodi="http://sodipodi.sourceforge.net/DTD/sodipodi-0.dtd"
   xmlns:inkscape="http://www.inkscape.org/namespaces/inkscape"
   width="492.86884"
   height="124.99422"
   viewBox="0 0 492.86884 124.99422"
   version="1.1"
   id="svg29"
   sodipodi:docname="capcom.svg"
   inkscape:version="0.92.5 (2060ec1f9f, 2020-04-08)">
  <metadata
     id="metadata35">
    <rdf:RDF>
      <cc:Work
         rdf:about="">
        <dc:format>image/svg+xml</dc:format>
        <dc:type
           rdf:resource="http://purl.org/dc/dcmitype/StillImage" />
        <dc:title>mainlogo</dc:title>
      </cc:Work>
    </rdf:RDF>
  </metadata>
  <defs
     id="defs33" />
  <sodipodi:namedview
     pagecolor="#ffffff"
     bordercolor="#666666"
     borderopacity="1"
     objecttolerance="10"
     gridtolerance="10"
     guidetolerance="10"
     inkscape:pageopacity="0"
     inkscape:pageshadow="2"
     inkscape:window-width="1366"
     inkscape:window-height="740"
     id="namedview31"
     showgrid="false"
     inkscape:pagecheckerboard="true"
     inkscape:zoom="1.0504949"
     inkscape:cx="317.73103"
     inkscape:cy="60.873699"
     inkscape:window-x="0"
     inkscape:window-y="0"
     inkscape:window-maximized="1"
     inkscape:current-layer="svg29" />
  <title
     id="title14">mainlogo</title>
  <g
     id="Page-1"
     style="fill:none;fill-rule:evenodd;stroke:none;stroke-width:1"
     transform="matrix(1.1473975,0,0,1.1473975,0,-0.07209928)">
    <g
       id="mainlogo"
       style="fill-rule:nonzero">
      <path
         d="m 8.6749205,108.97645 c 1.2713913,0 2.5078975,-0.2747 3.7095165,-0.82409 1.20162,-0.54941 2.19005,-1.28717 2.965288,-2.2133 v 0 l -2.20943,-2.2133 c -0.573676,0.67498 -1.232629,1.19298 -1.976858,1.55402 -0.74423,0.36103 -1.5427254,0.54155 -2.3954879,0.54155 -0.7597339,0 -1.4613249,-0.13735 -2.1047729,-0.41205 -0.6434481,-0.2747 -1.2016199,-0.64751 -1.6745155,-1.11842 C 4.5157651,103.81995 4.1436506,103.25877 3.872317,102.60734 3.6009835,101.95591 3.4653168,101.25346 3.4653168,100.5 c 0,-0.76916 0.1317905,-1.479455 0.3953717,-2.130886 0.2635811,-0.651432 0.6279433,-1.216529 1.0930864,-1.695291 0.4651432,-0.478763 1.0194389,-0.855494 1.6628869,-1.130194 0.6434481,-0.2747 1.3295343,-0.41205 2.0582587,-0.41205 0.8682672,0 1.6900205,0.19229 2.4652585,0.57687 0.775239,0.38458 1.449697,0.937904 2.023373,1.659972 v 0 l 2.279202,-2.283934 C 14.68302,94.142659 13.690715,93.393121 12.465837,92.835873 11.24096,92.278624 9.9773214,92 8.6749205,92 7.4655482,92 6.3298236,92.21976 5.2677466,92.65928 4.2056697,93.0988 3.2870119,93.695291 2.5117732,94.448753 1.7365346,95.202216 1.124096,96.100877 0.67445762,97.144737 0.22481921,98.188597 0,99.307017 0,100.5 c 0,1.19298 0.22094301,2.30748 0.66282904,3.34349 0.44188606,1.03601 1.05044836,1.93075 1.82568706,2.68421 0.7752386,0.75346 1.6938964,1.34996 2.7559733,1.78948 1.062077,0.43951 2.205554,0.65927 3.4304311,0.65927 z M 52.747237,109 c 1.209373,0 2.341221,-0.21976 3.395546,-0.65928 1.054324,-0.43952 1.96523,-1.03993 2.732716,-1.80125 0.767486,-0.76131 1.376049,-1.66389 1.825687,-2.70775 0.449638,-1.04386 0.674458,-2.15444 0.674458,-3.33172 0,-1.177285 -0.22482,-2.287858 -0.674458,-3.331717 -0.449638,-1.04386 -1.058201,-1.946445 -1.825687,-2.707757 C 58.108013,93.699215 57.197107,93.0988 56.142783,92.65928 55.088458,92.21976 53.95661,92 52.747237,92 c -1.193867,0 -2.317963,0.21976 -3.372288,0.65928 -1.054324,0.43952 -1.96523,1.039935 -2.732716,1.801246 -0.767486,0.761312 -1.376048,1.663897 -1.825687,2.707757 -0.449638,1.043859 -0.674458,2.154432 -0.674458,3.331717 0,1.17728 0.22482,2.28786 0.674458,3.33172 0.449639,1.04386 1.058201,1.94644 1.825687,2.70775 0.767486,0.76132 1.678392,1.36173 2.732716,1.80125 C 50.429274,108.78024 51.55337,109 52.747237,109 Z m 0,-3.13158 c -0.728724,0 -1.407058,-0.13735 -2.035001,-0.41205 -0.627943,-0.2747 -1.17061,-0.65143 -1.628001,-1.13019 -0.457391,-0.47877 -0.817877,-1.04779 -1.081458,-1.70707 -0.263581,-0.65928 -0.395372,-1.36565 -0.395372,-2.11911 0,-0.76916 0.131791,-1.479455 0.395372,-2.130886 0.263581,-0.651432 0.624067,-1.216529 1.081458,-1.695291 0.457391,-0.478763 1.000058,-0.855494 1.628001,-1.130194 0.627943,-0.2747 1.306277,-0.41205 2.035001,-0.41205 0.728725,0 1.410935,0.13735 2.04663,0.41205 0.635696,0.2747 1.182239,0.651431 1.63963,1.130194 0.457391,0.478762 0.817877,1.043859 1.081458,1.695291 0.263581,0.651431 0.395372,1.361726 0.395372,2.130886 0,0.75346 -0.131791,1.45983 -0.395372,2.11911 -0.263581,0.65928 -0.624067,1.2283 -1.081458,1.70707 -0.457391,0.47876 -1.003934,0.85549 -1.63963,1.13019 -0.635695,0.2747 -1.317905,0.41205 -2.04663,0.41205 z m 51.119233,2.87258 v -3.01385 H 94.958982 V 92.259003 H 91.586694 V 108.741 Z m 42.51409,0 v -3.01385 h -8.90749 V 92.259003 h -3.37229 V 108.741 Z m 42.83969,0 v -2.96676 h -9.23309 v -3.90859 h 6.0236 v -2.872575 h -6.0236 v -3.767313 h 9.14006 V 92.259003 H 176.61487 V 108.741 Z m 37.39751,0.23545 c 1.27139,0 2.5079,-0.2747 3.70952,-0.82409 1.20162,-0.54941 2.19005,-1.28717 2.96529,-2.2133 v 0 l -2.20943,-2.2133 c -0.57368,0.67498 -1.23263,1.19298 -1.97686,1.55402 -0.74423,0.36103 -1.54273,0.54155 -2.39549,0.54155 -0.75973,0 -1.46133,-0.13735 -2.10477,-0.41205 -0.64345,-0.2747 -1.20162,-0.64751 -1.67452,-1.11842 -0.47289,-0.47091 -0.84501,-1.03209 -1.11634,-1.68352 -0.27134,-0.65143 -0.407,-1.35388 -0.407,-2.10734 0,-0.76916 0.13179,-1.479455 0.39537,-2.130886 0.26358,-0.651432 0.62794,-1.216529 1.09309,-1.695291 0.46514,-0.478763 1.01943,-0.855494 1.66288,-1.130194 0.64345,-0.2747 1.32954,-0.41205 2.05826,-0.41205 0.86827,0 1.69002,0.19229 2.46526,0.57687 0.77524,0.38458 1.4497,0.937904 2.02337,1.659972 v 0 l 2.2792,-2.283934 c -0.75973,-0.941828 -1.75204,-1.691366 -2.97691,-2.248614 C 229.1838,92.278624 227.92016,92 226.61776,92 c -1.20937,0 -2.3451,0.21976 -3.40717,0.65928 -1.06208,0.43952 -1.98074,1.036011 -2.75598,1.789473 -0.77524,0.753463 -1.38767,1.652124 -1.83731,2.695984 -0.44964,1.04386 -0.67446,2.16228 -0.67446,3.355263 0,1.19298 0.22094,2.30748 0.66283,3.34349 0.44189,1.03601 1.05045,1.93075 1.82569,2.68421 0.77523,0.75346 1.69389,1.34996 2.75597,1.78948 1.06208,0.43951 2.20555,0.65927 3.43043,0.65927 z M 271.22499,108.741 V 95.272853 h 5.46543 v -3.01385 h -14.32641 v 3.01385 h 5.4887 V 108.741 Z m 38.63015,0 V 92.259003 h -3.37229 V 108.741 Z M 348.69459,109 c 1.20937,0 2.34122,-0.21976 3.39555,-0.65928 1.05432,-0.43952 1.96523,-1.03993 2.73271,-1.80125 0.76749,-0.76131 1.37605,-1.66389 1.82569,-2.70775 0.44964,-1.04386 0.67446,-2.15444 0.67446,-3.33172 0,-1.177285 -0.22482,-2.287858 -0.67446,-3.331717 -0.44964,-1.04386 -1.0582,-1.946445 -1.82569,-2.707757 C 354.05537,93.699215 353.14446,93.0988 352.09014,92.65928 351.03581,92.21976 349.90396,92 348.69459,92 c -1.19387,0 -2.31796,0.21976 -3.37229,0.65928 -1.05432,0.43952 -1.96523,1.039935 -2.73271,1.801246 -0.76749,0.761312 -1.37605,1.663897 -1.82569,2.707757 -0.44964,1.043859 -0.67446,2.154432 -0.67446,3.331717 0,1.17728 0.22482,2.28786 0.67446,3.33172 0.44964,1.04386 1.0582,1.94644 1.82569,2.70775 0.76748,0.76132 1.67839,1.36173 2.73271,1.80125 1.05433,0.43952 2.17842,0.65928 3.37229,0.65928 z m 0,-3.13158 c -0.72872,0 -1.40706,-0.13735 -2.035,-0.41205 -0.62794,-0.2747 -1.17061,-0.65143 -1.628,-1.13019 -0.45739,-0.47877 -0.81788,-1.04779 -1.08146,-1.70707 -0.26358,-0.65928 -0.39537,-1.36565 -0.39537,-2.11911 0,-0.76916 0.13179,-1.479455 0.39537,-2.130886 0.26358,-0.651432 0.62407,-1.216529 1.08146,-1.695291 0.45739,-0.478763 1.00006,-0.855494 1.628,-1.130194 0.62794,-0.2747 1.30628,-0.41205 2.035,-0.41205 0.72872,0 1.41093,0.13735 2.04663,0.41205 0.6357,0.2747 1.18224,0.651431 1.63963,1.130194 0.45739,0.478762 0.81788,1.043859 1.08146,1.695291 0.26358,0.651431 0.39537,1.361726 0.39537,2.130886 0,0.75346 -0.13179,1.45983 -0.39537,2.11911 -0.26358,0.65928 -0.62407,1.2283 -1.08146,1.70707 -0.45739,0.47876 -1.00393,0.85549 -1.63963,1.13019 -0.6357,0.2747 -1.31791,0.41205 -2.04663,0.41205 z m 42.02569,2.87258 V 97.721607 l 8.3028,11.019393 H 402 V 92.259003 h -3.16297 v 10.666207 l -8.0935,-10.666207 h -3.20948 V 108.741 Z"
         id="COLLECTION"
         inkscape:connector-curvature="0"
         style="fill:#ffffff" />
      <g
         id="Capcom_logo">
        <path
           d="m 289.85365,0.31418616 c -12.89053,0 -24.38538,5.56746674 -31.85847,14.26163484 C 255.7889,11.742166 253.09186,8.7656793 250.14536,6.6704137 243.96117,2.0537448 235.9431,0.64884396 227.37411,0.41810928 212.86745,0.0274927 201.26489,7.8645237 195.92166,16.676035 191.40811,7.6708961 187.35889,2.9684523 171.6544,2.1872188 h -38.05657 l 0.009,15.8615672 c 0,0 1.80979,0.577975 2.42165,1.249495 0.51046,0.560242 0.85072,2.107464 0.85072,2.107464 l -0.0894,35.304857 c 0,0 -0.99531,-0.721792 -1.39209,-1.18424 -0.73851,-0.860673 -1.78603,-2.895346 -1.78603,-2.895346 L 114.11242,2.1703011 89.38838,2.1872188 67.905293,58.349204 V 46.327958 H 52.444921 c -1.217488,3.356781 -4.635663,5.623932 -8.758543,5.623932 -2.172676,0 -4.495666,-0.512415 -6.377983,-1.643435 -2.45298,-1.473918 -4.285964,-3.224386 -5.795527,-6.334476 -1.187658,-2.87803 -2.096559,-6.402022 -2.201716,-9.519841 0.361873,-6.166108 2.235219,-8.363956 5.665019,-10.907094 0.760334,-0.563772 2.884681,-1.014591 3.497129,-1.01748 1.347393,-0.0064 2.470389,0.81098 3.079025,2.015626 0.885297,1.752212 -0.410503,3.874686 -1.691772,5.384667 L 52.360329,38.540975 71.66586,18.341221 C 64.930799,7.6068834 52.623657,0.4205261 38.557893,0.4205261 17.262575,0.4205261 0,16.8927 0,37.211726 0,57.530751 16.710156,72.896713 38.557893,74.553961 l 2.762417,0.111174 h 29.388491 v -0.0145 H 139.1313 v -0.0048 l 25.7246,-0.03626 v -0.04108 h 4.02399 V 59.453728 c 0,0 -2.15567,-0.449587 -3.04277,-1.053732 -0.93156,-0.634427 -1.01989,-1.633768 -1.01989,-1.633768 -0.0167,-0.385447 0.0609,-0.680785 0.26343,-0.932891 0.19851,-0.24714 0.66298,-0.415193 0.83864,-0.451945 2.6565,-0.555824 5.36545,-1.315916 8.077,-2.291142 7.23496,-2.602107 13.32311,-6.304095 17.64518,-10.394729 2.89211,17.08757 17.90907,29.556587 36.06373,31.638545 1.18552,0.13596 2.20695,0.238773 3.31587,0.277937 0.29447,0.0104 0.88456,-0.01209 0.88456,-0.01209 h 25.67626 l -0.0781,-12.635237 c 6.67748,7.412545 19.68699,14.51788 32.81861,14.51788 10.72952,0 20.35372,-4.698075 27.13718,-10.507568 l -0.0552,8.73852 h 32.42263 l 0.16573,-13.369141 8.45263,0.110483 v -0.147426 l 11.34213,0.09909 v 13.258657 h 34.57981 V 57.097332 c 0,0 -1.47649,-0.09466 -2.05429,-0.497865 -0.78126,-0.545174 -1.59027,-2.37573 -1.59027,-2.37573 L 395.86249,21.94715 c 0,0 0.14575,-2.159256 0.77338,-2.965434 0.51638,-0.663299 2.20896,-1.215658 2.20896,-1.215658 V 2.1872575 h -3.09353 -4.9738 -26.40372 v 0.4422774 l -2.43132,8.1760911 -3.49714,-8.229261 V 2.1872575 h -0.16434 l -0.0942,-0.2199303 -0.007,0.2199303 H 324.91681 V 18.539439 L 322.645,15.445914 C 316.40509,6.3486739 305.45204,0.31418616 292.97859,0.31418616 c -0.50857,0 -1.01442,0.00914 -1.51776,0.0290018 -0.53337,-0.0192536 -1.06873,-0.0290018 -1.60718,-0.0290018 z M 67.477521,61.544236 l -0.0024,0.159509 h -0.145009 c 0.04955,-0.05295 0.09822,-0.106359 0.147422,-0.159509 v 0 z"
           id="path3840"
           inkscape:connector-curvature="0"
           style="fill:#0c4da2" />
        <path
           d="M 38.532116,7.3332897 C 20.977729,7.4437726 6.6404841,20.230668 6.6404841,36.957764 c 0,16.727096 15.8270089,31.095427 34.9851569,30.662874 l 18.616271,0.05246 V 53.016961 h -3.516055 c -1.104674,2.76338 -6.264141,5.466309 -10.004994,5.466309 -1.971364,0 -6.934183,-0.267982 -8.770051,-0.910982 -3.241288,-1.13524 -7.866217,-2.764873 -11.887506,-9.523527 -1.077614,-2.369262 -4.11196,-8.142853 -3.433991,-16.565115 0.328347,-5.076085 3.552651,-11.412615 9.338472,-14.282161 2.522862,-1.251242 5.062608,-1.456546 9.521932,-1.051876 3.201467,0.290523 6.382531,2.541584 7.493184,5.243306 0.858995,2.089547 0.612154,4.635778 -0.399065,6.086149 -0.07214,0.103476 -0.07369,0.195119 -0.05874,0.293898 0.01138,0.07519 0.108892,0.200461 0.108892,0.200461 l 1.76211,1.376566 c 0,0 0.501662,0.34856 1.087653,0.332953 0.340319,-0.0091 0.948684,-0.378264 0.948684,-0.378264 L 62.495769,18.743911 C 56.274288,10.349086 45.217998,7.3332897 38.532116,7.3332897 Z"
           id="path3950"
           inkscape:connector-curvature="0"
           style="fill:#ffcb08" />
        <path
           d="m 290.018,7.0498541 c -18.61053,0 -33.69768,13.9982349 -33.69768,31.2663569 0,17.268122 15.08715,31.266357 33.69768,31.266357 18.61052,0 33.69767,-13.998235 33.69767,-31.266357 0,-17.268122 -15.08715,-31.2663569 -33.69767,-31.2663569 z m 0.21993,9.7204369 c 9.57983,0 14.71421,6.855526 16.79549,15.027075 0.59577,2.339092 0.35423,10.11652 -7.7e-4,12.706241 -1.08226,7.897166 -7.53725,15.593052 -16.90356,15.356108 -9.12725,-0.230897 -15.23265,-4.480225 -17.12454,-15.908523 -0.55342,-3.343073 -0.56306,-7.359103 -0.1122,-10.717546 1.30729,-9.738015 7.76565,-16.463355 17.3455,-16.463355 v 0 z"
           id="path3990"
           inkscape:connector-curvature="0"
           style="fill:#ffcb08" />
        <path
           d="m 94.014167,8.9905579 c 0,0 -14.797824,40.0414731 -17.449416,47.3333541 -2.651593,7.291881 -5.633599,7.071605 -5.633599,7.071605 l 0.21993,4.417941 17.884443,-0.0048 0.0145,-4.243929 c 0,0 -1.147543,-0.05893 -1.989036,-0.831385 -1.63209,-1.498177 -0.599371,-4.512197 -0.599371,-4.512197 l 4.13517,-10.578406 18.365382,0.03867 c 0,0 3.57988,8.938138 4.45661,11.888321 1.1439,3.8491 -2.42889,3.917659 -2.42889,3.917659 v 4.314018 l 22.61657,-0.01208 -0.0145,-4.265681 c 0,0 -1.34689,-0.205448 -2.77934,-1.454924 -1.62489,-1.417324 -2.73101,-4.340603 -2.73101,-4.340603 L 109.55913,9.0316438 Z m 5.309743,12.3112641 6.13147,17.069976 -11.87624,0.05317 z"
           id="path4001"
           inkscape:connector-curvature="0"
           style="fill:#ffcb08" />
        <path
           d="m 140.83274,8.9277207 -0.087,4.9085543 c 0,0 1.43751,0.411904 2.81318,1.938287 0.72937,0.809274 0.27794,11.081105 0.27794,11.081105 l -0.0242,32.88079 c 0,0 0.46856,1.29597 -1.10448,2.598078 -0.5938,0.49152 -1.11973,1.012525 -2.03738,1.092401 l -0.10875,4.374438 20.96104,0.05075 0.0508,-4.449359 c 0,0 -0.74146,-0.292469 -1.90445,-1.341333 -0.65645,-0.592032 -1.06084,-1.444039 -1.05131,-2.293559 0.0176,-2.970338 0.0871,-5.824398 0.0725,-8.724708 7.34237,-1.76851 13.68087,-4.767301 16.15159,-5.677103 9.2873,-3.705888 16.49384,-9.589803 16.07183,-20.086163 -0.0797,-7.436495 -3.8516,-13.531902 -11.93182,-14.909342 -3.68338,-1.0642622 -5.37443,-1.2502256 -6.82751,-1.3316658 z m 23.97241,8.3364463 c 2.26092,-0.04342 4.92389,0.474613 6.97403,1.507187 2.55501,1.696268 4.10948,3.453455 4.10948,7.170756 0.10536,1.747576 -0.39678,3.250164 -1.23741,4.778046 -0.87531,1.46098 -3.52312,4.265672 -5.195,5.870142 -4.88778,3.494277 -6.63688,4.518652 -10.5198,6.305998 l -0.0622,-24.910347 c 2.06935,-0.390297 3.92553,-0.708483 5.93088,-0.721782 z"
           id="rect3593"
           inkscape:connector-curvature="0"
           style="fill:#ffcb08" />
        <path
           d="M 229.44326,7.3723516 C 211.88887,7.4828345 197.55163,20.26973 197.55163,36.996826 c 0,16.727096 15.82701,31.095427 34.98515,30.662874 l 18.61627,0.05246 V 53.056023 H 247.637 c -1.10467,2.76338 -6.26414,5.466309 -10.00499,5.466309 -1.97137,0 -6.93419,-0.267982 -8.77006,-0.910982 -3.24128,-1.13524 -7.86621,-2.764873 -11.8875,-9.523527 -1.07762,-2.369262 -4.11196,-8.142853 -3.43399,-16.565115 0.32834,-5.076085 3.55265,-11.412615 9.33847,-14.282161 2.52286,-1.251243 5.06261,-1.456546 9.52193,-1.051876 3.20147,0.290523 6.38253,2.541584 7.49319,5.243306 0.85899,2.089547 0.61215,4.635778 -0.39907,6.086149 -0.0721,0.103475 -0.0737,0.195119 -0.0587,0.293898 0.0114,0.07519 0.10889,0.200461 0.10889,0.200461 l 1.76212,1.376566 c 0,0 0.50166,0.34856 1.08765,0.332953 0.34032,-0.0091 0.94868,-0.378264 0.94868,-0.378264 L 253.40691,18.782973 C 247.18543,10.388148 236.12914,7.3723516 229.44326,7.3723516 Z"
           id="path3622"
           inkscape:connector-curvature="0"
           style="fill:#ffcb08" />
        <path
           d="m 332.13828,9.0437279 0.0193,4.2173451 c 0,0 1.84411,0.496448 2.57633,1.075483 0.83709,0.661981 0.62595,1.836781 0.62595,1.836781 0,0 -6.68952,41.571048 -6.83476,42.342628 -0.15624,0.830061 -0.3775,2.769356 -1.54434,3.847572 -1.16024,1.072127 -2.49899,1.288163 -2.49899,1.288163 l -0.0193,4.159341 H 343.1928 V 63.9248 c 0,0 -1.52448,-0.117884 -2.54007,-1.133487 -1.01561,-1.015603 -0.72264,-3.806486 -0.72264,-3.806486 l 4.60888,-31.406532 9.37483,27.029677 11.41946,0.157093 9.27573,-29.10814 5.17683,33.482578 c 0,0 0.62442,2.517093 -0.72263,3.808903 -1.03664,0.994125 -2.53766,1.133487 -2.53766,1.133487 v 3.886241 h 21.69818 l -0.0193,-4.159341 c 0,0 -0.48571,0.166303 -1.71836,-0.821718 -0.7249,-0.581042 -1.07391,-3.172187 -1.23016,-4.002248 C 395.11066,58.213248 389.2646,16.3836 389.2646,16.3836 c 0,0 -0.10169,-1.727215 0.84589,-2.610162 0.68296,-0.636382 2.08088,-1.239827 2.08088,-1.239827 l -0.0338,-3.4439636 -22.52715,-0.026585 -8.24376,23.7452236 -7.86191,-23.7452236 -21.3864,-0.019334 z"
           id="path3624"
           inkscape:connector-curvature="0"
           style="fill:#ffcb08" />
        <path
           d="m 418.76463,0.06283723 c -5.95864,0 -10.78906,4.83042737 -10.78906,10.78906177 0,5.958635 4.83042,10.789063 10.78906,10.789063 5.95863,0 10.78907,-4.830428 10.78907,-10.789063 0,-5.9586344 -4.83044,-10.78906177 -10.78907,-10.78906177 z m 0,1.45050787 c 5.15752,0 9.33855,4.1810273 9.33855,9.3385539 0,5.157527 -4.18103,9.338554 -9.33855,9.338554 -5.15753,0 -9.33856,-4.181027 -9.33856,-9.338554 0,-5.1575266 4.18103,-9.3385539 9.33856,-9.3385539 z"
           id="path3629"
           inkscape:connector-curvature="0"
           style="fill:#0c4da2" />
        <path
           d="M 413.21039,4.3357691 V 17.108645 h 2.69475 v -4.427608 h 3.5793 l 2.96303,4.483195 3.02585,-0.01933 -3.61555,-4.751461 c 1.48451,-0.606117 2.53523,-2.101095 2.53523,-3.852406 0,-2.2578906 -1.74622,-4.0941689 -3.91765,-4.1424237 v -0.05317 h -4.57021 v -0.00967 h -2.69475 z m 2.69475,2.5787433 4.4832,0.024168 c 0.9107,0.1546275 1.51539,0.2482306 1.49082,1.6165054 -0.0263,1.4641912 -1.1537,1.6593002 -1.49082,1.6703652 l -4.4832,0.05317 z"
           id="rect3634"
           inkscape:connector-curvature="0"
           style="fill:#0c4da2" />
      </g>
    </g>
  </g>
</svg>
