<?xml version="1.0" encoding="UTF-8" standalone="no"?>
<svg
   xmlns:dc="http://purl.org/dc/elements/1.1/"
   xmlns:cc="http://creativecommons.org/ns#"
   xmlns:rdf="http://www.w3.org/1999/02/22-rdf-syntax-ns#"
   xmlns:svg="http://www.w3.org/2000/svg"
   xmlns="http://www.w3.org/2000/svg"
   xmlns:sodipodi="http://sodipodi.sourceforge.net/DTD/sodipodi-0.dtd"
   xmlns:inkscape="http://www.inkscape.org/namespaces/inkscape"
   width="492.86884"
   height="120.99421"
   viewBox="0 0 492.86884 120.99421"
   version="1.1"
   id="svg29"
   sodipodi:docname="capcom.svg"
   inkscape:version="0.92.5 (2060ec1f9f, 2020-04-08)">
  <metadata
     id="metadata35">
    <rdf:RDF>
      <cc:Work
         rdf:about="">
        <dc:format>image/svg+xml</dc:format>
        <dc:type
           rdf:resource="http://purl.org/dc/dcmitype/StillImage" />
        <dc:title>mainlogo</dc:title>
      </cc:Work>
    </rdf:RDF>
  </metadata>
  <defs
     id="defs33" />
  <sodipodi:namedview
     pagecolor="#ffffff"
     bordercolor="#666666"
     borderopacity="1"
     objecttolerance="10"
     gridtolerance="10"
     guidetolerance="10"
     inkscape:pageopacity="0"
     inkscape:pageshadow="2"
     inkscape:window-width="1366"
     inkscape:window-height="743"
     id="namedview31"
     showgrid="false"
     inkscape:pagecheckerboard="true"
     inkscape:zoom="2.4068284"
     inkscape:cx="281.70547"
     inkscape:cy="52.818347"
     inkscape:window-x="0"
     inkscape:window-y="0"
     inkscape:window-maximized="1"
     inkscape:current-layer="svg29" />
  <title
     id="title14">mainlogo</title>
  <path
     d="m 9.9535821,120.96721 c 1.4587909,0 2.8775549,-0.31519 4.2562899,-0.94556 1.378736,-0.63039 2.512858,-1.4769 3.402364,-2.53954 v 0 l -2.535094,-2.53953 c -0.658235,0.77447 -1.414316,1.36882 -2.268242,1.78308 -0.853928,0.41424 -1.77012,0.62137 -2.748577,0.62137 -0.8717169,0 -1.6767207,-0.15759 -2.4150113,-0.47278 -0.7382907,-0.31519 -1.3787357,-0.74296 -1.9213349,-1.28328 -0.5425992,-0.54032 -0.9695625,-1.18421 -1.28089,-1.93166 -0.3113273,-0.74745 -0.466991,-1.55344 -0.466991,-2.41796 0,-0.88253 0.1512161,-1.69752 0.4536485,-2.44497 0.3024323,-0.74745 0.7205006,-1.39585 1.2542046,-1.94518 0.5337042,-0.54933 1.1697017,-0.98159 1.9079923,-1.29678 0.7382907,-0.31519 1.5255043,-0.47278 2.3616409,-0.47278 0.9962479,0 1.9391249,0.22063 2.8286319,0.6619 0.889507,0.44126 1.663378,1.07614 2.321613,1.90464 v 0 l 2.61515,-2.62058 c -0.871717,-1.08065 -2.010285,-1.94067 -3.415707,-2.58005 -1.405421,-0.63939 -2.855316,-0.95908 -4.3496879,-0.95908 -1.3876308,0 -2.6907583,0.25215 -3.9093828,0.75646 -1.2186244,0.5043 -2.2726901,1.18871 -3.162197,2.05323 -0.8895068,0.86453 -1.5922174,1.89565 -2.10813131,3.09337 C 0.257957,108.58925 0,109.87252 0,111.24135 c 0,1.36882 0.25350946,2.6476 0.76052838,3.83631 0.50701892,1.18872 1.20528182,2.21534 2.09478882,3.07986 0.8895068,0.86452 1.9435724,1.54894 3.1621968,2.05324 1.2186245,0.5043 2.5306472,0.75645 3.9360681,0.75645 z m 50.5684659,0.027 c 1.387631,0 2.686311,-0.25215 3.896041,-0.75646 1.209729,-0.5043 2.2549,-1.19321 3.135511,-2.06675 0.880612,-0.87352 1.578876,-1.90914 2.094789,-3.10686 0.515914,-1.19773 0.773871,-2.472 0.773871,-3.82281 0,-1.35081 -0.257957,-2.62508 -0.773871,-3.8228 -0.515913,-1.19773 -1.214177,-2.23335 -2.094789,-3.10688 -0.880611,-0.87352 -1.925782,-1.56244 -3.135511,-2.06674 -1.20973,-0.50431 -2.50841,-0.75646 -3.896041,-0.75646 -1.36984,0 -2.659625,0.25215 -3.869355,0.75646 -1.209729,0.5043 -2.2549,1.19322 -3.135511,2.06674 -0.880612,0.87353 -1.578874,1.90915 -2.094789,3.10688 -0.515914,1.19772 -0.773872,2.47199 -0.773872,3.8228 0,1.35081 0.257958,2.62508 0.773872,3.82281 0.515915,1.19772 1.214177,2.23334 2.094789,3.10686 0.880611,0.87354 1.925782,1.56245 3.135511,2.06675 1.20973,0.50431 2.499515,0.75646 3.869355,0.75646 z m 0,-3.59317 c -0.836136,0 -1.614455,-0.15759 -2.334955,-0.47278 -0.7205,-0.31519 -1.343155,-0.74745 -1.867964,-1.29678 -0.52481,-0.54934 -0.93843,-1.20223 -1.240863,-1.95869 -0.302432,-0.75645 -0.453649,-1.56694 -0.453649,-2.43146 0,-0.88253 0.151217,-1.69752 0.453649,-2.44497 0.302433,-0.74745 0.716053,-1.39585 1.240863,-1.94518 0.524809,-0.54933 1.147464,-0.98159 1.867964,-1.29678 0.7205,-0.31519 1.498819,-0.47278 2.334955,-0.47278 0.836137,0 1.618903,0.15759 2.348298,0.47278 0.729396,0.31519 1.356498,0.74745 1.881307,1.29678 0.52481,0.54933 0.93843,1.19773 1.240863,1.94518 0.302432,0.74745 0.453648,1.56244 0.453648,2.44497 0,0.86452 -0.151216,1.67501 -0.453648,2.43146 -0.302433,0.75646 -0.716053,1.40935 -1.240863,1.95869 -0.524809,0.54933 -1.151911,0.98159 -1.881307,1.29678 -0.729395,0.31519 -1.512161,0.47278 -2.348298,0.47278 z m 58.654082,3.29599 v -3.45808 H 108.9557 v -15.45332 h -3.86936 v 18.9114 z m 48.78056,0 v -3.45808 h -10.22043 v -15.45332 h -3.86936 v 18.9114 z m 49.15415,0 v -3.40405 h -10.59402 v -4.48471 h 6.91146 v -3.29598 h -6.91146 v -4.32261 h 10.48728 v -3.40405 h -14.35664 v 18.9114 z m 42.90981,0.27016 c 1.45879,0 2.87756,-0.31519 4.2563,-0.94556 1.37873,-0.63039 2.51285,-1.4769 3.40236,-2.53954 v 0 l -2.53509,-2.53953 c -0.65824,0.77447 -1.41432,1.36882 -2.26825,1.78308 -0.85392,0.41424 -1.77012,0.62137 -2.74858,0.62137 -0.87171,0 -1.67672,-0.15759 -2.415,-0.47278 -0.7383,-0.31519 -1.37874,-0.74296 -1.92134,-1.28328 -0.5426,-0.54032 -0.96957,-1.18421 -1.28089,-1.93166 -0.31133,-0.74745 -0.46699,-1.55344 -0.46699,-2.41796 0,-0.88253 0.15121,-1.69752 0.45365,-2.44497 0.30243,-0.74745 0.72049,-1.39585 1.2542,-1.94518 0.53371,-0.54933 1.1697,-0.98159 1.90799,-1.29678 0.73829,-0.31519 1.52551,-0.47278 2.36164,-0.47278 0.99625,0 1.93913,0.22063 2.82863,0.6619 0.88951,0.44126 1.66339,1.07614 2.32161,1.90464 v 0 l 2.61515,-2.62058 c -0.87171,-1.08065 -2.01028,-1.94067 -3.4157,-2.58005 -1.40542,-0.63939 -2.85532,-0.95908 -4.34969,-0.95908 -1.38763,0 -2.69076,0.25215 -3.90938,0.75646 -1.21862,0.5043 -2.27269,1.18871 -3.1622,2.05323 -0.88951,0.86453 -1.59221,1.89565 -2.10813,3.09337 -0.51591,1.19772 -0.77387,2.48099 -0.77387,3.84982 0,1.36882 0.25351,2.6476 0.76053,3.83631 0.50702,1.18872 1.20528,2.21534 2.09479,3.07986 0.8895,0.86452 1.94357,1.54894 3.16219,2.05324 1.21863,0.5043 2.53065,0.75645 3.93607,0.75645 z m 51.18223,-0.27016 v -15.45332 h 6.27102 v -3.45808 h -16.43809 v 3.45808 h 6.29772 v 15.45332 z m 44.32413,0 v -18.9114 h -3.86935 v 18.9114 z m 44.56429,0.29718 c 1.38763,0 2.68631,-0.25215 3.89605,-0.75646 1.20972,-0.5043 2.2549,-1.19321 3.1355,-2.06675 0.88062,-0.87352 1.57888,-1.90914 2.09479,-3.10686 0.51592,-1.19773 0.77388,-2.472 0.77388,-3.82281 0,-1.35081 -0.25796,-2.62508 -0.77388,-3.8228 -0.51591,-1.19773 -1.21417,-2.23335 -2.09479,-3.10688 -0.8806,-0.87352 -1.92578,-1.56244 -3.1355,-2.06674 -1.20974,-0.50431 -2.50842,-0.75646 -3.89605,-0.75646 -1.36984,0 -2.65962,0.25215 -3.86936,0.75646 -1.20972,0.5043 -2.2549,1.19322 -3.1355,2.06674 -0.88062,0.87353 -1.57888,1.90915 -2.09479,3.10688 -0.51592,1.19772 -0.77388,2.47199 -0.77388,3.8228 0,1.35081 0.25796,2.62508 0.77388,3.82281 0.51591,1.19772 1.21417,2.23334 2.09479,3.10686 0.8806,0.87354 1.92578,1.56245 3.1355,2.06675 1.20974,0.50431 2.49952,0.75646 3.86936,0.75646 z m 0,-3.59317 c -0.83613,0 -1.61446,-0.15759 -2.33495,-0.47278 -0.7205,-0.31519 -1.34316,-0.74745 -1.86797,-1.29678 -0.5248,-0.54934 -0.93843,-1.20223 -1.24086,-1.95869 -0.30243,-0.75645 -0.45365,-1.56694 -0.45365,-2.43146 0,-0.88253 0.15122,-1.69752 0.45365,-2.44497 0.30243,-0.74745 0.71606,-1.39585 1.24086,-1.94518 0.52481,-0.54933 1.14747,-0.98159 1.86797,-1.29678 0.72049,-0.31519 1.49882,-0.47278 2.33495,-0.47278 0.83613,0 1.6189,0.15759 2.3483,0.47278 0.7294,0.31519 1.3565,0.74745 1.88131,1.29678 0.5248,0.54933 0.93843,1.19773 1.24086,1.94518 0.30243,0.74745 0.45365,1.56244 0.45365,2.44497 0,0.86452 -0.15122,1.67501 -0.45365,2.43146 -0.30243,0.75646 -0.71606,1.40935 -1.24086,1.95869 -0.52481,0.54933 -1.15191,0.98159 -1.88131,1.29678 -0.7294,0.31519 -1.51217,0.47278 -2.3483,0.47278 z m 48.22017,3.29599 v -12.64362 l 9.52661,12.64362 h 3.41572 v -18.9114 h -3.62919 v 12.23838 l -9.28646,-12.23838 h -3.68255 v 18.9114 z"
     id="COLLECTION"
     inkscape:connector-curvature="0"
     style="fill:#ffffff;fill-rule:nonzero;stroke:none;stroke-width:1.14739752" />
  <g
     style="fill:none;fill-rule:nonzero;stroke:none;stroke-width:1"
     id="Capcom_logo"
     transform="matrix(1.1473975,0,0,1.1473975,0,-0.07209928)">
    <path
       d="m 289.85365,0.31418616 c -12.89053,0 -24.38538,5.56746674 -31.85847,14.26163484 C 255.7889,11.742166 253.09186,8.7656793 250.14536,6.6704137 243.96117,2.0537448 235.9431,0.64884396 227.37411,0.41810928 212.86745,0.0274927 201.26489,7.8645237 195.92166,16.676035 191.40811,7.6708961 187.35889,2.9684523 171.6544,2.1872188 h -38.05657 l 0.009,15.8615672 c 0,0 1.80979,0.577975 2.42165,1.249495 0.51046,0.560242 0.85072,2.107464 0.85072,2.107464 l -0.0894,35.304857 c 0,0 -0.99531,-0.721792 -1.39209,-1.18424 -0.73851,-0.860673 -1.78603,-2.895346 -1.78603,-2.895346 L 114.11242,2.1703011 89.38838,2.1872188 67.905293,58.349204 V 46.327958 H 52.444921 c -1.217488,3.356781 -4.635663,5.623932 -8.758543,5.623932 -2.172676,0 -4.495666,-0.512415 -6.377983,-1.643435 -2.45298,-1.473918 -4.285964,-3.224386 -5.795527,-6.334476 -1.187658,-2.87803 -2.096559,-6.402022 -2.201716,-9.519841 0.361873,-6.166108 2.235219,-8.363956 5.665019,-10.907094 0.760334,-0.563772 2.884681,-1.014591 3.497129,-1.01748 1.347393,-0.0064 2.470389,0.81098 3.079025,2.015626 0.885297,1.752212 -0.410503,3.874686 -1.691772,5.384667 L 52.360329,38.540975 71.66586,18.341221 C 64.930799,7.6068834 52.623657,0.4205261 38.557893,0.4205261 17.262575,0.4205261 0,16.8927 0,37.211726 0,57.530751 16.710156,72.896713 38.557893,74.553961 l 2.762417,0.111174 h 29.388491 v -0.0145 H 139.1313 v -0.0048 l 25.7246,-0.03626 v -0.04108 h 4.02399 V 59.453728 c 0,0 -2.15567,-0.449587 -3.04277,-1.053732 -0.93156,-0.634427 -1.01989,-1.633768 -1.01989,-1.633768 -0.0167,-0.385447 0.0609,-0.680785 0.26343,-0.932891 0.19851,-0.24714 0.66298,-0.415193 0.83864,-0.451945 2.6565,-0.555824 5.36545,-1.315916 8.077,-2.291142 7.23496,-2.602107 13.32311,-6.304095 17.64518,-10.394729 2.89211,17.08757 17.90907,29.556587 36.06373,31.638545 1.18552,0.13596 2.20695,0.238773 3.31587,0.277937 0.29447,0.0104 0.88456,-0.01209 0.88456,-0.01209 h 25.67626 l -0.0781,-12.635237 c 6.67748,7.412545 19.68699,14.51788 32.81861,14.51788 10.72952,0 20.35372,-4.698075 27.13718,-10.507568 l -0.0552,8.73852 h 32.42263 l 0.16573,-13.369141 8.45263,0.110483 v -0.147426 l 11.34213,0.09909 v 13.258657 h 34.57981 V 57.097332 c 0,0 -1.47649,-0.09466 -2.05429,-0.497865 -0.78126,-0.545174 -1.59027,-2.37573 -1.59027,-2.37573 L 395.86249,21.94715 c 0,0 0.14575,-2.159256 0.77338,-2.965434 0.51638,-0.663299 2.20896,-1.215658 2.20896,-1.215658 V 2.1872575 h -3.09353 -4.9738 -26.40372 v 0.4422774 l -2.43132,8.1760911 -3.49714,-8.229261 V 2.1872575 h -0.16434 l -0.0942,-0.2199303 -0.007,0.2199303 H 324.91681 V 18.539439 L 322.645,15.445914 C 316.40509,6.3486739 305.45204,0.31418616 292.97859,0.31418616 c -0.50857,0 -1.01442,0.00914 -1.51776,0.0290018 -0.53337,-0.0192536 -1.06873,-0.0290018 -1.60718,-0.0290018 z M 67.477521,61.544236 l -0.0024,0.159509 h -0.145009 c 0.04955,-0.05295 0.09822,-0.106359 0.147422,-0.159509 v 0 z"
       id="path3840"
       inkscape:connector-curvature="0"
       style="fill:#0c4da2" />
    <path
       d="M 38.532116,7.3332897 C 20.977729,7.4437726 6.6404841,20.230668 6.6404841,36.957764 c 0,16.727096 15.8270089,31.095427 34.9851569,30.662874 l 18.616271,0.05246 V 53.016961 h -3.516055 c -1.104674,2.76338 -6.264141,5.466309 -10.004994,5.466309 -1.971364,0 -6.934183,-0.267982 -8.770051,-0.910982 -3.241288,-1.13524 -7.866217,-2.764873 -11.887506,-9.523527 -1.077614,-2.369262 -4.11196,-8.142853 -3.433991,-16.565115 0.328347,-5.076085 3.552651,-11.412615 9.338472,-14.282161 2.522862,-1.251242 5.062608,-1.456546 9.521932,-1.051876 3.201467,0.290523 6.382531,2.541584 7.493184,5.243306 0.858995,2.089547 0.612154,4.635778 -0.399065,6.086149 -0.07214,0.103476 -0.07369,0.195119 -0.05874,0.293898 0.01138,0.07519 0.108892,0.200461 0.108892,0.200461 l 1.76211,1.376566 c 0,0 0.501662,0.34856 1.087653,0.332953 0.340319,-0.0091 0.948684,-0.378264 0.948684,-0.378264 L 62.495769,18.743911 C 56.274288,10.349086 45.217998,7.3332897 38.532116,7.3332897 Z"
       id="path3950"
       inkscape:connector-curvature="0"
       style="fill:#ffcb08" />
    <path
       d="m 290.018,7.0498541 c -18.61053,0 -33.69768,13.9982349 -33.69768,31.2663569 0,17.268122 15.08715,31.266357 33.69768,31.266357 18.61052,0 33.69767,-13.998235 33.69767,-31.266357 0,-17.268122 -15.08715,-31.2663569 -33.69767,-31.2663569 z m 0.21993,9.7204369 c 9.57983,0 14.71421,6.855526 16.79549,15.027075 0.59577,2.339092 0.35423,10.11652 -7.7e-4,12.706241 -1.08226,7.897166 -7.53725,15.593052 -16.90356,15.356108 -9.12725,-0.230897 -15.23265,-4.480225 -17.12454,-15.908523 -0.55342,-3.343073 -0.56306,-7.359103 -0.1122,-10.717546 1.30729,-9.738015 7.76565,-16.463355 17.3455,-16.463355 v 0 z"
       id="path3990"
       inkscape:connector-curvature="0"
       style="fill:#ffcb08" />
    <path
       d="m 94.014167,8.9905579 c 0,0 -14.797824,40.0414731 -17.449416,47.3333541 -2.651593,7.291881 -5.633599,7.071605 -5.633599,7.071605 l 0.21993,4.417941 17.884443,-0.0048 0.0145,-4.243929 c 0,0 -1.147543,-0.05893 -1.989036,-0.831385 -1.63209,-1.498177 -0.599371,-4.512197 -0.599371,-4.512197 l 4.13517,-10.578406 18.365382,0.03867 c 0,0 3.57988,8.938138 4.45661,11.888321 1.1439,3.8491 -2.42889,3.917659 -2.42889,3.917659 v 4.314018 l 22.61657,-0.01208 -0.0145,-4.265681 c 0,0 -1.34689,-0.205448 -2.77934,-1.454924 -1.62489,-1.417324 -2.73101,-4.340603 -2.73101,-4.340603 L 109.55913,9.0316438 Z m 5.309743,12.3112641 6.13147,17.069976 -11.87624,0.05317 z"
       id="path4001"
       inkscape:connector-curvature="0"
       style="fill:#ffcb08" />
    <path
       d="m 140.83274,8.9277207 -0.087,4.9085543 c 0,0 1.43751,0.411904 2.81318,1.938287 0.72937,0.809274 0.27794,11.081105 0.27794,11.081105 l -0.0242,32.88079 c 0,0 0.46856,1.29597 -1.10448,2.598078 -0.5938,0.49152 -1.11973,1.012525 -2.03738,1.092401 l -0.10875,4.374438 20.96104,0.05075 0.0508,-4.449359 c 0,0 -0.74146,-0.292469 -1.90445,-1.341333 -0.65645,-0.592032 -1.06084,-1.444039 -1.05131,-2.293559 0.0176,-2.970338 0.0871,-5.824398 0.0725,-8.724708 7.34237,-1.76851 13.68087,-4.767301 16.15159,-5.677103 9.2873,-3.705888 16.49384,-9.589803 16.07183,-20.086163 -0.0797,-7.436495 -3.8516,-13.531902 -11.93182,-14.909342 -3.68338,-1.0642622 -5.37443,-1.2502256 -6.82751,-1.3316658 z m 23.97241,8.3364463 c 2.26092,-0.04342 4.92389,0.474613 6.97403,1.507187 2.55501,1.696268 4.10948,3.453455 4.10948,7.170756 0.10536,1.747576 -0.39678,3.250164 -1.23741,4.778046 -0.87531,1.46098 -3.52312,4.265672 -5.195,5.870142 -4.88778,3.494277 -6.63688,4.518652 -10.5198,6.305998 l -0.0622,-24.910347 c 2.06935,-0.390297 3.92553,-0.708483 5.93088,-0.721782 z"
       id="rect3593"
       inkscape:connector-curvature="0"
       style="fill:#ffcb08" />
    <path
       d="M 229.44326,7.3723516 C 211.88887,7.4828345 197.55163,20.26973 197.55163,36.996826 c 0,16.727096 15.82701,31.095427 34.98515,30.662874 l 18.61627,0.05246 V 53.056023 H 247.637 c -1.10467,2.76338 -6.26414,5.466309 -10.00499,5.466309 -1.97137,0 -6.93419,-0.267982 -8.77006,-0.910982 -3.24128,-1.13524 -7.86621,-2.764873 -11.8875,-9.523527 -1.07762,-2.369262 -4.11196,-8.142853 -3.43399,-16.565115 0.32834,-5.076085 3.55265,-11.412615 9.33847,-14.282161 2.52286,-1.251243 5.06261,-1.456546 9.52193,-1.051876 3.20147,0.290523 6.38253,2.541584 7.49319,5.243306 0.85899,2.089547 0.61215,4.635778 -0.39907,6.086149 -0.0721,0.103475 -0.0737,0.195119 -0.0587,0.293898 0.0114,0.07519 0.10889,0.200461 0.10889,0.200461 l 1.76212,1.376566 c 0,0 0.50166,0.34856 1.08765,0.332953 0.34032,-0.0091 0.94868,-0.378264 0.94868,-0.378264 L 253.40691,18.782973 C 247.18543,10.388148 236.12914,7.3723516 229.44326,7.3723516 Z"
       id="path3622"
       inkscape:connector-curvature="0"
       style="fill:#ffcb08" />
    <path
       d="m 332.13828,9.0437279 0.0193,4.2173451 c 0,0 1.84411,0.496448 2.57633,1.075483 0.83709,0.661981 0.62595,1.836781 0.62595,1.836781 0,0 -6.68952,41.571048 -6.83476,42.342628 -0.15624,0.830061 -0.3775,2.769356 -1.54434,3.847572 -1.16024,1.072127 -2.49899,1.288163 -2.49899,1.288163 l -0.0193,4.159341 H 343.1928 V 63.9248 c 0,0 -1.52448,-0.117884 -2.54007,-1.133487 -1.01561,-1.015603 -0.72264,-3.806486 -0.72264,-3.806486 l 4.60888,-31.406532 9.37483,27.029677 11.41946,0.157093 9.27573,-29.10814 5.17683,33.482578 c 0,0 0.62442,2.517093 -0.72263,3.808903 -1.03664,0.994125 -2.53766,1.133487 -2.53766,1.133487 v 3.886241 h 21.69818 l -0.0193,-4.159341 c 0,0 -0.48571,0.166303 -1.71836,-0.821718 -0.7249,-0.581042 -1.07391,-3.172187 -1.23016,-4.002248 C 395.11066,58.213248 389.2646,16.3836 389.2646,16.3836 c 0,0 -0.10169,-1.727215 0.84589,-2.610162 0.68296,-0.636382 2.08088,-1.239827 2.08088,-1.239827 l -0.0338,-3.4439636 -22.52715,-0.026585 -8.24376,23.7452236 -7.86191,-23.7452236 -21.3864,-0.019334 z"
       id="path3624"
       inkscape:connector-curvature="0"
       style="fill:#ffcb08" />
    <path
       d="m 418.76463,0.06283723 c -5.95864,0 -10.78906,4.83042737 -10.78906,10.78906177 0,5.958635 4.83042,10.789063 10.78906,10.789063 5.95863,0 10.78907,-4.830428 10.78907,-10.789063 0,-5.9586344 -4.83044,-10.78906177 -10.78907,-10.78906177 z m 0,1.45050787 c 5.15752,0 9.33855,4.1810273 9.33855,9.3385539 0,5.157527 -4.18103,9.338554 -9.33855,9.338554 -5.15753,0 -9.33856,-4.181027 -9.33856,-9.338554 0,-5.1575266 4.18103,-9.3385539 9.33856,-9.3385539 z"
       id="path3629"
       inkscape:connector-curvature="0"
       style="fill:#0c4da2" />
    <path
       d="M 413.21039,4.3357691 V 17.108645 h 2.69475 v -4.427608 h 3.5793 l 2.96303,4.483195 3.02585,-0.01933 -3.61555,-4.751461 c 1.48451,-0.606117 2.53523,-2.101095 2.53523,-3.852406 0,-2.2578906 -1.74622,-4.0941689 -3.91765,-4.1424237 v -0.05317 h -4.57021 v -0.00967 h -2.69475 z m 2.69475,2.5787433 4.4832,0.024168 c 0.9107,0.1546275 1.51539,0.2482306 1.49082,1.6165054 -0.0263,1.4641912 -1.1537,1.6593002 -1.49082,1.6703652 l -4.4832,0.05317 z"
       id="rect3634"
       inkscape:connector-curvature="0"
       style="fill:#0c4da2" />
  </g>
</svg>
