<?xml version="1.0" encoding="UTF-8" standalone="no"?>
<!-- Created with Inkscape (http://www.inkscape.org/) -->

<svg
   width="500mm"
   height="200mm"
   viewBox="0 0 500 200"
   version="1.1"
   id="svg3787"
   inkscape:version="1.2.2 (b0a8486541, 2022-12-01)"
   sodipodi:docname="channelf.svg"
   xml:space="preserve"
   xmlns:inkscape="http://www.inkscape.org/namespaces/inkscape"
   xmlns:sodipodi="http://sodipodi.sourceforge.net/DTD/sodipodi-0.dtd"
   xmlns="http://www.w3.org/2000/svg"
   xmlns:svg="http://www.w3.org/2000/svg"><sodipodi:namedview
     id="namedview3789"
     pagecolor="#505050"
     bordercolor="#ffffff"
     borderopacity="1"
     inkscape:showpageshadow="0"
     inkscape:pageopacity="0"
     inkscape:pagecheckerboard="1"
     inkscape:deskcolor="#505050"
     inkscape:document-units="mm"
     showgrid="false"
     inkscape:zoom="0.92725428"
     inkscape:cx="1258.5545"
     inkscape:cy="481.52919"
     inkscape:window-width="1670"
     inkscape:window-height="910"
     inkscape:window-x="0"
     inkscape:window-y="0"
     inkscape:window-maximized="1"
     inkscape:current-layer="layer1" /><defs
     id="defs3784"><clipPath
       clipPathUnits="userSpaceOnUse"
       id="clipPath3650"><path
         fill="#ba2025"
         d="m 469.77477,197.39904 v 64.00523 h 15.13719 v -24.28138 h 21.33507 v -13.51175 h -21.33507 v -12.69952 h 21.13264 v -13.61381 z"
         id="path3652"
         style="display:block;fill:#ffffff;stroke-width:0.809863" /></clipPath><inkscape:path-effect
       effect="powerclip"
       id="path-effect3654"
       is_visible="true"
       lpeversion="1"
       inverse="true"
       flatten="false"
       hide_clip="false"
       message="Use fill-rule evenodd on &lt;b&gt;fill and stroke&lt;/b&gt; dialog if no flatten result after convert clip to paths." /><clipPath
       clipPathUnits="userSpaceOnUse"
       id="clipPath3650-3"><path
         fill="#ba2025"
         d="m 469.77477,197.39904 v 64.00523 h 15.13719 v -24.28138 h 21.33507 v -13.51175 h -21.33507 v -12.69952 h 21.13264 v -13.61381 z"
         id="path3652-6"
         style="display:none;fill:#ffffff;stroke-width:0.809863" /><path
         id="lpe_path-effect3654"
         style="fill:#ffffff;stroke-width:0.809863"
         class="powerclip"
         d="m 428.04856,185.08138 h 116.82466 v 87.71695 H 428.04856 Z m 41.72621,12.31766 v 64.00523 h 15.13719 v -24.28138 h 21.33507 v -13.51175 h -21.33507 v -12.69952 h 21.13264 v -13.61381 z" /></clipPath><inkscape:path-effect
       effect="powerclip"
       id="path-effect3654-7"
       is_visible="true"
       lpeversion="1"
       inverse="true"
       flatten="false"
       hide_clip="false"
       message="Use fill-rule evenodd on &lt;b&gt;fill and stroke&lt;/b&gt; dialog if no flatten result after convert clip to paths." /><clipPath
       clipPathUnits="userSpaceOnUse"
       id="clipath_lpe_path-effect3654-7"><path
         fill="#ba2025"
         d="m 469.77477,197.39904 v 64.00523 h 15.13719 v -24.28138 h 21.33507 v -13.51175 h -21.33507 v -12.69952 h 21.13264 v -13.61381 z"
         id="path8030"
         style="display:block;fill:#ffffff;stroke-width:0.809863" /></clipPath></defs><g
     inkscape:label="Layer 1"
     inkscape:groupmode="layer"
     id="layer1"><path
       fill="#363639"
       d="m 413.92211,140.97872 c -12.80882,-0.002 -25.22082,-2.04897 -31.19437,-3.28481 -3.07263,-0.63089 -5.97357,-1.69587 -8.27522,-4.05825 -2.30082,-2.35992 -3.86467,-5.85046 -4.70611,-11.00362 -0.86088,-5.2949 -1.36544,-15.42712 -1.36868,-25.360925 0.0122,-9.43898 0.44462,-18.53131 1.59868,-23.20748 0.5985,-2.40854 1.62864,-4.62675 3.3658,-6.50079 1.73553,-1.87563 4.12625,-3.36984 7.32362,-4.51903 6.40277,-2.29191 16.11144,-3.33342 31.4276,-3.3407 h 21.05892 c 11.4855,8.3e-4 19.82062,0.59767 25.96667,1.85215 6.13473,1.25449 10.16543,3.18846 12.78131,6.00758 1.73795,1.87404 2.76892,4.09225 3.36739,6.50079 1.15326,4.67617 1.58491,13.7685 1.59544,23.20748 -0.003,9.933805 -0.50857,20.067645 -1.36703,25.360925 -0.84065,5.15316 -2.40533,8.6437 -4.70615,11.00362 -2.30162,2.36238 -5.20094,3.42657 -8.27357,4.05825 -5.97436,1.23504 -18.38475,3.28239 -31.19516,3.28481 v -3.04833 c 12.48486,0.002 24.76564,-2.01655 30.57561,-3.22001 2.82077,-0.58717 5.00011,-1.4513 6.71054,-3.20465 1.71126,-1.75335 3.09369,-4.56114 3.88007,-9.36527 0.80744,-4.92478 1.33061,-15.06673 1.32574,-24.869345 0.009,-9.28915 -0.48347,-18.44061 -1.50309,-22.46806 -0.51913,-2.06192 -1.31849,-3.72861 -2.64747,-5.16938 -1.33223,-1.43832 -3.24431,-2.68631 -6.11851,-3.72212 -5.73708,-2.07649 -15.23033,-3.16902 -30.39342,-3.16091 h -21.05891 c -11.37537,-8.3e-4 -19.55662,0.60254 -25.3593,1.7906 -5.81725,1.18889 -9.16848,2.94061 -11.15345,5.09243 -1.32981,1.44077 -2.12751,3.10746 -2.64744,5.16938 -1.02124,4.02907 -1.51607,13.17891 -1.50474,22.46806 -0.003,9.801795 0.5183,19.943735 1.32819,24.869345 0.78475,4.80492 2.16801,7.61192 3.87844,9.36527 1.71285,1.75335 3.89139,2.61748 6.71052,3.20465 5.81241,1.20263 18.0924,3.22243 30.57726,3.22001 h 17.40076 v 3.04833 z"
       id="path1"
       style="fill:#ba2025;fill-opacity:1;stroke-width:0.809864" /><path
       fill="#5a5a5a"
       d="M 120.31455,122.22874 V 71.030705 h -14.62939 v 22.54743 H 88.013913 v -22.54743 h -15.23924 v 59.121745 h 15.23924 v -22.55313 h 18.281077 v 22.55395 h 26.21127 c 6.3639,-12.18525 6.51615,-12.642 12.19171,-22.55395 4.17566,0.0542 7.93666,-0.0428 11.5754,0 v 22.55395 h 15.23921 V 71.030705 h -23.16374 c -9.92977,16.48316 -17.95794,34.861425 -28.03429,51.198035 z m 34.28319,-36.923375 h 1.82868 v 7.91887 h -4.87701 c 1.08522,-2.57215 2.0506,-4.66807 3.04833,-7.91887 z m -131.192416,11.93095 -0.152249,3.560145 0.152249,3.75454 c 2.670124,19.23185 21.561029,31.91677 43.273489,24.38259 v -18.28674 c -3.06048,2.31056 -6.40035,6.01649 -12.80152,6.09506 -22.157896,0.26171 -19.128192,-30.862355 -0.60901,-31.081825 6.64979,-0.0851 9.1863,2.26116 13.41053,6.69919 v -18.89007 c -20.62805,-8.90608 -40.968614,4.64456 -43.273489,23.76711 z M 212.34758,101.50267 C 203.83832,90.335435 197.84614,81.594565 189.19029,71.030705 h -12.80071 v 59.121745 h 15.23925 v -29.86863 c 8.93037,8.74087 14.21555,21.13424 23.15725,29.86863 h 12.80154 V 71.030705 h -15.23921 v 30.471965 z m 128.60167,15.84907 V 71.030705 h -15.23358 v 59.121745 h 32.30147 v -12.80071 z m -53.02104,12.80071 h 33.52111 v -13.40974 h -17.67854 v -8.53436 H 321.4485 V 93.578955 h -17.67772 v -8.52789 H 321.4485 V 71.030705 H 287.92741 V 130.15245 Z M 267.81279,101.50267 C 258.59573,89.927265 253.62234,82.612555 244.64905,71.030705 h -12.79508 v 59.121745 h 15.23358 v -29.86863 c 8.86962,10.36869 14.25118,19.20758 23.16374,29.86863 H 283.052 V 71.030705 h -15.23921 z"
       id="path3"
       style="fill:#ffffff;stroke-width:0.809864" /><path
       style="fill:#ba2025;stroke-width:1.3363;fill-opacity:1"
       d="m 388.15744,137.84297 c -12.97999,-1.94211 -15.14917,-3.72243 -17.41652,-14.29486 -1.93791,-9.0361 -1.7268,-43.446624 0.30202,-49.236812 2.40383,-6.860359 6.69925,-9.130444 20.30314,-10.730115 23.09641,-2.715899 71.40851,-1.033399 78.44392,2.731861 1.30603,0.698949 3.43314,3.207321 4.72695,5.574176 1.99912,3.657125 2.35235,7.915474 2.35235,28.35675 0,38.66927 0.55102,38.21153 -46.77051,38.85669 -19.94423,0.27173 -34.66932,-0.1697 -41.94135,-1.25769 z m 33.25541,-16.83232 v -11.97266 l 11.02446,-0.38789 11.02446,-0.38838 0.40406,-7.01557 0.40404,-7.01556 h -11.42835 -11.42841 v -6.013374 -6.013324 h 11.42841 11.42835 l -0.40404,-7.015612 -0.40406,-7.015562 h -19.3763 -19.37636 L 404.349,98.878692 c -0.19797,16.888278 -0.0667,31.470678 0.29193,32.405288 0.42779,1.11497 3.42364,1.69927 8.71185,1.69927 h 8.05972 z"
       id="path7908" /></g></svg>
