<?xml version="1.0" encoding="UTF-8" standalone="no"?>
<svg
   enable-background="new 0 0 559.249 81.18"
   viewBox="0 0 499.99998 200"
   version="1.1"
   id="svg49"
   sodipodi:docname="chip8.svg"
   width="500"
   height="200"
   inkscape:version="1.2.2 (b0a8486541, 2022-12-01)"
   xmlns:inkscape="http://www.inkscape.org/namespaces/inkscape"
   xmlns:sodipodi="http://sodipodi.sourceforge.net/DTD/sodipodi-0.dtd"
   xmlns="http://www.w3.org/2000/svg"
   xmlns:svg="http://www.w3.org/2000/svg">
  <defs
     id="defs53">
    <rect
       x="83.638153"
       y="41.480737"
       width="337.56025"
       height="138.51746"
       id="rect1219" />
  </defs>
  <sodipodi:namedview
     id="namedview51"
     pagecolor="#505050"
     bordercolor="#ffffff"
     borderopacity="1"
     inkscape:showpageshadow="0"
     inkscape:pageopacity="0"
     inkscape:pagecheckerboard="1"
     inkscape:deskcolor="#505050"
     showgrid="false"
     showguides="true"
     inkscape:zoom="1.2007174"
     inkscape:cx="445.56698"
     inkscape:cy="184.47306"
     inkscape:window-width="1670"
     inkscape:window-height="910"
     inkscape:window-x="0"
     inkscape:window-y="0"
     inkscape:window-maximized="1"
     inkscape:current-layer="svg49">
    <sodipodi:guide
       position="268.17301,120.04779"
       orientation="0,-1"
       id="guide2256"
       inkscape:locked="false" />
    <sodipodi:guide
       position="250.26705,75.074678"
       orientation="0,-1"
       id="guide2258"
       inkscape:locked="false" />
  </sodipodi:namedview>
  <linearGradient
     id="a"
     gradientUnits="userSpaceOnUse"
     x1="102.2983"
     x2="355.62921"
     y1="38.639503"
     y2="38.639503"
     gradientTransform="matrix(1.0993119,0,0,1.0993119,-2.5457669,61.730504)">
    <stop
       offset="0"
       stop-color="#f50019"
       id="stop2" />
    <stop
       offset=".2761"
       stop-color="#f66d19"
       id="stop4" />
    <stop
       offset=".4785"
       stop-color="#fbfa35"
       id="stop6" />
    <stop
       offset=".681"
       stop-color="#74b719"
       id="stop8" />
    <stop
       offset=".7914"
       stop-color="#17710a"
       id="stop10" />
    <stop
       offset=".8834"
       stop-color="#226887"
       id="stop12" />
    <stop
       offset="1"
       stop-color="#3262d9"
       id="stop14" />
  </linearGradient>
  <g
     id="path1327"
     transform="matrix(6.6306569,0,0,6.6306569,-509.04709,-247.34274)"
     style="font-weight:bold;font-size:18.6667px;font-family:DecoTech;-inkscape-font-specification:'DecoTech Bold';text-align:end;direction:rtl;text-anchor:end;white-space:pre;fill:#0000ff;stroke:#020202;stroke-width:0.0377953">
    <path
       style="color:#000000;-inkscape-font-specification:'Minecraft Bold';stroke:none;-inkscape-stroke:none;fill:#0000ff"
       d="m 94.138691,58.945147 h -1.166669 -1.166669 -1.166668 -1.166669 -1.166669 -1.166669 -1.166669 v -1.166669 -1.166669 h 1.166669 1.166669 1.166669 1.166669 1.166668 1.166669 1.166669 V 55.44514 54.278472 h 1.166669 1.166668 v 1.166668 1.166669 H 95.30536 v 1.166669 1.166669 z M 85.972009,56.611809 H 84.805341 83.638672 V 55.44514 54.278472 53.111803 51.945134 50.778465 49.611797 48.445128 47.278459 h 1.166669 1.166668 v 1.166669 1.166669 1.166668 1.166669 1.166669 1.166669 1.166668 z M 95.30536,49.611797 H 94.138691 V 48.445128 47.278459 H 92.972022 91.805353 90.638685 89.472016 88.305347 87.138678 85.972009 V 46.11179 44.945121 h 1.166669 1.166669 1.166669 1.166669 1.166668 1.166669 1.166669 1.166669 v 1.166669 1.166669 h 1.166668 v 1.166669 1.166669 z"
       id="path1340" />
    <path
       style="color:#000000;-inkscape-font-specification:'Minecraft Bold';fill:#0000ff;stroke:none;-inkscape-stroke:none"
       d="m 85.953125,44.925781 v 1.185547 1.148438 h -1.148438 -1.185546 v 1.185546 1.166016 1.167969 1.166015 1.166016 1.167969 1.166015 1.185547 h 1.185546 1.148438 v 1.148438 1.185547 h 1.185547 1.166015 1.167969 1.166016 1.166015 1.167969 1.166016 1.185547 v -1.185547 -1.148438 h 1.166015 v -1.185547 -1.185546 h -1.185547 -1.185546 v 1.185546 1.148438 h -1.146485 -1.167969 -1.166015 -1.166016 -1.167969 -1.166015 -1.148438 v -1.148438 -1.166015 -1.167969 -1.166016 -1.166015 -1.167969 -1.166016 -1.148437 h 1.148438 1.166015 1.167969 1.166016 1.166015 1.167969 1.146485 v 1.148437 1.185547 h 1.185546 1.185547 v -1.185547 -1.185546 h -1.166015 v -1.148438 -1.185547 h -1.185547 -1.166016 -1.167969 -1.166015 -1.166016 -1.167969 -1.166015 z m 0.03711,0.03906 h 1.148438 1.166015 1.167969 1.166016 1.166015 1.167969 1.166016 1.148437 v 1.146484 1.185547 h 1.166016 v 1.148437 1.148438 h -1.148438 -1.146484 v -1.148438 -1.185546 h -1.185547 -1.167969 -1.166015 -1.166016 -1.167969 -1.166015 -1.148438 v -1.148438 z m -2.332031,2.332031 h 1.146484 1.148438 v 1.148437 1.166016 1.167969 1.166015 1.166016 1.167969 1.166015 1.148438 h -1.148438 -1.146484 v -1.148438 -1.166015 -1.167969 -1.166016 -1.166015 -1.167969 -1.166016 z m 10.5,7 h 1.146484 1.148438 v 1.148437 1.148438 H 95.28711 v 1.185547 1.146484 h -1.148437 -1.166016 -1.167969 -1.166015 -1.166016 -1.167969 -1.166015 -1.148438 v -1.146484 -1.148438 h 1.148438 1.166015 1.167969 1.166016 1.166015 1.167969 1.185547 v -1.185547 z"
       id="path1342" />
  </g>
  <g
     id="path1329"
     transform="matrix(6.6306569,0,0,6.6306569,-509.04709,-247.34274)"
     style="font-weight:bold;font-size:18.6667px;font-family:DecoTech;-inkscape-font-specification:'DecoTech Bold';text-align:end;direction:rtl;text-anchor:end;white-space:pre;fill:#ffff00;stroke:#020202;stroke-width:0.0377953">
    <path
       style="color:#000000;-inkscape-font-specification:'Minecraft Bold';stroke:none;-inkscape-stroke:none;fill:#ffff00"
       d="m 108.13872,58.945147 h -1.16667 V 57.778478 56.611809 55.44514 54.278472 53.111803 h -1.16667 -1.16667 -1.16667 -1.16667 -1.16667 -1.166666 v 1.166669 1.166668 1.166669 1.166669 1.166669 H 98.805365 97.638697 V 57.778478 56.611809 55.44514 54.278472 53.111803 51.945134 50.778465 49.611797 48.445128 47.278459 46.11179 44.945121 h 1.166668 1.166669 v 1.166669 1.166669 1.166669 1.166669 1.166668 h 1.166666 1.16667 1.16667 1.16667 1.16667 1.16667 V 49.611797 48.445128 47.278459 46.11179 44.945121 h 1.16667 1.16666 v 1.166669 1.166669 1.166669 1.166669 1.166668 1.166669 1.166669 1.166669 1.166668 1.166669 1.166669 1.166669 z"
       id="path1346" />
    <path
       style="color:#000000;-inkscape-font-specification:'Minecraft Bold';fill:#ffff00;stroke:none;-inkscape-stroke:none"
       d="m 97.619141,44.925781 v 1.185547 1.167969 1.166015 1.166016 1.167969 1.166015 1.166016 1.167969 1.166015 1.166016 1.167969 1.185547 h 1.185546 1.185547 v -1.185547 -1.167969 -1.166016 -1.166015 -1.148438 h 1.148436 1.16602 1.16797 1.16601 1.16602 1.14844 v 1.148438 1.166015 1.166016 1.167969 1.185547 h 1.18554 1.18555 v -1.185547 -1.167969 -1.166016 -1.166015 -1.167969 -1.166016 -1.166015 -1.167969 -1.166016 -1.166015 -1.167969 -1.185547 h -1.18555 -1.18554 v 1.185547 1.167969 1.166015 1.166016 1.148438 h -1.14844 -1.16602 -1.16601 -1.16797 -1.16602 -1.148436 v -1.148438 -1.166016 -1.166015 -1.167969 -1.185547 h -1.185547 z m 0.03906,0.03906 h 1.146484 1.148438 v 1.146484 1.167969 1.166015 1.166016 1.185547 h 1.185547 1.16602 1.16797 1.16601 1.16602 1.18554 v -1.185547 -1.166016 -1.166015 -1.167969 -1.146484 h 1.14844 1.14844 v 1.146484 1.167969 1.166015 1.166016 1.167969 1.166015 1.166016 1.167969 1.166015 1.166016 1.167969 1.146484 h -1.14844 -1.14844 V 57.779297 56.611328 55.445312 54.279297 53.09375 h -1.18554 -1.16602 -1.16601 -1.16797 -1.16602 -1.185547 v 1.185547 1.166015 1.166016 1.167969 1.146484 h -1.148438 -1.146484 v -1.146484 -1.167969 -1.166016 -1.166015 -1.167969 -1.166016 -1.166015 -1.167969 -1.166016 -1.166015 -1.167969 z"
       id="path1348" />
  </g>
  <g
     id="path1331"
     transform="matrix(6.6306569,0,0,6.6306569,-509.04709,-247.34274)"
     style="font-weight:bold;font-size:18.6667px;font-family:DecoTech;-inkscape-font-specification:'DecoTech Bold';text-align:end;direction:rtl;text-anchor:end;white-space:pre;fill:#00ff00;stroke:#020202;stroke-width:0.0377953">
    <path
       style="color:#000000;-inkscape-font-specification:'Minecraft Bold';stroke:none;-inkscape-stroke:none;fill:#00ff00"
       d="m 115.13873,58.945147 h -1.16667 -1.16667 -1.16667 v -1.166669 -1.166669 h 1.16667 V 55.44514 54.278472 53.111803 51.945134 50.778465 49.611797 48.445128 47.278459 h -1.16667 V 46.11179 44.945121 h 1.16667 1.16667 1.16667 1.16667 v 1.166669 1.166669 h -1.16667 v 1.166669 1.166669 1.166668 1.166669 1.166669 1.166669 1.166668 1.166669 h 1.16667 v 1.166669 1.166669 z"
       id="path1352" />
    <path
       style="color:#000000;-inkscape-font-specification:'Minecraft Bold';fill:#00ff00;stroke:none;-inkscape-stroke:none"
       d="m 111.61914,44.925781 v 1.185547 1.185547 h 1.16797 v 1.148437 1.166016 1.167969 1.166015 1.166016 1.167969 1.166015 1.148438 h -1.16797 v 1.185547 1.185547 h 1.18555 1.16797 1.16601 1.18555 V 57.779297 56.59375 h -1.16602 v -1.148438 -1.166015 -1.167969 -1.166016 -1.166015 -1.167969 -1.166016 -1.148437 h 1.16602 v -1.185547 -1.185547 h -1.18555 -1.16601 -1.16797 z m 0.0391,0.03906 h 1.14649 1.16797 1.16601 1.14844 v 1.146484 1.148438 h -1.16797 v 1.185546 1.166016 1.167969 1.166015 1.166016 1.167969 1.166015 1.185547 h 1.16797 v 1.148438 1.146484 h -1.14844 -1.16601 -1.16797 -1.14649 v -1.146484 -1.148438 h 1.16602 v -1.185547 -1.166015 -1.167969 -1.166016 -1.166015 -1.167969 -1.166016 -1.185546 h -1.16602 v -1.148438 z"
       id="path1354" />
  </g>
  <g
     id="path1333"
     transform="matrix(6.6306569,0,0,6.6306569,-509.04709,-247.34274)"
     style="font-weight:bold;font-size:18.6667px;font-family:DecoTech;-inkscape-font-specification:'DecoTech Bold';text-align:end;direction:rtl;text-anchor:end;white-space:pre;fill:#ff0000;stroke:#020202;stroke-width:0.0377953">
    <path
       style="color:#000000;-inkscape-font-specification:'Minecraft Bold';stroke:none;-inkscape-stroke:none;fill:#ff0000"
       d="m 118.63873,58.945147 h -1.16667 V 57.778478 56.611809 55.44514 54.278472 53.111803 51.945134 50.778465 49.611797 48.445128 47.278459 46.11179 44.945121 h 1.16667 1.16667 1.16667 1.16667 1.16667 1.16667 1.16667 1.16667 v 1.166669 1.166669 h 1.16666 1.16667 v 1.166669 1.166669 h -1.16667 -1.16666 v -1.166669 -1.166669 h -1.16667 -1.16667 -1.16667 -1.16667 -1.16667 -1.16667 v 1.166669 1.166669 h 1.16667 1.16667 1.16667 1.16667 1.16667 1.16667 v 1.166668 1.166669 h -1.16667 -1.16667 -1.16667 -1.16667 -1.16667 -1.16667 v 1.166669 1.166669 1.166668 1.166669 1.166669 1.166669 z"
       id="path1358" />
    <path
       style="color:#000000;-inkscape-font-specification:'Minecraft Bold';fill:#ff0000;stroke:none;-inkscape-stroke:none"
       d="m 117.45313,44.925781 v 1.185547 1.167969 1.166015 1.166016 1.167969 1.166015 1.166016 1.167969 1.166015 1.166016 1.167969 1.185547 h 1.18554 1.18555 v -1.185547 -1.167969 -1.166016 -1.166015 -1.167969 -1.146484 h 1.14844 1.16601 1.16602 1.16797 1.16601 1.18555 v -1.185547 -1.148438 h 1.14844 1.18554 v -1.185547 -1.185546 h -1.18554 -1.14844 v -1.148438 -1.185547 h -1.18555 -1.16601 -1.16797 -1.16602 -1.16601 -1.16797 -1.16602 z m 0.0371,0.03906 h 1.14844 1.16602 1.16797 1.16601 1.16602 1.16797 1.16601 1.14844 v 1.146484 1.148438 h -1.14844 -1.16601 -1.16797 -1.16602 -1.16601 -1.18555 v 1.185546 1.185547 h 1.18555 1.16601 1.16602 1.16797 1.16601 1.14844 v 1.148438 1.146484 h -1.14844 -1.16601 -1.16797 -1.16602 -1.16601 -1.18555 v 1.185547 1.167969 1.166015 1.166016 1.167969 1.146484 h -1.14844 -1.14844 v -1.146484 -1.167969 -1.166016 -1.166015 -1.167969 -1.166016 -1.166015 -1.167969 -1.166016 -1.166015 -1.167969 z m 2.33399,2.332031 h 1.14844 1.16601 1.16602 1.16797 1.16601 1.14844 v 1.148437 1.148438 h -1.14844 -1.16601 -1.16797 -1.16602 -1.16601 -1.14844 v -1.148438 z m 7,0 h 1.14844 1.14648 v 1.148437 1.148438 h -1.14648 -1.14844 v -1.148438 z"
       id="path1360" />
  </g>
  <g
     id="path1335"
     transform="matrix(6.6306569,0,0,6.6306569,-509.04709,-247.34274)"
     style="font-weight:bold;font-size:18.6667px;font-family:DecoTech;-inkscape-font-specification:'DecoTech Bold';text-align:end;direction:rtl;text-anchor:end;white-space:pre;fill:#ffffff;stroke:#020202;stroke-width:0.0377953">
    <path
       style="color:#000000;-inkscape-font-specification:'Minecraft Bold';stroke:none;-inkscape-stroke:none"
       d="m 141.97211,58.945147 h -1.16667 -1.16667 -1.16667 v -1.166669 -1.166669 h 1.16667 1.16667 1.16667 1.16667 v 1.166669 1.166669 z m 1.16667,-2.333338 V 55.44514 54.278472 53.111803 h 1.16667 1.16667 v 1.166669 1.166668 1.166669 h -1.16667 z m -4.66668,0 h -1.16666 -1.16667 V 55.44514 54.278472 53.111803 h 1.16667 1.16666 v 1.166669 1.166668 z m 4.66668,-3.500006 h -1.16667 -1.16667 -1.16667 -1.16667 v -1.166669 -1.166669 h 1.16667 1.16667 1.16667 1.16667 v 1.166669 z m 0,-2.333338 v -1.166668 -1.166669 -1.166669 h 1.16667 1.16667 v 1.166669 1.166669 1.166668 h -1.16667 z m -4.66668,0 h -1.16666 -1.16667 v -1.166668 -1.166669 -1.166669 h 1.16667 1.16666 v 1.166669 1.166669 z m 4.66668,-3.500006 h -1.16667 -1.16667 -1.16667 -1.16667 V 46.11179 44.945121 h 1.16667 1.16667 1.16667 1.16667 v 1.166669 z"
       id="path1364" />
    <path
       style="color:#000000;-inkscape-font-specification:'Minecraft Bold';fill:#020202;stroke:none;-inkscape-stroke:none"
       d="m 138.45312,44.925781 v 1.185547 1.148438 h -1.14843 -1.18555 v 1.185546 1.166016 1.185547 h 1.18555 1.14843 v 1.148437 1.148438 h -1.14843 -1.18555 v 1.185547 1.166015 1.185547 h 1.18555 1.14843 v 1.148438 1.185547 h 1.18555 1.16602 1.16797 1.18554 v -1.185547 -1.148438 h 1.14649 1.18554 V 55.445312 54.279297 53.09375 h -1.18554 -1.14649 v -1.148438 -1.148437 h 1.14649 1.18554 v -1.185547 -1.166016 -1.185546 h -1.18554 -1.14649 v -1.148438 -1.185547 h -1.18554 -1.16797 -1.16602 z m 0.0371,0.03906 h 1.14844 1.16602 1.16797 1.14648 v 1.146484 1.148438 h -1.14648 -1.16797 -1.16602 -1.14844 v -1.148438 z m -2.33203,2.332031 h 1.14649 1.14843 v 1.148437 1.166016 1.148438 h -1.14843 -1.14649 v -1.148438 -1.166016 z m 2.33203,0 h 1.14844 1.16602 1.16797 1.14648 v 1.148437 1.166016 1.148438 h -1.14648 -1.16797 -1.16602 -1.14844 v -1.148438 -1.166016 z m 4.66797,0 h 1.14649 1.14843 v 1.148437 1.166016 1.148438 h -1.14843 -1.14649 v -1.148438 -1.166016 z m -4.66797,3.5 h 1.14844 1.16602 1.16797 1.14648 v 1.148437 1.148438 h -1.14648 -1.16797 -1.16602 -1.14844 v -1.148438 z m -2.33203,2.333984 h 1.14649 1.14843 v 1.148438 1.166015 1.148438 h -1.14843 -1.14649 v -1.148438 -1.166015 z m 2.33203,0 h 1.14844 1.16602 1.16797 1.14648 v 1.148438 1.166015 1.148438 h -1.14648 -1.16797 -1.16602 -1.14844 v -1.148438 -1.166015 z m 4.66797,0 h 1.14649 1.14843 v 1.148438 1.166015 1.148438 h -1.14843 -1.14649 v -1.148438 -1.166015 z m -4.66797,3.5 h 1.14844 1.16602 1.16797 1.14648 v 1.148438 1.146484 h -1.14648 -1.16797 -1.16602 -1.14844 v -1.146484 z"
       id="path1366" />
  </g>
</svg>
