<?xml version="1.0" encoding="UTF-8" standalone="no"?>
<!-- Created with Inkscape (http://www.inkscape.org/) -->

<svg
   xmlns:dc="http://purl.org/dc/elements/1.1/"
   xmlns:cc="http://creativecommons.org/ns#"
   xmlns:rdf="http://www.w3.org/1999/02/22-rdf-syntax-ns#"
   xmlns:svg="http://www.w3.org/2000/svg"
   xmlns="http://www.w3.org/2000/svg"
   xmlns:sodipodi="http://sodipodi.sourceforge.net/DTD/sodipodi-0.dtd"
   xmlns:inkscape="http://www.inkscape.org/namespaces/inkscape"
   width="500"
   height="200"
   viewBox="0 0 132.29166 52.916668"
   version="1.1"
   id="svg8"
   sodipodi:docname="custom-collections.svg"
   inkscape:version="0.92.5 (2060ec1f9f, 2020-04-08)">
  <defs
     id="defs2" />
  <sodipodi:namedview
     id="base"
     pagecolor="#ffffff"
     bordercolor="#666666"
     borderopacity="1.0"
     inkscape:pageopacity="0.0"
     inkscape:pageshadow="2"
     inkscape:zoom="1.1842658"
     inkscape:cx="418.62914"
     inkscape:cy="38.31421"
     inkscape:document-units="mm"
     inkscape:current-layer="layer1"
     showgrid="false"
     units="px"
     inkscape:pagecheckerboard="true"
     inkscape:window-width="1366"
     inkscape:window-height="740"
     inkscape:window-x="0"
     inkscape:window-y="0"
     inkscape:window-maximized="1" />
  <metadata
     id="metadata5">
    <rdf:RDF>
      <cc:Work
         rdf:about="">
        <dc:format>image/svg+xml</dc:format>
        <dc:type
           rdf:resource="http://purl.org/dc/dcmitype/StillImage" />
        <dc:title />
      </cc:Work>
    </rdf:RDF>
  </metadata>
  <g
     inkscape:label="Layer 1"
     inkscape:groupmode="layer"
     id="layer1"
     transform="translate(0,-244.08332)">
    <flowRoot
       xml:space="preserve"
       id="flowRoot10"
       style="fill:black;stroke:none;stroke-opacity:1;stroke-width:1px;stroke-linejoin:miter;stroke-linecap:butt;fill-opacity:1;font-family:Dymo;font-style:normal;font-weight:normal;font-size:40px;line-height:125%;letter-spacing:0px;word-spacing:0px;-inkscape-font-specification:Dymo;font-stretch:normal;font-variant:normal;"><flowRegion
         id="flowRegion12"
         style="-inkscape-font-specification:Dymo;font-family:Dymo;font-weight:normal;font-style:normal;font-stretch:normal;font-variant:normal;"><rect
           id="rect14"
           width="69.224487"
           height="121.46939"
           x="12.408163"
           y="37.387756"
           style="-inkscape-font-specification:Dymo;font-family:Dymo;font-weight:normal;font-style:normal;font-stretch:normal;font-variant:normal;" /></flowRegion><flowPara
         id="flowPara16" /></flowRoot>    <path
       inkscape:connector-curvature="0"
       id="path596"
       style="font-style:normal;font-variant:normal;font-weight:normal;font-stretch:normal;font-size:32.16995239px;line-height:125%;font-family:Dymo;-inkscape-font-specification:Dymo;letter-spacing:0px;word-spacing:0px;fill:#ff0000;fill-opacity:1;stroke:none;stroke-width:0.33510375px;stroke-linecap:butt;stroke-linejoin:miter;stroke-opacity:1;image-rendering:auto"
       d="m 3.1780449,264.99023 12.8951071,-0.95815 1.721307,22.62259 -12.895107,0.95815 z m 11.1465091,8.14236 q 0.546146,-0.0406 0.479049,-0.92242 -0.134196,-1.76368 -0.868178,-2.18667 -0.893431,-0.51346 -3.654501,-0.30831 -2.9431191,0.21869 -3.664898,1.15915 -0.5274551,0.68725 -0.2487424,4.35029 0.3122608,4.10394 1.1630743,4.85933 0.8508135,0.75539 3.6725671,0.54572 2.427313,-0.18035 3.359529,-0.76125 0.757909,-0.46562 0.64436,-1.95797 -0.07742,-1.01751 -0.532542,-0.98369 -0.485463,0.0361 -0.439011,0.64658 0.09032,1.18709 -0.129182,1.51038 -0.302787,0.4318 -3.063857,0.63696 -2.2452661,0.16683 -2.948907,-0.25841 -0.7036409,-0.42524 -1.0365471,-4.80052 -0.1987119,-2.6116 0.2680594,-3.29435 0.4971138,-0.685 3.1368177,-0.88114 2.184583,-0.16232 2.764277,0.23802 0.420246,0.30986 0.536376,1.83612 0.04645,0.61051 0.562256,0.57218 z m -5.4044596,-3.65737 q -0.00516,-0.0678 -0.5513037,-0.0272 -1.2136571,0.0902 -2.044526,0.79998 -0.8005275,0.70755 -0.8509611,2.45084 -0.00453,0.34143 0.132241,2.13902 0.278712,3.66303 0.6066051,4.76425 0.160076,0.49974 0.757835,1.1375 0.5977591,0.63776 1.793978,0.71942 0.6145698,0.0566 2.4653973,-0.0809 3.762337,-0.27955 4.273681,-1.57957 0.07554,-0.21026 -0.04583,-0.20124 -0.09361,-0.0272 -0.174307,0.11526 -0.289884,0.60139 -0.972253,0.85674 -0.831495,0.30055 -3.076761,0.46738 -1.7294617,0.1285 -1.8811691,0.13978 -1.2846627,-0.041 -2.0567276,-0.56346 -1.0302817,-0.70795 -1.3218979,-4.54057 -0.025807,-0.33917 -0.149604,-3.57029 -0.050286,-1.46294 0.8967865,-2.24959 0.6894843,-0.56286 1.7210935,-0.63951 0.4854626,-0.0361 0.4777214,-0.13782 z m 4.3309336,2.78209 q 0.151707,-0.0113 0.05748,-0.44768 -0.09165,-0.4025 -0.284022,-0.52464 -0.640378,-0.39583 -2.733936,-0.24027 -1.9418515,0.14429 -2.4796285,0.69588 -0.5074354,0.54933 -0.3913051,2.07559 0.294196,3.86653 0.5065854,3.85075 0.091024,-0.007 -0.1644615,-3.36454 -0.1445177,-1.89935 0.282216,-2.30625 0.3408716,-0.33231 2.3737477,-0.48336 2.214924,-0.16457 2.47572,0.0548 0.16203,0.1244 0.185256,0.42965 0.02065,0.27133 0.172352,0.26006 z m -4.6399549,6.7913 q 0.041291,0.54268 2.6506539,0.34879 0.788877,-0.0586 1.504168,-0.28231 0.715291,-0.22369 0.697226,-0.46111 -0.0052,-0.0678 -0.0355,-0.0655 0.151707,-0.0113 -0.624267,0.21692 -0.748213,0.19203 -1.931528,0.27996 -0.8799022,0.0654 -1.5880778,-0.0184 -0.6778342,-0.0861 -0.6171513,-0.0906 -0.060683,0.005 -0.055525,0.0723 z m 6.2352219,-8.68348 q -0.118783,0.043 -0.04262,0.24192 0.116832,0.33241 0.124574,0.43416 0.03355,0.44092 0.185255,0.42965 0.06068,-0.005 0.02713,-0.44543 -0.05678,-0.74617 -0.294345,-0.6603 z m 0.916987,7.64042 q -0.03871,-0.50875 -0.190417,-0.49748 -0.151707,0.0113 -0.112997,0.52003 0.0671,0.88184 0.218804,0.87056 0.151707,-0.0113 0.08461,-0.89311 z m -2.03929,-0.7353 q -0.151708,0.0113 -0.115578,0.48611 0.03613,0.47484 0.218178,0.46131 0.151707,-0.0113 0.141384,-0.14694 -0.09939,-0.50425 -0.08649,-0.33466 -0.03613,-0.47484 -0.157495,-0.46582 z m -0.409074,-4.57427 q -0.09102,0.007 -0.0678,0.31201 0.02323,0.30526 0.114251,0.29849 0.182048,-0.0135 0.158822,-0.31878 -0.02323,-0.30525 -0.205275,-0.29172 z" />
    <path
       inkscape:connector-curvature="0"
       id="path598"
       style="font-style:normal;font-variant:normal;font-weight:normal;font-stretch:normal;font-size:32.16995239px;line-height:125%;font-family:Dymo;-inkscape-font-specification:Dymo;letter-spacing:0px;word-spacing:0px;fill:#ffffff;fill-opacity:1;stroke:none;stroke-width:0.33510375px;stroke-linecap:butt;stroke-linejoin:miter;stroke-opacity:1;image-rendering:auto"
       d="m 15.648351,264.06364 12.561351,-0.93335 1.721307,22.62259 -12.561351,0.93335 z m 11.599601,10.08699 q -0.265808,-3.49343 -1.046243,-4.52692 -0.914703,-1.19406 -3.61509,-0.99341 -2.54868,0.18937 -3.141979,0.8133 -0.95935,1.02633 -0.683217,4.65545 0.268389,3.52735 0.785446,4.30754 0.831422,1.30257 3.956589,1.07036 2.427314,-0.18035 3.073553,-0.91055 0.929009,-1.02407 0.670941,-4.41577 z m -0.726239,-0.32122 q 0.237421,3.12035 -0.04988,3.75566 -0.468725,1.05808 -3.078088,1.25197 -2.1239,0.15781 -2.810103,-0.43927 -0.881154,-0.75313 -1.09277,-3.53432 -0.283873,-3.73086 0.122216,-4.4091 0.433849,-0.71441 3.134236,-0.91506 2.487997,-0.18487 3.179988,0.88931 0.382789,0.61962 0.594404,3.40081 z m -3.725359,-3.6457 -1.638437,0.12175 q -1.729462,0.1285 -1.420407,3.78928 0.177439,1.931 0.342049,2.08931 0.123949,0.0249 0.171726,-0.14919 -0.195579,-0.56532 -0.238122,-1.9265 -0.04254,-1.36118 0.04465,-2.22038 0.114951,-0.89537 1.133657,-1.1416 0.149124,-0.0452 1.696537,-0.1602 1.213657,-0.0902 1.686843,0.11342 0.379581,0.17645 0.340871,-0.33231 -0.02581,-0.33917 -2.119365,-0.18361 z m 2.573159,0.9344 q -0.159448,-0.0905 -0.151707,0.0113 -0.0226,0.10399 0.08133,0.26683 0.134269,0.16056 0.183301,0.80499 l 0.2845,4.14011 q 0.123873,1.62801 -1.939344,1.78132 -0.121366,0.009 -0.14655,0.0791 -0.02518,0.0701 0.09877,0.095 0.40218,0.0724 0.938001,-0.10384 1.101988,-0.35475 1.320866,-1.0873 0.100721,-0.28035 0.03878,-1.09436 l -0.312261,-4.10394 q -0.04387,-0.57659 -0.395692,-0.78921 z m -4.573558,8.867 q -0.250472,-0.0837 -0.273073,0.0203 -0.02002,0.13792 0.167192,0.19223 1.224606,0.45474 2.923726,0.32849 3.671313,-0.27279 3.996774,-2.41171 0.01744,-0.17184 -0.04583,-0.20125 -0.09361,-0.0272 -0.143966,0.11302 -0.61918,1.88787 -3.865712,2.1291 -1.69912,0.12625 -2.759116,-0.17018 z m -2.598892,-2.87668 q 0.03808,0.0995 0.159449,0.0905 0.08844,-0.0407 0.07812,-0.17635 -0.267838,-1.51499 -0.3304,-2.73825 -0.177366,-3.53413 0.501796,-4.23266 0.199486,-0.18536 0.04262,-0.24192 -0.129107,-0.0927 -0.267915,0.0881 -0.814758,1.32256 -0.582497,4.37509 0.147098,1.93326 0.398824,2.83549 z m 9.490602,-4.79822 q -0.02065,-0.27134 -0.11167,-0.26457 -0.118783,0.043 -0.100721,0.28035 0.203873,2.67943 0.203172,3.87329 0.0129,0.16958 0.106509,0.19674 0.09102,-0.007 0.111043,-0.14469 0.0549,-0.4816 -0.208333,-3.94112 z m -5.167336,5.87544 q -0.303414,0.0225 -0.295673,0.12429 0.01032,0.13567 0.313737,0.11312 0.333756,-0.0248 0.323433,-0.16047 -0.0077,-0.10174 -0.341497,-0.0769 z m -3.739736,0.17556 q -0.06068,0.005 -0.05294,0.10625 0.01548,0.2035 0.220758,0.49523 0.233036,0.25555 0.313737,0.11312 0,0 -0.240777,-0.3573 -0.210436,-0.35956 -0.240777,-0.35731 z" />
    <path
       inkscape:connector-curvature="0"
       id="path600"
       style="font-style:normal;font-variant:normal;font-weight:normal;font-stretch:normal;font-size:32.16995239px;line-height:125%;font-family:Dymo;-inkscape-font-specification:Dymo;letter-spacing:0px;word-spacing:0px;fill:#ffffff;fill-opacity:1;stroke:none;stroke-width:0.33510375px;stroke-linecap:butt;stroke-linejoin:miter;stroke-opacity:1;image-rendering:auto"
       d="m 27.78491,263.16186 11.04428,-0.82063 1.721307,22.62259 -11.04428,0.82062 z m 4.521904,5.29193 q -0.05419,-0.71225 -0.903755,-0.64913 -0.63717,0.0473 -0.256335,1.04231 0.152333,0.39799 0.142638,0.67158 0.01611,0.61276 0.03418,0.85017 l 0.557498,5.72294 q 0.07226,0.94968 0.111596,1.86769 0.08712,0.74392 0.539658,0.67619 0.182048,-0.0135 0.973508,-0.0382 1.094874,-0.0472 2.520922,-0.15317 1.456388,-0.10821 1.830808,4e-4 0.371839,0.0747 0.280814,0.0815 0.364097,-0.0271 0.307322,-0.77323 -0.03871,-0.50875 -0.46349,-0.47719 -1.307264,0.063 -2.278189,0.13514 -1.577755,0.11723 -2.234944,0.3025 -0.65977,0.15133 -0.781136,0.16035 -0.364097,0.0271 -0.122619,-0.8095 0.03292,0.0317 0.06327,0.0294 0.333756,-0.0248 -0.321734,-8.63969 z m -1.591285,-0.46161 q -0.151707,0.0113 0.237974,5.13274 0.387101,5.08753 0.538808,5.07626 0.121366,-0.009 -0.265734,-5.09655 -0.0929,-1.22101 -0.225146,-3.36004 -0.08774,-1.15317 -0.14131,-1.45617 -0.05357,-0.303 -0.144592,-0.29624 z m 2.431552,5.89067 q -0.01032,-0.13567 -0.131689,-0.12665 -0.149123,0.0452 -0.138803,0.18086 l 0.178067,2.34027 q 0.0129,0.16958 0.194951,0.15606 0.179466,-0.0475 0.136223,-0.21478 -0.09681,-0.47032 -0.238749,-2.33576 z m 0.406567,2.93725 q 0.01807,0.23742 1.231722,0.14724 2.609363,-0.19388 2.983783,-0.0853 0.594551,0.19459 0.576487,-0.0428 -0.02323,-0.30526 -0.632636,-0.29408 -4.169678,0.13927 -4.159358,0.27491 z m -1.184717,2.47564 q 0.01807,0.23742 0.440264,0.17194 1.175574,-0.18966 1.145234,-0.18741 0.515804,-0.0383 1.312421,0.005 0.796619,0.0431 1.039351,0.0251 2.002534,-0.1488 1.98705,-0.3523 -0.01032,-0.13567 -0.7992,-0.077 -4.015391,0.16192 -4.015391,0.16192 -1.125216,0.0495 -1.10973,0.253 z" />
    <path
       inkscape:connector-curvature="0"
       id="path602"
       style="font-style:normal;font-variant:normal;font-weight:normal;font-stretch:normal;font-size:32.16995239px;line-height:125%;font-family:Dymo;-inkscape-font-specification:Dymo;letter-spacing:0px;word-spacing:0px;fill:#ffffff;fill-opacity:1;stroke:none;stroke-width:0.33510375px;stroke-linecap:butt;stroke-linejoin:miter;stroke-opacity:1;image-rendering:auto"
       d="m 38.404365,262.3728 11.044281,-0.82063 1.721307,22.62259 -11.044281,0.82062 z m 4.521903,5.29193 q -0.05419,-0.71225 -0.903754,-0.64913 -0.63717,0.0473 -0.256336,1.04231 0.152334,0.39798 0.142638,0.67157 0.01611,0.61276 0.03418,0.85018 l 0.557499,5.72294 q 0.07226,0.94968 0.111595,1.86769 0.08712,0.74392 0.539657,0.67619 0.182049,-0.0135 0.973509,-0.0382 1.094875,-0.0472 2.520922,-0.15317 1.456389,-0.10822 1.830808,4e-4 0.371838,0.0747 0.280815,0.0815 0.364096,-0.0271 0.307322,-0.77323 -0.03871,-0.50875 -0.46349,-0.47719 -1.307265,0.063 -2.278191,0.13514 -1.577754,0.11723 -2.234943,0.30249 -0.65977,0.15134 -0.781136,0.16036 -0.364096,0.0271 -0.122619,-0.8095 0.03292,0.0317 0.06327,0.0294 0.333756,-0.0248 -0.321735,-8.6397 z m -1.591284,-0.46161 q -0.151707,0.0113 0.237975,5.13274 0.3871,5.08753 0.538807,5.07626 0.121366,-0.009 -0.265734,-5.09655 -0.0929,-1.22102 -0.225145,-3.36004 -0.08774,-1.15318 -0.141311,-1.45617 -0.05357,-0.303 -0.144592,-0.29624 z m 2.431552,5.89067 q -0.01032,-0.13567 -0.131688,-0.12665 -0.149125,0.0452 -0.138804,0.18086 l 0.178066,2.34027 q 0.0129,0.16958 0.194952,0.15606 0.179466,-0.0475 0.136224,-0.21478 -0.09681,-0.47033 -0.23875,-2.33576 z m 0.406568,2.93725 q 0.01806,0.23742 1.231721,0.14724 2.609363,-0.19388 2.983783,-0.0853 0.594552,0.19458 0.576487,-0.0428 -0.02323,-0.30526 -0.632635,-0.29409 -4.169679,0.13928 -4.159359,0.27492 z m -1.184718,2.47564 q 0.01807,0.23742 0.440264,0.17194 1.175575,-0.18967 1.145233,-0.18741 0.515804,-0.0383 1.312423,0.005 0.796618,0.0431 1.03935,0.0251 2.002534,-0.14879 1.98705,-0.35229 -0.01032,-0.13567 -0.7992,-0.077 -4.015391,0.16192 -4.015391,0.16192 -1.125216,0.0495 -1.109729,0.253 z" />
    <path
       inkscape:connector-curvature="0"
       id="path604"
       style="font-style:normal;font-variant:normal;font-weight:normal;font-stretch:normal;font-size:32.16995239px;line-height:125%;font-family:Dymo;-inkscape-font-specification:Dymo;letter-spacing:0px;word-spacing:0px;fill:#ffffff;fill-opacity:1;stroke:none;stroke-width:0.33510375px;stroke-linecap:butt;stroke-linejoin:miter;stroke-opacity:1;image-rendering:auto"
       d="m 49.023819,261.58373 12.257936,-0.9108 1.721307,22.62259 -12.257936,0.9108 z m 10.524344,4.77772 q -0.03613,-0.47484 -0.769485,-0.48856 0.151707,-0.0113 -1.092291,0.0812 -3.003802,0.22319 -4.515715,0.40371 -1.059367,0.11285 -1.025821,0.55374 0.01032,0.13567 0.172353,0.26006 0.192371,0.12214 0.218178,0.46131 l 0.612872,8.85683 q -0.507435,0.54934 -0.499693,0.65109 0.0355,0.0655 0.09618,0.061 0.369255,0.0407 0.480928,0.30535 0.11167,0.26457 0.142011,0.26232 0.09102,-0.007 0.105882,-0.21252 0.0452,-0.20801 0.09556,-0.34819 l 5.585407,-0.38087 q 0.364097,-0.0271 0.594552,0.19458 0.227873,0.18772 0.288556,0.18321 0.455122,-0.0338 0.395767,-0.81391 -0.03355,-0.44092 -0.579696,-0.40034 -5.643505,0.41933 -5.643505,0.41933 -0.300831,0.0565 -0.462862,-0.0679 -0.13427,-0.16057 -0.08649,-0.33466 0.07296,-0.24418 0.01556,-1.39961 -0.04966,-1.05368 0.07882,-1.37021 0.02776,-0.0362 0.0226,-0.10399 -0.0026,-0.034 -0.194952,-0.15606 -0.16203,-0.1244 -0.180095,-0.36182 -0.03613,-0.47482 0.297628,-0.49962 0.151706,-0.0113 0.222711,0.11987 0.07101,0.13116 0.131689,0.12665 0.09102,-0.007 0.207232,-0.0836 0.146549,-0.0791 0.267914,-0.0881 l 2.609363,-0.19389 q 1.365364,-0.10145 1.27434,-0.0947 0.452539,-0.0678 0.416413,-0.54256 -0.03097,-0.40701 -1.244626,-0.31683 -0.182048,0.0135 -1.630696,0.22348 -1.448647,0.20996 -2.267865,0.27083 -0.333757,0.0248 -0.364725,-0.38221 -0.0052,-0.0678 -6.26e-4,-0.40925 0.03488,-0.34368 -0.0219,-1.08986 -0.02323,-0.30525 -0.173606,-1.07858 -0.122619,-0.80949 -0.132942,-0.94516 -0.04129,-0.54267 0.262124,-0.56522 0.182048,-0.0135 0.344078,0.11087 0.159449,0.0905 0.250473,0.0837 0.151708,-0.0113 0.384116,-0.16498 l 4.46019,-0.33141 q 0.09102,-0.007 0.427363,0.002 0.245314,0.0159 0.333756,-0.0248 0.113624,-0.11076 0.09298,-0.38211 z m -0.446349,5.76342 q -0.0052,-0.0678 -0.300831,0.0565 -0.411877,0.20114 -0.684949,0.22143 l -3.307216,0.24574 q -0.212391,0.0158 -0.24789,-0.0498 -0.03808,-0.0995 -0.129106,-0.0927 -0.06068,0.005 -0.105882,0.21252 -0.04778,0.1741 -0.169146,0.18311 -0.09102,0.007 -0.217548,-0.052 0.0032,0.44318 0.0038,0.85244 0.176813,1.52175 0.176813,1.52175 0.0129,0.16959 0.13685,0.19448 0.15429,0.0227 0.136223,-0.21477 l -0.121918,-2.00336 q 0.326014,-0.12654 1.145233,-0.18741 0.546145,-0.0406 1.458972,-0.0743 0.943167,-0.0359 1.034191,-0.0427 1.243999,-0.0924 1.192385,-0.77077 z m -7.336541,-5.38978 q -0.151707,0.0113 0.237975,5.13274 0.389681,5.12145 0.541388,5.11018 0.121366,-0.009 0.06459,-0.75519 0.05161,0.67834 -0.332906,-4.37528 -0.0929,-1.22101 -0.225145,-3.36004 -0.08774,-1.15317 -0.141311,-1.45617 -0.05357,-0.303 -0.144592,-0.29624 z m 1.703763,11.16339 q 0.01548,0.2035 0.437683,0.13802 0.963184,-0.17389 1.114891,-0.18516 0.424781,-0.0316 1.406029,0.032 1.011589,0.0613 1.770125,0.005 1.972193,-0.14654 1.954128,-0.38396 -0.01806,-0.23742 -5.606048,0.10957 -1.092291,0.0812 -1.076807,0.28467 z m 0.723477,-9.74063 4.37175,-0.29069 q 0.910242,-0.0676 1.298892,-0.57404 0.249848,-0.32554 -0.08391,-0.30074 0,0 -0.257589,0.22379 -0.229828,0.18762 -0.925101,0.27339 0.199487,-0.18536 -0.0129,-0.16958 l -4.49569,0.26587 q -0.273072,0.0203 -0.247265,0.35946 0.01807,0.23742 0.35182,0.21262 z m 0.719455,7.45045 q -0.242731,0.018 -0.232408,0.15371 0.0129,0.16958 0.285976,0.14929 0.576487,-0.0428 2.30079,-0.23913 1.724304,-0.1963 1.815328,-0.20306 0.364097,-0.027 0.859882,0.0725 0.24789,0.0498 0.234991,-0.11977 -0.01807,-0.23742 -0.624894,-0.19233 z m -0.662753,-5.10116 q -0.182049,0.0135 -0.169146,0.18311 0.01807,0.23742 0.415084,0.24203 0.788877,-0.0586 1.547413,-0.11498 2.217507,-0.13063 2.196859,-0.40199 -0.03292,-0.0317 -0.214972,-0.0182 l -3.211034,0.30677 q -0.273073,0.0203 -0.40218,-0.0724 -0.131688,-0.12665 -0.162029,-0.12439 z m -0.349166,-1.78182 q -0.02065,-0.27133 -0.11167,-0.26457 -0.182049,0.0135 -0.153662,0.38661 0.08,1.05143 0.229755,1.4155 0.09361,0.0272 0.174307,-0.11527 z" />
    <path
       inkscape:connector-curvature="0"
       id="path606"
       style="font-style:normal;font-variant:normal;font-weight:normal;font-stretch:normal;font-size:32.16995239px;line-height:125%;font-family:Dymo;-inkscape-font-specification:Dymo;letter-spacing:0px;word-spacing:0px;fill:#ffffff;fill-opacity:1;stroke:none;stroke-width:0.33510375px;stroke-linecap:butt;stroke-linejoin:miter;stroke-opacity:1;image-rendering:auto"
       d="m 60.856956,260.70449 12.895107,-0.95815 1.721307,22.62259 -12.895107,0.95815 z m 11.146509,8.14236 q 0.546146,-0.0406 0.479048,-0.92242 -0.134195,-1.76368 -0.868177,-2.18667 -0.893431,-0.51346 -3.654501,-0.3083 -2.943119,0.21868 -3.664898,1.15914 -0.527455,0.68726 -0.248742,4.35029 0.312261,4.10394 1.163073,4.85933 0.850814,0.75539 3.672567,0.54573 2.427314,-0.18036 3.35953,-0.76126 0.757909,-0.46562 0.644359,-1.95796 -0.07742,-1.01751 -0.532541,-0.9837 -0.485463,0.0361 -0.439011,0.64658 0.09032,1.1871 -0.129182,1.51038 -0.302787,0.43181 -3.063857,0.63696 -2.245267,0.16683 -2.948907,-0.25841 -0.70364,-0.42523 -1.036547,-4.80051 -0.198711,-2.61161 0.26806,-3.29436 0.497113,-0.685 3.136817,-0.88114 2.184582,-0.16232 2.764277,0.23802 0.420246,0.30986 0.536376,1.83612 0.04645,0.61051 0.562256,0.57218 z m -5.40446,-3.65737 q -0.0052,-0.0678 -0.551304,-0.0272 -1.213657,0.0902 -2.044526,0.79998 -0.800526,0.70755 -0.850961,2.45084 -0.0045,0.34143 0.132241,2.13903 0.278712,3.66302 0.606605,4.76424 0.160076,0.49974 0.757835,1.1375 0.59776,0.63776 1.793979,0.71942 0.61457,0.0567 2.465397,-0.0809 3.762337,-0.27956 4.273681,-1.57957 0.07554,-0.21027 -0.04583,-0.20125 -0.09361,-0.0272 -0.174308,0.11527 -0.289883,0.60138 -0.972252,0.85674 -0.831496,0.30054 -3.076761,0.46737 -1.729461,0.12851 -1.881169,0.13978 -1.284662,-0.041 -2.056728,-0.56346 -1.030282,-0.70795 -1.321898,-4.54057 -0.02581,-0.33917 -0.149604,-3.57029 -0.05029,-1.46293 0.896787,-2.24959 0.689484,-0.56286 1.721093,-0.63951 0.485463,-0.0361 0.477721,-0.13781 z m 4.330935,2.7821 q 0.151706,-0.0113 0.05747,-0.44769 -0.09165,-0.40249 -0.284021,-0.52463 -0.640378,-0.39584 -2.733937,-0.24028 -1.941851,0.14429 -2.479628,0.69588 -0.507435,0.54933 -0.391305,2.0756 0.294196,3.86652 0.506586,3.85074 0.09103,-0.007 -0.164461,-3.36453 -0.144518,-1.89935 0.282217,-2.30626 0.34087,-0.3323 2.373746,-0.48335 2.214924,-0.16458 2.475721,0.0548 0.16203,0.1244 0.185256,0.42965 0.02065,0.27134 0.172352,0.26007 z m -4.639955,6.7913 q 0.04129,0.54267 2.650653,0.34878 0.788877,-0.0586 1.504168,-0.2823 0.715291,-0.2237 0.697226,-0.46111 -0.0052,-0.0678 -0.0355,-0.0655 0.151707,-0.0113 -0.624267,0.21693 -0.748213,0.19203 -1.931529,0.27995 -0.879901,0.0654 -1.588076,-0.0184 -0.677834,-0.0861 -0.617152,-0.0906 -0.06068,0.005 -0.05552,0.0723 z m 6.235221,-8.68349 q -0.118783,0.043 -0.04262,0.24193 0.116832,0.3324 0.124574,0.43415 0.03355,0.44092 0.185256,0.42965 0.06068,-0.005 0.02713,-0.44543 -0.05678,-0.74617 -0.294345,-0.6603 z m 0.916986,7.64042 q -0.03871,-0.50875 -0.190416,-0.49748 -0.151707,0.0113 -0.112997,0.52003 0.0671,0.88184 0.218804,0.87057 0.151707,-0.0113 0.08461,-0.89312 z m -2.03929,-0.7353 q -0.151706,0.0113 -0.115577,0.48611 0.03613,0.47484 0.218177,0.46131 0.151708,-0.0113 0.141385,-0.14694 -0.09939,-0.50424 -0.08649,-0.33466 -0.03613,-0.47483 -0.157495,-0.46582 z m -0.409073,-4.57427 q -0.09103,0.007 -0.0678,0.31202 0.02323,0.30525 0.114251,0.29849 0.182048,-0.0135 0.158822,-0.31878 -0.02323,-0.30525 -0.205274,-0.29173 z" />
    <path
       inkscape:connector-curvature="0"
       id="path608"
       style="font-style:normal;font-variant:normal;font-weight:normal;font-stretch:normal;font-size:32.16995239px;line-height:125%;font-family:Dymo;-inkscape-font-specification:Dymo;letter-spacing:0px;word-spacing:0px;fill:#ffffff;fill-opacity:1;stroke:none;stroke-width:0.33510375px;stroke-linecap:butt;stroke-linejoin:miter;stroke-opacity:1;image-rendering:auto"
       d="m 73.327262,259.77791 11.195987,-0.8319 1.721307,22.62259 -11.195987,0.83189 z m 6.914968,5.86451 q 1.451231,-0.176 2.902455,-0.35209 0.48288,-0.07 0.464818,-0.30741 -0.05161,-0.67834 -1.325954,-0.58365 l -6.346517,0.40339 q -0.879901,0.0654 -0.823126,0.81155 0.02065,0.27134 0.630054,0.26017 0.212391,-0.0158 2.791412,-0.20742 0.07812,-0.17634 0.50032,-0.24182 0.422197,-0.0655 0.435102,0.1041 0.01548,0.2035 -0.0452,0.20801 -0.03034,0.002 -0.187207,-0.0543 -0.126524,-0.0588 -0.247889,-0.0498 -0.209808,0.0497 -0.227248,0.22154 0.0129,0.16958 0.255635,0.15155 0.129107,0.0927 0.09165,0.40249 -0.01486,0.20576 -0.06006,0.41377 l 0.170249,3.84162 0.301939,3.96829 q 0.02065,0.27134 -0.105255,0.62178 -0.128481,0.31652 -0.123319,0.38436 0.0052,0.0678 0.101347,0.1289 0.09618,0.061 0.301461,0.3528 0.134269,0.16056 0.407341,0.14027 0.546146,-0.0406 0.507436,-0.54933 l -0.715547,-8.20113 q -0.01548,-0.2035 0.03488,-0.34368 0.07812,-0.17635 0.0549,-0.4816 -0.06452,-0.84793 -0.287229,-0.96781 -0.06584,-0.0633 0.04778,-0.1741 0.113623,-0.11076 0.265331,-0.12203 0.182049,-0.0135 0.230455,0.22164 z m -1.203152,10.25379 q 0.182048,-0.0135 0.09172,-1.20062 l -0.429644,-6.44872 q -0.118711,-1.56018 -0.422126,-1.53764 -0.151708,0.0113 -0.128482,0.31653 0.01549,0.2035 0.08391,0.30074 0.06584,0.0633 0.08391,0.30074 -0.0052,-0.0678 0.130286,2.51437 0.125125,2.44652 0.258694,3.80094 0.18002,1.96493 0.331728,1.95366 z m 1.359246,-7.40025 q 0.05099,0.26908 0.167192,0.19223 0.08844,-0.0407 0.105881,-0.21252 -0.01353,-0.57885 -0.02964,-1.19161 -0.01869,-0.64667 0.191118,-0.69637 0.755953,-0.0903 1.509331,-0.21447 0.877317,-0.0993 1.193011,-0.36151 0.113625,-0.11076 0.141385,-0.14694 -0.03293,-0.0317 -0.06584,-0.0633 -0.06068,0.005 -0.176891,0.0813 -0.08844,0.0407 -0.323433,0.16046 -0.118782,0.043 -0.126523,-0.0588 -0.0077,-0.10174 0.01228,-0.23967 -0.0077,-0.10174 -0.123949,-0.0249 -0.351194,0.19664 -0.988364,0.24399 -0.849559,0.0631 -1.001267,0.0744 -0.08844,0.0407 -0.08587,0.0746 0.0026,0.034 -0.02776,0.0362 -0.303414,0.0226 -0.328597,0.0926 -0.224668,0.25546 -0.144667,1.30688 0.03097,0.40701 0.102601,0.94743 z m -2.713843,-1.98131 q 0.182049,-0.0135 0.351193,-0.19664 0.0226,-0.104 0.01744,-0.17184 -0.852143,0.0292 -2.422156,0.24815 -0.27049,0.0542 -0.293092,0.15821 0.0077,0.10174 0.16203,0.1244 0,0 2.184583,-0.16233 z m 2.949384,3.87388 q -0.121365,0.009 -0.0362,1.12828 0.08258,1.08534 0.203947,1.07633 0.121366,-0.009 0.03879,-1.09436 -0.08516,-1.11926 -0.206529,-1.11025 z" />
    <path
       inkscape:connector-curvature="0"
       id="path610"
       style="font-style:normal;font-variant:normal;font-weight:normal;font-stretch:normal;font-size:32.16995239px;line-height:125%;font-family:Dymo;-inkscape-font-specification:Dymo;letter-spacing:0px;word-spacing:0px;fill:#ffffff;fill-opacity:1;stroke:none;stroke-width:0.33510375px;stroke-linecap:butt;stroke-linejoin:miter;stroke-opacity:1;image-rendering:auto"
       d="m 84.098456,258.97757 6.79648,-0.505 1.721307,22.62259 -6.79648,0.505 z m 4.025491,4.78308 q -0.278232,-0.0475 -0.333756,0.0248 l -0.333129,0.43406 q -0.166565,0.21703 0.122619,0.8095 0,0 0.118711,1.56018 0.02581,0.33917 0.25486,2.94852 0.256814,2.57317 0.231007,2.234 0.206454,2.71336 0.143891,1.49009 0.04192,0.95193 -0.180169,1.2413 -0.02776,0.0362 -0.02002,0.13793 0.02065,0.27133 0.286603,0.55855 0.265957,0.28722 0.599714,0.26242 0.424779,-0.0316 0.337663,-0.77548 -0.54913,-5.21193 -0.433552,-5.69804 -0.105808,-1.3906 -0.348391,-4.5788 -0.02065,-0.27133 -0.218178,-0.46131 -0.200113,-0.22389 -0.227874,-0.18772 z m -1.026595,3.35072 q 0.02065,0.27134 0.202694,0.25781 0.212389,-0.0158 0.108461,-0.1786 -0.08133,-0.26683 -0.04645,-0.61051 0.04262,-0.24193 -0.07875,-0.23291 -0.242731,0.018 -0.185956,0.76421 z m 0.687159,7.82805 q 0.01032,0.13566 0.159448,0.0905 0.149124,-0.0452 0.0807,-0.14243 -0.07359,-0.16507 -0.09423,-0.43641 -0.02065,-0.27133 -0.01158,-0.95418 0.03683,-0.71902 0.0084,-1.09211 -0.03097,-0.407 -0.112296,-0.67383 -0.224518,-2.95077 -0.298731,-3.5251 -0.05357,-0.303 -0.174932,-0.29398 -0.05294,0.10625 -0.105882,0.21252 z" />
    <path
       inkscape:connector-curvature="0"
       id="path612"
       style="font-style:normal;font-variant:normal;font-weight:normal;font-stretch:normal;font-size:32.16995239px;line-height:125%;font-family:Dymo;-inkscape-font-specification:Dymo;letter-spacing:0px;word-spacing:0px;fill:#ffffff;fill-opacity:1;stroke:none;stroke-width:0.33510375px;stroke-linecap:butt;stroke-linejoin:miter;stroke-opacity:1;image-rendering:auto"
       d="m 90.470129,258.50414 12.561351,-0.93336 1.72131,22.62259 -12.561354,0.93335 z m 11.599601,10.08698 q -0.26581,-3.49343 -1.04624,-4.52692 -0.91471,-1.19406 -3.615094,-0.99341 -2.54868,0.18937 -3.141978,0.81331 -0.95935,1.02632 -0.683218,4.65544 0.26839,3.52735 0.785447,4.30754 0.831421,1.30257 3.956588,1.07036 2.427315,-0.18035 3.073555,-0.91055 0.92901,-1.02407 0.67094,-4.41577 z m -0.72624,-0.32122 q 0.23742,3.12035 -0.0499,3.75566 -0.46873,1.05809 -3.07809,1.25197 -2.1239,0.15781 -2.810102,-0.43927 -0.881155,-0.75313 -1.092771,-3.53432 -0.283873,-3.73086 0.122215,-4.4091 0.433849,-0.71441 3.134237,-0.91506 2.488001,-0.18486 3.179991,0.88931 0.38279,0.61962 0.5944,3.40081 z m -3.725358,-3.6457 -1.638437,0.12175 q -1.729462,0.1285 -1.420408,3.78928 0.177439,1.931 0.34205,2.08931 0.123949,0.0249 0.171726,-0.14919 -0.195579,-0.56532 -0.238122,-1.92649 -0.04254,-1.36119 0.04465,-2.22039 0.11495,-0.89537 1.133656,-1.1416 0.149123,-0.0452 1.696536,-0.1602 1.213657,-0.0902 1.686843,0.11342 0.379582,0.17645 0.340872,-0.33231 -0.02581,-0.33917 -2.119366,-0.18361 z m 2.573158,0.9344 q -0.15945,-0.0905 -0.15171,0.0113 -0.0226,0.104 0.0813,0.26683 0.13427,0.16056 0.1833,0.80499 l 0.2845,4.14011 q 0.12388,1.62802 -1.939341,1.78132 -0.121365,0.009 -0.146548,0.0791 -0.02518,0.07 0.09877,0.095 0.40218,0.0724 0.938001,-0.10384 1.101983,-0.35475 1.320863,-1.08729 0.10072,-0.28036 0.0388,-1.09437 l -0.31226,-4.10394 q -0.0439,-0.57659 -0.3957,-0.78921 z m -4.573557,8.867 q -0.250472,-0.0837 -0.273073,0.0203 -0.02002,0.13792 0.167192,0.19223 1.224606,0.45475 2.923726,0.3285 3.671312,-0.2728 3.996772,-2.41172 0.0174,-0.17184 -0.0458,-0.20125 -0.0936,-0.0272 -0.14397,0.11302 -0.61918,1.88787 -3.865712,2.1291 -1.69912,0.12625 -2.759116,-0.17018 z m -2.598892,-2.87668 q 0.03808,0.0995 0.159449,0.0905 0.08844,-0.0407 0.07812,-0.17635 -0.267838,-1.51499 -0.3304,-2.73825 -0.177366,-3.53412 0.501796,-4.23265 0.199486,-0.18537 0.04262,-0.24193 -0.129107,-0.0927 -0.267915,0.0881 -0.814758,1.32256 -0.582498,4.37509 0.147098,1.93326 0.398825,2.83549 z m 9.490599,-4.79822 q -0.0206,-0.27134 -0.11167,-0.26457 -0.11878,0.043 -0.10072,0.28035 0.20387,2.67943 0.20317,3.87329 0.0129,0.16958 0.10651,0.19674 0.091,-0.007 0.11105,-0.14469 0.0549,-0.4816 -0.20834,-3.94112 z m -5.167332,5.87544 q -0.303415,0.0225 -0.295674,0.12429 0.01032,0.13567 0.313738,0.11312 0.333755,-0.0248 0.323432,-0.16046 -0.0077,-0.10174 -0.341496,-0.0769 z m -3.739738,0.17556 q -0.06068,0.005 -0.05294,0.10625 0.01548,0.20351 0.220759,0.49523 0.233036,0.25556 0.313738,0.11312 0,0 -0.240778,-0.3573 -0.210436,-0.35956 -0.240778,-0.35731 z" />
    <path
       inkscape:connector-curvature="0"
       id="path614"
       style="font-style:normal;font-variant:normal;font-weight:normal;font-stretch:normal;font-size:32.16995239px;line-height:125%;font-family:Dymo;-inkscape-font-specification:Dymo;letter-spacing:0px;word-spacing:0px;fill:#ffffff;fill-opacity:1;stroke:none;stroke-width:0.33510375px;stroke-linecap:butt;stroke-linejoin:miter;stroke-opacity:1;image-rendering:auto"
       d="m 102.60669,257.60235 12.56135,-0.93335 1.7213,22.62258 -12.56135,0.93336 z m 3.80093,16.66959 q 0.34603,-0.26447 0.3196,-1.0129 0.0142,-0.61501 -0.19621,-0.97457 l -0.62968,-8.27573 q -0.0439,-0.57659 0.28988,-0.60139 0.3641,-0.0271 0.69074,0.25565 0.35698,0.28046 0.27886,0.4568 -0.0529,0.10625 -0.3286,0.0926 -0.24789,-0.0498 -0.22724,0.22154 0.0284,0.37309 0.3318,0.35054 l 0.0303,-0.002 q 0.21239,-0.0158 0.28081,0.0815 l 4.83361,7.38352 q 0.13943,0.2284 0.0536,0.30299 -0.11621,0.0768 -0.11104,0.14469 0.0103,0.13567 0.26596,0.28722 0.28597,0.14929 0.5287,0.13126 0.97093,-0.0722 1.36216,-0.54463 0.1388,-0.18086 0.13364,-0.24869 -0.005,-0.0678 -0.13169,-0.12665 -0.12652,-0.0588 -0.13426,-0.16057 l -0.44701,-7.88 q 0.0123,-0.23967 0.022,-0.51326 0,0 -0.22013,-0.086 -0.0329,-0.0317 -0.0355,-0.0655 -0.008,-0.10174 0.0878,-0.44994 0.1259,-0.35044 0.12074,-0.41827 -0.0542,-0.71226 -0.50932,-0.67844 -0.24273,0.018 -0.43448,0.30515 -0.19432,0.2532 -0.17368,0.52454 0.0155,0.2035 0.17236,0.26006 0.18463,0.0204 0.21043,0.35956 l 0.44904,5.90154 q 0.1471,1.93327 0.13224,2.13903 0.008,0.51101 -0.2647,0.5313 -0.54615,0.0406 -0.65782,-0.224 -0.11425,-0.29849 -0.19816,-0.59923 -3.14754,-4.47312 -5.30805,-8.40563 -0.10651,-0.19674 -0.3189,-0.18096 l -1.15556,0.0517 q -0.67009,0.0156 -0.61331,0.76186 0.0103,0.13566 0.26337,0.2533 0.12911,0.0927 0.18847,0.87282 0.11675,1.93552 0.23093,3.83712 l 0.29803,4.71896 q 0.0387,0.50876 -0.14334,0.52228 -0.24273,0.018 -0.26338,-0.2533 -0.005,-0.0678 -0.0755,-1.39285 -0.10323,-1.35667 -0.12129,-1.59409 -0.0232,-0.30526 -0.14976,-0.36407 -0.15429,-0.0227 -0.1388,0.18085 l 0.26065,3.42562 q 0.0542,0.71226 0.54224,0.7101 z m 5.44792,-0.98465 q 0.0884,-0.0407 0.0781,-0.17635 -0.0181,-0.23741 -0.82626,-1.23473 l -0.0284,-0.37309 q -0.81078,-1.03124 -2.62337,-4.00044 -1.39431,-2.28401 -1.56603,-2.13481 -0.0859,0.0746 0.42861,0.82087 0.54482,0.74402 0.45896,0.81862 -0.0555,0.0723 1.95202,3.1976 2.00755,3.12527 2.12633,3.08233 z m 2.81221,-3.1423 -0.4987,-6.95523 q -0.0684,-0.0972 -0.13427,-0.16056 -0.11878,0.043 -0.10588,0.21252 l 0.41932,6.31305 -0.0704,0.2781 0.15743,2.06894 q 0.0103,0.13566 0.13426,0.16056 0.15687,0.0565 0.14139,-0.14694 z m -10.02458,-7.03192 q -0.15171,0.0113 -0.10525,0.62178 -0.0129,-0.16959 0.20387,2.67944 0.0671,0.88184 0.1245,2.03726 0.0619,0.81401 0.0774,1.01751 0.0536,0.303 0.14459,0.29623 0.15171,-0.0113 -0.10378,-3.36904 0.0361,0.47484 -0.13545,-2.5822 -0.0542,-0.71225 -0.2059,-0.70098 z m 1.85912,1.9766 q -0.1517,0.0113 -0.13755,0.99937 0.0239,0.71451 0.18777,2.06668 0.15679,1.65967 0.16195,1.7275 0.24775,3.25603 0.37169,3.28093 0.15429,0.0227 0.17689,-0.0813 -0.005,-0.0678 -0.0594,-0.78009 -0.13553,-0.97908 -0.19035,-2.10059 -0.0806,-1.46069 -0.18322,-2.4081 -0.0794,-0.64217 -0.13811,-1.013 -0.0587,-0.37083 -0.0587,-0.37083 -0.10064,-1.32276 -0.13098,-1.32051 z m 6.36046,5.39409 q 0.12136,-0.009 -0.0296,-1.19161 -0.25165,-2.50533 -0.44004,-4.98127 -0.12904,-1.69585 -0.22006,-1.68909 -0.18205,0.0135 -0.053,1.70938 -0.0645,-0.84793 0.0961,1.66418 0.10902,1.83376 0.25486,2.94852 0.1794,1.55567 0.39179,1.53989 z m -4.45536,-6.42247 q -0.091,0.007 -0.0807,0.14243 0.0181,0.23742 0.43893,0.95654 0.31437,0.52238 1.28264,2.01943 0.41313,0.61737 0.79592,1.23699 l 0.49383,0.47493 q 0.10588,-0.21252 -0.34275,-0.89546 z m 6.17051,8.51209 q 0,0 -0.29762,0.49964 -0.30021,0.46572 -0.99806,0.51757 -0.18205,0.0135 -0.58423,-0.0589 -0.21497,-0.0182 -0.20723,0.0836 0.0232,0.30525 0.78176,0.24889 0.66751,-0.0496 1.08908,-0.52434 0.31053,-0.33005 0.28473,-0.66922 -0.008,-0.10174 -0.0684,-0.0972 z m -2.35295,-2.45154 -0.35761,-0.68971 q -0.071,-0.13116 -0.18979,-0.0882 -0.14912,0.0452 -0.0807,0.14243 l 0.35761,0.68971 q 0.071,0.13116 0.18979,0.0882 0.11878,-0.043 0.0807,-0.14243 z m 0.4893,0.81636 q 0.049,0.64443 0.35245,0.62188 0.091,-0.007 0.0601,-0.41377 -0.031,-0.407 -0.15491,-0.4319 -0.28082,-0.0814 -0.25759,0.22379 z" />
    <path
       inkscape:connector-curvature="0"
       id="path616"
       style="font-style:normal;font-variant:normal;font-weight:normal;font-stretch:normal;font-size:32.16995239px;line-height:125%;font-family:Dymo;-inkscape-font-specification:Dymo;letter-spacing:0px;word-spacing:0px;fill:#ffffff;fill-opacity:1;stroke:none;stroke-width:0.33510375px;stroke-linecap:butt;stroke-linejoin:miter;stroke-opacity:1;image-rendering:auto"
       d="m 114.74325,256.70056 12.56135,-0.93335 1.72131,22.62259 -12.56136,0.93335 z m 6.92083,4.73849 q -2.6397,0.19614 -3.34921,0.89693 -0.68174,0.66461 -0.52174,2.76746 0.10581,1.3906 0.90564,1.87691 0.79724,0.45238 2.92114,0.29457 1.97219,-0.14655 2.4073,-0.0424 1.27239,0.28065 1.38852,1.80692 0.0955,1.25492 -0.47522,1.77485 -0.65656,0.59453 -2.62876,0.74107 -2.48799,0.18486 -2.95406,-0.32625 -0.16461,-0.15831 -0.49704,-0.91811 -0.25368,-0.52689 -0.5571,-0.50434 -0.66751,0.0496 -0.62106,0.6601 0.0361,0.47484 0.40218,0.0724 0.22272,0.11989 0.4538,0.75078 0.2285,0.59698 0.82563,0.82548 0.88311,0.3778 2.88564,0.229 2.03288,-0.15105 2.87665,-0.69126 1.22273,-0.77303 1.08079,-2.63846 -0.14968,-1.96719 -1.40721,-2.45359 -0.69331,-0.28957 -2.5138,-0.1543 -2.18458,0.16232 -2.46281,0.11482 -1.20912,-0.25124 -1.33558,-1.91318 -0.11097,-1.45843 0.92002,-1.94434 0.47256,-0.20565 2.17167,-0.3319 1.91151,-0.14203 2.67068,0.21086 0.66555,0.32574 0.73523,1.2415 0.0439,0.57659 0.31695,0.5563 0.54614,-0.0406 0.48163,-0.8885 -0.17549,-2.30636 -4.11988,-2.01328 z m -4.01156,1.01436 q -0.22529,-0.15381 -0.50485,0.58325 -0.30216,0.84106 -0.23507,1.7229 0.15226,2.0011 0.87655,2.69767 1.05867,1.08103 4.09281,0.85558 1.7598,-0.13075 2.32401,0.0661 0.44027,0.17194 0.51448,0.74628 0.0717,0.54041 -0.21372,0.80038 -0.255,0.25771 -0.25242,0.29162 0.005,0.0678 0.15686,0.0565 0.60683,-0.0451 0.51651,-1.23218 -0.0955,-1.25493 -0.64163,-1.21435 -1.0923,0.0812 -2.7714,0.0695 -2.26074,-0.0367 -2.61515,-0.28321 -0.90117,-0.6152 -1.22069,-1.20542 -0.31953,-0.59021 -0.40727,-1.74339 -0.0929,-1.22101 0.19698,-1.8224 0.184,-0.38886 0.184,-0.38886 z m 8.94269,5.64563 q -0.0407,-0.13341 -0.0988,-0.095 -0.0581,0.0385 -0.0452,0.20801 0.22581,2.16618 -0.31388,3.09311 -0.83478,1.46048 -3.83859,1.68367 -2.45765,0.18262 -3.57637,-0.48465 -0.12911,-0.0927 -0.15429,-0.0227 -0.0555,0.0723 0.0735,0.16508 0.81015,0.62198 2.0393,0.7353 0.6449,0.0544 2.34402,-0.0718 1.54742,-0.11498 2.52483,-0.90389 1.38155,-1.0918 1.21123,-3.33032 -0.0516,-0.67834 -0.16585,-0.97683 z m -5.00775,2.7597 q -0.60683,0.0451 -1.32273,-0.14048 -0.80953,-0.21271 -0.98704,-0.54061 -0.0684,-0.0972 -0.12911,-0.0927 -0.0581,0.0385 0.0129,0.16958 0.29693,0.69422 1.253,0.82783 0.95348,0.0997 0.96122,0.20145 0.005,0.0678 1.2795,-0.0269 1.18332,-0.0879 1.16267,-0.35926 -0.0155,-0.20351 -0.56421,-0.19684 1.09488,-0.0472 -1.6662,0.15794 z m -1.25668,-4.88649 q 1.37311,2.9e-4 2.71588,0.003 1.61584,-0.0177 2.51443,0.56356 0.0962,0.061 0.15429,0.0227 0.0859,-0.0746 -0.0103,-0.13567 -1.40017,-1.15799 -5.35942,-0.65915 -0.24272,0.018 -0.23498,0.11978 0.0355,0.0655 0.22012,0.086 z m -1.59769,-1.34796 q 0.0774,1.01751 0.47186,0.9882 0.15171,-0.0113 0.13622,-0.21477 -0.008,-0.10174 -0.13685,-0.19448 -0.13168,-0.12665 -0.16781,-0.60149 -0.049,-0.64442 0.93933,-0.88841 0.44737,-0.13555 1.81274,-0.237 1.36536,-0.10146 1.9399,0.23105 0.37958,0.17645 0.47123,0.57894 0.089,0.36858 0.24078,0.35731 0.26791,-0.0881 -0.0393,-0.91802 -0.38342,-1.02888 -2.78039,-0.85077 -2.1239,0.15781 -1.96961,0.18048 -0.36925,-0.0407 -0.35377,0.16273 0.005,0.0678 0.13169,0.12665 0.12652,0.0588 0.1291,0.0927 -0.005,-0.0678 -0.43963,0.23732 -0.43448,0.30515 -0.38545,0.94957 z m -1.14874,6.1567 q -0.0381,-0.0995 -0.12652,-0.0588 -0.0884,0.0407 -0.073,0.24418 0.0723,0.94967 0.28465,0.93389 0.12136,-0.009 0.0142,-0.61501 z" />
  </g>
</svg>
