<?xml version="1.0" encoding="UTF-8" standalone="no"?>
<svg
   xmlns:dc="http://purl.org/dc/elements/1.1/"
   xmlns:cc="http://creativecommons.org/ns#"
   xmlns:rdf="http://www.w3.org/1999/02/22-rdf-syntax-ns#"
   xmlns:svg="http://www.w3.org/2000/svg"
   xmlns="http://www.w3.org/2000/svg"
   xmlns:sodipodi="http://sodipodi.sourceforge.net/DTD/sodipodi-0.dtd"
   xmlns:inkscape="http://www.inkscape.org/namespaces/inkscape"
   width="445.01276"
   height="181.1501"
   viewBox="0 0 445.01276 181.1501"
   version="1.1"
   id="svg180"
   sodipodi:docname="dataeast.svg"
   style="fill:none"
   inkscape:version="0.92.5 (2060ec1f9f, 2020-04-08)">
  <metadata
     id="metadata186">
    <rdf:RDF>
      <cc:Work
         rdf:about="">
        <dc:format>image/svg+xml</dc:format>
        <dc:type
           rdf:resource="http://purl.org/dc/dcmitype/StillImage" />
        <dc:title />
      </cc:Work>
    </rdf:RDF>
  </metadata>
  <defs
     id="defs184" />
  <sodipodi:namedview
     pagecolor="#ffffff"
     bordercolor="#666666"
     borderopacity="1"
     objecttolerance="10"
     gridtolerance="10"
     guidetolerance="10"
     inkscape:pageopacity="0"
     inkscape:pageshadow="2"
     inkscape:window-width="1366"
     inkscape:window-height="743"
     id="namedview182"
     showgrid="false"
     inkscape:pagecheckerboard="true"
     inkscape:zoom="2.1989495"
     inkscape:cx="262.22544"
     inkscape:cy="173.2604"
     inkscape:window-x="0"
     inkscape:window-y="0"
     inkscape:window-maximized="1"
     inkscape:current-layer="svg180" />
  <path
     d="m 10.479868,181.12064 c 1.415899,-0.001 2.814309,-0.31271 4.097993,-0.91002 1.262185,-0.55702 2.382187,-1.39252 3.276088,-2.44425 v 0 l -2.44082,-2.44546 c -0.599028,0.72069 -1.34305,1.30701 -2.183692,1.72232 -0.824642,0.39944 -1.73,0.60343 -2.64623,0.59733 -0.773166,0.009 -1.540311,-0.13681 -2.257019,-0.42631 -0.716721,-0.29072 -1.368763,-0.71946 -1.918417,-1.26426 -0.529281,-0.53135 -0.947453,-1.1641 -1.230244,-1.85914 -0.303179,-0.73901 -0.455843,-1.53055 -0.449039,-2.32819 -0.0082,-0.8062 0.140071,-1.60507 0.436738,-2.35508 0.276929,-0.69626 0.687307,-1.33267 1.208098,-1.87257 0.522268,-0.53502 1.146924,-0.95889 1.836747,-1.24839 0.718858,-0.30537 1.492549,-0.45928 2.273485,-0.4544 0.941808,-0.003 1.871475,0.21132 2.715098,0.63031 0.872036,0.43851 1.635724,1.06515 2.235363,1.83471 v 0 l 2.518386,-2.52365 c -0.885473,-1.07492 -2.012192,-1.92632 -3.288426,-2.48333 -1.311779,-0.60709 -2.739101,-0.92223 -4.184109,-0.92468 -1.29066,-0.009 -2.570215,0.23942 -3.764533,0.72925 -1.131522,0.45805 -2.164675,1.12989 -3.043624,1.97762 -0.867553,0.84896 -1.557592,1.86036 -2.029895,2.97804 -0.489611,1.17265 -0.742751,2.42958 -0.744863,3.69874 -0.0021,1.27037 0.246847,2.52853 0.732562,3.70117 0.46671,1.11402 1.1524,2.12298 2.016361,2.96703 0.879365,0.84651 1.912945,1.51834 3.044857,1.97641 1.202393,0.49104 2.490389,0.73901 3.789135,0.7268 z m 48.689319,0.028 c 1.28624,0.009 2.56162,-0.23818 3.75089,-0.72923 1.12659,-0.45685 2.15156,-1.13234 3.01603,-1.9874 0.86434,-0.85505 1.55107,-1.87257 2.02062,-2.99392 0.49165,-1.1641 0.74487,-2.41614 0.74487,-3.68041 0,-1.26426 -0.25322,-2.5163 -0.74487,-3.68041 -0.46943,-1.12256 -1.15616,-2.14008 -2.02062,-2.99391 -0.86434,-0.85506 -1.88944,-1.53056 -3.01603,-1.9874 -2.39795,-0.9711 -5.0794,-0.9711 -7.47735,0 -1.1266,0.45684 -2.15157,1.13234 -3.016029,1.9874 -0.864462,0.85383 -1.551072,1.87135 -2.020621,2.99391 -0.491291,1.16411 -0.744388,2.41615 -0.744388,3.68041 0,1.26427 0.253097,2.51631 0.744388,3.68041 0.469549,1.12135 1.156281,2.13887 2.020744,2.99392 0.864336,0.85506 1.889306,1.53055 3.015906,1.9874 1.18169,0.4886 2.44901,0.73535 3.72768,0.72802 z m 0,-3.46053 c -0.75502,0.008 -1.50319,-0.14047 -2.19896,-0.43364 -0.69577,-0.29316 -1.32436,-0.72558 -1.84741,-1.26914 -0.51585,-0.54602 -0.92139,-1.18731 -1.19452,-1.88601 -0.58266,-1.51102 -0.58266,-3.1857 0,-4.69671 0.27545,-0.69382 0.68087,-1.33022 1.19452,-1.87257 0.52305,-0.54358 1.15164,-0.97599 1.84741,-1.26915 0.69577,-0.29316 1.44394,-0.44097 2.19896,-0.43364 0.777,-0.006 1.54692,0.14903 2.26114,0.4544 0.68208,0.2895 1.29821,0.71459 1.81088,1.24839 0.51376,0.54235 0.91919,1.17875 1.19463,1.87257 0.5823,1.51101 0.5823,3.18569 0,4.69671 -0.27312,0.6987 -0.67879,1.33999 -1.19463,1.88601 -0.51279,0.5338 -1.12892,0.95888 -1.81088,1.24838 -0.71398,0.30537 -1.4834,0.45929 -2.25992,0.45318 z m 56.474163,3.17471 v -3.32862 h -9.84194 v -14.88165 h -3.72267 v 18.20782 z m 46.96985,0 v -3.32862 h -9.84292 v -14.88165 h -3.72439 v 18.20782 z m 47.32739,0 v -3.27732 h -10.20082 v -4.31925 h 6.65599 v -3.1747 h -6.65599 v -4.15802 h 10.09821 v -3.27726 h -13.82505 v 18.20783 z m 41.31633,0.25896 c 1.41574,-0.001 2.81436,-0.31271 4.09694,-0.91004 1.26305,-0.557 2.38317,-1.39373 3.27609,-2.44423 v 0 l -2.44179,-2.44424 c -0.59854,0.72069 -1.34245,1.30701 -2.18284,1.72232 -0.82451,0.39944 -1.73088,0.60344 -2.64701,0.59733 -0.77322,0.009 -1.5391,-0.13682 -2.25612,-0.42631 -0.71704,-0.29072 -1.3681,-0.71947 -1.91778,-1.26426 -0.52892,-0.53136 -0.94789,-1.1641 -1.23005,-1.85915 -0.30416,-0.73901 -0.45685,-1.53055 -0.45074,-2.32819 -0.008,-0.8062 0.14047,-1.60507 0.43851,-2.35507 0.27607,-0.69625 0.68528,-1.33267 1.20686,-1.87257 0.52158,-0.53502 1.147,-0.96011 1.83592,-1.24839 0.71947,-0.30538 1.49269,-0.4605 2.27446,-0.45439 0.94423,-0.003 1.87745,0.21375 2.72274,0.63517 0.87216,0.43853 1.63682,1.06516 2.23537,1.83472 v 0 l 2.51875,-2.52364 c -0.8856,-1.07493 -2.01183,-1.92632 -3.28831,-2.48333 -1.3119,-0.60587 -2.73862,-0.92102 -4.18244,-0.92469 -1.29115,-0.009 -2.57006,0.23942 -3.7647,0.72925 -1.13233,0.45806 -2.16574,1.12867 -3.04522,1.97639 -0.86727,0.84774 -1.55864,1.86036 -2.03138,2.97805 -0.4886,1.17264 -0.74267,2.42958 -0.74389,3.69873 -0.002,1.27037 0.24675,2.52853 0.73168,3.7024 0.46663,1.11279 1.15311,2.12175 2.01672,2.96581 0.87948,0.84651 1.91288,1.51834 3.04522,1.97641 1.20074,0.48861 2.48577,0.73291 3.78301,0.72069 z m 49.28058,-0.25896 v -14.88165 h 6.0367 v -3.32984 h -15.82709 v 3.32984 h 6.06357 v 14.8792 z m 42.6771,0 v -18.20778 h -3.7256 v 18.20783 z m 42.90918,0.28705 c 1.28625,0.009 2.56151,-0.2382 3.75126,-0.72924 1.12623,-0.45685 2.15108,-1.13235 3.01591,-1.9874 0.86483,-0.85506 1.55132,-1.87257 2.02038,-2.99392 0.49226,-1.1641 0.74512,-2.41614 0.74512,-3.68041 0,-1.26426 -0.25286,-2.51631 -0.74512,-3.6804 -0.46906,-1.12257 -1.15555,-2.14009 -2.02038,-2.99393 -0.8636,-0.85505 -1.88968,-1.53055 -3.01591,-1.9874 -2.39782,-0.97109 -5.07781,-0.97109 -7.47564,0 -1.12623,0.45685 -2.15108,1.13235 -3.01468,1.9874 -0.86483,0.85506 -1.55132,1.87258 -2.02161,2.99393 -0.49104,1.16409 -0.74511,2.41614 -0.74511,3.6804 0,1.26427 0.25407,2.51631 0.74511,3.68041 0.47029,1.12135 1.15678,2.13886 2.02161,2.99392 0.8636,0.85505 1.88845,1.53055 3.01468,1.9874 1.1812,0.48738 2.44669,0.73534 3.72438,0.7268 z m 0,-3.46053 c -0.77199,0.008 -1.53788,-0.14781 -2.24757,-0.45441 -0.67672,-0.29072 -1.28869,-0.7158 -1.79806,-1.24838 -0.51671,-0.54602 -0.92346,-1.18609 -1.19586,-1.88602 -0.58267,-1.511 -0.58267,-3.18569 0,-4.6967 0.27484,-0.69382 0.6816,-1.33023 1.19586,-1.87257 0.50937,-0.53258 1.12134,-0.95766 1.79806,-1.24838 0.70969,-0.30661 1.47558,-0.46173 2.24757,-0.4544 0.77688,-0.006 1.54644,0.14902 2.2598,0.4544 0.68282,0.28949 1.29969,0.71458 1.81272,1.24838 0.51425,0.54234 0.91857,1.17875 1.19463,1.87257 0.58267,1.51101 0.58267,3.1857 0,4.6967 -0.27362,0.6987 -0.67915,1.34 -1.19463,1.88602 -0.51303,0.5338 -1.1299,0.95888 -1.81272,1.24838 -0.71336,0.30538 -1.48292,0.45929 -2.2598,0.45196 z m 46.42836,3.1747 v -12.17965 l 9.17232,12.17968 h 3.2883 V 162.6563 h -3.49352 v 11.7839 l -8.94145,-11.7839 h -3.54604 v 18.20783 z"
     id="path172"
     inkscape:connector-curvature="0"
     style="fill:#ffffff;stroke-width:1.22150958" />
  <path
     d="m 186.12507,150.62067 c 2.05213,0.003 4.04074,-0.70482 5.62993,-2.00451 1.58796,-1.29968 2.6751,-3.10996 3.07698,-5.12301 0.40188,-2.01182 0.0941,-4.10182 -0.87337,-5.91088 -0.96622,-1.81028 -2.53098,-3.22967 -4.42797,-4.01388 -1.89579,-0.78542 -4.00533,-0.88802 -5.9683,-0.29194 -1.96419,0.59732 -3.65965,1.85669 -4.79687,3.56436 -1.13845,1.70768 -1.64903,3.75737 -1.44504,5.79851 0.20399,2.04236 1.11034,3.95036 2.56516,5.39785 1.65515,1.65392 3.89906,2.58228 6.23948,2.5835 z m -7.60024,-8.84007 c -0.003,-0.99797 0.19055,-1.98616 0.57289,-2.90719 0.38233,-0.92101 0.94545,-1.75652 1.65515,-2.45644 1.06027,-1.0615 2.41247,-1.78463 3.88439,-2.0778 1.47315,-0.29193 2.99881,-0.14169 4.38523,0.43242 1.38641,0.57411 2.57127,1.54643 3.40557,2.79481 0.83306,1.24838 1.27891,2.71542 1.27891,4.21543 0,1.50123 -0.44585,2.96827 -1.27891,4.21665 -0.8343,1.24716 -2.01916,2.2207 -3.40557,2.79481 -1.38642,0.57411 -2.91208,0.72436 -4.38523,0.4312 -1.47192,-0.29195 -2.82412,-1.01507 -3.88439,-2.07656 -0.71093,-0.70115 -1.27404,-1.53666 -1.65759,-2.45891 -0.38233,-0.92101 -0.57533,-1.91043 -0.57045,-2.90842 z"
     id="path174"
     inkscape:connector-curvature="0"
     style="fill:#e23129;stroke-width:1.22150958" />
  <path
     d="m 183.8555,142.52572 v 4.16901 h -1.28015 v -9.79284 h 3.63643 c 1.37055,0.0159 2.17307,0.0159 2.93408,0.59122 0.34569,0.26505 0.62175,0.61075 0.80375,1.00529 0.18322,0.39577 0.26629,0.82941 0.2443,1.26427 0.0366,0.66327 -0.18689,1.31435 -0.62296,1.81516 -0.43608,0.50082 -1.0505,0.81231 -1.71256,0.86727 l 2.75572,4.24475 h -1.54765 l -2.68244,-4.16779 h -2.52852 z m 0,-1.08103 h 2.59937 c 0.39943,0.0159 0.80008,-0.0159 1.19219,-0.0978 0.36402,-0.0647 0.69015,-0.26263 0.91858,-0.55456 0.2272,-0.29072 0.33836,-0.65596 0.3127,-1.02485 0.0122,-0.25774 -0.0342,-0.51548 -0.13436,-0.75245 -0.10133,-0.23697 -0.25529,-0.4483 -0.44952,-0.61687 -0.56677,-0.36279 -1.24471,-0.50692 -1.91044,-0.40921 h -2.52852 v 3.45932 z"
     id="path176"
     inkscape:connector-curvature="0"
     style="fill:#e23129;stroke-width:1.22150958" />
  <path
     d="m 200.56453,1.111572 h 34.49664 c 18.97005,0 27.41801,7.002915 27.41801,26.121981 v 14.079973 c 0,18.377977 -6.0025,27.085264 -24.97254,27.085264 h -36.94211 z m 18.15651,51.688175 h 15.89551 c 6.70608,0 9.15155,-4.409283 9.15155,-11.486221 V 27.233553 c 0,-8.707286 -2.81558,-10.485803 -9.15155,-10.485803 h -15.89551 z m 66.80558,4.038677 -3.37259,11.560366 H 263.25728 L 283.71023,1.111572 h 27.6049 l 20.67526,67.287218 h -18.52663 l -3.55704,-11.560366 z m 12.33847,-42.239798 h -0.18567 l -8.26229,29.123228 h 16.89592 z m 64.21109,53.800164 h -18.1553 V 16.74775 H 322.91214 V 1.111572 h 61.0999 V 16.710616 H 362.07618 Z M 397.09075,56.838424 393.71937,68.39879 H 374.82262 L 395.27558,1.111572 h 27.60367 l 20.71314,67.287218 h -18.52664 l -3.55703,-11.560366 z m 12.33846,-42.239798 h -0.18445 l -8.26351,29.160363 h 16.89592 z M 219.79475,110.52743 h 31.45753 v 12.48713 h -31.45753 v 13.11656 h 34.01416 v 14.67277 H 201.63946 V 83.516189 h 51.5025 v 14.70992 h -33.34721 z m 61.13655,28.71609 -3.37137,11.56037 h -18.89675 l 20.41631,-67.287701 h 27.60368 l 20.7119,67.287701 h -18.52541 l -3.55703,-11.56037 z m 12.33847,-42.240151 h -0.18445 l -8.26351,29.160241 h 16.89592 z m 69.25103,12.894261 c 21.00874,1.44504 26.23314,3.96453 26.23314,19.37838 0,11.11574 0.4825,22.08368 -30.75272,22.08368 -18.082,0 -30.12365,-0.37135 -30.12365,-22.41715 h 18.19194 c 0,7.00291 2.66778,7.7065 11.93171,7.7065 8.89259,0 11.81932,-0.55577 11.81932,-6.18694 0,-5.81805 -1.03705,-5.74354 -9.92964,-6.29932 l -4.15069,-0.25896 c -17.525,-1.14944 -27.75148,-1.07493 -27.75148,-20.3793 0,-19.304251 11.44921,-20.526991 30.01249,-20.526991 15.52416,0 28.78975,0.25933 28.78975,18.822611 v 2.77894 h -18.19315 c 0,-6.891741 -3.0379,-6.891741 -10.5966,-6.891741 -10.22647,0 -11.07909,1.96381 -11.07909,5.743151 0,5.37257 2.74228,5.55787 7.78101,5.92836 z m 63.76769,40.90626 h -18.1553 V 99.152379 h -17.41506 v -15.59906 h 53.91132 v 15.59906 H 426.28849 Z M 112.78771,74.512445 h 60.24766 V 30.0495 c -3.96502,-1.07444 -8.15236,-1.667361 -12.44963,-1.667361 -25.82637,0 -46.90878,20.564112 -47.79803,46.130306 z m 47.79803,49.575825 c 4.29727,0 8.48461,-0.59245 12.44963,-1.66737 V 77.958319 h -60.24766 c 0.88925,25.566201 21.97166,46.129951 47.79803,46.129951 z M 160.58574,0 C 124.75521,0 94.669067,24.75108 86.517447,58.061154 78.365947,24.75108 48.316441,0 12.449624,0 8.225645,0 4.038714,0.370524 0,1.037468 v 25.49213 c 4.001665,-1.000416 8.151535,-1.519191 12.449624,-1.519191 28.270982,0 51.280553,23.009573 51.280553,51.280552 0,28.271111 -23.009571,51.206541 -51.280553,51.206541 -4.298089,0 -8.485007,-0.51914 -12.449624,-1.51956 v 25.4929 c 4.038714,0.66694 8.225645,1.03706 12.449624,1.03706 35.829683,0 65.916323,-24.75145 74.067823,-58.061151 8.15162,33.347571 38.201123,58.061151 74.068293,58.061151 4.26063,0 8.4101,-0.37012 12.44963,-1.03706 v -25.4929 c -4.00167,1.00041 -8.15236,1.51956 -12.44963,1.51956 -28.27183,0 -51.28104,-23.00958 -51.28104,-51.280561 0,-28.271105 23.00921,-51.243544 51.28104,-51.243544 4.29727,0 8.48461,0.518653 12.44963,1.519068 V 1.037468 C 168.99584,0.370524 164.80972,0 160.58574,0 Z M 60.321437,76.253949 c 0,-26.381305 -21.453372,-47.834676 -47.834801,-47.834676 C 8.151535,28.382143 3.964617,28.97506 0,30.0495 v 92.3714 c 3.964617,1.07492 8.151535,1.66737 12.449624,1.66737 26.381307,0 47.871813,-21.45301 47.871813,-47.834321 z"
     id="path178"
     inkscape:connector-curvature="0"
     style="fill:#e23129;stroke-width:1.22150958" />
</svg>
