<?xml version="1.0" encoding="UTF-8" standalone="no"?>
<!-- Created with Inkscape (http://www.inkscape.org/) -->

<svg
   xmlns:dc="http://purl.org/dc/elements/1.1/"
   xmlns:cc="http://creativecommons.org/ns#"
   xmlns:rdf="http://www.w3.org/1999/02/22-rdf-syntax-ns#"
   xmlns:svg="http://www.w3.org/2000/svg"
   xmlns="http://www.w3.org/2000/svg"
   xmlns:sodipodi="http://sodipodi.sourceforge.net/DTD/sodipodi-0.dtd"
   xmlns:inkscape="http://www.inkscape.org/namespaces/inkscape"
   width="251.82047"
   height="158.70001"
   viewBox="0 0 66.627495 41.989379"
   version="1.1"
   id="svg8"
   sodipodi:docname="donkeykong.svg"
   inkscape:version="0.92.5 (2060ec1f9f, 2020-04-08)">
  <defs
     id="defs2" />
  <sodipodi:namedview
     id="base"
     pagecolor="#ffffff"
     bordercolor="#666666"
     borderopacity="1.0"
     inkscape:pageopacity="0.0"
     inkscape:pageshadow="2"
     inkscape:zoom="1.2952908"
     inkscape:cx="271.28656"
     inkscape:cy="40.69892"
     inkscape:document-units="mm"
     inkscape:current-layer="layer1"
     showgrid="false"
     units="px"
     inkscape:pagecheckerboard="true"
     inkscape:window-width="1366"
     inkscape:window-height="740"
     inkscape:window-x="0"
     inkscape:window-y="0"
     inkscape:window-maximized="1" />
  <metadata
     id="metadata5">
    <rdf:RDF>
      <cc:Work
         rdf:about="">
        <dc:format>image/svg+xml</dc:format>
        <dc:type
           rdf:resource="http://purl.org/dc/dcmitype/StillImage" />
        <dc:title />
      </cc:Work>
    </rdf:RDF>
  </metadata>
  <g
     inkscape:label="Layer 1"
     inkscape:groupmode="layer"
     id="layer1"
     transform="translate(-35.186023,-246.84936)">
    <path
       inkscape:connector-curvature="0"
       id="path2278"
       d="m 47.995876,287.62992 c -0.830079,-0.55985 -1.662917,-1.2377 -1.850752,-1.50632 -0.247079,-0.35335 -0.426272,-2.74965 -0.648013,-8.66565 -0.168572,-4.49749 -0.357817,-8.33264 -0.420545,-8.52256 -0.08985,-0.27204 -0.65116,-0.30857 -2.645263,-0.17216 l -2.531211,0.17315 -1.227448,-0.82206 c -2.400248,-1.60751 -2.416782,-1.65041 -2.766584,-7.17802 -0.170371,-2.69222 -0.429673,-6.43608 -0.576227,-8.31968 -0.278205,-3.57566 -0.217925,-3.95555 0.769429,-4.8491 0.410687,-0.37166 1.181475,-0.52833 3.411106,-0.69332 3.407212,-0.25214 4.78036,0.0481 6.611271,1.44569 0.649772,0.49598 1.288249,0.90179 1.418836,0.90179 0.130587,0 0.587287,-0.29439 1.014888,-0.65419 2.007758,-1.68941 4.988752,-2.22288 7.248988,-1.29725 0.93784,0.38408 1.228134,0.40346 1.896476,0.12662 0.479041,-0.19842 1.778064,-0.31043 3.305776,-0.28503 1.384151,0.023 2.867093,0.0463 3.295425,0.0519 0.428332,0.006 1.493245,-0.0678 2.366471,-0.16286 1.224863,-0.13336 1.798641,-0.0728 2.510804,0.26518 0.653224,0.30998 1.06186,0.36497 1.397657,0.1881 0.260997,-0.13747 1.436612,-0.3337 2.612476,-0.43605 2.135461,-0.18589 2.138236,-0.18532 2.39483,0.48957 0.305546,0.80365 0.455233,0.82871 1.161594,0.19449 0.452436,-0.40622 1.304281,-0.52815 5.468228,-0.7827 8.286406,-0.50655 9.310473,-0.39258 10.258742,1.14175 0.676287,1.09426 0.906857,1.12032 1.404127,0.1587 0.2111,-0.40822 0.743976,-0.8914 1.184168,-1.07373 0.981677,-0.40663 3.424032,-0.20063 4.281342,0.3611 0.707753,0.46374 2.214293,2.98679 2.205133,3.69301 -0.003,0.26818 -0.89757,2.35668 -1.986883,4.64111 l -1.980546,4.15352 -0.162891,3.70013 c -0.147691,3.35482 -0.216538,3.75377 -0.737712,4.27495 -0.486333,0.48633 -0.829076,0.56728 -2.226521,0.52587 -0.908437,-0.0269 -1.931117,-0.15415 -2.272619,-0.28273 -0.678073,-0.25531 -2.308286,-0.1023 -2.308286,0.21664 0,0.10927 0.405124,0.87145 0.900276,1.69373 1.257091,2.08761 1.524383,3.04549 1.328895,4.76232 -0.09166,0.80497 -0.218558,2.80699 -0.281998,4.44893 -0.06344,1.64194 -0.219921,4.1457 -0.34773,5.56391 -0.325574,3.61267 -0.3478,3.62781 -4.967058,3.38219 -1.931411,-0.1027 -3.978925,-0.32641 -4.550035,-0.49714 -0.739825,-0.22117 -1.710131,-0.24449 -3.374735,-0.0811 -1.6801,0.16488 -2.60743,0.14119 -3.301419,-0.0843 -0.765564,-0.24877 -1.046778,-0.24578 -1.360351,0.0145 -0.217405,0.18044 -1.159616,0.38942 -2.093803,0.4644 -1.333384,0.10703 -1.885979,0.0354 -2.570536,-0.33327 -0.854657,-0.46026 -0.899266,-0.45789 -2.240555,0.11912 -1.19956,0.51603 -1.62771,0.56746 -3.467574,0.41648 -1.154469,-0.0947 -3.196667,-0.1546 -4.538216,-0.13303 -1.826145,0.0294 -2.690771,-0.0742 -3.44023,-0.41219 -0.962883,-0.4342 -1.021834,-0.4326 -1.546101,0.0419 -0.41406,0.37472 -1.022192,0.51232 -2.530456,0.57254 -1.935596,0.0773 -2.023271,0.0537 -3.49464,-0.93865 z"
       style="fill:#ffff00;stroke-width:0.25959507" />
    <path
       inkscape:connector-curvature="0"
       id="path2276"
       d="m 62.031007,288.52705 c -0.77901,-0.29073 -1.35727,-0.3078 -2.899824,-0.0856 -1.700743,0.24501 -2.052873,0.22072 -3.001661,-0.20713 -1.014102,-0.45729 -1.116621,-0.46005 -1.812942,-0.0487 -0.523909,0.30948 -1.334973,0.43598 -2.795325,0.43598 -1.958959,0 -2.124305,-0.0468 -3.46009,-0.98006 -0.771552,-0.53902 -1.538026,-1.25124 -1.703275,-1.5827 -0.185741,-0.37256 -0.37076,-3.04611 -0.484596,-7.00249 -0.101278,-3.51992 -0.260094,-7.27598 -0.352924,-8.34681 l -0.168782,-1.94696 -2.725748,0.0869 -2.725748,0.0869 -1.484855,-1.06909 c -1.1418,-0.82209 -1.544229,-1.29199 -1.741849,-2.03388 -0.141347,-0.53063 -0.383772,-3.35955 -0.538722,-6.28649 -0.154951,-2.92693 -0.40083,-6.33504 -0.546399,-7.57358 -0.283924,-2.41568 -0.0083,-3.53352 1.004674,-4.07431 0.248383,-0.13261 1.863613,-0.32517 3.589401,-0.42792 2.859786,-0.17027 3.24687,-0.13858 4.368856,0.35773 0.677082,0.29951 1.689391,0.90756 2.249574,1.35124 l 1.018515,0.80668 0.812676,-0.68383 c 2.18034,-1.83463 4.784492,-2.37324 7.25472,-1.50046 1.301166,0.45973 1.522861,0.4735 2.169412,0.13474 0.698754,-0.36612 1.153007,-0.36827 6.92034,-0.0328 0.65702,0.0382 0.664631,0.0588 0.295235,0.7993 l -0.37917,0.76007 -0.737154,-0.70624 c -0.719348,-0.68918 -0.794999,-0.70294 -3.13215,-0.56968 -2.194251,0.12511 -2.435624,0.19233 -2.879692,0.80193 l -0.484694,0.66538 -1.19507,-0.63542 c -0.897636,-0.47728 -1.589253,-0.63401 -2.778875,-0.62973 -1.922885,0.007 -3.325932,0.59389 -4.910147,2.05417 l -1.150774,1.06075 -0.650671,-0.85307 c -0.357868,-0.46919 -1.273186,-1.19189 -2.034039,-1.606 -1.312859,-0.71455 -1.529463,-0.75029 -4.249636,-0.70127 -3.23323,0.0583 -3.674106,0.14521 -4.020715,0.79285 -0.262935,0.4913 0.564158,15.87765 0.898078,16.70688 0.265737,0.65991 1.179407,0.80606 3.915614,0.62632 2.790553,-0.1833 3.794882,-0.53564 5.234682,-1.83641 0.568487,-0.51359 1.136272,-0.93381 1.261745,-0.9338 0.125472,10e-6 0.546304,0.39877 0.935182,0.88615 0.388877,0.48737 1.35166,1.20151 2.139517,1.58697 1.227383,0.60051 1.683642,0.6863 3.186876,0.59924 1.14742,-0.0665 2.192765,-0.31486 3.021412,-0.71798 l 1.267002,-0.61638 0.464197,0.6154 c 0.407104,0.5397 0.650377,0.60782 1.977936,0.55377 2.012937,-0.0819 2.404713,-0.23112 2.709015,-1.03149 l 0.25695,-0.67583 0.646285,0.69699 0.646283,0.69698 3.988445,-0.0756 c 4.347685,-0.0824 4.818741,-0.22808 4.818741,-1.49043 0,-0.84724 0.231681,-1.54702 0.512181,-1.54702 0.108371,0 0.454834,0.70704 0.76992,1.57119 0.436016,1.19582 0.738919,1.63487 1.26786,1.83774 0.751411,0.2882 5.503771,0.14903 10.863638,-0.31814 2.251071,-0.1962 3.309858,-0.19498 3.682164,0.004 0.287413,0.15382 1.154642,0.27967 1.927174,0.27967 2.055767,0 2.172403,-0.21515 2.392314,-4.41311 l 0.183583,-3.50454 1.920741,-4.11404 c 1.056399,-2.26274 1.920739,-4.38036 1.920739,-4.70583 0,-0.84401 -0.54534,-1.18901 -2.123727,-1.34354 -1.754694,-0.17179 -2.144444,0.11547 -3.049502,2.24762 -0.386072,0.90952 -0.828765,1.69594 -0.983764,1.74761 -0.154999,0.0517 -0.542491,-0.70049 -0.861095,-1.67145 -0.318601,-0.97096 -0.682582,-1.89663 -0.808844,-2.05704 -0.438277,-0.5568 -2.97607,-0.65402 -8.498124,-0.32556 l -5.551864,0.33024 -0.678418,0.9585 c -0.373129,0.52717 -0.810739,1.17583 -0.972467,1.44146 -0.453569,0.74497 -0.60611,0.33557 -0.403283,-1.08237 0.138019,-0.96487 0.294921,-1.28942 0.623519,-1.28976 0.241501,-2.5e-4 0.600625,-0.22082 0.798052,-0.49015 0.300232,-0.40959 0.780003,-0.50554 2.9325,-0.5865 1.41545,-0.0532 3.916947,-0.20667 5.558886,-0.34097 1.641939,-0.13431 3.734142,-0.15246 4.649342,-0.0403 1.682934,0.20616 2.009515,0.41857 3.081505,2.00424 0.277949,0.41113 0.359306,0.42829 0.496725,0.10476 0.09039,-0.21279 0.48671,-0.70927 0.88072,-1.10328 0.635834,-0.63583 0.906976,-0.71638 2.411504,-0.71638 0.932317,0 1.968675,0.12464 2.303025,0.27698 0.60222,0.27439 2.531663,3.06748 2.531663,3.66486 0,0.17068 -0.92238,2.30324 -2.049743,4.73902 l -2.049733,4.42869 -0.160471,3.49169 c -0.143904,3.13112 -0.220212,3.55528 -0.738956,4.10746 -0.524016,0.55779 -0.737528,0.60359 -2.267799,0.48644 -0.929127,-0.0711 -2.11409,-0.20765 -2.633249,-0.30338 -0.556829,-0.10268 -1.17228,-0.0519 -1.500761,0.12395 -0.552078,0.29546 -0.552616,0.304 -0.06285,0.99843 0.271692,0.38524 0.809773,1.32713 1.195734,2.09309 0.637994,1.26614 0.688012,1.57273 0.550549,3.37473 -0.08316,1.09015 -0.145321,2.69349 -0.138133,3.56299 0.0072,0.8695 -0.105037,3.26427 -0.249388,5.3217 -0.252298,3.59597 -0.289731,3.76449 -0.96696,4.35306 -0.638409,0.55483 -0.852285,0.59475 -2.279728,0.42551 -0.866375,-0.10272 -2.513083,-0.22527 -3.659351,-0.27233 -1.14627,-0.0471 -2.375975,-0.19653 -2.732679,-0.33215 -0.356704,-0.13562 -1.957082,-0.18455 -3.556395,-0.10875 -2.069409,0.0981 -3.016744,0.0475 -3.285534,-0.17563 -0.298713,-0.24791 -0.508209,-0.22794 -1.001866,0.0955 -0.38668,0.25336 -1.320601,0.43282 -2.454513,0.47166 -1.501791,0.0514 -1.930224,-0.0274 -2.386805,-0.43932 -0.551211,-0.49726 -0.568043,-0.49633 -1.781282,0.0992 -1.522291,0.74723 -4.183608,0.95642 -5.572592,0.43804 z m 2.17536,-2.24695 c 0.518497,-0.14402 1.387647,-0.56379 1.931442,-0.93282 l 0.988722,-0.67097 0.491466,0.67468 c 0.443253,0.60849 0.659221,0.67467 2.201638,0.67467 1.740632,0 2.659637,-0.41755 2.659637,-1.20841 0,-0.52297 0.254977,-0.42505 0.84438,0.32426 0.52081,0.6621 0.5825,0.67289 3.671692,0.64233 3.601139,-0.0356 6.974554,0.15267 8.853074,0.49413 3.005795,0.54636 3.368124,0.24399 3.606243,-3.00947 0.517352,-7.0687 0.523536,-6.50254 -0.07663,-7.01642 l -0.551829,-0.47249 0.587868,-0.44343 c 0.52357,-0.39493 0.587871,-0.66733 0.587871,-2.49033 0,-1.85731 -0.06952,-2.13805 -0.750626,-3.03102 -1.004558,-1.31704 -2.40391,-1.87368 -5.255407,-2.0905 -2.348348,-0.17857 -3.071206,-0.0215 -5.046925,1.09665 -0.08248,0.0467 -0.284407,-0.2102 -0.448725,-0.57084 -0.27778,-0.60966 -0.425466,-0.65571 -2.102949,-0.65571 -1.842286,0 -2.620059,0.35228 -2.620059,1.18672 0,0.53377 -0.247324,0.4599 -0.931318,-0.27814 -0.528245,-0.56998 -0.816274,-0.64881 -2.366124,-0.64754 -2.242392,0.002 -3.632872,0.37985 -3.843987,1.04501 -0.207868,0.65494 -0.342715,0.64431 -1.741065,-0.13724 -1.681634,-0.93989 -3.130678,-1.06806 -4.985572,-0.44099 l -1.537301,0.51971 -0.706882,-0.52263 c -0.60554,-0.44769 -0.932407,-0.49644 -2.279961,-0.34004 -1.721233,0.19977 -2.028066,0.4347 -2.663984,2.03974 -0.570141,1.43902 -1.009387,1.523 -1.009387,0.19298 0,-0.73471 -0.16931,-1.22932 -0.551707,-1.61172 -0.493654,-0.49365 -0.73267,-0.53333 -2.271457,-0.37706 -0.945862,0.0961 -1.884563,0.33808 -2.086002,0.53784 -0.311692,0.30909 -0.324566,1.56065 -0.08642,8.40136 0.169952,4.88186 0.393804,8.25113 0.570083,8.5805 0.254201,0.47498 0.528629,0.54234 2.209537,0.54234 2.361823,0 2.735157,-0.286 2.735157,-2.0953 0,-0.70369 0.08761,-1.27931 0.194697,-1.27917 0.107083,1.5e-4 0.513505,0.56791 0.90316,1.26169 1.057137,1.88224 1.188566,1.94568 3.705451,1.78866 1.499293,-0.0935 2.507066,-0.0263 3.174654,0.21194 1.179075,0.42071 2.719743,0.46196 3.997548,0.10703 z m -3.266064,-0.81046 c -1.225086,-0.28222 -1.847091,-0.80193 -2.506788,-2.09449 -0.582057,-1.14044 -0.607814,-1.34357 -0.147989,-1.16712 0.188968,0.0725 0.977488,-0.26281 1.752267,-0.74515 0.774779,-0.48235 1.563493,-0.87963 1.752697,-0.88285 0.189203,-0.003 1.130541,0.4614 2.091861,1.03251 0.961319,0.57111 1.816171,1.03838 1.899675,1.03838 0.444689,0 0.373846,-0.96163 -0.193801,-2.63057 -0.708139,-2.08202 -0.77703,-1.8204 0.988375,-3.75337 0.924049,-1.01175 0.617631,-1.34004 -1.356462,-1.45326 l -1.402509,-0.0804 -0.685064,-1.68737 c -0.497195,-1.22463 -0.817195,-1.68736 -1.166893,-1.68736 -0.349677,0 -0.669785,0.4628 -1.1671,1.68736 l -0.685269,1.68737 -1.604867,0.0773 c -1.048012,0.0505 -1.604867,0.18723 -1.604867,0.39415 0,0.17428 0.466529,0.88143 1.036732,1.57145 0.840086,1.01662 1.00409,1.38502 0.86464,1.94221 -0.649078,2.59348 -0.793397,3.01863 -1.009753,2.97466 -0.133448,-0.0271 -0.798917,-1.09101 -1.478821,-2.3642 l -1.23619,-2.3149 1.214706,-2.9575 c 1.340672,-3.26418 1.808176,-3.92607 3.320761,-4.70153 1.97719,-1.01364 5.139128,-0.21378 6.847767,1.73225 1.10872,1.26276 1.533049,2.14935 2.019707,4.21994 0.94597,4.02481 -0.382737,7.96945 -3.188502,9.46597 -1.479368,0.78906 -2.939195,1.02259 -4.354313,0.69658 z m -12.833919,-0.54726 c -0.119733,-0.32125 -0.304667,-3.67976 -0.410965,-7.46336 -0.106298,-3.7836 -0.209874,-7.17131 -0.23017,-7.52826 -0.03455,-0.60756 0.05246,-0.65407 1.363041,-0.72873 0.783504,-0.0446 1.526504,0.0463 1.687368,0.20649 0.158085,0.15743 0.345835,1.36149 0.417224,2.6757 0.171942,3.1653 0.546606,3.15004 1.883348,-0.0767 0.56191,-1.35638 1.141648,-2.61217 1.288307,-2.79064 0.373981,-0.45511 2.776074,-0.42678 2.953207,0.0348 0.07584,0.19762 -0.51192,1.9084 -1.306122,3.80175 -0.794202,1.89334 -1.444004,3.67853 -1.444004,3.96709 0,0.28855 0.825672,2.09416 1.834828,4.01245 1.009155,1.91829 1.772137,3.65117 1.695515,3.85084 -0.09373,0.24427 -0.565577,0.36304 -1.442179,0.36304 -1.456601,0 -1.529094,-0.0766 -3.378286,-3.56943 -0.617421,-1.16621 -1.005532,-1.62247 -1.380138,-1.62247 -0.495132,0 -0.513901,0.12171 -0.375781,2.43679 0.09709,1.6273 0.04939,2.53279 -0.143576,2.72575 -0.158926,0.15893 -0.852574,0.28896 -1.541439,0.28896 -1.061303,0 -1.28571,-0.0892 -1.470178,-0.58409 z m 37.127498,0.16365 c -0.479317,-0.33573 -0.72879,-0.36188 -1.238155,-0.1298 -0.866242,0.39469 -2.267921,0.36559 -3.307199,-0.0686 l -0.859896,-0.35929 -0.297569,-3.46974 c -0.163664,-1.90836 -0.374097,-5.07715 -0.467632,-7.04176 -0.156102,-3.27877 -0.129706,-3.61662 0.321506,-4.1152 1.030806,-1.13903 1.849275,-1.35045 4.505499,-1.16382 2.699318,0.18966 3.95897,0.64958 4.750888,1.73465 0.612411,0.83911 0.842812,2.47753 0.480531,3.41716 -0.241478,0.62631 -0.412969,0.71389 -1.397927,0.71389 -1.253107,0 -1.745712,-0.34014 -1.745712,-1.20538 0,-0.32029 -0.259629,-0.7642 -0.576953,-0.98646 -0.727003,-0.50922 -2.884542,-0.53577 -3.295528,-0.0406 -0.367527,0.44284 -0.958627,7.53664 -0.71041,8.52562 0.174411,0.6949 0.2577,0.73807 2.16598,1.12254 0.655146,0.132 1.770999,-0.75985 2.014653,-1.61022 0.108625,-0.37911 -0.04898,-0.80156 -0.498212,-1.33544 -0.714518,-0.84916 -0.856368,-1.9048 -0.316192,-2.3531 0.315096,-0.26151 0.893014,-0.23991 3.264023,0.122 l 0.879184,0.1342 -0.181891,3.6808 c -0.246659,4.99153 -0.19737,4.84899 -1.676654,4.84899 -0.697031,0 -1.467138,-0.17866 -1.812334,-0.42044 z M 68.59869,284.87356 c -0.403196,-0.48582 -0.253726,-1.55687 0.509429,-3.65041 0.47758,-1.31013 0.552289,-1.96997 0.470275,-4.15352 -0.08871,-2.36191 -0.186758,-2.7856 -1.087514,-4.6995 -0.544509,-1.15695 -0.950437,-2.38353 -0.902064,-2.72574 0.08492,-0.60078 0.163843,-0.62221 2.291866,-0.62221 h 2.203915 l 0.838658,1.42777 c 1.379771,2.349 1.303757,2.2644 1.632791,1.81717 0.168324,-0.22879 0.236917,-1.01204 0.16631,-1.89907 -0.129811,-1.63075 -0.152243,-1.60258 1.454236,-1.8263 1.467901,-0.20441 1.650687,0.14296 1.846912,3.50987 0.09428,1.61769 0.293942,5.03139 0.443695,7.58602 0.149755,2.55462 0.177934,4.738 0.06262,4.85195 -0.115312,0.11395 -1.103697,0.28763 -2.196408,0.38596 l -1.986749,0.17879 -1.093365,-1.99217 c -0.601352,-1.09569 -1.225945,-1.94852 -1.387987,-1.89518 -0.16794,0.0553 -0.350433,0.92538 -0.42442,2.02354 l -0.129797,1.92655 -1.190916,0.0774 c -0.828355,0.0538 -1.291553,-0.0439 -1.521489,-0.32092 z m 13.932919,-4.1047 c -0.387075,-0.29163 -0.404522,-0.67947 -0.172239,-3.82903 0.142152,-1.92749 0.309972,-3.65055 0.372934,-3.82903 0.120629,-0.34193 1.103017,-0.43319 1.796907,-0.16692 0.225845,0.0867 0.410625,0.41479 0.410625,0.72917 0,0.31438 0.171512,0.79836 0.381137,1.07551 0.55484,0.73356 0.488319,0.8933 -0.372005,0.8933 -0.875097,0 -1.162329,0.3982 -1.42296,1.97269 -0.151782,0.91694 -0.08035,1.17795 0.516506,1.88727 0.564944,0.6714 0.633864,0.894 0.373807,1.20735 -0.389395,0.46919 -1.302783,0.49812 -1.884712,0.0597 z m -19.426205,-0.65522 -1.196625,-0.68868 -1.190787,0.63171 c -0.654932,0.34744 -1.242718,0.57681 -1.306189,0.5097 -0.06347,-0.0671 0.0082,-0.7176 0.159162,-1.44555 0.259785,-1.25229 0.235759,-1.37442 -0.446272,-2.26862 -0.775385,-1.01658 -0.713246,-1.11962 0.762307,-1.26408 0.63149,-0.0618 0.876627,-0.28722 1.309925,-1.20443 0.29318,-0.6206 0.637382,-1.12571 0.764895,-1.12247 0.12751,0.003 0.429035,0.51025 0.670051,1.12668 0.396028,1.0129 0.547491,1.14219 1.573375,1.34307 0.624339,0.12225 1.185054,0.27025 1.246035,0.32888 0.06098,0.0586 -0.218036,0.44992 -0.620037,0.86952 -0.747307,0.78001 -0.800462,1.47795 -0.252875,3.3203 0.219016,0.73687 0.01025,0.71759 -1.472965,-0.13603 z m -11.54193,-14.67836 c -1.755837,-0.83958 -3.040274,-2.37025 -2.871644,-3.42217 0.727105,-4.53565 1.039878,-5.28859 1.644507,-3.95882 0.188801,0.41523 0.166635,0.95933 -0.07667,1.88206 -0.409127,1.55161 -0.450117,2.38301 -0.127322,2.58251 0.130812,0.0808 0.948251,-0.2762 1.81653,-0.79343 l 1.57869,-0.94042 1.798286,1.06834 c 2.708696,1.60921 2.897092,1.47623 1.962904,-1.38558 l -0.64963,-1.99009 1.040806,-1.23433 c 0.572443,-0.67889 1.040805,-1.37284 1.040805,-1.54212 0,-0.18618 -0.435918,-0.315 -1.103279,-0.32604 -1.733911,-0.0287 -2.065157,-0.27491 -2.799951,-2.08138 -0.899544,-2.21151 -1.358372,-2.20693 -2.286934,0.0229 l -0.702676,1.68737 -1.233472,0.0794 c -1.180267,0.076 -1.248617,0.0424 -1.584587,-0.77878 -0.814889,-1.99177 -0.816319,-1.98359 0.583141,-3.33249 1.671526,-1.61114 2.852712,-1.99397 4.889919,-1.58484 2.615036,0.52518 4.32659,2.07366 5.275185,4.77258 2.047832,5.82645 -0.485135,11.39349 -5.361407,11.78347 -1.235383,0.0988 -1.761078,0.005 -2.833199,-0.50812 z m 25.619368,0.27324 c -0.44897,-0.23292 -0.899661,-1.05276 -1.646892,-2.99585 -0.78756,-2.04796 -1.129548,-2.65584 -1.458631,-2.59269 -0.341157,0.0655 -0.483441,0.59076 -0.689464,2.54539 l -0.259595,2.46289 -0.952997,0.0793 -0.952997,0.0793 -0.21518,-1.50712 c -0.329876,-2.31043 -0.236793,-11.67149 0.132336,-13.309 0.36958,-1.6395 0.567005,-1.81749 2.021952,-1.82289 1.423871,-0.005 1.625237,0.31595 1.380732,2.20259 -0.111021,0.85666 -0.211716,2.06261 -0.223763,2.67988 -0.03333,1.70759 0.562,1.32232 2.135359,-1.38191 l 1.359325,-2.33635 1.291947,-0.0675 c 0.710572,-0.0371 1.467175,0.0483 1.681341,0.18975 0.44343,0.29294 0.662105,-0.18139 -2.16217,4.69 l -1.73646,2.9951 1.445833,3.94845 c 0.795207,2.17164 1.37346,4.06553 1.285006,4.20866 -0.222702,0.36033 -1.68883,0.31934 -2.435682,-0.0681 z M 38.647236,265.4272 c -0.274201,-0.2194 -0.425388,-1.26597 -0.568196,-3.93328 -0.107021,-1.99888 -0.219588,-4.1016 -0.25015,-4.67271 -0.03056,-0.57111 -0.148827,-2.45829 -0.262813,-4.19373 l -0.207248,-3.15536 1.753815,-0.18782 c 4.632483,-0.49609 6.862207,0.59977 8.497725,4.17647 0.494844,1.08217 0.587758,1.73195 0.591878,4.13923 0.0042,2.45459 -0.08148,3.0466 -0.610236,4.21625 -0.705719,1.56111 -2.164345,2.99789 -3.439568,3.38807 -1.377738,0.42153 -5.070099,0.57102 -5.505207,0.22288 z m 5.014132,-4.51736 c 0.991543,-0.90273 1.405642,-2.81609 1.033808,-4.77676 -0.263821,-1.39113 -0.517403,-1.86188 -1.409129,-2.61593 -0.705052,-0.5962 -2.12838,-0.59958 -2.43113,-0.006 -0.239515,0.46977 0.03619,6.62599 0.339544,7.58179 0.250234,0.78842 1.501704,0.69541 2.466907,-0.18333 z m -1.646671,-0.52286 c -0.06743,-0.1091 -0.206027,-1.55322 -0.308001,-3.20917 -0.201376,-3.27011 -0.05628,-3.70059 1.011461,-3.00098 1.595974,1.04573 1.542627,6.40851 -0.06375,6.40851 -0.284414,0 -0.572284,-0.0893 -0.63971,-0.19836 z m 17.837071,4.99769 c -0.219642,-0.57238 0.0205,-1.59598 0.816053,-3.47845 0.647233,-1.5315 0.695393,-1.88403 0.602888,-4.41311 -0.104182,-2.84834 -0.291063,-3.44684 -2.055354,-6.58238 -0.834008,-1.48222 -0.437787,-1.78659 2.203286,-1.69253 l 2.098789,0.0748 0.893828,1.88206 c 1.19341,2.51288 1.578138,2.47152 1.578138,-0.16964 v -2.05171 l 1.322943,-0.0899 c 0.727616,-0.0495 1.446853,-0.0133 1.598303,0.0803 0.161232,0.0997 0.367154,1.98262 0.496829,4.54291 0.12181,2.40494 0.324302,5.88589 0.449982,7.73543 0.125683,1.84955 0.1768,3.49758 0.113594,3.66229 -0.06448,0.16803 -0.98738,0.37323 -2.102629,0.4675 -2.227259,0.18827 -2.237479,0.183 -3.197965,-1.65171 -0.77275,-1.47608 -1.284266,-2.10291 -1.571298,-1.92552 -0.123694,0.0764 -0.2249,0.93733 -0.2249,1.91307 0,1.98025 -0.0963,2.08921 -1.846544,2.08921 -0.675599,0 -1.076677,-0.13389 -1.175943,-0.39257 z m 21.2783,0.0886 c -0.150228,-0.18978 -0.349703,-1.51323 -0.44328,-2.94101 -0.09357,-1.42777 -0.277683,-3.92841 -0.409134,-5.55697 l -0.239002,-2.96103 1.02282,-1.86363 c 0.562551,-1.02499 1.022818,-2.04969 1.022818,-2.27709 0,-0.42886 0.517456,-0.52378 4.456038,-0.81739 1.174732,-0.0876 1.812897,-0.0286 1.987568,0.18369 0.364342,0.44279 0.623231,2.58457 0.359973,2.97804 -0.132212,0.19761 -1.094175,0.39328 -2.408575,0.48992 -1.203646,0.0885 -2.392877,0.26581 -2.642737,0.39401 -0.509671,0.26151 -0.585842,1.133 -0.190024,2.17409 0.262822,0.69127 0.276669,0.69456 2.527662,0.60098 l 2.263393,-0.0941 0.242538,1.13916 c 0.314592,1.47757 -0.134533,1.84619 -2.249402,1.84619 -2.045204,0 -2.530294,0.28848 -2.525294,1.5018 0.0067,1.63368 0.155085,1.7111 2.958226,1.54387 2.895645,-0.17276 3.094015,-0.0326 2.95745,2.09017 l -0.07876,1.22424 -1.687368,0.16295 c -5.00438,0.48329 -6.652193,0.52662 -6.924908,0.1821 z m 11.144162,0.1162 c -0.957795,-0.1189 -1.265825,-0.79522 -1.008932,-2.21523 0.08378,-0.46309 0.170037,-1.78676 0.191693,-2.9415 0.03392,-1.8085 -0.08504,-2.43822 -0.858146,-4.54291 -0.817234,-2.22483 -0.887421,-2.63497 -0.784624,-4.58505 0.0791,-1.50055 0.211718,-2.14166 0.443015,-2.14166 0.546195,0 0.942662,0.67393 1.796828,3.05431 0.518316,1.44444 0.951294,2.26739 1.192944,2.26739 0.231686,0 0.791951,-0.95986 1.439483,-2.46616 l 1.060158,-2.46615 1.174106,-0.0774 c 2.011702,-0.13262 1.999962,0.12096 -0.220528,4.76505 l -1.9788,4.13858 -0.153184,3.44966 c -0.152442,3.43288 -0.333933,4.0274 -1.191568,3.90328 -0.142777,-0.0207 -0.638879,-0.0847 -1.102445,-0.14221 z M 78.573381,259.6824 c -0.715953,-1.96301 -0.716319,-1.96755 -0.231424,-2.86795 0.267116,-0.496 0.565647,-0.90182 0.663408,-0.90182 0.362003,0 0.781379,5.23962 0.446203,5.5748 -0.0886,0.0886 -0.48379,-0.72366 -0.878187,-1.80503 z m -23.836034,0.70612 -0.998044,-0.68481 -1.078717,0.57133 c -1.507859,0.79863 -1.744336,0.75426 -1.449988,-0.27207 0.3666,-1.27826 0.293414,-1.99545 -0.277716,-2.72153 -0.702026,-0.89248 -0.654925,-1.10921 0.241052,-1.10921 0.91943,0 1.435111,-0.47355 1.834926,-1.685 0.165353,-0.50103 0.406147,-0.91096 0.535098,-0.91096 0.128951,0 0.499549,0.55489 0.823552,1.23308 0.552181,1.15581 0.658231,1.23808 1.692375,1.3129 1.242755,0.0899 1.344899,0.27138 0.553448,0.98322 -0.823971,0.7411 -0.979202,1.41649 -0.583562,2.53903 0.195034,0.55336 0.354607,1.10825 0.354607,1.23308 0,0.39934 -0.621014,0.21494 -1.647031,-0.48906 z m 30.389369,0.55676 c -0.102784,-0.10278 -0.18688,-0.38644 -0.18688,-0.63035 0,-0.49758 0.956937,-0.76797 2.717963,-0.76797 1.318003,0 1.954748,-0.58244 1.954748,-1.78803 0,-0.46121 0.108295,-0.77163 0.240655,-0.68983 0.440307,0.27213 0.851399,1.98057 0.687192,2.85587 l -0.161966,0.86335 -1.965125,0.0295 c -1.080816,0.0163 -2.220405,0.0936 -2.532417,0.17192 -0.31201,0.0783 -0.651389,0.0583 -0.75417,-0.0445 z m -0.70607,-6.58527 c 0,-0.6466 0.712001,-0.83742 2.736565,-0.7334 1.377858,0.0708 1.55581,0.14324 1.629707,0.66355 0.08049,0.56674 0.01687,0.58409 -2.14166,0.58409 -2.044417,0 -2.224612,-0.0417 -2.224612,-0.51424 z m -9.47522,-6.49483 c -0.08824,-0.14277 0.02168,-0.25959 0.244273,-0.25959 0.222593,0 0.404714,0.11682 0.404714,0.25959 0,0.14278 -0.109923,0.2596 -0.244273,0.2596 -0.134351,0 -0.316473,-0.11682 -0.404714,-0.2596 z"
       style="fill:#ff0000;stroke-width:0.25959507" />
    <path
       inkscape:connector-curvature="0"
       id="path2274"
       d="m 62.031009,288.52702 c -0.77901,-0.29073 -1.35727,-0.3078 -2.89982,-0.0856 -1.70074,0.24501 -2.05287,0.22072 -3.00166,-0.20713 -1.0141,-0.45729 -1.11662,-0.46005 -1.81294,-0.0487 -0.52391,0.30948 -1.33498,0.43598 -2.79533,0.43598 -1.95896,0 -2.1243,-0.0468 -3.46009,-0.98006 -0.77155,-0.53902 -1.53803,-1.25124 -1.70327,-1.5827 -0.18575,-0.37256 -0.37076,-3.04611 -0.4846,-7.00249 -0.10128,-3.51992 -0.26009,-7.27598 -0.35292,-8.34681 l -0.16879,-1.94696 -2.72574,0.0869 -2.725753,0.0869 -1.484855,-1.06909 c -1.1418,-0.82209 -1.544229,-1.29199 -1.741849,-2.03388 -0.141347,-0.53063 -0.383772,-3.35955 -0.538722,-6.28649 -0.154951,-2.92693 -0.40083,-6.33504 -0.546399,-7.57358 -0.283924,-2.41568 -0.0083,-3.53352 1.004674,-4.07431 0.248383,-0.13261 1.863613,-0.32517 3.589401,-0.42792 2.859783,-0.17027 3.246873,-0.13858 4.368853,0.35773 0.67709,0.29951 1.68939,0.90756 2.24958,1.35124 l 1.01851,0.80668 0.81268,-0.68383 c 2.18034,-1.83463 4.78449,-2.37324 7.25472,-1.50046 1.30116,0.45973 1.52286,0.4735 2.16941,0.13474 0.69875,-0.36612 1.15301,-0.36827 6.92034,-0.0328 0.65702,0.0382 0.66463,0.0588 0.29524,0.7993 l -0.37917,0.76007 -0.73716,-0.70624 c -0.71935,-0.68918 -0.795,-0.70294 -3.13215,-0.56968 -2.19425,0.12511 -2.43562,0.19233 -2.87969,0.80193 l -0.48469,0.66538 -1.19507,-0.63542 c -0.89764,-0.47728 -1.58926,-0.63401 -2.77888,-0.62973 -1.92288,0.007 -3.32593,0.59389 -4.91015,2.05417 l -1.15077,1.06075 -0.65067,-0.85307 c -0.35787,-0.46919 -1.27319,-1.19189 -2.03404,-1.606 -1.31286,-0.71455 -1.52946,-0.75029 -4.249637,-0.70127 -3.23323,0.0583 -3.674106,0.14521 -4.020715,0.79285 -0.262935,0.4913 0.564158,15.87765 0.898078,16.70688 0.265737,0.65991 1.179407,0.80606 3.915614,0.62632 2.79055,-0.1833 3.79488,-0.53564 5.23468,-1.83641 0.56849,-0.51359 1.13627,-0.93381 1.26175,-0.9338 0.12547,1e-5 0.5463,0.39877 0.93518,0.88615 0.38888,0.48737 1.35166,1.20151 2.13952,1.58697 1.22738,0.60051 1.68364,0.6863 3.18687,0.59924 1.14742,-0.0665 2.19277,-0.31486 3.02141,-0.71798 l 1.26701,-0.61638 0.46419,0.6154 c 0.40711,0.5397 0.65038,0.60782 1.97794,0.55377 2.01294,-0.0819 2.40471,-0.23112 2.70901,-1.03149 l 0.25695,-0.67583 0.64629,0.69699 0.64628,0.69698 3.98845,-0.0756 c 4.34768,-0.0824 4.81874,-0.22808 4.81874,-1.49043 0,-0.84724 0.23168,-1.54702 0.51218,-1.54702 0.10837,0 0.45483,0.70704 0.76992,1.57119 0.43601,1.19582 0.73892,1.63487 1.26786,1.83774 0.75141,0.2882 5.50377,0.14903 10.86364,-0.31814 2.25107,-0.1962 3.30985,-0.19498 3.68216,0.004 0.28741,0.15382 1.15464,0.27967 1.92717,0.27967 2.05577,0 2.17241,-0.21515 2.39232,-4.41311 l 0.18358,-3.50454 1.92074,-4.11404 c 1.056408,-2.26274 1.920748,-4.38036 1.920748,-4.70583 0,-0.84401 -0.54534,-1.18901 -2.123738,-1.34354 -1.75469,-0.17179 -2.14444,0.11547 -3.0495,2.24762 -0.38607,0.90952 -0.82876,1.69594 -0.98376,1.74761 -0.155,0.0517 -0.54249,-0.70049 -0.8611,-1.67145 -0.3186,-0.97096 -0.68258,-1.89663 -0.80884,-2.05704 -0.43828,-0.5568 -2.97607,-0.65402 -8.49812,-0.32556 l -5.55187,0.33024 -0.67842,0.9585 c -0.37313,0.52717 -0.81074,1.17583 -0.97246,1.44146 -0.45357,0.74497 -0.60611,0.33557 -0.40329,-1.08237 0.13802,-0.96487 0.29493,-1.28942 0.62352,-1.28976 0.2415,-2.5e-4 0.60063,-0.22082 0.79805,-0.49015 0.30024,-0.40959 0.78001,-0.50554 2.9325,-0.5865 1.41546,-0.0532 3.91695,-0.20667 5.55889,-0.34097 1.64194,-0.13431 3.73414,-0.15246 4.64934,-0.0403 1.68294,0.20616 2.00952,0.41857 3.08151,2.00424 0.27795,0.41113 0.3593,0.42829 0.49672,0.10476 0.0904,-0.21279 0.48671,-0.70927 0.88072,-1.10328 0.63584,-0.63583 0.90698,-0.71638 2.41151,-0.71638 0.93231,0 1.968678,0.12464 2.303028,0.27698 0.60222,0.27439 2.531663,3.06748 2.531663,3.66486 0,0.17068 -0.92238,2.30324 -2.049743,4.73902 l -2.049738,4.42869 -0.16047,3.49169 c -0.14391,3.13112 -0.22021,3.55528 -0.73896,4.10746 -0.52401,0.55779 -0.73753,0.60359 -2.2678,0.48644 -0.92912,-0.0711 -2.11409,-0.20765 -2.63325,-0.30338 -0.55683,-0.10268 -1.17228,-0.0519 -1.50076,0.12395 -0.55207,0.29546 -0.55261,0.304 -0.0628,0.99843 0.2717,0.38524 0.80978,1.32713 1.19574,2.09309 0.63799,1.26614 0.68801,1.57273 0.55055,3.37473 -0.0832,1.09015 -0.14532,2.69349 -0.13814,3.56299 0.007,0.8695 -0.10503,3.26427 -0.24938,5.3217 -0.2523,3.59597 -0.28974,3.76449 -0.96696,4.35306 -0.63841,0.55483 -0.85229,0.59475 -2.27973,0.42551 -0.86638,-0.10272 -2.51309,-0.22527 -3.65935,-0.27233 -1.14627,-0.0471 -2.37598,-0.19653 -2.73268,-0.33215 -0.35671,-0.13562 -1.95709,-0.18455 -3.5564,-0.10875 -2.06941,0.0981 -3.01674,0.0475 -3.28553,-0.17563 -0.29872,-0.24791 -0.50821,-0.22794 -1.00187,0.0955 -0.38668,0.25336 -1.3206,0.43282 -2.45451,0.47166 -1.50179,0.0514 -1.93022,-0.0274 -2.38681,-0.43932 -0.55121,-0.49726 -0.56804,-0.49633 -1.78128,0.0992 -1.52229,0.74723 -4.18361,0.95642 -5.57259,0.43804 z m 2.17536,-2.24695 c 0.5185,-0.14402 1.38765,-0.56379 1.93144,-0.93282 l 0.98873,-0.67097 0.49146,0.67468 c 0.44326,0.60849 0.65922,0.67467 2.20164,0.67467 1.74063,0 2.65964,-0.41755 2.65964,-1.20841 0,-0.52297 0.25497,-0.42505 0.84438,0.32426 0.52081,0.6621 0.5825,0.67289 3.67169,0.64233 3.60114,-0.0356 6.97455,0.15267 8.85307,0.49413 3.0058,0.54636 3.36813,0.24399 3.60625,-3.00947 0.51735,-7.0687 0.52353,-6.50254 -0.0766,-7.01642 l -0.55183,-0.47249 0.58787,-0.44343 c 0.52357,-0.39493 0.58787,-0.66733 0.58787,-2.49033 0,-1.85731 -0.0695,-2.13805 -0.75063,-3.03102 -1.00456,-1.31704 -2.40391,-1.87368 -5.25541,-2.0905 -2.34834,-0.17857 -3.0712,-0.0215 -5.04692,1.09665 -0.0825,0.0467 -0.28441,-0.2102 -0.44873,-0.57084 -0.27778,-0.60966 -0.42546,-0.65571 -2.10295,-0.65571 -1.84228,0 -2.62005,0.35228 -2.62005,1.18672 0,0.53377 -0.24733,0.4599 -0.93132,-0.27814 -0.52825,-0.56998 -0.81628,-0.64881 -2.36613,-0.64754 -2.24239,0.002 -3.63287,0.37985 -3.84398,1.04501 -0.20787,0.65494 -0.34272,0.64431 -1.74107,-0.13724 -1.68163,-0.93989 -3.13068,-1.06806 -4.98557,-0.44099 l -1.5373,0.51971 -0.70688,-0.52263 c -0.60554,-0.44769 -0.93241,-0.49644 -2.27996,-0.34004 -1.72124,0.19977 -2.02807,0.4347 -2.66399,2.03974 -0.57014,1.43902 -1.00939,1.523 -1.00939,0.19298 0,-0.73471 -0.16931,-1.22932 -0.5517,-1.61172 -0.49366,-0.49365 -0.73267,-0.53333 -2.27146,-0.37706 -0.94586,0.0961 -1.88456,0.33808 -2.086,0.53784 -0.31169,0.30909 -0.32457,1.56065 -0.0864,8.40136 0.16995,4.88186 0.3938,8.25113 0.57008,8.5805 0.2542,0.47498 0.52863,0.54234 2.20954,0.54234 2.36182,0 2.73516,-0.286 2.73516,-2.0953 0,-0.70369 0.0876,-1.27931 0.19469,-1.27917 0.10709,1.5e-4 0.51351,0.56791 0.90316,1.26169 1.05714,1.88224 1.18857,1.94568 3.70545,1.78866 1.4993,-0.0935 2.50707,-0.0263 3.17466,0.21194 1.17907,0.42071 2.71974,0.46196 3.99755,0.10703 z m 4.22918,-2.461 c 0.0547,-0.57111 0.34057,-1.68088 0.63532,-2.46615 0.31679,-0.84398 0.54895,-2.11772 0.5678,-3.11514 0.0291,-1.54159 0.0536,-1.61186 0.28336,-0.81334 0.30623,1.06439 -0.11529,4.11955 -0.73327,5.31459 -0.23239,0.4494 -0.5193,1.10988 -0.63758,1.46775 -0.16863,0.51022 -0.19359,0.42653 -0.11563,-0.38771 z m -20.5207,-2.07676 c 6e-4,-1.57055 0.0433,-2.17958 0.095,-1.3534 0.0517,0.82619 0.0512,2.11118 -0.001,2.85555 -0.0523,0.74437 -0.0945,0.0684 -0.094,-1.50215 z m 18.07455,0.76346 c 0,-0.22259 0.11872,-0.33133 0.26383,-0.24165 0.14511,0.0897 0.19662,0.2718 0.11448,0.40471 -0.22254,0.36007 -0.37831,0.29293 -0.37831,-0.16306 z m -7.26866,-0.0538 c 0,-0.35045 2.85001,-1.91713 3.3155,-1.82257 0.29887,0.0607 -0.0976,0.41332 -1.18775,1.05632 -1.63396,0.96376 -2.12775,1.14159 -2.12775,0.76625 z m 24.53173,-0.34248 c -0.44784,-0.21163 -0.42764,-0.22792 0.14698,-0.11859 0.77082,0.14667 1.73378,-0.43706 2.06177,-1.24983 0.19668,-0.48738 0.22654,-0.4529 0.24095,0.27824 0.0238,1.20727 -1.12242,1.71737 -2.4497,1.09018 z m -3.84966,-2.24363 c -0.0885,-1.25238 -0.2393,-3.88446 -0.33515,-5.84907 -0.16014,-3.28201 -0.13438,-3.61612 0.31728,-4.1152 0.84379,-0.93238 1.80965,-1.27052 3.53015,-1.23589 l 1.63536,0.0329 -1.60461,0.20899 c -1.73656,0.22618 -2.66739,0.70081 -3.31612,1.69091 -0.3696,0.56407 -0.38262,1.20303 -0.12173,5.9698 0.1607,2.93597 0.23896,5.39134 0.17393,5.45637 -0.065,0.065 -0.19063,-0.90644 -0.27911,-2.15882 z m 3.1288,0.90299 c -0.38707,-0.29163 -0.40452,-0.67947 -0.17223,-3.82903 0.14215,-1.92749 0.30997,-3.65055 0.37293,-3.82903 0.12063,-0.34193 1.10302,-0.43319 1.79691,-0.16692 0.22584,0.0867 0.41062,0.41479 0.41062,0.72917 0,0.31438 0.17151,0.79836 0.38114,1.07551 0.55484,0.73356 0.48832,0.8933 -0.37201,0.8933 -0.87509,0 -1.16233,0.3982 -1.42296,1.97269 -0.15178,0.91694 -0.0804,1.17795 0.51651,1.88727 0.56494,0.6714 0.63386,0.894 0.37381,1.20735 -0.3894,0.46919 -1.30279,0.49812 -1.88472,0.0597 z m -19.4262,-0.65522 -1.19663,-0.68868 -1.19078,0.63171 c -0.65493,0.34744 -1.24272,0.57681 -1.30619,0.5097 -0.0635,-0.0671 0.008,-0.7176 0.15916,-1.44555 0.25979,-1.25229 0.23576,-1.37442 -0.44627,-2.26862 -0.77539,-1.01658 -0.71325,-1.11962 0.76231,-1.26408 0.63149,-0.0618 0.87662,-0.28722 1.30992,-1.20443 0.29318,-0.6206 0.63738,-1.12571 0.7649,-1.12247 0.12751,0.003 0.42903,0.51025 0.67005,1.12668 0.39602,1.0129 0.54749,1.14219 1.57337,1.34307 0.62434,0.12225 1.18506,0.27025 1.24604,0.32888 0.061,0.0586 -0.21804,0.44992 -0.62004,0.86952 -0.74731,0.78001 -0.80046,1.47795 -0.25288,3.3203 0.21902,0.73687 0.0102,0.71759 -1.47296,-0.13603 z m 1.84729,-1.81094 c 0.003,-0.30517 2.08741,-2.66084 2.35488,-2.66084 0.45834,0 0.23269,0.45371 -0.82105,1.65081 -0.98282,1.11655 -1.5379,1.48206 -1.53383,1.01003 z m 19.47811,-0.4874 c -0.0146,-1.16765 0.38599,-1.37625 2.1964,-1.14365 l 1.55757,0.20011 -1.5052,0.034 c -1.43732,0.0325 -1.52175,0.0721 -1.87191,0.87772 l -0.3667,0.84369 -0.0101,-0.8119 z m -29.18742,-0.57189 c -0.21245,-0.34375 2.13851,-6.00056 2.80688,-6.75382 0.83265,-0.93842 2.34075,-1.60016 3.58057,-1.57113 l 1.11362,0.0261 -0.97751,0.2303 c -1.25445,0.29554 -2.80103,1.08571 -3.33088,1.70178 -0.22795,0.26506 -0.97034,1.82532 -1.64974,3.46726 -1.38134,3.33835 -1.33063,3.24306 -1.54294,2.89953 z m -7.58707,-3.67832 c 0,-1.64193 0.0421,-2.31364 0.0937,-1.49267 0.0515,0.82097 0.0515,2.16438 0,2.98535 -0.0515,0.82097 -0.0937,0.14926 -0.0937,-1.49268 z m 4.05535,1.22 c 0,-0.27243 2.14732,-5.26801 2.39347,-5.56821 0.1564,-0.19075 0.81468,-0.31277 1.59714,-0.29605 l 1.33109,0.0284 -1.14956,0.22552 c -0.63226,0.12403 -1.23586,0.31566 -1.34133,0.42584 -0.10547,0.11019 -0.64708,1.30289 -1.20358,2.65045 -0.5565,1.34757 -1.15029,2.49628 -1.31952,2.55269 -0.16924,0.0564 -0.30771,0.048 -0.30771,-0.0187 z m 23.00722,-3.10206 c 0.23159,-1.51194 0.35634,-1.54981 0.35634,-0.10816 0,0.66629 -0.1182,1.21144 -0.26266,1.21144 -0.16246,0 -0.1982,-0.42089 -0.0937,-1.10328 z m -7.08763,-1.75227 0.0455,-0.90858 1.94696,-0.0317 1.94697,-0.0317 -1.6097,0.16146 c -1.68675,0.16918 -2.01661,0.3459 -2.23964,1.19984 -0.0746,0.28555 -0.11513,0.11032 -0.0901,-0.3894 z m -20.21685,0.18705 c -0.28231,-0.73569 0.13296,-0.96712 1.65173,-0.9205 1.2887,0.0396 1.33703,0.058 0.37849,0.14451 -0.74811,0.0675 -1.22167,0.27449 -1.48361,0.64847 -0.33431,0.47729 -0.40598,0.49401 -0.54661,0.12752 z m 27.14163,-0.80397 c 0,-0.48668 0.18456,-0.57215 1.68737,-0.78138 0.71322,-0.0993 0.91644,-0.0668 0.64898,0.10369 -0.21416,0.13655 -0.61383,0.25005 -0.88814,0.25224 -0.27431,0.002 -0.71238,0.1973 -0.97348,0.4336 -0.44208,0.40008 -0.47473,0.39952 -0.47473,-0.008 z m -36.262871,-5.48358 c 0.0015,-0.85666 0.04992,-1.17582 0.107696,-0.70924 0.05778,0.46659 0.05658,1.16749 -0.0027,1.55757 -0.05923,0.39008 -0.106504,0.008 -0.105047,-0.84833 z m 42.570941,0.1298 c 0,-0.78528 0.0487,-1.10653 0.10814,-0.71389 0.0595,0.39264 0.0595,1.03514 0,1.42777 -0.0595,0.39264 -0.10814,0.0714 -0.10814,-0.71388 z m 10.43595,0.97348 c -0.0624,-0.17847 -0.0172,-1.60949 0.10037,-3.18004 l 0.21374,-2.85555 0.0376,3.18004 c 0.0346,2.93043 -0.0593,3.69261 -0.35168,2.85555 z m -31.44063,-0.58409 c 0.057,-0.42833 0.40544,-1.47969 0.77429,-2.33636 0.49156,-1.14162 0.67825,-2.04283 0.69912,-3.37473 0.024,-1.53142 0.0665,-1.6947 0.27034,-1.03838 0.41739,1.34397 -0.005,3.86762 -0.96788,5.7806 -0.64557,1.28279 -0.85194,1.5405 -0.77587,0.96887 z m -2.30687,-1.42777 c 0.0882,-0.14278 0.27036,-0.2596 0.40471,-0.2596 0.13436,0 0.24428,0.11682 0.24428,0.2596 0,0.14277 -0.18212,0.25959 -0.40471,0.25959 -0.2226,0 -0.33252,-0.11682 -0.24428,-0.25959 z m -7.0189,-0.24368 c 0.15984,-0.25863 2.81531,-1.83308 3.09168,-1.83308 0.54068,0 -0.0275,0.59015 -1.23138,1.27892 -1.38612,0.79306 -2.14826,1.02009 -1.8603,0.55416 z m 20.3195,-0.89583 c -0.10508,-0.69812 -0.17627,-1.80789 -0.15821,-2.46616 0.029,-1.05649 0.0604,-0.98374 0.26806,0.62032 0.27797,2.14737 0.18093,3.77784 -0.10985,1.84584 z m -22.13359,0.10113 c 0.0832,-0.49972 0.32066,-1.72631 0.52772,-2.72575 l 0.37647,-1.81717 -0.0815,1.94697 c -0.0517,1.2349 -0.24466,2.23178 -0.52772,2.72574 l -0.44627,0.77879 z m 36.22027,0.27214 c 0,-0.10888 0.9631,-0.26397 2.14022,-0.34465 1.95507,-0.134 2.54479,-0.0901 2.25127,0.16742 -0.22548,0.19785 -4.39149,0.36597 -4.39149,0.17723 z m -42.1842,-0.63623 c 1.16297,-0.51334 1.65415,-1.20707 1.94663,-2.7493 0.34006,-1.79313 0.51953,-1.94903 0.51953,-0.45131 0,2.19259 -0.93201,3.57223 -2.40126,3.55454 l -0.843683,-0.0102 0.778783,-0.34377 z m 35.81775,-1.83683 c -0.71596,-1.96301 -0.71632,-1.96755 -0.23143,-2.86795 0.26712,-0.496 0.56565,-0.90182 0.66341,-0.90182 0.362,0 0.78138,5.23962 0.4462,5.5748 -0.0886,0.0886 -0.48379,-0.72366 -0.87818,-1.80503 z m 1.86993,-0.23008 c -0.11178,-1.12289 -0.14837,-2.09647 -0.0813,-2.16352 0.18325,-0.18325 0.48345,2.54975 0.3772,3.43403 -0.051,0.4241 -0.18411,-0.14763 -0.29588,-1.27051 z m -25.70597,0.9362 -0.99804,-0.68481 -1.07872,0.57133 c -1.50786,0.79863 -1.74433,0.75426 -1.44999,-0.27207 0.3666,-1.27826 0.29342,-1.99545 -0.27771,-2.72153 -0.70203,-0.89248 -0.65493,-1.10921 0.24105,-1.10921 0.91943,0 1.43511,-0.47355 1.83493,-1.685 0.16535,-0.50103 0.40614,-0.91096 0.53509,-0.91096 0.12895,0 0.49955,0.55489 0.82356,1.23308 0.55218,1.15581 0.65823,1.23808 1.69237,1.3129 1.24276,0.0899 1.3449,0.27138 0.55345,0.98322 -0.82397,0.7411 -0.9792,1.41649 -0.58356,2.53903 0.19503,0.55336 0.3546,1.10825 0.3546,1.23308 0,0.39934 -0.62101,0.21494 -1.64703,-0.48906 z m 30.38937,0.55676 c -0.10278,-0.10278 -0.18688,-0.38644 -0.18688,-0.63035 0,-0.49758 0.95694,-0.76797 2.71796,-0.76797 1.31801,0 1.95475,-0.58244 1.95475,-1.78803 0,-0.46121 0.1083,-0.77163 0.24066,-0.68983 0.4403,0.27213 0.8514,1.98057 0.68719,2.85587 l -0.16197,0.86335 -1.96512,0.0295 c -1.08082,0.0163 -2.22041,0.0936 -2.53242,0.17192 -0.31201,0.0783 -0.65139,0.0583 -0.75417,-0.0445 z m -47.128046,-1.52812 c -0.02895,-0.71388 -0.117481,-1.59002 -0.196743,-1.94696 -0.123021,-0.554 -0.10161,-0.58248 0.146294,-0.1946 0.160872,0.25171 0.248629,1.12014 0.196744,1.94696 l -0.09367,1.49258 z m 4.016028,0.96982 c -0.06743,-0.1091 -0.206027,-1.55322 -0.308001,-3.20917 -0.201376,-3.27011 -0.05628,-3.70059 1.011459,-3.00098 1.59598,1.04573 1.54263,6.40851 -0.0637,6.40851 -0.284412,0 -0.572282,-0.0893 -0.639708,-0.19836 z m 14.639248,-1.66207 c 0.0157,-0.54339 2.22565,-2.92569 2.42094,-2.6097 0.0943,0.15264 -0.31348,0.84121 -0.90627,1.53015 -1.16939,1.35906 -1.53013,1.61617 -1.51467,1.07955 z m -11.93085,-2.18492 c 0.0125,-0.30242 0.074,-0.36393 0.15684,-0.15684 0.075,0.18739 0.0658,0.41129 -0.0205,0.49755 -0.0863,0.0863 -0.14762,-0.0671 -0.13635,-0.34071 z m 26.0963,-2.31473 c 0.15325,-3.17918 0.49251,-5.07875 0.96017,-5.37606 0.45894,-0.29177 2.51687,-0.24732 2.51687,0.0544 0,0.14278 -0.45892,0.2596 -1.01983,0.2596 -1.51562,0 -1.7519,0.39705 -1.96358,3.29965 -0.28097,3.85262 -0.65954,5.20427 -0.49363,1.76245 z m 13.7018,1.89964 c -0.0722,-0.11675 0.31377,-0.21356 0.85761,-0.21513 0.54384,-0.002 1.45608,-0.0752 2.02718,-0.1636 0.70513,-0.10916 0.95507,-0.0757 0.77879,0.10442 -0.32187,0.32879 -3.4836,0.56552 -3.66358,0.27431 z m -4.51367,-1.52247 c 0,-0.29228 0.46728,-1.38281 1.03839,-2.4234 0.5711,-1.04059 1.03838,-2.07805 1.03838,-2.30545 0,-0.30827 0.34676,-0.44844 1.36287,-0.55093 3.18223,-0.32098 4.86741,-0.38606 4.86741,-0.18796 0,0.11638 -1.24571,0.29213 -2.76824,0.39057 -1.52253,0.0984 -2.86594,0.23935 -2.98534,0.31315 -0.11941,0.0738 -0.21711,0.41347 -0.21711,0.75484 0,0.34137 -0.40856,1.29822 -0.90792,2.12634 -0.49935,0.82812 -0.90821,1.7101 -0.90858,1.95996 -3.6e-4,0.24986 -0.11748,0.4543 -0.26026,0.4543 -0.14278,0 -0.2596,-0.23914 -0.2596,-0.53142 z m -3.6748,-2.25923 c 1.17764,-1.9997 1.62447,-2.54615 2.12839,-2.60295 0.51781,-0.0584 0.55924,-0.0232 0.2202,0.18708 -0.22969,0.14243 -1.02638,1.31376 -1.77041,2.60295 -0.74403,1.28918 -1.51388,2.34397 -1.71077,2.34397 -0.2268,0 0.18822,-0.92747 1.13259,-2.53105 z m 8.08792,2.01681 c 0,-0.6466 0.712,-0.83742 2.73657,-0.7334 1.37785,0.0708 1.55581,0.14324 1.6297,0.66355 0.0805,0.56674 0.0169,0.58409 -2.14166,0.58409 -2.04441,0 -2.22461,-0.0417 -2.22461,-0.51424 z m 9.08583,0.47043 c 0,-0.0479 0.50494,-1.25501 1.12209,-2.68248 l 1.12209,-2.59541 1.27916,-0.0436 c 1.224968,-0.0417 1.237798,-0.0352 0.30282,0.1543 -0.53699,0.10882 -1.02431,0.24581 -1.08293,0.30443 -0.0586,0.0586 -0.55642,1.1485 -1.10624,2.42196 -0.54981,1.27347 -1.14306,2.36319 -1.31833,2.42161 -0.17526,0.0584 -0.31866,0.067 -0.31866,0.0192 z m -55.905916,-1.18927 c -0.0885,-0.53541 -0.162192,-1.69429 -0.163763,-2.57528 l -0.0029,-1.60181 1.622469,-0.17187 c 0.892358,-0.0945 2.08974,-0.12988 2.660849,-0.0786 0.787783,0.0708 0.537185,0.14144 -1.03838,0.29276 -1.142218,0.10971 -2.251987,0.29745 -2.466153,0.41719 -0.307668,0.17203 -0.37567,0.68716 -0.324007,2.4544 0.07005,2.39618 -0.02907,2.83068 -0.288158,1.26318 z m 52.107966,-0.64898 c 0.0861,-0.32125 0.15812,-1.3142 0.16007,-2.20656 0.003,-1.3221 0.0815,-1.62247 0.42472,-1.62247 0.34716,0 0.36371,0.0692 0.0942,0.39403 -0.21694,0.2614 -0.28364,0.8949 -0.19815,1.88206 0.13954,1.61141 0.0487,2.13702 -0.3691,2.13702 -0.15149,0 -0.20011,-0.25422 -0.11171,-0.58408 z m -23.76563,-1.85765 0.0833,-2.18335 1.25516,-0.0887 c 0.69035,-0.0488 1.20085,-0.001 1.13446,0.10598 -0.0664,0.10709 -0.44996,0.1947 -0.85238,0.1947 -1.1404,0 -1.3846,0.5095 -1.17633,2.45428 0.14481,1.35224 0.10953,1.69936 -0.17277,1.69985 -0.27844,4.6e-4 -0.33682,-0.469 -0.27144,-2.18275 z m -17.60596,1.4041 c 0,-0.51515 1.87558,-2.31907 2.95401,-2.84112 0.60711,-0.2939 1.50502,-0.52514 1.99535,-0.51387 0.82979,0.0191 0.7872,0.0568 -0.61505,0.54546 -1.05322,0.36699 -1.88927,0.90765 -2.77829,1.79667 -1.30068,1.30069 -1.55602,1.4669 -1.55602,1.01286 z m 10.51617,-2.33294 c -0.41547,-0.67225 0.43134,-1.04291 2.30067,-1.00702 l 1.85028,0.0355 -1.66481,0.18845 c -1.09936,0.12445 -1.77422,0.33809 -1.98694,0.62901 -0.21566,0.29493 -0.38066,0.34585 -0.4992,0.15404 z m 20.82993,-0.43568 c 0.17847,-0.072 0.47052,-0.072 0.64899,0 0.17847,0.072 0.0325,0.13094 -0.3245,0.13094 -0.35694,0 -0.50296,-0.0589 -0.32449,-0.13094 z m -4.73761,-1.90484 c -0.0882,-0.14277 0.0217,-0.25959 0.24427,-0.25959 0.2226,0 0.40472,0.11682 0.40472,0.25959 0,0.14278 -0.10993,0.2596 -0.24428,0.2596 -0.13435,0 -0.31647,-0.11682 -0.40471,-0.2596 z"
       style="fill:#000000;stroke-width:0.25959507" />
  </g>
</svg>
