<?xml version="1.0" encoding="UTF-8" standalone="no"?>
<!-- Created with Inkscape (http://www.inkscape.org/) -->

<svg
   xmlns:dc="http://purl.org/dc/elements/1.1/"
   xmlns:cc="http://creativecommons.org/ns#"
   xmlns:rdf="http://www.w3.org/1999/02/22-rdf-syntax-ns#"
   xmlns:svg="http://www.w3.org/2000/svg"
   xmlns="http://www.w3.org/2000/svg"
   xmlns:sodipodi="http://sodipodi.sourceforge.net/DTD/sodipodi-0.dtd"
   xmlns:inkscape="http://www.inkscape.org/namespaces/inkscape"
   width="500"
   height="200"
   viewBox="0 0 500 200"
   version="1.1"
   id="svg8"
   sodipodi:docname="doom.svg"
   inkscape:version="0.92.5 (2060ec1f9f, 2020-04-08)">
  <defs
     id="defs2" />
  <sodipodi:namedview
     id="base"
     pagecolor="#ffffff"
     bordercolor="#666666"
     borderopacity="1.0"
     inkscape:pageopacity="0.0"
     inkscape:pageshadow="2"
     inkscape:zoom="1.2019729"
     inkscape:cx="163.63969"
     inkscape:cy="16.71258"
     inkscape:document-units="mm"
     inkscape:current-layer="layer1"
     showgrid="false"
     units="px"
     inkscape:pagecheckerboard="true"
     inkscape:window-width="1366"
     inkscape:window-height="743"
     inkscape:window-x="0"
     inkscape:window-y="0"
     inkscape:window-maximized="1" />
  <metadata
     id="metadata5">
    <rdf:RDF>
      <cc:Work
         rdf:about="">
        <dc:format>image/svg+xml</dc:format>
        <dc:type
           rdf:resource="http://purl.org/dc/dcmitype/StillImage" />
        <dc:title />
      </cc:Work>
    </rdf:RDF>
  </metadata>
  <g
     inkscape:label="Layer 1"
     inkscape:groupmode="layer"
     id="layer1"
     transform="translate(-31.055596,-236.77647)">
    <g
       id="g2163"
       transform="matrix(3.0117721,0,0,3.0117721,125.44404,-465.94154)">
      <path
         style="fill:#0074e4;stroke-width:0.07128115"
         d="m 10.351893,285.88221 c -0.08758,-0.0876 -0.04875,-0.42558 0.09768,-0.85016 0.07986,-0.23156 0.164974,-0.60883 0.189139,-0.83837 l 0.04394,-0.41736 -0.206961,0.10728 c -0.113828,0.059 -0.511687,0.35093 -0.884131,0.64874 -0.628327,0.50241 -0.855373,0.63053 -0.855373,0.48269 0,-0.0326 0.192459,-0.52733 0.427687,-1.09934 l 0.427686,-1.04002 -9.58e-4,-22.44126 -9.58e-4,-22.44125 -0.711853,-0.90867 c -0.39152,-0.49976 -0.711854,-0.95685 -0.711854,-1.01575 0,-0.0947 0.934347,-0.10697 8.03695,-0.10598 l 8.03695,0.001 2.067153,1.25154 c 1.136935,0.68834 2.119439,1.29878 2.183343,1.35653 0.07106,0.0642 0.129155,0.26133 0.149569,0.50751 0.02712,0.32699 0.0655,0.4229 0.204576,0.51113 0.09416,0.0597 0.306212,0.24046 0.47123,0.40161 0.342931,0.33491 0.374445,0.30918 0.382147,-0.31195 0.0028,-0.22222 0.02681,-0.45877 0.05346,-0.52566 0.02665,-0.0669 0.670408,-0.81268 1.43058,-1.65729 l 1.382129,-1.53566 h 6.817393 6.817393 l 1.512534,1.51852 c 1.016085,1.0201 1.512535,1.56811 1.512535,1.66963 0,0.0831 0.08493,0.25206 0.188735,0.37543 0.211963,0.2519 0.307241,0.19639 0.309142,-0.18011 9.12e-4,-0.18038 0.238372,-0.47885 1.431927,-1.79985 l 1.430837,-1.58362 h 6.822147 6.822146 l 1.512534,1.51852 c 1.211263,1.21605 1.512535,1.55636 1.512535,1.70855 0,0.13464 0.140274,0.3449 0.481148,0.72121 l 0.481148,0.53117 0.04818,-0.29731 c 0.0265,-0.16352 0.05056,-0.71445 0.05346,-1.22429 l 0.0053,-0.92697 -0.677171,-0.95792 c -0.372444,-0.52685 -0.67717,-1.00007 -0.67717,-1.05159 0,-0.0766 0.839658,-0.0904 4.608251,-0.0754 l 4.608252,0.0183 1.758377,4.20125 c 0.967114,2.31068 1.788302,4.21097 1.824876,4.22287 0.03657,0.0119 0.767969,-1.75036 1.625331,-3.91612 0.857363,-2.16576 1.617377,-4.07407 1.688922,-4.24069 l 0.130073,-0.30295 h 4.3878 c 4.98384,0 4.50205,-0.073 4.25184,0.644 -0.25381,0.72732 -0.25463,0.72515 0.30686,0.81782 0.77364,0.12769 0.9184,0.44116 0.59537,1.28917 l -0.16038,0.42102 -0.0209,21.31307 c -0.0152,15.51368 7.8e-4,21.42944 0.0589,21.74075 0.0439,0.23523 0.20572,0.96023 0.35954,1.61112 0.28823,1.21966 0.34278,1.75439 0.19413,1.90304 -0.10887,0.10887 -0.44786,0.11018 -0.64978,0.003 -0.53688,-0.2863 -7.73103,-5.30873 -7.9788,-5.57023 -0.14298,-0.1509 -0.19602,-0.27999 -0.19602,-0.47708 0,-0.30297 -0.13064,-0.44518 -0.91321,-0.99412 -0.24262,-0.17019 -0.441134,-0.34794 -0.441134,-0.39498 0,-0.0471 0.240574,-0.41205 0.534604,-0.81113 l 0.53461,-0.72558 -0.007,-4.25733 c -0.004,-2.34153 -0.0283,-4.33281 -0.0542,-4.42507 -0.0359,-0.12786 -0.34351,0.59226 -1.29377,3.02872 -0.791827,2.03022 -1.313769,3.27218 -1.430563,3.40399 -0.348401,0.3932 -0.709133,0.0945 -0.925999,-0.76674 -0.09317,-0.37003 -0.174047,-0.41336 -0.291283,-0.15607 -0.110679,0.24292 -0.263983,0.28331 -0.347731,0.0916 -0.03818,-0.0874 -0.552016,-1.74676 -1.141839,-3.68739 -1.42848,-4.69996 -1.617489,-5.29719 -1.800506,-5.68933 l -0.155855,-0.33393 -0.03564,4.92878 c -0.03413,4.71954 -0.0414,4.93514 -0.171431,5.07878 -0.145422,0.16065 -0.461901,0.19756 -0.682348,0.0796 -0.273752,-0.14651 -6.175337,-4.29613 -6.342134,-4.45939 -0.118147,-0.11564 -0.187387,-0.28017 -0.213843,-0.50813 -0.03413,-0.29408 -0.07851,-0.36713 -0.347611,-0.57211 -0.169667,-0.12925 -0.350465,-0.235 -0.401773,-0.235 -0.0564,0 -0.113001,0.13146 -0.143146,0.33249 -0.03976,0.26512 -0.117216,0.40145 -0.382319,0.6729 -0.2734,0.27994 -7.774724,5.81002 -9.336212,6.88278 -0.515899,0.35443 -0.888583,0.40516 -1.269594,0.17283 -0.285818,-0.17428 -7.604656,-6.00333 -7.949122,-6.33103 -0.142789,-0.13584 -0.317054,-0.38018 -0.387256,-0.54297 -0.13856,-0.32131 -0.439085,-0.68921 -0.560422,-0.68607 -0.04167,10e-4 -0.155957,0.11388 -0.253968,0.25066 -0.09801,0.13678 -0.402739,0.421 -0.677171,0.63161 -0.814741,0.62525 -8.74016,6.39455 -9.084482,6.61304 -0.407954,0.25887 -0.81049,0.26905 -1.163605,0.0294 -0.139139,-0.0944 -1.999106,-1.56617 -4.13326,-3.27055 -3.691789,-2.94834 -4.187393,-3.3874 -4.187393,-3.70964 0,-0.23119 -0.868863,-1.04547 -1.115553,-1.04547 -0.07678,0 -0.09623,0.23095 -0.09623,1.14279 0,1.30944 -0.03808,1.45128 -0.508648,1.89463 -0.171097,0.1612 -3.470622,2.8216 -7.332279,5.912 -3.861656,3.0904 -7.746274,6.20399 -8.632485,6.91909 -0.88621,0.7151 -1.79769,1.43075 -2.02551,1.59034 -0.38035,0.26644 -0.720279,0.36439 -0.84203,0.24264 z m 8.421027,-20.61509 c 0.223275,-0.1519 0.702663,-0.50576 1.065306,-0.78634 l 0.65935,-0.51014 -0.0041,-8.96136 c -0.0023,-4.92874 -0.02679,-9.08966 -0.05451,-9.24648 l -0.0504,-0.28512 -0.640481,-0.0194 c -0.859868,-0.026 -1.241913,0.0863 -1.406643,0.41341 -0.116831,0.23203 -0.124638,0.85531 -0.124742,9.95957 -7.1e-5,6.76404 0.02271,9.71206 0.07508,9.71206 0.04136,0 0.257872,-0.12429 0.481148,-0.2762 z m 22.17501,-9.48932 c -0.0028,-5.23382 -0.0264,-9.67641 -0.05237,-9.87244 l -0.04722,-0.3564 h -0.823038 c -0.903003,0 -1.14893,0.0836 -1.282937,0.43605 -0.07677,0.20191 -0.09774,17.40226 -0.02146,17.60103 0.02565,0.0668 0.51267,0.51895 1.082265,1.00468 0.734906,0.62671 1.05222,0.85701 1.092769,0.79313 0.03143,-0.0495 0.05482,-4.37223 0.05199,-9.60605 z m 19.930768,-10.1041 c -0.03668,-0.15198 -0.07317,-0.16036 -0.696699,-0.15998 -0.794352,4.9e-4 -1.138339,0.0863 -1.331921,0.33243 -0.145093,0.18446 -0.145805,0.22822 -0.145805,8.96383 v 8.77847 l 0.338585,0.32433 c 0.186222,0.17838 0.675389,0.60789 1.087038,0.95445 l 0.748452,0.63013 0.01953,-9.83164 c 0.01074,-5.4074 0.0021,-9.90381 -0.01918,-9.99202 z"
         id="path2153"
         inkscape:connector-curvature="0" />
      <path
         style="fill:#cc9004;stroke-width:0.07128115"
         d="m 10.209392,285.88837 c -0.08758,-0.0876 -0.04875,-0.42558 0.09768,-0.85016 0.07986,-0.23156 0.164103,-0.6005 0.187205,-0.81986 l 0.042,-0.39885 -0.209133,0.0307 c -0.118268,0.0174 -0.48504,0.24798 -0.844153,0.53079 -0.34926,0.27506 -0.645937,0.46735 -0.659282,0.42731 -0.01335,-0.04 0.137937,-0.46471 0.336182,-0.94372 l 0.360446,-0.87093 -0.0014,-22.53281 -0.0014,-22.5328 -0.672768,-0.85538 c -0.370023,-0.47045 -0.674141,-0.89547 -0.675818,-0.94447 -0.0024,-0.0708 1.627929,-0.0887 7.926978,-0.0873 l 7.930028,0.002 2.138434,1.29909 c 1.92901,1.17187 2.142253,1.32004 2.177426,1.51294 0.06748,0.37008 0.262139,0.70827 0.481683,0.83686 0.116489,0.0682 0.309099,0.23488 0.428021,0.37032 l 0.216223,0.24626 0.09177,-0.22775 c 0.05047,-0.12526 0.109131,-0.39377 0.130352,-0.59669 0.0379,-0.36237 0.06315,-0.39629 1.419707,-1.90677 l 1.381122,-1.53784 h 6.748492 6.748491 l 1.546803,1.55709 c 0.850741,0.85639 1.546802,1.59169 1.546802,1.634 0,0.0423 0.08333,0.17594 0.185173,0.29697 l 0.185172,0.22007 0.135593,-0.17238 c 0.07458,-0.0948 0.135592,-0.23219 0.135592,-0.30528 0,-0.0731 0.627362,-0.82986 1.394138,-1.68169 l 1.394136,-1.54878 h 6.74169 6.741689 l 1.54059,1.51473 c 1.004835,0.98796 1.555759,1.58147 1.58421,1.70665 0.02399,0.10556 0.248527,0.41478 0.498968,0.68717 0.357288,0.38858 0.460253,0.46622 0.478126,0.3605 0.01253,-0.0741 0.05262,-0.13474 0.0891,-0.13474 0.03812,0 0.06632,-0.4799 0.06632,-1.12845 v -1.12845 l -0.641531,-0.90729 c -0.352842,-0.49901 -0.64153,-0.93746 -0.64153,-0.97434 0,-0.0412 1.730649,-0.0671 4.483946,-0.0671 h 4.483945 l 0.353167,0.83756 c 0.194242,0.46065 0.988078,2.36119 1.764073,4.22341 0.776002,1.86222 1.455276,3.43396 1.509492,3.49277 0.08332,0.0904 0.108063,0.0916 0.159856,0.008 0.03371,-0.0545 0.438101,-1.04889 0.898655,-2.20972 0.460562,-1.16083 1.214389,-3.05686 1.675186,-4.21339 l 0.83781,-2.1028 4.23075,-0.0185 c 2.32691,-0.0102 4.26946,-0.004 4.31677,0.0144 0.0628,0.024 0.0405,0.16676 -0.0829,0.52959 -0.0929,0.27318 -0.14765,0.51796 -0.12165,0.54397 0.026,0.026 0.0473,0.0829 0.0473,0.12647 0,0.0436 0.22125,0.1154 0.49167,0.15965 0.77358,0.1266 0.9185,0.44023 0.59537,1.28848 l -0.16038,0.42102 -0.0209,21.31307 c -0.0152,15.51368 7.8e-4,21.42944 0.0589,21.74075 0.0439,0.23523 0.20572,0.96023 0.35954,1.61112 0.28823,1.21966 0.34278,1.75439 0.19413,1.90304 -0.10887,0.10887 -0.44786,0.11018 -0.64978,0.003 -0.53688,-0.2863 -7.73103,-5.30873 -7.9788,-5.57023 -0.13096,-0.13821 -0.19602,-0.28355 -0.19602,-0.43787 0,-0.37637 -0.19147,-0.65288 -0.71653,-1.03477 -0.27239,-0.19812 -0.495251,-0.39173 -0.495251,-0.43026 0,-0.0385 0.240571,-0.39329 0.534611,-0.78838 l 0.53461,-0.71835 v -4.149 c 0,-3.41189 -0.0175,-4.17398 -0.0983,-4.2896 -0.0541,-0.0773 -0.11023,-0.20124 -0.12475,-0.27535 -0.0145,-0.0741 -0.58772,1.30485 -1.273804,3.06436 -0.792561,2.03259 -1.314467,3.27479 -1.431304,3.40664 -0.348401,0.3932 -0.709134,0.0945 -0.926,-0.76674 -0.08444,-0.33535 -0.155906,-0.40199 -0.258736,-0.24125 -0.03135,0.049 -0.111819,0.0933 -0.178823,0.0985 -0.09416,0.007 -0.169699,-0.14652 -0.332641,-0.67717 -0.115953,-0.37762 -0.729063,-2.38664 -1.362467,-4.46449 -0.633412,-2.07784 -1.207339,-3.84205 -1.275404,-3.92046 -0.06806,-0.0784 -0.169971,-0.23879 -0.226459,-0.35641 -0.09084,-0.18914 -0.106822,0.3555 -0.138345,4.71493 -0.03413,4.71955 -0.0414,4.93515 -0.171431,5.07879 -0.145422,0.16065 -0.461901,0.19756 -0.682348,0.0796 -0.367676,-0.19678 -6.195141,-4.31391 -6.363438,-4.4958 -0.143429,-0.15502 -0.196023,-0.28572 -0.196023,-0.48713 0,-0.15773 -0.04566,-0.31317 -0.106922,-0.36401 -0.05881,-0.0488 -0.106921,-0.13103 -0.106921,-0.18273 0,-0.12524 -0.116453,-0.19045 -0.394903,-0.22114 -0.224452,-0.0247 -0.231458,-0.017 -0.280184,0.30789 -0.03989,0.26601 -0.117069,0.40196 -0.382435,0.67368 -0.2734,0.27994 -7.774724,5.81002 -9.336212,6.88278 -0.515899,0.35443 -0.888583,0.40516 -1.269594,0.17283 -0.285818,-0.17428 -7.604656,-6.00333 -7.949122,-6.33103 -0.142789,-0.13584 -0.317054,-0.38018 -0.387256,-0.54297 -0.13856,-0.32131 -0.439085,-0.68921 -0.560422,-0.68607 -0.04167,10e-4 -0.155957,0.11387 -0.253968,0.25065 -0.09801,0.13678 -0.402739,0.42101 -0.677171,0.63161 -0.814741,0.62525 -8.74016,6.39456 -9.084482,6.61305 -0.407954,0.25887 -0.81049,0.26905 -1.163605,0.0294 -0.139139,-0.0944 -1.999106,-1.56617 -4.13326,-3.27056 -3.626313,-2.89604 -4.187393,-3.39006 -4.187393,-3.68692 0,-0.10815 -0.444065,-0.79131 -0.596724,-0.91801 -0.05862,-0.0487 -0.220992,-0.10265 -0.360821,-0.11999 l -0.254234,-0.0315 v 1.14346 c 0,1.31019 -0.03804,1.45192 -0.508648,1.89531 -0.171097,0.1612 -3.470622,2.8216 -7.332279,5.912 -3.861656,3.0904 -7.746274,6.20399 -8.632485,6.91909 -0.88621,0.7151 -1.79769,1.43075 -2.02551,1.59034 -0.38035,0.26644 -0.720279,0.36439 -0.84203,0.24264 z m 30.674655,-30.17569 c 0,-5.68575 -0.02683,-9.90808 -0.06297,-9.90808 -0.03463,0 -0.08067,-0.0677 -0.102298,-0.1504 -0.03762,-0.14386 -0.07455,-0.14928 -0.84907,-0.1247 -0.884325,0.0281 -1.140383,0.12117 -1.269842,0.46167 -0.04193,0.11028 -0.0681,3.51606 -0.0681,8.86117 0,8.33977 0.0052,8.68874 0.131918,8.85204 0.07255,0.0935 0.145664,0.2129 0.162466,0.26534 0.04109,0.12825 1.855903,1.64956 1.968792,1.65039 0.07086,5.2e-4 0.0891,-2.02814 0.0891,-9.90743 z m 20.012433,-0.0238 c 0.01116,-6.10523 -0.0074,-9.88432 -0.04866,-9.88432 -0.0367,0 -0.08709,-0.0642 -0.111976,-0.14256 -0.04093,-0.12897 -0.107665,-0.14252 -0.699795,-0.14216 -0.790976,4.9e-4 -1.135095,0.0866 -1.328475,0.33243 -0.145087,0.18445 -0.145805,0.22842 -0.145805,8.93693 v 8.75157 l 0.195091,0.29798 c 0.217704,0.33252 1.922586,1.80077 2.043997,1.7603 0.05527,-0.0184 0.08274,-2.86617 0.09562,-9.91017 z m -41.457298,9.11928 0.951534,-0.71998 0.01809,-9.08707 c 0.0161,-8.08659 0.0059,-9.11271 -0.09245,-9.32001 l -0.110539,-0.23294 -0.656007,0.005 c -0.878872,0.007 -1.191087,0.10521 -1.350887,0.42347 -0.116827,0.23268 -0.124638,0.85605 -0.124742,9.95551 l -1.1e-4,9.70729 0.206785,-0.006 c 0.146497,-0.004 0.484203,-0.21579 1.158318,-0.72586 z m -3.312938,-13.97828 c 0.05986,-0.15296 0.08522,-1.23964 0.0891,-3.8171 0.0041,-2.70132 0.02683,-3.62468 0.09096,-3.6888 0.122353,-0.12235 4.553691,-0.12235 4.676044,0 0.0641,0.0641 0.08732,0.99732 0.09264,3.72444 0.0039,2.00139 0.02796,3.7118 0.05346,3.80091 l 0.04636,0.162 3.189832,0.0162 c 2.392083,0.0122 3.189831,-0.005 3.189831,-0.067 0,-0.0457 0.0401,-0.0965 0.0891,-0.11284 0.07032,-0.0234 0.0891,-1.27434 0.0891,-5.9362 v -5.90651 l -1.924591,-1.18004 -1.924591,-1.18004 -7.194822,-0.0188 c -4.479523,-0.0117 -7.220399,0.007 -7.262593,0.0489 -0.04284,0.0428 0.07348,0.24527 0.316192,0.55027 l 0.383961,0.48249 0.03772,6.5254 c 0.02074,3.58897 0.06248,6.58955 0.09274,6.66796 0.05376,0.13929 0.120888,0.14257 2.920452,0.14257 h 2.865426 z m 20.553306,-3.76826 c 5.7e-4,-1.96553 0.02683,-3.61424 0.05829,-3.6638 0.04458,-0.0702 0.566952,-0.086 2.369007,-0.0713 l 2.311809,0.0188 0.04349,3.63534 c 0.02392,1.99944 0.07237,3.72421 0.107675,3.83282 l 0.06418,0.19748 3.2596,0.0164 3.2596,0.0164 0.08732,-0.21385 c 0.06565,-0.16077 0.09343,-1.62749 0.111957,-5.90992 l 0.02464,-5.69608 -1.307294,-1.30729 -1.307294,-1.3073 h -6.487127 -6.487126 l -0.327238,0.33859 c -0.179981,0.18622 -0.74957,0.81773 -1.265754,1.40336 l -0.938516,1.06477 0.02101,5.60001 c 0.01741,4.63992 0.03819,5.6335 0.121209,5.79528 l 0.100194,0.19526 3.000536,0.0186 3.000535,0.0186 0.0891,-0.20421 c 0.06733,-0.15431 0.08937,-1.0774 0.09019,-3.7779 z m 31.653634,-2.07129 0.01594,-5.76048 -1.315659,-1.31028 -1.315659,-1.31028 h -6.451278 c -5.053624,0 -6.475602,0.0193 -6.56355,0.0891 -0.06175,0.049 -0.630137,0.67632 -1.263085,1.39404 l -1.150813,1.30494 0.01986,5.68573 c 0.01821,5.21162 0.02984,5.69571 0.139511,5.80536 0.1082,0.10817 0.405934,0.11962 3.110924,0.11962 2.778041,0 2.995629,-0.009 3.052361,-0.12475 0.0336,-0.0686 0.07713,-1.79272 0.09673,-3.83136 l 0.03564,-3.70662 h 2.352278 2.352277 l 0.03564,3.71178 c 0.03208,3.34101 0.04752,3.72365 0.154553,3.83062 0.10689,0.10683 0.44202,0.12073 3.314574,0.13741 3.158855,0.0183 3.196629,0.0169 3.27974,-0.1279 0.06231,-0.10853 0.08821,-1.63779 0.100018,-5.90694 z m 24.133145,5.89255 c 0.0335,-0.0684 0.0769,-3.12343 0.0965,-6.78907 0.0356,-6.66374 0.0357,-6.66485 0.19331,-7.07793 0.11544,-0.30249 0.13453,-0.422 0.0713,-0.44623 -0.0475,-0.0182 -1.70524,-0.0247 -3.68384,-0.0145 l -3.59746,0.0185 -1.891365,4.75463 c -1.040249,2.61504 -1.929659,4.79292 -1.97647,4.83973 -0.108718,0.10872 0.05848,0.48394 -2.226473,-4.99672 l -1.916814,-4.59764 -3.712865,-0.0185 c -2.566387,-0.0128 -3.712864,0.005 -3.712864,0.0567 0,0.0413 0.168402,0.32228 0.374226,0.62434 l 0.374226,0.54921 0.03564,6.51631 c 0.02803,5.12419 0.05468,6.52264 0.124742,6.54598 0.04901,0.0163 0.0891,0.0671 0.0891,0.11284 -10e-7,0.0631 2.572568,0.0788 10.649085,0.0649 10.045632,-0.0172 10.652532,-0.0253 10.709992,-0.14257 z"
         id="path2151"
         inkscape:connector-curvature="0" />
      <path
         style="fill:#e4690d;stroke-width:0.07128115"
         d="m 10.693962,285.21988 c -0.02561,-0.0414 -0.02654,-0.15507 -0.0021,-0.25253 0.02446,-0.0975 0.07347,-0.4837 0.108913,-0.85832 0.0461,-0.48731 0.101279,-0.72315 0.193902,-0.82885 0.160005,-0.18258 -0.492759,0.29051 -1.435754,1.04056 -0.390413,0.31053 -0.721015,0.53108 -0.734672,0.49011 -0.01366,-0.041 0.13737,-0.46641 0.335615,-0.94542 l 0.360446,-0.87093 -0.0014,-22.53281 -0.0014,-22.5328 -0.672768,-0.85538 c -0.370023,-0.47045 -0.674141,-0.89547 -0.675818,-0.94447 -0.0024,-0.0708 1.627175,-0.0891 7.918603,-0.0891 h 7.921654 l 2.127913,1.28813 c 1.170352,0.70847 2.146541,1.31827 2.169308,1.35511 0.02277,0.0368 0.06063,0.36334 0.08414,0.72556 0.02351,0.36222 0.05616,0.61849 0.07254,0.56949 0.01639,-0.049 0.06809,-0.0891 0.114888,-0.0891 0.132007,0 0.537187,0.39903 0.616198,0.60684 0.04622,0.12155 0.07092,5.36334 0.07092,15.04755 0,12.69878 -0.01472,14.88902 -0.101204,15.0535 -0.171949,0.32704 -0.562849,0.65345 -5.922053,4.94509 -2.861938,2.29184 -6.598852,5.285 -8.304254,6.65147 -1.705402,1.36647 -3.288699,2.62335 -3.518438,2.79307 -0.414902,0.3065 -0.636063,0.37762 -0.725294,0.23324 z m 1.057624,-3.3682 c 0.791846,-0.63939 4.679448,-3.75521 8.639116,-6.92404 3.959668,-3.16883 7.239567,-5.81146 7.288664,-5.87251 0.07099,-0.0883 0.08559,-3.17499 0.07128,-15.08015 l -0.01799,-14.96914 -1.924591,-1.18001 -1.924591,-1.18001 -7.194822,-0.0188 c -4.479523,-0.0117 -7.220399,0.007 -7.262593,0.0489 -0.04284,0.0428 0.07348,0.24529 0.316192,0.5503 l 0.383961,0.48253 0.01815,22.65273 c 0.0126,15.72886 0.04097,22.65272 0.09283,22.65272 0.04107,0 0.722548,-0.52314 1.514394,-1.16253 z m 4.514007,-14.12901 c -0.02466,-0.0643 -0.04484,-5.56082 -0.04484,-12.21456 0,-9.31428 0.01968,-12.11738 0.08554,-12.18324 0.122353,-0.12235 4.553691,-0.12235 4.676044,0 0.06575,0.0657 0.08554,2.48833 0.08554,10.47043 0,9.78845 -0.0072,10.3931 -0.124742,10.52771 -0.144049,0.16492 -4.395993,3.42568 -4.5381,3.48021 -0.05203,0.02 -0.114776,-0.0163 -0.139438,-0.0806 z m 3.5905,-3.22651 0.534609,-0.4125 0.01344,-9.62025 c 0.0076,-5.43891 -0.01326,-9.55428 -0.04798,-9.46847 -0.0573,0.14161 -0.123157,0.15371 -0.98234,0.18048 -0.996071,0.031 -1.176276,0.0902 -1.423503,0.46749 -0.118189,0.18035 -0.127875,0.79528 -0.161376,10.24567 -0.0196,5.52959 -0.06325,10.09657 -0.09699,10.14886 -0.06454,0.1 1.254752,-0.83958 2.164143,-1.54128 z m 72.455476,19.36774 c -3.29877,-2.26089 -5.25971,-3.63891 -5.50465,-3.86833 -0.25315,-0.2371 -0.29397,-0.37966 -0.11897,-0.41545 0.0677,-0.0138 -0.24548,-0.28751 -0.78409,-0.6852 -0.49324,-0.36419 -0.89679,-0.69277 -0.89679,-0.73019 0,-0.0374 0.24057,-0.39128 0.53461,-0.78637 l 0.53461,-0.71834 -0.008,-4.46781 c -0.007,-3.72321 -0.0689,-6.55474 -0.1242,-5.67958 -0.0148,0.23474 -2.63331,6.98721 -2.81999,7.27212 -0.17052,0.26025 -0.37005,0.22519 -0.5327,-0.0936 -0.18304,-0.35879 -0.35846,-1.04444 -0.31842,-1.24452 0.0176,-0.0881 -0.0763,0.0895 -0.20874,0.39467 -0.13245,0.30518 -0.27479,0.58884 -0.31631,0.63036 -0.0531,0.0531 -0.13932,-0.13229 -0.291,-0.62615 -0.11853,-0.3859 -0.7291,-2.38566 -1.35683,-4.4439 -0.62774,-2.05825 -1.32073,-4.3036 -1.54,-4.98968 -0.21926,-0.68609 -0.406,-1.27154 -0.41497,-1.30102 -0.009,-0.0295 -0.008,2.3942 0.003,5.38596 0.0107,2.99176 -0.006,5.56299 -0.0375,5.71383 -0.0715,0.344 -0.22732,0.45419 -0.49795,0.35204 -0.30706,-0.11591 -5.83264,-3.99868 -6.03824,-4.24302 -0.22498,-0.26739 -0.23232,-0.3774 -0.0216,-0.32338 0.15502,0.0397 0.15442,0.0364 -0.0178,-0.0986 -0.27165,-0.21303 -1.35899,-0.98225 -1.63229,-1.15474 l -0.24231,-0.15293 0.12423,0.1896 c 0.21484,0.32789 0.0422,0.96629 -0.36388,1.34565 -0.17007,0.15888 -4.30999,3.19854 -8.20926,6.02748 -1.46301,1.06143 -1.53648,1.08575 -2.10824,0.69774 -0.51919,-0.35233 -7.67298,-6.11209 -7.81389,-6.29123 -0.18149,-0.23073 -0.13005,-0.28444 0.12431,-0.12979 l 0.19825,0.12054 -0.18833,-0.16434 c -0.3013,-0.26292 -1.1413,-0.94168 -1.4452,-1.1678 -0.25844,-0.19229 -0.27269,-0.19557 -0.19165,-0.0442 0.11632,0.21734 -0.003,0.58408 -0.28094,0.86178 -0.11334,0.11334 -1.03304,0.80962 -2.04378,1.54729 -7.83791,5.72038 -7.54594,5.51466 -7.8292,5.51632 -0.0805,5e-4 -0.28903,-0.09 -0.46332,-0.2011 -0.31793,-0.20262 -7.41575,-5.85589 -7.783605,-6.19948 -0.247656,-0.23133 -0.269156,-0.41077 -0.03564,-0.29747 0.159852,0.0776 0.159903,0.0774 0.01546,-0.051 -0.07971,-0.0708 -0.488683,-0.412 -0.908835,-0.75816 l -0.763913,-0.62939 0.0022,-14.41093 0.0022,-14.41094 1.397256,-1.55036 1.397257,-1.55037 h 6.74502 6.74501 l 1.47845,1.47971 1.47845,1.47971 v 0.47385 c 0,0.41844 0.0148,0.46999 0.12632,0.44082 0.15702,-0.0411 0.43141,0.23947 0.50685,0.51821 0.0412,0.15235 0.069,0.0122 0.10768,-0.54311 0.039,-0.56055 0.0838,-0.78425 0.17819,-0.89102 0.0694,-0.0784 0.6956,-0.77607 1.39166,-1.55036 l 1.26556,-1.40781 h 6.74391 6.74391 l 1.48296,1.47685 1.48296,1.47684 0.01,0.60813 c 0.005,0.33447 0.0236,0.53596 0.0406,0.44775 0.0474,-0.24603 0.18034,-0.1934 0.46958,0.18586 0.17424,0.22848 0.28832,0.47423 0.33541,0.72254 0.046,0.24247 0.0714,4.96849 0.0714,13.28824 0,12.06158 -0.008,12.92339 -0.12177,13.08578 l -0.12177,0.17385 0.24651,-0.17237 c 0.13558,-0.0948 0.27008,-0.206 0.29888,-0.24709 0.0288,-0.0411 0.0529,-6.62092 0.0535,-14.62184 l 0.001,-14.54713 -0.64153,-0.90729 c -0.35284,-0.49901 -0.64153,-0.93746 -0.64153,-0.97434 0,-0.0412 1.73065,-0.0671 4.48395,-0.0671 h 4.48394 l 0.35317,0.83756 c 0.19424,0.46065 0.98808,2.36119 1.76407,4.22341 0.776,1.86222 1.45528,3.43396 1.50949,3.49277 0.0833,0.0904 0.10807,0.0916 0.15986,0.008 0.0337,-0.0545 0.4381,-1.04889 0.89865,-2.20972 0.46057,-1.16083 1.21439,-3.05686 1.67519,-4.21339 l 0.83782,-2.1028 4.23075,-0.0185 c 2.3269,-0.0102 4.2692,-0.004 4.3162,0.0142 0.0603,0.0231 0.003,0.27896 -0.19602,0.87052 -0.15482,0.46082 -0.27945,0.90351 -0.27696,0.98376 0.004,0.1374 0.008,0.13656 0.069,-0.0145 0.0555,-0.13809 0.11707,-0.16038 0.44295,-0.16038 0.44352,0 0.69533,0.14315 0.69533,0.39529 0,0.0954 -0.0645,0.40834 -0.14326,0.69553 -0.14222,0.5184 -0.14311,0.67759 -0.12375,22.0445 l 0.0195,21.52232 0.30487,1.21178 c 0.16769,0.66648 0.29554,1.30801 0.28414,1.42562 -0.0175,0.18026 -0.0546,0.21717 -0.2364,0.23499 -0.1794,0.0176 -0.55095,-0.20865 -2.20971,-1.34553 z m 0.89283,-0.81692 c 0,-0.0212 -0.14435,-0.61331 -0.32077,-1.31583 l -0.32076,-1.27731 v -21.41037 -21.41038 l 0.17511,-0.51487 c 0.12762,-0.37519 0.15179,-0.52381 0.0891,-0.54782 -0.0473,-0.0181 -1.70487,-0.0246 -3.68347,-0.0144 l -3.59746,0.0185 -1.89137,4.75463 c -1.04025,2.61504 -1.92966,4.79292 -1.97647,4.83973 -0.10872,0.10872 0.0585,0.48394 -2.22647,-4.99672 l -1.91682,-4.59764 -3.71286,-0.0185 c -2.48531,-0.0124 -3.71286,0.006 -3.71286,0.0542 0,0.0399 0.17657,0.33794 0.39238,0.66223 l 0.39239,0.58963 -0.0235,14.7173 c -0.0129,8.09452 -0.0371,14.79328 -0.0538,14.88613 -0.0272,0.15137 0.26425,0.37402 2.82093,2.15505 1.56819,1.09242 2.87531,1.98677 2.90471,1.98743 0.0294,6.7e-4 0.0535,-3.65551 0.0535,-8.12484 0,-5.48355 0.0237,-8.12605 0.0728,-8.12605 0.04,0 0.10336,0.0722 0.14069,0.16038 0.0373,0.0882 1.14791,3.73691 2.46795,8.10823 1.32003,4.37132 2.42679,7.9776 2.45948,8.01397 0.081,0.0902 0.0501,0.16575 2.52286,-6.16066 1.20293,-3.07756 2.23207,-5.64254 2.28699,-5.69995 0.0857,-0.0895 0.0999,1.12359 0.0999,8.52612 v 8.63049 l -0.39063,0.52659 c -0.21484,0.28963 -0.39126,0.56104 -0.39204,0.60313 -0.002,0.12418 7.06011,5.01038 7.25144,5.01699 0.049,0.002 0.0891,-0.0143 0.0891,-0.0354 z m -49.75424,-12.39876 c 2.64631,-1.95193 4.83504,-3.58473 4.86384,-3.62844 0.0288,-0.0437 0.0529,-6.31739 0.0535,-13.94151 l 10e-4,-13.86205 -1.30302,-1.30302 -1.30302,-1.30302 h -6.48713 -6.48713 l -0.32723,0.33859 c -0.17998,0.18622 -0.74822,0.8162 -1.26274,1.39995 l -0.935499,1.06137 0.018,14.15716 0.018,14.15716 4.063029,3.26074 c 2.23466,1.79341 4.11114,3.24978 4.16994,3.23638 0.0588,-0.0134 2.27209,-1.62139 4.9184,-3.57331 z m -4.27866,-5.53146 c -1.19476,-1.02061 -2.24446,-1.93578 -2.33267,-2.03371 l -0.16038,-0.17807 10e-4,-9.70808 c 5.7e-4,-5.33945 0.0268,-9.74863 0.0583,-9.79819 0.0446,-0.0702 0.56695,-0.086 2.369,-0.0713 l 2.31181,0.0188 0.018,11.75762 c 0.01,6.46668 -0.007,11.78257 -0.0374,11.81307 -0.0305,0.0305 -1.03299,-0.77958 -2.22774,-1.80018 z m 1.71253,-9.77389 c 0,-7.99458 -0.019,-10.25973 -0.0855,-10.1932 -0.0561,0.0561 -0.36849,0.0869 -0.90883,0.0896 -0.96918,0.005 -1.25804,0.086 -1.48018,0.41638 l -0.16285,0.24221 v 8.64657 c 0,7.90862 -0.01,8.65211 -0.11587,8.71142 -0.0946,0.053 0.0197,0.18282 0.62371,0.7085 1.25909,1.09576 1.94761,1.65453 2.04046,1.65595 0.0709,0.001 0.0891,-2.10119 0.0891,-10.27739 z m 22.47787,15.38219 c 2.62047,-1.93472 4.80863,-3.56181 4.86258,-3.61576 0.0825,-0.0825 0.0992,-2.30061 0.10531,-13.99435 l 0.007,-13.89627 -1.30961,-1.30425 -1.30961,-1.30425 h -6.45128 c -5.05362,0 -6.4756,0.0193 -6.56355,0.0891 -0.0618,0.049 -0.62922,0.67529 -1.26104,1.39174 l -1.14877,1.30264 v 14.147 14.14699 l 0.19602,0.1742 c 0.51969,0.46181 7.97482,6.38063 8.03695,6.38075 0.0392,7e-5 2.2153,-1.58282 4.83578,-3.51755 z m -4.3241,-5.74493 -2.32985,-1.99839 0.0181,-9.81774 0.0181,-9.81775 h 2.35227 2.35228 l 0.018,11.75762 c 0.01,6.46668 -0.008,11.78394 -0.0405,11.81613 -0.0322,0.0322 -1.10696,-0.84075 -2.38838,-1.93987 z m 1.86122,-9.34382 c 0.0113,-5.46578 5.7e-4,-10.07952 -0.024,-10.25276 -0.0245,-0.17324 -0.0659,-0.28084 -0.0919,-0.23911 -0.0281,0.0451 -0.42428,0.0861 -0.9772,0.10114 -1.0076,0.0274 -1.18869,0.0863 -1.43919,0.4686 -0.11812,0.18025 -0.1269,0.71837 -0.14494,8.88147 l -0.0192,8.68959 -0.15145,-0.0396 c -0.0833,-0.0218 -0.12276,-0.0155 -0.0877,0.014 0.035,0.0295 0.33638,0.29408 0.66962,0.58797 1.22029,1.0762 2.08839,1.77878 2.16591,1.75295 0.0578,-0.0193 0.0851,-2.73754 0.10008,-9.96427 z m -24.79082,17.51419 c 0,-0.0148 -0.0561,-0.0709 -0.12474,-0.12474 -0.11306,-0.0887 -0.11558,-0.0861 -0.0269,0.0269 0.0931,0.11874 0.15165,0.1565 0.15165,0.0978 z m -0.35641,-0.28512 c 0,-0.0148 -0.0561,-0.0709 -0.12474,-0.12475 -0.11306,-0.0887 -0.11558,-0.0861 -0.0269,0.0269 0.0931,0.11873 0.15165,0.15649 0.15165,0.0978 z m -0.3564,-0.28513 c 0,-0.0148 -0.0561,-0.0709 -0.12475,-0.12474 -0.11305,-0.0887 -0.11557,-0.0861 -0.0269,0.0269 0.0931,0.11874 0.15166,0.1565 0.15166,0.0978 z m -0.35641,-0.28512 c 0,-0.0148 -0.0561,-0.0709 -0.12474,-0.12475 -0.11306,-0.0887 -0.11558,-0.0861 -0.0269,0.0269 0.0931,0.11873 0.15165,0.15649 0.15165,0.0978 z m 19.38847,-0.49897 c 0,-0.0148 -0.0561,-0.0709 -0.12474,-0.12474 -0.11306,-0.0887 -0.11558,-0.0862 -0.0269,0.0269 0.0931,0.11874 0.15166,0.1565 0.15166,0.0978 z m -0.3564,-0.28513 c 0,-0.0148 -0.0561,-0.0709 -0.12475,-0.12474 -0.11305,-0.0887 -0.11557,-0.0861 -0.0269,0.0269 0.0931,0.11874 0.15166,0.1565 0.15166,0.0978 z m -0.35641,-0.28512 c 0,-0.0148 -0.0561,-0.0709 -0.12474,-0.12474 -0.11306,-0.0887 -0.11558,-0.0862 -0.0269,0.0269 0.0931,0.11874 0.15165,0.1565 0.15165,0.0978 z m -0.3564,-0.28513 c 0,-0.0148 -0.0561,-0.0709 -0.12475,-0.12474 -0.11305,-0.0887 -0.11557,-0.0861 -0.0269,0.0269 0.0931,0.11873 0.15166,0.15649 0.15166,0.0978 z"
         id="path2149"
         inkscape:connector-curvature="0" />
      <path
         style="fill:#1e1911;stroke-width:0.07128115"
         d="m 8.807515,284.79572 c 0,-0.0434 0.160383,-0.46641 0.356406,-0.94005 l 0.356406,-0.86117 -0.0014,-22.53281 -0.0014,-22.5328 -0.672768,-0.85538 c -0.370023,-0.47045 -0.674141,-0.89547 -0.675818,-0.94447 -0.0024,-0.0708 1.627929,-0.0887 7.926978,-0.0873 l 7.930028,0.002 2.137481,1.29909 2.137482,1.2991 0.05031,0.28512 c 0.02767,0.15682 0.05215,7.03925 0.05441,15.29429 l 0.0041,15.00917 -0.196023,0.18115 c -0.313275,0.28952 -16.731379,13.42655 -18.336429,14.672 -0.995521,0.77248 -1.069864,0.82197 -1.069864,0.71229 z m 2.944071,-2.94404 c 0.791846,-0.63939 4.679448,-3.75521 8.639116,-6.92404 3.959668,-3.16883 7.239567,-5.81146 7.288664,-5.87251 0.07099,-0.0883 0.08559,-3.17499 0.07128,-15.08015 l -0.01799,-14.96914 -1.924591,-1.18001 -1.924591,-1.18001 -7.194822,-0.0188 c -4.479523,-0.0117 -7.220399,0.007 -7.262593,0.0489 -0.04284,0.0428 0.07348,0.24529 0.316192,0.5503 l 0.383961,0.48253 0.01815,22.65273 c 0.0126,15.72886 0.04097,22.65272 0.09283,22.65272 0.04107,0 0.722548,-0.52314 1.514394,-1.16253 z m 4.514007,-14.12901 c -0.02466,-0.0643 -0.04484,-5.56082 -0.04484,-12.21456 0,-9.31428 0.01968,-12.11738 0.08554,-12.18324 0.122353,-0.12235 4.553691,-0.12235 4.676044,0 0.06575,0.0657 0.08554,2.48833 0.08554,10.47043 0,9.78845 -0.0072,10.3931 -0.124742,10.52771 -0.144049,0.16492 -4.395993,3.42568 -4.5381,3.48021 -0.05203,0.02 -0.114776,-0.0163 -0.139438,-0.0806 z m 1.85287,-1.94484 c 0.544048,-0.39081 1.277867,-0.93136 1.630709,-1.2012 l 0.64153,-0.49062 0.01724,-9.40758 c 0.0095,-5.17417 -0.0066,-9.71231 -0.03564,-10.08476 l -0.05288,-0.67717 h -1.675107 -1.675107 l -0.01804,11.32359 c -0.01527,9.58774 -0.003,11.31783 0.08004,11.28596 0.05394,-0.0207 0.543208,-0.3574 1.087257,-0.74822 z m 73.761472,17.30082 c -4.48683,-3.07023 -6.87287,-4.77682 -6.87287,-4.91575 0,-0.0364 0.24543,-0.39518 0.54539,-0.79727 l 0.5454,-0.73108 -0.0457,-6.72936 c -0.0251,-3.70115 -0.062,-6.74575 -0.0821,-6.76577 -0.02,-0.02 -0.0543,-0.0185 -0.0761,0.003 -0.0219,0.0219 -0.803256,1.99188 -1.736448,4.37785 -1.981302,5.06577 -2.278602,5.80143 -2.397107,5.93156 -0.0712,0.0782 -0.128904,-0.037 -0.303593,-0.60589 -0.118633,-0.38633 -0.669473,-2.19398 -1.22409,-4.017 -0.554617,-1.82301 -1.308703,-4.26083 -1.675745,-5.41736 -0.367041,-1.15654 -0.770121,-2.4396 -0.895735,-2.85125 -0.26649,-0.87332 -0.279581,-0.90143 -0.360398,-0.77388 -0.0337,0.0532 -0.06177,3.01108 -0.06237,6.5731 -8.7e-4,5.15313 -0.01931,6.4694 -0.09024,6.44218 -0.110852,-0.0425 -5.503901,-3.8112 -6.041035,-4.22148 -0.215625,-0.1647 -0.624601,-0.45348 -0.908834,-0.64173 -0.284234,-0.18825 -0.516789,-0.36746 -0.516789,-0.39824 0,-0.0308 0.104249,-0.12878 0.231664,-0.21777 0.127415,-0.089 0.25523,-0.19543 0.284033,-0.23652 0.0288,-0.0411 0.05286,-6.62092 0.05346,-14.62184 l 0.0011,-14.54713 -0.641531,-0.90729 c -0.352842,-0.49901 -0.64153,-0.93746 -0.64153,-0.97434 0,-0.0412 1.730649,-0.0671 4.483946,-0.0671 h 4.483945 l 0.353167,0.83756 c 0.194242,0.46065 0.988078,2.36119 1.764073,4.22341 0.776002,1.86222 1.455276,3.43396 1.509492,3.49277 0.08332,0.0904 0.108063,0.0916 0.159856,0.008 0.03371,-0.0545 0.438101,-1.04889 0.898655,-2.20972 0.460562,-1.16083 1.214389,-3.05686 1.675186,-4.21339 l 0.837808,-2.1028 4.23075,-0.0185 c 2.32691,-0.0102 4.26921,-0.004 4.31621,0.0142 0.0603,0.0231 0.003,0.27896 -0.19602,0.87052 l -0.28148,0.83785 v 21.28077 21.28076 l 0.49651,2.10138 c 0.27309,1.15576 0.47084,2.12706 0.43946,2.15844 -0.0314,0.0314 -1.04885,-0.62159 -2.26102,-1.45106 z m 1.32446,-0.0317 c 0,-0.0212 -0.14435,-0.61331 -0.32077,-1.31583 l -0.32076,-1.27731 v -21.41037 -21.41038 l 0.17511,-0.51487 c 0.12762,-0.37519 0.15179,-0.52381 0.0891,-0.54782 -0.0473,-0.0181 -1.70487,-0.0246 -3.68347,-0.0144 l -3.59746,0.0185 -1.891365,4.75463 c -1.040249,2.61504 -1.929659,4.79292 -1.97647,4.83973 -0.108718,0.10872 0.05848,0.48394 -2.226473,-4.99672 l -1.916814,-4.59764 -3.712865,-0.0185 c -2.485313,-0.0124 -3.712864,0.006 -3.712864,0.0542 0,0.0399 0.176574,0.33794 0.392385,0.66223 l 0.392385,0.58963 -0.02349,14.7173 c -0.01292,8.09452 -0.03713,14.79328 -0.0538,14.88613 -0.02718,0.15137 0.264259,0.37402 2.820937,2.15505 1.568185,1.09242 2.875304,1.98677 2.904707,1.98743 0.0294,6.7e-4 0.05346,-3.65551 0.05346,-8.12484 0,-5.48355 0.02368,-8.12605 0.07281,-8.12605 0.04005,0 0.103356,0.0722 0.14069,0.16038 0.03733,0.0882 1.14791,3.73691 2.467948,8.10823 1.320034,4.37132 2.426795,7.9776 2.459478,8.01397 0.08102,0.0902 0.05007,0.16575 2.522868,-6.16066 1.202923,-3.07756 2.232063,-5.64254 2.286983,-5.69995 0.0857,-0.0895 0.0999,1.12359 0.0999,8.52612 v 8.63049 l -0.39063,0.52659 c -0.21484,0.28963 -0.39126,0.56104 -0.39204,0.60313 -0.002,0.12418 7.06011,5.01038 7.25144,5.01699 0.049,0.002 0.0891,-0.0143 0.0891,-0.0354 z M 35.248251,272.45389 c -1.781296,-1.41893 -3.759965,-3.01071 -4.39704,-3.53729 l -1.158319,-0.9574 0.0022,-14.40927 0.0022,-14.40927 1.397256,-1.55036 1.397257,-1.55037 h 6.745017 6.745017 l 1.496268,1.49753 1.496267,1.49753 0.02062,14.05958 c 0.01134,7.73277 0.004,14.12662 -0.01631,14.20855 -0.02385,0.0962 -1.868142,1.48475 -5.207252,3.92046 -2.843676,2.07433 -5.196016,3.78021 -5.227422,3.79085 -0.03141,0.0106 -1.514527,-1.14161 -3.295825,-2.56054 z m 8.201903,-1.80567 c 2.646313,-1.95193 4.835044,-3.58473 4.863847,-3.62844 0.0288,-0.0437 0.05286,-6.31739 0.05346,-13.94151 l 0.0011,-13.86205 -1.303019,-1.30302 -1.303019,-1.30302 h -6.487134 -6.487126 l -0.327238,0.33859 c -0.179981,0.18622 -0.748212,0.8162 -1.262736,1.39995 l -0.935499,1.06137 0.018,14.15716 0.018,14.15716 4.063025,3.26074 c 2.234664,1.79341 4.111141,3.24978 4.169948,3.23638 0.05881,-0.0134 2.272086,-1.62139 4.918399,-3.57331 z m -4.278655,-5.53146 c -1.194759,-1.02061 -2.244461,-1.93578 -2.332672,-2.03371 l -0.160382,-0.17807 0.0011,-9.70808 c 5.71e-4,-5.33945 0.02683,-9.74863 0.05829,-9.79819 0.04458,-0.0702 0.566953,-0.086 2.369007,-0.0713 l 2.31181,0.0188 0.01803,11.75762 c 0.0099,6.46668 -0.0069,11.78257 -0.03743,11.81307 -0.0305,0.0305 -1.032989,-0.77958 -2.227747,-1.80018 z m 1.704986,-9.67053 c -0.0041,-5.59646 -0.02821,-10.46408 -0.05346,-10.81692 l -0.04591,-0.64153 -1.670069,-0.0192 c -1.288523,-0.0148 -1.683185,0.001 -1.727477,0.0713 -0.03157,0.0497 -0.0579,4.26447 -0.0585,9.36605 l -0.0011,9.27561 0.617852,0.56119 c 1.040131,0.94475 2.762442,2.37886 2.856906,2.37886 0.07116,0 0.08777,-2.06655 0.08175,-10.17538 z m 14.249622,16.89812 c -1.854435,-1.4779 -3.644349,-2.9151 -3.977589,-3.19378 -0.333239,-0.27868 -0.806368,-0.65932 -1.051397,-0.84586 l -0.445507,-0.33915 4.99e-4,-13.94912 c 2.85e-4,-7.67202 0.02073,-14.16324 0.04545,-14.42493 l 0.04495,-0.47582 1.384328,-1.53788 1.384327,-1.53788 h 6.745859 6.745858 l 1.48296,1.47685 1.48296,1.47684 v 14.22422 14.22422 l -5.073346,3.70523 c -2.79034,2.03788 -5.146315,3.74549 -5.2355,3.79469 -0.152128,0.0839 -0.370627,-0.0767 -3.533852,-2.59763 z m 8.235789,-1.61929 c 2.620473,-1.93472 4.808636,-3.56181 4.862583,-3.61576 0.08254,-0.0825 0.09923,-2.30061 0.105306,-13.99435 l 0.0072,-13.89627 -1.309608,-1.30425 -1.309608,-1.30425 h -6.451278 c -5.053624,0 -6.475602,0.0193 -6.56355,0.0891 -0.06175,0.049 -0.629219,0.67529 -1.261044,1.39174 l -1.148773,1.30264 v 14.147 14.14699 l 0.196024,0.1742 c 0.519692,0.46181 7.974817,6.38063 8.036949,6.38075 0.0392,7e-5 2.215305,-1.58282 4.835779,-3.51755 z m -4.324094,-5.74493 -2.329857,-1.99839 0.01807,-9.81774 0.01807,-9.81775 h 2.352278 2.352277 l 0.01803,11.75762 c 0.0099,6.46668 -0.0083,11.78394 -0.04049,11.81613 -0.03219,0.0322 -1.10696,-0.84075 -2.388382,-1.93987 z m 1.858109,-9.20126 c 0.0096,-5.38737 -0.0064,-10.24429 -0.03564,-10.79315 l -0.05316,-0.99794 h -1.710744 -1.710748 l -0.01809,9.32587 c -0.0099,5.12922 0.0061,9.36542 0.03564,9.41377 0.05952,0.0974 1.429445,1.30714 2.576035,2.27485 0.407155,0.34363 0.776035,0.61287 0.819733,0.59831 0.05779,-0.0193 0.08423,-2.69731 0.09697,-9.82171 z"
         id="path2147"
         inkscape:connector-curvature="0" />
    </g>
    <path
       d="m 42.529757,435.02581 c 1.582939,0 3.122447,-0.37131 4.618516,-1.11432 1.496069,-0.74293 2.726709,-1.7405 3.691916,-2.99281 v 0 l -2.750841,-2.99282 c -0.714249,0.91271 -1.534676,1.61317 -2.461275,2.10137 -0.9266,0.48816 -1.920762,0.73228 -2.982491,0.73228 -0.945903,0 -1.819412,-0.18566 -2.620535,-0.5572 -0.801123,-0.37131 -1.496069,-0.87554 -2.08485,-1.5123 -0.588776,-0.63676 -1.052073,-1.3956 -1.389896,-2.27645 -0.337831,-0.88088 -0.506731,-1.83072 -0.506731,-2.84955 0,-1.04006 0.164092,-2.00051 0.492256,-2.88135 0.328183,-0.88088 0.781815,-1.64499 1.36094,-2.29236 0.579121,-0.64737 1.269247,-1.15679 2.07037,-1.52825 0.801119,-0.37131 1.655325,-0.55716 2.562621,-0.55716 1.081032,0 2.104153,0.25984 3.06936,0.78002 0.965207,0.52003 1.804937,1.26826 2.519187,2.24462 v 0 l 2.83771,-3.08833 c -0.945904,-1.27353 -2.181368,-2.28702 -3.706396,-3.04056 -1.525028,-0.75349 -3.098315,-1.13022 -4.719861,-1.13022 -1.50572,0 -2.919751,0.29712 -4.242081,0.89145 -1.322334,0.59429 -2.466104,1.40087 -3.431311,2.4197 -0.965206,1.01884 -1.727719,2.23398 -2.28754,3.64549 -0.559821,1.41152 -0.83973,2.92382 -0.83973,4.53695 0,1.61316 0.2751,3.12019 0.825251,4.52106 0.550169,1.40087 1.307857,2.61074 2.273064,3.62958 0.965207,1.0188 2.108973,1.82538 3.431307,2.41971 1.322337,0.59428 2.746016,0.89145 4.27104,0.89145 z m 54.872009,0.0308 c 1.505721,0 2.914924,-0.29713 4.227604,-0.89145 1.31268,-0.59433 2.44679,-1.40622 3.40235,-2.43566 0.95555,-1.02945 1.71325,-2.24989 2.27307,-3.6614 0.55983,-1.41148 0.83972,-2.91321 0.83972,-4.50512 0,-1.59195 -0.27991,-3.09364 -0.83972,-4.50512 -0.55982,-1.41151 -1.31752,-2.63196 -2.27307,-3.6614 -0.95556,-1.02944 -2.08967,-1.84133 -3.40235,-2.43566 -1.31268,-0.59429 -2.721883,-0.89145 -4.227604,-0.89145 -1.486425,0 -2.885976,0.29713 -4.198658,0.89145 -1.312682,0.59433 -2.446792,1.40622 -3.402355,2.43566 -0.955548,1.02944 -1.713232,2.24989 -2.273053,3.6614 -0.559822,1.41148 -0.839734,2.91317 -0.839734,4.50512 0,1.59191 0.279905,3.09364 0.839734,4.50512 0.559821,1.41151 1.317505,2.63195 2.273053,3.6614 0.955563,1.02944 2.089673,1.84133 3.402355,2.43566 1.312682,0.59428 2.712233,0.89145 4.198658,0.89145 z m 0,-4.23452 c -0.907292,0 -1.751854,-0.18565 -2.533662,-0.55715 -0.781823,-0.37131 -1.457466,-0.88085 -2.026947,-1.52822 -0.569469,-0.64741 -1.018289,-1.41682 -1.346461,-2.30827 -0.328183,-0.89153 -0.492262,-1.84667 -0.492262,-2.86547 0,-1.04005 0.164091,-2.0005 0.492262,-2.88135 0.328183,-0.88088 0.776992,-1.64498 1.346461,-2.29239 0.569481,-0.64738 1.245124,-1.15679 2.026947,-1.52822 0.781808,-0.37131 1.62637,-0.5572 2.533662,-0.5572 0.907289,0 1.756671,0.18566 2.548142,0.5572 0.791472,0.37131 1.471942,0.88084 2.041422,1.52822 0.56946,0.64741 1.01828,1.41151 1.34646,2.29239 0.32815,0.88085 0.49225,1.8413 0.49225,2.88135 0,1.0188 -0.16409,1.97394 -0.49225,2.86547 -0.32818,0.89145 -0.777,1.66086 -1.34646,2.30827 -0.56948,0.64737 -1.24995,1.15679 -2.041422,1.52822 -0.791471,0.37131 -1.640853,0.55715 -2.548142,0.55715 z m 63.645734,3.88427 v -4.07526 h -11.09022 v -18.21154 h -4.19866 v 22.2868 z m 52.93192,0 v -4.07526 h -11.09023 v -18.21154 h -4.19863 v 22.2868 z m 53.33733,0 v -4.01157 h -11.49562 v -5.28518 h 7.49968 v -3.88426 h -7.49968 v -5.09414 h 11.3798 v -4.01161 h -15.57842 v 22.2868 z m 46.56151,0.31827 c 1.58295,0 3.12246,-0.37131 4.6185,-1.11436 1.49608,-0.74289 2.72671,-1.7405 3.69193,-2.99281 v 0 l -2.75085,-2.99278 c -0.71422,0.91271 -1.53467,1.61313 -2.46126,2.10133 -0.92662,0.48816 -1.92078,0.73228 -2.98251,0.73228 -0.94588,0 -1.81942,-0.18566 -2.62051,-0.55716 -0.80116,-0.37131 -1.49608,-0.87558 -2.08483,-1.51234 -0.58879,-0.63676 -1.05212,-1.39556 -1.38991,-2.27645 -0.33787,-0.88084 -0.50677,-1.83072 -0.50677,-2.84951 0,-1.04006 0.16413,-2.00051 0.49227,-2.88135 0.32826,-0.88088 0.78183,-1.64499 1.36094,-2.2924 0.57914,-0.64737 1.26926,-1.15679 2.07038,-1.52821 0.80112,-0.37131 1.65533,-0.5572 2.56262,-0.5572 1.08102,0 2.10413,0.26023 3.06934,0.78006 0.96521,0.52003 1.80497,1.26822 2.51922,2.24458 v 0 l 2.83768,-3.08829 c -0.94588,-1.27357 -2.18135,-2.28706 -3.70641,-3.04059 -1.52499,-0.7535 -3.09829,-1.13023 -4.71983,-1.13023 -1.50573,0 -2.91975,0.29712 -4.24209,0.89145 -1.32234,0.59433 -2.4661,1.40091 -3.43131,2.41974 -0.96518,1.01884 -1.72771,2.23398 -2.28752,3.64545 -0.55985,1.41152 -0.83975,2.92382 -0.83975,4.53699 0,1.61312 0.27521,3.12015 0.82526,4.52102 0.55016,1.40091 1.30785,2.61075 2.27306,3.62958 0.96518,1.01884 2.10898,1.82542 3.43128,2.41971 1.32238,0.59432 2.74604,0.89149 4.27107,0.89149 z m 55.53798,-0.31827 v -18.2115 h 6.8047 v -4.0753 h -17.837 v 4.0753 h 6.83369 v 18.2115 z m 48.09629,0 v -22.2868 h -4.19865 v 22.2868 z m 48.35686,0.35017 c 1.50569,0 2.9149,-0.29712 4.22759,-0.89145 1.31269,-0.59433 2.44681,-1.40621 3.40233,-2.43566 0.95557,-1.02944 1.71326,-2.24988 2.27307,-3.6614 0.55985,-1.41148 0.83975,-2.91321 0.83975,-4.50512 0,-1.59194 -0.27983,-3.09363 -0.83975,-4.50511 -0.55981,-1.41152 -1.3175,-2.63196 -2.27307,-3.66141 -0.95552,-1.02944 -2.08964,-1.84133 -3.40233,-2.43565 -1.31269,-0.59429 -2.7219,-0.89146 -4.22759,-0.89146 -1.48644,0 -2.88596,0.29713 -4.19869,0.89146 -1.31266,0.59432 -2.44681,1.40621 -3.40233,2.43565 -0.95557,1.02945 -1.71326,2.24989 -2.27307,3.66141 -0.55981,1.41148 -0.83971,2.91317 -0.83971,4.50511 0,1.59191 0.27982,3.09364 0.83971,4.50512 0.55981,1.41152 1.3175,2.63196 2.27307,3.6614 0.95552,1.02945 2.08967,1.84133 3.40233,2.43566 1.31273,0.59429 2.71225,0.89145 4.19869,0.89145 z m 0,-4.23451 c -0.90729,0 -1.75189,-0.18566 -2.53368,-0.55716 -0.78182,-0.37131 -1.45745,-0.88084 -2.02694,-1.52821 -0.56946,-0.64741 -1.0183,-1.41683 -1.34648,-2.30828 -0.32826,-0.89153 -0.49224,-1.84667 -0.49224,-2.86547 0,-1.04005 0.16413,-2.0005 0.49224,-2.88134 0.32826,-0.88088 0.77702,-1.64499 1.34648,-2.2924 0.56949,-0.64737 1.24512,-1.15679 2.02694,-1.52822 0.78179,-0.37131 1.62639,-0.55719 2.53368,-0.55719 0.90725,0 1.75665,0.18565 2.54812,0.55719 0.79148,0.37131 1.47194,0.88085 2.04144,1.52822 0.56946,0.64741 1.01826,1.41152 1.34644,2.2924 0.32826,0.88084 0.49224,1.84129 0.49224,2.88134 0,1.0188 -0.16413,1.97394 -0.49224,2.86547 -0.32826,0.89145 -0.77698,1.66087 -1.34644,2.30828 -0.5695,0.64737 -1.24996,1.15678 -2.04144,1.52821 -0.79147,0.37131 -1.64087,0.55716 -2.54812,0.55716 z m 52.32384,3.88426 v -14.9003 l 10.33734,14.9003 h 3.70641 v -22.2868 h -3.93804 v 14.42279 l -10.07677,-14.42279 h -3.99596 v 22.2868 z"
       id="COLLECTION"
       inkscape:connector-curvature="0"
       style="fill:#ffffff;fill-rule:nonzero;stroke:none;stroke-width:1.29751229" />
  </g>
</svg>
