<?xml version="1.0" encoding="UTF-8" standalone="no"?>
<svg
   xmlns:dc="http://purl.org/dc/elements/1.1/"
   xmlns:cc="http://creativecommons.org/ns#"
   xmlns:rdf="http://www.w3.org/1999/02/22-rdf-syntax-ns#"
   xmlns:svg="http://www.w3.org/2000/svg"
   xmlns="http://www.w3.org/2000/svg"
   xmlns:sodipodi="http://sodipodi.sourceforge.net/DTD/sodipodi-0.dtd"
   xmlns:inkscape="http://www.inkscape.org/namespaces/inkscape"
   width="387.00949"
   height="195.38123"
   version="1.1"
   id="svg10"
   sodipodi:docname="doubledragon.svg"
   inkscape:version="0.92.5 (2060ec1f9f, 2020-04-08)">
  <metadata
     id="metadata16">
    <rdf:RDF>
      <cc:Work
         rdf:about="">
        <dc:format>image/svg+xml</dc:format>
        <dc:type
           rdf:resource="http://purl.org/dc/dcmitype/StillImage" />
        <dc:title />
      </cc:Work>
    </rdf:RDF>
  </metadata>
  <defs
     id="defs14" />
  <sodipodi:namedview
     pagecolor="#ffffff"
     bordercolor="#666666"
     borderopacity="1"
     objecttolerance="10"
     gridtolerance="10"
     guidetolerance="10"
     inkscape:pageopacity="0"
     inkscape:pageshadow="2"
     inkscape:window-width="1366"
     inkscape:window-height="740"
     id="namedview12"
     showgrid="false"
     units="px"
     inkscape:pagecheckerboard="true"
     inkscape:zoom="1.6192529"
     inkscape:cx="116.05786"
     inkscape:cy="72.588007"
     inkscape:window-x="0"
     inkscape:window-y="0"
     inkscape:window-maximized="1"
     inkscape:current-layer="svg10" />
  <rect
     style="fill:#ffffff;fill-opacity:1;fill-rule:nonzero;stroke:none;stroke-width:1.87718201;stroke-linecap:round;stroke-linejoin:round;stroke-miterlimit:4;stroke-dasharray:none;stroke-opacity:1"
     id="rect626"
     width="8.0067863"
     height="69.058533"
     x="371.3862"
     y="97.905067" />
  <rect
     style="fill:#ffffff;fill-opacity:1;fill-rule:nonzero;stroke:none;stroke-width:1.87718201;stroke-linecap:round;stroke-linejoin:round;stroke-miterlimit:4;stroke-dasharray:none;stroke-opacity:1"
     id="rect624"
     width="5.204411"
     height="5.8049202"
     x="349.16739"
     y="181.57599" />
  <rect
     style="fill:#ffffff;fill-opacity:1;fill-rule:nonzero;stroke:none;stroke-width:1.87718201;stroke-linecap:round;stroke-linejoin:round;stroke-miterlimit:4;stroke-dasharray:none;stroke-opacity:1"
     id="rect622"
     width="11.204501"
     height="70.953011"
     x="340.15973"
     y="118.52254" />
  <rect
     style="fill:#ffffff;fill-opacity:1;fill-rule:nonzero;stroke:none;stroke-width:1.87718201;stroke-linecap:round;stroke-linejoin:round;stroke-miterlimit:4;stroke-dasharray:none;stroke-opacity:1"
     id="rect618"
     width="8.4071255"
     height="20.417303"
     x="320.54312"
     y="143.54376" />
  <rect
     style="fill:#ffffff;fill-opacity:1;fill-rule:nonzero;stroke:none;stroke-width:1.87718201;stroke-linecap:round;stroke-linejoin:round;stroke-miterlimit:4;stroke-dasharray:none;stroke-opacity:1"
     id="rect620"
     width="5.6047502"
     height="10.008482"
     x="316.94006"
     y="155.35378" />
  <rect
     style="fill:#ffffff;fill-opacity:1;fill-rule:nonzero;stroke:none;stroke-width:1.87718201;stroke-linecap:round;stroke-linejoin:round;stroke-miterlimit:4;stroke-dasharray:none;stroke-opacity:1"
     id="rect616"
     width="4.0033932"
     height="11.40967"
     x="283.71191"
     y="117.92204" />
  <rect
     style="fill:#ffffff;fill-opacity:1;fill-rule:nonzero;stroke:none;stroke-width:1.87718201;stroke-linecap:round;stroke-linejoin:round;stroke-miterlimit:4;stroke-dasharray:none;stroke-opacity:1"
     id="rect614"
     width="6.2052593"
     height="13.011027"
     x="286.31412"
     y="113.31813" />
  <rect
     style="fill:#ffffff;fill-opacity:1;fill-rule:nonzero;stroke:none;stroke-width:1.87718201;stroke-linecap:round;stroke-linejoin:round;stroke-miterlimit:4;stroke-dasharray:none;stroke-opacity:1"
     id="rect612"
     width="7.2061071"
     height="6.805768"
     x="289.11649"
     y="109.51492" />
  <rect
     style="fill:#ffffff;fill-opacity:1;fill-rule:nonzero;stroke:none;stroke-width:1.87718201;stroke-linecap:round;stroke-linejoin:round;stroke-miterlimit:4;stroke-dasharray:none;stroke-opacity:1"
     id="rect610"
     width="13.611536"
     height="5.4045801"
     x="291.51852"
     y="105.31134" />
  <rect
     style="fill:#ffffff;fill-opacity:1;fill-rule:nonzero;stroke:none;stroke-width:1.87718201;stroke-linecap:round;stroke-linejoin:round;stroke-miterlimit:4;stroke-dasharray:none;stroke-opacity:1"
     id="rect608"
     width="8.6073084"
     height="4.8040686"
     x="227.26408"
     y="114.51915" />
  <rect
     style="fill:#ffffff;fill-opacity:1;fill-rule:nonzero;stroke:none;stroke-width:1.87718201;stroke-linecap:round;stroke-linejoin:round;stroke-miterlimit:4;stroke-dasharray:none;stroke-opacity:1"
     id="rect606"
     width="9.8083134"
     height="7.8066163"
     x="230.86714"
     y="111.5166" />
  <rect
     style="fill:#ffffff;fill-opacity:1;fill-rule:nonzero;stroke:none;stroke-width:1.87718201;stroke-linecap:round;stroke-linejoin:round;stroke-miterlimit:4;stroke-dasharray:none;stroke-opacity:1"
     id="rect604"
     width="8.4071255"
     height="9.4079733"
     x="227.26408"
     y="119.32323" />
  <rect
     style="fill:#ffffff;fill-opacity:1;fill-rule:nonzero;stroke:none;stroke-width:1.87718201;stroke-linecap:round;stroke-linejoin:round;stroke-miterlimit:4;stroke-dasharray:none;stroke-opacity:1"
     id="rect602"
     width="7.6064463"
     height="4.2035627"
     x="238.27339"
     y="104.911" />
  <rect
     style="fill:#ffffff;fill-opacity:1;fill-rule:nonzero;stroke:none;stroke-width:1.87718201;stroke-linecap:round;stroke-linejoin:round;stroke-miterlimit:4;stroke-dasharray:none;stroke-opacity:1"
     id="rect600"
     width="11.2095"
     height="8.0067863"
     x="233.86967"
     y="107.11288" />
  <rect
     style="fill:#ffffff;fill-opacity:1;fill-rule:nonzero;stroke:none;stroke-width:1.87718201;stroke-linecap:round;stroke-linejoin:round;stroke-miterlimit:4;stroke-dasharray:none;stroke-opacity:1"
     id="rect598"
     width="7.6064463"
     height="6.0050893"
     x="262.29376"
     y="114.51915" />
  <rect
     style="fill:#ffffff;fill-opacity:1;fill-rule:nonzero;stroke:none;stroke-width:1.87718201;stroke-linecap:round;stroke-linejoin:round;stroke-miterlimit:4;stroke-dasharray:none;stroke-opacity:1"
     id="rect596"
     width="11.2095"
     height="32.427483"
     x="260.89255"
     y="141.94238" />
  <rect
     style="fill:#ffffff;fill-opacity:1;fill-rule:nonzero;stroke:none;stroke-width:1.87718201;stroke-linecap:round;stroke-linejoin:round;stroke-miterlimit:4;stroke-dasharray:none;stroke-opacity:1"
     id="rect594"
     width="14.212046"
     height="9.2078037"
     x="205.24541"
     y="172.96869" />
  <rect
     style="fill:#ffffff;fill-opacity:1;fill-rule:nonzero;stroke:none;stroke-width:1.87718201;stroke-linecap:round;stroke-linejoin:round;stroke-miterlimit:4;stroke-dasharray:none;stroke-opacity:1"
     id="rect592"
     width="5.6047502"
     height="8.8074646"
     x="187.02998"
     y="106.31219" />
  <rect
     style="fill:#ffffff;fill-opacity:1;fill-rule:nonzero;stroke:none;stroke-width:1.87718201;stroke-linecap:round;stroke-linejoin:round;stroke-miterlimit:4;stroke-dasharray:none;stroke-opacity:1"
     id="rect590"
     width="12.210348"
     height="5.8049202"
     x="192.23439"
     y="148.54799" />
  <rect
     style="fill:#ffffff;fill-opacity:1;fill-rule:nonzero;stroke:none;stroke-width:1.87718201;stroke-linecap:round;stroke-linejoin:round;stroke-miterlimit:4;stroke-dasharray:none;stroke-opacity:1"
     id="rect588"
     width="5.4045801"
     height="8.8074646"
     x="175.01979"
     y="144.34442" />
  <rect
     style="fill:#ffffff;fill-opacity:1;fill-rule:nonzero;stroke:none;stroke-width:1.87718201;stroke-linecap:round;stroke-linejoin:round;stroke-miterlimit:4;stroke-dasharray:none;stroke-opacity:1"
     id="rect586"
     width="12.010179"
     height="10.80916"
     x="168.01385"
     y="150.14935" />
  <rect
     style="fill:#ffffff;fill-opacity:1;fill-rule:nonzero;stroke:none;stroke-width:1.87718201;stroke-linecap:round;stroke-linejoin:round;stroke-miterlimit:4;stroke-dasharray:none;stroke-opacity:1"
     id="rect584"
     width="8.8074646"
     height="14.812554"
     x="148.99774"
     y="157.95596" />
  <rect
     style="fill:#ffffff;fill-opacity:1;fill-rule:nonzero;stroke:none;stroke-width:1.87718201;stroke-linecap:round;stroke-linejoin:round;stroke-miterlimit:4;stroke-dasharray:none;stroke-opacity:1"
     id="rect582"
     width="10.008478"
     height="18.415606"
     x="144.79419"
     y="144.14427" />
  <rect
     style="fill:#ffffff;fill-opacity:1;fill-rule:nonzero;stroke:none;stroke-width:1.87718201;stroke-linecap:round;stroke-linejoin:round;stroke-miterlimit:4;stroke-dasharray:none;stroke-opacity:1"
     id="rect580"
     width="14.011875"
     height="3.0025446"
     x="144.79419"
     y="141.14172" />
  <rect
     style="fill:#ffffff;fill-opacity:1;fill-rule:nonzero;stroke:none;stroke-width:1.87718201;stroke-linecap:round;stroke-linejoin:round;stroke-miterlimit:4;stroke-dasharray:none;stroke-opacity:1"
     id="rect578"
     width="6.2052593"
     height="6.4054284"
     x="154.80266"
     y="134.33595" />
  <rect
     style="fill:#ffffff;fill-opacity:1;fill-rule:nonzero;stroke:none;stroke-width:1.87718201;stroke-linecap:round;stroke-linejoin:round;stroke-miterlimit:4;stroke-dasharray:none;stroke-opacity:1"
     id="rect576"
     width="7.4062772"
     height="28.824429"
     x="130.38197"
     y="152.95174" />
  <rect
     style="fill:#ffffff;fill-opacity:1;fill-rule:nonzero;stroke:none;stroke-width:1.87718201;stroke-linecap:round;stroke-linejoin:round;stroke-miterlimit:4;stroke-dasharray:none;stroke-opacity:1"
     id="rect574"
     width="9.2078037"
     height="27.823582"
     x="125.97825"
     y="117.32153" />
  <rect
     style="fill:#ffffff;fill-opacity:1;fill-rule:nonzero;stroke:none;stroke-width:1.87718201;stroke-linecap:round;stroke-linejoin:round;stroke-miterlimit:4;stroke-dasharray:none;stroke-opacity:1"
     id="rect572"
     width="9.2078037"
     height="41.835457"
     x="103.55923"
     y="121.92543" />
  <rect
     style="fill:#ffffff;fill-opacity:1;fill-rule:nonzero;stroke:none;stroke-width:1.87718201;stroke-linecap:round;stroke-linejoin:round;stroke-miterlimit:4;stroke-dasharray:none;stroke-opacity:1"
     id="rect570"
     width="6.2277865"
     height="3.113909"
     x="268.2973"
     y="16.633095" />
  <rect
     style="fill:#ffffff;fill-opacity:1;fill-rule:nonzero;stroke:none;stroke-width:1.87718201;stroke-linecap:round;stroke-linejoin:round;stroke-miterlimit:4;stroke-dasharray:none;stroke-opacity:1"
     id="rect568"
     width="13.871049"
     height="6.793983"
     x="271.69434"
     y="12.386853" />
  <rect
     style="fill:#ffffff;fill-opacity:1;fill-rule:nonzero;stroke:none;stroke-width:1.87718201;stroke-linecap:round;stroke-linejoin:round;stroke-miterlimit:4;stroke-dasharray:none;stroke-opacity:1"
     id="rect566"
     width="8.7755613"
     height="8.7755613"
     x="265.74954"
     y="19.747004" />
  <rect
     style="fill:#ffffff;fill-opacity:1;fill-rule:nonzero;stroke:none;stroke-width:1.87718201;stroke-linecap:round;stroke-linejoin:round;stroke-miterlimit:4;stroke-dasharray:none;stroke-opacity:1"
     id="rect564"
     width="6.793983"
     height="17.551123"
     x="227.81654"
     y="60.510902" />
  <rect
     style="fill:#ffffff;fill-opacity:1;fill-rule:nonzero;stroke:none;stroke-width:1.87718201;stroke-linecap:round;stroke-linejoin:round;stroke-miterlimit:4;stroke-dasharray:none;stroke-opacity:1"
     id="rect562"
     width="11.88947"
     height="7.3601484"
     x="225.83495"
     y="16.066929" />
  <rect
     style="fill:#ffffff;fill-opacity:1;fill-rule:nonzero;stroke:none;stroke-width:1.87718201;stroke-linecap:round;stroke-linejoin:round;stroke-miterlimit:4;stroke-dasharray:none;stroke-opacity:1"
     id="rect560"
     width="14.437214"
     height="6.5109005"
     x="162.99059"
     y="19.463921" />
  <rect
     style="fill:#ffffff;fill-opacity:1;fill-rule:nonzero;stroke:none;stroke-width:1.87718201;stroke-linecap:round;stroke-linejoin:round;stroke-miterlimit:4;stroke-dasharray:none;stroke-opacity:1"
     id="rect558"
     width="8.7755613"
     height="27.742098"
     x="198.65901"
     y="23.710159" />
  <rect
     style="fill:#ffffff;fill-opacity:1;fill-rule:nonzero;stroke:none;stroke-width:1.87718201;stroke-linecap:round;stroke-linejoin:round;stroke-miterlimit:4;stroke-dasharray:none;stroke-opacity:1"
     id="rect556"
     width="6.5109005"
     height="20.381948"
     x="153.93193"
     y="55.415417" />
  <rect
     style="fill:#ffffff;fill-opacity:1;fill-rule:nonzero;stroke:none;stroke-width:1.87718201;stroke-linecap:round;stroke-linejoin:round;stroke-miterlimit:4;stroke-dasharray:none;stroke-opacity:1"
     id="rect554"
     width="10.757138"
     height="5.3785696"
     x="125.0575"
     y="13.802266" />
  <rect
     style="fill:#ffffff;fill-opacity:1;fill-rule:nonzero;stroke:none;stroke-width:1.87718201;stroke-linecap:round;stroke-linejoin:round;stroke-miterlimit:4;stroke-dasharray:none;stroke-opacity:1"
     id="rect552"
     width="12.172553"
     height="9.3417273"
     x="123.6421"
     y="19.180838" />
  <rect
     style="fill:#ffffff;fill-opacity:1;fill-rule:nonzero;stroke:none;stroke-width:1.87718201;stroke-linecap:round;stroke-linejoin:round;stroke-miterlimit:4;stroke-dasharray:none;stroke-opacity:1"
     id="rect550"
     width="9.6248159"
     height="25.477436"
     x="101.84473"
     y="54.283085" />
  <rect
     style="fill:#ffffff;fill-opacity:1;fill-rule:nonzero;stroke:none;stroke-width:1.87718201;stroke-linecap:round;stroke-linejoin:round;stroke-miterlimit:4;stroke-dasharray:none;stroke-opacity:1"
     id="rect548"
     width="7.9263139"
     height="10.190974"
     x="71.554893"
     y="19.747004" />
  <rect
     style="fill:#ffffff;fill-opacity:1;fill-rule:nonzero;stroke:none;stroke-width:1.87718201;stroke-linecap:round;stroke-linejoin:round;stroke-miterlimit:4;stroke-dasharray:none;stroke-opacity:1"
     id="rect546"
     width="5.3785701"
     height="9.9078922"
     x="77.216545"
     y="15.783845" />
  <rect
     style="fill:#ffffff;fill-opacity:1;fill-rule:nonzero;stroke:none;stroke-width:1.87718201;stroke-linecap:round;stroke-linejoin:round;stroke-miterlimit:4;stroke-dasharray:none;stroke-opacity:1"
     id="rect544"
     width="7.3601484"
     height="11.323305"
     x="67.025566"
     y="26.824068" />
  <rect
     style="fill:#ffffff;fill-opacity:1;fill-rule:nonzero;stroke:none;stroke-width:1.87718201;stroke-linecap:round;stroke-linejoin:round;stroke-miterlimit:4;stroke-dasharray:none;stroke-opacity:1"
     id="rect542"
     width="10.474057"
     height="20.948114"
     x="101.84473"
     y="54.283085" />
  <rect
     style="fill:#ffffff;fill-opacity:1;fill-rule:nonzero;stroke:none;stroke-width:1.87718201;stroke-linecap:round;stroke-linejoin:round;stroke-miterlimit:4;stroke-dasharray:none;stroke-opacity:1"
     id="rect540"
     width="8.7755613"
     height="29.723675"
     x="43.529716"
     y="41.544365" />
  <path
     inkscape:connector-curvature="0"
     id="path536"
     d="m 170.04707,191.60923 c -6.83425,-3.95449 -16.46344,-13.41557 -22.30514,-21.91574 l -4.33825,-6.31254 -0.27528,6.54383 c -0.54206,12.88573 -0.77917,13.38346 -7.58969,15.93161 -3.36632,1.2595 -6.78788,2.29 -7.60349,2.29 -1.04927,0 -1.71312,-2.639 -2.27013,-9.02436 -0.6622,-7.59135 -1.12651,-9.11306 -2.92403,-9.58313 -1.3345,-0.34898 -2.13681,-1.52942 -2.13681,-3.14386 0,-4.1914 -1.71477,-4.03317 -3.80551,0.35116 -6.21056,13.02367 -13.14118,17.3421 -33.585406,20.92689 -8.33677,1.46182 -15.59595,2.38701 -16.13153,2.05601 -1.25213,-0.77387 -1.25791,-4.16303 -0.009,-5.53091 0.53039,-0.58111 1.78158,-3.52297 2.78042,-6.53748 1.46322,-4.4159 1.81611,-10.33005 1.81611,-30.43622 V 122.2692 l -2.78042,0.68572 c -1.52923,0.37717 -4.00854,0.98991 -5.50956,1.36168 -3.30687,0.81902 -4.2668,-1.80317 -3.7351,-10.20306 0.34418,-5.43761 0.40253,-5.51472 6.46424,-8.5437 3.36431,-1.68111 9.9766,-3.89203 14.69397,-4.91315 7.27442,-1.574611 9.512,-1.647346 14.7331,-0.47891 14.987896,3.35414 26.181306,22.04406 26.181306,43.71557 0,7.14167 1.16809,9.68389 2.66142,5.79229 0.37131,-0.96756 0.67508,-6.24741 0.67508,-11.73299 0,-10.36919 -1.50553,-15.40113 -5.23187,-17.48649 -2.3792,-1.33148 -1.06934,-4.64767 4.21141,-10.66212 10.41812,-11.865585 30.48479,-13.580944 41.87563,-3.57965 5.17477,4.54351 6.97048,9.10133 6.95716,17.6586 -0.0132,8.40837 -3.43936,16.62807 -9.42718,22.61588 -3.05364,3.05363 -3.83085,4.57759 -3.27483,6.42123 1.12866,3.74239 2.54033,4.71148 3.3872,2.32528 2.60857,-7.35015 3.84892,-9.34146 6.19393,-9.944 1.94982,-0.501 3.9678,-3.55084 8.30493,-12.55147 5.66466,-11.75557 5.70542,-11.91556 3.61454,-14.18568 -1.16308,-1.26281 -2.11471,-2.91152 -2.11471,-3.66381 0,-2.16667 8.05464,-15.592874 9.7432,-16.240826 2.48321,-0.9529 13.47579,10.399316 18.69511,19.306766 2.6516,4.52527 6.17814,11.9486 7.83677,16.49627 3.31256,9.08246 4.17425,8.92182 5.27987,-0.9843 1.03072,-9.23524 4.87221,-18.17871 10.49405,-24.43154 10.98798,-12.221276 23.49657,-13.673401 36.10563,-4.19151 3.20294,2.40858 7.45006,4.96854 9.43806,5.68881 1.988,0.72027 3.61455,1.90201 3.61455,2.6261 0,1.904 -15.81439,17.1062 -17.79468,17.10583 -0.96038,-1.8e-4 -2.79682,-2.60692 -4.32794,-6.14331 -3.09657,-7.15203 -5.4121,-8.85905 -9.49419,-6.99913 -6.74578,3.07359 -10.40231,20.25431 -6.88539,32.35208 2.00957,6.9127 7.13092,12.31866 11.12943,11.74791 1.97104,-0.28134 2.40495,-1.21961 2.69669,-5.83135 0.20415,-3.22696 -0.40364,-7.46341 -1.47214,-10.2612 -1.00089,-2.62082 -1.50317,-5.27748 -1.11617,-5.90365 0.93703,-1.51616 17.90504,-1.46405 20.75975,0.0638 1.23556,0.66125 2.42656,1.02219 2.64666,0.80208 0.22012,-0.2201 0.93948,-3.77601 1.59862,-7.90202 2.48292,-15.54242 9.12341,-26.7516 18.32371,-30.93051 5.83834,-2.651857 15.39801,-2.662124 21.19326,-0.0228 5.76938,2.62758 12.40155,10.04883 15.4089,17.24224 l 2.38579,5.70665 0.55608,-16.03614 c 0.36587,-10.551251 0.98904,-16.179646 1.82193,-16.455703 0.6962,-0.230757 3.13474,2.981702 5.41895,7.138797 3.72123,6.772326 19.66001,24.796956 21.92742,24.796956 0.47312,0 0.86022,-2.933 0.86022,-6.51779 0,-5.11832 -0.59702,-7.39757 -2.78043,-10.615 -1.52922,-2.25344 -2.78042,-4.28916 -2.78042,-4.52381 0,-0.23464 5.57516,-3.495688 12.38923,-7.246755 7.73777,-4.259559 12.78197,-6.427375 13.43531,-5.77403 0.65334,0.653345 0.38663,2.988498 -0.71041,6.219738 -1.40005,4.123773 -1.90032,12.896267 -2.46522,43.229627 -0.39925,21.43892 -1.1748,38.64756 -1.77612,39.4108 -0.58706,0.74516 -3.34095,2.62555 -6.11976,4.17865 -6.17743,3.45264 -8.08002,2.42703 -8.08002,-4.35561 0,-6.83076 -2.88974,-15.43531 -6.97956,-20.78244 -5.97719,-7.81475 -6.36644,-7.30006 -6.36644,8.41776 0,13.93378 0.0175,14.02896 2.78041,15.0794 3.43818,1.30721 3.4966,3.057 0.2623,7.85638 -4.46461,6.62505 -14.06816,6.62914 -17.9353,0.008 -1.61153,-2.7593 -2.30239,-6.72134 -2.79892,-16.05137 l -0.65925,-12.38789 -2.89288,6.16767 c -7.86781,16.77433 -21.37399,22.89515 -35.25591,15.97751 -6.87335,-3.42513 -12.80163,-9.98463 -15.39104,-17.02981 -2.72647,-7.41809 -3.40937,-7.64681 -4.26462,-1.42832 -0.51376,3.7354 -0.18736,7.81801 0.99353,12.42746 0.96724,3.77552 1.75862,7.2056 1.75862,7.6224 0,0.41681 -8.099,0.84042 -17.99779,0.94133 -15.85237,0.16163 -18.50268,-0.0741 -22.23334,-1.97731 l -4.23555,-2.16082 0.26803,2.51987 c 0.26751,2.51498 0.23298,2.52047 -17.80469,2.82546 -9.94,0.16809 -18.07411,-0.0821 -18.07581,-0.55608 -0.002,-0.47392 1.10991,-2.96306 2.47024,-5.53141 2.27452,-4.29438 2.35911,-5.0968 1.05232,-9.98277 -0.78157,-2.92218 -2.0183,-5.70438 -2.74829,-6.18266 -0.73,-0.4783 -4.57561,-0.74056 -8.54579,-0.58283 -6.79613,0.27003 -7.31441,0.48205 -8.85697,3.62332 -1.1321,2.30541 -1.65092,7.11714 -1.67881,15.57034 l -0.0404,12.23384 -3.3365,0.29587 c -2.09236,0.18552 -5.42823,-0.91448 -8.94597,-2.94994 z m 183.00018,-7.18306 c 0,-0.82273 -1.00096,-2.40172 -2.22433,-3.50887 -1.75455,-1.58784 -2.22434,-3.42544 -2.22434,-8.70057 0,-3.67817 -0.61522,-9.98166 -1.36715,-14.00778 l -1.36716,-7.32018 -0.73462,9.45343 c -0.79277,10.20179 -0.16632,20.51206 1.43598,23.63355 1.17287,2.28495 6.48162,2.65385 6.48162,0.45042 z m -138.74289,-4.62105 c -0.41312,-1.65245 -6.13119,-1.34742 -6.69945,0.35741 -0.3553,1.06587 0.53577,1.37138 3.2438,1.11216 2.05353,-0.19656 3.60857,-0.85787 3.45565,-1.46957 z m -76.49601,-0.50028 c 0.65956,-1.06719 -3.63345,-3.98767 -4.53561,-3.0855 -0.26786,0.26784 -0.17145,1.30935 0.21424,2.31444 0.767,1.99876 3.28494,2.44804 4.32137,0.77106 z m 80.66663,-3.3923 c 0,-0.61169 -0.50047,-1.11216 -1.11216,-1.11216 -0.6117,0 -1.11218,0.50047 -1.11218,1.11216 0,0.6117 0.50048,1.11217 1.11218,1.11217 0.61169,0 1.11216,-0.50047 1.11216,-1.11217 z M 152.73392,161.2678 c -4.08226,-8.02147 -4.41601,-13.77589 -0.94018,-16.21046 2.5353,-1.77578 2.85259,-3.622 0.62249,-3.622 -0.85417,0 -3.11146,1.77494 -5.0162,3.94433 -2.6911,3.06499 -3.2254,4.38858 -2.39665,5.9371 0.58659,1.09605 0.78313,3.07645 0.43679,4.40089 -0.45074,1.7236 0.5822,3.90856 3.63393,7.68694 7.64586,9.46637 9.12528,8.6026 3.65982,-2.1368 z m 113.18867,3.24502 c -0.30853,-0.76461 -0.56097,-0.13902 -0.56097,1.39021 0,1.52924 0.25244,2.15483 0.56097,1.39022 0.30852,-0.76462 0.30852,-2.01581 0,-2.78043 z m -100.15971,-1.64508 c -1.13055,-1.13052 -2.06335,0.57153 -1.13576,2.07239 0.7007,1.13377 0.96266,1.13465 1.33937,0.005 0.25759,-0.77273 0.16596,-1.70733 -0.20361,-2.07689 z m 159.40201,-8.48763 c -0.043,-2.53192 -0.50829,-5.60446 -1.034,-6.82784 -0.87883,-2.04516 -0.96531,-2.00038 -1.0734,0.55608 -0.0647,1.52924 -0.83283,4.0316 -1.70702,5.56084 -1.71578,3.00145 -2.17275,8.0221 -0.85053,9.34434 1.66653,1.66653 4.74316,-4.0274 4.66495,-8.63342 z M 110.44884,142.54752 c -0.13686,-11.03177 -0.97654,-15.76135 -2.91256,-16.40541 -1.02555,-0.34115 -1.39021,1.62065 -1.39021,7.4792 0,4.36791 -0.56625,11.3704 -1.25832,15.56107 -0.69208,4.19068 -0.87971,9.04162 -0.41698,10.77984 0.83977,3.15446 0.84629,3.14996 3.46834,-2.40044 2.16341,-4.5795 2.60632,-7.22912 2.50973,-15.01426 z m 69.10028,7.11556 c 0,-1.46679 -0.50048,-2.66689 -1.11216,-2.66689 -0.6117,0 -1.11218,1.26689 -1.11218,2.81531 0,1.54844 -0.62559,3.05794 -1.3902,3.35445 -0.76462,0.29652 -1.48667,2.38203 -1.60457,4.63448 l -0.21436,4.09534 2.71674,-4.78289 c 1.4942,-2.63059 2.71673,-5.983 2.71673,-7.4498 z m 133.19214,9.2889 c 3.24659,-3.46577 4.59883,-7.51905 5.40604,-16.20422 0.98416,-10.58919 -1.07739,-19.4617 -5.69196,-24.49707 -3.31186,-3.61385 -3.99278,-3.90438 -6.84472,-2.92035 -4.98822,1.72115 -7.53497,8.11393 -7.98891,20.05353 -0.456,11.99364 0.94303,17.98634 5.28386,22.63322 3.80855,4.07705 6.64014,4.3462 9.83569,0.93489 z M 96.651694,157.70383 c 7.793216,-7.79321 6.470836,-32.38756 -2.04128,-37.96492 -1.55359,-1.01793 -3.34719,-1.52791 -3.98577,-1.13322 -1.28531,0.79436 -1.68388,39.73082 -0.41964,40.99506 1.42677,1.42677 3.8302,0.71957 6.44669,-1.89692 z m 38.393696,-3.20052 c 0.009,-0.45876 -0.73369,-0.83412 -1.65122,-0.83412 -1.70302,0 -2.27866,2.35538 -0.9101,3.72393 0.74679,0.7468 2.52811,-1.26298 2.56132,-2.88981 z m 242.24084,-12.23383 c -0.17117,-11.86191 -0.32283,-13.33963 -0.60291,-5.87471 -0.26347,7.02196 -0.88387,10.53685 -2.09629,11.87654 -1.47439,1.62919 -1.51549,2.47411 -0.28583,5.87471 0.78993,2.18451 1.83618,3.97184 2.32499,3.97184 0.48881,0 0.78583,-7.13177 0.66004,-15.84838 z m -205.57649,9.66614 c -1.63979,-1.97581 -3.28229,-1.05589 -3.28229,1.83833 0,1.87611 0.33611,2.01796 2.29615,0.96898 1.82765,-0.97814 2.02886,-1.55091 0.98614,-2.80731 z m 28.97056,0.62141 c 0,-0.6117 -0.97141,-1.11218 -2.15869,-1.11218 -1.18728,0 -2.46802,0.50048 -2.84607,1.11218 -0.38983,0.63077 0.54455,1.11216 2.15871,1.11216 1.56533,0 2.84605,-0.50047 2.84605,-1.11216 z m 68.75203,-7.22909 c 1.19693,-2.62701 1.08406,-2.78042 -2.04582,-2.78042 -3.4752,0 -4.34529,1.85899 -1.97806,4.22623 1.92224,1.92224 2.6003,1.67861 4.02388,-1.44581 z m -73.98127,-1.2584 c 0.38627,-0.38628 0.16565,-1.70508 -0.49027,-2.93067 -0.9605,-1.79471 -1.38243,-1.92858 -2.16817,-0.6879 -1.44023,2.2741 -1.21606,4.32088 0.47323,4.32088 0.81559,0 1.79893,-0.31605 2.18521,-0.70231 z m -62.85443,-26.56275 c -0.17305,-0.15152 -1.95972,-0.025 -3.97041,0.28106 -3.44913,0.52507 -3.56759,0.69113 -2.09577,2.93742 1.83572,2.80166 4.0833,12.59884 4.0833,17.79903 0,2.00888 0.37536,4.02942 0.83413,4.49011 0.45876,0.46069 0.9757,-5.02807 1.14875,-12.19725 0.17304,-7.1692 0.17304,-13.15885 0,-13.31037 z m 16.21038,19.0081 c 2.32372,-3.54644 2.33678,-7.72908 0.0301,-9.64345 -1.54662,-1.28357 -2.16356,-1.06249 -4.44868,1.5941 -2.53817,2.9508 -3.73164,10.40831 -1.95072,12.18923 1.0786,1.07861 4.3382,-1.04006 6.36928,-4.13988 z m 9.61093,0.34052 c 0,-0.61169 -0.50048,-0.80287 -1.11217,-0.42482 -0.6117,0.37805 -1.11217,1.18783 -1.11217,1.79953 0,0.61169 0.50047,0.80285 1.11217,0.42481 0.61169,-0.37805 1.11217,-1.18784 1.11217,-1.79952 z m 191.2928,-9.52498 c 0,-0.27472 -0.52558,-1.48155 -1.16796,-2.68186 -1.45268,-2.71435 -3.2807,-1.74813 -3.2807,1.73404 0,2.0631 0.46652,2.48866 2.22433,2.02897 1.22339,-0.31992 2.22433,-0.80644 2.22433,-1.08115 z m -115.18875,-6.19214 c 2.08204,-3.21138 5.36669,-7.53766 7.2992,-9.61395 3.97745,-4.27335 2.93782,-6.19582 -2.35312,-4.35139 -5.9186,2.06323 -14.30057,16.61194 -10.8354,18.80717 0.83604,0.52964 1.65141,0.97066 1.81192,0.98002 0.16052,0.009 1.99536,-2.61047 4.0774,-5.82185 z m 56.79996,-3.90213 c 6.87909,-10.43631 7.40706,-11.39017 6.30463,-11.39017 -2.14238,0 -8.07645,5.85247 -10.24598,10.10509 -2.46851,4.8387 -3.08995,12.09643 -0.71995,8.40846 0.72864,-1.13385 2.82623,-4.33937 4.6613,-7.12338 z m -21.88376,0.47347 c 0.21284,-1.09745 -0.35451,-1.85414 -1.39021,-1.85414 -1.03167,0 -1.7498,0.95091 -1.7498,2.31701 0,2.71042 2.59888,2.32729 3.14001,-0.46287 z M 66.108034,113.63116 c 0,-0.61169 -0.50048,-1.11217 -1.11216,-1.11217 -0.61169,0 -1.11217,0.50048 -1.11217,1.11217 0,0.61169 0.50048,1.11217 1.11217,1.11217 0.61168,0 1.11216,-0.50048 1.11216,-1.11217 z M 189.5416,110.01662 c -0.0134,-1.95375 -0.24104,-2.14827 -1.03878,-0.88723 -0.56197,0.88833 -0.77501,2.0144 -0.47343,2.50237 0.96467,1.56085 1.52971,0.95733 1.51221,-1.61514 z m 187.46298,-9.80546 c 1.29637,-2.097567 -0.38187,-2.430526 -3.00169,-0.595534 l -2.54372,1.781694 h 2.40617 c 1.32338,0 2.73604,-0.53377 3.13924,-1.18616 z M 9.8147555,97.570066 c -0.318815,-0.830817 0.2053405,-4.153968 1.1647885,-7.38478 1.366124,-4.600236 1.744452,-11.484428 1.744452,-31.742646 0,-14.942847 -0.441487,-26.141295 -1.045306,-26.514475 -0.574918,-0.355319 -2.7019385,0.363986 -4.7267125,1.598458 -6.17861297,3.766994 -6.58903597,3.310905 -6.22876097,-6.921822 l 0.32301997,-9.174629 5.532477,-2.98436 C 16.548037,9.0680985 29.244284,8.425949 39.648724,12.773198 c 8.94965,3.739409 16.37433,13.552775 19.72022,26.064691 1.61377,6.034694 2.95784,6.008351 3.87023,-0.07586 1.79783,-11.988797 11.36815,-24.887955 20.30678,-27.370074 10.2702,-2.8518672 21.908046,0.69328 27.850146,8.483762 2.40379,3.151532 3.18561,3.591286 4.13953,2.328366 2.44311,-3.234512 25.23654,-17.8612959 26.25179,-16.8460477 0.62896,0.6289598 0.17093,3.2829372 -1.18034,6.8391877 -1.96426,5.16951 -2.20816,8.56506 -2.20816,30.742503 v 24.931122 l 2.79365,2.197476 c 3.09352,2.433371 6.1277,2.121942 8.87214,-0.910644 1.56893,-1.733647 1.75689,-5.197658 1.46225,-26.948844 l -0.33811,-24.959486 -3.05846,-4.006765 c -1.68215,-2.20372 -3.05847,-4.5021337 -3.05847,-5.107586 0,-0.6054522 1.53993,-2.6407464 3.42205,-4.5228761 6.88328,-6.8832721 16.56421,-3.48076151 18.23507,6.4089921 0.42996,2.544923 0.92751,4.627132 1.10567,4.627132 0.17818,0 3.11679,-1.27861 6.53028,-2.841357 3.81962,-1.748682 9.19684,-3.0920688 13.98277,-3.493303 6.94842,-0.5825312 8.43359,-0.3304201 13.94854,2.367795 9.88028,4.83397 14.32232,14.292119 11.7494,25.017254 -1.31419,5.478094 -1.26644,5.707325 2.06475,9.913279 4.3787,5.528571 5.81794,9.230009 6.6753,17.167683 0.38169,3.533789 1.19446,6.412597 1.80616,6.397353 1.21914,-0.03038 2.19602,-34.358516 1.10376,-38.786765 -0.35392,-1.434855 -2.23266,-4.060302 -4.17497,-5.834327 -4.3808,-4.001243 -4.64011,-3.716606 12.99668,-14.265826 8.1993,-4.904314 13.65779,-7.5366632 14.29885,-6.8956076 0.64105,0.6410556 0.0532,3.5177013 -1.53975,7.5355586 -2.37959,6.00168 -2.60816,8.476225 -2.98874,32.356577 l -0.41211,25.857898 h 3.13638 c 1.72501,0 5.14353,-0.830685 7.59673,-1.845967 l 4.46035,-1.845969 0.0632,-13.446335 c 0.10112,-21.514547 4.42966,-35.969395 12.37434,-41.323321 3.06143,-2.0630961 5.66748,-2.4459634 20.53931,-3.0175225 9.36814,-0.3600398 17.24282,-0.4447878 17.49927,-0.188329 0.25647,0.256459 -0.42633,3.7639285 -1.51732,7.7943755 -2.38476,8.810103 -3.41327,9.386367 -16.75267,9.386367 -8.6856,0 -9.48245,0.193912 -11.13009,2.708533 -0.97608,1.489695 -1.61321,4.11719 -1.41584,5.838881 l 0.35886,3.130345 10.00951,-0.289273 c 13.00143,-0.375738 13.49669,-0.03275 11.84299,8.201625 -0.71279,3.549248 -1.72925,6.886454 -2.25882,7.416014 -0.52955,0.52956 -5.40501,1.301119 -10.83435,1.714575 -9.6651,0.736021 -9.87872,0.814146 -10.2163,3.736355 -0.47369,4.100389 2.63244,9.673008 6.13358,11.004146 1.73618,0.660094 7.36173,0.796107 14.00444,0.338597 l 11.1026,-0.764679 -0.67023,3.784252 c -0.36863,2.081338 -1.24264,7.173365 -1.94226,11.315611 -0.97117,5.75014 -1.83583,7.84371 -3.65599,8.852031 -1.45807,0.80773 -7.62766,1.338266 -15.88498,1.365979 l -13.50098,0.04531 -4.46545,-3.58154 -4.46546,-3.581541 -1.85848,2.836398 c -3.22123,4.916221 -7.43245,5.889468 -22.44404,5.187007 -8.67823,-0.406093 -15.98706,-0.148359 -20.39716,0.719277 -6.064,1.193019 -7.02852,1.139193 -8.19598,-0.457387 -1.07226,-1.466433 -1.91051,-1.586216 -4.42095,-0.631746 -3.78693,1.439785 -39.27183,1.584608 -40.14989,0.163863 -0.34465,-0.557656 1.19127,-4.592321 3.41317,-8.965922 l 4.03983,-7.952001 -0.49503,-21.600677 c -0.27226,-11.880371 -0.86078,-21.966435 -1.30782,-22.413474 -0.44706,-0.44704 -1.66463,-0.276881 -2.70576,0.378129 -1.64434,1.034517 -1.97106,4.096729 -2.48763,23.316181 -0.48333,17.98237 -0.97345,23.007667 -2.61747,26.837808 -5.15445,12.008488 -19.57579,16.909605 -30.39529,10.32987 -7.55134,-4.592249 -11.35233,-13.105824 -11.40815,-25.552407 -0.0321,-7.167691 -1.10939,-6.398825 -3.81766,2.724811 -4.89745,16.498565 -14.15491,25.058502 -27.036456,24.999344 -6.67822,-0.03067 -13.0114,-2.911227 -18.39962,-8.368796 -4.60682,-4.666116 -9.08868,-13.232994 -10.29546,-19.679278 -0.72443,-3.869747 -2.75937,-4.884518 -2.75937,-1.376025 0,4.015002 -5.20251,14.747652 -9.32554,19.238334 -5.45256,5.938774 -15.45377,10.978272 -23.35886,11.770265 -16.863813,1.689546 -17.464078,1.695316 -18.0480475,0.173516 z M 108.95712,69.004968 c 0.39204,-1.784938 0.36747,-5.289381 -0.0546,-7.787653 l -0.76741,-4.54231 -2.44518,7.068851 c -1.34484,3.887867 -2.23045,8.216034 -1.96804,9.618148 0.44733,2.390121 0.60341,2.435003 2.49979,0.718802 1.11246,-1.006771 2.34343,-3.2909 2.73547,-5.075838 z m 124.41314,5.053279 c 1.07976,-2.813837 0.77875,-12.698966 -0.38671,-12.698966 -0.58396,0 -1.36203,1.876784 -1.72901,4.170629 -0.36698,2.293846 -1.18651,5.113533 -1.82114,6.265973 -0.85316,1.549208 -0.76485,2.341934 0.33879,3.04143 2.1427,1.358049 2.83554,1.208034 3.59807,-0.779066 z m -74.8339,-2.695297 c 1.13703,-4.08635 1.10675,-10.327291 -0.059,-12.169997 -0.78596,-1.242345 -1.18092,-0.861188 -1.72866,1.668251 -0.39045,1.803172 -1.35353,5.394376 -2.14014,7.980454 -0.78662,2.586076 -1.15152,4.980635 -0.81093,5.321241 1.37138,1.371381 4.01227,-0.189017 4.73877,-2.799949 z m 144.46335,2.230175 c 0,-0.611693 -0.47094,-1.112168 -1.04652,-1.112168 -0.57559,0 -1.35585,0.500475 -1.73389,1.112168 -0.37805,0.611692 0.0928,1.112167 1.04652,1.112167 0.95364,0 1.73389,-0.500475 1.73389,-1.112167 z M 96.917864,69.97858 c 3.491506,-3.829998 5.047016,-10.188238 5.096956,-20.834 0.0509,-10.846591 -2.688226,-18.625412 -7.719196,-21.921826 -11.97158,-7.844083 -19.01935,28.837348 -7.96062,41.432548 3.91585,4.459909 7.33385,4.887294 10.58286,1.323278 z m -60.37744,-0.728955 c 4.46742,-4.936448 6.548,-20.982428 3.93882,-30.377198 -1.31146,-4.722151 -6.06009,-10.878172 -8.39118,-10.878172 -1.29268,0 -1.56939,3.51362 -1.56939,19.928054 0,10.96043 0.30379,20.7197 0.67508,21.687268 0.90592,2.360804 3.01278,2.218964 5.34667,-0.359952 z M 200.17477,67.526756 c 1.50142,-1.501426 2.72986,-3.776314 2.72986,-5.055308 0,-3.493549 -4.87683,-7.785171 -8.84679,-7.785171 h -3.38705 v 7.043727 c 0,3.874051 0.33365,7.377379 0.74145,7.785173 1.626,1.626 6.18196,0.592149 8.76253,-1.988421 z M 49.333364,62.416708 c 1.51004,-7.041058 1.55558,-15.167244 0.0901,-16.072974 -1.45117,-0.896869 -2.72749,2.653657 -4.36069,12.13069 -1.07265,6.22435 -1.04813,7.855469 0.12936,8.602267 2.49049,1.579548 2.90255,1.115869 4.14126,-4.659983 z M 206.74161,45.867637 c -1.5755,-1.541077 -7.17347,-2.709132 -7.17347,-1.496797 0,1.814111 1.37455,2.530264 4.85646,2.530264 2.09435,0 2.97294,-0.391881 2.31701,-1.033467 z M 119.76788,29.380166 c -3.66664,-7.06545 -4.48314,-5.081247 -1.49624,3.636037 2.72572,7.954995 2.9084,8.203928 3.23819,4.412341 0.20744,-2.385103 -0.50055,-5.656268 -1.74195,-8.048378 z m 86.47325,3.091702 c 0,-1.750936 -0.30772,-3.985455 -0.68384,-4.965596 -0.59787,-1.558068 -0.92967,-1.498635 -2.63951,0.47282 -2.14141,2.46907 -3.8466,10.545157 -2.63904,12.499017 1.21485,1.965665 5.96239,-4.409294 5.96239,-8.006241 z M 80.489864,18.144655 c -1.775,-0.591664 -7.73803,5.385018 -9.51405,9.535837 -0.84219,1.968352 -1.53128,4.960261 -1.53128,6.648684 0,2.583044 0.97208,1.575286 6.12993,-6.354909 3.37145,-5.183623 5.58338,-9.606948 4.9154,-9.829612 z M 196.23164,31.514061 c 0,-3.288268 -1.75936,-5.744141 -4.11502,-5.744141 -1.49619,0 -2.13934,8.945267 -0.74352,10.3411 1.53179,1.531772 4.85854,-1.615879 4.85854,-4.596959 z m -23.65115,-9.115871 2.45146,-2.815644 -2.77689,0.121559 c -3.72132,0.162905 -5.32799,1.978456 -4.3837,4.953648 0.42738,1.346533 1.11018,2.022507 1.51735,1.502163 0.40717,-0.520344 1.84347,-2.21312 3.19178,-3.761726 z m 99.13662,-1.642261 c 1.26617,-2.146003 3.56775,-4.478476 5.1146,-5.183273 3.51912,-1.603415 3.62999,-3.148747 0.22593,-3.148747 -2.65076,0 -6.17406,3.119548 -8.39614,7.434016 -2.98704,5.79972 -0.30205,6.588805 3.05561,0.898004 z m -139.75004,-2.259738 3.02158,-4.979085 -3.57767,1.80783 c -1.96769,0.994307 -4.728,2.860291 -6.13398,4.146632 -2.36561,2.164295 -2.40709,2.397704 -0.5561,3.128241 3.47905,1.373066 4.1549,0.990312 7.24617,-4.103618 z m 104.30259,-1.280096 c 0,-2.114886 -3.45953,-1.738933 -6.66574,0.724378 -2.84727,2.187533 -2.87207,2.145907 2.21708,3.720809 1.80287,0.557925 4.44866,-2.085792 4.44866,-4.445187 z"
     style="fill:#ff7f2a;stroke-width:1.1121676" />
  <path
     inkscape:connector-curvature="0"
     id="path534"
     d="m 169.46964,192.42411 c -6.36261,-3.69865 -18.73148,-16.12823 -23.34172,-23.4563 -3.0584,-4.86139 -3.14518,-4.9092 -4.1213,-2.27052 -0.54841,1.4825 -0.89165,5.6182 -0.76274,9.19046 0.26638,7.38157 -0.46853,8.45847 -7.66415,11.23062 -6.92833,2.66919 -8.03912,2.42291 -8.05037,-1.78487 -0.006,-1.988 -0.32526,-6.24204 -0.71099,-9.45343 -0.5646,-4.70045 -1.10482,-5.83888 -2.77077,-5.83888 -1.45259,0 -2.06941,-0.80918 -2.06941,-2.71478 0,-4.4798 -1.78408,-4.18539 -3.9666,0.65457 -2.4478,5.42827 -9.87737,13.3442 -15.02055,16.00384 -3.975316,2.05572 -32.922776,7.54251 -34.535286,6.54593 -1.54029,-0.95195 -1.1603,-3.02134 1.52861,-8.32486 2.35589,-4.64668 2.52284,-6.51441 2.85203,-31.90567 0.38165,-29.43887 0.63429,-28.34621 -5.97337,-25.83398 -4.54921,1.72959 -6.05405,-0.23896 -6.05405,-7.91963 0,-7.68591 0.81317,-8.46042 13.57051,-12.92549 10.78927,-3.776254 21.82094,-4.027694 28.211636,-0.64303 12.1916,6.45697 20.49924,23.3634 20.49924,41.71692 0,7.14167 1.16809,9.68389 2.66142,5.79229 0.37131,-0.96756 0.67508,-6.24741 0.67508,-11.733 0,-10.40876 -1.50261,-15.39271 -5.28278,-17.52217 -1.84042,-1.03675 -1.82875,-1.31603 0.21451,-5.13316 6.54694,-12.23078 23.99472,-18.718673 37.69456,-14.01656 5.45988,1.87396 11.76903,7.41138 13.69433,12.01926 4.05075,9.69483 0.4329,24.8305 -7.93547,33.19886 -3.05364,3.05363 -3.83086,4.57759 -3.27483,6.42122 1.26475,4.19366 2.56243,4.59776 3.87992,1.20824 0.69256,-1.78176 1.69441,-4.35166 2.22633,-5.71088 0.53192,-1.35923 2.11089,-2.77 3.50884,-3.13506 1.89672,-0.49529 4.00806,-3.67626 8.3203,-12.53542 5.75054,-11.81405 5.7681,-11.88289 3.61455,-14.17523 -1.19024,-1.26695 -2.16405,-2.91903 -2.16405,-3.67132 0,-2.17477 8.05772,-15.59405 9.75454,-16.245184 2.52743,-0.969865 13.89631,10.895414 18.83638,19.658834 2.51352,4.45886 5.95166,11.71276 7.6403,16.11979 3.269,8.53147 4.90192,9.44436 4.94616,2.76522 0.0953,-14.39442 9.45767,-30.7562 20.54791,-35.90992 4.9603,-2.305094 14.29405,-2.757804 19.10974,-0.92687 1.72047,0.65411 5.63174,3.11766 8.6917,5.47455 3.05998,2.35687 6.93989,4.62856 8.62204,5.04818 1.68217,0.41961 3.05847,1.3468 3.05847,2.06041 0,1.9008 -15.89129,17.37156 -17.82085,17.34926 -0.92213,-0.0107 -2.8204,-2.73998 -4.32965,-6.22514 -3.20799,-7.40793 -6.24988,-9.33213 -10.42651,-6.5955 -6.20262,4.0641 -9.25529,20.55653 -5.92519,32.0116 2.00957,6.9127 7.13092,12.31867 11.12943,11.74792 1.97104,-0.28135 2.40495,-1.21962 2.69669,-5.83136 0.20414,-3.22696 -0.40364,-7.46341 -1.47214,-10.2612 -1.00089,-2.62082 -1.50317,-5.27748 -1.11617,-5.90365 0.93703,-1.51615 17.90504,-1.46404 20.75975,0.0638 1.23556,0.66125 2.44974,0.999 2.69819,0.75057 0.24843,-0.24845 1.15478,-4.479 2.01409,-9.40124 3.61439,-20.7037 13.33456,-31.42858 28.48438,-31.42858 11.26755,0 19.46638,5.94471 25.2416,18.30191 l 3.11867,6.67301 0.55609,-16.03615 c 0.3649,-10.523108 0.99001,-16.179966 1.81831,-16.454487 0.69423,-0.230104 3.27164,3.232594 5.72759,7.694887 4.02253,7.3086 17.93951,22.89799 21.51347,24.09871 0.85562,0.28747 1.09891,-2.00464 0.79105,-7.45297 -0.35068,-6.20619 -0.9661,-8.42324 -2.91367,-10.49633 -1.35798,-1.44551 -2.46908,-2.93529 -2.46908,-3.3106 0,-1.52454 24.81765,-14.283433 25.82454,-13.27653 0.65334,0.653342 0.37363,3.026777 -0.74502,6.321698 -1.44626,4.259862 -1.92081,12.583142 -2.46475,43.229622 -0.42297,23.83263 -1.10865,38.50355 -1.84286,39.43099 -0.64309,0.81232 -3.50593,2.66105 -6.36185,4.10825 -6.21731,3.15055 -7.73705,2.2679 -7.73705,-4.49363 0,-6.75022 -2.90783,-15.37269 -6.97956,-20.69617 -5.97719,-7.81475 -6.36644,-7.30006 -6.36644,8.41775 0,13.93378 0.0175,14.02897 2.78041,15.07941 3.34281,1.27093 3.46461,2.75684 0.60978,7.43889 -4.14307,6.79479 -14.98439,6.95998 -18.43825,0.28094 -0.89895,-1.73838 -1.68395,-6.31353 -1.74445,-10.16697 -0.0605,-3.85345 -0.43585,-9.75889 -0.83412,-13.1232 l -0.72414,-6.11693 -2.59351,6.30125 c -7.15276,17.37849 -21.70098,24.15 -35.92283,16.72043 -6.50239,-3.3969 -13.44352,-11.43639 -15.55541,-18.01692 -1.95426,-6.08934 -2.96431,-6.25617 -3.80817,-0.62895 -0.5197,3.46562 -0.1772,7.68386 1.02682,12.64606 0.99364,4.0952 1.80531,7.70814 1.80371,8.02873 -0.001,0.32061 -8.38587,0.56498 -18.63171,0.54308 -15.62271,-0.0334 -19.21064,-0.35569 -22.23448,-1.99711 -3.59098,-1.94927 -3.60459,-1.94694 -3.3365,0.5691 0.26886,2.52341 0.24812,2.52672 -17.80355,2.83195 -9.94,0.16809 -18.07411,-0.0822 -18.07581,-0.55608 -0.002,-0.47393 1.10991,-2.96307 2.47024,-5.53141 2.27452,-4.29438 2.35911,-5.09681 1.05232,-9.98277 -0.78157,-2.92218 -2.0183,-5.70438 -2.74829,-6.18267 -0.73,-0.47829 -4.57561,-0.74056 -8.54579,-0.58282 -6.79613,0.27003 -7.31441,0.48204 -8.85697,3.62332 -1.1321,2.3054 -1.65092,7.11714 -1.67881,15.57034 l -0.0404,12.23383 -3.3365,0.29587 c -2.09357,0.18564 -5.40806,-0.90836 -8.89735,-2.93671 z m 8.50753,-8.72459 c -0.52625,-10.78703 0.72731,-19.00058 3.29124,-21.56451 2.97706,-2.97706 19.78045,-3.09485 22.4026,-0.15703 2.64051,2.9584 4.44959,11.20885 3.64062,16.60344 l -0.72067,4.80578 h 10.56811 c 5.81245,0 10.83123,-0.42578 11.15286,-0.94617 0.32162,-0.52041 -0.65864,-2.63154 -2.17838,-4.69144 -1.51975,-2.05989 -3.504,-6.2635 -4.40946,-9.34137 -7.03823,-23.92455 -10.28192,-33.46132 -14.00815,-41.18548 -4.63957,-9.6174 -14.55621,-22.79943 -17.15166,-22.79943 -1.74294,0 -7.19255,7.88536 -7.19255,10.40731 0,0.85479 0.75072,2.17721 1.66826,2.9387 0.91754,0.76149 1.66825,2.07766 1.66825,2.92481 0,0.84717 -2.80244,7.3255 -6.22765,14.39629 -4.42655,9.13794 -7.02106,13.21751 -8.97103,14.10598 -1.50886,0.68748 -3.47012,2.98929 -4.35834,5.11511 -1.51165,3.61785 -1.45983,4.03028 0.81013,6.44652 2.21729,2.3602 2.30899,2.96882 1.07029,7.10323 -1.56602,5.22692 -4.01228,6.69985 -6.18724,3.72543 -1.69541,-2.31863 -7.31,-17.95074 -7.28984,-20.29641 0.007,-0.83178 2.4155,-4.14103 5.35188,-7.35391 5.96672,-6.52856 8.00712,-11.8413 8.00712,-20.84883 0,-7.58377 -3.02138,-12.51704 -10.03853,-16.39083 -10.12377,-5.58877 -26.09513,-2.43939 -33.74722,6.65459 -3.55023,4.21921 -3.56052,4.42376 -0.42291,8.40712 2.22252,2.8216 2.54303,4.67622 2.86581,16.58285 0.33642,12.40945 0.19175,13.56131 -1.94629,15.49621 -3.16118,2.86082 -3.29694,11.29182 -0.19766,12.27549 1.74603,0.55417 2.24794,2.20543 2.89617,9.52838 0.43126,4.87192 1.1578,8.85802 1.61456,8.85802 0.45675,0 2.3753,-0.53853 4.26345,-1.19674 3.10061,-1.08089 3.49454,-1.75393 4.06853,-6.95105 0.34955,-3.16486 0.75616,-8.25668 0.90359,-11.31514 0.39894,-8.27594 3.25845,-7.64184 10.03062,2.22434 6.55778,9.5538 12.9546,16.26549 20.26596,21.26345 7.99289,5.46385 8.98212,4.90285 8.50753,-4.82471 z m 9.09151,-36.56655 c -1.12593,-2.93416 3.25786,-12.12506 5.78332,-12.12506 2.53136,0 5.95467,6.14927 6.03666,10.84363 0.0513,2.93833 -0.16637,3.05846 -5.54231,3.05846 -4.1003,0 -5.778,-0.47492 -6.27767,-1.77703 z m 8.5369,-2.18866 c 0,-0.34606 -0.55428,-1.66486 -1.23172,-2.93067 -0.98792,-1.84596 -1.42479,-1.9966 -2.20729,-0.76101 -1.62626,2.56785 -1.13344,4.32087 1.21467,4.32087 1.22339,0 2.22434,-0.28313 2.22434,-0.62919 z m -57.09127,0.99992 c -0.40779,-0.4078 -0.74145,-4.19986 -0.74145,-8.4268 0,-7.01147 0.28508,-7.97044 3.25096,-10.93632 7.86552,-7.86552 16.05783,0.75182 10.65231,11.20497 -2.89691,5.60201 -10.81195,10.50802 -13.16182,8.15815 z m 8.61312,-7.12907 c 3.44461,-4.09367 3.9549,-10.38561 0.93624,-11.54398 -2.98862,-1.14683 -6.9543,4.146 -6.9543,9.28165 0,6.73142 1.71506,7.37616 6.01806,2.26233 z m 204.23682,50.6604 c 3.84097,-1.98624 4.13836,-3.85579 1.05694,-6.64444 -2.04024,-1.8464 -2.22433,-3.42544 -2.22433,-19.07922 0,-15.84419 0.14687,-17.06622 2.05107,-17.06622 2.88085,0 10.96237,8.42272 14.24963,14.85126 1.51812,2.9688 3.2109,8.16696 3.76173,11.55146 0.55084,3.3845 1.20222,6.35432 1.44751,6.59961 0.24527,0.24528 1.70102,-0.12586 3.23496,-0.82478 3.78046,-1.72249 4.16356,-5.29911 4.20785,-39.28383 0.02,-15.35986 0.48652,-31.42258 1.03669,-35.69497 0.55017,-4.272384 0.78654,-7.981736 0.52526,-8.243004 -0.55292,-0.552929 -11.49327,5.125974 -13.5766,7.047314 -1.13843,1.04992 -1.07591,1.97786 0.32217,4.78036 2.20744,4.4249 2.80085,20.68707 0.82744,22.67546 -1.09548,1.1038 -3.24325,-0.40989 -10.55827,-7.44108 -5.05067,-4.85471 -10.938,-11.03133 -13.08295,-13.72583 l -3.89991,-4.89908 -0.57057,20.46942 c -0.5613,20.13662 -0.57392,23.51089 -0.18183,48.6022 0.1832,11.72316 0.37869,12.74484 2.92618,15.29232 3.19547,3.19546 4.06076,3.30128 8.44703,1.03305 z M 86.057084,184.38703 c 10.17364,-1.51452 15.429616,-3.81063 20.632306,-9.01331 11.00864,-11.00865 13.97415,-36.75063 6.18768,-53.71181 -7.45079,-16.22994 -19.769876,-21.07629 -38.497746,-15.14506 -9.92507,3.14333 -12.23385,4.95158 -12.23385,9.58164 0,4.74275 1.29266,5.54624 5.45773,3.3924 5.96137,-3.08274 6.76001,-1.7583 6.91365,11.46538 0.36132,31.09904 -0.0812,43.09426 -1.76599,47.86948 -2.48515,7.04366 -2.27898,8.18566 1.35042,7.48024 1.68215,-0.32692 7.06226,-1.19047 11.9558,-1.91896 z m 0.65864,-20.82722 c -1.59135,-2.97345 -1.64676,-44.0173 -0.0634,-46.97578 2.73199,-5.10477 11.10263,-0.35679 15.217726,8.63179 3.295,7.19724 3.96985,18.64489 1.58236,26.84201 -2.76752,9.50186 -13.763006,17.05832 -16.736656,11.50198 z m 9.76292,-5.26586 c 3.740996,-4.75591 4.883896,-10.09611 4.386656,-20.49637 -0.49602,-10.3749 -1.975566,-14.04287 -6.989616,-17.32822 -1.49381,-0.97878 -3.23851,-1.4567 -3.8771,-1.06202 -0.73874,0.45657 -1.16108,8.1778 -1.16108,21.22705 v 20.50946 h 2.6997 c 1.57256,0 3.63563,-1.18984 4.94144,-2.8499 z m 171.395726,22.86891 h 6.31532 l -0.49849,-18.07272 c -0.27418,-9.93999 -1.00073,-18.69831 -1.61454,-19.46293 -0.66358,-0.82659 -3.75412,-1.39021 -7.62307,-1.39021 h -6.50704 l 0.7009,10.67008 c 0.77344,11.77467 0.37927,12.64054 -5.76524,12.66426 -10.75097,0.0415 -18.61109,-15.80323 -16.21895,-32.69475 2.33901,-16.51646 11.98015,-24.56588 20.1028,-16.78388 1.75098,1.67754 3.78117,4.49271 4.51151,6.25593 0.73036,1.76322 1.9137,3.20585 2.62967,3.20585 0.71598,0 3.43383,-2.17241 6.03969,-4.82758 l 4.7379,-4.82758 -5.90309,-4.45689 c -8.47576,-6.39925 -12.33399,-8.13129 -18.11295,-8.13129 -9.93988,0 -19.45541,7.88729 -24.0452,19.93075 -3.01107,7.90097 -4.0581,24.14411 -2.09365,32.48017 2.70224,11.46688 8.7122,20.11295 17.23058,24.78834 2.58901,1.421 5.18055,1.69923 11.56753,1.24187 4.52706,-0.32418 11.07291,-0.58942 14.54632,-0.58942 z m 47.29876,-0.962 c 17.73127,-8.05515 24.29048,-41.19789 12.43696,-62.84223 -4.85502,-8.8652 -10.71195,-13.11845 -19.01262,-13.80681 -16.45588,-1.36464 -27.57919,14.07819 -27.63565,38.36743 -0.0313,13.43848 3.15343,23.79414 9.55339,31.06487 7.67363,8.71771 15.99375,11.15279 24.65792,7.21674 z m -15.0627,-18.96369 c -4.83597,-5.08367 -6.96123,-12.24255 -6.96123,-23.44884 0,-14.8011 5.47644,-26.69201 12.29315,-26.69201 7.81337,0 14.59462,10.57118 15.52647,24.20397 0.82927,12.13193 -1.11945,20.5105 -6.03617,25.95272 -5.33541,5.90567 -9.19314,5.90155 -14.82222,-0.0159 z m 12.63083,-2.28519 c 7.30582,-8.68247 6.67404,-32.73504 -1.06306,-40.47215 -7.9274,-7.9274 -14.72755,0.93806 -14.81036,19.3085 -0.0522,11.56816 1.40855,17.20502 5.52511,21.32159 4.02259,4.02259 6.86717,3.97917 10.34831,-0.15794 z m -147.04876,5.19895 c -1.42745,-1.42746 -2.87501,-0.3242 -1.81822,1.38574 0.40937,0.66236 1.2538,0.8894 1.87652,0.50455 0.75961,-0.46948 0.74044,-1.09155 -0.0583,-1.89029 z M 9.1246445,98.204794 c -0.322237,-0.83973 0.21493,-3.877057 1.1937065,-6.749605 1.434889,-4.211166 1.779591,-10.341872 1.779591,-31.65107 0,-16.734724 -0.415369,-26.684976 -1.132451,-27.128157 -0.622848,-0.384942 -2.8089415,0.336234 -4.8579855,1.602614 -6.01527097,3.717643 -6.36894597,3.313213 -6.01034397,-6.872875 l 0.32302,-9.175382 6.67300597,-3.336502 C 15.493684,10.693565 27.748244,9.7408164 36.402064,12.615154 c 10.52129,3.494609 18.69144,13.377575 22.34083,27.024391 0.69519,2.599691 1.68835,4.726711 2.207,4.726711 0.51866,0 1.27678,-2.225608 1.68469,-4.945793 1.80809,-12.057164 11.69791,-24.89626 21.13912,-27.443089 9.56829,-2.5811066 21.543316,1.426834 27.192946,9.101248 2.22859,3.027297 2.86752,3.354913 3.89258,1.995955 2.47524,-3.281463 25.27382,-17.9432159 26.30214,-16.9148864 0.62896,0.6289598 0.16288,3.3040878 -1.20106,6.8936934 -2.02972,5.341793 -2.20217,8.109937 -1.9301,30.982173 l 0.29875,25.116288 3.05846,2.282535 3.05845,2.282535 3.05846,-2.282331 3.05846,-2.28233 0.3254,-22.68055 c 0.37235,-25.953445 0.0709,-28.607197 -3.7685,-33.170009 -2.39819,-2.850082 -2.61189,-3.6900246 -1.49383,-5.8716182 2.10676,-4.1108005 5.75194,-6.3871541 10.27028,-6.4136247 5.44203,-0.031887 9.1506,3.5544151 10.21977,9.8828329 0.6456,3.821286 1.13903,4.551026 2.63028,3.890067 18.80821,-8.3361774 31.27851,-7.6684452 39.88673,2.135771 5.20347,5.926421 6.53117,11.344403 4.79029,19.54779 l -1.4131,6.658899 3.853,4.501382 c 4.43414,5.18028 6.43449,10.889294 6.43449,18.364001 0,3.702343 0.40915,5.110342 1.3902,4.784007 1.02864,-0.342164 1.46897,-5.697348 1.69305,-20.590168 l 0.30283,-20.127732 -4.12234,-4.003561 c -5.03072,-4.885781 -5.52083,-4.29082 12.32998,-14.968055 8.58495,-5.1349857 13.64315,-7.551314 14.34281,-6.851655 0.69966,0.6996601 0.15183,3.1610658 -1.55341,6.979475 -2.48394,5.562091 -2.6577,7.405724 -3.04561,32.312625 l -0.41139,26.413978 3.16099,-0.01675 c 1.73855,-0.0092 5.09955,-0.691616 7.4689,-1.51646 l 4.3079,-1.499713 0.27436,-14.331928 c 0.43284,-22.611392 5.33794,-37.766865 13.56783,-41.920956 4.24924,-2.144834 37.04993,-3.5277903 37.02786,-1.5611851 -0.008,0.7403135 -0.90898,4.3321741 -2.00148,7.9819151 -2.33045,7.78536 -2.96668,8.102486 -16.58658,8.267509 -8.40726,0.101859 -9.29376,0.330653 -10.92446,2.819394 -0.97608,1.489694 -1.6132,4.117189 -1.41584,5.83888 l 0.35886,3.13035 h 10.74463 c 5.90956,0 11.11044,0.362961 11.55752,0.806581 1.12693,1.118149 -1.794,14.307365 -3.29077,14.859356 -0.66919,0.246784 -5.47074,0.826745 -10.67013,1.288798 l -9.45343,0.840096 0.10123,4.796928 c 0.0711,3.368942 0.82932,5.520929 2.54713,7.229015 2.25425,2.241484 3.39664,2.411265 14.57705,2.166414 6.67211,-0.14612 12.39521,0.161674 12.71801,0.683984 0.32282,0.522313 -0.23988,5.551157 -1.25042,11.175208 -1.39002,7.735957 -2.35674,10.503517 -3.9706,11.367227 -2.72904,1.460545 -21.49682,2.602722 -26.70674,1.625335 -2.18525,-0.409961 -5.55312,-2.221257 -7.48415,-4.025109 l -3.51098,-3.279736 -3.65106,3.87126 c -2.00808,2.129202 -4.59293,3.916779 -5.74409,3.972408 -1.15115,0.05559 -10.35085,0.224711 -20.44378,0.375763 -10.09291,0.151041 -19.47683,0.664378 -20.85313,1.140744 -1.96568,0.680356 -2.50238,0.452693 -2.50238,-1.061501 0,-1.571152 -0.5656,-1.767628 -3.05846,-1.062438 -4.36575,1.23498 -40.46911,1.910287 -41.60126,0.778138 -0.51954,-0.519537 0.83458,-4.421676 3.00915,-8.671438 l 3.95371,-7.726834 -0.33647,-21.873027 c -0.18506,-12.030166 -0.73583,-22.272211 -1.22394,-22.760098 -0.4881,-0.48789 -1.7393,-0.351152 -2.78042,0.303857 -1.64518,1.035044 -1.96894,4.086952 -2.47358,23.316181 -0.46936,17.885185 -0.95908,22.974886 -2.55546,26.558747 -4.01042,9.003395 -10.22554,13.164337 -19.66335,13.164337 -13.31302,0 -20.838,-8.583471 -21.96713,-25.057134 -0.3312,-4.832301 -0.92016,-8.383898 -1.30876,-7.892438 -0.38861,0.49146 -1.8762,4.467056 -3.30576,8.834655 -1.42956,4.367601 -4.41646,10.336944 -6.63758,13.265208 -14.838526,19.562828 -41.378786,10.46534 -48.035826,-16.465774 -1.17888,-4.769138 -3.26966,-6.362823 -3.26966,-2.492274 0,4.005758 -5.19625,14.738895 -9.28089,19.170213 -7.47154,8.105671 -17.01192,11.788161 -33.341064,12.869319 -5.761713,0.38149 -7.7297175,0.13488 -8.1745525,-1.024343 z M 35.905944,92.142468 c 8.53315,-3.205342 15.17673,-9.7988 18.30919,-18.171051 1.91107,-5.107796 2.36324,-8.745739 2.33708,-18.80325 -0.0287,-11.026944 -0.39075,-13.35382 -3.12851,-20.105413 -3.95853,-9.762175 -10.38216,-16.536416 -18.11652,-19.105354 -7.95392,-2.641871 -20.030589,-1.811779 -26.6520715,1.831934 -4.604992,2.534068 -4.918734,3.011098 -5.237407,7.963225 -0.186438,2.897227 -0.07829,5.267685 0.240309,5.267685 0.318609,0 2.323893,-0.831943 4.456187,-1.848765 3.2384285,-1.544297 4.1685695,-1.606699 5.6479615,-0.378914 1.558326,1.293296 1.724504,5.088894 1.383472,31.599246 -0.213177,16.571169 -0.814707,31.333666 -1.336721,32.805555 l -0.949116,2.676144 8.238366,-0.631673 c 4.53111,-0.347421 11.19461,-1.742142 14.80778,-3.099369 z m -8.19852,-17.674574 c -0.69168,-1.292408 -1.1513,-11.740356 -1.1513,-26.170842 0,-20.934738 0.22724,-24.106823 1.76934,-24.698583 3.41041,-1.308699 8.73295,2.488273 12.15886,8.673852 3.10954,5.614368 3.31039,6.719279 3.31039,18.210855 0,10.51344 -0.34753,12.883761 -2.47135,16.855427 -4.35214,8.138801 -11.16622,11.706643 -13.61594,7.129291 z m 8.20695,-4.416615 c 4.46742,-4.936448 6.54799,-20.982428 3.93881,-30.377197 -1.31146,-4.722152 -6.06008,-10.878173 -8.39118,-10.878173 -1.2955,0 -1.56938,3.655203 -1.56938,20.945823 0,11.520202 0.33365,21.279472 0.74145,21.687266 1.31519,1.315194 3.31559,0.793255 5.2803,-1.377719 z M 153.8993,91.060732 c 7.20659,-4.436777 7.67129,-6.496241 8.52859,-37.797137 0.88124,-32.174891 0.32921,-44.1221926 -2.17113,-46.9890774 -2.24162,-2.570237 -7.19952,-2.4782936 -9.60351,0.1780951 -1.83287,2.025293 -1.7809,2.3384305 1.11404,6.7129733 l 3.03658,4.588588 -0.23734,25.261842 c -0.25466,27.105505 -0.48323,28.27295 -6.27856,32.070204 -3.91684,2.566401 -9.17474,0.896963 -12.44126,-3.950221 -2.41471,-3.583197 -2.52224,-4.698627 -2.5163,-26.100089 0.004,-12.411794 0.53422,-24.258553 1.19323,-26.631839 0.65288,-2.351206 0.93888,-4.523068 0.63559,-4.82636 -0.59381,-0.593812 -13.5261,7.879382 -14.54692,9.531086 -0.33878,0.54818 0.47437,3.428343 1.80704,6.400362 2.12528,4.739654 2.51089,8.136995 3.1381,27.647023 0.62848,19.550122 0.99746,22.791006 3.04746,26.766423 2.79231,5.414987 4.47731,6.922295 9.99154,8.937855 4.88103,1.784104 10.56807,1.115269 15.30285,-1.799728 z M 98.496574,92.12125 C 110.80264,87.481678 119.54213,66.049855 116.99504,46.757519 114.08554,24.720127 101.45991,11.82949 86.218444,15.33492 c -7.23815,1.664726 -11.25705,4.73744 -15.19206,11.615337 -9.34486,16.333647 -8.3548,42.085072 2.1505,55.934345 6.65096,8.768058 16.77069,12.459746 25.31969,9.236648 z M 84.056154,72.875783 c -4.82637,-4.826364 -6.90206,-12.090613 -6.87518,-24.060856 0.0259,-11.514837 2.6044,-19.867375 7.37167,-23.878772 4.69852,-3.953549 7.30737,-3.538874 12.62028,2.005971 5.710346,5.959661 7.810116,12.651069 7.736206,24.653219 -0.0658,10.685933 -1.82737,16.567461 -6.412216,21.409226 -4.7135,4.977625 -9.37593,4.936043 -14.44076,-0.128788 z m 12.95639,-2.93496 c 5.057526,-6.01054 6.232876,-25.343674 2.1077,-34.669327 -4.66109,-10.537176 -11.66638,-11.052191 -16.14525,-1.186966 -1.86939,4.117562 -2.40488,7.476174 -2.43725,15.28648 -0.0465,11.195687 1.47434,16.782858 5.72502,21.033555 3.80717,3.807164 7.28219,3.657252 10.74978,-0.463742 z M 205.10569,90.759837 c 9.65879,-5.74502 12.4377,-9.779064 13.45747,-19.535734 0.99427,-9.512588 -1.08322,-16.80306 -6.56181,-23.027051 -4.29162,-4.875537 -4.46439,-5.342244 -3.23564,-8.740271 3.64489,-10.07978 0.0851,-20.553554 -8.36551,-24.612833 -8.67186,-4.165603 -26.20038,-1.401103 -32.04165,5.053431 -2.34559,2.591849 -1.91034,9.663493 0.55501,9.01745 4.96812,-1.301889 6.03346,-0.714892 6.84885,3.773667 0.44447,2.446768 0.83697,13.592291 0.87222,24.767827 0.06,18.995311 -0.11083,20.749651 -2.62076,26.926628 l -2.68485,6.607477 9.07982,0.373143 c 19.15871,0.787337 22.49526,0.705771 24.69685,-0.603734 z M 188.04284,73.060178 c -1.39122,-1.39122 -1.90022,-17.028512 -0.65952,-20.261705 1.00176,-2.61057 7.25288,-2.190334 11.67234,0.784682 7.43099,5.002275 8.26062,12.685773 1.94366,18.00114 -3.6384,3.061521 -10.58011,3.852254 -12.95648,1.475883 z m 11.50587,-4.731768 c 1.50143,-1.501426 2.72987,-3.776314 2.72987,-5.055307 0,-3.49355 -4.87684,-7.785172 -8.84679,-7.785172 h -3.38705 v 7.043727 c 0,3.874051 0.33365,7.377379 0.74145,7.785173 1.626,1.626 6.18195,0.592149 8.76252,-1.988421 z M 186.74737,38.878533 c -1.26731,-2.367986 -1.50033,-9.222792 -0.44713,-13.153249 0.80363,-2.999092 4.85248,-4.278096 8.07807,-2.551812 3.27146,1.750828 5.8675,7.252388 5.01847,10.635184 -1.50377,5.991525 -10.27477,9.506935 -12.64941,5.069877 z m 8.85821,-6.562817 c 0,-3.288268 -1.75935,-5.74414 -4.11502,-5.74414 -1.49619,0 -2.13933,8.945267 -0.74351,10.3411 1.53178,1.531771 4.85853,-1.61588 4.85853,-4.59696 z m 34.47719,58.31603 c 3.36431,-0.01754 10.5924,0.13633 16.06246,0.341885 9.28232,0.348808 10.08448,0.202106 12.02949,-2.199861 1.28766,-1.590189 1.82678,-3.447909 1.4109,-4.861743 -0.37019,-1.258488 -0.97327,-4.039822 -1.34019,-6.180745 -0.92704,-5.40913 -2.28637,-6.909913 -4.96178,-5.478076 -1.17997,0.631505 -4.50564,0.996343 -7.39035,0.810755 l -5.24494,-0.337433 -0.33387,-23.911601 c -0.20242,-14.497419 0.1564,-26.471918 0.91136,-30.414689 0.68488,-3.576696 0.99856,-6.749775 0.69705,-7.051285 -0.5858,-0.585795 -15.97157,8.248733 -16.855,9.678163 -0.28934,0.468165 0.7661,3.163176 2.34543,5.988914 2.76637,4.949544 2.86213,5.738113 2.61502,21.531516 -0.34733,22.199054 -0.58023,23.41617 -4.97722,26.010459 -3.69119,2.177856 -8.31436,10.689515 -8.31436,15.307445 0,1.968572 0.47775,2.171235 3.61454,1.533268 1.98799,-0.404319 6.36716,-0.749464 9.73146,-0.766972 z m 68.64894,-1.344058 c 2.58812,-0.710904 3.8872,-4.728755 4.09575,-12.667638 l 0.1023,-3.893522 -8.95125,0.386622 c -14.26505,0.616134 -19.39425,-2.757635 -21.1232,-13.893926 -1.0529,-6.781849 0.63351,-8.025579 12.0525,-8.888688 10.46017,-0.79064 12.46445,-2.055202 11.69681,-7.379875 -0.33049,-2.292477 -0.82562,-2.396306 -9.91133,-2.078404 -12.76976,0.446804 -14.86005,-1.423489 -12.15037,-10.871568 0.59709,-2.08191 2.18575,-4.95634 3.53037,-6.387621 2.23921,-2.383521 3.35729,-2.60233 13.29763,-2.60233 11.76596,0 10.69358,0.561436 12.74595,-6.673006 0.60869,-2.145597 0.0999,-2.224335 -14.37263,-2.224335 h -15.00365 l -3.34552,3.34552 c -6.17705,6.177042 -8.27233,14.005481 -8.81117,32.920272 -0.4168,14.630979 -0.16695,18.009222 1.93293,26.135936 2.50447,9.692467 5.8949,14.825004 10.48389,15.87081 2.86079,0.651955 20.2969,-0.154975 23.73101,-1.098247 z M 119.21391,30.201171 c -3.58837,-7.234147 -4.53683,-5.046905 -1.56833,3.616686 2.71487,7.923336 2.90962,8.190458 3.23659,4.439241 0.19873,-2.280204 -0.51647,-5.73393 -1.66826,-8.055927 z"
     style="fill:#000000;stroke-width:1.1121676" />
</svg>
