<?xml version="1.0" encoding="UTF-8" standalone="no"?>
<svg
   enable-background="new 0 0 559.249 81.18"
   viewBox="0 0 499.99998 200"
   version="1.1"
   id="svg49"
   sodipodi:docname="dragon64.svg"
   width="500"
   height="200"
   inkscape:version="1.2.2 (b0a8486541, 2022-12-01)"
   xmlns:inkscape="http://www.inkscape.org/namespaces/inkscape"
   xmlns:sodipodi="http://sodipodi.sourceforge.net/DTD/sodipodi-0.dtd"
   xmlns="http://www.w3.org/2000/svg"
   xmlns:svg="http://www.w3.org/2000/svg">
  <defs
     id="defs53" />
  <sodipodi:namedview
     id="namedview51"
     pagecolor="#505050"
     bordercolor="#ffffff"
     borderopacity="1"
     inkscape:showpageshadow="0"
     inkscape:pageopacity="0"
     inkscape:pagecheckerboard="1"
     inkscape:deskcolor="#505050"
     showgrid="false"
     showguides="true"
     inkscape:zoom="2.4014347"
     inkscape:cx="277.75063"
     inkscape:cy="140.54099"
     inkscape:window-width="1670"
     inkscape:window-height="910"
     inkscape:window-x="0"
     inkscape:window-y="0"
     inkscape:window-maximized="1"
     inkscape:current-layer="svg49">
    <sodipodi:guide
       position="268.17301,120.04779"
       orientation="0,-1"
       id="guide2256"
       inkscape:locked="false" />
    <sodipodi:guide
       position="250.26705,75.074678"
       orientation="0,-1"
       id="guide2258"
       inkscape:locked="false" />
  </sodipodi:namedview>
  <linearGradient
     id="a"
     gradientUnits="userSpaceOnUse"
     x1="102.2983"
     x2="355.62921"
     y1="38.639503"
     y2="38.639503"
     gradientTransform="matrix(1.0993119,0,0,1.0993119,-2.5457669,61.730504)">
    <stop
       offset="0"
       stop-color="#f50019"
       id="stop2" />
    <stop
       offset=".2761"
       stop-color="#f66d19"
       id="stop4" />
    <stop
       offset=".4785"
       stop-color="#fbfa35"
       id="stop6" />
    <stop
       offset=".681"
       stop-color="#74b719"
       id="stop8" />
    <stop
       offset=".7914"
       stop-color="#17710a"
       id="stop10" />
    <stop
       offset=".8834"
       stop-color="#226887"
       id="stop12" />
    <stop
       offset="1"
       stop-color="#3262d9"
       id="stop14" />
  </linearGradient>
  <path
     d="m 53.978654,105.92285 h -4.811688 l 11.45483,-19.839286 c 2.209617,-3.847592 6.335335,-6.237496 10.76886,-6.237496 H 95.06214 l -2.406394,4.167492 h -21.26509 c -2.949454,0 -5.693337,1.592903 -7.15762,4.148803 z M 66.869186,89.679413 c 0.92672,-1.619286 2.659236,-2.626256 4.52147,-2.626256 h 19.509489 l 1.041048,-1.801772 H 71.391755 c -2.506431,0 -4.838072,1.354352 -6.083592,3.52989 l -9.898205,17.141575 h 2.080998 z m 1.823759,7.65341 h 16.273114 l 2.814239,-4.87325 0.856364,-1.484071 1.55003,-2.68342 H 71.391755 c -1.419211,0 -2.739485,0.767319 -3.446343,2.001847 L 58.92226,105.92175 h 4.811688 z m -36.976457,0 c -0.0033,0.03408 -0.0055,0.04947 -0.0033,0.04947 -0.03848,0.12862 -0.213266,0.497988 -0.826682,1.526944 -1.296089,2.175533 -2.622959,4.895233 -2.622959,8.562543 0,6.84651 5.570214,12.41673 12.416729,12.41673 h 47.27591 l -4.907329,8.49988 h 4.811688 l 3.854188,-6.67722 c 0.361674,-0.60902 0.552954,-1.30818 0.552954,-2.02164 0,-2.18873 -1.779786,-3.96851 -3.968516,-3.96851 H 40.680278 c -4.548953,0 -8.249237,-3.70029 -8.249237,-8.24924 0,-2.50094 0.813491,-4.37966 2.035926,-6.42878 1.136688,-1.908404 1.422509,-2.566892 1.422509,-3.908052 0,-2.18873 -1.779786,-3.968516 -3.968516,-3.968516 H 17.9575 l 2.405294,4.167491 H 31.716488 Z M 88.298074,112.68032 H 40.679178 c -2.871402,0 -5.20744,-2.33714 -5.20744,-5.20854 0,-1.58631 0.436427,-2.90768 1.607194,-4.87215 1.258712,-2.11178 1.85234,-3.339713 1.85234,-5.465782 0,-3.864082 -3.144032,-7.009213 -7.009213,-7.009213 H 12.71708 l -0.678276,-1.174066 -4.5544488,2.059012 7.0476888,2.259086 -0.775015,-1.34226 h 18.162832 c 2.871403,0 5.20744,2.337137 5.20744,5.207441 0,1.617087 -0.359475,2.464657 -1.5973,4.542352 -1.338962,2.247 -1.861135,3.87178 -1.861135,5.79558 0,3.86518 3.145132,7.01031 7.009213,7.01031 h 47.618895 c 2.871403,0 5.207441,2.33714 5.207441,5.20744 0,0.93552 -0.251742,1.85344 -0.731042,2.66363 l -3.48372,6.03413 h 2.079898 l 2.959348,-5.12389 c 0.639799,-1.07843 0.978388,-2.31406 0.978388,-3.57387 0.0011,-3.86518 -3.144033,-7.00921 -7.009213,-7.00921 z m -43.162285,8.56034 h -4.811688 l -4.127917,7.14883 h 4.811689 z m -0.615615,7.14773 4.126817,-7.14883 h -2.079898 l -4.126817,7.14883 z m 10.36981,-7.14773 h -4.811689 l -4.126817,7.14883 h 4.811689 z M 88.298074,107.2739 H 40.88365 c 0.02528,-0.30451 0.157202,-0.76182 0.838775,-1.9073 1.481873,-2.48445 2.614164,-4.66988 2.614164,-8.232752 0,-6.846515 -5.569114,-12.416729 -12.416728,-12.416729 H 31.593365 L 28.847284,87.4632 26.101203,84.717119 h -13.02245 l 2.406394,4.167492 h 16.434714 c 4.548953,0 8.248137,3.700284 8.248137,8.248137 0,2.517425 -0.765121,3.982812 -2.027131,6.098982 -1.056439,1.77429 -1.431304,2.8824 -1.431304,4.23785 0,2.18873 1.780885,3.96852 3.968516,3.96852 h 47.618895 c 4.548953,0 8.249237,3.70028 8.249237,8.24813 0,1.47748 -0.395752,2.92747 -1.145483,4.19388 l -2.600972,4.50388 h 4.811688 l 1.387332,-2.40419 c 1.120194,-1.90401 1.712724,-4.07955 1.712724,-6.29467 0.002,-6.84101 -5.566912,-12.41123 -12.413426,-12.41123 z M 32.964207,84.189449 28.847284,80.073626 24.73146,84.189449 h 1.911703 l 2.20522,-2.205219 2.20522,2.205219 z"
     fill="#f50019"
     id="path19"
     style="stroke-width:1.09931" />
  <path
     d="m 109.87867,81.016835 h 22.44575 c 14.79784,0 20.01957,11.404262 20.01957,23.070165 0,14.19102 -7.21258,23.19988 -22.69419,23.19988 h -19.77113 z m 13.67874,34.410665 h 5.34705 c 8.51747,0 9.76189,-7.1928 9.76189,-11.53508 0,-2.91648 -0.87065,-11.017307 -10.75676,-11.017307 h -4.35218 z m 33.44876,-34.410665 h 26.0526 c 7.77103,0 14.48673,4.472001 14.48673,13.219226 0,4.795199 -2.11398,9.849839 -6.65194,11.599939 3.73107,1.49177 6.02973,5.76699 6.52772,11.53508 0.18578,2.26788 0.24734,7.77654 1.49177,9.9147 h -13.67874 c -0.68487,-2.33274 -0.93332,-4.72924 -1.1191,-7.12794 -0.37377,-4.40604 -0.74753,-9.00666 -6.15615,-9.00666 h -7.27525 v 16.1368 H 157.00617 V 81.017935 Z m 13.67874,20.218545 h 7.14993 c 2.5493,0 6.03082,-0.45402 6.03082,-4.60062 0,-2.915375 -1.55442,-4.600621 -6.77725,-4.600621 h -6.4035 z m 47.19017,-20.218545 h 13.36763 l 16.16538,46.268945 h -14.17563 l -1.86443,-6.61017 h -14.11516 l -1.98976,6.61017 h -13.7403 z m 10.75566,29.744085 -3.9795,-14.255879 h -0.12423 l -4.28951,14.255879 z m 53.09567,11.79452 c -3.04729,4.08174 -7.77103,5.83075 -12.6201,5.83075 -13.12029,0 -21.20243,-10.62705 -21.20243,-23.78142 0,-17.625267 11.87587,-24.689445 21.8862,-24.689445 11.31522,0 18.46625,6.415584 20.4549,17.30207 h -13.11919 c -0.49689,-3.369391 -3.23198,-5.76699 -6.46505,-5.76699 -9.38813,0 -9.07812,10.303855 -9.07812,13.478665 0,4.34008 1.67865,11.92314 10.00924,11.92314 3.17041,0 6.40349,-1.68525 7.08726,-5.1195 h -6.02973 v -9.91579 h 18.15514 v 25.46776 h -8.64279 z m 38.29893,-42.640115 c 13.49296,0 22.50731,10.108173 22.50731,24.236535 0,14.12835 -9.01545,24.23653 -22.50731,24.23653 -13.49185,0 -22.50841,-10.10818 -22.50841,-24.23653 0,-14.127263 9.01656,-24.236535 22.50841,-24.236535 z m 0,36.936885 c 3.48152,0 8.82858,-2.3976 8.82858,-12.70255 0,-10.303854 -5.34706,-12.701454 -8.82858,-12.701454 -3.48152,0 -8.82857,2.3976 -8.82857,12.701454 -0.001,10.30495 5.34705,12.70255 8.82857,12.70255 z M 348.3744,81.016835 h 13.98984 l 12.93231,24.754305 h 0.12422 V 81.016835 h 12.9323 V 127.28578 H 375.047 L 361.43093,102.0137 h -0.12423 v 25.27208 h -12.9323 z"
     fill="url(#a)"
     id="path21"
     style="fill:url(#a);stroke-width:1.09931" />
  <path
     fill="#000000"
     d="m 409.88733,99.62157 q -0.06,1.08 0.75,0.36 c 10.29,-9.2 23.91,-0.91 23.81,12.07 -0.08,10.38 -8.5,16.01 -18.74,15.47 -9.38,-0.49 -15.79,-4.82 -17.91,-14.54 -2.7,-12.4 -1.25,-28.8 13.78,-32.13 9.23,-2.05 18.41,0.2 21.74,9.67 a 0.55,0.55 0 0 1 -0.45,0.73 l -11.31,1.33 a 0.76,0.75 76.8 0 1 -0.81,-0.51 q -1.5,-4.42 -5.08,-4 c -4.88,0.58 -5.59,8.02 -5.78,11.55 z m 6.9015,19.9425 a 7.83,6.23 87.5 0 0 5.8826,-8.0942 7.83,6.23 87.5 0 0 -6.5656,-7.5508 7.83,6.23 87.5 0 0 -5.8826,8.0942 7.83,6.23 87.5 0 0 6.5656,7.5508 z"
     id="path1302"
     style="fill:#ffffff" />
  <path
     fill="#000000"
     d="m 474.35733,108.18157 4.5,0.2 a 0.6,0.57 88.2 0 1 0.55,0.54 c 0.2,2.47 0.06,4.89 0.22,7.36 q 0.16,2.26 -3.54,1.43 -2.17,-0.5 -2.2,1.6 l -0.09,6.58 a 0.74,0.81 0.7 0 1 -0.75,0.8 l -9.81,-0.11 a 0.55,0.55 0 0 1 -0.54,-0.54 l -0.16,-6.94 a 1.16,1.12 89.5 0 0 -1.11,-1.13 l -21.45,-0.16 a 0.54,0.51 0.6 0 1 -0.53,-0.51 l -0.09,-8.93 a 2.27,2.75 60.7 0 1 0.64,-1.66 l 22.16,-26 a 1.37,1.37 0 0 1 1.04,-0.48 h 9.8 a 0.8,0.81 0 0 1 0.8,0.81 l 0.06,26.62 a 0.53,0.52 1.8 0 0 0.5,0.52 z m -12.21,-13.77 -11.1,13.01 q -0.83,0.97 0.49,0.95 l 9.89,-0.12 a 1.15,1.14 0 0 0 1.14,-1.13 l 0.15,-12.48 q 0.01,-0.91 -0.57,-0.23 z"
     id="path1304"
     style="fill:#ffffff" />
</svg>
