<?xml version="1.0" encoding="UTF-8" standalone="no"?>
<svg
   xmlns:dc="http://purl.org/dc/elements/1.1/"
   xmlns:cc="http://creativecommons.org/ns#"
   xmlns:rdf="http://www.w3.org/1999/02/22-rdf-syntax-ns#"
   xmlns:svg="http://www.w3.org/2000/svg"
   xmlns="http://www.w3.org/2000/svg"
   xmlns:sodipodi="http://sodipodi.sourceforge.net/DTD/sodipodi-0.dtd"
   xmlns:inkscape="http://www.inkscape.org/namespaces/inkscape"
   width="468.6178"
   height="127.2392"
   viewBox="0 0 102.36806 27.795394"
   version="1.1"
   id="svg14"
   sodipodi:docname="Easports.svg"
   inkscape:version="0.92.5 (2060ec1f9f, 2020-04-08)">
  <metadata
     id="metadata20">
    <rdf:RDF>
      <cc:Work
         rdf:about="">
        <dc:format>image/svg+xml</dc:format>
        <dc:type
           rdf:resource="http://purl.org/dc/dcmitype/StillImage" />
        <dc:title></dc:title>
      </cc:Work>
    </rdf:RDF>
  </metadata>
  <defs
     id="defs18" />
  <sodipodi:namedview
     pagecolor="#ffffff"
     bordercolor="#666666"
     borderopacity="1"
     objecttolerance="10"
     gridtolerance="10"
     guidetolerance="10"
     inkscape:pageopacity="0"
     inkscape:pageshadow="2"
     inkscape:window-width="1366"
     inkscape:window-height="743"
     id="namedview16"
     showgrid="false"
     inkscape:pagecheckerboard="true"
     inkscape:zoom="2.8617076"
     inkscape:cx="185.38712"
     inkscape:cy="68.939765"
     inkscape:window-x="0"
     inkscape:window-y="0"
     inkscape:window-maximized="1"
     inkscape:current-layer="svg14" />
  <path
     d="m 3.3490161,27.788955 c 0.318527,0 0.628315,-0.07475 0.929362,-0.224231 0.301048,-0.149493 0.548684,-0.350236 0.742908,-0.60223 v 0 l -0.553539,-0.602229 c -0.143726,0.183658 -0.308817,0.324605 -0.495272,0.422845 -0.186455,0.09823 -0.386506,0.147351 -0.600152,0.147351 -0.19034,0 -0.366113,-0.03737 -0.527319,-0.112117 C 2.6837977,26.743598 2.5439566,26.642158 2.4254795,26.514026 2.3070026,26.385892 2.2137753,26.2332 2.1457966,26.055949 c -0.067978,-0.177253 -0.1019671,-0.368385 -0.1019671,-0.5734 0,-0.209284 0.033017,-0.402552 0.099054,-0.579805 0.066036,-0.177251 0.1573217,-0.331013 0.2738562,-0.461281 0.1165341,-0.130268 0.2554045,-0.232775 0.4166114,-0.30752 0.161206,-0.07475 0.333094,-0.112114 0.515665,-0.112114 0.217531,0 0.423409,0.05232 0.617633,0.156961 0.194224,0.104647 0.363199,0.255201 0.506925,0.451671 v 0 l 0.571019,-0.62145 c -0.19034,-0.256264 -0.438947,-0.46021 -0.745821,-0.611834 -0.306874,-0.151629 -0.62346,-0.227438 -0.949756,-0.227438 -0.30299,0 -0.587529,0.05981 -0.8536157,0.179389 -0.2660872,0.119587 -0.496243,0.28189 -0.690467,0.486904 -0.194224,0.205015 -0.3476613,0.449537 -0.4603113,0.733565 -0.1126497,0.28403 -0.1689746,0.588345 -0.1689746,0.912952 0,0.324602 0.055351,0.627858 0.1660609,0.909752 0.1107079,0.281892 0.263174,0.525345 0.4573982,0.73036 0.1942243,0.205013 0.4243798,0.367319 0.6904671,0.486908 0.2660874,0.119591 0.5525684,0.179386 0.8594424,0.179386 z m 11.0416449,0.0064 c 0.302989,0 0.586557,-0.05979 0.850702,-0.179386 0.264145,-0.119592 0.492356,-0.282959 0.68464,-0.490112 0.192281,-0.207148 0.344748,-0.452739 0.457399,-0.736766 0.112652,-0.28403 0.168973,-0.586217 0.168973,-0.906548 0,-0.320335 -0.05632,-0.622517 -0.168973,-0.906544 -0.112651,-0.284033 -0.265118,-0.529622 -0.457399,-0.73677 -0.192284,-0.20715 -0.420495,-0.37052 -0.68464,-0.490112 -0.264145,-0.119592 -0.547713,-0.179386 -0.850702,-0.179386 -0.299106,0 -0.580731,0.05979 -0.844876,0.179386 -0.264146,0.119592 -0.492357,0.282962 -0.684641,0.490112 -0.192281,0.207148 -0.344747,0.452737 -0.457397,0.736769 -0.112649,0.284027 -0.168975,0.586208 -0.168975,0.906544 0,0.320331 0.05633,0.622517 0.168975,0.906546 0.11265,0.284028 0.265116,0.529618 0.457397,0.736767 0.192284,0.207152 0.420495,0.37052 0.684641,0.490112 0.264145,0.119593 0.54577,0.179386 0.844876,0.179386 z m 0,-0.852089 c -0.182569,0 -0.352517,-0.03737 -0.509837,-0.112117 -0.157323,-0.07475 -0.293279,-0.177249 -0.407873,-0.307519 -0.114591,-0.130271 -0.204906,-0.285099 -0.270942,-0.464486 -0.06604,-0.179392 -0.09906,-0.37159 -0.09906,-0.576602 0,-0.209283 0.03302,-0.402553 0.09906,-0.579803 0.06603,-0.177254 0.156351,-0.331014 0.270942,-0.461282 0.114594,-0.130271 0.25055,-0.232779 0.407873,-0.307523 0.15732,-0.07475 0.327268,-0.112117 0.509837,-0.112117 0.18257,0 0.353488,0.03737 0.512752,0.112117 0.159263,0.07475 0.296192,0.177252 0.410786,0.307523 0.114589,0.130268 0.204904,0.284028 0.270943,0.461282 0.06603,0.17725 0.09906,0.37052 0.09906,0.579803 0,0.205012 -0.03302,0.39721 -0.09906,0.576602 -0.06604,0.179387 -0.156354,0.334215 -0.270943,0.464486 -0.114594,0.13027 -0.251523,0.232775 -0.410786,0.307518 -0.159264,0.07475 -0.330182,0.112116 -0.512752,0.112116 z m 12.807144,0.781659 v -0.820096 h -2.231633 v -3.664621 h -0.844879 v 4.484674 z m 10.651253,0 V 26.904829 H 35.61742 v -3.664621 h -0.844871 v 4.484674 z m 10.732828,0 v -0.807279 h -2.31321 V 25.854135 H 47.7778 v -0.781614 h -1.509124 v -1.025068 h 2.289905 v -0.807242 h -3.134777 v 4.484678 z m 9.369376,0.06406 c 0.318531,0 0.628317,-0.07475 0.929362,-0.224234 0.30105,-0.149488 0.548685,-0.350232 0.742911,-0.602228 v 0 l -0.553538,-0.602228 c -0.143725,0.183659 -0.308818,0.324603 -0.495276,0.42284 -0.186455,0.09823 -0.386506,0.147352 -0.600153,0.147352 -0.190335,0 -0.366112,-0.03737 -0.527314,-0.112114 -0.16121,-0.07475 -0.30105,-0.176188 -0.419525,-0.304319 -0.118478,-0.128132 -0.211709,-0.280824 -0.279681,-0.458077 -0.06799,-0.177251 -0.101977,-0.368387 -0.101977,-0.5734 0,-0.209283 0.03302,-0.402552 0.09906,-0.579803 0.06603,-0.177254 0.157317,-0.331013 0.273854,-0.461281 0.116536,-0.130271 0.255403,-0.232778 0.416611,-0.307523 0.161205,-0.07475 0.333094,-0.112116 0.515664,-0.112116 0.217534,0 0.423409,0.05232 0.617632,0.156967 0.194225,0.104646 0.363203,0.255194 0.506928,0.451665 v 0 l 0.571015,-0.621445 c -0.190333,-0.256268 -0.438945,-0.460214 -0.745821,-0.61184 -0.30687,-0.151623 -0.623457,-0.227434 -0.949754,-0.227434 -0.30299,0 -0.587527,0.0598 -0.853614,0.179385 -0.266086,0.119593 -0.496243,0.281894 -0.690468,0.486909 -0.194223,0.205016 -0.347658,0.449534 -0.460309,0.733564 -0.112653,0.284028 -0.168978,0.588344 -0.168978,0.912952 0,0.324602 0.05535,0.627856 0.166061,0.909749 0.110712,0.281895 0.263175,0.52535 0.457401,0.730362 0.19422,0.205015 0.424377,0.367318 0.690464,0.486907 0.266091,0.119589 0.552567,0.179387 0.859443,0.179387 z m 11.175662,-0.06406 v -3.664622 h 1.369278 v -0.820054 h -3.589263 v 0.820053 h 1.375111 v 3.664621 z m 9.678193,0 V 23.24025 h -0.844874 v 4.484675 z m 9.730631,0.07047 c 0.30299,0 0.586558,-0.05979 0.850702,-0.179386 0.264145,-0.119591 0.49236,-0.28296 0.684641,-0.490111 0.192283,-0.207149 0.344746,-0.452739 0.457398,-0.736767 0.11265,-0.284029 0.168975,-0.586215 0.168975,-0.906548 0,-0.320335 -0.05633,-0.622516 -0.168975,-0.906543 -0.112652,-0.284031 -0.265115,-0.529621 -0.457398,-0.736769 -0.192281,-0.207149 -0.420496,-0.370519 -0.684641,-0.490112 -0.264144,-0.119592 -0.547712,-0.179385 -0.850702,-0.179385 -0.299106,0 -0.580728,0.05979 -0.844878,0.179385 -0.264141,0.119593 -0.49236,0.282963 -0.684635,0.490112 -0.192285,0.207148 -0.344752,0.452738 -0.457399,0.73677 -0.112653,0.284026 -0.168977,0.586208 -0.168977,0.906543 0,0.320333 0.05633,0.622518 0.168977,0.906547 0.112647,0.284028 0.265114,0.529618 0.457399,0.736767 0.192275,0.207152 0.420494,0.37052 0.684635,0.490111 0.26415,0.119593 0.545772,0.179386 0.844878,0.179386 z m 0,-0.852089 c -0.182567,0 -0.352519,-0.03737 -0.509836,-0.112117 -0.157323,-0.07475 -0.293279,-0.177247 -0.407874,-0.307517 -0.114591,-0.130271 -0.204903,-0.285098 -0.270944,-0.464485 -0.06603,-0.179393 -0.09905,-0.37159 -0.09905,-0.576603 0,-0.209283 0.03302,-0.402552 0.09905,-0.579803 0.06604,-0.177254 0.156353,-0.331013 0.270944,-0.461281 0.114595,-0.130272 0.250551,-0.232779 0.407874,-0.307523 0.157317,-0.07475 0.327269,-0.112117 0.509836,-0.112117 0.182568,0 0.35349,0.03737 0.512752,0.112117 0.159267,0.07475 0.296195,0.177251 0.410786,0.307523 0.114589,0.130268 0.204904,0.284027 0.27094,0.461281 0.06604,0.177251 0.09906,0.37052 0.09906,0.579803 0,0.205013 -0.03302,0.39721 -0.09906,0.576603 -0.06604,0.179387 -0.156351,0.334214 -0.27094,0.464485 -0.114591,0.13027 -0.251519,0.232776 -0.410786,0.307518 -0.159262,0.07475 -0.330184,0.112116 -0.512752,0.112116 z m 10.528898,0.781614 v -2.998325 l 2.080134,2.998327 h 0.74583 v -4.484675 h -0.79244 v 2.902228 l -2.027704,-2.902228 h -0.80408 v 4.484675 z"
     id="COLLECTION"
     inkscape:connector-curvature="0"
     style="fill:#ffffff;fill-rule:nonzero;stroke:none;stroke-width:0.26109254" />
  <path
     style="clip-rule:evenodd;fill:#d4372b;fill-rule:evenodd;stroke-width:0.90636641"
     inkscape:connector-curvature="0"
     d="M 8.3224285,0.0107241 H 26.824992 L 23.981718,4.2407358 H 5.5888275 Z M 31.539003,0 43.669809,20.732221 H 39.55128 L 31.626922,7.9098569 28.638629,12.257697 h -4.761141 l 2.003973,4.229099 -2.86321,4.1856 H -7.3329162e-4 L 5.2543786,12.428849 H 0.34006024 L 2.9349872,8.3565452 H 17.272796 L 14.545539,12.475073 H 10.378974 L 7.6299645,16.591788 H 21.167452 L 17.418721,8.3501993 26.18238,8.3121365 Z"
     id="path1045" />
  <path
     style="clip-rule:evenodd;fill:#30338c;fill-rule:evenodd;stroke-width:0.46136868"
     inkscape:connector-curvature="0"
     d="m 56.83631,11.758796 v 3.308475 h 3.477796 c 0.191939,-0.0041 0.365406,-0.07705 0.501971,-0.211307 0.137027,-0.134258 0.213612,-0.306348 0.221456,-0.497816 l 0.01014,-1.718137 c 0.0074,-0.234376 -0.07705,-0.45168 -0.240834,-0.619619 -0.163788,-0.167938 -0.378784,-0.257904 -0.613621,-0.256059 z M 54.730624,9.9972909 h 6.679694 c 0.473828,-0.00744 0.908897,0.1730141 1.238775,0.5130431 0.329879,0.340028 0.495972,0.780635 0.473365,1.253999 l 0.0036,3.291404 c -0.02495,0.49228 -0.232564,0.932426 -0.596583,1.265073 -0.36448,0.332647 -0.821696,0.499201 -1.314439,0.479361 H 56.8086 v 3.88334 h -2.078005 z m -7.47648,0.010609 4.192918,-0.0041 c 0.554566,-0.0032 1.061609,0.206232 1.45239,0.59978 0.390779,0.394008 0.596088,0.902437 0.588706,1.457001 v 1.188946 h -1.889305 v -1.496214 h -4.405609 v 2.493698 l 4.433291,4.61e-4 c 0.520885,0.0036 0.99471,0.200696 1.364729,0.567484 0.370018,0.366788 0.570714,0.838767 0.579017,1.359652 v 2.715156 c -0.01669,0.484897 -0.20761,0.920891 -0.552718,1.26138 -0.345106,0.340491 -0.783867,0.526422 -1.268765,0.536111 h -4.598001 c -0.531496,-0.0018 -1.015471,-0.209001 -1.384104,-0.591014 -0.369095,-0.382013 -0.558257,-0.873369 -0.541649,-1.403944 l -0.01563,-1.424706 h 2.039251 v 1.606947 h 4.460976 v -2.715616 h -4.328615 c -0.596088,-0.02169 -1.130815,-0.263441 -1.541432,-0.696205 -0.41062,-0.432763 -0.623771,-0.979947 -0.614082,-1.576036 v -2.106176 c 0.180851,-0.982255 1.030236,-1.725057 2.028637,-1.772578 z m 19.030995,1.773502 v 7.109691 h 5.320504 v -7.109691 z m 0.007,-1.777655 h 5.340343 c 0.531034,0.0088 1.012241,0.217306 1.382723,0.598395 0.370015,0.381553 0.56379,0.86922 0.556409,1.400717 v 6.816722 c 0,0.513502 -0.198382,0.98133 -0.567023,1.337968 -0.368631,0.357561 -0.842458,0.541647 -1.355501,0.525499 h -5.356978 c -0.549028,0.02354 -1.059303,-0.172083 -1.451465,-0.556864 -0.393088,-0.384781 -0.598856,-0.891364 -0.5864,-1.440854 l 0.01288,-6.73829 c 0.02492,-0.531495 0.240835,-1.007167 0.624695,-1.3758 0.384319,-0.367711 0.867834,-0.564254 1.400253,-0.567483 z m 10.969527,1.760582 v 3.289558 l 3.602367,-0.0013 c 0.161485,4.6e-4 0.308194,-0.06274 0.418921,-0.179473 0.110733,-0.116726 0.165625,-0.267132 0.157324,-0.428149 l -0.0097,-2.081699 c -0.0059,-0.169322 -0.07612,-0.321113 -0.201147,-0.435532 -0.125031,-0.11442 -0.281897,-0.171629 -0.45168,-0.163323 z m -2.20451,-1.7656497 h 6.644631 c 0.489975,-0.017532 0.942575,0.1545587 1.296907,0.4932027 0.354331,0.338183 0.547182,0.782943 0.551335,1.272916 v 3.291404 c 4.63e-4,0.488128 -0.189152,0.932426 -0.541186,1.27061 -0.352024,0.337722 -0.803702,0.50935 -1.29137,0.489511 h -1.3712 l 4.297188,3.879649 h -3.096247 l -3.819208,-3.896258 h -0.497818 v 3.891644 h -2.145826 z m 9.128639,0.00506 h 9.088963 v 1.760582 h -3.463956 v 8.91783 h -2.105687 v -8.917822 h -3.51932 z m 11.866866,0.01153 4.193379,-0.0041 c 0.55457,-0.0032 1.06207,0.206231 1.45239,0.599778 0.39032,0.393548 0.59609,0.902438 0.58871,1.457002 v 1.18941 h -1.88931 v -1.496201 h -4.406071 v 2.493697 h 4.433291 c 0.52135,0.0036 0.99471,0.201157 1.36427,0.567484 0.37049,0.366327 0.57117,0.838307 0.57947,1.359192 v 2.715615 c -0.0161,0.484899 -0.2076,0.920893 -0.55272,1.261383 -0.34509,0.340489 -0.7834,0.525499 -1.26876,0.536109 h -4.597999 c -0.531496,-0.0028 -1.015012,-0.208999 -1.384105,-0.591012 -0.369555,-0.382014 -0.558721,-0.873371 -0.541648,-1.403945 l -0.01563,-1.424707 h 2.039254 v 1.606947 h 4.461378 v -2.715616 h -4.329022 c -0.595628,-0.02168 -1.130815,-0.263441 -1.541436,-0.696204 -0.410613,-0.432765 -0.623765,-0.979947 -0.613621,-1.576036 v -2.105721 c 0.180855,-0.983177 1.029774,-1.725519 2.028182,-1.77304 z"
     id="path1047" />
</svg>
