<?xml version="1.0" encoding="UTF-8" standalone="no"?>
<!-- Created with Inkscape (http://www.inkscape.org/) -->

<svg
   xmlns:dc="http://purl.org/dc/elements/1.1/"
   xmlns:cc="http://creativecommons.org/ns#"
   xmlns:rdf="http://www.w3.org/1999/02/22-rdf-syntax-ns#"
   xmlns:svg="http://www.w3.org/2000/svg"
   xmlns="http://www.w3.org/2000/svg"
   xmlns:sodipodi="http://sodipodi.sourceforge.net/DTD/sodipodi-0.dtd"
   xmlns:inkscape="http://www.inkscape.org/namespaces/inkscape"
   width="496.09644"
   height="93.424736"
   viewBox="0 0 131.25884 24.718629"
   version="1.1"
   id="svg8"
   inkscape:version="0.92.5 (2060ec1f9f, 2020-04-08)"
   sodipodi:docname="famicom.svg">
  <defs
     id="defs2" />
  <sodipodi:namedview
     id="base"
     pagecolor="#ffffff"
     bordercolor="#666666"
     borderopacity="1.0"
     inkscape:pageopacity="0.0"
     inkscape:pageshadow="2"
     inkscape:zoom="1.1842658"
     inkscape:cx="363.88645"
     inkscape:cy="75.617797"
     inkscape:document-units="mm"
     inkscape:current-layer="layer1"
     showgrid="false"
     units="px"
     inkscape:pagecheckerboard="true"
     inkscape:window-width="1366"
     inkscape:window-height="740"
     inkscape:window-x="0"
     inkscape:window-y="0"
     inkscape:window-maximized="1" />
  <metadata
     id="metadata5">
    <rdf:RDF>
      <cc:Work
         rdf:about="">
        <dc:format>image/svg+xml</dc:format>
        <dc:type
           rdf:resource="http://purl.org/dc/dcmitype/StillImage" />
        <dc:title />
      </cc:Work>
    </rdf:RDF>
  </metadata>
  <g
     inkscape:label="Layer 1"
     inkscape:groupmode="layer"
     id="layer1"
     transform="translate(0.35755625,-258.06518)">
    <path
       inkscape:connector-curvature="0"
       id="path259"
       d="m 0.61875464,282.27228 c 0.073879,-0.39445 0.47335946,-0.49537 2.40712586,-0.60807 2.6668717,-0.15542 3.4108582,-0.62367 3.4848307,-2.19327 l 0.043107,-0.9146 -3.324799,-0.13514 c -3.10314587,-0.12611 -3.32479898,-0.17116 -3.32479898,-0.67561 0,-0.51066 0.2019906,-0.54467 3.65727868,-0.6157 2.818304,-0.0579 3.6640936,0.004 3.6869882,0.27025 0.2160918,2.51263 -0.3129227,4.50566 -1.3448957,5.06681 -0.281451,0.15305 -1.6056085,0.27827 -2.9425734,0.27827 -2.17151329,0 -2.42139302,-0.0505 -2.34225934,-0.47294 z m 7.66395486,0.0831 c 0,-0.26544 0.3607523,-0.41637 1.1304318,-0.47295 0.8728067,-0.0641 1.1902667,-0.22167 1.3929907,-0.69117 0.204292,-0.47312 0.481191,-0.60806 1.247726,-0.60806 0.541841,0 1.055428,-0.11551 1.141305,-0.25669 0.295881,-0.48642 -0.892867,-0.82431 -2.90009,-0.82431 -1.6114437,0 -2.0123635,-0.0808 -2.0123635,-0.40538 0,-0.33683 0.517191,-0.40537 3.0588145,-0.40537 h 3.058814 v 0.82852 c 0,1.29959 -0.398637,1.78324 -1.635402,1.98419 -0.658279,0.10694 -1.273715,0.40138 -1.487657,0.71173 -0.460986,0.6687 -2.9945695,0.78672 -2.9945695,0.13949 z m 9.4643685,0.0924 c -2.164317,-0.23178 -2.882923,-0.55219 -2.381354,-1.0618 0.187782,-0.1908 1.102999,-0.18747 2.912525,0.0106 3.974928,0.43503 4.367591,0.52093 4.367591,0.95552 0,0.44789 -1.361661,0.4745 -4.898762,0.0957 z m 7.07651,-0.17552 c 0.07386,-0.39301 0.434323,-0.48623 2.132925,-0.5516 1.906871,-0.0733 2.089636,-0.13373 2.723452,-0.89906 0.52722,-0.63661 0.679408,-1.11841 0.679408,-2.15089 0,-0.73179 0.119692,-1.33052 0.265984,-1.33052 0.42035,0 0.314166,3.17517 -0.135745,4.05917 -0.575148,1.13005 -1.150772,1.34584 -3.590046,1.34584 -1.918311,0 -2.154739,-0.0538 -2.075978,-0.47294 z m 17.837049,0.13513 c 0.07774,-0.23803 1.007466,-0.35947 3.147474,-0.41113 2.470023,-0.0597 3.099226,-0.15758 3.369623,-0.5246 0.3671,-0.49826 0.441305,-2.18782 0.11874,-2.70359 -0.137989,-0.22064 -1.251815,-0.35393 -3.387223,-0.40537 -2.617268,-0.063 -3.181627,-0.14855 -3.181627,-0.48201 0,-0.33704 0.616577,-0.41806 3.657279,-0.48057 l 3.657279,-0.0752 v 2.71013 2.71013 h -3.74594 c -2.878276,0 -3.720383,-0.0782 -3.635605,-0.33781 z m 8.510907,0 c 0.07342,-0.22596 0.959749,-0.38284 2.676793,-0.47379 2.340267,-0.12397 2.630056,-0.2 3.28039,-0.86077 0.555369,-0.56428 0.740534,-1.05785 0.836096,-2.22872 0.164479,-2.01523 0.588844,-1.92082 0.588844,0.131 0,1.7589 -0.482076,3.03881 -1.315187,3.49183 -0.774968,0.4214 -6.205881,0.36809 -6.066936,-0.0596 z m 8.721399,-0.18493 c -0.336192,-0.63826 -0.369393,-4.88227 -0.03819,-4.88227 0.130433,0 0.312251,0.30403 0.404042,0.67562 0.177582,0.71889 0.308101,0.73789 5.476438,0.79705 1.015115,0.0116 1.196933,0.0958 1.196933,0.55421 0,0.50293 -0.221657,0.54989 -3.188852,0.67562 -2.884533,0.12223 -3.198237,0.18501 -3.287228,0.65776 -0.179751,0.95496 0.664625,1.234 3.734081,1.234 2.378223,0 2.874989,0.0701 2.874989,0.40537 0,0.33949 -0.560481,0.40538 -3.448438,0.40538 -3.137137,0 -3.473285,-0.0472 -3.723774,-0.52274 z m 8.236144,0.11736 c 0,-0.31467 0.352225,-0.40537 1.574149,-0.40537 1.987968,0 2.41561,-0.17089 2.41561,-0.96528 0,-0.81915 -0.71396,-1.19673 -2.262876,-1.19673 -1.031994,0 -1.21925,-0.0774 -1.144275,-0.47294 0.0752,-0.39659 0.389601,-0.47293 1.947887,-0.47293 h 1.858245 l 0.08123,1.28725 c 0.06404,1.01514 0.218672,1.37877 0.731452,1.72015 0.357633,0.23808 0.650244,0.54052 0.650244,0.67206 0,0.13154 -1.316623,0.23917 -2.925827,0.23917 -2.42341,0 -2.925816,-0.0697 -2.925816,-0.40538 z m 14.363131,0 c 0,-0.3239 0.396558,-0.40537 1.973129,-0.40537 2.205343,0 2.814581,-0.15251 2.814581,-0.70455 0,-0.27995 -0.409124,-0.37646 -1.595904,-0.37646 -1.418579,0 -1.595903,-0.0601 -1.595903,-0.54049 0,-0.48672 0.178681,-0.54092 1.795394,-0.54465 1.972627,-0.004 2.623454,-0.25519 2.374463,-0.91446 -0.130779,-0.34626 -0.583653,-0.43266 -2.268053,-0.43266 -2.092739,0 -2.108663,0.005 -2.814711,0.94589 -0.838133,1.11646 -1.214967,1.20028 -1.214967,0.27025 0,-0.3716 0.125923,-0.67563 0.279823,-0.67563 0.1539,0 0.406279,-0.36858 0.560843,-0.81908 l 0.28102,-0.81907 3.096434,0.0759 3.096435,0.0759 -0.02141,1.82912 c -0.019,1.62864 -0.104661,1.91745 -0.781213,2.63494 -0.742148,0.78708 -0.820581,0.80583 -3.369915,0.80583 -2.142743,0 -2.610073,-0.0726 -2.610073,-0.40538 z m -64.292824,-1.85914 c -1.34836,-0.16657 -2.595226,-0.45089 -2.770812,-0.63182 -0.590877,-0.60884 0.483261,-0.69641 3.835135,-0.31265 2.704052,0.30958 3.258445,0.45003 3.332407,0.84429 0.104864,0.55899 -0.560293,0.57415 -4.39673,0.1002 z m 55.700239,0.20027 c -0.101686,-0.10331 -0.184884,-0.34999 -0.184884,-0.54817 0,-0.28259 0.779042,-0.36034 3.61028,-0.36034 3.295051,0 3.6025,0.0413 3.521031,0.47294 -0.07841,0.41554 -0.494122,0.48207 -3.425407,0.54818 -1.834872,0.0414 -3.419335,-0.009 -3.52102,-0.11261 z m -50.136745,-1.75977 c 0.09898,-2.12646 0.611846,-2.16801 0.611846,-0.0495 0,1.01652 -0.116287,1.5708 -0.345863,1.64855 -0.264913,0.0897 -0.327167,-0.28451 -0.265983,-1.59898 z m 8.32538,1.39177 c -0.395228,-0.64976 0.320947,-0.81076 3.606481,-0.81076 3.264769,0 3.442093,0.0279 3.442093,0.5405 0,0.51266 -0.177324,0.5405 -3.442093,0.5405 -2.007816,0 -3.510591,-0.11261 -3.606481,-0.27024 z M 18.438552,278.5584 c -2.69045,-0.32935 -3.610755,-0.68586 -3.093971,-1.19858 0.24531,-0.24338 6.568542,0.36299 7.070192,0.678 0.127086,0.0798 0.231067,0.32034 0.231067,0.53452 0,0.45653 -0.374013,0.45529 -4.207288,-0.0139 z m 32.855432,-0.30659 c -0.103327,-0.10498 -0.187867,-0.35302 -0.187867,-0.55121 0,-0.27052 0.535218,-0.36033 2.147373,-0.36033 1.901634,0 2.13721,0.0541 2.058556,0.47293 -0.07281,0.38771 -0.425957,0.48705 -1.959506,0.55122 -1.028879,0.043 -1.955229,-0.007 -2.058556,-0.11261 z m -51.47212546,-4.08705 c 0.08502772,-0.44862 3.37810166,-0.4765 64.05512846,-0.54219 35.181016,-0.0381 64.128583,-0.006 64.327923,0.0708 0.28998,0.11203 0.29676,0.22041 0.0339,0.54219 -0.28919,0.35403 -8.0005,0.40218 -64.417566,0.40218 -60.8940221,0 -64.0845862,-0.0236 -63.99941573,-0.47294 z M 101.14376,271.37167 c -1.181974,-0.25399 -2.124872,-0.99408 -2.736229,-2.14768 -0.441012,-0.83219 -0.488733,-1.48216 -0.425953,-5.80169 l 0.07067,-4.86451 0.975242,-0.0825 0.97524,-0.0825 0.0887,4.71659 c 0.0786,4.1832 0.14598,4.78085 0.59538,5.28485 0.61588,0.69072 2.0646,0.75928 2.58605,0.12241 0.2664,-0.32537 0.40099,-1.73126 0.49804,-5.20233 l 0.13299,-4.75646 h 1.06393 1.06394 l 0.0751,4.59426 c 0.0606,3.70658 -0.008,4.81552 -0.3532,5.73941 -0.69215,1.85063 -2.64655,2.90213 -4.60994,2.48021 z m 13.45207,0.12146 c -0.10205,-0.10369 -0.18555,-3.08696 -0.18555,-6.6295 v -6.44097 h 3.19181 3.1918 v 1.20429 1.20428 l -1.92838,0.0794 -1.92838,0.0794 v 1.35126 1.35124 l 1.92838,0.0794 1.92838,0.0794 v 1.19245 1.19245 l -1.92838,0.0794 -1.92838,0.0794 -0.0837,1.18935 c -0.10386,1.47487 0.12479,1.63879 2.29341,1.64414 l 1.6777,0.004 -0.0818,1.14857 -0.0818,1.14856 -2.93977,0.0759 c -1.61687,0.0418 -3.02325,-0.009 -3.1253,-0.1126 z m 7.45193,0.004 c -0.10446,-0.10613 -0.18992,-3.10421 -0.18992,-6.66241 v -6.46944 l 3.17236,0.096 c 2.71106,0.082 3.28157,0.17824 3.92327,0.66138 1.29243,0.97307 1.94782,2.21027 1.94782,3.67692 0,1.47956 -0.41245,2.46629 -1.43764,3.43942 -0.90833,0.86219 -0.87325,1.29105 0.26424,3.23121 0.52496,0.8954 0.87698,1.7554 0.78226,1.91112 -0.23729,0.3901 -1.53846,0.35594 -2.08321,-0.0547 -0.24648,-0.1858 -1.13817,-1.49313 -1.98152,-2.90519 -0.84335,-1.41207 -1.71187,-2.56738 -1.93004,-2.56738 -0.31795,0 -0.42308,0.56316 -0.52968,2.83762 l -0.13299,2.83764 -0.80751,0.0804 c -0.44413,0.0442 -0.89298,-0.006 -0.99744,-0.11261 z m 5.9277,-7.39965 c 0.69714,-0.70832 0.67589,-1.73447 -0.0502,-2.42174 -0.44478,-0.42101 -0.94011,-0.55102 -2.09942,-0.55102 -1.66818,0 -1.84019,0.16419 -1.84019,1.75663 0,1.60118 0.16728,1.75662 1.89035,1.75662 1.2128,0 1.6878,-0.12228 2.09941,-0.54049 z m -128.02691237,7.11697 c -0.09752352,-0.0991 -0.17732271,-3.01781 -0.17732271,-6.48602 v -6.30585 h 3.32479898 3.324798 v 1.081 1.081 H 4.41936 c -1.9248314,0 -2.0118154,0.0277 -2.2718486,0.72259 -0.1487121,0.39741 -0.1971582,1.06132 -0.1076579,1.47534 0.1588364,0.73478 0.2115771,0.75466 2.2053525,0.83137 l 2.0426246,0.0786 0.081791,1.14856 0.081791,1.14857 -1.8106853,0.004 c -0.9958769,0.002 -1.9902238,0.1193 -2.2096602,0.26006 -0.2931376,0.18802 -0.4117803,0.83103 -0.447242,2.42395 -0.02654,1.19242 -0.1233807,2.29153 -0.2151861,2.44246 -0.1858265,0.30549 -1.54300679,0.37577 -1.82008876,0.0943 z M 3.883617,271.10741 c -0.096106,-0.158 0.046445,-0.53558 0.3167821,-0.83907 0.2703405,-0.30348 1.0899914,-1.44935 1.821447,-2.54639 0.7314565,-1.09702 2.5141712,-3.64444 3.9615888,-5.66093 2.6042191,-3.6281 2.6416751,-3.66549 3.5907821,-3.58479 l 0.959113,0.0816 0.07168,6.04661 c 0.07621,6.42951 0.0137,6.79029 -1.176524,6.79029 -0.650679,0 -0.721407,-0.0998 -1.005872,-1.41882 -0.159183,-0.73812 -0.175346,-0.74318 -2.372437,-0.74318 H 7.8380083 l -0.9551143,1.081 c -0.7704458,0.87199 -1.1358389,1.081 -1.889823,1.081 -0.51409,0 -1.0133439,-0.12928 -1.109454,-0.28728 z m 8.379491,-4.55946 c 0.397312,-0.75429 0.338396,-2.33068 -0.100953,-2.70115 -0.304749,-0.25698 -0.557615,-0.076 -1.32992,0.95165 -1.3337121,1.77472 -1.2727843,2.27223 0.278277,2.27223 0.595093,0 0.965816,-0.16813 1.152596,-0.52273 z m 3.391148,4.67944 c -0.10449,-0.10617 -0.189983,-3.03067 -0.189983,-6.49888 v -6.30585 h 1.423546 1.423546 l 1.716677,3.9862 c 1.364978,3.16953 1.822608,3.9862 2.233733,3.9862 0.410563,0 0.87314,-0.82092 2.245952,-3.98581 l 1.728895,-3.98579 1.268238,-4e-4 1.268237,-4e-4 -0.0713,6.41845 -0.07131,6.41846 h -0.930944 -0.930944 l -0.0755,-2.9052 c -0.05732,-2.20586 -0.161059,-2.9052 -0.43095,-2.9052 -0.195499,0 -0.935542,1.28124 -1.644542,2.84719 -1.345689,2.97219 -1.746557,3.35945 -3.102197,2.99686 -0.455016,-0.12171 -0.86372,-0.7927 -1.70512,-2.79937 -0.614502,-1.46554 -1.265092,-2.6393 -1.462911,-2.6393 -0.265067,0 -0.390295,0.69174 -0.489246,2.70251 l -0.132993,2.70251 -0.94045,0.0804 c -0.517247,0.0442 -1.025942,-0.006 -1.130431,-0.11261 z m 14.363077,-6e-5 c -0.10446,-0.10613 -0.189928,-3.03061 -0.189928,-6.49882 v -6.30585 h 1.06875 1.068749 l -0.07131,6.41845 -0.07132,6.41846 -0.807511,0.0804 c -0.444133,0.0442 -0.89298,-0.006 -0.99744,-0.11261 z m 3.18819,-0.004 c -0.102471,-0.10411 -0.186311,-3.02694 -0.186311,-6.49515 v -6.30584 h 1.191185 1.191182 l 0.07224,5.20232 0.07224,5.20233 1.462911,0.13512 1.462911,0.13512 v 1.081 1.08101 l -2.540023,0.0767 c -1.397015,0.0422 -2.623865,-0.008 -2.726335,-0.1126 z m 7.185235,0.004 c -0.104489,-0.10616 -0.189981,-1.22615 -0.189981,-2.48886 v -2.29582 l -1.994879,-3.89254 c -1.097184,-2.1409 -1.99488,-3.95207 -1.99488,-4.02482 0,-0.0727 0.560362,-0.0952 1.245246,-0.0499 l 1.245246,0.0823 0.996089,1.89175 c 1.300925,2.47069 1.525913,2.72596 1.986631,2.25399 0.19449,-0.19922 0.810044,-1.21352 1.367892,-2.25399 l 1.014274,-1.89175 1.288801,-0.0837 1.288798,-0.0837 -1.958184,3.73199 -1.958187,3.73199 -0.132992,2.7025 -0.132992,2.70252 -0.940449,0.0804 c -0.517249,0.0442 -1.025944,-0.006 -1.130433,-0.1126 z m 11.294086,-0.53526 c -2.304205,-1.16665 -3.698505,-3.79595 -3.42754,-6.46348 0.572284,-5.63385 7.026984,-8.04309 11.027818,-4.11617 0.475446,0.46666 0.864448,1.00704 0.864448,1.20083 0,0.56045 -2.24229,0.43595 -3.388321,-0.18813 -1.25875,-0.68548 -2.730902,-0.68853 -4.043022,-0.008 -2.785924,1.44408 -2.911119,5.63788 -0.218126,7.30686 1.463343,0.9069 2.391988,0.94349 4.075174,0.16054 1.624718,-0.75576 3.574295,-0.94786 3.574295,-0.3522 0,0.54525 -1.885425,2.27926 -2.983776,2.74416 -1.561964,0.66113 -3.848236,0.54267 -5.48095,-0.284 z m 12.528364,0.0137 c -6.282548,-3.18094 -3.454264,-13.20668 3.519341,-12.4754 3.01965,0.31666 5.066488,2.19487 5.948875,5.45878 0.483988,1.79028 -0.275752,3.99425 -1.972426,5.72188 -2.104904,2.14327 -4.8749,2.62173 -7.49579,1.29475 z m 4.607149,-1.98812 c 2.889676,-1.33338 3.359259,-5.54643 0.822742,-7.38156 -0.530211,-0.3836 -1.330656,-0.62578 -2.294572,-0.69423 -1.892254,-0.13437 -3.067472,0.59663 -3.9862,2.47947 -0.591374,1.21194 -0.61731,1.42177 -0.317321,2.56699 0.517164,1.97421 2.24286,3.433 4.153139,3.51076 0.292581,0.012 1.022575,-0.20473 1.622212,-0.48143 z m 6.145972,2.4895 c -0.15386,-0.2614 -0.281994,-5.83582 -0.227085,-9.87937 l 0.03941,-2.9052 h 1.164361 c 0.640392,0 1.285368,0.15201 1.433277,0.33782 0.147909,0.18579 1.01403,2.13785 1.924705,4.3379 1.264981,3.056 1.7585,3.98011 2.091,3.91543 0.394819,-0.0768 1.108216,-1.58265 3.404668,-7.18658 0.575098,-1.4034 0.576596,-1.40457 1.795384,-1.40457 h 1.219813 v 6.50233 6.50233 l -0.997442,-0.0839 -0.997432,-0.0839 -0.07067,-2.70251 c -0.0389,-1.48638 -0.13306,-2.87612 -0.209261,-3.08831 -0.236697,-0.65902 -0.741917,0.15123 -1.976106,3.16923 l -1.138273,2.78344 -1.185684,-0.0809 -1.185673,-0.0809 -1.151373,-2.83764 c -0.648736,-1.59884 -1.306147,-2.83762 -1.505889,-2.83762 -0.264412,0 -0.388315,0.72122 -0.487507,2.83762 l -0.13299,2.83764 -0.839481,0.0828 c -0.461721,0.0456 -0.897214,-0.0152 -0.967756,-0.13513 z m 13.909502,-6.29855 v -6.48602 h 2.553144 c 2.926249,0 4.137919,0.42257 4.909894,1.71235 1.73394,2.89697 -0.06364,6.39517 -3.286184,6.39517 -1.747009,0 -2.048979,0.42105 -2.048979,2.85693 v 2.00758 h -1.063943 -1.063932 z m 5.386172,-1.37297 c 0.611037,-0.75962 0.58883,-1.47446 -0.06645,-2.1403 -0.602141,-0.6118 -2.353533,-0.74361 -2.872626,-0.21619 -0.473091,0.48068 -0.392507,2.26509 0.126084,2.792 0.588398,0.59784 2.180039,0.35142 2.813042,-0.43551 z m 14.828607,2.89243 c 0,-5.28591 -0.0348,-5.43287 -1.32992,-5.6149 -0.58313,-0.0819 -0.66496,-0.22648 -0.66496,-1.17446 v -1.08099 l 3.1253,-0.0761 3.12532,-0.0761 v 1.22472 c 0,1.16117 -0.0386,1.2247 -0.74475,1.2247 -1.31823,0 -1.38313,0.26244 -1.38313,5.59418 v 4.94559 h -1.06393 -1.06393 z"
       style="fill:#fd322e;stroke-width:0.26810879" />
    <path
       inkscape:connector-curvature="0"
       id="path257"
       d="m 0.66366677,282.04225 c 0,-0.28663 0.55037753,-0.40061 2.28389703,-0.47294 2.1302873,-0.0889 2.3280261,-0.14743 2.9400117,-0.87032 0.4893083,-0.57798 0.6356015,-1.02457 0.5754298,-1.75662 l -0.080685,-0.98161 -3.2583028,-0.0759 c -2.65472181,-0.0618 -3.25830282,-0.14944 -3.25830282,-0.47294 0,-0.32963 0.6097312,-0.39706 3.59078272,-0.39706 H 7.04728 v 1.35994 c 0,1.78831 -0.5647066,3.09789 -1.5617409,3.62175 -1.0755097,0.56509 -4.82187273,0.60058 -4.82187233,0.0457 z m 7.58054123,0.10739 c -0.096196,-0.15814 0.1803892,-0.27025 0.6667484,-0.27025 1.0253179,0 1.8600986,-0.42876 1.8600986,-0.95538 0,-0.2796 0.302929,-0.39587 1.031367,-0.39587 1.046974,0 1.818931,-0.54925 1.502681,-1.06916 -0.09849,-0.16192 -1.184686,-0.28209 -2.549746,-0.28209 -1.9365951,0 -2.3781571,-0.0753 -2.3781571,-0.40538 0,-0.3346 0.4876366,-0.40537 2.7928311,-0.40537 h 2.792831 v 1.07149 c 0,1.20023 -0.479067,1.63101 -1.813811,1.63101 -0.543661,0 -0.918738,0.20763 -1.220545,0.67563 -0.342031,0.53038 -0.659734,0.67563 -1.4778056,0.67563 -0.573157,0 -1.1160794,-0.12162 -1.2064924,-0.27026 z m 10.171208,-0.12069 c -2.761945,-0.32344 -3.396432,-0.50196 -3.046794,-0.8572 0.258507,-0.26265 6.848866,0.54063 6.914249,0.84277 0.08423,0.38926 -0.643506,0.39198 -3.867455,0.0144 z m 6.452786,-0.0144 c 0,-0.32164 0.383731,-0.40537 1.85769,-0.40537 1.654773,0 1.945318,-0.0812 2.659903,-0.7432 0.610773,-0.56583 0.85825,-1.09789 1.037036,-2.22956 l 0.234827,-1.48638 0.03068,1.35125 c 0.03638,1.60242 -0.615514,3.09135 -1.564395,3.57308 -0.365728,0.18568 -1.472886,0.33938 -2.460351,0.34157 -1.420325,0.003 -1.795391,-0.0807 -1.79539,-0.40139 z m 17.820922,0.14297 c 0,-0.17347 1.081588,-0.2781 2.874984,-0.2781 3.632059,0 3.833286,-0.12456 3.723153,-2.30467 l -0.08153,-1.61396 -3.258303,-0.0759 c -2.684018,-0.0625 -3.258301,-0.14724 -3.258301,-0.48079 0,-0.34312 0.53772,-0.39339 3.524286,-0.32949 l 3.524287,0.0754 v 2.56737 2.56739 l -3.524287,0.0754 c -2.286555,0.0489 -3.524286,-0.0223 -3.524286,-0.20269 z m 8.511484,-0.008 c 0,-0.15624 0.84513,-0.27024 2.003423,-0.27024 2.088984,0 3.445667,-0.39678 4.100748,-1.19932 0.212037,-0.25977 0.53116,-1.16031 0.709166,-2.00119 l 0.323644,-1.52888 0.02229,1.29237 c 0.01226,0.71081 -0.144602,1.69821 -0.348587,2.19425 -0.619432,1.5063 -1.273319,1.78327 -4.210028,1.78327 -1.556447,0 -2.600655,-0.10851 -2.600656,-0.27026 z m 8.92946,-0.15442 c -0.31775,-0.32284 -0.410575,-0.95468 -0.387121,-2.63494 0.01697,-1.21565 0.08844,-1.96704 0.158811,-1.66977 0.07037,0.29728 0.208047,0.6276 0.305937,0.73407 0.0979,0.10645 1.582435,0.22348 3.298982,0.26006 2.334302,0.0497 3.120997,0.15423 3.120997,0.4145 0,0.26345 -0.735334,0.348 -3.026248,0.348 -3.179321,0 -3.776056,0.21088 -3.576462,1.26393 0.160604,0.84731 1.277809,1.16016 4.158058,1.16434 1.759353,0.003 2.68312,0.10082 2.577645,0.27423 -0.09399,0.15453 -1.45934,0.27026 -3.188507,0.27026 -2.394551,0 -3.111131,-0.0885 -3.442092,-0.42468 z m 7.978972,0.18477 c -0.08026,-0.13196 0.697704,-0.28835 1.728818,-0.34755 1.261397,-0.0724 1.956663,-0.23707 2.125116,-0.50327 0.168934,-0.26697 0.315244,-0.30134 0.449851,-0.10569 0.109717,0.15949 0.40895,0.36849 0.664959,0.46446 0.25601,0.096 0.465472,0.29992 0.465472,0.45323 0,0.34629 -5.224482,0.38361 -5.434216,0.0388 z m 14.477668,-0.002 c 0,-0.1329 0.939214,-0.28498 2.087139,-0.33794 2.137997,-0.0987 3.055384,-0.49227 2.789297,-1.19682 -0.105396,-0.27906 -0.621637,-0.38561 -1.868243,-0.38561 -1.259241,0 -1.693109,-0.0909 -1.61295,-0.33782 0.07017,-0.21619 0.868171,-0.38646 2.216532,-0.47294 1.893822,-0.12145 2.115016,-0.19304 2.187332,-0.70795 0.09965,-0.7095 -0.509359,-0.90479 -2.83741,-0.90986 -1.597127,-0.003 -1.74132,0.0498 -2.545732,0.94219 -0.468993,0.52024 -0.933983,0.94587 -1.033312,0.94587 -0.312952,0 -0.196443,-0.4858 0.21734,-0.90621 0.218867,-0.22239 0.516682,-0.72166 0.661811,-1.10949 l 0.263866,-0.70516 2.862476,0.0767 2.862477,0.0767 0.07859,1.66567 c 0.07252,1.53714 0.01396,1.74046 -0.759008,2.63495 l -0.8376,0.96927 h -2.366302 c -1.301467,0 -2.366302,-0.10874 -2.366302,-0.24163 z m -65.112425,-2.25664 c -1.448411,-0.17123 -2.172257,-0.36733 -2.105499,-0.5704 0.110563,-0.33633 0.662484,-0.3186 4.312732,0.13857 1.31662,0.1649 2.507563,0.40518 2.646539,0.53396 0.315337,0.29219 -1.915283,0.24526 -4.853772,-0.10215 z m 56.334957,-0.0692 c 0,-0.36378 0.464573,-0.41117 3.391295,-0.34589 4.449378,0.0993 4.402804,0.59015 -0.06563,0.69178 -2.867267,0.0652 -3.325666,0.0176 -3.325665,-0.34589 z m -50.270958,-1.20017 c 0,-0.73442 0.119693,-1.41047 0.265983,-1.50234 0.165139,-0.10369 0.265985,0.40257 0.265985,1.3353 0,0.82629 -0.119693,1.50234 -0.265985,1.50234 -0.14629,0 -0.265983,-0.60089 -0.265983,-1.3353 z m 8.511485,1.06504 c 0,-0.16574 1.285587,-0.27025 3.324799,-0.27025 2.039211,0 3.324798,0.10451 3.324798,0.27025 0,0.16576 -1.285587,0.27026 -3.324798,0.27026 -2.039212,0 -3.324799,-0.1045 -3.324799,-0.27026 z m 39.751294,0.0155 c -0.138976,-0.14013 -0.882643,-0.29214 -1.65259,-0.33782 -1.973937,-0.11709 -1.741314,-0.60768 0.33356,-0.70345 1.698286,-0.0783 1.731305,-0.0668 1.731305,0.60806 0,0.76019 -0.04308,0.80545 -0.412275,0.43321 z m -53.827404,-1.74237 c -1.541383,-0.18453 -2.54803,-0.43001 -2.615508,-0.63781 -0.135299,-0.41664 0.136065,-0.41321 3.749577,0.0474 1.586201,0.20218 3.016529,0.50226 3.178508,0.66683 0.362819,0.36864 -0.761575,0.34872 -4.312577,-0.0764 z m 33.226951,-0.56963 c 0,-0.32172 0.384198,-0.40538 1.861888,-0.40538 1.477689,0 1.861887,0.0837 1.861887,0.40538 0,0.32173 -0.384198,0.40537 -1.861887,0.40537 -1.47769,0 -1.861888,-0.0836 -1.861888,-0.40537 z m -51.4163231,-3.28071 c -0.0935506,-0.0951 -0.10643515,-0.27746 -0.0286328,-0.40537 0.0784109,-0.12891 28.7343439,-0.22872 64.2943779,-0.22396 56.46555,0.007 64.09106,0.0562 63.63662,0.40538 -0.45063,0.3463 -8.60801,0.39678 -64.124296,0.39678 -34.98439,0 -63.68451853,-0.0777 -63.7780691,-0.17283 z m 52.9644961,-3.44717 c -3.400743,-0.93039 -5.224324,-4.56887 -4.188829,-8.35772 0.360525,-1.31915 1.937448,-3.10002 3.305616,-3.73312 1.413835,-0.65424 3.921528,-0.64988 5.319678,0.009 0.585165,0.27585 1.476418,0.94205 1.980561,1.48043 l 0.916624,0.97888 H 58.86714 c -0.668413,0 -1.786751,-0.25683 -2.485195,-0.57075 -3.149505,-1.41552 -6.505407,0.96798 -6.181737,4.39052 0.138923,1.46899 1.107046,2.9694 2.330859,3.61241 1.106586,0.58142 3.143276,0.51519 4.195136,-0.13642 0.880486,-0.54544 2.98589,-0.75148 2.98589,-0.29221 0,0.13601 -0.546001,0.7356 -1.213333,1.33244 -0.836294,0.74795 -1.625572,1.17498 -2.53994,1.37422 -1.586769,0.34576 -1.629061,0.34459 -3.210039,-0.088 z m 47.464859,-0.14101 c -2.010045,-0.94982 -2.197724,-1.56878 -2.19887,-7.2517 l -9.95e-4,-4.93208 h 0.930944 0.930946 v 4.60654 c 0,4.53057 0.01076,4.61749 0.652865,5.26989 0.35909,0.36484 0.963,0.66334 1.34202,0.66334 0.37903,0 0.98293,-0.2985 1.34201,-0.66334 0.6421,-0.6524 0.65287,-0.73932 0.65287,-5.26989 v -4.60654 h 0.93094 0.93095 v 4.73807 c 0,5.24602 -0.19157,6.13693 -1.52732,7.10334 -1.1777,0.85205 -2.64166,0.97777 -3.98636,0.34237 z m 14.20248,0.33783 c -0.0975,-0.0991 -0.17732,-2.95699 -0.17732,-6.35089 v -6.17072 h 3.05881 3.05882 v 0.94587 0.94588 h -1.48039 c -2.09293,0 -2.50937,0.29152 -2.50937,1.75664 0,1.4651 0.41644,1.75663 2.50937,1.75663 h 1.48039 v 1.06916 1.06916 l -1.92838,0.0794 -1.92839,0.0794 v 1.35124 1.35126 l 1.92839,0.0794 1.92838,0.0794 v 1.06917 1.06916 h -2.88149 c -1.58483,0 -2.96129,-0.0811 -3.05882,-0.18017 z m 7.46015,0.0128 c -0.10446,-0.10613 -0.18992,-2.9698 -0.18992,-6.3637 v -6.17072 h 2.80138 c 3.15991,0 4.18081,0.30592 5.22388,1.56544 1.38287,1.66981 1.19505,4.1165 -0.43958,5.72627 -0.51484,0.50701 -0.93577,1.1108 -0.9354,1.34176 2.6e-4,0.23096 0.4193,1.12528 0.93094,1.9874 0.51165,0.86211 0.93026,1.69034 0.93026,1.84051 0,0.15024 -0.44855,0.2353 -0.99744,0.18915 -0.95977,-0.0807 -1.06272,-0.19351 -2.72633,-2.98753 -2.40201,-4.03415 -2.99895,-3.93851 -2.90089,0.46483 l 0.0543,2.43883 -0.78064,0.0804 c -0.42935,0.0442 -0.86611,-0.006 -0.97057,-0.1126 z m 5.50298,-6.62616 c 1.34027,-0.62046 1.34275,-2.81714 0.004,-3.43696 -0.77668,-0.35956 -2.74383,-0.40417 -3.2566,-0.0738 -0.4808,0.30972 -0.68685,2.16508 -0.34151,3.07513 0.25532,0.67284 0.40734,0.7432 1.606,0.7432 0.7282,0 1.6229,-0.13839 1.98823,-0.30751 z m -127.66022976,6.17911 c -0.0714995,-0.18932 -0.0976663,-3.01682 -0.0581482,-6.28334 l 0.0718513,-5.93911 H 2.9245302 6.116337 l 0.083348,0.8783 0.083349,0.87832 H 4.3038701 c -2.3593675,0 -2.6408572,0.23114 -2.5251892,2.07344 l 0.081913,1.30469 2.0613753,0.079 2.0613752,0.079 v 1.05827 1.05826 l -2.0613752,0.079 -2.0613753,0.0789 -0.076478,2.49982 -0.076478,2.49982 H 0.77832964 c -0.51112066,0 -0.98780991,-0.15489 -1.0593094,-0.3442 z m 4.13645336,0.21442 c 0,-0.14554 2.0315659,-3.10149 4.6471299,-6.76161 0.9559634,-1.33774 2.2830535,-3.19976 2.9490895,-4.13781 1.034003,-1.45632 1.315697,-1.69328 1.927568,-1.62152 l 0.716592,0.0841 0.0714,6.28332 0.0714,6.28332 h -0.919789 c -0.87087,0 -0.924182,-0.0539 -1.002343,-1.01343 l -0.08256,-1.01344 -2.2981341,-0.0776 -2.2981329,-0.0776 -0.9191883,1.09109 c -0.7625558,0.90518 -1.0848074,1.0911 -1.8911129,1.0911 -0.5345584,0 -0.9719242,-0.0584 -0.9719242,-0.12978 z m 7.8292094,-3.91729 c 0.626292,-0.24194 0.682275,-0.39479 0.682275,-1.86284 0,-2.41474 -0.651272,-2.37561 -2.350338,0.14124 -0.7365802,1.0911 -0.7294587,1.64718 0.02298,1.79443 0.329155,0.0644 0.680442,0.13369 0.780637,0.15393 0.100197,0.0202 0.489197,-0.0818 0.864448,-0.22676 z m 3.874082,-2.31863 v -6.3657 l 1.209991,0.0823 1.209992,0.0823 1.773249,4.01706 c 0.975287,2.2094 1.936231,4.08062 2.135432,4.15828 0.59026,0.23014 0.981449,-0.40883 2.738146,-4.4725 l 1.670457,-3.86418 1.081478,0.0807 1.081474,0.0807 v 6.21577 6.21576 l -0.855284,0.084 -0.855285,0.084 -0.07566,-2.91842 c -0.06546,-2.52539 -0.138171,-2.93058 -0.539825,-3.00874 -0.359554,-0.07 -0.773117,0.58407 -1.834984,2.90199 L 22.927132,270.799 H 21.945236 20.96334 l -1.14576,-2.72633 c -1.695584,-4.03465 -2.386018,-3.96929 -2.392854,0.22652 l -0.0041,2.49981 h -0.930943 -0.930944 z m 14.357811,6.2477 c -0.0029,-0.0838 -0.0077,-2.91894 -0.01064,-6.30045 l -0.0053,-6.1482 h 0.875087 0.875087 v 6.21576 6.21576 l -0.864448,0.0847 c -0.475446,0.0466 -0.866841,0.0161 -0.869767,-0.0675 z m 3.191807,-0.007 c -0.0029,-0.0797 -0.0084,-2.9116 -0.0122,-6.29311 l -0.0068,-6.1482 0.943147,-0.0839 0.943147,-0.0839 v 5.11799 c 0,3.81904 0.08609,5.19059 0.339234,5.40404 0.186579,0.15733 0.934659,0.32423 1.662398,0.3709 1.274305,0.0817 1.323166,0.11479 1.323166,0.8956 v 0.81076 l -2.593342,0.0773 c -1.426339,0.0426 -2.595737,0.0121 -2.598663,-0.0675 z m 7.120134,-2.37447 c -0.137416,-2.46715 -0.16396,-2.54786 -2.03112,-6.17545 -1.04054,-2.0216 -1.891888,-3.76192 -1.891888,-3.86739 0,-0.10546 0.448848,-0.15401 0.99744,-0.10788 0.953633,0.0802 1.048341,0.18102 2.156438,2.29567 0.637449,1.21648 1.324791,2.27643 1.527429,2.35544 0.478121,0.18642 0.714179,-0.10484 2.05889,-2.54036 1.051206,-1.90391 1.179221,-2.03196 2.110151,-2.11075 0.545082,-0.0462 0.991057,-0.007 0.991057,0.0866 0,0.0938 -0.862434,1.77327 -1.916521,3.73225 l -1.916517,3.56179 -0.103284,2.63494 -0.103285,2.63494 h -0.869778 -0.869775 z m 23.695516,1.81814 c -1.963283,-1.03883 -3.168147,-3.10493 -3.19752,-5.4831 -0.05628,-4.55655 3.905367,-7.50982 8.380339,-6.24727 1.129865,0.31879 2.943054,1.84825 3.508732,2.9597 0.202297,0.39747 0.505335,1.2776 0.67342,1.95583 0.610657,2.46403 -1.005778,5.67894 -3.507279,6.97558 -1.491898,0.77332 -4.23465,0.69805 -5.857692,-0.16074 z m 5.712704,-2.09909 c 2.573391,-1.9943 2.152427,-6.06207 -0.776433,-7.50265 -3.005073,-1.47807 -6.222388,0.66052 -6.222388,4.13609 0,1.41719 0.754008,2.71202 2.134202,3.66499 1.280861,0.88439 3.515227,0.74732 4.864619,-0.29843 z m 4.970454,-3.435 v -6.21577 h 1.265578 1.265578 l 1.737599,4.25645 c 2.265497,5.54959 2.320561,5.56397 4.180084,1.09221 0.759721,-1.82698 1.56499,-3.77783 1.789483,-4.33521 0.386198,-0.95888 0.472428,-1.01345 1.601532,-1.01345 h 1.193358 v 6.21577 6.21576 h -0.930944 -0.930943 v -2.95681 c 0,-4.40352 -0.604138,-4.37055 -2.424165,0.13228 l -1.141663,2.82453 h -1.096984 -1.096985 l -1.14601,-2.84438 c -0.630302,-1.56441 -1.267592,-2.92073 -1.416194,-3.01405 -0.622017,-0.39059 -0.987436,0.84644 -0.987436,3.3427 v 2.51573 h -0.930944 -0.930944 z m 14.216327,5.87126 c -0.07156,-0.18947 -0.09773,-2.95616 -0.05815,-6.1482 l 0.07196,-5.8037 2.588049,-0.0773 c 1.958434,-0.0585 2.786323,0.0269 3.403057,0.35092 2.498334,1.31267 2.46095,5.4555 -0.0612,6.78214 -0.481915,0.25348 -1.534519,0.53302 -2.339121,0.62119 l -1.462911,0.1603 -0.07726,2.22956 -0.07725,2.22957 h -0.928537 c -0.510694,0 -0.987081,-0.15502 -1.058642,-0.3445 z m 5.215362,-6.91016 c 0.680406,-0.55978 0.820818,-1.91203 0.268724,-2.58794 -0.463278,-0.56716 -2.049015,-0.82858 -2.83079,-0.46667 -0.565331,0.26172 -0.644604,0.47638 -0.644604,1.74554 0,0.79592 0.07979,1.52821 0.177323,1.6273 0.380589,0.3867 2.434841,0.1709 3.029347,-0.31823 z m 14.88025,2.14882 c 0,-5.45734 0.006,-5.43394 -1.35168,-5.43394 -0.40578,0 -0.51022,-0.19361 -0.51022,-0.94587 v -0.94588 h 3.05882 3.05882 v 0.94588 c 0,0.82024 -0.0854,0.94587 -0.64321,0.94587 -1.50997,0 -1.48467,-0.0926 -1.48467,5.43394 v 5.10584 h -1.06393 -1.06393 z"
       style="fill:#fd1610;stroke-width:0.26810879" />
  </g>
</svg>
