<?xml version="1.0" encoding="UTF-8" standalone="no"?>
<svg
   xmlns:dc="http://purl.org/dc/elements/1.1/"
   xmlns:cc="http://creativecommons.org/ns#"
   xmlns:rdf="http://www.w3.org/1999/02/22-rdf-syntax-ns#"
   xmlns:svg="http://www.w3.org/2000/svg"
   xmlns="http://www.w3.org/2000/svg"
   xmlns:sodipodi="http://sodipodi.sourceforge.net/DTD/sodipodi-0.dtd"
   xmlns:inkscape="http://www.inkscape.org/namespaces/inkscape"
   width="291.89813"
   height="195.95514"
   version="1.1"
   id="svg10"
   sodipodi:docname="finalfight.svg"
   inkscape:version="0.92.5 (2060ec1f9f, 2020-04-08)">
  <metadata
     id="metadata16">
    <rdf:RDF>
      <cc:Work
         rdf:about="">
        <dc:format>image/svg+xml</dc:format>
        <dc:type
           rdf:resource="http://purl.org/dc/dcmitype/StillImage" />
        <dc:title />
      </cc:Work>
    </rdf:RDF>
  </metadata>
  <defs
     id="defs14" />
  <sodipodi:namedview
     pagecolor="#ffffff"
     bordercolor="#666666"
     borderopacity="1"
     objecttolerance="10"
     gridtolerance="10"
     guidetolerance="10"
     inkscape:pageopacity="0"
     inkscape:pageshadow="2"
     inkscape:window-width="1366"
     inkscape:window-height="743"
     id="namedview12"
     showgrid="false"
     units="px"
     inkscape:pagecheckerboard="true"
     inkscape:zoom="1.2254914"
     inkscape:cx="367.10391"
     inkscape:cy="94.133435"
     inkscape:window-x="0"
     inkscape:window-y="0"
     inkscape:window-maximized="1"
     inkscape:current-layer="svg10" />
  <path
     inkscape:connector-curvature="0"
     id="path909"
     d="m 72.474526,194.48709 c 0,-0.0804 -2.256941,-7.36001 -5.015444,-16.17705 -3.951119,-12.62908 -4.915476,-16.15145 -4.544367,-16.59862 0.259102,-0.3122 3.135502,-2.90487 6.391997,-5.76149 l 5.920901,-5.19386 1.615864,-4.92668 c 0.888724,-2.70967 2.726155,-8.4584 4.083162,-12.77495 1.357009,-4.31653 2.908249,-9.20722 3.447189,-10.8682 0.53895,-1.66096 0.97991,-3.24959 0.97991,-3.53029 0,-0.67034 -1.06245,-1.07144 -5.433413,-2.05125 -12.117268,-2.71626 -18.108016,-4.14722 -18.663185,-4.45791 -0.784579,-0.43908 -0.524271,-0.48236 10.814915,-1.79862 4.75927,-0.55246 10.510843,-1.2217 12.781263,-1.4872 2.27043,-0.26549 4.28917,-0.68093 4.48609,-0.92321 0.55302,-0.68036 4.86879,-13.977328 4.86879,-15.000839 0,-1.242724 -0.45408,-1.447718 -12.735359,-5.749547 -4.635895,-1.623847 -5.107281,-1.917222 -4.768089,-2.967507 0.776271,-2.403651 0.56018,-2.753043 -2.185266,-3.533147 -1.420927,-0.403746 -2.75408,-0.904656 -2.962556,-1.113141 -0.33929,-0.339289 3.078026,-3.144286 6.652875,-5.460814 1.074473,-0.696268 1.106802,-0.694255 1.106802,0.06902 0,1.152997 3.979183,10.288313 4.738033,10.87749 1.4194,1.102002 2.3577,0.344213 4.92532,-3.977733 1.56077,-2.627154 2.85906,-4.109654 2.28195,-2.6057 -0.27066,0.705298 1.40463,2.659298 2.27998,2.659298 0.23298,0 3.27398,-1.450206 6.757792,-3.22267 3.83057,-1.948892 6.43574,-3.058367 6.5911,-2.806975 0.14131,0.228628 0.34526,1.452439 0.45324,2.71957 0.27724,3.25347 0.46674,3.997595 1.07775,4.232062 0.29501,0.113202 3.40006,-0.04344 6.90012,-0.348108 3.50007,-0.304665 6.52031,-0.457177 6.71166,-0.33892 0.19135,0.118258 0.3479,0.465732 0.3479,0.772156 0,0.706872 1.55239,1.810209 2.54694,1.810209 0.41685,0 1.29601,-0.452781 1.9537,-1.006182 1.67239,-1.407237 2.34144,-1.305457 2.34144,0.35618 0,1.003896 0.26104,1.533417 0.99204,2.012381 0.54561,0.357498 1.15202,0.650003 1.34758,0.650003 0.4827,0 26.33575,-12.457322 26.82976,-12.927952 0.25387,-0.241851 0.21835,-0.652535 -0.10062,-1.163266 -0.27116,-0.434194 -0.49301,-0.973018 -0.49301,-1.197381 0,-0.512368 31.64918,-0.567874 31.9655,-0.0561 0.18918,0.306116 -3.5648,4.293723 -19.5217,20.736559 -2.07277,2.135889 -3.66043,3.466132 -3.93462,3.296667 -0.29755,-0.183892 -0.46185,-1.80176 -0.46584,-4.586957 -0.004,-2.366565 -0.16994,-4.561644 -0.37012,-4.877941 -0.31403,-0.496233 -1.12724,-0.477461 -5.93034,0.13688 -3.06152,0.391577 -6.74363,0.856694 -8.18249,1.033597 -6.69081,0.822588 -13.36309,1.661592 -16.30025,2.049661 -1.77089,0.233983 -4.57815,0.602032 -6.23837,0.817894 -1.6602,0.215861 -4.28635,0.560681 -5.83588,0.766273 -1.54953,0.205583 -4.62846,0.576217 -6.84208,0.823635 -2.21361,0.247409 -4.29643,0.587964 -4.62846,0.756777 -0.7683,0.390619 -3.81058,13.683118 -3.25813,14.235568 0.34412,0.34412 12.66137,-0.2861 14.72867,-0.7536 1.40352,-0.31739 1.92907,0.34678 1.49025,1.8833 -1.10493,3.86886 -5.44532,17.55161 -5.74881,18.12268 -0.32037,0.60284 -0.70853,0.57471 -4.48568,-0.32511 -5.00551,-1.19246 -7.27806,-1.68505 -9.25191,-2.00544 -1.85042,-0.30035 -1.78368,-0.44139 -3.74278,7.90897 -1.534892,6.54223 -2.836392,11.96754 -6.225642,25.95165 l -2.04651,8.44398 -9.74669,14.77721 c -5.360673,8.12744 -9.973076,14.78698 -10.249772,14.79895 -0.276696,0.012 -0.5031,-0.044 -0.5031,-0.12431 z m 59.035444,-13.78835 -5.56183,-6.26856 0.27857,-2.6771 c 0.15321,-1.47241 0.36763,-2.82929 0.47648,-3.01529 0.23071,-0.39424 5.43176,-4.27082 20.33573,-15.15711 5.9096,-4.31656 10.74824,-8.12561 10.75253,-8.46458 0.004,-0.33897 -1.05706,-1.67008 -2.35859,-2.95803 -2.19418,-2.17128 -2.43585,-2.30549 -3.32041,-1.84391 -0.98041,0.51158 -12.47821,7.00938 -28.62411,16.17647 -5.03593,2.85923 -9.4614,5.13983 -9.83438,5.06801 -0.37298,-0.0718 -1.14275,-0.88857 -1.7106,-1.81496 -3.55351,-5.79726 -3.39836,-5.4602 -2.72786,-5.92668 0.34593,-0.24066 1.14058,-0.72121 1.76591,-1.06788 0.97807,-0.54226 1.861,-2.39805 6.31901,-13.28169 2.85014,-6.95824 5.39193,-12.87748 5.64843,-13.15386 0.2565,-0.27638 3.26743,-1.04277 6.69095,-1.7031 3.42351,-0.66031 6.63208,-1.29793 7.13014,-1.41691 0.60094,-0.14356 0.90557,-0.0324 0.90557,0.33053 0,0.5018 -3.10466,5.85698 -9.37525,16.17119 -3.75395,6.17473 -4.7783,8.16187 -4.34528,8.4295 0.35434,0.21899 2.65398,-0.55003 12.71434,-4.25181 1.77089,-0.65161 5.66484,-2.06019 8.65322,-3.13019 3.9222,-1.40435 5.43342,-2.12575 5.43342,-2.59372 0,-0.35655 -1.23252,-2.00914 -2.73894,-3.6724 -1.87345,-2.06853 -2.63653,-3.19634 -2.41486,-3.5691 0.63896,-1.0744 17.94726,-19.54498 18.52165,-19.76539 0.3228,-0.12387 2.36251,0.72348 4.53272,1.88299 l 3.94581,2.10821 2.45443,-1.1731 c 1.34993,-0.64521 2.57808,-1.04945 2.72922,-0.89831 0.29107,0.29107 -0.58082,2.89733 -4.85805,14.52182 -2.71307,7.37346 -2.95995,8.28799 -2.23733,8.28799 0.51755,0 14.4325,-8.70694 15.35057,-9.60524 0.36979,-0.36184 2.05898,-3.82737 3.75376,-7.70119 1.69476,-3.87383 3.32433,-7.58666 3.62126,-8.25074 0.29693,-0.66408 0.93188,-2.113 1.411,-3.21981 4.2204,-9.749336 13.04814,-30.04137 13.50844,-31.051412 0.76316,-1.674579 0.73025,-2.285429 -0.20611,-3.825142 -0.43125,-0.709132 -0.69223,-1.437967 -0.57996,-1.619626 0.11227,-0.18166 3.4535,-0.330295 7.42493,-0.330295 5.9445,0 7.22081,0.100286 7.22081,0.567355 0,0.312041 -1.29866,3.074026 -2.88592,6.137748 -1.58725,3.063713 -4.67305,9.011554 -6.85732,13.217423 -6.66586,12.835239 -6.95546,13.447929 -6.54208,13.841609 0.37316,0.35538 1.7137,-0.007 12.03634,-3.25313 l 4.00176,-1.258439 1.33103,1.539779 c 0.73208,0.84689 1.33104,1.76266 1.33104,2.03505 0,0.2724 -1.42517,3.54755 -3.16705,7.27812 -7.44097,15.93628 -8.50473,18.26942 -8.50473,18.65351 0,0.22265 0.32444,0.40483 0.72099,0.40483 0.88391,0 14.59433,-5.91522 15.23241,-6.57187 0.25197,-0.2593 1.46216,-3.36927 2.68933,-6.91105 1.22717,-3.54178 3.42884,-9.87008 4.8926,-14.06289 1.46376,-4.192798 2.60805,-7.996187 2.54285,-8.451975 -0.0865,-0.60474 -0.55361,-0.923429 -1.72843,-1.179225 -0.88545,-0.192791 -2.60603,-0.628093 -3.82351,-0.967338 -1.97013,-0.548952 -2.10294,-0.649862 -1.20743,-0.917388 0.5534,-0.165332 2.00231,-0.32297 3.2198,-0.350314 2.43089,-0.0546 5.14594,-0.585291 5.65851,-1.106038 0.18035,-0.183233 1.18096,-3.049847 2.22355,-6.370271 3.01471,-9.601074 2.87535,-8.725186 1.64493,-10.338341 -0.58913,-0.772402 -0.95129,-1.524247 -0.80477,-1.670763 0.42663,-0.426624 15.75231,-0.313237 16.01915,0.11853 0.13084,0.211703 -1.30738,3.95584 -3.19605,8.320306 -1.88867,4.364475 -3.43394,8.175769 -3.43394,8.469539 0,0.663544 3.10905,0.691556 12.64399,0.113914 3.97787,-0.240981 6.957,-0.263533 7.1663,-0.05425 0.44873,0.448727 -5.72425,11.341296 -6.42728,11.341296 -0.27758,0 -3.99093,-0.822113 -8.25189,-1.826915 -4.26097,-1.004802 -8.28538,-1.774539 -8.94313,-1.710522 -1.15414,0.112323 -1.32688,0.424663 -4.94345,8.937595 -2.2347,5.26021 -3.60056,8.96817 -3.38347,9.18526 0.21709,0.21709 4.6498,0.027 10.98058,-0.47084 5.83908,-0.45919 11.42655,-0.83444 12.41659,-0.83389 1.63698,8e-4 1.72814,0.0504 1.00618,0.54648 -0.43663,0.30001 -9.46984,4.94355 -20.07379,10.31894 l -19.2799,9.77347 0.237,-1.36388 c 0.13035,-0.75013 0.36188,-1.9525 0.5145,-2.67192 0.21893,-1.03196 0.14599,-1.30804 -0.34557,-1.30804 -0.34269,0 -5.99089,2.80726 -12.55155,6.23836 -6.56066,3.4311 -12.2085,6.23837 -12.55074,6.23837 -0.34225,0 -0.52961,-0.22639 -0.41636,-0.5031 0.30205,-0.73802 11.15097,-24.38248 13.3162,-29.02173 1.01848,-2.18221 1.75195,-4.12918 1.62993,-4.32661 -0.35079,-0.56758 -1.01468,-0.44703 -5.66359,1.02843 -2.40426,0.76306 -5.2353,1.60048 -6.2912,1.86095 -1.28051,0.31586 -2.163,0.82555 -2.65007,1.53056 -1.28297,1.85706 -14.95016,29.01608 -14.95016,29.70853 0,0.36617 0.2855,0.98124 0.63444,1.36682 0.58831,0.65006 0.50781,0.77307 -1.1068,1.69144 -3.6637,2.08384 -8.75471,4.47575 -9.00136,4.2291 -0.1417,-0.14169 1.09728,-3.30529 2.75328,-7.0302 1.77211,-3.98608 2.8653,-6.92784 2.65701,-7.14997 -0.21429,-0.22852 -3.38839,1.65547 -8.04585,4.77558 -5.96644,3.99705 -7.81122,5.43846 -8.22363,6.42554 -0.50651,1.21223 -1.63109,4.28536 -10.25183,28.01514 -2.05066,5.64472 -3.93174,10.46762 -4.18016,10.71756 -0.39116,0.39353 -13.52835,3.78774 -14.56131,3.76215 -0.20871,-0.005 -2.88231,-2.83027 -5.94131,-6.27798 z m 9.74031,-3.91322 c 2.12907,-0.96175 4.52357,-1.96312 5.32112,-2.2253 0.79756,-0.26216 1.808,-0.87891 2.24542,-1.37056 0.82842,-0.93108 7.37537,-18.07376 7.37358,-19.30713 -8.8e-4,-0.94843 -0.52114,-0.88645 -1.8819,0.22446 -0.62572,0.51083 -4.80919,3.61923 -9.29658,6.90757 -5.18932,3.80269 -8.22128,6.28453 -8.33031,6.81885 -0.33784,1.6557 -0.67668,9.87444 -0.42396,10.28336 0.40477,0.65494 0.87077,0.53068 4.99263,-1.33125 z m 25.13472,-44.5642 c 1.75147,-4.30105 3.20763,-8.44077 3.2359,-9.19936 0.048,-1.28717 -0.10987,-1.46781 -2.36347,-2.70494 -1.32815,-0.7291 -2.69487,-1.33096 -3.03711,-1.33743 -0.79263,-0.015 -11.65323,10.91537 -11.65323,11.72808 0,0.77599 9.56097,9.69122 10.17401,9.48687 0.25267,-0.0842 1.89242,-3.67217 3.6439,-7.97322 z m -30.52488,-16.17145 c -1.45956,-2.04743 -4.62421,-7.34195 -4.62421,-7.73637 0,-0.35118 6.41378,-3.33624 12.98413,-6.04298 l 1.51358,-0.62354 1.20312,1.89714 c 0.66173,1.04342 1.20313,2.20438 1.20313,2.5799 0,0.37552 -2.10411,2.5587 -4.6758,4.85152 -2.57168,2.29281 -5.11661,4.57626 -5.65538,5.07433 -0.53879,0.49805 -1.05237,0.90556 -1.14131,0.90556 -0.089,0 -0.45221,-0.40751 -0.80726,-0.90556 z M 26.592356,92.569338 c 0,-0.130673 0.533486,-2.258762 1.185529,-4.729077 1.180904,-4.474028 3.462376,-13.220167 4.846191,-18.578128 0.400203,-1.549532 1.393557,-5.333044 2.207459,-8.407806 1.218992,-4.605075 1.385907,-5.676075 0.946939,-6.076125 -0.293103,-0.26711 -1.800697,-0.809467 -3.350222,-1.205241 -4.326439,-1.105035 -11.956323,-3.302101 -13.080446,-3.766579 -0.735465,-0.303885 1.509114,-0.422614 8.342085,-0.441262 9.241967,-0.02522 9.354835,-0.03581 9.925557,-0.93108 1.037272,-1.627161 3.522042,-11.921871 3.077824,-12.75189 -0.218244,-0.407796 -2.348268,-1.566551 -4.733385,-2.575011 -11.476128,-4.85226 -18.221983,-7.864297 -18.221983,-8.136161 0,-0.100295 17.875941,-0.182355 39.724306,-0.182355 27.508568,0 39.595548,0.128754 39.305608,0.418692 -0.23029,0.23028 -8.19024,4.321722 -17.688791,9.092093 -9.498538,4.770371 -17.442144,8.838135 -17.65244,9.039474 -0.494958,0.473885 -1.428788,0.472871 -1.428788,-0.0016 0,-0.202193 1.097957,-1.848435 2.439903,-3.658317 4.455177,-6.008701 4.33633,-6.441685 -1.499206,-5.46193 -5.371967,0.901927 -5.261526,0.849956 -6.327619,2.977405 -1.678386,3.349309 -4.344464,10.467861 -4.200717,11.216097 0.127648,0.664415 0.761385,0.737352 7.278576,0.837688 3.926316,0.06047 7.138769,0.270513 7.138769,0.466784 0,0.196272 -1.210992,2.74329 -2.691092,5.660039 -3.100843,6.110679 -1.970328,5.673691 -9.510987,3.67634 -6.484537,-1.717609 -6.368786,-1.733664 -7.601785,1.0544 -0.562888,1.272828 -1.158984,2.767017 -1.324642,3.320421 -0.165657,0.553403 -0.43939,1.187301 -0.608292,1.408663 -0.518961,0.680146 -5.229038,12.244555 -5.229038,12.838577 0,0.866102 1.075757,1.082729 3.926448,0.790663 1.762933,-0.180621 2.570381,-0.130461 2.466438,0.153208 -0.138604,0.378274 -4.763992,4.319194 -8.151265,6.94502 -0.71387,0.553409 -2.96056,2.409823 -4.992646,4.125375 -3.338527,2.818493 -4.518288,3.570901 -4.518288,2.881596 z M 132.055,82.04072 c 0.008,-0.387383 0.26537,-1.876381 0.57241,-3.308879 0.81345,-3.795028 0.41037,-4.072718 -2.53119,-1.743757 -1.03339,0.818165 -2.4754,2.038591 -3.20447,2.712052 -1.57943,1.458937 -2.07944,1.052844 -2.08928,-1.696797 -0.004,-1.242653 -0.19584,-1.795939 -0.68636,-1.984167 -0.37735,-0.14481 -0.74987,-0.05196 -0.83669,0.208476 -0.0861,0.258232 -0.46819,0.854417 -0.84913,1.324862 -0.61225,0.756092 -1.33734,0.901289 -6.24865,1.25127 -3.34587,0.238423 -5.70201,0.249941 -5.92302,0.02893 -0.20184,-0.201838 -0.44343,-1.580773 -0.53685,-3.064276 -0.20849,-3.310339 -0.49962,-4.292702 -1.27216,-4.292702 -0.32777,0 -3.56748,1.487239 -7.19934,3.304975 -3.631892,1.817737 -6.704342,3.204048 -6.827712,3.080682 -0.12336,-0.123357 0.6629,-2.108658 1.74722,-4.411777 4.974182,-10.565124 5.324622,-11.412531 5.096092,-12.323055 -0.33934,-1.35205 -1.961212,-1.217786 -3.005512,0.24881 -0.4578,0.642914 -0.83237,1.284151 -0.83237,1.42496 0,0.140814 -0.34335,0.746753 -0.76301,1.346533 -1.18999,1.700727 -5.2666,8.09045 -7.48773,11.736324 -2.41425,3.962874 -3.78154,5.727873 -4.22494,5.453841 -0.49159,-0.30382 -2.81838,-5.422356 -2.81838,-6.199954 0,-0.371531 1.17725,-2.605234 2.61609,-4.963781 1.43885,-2.358541 2.6161,-4.388706 2.6161,-4.51147 0,-0.948347 -1.62376,0.05941 -18.420465,11.432329 -3.379737,2.288392 -6.241164,4.064514 -6.358745,3.946934 -0.117589,-0.117581 0.07658,-1.457601 0.431319,-2.977812 0.354817,-1.520211 1.016698,-4.575158 1.470868,-6.788771 0.454171,-2.213613 1.005567,-4.839766 1.225359,-5.835892 1.024848,-4.64493 1.029394,-4.756057 0.264835,-6.463771 -0.410551,-0.916979 -0.658751,-1.809129 -0.551563,-1.982555 0.205891,-0.333138 1.301852,-0.590095 5.235659,-1.22753 1.328176,-0.215216 3.737762,-0.682601 5.354628,-1.038632 1.616865,-0.356032 3.046831,-0.540264 3.177688,-0.409407 0.130857,0.130857 -1.502986,3.725174 -3.630742,7.987375 -2.193478,4.393837 -3.717057,7.901066 -3.518542,8.099571 0.369719,0.369729 3.313759,-1.664362 7.444717,-5.143682 1.34286,-1.131031 4.252694,-3.488763 6.466324,-5.239401 2.21361,-1.750635 4.81205,-3.828622 5.77431,-4.617744 2.86443,-2.349033 4.19631,-3.22544 4.56005,-3.00063 0.18888,0.116734 0.60311,0.833757 0.92049,1.593385 0.3317,0.793845 0.86377,1.381142 1.25126,1.381142 0.3708,0 2.121592,-0.724455 3.890662,-1.609901 3.61066,-1.807195 3.81324,-1.845304 5.40488,-1.016773 0.62668,0.32622 1.81861,0.890198 2.64871,1.253284 0.8301,0.363086 1.50773,0.865912 1.50585,1.117392 -0.002,0.251479 -1.44926,2.902272 -3.21636,5.89065 -1.76712,2.988379 -3.2145,5.659808 -3.21638,5.936509 -0.004,0.717645 1.94389,0.606067 3.69909,-0.211791 0.81889,-0.381578 4.04764,-3.122466 7.17498,-6.090861 l 5.68608,-5.397082 4.21198,-0.388228 c 2.31659,-0.213526 4.30598,-0.294223 4.42087,-0.179329 0.1149,0.114895 -0.11287,3.756917 -0.50616,8.093382 -0.51064,5.630374 -0.5912,8.008357 -0.28177,8.317787 0.30943,0.309431 1.05336,-0.216186 2.60213,-1.838538 2.9382,-3.077775 3.41312,-3.930695 4.14097,-7.436898 0.34463,-1.66021 0.90756,-4.286361 1.25092,-5.835891 0.34338,-1.54953 0.81461,-3.904009 1.0472,-5.232177 0.42134,-2.406108 0.44219,-2.433795 5.76015,-7.647029 2.9355,-2.877697 9.01567,-8.763896 13.51149,-13.080443 9.37088,-8.997222 9.13634,-9.002688 5.8282,0.135823 -0.97462,2.692315 -2.88049,8.155166 -4.23526,12.13967 -3.99718,11.756097 -4.61895,13.18758 -6.30635,14.518893 -5.9985,4.732678 -12.3645,10.129082 -12.8836,10.921306 -0.86188,1.3154 -2.06864,5.990703 -1.70018,6.586905 0.36275,0.586918 5.00611,0.25774 9.57202,-0.678587 1.62245,-0.332712 3.16191,-0.524447 3.42103,-0.426078 0.25913,0.09838 -1.79278,1.260669 -4.5598,2.582875 -2.76702,1.322215 -7.16163,3.425387 -9.76582,4.673729 -2.60419,1.248342 -4.91338,2.269717 -5.13156,2.269717 -0.21817,0 -0.39031,-0.316956 -0.38254,-0.704339 z M 119.76536,71.678411 c 4.39867,-1.548769 4.38468,-1.530868 4.04316,-5.175453 -0.38279,-4.084845 -0.82867,-4.375207 -3.36428,-2.190861 -1.10465,0.951628 -2.74525,2.324495 -3.64576,3.050813 -2.0601,1.661592 -2.99241,4.342818 -1.81055,5.207004 0.40127,0.293419 0.9159,0.467948 1.14362,0.387849 0.22771,-0.0801 1.86292,-0.655815 3.63381,-1.279352 z m 28.67585,-20.02457 c 1.88588,-1.903869 2.68613,-3.081164 3.2914,-4.842132 0.80046,-2.328906 0.75843,-3.509228 -0.12494,-3.509228 -0.25895,0 -1.68755,1.22611 -3.17463,2.724688 -2.2974,2.315141 -2.79487,3.074291 -3.30963,5.050576 -0.7647,2.935861 -0.75915,3.091566 0.11015,3.091566 0.39377,0 1.83721,-1.131961 3.20765,-2.51547 z m -89.852073,24.23698 c -0.664079,-0.180288 -3.065726,-0.885208 -5.336999,-1.566485 -2.271256,-0.681277 -4.218232,-1.238688 -4.326598,-1.238688 -0.506994,0 -0.116666,-1.557886 0.538982,-2.15124 0.611677,-0.553568 1.695513,-0.666093 6.415851,-0.666093 3.123896,0 5.774438,0.153102 5.890093,0.340221 0.305324,0.494027 -1.095161,5.413661 -1.571427,5.520119 -0.221365,0.0495 -0.945822,-0.0575 -1.609902,-0.237834 z M 142.10274,71.55624 c 0,-0.977905 1.20133,-1.287925 4.99069,-1.287925 2.21362,0 3.85269,0.151897 3.64241,0.33754 -0.91556,0.808239 -8.6331,1.657838 -8.6331,0.950385 z M 70.712938,52.106686 c -0.290957,-0.975449 -1.114759,-7.269432 -0.970379,-7.413817 0.07658,-0.07657 2.895954,-1.503334 6.265299,-3.170588 3.897617,-1.928662 6.12607,-2.834447 6.12607,-2.490019 0,0.297744 -0.782415,1.708157 -1.738718,3.134251 -2.418783,3.60704 -2.459131,3.788432 -1.287336,5.787943 0.557525,0.95135 1.013682,1.895953 1.013682,2.099117 0,0.405642 -4.84023,1.904599 -7.53971,2.334951 -1.276416,0.203488 -1.745243,0.132787 -1.868908,-0.281838 z"
     style="fill:#fbe321;stroke:#ffffff;stroke-width:0.87923777;stroke-miterlimit:4;stroke-dasharray:none;stroke-opacity:1" />
  <path
     inkscape:connector-curvature="0"
     id="path907"
     d="m 72.474526,194.48709 c 0,-0.0804 -2.256941,-7.36001 -5.015444,-16.17705 -3.951119,-12.62908 -4.915476,-16.15145 -4.544367,-16.59862 0.259102,-0.3122 3.135502,-2.90487 6.391997,-5.76149 l 5.920901,-5.19386 1.615864,-4.92668 c 0.888724,-2.70967 2.726155,-8.4584 4.083162,-12.77495 1.357009,-4.31653 2.908249,-9.20722 3.447189,-10.8682 0.53895,-1.66096 0.97991,-3.24959 0.97991,-3.53029 0,-0.67034 -1.06245,-1.07144 -5.433413,-2.05125 -12.117268,-2.71626 -18.108016,-4.14722 -18.663185,-4.45791 -0.866963,-0.48519 -1.607264,-0.37877 17.053283,-2.45126 8.730255,-0.9696 10.965745,-1.33927 11.369915,-1.88012 0.27671,-0.37028 0.5031,-0.82966 0.5031,-1.02085 0,-0.19121 0.34348,-1.10744 0.76326,-2.03608 0.41979,-0.92864 1.08096,-2.41289 1.46927,-3.29833 0.50367,-1.14854 0.75475,-1.40806 0.87615,-0.90558 0.23359,0.96701 0.80591,0.98851 8.719112,0.32769 5.59124,-0.46693 6.01562,-0.26891 5.78056,2.69719 -0.10505,1.32552 0.009,2.26621 0.30464,2.51153 0.30872,0.25621 3.08789,0.17362 8.01492,-0.23818 4.14828,-0.34672 7.78309,-0.53801 8.07736,-0.42509 0.43992,0.16882 0.42683,0.58562 -0.0736,2.34486 -1.42598,5.01318 -5.06083,16.68091 -5.38578,17.28807 -0.32306,0.60365 -0.70932,0.57572 -4.48844,-0.32458 -5.0055,-1.19245 -7.27806,-1.68505 -9.2519,-2.00543 -1.85043,-0.30036 -1.78369,-0.4414 -3.74279,7.90896 -1.534882,6.54223 -2.836382,11.96755 -6.225632,25.95165 l -2.04652,8.44398 -9.74668,14.77721 c -5.36068,8.12745 -9.973082,14.78699 -10.249778,14.79896 -0.276696,0.0119 -0.5031,-0.044 -0.5031,-0.1243 z m 59.035444,-13.78835 -5.56183,-6.26856 0.27857,-2.6771 c 0.15321,-1.47241 0.36763,-2.82929 0.47648,-3.01529 0.23071,-0.39424 5.43176,-4.27082 20.33573,-15.15711 5.9096,-4.31656 10.74824,-8.12561 10.75253,-8.46458 0.004,-0.33897 -1.05706,-1.67008 -2.35859,-2.95803 -2.19418,-2.17128 -2.43585,-2.30549 -3.32041,-1.84391 -0.98041,0.51158 -12.47821,7.00938 -28.62411,16.17647 -5.03593,2.85923 -9.4614,5.13983 -9.83438,5.06801 -0.37298,-0.0718 -1.14275,-0.88857 -1.7106,-1.81496 -3.55351,-5.79726 -3.39836,-5.4602 -2.72786,-5.92668 0.34593,-0.24066 1.14058,-0.72121 1.76591,-1.06788 0.97807,-0.54226 1.861,-2.39805 6.31901,-13.28169 2.85014,-6.95824 5.39193,-12.87748 5.64843,-13.15386 0.2565,-0.27638 3.26743,-1.04277 6.69095,-1.7031 3.42351,-0.66031 6.63208,-1.29793 7.13014,-1.41691 0.60094,-0.14356 0.90557,-0.0324 0.90557,0.33053 0,0.5018 -3.10466,5.85698 -9.37525,16.17119 -3.75395,6.17473 -4.7783,8.16187 -4.34528,8.4295 0.35434,0.21899 2.65398,-0.55003 12.71434,-4.25181 1.77089,-0.65161 5.66484,-2.06019 8.65322,-3.13019 3.9222,-1.40435 5.43342,-2.12575 5.43342,-2.59372 0,-0.35655 -1.23252,-2.00914 -2.73894,-3.6724 -1.87345,-2.06853 -2.63653,-3.19634 -2.41486,-3.5691 0.63896,-1.0744 17.94726,-19.54498 18.52165,-19.76539 0.3228,-0.12387 2.36251,0.72348 4.53272,1.88299 l 3.94581,2.10821 2.45443,-1.1731 c 1.34993,-0.64521 2.57808,-1.04945 2.72922,-0.89831 0.29107,0.29107 -0.58082,2.89733 -4.85805,14.52182 -2.71307,7.37346 -2.95995,8.28799 -2.23733,8.28799 0.51755,0 14.4325,-8.70694 15.35057,-9.60524 0.36979,-0.36184 2.05898,-3.82737 3.75376,-7.70119 1.69476,-3.87383 3.31986,-7.58666 3.61132,-8.25074 2.2137,-5.04388 5.82747,-12.829048 6.7329,-14.504708 1.42209,-2.631823 3.04463,-4.210644 3.52631,-3.431287 0.28546,0.461872 0.55527,0.46931 1.58289,0.0437 0.68134,-0.282209 2.13464,-0.526629 3.22959,-0.543149 1.59404,-0.024 2.07104,-0.19527 2.39342,-0.859148 0.32617,-0.671658 0.4078,-0.699873 0.42987,-0.148538 0.0149,0.374318 -0.15388,0.79251 -0.37524,0.929319 -0.22136,0.13681 -0.40247,0.509026 -0.40247,0.827152 0,0.318126 -1.11667,2.939828 -2.48148,5.826005 -1.47655,3.122454 -2.33225,5.389344 -2.11299,5.597624 0.34901,0.33151 1.90507,-0.0922 12.01727,-3.2722 l 4.00176,-1.258449 1.33103,1.539789 c 0.73208,0.84688 1.33104,1.76265 1.33104,2.03505 0,0.27239 -1.42517,3.54755 -3.16705,7.27812 -7.44097,15.93627 -8.50473,18.26941 -8.50473,18.65351 0,0.22265 0.32444,0.40482 0.72099,0.40482 0.89485,0 14.60982,-5.92421 15.21434,-6.57187 0.24203,-0.25929 0.81947,-1.55813 1.28321,-2.8863 0.46373,-1.32817 2.77857,-7.92476 5.14409,-14.6591 4.87003,-13.864369 4.82682,-12.81382 0.56425,-13.718398 -1.33332,-0.282956 -2.51008,-0.653388 -2.61503,-0.823195 -0.10494,-0.169807 1.39456,-0.425498 3.33221,-0.568216 3.90628,-0.287704 5.33415,-0.712332 5.33415,-1.586303 0,-0.917916 2.0264,-2.338377 2.62599,-1.840764 0.35392,0.293727 0.56251,0.251383 0.71466,-0.145092 0.146,-0.380437 0.73996,-0.522487 1.8532,-0.443197 0.9011,0.06418 1.74183,-0.05073 1.86829,-0.255322 0.12645,-0.204616 0.61247,-0.372032 1.08004,-0.372032 0.46758,0 1.16993,-0.28941 1.56079,-0.643136 1.00482,-0.909343 1.69721,-0.319242 1.44548,1.231944 -0.39442,2.430504 -0.49875,2.410325 9.64321,1.865787 5.05601,-0.271465 9.50951,-0.555564 9.89667,-0.631346 0.38717,-0.07579 0.7877,-0.0026 0.89009,0.163415 0.10237,0.165658 -0.86901,2.186181 -2.15863,4.490065 -3.6419,6.506158 -3.83031,6.7997 -4.36615,6.802408 -0.27695,8.79e-4 -3.98978,-0.819564 -8.25074,-1.824365 -4.26097,-1.004802 -8.28538,-1.77454 -8.94313,-1.710522 -1.15414,0.112322 -1.32688,0.424663 -4.94345,8.937589 -2.2347,5.26021 -3.60056,8.96817 -3.38347,9.18526 0.21709,0.21709 4.6498,0.027 10.98058,-0.47084 5.83908,-0.45919 11.42655,-0.83445 12.41659,-0.83389 1.63698,8e-4 1.72814,0.0504 1.00618,0.54648 -0.43663,0.30001 -9.46984,4.94355 -20.07379,10.31894 l -19.2799,9.77347 0.237,-1.36388 c 0.13035,-0.75013 0.36188,-1.9525 0.5145,-2.67192 0.21893,-1.03196 0.14599,-1.30804 -0.34557,-1.30804 -0.34269,0 -5.99089,2.80726 -12.55155,6.23836 -6.56066,3.4311 -12.2085,6.23837 -12.55074,6.23837 -0.34225,0 -0.52961,-0.22639 -0.41636,-0.50309 0.30205,-0.73803 11.15097,-24.38249 13.3162,-29.02174 1.01848,-2.18221 1.75195,-4.12917 1.62993,-4.32661 -0.35079,-0.56758 -1.01468,-0.44703 -5.66359,1.02843 -2.40426,0.76306 -5.2353,1.60048 -6.2912,1.86095 -1.28051,0.31587 -2.163,0.82555 -2.65007,1.53056 -1.28297,1.85706 -14.95016,29.01608 -14.95016,29.70854 0,0.36616 0.2855,0.98123 0.63444,1.36682 0.58831,0.65005 0.50781,0.77307 -1.1068,1.69143 -3.6637,2.08385 -8.75471,4.47575 -9.00136,4.2291 -0.1417,-0.14169 1.09728,-3.30529 2.75328,-7.03019 1.77211,-3.98609 2.8653,-6.92785 2.65701,-7.14997 -0.21429,-0.22853 -3.38839,1.65546 -8.04585,4.77558 -5.96644,3.99705 -7.81122,5.43845 -8.22363,6.42553 -0.50651,1.21223 -1.63109,4.28536 -10.25183,28.01514 -2.05066,5.64472 -3.93174,10.46762 -4.18016,10.71756 -0.39116,0.39354 -13.52835,3.78775 -14.56131,3.76215 -0.20871,-0.005 -2.88231,-2.83027 -5.94131,-6.27798 z m 9.74031,-3.91322 c 2.12907,-0.96175 4.52357,-1.96312 5.32112,-2.2253 0.79756,-0.26216 1.808,-0.87891 2.24542,-1.37056 0.82842,-0.93108 7.37537,-18.07376 7.37358,-19.30713 -8.8e-4,-0.94843 -0.52114,-0.88645 -1.8819,0.22446 -0.62572,0.51083 -4.80919,3.61923 -9.29658,6.90757 -5.18932,3.80269 -8.22128,6.28453 -8.33031,6.81885 -0.33784,1.6557 -0.67668,9.87444 -0.42396,10.28336 0.40477,0.65494 0.87077,0.53068 4.99263,-1.33125 z m 25.13472,-44.5642 c 1.75147,-4.30105 3.20763,-8.44077 3.2359,-9.19936 0.048,-1.28717 -0.10987,-1.46781 -2.36347,-2.70494 -1.32815,-0.7291 -2.69487,-1.33096 -3.03711,-1.33743 -0.79263,-0.015 -11.65323,10.91537 -11.65323,11.72808 0,0.77599 9.56097,9.69122 10.17401,9.48687 0.25267,-0.0842 1.89242,-3.67217 3.6439,-7.97322 z m -30.39343,-15.9797 c -1.0142,-1.2065 -3.88637,-6.29518 -4.02196,-7.12581 -0.11119,-0.68116 0.19011,-0.84521 2.08363,-1.13451 1.21748,-0.18601 2.57584,-0.34194 3.01856,-0.34652 0.44273,-0.004 2.07275,-0.18688 3.62228,-0.40512 5.24118,-0.73815 6.64084,-0.83331 6.64084,-0.45146 0,0.47339 -9.01651,9.12406 -10.30995,9.89162 -0.24711,0.14665 -0.71214,-0.046 -1.0334,-0.4282 z M 26.592356,92.569338 c 0,-0.130673 0.533486,-2.258762 1.185529,-4.729077 1.180904,-4.474028 3.462376,-13.220158 4.846191,-18.578128 0.400203,-1.549533 1.393557,-5.333043 2.207459,-8.407808 1.218992,-4.605069 1.385907,-5.676071 0.946939,-6.076121 -0.293103,-0.26711 -1.800697,-0.809468 -3.350222,-1.205241 -4.326439,-1.105036 -11.956323,-3.302101 -13.080446,-3.766579 -0.735465,-0.303886 1.509114,-0.422614 8.342085,-0.441262 9.241967,-0.02522 9.354835,-0.03581 9.925557,-0.93108 1.037272,-1.627161 3.522042,-11.921871 3.077824,-12.75189 -0.218244,-0.407796 -2.348268,-1.566551 -4.733385,-2.575011 -11.476128,-4.85226 -18.221983,-7.864298 -18.221983,-8.136161 0,-0.100295 17.875941,-0.182354 39.724306,-0.182354 27.508568,0 39.595548,0.128753 39.305608,0.418691 -0.23029,0.23028 -8.19024,4.321722 -17.688791,9.092093 -9.498538,4.770371 -17.442144,8.838135 -17.65244,9.039474 -0.494958,0.473885 -1.428788,0.472871 -1.428788,-0.0016 0,-0.202193 1.097957,-1.848435 2.439903,-3.658317 4.455177,-6.008701 4.33633,-6.441685 -1.499206,-5.46193 -5.371967,0.901927 -5.261526,0.849956 -6.327619,2.977404 -1.678386,3.34931 -4.344464,10.467862 -4.200717,11.216097 0.127648,0.664416 0.761385,0.737353 7.278576,0.837689 3.926316,0.06047 7.138769,0.270512 7.138769,0.466784 0,0.196272 -1.210992,2.743289 -2.691092,5.660038 -3.100843,6.110683 -1.970328,5.673693 -9.510987,3.676337 -6.484537,-1.717608 -6.368786,-1.733663 -7.601785,1.054408 -0.562888,1.27282 -1.158984,2.767015 -1.324642,3.320416 -0.165657,0.553401 -0.43939,1.187305 -0.608292,1.408662 -0.518961,0.680152 -5.229038,12.244564 -5.229038,12.838577 0,0.866102 1.075757,1.082729 3.926448,0.790663 1.762933,-0.180621 2.570381,-0.130461 2.466438,0.153208 -0.138604,0.378274 -4.763992,4.319194 -8.151265,6.945028 -0.71387,0.553401 -2.96056,2.409815 -4.992646,4.125367 -3.338527,2.818493 -4.518288,3.570901 -4.518288,2.881596 z M 132.055,82.04072 c 0.008,-0.387383 0.26537,-1.876381 0.57241,-3.308879 0.81345,-3.795028 0.41037,-4.072718 -2.53119,-1.743757 -1.03339,0.818174 -2.4754,2.038591 -3.20447,2.712052 -1.57943,1.458937 -2.07944,1.052853 -2.08928,-1.696797 -0.004,-1.242644 -0.19584,-1.795939 -0.68636,-1.984167 -0.37735,-0.14481 -0.74987,-0.05196 -0.83669,0.208485 -0.0861,0.258223 -0.46819,0.854408 -0.84913,1.324853 -0.61225,0.756101 -1.33734,0.901298 -6.24865,1.251279 -3.34587,0.238423 -5.70201,0.249932 -5.92302,0.02893 -0.20184,-0.201847 -0.44343,-1.580782 -0.53685,-3.064285 -0.20849,-3.31033 -0.49962,-4.292694 -1.27216,-4.292694 -0.32777,0 -3.56748,1.48724 -7.19934,3.304967 -3.631892,1.817737 -6.704342,3.204048 -6.827712,3.080682 -0.12336,-0.123357 0.6629,-2.108658 1.74722,-4.411777 4.974182,-10.565124 5.324622,-11.412524 5.096092,-12.323054 -0.33934,-1.352048 -1.961212,-1.217788 -3.005512,0.248815 -0.4578,0.642908 -0.83237,1.284145 -0.83237,1.424955 0,0.140818 -0.34335,0.746754 -0.76301,1.346535 -1.18999,1.700727 -5.2666,8.090447 -7.48773,11.736321 -2.41425,3.962883 -3.78154,5.727873 -4.22494,5.453841 -0.49159,-0.30382 -2.81838,-5.422356 -2.81838,-6.199954 0,-0.371531 1.17725,-2.605234 2.61609,-4.963772 1.43885,-2.358546 2.6161,-4.388715 2.6161,-4.511474 0,-0.948346 -1.62376,0.05944 -18.420465,11.432333 -3.379737,2.288383 -6.241164,4.064505 -6.358745,3.946925 -0.117589,-0.117581 0.07658,-1.457592 0.431319,-2.977812 0.354817,-1.520211 1.016698,-4.575158 1.470868,-6.788771 0.454171,-2.213613 1.005567,-4.839764 1.225359,-5.835888 1.024848,-4.644934 1.029394,-4.75606 0.264835,-6.463769 -0.410551,-0.916983 -0.658751,-1.809137 -0.551563,-1.982558 0.205891,-0.333143 1.301852,-0.590092 5.235659,-1.227531 1.328176,-0.215216 3.737762,-0.682601 5.354628,-1.038632 1.616865,-0.356032 3.046831,-0.540265 3.177688,-0.409408 0.130857,0.130857 -1.502986,3.725179 -3.630742,7.987372 -2.193478,4.393841 -3.717057,7.901068 -3.518542,8.099582 0.369719,0.36972 3.313759,-1.664371 7.444717,-5.14369 1.34286,-1.131034 4.252694,-3.488763 6.466324,-5.239396 2.21361,-1.750641 4.81205,-3.828623 5.77431,-4.617748 2.86443,-2.349033 4.19631,-3.225441 4.56005,-3.00063 0.18888,0.116734 0.60311,0.833757 0.92049,1.593385 0.3317,0.793845 0.86377,1.381141 1.25126,1.381141 0.3708,0 2.121592,-0.724455 3.890662,-1.609901 3.61066,-1.807194 3.81324,-1.845303 5.40488,-1.016772 0.62668,0.32622 1.81861,0.890197 2.64871,1.253284 0.8301,0.363085 1.50773,0.865912 1.50585,1.117391 -0.002,0.25148 -1.44926,2.902275 -3.21636,5.890654 -1.76712,2.98838 -3.2145,5.659804 -3.21638,5.936508 -0.004,0.717643 1.94389,0.606068 3.69909,-0.21179 0.81889,-0.381581 4.04764,-3.122473 7.17498,-6.090867 l 5.68608,-5.397079 4.21198,-0.388229 c 2.31659,-0.213525 4.30598,-0.294222 4.42087,-0.179328 0.1149,0.114895 -0.11287,3.756914 -0.50616,8.093385 -0.51064,5.630375 -0.5912,8.008352 -0.28177,8.317782 0.30943,0.309439 1.05336,-0.216186 2.60213,-1.838538 2.9382,-3.077772 3.41312,-3.930695 4.14097,-7.436893 0.34463,-1.660212 0.90756,-4.286363 1.25092,-5.835896 0.34338,-1.549528 0.81461,-3.904007 1.0472,-5.232176 0.42134,-2.406108 0.44219,-2.433794 5.76015,-7.647028 2.9355,-2.877698 9.01567,-8.763897 13.51149,-13.080443 9.37088,-8.997222 9.13634,-9.002689 5.8282,0.135824 -0.97462,2.692314 -2.88049,8.155165 -4.23526,12.139669 -3.99718,11.756097 -4.61895,13.187579 -6.30635,14.518893 -5.9985,4.732682 -12.3645,10.129083 -12.8836,10.921303 -0.86188,1.315401 -2.06864,5.990704 -1.70018,6.586906 0.36275,0.586927 5.00611,0.25774 9.57202,-0.678587 1.62245,-0.332712 3.16191,-0.524447 3.42103,-0.426069 0.25913,0.09837 -1.79278,1.26066 -4.5598,2.582866 -2.76702,1.322215 -7.16163,3.425387 -9.76582,4.673729 -2.60419,1.248342 -4.91338,2.269717 -5.13156,2.269717 -0.21817,0 -0.39031,-0.316947 -0.38254,-0.704331 z M 119.76536,71.678411 c 4.39867,-1.548769 4.38468,-1.530868 4.04316,-5.175449 -0.38279,-4.084851 -0.82867,-4.37521 -3.36428,-2.190867 -1.10465,0.951634 -2.74525,2.324502 -3.64576,3.050814 -2.0601,1.661601 -2.99241,4.342819 -1.81055,5.207005 0.40127,0.293419 0.9159,0.467948 1.14362,0.387849 0.22771,-0.0801 1.86292,-0.655815 3.63381,-1.279352 z m 28.67585,-20.024568 c 1.88588,-1.903869 2.68613,-3.081164 3.2914,-4.842132 0.80046,-2.328906 0.75843,-3.509228 -0.12494,-3.509228 -0.25895,0 -1.68755,1.226109 -3.17463,2.724687 -2.2974,2.315142 -2.79487,3.074291 -3.30963,5.050577 -0.7647,2.93586 -0.75915,3.091565 0.11015,3.091565 0.39377,0 1.83721,-1.13196 3.20765,-2.515469 z m -77.728272,0.452844 c -0.290957,-0.975448 -1.114759,-7.269431 -0.970379,-7.413816 0.07658,-0.07657 2.895954,-1.503334 6.265299,-3.170589 3.897617,-1.928661 6.12607,-2.834446 6.12607,-2.490019 0,0.297744 -0.782415,1.708158 -1.738718,3.134252 -2.418783,3.607039 -2.459131,3.788431 -1.287336,5.787943 0.557525,0.95135 1.013682,1.895953 1.013682,2.099117 0,0.405641 -4.84023,1.904599 -7.53971,2.334951 -1.276416,0.203487 -1.745243,0.132787 -1.868908,-0.281839 z"
     style="fill:#fa9b19;stroke:#ffffff;stroke-width:0.87923777;stroke-miterlimit:4;stroke-dasharray:none;stroke-opacity:1" />
  <path
     inkscape:connector-curvature="0"
     id="path905"
     d="m 67.819947,178.90236 c -2.69627,-8.68843 -4.901452,-16.08357 -4.900414,-16.43362 0.0018,-0.48372 6.398829,-6.38519 12.211188,-11.26458 0.184966,-0.15527 2.06555,-5.4195 4.179105,-11.69828 2.113556,-6.27881 4.208152,-12.4634 4.654682,-13.74356 0.81366,-2.3327 1.58256,-2.81443 1.82767,-1.14507 0.0959,0.65318 0.32529,0.82986 0.85791,0.66081 0.44558,-0.14142 0.81846,0.007 0.96327,0.38498 0.27054,0.70502 2.27391,0.84857 2.27391,0.16291 0,-0.28487 0.43243,-0.3663 1.16603,-0.21957 1.01341,0.20268 1.24928,0.0644 1.80198,-1.0565 0.51714,-1.04878 0.63764,-1.12975 0.64509,-0.43341 0.0138,1.28195 1.04108,1.97929 2.13588,1.44975 0.49052,-0.23724 1.79743,-0.52336 2.90423,-0.63579 1.1068,-0.11244 2.329332,-0.32723 2.716712,-0.47731 1.34032,-0.51928 0.99306,1.36208 -4.784142,25.91966 l -3.44312,14.63589 -9.80861,14.84542 c -5.394739,8.16498 -9.963971,14.84542 -10.153851,14.84542 -0.189872,0 -2.551258,-7.10872 -5.24752,-15.79715 z m 68.022413,6.43961 c -0.86971,-0.94079 -3.41966,-3.78883 -5.66653,-6.32899 l -4.08527,-4.61846 0.26391,-2.42486 c 0.14516,-1.33366 0.40729,-2.70389 0.58252,-3.04492 0.17523,-0.34104 2.55117,-2.25415 5.27986,-4.25137 20.99132,-15.36418 26.0912,-19.1998 26.0912,-19.6232 0,-0.65502 -4.51579,-5.08728 -5.18315,-5.08728 -0.29222,0 -9.11828,4.89007 -19.61344,10.86683 -10.49517,5.97675 -19.33351,10.86683 -19.64078,10.86683 -0.45731,0 -5.06708,-6.78103 -5.06708,-7.45374 0,-0.1099 0.711,-0.48429 1.58,-0.83201 1.75488,-0.70216 1.18505,0.40477 7.85533,-15.25904 4.991,-11.72036 4.90185,-11.5718 7.2674,-12.11016 2.6024,-0.59225 8.88228,-1.82388 10.57071,-2.07315 l 1.31379,-0.19396 -2.68623,4.77378 c -1.4774,2.62558 -4.55892,7.98053 -6.84781,11.89986 -2.28889,3.91934 -4.16161,7.31522 -4.16161,7.54641 0,0.23118 0.2264,0.42014 0.5031,0.41992 1.06466,-8.1e-4 27.03266,-9.55761 27.18119,-10.00322 0.0863,-0.2588 -1.12678,-1.84503 -2.69564,-3.52497 -1.56888,-1.67993 -2.84755,-3.26247 -2.84148,-3.51675 0.006,-0.25428 2.58991,-3.12219 5.74188,-6.37314 l 5.73084,-5.91082 1.65174,0.22154 c 1.01122,0.13564 1.75922,0.0477 1.9289,-0.22692 0.35642,-0.57671 1.4371,-0.58411 1.4371,-0.01 0,0.49275 -0.57759,1.16011 -6.13776,7.09199 -2.15827,2.30256 -3.92413,4.42435 -3.92413,4.71511 0,0.29074 2.2718,2.56083 5.04847,5.04461 5.02179,4.49215 5.92053,4.95526 6.49271,3.34566 0.13949,-0.39241 1.78062,-4.42216 3.64696,-8.95501 l 3.39334,-8.24154 -1.14062,-0.91359 c -0.62733,-0.50247 -1.7346,-1.19683 -2.46057,-1.54301 -0.72598,-0.34618 -1.53927,-0.98062 -1.80734,-1.40984 -0.26805,-0.42922 -0.72617,-0.78041 -1.01802,-0.78041 -0.29186,0 -0.42294,-0.17428 -0.29129,-0.38729 0.32701,-0.52911 2.22299,0.36264 2.22299,1.04554 0,0.8692 2.50466,0.19029 3.46481,-0.93917 0.7333,-0.86259 0.88351,-0.90772 1.10452,-0.33176 0.41315,1.07665 2.38915,0.63777 2.67778,-0.59475 0.19698,-0.84119 0.48235,-1.01298 1.74026,-1.04766 0.93314,-0.0258 1.44844,0.12715 1.35665,0.40248 -0.14119,0.4236 -0.29818,0.47882 -1.6908,0.59487 -0.33204,0.0276 -0.60372,0.34311 -0.60372,0.70098 0,0.46401 0.24385,0.58688 0.85009,0.42834 0.75114,-0.19642 0.82353,-0.0895 0.62193,0.91845 -0.12548,0.62742 -1.51155,4.8102 -3.08016,9.29508 -1.78084,5.09167 -2.70986,8.29649 -2.47353,8.53282 0.23634,0.23633 3.35336,-1.47891 8.2991,-4.56681 l 7.92061,-4.94528 2.99585,-6.0622 c 1.97781,-4.00219 3.40325,-6.38051 4.19477,-6.99894 1.08518,-0.84787 1.22398,-0.87145 1.46301,-0.24854 0.14524,0.3785 0.0543,1.02397 -0.20191,1.43437 -0.60778,0.9732 -0.58792,1.15957 0.12356,1.15957 0.32426,0 0.79107,-0.37654 1.03737,-0.83675 0.2463,-0.46022 0.97713,-1.02128 1.62406,-1.2468 0.64693,-0.22553 1.17624,-0.70022 1.17624,-1.05488 0,-0.50154 0.10733,-0.53751 0.48297,-0.16187 0.37565,0.37565 0.37565,0.59031 0,0.96594 -0.26564,0.26564 -0.48297,0.73572 -0.48297,1.04463 0,0.3089 -2.83475,6.25007 -6.29947,13.20258 -5.93362,11.90679 -6.26087,12.6836 -5.63466,13.37555 0.36566,0.40406 0.66195,0.90148 0.65845,1.10542 -0.008,0.46536 -9.92741,5.66397 -10.23,5.36139 -0.12213,-0.12215 1.16084,-3.34288 2.85105,-7.15718 1.9279,-4.35067 2.93149,-7.07673 2.69307,-7.31515 -0.23844,-0.23843 -3.314,1.58201 -8.25305,4.885 l -7.87299,5.26505 -1.92658,5.30049 c -5.86833,16.14525 -12.69814,34.63928 -12.84728,34.78844 -0.16686,0.16684 -13.83457,3.68628 -14.39323,3.70625 -0.15383,0.005 -0.99127,-0.75974 -1.86099,-1.70052 z m 7.29967,-9.1806 c 3.13932,-1.34152 5.8428,-2.57221 6.00773,-2.73485 0.26856,-0.26484 6.64645,-17.04518 7.32658,-19.27638 0.42792,-1.40378 -0.59312,-1.13843 -3.25997,0.84721 -1.29476,0.96404 -5.54054,4.1126 -9.43506,6.99681 l -7.08094,5.244 -0.26422,3.12581 c -0.46913,5.54961 -0.34943,8.23654 0.36691,8.23654 0.34712,0 3.19966,-1.09762 6.33897,-2.43914 z m 30.86255,-56.94971 c 0,-0.3451 -0.18407,-0.51369 -0.40904,-0.37466 -0.22497,0.13905 -0.30485,0.42141 -0.17748,0.62747 0.34501,0.55825 0.58652,0.45416 0.58652,-0.25281 z m 28.73151,17.83328 c 7.04003,-15.29746 11.38223,-24.1601 12.73074,-25.98407 0.72399,-0.97924 1.17494,-1.22397 2.06449,-1.12039 0.62599,0.0729 1.40411,0.35324 1.72917,0.62301 0.32504,0.26977 0.76317,0.38409 0.97358,0.25405 0.7014,-0.43349 -0.0347,1.48921 -3.83258,10.01066 -2.06762,4.63916 -3.75929,8.57838 -3.75929,8.75384 0,0.70305 1.73437,0.12206 9.04411,-3.02968 l 7.63546,-3.29218 0.71968,-2.01238 c 1.65937,-4.63993 4.08764,-10.99742 4.88145,-12.7802 0.89283,-2.00518 1.66116,-2.3133 1.67433,-0.67144 0.004,0.59268 0.27735,1.01879 0.70433,1.10102 0.47961,0.0924 0.69658,-0.12577 0.69658,-0.70032 0,-0.56614 0.25883,-0.83446 0.80495,-0.83446 0.44272,0 0.80495,0.18112 0.80495,0.40248 0,0.22136 0.36223,0.40247 0.80495,0.40247 0.44272,0 0.80495,-0.18111 0.80495,-0.40247 0,-0.22136 -0.22639,-0.40525 -0.50309,-0.40864 -0.94569,-0.0116 0.66979,-0.78624 1.65296,-0.79263 0.73499,-0.005 0.89024,0.15246 0.68935,0.69817 -0.1426,0.38739 -0.73608,1.93233 -1.31883,3.43318 -0.72239,1.8605 -0.92852,2.8599 -0.64775,3.14067 0.38601,0.38601 7.55428,-0.0451 20.44142,-1.22946 2.20759,-0.20288 4.07353,-0.30914 4.14654,-0.23615 0.2471,0.24711 -2.49151,1.70705 -17.01481,9.07055 -7.96901,4.04038 -16.07261,8.17164 -18.00799,9.18057 -1.93538,1.00893 -3.63971,1.71361 -3.78737,1.56593 -0.14768,-0.14767 -0.0583,-0.96986 0.19846,-1.82707 0.57576,-1.92173 0.5999,-3.27632 0.0584,-3.27632 -0.22472,0 -1.35667,0.51996 -2.51546,1.15548 -1.1588,0.6355 -4.18971,2.23972 -6.73537,3.56491 -2.54566,1.32521 -7.08872,3.70307 -10.0957,5.28413 -3.00697,1.58108 -5.67384,2.87469 -5.92634,2.87469 -0.26258,0 0.11575,-1.24917 0.88375,-2.91795 z M 116.65187,124.7788 c -0.66408,-0.0945 -1.38854,-0.35771 -1.60991,-0.58483 -0.2744,-0.28153 0.11896,-0.32833 1.23618,-0.14704 1.44835,0.23502 1.69057,0.15803 2.08576,-0.6629 0.32644,-0.67815 0.45444,-0.74762 0.47434,-0.25739 0.035,0.86212 -0.38549,1.96235 -0.72016,1.88437 -0.14232,-0.0332 -0.80213,-0.13766 -1.46621,-0.23221 z m 19.77742,-8.43872 c -0.14156,-0.14156 -0.25737,-0.58942 -0.25737,-0.99525 0,-0.52148 0.29923,-0.73788 1.02034,-0.73788 0.88589,0 0.96516,0.10313 0.60156,0.78254 -0.50464,0.94292 -1.01597,1.29914 -1.36453,0.95059 z m 61.7238,-5.37915 c 0,-0.23443 0.18112,-0.31429 0.40247,-0.17748 0.22137,0.13681 0.40248,0.3286 0.40248,0.42623 0,0.0976 -0.18111,0.17748 -0.40248,0.17748 -0.22135,0 -0.40247,-0.19181 -0.40247,-0.42623 z M 26.698655,92.635709 c 0,-0.130676 0.533487,-2.258763 1.185529,-4.729083 1.180905,-4.474023 3.462377,-13.220159 4.846192,-18.578126 0.400203,-1.54953 1.393557,-5.333042 2.207458,-8.407805 1.218993,-4.605074 1.385908,-5.676074 0.94694,-6.076124 -0.293103,-0.267109 -1.800697,-0.809468 -3.350222,-1.205241 -4.326439,-1.105036 -11.956324,-3.302102 -13.080447,-3.766579 -0.735464,-0.303886 1.509115,-0.422615 8.342085,-0.441262 9.241968,-0.02522 9.354835,-0.03581 9.925557,-0.931081 1.037272,-1.62716 3.522042,-11.92187 3.077825,-12.751889 -0.218244,-0.407795 -2.348268,-1.566551 -4.733385,-2.575011 -11.476128,-4.85226 -18.221984,-7.864298 -18.221984,-8.136161 0,-0.100296 17.875942,-0.182355 39.724306,-0.182355 27.508569,0 39.595549,0.128753 39.305609,0.418692 -0.23029,0.23028 -8.19024,4.321722 -17.688792,9.092093 -9.498537,4.770372 -17.442143,8.838135 -17.652439,9.039475 -0.494958,0.473884 -1.428788,0.472871 -1.428788,-0.0016 0,-0.202193 1.097957,-1.848435 2.439903,-3.658317 4.455177,-6.008701 4.33633,-6.441684 -1.499206,-5.461929 -5.371967,0.901926 -5.261526,0.849955 -6.32762,2.977404 -1.678385,3.349309 -4.344463,10.46786 -4.200716,11.216096 0.127647,0.664415 0.761384,0.737353 7.278576,0.837689 3.926316,0.06047 7.138769,0.270512 7.138769,0.466783 0,0.196273 -1.210992,2.74329 -2.691092,5.66004 -3.100843,6.110678 -1.970328,5.673691 -9.510987,3.676339 -6.484537,-1.717608 -6.368786,-1.733664 -7.601785,1.054401 -0.562888,1.272827 -1.158985,2.767016 -1.324642,3.32042 -0.165657,0.553403 -0.43939,1.187303 -0.608292,1.408664 -0.518961,0.680147 -5.229038,12.244559 -5.229038,12.838575 0,0.866103 1.075756,1.082727 3.926448,0.790664 1.762933,-0.180619 2.570381,-0.130463 2.466437,0.153205 -0.138603,0.378278 -4.763991,4.319199 -8.151264,6.945027 -0.71387,0.553404 -2.96056,2.409821 -4.992646,4.125371 -3.338527,2.818493 -4.518289,3.570898 -4.518289,2.881594 z M 132.1613,82.107087 c 0.008,-0.387383 0.26537,-1.87638 0.57241,-3.308881 0.81345,-3.795027 0.41037,-4.072712 -2.53119,-1.743756 -1.03339,0.818171 -2.4754,2.038596 -3.20447,2.712055 -1.57943,1.458936 -2.07944,1.052847 -2.08928,-1.6968 -0.004,-1.242646 -0.19584,-1.795936 -0.68636,-1.984166 -0.37735,-0.144806 -0.74987,-0.05198 -0.83669,0.208482 -0.0861,0.258224 -0.46819,0.854411 -0.84913,1.324856 -0.61225,0.756098 -1.33734,0.901294 -6.24865,1.251275 -3.34587,0.238423 -5.70201,0.249934 -5.92302,0.02894 -0.20184,-0.201845 -0.44343,-1.580773 -0.53685,-3.064281 -0.20849,-3.310333 -0.49962,-4.292696 -1.27216,-4.292696 -0.32778,0 -3.56748,1.487239 -7.19934,3.304974 -3.631892,1.817734 -6.704342,3.204044 -6.827712,3.080682 -0.12336,-0.123362 0.6629,-2.108664 1.74722,-4.411779 4.974182,-10.565125 5.324622,-11.412532 5.096092,-12.323056 -0.33934,-1.35205 -1.961212,-1.217786 -3.005512,0.24881 -0.4578,0.642914 -0.83237,1.284152 -0.83237,1.42496 0,0.140814 -0.34335,0.746753 -0.76301,1.346534 -1.18999,1.700727 -5.2666,8.090451 -7.48773,11.736325 -2.41425,3.962875 -3.78154,5.727874 -4.22494,5.453841 -0.49159,-0.303821 -2.81838,-5.42236 -2.81838,-6.199954 0,-0.371533 1.17725,-2.605234 2.61609,-4.963778 1.43885,-2.358545 2.6161,-4.38871 2.6161,-4.511474 0,-0.948348 -1.62376,0.05941 -18.420465,11.432332 -3.379738,2.28839 -6.241164,4.064508 -6.358745,3.946926 -0.117589,-0.11758 0.07658,-1.457592 0.431319,-2.977805 0.354817,-1.520214 1.016698,-4.575161 1.470868,-6.788775 0.454171,-2.213614 1.005567,-4.839764 1.225359,-5.83589 1.024848,-4.644931 1.029394,-4.756058 0.264835,-6.463772 -0.410551,-0.916979 -0.658751,-1.809129 -0.551563,-1.982556 0.205891,-0.333137 1.301852,-0.590094 5.235658,-1.227528 1.328177,-0.215216 3.737763,-0.682601 5.354629,-1.038632 1.616865,-0.356033 3.046831,-0.540265 3.177688,-0.409408 0.130857,0.130857 -1.502986,3.725174 -3.630742,7.987375 -2.193478,4.393838 -3.717057,7.901062 -3.518542,8.099575 0.369719,0.369722 3.313759,-1.664367 7.444717,-5.143685 1.34286,-1.131032 4.252694,-3.488764 6.466324,-5.239402 2.21361,-1.750635 4.81205,-3.828622 5.77431,-4.617743 2.86443,-2.349033 4.19631,-3.225441 4.56005,-3.000631 0.18888,0.116734 0.60311,0.833757 0.92049,1.593385 0.3317,0.793846 0.86377,1.381143 1.25126,1.381143 0.3708,0 2.121592,-0.724455 3.890662,-1.609902 3.61066,-1.807195 3.81324,-1.845304 5.40488,-1.016773 0.62668,0.32622 1.81861,0.890197 2.64871,1.253284 0.8301,0.363086 1.50773,0.865913 1.50585,1.117393 -0.002,0.251479 -1.44926,2.902271 -3.21637,5.890649 -1.76711,2.988379 -3.21449,5.659808 -3.21637,5.93651 -0.004,0.717645 1.94389,0.606067 3.69909,-0.211791 0.81889,-0.381578 4.04764,-3.122467 7.17498,-6.090862 l 5.68608,-5.397081 4.21198,-0.388228 c 2.31659,-0.213526 4.30598,-0.294223 4.42087,-0.179329 0.1149,0.114895 -0.11287,3.756916 -0.50616,8.093381 -0.51064,5.630375 -0.5912,8.008359 -0.28177,8.31779 0.30943,0.309432 1.05336,-0.21619 2.60213,-1.838539 2.9382,-3.077776 3.41312,-3.930697 4.14097,-7.4369 0.34463,-1.66021 0.90756,-4.286361 1.25092,-5.83589 0.34338,-1.54953 0.81461,-3.90401 1.0472,-5.232178 0.42134,-2.406108 0.44219,-2.433795 5.76015,-7.647028 2.9355,-2.877698 9.01567,-8.763896 13.51149,-13.080444 9.37088,-8.997222 9.13634,-9.002688 5.8282,0.135824 -0.97462,2.692315 -2.88049,8.155166 -4.23526,12.13967 -3.99718,11.756096 -4.61895,13.18758 -6.30635,14.518891 -5.9985,4.732679 -12.3645,10.129084 -12.8836,10.921308 -0.86188,1.315402 -2.06864,5.990702 -1.70018,6.586901 0.36275,0.586924 5.00611,0.257744 9.57202,-0.678585 1.62245,-0.332714 3.16191,-0.52445 3.42103,-0.426073 0.25913,0.09837 -1.79278,1.260665 -4.5598,2.582873 -2.76702,1.322211 -7.16163,3.425385 -9.76582,4.67373 -2.60419,1.248342 -4.91338,2.269711 -5.13156,2.269711 -0.21817,0 -0.39031,-0.31695 -0.38254,-0.704332 z M 119.87166,71.74478 c 4.39867,-1.548773 4.38468,-1.530867 4.04316,-5.175452 -0.38279,-4.084847 -0.82867,-4.375208 -3.36428,-2.190862 -1.10465,0.951628 -2.74525,2.324495 -3.64576,3.050813 -2.0601,1.661595 -2.99241,4.342817 -1.81055,5.207004 0.40127,0.29342 0.9159,0.467949 1.14362,0.387845 0.22771,-0.08012 1.86292,-0.655813 3.63381,-1.279348 z m 28.67585,-20.02457 c 1.88588,-1.903869 2.68613,-3.081163 3.2914,-4.842133 0.80046,-2.328904 0.75843,-3.509227 -0.12494,-3.509227 -0.25895,0 -1.68755,1.22611 -3.17463,2.724688 -2.2974,2.31514 -2.79487,3.074291 -3.30963,5.050577 -0.7647,2.935859 -0.75915,3.091565 0.11015,3.091565 0.39377,0 1.83721,-1.131961 3.20765,-2.51547 z m -77.728272,0.452844 c -0.290957,-0.975447 -1.114759,-7.269431 -0.970379,-7.413816 0.07658,-0.07657 2.895954,-1.503334 6.265299,-3.170588 3.897617,-1.928662 6.12607,-2.834447 6.12607,-2.490019 0,0.297744 -0.782415,1.708157 -1.738718,3.134251 -2.418783,3.60704 -2.459131,3.788432 -1.287336,5.787943 0.557525,0.95135 1.013682,1.895953 1.013682,2.099116 0,0.405643 -4.84023,1.904599 -7.53971,2.334952 -1.276416,0.203487 -1.745243,0.132788 -1.868908,-0.281839 z"
     style="fill:#f85613;stroke:#ffffff;stroke-width:0.87923777;stroke-miterlimit:4;stroke-dasharray:none;stroke-opacity:1" />
  <path
     inkscape:connector-curvature="0"
     id="path903"
     d="m 26.698647,91.972454 c 0,-0.490134 0.177228,-1.447352 0.393837,-2.127153 0.216617,-0.679801 0.955872,-3.409368 1.642776,-6.065704 1.971603,-7.624289 3.470405,-13.371911 4.565451,-17.507671 2.315807,-8.74628 2.774505,-10.779455 2.558767,-11.34166 -0.125837,-0.327954 -1.455517,-0.903178 -2.983412,-1.290638 -4.649207,-1.178996 -6.637753,-1.73849 -10.403405,-2.927084 l -3.622284,-1.143338 9.113203,-0.108064 c 6.696934,-0.07941 9.224118,-0.241691 9.531482,-0.612046 0.230053,-0.277191 0.878262,-2.31137 1.440482,-4.5204 0.56222,-2.209031 1.229236,-4.781405 1.482263,-5.71639 0.710846,-2.626816 0.301121,-3.492151 -2.14265,-4.525205 -1.165087,-0.492517 -2.842804,-1.220953 -3.728249,-1.618743 -4.987134,-2.240499 -10.988767,-4.834049 -11.186288,-4.834049 -0.402075,0 -5.516425,-2.440658 -5.516425,-2.632525 0,-0.10164 17.669285,-0.184799 39.26508,-0.184799 25.101203,0 39.178583,0.139975 39.025263,0.388052 -0.13191,0.213426 -8.0547,4.294241 -17.606222,9.068479 -9.551512,4.774237 -17.608776,8.881598 -17.905027,9.127469 -0.296259,0.245871 -0.650012,0.335681 -0.786109,0.19958 -0.136106,-0.136102 0.851454,-1.685349 2.194587,-3.442774 3.730271,-4.880912 4.315026,-6.484748 2.365387,-6.487653 -0.479616,-7.26e-4 -2.756815,0.305202 -5.060436,0.679817 l -4.188407,0.681117 -1.748101,3.740835 c -0.961455,2.057458 -1.748109,3.912969 -1.748109,4.123354 0,0.210388 -0.475932,1.479959 -1.057644,2.821269 -1.570635,3.621565 -1.516026,3.651439 6.674505,3.651439 3.699147,0 6.828547,0.102836 6.954243,0.228524 0.125687,0.125687 -0.996493,2.616002 -2.493729,5.534033 -3.021466,5.888685 -2.673208,5.652198 -6.656331,4.52 -5.21483,-1.482316 -8.34555,-2.171407 -8.899505,-1.958835 -0.539614,0.20707 -2.57104,3.991559 -2.57104,4.789781 0,0.196822 -0.444912,1.266029 -0.988703,2.376017 -0.543791,1.109981 -1.992828,4.444472 -3.220094,7.409974 -2.723167,6.580114 -2.690732,6.695219 1.782012,6.325955 l 3.030496,-0.250191 -1.046205,0.907047 c -0.575409,0.498876 -3.926017,3.278313 -7.44579,6.176533 -3.519765,2.898216 -6.656358,5.579533 -6.970193,5.95848 -0.313835,0.378951 -0.902458,0.866597 -1.308042,1.08366 -0.61173,0.327386 -0.737434,0.242746 -0.737434,-0.496493 z M 132.00504,82.466578 c -0.10877,-0.175978 0.0534,-1.492007 0.36051,-2.924509 0.30706,-1.432502 0.56464,-2.927181 0.57242,-3.321511 0.0247,-1.253505 -1.10301,-1.219492 -2.48414,0.07492 -0.72888,0.683118 -1.45504,1.242868 -1.61368,1.243891 -0.15864,0.0011 -0.92233,0.635761 -1.6971,1.410525 -0.77477,0.774765 -1.57469,1.408664 -1.77761,1.408664 -0.46342,0 -0.85263,-1.412 -0.85982,-3.119183 -0.007,-1.675431 -0.89905,-1.729165 -2.38038,-0.14339 -0.98276,1.052043 -1.4362,1.195256 -4.68933,1.481117 -1.98076,0.174055 -4.50694,0.329136 -5.61375,0.344628 l -2.01237,0.02817 -0.0991,-1.609901 c -0.25469,-4.139481 -0.57569,-5.777027 -1.17769,-6.00804 -0.3582,-0.137454 -3.51587,1.200052 -7.42102,3.143339 -5.323892,2.649281 -6.797522,3.234838 -6.797522,2.701044 0,-0.37485 0.16296,-0.853607 0.36213,-1.063899 0.19917,-0.210294 1.83627,-3.527567 3.63799,-7.37172 3.132162,-6.682799 3.248272,-7.031454 2.647152,-7.948885 -0.34578,-0.527734 -0.78122,-0.959517 -0.967622,-0.959517 -0.76214,0 -2.41058,1.698687 -3.70268,3.815538 -0.75529,1.237393 -2.27883,3.684475 -3.38563,5.437955 -1.10681,1.753484 -2.8973,4.599675 -3.97886,6.324877 -3.29852,5.261405 -3.65373,5.751534 -4.07065,5.616806 -0.22137,-0.07153 -1.01384,-1.383263 -1.76105,-2.914966 l -1.358561,-2.784915 1.094661,-2.012376 c 0.60206,-1.106807 1.82211,-3.142507 2.71123,-4.523777 2.13459,-3.316142 1.87894,-4.19066 -0.7819,-2.67479 -1.05423,0.600582 -2.822329,1.757457 -3.92914,2.570831 -1.10681,0.813378 -2.579982,1.825136 -3.273718,2.248351 -0.693745,0.423215 -4.007786,2.62419 -7.36454,4.891055 -3.356745,2.266865 -6.483781,4.325265 -6.948959,4.57422 -0.798119,0.427138 -0.831988,0.376329 -0.600924,-0.901775 0.235803,-1.304361 2.051948,-9.924104 2.70217,-12.824956 1.195685,-5.334338 1.248026,-5.98056 0.587824,-7.25724 -1.201409,-2.323277 -0.983762,-2.460556 6.046456,-3.813841 3.54026,-0.681486 6.496328,-1.098096 6.569032,-0.925802 0.07271,0.172296 -1.512052,3.640452 -3.521664,7.707017 -3.653189,7.392434 -4.01292,8.314618 -3.243367,8.314618 0.489234,0 3.013323,-1.561237 4.421924,-2.735117 0.914486,-0.762103 11.297476,-9.281431 12.294196,-10.087497 0.23313,-0.188535 1.18397,-0.845803 2.11299,-1.460599 0.92903,-0.614796 1.68913,-1.240797 1.68913,-1.391113 0,-0.400327 2.08675,-1.876202 3.11356,-2.2021 0.72381,-0.229725 0.93171,-0.09214 1.14501,0.757754 0.14335,0.571144 0.62715,1.29516 1.07511,1.608925 0.73597,0.515488 1.16775,0.393058 4.479162,-1.270033 l 3.66468,-1.840513 1.4911,0.858167 c 0.82011,0.471993 1.7521,0.858168 2.07111,0.858168 0.319,0 0.96269,0.31695 1.4304,0.704332 l 0.85041,0.704332 -1.78077,3.018563 c -4.89612,8.299352 -5.05404,8.623667 -4.48063,9.202096 0.45939,0.463426 0.85066,0.44705 2.51329,-0.105183 2.05676,-0.683145 5.4188,-3.492522 10.50906,-8.781557 1.45162,-1.508307 3.15608,-2.871317 3.85598,-3.08351 1.81692,-0.550854 7.80018,-0.931018 8.0591,-0.51206 0.12108,0.195914 -0.1258,3.858289 -0.54864,8.138613 -0.42283,4.280319 -0.67967,7.9266 -0.57075,8.102844 0.41061,0.664382 1.10709,0.259064 3.04335,-1.771076 3.3931,-3.557635 3.41068,-3.595898 4.95545,-10.787691 2.37555,-11.059419 2.01869,-10.181308 5.62204,-13.834296 1.77784,-1.802317 5.92474,-5.811175 9.21535,-8.908573 3.2906,-3.097398 7.70508,-7.314653 9.80994,-9.371674 2.10487,-2.05702 3.89626,-3.670835 3.98085,-3.586235 0.14255,0.142551 -0.73521,2.76421 -6.56291,19.60177 -1.18755,3.431101 -2.61803,7.615929 -3.17884,9.299617 -1.12908,3.389796 -1.47322,3.7892 -7.21464,8.373386 -1.99226,1.590695 -3.97937,3.200362 -4.41581,3.577034 -0.43646,0.376673 -1.19341,0.960822 -1.68213,1.298113 -1.77147,1.222569 -3.259,3.599311 -3.93363,6.285055 -0.96591,3.845309 -0.92602,3.865614 5.80557,2.954382 2.98839,-0.404524 5.75038,-0.859272 6.13775,-1.010547 0.38739,-0.151275 0.70433,-0.156185 0.70433,-0.01091 0,0.145277 -1.40362,0.917333 -3.11918,1.715687 -2.60975,1.214481 -14.98302,7.166723 -15.86995,7.634346 -0.15074,0.07948 -0.36304,4.03e-4 -0.47179,-0.175475 z M 119.87166,71.74478 c 4.11912,-1.550363 4.12143,-1.554323 3.62375,-6.201551 -0.33928,-3.168164 -0.94346,-3.496386 -2.94781,-1.601384 -0.81449,0.770059 -2.16167,1.806228 -2.99372,2.302596 -2.4885,1.484514 -4.54397,5.98607 -3.01502,6.603012 0.99229,0.400391 1.76247,0.24114 5.3328,-1.102673 z m 28.56955,-20.090939 c 2.44909,-2.521659 2.93892,-3.268955 3.39856,-5.184937 0.98091,-4.088876 -0.40747,-4.219031 -4.05659,-0.380289 -2.3141,2.434348 -2.6822,3.043552 -3.13867,5.194547 -0.90674,4.272759 -0.0722,4.354234 3.7967,0.370679 z m -77.894703,0.65031 c -0.01205,-0.176052 -0.261485,-1.859561 -0.554271,-3.741132 -0.610376,-3.922705 -0.666427,-3.808689 2.583086,-5.255335 1.214465,-0.540667 3.650938,-1.755622 5.414364,-2.699901 1.763435,-0.944279 3.354635,-1.667404 3.536022,-1.606944 0.181378,0.06046 -0.300357,1.104722 -1.070525,2.320584 -3.002324,4.73975 -2.978541,4.645147 -1.730322,6.880808 1.312333,2.350503 1.315331,2.373164 0.314503,2.373164 -0.432312,0 -1.202041,0.15795 -1.710531,0.351001 -2.877886,1.092631 -6.747991,1.878798 -6.782326,1.377755 z"
     style="fill:#f4271d;stroke-width:0.40247521" />
</svg>
