<?xml version="1.0" encoding="UTF-8" standalone="no"?>
<svg
   xmlns:dc="http://purl.org/dc/elements/1.1/"
   xmlns:cc="http://creativecommons.org/ns#"
   xmlns:rdf="http://www.w3.org/1999/02/22-rdf-syntax-ns#"
   xmlns:svg="http://www.w3.org/2000/svg"
   xmlns="http://www.w3.org/2000/svg"
   xmlns:sodipodi="http://sodipodi.sourceforge.net/DTD/sodipodi-0.dtd"
   xmlns:inkscape="http://www.inkscape.org/namespaces/inkscape"
   width="500.66443"
   height="171.58357"
   viewBox="0 0 500.66443 171.58357"
   version="1.1"
   id="svg132"
   sodipodi:docname="gbh.svg"
   style="fill:none"
   inkscape:version="0.92.5 (2060ec1f9f, 2020-04-08)">
  <metadata
     id="metadata138">
    <rdf:RDF>
      <cc:Work
         rdf:about="">
        <dc:format>image/svg+xml</dc:format>
        <dc:type
           rdf:resource="http://purl.org/dc/dcmitype/StillImage" />
        <dc:title />
      </cc:Work>
    </rdf:RDF>
  </metadata>
  <defs
     id="defs136" />
  <sodipodi:namedview
     pagecolor="#ffffff"
     bordercolor="#666666"
     borderopacity="1"
     objecttolerance="10"
     gridtolerance="10"
     guidetolerance="10"
     inkscape:pageopacity="0"
     inkscape:pageshadow="2"
     inkscape:window-width="1366"
     inkscape:window-height="740"
     id="namedview134"
     showgrid="false"
     inkscape:pagecheckerboard="true"
     inkscape:zoom="1.1141837"
     inkscape:cx="233.33963"
     inkscape:cy="58.388287"
     inkscape:window-x="0"
     inkscape:window-y="0"
     inkscape:window-maximized="1"
     inkscape:current-layer="svg132" />
  <path
     d="M 25.254236,54.495055 C 10.11552,54.489892 0,43.761612 0,30.753694 0,17.745879 10.138597,6.894408 25.231107,6.927742 H 167.85356 c 15.09262,-0.03334 25.23111,10.818137 25.23111,23.825952 0,13.007918 -10.11578,23.736198 -25.25382,23.741361 z"
     id="path92"
     inkscape:connector-curvature="0"
     style="fill:#e60012;stroke-width:1.03253829" />
  <path
     d="M 25.300597,12.77905 C 13.315821,12.80213 5.9592744,20.812518 5.9592744,30.722924 c 0,9.907825 7.3103926,17.984857 19.3413226,17.94118 H 167.78438 c 12.03114,0.04109 19.34358,-8.033355 19.34358,-17.94118 0,-9.907825 -7.35581,-17.918236 -19.34048,-17.941314 z"
     id="path94"
     inkscape:connector-curvature="0"
     style="fill:#ffffff;stroke-width:1.03253829" />
  <path
     d="m 171.91763,23.097112 c 0,-1.902658 1.54365,-3.4462 3.44662,-3.4462 1.90193,0 3.44558,1.543542 3.44558,3.4462 0,1.902556 -1.54365,3.4462 -3.44558,3.4462 -1.90297,0 -3.44662,-1.543644 -3.44662,-3.4462 z m 3.44559,2.789816 c 1.53848,0 2.78785,-1.248752 2.78785,-2.787234 0,-1.541064 -1.24937,-2.787234 -2.78785,-2.787234 -1.53849,0 -2.78683,1.248752 -2.78683,2.787234 0,1.538482 1.24834,2.787234 2.78683,2.787234 z"
     id="path96"
     inkscape:connector-curvature="0"
     style="clip-rule:evenodd;fill:#e60012;fill-rule:evenodd;stroke-width:1.03253829" />
  <path
     d="m 177.07929,22.243203 c 0,-0.730727 -0.54105,-1.099963 -1.63037,-1.099963 h -1.49822 v 3.818017 h 0.93135 v -1.564192 h 0.45329 l 0.73103,1.564192 h 1.03357 l -0.8539,-1.705237 c 0.52039,-0.130719 0.83325,-0.510177 0.83325,-1.012817 z m -1.74395,0.595052 h -0.45329 V 21.72807 h 0.40785 c 0.55861,0 0.83326,0.171711 0.83326,0.569238 0,0.379458 -0.2571,0.540947 -0.78782,0.540947 z"
     id="path98"
     inkscape:connector-curvature="0"
     style="clip-rule:evenodd;fill:#e60012;fill-rule:evenodd;stroke-width:1.03253829" />
  <path
     d="m 102.59363,37.561426 c 0,-0.83584 -0.005,-0.902542 -0.005,-0.902542 l 6.70778,-0.0052 c -1.17193,3.51538 -5.00988,6.107774 -9.553975,6.107774 -5.476996,0 -9.915466,-3.741092 -9.915466,-8.35912 0,-4.618028 4.43847,-8.361702 9.915466,-8.361702 5.477515,0 9.936015,3.825761 9.936015,8.443789 0,0.0077 -12.684735,0.0026 -12.684735,0.0026 0,0 -0.0052,2.258987 -0.0052,3.074383 0,2.723113 1.823153,3.328284 2.818004,3.328284 0.994951,0 2.787231,-0.605171 2.787231,-3.328284 z M 97.439714,29.24846 c -0.428193,0.743531 -0.456382,1.615406 -0.446159,2.920534 l 5.617935,0.0026 c 0.0102,-1.305232 -0.008,-2.177004 -0.43594,-2.923116 -0.52535,-0.917514 -1.49129,-1.353452 -2.367915,-1.359027 4.13e-4,0 9.29e-4,0 0.0013,0 h -0.0027 c 5.17e-4,0 9.3e-4,0 0.0013,0 -0.876522,0.0056 -1.842565,0.441513 -2.367921,1.359027 z"
     id="path100"
     inkscape:connector-curvature="0"
     style="clip-rule:evenodd;fill:#e60012;fill-rule:evenodd;stroke-width:1.03253829" />
  <path
     d="m 123.77553,26.289515 c 2.51837,-0.07187 7.62633,1.576892 7.59019,7.47186 -0.005,1.046168 -0.002,8.102638 -0.002,8.102638 h -6.69085 c 0,0 0,-8.84875 0,-9.779584 0,-1.297487 -1.24008,-2.741079 -3.07696,-2.741079 -1.83276,0 -3.19674,1.443592 -3.19674,2.741079 0,0.635941 0.007,9.779584 0.007,9.779584 h -6.68465 l 0.005,-14.889926 6.68259,-0.0052 c 0,0 -0.008,1.197538 0,1.566773 1.28655,-1.228307 3.14305,-2.182166 5.3661,-2.246183 z"
     id="path102"
     inkscape:connector-curvature="0"
     style="fill:#e60012;stroke-width:1.03253829" />
  <path
     d="m 69.052034,26.289515 c 2.517948,-0.07187 7.625709,1.576892 7.58988,7.47186 -0.0052,1.046168 -0.0027,8.102638 -0.0027,8.102638 h -6.689815 c 0,0 0,-8.84875 0,-9.779584 0,-1.297487 -1.241008,-2.741079 -3.076965,-2.741079 -1.833375,0 -3.197461,1.443592 -3.197461,2.741079 0,0.635941 0.0076,9.779584 0.0076,9.779584 h -6.684654 l -0.0027,-14.889926 6.689816,-0.0052 c 0,0 -0.0076,1.197538 0,1.566773 1.287265,-1.228307 3.141085,-2.182166 5.366824,-2.246183 z"
     id="path104"
     inkscape:connector-curvature="0"
     style="fill:#e60012;stroke-width:1.03253829" />
  <path
     d="m 152.52553,19.476413 h -6.64645 v 0 c 0,0 0,4.792424 0.005,8.238624 -1.07694,-0.605171 -2.21273,-1.187213 -3.81007,-1.328257 -4.85396,-0.425613 -8.56181,3.866752 -8.56181,7.797523 0,5.182103 3.99696,7.100146 4.60512,7.382133 2.26436,1.056493 5.17199,1.059074 7.74817,-0.558913 0,0.138463 0.003,0.86155 0.003,0.86155 h 6.65677 z m -6.59792,12.210592 v 2.661575 0 c 0,0 0.003,1.684689 0.003,2.641129 0,2.29998 -1.59321,2.902569 -2.64123,2.902569 -1.06971,0 -2.63917,-0.602589 -2.63917,-2.902569 0,-0.79237 0.003,-2.64877 0.003,-2.64877 0,0 -0.003,-1.889752 -0.003,-2.653934 0,-2.30256 1.56946,-2.889765 2.64123,-2.889765 1.04596,0 2.63607,0.587205 2.63607,2.889765 z"
     id="path106"
     inkscape:connector-curvature="0"
     style="clip-rule:evenodd;fill:#e60012;fill-rule:evenodd;stroke-width:1.03253829" />
  <path
     d="m 154.71761,34.322973 c 0,-4.618028 4.40481,-8.361702 9.84112,-8.361702 5.43529,0 9.84113,3.743674 9.84113,8.361702 0,4.618027 -4.40584,8.361598 -9.84113,8.361598 -5.43321,0 -9.84112,-3.743571 -9.84112,-8.361598 z m 12.54328,3.136025 c 0,-0.902542 0.003,-3.153888 0.003,-3.153888 l 0.002,0.0077 c -0.006,-0.485706 -0.005,-1.679837 -0.005,-2.594563 0,-0.210328 0,-0.405994 0,-0.57471 0,-2.364204 -1.40735,-3.336029 -2.75069,-3.336029 -1.34126,0 -2.75171,0.971825 -2.75171,3.336029 0,0.902541 -0.005,3.105152 -0.005,3.105152 0,0 -0.002,2.307723 -0.002,3.210265 0,2.374425 1.40735,3.353891 2.75894,3.353891 1.3485,0 2.75069,-0.979466 2.75069,-3.353891 z"
     id="path108"
     inkscape:connector-curvature="0"
     style="clip-rule:evenodd;fill:#e60012;fill-rule:evenodd;stroke-width:1.03253829" />
  <path
     d="m 46.538878,24.04839 v -4.577036 h 6.748774 v 4.577036 z"
     id="path110"
     inkscape:connector-curvature="0"
     style="fill:#e60012;stroke-width:1.03253829" />
  <path
     d="M 46.554469,41.869176 V 26.976669 l 6.733389,0.0027 v 14.889926 z"
     id="path112"
     inkscape:connector-curvature="0"
     style="fill:#e60012;stroke-width:1.03253829" />
  <path
     d="m 80.337059,41.869279 0.0026,-14.861737 H 76.678072 V 24.79729 l 3.664169,-0.0027 -0.0052,-3.015424 h 6.738552 v 3.012946 h 3.646202 v 2.215415 h -3.646202 l 0.0052,14.861737 z"
     id="path114"
     inkscape:connector-curvature="0"
     style="fill:#e60012;stroke-width:1.03253829" />
  <path
     d="m 19.151418,41.869073 0.0025,-22.39266 h 6.977068 l 9.651446,15.615594 -0.0052,-15.615594 h 6.92317 v 22.39266 H 35.787469 L 26.08481,26.253479 v 15.615594 z"
     id="path116"
     inkscape:connector-curvature="0"
     style="fill:#e60012;stroke-width:1.03253829" />
  <path
     d="m 431.93351,72.781722 h 21.08856 l 10.41728,23.958294 15.62127,-23.958294 h 21.6038 l -30.46091,47.389588 -4.94586,36.97417 h -19.52633 l 5.72852,-42.18745 z"
     id="path118"
     inkscape:connector-curvature="0"
     style="fill:#ffffff;stroke-width:1.03253829" />
  <path
     d="m 276.74919,157.14548 2.60406,-18.75503 h -29.67722 l 1.8214,-14.57428 h 25.77319 l 2.60716,-18.74625 h -25.51506 l 1.82347,-13.542254 h 29.67515 l 2.86633,-18.745944 h -49.20768 l -11.71725,84.363758 z"
     id="path120"
     inkscape:connector-curvature="0"
     style="fill:#ffffff;stroke-width:1.03253829" />
  <path
     d="M 112.19768,132.14256 H 94.493366 l -9.631414,24.99569 H 65.073458 l 1.300688,-3.90712 c -3.90475,2.08366 -14.84119,5.73058 -24.475289,5.20915 C 25.236579,158.69842 0.24087468,145.67914 3.3644539,118.34165 8.6734047,71.879593 60.646553,68.091623 80.435976,74.859189 L 77.569547,92.824836 C 47.887993,83.19167 22.892304,100.636 22.112118,119.38142 c -0.780289,18.7478 16.663208,20.309 19.006553,20.309 2.343346,0 8.330726,-0.26123 10.934685,-1.8214 l 1.042657,-5.72749 H 38.253068 l 2.345101,-16.66414 h 33.847743 l -3.64579,27.33749 27.860363,-70.036565 h 24.995275 l 8.59382,69.258025 22.91099,-69.258025 h 20.04776 l 6.77036,44.521505 17.4437,-44.521505 h 22.39266 l 5.20812,84.359935 h -18.74573 l -3.12549,-48.42863 -18.74574,48.42863 h -16.92433 l -7.29179,-45.82508 -14.84171,45.82508 h -32.02417 z m -4.16629,-34.107014 -6.50881,17.442884 h 8.5935 z"
     id="path122"
     inkscape:connector-curvature="0"
     style="clip-rule:evenodd;fill:#ffffff;fill-rule:evenodd;stroke-width:1.03253829" />
  <path
     d="m 371.26362,110.79793 c 6.50912,-31.506467 26.03648,-39.317619 39.57719,-38.796291 19.7855,0.781941 34.63031,16.662277 30.46298,46.865581 -4.16526,30.20278 -26.81708,40.35676 -42.96289,38.27413 -16.1427,-2.08263 -33.58537,-14.84068 -27.07728,-46.34342 z m 51.81174,4.68359 c 2.86529,-21.868444 -8.85092,-25.514234 -14.31821,-25.514234 -5.73162,-0.26071 -16.406,5.46781 -19.26923,25.514234 -2.86426,20.04983 7.28869,23.4314 12.23764,23.95283 4.9469,0.52246 18.48554,-2.0816 21.3498,-23.95283 z"
     id="path124"
     inkscape:connector-curvature="0"
     style="clip-rule:evenodd;fill:#ffffff;fill-rule:evenodd;stroke-width:1.03253829" />
  <path
     d="m 313.72232,72.78451 -11.71621,84.3589 37.2323,-10e-4 c 16.92433,0 26.55792,-11.45395 28.38241,-23.17326 1.8214,-11.71621 -2.60406,-17.96616 -7.03262,-21.86916 0.37482,-0.27156 0.77028,-0.52143 1.1802,-0.77957 2.72796,-1.71979 6.05583,-3.81719 7.41362,-15.363134 1.5612,-13.278035 -10.93458,-23.172746 -19.52943,-23.172746 z m 14.83861,32.28552 h 10.93665 c 8.07238,0 9.63461,-5.208024 9.89171,-7.289004 0.26124,-2.08439 -2.08056,-6.25068 -6.24582,-6.25068 h -12.75805 z m -4.68566,33.32558 h 14.84274 c 8.06825,0 9.89172,-6.24685 10.14985,-8.33155 0.26227,-2.08263 -2.0816,-6.24685 -6.24686,-6.24685 h -16.66103 z"
     id="path126"
     inkscape:connector-curvature="0"
     style="clip-rule:evenodd;fill:#ffffff;fill-rule:evenodd;stroke-width:1.03253829" />
  <path
     d="m 475.81948,144.38227 c -3.21222,0 -5.80596,2.58961 -5.80596,5.78635 0,3.23081 2.59167,5.82248 5.80596,5.82248 3.19571,0 5.78532,-2.59167 5.78532,-5.82248 -0.002,-3.19777 -2.59374,-5.78635 -5.78532,-5.78635 v -0.79609 c 3.64073,0 6.58037,2.9541 6.58037,6.58244 0,3.66241 -2.93964,6.61547 -6.58037,6.61547 -3.66344,-0.001 -6.6165,-2.95306 -6.6165,-6.61547 0,-3.62938 2.95306,-6.5814 6.6165,-6.5814 z"
     id="path128"
     inkscape:connector-curvature="0"
     style="fill:#ffffff;stroke-width:1.03253829" />
  <path
     d="m 474.25725,147.13915 h 2.10845 c 0.91689,0 1.91535,0.13629 1.91535,1.27828 0,1.50131 -1.60456,1.33094 -2.64226,1.33094 l -1.38154,-0.002 v 0.71038 h 1.66136 l 2.10638,3.40325 h 1.07074 l -2.22925,-3.40325 c 1.31339,-0.0341 2.33147,-0.56892 2.33147,-2.02067 0,-0.62366 -0.27466,-1.27829 -0.82706,-1.59114 -0.55241,-0.32732 -1.17607,-0.36139 -1.79869,-0.36139 h -3.20913 v 7.37439 h 0.89522 v -6.71873 z"
     id="path130"
     inkscape:connector-curvature="0"
     style="fill:#ffffff;stroke-width:1.03253829" />
  <g
     aria-label="[HACKS]"
     transform="matrix(2.157844,-0.51428943,0.58119693,2.6463694,-243.96754,186.89393)"
     style="font-style:normal;font-weight:normal;font-size:40px;line-height:125%;font-family:sans-serif;letter-spacing:0px;word-spacing:0px;fill:#00ff00;fill-opacity:1;stroke:none;stroke-width:1px;stroke-linecap:butt;stroke-linejoin:miter;stroke-opacity:1"
     id="flowRoot52">
    <path
       inkscape:connector-curvature="0"
       d="m 162.07617,-12.482817 q 0.41016,-0.03906 0.41016,-0.136719 l 0.625,0.07813 1.77734,-0.01953 h 0.0195 v 2.480469 q -0.8789,-0.117188 -0.8789,-0.292969 l -0.60547,0.09766 -0.0781,-0.07813 h -0.0781 q -0.0977,0.117188 -0.89844,0.175781 0.0977,0.5859378 0.29297,0.839844 -0.15625,0.7617188 -0.46875,1.09375 l 0.0781,0.3125 -0.0781,0.234375 0.0781,0.625 -0.0781,0.078125 0.0781,0.390625 v 0.234375 l -0.0781,1.09375 0.0781,0.078125 v 0.078125 l -0.15625,0.46875 0.23438,1.40625 v 0.234375 l -0.15625,0.625 v 0.390625 q 0,0.5664063 0.23437,1.40625001 l -0.0781,0.234375 0.0781,1.09375 V 1.052339 l -0.3125,1.25 q 0.39063,1.3867188 0.39063,1.875 -0.23438,0 -0.23438,0.3125 l 0.0781,0.46875 -0.0781,0.625 0.0781,0.078125 -0.0781,0.078125 v 0.078125 q 0,1.40625 0.3125,3.046875 l -0.3125,0.859375 0.15625,1.015625 -0.0781,0.625 0.15625,0.46875 v 0.3125 q 0,0.371094 -0.23438,0.78125 l 0.0781,0.703125 q -0.0977,0 -0.3125,0.78125 0.0977,0.410156 0.39062,0.625 l 0.0781,0.3125 -0.0781,0.546875 0.0781,0.07813 -0.23438,2.8125 0.0781,0.3125 -0.23438,0.9375 0.0781,0.859375 -0.0781,0.625 0.23438,1.09375 -0.0781,0.664063 0.58594,0.117187 1.38672,-0.253906 0.66406,0.09766 -0.0391,2.167969 -0.0781,0.07813 -0.0781,-0.07813 h -0.3125 l -1.62109,0.253906 q -0.91797,-0.03906 -1.46485,-0.09766 V 25.36875 l -1.36718,-0.07813 0.21484,-1.503906 q -0.21484,0 -0.3125,-1.171875 l 0.0781,-0.3125 v -0.625 l 0.23438,-0.625 -0.23438,-1.015625 0.0781,-0.234375 q -0.0781,-1.015625 -0.23438,-1.015625 l 0.0781,-0.390625 -0.0781,-0.3125 q 0.39063,-0.429687 0.39063,-1.484375 l -0.15625,-0.15625 v -0.07813 l 0.0781,-0.3125 -0.15625,-0.3125 0.15625,-0.625 -0.23437,-1.25 0.3125,-0.546875 -0.15625,-0.46875 0.0781,-0.07813 v -0.07813 l -0.0781,-0.78125 0.23437,-0.703125 q -0.3125,-0.46875 -0.3125,-1.40625 l 0.15625,-0.703125 q 0,-0.546875 -0.15625,-0.859375 l 0.0781,-0.859375 v -0.70311 l -0.0781,-0.078125 0.15625,-0.625 -0.0781,-0.3125 0.0781,-0.234375 -0.23437,-0.46875 0.23437,-1.25 -0.0781,-1.5625 q 0,-1.015625 0.23437,-1.64062499 -0.54687,-0.80078125 -0.54687,-1.09375 v -0.234375 l 0.3125,-1.48437501 v -1.09375 l -0.15625,-0.546875 0.15625,-1.328125 q 0,-0.3710937 -0.39063,-1.171875 0,-0.390625 0.54688,-1.09375 v -0.15625 l -0.23438,-0.234375 v -0.078125 h 0.15625 v -0.078125 q -0.3125,-0.3125 -0.3125,-0.546875 l 0.0781,-0.625 -0.0781,-0.078125 q 0.23438,-0.078125 0.23438,-0.46875 -0.0195,-1.171875 -0.15625,-1.171875 l 0.23437,-0.859375 -0.0781,-0.46875 v -0.07813 q 0,-0.234375 1.01562,-0.3125 v -0.07813 q 0.72266,0.03906 1.05469,0.292969 z"
       style="font-style:normal;font-variant:normal;font-weight:normal;font-stretch:normal;font-family:'Top Secret';-inkscape-font-specification:'Top Secret';fill:#00ff00"
       id="path68" />
    <path
       inkscape:connector-curvature="0"
       d="m 179.57617,-7.541411 h 1.44531 q 0.25391,0.3515625 2.89063,0.546875 l 0.17578,-0.1953125 h 0.19531 l 2.51953,0.3710938 2.89063,-0.546875 1.26953,0.546875 q 0,2.1679687 -1.79687,2.1679687 l -0.3711,1.2695313 v 1.4453125 l 0.3711,1.44531246 v 1.07421875 q 0,1.32812499 -0.54688,3.08593749 l 0.54688,2.1679688 -0.3711,2.34375 0.3711,2.1679687 -0.3711,0.742188 0.17578,0.527343 -0.17578,2.167969 0.3711,1.269531 -0.19532,0.917969 q 0,1.035156 1.81641,3.066406 l -0.54688,0.722657 h -0.54687 l -1.99219,-0.371094 q -0.89844,0.05859 -0.89844,0.371094 l -2.34375,-0.546875 h -0.54687 q 0,0.546875 -0.54688,0.546875 v -0.175782 q -1.38671,0.527344 -3.96484,0.722657 -1.09375,0 -1.09375,-1.269532 h -0.17578 q 1.79687,-1.835937 1.79687,-2.539062 l 0.72266,-4.511719 -0.72266,-1.269531 0.91797,-2.714844 V 7.6539015 L 180.47461,7.2828078 179.75195,7.458589 178.13086,7.2828078 V 7.458589 q -1.44531,-0.2539062 -1.44531,-1.4453125 v -0.546875 l 0.35156,-0.3515625 h 1.62109 l 0.19532,0.1757813 q 1.79687,-1.328125 1.79687,-5.05859379 L 179.75195,-1.760161 q 0.89844,-1.171875 0.89844,-1.796875 0,-1.3085937 -2.71484,-2.7148437 v -0.546875 q 0.2539,-0.7226563 1.64062,-0.7226563 z m -11.21094,0.1757813 2.16797,0.3710937 1.6211,-0.1953125 2.71484,0.1953125 1.26953,-0.1953125 1.07422,0.3710938 v 1.0742187 q -2.14844,1.5429688 -2.34375,2.5390625 l 0.54688,3.61328126 V 1.8531203 l 0.17578,0.9179687 -0.72266,1.25 v 1.4453125 q 0.54688,0.6640625 0.54688,1.2695313 l -0.3711,1.9921875 0.72266,2.8906247 q -0.89844,0.585938 -0.89844,2.167969 0.54688,0.898438 0.54688,2.363281 v 0.351563 l -0.3711,0.546875 v 0.175781 q 0,0.371094 1.09375,0.546875 0.11719,0.839844 1.26953,1.621094 v 0.546875 l -0.19531,0.175781 -0.52734,0.195313 v 0.175781 q -3.39844,-0.371094 -5.42969,-1.09375 -2.20703,0.195312 -4.88281,0.917969 h -1.09375 l -0.89844,-1.269532 v -0.175781 q 0,-1.152344 1.81641,-1.640625 v -2.890625 l -0.54688,-1.074219 q 0.72266,-1.09375 0.72266,-1.640625 h -0.17578 l 0.35156,-0.898437 -0.17578,-0.175781 v -0.195313 l 0.17578,-0.175781 V 9.9976515 l -0.17578,-0.7226562 0.35156,-0.546875 -0.17578,-0.546875 Q 167.0957,7.224214 167.0957,5.114839 l -1.09375,-1.8164062 0.3711,-2.34375004 q -0.41016,0 -0.54688,-0.8984375 0.41016,-2.16796876 1.09375,-2.16796876 -0.85937,-2.2851562 -2.16797,-4.3554687 l 0.72266,-0.3515625 1.07422,0.1757812 h 0.17578 q 0.97656,-0.7226562 1.64062,-0.7226562 z m 25.625,-2.8906253 q -0.33203,0.03906 -0.70312,0.03906 l -1.5625,-0.07813 -1.25,0.234375 -0.46875,-0.234375 -0.23438,0.07813 -0.3125,-0.07813 -0.625,0.15625 -0.0781,-0.07813 h -0.70313 l -0.85937,0.07813 q -0.3125,-0.15625 -0.85938,-0.15625 l -0.70312,0.15625 q -0.9375,0 -1.40625,-0.3125 l -0.70313,0.234375 -0.78125,-0.07813 h -0.0781 l -0.0781,0.07813 -0.46875,-0.15625 -0.54687,0.3125 -1.25,-0.234375 -0.625,0.15625 -0.3125,-0.15625 -0.3125,0.07813 h -0.0781 l -0.15625,-0.15625 q -1.05468,0 -1.48437,0.3906248 l -0.3125,-0.078125 -0.39063,0.078125 q 0,-0.1562498 -1.01562,-0.2343748 l -0.23438,0.07813 -1.01562,-0.234375 -0.625,0.234375 h -0.625 l -0.3125,0.07813 q -1.17188,-0.09766 -1.17188,-0.3125 l -1.64062,0.234375 -1.40625,-0.07813 -1.25,0.15625 -1.09375,-0.234375 h -1.64063 q -0.11718,0.117187 -0.64453,0.195312 v -2.441406 l 0.80078,0.136719 q 0.42969,0 0.85938,-0.234375 0.48828,0 0.9375,0.234375 l 1.25,-0.234375 1.79687,0.15625 v -0.07813 h 0.15625 l 0.23438,0.15625 0.625,-0.15625 h 0.39062 l 0.46875,0.15625 1.32813,-0.15625 1.09375,0.234375 0.625,-0.07813 0.85937,0.07813 0.9375,-0.234375 0.3125,0.07813 2.8125,-0.234375 0.0781,0.07813 0.54687,-0.07813 0.3125,0.07813 q 0.21485,0.292969 0.625,0.390625 0.78125,-0.214844 0.78125,-0.3125 l 0.70313,0.07813 q 0.41016,-0.234375 0.78125,-0.234375 h 0.3125 l 0.46875,0.15625 0.625,-0.07813 1.01562,0.15625 0.85938,-0.3125 q 1.64062,0.3125 3.04687,0.3125 h 0.0781 l 0.0781,-0.07813 0.0781,0.07813 0.625,-0.07813 0.46875,0.07813 q 0.3125,0 0.3125,-0.234375 0.48828,0 1.875,0.390625 l 0.85937,-0.214844 z m 0,35.703125 -0.8789,-0.175781 -0.78125,0.3125 v -0.07813 q -0.74219,0 -1.40625,0.234375 l -0.78125,-0.15625 q -1.48438,0 -2.26563,0.3125 -1.5625,-0.546875 -2.10937,-0.546875 h -0.39063 q -0.9375,0.3125 -1.79687,0.390625 l -0.23438,-0.234375 h -0.23437 v 0.15625 h -0.23438 q 0,-0.234375 -0.39062,-0.234375 h -0.15625 l -0.0781,0.07813 -0.39062,-0.234375 h -0.23438 q -0.15625,0.15625 -0.625,0.15625 l -0.39062,0.390625 -2.1875,-0.546875 h -0.0781 l -1.01562,0.46875 -0.0781,-0.07813 h -0.70312 q -0.11719,0 -0.23438,-0.3125 l -1.71875,0.234375 q -0.42968,-0.15625 -1.09375,-0.15625 -0.33203,0 -0.70312,0.234375 l -0.46875,-0.234375 h -0.39063 l -0.85937,0.07813 -0.9375,-0.234375 q -0.9961,0.214844 -1.17188,0.46875 l -0.39062,-0.234375 q -0.60547,0 -1.17188,0.546875 -0.33203,-0.07813 -0.625,-0.390625 -1.32812,-0.292969 -1.32812,-0.46875 l -0.625,0.15625 -0.0781,-0.07813 h -0.0781 l -0.46875,0.15625 -0.17578,-0.01953 V 23.31796 l 0.41015,0.07813 0.9375,-0.234375 h 0.23438 l 0.625,0.15625 0.0781,-0.07813 0.70313,0.07813 0.3125,-0.15625 0.3125,0.15625 h 0.85937 l 0.625,-0.234375 h 0.0781 l 0.0781,0.07813 1.25,-0.3125 0.78125,0.390625 h 0.70313 l 0.78125,-0.07813 0.15625,0.15625 0.15625,-0.15625 0.9375,0.07813 h 0.78125 l 0.39062,0.07813 0.23438,-0.234375 0.70312,0.234375 0.3125,-0.07813 h 0.0781 l 0.0781,0.07813 0.46875,-0.234375 0.85938,0.15625 0.54687,-0.07813 1.09375,0.3125 2.1875,-0.3125 0.0781,0.07813 0.39062,-0.07813 0.46875,0.07813 1.17188,-0.15625 q 0.60547,0 1.40625,0.234375 h 0.0781 Q 185.66989,23.0836 185.9238,23.0836 h 0.23437 q 0.46875,0 0.9375,0.46875 l 0.9375,-0.15625 0.3125,0.07813 0.3125,-0.07813 h 0.625 q 0.44922,-0.3125 0.70313,-0.3125 l 0.625,0.07813 h 0.0781 l 0.0781,-0.07813 0.39062,0.234375 0.46875,-0.234375 0.46875,0.15625 q 0.29297,-0.234375 0.70313,-0.234375 h 0.23437 l 0.625,0.234375 h 0.33203 z"
       style="font-style:normal;font-variant:normal;font-weight:normal;font-stretch:normal;font-family:'Top Secret';-inkscape-font-specification:'Top Secret';fill:#00ff00"
       id="path70" />
    <path
       inkscape:connector-curvature="0"
       d="m 210.8457,-7.463286 0.17578,0.1757813 0.3711,0.3515625 h 0.17578 l -0.35156,1.4453125 0.72265,1.9921875 0.72266,0.7226562 v 3.7890625 q 0.52734,0.4882813 1.42578,4.3359375 l 0.72266,0.7226563 -0.17578,0.1757812 v 0.7226563 l 0.17578,0.7226562 -0.17578,0.7226563 1.09375,3.2421877 h -0.19532 l 0.54688,0.898437 -0.54688,0.917969 q 0.625,0 1.09375,2.167969 l -0.17578,1.25 q 0,0.546875 1.6211,1.09375 l 0.52734,1.445312 -0.72266,0.527344 h -0.17578 l -0.52734,-0.351562 h -0.3711 l -2.34375,0.722656 h -0.17578 l -0.72265,-0.175781 -0.72266,0.175781 h -0.37109 l -0.89844,-0.546875 -3.78906,0.546875 q -0.9375,0 -1.44532,-0.898438 v -0.195312 q 1.09375,-0.664063 1.09375,-2.34375 l -0.37109,-1.25 0.17578,-0.195313 -0.35156,-1.621093 0.17578,-0.175782 v -0.722656 h -1.62109 l -1.44532,0.351563 q -0.46875,-0.351563 -1.79687,-0.351563 l -0.19531,-0.175781 v -1.640625 q 0,-0.351563 1.09375,-0.527344 l 0.72265,0.722656 h 1.25 l 0.91797,-0.195312 -0.54687,-3.0664065 0.17578,-1.0742187 q -0.54688,0 -1.26953,-3.9648438 l 0.19531,-0.546875 -1.62109,-5.78125 0.17578,-0.5273437 -0.17578,-1.640625 q 0.13671,-1.0742188 1.07421,-1.0742188 l 0.89844,0.1757813 z m -8.65234,6.1328125 h 0.17578 l 0.17578,0.54687501 -0.17578,0.52734375 0.17578,1.81640624 q 0,2.3632813 -1.07422,3.7890625 0,2.265625 -1.44531,5.058594 l 0.17578,0.527344 -0.17578,1.269531 0.17578,1.269531 -0.54687,0.175781 0.17578,1.074219 -0.52735,1.445313 v 0.175781 q 0,1.582031 2.34375,1.816406 h 0.35157 v 0.175781 q 0,2.167969 -1.25,2.167969 h -2.16797 q -0.60547,0 -1.26953,-0.546875 l -2.51953,0.546875 q -0.70313,0 -1.26954,-1.992187 v -0.351563 q 2.16797,0 2.16797,-1.992187 1.66016,-1.660157 3.06641,-5.761719 l -0.17578,-0.5468752 1.97265,-6.6796875 0.3711,-0.3710938 -0.17578,-0.5273437 q 0,-2.20703129 1.44531,-3.6132813 z m 19.04297,-9.0039065 q -0.44922,-0.136718 -0.44922,-0.234375 l -0.625,0.15625 -0.0781,-0.07813 h -0.0781 l -0.46875,0.15625 -0.85938,-0.07813 -2.34375,0.4687503 -1.95312,-0.2343753 -1.17188,0.07813 -0.0781,-0.07813 -0.3125,0.07813 h -0.9375 l -1.01563,-0.3125 h -0.625 l -0.78125,0.234375 h -0.0781 q -1.03516,0 -1.40625,-0.234375 l -0.54688,0.15625 -1.5625,-0.15625 q 0,0.117188 -1.09375,0.234375 l -0.70312,-0.07813 h -0.9375 q -2.05078,0 -2.26563,0.3125003 h -0.39062 l -2.34375,-0.3906253 -0.46875,0.07813 -0.85938,-0.15625 -1.40625,0.15625 h -0.3125 l -1.17187,0.3125003 q -0.85938,0 -1.09375,-0.6250003 0.39062,-0.585937 0.39062,-1.25 l -0.0781,-0.3125 q 0,-0.546875 1.09375,-0.546875 l 1.64062,0.234375 q 0.29297,-0.234375 0.70313,-0.234375 h 0.3125 q 0.39062,0 0.46875,0.234375 l 2.1875,-0.234375 1.64062,0.46875 1.25,-0.390625 v 0.07813 l 1.01563,-0.234375 0.46875,0.07813 0.3125,-0.07813 0.23437,0.234375 h 0.23438 l 0.23437,-0.234375 0.70313,0.15625 1.17187,-0.15625 q 0.27344,0.234375 1.17188,0.3125 l 0.39062,-0.234375 0.39063,0.234375 0.39062,-0.07813 0.3125,0.07813 0.54688,-0.07813 1.25,0.15625 1.32812,-0.3125 1.09375,0.15625 0.46875,-0.07813 h 1.25 l 0.70313,-0.234375 0.54687,0.15625 0.23438,-0.07813 0.54687,0.15625 h 0.0781 l 0.0781,-0.07813 1.09375,0.234375 0.3125,-0.07813 0.78125,0.15625 0.9375,-0.234375 h 0.23438 l 0.29297,0.07813 z m 0,35.898438 -0.27344,-0.07813 -2.1875,0.3125 -0.0781,-0.07813 -0.39063,0.07813 -0.46875,-0.07813 -1.17187,0.15625 q -0.60547,0 -1.40625,-0.234375 h -0.0781 q -0.29297,0.234375 -0.54687,0.234375 h -0.23438 q -0.46875,0 -0.9375,-0.46875 l -0.9375,0.15625 -0.3125,-0.07813 -0.3125,0.07813 h -0.625 q -0.44922,0.3125 -0.70312,0.3125 l -0.625,-0.07813 h -0.0781 l -0.0781,0.07813 -0.39063,-0.234375 -0.46875,0.234375 -0.46875,-0.15625 q -0.29297,0.234375 -0.70312,0.234375 h -0.23438 l -0.625,-0.234375 q -1.5625,0 -3.04687,0.234375 -0.72266,0 -1.25,-0.46875 0,0.3125 -1.09375,0.390625 l -0.46875,-0.07813 -0.54688,0.15625 q -1.03516,-0.15625 -1.25,-0.3125 h -0.0781 l -0.0781,0.07813 -1.71875,-0.15625 q -0.99609,0 -1.25,0.3125 h -0.15625 l -0.3125,-0.234375 -0.46875,0.15625 -0.0781,-0.07813 h -0.23438 q -0.48828,0.15625 -1.875,0.234375 l -0.54687,-0.3125 v -0.07813 l 0.0781,-0.07813 q 0.3125,-0.117188 0.3125,-0.234375 v -0.07813 l -0.23437,-0.234375 0.15625,-0.546875 v -0.07813 q 0,-0.15625 -0.23438,-0.15625 v -0.3125 l 0.3125,-0.546875 q 0.89844,0 1.5625,0.234375 0.89844,0 1.17188,-0.3125 h 0.39062 l 1.32813,0.234375 h 0.23437 l 0.85938,-0.234375 q 1.66015,0.253906 1.95312,0.46875 h 0.3125 q 0.39063,0 0.46875,-0.234375 h 0.0781 l 0.0781,0.07813 h 0.3125 q 0,-0.15625 1.79688,-0.390625 l 0.46875,0.07813 h 0.0781 l 0.0781,-0.07813 q 0.3125,0.117187 0.3125,0.234375 l 0.54687,-0.07813 h 0.54688 l 2.03125,0.390625 0.78125,-0.3125 v 0.07813 q 0.74218,0 1.40625,-0.234375 l 0.78125,0.15625 q 1.48437,0 2.26562,-0.3125 1.5625,0.546875 2.10938,0.546875 h 0.39062 q 0.9375,-0.3125 1.79688,-0.390625 l 0.23437,0.234375 h 0.23438 v -0.15625 h 0.23437 q 0,0.234375 0.39063,0.234375 h 0.15625 l 0.0781,-0.07813 0.39063,0.234375 h 0.23437 q 0.15625,-0.15625 0.625,-0.15625 l 0.39063,-0.390625 1.28906,0.332031 z"
       style="font-style:normal;font-variant:normal;font-weight:normal;font-stretch:normal;font-family:'Top Secret';-inkscape-font-specification:'Top Secret';fill:#00ff00"
       id="path72" />
    <path
       inkscape:connector-curvature="0"
       d="m 231.99805,-7.5218797 0.52734,0.1757812 v 1.5820313 q 0,1.2109375 -1.77734,1.40625 l 0.17578,0.1757812 -0.52735,0.8984375 0.17579,1.2304688 -0.35157,0.3515625 v 1.23046871 l 0.17578,0.17578125 -0.17578,0.17578125 v 0.17578125 l 0.35157,1.40625004 V 1.989839 q -1.05469,2.5195313 -1.05469,3.5351563 l 1.05469,3.1640625 -0.35157,1.0546875 v 1.2499997 l 0.52735,2.460938 -0.52735,1.582031 v 0.703125 q 0,0.9375 2.48047,3.007813 l -0.35156,1.230468 h -0.17578 q -0.91797,0 -1.60156,-0.527343 h -0.35157 l -1.58203,0.175781 q -0.83984,-0.136719 -1.40625,-0.878906 l -3.71094,-1.953125 0.35157,-0.878907 q -1.23047,-0.273437 -1.23047,-0.878906 l 0.17578,-0.175781 v -0.175781 l -1.75781,-4.394532 q 0.35156,-0.7812497 0.35156,-2.832031 l -0.52734,-2.8125 q 0,-3.73046874 2.10937,-4.76562499 l 0.17578,-0.17578125 v -0.17578125 l -0.52734,-0.87890621 q 0.44922,-0.8984375 1.58203,-1.5820313 0.29297,-1.2890625 4.0625,-3.5351562 0,-0.4101563 3.71094,-1.0546875 z m 3.86718,0.1757812 q 0,0.46875 2.65625,1.40625 1.23047,0 2.28516,-1.2304687 h 0.35156 q 0.87891,0.4492187 0.87891,1.5820312 0,0.8789063 -0.35156,0.8789063 0.35156,0.4296875 0.52734,2.8320312 l -0.17578,2.9882813 0.52734,1.40625 q -0.50781,1.25 -1.58203,1.25 0,-0.46875 -0.8789,-0.703125 l -1.40625,-4.765625 q -0.44922,0 -1.42579,-1.2304688 -0.8789,-0.1367187 -0.8789,-0.5273437 l 0.17578,-0.7226563 q -0.87891,-0.6445312 -2.63672,-0.8789062 0,-1.9335938 1.05469,-1.9335938 0,-0.3515625 0.8789,-0.3515625 z m 6.17188,19.5703125 0.17578,0.175781 q -0.21484,2.734375 -1.05469,4.042969 -1.23047,0 -1.23047,1.425781 l -2.65625,0.878907 V 18.57187 l -1.93359,1.933594 h -1.05469 q -0.70312,-0.292969 -0.70312,-1.230469 V 18.57187 q 0,-0.3125 4.57031,-2.304687 1.95313,-4.042969 3.88672,-4.042969 z m 3.67187,13.398438 -0.3125,0.09766 -0.23437,-0.07813 -0.46875,0.15625 q 0,-0.390625 -1.09375,-0.46875 l -1.32813,0.3125 h -0.625 l -0.70312,-0.07813 h -0.0781 l -0.0781,0.07813 -0.85938,-0.07813 h -0.39062 l -0.23438,-0.15625 h -0.23437 l -0.46875,0.15625 -0.23438,-0.15625 q 0,0.15625 -1.64062,0.234375 -0.15625,-0.15625 -0.9375,-0.234375 0,0.15625 -0.70313,0.234375 0,-0.195313 -0.85937,-0.3125 h -0.85938 l -0.54687,0.234375 -1.64063,-0.3125 -0.54687,0.15625 h -0.0781 l -0.0781,-0.07813 -0.54688,0.15625 -1.32812,-0.234375 -0.625,0.234375 h -0.0781 l -0.0781,-0.07813 -1.17188,0.15625 -1.09375,-0.3125 -1.5625,0.3125 -1.48437,-0.07813 -0.625,0.07813 q 0,-0.136719 -0.78125,-0.15625 h -0.54688 l -0.15625,-0.15625 v -0.15625 l 0.15625,-0.625 v -0.234375 l -0.15625,-0.234375 v -0.3125 q 0,-0.546875 0.625,-0.625 1.50391,0.07813 1.64063,0.234375 h 0.0781 l 0.0781,-0.07813 0.3125,0.15625 q 0,-0.292969 2.34375,-0.390625 l 1.32812,0.3125 h 0.3125 l 0.0781,-0.07813 0.0781,0.07813 h 0.15625 l 0.39063,-0.07813 0.46875,0.07813 h 0.3125 l 1.01562,-0.15625 0.85938,0.15625 h 0.78125 l 0.70312,0.234375 1.09375,-0.234375 h 0.0781 l 0.70312,0.07813 1.09375,-0.3125 0.9375,0.234375 h 0.78125 l 0.0781,-0.07813 0.0781,0.07813 h 0.3125 l 0.70313,0.07813 2.34375,-0.234375 0.23437,0.07813 0.23438,-0.07813 0.3125,0.07813 h 0.0781 l 0.0781,-0.07813 0.54687,0.07813 0.9375,-0.15625 1.25,0.15625 1.17188,-0.3125 0.70312,0.117187 z m 0,-35.644532 -1.03515,0.136719 q -0.60547,0 -1.40625,-0.234375 h -0.0781 q -0.29297,0.234375 -0.54687,0.234375 h -0.23438 q -0.46875,0 -0.9375,-0.46875 l -0.9375,0.15625 -0.3125,-0.07813 -0.3125,0.07813 h -0.625 q -0.44922,0.3125 -0.70312,0.3125 l -0.625,-0.078125 h -0.0781 l -0.0781,0.078125 -0.39063,-0.234375 -0.46875,0.234375 -0.46875,-0.15625 q -0.29297,0.234375 -0.70312,0.234375 h -0.23438 l -0.625,-0.234375 q -1.5625,0 -3.04687,0.234375 -0.72266,0 -1.25,-0.46875 0,0.3125 -1.09375,0.390625 l -0.46875,-0.078125 -0.54688,0.15625 q -1.03515,-0.15625 -1.25,-0.3125 h -0.0781 l -0.0781,0.07813 -1.71875,-0.15625 q -0.99609,0 -1.25,0.3125 h -0.15625 l -0.3125,-0.234375 -0.46875,0.15625 -0.0781,-0.078125 h -0.23438 q -0.48828,0.15625 -1.875,0.234375 l -0.54687,-0.3125 v -0.07813 l 0.0781,-0.07813 q 0.3125,-0.117187 0.3125,-0.234375 v -0.07813 l -0.23437,-0.234375 0.15625,-0.546875 v -0.07813 q 0,-0.15625 -0.23438,-0.15625 v -0.3125 l 0.3125,-0.546875 q 0.89844,0 1.5625,0.234375 0.89844,0 1.17188,-0.3125 h 0.39062 l 1.32813,0.234375 h 0.23437 l 0.85938,-0.234375 q 1.66015,0.253906 1.95312,0.46875 h 0.3125 q 0.39063,0 0.46875,-0.234375 h 0.0781 l 0.0781,0.07813 h 0.3125 q 0,-0.15625 1.79688,-0.390625 l 0.46875,0.07813 h 0.0781 l 0.0781,-0.07813 q 0.3125,0.117188 0.3125,0.234375 l 0.54687,-0.07813 h 0.54688 l 2.03125,0.390625 0.78125,-0.3125 v 0.07813 q 0.74219,0 1.40625,-0.234375 l 0.78125,0.15625 q 1.48437,0 2.26562,-0.3125 1.5625,0.546875 2.10938,0.546875 h 0.39062 q 0.9375,-0.3125 1.79688,-0.390625 l 0.23437,0.234375 h 0.23438 v -0.15625 h 0.23437 q 0,0.05859 0.0195,0.09766 z"
       style="font-style:normal;font-variant:normal;font-weight:normal;font-stretch:normal;font-family:'Top Secret';-inkscape-font-specification:'Top Secret';fill:#00ff00"
       id="path74" />
    <path
       inkscape:connector-curvature="0"
       d="m 248.59961,-7.4828172 q 1.64062,0 2.71484,0.9179687 h 0.3711 l 1.26953,-0.1953125 v 0.1953125 l 0.17578,-0.1953125 h 0.91797 q 2.34375,0 3.26172,-0.3515625 l 0.89843,0.3515625 v 1.2695313 q -1.62109,1.2695312 -1.62109,2.3632812 l 0.17578,2.53906251 -0.17578,3.08593749 h 0.17578 l -0.17578,0.1757813 v 0.9179687 l 0.17578,1.0742188 -0.17578,0.1953125 V 5.036714 l 0.17578,0.7226563 -0.17578,3.4375 v 0.7226562 l 0.35156,1.4648435 v 0.722657 l -0.54687,2.363281 q 0,3.808594 1.64062,3.808594 l 0.72266,1.074218 q 0,0.605469 -2.16797,0.917969 l -1.64062,-0.195312 -1.81641,0.195312 h -0.89844 l -1.99219,-0.195312 -0.19531,0.195312 h -0.17578 l -1.09375,-0.195312 -1.07422,0.371093 -1.46484,-0.546875 h -0.72266 l -0.17578,-0.722656 q 0,-0.488281 1.99219,-1.640625 l 0.91797,-3.613281 -0.19532,-1.269531 0.19532,-0.546875 -0.74219,-5.2539067 0.19531,-1.09375 V 4.3140578 l 0.17578,-0.1953125 -0.54687,-1.4453125 0.54687,-2.16796879 -0.37109,-3.08593751 0.19531,-0.9179687 q 0,-0.9765625 -1.64062,-1.4453125 l -0.35157,-0.7226563 v -0.1757812 l 0.72266,-0.7226563 0.17578,0.1757813 h 0.3711 z m 20.3125,0.3710937 h 1.81641 q 0.33203,0 1.09375,1.2695313 -0.76172,1.2695312 -2.73438,1.2695312 -0.27344,0.5273438 -2.53906,2.1679688 0,0.8007812 -1.44531,1.99218746 -0.17579,0.72265625 -0.72266,0.72265625 v 0.1953125 q 1.58203,3.45703129 1.99219,5.97656249 l -0.17578,0.7226563 q 1.05468,2.4804687 1.62109,2.5390625 0,1.5429687 1.26953,3.2617187 0.72266,1.269531 0.72266,2.734375 l 0.91797,1.796875 q 0.97656,0 1.99218,1.640625 v 0.175781 q 0,0.410157 -1.26953,0.722657 l -0.72265,-0.175782 -1.44532,0.546875 -2.1875,-0.371093 h -3.63281 l -2.89062,0.195312 q -1.09375,-0.429687 -1.09375,-0.722656 V 19.35312 q 0,-0.683593 0.91796,-1.621093 v -1.640625 q 0,-2.441407 -2.1875,-6.1718755 L 258.0332,6.8531203 q 0.44922,-0.15625 2.53907,-4.53125 1.83593,0 3.26171,-4.9023438 v -0.546875 q -0.0391,-0.4101562 -2.16796,-1.9921875 l -0.19532,-1.09375 0.72266,-0.7226562 2.1875,0.1757812 z m 5.64453,32.6562505 q -0.27344,-0.05859 -0.27344,-0.117188 l -0.23437,0.15625 -0.46875,-0.15625 h -0.23438 l -0.23437,0.15625 h -0.39063 l -0.85937,0.07813 -0.0781,-0.07813 h -0.0781 l -0.70313,0.07813 h -0.625 l -1.32812,-0.3125 q -1.09375,0.07813 -1.09375,0.46875 l -0.46875,-0.15625 -0.23438,0.07813 -0.46875,-0.15625 -0.46875,0.07813 q -0.80078,-0.09766 -0.9375,-0.234375 h -1.64062 l -1.09375,0.234375 -1.25,-0.15625 -1.40625,0.07813 -1.64063,-0.234375 q 0,0.214844 -1.17187,0.3125 l -0.3125,-0.07813 h -0.625 l -0.625,-0.234375 -1.01563,0.234375 -0.23437,-0.07813 q -1.01563,0.07813 -1.01563,0.234375 l -0.39062,-0.07813 -0.3125,0.07813 q -0.42969,-0.390625 -1.48438,-0.390625 l -0.15625,0.15625 h -0.0781 l -0.3125,-0.07813 -0.3125,0.15625 -0.625,-0.15625 -1.25,0.234375 -0.54688,-0.3125 -0.46875,0.15625 -0.0781,-0.07813 h -0.0781 l -0.78125,0.07813 -0.70312,-0.234375 q -0.23438,0.15625 -0.58594,0.234375 V 23.10312 l 0.11719,-0.01953 0.625,0.07813 0.46875,-0.15625 h 0.3125 q 0.39062,0 0.78125,0.234375 l 0.70312,-0.07813 q 0,0.09766 0.78125,0.3125 0.41016,-0.09766 0.625,-0.390625 l 0.3125,-0.07813 0.54688,0.07813 0.0781,-0.07813 2.8125,0.234375 0.3125,-0.07813 0.9375,0.234375 0.85938,-0.07813 0.625,0.07813 1.09375,-0.234375 1.32812,0.15625 0.46875,-0.15625 h 0.39063 l 0.625,0.15625 0.23437,-0.15625 h 0.15625 v 0.07813 l 1.79688,-0.15625 1.25,0.234375 q 0.44922,-0.234375 0.9375,-0.234375 0.42969,0.234375 0.85937,0.234375 l 2.42188,-0.390625 1.17187,0.3125 1.25,-0.15625 0.9375,0.15625 0.54688,-0.07813 0.0781,0.07813 h 0.0781 l 0.3125,-0.07813 0.23437,0.07813 0.23438,-0.07813 2.05078,0.214844 z m -0.15625,-35.683594 q -0.23437,-0.03906 -0.60547,-0.292969 h -0.625 l -0.3125,-0.07813 -0.3125,0.07813 -0.9375,-0.15625 q -0.46875,0.46875 -0.9375,0.46875 h -0.23437 q -0.25391,0 -0.54688,-0.234375 h -0.0781 q -0.80078,0.234375 -1.40625,0.234375 l -1.17188,-0.15625 -0.46875,0.07813 -0.39062,-0.07813 -0.0781,0.07813 -2.1875,-0.3125 -1.09375,0.3125 -0.54687,-0.07813 -0.85938,0.15625 -0.46875,-0.234375 -0.0781,0.07813 h -0.0781 l -0.3125,-0.07813 -0.70312,0.234375 -0.23438,-0.234375 -0.39062,0.07813 h -0.78125 l -0.9375,0.07813 -0.15625,-0.15625 -0.15625,0.15625 -0.78125,-0.07813 h -0.70313 l -0.78125,0.390625 -1.25,-0.3125 -0.0781,0.07813 h -0.0781 l -0.625,-0.234375 h -0.85937 l -0.3125,0.15625 -0.3125,-0.15625 -0.70313,0.07813 -0.0781,-0.07813 -0.625,0.15625 h -0.23438 l -0.9375,-0.234375 -0.78125,0.15625 -0.3125,-0.07813 -1.09375,0.234375 -0.0781,-0.07813 h -0.0781 l -0.54687,0.15625 -0.23438,-0.07813 -0.54687,0.15625 -0.15625,-0.058594 v -2.792968 l 0.39062,-0.03906 2.34375,0.46875 0.85938,-0.07813 0.46875,0.15625 h 0.0781 l 0.0781,-0.07813 0.625,0.15625 q 0,-0.175781 1.32812,-0.46875 0.29297,-0.3125 0.625,-0.390625 0.56641,0.546875 1.17188,0.546875 l 0.39062,-0.234375 q 0.17578,0.253906 1.17188,0.46875 l 0.9375,-0.234375 0.85937,0.07813 h 0.39063 l 0.46875,-0.234375 q 0.37109,0.234375 0.70312,0.234375 0.66406,0 1.09375,-0.15625 l 1.71875,0.234375 q 0.11719,-0.3125 0.23438,-0.3125 h 0.70312 l 0.0781,-0.07813 1.01562,0.46875 h 0.0781 l 2.1875,-0.546875 0.39062,0.390625 q 0.46875,0 0.625,0.15625 h 0.23438 l 0.39062,-0.234375 0.0781,0.07813 h 0.15625 q 0.39062,0 0.39062,-0.234375 h 0.23438 v 0.15625 h 0.23437 l 0.23438,-0.234375 q 0.85937,0.07813 1.79687,0.390625 h 0.39063 q 0.54687,0 2.10937,-0.546875 0.70313,0.292969 1.99219,0.3125 z"
       style="font-style:normal;font-variant:normal;font-weight:normal;font-stretch:normal;font-family:'Top Secret';-inkscape-font-specification:'Top Secret';fill:#00ff00"
       id="path76" />
    <path
       inkscape:connector-curvature="0"
       d="m 281.91992,-7.5218797 q 1.75781,0.3515625 1.75781,0.703125 v 0.5273437 q 0,1.328125 -2.10937,1.953125 l -0.72266,2.1289063 q 1.01563,2.65624996 2.12891,2.65624996 0.13672,0.5078125 3.73047,1.40625004 2.73437,2.4804687 4.23828,2.4804687 0,0.3125 1.77734,1.7773438 v 1.2304687 q 0.52735,0 0.52735,0.3515625 l -0.17578,0.7226563 q 0.70312,0.9570312 0.70312,3.1835937 -0.41016,0 -0.70312,3.183594 -1.79688,1.914062 -3.35938,4.433594 -4.02344,1.230468 -5.48828,1.230468 h -0.17578 q -0.3711,0 -0.54688,-1.054687 0.3125,-1.777344 1.60157,-1.777344 1.75781,0 1.95312,-1.601562 v -1.582032 q -0.83984,-3.359375 -4.43359,-3.359375 -0.17578,-0.566406 -3.00782,-1.425781 0,-0.5273437 -2.83203,-1.5820312 Q 275.82617,5.583589 275.37695,5.583589 V 4.6851515 l -1.42578,-1.9335937 0.87891,-1.77734379 -0.52735,-1.77734375 0.52735,-0.17578125 V -1.8578172 q 2.34375,-3.7304688 3.90625,-4.4335938 l 0.17578,0.1953125 h 0.17578 q 0.52734,0 2.83203,-1.4257812 z m 10.27344,0 h 0.17578 q 0.17578,1.2304687 0.52734,1.2304687 l -0.17578,0.8984375 0.17578,1.0546875 -0.52734,1.953125 v 0.1757813 l 0.70313,1.95312496 v 0.52734375 q 0,0.83984379 -1.07422,1.75781249 h -0.87891 V 0.27108901 q -2.10937,-3.39843751 -2.65625,-3.73046871 -2.94922,-1.4453125 -3.35937,-1.9335938 V -5.744536 q 0,-1.4257812 0.70312,-1.4257812 3.45703,0.4882812 4.08203,1.0742187 h 0.70313 q 0,-1.1523437 1.60156,-1.4257812 z m -17.1875,17.34375 h 0.54687 q 0.70313,0.1953127 1.40625,1.9531247 v 0.175782 l -0.17578,0.878906 q 1.15235,0.976562 1.95313,3.730469 v 0.175781 h 0.8789 l 2.83204,2.109375 v 0.898437 q 0,0.527344 -1.95313,0.527344 -0.0977,-0.429687 -1.23047,-0.878906 l -0.17578,0.175781 h -0.17578 q -1.07422,-0.429687 -1.07422,-0.722656 -1.17187,0 -2.10937,1.425781 h -0.54688 l -0.52734,-0.878906 0.17578,-0.898438 -0.35156,-0.351562 v -1.230469 l -0.35157,-1.074219 0.35157,-1.40625 v -1.25 l -0.17579,-0.703125 q 0.23438,-2.6562497 0.70313,-2.6562497 z m 20.99609,-20.0781253 -0.64453,0.05859 -0.23437,-0.07813 -0.23438,0.07813 -0.3125,-0.07813 h -0.0781 l -0.0781,0.07813 -0.54687,-0.07813 -0.9375,0.15625 -1.25,-0.15625 -1.17188,0.3125 -2.42187,-0.390625 q -0.42969,0 -0.85938,0.234375 -0.48828,0 -0.9375,-0.234375 l -1.25,0.234375 -1.79687,-0.15625 v 0.07813 h -0.15625 l -0.23438,-0.15625 -0.625,0.15625 h -0.39062 l -0.46875,-0.15625 -1.32813,0.15625 -1.09375,-0.234375 -0.625,0.07813 -0.85937,-0.07813 -0.9375,0.234375 -0.3125,-0.07813 -2.5,0.214844 v -2.460938 l 0.0781,-0.01953 h 0.0781 l 0.15625,0.15625 q 1.05468,0 1.48437,-0.390625 l 0.3125,0.07813 0.39063,-0.07813 q 0,0.15625 1.01562,0.234375 l 0.23438,-0.07813 1.01562,0.234375 0.625,-0.234375 h 0.625 l 0.3125,-0.07813 q 1.17188,0.09766 1.17188,0.3125 l 1.64062,-0.234375 1.40625,0.07813 1.25,-0.15625 1.09375,0.234375 h 1.64063 q 0.13672,-0.136719 0.9375,-0.234375 l 0.46875,0.07813 0.46875,-0.15625 0.23437,0.07813 0.46875,-0.15625 q 0,0.390625 1.09375,0.46875 l 1.32813,-0.3125 h 0.625 l 0.70312,0.07813 h 0.0781 l 0.0781,-0.07813 0.85938,0.07813 h 0.39062 l 0.0195,0.01953 z m 0,35.585938 q -1.15234,0.03906 -2.46093,0.292969 l -0.85938,-0.3125 -1.01562,0.15625 -0.625,-0.07813 -0.46875,0.15625 h -0.3125 q -0.3711,0 -0.78125,-0.234375 l -0.70313,0.07813 q 0,-0.09766 -0.78125,-0.3125 -0.41016,0.09766 -0.625,0.390625 l -0.3125,0.07813 -0.54687,-0.07813 -0.0781,0.07813 -2.8125,-0.234375 -0.3125,0.07813 -0.9375,-0.234375 -0.85937,0.07813 -0.625,-0.07813 -1.09375,0.234375 -1.32813,-0.15625 -0.46875,0.15625 h -0.39062 l -0.625,-0.15625 -0.23438,0.15625 h -0.15625 v -0.07813 l -1.79687,0.15625 -1.07422,-0.195313 V 23.025 l 0.60547,-0.136718 1.25,0.15625 1.40625,-0.07813 1.64062,0.234375 q 0,-0.214844 1.17188,-0.3125 l 0.3125,0.07813 h 0.625 l 0.625,0.234375 1.01562,-0.234375 0.23438,0.07813 q 1.01562,-0.07813 1.01562,-0.234375 l 0.39063,0.07813 0.3125,-0.07813 q 0.42968,0.390625 1.48437,0.390625 l 0.15625,-0.15625 h 0.0781 l 0.3125,0.07813 0.3125,-0.15625 0.625,0.15625 1.25,-0.234375 0.54687,0.3125 0.46875,-0.15625 0.0781,0.07813 h 0.0781 l 0.78125,-0.07813 0.70313,0.234375 q 0.46875,-0.3125 1.40625,-0.3125 l 0.70312,0.15625 q 0.54688,0 0.85938,-0.15625 l 0.85937,0.07813 h 0.70313 l 0.0781,-0.07813 0.19531,0.03906 z"
       style="font-style:normal;font-variant:normal;font-weight:normal;font-stretch:normal;font-family:'Top Secret';-inkscape-font-specification:'Top Secret';fill:#00ff00"
       id="path78" />
    <path
       inkscape:connector-curvature="0"
       d="m 296.60742,-12.482817 q 0.33203,-0.253906 1.05469,-0.292969 v 0.07813 q 1.01562,0.07813 1.01562,0.3125 v 0.07813 l -0.0781,0.46875 0.23437,0.859375 q -0.13671,0 -0.15625,1.171875 0,0.390625 0.23438,0.46875 l -0.0781,0.078125 0.0781,0.625 q 0,0.234375 -0.3125,0.546875 v 0.078125 h 0.15625 v 0.078125 l -0.23438,0.234375 v 0.15625 q 0.54688,0.703125 0.54688,1.09375 -0.39063,0.8007813 -0.39063,1.171875 l 0.15625,1.328125 -0.15625,0.546875 v 1.09375 l 0.3125,1.48437501 v 0.234375 q 0,0.29296875 -0.54687,1.09375 0.23437,0.62499999 0.23437,1.64062499 l -0.0781,1.5625 0.23437,1.25 -0.23437,0.46875 0.0781,0.234375 -0.0781,0.3125 0.15625,0.625 -0.0781,0.078125 v 0.703125 l 0.0781,0.859375 q -0.15625,0.3125 -0.15625,0.859375 l 0.15625,0.703125 q 0,0.9375 -0.3125,1.40625 l 0.23437,0.703125 -0.0781,0.78125 v 0.07813 l 0.0781,0.07813 -0.15625,0.46875 0.3125,0.546875 -0.23437,1.25 0.15625,0.625 -0.15625,0.3125 0.0781,0.3125 v 0.07813 l -0.15625,0.15625 q 0,1.054688 0.39063,1.484375 l -0.0781,0.3125 0.0781,0.390625 q -0.15625,0 -0.23438,1.015625 l 0.0781,0.234375 -0.23438,1.015625 0.23438,0.625 v 0.625 l 0.0781,0.3125 q -0.0976,1.171875 -0.3125,1.171875 l 0.21485,1.503906 -1.36719,0.07813 v 0.195313 q -0.54687,0.05859 -1.46484,0.09766 l -1.32813,-0.3125 h -0.3125 l -0.0781,0.07813 -0.0781,-0.07813 -0.0391,-2.167969 0.66406,-0.09766 1.09375,0.3125 0.58594,-0.117187 -0.0781,-0.664063 0.23438,-1.09375 -0.0781,-0.625 0.0781,-0.859375 -0.23438,-0.9375 0.0781,-0.3125 -0.23438,-2.8125 0.0781,-0.07813 -0.0781,-0.546875 0.0781,-0.3125 q 0.29297,-0.214844 0.39062,-0.625 -0.21484,-0.78125 -0.3125,-0.78125 l 0.0781,-0.703125 q -0.23438,-0.410156 -0.23438,-0.78125 v -0.3125 l 0.15625,-0.46875 -0.0781,-0.625 0.15625,-1.015625 -0.3125,-0.859375 q 0.3125,-1.640625 0.3125,-3.046875 v -0.07815 l -0.0781,-0.078125 0.0781,-0.078125 -0.0781,-0.625 0.0781,-0.46875 q 0,-0.3125 -0.23438,-0.3125 0,-0.4882812 0.39063,-1.875 l -0.3125,-1.25 V 0.73983901 l 0.0781,-1.09375 -0.0781,-0.234375 q 0.23437,-0.83984371 0.23437,-1.40625001 v -0.390625 l -0.15625,-0.625 v -0.234375 l 0.23438,-1.40625 -0.15625,-0.46875 v -0.078125 l 0.0781,-0.078125 -0.0781,-1.09375 v -0.234375 l 0.0781,-0.390625 -0.0781,-0.078125 0.0781,-0.625 -0.0781,-0.234375 0.0781,-0.3125 q -0.3125,-0.3320312 -0.46875,-1.09375 0.19532,-0.2539062 0.29297,-0.839844 -0.80078,-0.05859 -0.89843,-0.175781 h -0.0781 l -0.0781,0.07813 -0.3125,-0.15625 q 0,0.175781 -0.87891,0.292969 v -2.480469 h 0.0195 l 1.48438,0.07813 0.625,-0.07813 q 0,0.09766 0.41015,0.136719 z"
       style="font-style:normal;font-variant:normal;font-weight:normal;font-stretch:normal;font-family:'Top Secret';-inkscape-font-specification:'Top Secret';fill:#00ff00"
       id="path80" />
  </g>
</svg>
