<?xml version="1.0" encoding="UTF-8" standalone="no"?>
<!-- Generator: Adobe Illustrator 24.1.3, SVG Export Plug-In . SVG Version: 6.00 Build 0)  -->

<svg
   xmlns:dc="http://purl.org/dc/elements/1.1/"
   xmlns:cc="http://creativecommons.org/ns#"
   xmlns:rdf="http://www.w3.org/1999/02/22-rdf-syntax-ns#"
   xmlns:svg="http://www.w3.org/2000/svg"
   xmlns="http://www.w3.org/2000/svg"
   xmlns:sodipodi="http://sodipodi.sourceforge.net/DTD/sodipodi-0.dtd"
   xmlns:inkscape="http://www.inkscape.org/namespaces/inkscape"
   version="1.1"
   id="Layer_1"
   x="0px"
   y="0px"
   viewBox="0 0 496.14469 112.55261"
   xml:space="preserve"
   sodipodi:docname="gc.svg"
   width="496.14471"
   height="112.55261"
   inkscape:version="0.92.5 (2060ec1f9f, 2020-04-08)"><metadata
   id="metadata417"><rdf:RDF><cc:Work
       rdf:about=""><dc:format>image/svg+xml</dc:format><dc:type
         rdf:resource="http://purl.org/dc/dcmitype/StillImage" /><dc:title /></cc:Work></rdf:RDF></metadata><defs
   id="defs415" /><sodipodi:namedview
   pagecolor="#ffffff"
   bordercolor="#666666"
   borderopacity="1"
   objecttolerance="10"
   gridtolerance="10"
   guidetolerance="10"
   inkscape:pageopacity="0"
   inkscape:pageshadow="2"
   inkscape:window-width="1366"
   inkscape:window-height="740"
   id="namedview413"
   showgrid="false"
   inkscape:pagecheckerboard="true"
   inkscape:zoom="1.1268625"
   inkscape:cx="316.99586"
   inkscape:cy="-25.42224"
   inkscape:window-x="0"
   inkscape:window-y="0"
   inkscape:window-maximized="1"
   inkscape:current-layer="Layer_1" />
<linearGradient
   id="SVGID_1_"
   gradientUnits="userSpaceOnUse"
   x1="24.410601"
   y1="33.928501"
   x2="104.7391"
   y2="47.291302"
   gradientTransform="matrix(0.90622074,0,0,-0.90622074,7.3e-6,113.61714)">
	<stop
   offset="3.680000e-02"
   style="stop-color:#FFFFFF"
   id="stop281" />
	<stop
   offset="0.8957"
   style="stop-color:#898CBF"
   id="stop283" />
</linearGradient>
<path
   style="fill:url(#SVGID_1_);stroke-width:0.90622073"
   d="m 81.106758,56.548168 v 18.305656 l -32.442705,18.66815 -32.170836,-18.66815 -1.449953,0.99685 33.620789,19.66499 33.892659,-19.57437 V 55.73257 Z"
   id="path286"
   inkscape:connector-curvature="0" />
<path
   style="fill:#7a7eae;stroke-width:0.90622073"
   d="m 81.106758,74.763204 1.449954,1.08747 v 0.0906 l -0.09062,0.0906 -1.540576,-1.08746 z"
   id="path288"
   inkscape:connector-curvature="0" />
<linearGradient
   id="SVGID_2_"
   gradientUnits="userSpaceOnUse"
   x1="28.416"
   y1="70.221603"
   x2="54.004002"
   y2="70.221603"
   gradientTransform="matrix(0.90622074,0,0,-0.90622074,7.3e-6,113.61714)">
	<stop
   offset="0"
   style="stop-color:#6E70A9"
   id="stop290" />
	<stop
   offset="0.9693"
   style="stop-color:#514A8E"
   id="stop292" />
</linearGradient>
<path
   style="fill:url(#SVGID_2_);stroke-width:0.90622073"
   d="M 48.93592,56.366924 26.099157,43.045482 25.736669,43.40797 48.664053,57.001279 Z"
   id="path295"
   inkscape:connector-curvature="0" />
<linearGradient
   id="SVGID_3_"
   gradientUnits="userSpaceOnUse"
   x1="53.812"
   y1="63.065601"
   x2="54.139599"
   y2="63.065601"
   gradientTransform="matrix(0.90622074,0,0,-0.90622074,7.3e-6,113.61714)">
	<stop
   offset="0"
   style="stop-color:#6E70A9"
   id="stop297" />
	<stop
   offset="0.9693"
   style="stop-color:#514A8E"
   id="stop299" />
</linearGradient>
<path
   style="fill:url(#SVGID_3_);stroke-width:0.90622073"
   d="m 48.845298,56.366924 h 0.181244 v 0.181244 h -0.271866 z"
   id="path302"
   inkscape:connector-curvature="0" />
<path
   style="fill:#120f22;stroke-width:0.90622073"
   d="m 48.93592,57.001279 v -0.543733 l 48.57343,-28.09284 0.181244,0.362489 z"
   id="path304"
   inkscape:connector-curvature="0" />
<path
   style="fill:#453d76;stroke-width:0.90622073"
   d="m 48.93592,112.55261 0.362488,-16.765086 33.711414,-19.39312 0.09062,-20.843078 h -0.634354 v 20.389968 l -33.892659,19.57437 -0.09062,17.036946 z"
   id="path306"
   inkscape:connector-curvature="0" />
<linearGradient
   id="SVGID_4_"
   gradientUnits="userSpaceOnUse"
   x1="64.079498"
   y1="58.474602"
   x2="108.721"
   y2="29.169001"
   gradientTransform="matrix(0.90622074,0,0,-0.90622074,7.3e-6,113.61714)">
	<stop
   offset="0"
   style="stop-color:#4C5284"
   id="stop308" />
	<stop
   offset="1"
   style="stop-color:#8789BC"
   id="stop310" />
</linearGradient>
<path
   style="fill:url(#SVGID_4_);stroke-width:0.90622073"
   d="M 48.93592,82.647324 V 57.001279 L 97.690594,28.727195 V 84.459764 L 48.93592,112.55261 V 95.606284 L 82.828578,76.122534 V 55.551326 l -11.327762,6.524788 v 7.24977 z"
   id="path313"
   inkscape:connector-curvature="0" />
<linearGradient
   id="SVGID_5_"
   gradientUnits="userSpaceOnUse"
   x1="53.459499"
   y1="1.8017"
   x2="53.148499"
   y2="21.7047"
   gradientTransform="matrix(0.90622074,0,0,-0.90622074,7.3e-6,113.61714)">
	<stop
   offset="0.1104"
   style="stop-color:#4C407E"
   id="stop315" />
	<stop
   offset="0.8896"
   style="stop-color:#666699"
   id="stop317" />
	<stop
   offset="1"
   style="stop-color:#9BA5CD"
   id="stop319" />
</linearGradient>
<path
   style="fill:url(#SVGID_5_);stroke-width:0.90622073"
   d="m 48.392187,112.55261 h 0.271866 V 95.515664 l -0.996842,-0.54374 z"
   id="path322"
   inkscape:connector-curvature="0" />
<path
   style="fill:#2d2868;stroke-width:0.90622073"
   d="m 14.952642,36.883181 0.181244,0.181244 0.09062,38.604999 -0.181244,0.18125 -0.09062,-0.0906 z"
   id="path324"
   inkscape:connector-curvature="0" />
<path
   style="fill:#453d76;stroke-width:0.90622073"
   d="m 16.493217,74.853824 -1.449953,0.99685 V 36.973803 L 48.93592,17.399438 v 1.903064 L 16.583839,38.061268 Z"
   id="path326"
   inkscape:connector-curvature="0" />
<path
   style="fill:#453d76;stroke-width:0.90622073"
   d="m 48.93592,56.276302 v 26.371022 l -0.271867,0.18125 V 57.001279 56.18568 Z"
   id="path328"
   inkscape:connector-curvature="0" />
<linearGradient
   id="SVGID_6_"
   gradientUnits="userSpaceOnUse"
   x1="4.8186998"
   y1="45.6684"
   x2="66.020897"
   y2="62.677502"
   gradientTransform="matrix(0.90622074,0,0,-0.90622074,7.3e-6,113.61714)">
	<stop
   offset="0.2331"
   style="stop-color:#666699"
   id="stop330" />
	<stop
   offset="0.7239"
   style="stop-color:#A7B3D9"
   id="stop332" />
</linearGradient>
<path
   style="fill:url(#SVGID_6_);stroke-width:0.90622073"
   d="m 25.736669,43.40797 v 26.189774 l 22.927384,13.23083 V 57.001279 Z"
   id="path335"
   inkscape:connector-curvature="0" />
<linearGradient
   id="SVGID_7_"
   gradientUnits="userSpaceOnUse"
   x1="5.8772998"
   y1="41.8694"
   x2="67.075203"
   y2="58.8773"
   gradientTransform="matrix(0.90622074,0,0,-0.90622074,7.3e-6,113.61714)">
	<stop
   offset="0.2331"
   style="stop-color:#666699"
   id="stop337" />
	<stop
   offset="0.9907"
   style="stop-color:#A7B3D9"
   id="stop339" />
</linearGradient>
<path
   style="fill:url(#SVGID_7_);stroke-width:0.90622073"
   d="M 48.392187,112.28074 V 95.334414 L 15.043264,75.850674 V 37.155047 L 0,28.274084 v 56.27631 l 48.392187,28.002216 z"
   id="path342"
   inkscape:connector-curvature="0" />
<path
   style="fill:#2d2868;stroke-width:0.90622073"
   d="m 15.043264,36.973803 h -0.271866 v 38.876871 h 0.271866 z"
   id="path344"
   inkscape:connector-curvature="0" />
<path
   style="fill:#2d2868;stroke-width:0.90622073"
   d="M 15.043264,36.973803 0.1812441,28.09284 0,28.274084 14.952642,37.064425 Z"
   id="path346"
   inkscape:connector-curvature="0" />
<linearGradient
   id="SVGID_8_"
   gradientUnits="userSpaceOnUse"
   x1="19.581699"
   y1="38.9865"
   x2="43.916599"
   y2="25.964899"
   gradientTransform="matrix(0.90622074,0,0,-0.90622074,7.3e-6,113.61714)">
	<stop
   offset="0"
   style="stop-color:#6E70A9"
   id="stop348" />
	<stop
   offset="0.9693"
   style="stop-color:#514A8E"
   id="stop350" />
</linearGradient>
<path
   style="fill:url(#SVGID_8_);stroke-width:0.90622073"
   d="m 48.392187,95.425034 v 0.36249 L 14.771398,76.122534 v -0.27186 h 0.271866 z"
   id="path353"
   inkscape:connector-curvature="0" />
<linearGradient
   id="SVGID_9_"
   gradientUnits="userSpaceOnUse"
   x1="55.7295"
   y1="103.1455"
   x2="71.179901"
   y2="95.628998"
   gradientTransform="matrix(0.90622074,0,0,-0.90622074,7.3e-6,113.61714)">
	<stop
   offset="3.680000e-02"
   style="stop-color:#9EA5D3"
   id="stop355" />
	<stop
   offset="0.9018"
   style="stop-color:#7675AE"
   id="stop357" />
</linearGradient>
<path
   style="fill:url(#SVGID_9_);stroke-width:0.90622073"
   d="m 48.93592,17.399438 21.658675,12.687088 v 1.903063 L 48.93592,19.302502 Z"
   id="path360"
   inkscape:connector-curvature="0" />
<path
   style="fill:#484592;stroke-width:0.90622073"
   d="m 70.594595,29.995904 v 1.903063 l 15.043267,-8.790341 v -1.812439 z"
   id="path362"
   inkscape:connector-curvature="0" />
<linearGradient
   id="SVGID_10_"
   gradientUnits="userSpaceOnUse"
   x1="49.382401"
   y1="120.8534"
   x2="45.7379"
   y2="80.358398"
   gradientTransform="matrix(0.90622074,0,0,-0.90622074,7.3e-6,113.61714)">
	<stop
   offset="0"
   style="stop-color:#AAACD2"
   id="stop364" />
	<stop
   offset="0.6258"
   style="stop-color:#FCFAFB"
   id="stop366" />
</linearGradient>
<path
   style="fill:url(#SVGID_10_);stroke-width:0.90622073"
   d="M 48.754676,0 85.54724,21.386809 70.503973,30.086526 48.93592,17.399438 15.043264,36.973803 0.1812441,28.09284 Z"
   id="path369"
   inkscape:connector-curvature="0" />
<linearGradient
   id="SVGID_11_"
   gradientUnits="userSpaceOnUse"
   x1="71.774902"
   y1="125.5353"
   x2="68.130302"
   y2="85.039497"
   gradientTransform="matrix(0.90622074,0,0,-0.90622074,7.3e-6,113.61714)">
	<stop
   offset="0.6743"
   style="stop-color:#AAACD2"
   id="stop371" />
	<stop
   offset="1"
   style="stop-color:#FCFAFB"
   id="stop373" />
</linearGradient>
<path
   style="fill:url(#SVGID_11_);stroke-width:0.90622073"
   d="M 26.099157,43.045482 48.664053,30.358392 70.141485,42.50175 96.331263,27.458486 97.599972,28.364706 48.93592,56.366924 Z"
   id="path376"
   inkscape:connector-curvature="0" />
<path
   style="fill:#ffffff;stroke-width:0.90622073"
   d="m 320.88161,19.21188 v -4.440482 h -12.77772 c -1.63119,0 -3.17177,0.362488 -4.62172,0.996843 -1.35933,0.634354 -2.4468,1.540575 -3.2624,2.62804 -0.81559,1.087465 -1.17808,2.265552 -1.2687,3.62488 v 13.865177 c 0.0906,1.268709 0.45311,2.446796 1.17808,3.534261 0.8156,1.087465 1.90307,1.903064 3.17177,2.62804 1.35934,0.634355 2.80929,0.996843 4.62173,0.996843 h 12.95896 v -4.440481 h -12.41523 c -0.99684,0 -1.90306,-0.271867 -2.71866,-0.815599 -0.72498,-0.543733 -1.17809,-1.178087 -1.17809,-2.084308 v -5.165458 h 16.4026 V 25.91791 h -16.4026 v -3.715505 c 0,-0.906218 0.45311,-1.631194 1.17809,-2.174927 0.8156,-0.543732 1.72182,-0.815598 2.71866,-0.815598 h 12.41523"
   id="path378"
   inkscape:connector-curvature="0" />
<path
   style="fill:#ffffff;stroke-width:0.90622073"
   d="m 397.45726,14.680776 v 28.364706 h 13.68393 c 1.72182,-0.09062 3.2624,-0.362488 4.62173,-0.996843 1.44995,-0.724976 2.53742,-1.540575 3.35301,-2.62804 0.8156,-1.087465 1.17809,-2.356174 1.26871,-3.715505 V 22.021161 c -0.0906,-1.359328 -0.45311,-2.537415 -1.26871,-3.62488 -0.81559,-1.087465 -1.90306,-1.993686 -3.35301,-2.62804 -1.35933,-0.634355 -2.89991,-0.996843 -4.62173,-0.996843 h -13.68393 z m 16.13073,5.346702 c 0.8156,0.543733 1.17808,1.268709 1.26871,2.174927 v 13.412067 c -0.0906,0.906221 -0.45311,1.631197 -1.26871,2.17493 -0.72498,0.634354 -1.6312,0.906221 -2.62804,0.906221 h -7.97474 V 19.030635 h 7.97474 c 0.99684,0 1.90306,0.271867 2.62804,0.996843 z"
   id="path380"
   inkscape:connector-curvature="0" />
<path
   style="fill:#ffffff;stroke-width:0.90622073"
   d="m 464.51759,15.677619 c -1.35933,-0.634355 -2.8999,-0.906221 -4.62172,-0.996843 h -4.98422 c -1.72182,0.09062 -3.26239,0.362488 -4.62172,0.996843 -1.44996,0.724976 -2.53742,1.540575 -3.35302,2.62804 -0.8156,1.087465 -1.26871,2.356174 -1.26871,3.715502 V 35.97696 c 0,1.359332 0.45311,2.537419 1.26871,3.624883 0.8156,1.087465 1.90306,1.993686 3.35302,2.628041 1.35933,0.634354 2.8999,0.996842 4.62172,0.996842 h 4.98422 c 1.72182,0 3.26239,-0.362488 4.62172,-0.996842 1.44996,-0.634355 2.53742,-1.540576 3.35302,-2.628041 0.8156,-1.087464 1.26871,-2.356174 1.26871,-3.624883 V 21.930539 c -0.0906,-1.359328 -0.45311,-2.628037 -1.26871,-3.715502 -0.90622,-0.996843 -1.99369,-1.812442 -3.35302,-2.537418 z m -2.17493,4.259237 c 0.8156,0.634355 1.26871,1.359331 1.26871,2.174927 v 13.683933 c 0,0.815599 -0.45311,1.540576 -1.26871,2.17493 -0.72497,0.543733 -1.63119,0.906221 -2.62804,0.906221 h -4.62172 c -0.99685,0 -1.90307,-0.362488 -2.71866,-0.906221 -0.72498,-0.634354 -1.17809,-1.359331 -1.17809,-2.17493 V 22.021161 c 0,-0.815596 0.45311,-1.540572 1.17809,-2.174927 0.81559,-0.543732 1.72181,-0.815599 2.71866,-0.906221 h 4.62172 c 0.99685,0.181245 1.90307,0.453111 2.62804,0.996843 z"
   id="path382"
   inkscape:connector-curvature="0" />
<path
   style="fill:#ffffff;stroke-width:0.90622073"
   d="m 135.83133,14.680776 h -5.61857 v 18.124412 l -9.51531,-18.124412 h -7.61226 v 28.364706 h 5.61857 V 20.933699 l 11.59963,22.111783 h 5.52794 z"
   id="path384"
   inkscape:connector-curvature="0" />
<path
   style="fill:#ffffff;stroke-width:0.90622073"
   d="m 226.81589,14.680776 h -5.61856 v 18.124412 l -9.51532,-18.124412 h -7.61226 v 28.364706 h 5.61857 V 20.933699 l 11.59963,22.111783 h 5.52794 z"
   id="path386"
   inkscape:connector-curvature="0" />
<path
   style="fill:#ffffff;stroke-width:0.90622073"
   d="m 370.5425,14.680776 h -5.61857 v 18.124412 l -9.51531,-18.124412 h -7.61226 v 28.364706 h 5.61857 V 20.933699 l 11.59963,22.111783 h 5.52794 z"
   id="path388"
   inkscape:connector-curvature="0" />
<path
   style="fill:#ffffff;stroke-width:0.90622073"
   d="M 173.16763,43.045482 V 14.680776 h -6.43417 v 28.364706 z"
   id="path390"
   inkscape:connector-curvature="0" />
<path
   style="fill:#ffffff;stroke-width:0.90622073"
   d="m 251.4651,14.680776 v 4.440482 h 9.42469 v 23.924224 h 6.07168 V 19.21188 h 9.51532 v -4.440482 l -25.01169,-0.09062"
   id="path392"
   inkscape:connector-curvature="0" />
<path
   style="fill:#ffffff;stroke-width:0.90622073"
   d="m 475.30162,62.529224 v -7.702875 h -38.69563 v 36.430075 h 39.05812 v -8.24661 h -28.90844 v -6.88728 h 16.58384 v -7.70287 h -16.58384 v -5.89044 z"
   id="path394"
   inkscape:connector-curvature="0" />
<path
   style="fill:#ffffff;stroke-width:0.90622073"
   d="m 432.25614,62.347984 c 0.0906,-2.53742 -0.63436,-4.531107 -2.17493,-5.709193 -1.44996,-1.26871 -3.71551,-1.903064 -6.79666,-1.903064 H 391.4762 v 36.520697 h 29.5428 c 7.7935,-0.0906 11.509,-2.62804 11.509,-7.7935 v -4.44048 c 0,-3.08115 -1.35933,-5.3467 -4.16861,-6.61541 2.53741,-1.17809 3.80612,-3.17178 3.80612,-5.98106 v -4.07799 z m -9.87781,0.18124 c 0.36249,0.36249 0.54373,0.72498 0.45311,1.26871 v 3.26239 c 0.0906,0.45312 -0.0906,0.90623 -0.45311,1.17809 l -2.53742,0.45311 h -18.21504 v -6.61541 h 18.21504 c 1.35933,0.0906 2.26555,0.27187 2.53742,0.45311 z m -20.75246,20.75246 v -7.15915 h 18.30566 c 1.35933,0 2.17493,0.18125 2.62804,0.45311 0.36249,0.36249 0.54374,0.90622 0.54374,1.81244 v 2.62804 c 0,0.8156 -0.18125,1.44996 -0.54374,1.72182 -0.45311,0.36249 -1.26871,0.54374 -2.62804,0.54374 z"
   id="path396"
   inkscape:connector-curvature="0" />
<path
   style="fill:#ffffff;stroke-width:0.90622073"
   d="M 387.12634,54.826349 H 376.88605 V 83.100434 H 354.86488 V 54.826349 h -10.14967 v 27.458485 c -0.0906,2.26556 0.27187,4.078 0.90622,5.43733 0.54374,1.26871 1.6312,2.26555 3.08115,2.80928 1.44996,0.63436 3.35302,0.90622 5.89044,0.8156 h 22.74614 c 2.53742,0.0906 4.5311,-0.18124 5.98106,-0.8156 1.44995,-0.54373 2.44679,-1.54057 3.08115,-2.80928 0.63435,-1.35933 0.90622,-3.17177 0.90622,-5.43733 l -0.18125,-27.458485"
   id="path398"
   inkscape:connector-curvature="0" />
<path
   style="fill:#ffffff;stroke-width:0.90622073"
   d="m 339.54975,58.541854 c -0.63435,-1.359331 -1.72182,-2.265552 -3.08115,-2.899906 -1.44995,-0.543733 -3.44364,-0.815599 -5.89043,-0.815599 h -22.29303 c -2.53742,0 -4.44048,0.271866 -5.89044,0.815599 -1.44995,0.634354 -2.53741,1.540575 -3.08115,2.899906 -0.63435,1.35933 -0.99684,3.17177 -0.90622,5.43732 v 18.30566 c -0.0906,2.26556 0.27187,4.078 0.90622,5.43733 0.54374,1.26871 1.6312,2.26555 3.08115,2.80928 1.44996,0.63436 3.35302,0.90622 5.89044,0.8156 h 22.29303 c 2.44679,0.0906 4.44048,-0.18124 5.89043,-0.8156 1.35933,-0.54373 2.4468,-1.54057 3.08115,-2.80928 0.54374,-1.35933 0.90622,-3.17177 0.90622,-5.43733 v -6.70603 l -10.24029,0.0906 v 7.43101 H 308.557 v -20.20872 h 21.65868 v 6.52479 h 10.24029 v -5.43733 c 0,-2.35617 -0.36248,-4.16861 -0.90622,-5.43732 z"
   id="path400"
   inkscape:connector-curvature="0" />
<path
   style="fill:#ffffff;stroke-width:0.90622073"
   d="M 290.97632,62.529224 V 54.826349 H 252.2807 v 36.430075 h 39.05811 v -8.24661 h -28.90844 v -6.88728 h 16.58384 v -7.70287 h -16.58384 v -5.89044 z"
   id="path402"
   inkscape:connector-curvature="0" />
<path
   style="fill:#ffffff;stroke-width:0.90622073"
   d="M 238.3249,54.826349 222.82852,80.653644 207.42277,54.826349 H 198.0887 V 84.912874 L 179.96428,54.826349 h -9.15283 l -21.74929,36.430075 h 27.27724 v -8.24661 h -12.14336 l 11.23714,-18.12441 15.22451,26.37102 h 16.76508 v -19.48375 l 11.59963,19.48375 h 7.52163 l 11.69025,-19.48375 v 19.48375 h 9.42469 V 54.826349 h -9.33407"
   id="path404"
   inkscape:connector-curvature="0" />
<path
   style="fill:#ffffff;stroke-width:0.90622073"
   d="m 149.87775,62.801094 v -7.974745 h -34.34576 c -2.4468,0 -4.44048,0.271866 -5.89044,0.815599 -1.44995,0.634354 -2.44679,1.540575 -3.08115,2.899906 -0.63435,1.35933 -0.90622,3.17177 -0.90622,5.43732 v 18.30566 c 0,2.26556 0.27187,4.078 0.90622,5.43733 0.63436,1.26871 1.6312,2.26555 3.08115,2.80928 1.44996,0.63436 3.44364,0.90622 5.89044,0.8156 h 25.01169 c 3.62488,0.0906 6.1623,-0.54373 7.70288,-1.90306 1.44995,-1.44996 2.17493,-3.80613 2.0843,-7.15915 V 69.416504 H 126.6785 v 7.61225 h 13.68394 v 6.07168 h -24.46796 v -20.29934 z"
   id="path406"
   inkscape:connector-curvature="0" />
<path
   style="fill:#ffffff;stroke-width:0.90622073"
   d="m 496.1447,83.372304 h -1.54058 l -1.81244,5.89043 c -0.27187,0.45311 -0.45311,0.90622 -0.45311,1.26871 -0.18124,-0.27186 -0.27187,-0.63435 -0.45311,-1.08746 l -1.99369,-6.07168 h -1.54057 v 8.33723 h 0.90622 v -7.06852 l 2.4468,7.06852 h 0.90622 l 2.44679,-6.88728 v 6.88728 h 1.08747 z"
   id="path408"
   inkscape:connector-curvature="0" />
<path
   style="fill:#ffffff;stroke-width:0.90622073"
   d="m 484.45445,84.459764 h 2.62804 v -1.08746 h -6.43417 v 1.08746 h 2.80929 v 7.24977 h 1.08746 l -0.0906,-7.24977"
   id="path410"
   inkscape:connector-curvature="0" />
</svg>