<?xml version="1.0" encoding="UTF-8" standalone="no"?>
<svg
   xmlns:dc="http://purl.org/dc/elements/1.1/"
   xmlns:cc="http://creativecommons.org/ns#"
   xmlns:rdf="http://www.w3.org/1999/02/22-rdf-syntax-ns#"
   xmlns:svg="http://www.w3.org/2000/svg"
   xmlns="http://www.w3.org/2000/svg"
   xmlns:sodipodi="http://sodipodi.sourceforge.net/DTD/sodipodi-0.dtd"
   xmlns:inkscape="http://www.inkscape.org/namespaces/inkscape"
   width="500"
   height="200"
   viewBox="0 0 500 200"
   version="1.1"
   id="svg44"
   sodipodi:docname="genesis.svg"
   style="fill:none"
   inkscape:version="0.92.5 (2060ec1f9f, 2020-04-08)">
  <metadata
     id="metadata50">
    <rdf:RDF>
      <cc:Work
         rdf:about="">
        <dc:format>image/svg+xml</dc:format>
        <dc:type
           rdf:resource="http://purl.org/dc/dcmitype/StillImage" />
        <dc:title></dc:title>
      </cc:Work>
    </rdf:RDF>
  </metadata>
  <defs
     id="defs48" />
  <sodipodi:namedview
     pagecolor="#ffffff"
     bordercolor="#666666"
     borderopacity="1"
     objecttolerance="10"
     gridtolerance="10"
     guidetolerance="10"
     inkscape:pageopacity="0"
     inkscape:pageshadow="2"
     inkscape:window-width="1366"
     inkscape:window-height="740"
     id="namedview46"
     showgrid="false"
     inkscape:pagecheckerboard="true"
     inkscape:zoom="1.2348044"
     inkscape:cx="236.5"
     inkscape:cy="59"
     inkscape:window-x="0"
     inkscape:window-y="0"
     inkscape:window-maximized="1"
     inkscape:current-layer="svg44" />
  <path
     d="m 73.221558,74.734976 c 2.638049,2.561862 6.235445,4.145668 10.202964,4.145668 l 62.688808,0.0073 -13.53895,-40.390521 c -1.84906,-4.29088 -6.18743,-7.295788 -11.39784,-7.295788 -5.18858,0 -9.59243,3.103088 -11.37289,7.376247 l -4.51277,13.157108 -0.0178,-19.853731 -21.892128,-0.01102 c -3.957021,0 -7.514193,1.544126 -10.134053,4.098338 l 0.0077,-4.080618 H 50.83946 c -4.174979,0 -7.97204,1.780243 -10.627758,4.578242 v -4.595962 l -21.126321,0.0182 C 9.9652738,31.880726 2.4841343,39.009865 2.4731186,48.43556 c 0,4.363626 1.9071646,8.321167 4.7195381,11.253256 l -4.7631222,-0.0077 v 19.199519 l 21.2853465,-0.0042 c 5.980589,-0.0073 11.907026,-3.615481 13.966972,-7.938987 l 0.06184,-0.17763 c 2.379867,4.806714 7.346541,8.120463 13.094828,8.120463 l 22.382619,-0.0042 v -4.141823"
     id="path2"
     inkscape:connector-curvature="0"
     style="fill:#ffffff;stroke-width:1.03937936" />
  <path
     d="m 5.718006,75.595582 17.949479,-0.01819 c 7.343631,0 13.295013,-5.933193 13.295013,-13.243771 0,-7.325026 -5.951382,-13.258739 -13.295013,-13.258739 l -4.661616,0.02546 c -0.367317,0 -0.665203,-0.301316 -0.665203,-0.671959 0,-0.370746 0.297886,-0.672478 0.665203,-0.672478 l 17.916925,0.0038 0.0072,-5.620963 H 19.002023 c -3.466122,0 -6.286135,2.815783 -6.286135,6.275149 0,3.462796 2.819597,6.267561 6.286135,6.267561 l 4.683651,0.06174 c 4.207512,0 7.612311,3.393366 7.612311,7.579778 0,4.189323 -3.40428,7.59038 -7.612311,7.59038 H 5.7251881 l -0.00718,5.682183"
     id="path4"
     inkscape:connector-curvature="0"
     style="fill:#0060a8;stroke-width:1.03937936" />
  <path
     d="M 5.7251466,68.593907 H 23.68557 c 3.477244,0 6.289596,-2.804766 6.289596,-6.271304 0,-3.462796 -2.812352,-6.264235 -6.289596,-6.264235 l -4.683547,-0.05072 c -4.20034,0 -7.608558,-3.397107 -7.608558,-7.594121 0,-4.185581 3.408218,-7.583197 7.608558,-7.583197 l 17.927839,-0.0038 -0.0072,-5.642468 H 19.005869 c -7.336054,0 -13.295097,5.926478 -13.295097,13.244249 0,7.317855 5.959043,13.247722 13.295097,13.247722 l 4.636151,0.0073 c 0.352558,0 0.650444,0.287389 0.650444,0.65034 0,0.356403 -0.297886,0.643272 -0.650444,0.643272 l -17.9240659,0.01434 0.00719,5.602775"
     id="path6"
     inkscape:connector-curvature="0"
     style="fill:#0060a8;stroke-width:1.03937936" />
  <path
     d="m 50.878748,69.949257 c -3.114084,0 -5.664929,-2.48183 -5.664929,-5.650586 V 46.367923 c 0,-3.0485 2.550845,-5.555795 5.664929,-5.555795 l 19.159295,0.0033 v -5.63142 H 50.878748 c -6.234925,0 -11.285373,5.032291 -11.285373,11.245628 v 17.869529 c 0,6.213826 5.050448,11.253256 11.285373,11.253256 l 19.079367,0.0073 -0.0038,-5.617534 -19.075521,0.0062"
     id="path8"
     inkscape:connector-curvature="0"
     style="fill:#0060a8;stroke-width:1.03937936" />
  <path
     d="m 46.587359,46.429662 c 0,-2.376021 1.911522,-4.301887 4.291389,-4.301887 h 19.159295 v 5.639152 H 53.53114 c -1.322298,0 -1.340591,1.311801 -1.340591,1.311801 H 65.961702 V 54.69252 H 46.580707 l 0.0067,-8.262858"
     id="path10"
     inkscape:connector-curvature="0"
     style="fill:#0060a8;stroke-width:1.03937936" />
  <path
     d="m 50.878748,68.583409 c -2.372695,0 -4.298561,-1.914849 -4.298561,-4.284218 V 56.029265 H 65.961182 V 61.65449 H 52.190133 c 0.01819,1.322299 1.340488,1.329055 1.340488,1.329055 h 16.426974 l -0.0038,5.592172 -19.075002,0.0073"
     id="path12"
     inkscape:connector-curvature="0"
     style="fill:#0060a8;stroke-width:1.03937936" />
  <path
     d="m 83.46433,69.934914 c -3.103067,0 -5.639153,-2.52881 -5.639153,-5.636243 V 46.429246 c 0,-3.110343 2.517897,-5.617596 5.62429,-5.617596 H 102.00623 V 35.184034 H 83.406333 c -6.232015,0 -11.282463,5.032291 -11.282463,11.245628 v 17.869529 c 0,6.213826 5.093998,11.253256 11.325597,11.253256 l 18.556763,0.0073 V 49.078728 H 86.058725 v 5.613688 H 96.370511 V 69.934914 H 83.46433"
     id="path14"
     inkscape:connector-curvature="0"
     style="fill:#0060a8;stroke-width:1.03937936" />
  <path
     d="m 79.14758,64.298671 c 0,2.380907 1.925866,4.31727 4.301887,4.31727 H 95.040418 V 56.02199 h -8.967765 v 5.632396 h 3.328196 l 0.0106,1.322403 h -3.313438 c -0.7232,0 -1.315126,-0.599098 -1.315126,-1.322403 L 84.75316,49.074882 c 0,0 -0.0038,-1.307955 1.330094,-1.340487 h 15.929216 l -0.007,-5.610466 -18.556768,0.0038 c -2.376022,0 -4.301888,1.925866 -4.301888,4.301887 v 17.869009"
     id="path16"
     inkscape:connector-curvature="0"
     style="fill:#0060a8;stroke-width:1.03937936" />
  <path
     d="m 119.44286,42.044001 c 0.25049,-0.71554 0.93024,-1.231364 1.73368,-1.231364 0.80344,0 1.48943,0.515824 1.73265,1.231364 l 9.0083,26.611645 h -13.19077 l 0.0146,-6.260286 h 4.408 l -1.98417,-5.897231 -6.4639,19.057229 h -6.64891 L 119.4429,42.044001"
     id="path18"
     inkscape:connector-curvature="0"
     style="fill:#0060a8;stroke-width:1.03937936" />
  <path
     d="m 133.73328,69.934914 h -14.98369 v 5.620444 h 22.80294 L 129.69322,40.466836 c -1.03938,-3.422552 -4.46518,-5.940375 -8.52084,-5.940375 -4.06189,0 -7.47729,2.506806 -8.52395,5.926478 l -11.96886,35.102938 h 5.96957 L 118.2694,41.433823 c 0.47188,-1.129837 1.58505,-1.925846 2.89259,-1.925846 1.3013,0 2.41968,0.796009 2.89571,1.918663 l 9.67558,28.508274"
     id="path20"
     inkscape:connector-curvature="0"
     style="fill:#0060a8;stroke-width:1.03937936" />
  <path
     d="m 140.06414,38.490685 c -0.74939,0.744757 -1.74823,1.159053 -2.80944,1.159053 -1.05705,0 -2.05277,-0.414296 -2.79801,-1.158575 -0.75563,-0.751939 -1.1693,-1.74384 -1.1693,-2.804703 0,-2.18016 1.78357,-3.949871 3.96731,-3.949871 1.06121,0 2.06005,0.414288 2.80944,1.155219 0.74732,0.751939 1.16619,1.740493 1.16619,2.794174 0,1.060863 -0.41887,2.052753 -1.16619,2.804703 z m -5.21872,-5.21045 c -0.64961,0.643219 -0.99884,1.500531 -0.99884,2.405269 0,0.91191 0.34819,1.765864 0.99884,2.408616 0.64649,0.64322 1.50398,0.995725 2.40928,0.995725 1.88647,0 3.41956,-1.525923 3.41956,-3.404341 0,-0.904738 -0.35651,-1.76205 -0.99988,-2.405269 -0.6465,-0.642753 -1.50399,-0.991901 -2.41968,-0.991901 -0.90426,0 -1.76175,0.34867 -2.40928,0.991901 z"
     id="path22"
     inkscape:connector-curvature="0"
     style="clip-rule:evenodd;fill:#ffffff;fill-rule:evenodd;stroke-width:1.03937936" />
  <path
     d="M 136.23715,37.887211 V 36.01981 h 1.13396 l 1.20256,1.867401 h 0.69431 L 138.03216,35.9834 c 0.006,-0.0014 0.0135,-0.0028 0.0218,-0.0045 0.24218,-0.04853 1.02483,-0.205714 1.02483,-1.198186 0,-0.407104 -0.13824,-0.773984 -0.46876,-1.01776 -0.33572,-0.253515 -0.68911,-0.257611 -1.28571,-0.264522 -0.0104,-1.04e-4 -0.0198,-2.19e-4 -0.0301,-3.43e-4 h -1.63079 v 4.38906 z m 1.16618,-2.350661 h -1.16618 v -1.551304 h 1.13396 c 0.0114,0 0.0239,-1.1e-5 0.0353,-2.1e-5 0.32221,-2.39e-4 0.60076,-4.47e-4 0.82215,0.185373 0.25049,0.203552 0.26192,0.497624 0.26192,0.614003 0,0.319464 -0.14551,0.610178 -0.55191,0.708368 -0.17461,0.04358 -0.34923,0.04358 -0.53528,0.04358 z"
     id="path24"
     inkscape:connector-curvature="0"
     style="clip-rule:evenodd;fill:#ffffff;fill-rule:evenodd;stroke-width:1.03937936" />
  <path
     d="m 318.54844,122.8996 h 48.00582 v 19.10504 l -17.14145,11.5922 h -52.98963 l 17.55407,-11.7585 h 31.02132 v -7.18253 h -48.00581 v -18.69926 l 17.72037,-11.99839 h 52.90441 l -17.47508,11.75299 h -31.59402 z"
     id="path26"
     inkscape:connector-curvature="0"
     style="clip-rule:evenodd;fill:#ffffff;fill-rule:evenodd;stroke-width:1.03937936" />
  <path
     d="m 373.25202,103.95816 h 21.55257 v 49.63868 h -21.55257 z"
     id="path28"
     inkscape:connector-curvature="0"
     style="clip-rule:evenodd;fill:#ffffff;fill-rule:evenodd;stroke-width:1.03937936" />
  <path
     d="m 424.68363,122.8996 h 48.00685 v 19.10504 l -17.14872,11.5922 h -52.9834 l 17.55408,-11.7585 h 31.02547 v -7.18253 h -48.00685 v -18.69926 l 17.71518,-11.99839 h 52.90752 l -17.47612,11.75299 h -31.59401 z"
     id="path30"
     inkscape:connector-curvature="0"
     style="clip-rule:evenodd;fill:#ffffff;fill-rule:evenodd;stroke-width:1.03937936" />
  <path
     d="m 250.2976,141.83834 v -7.18253 h 20.64935 L 288.50103,122.8996 H 250.2976 v -7.18845 h 31.10031 l 17.47508,-11.75299 h -51.35365 l -18.77743,11.51404 v 38.12464 h 52.25376 l 17.63203,-11.7585 z"
     id="path32"
     inkscape:connector-curvature="0"
     style="clip-rule:evenodd;fill:#ffffff;fill-rule:evenodd;stroke-width:1.03937936" />
  <path
     d="m 99.42057,141.83834 v -7.18253 h 20.65631 L 137.62784,122.8996 H 99.42057 v -7.18845 h 31.10311 l 17.47301,-11.75299 H 96.642725 L 77.868,115.4722 v 38.12464 h 52.25032 l 17.63619,-11.7585 z"
     id="path34"
     inkscape:connector-curvature="0"
     style="clip-rule:evenodd;fill:#ffffff;fill-rule:evenodd;stroke-width:1.03937936" />
  <path
     d="m 201.14639,137.10605 -26.77857,-16.6571 v 33.14789 h -21.55465 v -49.63868 h 21.87894 l 26.45428,14.53084 v -14.53084 h 21.55569 v 49.63868 h -21.55569 z"
     id="path36"
     inkscape:connector-curvature="0"
     style="clip-rule:evenodd;fill:#ffffff;fill-rule:evenodd;stroke-width:1.03937936" />
  <path
     d="m 23.982001,115.71115 v 26.12719 h 26.777842 v -7.18253 H 28.88018 L 46.352459,122.8996 h 25.963072 v 19.59563 l -16.49391,11.10161 H 2.4295345 V 116.04458 L 20.307691,103.95816 h 58.456981 l -17.390479,11.75299 z"
     id="path38"
     inkscape:connector-curvature="0"
     style="clip-rule:evenodd;fill:#ffffff;fill-rule:evenodd;stroke-width:1.03937936" />
  <path
     d="m 481.06372,117.47009 v -7.07661 h -2.59845 v -1.23842 h 6.75597 v 1.23842 h -2.94456 v 7.07661 z"
     id="path40"
     inkscape:connector-curvature="0"
     style="fill:#ffffff;stroke-width:1.03937936" />
  <path
     d="m 485.9145,117.47009 v -8.31503 h 2.07876 l 2.07876,6.72281 2.07876,-6.72281 h 1.90518 v 8.31503 h -1.21295 v -7.07661 l -2.07876,7.07661 h -1.21192 L 487.3,110.39348 v 7.07661 z"
     id="path42"
     inkscape:connector-curvature="0"
     style="fill:#ffffff;stroke-width:1.03937936" />
</svg>
