<?xml version="1.0" encoding="UTF-8" standalone="no"?>
<!-- Created with Inkscape (http://www.inkscape.org/) -->

<svg
   xmlns:dc="http://purl.org/dc/elements/1.1/"
   xmlns:cc="http://creativecommons.org/ns#"
   xmlns:rdf="http://www.w3.org/1999/02/22-rdf-syntax-ns#"
   xmlns:svg="http://www.w3.org/2000/svg"
   xmlns="http://www.w3.org/2000/svg"
   xmlns:sodipodi="http://sodipodi.sourceforge.net/DTD/sodipodi-0.dtd"
   xmlns:inkscape="http://www.inkscape.org/namespaces/inkscape"
   width="500"
   height="200"
   viewBox="0 0 500 200"
   version="1.1"
   id="svg8"
   sodipodi:docname="gmloader.svg"
   inkscape:version="0.92.5 (2060ec1f9f, 2020-04-08)">
  <defs
     id="defs2" />
  <sodipodi:namedview
     id="base"
     pagecolor="#ffffff"
     bordercolor="#666666"
     borderopacity="1.0"
     inkscape:pageopacity="0.0"
     inkscape:pageshadow="2"
     inkscape:zoom="3.0102744"
     inkscape:cx="308.75577"
     inkscape:cy="63.656942"
     inkscape:document-units="mm"
     inkscape:current-layer="flowRoot130"
     showgrid="false"
     units="px"
     inkscape:pagecheckerboard="true"
     inkscape:window-width="1366"
     inkscape:window-height="739"
     inkscape:window-x="0"
     inkscape:window-y="0"
     inkscape:window-maximized="1"
     showguides="true"
     inkscape:guide-bbox="true"
     inkscape:snap-others="false"
     inkscape:object-nodes="false"
     inkscape:snap-nodes="false">
    <sodipodi:guide
       position="191.24818,7.5737448"
       orientation="0,1"
       id="guide124"
       inkscape:locked="false" />
    <sodipodi:guide
       position="135.64482,281.49946"
       orientation="1,0"
       id="guide130"
       inkscape:locked="false" />
    <sodipodi:guide
       position="360.26096,243.57725"
       orientation="1,0"
       id="guide132"
       inkscape:locked="false" />
  </sodipodi:namedview>
  <metadata
     id="metadata5">
    <rdf:RDF>
      <cc:Work
         rdf:about="">
        <dc:format>image/svg+xml</dc:format>
        <dc:type
           rdf:resource="http://purl.org/dc/dcmitype/StillImage" />
        <dc:title />
      </cc:Work>
    </rdf:RDF>
  </metadata>
  <g
     inkscape:label="Layer 1"
     inkscape:groupmode="layer"
     id="layer1"
     transform="translate(1.5369011,-241.16176)">
    <g
       id="g465">
      <g
         id="g106">
        <g
           id="g462"
           style="fill:#006400">
          <path
             inkscape:connector-curvature="0"
             id="path52"
             d="m 248.79933,379.71695 c -1.2375,-0.18273 -2.25,-0.83291 -2.25,-1.44485 0,-1.08362 6.62575,-13.12624 25.67525,-46.66605 5.12861,-9.02976 9.32475,-17.03222 9.32475,-17.78324 0,-2.58057 -15.15066,-30.06176 -17.38484,-31.53369 -0.61334,-0.40408 -5.95266,-0.74157 -11.86516,-0.75 -7.96632,-0.0113 -10.73029,-0.33899 -10.67388,-1.26531 0.0419,-0.6875 4.22875,-8.45 9.30419,-17.25 l 9.22807,-16 8.15068,-0.28971 c 7.02495,-0.2497 8.81297,0.0487 12.94581,2.1607 7.15034,3.65399 10.23629,7.5009 20.55933,25.62901 5.16775,9.075 11.94739,20.90342 15.06586,26.28538 3.11847,5.38196 5.66994,10.9236 5.66994,12.31476 0,1.39115 -3.08015,7.78773 -6.84478,14.21461 -3.76463,6.42689 -8.88053,15.28525 -11.36866,19.68525 -14.32785,25.33728 -18.12002,31.68939 -19.14626,32.07116 -1.42345,0.52954 -33.32387,1.07478 -36.3903,0.62198 z m -33.94617,-1.29797 c -6.9419,-2.00786 -12.52356,-9.14583 -26.81102,-34.28655 -7.4676,-13.14026 -14.23341,-24.82789 -15.03513,-25.97251 -2.64564,-3.77718 -1.57822,-7.09177 7.15511,-22.21833 4.73703,-8.20478 11.76101,-20.54278 15.60884,-27.41778 3.84784,-6.875 8.34399,-14.6375 9.99146,-17.25 l 2.9954,-4.75 h 19.89576 c 16.21233,0 19.89575,0.2545 19.89575,1.37468 0,0.75607 -7.70545,14.80659 -17.12321,31.22337 -9.41777,16.41678 -17.57159,30.83278 -18.11961,32.03555 -0.83053,1.82281 0.12619,4.241 5.74728,14.52662 3.70902,6.78688 7.83574,13.80228 9.1705,15.58978 l 2.42683,3.25 h 10.89008 c 5.98955,0 11.11716,0.3674 11.39469,0.81645 0.43351,0.70143 -12.68773,25.40736 -16.95981,31.93355 -1.33919,2.04581 -2.21946,2.24182 -9.6998,2.15981 -4.52482,-0.0496 -9.66523,-0.50619 -11.42312,-1.01464 z m 101.36569,-0.67178 c -2.92058,-1.77825 -9.66952,-12.15067 -9.66952,-14.86105 0,-0.84177 3.87682,-8.35516 8.61515,-16.69642 10.9672,-19.3064 13.25976,-22.86126 14.32064,-22.2056 0.47312,0.2924 3.89105,5.82095 7.59541,12.28566 3.70436,6.46471 10.05026,17.52884 14.102,24.58696 4.05174,7.05812 7.3668,13.60562 7.3668,14.55 0,3.75959 -1.83499,4.11787 -20.95,4.09045 -15.76454,-0.0226 -18.97502,-0.28539 -21.38048,-1.75 z M 155.58034,286.80454 c -4.62621,-8.1294 -11.02573,-19.32245 -14.22115,-24.87344 -6.05224,-10.51376 -6.60373,-12.21342 -4.60986,-14.20729 1.49424,-1.49424 36.38997,-1.68659 40.24261,-0.22182 2.95372,1.123 10.55739,12.24532 10.55739,15.44289 0,2.77138 -20.34934,37.99567 -22.16067,38.35966 -0.87881,0.1766 -4.51711,-5.20203 -9.80832,-14.5 z"
             style="fill:#5ce000" />
          <path
             id="path52-3"
             style="fill:#00c000"
             d="m 208.75855,246.52381 -2.9961,4.75 c -1.64747,2.6125 -6.14435,10.375 -9.99219,17.25 -3.84783,6.875 -10.87039,19.21319 -15.60742,27.41797 -8.73333,15.12656 -9.80189,18.44157 -7.15625,22.21875 0.80172,1.14462 7.56756,12.8324 15.03516,25.97266 14.28746,25.14072 19.86865,32.27925 26.81054,34.28711 1.75791,0.50845 6.89901,0.96407 11.42383,1.01367 7.48034,0.082 8.36003,-0.11435 9.69922,-2.16016 4.27208,-6.52619 17.39445,-31.23216 16.96094,-31.93359 -0.27753,-0.44905 -5.40498,-0.81641 -11.39453,-0.81641 h -10.89063 l -2.42773,-3.25 c -1.33476,-1.7875 -5.4609,-8.80296 -9.16992,-15.58984 -5.62109,-10.28562 -6.57663,-12.70258 -5.7461,-14.52539 0.54802,-1.20277 8.70137,-15.61838 18.11914,-32.03516 9.41776,-16.41678 17.12305,-30.46854 17.12305,-31.22461 0,-1.12018 -3.68415,-1.375 -19.89648,-1.375 z m 63.72265,0.14258 c -0.54543,-0.008 -1.13142,-0.006 -1.76953,0.004 -0.72927,0.0116 -1.52618,0.0332 -2.4043,0.0644 l -8.15039,0.28906 -9.22656,16 c -5.07544,8.8 -9.26279,16.5625 -9.30469,17.25 -0.0564,0.92632 2.70751,1.25433 10.67383,1.26563 5.9125,0.008 11.25193,0.34592 11.86523,0.75 2.2342,1.47193 17.38477,28.95263 17.38477,31.5332 0,0.75102 -4.19561,8.7554 -9.32422,17.78516 -19.0495,33.53981 -25.67578,45.58239 -25.67578,46.66601 0,0.61194 1.0125,1.26063 2.25,1.44336 3.06643,0.4528 34.96718,-0.0916 36.39063,-0.62109 1.02624,-0.38177 4.81863,-6.73499 19.14648,-32.07227 2.48813,-4.4 7.60256,-13.2567 11.36719,-19.68359 3.76463,-6.42688 6.8457,-12.82369 6.8457,-14.21484 0,-1.39116 -2.55145,-6.9325 -5.66992,-12.31446 -3.11847,-5.38196 -9.89866,-17.21211 -15.06641,-26.28711 -10.32304,-18.12811 -13.40825,-21.97491 -20.55859,-25.6289 -3.16421,-1.617 -4.9554,-2.17007 -8.77344,-2.22852 z m 51,85.10742 c -0.003,0.005 -0.007,0.0107 -0.01,0.0156 -1e-4,0.001 9e-5,0.003 0,0.004 0.003,-0.007 0.007,-0.0129 0.01,-0.0195 z"
             inkscape:connector-curvature="0" />
          <g
             aria-label="GameMaker Loader"
             transform="matrix(1.1584209,0,0,1.1584209,41.502283,235.45477)"
             style="font-style:normal;font-weight:normal;font-size:40px;line-height:125%;font-family:sans-serif;letter-spacing:0px;word-spacing:0px;fill:#00ac00;fill-opacity:1;stroke:none;stroke-width:1px;stroke-linecap:butt;stroke-linejoin:miter;stroke-opacity:1"
             id="flowRoot130">
            <path
               inkscape:connector-curvature="0"
               d="m 97.001846,153.25111 v 5.04332 h 6.724434 q -0.042,1.38692 -0.63042,2.7318 -0.58839,1.30286 -1.59705,2.31153 -0.96664,1.00866 -2.269498,1.59705 -1.302857,0.54636 -2.731799,0.54636 -2.143413,0 -3.866549,-0.92461 -1.681108,-0.96664 -2.815857,-2.56369 -1.134748,-1.63908 -1.723136,-3.61438 -0.54636,-1.9753 -0.54636,-3.99263 0,-2.01733 0.54636,-4.03466 0.588388,-2.01733 1.723136,-3.65641 1.134749,-1.68111 2.815857,-2.64775 1.681108,-1.00866 3.824521,-1.00866 2.39558,0 4.328855,1.42894 1.93327,1.38691 2.89991,3.61438 l 5.4636,-2.94194 q -1.80719,-3.61438 -5.12738,-5.58968 -3.32019,-1.97531 -7.396874,-1.97531 -3.446272,0 -6.346184,1.34489 -2.857884,1.30286 -4.917242,3.65641 -2.01733,2.31152 -3.11005,5.37955 -1.09272,3.02599 -1.09272,6.43024 0,3.27816 1.050692,6.30415 1.050693,2.98397 3.025995,5.29549 2.01733,2.31153 4.833187,3.65641 2.815856,1.30286 6.178073,1.30286 3.572357,0 6.304153,-1.30286 2.7318,-1.34488 4.53899,-3.69843 1.80719,-2.39558 2.68978,-5.42158 0.88258,-3.02599 0.88258,-6.47227 v -0.79852 z"
               style="font-style:normal;font-variant:normal;font-weight:normal;font-stretch:normal;font-family:Futura-Heavy;-inkscape-font-specification:Futura-Heavy;fill:#00ac00;stroke-width:1.05069268px"
               id="path138" />
            <path
               d="m 140.23799,171.03735 h 6.30046 l -4.81048,-32.94972 h -4.51249 l -7.57759,21.15764 -7.91815,-21.15764 h -4.42735 l -5.40648,32.94972 h 6.30046 l 2.85224,-19.92309 h 0.0852 l 7.02416,20.34879 h 2.17112 l 7.27959,-20.34879 h 0.0851 z"
               style="font-style:normal;font-variant:normal;font-weight:normal;font-stretch:normal;font-family:Futura-Heavy;-inkscape-font-specification:Futura-Heavy;fill:#00ac00;stroke-width:1.0642674px"
               id="path146"
               inkscape:connector-curvature="0" />
            <path
               d="m 159.18109,139.34845 h -6.17807 v 31.6889 h 14.91984 v -5.37955 h -8.74177 z"
               style="font-style:normal;font-variant:normal;font-weight:normal;font-stretch:normal;font-family:Futura-Heavy;-inkscape-font-specification:Futura-Heavy;fill:#00ac00;stroke-width:1.05069268px"
               id="path156"
               inkscape:connector-curvature="0" />
            <path
               d="m 179.00081,149.29915 q -2.39558,0 -4.41291,0.79853 -1.9753,0.79852 -3.44627,2.31152 -1.42894,1.47097 -2.22747,3.4883 -0.7565,2.01733 -0.7565,4.41291 0,2.39558 0.7565,4.41291 0.79853,1.9753 2.22747,3.4883 1.47097,1.47097 3.44627,2.26949 2.01733,0.79853 4.41291,0.79853 2.39558,0 4.41291,-0.79853 2.01733,-0.79852 3.44627,-2.26949 1.42895,-1.513 2.18544,-3.4883 0.79853,-2.01733 0.79853,-4.41291 0,-2.39558 -0.79853,-4.41291 -0.75649,-2.01733 -2.22746,-3.4883 -1.42895,-1.513 -3.44628,-2.31152 -1.9753,-0.79853 -4.37088,-0.79853 z m 0,5.21143 q 2.18544,0 3.53033,1.76517 1.34489,1.76516 1.34489,4.03466 0,2.22747 -1.38692,3.99263 -1.34488,1.76516 -3.4883,1.76516 -2.14341,0 -3.53033,-1.76516 -1.34488,-1.76516 -1.34488,-3.99263 0,-2.2695 1.34488,-4.03466 1.38692,-1.76517 3.53033,-1.76517 z"
               style="font-style:normal;font-variant:normal;font-weight:normal;font-stretch:normal;font-family:Futura-Heavy;-inkscape-font-specification:Futura-Heavy;fill:#00ac00;stroke-width:1.05069268px"
               id="path158"
               inkscape:connector-curvature="0" />
            <path
               d="m 211.68841,149.84 h -5.79982 v 1.93328 q -1.05069,-1.26083 -2.60572,-1.93328 -1.513,-0.67244 -3.15208,-0.67244 -2.14341,0 -3.90857,0.92461 -1.76517,0.88258 -2.98397,2.43761 -1.2188,1.55502 -1.89125,3.53032 -0.63041,1.93328 -0.63041,3.99264 0,2.10138 0.63041,4.11871 0.63042,1.9753 1.84922,3.57236 1.26083,1.59705 3.026,2.52166 1.80719,0.88258 3.99263,0.88258 1.63908,0 3.15208,-0.67244 1.51299,-0.67245 2.4376,-1.89125 h 0.0841 v 1.89125 h 5.79982 z m -10.12867,16.09661 q -2.14342,0 -3.53033,-1.76516 -1.34489,-1.80719 -1.34489,-4.03466 0,-2.22747 1.34489,-3.99263 1.38691,-1.76517 3.53033,-1.76517 2.14341,0 3.53032,1.76517 1.38692,1.76516 1.38692,3.99263 0,2.22747 -1.38692,4.03466 -1.38691,1.76516 -3.53032,1.76516 z"
               style="font-style:normal;font-variant:normal;font-weight:normal;font-stretch:normal;font-family:Futura-Heavy;-inkscape-font-specification:Futura-Heavy;fill:#00ac00;stroke-width:1.05069268px"
               id="path160"
               inkscape:connector-curvature="0" />
            <path
               d="m 230.02235,170.75058 h 5.88388 v -35.6395 h -5.88388 v 16.89514 h -0.0841 q -0.96664,-1.2188 -2.47963,-1.89125 -1.513,-0.67244 -3.15208,-0.67244 -2.14342,0 -3.90858,0.92461 -1.76516,0.88258 -2.98397,2.43761 -1.2188,1.55502 -1.89124,3.53032 -0.63042,1.93328 -0.63042,3.99264 0,2.10138 0.63042,4.11871 0.63041,1.9753 1.84922,3.57236 1.26083,1.59705 3.02599,2.52166 1.80719,0.88258 3.99263,0.88258 1.63908,0 3.15208,-0.67244 1.513,-0.71447 2.39558,-1.93328 h 0.0841 z m -4.28683,-4.539 q -2.14341,0 -3.53033,-1.76516 -1.34488,-1.80719 -1.34488,-4.03466 0,-2.22747 1.34488,-3.99263 1.38692,-1.76517 3.53033,-1.76517 2.14341,0 3.4883,1.76517 1.38691,1.76516 1.38691,3.99263 0,2.22747 -1.38691,4.03466 -1.34489,1.76516 -3.4883,1.76516 z"
               style="font-style:normal;font-variant:normal;font-weight:normal;font-stretch:normal;font-family:Futura-Heavy;-inkscape-font-specification:Futura-Heavy;fill:#00ac00;stroke-width:1.05069268px"
               id="path162"
               inkscape:connector-curvature="0" />
            <path
               d="m 258.71974,160.94826 v -0.71447 q 0,-2.39558 -0.58838,-4.41291 -0.58839,-2.05936 -1.8072,-3.57236 -1.17677,-1.513 -3.06802,-2.35355 -1.84922,-0.88258 -4.32885,-0.88258 -4.83319,0 -7.43891,3.15208 -2.56369,3.11005 -2.56369,8.02729 0,4.79116 2.77383,7.81715 2.81586,2.98397 7.52296,2.98397 3.27816,0 5.79982,-1.68111 2.52167,-1.72313 3.57236,-4.74913 l -5.42157,-0.88258 q -0.63042,1.30286 -1.59706,2.05936 -0.96663,0.7565 -2.35355,0.7565 -1.09272,0 -1.89125,-0.46231 -0.79852,-0.50433 -1.30286,-1.30286 -0.4623,-0.79852 -0.67244,-1.76516 -0.21014,-0.96664 -0.21014,-2.01733 z m -13.40684,-3.65641 q 0.25217,-1.76517 1.26084,-2.94194 1.00866,-1.21881 2.68977,-1.21881 1.59705,0 2.60572,1.21881 1.05069,1.2188 1.30286,2.94194 z"
               style="font-style:normal;font-variant:normal;font-weight:normal;font-stretch:normal;font-family:Futura-Heavy;-inkscape-font-specification:Futura-Heavy;fill:#00ac00;stroke-width:1.05069268px"
               id="path164"
               inkscape:connector-curvature="0" />
            <path
               d="m 267.19202,150.40174 h -5.88388 v 20.63561 h 5.88388 v -9.28813 q 0,-1.42894 0.12609,-2.56369 0.16811,-1.17677 0.63041,-2.14341 0.46231,-0.96664 1.38692,-1.513 0.92461,-0.58839 2.35355,-0.58839 1.38691,0 2.4376,0.7565 l 0.71448,-5.4636 q -1.30286,-0.50433 -2.43761,-0.50433 -3.27816,0 -5.12738,2.81586 h -0.0841 z"
               style="font-style:normal;font-variant:normal;font-weight:normal;font-stretch:normal;font-family:Futura-Heavy;-inkscape-font-specification:Futura-Heavy;fill:#00ac00;stroke-width:1.05069268px"
               id="path166"
               inkscape:connector-curvature="0" />
          </g>
        </g>
      </g>
    </g>
    <flowRoot
       xml:space="preserve"
       id="flowRoot10"
       style="font-style:normal;font-weight:normal;font-size:40px;line-height:125%;font-family:sans-serif;letter-spacing:0px;word-spacing:0px;fill:#000000;fill-opacity:1;stroke:none;stroke-width:1px;stroke-linecap:butt;stroke-linejoin:miter;stroke-opacity:1"
       transform="matrix(0.26458333,0,0,0.26458333,0,244.08332)"><flowRegion
         id="flowRegion12"><rect
           id="rect14"
           width="180.26343"
           height="140.70921"
           x="18.804459"
           y="21.033434" /></flowRegion><flowPara
         id="flowPara16" /></flowRoot>  </g>
</svg>
