<?xml version="1.0" encoding="UTF-8" standalone="no"?>
<svg
   xmlns:dc="http://purl.org/dc/elements/1.1/"
   xmlns:cc="http://creativecommons.org/ns#"
   xmlns:rdf="http://www.w3.org/1999/02/22-rdf-syntax-ns#"
   xmlns:svg="http://www.w3.org/2000/svg"
   xmlns="http://www.w3.org/2000/svg"
   xmlns:sodipodi="http://sodipodi.sourceforge.net/DTD/sodipodi-0.dtd"
   xmlns:inkscape="http://www.inkscape.org/namespaces/inkscape"
   width="500"
   height="200"
   viewBox="0 0 500 200"
   version="1.1"
   id="svg68"
   sodipodi:docname="gx4000.svg"
   style="fill:none"
   inkscape:version="0.92.5 (2060ec1f9f, 2020-04-08)">
  <metadata
     id="metadata74">
    <rdf:RDF>
      <cc:Work
         rdf:about="">
        <dc:format>image/svg+xml</dc:format>
        <dc:type
           rdf:resource="http://purl.org/dc/dcmitype/StillImage" />
        <dc:title />
      </cc:Work>
    </rdf:RDF>
  </metadata>
  <defs
     id="defs72" />
  <sodipodi:namedview
     pagecolor="#ffffff"
     bordercolor="#666666"
     borderopacity="1"
     objecttolerance="10"
     gridtolerance="10"
     guidetolerance="10"
     inkscape:pageopacity="0"
     inkscape:pageshadow="2"
     inkscape:window-width="1366"
     inkscape:window-height="743"
     id="namedview70"
     showgrid="false"
     inkscape:pagecheckerboard="true"
     inkscape:zoom="1.4182373"
     inkscape:cx="176.45502"
     inkscape:cy="53.761927"
     inkscape:window-x="0"
     inkscape:window-y="0"
     inkscape:window-maximized="1"
     inkscape:current-layer="svg68" />
  <rect
     x="116.73693"
     y="24.396362"
     width="316.22363"
     height="150.48297"
     id="rect52"
     style="fill:#000000;stroke-width:0.72290927" />
  <path
     d="m 138.65735,94.197948 c 0.10915,-1.063616 0.24505,-2.154486 0.3,-3.218103 0.79086,-13.363267 2.70006,-26.535612 7.66355,-39.080692 1.19932,-2.99993 2.4268,-5.999859 4.49939,-8.508859 0.90003,-1.09087 1.99088,-2.127234 3.19092,-2.918097 2.37258,-1.527218 5.23603,-1.33637 7.30861,0.545436 1.25497,1.145378 2.18174,2.618088 3.19091,4.008966 0.43665,0.600014 0.70919,1.336298 1.17258,2.263573 1.30918,-2.590834 2.53668,-4.963495 3.76417,-7.336156 0.0542,0.02726 0.10845,0.02726 0.16338,0.0545 0,12.272396 0,24.544793 0,36.817191 -0.0549,0.02725 -0.10915,0.02725 -0.13662,0.0545 -0.27254,-1.063616 -0.54508,-2.099905 -0.81762,-3.163523 -1.90918,-7.745248 -3.73671,-15.490499 -5.78181,-23.208423 -0.51834,-1.990893 -1.44583,-3.954459 -2.5367,-5.672597 -1.99089,-3.163523 -4.93603,-2.972603 -6.84523,0.272754 -1.39087,2.399914 -1.9092,5.072582 -2.34511,7.772503 -1.03666,6.136199 -1.39088,12.354158 -1.69088,18.572191 -0.73666,15.626841 -0.57255,31.253818 -0.43664,46.907698 0.0549,7.30861 0.40916,14.61794 0.79085,21.92656 0.19086,3.79093 0.62749,7.60934 1.85499,11.23619 0.40917,1.20001 0.90003,2.40004 1.58172,3.43598 1.44511,2.155 4.03599,2.34583 5.59026,0.21832 0.98244,-1.33593 1.66414,-3.02683 2.10005,-4.63603 0.95497,-3.54513 0.92749,-7.20017 0.92749,-10.827 0,-13.99046 0,-28.0084 0.0275,-41.998861 0,-0.92749 -0.27327,-1.499889 -1.09087,-1.963562 -1.44582,-0.872697 -2.83669,-1.881734 -4.17262,-3.027184 4.79938,0 9.57203,0 14.48132,0 0,22.281287 0,44.562067 0,66.843577 -0.0816,0.0275 -0.19086,0.0542 -0.27255,0.10916 -1.82752,-5.26349 -3.68178,-10.55446 -5.59098,-16.03629 -0.46339,2.70006 -0.81833,5.12759 -1.33666,7.52765 -0.46338,2.18174 -1.33594,4.25432 -2.78175,5.99943 -2.67259,3.24513 -6.54523,3.60007 -9.49035,0.60001 -1.55426,-1.6092 -2.89092,-3.51767 -3.92758,-5.50857 -2.91766,-5.48182 -4.49937,-11.45449 -5.80857,-17.50886 -1.9092,-9.02696 -3.00006,-18.21731 -3.30008,-27.49007 -0.0267,-0.5458 -0.16337,-1.0634 -0.24506,-1.58173 0,-3.84514 0,-7.663548 0,-11.481595 z"
     id="path54"
     inkscape:connector-curvature="0"
     style="fill:#e9de33;stroke-width:0.72290927" />
  <path
     d="m 286.22554,95.807 c 0.29999,-4.254466 0.62675,-12.381484 1.44508,-20.453995 0.81834,-8.127018 2.26343,-16.172276 5.10012,-23.890202 1.11763,-3.02718 2.42682,-5.972602 4.4177,-8.563438 3.43672,-4.472566 7.60935,-4.581655 11.2362,-0.245427 2.59088,3.081762 4.00924,6.790721 5.26349,10.527004 2.15426,6.381628 3.32683,12.981427 4.17262,19.663061 1.4451,11.481462 1.90921,22.990252 1.58173,34.526437 -0.38168,12.54464 -1.50003,25.00831 -5.15434,37.08957 -1.11834,3.73673 -2.50921,7.39104 -4.80012,10.6087 -0.87254,1.22749 -1.96341,2.42753 -3.16345,3.35503 -2.48175,1.90848 -5.45435,1.88174 -7.71777,-0.21832 -1.44583,-1.33666 -2.6726,-2.97261 -3.65432,-4.69097 -2.72753,-4.77264 -4.11841,-10.03615 -5.15433,-15.4088 -2.455,-12.65381 -3.46419,-25.49918 -3.57261,-42.29865 z m 23.34418,2.563216 c -0.2176,-10.881155 -0.35423,-23.917162 -0.7634,-36.925913 -0.1359,-4.41806 -0.90002,-8.836121 -1.63596,-13.199602 -0.24577,-1.499963 -1.00917,-3.027182 -1.88172,-4.308972 -1.33667,-1.909059 -3.84587,-1.799972 -5.18181,0.109086 -0.60001,0.872697 -1.17256,1.90906 -1.36341,2.918096 -0.54579,3.027183 -1.11834,6.081619 -1.30918,9.136128 -0.40917,6.654308 -0.76412,13.335941 -0.81834,20.017574 -0.16337,12.954173 -0.16337,25.881177 -0.10915,38.834977 0.0275,11.07279 0.0542,22.17234 1.44509,33.1902 0.27326,2.12754 0.90001,4.22757 1.6092,6.30015 0.43663,1.28172 1.50002,2.18175 2.9726,2.23597 1.5275,0.055 2.48173,-0.84508 3.10924,-2.0726 0.54579,-1.09086 1.03663,-2.23595 1.33665,-3.40923 1.41762,-5.3994 1.66341,-10.93616 1.85427,-16.47219 0.32747,-11.37209 0.46338,-22.77165 0.73592,-36.353674 z"
     id="path56"
     inkscape:connector-curvature="0"
     style="fill:#e9de33;stroke-width:0.72290927" />
  <path
     d="m 181.52801,40.826641 c 7.17271,0 13.99048,0 20.80895,0 0.0267,0.05457 0.0542,0.109087 0.10844,0.190918 -1.41762,0.927277 -2.80851,1.936314 -4.25432,2.781756 -0.84507,0.518183 -1.00845,1.063617 -0.79086,2.018146 2.91837,12.708673 5.78182,25.444745 8.67274,38.180743 0.10915,0.409022 0.24507,0.84537 0.62749,1.281791 3.24514,-13.554188 6.49027,-27.081122 9.73613,-40.689817 -1.77329,-1.199957 -3.49092,-2.345408 -5.48182,-3.681704 5.09942,0 9.89953,0 14.97218,0 -1.09088,0.736355 -1.99089,1.47271 -2.9726,1.990891 -1.82751,0.927204 -2.70007,2.345335 -3.16345,4.363481 -3.68178,15.272326 -7.52694,30.517326 -11.29041,45.789653 -0.1641,0.627197 -0.13661,1.336298 0,1.963565 4.36348,19.499606 8.78118,38.971886 13.17215,58.470916 0.19083,0.90003 0.57254,1.52752 1.39087,2.01837 1.47256,0.87255 2.86344,1.85425 4.22685,2.9726 -6.8727,0 -13.74468,0 -20.94486,0 1.58173,-1.03664 2.86345,-1.99089 4.25432,-2.78175 1.09088,-0.60002 1.33667,-1.22751 1.03667,-2.50922 -3.27261,-14.31794 -6.43607,-28.63515 -9.65447,-42.95309 -0.0816,-0.3817 -0.21832,-0.79088 -0.54507,-1.20003 -0.27326,0.98171 -0.57327,1.93594 -0.81832,2.91838 -3.51841,13.74466 -7.06356,27.4626 -10.58195,41.20727 -0.40845,1.60919 -0.40845,1.60919 1.03665,2.56415 1.28171,0.84509 2.56342,1.6909 4.11841,2.72681 -5.07265,0 -9.81856,0 -14.86374,0 1.09087,-0.73591 1.96343,-1.47256 2.97261,-1.96341 1.93667,-0.95424 2.80922,-2.42754 3.32755,-4.55433 4.17263,-16.79969 8.45442,-33.54444 12.70875,-50.31665 0.13591,-0.57327 0.16337,-1.25497 0.0542,-1.854984 -4.00854,-17.890125 -7.96357,-35.753284 -11.89041,-53.6437 -0.24506,-1.145376 -0.76339,-1.936312 -1.77258,-2.509 -1.36341,-0.790863 -2.64511,-1.718139 -4.20011,-2.781755 z"
     id="path58"
     inkscape:connector-curvature="0"
     style="fill:#e9de33;stroke-width:0.72290927" />
  <path
     d="m 239.9991,123.18769 c 5.78181,-27.653444 11.50871,-55.007245 17.23632,-82.361049 3.54515,0 6.92692,0 10.49953,0 -8.15442,26.181098 -16.2539,52.253112 -24.38155,78.434199 4.69096,0 9.21853,0 13.93624,0 0,-0.57254 0,-1.09086 0,-1.60918 0,-6.19028 0.0275,-12.3538 -0.0275,-18.544801 0,-0.981702 0.32748,-1.554251 1.14583,-2.072576 2.31765,-1.418276 4.5818,-2.945494 6.8727,-4.418132 0.3817,-0.245501 0.76339,-0.436421 1.33593,-0.790935 0,9.245074 0,18.272034 0,27.435624 2.72753,0 5.29098,0 7.99103,0 0,1.3092 0,2.48175 0,3.81842 -2.59089,0 -5.18181,0 -7.88186,0 -0.0275,0.65423 -0.10917,1.1993 -0.10917,1.71763 0,9.49107 0.0275,19.00889 -0.0275,28.49925 0,1.09087 0.35495,1.74582 1.28171,2.2909 1.39088,0.8458 2.72754,1.77256 4.33674,2.86343 -6.92691,0 -13.5813,0 -20.50894,0 1.58173,-1.06339 2.97261,-2.0451 4.41842,-2.89091 0.87256,-0.5176 1.20004,-1.14508 1.20004,-2.18173 -0.055,-9.5453 -0.0275,-19.08987 -0.0275,-28.63516 0,-0.46411 0,-0.90002 0,-1.55498 -5.72689,0 -11.37208,0 -17.29054,0 z"
     id="path60"
     inkscape:connector-curvature="0"
     style="fill:#e9de33;stroke-width:0.72290927" />
  <path
     d="m 331.98785,95.807 c 0.30001,-4.254466 0.62749,-12.381484 1.44583,-20.453995 0.8176,-8.127018 2.26343,-16.172276 5.0994,-23.890202 1.11834,-3.02718 2.42753,-5.972602 4.41842,-8.563438 3.43599,-4.472566 7.60861,-4.581655 11.23618,-0.245427 2.59089,3.081762 4.00853,6.790721 5.26349,10.527004 2.15428,6.381628 3.32684,12.981427 4.17265,19.663061 1.44508,11.481462 1.90847,22.990252 1.58172,34.526437 -0.38169,12.54464 -1.50005,25.00831 -5.15436,37.08957 -1.11833,3.73673 -2.50921,7.39104 -4.8001,10.6087 -0.87255,1.22749 -1.96343,2.42753 -3.16345,3.35503 -2.48175,1.90848 -5.45437,1.88174 -7.71778,-0.21832 -1.44582,-1.33666 -2.67261,-2.97261 -3.65503,-4.69097 -2.72682,-4.77264 -4.11769,-10.03615 -5.15435,-15.4088 -2.45427,-12.65381 -3.49092,-25.49918 -3.57262,-42.29865 z m 23.31744,2.563216 c -0.2176,-10.881155 -0.35422,-23.917162 -0.76339,-36.925913 -0.13663,-4.41806 -0.90002,-8.836121 -1.63594,-13.199602 -0.24579,-1.499963 -1.00918,-3.027182 -1.88173,-4.308972 -1.33666,-1.909059 -3.84589,-1.799972 -5.18182,0.109086 -0.60001,0.872697 -1.17256,1.90906 -1.36414,2.918096 -0.54507,3.027183 -1.11762,6.081619 -1.30845,9.136128 -0.40918,6.654308 -0.76412,13.335941 -0.81834,20.017574 -0.16339,12.954173 -0.16339,25.881177 -0.10916,38.834977 0.0275,11.07279 0.0542,22.17234 1.4451,33.1902 0.27326,2.12754 0.90001,4.22757 1.6092,6.30015 0.43663,1.28172 1.50002,2.18175 2.97259,2.23597 1.52751,0.055 2.48176,-0.84508 3.10924,-2.0726 0.54507,-1.09086 1.03665,-2.23595 1.33665,-3.40923 1.41764,-5.3994 1.66343,-10.93616 1.85427,-16.47219 0.32748,-11.37209 0.46338,-22.77165 0.73592,-36.353674 z"
     id="path62"
     inkscape:connector-curvature="0"
     style="fill:#e9de33;stroke-width:0.72290927" />
  <path
     d="m 377.72271,95.807 c 0.30001,-4.254466 0.62748,-12.381484 1.4451,-20.453995 0.81833,-8.127018 2.26415,-16.172276 5.10012,-23.890202 1.11834,-3.02718 2.42753,-5.972602 4.41842,-8.563438 3.43599,-4.472566 7.60862,-4.581655 11.23546,-0.245427 2.59091,3.081762 4.00925,6.790721 5.2635,10.527004 2.155,6.381628 3.32755,12.981427 4.17263,19.663061 1.44581,11.481462 1.9092,22.990252 1.58174,34.526437 -0.38171,12.54464 -1.50005,25.00831 -5.15436,37.08957 -1.11761,3.73673 -2.5085,7.39104 -4.79938,10.6087 -0.87328,1.22749 -1.96416,2.42753 -3.16419,3.35503 -2.48174,1.90848 -5.45435,1.88174 -7.71778,-0.21832 -1.44508,-1.33666 -2.6726,-2.97261 -3.65429,-4.69097 -2.72683,-4.77264 -4.11771,-10.03615 -5.15437,-15.4088 -2.42751,-12.65381 -3.46344,-25.49918 -3.5726,-42.29865 z m 23.3449,2.563216 c -0.21831,-10.881155 -0.35494,-23.917162 -0.76338,-36.925913 -0.13664,-4.41806 -0.90003,-8.836121 -1.63666,-13.199602 -0.24581,-1.499963 -1.00919,-3.027182 -1.88175,-4.308972 -1.33666,-1.909059 -3.84516,-1.799972 -5.1818,0.109086 -0.60002,0.872697 -1.17256,1.90906 -1.36341,2.918096 -0.5458,3.027183 -1.11834,6.081619 -1.30919,9.136128 -0.40918,6.654308 -0.76339,13.335941 -0.81833,20.017574 -0.16338,12.954173 -0.16338,25.881177 -0.10917,38.834977 0.0275,11.07279 0.0549,22.17234 1.44583,33.1902 0.27253,2.12754 0.90002,4.22757 1.60919,6.30015 0.43591,1.28172 1.50004,2.18175 2.97261,2.23597 1.52677,0.055 2.48174,-0.84508 3.10851,-2.0726 0.54578,-1.09086 1.03665,-2.23595 1.33665,-3.40923 1.41835,-5.3994 1.66341,-10.93616 1.85427,-16.47219 0.32747,-11.37209 0.46411,-22.77165 0.73663,-36.353674 z"
     id="path64"
     inkscape:connector-curvature="0"
     style="fill:#e9de33;stroke-width:0.72290927" />
  <path
     d="m 99.30512,167.0372 -7.71691,-0.58411 v -3.19599 l 7.71691,-0.64265 v -7.8855 l -39.035002,4.94253 v 10.1894 l 39.035002,5.01844 z m -14.1581,-3.31815 v 2.27209 l -15.169244,-1.15159 z m -24.876902,-21.8579 v 10.98533 H 99.30512 v -7.51463 H 77.074578 L 99.30512,142.22261 V 137.3437 L 77.196026,134.35808 H 99.30512 v -7.51536 H 60.270118 v 11.00195 l 17.242036,2.04367 z m 4.750481,-16.38617 c 2.690568,0.004 5.379501,0.0354 8.070025,0.0145 0.439963,-0.0152 0.879998,-0.0412 1.196054,-0.0673 0.666016,-0.0557 0.869515,-0.10918 1.301454,-0.21978 0.427095,-0.1135 0.96118,-0.30651 1.43418,-0.61013 0.225981,-0.14242 0.440756,-0.30145 0.70057,-0.53929 0.259814,-0.23856 0.564665,-0.55375 0.848551,-0.88774 0.592858,-0.68603 1.051327,-1.43279 1.447047,-2.1839 0.90653,-1.63956 1.80178,-3.26755 2.72031,-4.91939 0.14075,-0.21978 0.25743,-0.45544 0.485,-0.68821 0.54536,-0.56677 1.17841,-0.56604 1.78407,-0.55736 l 0.84298,-0.0326 5.28534,-0.0116 c 0.3861,-0.005 0.76736,0.0311 1.17674,0.2176 0.24674,0.13085 0.43534,0.34989 0.52859,0.61303 0.0933,0.26386 0.0843,0.55229 -0.025,0.80893 -0.0537,0.12796 -0.13027,0.24506 -0.22606,0.34555 -0.40295,0.41712 -0.97405,0.36869 -1.46309,0.42941 l -7.95425,0.002 v 8.30838 l 8.90661,-0.008 c 1.0931,-0.007 2.1291,-0.0138 3.20046,-0.25012 0.5518,-0.12723 1.12607,-0.3311 1.63927,-0.63906 0.51478,-0.30796 0.9684,-0.72002 1.32314,-1.20292 0.35394,-0.4829 0.60891,-1.03592 0.75934,-1.474 0.15123,-0.43737 0.19945,-0.75907 0.23806,-1.08148 0.0386,-0.32169 0.0812,-0.64266 0.0812,-0.96508 V 111.435 c 0,-0.38169 0.017,-0.76483 -0.11343,-1.23689 -0.14834,-0.53424 -0.37265,-1.04389 -0.666,-1.5145 -0.30804,-0.48363 -0.69169,-0.89134 -1.10433,-1.17256 -0.41183,-0.28194 -0.8518,-0.43591 -1.24919,-0.56893 -0.39572,-0.13373 -0.75044,-0.24434 -1.22257,-0.3253 -0.4722,-0.0825 -1.06174,-0.13374 -1.65294,-0.16194 -0.59039,-0.0289 -1.18159,-0.0144 -1.77199,-0.0144 H 85.2837 c -0.1174,0 -0.23567,0 -0.49946,0.003 -0.26465,0.003 -0.67563,0.008 -1.14538,0.0268 -0.46974,0.0174 -0.99819,0.0499 -1.33926,0.0787 -0.37403,0.0245 -0.74416,0.0911 -1.10359,0.19807 -0.19186,0.0535 -0.37866,0.12435 -0.55823,0.21038 -0.33623,0.15686 -0.66002,0.33831 -0.96841,0.54435 -0.342803,0.23204 -0.658282,0.50242 -0.940289,0.80531 -0.2815,0.3029 -0.527651,0.63689 -0.782621,1.00847 -0.540808,0.79591 -1.046412,1.61425 -1.515363,2.45428 l -1.924818,3.52707 c -0.114726,0.21326 -0.238199,0.42145 -0.369986,0.62458 -0.116459,0.17495 -0.238271,0.347 -0.365212,0.51543 -0.161644,0.2111 -0.182608,0.21254 -0.276658,0.30146 -0.04027,0.0347 -0.08046,0.0687 -0.176174,0.12723 -0.211523,0.1323 -0.583966,0.29279 -0.898431,0.32243 -0.168945,0.021 -0.339478,0.002 -0.510013,0.002 -1.228222,-0.002 -2.496639,0.007 -3.685536,-0.005 -0.276656,0.007 -0.592785,0 -0.887949,-0.10264 -0.145601,-0.047 -0.285565,-0.10916 -0.404605,-0.18578 -0.534894,-0.4005 -0.61292,-0.87978 -0.390914,-1.4075 0.137483,-0.24579 0.352447,-0.43881 0.611307,-0.54941 0.128693,-0.0543 0.266263,-0.0874 0.456893,-0.10916 0.392467,-0.0441 0.931397,-0.0492 1.405986,-0.0456 h 4.641874 v -8.34454 c -2.396952,0.009 -4.792311,-0.0289 -7.19086,0.0253 -0.555006,0.0245 -1.110012,0.0643 -1.475985,0.0983 -0.240583,0.0188 -0.479889,0.0513 -0.716677,0.0976 -0.174836,0.0354 -0.348176,0.0781 -0.519605,0.12796 -0.217373,0.0615 -0.429568,0.14024 -0.634628,0.23494 -0.37785,0.1641 -0.737693,0.36796 -1.07381,0.60653 -0.368388,0.26892 -0.692547,0.6029 -0.953959,0.97953 -0.261407,0.37735 -0.461688,0.79447 -0.590383,1.15304 -0.242111,0.70627 -0.283137,1.2434 -0.361158,1.85571 -0.03706,0.29999 -0.05693,0.60218 -0.05952,0.90508 l 0.05791,7.22185 c 0.02038,0.85014 0.14519,1.6945 0.371607,2.51356 0.08043,0.26242 0.181787,0.51037 0.305655,0.74532 0.2582,0.47277 0.540526,0.86605 1.041632,1.27376 0.288406,0.2299 0.59846,0.43158 0.925808,0.60147 0.706217,0.36145 1.477583,0.57687 2.237694,0.59495 z m -4.750481,-20.407 h 6.296446 v -4.16179 H 99.30512 V 92.562439 H 66.566564 v -4.130342 h -6.296446 z m 0,-27.761602 v 8.883977 H 99.30512 v -8.33059 H 83.7458 c 0.0202,-0.546954 -0.0466,-1.09152 0.1247,-1.644908 0.0419,-0.117473 0.10461,-0.226053 0.185,-0.320105 0.32979,-0.385309 0.75211,-0.354731 1.15101,-0.415093 0.80113,-0.07236 1.60551,-0.01605 2.40743,-0.03456 h 11.69039 v -8.332253 l -12.20278,0.0081 c -1.20249,0.01445 -2.3945,0.09571 -3.59785,0.357984 -0.27767,0.07598 -0.54905,0.17357 -0.81154,0.291911 -0.42825,0.184776 -0.82607,0.433168 -1.18,0.73679 -0.35307,0.304994 -0.65843,0.661317 -0.90567,1.056965 -0.24578,0.396878 -0.43013,0.8286 -0.54702,1.28049 -0.0539,-0.217163 -0.12145,-0.431938 -0.20509,-0.64592 -0.244487,-0.647005 -0.643534,-1.224392 -1.162437,-1.681704 -0.518905,-0.457313 -1.141835,-0.780742 -1.814431,-0.942023 -0.319309,-0.08928 -0.640282,-0.163306 -0.962843,-0.2228 -1.315117,-0.196269 -2.633414,-0.267044 -3.954964,-0.240513 H 67.87281 c -1.194984,-0.03585 -2.39012,0.06644 -3.561645,0.304853 -0.290458,0.05928 -0.575812,0.141327 -0.853415,0.245282 -0.256287,0.09904 -0.503594,0.219835 -0.739197,0.361165 -0.236253,0.140751 -0.459894,0.30167 -0.668417,0.481024 -0.906217,0.845587 -1.466047,1.997615 -1.570885,3.232634 -0.214762,1.852455 -0.153633,3.712934 -0.209133,5.569364 z m 6.347113,0.553387 c 0.0032,-0.39254 0.0081,-0.784284 0.0096,-1.178415 0.0169,-0.188173 0.06435,-0.382057 0.148806,-0.568641 0.35713,-0.542108 0.809982,-0.568713 1.247559,-0.617725 0.491434,-0.03621 0.986122,-0.03463 1.479218,-0.04988 1.710042,0.0064 3.419288,-0.02176 5.129329,0.01851 0.305863,0.0056 0.611077,0.03079 0.913687,0.07562 0.28844,0.02805 0.554254,0.168511 0.740042,0.390877 0.227645,0.250994 0.238848,0.587219 0.275066,0.888817 0.03217,0.345841 0.03621,0.692548 0.01208,1.040049 H 66.61719 Z M 99.30512,57.55476 91.58821,56.97159 v -3.19562 l 7.71691,-0.644329 v -7.88499 l -39.035001,4.942677 v 10.189479 l 39.035001,5.017568 z m -14.1581,-3.317936 v 2.273117 L 69.977776,55.35813 Z M 62.679147,25.405757 c -0.458483,0.285541 -0.866284,0.654746 -1.192852,1.084269 -0.326566,0.429517 -0.572694,0.919368 -0.718281,1.282124 -0.109848,0.270388 -0.188642,0.552375 -0.23487,0.840547 -0.04182,0.238887 -0.07963,0.477787 -0.106981,0.716679 -0.02734,0.238892 -0.04585,0.479382 -0.06997,1.049664 -0.02494,0.571894 -0.08124,1.471959 -0.08205,2.373644 l -0.0041,10.80236 H 99.3051 L 99.2842,30.313088 c -7.9e-4,-0.329784 -0.0942,-0.652324 -0.15123,-0.975673 -0.12224,-0.6837 -0.25251,-1.283743 -0.5437,-1.926417 -0.15118,-0.33783 -0.35308,-0.700586 -0.60242,-1.030368 -0.24933,-0.329779 -0.54615,-0.626582 -1.00383,-0.906501 -0.45687,-0.281522 -1.07539,-0.545345 -1.83068,-0.738389 -0.75451,-0.191436 -1.6481,-0.341054 -2.54176,-0.339445 l -26.643226,0.05792 c -0.608089,0.0016 -1.208935,0.153626 -1.764744,0.30967 -0.555802,0.156043 -1.064954,0.356329 -1.523431,0.641873 z m 3.971866,9.292638 c 0,-0.179355 -0.01366,-0.356322 0.0072,-0.527653 0.02091,-0.172919 0.06112,-0.337814 0.103761,-0.474589 0.04263,-0.135112 0.08928,-0.242103 0.152829,-0.337816 0.06435,-0.09571 0.145579,-0.179354 0.238886,-0.246946 0.433529,-0.28714 1.048869,-0.252511 1.595028,-0.27832 l 22.480743,7.2e-5 c 0.1657,0 0.33218,0.0017 0.49302,0.02328 0.15492,0.02285 0.30702,0.06195 0.4537,0.116678 0.12782,0.04568 0.24666,0.113207 0.35148,0.19945 0.0982,0.08443 0.18016,0.189835 0.24536,0.304852 0.0652,0.115014 0.14393,0.235667 0.14393,0.369188 v 1.363334 H 66.651002 Z"
     id="path66"
     inkscape:connector-curvature="0"
     style="clip-rule:evenodd;fill:#ffffff;fill-rule:evenodd;stroke-width:0.72290927" />
</svg>
