<?xml version="1.0" encoding="UTF-8" standalone="no"?>
<svg
   xmlns:dc="http://purl.org/dc/elements/1.1/"
   xmlns:cc="http://creativecommons.org/ns#"
   xmlns:rdf="http://www.w3.org/1999/02/22-rdf-syntax-ns#"
   xmlns:svg="http://www.w3.org/2000/svg"
   xmlns="http://www.w3.org/2000/svg"
   xmlns:sodipodi="http://sodipodi.sourceforge.net/DTD/sodipodi-0.dtd"
   xmlns:inkscape="http://www.inkscape.org/namespaces/inkscape"
   width="500"
   height="200"
   viewBox="0 0 500 200"
   version="1.1"
   id="svg68"
   sodipodi:docname="gx4000.svg"
   style="fill:none"
   inkscape:version="0.92.5 (2060ec1f9f, 2020-04-08)">
  <metadata
     id="metadata74">
    <rdf:RDF>
      <cc:Work
         rdf:about="">
        <dc:format>image/svg+xml</dc:format>
        <dc:type
           rdf:resource="http://purl.org/dc/dcmitype/StillImage" />
        <dc:title></dc:title>
      </cc:Work>
    </rdf:RDF>
  </metadata>
  <defs
     id="defs72" />
  <sodipodi:namedview
     pagecolor="#ffffff"
     bordercolor="#666666"
     borderopacity="1"
     objecttolerance="10"
     gridtolerance="10"
     guidetolerance="10"
     inkscape:pageopacity="0"
     inkscape:pageshadow="2"
     inkscape:window-width="1366"
     inkscape:window-height="740"
     id="namedview70"
     showgrid="false"
     inkscape:pagecheckerboard="true"
     inkscape:zoom="1.1319041"
     inkscape:cx="258"
     inkscape:cy="104.5"
     inkscape:window-x="0"
     inkscape:window-y="0"
     inkscape:window-maximized="1"
     inkscape:current-layer="svg68" />
  <rect
     x="122.80817"
     y="11.449716"
     width="305.61981"
     height="145.43687"
     id="rect52"
     style="fill:#000000;stroke-width:0.69866818" />
  <path
     d="m 143.99353,78.910668 c 0.1055,-1.027951 0.23684,-2.082241 0.28995,-3.110192 0.76434,-12.915161 2.60952,-25.645803 7.40657,-37.770212 1.1591,-2.899334 2.34543,-5.798667 4.34851,-8.223534 0.86985,-1.05429 1.92413,-2.055902 3.08392,-2.820245 2.29303,-1.476006 5.06046,-1.291558 7.06354,0.527146 1.21289,1.10697 2.10858,2.530296 3.08392,3.874534 0.422,0.579894 0.6854,1.291488 1.13324,2.18767 1.26529,-2.503957 2.45163,-4.797056 3.63796,-7.090155 0.0524,0.02634 0.10481,0.02634 0.1579,0.05268 0,11.86087 0,23.721741 0,35.582612 -0.0531,0.02634 -0.10549,0.02634 -0.13204,0.05268 -0.2634,-1.02795 -0.5268,-2.029491 -0.7902,-3.057442 -1.84517,-7.48553 -3.61141,-14.971061 -5.58794,-22.430183 -0.50095,-1.924133 -1.39734,-3.821855 -2.45163,-5.48238 -1.92413,-3.057441 -4.77051,-2.872923 -6.61569,0.263608 -1.34423,2.319439 -1.84518,4.902485 -2.26648,7.511871 -1.00189,5.930435 -1.34424,11.93989 -1.63418,17.949415 -0.71195,15.102831 -0.55335,30.205805 -0.422,45.334759 0.0531,7.06354 0.39545,14.12777 0.76434,21.1913 0.18446,3.66382 0.60644,7.35419 1.79279,10.85941 0.39544,1.15978 0.86984,2.31957 1.52868,3.32077 1.39664,2.08273 3.90066,2.26717 5.4028,0.211 0.94949,-1.29114 1.60834,-2.92533 2.02963,-4.48057 0.92295,-3.42626 0.89639,-6.95873 0.89639,-10.46395 0,-13.52132 0,-27.0692 0.0266,-40.590523 0,-0.896391 -0.2641,-1.449596 -1.05429,-1.897722 -1.39734,-0.843432 -2.74157,-1.818634 -4.03271,-2.925673 4.63845,0 9.25106,0 13.99572,0 0,21.53414 0,43.067788 0,64.602138 -0.0789,0.0266 -0.18445,0.0524 -0.2634,0.1055 -1.76624,-5.087 -3.55832,-10.20055 -5.4035,-15.49855 -0.44785,2.60952 -0.79089,4.95565 -1.29184,7.27523 -0.44784,2.10858 -1.29114,4.11166 -2.68847,5.79825 -2.58298,3.13631 -6.32575,3.47936 -9.17212,0.57989 -1.50214,-1.55524 -2.79397,-3.39972 -3.79587,-5.32385 -2.81982,-5.298 -4.3485,-11.0704 -5.61379,-16.92175 -1.84518,-8.72426 -2.89947,-17.60643 -3.18943,-26.568248 -0.0258,-0.527495 -0.15788,-1.027739 -0.23684,-1.528689 0,-3.716212 0,-7.406579 0,-11.096594 z"
     id="path54"
     inkscape:connector-curvature="0"
     style="fill:#e9de33;stroke-width:0.69866818" />
  <path
     d="m 286.61337,80.465764 c 0.28994,-4.111803 0.60574,-11.9663 1.39663,-19.768119 0.79089,-7.854497 2.18753,-15.629976 4.92911,-23.089098 1.08014,-2.925672 2.34543,-5.772326 4.26956,-8.276283 3.32146,-4.32259 7.35418,-4.42802 10.8594,-0.237198 2.50402,2.978422 3.87481,6.56301 5.087,10.174006 2.08203,6.167634 3.21527,12.546125 4.03271,19.003705 1.39664,11.096458 1.84518,22.219327 1.52868,33.368674 -0.36888,12.123989 -1.44973,24.169719 -4.9815,35.845869 -1.08084,3.61142 -2.42507,7.14319 -4.63916,10.25296 -0.84328,1.18633 -1.89757,2.34612 -3.05737,3.24252 -2.39852,1.84448 -5.27145,1.81863 -7.45897,-0.211 -1.39735,-1.29184 -2.58298,-2.87293 -3.53178,-4.53366 -2.63607,-4.61261 -3.98031,-9.69961 -4.9815,-14.89211 -2.37267,-12.22949 -3.34802,-24.644122 -3.45281,-40.880266 z m 22.56139,2.477267 c -0.2103,-10.516284 -0.34235,-23.115158 -0.7378,-35.687692 -0.13134,-4.26991 -0.86984,-8.539822 -1.58109,-12.756983 -0.23754,-1.449666 -0.97534,-2.925673 -1.81863,-4.164481 -1.29184,-1.845043 -3.71691,-1.739614 -5.00805,0.105428 -0.57989,0.843433 -1.13324,1.845044 -1.31769,2.820245 -0.52749,2.925673 -1.08084,5.877685 -1.26529,8.829768 -0.39544,6.431172 -0.73849,12.888752 -0.79088,19.346332 -0.1579,12.519785 -0.1579,25.013303 -0.1055,37.532736 0.0266,10.701496 0.0524,21.428846 1.39663,32.077246 0.2641,2.05619 0.86984,4.08582 1.55524,6.08889 0.42199,1.23875 1.44973,2.10859 2.87292,2.16099 1.47628,0.0531 2.39852,-0.81674 3.00497,-2.00309 0.5275,-1.05428 1.00189,-2.16097 1.29184,-3.29491 1.37009,-5.21835 1.60763,-10.56945 1.79209,-15.91985 0.31649,-10.99075 0.44784,-22.008049 0.71124,-35.134629 z"
     id="path56"
     inkscape:connector-curvature="0"
     style="fill:#e9de33;stroke-width:0.69866818" />
  <path
     d="m 185.42664,27.329043 c 6.93219,0 13.52133,0 20.11117,0 0.0258,0.05274 0.0524,0.105429 0.1048,0.184517 -1.37009,0.896182 -2.71433,1.871384 -4.11166,2.688476 -0.81674,0.500806 -0.97464,1.02795 -0.76434,1.950472 2.82051,12.282517 5.58794,24.591514 8.38191,36.90044 0.1055,0.395307 0.23686,0.817023 0.60645,1.238809 3.13633,-13.099679 6.27264,-26.173019 9.40966,-39.325378 -1.71383,-1.159719 -3.37386,-2.26676 -5.298,-3.558247 4.92841,0 9.56757,0 14.47012,0 -1.05429,0.711663 -1.92413,1.423326 -2.87292,1.924132 -1.76623,0.896112 -2.60953,2.266689 -3.05737,4.217161 -3.55832,14.760204 -7.27454,29.493999 -10.91181,44.254203 -0.1586,0.606165 -0.13204,1.291488 0,1.897722 4.21716,18.845736 8.48672,37.66506 12.73044,56.51024 0.18444,0.86984 0.55334,1.47629 1.34424,1.95068 1.42318,0.84329 2.76742,1.79208 4.08511,2.87292 -6.64224,0 -13.28378,0 -20.24252,0 1.52869,-1.00188 2.76743,-1.92413 4.11166,-2.68847 1.0543,-0.5799 1.29185,-1.18634 1.0019,-2.42508 -3.16287,-13.83782 -6.22024,-27.67494 -9.33072,-41.512762 -0.0789,-0.368898 -0.211,-0.764349 -0.52679,-1.159792 -0.2641,0.948794 -0.55405,1.871034 -0.79089,2.820525 -3.40042,13.283769 -6.82669,26.541709 -10.22711,39.825479 -0.39475,1.55523 -0.39475,1.55523 1.00189,2.47818 1.23874,0.81674 2.47747,1.63418 3.98032,2.63537 -4.90256,0 -9.48932,0 -14.36532,0 1.05428,-0.71124 1.89758,-1.42319 2.87292,-1.89758 1.87174,-0.92224 2.71502,-2.34613 3.21597,-4.40161 4.03271,-16.23635 8.17093,-32.4196 12.28259,-48.629397 0.13135,-0.554048 0.1579,-1.21289 0.0524,-1.792785 -3.87412,-17.290221 -7.69653,-34.554381 -11.4917,-51.844883 -0.23684,-1.106969 -0.73779,-1.871382 -1.71313,-2.424867 -1.31769,-0.764343 -2.55642,-1.660525 -4.05927,-2.688475 z"
     id="path58"
     inkscape:connector-curvature="0"
     style="fill:#e9de33;stroke-width:0.69866818" />
  <path
     d="m 241.93702,106.92831 c 5.58795,-26.726154 11.1228,-53.16271 16.65835,-79.599267 3.42627,0 6.69464,0 10.14746,0 -7.88098,25.303176 -15.70886,50.500925 -23.56398,75.804097 4.53366,0 8.90941,0 13.46892,0 0,-0.55334 0,-1.05429 0,-1.55523 0,-5.982696 0.0266,-11.939545 -0.0266,-17.922939 0,-0.948788 0.3165,-1.502133 1.1074,-2.003078 2.23993,-1.370718 4.42816,-2.846724 6.64224,-4.269981 0.3689,-0.237268 0.73779,-0.421786 1.29114,-0.764413 0,8.935059 0,17.659327 0,26.515641 2.63607,0 5.11355,0 7.72307,0 0,1.26529 0,2.39853 0,3.69037 -2.50402,0 -5.00805,0 -7.61757,0 -0.0266,0.63229 -0.1055,1.15909 -0.1055,1.66003 0,9.17282 0.0266,18.37148 -0.0266,27.5436 0,1.05429 0.34305,1.68728 1.23874,2.21408 1.34424,0.81744 2.63608,1.71313 4.19131,2.76742 -6.69463,0 -13.12588,0 -19.82121,0 1.52868,-1.02773 2.87292,-1.97653 4.27026,-2.79397 0.84329,-0.50025 1.15979,-1.10669 1.15979,-2.10858 -0.0531,-9.22522 -0.0266,-18.44973 -0.0266,-27.67495 0,-0.44854 0,-0.86984 0,-1.50283 -5.53485,0 -10.99075,0 -16.71074,0 z"
     id="path60"
     inkscape:connector-curvature="0"
     style="fill:#e9de33;stroke-width:0.69866818" />
  <path
     d="m 330.84115,80.465764 c 0.28995,-4.111803 0.60645,-11.9663 1.39735,-19.768119 0.79018,-7.854497 2.18753,-15.629976 4.9284,-23.089098 1.08084,-2.925672 2.34613,-5.772326 4.27026,-8.276283 3.32077,-4.32259 7.35348,-4.42802 10.8594,-0.237198 2.50402,2.978422 3.87412,6.56301 5.087,10.174006 2.08203,6.167634 3.21528,12.546125 4.03272,19.003705 1.39663,11.096458 1.84448,22.219327 1.52868,33.368674 -0.36889,12.123989 -1.44974,24.169719 -4.98151,35.845869 -1.08083,3.61142 -2.42507,7.14319 -4.63915,10.25296 -0.84329,1.18633 -1.89758,2.34612 -3.05737,3.24252 -2.39853,1.84448 -5.27146,1.81863 -7.45898,-0.211 -1.39734,-1.29184 -2.58298,-2.87293 -3.53247,-4.53366 -2.63538,-4.61261 -3.97961,-9.69961 -4.98151,-14.89211 -2.37197,-12.22949 -3.37386,-24.644122 -3.45282,-40.880266 z m 22.53555,2.477267 c -0.2103,-10.516284 -0.34235,-23.115158 -0.73779,-35.687692 -0.13205,-4.26991 -0.86985,-8.539822 -1.58109,-12.756983 -0.23755,-1.449666 -0.97534,-2.925673 -1.81863,-4.164481 -1.29184,-1.845043 -3.71692,-1.739614 -5.00806,0.105428 -0.57989,0.843433 -1.13324,1.845044 -1.31839,2.820245 -0.52679,2.925673 -1.08014,5.877685 -1.26458,8.829768 -0.39545,6.431172 -0.7385,12.888752 -0.7909,19.346332 -0.1579,12.519785 -0.1579,25.013303 -0.1055,37.532736 0.0266,10.701496 0.0524,21.428846 1.39664,32.077246 0.2641,2.05619 0.86984,4.08582 1.55524,6.08889 0.42199,1.23875 1.44973,2.10859 2.87292,2.16099 1.47629,0.0531 2.39853,-0.81674 3.00497,-2.00309 0.5268,-1.05428 1.00189,-2.16097 1.29184,-3.29491 1.37009,-5.21835 1.60764,-10.56945 1.79208,-15.91985 0.3165,-10.99075 0.44785,-22.008049 0.71125,-35.134629 z"
     id="path62"
     inkscape:connector-curvature="0"
     style="fill:#e9de33;stroke-width:0.69866818" />
  <path
     d="m 375.0424,80.465764 c 0.28995,-4.111803 0.60644,-11.9663 1.39664,-19.768119 0.79089,-7.854497 2.18823,-15.629976 4.9291,-23.089098 1.08084,-2.925672 2.34613,-5.772326 4.27026,-8.276283 3.32077,-4.32259 7.35349,-4.42802 10.8587,-0.237198 2.50403,2.978422 3.87482,6.56301 5.08701,10.174006 2.08273,6.167634 3.21597,12.546125 4.03271,19.003705 1.39733,11.096458 1.84518,22.219327 1.52869,33.368674 -0.3689,12.123989 -1.44974,24.169719 -4.98151,35.845869 -1.08014,3.61142 -2.42438,7.14319 -4.63845,10.25296 -0.844,1.18633 -1.89829,2.34612 -3.05808,3.24252 -2.39853,1.84448 -5.27145,1.81863 -7.45898,-0.211 -1.39663,-1.29184 -2.58298,-2.87293 -3.53176,-4.53366 -2.63539,-4.61261 -3.97962,-9.69961 -4.98152,-14.89211 -2.34612,-12.22949 -3.34731,-24.644122 -3.45281,-40.880266 z m 22.56209,2.477267 c -0.211,-10.516284 -0.34304,-23.115158 -0.73779,-35.687692 -0.13205,-4.26991 -0.86984,-8.539822 -1.58178,-12.756983 -0.23756,-1.449666 -0.97535,-2.925673 -1.81864,-4.164481 -1.29184,-1.845043 -3.71622,-1.739614 -5.00805,0.105428 -0.5799,0.843433 -1.13324,1.845044 -1.31769,2.820245 -0.5275,2.925673 -1.08084,5.877685 -1.26529,8.829768 -0.39545,6.431172 -0.73779,12.888752 -0.79089,19.346332 -0.1579,12.519785 -0.1579,25.013303 -0.1055,37.532736 0.0266,10.701496 0.0531,21.428846 1.39734,32.077246 0.26339,2.05619 0.86984,4.08582 1.55523,6.08889 0.4213,1.23875 1.44974,2.10859 2.87293,2.16099 1.47558,0.0531 2.39852,-0.81674 3.00427,-2.00309 0.52749,-1.05428 1.00189,-2.16097 1.29183,-3.29491 1.37079,-5.21835 1.60764,-10.56945 1.79209,-15.91985 0.3165,-10.99075 0.44854,-22.008049 0.71194,-35.134629 z"
     id="path64"
     inkscape:connector-curvature="0"
     style="fill:#e9de33;stroke-width:0.69866818" />
  <path
     d="m 105.9609,149.30743 -7.458144,-0.56453 v -3.08881 l 7.458144,-0.62111 v -7.62108 l -37.726057,4.7768 v 9.84772 l 37.726057,4.85016 z m -13.683348,-3.20689 v 2.19591 L 77.616978,147.18347 Z M 68.234843,124.9756 v 10.61697 H 105.9609 v -7.26266 H 84.475804 l 21.485096,-3.00497 v -4.71531 l -21.36772,-2.8855 h 21.36772 v -7.26336 H 68.234843 v 10.63303 l 16.663865,1.97514 z m 4.591185,-15.8367 c 2.600346,0.004 5.199112,0.0342 7.799415,0.014 0.42521,-0.0147 0.85049,-0.0398 1.155947,-0.065 0.643683,-0.0538 0.840358,-0.1055 1.257813,-0.2124 0.412773,-0.10969 0.928949,-0.29623 1.386088,-0.58967 0.218403,-0.13764 0.425977,-0.29135 0.677079,-0.52121 0.251101,-0.23056 0.545729,-0.53518 0.820096,-0.85797 0.572978,-0.66303 1.016074,-1.38475 1.398525,-2.11067 0.87613,-1.58458 1.74136,-3.15798 2.629088,-4.75443 0.136031,-0.212407 0.248796,-0.440167 0.468736,-0.665137 0.527076,-0.547754 1.1389,-0.547057 1.724244,-0.538671 l 0.814717,-0.03143 5.108103,-0.01116 c 0.373158,-0.0049 0.741636,0.03003 1.137291,0.210301 0.238456,0.12646 0.420738,0.33815 0.510867,0.59247 0.09013,0.25501 0.08147,0.533777 -0.02417,0.781807 -0.05184,0.12367 -0.1259,0.23685 -0.218474,0.33397 -0.389437,0.40313 -0.941385,0.35632 -1.414034,0.415 l -7.687516,0.002 v 8.02979 l 8.607942,-0.008 c 1.056455,-0.006 2.057715,-0.0133 3.093145,-0.24174 0.53329,-0.12296 1.08831,-0.31999 1.5843,-0.61763 0.49752,-0.29763 0.93593,-0.69587 1.27877,-1.16258 0.34207,-0.46671 0.58849,-1.00118 0.73388,-1.42458 0.14616,-0.4227 0.19276,-0.73361 0.23007,-1.04521 0.0373,-0.3109 0.0785,-0.62111 0.0785,-0.93272 v -8.158347 c 0,-0.368898 0.0164,-0.73919 -0.10962,-1.195428 -0.14337,-0.516311 -0.36016,-1.008875 -0.64368,-1.46371 -0.2977,-0.467405 -0.66849,-0.861453 -1.06729,-1.133238 -0.39803,-0.272482 -0.82324,-0.421298 -1.2073,-0.549847 -0.38245,-0.129254 -0.72528,-0.236156 -1.18158,-0.314404 -0.45637,-0.07968 -1.02614,-0.129255 -1.59751,-0.156505 -0.5706,-0.02798 -1.141971,-0.01395 -1.712573,-0.01395 h -6.047253 c -0.113464,0 -0.227766,0 -0.48271,0.0025 -0.255782,0.0033 -0.652975,0.0074 -1.10697,0.02585 -0.453994,0.01674 -0.96472,0.04825 -1.294352,0.07615 -0.361491,0.02371 -0.719209,0.08804 -1.066587,0.191436 -0.185427,0.05169 -0.365963,0.120171 -0.539512,0.203318 -0.32495,0.151606 -0.637884,0.326975 -0.935935,0.526092 -0.331309,0.224274 -0.636208,0.48558 -0.908759,0.778322 -0.272061,0.292742 -0.509957,0.615525 -0.756378,0.974641 -0.522673,0.769231 -1.011322,1.560125 -1.464548,2.371976 l -1.860274,3.408807 c -0.110879,0.20611 -0.230211,0.40732 -0.357579,0.60364 -0.112554,0.169087 -0.230281,0.335357 -0.352966,0.498147 -0.156223,0.20402 -0.176484,0.20541 -0.267381,0.29135 -0.03892,0.0336 -0.07776,0.0664 -0.170266,0.12296 -0.20443,0.12786 -0.564384,0.28296 -0.868304,0.31161 -0.163279,0.0203 -0.328095,0.002 -0.492911,0.002 -1.187037,-0.002 -2.41292,0.007 -3.56195,-0.005 -0.26738,0.007 -0.572908,0 -0.858174,-0.0992 -0.140719,-0.0454 -0.275989,-0.1055 -0.391038,-0.17955 -0.516958,-0.38707 -0.592366,-0.850277 -0.377805,-1.360307 0.132873,-0.23755 0.340629,-0.424091 0.590808,-0.530985 0.124377,-0.05243 0.257334,-0.08454 0.441572,-0.105499 0.379307,-0.04259 0.900165,-0.04751 1.35884,-0.04398 h 4.486219 v -8.064728 c -2.316575,0.0084 -4.631612,-0.02798 -6.94973,0.02445 -0.536396,0.02371 -1.072791,0.0622 -1.426492,0.09502 -0.232516,0.01813 -0.463797,0.04964 -0.692645,0.09431 -0.168973,0.03422 -0.3365,0.07549 -0.502182,0.123666 -0.210083,0.05941 -0.415163,0.13554 -0.613347,0.227064 -0.36518,0.158598 -0.712956,0.35563 -1.037802,0.58619 -0.356034,0.259903 -0.669324,0.582686 -0.92197,0.946693 -0.252642,0.364696 -0.446207,0.767828 -0.570586,1.114365 -0.233992,0.682597 -0.273642,1.201706 -0.349047,1.793483 -0.03582,0.289944 -0.05503,0.581988 -0.05752,0.87473 l 0.05597,6.979688 c 0.0197,0.82163 0.140321,1.63768 0.359146,2.42927 0.07774,0.25362 0.175691,0.49326 0.295405,0.72033 0.249543,0.45692 0.522401,0.837 1.006704,1.23105 0.278734,0.22218 0.578392,0.41711 0.894763,0.58129 0.682536,0.34934 1.428036,0.55754 2.162658,0.57501 z M 68.234843,89.416191 h 6.085309 v -4.02223 H 105.9609 v -8.06396 H 74.320152 V 73.33816 h -6.085309 z m 0,-26.830674 V 71.17159 H 105.9609 V 63.120348 H 90.923324 c 0.0195,-0.528613 -0.04507,-1.05492 0.12052,-1.589751 0.04045,-0.113533 0.101097,-0.218473 0.178789,-0.30937 0.318733,-0.37239 0.726894,-0.342836 1.11242,-0.401175 0.774264,-0.06994 1.551672,-0.01551 2.326704,-0.0334 h 11.298373 v -8.05285 l -11.793589,0.0078 c -1.162164,0.01397 -2.314198,0.0925 -3.477201,0.345981 -0.268359,0.07343 -0.530639,0.16775 -0.784325,0.282122 -0.413891,0.17858 -0.798369,0.418642 -1.140437,0.712083 -0.341229,0.294768 -0.636346,0.639142 -0.875291,1.021522 -0.237547,0.38357 -0.415707,0.800815 -0.528682,1.237552 -0.05205,-0.209881 -0.117376,-0.417454 -0.198212,-0.62426 -0.23629,-0.625309 -0.621955,-1.183335 -1.123458,-1.625312 -0.501505,-0.441978 -1.103547,-0.754562 -1.753588,-0.910435 -0.308602,-0.08629 -0.618811,-0.157829 -0.930557,-0.215329 -1.271017,-0.189688 -2.545108,-0.258088 -3.822343,-0.232448 h -3.949851 c -1.154913,-0.03465 -2.309972,0.06421 -3.442213,0.29463 -0.280718,0.05729 -0.556503,0.136589 -0.824798,0.237058 -0.247693,0.09572 -0.486707,0.212464 -0.71441,0.349054 -0.228331,0.136031 -0.444472,0.291554 -0.646002,0.464894 -0.87583,0.817232 -1.416888,1.93063 -1.51821,3.124235 -0.20756,1.790337 -0.14848,3.588429 -0.20212,5.382609 z m 6.134278,0.534831 c 0.0031,-0.379378 0.0078,-0.757986 0.0093,-1.1389 0.01633,-0.181863 0.06219,-0.369246 0.143815,-0.549573 0.345155,-0.52393 0.782822,-0.549642 1.205726,-0.597011 0.474955,-0.035 0.953054,-0.03346 1.429615,-0.04821 1.6527,0.0062 3.304631,-0.02103 4.95733,0.01789 0.295607,0.0054 0.590585,0.02976 0.883048,0.07308 0.278768,0.02711 0.535668,0.16286 0.715226,0.37777 0.220011,0.242577 0.23084,0.567528 0.265843,0.859012 0.03109,0.334244 0.035,0.669325 0.01167,1.005174 h -9.6216 z M 105.9609,43.496224 98.502756,42.932609 v -3.088463 l 7.458144,-0.622723 v -7.620584 l -37.726056,4.776935 v 9.847798 L 105.9609,51.074888 Z M 92.277552,40.289547 V 42.48644 L 77.616978,41.373252 Z M 70.563091,12.425262 c -0.443109,0.275967 -0.837235,0.632791 -1.152852,1.047911 -0.315616,0.415114 -0.553491,0.888539 -0.694196,1.239131 -0.106164,0.261322 -0.182316,0.533852 -0.226994,0.812362 -0.04042,0.230875 -0.07696,0.461764 -0.103394,0.692646 -0.02643,0.230881 -0.04431,0.463307 -0.06763,1.014466 -0.0241,0.552717 -0.07852,1.422601 -0.0793,2.294049 l -0.0039,10.440129 H 105.9609 l -0.0202,-12.797918 c -7.6e-4,-0.318725 -0.091,-0.63045 -0.14616,-0.942957 -0.11814,-0.660773 -0.24404,-1.240695 -0.52546,-1.861818 -0.14617,-0.326502 -0.3413,-0.677094 -0.58228,-0.995818 -0.24097,-0.31872 -0.52784,-0.605571 -0.97017,-0.876103 -0.44155,-0.272082 -1.03933,-0.527058 -1.7693,-0.713629 -0.7292,-0.185016 -1.59283,-0.329617 -2.45652,-0.328062 l -25.749808,0.05598 c -0.587699,0.0016 -1.168397,0.148474 -1.705568,0.299285 -0.537164,0.150811 -1.029243,0.344382 -1.472346,0.62035 z m 3.838679,8.981031 c 0,-0.17334 -0.01321,-0.344374 0.007,-0.509959 0.02021,-0.167121 0.05908,-0.326487 0.100281,-0.458675 0.0412,-0.130581 0.08629,-0.233984 0.147705,-0.326488 0.06219,-0.0925 0.140697,-0.17334 0.230875,-0.238665 0.418991,-0.277511 1.013698,-0.244044 1.541542,-0.268987 l 21.726904,7e-5 c 0.160135,0 0.321038,0.0016 0.476492,0.0225 0.149724,0.02208 0.296724,0.05988 0.438484,0.112765 0.123524,0.04415 0.238386,0.109411 0.339692,0.192762 0.09488,0.0816 0.174109,0.18347 0.237128,0.294629 0.06295,0.111157 0.139105,0.227765 0.139105,0.356809 v 1.317618 H 74.40177 Z"
     id="path66"
     inkscape:connector-curvature="0"
     style="clip-rule:evenodd;fill:#ffffff;fill-rule:evenodd;stroke-width:0.69866818" />
</svg>
