<?xml version="1.0" encoding="UTF-8" standalone="no"?>
<svg
   xmlns:dc="http://purl.org/dc/elements/1.1/"
   xmlns:cc="http://creativecommons.org/ns#"
   xmlns:rdf="http://www.w3.org/1999/02/22-rdf-syntax-ns#"
   xmlns:svg="http://www.w3.org/2000/svg"
   xmlns="http://www.w3.org/2000/svg"
   xmlns:sodipodi="http://sodipodi.sourceforge.net/DTD/sodipodi-0.dtd"
   xmlns:inkscape="http://www.inkscape.org/namespaces/inkscape"
   width="453.26688"
   height="182.92461"
   viewBox="0 0 453.26688 182.92461"
   version="1.1"
   id="svg68"
   sodipodi:docname="gx4000.svg"
   style="fill:none"
   inkscape:version="0.92.5 (2060ec1f9f, 2020-04-08)">
  <metadata
     id="metadata74">
    <rdf:RDF>
      <cc:Work
         rdf:about="">
        <dc:format>image/svg+xml</dc:format>
        <dc:type
           rdf:resource="http://purl.org/dc/dcmitype/StillImage" />
        <dc:title />
      </cc:Work>
    </rdf:RDF>
  </metadata>
  <defs
     id="defs72" />
  <sodipodi:namedview
     pagecolor="#ffffff"
     bordercolor="#666666"
     borderopacity="1"
     objecttolerance="10"
     gridtolerance="10"
     guidetolerance="10"
     inkscape:pageopacity="0"
     inkscape:pageshadow="2"
     inkscape:window-width="1366"
     inkscape:window-height="740"
     id="namedview70"
     showgrid="false"
     inkscape:pagecheckerboard="true"
     inkscape:zoom="1.2380201"
     inkscape:cx="214.95192"
     inkscape:cy="111.81703"
     inkscape:window-x="0"
     inkscape:window-y="0"
     inkscape:window-maximized="1"
     inkscape:current-layer="svg68" />
  <rect
     x="68.870842"
     y="9.7270917e-05"
     width="384.39603"
     height="182.92451"
     id="rect52"
     style="fill:#000000;stroke-width:0.87875611" />
  <path
     d="m 95.516932,84.849705 c 0.13269,-1.292914 0.29788,-2.618956 0.36468,-3.911871 0.96136,-16.244158 3.28215,-32.256234 9.315678,-47.505817 1.45787,-3.646663 2.94998,-7.293325 5.46938,-10.343223 1.09406,-1.326042 2.42008,-2.585829 3.87883,-3.547188 2.88407,-1.85646 6.36483,-1.624468 8.88422,0.663023 1.52552,1.392301 2.65209,3.182502 3.87882,4.87323 0.53078,0.729366 0.86208,1.62438 1.42536,2.75156 1.59142,-3.149373 3.08355,-6.033539 4.57566,-8.917705 0.0659,0.03313 0.13184,0.03313 0.19861,0.06625 0,14.918114 0,29.836229 0,44.754344 -0.0667,0.03313 -0.13268,0.03313 -0.16608,0.06625 -0.33129,-1.292913 -0.66259,-2.552609 -0.99388,-3.845524 -2.32077,-9.414991 -4.54228,-18.829985 -7.02827,-28.21176 -0.63008,-2.420096 -1.75752,-4.806972 -3.08357,-6.895512 -2.42009,-3.845524 -6.00015,-3.613445 -8.32094,0.331555 -1.69072,2.917295 -2.32079,6.166144 -2.85068,9.448121 -1.26014,7.459058 -1.69073,15.017503 -2.0554,22.576036 -0.89547,18.995719 -0.69598,37.991608 -0.53078,57.020186 0.0668,8.88423 0.49737,17.76932 0.96135,26.65355 0.232,4.60819 0.76276,9.24979 2.25489,13.65852 0.49738,1.45872 1.09406,2.91745 1.92272,4.17672 1.75664,2.61958 4.90608,2.85155 6.79542,0.26539 1.19423,-1.62394 2.0229,-3.67936 2.55278,-5.63548 1.16085,-4.3094 1.12745,-8.7524 1.12745,-13.16112 0,-17.00656 0,-34.04653 0.0334,-51.053088 0,-1.127441 -0.33218,-1.823239 -1.32604,-2.386873 -1.75752,-1.060835 -3.44823,-2.287403 -5.07217,-3.679792 5.83404,0 11.6356,0 17.60324,0 0,27.084743 0,54.168883 0,81.253903 -0.0992,0.0334 -0.232,0.0659 -0.3313,0.13269 -2.2215,-6.39821 -4.47551,-12.82982 -6.7963,-19.49343 -0.56329,3.28214 -0.99475,6.23301 -1.62482,9.15048 -0.56328,2.65208 -1.62395,5.17148 -3.38145,7.2928 -3.24876,3.94473 -7.95627,4.37619 -11.53631,0.72936 -1.88933,-1.95611 -3.51415,-4.27602 -4.7743,-6.69612 -3.54665,-6.66361 -5.46935,-13.92388 -7.060788,-21.28347 -2.32079,-10.97302 -3.64683,-22.14465 -4.01153,-33.41646 -0.0325,-0.66346 -0.19858,-1.292648 -0.29789,-1.922718 0,-4.67409 0,-9.31568 0,-13.956832 z"
     id="path54"
     inkscape:connector-curvature="0"
     style="fill:#e9de33;stroke-width:0.87875611" />
  <path
     d="m 274.89829,86.805641 c 0.36467,-5.171656 0.76187,-15.050719 1.75662,-24.863525 0.99475,-9.879063 2.75138,-19.658741 6.19962,-29.040518 1.35856,-3.679789 2.95,-7.260193 5.37008,-10.409568 4.17761,-5.436775 9.24979,-5.569381 13.65852,-0.298337 3.14944,3.746136 4.87357,8.254683 6.39821,12.796445 2.61869,7.757397 4.04404,15.779999 5.07217,23.902078 1.75664,13.956668 2.3208,27.946555 1.92272,41.969744 -0.46396,15.24905 -1.82341,30.39967 -6.26553,45.08545 -1.35943,4.5423 -3.05015,8.98442 -5.83494,12.89575 -1.06064,1.49212 -2.38669,2.95086 -3.84543,4.07831 -3.01677,2.31992 -6.63022,2.28741 -9.38159,-0.26538 -1.75753,-1.62482 -3.24877,-3.61345 -4.44213,-5.70226 -3.31554,-5.80154 -5.00627,-12.19977 -6.26552,-18.73067 -2.98425,-15.38176 -4.211,-30.99637 -4.3428,-51.417519 z m 28.37679,3.115801 c -0.26452,-13.226945 -0.4306,-29.073291 -0.92798,-44.886505 -0.1652,-5.370518 -1.09405,-10.741037 -1.98864,-16.045209 -0.29876,-1.823329 -1.22674,-3.679791 -2.28739,-5.237912 -1.62483,-2.320619 -4.67498,-2.188015 -6.29892,0.132603 -0.72936,1.060835 -1.42534,2.32062 -1.65734,3.547187 -0.66345,3.679792 -1.35943,7.392711 -1.59142,11.10572 -0.49737,8.088862 -0.92885,16.210941 -0.99475,24.333019 -0.19859,15.74687 -0.19859,31.460707 -0.13269,47.207125 0.0334,13.4599 0.0659,26.95232 1.75663,40.34544 0.33217,2.5862 1.09404,5.13897 1.95612,7.65836 0.53075,1.55804 1.8234,2.65209 3.61344,2.718 1.8568,0.0669 3.01675,-1.02726 3.77953,-2.51941 0.66346,-1.32603 1.26012,-2.71798 1.62482,-4.1442 1.72323,-6.56342 2.02201,-13.29381 2.25401,-20.02332 0.39807,-13.82372 0.56328,-27.68082 0.89458,-44.190898 z"
     id="path56"
     inkscape:connector-curvature="0"
     style="fill:#e9de33;stroke-width:0.87875611" />
  <path
     d="m 147.62978,19.972462 c 8.71902,0 17.00658,0 25.295,0 0.0324,0.06633 0.0659,0.132604 0.13182,0.232077 -1.72324,1.127181 -3.41398,2.35375 -5.17148,3.381454 -1.02726,0.629894 -1.22586,1.292915 -0.96136,2.453224 3.54752,15.448444 7.02828,30.930194 10.54243,46.411854 0.13269,0.497201 0.29791,1.027618 0.76277,1.558123 3.94474,-16.476237 7.88946,-32.919346 11.83507,-49.461841 -2.15558,-1.458647 -4.2435,-2.851038 -6.6636,-4.475416 6.19876,0 12.03369,0 18.19992,0 -1.32605,0.8951 -2.42009,1.7902 -3.61344,2.420093 -2.22149,1.127093 -3.28216,2.850948 -3.84544,5.304172 -4.4755,18.564777 -9.14961,37.096337 -13.72442,55.661115 -0.19948,0.762409 -0.16607,1.62438 0,2.386876 5.30417,23.703387 10.67425,47.373557 16.01183,71.076247 0.23198,1.09405 0.69597,1.85682 1.69072,2.45349 1.79002,1.06066 3.48075,2.254 5.13809,3.61344 -8.35434,0 -16.7078,0 -25.46021,0 1.92272,-1.26012 3.48076,-2.42009 5.17148,-3.38145 1.32605,-0.72937 1.62483,-1.49213 1.26015,-3.05016 -3.97813,-17.40464 -7.82357,-34.8084 -11.7358,-52.21304 -0.0992,-0.46399 -0.26539,-0.96138 -0.66258,-1.45874 -0.33217,1.19335 -0.69686,2.3533 -0.99474,3.54754 -4.27692,16.70777 -8.58634,33.38306 -12.86324,50.09085 -0.4965,1.9561 -0.4965,1.9561 1.26014,3.11694 1.55803,1.02727 3.11605,2.05542 5.00627,3.31466 -6.16623,0 -11.93527,0 -18.06811,0 1.32604,-0.89456 2.38671,-1.79002 3.61345,-2.38669 2.35419,-1.15996 3.41484,-2.95087 4.04492,-5.53616 5.07217,-20.42142 10.27705,-40.77605 15.44853,-61.164058 0.16521,-0.69686 0.1986,-1.52552 0.0659,-2.25489 -4.87271,-21.746928 -9.68038,-43.461078 -14.45378,-65.208359 -0.29789,-1.3923 -0.92796,-2.353748 -2.15471,-3.049898 -1.65734,-0.961359 -3.21536,-2.08854 -5.10558,-3.381453 z"
     id="path58"
     inkscape:connector-curvature="0"
     style="fill:#e9de33;stroke-width:0.87875611" />
  <path
     d="m 218.70622,120.08914 c 7.02828,-33.615054 13.98979,-66.865865 20.95218,-100.116678 4.30942,0 8.42024,0 12.76305,0 -9.91237,31.825292 -19.75796,63.517984 -29.6378,95.343268 5.70225,0 11.20589,0 16.94066,0 0,-0.69597 0,-1.32604 0,-1.9561 0,-7.52479 0.0334,-15.017068 -0.0334,-22.542738 0,-1.19334 0.39808,-1.88932 1.39285,-2.519387 2.81729,-1.724032 5.56955,-3.580492 8.35433,-5.370605 0.46399,-0.298427 0.92796,-0.530506 1.62394,-0.961447 0,11.238149 0,22.211167 0,33.350277 3.31554,0 6.43162,0 9.71376,0 0,1.59143 0,3.01677 0,4.6416 -3.14945,0 -6.29892,0 -9.58106,0 -0.0334,0.79527 -0.1327,1.45785 -0.1327,2.08792 0,11.53719 0.0334,23.10689 -0.0334,34.6432 0,1.32604 0.43147,2.12219 1.55803,2.78478 1.69073,1.02814 3.31555,2.1547 5.27166,3.48074 -8.42023,0 -16.50919,0 -24.93031,0 1.92272,-1.29264 3.61345,-2.48599 5.37096,-3.51414 1.06066,-0.62919 1.45874,-1.39194 1.45874,-2.65208 -0.0668,-11.6031 -0.0334,-23.20531 -0.0334,-34.80841 0,-0.56416 0,-1.09405 0,-1.8902 -6.96151,0 -13.82371,0 -21.01809,0 z"
     id="path60"
     inkscape:connector-curvature="0"
     style="fill:#e9de33;stroke-width:0.87875611" />
  <path
     d="m 330.52617,86.805641 c 0.36468,-5.171656 0.76276,-15.050719 1.75753,-24.863525 0.99385,-9.879063 2.75138,-19.658741 6.19874,-29.040518 1.35943,-3.679789 2.95086,-7.260193 5.37095,-10.409568 4.17673,-5.436775 9.2489,-5.569381 13.65851,-0.298337 3.14944,3.746136 4.8727,8.254683 6.39821,12.796445 2.6187,7.757397 4.04405,15.779999 5.0722,23.902078 1.75661,13.956668 2.3199,27.946555 1.92271,41.969744 -0.46398,15.24905 -1.82343,30.39967 -6.26555,45.08545 -1.35942,4.5423 -3.05015,8.98442 -5.83492,12.89575 -1.06066,1.49212 -2.38671,2.95086 -3.84544,4.07831 -3.01677,2.31992 -6.63023,2.28741 -9.3816,-0.26538 -1.75751,-1.62482 -3.24877,-3.61345 -4.44299,-5.70226 -3.31467,-5.80154 -5.00539,-12.19977 -6.26554,-18.73067 -2.98337,-15.38176 -4.2435,-30.99637 -4.34281,-51.417519 z m 28.34428,3.115801 c -0.26451,-13.226945 -0.43059,-29.073291 -0.92797,-44.886505 -0.16608,-5.370518 -1.09405,-10.741037 -1.98862,-16.045209 -0.29878,-1.823329 -1.22674,-3.679791 -2.2874,-5.237912 -1.62482,-2.320619 -4.67499,-2.188015 -6.29893,0.132603 -0.72936,1.060835 -1.42534,2.32062 -1.65822,3.547187 -0.66258,3.679792 -1.35856,7.392711 -1.59053,11.10572 -0.49739,8.088862 -0.92885,16.210941 -0.99476,24.333019 -0.19861,15.74687 -0.19861,31.460707 -0.1327,47.207125 0.0334,13.4599 0.0659,26.95232 1.75664,40.34544 0.33218,2.5862 1.09404,5.13897 1.95612,7.65836 0.53076,1.55804 1.8234,2.65209 3.61343,2.718 1.85682,0.0669 3.01678,-1.02726 3.77954,-2.51941 0.66258,-1.32603 1.26013,-2.71798 1.62481,-4.1442 1.72325,-6.56342 2.02203,-13.29381 2.25402,-20.02332 0.39807,-13.82372 0.56327,-27.68082 0.89457,-44.190898 z"
     id="path62"
     inkscape:connector-curvature="0"
     style="fill:#e9de33;stroke-width:0.87875611" />
  <path
     d="m 386.12068,86.805641 c 0.36469,-5.171656 0.76275,-15.050719 1.75664,-24.863525 0.99474,-9.879063 2.75226,-19.658741 6.19961,-29.040518 1.35944,-3.679789 2.95087,-7.260193 5.37096,-10.409568 4.17673,-5.436775 9.24891,-5.569381 13.65763,-0.298337 3.14947,3.746136 4.87358,8.254683 6.39822,12.796445 2.61958,7.757397 4.04492,15.779999 5.07218,23.902078 1.7575,13.956668 2.32079,27.946555 1.92273,41.969744 -0.46399,15.24905 -1.82343,30.39967 -6.26555,45.08545 -1.35854,4.5423 -3.04928,8.98442 -5.83404,12.89575 -1.06155,1.49212 -2.3876,2.95086 -3.84633,4.07831 -3.01677,2.31992 -6.63022,2.28741 -9.3816,-0.26538 -1.75662,-1.62482 -3.24877,-3.61345 -4.4421,-5.70226 -3.31468,-5.80154 -5.00541,-12.19977 -6.26556,-18.73067 -2.95084,-15.38176 -4.2101,-30.99637 -4.34279,-51.417519 z m 28.37766,3.115801 c -0.26538,-13.226945 -0.43146,-29.073291 -0.92795,-44.886505 -0.1661,-5.370518 -1.09406,-10.741037 -1.9895,-16.045209 -0.2988,-1.823329 -1.22676,-3.679791 -2.28742,-5.237912 -1.62482,-2.320619 -4.67411,-2.188015 -6.29891,0.132603 -0.72938,1.060835 -1.42535,2.32062 -1.65734,3.547187 -0.66346,3.679792 -1.35943,7.392711 -1.59143,11.10572 -0.49739,8.088862 -0.92796,16.210941 -0.99475,24.333019 -0.1986,15.74687 -0.1986,31.460707 -0.1327,47.207125 0.0334,13.4599 0.0667,26.95232 1.75752,40.34544 0.33129,2.5862 1.09405,5.13897 1.95611,7.65836 0.52989,1.55804 1.82342,2.65209 3.61345,2.718 1.85592,0.0669 3.01676,-1.02726 3.77865,-2.51941 0.66345,-1.32603 1.26014,-2.71798 1.62481,-4.1442 1.72412,-6.56342 2.02202,-13.29381 2.25402,-20.02332 0.39807,-13.82372 0.56416,-27.68082 0.89544,-44.190898 z"
     id="path64"
     inkscape:connector-curvature="0"
     style="fill:#e9de33;stroke-width:0.87875611" />
  <path
     d="m 47.681049,173.39185 -9.380545,-0.71004 v -3.88498 l 9.380545,-0.7812 v -9.58548 l -47.450282,6.00806 v 12.38605 l 47.450282,6.10034 z m -17.210353,-4.03349 v 2.76192 L 12.031229,170.72042 Z M 0.230767,142.78828 v 13.35358 h 47.450282 v -9.13466 h -27.02307 l 27.02307,-3.77954 v -5.93072 l -26.87544,-3.62927 h 26.87544 v -9.13554 H 0.230767 v 13.37378 l 20.959122,2.48425 z M 6.00537,122.86953 c 3.270608,0.005 6.539229,0.043 9.809783,0.0176 0.534812,-0.0185 1.069711,-0.0501 1.453903,-0.0818 0.809597,-0.0677 1.056968,-0.13271 1.582025,-0.26716 0.519169,-0.13796 1.168394,-0.37259 1.743364,-0.74166 0.274699,-0.17312 0.535776,-0.36644 0.851602,-0.65556 0.315825,-0.28998 0.686396,-0.67312 1.031483,-1.07912 0.720668,-0.83392 1.277976,-1.74167 1.759007,-2.65471 1.10196,-1.99302 2.190212,-3.97198 3.306759,-5.97992 0.171094,-0.26716 0.312925,-0.55363 0.589557,-0.83658 0.662934,-0.68895 1.432462,-0.68807 2.168683,-0.67752 l 1.024718,-0.0396 6.424761,-0.0141 c 0.469339,-0.006 0.932799,0.0378 1.430434,0.26451 0.299925,0.15906 0.529189,0.42532 0.642547,0.74519 0.113369,0.32074 0.102526,0.67136 -0.03041,0.98332 -0.06523,0.15555 -0.158355,0.2979 -0.274787,0.42005 -0.489823,0.50704 -1.184041,0.44817 -1.778517,0.52198 l -9.669041,0.002 v 10.09953 l 10.82672,-0.01 c 1.328758,-0.008 2.588102,-0.0168 3.890423,-0.30405 0.670757,-0.15466 1.368834,-0.40247 1.99267,-0.77683 0.62576,-0.37435 1.177173,-0.87524 1.608382,-1.46225 0.430242,-0.587 0.740183,-1.25924 0.923041,-1.79177 0.183837,-0.53166 0.24245,-0.92271 0.289382,-1.31463 0.04686,-0.39104 0.09876,-0.7812 0.09876,-1.17313 v -10.26124 c 0,-0.46398 0.02063,-0.92972 -0.137883,-1.50355 -0.180322,-0.64941 -0.452992,-1.26893 -0.809586,-1.841 -0.374443,-0.58789 -0.840805,-1.0835 -1.342396,-1.42534 -0.500623,-0.34272 -1.035443,-0.52989 -1.518495,-0.69158 -0.481031,-0.16256 -0.912229,-0.29702 -1.486136,-0.395438 -0.574003,-0.10027 -1.290639,-0.16257 -2.009284,-0.19685 -0.717679,-0.0351 -1.436324,-0.0175 -2.154003,-0.0175 h -7.60599 c -0.14271,0 -0.286474,0 -0.607132,0.003 -0.321712,0.004 -0.821286,0.01 -1.392302,0.0326 -0.571014,0.0211 -1.213385,0.0607 -1.627982,0.0957 -0.454669,0.0298 -0.904592,0.11074 -1.34151,0.240778 -0.233222,0.065 -0.460293,0.15115 -0.678576,0.25573 -0.408708,0.19068 -0.802304,0.41125 -1.17718,0.6617 -0.416706,0.28207 -0.800196,0.61074 -1.142999,0.97893 -0.342187,0.3682 -0.641404,0.77419 -0.951341,1.22587 -0.657397,0.9675 -1.272,1.96226 -1.842049,2.98338 l -2.339776,4.28745 c -0.139459,0.25924 -0.28955,0.51231 -0.449748,0.75923 -0.141566,0.21267 -0.289638,0.4218 -0.443946,0.62655 -0.196492,0.25661 -0.221975,0.25836 -0.336301,0.36645 -0.04895,0.0422 -0.09781,0.0835 -0.214154,0.15465 -0.257123,0.16082 -0.709859,0.35591 -1.092117,0.39194 -0.205366,0.0255 -0.412664,0.002 -0.619963,0.002 -1.493006,-0.002 -3.034872,0.009 -4.480074,-0.006 -0.336299,0.009 -0.72058,0 -1.079376,-0.12476 -0.17699,-0.0571 -0.347127,-0.1327 -0.491831,-0.22584 -0.650208,-0.48683 -0.745054,-1.06944 -0.475188,-1.71093 0.167122,-0.29878 0.428429,-0.53341 0.743094,-0.66785 0.156437,-0.066 0.323665,-0.10629 0.555392,-0.13269 0.477076,-0.0536 1.13219,-0.0598 1.709092,-0.0554 h 5.642582 V 99.729832 c -2.913693,0.0108 -5.825451,-0.0351 -8.741085,0.0307 -0.674656,0.0298 -1.349312,0.0782 -1.794182,0.1195 -0.292449,0.0228 -0.583345,0.0624 -0.871181,0.11863 -0.212527,0.043 -0.423236,0.0949 -0.631623,0.155538 -0.264235,0.0747 -0.522175,0.17048 -0.771443,0.28559 -0.459308,0.19948 -0.896727,0.44729 -1.305305,0.73729 -0.447805,0.32689 -0.841848,0.73287 -1.159616,1.1907 -0.317762,0.4587 -0.56122,0.96575 -0.717659,1.40161 -0.294306,0.85854 -0.344176,1.51146 -0.439017,2.25577 -0.04505,0.36467 -0.06921,0.732 -0.07235,1.1002 l 0.07039,8.77876 c 0.02478,1.03342 0.17649,2.05981 0.451719,3.05544 0.09777,0.31899 0.220977,0.6204 0.371549,0.906 0.313864,0.57469 0.657054,1.05275 1.26619,1.54836 0.350581,0.27946 0.727478,0.52462 1.125396,0.73113 0.858466,0.43938 1.796125,0.70124 2.720102,0.72322 z M 0.230767,98.063122 h 7.653851 v -5.059 H 47.681049 V 82.861608 H 7.884618 V 77.840835 H 0.230767 Z m 0,-33.746519 V 75.115812 H 47.681049 V 64.989291 H 28.767403 c 0.02452,-0.664868 -0.05669,-1.326834 0.151585,-1.999523 0.05088,-0.142797 0.127157,-0.274786 0.224874,-0.389113 0.40089,-0.468376 0.914258,-0.431205 1.399156,-0.504581 0.973837,-0.08796 1.95163,-0.01951 2.926433,-0.04201 H 47.680082 V 51.92552 l -14.833494,0.0098 c -1.461722,0.01757 -2.910703,0.116343 -4.37348,0.43516 -0.33753,0.09236 -0.667415,0.210989 -0.986492,0.354842 -0.520575,0.22461 -1.004156,0.526551 -1.434394,0.895629 -0.429184,0.370746 -0.80037,0.803886 -1.100906,1.284828 -0.298776,0.482438 -0.522858,1.007232 -0.664954,1.556542 -0.06547,-0.263979 -0.14763,-0.525056 -0.249302,-0.785169 -0.297196,-0.786488 -0.78227,-1.48835 -1.41304,-2.044251 C 21.993248,53.077 21.236025,52.683845 20.418429,52.487794 20.030283,52.379262 19.640114,52.289283 19.248014,52.216962 17.64938,51.978381 16.046881,51.892349 14.440428,51.924599 h -4.96796 c -1.452602,-0.04358 -2.905388,0.08076 -4.329474,0.370574 -0.353076,0.07206 -0.699947,0.171795 -1.037397,0.298161 -0.311538,0.120393 -0.61216,0.267228 -0.898555,0.439026 -0.287185,0.171094 -0.559039,0.366705 -0.812516,0.584724 -1.101582,1.027881 -1.782102,2.428267 -1.909541,3.929534 -0.261061,2.251813 -0.186753,4.513379 -0.254218,6.770024 z m 7.715441,0.672688 c 0.0039,-0.477166 0.0098,-0.953363 0.01169,-1.432461 0.02054,-0.22874 0.07822,-0.464422 0.180886,-0.691231 0.434121,-0.658977 0.9846,-0.691317 1.516512,-0.750896 0.597378,-0.04402 1.198712,-0.04209 1.798111,-0.06063 2.078698,0.0078 4.156428,-0.02645 6.235125,0.0225 0.371802,0.0068 0.742814,0.03743 1.110662,0.09192 0.350622,0.0341 0.673741,0.204839 0.899582,0.475143 0.276721,0.305104 0.29034,0.713814 0.334366,1.080431 0.03911,0.420398 0.04402,0.841849 0.01468,1.264266 H 7.946175 Z M 47.681049,40.306876 38.300504,39.597984 v -3.884541 l 9.380545,-0.783235 V 25.34535 L 0.230768,31.353583 v 12.386155 l 47.450281,6.09927 z M 30.470696,36.27365 v 2.763162 L 12.031229,37.63669 Z M 3.159141,1.2270996 c -0.557324,0.347099 -1.05304,0.795898 -1.45001,1.318019 -0.396969,0.522113 -0.696158,1.117568 -0.873131,1.558528 -0.133529,0.328679 -0.22931,0.671457 -0.285503,1.021755 -0.05084,0.290386 -0.0968,0.580789 -0.130045,0.871182 -0.03324,0.290393 -0.05573,0.582728 -0.08506,1.275953 -0.03032,0.695185 -0.09876,1.789289 -0.09974,2.8853614 L 0.230704,23.289062 H 47.681049 L 47.655686,7.1923676 C 47.65473,6.7914876 47.541232,6.3994136 47.47185,6.0063556 47.323263,5.1752616 47.164907,4.4458596 46.810947,3.6646366 46.6271,3.2539756 46.381673,2.8130166 46.078578,2.4121386 45.775494,2.0112646 45.414688,1.6504766 44.858342,1.3102116 44.302974,0.96799863 43.55111,0.64729963 42.632991,0.41263863 41.715828,0.17993263 40.629595,-0.00194037 39.543276,1.5629439e-5 L 7.156229,0.07042563 c -0.739183,0.002 -1.469561,0.186745 -2.145193,0.376429 -0.675623,0.189683 -1.294539,0.433148 -1.851856,0.78024997 z M 7.987273,12.523071 c 0,-0.218021 -0.01661,-0.433139 0.0088,-0.641406 0.02542,-0.210198 0.0743,-0.410641 0.12613,-0.576902 0.05182,-0.16424 0.108532,-0.294296 0.185776,-0.410644 0.07822,-0.116343 0.176963,-0.218019 0.290386,-0.300183 0.52699,-0.349042 1.274987,-0.306948 1.938888,-0.338321 l 27.327204,8.8e-5 c 0.201418,0 0.403793,0.002 0.599312,0.0283 0.188318,0.02777 0.373208,0.07531 0.551509,0.141831 0.155369,0.05553 0.299828,0.137613 0.427255,0.242448 0.119333,0.102633 0.218989,0.230761 0.298248,0.370573 0.0792,0.139809 0.174959,0.286473 0.174959,0.448779 V 13.14488 H 7.98726 Z"
     id="path66"
     inkscape:connector-curvature="0"
     style="clip-rule:evenodd;fill:#ffffff;fill-rule:evenodd;stroke-width:0.87875611" />
</svg>
