<?xml version="1.0" encoding="UTF-8" standalone="no"?>
<svg
   xmlns:dc="http://purl.org/dc/elements/1.1/"
   xmlns:cc="http://creativecommons.org/ns#"
   xmlns:rdf="http://www.w3.org/1999/02/22-rdf-syntax-ns#"
   xmlns:svg="http://www.w3.org/2000/svg"
   xmlns="http://www.w3.org/2000/svg"
   xmlns:sodipodi="http://sodipodi.sourceforge.net/DTD/sodipodi-0.dtd"
   xmlns:inkscape="http://www.inkscape.org/namespaces/inkscape"
   width="500"
   height="200"
   viewBox="0 0 500 200"
   version="1.1"
   id="svg126"
   sodipodi:docname="hgp.svg"
   style="fill:none"
   inkscape:version="0.92.5 (2060ec1f9f, 2020-04-08)">
  <metadata
     id="metadata132">
    <rdf:RDF>
      <cc:Work
         rdf:about="">
        <dc:format>image/svg+xml</dc:format>
        <dc:type
           rdf:resource="http://purl.org/dc/dcmitype/StillImage" />
        <dc:title></dc:title>
      </cc:Work>
    </rdf:RDF>
  </metadata>
  <defs
     id="defs130" />
  <sodipodi:namedview
     pagecolor="#ffffff"
     bordercolor="#666666"
     borderopacity="1"
     objecttolerance="10"
     gridtolerance="10"
     guidetolerance="10"
     inkscape:pageopacity="0"
     inkscape:pageshadow="2"
     inkscape:window-width="1366"
     inkscape:window-height="740"
     id="namedview128"
     showgrid="false"
     inkscape:pagecheckerboard="true"
     inkscape:zoom="1.0411096"
     inkscape:cx="280.5"
     inkscape:cy="59"
     inkscape:window-x="0"
     inkscape:window-y="0"
     inkscape:window-maximized="1"
     inkscape:current-layer="svg126" />
  <path
     d="M 38.605406,147.23646 H 33.943121 L 9.5844161,112.20938 v 35.02708 H 4.8025682 v -42.1999 h 5.8577758 l 23.192027,33.47337 v -33.47337 h 4.753035 z"
     id="path76"
     inkscape:connector-curvature="0"
     style="fill:#ffffff;stroke-width:0.8776561" />
  <path
     d="M 66.698915,147.23646 H 43.148242 l -0.09075,-42.1999 h 23.550673 v 4.76971 H 47.794729 v 13.35617 h 17.582699 v 4.73382 H 47.794729 v 15.38461 h 18.850649 z"
     id="path78"
     inkscape:connector-curvature="0"
     style="fill:#ffffff;stroke-width:0.8776561" />
  <path
     d="m 90.816729,103.83488 c -2.928738,0 -5.828689,0.57688 -8.534503,1.69765 -2.705726,1.12076 -5.164217,2.76347 -7.235134,4.83439 -2.070917,2.07083 -3.713626,4.52941 -4.834393,7.23513 -1.120767,2.70573 -1.697563,5.60577 -1.697563,8.53442 0,2.92874 0.576796,5.82869 1.697563,8.5345 1.120767,2.7059 2.763476,5.16422 4.834393,7.23549 2.070917,2.07039 4.529408,3.71336 7.235134,4.83413 2.705814,1.12076 5.605765,1.69738 8.534503,1.69738 2.928388,0 5.829041,-0.57662 8.533978,-1.69738 2.705813,-1.12077 5.165003,-2.76374 7.235403,-4.83413 2.07126,-2.07127 3.71424,-4.52959 4.835,-7.23549 1.12077,-2.70581 1.69739,-5.60576 1.69739,-8.5345 0,-2.92865 -0.57662,-5.82869 -1.69739,-8.53442 -1.12076,-2.70572 -2.76374,-5.1643 -4.835,-7.23513 -2.0704,-2.07092 -4.52959,-3.71363 -7.235403,-4.83439 -2.704937,-1.12077 -5.60559,-1.69765 -8.533978,-1.69765 z m 0.05915,4.90671 c 2.292614,0 4.562233,0.45146 6.680017,1.32859 2.117784,0.87722 4.041604,2.1629 5.662634,3.78375 1.62104,1.62086 2.90681,3.54512 3.78358,5.66291 0.87766,2.11769 1.32878,4.38749 1.32878,6.67975 0,4.6292 -1.83957,9.06864 -5.11236,12.3423 -3.273654,3.27278 -7.713717,5.11147 -12.342651,5.11147 -4.629109,0 -9.068469,-1.83869 -12.341775,-5.11235 -3.273219,-3.27278 -5.112172,-7.71231 -5.11226,-12.34142 -1.75e-4,-4.6292 1.83869,-9.06891 5.111996,-12.3423 3.273219,-3.27349 7.712842,-5.11253 12.342039,-5.1127 z"
     id="path80"
     inkscape:connector-curvature="0"
     style="fill:#ffffff;stroke-width:0.8776561" />
  <path
     d="m 210.36368,103.83488 c -2.92874,0 -5.8294,0.57688 -8.53521,1.69765 -2.70494,1.12076 -5.16413,2.76347 -7.23452,4.83439 -2.07127,2.07083 -3.71424,4.52932 -4.83501,7.23513 -1.12076,2.70573 -1.69738,5.60577 -1.69738,8.53442 0,2.92874 0.57662,5.82869 1.69738,8.5345 1.12077,2.7059 2.76374,5.16422 4.83501,7.23549 2.07039,2.07039 4.52958,3.71336 7.23452,4.83413 2.70581,1.12076 5.60647,1.69738 8.53521,1.69738 2.92873,0 5.82851,-0.57662 8.53432,-1.69738 2.70582,-1.12077 5.16413,-2.76374 7.23452,-4.83413 2.07127,-2.07127 3.71424,-4.52959 4.83501,-7.23549 1.12077,-2.70581 1.69739,-5.60576 1.69739,-8.5345 0,-2.92865 -0.57662,-5.82869 -1.69739,-8.53442 -1.12077,-2.70572 -2.76374,-5.1643 -4.83501,-7.23513 -2.07039,-2.07092 -4.5287,-3.71363 -7.23452,-4.83439 -2.70581,-1.12077 -5.60559,-1.69765 -8.53432,-1.69765 z m 0.0588,4.90671 c 2.29244,0 4.56206,0.45146 6.67984,1.32859 2.11778,0.87722 4.04161,2.1629 5.66264,3.78375 1.62103,1.62086 2.90679,3.54512 3.78357,5.66291 0.87766,2.11769 1.32877,4.38749 1.32877,6.67975 0,4.6292 -1.83869,9.06864 -5.11234,12.3423 -3.27366,3.27278 -7.71285,5.11147 -12.34248,5.11147 -4.62876,0 -9.06882,-1.83869 -12.3416,-5.11235 -3.27366,-3.27278 -5.11235,-7.7124 -5.11235,-12.34142 0,-4.6292 1.83869,-9.06891 5.11235,-12.3423 3.27278,-3.27349 7.71284,-5.11253 12.3416,-5.1127 z"
     id="path82"
     inkscape:connector-curvature="0"
     style="fill:#ffffff;stroke-width:0.8776561" />
  <path
     d="m 138.10713,103.60844 c -2.38284,0.0343 -4.79464,0.45226 -7.14851,1.28796 -10.75831,3.82044 -16.96422,15.18029 -14.4041,26.33363 2.561,11.15299 13.10429,18.64291 24.44448,17.34661 11.33932,-1.29542 19.93157,-11.89838 19.93157,-21.6523 h -5.29051 c 0,7.37214 -6.54292,15.40251 -15.24225,16.39602 -8.69933,0.99439 -16.71409,-4.69107 -18.68442,-13.27472 -1.97034,-8.58322 2.76198,-17.23129 11.01809,-20.16301 7.38197,-2.62156 15.41866,0.0858 19.78149,6.34809 h 6.11902 c -3.75373,-7.68301 -11.39285,-12.35942 -19.50678,-12.61394 -0.33878,-0.0106 -0.67843,-0.0132 -1.01808,-0.009 z"
     id="path84"
     inkscape:connector-curvature="0"
     style="fill:#ffffff;stroke-width:0.8776561" />
  <path
     d="m 160.93057,126.92399 h -29.53313 v 4.7762 h 25.86629 z"
     id="path86"
     inkscape:connector-curvature="0"
     style="fill:#ffffff;stroke-width:0.8776561" />
  <path
     d="m 187.20233,147.23646 h -23.55102 l -0.0904,-42.1999 h 23.55014 v 4.76971 h -18.81343 v 13.35617 h 17.58296 v 4.73382 h -17.58296 v 15.38461 h 18.85117 z"
     id="path88"
     inkscape:connector-curvature="0"
     style="fill:#ffffff;stroke-width:0.8776561" />
  <path
     d="m 308.39172,103.83488 c -2.92874,0 -5.82851,0.57688 -8.53433,1.69765 -2.70581,1.12076 -5.16413,2.76347 -7.23539,4.83439 -2.07127,2.07083 -3.71337,4.52932 -4.83413,7.23513 -1.12077,2.70573 -1.69827,5.60577 -1.69827,8.53442 0,2.92874 0.5775,5.82869 1.69827,8.5345 1.12076,2.7059 2.76286,5.16422 4.83413,7.23549 2.07126,2.07039 4.52958,3.71336 7.23539,4.83413 2.70582,1.12076 5.60559,1.69738 8.53433,1.69738 2.92874,0 5.82852,-0.57662 8.53433,-1.69738 2.70581,-1.12077 5.16413,-2.76374 7.2354,-4.83413 2.07039,-2.07127 3.71336,-4.52959 4.83413,-7.23549 1.12076,-2.70581 1.69738,-5.60576 1.69738,-8.5345 0,-2.92865 -0.57662,-5.82869 -1.69738,-8.53442 -1.12077,-2.70572 -2.76374,-5.1643 -4.83413,-7.23513 -2.07127,-2.07092 -4.52959,-3.71363 -7.2354,-4.83439 -2.70581,-1.12077 -5.60559,-1.69765 -8.53433,-1.69765 z m 0.0588,4.90671 c 2.29244,0 4.56206,0.45146 6.67984,1.32859 2.11779,0.87722 4.04249,2.1629 5.66264,3.78375 1.62103,1.62086 2.9068,3.54512 3.78446,5.66291 0.87677,2.11769 1.32877,4.38749 1.32789,6.67975 0,4.6292 -1.83869,9.06864 -5.11235,12.3423 -3.27366,3.27278 -7.71284,5.11147 -12.34248,5.11147 -4.62875,0 -9.06794,-1.83869 -12.3416,-5.11235 -3.27278,-3.27278 -5.11234,-7.7124 -5.11234,-12.34142 0,-4.6292 1.83869,-9.06891 5.11234,-12.3423 3.27278,-3.27349 7.71285,-5.11253 12.3416,-5.1127 z"
     id="path90"
     inkscape:connector-curvature="0"
     style="fill:#ffffff;stroke-width:0.8776561" />
  <path
     d="m 357.594,103.60765 v 8.8e-4 c -2.38196,0.0343 -4.79376,0.45217 -7.14763,1.28796 -10.75831,3.82044 -16.96422,15.18029 -14.40409,26.33363 2.561,11.15369 13.10428,18.64273 24.44448,17.34644 7.89539,-0.90223 14.45499,-6.31737 17.71373,-12.81642 h -6.04881 c -2.72863,3.92049 -7.11954,6.9721 -12.26612,7.56101 -8.69933,0.99351 -16.71408,-4.69195 -18.68442,-13.27543 -1.97034,-8.58321 2.76198,-17.23137 11.01809,-20.16309 7.38197,-2.62147 15.41867,0.0859 19.7815,6.34817 h 6.11901 c -3.75373,-7.683 -11.39285,-12.35941 -19.50678,-12.61393 -0.33878,-0.0108 -0.67843,-0.0128 -1.01896,-0.009 z"
     id="path92"
     inkscape:connector-curvature="0"
     style="fill:#ffffff;stroke-width:0.8776561" />
  <path
     d="m 449.72595,147.23646 h -23.55014 l -0.0913,-42.1999 h 23.55102 v 4.76971 H 430.8221 v 13.35617 h 17.58296 v 4.73382 H 430.8221 v 15.38461 h 18.85029 z"
     id="path94"
     inkscape:connector-curvature="0"
     style="fill:#ffffff;stroke-width:0.8776561" />
  <path
     d="m 383.61738,105.03656 h 4.81044 v 42.1999 h -4.81044 z"
     id="path96"
     inkscape:connector-curvature="0"
     style="fill:#ffffff;stroke-width:0.8776561" />
  <path
     d="m 412.21756,147.23646 h 6.3358 l -21.87733,-22.71365 -3.94419,2.98868 z"
     id="path98"
     inkscape:connector-curvature="0"
     style="fill:#ffffff;stroke-width:0.8776561" />
  <path
     d="m 412.0982,105.03656 h 6.21644 l -32.3978,33.59273 1.31561,-8.72706 z"
     id="path100"
     inkscape:connector-curvature="0"
     style="fill:#ffffff;stroke-width:0.8776561" />
  <path
     d="m 457.16672,105.03656 h 34.42957 v 4.76971 h -34.42957 z"
     id="path102"
     inkscape:connector-curvature="0"
     style="fill:#ffffff;stroke-width:0.8776561" />
  <path
     d="m 471.87097,105.03656 h 4.87275 v 42.1999 h -4.87275 z"
     id="path104"
     inkscape:connector-curvature="0"
     style="fill:#ffffff;stroke-width:0.8776561" />
  <path
     d="m 247.03039,106.47969 6.04003,-17.410851 16.03917,0.0482 0.13691,7.80596 -10.58541,-0.0851 -2.16254,8.012911 10.86889,7.8624 c 5.35634,-2.20055 9.17941,-6.98746 9.96579,-12.47764 0.7855,-5.490091 -1.59119,-10.805001 -6.19538,-13.853891 -4.60418,-3.0488 -10.67669,-3.24926 -15.86539,-0.6743 l -17.45482,8.66211 26.30511,53.007451 -6.85362,3.40092 -29.86576,-60.182031 24.84381,-12.32887 c 8.13851,-4.03853 17.82256,-3.05942 24.74113,2.50123 6.91856,5.56074 9.78411,14.66853 7.31965,23.267541 -2.46358,8.59901 -10.11938,14.98151 -18.25964,17.54479 z"
     id="path106"
     inkscape:connector-curvature="0"
     style="fill:#e81a2e;stroke-width:0.8776561" />
  <path
     d="m 267.07167,47.421509 -2.79007,20.7104 5.24136,1.0144 7.35388,-20.287752 z"
     id="path108"
     inkscape:connector-curvature="0"
     style="fill:#e81a2e;stroke-width:0.8776561" />
  <path
     d="m 287.61233,53.930435 -10.31245,17.920804 4.56468,3.04319 13.01828,-15.807554 z"
     id="path110"
     inkscape:connector-curvature="0"
     style="fill:#e81a2e;stroke-width:0.8776561" />
  <path
     d="m 301.39154,66.356499 -14.96229,13.35609 3.46587,5.1564 16.48326,-10.3129 z"
     id="path112"
     inkscape:connector-curvature="0"
     style="fill:#e81a2e;stroke-width:0.8776561" />
  <path
     d="m 491.2268,141.82835 v 5.42918 h 0.90486 v -4.62086 l 1.47095,4.62086 h 0.79165 l 1.35773,-4.62086 v 4.62086 h 0.79165 v -5.42918 h -1.24452 l -1.35685,4.39003 -1.35774,-4.39003 z m -3.16658,0.80919 v 4.61999 h 0.79164 v -4.61999 h 1.92295 v -0.80919 h -4.4111 v 0.80919 z"
     id="path114"
     inkscape:connector-curvature="0"
     style="clip-rule:evenodd;fill:#ffffff;fill-rule:evenodd;stroke-width:0.8776561" />
  <path
     d="m 5.292439,77.193449 c 0,3.58057 2.3870421,6.47921 5.342444,6.47921 h 14.833766 c 0.341057,0 0.682026,0.34097 0.682026,0.79568 0,0.45463 -0.284185,0.7956 -0.682026,0.7956 H 5.2356274 v 5.74039 H 27.855698 c 2.955419,0 5.342468,-2.95542 5.342468,-6.53599 0,-3.58057 -2.387049,-6.5359 -5.342468,-6.5359 H 13.078734 c -0.341013,0 -0.682,-0.34106 -0.682,-0.79569 0,-0.45471 0.284176,-0.79568 0.682,-0.79568 h 20.062648 v -5.62674 H 10.635839 c -2.9554013,0 -5.3424451,2.89855 -5.3424451,6.47912 z"
     id="path116"
     inkscape:connector-curvature="0"
     style="fill:#0097e0;stroke-width:0.8776561" />
  <path
     d="m 34.790147,70.714329 v 20.17661 h 7.104451 v -12.67432 l 13.526875,12.67432 h 7.388635 v -20.17661 h -7.10445 v 12.61745 L 42.178783,70.714329 Z"
     id="path118"
     inkscape:connector-curvature="0"
     style="fill:#0097e0;stroke-width:0.8776561" />
  <path
     d="m 71.56271,79.580669 v -8.86634 h -7.218108 v 20.17661 h 7.218108 v -8.92322 l 11.480795,8.92322 h 9.264187 L 79.23553,80.831069 92.307692,70.714329 h -9.264187 z"
     id="path120"
     inkscape:connector-curvature="0"
     style="fill:#0097e0;stroke-width:0.8776561" />
  <path
     d="m 94.408625,70.714329 c 0.567843,0 1.078639,0.22731 1.477973,0.62515 v 0 c 0.398456,0.39784 0.567843,0.85256 0.624891,1.47771 0,0.5682 -0.226435,1.07978 -0.624891,1.47771 -0.397578,0.39784 -0.909252,0.62516 -1.477973,0.62516 -0.567844,0 -1.079517,-0.22732 -1.477973,-0.62516 -0.397403,-0.39784 -0.624803,-0.90934 -0.624803,-1.47771 0,-0.56837 0.227313,-1.07987 0.624803,-1.47771 0.399334,-0.39784 0.910129,-0.62515 1.477973,-0.62515 z m 0,3.86493 c 0.511673,0 0.909252,-0.17044 1.25066,-0.5115 0.34053,-0.34097 0.510796,-0.79568 0.510796,-1.2503 0,-0.45472 -0.170266,-0.90934 -0.510796,-1.2504 -0.341408,-0.34097 -0.738987,-0.5115 -1.25066,-0.5115 -0.454626,0 -0.909252,0.17053 -1.25066,0.5115 -0.340531,0.34106 -0.511674,0.73881 -0.511674,1.2504 0,0.45462 0.171143,0.90933 0.511674,1.2503 0.341408,0.34106 0.738986,0.5115 1.25066,0.5115 z"
     id="path122"
     inkscape:connector-curvature="0"
     style="clip-rule:evenodd;fill:#0097e0;fill-rule:evenodd;stroke-width:0.8776561" />
  <path
     d="m 95.375802,72.419169 v 0.0569 0 c 0,0.22731 -0.114095,0.39784 -0.284361,0.45471 0.0158,0.0312 0.03511,0.0625 0.05617,0.0949 0.05441,0.0856 0.114096,0.1793 0.114096,0.30296 l 0.05705,0.5115 h -0.341408 l -0.05705,-0.5115 c 0,-0.11374 -0.113217,-0.2274 -0.283482,-0.2274 H 93.89783 v 0.79568 h -0.341408 v -2.10286 h 1.193612 c 0.341408,0 0.625769,0.28419 0.625769,0.62515 z m -0.625769,-0.28427 h -0.852204 v 0 0.68203 h 0.852204 c 0.170265,0 0.284361,-0.11366 0.284361,-0.28419 v -0.11365 c 0,-0.17053 -0.114096,-0.28419 -0.284361,-0.28419 z"
     id="path124"
     inkscape:connector-curvature="0"
     style="clip-rule:evenodd;fill:#0097e0;fill-rule:evenodd;stroke-width:0.8776561" />
</svg>
