<?xml version="1.0" encoding="UTF-8" standalone="no"?>
<!-- Created with Inkscape (http://www.inkscape.org/) -->

<svg
   xmlns:dc="http://purl.org/dc/elements/1.1/"
   xmlns:cc="http://creativecommons.org/ns#"
   xmlns:rdf="http://www.w3.org/1999/02/22-rdf-syntax-ns#"
   xmlns:svg="http://www.w3.org/2000/svg"
   xmlns="http://www.w3.org/2000/svg"
   xmlns:sodipodi="http://sodipodi.sourceforge.net/DTD/sodipodi-0.dtd"
   xmlns:inkscape="http://www.inkscape.org/namespaces/inkscape"
   width="400"
   height="150"
   viewBox="0 0 105.83333 39.687501"
   version="1.1"
   id="svg8"
   sodipodi:docname="images.svg"
   inkscape:version="0.92.5 (2060ec1f9f, 2020-04-08)">
  <defs
     id="defs2" />
  <sodipodi:namedview
     id="base"
     pagecolor="#ffffff"
     bordercolor="#666666"
     borderopacity="1.0"
     inkscape:pageopacity="0.0"
     inkscape:pageshadow="2"
     inkscape:zoom="1.53125"
     inkscape:cx="202.15232"
     inkscape:cy="57.882286"
     inkscape:document-units="mm"
     inkscape:current-layer="layer1"
     showgrid="false"
     units="px"
     inkscape:pagecheckerboard="true"
     inkscape:window-width="1366"
     inkscape:window-height="740"
     inkscape:window-x="0"
     inkscape:window-y="0"
     inkscape:window-maximized="1"
     showguides="true"
     inkscape:guide-bbox="true">
    <sodipodi:guide
       position="14.168707,31.44762"
       orientation="0,1"
       id="guide344"
       inkscape:locked="false" />
    <sodipodi:guide
       position="9.8489793,8.639456"
       orientation="0,1"
       id="guide346"
       inkscape:locked="false" />
  </sodipodi:namedview>
  <metadata
     id="metadata5">
    <rdf:RDF>
      <cc:Work
         rdf:about="">
        <dc:format>image/svg+xml</dc:format>
        <dc:type
           rdf:resource="http://purl.org/dc/dcmitype/StillImage" />
        <dc:title></dc:title>
      </cc:Work>
    </rdf:RDF>
  </metadata>
  <g
     inkscape:label="Layer 1"
     inkscape:groupmode="layer"
     id="layer1"
     transform="translate(0,-257.31248)">
    <g
       aria-label="[image viewer]"
       transform="matrix(0.33950123,0,0,0.52732254,2.8911754,251.23525)"
       style="font-style:normal;font-weight:normal;font-size:40px;line-height:125%;font-family:sans-serif;letter-spacing:0px;word-spacing:0px;fill:#ffffff;fill-opacity:1;stroke:none;stroke-width:1px;stroke-linecap:butt;stroke-linejoin:miter;stroke-opacity:1"
       id="flowRoot10">
      <path
         d="m 3.6283803,30.74925 q 0.4029465,-0.03838 0.4029465,-0.134316 l 0.6140138,0.07675 1.7461017,-0.01919 h 0.019188 v 2.436867 Q 5.5471734,32.994238 5.5471734,32.821546 l -0.5948259,0.09594 -0.076752,-0.07675 h -0.076752 q -0.09594,0.115128 -0.8826449,0.172692 0.09594,0.575637 0.287819,0.825081 -0.1535034,0.748329 -0.4605103,1.074524 l 0.076752,0.307007 -0.076752,0.230255 0.076752,0.614014 -0.076752,0.07675 0.076752,0.383759 v 0.230255 l -0.076752,1.074524 0.076752,0.07675 v 0.07675 l -0.1535035,0.46051 0.2302552,1.381531 v 0.230255 L 3.7435079,40.66941 v 0.383759 q 0,0.55645 0.2302551,1.381531 l -0.076752,0.230255 0.076752,1.074524 v 0.307007 l -0.3070069,1.228027 q 0.3837587,1.362344 0.3837587,1.842042 -0.2302552,0 -0.2302552,0.307007 l 0.076752,0.46051 -0.076752,0.614014 0.076752,0.07675 -0.076752,0.07675 v 0.07675 q 0,1.381531 0.3070069,2.993317 l -0.3070069,0.844269 0.1535034,0.997773 -0.076752,0.614013 0.1535035,0.460511 v 0.307007 q 0,0.36457 -0.2302552,0.767517 l 0.076752,0.690765 q -0.09594,0 -0.3070069,0.767518 0.09594,0.402946 0.3837586,0.614013 l 0.076752,0.307007 -0.076752,0.537262 0.076752,0.07675 -0.2302552,2.763062 0.076752,0.307007 -0.2302552,0.921021 0.076752,0.844269 -0.076752,0.614014 0.2302552,1.074524 -0.076752,0.652389 0.5756379,0.115128 1.3623431,-0.249443 0.6523897,0.09594 -0.038376,2.129861 -0.076752,0.07675 -0.076752,-0.07675 H 5.9117441 L 4.3191458,68.223279 Q 3.417313,68.184903 2.880051,68.127339 V 67.93546 l -1.3431552,-0.07675 0.2110672,-1.47747 q -0.2110672,0 -0.3070069,-1.151276 l 0.076752,-0.307007 V 64.308941 L 1.747963,63.694927 1.5177079,62.697155 1.5944596,62.4669 Q 1.5177079,61.469127 1.3642044,61.469127 l 0.076752,-0.383758 -0.076752,-0.307007 Q 1.747963,60.356227 1.747963,59.320079 L 1.5944596,59.166575 v -0.07675 L 1.6712113,58.782817 1.5177079,58.47581 1.6712113,57.861796 1.4409561,56.633769 1.747963,56.096507 1.5944596,55.635996 l 0.076752,-0.07675 v -0.07675 L 1.5944596,54.714975 1.8247148,54.02421 Q 1.5177079,53.5637 1.5177079,52.642679 l 0.1535034,-0.690766 q 0,-0.537262 -0.1535034,-0.844269 l 0.076752,-0.844269 V 49.57261 l -0.076752,-0.07675 0.1535034,-0.614014 -0.076752,-0.307006 0.076752,-0.230256 -0.2302552,-0.46051 0.2302552,-1.228028 -0.076752,-1.535034 q 0,-0.997772 0.2302552,-1.611786 Q 1.2874527,42.722519 1.2874527,42.4347 v -0.230256 l 0.3070069,-1.458282 v -1.074524 l -0.1535035,-0.537262 0.1535035,-1.30478 q 0,-0.36457 -0.3837586,-1.151276 0,-0.383758 0.537262,-1.074524 V 35.450293 L 1.5177079,35.220038 v -0.07675 h 0.1535034 v -0.07675 Q 1.3642044,34.759527 1.3642044,34.529272 l 0.076752,-0.614014 -0.076752,-0.07675 Q 1.5944596,33.761755 1.5944596,33.377996 1.5752717,32.22672 1.4409561,32.22672 l 0.2302552,-0.844269 -0.076752,-0.46051 v -0.07675 q 0,-0.230255 0.9977724,-0.307007 v -0.07675 q 0.7099534,0.03838 1.0361483,0.287819 z"
         style="font-style:normal;font-variant:normal;font-weight:normal;font-stretch:normal;font-size:39.29688263px;font-family:'Top Secret';-inkscape-font-specification:'Top Secret';fill:#ffffff"
         id="path677" />
      <path
         d="m 16.388354,35.622984 0.19188,0.172692 h 1.036148 q 0,0.479698 0.882645,0.882644 l 0.172691,1.055337 q -1.918793,0 -1.918793,1.228027 l -0.364571,1.228028 0.19188,0.172691 v 0.172691 l -0.537262,1.055337 0.172691,0.518074 -0.172691,0.537262 q 0,2.801438 0.882645,2.801438 l -0.172692,1.228027 v 3.146821 l 0.345383,0.709954 -1.055336,2.456055 1.055336,4.202157 v 1.228027 l -0.172691,1.055336 q 0,0.345383 1.746101,1.746102 l -1.055336,1.937981 q -1.343155,-0.172691 -2.628747,-1.055336 l -2.283363,0.537262 Q 11.97513,62.159893 10.440096,61.929638 L 9.2120683,62.639591 H 8.1567321 q -1.2855914,0 -2.2833638,-1.055336 V 61.219684 L 7.61947,60.183536 8.3294234,58.590938 8.1567321,57.017527 q 0,-0.882645 0.3453827,-0.882645 L 8.1567321,53.160753 8.3294234,52.988062 V 52.81537 L 7.9840407,50.704698 V 48.248643 L 7.8113493,48.075951 7.9840407,47.90326 v -0.345383 q 0,-0.882645 -0.3645707,-0.882645 L 8.3294234,43.873794 7.9840407,42.818458 8.3294234,40.362403 q 0,-1.266403 -1.937981,-2.283364 L 6.218751,36.851012 V 36.67832 q 2.5903707,-0.537262 6.140138,-0.709953 l 0.172691,-0.172691 1.937981,0.172691 q 1.918793,-0.09594 1.918793,-0.345383 z m 4.432412,-2.609558 -0.153503,0.03837 -1.151276,-0.153503 -0.07675,0.07675 h -0.07675 l -0.614014,-0.230255 -1.304779,0.230255 -0.537262,-0.153504 -0.07675,0.07675 h -0.07675 l -0.537262,-0.153503 -1.611786,0.307006 -0.537262,-0.230255 h -0.844269 q -0.844269,0.115128 -0.844269,0.307007 -0.690766,-0.07675 -0.690766,-0.230255 -0.767517,0.07675 -0.92102,0.230255 -1.6117865,-0.07675 -1.6117865,-0.230255 L 8.9242493,33.051801 8.463739,32.898298 H 8.2334838 L 8.0032286,33.051801 H 7.61947 l -0.844269,0.07675 -0.076752,-0.07675 h -0.076752 l -0.6907655,0.07675 H 5.3169183 l -0.1726914,-0.03838 v -2.475243 l 0.7867052,0.134316 0.537262,-0.07675 0.076752,0.07675 h 0.076752 l 0.3070069,-0.07675 0.2302551,0.07675 0.2302552,-0.07675 2.3025517,0.230255 0.6907655,-0.07675 h 0.307007 l 0.07675,-0.07675 0.07675,0.07675 h 0.767518 l 0.92102,-0.230255 1.074524,0.307007 0.690766,-0.07675 h 0.07675 l 1.074524,0.230256 0.690765,-0.230256 h 0.767518 l 0.844269,-0.153503 0.997772,0.153503 h 0.307007 l 0.46051,-0.07675 0.383759,0.07675 h 0.153503 l 0.07675,-0.07675 0.07675,0.07675 h 0.307007 l 0.307006,-0.07675 z m 0.05756,34.998786 -0.575638,0.05756 -0.07675,-0.07675 h -0.07675 q -0.211067,0.153503 -1.228028,0.307007 l -0.537262,-0.153504 -0.46051,0.07675 q -1.074524,-0.07675 -1.074524,-0.383759 -0.518074,0.460511 -1.228028,0.460511 -1.458283,-0.230256 -2.993317,-0.230256 l -0.614014,0.230256 h -0.230255 q -0.402947,0 -0.690766,-0.230256 l -0.46051,0.153504 -0.46051,-0.230255 -0.3837588,0.230255 -0.076752,-0.07675 h -0.076752 l -0.6140137,0.07675 q -0.2494432,0 -0.6907656,-0.307007 H 7.7154096 L 7.4084027,67.83952 7.1013959,67.916272 6.1803752,67.762769 q -0.4605104,0.46051 -0.9210207,0.46051 l -0.019188,-2.264176 q 0.5948259,-0.115128 1.7077259,-0.498886 0.7675172,0.307007 2.2258,0.307007 L 9.9412096,65.61372 q 0.6523894,0.230255 1.3815314,0.230255 v -0.07675 l 0.767517,0.307007 1.995545,-0.383759 h 0.537262 l 0.537262,0.07675 q 0,-0.115128 0.307007,-0.230255 l 0.07675,0.07675 h 0.07675 l 0.460511,-0.07675 q 1.765289,0.230255 1.765289,0.383758 h 0.307007 l 0.07675,-0.07675 h 0.07675 q 0.07675,0.230256 0.46051,0.230256 h 0.307007 q 0.268631,-0.211068 1.803665,-0.441323 z"
         style="font-style:normal;font-variant:normal;font-weight:normal;font-stretch:normal;font-size:39.29688263px;font-family:'Top Secret';-inkscape-font-specification:'Top Secret';fill:#ffffff"
         id="path679" />
      <path
         d="m 24.159467,35.622984 3.684082,1.055336 2.456055,-0.709953 h 0.172692 q 0.36457,0 0.36457,1.228028 l 0.690766,1.592598 q 0.249443,0 0.364571,1.400719 0.402946,0 1.036148,0.690765 l -0.518074,0.882645 v 0.537262 q 0.805893,0.748329 0.882645,2.091485 0.345382,0 0.345382,1.592598 l 0.882645,0.518074 q 0,-1.66935 1.228028,-3.3387 h 0.345383 l -0.172692,0.172691 v 1.419907 l 0.690766,1.918793 q -1.036149,4.048654 -1.746102,4.048654 -0.345383,0 -0.345383,0.518074 l 0.172692,0.172691 v 0.172692 l -1.055337,2.993317 0.172692,2.974129 -0.882645,1.76529 0.191879,0.690765 -0.882645,1.055337 q -0.479698,1.592598 -0.882644,1.592598 h -0.345383 q -0.767517,-0.537262 -1.76529,-4.566728 l -1.746102,-3.3387 -0.172691,-0.709953 0.345383,-0.863457 q 0,-0.614014 -1.57341,-3.3387 l -2.647935,-8.596193 q -0.633202,-2.628747 -0.863457,-2.647935 -1.592598,0 -2.110672,-1.228027 v -0.172691 q 0,-0.882645 3.684083,-1.573411 z m 18.07503,0.345383 q 0.921021,0.709953 1.76529,0.709953 v 0.172692 l 0.172692,-0.172692 h 0.345382 l 0.172692,0.172692 1.592598,-0.518074 q 2.091484,0.268631 2.091484,0.863457 v 0.537262 q -2.283363,1.630974 -2.283363,2.283363 l 0.191879,0.172692 v 0.172691 l -0.191879,0.518074 0.36457,1.937981 -0.36457,1.228028 0.36457,2.993317 q -0.36457,1.57341 -0.882645,2.264176 0.997773,2.283364 1.400719,2.283364 v 0.172691 q 0,0.364571 -0.690765,0.364571 0,2.456055 0.518074,5.257493 l -0.172691,2.283364 q 0.287819,0 1.57341,1.937981 -0.345383,1.093712 -0.882645,1.228027 h -1.036148 l -1.76529,-0.36457 -0.882645,0.191879 -1.400719,-0.364571 h -0.345382 q -1.937981,0.364571 -2.456055,0.882645 l -2.993318,-0.882645 q -1.055336,0 -1.055336,-0.518074 0.594826,-1.535034 2.647935,-2.456055 v -0.364571 l -0.172692,-4.029465 0.345383,-3.684083 v -0.709953 l -0.172691,-1.228028 0.345382,-0.345383 -0.518074,-1.918793 v -0.882645 l 0.172692,-1.592598 -0.172692,-0.518074 0.172692,-0.882645 -0.172692,-1.055336 0.172692,-0.518074 -0.709954,-0.709954 q 0.345383,-1.554222 0.345383,-4.202157 0,-0.402946 0.882645,-0.537262 l 1.055336,0.19188 z m -6.140137,5.967446 h 0.345382 v 0.364571 l -0.518074,0.518074 v -0.345382 z m -13.162921,4.566728 h 0.172691 q 0.882645,0.537262 0.882645,1.228028 h -0.172691 q 0.882645,1.189651 0.882645,3.166008 l -0.19188,0.690766 0.709954,0.709953 -0.172692,0.709954 0.345383,0.690765 -0.172691,0.709954 0.172691,1.57341 q -0.518074,0 -0.518074,1.937981 0.844269,0.230255 1.746102,2.283364 0.825081,0 1.937981,1.228027 0,1.036149 -1.76529,1.036149 l -0.518074,0.537262 H 26.097448 L 25.924756,62.83147 25.732877,63.004162 H 24.504849 L 23.814084,62.4669 h -0.537262 l -2.628747,0.191879 -0.172691,-0.537262 0.172691,-0.172692 v -0.172691 l -0.172691,-0.709953 2.628746,-2.283364 -0.172691,-1.746102 0.518074,-2.110672 -0.345383,-5.622064 0.172692,-0.172691 V 48.958596 Q 22.931439,48.267831 22.931439,47.039803 Z M 50.869066,32.763982 q -0.211067,-0.07675 -0.211067,-0.153503 -0.767517,0.07675 -0.921021,0.230255 -1.611786,-0.07675 -1.611786,-0.230255 l -0.230255,0.153503 -0.46051,-0.153503 h -0.230255 l -0.230256,0.153503 h -0.383758 l -0.844269,0.07675 -0.07675,-0.07675 h -0.07675 l -0.690765,0.07675 h -0.614014 l -1.304779,-0.307007 q -1.074524,0.07675 -1.074524,0.460511 l -0.460511,-0.153504 -0.230255,0.07675 -0.46051,-0.153504 -0.460511,0.07675 q -0.786705,-0.09594 -0.92102,-0.230255 H 37.76371 l -1.074525,0.230255 -1.228027,-0.153503 -1.381531,0.07675 -1.611786,-0.230255 q 0,0.211068 -1.151276,0.307007 l -0.307007,-0.07675 h -0.614014 l -0.614014,-0.230255 -0.997772,0.230255 -0.230255,-0.07675 q -0.997773,0.07675 -0.997773,0.230255 l -0.383758,-0.07675 -0.307007,0.07675 Q 26.44283,32.533727 25.406682,32.533727 l -0.153503,0.153504 h -0.07675 l -0.307007,-0.07675 -0.307007,0.153503 -0.614014,-0.153503 -1.228027,0.230255 -0.537262,-0.307007 -0.460511,0.153504 -0.07675,-0.07675 h -0.07675 l -0.767517,0.07675 -0.690766,-0.230255 q -0.01919,0.01919 -0.05756,0.03838 v -2.12986 l 0.211068,0.01919 0.46051,-0.153503 h 0.307007 q 0.383758,0 0.767517,0.230255 l 0.690766,-0.07675 q 0,0.09594 0.767517,0.307007 0.402946,-0.09594 0.614014,-0.383759 l 0.307006,-0.07675 0.537263,0.07675 0.07675,-0.07675 2.763062,0.230255 0.307007,-0.07675 0.921021,0.230255 0.844269,-0.07675 0.614014,0.07675 1.074524,-0.230255 1.304779,0.153503 0.46051,-0.153503 h 0.383759 l 0.614014,0.153503 0.230255,-0.153503 h 0.153503 v 0.07675 l 1.76529,-0.153504 1.228028,0.230255 q 0.441322,-0.230255 0.92102,-0.230255 0.422135,0.230255 0.844269,0.230255 l 2.379304,-0.383758 1.151276,0.307007 1.228027,-0.153504 0.921021,0.153504 0.537262,-0.07675 0.07675,0.07675 h 0.07675 l 0.307007,-0.07675 0.230255,0.07675 0.230256,-0.07675 2.302551,0.230255 0.690766,-0.07675 h 0.307007 l 0.07675,-0.07675 0.07675,0.07675 h 0.767517 l 0.287819,-0.07675 z m 0,35.094726 -1.285591,-0.05756 -1.228028,0.230256 -0.46051,-0.230256 -0.230255,0.07675 -0.307007,-0.07675 -0.614014,0.153504 -0.07675,-0.07675 h -0.690766 l -0.844269,0.07675 q -0.307007,-0.153504 -0.844269,-0.153504 l -0.690765,0.153504 q -0.921021,0 -1.381531,-0.307007 l -0.690766,0.230255 -0.767517,-0.07675 h -0.07675 l -0.07675,0.07675 -0.46051,-0.153503 -0.537262,0.307007 -1.228028,-0.230256 -0.614013,0.153504 -0.307007,-0.153504 -0.307007,0.07675 h -0.07675 l -0.153503,-0.153503 q -1.036149,0 -1.458283,0.383758 l -0.307007,-0.07675 -0.383759,0.07675 q 0,-0.153503 -0.997772,-0.230255 l -0.230255,0.07675 -0.997773,-0.230255 -0.614013,0.230255 h -0.614014 l -0.307007,0.07675 q -1.151276,-0.09594 -1.151276,-0.307007 l -1.611786,0.230255 -1.381531,-0.07675 -1.228028,0.153504 -1.074524,-0.230256 H 22.950627 Q 22.816311,67.93546 22.029606,68.0314 l -0.46051,-0.07675 -0.460511,0.153503 -0.230255,-0.07675 -0.46051,0.153503 q 0,-0.230255 -0.364571,-0.345383 v -2.321739 l 0.671578,-0.172692 2.379303,0.383759 q 0.422135,0 0.844269,-0.230255 0.479699,0 0.921021,0.230255 l 1.228028,-0.230255 1.765289,0.153503 v -0.07675 h 0.153504 l 0.230255,0.153504 0.614014,-0.153504 h 0.383758 l 0.460511,0.153504 1.304779,-0.153504 1.074524,0.230256 0.614014,-0.07675 0.844269,0.07675 0.92102,-0.230256 0.307007,0.07675 2.763062,-0.230255 0.07675,0.07675 0.537262,-0.07675 0.307007,0.07675 q 0.211067,0.287819 0.614014,0.383758 0.767517,-0.211067 0.767517,-0.307007 l 0.690766,0.07675 q 0.402946,-0.230255 0.767517,-0.230255 h 0.307007 l 0.46051,0.153503 0.614014,-0.07675 0.997772,0.153503 0.844269,-0.307007 q 1.611786,0.307007 2.993318,0.307007 h 0.07675 l 0.07675,-0.07675 0.07675,0.07675 0.614013,-0.07675 0.460511,0.07675 q 0.307007,0 0.307007,-0.230255 0.46051,0 1.746101,0.364571 z"
         style="font-style:normal;font-variant:normal;font-weight:normal;font-stretch:normal;font-size:39.29688263px;font-family:'Top Secret';-inkscape-font-specification:'Top Secret';fill:#ffffff"
         id="path681" />
      <path
         d="m 67.428249,35.680548 0.172691,0.172691 0.364571,0.345383 h 0.172691 l -0.345382,1.419907 0.709953,1.957169 0.709953,0.709953 v 3.722459 q 0.518075,0.479698 1.400719,4.259721 l 0.709954,0.709953 -0.172692,0.172691 v 0.709954 l 0.172692,0.709953 -0.172692,0.709954 1.074525,3.185196 h -0.19188 l 0.537262,0.882645 -0.537262,0.901833 q 0.614014,0 1.074524,2.12986 l -0.172691,1.228028 q 0,0.537262 1.592598,1.074524 l 0.518074,1.419907 -0.709953,0.518074 H 74.163213 L 73.645138,62.27502 h -0.36457 l -2.302552,0.709954 h -0.172691 l -0.709954,-0.172692 -0.709953,0.172692 h -0.364571 l -0.882645,-0.537262 -3.722458,0.537262 q -0.921021,0 -1.419907,-0.882645 V 61.91045 q 1.074524,-0.65239 1.074524,-2.302552 L 63.70579,58.37987 63.878482,58.187991 63.533099,56.595393 63.70579,56.422701 v -0.709953 h -1.592598 l -1.419907,0.345383 q -0.46051,-0.345383 -1.76529,-0.345383 L 58.736116,55.540057 V 53.92827 q 0,-0.345382 1.074524,-0.518074 l 0.709954,0.709954 h 1.228027 l 0.901833,-0.19188 -0.537262,-3.012505 0.172691,-1.055336 q -0.537262,0 -1.247215,-3.89515 l 0.191879,-0.537262 -1.592598,-5.679628 0.172691,-0.518074 -0.172691,-1.611786 q 0.134315,-1.055336 1.055336,-1.055336 l 0.882645,0.172691 z m -8.500254,6.02501 h 0.172692 l 0.172691,0.537262 -0.172691,0.518074 0.172691,1.784478 q 0,2.32174 -1.055336,3.722459 0,2.2258 -1.419907,4.969674 l 0.172691,0.518074 -0.172691,1.247215 0.172691,1.247216 -0.537262,0.172691 0.172692,1.055337 -0.518074,1.419906 v 0.172692 q 0,1.554222 2.302551,1.784477 h 0.345383 v 0.172692 q 0,2.12986 -1.228027,2.12986 h -2.129861 q -0.594826,0 -1.247215,-0.537262 l -2.475243,0.537262 q -0.690766,0 -1.247216,-1.957169 v -0.345383 q 2.12986,0 2.12986,-1.957169 1.630975,-1.630974 3.012506,-5.660439 L 55.378228,52.700243 57.316209,46.13797 57.68078,45.7734 57.508089,45.255326 q 0,-2.168237 1.419906,-3.549768 z m 18.708233,-8.845636 q -0.441322,-0.134315 -0.441322,-0.230255 l -0.614014,0.153503 -0.07675,-0.07675 h -0.07675 l -0.46051,0.153503 -0.844269,-0.07675 -2.302552,0.460511 -1.918793,-0.230255 -1.151276,0.07675 -0.07675,-0.07675 -0.307007,0.07675 H 68.445209 L 67.447437,32.78317 h -0.614014 l -0.767517,0.230256 h -0.07675 q -1.01696,0 -1.381531,-0.230256 l -0.537262,0.153504 -1.535035,-0.153504 q 0,0.115128 -1.074524,0.230256 l -0.690765,-0.07675 h -0.921021 q -2.014733,0 -2.2258,0.307007 h -0.383758 l -2.302552,-0.383759 -0.460511,0.07675 -0.844269,-0.153504 -1.381531,0.153504 h -0.307006 l -1.151276,0.307007 q -0.844269,0 -1.074524,-0.614014 0.383758,-0.575638 0.383758,-1.228028 l -0.07675,-0.307007 q 0,-0.537262 1.074525,-0.537262 l 1.611786,0.230256 q 0.287819,-0.230256 0.690765,-0.230256 h 0.307007 q 0.383759,0 0.460511,0.230256 l 2.149048,-0.230256 1.611786,0.460511 1.228028,-0.383759 v 0.07675 l 0.997772,-0.230255 0.46051,0.07675 0.307007,-0.07675 0.230255,0.230255 h 0.230256 l 0.230255,-0.230255 0.690765,0.153503 1.151276,-0.153503 q 0.268631,0.230255 1.151276,0.307007 l 0.383759,-0.230256 0.383758,0.230256 0.383759,-0.07675 0.307007,0.07675 0.537262,-0.07675 1.228027,0.153503 1.30478,-0.307007 1.074524,0.153504 0.46051,-0.07675 h 1.228028 l 0.690765,-0.230255 0.537262,0.153503 0.230256,-0.07675 0.537262,0.153503 h 0.07675 l 0.07675,-0.07675 1.074524,0.230256 0.307007,-0.07675 0.767517,0.153503 0.921021,-0.230255 h 0.230255 l 0.287819,0.07675 z m 0,35.267417 -0.268631,-0.07675 -2.149048,0.307006 -0.07675,-0.07675 -0.383759,0.07675 -0.46051,-0.07675 -1.151276,0.153503 q -0.594826,0 -1.381531,-0.230255 h -0.07675 q -0.287819,0.230255 -0.537263,0.230255 h -0.230255 q -0.46051,0 -0.92102,-0.46051 l -0.921021,0.153503 -0.307007,-0.07675 -0.307007,0.07675 h -0.614014 q -0.441322,0.307007 -0.690765,0.307007 l -0.614014,-0.07675 h -0.07675 l -0.07675,0.07675 -0.383759,-0.230255 -0.46051,0.230255 -0.460511,-0.153503 q -0.287819,0.230255 -0.690765,0.230255 h -0.230255 l -0.614014,-0.230255 q -1.535035,0 -2.993317,0.230255 -0.709954,0 -1.228028,-0.46051 0,0.307006 -1.074524,0.383758 l -0.46051,-0.07675 -0.537263,0.153504 q -1.01696,-0.153504 -1.228027,-0.307007 h -0.07675 l -0.07675,0.07675 -1.688538,-0.153504 q -0.978584,0 -1.228027,0.307007 h -0.153504 l -0.307006,-0.230255 -0.460511,0.153503 -0.07675,-0.07675 h -0.230255 q -0.479698,0.153503 -1.842041,0.230255 l -0.537262,-0.307007 v -0.07675 l 0.07675,-0.07675 q 0.307006,-0.115128 0.307006,-0.230256 v -0.07675 l -0.230255,-0.230256 0.153504,-0.537262 v -0.07675 q 0,-0.153504 -0.230255,-0.153504 v -0.307007 l 0.307006,-0.537262 q 0.882645,0 1.535035,0.230255 0.882645,0 1.151276,-0.307006 h 0.383758 l 1.30478,0.230255 h 0.230255 l 0.844269,-0.230255 q 1.630974,0.249443 1.918793,0.46051 h 0.307007 q 0.383759,0 0.46051,-0.230255 h 0.07675 l 0.07675,0.07675 h 0.307007 q 0,-0.153503 1.765289,-0.383758 l 0.460511,0.07675 h 0.07675 l 0.07675,-0.07675 q 0.307007,0.115127 0.307007,0.230255 l 0.537262,-0.07675 h 0.537262 l 1.995545,0.383759 0.767517,-0.307007 v 0.07675 q 0.729141,0 1.381531,-0.230255 l 0.767517,0.153503 q 1.458283,0 2.2258,-0.307007 1.535035,0.537262 2.072297,0.537262 h 0.383759 q 0.92102,-0.307007 1.765289,-0.383758 l 0.230255,0.230255 h 0.230256 v -0.153504 h 0.230255 q 0,0.230255 0.383758,0.230255 h 0.153504 l 0.07675,-0.07675 0.383759,0.230255 h 0.230255 q 0.153504,-0.153504 0.614014,-0.153504 l 0.383759,-0.383758 1.266403,0.326195 z"
         style="font-style:normal;font-variant:normal;font-weight:normal;font-stretch:normal;font-size:39.29688263px;font-family:'Top Secret';-inkscape-font-specification:'Top Secret';fill:#ffffff"
         id="path683" />
      <path
         d="m 86.462679,35.622984 0.518074,0.537262 h 1.055336 v 0.863457 q -1.132088,0.940209 -1.937981,3.530579 l -0.172691,0.172692 0.345382,1.592598 -0.345382,0.709954 0.345382,3.166008 -0.172691,0.709954 v 1.228027 l 0.172691,0.172692 -0.518074,1.592598 v 2.647934 l 0.172692,2.456055 -0.172692,0.537263 q 1.055337,1.304779 1.055337,3.70327 l -0.172692,0.709954 q 1.304779,0.844269 1.400719,1.400719 0,1.419906 -1.76529,1.419906 L 82.049455,61.354 q 0,-0.383759 -1.592599,-1.76529 l -1.57341,-2.993317 0.172691,-0.172692 q -0.230255,-0.748329 -1.765289,-2.283363 v -0.19188 q 0.03838,-0.882645 0.345383,-0.882645 l -0.172692,-0.172691 v -0.172691 l 0.172692,-1.592599 -0.345383,-0.518074 v -1.765289 l 0.345383,-0.537262 v -1.746102 q 1.247215,-4.528352 1.765289,-5.468561 2.014733,-2.014732 2.647935,-3.357887 l 1.937981,-0.345383 -0.172692,-1.228028 q 0.364571,-0.307007 2.647935,-0.537262 z m 11.282503,0 q 0.460511,0 0.863457,0.882645 l -0.172691,0.709953 0.172691,1.573411 -0.172691,0.191879 v 0.172691 l 0.709953,1.937981 v 0.518075 l -0.537262,2.302551 0.191879,0.172692 v 0.172691 q -0.422134,1.228028 -0.709953,1.228028 l -1.592598,-0.172692 q -0.479699,-4.394036 -1.76529,-4.394036 -2.302552,-3.012505 -3.511391,-3.012505 -1.419907,-0.65239 -1.419907,-1.57341 h 0.172691 l 0.191879,-0.172692 0.172692,0.172692 h 0.345383 l 1.765289,-0.172692 q 1.1129,0.115128 2.110673,0.863457 h 1.055336 l 1.055336,-1.228027 z M 97.20792,48.306207 q 1.784478,0 2.475243,1.419906 v 0.709954 l -0.709953,1.746102 0.172691,1.247215 q -0.537262,0.863457 -0.537262,2.283364 l 0.191879,1.419907 -0.191879,0.172691 v 0.172692 l 0.191879,0.537262 q 0,2.283363 -1.247215,2.283363 -1.899605,0.498887 -2.820626,1.592599 l -4.394036,1.228027 q -1.419907,-0.191879 -1.419907,-0.882645 0,-1.093712 2.302552,-1.937981 l 0.172691,-1.228027 v -0.537262 q 0,-1.76529 -0.345383,-1.76529 l 0.172692,-0.172691 V 54.48472 l -0.172692,-0.172691 0.345383,-1.247216 q 0,-1.822853 -2.475243,-2.628746 v -0.364571 l 0.882645,-0.882645 h 1.055336 l 2.820626,-0.345382 1.765289,0.345382 h 0.537263 q 0.978584,0 1.228027,-0.882644 z m 5.33424,-15.21603 q -0.13431,0.01919 -0.28781,0.03838 l -0.46051,-0.07675 -0.46051,0.153504 -0.23026,-0.07675 -0.46051,0.153504 q 0,-0.383759 -1.074524,-0.460511 l -1.30478,0.307007 h -0.614013 l -0.690766,-0.07675 h -0.07675 l -0.07675,0.07675 -0.844269,-0.07675 h -0.383759 l -0.230255,-0.153503 h -0.230255 l -0.460511,0.153503 -0.230255,-0.153503 q 0,0.153503 -1.611786,0.230255 -0.153504,-0.153503 -0.921021,-0.230255 0,0.153503 -0.690765,0.230255 0,-0.191879 -0.844269,-0.307007 H 89.51356 l -0.537262,0.230255 -1.611786,-0.307006 -0.537263,0.153503 h -0.07675 l -0.07675,-0.07675 -0.537262,0.153504 -1.304779,-0.230255 -0.614014,0.230255 h -0.07675 l -0.07675,-0.07675 -1.151275,0.153503 -1.074525,-0.307006 -1.535034,0.307006 -1.458283,-0.07675 -0.614014,0.07675 q 0,-0.134315 -0.767517,-0.153503 h -0.537262 l -0.153503,-0.153503 v -0.153504 l 0.153503,-0.614014 V 31.747022 L 76.772774,31.516767 V 31.20976 q 0,-0.537262 0.614013,-0.614014 1.477471,0.07675 1.611787,0.230255 h 0.07675 l 0.07675,-0.07675 0.307007,0.153503 q 0,-0.287819 2.302552,-0.383758 l 1.304779,0.307006 h 0.307007 l 0.07675,-0.07675 0.07675,0.07675 h 0.153504 l 0.383758,-0.07675 0.460511,0.07675 h 0.307007 l 0.997772,-0.153503 0.844269,0.153503 h 0.767517 l 0.690766,0.230256 1.074524,-0.230256 h 0.07675 l 0.690765,0.07675 1.074524,-0.307007 0.921021,0.230255 h 0.767517 l 0.07675,-0.07675 0.07675,0.07675 h 0.307007 l 0.690765,0.07675 2.302552,-0.230255 0.230255,0.07675 0.230255,-0.07675 0.307007,0.07675 h 0.07675 l 0.07675,-0.07675 0.537263,0.07675 0.92102,-0.153504 1.228028,0.153504 1.151279,-0.307007 1.59259,0.249443 z m 0.0576,34.883659 -0.67158,-0.05756 -2.302551,0.46051 -1.918793,-0.230255 -1.151276,0.07675 -0.07675,-0.07675 -0.307007,0.07675 h -0.921021 l -0.997772,-0.307007 h -0.614014 l -0.767517,0.230255 h -0.07675 q -1.01696,0 -1.381531,-0.230255 l -0.537262,0.153503 -1.535035,-0.153503 q 0,0.115128 -1.074524,0.230255 l -0.690765,-0.07675 h -0.921021 q -2.014733,0 -2.2258,0.307007 h -0.383759 l -2.302551,-0.383758 -0.460511,0.07675 -0.844269,-0.153503 -1.381531,0.153503 h -0.307006 l -1.151276,0.307007 q -0.844269,0 -1.074524,-0.614013 0.383758,-0.575638 0.383758,-1.228028 l -0.07675,-0.307007 q 0,-0.537262 1.074525,-0.537262 l 1.611786,0.230255 q 0.287819,-0.230255 0.690765,-0.230255 h 0.307007 q 0.383759,0 0.460511,0.230255 l 2.149048,-0.230255 1.611786,0.46051 1.228028,-0.383758 v 0.07675 l 0.997772,-0.230255 0.46051,0.07675 0.307007,-0.07675 0.230255,0.230255 h 0.230256 l 0.230255,-0.230255 0.690765,0.153504 1.151276,-0.153504 q 0.268631,0.230255 1.151276,0.307007 l 0.383759,-0.230255 0.383758,0.230255 0.383759,-0.07675 0.307007,0.07675 0.537262,-0.07675 1.228027,0.153504 1.30478,-0.307007 1.074524,0.153503 0.46051,-0.07675 h 1.228028 l 0.690765,-0.230255 0.537262,0.153503 0.230254,-0.07675 0.53726,0.153504 h 0.0768 l 0.0767,-0.07675 1.07452,0.230255 0.30701,-0.07675 0.36457,0.07675 z"
         style="font-style:normal;font-variant:normal;font-weight:normal;font-stretch:normal;font-size:39.29688263px;font-family:'Top Secret';-inkscape-font-specification:'Top Secret';fill:#ffffff"
         id="path685" />
      <path
         d="m 106.87864,35.622984 q 2.05311,0.882645 4.27891,1.074524 l 1.24721,-0.36457 q 0.34539,0 1.24722,1.419907 v 1.611786 l -0.70995,1.055336 V 41.3218 l 0.17269,2.12986 -0.36457,2.494431 1.24721,2.859002 q 0,0.997772 -1.5926,5.161553 v 0.172692 l 0.34539,0.537262 -0.17269,0.709953 0.36457,1.784478 -0.19188,0.172691 v 0.172691 l 0.19188,0.172692 v 0.537262 h -0.19188 l 0.19188,1.247215 v 3.031693 l -0.19188,0.172692 v 0.172691 l -0.17269,-0.172691 h -0.1727 l -3.20438,0.537262 -2.32174,-1.247216 -2.12986,0.882645 h -0.36457 q -0.97859,0 -1.76529,-1.228027 0,-0.729142 1.5926,-1.074525 l 0.17269,-0.172691 v -0.191879 l -0.34538,-0.709954 0.70995,-1.957169 q 0,-1.57341 -0.53726,-2.302551 l 0.36457,-1.439095 v -1.76529 l -0.19188,-0.729141 0.19188,-0.709954 -0.36457,-2.494431 0.53726,-1.957169 -0.53726,-2.839813 0.53726,-2.859002 q -0.97858,-1.880417 -2.49443,-2.667122 0,-1.957169 4.62429,-1.957169 z m 9.26777,0 0.70995,0.364571 0.1727,-0.191879 h 0.17269 l 1.95717,0.36457 1.95716,-0.172691 1.4391,0.345383 v 0.882644 l 0.17269,5.698816 q -0.76752,0.959396 -1.78448,1.074524 l -1.4199,-1.784478 v -0.537262 l 0.17269,-0.172691 q -1.13209,-2.12986 -2.30255,-2.12986 l -0.19188,-0.709954 -1.5926,0.172692 q -0.90183,-0.115128 -0.90183,-1.074524 v -1.419907 q 0,-0.345383 1.43909,-0.709954 z m 2.12986,7.828676 v 1.074524 q 0.4797,0 0.88265,5.871507 l -0.1727,0.537262 0.53727,1.419907 -0.17269,0.172691 0.17269,0.901833 q -0.23026,1.419907 -1.07453,1.419907 -0.67158,-0.03838 -2.12986,-2.32174 -0.36457,0 -0.36457,-1.055336 L 114.70732,50.225 q 0,-2.494431 1.24721,-2.494431 0,-0.364571 0.53726,-0.364571 l 0.90184,-3.741647 0.17269,-0.172691 z m 3.74165,11.03306 q 0.82508,0 1.05533,2.859002 h 0.19188 l -0.53726,1.419907 0.17269,0.172691 -0.17269,0.901833 v 2.839814 l -0.70995,0.172691 -3.37708,-0.518074 -3.74164,0.518074 0.17269,-0.518074 -0.17269,-1.074524 v -0.172691 q 0,-0.364571 1.59259,-0.364571 0.23026,-0.537262 2.49443,-1.784478 1.36235,-3.357888 2.66713,-4.4516 z m 3.79921,-21.432919 -0.53726,-0.172691 q -0.46051,0.307007 -1.38154,0.307007 l -0.69076,-0.153504 q -0.53726,0 -0.84427,0.153504 l -0.84427,-0.07675 h -0.69076 l -0.0768,0.07675 -0.61401,-0.153504 -0.30701,0.07675 -0.23025,-0.07675 -0.46051,0.230256 -1.22803,-0.230256 -1.53503,0.07675 q -0.99778,0 -1.61179,-0.230255 -0.78671,0.537262 -1.07452,0.537262 h -0.23026 l -1.45828,-0.307007 h -1.07453 l -0.53726,0.153504 -1.30478,-0.153504 q -0.36457,0 -1.15127,0.383759 -0.36457,0 -1.07453,-0.537262 h -0.1535 l -0.23026,0.230255 h -0.0768 v -0.153504 h -0.0767 q -0.28782,0.307007 -0.53726,0.307007 l -0.61402,-0.07675 -0.0768,0.07675 q -0.0768,-0.230255 -0.46051,-0.230255 -1.15127,0.01919 -1.15127,0.153504 l -0.84427,-0.230256 -0.46051,0.07675 h -0.0768 q -0.23026,0 -0.30701,-0.997772 h -0.0768 q 0.0768,-1.30478 0.84427,-1.30478 l 0.69076,-0.153503 q 0,0.153503 0.23026,0.153503 l 0.61401,-0.07675 v 0.07675 q 0.70995,-0.09594 0.99777,-0.307006 0.74833,0.153503 1.07453,0.46051 l 0.307,-0.07675 0.23026,0.07675 0.61401,-0.07675 0.0768,0.07675 0.38376,-0.07675 h 0.23026 l 1.07452,0.07675 0.0768,-0.07675 h 0.0768 l 0.46051,0.153504 1.38153,-0.230256 h 0.23025 l 0.61402,0.153504 h 0.38375 q 0.55645,0 1.38154,-0.230255 l 0.23025,0.07675 1.07452,-0.07675 h 0.30701 l 1.22803,0.307007 q 1.36234,-0.383759 1.84204,-0.383759 0,0.230255 0.30701,0.230255 l 0.46051,-0.07675 0.61401,0.07675 0.0768,-0.07675 0.0768,0.07675 h 0.0767 q 1.40072,0 2.99331,-0.307007 l 0.84427,0.307007 0.99778,-0.153503 0.61401,0.07675 0.38376,-0.134315 z m -0.0576,35.229042 -0.53726,0.153503 -0.23025,-0.07675 -0.53727,0.153504 -0.69076,-0.230255 h -1.22803 l -0.46051,-0.07675 -1.07452,0.153503 -1.30478,-0.307006 -1.22803,0.153503 -0.53726,-0.07675 -0.30701,0.07675 -0.38376,-0.07675 -0.38376,0.230255 -0.38375,-0.230255 q -0.88265,0.07675 -1.15128,0.307007 l -1.15128,-0.153503 -0.69076,0.153503 -0.23026,-0.230255 h -0.23025 l -0.23026,0.230255 -0.307,-0.07675 -0.46051,0.07675 -0.99778,-0.230255 v 0.07675 l -1.22802,-0.383759 -1.61179,0.46051 -2.14905,-0.230255 q -0.0767,0.230255 -0.46051,0.230255 h -0.30701 q -0.40294,0 -0.69076,-0.230255 l -1.61179,0.230255 q -1.07452,0 -1.07452,-0.537262 l 0.0768,-0.307007 q 0,-0.652389 -0.38376,-1.228027 0.23026,-0.614014 1.07453,-0.614014 l 1.15127,0.307007 h 0.30701 l 1.38153,0.153503 0.84427,-0.153503 0.46051,0.07675 2.30255,-0.383759 h 0.38376 q 0.21107,0.307007 2.2258,0.307007 h 0.92102 l 0.69076,-0.07675 q 1.07453,0.115128 1.07453,0.230255 l 1.53503,-0.153503 0.53727,0.153503 q 0.36457,-0.230255 1.38153,-0.230255 h 0.0768 l 0.76752,0.230255 h 0.61401 l 0.99777,-0.307006 h 0.92102 l 0.30701,0.07675 0.0768,-0.07675 1.15128,0.07675 1.91879,-0.230255 1.07452,0.211067 z"
         style="font-style:normal;font-variant:normal;font-weight:normal;font-stretch:normal;font-size:39.29688263px;font-family:'Top Secret';-inkscape-font-specification:'Top Secret';fill:#ffffff"
         id="path687" />
      <path
         d="m 145.27369,68.242467 -1.05534,-0.134316 -0.46051,0.07675 -0.38376,-0.07675 -0.0768,0.07675 -2.14905,-0.307007 -1.07452,0.307007 -0.53727,-0.07675 -0.84426,0.153504 -0.46052,-0.230255 -0.0768,0.07675 h -0.0767 l -0.30701,-0.07675 -0.69076,0.230255 -0.23026,-0.230255 -0.38375,0.07675 h -0.76752 l -0.92102,0.07675 -0.15351,-0.153503 -0.1535,0.153503 -0.76752,-0.07675 h -0.69076 l -0.76752,0.383759 -1.22803,-0.307007 -0.0768,0.07675 h -0.0768 L 130.24954,68.0314 h -0.84427 l -0.30701,0.153503 -0.30701,-0.153503 -0.69076,0.07675 -0.0768,-0.07675 -0.61402,0.153503 h -0.23025 l -0.92102,-0.230255 -0.76752,0.153503 -0.30701,-0.07675 -0.17269,0.03838 v -2.072296 l 0.17269,0.03838 0.84427,-0.07675 0.46051,0.153503 h 0.0768 l 0.0768,-0.07675 0.61402,0.153503 q 0,-0.172691 1.30478,-0.46051 0.28782,-0.307007 0.61401,-0.383759 0.55645,0.537262 1.15128,0.537262 l 0.38376,-0.230255 q 0.17269,0.249443 1.15127,0.46051 l 0.92102,-0.230255 0.84427,0.07675 h 0.38376 l 0.46051,-0.230255 q 0.36457,0.230255 0.69077,0.230255 0.65239,0 1.07452,-0.153503 l 1.68854,0.230255 q 0.11513,-0.307007 0.23025,-0.307007 h 0.69077 l 0.0768,-0.07675 0.99777,0.46051 h 0.0768 l 2.14905,-0.537262 0.38376,0.383759 q 0.46051,0 0.61402,0.153503 h 0.23025 l 0.38376,-0.230255 0.0768,0.07675 h 0.1535 q 0.38376,0 0.38376,-0.230255 h 0.23026 v 0.153503 h 0.23025 l 0.23026,-0.230255 q 0.0959,0 0.21107,0.01919 z m -3.41546,-34.998786 -0.21106,0.115127 q -1.36235,-0.07675 -1.84204,-0.230255 h -0.23026 l -0.0768,0.07675 -0.46051,-0.153504 -0.30701,0.230256 h -0.1535 q -0.24945,-0.307007 -1.22803,-0.307007 l -1.68854,0.153503 -0.0768,-0.07675 h -0.0768 q -0.21107,0.153504 -1.22803,0.307007 l -0.53726,-0.153503 -0.46051,0.07675 q -1.07453,-0.07675 -1.07453,-0.383759 -0.51807,0.46051 -1.22802,0.46051 -1.45829,-0.230255 -2.99332,-0.230255 l -0.61401,0.230255 h -0.23026 q -0.40295,0 -0.69076,-0.230255 l -0.46052,0.153504 -0.46051,-0.230256 -0.38375,0.230256 -0.0768,-0.07675 v -2.494431 l 0.23026,-0.03838 q 0.65239,0.230255 1.38153,0.230255 v -0.07675 l 0.76752,0.307007 1.99554,-0.383758 h 0.53726 l 0.53727,0.07675 q 0,-0.115127 0.307,-0.230255 l 0.0768,0.07675 h 0.0768 l 0.46051,-0.07675 q 1.76529,0.230255 1.76529,0.383759 h 0.307 l 0.0768,-0.07675 h 0.0767 q 0.0768,0.230255 0.46051,0.230255 h 0.307 q 0.28782,-0.211067 1.9188,-0.46051 l 0.84427,0.230255 h 0.23025 l 1.30478,-0.230255 h 0.38376 q 0.28782,0.307007 1.15128,0.307007 0.38375,-0.134316 0.82508,-0.191879 v -0.07675 q 0.1535,0.01919 0.32619,0.05756 0.19188,-0.01919 0.38376,-0.01919 l 0.0576,0.09594 q 0.38376,0.09594 0.78671,0.230256 h 0.38376 q 0.53726,0 2.07229,-0.537263 0.13432,0.05756 0.28782,0.09594 v 2.32174 l -0.13431,0.03838 -0.92102,-0.153504 q -0.46051,0.460511 -0.92102,0.460511 h -0.23026 q -0.24944,0 -0.53726,-0.230256 h -0.0768 q -0.38376,0.115128 -0.70996,0.172692 z"
         style="font-style:normal;font-variant:normal;font-weight:normal;font-stretch:normal;font-size:39.29688263px;font-family:'Top Secret';-inkscape-font-specification:'Top Secret';fill:#ffffff"
         id="path689" />
      <path
         d="m 150.68468,35.622984 q 6.60065,0.479698 6.60065,0.882645 v 1.074524 l -1.24722,1.247216 v 0.709953 l 0.34538,0.364571 -0.17269,1.247215 q 0.13432,2.494431 0.70996,2.494431 l -0.1727,0.901833 v 0.345383 l 0.53727,1.611786 q 0.88264,0 2.32174,4.988862 l -0.19188,1.611786 q 0.36457,0 0.36457,1.784478 l 0.70995,0.882645 q -0.53726,0.863457 -0.53726,2.321739 v 1.247216 q -1.47747,3.377076 -2.12986,3.377076 l -2.49443,0.36457 q -1.76529,-0.172691 -2.32174,-0.709953 l 0.17269,-1.074524 q 0,-1.76529 -1.24722,-2.859002 l 0.1727,-0.172691 V 57.91936 q -1.95717,-7.003595 -3.20439,-9.286959 l 0.36457,-0.537262 q -0.36457,-2.667122 -1.78448,-5.526124 v -1.784477 q 0,-1.630975 -2.49443,-2.667123 l -0.36457,-1.074524 q 0.42214,-1.055336 0.70996,-1.055336 h 0.17269 l 1.43909,0.345383 h 0.88265 l 1.24721,-0.345383 1.07453,0.172691 z m 14.96658,0 h 0.72915 q 1.59259,0 1.59259,0.882645 0,1.976357 -1.59259,1.976357 l -2.32174,2.667122 q 0,3.453828 -1.24722,4.816171 l -0.17269,1.611786 q 0,0.882645 0.34538,0.882645 -0.88264,1.899605 -1.4199,4.643479 h -0.19188 l -0.51808,-0.36457 0.70996,-1.074525 q -0.70996,-1.285591 -0.90184,-3.204384 l 0.19188,-1.074524 -0.19188,-0.537262 q 0,-1.458283 1.24722,-3.031693 l 0.36457,-2.494431 v -0.882645 q 0,-1.535035 -1.61179,-2.494431 l -0.88264,-1.247216 0.17269,-0.537262 z m 4.73942,32.696235 q -0.0768,0 -0.17269,0.01919 l -0.53726,-0.153503 -0.46051,0.07675 q -1.07452,-0.07675 -1.07452,-0.383759 -0.51808,0.46051 -1.22803,0.46051 -1.45828,-0.230255 -2.99332,-0.230255 l -0.61401,0.230255 h -0.23026 q -0.40294,0 -0.69076,-0.230255 l -0.46051,0.153504 -0.46051,-0.230255 -0.38376,0.230255 -0.0768,-0.07675 h -0.0768 l -0.61401,0.07675 q -0.24944,0 -0.69077,-0.307007 h -0.61401 l -0.30701,-0.07675 -0.307,0.07675 -0.92102,-0.153504 q -0.46051,0.460511 -0.92102,0.460511 h -0.23026 q -0.24944,0 -0.53726,-0.230255 h -0.0768 q -0.78671,0.230255 -1.38153,0.230255 l -1.15128,-0.153504 -0.46051,0.07675 -0.38376,-0.07675 -0.0768,0.07675 -2.14905,-0.307007 -1.07452,0.307007 -0.53727,-0.07675 -0.84426,0.153504 -0.46052,-0.230255 -0.0767,0.07675 h -0.0768 l -0.30701,-0.07675 -0.69076,0.230255 -0.23026,-0.230255 -0.38375,0.07675 h -0.76752 l -0.28782,0.01919 v -2.168236 q 0.4797,-0.03838 0.82508,-0.153503 l 1.68854,0.230255 q 0.11513,-0.307007 0.23025,-0.307007 h 0.69077 l 0.0768,-0.07675 0.99777,0.46051 h 0.0768 l 2.14905,-0.537262 0.38376,0.383759 q 0.46051,0 0.61402,0.153503 h 0.23025 l 0.38376,-0.230255 0.0768,0.07675 h 0.1535 q 0.38376,0 0.38376,-0.230255 h 0.23026 v 0.153503 h 0.23025 l 0.23026,-0.230255 q 0.84427,0.07675 1.76529,0.383759 h 0.38376 q 0.53726,0 2.07229,-0.537262 0.76752,0.307007 2.2258,0.307007 l 0.76752,-0.153504 q 0.65239,0.230255 1.38153,0.230255 V 65.8056 l 0.76752,0.307006 1.99554,-0.383758 h 0.53727 l 0.53726,0.07675 q 0,-0.115128 0.307,-0.230256 l 0.0768,0.07675 h 0.0767 l 0.46051,-0.07675 q 1.76529,0.230256 1.76529,0.383759 h 0.307 l 0.0768,-0.07675 h 0.0768 q 0.0768,0.230255 0.46051,0.230255 h 0.30701 l 0.0192,-0.01919 z m 0,-35.670364 -0.32619,-0.09594 -1.22803,0.383759 v -0.07675 l -0.99777,0.230255 -0.46051,-0.07675 -0.30701,0.07675 -0.23025,-0.230255 h -0.23026 l -0.23025,0.230255 -0.69077,-0.153503 -1.15128,0.153503 q -0.26863,-0.230255 -1.15127,-0.307007 l -0.38376,0.230256 -0.38376,-0.230256 -0.38376,0.07675 -0.307,-0.07675 -0.53727,0.07675 -1.22802,-0.153503 -1.30478,0.307007 -1.07453,-0.153504 -0.46051,0.07675 h -1.22803 l -0.69076,0.230255 -0.53726,-0.153503 -0.23026,0.07675 -0.53726,-0.153503 h -0.0768 l -0.0768,0.07675 -1.07453,-0.230256 -0.307,0.07675 -0.76752,-0.153503 -0.92102,0.230255 h -0.23026 l -0.61401,-0.153504 -0.0767,0.07675 -0.69077,-0.07675 -0.30701,0.153504 -0.307,-0.153504 h -0.84427 l -0.61402,0.230256 h -0.0767 l -0.0768,-0.07675 -1.22803,0.307007 -0.76751,-0.383759 h -0.59483 v -2.149048 l 0.82508,-0.07675 0.92102,0.230255 q 0.97859,-0.211067 1.15128,-0.46051 l 0.38376,0.230255 q 0.59482,0 1.15127,-0.537262 0.3262,0.07675 0.61402,0.383759 1.30478,0.287819 1.30478,0.46051 l 0.61401,-0.153503 0.0768,0.07675 h 0.0768 l 0.46051,-0.153503 0.84427,0.07675 2.30255,-0.460511 1.9188,0.230255 1.15127,-0.07675 0.0768,0.07675 0.30701,-0.07675 h 0.92102 l 0.99777,0.307007 h 0.61402 l 0.76752,-0.230256 h 0.0768 q 1.01696,0 1.38153,0.230256 l 0.53726,-0.153504 1.53504,0.153504 q 0,-0.115128 1.07452,-0.230256 l 0.69076,0.07675 h 0.92103 q 2.01473,0 2.2258,-0.307007 h 0.0192 z"
         style="font-style:normal;font-variant:normal;font-weight:normal;font-stretch:normal;font-size:39.29688263px;font-family:'Top Secret';-inkscape-font-specification:'Top Secret';fill:#ffffff"
         id="path691" />
      <path
         d="m 180.54111,35.622984 0.19188,0.172692 h 1.03615 q 0,0.479698 0.88264,0.882644 l 0.17269,1.055337 q -1.91879,0 -1.91879,1.228027 l -0.36457,1.228028 0.19188,0.172691 v 0.172691 l -0.53726,1.055337 0.17269,0.518074 -0.17269,0.537262 q 0,2.801438 0.88264,2.801438 l -0.17269,1.228027 v 3.146821 l 0.34538,0.709954 -1.05533,2.456055 1.05533,4.202157 v 1.228027 l -0.17269,1.055336 q 0,0.345383 1.7461,1.746102 l -1.05533,1.937981 q -1.34316,-0.172691 -2.62875,-1.055336 l -2.28336,0.537262 q -0.72914,-0.479698 -2.26418,-0.709953 l -1.22803,0.709953 h -1.05533 q -1.28559,0 -2.28337,-1.055336 v -0.364571 l 1.7461,-1.036148 0.70996,-1.592598 -0.17269,-1.573411 q 0,-0.882645 0.34538,-0.882645 l -0.34538,-2.974129 0.17269,-0.172691 V 52.81537 l -0.34538,-2.110672 v -2.456055 l -0.1727,-0.172692 0.1727,-0.172691 v -0.345383 q 0,-0.882645 -0.36458,-0.882645 l 0.70996,-2.801438 -0.34538,-1.055336 0.34538,-2.456055 q 0,-1.266403 -1.93798,-2.283364 l -0.17269,-1.228027 V 36.67832 q 2.59037,-0.537262 6.14013,-0.709953 l 0.1727,-0.172691 1.93798,0.172691 q 1.91879,-0.09594 1.91879,-0.345383 z m 4.43241,-2.609558 -0.1535,0.03837 -1.15128,-0.153503 -0.0768,0.07675 h -0.0768 l -0.61402,-0.230255 -1.30477,0.230255 -0.53727,-0.153504 -0.0768,0.07675 h -0.0768 l -0.53726,-0.153503 -1.61179,0.307006 -0.53726,-0.230255 h -0.84427 q -0.84427,0.115128 -0.84427,0.307007 -0.69076,-0.07675 -0.69076,-0.230255 -0.76752,0.07675 -0.92102,0.230255 -1.61179,-0.07675 -1.61179,-0.230255 l -0.23026,0.153503 -0.46051,-0.153503 h -0.23025 l -0.23026,0.153503 h -0.38376 l -0.84426,0.07675 -0.0768,-0.07675 h -0.0768 l -0.69076,0.07675 h -0.61402 l -0.17269,-0.03838 v -2.475243 l 0.78671,0.134316 0.53726,-0.07675 0.0768,0.07675 h 0.0768 l 0.30701,-0.07675 0.23025,0.07675 0.23026,-0.07675 2.30255,0.230255 0.69077,-0.07675 h 0.307 l 0.0768,-0.07675 0.0768,0.07675 h 0.76751 l 0.92103,-0.230255 1.07452,0.307007 0.69076,-0.07675 h 0.0768 l 1.07452,0.230256 0.69077,-0.230256 h 0.76751 l 0.84427,-0.153503 0.99777,0.153503 h 0.30701 l 0.46051,-0.07675 0.38376,0.07675 h 0.1535 l 0.0768,-0.07675 0.0768,0.07675 h 0.307 l 0.30701,-0.07675 z m 0.0576,34.998786 -0.57564,0.05756 -0.0768,-0.07675 h -0.0768 q -0.21106,0.153503 -1.22802,0.307007 l -0.53727,-0.153504 -0.46051,0.07675 q -1.07452,-0.07675 -1.07452,-0.383759 -0.51807,0.460511 -1.22803,0.460511 -1.45828,-0.230256 -2.99332,-0.230256 l -0.61401,0.230256 h -0.23025 q -0.40295,0 -0.69077,-0.230256 l -0.46051,0.153504 -0.46051,-0.230255 -0.38376,0.230255 -0.0768,-0.07675 h -0.0768 l -0.61402,0.07675 q -0.24944,0 -0.69076,-0.307007 h -0.61402 l -0.307,-0.07675 -0.30701,0.07675 -0.92102,-0.153503 q -0.46051,0.46051 -0.92102,0.46051 l -0.0192,-2.264176 q 0.59483,-0.115128 1.70773,-0.498886 0.76751,0.307007 2.2258,0.307007 l 0.76751,-0.153504 q 0.65239,0.230255 1.38154,0.230255 v -0.07675 l 0.76751,0.307007 1.99555,-0.383759 h 0.53726 l 0.53726,0.07675 q 0,-0.115128 0.30701,-0.230255 l 0.0768,0.07675 h 0.0768 l 0.46051,-0.07675 q 1.76529,0.230255 1.76529,0.383758 h 0.30701 l 0.0768,-0.07675 h 0.0768 q 0.0768,0.230256 0.46051,0.230256 h 0.30701 q 0.26863,-0.211068 1.80367,-0.441323 z"
         style="font-style:normal;font-variant:normal;font-weight:normal;font-stretch:normal;font-size:39.29688263px;font-family:'Top Secret';-inkscape-font-specification:'Top Secret';fill:#ffffff"
         id="path693" />
      <path
         d="m 189.23324,35.622984 q 2.05311,0.882645 4.27891,1.074524 l 1.24721,-0.36457 q 0.34539,0 1.24722,1.419907 v 1.611786 l -0.70995,1.055336 V 41.3218 l 0.17269,2.12986 -0.36457,2.494431 1.24721,2.859002 q 0,0.997772 -1.5926,5.161553 v 0.172692 l 0.34539,0.537262 -0.1727,0.709953 0.36458,1.784478 -0.19188,0.172691 v 0.172691 l 0.19188,0.172692 v 0.537262 h -0.19188 l 0.19188,1.247215 v 3.031693 l -0.19188,0.172692 v 0.172691 l -0.1727,-0.172691 h -0.17269 l -3.20438,0.537262 -2.32174,-1.247216 -2.12986,0.882645 h -0.36457 q -0.97859,0 -1.76529,-1.228027 0,-0.729142 1.5926,-1.074525 l 0.17269,-0.172691 v -0.191879 l -0.34538,-0.709954 0.70995,-1.957169 q 0,-1.57341 -0.53726,-2.302551 l 0.36457,-1.439095 v -1.76529 l -0.19188,-0.729141 0.19188,-0.709954 -0.36457,-2.494431 0.53726,-1.957169 -0.53726,-2.839813 0.53726,-2.859002 q -0.97859,-1.880417 -2.49443,-2.667122 0,-1.957169 4.62429,-1.957169 z m 9.26777,0 0.70995,0.364571 0.17269,-0.191879 h 0.1727 l 1.95716,0.36457 1.95717,-0.172691 1.4391,0.345383 v 0.882644 l 0.17269,5.698816 q -0.76752,0.959396 -1.78448,1.074524 l -1.4199,-1.784478 v -0.537262 l 0.17269,-0.172691 q -1.13209,-2.12986 -2.30255,-2.12986 l -0.19188,-0.709954 -1.5926,0.172692 q -0.90184,-0.115128 -0.90184,-1.074524 v -1.419907 q 0,-0.345383 1.4391,-0.709954 z m 2.12986,7.828676 v 1.074524 q 0.4797,0 0.88264,5.871507 l -0.17269,0.537262 0.53727,1.419907 -0.1727,0.172691 0.1727,0.901833 q -0.23026,1.419907 -1.07453,1.419907 -0.67158,-0.03838 -2.12986,-2.32174 -0.36457,0 -0.36457,-1.055336 L 197.06191,50.225 q 0,-2.494431 1.24722,-2.494431 0,-0.364571 0.53726,-0.364571 l 0.90184,-3.741647 0.17269,-0.172691 z m 3.74165,11.03306 q 0.82508,0 1.05533,2.859002 h 0.19188 l -0.53726,1.419907 0.17269,0.172691 -0.17269,0.901833 v 2.839814 l -0.70995,0.172691 -3.37708,-0.518074 -3.74165,0.518074 0.1727,-0.518074 -0.1727,-1.074524 v -0.172691 q 0,-0.364571 1.5926,-0.364571 0.23026,-0.537262 2.49443,-1.784478 1.36235,-3.357888 2.66713,-4.4516 z m 3.79921,-21.432919 -0.53727,-0.172691 q -0.46051,0.307007 -1.38153,0.307007 l -0.69076,-0.153504 q -0.53726,0 -0.84427,0.153504 l -0.84427,-0.07675 h -0.69077 l -0.0768,0.07675 -0.61401,-0.153504 -0.30701,0.07675 -0.23025,-0.07675 -0.46051,0.230256 -1.22803,-0.230256 -1.53504,0.07675 q -0.99777,0 -1.61178,-0.230255 -0.78671,0.537262 -1.07453,0.537262 h -0.23025 l -1.45828,-0.307007 h -1.07453 l -0.53726,0.153504 -1.30478,-0.153504 q -0.36457,0 -1.15127,0.383759 -0.36458,0 -1.07453,-0.537262 h -0.1535 l -0.23026,0.230255 h -0.0768 v -0.153504 h -0.0767 q -0.28782,0.307007 -0.53726,0.307007 l -0.61402,-0.07675 -0.0768,0.07675 q -0.0768,-0.230255 -0.46051,-0.230255 -1.15127,0.01919 -1.15127,0.153504 l -0.84427,-0.230256 -0.46051,0.07675 h -0.0768 q -0.23025,0 -0.307,-0.997772 h -0.0768 q 0.0768,-1.30478 0.84426,-1.30478 l 0.69077,-0.153503 q 0,0.153503 0.23026,0.153503 l 0.61401,-0.07675 v 0.07675 q 0.70995,-0.09594 0.99777,-0.307006 0.74833,0.153503 1.07453,0.46051 l 0.307,-0.07675 0.23026,0.07675 0.61401,-0.07675 0.0767,0.07675 0.38376,-0.07675 h 0.23026 l 1.07452,0.07675 0.0768,-0.07675 h 0.0767 l 0.46051,0.153504 1.38154,-0.230256 h 0.23025 l 0.61401,0.153504 h 0.38376 q 0.55645,0 1.38153,-0.230255 l 0.23026,0.07675 1.07452,-0.07675 h 0.30701 l 1.22803,0.307007 q 1.36234,-0.383759 1.84204,-0.383759 0,0.230255 0.30701,0.230255 l 0.46051,-0.07675 0.61401,0.07675 0.0768,-0.07675 0.0768,0.07675 h 0.0768 q 1.40071,0 2.99331,-0.307007 l 0.84427,0.307007 0.99777,-0.153503 0.61402,0.07675 0.38376,-0.134315 z m -0.0576,35.229042 -0.53726,0.153503 -0.23025,-0.07675 -0.53727,0.153504 -0.69076,-0.230255 h -1.22803 l -0.46051,-0.07675 -1.07452,0.153503 -1.30478,-0.307006 -1.22803,0.153503 -0.53726,-0.07675 -0.30701,0.07675 -0.38376,-0.07675 -0.38376,0.230255 -0.38376,-0.230255 q -0.88264,0.07675 -1.15127,0.307007 l -1.15128,-0.153503 -0.69076,0.153503 -0.23026,-0.230255 h -0.23025 l -0.23026,0.230255 -0.30701,-0.07675 -0.46051,0.07675 -0.99777,-0.230255 v 0.07675 l -1.22803,-0.383759 -1.61178,0.46051 -2.14905,-0.230255 q -0.0768,0.230255 -0.46051,0.230255 h -0.30701 q -0.40294,0 -0.69076,-0.230255 l -1.61179,0.230255 q -1.07452,0 -1.07452,-0.537262 l 0.0768,-0.307007 q 0,-0.652389 -0.38376,-1.228027 0.23026,-0.614014 1.07452,-0.614014 l 1.15128,0.307007 h 0.30701 l 1.38153,0.153503 0.84427,-0.153503 0.46051,0.07675 2.30255,-0.383759 h 0.38376 q 0.21106,0.307007 2.2258,0.307007 h 0.92102 l 0.69076,-0.07675 q 1.07453,0.115128 1.07453,0.230255 l 1.53503,-0.153503 0.53726,0.153503 q 0.36458,-0.230255 1.38154,-0.230255 h 0.0768 l 0.76751,0.230255 h 0.61402 l 0.99777,-0.307006 h 0.92102 l 0.30701,0.07675 0.0768,-0.07675 1.15128,0.07675 1.91879,-0.230255 1.07452,0.211067 z"
         style="font-style:normal;font-variant:normal;font-weight:normal;font-stretch:normal;font-size:39.29688263px;font-family:'Top Secret';-inkscape-font-specification:'Top Secret';fill:#ffffff"
         id="path695" />
      <path
         d="m 226.03569,35.603796 q 2.30256,0 2.30256,2.129861 0.51807,0 1.4199,3.204384 0.70996,0.364571 0.70996,0.882645 h 0.17269 l -0.34539,2.12986 q 0,1.726914 1.5926,4.432412 l -0.17269,0.537262 0.51808,1.074524 -0.1727,0.882645 0.53727,2.475243 h -0.1727 l 0.1727,0.19188 v 0.172691 l -0.1727,1.957169 0.34539,1.592598 q 0,3.146821 -2.47525,4.969674 0,0.460511 -0.90183,0.882645 -3.0125,-0.92102 -3.0125,-1.247215 -0.17269,-1.323968 -1.41991,-4.259721 l 0.17269,-0.709953 -0.34538,-1.055337 v -0.36457 l 0.34538,-0.518074 q -0.51807,0 -0.70995,-1.611787 -0.65239,0 -1.93798,-3.89515 l 0.34538,-1.074524 -0.34538,-0.518074 -0.19188,-3.204384 0.19188,-1.247216 -0.19188,-0.709953 q 0.53726,0 0.53726,-2.475243 0.36457,0 0.36457,-1.074525 0.51807,0 0.51807,-1.765289 l 0.19188,-0.537262 q 0.70996,0 0.88265,-1.055336 z m -11.24412,-2.513619 q -0.26863,0.153504 -0.86346,0.153504 l -1.61179,-0.230255 q -0.28782,0.230255 -0.69076,0.230255 h -0.30701 q -0.38376,0 -0.46051,-0.230255 l -2.14905,0.230255 -1.28559,-0.364571 v -2.32174 h 0.36457 l 2.30255,0.383759 0.46051,-0.07675 0.84427,0.153504 1.38153,-0.153504 h 0.30701 l 1.15128,-0.307007 q 0.21106,0 0.40294,0.03838 0.23026,-0.09594 0.57564,-0.09594 l 1.15128,0.307006 h 0.307 l 1.38153,0.153504 0.84427,-0.153504 0.46051,0.07675 2.30256,-0.383758 h 0.38375 q 0.21107,0.307006 2.2258,0.307006 h 0.92102 l 0.69077,-0.07675 q 1.07452,0.115127 1.07452,0.230255 l 1.53504,-0.153504 0.53726,0.153504 q 0.36457,-0.230255 1.38153,-0.230255 h 0.0768 l 0.76752,0.230255 h 0.61401 l 0.99778,-0.307007 h 0.92102 l 0.307,0.07675 0.0768,-0.07675 1.15127,0.07675 1.9188,-0.230255 2.30255,0.46051 0.84427,-0.07675 0.46051,0.153504 h 0.0768 l 0.0768,-0.07675 0.61401,0.153503 q 0,-0.134315 0.86346,-0.36457 v 2.283363 h -0.0192 l -0.0767,-0.07675 -0.61401,0.153503 h -0.23026 l -0.92102,-0.230255 -0.76752,0.153503 -0.307,-0.07675 -1.07453,0.230255 -0.0768,-0.07675 h -0.0768 l -0.53726,0.153504 -0.23026,-0.07675 -0.53726,0.153503 -0.69077,-0.230255 h -1.22802 l -0.46051,-0.07675 -1.07453,0.153504 -1.30478,-0.307007 -1.22802,0.153503 -0.53727,-0.07675 -0.307,0.07675 -0.38376,-0.07675 -0.38376,0.230255 -0.38376,-0.230255 q -0.88264,0.07675 -1.15127,0.307007 l -1.15128,-0.153504 -0.69077,0.153504 -0.23025,-0.230256 h -0.23026 l -0.23025,0.230256 -0.30701,-0.07675 -0.46051,0.07675 -0.99777,-0.230256 v 0.07675 l -1.22803,-0.383758 -1.61179,0.46051 -2.14904,-0.230255 q -0.0768,0.230255 -0.46051,0.230255 h -0.30701 q -0.40295,0 -0.69077,-0.230255 l -1.61178,0.230255 q -0.4797,0 -0.72914,-0.09594 z m 0.36457,35.113914 v 0.05756 l -0.53727,0.307007 q -1.36234,-0.07675 -1.84204,-0.230256 h -0.23025 l -0.0768,0.07675 -0.46051,-0.153503 -0.30701,0.230255 h -0.1535 q -0.24945,-0.307007 -1.22803,-0.307007 l -1.68854,0.153503 -0.0768,-0.07675 h -0.0768 q -0.19188,0.134315 -1.05534,0.287819 v -2.2258 q 0.3262,-0.19188 1.89961,-0.441323 l 0.84426,0.230255 h 0.23026 l 1.30478,-0.230255 h 0.38376 q 0.28782,0.307007 1.15127,0.307007 0.65239,-0.230255 1.53504,-0.230255 l 0.0576,0.09594 q 0.13432,-0.07675 0.30701,-0.07675 l 0.69076,-0.153503 q 0,0.153503 0.23026,0.153503 l 0.61401,-0.07675 v 0.07675 q 0.70996,-0.09594 0.99778,-0.307007 0.74833,0.153504 1.07452,0.46051 l 0.30701,-0.07675 0.23025,0.07675 0.61402,-0.07675 0.0768,0.07675 0.38376,-0.07675 h 0.23025 l 1.07453,0.07675 0.0767,-0.07675 h 0.0768 l 0.46051,0.153503 1.38153,-0.230255 h 0.23026 l 0.61401,0.153503 h 0.38376 q 0.55645,0 1.38153,-0.230255 l 0.23025,0.07675 1.07453,-0.07675 h 0.30701 l 1.22802,0.307007 q 1.36235,-0.383758 1.84204,-0.383758 0,0.230255 0.30701,0.230255 l 0.46051,-0.07675 0.61402,0.07675 0.0768,-0.07675 0.0768,0.07675 h 0.0767 q 1.40072,0 2.99332,-0.307007 l 0.84427,0.307007 0.99777,-0.153504 0.61401,0.07675 0.46051,-0.153503 h 0.30701 q 0.38376,0 0.76752,0.230255 l 0.69076,-0.07675 q 0,0.09594 0.76752,0.307007 0.40295,-0.09594 0.61401,-0.383759 l 0.30701,-0.07675 0.53726,0.07675 0.0192,-0.01919 v 2.379304 l -0.17269,0.09594 -0.61401,-0.153503 -1.22803,0.230255 -0.53726,-0.307007 -0.46051,0.153504 -0.0768,-0.07675 h -0.0768 l -0.76752,0.07675 -0.69076,-0.230255 q -0.46051,0.307006 -1.38153,0.307006 l -0.69077,-0.153503 q -0.53726,0 -0.84427,0.153503 l -0.84427,-0.07675 h -0.69076 l -0.0768,0.07675 -0.61402,-0.153503 -0.307,0.07675 -0.23026,-0.07675 -0.46051,0.230255 -1.22803,-0.230255 -1.53503,0.07675 q -0.99777,0 -1.61179,-0.230255 -0.7867,0.537262 -1.07452,0.537262 h -0.23026 l -1.45828,-0.307007 h -1.07452 l -0.53727,0.153503 -1.30477,-0.153503 q -0.36458,0 -1.15128,0.383758 -0.36457,0 -1.07452,-0.537262 h -0.15351 l -0.23025,0.230255 h -0.0768 v -0.153503 h -0.0768 q -0.28782,0.307007 -0.53726,0.307007 l -0.61401,-0.07675 -0.0768,0.07675 q -0.0768,-0.230255 -0.46051,-0.230255 -1.15128,0.01919 -1.15128,0.153503 l -0.84427,-0.230255 z m -2.97413,-32.235724 h 2.12986 l 3.72246,0.709953 q 0.95939,-0.709953 1.61178,-0.709953 l 0.70996,1.247215 v 0.518075 q -0.70996,0 -1.41991,2.12986 v 0.364571 l 0.70995,2.839813 q 0.51808,0 0.51808,0.537262 l -0.17269,0.172692 v 0.172691 l 0.53726,1.784478 -0.17269,0.518074 1.05533,4.796983 0.17269,0.172691 q 0,0.863457 0.70996,1.611786 v 0.172692 l -0.88265,3.549767 v 1.419907 q -1.4199,1.726914 -1.4199,4.796982 -4.60511,-0.345382 -4.60511,-1.611786 l -0.53726,-1.055336 0.34538,-1.419907 q 0,-0.940208 -1.5926,-1.957169 l -0.34538,-2.475243 0.17269,-1.419907 -0.36457,-0.537262 v -1.957169 h -0.34538 v -1.055336 q 0,-0.729141 -1.24722,-1.957169 0,-0.882645 -0.53726,-0.882645 v -0.537262 q -0.51807,-3.319512 -1.4199,-6.044198 V 38.44361 q -0.0192,-0.326195 -1.76529,-1.055336 v -0.172692 q 0.34538,-0.959396 0.88264,-1.074524 l 1.95717,0.172692 h 0.17269 z m 26.97823,-0.172691 q 0.70995,0.172691 0.70995,1.055336 v 0.172691 q -0.74833,0.863457 -2.66712,1.611786 0,1.381531 -1.76529,4.777795 v 0.901833 h -0.36457 v 1.419907 l -0.51807,1.765289 h 0.17269 q -0.46051,1.611787 -1.07453,2.129861 -0.34538,0 -0.51807,-1.76529 -0.28782,0 -0.90183,-1.247215 v -0.709954 q 1.4199,-2.475243 1.4199,-3.722458 l -0.17269,-0.709954 1.24722,-1.074524 v -0.345383 q 0,-1.707726 -2.83982,-2.494431 l -0.17269,-0.172691 v -0.537262 q 0,-0.441323 1.5926,-0.709954 l 0.88264,0.364571 0.70996,-0.364571 1.24721,0.364571 q 2.12986,-0.191879 3.01251,-0.709953 z"
         style="font-style:normal;font-variant:normal;font-weight:normal;font-stretch:normal;font-size:39.29688263px;font-family:'Top Secret';-inkscape-font-specification:'Top Secret';fill:#ffffff"
         id="path697" />
      <path
         d="m 246.75866,35.622984 q 2.05311,0.882645 4.27891,1.074524 l 1.24721,-0.36457 q 0.34539,0 1.24722,1.419907 v 1.611786 l -0.70995,1.055336 V 41.3218 l 0.17269,2.12986 -0.36457,2.494431 1.24721,2.859002 q 0,0.997772 -1.5926,5.161553 v 0.172692 l 0.34539,0.537262 -0.17269,0.709953 0.36457,1.784478 -0.19188,0.172691 v 0.172691 l 0.19188,0.172692 v 0.537262 h -0.19188 l 0.19188,1.247215 v 3.031693 l -0.19188,0.172692 v 0.172691 l -0.17269,-0.172691 h -0.1727 l -3.20438,0.537262 -2.32174,-1.247216 -2.12986,0.882645 h -0.36457 q -0.97859,0 -1.76529,-1.228027 0,-0.729142 1.5926,-1.074525 l 0.17269,-0.172691 v -0.191879 l -0.34538,-0.709954 0.70995,-1.957169 q 0,-1.57341 -0.53726,-2.302551 l 0.36457,-1.439095 v -1.76529 l -0.19188,-0.729141 0.19188,-0.709954 -0.36457,-2.494431 0.53726,-1.957169 -0.53726,-2.839813 0.53726,-2.859002 q -0.97858,-1.880417 -2.49443,-2.667122 0,-1.957169 4.62429,-1.957169 z m 9.26777,0 0.70995,0.364571 0.1727,-0.191879 h 0.17269 l 1.95717,0.36457 1.95717,-0.172691 1.43909,0.345383 v 0.882644 l 0.17269,5.698816 q -0.76752,0.959396 -1.78448,1.074524 l -1.4199,-1.784478 v -0.537262 l 0.17269,-0.172691 q -1.13209,-2.12986 -2.30255,-2.12986 l -0.19188,-0.709954 -1.5926,0.172692 q -0.90183,-0.115128 -0.90183,-1.074524 v -1.419907 q 0,-0.345383 1.43909,-0.709954 z m 2.12986,7.828676 v 1.074524 q 0.4797,0 0.88265,5.871507 l -0.1727,0.537262 0.53727,1.419907 -0.17269,0.172691 0.17269,0.901833 q -0.23026,1.419907 -1.07453,1.419907 -0.67157,-0.03838 -2.12986,-2.32174 -0.36457,0 -0.36457,-1.055336 L 254.58734,50.225 q 0,-2.494431 1.24721,-2.494431 0,-0.364571 0.53726,-0.364571 l 0.90184,-3.741647 0.17269,-0.172691 z m 3.74165,11.03306 q 0.82508,0 1.05533,2.859002 h 0.19188 l -0.53726,1.419907 0.17269,0.172691 -0.17269,0.901833 v 2.839814 l -0.70995,0.172691 -3.37708,-0.518074 -3.74164,0.518074 0.17269,-0.518074 -0.17269,-1.074524 v -0.172691 q 0,-0.364571 1.59259,-0.364571 0.23026,-0.537262 2.49443,-1.784478 1.36235,-3.357888 2.66713,-4.4516 z m 3.79921,-21.432919 -0.53726,-0.172691 q -0.46051,0.307007 -1.38153,0.307007 l -0.69077,-0.153504 q -0.53726,0 -0.84427,0.153504 l -0.84427,-0.07675 h -0.69076 l -0.0768,0.07675 -0.61401,-0.153504 -0.30701,0.07675 -0.23025,-0.07675 -0.46051,0.230256 -1.22803,-0.230256 -1.53503,0.07675 q -0.99778,0 -1.61179,-0.230255 -0.78671,0.537262 -1.07452,0.537262 h -0.23026 l -1.45828,-0.307007 h -1.07453 l -0.53726,0.153504 -1.30478,-0.153504 q -0.36457,0 -1.15127,0.383759 -0.36457,0 -1.07453,-0.537262 h -0.1535 l -0.23026,0.230255 h -0.0767 v -0.153504 h -0.0768 q -0.28782,0.307007 -0.53726,0.307007 l -0.61402,-0.07675 -0.0768,0.07675 q -0.0767,-0.230255 -0.46051,-0.230255 -1.15127,0.01919 -1.15127,0.153504 l -0.84427,-0.230256 -0.46051,0.07675 h -0.0767 q -0.23026,0 -0.30701,-0.997772 h -0.0768 q 0.0768,-1.30478 0.84427,-1.30478 l 0.69076,-0.153503 q 0,0.153503 0.23026,0.153503 l 0.61401,-0.07675 v 0.07675 q 0.70995,-0.09594 0.99777,-0.307006 0.74833,0.153503 1.07453,0.46051 l 0.307,-0.07675 0.23026,0.07675 0.61401,-0.07675 0.0767,0.07675 0.38376,-0.07675 h 0.23026 l 1.07452,0.07675 0.0768,-0.07675 h 0.0768 l 0.46051,0.153504 1.38153,-0.230256 h 0.23025 l 0.61402,0.153504 h 0.38375 q 0.55645,0 1.38154,-0.230255 l 0.23025,0.07675 1.07453,-0.07675 h 0.307 l 1.22803,0.307007 q 1.36234,-0.383759 1.84204,-0.383759 0,0.230255 0.30701,0.230255 l 0.46051,-0.07675 0.61401,0.07675 0.0768,-0.07675 0.0768,0.07675 h 0.0768 q 1.40072,0 2.99331,-0.307007 l 0.84427,0.307007 0.99778,-0.153503 0.61401,0.07675 0.38376,-0.134315 z m -0.0576,35.229042 -0.53726,0.153503 -0.23025,-0.07675 -0.53726,0.153504 -0.69077,-0.230255 h -1.22803 l -0.46051,-0.07675 -1.07452,0.153503 -1.30478,-0.307006 -1.22803,0.153503 -0.53726,-0.07675 -0.30701,0.07675 -0.38376,-0.07675 -0.38376,0.230255 -0.38375,-0.230255 q -0.88265,0.07675 -1.15128,0.307007 l -1.15128,-0.153503 -0.69076,0.153503 -0.23026,-0.230255 h -0.23025 l -0.23026,0.230255 -0.307,-0.07675 -0.46051,0.07675 -0.99778,-0.230255 v 0.07675 l -1.22802,-0.383759 -1.61179,0.46051 -2.14905,-0.230255 q -0.0768,0.230255 -0.46051,0.230255 h -0.30701 q -0.40294,0 -0.69076,-0.230255 l -1.61179,0.230255 q -1.07452,0 -1.07452,-0.537262 l 0.0768,-0.307007 q 0,-0.652389 -0.38376,-1.228027 0.23026,-0.614014 1.07453,-0.614014 l 1.15127,0.307007 h 0.30701 l 1.38153,0.153503 0.84427,-0.153503 0.46051,0.07675 2.30255,-0.383759 h 0.38376 q 0.21107,0.307007 2.2258,0.307007 h 0.92102 l 0.69077,-0.07675 q 1.07452,0.115128 1.07452,0.230255 l 1.53503,-0.153503 0.53727,0.153503 q 0.36457,-0.230255 1.38153,-0.230255 h 0.0768 l 0.76752,0.230255 h 0.61401 l 0.99777,-0.307006 h 0.92102 l 0.30701,0.07675 0.0767,-0.07675 1.15128,0.07675 1.91879,-0.230255 1.07452,0.211067 z"
         style="font-style:normal;font-variant:normal;font-weight:normal;font-stretch:normal;font-size:39.29688263px;font-family:'Top Secret';-inkscape-font-specification:'Top Secret';fill:#ffffff"
         id="path699" />
      <path
         d="m 273.96713,35.622984 h 1.05534 q 0.88265,0 1.05534,0.709954 l -0.17269,0.518074 0.34538,1.957169 -0.17269,1.055336 0.36457,0.518074 -0.19188,0.191879 v 0.882645 q 0,1.66935 -0.69077,3.166009 v 0.172691 q 0.88265,2.168236 0.88265,3.530579 l -0.36457,1.419907 v 1.937981 l -0.70996,2.110673 0.19188,1.247215 -0.19188,0.709954 q 0.49889,0 0.88265,3.70327 l 0.19188,0.882645 1.22802,0.882645 v 0.882645 l -0.34538,0.345383 h -2.30255 l -1.22803,0.36457 -1.07452,-0.36457 v 0.172691 l -1.05534,-0.345383 h -0.17269 l -2.64793,0.537262 -0.88265,-0.191879 -0.53726,0.364571 q -2.11067,-0.134316 -2.11067,-0.537262 0,-2.475243 1.4199,-2.475243 l 1.40072,-2.456056 q 0,-1.247215 -1.05533,-3.012505 v -0.172691 l 0.34538,-1.592598 -0.17269,-3.166009 0.17269,-1.419907 -0.17269,-0.518074 0.53726,-2.647935 -0.17269,-1.074524 0.17269,-1.055336 -0.17269,-0.172691 v -0.172692 l 0.17269,-0.882644 -0.17269,-0.709954 0.17269,-0.172691 -0.53726,-0.537262 0.36457,-0.518074 v -0.19188 q 0,-0.307007 -1.76529,-1.228027 l -0.36457,-1.937981 1.05533,-0.364571 h 0.70996 l 0.70995,0.537262 h 0.17269 l 0.17269,-0.172691 1.41991,0.345382 2.99332,-0.345382 v 0.172691 z m 4.24054,0.345383 1.57341,0.364571 h 2.12986 q 2.26417,0 3.16601,1.228027 0.97858,0 1.4199,1.247216 0.6332,0 1.40072,2.110672 h 0.19188 l -0.36457,4.585916 0.17269,0.172691 q -0.38376,0.03838 -2.45605,2.647934 -0.82508,0 -2.47525,1.76529 v 0.364571 h 1.05534 q 3.54977,0 4.24053,3.3387 l 0.17269,0.191879 -0.17269,0.882645 0.17269,0.882645 q -0.307,0.36457 -0.53726,2.456055 0.26863,0.709953 0.53726,0.709953 h 0.1727 l 2.30255,-0.709953 0.51807,1.074524 q -2.28336,3.3387 -4.04865,3.3387 0,0.537262 -0.36457,0.537262 l -0.88265,-0.172691 -0.88264,0.172691 q -2.34093,-0.05756 -4.9313,-2.820626 l -0.17269,-1.419907 0.17269,-1.228027 -0.70995,-1.76529 0.34538,-1.055336 q 0,-3.530579 -1.40072,-3.530579 -0.70995,0 -0.70995,-2.475243 1.59259,-0.441323 1.59259,-1.76529 l 0.51808,-2.820626 -0.51808,-2.475243 0.1727,-0.882645 q 0,-1.688538 -1.76529,-2.993317 l -0.1727,-1.76529 z m 15.29278,-2.839814 -0.30701,0.01919 -0.0768,-0.07675 -0.53726,0.07675 -0.30701,-0.07675 q -0.21107,-0.287819 -0.61401,-0.383758 -0.76752,0.211067 -0.76752,0.307007 l -0.69077,-0.07675 q -0.38375,0.230255 -0.76751,0.230255 h -0.30701 l -0.46051,-0.153503 -0.61401,0.07675 -0.99778,-0.153503 -0.84427,0.307007 q -1.59259,-0.307007 -2.99331,-0.307007 h -0.0768 l -0.0768,0.07675 -0.0768,-0.07675 -0.61401,0.07675 -0.46051,-0.07675 q -0.30701,0 -0.30701,0.230255 -0.4797,0 -1.84204,-0.383759 l -1.22803,0.307007 h -0.30701 l -1.07452,-0.07675 -0.23025,0.07675 q -0.82509,-0.230255 -1.38154,-0.230255 h -0.38375 l -0.61402,0.153504 h -0.23025 l -1.38153,-0.230256 -0.46051,0.153504 h -0.0768 l -0.0767,-0.07675 -1.07452,0.07675 h -0.23026 l -0.38376,-0.07675 -0.0768,0.07675 -0.61401,-0.07675 -0.23026,0.07675 -0.307,-0.07675 q -0.3262,0.307007 -1.07453,0.460511 -0.28782,-0.211068 -0.99777,-0.307007 v 0.07675 l -0.61401,-0.07675 q -0.23026,0 -0.23026,0.153503 l -0.69076,-0.153503 q -0.76752,0 -0.84427,-1.30478 h 0.0768 q 0.0768,-0.997772 0.30701,-0.997772 h 0.0768 l 0.46051,0.07675 0.84427,-0.230256 q 0,0.134316 1.15127,0.153504 0.38376,0 0.46051,-0.230255 l 0.0768,0.07675 0.61402,-0.07675 q 0.24944,0 0.53726,0.307007 h 0.0768 v -0.153504 h 0.0768 l 0.23026,0.230255 h 0.1535 q 0.70996,-0.537262 1.07453,-0.537262 0.7867,0.383759 1.15127,0.383759 l 1.30478,-0.153504 0.53726,0.153504 h 1.07453 l 1.45828,-0.307007 h 0.23026 q 0.28781,0 1.07452,0.537262 0.61401,-0.230255 1.61179,-0.230255 l 1.53503,0.07675 1.22803,-0.230256 0.46051,0.230256 0.23025,-0.07675 0.30701,0.07675 0.61401,-0.153504 0.0768,0.07675 h 0.69076 l 0.84427,-0.07675 q 0.30701,0.153504 0.84427,0.153504 l 0.69076,-0.153504 q 0.92103,0 1.38154,0.307007 l 0.69076,-0.230255 0.76752,0.07675 h 0.0768 l 0.0768,-0.07675 0.46051,0.153503 0.53726,-0.307007 1.22803,0.230256 0.61402,-0.153504 0.307,0.153504 0.23026,-0.05756 z m 0,34.710967 -0.17269,-0.03838 q -0.44133,0.230256 -0.92102,0.230256 -0.42214,-0.230256 -0.84427,-0.230256 l -2.37931,0.383759 -1.15127,-0.307007 -1.22803,0.153504 -0.92102,-0.153504 -0.53726,0.07675 -0.0768,-0.07675 h -0.0768 l -0.307,0.07675 -0.23026,-0.07675 -0.23025,0.07675 -2.30256,-0.230255 -0.69076,0.07675 h -0.30701 l -0.0768,0.07675 -0.0768,-0.07675 h -0.76752 l -0.92102,0.230256 -1.07452,-0.307007 -0.69077,0.07675 h -0.0768 l -1.07452,-0.230255 -0.69077,0.230255 h -0.76752 l -0.84427,0.153504 -0.99777,-0.153504 h -0.30701 l -0.46051,0.07675 -0.38375,-0.07675 h -0.15351 l -0.0768,0.07675 -0.0768,-0.07675 h -0.30701 l -1.30478,0.307007 q -2.30255,-0.09594 -2.30255,-0.383758 l -0.30701,0.153503 -0.0768,-0.07675 h -0.0768 q -0.13432,0.153504 -1.61179,0.230256 -0.61401,-0.07675 -0.61401,-0.614014 v -0.307007 l 0.1535,-0.230255 v -0.230255 l -0.1535,-0.614014 v -0.153504 l 0.1535,-0.153503 h 0.53727 q 0.76751,-0.01919 0.76751,-0.153504 l 0.61402,0.07675 1.45828,-0.07675 1.53503,0.307007 1.07453,-0.307007 1.15127,0.153504 0.0768,-0.07675 h 0.0767 l 0.61401,0.230255 1.30478,-0.230255 0.53726,0.153504 0.0768,-0.07675 h 0.0768 l 0.53726,0.153503 1.61178,-0.307007 0.53727,0.230256 h 0.84427 q 0.84426,-0.115128 0.84426,-0.307007 0.69077,0.07675 0.69077,0.230255 0.76752,-0.07675 0.92102,-0.230255 1.61179,0.07675 1.61179,0.230255 l 0.23025,-0.153504 0.46051,0.153504 h 0.23026 l 0.23025,-0.153504 h 0.38376 l 0.84427,-0.07675 0.0768,0.07675 h 0.0768 l 0.69077,-0.07675 h 0.61401 l 1.30478,0.307007 q 1.07453,-0.07675 1.07453,-0.460511 l 0.46051,0.153504 0.23025,-0.07675 0.46051,0.153503 0.46051,-0.07675 q 0.78671,0.09594 0.92102,0.230255 h 1.61179 l 0.4797,-0.09594 z"
         style="font-style:normal;font-variant:normal;font-weight:normal;font-stretch:normal;font-size:39.29688263px;font-family:'Top Secret';-inkscape-font-specification:'Top Secret';fill:#ffffff"
         id="path701" />
      <path
         d="m 294.11448,30.74925 q 0.32619,-0.249443 1.03615,-0.287819 v 0.07675 q 0.99777,0.07675 0.99777,0.307007 v 0.07675 l -0.0768,0.46051 0.23025,0.844269 q -0.13431,0 -0.1535,1.151276 0,0.383759 0.23026,0.460511 l -0.0768,0.07675 0.0768,0.614014 q 0,0.230255 -0.30701,0.537262 v 0.07675 h 0.1535 v 0.07675 l -0.23025,0.230255 v 0.153503 q 0.53726,0.690766 0.53726,1.074524 -0.38376,0.786706 -0.38376,1.151276 l 0.1535,1.30478 -0.1535,0.537262 v 1.074524 l 0.30701,1.458282 V 42.4347 q 0,0.287819 -0.53727,1.074524 0.23026,0.614014 0.23026,1.611786 l -0.0768,1.535034 0.23025,1.228028 -0.23025,0.46051 0.0768,0.230256 -0.0768,0.307006 0.1535,0.614014 -0.0768,0.07675 v 0.690765 l 0.0768,0.844269 q -0.1535,0.307007 -0.1535,0.844269 l 0.1535,0.690766 q 0,0.921021 -0.30701,1.381531 l 0.23026,0.690765 -0.0768,0.767518 v 0.07675 l 0.0768,0.07675 -0.1535,0.460511 0.307,0.537262 -0.23025,1.228027 0.1535,0.614014 -0.1535,0.307007 0.0768,0.307007 v 0.07675 l -0.1535,0.153504 q 0,1.036148 0.38376,1.458283 l -0.0768,0.307007 0.0768,0.383758 q -0.15351,0 -0.23026,0.997773 l 0.0768,0.230255 -0.23025,0.997772 0.23025,0.614014 v 0.614014 l 0.0768,0.307007 q -0.0959,1.151276 -0.307,1.151276 l 0.21106,1.47747 -1.34315,0.07675 v 0.191879 q -0.53726,0.05756 -1.4391,0.09594 l -1.30478,-0.307007 h -0.307 l -0.0768,0.07675 -0.0768,-0.07675 -0.0384,-2.12986 0.65239,-0.09594 1.07452,0.307007 0.57564,-0.115128 -0.0768,-0.652389 0.23025,-1.074524 -0.0768,-0.614014 0.0768,-0.844269 -0.23025,-0.921021 0.0768,-0.307007 -0.23026,-2.763062 0.0768,-0.07675 -0.0768,-0.537262 0.0768,-0.307007 q 0.28782,-0.211067 0.38376,-0.614013 -0.21107,-0.767518 -0.30701,-0.767518 l 0.0768,-0.690765 q -0.23026,-0.402947 -0.23026,-0.767517 v -0.307007 l 0.15351,-0.460511 -0.0768,-0.614013 0.1535,-0.997773 -0.30701,-0.844269 q 0.30701,-1.611786 0.30701,-2.993317 v -0.07675 l -0.0768,-0.07675 0.0768,-0.07675 -0.0768,-0.614014 0.0768,-0.46051 q 0,-0.307007 -0.23026,-0.307007 0,-0.479698 0.38376,-1.842042 l -0.307,-1.228027 v -0.307007 l 0.0768,-1.074524 -0.0768,-0.230255 q 0.23025,-0.825081 0.23025,-1.381531 V 40.66941 l -0.1535,-0.614014 v -0.230255 l 0.23025,-1.381531 -0.1535,-0.46051 v -0.07675 l 0.0768,-0.07675 -0.0768,-1.074524 v -0.230255 l 0.0768,-0.383759 -0.0768,-0.07675 0.0768,-0.614014 -0.0768,-0.230255 0.0768,-0.307007 q -0.30701,-0.326195 -0.46051,-1.074524 0.19188,-0.249444 0.28782,-0.825081 -0.7867,-0.05756 -0.88264,-0.172692 h -0.0768 l -0.0768,0.07675 -0.307,-0.153504 q 0,0.172692 -0.86346,0.287819 v -2.436867 h 0.0192 l 1.45828,0.07675 0.61401,-0.07675 q 0,0.09594 0.40295,0.134316 z"
         style="font-style:normal;font-variant:normal;font-weight:normal;font-stretch:normal;font-size:39.29688263px;font-family:'Top Secret';-inkscape-font-specification:'Top Secret';fill:#ffffff"
         id="path703" />
    </g>
  </g>
</svg>
