<?xml version="1.0" encoding="UTF-8" standalone="no"?>
<!-- Created with Inkscape (http://www.inkscape.org/) -->

<svg
   xmlns:dc="http://purl.org/dc/elements/1.1/"
   xmlns:cc="http://creativecommons.org/ns#"
   xmlns:rdf="http://www.w3.org/1999/02/22-rdf-syntax-ns#"
   xmlns:svg="http://www.w3.org/2000/svg"
   xmlns="http://www.w3.org/2000/svg"
   xmlns:sodipodi="http://sodipodi.sourceforge.net/DTD/sodipodi-0.dtd"
   xmlns:inkscape="http://www.inkscape.org/namespaces/inkscape"
   width="500"
   height="200"
   viewBox="0 0 132.29166 52.916668"
   version="1.1"
   id="svg8"
   sodipodi:docname="imageviewer.svg"
   inkscape:version="0.92.5 (2060ec1f9f, 2020-04-08)">
  <defs
     id="defs2" />
  <sodipodi:namedview
     id="base"
     pagecolor="#ffffff"
     bordercolor="#666666"
     borderopacity="1.0"
     inkscape:pageopacity="0.0"
     inkscape:pageshadow="2"
     inkscape:zoom="1.1842658"
     inkscape:cx="376.76518"
     inkscape:cy="127.84424"
     inkscape:document-units="mm"
     inkscape:current-layer="layer1"
     showgrid="false"
     units="px"
     inkscape:pagecheckerboard="true"
     inkscape:window-width="1366"
     inkscape:window-height="740"
     inkscape:window-x="0"
     inkscape:window-y="0"
     inkscape:window-maximized="1" />
  <metadata
     id="metadata5">
    <rdf:RDF>
      <cc:Work
         rdf:about="">
        <dc:format>image/svg+xml</dc:format>
        <dc:type
           rdf:resource="http://purl.org/dc/dcmitype/StillImage" />
        <dc:title />
      </cc:Work>
    </rdf:RDF>
  </metadata>
  <g
     inkscape:label="Layer 1"
     inkscape:groupmode="layer"
     id="layer1"
     transform="translate(0,-244.08332)">
    <flowRoot
       xml:space="preserve"
       id="flowRoot10"
       style="fill:black;stroke:none;stroke-opacity:1;stroke-width:1px;stroke-linejoin:miter;stroke-linecap:butt;fill-opacity:1;font-family:Dymo;font-style:normal;font-weight:normal;font-size:40px;line-height:125%;letter-spacing:0px;word-spacing:0px;-inkscape-font-specification:Dymo;font-stretch:normal;font-variant:normal;"><flowRegion
         id="flowRegion12"
         style="-inkscape-font-specification:Dymo;font-family:Dymo;font-weight:normal;font-style:normal;font-stretch:normal;font-variant:normal;"><rect
           id="rect14"
           width="69.224487"
           height="121.46939"
           x="12.408163"
           y="37.387756"
           style="-inkscape-font-specification:Dymo;font-family:Dymo;font-weight:normal;font-style:normal;font-stretch:normal;font-variant:normal;" /></flowRegion><flowPara
         id="flowPara16" /></flowRoot>    <path
       inkscape:connector-curvature="0"
       id="path542"
       style="font-style:normal;font-variant:normal;font-weight:normal;font-stretch:normal;font-size:47.79577255px;line-height:125%;font-family:Dymo;-inkscape-font-specification:Dymo;letter-spacing:0px;word-spacing:0px;fill:#00ffff;fill-opacity:1;stroke:none;stroke-width:0.49787274px;stroke-linecap:butt;stroke-linejoin:miter;stroke-opacity:1;image-rendering:auto"
       d="m 3.1780446,259.83487 12.2181204,-0.62008 3.094416,27.77794 -12.2181205,0.62008 z m 7.2366784,5.87308 q -0.5001862,-0.0584 -0.5999976,0.0305 l -0.5988702,0.53297 q -0.2994351,0.2665 0.2204321,0.99398 0,0 0.2134084,1.91572 0.046392,0.41645 0.4581693,3.62044 0.461676,3.15957 0.415283,2.7431 0.371144,3.33169 0.258679,1.82966 0.07535,1.16886 -0.323891,1.52417 -0.04991,0.0444 -0.03599,0.16935 0.03712,0.33318 0.51523,0.68584 0.478115,0.35267 1.078112,0.32222 0.763632,-0.0388 0.607023,-0.9522 -0.987179,-6.39965 -0.779403,-6.99654 -0.190212,-1.70749 -0.626306,-5.62222 -0.03712,-0.33317 -0.392222,-0.56643 -0.359746,-0.27492 -0.409652,-0.23051 z m -1.8455245,4.1143 q 0.037114,0.33316 0.3643853,0.31655 0.3818158,-0.0194 0.194984,-0.2193 -0.1462024,-0.32763 -0.083507,-0.74963 0.076613,-0.29706 -0.1415637,-0.28599 -0.4363612,0.0222 -0.3342962,0.93837 z m 1.2353153,9.61193 q 0.018557,0.16659 0.2866432,0.1111 0.268086,-0.0555 0.145078,-0.17489 -0.132285,-0.2027 -0.169399,-0.53586 -0.03712,-0.33317 -0.02081,-1.17162 0.06621,-0.88288 0.01518,-1.34099 -0.05567,-0.49975 -0.2018737,-0.82738 -0.4036203,-3.62322 -0.5370377,-4.32842 -0.096304,-0.37206 -0.3144805,-0.36098 -0.095171,0.13047 -0.1903443,0.26095 z" />
    <path
       inkscape:connector-curvature="0"
       id="path544"
       style="font-style:normal;font-variant:normal;font-weight:normal;font-stretch:normal;font-size:47.79577255px;line-height:125%;font-family:Dymo;-inkscape-font-specification:Dymo;letter-spacing:0px;word-spacing:0px;fill:#ffffff;fill-opacity:1;stroke:none;stroke-width:0.49787274px;stroke-linecap:butt;stroke-linejoin:miter;stroke-opacity:1;image-rendering:auto"
       d="m 14.632482,259.25355 23.672609,-1.20141 3.094416,27.77793 -23.672609,1.20142 z m 19.253649,10.83345 0.839714,7.53793 q 0.01392,0.12494 -0.181066,0.34425 -0.194984,0.2193 -0.171788,0.42753 0.08815,0.79128 1.233596,0.73315 0.545452,-0.0277 0.648776,-0.57739 0.103325,-0.5497 -0.261061,-0.86626 l -1.263017,-11.83026 q -0.129901,-1.16609 -1.438985,-1.09965 -1.036358,0.0526 -1.153601,0.47736 -0.121882,0.38312 -0.143952,0.67741 l -2.935434,6.64062 q 0.09391,1.33544 -0.778811,1.37973 -0.381816,0.0194 -0.969022,-0.32775 -0.591845,-0.38878 -0.373664,-0.39986 0.436362,-0.0221 0.176427,-0.38588 l -5.270665,-6.93613 q -0.446767,-0.56368 -1.264945,-0.52215 -1.6909,0.0858 -1.616671,0.75215 0.01392,0.12494 0.236738,0.15551 0.22282,0.0306 0.246016,0.2388 l 0.912817,7.70176 -0.221693,0.47196 0.389701,3.49826 q 0.05103,0.45811 -0.60351,0.49133 -0.218181,0.0111 -0.30984,-0.31933 -0.0963,-0.37204 -0.259935,-0.36374 -0.218181,0.0111 0.0058,0.54417 0.310968,0.82185 1.892778,0.74157 0.818178,-0.0415 0.743948,-0.70787 l -1.169104,-10.49481 q -0.0232,-0.20823 0.08125,-0.25541 0.09981,-0.0888 0.13116,-0.29983 -0.01856,-0.16658 -0.20075,-0.32486 -0.182192,-0.15828 -0.264574,-0.40539 -0.08238,-0.2471 0.135801,-0.25818 0.381816,-0.0194 0.760119,0.42212 1.595595,2.0131 1.600233,2.05474 -0.559368,-0.0972 -1.145448,0.0581 0.04639,0.41647 0.596484,0.43043 0.599997,-0.0304 0.859932,0.33329 l 4.01162,4.98972 -0.235612,0.34701 q 0.909838,0.28888 1.237109,0.27227 1.090904,-0.0554 1.215171,-1.40189 l 3.265099,-7.62061 q 0.171788,-0.42754 0.553604,-0.44691 0.327271,-0.0166 0.328398,0.48591 z m 2.753435,7.4827 q 0.02783,0.24987 0.19147,0.24156 0.327272,-0.0166 0.266961,-0.558 -0.347947,-3.12345 -0.455778,-4.58384 -0.06959,-0.62469 -0.07999,-1.2105 -0.478975,-4.79207 -0.432582,-4.37561 -0.07423,-0.66634 -0.416544,-1.27719 -0.0731,-0.16381 -0.222821,-0.0306 -0.145078,0.17489 -0.117243,0.42476 z m -17.013324,-1.06311 -0.970741,-9.20655 q -0.03712,-0.33317 -0.30984,-0.31933 -0.10445,0.0472 -0.08125,0.25542 l 0.920837,9.25096 q 0.02783,0.24987 0.255295,0.32209 0.22282,0.0306 0.185705,-0.30259 z m 13.347666,-5.74507 0.008,1.54921 q 0.01856,0.16658 -0.1358,0.25817 -0.154356,0.0916 -0.135799,0.25819 0.501044,4.49777 0.766745,5.40569 0.01856,0.16658 0.127647,0.16104 0.327271,-0.0166 0.276239,-0.47471 l -0.540413,-5.83599 q 0.45154,-1.36312 -0.366637,-1.3216 z m -1.14081,0.0998 -0.877495,1.97109 -0.102198,1.05222 q -0.456179,1.32148 -1.85003,2.10421 0.232099,0.11387 0.450279,0.10279 0.709088,-0.036 1.325389,-0.9049 0.616301,-0.8689 0.718499,-1.92113 -0.03247,-0.29152 0.654676,-2.00166 0.09517,-0.13047 -0.03712,-0.33317 -0.0731,-0.16381 -0.182193,-0.15828 -0.05455,0.003 -0.09981,0.0888 z m -4.629714,5.21887 q -0.764759,-0.46377 -2.766494,-3.16824 -1.928631,-2.54065 -2.092266,-2.53235 -0.109091,0.006 -0.09517,0.13048 0.04175,0.37481 3.206234,4.65365 0.907451,1.25227 1.747699,0.91646 z m -0.02054,-5.10851 -3.337394,-4.35383 q -0.06846,-0.12217 -0.341189,-0.10833 -0.04527,0.0861 -0.145078,0.1749 l 3.337394,4.35382 q 0.255296,0.3221 0.468837,0.26938 0.213541,-0.0527 0.01743,-0.33594 z m 3.806898,-5.21899 -1.732921,3.64788 q -1.380067,2.87611 -1.375428,2.91775 0.0093,0.0833 0.123009,0.1194 0.282005,0.0695 0.680125,-0.78838 0.488654,-1.02996 0.977307,-2.05991 0.855426,-1.67679 1.619192,-3.68399 0.09053,-0.17212 -0.08238,-0.24711 -0.168276,-0.0333 -0.208902,0.0944 z m -9.038003,13.90266 q -0.01856,-0.16658 -0.286643,-0.11109 -0.431722,0.0638 -0.540813,0.0693 -0.05455,0.003 -0.500186,-0.0584 -0.282005,-0.0695 -0.263446,0.0971 0.03712,0.33317 0.800747,0.29442 0.768273,0.003 0.790342,-0.29141 z m -3.776601,-13.71299 q -0.163636,0.008 -0.126522,0.34146 0.03712,0.33318 0.20075,0.32487 0.272726,-0.0138 0.235612,-0.34701 -0.03711,-0.33316 -0.30984,-0.31932 z" />
    <path
       inkscape:connector-curvature="0"
       id="path546"
       style="font-style:normal;font-variant:normal;font-weight:normal;font-stretch:normal;font-size:47.79577255px;line-height:125%;font-family:Dymo;-inkscape-font-specification:Dymo;letter-spacing:0px;word-spacing:0px;fill:#ffffff;fill-opacity:1;stroke:none;stroke-width:0.49787274px;stroke-linecap:butt;stroke-linejoin:miter;stroke-opacity:1;image-rendering:auto"
       d="m 37.541359,258.0909 22.581705,-1.14605 3.094416,27.77794 -22.581705,1.14604 z m 14.630366,6.75428 q -0.479241,-0.85519 -2.224687,-0.76661 -1.690901,0.0858 -2.029837,0.98253 -1.323269,3.87838 -4.591874,11.95988 -0.08125,0.25541 -0.05806,0.46364 0.08815,0.79127 0.906325,0.74975 0.709087,-0.036 0.862318,-0.6301 l 0.576934,-2.20712 q 0.107963,-0.50806 1.635228,-0.58557 l 7.254509,-0.36818 q 1.199994,-0.0609 1.478486,0.46943 l 0.97704,1.87696 q 0.415419,0.77467 1.069961,0.74145 1.199994,-0.0609 0.515363,-1.2826 z m -2.127262,0.10796 q 0.654543,-0.0332 1.042125,0.49158 0.442127,0.52201 0.342316,0.61085 -0.04527,0.0861 -0.154356,0.0916 -0.05455,0.003 -0.359747,-0.27491 -0.250655,-0.28045 -0.414291,-0.27214 -0.436361,0.0221 -0.03486,0.67187 0.132286,0.20269 0.532661,0.3499 0.450279,0.10279 0.582567,0.30549 L 54.15,271.27832 q 0.09166,0.33039 0.220431,0.99396 0.08702,0.28875 0.359745,0.27491 0.109089,-0.006 0.08125,-0.25541 -0.02784,-0.24987 0.08125,-0.25541 l 0.35736,1.23831 q -7.517956,0.46532 -9.109045,0.46229 1.080632,-2.60961 1.924525,-5.37474 0.518876,-1.74348 0.682511,-1.75179 0.163636,-0.008 0.132285,0.2027 -0.03135,0.211 0.241377,0.19716 0.218181,-0.0111 0.38533,-0.48025 0.167147,-0.46919 -0.05103,-0.45812 -0.163635,0.008 -0.199623,0.17767 0.01392,0.12494 -0.204262,0.13601 -0.109089,0.006 -0.127647,-0.16105 -0.04175,-0.37482 0.239124,-0.80789 0.335423,-0.43584 0.880874,-0.46352 z m -3.593089,1.2294 q -2.056812,5.17205 -4.090429,10.55233 0.04639,0.41646 0.273852,0.48868 0.282006,0.0695 0.254169,-0.18043 0.02207,-0.29429 0.125395,-0.84399 2.807787,-6.80166 3.941838,-9.91657 0.167148,-0.46918 -0.160121,-0.45257 -0.218181,0.0111 -0.344701,0.35255 z m 8.394059,0.99796 q -0.141564,-0.28598 -0.405013,-0.18885 -0.268086,0.0555 -0.126521,0.34147 0.283131,0.57197 4.395556,7.94382 0,0 0.438615,0.9829 0.210027,0.40815 0.428208,0.39708 0.490906,-0.0249 -0.01153,-1.08834 -1.98079,-3.50128 -4.719314,-8.38808 z m -8.137044,8.20293 q -0.272727,0.0138 -0.670848,0.87167 -0.348214,0.81342 -0.301821,1.22989 0.01392,0.12494 0.07311,0.16382 0.282006,0.0695 0.680125,-0.78839 0.357493,-0.73013 0.834482,-0.87998 0.317991,-0.0999 2.554344,-0.2134 3.27271,-0.1661 4.64562,-0.152 0.441001,0.0195 0.574414,0.72471 0.187957,0.70245 0.678865,0.67753 0.436361,-0.0221 0.179939,-0.84676 -0.247142,-0.74133 -0.60225,-0.9746 -0.300561,-0.23603 -1.33692,-0.18343 z m 4.178442,-7.79262 2.041101,4.04269 q 0.0046,0.0416 0.174039,0.57751 0.08703,0.28875 0.305201,0.27768 0.218181,-0.0111 0.07197,-0.33871 -0.19611,-0.28322 -0.08702,-0.28875 0.545451,-0.0277 0.226332,-0.43031 -0.364385,-0.31655 -1.185942,-1.78259 -0.821558,-1.46605 -1.000238,-2.0852 -0.09166,-0.3304 -0.364385,-0.31656 -0.327271,0.0166 -0.181067,0.34424 z m -1.172158,0.31078 q 0.171787,-0.42754 -0.264574,-0.40539 -0.163635,0.008 -0.24489,0.26372 -1.455556,3.67568 -1.395245,4.21708 0.01392,0.12494 0.127646,0.16105 0.22282,0.0306 0.896054,-1.8045 0.470096,-1.19654 0.881008,-2.43196 z m 2.215142,4.62019 q -2.068077,0.14684 -2.035602,0.43837 0.01392,0.12493 2.795721,-0.0163 0.272726,-0.0138 0.254169,-0.18043 -0.03711,-0.33316 -1.014288,-0.24169 z m -4.400195,-7.98546 q -0.218182,0.0111 -0.353981,0.26925 -0.131161,0.29982 0.08703,0.28875 0.21818,-0.0111 0.34934,-0.3109 0.135801,-0.25818 -0.08239,-0.2471 z m 5.324484,0.52552 0.807639,1.3411 q 0.132285,0.2027 0.454918,0.14444 0.268086,-0.0555 0.13116,-0.29983 l -0.739175,-1.21893 q -0.136925,-0.24434 -0.464198,-0.22773 -0.322631,0.0583 -0.190344,0.26095 z" />
    <path
       inkscape:connector-curvature="0"
       id="path548"
       style="font-style:normal;font-variant:normal;font-weight:normal;font-stretch:normal;font-size:47.79577255px;line-height:125%;font-family:Dymo;-inkscape-font-specification:Dymo;letter-spacing:0px;word-spacing:0px;fill:#ffffff;fill-opacity:1;stroke:none;stroke-width:0.49787274px;stroke-linecap:butt;stroke-linejoin:miter;stroke-opacity:1;image-rendering:auto"
       d="m 59.35941,256.9836 23.127156,-1.17373 3.094416,27.77794 -23.127156,1.17373 z m 10.322557,5.50706 q -0.02783,-0.24987 -1.00037,-0.11675 -2.75397,0.39105 -3.557102,1.06004 -1.869714,1.4351 -1.401145,5.64135 0.496406,4.45614 1.145048,5.84718 0.278492,0.53033 1.357731,1.35507 1.129144,0.78032 3.175153,0.92778 1.159367,0.0668 4.322987,-0.0937 4.472705,-0.22699 6.062667,-0.7265 1.38106,-0.40515 1.910342,-1.56281 0.04062,-0.12771 0.02206,-0.29429 -0.01392,-0.12494 -0.118368,-0.0778 -0.109088,0.006 -0.294796,0.30813 -0.50721,0.86338 -1.352097,1.15755 -1.530778,0.53838 -6.112573,0.77091 -3.109076,0.15779 -3.381802,0.17163 -2.309454,-0.0503 -3.697407,-0.69186 -1.797605,-0.87205 -2.317207,-5.53641 -0.02784,-0.24988 -0.165893,-0.99674 -0.08351,-0.74962 -0.13454,-1.20773 -0.612388,-5.49729 4.678494,-5.7658 0.872724,-0.0443 0.858806,-0.16924 z m 7.785776,3.41609 q 0.272726,-0.0138 0.203136,-0.63854 -0.12526,-1.12444 -5.525234,-0.85038 -3.490891,0.17717 -4.457661,0.85445 -0.912223,0.67452 -0.703454,2.54859 0.52888,4.74766 0.965242,4.72551 0.109088,-0.006 -0.350203,-4.12849 -0.259801,-2.33219 0.507345,-2.83182 0.612788,-0.40803 4.267315,-0.5935 4.30907,-0.21869 4.81966,0.4255 0.06383,0.0805 0.03711,0.33317 0.01856,0.16658 0.236738,0.15551 z m -8.318111,8.54717 q 0.07423,0.66634 4.765115,0.42827 4.036343,-0.20485 3.971393,-0.7879 -0.01392,-0.12494 -0.713727,-0.006 -1.563252,0.24687 -3.96324,0.36867 -1.581811,0.0803 -2.850268,0.019 -1.218551,-0.10568 -1.10946,-0.11122 -0.109089,0.006 -0.09981,0.0888 z m 11.08613,-10.78173 q -0.145078,0.17489 -0.01743,0.33594 0.191471,0.24157 0.210028,0.40815 0.06495,0.58305 0.278492,0.53033 0.272726,-0.0138 0.221693,-0.47195 -0.09743,-0.87457 -0.588332,-0.84965 -0.05455,0.003 -0.104449,0.0472 z m 1.561593,7.12437 q -0.102064,-0.91621 -0.37479,-0.90237 -0.272725,0.0138 -0.170661,0.93005 0.120622,1.0828 0.393347,1.06896 0.272726,-0.0138 0.152104,-1.09664 z m -3.112321,-3.31821 q 0.01856,0.16659 0.836735,0.12506 0.818179,-0.0415 0.799621,-0.20811 -0.01392,-0.12493 -0.886641,-0.0806 -0.763632,0.0387 -0.749715,0.16369 z m 0.431456,3.87308 q 0.102065,0.91622 0.208769,1.87408 0.07423,0.66633 -0.32038,1.06329 -0.544325,0.53021 -5.507936,0.78212 -4.036345,0.20484 -5.301289,-0.3173 -1.264943,-0.52214 -1.863413,-5.89448 -0.357227,-3.20676 0.481895,-4.04509 0.893666,-0.84111 5.639097,-1.08194 3.927252,-0.19931 4.969377,0.29226 0.75548,0.38048 0.964249,2.25455 0.08351,0.74963 1.010775,0.70257 0.981813,-0.0498 0.861191,-1.13263 -0.241243,-2.1656 -1.560732,-2.68497 -1.606134,-0.63048 -6.569745,-0.37857 -5.290882,0.26852 -6.588435,1.42329 -0.948212,0.84388 -0.447168,5.34165 0.561356,5.03918 2.090874,5.96671 1.529519,0.92753 6.602221,0.67009 4.909066,-0.24914 5.994203,-0.84868 1.398492,-0.74108 1.07838,-3.61466 -0.143819,-1.29103 -0.134539,-1.20773 -0.12414,-0.62192 -0.778678,-0.5887 l -5.181792,0.26298 q -0.818178,0.0415 -0.73467,0.79115 0.07887,0.70798 0.897045,0.66646 z" />
    <path
       inkscape:connector-curvature="0"
       id="path550"
       style="font-style:normal;font-variant:normal;font-weight:normal;font-stretch:normal;font-size:47.79577255px;line-height:125%;font-family:Dymo;-inkscape-font-specification:Dymo;letter-spacing:0px;word-spacing:0px;fill:#ffffff;fill-opacity:1;stroke:none;stroke-width:0.49787274px;stroke-linecap:butt;stroke-linejoin:miter;stroke-opacity:1;image-rendering:auto"
       d="m 81.722922,255.84863 22.036248,-1.11836 3.09442,27.77793 -22.036252,1.11837 z m 18.919748,5.86649 q -0.0649,-0.58304 -1.383309,-0.5999 0.272726,-0.0138 -1.963627,0.0997 -5.399972,0.27405 -8.117952,0.49577 -1.904442,0.13853 -1.844131,0.67993 0.01856,0.16659 0.309841,0.31933 0.345827,0.14997 0.39222,0.56643 l 1.10177,10.87517 q -0.912224,0.67451 -0.898306,0.79946 0.06383,0.0805 0.172915,0.075 0.663822,0.0501 0.864571,0.37494 0.20075,0.32487 0.255296,0.3221 0.163635,-0.008 0.190344,-0.26096 0.08125,-0.2554 0.171787,-0.42753 l 10.040953,-0.46771 q 0.654548,-0.0332 1.068838,0.23893 0.40965,0.2305 0.51874,0.22496 0.81818,-0.0415 0.71147,-0.99938 -0.0603,-0.5414 -1.04212,-0.49157 -10.145405,0.51489 -10.145405,0.51489 -0.540813,0.0693 -0.832097,-0.0834 -0.241377,-0.19715 -0.155482,-0.41092 0.13116,-0.29983 0.02797,-1.71857 -0.08927,-1.29379 0.1417,-1.68245 0.04991,-0.0444 0.04063,-0.1277 -0.0046,-0.0417 -0.350467,-0.19162 -0.291284,-0.15275 -0.323759,-0.44427 -0.06495,-0.58305 0.535047,-0.6135 0.272726,-0.0138 0.400374,0.14721 0.127646,0.16105 0.236738,0.15551 0.163635,-0.008 0.372536,-0.10267 0.263447,-0.0971 0.481628,-0.10822 l 4.690886,-0.23806 q 2.454532,-0.12458 2.290897,-0.11627 0.813538,-0.0832 0.748588,-0.66622 -0.05567,-0.49975 -2.237479,-0.38902 -0.327271,0.0166 -2.931522,0.27442 -2.604251,0.25781 -4.076971,0.33255 -0.599997,0.0304 -0.655667,-0.46929 -0.0093,-0.0833 -0.0011,-0.50253 0.0627,-0.42199 -0.03937,-1.33821 -0.04175,-0.37481 -0.312092,-1.32437 -0.220432,-0.99397 -0.238989,-1.16055 -0.07423,-0.66634 0.471222,-0.69403 0.327271,-0.0166 0.618555,0.13614 0.286643,0.11109 0.450278,0.10279 0.272726,-0.0138 0.69053,-0.20257 l 8.018143,-0.40693 q 0.163635,-0.008 0.768272,0.003 0.440997,0.0195 0.599997,-0.0305 0.20426,-0.13602 0.16715,-0.46919 z m -0.802403,7.07682 q -0.0093,-0.0833 -0.540813,0.0693 -0.740436,0.24699 -1.231341,0.2719 l -5.945426,0.30174 q -0.381816,0.0194 -0.445641,-0.0611 -0.06847,-0.12217 -0.232098,-0.11387 -0.109089,0.006 -0.190346,0.26095 -0.08589,0.21376 -0.304075,0.22484 -0.163635,0.008 -0.391095,-0.0639 0.0058,0.54418 0.0069,1.04669 0.317857,1.86854 0.317857,1.86854 0.0232,0.20823 0.246017,0.23881 0.277366,0.0278 0.24489,-0.26373 l -0.219169,-2.45988 q 0.586079,-0.15539 2.058799,-0.23013 0.981814,-0.0498 2.622808,-0.0912 1.695541,-0.0442 1.859176,-0.0525 2.236353,-0.1135 2.143566,-0.94643 z m -13.188994,-6.61802 q -0.272727,0.0138 0.427808,6.30239 0.700535,6.28856 0.973261,6.27472 0.218181,-0.0111 0.116116,-0.92729 0.09279,0.83293 -0.59847,-5.37234 -0.167015,-1.49926 -0.404741,-4.12573 -0.157737,-1.41597 -0.25404,-1.78801 -0.0963,-0.37205 -0.259934,-0.36374 z m 3.062874,13.70734 q 0.02783,0.24987 0.786829,0.16947 1.731528,-0.21352 2.004254,-0.22736 0.763633,-0.0388 2.527635,0.0392 1.818549,0.0752 3.182178,0.006 3.545437,-0.17994 3.512957,-0.47146 -0.0325,-0.29152 -10.078063,0.13453 -1.963627,0.0997 -1.93579,0.34954 z m 1.300606,-11.96037 7.859146,-0.35697 q 1.636351,-0.0831 2.335041,-0.70485 0.44915,-0.39972 -0.15085,-0.36927 0,0 -0.46307,0.27479 -0.41316,0.23038 -1.663061,0.33569 0.358621,-0.22761 -0.0232,-0.20823 l -8.081966,0.3264 q -0.490907,0.0249 -0.444514,0.44137 0.03248,0.29153 0.632472,0.26107 z m 1.293373,9.1483 q -0.436362,0.0222 -0.417805,0.18873 0.0232,0.20823 0.514104,0.18332 1.036358,-0.0526 4.136154,-0.29369 3.099796,-0.24109 3.263431,-0.24939 0.65454,-0.0332 1.54582,0.0891 0.44564,0.0611 0.42245,-0.14709 -0.0325,-0.29152 -1.12338,-0.23615 z m -1.191442,-6.26364 q -0.32727,0.0166 -0.304074,0.22484 0.03248,0.29152 0.746202,0.29718 1.418174,-0.072 2.781803,-0.14118 3.986438,-0.16043 3.949323,-0.49361 -0.05919,-0.0389 -0.386455,-0.0223 l -5.77251,0.37673 q -0.490907,0.0249 -0.723006,-0.089 -0.236737,-0.15551 -0.291283,-0.15274 z m -0.627699,-2.18787 q -0.03711,-0.33316 -0.200749,-0.32486 -0.327272,0.0166 -0.27624,0.47472 0.143819,1.29102 0.413032,1.73806 0.168274,0.0333 0.313353,-0.14155 z" />
    <path
       inkscape:connector-curvature="0"
       id="path552"
       style="font-style:normal;font-variant:normal;font-weight:normal;font-stretch:normal;font-size:47.79577255px;line-height:125%;font-family:Dymo;-inkscape-font-specification:Dymo;letter-spacing:0px;word-spacing:0px;fill:#ffffff;fill-opacity:1;stroke:none;stroke-width:0.49787274px;stroke-linecap:butt;stroke-linejoin:miter;stroke-opacity:1;image-rendering:auto"
       d="m 102.99552,254.76902 22.5817,-1.14605 3.09442,27.77794 -22.58171,1.14605 z m 12.44166,5.81833 q -4.74543,0.24084 -6.02091,1.10132 -1.22558,0.81606 -0.93794,3.39812 0.19021,1.70749 1.62807,2.30462 1.43322,0.55549 5.25138,0.36172 3.54544,-0.17994 4.32763,-0.0521 2.28738,0.3446 2.49615,2.21868 0.17165,1.54091 -0.8543,2.17932 -1.18031,0.73 -4.72575,0.90994 -4.4727,0.22699 -5.31056,-0.40059 -0.29592,-0.19439 -0.89353,-1.12733 -0.45605,-0.64697 -1.0015,-0.61929 -1.2,0.0609 -1.11649,0.81054 0.0649,0.58304 0.72301,0.089 0.40037,0.14721 0.81579,0.92187 0.41078,0.73302 1.48425,1.0136 1.58758,0.46388 5.18756,0.28118 3.65452,-0.18547 5.17138,-0.8488 2.19812,-0.94918 1.94295,-3.23972 -0.26908,-2.41547 -2.52975,-3.01272 -1.24639,-0.35556 -4.5191,-0.18947 -3.92725,0.19931 -4.42744,0.14093 -2.17365,-0.3085 -2.40098,-2.34916 -0.19949,-1.79078 1.65392,-2.38742 0.84953,-0.25253 3.90406,-0.40755 3.43634,-0.1744 4.8011,0.25892 1.19648,0.39997 1.32174,1.52442 0.0789,0.70798 0.56978,0.68307 0.98181,-0.0498 0.86583,-1.09099 -0.31548,-2.83193 -7.40635,-2.47206 z m -7.21163,1.24551 q -0.40501,-0.18885 -0.90758,0.71616 -0.5432,1.03273 -0.42258,2.11553 0.27372,2.45712 1.57578,3.31243 1.90318,1.32739 7.3577,1.05057 3.16362,-0.16056 4.17791,0.0811 0.79147,0.21112 0.92488,0.91634 0.12878,0.66356 -0.3842,0.98277 -0.45843,0.31643 -0.45379,0.35808 0.009,0.0833 0.282,0.0695 1.09091,-0.0554 0.92853,-1.51297 -0.17166,-1.54091 -1.15347,-1.49109 -1.96363,0.0997 -4.98217,0.0853 -4.06418,-0.045 -4.70129,-0.34774 -1.62005,-0.75541 -2.19446,-1.48013 -0.57442,-0.72471 -0.73215,-2.14068 -0.16702,-1.49926 0.35411,-2.23769 0.33078,-0.47749 0.33078,-0.47749 z m 16.07638,6.93219 q -0.0731,-0.16381 -0.17755,-0.11663 -0.10445,0.0472 -0.0813,0.25541 0.40601,2.65982 -0.56427,3.79798 -1.50069,1.7933 -6.90066,2.06735 -4.41816,0.22423 -6.42931,-0.59509 -0.2321,-0.11387 -0.27737,-0.0278 -0.0998,0.0888 0.13229,0.2027 1.45641,0.76371 3.66606,0.90286 1.15936,0.0668 4.21389,-0.0882 2.78181,-0.14118 4.53892,-1.10987 2.48363,-1.34061 2.17743,-4.08925 -0.0928,-0.83293 -0.29817,-1.19944 z m -9.00247,3.38859 q -1.09091,0.0554 -2.37792,-0.17249 -1.45529,-0.26119 -1.77441,-0.66381 -0.12301,-0.1194 -0.2321,-0.11387 -0.10445,0.0472 0.0232,0.20824 0.53378,0.85242 2.25252,1.01648 1.7141,0.12242 1.72802,0.24735 0.009,0.0833 2.30017,-0.033 2.12726,-0.10796 2.09015,-0.44112 -0.0278,-0.24988 -1.01429,-0.24169 1.96827,-0.058 -2.99534,0.1939 z m -2.25915,-6.00005 q 2.46845,3.7e-4 4.88235,0.004 2.90482,-0.0218 4.52023,0.69198 0.17291,0.075 0.27736,0.0278 0.15436,-0.0916 -0.0185,-0.16658 -2.5171,-1.42188 -9.63468,-0.80936 -0.43636,0.0221 -0.42245,0.14708 0.0638,0.0805 0.39574,0.10556 z m -2.87221,-1.65514 q 0.13918,1.24939 0.84827,1.21341 0.27273,-0.0138 0.24489,-0.26373 -0.0139,-0.12494 -0.24602,-0.2388 -0.23674,-0.15551 -0.30169,-0.73856 -0.0881,-0.79127 1.68865,-1.09086 0.80426,-0.16645 3.2588,-0.29102 2.45453,-0.12457 3.48737,0.2837 0.68238,0.21666 0.84714,0.71087 0.16012,0.45258 0.43285,0.43874 0.48163,-0.10822 -0.0707,-1.12722 -0.68927,-1.26335 -4.99834,-1.04466 -3.81816,0.19378 -3.5408,0.22159 -0.66382,-0.0501 -0.63598,0.1998 0.009,0.0833 0.23674,0.15551 0.22746,0.0722 0.2321,0.11387 -0.009,-0.0833 -0.79035,0.2914 -0.78106,0.37469 -0.69291,1.16596 z m -2.0651,7.55973 q -0.0684,-0.12218 -0.22746,-0.0722 -0.15899,0.05 -0.13116,0.29983 0.1299,1.16608 0.51172,1.14671 0.21818,-0.0111 0.0256,-0.75517 z" />
  </g>
</svg>
