<?xml version="1.0" encoding="UTF-8" standalone="no"?>
<svg
   xmlns:dc="http://purl.org/dc/elements/1.1/"
   xmlns:cc="http://creativecommons.org/ns#"
   xmlns:rdf="http://www.w3.org/1999/02/22-rdf-syntax-ns#"
   xmlns:svg="http://www.w3.org/2000/svg"
   xmlns="http://www.w3.org/2000/svg"
   xmlns:sodipodi="http://sodipodi.sourceforge.net/DTD/sodipodi-0.dtd"
   xmlns:inkscape="http://www.inkscape.org/namespaces/inkscape"
   width="421.94324"
   height="185.98836"
   viewBox="0 0 421.94324 185.98836"
   version="1.1"
   id="svg267"
   sodipodi:docname="irem.svg"
   style="fill:none"
   inkscape:version="0.92.5 (2060ec1f9f, 2020-04-08)">
  <metadata
     id="metadata273">
    <rdf:RDF>
      <cc:Work
         rdf:about="">
        <dc:format>image/svg+xml</dc:format>
        <dc:type
           rdf:resource="http://purl.org/dc/dcmitype/StillImage" />
        <dc:title />
      </cc:Work>
    </rdf:RDF>
  </metadata>
  <defs
     id="defs271" />
  <sodipodi:namedview
     pagecolor="#ffffff"
     bordercolor="#666666"
     borderopacity="1"
     objecttolerance="10"
     gridtolerance="10"
     guidetolerance="10"
     inkscape:pageopacity="0"
     inkscape:pageshadow="2"
     inkscape:window-width="1366"
     inkscape:window-height="743"
     id="namedview269"
     showgrid="false"
     inkscape:pagecheckerboard="true"
     inkscape:zoom="0.79518726"
     inkscape:cx="158.047"
     inkscape:cy="51.073946"
     inkscape:window-x="0"
     inkscape:window-y="0"
     inkscape:window-maximized="1"
     inkscape:current-layer="svg267" />
  <path
     d="M 56.088051,6.7046502 H 6.7046916 V 51.939824 H 56.088051 Z"
     id="path225"
     inkscape:connector-curvature="0"
     style="fill:#000000;stroke-width:1.38797116" />
  <path
     d="M 4.4695586,4.4697806 H 58.322691 V 54.174597 H 4.4695586 Z m 4.469684,4.4696699 V 49.704912 H 53.853001 V 8.9394505 Z"
     id="path227"
     inkscape:connector-curvature="0"
     style="clip-rule:evenodd;fill:#000000;fill-rule:evenodd;stroke-width:1.38797116" />
  <path
     d="M 56.088051,52.03823 H 6.7046916 V 155.54576 H 56.088051 Z"
     id="path229"
     inkscape:connector-curvature="0"
     style="fill:#000000;stroke-width:1.38797116" />
  <path
     d="M 4.4695586,49.803598 H 58.322691 V 157.78039 H 4.4695586 Z m 4.469684,4.469684 V 153.31112 H 53.853001 V 54.273282 Z"
     id="path231"
     inkscape:connector-curvature="0"
     style="clip-rule:evenodd;fill:#000000;fill-rule:evenodd;stroke-width:1.38797116" />
  <path
     d="m 56.054891,52.030459 v 49.445771 54.05564 h 49.445769 v -54.05564 h 54.05495 V 52.030459 h -54.05495 z"
     id="path233"
     inkscape:connector-curvature="0"
     style="fill:#000000;stroke-width:1.38797116" />
  <path
     d="M 53.819831,49.795685 H 161.79025 V 103.711 H 107.7353 v 54.05551 H 53.819831 Z m 4.46968,4.469545 v 99.03062 H 103.26561 V 99.241321 h 54.05537 V 54.26523 Z"
     id="path235"
     inkscape:connector-curvature="0"
     style="clip-rule:evenodd;fill:#000000;fill-rule:evenodd;stroke-width:1.38797116" />
  <path
     d="M 159.54034,52.030459 V 155.53187 h 102.80287 v -31.42783 h -67.04595 v -0.32159 h 67.04595 V 52.030459 Z m 35.75692,31.986212 h 30.44931 v 0.123807 h -30.44931 z"
     id="path237"
     inkscape:connector-curvature="0"
     style="fill:#000000;stroke-width:1.38797116" />
  <path
     d="M 157.30432,49.795685 H 264.57784 V 157.76651 H 157.30432 Z m 102.80286,76.543125 h -67.04456 v -4.79127 h 67.04456 V 54.26523 h -98.3322 v 99.03062 h 98.3322 z M 193.06262,81.78176 h 34.91859 v 4.593491 h -34.91859 z"
     id="path239"
     inkscape:connector-curvature="0"
     style="clip-rule:evenodd;fill:#000000;fill-rule:evenodd;stroke-width:1.38797116" />
  <path
     d="M 262.44176,52.030459 V 155.53187 h 53.93239 v -53.35721 h 0.12353 v 53.35721 h 53.23286 v -53.35721 h 0.12352 v 53.35721 h 49.44648 V 52.030459 Z"
     id="path241"
     inkscape:connector-curvature="0"
     style="fill:#000000;stroke-width:1.38797116" />
  <path
     d="M 260.20851,49.795685 H 421.53517 V 157.76651 H 260.20851 Z M 318.73232,153.29585 H 367.4959 V 99.939751 h 4.59419 v 53.356099 h 44.97582 V 54.26523 H 264.67778 v 99.03062 h 49.46174 V 99.939751 h 4.5928 z"
     id="path243"
     inkscape:connector-curvature="0"
     style="clip-rule:evenodd;fill:#000000;fill-rule:evenodd;stroke-width:1.38797116" />
  <path
     d="M 51.618511,2.2348833 H 2.2351196 V 47.470002 H 51.618511 Z"
     id="path245"
     inkscape:connector-curvature="0"
     style="fill:#409ee0;stroke-width:1.38797116" />
  <path
     d="M 5.7829944e-7,0 H 53.853141 V 49.704774 H 5.7829944e-7 Z M 4.4696696,4.4696697 V 45.23509 H 49.383461 V 4.4696697 Z"
     id="path247"
     inkscape:connector-curvature="0"
     style="clip-rule:evenodd;fill:#000000;fill-rule:evenodd;stroke-width:1.38797116" />
  <path
     d="M 51.618511,47.568547 H 2.2351196 V 151.07648 H 51.618511 Z"
     id="path249"
     inkscape:connector-curvature="0"
     style="fill:#74b532;stroke-width:1.38797116" />
  <path
     d="M 5.7829944e-7,45.333776 H 53.853141 V 153.31112 H 5.7829944e-7 Z M 4.4696696,49.803459 V 148.84186 H 49.383461 V 49.803458 Z"
     id="path251"
     inkscape:connector-curvature="0"
     style="clip-rule:evenodd;fill:#000000;fill-rule:evenodd;stroke-width:1.38797116" />
  <path
     d="M 51.585341,47.560775 V 97.006551 151.06123 H 101.03126 V 97.006551 h 54.05509 V 47.560775 h -54.05509 z"
     id="path253"
     inkscape:connector-curvature="0"
     style="fill:#ffffff;stroke-width:1.38797116" />
  <path
     d="M 49.350291,45.325863 H 157.32098 V 99.241321 H 103.26575 V 153.29585 H 49.350291 Z m 4.46968,4.469684 v 99.031043 h 44.9761 V 94.771638 H 152.85172 V 49.795547 Z"
     id="path255"
     inkscape:connector-curvature="0"
     style="clip-rule:evenodd;fill:#000000;fill-rule:evenodd;stroke-width:1.38797116" />
  <path
     d="M 155.07108,47.560775 V 151.06123 H 257.87255 V 119.63422 H 190.828 v -0.32145 h 67.04455 V 47.560775 Z M 190.828,79.546849 h 30.44931 v 0.123945 H 190.828 Z"
     id="path257"
     inkscape:connector-curvature="0"
     style="fill:#ffffff;stroke-width:1.38797116" />
  <path
     d="M 152.83506,45.325863 H 260.10718 V 153.29585 H 152.83506 Z m 102.80286,76.543127 h -67.04456 v -4.79113 h 67.04456 V 49.795547 h -98.33221 v 99.031043 h 98.33221 z M 188.59336,77.311937 h 34.91857 v 4.593631 h -34.91857 z"
     id="path259"
     inkscape:connector-curvature="0"
     style="clip-rule:evenodd;fill:#000000;fill-rule:evenodd;stroke-width:1.38797116" />
  <path
     d="M 257.97248,47.560775 V 151.06123 h 53.93101 V 97.704841 h 0.12492 v 53.356389 h 53.23286 V 97.704841 h 0.12353 v 53.356389 h 49.44508 V 47.560775 Z"
     id="path261"
     inkscape:connector-curvature="0"
     style="fill:#ffffff;stroke-width:1.38797116" />
  <path
     d="M 255.73786,45.325863 H 417.06452 V 153.29585 H 255.73786 Z m 58.52518,103.500727 h 48.76221 V 95.470065 h 4.59419 v 53.356525 h 44.97581 V 49.795547 H 260.20712 v 99.031043 h 49.46174 V 95.470065 h 4.59418 z"
     id="path263"
     inkscape:connector-curvature="0"
     style="clip-rule:evenodd;fill:#000000;fill-rule:evenodd;stroke-width:1.38797116" />
  <path
     d="m 9.1044796,185.96037 c 1.3452224,-0.001 2.6738304,-0.2998 3.8933434,-0.87442 1.199317,-0.53576 2.263337,-1.33801 3.112636,-2.34845 v 0 l -2.319008,-2.34845 c -0.56911,0.6926 -1.275976,1.25611 -2.074656,1.65446 -0.783482,0.38309 -1.643635,0.58017 -2.5141294,0.57462 -0.73457,0.007 -1.463407,-0.13186 -2.144332,-0.41083 -0.680939,-0.27899 -1.300432,-0.69121 -1.822643,-1.21309 -0.502848,-0.51217 -0.900154,-1.11871 -1.16881,-1.78772 -0.288045,-0.70925 -0.433088,-1.46847 -0.42662,-2.23601 -0.0078,-0.7731 0.133065,-1.54204 0.41492,-2.26101 0.263104,-0.67038 0.652999,-1.2811 1.147783,-1.79881 0.4962,-0.51493 1.089667,-0.92161 1.745054,-1.19921 0.682965,-0.29424 1.418021,-0.44276 2.159975,-0.43721 0.8947834,-0.004 1.7780454,0.20403 2.5795854,0.60516 0.828493,0.42194 1.553958,1.02294 2.123748,1.76272 v 0 l 2.392544,-2.42339 c -0.84125,-1.03265 -1.911653,-1.85017 -3.124227,-2.38593 -1.246217,-0.58294 -2.602292,-0.88552 -3.9751634,-0.8883 -1.226216,-0.008 -2.441885,0.2304 -3.576579,0.69954 -1.075026,0.44137 -2.056599,1.08679 -2.891657,1.90013 -0.824247,0.81474 -1.479835,1.78771 -1.92855602,2.862 -0.465167,1.12565 -0.705669,2.33318 -0.707675001701,3.55182 -0.0019999983,1.22002 0.234525001701,2.42894 0.695987001701,3.55598 0.44341002,1.07013 1.09485802,2.03893 1.91569002,2.8495 0.835462,0.81336 1.817438,1.45876 2.892838,1.89875 1.142369,0.47191 2.366061,0.70925 3.599952,0.69815 z m 46.2583614,0.0264 c 1.22211,0.008 2.43381,-0.22901 3.56375,-0.69953 1.07027,-0.4386 2.04406,-1.08817 2.86533,-1.90986 0.82127,-0.82028 1.47375,-1.79742 1.91984,-2.87587 0.46706,-1.1187 0.70772,-2.32068 0.70772,-3.53517 0,-1.21447 -0.24066,-2.41645 -0.70772,-3.53655 -0.44609,-1.07706 -1.09844,-2.05419 -1.9197,-2.87587 -0.82126,-0.82029 -1.79506,-1.46986 -2.86547,-1.90846 -2.27822,-0.93271 -4.82583,-0.93271 -7.10405,0 -1.0704,0.4386 -2.0442,1.08817 -2.865467,1.90846 -0.821262,0.82168 -1.473747,1.79881 -1.919702,2.87587 -0.466776,1.1201 -0.707171,2.32208 -0.707171,3.53655 0,1.21449 0.240395,2.41647 0.707171,3.53517 0.446094,1.07845 1.09844,2.05559 1.919702,2.87587 0.821267,0.82169 1.795067,1.47126 2.865467,1.90986 1.12273,0.46913 2.32679,0.70648 3.54155,0.69814 z m 0,-3.3228 c -0.71717,0.006 -1.42809,-0.13602 -2.08918,-0.41778 -0.66095,-0.28176 -1.25819,-0.69676 -1.75509,-1.21863 -0.49009,-0.52467 -0.87539,-1.14092 -1.13494,-1.8127 -0.55352,-1.45181 -0.55352,-3.05909 0,-4.51091 0.26163,-0.66623 0.64693,-1.27693 1.13494,-1.79881 0.4969,-0.52187 1.09414,-0.93688 1.75509,-1.21863 0.66109,-0.28176 1.37201,-0.42333 2.08918,-0.41778 0.73827,-0.006 1.46972,0.14295 2.1483,0.43721 0.64804,0.27759 1.23336,0.68566 1.72052,1.1992 0.48802,0.52188 0.87332,1.13258 1.13496,1.79881 0.55324,1.45182 0.55324,3.0591 0,4.51091 -0.25956,0.67178 -0.64486,1.28803 -1.13496,1.8127 -0.48716,0.51354 -1.07248,0.9216 -1.72052,1.1992 -0.6783,0.29286 -1.40934,0.44137 -2.14705,0.43582 z m 53.654659,3.04799 v -3.19789 h -9.350489 v -14.29333 h -3.53696 v 17.48983 z m 44.62397,0 v -3.19789 h -9.35077 v -14.29333 h -3.53793 v 17.48983 z m 44.96472,0 v -3.14792 h -9.69082 v -4.14866 h 6.3236 v -3.04937 h -6.3236 v -3.99457 h 9.59366 v -3.14792 h -13.13437 v 17.48982 z m 39.25321,0.24983 c 1.34633,-0.001 2.67461,-0.2998 3.89326,-0.87442 1.1992,-0.53576 2.26377,-1.33801 3.11322,-2.34845 v 0 l -2.32069,-2.34844 c -0.56907,0.69259 -1.27555,1.2575 -2.07363,1.65445 -0.78421,0.38447 -1.64475,0.58018 -2.51501,0.57462 -0.73423,0.008 -1.46292,-0.13047 -2.14302,-0.40945 -0.68149,-0.27898 -1.30053,-0.6912 -1.82241,-1.21447 -0.50244,-0.51078 -0.9008,-1.11871 -1.16868,-1.78632 -0.28869,-0.70925 -0.43442,-1.46987 -0.42749,-2.23602 -0.008,-0.77449 0.13325,-1.54204 0.4164,-2.2624 0.26093,-0.66899 0.65095,-1.27971 1.14646,-1.79741 0.4955,-0.51495 1.08955,-0.92301 1.74467,-1.20061 0.68289,-0.29285 1.41852,-0.44137 2.1597,-0.43721 0.89801,-0.002 1.78493,0.20682 2.58855,0.6121 0.82863,0.41917 1.55315,1.02154 2.12361,1.76133 v 0 l 2.39147,-2.4234 c -0.84111,-1.03264 -1.91124,-1.85016 -3.12433,-2.38591 -1.24501,-0.58295 -2.60105,-0.88553 -3.97376,-0.8883 -1.22558,-0.008 -2.44144,0.2304 -3.57679,0.69953 -1.07429,0.44138 -2.05699,1.0854 -2.89254,1.90013 -0.82445,0.81475 -1.48096,1.78632 -1.92928,2.86061 -0.46496,1.12565 -0.70509,2.33319 -0.70787,3.55321 -10e-4,1.22003 0.23457,2.42757 0.69676,3.55459 0.44277,1.07013 1.09372,2.03894 1.9154,2.84951 0.83557,0.81335 1.81686,1.45875 2.89254,1.89875 1.14091,0.46912 2.36232,0.70508 3.59346,0.69259 z m 46.82182,-0.24983 v -14.29333 h 5.7351 v -3.19927 h -15.03729 v 3.19927 h 5.76148 v 14.29194 z m 40.5454,0 v -17.48983 h -3.53932 v 17.48983 z m 40.7675,0.2762 c 1.2228,0.008 2.4345,-0.22901 3.56431,-0.69953 1.07012,-0.43999 2.04309,-1.08818 2.86477,-1.90986 0.82168,-0.82028 1.47403,-1.79881 1.91956,-2.87588 0.46637,-1.1187 0.70787,-2.32068 0.70787,-3.53516 0,-1.21447 -0.2415,-2.41645 -0.70787,-3.53655 -0.44553,-1.07706 -1.09788,-2.0542 -1.91956,-2.87587 -0.82168,-0.82029 -1.79465,-1.46987 -2.86477,-1.90846 -2.27904,-0.93272 -4.82598,-0.93272 -7.10364,0 -1.07013,0.43998 -2.04309,1.08817 -2.86338,1.90985 -0.82168,0.82167 -1.47403,1.79742 -1.92095,2.87448 -0.46636,1.11871 -0.70787,2.32208 -0.70787,3.53655 0,1.21448 0.24151,2.41646 0.70787,3.53516 0.44692,1.07707 1.09927,2.05421 1.92095,2.87588 0.82029,0.8203 1.79325,1.46987 2.86338,1.90986 1.12288,0.46774 2.32485,0.70509 3.53933,0.69675 z m 0,-3.3228 c -0.73423,0.006 -1.46154,-0.14297 -2.1347,-0.43721 -0.64402,-0.28038 -1.22557,-0.68844 -1.70998,-1.20059 -0.48995,-0.52327 -0.87581,-1.13815 -1.13537,-1.81131 -0.5538,-1.45182 -0.5538,-3.05909 0,-4.51091 0.26095,-0.66762 0.64681,-1.27832 1.13537,-1.79881 0.48441,-0.51077 1.06596,-0.91883 1.70998,-1.1992 0.67316,-0.29425 1.40047,-0.44415 2.1347,-0.43722 0.7384,-0.006 1.46847,0.14297 2.14719,0.43722 0.64818,0.27758 1.23391,0.68566 1.72109,1.1992 0.48856,0.52188 0.87442,1.13259 1.13535,1.79881 0.5538,1.45182 0.5538,3.05909 0,4.51091 -0.25955,0.67178 -0.64401,1.28804 -1.13535,1.81131 -0.48718,0.51354 -1.07291,0.9216 -1.72109,1.20059 -0.67872,0.29285 -1.40879,0.43998 -2.14719,0.43443 z m 44.10972,3.04798 v -11.69921 l 8.71507,11.69921 h 3.12433 v -17.48982 h -3.32002 v 11.3189 l -8.49439,-11.3189 h -3.36999 v 17.48982 z"
     id="path265"
     inkscape:connector-curvature="0"
     style="fill:#ffffff;stroke-width:1.38797116" />
  <g
     id="g48"
     transform="matrix(0.86694402,0,0,0.86694402,33.943959,-93.326554)">
    <path
       d="m 98.368707,123.56449 -3.911684,9.67624 h 7.837657 z m -1.627486,-2.59162 h 3.269259 l 8.12318,19.44364 h -2.99801 l -1.94157,-4.98788 h -9.607908 l -1.941568,4.98788 h -3.040839 z"
       style="font-style:normal;font-weight:normal;font-size:40px;line-height:125%;font-family:sans-serif;letter-spacing:0px;word-spacing:0px;fill:#ffffff;fill-opacity:1;stroke:#ffffff;stroke-width:0.69800001;stroke-linecap:butt;stroke-linejoin:miter;stroke-miterlimit:4;stroke-dasharray:none;stroke-opacity:1"
       id="path36"
       inkscape:connector-curvature="0" />
    <path
       d="m 149.94112,131.30027 q 0.92796,0.28651 1.79881,1.22418 0.88512,0.93767 1.77025,2.5786 l 2.92663,5.31346 h -3.09794 l -2.72677,-4.98788 q -1.05644,-1.95348 -2.05577,-2.59162 -0.98506,-0.63814 -2.69821,-0.63814 h -3.14077 v 8.21764 h -2.88381 v -19.44364 h 6.50997 q 3.65472,0 5.45352,1.39348 1.79881,1.39349 1.79881,4.2065 0,1.83627 -0.94223,3.04743 -0.92796,1.21115 -2.71249,1.67999 z m -7.22378,-8.16555 v 6.9023 h 3.62617 q 2.08433,0 3.14077,-0.87256 1.07072,-0.88557 1.07072,-2.59161 0,-1.70604 -1.07072,-2.56557 -1.05644,-0.87256 -3.14077,-0.87256 z"
       style="font-style:normal;font-weight:normal;font-size:40px;line-height:125%;font-family:sans-serif;letter-spacing:0px;word-spacing:0px;fill:#ffffff;fill-opacity:1;stroke:#ffffff;stroke-width:0.69800001;stroke-linecap:butt;stroke-linejoin:miter;stroke-miterlimit:4;stroke-dasharray:none;stroke-opacity:1"
       id="path38"
       inkscape:connector-curvature="0" />
    <path
       d="m 200.69712,122.47054 v 2.77394 q -1.45617,-1.2372 -3.11221,-1.84929 -1.64177,-0.61209 -3.49768,-0.61209 -3.65472,0 -5.59629,2.04464 -1.94157,2.03162 -1.94157,5.88649 0,3.84184 1.94157,5.88649 1.94157,2.03161 5.59629,2.03161 1.85591,0 3.49768,-0.61209 1.65604,-0.61209 3.11221,-1.84929 v 2.74789 q -1.51328,0.93768 -3.21215,1.40651 -1.6846,0.46884 -3.56906,0.46884 -4.83964,0 -7.62351,-2.69581 -2.78386,-2.70882 -2.78386,-7.38415 0,-4.68836 2.78386,-7.38416 2.78387,-2.70883 7.62351,-2.70883 1.91302,0 3.59761,0.46884 1.69888,0.45581 3.1836,1.38046 z"
       style="font-style:normal;font-weight:normal;font-size:40px;line-height:125%;font-family:sans-serif;letter-spacing:0px;word-spacing:0px;fill:#ffffff;fill-opacity:1;stroke:#ffffff;stroke-width:0.69800001;stroke-linecap:butt;stroke-linejoin:miter;stroke-miterlimit:4;stroke-dasharray:none;stroke-opacity:1"
       id="path40-3"
       inkscape:connector-curvature="0" />
    <path
       d="m 238.86281,123.56449 -3.91168,9.67624 h 7.83765 z m -1.62749,-2.59162 h 3.26926 l 8.12318,19.44364 h -2.998 l -1.94157,-4.98788 h -9.60792 l -1.94157,4.98788 h -3.04083 z"
       style="font-style:normal;font-weight:normal;font-size:40px;line-height:125%;font-family:sans-serif;letter-spacing:0px;word-spacing:0px;fill:#ffffff;fill-opacity:1;stroke:#ffffff;stroke-width:0.69800001;stroke-linecap:butt;stroke-linejoin:miter;stroke-miterlimit:4;stroke-dasharray:none;stroke-opacity:1"
       id="path42"
       inkscape:connector-curvature="0" />
    <path
       d="m 277.21144,123.13472 v 15.11994 h 3.48341 q 4.41135,0 6.45285,-1.82325 2.05578,-1.82325 2.05578,-5.75625 0,-3.90696 -2.05578,-5.71719 -2.0415,-1.82325 -6.45285,-1.82325 z m -2.8838,-2.16185 h 5.92464 q 6.19589,0 9.09396,2.3572 2.89808,2.34418 2.89808,7.34509 0,5.02695 -2.91235,7.38415 -2.91235,2.3572 -9.07969,2.3572 h -5.92464 z"
       style="font-style:normal;font-weight:normal;font-size:40px;line-height:125%;font-family:sans-serif;letter-spacing:0px;word-spacing:0px;fill:#ffffff;fill-opacity:1;stroke:#ffffff;stroke-width:0.69800001;stroke-linecap:butt;stroke-linejoin:miter;stroke-miterlimit:4;stroke-dasharray:none;stroke-opacity:1"
       id="path44"
       inkscape:connector-curvature="0" />
    <path
       d="m 321.42893,120.97287 h 13.47677 v 2.21394 h -10.59297 v 5.75626 h 10.15041 v 2.21394 h -10.15041 v 7.04556 h 10.84994 v 2.21394 h -13.73374 z"
       style="font-style:normal;font-weight:normal;font-size:40px;line-height:125%;font-family:sans-serif;letter-spacing:0px;word-spacing:0px;fill:#ffffff;fill-opacity:1;stroke:#ffffff;stroke-width:0.69800001;stroke-linecap:butt;stroke-linejoin:miter;stroke-miterlimit:4;stroke-dasharray:none;stroke-opacity:1"
       id="path46"
       inkscape:connector-curvature="0" />
  </g>
</svg>
