<?xml version="1.0" encoding="UTF-8" standalone="no"?>
<svg
   xmlns:dc="http://purl.org/dc/elements/1.1/"
   xmlns:cc="http://creativecommons.org/ns#"
   xmlns:rdf="http://www.w3.org/1999/02/22-rdf-syntax-ns#"
   xmlns:svg="http://www.w3.org/2000/svg"
   xmlns="http://www.w3.org/2000/svg"
   xmlns:sodipodi="http://sodipodi.sourceforge.net/DTD/sodipodi-0.dtd"
   xmlns:inkscape="http://www.inkscape.org/namespaces/inkscape"
   width="482.39529"
   height="143.87587"
   viewBox="0 0 482.39529 143.87587"
   version="1.1"
   id="svg32"
   sodipodi:docname="jaguar.svg"
   style="fill:none"
   inkscape:version="0.92.5 (2060ec1f9f, 2020-04-08)">
  <metadata
     id="metadata38">
    <rdf:RDF>
      <cc:Work
         rdf:about="">
        <dc:format>image/svg+xml</dc:format>
        <dc:type
           rdf:resource="http://purl.org/dc/dcmitype/StillImage" />
        <dc:title />
      </cc:Work>
    </rdf:RDF>
  </metadata>
  <defs
     id="defs36" />
  <sodipodi:namedview
     pagecolor="#ffffff"
     bordercolor="#666666"
     borderopacity="1"
     objecttolerance="10"
     gridtolerance="10"
     guidetolerance="10"
     inkscape:pageopacity="0"
     inkscape:pageshadow="2"
     inkscape:window-width="1366"
     inkscape:window-height="740"
     id="namedview34"
     showgrid="false"
     inkscape:pagecheckerboard="true"
     inkscape:zoom="1.7994884"
     inkscape:cx="246.0648"
     inkscape:cy="14.382088"
     inkscape:window-x="0"
     inkscape:window-y="0"
     inkscape:window-maximized="1"
     inkscape:current-layer="svg32" />
  <path
     d="m 133.3526,65.272799 c 1.97576,-5.89511 3.74289,-11.86047 5.58648,-17.801 0.45476,-1.46486 0.88103,-2.937758 1.32112,-4.407693 0.0561,-0.31822 1.67785,-5.990184 2.29568,-8.541024 0.73912,-3.051585 1.53467,-6.115724 1.90283,-9.222038 0.22851,-1.923991 1.07625,-2.918006 2.73788,-3.429753 0.96904,-0.298473 1.50505,-0.793999 2.50937,-0.867066 0.82517,-0.06051 1.39926,-0.267158 1.78011,-1.02547 0.32161,-0.641518 1.15524,-1.039294 1.58687,-1.610849 0.31878,-0.424011 0.72361,-0.927719 1.1905,-1.069197 1.33156,-0.402289 2.75199,-0.529944 4.06944,-0.966368 1.66163,-0.549692 3.5828,-0.945915 4.79164,-2.060532 1.23706,-1.14005 2.38524,-1.760438 3.98199,-1.882338 1.47825,-0.113126 2.76468,-0.684624 3.24144,-2.233423 0.29622,-0.9597945 1.0297,-1.3918885 1.77165,-1.8692185 0.67848,-0.137247 1.05509,-0.409469 1.13832,-1.224005 0.0832,-0.813817 -2.97485,-0.359832 -3.17656,-0.564206 -0.94084,-0.956142 -0.85056,-1.145903 0.3879,-1.613755 0.80683,-0.304368 1.69266,-0.400709 2.54322,-0.591204 0.51485,-0.122619 1.03111,-0.245972 1.54596,-0.369324 1.22154,-0.15911 2.44026,-0.331367 3.66462,-0.474425 2.11864,-0.251078 4.24293,-0.465651 6.35735,-0.738635 0.4951,-0.06422 1.02547,-0.21604 1.43312,-0.48829 0.3752,-0.250344 0.88864,-1.131309 0.90134,-1.56193803 0.0127,-0.430628 -0.83646,-0.673679 -1.2427,-0.66054099568 C 183.98092,0.05743647 182.28403,0.17494847 180.6083,0.41215847 c -2.6067,0.370779 -5.20211,0.82549303 -7.79188,1.30283103 -2.15956,0.398523 -4.30501,0.879507 -6.45609,1.32328 -0.30186,0.03576 -4.18229,0.940076 -4.46017,1.019631 -0.83222,0.197801 -1.66303,0.395603 -2.49526,0.592671 l -0.18478,0.02624 c -0.81389,0.143791 -1.62637,0.288302 -2.44025,0.432094 -2.52489,0.523328 -5.04554,1.071468 -7.57607,1.562678 -1.37106,0.264944 -2.77596,0.607256 -4.13997,0.898479 -1.94656,0.416027 -3.85503,0.779512 -5.80794,1.161969 -4.31868,0.846654 -8.65344,1.6064615 -12.98242,2.4012925 -0.41597,0.01538 -15.3719,2.670637 -23.32839,2.904196 -1.8443,0.05402 -3.696773,0.02257 -5.546283,0.0071 -0.63941,-0.0056 -1.15101,0.101419 -1.3554,0.837176 -0.26208,0.942248 -0.0467,1.249607 1.04733,1.683774 0.492,0.196349 0.89782,0.610909 1.34299,0.926308 -0.51231,0.343752 -0.98964,0.769315 -1.54879,1.00135 -0.38169,0.159816 -0.88088,0.01411 -1.31745,0.07589 -0.34953,0.04965 -0.74378,0.131463 -1.01235,0.336557 -1.17076,0.891186 -0.81234,1.942892 0.90078,2.72462 2.27423,1.038588 2.40922,1.524664 0.99105,3.579271 -0.27365,0.187604 -0.82108,0.362794 -0.82038,0.56281 7.1e-4,0.198465 0.48904,0.467033 0.77736,0.549551 0.24459,0.0701 0.55321,-0.08252 0.83349,-0.137247 0.37295,0.41315 0.87511,0.769314 1.0912,1.251723 0.45843,1.024059 1.12478,1.43058 2.253213,1.342985 3.15089,-0.246 6.33605,-0.222585 9.45408,-0.674385 3.26034,-0.472252 6.42435,-1.505762 9.74239,-1.799157 2.70783,-0.238665 5.39084,-0.766352 8.08555,-1.164127 0.72771,-0.107343 1.14749,0.170112 1.12196,0.94662 -0.0336,1.0321 0.0598,2.130496 -0.12484,3.094043 -0.18393,0.961854 -0.74956,4.160983 -1.26202,6.417017 -0.67805,2.989662 -1.66487,6.35721 -1.68377,6.533952 -0.29932,1.030548 -0.59709,2.059686 -0.89556,3.090228 -1.00657,3.14511 -3.37573,11.00512 -3.56771,11.78755 -0.88244,3.59027 -4.70912,12.80357 -5.26248,13.99548 -1.27288,2.742113 -2.55225,5.499603 -4.09243,8.094313 -1.51888,2.55902 -3.35951,4.92747 -5.06528,7.37478 -1.31168,1.88082 -4.64791,5.17404 -4.69093,5.22298 -4.974163,5.67408 -10.621163,6.88278 -10.750373,6.92651 -3.699731,1.28092 -7.231608,1.25102 -10.858416,-0.58383 -1.633558,-0.827 -3.372062,-1.55541 -4.790229,-2.67214 -1.518176,-1.19558 -3.163301,-2.73407 -4.557348,-3.9779 -0.417523,-0.37295 -0.714585,-0.90797 -1.288961,-1.2094 -0.849574,-0.44376 -1.440031,-0.0605 -1.482347,0.92109 -0.01834,0.42711 0.01382,0.93068 0.222585,1.28176 1.596178,2.68076 3.372767,5.26023 6.055775,6.95204 2.604158,1.643008 6.535362,3.518058 9.148971,4.568348 2.613751,1.04959 4.698967,1.75755 6.717183,2.16915 2.018077,0.41089 5.429487,0.98752 8.279647,0.14162 2.850303,-0.84224 6.009233,-2.14432 10.411843,-5.73615 4.40261,-3.593088 13.23703,-13.678668 16.6397,-19.945318 1.46415,-2.69472 2.78456,-5.46828 4.11076,-8.23451 1.11011,-2.315143 2.34067,-4.604043 3.15301,-7.027373 z"
     id="path2"
     inkscape:connector-curvature="0"
     style="fill:#f50005;stroke-width:1.41055048" />
  <path
     d="m 264.64325,72.341782 -0.007,0.006 -0.007,0.007 z"
     id="path4"
     inkscape:connector-curvature="0"
     style="fill:#f50005;stroke-width:1.41055048" />
  <path
     d="m 188.59201,19.353176 c -0.44855,-0.113126 -0.8957,-0.226253 -1.34425,-0.339379 l -0.0508,-0.01269 c -0.0903,-1.238604 -0.14247,-2.480876 -0.28493,-3.713556 -0.0762,-0.668601 0.17208,-1.578787 -0.92391,-1.731324 l -0.008,0.01269 c -0.69681,-0.578791 -2.2061,-0.113831 -2.2061,-0.113831 0,0 -1.51352,0.28101 -1.82102,1.076588 -0.94225,0.121872 -1.88167,0.336417 -2.82392,0.346714 -3.18926,0.03639 -3.18079,0.01269 -4.34873,2.961027 -0.14952,0.375912 -0.45702,0.687644 -0.69258,1.029138 -0.26518,-0.306513 -0.69963,-0.581711 -0.76593,-0.926873 -0.22428,-1.152561 -0.96481,-1.376556 -1.94938,-1.292628 -0.97187,0.08322 -0.98315,0.798512 -1.18627,1.556824 -0.49087,1.833434 -0.9761,3.758835 -2.59824,4.976281 -1.95784,1.471487 -2.73928,3.562628 -3.3825,5.771973 -0.48523,1.671361 -0.66295,3.489561 -2.28227,4.626606 -0.2271,0.160661 -0.44291,1.250312 -0.37097,1.393341 -1.38093,1.843731 -5.61681,8.1046 -6.23604,9.345462 -0.67707,1.35822 -1.49096,2.71587 -1.80551,4.16832 -0.25813,1.19699 -0.59666,2.21146 -1.44158,3.06696 -1.64188,0.89838 -1.24693,2.5064 -1.36824,3.93402 -0.27646,0.44306 -0.55293,0.88978 -0.8294,1.33354 -0.20594,0.2941 -0.41188,0.59045 -0.61782,0.88526 -0.10297,0.11101 -0.20735,0.22414 -0.31173,0.335 -0.27929,0.32344 -0.31879,0.73208 -0.83787,0.97371 -0.51908,0.24092 -2.3401,0.89852 -3.54189,1.23931 -1.82384,0.51457 -2.21739,0.76423 -2.15814,1.74668 0.0804,1.34073 1.08189,1.38375 2.07492,1.44652 0.83222,0.0519 1.00431,0.56281 0.6954,1.22774 -0.96341,2.06477 -1.90989,4.14209 -2.96498,6.15946 -2.48793,4.757363 -7.68905,14.631783 -7.75478,14.835463 -0.47508,1.20137 -0.95029,2.40273 -1.42466,3.60494 -0.004,0.1539 -0.007,0.30793 -0.011,0.46196 -0.18972,0.26053 -0.37958,0.5219 -0.5693,0.78173 -0.1065,0.17293 -0.21313,0.34742 -0.31963,0.52035 -0.0315,0.1474 -0.0628,0.2941 -0.0942,0.4408 -0.52472,0.96354 -1.30278,1.87589 -1.50787,2.90432 -0.22851,1.14071 -0.64674,2.1209 -1.37444,2.92675 -1.54004,1.70648 -0.9802,3.564738 -0.55393,5.426668 0.13795,0.60216 0.66423,0.66634 0.98964,0.27731 0.55407,-0.66197 1.02773,-1.41379 1.41747,-2.18593 0.42415,-0.841528 0.66789,-1.775028 1.09049,-2.617408 0.12399,-0.24671 0.61599,-0.47141 0.89119,-0.42543 0.19705,0.0343 0.49849,0.59117 0.43205,0.8232 -0.2357,0.82842 -0.63573,1.609438 -0.91093,2.428408 -0.07,0.20791 -0.0394,0.68454 0.14458,0.74519 0.18393,0.0605 0.61824,-0.13584 0.70358,-0.31173 0.54306,-1.12252 1.00135,-2.285938 1.52622,-3.418048 0.9225,-1.98746 1.86192,-3.96689 2.82829,-5.9332 0.10072,-0.20424 0.48749,-0.45391 0.6473,-0.40059 0.20439,0.0685 0.35546,0.40863 0.45039,0.65901 0.0729,0.19493 0.0591,0.44093 0.0241,0.65393 -0.37958,2.28974 -0.77368,4.57498 -1.15171,6.86162 -0.0205,0.122718 0.0628,0.374498 0.10424,0.376618 0.19635,0.007 0.50371,0.0127 0.57085,-0.10213 0.21017,-0.356868 0.33712,-0.764938 0.48311,-1.158338 0.65548,-1.76559 0.79344,-3.78803 2.60303,-4.97628 0.32302,-0.21243 0.62487,-0.73716 0.62346,-1.11462 -0.008,-1.64583 3.82683,-9.85114 4.28385,-10.72836 l 0.008,-0.01 c 0.3611,-0.90571 4.68162,-9.78188 5.52936,-12.056823 0.10438,-0.28098 1.48108,-3.29688 1.57558,-3.41946 0.60795,-1.32916 1.2159,-2.65973 1.82384,-3.98819 0.91827,-0.45095 1.80692,-0.97215 2.75763,-1.34143 4.84242,-1.88097 16.21287,-6.54989 16.7785,-6.41349 0.006,0.14388 0.0113,1.23494 0.0155,1.38022 0.0113,0.29777 0.0226,0.59483 0.0339,0.8933 -0.008,2.05179 -0.055,4.10344 -0.0127,6.15438 0.0339,1.61889 0.44433,6.89011 0.32302,7.88568 -0.19184,1.564163 -0.2539,3.026763 0.45137,4.536893 0.65591,1.40209 0.93379,2.95751 0.49511,4.53408 l -0.031,0.046 c -0.008,0.5985 -0.0183,1.20052 -0.0268,1.80057 v 0.004 c 0.10579,1.08965 0.0987,2.17422 0.98315,3.06259 0.60795,0.61091 1.07202,0.80571 1.57982,0.0451 0.36533,-0.54659 0.58255,-0.46266 0.97187,-0.0284 0.98738,1.10573 1.5375,2.29328 1.25539,3.83839 -0.0917,0.50287 0.13823,1.11885 0.37379,1.60944 0.12977,0.27224 0.35123,0.77284 0.8816,0.58242 0.53177,-0.19198 0.48099,-0.69921 0.52472,-1.07146 0.0846,-0.7277 -0.0268,-1.47811 0.0465,-2.20793 0.0649,-0.64081 0.19465,-1.29771 0.4415,-1.88746 0.14388,-0.34375 0.53883,-0.65689 0.89429,-0.79343 0.12836,-0.0481 0.51908,0.42697 0.70245,0.71754 0.23133,0.36858 0.30468,0.84958 0.56846,1.18233 0.63756,0.80218 1.51775,0.65548 1.80973,-0.31667 0.1876,-0.62332 0.26942,-1.30504 0.25249,-1.95756 -0.0734,-2.72829 -0.31314,-5.45799 -0.28493,-8.18416 0.055,-5.464613 0.25108,-10.930643 0.37803,-16.395253 0.12554,-5.3931 0.21299,-10.7862 0.36533,-16.178449 0.0451,-1.615221 0.34841,-3.225365 0.36251,-4.839176 0.048,-5.25289 0.52049,-10.462053 1.35272,-15.64639 0.24684,-1.542296 -0.0198,-3.004896 -0.85056,-4.34647 z m -15.95897,28.957333 c -0.88582,0.36195 -1.8323,0.58171 -2.71954,0.94225 -0.37379,0.15177 -1.2173,0.7466 -1.2173,0.7466 0,0 -0.35264,0.41978 -0.45561,0.55689 -0.63898,0.3058 -1.27937,0.86861 -1.91835,0.8672 -1.59533,-0.007 -2.67863,0.67439 -3.49252,1.95023 -0.19889,0.31159 -0.34136,0.68087 -0.60231,0.92546 -0.18337,0.17153 -0.55575,0.29199 -0.78426,0.22767 -0.20453,-0.0598 -0.47536,-0.41823 -0.45702,-0.62037 0.0607,-0.64673 0.13118,-1.33057 0.39636,-1.91016 1.07343,-2.34138 2.15815,-4.68204 3.3557,-6.96079 1.88732,-3.589566 3.86773,-7.129484 5.80865,-10.689854 0.32019,-0.586084 0.55717,-1.209406 1.48954,-0.956777 0.31596,0.08534 0.77298,-0.21398 1.11857,-0.417522 0.33148,-0.195644 0.6023,-0.494822 0.89852,-0.747451 0.0748,0.42923 0.21158,0.85832 0.21299,1.288256 0.0155,4.073528 -0.0381,8.147621 0.0296,12.219598 0.0226,1.32183 -0.5346,2.11738 -1.66304,2.57877 z"
     id="path6"
     inkscape:connector-curvature="0"
     style="fill:#f50005;stroke-width:1.41055048" />
  <path
     d="m 272.89779,15.840341 c -0.44432,-0.167856 -0.88864,-0.337968 -1.33156,-0.505824 -0.003,-0.109458 -0.0367,-0.204388 -0.10579,-0.282533 -0.0197,-0.02186 1.32874,-1.654576 0.56281,-2.447954 -0.20594,-0.16203 -1.35836,-0.559819 -1.5643,-0.720396 -0.10438,-0.6452 -0.22569,-1.288228 -0.30891,-1.9356275 -0.13823,-1.043737 -0.77439,-1.302107 -1.70676,-1.128398 -0.30045,0.213853 -0.60231,0.426973 -0.90417,0.640827 l -0.13259,-0.0028 -1.40773,-0.110869 c -1.01277,0.300715 -0.60795,0.8393615 -1.61931,1.1407955 -0.23133,0.168604 -0.46125,0.337207 -0.69117,0.505076 -0.69258,0.587565 -1.17922,0.921837 -2.02696,2.096953 -0.84774,1.17434 -1.82243,3.09029 -2.41345,4.155256 -0.58961,1.064119 -3.01717,7.383385 -3.05667,7.46153 -0.19465,0.178011 -4.24857,9.148972 -5.58719,12.155419 -1.04239,2.338552 -2.41345,5.144136 -3.43187,7.962981 -1.01841,2.818702 -1.99734,7.118482 -2.22584,7.384092 -0.0762,0.19564 -0.15375,0.38987 -0.22992,0.58538 -0.10156,0.29931 -0.20171,0.59849 -0.30186,0.89781 -0.0409,0.2934 -0.079,0.58905 -0.1199,0.88315 -0.28775,1.61592 -0.7222,3.82597 -1.03111,4.81209 -0.31032,0.98612 -0.97469,2.09918 -1.35131,3.19461 -0.30609,2.09044 -0.66437,4.17636 -0.90416,6.27484 -0.18337,1.60789 -0.21582,3.233403 -0.31597,4.850743 0.0635,0.58608 0.12695,1.17076 0.19184,1.75825 0.2948,1.04593 0.36251,1.5423 0.88583,3.13777 0.52331,1.59477 2.728,3.09038 2.728,3.09038 2.60247,1.46119 6.98928,1.45752 8.96546,0.10283 1.97618,-1.35456 3.33313,-2.26041 4.1851,-3.00772 0.85197,-0.74675 5.15839,-4.1655 7.19522,-6.43832 2.03825,-2.273523 2.80417,-3.365433 3.40789,-3.966893 0.30468,1.04959 0.008,1.96123 -0.64462,2.79106 -0.13824,0.39848 -0.27788,0.796963 -0.41893,1.195583 -0.10862,1.81369 -0.30186,3.62667 -0.3075,5.43979 -0.01,2.43926 0.96481,7.5535 3.50945,7.99655 2.54463,0.44221 2.96215,0.45829 4.46439,-0.3044 1.16511,-0.59342 2.49808,-0.89852 3.78874,-1.19332 0.93237,-0.21173 1.24974,0.2357 0.84068,1.12392 -0.46407,1.00432 -1.00008,1.98028 -1.56006,2.93494 -2.23432,3.8209 -4.45311,7.64842 -6.73538,11.44379 -0.9084,1.509288 -0.39073,1.716638 0.83786,1.734128 0.22005,0.004 -0.22145,1.23198 -0.18478,1.64005 0.11567,1.30137 0.75182,1.69252 1.82949,0.93929 0.63192,-0.44151 1.11292,-1.14368 1.55865,-1.79832 0.45138,-0.66281 0.74054,-1.43791 1.19051,-2.10284 0.0832,-0.12554 0.76311,-0.0752 0.87736,0.0942 0.28493,0.41019 -0.15234,1.40054 0.79837,1.2269 0.44856,-0.081 0.80825,-0.73137 1.18063,-1.14664 0.24544,-0.2759 0.42317,-0.607238 0.66014,-0.891888 0.39637,-0.47959 0.77016,-0.6576 1.17922,0.0357 0.41752,0.713168 1.03111,0.556178 1.46415,0.0694 0.68553,-0.76932 1.3767,-1.56783 1.86334,-2.4648 1.2963,-2.39554 2.51501,-4.83551 3.70411,-7.28719 0.43021,-0.88822 0.89711,-1.5509 2.00016,-1.26258 0.92532,0.24219 1.32309,-0.1876 1.61931,-1.01898 0.41752,-1.18247 0.87736,-2.36479 1.47825,-3.46107 1.97619,-3.6151 4.02854,-7.18929 6.04421,-10.78253 1.62073,-2.888813 3.22734,-5.786503 4.83678,-8.680393 0.86749,-1.55908 1.54455,-3.24581 2.59259,-4.69981 1.37247,-1.90791 4.02571,-2.30639 4.85089,-2.2195 0.82376,0.0862 1.70394,-0.4116 2.08197,-0.79555 0.37944,-0.38254 0.47112,-0.33289 1.00854,-0.6796 0.53742,-0.34658 0.88301,-0.63348 1.14114,-0.82109 0.25531,-0.1876 4.20344,-1.74654 5.03425,-2.55817 1.60098,-1.56627 4.07508,-2.4765 6.28542,-2.65099 0.20876,1.01673 0.26236,2.11964 0.27364,3.15681 0.0212,2.32755 -0.0268,4.65877 -0.0451,6.98717 -0.0155,0.3058 -0.0324,0.61232 -0.0465,0.91742 -0.60372,1.49617 0.0381,2.84875 0.43162,4.25154 0.1862,0.66423 0.37944,1.50788 0.1326,2.08155 -0.8153,1.88026 -0.43022,3.7917 -0.39073,5.690863 0.0155,0.75253 0.30891,1.51959 1.3231,1.41747 0.83646,-0.0839 0.96482,0.35686 1.02124,1.04959 0.10861,1.32323 0.31032,2.63773 0.47535,3.95518 0.15517,1.24157 0.2807,2.48892 0.48947,3.72174 0.11002,0.65393 0.37943,1.1685 1.14677,1.4626 1.24693,0.47888 1.28501,0.68242 0.67001,1.93344 -0.3484,0.70795 -0.70809,1.33128 0.006,1.98605 1.18486,1.08387 1.23564,2.25674 0.34417,3.54712 -0.5346,0.77664 -0.44009,1.41464 0.57551,1.6423 0.86043,0.19339 0.91544,0.89781 1.00572,1.53059 0.0748,0.50215 -0.0254,1.02688 -0.0635,1.54145 -0.0465,0.69413 0.18196,1.17287 0.95354,1.18824 0.67565,0.0154 0.85197,-0.41822 0.88159,-1.01376 0.16362,-3.23919 0.29339,-6.47837 0.53178,-9.71037 0.10015,-1.38022 0.68552,-4.64494 0.70527,-4.91125 0.13683,-1.35187 0.54448,-4.67936 0.61359,-4.99251 0.13683,-3.54936 0.45702,-12.627533 0.65732,-15.966723 0.20171,-3.33849 1.25821,-18.998142 1.32874,-21.353338 -0.0804,-0.152621 1.95502,-14.880884 2.63914,-18.222196 0.68552,-3.342159 0.64321,-6.350722 0.5614,-6.695178 -0.0832,-0.344598 -1.54315,-0.745194 -2.35421,-0.878773 -1.6306,-0.266453 -3.288,-0.365756 -4.93552,-0.53285 -1.07343,-0.132874 -0.85338,-1.446618 -0.94366,-1.678724 -0.0889,-0.231373 -3.57856,-1.231298 -4.2782,-0.86636 -0.69822,0.364937 -0.86466,3.734122 -1.03393,5.291652 -0.43586,0.745194 -0.86749,1.491093 -1.30053,2.236287 -0.32019,0.290573 -0.64039,0.583262 -0.96058,0.8744 -0.12695,0.130617 -0.25672,0.260528 -0.38367,0.391287 -0.86044,0.538548 -1.71805,1.077942 -2.57849,1.616631 -1.22718,1.309414 -2.45295,2.618123 -3.68154,3.927537 -0.0818,0.0883 -0.7095,0.876516 -0.88864,1.114476 -0.66719,0.920384 -2.23572,2.91589 -2.24983,3.074295 -0.24544,0.337122 -0.49228,0.674384 -0.73913,1.0108 0,0 -0.55435,0.213135 -0.63757,0.366462 -1.05227,1.91595 -2.07915,3.847135 -3.11026,5.775499 0,0 -0.74336,0.359126 -1.13973,0.551807 -0.34276,0.264901 -0.68552,0.530649 -1.02688,0.794845 -0.13682,0.04598 -2.2597,2.823217 -3.39378,4.009208 -0.23133,0.244448 -0.65309,1.11377 -0.64885,1.253274 -1.52058,0.631221 -1.33015,3.023799 -1.55302,3.307739 -0.22287,0.28394 -1.24975,0.76127 -1.51634,1.25976 -0.77298,1.44511 -1.70254,4.00639 -2.058,4.47272 -0.35263,0.46788 -0.89005,0.93421 -1.22859,1.25102 -0.22568,0.0906 -0.44855,0.18026 -0.67565,0.27082 -0.97328,0.10071 -1.42466,1.35173 -1.5516,1.61367 -0.12836,0.26349 -0.46549,0.31314 -0.69682,0.46929 -0.16644,0.11468 -0.33571,0.22851 -0.50356,0.3453 l 0.0282,-0.0269 c -0.34136,0.14882 -0.6813,0.29706 -1.01983,0.44517 -2.13557,1.29263 -4.27256,2.57355 -6.39261,3.89679 -0.17914,0.11312 -0.34841,0.57734 -0.25955,0.74308 0.74477,1.43128 0.2807,2.56113 -0.7758,3.58731 -0.0903,0.0869 -0.15657,0.35983 -0.12413,0.38099 0.16927,0.11242 0.41047,0.28169 0.56281,0.23133 0.90981,-0.29988 1.7914,-0.6875 2.70544,-0.97511 0.31878,-0.0992 0.92673,-0.11384 1.00995,0.0432 0.1735,0.3233 0.18619,0.81741 0.0762,1.1874 -0.11425,0.4044 -0.43868,0.75112 -0.67988,1.11828 -0.84492,1.29108 -3.03692,4.18877 -3.19913,4.412063 -1.21025,1.66121 -2.38242,3.35232 -3.59832,5.00845 -0.71515,0.9737 -1.50082,1.48827 -2.61657,0.63573 -0.80683,-0.61754 -1.57417,-1.28755 -2.35985,-1.93132 -0.0536,-0.45096 -0.10861,-0.90064 -0.16503,-1.35315 0.31596,-1.71889 0.40483,-3.433283 1.21871,-5.106193 1.14396,-2.34885 1.84077,-4.91647 2.70544,-7.39961 0.94366,-2.70783 1.86475,-5.4237 2.79007,-8.13661 0.47112,-1.38531 0.93378,-2.77724 1.38375,-4.17199 1.56148,-3.11153 3.14129,-6.212063 4.66751,-9.33883 0.80401,-1.64301 1.50929,-3.332567 2.2597,-5.002518 0.12695,-0.03653 0.17773,-0.11905 0.15657,-0.248257 1.3767,-2.662555 2.86624,-5.276305 4.06944,-8.014042 0.4415,-1.006569 0.38085,-2.338552 0.20312,-3.466992 -0.0832,-0.534176 -0.96341,-0.968484 -1.52339,-1.399125 -0.59385,-0.458288 -0.58679,-0.86495 -0.18338,-1.492645 0.81812,-1.281626 0.69823,-2.072099 -0.18196,-3.129729 -0.69963,-0.841535 -1.62072,-0.96919 -2.60246,-0.929835 -1.23706,0.04754 -2.41345,0.03216 -3.66884,-0.324004 -1.03253,-0.293394 -2.49527,-0.764236 -3.41918,0.592573 l -0.0889,0.08915 c -0.34982,0.624733 -5.84815,10.173032 -6.15141,10.664891 l -1.55584,2.386792 c -0.39778,0.596945 0.51626,1.553157 0.31878,2.030487 -0.19747,0.478036 -0.67988,-0.232035 -1.43594,0.52402 -0.048,0.01537 -0.66719,2.202857 -1.1764,4.209224 -0.0437,0.170112 0.62206,0.346713 0.57692,0.524019 -0.0381,0.144582 -0.78427,0.764942 -0.82235,0.913896 -0.37944,1.492644 -0.80402,2.699088 -1.20743,4.252951 -0.0748,0.284649 0.0889,0.328517 0.0155,0.602164 -0.0705,0.27012 -0.37661,0.06065 -0.44432,0.316809 -0.38508,1.447366 -0.72361,3.355991 -0.94084,3.971971 -0.0621,0.17731 0.11426,0.35405 0.0522,0.53206 -0.086,0.2453 -0.40906,0.4913 -0.4951,0.738 -1.02265,2.95454 -1.99452,5.92079 -2.8874,8.91764 -0.0804,0.20073 -0.16221,0.40356 -0.24402,0.60428 -0.72221,0.97004 -1.44582,1.94008 -2.16943,2.91011 -0.41611,0.36928 -0.83364,0.73715 -1.24834,1.10503 0.001,0.081 0,0.16122 -0.007,0.2357 0.007,-0.0759 0.008,-0.15474 0.007,-0.2357 -0.3216,0.36787 -0.6418,0.73489 -0.95494,1.10347 -0.21017,0.17082 -0.42317,0.34305 -0.63475,0.51457 -0.14387,0.0358 -0.23274,0.12709 -0.26236,0.27449 -0.16645,0.17294 -0.33289,0.34672 -0.50216,0.52035 -0.001,-0.0182 0.003,-0.0327 -0.001,-0.0511 -0.49369,0.49708 -0.98879,0.99261 -1.48531,1.48898 0.11849,-0.004 0.22992,-0.0141 0.33995,-0.0285 -0.10862,0.0154 -0.22146,0.0241 -0.33995,0.0285 -0.20312,0.18027 -0.40623,0.35983 -0.61076,0.53939 -0.24826,0.25912 -0.49652,0.51895 -0.74336,0.77736 -0.1326,0.0488 -0.78286,0.66705 -1.06779,0.85832 -0.13118,0.0656 -0.27365,0.11453 -0.3879,0.20001 -3.28235,2.47721 -6.56188,4.956543 -9.84141,7.437413 -0.26096,0.0862 -0.25531,0.1065 -0.78004,0.26124 -0.52613,0.15473 -2.02978,-0.0612 -2.07774,-0.70133 -0.048,-0.64011 0.49369,-4.315013 1.06779,-6.470483 1.15806,-4.3435 2.6871,-8.50011 4.73381,-12.48591 0.79414,-1.54525 1.57276,-3.66404 2.25688,-4.69896 0.68552,-1.03507 2.06504,-2.87724 2.55591,-3.86336 0.49087,-0.98753 0.75465,-2.854536 1.41338,-4.135457 1.20602,-2.345886 2.57566,-4.613628 3.98903,-6.844837 0.91545,-1.448777 1.68702,-2.865533 1.86334,-4.642686 0.11566,-1.195583 0.61077,-2.393986 0.88724,-2.801353 0.27646,-0.407932 0.97045,-1.003607 1.10587,-1.268508 0.89711,-1.756136 1.72933,-3.546406 2.58271,-5.325252 0,0 1.77307,-2.844939 2.45859,-4.356626 0.69541,-1.535666 0.62488,-1.568532 -1.10305,-2.366198 z m -4.48837,46.431938 c -0.004,0.0154 -0.006,0.0343 -0.008,0.0489 0.003,-0.0147 0.004,-0.0329 0.008,-0.0489 z m 13.70209,-34.938491 0.0734,0.09987 -0.0705,-0.08745 c -0.003,-0.0042 -0.003,-0.0085 -0.003,-0.0127 z m 44.36604,7.419214 c -0.42034,1.135634 -0.80542,2.169144 -0.70386,3.393925 0.0466,0.561258 -0.14247,1.155382 -0.29198,1.715935 -0.19607,0.731371 -0.66578,1.098396 -1.47544,1.02547 -2.12993,-0.194232 -3.60396,0.965663 -4.93693,2.425301 -0.29198,0.319772 -0.63192,0.666485 -1.02124,0.811631 -0.81247,0.302986 -1.67291,0.479587 -2.51078,0.708096 0.17914,-0.753234 0.27224,-1.541591 0.56281,-2.251662 0.41047,-1.010941 0.84069,-2.052492 1.47685,-2.925482 2.3796,-3.268386 4.84665,-6.472452 7.2996,-9.683993 1.0833,-1.418167 0.89711,-0.02116 1.41055,0.101419 0.14247,0.03442 0.53883,-0.6765 0.67847,-0.632068 0.18056,0.0591 0.23839,0.240217 0.3202,0.391992 0.0748,0.141619 0.13541,0.290432 0.17914,0.444464 0.1072,0.364205 0.13682,0.751824 0.11708,1.129146 -0.0395,0.77002 -0.33289,1.47868 -0.62347,2.182404 -0.16221,0.387478 -0.33712,0.77143 -0.481,1.163422 z"
     id="path8"
     inkscape:connector-curvature="0"
     style="fill:#f50005;stroke-width:1.41055048" />
  <path
     d="m 380.36058,58.097469 c 0.67284,0.22188 2.21316,0.62474 3.33031,0.9036 1.38516,0.34813 2.60247,0.92758 3.58562,2.03119 1.26527,1.42254 2.63491,2.75241 3.94954,4.13405 0.29622,0.31088 0.63334,0.6284 0.80261,1.01094 1.12138,2.53546 2.53617,4.74847 5.36855,5.695943 0.59384,0.19776 1.07907,0.73715 1.59675,1.14071 0.3879,0.30666 0.71373,0.70217 1.12985,0.96933 1.72792,1.11815 3.51227,2.15462 5.20916,3.31875 1.20461,0.82545 2.30202,1.80945 3.44738,2.72095 0.15799,0.12116 0.31456,0.24022 0.47113,0.35983 1.0297,0.90952 2.06081,1.8189 3.09193,2.72913 6.1105,6.0988 11.99673,12.46334 19.58549,16.84635 0.59243,0.364198 1.18627,0.728408 1.77729,1.093318 0.41188,0.24515 0.81671,0.48974 1.22577,0.73489 0.34559,0.25912 0.68694,0.51753 1.0297,0.77665 1.76601,1.3255 3.57434,2.60204 5.28957,3.98946 2.86624,2.31965 5.66477,4.72097 8.51267,7.06023 0.85479,0.70133 9.00354,6.19584 9.91194,6.82721 0.0874,0.0614 2.50514,0.71825 0.59807,-0.89697 -1.22718,-1.04155 -7.05275,-4.59092 -7.10917,-4.63987 -1.66586,-1.44299 -3.81131,-2.61445 -5.45883,-4.0786 -2.20187,-1.9546 -4.36566,-3.94644 -6.54355,-5.92954 -2.60105,-2.36986 -4.80151,-5.211268 -8.07822,-6.782768 -0.38085,-0.18097 -0.75464,-0.52331 -0.95917,-0.88822 -1.54597,-2.77357 -4.04264,-4.67414 -6.32209,-6.73453 -1.56571,-1.41747 -3.5433,-2.37283 -5.2402,-3.66179 -2.16942,-1.64527 -4.24152,-3.41805 -6.35594,-5.13328 -0.19042,-0.19931 -0.38085,-0.40003 -0.57409,-0.5992 -0.94084,-0.85832 -1.88027,-1.71678 -2.8211,-2.57285 -1.65035,-1.21815 -3.28517,-2.4583 -4.9595,-3.64359 -0.71374,-0.50582 -1.52339,-0.88089 -2.26534,-1.35399 -0.24826,-0.15911 -0.81248,-0.42909 -0.14529,-0.74082 1.07061,-0.50215 0.41752,-0.79117 -0.0748,-1.166953 -2.98331,-2.281 -5.8961,-4.62096 -8.38713,-7.47761 -0.93096,-1.06722 -2.35844,-1.69844 -3.55318,-2.53927 -0.41188,-0.29128 -0.86184,-0.56648 -1.19191,-0.93872 -1.65176,-1.86108 -2.58836,-4.30401 -4.72958,-5.77409 -0.2144,-0.14881 -0.3343,-0.49115 -0.41188,-0.76847 -0.0719,-0.2467 -0.0197,-0.52698 -0.024,-0.79188 0.26236,0.0255 0.61923,-0.0496 0.77721,0.0927 0.77581,0.68243 1.47685,1.4437 2.24137,2.13628 0.42175,0.3817 0.88441,0.90727 1.38516,0.97808 0.97469,0.13795 1.61649,0.44009 1.99311,1.42324 0.15798,0.40511 0.77721,0.64237 1.2032,0.92913 1.22012,0.82264 2.48116,1.58462 3.66038,2.46339 0.66154,0.49553 1.16088,1.15101 2.11582,0.55688 0.18619,-0.11538 0.71938,0.0642 0.91686,0.2745 2.39793,2.59386 4.75214,5.22947 7.14303,7.8294 1.08048,1.17146 1.96207,2.544353 3.51227,3.250053 0.83645,0.38028 1.66586,0.89711 2.3133,1.53792 1.14678,1.13719 2.22162,2.36479 3.20477,3.65008 1.12139,1.46923 2.49385,2.48455 4.29372,2.91364 0.47676,0.34897 0.95635,0.69709 1.43312,1.04677 0.64462,0.48311 1.28924,0.96777 1.93245,1.44948 1.70536,1.27076 3.41212,2.54068 5.11607,3.81286 0.29903,0.25404 0.59807,0.50582 0.89852,0.75986 0.16644,0.13795 0.33148,0.27802 0.49933,0.41668 0.27506,0.21835 0.55153,0.43656 0.82659,0.65407 0.14387,0.0883 0.28775,0.17589 0.43162,0.26349 2.06505,1.65458 4.15266,3.2808 6.18527,4.96895 2.72377,2.26195 5.38407,4.59966 8.11772,6.844828 2.03965,1.67658 4.33744,3.04073 6.07665,5.08208 0.23274,0.27237 0.5755,0.56577 0.90275,0.61753 0.53883,0.081 1.30335,0.18972 1.62354,-0.10141 0.54306,-0.49271 0.0395,-1.03577 -0.40341,-1.47657 -0.7744,-0.78102 -1.73921,-1.48672 -2.20469,-2.43193 -0.44292,-0.90219 -1.01842,-1.41817 -1.86898,-1.70648 -3.47983,-1.18247 -5.94971,-3.747978 -8.53948,-6.152118 -2.21033,-2.05179 -4.42066,-4.10273 -6.63099,-6.15508 -0.62206,-0.58326 -1.24129,-1.16709 -1.86334,-1.7488 -0.14247,-0.13865 -0.28493,-0.27886 -0.42599,-0.41752 -0.34276,-0.34375 -0.68412,-0.68821 -1.02406,-1.03351 -0.2412,-0.26857 -0.48241,-0.53798 -0.7222,-0.80655 -0.86749,-0.77947 -1.68138,-1.63201 -2.61375,-2.32092 -1.41478,-1.04155 -2.99601,-1.86856 -4.35719,-2.96921 -1.3499,-1.09332 -2.73788,-2.26041 -3.70552,-3.66983 -1.17357,-1.71297 -2.35703,-3.16767 -4.48978,-3.6048 -0.41047,-0.0841 -0.75605,-0.44306 -1.14396,-0.65408 -2.05517,-1.120403 -3.41917,-2.993893 -4.92987,-4.672593 -1.46838,-1.632 -2.71954,-3.45965 -4.06521,-5.20112 -0.16785,-0.16503 -0.3343,-0.32993 -0.50215,-0.49496 -0.74054,-0.99035 -1.37106,-2.09622 -2.24842,-2.9465 -1.20602,-1.1692 -2.59823,-2.14587 -3.91287,-3.20124 -1.20179,-0.9627 -1.21589,-1.47064 0.10438,-2.30781 0.73631,-0.46943 1.63906,-0.67297 2.3796,-1.14014 4.56031,-2.87936 8.94289,-5.97622 12.08842,-10.49196 0.94507,-1.548079 2.06646,-3.018155 2.79712,-4.661023 1.33861,-3.005601 1.52199,-6.169748 1.26527,-9.484119 -0.25813,-3.328899 -1.45992,-6.063815 -3.55036,-8.529316 -0.0183,-0.145992 -1.09741,-1.201366 -1.20884,-1.321122 -0.41752,-0.418933 -1.38234,-1.238604 -4.08354,-3.304073 -2.6998,-2.066344 -6.53226,-4.112926 -9.89784,-4.5523115 -3.36416,-0.44084 -8.00628,0.243785 -10.02901,0.4277065 -0.33994,0.03061 -0.76875,0.213134 -0.96623,0.470052 -0.94084,1.224005 -2.36831,1.417419 -3.68577,1.85462 -1.09741,-0.02412 -2.19763,-0.09775 -3.29363,-0.06136 -1.14396,0.03935 -2.28792,0.183202 -3.43046,0.282462 -0.41188,0.02483 -1.49236,0.163497 -1.62072,0.206561 -0.52614,0.08689 -2.39794,0.532088 -2.73788,0.645214 -2.01004,0.915321 -7.70584,3.058934 -8.88506,3.523146 -1.17781,0.464918 -1.67291,0.456173 -3.29787,0.800629 -0.69399,0.148249 -1.49659,0.660561 -2.21879,1.102909 l -0.23556,0.175896 c -0.78286,0.399891 -1.56572,0.800628 -2.35139,1.200661 -0.42458,0.256861 -0.84915,0.512312 -1.27373,0.769314 -0.75182,0.325414 -1.50506,0.652521 -2.25688,0.97864 -0.27788,0.115383 -0.91263,0.23796 -1.30617,0.473098 -0.39495,0.236409 -1.43171,1.231975 -1.55302,1.750917 -0.11989,0.519647 -0.19747,0.875105 -0.29621,1.313786 -0.10156,0.349535 -0.20312,0.699916 -0.30609,1.049591 0,0 -0.0733,0.167856 -0.0733,0.169266 -0.23415,0.54673 -1.07625,0.787511 -1.56712,0.995567 -0.67424,0.286906 -1.53468,0.530649 -2.11301,0.991899 -0.53177,0.424858 -0.6291,1.109398 -0.87031,1.707894 -0.18478,0.454057 -0.13682,1.165679 0.0663,1.605771 0.19607,0.429231 1.03817,1.222524 1.49377,1.291923 0.5205,0.07885 1.30899,0.132028 1.56007,0.236409 0.25108,0.10438 1.00996,0.942388 0.96341,1.292628 -0.048,0.350381 0.22851,1.251017 0.94225,1.500685 0.51061,0.08393 1.02406,0.167855 1.53609,0.25404 0.51767,0.02186 1.03534,0.04373 1.55301,0.06559 0.12272,0.139504 0.24544,0.278866 0.36957,0.418229 0.22286,0.680308 0.58678,1.151009 1.4049,0.94521 0.59667,0.0014 1.72088,0.240216 2.90856,-0.0071 1.18768,-0.247411 1.77306,-0.653931 2.60105,-1.090356 0.88865,-0.46929 1.70677,-1.069338 2.55451,-1.6124 0.49228,-0.393403 1.0565,-0.563374 1.01137,0.303691 -0.0931,1.769254 -0.53037,3.473481 -1.51211,4.991657 -0.0677,0.159815 -0.13401,0.31963 -0.19889,0.479587 -0.4542,2.380868 -5.76069,15.585732 -6.46879,18.244762 -0.7095,2.6603 -1.39785,5.4113 -1.59956,5.88496 -0.0451,0.19339 -0.0875,0.38536 -0.134,0.57804 -0.28776,0.91094 -0.63475,1.80861 -0.83646,2.73562 -0.13118,0.60795 -0.47394,2.08085 -0.0127,1.86264 1.45286,-0.68102 0.51485,0.88469 -0.7885,1.769253 -0.78286,0.0511 -2.91702,4.84792 -3.17656,7.33825 -0.1608,1.5327 -1.18769,3.77421 -0.79696,4.39753 0.0804,0.12695 0.35828,0.39411 0.20171,0.45899 -1.05933,0.42853 -1.81538,4.78515 -1.81538,4.78515 0,0 0.34981,0.19043 0.17491,0.36632 -0.17491,0.1759 -0.19607,0.22047 -0.31738,0.32711 -0.21299,0.21088 -1.39785,2.66552 -1.6179,3.23185 -0.0931,0.16349 -1.20038,2.41148 -1.3372,2.67723 -0.77298,1.08894 -1.03394,3.88212 -0.74477,5.254298 0.19183,0.90656 0.38226,-0.17223 0.40059,0.75986 0.004,0.22118 -0.0522,0.35109 -0.0508,0.56197 10e-4,0.44093 0.26801,2.99544 0.6418,3.16696 0.69682,0.31978 0.74619,-0.43205 0.97328,-0.84957 0.0677,-0.12554 0.18055,-0.22484 0.27365,-0.33642 -0.0423,-0.15995 0.63193,-0.87665 0.7758,-0.95395 0.1467,0.0474 -0.65026,2.26337 -0.10015,2.113 0.55012,-0.14825 2.17366,-5.601858 2.35845,-6.003298 0.31878,-0.60724 0.63615,-1.21307 0.95494,-1.81961 0.27364,-0.0817 0.54729,-0.16489 0.81953,-0.24812 0.2807,0.0839 0.56281,0.16786 0.83928,0.25108 0.0973,0.14811 0.19183,0.29706 0.28916,0.44517 0.007,0.43219 -0.0423,0.8737 0.0409,1.29051 0.0423,0.21455 0.31174,0.38466 0.47536,0.575088 0.1735,-0.193388 0.34841,-0.383958 0.52331,-0.578748 0.13683,-0.33064 0.26519,-0.66197 0.40624,-0.9912 1.47544,-3.48956 2.9537,-6.97912 4.42631,-10.46727 0.32019,-0.76339 0.51062,-1.57572 0.84774,-2.33333 0.055,-0.12484 1.20743,-1.95827 1.40773,-1.64668 0.15375,0.23585 0.41188,0.46139 0.43586,0.70951 0.0395,0.42768 -0.13823,0.87948 -0.0846,1.30208 0.0395,0.30581 0.27505,0.78102 0.48664,0.81896 0.26236,0.046 0.67706,-0.21384 0.87172,-0.4635 0.31455,-0.39707 0.60089,-0.86707 0.73066,-1.35244 0.29199,-1.11024 2.17084,-10.8862 4.38964,-20.427873 2.17365,-9.35633 5.15274,-19.36884 5.45742,-19.36954 0.6827,-7.1e-4 1.00431,-0.32697 1.13126,-0.942248 0.30185,-1.338612 0.60653,-2.67793 0.9098,-4.016542 0.15798,-0.543767 0.31597,-1.087535 0.47113,-1.631302 0.15516,-0.348124 0.31032,-0.695542 0.46548,-1.044513 0.45419,-0.840829 0.87736,-1.702816 1.37387,-2.517973 0.39637,-0.651816 0.85762,-0.892032 1.15666,0.09479 0.22286,0.737153 0.71514,0.864244 1.04944,0.224136 0.73772,-1.418872 1.55443,-2.866944 1.8972,-4.401199 0.25248,-1.126184 0.78003,-1.675029 1.67855,-2.096219 5.33752,-2.499073 10.57067,-2.272821 15.68814,0.637991 2.11301,1.203482 3.01858,2.882178 2.51078,4.901805 -0.46548,1.858259 -1.15665,3.625255 -2.36408,5.185747 -1.66868,2.159694 -3.24427,4.394711 -4.80716,6.633957 -1.29206,1.84951 -4.4799,2.15673 -6.12037,0.56196 -0.79414,-0.77227 -1.60662,-1.53496 -2.48257,-2.204966 -0.75606,-0.578749 -1.80974,-0.357574 -2.05659,0.424856 -0.23838,0.74957 -0.46407,1.58743 0.33713,2.23925 0.80683,0.65393 1.67432,1.26047 2.34151,2.03711 0.37803,0.43855 0.62205,1.21957 0.51344,1.76474 -0.0748,0.38099 -0.8294,0.84676 -1.3104,0.88611 -0.93943,0.0759 -1.90142,-0.16348 -2.85637,-0.18393 -0.4824,-0.0113 -1.19896,0.007 -1.41196,0.29932 -0.47535,0.65252 -1.21589,1.52466 -1.25539,2.36478 -0.055,1.07357 2.59259,3.39534 3.17938,3.58957 z"
     id="path10"
     inkscape:connector-curvature="0"
     style="fill:#f50005;stroke-width:1.41055048" />
  <path
     d="m 453.37773,121.05387 c -2.33587,-1.39546 -4.70701,-2.73407 -7.0457,-4.12459 -1.49659,-0.89034 -3.1554,-1.62609 -4.40092,-2.79388 -5.69862,-5.34937 -11.23926,-10.86801 -16.91955,-16.237688 -2.18212,-2.06265 -4.44041,-4.06761 -7.43783,-5.00337 -1.3231,-0.41371 -2.5799,-1.0998 -3.78733,-1.80423 -0.73067,-0.42627 -1.49942,-1.00939 -1.91271,-1.71805 -1.60238,-2.75537 -4.2246,-4.41065 -6.57175,-6.37118 -2.76468,-2.10129 -4.43759,-5.38576 -7.62826,-7.03159 -0.25249,-0.13076 -0.47394,-0.36209 -0.65167,-0.59271 -2.10172,-2.7407 -4.35578,-5.330333 -6.9512,-7.631653 -2.67299,-2.37127 -4.90448,-5.22961 -8.01192,-7.1316 -0.73208,-0.44743 -1.29771,-1.18387 -1.89014,-1.83569 -0.0649,-0.0722 -1.36118,-1.31661 -2.18777,-1.78308 -0.82799,-0.46788 -2.7548,-0.95691 -4.15125,-1.38389 -1.7251,-0.53051 -2.44166,-0.0329 -2.70684,1.80946 -0.0959,0.65534 -0.14529,1.32464 -0.14247,1.98887 0.006,1.37515 0.23274,1.58532 1.66727,1.78096 0.57692,0.0789 1.32874,0.0182 1.68561,0.35546 0.88865,0.84436 1.87744,0.81234 2.90009,0.6473 1.02265,-0.16489 1.59957,0.24671 2.2188,1.04014 1.17217,1.49773 2.33869,3.09391 3.83105,4.21797 1.91271,1.44074 3.41495,3.22974 5.0794,4.884323 1.92681,1.91665 3.5433,4.13263 6.11191,5.39084 0.95918,0.47154 1.56007,1.67954 2.32318,2.55394 0.76875,0.88089 1.40914,1.93119 2.32459,2.60783 1.47543,1.0912 3.1286,1.9364 4.70559,2.88669 0.56986,0.45546 1.15383,0.89556 1.70818,1.36992 1.16934,1.00587 2.49244,1.8948 3.42764,3.0853 0.81388,1.03196 1.59956,1.72313 2.89162,2.12683 1.30617,0.40948 2.59824,1.1393 3.65051,2.01963 3.2894,2.74577 6.47443,5.61413 9.67779,8.463578 2.20046,1.95897 4.25422,4.09469 7.27985,4.85229 0.65731,0.1649 1.22153,0.77369 1.78434,1.22986 1.24834,1.01377 2.46847,2.05828 3.69847,3.08953 0.35122,0.26857 0.70386,0.53799 1.05368,0.80726 0.0959,0.11087 0.17632,0.24233 0.28916,0.3336 3.53343,2.89825 7.59158,5.08644 10.9501,8.23521 0.63898,0.59779 1.96349,0.32908 2.65748,0.97653 10.74134,10.05116 10.96985,7.75351 11.33942,7.58199 -0.20171,-0.28239 -10.58336,-8.72863 -10.85842,-8.89211 z"
     id="path12"
     inkscape:connector-curvature="0"
     style="fill:#f50005;stroke-width:1.41055048" />
  <path
     d="m 436.5555,119.08319 c -0.35122,-1.06116 -1.08894,-1.53482 -1.82525,-2.05306 -0.95635,-0.67227 -2.03542,-1.16272 -3.0482,-1.75543 -1.44722,-0.85098 -2.9819,-1.57657 -3.59549,-3.37714 -0.16504,-0.48311 -0.7617,-1.07145 -1.23564,-1.15171 -2.0312,-0.34968 -3.11873,-2.52023 -5.25995,-2.62546 -0.26518,-0.0127 -0.50074,-0.50131 -0.76028,-0.75606 -0.52332,-0.51612 -1.096,-0.98752 -1.57136,-1.54229 -1.06778,-1.25031 -2.89586,-1.7481 -3.4502,-3.53555 -0.079,-0.2539 -0.70669,-0.39044 -1.10305,-0.47803 -2.12288,-0.47155 -3.84657,-1.51155 -4.64212,-3.604948 -0.5741,-1.50929 -1.67997,-2.5356 -2.70826,-3.67928 -0.87313,-0.96848 -1.83936,-1.40646 -3.11591,-1.24227 -1.05227,0.13584 -1.85064,-0.1773 -2.3528,-1.21223 -0.21299,-0.44093 -0.68129,-0.75845 -1.03252,-1.13281 -0.48382,-0.55406 -0.96623,-1.10728 -1.45004,-1.65979 -0.12272,-0.16715 -0.24403,-0.33571 -0.36675,-0.50286 -0.008,-0.14459 -0.0649,-0.26646 -0.16926,-0.36717 -0.20453,-1.28022 -0.81812,-2.28298 -1.97336,-2.91871 -1.81256,-1.50365 -3.72668,-2.89911 -5.40946,-4.53619 -2.26958,-2.21005 -4.45734,-4.50191 -5.20776,-7.81191 -0.22569,-0.98753 -1.02406,-1.985353 -1.82243,-2.667783 -1.33579,-1.14 -2.81264,-2.15898 -4.35719,-2.99544 -2.31612,-1.25539 -4.56313,-2.72236 -7.23894,-3.1815 -0.84492,-0.14373 -1.70818,-0.481 -2.29497,0.43572 -0.37944,0.59116 0.0917,0.99924 0.58397,1.35399 0.29339,0.21017 0.65167,0.46125 0.98315,0.46492 1.55302,0.0175 2.21598,1.07004 2.61516,2.29256 0.5473,1.67503 1.59816,2.44505 3.35429,2.68442 1.43594,0.197903 2.97626,0.718963 3.48406,2.324033 0.89147,2.80558 2.80277,4.79008 5.02438,6.50461 2.05376,1.58828 3.84657,3.39392 5.37138,5.48365 0.29904,0.41019 0.58256,0.85832 0.96905,1.17062 1.52903,1.24227 3.09757,2.43856 4.65058,3.65093 0.15798,0.14528 0.31314,0.29043 0.46971,0.43642 0.44715,0.44672 0.89711,0.89556 1.34426,1.34299 1.17499,2.14728 2.97626,3.45161 5.36009,3.97056 0.30891,0.12046 0.61923,0.24092 0.92814,0.36053 0.53178,0.45773 1.11857,0.86707 1.58969,1.38319 0.82941,0.90797 1.53609,1.928358 2.38666,2.812208 0.60653,0.63137 1.35694,1.12322 2.05376,1.66699 2.38524,1.86785 4.72957,3.79396 7.17406,5.58 2.48821,1.81876 5.09632,3.47785 7.6212,5.24922 1.14255,0.80218 2.26535,1.65035 3.29364,2.58822 1.74203,1.58814 3.44879,3.18516 5.58578,4.2624 0.87172,0.44023 1.6052,1.15101 2.40075,1.74006 0.13824,0.0168 10.34639,6.91268 11.31967,7.74547 0.56986,0.48833 4.71406,3.13918 8.48587,6.0514 2.67441,2.06561 4.96373,4.43407 6.53932,5.49494 7.13033,4.7987 4.43477,1.29207 4.66186,1.32169 -0.20453,-0.31173 -26.43794,-19.37419 -26.64106,-19.68508 -0.72079,-0.73574 -5.32906,-3.02605 -5.61823,-3.89904 z"
     id="path14"
     inkscape:connector-curvature="0"
     style="fill:#f50005;stroke-width:1.41055048" />
  <path
     d="m 358.7044,88.574252 c -0.55858,0 -1.14395,0.40511 -1.6574,0.74082 -0.20311,0.13287 -0.28352,0.5109 -0.34699,0.79344 -0.1876,0.8569 -0.33007,1.72327 -0.5078,2.58229 -0.24685,1.18458 -0.0748,2.50274 -1.30758,3.34794 -0.55576,0.3817 -0.22569,0.93209 0.1467,1.33128 0.46548,0.49637 1.01559,0.37958 1.31604,-0.10001 0.57833,-0.92758 1.10164,-1.90706 1.5234,-2.9173 0.58537,-1.40209 1.38657,-3.56841 1.62918,-4.44563 0.24544,-0.87807 -0.52895,-1.33283 -0.79555,-1.33283 z"
     id="path16"
     inkscape:connector-curvature="0"
     style="fill:#f50005;stroke-width:1.41055048" />
  <path
     d="m 210.18754,85.591222 c 3.16245,1.31449 6.73679,1.70493 10.26458,0.97652 1.45286,-0.29918 1.78716,-0.39918 4.1456,-1.78519 2.35703,-1.38685 3.96788,-4.72535 4.45029,-4.89898 0.481,-0.17449 1.98888,-0.25842 2.45154,0.13216 0.27364,0.22837 0.99867,1.17358 1.91129,1.88083 0.91122,0.70796 0.007,0.64082 0.69823,1.6007 0.68975,0.95973 1.67573,-0.092 1.69266,0.38747 0.0183,0.47804 0.3752,0.86354 1.15806,0.86058 0.78426,-0.003 0.62064,-3.05088 0.45561,-4.8128 -0.16081,-1.01672 -0.52191,-4.96612 -0.44715,-5.82882 0.0733,-0.86269 0.31455,-2.3408 0.47254,-3.512973 -0.0578,-1.50943 1.26808,-6.48938 1.48248,-7.56521 -0.0973,-0.14881 0.94084,-3.00786 1.54597,-5.78861 0.60512,-2.77935 1.06073,-6.08216 1.09317,-7.112 0.0592,-1.60789 0.36252,-4.31501 0.18056,-4.82521 -0.18056,-0.510197 -1.17217,-0.30073 -1.54597,-0.0927 -0.37379,0.20876 -0.19324,0.34516 -0.29057,0.51823 l -0.0169,0.0752 c -0.0719,-0.0113 -0.13682,0.007 -0.18478,0.0766 -1.38375,0.24304 -2.10172,-1.14001 -2.6476,-1.344398 -0.5473,-0.204389 -0.93943,-0.250373 -1.60521,-0.145287 -0.66437,0.104381 -3.1286,2.564095 -4.31064,3.117315 -1.18063,0.55322 -5.15556,2.3291 -6.52944,2.12542 -0.11426,0.11383 -0.25249,0.15333 -0.41047,0.1182 -0.53037,0.54885 -1.01701,1.51522 -1.59957,1.57658 -2.85777,0.30284 -4.49401,2.42544 -6.49417,4.01217 -0.35123,0.45476 -0.84633,0.85973 -1.02547,1.375 -0.53742,1.53863 -1.11857,2.52841 -2.67017,3.34583 -0.0846,0.0453 -0.1608,0.28168 -0.11567,0.34967 0.0649,0.10071 0.23698,0.17801 0.36675,0.18309 0.98174,0.0322 2.14544,-0.80571 2.14544,-0.80571 0,0 4.8255,-2.07209 7.22766,-3.13198 1.03817,-0.45829 2.01568,-0.72178 3.15258,-0.17294 0.43304,0.20806 1.10023,-0.0664 1.66022,-0.12116 0.22005,-0.12695 0.43868,-0.25404 0.65873,-0.38099 0.22569,-0.0591 0.44997,-0.1175 0.67565,-0.1766 l 0.41894,-0.0423 c 0.30609,0.0488 0.61218,0.10071 0.91827,0.14952 -0.55576,1.66558 -0.81389,4.60855 -0.8957,5.13835 -0.0804,0.52924 -0.27506,0.82405 -0.39496,1.24735 -0.17491,0.62699 -0.37238,1.25694 -0.4683,1.89987 -0.31032,2.0831 -0.72361,4.16762 -0.80825,6.26313 -0.0522,1.296303 0.72079,3.293923 1.12562,3.769133 0.40483,0.47592 0.85621,1.1393 0.15375,1.72327 -0.70104,0.58467 -1.24833,1.12477 -1.8718,1.68815 -0.78003,0.28987 -2.31753,1.47797 -4.57865,1.82835 -2.26111,0.34968 -4.21331,0.26053 -7.41103,-1.16709 -3.19772,-1.42691 -5.79595,-4.02303 -7.56055,-5.62005 -1.7646,-1.597733 -4.34449,-7.725023 -4.52645,-10.499293 -0.18197,-2.77428 0.0818,-5.58875 0.16644,-6.71408 0.086,-1.12633 0.71374,-4.91507 1.72792,-7.53248 1.01278,-2.61658 3.95378,-6.246204 4.36284,-6.706044 1.5248,-1.475153 3.04961,-2.949461 4.57582,-4.424614 1.73357,-1.31816 4.47427,-3.693104 8.38573,-5.8638 0.88582,-0.433603 5.78748,-3.233405 9.5057,-3.526799 1.0833,-0.08534 2.14121,-0.514569 3.17656,-0.880889 0.94083,-0.333595 1.48248,-0.997823 1.03816,-2.056159 -0.30468,-0.729819 -0.29763,-1.437775 0.5219,-1.640753 1.03112,-0.256156 0.10156,-1.844436 -0.38649,-1.731309 -0.52613,0.122717 -1.04945,0.349675 -1.79986,-0.137106 -0.81953,-0.532906 -1.50788,-1.591947 -1.78293,-2.952423 -0.11285,-0.562669 0.76733,-0.532765 0.21158,-1.281626 -0.55576,-0.747451 -1.63483,-0.283944 -2.0989,-0.661972 -0.15375,-0.05473 -0.30609,-0.108753 -0.45984,-0.164329 -0.57551,-0.07222 -1.1496,-0.14444 -1.7251,-0.21666 -0.0889,-0.07955 -0.18055,-0.15911 -0.26942,-0.238666 -0.57691,-0.682565 -1.24552,-0.763531 -2.15391,-0.687643 -2.68005,0.220469 -5.14005,1.248055 -7.71007,1.860516 -0.91827,0.321888 -1.83654,0.644481 -2.7548,0.967074 -0.4006,0.313847 -0.78709,0.645891 -1.20179,0.936464 -1.07907,0.756055 -2.17084,1.494055 -3.25696,2.239954 -0.1326,0.139363 -0.2666,0.278866 -0.39919,0.418934 l -0.0423,0.05261 c -0.34276,0.439387 -0.68552,0.878068 -1.0297,1.317454 -0.10297,0.136401 -0.20594,0.272237 -0.30891,0.407932 -0.29621,0.289727 -0.59384,0.5803 -0.89147,0.870732 -0.15798,0.142325 -0.31596,0.28465 -0.47394,0.426974 -0.26801,0.170113 -0.53742,0.339379 -0.80684,0.509491 l -0.0254,0.02849 c -0.16926,0.287611 -0.33994,0.574376 -0.51062,0.862693 l -0.0282,0.173639 c -0.23274,0.241627 -0.46689,0.483254 -0.69963,0.724881 -0.20453,0.23796 -0.40906,0.476625 -0.61359,0.714444 -0.15234,0.188309 -0.30609,0.376617 -0.45843,0.564926 -0.14105,0.124833 -0.28352,0.249667 -0.42457,0.374501 -0.25672,0.335006 -0.51203,0.670717 -0.76875,1.006428 l -0.0522,0.05769 c -0.3343,0.4037 -0.66719,0.805848 -1.0015,1.210111 -0.11284,0.186193 -0.22709,0.372245 -0.34135,0.558437 -0.52754,0.878068 -1.05509,1.756136 -1.58264,2.634062 -0.1481,0.06207 -0.22851,0.17237 -0.24261,0.333596 -0.14106,0.335005 -0.28352,0.670011 -0.42458,1.005017 -0.15093,0.265042 -0.30185,0.532059 -0.45278,0.797807 v 7.05e-4 c -1.50224,1.162012 -2.30907,2.754523 -2.79854,4.540562 -0.10297,0.127796 -0.20594,0.256156 -0.30891,0.383247 -0.17631,0.465623 -0.35263,0.932092 -0.52895,1.39842 -0.27083,0.72192 -0.54024,1.443698 -0.80966,2.164772 -1.63765,2.956789 -2.05376,6.246339 -2.27098,9.505979 -0.28211,4.26621 -0.2271,8.55781 0.79978,12.7597 0.33994,1.39334 2.728,6.766833 3.91286,8.558653 1.18346,1.78886 4.36002,5.32004 6.38416,6.70604 2.02696,1.38615 3.86773,2.44223 7.03018,3.75602 z"
     id="path18"
     inkscape:connector-curvature="0"
     style="fill:#f50005;stroke-width:1.41055048" />
  <path
     d="m 463.4942,113.07636 c -2.01427,-1.48968 -4.05533,-2.94227 -6.0964,-4.39471 -0.42035,-0.29848 -0.71797,-1.18896 -1.34002,-0.61162 -0.21582,0.19861 0.0762,1.08316 0.30326,1.58236 0.17068,0.37661 0.57128,0.6789 0.92674,0.93646 2.15109,1.5619 4.29935,3.13636 6.49981,4.62449 0.58538,0.39199 1.35695,0.51316 2.05659,0.71162 0.11989,0.0336 0.3075,-0.17363 0.51344,-0.29988 -0.20877,-0.24304 -0.32866,-0.42627 -0.48947,-0.56281 -0.78144,-0.67142 -1.54455,-1.37289 -2.37395,-1.98591 z"
     id="path20"
     inkscape:connector-curvature="0"
     style="fill:#f50005;stroke-width:1.41055048" />
  <path
     d="m 477.85783,122.08808 c -0.11707,-0.14006 -3.0087,-1.70197 -3.14411,-1.79619 -0.60654,-0.42909 -0.98175,-0.26349 -1.58828,-0.69851 -1.15665,-0.83349 -2.25688,-1.74217 -3.37686,-2.62024 -0.58679,-0.46266 -1.47967,-0.80937 -1.57841,0.10664 -0.0621,0.58975 0.0818,1.30857 0.63334,1.62397 0.19748,0.11313 0.39495,0.22837 0.59384,0.34079 1.13408,0.58608 2.26252,1.17738 3.3952,1.76051 0.49933,0.25615 7.83137,5.39817 9.02752,5.17488 1.20038,-0.22554 0.14952,-1.57149 0.14952,-1.57149 0,0 -3.9171,-2.0831 -4.11176,-2.32036 z"
     id="path22"
     inkscape:connector-curvature="0"
     style="fill:#f50005;stroke-width:1.41055048" />
  <path
     d="m 463.11335,122.61295 c 0,0 5.16402,3.5165 7.10917,4.41573 1.94515,0.89711 3.06936,1.64597 2.39512,0.59779 -0.67424,-1.04875 0,-0.82404 -2.17366,-2.09537 -2.16943,-1.27147 -3.36416,-1.72045 -4.33744,-2.69401 -0.97328,-0.973 -2.91984,-1.79549 -2.99601,-1.12266 -0.0719,0.67368 0.003,0.89852 0.003,0.89852 z"
     id="path24"
     inkscape:connector-curvature="0"
     style="fill:#f50005;stroke-width:1.41055048" />
  <path
     d="m 467.45502,134.06479 c 2.16943,1.27062 3.21888,2.24362 2.47129,0.29776 -0.74759,-1.94585 -1.94656,-1.57065 -3.59267,-2.39328 -1.64753,-0.82404 -1.711,-0.0141 -1.33721,0.43713 z"
     id="path26"
     inkscape:connector-curvature="0"
     style="fill:#f50005;stroke-width:1.41055048" />
  <path
     d="m 426.27541,17.48067 v 3.962518 h 0.69399 V 17.48067 h 1.6842 v -0.693427 h -3.8635 v 0.693427 z m 2.77456,-0.693427 v 4.655945 h 0.79131 V 17.48067 l 1.28784,3.962518 h 0.69399 l 1.18909,-3.962518 v 3.962518 h 0.69258 v -4.655945 h -1.08894 l -1.1891,3.764478 -1.18909,-3.764478 z"
     id="path28"
     inkscape:connector-curvature="0"
     style="clip-rule:evenodd;fill:#f50005;fill-rule:evenodd;stroke-width:1.41055048" />
  <path
     d="m 8.1383547,9.4884205 h 2.1364903 l 0.0078,7.6088615 C 10.288045,23.102137 5.8343187,28.101269 0,29.05466 L 0.00784,25.696421 C 4.6810807,24.530178 8.1383547,20.362143 8.1383547,15.398697 Z m 6.1979163,1.4e-5 h 2.13642 v 5.9102625 c 0,4.963446 3.457259,9.131481 8.130554,10.297724 l 0.0078,3.35838 C 18.777248,28.101269 14.323012,23.102137 14.328936,17.097282 Z M 85.938917,10.78916 c -0.248962,-0.418412 -0.708096,-0.671803 -1.200519,-0.662607 -0.741668,0.01411 -1.33565,0.609767 -1.33565,1.340094 0,0.730341 0.593982,1.326256 1.33565,1.340108 0.492423,0.0099 0.951557,-0.244195 1.200519,-0.662607 0.248963,-0.418411 0.248963,-0.936577 0,-1.354988 z m -2.246442,0.677698 c 0,-0.568705 0.468302,-1.02973 1.046064,-1.02973 0.57762,2.68e-4 1.046064,0.460982 1.04691,1.02973 0,0.568156 -0.468866,1.029731 -1.04691,1.029731 -0.577762,0 -1.046064,-0.461025 -1.046064,-1.029731 z m 0.457582,0.753376 h 0.314553 v -0.595648 h 0.369423 c 0.109177,0 0.184641,0.04965 0.189578,0.150957 -0.0049,0.109459 -0.0049,0.229582 0,0.303861 0.0031,0.04951 0.01749,0.09761 0.04203,0.140773 h 0.337544 c -0.0087,-0.02031 -0.01693,-0.03653 -0.0244,-0.05106 v -7e-5 c -0.02031,-0.0402 -0.03385,-0.06672 -0.03385,-0.128784 l -0.0023,-0.07236 c -0.0028,-0.09154 -0.0066,-0.217789 -0.01298,-0.264774 -0.01368,-0.115806 -0.08872,-0.160126 -0.143594,-0.192399 -0.0097,-0.0056 -0.01876,-0.01129 -0.0268,-0.0165 0.103393,-0.05981 0.170395,-0.107625 0.208621,-0.23779 0.03724,-0.130194 0.0059,-0.237297 -0.01509,-0.303847 -0.04415,-0.163017 -0.198888,-0.233446 -0.352215,-0.239709 h -0.850562 z m 0.740257,-1.248253 H 84.46461 v 0.394531 h 0.430641 c 0.05586,-0.0042 0.107625,-0.0299 0.14303,-0.07264 0.0354,-0.04274 0.0512,-0.09789 0.04359,-0.15258 0,-0.107484 -0.04993,-0.169294 -0.191553,-0.169294 z M 10.774631,9.4884345 h 3.054575 V 29.061995 h -3.054575 z m 46.519109,5.8885405 1.892536,6.081447 -3.584068,-0.0099 z m -2.54689,9.119491 -1.264982,4.540421 h -3.499434 l 4.887839,-17.441259 c 0.314976,-1.038123 1.284871,-1.7494495 2.385382,-1.7493365 1.102063,-7.62e-4 2.074074,0.7103245 2.391165,1.7493365 l 5.36108,17.466367 -3.47334,-0.02553 -1.404626,-4.532804 z m -18.889528,-9.119491 1.892112,6.081447 -3.583785,-0.0099 z m -2.547595,9.119491 -1.264982,4.540421 h -3.49887 L 33.43315,11.595628 c 0.314976,-1.038123 1.28487,-1.7494495 2.385382,-1.7493365 1.101781,-8.18e-4 2.073509,0.7103665 2.390319,1.7493365 l 5.361502,17.466367 -3.472916,-0.02553 -1.404626,-4.532804 z m 44.164336,-8.722139 c 0,2.469028 -1.569097,4.576672 -3.778583,5.411013 l 0.01608,0.0071 c -0.03343,0.0071 -0.06573,0.0182 -0.09549,0.0347 -0.07814,0.04627 -0.134425,0.121307 -0.156289,0.208479 -0.02186,0.08703 -0.0076,0.179281 0.03978,0.256015 l 4.551705,7.370127 h -3.521439 l -4.185386,-6.809715 c -0.698927,-1.141982 -0.325414,-2.625599 0.834341,-3.313947 0.218071,-0.129207 0.452646,-0.196772 0.687784,-0.253617 1.447789,-0.251642 2.459154,-1.551888 2.328396,-2.99347 -0.130899,-1.441583 -1.360476,-2.544746 -2.830552,-2.539626 H 69.31022 V 28.952677 H 65.977512 V 13.250203 c 0,-2.193053 1.221819,-3.2898265 3.332708,-3.2801775 l 2.27818,0.0099 c 3.250472,0 5.885663,2.5938615 5.885663,5.7934695 z M 40.891577,13.244194 V 9.9968115 h 11.629424 v 3.2473825 h -4.136298 l -0.01227,15.818365 H 45.04057 V 13.261079 Z M 82.360351,9.9808725 H 79.028489 V 29.062418 h 3.331862 z"
     id="path30"
     inkscape:connector-curvature="0"
     style="clip-rule:evenodd;fill:#ffffff;fill-rule:evenodd;stroke-width:1.41055048" />
</svg>
