<?xml version="1.0" encoding="UTF-8" standalone="no"?>
<svg
   xmlns:dc="http://purl.org/dc/elements/1.1/"
   xmlns:cc="http://creativecommons.org/ns#"
   xmlns:rdf="http://www.w3.org/1999/02/22-rdf-syntax-ns#"
   xmlns:svg="http://www.w3.org/2000/svg"
   xmlns="http://www.w3.org/2000/svg"
   xmlns:sodipodi="http://sodipodi.sourceforge.net/DTD/sodipodi-0.dtd"
   xmlns:inkscape="http://www.inkscape.org/namespaces/inkscape"
   width="479.58707"
   height="149.71236"
   viewBox="0 0 479.58707 149.71236"
   version="1.1"
   id="svg62"
   sodipodi:docname="jaleco.svg"
   style="fill:none"
   inkscape:version="0.92.5 (2060ec1f9f, 2020-04-08)">
  <metadata
     id="metadata68">
    <rdf:RDF>
      <cc:Work
         rdf:about="">
        <dc:format>image/svg+xml</dc:format>
        <dc:type
           rdf:resource="http://purl.org/dc/dcmitype/StillImage" />
        <dc:title />
      </cc:Work>
    </rdf:RDF>
  </metadata>
  <defs
     id="defs66" />
  <sodipodi:namedview
     pagecolor="#ffffff"
     bordercolor="#666666"
     borderopacity="1"
     objecttolerance="10"
     gridtolerance="10"
     guidetolerance="10"
     inkscape:pageopacity="0"
     inkscape:pageshadow="2"
     inkscape:window-width="1366"
     inkscape:window-height="740"
     id="namedview64"
     showgrid="false"
     inkscape:pagecheckerboard="true"
     inkscape:zoom="1.1950074"
     inkscape:cx="210.25916"
     inkscape:cy="63.887837"
     inkscape:window-x="0"
     inkscape:window-y="0"
     inkscape:window-maximized="1"
     inkscape:current-layer="svg62" />
  <path
     d="m 183.23906,149.05388 c -0.91477,0.42757 -1.85491,0.64072 -2.8217,0.64072 -0.93253,0 -1.80162,-0.17128 -2.60981,-0.51258 -0.8082,-0.34129 -1.50601,-0.80438 -2.09598,-1.38928 -0.58997,-0.58489 -1.05306,-1.2789 -1.38928,-2.08328 -0.33622,-0.80439 -0.50369,-1.66968 -0.50369,-2.59586 0,-0.92619 0.17128,-1.79528 0.51257,-2.60601 0.34257,-0.80946 0.8082,-1.50728 1.39816,-2.09217 0.58997,-0.58489 1.28778,-1.04799 2.09598,-1.38928 0.80819,-0.34129 1.67221,-0.51257 2.59205,-0.51257 0.98963,0 1.95134,0.21695 2.8826,0.6496 0.93253,0.43264 1.68743,1.01373 2.26472,1.74579 l -1.73312,1.77245 c -0.43645,-0.56079 -0.95029,-0.98963 -1.53899,-1.28905 -0.58997,-0.29816 -1.21546,-0.44787 -1.87521,-0.44787 -0.55444,0 -1.07717,0.10784 -1.56563,0.32099 -0.48974,0.21315 -0.91097,0.50496 -1.26495,0.87671 -0.35398,0.37174 -0.63057,0.81073 -0.8323,1.31696 -0.20046,0.50496 -0.30069,1.05687 -0.30069,1.65445 0,0.58489 0.10404,1.13045 0.30957,1.63541 0.20681,0.50624 0.48974,0.94142 0.85007,1.30682 0.35905,0.36666 0.78408,0.65594 1.27382,0.86909 0.48847,0.21315 1.02261,0.31972 1.59989,0.31972 0.6496,0 1.25606,-0.14083 1.82319,-0.41995 0.56587,-0.2804 1.06702,-0.68259 1.50347,-1.20658 l 1.67983,1.71788 c -0.58997,0.71938 -1.34107,1.29159 -2.25457,1.71789 z m 33.28309,0.14717 c -0.80185,0.3413 -1.66333,0.51131 -2.58318,0.51131 -0.90842,0 -1.76356,-0.17001 -2.56541,-0.51131 -0.80185,-0.34129 -1.49458,-0.80819 -2.07821,-1.39943 -0.58362,-0.59123 -1.04671,-1.29158 -1.38801,-2.10231 -0.34256,-0.80946 -0.51384,-1.67221 -0.51384,-2.58571 0,-0.91477 0.17128,-1.77625 0.51384,-2.58698 0.3413,-0.81073 0.80439,-1.51108 1.38801,-2.10232 0.58363,-0.59124 1.27636,-1.05687 2.07821,-1.39816 0.80185,-0.34129 1.65699,-0.51257 2.56541,-0.51257 0.91985,0 1.78133,0.17128 2.58318,0.51257 0.80185,0.34129 1.49458,0.80692 2.07821,1.39816 0.58362,0.59124 1.04671,1.29159 1.38928,2.10232 0.34129,0.81073 0.51257,1.67221 0.51257,2.58698 0,0.9135 -0.17128,1.77625 -0.51257,2.58571 -0.34257,0.81073 -0.80566,1.51108 -1.38928,2.10231 -0.58363,0.59124 -1.27636,1.05814 -2.07821,1.39943 z m -2.58318,-1.91961 c -0.55444,0 -1.06955,-0.10658 -1.54787,-0.31973 -0.47705,-0.21442 -0.89066,-0.50623 -1.2383,-0.87797 -0.34764,-0.37175 -0.62169,-0.81327 -0.82215,-1.32584 -0.20046,-0.51131 -0.30069,-1.05941 -0.30069,-1.6443 0,-0.59758 0.10023,-1.14949 0.30069,-1.65445 0.20046,-0.50623 0.47451,-0.94522 0.82215,-1.31696 0.34764,-0.37175 0.76125,-0.66356 1.2383,-0.87671 0.47832,-0.21442 0.99343,-0.32099 1.54787,-0.32099 0.55445,0 1.07337,0.10657 1.55676,0.32099 0.48339,0.21315 0.89954,0.50496 1.24718,0.87671 0.34764,0.37174 0.62169,0.81073 0.82215,1.31696 0.20046,0.50496 0.30069,1.05687 0.30069,1.65445 0,0.58489 -0.10023,1.13299 -0.30069,1.6443 -0.20046,0.51257 -0.47451,0.95409 -0.82215,1.32584 -0.34764,0.37174 -0.76379,0.66355 -1.24718,0.87797 -0.48339,0.21315 -1.00231,0.31973 -1.55676,0.31973 z m 38.88208,-0.11038 v 2.34084 h -9.34053 v -12.7966 h 2.56541 v 10.45576 z m 32.3366,2.34084 v -2.34084 h -6.77512 V 136.7153 h -2.56414 v 12.7966 z m 32.58528,-2.30405 v 2.30405 h -9.58794 v -12.7966 h 9.51689 v 2.30278 h -6.95148 v 2.92446 h 4.58145 v 2.23046 h -4.58145 v 3.03485 z m 28.44535,2.48675 c 0.96678,0 1.90692,-0.21315 2.82169,-0.64072 0.9135,-0.4263 1.66587,-0.99851 2.25457,-1.71789 l -1.67982,-1.71788 c -0.43645,0.52399 -0.93761,0.92618 -1.50347,1.20658 -0.56586,0.27912 -1.17359,0.41995 -1.82192,0.41995 -0.57855,0 -1.11143,-0.10657 -1.60117,-0.31972 -0.48973,-0.21315 -0.91476,-0.50243 -1.27382,-0.86909 -0.36032,-0.3654 -0.64326,-0.80058 -0.84879,-1.30682 -0.20681,-0.50496 -0.30958,-1.05052 -0.30958,-1.63541 0,-0.59758 0.10023,-1.14949 0.3007,-1.65445 0.20046,-0.50623 0.47705,-0.94522 0.83103,-1.31696 0.35398,-0.37175 0.7752,-0.66356 1.26494,-0.87671 0.48974,-0.21315 1.01119,-0.32099 1.56564,-0.32099 0.65974,0 1.28524,0.14971 1.87521,0.44787 0.58996,0.29942 1.10254,0.72826 1.53899,1.28905 l 1.73311,-1.77245 c -0.57728,-0.73206 -1.33219,-1.31315 -2.26345,-1.74579 -0.93253,-0.43265 -1.89297,-0.6496 -2.88386,-0.6496 -0.91985,0 -1.78387,0.17128 -2.59206,0.51257 -0.80692,0.34129 -1.506,0.80439 -2.09597,1.38928 -0.58997,0.58489 -1.0556,1.28271 -1.39689,2.09217 -0.34257,0.81073 -0.51385,1.67982 -0.51385,2.60601 0,0.92618 0.16875,1.79147 0.50496,2.59586 0.33622,0.80438 0.79805,1.49839 1.38802,2.08328 0.58996,0.5849 1.28904,1.04799 2.09597,1.38928 0.80819,0.3413 1.67855,0.51258 2.60982,0.51258 z m 33.92888,-10.63973 v 10.45703 h -2.56541 v -10.45703 h -4.17419 v -2.33957 h 10.89729 v 2.33957 z m 29.38295,10.45703 v -12.7966 h -2.56541 v 12.7966 z m 32.12472,-0.31085 c -0.80185,0.3413 -1.66333,0.51131 -2.58317,0.51131 -0.90716,0 -1.76229,-0.17001 -2.56414,-0.51131 -0.80185,-0.34129 -1.49586,-0.80819 -2.07948,-1.39943 -0.58363,-0.59123 -1.04672,-1.29158 -1.38801,-2.10231 -0.34257,-0.80946 -0.51258,-1.67221 -0.51258,-2.58571 0,-0.91477 0.17001,-1.77625 0.51258,-2.58698 0.34129,-0.81073 0.80438,-1.51108 1.38801,-2.10232 0.58362,-0.59124 1.27763,-1.05687 2.07948,-1.39816 0.80185,-0.34129 1.65698,-0.51257 2.56414,-0.51257 0.91984,0 1.78132,0.17128 2.58317,0.51257 0.80185,0.34129 1.49459,0.80692 2.07821,1.39816 0.58362,0.59124 1.04672,1.29159 1.38928,2.10232 0.34129,0.81073 0.51257,1.67221 0.51257,2.58698 0,0.9135 -0.17128,1.77625 -0.51257,2.58571 -0.34256,0.81073 -0.80566,1.51108 -1.38928,2.10231 -0.58362,0.59124 -1.27636,1.05814 -2.07821,1.39943 z m -2.58317,-1.91961 c -0.55445,0 -1.06956,-0.10658 -1.54788,-0.31973 -0.47705,-0.21442 -0.88939,-0.50623 -1.2383,-0.87797 -0.34763,-0.37175 -0.62168,-0.81327 -0.82214,-1.32584 -0.20047,-0.51131 -0.3007,-1.05941 -0.3007,-1.6443 0,-0.59758 0.10023,-1.14949 0.3007,-1.65445 0.20046,-0.50623 0.47451,-0.94522 0.82214,-1.31696 0.34891,-0.37175 0.76125,-0.66356 1.2383,-0.87671 0.47832,-0.21442 0.99343,-0.32099 1.54788,-0.32099 0.55444,0 1.07336,0.10657 1.55675,0.32099 0.4834,0.21315 0.89954,0.50496 1.24718,0.87671 0.34764,0.37174 0.62296,0.81073 0.82342,1.31696 0.20046,0.50496 0.30069,1.05687 0.30069,1.65445 0,0.58489 -0.10023,1.13299 -0.30069,1.6443 -0.20046,0.51257 -0.47578,0.95409 -0.82342,1.32584 -0.34764,0.37174 -0.76378,0.66355 -1.24718,0.87797 -0.48339,0.21315 -1.00231,0.31973 -1.55675,0.31973 z m 31.96612,-6.32598 v 8.55644 h -2.42331 v -12.7966 h 2.44108 l 6.15597,8.28112 v -8.28112 h 2.40554 v 12.7966 h -2.26471 z"
     id="path40"
     inkscape:connector-curvature="0"
     style="clip-rule:evenodd;fill:#ffffff;fill-rule:evenodd;stroke-width:1.26874876" />
  <path
     d="M 80.461385,0 C 35.739132,0 -0.30745069,33.539375 0.00197731,74.859223 0.31138531,116.17908 36.859183,149.70855 81.58131,149.70855 c 44.72227,0 80.76907,-33.52947 80.45949,-74.849327 C 161.73123,33.539375 125.18365,0 80.461385,0 Z"
     id="path42"
     inkscape:connector-curvature="0"
     style="fill:#246bbe;stroke-width:1.26874876" />
  <path
     d="M 42.998278,20.239208 52.781727,30.649673 64.384054,20.239208 75.143679,30.649673 85.635597,20.239208 96.529455,30.649673 107.43271,20.239208 129.09647,42.390675 118.47983,52.87295 107.15523,42.390675 96.950555,52.87295 86.047179,42.390675 75.56503,52.87295 64.106325,42.390675 53.346574,52.87295 32.238527,30.649673 Z"
     id="path44"
     inkscape:connector-curvature="0"
     style="fill:#ffffff;stroke-width:1.26874876" />
  <path
     d="M 64.383927,58.570901 75.009699,69.124988 85.913072,58.570901 96.529328,69.124988 107.99743,58.570901 118.4797,69.124988 128.96198,58.570901 150.76924,80.865987 140.42006,91.137528 129.79428,80.865987 118.61381,91.137528 107.57633,80.865987 97.371775,91.137528 85.913072,80.865987 75.430923,91.137528 64.383927,80.865987 53.480554,91.137528 43.1419,80.865987 32.516002,91.137528 11.274089,69.124988 21.191404,58.570901 32.516002,69.124988 42.720676,58.570901 53.059202,69.124988 Z"
     id="path46"
     inkscape:connector-curvature="0"
     style="fill:#ffffff;stroke-width:1.26874876" />
  <path
     d="m 42.998278,96.8356 9.783449,10.41047 11.602327,-10.41047 10.759625,10.41047 10.491918,-10.41047 10.893858,10.41047 10.903255,-10.41047 21.66376,22.15147 -10.61664,10.4824 -11.3246,-10.4824 -10.204675,10.4824 -10.903376,-10.4824 -10.482149,10.4824 -11.458705,-10.4824 -10.759751,10.4824 -21.108047,-22.2234 z"
     id="path48"
     inkscape:connector-curvature="0"
     style="fill:#ffffff;stroke-width:1.26874876" />
  <path
     d="m 201.02438,38.259755 h 16.44045 v 51.375443 c 0,35.121512 -45.23978,27.137902 -44.52547,-0.685 h 15.75405 c -0.12053,9.483392 12.33097,13.574472 12.33097,0.685 z"
     id="path50"
     inkscape:connector-curvature="0"
     style="clip-rule:evenodd;fill:#ffffff;fill-rule:evenodd;stroke-width:1.26874876" />
  <path
     d="m 220.88918,111.55537 h 17.12557 l 4.10948,-22.605172 h 16.44045 l 3.42435,22.605172 H 279.1146 L 266.7849,38.259755 H 233.21888 Z M 244.1796,72.510008 h 11.64458 l -5.86162,-30.275897 z"
     id="path52"
     inkscape:connector-curvature="0"
     style="clip-rule:evenodd;fill:#ffffff;fill-rule:evenodd;stroke-width:1.26874876" />
  <path
     d="M 322.26982,111.55537 H 284.59433 V 38.259755 H 301.7199 V 95.80018 h 20.54992 z"
     id="path54"
     inkscape:connector-curvature="0"
     style="clip-rule:evenodd;fill:#ffffff;fill-rule:evenodd;stroke-width:1.26874876" />
  <path
     d="M 366.11017,111.55537 H 325.01032 V 38.259755 h 41.09985 v 15.070072 h -23.97555 v 11.645211 h 23.97555 V 80.730104 H 342.13462 V 96.48518 h 23.97555 z"
     id="path56"
     inkscape:connector-curvature="0"
     style="clip-rule:evenodd;fill:#ffffff;fill-rule:evenodd;stroke-width:1.26874876" />
  <path
     d="m 407.21129,65.659782 h 16.43918 c 0.12814,-7.862056 -4.09553,-29.417845 -26.43312,-28.79527 -13.33201,0.371617 -25.36102,10.53937 -25.62745,37.015364 -0.38951,38.890704 19.6821,39.318784 24.01614,39.229584 28.45169,-0.58578 28.40729,-27.317048 28.05584,-32.350428 l -16.45059,-0.02918 c -0.69781,8.569386 -1.95514,16.593458 -10.39613,16.003108 -8.19104,-0.87112 -7.37016,-13.35929 -7.41457,-22.853083 -0.0431,-9.232302 -0.0152,-20.691642 8.48793,-21.041436 6.79034,0.260855 8.19612,6.852386 9.32277,12.821341 z"
     id="path58"
     inkscape:connector-curvature="0"
     style="clip-rule:evenodd;fill:#ffffff;fill-rule:evenodd;stroke-width:1.26874876" />
  <path
     d="m 452.6566,36.596172 c -17.89443,-0.238779 -26.51685,15.890952 -25.90785,37.98824 0.94522,34.310268 15.44575,38.389038 26.44453,38.256708 19.06549,-0.22647 26.22885,-17.07469 26.31005,-36.243204 0.0837,-20.180589 -5.68781,-39.719321 -26.84673,-40.001744 z m 0.40219,16.242395 c -8.58308,0.254892 -9.43187,11.396663 -9.39635,20.537869 0.014,3.45493 -0.5481,23.792724 9.53084,23.625124 9.49786,-0.16012 9.24157,-14.676004 9.39636,-22.954083 0.15986,-8.549842 -0.5684,-21.475093 -9.53085,-21.20891 z"
     id="path60"
     inkscape:connector-curvature="0"
     style="clip-rule:evenodd;fill:#ffffff;fill-rule:evenodd;stroke-width:1.26874876" />
</svg>
