<?xml version="1.0" encoding="UTF-8" standalone="no"?>
<svg
   xmlns:dc="http://purl.org/dc/elements/1.1/"
   xmlns:cc="http://creativecommons.org/ns#"
   xmlns:rdf="http://www.w3.org/1999/02/22-rdf-syntax-ns#"
   xmlns:svg="http://www.w3.org/2000/svg"
   xmlns="http://www.w3.org/2000/svg"
   xmlns:sodipodi="http://sodipodi.sourceforge.net/DTD/sodipodi-0.dtd"
   xmlns:inkscape="http://www.inkscape.org/namespaces/inkscape"
   width="494.06262"
   height="93.174065"
   viewBox="0 0 494.06262 93.174065"
   version="1.1"
   id="svg95"
   sodipodi:docname="konami.svg"
   inkscape:version="0.92.5 (2060ec1f9f, 2020-04-08)">
  <metadata
     id="metadata101">
    <rdf:RDF>
      <cc:Work
         rdf:about="">
        <dc:format>image/svg+xml</dc:format>
        <dc:type
           rdf:resource="http://purl.org/dc/dcmitype/StillImage" />
        <dc:title>mainlogo</dc:title>
      </cc:Work>
    </rdf:RDF>
  </metadata>
  <defs
     id="defs99" />
  <sodipodi:namedview
     pagecolor="#ffffff"
     bordercolor="#666666"
     borderopacity="1"
     objecttolerance="10"
     gridtolerance="10"
     guidetolerance="10"
     inkscape:pageopacity="0"
     inkscape:pageshadow="2"
     inkscape:window-width="1366"
     inkscape:window-height="740"
     id="namedview97"
     showgrid="false"
     inkscape:pagecheckerboard="true"
     inkscape:zoom="1.503102"
     inkscape:cx="255.38121"
     inkscape:cy="33.518133"
     inkscape:window-x="0"
     inkscape:window-y="0"
     inkscape:window-maximized="1"
     inkscape:current-layer="svg95" />
  <title
     id="title70">mainlogo</title>
  <g
     id="Page-1"
     style="fill:none;fill-rule:evenodd;stroke:none;stroke-width:1"
     transform="matrix(1.1646732,0,0,1.1646732,0,2.1027449e-4)">
    <g
       id="mainlogo">
      <g
         id="Konami_logo-2">
        <g
           id="Konami_logo">
          <path
             d="m 0,51.916502 c 9.6912004,1.0962 19.381501,2.1942 24.357601,0.6966 4.9752,-1.4958 5.2353,-5.5881 5.4954,-9.6786 0.9495,-2.9655 2.3499,-5.934601 4.4856,-8.909101 0.7164,-1.0233 1.5453,-1.9674 2.4687,-2.8089 0.9252,-0.8433 1.9449,-1.5822 3.032101,-2.1996 1.089,-0.6192 2.2482,-1.1178 3.4461,-1.4832 v 0 l 4.5873,-0.8811 4.6269,-0.6453 v 0 c 1.962,-0.2727 3.9609,-0.8793 5.8923,-1.8855 0.9189,-0.4797 1.7982,-1.0332 2.7972,-1.8324 1.0008,-0.8019 2.1204,-1.8468 3.115801,-2.997 0.9972,-1.152 1.8693,-2.4102 2.6046,-3.7422 0.7344,-1.3338 1.3311,-2.7414 1.7775,-4.1958 1.1655,-3.2265007 2.2554,-6.4647008 3.2724,-9.7137009 -8.4267,-2.11230012 -18.342901,-2.12670012 -23.548501,-0.3798001 -5.2056,1.7451001 -5.7033,5.2488003 -6.1812,7.6347004 -0.4797,2.3858996 -0.9378,3.6540006 -1.4607,4.8968996 -0.5211,1.242901 -1.1061,2.462401 -1.719,3.544201 -0.612901,1.0809 -1.254601,2.0286 -1.992601,2.8953 -0.738,0.8667 -1.5714,1.6542 -2.4777,2.3454 -0.9495,0.6435 -1.8999,1.2861 -2.8827,1.7622 -1.9494,0.963 -4.0257,1.3311 -6.0597,1.9116 -2.8755,0.5364 -5.8095,0.8919 -8.6931,1.7343 -1.4274,0.4122 -2.8062,0.9963 -4.095,1.7361 -1.2879,0.7371 -2.484901,1.6326 -3.5577006,2.655 -1.0728001,1.0242 -2.0187001,2.1771 -2.8143001,3.4254 -0.4671001,0.7227 -0.9333001,1.445401 -1.5138001,2.5902 -0.5814,1.145701 -1.278,2.713501 -1.9728001,4.280401 -1.1565,3.0582 -2.15100007,6.1407 -2.9907001,9.2439 z"
             id="Path"
             inkscape:connector-curvature="0"
             style="fill:#f3ad2c" />
          <path
             d="m 18.131401,76.961703 c 9.6903,1.0953 19.3824,2.1933 24.357601,0.6966 4.9752,-1.4967 5.2344,-5.5863 5.4954,-9.6786 0.9495,-2.9655 2.3517,-5.9364 4.4865,-8.910001 0.7155,-1.0233 1.5444,-1.9683 2.4705,-2.8089 0.9234,-0.8415 1.9431,-1.5804 3.0321,-2.1996 1.089,-0.6192 2.2464,-1.1169 3.4461,-1.4823 v 0 l 4.585501,-0.8811 4.6269,-0.6471 v 0 c 1.962,-0.27 3.9618,-0.8766 5.8923,-1.8828 0.9198,-0.4806 1.7982,-1.0332 2.7972,-1.8351 0.9999,-0.7992 2.1204,-1.8459 3.1176,-2.997 0.9954,-1.1502 1.8693,-2.4102 2.6028,-3.7422 0.7353,-1.332 1.3311,-2.7396 1.7784,-4.193101 1.164601,-3.2274 2.254501,-6.4656 3.271501,-9.7146 -8.426701,-2.1132 -18.342001,-2.1258 -23.549401,-0.3798 -5.205601,1.7451 -5.703301,5.2488 -6.181201,7.6347 -0.4797,2.385 -0.9387,3.6531 -1.4598,4.896 -0.522,1.242901 -1.1061,2.461501 -1.7199,3.544201 -0.6129,1.0818 -1.2555,2.0268 -1.9926,2.8953 -0.7371,0.8649 -1.5714,1.6533 -2.4768,2.3454 -0.9504,0.6444 -1.9008,1.2861 -2.8827,1.7613 -1.9503,0.9648 -4.0257,1.332 -6.0606,1.9125 -2.8764,0.5355 -5.808601,0.8919 -8.694001,1.7334 -1.4274,0.414 -2.8062,0.9972 -4.0941,1.7352 -1.2879,0.7389 -2.4858,1.6326 -3.5577,2.6577 -2.4201,2.2752 -4.0095,5.2389 -5.2983,7.926301 -1.7064,3.8421 -2.9259,7.7094 -3.9933,11.6136 z"
             id="path73"
             inkscape:connector-curvature="0"
             style="fill:#eb302e" />
          <polygon
             id="polygon75"
             points="133.32781,22.264201 140.64571,1.7181001 127.12501,1.7136001 108.6624,51.141602 121.98511,51.147902 132.3108,24.585301 139.15261,51.141602 154.77841,51.141602 148.08511,24.514201 172.00441,1.7136001 156.01951,1.7136001 "
             style="fill:#ffffff" />
          <path
             d="m 209.22031,10.089 c -0.4671,-1.3193997 -1.1574,-2.5640997 -2.0214,-3.6746998 -0.8649,-1.1106 -1.9035,-2.088 -3.0699,-2.8782001 -1.1655,-0.7884 -2.4579,-1.3905 -3.9366,-1.8657 -3.0114,-0.95400007 -6.5637,-1.39140009 -9.9018,-1.32300009 -1.6956,0.036 -3.3876,0.19980001 -5.3874,0.58230003 -2.0007,0.38159996 -4.3083,0.98370006 -6.4746,1.91970006 -2.1654,0.9360001 -4.1922,2.2086001 -5.9742,3.7494002 -1.7811,1.5399 -3.3201,3.3507001 -4.455,4.9257007 -1.1331,1.5741 -1.863,2.9115 -2.5623,4.2615 -0.6975,1.35 -1.3671,2.7117 -1.9791,4.0986 -1.1781,2.7441 -2.2707,5.4018 -3.123,7.9767 -0.405,1.2771 -0.7209,2.583 -0.9504,3.9033 -0.2286,1.3203 -0.369,2.655 -0.4374,3.6567 -0.0684,1.0026 -0.0657,1.6695 -0.0297,2.336401 0.0342,0.665999 0.0999,1.3311 0.1872,1.9935 0.0846,0.666 0.1908,1.3302 0.5643,2.3967 0.3726,1.0674 1.0107,2.5335 1.9071,3.8358 0.8964,1.3023 2.0502,2.4345 3.366,3.3264 1.3167,0.8919 2.7936,1.5444 4.4757,2.0178 3.4083,0.9459 7.4151,1.2258 11.1699,1.0026 1.8999,-0.1152 3.7926,-0.3699 5.8635,-0.8982 2.0718,-0.5292 4.3191,-1.3365 6.3891,-2.4723 2.0709,-1.1358 3.9627,-2.5992 5.5755,-4.3137 1.6146,-1.7127 2.9502,-3.6783 4.1211,-5.831101 1.1718,-2.1555 2.1789,-4.4973 3.1374,-6.8553 0.9576,-2.3589 1.8666,-4.7322 2.4984,-6.4962 0.6318,-1.7631 0.9873,-2.9151 1.2564,-4.0869 0.27,-1.1736 0.4563,-2.3652 0.5652,-3.5649 0.2214,-2.3679 0.1485,-5.055301 -0.774,-7.722901 z m -13.0437,7.343101 c -0.7227,2.691 -1.4454,5.3811 -2.3211,8.0235 -0.8757,2.6424 -1.9026,5.2326 -2.9295,7.8246 -0.7497,1.7766 -1.7811,3.5865 -3.1104,5.254201 -0.8829,1.1052 -1.7973,1.8747 -2.8044,2.4435 -1.1538,0.6561 -2.3607,1.0143 -3.5397,1.1619 -1.7946,0.2241 -3.6333,-0.0441 -5.0796,-0.7029 -0.7884,-0.3654 -1.5966,-0.9171 -2.2482,-1.6209 -0.99,-1.093501 -1.305,-2.235601 -1.3698,-3.327301 -0.0585,-1.2402 0.0882,-2.4768 0.4005,-3.6756 1.4751,-5.8185 3.6612,-11.6073 6.7104,-17.3088 0.4158,-0.8271 0.9504,-1.5957 1.5822,-2.2734 0.6318,-0.678601 1.3644,-1.2672 2.1636,-1.7343 1.6407,-0.937801 3.2931,-1.355401 4.6899,-1.454401 2.0925,-0.1079996 4.3155,0.0747 6.1038,1.583101 0.5391,0.4662 0.9873,1.035 1.3167,1.6659 0.3285,0.6309 0.5382,1.3239 0.6111,2.0304 0.0756,0.7065 0.0135,1.4247 -0.1755,2.1105 z"
             id="Shape"
             inkscape:connector-curvature="0"
             style="fill:#ffffff" />
          <polygon
             id="polygon78"
             points="221.99581,1.7136001 203.89771,51.147902 216.51121,51.147902 229.67281,14.226301 230.87251,51.147902 250.07491,51.147902 268.52401,1.7136001 255.96001,1.7145001 242.93251,37.662301 241.90561,1.7136001 "
             style="fill:#ffffff" />
          <path
             d="m 289.23751,41.326202 -0.2772,9.8289 h 12.9321 l 0.8811,-49.4442019 h -17.3916 l -32.4675,49.4397019 h 13.4226 l 6.7059,-9.7938 z m 1.2618,-27.938701 -0.666,17.9847 -10.2159,0.0261 z"
             id="path80"
             inkscape:connector-curvature="0"
             style="fill:#ffffff" />
          <polygon
             id="polygon82"
             points="350.73721,51.150602 363.71611,51.150602 382.26961,1.7280001 359.92261,1.7280001 340.44121,33.627601 344.78101,1.7235001 322.68511,1.7235001 304.21981,51.146102 316.80811,51.146102 330.48001,14.486401 327.63601,51.155102 340.95421,51.155102 364.41181,15.003901 "
             style="fill:#ffffff" />
          <polygon
             id="polygon84"
             points="390.95192,1.7244001 372.43261,51.152402 385.23692,51.152402 403.93802,1.7244001 "
             style="fill:#ffffff" />
          <path
             d="m 423.62732,5.1309002 c -0.2394,-0.6345 -0.6012,-1.2213 -1.062,-1.7199001 -1.4751,-1.5318 -3.3507,-1.9692 -5.1975,-1.5264 -0.6102,0.1548 -1.1934,0.4221 -1.7118,0.7812 -0.5184,0.3582 -0.972,0.8118 -1.3293,1.3293001 -0.7299,1.0503 -1.0368,2.3481 -0.8856,3.5757001 0.0738,0.6228 0.2619,1.2312001 0.5517,1.7883001 0.2934,0.5571 0.6876,1.0610996 1.1565,1.4804996 1.6119,1.377001 3.4785,1.687501 5.4576,0.981901 0.6345,-0.244801 1.2213,-0.615601 1.7136,-1.082701 1.5885,-1.5560996 2.0205,-3.5981997 1.3068,-5.6078998 m -1.7451,5.0201998 c -0.4203,0.414 -0.9207,0.7461 -1.4679,0.9693 -1.7154,0.6462 -3.3174,0.395101 -4.7214,-0.7533 -0.4113,-0.3528 -0.7596,-0.7775996 -1.0179,-1.2518996 -0.8631,-1.6416001 -0.6768,-3.2679002 0.1791,-4.6179002 0.2952,-0.4518 0.6732,-0.8496001 1.1106,-1.1700001 0.4356,-0.3195 0.9315,-0.5625 1.4535,-0.711 1.5975,-0.4284 3.2238,-0.0738 4.5054,1.1853001 0.4113,0.4203 0.7398,0.9207 0.9648,1.4643 0.6777,1.7523001 0.3186,3.5280002 -1.0062,4.8851998"
             id="path86"
             inkscape:connector-curvature="0"
             style="stroke:#ffffff;stroke-width:0.5" />
          <path
             d="m 420.60422,7.4799003 c -0.2124,-0.2763 -0.4572,-0.3555 -0.6993,-0.4212 0.306,-0.0711 0.7713,-0.2277 0.9999,-0.7875001 0.1953,-0.5301 0.2376,-1.1277 -0.36,-1.7685 -0.5832,-0.5607 -1.2888,-0.4887 -1.9512,-0.504 v 0 l -2.2203,0.0018 0.007,5.8824002 1.2393,0.0054 v -2.3598001 0 c 0.5625,0.063 1.1691,-0.225 1.8072,0.3573 0.4221,0.6228 0.135,1.1187001 0.441,1.9971001 v 0 l 1.2483,-0.0018 v 0 c -0.3663,-0.7866 -0.0378,-1.5633001 -0.5121,-2.4012001 v 0 0 z m -1.1916,-1.0233 c -0.5832,0.2268 -1.1952,0.0819 -1.7928,0.1098 v 0 -1.5633001 0 c 0.6102,0.0396 1.1691,-0.1242 1.8315,0.126 0.441,0.2835 0.5535,0.927 -0.0387,1.3275001 z"
             id="path88"
             inkscape:connector-curvature="0"
             style="fill:#ffffff" />
        </g>
      </g>
      <path
         d="m 113.99907,79.983379 c 0.87922,0 1.73432,-0.193905 2.56529,-0.581717 0.83097,-0.387812 1.51451,-0.908587 2.05062,-1.562327 v 0 l -1.52791,-1.562327 c -0.39672,0.476455 -0.85242,0.842106 -1.36708,1.096953 -0.51467,0.254848 -1.06686,0.382272 -1.65658,0.382272 -0.52539,0 -1.01057,-0.09695 -1.45554,-0.290859 -0.44497,-0.193906 -0.83097,-0.457064 -1.158,-0.789474 -0.32703,-0.33241 -0.58436,-0.728532 -0.772,-1.188365 -0.18764,-0.459834 -0.28146,-0.955679 -0.28146,-1.487535 0,-0.542936 0.0911,-1.044321 0.27342,-1.504155 0.18228,-0.459834 0.43425,-0.858726 0.75592,-1.196676 0.32166,-0.33795 0.70498,-0.603878 1.14995,-0.797784 0.44497,-0.193906 0.91943,-0.290859 1.42337,-0.290859 0.60045,0 1.16872,0.135734 1.70484,0.407202 0.53611,0.271469 1.00252,0.66205 1.39924,1.171746 v 0 l 1.57617,-1.612189 c -0.52539,-0.66482 -1.21161,-1.193906 -2.05867,-1.587257 C 115.7736,68.196676 114.89974,68 113.99907,68 c -0.83633,0 -1.62173,0.155125 -2.3562,0.465374 -0.73447,0.310249 -1.36976,0.731302 -1.90587,1.263158 -0.53611,0.531856 -0.95964,1.166205 -1.27058,1.903047 C 108.15547,72.368421 108,73.157895 108,74 c 0,0.842105 0.15279,1.628809 0.45837,2.360111 0.30559,0.731302 0.72643,1.362881 1.26254,1.894737 0.53611,0.531856 1.1714,0.952908 1.90588,1.263157 0.73447,0.31025 1.52523,0.465374 2.37228,0.465374 z M 144.47694,80 c 0.83634,0 1.61906,-0.155125 2.34817,-0.465374 0.72911,-0.310249 1.35904,-0.734072 1.88979,-1.271468 0.53075,-0.537396 0.95159,-1.174515 1.26254,-1.911357 0.31094,-0.736843 0.46641,-1.520776 0.46641,-2.351801 0,-0.831025 -0.15547,-1.614958 -0.46641,-2.351801 -0.31095,-0.736842 -0.73179,-1.373961 -1.26254,-1.911357 -0.53075,-0.537396 -1.16068,-0.961219 -1.88979,-1.271468 C 146.096,68.155125 145.31328,68 144.47694,68 c -0.82561,0 -1.60296,0.155125 -2.33208,0.465374 -0.72911,0.310249 -1.35903,0.734072 -1.88978,1.271468 -0.53075,0.537396 -0.9516,1.174515 -1.26254,1.911357 -0.31095,0.736843 -0.46642,1.520776 -0.46642,2.351801 0,0.831025 0.15547,1.614958 0.46642,2.351801 0.31094,0.736842 0.73179,1.373961 1.26254,1.911357 0.53075,0.537396 1.16067,0.961219 1.88978,1.271468 C 142.87398,79.844875 143.65133,80 144.47694,80 Z m 0,-2.210526 c -0.50394,0 -0.97304,-0.09695 -1.40728,-0.290859 -0.43425,-0.193906 -0.80953,-0.459834 -1.12584,-0.797784 -0.3163,-0.33795 -0.56559,-0.739612 -0.74787,-1.204986 -0.18228,-0.465374 -0.27342,-0.963989 -0.27342,-1.495845 0,-0.542936 0.0911,-1.044321 0.27342,-1.504155 0.18228,-0.459834 0.43157,-0.858726 0.74787,-1.196676 0.31631,-0.33795 0.69159,-0.603878 1.12584,-0.797784 0.43424,-0.193906 0.90334,-0.290859 1.40728,-0.290859 0.50395,0 0.97573,0.09695 1.41534,0.290859 0.43961,0.193906 0.81756,0.459834 1.13387,0.797784 0.3163,0.33795 0.5656,0.736842 0.74787,1.196676 0.18228,0.459834 0.27342,0.961219 0.27342,1.504155 0,0.531856 -0.0911,1.030471 -0.27342,1.495845 -0.18227,0.465374 -0.43157,0.867036 -0.74787,1.204986 -0.31631,0.33795 -0.69426,0.603878 -1.13387,0.797784 -0.43961,0.193906 -0.91139,0.290859 -1.41534,0.290859 z m 35.35112,2.0277 v -2.127423 h -6.15991 v -9.506925 h -2.33208 v 11.634348 z m 29.40029,0 v -2.127423 h -6.15991 v -9.506925 h -2.33208 v 11.634348 z m 29.62545,0 v -2.094182 h -6.38507 v -2.759003 h 4.16558 v -2.027701 h -4.16558 v -2.65928 h 6.32074 v -2.094182 h -8.65282 v 11.634348 z m 25.86196,0.166205 c 0.87923,0 1.73432,-0.193905 2.56529,-0.581717 0.83097,-0.387812 1.51451,-0.908587 2.05063,-1.562327 v 0 l -1.52792,-1.562327 c -0.39672,0.476455 -0.85242,0.842106 -1.36708,1.096953 -0.51467,0.254848 -1.06686,0.382272 -1.65658,0.382272 -0.52539,0 -1.01057,-0.09695 -1.45554,-0.290859 -0.44497,-0.193906 -0.83097,-0.457064 -1.158,-0.789474 -0.32703,-0.33241 -0.58436,-0.728532 -0.772,-1.188365 C 261.20692,75.027701 261.1131,74.531856 261.1131,74 c 0,-0.542936 0.0911,-1.044321 0.27342,-1.504155 0.18228,-0.459834 0.43425,-0.858726 0.75592,-1.196676 0.32166,-0.33795 0.70498,-0.603878 1.14995,-0.797784 0.44497,-0.193906 0.91943,-0.290859 1.42337,-0.290859 0.60045,0 1.16873,0.135734 1.70484,0.407202 0.53611,0.271469 1.00252,0.66205 1.39924,1.171746 v 0 l 1.57617,-1.612189 c -0.52539,-0.66482 -1.21161,-1.193906 -2.05866,-1.587257 C 266.49029,68.196676 265.61643,68 264.71576,68 c -0.83633,0 -1.62173,0.155125 -2.3562,0.465374 -0.73447,0.310249 -1.36976,0.731302 -1.90587,1.263158 -0.53611,0.531856 -0.95964,1.166205 -1.27058,1.903047 -0.31095,0.736842 -0.46642,1.526316 -0.46642,2.368421 0,0.842105 0.15279,1.628809 0.45838,2.360111 0.30558,0.731302 0.72642,1.362881 1.26254,1.894737 0.53611,0.531856 1.1714,0.952908 1.90587,1.263157 0.73447,0.31025 1.52523,0.465374 2.37228,0.465374 z m 30.84779,-0.166205 v -9.506925 h 3.77958 v -2.127423 h -9.90732 v 2.127423 h 3.79566 v 9.506925 z m 26.71438,0 V 68.182826 h -2.33208 V 79.817174 Z M 349.13705,80 c 0.83634,0 1.61906,-0.155125 2.34817,-0.465374 0.72911,-0.310249 1.35904,-0.734072 1.88979,-1.271468 0.53075,-0.537396 0.95159,-1.174515 1.26254,-1.911357 0.31094,-0.736843 0.46641,-1.520776 0.46641,-2.351801 0,-0.831025 -0.15547,-1.614958 -0.46641,-2.351801 -0.31095,-0.736842 -0.73179,-1.373961 -1.26254,-1.911357 -0.53075,-0.537396 -1.16068,-0.961219 -1.88979,-1.271468 C 350.75611,68.155125 349.97339,68 349.13705,68 c -0.82561,0 -1.60297,0.155125 -2.33207,0.465374 -0.72911,0.310249 -1.35904,0.734072 -1.88979,1.271468 -0.53075,0.537396 -0.9516,1.174515 -1.26254,1.911357 -0.31095,0.736843 -0.46642,1.520776 -0.46642,2.351801 0,0.831025 0.15547,1.614958 0.46642,2.351801 0.31094,0.736842 0.73179,1.373961 1.26254,1.911357 0.53075,0.537396 1.16068,0.961219 1.88979,1.271468 C 347.53408,79.844875 348.31144,80 349.13705,80 Z m 0,-2.210526 c -0.50394,0 -0.97304,-0.09695 -1.40728,-0.290859 -0.43425,-0.193906 -0.80953,-0.459834 -1.12584,-0.797784 -0.3163,-0.33795 -0.56559,-0.739612 -0.74787,-1.204986 -0.18228,-0.465374 -0.27342,-0.963989 -0.27342,-1.495845 0,-0.542936 0.0911,-1.044321 0.27342,-1.504155 0.18228,-0.459834 0.43157,-0.858726 0.74787,-1.196676 0.31631,-0.33795 0.69159,-0.603878 1.12584,-0.797784 0.43424,-0.193906 0.90334,-0.290859 1.40728,-0.290859 0.50395,0 0.97573,0.09695 1.41534,0.290859 0.43961,0.193906 0.81756,0.459834 1.13387,0.797784 0.3163,0.33795 0.5656,0.736842 0.74787,1.196676 0.18228,0.459834 0.27342,0.961219 0.27342,1.504155 0,0.531856 -0.0911,1.030471 -0.27342,1.495845 -0.18227,0.465374 -0.43157,0.867036 -0.74787,1.204986 -0.31631,0.33795 -0.69426,0.603878 -1.13387,0.797784 -0.43961,0.193906 -0.91139,0.290859 -1.41534,0.290859 z m 29.06254,2.0277 v -7.778393 l 5.74175,7.778393 H 386 V 68.182826 h -2.18733 v 7.529085 l -5.59699,-7.529085 h -2.2195 v 11.634348 z"
         id="COLLECTION"
         inkscape:connector-curvature="0"
         style="fill:#ffffff;fill-rule:nonzero" />
    </g>
  </g>
</svg>
