<?xml version="1.0" encoding="UTF-8" standalone="no"?>
<svg
   xmlns:dc="http://purl.org/dc/elements/1.1/"
   xmlns:cc="http://creativecommons.org/ns#"
   xmlns:rdf="http://www.w3.org/1999/02/22-rdf-syntax-ns#"
   xmlns:svg="http://www.w3.org/2000/svg"
   xmlns="http://www.w3.org/2000/svg"
   xmlns:sodipodi="http://sodipodi.sourceforge.net/DTD/sodipodi-0.dtd"
   xmlns:inkscape="http://www.inkscape.org/namespaces/inkscape"
   width="472.06262"
   height="101.17411"
   viewBox="0 0 472.06262 101.17412"
   version="1.1"
   id="svg95"
   sodipodi:docname="konami.svg"
   inkscape:version="0.92.5 (2060ec1f9f, 2020-04-08)">
  <metadata
     id="metadata101">
    <rdf:RDF>
      <cc:Work
         rdf:about="">
        <dc:format>image/svg+xml</dc:format>
        <dc:type
           rdf:resource="http://purl.org/dc/dcmitype/StillImage" />
        <dc:title>mainlogo</dc:title>
      </cc:Work>
    </rdf:RDF>
  </metadata>
  <defs
     id="defs99" />
  <sodipodi:namedview
     pagecolor="#ffffff"
     bordercolor="#666666"
     borderopacity="1"
     objecttolerance="10"
     gridtolerance="10"
     guidetolerance="10"
     inkscape:pageopacity="0"
     inkscape:pageshadow="2"
     inkscape:window-width="1366"
     inkscape:window-height="743"
     id="namedview97"
     showgrid="false"
     inkscape:pagecheckerboard="true"
     inkscape:zoom="3.6859567"
     inkscape:cx="204.99623"
     inkscape:cy="64.331006"
     inkscape:window-x="0"
     inkscape:window-y="0"
     inkscape:window-maximized="1"
     inkscape:current-layer="svg95" />
  <title
     id="title70">mainlogo</title>
  <path
     d="m 0,60.465969 c 11.287081,1.276715 22.573115,2.555526 28.368645,0.811311 5.794482,-1.742118 6.097414,-6.50831 6.400345,-11.272406 1.105857,-3.453838 2.736866,-6.911871 5.224258,-10.376191 0.834372,-1.19181 1.79977,-2.291378 2.875229,-3.271451 1.077556,-0.982169 2.265173,-1.842746 3.531407,-2.561815 1.268329,-0.721165 2.618418,-1.301871 4.01358,-1.727443 v 0 l 5.342705,-1.026194 5.388827,-0.751563 v 0 c 2.285089,-0.317607 4.613154,-1.024097 6.862604,-2.195992 1.070218,-0.558693 2.094315,-1.20334 3.257824,-2.134147 1.165605,-0.933951 2.469573,-2.150918 3.62889,-3.490525 1.161412,-1.341704 2.177123,-2.807096 3.033507,-4.35844 0.855339,-1.553441 1.550299,-3.192835 2.070209,-4.886736 1.35743,-3.7578193 2.6268,-7.5292643 3.81128,-11.3132873 -9.814357,-2.46013897 -21.363491,-2.47691097 -27.426313,-0.442343 -6.062823,2.032471 -6.642481,6.113137 -7.199078,8.8919313 -0.558694,2.778793 -1.092231,4.255716 -1.701239,5.703287 -0.606911,1.447574 -1.288245,2.867893 -2.002073,4.127836 -0.713829,1.258896 -1.4612,2.362656 -2.320729,3.372079 -0.859529,1.009422 -1.830167,1.926602 -2.885711,2.731624 -1.105857,0.749467 -2.212762,1.497886 -3.357403,2.052387 -2.270414,1.121581 -4.688625,1.550297 -7.05757,2.22639 -3.349018,0.62473 -6.766169,1.038772 -10.124621,2.019892 -1.662454,0.480079 -3.268306,1.160364 -4.769336,2.021989 -1.499983,0.858481 -2.894098,1.901446 -4.143559,3.092208 -1.249462,1.192858 -2.351126,2.53561 -3.27774,3.989471 -0.544019,0.84171 -1.08699,1.68342 -1.763082,3.016737 C 5.103715,46.048945 4.292403,47.87492 3.483188,49.699846 2.136244,53.26165 0.977976,56.851755 0,60.465969 Z"
     id="Path"
     inkscape:connector-curvature="0"
     style="fill:#f3ad2c;fill-rule:evenodd;stroke:none;stroke-width:1.16467321" />
  <path
     d="m 21.117157,89.63544 c 11.286033,1.27567 22.574162,2.55448 28.368645,0.81132 5.794482,-1.74317 6.096365,-6.50622 6.400345,-11.272411 1.105857,-3.453839 2.738962,-6.913966 5.225306,-10.37724 0.833324,-1.19181 1.798722,-2.292426 2.877325,-3.27145 1.07546,-0.980073 2.263077,-1.84065 3.531406,-2.561816 1.268329,-0.721165 2.616322,-1.300823 4.01358,-1.726395 v 0 l 5.340611,-1.026193 5.388825,-0.75366 v 0 c 2.28509,-0.314462 4.6142,-1.020953 6.86261,-2.192847 1.07126,-0.559742 2.09431,-1.20334 3.25782,-2.137292 1.16456,-0.930807 2.46957,-2.14987 3.63098,-3.490525 1.15932,-1.339607 2.17713,-2.807096 3.03142,-4.35844 0.85638,-1.551345 1.55029,-3.190739 2.07125,-4.883593 1.35638,-3.758866 2.62576,-7.530311 3.81023,-11.314334 -9.81435,-2.461187 -21.36244,-2.475862 -27.427357,-0.442343 -6.062824,2.032471 -6.642481,6.113137 -7.199079,8.891931 -0.558693,2.777745 -1.093278,4.254667 -1.70019,5.70224 -0.607959,1.447573 -1.288245,2.866844 -2.003121,4.127835 -0.713828,1.259944 -1.462247,2.36056 -2.320728,3.372079 -0.858481,1.007326 -1.830167,1.925554 -2.884662,2.731624 -1.106906,0.750516 -2.213811,1.497887 -3.357404,2.051339 -2.271462,1.123677 -4.688625,1.551345 -7.058618,2.227438 -3.350066,0.623682 -6.765122,1.038772 -10.12567,2.018844 -1.662455,0.482175 -3.268306,1.161412 -4.768289,2.020941 -1.499982,0.860577 -2.895144,1.901446 -4.143558,3.095352 -2.818625,2.649865 -4.669757,6.101607 -6.170788,9.231551 -1.987398,4.47479 -3.407717,8.978935 -4.650889,13.526045 z"
     id="path73"
     inkscape:connector-curvature="0"
     style="fill:#eb302e;fill-rule:evenodd;stroke:none;stroke-width:1.16467321" />
  <polygon
     id="polygon75"
     points="172.00441,1.7136001 156.01951,1.7136001 133.32781,22.264201 140.64571,1.7181001 127.12501,1.7136001 108.6624,51.141602 121.98511,51.147902 132.3108,24.585301 139.15261,51.141602 154.77841,51.141602 148.08511,24.514201 "
     style="fill:#ffffff;fill-rule:evenodd;stroke:none;stroke-width:1"
     transform="matrix(1.1646732,0,0,1.1646732,-22,16.00021)" />
  <path
     d="m 221.67329,27.750598 c -0.54402,-1.536669 -1.34799,-2.986338 -2.35427,-4.279824 -1.00733,-1.293486 -2.21696,-2.431838 -3.57543,-3.352163 -1.35743,-0.918228 -2.86265,-1.619478 -4.58486,-2.17293 -3.50729,-1.111099 -7.64456,-1.620527 -11.53236,-1.540863 -1.97482,0.04193 -3.94544,0.232702 -6.27456,0.678189 -2.33016,0.444439 -5.01776,1.145689 -7.54079,2.235823 -2.52198,1.090134 -4.88254,2.572298 -6.95799,4.366826 -2.0744,1.79348 -3.86683,3.902471 -5.18862,5.736832 -1.31969,1.833312 -2.16979,3.390946 -2.98424,4.963255 -0.81236,1.572308 -1.59223,3.158244 -2.30501,4.773529 -1.3721,3.19598 -2.64462,6.291332 -3.63727,9.290249 -0.47169,1.487404 -0.83961,3.008351 -1.10691,4.546069 -0.26624,1.537718 -0.42976,3.092207 -0.50942,4.25886 -0.0797,1.167702 -0.0765,1.944422 -0.0346,2.721144 0.0398,0.775671 0.11636,1.550296 0.21803,2.321776 0.0985,0.775672 0.22222,1.549248 0.65723,2.791372 0.43395,1.243172 1.17713,2.9507 2.22115,4.467454 1.04401,1.516754 2.38781,2.835397 3.92029,3.874169 1.53352,1.038772 3.25363,1.798721 5.21272,2.350077 3.96956,1.101665 8.63617,1.427657 13.00929,1.167701 2.21276,-0.13417 4.41714,-0.430812 6.82906,-1.046109 2.41297,-0.616345 5.03034,-1.556586 7.44121,-2.879422 2.41192,-1.322835 4.61525,-3.027218 6.49364,-5.02405 1.88048,-1.994736 3.43602,-4.284018 4.79973,-6.791327 1.36477,-2.510453 2.53771,-5.237885 3.65405,-7.984185 1.11529,-2.747347 2.17398,-5.511466 2.90982,-7.56595 0.73584,-2.053435 1.14988,-3.395138 1.46329,-4.759902 0.31446,-1.366861 0.53144,-2.754686 0.65828,-4.151944 0.25785,-2.75783 0.17295,-5.887774 -0.90146,-8.994656 z m -15.19165,8.552313 c -0.84171,3.134136 -1.68342,6.267223 -2.70332,9.344756 -1.01991,3.077532 -2.21591,6.094269 -3.41191,9.113101 -0.87316,2.069159 -2.0744,4.177101 -3.6226,6.119428 -1.02829,1.287196 -2.09327,2.183412 -3.26621,2.845879 -1.3438,0.764142 -2.74945,1.181328 -4.1226,1.353233 -2.09012,0.261004 -4.2316,-0.05136 -5.91607,-0.818648 -0.91823,-0.425572 -1.85952,-1.068122 -2.61842,-1.887819 -1.15302,-1.273572 -1.5199,-2.603745 -1.59537,-3.875219 -0.0681,-1.444427 0.10273,-2.884662 0.46645,-4.280872 1.71801,-6.776651 4.26411,-13.518712 7.81543,-20.159096 0.48427,-0.963301 1.1069,-1.858469 1.84274,-2.647768 0.73584,-0.790348 1.58908,-1.475874 2.51989,-2.019893 1.91088,-1.092231 3.83539,-1.578599 5.4622,-1.693902 2.43708,-0.125784 5.02615,0.087 7.10893,1.843796 0.62788,0.54297 1.14989,1.205437 1.53353,1.940229 0.38259,0.734792 0.62683,1.541911 0.71173,2.364752 0.0881,0.822842 0.0157,1.65931 -0.2044,2.458043 z"
     id="Shape"
     inkscape:connector-curvature="0"
     style="fill:#ffffff;fill-rule:evenodd;stroke:none;stroke-width:1.16467321" />
  <polygon
     id="polygon78"
     points="221.99581,1.7136001 203.89771,51.147902 216.51121,51.147902 229.67281,14.226301 230.87251,51.147902 250.07491,51.147902 268.52401,1.7136001 255.96001,1.7145001 242.93251,37.662301 241.90561,1.7136001 "
     style="fill:#ffffff;fill-rule:evenodd;stroke:none;stroke-width:1"
     transform="matrix(1.1646732,0,0,1.1646732,-22,16.00021)" />
  <path
     d="m 314.86718,64.13173 -0.32285,11.447457 H 329.606 l 1.02619,-57.586337 h -20.25553 l -37.81402,57.581096 h 15.63294 l 7.81018,-11.406577 z m 1.46958,-32.539456 -0.77567,20.946298 -11.89819,0.0304 z"
     id="path80"
     inkscape:connector-curvature="0"
     style="fill:#ffffff;fill-rule:evenodd;stroke:none;stroke-width:1.16467321" />
  <polygon
     id="polygon82"
     points="304.21981,51.146102 316.80811,51.146102 330.48001,14.486401 327.63601,51.155102 340.95421,51.155102 364.41181,15.003901 350.73721,51.150602 363.71611,51.150602 382.26961,1.7280001 359.92261,1.7280001 340.44121,33.627601 344.78101,1.7235001 322.68511,1.7235001 "
     style="fill:#ffffff;fill-rule:evenodd;stroke:none;stroke-width:1"
     transform="matrix(1.1646732,0,0,1.1646732,-22,16.00021)" />
  <polygon
     id="polygon84"
     points="390.95192,1.7244001 372.43261,51.152402 385.23692,51.152402 403.93802,1.7244001 "
     style="fill:#ffffff;fill-rule:evenodd;stroke:none;stroke-width:1"
     transform="matrix(1.1646732,0,0,1.1646732,-22,16.00021)" />
  <path
     d="m 471.38739,21.976032 c -0.27883,-0.738985 -0.70021,-1.422415 -1.23689,-2.003121 -1.71801,-1.784047 -3.90247,-2.293475 -6.05339,-1.777757 -0.71068,0.180291 -1.38992,0.491608 -1.99368,0.909842 -0.60377,0.417186 -1.13207,0.945482 -1.5482,1.5482 -0.8501,1.223257 -1.20754,2.73477 -1.03144,4.164523 0.086,0.725358 0.30503,1.433945 0.64255,2.082785 0.34172,0.648839 0.80083,1.235834 1.34695,1.724298 1.87733,1.603756 4.05131,1.965387 6.35632,1.143594 0.73898,-0.285113 1.42241,-0.716974 1.99578,-1.260993 1.85008,-1.812348 2.35322,-4.190727 1.522,-6.531371 m -2.03247,5.846892 c -0.48952,0.482175 -1.07232,0.868963 -1.70963,1.128918 -1.99788,0.752612 -3.86369,0.460164 -5.49889,-0.877348 -0.47903,-0.410897 -0.88468,-0.90565 -1.18552,-1.458054 -1.00523,-1.911928 -0.78825,-3.806036 0.2086,-5.378345 0.34381,-0.526199 0.78405,-0.989506 1.29348,-1.362667 0.50733,-0.372114 1.08489,-0.655129 1.69285,-0.828083 1.86057,-0.498946 3.75468,-0.08595 5.24732,1.380487 0.47903,0.489512 0.86163,1.072315 1.12368,1.705431 0.7893,2.040857 0.37106,4.108967 -1.17189,5.689661"
     id="path86"
     inkscape:connector-curvature="0"
     style="fill:none;fill-rule:evenodd;stroke:#ffffff;stroke-width:0.5823366" />
  <path
     d="m 467.86646,24.71185 c -0.24737,-0.321799 -0.53249,-0.414042 -0.81445,-0.490561 0.35639,-0.08281 0.89831,-0.265196 1.16455,-0.91718 0.22746,-0.617393 0.27673,-1.313402 -0.41928,-2.059724 -0.67924,-0.653033 -1.50103,-0.569176 -2.27251,-0.586996 v 0 l -2.58592,0.0021 0.008,6.851075 1.44338,0.0063 v -2.748397 0 c 0.65513,0.07337 1.36162,-0.262051 2.1048,0.416138 0.49161,0.725359 0.15723,1.302921 0.51362,2.32597 v 0 l 1.45386,-0.0021 v 0 c -0.42662,-0.916132 -0.044,-1.820734 -0.59643,-2.796614 v 0 0 z m -1.38782,-1.19181 c -0.67924,0.264148 -1.39202,0.09539 -2.08803,0.127881 v 0 -1.820734 0 c 0.71069,0.04612 1.36162,-0.144652 2.1331,0.146749 0.51362,0.330185 0.64465,1.079652 -0.0451,1.546104 z"
     id="path88"
     inkscape:connector-curvature="0"
     style="fill:#ffffff;fill-rule:evenodd;stroke:none;stroke-width:1.16467321" />
  <path
     d="m 110.77166,101.15471 c 1.02401,0 2.01992,-0.22584 2.98773,-0.67751 0.9678,-0.45168 1.76391,-1.05821 2.3883,-1.8196 v 0 l -1.77952,-1.8196 c -0.46205,0.55491 -0.99279,0.98078 -1.5922,1.27759 -0.59942,0.29681 -1.24254,0.44522 -1.92937,0.44522 -0.61191,0 -1.17699,-0.11291 -1.69523,-0.33875 -0.51825,-0.22584 -0.96781,-0.53233 -1.34869,-0.91948 -0.38089,-0.38715 -0.68059,-0.84851 -0.89913,-1.38406 -0.21854,-0.53556 -0.32781,-1.11305 -0.32781,-1.73249 0,-0.63235 0.1061,-1.2163 0.31845,-1.75185 0.21229,-0.53556 0.50575,-1.00014 0.88039,-1.39374 0.37463,-0.3936 0.82108,-0.70332 1.33932,-0.92916 0.51825,-0.22583 1.07084,-0.33875 1.65776,-0.33875 0.69933,0 1.36118,0.15808 1.98558,0.47426 0.6244,0.31617 1.16761,0.77107 1.62966,1.3647 v 0 l 1.83572,-1.87768 c -0.6119,-0.774295 -1.41113,-1.390507 -2.39767,-1.848632 -0.98654,-0.458127 -2.0043,-0.68719 -3.05329,-0.68719 -0.97405,0 -1.88878,0.18067 -2.7442,0.542009 -0.85542,0.361338 -1.59532,0.851727 -2.21972,1.471166 -0.62439,0.619437 -1.11766,1.358247 -1.47981,2.216427 -0.36215,0.85818 -0.54322,1.77766 -0.54322,2.75844 0,0.98077 0.17795,1.89703 0.53385,2.74876 0.35591,0.85172 0.84605,1.58731 1.47044,2.20675 0.6244,0.61943 1.3643,1.10982 2.21973,1.47116 0.85542,0.36134 1.7764,0.54201 2.76293,0.54201 z m 35.49676,0.0194 c 0.97406,0 1.88568,-0.18067 2.73485,-0.54201 0.84918,-0.36134 1.58284,-0.85495 2.20099,-1.48084 0.61815,-0.6259 1.10829,-1.36793 1.47044,-2.22611 0.36215,-0.85818 0.54322,-1.77121 0.54322,-2.73908 0,-0.96787 -0.18107,-1.8809 -0.54322,-2.73908 -0.36215,-0.85818 -0.85229,-1.60022 -1.47044,-2.226107 -0.61815,-0.625891 -1.35181,-1.119506 -2.20099,-1.480844 -0.84917,-0.361339 -1.76079,-0.542009 -2.73485,-0.542009 -0.96157,0 -1.86692,0.18067 -2.71611,0.542009 -0.84918,0.361338 -1.58283,0.854953 -2.20098,1.480844 -0.61815,0.625887 -1.1083,1.367927 -1.47044,2.226107 -0.36216,0.85818 -0.54323,1.77121 -0.54323,2.73908 0,0.96787 0.18107,1.8809 0.54323,2.73908 0.36214,0.85818 0.85229,1.60021 1.47044,2.22611 0.61815,0.62589 1.3518,1.1195 2.20098,1.48084 0.84919,0.36134 1.75454,0.54201 2.71611,0.54201 z m 0,-2.57454 c -0.58693,0 -1.13327,-0.11292 -1.63902,-0.33876 -0.50576,-0.22583 -0.94284,-0.53555 -1.31124,-0.92915 -0.36838,-0.39361 -0.65872,-0.86141 -0.87102,-1.40342 -0.2123,-0.54201 -0.31845,-1.12273 -0.31845,-1.74217 0,-0.63234 0.10611,-1.21629 0.31845,-1.75185 0.2123,-0.53556 0.50264,-1.00013 0.87102,-1.39374 0.3684,-0.3936 0.80548,-0.70332 1.31124,-0.92915 0.50575,-0.22584 1.05209,-0.33876 1.63902,-0.33876 0.58694,0 1.13641,0.11292 1.64841,0.33876 0.512,0.22583 0.95219,0.53555 1.32059,0.92915 0.36838,0.39361 0.65874,0.85818 0.87102,1.39374 0.2123,0.53556 0.31845,1.11951 0.31845,1.75185 0,0.61944 -0.10611,1.20016 -0.31845,1.74217 -0.21228,0.54201 -0.50264,1.00981 -0.87102,1.40342 -0.3684,0.3936 -0.80859,0.70332 -1.32059,0.92915 -0.512,0.22584 -1.06147,0.33876 -1.64841,0.33876 z m 41.1725,2.36161 v -2.47776 h -7.17428 v -11.0725 h -2.71611 v 13.55021 z m 34.24173,0 v -2.47776 h -7.17428 v -11.0725 h -2.71611 v 13.55021 z m 34.50397,0 V 98.52214 H 248.7501 V 95.3088 h 4.85154 V 92.94719 H 248.7501 V 89.85 h 7.3616 v -2.43904 h -10.07771 v 13.55021 z m 30.12073,0.19357 c 1.02402,0 2.01992,-0.22584 2.98773,-0.67751 0.9678,-0.45167 1.76391,-1.05821 2.38831,-1.8196 v 0 l -1.77953,-1.8196 c -0.46205,0.55491 -0.99279,0.98078 -1.5922,1.27759 -0.59942,0.29682 -1.24254,0.44522 -1.92937,0.44522 -0.61191,0 -1.17699,-0.11291 -1.69523,-0.33875 -0.51825,-0.22584 -0.96781,-0.53233 -1.34869,-0.91948 -0.38089,-0.38715 -0.68059,-0.8485 -0.89913,-1.38406 -0.21854,-0.53555 -0.32781,-1.11305 -0.32781,-1.73249 0,-0.63234 0.1061,-1.21629 0.31844,-1.75185 0.2123,-0.53556 0.50576,-1.00013 0.8804,-1.39374 0.37463,-0.3936 0.82108,-0.70332 1.33932,-0.92915 0.51825,-0.22584 1.07084,-0.33876 1.65776,-0.33876 0.69933,0 1.36119,0.15809 1.98558,0.47426 0.6244,0.31617 1.16761,0.77107 1.62966,1.3647 v 0 l 1.83572,-1.87767 c -0.6119,-0.774303 -1.41113,-1.390515 -2.39766,-1.84864 -0.98655,-0.458127 -2.00431,-0.68719 -3.0533,-0.68719 -0.97405,0 -1.88878,0.18067 -2.7442,0.542009 -0.85542,0.361338 -1.59532,0.851727 -2.21972,1.471166 -0.62439,0.619435 -1.11766,1.358245 -1.47981,2.216425 -0.36215,0.85818 -0.54322,1.77766 -0.54322,2.75844 0,0.98078 0.17795,1.89703 0.53386,2.74876 0.3559,0.85173 0.84604,1.58731 1.47044,2.20675 0.6244,0.61944 1.3643,1.10982 2.21972,1.47116 0.85542,0.36134 1.77639,0.54201 2.76293,0.54201 z m 35.9276,-0.19357 V 89.88867 h 4.40197 v -2.47775 h -11.53879 v 2.47775 h 4.4207 v 11.07246 z m 31.11352,0 V 87.41092 h -2.71611 v 13.55021 z m 31.2821,0.21293 c 0.97406,0 1.88567,-0.18067 2.73485,-0.54201 0.84917,-0.36134 1.58283,-0.85495 2.20098,-1.48084 0.61815,-0.6259 1.1083,-1.36793 1.47045,-2.22611 0.36214,-0.85818 0.54322,-1.77121 0.54322,-2.73908 0,-0.96787 -0.18108,-1.8809 -0.54322,-2.73908 -0.36215,-0.85818 -0.8523,-1.60022 -1.47045,-2.226107 -0.61815,-0.625891 -1.35181,-1.119506 -2.20098,-1.480844 -0.84918,-0.361339 -1.76079,-0.542009 -2.73485,-0.542009 -0.96157,0 -1.86694,0.18067 -2.7161,0.542009 -0.84918,0.361338 -1.58284,0.854953 -2.20099,1.480844 -0.61815,0.625887 -1.1083,1.367927 -1.47045,2.226107 -0.36215,0.85818 -0.54323,1.77121 -0.54323,2.73908 0,0.96787 0.18108,1.8809 0.54323,2.73908 0.36215,0.85818 0.8523,1.60021 1.47045,2.22611 0.61815,0.62589 1.35181,1.1195 2.20099,1.48084 0.84916,0.36134 1.75453,0.54201 2.7161,0.54201 z m 0,-2.57454 c -0.58693,0 -1.13328,-0.11292 -1.63903,-0.33876 -0.50576,-0.22583 -0.94283,-0.53555 -1.31123,-0.92915 -0.36839,-0.39361 -0.65873,-0.86141 -0.87103,-1.40342 -0.21229,-0.54201 -0.31844,-1.12273 -0.31844,-1.74217 0,-0.63234 0.1061,-1.21629 0.31844,-1.75185 0.2123,-0.53556 0.50264,-1.00013 0.87103,-1.39374 0.3684,-0.3936 0.80547,-0.70332 1.31123,-0.92915 0.50575,-0.22584 1.0521,-0.33876 1.63903,-0.33876 0.58693,0 1.1364,0.11292 1.6484,0.33876 0.51201,0.22583 0.95219,0.53555 1.32059,0.92915 0.36839,0.39361 0.65874,0.85818 0.87103,1.39374 0.21229,0.53556 0.31844,1.11951 0.31844,1.75185 0,0.61944 -0.1061,1.20016 -0.31844,1.74217 -0.21229,0.54201 -0.50264,1.00981 -0.87103,1.40342 -0.3684,0.3936 -0.80858,0.70332 -1.32059,0.92915 -0.512,0.22584 -1.06147,0.33876 -1.6484,0.33876 z m 33.84836,2.36161 v -9.05929 l 6.68726,9.05929 h 2.39767 V 87.41092 h -2.54753 v 8.76892 l -6.51866,-8.76892 h -2.585 v 13.55021 z"
     id="COLLECTION"
     inkscape:connector-curvature="0"
     style="fill:#ffffff;fill-rule:nonzero;stroke:none;stroke-width:1.16467321" />
</svg>
