<?xml version="1.0" encoding="UTF-8" standalone="no"?>
<svg
   version="1.1"
   viewBox="0 0 500 200"
   id="svg314"
   sodipodi:docname="lowresnx.svg"
   width="500"
   height="200"
   inkscape:version="1.2.2 (b0a8486541, 2022-12-01)"
   xmlns:inkscape="http://www.inkscape.org/namespaces/inkscape"
   xmlns:sodipodi="http://sodipodi.sourceforge.net/DTD/sodipodi-0.dtd"
   xmlns="http://www.w3.org/2000/svg"
   xmlns:svg="http://www.w3.org/2000/svg">
  <defs
     id="defs318" />
  <sodipodi:namedview
     id="namedview316"
     pagecolor="#505050"
     bordercolor="#ffffff"
     borderopacity="1"
     inkscape:showpageshadow="0"
     inkscape:pageopacity="0"
     inkscape:pagecheckerboard="1"
     inkscape:deskcolor="#505050"
     showgrid="false"
     inkscape:zoom="1.5827407"
     inkscape:cx="381.61653"
     inkscape:cy="71.079237"
     inkscape:window-width="1670"
     inkscape:window-height="910"
     inkscape:window-x="0"
     inkscape:window-y="0"
     inkscape:window-maximized="1"
     inkscape:current-layer="svg314" />
  <g
     stroke-width="2"
     fill="none"
     stroke-linecap="butt"
     id="g202"
     transform="matrix(0.85422888,0,0,0.85422888,-6.6987598,59.391218)">
    <path
       stroke="#bbb9b7"
       stroke-opacity="0.843"
       vector-effect="non-scaling-stroke"
       d="m 92.29,29.5 q 1.37,0.34 1.42,-1"
       id="path2" />
    <path
       stroke="#bebdbc"
       vector-effect="non-scaling-stroke"
       d="m 102.54,19.5 q 0.97,-0.1 0.96,-0.96"
       id="path4" />
    <path
       stroke="#c6c6c4"
       vector-effect="non-scaling-stroke"
       d="m 146.04,20.25 q 0.24,1.28 1.46,1.46"
       id="path6" />
    <path
       stroke="#c6c6c4"
       vector-effect="non-scaling-stroke"
       d="m 152.04,26.5 q 0.43,1.09 1.46,1.21"
       id="path8" />
    <path
       stroke="#bbb9b7"
       stroke-opacity="0.843"
       vector-effect="non-scaling-stroke"
       d="m 154.75,28.54 q -0.64,1.31 0.32,1.33 a 0.58,0.56 -87.9 0 0 0.57,-0.55 l 0.07,-1.07"
       id="path10" />
    <path
       stroke="#c6c6c4"
       vector-effect="non-scaling-stroke"
       d="m 280.25,26.54 q 0.09,1.16 1.25,1.17"
       id="path12" />
    <path
       stroke="#bbb9b7"
       stroke-opacity="0.843"
       vector-effect="non-scaling-stroke"
       d="m 282.54,28.5 q 0.92,3.2 1.17,-0.25"
       id="path14" />
    <path
       stroke="#bbb9b7"
       stroke-opacity="0.843"
       vector-effect="non-scaling-stroke"
       d="m 350.04,28 q 1.23,-0.42 1.67,-1.5"
       id="path16" />
    <path
       stroke="#bbb9b7"
       stroke-opacity="0.843"
       vector-effect="non-scaling-stroke"
       d="m 352.54,25.5 q 1.05,0.03 1.17,-1"
       id="path18" />
    <path
       stroke="#ffffff"
       vector-effect="non-scaling-stroke"
       d="m 356.25,21.96 q 2.33,0.37 1.96,-1.96"
       id="path20" />
    <path
       stroke="#bfc3bf"
       stroke-opacity="0.929"
       vector-effect="non-scaling-stroke"
       d="m 409.71,72 q -1.46,0.29 -1.67,1.75"
       id="path22" />
    <path
       stroke="#bfc3bf"
       stroke-opacity="0.929"
       vector-effect="non-scaling-stroke"
       d="m 407.71,74.25 q -1.47,-0.11 -1.46,1.46"
       id="path24" />
    <path
       stroke="#bfc3bf"
       stroke-opacity="0.929"
       vector-effect="non-scaling-stroke"
       d="m 405.75,76.04 q -1.38,0.55 -2,1.92"
       id="path26" />
    <path
       stroke="#bbb9b7"
       stroke-opacity="0.843"
       vector-effect="non-scaling-stroke"
       d="m 403.46,78.25 q -1.07,0.47 -1.67,1.5"
       id="path28" />
    <path
       stroke="#bfc3bf"
       stroke-opacity="0.929"
       vector-effect="non-scaling-stroke"
       d="m 401.46,80.25 q -1.1,0.02 -1.21,1.21"
       id="path30" />
    <path
       stroke="#c6c6c4"
       vector-effect="non-scaling-stroke"
       d="m 199.5,81.46 q -0.91,-2.29 -3.21,-3.21"
       id="path32" />
    <path
       stroke="#ff7a00"
       vector-effect="non-scaling-stroke"
       d="m 571.96,31 -0.67,4.85 q -0.08,0.59 -0.48,0.11 c -2.33,-2.8 -4.61,-0.66 -7.56,-1"
       id="path34" />
    <path
       stroke="#915311"
       vector-effect="non-scaling-stroke"
       d="m 563.25,34.96 c 0.95,-2.34 0.82,-4.53 0.88,-7 0.07,-2.66 -2.31,-1.94 -4.03,-1.99 q -5.9,-0.15 -11.79,0.3 a 1.4,1.26 17.7 0 0 -0.86,0.39 l -6.57,6.62 a 1.23,1.13 -43.7 0 1 -1.71,0.03 l -5.55,-6.11 a 2.93,2.1 63 0 0 -1.84,-0.95 l -14.57,-0.23 a 1.37,1.14 -87.5 0 0 -1.17,1.29 l -0.31,5.2"
       id="path36" />
    <path
       stroke="#ff7a00"
       vector-effect="non-scaling-stroke"
       d="m 515.73,32.51 q -6.72,-0.27 -13.98,-0.32 c -0.86,0 -1.79,-0.72 -1.71,1.06"
       id="path38" />
    <path
       stroke="#915311"
       vector-effect="non-scaling-stroke"
       d="m 500.04,33.25 -0.03,-6.56 A 0.7,0.69 89.6 0 0 499.32,26 h -14.33 a 1.06,1.06 88.5 0 0 -1.06,1.12 q 0.4,7.74 -0.37,14.14 -0.06,0.49 -0.4,0.13 L 469.28,26.9 a 1.98,1.73 65.9 0 0 -1.32,-0.61 L 452.79,26.01 A 0.81,0.78 -89.7 0 0 452,26.82 l -0.04,19.43"
       id="path40" />
    <path
       stroke="#ff7800"
       vector-effect="non-scaling-stroke"
       d="m 451.96,46.25 q -0.37,-5.68 -5.69,-3.86 a 1.23,0.82 40.7 0 1 -0.87,-0.11 q -0.69,-0.35 -0.81,0.65 -0.04,0.3 -0.05,0.01 -0.09,-1.97 -0.14,-3.94 c -0.08,-3.36 -0.16,1.74 -0.36,2.25"
       id="path42" />
    <path
       stroke="#bb641f"
       stroke-opacity="0.843"
       vector-effect="non-scaling-stroke"
       d="m 519.96,54 q -1.37,0.6 -1.96,1.96"
       id="path44" />
    <path
       stroke="#ff6600"
       vector-effect="non-scaling-stroke"
       d="m 515.96,66.5 q 0.1,-4.74 -1.53,-1.8 a 0.92,0.84 -71.9 0 1 -0.84,0.48 L 500,64.19"
       id="path46" />
    <path
       stroke="#ff6400"
       vector-effect="non-scaling-stroke"
       d="m 451.96,66.5 -0.31,-1.58 a 0.59,0.59 83.5 0 0 -0.59,-0.47 l -5.75,0.1 a 0.45,0.42 86.3 0 0 -0.41,0.5 q 0.12,1.14 -0.86,1.45"
       id="path48" />
    <path
       stroke="#bb641f"
       stroke-opacity="0.843"
       vector-effect="non-scaling-stroke"
       d="m 571.71,38 q -1.28,0.45 -1.46,1.71"
       id="path50" />
    <path
       stroke="#ff6600"
       vector-effect="non-scaling-stroke"
       d="m 568.04,50.25 q 0.92,3.2 -1.59,1.99 a 1.46,1.42 -36.9 0 0 -0.93,-0.12 l -2.96,0.61 a 0.98,0.91 -83.1 0 0 -0.66,0.56 q -0.33,0.79 -0.71,0.02 -0.96,-0.27 -1.94,-0.27"
       id="path52" />
    <path
       stroke="#914911"
       vector-effect="non-scaling-stroke"
       d="M 563.25,34.96 552.4,45.71 a 0.52,0.5 45 0 0 0.01,0.73 l 6.84,6.6"
       id="path54" />
    <path
       stroke="#913f11"
       vector-effect="non-scaling-stroke"
       d="m 559.25,53.04 3.87,4.12 a 1.67,1.08 29.5 0 1 0.44,0.84 q 0.76,6.65 0.37,14.75 A 1.31,1.31 -88.6 0 1 562.62,74 h -13.73 a 0.92,0.92 -88.8 0 1 -0.92,-0.96 c 0.16,-3.82 0.88,-9.43 -1.58,-12.5 q -2.3,-2.87 -5.8,-5.61 a 1.06,1 42 0 0 -1.36,0.03 l -6.19,5.86 q -1.05,1 -1.07,2.85 l -0.12,9.65 a 0.54,0.53 0.5 0 1 -0.54,0.52 h -14.62 a 0.54,0.54 89.5 0 1 -0.54,-0.53 l -0.19,-6.81"
       id="path56" />
    <path
       stroke="#914911"
       vector-effect="non-scaling-stroke"
       d="m 515.96,66.5 c 0.03,-3.99 -0.81,-9.53 2.04,-10.54"
       id="path58" />
    <path
       stroke="#383634"
       stroke-opacity="0.843"
       vector-effect="non-scaling-stroke"
       d="m 518,55.96 q 1.61,-0.35 1.96,-1.96"
       id="path60" />
    <path
       stroke="#914911"
       vector-effect="non-scaling-stroke"
       d="m 519.96,54 7.24,-7.06 A 1.34,1.29 -46.5 0 0 527.19,45 q -6.78,-5.89 -11.46,-12.49"
       id="path62" />
    <path
       stroke="#914911"
       vector-effect="non-scaling-stroke"
       d="M 500.04,33.25 500,64.19"
       id="path64" />
    <path
       stroke="#913f11"
       vector-effect="non-scaling-stroke"
       d="m 500,64.19 v 9.05 A 0.77,0.76 0 0 1 499.23,74 c -4.51,0 -8.83,-0.19 -12.91,0.14 q -3.11,0.26 -2.34,-3.4 0.85,-4.07 -1.9,-6.82 -6.36,-6.39 -13.43,-13.39 -0.59,-0.58 -0.59,0.25 L 468,73.13 a 0.81,0.79 -90 0 1 -0.79,0.81 L 452.86,74 A 0.88,0.86 89.7 0 1 452,73.13 l -0.04,-6.63"
       id="path66" />
    <path
       stroke="#914711"
       vector-effect="non-scaling-stroke"
       d="M 451.96,66.5 V 46.25"
       id="path68" />
    <path
       stroke="#919191"
       vector-effect="non-scaling-stroke"
       d="M 51.54,26.19 36.99,26.02 A 1.01,0.98 -89.7 0 0 36,27.03 V 73.32 A 0.68,0.68 -89.6 0 0 36.68,74 H 83.34 A 0.66,0.66 0 0 0 84,73.34 V 66.67 A 0.67,0.67 0 0 0 83.33,66 H 52.68 A 0.68,0.68 89.6 0 1 52,65.32 V 26.67 a 0.48,0.46 -90 0 0 -0.46,-0.48"
       id="path70" />
    <path
       stroke="#bebdbc"
       vector-effect="non-scaling-stroke"
       d="m 106.25,27.79 q -2.78,1.44 -4.29,4.21"
       id="path72" />
    <path
       stroke="#bebdbc"
       vector-effect="non-scaling-stroke"
       d="m 101.96,32 q -1.56,0.22 -1.67,1.75"
       id="path74" />
    <path
       stroke="#919191"
       vector-effect="non-scaling-stroke"
       d="m 100.29,33.75 q -0.67,16.28 -0.07,32.46"
       id="path76" />
    <path
       stroke="#bebdbc"
       vector-effect="non-scaling-stroke"
       d="m 100.22,66.21 c 1.18,2.27 5.18,6.14 7.39,7.45"
       id="path78" />
    <path
       stroke="#919191"
       vector-effect="non-scaling-stroke"
       d="m 107.61,73.66 q 16.18,0.81 32.64,0.05"
       id="path80" />
    <path
       stroke="#bebdbc"
       vector-effect="non-scaling-stroke"
       d="m 140.25,73.71 q 1.81,0.32 1.46,-1.46"
       id="path82" />
    <path
       stroke="#919191"
       vector-effect="non-scaling-stroke"
       d="m 141.71,72.25 q 0.06,-0.23 0.29,-0.29"
       id="path84" />
    <path
       stroke="#bebdbc"
       vector-effect="non-scaling-stroke"
       d="m 142,71.96 q 1.9,-0.02 2,-1.92"
       id="path86" />
    <path
       stroke="#919191"
       vector-effect="non-scaling-stroke"
       d="m 144,70.04 q 0.22,-0.04 0.25,-0.25"
       id="path88" />
    <path
       stroke="#bebdbc"
       vector-effect="non-scaling-stroke"
       d="m 144.25,69.79 q 1.59,0.02 1.71,-1.54"
       id="path90" />
    <path
       stroke="#919191"
       vector-effect="non-scaling-stroke"
       d="M 145.96,68.25 146.04,68"
       id="path92" />
    <path
       stroke="#c6c6c4"
       vector-effect="non-scaling-stroke"
       d="m 146.04,68 q 1.98,0.08 1.67,-1.75"
       id="path94" />
    <path
       stroke="#919191"
       vector-effect="non-scaling-stroke"
       d="m 147.71,66.25 q 0.73,-16.13 0,-32.25"
       id="path96" />
    <path
       stroke="#c6c6c4"
       vector-effect="non-scaling-stroke"
       d="m 147.71,34 q -0.53,-2.53 -2.7,-3.82 -0.42,-0.25 -0.69,-0.67 -0.76,-1.16 -2.03,-1.66 a 0.85,0.71 -84.9 0 1 -0.46,-0.66 q -0.11,-1.03 -1.64,-0.99"
       id="path98" />
    <path
       stroke="#919191"
       vector-effect="non-scaling-stroke"
       d="m 140.19,26.2 q -15.27,-0.35 -30.69,-0.24 -2.21,0.02 -3.25,1.83"
       id="path100" />
    <path
       stroke="#575756"
       vector-effect="non-scaling-stroke"
       d="m 140.19,26.2 q 3.24,4.59 7.52,7.8"
       id="path102" />
    <path
       stroke="#575756"
       vector-effect="non-scaling-stroke"
       d="M 147.71,66.25 Q 145.86,66.03 146.04,68"
       id="path104" />
    <path
       stroke="#4f4e4e"
       vector-effect="non-scaling-stroke"
       d="m 145.96,68.25 q -2.13,-0.56 -1.71,1.54"
       id="path106" />
    <path
       stroke="#4f4e4e"
       vector-effect="non-scaling-stroke"
       d="m 144,70.04 q -2.05,-0.17 -2,1.92"
       id="path108" />
    <path
       stroke="#4f4e4e"
       vector-effect="non-scaling-stroke"
       d="m 141.71,72.25 q -1.8,-0.34 -1.46,1.46"
       id="path110" />
    <path
       stroke="#4f4e4e"
       vector-effect="non-scaling-stroke"
       d="m 107.61,73.66 q -2.58,-4.68 -7.39,-7.45"
       id="path112" />
    <path
       stroke="#4f4e4e"
       vector-effect="non-scaling-stroke"
       d="m 100.29,33.75 q 1.7,0.22 1.75,-1.5"
       id="path114" />
    <path
       stroke="#4f4e4e"
       vector-effect="non-scaling-stroke"
       d="m 102.04,32.25 q 2.73,-1.64 4.21,-4.46"
       id="path116" />
    <path
       stroke="#7c7a79"
       vector-effect="non-scaling-stroke"
       d="M 102.04,32.25 101.96,32"
       id="path118" />
    <path
       stroke="#c6c6c4"
       vector-effect="non-scaling-stroke"
       d="m 195.16,49.24 q -2.21,-3.44 -4.5,-5.19 -0.38,-0.29 -0.6,-0.76 c -1.95,-4.18 -7.39,3.38 -8.52,5.46"
       id="path120" />
    <path
       stroke="#919191"
       vector-effect="non-scaling-stroke"
       d="m 181.54,48.75 q -0.2,1.42 -0.9,1.05 A 0.99,0.73 -80.7 0 1 180.23,49 L 180.02,26.81 A 0.82,0.8 89.6 0 0 179.22,26 H 164.68 A 0.68,0.68 0.4 0 0 164,26.68 v 46.41 a 0.87,0.79 89 0 0 0.82,0.87 l 6.87,-0.2 a 1.47,0.99 -60.6 0 0 0.85,-0.43 l 15.1,-14.98 a 0.52,0.52 -90 0 1 0.72,0 q 6.38,6.24 12.59,12.65 c 3.34,3.46 5.58,3.47 10.13,2.8 A 1.07,1.07 86 0 0 212,72.74 V 26.56 A 0.56,0.56 0 0 0 211.44,26 h -14.49 a 0.99,0.99 88.4 0 0 -0.99,1.05 q 0.66,11.36 -0.8,22.19"
       id="path122" />
    <path
       stroke="#575756"
       vector-effect="non-scaling-stroke"
       d="m 181.54,48.75 c 2.23,-1.32 6.86,-8.04 9.02,-3.31 q 0.59,1.28 4.6,3.8"
       id="path124" />
    <path
       stroke="#bebdbc"
       vector-effect="non-scaling-stroke"
       d="m 246.83,56.45 q 2.66,3.96 6.09,7.2 3.12,2.96 5.23,5.14 2.53,2.63 5.46,4.93"
       id="path126" />
    <path
       stroke="#919191"
       vector-effect="non-scaling-stroke"
       d="m 263.61,73.72 q 4.08,0.4 8.07,0.31 c 1.76,-0.04 4.6,0.86 4.45,-2.09 -0.11,-2.13 -0.06,-4.19 -0.44,-6.31"
       id="path128" />
    <path
       stroke="#c6c6c4"
       vector-effect="non-scaling-stroke"
       d="m 275.69,65.63 q -2.51,-3.67 -5.98,-6.38"
       id="path130" />
    <path
       stroke="#c6c6c4"
       vector-effect="non-scaling-stroke"
       d="M 269.71,59.25 C 268,57.21 264.55,53.11 262.05,52.16"
       id="path132" />
    <path
       stroke="#919191"
       vector-effect="non-scaling-stroke"
       d="m 262.05,52.16 -1.39,-1.23 q -0.44,-0.38 0.14,-0.45 l 6.95,-0.77"
       id="path134" />
    <path
       stroke="#bebdbc"
       vector-effect="non-scaling-stroke"
       d="m 267.75,49.71 q 2.78,-0.51 4.09,-2.95 a 1.96,1.59 -6.7 0 1 0.66,-0.68 q 1.18,-0.72 1.5,-2.04"
       id="path136" />
    <path
       stroke="#bebdbc"
       vector-effect="non-scaling-stroke"
       d="m 274,44.04 q 1.57,-0.27 1.5,-1.75"
       id="path138" />
    <path
       stroke="#919191"
       vector-effect="non-scaling-stroke"
       d="m 275.5,42.29 q 1.58,-4.05 0,-8.08"
       id="path140" />
    <path
       stroke="#bebdbc"
       vector-effect="non-scaling-stroke"
       d="m 275.5,34.21 q 0.46,-1.56 -0.75,-2.3 -0.11,-0.07 -0.74,-0.63 l -3.76,-3.32"
       id="path142" />
    <path
       stroke="#c6c6c4"
       vector-effect="non-scaling-stroke"
       d="m 270.25,27.96 q -0.5,-1.56 -2,-1.67"
       id="path144" />
    <path
       stroke="#919191"
       vector-effect="non-scaling-stroke"
       d="M 268.25,26.29 229.02,26.01 A 1.03,1.01 -89.7 0 0 228,27.04 v 46.11 a 0.85,0.85 0 0 0 0.85,0.85 h 14.16 a 1.05,1.01 -89.4 0 0 1.01,-1.03 l 0.26,-18.17 q 0.01,-0.54 0.43,-0.18 l 2.12,1.83"
       id="path146" />
    <path
       stroke="#575756"
       vector-effect="non-scaling-stroke"
       d="m 268.25,26.29 q 0.04,1.48 1.5,1.75"
       id="path148" />
    <path
       stroke="#4f4e4e"
       vector-effect="non-scaling-stroke"
       d="m 269.75,28.04 5.75,6.17"
       id="path150" />
    <path
       stroke="#4f4e4e"
       vector-effect="non-scaling-stroke"
       d="m 275.5,42.29 q -1.28,0.28 -1.75,1.67"
       id="path152" />
    <path
       stroke="#4f4e4e"
       vector-effect="non-scaling-stroke"
       d="m 273.75,43.96 q -3.52,2.34 -6,5.75"
       id="path154" />
    <path
       stroke="#575756"
       vector-effect="non-scaling-stroke"
       d="m 262.05,52.16 q 3.12,4.4 7.41,7.59"
       id="path156" />
    <path
       stroke="#575756"
       vector-effect="non-scaling-stroke"
       d="m 269.46,59.75 q 2.28,3.68 6.23,5.88"
       id="path158" />
    <path
       stroke="#4f4e4e"
       vector-effect="non-scaling-stroke"
       d="m 263.61,73.72 q -0.53,-1.9 -1.83,-3.02 c -5.21,-4.44 -9.87,-9.6 -14.95,-14.25"
       id="path160" />
    <path
       stroke="#8c8c89"
       vector-effect="non-scaling-stroke"
       d="m 269.71,59.25 q -0.3,0.15 -0.25,0.5"
       id="path162" />
    <path
       stroke="#7c7a79"
       vector-effect="non-scaling-stroke"
       d="m 274,44.04 -0.25,-0.08"
       id="path164" />
    <path
       stroke="#848381"
       vector-effect="non-scaling-stroke"
       d="m 270.25,27.96 -0.5,0.08"
       id="path166" />
    <path
       stroke="#919191"
       vector-effect="non-scaling-stroke"
       d="m 308.05,41.45 -0.01,-6.89 a 0.52,0.5 0 0 1 0.52,-0.5 L 339.26,34 A 0.74,0.74 -0.6 0 0 340,33.26 V 26.81 A 0.81,0.81 0 0 0 339.19,26 H 292.82 A 0.82,0.82 -89.6 0 0 292,26.82 v 46.36 a 0.82,0.82 0 0 0 0.82,0.82 h 46.4 A 0.78,0.78 -89.9 0 0 340,73.22 v -6.3 A 0.92,0.92 0 0 0 339.08,66 H 308.66 A 0.66,0.66 0.2 0 1 308,65.34 V 50.52 A 0.52,0.52 -89.9 0 1 308.52,50 h 14.82 A 0.66,0.66 0.1 0 0 324,49.34 V 42.92 A 0.92,0.92 0 0 0 323.08,42 l -14.52,-0.05 a 0.52,0.5 0.6 0 1 -0.51,-0.5"
       id="path168" />
    <path
       stroke="#bebdbc"
       vector-effect="non-scaling-stroke"
       d="m 362,28.04 q -3.54,2.09 -5.46,5.71"
       id="path170" />
    <path
       stroke="#919191"
       vector-effect="non-scaling-stroke"
       d="m 356.54,33.75 q -1.54,4.15 0,8.25"
       id="path172" />
    <path
       stroke="#bfc3bf"
       stroke-opacity="0.929"
       vector-effect="non-scaling-stroke"
       d="m 356.54,42 q 1.05,2.69 3.46,4.25"
       id="path174" />
    <path
       stroke="#bfc3bf"
       stroke-opacity="0.929"
       vector-effect="non-scaling-stroke"
       d="m 360,46.25 q 0.42,1.28 1.71,1.5"
       id="path176" />
    <path
       stroke="#919191"
       vector-effect="non-scaling-stroke"
       d="m 361.71,47.75 q 1.13,1.95 2.29,2 10.87,0.43 22.67,0.23 A 1.31,1.31 -0.4 0 1 388,51.29 V 65.5 a 0.5,0.5 0 0 1 -0.5,0.5 h -30.48 a 0.98,0.9 -0.6 0 0 -0.98,0.92 l 0.1,6.38 a 0.55,0.53 -0.5 0 0 0.55,0.52 l 39.4,-0.03"
       id="path178" />
    <path
       stroke="#bebdbc"
       vector-effect="non-scaling-stroke"
       d="m 396.09,73.79 q 4.73,-3.05 7.68,-7.52"
       id="path180" />
    <path
       stroke="#919191"
       vector-effect="non-scaling-stroke"
       d="m 403.77,66.27 q 0.59,-8.3 -0.05,-16.56"
       id="path182" />
    <path
       stroke="#c6c6c4"
       vector-effect="non-scaling-stroke"
       d="m 403.72,49.71 q -2.91,-4.84 -7.55,-7.59"
       id="path184" />
    <path
       stroke="#919191"
       vector-effect="non-scaling-stroke"
       d="m 396.17,42.12 -23.36,-0.18 a 0.6,0.51 0.1 0 1 -0.59,-0.5 l -0.1,-6.37 a 1.2,1.07 -0.5 0 1 1.19,-1.08 l 29.75,-0.17 a 0.64,0.63 6.2 0 0 0.62,-0.49 q 0.75,-3.38 0.21,-6.43 A 1.09,1.08 -4.4 0 0 402.83,26 q -19.46,-0.12 -38.83,0.25 -1.52,0.03 -2,1.79"
       id="path186" />
    <path
       stroke="#575756"
       vector-effect="non-scaling-stroke"
       d="m 396.17,42.12 q 2.81,4.74 7.55,7.59"
       id="path188" />
    <path
       stroke="#4f4e4e"
       vector-effect="non-scaling-stroke"
       d="m 403.77,66.27 q -1.38,0.53 -3.77,2.98 -3.17,3.26 -3.91,4.54"
       id="path190" />
    <path
       stroke="#484c48"
       stroke-opacity="0.929"
       vector-effect="non-scaling-stroke"
       d="M 361.71,47.75 Q 361.65,46.1 360,46.25"
       id="path192" />
    <path
       stroke="#484c48"
       stroke-opacity="0.929"
       vector-effect="non-scaling-stroke"
       d="M 360,46.25 Q 358.96,43.57 356.54,42"
       id="path194" />
    <path
       stroke="#4f4e4e"
       vector-effect="non-scaling-stroke"
       d="m 356.54,33.75 q 3.41,-2.22 5.46,-5.71"
       id="path196" />
    <path
       stroke="#919191"
       vector-effect="non-scaling-stroke"
       d="M 132,34.7 A 0.7,0.7 0 0 0 131.3,34 h -14.6 a 0.7,0.7 0 0 0 -0.7,0.7 v 30.6 a 0.7,0.7 0 0 0 0.7,0.7 h 14.6 A 0.7,0.7 0 0 0 132,65.3 V 34.7"
       id="path198" />
    <path
       stroke="#919191"
       vector-effect="non-scaling-stroke"
       d="m 259.996,34.544 a 0.53,0.53 0 0 0 -0.529,-0.531 l -14.94,-0.026 a 0.53,0.53 0 0 0 -0.5309,0.529 l -0.0121,6.94 a 0.53,0.53 0 0 0 0.529,0.531 l 14.94,0.026 a 0.53,0.53 0 0 0 0.5309,-0.529 l 0.0121,-6.94"
       id="path200" />
  </g>
  <path
     fill="#ffffff"
     d="m 72.138024,84.590971 q 1.170294,0.290437 1.213005,-0.854229 l 7.542841,-7.68806 q 0.828602,-0.08542 0.82006,-0.82006 l 0.307522,-0.239184 a 1.2984279,0.89694033 17.8 0 1 0.734637,-0.2221 q 16.13638,0 32.272771,-0.01708 2.1612,0 3.02397,1.939099 0.20501,1.093413 1.24717,1.247175 1.2728,0.640671 1.89639,1.828049 a 1.0507015,1.153209 88.6 0 0 0.58942,0.512538 q 1.07633,0.41003 1.39239,1.751169 0.36732,0.931109 1.24718,1.033617 l 1.06778,0.70901 q -0.54671,1.11904 0.27335,1.136124 a 0.47836818,0.49545275 2.1 0 0 0.48691,-0.469826 l 0.0598,-0.914025 0.20502,-7.568467 a 1.1275821,1.2215473 0.9 0 1 1.12758,-1.187379 h 96.73288 a 2.5968558,3.1777315 72 0 1 2.14411,0.837145 l 6.17608,6.45797 q 0.0769,0.990906 1.06778,0.999448 l 0.8884,0.674841 q 0.78589,2.733532 0.99945,-0.213558 l 0.20501,-7.568467 a 1.1275821,1.2215473 0.9 0 1 1.12759,-1.187379 l 52.5607,0.05125 a 1.1190398,1.1275821 2 0 1 1.11904,1.204463 q -0.32461,4.578667 0.25627,7.944328 a 0.77734829,0.52107962 86.8 0 0 0.45274,0.597961 q 0.65775,0.145219 0.93965,-1.255717 1.0507,-0.358776 1.42656,-1.281343 l 0.70901,-0.854229 q 0.89694,0.02563 0.99945,-0.854229 l 2.16974,-2.169741 q 1.99035,0.316064 1.67429,-1.674289 0.094,-1.742627 1.95618,-1.734084 21.68033,0.02563 43.42046,0.02563 a 0.57233335,0.56379106 0 0 1 0.57233,0.563791 q 0.0427,21.723041 -0.0512,42.950627 -0.009,1.89639 -1.90493,2.61394 -1.24718,0.24773 -1.42656,1.4949 l -0.2819,0.42712 q -1.25572,-0.094 -1.24717,1.24717 l -0.42712,0.2819 q -1.17883,0.46982 -1.70846,1.64012 -0.19647,0.0513 -0.24772,0.24772 -0.91403,0.40149 -1.42657,1.28135 l -0.28189,0.42711 q -0.93965,0.0171 -1.03362,1.03362 -1.26431,0.46128 -4.05763,0.46128 -82.21953,0 -164.43907,0 -1.04215,0 -2.9898,-0.46129 -0.77734,-1.95618 -2.74207,-2.74207 c -2.58831,-2.09286 -4.22843,-4.94599 -6.868,-6.56048 a 0.55524878,0.54670649 38.9 0 0 -0.67484,0.0683 l -8.79002,8.585 q -1.13612,1.1105 -2.7079,1.1105 H 17.809067 a 0.58941793,0.58941793 0 0 1 -0.589418,-0.58942 V 75.613025 a 0.8456866,0.8456866 0 0 1 0.845687,-0.845687 q 10.720572,0 21.61199,0 c 3.493797,0 4.074672,-0.384403 6.372548,1.708458 q 5.646453,5.142458 11.369786,11.301448 a 2.9983434,2.9983434 0 0 1 0.802975,2.041607 v 18.545309 a 0.57233335,0.57233335 0 0 0 0.572334,0.57233 h 12.446115 a 0.66629853,0.68338311 0.4 0 0 0.666298,-0.67484 z M 37.328197,81.763473 24.899167,81.618254 a 0.83714431,0.86277117 0.3 0 0 -0.845687,0.862771 v 39.542255 a 0.58087564,0.58087564 0 0 0 0.580876,0.58088 h 39.858319 a 0.56379106,0.56379106 0 0 0 0.563792,-0.5638 v -5.6977 a 0.57233335,0.57233335 0 0 0 -0.572334,-0.57234 H 38.302018 a 0.58087564,0.58087564 0 0 1 -0.580876,-0.58087 V 82.173503 a 0.39294529,0.41002986 0 0 0 -0.392945,-0.41003 z m 46.734862,1.366766 q -2.374756,1.23009 -3.664642,3.596304 -1.332597,0.18793 -1.426562,1.4949 -0.572333,13.906847 -0.0598,27.728267 c 1.00799,1.9391 4.424906,5.24497 6.312752,6.36401 q 13.821422,0.69192 27.882033,0.0427 1.54616,0.27335 1.24718,-1.24718 0.0512,-0.19647 0.24772,-0.24772 1.62304,-0.0171 1.70846,-1.64012 0.18793,-0.0342 0.21356,-0.21356 1.35822,0.0171 1.46073,-1.31551 l 0.0683,-0.21356 q 1.69137,0.0683 1.42656,-1.4949 0.62359,-13.77871 0,-27.548881 -0.45274,-2.1612 -2.30642,-3.263155 -0.35877,-0.213557 -0.58942,-0.572333 -0.64921,-0.990906 -1.73408,-1.41802 A 0.60650251,0.72609455 5.1 0 1 114.45648,82.6177 q -0.094,-0.879856 -1.40093,-0.845687 -13.04408,-0.29898 -26.216291,-0.205015 -1.887846,0.01709 -2.776244,1.563239 z m 75.949491,18.323211 q -1.88785,-2.938549 -3.84403,-4.433449 -0.32461,-0.247727 -0.51254,-0.649214 c -1.66574,-3.570677 -6.31275,2.887293 -7.27803,4.664093 q -0.17084,1.213 -0.7688,0.89694 a 0.62358709,0.8456866 9.3 0 1 -0.35024,-0.68339 l -0.17938,-18.955335 a 0.70046769,0.68338311 89.6 0 0 -0.68339,-0.691926 h -12.42049 a 0.58087564,0.58087564 0 0 0 -0.58087,0.580876 v 39.644765 a 0.74317913,0.67484082 89 0 0 0.70047,0.74318 l 5.86855,-0.17085 a 0.8456866,1.2557165 29.4 0 0 0.72609,-0.36732 l 12.89886,-12.79635 a 0.44419902,0.44419902 0 0 1 0.61504,0 q 5.44998,5.33039 10.75475,10.806 c 2.85312,2.95563 4.76659,2.96417 8.65333,2.39184 a 0.91402491,0.91402491 0 0 0 0.78589,-0.90548 V 82.079538 a 0.47836818,0.47836818 0 0 0 -0.47836,-0.478369 h -12.37778 a 0.8456866,0.8456866 0 0 0 -0.84569,0.896941 q 0.56379,9.70404 -0.68338,18.95534 z m 44.13801,6.15899 q 2.27225,3.38274 5.20225,6.15045 2.66519,2.52851 4.46762,4.39073 2.1612,2.24662 4.66409,4.21135 3.48525,0.34169 6.89362,0.26481 c 1.50345,-0.0342 3.92946,0.73464 3.80132,-1.78534 -0.094,-1.8195 -0.0513,-3.57922 -0.37586,-5.39018 q -2.14411,-3.13502 -5.10829,-5.44998 c -1.46073,-1.74263 -4.40782,-5.24497 -6.54339,-6.05648 l -1.18738,-1.0507 q -0.37586,-0.32461 0.11959,-0.38441 l 5.9369,-0.65775 q 2.37475,-0.43566 3.49379,-2.519979 a 1.3582239,1.6742886 83.3 0 1 0.56379,-0.580876 q 1.00799,-0.615044 1.28135,-1.742626 1.34114,-0.230642 1.28134,-1.494901 1.34968,-3.459627 0,-6.902169 0.39294,-1.332597 -0.64067,-1.964727 -0.094,-0.0598 -0.63213,-0.538164 l -3.2119,-2.83604 q -0.42712,-1.332597 -1.70846,-1.426562 l -33.5114,-0.239184 a 0.86277117,0.87985575 0.3 0 0 -0.87131,0.879855 v 39.388493 a 0.72609455,0.72609455 0 0 0 0.72609,0.7261 h 12.09588 a 0.86277117,0.89694033 0.6 0 0 0.86277,-0.87986 l 0.2221,-15.52134 q 0.009,-0.46128 0.36732,-0.15376 z m 52.29589,-12.813434 -0.009,-5.885637 a 0.44419902,0.42711444 0 0 1 0.4442,-0.427115 l 26.22482,-0.05125 a 0.63212937,0.63212937 0 0 0 0.63213,-0.63213 v -5.509776 a 0.6919254,0.6919254 0 0 0 -0.69192,-0.691926 h -39.6106 a 0.70046769,0.70046769 0 0 0 -0.70046,0.700468 v 39.60205 a 0.70046769,0.70046769 0 0 0 0.70046,0.70047 h 39.63622 a 0.66629853,0.66629853 0 0 0 0.6663,-0.6663 v -5.38164 a 0.78589057,0.78589057 0 0 0 -0.78589,-0.78589 h -25.98564 a 0.56379106,0.56379106 0 0 1 -0.56379,-0.56379 v -12.65968 a 0.44419902,0.44419902 0 0 1 0.4442,-0.4442 h 12.65967 a 0.56379106,0.56379106 0 0 0 0.56379,-0.56379 v -5.484148 a 0.78589057,0.78589057 0 0 0 -0.78589,-0.78589 l -12.4034,-0.04271 a 0.44419902,0.42711444 0.6 0 1 -0.43566,-0.427114 z m 46.08565,-11.45521 q -3.02397,1.785339 -4.66409,4.877647 -1.31551,3.54505 0,7.047389 0.89694,2.297875 2.95563,3.630472 0.35878,1.093413 1.46073,1.281346 0.96528,1.66574 1.95619,1.70845 9.28546,0.36732 19.36536,0.19648 a 1.1190398,1.1190398 0 0 1 1.13613,1.11904 v 12.13859 a 0.42711444,0.42711444 0 0 1 -0.42712,0.42711 h -26.03689 a 0.768806,0.83714431 89.4 0 0 -0.83715,0.78589 l 0.0854,5.44999 a 0.45274131,0.46982589 89.5 0 0 0.46982,0.44419 l 33.65662,-0.0256 q 4.0405,-2.60539 6.56048,-6.4238 0.50399,-7.0901 -0.0427,-14.14603 -2.48581,-4.134464 -6.44943,-6.483594 L 311.76629,95.217575 A 0.51253733,0.43565673 0.1 0 1 311.2623,94.79046 l -0.0854,-5.441438 a 0.91402491,1.0250747 89.5 0 1 1.01654,-0.922567 l 25.41331,-0.145219 a 0.54670649,0.5381642 6.2 0 0 0.52962,-0.418572 q 0.64067,-2.887293 0.17939,-5.492692 a 0.9225672,0.93110948 85.6 0 0 -0.90549,-0.768806 q -16.62329,-0.102507 -33.1697,0.213558 -1.29843,0.02563 -1.70846,1.529069 z"
     id="path204"
     style="stroke-width:0.854229" />
  <path
     fill="#ff8300"
     d="m 481.88599,85.872314 -0.57233,4.14301 q -0.0683,0.503995 -0.41003,0.09396 c -1.99035,-2.391841 -3.93799,-0.563791 -6.45797,-0.854229 0.81152,-1.998895 0.70047,-3.869657 0.75172,-5.979602 0.0598,-2.272249 -1.97327,-1.657204 -3.44254,-1.699915 q -5.03995,-0.128135 -10.07136,0.256268 a 1.1959204,1.0763284 17.7 0 0 -0.73464,0.33315 l -5.61228,5.654995 a 0.96527864,1.0507015 46.3 0 1 -1.46073,0.02563 l -4.74097,-5.219339 a 2.5028906,1.7938807 63 0 0 -1.57178,-0.811517 l -12.44612,-0.196473 a 0.97382093,1.1702936 2.5 0 0 -0.99945,1.101955 l -0.26481,4.44199 q -5.74041,-0.230641 -11.94212,-0.273353 c -0.73463,0 -1.52907,-0.615045 -1.46073,0.905483 l -0.0256,-5.603742 a 0.59796022,0.58941793 89.6 0 0 -0.58942,-0.589418 h -12.2411 a 0.90548262,0.90548262 0 0 0 -0.90548,0.956737 q 0.34169,6.611731 -0.31607,12.078796 -0.0512,0.418572 -0.34169,0.11105 l -11.8567,-12.377777 a 1.6913732,1.477816 65.9 0 0 -1.12758,-0.521079 L 380.08756,81.60971 a 0.66629853,0.6919254 0.3 0 0 -0.67484,0.691925 l -0.0342,16.597667 q -0.31607,-4.85202 -4.86056,-3.297323 a 1.0507015,0.70046769 40.7 0 1 -0.74318,-0.09397 q -0.58942,-0.29898 -0.69193,0.555248 -0.0342,0.256269 -0.0427,0.0085 -0.0769,-1.682831 -0.11959,-3.365662 c -0.0683,-2.870209 -0.13668,1.486358 -0.30752,1.922015 l -0.0342,-19.288488 a 0.57233335,0.57233335 0 0 1 0.57233,-0.572334 h 108.32476 a 0.44419902,0.43565673 0 0 1 0.4442,0.435657 z"
     id="path206"
     style="stroke-width:0.854229" />
  <path
     fill="#7c7a79"
     d="m 81.71393,75.228622 q 0.0085,0.734637 -0.82006,0.82006 -0.623587,-1.443647 0.82006,-0.82006 z"
     id="path208"
     style="stroke-width:0.854229" />
  <path
     fill="#ffffff"
     d="m 299.29457,76.475796 q 0.31606,1.990353 -1.67429,1.674289 z"
     id="path210"
     style="stroke-width:0.854229" />
  <path
     fill="#8c8c89"
     d="m 118.05283,76.689353 q 1.15321,0.153762 1.24717,1.247175 -1.04216,-0.153762 -1.24717,-1.247175 z"
     id="path212"
     style="stroke-width:0.854229" />
  <path
     fill="#59534d"
     fill-opacity="0.686"
     d="m 295.45054,80.319826 q -0.10251,0.879856 -0.99945,0.854229 -0.68338,-1.435105 0.99945,-0.854229 z"
     id="path214"
     style="stroke-width:0.854229" />
  <path
     fill="#222222"
     d="m 37.328197,81.763473 a 0.39294529,0.41002986 0 0 1 0.392945,0.41003 v 33.015947 a 0.58087564,0.58087564 0 0 0 0.580876,0.58087 h 26.182115 a 0.57233335,0.57233335 0 0 1 0.572334,0.57234 v 5.6977 a 0.56379106,0.56379106 0 0 1 -0.563792,0.5638 H 24.634356 A 0.58087564,0.58087564 0 0 1 24.05348,122.02328 V 82.481025 a 0.83714431,0.86277117 0.3 0 1 0.845687,-0.862771 z"
     id="path216"
     style="stroke-width:0.854229" />
  <path
     fill="#222222"
     d="m 113.05559,81.772015 q 2.7677,3.920911 6.4238,6.662986 0.62359,13.770169 0,27.548879 -1.58032,-0.18793 -1.42656,1.4949 l -0.0683,0.21356 q -1.81951,-0.47837 -1.46073,1.31551 -0.0256,0.17939 -0.21356,0.21356 -1.75117,-0.14522 -1.70846,1.64012 -0.19647,0.0512 -0.24772,0.24772 -1.53762,-0.29043 -1.24718,1.24718 -14.060611,0.64921 -27.882029,-0.0427 -2.203911,-3.99779 -6.312752,-6.36401 -0.512537,-13.82142 0.0598,-27.728265 1.452189,0.187931 1.494901,-1.281343 2.332044,-1.400935 3.596303,-3.809861 0.888398,-1.546154 2.776244,-1.563239 13.172203,-0.09396 26.216283,0.205015 z m -6.99614,7.260946 a 0.59796022,0.59796022 0 0 0 -0.59796,-0.59796 H 92.989749 a 0.59796022,0.59796022 0 0 0 -0.59796,0.59796 v 26.139399 a 0.59796022,0.59796022 0 0 0 0.59796,0.59796 h 12.471741 a 0.59796022,0.59796022 0 0 0 0.59796,-0.59796 z"
     id="path218"
     style="stroke-width:0.854229" />
  <path
     fill="#222222"
     d="m 148.37795,101.03488 c 1.90493,-1.127586 5.86001,-6.868004 7.70515,-2.827501 q 0.50399,1.093413 3.92945,3.246071 1.24717,-9.2513 0.68338,-18.95534 a 0.8456866,0.8456866 0 0 1 0.84569,-0.896941 h 12.37778 a 0.47836818,0.47836818 0 0 1 0.47836,0.478369 v 39.448292 a 0.91402491,0.91402491 0 0 1 -0.78589,0.90548 c -3.88674,0.57233 -5.80021,0.56379 -8.65333,-2.39184 q -5.30477,-5.47561 -10.75475,-10.806 a 0.44419902,0.44419902 0 0 0 -0.61504,0 l -12.89886,12.79635 a 0.8456866,1.2557165 29.4 0 1 -0.72609,0.36732 l -5.86855,0.17085 a 0.74317913,0.67484082 89 0 1 -0.70047,-0.74318 V 82.182045 a 0.58087564,0.58087564 0 0 1 0.58087,-0.580876 h 12.42049 a 0.70046769,0.68338311 89.6 0 1 0.68339,0.691926 l 0.17938,18.955335 a 0.62358709,0.8456866 9.3 0 0 0.35024,0.68339 q 0.59796,0.31606 0.7688,-0.89694 z"
     id="path220"
     style="stroke-width:0.854229" />
  <path
     fill="#222222"
     d="m 222.44814,81.848896 q 0.0342,1.264259 1.28134,1.4949 l 4.91182,5.270593 q 1.34968,3.442542 0,6.902169 -1.09341,0.239184 -1.4949,1.426562 -3.00689,1.998896 -5.12537,4.91182 l -5.9369,0.65775 q -0.49545,0.0598 -0.11959,0.38441 l 1.18738,1.0507 q 2.66519,3.7586 6.32984,6.48359 1.94764,3.14357 5.32184,5.02287 c 0.32461,1.81096 0.2819,3.57068 0.37586,5.39018 0.12814,2.51998 -2.29787,1.75117 -3.80132,1.78534 q -3.40837,0.0769 -6.89362,-0.26481 -0.45274,-1.62303 -1.56324,-2.57977 c -4.45053,-3.79278 -8.43124,-8.2006 -12.77072,-12.17276 l -1.81097,-1.56324 q -0.35877,-0.30752 -0.36732,0.15376 l -0.2221,15.52134 a 0.86277117,0.89694033 0.6 0 1 -0.86277,0.87986 h -12.09588 a 0.72609455,0.72609455 0 0 1 -0.72609,-0.7261 V 82.489567 a 0.86277117,0.87985575 0.3 0 1 0.87131,-0.879855 z m -7.05081,7.050805 a 0.45274131,0.45274131 0 0 0 -0.45188,-0.453595 l -12.76218,-0.02221 a 0.45274131,0.45274131 0 0 0 -0.45351,0.451887 l -0.0103,5.928348 a 0.45274131,0.45274131 0 0 0 0.45189,0.453596 l 12.76218,0.02221 a 0.45274131,0.45274131 0 0 0 0.45351,-0.451887 z"
     id="path222"
     style="stroke-width:0.854229" />
  <path
     fill="#222222"
     d="m 256.88211,95.22612 12.4034,0.04271 a 0.78589057,0.78589057 0 0 1 0.78589,0.78589 v 5.48415 a 0.56379106,0.56379106 0 0 1 -0.56379,0.56379 h -12.65967 a 0.44419902,0.44419902 0 0 0 -0.4442,0.4442 v 12.65967 a 0.56379106,0.56379106 0 0 0 0.56379,0.56379 h 25.98564 a 0.78589057,0.78589057 0 0 1 0.78589,0.78589 v 5.38164 a 0.66629853,0.66629853 0 0 1 -0.6663,0.6663 h -39.63622 a 0.70046769,0.70046769 0 0 1 -0.70046,-0.70046 V 82.301637 a 0.70046769,0.70046769 0 0 1 0.70046,-0.700468 h 39.6106 a 0.6919254,0.6919254 0 0 1 0.69192,0.691926 v 5.509776 a 0.63212937,0.63212937 0 0 1 -0.63213,0.63213 l -26.22482,0.05125 a 0.44419902,0.42711444 0 0 0 -0.4442,0.427115 l 0.009,5.885637 a 0.44419902,0.42711444 0.6 0 0 0.43566,0.427114 z"
     id="path224"
     style="stroke-width:0.854229" />
  <path
     fill="#222222"
     d="m 331.7211,95.371339 q 2.40038,4.049045 6.44943,6.483601 0.5467,7.05593 0.0427,14.14603 -1.17884,0.45274 -3.22044,2.5456 -2.70791,2.78478 -3.34004,3.8782 l -33.65662,0.0256 a 0.45274131,0.46982589 89.5 0 1 -0.46982,-0.4442 l -0.0854,-5.44998 a 0.768806,0.83714431 89.4 0 1 0.83715,-0.78589 h 26.03689 a 0.42711444,0.42711444 0 0 0 0.42712,-0.42712 v -12.13859 a 1.1190398,1.1190398 0 0 0 -1.13613,-1.11904 q -10.0799,0.17084 -19.36536,-0.19648 -0.99091,-0.0427 -1.95619,-1.70845 -0.0513,-1.40948 -1.46073,-1.281346 -0.8884,-2.289333 -2.95563,-3.630472 -1.31551,-3.502339 0,-7.047389 2.91292,-1.896388 4.66409,-4.877647 0.41003,-1.503442 1.70846,-1.529069 16.54641,-0.316065 33.1697,-0.213558 a 0.9225672,0.93110948 85.6 0 1 0.90549,0.768806 q 0.46128,2.605399 -0.17939,5.492692 a 0.54670649,0.5381642 6.2 0 1 -0.52962,0.418572 l -25.41331,0.145219 a 0.91402491,1.0250747 89.5 0 0 -1.01654,0.922567 l 0.0854,5.441438 a 0.51253733,0.43565673 0.1 0 0 0.50399,0.427115 z"
     id="path226"
     style="stroke-width:0.854229" />
  <path
     fill="#222222"
     d="m 420.44985,87.794329 -0.0342,26.429841 v 7.73077 a 0.65775624,0.64921395 0 0 1 -0.65775,0.64922 c -3.85257,0 -7.54284,-0.16231 -11.0281,0.11959 q -2.65665,0.2221 -1.99889,-2.90438 0.72609,-3.47671 -1.62304,-5.82584 -5.43289,-5.45852 -11.47229,-11.43813 -0.504,-0.49545 -0.504,0.21356 l -0.0513,19.09202 a 0.67484082,0.6919254 0 0 1 -0.67484,0.69192 l -12.25819,0.0513 a 0.75172142,0.73463684 89.7 0 1 -0.73463,-0.74318 l -0.0342,-5.66354 V 98.899304 l 0.0342,-16.597667 a 0.66629853,0.6919254 0.3 0 1 0.67484,-0.691925 l 12.95865,0.239184 a 1.6913732,1.477816 65.9 0 1 1.12758,0.521079 l 11.8567,12.377777 q 0.29044,0.307522 0.34169,-0.11105 0.65776,-5.467065 0.31607,-12.078796 a 0.90548262,0.90548262 0 0 1 0.90548,-0.956737 h 12.2411 a 0.59796022,0.58941793 89.6 0 1 0.58942,0.589418 z"
     id="path228"
     style="stroke-width:0.854229" />
  <path
     fill="#222222"
     d="m 474.44566,89.25506 -9.26838,9.182961 a 0.44419902,0.42711444 45 0 0 0.009,0.623587 l 5.84293,5.637912 3.30586,3.51942 a 1.4265622,0.9225672 29.5 0 1 0.37586,0.71755 q 0.64922,5.68063 0.31607,12.59988 a 1.1190398,1.1190398 0 0 1 -1.11904,1.06779 h -11.72857 a 0.78589057,0.78589057 0 0 1 -0.78589,-0.82006 c 0.13668,-3.26316 0.75172,-8.05538 -1.34968,-10.67787 q -1.96472,-2.45163 -4.95453,-4.79222 a 0.90548262,0.85422888 42 0 0 -1.16175,0.0256 l -5.28767,5.00578 q -0.89694,0.85423 -0.91403,2.43455 l -0.10251,8.24331 a 0.4612836,0.45274131 0.5 0 1 -0.46128,0.4442 h -12.48883 a 0.4612836,0.4612836 0 0 1 -0.46128,-0.45274 l -0.1623,-5.8173 c 0.0256,-3.40837 -0.69193,-8.1408 1.74262,-9.00357 q 1.37531,-0.29898 1.67429,-1.67429 l 6.18462,-6.030855 a 1.1019553,1.1446667 43.5 0 0 -0.009,-1.657204 Q 437.8505,92.800113 433.8527,87.162202 l 0.26481,-4.44199 a 0.97382093,1.1702936 2.5 0 1 0.99945,-1.101955 l 12.44612,0.196473 a 2.5028906,1.7938807 63 0 1 1.57178,0.811517 l 4.74097,5.219339 a 0.96527864,1.0507015 46.3 0 0 1.46073,-0.02563 l 5.61228,-5.654995 a 1.1959204,1.0763284 17.7 0 1 0.73464,-0.33315 q 5.03141,-0.384403 10.07136,-0.256268 c 1.46927,0.04271 3.50234,-0.572334 3.44254,1.699915 -0.0512,2.109945 0.0598,3.980707 -0.75172,5.979602 z"
     id="path230"
     style="stroke-width:0.854229" />
  <path
     fill="#8c8c89"
     d="m 113.05559,81.772015 q 1.30697,-0.03417 1.40093,0.845687 a 0.60650251,0.72609455 5.1 0 0 0.39295,0.563791 q 1.08487,0.427114 1.73408,1.41802 0.23065,0.358776 0.58942,0.572333 1.85368,1.101955 2.30642,3.263155 -3.6561,-2.742075 -6.4238,-6.662986 z"
     id="path232"
     style="stroke-width:0.854229" />
  <path
     fill="#8c8c89"
     d="m 222.44814,81.848896 q 1.28134,0.09397 1.70846,1.426562 l -0.42712,0.06834 q -1.24717,-0.230641 -1.28134,-1.4949 z"
     id="path234"
     style="stroke-width:0.854229" />
  <path
     fill="#8c8c89"
     d="m 123.1782,82.028284 q 1.37531,-0.350234 1.24718,1.033617 -0.87986,-0.102508 -1.24718,-1.033617 z"
     id="path236"
     style="stroke-width:0.854229" />
  <path
     fill="#8c8c89"
     d="m 232.69889,82.062453 q 1.2728,-0.281895 1.06778,0.999448 -0.9909,-0.0085 -1.06778,-0.999448 z"
     id="path238"
     style="stroke-width:0.854229" />
  <path
     fill="#59534d"
     fill-opacity="0.686"
     d="m 293.74208,82.028284 q -0.37586,0.922567 -1.42656,1.281343 -0.14522,-1.580323 1.42656,-1.281343 z"
     id="path240"
     style="stroke-width:0.854229" />
  <path
     fill="#7c7a79"
     d="M 84.063059,83.130239 Q 82.7988,85.539165 80.466756,86.9401 l -0.06834,-0.213557 q 1.289886,-2.366214 3.664642,-3.596304 z"
     id="path242"
     style="stroke-width:0.854229" />
  <path
     fill="#7c7a79"
     d="m 223.72948,83.343796 0.42712,-0.06834 3.2119,2.83604 q 0.53816,0.478368 0.63213,0.538164 1.03361,0.63213 0.64067,1.964727 z"
     id="path244"
     style="stroke-width:0.854229" />
  <path
     fill="#7c7a79"
     d="m 302.5321,83.343796 q -1.75117,2.981259 -4.66409,4.877647 1.64012,-3.092308 4.66409,-4.877647 z"
     id="path246"
     style="stroke-width:0.854229" />
  <path
     fill="#59534d"
     fill-opacity="0.686"
     d="m 126.31322,83.523184 -0.0598,0.914025 a 0.47836818,0.49545275 2.1 0 1 -0.48691,0.469826 q -0.82006,-0.01708 -0.27335,-1.136124 0.45274,0.02563 0.82006,-0.247727 z"
     id="path248"
     style="stroke-width:0.854229" />
  <path
     fill="#59534d"
     fill-opacity="0.686"
     d="m 235.65452,83.523184 q -0.21356,2.94709 -0.99945,0.213558 0.56379,0.102507 0.99945,-0.213558 z"
     id="path250"
     style="stroke-width:0.854229" />
  <path
     fill="#59534d"
     fill-opacity="0.686"
     d="m 73.351029,83.736742 q -0.04271,1.144666 -1.213005,0.854229 -0.08542,-1.195921 1.213005,-0.854229 z"
     id="path252"
     style="stroke-width:0.854229" />
  <path
     fill="#ff7000"
     d="m 481.88599,85.872314 -0.21355,5.979602 q -1.09342,0.384403 -1.24718,1.460731 c -1.05924,0.478369 -0.23918,1.836593 -1.09341,1.665747 a 0.87131346,0.70900997 25.5 0 0 -0.70901,0.170846 l -2.16974,2.050149 q -1.3326,1.264259 -0.11105,2.639567 l 2.19537,2.477264 q 0.78589,2.73353 -1.35823,1.69991 a 1.213005,1.2471742 53.1 0 0 -0.79443,-0.1025 l -2.52852,0.52108 a 0.77734829,0.83714431 6.9 0 0 -0.56379,0.47837 q -0.28189,0.67484 -0.6065,0.0171 -0.82006,-0.23065 -1.6572,-0.23065 l -5.84293,-5.637906 a 0.44419902,0.42711444 45 0 1 -0.009,-0.623587 l 9.26838,-9.182961 c 2.51998,0.290438 4.46762,-1.537612 6.45797,0.854229 q 0.34169,0.41003 0.41003,-0.09396 z"
     id="path254"
     style="stroke-width:0.854229" />
  <path
     fill="#7c7a79"
     d="m 80.398417,86.726543 0.06834,0.213557 q -0.04271,1.469274 -1.494901,1.281343 0.09396,-1.30697 1.426562,-1.4949 z"
     id="path256"
     style="stroke-width:0.854229" />
  <path
     fill="#ff7000"
     d="m 433.8527,87.162199 q 3.9978,5.637911 9.78947,10.669319 a 1.1019553,1.1446667 43.5 0 1 0.009,1.657204 l -6.18462,6.030858 q -1.17029,0.51254 -1.67429,1.67429 c -2.43455,0.86277 -1.717,5.5952 -1.74262,9.00357 q 0.0854,-4.04905 -1.30697,-1.53761 a 0.71755226,0.78589057 18.1 0 1 -0.71756,0.41003 l -11.60897,-0.84569 0.0342,-26.429841 c -0.0683,-1.520528 0.7261,-0.905483 1.46073,-0.905483 q 6.20171,0.04271 11.94212,0.273353 z"
     id="path258"
     style="stroke-width:0.854229" />
  <rect
     fill="#ffffff"
     x="92.391792"
     y="88.434998"
     width="13.667663"
     height="27.335325"
     rx="0.59796023"
     id="rect260"
     style="stroke-width:0.854229" />
  <rect
     fill="#ffffff"
     x="201.88454"
     y="88.070854"
     transform="rotate(0.1)"
     width="13.667663"
     height="6.8338313"
     rx="0.4527413"
     id="rect262"
     style="stroke-width:0.854229" />
  <path
     fill="#ff6c00"
     d="m 379.37853,98.899304 v 17.298136 l -0.26481,-1.34968 a 0.50399504,0.50399504 0 0 0 -0.504,-0.40149 l -4.91181,0.0854 a 0.384403,0.35877613 86.3 0 0 -0.35024,0.42711 q 0.10251,0.97382 -0.73463,1.23864 V 94.62816 c 0.17084,-0.435657 0.23918,-4.792224 0.30752,-1.922015 q 0.0427,1.682831 0.11959,3.365662 0.009,0.247726 0.0427,-0.0085 0.10251,-0.854228 0.69193,-0.555248 a 1.0507015,0.70046769 40.7 0 0 0.74318,0.09397 q 4.54449,-1.554697 4.86056,3.297323 z"
     id="path264"
     style="stroke-width:0.854229" />
  <path
     fill="#59534d"
     fill-opacity="0.686"
     d="m 481.67244,91.851916 q 0.52108,1.759712 -1.24718,1.460731 0.15376,-1.076328 1.24718,-1.460731 z"
     id="path266"
     style="stroke-width:0.854229" />
  <path
     fill="#8c8c89"
     d="m 160.01255,101.45345 q -3.42546,-2.152658 -3.92945,-3.246071 c -1.84514,-4.040503 -5.80022,1.699915 -7.70515,2.827501 0.96528,-1.7768 5.61229,-8.23477 7.27803,-4.664093 q 0.18793,0.401487 0.51254,0.649214 1.95618,1.4949 3.84403,4.433449 z"
     id="path268"
     style="stroke-width:0.854229" />
  <path
     fill="#747d75"
     fill-opacity="0.859"
     d="m 297.86801,95.268832 q 2.06723,1.341139 2.95563,3.630472 -2.05869,-1.332597 -2.95563,-3.630472 z"
     id="path270"
     style="stroke-width:0.854229" />
  <path
     fill="#7c7a79"
     d="m 228.6413,95.516558 q 0.0598,1.264259 -1.28134,1.494901 l -0.21356,-0.06834 q 0.40149,-1.187378 1.4949,-1.426561 z"
     id="path272"
     style="stroke-width:0.854229" />
  <path
     fill="#8c8c89"
     d="m 331.7211,95.371339 q 3.96362,2.34913 6.44943,6.483601 -4.04905,-2.434556 -6.44943,-6.483601 z"
     id="path274"
     style="stroke-width:0.854229" />
  <path
     fill="#7c7a79"
     d="m 227.1464,96.94312 0.21356,0.06834 q -0.27336,1.127582 -1.28135,1.742626 a 1.3582239,1.6742886 83.3 0 0 -0.56379,0.580876 q -1.11904,2.084318 -3.49379,2.519978 2.11848,-2.912923 5.12537,-4.91182 z"
     id="path276"
     style="stroke-width:0.854229" />
  <path
     fill="#747d75"
     fill-opacity="0.859"
     d="m 300.82364,98.899304 q 1.40948,-0.128134 1.46073,1.281346 -1.10195,-0.187933 -1.46073,-1.281346 z"
     id="path278"
     style="stroke-width:0.854229" />
  <path
     fill="#ff5c00"
     d="m 420.41568,114.22417 11.60897,0.84569 a 0.71755226,0.78589057 18.1 0 0 0.71756,-0.41003 q 1.39239,-2.51144 1.30697,1.53761 l 0.1623,5.8173 a 0.4612836,0.4612836 0 0 0 0.46128,0.45274 h 12.48883 a 0.4612836,0.45274131 0.5 0 0 0.46128,-0.4442 l 0.10251,-8.24331 q 0.0171,-1.58032 0.91403,-2.43455 l 5.28767,-5.00578 a 0.90548262,0.85422888 42 0 1 1.16175,-0.0256 q 2.98981,2.34058 4.95453,4.79222 c 2.1014,2.62248 1.48636,7.41471 1.34968,10.67786 a 0.78589057,0.78589057 0 0 0 0.78589,0.82006 h 11.72857 a 1.1190398,1.1190398 0 0 0 1.11904,-1.06778 q 0.33315,-6.91926 -0.31607,-12.59988 a 1.4265622,0.9225672 29.5 0 0 -0.37586,-0.71755 l -3.30586,-3.51943 q 0.83714,0 1.6572,0.23065 0.32461,0.65775 0.6065,-0.0171 a 0.77734829,0.83714431 6.9 0 1 0.56379,-0.47837 l 2.52852,-0.52108 a 1.213005,1.2471742 53.1 0 1 0.79443,0.10251 q 2.14412,1.03361 1.35823,-1.69992 c 2.1612,1.23863 3.32295,2.66519 3.34003,5.34747 q 0.0769,10.65224 0.0427,21.0482 a 0.72609455,0.72609455 0 0 1 -0.72608,0.7261 H 373.32205 a 0.74317913,0.73463684 0 0 1 -0.74318,-0.73464 l 0.0342,-12.50591 q 0.83714,-0.26481 0.73463,-1.23863 a 0.384403,0.35877613 86.3 0 1 0.35024,-0.42712 l 4.91181,-0.0854 a 0.50399504,0.50399504 0 0 1 0.504,0.40149 l 0.26481,1.34968 0.0342,5.66354 a 0.75172142,0.73463684 89.7 0 0 0.73463,0.74318 l 12.25819,-0.0512 a 0.67484082,0.6919254 0 0 0 0.67484,-0.69193 l 0.0513,-19.09201 q 0,-0.70901 0.504,-0.21356 6.0394,5.9796 11.47229,11.43813 2.34913,2.34912 1.62304,5.82584 -0.65776,3.12647 1.99889,2.90437 c 3.48526,-0.28189 7.17553,-0.11959 11.0281,-0.11959 a 0.65775624,0.64921395 0 0 0 0.65775,-0.64921 z"
     id="path280"
     style="stroke-width:0.854229" />
  <path
     fill="#8c8c89"
     d="m 217.15192,103.9478 c 2.13557,0.81151 5.08266,4.31385 6.54339,6.05648 q -0.25626,0.12813 -0.21355,0.42711 -3.66465,-2.72499 -6.32984,-6.48359 z"
     id="path282"
     style="stroke-width:0.854229" />
  <path
     fill="#59534d"
     fill-opacity="0.686"
     d="m 437.46609,105.51958 q -0.29898,1.37531 -1.67429,1.67429 0.504,-1.16175 1.67429,-1.67429 z"
     id="path284"
     style="stroke-width:0.854229" />
  <path
     fill="#7c7a79"
     d="m 204.15056,107.61244 c 4.33948,3.97216 8.32019,8.37998 12.77072,12.17276 q 1.1105,0.95674 1.56324,2.57977 -2.50289,-1.96473 -4.66409,-4.21135 -1.80243,-1.86222 -4.46762,-4.39073 -2.93,-2.76771 -5.20225,-6.15045 z"
     id="path286"
     style="stroke-width:0.854229" />
  <path
     fill="#8c8c89"
     d="m 223.69531,110.00428 q 2.96418,2.31496 5.10829,5.44998 -3.3742,-1.8793 -5.32184,-5.02287 -0.0427,-0.29898 0.21355,-0.42711 z"
     id="path288"
     style="stroke-width:0.854229" />
  <path
     fill="#7c7a79"
     d="m 78.912059,115.94971 q 4.108841,2.36622 6.312752,6.36401 c -1.887846,-1.11904 -5.304762,-4.42491 -6.312752,-6.36401 z"
     id="path290"
     style="stroke-width:0.854229" />
  <path
     fill="#8c8c89"
     d="m 119.47939,115.98388 q 0.26481,1.56324 -1.42656,1.4949 -0.15376,-1.68283 1.42656,-1.4949 z"
     id="path292"
     style="stroke-width:0.854229" />
  <path
     fill="#7c7a79"
     d="m 338.21324,116.00097 q -2.51998,3.8184 -6.56048,6.4238 0.63213,-1.09342 3.34004,-3.8782 2.0416,-2.09286 3.22044,-2.5456 z"
     id="path294"
     style="stroke-width:0.854229" />
  <path
     fill="#7c7a79"
     d="m 117.98449,117.69234 q -0.10251,1.3326 -1.46073,1.31551 -0.35878,-1.79388 1.46073,-1.31551 z"
     id="path296"
     style="stroke-width:0.854229" />
  <path
     fill="#7c7a79"
     d="m 116.3102,119.22141 q -0.0854,1.62303 -1.70846,1.64012 -0.0427,-1.78534 1.70846,-1.64012 z"
     id="path298"
     style="stroke-width:0.854229" />
  <path
     fill="#747d75"
     fill-opacity="0.859"
     d="m 343.28736,120.8957 q 0.36732,1.64866 -1.42656,1.4949 0.17938,-1.24718 1.42656,-1.4949 z"
     id="path300"
     style="stroke-width:0.854229" />
  <path
     fill="#7c7a79"
     d="m 114.35402,121.10925 q 0.29898,1.52053 -1.24718,1.24718 -0.29044,-1.53761 1.24718,-1.24718 z"
     id="path302"
     style="stroke-width:0.854229" />
  <path
     fill="#747d75"
     fill-opacity="0.859"
     d="m 341.5789,122.81771 q 0.009,1.25572 -1.24717,1.24718 -0.009,-1.34114 1.24717,-1.24718 z"
     id="path304"
     style="stroke-width:0.854229" />
  <path
     fill="#747d75"
     fill-opacity="0.859"
     d="m 339.90461,124.34678 q -0.19647,1.44365 -1.70846,1.64012 0.52963,-1.17029 1.70846,-1.64012 z"
     id="path306"
     style="stroke-width:0.854229" />
  <path
     fill="#8c8c89"
     d="m 160.97783,126.23463 q 1.96473,0.78589 2.74207,2.74207 -1.92201,-0.81151 -2.74207,-2.74207 z"
     id="path308"
     style="stroke-width:0.854229" />
  <path
     fill="#59534d"
     fill-opacity="0.686"
     d="m 337.94843,126.23463 q 0.14522,1.39239 -1.42657,1.28134 0.51254,-0.87985 1.42657,-1.28134 z"
     id="path310"
     style="stroke-width:0.854229" />
  <path
     fill="#747d75"
     fill-opacity="0.859"
     d="m 336.23997,127.94309 q 0.11105,1.14466 -1.03362,1.03361 0.094,-1.01653 1.03362,-1.03361 z"
     id="path312"
     style="stroke-width:0.854229" />
</svg>
