<?xml version="1.0" encoding="UTF-8" standalone="no"?>
<svg
   id="svg864"
   width="500"
   height="200"
   version="1.1"
   viewBox="0 0 499.99362 200.0022"
   sodipodi:docname="mc10.svg"
   inkscape:version="1.2.2 (b0a8486541, 2022-12-01)"
   xmlns:inkscape="http://www.inkscape.org/namespaces/inkscape"
   xmlns:sodipodi="http://sodipodi.sourceforge.net/DTD/sodipodi-0.dtd"
   xmlns="http://www.w3.org/2000/svg"
   xmlns:svg="http://www.w3.org/2000/svg"
   xmlns:rdf="http://www.w3.org/1999/02/22-rdf-syntax-ns#"
   xmlns:cc="http://creativecommons.org/ns#"
   xmlns:dc="http://purl.org/dc/elements/1.1/">
  <defs
     id="defs2897" />
  <sodipodi:namedview
     id="namedview2895"
     pagecolor="#505050"
     bordercolor="#ffffff"
     borderopacity="1"
     inkscape:showpageshadow="0"
     inkscape:pageopacity="0"
     inkscape:pagecheckerboard="1"
     inkscape:deskcolor="#505050"
     inkscape:document-units="in"
     showgrid="false"
     inkscape:zoom="1.794608"
     inkscape:cx="202.82981"
     inkscape:cy="93.892372"
     inkscape:window-width="1670"
     inkscape:window-height="910"
     inkscape:window-x="0"
     inkscape:window-y="0"
     inkscape:window-maximized="1"
     inkscape:current-layer="svg864" />
  <metadata
     id="metadata870">
    <rdf:RDF>
      <cc:Work
         rdf:about="">
        <dc:format>image/svg+xml</dc:format>
        <dc:type
           rdf:resource="http://purl.org/dc/dcmitype/StillImage" />
      </cc:Work>
    </rdf:RDF>
  </metadata>
  <path
     id="path878"
     d="M 325.20062,93.980926 H 427.54583 V 139.2147 H 325.20062 Z"
     fill="#3f43ad"
     style="stroke-width:2.12108" />
  <path
     id="path876"
     d="M 197.79131,93.980926 H 300.1365 V 139.2147 H 197.79131 Z"
     fill="#00ab84"
     style="stroke-width:2.12108" />
  <path
     id="path874"
     d="M 70.381966,93.980926 H 172.72717 V 139.2147 H 70.381966 Z"
     fill="#ee3340"
     style="stroke-width:2.12108" />
  <path
     id="path1945"
     d="m 70.434176,152.13864 h 5.56989 l 11.33858,18.25764 11.155,-18.25764 h 5.600394 v 21.53988 h -2.78484 v -18.87303 h -1.16294 l -11.659844,18.87303 h -2.26454 l -11.78222,-18.87303 h -1.22414 v 18.87303 h -2.78484 z"
     dominant-baseline="auto"
     style="font-variant-ligatures:normal;font-variant-position:normal;font-variant-caps:normal;font-variant-numeric:normal;font-variant-alternates:normal;font-feature-settings:normal;text-indent:0;text-decoration-line:none;text-decoration-style:solid;text-decoration-color:#000000;text-transform:none;text-orientation:mixed;white-space:normal;shape-padding:0;fill:#ffffff;stroke-width:2.12108;paint-order:normal" />
  <path
     id="path1947"
     d="m 129.58553,152.07616 q 5.35559,0 7.5437,0.36295 2.20333,0.34715 3.21341,1.37287 0.64266,0.647 0.96401,1.54646 0.32135,0.88369 0.50495,2.49325 0.22954,2.03563 0.22954,5.14436 0,3.9767 -0.36723,6.02794 -0.35194,2.03564 -1.23945,2.98241 -0.91809,1.00991 -3.02963,1.38866 -2.09641,0.36295 -6.88574,0.36295 -2.35644,0 -5.23317,-0.079 -2.8615,-0.079 -3.76422,-0.1578 -1.56078,-0.1578 -2.4636,-0.52075 -0.90283,-0.36295 -1.60667,-1.13615 -0.93342,-1.00993 -1.25474,-2.84048 -0.30603,-1.83049 -0.30603,-6.18581 0,-5.14436 0.68858,-7.30613 0.82629,-2.55634 3.77946,-3.01407 2.70838,-0.42607 9.22693,-0.44185 z m -1.60666,2.58802 q -4.37619,0 -6.42666,0.36295 -1.19353,0.20514 -1.72909,0.7101 -0.52026,0.48921 -0.73447,1.60958 -0.35196,1.79892 -0.35196,5.27058 0,3.56636 0.18362,5.20749 0.19892,1.62536 0.70389,2.17768 0.39784,0.45761 1.14762,0.66277 0.74976,0.20513 2.3717,0.31559 2.67789,0.18936 6.2278,0.18936 5.0496,0 7.34484,-0.42605 1.80559,-0.3156 2.14215,-2.19341 0.35193,-2.01985 0.35193,-5.49158 0,-4.24489 -0.30603,-5.98077 -0.30602,-1.76737 -2.37168,-2.09876 -1.20884,-0.18938 -2.72365,-0.23672 -1.51487,-0.0632 -5.82991,-0.079 z"
     dominant-baseline="auto"
     style="font-variant-ligatures:normal;font-variant-position:normal;font-variant-caps:normal;font-variant-numeric:normal;font-variant-alternates:normal;font-feature-settings:normal;text-indent:0;text-decoration-line:none;text-decoration-style:solid;text-decoration-color:#000000;text-transform:none;text-orientation:mixed;white-space:normal;shape-padding:0;fill:#ffffff;stroke-width:2.12108;paint-order:normal" />
  <path
     id="path1949"
     d="m 153.83509,173.67852 v -21.53988 h 14.41417 q 4.78932,0 6.73265,0.41029 2.34118,0.48919 3.56536,2.57207 0.62739,1.05725 0.88751,2.84046 0.26012,1.76737 0.26012,4.9391 0,3.96075 -0.68858,6.28059 -1.07112,3.56637 -4.55999,4.18176 -1.80561,0.31561 -5.98303,0.31561 z m 2.78482,-2.52492 h 11.72105 q 3.01437,0 3.73351,-0.0317 0.73448,-0.0473 1.60665,-0.26827 1.6985,-0.41029 2.4329,-2.28817 0.73449,-1.87785 0.73449,-5.79121 0,-5.08125 -1.27004,-6.69071 -0.47436,-0.61543 -1.25474,-0.91526 -0.7804,-0.31561 -2.12691,-0.44186 -0.79567,-0.063 -3.99374,-0.063 h -11.58339 z"
     dominant-baseline="auto"
     style="font-variant-ligatures:normal;font-variant-position:normal;font-variant-caps:normal;font-variant-numeric:normal;font-variant-alternates:normal;font-feature-settings:normal;text-indent:0;text-decoration-line:none;text-decoration-style:solid;text-decoration-color:#000000;text-transform:none;text-orientation:mixed;white-space:normal;shape-padding:0;fill:#ffffff;stroke-width:2.12108;paint-order:normal" />
  <path
     id="path1951"
     d="m 191.48976,173.67852 v -21.53988 h 20.47363 v 2.5249 h -17.6888 v 6.58021 h 16.93897 v 2.52492 h -16.93897 v 7.38515 h 17.70404 v 2.52492 z"
     dominant-baseline="auto"
     style="font-variant-ligatures:normal;font-variant-position:normal;font-variant-caps:normal;font-variant-numeric:normal;font-variant-alternates:normal;font-feature-settings:normal;text-indent:0;text-decoration-line:none;text-decoration-style:solid;text-decoration-color:#000000;text-transform:none;text-orientation:mixed;white-space:normal;shape-padding:0;fill:#ffffff;stroke-width:2.12108;paint-order:normal" />
  <path
     id="path1953"
     d="m 223.0643,152.13864 h 2.78484 v 19.01496 h 16.49511 v 2.52492 h -19.28017 z"
     dominant-baseline="auto"
     style="font-variant-ligatures:normal;font-variant-position:normal;font-variant-caps:normal;font-variant-numeric:normal;font-variant-alternates:normal;font-feature-settings:normal;text-indent:0;text-decoration-line:none;text-decoration-style:solid;text-decoration-color:#000000;text-transform:none;text-orientation:mixed;white-space:normal;shape-padding:0;fill:#ffffff;stroke-width:2.12108;paint-order:normal" />
  <path
     id="path1955"
     d="m 269.91333,152.13864 h 5.56989 l 11.33858,18.25764 11.15501,-18.25764 h 5.60038 v 21.53988 h -2.78485 v -18.87303 h -1.16293 l -11.65983,18.87303 h -2.26455 L 273.9228,154.80549 h -1.22413 v 18.87303 h -2.78483 z"
     dominant-baseline="auto"
     style="font-variant-ligatures:normal;font-variant-position:normal;font-variant-caps:normal;font-variant-numeric:normal;font-variant-alternates:normal;font-feature-settings:normal;text-indent:0;text-decoration-line:none;text-decoration-style:solid;text-decoration-color:#000000;text-transform:none;text-orientation:mixed;white-space:normal;shape-padding:0;fill:#ffffff;stroke-width:2.12108;paint-order:normal" />
  <path
     id="path1957"
     d="m 337.06433,166.30972 h 2.70838 q -0.10711,2.93502 -0.33665,4.03981 -0.50495,2.39868 -3.10627,2.95095 -2.11165,0.44185 -7.51318,0.44185 -7.00815,0 -9.47173,-0.50495 -2.3412,-0.48919 -3.15223,-2.5249 -0.811,-2.05142 -0.811,-7.464 0,-5.16009 0.61208,-7.49567 0.73447,-2.76163 3.77944,-3.21914 2.93793,-0.45761 8.61498,-0.45761 5.41676,0 7.75798,0.55231 1.16291,0.26825 2.00452,1.05725 0.85687,0.77322 1.08641,1.79893 0.2295,0.9626 0.26013,3.77143 h -2.58599 q -0.0135,-0.5523 -0.0135,-0.74168 0,-1.54646 -0.29075,-2.19339 -0.2907,-0.66276 -1.1323,-1.00992 -1.54548,-0.64701 -7.22244,-0.64701 -4.11616,0 -6.18186,0.23671 -2.06572,0.22092 -2.69314,0.72588 -0.59678,0.50498 -0.8875,2.08299 -0.27543,1.57801 -0.27543,4.38681 0,1.32553 0.10711,3.42419 0.1071,2.09868 0.21421,2.88785 0.16841,1.24663 0.7651,1.81472 0.61206,0.5523 1.9127,0.67856 2.3717,0.25249 6.77859,0.25249 1.34656,0 3.51942,-0.079 2.1881,-0.0946 2.78485,-0.17359 1.16292,-0.1578 1.72908,-0.47341 0.56618,-0.33139 0.7804,-0.97837 0.19883,-0.56808 0.26012,-3.14029 z"
     dominant-baseline="auto"
     style="font-variant-ligatures:normal;font-variant-position:normal;font-variant-caps:normal;font-variant-numeric:normal;font-variant-alternates:normal;font-feature-settings:normal;text-indent:0;text-decoration-line:none;text-decoration-style:solid;text-decoration-color:#000000;text-transform:none;text-orientation:mixed;white-space:normal;shape-padding:0;fill:#ffffff;stroke-width:2.12108;paint-order:normal" />
  <path
     id="path1961"
     d="m 387.1717,152.13864 h 4.66693 v 21.53988 h -2.70838 v -18.84159 h -0.9793 l -6.71741,6.51711 -1.68317,-1.92517 z"
     dominant-baseline="auto"
     style="font-variant-ligatures:normal;font-variant-position:normal;font-variant-caps:normal;font-variant-numeric:normal;font-variant-alternates:normal;font-feature-settings:normal;text-indent:0;text-decoration-line:none;text-decoration-style:solid;text-decoration-color:#000000;text-transform:none;text-orientation:mixed;white-space:normal;shape-padding:0;fill:#ffffff;stroke-width:2.12108;paint-order:normal" />
  <path
     id="path1963"
     d="m 414.784,152.07616 q 6.18186,0 8.63022,0.50497 2.14214,0.45761 3.12153,2.20914 0.52024,0.91523 0.73449,2.63518 0.21421,1.70424 0.21421,4.97075 0,4.35536 -0.42846,6.83289 -0.45904,2.63519 -2.26454,3.51895 -1.04049,0.52077 -3.36631,0.75748 -2.32596,0.23669 -6.28902,0.23669 -5.35558,0 -7.81918,-0.61542 -3.06033,-0.789 -3.53468,-4.30797 -0.29073,-2.08297 -0.29073,-5.85433 0,-4.24487 0.47436,-6.6276 0.58148,-2.95096 3.18273,-3.66092 2.20335,-0.59964 7.63558,-0.59964 z m 0.10711,2.52492 q -3.68777,0 -5.37084,0.23669 -1.66788,0.22092 -2.23403,0.78902 -0.65798,0.69431 -0.8875,3.10863 -0.19883,2.16197 -0.19883,4.52899 0,5.72807 0.99459,6.76975 1.10171,1.18351 7.88037,1.18351 4.07021,0 6.04422,-0.2525 1.98922,-0.26825 2.57074,-0.86789 1.08643,-1.12039 1.08643,-6.67501 0,-3.39275 -0.24483,-5.25487 -0.22952,-1.86205 -0.73449,-2.44585 -0.67327,-0.75746 -2.98388,-0.94679 -1.928,-0.17361 -5.92182,-0.17361 z"
     dominant-baseline="auto"
     style="font-variant-ligatures:normal;font-variant-position:normal;font-variant-caps:normal;font-variant-numeric:normal;font-variant-alternates:normal;font-feature-settings:normal;text-indent:0;text-decoration-line:none;text-decoration-style:solid;text-decoration-color:#000000;text-transform:none;text-orientation:mixed;white-space:normal;shape-padding:0;fill:#ffffff;stroke-width:2.12108;paint-order:normal" />
  <path
     id="path1986"
     d="m 352.60408,161.47187 h 10.4179 v 2.79307 h -10.4179 z"
     dominant-baseline="auto"
     style="font-variant-ligatures:normal;font-variant-position:normal;font-variant-caps:normal;font-variant-numeric:normal;font-variant-alternates:normal;font-feature-settings:normal;text-indent:0;text-decoration-line:none;text-decoration-style:solid;text-decoration-color:#000000;text-transform:none;text-orientation:mixed;white-space:normal;shape-padding:0;fill:#ffffff;stroke-width:2.12108;paint-order:normal" />
  <path
     fill="#000000"
     d="m 104.42672,46.598446 0.12445,34.295176 a 0.69849013,0.69157439 1.3 0 1 -0.74,0.698494 q -5.670914,-0.30429 -12.545144,0.110592 -1.36241,0.08294 -1.36241,-1.272492 l -0.0414,-33.575944 a 0.61550119,0.61550119 0 0 0 -0.64317,-0.615498 q -10.14539,0.366534 -19.46781,-0.01381 a 0.6639114,0.67082716 1.2 0 1 -0.63626,-0.670825 V 34.641087 a 0.52559655,0.53251227 0 0 1 0.5256,-0.532513 l 54.682794,-0.13139 a 0.80914204,0.80914204 0 0 1 0.80914,0.809133 v 10.968379 a 0.46335483,0.46335483 0 0 1 -0.44262,0.463347 q -9.91024,0.366536 -19.91734,0.03456 a 0.33887144,0.3457872 0.6 0 0 -0.34579,0.345787 z"
     id="path14"
     style="fill:#ffffff;stroke-width:0.691572" />
  <path
     fill="#000000"
     d="m 184.38655,63.915473 c 3.87973,0.449519 7.15779,1.666698 7.8286,5.982114 q 0.65701,4.260104 0.31815,11.189684 a 0.36653443,0.38036591 0.6 0 1 -0.35963,0.366534 l -13.69319,0.193637 a 0.61550119,0.59475397 87.9 0 1 -0.60166,-0.580921 q -0.17981,-3.298818 -0.11755,-6.327911 c 0.12445,-5.850711 -3.67228,-5.518756 -8.43722,-5.553345 q -9.93792,-0.08304 -20.10407,-0.152138 a 0.3941974,0.3941974 0 0 0 -0.40113,0.394192 v 11.487052 a 0.57400674,0.58092248 89.7 0 1 -0.57398,0.574012 l -12.98084,0.124486 a 1.106519,1.1272663 89.6 0 1 -1.14119,-1.106533 V 34.565053 a 0.45643909,0.45643909 0 0 1 0.45645,-0.456438 q 20.24928,-0.165965 40.60233,-0.0071 c 6.71519,0.04838 14.4539,0.0071 17.03346,7.614232 1.35551,3.997297 1.50765,11.770591 0.0898,15.35987 q -1.83957,4.675041 -7.96001,6.341727 -1.27248,0.345787 0.0414,0.497937 z m -6.52154,-15.788637 c -1.32093,-2.676401 -3.72761,-2.413596 -6.39707,-2.434346 q -10.63641,-0.0899 -22.03358,-0.179807 a 0.62241693,0.63624845 0.6 0 0 -0.62932,0.629324 L 148.6944,57.05506 a 0.37345017,0.38728165 0.5 0 0 0.36654,0.387284 q 12.3446,0.124486 23.99762,-0.124486 2.48968,-0.05535 3.58928,-0.73306 c 2.27527,-1.403908 2.22687,-6.410893 1.21719,-8.457955 z"
     id="path16"
     style="fill:#ffffff;stroke-width:0.691572" />
  <path
     fill="#000000"
     d="m 220.36914,65.962534 c 0.19367,3.616935 1.08579,4.979333 4.8687,5.145311 q 8.36806,0.359616 19.66838,-0.04151 c 6.27948,-0.228215 7.00565,-7.842447 0.14517,-8.153657 q -9.72354,-0.435689 -19.46783,-0.193636 -7.04713,0.172886 -12.44833,-1.120355 c -7.64881,-1.832677 -8.20208,-12.220123 -6.70136,-18.285231 q 1.68745,-6.812009 8.94896,-7.994599 c 11.85359,-1.936409 25.53985,-1.549123 35.96188,-0.864472 8.58243,0.560184 11.45248,5.94755 11.04443,13.755417 a 0.44952335,0.44952335 0 0 1 -0.44951,0.421863 h -12.49675 q -0.81606,0 -1.42466,-1.514548 c -0.80222,-1.977906 -2.25453,-2.600324 -4.41914,-2.710977 q -10.9822,-0.573999 -20.60891,0.767649 -2.42052,0.338877 -2.59343,2.939191 c -0.29045,4.260101 4.85486,3.769084 7.53125,3.817491 8.53403,0.172906 17.15105,-0.103739 25.67125,0.373454 q 8.02227,0.449521 10.02092,8.084503 c 1.31399,5.007 1.29324,13.368132 -2.79397,17.220202 -2.53116,2.392847 -7.10939,3.049843 -10.48427,3.298816 q -14.30868,1.065017 -30.80962,0.228215 C 208.93044,80.596238 205.35501,76.675002 206.06735,65.96252 a 0.35961867,0.36653443 1.8 0 1 0.3596,-0.345787 l 13.57561,-0.0072 a 0.37345017,0.36653443 88.3 0 1 0.36651,0.352706 z"
     id="path18"
     style="fill:#ffffff;stroke-width:0.691572" />
  <path
     fill="#000000"
     d="m 348.55939,57.601402 q 6.90882,0.484096 8.23664,7.282277 c 2.1923,11.196591 -2.69021,16.224339 -13.47877,16.445632 q -11.21735,0.228226 -22.43468,0.172906 c -6.12043,-0.02769 -9.63362,0.200557 -13.82456,-1.79118 -5.39429,-2.565735 -5.82306,-10.110813 -4.55746,-15.166221 0.94745,-3.769084 3.28496,-5.8853 7.01946,-6.535389 0.34579,-0.05537 2.19228,-0.539421 0.076,-0.82296 -7.71795,-1.030452 -8.26429,-10.816227 -6.25182,-16.549379 2.21305,-6.327911 10.57417,-6.535376 16.12062,-6.535376 9.56445,0.0071 19.94499,-0.857552 29.43341,1.002781 3.99727,0.781477 6.25873,2.883864 7.33067,6.881161 1.54912,5.767731 0.73998,14.446992 -7.01949,14.993335 q -0.47717,0.03456 -0.78146,0.331957 -0.27662,0.262792 0.13136,0.290461 z M 316.28362,46.072853 c -1.82576,4.903269 1.34165,6.320991 5.54643,6.438564 q 6.6806,0.186717 13.36812,0.09677 c 3.15357,-0.04151 7.82862,0.207479 8.08451,-4.018046 0.39419,-6.59761 -9.7097,-5.083063 -15.4567,-4.993161 -3.16741,0.04151 -6.09278,-0.02769 -9.23251,0.539423 q -1.70818,0.311208 -2.30985,1.936408 z m 3.52702,15.595002 c -4.18402,0.131407 -5.61558,5.415036 -3.34031,7.883947 2.7663,3.008357 9.80653,2.752472 13.58253,2.330611 a 0.33887144,0.9128782 36.5 0 0 0.51176,-0.331956 c 0.20747,-0.207478 7.71796,-0.504845 9.75812,-0.781478 4.05953,-0.560182 4.06646,-6.293334 1.57679,-8.063765 -2.9945,-2.130044 -17.88412,-1.168758 -22.08889,-1.037359 z"
     id="path20"
     style="fill:#ffffff;stroke-width:0.691572" />
  <path
     fill="#000000"
     d="m 373.15177,38.887401 q 0.79532,-0.878301 1.80502,-1.500716 c 6.98489,-4.336179 16.826,-3.298808 26.11385,-3.27807 q 8.53402,0.01381 14.50923,0.954374 c 9.73044,1.528377 10.8093,7.960021 11.4663,16.96432 q 0.62934,8.686172 -0.62933,17.317028 c -1.1826,8.070673 -4.8756,10.885382 -12.62816,11.563126 -9.61288,0.829883 -21.37656,0.878288 -31.35598,0.110593 -6.43856,-0.497924 -11.16199,-2.503489 -12.48292,-9.045786 q -1.33474,-6.611451 -1.0581,-14.792777 c 0.2213,-6.376318 -0.13136,-13.485707 4.26009,-18.292139 z m 11.63919,9.045786 q -1.09961,0.940548 -1.32091,2.379018 -1.0097,6.6737 -0.33885,12.960101 c 0.44951,4.197855 1.71508,5.968286 6.00976,6.279496 q 9.28787,0.670835 16.67388,-0.05536 c 4.36383,-0.42185 7.11628,-1.417722 7.35834,-6.16884 q 0.26971,-5.380445 0.0135,-10.083157 c -0.25588,-4.522893 -1.55606,-6.853494 -6.23801,-7.206201 -5.73314,-0.42877 -18.32672,-1.390067 -22.15803,1.894911 z"
     id="path22"
     style="fill:#ffffff;stroke-width:0.691572" />
  <rect
     fill="#000000"
     x="270.52808"
     y="57.991417"
     transform="rotate(-0.10000014)"
     width="24.62005"
     height="12.393013"
     rx="0.63624841"
     id="rect24"
     style="fill:#ffffff;stroke-width:0.691572" />
</svg>
