<?xml version="1.0" encoding="UTF-8" standalone="no"?>
<svg
   width="500"
   height="200"
   viewBox="0 0 500 200"
   version="1.1"
   id="svg61"
   sodipodi:docname="megaduck.svg"
   style="fill:none"
   inkscape:version="1.2.2 (b0a8486541, 2022-12-01)"
   xml:space="preserve"
   xmlns:inkscape="http://www.inkscape.org/namespaces/inkscape"
   xmlns:sodipodi="http://sodipodi.sourceforge.net/DTD/sodipodi-0.dtd"
   xmlns="http://www.w3.org/2000/svg"
   xmlns:svg="http://www.w3.org/2000/svg"
   xmlns:rdf="http://www.w3.org/1999/02/22-rdf-syntax-ns#"
   xmlns:cc="http://creativecommons.org/ns#"
   xmlns:dc="http://purl.org/dc/elements/1.1/"><metadata
     id="metadata67"><rdf:RDF><cc:Work
         rdf:about=""><dc:format>image/svg+xml</dc:format><dc:type
           rdf:resource="http://purl.org/dc/dcmitype/StillImage" /><dc:title /></cc:Work></rdf:RDF></metadata><defs
     id="defs65" /><sodipodi:namedview
     pagecolor="#ffffff"
     bordercolor="#666666"
     borderopacity="1"
     objecttolerance="10"
     gridtolerance="10"
     guidetolerance="10"
     inkscape:pageopacity="0"
     inkscape:pageshadow="2"
     inkscape:window-width="1366"
     inkscape:window-height="696"
     id="namedview63"
     showgrid="false"
     inkscape:pagecheckerboard="true"
     inkscape:zoom="1.1395588"
     inkscape:cx="322.05447"
     inkscape:cy="86.436961"
     inkscape:window-x="0"
     inkscape:window-y="0"
     inkscape:window-maximized="1"
     inkscape:current-layer="svg61"
     inkscape:showpageshadow="0"
     inkscape:deskcolor="#d1d1d1" /><path
     style="fill:#008080;stroke:none"
     d="m 148.52094,58.952515 h -1 c -3.0288,-7.8628 -5.5572,-15.944899 -8.0247,-23.999999 -1.7215,-5.6197 -2.5851,-11.2816 -3.8596,-17 -0.6696,-3.00468 -0.898,-8.0264305 -3.6296,-9.9722105 -5.1395,-3.66101 -15.24176,0.81291 -17.47684,6.0154205 -6.34041,14.75839 -2.38919,40.099589 -1.9946,55.95679 0.10596,4.2583 1.66284,16.1758 8.6713,14.044 3.48744,-1.0608 3.22914,-9.1785 3.29934,-12.044 0.2872,-11.722201 -1.1889,-23.5999 2.0147,-35 h 1 c 4.6553,11.4083 7.9946,23.917799 10.4869,36 0.7125,3.4543 0.1845,10.9329 4.7376,12.0293 6.6633,1.6045 11.4902,-9.2761 12.919,-14.0293 3.5673,-11.867101 8.5706,-23.4492 13.0455,-35 2.4568,-6.3414 4.1996,-12.7659 9.811,-17 3.9735,16.6434 3.9989,35.936499 4,53 3e-4,4.2013 -1.1096,15.8038 5.0502,16.534 6.0479,0.7169 4.9514,-20.356701 4.9498,-24.534001 -0.004,-10.9204 -2.5219,-22.125499 -1.9066,-32.999999 0.3591,-6.3462 3.0035,-15.72881 0.1643,-21.7708305 -1.9891,-4.23311 -7.6079,-2.337935 -11.2577,-2.243834 -14.1708,0.365374 -18.8717,12.5085645 -21.4498,25.0146645 -1.9297,9.3605 -6.2237,18.091499 -9.5502,26.999999 m 181,15.000001 c 1.12,3.0584 11.551,19.5088 13.382,8.8904 0.702,-4.0719 -2.139,-8.7254 -2.342,-12.8904 -0.517,-10.616501 -0.04,-21.3705 -0.04,-32 0,-4.0437 1.523,-12.1235 -1.028,-15.5224 -4.057,-5.4055 -7.952,5.0744 -11.105,5.8573 -3.035,0.7536 -6.775,-1.9315 -9.867,-2.23 -10.459,-1.0094 -19.284,5.4725 -23.583,14.8951 -5.845,12.812599 -0.126,40.6557 16.583,41.902 8.184,0.6104 12.206,-4.1271 18,-8.902 m -57,-39 c -19.469,-5.7419 -46.406,25.733199 -27.815,41.4421 4.973,4.2017 13.498,5.2596 19.815,5.429 2.985,0.0801 8.019,-1.6364 9.292,2.2809 5.203,16.016904 -22.58,12.3982 -29.291,13.1921 -3.38,0.399902 -9.455,4.301804 -3.848,6.914404 11.683,5.4445 38.801,2.0635 45.159,-10.273904 4.589,-8.9054 2.687,-26.975001 2.688,-36.984601 0,-5.5456 4.525,-26.487899 -0.6,-29.913599 -5.026,-3.3598 -8.17,8.0541 -9.052,10.9136 -2.532,8.2079 2,22.101399 -4.651,28.442099 -12.35,11.773801 -32.567,-2.36 -18.654,-16.402 5.348,-5.397199 13.54,-8.032399 16.957,-15.040099 m -57,-4.5563 c -19.873,3.4604 -25.4229,31.879099 -15.9113,47.5131 6.2017,10.1934 34.9813,16.7309 45.7623,12.0108 5.507,-2.4111 0.602,-6.1193 -2.856,-6.9483 -8.646,-2.0728 -35.8406,-3.4089 -35.0783,-17.015401 0.1948,-3.4776 3.233,-5.6781 6.0873,-7.088 5.346,-2.6406 11.512,-3.5572 14.991,-8.9591 6.831,-10.608899 -1.114,-21.581999 -12.995,-19.513099 m 114,4.5563 c -0.212,10.1936 -4.257,21.289499 -9.453,29.999999 -1.636,2.7438 -4.536,8.594501 -8.471,8.078701 -13.808,-1.8099 -7.761,-28.9364 -1.772,-34.9306 5.029,-5.0337 13.232,-1.9523 19.696,-3.1481 m -123,14.999999 c 0.6214,-3.898999 8.447,-14.696299 12.917,-8.382699 4.648,6.5635 -9.4238,8.928699 -12.917,8.382699 m -24.3819,50.031603 c -4.7835,3.860502 2.8621,10.513402 6.3966,11.439402 8.1964,2.146 17.0603,1.675 24.9853,5.008 11.73,4.934 22.889,23.101 15.142,35.481 -4.612,7.369 -16.472,12.28099 -24.142,15.72799 -2.6225,1.179 -7.9476,4.047 -9.4853,0.043 -3.8418,-10.00199 4.2507,-25.88999 3.3919,-36.73099 -0.3403,-4.296 -5.5701,-20.622 -12.1643,-13.471 -4.2544,4.614 -0.065,12.269 0.125,17.471 0.4322,11.835 -3.0841,26.29299 -5.1173,37.99999 -0.6803,3.917 -4.096,13.277 0.5679,15.879 4.2306,2.36 11.1827,-3.079 14.6821,-5.018 13.0625,-7.239 32.038,-9.333 42.66,-20.19 11.51,-11.76499 4.086,-44.14399 -7.661,-53.13899 -6.907,-5.2886 -17.62,-6.0847 -25.999,-7.728 -4.9365,-0.9681 -19.1393,-6.196304 -23.3819,-2.772402 m 168.3819,63.968392 c -8.172,0.068 -17.014,4.943 -25,2.927 -18.497,-4.671 -18.261,-34.39899 -2.996,-42.63399 7.423,-4.004 14.171,4.706 20.518,2.011 3.284,-1.394 -0.144,-5.142 -1.635,-6.376 -11.878,-9.834 -28.605,-6.604 -35.51,7.072 -6.471,12.818 -5.746,30.759 4.002,41.90599 9.243,10.569 36.261,10.583 40.621,-4.906 m 7.05,-49.10999 c -4.777,1.351 -4.219,8.318 -3.96,12.11 0.776,11.399 2.28,22.645 3.625,33.99999 0.419,3.545 -0.915,9.527 1.312,12.522 2.005,2.697 5.018,0.787 6.079,-1.635 1.242,-2.833 0.216,-6.964 2.636,-9.243 2.699,-2.541 7.464,0.262 10.258,1.306 6.773,2.531 20.496,13.316 27.833,10.406 6.872,-2.725 -4.808,-10.652 -5.916,-13.371 -2.337,-5.72899 4.756,-10.37499 -0.49,-16.79999 -6.07,-7.434 -14.635,-5.006 -22.427,-2.62 -3.15,0.964 -8.485,3.793 -11.297,1.013 -4.868,-4.813 -3.591,-15.421 -3.708,-21.577 -0.046,-2.466 -0.144,-7.185 -3.945,-6.111 m -106.825,10.081 c -3.587,0.897 -2.605,5.397 -2.391,8.029 0.648,7.967 0.358,16.101 1.782,24 1.996,11.07299 10.218,20.68799 22.385,19.67099 4.777,-0.4 9.347,-3.451 13.995,-3.568 4.469,-0.112 7.251,7.145 11.779,4.811 3.379,-1.742 2.803,-5.887 2.066,-8.914 -2.212,-9.087 -5.043,-17.57999 -4.866,-26.99999 0.053,-2.807 0.91,-9.255 -3.065,-9.94 -4.949,-0.852 -4.815,8.04 -4.921,10.94 -0.393,10.784 -4.886,29.05199 -19.988,23.25799 -12.808,-4.914 -9.662,-22.83899 -10.06,-33.25799 -0.13,-3.416 -2.158,-9.169 -6.716,-8.029 m 128.834,23.463 c 5.114,-1.534 17.179,3.362 7.882,6.132 -4.825,1.438 -16.622,-3.51 -7.882,-6.132 z"
     id="path110094" /></svg>
