<?xml version="1.0" encoding="UTF-8" standalone="no"?>
<!-- Created with Inkscape (http://www.inkscape.org/) -->

<svg
   xmlns:dc="http://purl.org/dc/elements/1.1/"
   xmlns:cc="http://creativecommons.org/ns#"
   xmlns:rdf="http://www.w3.org/1999/02/22-rdf-syntax-ns#"
   xmlns:svg="http://www.w3.org/2000/svg"
   xmlns="http://www.w3.org/2000/svg"
   xmlns:sodipodi="http://sodipodi.sourceforge.net/DTD/sodipodi-0.dtd"
   xmlns:inkscape="http://www.inkscape.org/namespaces/inkscape"
   width="500"
   height="200"
   viewBox="0 0 500 200"
   id="svg2"
   version="1.1"
   inkscape:version="0.92.5 (2060ec1f9f, 2020-04-08)"
   sodipodi:docname="megaderivemsu2.svg">
  <defs
     id="defs4">
    <inkscape:path-effect
       effect="skeletal"
       id="path-effect3036"
       is_visible="true"
       pattern="m -9.0913734,-5.0507627 v 10 L 0.90862665,-0.05076273 Z"
       copytype="single_stretched"
       prop_scale="1"
       scale_y_rel="false"
       spacing="0"
       normal_offset="0"
       tang_offset="0"
       prop_units="false"
       vertical_pattern="false"
       fuse_tolerance="0" />
    <inkscape:path-effect
       effect="spiro"
       id="path-effect3034"
       is_visible="true" />
    <inkscape:path-effect
       effect="skeletal"
       id="path-effect3030"
       is_visible="true"
       pattern="M 0,0 V 10 L 10,5 Z"
       copytype="single_stretched"
       prop_scale="1"
       scale_y_rel="false"
       spacing="0"
       normal_offset="0"
       tang_offset="0"
       prop_units="false"
       vertical_pattern="false"
       fuse_tolerance="0" />
    <inkscape:path-effect
       effect="spiro"
       id="path-effect3028"
       is_visible="true" />
    <inkscape:path-effect
       effect="skeletal"
       id="path-effect3024"
       is_visible="true"
       pattern="M 0,0 V 10 L 10,5 Z"
       copytype="single_stretched"
       prop_scale="1"
       scale_y_rel="false"
       spacing="0"
       normal_offset="0"
       tang_offset="0"
       prop_units="false"
       vertical_pattern="false"
       fuse_tolerance="0" />
    <inkscape:path-effect
       effect="spiro"
       id="path-effect3022"
       is_visible="true" />
    <inkscape:path-effect
       effect="skeletal"
       id="path-effect3018"
       is_visible="true"
       pattern="M 0,0 V 10 L 10,5 Z"
       copytype="single_stretched"
       prop_scale="1"
       scale_y_rel="false"
       spacing="0"
       normal_offset="0"
       tang_offset="0"
       prop_units="false"
       vertical_pattern="false"
       fuse_tolerance="0" />
    <inkscape:path-effect
       effect="spiro"
       id="path-effect3016"
       is_visible="true" />
    <inkscape:path-effect
       effect="skeletal"
       id="path-effect3012"
       is_visible="true"
       pattern="M 0,0 V 10 L 10,5 Z"
       copytype="single_stretched"
       prop_scale="1"
       scale_y_rel="false"
       spacing="0"
       normal_offset="0"
       tang_offset="0"
       prop_units="false"
       vertical_pattern="false"
       fuse_tolerance="0" />
    <inkscape:path-effect
       effect="spiro"
       id="path-effect3010"
       is_visible="true" />
  </defs>
  <sodipodi:namedview
     id="base"
     pagecolor="#ffffff"
     bordercolor="#666666"
     borderopacity="1.0"
     inkscape:pageopacity="0.0"
     inkscape:pageshadow="2"
     inkscape:zoom="2.0446437"
     inkscape:cx="177.43131"
     inkscape:cy="86.787062"
     inkscape:document-units="px"
     inkscape:current-layer="layer2"
     showgrid="false"
     inkscape:window-width="1366"
     inkscape:window-height="739"
     inkscape:window-x="0"
     inkscape:window-y="0"
     inkscape:window-maximized="1"
     fit-margin-top="0"
     fit-margin-left="0"
     fit-margin-right="0"
     fit-margin-bottom="0"
     showguides="true"
     inkscape:guide-bbox="true"
     inkscape:pagecheckerboard="true"
     inkscape:snap-others="false"
     inkscape:object-nodes="true">
    <sodipodi:guide
       position="-98.216783,20.750024"
       orientation="0,1"
       id="guide4750"
       inkscape:locked="false" />
  </sodipodi:namedview>
  <metadata
     id="metadata7">
    <rdf:RDF>
      <cc:Work
         rdf:about="">
        <dc:format>image/svg+xml</dc:format>
        <dc:type
           rdf:resource="http://purl.org/dc/dcmitype/StillImage" />
        <dc:title></dc:title>
      </cc:Work>
    </rdf:RDF>
  </metadata>
  <g
     inkscape:groupmode="layer"
     id="layer2"
     inkscape:label="Layer"
     style="display:inline"
     transform="translate(4.642601,-589.81001)">
    <g
       id="g3975">
      <g
         id="g3903" />
    </g>
    <path
       style="display:inline;fill:#ff0000;fill-opacity:1;stroke:#000000;stroke-width:0.45887932px;stroke-linecap:butt;stroke-linejoin:miter;stroke-opacity:0"
       d="M 165.77949,606.5957 V 769.29758 H 56.384481 Z"
       id="path3038"
       inkscape:connector-curvature="0" />
    <rect
       style="display:inline;fill:#00aa00;fill-opacity:1;stroke:#000000;stroke-width:3.0639379;stroke-linecap:round;stroke-linejoin:miter;stroke-miterlimit:4;stroke-dasharray:none;stroke-dashoffset:0;stroke-opacity:0"
       id="rect3834"
       width="52.843346"
       height="160.84775"
       x="281.65466"
       y="609.07373" />
    <path
       style="display:inline;fill:#00aa00;fill-opacity:1;stroke:#000000;stroke-width:3.02503276;stroke-linecap:round;stroke-linejoin:miter;stroke-miterlimit:4;stroke-dasharray:none;stroke-dashoffset:0;stroke-opacity:0"
       d="m 345.87468,609.14993 c -0.56501,-0.0142 -1.1946,-0.0327 -1.90328,-0.0418 l -0.32454,55.10432 c 0.0426,10e-4 0.086,-10e-4 0.12865,0 v -0.17105 c 0.89895,-0.11891 1.80428,-0.17897 2.72721,-0.19987 l 11.09459,-54.00222 c -4.32912,-0.52579 -8.40625,-0.58342 -11.72255,-0.68846 z m 20.34688,1.53083 -15.5781,53.40254 c 1.38752,0.19114 2.74753,0.49487 4.05516,0.89956 l 25.58753,-50.77521 c -4.51931,-1.58684 -9.21464,-2.78063 -14.06459,-3.52689 z m 22.61758,7.11085 -30.59938,48.57633 c 1.02263,0.4948 2.01387,1.06309 2.9557,1.6849 l 39.30939,-43.25038 c -3.66655,-2.65953 -7.56698,-5.00262 -11.66571,-7.01085 z m 19.0193,13.05077 -43.97858,39.25231 c 1.05108,0.91222 2.03528,1.91381 2.92715,2.98425 l 51.74618,-30.12823 c -3.15023,-4.39191 -6.74158,-8.44953 -10.69475,-12.10833 z m 14.70711,18.29111 -53.8452,26.54416 c 0.61752,0.96405 1.16883,1.96647 1.65634,3.01282 l 59.11406,-14.22165 c -1.7766,-5.38975 -4.10596,-10.52353 -6.9252,-15.33533 z m 9.13839,23.50279 -60.24206,8.80999 c 0.61769,1.85996 1.03312,3.81835 1.21371,5.83997 h 60.7989 c -0.14305,-5.01218 -0.74993,-9.91015 -1.77055,-14.64996 z m -59.02835,19.47623 c -1.24821,13.07184 -12.20699,23.28862 -25.53042,23.28862 -1.14626,0 -2.26333,-0.0814 -3.36978,-0.22832 v -1.11372 c -0.0426,10e-4 -0.086,-10e-4 -0.12865,0 v 55.6391 c 4.56235,-0.0327 6.91657,-0.22318 10.46632,-0.22318 43.02306,0 78.05219,-34.40853 79.36131,-77.36228 z"
       id="path3838"
       inkscape:connector-curvature="0"
       sodipodi:nodetypes="ccccccccccccccccccccccccccccccccccccccsccc" />
    <path
       style="display:inline;fill:#ff0000;fill-opacity:1;stroke:#000000;stroke-width:0.45887932px;stroke-linecap:butt;stroke-linejoin:miter;stroke-opacity:0"
       d="M 257.32464,606.5957 V 769.29758 H 147.92962 Z"
       id="path3038-4"
       inkscape:connector-curvature="0" />
    <path
       id="path988"
       style="fill:#ffffff;stroke-width:0.44995648"
       d="m 257.67707,703.66289 -22.32285,-0.005 c -24.99328,-0.005 -24.00911,-0.12258 -27.44959,3.29612 -2.18119,2.16745 -4.26843,6.10818 -4.98533,9.40809 -0.28535,1.31341 -0.53156,4.39743 -0.54586,6.85468 -0.0434,7.47139 1.548,12.3646 5.25151,16.13375 3.48987,3.55158 3.33151,3.52022 20.14891,3.87677 l 14.96883,0.31749 1.50767,1.77494 c 1.35763,1.59942 1.50544,2.05057 1.4898,4.52184 -0.0195,3.01588 -0.99755,5.16811 -2.8152,6.1961 -0.79552,0.44989 -5.63431,0.61111 -20.78038,0.69137 l -19.74215,0.10471 -0.16007,5.61363 c -0.0876,3.08792 -0.0566,5.88801 0.0684,6.22142 0.18673,0.49892 4.29049,0.60828 23.0079,0.61738 l 22.77746,0.0114 2.12414,-1.51928 c 2.4148,-1.72616 3.8218,-3.58327 5.64738,-7.45851 1.23276,-2.61673 1.27291,-2.92751 1.30686,-10.14418 0.0312,-6.70952 -0.0658,-7.70256 -0.984,-10.04726 -1.34667,-3.43921 -4.00061,-6.78695 -6.63207,-8.36403 l -2.13451,-1.27756 -14.82429,-0.3147 c -13.3768,-0.28559 -14.94961,-0.39964 -16.073,-1.15067 -2.58966,-1.73112 -3.3601,-6.99882 -1.438,-9.83388 1.96381,-2.89676 1.69149,-2.86321 23.10814,-2.88085 l 19.40683,-0.0149 0.0367,-6.31452 z m 5.79383,0.0738 -0.0238,27.63857 c -0.0216,25.23252 0.0454,27.81484 0.76336,29.67308 1.65479,4.28329 4.34379,7.02569 7.9556,8.11199 0.9005,0.27087 9.07546,0.46639 20.34932,0.4882 18.81262,0.0363 18.84948,0.0349 20.9991,-1.01332 2.56198,-1.24935 4.96862,-4.19069 6.07903,-7.42909 0.70422,-2.05404 0.8186,-5.1779 1.08391,-29.70576 l 0.29634,-27.4112 -6.54349,-0.0401 -6.54161,-0.0401 -0.0757,24.13368 c -0.0753,23.89916 -0.0864,24.15056 -1.0613,26.14584 -0.7874,1.61142 -1.46552,2.24753 -3.38546,3.17776 -2.39763,1.16181 -2.41185,1.16284 -12.20089,0.95821 -9.44401,-0.19744 -9.86167,-0.24326 -11.52768,-1.2988 -1.17428,-0.74399 -2.06632,-1.83497 -2.78032,-3.40111 l -1.05186,-2.30585 0.13451,-23.80239 0.13256,-23.80237 -6.30003,-0.0386 z"
       inkscape:connector-curvature="0" />
    <path
       id="path988-3"
       style="display:inline;fill:#ffffff;stroke:#ffffff;stroke-width:2.73704839;stroke-miterlimit:4;stroke-dasharray:none;stroke-opacity:1"
       d="m 159.74274,705.1246 -19.98312,31.14085 c -10.99064,17.12714 -19.98313,31.28766 -19.98313,31.46612 0,0.17852 1.96069,0.32343 4.35706,0.32343 h 4.35706 l 13.82627,-21.55118 c 7.60471,-11.85329 13.95161,-21.48772 14.10415,-21.40865 0.17791,0.0924 0.32753,7.78149 0.41623,21.4452 l 0.13834,21.29901 2.35091,0.11877 2.34973,0.11695 13.82742,-21.56215 c 7.60515,-11.85898 13.92057,-21.56032 14.03381,-21.56032 0.11318,0 0.23841,9.64951 0.27788,21.44338 l 0.0714,21.44337 h 3.5961 3.59493 l 0.0714,-31.35648 0.0703,-31.3583 h -2.4224 -2.42359 l -13.54955,21.11994 c -7.45242,11.61604 -13.70592,21.11994 -13.89662,21.11994 -0.27326,0 -0.34707,-4.47684 -0.34707,-21.11994 V 705.1246 h -2.41889 z"
       inkscape:connector-curvature="0" />
    <path
       style="fill:#ffffff;fill-rule:evenodd;stroke:#ffffff;stroke-width:0.98914349px;stroke-linecap:butt;stroke-linejoin:miter;stroke-opacity:1"
       d="m 191.79969,705.1246 -25.99695,38.10028"
       id="path4754"
       inkscape:connector-curvature="0" />
  </g>
</svg>
