<?xml version="1.0" encoding="UTF-8" standalone="no"?>
<!-- Created with Inkscape (http://www.inkscape.org/) -->

<svg
   xmlns:dc="http://purl.org/dc/elements/1.1/"
   xmlns:cc="http://creativecommons.org/ns#"
   xmlns:rdf="http://www.w3.org/1999/02/22-rdf-syntax-ns#"
   xmlns:svg="http://www.w3.org/2000/svg"
   xmlns="http://www.w3.org/2000/svg"
   xmlns:xlink="http://www.w3.org/1999/xlink"
   xmlns:sodipodi="http://sodipodi.sourceforge.net/DTD/sodipodi-0.dtd"
   xmlns:inkscape="http://www.inkscape.org/namespaces/inkscape"
   version="1.1"
   id="svg2"
   xml:space="preserve"
   width="500"
   height="200"
   viewBox="0 0 500 200"
   sodipodi:docname="mortalkombat.svg"
   inkscape:version="0.92.5 (2060ec1f9f, 2020-04-08)"><metadata
     id="metadata8"><rdf:RDF><cc:Work
         rdf:about=""><dc:format>image/svg+xml</dc:format><dc:type
           rdf:resource="http://purl.org/dc/dcmitype/StillImage" /><dc:title></dc:title></cc:Work></rdf:RDF></metadata><defs
     id="defs6"><clipPath
       clipPathUnits="userSpaceOnUse"
       id="clipPath18"><path
         d="M 0,396.85 H 595.28 V 0 H 0 Z"
         id="path16"
         inkscape:connector-curvature="0" /></clipPath><clipPath
       clipPathUnits="userSpaceOnUse"
       id="clipPath34"><path
         d="m 175.135,266.175 c 0,0 -9.999,-16.667 -40.167,-28 v 0 l -4.916,-12.75 -5.334,0.083 c 0,0 -5.749,-10.584 -37.416,-24.833 v 0 h 33.083 c 0,-1 -14.388,-46.875 -33.756,-65.5 v 0 c 0,0 59.756,10.5 77.006,85.249 v 0 l 5.5,16.001 h 38 l 19.25,29.75 z"
         id="path32"
         inkscape:connector-curvature="0" /></clipPath><linearGradient
       x1="0"
       y1="0"
       x2="1"
       y2="0"
       gradientUnits="userSpaceOnUse"
       gradientTransform="matrix(91.663811,158.7664,158.7664,-91.663811,96.746582,129.33301)"
       spreadMethod="pad"
       id="linearGradient50"><stop
         style="stop-opacity:1;stop-color:#295da9"
         offset="0"
         id="stop40" /><stop
         style="stop-opacity:1;stop-color:#295da9"
         offset="0.0052356"
         id="stop42" /><stop
         style="stop-opacity:1;stop-color:#295da9"
         offset="0.33581042"
         id="stop44" /><stop
         style="stop-opacity:1;stop-color:#272e65"
         offset="0.795811"
         id="stop46" /><stop
         style="stop-opacity:1;stop-color:#272e65"
         offset="1"
         id="stop48" /></linearGradient><clipPath
       clipPathUnits="userSpaceOnUse"
       id="clipPath60"><path
         d="M 0,396.85 H 595.28 V 0 H 0 Z"
         id="path58"
         inkscape:connector-curvature="0" /></clipPath><clipPath
       clipPathUnits="userSpaceOnUse"
       id="clipPath72"><path
         d="m 191.189,251.41 -2.814,-6.94 7.784,-0.094 -7.316,-19.037 h 8.722 l 7.315,19.131 h 7.034 l 2.721,6.94 z"
         id="path70"
         inkscape:connector-curvature="0" /></clipPath><linearGradient
       x1="0"
       y1="0"
       x2="1"
       y2="0"
       gradientUnits="userSpaceOnUse"
       gradientTransform="matrix(-1.1e-6,-26.071289,-26.071289,1.1e-6,201.50488,251.41016)"
       spreadMethod="pad"
       id="linearGradient86"><stop
         style="stop-opacity:1;stop-color:#e6342a"
         offset="0"
         id="stop78" /><stop
         style="stop-opacity:1;stop-color:#e6342a"
         offset="0.0104712"
         id="stop80" /><stop
         style="stop-opacity:1;stop-color:#f9b233"
         offset="0.989529"
         id="stop82" /><stop
         style="stop-opacity:1;stop-color:#f9b233"
         offset="1"
         id="stop84" /></linearGradient><clipPath
       clipPathUnits="userSpaceOnUse"
       id="clipPath96"><path
         d="m 239.206,251.41 c -0.281,0 -3.844,-9.471 -3.844,-9.471 v 0 h -10.599 l 3.095,9.471 h -8.44 l -9.754,-26.071 h 8.536 l 3.749,9.66 h 10.973 l -3.562,-9.66 h 8.814 c 0,0 9.566,26.071 9.847,26.071 v 0 c 0.188,0 -3.667,0.001 -6.342,0.001 v 0 c -1.337,0 -2.38,0 -2.473,-0.001"
         id="path94"
         inkscape:connector-curvature="0" /></clipPath><linearGradient
       x1="0"
       y1="0"
       x2="1"
       y2="0"
       gradientUnits="userSpaceOnUse"
       gradientTransform="matrix(-1.1e-6,-26.071777,-26.071777,1.1e-6,228.84619,251.41064)"
       spreadMethod="pad"
       id="linearGradient110"><stop
         style="stop-opacity:1;stop-color:#e6342a"
         offset="0"
         id="stop102" /><stop
         style="stop-opacity:1;stop-color:#e6342a"
         offset="0.0104712"
         id="stop104" /><stop
         style="stop-opacity:1;stop-color:#f9b233"
         offset="0.989529"
         id="stop106" /><stop
         style="stop-opacity:1;stop-color:#f9b233"
         offset="1"
         id="stop108" /></linearGradient><clipPath
       clipPathUnits="userSpaceOnUse"
       id="clipPath120"><path
         d="m 252.526,251.41 -9.755,-26.071 h 23.165 l 2.439,6.847 h -14.35 l 1.031,2.907 h 14.35 l 2.625,6.751 h -14.347 l 1.031,2.627 h 14.255 l 3.001,6.939 z"
         id="path118"
         inkscape:connector-curvature="0" /></clipPath><linearGradient
       x1="0"
       y1="0"
       x2="1"
       y2="0"
       gradientUnits="userSpaceOnUse"
       gradientTransform="matrix(-1.1e-6,-26.071289,-26.071289,1.1e-6,259.37109,251.41016)"
       spreadMethod="pad"
       id="linearGradient134"><stop
         style="stop-opacity:1;stop-color:#e6342a"
         offset="0"
         id="stop126" /><stop
         style="stop-opacity:1;stop-color:#e6342a"
         offset="0.0104712"
         id="stop128" /><stop
         style="stop-opacity:1;stop-color:#f9b233"
         offset="0.989529"
         id="stop130" /><stop
         style="stop-opacity:1;stop-color:#f9b233"
         offset="1"
         id="stop132" /></linearGradient><clipPath
       clipPathUnits="userSpaceOnUse"
       id="clipPath144"><path
         d="m 309.733,251.41 -11.821,-10.502 h -1.026 l 3.751,10.502 h -8.628 l -9.847,-26.071 h 8.722 l 4.97,13.035 4.501,-13.035 h 8.816 l -4.596,14.068 13.504,12.003 z"
         id="path142"
         inkscape:connector-curvature="0" /></clipPath><linearGradient
       x1="0"
       y1="0"
       x2="1"
       y2="0"
       gradientUnits="userSpaceOnUse"
       gradientTransform="matrix(-1.1e-6,-26.071289,-26.071289,1.1e-6,300.12109,251.41016)"
       spreadMethod="pad"
       id="linearGradient158"><stop
         style="stop-opacity:1;stop-color:#e6342a"
         offset="0"
         id="stop150" /><stop
         style="stop-opacity:1;stop-color:#e6342a"
         offset="0.0104712"
         id="stop152" /><stop
         style="stop-opacity:1;stop-color:#f9b233"
         offset="0.989529"
         id="stop154" /><stop
         style="stop-opacity:1;stop-color:#f9b233"
         offset="1"
         id="stop156" /></linearGradient><clipPath
       clipPathUnits="userSpaceOnUse"
       id="clipPath168"><path
         d="m 323.051,251.41 -9.845,-26.071 h 9.002 l 9.566,26.071 z"
         id="path166"
         inkscape:connector-curvature="0" /></clipPath><linearGradient
       x1="0"
       y1="0"
       x2="1"
       y2="0"
       gradientUnits="userSpaceOnUse"
       gradientTransform="matrix(-1.1e-6,-26.071289,-26.071289,1.1e-6,322.49023,251.41016)"
       spreadMethod="pad"
       id="linearGradient182"><stop
         style="stop-opacity:1;stop-color:#e6342a"
         offset="0"
         id="stop174" /><stop
         style="stop-opacity:1;stop-color:#e6342a"
         offset="0.0104712"
         id="stop176" /><stop
         style="stop-opacity:1;stop-color:#f9b233"
         offset="0.989529"
         id="stop178" /><stop
         style="stop-opacity:1;stop-color:#f9b233"
         offset="1"
         id="stop180" /></linearGradient><clipPath
       clipPathUnits="userSpaceOnUse"
       id="clipPath192"><path
         d="m 360.689,251.421 c -2.012,-0.027 -3.922,-0.054 -3.965,-0.011 v 0 c -0.095,0.093 -4.877,-13.036 -4.877,-13.036 v 0 l -7.409,13.036 h -7.691 l -10.035,-26.071 h 8.629 l 5.346,13.881 8.064,-13.881 h 6.848 c 0,0 9.611,25.931 9.751,26.071 v 0 c 0.034,0.034 -0.447,0.046 -1.197,0.046 v 0 c -0.906,0 -2.205,-0.017 -3.464,-0.035"
         id="path190"
         inkscape:connector-curvature="0" /></clipPath><linearGradient
       x1="0"
       y1="0"
       x2="1"
       y2="0"
       gradientUnits="userSpaceOnUse"
       gradientTransform="matrix(-1.1e-6,-26.117188,-26.117188,1.1e-6,346.03223,251.45605)"
       spreadMethod="pad"
       id="linearGradient206"><stop
         style="stop-opacity:1;stop-color:#e6342a"
         offset="0"
         id="stop198" /><stop
         style="stop-opacity:1;stop-color:#e6342a"
         offset="0.0104712"
         id="stop200" /><stop
         style="stop-opacity:1;stop-color:#f9b233"
         offset="0.989529"
         id="stop202" /><stop
         style="stop-opacity:1;stop-color:#f9b233"
         offset="1"
         id="stop204" /></linearGradient><clipPath
       clipPathUnits="userSpaceOnUse"
       id="clipPath216"><path
         d="m 372.73,249.739 c -1.891,-1.032 -3.723,-2.258 -5.258,-3.774 v 0 c -3.106,-3.063 -5.965,-7.91 -4.909,-12.448 v 0 c 0.541,-2.327 2.196,-4.237 4.119,-5.588 v 0 c 1.501,-1.053 3.24,-1.746 5.034,-2.102 v 0 c 4.794,-0.949 9.897,-0.488 14.759,-0.488 v 0 l 6.176,16.891 c 0,0 -9.992,-0.182 -9.931,0 v 0 c 0.06,0.181 -5.994,-6.965 -5.994,-6.965 v 0 h 4.48 l -1.211,-2.725 c -11.445,-0.787 -8.237,6.238 -8.237,6.238 v 0 c 3.27,6.783 9.206,6.056 9.206,6.056 v 0 h 8.539 l 5.929,6.616 c -0.543,-0.027 -8.169,0.006 -8.169,0.006 v 0 c -1.35,0.099 -2.595,0.142 -3.742,0.142 v 0 c -7.551,0 -10.791,-1.859 -10.791,-1.859 m 22.702,1.711 c 0.038,0.002 0.042,0.004 0.006,0.006 v 0 z"
         id="path214"
         inkscape:connector-curvature="0" /></clipPath><linearGradient
       x1="0"
       y1="0"
       x2="1"
       y2="0"
       gradientUnits="userSpaceOnUse"
       gradientTransform="matrix(-1.2e-6,-26.370605,-26.370605,1.2e-6,378.90137,251.59766)"
       spreadMethod="pad"
       id="linearGradient230"><stop
         style="stop-opacity:1;stop-color:#e6342a"
         offset="0"
         id="stop222" /><stop
         style="stop-opacity:1;stop-color:#e6342a"
         offset="0.0104712"
         id="stop224" /><stop
         style="stop-opacity:1;stop-color:#f9b233"
         offset="0.989529"
         id="stop226" /><stop
         style="stop-opacity:1;stop-color:#f9b233"
         offset="1"
         id="stop228" /></linearGradient><clipPath
       clipPathUnits="userSpaceOnUse"
       id="clipPath240"><path
         d="m 413.146,249.066 c -8.706,-5.017 -13.081,-13.743 -9.766,-19.49 v 0 c 3.308,-5.75 13.056,-6.348 21.767,-1.331 v 0 c 8.703,5.016 13.075,13.744 9.762,19.493 v 0 c -1.802,3.131 -5.512,4.733 -9.925,4.733 v 0 c -3.69,0.001 -7.871,-1.12 -11.838,-3.405 m 0.202,-14.591 c -1.597,2.203 -0.335,5.842 2.815,8.126 v 0 c 3.154,2.285 7.006,2.35 8.602,0.146 v 0 c 1.597,-2.204 0.336,-5.843 -2.814,-8.127 v 0 c -1.614,-1.169 -3.411,-1.757 -4.995,-1.757 v 0 c -1.511,0 -2.828,0.535 -3.608,1.612"
         id="path238"
         inkscape:connector-curvature="0" /></clipPath><linearGradient
       x1="0"
       y1="0"
       x2="1"
       y2="0"
       gradientUnits="userSpaceOnUse"
       gradientTransform="matrix(-1.2e-6,-27.631348,-27.631348,1.2e-6,419.14453,252.47119)"
       spreadMethod="pad"
       id="linearGradient254"><stop
         style="stop-opacity:1;stop-color:#e6342a"
         offset="0"
         id="stop246" /><stop
         style="stop-opacity:1;stop-color:#e6342a"
         offset="0.0104712"
         id="stop248" /><stop
         style="stop-opacity:1;stop-color:#f9b233"
         offset="0.989529"
         id="stop250" /><stop
         style="stop-opacity:1;stop-color:#f9b233"
         offset="1"
         id="stop252" /></linearGradient><clipPath
       clipPathUnits="userSpaceOnUse"
       id="clipPath264"><path
         d="m 442.66,251.599 -9.989,-25.957 h 8.994 l 3.447,9.871 h 13.844 l 2.687,6.835 h -13.552 l 0.877,2.627 h 13.902 l 2.57,6.624 z"
         id="path262"
         inkscape:connector-curvature="0" /></clipPath><linearGradient
       x1="0"
       y1="0"
       x2="1"
       y2="0"
       gradientUnits="userSpaceOnUse"
       gradientTransform="matrix(-1.1e-6,-25.957031,-25.957031,1.1e-6,449.05566,251.59863)"
       spreadMethod="pad"
       id="linearGradient278"><stop
         style="stop-opacity:1;stop-color:#e6342a"
         offset="0"
         id="stop270" /><stop
         style="stop-opacity:1;stop-color:#e6342a"
         offset="0.0104712"
         id="stop272" /><stop
         style="stop-opacity:1;stop-color:#f9b233"
         offset="0.989529"
         id="stop274" /><stop
         style="stop-opacity:1;stop-color:#f9b233"
         offset="1"
         id="stop276" /></linearGradient><clipPath
       clipPathUnits="userSpaceOnUse"
       id="clipPath288"><path
         d="M 0,396.85 H 595.28 V 0 H 0 Z"
         id="path286"
         inkscape:connector-curvature="0" /></clipPath><clipPath
       clipPathUnits="userSpaceOnUse"
       id="clipPath332"><path
         d="m 191.189,251.41 -2.814,-6.94 7.784,-0.094 -7.316,-19.037 h 8.722 l 7.315,19.131 h 7.034 l 2.721,6.94 z"
         id="path330"
         inkscape:connector-curvature="0" /></clipPath><linearGradient
       x1="0"
       y1="0"
       x2="1"
       y2="0"
       gradientUnits="userSpaceOnUse"
       gradientTransform="matrix(-1.1e-6,-26.071289,-26.071289,1.1e-6,201.50488,251.41016)"
       spreadMethod="pad"
       id="linearGradient346"><stop
         style="stop-opacity:1;stop-color:#e6342a"
         offset="0"
         id="stop338" /><stop
         style="stop-opacity:1;stop-color:#e6342a"
         offset="0.0104712"
         id="stop340" /><stop
         style="stop-opacity:1;stop-color:#f9b233"
         offset="0.989529"
         id="stop342" /><stop
         style="stop-opacity:1;stop-color:#f9b233"
         offset="1"
         id="stop344" /></linearGradient><clipPath
       clipPathUnits="userSpaceOnUse"
       id="clipPath356"><path
         d="m 239.206,251.41 c -0.281,0 -3.844,-9.471 -3.844,-9.471 v 0 h -10.599 l 3.095,9.471 h -8.44 l -9.754,-26.071 h 8.536 l 3.749,9.66 h 10.973 l -3.562,-9.66 h 8.814 c 0,0 9.566,26.071 9.847,26.071 v 0 c 0.188,0 -3.667,0.001 -6.342,0.001 v 0 c -1.337,0 -2.38,0 -2.473,-0.001"
         id="path354"
         inkscape:connector-curvature="0" /></clipPath><linearGradient
       x1="0"
       y1="0"
       x2="1"
       y2="0"
       gradientUnits="userSpaceOnUse"
       gradientTransform="matrix(-1.1e-6,-26.071777,-26.071777,1.1e-6,228.84619,251.41064)"
       spreadMethod="pad"
       id="linearGradient370"><stop
         style="stop-opacity:1;stop-color:#e6342a"
         offset="0"
         id="stop362" /><stop
         style="stop-opacity:1;stop-color:#e6342a"
         offset="0.0104712"
         id="stop364" /><stop
         style="stop-opacity:1;stop-color:#f9b233"
         offset="0.989529"
         id="stop366" /><stop
         style="stop-opacity:1;stop-color:#f9b233"
         offset="1"
         id="stop368" /></linearGradient><clipPath
       clipPathUnits="userSpaceOnUse"
       id="clipPath380"><path
         d="m 252.526,251.41 -9.755,-26.071 h 23.165 l 2.439,6.847 h -14.35 l 1.031,2.907 h 14.35 l 2.625,6.751 h -14.347 l 1.031,2.627 h 14.255 l 3.001,6.939 z"
         id="path378"
         inkscape:connector-curvature="0" /></clipPath><linearGradient
       x1="0"
       y1="0"
       x2="1"
       y2="0"
       gradientUnits="userSpaceOnUse"
       gradientTransform="matrix(-1.1e-6,-26.071289,-26.071289,1.1e-6,259.37109,251.41016)"
       spreadMethod="pad"
       id="linearGradient394"><stop
         style="stop-opacity:1;stop-color:#e6342a"
         offset="0"
         id="stop386" /><stop
         style="stop-opacity:1;stop-color:#e6342a"
         offset="0.0104712"
         id="stop388" /><stop
         style="stop-opacity:1;stop-color:#f9b233"
         offset="0.989529"
         id="stop390" /><stop
         style="stop-opacity:1;stop-color:#f9b233"
         offset="1"
         id="stop392" /></linearGradient><clipPath
       clipPathUnits="userSpaceOnUse"
       id="clipPath404"><path
         d="m 309.733,251.41 -11.821,-10.502 h -1.026 l 3.751,10.502 h -8.628 l -9.847,-26.071 h 8.722 l 4.97,13.035 4.501,-13.035 h 8.816 l -4.596,14.068 13.504,12.003 z"
         id="path402"
         inkscape:connector-curvature="0" /></clipPath><linearGradient
       x1="0"
       y1="0"
       x2="1"
       y2="0"
       gradientUnits="userSpaceOnUse"
       gradientTransform="matrix(-1.1e-6,-26.071289,-26.071289,1.1e-6,300.12109,251.41016)"
       spreadMethod="pad"
       id="linearGradient418"><stop
         style="stop-opacity:1;stop-color:#e6342a"
         offset="0"
         id="stop410" /><stop
         style="stop-opacity:1;stop-color:#e6342a"
         offset="0.0104712"
         id="stop412" /><stop
         style="stop-opacity:1;stop-color:#f9b233"
         offset="0.989529"
         id="stop414" /><stop
         style="stop-opacity:1;stop-color:#f9b233"
         offset="1"
         id="stop416" /></linearGradient><clipPath
       clipPathUnits="userSpaceOnUse"
       id="clipPath428"><path
         d="m 323.051,251.41 -9.845,-26.071 h 9.002 l 9.566,26.071 z"
         id="path426"
         inkscape:connector-curvature="0" /></clipPath><linearGradient
       x1="0"
       y1="0"
       x2="1"
       y2="0"
       gradientUnits="userSpaceOnUse"
       gradientTransform="matrix(-1.1e-6,-26.071289,-26.071289,1.1e-6,322.49023,251.41016)"
       spreadMethod="pad"
       id="linearGradient442"><stop
         style="stop-opacity:1;stop-color:#e6342a"
         offset="0"
         id="stop434" /><stop
         style="stop-opacity:1;stop-color:#e6342a"
         offset="0.0104712"
         id="stop436" /><stop
         style="stop-opacity:1;stop-color:#f9b233"
         offset="0.989529"
         id="stop438" /><stop
         style="stop-opacity:1;stop-color:#f9b233"
         offset="1"
         id="stop440" /></linearGradient><clipPath
       clipPathUnits="userSpaceOnUse"
       id="clipPath452"><path
         d="m 360.689,251.421 c -2.012,-0.027 -3.922,-0.054 -3.965,-0.011 v 0 c -0.095,0.093 -4.877,-13.036 -4.877,-13.036 v 0 l -7.409,13.036 h -7.691 l -10.035,-26.071 h 8.629 l 5.346,13.881 8.064,-13.881 h 6.848 c 0,0 9.611,25.931 9.751,26.071 v 0 c 0.034,0.034 -0.447,0.046 -1.197,0.046 v 0 c -0.906,0 -2.205,-0.017 -3.464,-0.035"
         id="path450"
         inkscape:connector-curvature="0" /></clipPath><linearGradient
       x1="0"
       y1="0"
       x2="1"
       y2="0"
       gradientUnits="userSpaceOnUse"
       gradientTransform="matrix(-1.1e-6,-26.117188,-26.117188,1.1e-6,346.03223,251.45605)"
       spreadMethod="pad"
       id="linearGradient466"><stop
         style="stop-opacity:1;stop-color:#e6342a"
         offset="0"
         id="stop458" /><stop
         style="stop-opacity:1;stop-color:#e6342a"
         offset="0.0104712"
         id="stop460" /><stop
         style="stop-opacity:1;stop-color:#f9b233"
         offset="0.989529"
         id="stop462" /><stop
         style="stop-opacity:1;stop-color:#f9b233"
         offset="1"
         id="stop464" /></linearGradient><clipPath
       clipPathUnits="userSpaceOnUse"
       id="clipPath476"><path
         d="m 372.73,249.739 c -1.891,-1.032 -3.723,-2.258 -5.258,-3.774 v 0 c -3.106,-3.063 -5.965,-7.91 -4.909,-12.448 v 0 c 0.541,-2.327 2.196,-4.237 4.119,-5.588 v 0 c 1.501,-1.053 3.24,-1.746 5.034,-2.102 v 0 c 4.794,-0.949 9.897,-0.488 14.759,-0.488 v 0 l 6.176,16.891 c 0,0 -9.992,-0.182 -9.931,0 v 0 c 0.06,0.181 -5.994,-6.965 -5.994,-6.965 v 0 h 4.48 l -1.211,-2.725 c -11.445,-0.787 -8.237,6.238 -8.237,6.238 v 0 c 3.27,6.783 9.206,6.056 9.206,6.056 v 0 h 8.539 l 5.929,6.616 c -0.543,-0.027 -8.169,0.006 -8.169,0.006 v 0 c -1.35,0.099 -2.595,0.142 -3.742,0.142 v 0 c -7.551,0 -10.791,-1.859 -10.791,-1.859 m 22.702,1.711 c 0.038,0.002 0.042,0.004 0.006,0.006 v 0 z"
         id="path474"
         inkscape:connector-curvature="0" /></clipPath><linearGradient
       x1="0"
       y1="0"
       x2="1"
       y2="0"
       gradientUnits="userSpaceOnUse"
       gradientTransform="matrix(-1.2e-6,-26.370605,-26.370605,1.2e-6,378.90137,251.59766)"
       spreadMethod="pad"
       id="linearGradient490"><stop
         style="stop-opacity:1;stop-color:#e6342a"
         offset="0"
         id="stop482" /><stop
         style="stop-opacity:1;stop-color:#e6342a"
         offset="0.0104712"
         id="stop484" /><stop
         style="stop-opacity:1;stop-color:#f9b233"
         offset="0.989529"
         id="stop486" /><stop
         style="stop-opacity:1;stop-color:#f9b233"
         offset="1"
         id="stop488" /></linearGradient><clipPath
       clipPathUnits="userSpaceOnUse"
       id="clipPath500"><path
         d="m 413.146,249.066 c -8.706,-5.017 -13.081,-13.743 -9.766,-19.49 v 0 c 3.308,-5.75 13.056,-6.348 21.767,-1.331 v 0 c 8.703,5.016 13.075,13.744 9.762,19.493 v 0 c -1.802,3.131 -5.512,4.733 -9.925,4.733 v 0 c -3.69,0.001 -7.871,-1.12 -11.838,-3.405 m 0.202,-14.591 c -1.597,2.203 -0.335,5.842 2.815,8.126 v 0 c 3.154,2.285 7.006,2.35 8.602,0.146 v 0 c 1.597,-2.204 0.336,-5.843 -2.814,-8.127 v 0 c -1.614,-1.169 -3.411,-1.757 -4.995,-1.757 v 0 c -1.511,0 -2.828,0.535 -3.608,1.612"
         id="path498"
         inkscape:connector-curvature="0" /></clipPath><linearGradient
       x1="0"
       y1="0"
       x2="1"
       y2="0"
       gradientUnits="userSpaceOnUse"
       gradientTransform="matrix(-1.2e-6,-27.631348,-27.631348,1.2e-6,419.14453,252.47119)"
       spreadMethod="pad"
       id="linearGradient514"><stop
         style="stop-opacity:1;stop-color:#e6342a"
         offset="0"
         id="stop506" /><stop
         style="stop-opacity:1;stop-color:#e6342a"
         offset="0.0104712"
         id="stop508" /><stop
         style="stop-opacity:1;stop-color:#f9b233"
         offset="0.989529"
         id="stop510" /><stop
         style="stop-opacity:1;stop-color:#f9b233"
         offset="1"
         id="stop512" /></linearGradient><clipPath
       clipPathUnits="userSpaceOnUse"
       id="clipPath524"><path
         d="m 442.66,251.599 -9.989,-25.957 h 8.994 l 3.447,9.871 h 13.844 l 2.687,6.835 h -13.552 l 0.877,2.627 h 13.902 l 2.57,6.624 z"
         id="path522"
         inkscape:connector-curvature="0" /></clipPath><linearGradient
       x1="0"
       y1="0"
       x2="1"
       y2="0"
       gradientUnits="userSpaceOnUse"
       gradientTransform="matrix(-1.1e-6,-25.957031,-25.957031,1.1e-6,449.05566,251.59863)"
       spreadMethod="pad"
       id="linearGradient538"><stop
         style="stop-opacity:1;stop-color:#e6342a"
         offset="0"
         id="stop530" /><stop
         style="stop-opacity:1;stop-color:#e6342a"
         offset="0.0104712"
         id="stop532" /><stop
         style="stop-opacity:1;stop-color:#f9b233"
         offset="0.989529"
         id="stop534" /><stop
         style="stop-opacity:1;stop-color:#f9b233"
         offset="1"
         id="stop536" /></linearGradient><clipPath
       clipPathUnits="userSpaceOnUse"
       id="clipPath548"><path
         d="M 0,396.85 H 595.28 V 0 H 0 Z"
         id="path546"
         inkscape:connector-curvature="0" /></clipPath><clipPath
       clipPathUnits="userSpaceOnUse"
       id="clipPath588"><path
         d="m 148.96,216.082 -22.375,-59.125 h 16.25 l 9.125,24.25 h 21 l 5.25,14.375 h -20.625 l 2.625,6.625 h 20.375 l 4.875,13.875 z"
         id="path586"
         inkscape:connector-curvature="0" /></clipPath><linearGradient
       x1="0"
       y1="0"
       x2="1"
       y2="0"
       gradientUnits="userSpaceOnUse"
       gradientTransform="matrix(-2.6e-6,-59.125488,-59.125488,2.6e-6,156.02246,216.08203)"
       spreadMethod="pad"
       id="linearGradient602"><stop
         style="stop-opacity:1;stop-color:#ea5b0b"
         offset="0"
         id="stop594" /><stop
         style="stop-opacity:1;stop-color:#fcea12"
         offset="0.48564172"
         id="stop596" /><stop
         style="stop-opacity:1;stop-color:#fcea12"
         offset="0.989529"
         id="stop598" /><stop
         style="stop-opacity:1;stop-color:#fcea12"
         offset="1"
         id="stop600" /></linearGradient><clipPath
       clipPathUnits="userSpaceOnUse"
       id="clipPath612"><path
         d="m 194.085,216.082 -23.25,-59.125 h 16.5 l 22.875,59.125 z"
         id="path610"
         inkscape:connector-curvature="0" /></clipPath><linearGradient
       x1="0"
       y1="0"
       x2="1"
       y2="0"
       gradientUnits="userSpaceOnUse"
       gradientTransform="matrix(-2.6e-6,-59.125488,-59.125488,2.6e-6,190.52246,216.08203)"
       spreadMethod="pad"
       id="linearGradient626"><stop
         style="stop-opacity:1;stop-color:#ea5b0b"
         offset="0"
         id="stop618" /><stop
         style="stop-opacity:1;stop-color:#fcea12"
         offset="0.48564172"
         id="stop620" /><stop
         style="stop-opacity:1;stop-color:#fcea12"
         offset="0.989529"
         id="stop622" /><stop
         style="stop-opacity:1;stop-color:#fcea12"
         offset="1"
         id="stop624" /></linearGradient><clipPath
       clipPathUnits="userSpaceOnUse"
       id="clipPath636"><path
         d="m 241.085,216.082 c -4.824,-0.195 -10.177,-1.072 -14.635,-2.97 v 0 c -6.127,-2.608 -12.083,-7.142 -15.815,-12.678 v 0 c -3.477,-5.157 -6.548,-10.403 -7.111,-16.805 v 0 c -0.247,-2.816 -0.388,-5.62 0.003,-8.43 v 0 c 0.651,-4.683 2.12,-9.931 5.647,-13.273 v 0 c 2.449,-2.317 6.604,-4.969 10.136,-4.969 v 0 h 21.326 l 13.074,34.375 -19,0.125 -11.75,-14.5 h 8.75 l -2.5,-5.75 c -6.924,-0.537 -10.308,5.512 -9.954,11.716 v 0 c 0.169,2.97 1.818,6.758 3.329,9.282 v 0 c 2.778,4.644 7.625,7.383 12.726,8.785 v 0 c 2.477,0.681 5.029,1.039 7.594,1.151 v 0 c 1.278,0.054 2.557,0.047 3.835,0.007 v 0 c 0.497,-0.015 3.6,-0.496 3.845,-0.191 v 0 c 0.007,0.01 11.375,14.125 11.375,14.125 v 0 z"
         id="path634"
         inkscape:connector-curvature="0" /></clipPath><linearGradient
       x1="0"
       y1="0"
       x2="1"
       y2="0"
       gradientUnits="userSpaceOnUse"
       gradientTransform="matrix(-2.6e-6,-59.125488,-59.125488,2.6e-6,232.62158,216.08203)"
       spreadMethod="pad"
       id="linearGradient650"><stop
         style="stop-opacity:1;stop-color:#ea5b0b"
         offset="0"
         id="stop642" /><stop
         style="stop-opacity:1;stop-color:#fcea12"
         offset="0.48564172"
         id="stop644" /><stop
         style="stop-opacity:1;stop-color:#fcea12"
         offset="0.989529"
         id="stop646" /><stop
         style="stop-opacity:1;stop-color:#fcea12"
         offset="1"
         id="stop648" /></linearGradient><clipPath
       clipPathUnits="userSpaceOnUse"
       id="clipPath660"><path
         d="m 301.084,216.082 -8.499,-20.625 h -14.75 l 8.125,20.625 h -16.25 l -23.25,-59.125 h 16.75 l 9.5,24.5 14.25,-0.125 -8.875,-24.375 h 16.5 l 22.499,59.125 z"
         id="path658"
         inkscape:connector-curvature="0" /></clipPath><linearGradient
       x1="0"
       y1="0"
       x2="1"
       y2="0"
       gradientUnits="userSpaceOnUse"
       gradientTransform="matrix(-2.6e-6,-59.125488,-59.125488,2.6e-6,281.77197,216.08203)"
       spreadMethod="pad"
       id="linearGradient674"><stop
         style="stop-opacity:1;stop-color:#ea5b0b"
         offset="0"
         id="stop666" /><stop
         style="stop-opacity:1;stop-color:#fcea12"
         offset="0.48564172"
         id="stop668" /><stop
         style="stop-opacity:1;stop-color:#fcea12"
         offset="0.989529"
         id="stop670" /><stop
         style="stop-opacity:1;stop-color:#fcea12"
         offset="1"
         id="stop672" /></linearGradient><clipPath
       clipPathUnits="userSpaceOnUse"
       id="clipPath684"><path
         d="m 322.959,216.082 -5.25,-13.625 h 12.375 l -17.125,-45.5 h 16.375 l 17.5,45.5 h 11.5 l 5.375,13.625 z"
         id="path682"
         inkscape:connector-curvature="0" /></clipPath><linearGradient
       x1="0"
       y1="0"
       x2="1"
       y2="0"
       gradientUnits="userSpaceOnUse"
       gradientTransform="matrix(-2.6e-6,-59.125488,-59.125488,2.6e-6,338.33398,216.08203)"
       spreadMethod="pad"
       id="linearGradient698"><stop
         style="stop-opacity:1;stop-color:#ea5b0b"
         offset="0"
         id="stop690" /><stop
         style="stop-opacity:1;stop-color:#fcea12"
         offset="0.48564172"
         id="stop692" /><stop
         style="stop-opacity:1;stop-color:#fcea12"
         offset="0.989529"
         id="stop694" /><stop
         style="stop-opacity:1;stop-color:#fcea12"
         offset="1"
         id="stop696" /></linearGradient><clipPath
       clipPathUnits="userSpaceOnUse"
       id="clipPath708"><path
         d="m 370.604,216.082 -22.299,-59.125 h 40.726 l 4.928,14.469 h -24.293 l 4.108,9.975 h 22.181 l 5.047,14.084 h -21.83 l 2.699,7.16 h 22.533 l 5.047,13.437 z"
         id="path706"
         inkscape:connector-curvature="0" /></clipPath><linearGradient
       x1="0"
       y1="0"
       x2="1"
       y2="0"
       gradientUnits="userSpaceOnUse"
       gradientTransform="matrix(-2.6e-6,-59.125488,-59.125488,2.6e-6,378.87793,216.08203)"
       spreadMethod="pad"
       id="linearGradient722"><stop
         style="stop-opacity:1;stop-color:#ea5b0b"
         offset="0"
         id="stop714" /><stop
         style="stop-opacity:1;stop-color:#fcea12"
         offset="0.48564172"
         id="stop716" /><stop
         style="stop-opacity:1;stop-color:#fcea12"
         offset="0.989529"
         id="stop718" /><stop
         style="stop-opacity:1;stop-color:#fcea12"
         offset="1"
         id="stop720" /></linearGradient><clipPath
       clipPathUnits="userSpaceOnUse"
       id="clipPath732"><path
         d="m 417.084,216.082 -22.25,-59.125 h 16.25 l 9.375,24.125 2.5,-24.125 h 16.125 l -1.875,25.875 c 12.375,9.875 13.375,21 13.375,21 v 0 c 1.25,11.5 -5.875,12.25 -5.875,12.25 v 0 z m 7.084,-24.875 c 0,0.001 5.916,15.166 5.916,15.166 v 0 h 3.918 c 0.594,0 1.256,-1.117 1.498,-1.518 v 0 c 0.699,-1.16 0.871,-2.404 0.611,-3.725 v 0 c -0.588,-2.97 -2.081,-5.862 -4.378,-7.862 v 0 c -0.923,-0.804 -1.975,-1.438 -3.155,-1.78 v 0 c -0.416,-0.122 -3.917,-0.284 -4.363,-0.284 v 0 c -0.031,0 -0.047,0.001 -0.047,0.003"
         id="path730"
         inkscape:connector-curvature="0" /></clipPath><linearGradient
       x1="0"
       y1="0"
       x2="1"
       y2="0"
       gradientUnits="userSpaceOnUse"
       gradientTransform="matrix(-2.6e-6,-59.125488,-59.125488,2.6e-6,422.7832,216.08203)"
       spreadMethod="pad"
       id="linearGradient746"><stop
         style="stop-opacity:1;stop-color:#ea5b0b"
         offset="0"
         id="stop738" /><stop
         style="stop-opacity:1;stop-color:#fcea12"
         offset="0.48564172"
         id="stop740" /><stop
         style="stop-opacity:1;stop-color:#fcea12"
         offset="0.989529"
         id="stop742" /><stop
         style="stop-opacity:1;stop-color:#fcea12"
         offset="1"
         id="stop744" /></linearGradient><clipPath
       clipPathUnits="userSpaceOnUse"
       id="clipPath756"><path
         d="m 474.496,215.932 c -1.789,-0.625 -3.612,-1.411 -5.261,-2.348 v 0 c -3.093,-1.756 -6.069,-3.848 -8.342,-6.616 v 0 c -0.995,-1.209 -1.926,-2.552 -2.678,-3.928 v 0 c -1.946,-3.556 -3.424,-7.574 -2.031,-11.582 v 0 c 1.392,-4.004 4.962,-7.476 8.525,-9.626 v 0 c 0,0 7.668,-4.334 6.625,-7.125 v 0 c 0,0 -4.748,-9.792 -23.5,1.125 v 0 c 0,0 -5.998,-14.998 -6,-15 v 0 c -0.24,-0.602 7.772,-3.207 8.174,-3.31 v 0 c 6.6,-1.7 13.812,-1.44 20.23,0.884 v 0 c 4.994,1.806 9.631,4.746 13.141,8.751 v 0 c 1,1.141 1.888,2.381 2.668,3.682 v 0 c 2.523,4.205 4.381,9.526 1.883,14.184 v 0 c -2.157,4.02 -6.723,6.056 -10.379,8.452 v 0 c -2.227,1.46 -7.9,3.987 -5.443,7.533 v 0 c 0.562,0.812 1.617,1.536 2.529,1.896 v 0 c 1.023,0.404 2.246,0.674 3.351,0.687 v 0 c 1.848,0.02 3.826,-0.386 5.596,-0.884 v 0 c 0,0 5.687,-2.562 8.75,-7.5 v 0 c 0,0 5.998,16.744 6,16.75 v 0 c 0.25,0.702 -3.582,2.373 -4.072,2.607 v 0 c -3.717,1.774 -7.695,2.736 -11.694,2.736 v 0 c -2.706,10e-4 -5.42,-0.44 -8.072,-1.368"
         id="path754"
         inkscape:connector-curvature="0" /></clipPath><linearGradient
       x1="0"
       y1="0"
       x2="1"
       y2="0"
       gradientUnits="userSpaceOnUse"
       gradientTransform="matrix(-2.7e-6,-60.876953,-60.876953,2.7e-6,470.08789,217.30029)"
       spreadMethod="pad"
       id="linearGradient770"><stop
         style="stop-opacity:1;stop-color:#ea5b0b"
         offset="0"
         id="stop762" /><stop
         style="stop-opacity:1;stop-color:#fcea12"
         offset="0.48564172"
         id="stop764" /><stop
         style="stop-opacity:1;stop-color:#fcea12"
         offset="0.989529"
         id="stop766" /><stop
         style="stop-opacity:1;stop-color:#fcea12"
         offset="1"
         id="stop768" /></linearGradient><linearGradient
       inkscape:collect="always"
       xlink:href="#linearGradient770"
       id="linearGradient2423"
       x1="3.0383916"
       y1="74.521782"
       x2="132.86539"
       y2="74.521782"
       gradientUnits="userSpaceOnUse"
       gradientTransform="matrix(0.94815208,0,0,0.94815208,18.095172,9.4036879)" /></defs><sodipodi:namedview
     pagecolor="#ffffff"
     bordercolor="#666666"
     borderopacity="1"
     objecttolerance="10"
     gridtolerance="10"
     guidetolerance="10"
     inkscape:pageopacity="0"
     inkscape:pageshadow="2"
     inkscape:window-width="1366"
     inkscape:window-height="740"
     id="namedview4"
     showgrid="false"
     inkscape:pagecheckerboard="true"
     inkscape:zoom="1.3797804"
     inkscape:cx="273.81952"
     inkscape:cy="50.193576"
     inkscape:window-x="0"
     inkscape:window-y="0"
     inkscape:window-maximized="1"
     inkscape:current-layer="g10" /><g
     id="g10"
     inkscape:groupmode="layer"
     inkscape:label="the-king-of-fighters-seeklogo.com"
     transform="matrix(1.3333333,0,0,-1.3333333,0,200.00003)"><path
       style="fill:url(#linearGradient2423);fill-opacity:1;fill-rule:evenodd;stroke-width:0.73355508"
       inkscape:connector-curvature="0"
       id="path12"
       d="m 82.52389,141.60954 c -33.989963,0 -61.547861,-27.5579 -61.547861,-61.547873 0,-33.989964 27.557908,-61.547867 61.547861,-61.547867 33.98997,0 61.54787,27.557903 61.54787,61.547867 0,33.989973 -27.5579,61.547873 -61.54787,61.547873 z M 58.674623,129.8925 c 0,0 2.858536,3.07881 5.348317,-0.54271 0,0 -0.214709,2.37227 -2.308921,3.4764 2.028837,0.80296 4.116089,1.49121 6.251195,2.06052 -0.603376,-0.92188 -1.034481,-2.133 -1.083738,-3.72552 0,0 0.09216,-4.25473 4.610105,-8.24064 0,0 -6.270196,1.17593 -11.062564,2.26247 0,0 -3.964793,2.08233 -1.75228,4.70723 z M 70.659085,42.630472 c 0,0 -1.382823,-4.163952 -5.809262,-5.522137 0,0 -5.717072,-0.81492 -11.892965,0.543205 0,0 -10.422183,1.357488 -16.044952,9.324366 0,0 -1.475714,1.267413 -3.964793,5.069643 v -0.04254 c -4.615035,8.233561 -7.248376,17.719793 -7.248376,27.825291 0,21.39327 11.794443,40.03497 29.232771,49.78157 -0.0099,-0.74454 0.132295,-1.63334 0.513367,-2.69808 0,0 1.199147,-3.62137 9.12732,-6.06612 0,0 -11.709991,0.99647 -16.783866,-3.25825 0,0 -2.397592,-2.17311 -3.319471,-3.98309 0,0 -3.781117,-6.33705 -7.007707,-2.35326 0,0 -1.106958,-3.25966 2.489781,-5.43205 0,0 -5.348307,-3.44053 -5.256128,-11.674816 0,0 -0.09207,-9.324369 -0.645312,-12.040753 0,0 -1.382823,-8.599532 -6.91622,-7.78321 0,0 3.596038,-4.526364 10.879609,0.995069 0,0 3.412362,-9.598826 7.007697,-12.941519 0,0 -1.475011,-4.345507 -0.184235,-6.879623 0,0 1.843767,-9.232884 -6.639653,-4.979571 0,0 1.290634,-4.163944 8.113963,-2.443332 0,0 2.766348,0.543278 2.304702,5.431359 0,0 2.121035,3.078093 3.227291,1.810686 0,0 0,-0.09001 1.751569,-1.448273 0,0 -0.460802,-2.263179 0.92259,-4.617143 0,0 0.368746,-2.897241 -0.55355,-3.439816 0,0 1.936648,-0.361781 4.057683,3.168181 0,0 0.461077,1.358185 1.382814,1.629827 0,0 5.071049,-2.715679 7.930998,-2.897242 0,0 5.071751,-1.990838 3.319471,-5.068938 z m 51.519775,-3.87331 c 0.5401,0.950027 4.36872,8.099885 1.96409,16.277183 0,0 -1.47641,6.519317 -7.46652,12.674101 0,0 -4.88738,4.616443 -11.80149,6.969702 0,0 -4.33495,1.629829 -13.004859,0.362138 0,0 -11.527035,-0.814915 -17.980196,0.724134 0,0 -7.466537,0.634338 -10.971087,6.789547 0,0 -2.581268,5.522135 0.368964,10.316618 0,0 -4.057683,5.883862 0.553265,8.691015 0,0 0.09207,-6.699469 2.58197,-8.240624 0,0 3.503858,-2.897239 8.296928,-2.082322 0,0 3.503849,1.17733 5.16394,3.168165 0,0 2.397592,2.082332 7.839511,-0.814206 0,0 7.656537,-3.620661 14.109714,-11.674814 0,0 1.93594,0.543628 4.33424,-0.814211 0,0 6.45387,-2.534117 10.69663,1.901467 0,0 2.58197,-2.805754 4.88667,-12.857071 0,0 2.58267,-11.766296 10.42219,-8.416561 0,0 -3.9655,-1.629835 -7.55802,5.522136 0,0 3.78042,-2.353963 9.31733,-0.814913 0,0 3.68752,1.086549 3.68752,4.617142 0,0 0.73892,3.710747 -3.7797,5.34128 0,0 4.33354,-2.534821 2.2125,-6.879626 0,0 -1.84375,-2.807161 -6.45386,-2.173105 0,0 -3.22729,-0.724137 -6.73184,4.163947 0,0 -1.75158,4.617146 -2.85783,8.691014 0,0 -2.02955,6.06471 -5.34832,7.87469 0,0 4.88667,1.17734 5.34832,-1.719905 0,0 0,-1.17663 0.55242,-1.17663 0,0 1.75228,1.05559 1.26037,2.987321 l -0.0619,0.181419 c 0,0 1.53694,0.06021 1.29134,2.112578 0,0 -0.12231,1.145671 0.92188,1.931025 0,0 1.84375,0.361436 -1.23012,3.077389 0,0 0.55327,0.603802 2.21323,0.301693 0,0 1.16818,-0.603376 0.30788,1.026734 0,0 -1.23011,2.475009 -3.81139,3.319478 0,0 -0.85996,0.66326 -1.90639,-0.483811 0,0 -1.72061,-1.206191 -3.68823,-0.120472 0,0 -2.33567,0.904983 -3.627,1.750863 0,0 -0.43019,0.54272 -3.01195,0.84448 0,0 -4.42643,1.14707 -7.07245,4.94859 0,0 -1.47641,2.29415 0.86137,2.95706 0,0 2.08936,0.48206 3.50385,-0.0608 0,0 -1.04503,4.40603 -5.53269,6.57843 0,0 -1.597465,0.72413 -4.672047,-0.0597 0,0 0.184738,4.88808 -3.31877,5.24979 0,0 -6.08652,-0.36157 -8.733239,0.4829 0,0 -1.966913,7e-4 -2.766338,2.11189 0,0 -1.475012,-0.48291 -2.243479,-1.93103 0,0 -1.106257,2.35396 -6.363096,2.53412 0,0 -3.503849,1.53975 -3.135094,6.51931 0,0 0.645313,4.25403 4.333539,4.25403 0,0 3.411669,0.45305 4.610114,-3.71216 0,0 1.090072,2.88599 -1.318784,4.58548 1.750867,0.16186 3.523551,0.24898 5.31735,0.24898 31.470624,0 56.980694,-25.51006 56.980694,-56.980696 0,-16.136437 -6.70792,-30.703564 -17.4876,-41.069445 z m -11.37221,57.557747 c -0.98382,-1.387753 -2.21323,-1.146373 -2.21323,-1.146373 -2.15199,0.543282 -1.9669,1.992248 -1.9669,1.992248 0,2.896536 3.13509,2.292745 3.13509,2.292745 3.31877,0 4.42643,-2.71638 4.42643,-2.71638 -2.70512,0.543273 -3.38139,-0.422307 -3.38139,-0.422307 z m 5.102,-11.041465 c -0.79872,-1.327932 -3.19631,-1.750167 -3.19631,-1.750167 -2.09007,1.387748 -0.36855,4.526363 -0.36855,4.526363 1.59816,-0.724133 3.56508,-2.775493 3.56508,-2.775493 z m -4.8557,3.801527 c 0,0 -2.33637,-2.353256 0.55334,-5.551694 0,0 -4.91834,-1.026032 -10.69664,3.680488 0,0 -12.850031,9.894393 -18.993554,11.407398 0,0 5.286384,4.646707 10.51366,3.801527 0,0 3.011938,-0.48205 5.65514,-3.017576 0,0 7.558014,-8.571381 12.969674,-10.316625 z M 89.350035,107.90669 c 0,0 -3.99575,1.20688 -7.501713,1.62912 0,0 -0.429911,3.98309 4.303283,3.98309 0,0 1.721314,0.24102 4.303283,-1.80998 0,0 3.320173,-3.07669 5.593908,-3.68119 0,0 -2.888782,-1.08656 -6.700164,-0.12048" /><path
       style="fill:#ffffff;fill-rule:evenodd;stroke-width:2.50852323"
       inkscape:connector-curvature="0"
       id="path14"
       d="m 192.74087,83.2669 c 0,0.821115 -0.8216,1.004711 -0.8216,1.004711 l -2.00582,0.27074 c -0.72968,0 -0.81992,1.461967 -0.81992,1.461967 v 36.915962 c 0,1.54931 1.36644,1.82294 1.36644,1.82294 l 1.82365,0.0931 c 0.63916,0 0.36555,1.45883 0.36555,1.45883 0,0.36386 -0.45605,0.72797 -0.45605,0.72797 h -12.76416 l -7.59254,-23.94726 -7.59017,23.94726 h -12.76418 c 0,0 -0.45578,-0.36388 -0.45578,-0.72797 0,0 -0.27496,-1.45883 0.36435,-1.45883 l 1.8234,-0.0931 c 0,0 1.36787,-0.27385 1.36787,-1.82294 V 86.004324 c 0,0 -0.0914,-1.461967 -0.82132,-1.461967 l -2.00586,-0.270738 c 0,0 -0.82014,-0.183617 -0.82014,-1.004712 0,0 -0.27397,-1.185202 0.54748,-1.185202 h 14.49687 c 0,0 0.72966,0.09306 0.72966,1.004715 0,0 0.0914,1.185199 -0.91208,1.185199 l -2.00583,0.180367 c 0,0 -0.8199,0.09306 -0.8199,1.368828 v 20.789906 l 8.88968,-26.038516 8.84635,26.038516 V 85.820818 c 0,-1.275433 -0.82036,-1.368827 -0.82036,-1.368827 l -2.00584,-0.180367 c -1.00351,0 -0.91185,-1.185202 -0.91185,-1.185202 0,-0.911598 0.7287,-1.004712 0.7287,-1.004712 h 14.49685 c 0.82015,0 0.54773,1.185202 0.54773,1.185202" /><path
       style="fill:#ffffff;fill-rule:evenodd;stroke-width:2.50852323"
       inkscape:connector-curvature="0"
       id="path16-6"
       d="m 260.2781,33.410527 c 0,0.821116 -0.81821,1.004711 -0.81821,1.004711 l -2.00655,0.27074 c -0.73091,0 -0.82112,1.461968 -0.82112,1.461968 v 36.915956 c 0,1.549314 1.36857,1.822945 1.36857,1.822945 l 1.82296,0.09306 c 0.64085,0 0.367,1.458834 0.367,1.458834 0,0.363859 -0.46016,0.727972 -0.46016,0.727972 h -12.76413 l -7.59018,-23.947265 -7.59257,23.947265 h -12.76653 c 0,0 -0.45439,-0.363886 -0.45439,-0.727972 0,0 -0.27366,-1.458834 0.36412,-1.458834 l 1.82296,-0.09306 c 0,0 1.36858,-0.273851 1.36858,-1.822945 V 36.147951 c 0,0 -0.0892,-1.461967 -0.8211,-1.461967 l -2.00658,-0.270738 c 0,0 -0.8211,-0.183617 -0.8211,-1.004712 0,0 -0.27075,-1.185202 0.54751,-1.185202 h 14.49685 c 0,0 0.73106,0.09306 0.73106,1.004715 0,0 0.0938,1.185199 -0.91155,1.185199 l -2.00344,0.180367 c 0,0 -0.82421,0.09306 -0.82421,1.368828 v 20.789913 l 8.89206,-26.038523 8.84393,26.038523 V 35.964446 c 0,-1.275433 -0.81818,-1.368828 -0.81818,-1.368828 l -2.00632,-0.180367 c -1.00184,0 -0.91159,-1.185202 -0.91159,-1.185202 0,-0.911597 0.72794,-1.004711 0.72794,-1.004711 h 14.49686 c 0.82114,0 0.54751,1.185201 0.54751,1.185201" /><path
       style="fill:#ffffff;fill-rule:evenodd;stroke-width:2.50852323"
       inkscape:connector-curvature="0"
       id="path18"
       d="m 219.21257,125.86226 c -1.00281,1.00471 -3.55682,1.27545 -3.55682,1.27545 h -15.137 c 0,0 -2.55092,-0.27074 -3.55445,-1.27545 0,0 -2.09728,-1.09497 -2.09728,-4.28361 V 86.924803 c 0,0 0.0914,-2.09655 1.54981,-3.282479 0,0 1.82268,-1.549313 2.9167,-1.549313 h 17.50982 c 1.09376,0 2.91909,1.549313 2.91909,1.549313 1.45667,1.185203 1.54981,3.282479 1.54981,3.282479 v 34.653847 c 0,3.18864 -2.09849,4.28361 -2.09849,4.28361 z m -6.38211,-36.55501 c 0,-0.60162 -0.48995,-1.092062 -1.09398,-1.092062 h -7.02224 c -0.60402,0 -1.09423,0.490442 -1.09423,1.092062 v 30.99594 c 0,0.60453 0.49021,1.09497 1.09423,1.09497 h 7.02224 c 0.60403,0 1.09398,-0.49044 1.09398,-1.09497 V 89.30725" /><path
       style="fill:#ffffff;fill-rule:evenodd;stroke-width:2.50852323"
       inkscape:connector-curvature="0"
       id="path20"
       d="m 214.55423,76.005883 c -1.00184,1.004711 -3.55684,1.275457 -3.55684,1.275457 h -15.137 c 0,0 -2.55332,-0.27074 -3.55682,-1.275457 0,0 -2.09656,-1.094974 -2.09656,-4.283608 V 37.06843 c 0,0 0.0892,-2.09655 1.54905,-3.282478 0,0 1.82294,-1.549313 2.9167,-1.549313 h 17.50744 c 1.09495,0 2.91668,1.549313 2.91668,1.549313 1.45884,1.185202 1.54908,3.282478 1.54908,3.282478 v 34.653845 c 0,3.188634 -2.09655,4.283608 -2.09655,4.283608 z m -6.37969,-36.555005 c 0,-0.601621 -0.49022,-1.092063 -1.09496,-1.092063 h -7.0222 c -0.60455,0 -1.09499,0.490442 -1.09499,1.092063 v 30.99594 c 0,0.604529 0.49044,1.094969 1.09499,1.094969 h 7.0222 c 0.60474,0 1.09496,-0.49044 1.09496,-1.094969 v -30.99594" /><path
       style="fill:#ffffff;fill-rule:evenodd;stroke-width:2.50852323"
       inkscape:connector-curvature="0"
       id="path22"
       d="m 245.68423,101.79709 c 0,0 5.01518,-0.18336 5.01518,3.46537 v 17.32451 c 0,0 -0.27398,4.28361 -5.19807,4.28361 H 221.8886 c 0,0 -0.8199,-0.36386 -0.8199,-0.81821 0,0 -0.18288,-1.18833 0.63676,-1.18833 0,0 2.82764,0.0931 2.82764,-1.54931 V 85.580537 c 0,0 -0.27397,-0.731111 -0.91181,-0.731111 l -1.82392,-0.454345 c 0,0 -0.91181,-0.273851 -0.91181,-1.004738 0,0 -0.0914,-1.185202 0.63819,-1.185202 h 14.58831 c 0,0 0.82015,0.183357 0.82015,0.821116 0,0 0.0914,1.458832 -0.82015,1.458832 l -1.82484,0.09029 c 0,0 -1.09402,0.457252 -1.09402,1.368823 v 16.686808 c 0,0 9.57312,-4.377454 13.85914,-14.222533 0,0 0.274,-1.278346 0,-2.5533 0,0 -0.45435,-1.549315 -2.73622,-1.549315 0,0 -0.91205,-0.0024 -0.91205,-1.004741 0,0 -0.0892,-0.911571 0.63797,-0.911571 h 8.75489 c 0,0 1.64029,-0.183357 2.00585,1.549314 0,0 3.00814,8.754896 -9.11833,17.870796 z m -2.91907,5.7251 c -0.24677,-1.1041 -0.97538,-2.35237 -3.00815,-2.35237 0,0 -2.99852,-0.59873 -5.67218,-1.05285 -0.50297,0.0991 -0.89186,0.52029 -0.89186,1.05285 v 15.31988 c 0,0.60453 0.48996,1.09208 1.09401,1.09208 h 7.38558 c 0.60499,0 1.09379,-0.48732 1.09379,-1.09208 v -12.96871" /><path
       style="fill:#ffffff;fill-rule:evenodd;stroke-width:2.50852323"
       inkscape:connector-curvature="0"
       id="path24"
       d="m 281.78201,120.0866 v 5.56389 c 0,1.27545 -1.09546,1.1852 -1.09546,1.1852 h -25.50906 c 0,0 -1.09402,0.0903 -1.09402,-1.1852 v -5.56389 c 0,0 -0.0892,-1.18206 0.36556,-1.18206 h 1.094 c 0,0 0.82039,-0.18339 0.82039,0.45435 0,0 0.18287,1.45882 1.36736,1.45882 h 5.74436 V 85.706638 c 0,0 -0.18286,-1.094969 -1.0035,-1.094969 l -1.4593,-0.363863 c 0,0 -1.00232,-0.183615 -1.00232,-0.821112 0,0 -0.27397,-1.185203 0.27399,-1.185203 h 15.30783 c 0.54774,0 0.27528,1.185203 0.27528,1.185203 0,0.637717 -1.00232,0.821112 -1.00232,0.821112 l -1.46075,0.363863 c -0.82036,0 -1.00109,1.094969 -1.00109,1.094969 v 35.111072 h 5.74436 c 1.18568,0 1.36786,-1.45882 1.36786,-1.45882 0,-0.63772 0.82014,-0.45435 0.82014,-0.45435 h 1.09399 c 0.45578,0 0.36556,1.18206 0.36556,1.18206" /><path
       style="fill:#ffffff;fill-rule:evenodd;stroke-width:2.50852323"
       inkscape:connector-curvature="0"
       id="path26"
       d="m 358.94507,70.23023 v 5.563884 c 0,1.275456 -1.09205,1.185201 -1.09205,1.185201 h -25.53317 c 0,0 -1.09206,0.09029 -1.09206,-1.185201 V 70.23023 c 0,0 -0.0938,-1.182065 0.36408,-1.182065 h 1.09498 c 0,0 0.82109,-0.183389 0.82109,0.454345 0,0 0.1806,1.45883 1.36885,1.45883 h 5.74192 V 35.850266 c 0,0 -0.18288,-1.09497 -1.00473,-1.09497 l -1.4588,-0.363863 c 0,0 -1.00183,-0.183614 -1.00183,-0.821112 0,0 -0.27365,-1.185203 0.27399,-1.185203 h 15.30545 c 0.55034,0 0.27688,1.185203 0.27688,1.185203 0,0.637717 -1.00185,0.821112 -1.00185,0.821112 l -1.46192,0.363863 c -0.82113,0 -1.00161,1.09497 -1.00161,1.09497 V 70.96134 h 5.74196 c 1.18833,0 1.36881,-1.45883 1.36881,-1.45883 0,-0.637718 0.82135,-0.454345 0.82135,-0.454345 h 1.09473 c 0.4572,0 0.36412,1.182065 0.36412,1.182065" /><path
       style="fill:#ffffff;fill-rule:evenodd;stroke-width:2.50852323"
       inkscape:connector-curvature="0"
       id="path28"
       d="m 320.28627,83.74821 c 0,0.547485 -0.72987,0.727972 -0.72987,0.727972 l -1.82392,0.273851 c -0.63796,0 -1.09374,1.549315 -1.09374,1.549315 l -10.48763,37.373212 c -0.27236,1.09497 0.91066,1.09497 0.91066,1.09497 l 1.27856,0.18362 c 0.91089,0 0.72847,1.09495 0.72847,1.09495 0,0.63773 -0.72847,0.72797 -0.72847,0.72797 h -17.76009 c 0,0 -0.7294,-0.0903 -0.7294,-0.72797 0,0 -0.18286,-1.09495 0.7294,-1.09495 l 1.27644,-0.18362 0.9128,-1.09497 -10.48764,-37.373212 c 0,0 -0.45554,-1.549315 -1.09375,-1.549315 l -1.82363,-0.273851 c 0,0 -0.72994,-0.180603 -0.72994,-0.727972 0,0 -0.18286,-1.368827 0.54775,-1.368827 h 13.95058 c 0,0 0.82011,0.183616 0.82011,0.911571 0,0 0.27367,1.185228 -0.54747,1.185228 l -1.54979,0.183389 c 0,0 -0.91209,0.454345 -0.54676,1.185203 l 3.46538,11.488708 h 9.37099 l 3.46538,-11.488708 c 0.36556,-0.731085 -0.54892,-1.185203 -0.54892,-1.185203 l -1.5486,-0.183389 c -0.82039,0 -0.54627,-1.185228 -0.54627,-1.185228 0,-0.727944 0.82012,-0.911571 0.82012,-0.911571 h 13.95059 c 0.72989,0 0.54795,1.368827 0.54795,1.368827 z m -24.32986,18.68901 3.28248,14.22251 3.55682,-14.22251 h -6.8393" /><path
       style="fill:#ffffff;fill-rule:evenodd;stroke-width:2.50852323"
       inkscape:connector-curvature="0"
       id="path30"
       d="m 334.88007,33.891838 c 0,0.547485 -0.73399,0.727972 -0.73399,0.727972 l -1.82295,0.273851 c -0.63772,0 -1.09207,1.549314 -1.09207,1.549314 l -10.48765,37.373214 c -0.27367,1.09497 0.91159,1.09497 0.91159,1.09497 l 1.27545,0.183616 c 0.91132,0 0.73087,1.094946 0.73087,1.094946 0,0.637741 -0.73087,0.727972 -0.73087,0.727972 h -17.75769 c 0,0 -0.72798,-0.09029 -0.72798,-0.727972 0,0 -0.18286,-1.094946 0.72798,-1.094946 l 1.27545,-0.183616 0.91157,-1.09497 -10.48757,-37.373214 c 0,0 -0.45435,-1.549314 -1.09498,-1.549314 l -1.82004,-0.273851 c 0,0 -0.73086,-0.180604 -0.73086,-0.727972 0,0 -0.18288,-1.368828 0.54747,-1.368828 h 13.95299 c 0,0 0.81823,0.183616 0.81823,0.911575 0,0 0.27367,1.185225 -0.54463,1.185225 l -1.55218,0.183388 c 0,0 -0.91133,0.454345 -0.54747,1.185203 l 3.46534,11.488712 h 9.37343 l 3.46296,-11.488712 C 322.56946,35.25732 321.655,34.803198 321.655,34.803198 l -1.54619,-0.183388 c -0.82422,0 -0.55062,-1.185225 -0.55062,-1.185225 0,-0.727948 0.82134,-0.911575 0.82134,-0.911575 h 13.95299 c 0.72797,0 0.54751,1.368828 0.54751,1.368828 z m -24.3299,18.688999 3.2825,14.222525 3.55922,-14.222525 h -6.83931" /><path
       style="fill:#ffffff;fill-rule:evenodd;stroke-width:2.50852323"
       inkscape:connector-curvature="0"
       id="path32-7"
       d="m 351.571,84.710805 0.18058,-0.09029 v 7.205108 c 0,0 -0.0914,0.454341 -1.18543,0.454341 h -1.09307 c 0,0 -0.82134,0.183617 -0.82134,-0.454341 0,0 -0.36434,-4.377448 -4.55795,-4.377448 h -11.4887 v 36.001495 c 0,0 0.36387,0.82109 1.09374,0.82109 l 1.64029,0.36386 c 0,0 1.09522,0.367 1.09522,1.09497 0,0 0.45603,1.27835 -1.09522,1.27835 h -13.76766 l -0.91307,-0.9116 c 0,0 -0.0914,-1.27832 0.45701,-1.27832 l 2.00583,-0.36389 c 0,0 1.04805,-0.18361 1.04805,-1.04971 V 85.983054 c 0,0 -0.0457,-1.278345 -1.04805,-1.278345 l -1.64038,-0.360977 -0.91301,-0.640601 c 0,0 -0.2727,-1.365691 0.45578,-1.365691 h 28.80602 c 0,0 1.73291,0.180604 1.73291,2.367521" /><path
       style="fill:#ffffff;fill-rule:evenodd;stroke-width:2.50852323"
       inkscape:connector-curvature="0"
       id="path34"
       d="m 164.01729,77.449787 h -13.76768 l -1.0023,-0.637716 c 0,0 -0.18288,-1.732687 0.63818,-1.732687 l 1.54979,-0.183617 c 0,0 1.32192,-0.273851 1.32192,-1.320685 V 36.5147 c 0,0 -0.13708,-1.461968 -1.23115,-1.461968 l -1.55029,-0.273851 c 0,0 -0.91159,0.0024 -0.91159,-0.634831 0,0 -0.18288,-1.461968 0.82132,-1.461968 h 13.9482 c 0,0 1.0047,0.273851 1.0047,1.004712 0,0 0.27073,1.185227 -1.0047,1.185227 l -1.54619,0.180367 c 0,0 -0.91449,0.82109 -0.91449,1.826054 v 12.034992 l 3.10201,3.645864 9.57311,-15.955186 c 0,0 1.18231,-1.552227 -0.0892,-1.552227 l -1.00184,-0.180603 c 0,0 -0.91448,-0.09306 -0.91448,-0.637717 0,0 -0.18058,-1.45883 0.55037,-1.45883 h 14.12866 c 0,0 0.5475,0.180604 0.5475,0.911598 0,0 0.36698,1.275433 -0.91163,1.275433 0,0 -2.09341,0.273883 -2.91667,2.096572 l -12.4898,20.883758 c 0,0 -0.82132,1.092063 0.36386,2.277038 l 11.21674,13.495756 c 0,0 1.09185,1.185201 1.7296,1.185201 l 1.64245,0.457254 c 0,0 0.6346,0.363863 0.6346,1.185202 0,0 0,1.185201 -0.72483,1.185201 h -13.95299 c 0,0 -0.91159,-0.273851 -0.91159,-0.911571 0,0 -0.0938,-1.642456 0.54747,-1.642456 l 2.18705,-0.180603 -12.12642,-14.31637 v 12.764169 c 0,0 0.36409,1.552201 1.45591,1.552201 l 1.36885,0.180603 c 0,0 0.54747,0.366999 0.54747,1.458833 0,0 0,0.82109 -0.91159,0.82109" /><path
       style="fill:#ffffff;fill-rule:evenodd;stroke-width:2.50852323"
       inkscape:connector-curvature="0"
       id="path36"
       d="m 289.1562,56.513098 c 0,0 3.00815,0.914482 3.00815,2.553301 v 13.953008 c 0,0 -0.45725,4.557937 -5.10662,4.557937 h -23.79806 c 0,0 -0.7311,-0.180366 -0.7311,-0.911597 0,0 -0.0867,-1.365688 0.64085,-1.365688 0,0 2.91672,0.09029 2.91672,-1.552199 V 36.639348 c 0,0 0,-1.552197 -1.18522,-1.552197 l -1.64246,-0.180367 c 0,0 -0.91155,-0.363863 -0.91155,-0.911597 0,0 -0.27367,-1.368828 0.91155,-1.368828 h 23.3408 c 0,0 5.65531,-0.180367 5.65531,5.106625 v 14.222525 c 0,0 0.27399,3.645888 -3.09957,4.557937 z m -5.38099,-16.681981 c 0,-0.604528 -0.49043,-1.09497 -1.09494,-1.09497 h -7.01742 c -0.60761,0 -1.09494,0.490442 -1.09494,1.09497 v 12.489812 c 0,0.604531 0.48733,1.09497 1.09494,1.09497 h 7.01742 c 0.60451,0 1.09494,-0.490439 1.09494,-1.09497 z m 0,20.604611 c 0,-0.604531 -0.49043,-1.094969 -1.09494,-1.094969 h -7.01742 c -0.60761,0 -1.09494,0.490438 -1.09494,1.094969 v 10.487584 c 0,0.604527 0.48733,1.094969 1.09494,1.094969 h 7.01742 c 0.60451,0 1.09494,-0.490442 1.09494,-1.094969 V 60.435728" /></g><style
     id="style1420">.st0{fill:#d82b46}.st1{fill:#231f20}</style></svg>