<?xml version="1.0" encoding="UTF-8" standalone="no"?>
<svg
   xmlns:dc="http://purl.org/dc/elements/1.1/"
   xmlns:cc="http://creativecommons.org/ns#"
   xmlns:rdf="http://www.w3.org/1999/02/22-rdf-syntax-ns#"
   xmlns:svg="http://www.w3.org/2000/svg"
   xmlns="http://www.w3.org/2000/svg"
   xmlns:sodipodi="http://sodipodi.sourceforge.net/DTD/sodipodi-0.dtd"
   xmlns:inkscape="http://www.inkscape.org/namespaces/inkscape"
   width="378.72495"
   height="153.38171"
   viewBox="0 0 378.72495 153.38171"
   version="1.1"
   id="svg6"
   sodipodi:docname="msx.svg"
   style="fill:none"
   inkscape:version="0.92.5 (2060ec1f9f, 2020-04-08)">
  <metadata
     id="metadata12">
    <rdf:RDF>
      <cc:Work
         rdf:about="">
        <dc:format>image/svg+xml</dc:format>
        <dc:type
           rdf:resource="http://purl.org/dc/dcmitype/StillImage" />
        <dc:title />
      </cc:Work>
    </rdf:RDF>
  </metadata>
  <defs
     id="defs10" />
  <sodipodi:namedview
     pagecolor="#ffffff"
     bordercolor="#666666"
     borderopacity="1"
     objecttolerance="10"
     gridtolerance="10"
     guidetolerance="10"
     inkscape:pageopacity="0"
     inkscape:pageshadow="2"
     inkscape:window-width="1366"
     inkscape:window-height="740"
     id="namedview8"
     showgrid="false"
     inkscape:pagecheckerboard="true"
     inkscape:zoom="0.91259766"
     inkscape:cx="177.84968"
     inkscape:cy="-16.844127"
     inkscape:window-x="0"
     inkscape:window-y="0"
     inkscape:window-maximized="1"
     inkscape:current-layer="svg6" />
  <path
     d="M 378.72493,0 H 0 v 153.38171 h 378.72493 z"
     id="path2"
     inkscape:connector-curvature="0"
     style="fill:#000000;stroke-width:1.42022729" />
  <path
     d="m 348.76239,21.591716 -36.00418,52.588177 39.16134,57.453167 h -36.16324 l -21.51929,-30.75815 -21.69397,30.83086 h -35.92749 c 0.97569,-2.02453 39.32609,-57.528717 39.32609,-57.528717 l -16.34681,-22.741957 -69.34118,0.0784 c -3.23244,0.255641 -7.20056,-0.72602 -8.82104,2.921967 -0.56525,1.20819 -0.80953,2.98859 -0.15906,4.20856 0.56099,1.37379 1.86192,2.6662 3.31339,3.06997 l 2.18431,0.1656 h 27.7555 c 12.86016,0.32239 24.76024,8.32707 30.33748,19.89838 4.93955,9.712496 4.21097,22.980127 -1.29241,32.210467 -6.95343,11.7254 -19.33924,18.28358 -32.76606,17.80155 h -77.19462 c 0,0 -11.81544,-42.649141 -11.89667,-42.721711 l -11.89668,42.721711 -28.153019,0.006 -11.32745,-42.890151 -12.38453,42.800251 h -31.14743 c 0,0 28.64087,-103.079379 30.50265,-109.8817 h 26.30573 l 12.37871,45.960253 12.622829,-45.960253 25.81193,-0.0057 22.08893,80.03832 h 51.46052 c 3.55199,-0.17142 8.49296,0.79874 9.95154,-3.563771 0.56525,-1.95182 0.0838,-3.97039 -1.29241,-5.34418 -1.29951,-1.13575 -2.91715,-1.45232 -4.6129,-1.45232 l -27.67313,-0.006 c -13.11154,-0.40363 -26.13502,-8.980516 -30.99078,-21.597526 -5.26052,-12.62852 -2.18431,-27.760763 7.44341,-37.537182 6.79721,-6.813967 14.8854,-10.212145 24.35974,-10.612933 l 90.78235,-0.0784 18.29253,26.372486 18.92453,-26.453865 z"
     id="path4"
     inkscape:connector-curvature="0"
     style="fill:#ffffff;stroke-width:1.42022729" />
</svg>
