<?xml version="1.0" encoding="UTF-8" standalone="no"?>
<svg
   xmlns:dc="http://purl.org/dc/elements/1.1/"
   xmlns:cc="http://creativecommons.org/ns#"
   xmlns:rdf="http://www.w3.org/1999/02/22-rdf-syntax-ns#"
   xmlns:svg="http://www.w3.org/2000/svg"
   xmlns="http://www.w3.org/2000/svg"
   xmlns:sodipodi="http://sodipodi.sourceforge.net/DTD/sodipodi-0.dtd"
   xmlns:inkscape="http://www.inkscape.org/namespaces/inkscape"
   width="433.49643"
   height="175.5639"
   viewBox="0 0 433.49643 175.5639"
   version="1.1"
   id="svg18"
   sodipodi:docname="msx1.svg"
   style="fill:none"
   inkscape:version="0.92.5 (2060ec1f9f, 2020-04-08)">
  <metadata
     id="metadata24">
    <rdf:RDF>
      <cc:Work
         rdf:about="">
        <dc:format>image/svg+xml</dc:format>
        <dc:type
           rdf:resource="http://purl.org/dc/dcmitype/StillImage" />
        <dc:title />
      </cc:Work>
    </rdf:RDF>
  </metadata>
  <defs
     id="defs22" />
  <sodipodi:namedview
     pagecolor="#ffffff"
     bordercolor="#666666"
     borderopacity="1"
     objecttolerance="10"
     gridtolerance="10"
     guidetolerance="10"
     inkscape:pageopacity="0"
     inkscape:pageshadow="2"
     inkscape:window-width="1366"
     inkscape:window-height="740"
     id="namedview20"
     showgrid="false"
     inkscape:pagecheckerboard="true"
     inkscape:zoom="1.290608"
     inkscape:cx="304.0403"
     inkscape:cy="-12.697091"
     inkscape:window-x="0"
     inkscape:window-y="0"
     inkscape:window-maximized="1"
     inkscape:current-layer="svg18" />
  <path
     d="M 433.49642,0 H 0 v 175.5639 h 433.49642 z"
     id="path14"
     inkscape:connector-curvature="0"
     style="fill:#000000;stroke-width:1.62562168" />
  <path
     d="m 399.20068,24.714327 -41.21114,60.193528 44.8249,65.762085 h -41.39321 l -24.63141,-35.20641 -24.83138,35.28965 h -41.12336 c 1.11681,-2.31733 45.01348,-65.848576 45.01348,-65.848576 l -18.71091,-26.030925 -79.36936,0.08974 c -3.69991,0.292612 -8.2419,-0.831017 -10.09672,3.344554 -0.647,1.382917 -0.92661,3.420796 -0.18208,4.817205 0.64213,1.572464 2.13119,3.05178 3.79258,3.513944 l 2.5002,0.189547 h 31.76952 c 14.72001,0.369017 28.34109,9.531353 34.72491,22.776102 5.65391,11.117139 4.81996,26.303529 -1.47931,36.868779 -7.95905,13.42112 -22.1361,20.92775 -37.50472,20.37603 h -88.35856 c 0,0 -13.5242,-48.8171 -13.61717,-48.90016 l -13.61719,48.90016 -32.224555,0.007 -12.96563,-49.09338 -14.17559,48.99007 H 30.681984 c 0,0 32.782941,-117.986824 34.913971,-125.772902 h 30.11009 l 14.168925,52.607071 14.44837,-52.607071 29.54486,-0.0065 25.28344,91.613532 h 58.90278 c 4.0657,-0.19621 9.72123,0.91426 11.39074,-4.07917 0.64701,-2.23409 0.0959,-4.54459 -1.47932,-6.11705 -1.48744,-1.30001 -3.33902,-1.66236 -5.28001,-1.66236 l -31.67524,-0.006 c -15.00774,-0.4621 -29.91469,-10.279389 -35.47269,-24.721086 -6.0213,-14.454872 -2.50021,-31.775547 8.51988,-42.96584 7.78023,-7.799408 17.03815,-11.689032 27.88267,-12.147783 l 103.91137,-0.08974 20.93801,30.186494 21.6614,-30.279643 z"
     id="path16"
     inkscape:connector-curvature="0"
     style="fill:#ffffff;stroke-width:1.62562168" />
</svg>
