<?xml version="1.0" encoding="UTF-8" standalone="no"?>
<svg
   xmlns:dc="http://purl.org/dc/elements/1.1/"
   xmlns:cc="http://creativecommons.org/ns#"
   xmlns:rdf="http://www.w3.org/1999/02/22-rdf-syntax-ns#"
   xmlns:svg="http://www.w3.org/2000/svg"
   xmlns="http://www.w3.org/2000/svg"
   xmlns:sodipodi="http://sodipodi.sourceforge.net/DTD/sodipodi-0.dtd"
   xmlns:inkscape="http://www.inkscape.org/namespaces/inkscape"
   width="500"
   height="200"
   viewBox="0 0 500 200"
   version="1.1"
   id="svg139"
   sodipodi:docname="naomi.svg"
   style="fill:none"
   inkscape:version="0.92.5 (2060ec1f9f, 2020-04-08)">
  <metadata
     id="metadata145">
    <rdf:RDF>
      <cc:Work
         rdf:about="">
        <dc:format>image/svg+xml</dc:format>
        <dc:type
           rdf:resource="http://purl.org/dc/dcmitype/StillImage" />
        <dc:title></dc:title>
      </cc:Work>
    </rdf:RDF>
  </metadata>
  <defs
     id="defs143" />
  <sodipodi:namedview
     pagecolor="#ffffff"
     bordercolor="#666666"
     borderopacity="1"
     objecttolerance="10"
     gridtolerance="10"
     guidetolerance="10"
     inkscape:pageopacity="0"
     inkscape:pageshadow="2"
     inkscape:window-width="1366"
     inkscape:window-height="740"
     id="namedview141"
     showgrid="false"
     inkscape:pagecheckerboard="true"
     inkscape:zoom="1.2117479"
     inkscape:cx="241"
     inkscape:cy="82"
     inkscape:window-x="0"
     inkscape:window-y="0"
     inkscape:window-maximized="1"
     inkscape:current-layer="svg139" />
  <path
     d="m 71.20114,43.784439 c 2.438024,2.303561 5.762655,3.72768 9.429344,3.72768 l 57.935566,0.0065 -12.51239,-36.318131 c -1.70886,-3.8582506 -5.71828,-6.5601876 -10.53362,-6.5601876 -4.79517,0 -8.86511,2.7902178 -10.51056,6.6325336 l -4.17061,11.83058 -0.0164,-17.8519708 -20.232203,-0.0099 c -3.656988,0 -6.944445,1.3884387 -9.365659,3.6851216 l 0.0071,-3.6691879 H 50.516119 c -3.85842,0 -7.367576,1.600749 -9.82193,4.1166385 V 5.2415385 l -19.52446,0.016364 C 12.741136,5.2510124 5.8272389,11.661326 5.8170584,20.136672 c 0,3.923662 1.7625577,7.482182 4.3616886,10.118642 l -4.401968,-0.0069 v 17.26372 l 19.671427,-0.0035 c 5.527123,-0.0064 11.0042,-3.250949 12.907955,-7.138536 l 0.05715,-0.15972 c 2.199418,4.322074 6.789504,7.301714 12.101939,7.301714 l 20.685502,-0.0035 V 43.78437"
     id="path111"
     inkscape:connector-curvature="0"
     style="fill:#ffffff;stroke-width:0.94748789" />
  <path
     d="m 8.8160817,44.558367 16.5885143,-0.01636 c 6.786815,0 12.286946,-5.334976 12.286946,-11.908463 0,-6.586477 -5.500131,-11.921828 -12.286946,-11.921828 l -4.308158,0.0228 c -0.339466,0 -0.614861,-0.270935 -0.614861,-0.604208 0,-0.333366 0.275395,-0.604676 0.614861,-0.604676 l 16.55841,0.0035 0.0066,-5.054227 H 21.092884 c -3.203311,0 -5.809521,2.53188 -5.809521,5.642548 0,3.113565 2.60573,5.635538 5.809521,5.635538 l 4.328522,0.05551 c 3.888486,0 7.035123,3.051228 7.035123,6.815543 0,3.767026 -3.146157,6.825077 -7.035123,6.825077 H 8.8227193 l -0.00664,5.109274"
     id="path113"
     inkscape:connector-curvature="0"
     style="fill:#0060a8;stroke-width:0.94748789" />
  <path
     d="M 8.8223254,38.262546 H 25.421022 c 3.213493,0 5.812604,-2.521974 5.812604,-5.638997 0,-3.113658 -2.599111,-5.632641 -5.812604,-5.632641 l -4.328523,-0.04561 c -3.881857,0 -7.031635,-3.054593 -7.031635,-6.828441 0,-3.763568 3.149778,-6.818619 7.031635,-6.818619 l 16.568593,-0.0035 -0.0066,-5.0735643 h -16.55841 c -6.779794,0 -12.2870037,5.3289393 -12.2870037,11.9088933 0,6.580029 5.5072097,11.912015 12.2870037,11.912015 l 4.284624,0.0064 c 0.325826,0 0.601125,0.258412 0.601125,0.584768 0,0.320469 -0.275299,0.578414 -0.601125,0.578414 l -16.5649901,0.0129 0.00664,5.037873"
     id="path115"
     inkscape:connector-curvature="0"
     style="fill:#0060a8;stroke-width:0.94748789" />
  <path
     d="m 50.552524,39.481242 c -2.877965,0 -5.235493,-2.231598 -5.235493,-5.080863 V 18.277505 c 0,-2.741133 2.357528,-4.99563 5.235493,-4.99563 l 17.706581,0.003 V 8.2212365 H 50.552524 c -5.762174,0 -10.429682,4.5249075 -10.429682,10.1117825 v 16.067828 c 0,5.587314 4.667508,10.118642 10.429682,10.118642 l 17.632617,0.0069 -0.0036,-5.051144 -17.629063,0.006"
     id="path117"
     inkscape:connector-curvature="0"
     style="fill:#0060a8;stroke-width:0.94748789" />
  <path
     d="m 46.586617,18.333019 c 0,-2.136457 1.766489,-3.868147 3.965907,-3.868147 h 17.706581 v 5.070583 H 53.003804 c -1.222037,0 -1.238847,1.179537 -1.238847,1.179537 h 12.726886 v 5.047686 h -17.91147 l 0.0062,-7.429659"
     id="path119"
     inkscape:connector-curvature="0"
     style="fill:#0060a8;stroke-width:0.94748789" />
  <path
     d="m 50.552524,38.252826 c -2.19279,0 -3.972631,-1.721783 -3.972631,-3.852166 v -7.436201 h 17.911566 v 5.058059 H 51.764476 c 0.01681,1.189071 1.238944,1.195052 1.238944,1.195052 h 15.181337 l -0.0036,5.02834 -17.628679,0.0069"
     id="path121"
     inkscape:connector-curvature="0"
     style="fill:#0060a8;stroke-width:0.94748789" />
  <path
     d="m 80.667178,39.468345 c -2.867783,0 -5.211479,-2.273841 -5.211479,-5.067966 V 18.332646 c 0,-2.796742 2.326886,-5.0512 5.197743,-5.0512 H 97.80318 V 8.2212365 H 80.613675 c -5.759581,0 -10.427089,4.5249075 -10.427089,10.1117825 v 16.067828 c 0,5.587314 4.707852,10.118642 10.466856,10.118642 l 17.149738,0.0069 V 20.714992 H 83.064954 v 5.047686 h 9.52982 V 39.468345 H 80.667178"
     id="path123"
     inkscape:connector-curvature="0"
     style="fill:#0060a8;stroke-width:0.94748789" />
  <path
     d="m 76.677929,34.400192 c 0,2.140757 1.779745,3.881886 3.975705,3.881886 h 10.71209 V 26.95801 h -8.287802 v 5.064508 h 3.075843 l 0.0097,1.189071 h -3.062107 c -0.668365,0 -1.215506,-0.538787 -1.215506,-1.189071 l -0.02738,-11.31117 c 0,0 -0.0036,-1.176174 1.229146,-1.205426 h 14.721511 l -0.0067,-5.044695 -17.149641,0.0035 c -2.195961,0 -3.975802,1.73169 -3.975802,3.868148 v 16.067359"
     id="path125"
     inkscape:connector-curvature="0"
     style="fill:#0060a8;stroke-width:0.94748789" />
  <path
     d="m 113.91781,14.389731 c 0.2315,-0.643414 0.85971,-1.107229 1.60127,-1.107229 0.74348,0 1.37746,0.463815 1.60223,1.107229 l 8.32526,23.928516 h -12.1906 l 0.0135,-5.62909 h 4.07378 l -1.83373,-5.30264 -5.97378,17.135775 h -6.14482 l 10.52689,-30.132561"
     id="path127"
     inkscape:connector-curvature="0"
     style="fill:#0060a8;stroke-width:0.94748789" />
  <path
     d="m 127.12469,39.468252 h -13.84854 v 5.05376 h 21.07491 L 123.39095,12.971248 c -0.96057,-3.0774621 -4.12661,-5.3414253 -7.87475,-5.3414253 -3.75391,0 -6.91035,2.2540566 -7.8786,5.3289393 L 96.576915,44.522386 h 5.517225 l 10.73918,-30.681639 c 0.4361,-1.01592 1.46391,-1.731671 2.67327,-1.731671 1.20168,0 2.23621,0.715751 2.67615,1.725213 l 8.94195,25.633963"
     id="path129"
     inkscape:connector-curvature="0"
     style="fill:#0060a8;stroke-width:0.94748789" />
  <path
     d="m 132.97553,11.194436 c -0.69161,0.669667 -1.61568,1.042192 -2.59643,1.042192 -0.9769,0 -1.89712,-0.372525 -2.58585,-1.041762 -0.69834,-0.676133 -1.08064,-1.5680159 -1.08064,-2.5219172 0,-1.9603544 1.64834,-3.5516248 3.66649,-3.5516248 0.98075,0 1.90482,0.3725174 2.59643,1.0387446 0.69161,0.6761245 1.07776,1.5649975 1.07776,2.5124409 0,0.9539107 -0.38615,1.8457935 -1.07776,2.5219265 z M 128.1525,6.5093319 c -0.60035,0.578367 -0.92215,1.3492395 -0.92215,2.1627477 0,0.8199755 0.3218,1.5878294 0.92215,2.1657754 0.59748,0.578367 1.38995,0.895331 2.2266,0.895331 1.74344,0 3.16028,-1.372071 3.16028,-3.0611064 0,-0.8135082 -0.32947,-1.5843807 -0.92311,-2.1627477 -0.59843,-0.5779465 -1.3909,-0.8918918 -2.23717,-0.8918918 -0.83569,0 -1.62816,0.3135154 -2.2266,0.8918918 z"
     id="path131"
     inkscape:connector-curvature="0"
     style="clip-rule:evenodd;fill:#ffffff;fill-rule:evenodd;stroke-width:0.94748789" />
  <path
     d="M 129.43871,10.651808 V 8.972679 h 1.04798 l 1.11138,1.679129 h 0.64166 l -1.14212,-1.7118581 c 0.006,-0.00121 0.0125,-0.00252 0.0202,-0.00402 0.22286,-0.043645 0.94713,-0.1849821 0.94713,-1.0773785 0,-0.3660577 -0.12776,-0.695947 -0.43322,-0.9151442 -0.31027,-0.2279543 -0.63782,-0.2316365 -1.18919,-0.2378515 -0.009,-1.028e-4 -0.0173,-2.056e-4 -0.0269,-3.084e-4 h -1.50714 v 3.9465317 z m 1.07776,-2.1136542 h -1.07776 v -1.394894 h 1.04798 c 0.0106,0 0.0211,-9.3e-6 0.0327,-1.86e-5 0.29777,-2.15e-4 0.55521,-4.019e-4 0.75981,0.1666829 0.2315,0.1830289 0.24206,0.4474506 0.24206,0.5520959 0,0.2872442 -0.13448,0.5486566 -0.51102,0.6369373 -0.16042,0.039197 -0.32179,0.039197 -0.49373,0.039197 z"
     id="path133"
     inkscape:connector-curvature="0"
     style="clip-rule:evenodd;fill:#ffffff;fill-rule:evenodd;stroke-width:0.94748789" />
  <path
     d="M 85.044018,152.04846 V 69.286326 H 70.905573 L 71.138511,122.50721 5.776779,69.963525 6.0071027,152.9522 H 18.292821 V 99.280006 Z m 9.040889,1.35141 10.893833,-18.04027 h -9.967458 v -12.62529 h 16.457068 l 29.89872,-52.770785 47.74804,83.436345 H 172.19562 L 162.4612,135.3596 h -42.41495 l -10.19838,18.04027 z m 31.754543,-30.89266 h 30.59513 L 141.13749,95.219616 Z m 184.2672,30.89266 H 296.20143 V 70.187638 l 47.28216,53.444812 47.74612,-54.570237 v 84.337657 h -14.83697 l -0.22766,-45.32543 -32.91395,38.56372 -33.14448,-38.33942 z m 108.01039,0 0.23054,-85.2414 h 14.13767 l -0.22957,85.2414 z M 445.46736,82.140961 V 70.187638 h -3.93834 v -2.255711 h 10.89383 v 2.255711 h -4.17656 v 11.953323 z m 7.64903,-0.226543 V 67.931927 h 3.93834 l 4.17367,8.7963 3.93834,-8.7963 h 3.01619 v 14.209034 h -2.78373 v -9.246956 l -3.93834,9.246956 -5.56362,-9.246956 v 9.246956 z"
     id="path135"
     inkscape:connector-curvature="0"
     style="clip-rule:evenodd;fill:#ffffff;fill-rule:evenodd;stroke-width:0.94748789" />
  <path
     d="m 188.65211,112.58567 c 0,-25.031695 20.86071,-45.328232 46.59152,-45.328232 25.726,0 46.58671,20.296537 46.58671,45.328232 0,25.03002 -20.86071,45.32637 -46.58671,45.32637 -25.73081,0 -46.59152,-20.29635 -46.59152,-45.32637 z m 46.59152,31.79734 c 18.07985,0 32.67572,-14.20941 32.67572,-31.79734 0,-17.36325 -14.59875,-31.572284 -32.67572,-31.572284 -17.84836,0 -32.45288,14.209034 -32.45288,31.572284 0,17.58793 14.60163,31.79734 32.45288,31.79734 z"
     id="path137"
     inkscape:connector-curvature="0"
     style="clip-rule:evenodd;fill:#cc2229;fill-rule:evenodd;stroke-width:0.94748789" />
</svg>
