<?xml version="1.0" encoding="UTF-8" standalone="no"?>
<!-- Created with Inkscape (http://www.inkscape.org/) -->

<svg
   xmlns:dc="http://purl.org/dc/elements/1.1/"
   xmlns:cc="http://creativecommons.org/ns#"
   xmlns:rdf="http://www.w3.org/1999/02/22-rdf-syntax-ns#"
   xmlns:svg="http://www.w3.org/2000/svg"
   xmlns="http://www.w3.org/2000/svg"
   xmlns:sodipodi="http://sodipodi.sourceforge.net/DTD/sodipodi-0.dtd"
   xmlns:inkscape="http://www.inkscape.org/namespaces/inkscape"
   width="500"
   height="200"
   viewBox="0 0 132.29166 52.916668"
   version="1.1"
   id="svg8"
   inkscape:version="0.92.5 (2060ec1f9f, 2020-04-08)"
   sodipodi:docname="neogeocd.svg">
  <defs
     id="defs2" />
  <sodipodi:namedview
     id="base"
     pagecolor="#ffffff"
     bordercolor="#666666"
     borderopacity="1.0"
     inkscape:pageopacity="0.0"
     inkscape:pageshadow="2"
     inkscape:zoom="1.1842658"
     inkscape:cx="411.70342"
     inkscape:cy="44.975474"
     inkscape:document-units="mm"
     inkscape:current-layer="layer1"
     showgrid="false"
     units="px"
     inkscape:pagecheckerboard="true"
     inkscape:window-width="1366"
     inkscape:window-height="740"
     inkscape:window-x="0"
     inkscape:window-y="0"
     inkscape:window-maximized="1" />
  <metadata
     id="metadata5">
    <rdf:RDF>
      <cc:Work
         rdf:about="">
        <dc:format>image/svg+xml</dc:format>
        <dc:type
           rdf:resource="http://purl.org/dc/dcmitype/StillImage" />
        <dc:title />
      </cc:Work>
    </rdf:RDF>
  </metadata>
  <g
     inkscape:label="Layer 1"
     inkscape:groupmode="layer"
     id="layer1"
     transform="translate(0,-244.08332)">
    <path
       inkscape:connector-curvature="0"
       id="path493"
       d="m 26.477381,287.49788 c -0.459004,-0.51495 -2.117483,-2.53205 -3.685509,-4.48245 l -2.850956,-3.54618 -0.06909,3.54139 c -0.038,1.94776 -0.01297,3.68764 0.05563,3.8664 0.0686,0.17875 0.406473,0.43212 0.750842,0.56306 1.217491,0.46288 0.655228,0.74614 -1.481103,0.74614 -1.239546,0 -2.107228,-0.10208 -2.107228,-0.24791 0,-0.13635 0.09052,-0.24791 0.201163,-0.24791 0.110639,0 0.445317,-0.22746 0.743727,-0.50547 0.519247,-0.48376 0.542565,-0.69684 0.542565,-4.95819 0,-4.02322 -0.04484,-4.49754 -0.46483,-4.91753 -0.255656,-0.25567 -0.618223,-0.52607 -0.805705,-0.60091 -0.752234,-0.30027 0.440498,-0.66212 2.194756,-0.66584 l 1.791903,-0.004 2.546509,3.2093 c 1.400581,1.76512 2.630179,3.21539 2.732441,3.22282 0.102263,0.007 0.185932,-1.09449 0.185932,-2.4487 v -2.46221 l -0.762828,-0.54318 c -0.448257,-0.31919 -0.671432,-0.63457 -0.541196,-0.76481 0.122475,-0.12248 3.15344,-0.19203 6.774628,-0.15546 l 6.552996,0.0661 0.07284,1.79735 c 0.05865,1.44709 0.002,1.79734 -0.290661,1.79734 -0.199924,0 -0.493001,-0.3924 -0.651282,-0.872 -0.361066,-1.09404 -1.306414,-1.6071 -2.961178,-1.6071 h -1.251858 v 2.10723 c 0,1.3262 0.09793,2.10723 0.264208,2.10723 0.645054,0 1.228381,-0.57938 1.501659,-1.4915 0.162739,-0.54318 0.44557,-0.98759 0.628513,-0.98759 0.259654,0 0.332622,0.6494 0.332622,2.96028 0,1.63168 -0.107219,3.02654 -0.2389,3.10792 -0.131396,0.0812 -0.493963,-0.38633 -0.805706,-1.03898 -0.3928,-0.82235 -0.738041,-1.21095 -1.1246,-1.26585 -0.541141,-0.0768 -0.557796,-0.0159 -0.557796,2.04053 0,2.05579 0.01875,2.12445 0.621403,2.27571 1.584454,0.39767 3.626961,-0.49051 4.339389,-1.88699 0.894713,-1.75378 1.274592,-1.22122 0.87363,1.22477 l -0.267413,1.6313 -5.138642,0.067 c -3.450879,0.045 -5.138642,-0.0181 -5.138642,-0.19206 0,-0.1425 0.263648,-0.35932 0.585885,-0.48183 0.322236,-0.12252 0.655391,-0.48232 0.740342,-0.79958 0.198568,-0.74154 0.202137,-8.33197 0.0043,-9.07041 -0.179383,-0.66944 -1.081935,-0.95346 -1.80322,-0.56744 -0.501174,0.26821 -0.518909,0.45464 -0.518909,5.4548 0,4.99325 -0.08014,5.96138 -0.493494,5.96138 -0.105897,0 -0.568088,-0.42133 -1.027092,-0.93627 z m 18.130507,0.68836 c -0.204525,-0.13218 -0.602792,-0.24203 -0.885036,-0.24411 -0.807534,-0.006 -2.595935,-1.71266 -3.236778,-3.08888 -1.724569,-3.70354 0.374107,-8.00924 4.302565,-8.82726 3.569006,-0.74316 6.883387,1.13772 7.73673,4.39053 l 0.270491,1.03106 0.721176,-0.72117 c 0.895263,-0.89527 1.812111,-0.93046 2.641171,-0.1014 0.340875,0.34087 0.652825,0.61977 0.693219,0.61977 0.04039,0 0.210403,-0.45713 0.377796,-1.01584 0.370436,-1.2364 1.999776,-3.05924 3.35038,-3.74827 1.380964,-0.70451 3.759125,-0.86138 5.319818,-0.35091 1.469793,0.48075 1.936839,0.5061 2.068126,0.11224 0.05555,-0.16666 0.282302,-0.2216 0.526974,-0.12771 0.365545,0.14027 0.418681,0.45133 0.356997,2.08984 -0.08567,2.27553 -0.355698,2.42886 -1.394015,0.7916 -0.851977,-1.34343 -2.005436,-1.96541 -3.644838,-1.96541 -1.017822,0 -1.280283,0.11396 -1.986096,0.86234 -1.618493,1.7161 -1.812486,6.5325 -0.338587,8.40625 0.611141,0.77694 1.994552,1.239 3.092763,1.03297 l 0.851523,-0.15974 v -1.6055 c 0,-1.4706 -0.05191,-1.62913 -0.617834,-1.88699 -0.479456,-0.21846 -0.555947,-0.35608 -0.34151,-0.61446 0.196939,-0.23729 0.975647,-0.33295 2.710434,-0.33295 2.581423,0 3.254385,0.28098 2.257775,0.94271 -0.456811,0.30331 -0.538135,0.59167 -0.538135,1.90813 0,1.77643 -0.208617,2.05519 -1.801874,2.40767 -3.559188,0.78741 -6.398112,0.35169 -8.180902,-1.25562 -1.044669,-0.94184 -1.902073,-2.4872 -1.911425,-3.4451 -0.0067,-0.68451 -0.127745,-0.69258 -0.929434,-0.0619 -0.917537,0.72174 -1.887264,0.63793 -2.614132,-0.2259 l -0.607288,-0.72172 -0.296115,1.32319 c -0.313584,1.40123 -1.363392,3.07426 -2.324051,3.7037 -1.414981,0.92713 -4.749701,1.44774 -5.629888,0.87892 z m 3.176504,-1.303 c 0.872543,-0.72184 1.274975,-2.22768 1.274975,-4.77077 0,-3.65233 -0.764155,-5.08215 -2.716114,-5.08215 -1.140544,0 -1.726997,0.41242 -2.233407,1.57064 -0.938859,2.14728 -0.827945,6.20332 0.207803,7.59916 0.899923,1.21281 2.455868,1.5194 3.466743,0.68312 z m 36.769946,1.1619 c -1.532305,-0.48125 -2.538737,-1.33241 -3.360289,-2.84187 -1.697702,-3.11924 -0.471719,-7.08314 2.70746,-8.75388 0.72058,-0.37869 0.662713,-0.39117 -1.85932,-0.40121 l -2.603047,-0.0104 v 1.77607 c 0,2.026 -0.389947,2.47756 -0.960433,1.11219 -0.521613,-1.24839 -1.329379,-1.69066 -2.921591,-1.59961 l -1.324071,0.0757 -0.07361,1.8353 c -0.04048,1.00941 0.03746,1.94636 0.173203,2.0821 0.39629,0.39629 1.472095,-0.47205 1.706748,-1.37762 0.114646,-0.44243 0.368693,-0.80441 0.564552,-0.80441 0.289749,0 0.356104,0.55432 0.356104,2.97491 0,2.3245 -0.07279,2.97491 -0.332934,2.97491 -0.183116,0 -0.482511,-0.43509 -0.665324,-0.96686 -0.355698,-1.03465 -0.760021,-1.42818 -1.35688,-1.32068 -0.292875,0.0528 -0.371864,0.47595 -0.371864,1.99227 0,2.27019 0.182935,2.48552 1.952653,2.29836 1.487038,-0.15725 2.202227,-0.60663 3.015263,-1.89455 0.830633,-1.31581 1.180877,-1.05432 0.965694,0.72098 -0.292778,2.41549 0.06597,2.26934 -5.570468,2.26934 -4.921914,0 -5.735621,-0.14825 -4.32969,-0.78883 l 0.619773,-0.28239 v -4.9237 -4.92371 l -0.619773,-0.28239 c -0.340876,-0.15531 -0.619774,-0.43183 -0.619774,-0.61446 0,-0.26296 0.786302,-0.33207 3.778232,-0.33207 h 3.778234 l -4.831848,-4.83662 -4.831846,-4.83662 v -6.70366 -6.70366 l 3.995779,-3.95405 c 2.197679,-2.17472 4.136914,-3.95405 4.309412,-3.95405 0.172498,0 2.22983,1.89651 4.571851,4.21446 2.342021,2.31795 4.364631,4.21445 4.49469,4.21445 0.130058,0 1.795309,-1.56182 3.700553,-3.47072 l 3.464089,-3.47073 h 5.838463 5.838461 l 4.26717,4.29249 4.26716,4.29249 v 5.92544 5.92544 l -4.09287,4.09288 -4.09288,4.09288 -3.22064,-3.21348 -3.220632,-3.21348 -3.532517,3.51501 c -2.288714,2.27735 -3.78627,3.57659 -4.253177,3.68991 l -0.72064,0.17489 0.881173,0.45207 c 1.191941,0.61151 2.618259,2.33052 2.948826,3.55395 0.471619,1.7455 0.507187,1.77066 0.818742,0.5795 0.540506,-2.06649 2.189075,-3.89668 4.18399,-4.64494 0.9172,-0.34402 3.357745,-0.33455 4.366045,0.017 0.5919,0.20634 0.87187,0.20634 1.07821,0 0.39229,-0.39228 7.86846,-0.37176 9.19353,0.0252 2.14939,0.64397 3.62939,3.05265 3.62939,5.90678 0,2.63076 -1.077,4.53073 -3.09886,5.46683 -1.34927,0.62469 -8.80078,0.70779 -8.80078,0.0981 0,-0.49301 -0.49254,-0.47054 -1.24543,0.0568 -0.4759,0.33334 -1.13603,0.42863 -2.9681,0.42848 -2.536162,-2.1e-4 -3.727138,-0.4 -4.88176,-1.63873 -0.621021,-0.66626 -1.551301,-2.6033 -1.559378,-3.24695 -0.0084,-0.64597 -0.500366,-0.52555 -0.5067,0.12395 -0.0094,0.91584 -0.86264,2.52117 -1.851406,3.48144 -1.553485,1.50873 -4.360947,2.03559 -6.786922,1.27368 z m 3.404627,-0.95741 c 1.128966,-0.5838 1.644455,-2.10182 1.644455,-4.84258 0,-2.77145 -0.148549,-3.42394 -1.013597,-4.45199 -0.534466,-0.63517 -0.821205,-0.76284 -1.713403,-0.76284 -0.892198,0 -1.178937,0.12767 -1.7134,0.76284 -0.871007,1.03513 -1.013681,1.67832 -1.013119,4.56721 4.96e-4,2.7873 0.43722,4.08764 1.581545,4.70952 0.834331,0.4534 1.376839,0.45775 2.227519,0.0178 z m 12.180595,0.23416 c 0,-0.0663 -0.373862,-0.27685 -0.830818,-0.46777 -1.491381,-0.62314 -2.398612,-2.52534 -2.379732,-4.98957 0.01659,-2.16475 0.768979,-3.6487 2.342871,-4.62089 l 0.743729,-0.4594 -0.691623,-9.3e-4 c -0.893926,-9.4e-4 -2.355605,0.756 -3.184645,1.64975 -1.059949,1.14275 -1.503365,2.26454 -1.503365,3.80339 0,2.02011 0.863408,3.60219 2.40414,4.40526 1.077742,0.56175 3.099443,1.00543 3.099443,0.6802 z m 9.17265,-0.36056 c 0,-0.1283 -0.11569,-0.30478 -0.25709,-0.39218 -0.16509,-0.10202 -0.24661,-1.90404 -0.22777,-5.03479 l 0.0293,-4.8759 h -1.03717 -1.03716 l -0.0366,5.26809 -0.0366,5.26809 1.30153,-10e-6 c 0.71584,-1e-5 1.30152,-0.105 1.30152,-0.2333 z m 3.66654,-0.48408 c 1.70743,-0.87143 2.53119,-2.35419 2.53119,-4.55606 0,-2.52687 -1.56517,-4.63573 -3.74707,-5.04868 l -0.83925,-0.15885 0.6686,0.71613 c 1.08902,1.16642 1.50507,2.47096 1.49347,4.68268 -0.0117,2.23175 -0.28791,3.16224 -1.23258,4.15247 -0.53425,0.56002 -0.57394,0.68175 -0.22226,0.68175 0.23546,0 0.84202,-0.21124 1.3479,-0.46944 z m -7.26122,-4.44743 c 0,-2.66876 -0.0925,-4.25753 -0.24791,-4.26048 -0.13635,-0.003 -0.30369,0.63887 -0.37187,1.42547 -0.11491,1.3259 -0.169,1.4302 -0.74178,1.4302 -0.4629,0 -0.72036,-0.21757 -1.0268,-0.86768 -0.63295,-1.34283 -1.3485,-1.85933 -2.57588,-1.85933 -1.989242,0 -3.017484,1.74558 -2.781225,4.72148 0.147453,1.8573 0.678027,2.92399 1.655859,3.32902 1.198126,0.49628 2.388186,0.12627 3.779486,-1.17514 1.36501,-1.27681 1.72431,-1.18263 1.6709,0.43797 -0.0402,1.21827 -0.0191,1.2937 0.32933,1.17757 0.23187,-0.0773 0.30989,-1.17482 0.30989,-4.35908 z m 5.80387,3.15808 c 1.36074,-2.23756 0.49809,-7.41385 -1.23554,-7.41385 -0.45253,0 -0.47783,0.21662 -0.47783,4.0905 v 4.09051 h 0.62342 c 0.43113,0 0.76731,-0.23662 1.08995,-0.76716 z m -7.31745,-7.51649 c -0.0926,-0.24121 -0.44602,-0.39318 -0.91447,-0.39318 h -0.76358 l 0.71615,0.74751 c 0.56988,0.59482 0.75667,0.67513 0.91447,0.39317 0.10906,-0.19488 0.13041,-0.53127 0.0474,-0.7475 z m -85.825423,-5.66125 0.07493,-1.30153 5.020829,-0.12395 c 6.292999,-0.15536 6.7443,-0.56912 0.81121,-0.74373 l -4.211922,-0.12395 -0.775135,-0.77555 c -1.360908,-1.36164 -1.253509,-3.90466 0.213645,-5.05872 0.577662,-0.45439 1.029817,-0.48741 6.67295,-0.48741 h 6.053299 l -0.07493,1.30152 -0.07493,1.30152 -4.834232,0.0637 c -5.316033,0.07 -5.67344,0.11694 -5.20366,0.68299 0.248814,0.2998 1.085365,0.36893 4.464606,0.36893 h 4.158422 l 0.796361,0.90701 c 0.745018,0.84852 0.789436,1.00275 0.688947,2.39199 -0.0933,1.28976 -0.211418,1.57791 -0.898545,2.19186 l -0.791132,0.70687 h -6.082824 -6.082822 z m 14.935907,0.98366 c -0.06709,-0.17483 -0.09148,-2.37812 -0.05419,-4.8962 l 0.06778,-4.57835 1.783563,-0.0725 1.783563,-0.0725 3.263899,3.01792 c 2.477377,2.29069 3.316145,2.93545 3.480713,2.67562 0.119249,-0.18829 0.218524,-1.54669 0.220612,-3.01868 l 0.0038,-2.67635 1.673387,0.0733 1.673388,0.0733 v 4.83423 4.83423 l -1.859319,0.0648 -1.85932,0.0647 -2.974911,-2.84155 c -1.636202,-1.56284 -3.17014,-2.84702 -3.408752,-2.85372 -0.388739,-0.011 -0.433842,0.2842 -0.433842,2.83877 v 2.85095 h -1.619191 c -1.088328,0 -1.659181,-0.10421 -1.741166,-0.31786 z m 14.918741,-0.0636 c -0.230871,-0.60164 -0.179222,-8.86423 0.05775,-9.23782 0.142159,-0.22413 0.690192,-0.29987 1.793547,-0.24791 l 1.588835,0.0749 0.07241,1.92129 c 0.04376,1.16102 0.177947,1.9213 0.339117,1.9213 0.146693,0 1.438943,-0.89248 2.871669,-1.98328 l 2.604959,-1.98327 h 2.106443 c 2.526063,0 2.558273,-0.0804 -1.056891,2.63815 -1.424896,1.07149 -2.591818,2.11551 -2.593162,2.32003 -0.0012,0.20453 1.307548,1.3759 2.908648,2.60305 l 2.911093,2.23119 -2.177569,0.0718 -2.17757,0.0718 -2.5737,-1.99305 c -1.415535,-1.09617 -2.690009,-1.99304 -2.832165,-1.99304 -0.150886,0 -0.288604,0.7997 -0.330872,1.9213 l -0.07241,1.92129 -1.642785,0.0726 c -1.331935,0.0588 -1.672029,-0.004 -1.797342,-0.33016 z"
       style="fill:#a0a0a0;stroke-width:0.24790928" />
    <path
       inkscape:connector-curvature="0"
       id="path491"
       d="m 24.031424,284.17622 c -1.908902,-2.37903 -3.665958,-4.50326 -3.904571,-4.7205 -0.411547,-0.37468 -0.433842,-0.19317 -0.433842,3.53203 0,3.69077 0.03243,3.96155 0.539034,4.5008 l 0.539032,0.57377 H 19.346369 17.92166 l 0.513812,-0.6532 c 0.475175,-0.60409 0.513812,-0.97815 0.513812,-4.97448 0,-2.47743 -0.108441,-4.52391 -0.254142,-4.79615 -0.139778,-0.26118 -0.558125,-0.63984 -0.929659,-0.84146 -0.640627,-0.34766 -0.564264,-0.3671 1.478414,-0.37652 l 2.153932,-0.01 2.647187,3.34677 c 1.455952,1.84073 2.745757,3.34678 2.866231,3.34678 0.120474,0 0.219043,-1.22716 0.219043,-2.72701 0,-2.39645 -0.0601,-2.78709 -0.495819,-3.22281 -0.272699,-0.2727 -0.495818,-0.55161 -0.495818,-0.61978 0,-0.0682 0.633022,-0.12395 1.406715,-0.12395 h 1.406716 l -0.530656,0.56486 c -0.506777,0.53943 -0.531835,0.807 -0.556854,5.9462 -0.01441,2.95974 -0.101849,5.42606 -0.19431,5.48071 -0.09246,0.0546 -1.729938,-1.84711 -3.63884,-4.22614 z m 20.629393,4.04207 c -3.643218,-1.01878 -5.47583,-5.3196 -3.745933,-8.79105 1.775943,-3.56385 6.683324,-4.37838 9.752702,-1.61874 2.455903,2.20807 2.67379,5.78632 0.518077,8.50814 -1.335398,1.68607 -4.253937,2.53667 -6.524846,1.90165 z m 3.588438,-1.40015 c 0.366546,-0.39197 0.784271,-1.13696 0.928277,-1.65554 0.340825,-1.22735 0.336139,-4.64176 -0.0081,-5.88152 -0.765735,-2.75797 -3.828419,-3.26378 -5.08215,-0.83934 -0.957146,1.85092 -0.909683,6.23657 0.08573,7.92166 0.912409,1.5446 2.854434,1.76124 4.076212,0.45474 z m 13.712289,1.40874 c -3.122795,-1.03648 -4.643631,-2.90789 -4.655965,-5.72922 -0.01985,-4.54154 4.049377,-7.27738 8.879528,-5.96992 1.188628,0.32175 1.693454,0.36372 1.937567,0.16113 0.181571,-0.15069 0.403535,-0.20058 0.493253,-0.11086 0.235665,0.23567 0.201243,3.30331 -0.03707,3.30331 -0.110101,0 -0.539424,-0.48128 -0.954044,-1.06951 -0.97912,-1.38909 -2.248173,-1.99887 -3.84136,-1.84579 -0.693761,0.0666 -1.432273,0.31588 -1.736462,0.58599 -2.004806,1.78016 -2.222267,7.30748 -0.360739,9.16902 0.888994,0.88899 2.391949,1.26604 3.447253,0.8648 0.632516,-0.24047 0.670628,-0.34517 0.670628,-1.84216 0,-1.12997 -0.110501,-1.67889 -0.383598,-1.90554 -0.306391,-0.25429 -0.318866,-0.35943 -0.06198,-0.52239 0.377219,-0.23928 3.197035,-0.28179 3.782776,-0.0571 0.357877,0.13734 0.361627,0.20013 0.03359,0.56261 -0.225544,0.24922 -0.398554,1.03328 -0.444544,2.01462 l -0.07529,1.6066 -1.350369,0.44773 c -1.812487,0.60095 -4.110549,0.74571 -5.343181,0.3366 z m 23.050379,-0.11533 c -1.785302,-0.61733 -2.647739,-1.31845 -3.468745,-2.81996 -0.605119,-1.10668 -0.720727,-1.59996 -0.716039,-3.05513 0.0089,-2.76556 1.15228,-4.46483 3.818103,-5.67444 l 1.363502,-0.61869 -4.331353,-0.0142 -4.331351,-0.0143 -4.779315,-4.77931 -4.779314,-4.77932 v -6.54757 -6.54758 l 4.08622,-4.10546 4.086216,-4.10546 4.40719,4.40038 c 2.423953,2.42022 4.519111,4.4004 4.655905,4.4004 0.136794,0 1.807556,-1.56184 3.712803,-3.47074 l 3.464089,-3.47073 h 5.838717 5.838709 l 4.14295,4.16899 4.14296,4.169 v 5.92473 5.92473 l -3.96905,3.96905 -3.96906,3.96905 -3.21673,-3.20959 -3.21672,-3.20958 -3.678851,3.64951 -3.678852,3.6495 -1.220946,0.0114 -1.220944,0.0113 1.49296,0.69143 c 2.460735,1.13963 3.648914,2.97077 3.650345,5.62566 0.0015,2.8203 -1.686138,5.1397 -4.305844,5.91768 -1.636534,0.486 -2.265331,0.47599 -3.817555,-0.0607 z m 2.973451,-0.65025 c 1.456625,-0.60862 1.972673,-1.97475 1.973648,-5.22484 10e-4,-2.91369 -0.313854,-3.98561 -1.435972,-4.8907 -0.749637,-0.60465 -2.403984,-0.57052 -3.084686,0.0636 -1.157724,1.07858 -1.407957,1.93493 -1.410498,4.82704 -0.0028,3.19549 0.440949,4.41356 1.873936,5.14373 1.026866,0.52324 1.025549,0.52319 2.083572,0.0811 z m 10.092239,0.37746 c -2.464614,-0.85123 -4.00093,-2.95485 -4.00093,-5.47835 0,-4.28522 3.872311,-7.03738 8.324337,-5.91634 0.83366,0.20992 1.18899,0.20992 1.39891,0 0.36545,-0.36546 7.38541,-0.37806 8.69067,-0.0156 0.52096,0.14466 1.37221,0.64698 1.89166,1.11628 3.04118,2.74752 2.51856,7.8163 -0.9878,9.58041 -1.27175,0.63984 -1.56145,0.68286 -4.70202,0.6982 -1.84073,0.009 -3.48623,0.0107 -3.65667,0.004 -0.50502,-0.0206 -0.37147,-1.00428 0.13635,-1.00428 0.94454,0 1.04122,-0.45065 1.04122,-4.85346 0,-3.23094 -0.0792,-4.32419 -0.32818,-4.53083 -0.56268,-0.46699 -0.91136,0.20205 -0.91136,1.74869 0,1.23321 -0.0652,1.43788 -0.45817,1.43788 -0.29505,0 -0.61805,-0.35456 -0.90724,-0.99587 -1.13626,-2.51978 -4.229743,-2.61548 -5.342172,-0.16527 -0.526573,1.15981 -0.631834,3.46188 -0.225241,4.92581 0.337472,1.21506 1.508566,2.18515 2.637943,2.18515 1.14773,0 2.47375,-0.64781 3.12269,-1.52556 0.80457,-1.08822 1.27176,-0.93631 1.07017,0.34798 -0.19241,1.22584 -0.69959,1.70186 -2.57231,2.41427 -1.60635,0.61109 -2.514314,0.61694 -4.221857,0.0272 z m 4.607167,-0.63706 c 1.19801,-0.55775 1.80786,-1.19063 1.47145,-1.52703 -0.0743,-0.0743 -0.46057,0.10554 -0.85839,0.39965 -1.43751,1.0628 -3.453204,1.09571 -4.581309,0.0748 -0.808296,-0.73149 -1.166203,-1.68025 -1.305157,-3.45974 -0.174259,-2.2315 0.39519,-3.92612 1.587291,-4.72362 1.544565,-1.0333 3.753835,-0.59497 4.650325,0.92265 0.63982,1.08314 1.07766,0.95722 1.0731,-0.30862 -0.005,-1.21206 -0.29767,-1.82275 -0.74319,-1.54741 -0.16864,0.10422 -1.10264,-0.008 -2.07556,-0.251 -1.67216,-0.4164 -1.84784,-0.41757 -3.210796,-0.0214 -2.986542,0.8682 -4.795719,3.8422 -4.134565,6.79656 0.242247,1.08247 0.541412,1.59638 1.469681,2.52465 1.806404,1.8064 4.28697,2.2239 6.65712,1.12045 z m 10.59365,-0.38992 c 3.17475,-1.63414 3.55658,-6.77873 0.67913,-9.15055 -1.09321,-0.90112 -2.63328,-1.25064 -5.5106,-1.25064 -2.02955,0 -2.86398,0.23018 -2.23766,0.61727 0.15665,0.0968 0.25196,1.97337 0.25196,4.96068 0,2.98732 -0.0953,4.86387 -0.25196,4.96069 -0.13857,0.0856 -0.18075,0.27091 -0.0937,0.41171 0.0993,0.16073 1.23364,0.22354 3.04782,0.16881 2.50761,-0.0757 3.05159,-0.17059 4.11505,-0.71797 z m -3.97022,-0.5468 c -0.0756,-0.30679 -0.10558,-2.4543 -0.0667,-4.77225 0.0691,-4.11784 0.0831,-4.21622 0.61172,-4.29148 0.90943,-0.12947 1.97694,0.6124 2.53246,1.75994 0.39919,0.82461 0.52121,1.55048 0.52121,3.10061 0,3.19075 -0.89496,4.76098 -2.71356,4.76098 -0.56944,0 -0.78049,-0.13301 -0.88512,-0.5578 z m 2.34229,-0.53987 c 0.70639,-0.75191 1.12519,-2.90434 0.90548,-4.65371 -0.25388,-2.02149 -1.50233,-3.71447 -2.46634,-3.34454 -0.35257,0.13529 -0.40557,0.68467 -0.40557,4.20432 0,2.5785 0.0976,4.14632 0.26882,4.31752 0.36438,0.36438 1.06699,0.14768 1.69761,-0.52359 z m -81.545299,2.10953 c 0,-0.13138 0.11156,-0.30783 0.24791,-0.39209 0.152153,-0.094 0.247909,-2.10493 0.247909,-5.20609 0,-3.10117 -0.09576,-5.11206 -0.247909,-5.2061 -0.78093,-0.48265 0.124138,-0.61977 4.090503,-0.61977 h 4.338412 v 1.48745 c 0,0.8181 -0.05291,1.48746 -0.117588,1.48746 -0.06467,0 -0.289681,-0.33279 -0.500015,-0.73953 -0.538586,-1.04151 -1.618692,-1.53215 -3.174955,-1.44222 l -1.289582,0.0745 -0.07169,2.17326 c -0.05689,1.72488 0.003,2.20194 0.290514,2.31225 0.587783,0.22556 1.404639,-0.36898 1.847413,-1.34462 l 0.412853,-0.90971 0.07493,1.30152 c 0.04121,0.71585 0.04121,1.87516 0,2.57628 l -0.07493,1.27473 -0.622045,-0.96486 c -0.449016,-0.69646 -0.79381,-0.96485 -1.239546,-0.96485 -0.605237,0 -0.618919,0.0428 -0.68893,2.15543 -0.0663,2.00068 -0.03248,2.17627 0.470992,2.44572 0.656827,0.35152 2.40338,0.15093 3.464741,-0.39791 0.416291,-0.21528 1.000053,-0.80284 1.297251,-1.30569 l 0.540358,-0.91427 0.07576,0.77987 c 0.04167,0.42893 -0.02111,1.15407 -0.139506,1.61141 l -0.215265,0.83153 -4.508792,0.0676 c -2.773605,0.0416 -4.508793,-0.0244 -4.508793,-0.1713 z m 40.742653,-0.22568 c 0.585069,-0.64649 0.619344,-9.97252 0.03843,-10.45465 -0.204525,-0.16974 -0.371864,-0.40909 -0.371864,-0.53189 0,-0.12659 1.905634,-0.19396 4.40039,-0.15558 l 4.40039,0.0677 0.07435,1.42548 c 0.07278,1.39539 -0.251522,1.93362 -0.566711,0.94055 -0.08465,-0.26671 -0.491185,-0.76873 -0.903409,-1.11559 -0.618308,-0.52028 -1.006532,-0.63066 -2.217935,-0.63066 h -1.468434 v 2.21655 c 0,1.27253 0.110228,2.28467 0.258813,2.3765 0.404667,0.2501 1.510855,-0.60328 1.810288,-1.39657 0.481648,-1.27603 0.657901,-0.77086 0.657901,1.88566 0,2.47839 -0.258936,3.3327 -0.599204,1.97696 -0.205013,-0.81684 -1.006474,-1.6051 -1.631979,-1.6051 -0.458947,0 -0.495819,0.16527 -0.495819,2.22246 0,2.64398 0.214385,2.88535 2.314777,2.6062 1.122433,-0.14919 1.429149,-0.32706 2.492908,-1.44577 l 1.213003,-1.27566 -0.173509,1.23955 c -0.322402,2.30324 0.145932,2.10723 -5.034626,2.10723 -4.448489,0 -4.593831,-0.0157 -4.197751,-0.45337 z m -17.028893,-4.46237 c -0.601641,-0.6648 -0.527829,-1.91529 0.140693,-2.38354 1.143107,-0.80066 2.67184,-0.0995 2.67184,1.22549 0,1.35752 -1.917511,2.14704 -2.812533,1.15805 z m -35.316473,-11.01244 0.07493,-1.30153 5.020829,-0.12395 c 6.292999,-0.15536 6.7443,-0.56912 0.81121,-0.74373 l -4.211923,-0.12395 -0.775134,-0.77555 c -1.360909,-1.36164 -1.253509,-3.90466 0.213645,-5.05872 0.577662,-0.45439 1.029816,-0.48741 6.672949,-0.48741 h 6.0533 l -0.07493,1.30152 -0.07493,1.30152 -4.834231,0.0637 c -5.316034,0.07 -5.673441,0.11693 -5.203661,0.68298 0.248814,0.2998 1.085365,0.36893 4.464607,0.36893 h 4.158421 l 0.796361,0.90701 c 0.745018,0.84852 0.789437,1.00275 0.688947,2.39199 -0.0933,1.28976 -0.211418,1.57791 -0.898545,2.19186 l -0.791131,0.70687 h -6.082826 -6.082822 z m 14.935907,0.98366 c -0.06709,-0.17483 -0.09148,-2.37812 -0.05419,-4.8962 l 0.06778,-4.57835 1.783563,-0.0725 1.783562,-0.0725 3.2639,3.01792 c 2.477376,2.29069 3.316145,2.93545 3.480712,2.67562 0.11925,-0.18829 0.218525,-1.54669 0.220612,-3.01868 l 0.0038,-2.67635 1.673387,0.0733 1.673388,0.0733 v 4.83423 4.83423 l -1.85932,0.0648 -1.859319,0.0647 -2.974911,-2.84155 c -1.636202,-1.56284 -3.170141,-2.84702 -3.408753,-2.85372 -0.388739,-0.011 -0.433841,0.2842 -0.433841,2.83877 v 2.85096 h -1.619191 c -1.088329,0 -1.659182,-0.10422 -1.741167,-0.31787 z m 14.918741,-0.0636 c -0.230871,-0.60164 -0.179222,-8.86423 0.05775,-9.23782 0.142158,-0.22413 0.690191,-0.29987 1.793547,-0.24791 l 1.588835,0.0749 0.07241,1.92129 c 0.04376,1.16102 0.177946,1.9213 0.339117,1.9213 0.146693,0 1.438942,-0.89247 2.871669,-1.98328 l 2.604959,-1.98327 h 2.106443 c 2.526062,0 2.558273,-0.0804 -1.056892,2.63815 -1.424895,1.07149 -2.591817,2.11551 -2.593161,2.32003 -0.0012,0.20453 1.307548,1.3759 2.908648,2.60305 l 2.911092,2.23119 -2.177568,0.0718 -2.17757,0.0718 -2.5737,-1.99305 c -1.415535,-1.09617 -2.69001,-1.99304 -2.832165,-1.99304 -0.150886,0 -0.288604,0.7997 -0.330872,1.9213 l -0.07241,1.92129 -1.642786,0.0726 c -1.331934,0.0588 -1.672029,-0.004 -1.797341,-0.33016 z"
       style="fill:#f6c500;stroke-width:0.24790928" />
    <path
       inkscape:connector-curvature="0"
       id="path489"
       d="m 24.031798,284.17622 c -1.9089,-2.37903 -3.665962,-4.50326 -3.904573,-4.7205 -0.41155,-0.37468 -0.433841,-0.19317 -0.433841,3.53203 0,3.69077 0.03242,3.96155 0.539035,4.5008 l 0.539036,0.57377 h -1.424716 -1.424706 l 0.513812,-0.6532 c 0.47518,-0.60409 0.513811,-0.97815 0.513811,-4.97448 0,-2.47743 -0.108436,-4.52391 -0.254137,-4.79615 -0.139778,-0.26118 -0.55813,-0.63984 -0.929662,-0.84146 -0.640632,-0.34766 -0.564268,-0.3671 1.478414,-0.37652 l 2.153929,-0.01 2.647193,3.34677 c 1.455945,1.84073 2.745754,3.34678 2.866231,3.34678 0.120468,0 0.219038,-1.22716 0.219038,-2.72701 0,-2.39645 -0.06006,-2.78709 -0.495822,-3.22281 -0.272698,-0.2727 -0.495812,-0.55161 -0.495812,-0.61978 0,-0.0682 0.633024,-0.12395 1.406716,-0.12395 h 1.406716 l -0.530658,0.56486 c -0.506775,0.53943 -0.53184,0.807 -0.556857,5.9462 -0.01443,2.95974 -0.10185,5.42606 -0.194311,5.48071 -0.09248,0.0546 -1.729936,-1.84711 -3.638836,-4.22614 z m 20.629392,4.04207 c -3.643221,-1.01878 -5.475832,-5.3196 -3.745933,-8.79105 1.775942,-3.56385 6.683328,-4.37838 9.752705,-1.61874 2.455899,2.20807 2.673785,5.78632 0.518075,8.50814 -1.335402,1.68607 -4.253935,2.53667 -6.524847,1.90165 z m 3.588437,-1.40015 c 0.366546,-0.39197 0.78427,-1.13696 0.928275,-1.65554 0.340826,-1.22735 0.336141,-4.64176 -0.0084,-5.88152 -0.765728,-2.75797 -3.828415,-3.26378 -5.082151,-0.83934 -0.957143,1.85092 -0.909676,6.23657 0.08573,7.92166 0.912412,1.5446 2.854434,1.76124 4.076218,0.45474 z m 13.712288,1.40874 c -3.122795,-1.03648 -4.643626,-2.90789 -4.655966,-5.72922 -0.01986,-4.54154 4.049384,-7.27738 8.879534,-5.96992 1.188624,0.32175 1.69345,0.36372 1.937562,0.16113 0.181577,-0.15069 0.403538,-0.20058 0.493254,-0.11086 0.235669,0.23567 0.201245,3.30331 -0.0371,3.30331 -0.110105,0 -0.53942,-0.48128 -0.954043,-1.06951 -0.979125,-1.38909 -2.24817,-1.99887 -3.841364,-1.84579 -0.693759,0.0666 -1.432268,0.31588 -1.736458,0.58599 -2.004809,1.78016 -2.222263,7.30748 -0.360737,9.16902 0.888987,0.88899 2.39195,1.26604 3.447252,0.8648 0.632517,-0.24047 0.670624,-0.34517 0.670624,-1.84216 0,-1.12997 -0.110498,-1.67889 -0.383599,-1.90554 -0.306383,-0.25429 -0.318864,-0.35943 -0.06203,-0.52239 0.377218,-0.23928 3.197041,-0.28179 3.782784,-0.0571 0.35787,0.13734 0.361628,0.20013 0.03364,0.56261 -0.22555,0.24922 -0.398554,1.03328 -0.44455,2.01462 l -0.07524,1.6066 -1.350366,0.44773 c -1.812484,0.60095 -4.110549,0.74571 -5.343184,0.3366 z m 23.05038,-0.11533 c -1.785303,-0.61733 -2.647737,-1.31845 -3.468747,-2.81996 -0.60512,-1.10668 -0.720725,-1.59996 -0.71604,-3.05513 0.0094,-2.76556 1.152289,-4.46483 3.818109,-5.67444 l 1.363502,-0.61869 -4.331358,-0.0142 -4.331349,-0.0143 -4.779309,-4.77931 -4.779319,-4.77932 v -6.54757 -6.54758 l 4.086216,-4.10546 4.086216,-4.10546 4.407198,4.40038 c 2.423948,2.42022 4.51911,4.4004 4.6559,4.4004 0.136799,0 1.807556,-1.56184 3.712801,-3.47074 l 3.46409,-3.47073 h 5.838715 5.83872 l 4.14295,4.16899 4.14296,4.169 v 5.92473 5.92473 l -3.96906,3.96905 -3.96906,3.96905 -3.21672,-3.20959 -3.216731,-3.20958 -3.678846,3.64951 -3.678854,3.6495 -1.220941,0.0114 -1.220951,0.0113 1.492965,0.69143 c 2.460734,1.13963 3.648909,2.97077 3.650343,5.62566 0.0019,2.8203 -1.686133,5.1397 -4.305844,5.91768 -1.63653,0.486 -2.265327,0.47599 -3.817556,-0.0607 z m 2.973449,-0.65025 c 1.456629,-0.60862 1.97268,-1.97475 1.973655,-5.22484 9.36e-4,-2.91369 -0.313861,-3.98561 -1.435978,-4.8907 -0.749631,-0.60465 -2.403982,-0.57052 -3.084688,0.0636 -1.157723,1.07858 -1.407953,1.93493 -1.410492,4.82704 -0.0028,3.19549 0.440952,4.41356 1.873932,5.14373 1.026864,0.52324 1.025552,0.52319 2.083571,0.0811 z m 5.272555,-15.82297 c 1.693413,-1.67029 3.193592,-3.24734 3.333727,-3.50456 0.218841,-0.40167 -0.151406,-0.87397 -2.6236,-3.34677 l -2.878402,-2.87911 -3.594067,-0.0803 -3.594068,-0.0803 v -3.63546 -3.63546 l -3.777622,-3.78353 c -2.077687,-2.08094 -3.951619,-3.78352 -4.164304,-3.78352 -0.212675,0 -1.85953,1.4874 -3.659656,3.30535 l -3.272974,3.30536 0.01059,6.17717 0.01059,6.17718 4.274521,4.40038 4.274521,4.4004 h 6.290883 6.290883 l 3.078935,-3.03689 z m -13.089525,-0.90318 c -2.32921,-0.75688 -2.294327,-1.40115 0.07646,-1.41191 3.027504,-0.0138 4.290413,-0.9891 5.26802,-4.06857 0.238077,-0.74993 0.535353,-1.47413 0.660618,-1.60934 0.665499,-0.71832 0.938882,2.00398 0.363023,3.61497 -0.42477,1.18832 -1.565731,2.65177 -2.406314,3.08644 -0.851396,0.44028 -3.118279,0.66252 -3.961804,0.38841 z m -6.741055,-9.54422 c -0.611267,-0.46402 -0.538913,-1.06207 0.185934,-1.53702 0.574125,-0.37618 0.665425,-0.37618 1.23955,0 0.73566,0.48203 0.784346,0.91261 0.166407,1.47184 -0.542267,0.49074 -1.00626,0.50973 -1.591891,0.0652 z m 4.902579,-3.36123 c -0.51206,-0.9902 -0.478076,-1.35604 0.199052,-2.14325 0.460225,-0.53505 0.710671,-0.63766 1.235042,-0.50606 0.680463,0.1708 1.410492,1.25275 1.410492,2.09045 0,0.68513 -0.790998,1.29028 -1.686536,1.29028 -0.612812,0 -0.860831,-0.15664 -1.15805,-0.73142 z m 19.747685,30.00906 c -2.464614,-0.85123 -4.000923,-2.95485 -4.000923,-5.47835 0,-4.28522 3.872303,-7.03738 8.32434,-5.91634 0.83366,0.20992 1.18899,0.20992 1.39891,0 0.36545,-0.36546 7.3854,-0.37806 8.69066,-0.0156 0.52096,0.14466 1.37221,0.64698 1.89166,1.11628 3.04119,2.74752 2.51857,7.8163 -0.9878,9.58041 -1.27174,0.63984 -1.56145,0.68286 -4.70202,0.6982 -1.84072,0.009 -3.48623,0.0107 -3.65666,0.004 -0.50503,-0.0206 -0.37148,-1.00428 0.13635,-1.00428 0.94454,0 1.04121,-0.45065 1.04121,-4.85346 0,-3.23094 -0.0792,-4.32419 -0.32817,-4.53083 -0.56269,-0.46699 -0.91137,0.20205 -0.91137,1.74869 0,1.23321 -0.0652,1.43788 -0.45817,1.43788 -0.29504,0 -0.61804,-0.35456 -0.90724,-0.99587 -1.13626,-2.51978 -4.229743,-2.61548 -5.342173,-0.16527 -0.526573,1.15981 -0.631833,3.46188 -0.22524,4.92581 0.337472,1.21506 1.508565,2.18515 2.637943,2.18515 1.14774,0 2.47375,-0.64781 3.12269,-1.52556 0.80457,-1.08822 1.27177,-0.93631 1.07018,0.34798 -0.19241,1.22584 -0.69959,1.70186 -2.57231,2.41427 -1.60635,0.61109 -2.514325,0.61694 -4.221867,0.0272 z m 4.607167,-0.63706 c 1.19801,-0.55775 1.80787,-1.19063 1.47145,-1.52703 -0.0743,-0.0743 -0.46057,0.10554 -0.85838,0.39965 -1.43752,1.0628 -3.453215,1.09571 -4.58132,0.0748 -0.808295,-0.73149 -1.166203,-1.68025 -1.305157,-3.45974 -0.17425,-2.2315 0.39519,-3.92612 1.587291,-4.72362 1.544576,-1.0333 3.753846,-0.59497 4.650326,0.92265 0.63983,1.08314 1.07767,0.95722 1.0731,-0.30862 -0.005,-1.21206 -0.29766,-1.82275 -0.74319,-1.54741 -0.16864,0.10422 -1.10264,-0.008 -2.07556,-0.251 -1.67216,-0.4164 -1.84784,-0.41757 -3.210797,-0.0214 -2.986539,0.8682 -4.795716,3.8422 -4.134564,6.79656 0.242247,1.08247 0.541415,1.59638 1.469681,2.52465 1.806403,1.8064 4.28697,2.2239 6.65712,1.12045 z m 10.59366,-0.38992 c 3.17475,-1.63414 3.55658,-6.77873 0.67913,-9.15055 -1.09321,-0.90112 -2.63328,-1.25064 -5.51061,-1.25064 -2.02954,0 -2.86398,0.23018 -2.23765,0.61727 0.15664,0.0968 0.25195,1.97337 0.25195,4.96068 0,2.98732 -0.0953,4.86387 -0.25195,4.96069 -0.13857,0.0856 -0.18076,0.27091 -0.0937,0.41171 0.0993,0.16073 1.23363,0.22354 3.04781,0.16881 2.50762,-0.0757 3.0516,-0.17059 4.11505,-0.71797 z m -3.97022,-0.5468 c -0.0756,-0.30679 -0.10558,-2.4543 -0.0667,-4.77225 0.0691,-4.11784 0.0831,-4.21622 0.61171,-4.29148 0.90944,-0.12947 1.97695,0.6124 2.53246,1.75994 0.39919,0.82461 0.52122,1.55048 0.52122,3.10061 0,3.19075 -0.89497,4.76098 -2.71356,4.76098 -0.56944,0 -0.7805,-0.13301 -0.88513,-0.5578 z m 2.34229,-0.53987 c 0.70639,-0.75191 1.12519,-2.90434 0.90548,-4.65371 -0.25389,-2.02149 -1.50234,-3.71447 -2.46635,-3.34454 -0.35257,0.13529 -0.40556,0.68467 -0.40556,4.20432 0,2.5785 0.0976,4.14632 0.26882,4.31752 0.36438,0.36438 1.06698,0.14768 1.69761,-0.52359 z m -81.545307,2.10953 c 0,-0.13138 0.111557,-0.30783 0.247916,-0.39209 0.152147,-0.094 0.247906,-2.10493 0.247906,-5.20609 0,-3.10117 -0.09576,-5.11206 -0.247906,-5.2061 -0.780936,-0.48265 0.124131,-0.61977 4.090498,-0.61977 H 38.7824 v 1.48745 c 0,0.8181 -0.05294,1.48746 -0.11759,1.48746 -0.06465,0 -0.289677,-0.33279 -0.50001,-0.73953 -0.538586,-1.04151 -1.618699,-1.53215 -3.174957,-1.44222 l -1.289584,0.0745 -0.07168,2.17326 c -0.05688,1.72488 0.0028,2.20194 0.290511,2.31225 0.587786,0.22556 1.404645,-0.36898 1.847415,-1.34462 l 0.412852,-0.90971 0.07496,1.30152 c 0.04123,0.71585 0.04123,1.87516 0,2.57628 l -0.07496,1.27473 -0.622042,-0.96486 c -0.44902,-0.69646 -0.79381,-0.96485 -1.23955,-0.96485 -0.605232,0 -0.618912,0.0428 -0.688924,2.15543 -0.06634,2.00068 -0.03251,2.17627 0.470992,2.44572 0.656823,0.35152 2.403382,0.15093 3.464736,-0.39791 0.416291,-0.21528 1.000058,-0.80284 1.297258,-1.30569 l 0.540357,-0.91427 0.07571,0.77987 c 0.0417,0.42893 -0.02108,1.15407 -0.139507,1.61141 l -0.215272,0.83153 -4.508784,0.0676 c -2.773611,0.0416 -4.508794,-0.0244 -4.508794,-0.1713 z m 40.742659,-0.22568 c 0.58506,-0.64649 0.619344,-9.97252 0.03842,-10.45465 -0.204533,-0.16974 -0.371868,-0.40909 -0.371868,-0.53189 0,-0.12659 1.905639,-0.19396 4.400395,-0.15558 l 4.400385,0.0677 0.0744,1.42548 c 0.0728,1.39539 -0.251523,1.93362 -0.566713,0.94055 -0.08461,-0.26671 -0.491184,-0.76873 -0.903408,-1.11559 -0.618304,-0.52028 -1.006532,-0.63066 -2.217935,-0.63066 h -1.468435 v 2.21655 c 0,1.27253 0.110227,2.28467 0.258813,2.3765 0.404672,0.2501 1.510861,-0.60328 1.810292,-1.39657 0.481645,-1.27603 0.6579,-0.77086 0.6579,1.88566 0,2.47839 -0.258934,3.3327 -0.599208,1.97696 -0.205011,-0.81684 -1.006475,-1.6051 -1.631975,-1.6051 -0.458951,0 -0.495822,0.16527 -0.495822,2.22246 0,2.64398 0.214391,2.88535 2.314781,2.6062 1.122427,-0.14919 1.429147,-0.32706 2.49291,-1.44577 l 1.212995,-1.27566 -0.173509,1.23955 c -0.322396,2.30324 0.145934,2.10723 -5.034618,2.10723 -4.44849,0 -4.593835,-0.0157 -4.197754,-0.45337 z m -17.028897,-4.46237 c -0.601644,-0.6648 -0.527829,-1.91529 0.140697,-2.38354 1.143106,-0.80066 2.671835,-0.0995 2.671835,1.22549 0,1.35752 -1.91751,2.14704 -2.812532,1.15805 z m -35.316477,-11.01244 0.07496,-1.30153 5.020834,-0.12395 c 6.293001,-0.15536 6.744298,-0.56912 0.81121,-0.74373 l -4.211922,-0.12395 -0.775135,-0.77555 c -1.360907,-1.36164 -1.253511,-3.90466 0.213641,-5.05872 0.577666,-0.45439 1.029815,-0.48741 6.672955,-0.48741 h 6.053293 l -0.07496,1.30152 -0.07496,1.30152 -4.834226,0.0637 c -5.31604,0.07 -5.673441,0.11693 -5.203658,0.68298 0.248805,0.2998 1.08536,0.36893 4.464606,0.36893 h 4.15842 l 0.796358,0.90701 c 0.745021,0.84852 0.789434,1.00275 0.688952,2.39199 -0.09332,1.28976 -0.21142,1.57791 -0.898545,2.19186 l -0.791139,0.70687 h -6.082814 -6.082827 z m 14.935909,0.98366 c -0.06709,-0.17483 -0.09145,-2.37812 -0.05416,-4.8962 l 0.06774,-4.57835 1.78356,-0.0725 1.783569,-0.0725 3.263895,3.01792 c 2.477374,2.29069 3.31615,2.93545 3.480711,2.67562 0.11925,-0.18829 0.218532,-1.54669 0.220612,-3.01868 l 0.0037,-2.67635 1.67339,0.0733 1.67339,0.0733 v 4.83423 4.83423 l -1.859324,0.0648 -1.859315,0.0647 -2.974911,-2.84155 c -1.636201,-1.56284 -3.17014,-2.84702 -3.408752,-2.85372 -0.388743,-0.011 -0.43384,0.2842 -0.43384,2.83877 v 2.85096 h -1.619195 c -1.08833,0 -1.659185,-0.10422 -1.741162,-0.31787 z m 14.918743,-0.0636 c -0.230871,-0.60164 -0.179225,-8.86423 0.05772,-9.23782 0.142159,-0.22413 0.690189,-0.29987 1.793548,-0.24791 l 1.588837,0.0749 0.07243,1.92129 c 0.04376,1.16102 0.177942,1.9213 0.339112,1.9213 0.146693,0 1.438948,-0.89247 2.871674,-1.98328 l 2.604954,-1.98327 h 2.106443 c 2.526061,0 2.558274,-0.0804 -1.056894,2.63815 -1.424894,1.07149 -2.591818,2.11551 -2.593158,2.32003 -9.36e-4,0.20453 1.307547,1.3759 2.908648,2.60305 l 2.911094,2.23119 -2.17757,0.0718 -2.177569,0.0718 -2.573706,-1.99305 c -1.415533,-1.09617 -2.690003,-1.99304 -2.832162,-1.99304 -0.150882,0 -0.288599,0.7997 -0.330866,1.9213 l -0.07243,1.92129 -1.642788,0.0726 c -1.331935,0.0588 -1.672031,-0.004 -1.797343,-0.33016 z"
       style="fill:#159ee1;stroke-width:0.24790928" />
    <path
       inkscape:connector-curvature="0"
       id="path487"
       d="m 24.031424,284.17622 c -1.908902,-2.37903 -3.665958,-4.50326 -3.904571,-4.7205 -0.411547,-0.37468 -0.433842,-0.19317 -0.433842,3.53203 0,3.69077 0.03243,3.96155 0.539034,4.5008 l 0.539032,0.57377 H 19.346369 17.92166 l 0.513812,-0.6532 c 0.475175,-0.60409 0.513812,-0.97815 0.513812,-4.97448 0,-2.47743 -0.108441,-4.52391 -0.254142,-4.79615 -0.139778,-0.26118 -0.558125,-0.63984 -0.929659,-0.84146 -0.640627,-0.34766 -0.564264,-0.3671 1.478414,-0.37652 l 2.153932,-0.01 2.647187,3.34677 c 1.455952,1.84073 2.745757,3.34678 2.866231,3.34678 0.120474,0 0.219043,-1.22716 0.219043,-2.72701 0,-2.39645 -0.0601,-2.78709 -0.495819,-3.22281 -0.272699,-0.2727 -0.495818,-0.55161 -0.495818,-0.61978 0,-0.0682 0.633022,-0.12395 1.406715,-0.12395 h 1.406716 l -0.530656,0.56486 c -0.506777,0.53943 -0.531835,0.807 -0.556854,5.9462 -0.01441,2.95974 -0.101849,5.42606 -0.19431,5.48071 -0.09246,0.0546 -1.729938,-1.84711 -3.63884,-4.22614 z m 20.629393,4.04207 c -3.643218,-1.01878 -5.47583,-5.3196 -3.745933,-8.79105 1.775943,-3.56385 6.683324,-4.37838 9.752702,-1.61874 2.455903,2.20807 2.67379,5.78632 0.518077,8.50814 -1.335398,1.68607 -4.253937,2.53667 -6.524846,1.90165 z m 3.588438,-1.40015 c 0.366546,-0.39197 0.784271,-1.13696 0.928277,-1.65554 0.340825,-1.22735 0.336139,-4.64176 -0.0081,-5.88152 -0.765735,-2.75797 -3.828419,-3.26378 -5.08215,-0.83934 -0.957146,1.85092 -0.909683,6.23657 0.08573,7.92166 0.912409,1.5446 2.854434,1.76124 4.076212,0.45474 z m 13.712289,1.40874 c -3.122795,-1.03648 -4.643631,-2.90789 -4.655965,-5.72922 -0.01985,-4.54154 4.049377,-7.27738 8.879528,-5.96992 1.188628,0.32175 1.693454,0.36372 1.937567,0.16113 0.181571,-0.15069 0.403535,-0.20058 0.493253,-0.11086 0.235665,0.23567 0.201243,3.30331 -0.03707,3.30331 -0.110101,0 -0.539424,-0.48128 -0.954044,-1.06951 -0.97912,-1.38909 -2.248173,-1.99887 -3.84136,-1.84579 -0.693761,0.0666 -1.432273,0.31588 -1.736462,0.58599 -2.004806,1.78016 -2.222267,7.30748 -0.360739,9.16902 0.888994,0.88899 2.391949,1.26604 3.447253,0.8648 0.632516,-0.24047 0.670628,-0.34517 0.670628,-1.84216 0,-1.12997 -0.110501,-1.67889 -0.383598,-1.90554 -0.306391,-0.25429 -0.318866,-0.35943 -0.06198,-0.52239 0.377219,-0.23928 3.197035,-0.28179 3.782776,-0.0571 0.357877,0.13734 0.361627,0.20013 0.03359,0.56261 -0.225544,0.24922 -0.398554,1.03328 -0.444544,2.01462 l -0.07529,1.6066 -1.350369,0.44773 c -1.812487,0.60095 -4.110549,0.74571 -5.343181,0.3366 z m 23.050379,-0.11533 c -1.785302,-0.61733 -2.647739,-1.31845 -3.468745,-2.81996 -0.605119,-1.10668 -0.720727,-1.59996 -0.716039,-3.05513 0.0089,-2.76556 1.15228,-4.46483 3.818103,-5.67444 l 1.363502,-0.61869 -4.331353,-0.0142 -4.331351,-0.0143 -4.779315,-4.77931 -4.779314,-4.77932 v -6.54757 -6.54758 l 4.08622,-4.10546 4.086216,-4.10546 4.40719,4.40038 c 2.423953,2.42022 4.519111,4.4004 4.655905,4.4004 0.136794,0 1.807556,-1.56184 3.712803,-3.47074 l 3.464089,-3.47073 h 5.838717 5.838709 l 4.14295,4.16899 4.14296,4.169 v 5.92473 5.92473 l -3.96905,3.96905 -3.96906,3.96905 -3.21673,-3.20959 -3.21672,-3.20958 -3.678851,3.64951 -3.678852,3.6495 -1.220946,0.0114 -1.220944,0.0113 1.49296,0.69143 c 2.460735,1.13963 3.648914,2.97077 3.650345,5.62566 0.0015,2.8203 -1.686138,5.1397 -4.305844,5.91768 -1.636534,0.486 -2.265331,0.47599 -3.817555,-0.0607 z m 2.973451,-0.65025 c 1.456625,-0.60862 1.972673,-1.97475 1.973648,-5.22484 10e-4,-2.91369 -0.313854,-3.98561 -1.435972,-4.8907 -0.749637,-0.60465 -2.403984,-0.57052 -3.084686,0.0636 -1.157724,1.07858 -1.407957,1.93493 -1.410498,4.82704 -0.0028,3.19549 0.440949,4.41356 1.873936,5.14373 1.026866,0.52324 1.025549,0.52319 2.083572,0.0811 z m 5.272547,-15.82297 c 1.693413,-1.67029 3.193594,-3.24734 3.333732,-3.50456 0.218842,-0.40167 -0.151403,-0.87397 -2.623603,-3.34677 l -2.878404,-2.87911 -3.594067,-0.0803 -3.594065,-0.0803 v -3.63546 -3.63546 l -3.777616,-3.78353 c -2.077691,-2.08094 -3.951627,-3.78352 -4.164306,-3.78352 -0.212681,0 -1.859528,1.4874 -3.659661,3.30535 l -3.272973,3.30536 0.01061,6.17717 0.01061,6.17718 4.274524,4.40038 4.274522,4.4004 h 6.290883 6.290882 l 3.078933,-3.03689 z m -13.089524,-0.90318 c -2.329211,-0.75688 -2.294323,-1.40115 0.07646,-1.41191 3.027503,-0.0138 4.290419,-0.9891 5.268025,-4.06857 0.238071,-0.74993 0.53535,-1.47413 0.660616,-1.60934 0.665503,-0.71832 0.938877,2.00398 0.363018,3.61497 -0.424767,1.18832 -1.565726,2.65177 -2.406306,3.08644 -0.851397,0.44028 -3.118278,0.66252 -3.961809,0.38841 z m -6.741049,-9.54422 c -0.611265,-0.46402 -0.538918,-1.06207 0.185931,-1.53702 0.574126,-0.37618 0.665421,-0.37618 1.239547,0 0.73566,0.48203 0.784345,0.91261 0.166411,1.47184 -0.542264,0.49074 -1.006258,0.50973 -1.591889,0.0652 z m 4.902574,-3.36123 c -0.512054,-0.9902 -0.478075,-1.35604 0.199057,-2.14325 0.460223,-0.53505 0.710666,-0.63766 1.235036,-0.50606 0.680469,0.1708 1.410497,1.25275 1.410497,2.09045 0,0.68513 -0.790999,1.29028 -1.686541,1.29028 -0.612809,0 -0.860823,-0.15664 -1.158049,-0.73142 z m 19.747691,30.00906 c -2.464614,-0.85123 -4.00093,-2.95485 -4.00093,-5.47835 0,-4.28522 3.872311,-7.03738 8.324337,-5.91634 0.83366,0.20992 1.18899,0.20992 1.39891,0 0.36545,-0.36546 7.38541,-0.37806 8.69067,-0.0156 0.52096,0.14466 1.37221,0.64698 1.89166,1.11628 3.04118,2.74752 2.51856,7.8163 -0.9878,9.58041 -1.27175,0.63984 -1.56145,0.68286 -4.70202,0.6982 -1.84073,0.009 -3.48623,0.0107 -3.65667,0.004 -0.50502,-0.0206 -0.37147,-1.00428 0.13635,-1.00428 0.94454,0 1.04122,-0.45065 1.04122,-4.85346 0,-3.23094 -0.0792,-4.32419 -0.32818,-4.53083 -0.56268,-0.46699 -0.91136,0.20205 -0.91136,1.74869 0,1.23321 -0.0652,1.43788 -0.45817,1.43788 -0.29505,0 -0.61805,-0.35456 -0.90724,-0.99587 -1.13626,-2.51978 -4.229743,-2.61548 -5.342172,-0.16527 -0.526573,1.15981 -0.631834,3.46188 -0.225241,4.92581 0.337472,1.21506 1.508566,2.18515 2.637943,2.18515 1.14773,0 2.47375,-0.64781 3.12269,-1.52556 0.80457,-1.08822 1.27176,-0.93631 1.07017,0.34798 -0.19241,1.22584 -0.69959,1.70186 -2.57231,2.41427 -1.60635,0.61109 -2.514314,0.61694 -4.221857,0.0272 z m 4.607167,-0.63706 c 1.19801,-0.55775 1.80786,-1.19063 1.47145,-1.52703 -0.0743,-0.0743 -0.46057,0.10554 -0.85839,0.39965 -1.43751,1.0628 -3.453204,1.09571 -4.581309,0.0748 -0.808296,-0.73149 -1.166203,-1.68025 -1.305157,-3.45974 -0.174259,-2.2315 0.39519,-3.92612 1.587291,-4.72362 1.544565,-1.0333 3.753835,-0.59497 4.650325,0.92265 0.63982,1.08314 1.07766,0.95722 1.0731,-0.30862 -0.005,-1.21206 -0.29767,-1.82275 -0.74319,-1.54741 -0.16864,0.10422 -1.10264,-0.008 -2.07556,-0.251 -1.67216,-0.4164 -1.84784,-0.41757 -3.210796,-0.0214 -2.986542,0.8682 -4.795719,3.8422 -4.134565,6.79656 0.242247,1.08247 0.541412,1.59638 1.469681,2.52465 1.806404,1.8064 4.28697,2.2239 6.65712,1.12045 z m 10.59365,-0.38992 c 3.17475,-1.63414 3.55658,-6.77873 0.67913,-9.15055 -1.09321,-0.90112 -2.63328,-1.25064 -5.5106,-1.25064 -2.02955,0 -2.86398,0.23018 -2.23766,0.61727 0.15665,0.0968 0.25196,1.97337 0.25196,4.96068 0,2.98732 -0.0953,4.86387 -0.25196,4.96069 -0.13857,0.0856 -0.18075,0.27091 -0.0937,0.41171 0.0993,0.16073 1.23364,0.22354 3.04782,0.16881 2.50761,-0.0757 3.05159,-0.17059 4.11505,-0.71797 z m -3.97022,-0.5468 c -0.0756,-0.30679 -0.10558,-2.4543 -0.0667,-4.77225 0.0691,-4.11784 0.0831,-4.21622 0.61172,-4.29148 0.90943,-0.12947 1.97694,0.6124 2.53246,1.75994 0.39919,0.82461 0.52121,1.55048 0.52121,3.10061 0,3.19075 -0.89496,4.76098 -2.71356,4.76098 -0.56944,0 -0.78049,-0.13301 -0.88512,-0.5578 z m 2.34229,-0.53987 c 0.70639,-0.75191 1.12519,-2.90434 0.90548,-4.65371 -0.25388,-2.02149 -1.50233,-3.71447 -2.46634,-3.34454 -0.35257,0.13529 -0.40557,0.68467 -0.40557,4.20432 0,2.5785 0.0976,4.14632 0.26882,4.31752 0.36438,0.36438 1.06699,0.14768 1.69761,-0.52359 z m -81.545299,2.10953 c 0,-0.13138 0.11156,-0.30783 0.24791,-0.39209 0.152153,-0.094 0.247909,-2.10493 0.247909,-5.20609 0,-3.10117 -0.09576,-5.11206 -0.247909,-5.2061 -0.78093,-0.48265 0.124138,-0.61977 4.090503,-0.61977 h 4.338412 v 1.48745 c 0,0.8181 -0.05291,1.48746 -0.117588,1.48746 -0.06467,0 -0.289681,-0.33279 -0.500015,-0.73953 -0.538586,-1.04151 -1.618692,-1.53215 -3.174955,-1.44222 l -1.289582,0.0745 -0.07169,2.17326 c -0.05689,1.72488 0.003,2.20194 0.290514,2.31225 0.587783,0.22556 1.404639,-0.36898 1.847413,-1.34462 l 0.412853,-0.90971 0.07493,1.30152 c 0.04121,0.71585 0.04121,1.87516 0,2.57628 l -0.07493,1.27473 -0.622045,-0.96486 c -0.449016,-0.69646 -0.79381,-0.96485 -1.239546,-0.96485 -0.605237,0 -0.618919,0.0428 -0.68893,2.15543 -0.0663,2.00068 -0.03248,2.17627 0.470992,2.44572 0.656827,0.35152 2.40338,0.15093 3.464741,-0.39791 0.416291,-0.21528 1.000053,-0.80284 1.297251,-1.30569 l 0.540358,-0.91427 0.07576,0.77987 c 0.04167,0.42893 -0.02111,1.15407 -0.139506,1.61141 l -0.215265,0.83153 -4.508792,0.0676 c -2.773605,0.0416 -4.508793,-0.0244 -4.508793,-0.1713 z m 40.742653,-0.22568 c 0.585069,-0.64649 0.619344,-9.97252 0.03843,-10.45465 -0.204525,-0.16974 -0.371864,-0.40909 -0.371864,-0.53189 0,-0.12659 1.905634,-0.19396 4.40039,-0.15558 l 4.40039,0.0677 0.07435,1.42548 c 0.07278,1.39539 -0.251522,1.93362 -0.566711,0.94055 -0.08465,-0.26671 -0.491185,-0.76873 -0.903409,-1.11559 -0.618308,-0.52028 -1.006532,-0.63066 -2.217935,-0.63066 h -1.468434 v 2.21655 c 0,1.27253 0.110228,2.28467 0.258813,2.3765 0.404667,0.2501 1.510855,-0.60328 1.810288,-1.39657 0.481648,-1.27603 0.657901,-0.77086 0.657901,1.88566 0,2.47839 -0.258936,3.3327 -0.599204,1.97696 -0.205013,-0.81684 -1.006474,-1.6051 -1.631979,-1.6051 -0.458947,0 -0.495819,0.16527 -0.495819,2.22246 0,2.64398 0.214385,2.88535 2.314777,2.6062 1.122433,-0.14919 1.429149,-0.32706 2.492908,-1.44577 l 1.213003,-1.27566 -0.173509,1.23955 c -0.322402,2.30324 0.145932,2.10723 -5.034626,2.10723 -4.448489,0 -4.593831,-0.0157 -4.197751,-0.45337 z m -17.028893,-4.46237 c -0.601641,-0.6648 -0.527829,-1.91529 0.140693,-2.38354 1.143107,-0.80066 2.67184,-0.0995 2.67184,1.22549 0,1.35752 -1.917511,2.14704 -2.812533,1.15805 z"
       style="fill:#ffffff;stroke-width:0.24790928" />
    <path
       inkscape:connector-curvature="0"
       id="path485"
       d="m 43.638278,287.2461 c -1.978842,-1.0475 -2.914334,-2.512 -3.059346,-4.78937 -0.130005,-2.04171 0.397636,-3.47361 1.720319,-4.66858 1.597517,-1.44326 3.613806,-1.99639 2.228858,-0.61144 -1.001037,1.00104 -1.364956,2.36309 -1.354387,5.06912 0.01059,2.70887 0.596187,4.29786 1.870199,5.07459 1.025227,0.62506 1.842485,0.63545 2.825688,0.0359 1.239842,-0.75606 1.696634,-2.01422 1.797756,-4.95162 0.09901,-2.87601 -0.291184,-4.38812 -1.396715,-5.41269 -0.493861,-0.45769 -0.533698,-0.57204 -0.199297,-0.57204 0.614304,0 2.178222,0.85613 2.786304,1.52531 1.059408,1.16583 1.441429,2.24054 1.440572,4.05265 -0.0012,2.64729 -1.120281,4.38956 -3.565367,5.55113 -1.617329,0.76832 -3.254782,0.67095 -5.094584,-0.30295 z m 17.10405,-0.011 c -0.95064,-0.51472 -1.754637,-1.18667 -2.231184,-1.86471 -0.691756,-0.98425 -0.745006,-1.21645 -0.745006,-3.24849 0,-2.03617 0.05229,-2.26287 0.751395,-3.25758 0.884312,-1.25822 2.566818,-2.35212 3.95888,-2.57393 l 0.991638,-0.158 -1.032086,0.64083 c -1.606113,0.99725 -2.190735,2.4246 -2.190735,5.34868 0,1.94175 0.09791,2.55383 0.557819,3.48707 0.66369,1.34678 2.018638,2.21485 3.457077,2.21485 1.62657,0 1.866652,-0.346 1.77032,-2.55127 -0.0899,-2.05804 -0.03003,-2.15901 1.280199,-2.15901 1.312711,0 1.394591,0.12294 1.284375,1.92837 -0.05595,0.91648 -0.214969,1.80676 -0.353382,1.97842 -0.138412,0.17166 -0.68588,0.38154 -1.216595,0.4664 -0.530714,0.0849 -1.024824,0.25121 -1.098025,0.36965 -0.0732,0.11844 -0.935312,0.20816 -1.915803,0.19938 -1.522881,-0.0137 -1.999319,-0.13325 -3.268887,-0.82066 z m 23.798012,0.23482 c -2.290683,-1.05935 -3.418057,-2.869 -3.431803,-5.5087 -0.01074,-2.06253 0.795723,-3.64287 2.416592,-4.73552 0.65736,-0.44314 1.425155,-0.80571 1.706216,-0.80571 h 0.511014 l -0.510033,0.55779 c -1.014772,1.10981 -1.399344,2.23713 -1.509443,4.42476 -0.141204,2.80567 0.352227,4.58281 1.569085,5.65123 1.266097,1.11164 2.360865,1.06287 3.582465,-0.15961 0.685608,-0.68611 1.002711,-1.27385 1.210382,-2.24338 0.628386,-2.93374 0.195321,-6.01106 -1.044865,-7.42474 l -0.780971,-0.89022 0.743727,0.18536 c 1.178196,0.29365 2.228125,1.05238 3.002424,2.16969 0.606669,0.87542 0.729374,1.32319 0.802242,2.92754 0.07082,1.55914 -0.01133,2.10113 -0.464562,3.06536 -0.618658,1.31613 -2.002455,2.59875 -3.035376,2.81342 -0.377799,0.0785 -0.746951,0.2399 -0.820337,0.35865 -0.266155,0.43064 -2.694501,0.1932 -3.946757,-0.38592 z M 18.720426,287.3583 c 0,-0.11966 0.144046,-0.3371 0.320102,-0.48321 0.237703,-0.19727 0.397781,-0.14128 0.621874,0.21755 0.269034,0.43079 0.234307,0.48321 -0.320101,0.48321 -0.342032,0 -0.621875,-0.0979 -0.621875,-0.21755 z m 4.989061,-4.22872 c -1.960095,-2.44029 -3.772932,-4.49159 -4.028526,-4.55842 -0.256077,-0.067 -0.464716,-0.34092 -0.464716,-0.6102 0,-0.26877 -0.167339,-0.62755 -0.371864,-0.79729 -0.204525,-0.16975 -0.371864,-0.40652 -0.371864,-0.52617 0,-0.26204 2.498117,-0.28641 2.853063,-0.0278 0.137508,0.10017 1.357427,1.57662 2.710929,3.281 2.568441,3.23427 2.837869,3.51671 3.162973,3.31578 0.108773,-0.0673 0.197769,0.88839 0.197769,2.12359 0,1.2352 -0.02789,2.24371 -0.06198,2.24112 -0.03409,-0.003 -1.665692,-2.0013 -3.625787,-4.44158 z m 7.194281,3.56356 c 0.282986,-1.02489 0.174336,-9.19642 -0.130827,-9.83936 -0.183792,-0.38723 -0.0499,-0.43386 1.246086,-0.43409 l 1.452001,-2.3e-4 -0.08547,2.48761 c -0.05572,1.62186 0.01317,2.60646 0.197969,2.82912 0.19458,0.23445 0.201944,0.39189 0.02349,0.50218 -0.148765,0.0919 -0.259947,1.07384 -0.259947,2.29571 0,1.63879 0.09537,2.24043 0.410287,2.58842 0.393805,0.43515 0.339837,0.45335 -1.343518,0.45335 h -1.753804 z m 6.211955,0.54518 c 0.368381,-0.16351 0.953627,-0.56393 1.300547,-0.88985 0.752797,-0.70722 0.86113,-0.64188 0.699151,0.42168 -0.12059,0.7918 -0.144693,0.80536 -1.396095,0.78557 -1.203415,-0.019 -1.236582,-0.0365 -0.603603,-0.3174 z m 34.285425,-5.24042 v -5.57796 h 1.412582 1.412582 l -0.255751,0.73365 c -0.141615,0.40624 -0.194091,1.54026 -0.117581,2.54107 0.07599,0.99408 0.121669,2.08632 0.1015,2.42719 -0.151245,2.55605 -0.03944,4.67621 0.266001,5.04414 0.310412,0.37393 0.201729,0.40986 -1.239547,0.40986 h -1.579786 z m 6.445641,5.17503 c 0.40905,-0.2206 1.003831,-0.63853 1.321738,-0.92874 l 0.578013,-0.52765 -0.08219,0.86768 c -0.08103,0.85544 -0.09968,0.86854 -1.321738,0.92874 l -1.239546,0.0611 z m 38.113161,-5.42294 c -5e-4,-2.12482 0.0114,-2.17403 0.24885,-1.03227 0.16696,0.80286 0.16711,1.53994 5e-4,2.23119 -0.22463,0.93175 -0.2489,0.815 -0.24933,-1.19892 z m -80.294914,1.23206 c -0.08006,-0.20864 -0.408874,-0.51731 -0.730691,-0.68592 l -0.585121,-0.30658 0.862426,-0.68814 0.862426,-0.68815 v 1.37407 c 0,1.37552 -0.136001,1.70625 -0.40904,0.99472 z m 40.729225,0.17332 c -0.117139,-0.18148 -0.563376,-0.54364 -0.991637,-0.80477 -0.42826,-0.26115 -0.634137,-0.47522 -0.457502,-0.47572 0.176636,-5e-4 0.606816,-0.2866 0.955956,-0.63574 0.349138,-0.34913 0.685002,-0.58459 0.746363,-0.52322 0.06136,0.0614 0.07742,0.70958 0.03568,1.4405 -0.04875,0.85379 -0.152031,1.21095 -0.288865,0.99895 z M 53.973125,282.816 c -0.421202,-0.4212 -0.368945,-1.57892 0.09208,-2.03994 0.819486,-0.81949 2.337429,-0.15904 2.337429,1.01701 0,1.04408 -1.694777,1.75766 -2.429511,1.02293 z m 13.286053,-5.00964 -0.919145,-1.04598 1.0431,0.0493 c 1.034923,0.0489 1.0437,0.0572 1.119335,1.06931 0.04193,0.56102 -0.01386,1.00952 -0.123955,0.99668 -0.110103,-0.0128 -0.613803,-0.49404 -1.119335,-1.06932 z M 37.91192,277.63575 c -0.258602,-0.28575 -0.805798,-0.6671 -1.215992,-0.84746 -0.742274,-0.32635 -0.739642,-0.328 0.555717,-0.34813 l 1.301523,-0.0202 v 0.86768 c 0,1.01671 -0.02428,1.02988 -0.641248,0.34813 z m 40.717638,0.16003 c -0.07588,-0.19773 -0.561942,-0.58326 -1.080139,-0.85672 l -0.942177,-0.49721 1.301524,-0.011 1.301523,-0.011 v 0.86768 c 0,0.87915 -0.328177,1.16631 -0.580731,0.50816 z m -51.573627,-0.76587 c -0.223378,-0.58212 -0.20696,-0.60997 0.359498,-0.60997 0.346567,0 0.487886,0.13462 0.433841,0.4133 -0.109762,0.56595 -0.604562,0.68862 -0.793339,0.19667 z m 45.777756,-6.38093 -4.779314,-4.7793 v -6.28865 -6.28864 l 3.542623,-3.62067 c 1.948443,-1.99136 3.712972,-3.89032 3.921176,-4.2199 l 0.378553,-0.59925 2.089833,2.21065 c 4.838274,5.11799 6.542395,6.79698 6.898712,6.79698 0.207649,0 1.952801,-1.56184 3.878112,-3.47073 l 3.500568,-3.47073 5.806658,-0.005 5.806652,-0.005 4.022,4.15692 4.02198,4.15692 0.007,5.70492 0.007,5.7049 -3.78352,3.77762 c -2.08094,2.07769 -3.89551,3.77762 -4.0324,3.77762 -0.13688,0 -1.5841,-1.33871 -3.21604,-2.97491 -1.631941,-1.63621 -3.075827,-2.97492 -3.208644,-2.97492 -0.132807,0 -1.87209,1.61762 -3.865067,3.59469 l -3.623591,3.59469 h -6.296026 -6.296023 z m 20.56786,0.87475 c 1.761043,-1.73846 3.316255,-3.37057 3.456021,-3.6269 0.217932,-0.3997 -0.162933,-0.88421 -2.674428,-3.40227 l -2.92855,-2.93619 -3.48108,-0.0685 -3.48108,-0.0685 -0.06771,-3.59468 -0.06771,-3.59469 -3.895939,-3.90456 c -2.142768,-2.14752 -4.069729,-3.90458 -4.28214,-3.90458 -0.212411,0 -1.914998,1.54288 -3.783522,3.42862 l -3.397321,3.42861 v 6.25848 6.25847 l 4.400389,4.44621 4.40039,4.44623 6.300384,-0.003 6.300381,-0.003 3.201902,-3.16083 z m -13.359663,-1.22518 c -0.292547,-0.0573 -0.708027,-0.29865 -0.923281,-0.53651 -0.368467,-0.40715 -0.292282,-0.43399 1.301586,-0.45855 2.669792,-0.0411 4.314757,-1.1382 5.018182,-3.34675 0.529316,-1.6619 0.776347,-2.17051 0.99006,-2.03844 0.381334,0.23568 0.226372,2.42165 -0.244783,3.45295 -1.133771,2.48171 -3.253854,3.49219 -6.141764,2.9273 z m -6.483926,-9.54647 c -0.727413,-0.72742 0.24231,-1.69713 1.189965,-1.18997 0.804091,0.43034 0.451718,1.48746 -0.495819,1.48746 -0.21816,0 -0.530526,-0.13388 -0.694146,-0.29749 z m 4.899835,-3.44232 c -0.276716,-0.66805 -0.271312,-0.89101 0.03486,-1.43833 0.667866,-1.1939 1.994146,-0.8308 2.365178,0.64752 0.225856,0.89988 -0.188998,1.41925 -1.203408,1.50658 -0.772855,0.0665 -0.905434,-0.0127 -1.196631,-0.71577 z"
       style="fill:#0000e5;stroke-width:0.24790928" />
    <path
       inkscape:connector-curvature="0"
       id="path483"
       d="m 43.638278,287.2461 c -1.978842,-1.0475 -2.914334,-2.512 -3.059346,-4.78937 -0.130005,-2.04171 0.397636,-3.47361 1.720319,-4.66858 1.597517,-1.44326 3.613806,-1.99639 2.228858,-0.61144 -1.001037,1.00104 -1.364956,2.36309 -1.354387,5.06912 0.01059,2.70887 0.596187,4.29786 1.870199,5.07459 1.025227,0.62506 1.842485,0.63545 2.825688,0.0359 1.239842,-0.75606 1.696634,-2.01422 1.797756,-4.95162 0.09901,-2.87601 -0.291184,-4.38812 -1.396715,-5.41269 -0.493861,-0.45769 -0.533698,-0.57204 -0.199297,-0.57204 0.614304,0 2.178222,0.85613 2.786304,1.52531 1.059408,1.16583 1.441429,2.24054 1.440572,4.05265 -0.0012,2.64729 -1.120281,4.38956 -3.565367,5.55113 -1.617329,0.76832 -3.254782,0.67095 -5.094584,-0.30295 z m 17.10405,-0.011 c -0.95064,-0.51472 -1.754637,-1.18667 -2.231184,-1.86471 -0.691756,-0.98425 -0.745006,-1.21645 -0.745006,-3.24849 0,-2.03617 0.05229,-2.26287 0.751395,-3.25758 0.884312,-1.25822 2.566818,-2.35212 3.95888,-2.57393 l 0.991638,-0.158 -1.032086,0.64083 c -1.606113,0.99725 -2.190735,2.4246 -2.190735,5.34868 0,1.94175 0.09791,2.55383 0.557819,3.48707 0.66369,1.34678 2.018638,2.21485 3.457077,2.21485 1.62657,0 1.866652,-0.346 1.77032,-2.55127 -0.0899,-2.05804 -0.03003,-2.15901 1.280199,-2.15901 1.312711,0 1.394591,0.12294 1.284375,1.92837 -0.05595,0.91648 -0.214969,1.80676 -0.353382,1.97842 -0.138412,0.17166 -0.68588,0.38154 -1.216595,0.4664 -0.530714,0.0849 -1.024824,0.25121 -1.098025,0.36965 -0.0732,0.11844 -0.935312,0.20816 -1.915803,0.19938 -1.522881,-0.0137 -1.999319,-0.13325 -3.268887,-0.82066 z m 23.798012,0.23482 c -2.290683,-1.05935 -3.418057,-2.869 -3.431803,-5.5087 -0.01074,-2.06253 0.795723,-3.64287 2.416592,-4.73552 0.65736,-0.44314 1.425155,-0.80571 1.706216,-0.80571 h 0.511014 l -0.510033,0.55779 c -1.014772,1.10981 -1.399344,2.23713 -1.509443,4.42476 -0.141204,2.80567 0.352227,4.58281 1.569085,5.65123 1.266097,1.11164 2.360865,1.06287 3.582465,-0.15961 0.685608,-0.68611 1.002711,-1.27385 1.210382,-2.24338 0.628386,-2.93374 0.195321,-6.01106 -1.044865,-7.42474 l -0.780971,-0.89022 0.743727,0.18536 c 1.178196,0.29365 2.228125,1.05238 3.002424,2.16969 0.606669,0.87542 0.729374,1.32319 0.802242,2.92754 0.07082,1.55914 -0.01133,2.10113 -0.464562,3.06536 -0.618658,1.31613 -2.002455,2.59875 -3.035376,2.81342 -0.377799,0.0785 -0.746951,0.2399 -0.820337,0.35865 -0.266155,0.43064 -2.694501,0.1932 -3.946757,-0.38592 z M 18.720426,287.3583 c 0,-0.11966 0.144046,-0.3371 0.320102,-0.48321 0.237703,-0.19727 0.397781,-0.14128 0.621874,0.21755 0.269034,0.43079 0.234307,0.48321 -0.320101,0.48321 -0.342032,0 -0.621875,-0.0979 -0.621875,-0.21755 z m 4.989061,-4.22872 c -1.960095,-2.44029 -3.772932,-4.49159 -4.028526,-4.55842 -0.256077,-0.067 -0.464716,-0.34092 -0.464716,-0.6102 0,-0.26877 -0.167339,-0.62755 -0.371864,-0.79729 -0.204525,-0.16975 -0.371864,-0.40652 -0.371864,-0.52617 0,-0.26204 2.498117,-0.28641 2.853063,-0.0278 0.137508,0.10017 1.357427,1.57662 2.710929,3.281 2.568441,3.23427 2.837869,3.51671 3.162973,3.31578 0.108773,-0.0673 0.197769,0.88839 0.197769,2.12359 0,1.2352 -0.02789,2.24371 -0.06198,2.24112 -0.03409,-0.003 -1.665692,-2.0013 -3.625787,-4.44158 z m 7.194281,3.56356 c 0.282986,-1.02489 0.174336,-9.19642 -0.130827,-9.83936 -0.183792,-0.38723 -0.0499,-0.43386 1.246086,-0.43409 l 1.452001,-2.3e-4 -0.08547,2.48761 c -0.05572,1.62186 0.01317,2.60646 0.197969,2.82912 0.19458,0.23445 0.201944,0.39189 0.02349,0.50218 -0.148765,0.0919 -0.259947,1.07384 -0.259947,2.29571 0,1.63879 0.09537,2.24043 0.410287,2.58842 0.393805,0.43515 0.339837,0.45335 -1.343518,0.45335 h -1.753804 z m 6.211955,0.54518 c 0.368381,-0.16351 0.953627,-0.56393 1.300547,-0.88985 0.752797,-0.70722 0.86113,-0.64188 0.699151,0.42168 -0.12059,0.7918 -0.144693,0.80536 -1.396095,0.78557 -1.203415,-0.019 -1.236582,-0.0365 -0.603603,-0.3174 z m 34.285425,-5.24042 v -5.57796 h 1.412582 1.412582 l -0.255751,0.73365 c -0.141615,0.40624 -0.194091,1.54026 -0.117581,2.54107 0.07599,0.99408 0.121669,2.08632 0.1015,2.42719 -0.151245,2.55605 -0.03944,4.67621 0.266001,5.04414 0.310412,0.37393 0.201729,0.40986 -1.239547,0.40986 h -1.579786 z m 6.445641,5.17503 c 0.40905,-0.2206 1.003831,-0.63853 1.321738,-0.92874 l 0.578013,-0.52765 -0.08219,0.86768 c -0.08103,0.85544 -0.09968,0.86854 -1.321738,0.92874 l -1.239546,0.0611 z m 38.113161,-5.42294 c -5e-4,-2.12482 0.0114,-2.17403 0.24885,-1.03227 0.16696,0.80286 0.16711,1.53994 5e-4,2.23119 -0.22463,0.93175 -0.2489,0.815 -0.24933,-1.19892 z m -80.294914,1.23206 c -0.08006,-0.20864 -0.408874,-0.51731 -0.730691,-0.68592 l -0.585121,-0.30658 0.862426,-0.68814 0.862426,-0.68815 v 1.37407 c 0,1.37552 -0.136001,1.70625 -0.40904,0.99472 z m 40.729225,0.17332 c -0.117139,-0.18148 -0.563376,-0.54364 -0.991637,-0.80477 -0.42826,-0.26115 -0.634137,-0.47522 -0.457502,-0.47572 0.176636,-5e-4 0.606816,-0.2866 0.955956,-0.63574 0.349138,-0.34913 0.685002,-0.58459 0.746363,-0.52322 0.06136,0.0614 0.07742,0.70958 0.03568,1.4405 -0.04875,0.85379 -0.152031,1.21095 -0.288865,0.99895 z M 53.973125,282.816 c -0.421202,-0.4212 -0.368945,-1.57892 0.09208,-2.03994 0.819486,-0.81949 2.337429,-0.15904 2.337429,1.01701 0,1.04408 -1.694777,1.75766 -2.429511,1.02293 z m 13.286053,-5.00964 -0.919145,-1.04598 1.0431,0.0493 c 1.034923,0.0489 1.0437,0.0572 1.119335,1.06931 0.04193,0.56102 -0.01386,1.00952 -0.123955,0.99668 -0.110103,-0.0128 -0.613803,-0.49404 -1.119335,-1.06932 z M 37.91192,277.63575 c -0.258602,-0.28575 -0.805798,-0.6671 -1.215992,-0.84746 -0.742274,-0.32635 -0.739642,-0.328 0.555717,-0.34813 l 1.301523,-0.0202 v 0.86768 c 0,1.01671 -0.02428,1.02988 -0.641248,0.34813 z m 40.717638,0.16003 c -0.07588,-0.19773 -0.561942,-0.58326 -1.080139,-0.85672 l -0.942177,-0.49721 1.301524,-0.011 1.301523,-0.011 v 0.86768 c 0,0.87915 -0.328177,1.16631 -0.580731,0.50816 z m -51.573627,-0.76587 c -0.223378,-0.58212 -0.20696,-0.60997 0.359498,-0.60997 0.346567,0 0.487886,0.13462 0.433841,0.4133 -0.109762,0.56595 -0.604562,0.68862 -0.793339,0.19667 z m 45.777756,-6.38093 -4.779314,-4.7793 v -6.28865 -6.28864 l 3.542623,-3.62067 c 1.948443,-1.99136 3.712972,-3.89032 3.921176,-4.2199 l 0.378553,-0.59925 2.089833,2.21065 c 4.838274,5.11799 6.542395,6.79698 6.898712,6.79698 0.207649,0 1.952801,-1.56184 3.878112,-3.47073 l 3.500568,-3.47073 5.806658,-0.005 5.806652,-0.005 4.022,4.15692 4.02198,4.15692 0.007,5.70492 0.007,5.7049 -3.78352,3.77762 c -2.08094,2.07769 -3.89551,3.77762 -4.0324,3.77762 -0.13688,0 -1.5841,-1.33871 -3.21604,-2.97491 -1.631941,-1.63621 -3.075827,-2.97492 -3.208644,-2.97492 -0.132807,0 -1.87209,1.61762 -3.865067,3.59469 l -3.623591,3.59469 h -6.296026 -6.296023 z m 20.56786,0.87475 c 1.761043,-1.73846 3.316255,-3.37057 3.456021,-3.6269 0.217932,-0.3997 -0.162933,-0.88421 -2.674428,-3.40227 l -2.92855,-2.93619 -3.48108,-0.0685 -3.48108,-0.0685 -0.06771,-3.59468 -0.06771,-3.59469 -3.895939,-3.90456 c -2.142768,-2.14752 -4.069729,-3.90458 -4.28214,-3.90458 -0.212411,0 -1.914998,1.54288 -3.783522,3.42862 l -3.397321,3.42861 v 6.25848 6.25847 l 4.400389,4.44621 4.40039,4.44623 6.300384,-0.003 6.300381,-0.003 3.201902,-3.16083 z m -13.359663,-1.22518 c -0.292547,-0.0573 -0.708027,-0.29865 -0.923281,-0.53651 -0.368467,-0.40715 -0.292282,-0.43399 1.301586,-0.45855 2.669792,-0.0411 4.314757,-1.1382 5.018182,-3.34675 0.529316,-1.6619 0.776347,-2.17051 0.99006,-2.03844 0.381334,0.23568 0.226372,2.42165 -0.244783,3.45295 -1.133771,2.48171 -3.253854,3.49219 -6.141764,2.9273 z m -6.483926,-9.54647 c -0.727413,-0.72742 0.24231,-1.69713 1.189965,-1.18997 0.804091,0.43034 0.451718,1.48746 -0.495819,1.48746 -0.21816,0 -0.530526,-0.13388 -0.694146,-0.29749 z m 4.899835,-3.44232 c -0.276716,-0.66805 -0.271312,-0.89101 0.03486,-1.43833 0.667866,-1.1939 1.994146,-0.8308 2.365178,0.64752 0.225856,0.89988 -0.188998,1.41925 -1.203408,1.50658 -0.772855,0.0665 -0.905434,-0.0127 -1.196631,-0.71577 z m 26.714867,9.55729 c 0.16708,-0.0524 0.43449,-0.61443 0.59426,-1.24892 0.23753,-0.94332 0.43651,-1.21461 1.09164,-1.48834 0.88025,-0.36779 1.10921,-0.75733 1.10921,-1.88715 0,-0.90422 -0.69605,-3.70729 -0.99789,-4.01867 -0.28471,-0.29371 -3.20647,0.32712 -3.24856,0.69027 -0.0176,0.1518 -0.008,0.80945 0.0234,1.46143 0.0687,1.46994 -0.35713,2.16352 -1.69984,2.769 -1.11065,0.50082 -1.20745,0.80944 -0.75962,2.42193 0.35538,1.2796 1.07326,1.7286 2.46808,1.54367 0.61357,-0.0813 1.25228,-0.19078 1.41936,-0.24322 z m -8.932146,-8.8326 c 0.16452,-0.13653 0.376082,-0.76142 0.470138,-1.38865 0.158251,-1.05529 0.117526,-1.18321 -0.545646,-1.71387 -0.831859,-0.66564 -2.113865,-0.7547 -2.682225,-0.18634 -0.234914,0.23491 -0.389572,0.81829 -0.389572,1.46948 0,0.92147 0.118221,1.17408 0.805706,1.72163 0.812763,0.64733 1.637894,0.68178 2.341599,0.0978 z m 4.277716,-5.27507 c 0.2625,-0.3163 0.24695,-0.49385 -0.0881,-1.00517 -0.484975,-0.74016 -1.269377,-0.80841 -1.626301,-0.14149 -0.846224,1.58118 0.568466,2.5274 1.714381,1.14666 z"
       style="fill:#ffffff;stroke-width:0.24790928" />
  </g>
</svg>
