<?xml version="1.0" encoding="UTF-8" standalone="no"?>
<svg
   version="1.1"
   viewBox="0 0 500 200"
   id="svg12"
   sodipodi:docname="oricatmos.svg"
   width="500"
   height="200"
   inkscape:version="1.2.2 (b0a8486541, 2022-12-01)"
   xmlns:inkscape="http://www.inkscape.org/namespaces/inkscape"
   xmlns:sodipodi="http://sodipodi.sourceforge.net/DTD/sodipodi-0.dtd"
   xmlns="http://www.w3.org/2000/svg"
   xmlns:svg="http://www.w3.org/2000/svg">
  <defs
     id="defs16" />
  <sodipodi:namedview
     id="namedview14"
     pagecolor="#505050"
     bordercolor="#ffffff"
     borderopacity="1"
     inkscape:showpageshadow="0"
     inkscape:pageopacity="0"
     inkscape:pagecheckerboard="1"
     inkscape:deskcolor="#505050"
     showgrid="false"
     inkscape:zoom="2.2383333"
     inkscape:cx="315.41325"
     inkscape:cy="125.31646"
     inkscape:window-width="1670"
     inkscape:window-height="910"
     inkscape:window-x="0"
     inkscape:window-y="0"
     inkscape:window-maximized="1"
     inkscape:current-layer="svg12" />
  <path
     fill="#000000"
     d="m 170.55955,30.689258 a 0.32095391,0.28726236 0 0 1 0.131,0.451412 l -18.10442,19.645231 a 0.62719077,0.55249538 3.3266781 0 1 -0.54366,0.19932 c -15.92324,-1.26044 -30.54302,4.8776 -38.23282,17.30023 q -7.36228,11.90087 -3.68114,26.82092 0.3275,1.32493 -0.64846,2.38018 L 92.122338,116.24068 a 0.39300479,0.35174982 0 0 1 -0.64191,-0.0469 C 60.518208,68.332351 111.11102,10.55158 170.55955,30.689258 Z"
     id="path2"
     style="stroke-width:0.619676;fill:#ffffff" />
  <path
     id="path4"
     style="fill:#ffffff;stroke-width:0.619676"
     d="m 239.13302,30.113521 c -6.13456,-0.0117 -12.26909,-10e-5 -18.40429,0.0352 -0.49317,0.002 -0.96529,0.0682 -1.43555,0.1289 -0.015,0.10717 -0.0404,0.21653 -0.0664,0.32617 0.17539,0.0812 0.16654,0.24984 -0.13281,0.56055 -0.004,0.0912 -0.0143,0.17444 -0.0859,0.17383 -0.0139,-1.5e-4 -0.0252,-0.002 -0.0391,-0.002 -0.003,0.007 -0.008,0.0173 -0.01,0.0234 -0.041,0.13035 -0.0989,0.21918 -0.16406,0.30078 0.13543,0.74763 -0.0703,2.0791 -0.0703,2.33399 0,36.13627 0.22925,72.285599 0,108.416009 -0.0131,2.27465 -0.26223,2.1563 2.1875,2.1211 6.97361,-0.10162 14.01254,-0.0607 21.11719,0.12304 0.83374,0.0195 1.25314,-0.3453 1.25781,-1.0957 l 0.11914,-44.824219 a 0.31657285,0.34060629 89.690762 0 1 0.33984,-0.31054 l 5.6211,-0.0645 a 0.71239945,0.67528546 16.023981 0 1 0.67969,0.4336 l 19.25781,45.128899 a 1.0677207,1.2240088 88.004612 0 0 1.13302,0.67977 l 26.20117,0.0117 a 0.15065183,0.13483743 0 0 0 0.14453,-0.18164 c -6.60244,-15.32061 -13.11909,-30.68324 -19.54687,-46.089849 -0.20524,-0.49244 -0.47132,-0.93729 -0.79883,-1.33203 a 0.77945949,0.69763715 0 0 1 0.20312,-1.00781 c 12.10014,-6.84346 18.689,-16.23002 19.76758,-28.1582 1.84712,-20.43072 -16.37363,-37.40809 -38.87304,-37.625 -6.13305,-0.0586 -12.26776,-0.0937 -18.40235,-0.10547 z m -20.16406,1.22266 c 0.0102,-0.0254 0.0249,-0.0562 0.0391,-0.0859 -0.0281,0.0269 -0.0578,0.0532 -0.0898,0.082 0.0174,6.8e-4 0.0328,0.004 0.0508,0.004 z m 33.89453,22.58593 c 3.0769,0.004 6.04233,0.16958 8.29883,0.8086 9.53687,2.70843 12.60893,13.30708 5.9082,19.89648 -4.18546,4.1213 -8.6314,4.13863 -14.46093,4.17383 -3.1746,0.0195 -6.12481,-0.69259 -8.84961,-2.13867 a 0.96855691,0.85668005 1.6418362 0 1 -0.47266,-0.74024 v -21.29687 a 0.6157075,0.55107472 0 0 1 0.61719,-0.55274 c 2.69532,0 5.88208,-0.15478 8.95898,-0.15039 z" />
  <path
     id="path4-3"
     style="fill:#ff0000;stroke-width:0.619676"
     d="m 216.94425,30.482187 c -0.0368,7.1e-4 -0.0826,0.0117 -0.11914,0.0117 h -35.0957 a 1.2706759,1.409914 88.362236 0 0 -1.08789,0.45705 c -41.903,45.39522 -83.868799,90.856663 -125.898437,136.384773 -0.742345,0.8012 -0.940676,2.04597 -0.595703,3.73437 a 0.53055646,0.47486226 0 0 0 0.640625,0.38282 c 0.694306,-0.1368 1.457431,-0.20508 2.28711,-0.20508 124.451385,0.0625 248.976305,0.0937 373.576175,0.0937 a 0.43230526,0.38692481 0 0 0 0.43359,-0.38867 v -20.85743 a 0.49780606,0.44554978 0 0 0 -0.49805,-0.44531 l -320.0039,0.0352 a 0.41684028,0.50362655 85.762057 0 1 -0.45899,-0.26368 c -0.66156,-1.58286 0.40583,-2.00532 1.33594,-3.01367 29.10416,-31.53239 58.23108,-63.051613 87.37891,-94.556643 5.66141,-6.11807 11.33767,-12.23285 16.90039,-18.42383 0.26715,-1.1161 0.67397,-2.10065 1.20507,-2.94531 z m 67.76954,59.12695 c -0.046,0.17769 -0.0736,0.35887 -0.11719,0.53711 0.16352,-0.14469 0.30087,-0.30097 0.46094,-0.44726 -0.11399,-0.0327 -0.23044,-0.0546 -0.34375,-0.0898 z" />
  <rect
     fill="#000000"
     x="303.55893"
     y="30.009207"
     width="23.907791"
     height="114.43594"
     rx="0.21615264"
     id="rect6"
     style="stroke-width:0.619676;fill:#ffffff" />
  <path
     fill="#000000"
     d="m 351.9902,47.497037 c 21.66767,-20.829452 56.08834,-22.969264 81.3782,-5.84491 a 0.40610494,0.36347482 0 0 1 0.0589,0.533487 l -16.97776,16.778467 a 0.53487729,0.47684138 2.9436824 0 1 -0.68776,0.0821 c -16.9254,-9.94279 -38.86817,-5.50488 -49.68235,9.53242 -20.2201,28.11068 11.69189,64.059509 46.87892,48.564929 q 1.46722,-0.64487 2.46283,0.51004 l 14.48877,16.78433 a 0.54121442,0.60705864 87.445484 0 1 -0.1441,0.77971 c -26.51472,15.8815 -61.05329,10.67561 -80.97208,-11.36152 -20.44935,-22.6351 -18.75943,-55.254039 3.19643,-76.359023 z"
     id="path8"
     style="stroke-width:0.619676;fill:#ffffff" />
  <path
     fill="#000000"
     d="m 126.50371,141.467 a 0.32095391,0.28726236 0 0 1 -0.1441,-0.45727 l 18.53672,-20.19631 a 1.4980714,1.6337347 82.344976 0 1 1.26417,-0.55107 c 24.8641,-0.24623 42.20871,-19.26417 38.18041,-41.066789 a 1.8005438,2.0295855 86.628533 0 1 0.43886,-1.44804 l 18.47122,-19.96766 a 0.4847059,0.43382478 0 0 1 0.80566,0.0762 c 26.82913,46.413389 -21.0192,99.885219 -77.55294,83.610929 z"
     id="path10"
     style="stroke-width:0.619676;fill:#ffffff" />
</svg>
