<?xml version="1.0" encoding="UTF-8" standalone="no"?>
<svg
   xmlns:dc="http://purl.org/dc/elements/1.1/"
   xmlns:cc="http://creativecommons.org/ns#"
   xmlns:rdf="http://www.w3.org/1999/02/22-rdf-syntax-ns#"
   xmlns:svg="http://www.w3.org/2000/svg"
   xmlns="http://www.w3.org/2000/svg"
   xmlns:sodipodi="http://sodipodi.sourceforge.net/DTD/sodipodi-0.dtd"
   xmlns:inkscape="http://www.inkscape.org/namespaces/inkscape"
   width="500"
   height="200"
   viewBox="0 0 500 200"
   version="1.1"
   id="svg44"
   sodipodi:docname="pce-cd.svg"
   inkscape:version="0.92.5 (2060ec1f9f, 2020-04-08)">
  <metadata
     id="metadata50">
    <rdf:RDF>
      <cc:Work
         rdf:about="">
        <dc:format>image/svg+xml</dc:format>
        <dc:type
           rdf:resource="http://purl.org/dc/dcmitype/StillImage" />
        <dc:title>mainlogo</dc:title>
      </cc:Work>
    </rdf:RDF>
  </metadata>
  <defs
     id="defs48" />
  <sodipodi:namedview
     pagecolor="#ffffff"
     bordercolor="#666666"
     borderopacity="1"
     objecttolerance="10"
     gridtolerance="10"
     guidetolerance="10"
     inkscape:pageopacity="0"
     inkscape:pageshadow="2"
     inkscape:window-width="1366"
     inkscape:window-height="740"
     id="namedview46"
     showgrid="false"
     inkscape:pagecheckerboard="true"
     inkscape:zoom="1.8141077"
     inkscape:cx="177.11504"
     inkscape:cy="105.73837"
     inkscape:window-x="0"
     inkscape:window-y="0"
     inkscape:window-maximized="1"
     inkscape:current-layer="svg44" />
  <title
     id="title2">mainlogo</title>
  <g
     id="Group-15"
     transform="translate(1,136.343)"
     style="fill:#ffffff;fill-rule:evenodd;stroke:none;stroke-width:1">
    <path
       d="M 43.755922,0.41 H 5.3626626 C 1.4300434,0.41 0,4.1339925 0,7.9227797 0,11.292106 2.0020607,15.517405 5.7916756,15.517405 H 36.10519 c 3.146095,0 3.432104,5.302938 0,5.302938 H 3.2175976 c -2.49917105,0 -2.43107375,5.009657 0,5.009657 H 39.680298 c 3.78621,0 6.649702,-4.082069 6.649702,-8.020907 0,-3.938838 -2.717082,-8.0209068 -7.007213,-8.0209068 h -28.88347 c -2.3561671,0 -2.5025764,-4.5083499 0,-4.5083499 H 43.827424 C 46.258498,5.2764261 46.186996,0.41 43.755922,0.41 Z"
       id="Path"
       inkscape:connector-curvature="0" />
    <path
       d="m 52.07,3.4767273 v 7.4830697 c 0,2.569736 1.812187,4.872219 4.43509,4.872219 h 30.473361 c 3.767442,0 3.835569,5.012697 0,5.012697 H 55.888538 c -3.195173,0 -3.099794,4.985287 0,4.985287 H 92.605769 C 96.110921,25.83 98.4,22.903928 98.4,19.552993 V 3.767964 c 0,-3.33380353 -6.93877,-3.28583514 -6.93877,0 v 2.1140358 c 0,4.6974762 -1.239918,4.8927762 -5.341184,4.8927762 H 62.755774 c -3.695909,0 -3.838976,-0.77092 -3.838976,-4.3171555 V 3.2917064 C 58.909985,-0.0695077 52.07,0.0024449 52.07,3.4767273 Z"
       id="path5"
       inkscape:connector-curvature="0" />
    <path
       d="m 147.48592,0.41 h -38.39326 c -3.93262,0 -5.36266,3.7229936 -5.36266,7.5175831 0,3.3616039 2.00206,7.5925889 5.79168,7.5925889 h 30.31351 c 3.1461,0 3.4321,5.294697 0,5.294697 H 106.9476 c -2.50258,0 -2.43108,5.015131 0,5.015131 h 36.4627 c 3.78961,0 6.6497,-4.080974 6.6497,-8.025574 0,-3.934372 -2.71708,-8.0187554 -7.00721,-8.0187554 h -28.88347 c -2.35617,0 -2.50258,-4.5071406 0,-4.5071406 h 33.3881 C 149.98509,5.2751207 149.917,0.41 147.48592,0.41 Z"
       id="path7"
       inkscape:connector-curvature="0" />
    <path
       d="m 157.44705,0.41 h 42.08658 c 2.29451,0 2.44134,4.0695139 0,4.0695139 h -6.88354 -6.81526 c -3.36665,0 -3.90272,2.1452491 -3.90272,4.1783062 V 23.545373 c 0,4.208904 -6.8494,4.069514 -6.8494,0 V 8.6238225 c 0,-2.3560344 -1.64577,-4.0695139 -4.30221,-4.0695139 h -13.40857 c -2.07257,0 -2.14428,-4.1443086 0.0751,-4.1443086 z"
       id="path9"
       inkscape:connector-curvature="0" />
    <path
       d="M 250.41412,0.41 H 209.4099 c -2.27801,0 -3.5899,1.877784 -3.5899,3.642283 v 14.668686 c 0,3.607954 2.56276,6.289031 6.21029,6.289031 h 37.52619 c 2.99328,0 2.63395,-5.211108 0,-5.211108 H 216.4575 c -2.56276,0 -2.48818,-4.466174 0,-4.466174 h 28.68872 c 3.556,0 3.41702,-5.262601 0,-5.262601 H 216.4575 c -2.70853,0 -2.84751,-4.9021488 0,-4.9021488 h 33.81424 C 253.33621,5.1714011 253.26164,0.41 250.41412,0.41 Z"
       id="path11"
       inkscape:connector-curvature="0" />
    <path
       d="m 265.01874,0.00340063 c -5.13269,0 -7.12874,3.30881427 -7.12874,7.12772327 V 21.090716 c 0,4.641861 7.05405,4.570448 7.05405,0 V 9.307528 c 0,-5.0669407 13.5446,-4.9275148 13.5446,0 v 12.068841 c 0,3.784902 6.84359,3.924328 6.84359,0 V 8.9504617 c 0,-4.6418618 12.11206,-4.2847955 12.11206,0 V 21.662022 c 0,4.570448 6.7757,4.356208 6.7757,0 V 6.3047705 C 304.22,2.5266691 301.9388,0 298.44572,0 Z"
       id="path13"
       inkscape:connector-curvature="0" />
  </g>
  <path
     d="m 80.544121,125.42429 c 0,0 -21.67875,0 -43.68222,0 v 0 c -10.11552,0 -19.05393,-3.28902 -25.4979,-8.82894 v 0 C 4.9200307,111.06527 0.99264074,103.2314 1.0000104,94.41599 v 0 C 0.99264074,85.59935 4.9200307,77.76548 11.364001,72.2354 v 0 c 6.4452,-5.53992 15.38361,-8.83017 25.4979,-8.83017 v 0 c 16.50168,0 43.68222,0 43.68222,0 v 0 h 1.88805 v 13.48326 h -1.88805 c -16.50168,0 -32.6811,0 -43.68222,0 v 0 c -6.85602,0.0012 -12.4722,2.29887 -16.36392,5.64078 v 0 c -3.89541,3.34929 -6.02208,7.71825 -6.01593,11.88672 v 0 c -0.0061,4.16724 2.12052,8.5362 6.01593,11.88549 v 0 c 3.89295,3.34314 9.5079,5.63955 16.36392,5.64078 v 0 c 16.50168,0 43.68222,0 43.68222,0 v 0 1.88805 -1.88805 h 1.88805 v 13.48203 z M 13.824001,75.09761 C 8.1352507,80.00285 4.7810407,86.72972 4.7736607,94.41599 v 0 c 0.00738,7.68627 3.36159,14.41314 9.0503403,19.31838 v 0 c 5.68998,4.89417 13.73787,7.91505 23.03667,7.91505 v 0 c 18.1425,0 36.0636,0 41.7954,0 v 0 -5.93106 c -6.43905,0 -27.90255,0 -41.7954,0 v 0 c -15.39222,-0.001 -26.09937,-10.37259 -26.15472,-21.30114 v 0 c 0.05535,-10.92978 10.7625,-21.29991 26.15472,-21.30114 v 0 c 10.58169,0 25.953,0 41.7954,0 v 0 -5.93229 c -6.43905,-0.0012 -27.90255,-0.0012 -41.7954,-0.0012 v 0 c -9.2988,-0.0012 -17.34669,3.02211 -23.03667,7.91505 z"
     id="Shape"
     inkscape:connector-curvature="0"
     style="fill:#ffffff;fill-rule:nonzero;stroke:none;stroke-width:1" />
  <path
     d="m 307.1749,125.42429 c -10.11552,0 -19.05516,-3.28779 -25.49667,-8.82894 v 0 C 275.2318,111.06527 271.30564,103.2314 271.31301,94.41599 v 0 c -0.007,-8.81664 3.91879,-16.65051 10.36522,-22.18059 v 0 c 6.44151,-5.53992 15.38238,-8.82894 25.49667,-8.82894 v 0 h 29.12148 v 1.88682 1.88805 H 307.1749 c -9.30249,0 -17.34792,3.02211 -23.0379,7.91505 v 0 c -5.68875,4.90647 -9.04296,11.63211 -9.04911,19.31961 v 0 c 0.007,7.68627 3.36036,14.41314 9.04911,19.31838 v 0 c 5.68998,4.89417 13.73664,7.91628 23.0379,7.91628 v 0 h 29.12148 c 9.2988,0 17.34792,-3.02211 23.03667,-7.91628 v 0 c 5.68875,-4.90524 9.04419,-11.63211 9.05034,-19.31838 v 0 c -0.007,-7.6875 -3.36159,-14.41314 -9.05034,-19.31961 v 0 c -5.68998,-4.89294 -13.7391,-7.91505 -23.03667,-7.91505 v 0 -1.88805 -1.88682 c 10.11429,0 19.05393,3.28902 25.4979,8.82894 v 0 c 6.44397,5.53008 10.37013,13.36395 10.36399,22.18059 v 0 c 0.006,8.81541 -3.92002,16.64928 -10.36399,22.17936 v 0 c -6.44397,5.54115 -15.38484,8.82894 -25.4979,8.82894 v 0 z m 0,-9.70716 c -15.39222,-10e-4 -26.10183,-10.37382 -26.15718,-21.30114 v 0 c 0.0553,-10.92978 10.76496,-21.29991 26.15718,-21.30237 v 0 h 29.12148 c 15.39222,0.0025 26.09937,10.37382 26.15472,21.30237 v 0 c -0.0553,10.92855 -10.7625,21.29991 -26.15472,21.30114 v 0 -1.88805 -1.88682 c 6.85479,-0.001 12.4722,-2.29764 16.36269,-5.64078 v 0 c 3.89664,-3.34806 6.02331,-7.71825 6.01839,-11.88549 v 0 c 0.006,-4.16847 -2.12175,-8.53743 -6.01839,-11.88672 v 0 c -3.89049,-3.34191 -9.50667,-5.63955 -16.36269,-5.64078 v 0 H 307.1749 c -6.85725,0.0012 -12.47343,2.29887 -16.36515,5.64078 v 0 c -3.89541,3.34929 -6.02208,7.71825 -6.01716,11.88672 v 0 c -0.006,4.16724 2.12175,8.53743 6.01716,11.88549 v 0 c 3.89172,3.34314 9.50667,5.63955 16.36515,5.64078 v 0 h 29.12148 v 1.88682 1.88805 z"
     id="path17"
     inkscape:connector-curvature="0"
     style="fill:#ffffff;fill-rule:nonzero;stroke:none;stroke-width:1" />
  <path
     d="m 105.49426,125.42429 c -8.858459,0 -15.636989,0 -15.651749,0 v 0 h -1.88805 V 63.40523 h 1.88805 c 0.0123,0 5.41938,0 13.589039,0 v 0 c 8.16966,0 19.09083,0 30.09072,0 v 0 1.88928 1.88682 c -11.00112,-0.0012 -21.92106,-0.0012 -30.09072,0 v 0 C 98.124101,67.1801 93.981461,67.1801 91.728101,67.1801 v 0 54.46809 c 2.61252,0.001 7.70226,0.001 13.766159,0.001 v 0 c 8.85723,-0.001 19.7784,-0.001 28.02924,0 v 0 c 9.30003,-0.001 17.34792,-3.02211 23.0379,-7.91628 v 0 c 5.68998,-4.90524 9.04419,-11.63211 9.04911,-19.31838 v 0 c -0.005,-7.68627 -3.3579,-14.41314 -9.04911,-19.31838 v 0 c -5.68875,-4.89417 -13.73787,-7.91628 -23.0379,-7.91751 v 0 -1.88559 -1.88805 c 10.11552,-0.0012 19.05639,3.28902 25.49667,8.82894 v 0 c 6.44766,5.53008 10.37382,13.36395 10.36645,22.18059 v 0 c 0.007,8.81541 -3.91879,16.64928 -10.36645,22.17936 v 0 c -6.44151,5.53992 -15.38238,8.82894 -25.49667,8.82894 v 0 c -8.25084,10e-4 -19.17201,10e-4 -28.02924,10e-4 z m -5.944589,-9.70716 h -1.88805 V 73.11362 h 1.88805 c 10.785869,0 23.239619,0 33.973829,0 v 0 c 15.39468,0.0012 26.1006,10.37259 26.15595,21.30114 v 0 c -0.0554,10.92978 -10.76127,21.29991 -26.15595,21.30114 v 0 -1.88682 -1.88805 c 6.85602,-0.001 12.47466,-2.29764 16.36392,-5.64078 v 0 c 3.89541,-3.34929 6.02208,-7.71825 6.01716,-11.88549 v 0 c 0.005,-4.16847 -2.12175,-8.53743 -6.01716,-11.88672 v 0 c -3.89049,-3.34191 -9.5079,-5.63955 -16.36392,-5.64078 v 0 c -10.11306,0 -21.75378,0 -32.08701,0 v 0 35.05377 c 13.41684,0 23.55204,0 32.08701,0 v 0 1.88805 1.88682 c -8.93103,10e-4 -19.61358,10e-4 -33.973829,10e-4 z"
     id="path19"
     inkscape:connector-curvature="0"
     style="fill:#ffffff;fill-rule:nonzero;stroke:none;stroke-width:1" />
  <path
     d="m 253.38741,125.42429 v -1.88682 c -0.002,0 -0.002,-9.70839 0,-14.56074 v 0 c 0.0123,-1.78596 -0.94464,-3.813 -2.48214,-5.33943 v 0 c -1.52643,-1.53627 -3.55347,-2.49444 -5.33943,-2.48214 v 0 c -4.64817,0 -27.11412,0 -41.79417,0 v 0 24.2679 H 190.28841 V 63.403795 h 1.88805 c 0.0258,0 12.13395,0 25.48191,0 v 0 c 13.34673,0 27.90747,0 32.76105,0 v 0 c 5.34312,-0.02439 9.66042,2.162545 12.40947,5.714785 v 0 c 2.76135,3.5424 4.03563,8.27175 4.03932,13.4316 v 0 c -0.0258,3.04548 -1.40466,6.24963 -3.42678,8.9052 v 0 c -1.09101,1.39605 -2.38866,2.67279 -3.87696,3.56454 v 0 c 0.60393,0.48708 1.24968,1.05042 1.89912,1.69986 v 0 c 2.63589,2.62851 5.40585,6.73917 5.40585,12.25572 v 0 c 0,9.70839 0,14.56074 0,14.56074 v 0 1.88682 h -13.48203 z m 9.70593,-3.77364 c 0,-2.23737 0,-6.46119 0.002,-12.67392 v 0 c -0.002,-3.93354 -1.82948,-6.95319 -3.88973,-9.16104 v 0 c -2.04918,-2.19063 -4.29024,-3.45876 -4.70967,-3.67647 v 0 c -0.0566,-0.0295 -0.0652,-0.0344 -0.0652,-0.0344 v 0 l 0.84378,-1.68879 -0.84378,1.68879 0.84378,-3.57561 c 1.47846,0.05166 3.57684,-1.26075 5.17953,-3.37635 v 0 c 1.61622,-2.06394 2.66664,-4.79085 2.64128,-6.60018 v 0 c 0.002,-4.54608 -1.14929,-8.44518 -3.24152,-11.10444 v 0 c -2.1033,-2.64942 -5.0676,-4.23981 -9.4341,-4.26564 v 0 c -8.5608,0 -47.31933,0 -56.35368,0 v 0 54.46932 h 5.93106 v -24.2679 h 1.88805 c 14.56074,0 38.82741,0 43.68222,0 v 0 c 3.06639,0.0135 5.89416,1.48338 8.00853,3.58545 v 0 c 2.10453,2.11437 3.57192,4.94337 3.58545,8.00976 v 0 c 0,3.52272 0,9.60384 0,12.67392 v 0 h 5.93229 z M 220.08639,91.45046 c -9.70839,0 -18.18309,0 -18.20154,0 v 0 H 199.9968 V 73.11362 h 1.88805 c 0.0185,0 8.49315,0 18.20154,0 v 0 c 9.70716,0 20.6271,0 25.48068,0 v 0 c 2.77365,0.0062 5.54238,0.74784 7.76007,2.3001 v 0 c 2.21277,1.52274 3.85482,4.05285 3.83442,7.13769 v 0 c 0.0339,3.08976 -1.67577,5.56083 -3.91437,6.92367 v 0 c -2.24106,1.39974 -4.97781,1.968 -7.68012,1.97538 v 0 -1.88805 -1.88682 c 2.15004,0.0062 4.26933,-0.50307 5.66784,-1.39605 v 0 c 1.4022,-0.92865 2.12052,-1.96431 2.1525,-3.72813 v 0 c -0.0209,-1.76874 -0.80565,-3.01227 -2.23245,-4.05039 v 0 c -1.42434,-1.01229 -3.50796,-1.61745 -5.58789,-1.61253 v 0 c -4.85358,0 -15.77352,0 -25.48068,0 v 0 c -6.95811,0 -13.284,0 -16.31472,0 v 0 10.7871 c 3.03072,0 9.35538,0 16.31472,0 v 0 c 9.70716,0 20.6271,0 25.48068,0 v 0 1.88682 1.88805 c -4.85481,0 -15.77475,0 -25.48068,0 z"
     id="path21"
     inkscape:connector-curvature="0"
     style="fill:#ffffff;fill-rule:nonzero;stroke:none;stroke-width:1" />
  <path
     d="m 446.45067,125.42429 v -1.88682 c 0,0 0,-29.12148 0,-38.82864 v 0 c -0.005,-2.11929 -0.50799,-3.4932 -1.23369,-4.50672 v 0 c -0.73062,-1.0086 -1.75767,-1.71831 -3.03933,-2.23368 v 0 c -2.55594,-1.03689 -5.99133,-1.09101 -8.39844,-1.07748 v 0 l -7.82034,-0.0012 v 48.5358 h -13.48203 v -48.5346 h -7.82034 c -1.81179,-0.0037 -4.18446,0.0086 -6.3468,0.46986 v 0 c -2.18325,0.46248 -4.01349,1.33824 -5.09097,2.84253 v 0 c -0.72693,1.01352 -1.22877,2.38743 -1.23615,4.50672 v 0 c 0,9.70839 0,38.82864 0,38.82864 v 0 1.88682 H 378.5004 v -1.88682 c 0,-14.56074 0,-33.97506 0,-43.68222 v 0 c -0.0245,-5.51409 2.86113,-9.83262 6.90783,-12.49311 v 0 c 4.04793,-2.68755 9.22992,-3.94953 14.39469,-3.95568 v 0 c 4.85235,-9.23e-4 33.97629,-9.23e-4 38.82864,0 v 0 c 5.16354,0.0061 10.3443,1.26813 14.39346,3.95568 v 0 c 4.0467,2.66049 6.93351,6.97902 6.90785,12.49311 v 0 45.56904 h -13.4822 z m 9.70839,-3.77364 V 79.85648 c -0.0271,-4.1943 -1.99383,-7.15491 -5.2275,-9.35169 v 0 c -3.23244,-2.16603 -7.75884,-3.32838 -12.3,-3.323476 v 0 c -4.85481,0 -33.97629,0 -38.82864,0 v 0 c -4.54362,-0.0049 -9.07002,1.157446 -12.30123,3.323476 v 0 c -3.2349,2.19555 -5.20167,5.15616 -5.22627,9.35169 v 0 c 0,9.29142 0,27.48435 0,41.79417 v 0 h 5.93229 c -0.002,-6.60756 -0.002,-28.72665 0,-36.94182 v 0 c -0.007,-2.73552 0.70356,-4.99995 1.94832,-6.7158 v 0 c 1.24353,-1.72077 2.94585,-2.83146 4.6986,-3.5301 v 0 c 3.51165,-1.38867 7.35663,-1.33578 9.80064,-1.34808 v 0 h 9.70716 v 1.88682 -1.88682 h 1.88805 v 48.5358 h 5.93106 v -48.5358 h 11.59767 c 1.82532,0.0012 4.45752,-0.01107 7.13031,0.55104 v 0 c 2.65065,0.56211 5.4858,1.73553 7.36647,4.32714 v 0 c 1.24599,1.71585 1.95693,3.98028 1.94955,6.7158 v 0 c 0,8.21517 0,30.33426 0,36.94182 v 0 z"
     id="path23"
     inkscape:connector-curvature="0"
     style="fill:#ffffff;fill-rule:nonzero;stroke:none;stroke-width:1" />
  <path
     d="m 489.06347,54.343 0.33651,0.0066 c 2.77012,0.09809 4.69244,1.263882 6.04479,2.941784 v 0 l 0.21475,0.280657 c 1.25397,1.712836 1.88536,3.933159 1.87957,5.976409 v 0 l -0.005,0.368933 c -0.0804,3.280278 -1.12684,5.481727 -2.77969,6.949359 v 0 l -0.22865,0.194299 c -1.70923,1.393884 -4.12871,2.105841 -7.05704,2.105841 v 0 h -3.61394 l -0.42318,-0.0028 c -0.57464,-0.0069 -1.1885,-0.02416 -1.81261,-0.02416 v 0 l -0.33725,0.0033 c -1.2388,0.01722 -2.49768,0.102409 -3.63352,0.61801 v 0 l -0.16344,0.07423 c -1.18553,0.578568 -2.07497,1.903459 -2.02436,3.571434 v 0 1.074706 H 497.0025 V 84.273 h -30.21343 v -3.68488 l 0.001,-0.385115 c 0.0244,-2.835643 0.40898,-5.907808 1.84961,-8.179443 1.50981,-2.352834 4.05691,-4.077019 9.24586,-4.110106 v 0 h 6.05153 l 0.28156,-0.0053 c 1.1254,-0.03855 2.23563,-0.289151 3.16133,-0.940705 v 0 l 0.16525,-0.121262 c 0.91726,-0.715448 1.50336,-1.906559 1.4836,-3.297699 v 0 l 1.4e-4,-0.2169 c -0.041,-1.502796 -0.95281,-2.674177 -2.04397,-3.14324 v 0 l -0.28409,-0.121192 c -1.04846,-0.411063 -2.16663,-0.465076 -3.17727,-0.470692 v 0 h -13.5585 V 54.343 Z"
     id="Combined-Shape"
     inkscape:connector-curvature="0"
     style="fill:#ffffff;fill-rule:nonzero;stroke:none;stroke-width:1" />
  <circle
     id="Oval"
     cx="179.99413"
     cy="94.727997"
     r="4.9200001"
     style="fill:none;fill-rule:evenodd;stroke:#ffffff;stroke-width:3.69000006" />
  <path
     d="M 14.094561,46.618882 C 6.7348526,44.523891 2.090589,41.256819 1.5220523,37.072301 0.58152488,30.174878 10.949418,22.561704 27.076155,17.032194"
     id="path22"
     inkscape:connector-curvature="0"
     style="fill:#ffffff;fill-rule:evenodd;stroke:#ffffff;stroke-width:1.03423309;stroke-linecap:round;stroke-linejoin:round" />
  <path
     d="M 55.61304,10.570767 C 61.608328,9.8070878 67.397951,9.4085324 72.817393,9.3448477"
     id="path24"
     inkscape:connector-curvature="0"
     style="fill:#ff0000;fill-rule:evenodd;stroke:#ffffff;stroke-width:1.03423309;stroke-linecap:round;stroke-linejoin:round" />
  <path
     d="M 78.319257,9.4576131 C 95.937772,10.064907 108.51906,14.492077 109.5348,21.535715 110.92533,31.163478 90.212551,42.22146 62.493204,47.03248"
     id="path26"
     inkscape:connector-curvature="0"
     style="fill:#ffffff;fill-rule:evenodd;stroke:#ffffff;stroke-width:1.03423309;stroke-linecap:round;stroke-linejoin:round" />
  <polyline
     id="path28"
     transform="matrix(0.98480775,-0.17364818,-0.17364818,-0.98480775,5.9120188,52.144632)"
     points="66.407926 21.6170638 80.0615763 32.0248474 64.0247573 25.6235353 59.5181603 30.3143735 60.9550056 23.814366 47.3012075 13.4067302 63.338322 19.8098153 67.8447713 15.1188293 66.407926 21.6170638"
     style="fill:#ff0000;fill-rule:nonzero;stroke:none;stroke-width:1" />
  <path
     d="m 35.023946,19.570939 0.05441,-5.867692 3.849953,-1.326666 c 0.50495,-0.173804 0.822703,0.07548 0.816188,0.641774 l -0.03638,4.015582 c -0.0062,0.568046 -0.329127,1.036509 -0.834077,1.21031 z m 47.896411,8.341073 0.05645,-5.999925 c 0.01814,-1.897437 1.674552,-4.05029 3.309702,-4.614361 l 7.074536,-2.436694 C 94.552845,14.45 95.64607,15.669138 95.6322,17.05393 l -0.02755,1.932554 c -0.01375,1.384621 -1.131683,3.050957 -2.323363,3.461817 l -7.343347,2.531351 0.01055,0.697115 c -0.0071,0.796849 0.610846,1.308245 1.297526,1.070894 l 8.207612,-2.833622 -0.0289,3.163761 -9.259281,3.19024 c -1.635321,0.56395 -3.260834,-0.456911 -3.245087,-2.356028 z m -19.919492,-2.589847 2.957622,-1.017648 -0.121381,12.97022 -3.023815,1.04129 0.11951,-12.968059 0.06806,-0.0258 z m -17.514433,18.965322 -3.026071,1.041268 0.07859,-8.421825 c 0.01074,-1.055382 -0.357145,-1.332875 -1.31491,-1.002717 l -5.27186,1.81788 -0.09088,9.88104 -3.025691,1.043422 0.119349,-12.969831 0.07058,-0.0243 10.036876,-3.459075 c 1.518471,-0.523843 2.533338,0.273884 2.517163,1.97999 z m -15.094093,1.814609 -0.03138,3.39644 -12.650685,4.359207 0.207313,-22.543431 10.451108,-3.601126 -0.02851,3.088529 -7.425063,2.559712 -0.0596,6.484917 6.049787,-2.084823 -0.02879,3.086929 -6.049668,2.084652 -0.06118,6.487026 z m 0.02303,-2.471296 -7.150628,2.463764 0.01361,-1.54196 5.774798,-1.991177 0.07489,-8.029289 -5.774822,1.991032 0.01322,-1.544158 7.150432,-2.464029 z m 17.249283,2.367599 0.0017,-0.27007 c 0.20506,-0.02057 0.489963,0.01007 0.720303,-0.06793 l 5.947894,-2.037317 c -0.01206,1.260601 -1.569924,1.85035 -3.961021,2.673287 l -2.72112,0.938858 -0.0778,8.336923 3.575465,-1.231027 c 8.898241,-2.490431 11.518446,-7.778507 11.63984,-13.553907 l 10.725587,-3.696813 0.09084,-9.881302 0.872508,-0.301473 c 0.955995,-0.329996 0.779456,-0.482051 0.77063,0.573144 l -0.08371,9.041096 7.700177,-2.653502 0.0063,-0.599722 c 0.644334,0.158085 1.359853,0.128538 2.078432,-0.118489 l 13.316923,-4.588934 0.0651,-7.102048 -0.999507,-0.475777 c 0.609104,-1.046569 1.011922,-2.267552 1.020804,-3.233941 l 0.02451,-1.122773 c -0.0315,-4.176743 -3.96071,-4.594566 -5.620218,-4.0223 l -7.642355,2.633433 c -1.35327,0.466959 -2.715531,1.707391 -3.604165,3.189418 -1.211482,-0.839871 -2.874199,-0.956262 -3.774559,-0.645977 l -8.507484,2.931654 1.361538,1.992925 7.674279,-2.642964 c 1.106157,-0.381979 1.946244,-0.06158 2.313543,0.803076 -0.04185,0.253575 -0.164485,11.384835 -0.164485,11.384835 l -2.751175,0.947939 0.07837,-8.423874 c 0.0089,-1.054903 -0.358753,-1.330941 -1.314748,-1.000945 l -5.271884,1.817735 -0.09261,9.881493 -3.023913,1.043289 0.104333,-11.313318 -3.093722,-2.56965 -8.632459,4.95835 4.247348,-1.4638 0.06876,-0.02187 -0.142587,15.439076 c -0.0369,3.923258 -3.449168,8.268221 -6.942703,9.472961 l -3.575299,1.231114 0.03035,-3.089168 2.719611,-0.936357 c 2.390708,-0.825149 4.725756,-3.774854 4.749187,-6.433591 l 0.01622,-1.672658 -7.08189,2.44009 c -1.518346,0.523702 -2.533692,-0.27589 -2.517064,-1.980277 l 0.06699,-7.258122 c 0.01085,-1.289595 0.607169,-2.463983 1.555036,-3.186367 l -0.01602,-0.19041 3.159196,-3.45737 -2.071646,0.735554 c -1.104572,0.379899 -3.060999,1.602976 -4.098578,3.546344 -1.22491,-1.028337 -3.078781,-1.189937 -4.047683,-0.855714 l -7.633042,2.63179 0.06678,-7.104443 5.56888,-1.919312 c 2.964565,-1.020822 5.734278,-5.04578 5.765845,-8.373089 l 0.0441,-4.786881 C 46.379862,7.0299505 43.666218,4.8954214 40.701534,5.9164147 L 28.531497,10.110186 28.394598,24.934023 17.188124,28.796464 c -0.948471,0.32672 -1.728017,1.456602 -1.737067,2.521588 l -0.222146,23.934244 c -0.0091,1.064868 0.752388,1.664956 1.701027,1.338341 l 21.382664,-7.369934 0.09273,-9.88165 0.870471,-0.301114 c 0.958074,-0.328413 0.781706,-0.480347 0.770819,0.575061 l -0.08392,9.039076 z m 38.303477,-24.241545 -0.0028,0.374661 5.720934,-1.971627 c 0.450994,-0.156482 0.82098,-0.706012 0.826865,-1.230793 0.004,-0.524447 -0.357875,-0.823106 -0.808748,-0.666791 l -1.470688,0.505516 -2.343886,0.809061 -0.594428,0.203231 c -0.686823,0.237377 -1.320125,1.179894 -1.327246,1.976742 z m -35.177957,12.306815 -0.03572,3.873839 c -0.01043,1.057129 0.35717,1.333022 1.315055,1.002691 l 5.546464,-1.911158 0.06261,-6.792853 -5.546891,1.909583 c -0.957885,0.33033 -1.332834,0.861076 -1.341523,1.917898 z m 2.183316,1.025125 c 0.02556,-0.983282 0.401217,-0.907595 1.336805,-1.229944 l 0.870753,-0.299513 -0.01545,1.5426 -0.870616,0.30114 c -0.935393,0.322613 -1.313926,0.655205 -1.321493,-0.314283"
     id="path30"
     inkscape:connector-curvature="0"
     style="fill:#ff0000;fill-rule:nonzero;stroke:none;stroke-width:1" />
  <path
     d="m 60.810054,17.765142 -1.427693,-3.182373 -0.463504,0.140836 -0.0077,0.848108 c -0.0047,0.587587 -0.381374,1.132438 -0.902972,1.313076 l -3.162957,1.08941 C 54.32362,18.15469 53.955427,17.86525 53.96043,17.277612 l 0.08485,-9.1103377 c 0.005,-0.5856943 0.381391,-1.13064 0.903015,-1.311132 l 3.163249,-1.0894618 c 0.521306,-0.1805874 0.889671,0.1089748 0.884359,0.6948661 l -0.01197,1.1598679 6.394996,-2.2048033 0.01306,-1.3885506 c 0.03165,-3.50465664 -2.730087,-5.6779633 -5.852765,-4.6034569 l -6.118209,2.1085892 c -3.120479,1.0759191 -5.94242,5.1730973 -5.974242,8.6776341 l -0.09033,9.727615 c -0.03194,3.504708 2.729942,5.677989 5.852312,4.601737 l 2.045811,-0.703393 5.55549,-6.071644"
     id="path32"
     inkscape:connector-curvature="0"
     style="fill:#ff0000;fill-rule:nonzero;stroke:none;stroke-width:1" />
  <path
     d="m 65.119191,14.933906 c 0.09062,-0.492614 0.177947,-0.689095 0.182467,-1.178229 l 0.01222,-1.236726 -2.545069,0.877991 2.35038,1.536964"
     id="path34"
     inkscape:connector-curvature="0"
     style="fill:#ff0000;fill-rule:nonzero;stroke:none;stroke-width:1" />
  <g
     id="Group-20"
     transform="translate(1,5.963)"
     style="fill:#ff0000;fill-rule:nonzero;stroke:none;stroke-width:1">
    <path
       d="M 7.1005911,0.30356854 H 12.381671 L 12.031456,2.3102447 c 0,0 -0.155452,-1.0878444 -0.805435,-1.51356856 C 11.064659,0.7211138 10.65123,0.72633773 9.6152024,0.72633773 L 9.2096352,3.1190573 C 10.035703,3.3132926 10.95179,2.0545886 10.95179,2.0545886 l -0.526878,2.782351 c 0,0 -0.323198,-1.259812 -1.3353745,-1.2180206 L 8.6405432,6.0939023 c 1.4742048,0 1.4456048,-0.010342 1.8017818,-0.2280062 C 10.785997,5.6559362 11.58853,4.6220197 11.618818,4.477227 L 11.291452,6.5510228 H 5.9529089 C 5.9924841,6.2748403 6.5126084,6.2451853 6.7453637,6.086726 L 7.1820633,3.6794428 C 7.1468677,3.464259 6.7246262,3.6496294 6.6389326,3.4648922 6.7114345,3.2670687 7.1359977,3.39677 7.2592615,3.2539825 L 7.7023459,0.81155643 C 7.6232482,0.6269247 7.1005911,0.53648207 7.1005911,0.30356854 Z"
       id="path35"
       inkscape:connector-curvature="0"
       style="fill:#ff0000" />
    <path
       d="M 17.06337,0.11571803 C 17.295756,0.59515897 17.482603,1.1217736 17.652724,1.6658014 17.32979,1.7910702 16.882062,1.9946453 16.882062,1.9946453 L 16.032039,0.81366711 C 15.146661,0.74438404 13.95017,2.0630313 13.859569,2.886988 c -0.105957,0.9748175 0.500442,1.9377097 1.450617,2.0199207 0.989856,0.086063 2.176006,-0.7515076 2.176006,-0.7515076 L 16.398189,6.5510228 C 14.15422,7.3494403 12.493748,5.8836786 12.408793,4.1554011 12.278458,1.5169984 14.666112,0.06284549 17.06337,0.11571803 Z"
       id="path37"
       inkscape:connector-curvature="0"
       style="fill:#ff0000" />
    <path
       d="M 4.7920349,3.5771803 5.5593726,0 7.0192771,0.89703897 5.8522822,1.5853317 4.7943039,6.7424615 1.3819677,2.9021849 0.91461038,5.2800769 1.7447408,5.964887 0,6.7424615 0.84770182,2.7263125 C 0.94004407,2.119492 0.5204409,1.9105347 0.15107192,1.7852131 L 1.6458027,0.06295103 Z"
       id="path39"
       inkscape:connector-curvature="0"
       style="fill:#ff0000" />
  </g>
</svg>
