<?xml version="1.0" encoding="UTF-8" standalone="no"?>
<!-- Created with Inkscape (http://www.inkscape.org/) -->

<svg
   xmlns:dc="http://purl.org/dc/elements/1.1/"
   xmlns:cc="http://creativecommons.org/ns#"
   xmlns:rdf="http://www.w3.org/1999/02/22-rdf-syntax-ns#"
   xmlns:svg="http://www.w3.org/2000/svg"
   xmlns="http://www.w3.org/2000/svg"
   xmlns:sodipodi="http://sodipodi.sourceforge.net/DTD/sodipodi-0.dtd"
   xmlns:inkscape="http://www.inkscape.org/namespaces/inkscape"
   width="362.17303mm"
   height="68.170952mm"
   viewBox="0 0 362.17303 68.170952"
   version="1.1"
   id="svg8"
   sodipodi:docname="ports.svg"
   inkscape:version="0.92.5 (2060ec1f9f, 2020-04-08)">
  <defs
     id="defs2" />
  <sodipodi:namedview
     id="base"
     pagecolor="#ffffff"
     bordercolor="#666666"
     borderopacity="1.0"
     inkscape:pageopacity="0.0"
     inkscape:pageshadow="2"
     inkscape:zoom="0.41870117"
     inkscape:cx="927.52444"
     inkscape:cy="84.358145"
     inkscape:document-units="mm"
     inkscape:current-layer="layer1"
     showgrid="false"
     inkscape:pagecheckerboard="true"
     inkscape:window-width="1366"
     inkscape:window-height="740"
     inkscape:window-x="0"
     inkscape:window-y="0"
     inkscape:window-maximized="1" />
  <metadata
     id="metadata5">
    <rdf:RDF>
      <cc:Work
         rdf:about="">
        <dc:format>image/svg+xml</dc:format>
        <dc:type
           rdf:resource="http://purl.org/dc/dcmitype/StillImage" />
        <dc:title />
      </cc:Work>
    </rdf:RDF>
  </metadata>
  <g
     inkscape:label="Layer 1"
     inkscape:groupmode="layer"
     id="layer1"
     transform="translate(-55.942248,-164.94915)">
    <g
       aria-label="[pc ports]"
       transform="matrix(1.0880151,0,0,1.0880151,24.848816,121.42923)"
       style="font-style:normal;font-weight:normal;font-size:40px;line-height:125%;font-family:sans-serif;letter-spacing:0px;word-spacing:0px;fill:#ffffff;fill-opacity:1;stroke:none;stroke-width:1px;stroke-linecap:butt;stroke-linejoin:miter;stroke-opacity:1"
       id="flowRoot10">
      <path
         d="m 32.515625,40.718117 q 0.65625,-0.0625 0.65625,-0.21875 l 1,0.125 2.84375,-0.03125 h 0.03125 v 3.96875 q -1.40625,-0.1875 -1.40625,-0.46875 l -0.96875,0.15625 -0.125,-0.125 h -0.125 q -0.15625,0.1875 -1.4375,0.28125 0.15625,0.9375 0.46875,1.34375 -0.25,1.21875 -0.75,1.75 l 0.125,0.5 -0.125,0.375 0.125,1 -0.125,0.125 0.125,0.625 v 0.375 l -0.125,1.75 0.125,0.125 v 0.125 l -0.25,0.75 0.375,2.25 v 0.375 l -0.25,1 v 0.625 q 0,0.90625 0.375,2.25 l -0.125,0.375 0.125,1.75 v 0.5 l -0.5,2 q 0.625,2.21875 0.625,3 -0.375,0 -0.375,0.5 l 0.125,0.75 -0.125,1 0.125,0.125 -0.125,0.125 v 0.125 q 0,2.25 0.5,4.875 l -0.5,1.375 0.25,1.625 -0.125,1 0.25,0.75 v 0.5 q 0,0.59375 -0.375,1.25 l 0.125,1.125 q -0.15625,0 -0.5,1.25 0.15625,0.65625 0.625,1 l 0.125,0.5 -0.125,0.875 0.125,0.125 -0.375,4.5 0.125,0.5 -0.375,1.5 0.125,1.375 -0.125,1 0.375,1.75 -0.125,1.0625 0.9375,0.1875 2.21875,-0.40625 1.0625,0.15625 -0.0625,3.468753 -0.125,0.125 -0.125,-0.125 h -0.5 l -2.59375,0.40625 q -1.46875,-0.0625 -2.34375,-0.15625 v -0.3125 l -2.1875,-0.125 0.34375,-2.406253 q -0.34375,0 -0.5,-1.875 l 0.125,-0.5 v -1 l 0.375,-1 -0.375,-1.625 0.125,-0.375 q -0.125,-1.625 -0.375,-1.625 l 0.125,-0.625 -0.125,-0.5 q 0.625,-0.6875 0.625,-2.375 l -0.25,-0.25 v -0.125 l 0.125,-0.5 -0.25,-0.5 0.25,-1 -0.375,-2 0.5,-0.875 -0.25,-0.75 0.125,-0.125 v -0.125 l -0.125,-1.25 0.375,-1.125 q -0.5,-0.75 -0.5,-2.25 l 0.25,-1.125 q 0,-0.875 -0.25,-1.375 l 0.125,-1.375 v -1.125 l -0.125,-0.125 0.25,-1 -0.125,-0.5 0.125,-0.375 -0.375,-0.75 0.375,-2 -0.125,-2.5 q 0,-1.625 0.375,-2.625 -0.875,-1.28125 -0.875,-1.75 v -0.375 l 0.5,-2.375 v -1.75 l -0.25,-0.875 0.25,-2.125 q 0,-0.59375 -0.625,-1.875 0,-0.625 0.875,-1.75 v -0.25 l -0.375,-0.375 v -0.125 h 0.25 v -0.125 q -0.5,-0.5 -0.5,-0.875 l 0.125,-1 -0.125,-0.125 q 0.375,-0.125 0.375,-0.75 -0.03125,-1.875 -0.25,-1.875 l 0.375,-1.375 -0.125,-0.75 v -0.125 q 0,-0.375 1.625,-0.5 v -0.125 q 1.15625,0.0625 1.6875,0.46875 z"
         style="font-style:normal;font-variant:normal;font-weight:normal;font-stretch:normal;font-size:64px;font-family:'Top Secret';-inkscape-font-specification:'Top Secret';fill:#ffffff"
         id="path729"
         inkscape:connector-curvature="0" />
      <path
         d="m 63.734375,48.655617 q 2.53125,0.65625 3.5,2.625 6.375,2 6.375,6.9375 l 0.5625,2.34375 -0.28125,0.875 1.15625,5.5 q 0,1.9375 -6.96875,6.6875 -6.46875,3.1875 -10.4375,3.1875 0,-0.875 -0.5625,-0.875 l 0.84375,-1.75 -0.5625,-1.15625 q 2.03125,-1.5 3.1875,-6.09375 v -1.4375 l -0.59375,-4.9375 q 1.75,-1.25 1.75,-2.34375 0,-2.71875 -4.9375,-6.375 v -1.75 l 0.875,-0.84375 2.3125,0.5625 q 0.78125,-0.78125 3.78125,-1.15625 z m -25.8125,0.28125 0.28125,0.3125 h 0.28125 l 1.75,-0.3125 10.75,0.875 1.71875,-0.5625 h 1.46875 v 0.28125 l -0.3125,1.75 q 0.375,9.28125 1.1875,9.28125 -0.59375,0.65625 -0.59375,3.46875 l -0.28125,0.28125 -0.3125,0.875 0.3125,1.75 -0.59375,2.625 0.59375,1.15625 -0.59375,1.71875 0.875,1.46875 -0.28125,0.28125 v 1.46875 l 0.28125,0.28125 q -0.59375,2.40625 -1.15625,2.59375 l 1.75,3.21875 v 0.28125 l -0.3125,6.96875 q 0.6875,0.5625 2.03125,0.5625 l 0.875,2.34375 h -0.28125 q -4.09375,0.78125 -4.9375,1.4375 l -5.8125,-1.4375 h -2.90625 l -2.03125,1.15625 q -5.21875,-0.53125 -5.21875,-1.75 0,-1.15625 3.5,-1.4375 l 1.4375,-2.34375 v -1.15625 l -0.875,-2.90625 v -0.875 l 0.59375,-2.3125 -1.75,-3.1875 v -0.28125 l 0.875,-4.375 -0.59375,-1.15625 0.59375,-2.03125 -0.28125,-1.15625 0.28125,-2.3125 h -0.28125 l 0.28125,-0.28125 v -0.3125 l -0.28125,-2.03125 0.28125,-1.71875 -0.28125,-0.3125 v -0.28125 l 0.5625,-2.3125 v -3.1875 q -1.15625,0 -2.3125,-3.21875 -1.4375,-0.28125 -2.03125,-1.15625 z m 40.9375,52.500003 h -0.09375 l -3.875,0.625 -1.875,-0.5 -2,0.25 -1.5,-0.25 -0.875,0.125 -0.125,-0.125 h -0.125 l -0.5,0.125 -0.375,-0.125 -0.375,0.125 -3.75,-0.375 -1.125,0.125 h -0.5 l -0.125,0.125 -0.125,-0.125 h -1.25 l -1.5,0.375 -1.75,-0.5 -1.125,0.125 h -0.125 l -1.75,-0.375 -1.125,0.375 h -1.25 l -1.375,0.25 -1.625,-0.25 h -0.5 l -0.75,0.125 -0.625,-0.125 h -0.25 l -0.125,0.125 -0.125,-0.125 h -0.5 l -2.125,0.5 q -3.75,-0.15625 -3.75,-0.625 l -0.5,0.25 -0.125,-0.125 h -0.125 q -0.21875,0.25 -2.625,0.375 -1,-0.125 -1,-1 v -0.5 l 0.25,-0.375003 v -0.375 l -0.25,-1 v -0.25 l 0.25,-0.25 h 0.875 q 1.25,-0.03125 1.25,-0.25 l 1,0.125 2.375,-0.125 2.5,0.5 1.75,-0.5 1.875,0.25 0.125,-0.125 h 0.125 l 1,0.375 2.125,-0.375 0.875,0.25 0.125,-0.125 h 0.125 l 0.875,0.25 2.625,-0.5 0.875,0.375 h 1.375 q 1.375,-0.1875 1.375,-0.5 1.125,0.125 1.125,0.375 1.25,-0.125 1.5,-0.375 2.625,0.125 2.625,0.375 l 0.375,-0.25 0.75,0.25 h 0.375 l 0.375,-0.25 h 0.625 l 1.375,-0.125 0.125,0.125 h 0.125 l 1.125,-0.125 h 1 l 2.125,0.5 q 1.75,-0.125 1.75,-0.75 l 0.75,0.25 0.375,-0.125 0.75,0.25 0.75,-0.125 q 1.28125,0.15625 1.5,0.375 h 0.34375 z m 0,-57.156253 -1.3125,0.1875 -0.125,-0.125 -0.625,0.125 -0.75,-0.125 -1.875,0.25 q -0.96875,0 -2.25,-0.375 h -0.125 q -0.46875,0.375 -0.875,0.375 h -0.375 q -0.75,0 -1.5,-0.75 l -1.5,0.25 -0.5,-0.125 -0.5,0.125 h -1 q -0.71875,0.5 -1.125,0.5 l -1,-0.125 h -0.125 l -0.125,0.125 -0.625,-0.375 -0.75,0.375 -0.75,-0.25 q -0.46875,0.375 -1.125,0.375 h -0.375 l -1,-0.375 q -2.5,0 -4.875,0.375 -1.15625,0 -2,-0.75 0,0.5 -1.75,0.625 l -0.75,-0.125 -0.875,0.25 q -1.65625,-0.25 -2,-0.5 h -0.125 l -0.125,0.125 -2.75,-0.25 q -1.59375,0 -2,0.5 h -0.25 l -0.5,-0.375 -0.75,0.25 -0.125,-0.125 h -0.375 q -0.78125,0.25 -3,0.375 l -0.875,-0.5 v -0.125 l 0.125,-0.125 q 0.5,-0.1875 0.5,-0.375 v -0.125 l -0.375,-0.375 0.25,-0.875 v -0.125 q 0,-0.25 -0.375,-0.25 v -0.5 l 0.5,-0.875 q 1.4375,0 2.5,0.375 1.4375,0 1.875,-0.5 h 0.625 l 2.125,0.375 h 0.375 l 1.375,-0.375 q 2.65625,0.40625 3.125,0.75 h 0.5 q 0.625,0 0.75,-0.375 h 0.125 l 0.125,0.125 h 0.5 q 0,-0.25 2.875,-0.625 l 0.75,0.125 h 0.125 l 0.125,-0.125 q 0.5,0.1875 0.5,0.375 l 0.875,-0.125 h 0.875 l 3.25,0.625 1.25,-0.5 v 0.125 q 1.1875,0 2.25,-0.375 l 1.25,0.25 q 2.375,0 3.625,-0.5 2.5,0.875 3.375,0.875 h 0.625 q 1.5,-0.5 2.875,-0.625 l 0.375,0.375 h 0.375 v -0.25 h 0.375 q 0,0.375 0.625,0.375 h 0.25 l 0.125,-0.125 0.625,0.375 h 0.375 q 0.25,-0.25 1,-0.25 l 0.0625,-0.0625 z"
         style="font-style:normal;font-variant:normal;font-weight:normal;font-stretch:normal;font-size:64px;font-family:'Top Secret';-inkscape-font-specification:'Top Secret';fill:#ffffff"
         id="path731"
         inkscape:connector-curvature="0" />
      <path
         d="m 96.046875,48.655617 0.84375,0.28125 v 2.53125 q 0,1.9375 -2.84375,2.25 l 0.28125,0.28125 -0.84375,1.4375 0.28125,1.96875 -0.5625,0.5625 v 1.96875 l 0.28125,0.28125 -0.28125,0.28125 v 0.28125 l 0.5625,2.25 v 0.84375 q -1.6875,4.03125 -1.6875,5.65625 l 1.6875,5.0625 -0.5625,1.6875 v 2 l 0.84375,3.9375 -0.84375,2.53125 v 1.125 q 0,1.5 3.96875,4.8125 l -0.5625,1.96875 h -0.28125 q -1.46875,0 -2.5625,-0.84375 h -0.5625 l -2.53125,0.28125 q -1.34375,-0.21875 -2.25,-1.40625 l -5.9375,-3.125 0.5625,-1.40625 q -1.96875,-0.4375 -1.96875,-1.40625 l 0.28125,-0.28125 v -0.28125 l -2.8125,-7.03125 q 0.5625,-1.25 0.5625,-4.53125 l -0.84375,-4.5 q 0,-5.96875 3.375,-7.625 l 0.28125,-0.28125 v -0.28125 l -0.84375,-1.40625 q 0.71875,-1.4375 2.53125,-2.53125 0.46875,-2.0625 6.5,-5.65625 0,-0.65625 5.9375,-1.6875 z m 6.187505,0.28125 q 0,0.75 4.25,2.25 1.96875,0 3.65625,-1.96875 h 0.5625 q 1.40625,0.71875 1.40625,2.53125 0,1.40625 -0.5625,1.40625 0.5625,0.6875 0.84375,4.53125 l -0.28125,4.78125 0.84375,2.25 q -0.8125,2 -2.53125,2 0,-0.75 -1.40625,-1.125 l -2.25,-7.625 q -0.71875,0 -2.28125,-1.96875 -1.40625,-0.21875 -1.40625,-0.84375 l 0.28125,-1.15625 q -1.40625,-1.03125 -4.218755,-1.40625 0,-3.09375 1.687505,-3.09375 0,-0.5625 1.40625,-0.5625 z m 9.875,31.3125 0.28125,0.28125 q -0.34375,4.375 -1.6875,6.46875 -1.96875,0 -1.96875,2.28125 l -4.25,1.40625 v -0.28125 l -3.09375,3.09375 h -1.687505 q -1.125,-0.46875 -1.125,-1.96875 v -1.125 q 0,-0.5 7.312505,-3.6875 3.125,-6.46875 6.21875,-6.46875 z m 5.875,21.437503 -0.5,0.15625 -0.375,-0.125 -0.75,0.25 q 0,-0.625 -1.75,-0.75 l -2.125,0.5 h -1 l -1.125,-0.125 h -0.125 l -0.125,0.125 -1.375,-0.125 h -0.625 l -0.375,-0.25 h -0.375 l -0.75,0.25 -0.375,-0.25 q 0,0.25 -2.625,0.375 -0.25,-0.25 -1.5,-0.375 0,0.25 -1.125,0.375 0,-0.3125 -1.375005,-0.5 h -1.375 l -0.875,0.375 -2.625,-0.5 -0.875,0.25 h -0.125 l -0.125,-0.125 -0.875,0.25 -2.125,-0.375 -1,0.375 h -0.125 l -0.125,-0.125 -1.875,0.25 -1.75,-0.5 -2.5,0.5 -2.375,-0.125 -1,0.125 q 0,-0.21875 -1.25,-0.25 h -0.875 l -0.25,-0.25 v -0.25 l 0.25,-1.000003 v -0.375 l -0.25,-0.375 v -0.5 q 0,-0.875 1,-1 2.40625,0.125 2.625,0.375 h 0.125 l 0.125,-0.125 0.5,0.25 q 0,-0.46875 3.75,-0.625 l 2.125,0.5 h 0.5 l 0.125,-0.125 0.125,0.125 h 0.25 l 0.625,-0.125 0.75,0.125 h 0.5 l 1.625,-0.25 1.375,0.25 h 1.25 l 1.125,0.375 1.75,-0.375 h 0.125 l 1.125,0.125 1.750005,-0.5 1.5,0.375 h 1.25 l 0.125,-0.125 0.125,0.125 h 0.5 l 1.125,0.125 3.75,-0.375 0.375,0.125 0.375,-0.125 0.5,0.125 h 0.125 l 0.125,-0.125 0.875,0.125 1.5,-0.25 2,0.25 1.875,-0.5 1.125,0.1875 z m 0,-57.031253 -1.65625,0.21875 q -0.96875,0 -2.25,-0.375 h -0.125 q -0.46875,0.375 -0.875,0.375 h -0.375 q -0.75,0 -1.5,-0.75 l -1.5,0.25 -0.5,-0.125 -0.5,0.125 h -1 q -0.71875,0.5 -1.125,0.5 l -1,-0.125 h -0.125 l -0.125,0.125 -0.625,-0.375 -0.75,0.375 -0.75,-0.25 q -0.46875,0.375 -1.125,0.375 h -0.375 l -1,-0.375 q -2.500005,0 -4.875005,0.375 -1.15625,0 -2,-0.75 0,0.5 -1.75,0.625 l -0.75,-0.125 -0.875,0.25 q -1.65625,-0.25 -2,-0.5 h -0.125 l -0.125,0.125 -2.75,-0.25 q -1.59375,0 -2,0.5 h -0.25 l -0.5,-0.375 -0.75,0.25 -0.125,-0.125 h -0.375 q -0.78125,0.25 -3,0.375 l -0.875,-0.5 v -0.125 l 0.125,-0.125 q 0.5,-0.1875 0.5,-0.375 v -0.125 l -0.375,-0.375 0.25,-0.875 v -0.125 q 0,-0.25 -0.375,-0.25 v -0.5 l 0.5,-0.875 q 1.4375,0 2.5,0.375 1.4375,0 1.875,-0.5 h 0.625 l 2.125,0.375 h 0.375 l 1.375,-0.375 q 2.65625,0.40625 3.125,0.75 h 0.5 q 0.625,0 0.75,-0.375 h 0.125 l 0.125,0.125 h 0.5 q 0,-0.25 2.875,-0.625 l 0.75,0.125 h 0.125 l 0.125,-0.125 q 0.5,0.1875 0.5,0.375 l 0.875,-0.125 h 0.875 l 3.250005,0.625 1.25,-0.5 v 0.125 q 1.1875,0 2.25,-0.375 l 1.25,0.25 q 2.375,0 3.625,-0.5 2.5,0.875 3.375,0.875 h 0.625 q 1.5,-0.5 2.875,-0.625 l 0.375,0.375 h 0.375 v -0.25 h 0.375 q 0,0.09375 0.0312,0.15625 z"
         style="font-style:normal;font-variant:normal;font-weight:normal;font-stretch:normal;font-size:64px;font-family:'Top Secret';-inkscape-font-specification:'Top Secret';fill:#ffffff"
         id="path733"
         inkscape:connector-curvature="0" />
      <path
         d="m 149.76562,101.78062 -1.71875,-0.21875 -0.75,0.125 -0.625,-0.125 -0.125,0.125 -3.5,-0.5 -1.75,0.5 -0.875,-0.125 -1.375,0.25 -0.75,-0.375 -0.125,0.125 h -0.125 l -0.5,-0.125 -1.125,0.375 -0.375,-0.375 -0.625,0.125 h -1.25 l -1.5,0.125 -0.25,-0.25 -0.25,0.25 -1.25,-0.125 h -1.125 l -1.25,0.625 -1.99999,-0.5 -0.125,0.125 h -0.125 l -1,-0.375 h -1.375 l -0.5,0.25 -0.5,-0.25 -1.125,0.125 -0.125,-0.125 -1,0.25 h -0.375 l -1.5,-0.375 -1.25,0.25 -0.5,-0.125 -0.28125,0.0625 v -3.375003 l 0.28125,0.0625 1.375,-0.125 0.75,0.25 h 0.125 l 0.125,-0.125 1,0.25 q 0,-0.28125 2.125,-0.75 0.46875,-0.5 1,-0.625 0.90625,0.875 1.875,0.875 l 0.625,-0.375 q 0.28125,0.40625 1.875,0.75 l 1.49999,-0.375 1.375,0.125 h 0.625 l 0.75,-0.375 q 0.59375,0.375 1.125,0.375 1.0625,0 1.75,-0.25 l 2.75,0.375 q 0.1875,-0.5 0.375,-0.5 h 1.125 l 0.125,-0.125 1.625,0.75 h 0.125 l 3.5,-0.875 0.625,0.625 q 0.75,0 1,0.25 h 0.375 l 0.625,-0.375 0.125,0.125 h 0.25 q 0.625,0 0.625,-0.375 h 0.375 v 0.25 h 0.375 l 0.375,-0.375 q 0.15625,0 0.34375,0.03125 z m -5.5625,-57.000003 -0.34375,0.1875 q -2.21875,-0.125 -3,-0.375 h -0.375 l -0.125,0.125 -0.75,-0.25 -0.5,0.375 h -0.25 q -0.40625,-0.5 -2,-0.5 l -2.75,0.25 -0.125,-0.125 h -0.125 q -0.34375,0.25 -2,0.5 l -0.875,-0.25 -0.75,0.125 q -1.75,-0.125 -1.75,-0.625 -0.84374,0.75 -1.99999,0.75 -2.375,-0.375 -4.875,-0.375 l -1,0.375 h -0.375 q -0.65625,0 -1.125,-0.375 l -0.75,0.25 -0.75,-0.375 -0.625,0.375 -0.125,-0.125 v -4.0625 l 0.375,-0.0625 q 1.0625,0.375 2.25,0.375 v -0.125 l 1.25,0.5 3.25,-0.625 h 0.875 l 0.875,0.125 q 0,-0.1875 0.5,-0.375 l 0.125,0.125 h 0.125 l 0.75,-0.125 q 2.87499,0.375 2.87499,0.625 h 0.5 l 0.125,-0.125 h 0.125 q 0.125,0.375 0.75,0.375 h 0.5 q 0.46875,-0.34375 3.125,-0.75 l 1.375,0.375 h 0.375 l 2.125,-0.375 h 0.625 q 0.46875,0.5 1.875,0.5 0.625,-0.21875 1.34375,-0.3125 v -0.125 q 0.25,0.03125 0.53125,0.09375 0.3125,-0.03125 0.625,-0.03125 l 0.0937,0.15625 q 0.625,0.15625 1.28125,0.375 h 0.625 q 0.875,0 3.375,-0.875 0.21875,0.09375 0.46875,0.15625 v 3.78125 l -0.21875,0.0625 -1.5,-0.25 q -0.75,0.75 -1.5,0.75 h -0.375 q -0.40625,0 -0.875,-0.375 h -0.125 q -0.625,0.1875 -1.15625,0.28125 z"
         style="font-style:normal;font-variant:normal;font-weight:normal;font-stretch:normal;font-size:64px;font-family:'Top Secret';-inkscape-font-specification:'Top Secret';fill:#ffffff"
         id="path735"
         inkscape:connector-curvature="0" />
      <path
         d="m 176.32812,48.655617 q 2.53125,0.65625 3.5,2.625 6.375,2 6.375,6.9375 l 0.5625,2.34375 -0.28125,0.875 1.15625,5.5 q 0,1.9375 -6.96875,6.6875 -6.46875,3.1875 -10.4375,3.1875 0,-0.875 -0.5625,-0.875 l 0.84375,-1.75 -0.5625,-1.15625 q 2.03125,-1.5 3.1875,-6.09375 v -1.4375 l -0.59375,-4.9375 q 1.75,-1.25 1.75,-2.34375 0,-2.71875 -4.9375,-6.375 v -1.75 l 0.875,-0.84375 2.3125,0.5625 q 0.78125,-0.78125 3.78125,-1.15625 z m -25.8125,0.28125 0.28125,0.3125 h 0.28125 l 1.75,-0.3125 10.75,0.875 1.71875,-0.5625 h 1.46875 v 0.28125 l -0.3125,1.75 q 0.375,9.28125 1.1875,9.28125 -0.59375,0.65625 -0.59375,3.46875 l -0.28125,0.28125 -0.3125,0.875 0.3125,1.75 -0.59375,2.625 0.59375,1.15625 -0.59375,1.71875 0.875,1.46875 -0.28125,0.28125 v 1.46875 l 0.28125,0.28125 q -0.59375,2.40625 -1.15625,2.59375 l 1.75,3.21875 v 0.28125 l -0.3125,6.96875 q 0.6875,0.5625 2.03125,0.5625 l 0.875,2.34375 h -0.28125 q -4.09375,0.78125 -4.9375,1.4375 l -5.8125,-1.4375 h -2.90625 l -2.03125,1.15625 q -5.21875,-0.53125 -5.21875,-1.75 0,-1.15625 3.5,-1.4375 l 1.4375,-2.34375 v -1.15625 l -0.875,-2.90625 v -0.875 l 0.59375,-2.3125 -1.75,-3.1875 v -0.28125 l 0.875,-4.375 -0.59375,-1.15625 0.59375,-2.03125 -0.28125,-1.15625 0.28125,-2.3125 h -0.28125 l 0.28125,-0.28125 v -0.3125 l -0.28125,-2.03125 0.28125,-1.71875 -0.28125,-0.3125 v -0.28125 l 0.5625,-2.3125 v -3.1875 q -1.15625,0 -2.3125,-3.21875 -1.4375,-0.28125 -2.03125,-1.15625 z m 40.9375,52.500003 h -0.0937 l -3.875,0.625 -1.875,-0.5 -2,0.25 -1.5,-0.25 -0.875,0.125 -0.125,-0.125 h -0.125 l -0.5,0.125 -0.375,-0.125 -0.375,0.125 -3.75,-0.375 -1.125,0.125 h -0.5 l -0.125,0.125 -0.125,-0.125 h -1.25 l -1.5,0.375 -1.75,-0.5 -1.125,0.125 h -0.125 l -1.75,-0.375 -1.125,0.375 h -1.25 l -1.375,0.25 -1.625,-0.25 h -0.5 l -0.75,0.125 -0.625,-0.125 h -0.25 l -0.125,0.125 -0.125,-0.125 h -0.5 l -2.125,0.5 q -3.75,-0.15625 -3.75,-0.625 l -0.5,0.25 -0.125,-0.125 h -0.125 q -0.21875,0.25 -2.625,0.375 -1,-0.125 -1,-1 v -0.5 l 0.25,-0.375003 v -0.375 l -0.25,-1 v -0.25 l 0.25,-0.25 h 0.875 q 1.25,-0.03125 1.25,-0.25 l 1,0.125 2.375,-0.125 2.5,0.5 1.75,-0.5 1.875,0.25 0.125,-0.125 h 0.125 l 1,0.375 2.125,-0.375 0.875,0.25 0.125,-0.125 h 0.125 l 0.875,0.25 2.625,-0.5 0.875,0.375 h 1.375 q 1.375,-0.1875 1.375,-0.5 1.125,0.125 1.125,0.375 1.25,-0.125 1.5,-0.375 2.625,0.125 2.625,0.375 l 0.375,-0.25 0.75,0.25 h 0.375 l 0.375,-0.25 h 0.625 l 1.375,-0.125 0.125,0.125 h 0.125 l 1.125,-0.125 h 1 l 2.125,0.5 q 1.75,-0.125 1.75,-0.75 l 0.75,0.25 0.375,-0.125 0.75,0.25 0.75,-0.125 q 1.28125,0.15625 1.5,0.375 h 0.34375 z m 0,-57.156253 -1.3125,0.1875 -0.125,-0.125 -0.625,0.125 -0.75,-0.125 -1.875,0.25 q -0.96875,0 -2.25,-0.375 h -0.125 q -0.46875,0.375 -0.875,0.375 h -0.375 q -0.75,0 -1.5,-0.75 l -1.5,0.25 -0.5,-0.125 -0.5,0.125 h -1 q -0.71875,0.5 -1.125,0.5 l -1,-0.125 h -0.125 l -0.125,0.125 -0.625,-0.375 -0.75,0.375 -0.75,-0.25 q -0.46875,0.375 -1.125,0.375 h -0.375 l -1,-0.375 q -2.5,0 -4.875,0.375 -1.15625,0 -2,-0.75 0,0.5 -1.75,0.625 l -0.75,-0.125 -0.875,0.25 q -1.65625,-0.25 -2,-0.5 h -0.125 l -0.125,0.125 -2.75,-0.25 q -1.59375,0 -2,0.5 h -0.25 l -0.5,-0.375 -0.75,0.25 -0.125,-0.125 h -0.375 q -0.78125,0.25 -3,0.375 l -0.875,-0.5 v -0.125 l 0.125,-0.125 q 0.5,-0.1875 0.5,-0.375 v -0.125 l -0.375,-0.375 0.25,-0.875 v -0.125 q 0,-0.25 -0.375,-0.25 v -0.5 l 0.5,-0.875 q 1.4375,0 2.5,0.375 1.4375,0 1.875,-0.5 h 0.625 l 2.125,0.375 h 0.375 l 1.375,-0.375 q 2.65625,0.40625 3.125,0.75 h 0.5 q 0.625,0 0.75,-0.375 h 0.125 l 0.125,0.125 h 0.5 q 0,-0.25 2.875,-0.625 l 0.75,0.125 h 0.125 l 0.125,-0.125 q 0.5,0.1875 0.5,0.375 l 0.875,-0.125 h 0.875 l 3.25,0.625 1.25,-0.5 v 0.125 q 1.1875,0 2.25,-0.375 l 1.25,0.25 q 2.375,0 3.625,-0.5 2.5,0.875 3.375,0.875 h 0.625 q 1.5,-0.5 2.875,-0.625 l 0.375,0.375 h 0.375 v -0.25 h 0.375 q 0,0.375 0.625,0.375 h 0.25 l 0.125,-0.125 0.625,0.375 h 0.375 q 0.25,-0.25 1,-0.25 l 0.0625,-0.0625 z"
         style="font-style:normal;font-variant:normal;font-weight:normal;font-stretch:normal;font-size:64px;font-family:'Top Secret';-inkscape-font-specification:'Top Secret';fill:#ffffff"
         id="path737"
         inkscape:connector-curvature="0" />
      <path
         d="m 209.26562,48.655617 q 1.125,0.28125 1.125,1.4375 -0.875,2.71875 -3.40625,3.96875 l -0.5625,3.40625 v 2.5625 l 0.28125,2 q -1.125,0.15625 -1.125,0.84375 l 0.28125,0.3125 v 0.28125 l -0.5625,1.96875 0.5625,1.71875 -0.28125,1.4375 0.5625,0.5625 v 0.5625 l -0.5625,0.84375 v 0.875 l 0.5625,0.84375 v 1.125 l -0.28125,0.3125 0.5625,1.125 -0.5625,1.71875 v 5.125 l -0.5625,0.84375 v 1.40625 q 0,1.28125 4.25,6.28125 0,3.125 -1.125,3.125 -1.1875,-1.125 -5.6875,-2 -6.375,-3.1875 -8.28125,-8.25 0,-1.25 -1.40625,-3.6875 0,-0.6875 -2,-3.125 l -0.28125,-1.4375 q 1.125,-1.71875 1.125,-2.5625 l -0.28125,-3.6875 q 1.15625,-2.53125 1.71875,-8.5625 l 0.84375,-0.84375 -0.28125,-2.5625 q 1.15625,0 1.15625,-1.4375 2.5625,0 2.5625,-2.25 l 2.84375,-2 1.6875,0.28125 q 1.78125,-1.125 7.125,-2.5625 z m 5.96875,0.5625 q 5.125,0.9375 5.125,2.84375 0.625,0.59375 3.125,0.59375 2,2.65625 2,4.25 2.125,0 4.5625,11.375 l 0.28125,0.3125 q -1.125,2.15625 -1.125,6.8125 l 0.28125,2.5625 q -0.8125,2.84375 -2,2.84375 0,5.59375 -5.96875,8.25 -1.875,2.84375 -7.6875,2.84375 -1.28125,1.4375 -2.5625,1.4375 l -0.28125,-0.84375 q 0,-3.09375 3.40625,-4.84375 0.59375,-3.1875 1.4375,-3.40625 l -0.3125,-0.3125 v -0.5625 l 0.3125,-2.84375 q -1.71875,-5.125 -1.71875,-7.6875 0,-1.5625 1.71875,-2.84375 l 0.28125,-2.28125 -1.71875,-3.6875 1.125,-4.28125 -1.125,-2 0.28125,-1.40625 v -0.84375 q 0,-2.125 -2.84375,-4 v -0.28125 l 0.28125,-1.4375 h 0.84375 z m 19.21875,-5.125 -0.1875,-0.0625 q -0.59375,0.375 -2.25,0.375 h -0.125 l -1.25,-0.375 h -1 l -1.625,0.5 h -1.5 l -0.5,-0.125 -0.125,0.125 -1.875,-0.125 -3.125,0.375 -3.75,-0.75 -1.375,0.125 -0.75,-0.25 h -0.125 l -0.125,0.125 -1,-0.25 q 0,0.28125 -2.125,0.75 -0.46875,0.5 -1,0.625 -0.90625,-0.875 -1.875,-0.875 l -0.625,0.375 q -0.28125,-0.40625 -1.875,-0.75 l -1.5,0.375 -1.375,-0.125 h -0.625 l -0.75,0.375 q -0.59375,-0.375 -1.125,-0.375 -1.0625,0 -1.75,0.25 l -2.75,-0.375 q -0.1875,0.5 -0.375,0.5 h -1.125 l -0.125,0.125 -1.625,-0.75 h -0.125 l -2.4375,0.59375 v -3.5625 l 0.5625,0.09375 1.75,-0.5 0.875,0.125 1.375,-0.25 0.75,0.375 0.125,-0.125 h 0.125 l 0.5,0.125 1.125,-0.375 0.375,0.375 0.625,-0.125 h 1.25 l 1.5,-0.125 0.25,0.25 0.25,-0.25 1.25,0.125 h 1.125 l 1.25,-0.625 2,0.5 0.125,-0.125 h 0.125 l 1,0.375 h 1.375 l 0.5,-0.25 0.5,0.25 1.125,-0.125 0.125,0.125 1,-0.25 h 0.375 l 1.5,0.375 1.25,-0.25 0.5,0.125 1.75,-0.375 0.125,0.125 h 0.125 l 0.875,-0.25 0.375,0.125 0.875,-0.25 1.125,0.375 h 2 l 0.75,0.125 1.75,-0.25 2.125,0.5 2,-0.25 0.875,0.125 0.5,-0.125 0.625,0.125 0.625,-0.375 0.625,0.375 q 0.0937,0 0.1875,-0.03125 z m -0.0937,58.187503 -0.34375,0.125 h -0.375 q -0.65625,0 -1.125,-0.375 l -0.75,0.25 -0.75,-0.375 -0.625,0.375 -0.125,-0.125 h -0.125 l -1,0.125 q -0.40625,0 -1.125,-0.5 h -1 l -0.5,-0.125 -0.5,0.125 -1.5,-0.25 q -0.75,0.75 -1.5,0.75 h -0.375 q -0.40625,0 -0.875,-0.375 h -0.125 q -1.28125,0.375 -2.25,0.375 l -1.875,-0.25 -0.75,0.125 -0.625,-0.125 -0.125,0.125 -3.5,-0.5 -1.75,0.5 -0.875,-0.125 -1.375,0.25 -0.75,-0.375 -0.125,0.125 h -0.125 l -0.5,-0.125 -1.125,0.375 -0.375,-0.375 -0.625,0.125 h -1.25 l -1.5,0.125 -0.25,-0.25 -0.25,0.25 -1.25,-0.125 h -1.125 l -1.25,0.625 -2,-0.5 -0.125,0.125 h -0.125 l -1,-0.375 h -1.375 l -0.5,0.25 -0.5,-0.25 -1.125,0.125 -0.125,-0.125 -0.5625,0.125 v -3.500003 q 0.53125,-0.1875 1.4375,-0.375 0.46875,-0.5 1,-0.625 0.90625,0.875 1.875,0.875 l 0.625,-0.375 q 0.28125,0.40625 1.875,0.75 l 1.5,-0.375 1.375,0.125 h 0.625 l 0.75,-0.375 q 0.59375,0.375 1.125,0.375 1.0625,0 1.75,-0.25 l 2.75,0.375 q 0.1875,-0.5 0.375,-0.5 h 1.125 l 0.125,-0.125 1.625,0.75 h 0.125 l 3.5,-0.875 0.625,0.625 q 0.75,0 1,0.25 h 0.375 l 0.625,-0.375 0.125,0.125 h 0.25 q 0.625,0 0.625,-0.375 h 0.375 v 0.25 h 0.375 l 0.375,-0.375 q 1.375,0.125 2.875,0.625 h 0.625 q 0.875,0 3.375,-0.875 1.25,0.5 3.625,0.5 l 1.25,-0.25 q 1.0625,0.375 2.25,0.375 v -0.125 l 1.25,0.5 0.21875,-0.03125 z"
         style="font-style:normal;font-variant:normal;font-weight:normal;font-stretch:normal;font-size:64px;font-family:'Top Secret';-inkscape-font-specification:'Top Secret';fill:#ffffff"
         id="path739"
         inkscape:connector-curvature="0" />
      <path
         d="m 247.73437,48.655617 h 1.71875 q 1.4375,0 1.71875,1.15625 l -0.28125,0.84375 0.5625,3.1875 -0.28125,1.71875 0.59375,0.84375 -0.3125,0.3125 v 1.4375 q 0,2.71875 -1.125,5.15625 v 0.28125 q 1.4375,3.53125 1.4375,5.75 l -0.59375,2.3125 v 3.15625 l -1.15625,3.4375 0.3125,2.03125 -0.3125,1.15625 q 0.8125,0 1.4375,6.03125 l 0.3125,1.4375 2,1.4375 v 1.4375 l -0.5625,0.5625 h -3.75 l -2,0.59375 -1.75,-0.59375 v 0.28125 l -1.71875,-0.5625 h -0.28125 l -4.3125,0.875 -1.4375,-0.3125 -0.875,0.59375 q -3.4375,-0.21875 -3.4375,-0.875 0,-4.03125 2.3125,-4.03125 l 2.28125,-4 q 0,-2.03125 -1.71875,-4.90625 v -0.28125 l 0.5625,-2.59375 -0.28125,-5.15625 0.28125,-2.3125 -0.28125,-0.84375 0.875,-4.3125 -0.28125,-1.75 0.28125,-1.71875 -0.28125,-0.28125 v -0.28125 l 0.28125,-1.4375 -0.28125,-1.15625 0.28125,-0.28125 -0.875,-0.875 0.59375,-0.84375 v -0.3125 q 0,-0.5 -2.875,-2 l -0.59375,-3.15625 1.71875,-0.59375 h 1.15625 l 1.15625,0.875 h 0.28125 l 0.28125,-0.28125 2.3125,0.5625 4.875,-0.5625 v 0.28125 z m 6.90625,0.5625 2.5625,0.59375 h 3.46875 q 3.6875,0 5.15625,2 1.59375,0 2.3125,2.03125 1.03125,0 2.28125,3.4375 h 0.3125 l -0.59375,7.46875 0.28125,0.28125 q -0.625,0.0625 -4,4.3125 -1.34375,0 -4.03125,2.875 v 0.59375 h 1.71875 q 5.78125,0 6.90625,5.4375 l 0.28125,0.3125 -0.28125,1.4375 0.28125,1.4375 q -0.5,0.59375 -0.875,4 0.4375,1.15625 0.875,1.15625 h 0.28125 l 3.75,-1.15625 0.84375,1.75 q -3.71875,5.4375 -6.59375,5.4375 0,0.875 -0.59375,0.875 l -1.4375,-0.28125 -1.4375,0.28125 q -3.8125,-0.09375 -8.03125,-4.59375 l -0.28125,-2.3125 0.28125,-2 -1.15625,-2.875 0.5625,-1.71875 q 0,-5.75 -2.28125,-5.75 -1.15625,0 -1.15625,-4.03125 2.59375,-0.71875 2.59375,-2.875 l 0.84375,-4.59375 -0.84375,-4.03125 0.28125,-1.4375 q 0,-2.75 -2.875,-4.875 l -0.28125,-2.875 z m 24.90625,-4.625 -0.5,0.03125 -0.125,-0.125 -0.875,0.125 -0.5,-0.125 q -0.34375,-0.46875 -1,-0.625 -1.25,0.34375 -1.25,0.5 l -1.125,-0.125 q -0.625,0.375 -1.25,0.375 h -0.5 l -0.75,-0.25 -1,0.125 -1.625,-0.25 -1.375,0.5 q -2.59375,-0.5 -4.875,-0.5 h -0.125 l -0.125,0.125 -0.125,-0.125 -1,0.125 -0.75,-0.125 q -0.5,0 -0.5,0.375 -0.78125,0 -3,-0.625 l -2,0.5 h -0.5 l -1.75,-0.125 -0.375,0.125 q -1.34375,-0.375 -2.25,-0.375 h -0.625 l -1,0.25 h -0.375 l -2.25,-0.375 -0.75,0.25 h -0.125 l -0.125,-0.125 -1.75,0.125 h -0.375 l -0.625,-0.125 -0.125,0.125 -1,-0.125 -0.375,0.125 -0.5,-0.125 q -0.53125,0.5 -1.75,0.75 -0.46875,-0.34375 -1.625,-0.5 v 0.125 l -1,-0.125 q -0.375,0 -0.375,0.25 l -1.125,-0.25 q -1.25,0 -1.375,-2.125 h 0.125 q 0.125,-1.625 0.5,-1.625 h 0.125 l 0.75,0.125 1.375,-0.375 q 0,0.21875 1.875,0.25 0.625,0 0.75,-0.375 l 0.125,0.125 1,-0.125 q 0.40625,0 0.875,0.5 h 0.125 v -0.25 h 0.125 l 0.375,0.375 h 0.25 q 1.15625,-0.875 1.75,-0.875 1.28125,0.625 1.875,0.625 l 2.125,-0.25 0.875,0.25 h 1.75 l 2.375,-0.5 h 0.375 q 0.46875,0 1.75,0.875 1,-0.375 2.625,-0.375 l 2.5,0.125 2,-0.375 0.75,0.375 0.375,-0.125 0.5,0.125 1,-0.25 0.125,0.125 h 1.125 l 1.375,-0.125 q 0.5,0.25 1.375,0.25 l 1.125,-0.25 q 1.5,0 2.25,0.5 l 1.125,-0.375 1.25,0.125 h 0.125 l 0.125,-0.125 0.75,0.25 0.875,-0.5 2,0.375 1,-0.25 0.5,0.25 0.375,-0.09375 z m 0,56.531253 -0.28125,-0.0625 q -0.71875,0.375 -1.5,0.375 -0.6875,-0.375 -1.375,-0.375 l -3.875,0.625 -1.875,-0.5 -2,0.25 -1.5,-0.25 -0.875,0.125 -0.125,-0.125 h -0.125 l -0.5,0.125 -0.375,-0.125 -0.375,0.125 -3.75,-0.375 -1.125,0.125 h -0.5 l -0.125,0.125 -0.125,-0.125 h -1.25 l -1.5,0.375 -1.75,-0.5 -1.125,0.125 h -0.125 l -1.75,-0.375 -1.125,0.375 h -1.25 l -1.375,0.25 -1.625,-0.25 h -0.5 l -0.75,0.125 -0.625,-0.125 h -0.25 l -0.125,0.125 -0.125,-0.125 h -0.5 l -2.125,0.5 q -3.75,-0.15625 -3.75,-0.625 l -0.5,0.25 -0.125,-0.125 h -0.125 q -0.21875,0.25 -2.625,0.375 -1,-0.125 -1,-1 v -0.500003 l 0.25,-0.375 v -0.375 l -0.25,-1 v -0.25 l 0.25,-0.25 h 0.875 q 1.25,-0.03125 1.25,-0.25 l 1,0.125 2.375,-0.125 2.5,0.5 1.75,-0.5 1.875,0.25 0.125,-0.125 h 0.125 l 1,0.375 2.125,-0.375 0.875,0.25 0.125,-0.125 h 0.125 l 0.875,0.25 2.625,-0.5 0.875,0.375 h 1.375 q 1.375,-0.1875 1.375,-0.5 1.125,0.125 1.125,0.375 1.25,-0.125 1.5,-0.375 2.625,0.125 2.625,0.375 l 0.375,-0.25 0.75,0.25 h 0.375 l 0.375,-0.25 h 0.625 l 1.375,-0.125 0.125,0.125 h 0.125 l 1.125,-0.125 h 1 l 2.125,0.5 q 1.75,-0.125 1.75,-0.75 l 0.75,0.25 0.375,-0.125 0.75,0.25 0.75,-0.125 q 1.28125,0.15625 1.5,0.375 h 2.625 l 0.78125,-0.15625 z"
         style="font-style:normal;font-variant:normal;font-weight:normal;font-stretch:normal;font-size:64px;font-family:'Top Secret';-inkscape-font-specification:'Top Secret';fill:#ffffff"
         id="path741"
         inkscape:connector-curvature="0" />
      <path
         d="m 281.73437,48.655617 2.34375,0.28125 2.03125,-0.28125 q 2.875,0 3.21875,3.8125 l -2.90625,1.75 v 0.5625 q 0,2.75 -1.75,4.40625 0,5.84375 -2.0625,5.84375 h -0.875 q -1.0625,0 -1.75,-4.09375 l 0.28125,-0.3125 v -0.28125 l -0.28125,-1.75 0.28125,-4.09375 -0.28125,-0.28125 v -0.3125 l 0.28125,-0.875 q -0.65625,0 -1.15625,-3.5 0,-0.875 2.625,-0.875 z m 26.28125,-4.1875 q -0.0937,0.03125 -0.15625,0.03125 -2.40625,-0.125 -2.625,-0.375 h -0.125 l -0.125,0.125 -0.5,-0.25 q 0,0.46875 -3.75,0.625 l -2.125,-0.5 h -0.5 l -0.125,0.125 -0.125,-0.125 h -0.25 l -0.625,0.125 -0.75,-0.125 h -0.5 l -1.625,0.25 -1.375,-0.25 h -1.25 l -1.125,-0.375 -1.75,0.375 h -0.125 l -1.125,-0.125 -1.75,0.5 -1.5,-0.375 h -1.25 l -0.125,0.125 -0.125,-0.125 h -0.5 l -1.125,-0.125 -2.71875,0.28125 v -3.75 l 0.34375,0.21875 h 0.375 l 0.75,-0.25 0.375,0.25 q 0,-0.25 2.625,-0.375 0.25,0.25 1.5,0.375 0,-0.25 1.125,-0.375 0,0.3125 1.375,0.5 h 1.375 l 0.875,-0.375 2.625,0.5 0.875,-0.25 h 0.125 l 0.125,0.125 0.875,-0.25 2.125,0.375 1,-0.375 h 0.125 l 0.125,0.125 1.875,-0.25 1.75,0.5 2.5,-0.5 2.375,0.125 1,-0.125 q 0,0.21875 1.25,0.25 h 0.0625 l 0.21875,-0.375 q 1.4375,0 2.5,0.375 1.4375,0 1.875,-0.5 h 0.625 l 2.125,0.375 h 0.375 l 1.375,-0.375 q 2.65625,0.40625 3.125,0.75 h 0.5 q 0.625,0 0.75,-0.375 h 0.125 l 0.125,0.125 h 0.5 v 3.75 h -0.125 l -0.75,-0.125 -0.875,0.25 q -1.65625,-0.25 -2,-0.5 h -0.125 l -0.125,0.125 -2.75,-0.25 q -1.59375,0 -2,0.5 h -0.25 l -0.5,-0.375 -0.75,0.25 -0.125,-0.125 h -0.375 q -0.78125,0.25 -3,0.375 z m -0.3125,56.843753 h -0.125 l -1.125,0.25 q 0,-0.25 -0.375,-0.25 l -1,0.125 v -0.125 q -1.15625,0.15625 -1.625,0.5 -1.21875,-0.25 -1.75,-0.75 l -0.5,0.125 -0.375,-0.125 -1,0.125 -0.125,-0.125 -0.625,0.125 h -0.375 l -1.75,-0.125 -0.125,0.125 h -0.125 l -0.75,-0.25 -2.25,0.375 h -0.375 l -1,-0.25 h -0.625 q -0.90625,0 -2.25,0.375 l -0.375,-0.125 -1.75,0.125 h -0.5 l -2,-0.5 q -2.21875,0.625 -3,0.625 0,-0.375 -0.5,-0.375 l -0.75,0.125 -1,-0.125 -0.125,0.125 -0.125,-0.125 h -0.125 q -0.46875,0 -0.9375,0.0312 v -3.718753 l 0.6875,0.1875 0.5,-0.125 0.375,0.125 0.75,-0.375 2,0.375 2.5,-0.125 q 1.625,0 2.625,0.375 1.28125,-0.875 1.75,-0.875 h 0.375 l 2.375,0.5 h 1.75 l 0.875,-0.25 2.125,0.25 q 0.59375,0 1.875,-0.625 0.625,0 1.75,0.875 h 0.25 l 0.375,-0.375 h 0.125 v 0.25 h 0.125 q 0.5,-0.5 0.875,-0.5 l 1,0.125 0.125,-0.125 q 0.125,0.375 0.75,0.375 1.875,-0.03125 1.875,-0.25 l 1.375,0.375 0.75,-0.125 h 0.1875 q 0.21875,-0.03125 0.5,-0.03125 l 1.875,0.5 h 0.5 l 2.25,0.25 1.375,-0.25 0.75,0.125 3.75,-0.625 h 0.625 q 0.25,0.34375 2,0.46875 v 3.625003 l -1.5,-0.46875 -2.625,0.75 -3.5,-0.375 q -0.125,0.375 -0.75,0.375 h -0.5 q -0.65625,0 -1.125,-0.375 l -2.625,0.375 q -1.4375,0 -1.6875,-0.59375 z m 3.5625,-52.375003 h 4.375 q 1.46875,2.8125 1.46875,6.15625 -0.875,1.53125 -0.875,4.09375 l 0.59375,1.15625 -1.1875,4.6875 h -1.46875 q -0.875,0 -1.4375,-3.21875 l 0.5625,-0.59375 q 0,-5.34375 -2.625,-6.71875 0,-1.75 -2.03125,-1.75 l -0.3125,-0.28125 v -0.3125 l 0.59375,-1.15625 -0.28125,-1.46875 z m -11.125,0 1.1875,0.3125 1.46875,-0.3125 q 1.4375,0 2.90625,1.46875 l -0.28125,5.5625 0.28125,2.625 -0.59375,1.46875 0.875,5.25 q -0.65625,0 -0.875,2.0625 l 0.3125,0.875 -0.59375,1.75 v 0.28125 l 0.28125,0.875 -0.5625,6.15625 q 0.6875,0.90625 1.15625,6.40625 l -0.28125,1.1875 0.28125,0.875 -0.59375,0.59375 v 1.4375 q 0.3125,0.9375 3.21875,1.75 l 0.3125,1.46875 v 0.59375 q -0.78125,0 -1.46875,1.46875 h -0.875 l -1.75,-0.3125 q -1.3125,0.59375 -3.8125,0.59375 l -1.75,-0.59375 v 0.3125 l -0.28125,-0.3125 h -0.59375 l -2.34375,0.59375 q -1.40625,0 -3.5,-1.46875 l -2.9375,0.875 q 0,-0.71875 -1.15625,-0.875 v -0.5625 q 0.875,0 0.875,-1.46875 1.375,0 2.03125,-3.8125 l 0.3125,-0.28125 v -2.625 q 0,-6.0625 1.15625,-6.71875 v -0.3125 q -0.5625,-3.6875 -1.75,-4.375 v -0.28125 q 0.875,-1.09375 0.875,-2.0625 v -2.03125 l -0.59375,-4.6875 v -0.28125 q 0,-2.03125 1.78125,-4.40625 0,-4.4375 -0.875,-8.1875 h 0.28125 l 5.5625,0.3125 q 0,-0.78125 2.3125,-1.1875 z"
         style="font-style:normal;font-variant:normal;font-weight:normal;font-stretch:normal;font-size:64px;font-family:'Top Secret';-inkscape-font-specification:'Top Secret';fill:#ffffff"
         id="path743"
         inkscape:connector-curvature="0" />
      <path
         d="m 334.01562,48.655617 q 2.8125,0.5625 2.8125,1.125 v 0.84375 q 0,2.125 -3.375,3.125 l -1.15625,3.40625 q 1.625,4.25 3.40625,4.25 0.21875,0.8125 5.96875,2.25 4.375,3.96875 6.78125,3.96875 0,0.5 2.84375,2.84375 v 1.96875 q 0.84375,0 0.84375,0.5625 l -0.28125,1.15625 q 1.125,1.53125 1.125,5.09375 -0.65625,0 -1.125,5.09375 -2.875,3.0625 -5.375,7.09375 -6.4375,1.96875 -8.78125,1.96875 h -0.28125 q -0.59375,0 -0.875,-1.6875 0.5,-2.84375 2.5625,-2.84375 2.8125,0 3.125,-2.5625 v -2.53125 q -1.34375,-5.375 -7.09375,-5.375 -0.28125,-0.90625 -4.8125,-2.28125 0,-0.84375 -4.53125,-2.53125 -1.53125,-3.96875 -2.25,-3.96875 v -1.4375 l -2.28125,-3.09375 1.40625,-2.84375 -0.84375,-2.84375 0.84375,-0.28125 v -1.40625 q 3.75,-5.96875 6.25,-7.09375 l 0.28125,0.3125 h 0.28125 q 0.84375,0 4.53125,-2.28125 z m 16.4375,0 h 0.28125 q 0.28125,1.96875 0.84375,1.96875 l -0.28125,1.4375 0.28125,1.6875 -0.84375,3.125 v 0.28125 l 1.125,3.125 v 0.84375 q 0,1.34375 -1.71875,2.8125 h -1.40625 v -2.8125 q -3.375,-5.4375 -4.25,-5.96875 -4.71875,-2.3125 -5.375,-3.09375 v -0.5625 q 0,-2.28125 1.125,-2.28125 5.53125,0.78125 6.53125,1.71875 h 1.125 q 0,-1.84375 2.5625,-2.28125 z m -27.5,27.75 h 0.875 q 1.125,0.3125 2.25,3.125 v 0.28125 l -0.28125,1.40625 q 1.84375,1.5625 3.125,5.96875 v 0.28125 h 1.40625 l 4.53125,3.375 v 1.4375 q 0,0.84375 -3.125,0.84375 -0.15625,-0.6875 -1.96875,-1.40625 l -0.28125,0.28125 h -0.28125 q -1.71875,-0.6875 -1.71875,-1.15625 -1.875,0 -3.375,2.28125 h -0.875 l -0.84375,-1.40625 0.28125,-1.4375 -0.5625,-0.5625 v -1.96875 l -0.5625,-1.71875 0.5625,-2.25 v -2 l -0.28125,-1.125 q 0.375,-4.25 1.125,-4.25 z m 33.59375,-32.125 -1.03125,0.09375 -0.375,-0.125 -0.375,0.125 -0.5,-0.125 h -0.125 l -0.125,0.125 -0.875,-0.125 -1.5,0.25 -2,-0.25 -1.875,0.5 -3.875,-0.625 q -0.6875,0 -1.375,0.375 -0.78125,0 -1.5,-0.375 l -2,0.375 -2.875,-0.25 v 0.125 h -0.25 l -0.375,-0.25 -1,0.25 h -0.625 l -0.75,-0.25 -2.125,0.25 -1.75,-0.375 -1,0.125 -1.375,-0.125 -1.5,0.375 -0.5,-0.125 -4,0.34375 v -3.9375 l 0.125,-0.03125 h 0.125 l 0.25,0.25 q 1.6875,0 2.375,-0.625 l 0.5,0.125 0.625,-0.125 q 0,0.25 1.625,0.375 l 0.375,-0.125 1.625,0.375 1,-0.375 h 1 l 0.5,-0.125 q 1.875,0.15625 1.875,0.5 l 2.625,-0.375 2.25,0.125 2,-0.25 1.75,0.375 h 2.625 q 0.21875,-0.21875 1.5,-0.375 l 0.75,0.125 0.75,-0.25 0.375,0.125 0.75,-0.25 q 0,0.625 1.75,0.75 l 2.125,-0.5 h 1 l 1.125,0.125 h 0.125 l 0.125,-0.125 1.375,0.125 h 0.625 l 0.0312,0.03125 z m 0,56.937503 q -1.84375,0.0625 -3.9375,0.46875 l -1.375,-0.5 -1.625,0.25 -1,-0.125 -0.75,0.25 h -0.5 q -0.59375,0 -1.25,-0.375 l -1.125,0.125 q 0,-0.15625 -1.25,-0.5 -0.65625,0.15625 -1,0.625 l -0.5,0.125 -0.875,-0.125 -0.125,0.125 -4.5,-0.375 -0.5,0.125 -1.5,-0.375 -1.375,0.125 -1,-0.125 -1.75,0.375 -2.125,-0.25 -0.75,0.25 h -0.625 l -1,-0.25 -0.375,0.25 h -0.25 v -0.125 l -2.875,0.25 -1.71875,-0.3125 v -3.593753 l 0.96875,-0.21875 2,0.25 2.25,-0.125 2.625,0.375 q 0,-0.34375 1.875,-0.5 l 0.5,0.125 h 1 l 1,0.375 1.625,-0.375 0.375,0.125 q 1.625,-0.125 1.625,-0.375 l 0.625,0.125 0.5,-0.125 q 0.6875,0.625 2.375,0.625 l 0.25,-0.25 h 0.125 l 0.5,0.125 0.5,-0.25 1,0.25 2,-0.375 0.875,0.5 0.75,-0.25 0.125,0.125 h 0.125 l 1.25,-0.125 1.125,0.375 q 0.75,-0.5 2.25,-0.5 l 1.125,0.25 q 0.875,0 1.375,-0.25 l 1.375,0.125 h 1.125 l 0.125,-0.125 0.3125,0.0625 z"
         style="font-style:normal;font-variant:normal;font-weight:normal;font-stretch:normal;font-size:64px;font-family:'Top Secret';-inkscape-font-specification:'Top Secret';fill:#ffffff"
         id="path745"
         inkscape:connector-curvature="0" />
      <path
         d="m 357.51562,40.718117 q 0.53125,-0.40625 1.6875,-0.46875 v 0.125 q 1.625,0.125 1.625,0.5 v 0.125 l -0.125,0.75 0.375,1.375 q -0.21875,0 -0.25,1.875 0,0.625 0.375,0.75 l -0.125,0.125 0.125,1 q 0,0.375 -0.5,0.875 v 0.125 h 0.25 v 0.125 l -0.375,0.375 v 0.25 q 0.875,1.125 0.875,1.75 -0.625,1.28125 -0.625,1.875 l 0.25,2.125 -0.25,0.875 v 1.75 l 0.5,2.375 v 0.375 q 0,0.46875 -0.875,1.75 0.375,1 0.375,2.625 l -0.125,2.5 0.375,2 -0.375,0.75 0.125,0.375 -0.125,0.5 0.25,1 -0.125,0.125 v 1.125 l 0.125,1.375 q -0.25,0.5 -0.25,1.375 l 0.25,1.125 q 0,1.5 -0.5,2.25 l 0.375,1.125 -0.125,1.25 v 0.125 l 0.125,0.125 -0.25,0.75 0.5,0.875 -0.375,2 0.25,1 -0.25,0.5 0.125,0.5 v 0.125 l -0.25,0.25 q 0,1.6875 0.625,2.375 l -0.125,0.5 0.125,0.625 q -0.25,0 -0.375,1.625 l 0.125,0.375 -0.375,1.625 0.375,1 v 1 l 0.125,0.5 q -0.15625,1.875 -0.5,1.875 l 0.34375,2.406253 -2.1875,0.125 v 0.3125 q -0.875,0.0937 -2.34375,0.15625 l -2.125,-0.5 h -0.5 l -0.125,0.125 -0.125,-0.125 -0.0625,-3.468753 1.0625,-0.15625 1.75,0.5 0.9375,-0.1875 -0.125,-1.0625 0.375,-1.75 -0.125,-1 0.125,-1.375 -0.375,-1.5 0.125,-0.5 -0.375,-4.5 0.125,-0.125 -0.125,-0.875 0.125,-0.5 q 0.46875,-0.34375 0.625,-1 -0.34375,-1.25 -0.5,-1.25 l 0.125,-1.125 q -0.375,-0.65625 -0.375,-1.25 v -0.5 l 0.25,-0.75 -0.125,-1 0.25,-1.625 -0.5,-1.375 q 0.5,-2.625 0.5,-4.875 v -0.125 l -0.125,-0.125 0.125,-0.125 -0.125,-1 0.125,-0.75 q 0,-0.5 -0.375,-0.5 0,-0.78125 0.625,-3 l -0.5,-2 v -0.5 l 0.125,-1.75 -0.125,-0.375 q 0.375,-1.34375 0.375,-2.25 v -0.625 l -0.25,-1 v -0.375 l 0.375,-2.25 -0.25,-0.75 v -0.125 l 0.125,-0.125 -0.125,-1.75 v -0.375 l 0.125,-0.625 -0.125,-0.125 0.125,-1 -0.125,-0.375 0.125,-0.5 q -0.5,-0.53125 -0.75,-1.75 0.3125,-0.40625 0.46875,-1.34375 -1.28125,-0.09375 -1.4375,-0.28125 h -0.125 l -0.125,0.125 -0.5,-0.25 q 0,0.28125 -1.40625,0.46875 v -3.96875 h 0.0312 l 2.375,0.125 1,-0.125 q 0,0.15625 0.65625,0.21875 z"
         style="font-style:normal;font-variant:normal;font-weight:normal;font-stretch:normal;font-size:64px;font-family:'Top Secret';-inkscape-font-specification:'Top Secret';fill:#ffffff"
         id="path747"
         inkscape:connector-curvature="0" />
    </g>
  </g>
</svg>
