<?xml version="1.0" encoding="UTF-8" standalone="no"?>
<svg
   xmlns:dc="http://purl.org/dc/elements/1.1/"
   xmlns:cc="http://creativecommons.org/ns#"
   xmlns:rdf="http://www.w3.org/1999/02/22-rdf-syntax-ns#"
   xmlns:svg="http://www.w3.org/2000/svg"
   xmlns="http://www.w3.org/2000/svg"
   xmlns:sodipodi="http://sodipodi.sourceforge.net/DTD/sodipodi-0.dtd"
   xmlns:inkscape="http://www.inkscape.org/namespaces/inkscape"
   width="500"
   height="200"
   viewBox="0 0 500 200"
   version="1.1"
   id="svg147"
   sodipodi:docname="psp.svg"
   style="fill:none"
   inkscape:version="0.92.5 (2060ec1f9f, 2020-04-08)">
  <metadata
     id="metadata153">
    <rdf:RDF>
      <cc:Work
         rdf:about="">
        <dc:format>image/svg+xml</dc:format>
        <dc:type
           rdf:resource="http://purl.org/dc/dcmitype/StillImage" />
        <dc:title></dc:title>
      </cc:Work>
    </rdf:RDF>
  </metadata>
  <defs
     id="defs151" />
  <sodipodi:namedview
     pagecolor="#ffffff"
     bordercolor="#666666"
     borderopacity="1"
     objecttolerance="10"
     gridtolerance="10"
     guidetolerance="10"
     inkscape:pageopacity="0"
     inkscape:pageshadow="2"
     inkscape:window-width="1366"
     inkscape:window-height="740"
     id="namedview149"
     showgrid="false"
     inkscape:pagecheckerboard="true"
     inkscape:zoom="1.2092391"
     inkscape:cx="241.5"
     inkscape:cy="74"
     inkscape:window-x="0"
     inkscape:window-y="0"
     inkscape:window-maximized="1"
     inkscape:current-layer="svg147" />
  <path
     d="m 0,133.131 v 23.961 H 2.24653 V 146.51 h 5.11291 c 4.41566,0 9.21866,-1.332 9.21866,-6.685 0,-3.595 -1.6268,-6.694 -7.82424,-6.694 z m 14.2541,6.531 c 0,4.051 -2.5564,4.919 -6.81715,4.919 H 2.24653 v -9.521 h 5.88758 c 4.26069,0 6.11999,1.604 6.11999,4.602 z"
     id="path97"
     inkscape:connector-curvature="0"
     style="clip-rule:evenodd;fill:#ffffff;fill-rule:evenodd" />
  <path
     d="m 19.5991,157.092 h 1.9367 v -23.961 h -1.9367 z"
     id="path99"
     inkscape:connector-curvature="0"
     style="fill:#ffffff" />
  <path
     d="m 37.0294,146.471 c -0.6197,0.302 -1.8592,0.504 -2.6339,0.574 l -2.7114,0.364 c -4.0283,0.534 -6.0425,2.3 -6.0425,5.19 0,3.323 2.7114,4.958 5.7326,4.958 2.479,0 4.8031,-0.999 6.4299,-2.866 0,1.2 0.2324,2.37 1.6268,2.564 0.3099,0.07 0.5423,0.101 0.8521,0.101 0.6198,0 1.3171,-0.233 1.5494,-0.334 v -1.564 c -1.6268,0.596 -2.0916,0.232 -2.0916,-1.333 v -9.381 c 0,-3.99 -2.7114,-5.361 -6.1974,-5.361 -3.796,0 -6.8172,1.635 -7.1271,5.694 h 2.0142 c 0.3873,-2.99 2.324,-3.889 5.0354,-3.889 3.0987,0 4.3382,1.464 4.3382,3.494 0,0.596 -0.0775,1.495 -0.7747,1.789 z m -4.4157,2.534 c 1.7043,-0.132 3.4861,-0.272 5.1904,-0.969 v 2.696 c 0,3.494 -3.1762,5.028 -6.3524,5.028 -1.8592,0 -3.7184,-0.992 -3.7184,-3.099 0,-2.324 1.8592,-3.424 4.8804,-3.656 z"
     id="path101"
     inkscape:connector-curvature="0"
     style="clip-rule:evenodd;fill:#ffffff;fill-rule:evenodd" />
  <path
     d="m 44.6989,161.779 c 0.5423,0.101 1.0845,0.209 1.6268,0.209 2.3241,0 2.6339,-3.269 3.4086,-4.764 l -6.7397,-17.368 h 2.2466 l 5.5777,14.811 5.5002,-14.811 h 2.1691 l -6.4299,17.004 c -1.6268,4.323 -2.7113,7.018 -5.5002,7.018 -0.6972,0 -1.3169,-0.1 -1.8592,-0.232 v -1.867"
     id="path103"
     inkscape:connector-curvature="0"
     style="fill:#ffffff" />
  <path
     d="m 63.2138,149.934 c 0.3873,4.292 3.1763,5.857 6.8947,5.857 4.2607,0 6.0425,-2.324 6.0425,-4.958 0,-7.422 -14.564,-2.495 -14.564,-11.907 0,-3.331 2.7114,-6.422 8.1341,-6.422 5.3453,0 8.0567,3.254 7.9792,7.158 h -2.0916 c 0,-3.664 -2.8663,-5.229 -5.8876,-5.229 -4.6481,0 -6.2748,2.827 -5.8875,5.291 1.0071,6.182 14.6414,1.727 14.6414,11.008 0,4.4 -3.2537,6.988 -8.7539,6.988 -5.0354,0 -8.7538,-2.588 -8.7538,-7.786 h 2.2465"
     id="path105"
     inkscape:connector-curvature="0"
     style="fill:#ffffff" />
  <path
     d="m 88.8555,157.154 c -0.4649,0.101 -1.317,0.403 -2.3241,0.403 -1.9367,0 -3.0212,-0.868 -3.0212,-3.432 v -12.612 h -2.479 v -1.657 h 2.479 v -4.796 h 2.0141 v 4.796 h 3.1762 v 1.657 h -3.1762 v 11.814 c 0,1.705 0,2.433 1.7044,2.433 0.5422,0 1.0845,-0.101 1.6268,-0.233 v 1.627"
     id="path107"
     inkscape:connector-curvature="0"
     style="fill:#ffffff" />
  <path
     d="m 103.11,146.471 c -0.697,0.302 -1.937,0.504 -2.634,0.574 l -2.789,0.364 c -4.0283,0.534 -6.0425,2.3 -6.0425,5.19 0,3.323 2.7889,4.958 5.8101,4.958 2.479,0 4.7254,-0.999 6.4294,-2.866 0,1.2 0.233,2.37 1.55,2.564 0.31,0.07 0.62,0.101 0.929,0.101 0.526,0 1.198,-0.219 1.521,-0.324 0.01,-0.003 0.019,-0.007 0.029,-0.01 v -1.564 c -1.705,0.596 -2.092,0.232 -2.092,-1.333 v -9.381 c 0,-3.99 -2.789,-5.361 -6.2747,-5.361 -3.7185,0 -6.7398,1.635 -7.0497,5.694 h 2.0142 c 0.3873,-2.99 2.2466,-3.889 5.0355,-3.889 3.0987,0 4.2607,1.464 4.2607,3.494 0,0.596 -0.078,1.495 -0.697,1.789 z m -4.416,2.534 c 1.704,-0.132 3.409,-0.272 5.113,-0.969 v 2.696 c 0,3.494 -3.099,5.028 -6.2749,5.028 -1.8593,0 -3.7185,-0.992 -3.7185,-3.099 0,-2.324 1.8592,-3.424 4.8804,-3.656 z"
     id="path109"
     inkscape:connector-curvature="0"
     style="clip-rule:evenodd;fill:#ffffff;fill-rule:evenodd" />
  <path
     d="m 117.596,157.154 c -0.464,0.101 -1.317,0.403 -2.324,0.403 -1.936,0 -3.021,-0.868 -3.021,-3.432 v -12.612 h -2.401 v -1.657 h 2.401 v -4.796 h 2.014 v 4.796 h 3.176 v 1.657 h -3.176 v 11.814 c 0,1.705 0,2.433 1.705,2.433 0.542,0 1.084,-0.101 1.626,-0.233 v 1.627"
     id="path111"
     inkscape:connector-curvature="0"
     style="fill:#ffffff" />
  <path
     d="m 121.47,133.131 v 2.96 h 2.246 v -2.96 z m 0.155,23.961 h 1.936 v -17.236 h -1.936 z"
     id="path113"
     inkscape:connector-curvature="0"
     style="clip-rule:evenodd;fill:#ffffff;fill-rule:evenodd" />
  <path
     d="m 135.336,139.383 c -5.268,0 -7.979,4.067 -7.979,9.087 0,6.027 3.641,9.017 7.979,9.087 4.881,0 8.057,-3.625 8.057,-9.087 0,-5.059 -2.634,-9.087 -8.057,-9.087 z m -5.81,9.087 c 0,-3.726 1.627,-7.282 5.81,-7.282 4.261,0 5.888,3.223 5.888,7.282 0,3.695 -1.705,7.29 -5.888,7.29 -3.796,0 -5.81,-2.998 -5.81,-7.29 z"
     id="path115"
     inkscape:connector-curvature="0"
     style="clip-rule:evenodd;fill:#ffffff;fill-rule:evenodd" />
  <path
     d="m 148.196,157.092 h -2.014 v -17.236 h 2.014 v 2.393 c 1.549,-1.696 3.176,-2.866 5.5,-2.866 2.169,0 4.028,0.666 5.268,2.463 0.852,1.24 0.929,2.534 0.929,3.959 v 11.287 h -2.014 v -11.248 c 0,-3.091 -1.317,-4.656 -4.493,-4.656 -2.479,0 -4.183,1.596 -4.803,3.354 -0.387,1.1 -0.387,2.069 -0.387,3.27 v 9.28"
     id="path117"
     inkscape:connector-curvature="0"
     style="fill:#ffffff" />
  <path
     d="m 166.943,157.092 c 1.085,0 2.092,-0.403 2.867,-1.193 0.774,-0.79 1.162,-1.751 1.162,-2.874 0,-1.115 -0.388,-2.076 -1.162,-2.851 -0.775,-0.798 -1.782,-1.185 -2.867,-1.185 -1.084,0 -2.091,0.387 -2.866,1.185 -0.775,0.783 -1.162,1.743 -1.162,2.851 0,1.123 0.387,2.084 1.162,2.874 0.775,0.79 1.782,1.193 2.866,1.193 z m -2.479,-6.538 c -0.697,0.682 -1.007,1.511 -1.007,2.471 0,0.984 0.31,1.813 1.007,2.495 0.698,0.689 1.472,1.03 2.479,1.03 1.007,0 1.782,-0.341 2.479,-1.03 0.698,-0.682 1.007,-1.511 1.007,-2.495 0,-0.96 -0.309,-1.789 -1.007,-2.471 -0.697,-0.682 -1.472,-1.023 -2.479,-1.023 -1.007,0 -1.781,0.341 -2.479,1.023 z m 3.641,0.387 c -0.31,-0.108 -0.697,-0.155 -1.239,-0.155 h -1.549 v 4.462 h 0.774 v -1.774 h 0.62 c 0.387,0 0.697,0.047 0.852,0.148 0.232,0.162 0.387,0.503 0.387,1.03 v 0.356 l 0.078,0.14 v 0.062 0.038 h 0.697 v -0.054 -0.24 c -0.077,-0.108 -0.077,-0.225 -0.077,-0.333 v -0.325 c 0,-0.225 -0.078,-0.457 -0.233,-0.698 -0.155,-0.232 -0.387,-0.387 -0.697,-0.441 0.232,-0.047 0.465,-0.116 0.62,-0.217 0.31,-0.186 0.387,-0.473 0.387,-0.868 0,-0.565 -0.155,-0.937 -0.62,-1.131 z m -1.394,0.388 c 0.465,0 0.775,0.054 1.007,0.162 0.155,0.109 0.31,0.326 0.31,0.643 0,0.341 -0.155,0.573 -0.465,0.697 -0.155,0.062 -0.465,0.093 -0.775,0.093 h -0.697 v -1.595 z"
     id="path119"
     inkscape:connector-curvature="0"
     style="clip-rule:evenodd;fill:#ffffff;fill-rule:evenodd" />
  <path
     d="m 177.169,133.131 v 23.961 h 2.247 V 146.51 h 5.112 c 4.494,0 9.219,-1.332 9.219,-6.685 0,-3.595 -1.627,-6.694 -7.824,-6.694 z m 14.332,6.531 c 0,4.051 -2.634,4.919 -6.895,4.919 h -5.19 v -9.521 h 5.887 c 4.261,0 6.198,1.604 6.198,4.602 z"
     id="path121"
     inkscape:connector-curvature="0"
     style="clip-rule:evenodd;fill:#ffffff;fill-rule:evenodd" />
  <path
     d="m 202.656,139.383 c -5.345,0 -7.979,4.067 -7.979,9.087 0,6.027 3.563,9.017 7.979,9.087 4.803,0 7.979,-3.625 7.979,-9.087 0,-5.059 -2.556,-9.087 -7.979,-9.087 z m -5.888,9.087 c 0,-3.726 1.705,-7.282 5.888,-7.282 4.261,0 5.81,3.223 5.888,7.282 0,3.695 -1.705,7.29 -5.888,7.29 -3.796,0 -5.888,-2.998 -5.888,-7.29 z"
     id="path123"
     inkscape:connector-curvature="0"
     style="clip-rule:evenodd;fill:#ffffff;fill-rule:evenodd" />
  <path
     d="m 215.593,157.092 h -2.014 v -17.236 h 2.014 v 3.23 h 0.078 c 1.084,-2.766 2.711,-3.703 5.577,-3.703 v 2.169 c -4.493,-0.101 -5.655,3.223 -5.655,7.081 v 8.459"
     id="path125"
     inkscape:connector-curvature="0"
     style="fill:#ffffff" />
  <path
     d="m 232.404,157.154 c -0.465,0.101 -1.317,0.403 -2.247,0.403 -2.014,0 -3.099,-0.868 -3.099,-3.432 v -12.612 h -2.401 v -1.657 h 2.401 v -4.796 h 2.014 v 4.796 h 3.254 v 1.657 h -3.254 v 11.814 c 0,1.705 0.078,2.433 1.705,2.433 0.542,0 1.162,-0.101 1.627,-0.233 v 1.627"
     id="path127"
     inkscape:connector-curvature="0"
     style="fill:#ffffff" />
  <path
     d="m 246.038,146.471 c -0.697,0.302 -1.937,0.504 -2.634,0.574 l -2.789,0.364 c -4.028,0.534 -6.042,2.3 -6.042,5.19 0,3.323 2.789,4.958 5.81,4.958 2.479,0 4.725,-0.999 6.43,-2.866 0,1.2 0.232,2.37 1.549,2.564 0.31,0.07 0.62,0.101 0.93,0.101 0.526,0 1.198,-0.219 1.52,-0.324 0.01,-0.003 0.02,-0.007 0.029,-0.01 v -1.564 c -1.704,0.596 -2.092,0.232 -2.092,-1.333 v -9.381 c 0,-3.99 -2.788,-5.361 -6.274,-5.361 -3.719,0 -6.74,1.635 -7.05,5.694 h 2.014 c 0.387,-2.99 2.247,-3.889 5.036,-3.889 3.098,0 4.26,1.464 4.26,3.494 0,0.596 -0.077,1.495 -0.697,1.789 z m -4.416,2.534 c 1.705,-0.132 3.409,-0.272 5.113,-0.969 v 2.696 c 0,3.494 -3.098,5.028 -6.275,5.028 -1.859,0 -3.718,-0.992 -3.718,-3.099 0,-2.324 1.859,-3.424 4.88,-3.656 z"
     id="path129"
     inkscape:connector-curvature="0"
     style="clip-rule:evenodd;fill:#ffffff;fill-rule:evenodd" />
  <path
     d="m 254.714,157.092 h 2.015 v -3.029 c 1.239,2.262 3.795,3.494 6.042,3.494 5.578,0 7.747,-3.966 7.747,-9.048 0,-4.826 -2.402,-9.126 -7.67,-9.126 -2.401,0 -4.88,1.139 -6.119,3.23 v -9.482 h -2.015 z m 13.712,-8.087 c -0.077,4.322 -2.556,6.755 -5.887,6.755 -3.796,0 -5.81,-3.192 -5.81,-7.36 0,-3.889 2.169,-7.212 5.81,-7.212 4.105,0 6.042,3.494 5.887,7.817 z"
     id="path131"
     inkscape:connector-curvature="0"
     style="clip-rule:evenodd;fill:#ffffff;fill-rule:evenodd" />
  <path
     d="m 274.934,157.092 h 2.014 v -23.961 h -2.014 z"
     id="path133"
     inkscape:connector-curvature="0"
     style="fill:#ffffff" />
  <path
     d="m 288.878,155.76 c -3.796,0 -5.81,-3.099 -5.81,-6.817 h 13.402 c 0,-6.19 -2.867,-9.56 -7.592,-9.56 -4.958,0 -7.902,4.129 -7.902,9.157 0,5.089 2.402,9.017 7.902,9.017 4.415,0 6.43,-2.502 7.437,-5.756 h -2.247 c -0.542,2.526 -2.634,3.959 -5.19,3.959 z m 0,-14.572 c 3.563,0 5.423,2.727 5.423,6.081 h -11.233 c 0.387,-3.253 2.246,-6.081 5.81,-6.081 z"
     id="path135"
     inkscape:connector-curvature="0"
     style="clip-rule:evenodd;fill:#ffffff;fill-rule:evenodd" />
  <path
     d="M 0,36 H 141.146 V 77.8559 H 5.57772 v 36.2782 H 0 V 72.2782 H 135.569 V 41.57766 H 0 V 36"
     id="path137"
     inkscape:connector-curvature="0"
     style="fill:#ffffff" />
  <path
     d="m 317.463,77.8559 v 36.2782 h -5.577 V 72.2782 H 447.455 V 41.57766 H 311.886 V 36 H 453.032 V 77.8559 H 317.463"
     id="path139"
     inkscape:connector-curvature="0"
     style="fill:#ffffff" />
  <path
     d="m 213.114,36 v 72.5564 h -71.968 v 5.5777 h 77.856 V 41.57766 h 71.967 V 36 h -77.855"
     id="path141"
     inkscape:connector-curvature="0"
     style="fill:#ffffff" />
  <path
     d="m 467.828,105.8915 h -3.021 v -1.0536 h 7.282 v 1.0536 h -3.021 v 8.258 h -1.24 v -8.258"
     id="path143"
     inkscape:connector-curvature="0"
     style="fill:#ffffff" />
  <path
     d="m 477.047,114.1495 -2.556,-7.5608 v 7.5608 h -1.24 v -9.3116 h 1.705 l 2.634,7.9172 2.711,-7.9172 h 1.704 v 9.3116 h -1.239 v -7.5608 l -2.479,7.5608 h -1.24"
     id="path145"
     inkscape:connector-curvature="0"
     style="fill:#ffffff" />
</svg>
