<?xml version="1.0" encoding="UTF-8" standalone="no"?>
<!-- Created with Inkscape (http://www.inkscape.org/) -->

<svg
   xmlns:dc="http://purl.org/dc/elements/1.1/"
   xmlns:cc="http://creativecommons.org/ns#"
   xmlns:rdf="http://www.w3.org/1999/02/22-rdf-syntax-ns#"
   xmlns:svg="http://www.w3.org/2000/svg"
   xmlns="http://www.w3.org/2000/svg"
   xmlns:sodipodi="http://sodipodi.sourceforge.net/DTD/sodipodi-0.dtd"
   xmlns:inkscape="http://www.inkscape.org/namespaces/inkscape"
   width="449.5639"
   height="173.25742"
   viewBox="0 0 118.94711 45.841026"
   version="1.1"
   id="svg8"
   inkscape:version="0.92.5 (2060ec1f9f, 2020-04-08)"
   sodipodi:docname="quake.svg">
  <defs
     id="defs2" />
  <sodipodi:namedview
     id="base"
     pagecolor="#ffffff"
     bordercolor="#666666"
     borderopacity="1.0"
     inkscape:pageopacity="0.0"
     inkscape:pageshadow="2"
     inkscape:zoom="1.1340553"
     inkscape:cx="201.70233"
     inkscape:cy="112.72977"
     inkscape:document-units="mm"
     inkscape:current-layer="layer1"
     showgrid="false"
     units="px"
     inkscape:pagecheckerboard="true"
     inkscape:window-width="1366"
     inkscape:window-height="743"
     inkscape:window-x="0"
     inkscape:window-y="0"
     inkscape:window-maximized="1" />
  <metadata
     id="metadata5">
    <rdf:RDF>
      <cc:Work
         rdf:about="">
        <dc:format>image/svg+xml</dc:format>
        <dc:type
           rdf:resource="http://purl.org/dc/dcmitype/StillImage" />
        <dc:title />
      </cc:Work>
    </rdf:RDF>
  </metadata>
  <g
     inkscape:label="Layer 1"
     inkscape:groupmode="layer"
     id="layer1"
     transform="translate(-11.942539,-244.44089)">
    <flowRoot
       xml:space="preserve"
       id="flowRoot10"
       style="font-style:normal;font-weight:normal;font-size:40px;line-height:125%;font-family:sans-serif;letter-spacing:0px;word-spacing:0px;fill:#000000;fill-opacity:1;stroke:none;stroke-width:1px;stroke-linecap:butt;stroke-linejoin:miter;stroke-opacity:1"
       transform="matrix(0.26458333,0,0,0.26458333,0,244.08332)"><flowRegion
         id="flowRegion12"><rect
           id="rect14"
           width="92.963524"
           height="71.25631"
           x="49.549088"
           y="28.229828" /></flowRegion><flowPara
         id="flowPara16" /></flowRoot>    <g
       aria-label="Quake"
       style="font-style:normal;font-weight:normal;font-size:37.9785881px;line-height:125%;font-family:sans-serif;letter-spacing:0px;word-spacing:0px;fill:#ff6600;fill-opacity:1;stroke:#ff6701;stroke-width:0.34900001;stroke-linecap:butt;stroke-linejoin:miter;stroke-miterlimit:4;stroke-dasharray:none;stroke-opacity:1"
       id="text20"
       transform="matrix(1.0927249,0,0,1.0631476,-1.6487145,-15.427226)">
      <path
         d="m 34.298218,244.59684 q 3.304137,1.89893 5.203067,5.05116 1.898929,3.11424 1.898929,6.87412 0,5.5069 -3.569987,9.38071 -2.544566,2.73446 -5.620831,3.53201 -0.721593,0.18989 -2.658501,0.60766 v -3.9118 q 0,-0.79755 0.113935,-1.4052 0.227872,-1.21532 1.63308,-1.44319 0.03798,-0.076 -0.227872,-0.076 h -6.874124 q 0.113935,0 0.189893,0.076 1.177336,0.18989 1.443186,1.44319 0.03798,0.75957 0.03798,1.36722 v 3.94978 q -0.873507,-0.038 -2.506586,-0.60766 -3.152223,-0.75957 -5.734767,-3.68392 -2.506587,-2.81042 -3.152223,-6.07658 -0.303829,-1.55712 -0.303829,-3.15222 0,-4.36754 2.468609,-7.78561 1.822972,-2.50659 4.595409,-4.13967 -2.620523,0.94947 -4.709345,3.41808 -1.936908,2.24073 -2.886373,5.05115 -1.025422,2.96233 -1.025422,6.07657 0,7.44381 5.772746,12.22911 3.342115,2.77244 7.481781,3.1902 v 3.98775 q 0.189893,0.5317 2.088823,8.96295 0.569679,-4.02573 1.253293,-7.17796 0.341808,-1.5951 0.341808,-1.82297 v -3.91179 q 4.253601,-0.45574 7.671674,-3.26616 3.304138,-2.73446 4.823281,-6.83615 0.911486,-2.43063 0.911486,-5.35498 0,-3.34211 -1.177336,-6.53231 -2.278715,-6.0386 -7.481782,-8.01349 z"
         style="font-style:normal;font-variant:normal;font-weight:normal;font-stretch:normal;font-family:DpQuake;-inkscape-font-specification:DpQuake;fill:#ff6600;stroke:#ff6701;stroke-width:0.34900001;stroke-miterlimit:4;stroke-dasharray:none;stroke-opacity:1"
         id="path833"
         inkscape:connector-curvature="0" />
      <path
         d="m 46.603258,268.56133 q 0,2.27872 1.784994,4.13967 1.633079,1.70904 4.557431,1.78499 -2.316694,-0.11393 -3.532009,-2.50658 -0.303829,-0.83553 -0.303829,-2.01287 v -11.08975 q -0.151914,-1.29127 1.405208,-1.82297 h -5.165088 q 1.0634,0.30383 1.253293,1.78499 z m 14.241971,0 q 0,2.54457 -1.784994,4.10169 -0.835529,0.75957 -1.481165,1.10138 -1.253293,0.64564 -3.038287,0.68361 2.278716,-0.076 3.456052,-2.50658 0.341807,-0.64564 0.341807,-1.785 v -11.31762 q 0.151914,-1.29127 -1.367229,-1.74701 h 5.241045 q -1.177336,0.26585 -1.367229,1.74701 z"
         style="font-style:normal;font-variant:normal;font-weight:normal;font-stretch:normal;font-family:DpQuake;-inkscape-font-specification:DpQuake;fill:#ff6600;stroke:#ff6701;stroke-width:0.34900001;stroke-miterlimit:4;stroke-dasharray:none;stroke-opacity:1"
         id="path835"
         inkscape:connector-curvature="0" />
      <path
         d="m 77.859572,274.48599 h 5.013174 q -1.177336,-0.56968 -2.050844,-2.46861 -1.747015,-3.75988 -2.886372,-6.15253 -0.113936,-0.26585 -0.645636,-1.36723 h 0.03798 l -3.000308,-7.10199 -1.291272,3.30413 q -0.341808,0.79756 -1.405208,3.26616 -0.26585,0.68362 -1.822972,4.10169 -1.063401,2.27872 -1.747015,3.56999 -1.367229,2.43063 -2.316694,2.84839 h 3.418073 q -0.835529,-0.15191 -0.949465,-0.94946 l 0.113936,-0.75957 q 0.493721,-1.67106 1.215315,-2.92436 0.683614,-0.91148 2.468608,-0.91148 -1.367229,-0.076 -1.367229,-1.0634 0,-0.26585 0.151914,-0.64564 l 0.759572,-1.86095 q 0.189893,-0.5317 0.911486,-2.05084 0.759572,-1.51915 1.101379,-1.32925 0.417764,0.22787 1.177336,2.05084 0.417765,1.02542 1.291272,3.07627 0.151915,0.41776 0.151915,0.64563 0,0.7216 -1.101379,1.0634 l -0.379786,0.11394 q 0.07596,0 0.26585,0 0.721593,0.038 1.139357,0.11393 1.215315,0.37979 1.936908,2.16478 l 0.873508,2.08883 q 0.113936,1.10138 -1.063401,1.17733 z"
         style="font-style:normal;font-variant:normal;font-weight:normal;font-stretch:normal;font-family:DpQuake;-inkscape-font-specification:DpQuake;fill:#ff6600;stroke:#ff6701;stroke-width:0.34900001;stroke-miterlimit:4;stroke-dasharray:none;stroke-opacity:1"
         id="path837"
         inkscape:connector-curvature="0" />
      <path
         d="m 89.898729,272.81493 q 0,1.40521 1.215315,1.67106 h -4.785302 q 1.025421,-0.26585 1.177336,-1.67106 l 0.03798,-13.52037 q 0,-1.44319 -1.177336,-1.70904 h 4.785302 q -0.911486,0.18989 -1.215315,1.63308 v 4.7853 q 0,1.36723 1.784994,1.93691 -1.822972,0.37979 -1.822972,2.27872 z m 6.874124,-7.67167 q 3.076266,-3.98775 6.342427,-8.31731 l -9.798478,9.15284 h 0.03798 l -0.03798,0.038 h 0.07596 q 8.089438,3.00031 8.545178,9.11486 0.076,-0.60766 0.076,-1.21532 0,-4.02573 -2.278714,-6.60827 -1.291272,-1.48117 -2.96233,-2.16478 z"
         style="font-style:normal;font-variant:normal;font-weight:normal;font-stretch:normal;font-family:DpQuake;-inkscape-font-specification:DpQuake;fill:#ff6600;stroke:#ff6701;stroke-width:0.34900001;stroke-miterlimit:4;stroke-dasharray:none;stroke-opacity:1"
         id="path839"
         inkscape:connector-curvature="0" />
      <path
         d="m 110.48312,266.58645 q -0.56968,0.49372 -0.56968,1.32925 v 1.48116 q 0,0.60766 0.34181,2.62052 1.02542,2.35468 3.1902,2.46861 -2.1268,-0.076 -3.98775,-1.48116 -2.01287,-1.55712 -2.01287,-3.60797 v -10.1023 q -0.37979,-1.51915 -1.29127,-1.82298 h 5.01317 q -1.25329,0.30383 -1.25329,1.89893 v 4.82329 q 0,0.98744 0.5317,1.4052 0,0.22787 2.92435,0.34181 -1.93691,0.076 -2.88637,0.64564 z m 4.93721,7.9755 q 2.96233,-0.22787 5.69679,-5.58285 v 5.54487 q -0.41776,-0.56968 -1.29127,-0.56968 -0.5317,0 -1.97489,0.30383 -1.44318,0.30383 -2.43063,0.30383 z m -0.98744,-17.09037 h 5.77275 l 0.038,5.73477 q -0.49372,-4.63339 -5.81072,-5.73477 z"
         style="font-style:normal;font-variant:normal;font-weight:normal;font-stretch:normal;font-family:DpQuake;-inkscape-font-specification:DpQuake;fill:#ff6600;stroke:#ff6701;stroke-width:0.34900001;stroke-miterlimit:4;stroke-dasharray:none;stroke-opacity:1"
         id="path841"
         inkscape:connector-curvature="0" />
    </g>
  </g>
</svg>
