<?xml version="1.0" encoding="UTF-8" standalone="no"?>
<svg
   width="500"
   height="200"
   xml:space="preserve"
   version="1.1"
   id="svg8"
   sodipodi:docname="samcoupe.svg"
   inkscape:version="1.2.2 (b0a8486541, 2022-12-01)"
   xmlns:inkscape="http://www.inkscape.org/namespaces/inkscape"
   xmlns:sodipodi="http://sodipodi.sourceforge.net/DTD/sodipodi-0.dtd"
   xmlns="http://www.w3.org/2000/svg"
   xmlns:svg="http://www.w3.org/2000/svg"><defs
   id="defs12" /><sodipodi:namedview
   id="namedview10"
   pagecolor="#505050"
   bordercolor="#ffffff"
   borderopacity="1"
   inkscape:showpageshadow="0"
   inkscape:pageopacity="0"
   inkscape:pagecheckerboard="1"
   inkscape:deskcolor="#505050"
   showgrid="false"
   inkscape:zoom="1.1844621"
   inkscape:cx="318.28794"
   inkscape:cy="63.742015"
   inkscape:window-width="1670"
   inkscape:window-height="910"
   inkscape:window-x="0"
   inkscape:window-y="0"
   inkscape:window-maximized="1"
   inkscape:current-layer="svg8" />
    <path
   fill="#0849ff"
   d="m 57.80192,81.732621 c 0,-6.335365 -3.167228,-10.295537 -8.711469,-10.295537 -5.544241,0 -7.12831,3.960172 -7.12831,8.711468 0,4.752206 3.960173,8.712379 19.007916,15.840688 15.047744,7.12831 18.216792,16.63272 18.216792,28.51233 0,11.8796 -9.504413,30.88661 -30.888432,30.88661 -21.384019,0 -30.096398,-13.46367 -30.096398,-33.26453 h 19.007916 c 0,7.92034 3.960172,11.88051 10.296447,11.88051 6.335366,0 8.712379,-4.75129 8.712379,-8.71147 0,-3.95926 0.635448,-6.01764 -22.176053,-17.42475 -14.25662,-7.1274 -15.048655,-22.968092 -15.048655,-27.720299 0,-4.751296 2.376104,-19.799039 15.048655,-26.927349 12.67073,-7.12831 30.887522,-2.376104 38.014921,7.12831 7.12922,9.503502 4.752207,21.383108 4.752207,21.383108 z M 228.87498,50.844188 H 205.9069 V 107.86794 L 168.6831,50.052154 H 145.71501 V 110.24495 L 106.90623,50.844188 H 83.146111 l 0.792948,104.543992 h 26.135311 v -15.83887 h 22.96809 l 9.5035,15.04775 h 29.30437 v -50.6893 l 33.26453,51.48042 h 26.13532 v -51.48042 l 33.26453,50.6893 h 30.88844 z M 110.07437,118.95642 v -15.04866 l 10.29554,15.04775 H 110.07437 Z M 300.15535,153.80411 234.41923,50.844188 h 132.26428 l -30.88843,49.104314 c 0,0 -7.92034,-4.751296 -18.21679,11.088478 -10.29554,15.84069 -5.54333,22.17606 -4.75221,24.55216 -3.16631,5.54333 -12.67073,18.21497 -12.67073,18.21497 z"
   id="path2"
   style="stroke-width:0.910384" />
    <path
   fill="#c60000"
   d="m 458.78164,97.392143 c -3.29923,1.716074 -8.18436,0.660028 -9.10749,-4.751296 11.48268,-7.656333 14.51882,-12.012523 15.57577,-18.083876 1.05514,-6.071354 -4.3571,-6.336276 -9.90043,-2.904126 -5.54333,3.432149 -13.06675,12.275623 -13.33167,23.4952 -3.56324,5.148225 -7.2594,11.088485 -13.06675,10.824475 6.59847,-12.276538 7.91944,-18.214975 6.9954,-22.571165 -0.92313,-4.356189 -5.67534,-4.356189 -16.4989,11.879606 1.05514,-9.767514 5.1464,-18.478982 5.93935,-20.855086 0.79112,-2.376103 0.92313,-4.356189 -1.58589,-3.69616 -2.50538,0.660029 -5.80643,6.599376 -10.16171,17.422936 -4.35619,10.823561 -11.35249,20.458159 -13.46277,22.967179 -2.11209,2.50811 -5.67715,3.56324 -5.41314,-3.03704 0.26492,-6.59938 4.48819,-11.878699 5.41314,-14.781915 0.92404,-2.904126 -0.66093,-7.788338 -2.50901,-6.600287 -1.84808,1.188052 -7.78834,12.539635 -10.69156,17.554942 -2.90321,5.01622 -6.46737,9.63551 -7.78743,10.95557 -1.31914,1.31914 -3.96108,0.92404 -2.90412,-3.16723 1.05604,-4.09218 3.82725,-8.31545 5.14822,-10.42754 1.32006,-2.112095 4.09218,-6.467374 1.18805,-7.655426 -2.90412,-1.188052 -9.90043,2.508109 -12.27471,18.610986 -1.98009,4.09127 -4.48911,6.7323 -7.52433,7.78743 1.18805,-5.80825 2.63921,-20.06214 -3.03522,-17.29093 0.92404,-3.167228 -0.66185,-4.619291 -3.69707,-4.091268 -3.03613,0.528023 -15.57486,7.656338 -16.3678,23.626298 -2.77212,4.88421 -9.76752,11.08848 -13.46368,11.08848 -3.69525,0 -5.80734,-3.30105 -5.54333,-6.86339 0.26401,-3.56415 4.8833,-8.44836 7.1274,-9.5035 0.79295,1.98009 2.11118,1.84808 2.90413,1.84808 0.79203,0 3.29923,-2.90413 4.22327,-7.39232 0.92404,-4.4882 0.39693,-6.73138 -1.84717,-7.52433 -2.24319,-0.79112 -8.44746,3.16723 -12.14362,8.44837 -3.69616,5.27932 -10.03243,15.57394 -1.98008,24.68143 8.05235,9.10839 16.10288,-0.79113 21.91113,-11.61468 1.58316,5.93843 6.07135,8.44654 9.37059,8.44654 3.30014,0 8.58037,-4.09218 10.69155,-8.84256 3.16814,0.13109 7.65542,-3.96108 9.63551,-7.78834 -0.13201,4.22327 5.14822,8.18345 8.31727,7.52433 3.16723,-0.66185 7.25941,-8.58129 9.76752,-13.9917 0,6.9963 -0.39693,12.27562 4.6202,12.14362 5.0153,-0.13292 12.80273,-14.38772 21.38219,-30.095491 -3.96017,19.139011 -6.86338,25.871301 -7.52432,31.414631 -0.66003,5.54333 0.52802,13.72769 2.9023,13.72769 2.37702,0 4.49002,-11.7476 5.14914,-22.17514 5.01531,-1.45207 6.07226,-1.84717 6.99539,-1.84717 0.92586,0 4.35619,1.45297 9.50259,-2.2441 5.14914,-3.69616 8.18345,-8.44746 11.88052,-13.33167 2.77212,6.73229 7.52342,9.10749 15.31084,4.75221 7.78743,-4.356193 11.87961,-16.49981 12.53964,-19.535032 -4.48364,7.1274 -9.36968,11.74669 -12.66891,13.462765 z M 356.09119,121.54737 c -0.2631,5.14732 -3.82817,6.59938 -5.41132,6.59938 -1.58316,0 -4.48729,-0.2631 -4.48729,-5.28023 0,-5.0144 4.48729,-10.95466 9.23858,-15.57486 1.84808,-1.71516 -0.13291,2.77212 -0.66003,7.78743 -0.52893,5.01713 0.2631,7.12831 1.32006,6.46828 z m 62.43325,-14.65081 c 1.45207,-7.655427 7.12649,-16.102883 9.89952,-16.102883 2.7703,0 -0.79294,8.711468 -2.3761,11.879603 -1.58407,3.16723 -4.22418,3.43215 -7.52342,4.22328 z M 457.7265,75.085904 c 2.5072,-2.112092 3.56325,0.92404 1.05514,4.488195 -2.50629,3.563245 -8.05235,8.711469 -9.5035,9.239492 0.66094,-6.995394 5.93935,-11.615595 8.44836,-13.727687 z"
   id="path4"
   style="stroke-width:0.910384" />
    <path
   fill="#c60000"
   d="m 449.14613,68.222516 c 0.13201,-3.300143 1.84717,-7.787428 4.88421,-11.350673 3.03614,-3.565065 8.31454,-9.108395 10.29463,-9.372407 1.981,-0.264011 2.90504,1.716075 2.90504,4.884212 0,3.167228 0,4.223274 -2.24501,5.939348 -2.2441,1.716075 -9.63551,6.995394 -10.82265,8.183446 -1.18896,1.188051 -5.14822,5.279319 -5.01622,1.716074 z"
   id="path6"
   style="stroke-width:0.910384" />
</svg>
