<?xml version="1.0" encoding="UTF-8" standalone="no"?>
<svg
   xmlns:dc="http://purl.org/dc/elements/1.1/"
   xmlns:cc="http://creativecommons.org/ns#"
   xmlns:rdf="http://www.w3.org/1999/02/22-rdf-syntax-ns#"
   xmlns:svg="http://www.w3.org/2000/svg"
   xmlns="http://www.w3.org/2000/svg"
   xmlns:sodipodi="http://sodipodi.sourceforge.net/DTD/sodipodi-0.dtd"
   xmlns:inkscape="http://www.inkscape.org/namespaces/inkscape"
   width="500.11136"
   height="157.89238"
   viewBox="0 0 500.11136 157.89238"
   version="1.1"
   id="svg96"
   sodipodi:docname="satellaview.svg"
   style="fill:none"
   inkscape:version="0.92.5 (2060ec1f9f, 2020-04-08)">
  <metadata
     id="metadata102">
    <rdf:RDF>
      <cc:Work
         rdf:about="">
        <dc:format>image/svg+xml</dc:format>
        <dc:type
           rdf:resource="http://purl.org/dc/dcmitype/StillImage" />
        <dc:title />
      </cc:Work>
    </rdf:RDF>
  </metadata>
  <defs
     id="defs100" />
  <sodipodi:namedview
     pagecolor="#ffffff"
     bordercolor="#666666"
     borderopacity="1"
     objecttolerance="10"
     gridtolerance="10"
     guidetolerance="10"
     inkscape:pageopacity="0"
     inkscape:pageshadow="2"
     inkscape:window-width="1366"
     inkscape:window-height="740"
     id="namedview98"
     showgrid="false"
     inkscape:pagecheckerboard="true"
     inkscape:zoom="1.1468912"
     inkscape:cx="283.81118"
     inkscape:cy="63.476816"
     inkscape:window-x="0"
     inkscape:window-y="0"
     inkscape:window-maximized="1"
     inkscape:current-layer="svg96" />
  <path
     d="M 7.4813902,132.80086 H 45.175156 v 6.42471 H 7.4813902 Z"
     id="path2"
     inkscape:connector-curvature="0"
     style="fill:#ffffff;stroke-width:0.89705455" />
  <path
     d="m 11.271069,129.75715 h 5.887548 v 17.44861 h -5.887548 z"
     id="path4"
     inkscape:connector-curvature="0"
     style="fill:#ffffff;stroke-width:0.89705455" />
  <path
     d="m 35.972991,142.8102 v -13.05305 h 5.346086 v 12.51212 c 0,8.23048 -5.734062,15.6231 -17.459552,15.6231 H 11.40778 v -7.16926 h 13.737583 c 7.217432,0 10.827628,-3.33166 10.827628,-7.91291 z"
     id="path6"
     inkscape:connector-curvature="0"
     style="fill:#ffffff;stroke-width:0.89705455" />
  <path
     d="m 69.980508,144.66082 v 2.38078 c 0,2.42384 -1.582225,3.68151 -3.732464,3.68151 H 49.400283 v 7.16926 h 16.704232 c 4.919268,0 8.852583,-3.32269 8.852583,-8.01877 v -6.7907"
     id="path8"
     inkscape:connector-curvature="0"
     style="fill:#ffffff;stroke-width:0.89705455" />
  <path
     d="m 51.796226,129.69257 h 30.625173 v 6.7907 H 51.796226 Z"
     id="path10"
     inkscape:connector-curvature="0"
     style="fill:#ffffff;stroke-width:0.89705455" />
  <path
     d="m 49.403781,139.16187 h 35.21899 v 6.40856 h -35.21899 z"
     id="path12"
     inkscape:connector-curvature="0"
     style="fill:#ffffff;stroke-width:0.89705455" />
  <path
     d="m 118.97978,144.66172 v 2.37988 c 0,2.42474 -1.5824,3.68151 -3.73264,3.68151 H 91.413294 v 7.16926 h 23.690316 c 4.91944,0 8.85213,-3.32179 8.85213,-8.01787 v -10.71263"
     id="path14"
     inkscape:connector-curvature="0"
     style="fill:#ffffff;stroke-width:0.89705455" />
  <path
     d="m 88.355594,139.16187 h 35.601946 v 6.40856 H 88.355594 Z"
     id="path16"
     inkscape:connector-curvature="0"
     style="fill:#ffffff;stroke-width:0.89705455" />
  <path
     d="m 90.845279,129.69257 h 31.103751 v 6.7907 H 90.845279 Z"
     id="path18"
     inkscape:connector-curvature="0"
     style="fill:#ffffff;stroke-width:0.89705455" />
  <path
     d="m 153.04991,137.15337 h -22.46673 v 6.40766 h 22.46673 z"
     id="path20"
     inkscape:connector-curvature="0"
     style="fill:#ffffff;stroke-width:0.89705455" />
  <path
     d="m 133.39365,129.64592 v 17.39568 c 0,2.42384 1.58241,3.68151 3.73265,3.68151 h 26.37071 v 7.16926 h -26.22718 c -4.91945,0 -8.85214,-3.32269 -8.85214,-8.01877 v -20.22947"
     id="path22"
     inkscape:connector-curvature="0"
     style="fill:#ffffff;stroke-width:0.89705455" />
  <path
     d="m 163.51226,139.31707 h -32.92818 v 5.05579 h 32.92818 z"
     id="path24"
     inkscape:connector-curvature="0"
     style="fill:#ffffff;stroke-width:0.89705455" />
  <path
     d="m 155.06021,129.75985 h 3.39715 v 7.48412 h -3.39715 z"
     id="path26"
     inkscape:connector-curvature="0"
     style="fill:#ffffff;stroke-width:0.89705455" />
  <path
     d="m 160.13395,129.75985 h 3.39715 v 7.48412 h -3.39715 z"
     id="path28"
     inkscape:connector-curvature="0"
     style="fill:#ffffff;stroke-width:0.89705455" />
  <path
     d="m 167.28976,151.39949 h 29.74453 v 6.49288 h -29.74453 z"
     id="path30"
     inkscape:connector-curvature="0"
     style="fill:#ffffff;stroke-width:0.89705455" />
  <path
     d="m 170.32001,137.87281 h 19.93255 v 6.49288 h -19.93255 z"
     id="path32"
     inkscape:connector-curvature="0"
     style="fill:#ffffff;stroke-width:0.89705455" />
  <path
     d="m 185.86865,137.87281 h 4.38391 v 16.70495 h -4.38391 z"
     id="path34"
     inkscape:connector-curvature="0"
     style="fill:#ffffff;stroke-width:0.89705455" />
  <path
     d="m 198.45433,139.90194 h 34.51328 v 7.03381 h -34.51328 z"
     id="path36"
     inkscape:connector-curvature="0"
     style="fill:#ffffff;stroke-width:0.89705455" />
  <path
     d="m 70.833786,81.204264 v 9.47271 h 24.83962 c 2.118843,0 4.044819,1.70889 4.044819,3.8089 l -28.236586,7.385446 c -1.984733,0.53195 -3.364941,2.32965 -3.364941,4.38301 v 3.09932 c 0,5.88557 4.773855,10.65701 10.662929,10.65701 l 22.563163,-9e-4 c 5.88737,0 10.66149,-4.77054 10.66149,-10.65611 V 91.861094 c 0,-5.88558 -4.77412,-10.65683 -10.66239,-10.65683 z m 29.076409,22.006356 v 3.71739 c 0,2.20945 -1.792315,4.00087 -4.003555,4.00087 H 83.585865 c -1.908483,0 -3.332737,-1.32406 -3.691469,-2.66246 z"
     id="path38"
     inkscape:connector-curvature="0"
     style="fill:#ffffff;stroke-width:0.89705455" />
  <path
     d="m 132.27592,90.736184 h 8.23138 v -9.9225 h -8.22599 V 64.181216 h -11.82587 v 16.727018 h -4.91138 v 9.82795 h 4.91227 v 24.377456 c 0,2.7719 2.24802,5.01812 5.02082,5.01812 h 14.36812 v -9.9277 l -7.56935,-0.005 z"
     id="path40"
     inkscape:connector-curvature="0"
     style="fill:#ffffff;stroke-width:0.89705455" />
  <path
     d="m 187.58562,119.94428 v -9.4729 h -27.64723 c -2.11974,0 -4.04571,-1.70889 -4.04571,-3.80889 l 28.23658,-7.385446 c 1.98519,-0.53196 3.36486,-2.32966 3.36486,-4.38301 v -3.09933 c 0,-5.88557 -4.77323,-10.65727 -10.66239,-10.65727 l -22.56362,8e-4 c -5.88737,9e-5 -10.66149,4.7709 -10.66149,10.65647 v 17.492566 c 0,5.88557 4.77412,10.65701 10.66329,10.65701 z M 155.70161,97.937734 v -3.71739 c 0,-2.20945 1.79231,-4.00086 4.00265,-4.00086 h 12.32105 c 1.90893,0 3.33255,1.32405 3.69138,2.66245 z"
     id="path42"
     inkscape:connector-curvature="0"
     style="fill:#ffffff;stroke-width:0.89705455" />
  <path
     d="m 193.64342,64.181216 h 11.44732 v 55.950544 h -11.44732 z"
     id="path44"
     inkscape:connector-curvature="0"
     style="fill:#ffffff;stroke-width:0.89705455" />
  <path
     d="m 211.23108,64.181216 h 11.44731 v 55.950544 h -11.44731 z"
     id="path46"
     inkscape:connector-curvature="0"
     style="fill:#ffffff;stroke-width:0.89705455" />
  <path
     d="m 229.50408,81.204264 v 9.47271 h 24.83944 c 2.11884,0 4.04482,1.70889 4.04482,3.8089 l -28.23659,7.385446 c -1.98518,0.53195 -3.36485,2.32965 -3.36485,4.38301 v 3.09932 c 0,5.88557 4.77323,10.65701 10.66239,10.65701 l 22.56361,-9e-4 c 5.88737,0 10.6615,-4.77054 10.6615,-10.65611 V 91.861094 c 0,-5.88558 -4.77413,-10.65683 -10.66329,-10.65683 z m 29.07533,22.006356 v 3.71739 c 0,2.20945 -1.79142,4.00087 -4.00266,4.00087 h -12.32104 c -1.90804,0 -3.33256,-1.32406 -3.69138,-2.66246 z"
     id="path48"
     inkscape:connector-curvature="0"
     style="fill:#ffffff;stroke-width:0.89705455" />
  <path
     d="m 297.28462,120.50493 c -4.55614,0 -7.32445,-1.57702 -9.36166,-5.10334 L 270.52459,81.002784 h 12.85927 l 15.50828,29.957486 15.50739,-29.957486 h 12.86017 l -17.39927,34.398806 c -2.03721,3.52632 -4.80462,5.10334 -9.36076,5.10334 h -1.60753 z"
     id="path50"
     inkscape:connector-curvature="0"
     style="fill:#ffffff;stroke-width:0.89705455" />
  <path
     d="m 330.37427,81.002784 h 11.44732 v 39.128976 h -11.44732 z"
     id="path52"
     inkscape:connector-curvature="0"
     style="fill:#ffffff;stroke-width:0.89705455" />
  <path
     d="m 336.14951,76.939214 c 3.55144,0 6.43009,-2.877032 6.43009,-6.426139 0,-3.549107 -2.87865,-6.42623 -6.43009,-6.42623 -3.55144,0 -6.43009,2.877123 -6.43009,6.42623 0,3.549107 2.87865,6.426139 6.43009,6.426139 z"
     id="path54"
     inkscape:connector-curvature="0"
     style="fill:#ffffff;stroke-width:0.89705455" />
  <path
     d="m 391.45203,119.94428 v -9.4729 h -27.64812 c -2.11884,0 -4.04482,-1.70889 -4.04482,-3.80889 l 28.23659,-7.385446 c 1.98518,-0.53196 3.36485,-2.32966 3.36485,-4.38301 v -3.09933 c 0,-5.88557 -4.77323,-10.65727 -10.66239,-10.65727 l -22.56362,8e-4 c -5.88737,9e-5 -10.66149,4.7709 -10.66149,10.65647 v 17.492566 c 0,5.88557 4.77412,10.65701 10.66329,10.65701 z M 359.56802,97.937734 v -3.71739 c 0,-2.20945 1.79141,-4.00086 4.00265,-4.00086 h 12.32105 c 1.90803,0 3.33256,1.32405 3.69138,2.66245 z"
     id="path56"
     inkscape:connector-curvature="0"
     style="fill:#ffffff;stroke-width:0.89705455" />
  <path
     d="m 407.84749,115.40159 c 2.03721,3.52632 4.80463,5.10334 9.36077,5.10334 h 1.60752 1.60752 c 4.55614,0 7.41864,-2.14396 8.9831,-5.57609 l 5.43705,-17.112206 5.43795,17.113106 c 1.56356,3.43123 4.42696,5.57519 8.9822,5.57519 h 1.60753 1.60752 c 4.55614,0 7.32445,-1.57702 9.36166,-5.10334 L 479.23868,81.002874 H 466.3794 L 450.87113,110.96027 440.18631,81.002874 v 0 -9e-5 H 429.50149 L 418.81578,110.96027 403.3084,81.002784 h -12.86018 z"
     id="path58"
     inkscape:connector-curvature="0"
     style="clip-rule:evenodd;fill:#ffffff;fill-rule:evenodd;stroke-width:0.89705455" />
  <path
     d="m 5.0272642,109.4604 v 11.04543 l 42.9166508,-0.006 c 14.146819,-0.22606 19.358975,-14.39234 14.556952,-24.792786 -2.753509,-5.95465 -9.35583,-8.2834 -14.776372,-8.45653 H 19.966398 c -0.78591,0.0117 -1.554237,-0.23324 -2.188185,-0.69791 -0.902258,-0.72841 -1.595053,-1.68288 -2.007519,-2.76652 -0.412376,-1.08364 -0.52989,-2.25672 -0.340252,-3.40028 0.161649,-1.11271 0.671445,-2.14585 1.456278,-2.95158 0.784833,-0.80565 1.804605,-1.342715 2.913454,-1.534325 0.891223,-0.179501 1.822366,-0.265887 2.733594,-0.265887 9.644054,-0.01991 24.081968,-0.01328 33.73266,-0.01328 h 2.081794 V 64.2894 l -40.86819,5.39e-4 c -7.7130186,0 -15.7690529,7.540012 -15.7690529,16.885885 -9.347e-4,8.60679 7.2174318,16.38874 17.6839949,16.38874 h 22.430849 c 1.313557,0.0242 2.610967,0.29423 3.824413,0.79748 2.647118,1.10338 4.023828,3.615126 3.54498,6.074846 -0.6518,3.33615 -2.500809,5.02351 -5.540299,5.02351 z"
     id="path60"
     inkscape:connector-curvature="0"
     style="fill:#ffffff;stroke-width:0.89705455" />
  <path
     d="m 487.95267,72.029635 h 2.58621 v -1.51665 h -7.08942 v 1.51665 h 2.68039 v 7.325799 h 1.82282 z"
     id="path62"
     inkscape:connector-curvature="0"
     style="fill:#ffffff;stroke-width:0.89705455" />
  <path
     d="m 498.29481,79.355434 h 1.81654 v -8.842449 h -2.64901 l -1.66224,6.769979 -1.6443,-6.769979 h -2.66425 v 8.842449 h 1.82281 v -7.146836 l 1.58061,7.146836 h 1.82282 l 1.57702,-7.181373 z"
     id="path64"
     inkscape:connector-curvature="0"
     style="fill:#ffffff;stroke-width:0.89705455" />
  <path
     d="m 236.15215,130.83272 h 1.82909 v -1.07287 h -5.01363 v 1.07287 h 1.89637 v 5.18049 h 1.28817 z"
     id="path66"
     inkscape:connector-curvature="0"
     style="fill:#ffffff;stroke-width:0.89705455" />
  <path
     d="m 243.46583,136.01321 h 1.28459 v -6.25336 h -1.87305 l -1.17604,4.78758 -1.16169,-4.78758 h -1.88471 v 6.25336 h 1.28907 v -5.054 l 1.11773,5.054 h 1.28907 l 1.11503,-5.07822 z"
     id="path68"
     inkscape:connector-curvature="0"
     style="fill:#ffffff;stroke-width:0.89705455" />
  <path
     d="M 28.726109,54.106922 C 11.50616,54.101091 0,41.89783 0,27.101633 0,12.305435 11.532444,-0.03782886 28.699825,8.7139186e-5 H 190.92954 C 208.09737,-0.03783286 219.6299,12.305435 219.6299,27.101633 c 0,14.796197 -11.50652,26.999458 -28.72638,27.005289 z"
     id="path70"
     inkscape:connector-curvature="0"
     style="fill:#e60012;stroke-width:0.89705455" />
  <path
     d="M 28.779035,6.6558581 C 15.146587,6.6821081 6.7787183,15.793722 6.7787183,27.066558 c 0,11.269965 8.3153907,20.457418 22.0003167,20.407811 H 190.85149 c 13.68457,0.04674 22.00296,-9.137846 22.00296,-20.407811 0,-11.269876 -8.36773,-20.3815369 -22.00026,-20.4077939 z"
     id="path72"
     inkscape:connector-curvature="0"
     style="fill:#ffffff;stroke-width:0.89705455" />
  <path
     d="m 195.55296,18.392399 c 0,-2.164144 1.75553,-3.919949 3.91923,-3.919949 2.16459,0 3.92013,1.755805 3.92013,3.919949 0,2.164144 -1.75554,3.920039 -3.92013,3.920039 -2.1637,0 -3.91923,-1.755895 -3.91923,-3.920039 z m 3.92013,3.173331 c 1.74925,0 3.17019,-1.420397 3.17019,-3.17046 0,-1.752845 -1.42094,-3.170371 -3.17019,-3.170371 -1.75016,0 -3.17109,1.420397 -3.17109,3.170371 0,1.750063 1.42093,3.17046 3.17109,3.17046 z"
     id="path74"
     inkscape:connector-curvature="0"
     style="clip-rule:evenodd;fill:#e60012;fill-rule:evenodd;stroke-width:0.89705455" />
  <path
     d="m 201.42328,17.421248 c 0,-0.831301 -0.61538,-1.251302 -1.85421,-1.251302 h -1.70351 v 4.342911 h 1.05853 v -1.779129 h 0.5167 l 0.83067,1.779129 h 1.17515 l -0.97062,-1.939522 c 0.59206,-0.148821 0.94729,-0.580484 0.94729,-1.152087 z m -1.98338,0.676648 h -0.51581 v -1.262873 h 0.46378 c 0.63601,0 0.94818,0.195378 0.94818,0.647494 0,0.431662 -0.29154,0.615379 -0.89615,0.615379 z"
     id="path76"
     inkscape:connector-curvature="0"
     style="clip-rule:evenodd;fill:#e60012;fill-rule:evenodd;stroke-width:0.89705455" />
  <path
     d="m 116.69827,34.845277 c 0,-0.950878 -0.005,-1.026679 -0.005,-1.026679 l 7.62945,-0.0059 c -1.33212,3.99871 -5.69899,6.947418 -10.86692,6.947418 -6.23004,0 -11.27866,-4.255357 -11.27866,-9.50824 0,-5.252882 5.04862,-9.5112 11.27866,-9.5112 6.23005,0 11.30199,4.351612 11.30199,9.604494 0,0.0089 -14.42912,0.0031 -14.42912,0.0031 0,0 -0.005,2.569523 -0.005,3.497078 0,3.097439 2.07399,3.785749 3.20517,3.785749 1.13209,0 3.17019,-0.68831 3.17019,-3.785749 z m -5.86225,-9.455852 c -0.4871,0.845832 -0.51939,1.837526 -0.50773,3.322062 l 6.39062,0.003 c 0.0117,-1.484625 -0.009,-2.476229 -0.49607,-3.325022 -0.59744,-1.043634 -1.69633,-1.539436 -2.69296,-1.545805 0,0 9e-4,0 9e-4,0 h -0.003 c 9e-4,0 9e-4,0 0.002,0 -0.99753,0.0064 -2.09642,0.502171 -2.69386,1.545805 z"
     id="path78"
     inkscape:connector-curvature="0"
     style="clip-rule:evenodd;fill:#e60012;fill-rule:evenodd;stroke-width:0.89705455" />
  <path
     d="m 140.79226,22.023766 c 2.8643,-0.08172 8.67452,1.79375 8.63326,8.499053 -0.005,1.190033 -0.003,9.216698 -0.003,9.216698 h -7.60971 c 0,0 0,-10.065401 0,-11.124195 0,-1.475744 -1.41107,-3.117892 -3.49941,-3.117892 -2.08565,0 -3.63755,1.642148 -3.63755,3.117892 0,0.723385 0.009,11.124195 0.009,11.124195 h -7.60344 l 0.005,-16.937018 7.60075,-0.0058 c 0,0 -0.009,1.362087 0,1.782088 1.46399,-1.397162 3.57566,-2.48215 6.10445,-2.55499 z"
     id="path80"
     inkscape:connector-curvature="0"
     style="fill:#e60012;stroke-width:0.89705455" />
  <path
     d="m 78.545737,22.023766 c 2.864116,-0.08172 8.674159,1.79375 8.633253,8.499053 -0.0058,1.190033 -0.003,9.216698 -0.003,9.216698 h -7.609534 c 0,0 0,-10.065401 0,-11.124195 0,-1.475744 -1.411695,-3.117892 -3.500038,-3.117892 -2.085383,0 -3.637018,1.642148 -3.637018,3.117892 0,0.723385 0.0087,11.124195 0.0087,11.124195 h -7.603704 l -0.003,-16.937018 7.609534,-0.0058 c 0,0 -0.0088,1.362087 0,1.782088 1.464173,-1.397162 3.572879,-2.48215 6.104546,-2.55499 z"
     id="path82"
     inkscape:connector-curvature="0"
     style="fill:#e60012;stroke-width:0.89705455" />
  <path
     d="m 173.49349,14.274022 h -7.55948 v 0 c 0,0 0,5.451221 0.005,9.37117 -1.22448,-0.68831 -2.51713,-1.350336 -4.33367,-1.51082 -5.52137,-0.48414 -9.73932,4.398349 -9.73932,8.869538 0,5.894545 4.54717,8.076271 5.2388,8.397058 2.57544,1.201694 5.88288,1.204565 8.81356,-0.635832 0,0.157523 0.004,0.980032 0.004,0.980032 h 7.57114 z m -7.50386,13.889095 v 3.02747 0 c 0,0 0.003,1.916288 0.003,3.004146 0,2.616259 -1.81115,3.301699 -3.00424,3.301699 -1.2164,0 -3.00154,-0.68544 -3.00154,-3.301699 0,-0.901181 0.004,-3.012848 0.004,-3.012848 0,0 -0.004,-2.149612 -0.004,-3.018768 0,-2.61913 1.78514,-3.287077 3.00423,-3.287077 1.1904,0 2.99886,0.667947 2.99886,3.287077 z"
     id="path84"
     inkscape:connector-curvature="0"
     style="clip-rule:evenodd;fill:#e60012;fill-rule:evenodd;stroke-width:0.89705455" />
  <path
     d="m 175.9882,31.161612 c 0,-5.252883 5.01094,-9.5112 11.19434,-9.5112 6.1834,0 11.19435,4.258317 11.19435,9.5112 0,5.252882 -5.01095,9.5112 -11.19435,9.5112 -6.1807,0 -11.19434,-4.258318 -11.19434,-9.5112 z m 14.26855,3.567137 c 0,-1.026679 0.003,-3.5875 0.003,-3.5875 l 0.003,0.0087 c -0.007,-0.552496 -0.006,-1.910726 -0.005,-2.95113 0,-0.239334 0,-0.461804 0,-0.653863 0,-2.6891 -1.60124,-3.794541 -3.12983,-3.794541 -1.52499,0 -3.12982,1.105441 -3.12982,3.794541 0,1.026679 -0.005,3.532063 -0.005,3.532063 0,0 -0.004,2.62505 -0.004,3.651729 0,2.700762 1.60124,3.814904 3.13879,3.814904 1.53397,0 3.12983,-1.114142 3.12983,-3.814904 z"
     id="path86"
     inkscape:connector-curvature="0"
     style="clip-rule:evenodd;fill:#e60012;fill-rule:evenodd;stroke-width:0.89705455" />
  <path
     d="M 52.937611,19.474516 V 14.26837 h 7.676634 v 5.206146 z"
     id="path88"
     inkscape:connector-curvature="0"
     style="fill:#e60012;stroke-width:0.89705455" />
  <path
     d="M 52.955104,39.745168 V 22.80528 l 7.659141,0.003 v 16.937018 z"
     id="path90"
     inkscape:connector-curvature="0"
     style="fill:#e60012;stroke-width:0.89705455" />
  <path
     d="m 91.381601,39.745437 0.0027,-16.904903 h -4.165024 v -2.514175 l 4.167716,-0.0031 -0.0054,-3.429978 h 7.664434 v 3.427107 h 4.147983 v 2.520006 h -4.147983 l 0.0063,16.904903 z"
     id="path92"
     inkscape:connector-curvature="0"
     style="fill:#e60012;stroke-width:0.89705455" />
  <path
     d="m 21.784252,39.745168 0.0029,-25.471146 h 7.936241 l 10.978244,17.762397 -0.0058,-17.762397 h 7.874972 V 39.745168 H 40.707438 L 29.670887,21.98277 v 17.762398 z"
     id="path94"
     inkscape:connector-curvature="0"
     style="fill:#e60012;stroke-width:0.89705455" />
</svg>
