<?xml version="1.0" encoding="UTF-8" standalone="no"?>
<!-- Created with Inkscape (http://www.inkscape.org/) -->

<svg
   xmlns:dc="http://purl.org/dc/elements/1.1/"
   xmlns:cc="http://creativecommons.org/ns#"
   xmlns:rdf="http://www.w3.org/1999/02/22-rdf-syntax-ns#"
   xmlns:svg="http://www.w3.org/2000/svg"
   xmlns="http://www.w3.org/2000/svg"
   xmlns:sodipodi="http://sodipodi.sourceforge.net/DTD/sodipodi-0.dtd"
   xmlns:inkscape="http://www.inkscape.org/namespaces/inkscape"
   version="1.1"
   id="svg2"
   xml:space="preserve"
   width="500"
   height="200"
   viewBox="0 0 500 200"
   sodipodi:docname="Scolor.svg"
   inkscape:version="0.92.5 (2060ec1f9f, 2020-04-08)"><metadata
     id="metadata8"><rdf:RDF><cc:Work
         rdf:about=""><dc:format>image/svg+xml</dc:format><dc:type
           rdf:resource="http://purl.org/dc/dcmitype/StillImage" /><dc:title /></cc:Work></rdf:RDF></metadata><defs
     id="defs6" /><sodipodi:namedview
     pagecolor="#ffffff"
     bordercolor="#666666"
     borderopacity="1"
     objecttolerance="10"
     gridtolerance="10"
     guidetolerance="10"
     inkscape:pageopacity="0"
     inkscape:pageshadow="2"
     inkscape:window-width="1366"
     inkscape:window-height="743"
     id="namedview4"
     showgrid="false"
     inkscape:pagecheckerboard="true"
     inkscape:zoom="1.3476142"
     inkscape:cx="72.885113"
     inkscape:cy="39.377976"
     inkscape:window-x="0"
     inkscape:window-y="0"
     inkscape:window-maximized="1"
     inkscape:current-layer="g10" /><g
     id="g10"
     inkscape:groupmode="layer"
     inkscape:label="ink_ext_XXXXXX"
     transform="matrix(1.3333333,0,0,-1.3333333,0,199.99999)"><path
       inkscape:connector-curvature="0"
       id="path14"
       style="fill:#ffffff;fill-opacity:1;fill-rule:nonzero;stroke:none;stroke-width:0.08346996"
       d="m 230.51731,141.97703 c 4.95393,-5.83455 1.6936,-15.38768 2.46319,-21.7965 -1.43317,-3.60257 -4.29953,-7.71597 -8.2919,-9.19672 -0.52503,-1.27626 -1.84218,-1.1327 -2.65518,-2.18441 4.78616,-0.62102 7.80193,3.57502 12.43202,4.19019 1.5083,1.91897 4.11506,5.48231 7.34117,4.16515 1.58259,-0.28046 3.10927,-1.89728 4.02493,-3.10258 -0.23455,-1.80295 -0.59515,-3.45899 -2.00495,-4.71439 1.57508,-7.34452 -6.08746,-10.911183 -11.21001,-13.854339 -2.28207,-0.451571 -3.97318,-2.445665 -6.57994,-2.25452 -3.99738,-0.844715 -8.07906,-0.557578 -12.114,0.545895 -7.87623,0.531702 -13.18074,7.746844 -17.42603,12.977074 -0.33637,1.46406 -0.3706,2.79624 -0.8564,4.20438 -4.47983,-4.70019 1.94403,-9.93126 -0.89479,-14.819255 1.75787,-1.295457 0.10601,-3.270354 -0.56259,-4.711044 -1.24704,-1.382263 -3.39222,-2.134327 -5.42221,-2.787897 -2.0375,0.495811 -4.29036,0.0033 -5.55242,2.194425 -0.96324,4.144282 -1.82799,7.558204 -1.12184,12.117331 -0.93569,1.19529 -2.79123,0.003 -3.98569,0.8155 -0.10601,-3.987356 1.55004,-9.675833 -2.27288,-12.55972 0.48913,-1.305471 -0.49582,-2.482396 -1.6235,-3.046654 -2.7328,-0.54172 -6.09079,0.338888 -7.76855,2.757847 -1.8764,3.91641 0.78296,10.517217 -4.19602,12.326847 -4.09254,1.73618 0.82801,8.78104 -4.73108,7.32782 -1.71531,-0.60098 -3.53662,-1.74702 -5.58749,-1.17359 -0.14023,-0.25625 -0.42652,-0.42069 -0.56175,-0.66525 -1.49328,-6.62835 3.29123,-15.608046 -4.47733,-19.874196 -2.41061,-1.607631 -5.31119,-1.70529 -7.67339,-0.287136 -3.91892,4.968966 -2.19777,13.223302 -2.42396,18.969372 -1.94653,1.80797 -5.36045,0.21703 -7.68091,1.11517 -3.1994,0.4065 -6.40465,0.97159 -9.06066,2.94314 -1.68443,2.1552 -4.08419,4.25948 -2.72614,7.14504 0.63271,1.97156 1.4023,4.57498 4.01575,5.12255 5.10919,2.18441 10.84274,-0.8948 15.8643,0.80716 0.0209,2.54499 0.49831,5.62921 3.21109,6.68844 3.33295,-0.17862 8.05067,6.39463 10.71253,0.36226 0.80716,-2.31963 -1.17693,-4.53576 0.63937,-6.56491 2.96736,2.16939 7.82031,0.28713 10.27766,3.35799 5.29618,-2.00161 0.81968,5.65092 6.04156,5.38799 1.24371,1.41231 1.44904,3.36551 2.98989,4.7461 2.55168,1.48827 4.80453,-1.02083 6.31701,-2.78957 0.58679,-3.22444 0.99663,-7.36539 -0.0409,-10.49551 3.5458,-2.04752 -2.27873,-8.88037 4.21774,-8.07989 2.00829,7.08994 -5.80367,14.99037 0.95072,21.11206 2.26287,0.35391 1.87641,2.94899 3.60924,3.69438 1.84385,0.89313 3.90973,0.25792 5.64591,-0.33555 0.89814,-0.67861 1.07592,-1.59762 1.84886,-2.29876 1.25456,-6.7594 -0.37395,-13.96035 1.01332,-20.35749 1.01917,7.8612 5.81703,14.45867 11.11903,20.82157 2.92146,2.14936 6.66258,3.20024 9.78018,5.24192 2.68941,1.32384 6.11168,1.86138 9.33278,1.30881 2.08174,-1.71865 3.42394,-2.959 5.65426,-4.49653" /><path
       inkscape:connector-curvature="0"
       id="path16"
       style="fill:#ff0000;fill-opacity:1;fill-rule:nonzero;stroke:none;stroke-width:0.08346996"
       d="m 229.4781,141.67738 c 0.23873,-1.77541 1.31131,-3.89638 1.9532,-5.8429 0.45157,-3.38303 -0.18113,-6.5766 -0.37645,-9.86448 -4.53492,-5.20602 -9.76014,-13.17657 -18.64885,-11.4287 -2.26706,-0.77878 -1.03838,-3.59589 -0.82803,-4.96563 1.68109,-2.81211 5.29032,-2.57589 7.79108,-3.70106 6.53404,-0.59347 9.78185,5.52237 16.12056,5.49232 2.12431,1.54253 2.50744,3.75365 4.64259,4.40721 1.32051,-0.21368 2.50577,-1.31715 3.53579,-1.80628 -0.47912,-6.58662 -8.97886,-8.246 -13.43782,-12.64653 -4.30205,-0.71868 -9.00057,-3.307925 -13.38942,-1.12769 -6.59496,-1.34219 -8.30026,4.76196 -12.40781,8.04316 -0.97827,2.68023 -0.67527,5.83205 -1.3255,8.60326 -3.51826,4.81454 1.66773,9.19004 2.545,13.86853 4.68183,5.79783 8.36452,16.31086 18.56705,14.35767 1.84886,-0.77209 3.22945,-3.32378 5.25861,-3.38888" /><path
       inkscape:connector-curvature="0"
       id="path18"
       style="fill:#ff0000;fill-opacity:1;fill-rule:nonzero;stroke:none;stroke-width:0.08346996"
       d="m 191.85986,138.98881 c 1.61765,-7.89542 -2.25786,-16.80333 2.8697,-23.14789 1.08177,-2.01998 -1.31132,-3.58504 -1.78709,-5.2728 -1.89644,-4.31539 0.96491,-8.18005 0.71116,-12.583927 -0.9407,-1.801275 -2.84883,-1.589265 -4.8471,-1.414811 -1.9532,0.964913 -0.58011,3.984018 -1.51331,5.591648 -1.5517,2.53999 1.57842,8.28857 -3.767,8.08991 -1.40396,-1.25873 -3.75948,-0.5075 -5.62921,-0.88228 -4.59419,-4.69519 1.3038,-10.654106 -2.89224,-15.575492 -1.56172,-0.476613 -2.75868,0.697809 -3.53662,1.797947 0.1469,4.238602 -0.86058,8.030645 -1.7295,11.866925 -1.19195,1.42983 -5.2561,1.73283 -3.34547,4.80453 0.48245,2.83296 4.69352,2.76786 4.70353,5.75441 1.08762,5.94056 0.0325,11.80349 0.10267,17.66392 0.80715,1.27875 1.95653,1.58676 3.39556,1.4916 0.10767,-3.45232 3.00825,-6.88293 0.66692,-10.24093 1.86388,-2.97403 0.2287,-6.13336 1.34554,-9.36115 1.54836,-2.55753 5.37462,-1.8764 7.98807,-1.40564 0.85556,0.56593 1.74786,0.77293 2.41729,1.73701 -1.79961,6.10166 -0.21953,14.62311 -1.06925,21.58784 1.37475,2.13098 4.99734,1.81296 5.91635,-0.50082" /><path
       inkscape:connector-curvature="0"
       id="path20"
       style="fill:#ffffff;fill-opacity:1;fill-rule:nonzero;stroke:none;stroke-width:0.08346996"
       d="m 224.94652,135.91127 c 2.90308,-4.83207 -2.72613,-8.30609 -4.14762,-12.64653 -3.34382,0.0735 -6.38128,-4.30705 -9.68836,-0.96658 -0.98996,3.51826 2.65851,6.65339 3.10842,10.38784 1.79711,2.88555 7.48475,8.58822 10.72756,3.22527" /><path
       inkscape:connector-curvature="0"
       id="path22"
       style="fill:#ff0000;fill-opacity:1;fill-rule:nonzero;stroke:none;stroke-width:0.08346996"
       d="m 149.22341,127.13357 c -1.0943,-0.84138 0.79379,-1.62015 -0.16777,-2.35051 4.41639,-3.42561 9.35447,1.12768 14.08889,1.68025 1.61347,-1.11767 1.29879,-3.59922 0.91567,-5.10252 -3.32378,-3.81124 -8.34533,-5.807 -13.67573,-6.08246 -2.53415,-1.21615 -2.13599,-4.02492 -1.49995,-5.9681 1.01416,-4.61255 0.0568,-10.507197 0.0843,-15.042952 -0.51,-1.809629 -2.38306,-1.869727 -3.64179,-2.851334 -2.45986,1.115159 -3.04332,4.101719 -2.24952,6.491461 0.21953,5.466445 0.12855,9.033955 -0.50416,14.467015 -3.05667,4.13008 -9.32192,1.03753 -13.43782,3.10591 -2.71445,-0.75457 -4.82289,0.94405 -6.32118,2.50576 -0.89814,1.21617 0.37979,2.32631 0.6327,3.58838 1.25706,1.00582 3.24949,1.48494 4.8663,0.85223 4.73942,0.86308 11.52469,-2.75618 14.35767,2.42146 0.51417,2.03416 -1.47325,5.54241 1.96154,5.9439 1.30547,0.46743 2.80542,2.38975 4.12258,1.25873 -0.35308,-1.9532 0.85306,-2.7111 0.46827,-4.91722" /><path
       inkscape:connector-curvature="0"
       id="path24"
       style="fill:#ffffff;fill-opacity:1;fill-rule:nonzero;stroke:none;stroke-width:0.08346996"
       d="m 220.42244,125.6236 c -2.93647,0.86475 -5.36043,-5.13507 -6.9305,-1.19112 2.4682,0.46076 1.89142,3.88636 4.33627,4.36716 1.05505,-0.76793 4.09586,-1.20114 2.59423,-3.17604" /><path
       inkscape:connector-curvature="0"
       id="path26"
       style="fill:#ffffff;fill-opacity:1;fill-rule:nonzero;stroke:none;stroke-width:0.08346996"
       d="m 96.490758,115.47637 c 3.835782,-0.97493 7.145362,-5.11253 7.864032,-8.8595 -0.0209,-3.46567 1.30798,-8.215108 -1.91062,-10.917865 -0.42987,-1.799612 1.1402,-4.336264 -1.26791,-5.371292 -3.691041,-1.241198 -9.881174,-2.565032 -13.17757,0.638546 -2.518788,1.979072 -0.813581,6.14005 -3.462751,7.680071 -7.522062,0.287136 -15.47942,0.45825 -21.989075,-3.368014 -3.319267,-0.247905 -5.544575,-2.521626 -8.986126,-2.1794 C 46.415293,90.604834 38.311194,85.809902 37.748774,77.986179 35.236495,74.64254 41.459265,75.134845 40.419145,71.50098 46.22615,66.944355 51.379502,60.523096 58.692889,58.344696 c 0.01136,-0.279123 0.02771,-0.440221 0.0212,-0.694469 9.347967,-3.257333 17.020025,-10.937236 26.521243,-14.147574 4.235433,-2.156781 8.144832,-5.368789 12.029774,-8.45943 2.826874,8.298416 2.02807,15.523408 2.267712,24.724386 -1.459055,3.879016 -1.033608,8.728453 0.877182,12.159235 1.51749,1.286272 3.0959,2.180987 4.8254,2.823288 1.33552,-1.889509 1.92565,1.433013 3.38637,1.041706 3.04666,0.363595 6.11168,-0.831444 7.36539,-3.587873 0.61935,-4.375662 3.93227,-8.453003 1.91231,-13.052282 0.65356,-5.342076 1.43317,-11.191484 -1.14272,-16.191585 0.29633,-0.293731 0.61101,-0.806988 1.04839,-0.685372 2.87221,9.015757 2.49075,19.173968 6.97058,27.524218 1.34804,1.677914 3.06836,2.670456 5.0733,2.914939 3.24281,-1.803035 3.6802,1.785172 5.83539,3.00784 3.56834,1.017331 6.18178,-0.140147 9.11909,-1.547116 3.13513,-1.940009 2.10177,-5.827873 4.34044,-7.802772 0.61935,2.919779 2.38975,5.425548 4.95895,6.779347 0.86558,0.284632 1.58259,-0.225369 1.75119,-0.635874 1.89227,-0.0818 3.73445,5.708928 6.58245,2.286993 2.74282,-0.07337 5.15677,-2.308779 6.3696,-4.450618 1.04837,-4.886332 -1.22284,-10.049031 1.24704,-14.345147 1.94651,2.151021 7.63165,1.213569 6.74771,4.752946 -0.83971,7.086433 -0.70867,15.609466 6.97808,19.271127 4.69352,2.256276 10.06648,4.908701 15.47951,3.557239 5.99564,-2.383485 9.39454,-8.025887 11.90365,-12.991682 0.96575,5.247841 5.15845,8.790472 9.98384,10.772884 2.45235,0.303246 4.64343,0.97159 6.55239,2.497588 5.00987,1.677495 9.80773,5.724035 15.46114,4.235766 3.13347,-1.911044 4.2553,-5.443827 4.80453,-8.719022 -0.51668,-1.079266 -2.07839,-2.12431 -0.87977,-3.298064 1.49745,-0.940707 1.10681,-2.983383 0.72202,-4.20288 -3.39639,-2.471461 -8.33782,-1.429756 -12.31015,-2.777963 -1.27209,-0.846136 -5.22022,0.212264 -5.14342,-2.50894 1.63184,-1.038533 2.1627,-2.928043 2.92395,-4.568394 2.24033,-2.060039 4.37299,-4.355463 6.46641,-6.607482 3.94313,5.616944 5.51988,14.568094 14.48288,14.993958 1.73617,-0.57878 5.33623,0.341977 6.57159,-1.788093 3.67017,-1.78225 8.3061,-2.086749 11.03556,-5.507431 1.78209,-1.830413 1.46072,-4.640011 2.55419,-6.788445 0.77961,2.403017 3.07836,6.012174 6.4397,6.408656 3.31626,-0.0424 7.49143,3.682779 9.68586,-0.629279 2.03416,-0.106007 3.65514,-1.227927 5.30117,-2.104362 1.05506,1.230514 0.68863,3.284627 0.23038,4.595021 -1.81798,2.722874 -5.9439,4.615973 -4.49653,8.331388 2.36054,3.111843 4.42307,5.956666 5.90801,9.388367 1.1285,0.859156 2.08507,1.865052 3.68603,1.516231 4.71855,-2.582393 6.77192,-8.117203 9.55981,-12.540109 1.16107,3.298065 3.24281,6.299394 4.84377,9.462155 6.22268,8.169371 16.02373,13.704264 27.62188,11.79948 3.22444,-0.867253 5.91634,-3.62677 8.11995,-5.622453 -0.23121,-4.643016 1.71531,-10.62606 -2.2153,-13.236165 2.1911,-1.55563 -0.3322,-2.588821 0.60517,-4.609128 -2.42147,-1.742686 -3.89972,-5.617194 -7.52733,-4.266066 -2.20444,1.069501 -4.85294,1.940008 -5.0975,4.504123 -0.0184,1.08611 0.20533,2.753506 -1.38477,2.571625 -2.3814,-1.460724 -5.29283,-1.431425 -7.25271,-3.574267 0.26126,-3.120023 4.13594,-5.891142 6.95639,-7.921132 2.29542,-2.979794 8.02898,-2.324805 7.47473,-7.026501 3.12345,-2.096849 1.95988,-5.518116 1.3205,-8.428796 -1.23368,-1.83901 -2.44233,-3.934857 -1.80963,-5.958002 -2.3864,-10.205872 -12.36691,-13.546257 -21.22474,-16.922866 -4.89886,-0.803733 -10.0765,-0.725188 -13.64817,2.558521 -1.23786,1.77866 -2.17356,3.819418 -2.26788,6.105076 1.48159,2.112457 3.47068,4.376914 6.38712,3.891119 0.14023,3.328031 4.08919,2.746996 6.2135,3.777934 2.12431,1.156893 5.29366,1.691936 6.04824,4.445443 0.73036,7.459793 -10.39786,7.459793 -11.97127,14.804566 -0.27545,-0.269024 -0.39481,-0.427534 -0.69113,-0.684788 0.63604,-5.461356 1.29295,-12.31666 -2.11429,-16.279898 -4.14762,-2.56403 -5.0491,-8.333557 -10.57397,-7.857862 -3.11761,2.20703 -4.5391,5.569283 -6.84871,8.646654 -2.37222,-2.237746 -3.69606,-5.425547 -7.09662,-7.214976 -0.32136,-2.742072 -3.49072,-3.417344 -5.79616,-4.065906 -1.89393,0.369772 -3.50156,1.534094 -3.86215,3.472518 -1.19111,4.996428 2.87304,8.413521 1.27208,13.162127 -1.40396,-1.173421 -1.17692,-3.4721 -2.58256,-5.006528 -3.49989,-2.880382 -4.64593,-7.138351 -8.74765,-10.172234 -1.72365,-0.187807 -2.11179,-1.171251 -3.68437,-1.78225 -5.15677,-1.118331 -10.48633,-1.864719 -14.23079,2.551676 -3.57502,2.429143 -3.99404,5.971358 -6.26191,9.217588 1.5467,-6.918909 -6.81116,-8.040494 -10.72756,-11.203254 -6.55156,-3.234462 -14.24999,-2.014965 -20.58035,0.671015 -2.76537,1.646946 -2.03751,5.245251 -2.27957,7.715127 0.77627,3.036554 3.56083,5.17614 6.70598,5.846153 -0.27211,0.53763 0.28964,0.965163 0.67777,1.377254 1.98408,0.911659 4.33376,1.387355 6.43637,2.166964 0.53505,0.953394 0.20533,2.717698 -0.71534,3.961568 -3.79538,0.827855 -5.76944,4.018327 -7.59409,6.56149 -1.04505,-3.884609 0.17945,-8.777701 -3.81792,-11.195075 -2.15019,0.451573 -3.40056,-1.234437 -5.12756,-1.851947 -4.0099,-0.440221 -7.82364,-2.299013 -12.03303,-1.79135 -1.3255,-4.847183 -0.003,-12.041543 -6.46057,-13.618374 -3.00158,-0.68437 -5.96476,0.357419 -7.30028,2.310449 -4.20939,3.97918 2.4081,13.019728 -6.45307,13.624217 -2.16604,-3.354825 -0.57343,-7.826978 -2.35886,-11.286057 -1.32049,-2.246844 0.5509,-5.604923 -2.42897,-7.332 0.7579,-1.760382 -1.58928,-1.062574 -2.13099,-2.029072 -3.43145,-0.605157 -6.05909,0.498232 -8.31612,2.595081 -4.94726,5.601669 -0.52168,13.810022 -0.70866,20.091136 -2.63932,-3.936443 -3.36467,-10.516547 -9.75262,-10.84617 -1.76873,1.57032 -5.1092,1.870561 -5.63757,4.435009 -2.69274,-2.020223 -0.94989,-6.464081 -4.23359,-8.099173 -0.2838,-2.60685 -1.97073,-4.85044 -4.34462,-6.422346 -3.46567,-0.933778 -5.24107,1.327423 -8.02897,1.363231 -2.2253,1.812884 -3.59171,4.799523 -5.41553,7.036268 -1.97156,-2.120638 -1.56173,-5.639064 -4.94476,-6.735942 1.07259,-2.407942 -1.51665,-3.456491 -2.8697,-5.248508 -2.81545,-1.768812 -5.79198,-0.07763 -8.39207,0.603488 -4.535671,5.510686 -2.589151,-4.432339 -6.495295,-5.398086 C 95.214251,11.144705 86.766173,8.113051 80.660763,5.5890614 75.962323,3.5949141 70.794364,2.8863977 65.83508,4.3569038 52.897236,6.6581948 40.345775,3.049099 28.537697,8.4094362 c -2.45193,0.5901576 -5.229893,1.8422078 -6.345002,4.2970588 -0.670038,2.414786 -1.959591,5.271045 -1.033592,7.936156 1.504738,2.338161 4.013753,4.902275 7.799199,4.749692 2.357359,2.539907 6.512994,3.905476 10.269142,3.136634 5.419037,-2.173474 11.711837,-3.753561 17.686783,-1.736927 5.653839,-0.106925 12.04121,-0.550985 17.055919,-0.09098 0.29348,0.265433 0.715671,0.692883 0.999386,0.968418 -6.213004,4.049879 -13.229656,5.839308 -19.736138,9.186536 -4.47182,4.510717 -11.320614,6.715158 -15.974982,11.396989 -10.821797,7.129168 -25.880604,16.011207 -21.936972,31.340632 1.821012,5.13215 3.351842,10.944414 8.431783,14.420102 1.869894,4.197704 5.986382,5.381309 8.764346,8.812753 13.500264,7.54651 25.898474,15.52541 42.028376,17.59714 6.93844,-0.59514 14.576275,0.0734 19.944813,-4.94727" /><path
       inkscape:connector-curvature="0"
       id="path28"
       style="fill:#ee2432;fill-opacity:1;fill-rule:nonzero;stroke:none;stroke-width:0.08346996"
       d="m 90.532088,116.64662 c 4.333259,-3.13513 12.316912,-4.49486 12.135772,-11.47211 -0.0526,-2.63765 1.22618,-6.537362 -2.06587,-7.624976 -6.424602,-1.320495 -0.19532,6.734356 -6.876175,7.049036 -12.380348,6.28528 -27.628222,0.68528 -39.491724,-3.33379 -3.423604,-4.584168 -10.898422,-2.001608 -13.557358,-8.116616 -5.324465,-0.957401 -6.02386,-6.500307 -6.852049,-10.626561 1.007483,-3.496891 1.017333,-8.050261 4.559881,-9.731095 1.32542,-4.889503 7.35579,-7.523648 10.344098,-11.506083 2.654095,-1.272333 5.505428,-3.670091 8.576872,-4.648609 12.132442,-7.389345 25.913165,-12.937844 37.504388,-21.68032 -0.109263,-1.544194 1.892764,-1.167912 2.249765,-2.554932 1.243954,-6.115176 -0.769509,-11.241066 -5.67821,-15.207559 -4.245283,-2.504099 -9.061082,-1.01825 -12.704712,-4.471485 -3.857231,-1.341405 -8.816515,0.828188 -12.826996,-1.149357 -5.643988,-0.01173 -10.311461,2.008178 -15.950608,1.830471 -5.971691,1.156227 -12.761722,1.757794 -18.229672,4.969718 -1.817808,1.448955 -1.164072,4.502454 -0.992875,6.537367 1.834086,1.830497 5.733718,1.962546 8.627455,1.519154 4.227252,-1.351212 8.483886,-2.435654 13.273643,-2.124311 8.019293,2.047685 16.209782,-1.775322 23.446545,1.78225 2.628051,0.09098 5.556011,-1.180348 7.680237,-0.02513 2.184575,-0.607744 3.291555,1.222751 5.130481,1.136944 1.868308,1.424916 -0.384712,2.741822 -1.115075,3.927011 -5.834801,0.905149 -6.103741,8.725199 -12.673745,7.114229 -7.893837,5.590817 -16.830965,8.435641 -24.770378,13.214964 -2.375304,1.694523 -3.242641,5.360691 -7.14219,4.675903 -3.371435,1.676244 -4.944677,5.590234 -8.581797,6.684441 -1.253718,2.45168 -5.632553,2.680221 -5.422291,5.726874 -2.551344,2.21354 -2.236746,5.645658 -4.491394,8.053515 -2.375313,5.678295 1.961251,9.889271 2.20248,15.136944 2.323136,3.627604 6.763988,4.902191 8.316029,9.169183 14.281208,9.08821 29.15255,17.99444 47.678958,17.40431 2.37205,-1.15272 5.097844,-1.06257 7.696515,-1.65938" /><path
       inkscape:connector-curvature="0"
       id="path30"
       style="fill:#ee2432;fill-opacity:1;fill-rule:nonzero;stroke:none;stroke-width:0.08346996"
       d="m 345.0254,89.55979 c 7.24018,-1.482427 3.30624,-8.337481 4.63675,-12.53385 -1.08595,-1.961209 -3.7069,-1.659549 -5.45309,-1.286271 -1.42984,2.67204 0.95072,5.492407 -2.43566,7.127583 -4.74275,-0.526612 -9.30606,-2.063961 -12.20914,-6.01735 -3.0959,-2.442163 -1.66273,-6.460742 -3.86049,-9.300389 3.262,-5.619865 9.11992,-8.267783 14.31509,-12.215578 0.86308,-3.400816 4.71689,-6.283785 2.42147,-10.180079 -3.24615,-6.690369 -9.79186,-9.887017 -15.70654,-13.706686 -4.64093,0.433292 -8.93547,-4.276249 -12.86272,-0.447399 -2.95233,6.495716 5.50401,4.453957 7.96053,7.549858 4.45897,1.234437 9.3094,2.796243 11.64239,6.986352 0.69614,3.147735 -2.0759,4.974893 -4.46564,6.407905 -4.36716,0.947551 -4.85378,6.121687 -9.66082,6.932264 -1.70195,4.465642 -3.04415,9.465659 -0.74873,14.073786 1.76539,7.286093 8.91794,13.174564 15.7391,15.987167 1.39395,2.383068 4.41639,1.802952 6.90046,1.509138 0.93236,-1.247042 2.73615,-0.05509 3.78704,-0.886451" /><path
       inkscape:connector-curvature="0"
       id="path32"
       style="fill:#ee2432;fill-opacity:1;fill-rule:nonzero;stroke:none;stroke-width:0.08346996"
       d="m 244.61688,83.776907 c 1.35471,-1.020503 0.56259,-3.00617 0.91483,-4.497862 -4.52908,-3.007839 -11.80933,-1.191783 -15.1089,-6.139298 -4.01907,-0.678862 -0.5726,-4.364895 -2.50409,-6.638449 2.76285,-5.346336 7.82948,-8.882123 10.88698,-14.119862 1.15189,-3.27027 0.26877,-6.591456 -0.35558,-10.144188 -4.67933,-5.778625 -13.34852,-6.202486 -20.58203,-5.668444 -2.68022,1.681168 -2.36887,5.150012 -2.03333,7.869631 4.09838,3.186883 10.70586,0.935781 14.41026,4.737588 -0.97159,3.596052 -3.5675,7.585999 -7.51897,8.927362 -3.20859,5.363612 -6.65005,12.236529 -2.10512,18.00639 5.01488,4.150627 10.15496,7.442181 15.987,10.154955 3.02245,-0.04566 6.8796,0.77435 8.00895,-2.487823" /><path
       inkscape:connector-curvature="0"
       id="path34"
       style="fill:#ee2432;fill-opacity:1;fill-rule:nonzero;stroke:none;stroke-width:0.08346996"
       d="m 207.55621,73.74098 c 0.43405,-4.088692 4.2144,-7.64301 2.48491,-11.835789 2.25452,-3.182626 -1.68443,-5.076309 -2.77538,-7.613045 -5.49232,-0.865666 -10.73341,-3.092645 -16.56461,-2.194675 -4.03661,-4.105053 3.13513,-14.43446 -6.13671,-13.395927 -1.65939,1.626663 -1.34804,4.241944 -2.00495,6.232869 -0.61184,1.8027 0.0309,4.287601 -2.17356,5.461355 -1.59261,0.191731 -3.05333,-0.167857 -4.24528,0.918838 1.64185,2.237079 -2.45319,4.428165 0.80048,5.880375 2.16521,0.378286 4.46564,0.552738 6.13504,1.84911 -0.0901,7.432082 1.37725,14.437715 5.92302,20.231699 2.60009,0.485795 3.08255,3.353406 6.12503,2.826877 5.91217,0.330959 9.38536,-4.228922 12.43201,-8.361687" /><path
       inkscape:connector-curvature="0"
       id="path36"
       style="fill:#ee2432;fill-opacity:1;fill-rule:nonzero;stroke:none;stroke-width:0.08346996"
       d="m 308.5774,70.235577 c -0.54088,-8.91693 4.11006,-22.410683 -6.53737,-27.418881 -4.31539,-1.027765 -7.0507,3.267015 -9.59237,5.518116 -1.8163,-1.866305 -1.82214,-4.808037 -3.66182,-6.957972 -1.64102,-1.965802 -3.41308,-5.021636 -6.75022,-4.481669 0.19199,2.906507 0.0451,5.747074 1.40147,8.280136 -1.11183,3.52335 0.17444,6.973999 1.11014,10.151783 -1.18026,0.932443 -0.81967,2.962516 -0.46409,4.230175 0.96826,1.005895 1.19446,3.061678 2.96068,2.711187 1.39312,-2.714443 4.48902,-1.362314 6.2928,-3.080876 2.6652,-1.677579 3.30124,-6.995533 7.90628,-6.296139 2.83881,2.00812 -0.0517,5.917853 2.17022,8.022214 -0.90815,4.221159 -1.19195,8.56093 -4.58751,11.614093 0.50332,0.545143 0.19197,1.353466 0.33889,2.062627 -1.31382,1.06132 -2.49909,1.442778 -1.55505,3.218101 1.25038,1.183604 0.48246,3.332288 2.5884,4.083851 4.96313,-2.179651 5.90216,-7.603529 8.37955,-11.656746" /><path
       inkscape:connector-curvature="0"
       id="path38"
       style="fill:#ee2432;fill-opacity:1;fill-rule:nonzero;stroke:none;stroke-width:0.08346996"
       d="m 114.29356,71.067021 c 0.0209,-4.507379 3.93395,-8.636554 1.22534,-13.110627 2.26454,-3.566754 -0.7362,-7.442265 0.39982,-11.072207 -2.89056,-4.758789 2.24618,-10.569049 -2.22698,-15.276003 -1.98074,-1.020838 -3.73194,-0.803732 -5.89798,-0.430706 -1.828,2.519124 -0.67027,6.251149 -1.6452,9.05816 1.23201,6.623425 2.60677,12.277596 1.65271,19.138076 3.16101,4.285348 -2.30294,10.296771 1.20197,14.483039 2.858,1.121586 4.38217,-1.154556 5.29032,-2.789732" /><path
       inkscape:connector-curvature="0"
       id="path40"
       style="fill:#ee2432;fill-opacity:1;fill-rule:nonzero;stroke:none;stroke-width:0.08346996"
       d="m 145.22753,70.892569 c 1.1836,-4.716054 3.64346,-8.941387 4.99985,-13.630729 0.57261,-0.25525 0.89897,-1.359642 1.74285,-0.876434 2.25453,1.845521 1.72032,4.678575 2.21279,7.28868 2.75617,3.008174 3.33713,6.992195 6.23688,10.104373 2.50577,-0.342645 5.30869,-1.526248 6.35206,-3.78745 0.68613,-5.862095 -0.73704,-10.957018 1.93984,-16.345087 0.91901,-6.111587 -1.08762,-10.98281 -1.12517,-17.431867 -1.26457,-1.126843 -2.90642,-3.740204 -5.12506,-2.89048 -1.31715,1.438855 -1.85219,3.623431 -1.18528,5.540652 1.97073,5.274551 1.36307,10.580819 1.16024,16.194174 -0.89146,0.516428 -0.89814,1.746025 -2.09593,1.833751 -3.01661,-0.504158 -3.64263,-3.795295 -5.43056,-5.726874 -1.83133,-2.013379 -2.39641,-5.611685 -6.32869,-4.794598 -4.40554,1.646195 -2.5859,7.565718 -6.57994,9.616658 0.0818,1.778578 0.86726,4.5517 -0.9215,5.87712 -3.15266,-1.202803 -2.4465,-4.867968 -2.89975,-7.631659 -2.95233,-2.728716 1.91731,-5.824617 -0.99663,-8.655083 0.69447,-3.140891 -0.14273,-7.816879 -3.10676,-9.983841 -2.47988,0.626024 -4.63341,0.954061 -5.78613,3.511664 -0.2621,7.34953 2.12765,13.921203 2.45402,21.017735 1.67273,1.824654 -0.13105,3.715081 0.7988,5.637561 2.05837,2.818697 2.61429,7.124244 6.36292,8.479046 2.8722,0.192314 5.77612,-0.795636 7.32115,-3.347312" /><path
       inkscape:connector-curvature="0"
       id="path42"
       style="fill:#ffffff;fill-opacity:1;fill-rule:nonzero;stroke:none;stroke-width:0.08346996"
       d="m 204.39187,65.976355 c 1.18694,-1.223086 0.76792,-2.148767 0.39816,-3.557657 -0.92986,-2.179317 -3.85799,-1.4558 -5.72438,-2.109202 -2.85134,-0.07696 -5.67512,-1.702036 -8.35868,-0.293815 -1.25289,2.983133 2.11178,5.54491 0.73036,8.521448 1.80045,1.999022 1.50663,5.671701 4.68266,6.444466 5.74191,0.348904 4.40304,-6.390294 8.27188,-9.00524" /><path
       inkscape:connector-curvature="0"
       id="path44"
       style="fill:#ffffff;fill-opacity:1;fill-rule:nonzero;stroke:none;stroke-width:0.08346996"
       d="m 197.8954,61.944672 c -1.75454,0.03915 -7.74434,-2.356441 -5.30368,1.967387 1.23619,1.963213 0.28881,4.654118 1.92566,6.366253 1.28459,-2.707931 3.52827,-5.076726 3.37802,-8.33364" /><path
       inkscape:connector-curvature="0"
       id="path46"
       style="fill:#ee2432;fill-opacity:1;fill-rule:nonzero;stroke:none;stroke-width:0.08346996"
       d="m 267.13623,64.593842 c 3.00158,-2.523965 4.92975,-5.039833 5.24442,-8.981201 1.72032,-4.202795 2.2971,-10.621552 -1.21114,-14.154001 -2.40144,-2.031658 -4.3755,-3.025786 -7.04403,-4.641681 -4.69436,0.286887 -10.19753,-1.571906 -12.94953,2.310366 -3.33714,3.395557 -4.52241,8.159188 -3.67936,13.006372 7.09661,3.927011 0.13522,13.004369 8.83279,16.036999 4.17183,0.280376 7.0624,-3.853975 10.80685,-3.576854" /><path
       inkscape:connector-curvature="0"
       id="path48"
       style="fill:#ffffff;fill-opacity:1;fill-rule:nonzero;stroke:none;stroke-width:0.08346996"
       d="m 266.17883,55.664226 c 0.76793,-1.623491 1.58009,-3.63687 0.91651,-5.578214 -2.98823,-1.070085 -0.52169,-5.382144 -3.96983,-6.01401 -2.91478,0.705237 -8.16587,-2.209367 -8.72512,1.994764 -0.61433,4.084519 1.33552,7.445771 2.64766,10.939824 2.79959,1.741099 7.26941,1.99802 9.13078,-1.342364" /><path
       inkscape:connector-curvature="0"
       id="path50"
       style="fill:#ffffff;fill-opacity:1;fill-rule:nonzero;stroke:none;stroke-width:0.08346996"
       d="m 263.29996,47.351453 c 0.31134,-0.81617 -0.23789,-1.536682 -0.94989,-1.67591 -1.91897,0.07003 -3.92475,-0.409253 -5.50067,0.226871 -1.00247,2.973283 -0.51668,6.255405 1.68359,8.526706 3.38637,-1.558551 0.55007,-6.412245 4.76697,-7.077667" /><path
       inkscape:connector-curvature="0"
       id="path52"
       style="fill:#ee2432;fill-opacity:1;fill-rule:nonzero;stroke:none;stroke-width:0.08346996"
       d="m 349.06033,31.153356 h -2.15686 v 1.515815 h 6.13671 v -1.515815 h -2.18107 v -6.467252 h -1.79878 v 6.467252" /><path
       inkscape:connector-curvature="0"
       id="path54"
       style="fill:#ee2432;fill-opacity:1;fill-rule:nonzero;stroke:none;stroke-width:0.08346996"
       d="m 360.70606,27.742857 c -0.0375,0.958903 -0.0734,2.108284 -0.0734,3.280453 h -0.0251 c -0.25708,-1.017666 -0.59013,-2.155278 -0.8998,-3.09106 l -0.96992,-3.116101 h -1.40814 l -0.85473,3.080293 c -0.2621,0.946465 -0.52169,2.071724 -0.72369,3.126868 h -0.0242 c -0.0309,-1.076012 -0.0801,-2.308863 -0.12938,-3.304577 l -0.15442,-3.032629 h -1.6694 l 0.51,7.983067 h 2.4031 l 0.78128,-2.676882 c 0.26209,-0.910658 0.49999,-1.905452 0.67611,-2.842904 h 0.0493 c 0.21034,0.924764 0.48413,1.966469 0.75623,2.868028 l 0.84472,2.651758 h 2.3672 l 0.42487,-7.983067 h -1.75203 l -0.12855,3.056753" /></g></svg>