<?xml version="1.0" encoding="UTF-8" standalone="no"?>
<svg
   xmlns:dc="http://purl.org/dc/elements/1.1/"
   xmlns:cc="http://creativecommons.org/ns#"
   xmlns:rdf="http://www.w3.org/1999/02/22-rdf-syntax-ns#"
   xmlns:svg="http://www.w3.org/2000/svg"
   xmlns="http://www.w3.org/2000/svg"
   xmlns:sodipodi="http://sodipodi.sourceforge.net/DTD/sodipodi-0.dtd"
   xmlns:inkscape="http://www.inkscape.org/namespaces/inkscape"
   width="498.23959"
   height="171.58357"
   viewBox="0 0 498.23959 171.58357"
   version="1.1"
   id="svg32"
   sodipodi:docname="snesh.svg"
   inkscape:version="0.92.5 (2060ec1f9f, 2020-04-08)"
   style="fill:none">
  <metadata
     id="metadata38">
    <rdf:RDF>
      <cc:Work
         rdf:about="">
        <dc:format>image/svg+xml</dc:format>
        <dc:type
           rdf:resource="http://purl.org/dc/dcmitype/StillImage" />
        <dc:title />
      </cc:Work>
    </rdf:RDF>
  </metadata>
  <defs
     id="defs36" />
  <sodipodi:namedview
     pagecolor="#ffffff"
     bordercolor="#666666"
     borderopacity="1"
     objecttolerance="10"
     gridtolerance="10"
     guidetolerance="10"
     inkscape:pageopacity="0"
     inkscape:pageshadow="2"
     inkscape:window-width="1366"
     inkscape:window-height="740"
     id="namedview34"
     showgrid="false"
     inkscape:pagecheckerboard="true"
     inkscape:zoom="1.3084412"
     inkscape:cx="301.52286"
     inkscape:cy="3.7716254"
     inkscape:window-x="0"
     inkscape:window-y="0"
     inkscape:window-maximized="1"
     inkscape:current-layer="svg32" />
  <path
     d="m 22.814009,56.958822 c 1.719649,2.866082 9.973964,16.967203 11.005753,19.374711 1.261076,2.178222 2.063579,6.076093 1.261076,9.859321 L 31.98547,103.16006 c -0.917146,4.47108 -4.815017,7.91038 -9.744677,7.91038 H 7.5664552 C 3.2100113,111.07044 0,107.5165 0,103.16006 c 0,-0.45858 0,-1.03179 0,-1.37572 L 3.7832276,79.428901 H 13.986478 l -3.324655,18.916135 c 0,0.22929 0,0.34393 0,0.34393 0,1.375724 1.146433,2.636794 2.522152,2.636794 h 5.61752 c 1.834292,0 3.439298,-1.26107 3.783227,-3.095364 L 24.762944,85.848924 C 25.221517,83.441415 24.877588,82.180339 22.699366,78.397112 20.979717,75.301744 13.986478,62.117769 11.922899,58.219898 9.2861044,53.060951 9.0568174,50.768086 9.8593204,46.411642 l 2.7514386,-15.13291 c 0.917146,-4.585731 4.92966,-7.910388 9.630034,-7.910388 h 14.78898 c 4.241801,0 7.910385,3.553944 7.910385,7.910388 0,0.458573 0,0.917146 -0.114643,1.375719 L 41.042287,54.207384 H 30.724394 l 3.210011,-18.228279 c 0.114643,-0.229286 0.114643,-0.343929 0.114643,-0.343929 0,-1.37572 -1.261075,-2.522152 -2.636795,-2.522152 h -5.617519 c -1.834292,0 -3.324655,1.261076 -3.668585,2.866081 l -1.834292,9.744678 c -0.917146,5.158946 0.229287,7.566455 2.522152,11.235039 z"
     id="path2"
     style="fill:#ff0000;stroke-width:1.14643264"
     inkscape:connector-curvature="0" />
  <path
     d="m 49.296717,98.344926 c 0,0.22928 0,0.34392 0,0.34392 0,1.375724 1.146432,2.636804 2.522152,2.636804 h 5.617519 c 1.834292,0 3.324655,-1.26108 3.783228,-3.095374 L 74.862164,23.253589 H 85.294701 L 70.620363,103.15994 c -0.917146,4.47109 -4.92966,7.91039 -9.630034,7.91039 h -14.78898 c -4.241801,0 -7.681099,-3.55394 -7.681099,-7.91039 0,-0.45857 0,-1.03179 0,-1.49036 L 52.621371,23.253589 h 10.203251 z"
     id="path4"
     style="fill:#ff0000;stroke-width:1.14643264"
     inkscape:connector-curvature="0" />
  <path
     d="m 129.3176,23.253589 h 23.73115 l -1.605,9.973963 h -13.29862 l -4.92966,27.74367 h 13.06933 l -1.71965,9.744677 h -13.18397 l -5.38824,30.609751 h 12.95469 l -1.83429,9.74468 h -23.73127 z"
     id="path6"
     style="fill:#ff0000;stroke-width:1.14643264"
     inkscape:connector-curvature="0" />
  <path
     d="m 197.87427,111.07033 15.93541,-87.816741 h 10.54718 c 4.58573,46.889093 4.70037,58.353419 4.81502,67.066304 0.34393,-9.171458 1.49036,-22.126146 9.51539,-67.066304 h 10.54718 l -15.93542,87.816741 h -10.54718 c -4.47108,-46.774454 -4.58573,-56.748418 -4.70037,-65.461305 -0.34393,10.54718 -1.49036,20.635787 -9.51539,65.461305 z"
     id="path8"
     style="fill:#ff0000;stroke-width:1.14643264"
     inkscape:connector-curvature="0" />
  <path
     d="m 251.87124,111.07033 h -10.66182 l 15.93541,-87.816741 h 10.66183 z"
     id="path10"
     style="fill:#ff0000;stroke-width:1.14643264"
     inkscape:connector-curvature="0" />
  <path
     d="m 338.77083,33.227552 h -7.22252 l -14.10112,77.842778 h -10.77647 l 14.21577,-77.842778 h -7.56646 l 1.83429,-9.973963 h 25.56545 z"
     id="path12"
     style="fill:#ff0000;stroke-width:1.14643264"
     inkscape:connector-curvature="0" />
  <path
     d="m 345.07621,23.253589 h 23.8458 l -1.71965,9.973963 h -13.18397 l -4.92966,27.74367 h 13.06933 l -1.83429,9.744677 h -13.06933 l -5.50288,30.609751 h 13.06933 l -1.83429,9.74468 h -23.8458 z"
     id="path14"
     style="fill:#ff0000;stroke-width:1.14643264"
     inkscape:connector-curvature="0" />
  <path
     d="m 259.89627,111.07033 15.93541,-87.816741 h 10.54718 c 4.58574,46.889093 4.70038,58.353419 4.81502,67.066304 0.34393,-9.171458 1.49036,-22.126146 9.51539,-67.066304 h 10.54718 l -15.93541,87.816741 h -10.54718 c -4.47109,-46.774454 -4.58573,-56.748418 -4.70037,-65.461305 -0.45858,10.54718 -1.49037,20.635787 -9.5154,65.461305 z"
     id="path16"
     style="fill:#ff0000;stroke-width:1.14643264"
     inkscape:connector-curvature="0" />
  <path
     d="m 359.97984,111.07033 15.93541,-87.816741 h 10.54718 c 4.58573,46.889093 4.70037,58.353419 4.81502,67.066304 0.34393,-9.171458 1.49036,-22.126146 9.51539,-67.066304 h 10.54718 l -15.82077,87.816741 h -10.54718 c -4.47109,-46.774454 -4.58573,-56.748418 -4.70037,-65.461305 -0.34393,10.54718 -1.49037,20.635787 -9.5154,65.461305 z"
     id="path18"
     style="fill:#ff0000;stroke-width:1.14643264"
     inkscape:connector-curvature="0" />
  <path
     d="M 75.893839,111.07033 91.829252,23.253589 h 23.043298 c 4.35644,0 7.91038,3.553941 7.91038,7.910385 0,0.458573 -0.11464,0.917146 -0.22928,1.375719 l -5.61752,31.182967 c -0.80251,4.58573 -4.70037,8.025028 -9.51539,8.025028 H 93.663544 L 86.441019,111.07033 Z M 103.8668,61.888368 c 1.83429,0 3.32465,-1.261076 3.66858,-2.866082 l 4.35645,-22.814009 c 0,-0.114643 0,-0.34393 0,-0.34393 0,-1.375719 -1.14644,-2.522151 -2.52216,-2.522151 h -8.71288 l -5.38824,28.660815 h 8.59825 z m 67.98345,13.298618 c 0,-0.114643 0,-0.229287 0,-0.34393 0,-1.375719 -1.14644,-2.522152 -2.52215,-2.522152 h -8.48361 L 153.9659,111.07033 H 143.30408 L 159.0102,23.253589 h 23.50187 c 4.35644,0 7.91039,3.553941 8.02503,7.910385 0,0.458573 -0.11464,0.917146 -0.22929,1.490362 l -4.92966,27.629026 c -0.68786,3.668584 -3.21001,6.305379 -6.76395,7.337169 2.98072,1.146432 4.35644,4.012514 4.01251,7.222525 0,0.34393 0,0.917146 -0.11464,1.375719 l -6.30538,34.622265 h -10.77647 z m -0.57322,-13.298618 c 1.83429,0 3.32466,-1.261076 3.66859,-2.980725 l 4.12715,-22.699366 c 0,-0.229286 0,-0.34393 0,-0.34393 0,-1.375719 -1.14643,-2.522151 -2.63679,-2.522151 h -8.4836 l -5.15895,28.660815 h 8.4836 z M 419.2504,23.253589 h 23.8458 c 4.35645,0 7.91039,3.553941 7.91039,7.910385 0,0.458573 -0.11465,0.917146 -0.22929,1.375719 l -12.84004,70.620247 c -0.80251,4.47109 -4.70038,7.91039 -9.5154,7.91039 h -25.22151 z m 5.73217,78.072061 c 1.83429,0 3.32465,-1.26108 3.66858,-3.095374 l 11.34968,-62.136642 c 0.11465,-0.229287 0.11465,-0.34393 0.11465,-0.34393 0,-1.375719 -1.14644,-2.522152 -2.6368,-2.522152 h -9.51539 l -12.38147,68.098098 z m 42.64729,-78.072061 h 14.78898 c 4.2418,0 7.79574,3.553941 7.79574,7.910385 0,0.458573 0,0.917146 -0.11464,1.375719 L 477.48918,103.0453 c -0.91715,4.47109 -4.92966,7.91038 -9.74468,7.91038 h -14.67433 c -4.35645,0 -7.79575,-3.55394 -7.79575,-7.91038 0,-0.45857 0,-1.03179 0,-1.49036 l 12.61076,-70.390966 c 1.14644,-4.471087 5.15895,-7.910385 9.74468,-7.910385 z m -11.34968,75.435257 c 0,1.375724 1.14643,2.636804 2.52215,2.636804 h 5.61752 c 1.94893,0 3.32465,-1.26108 3.78323,-3.095374 l 11.23504,-62.136642 c 0,-0.229287 0,-0.34393 0,-0.34393 0,-1.375719 -1.14644,-2.522152 -2.52216,-2.522152 h -5.73216 c -1.71965,0 -3.32465,1.261076 -3.66858,2.866082 l -11.23504,62.251292 c 0,0.22928 0,0.34392 0,0.34392 z"
     id="path20"
     style="fill:#ff0000;stroke-width:1.14643264"
     inkscape:connector-curvature="0" />
  <path
     d="m 161.647,138.58471 0.68786,-5.96156 c 0.11464,-0.91715 0.34393,-1.94894 0.45857,-2.86609 0.11464,-0.45857 0.22929,-1.60489 0.22929,-1.94882 -0.11465,0.45858 -0.45858,1.49025 -0.68786,1.94882 -0.34393,0.91715 -0.68786,1.94894 -1.14644,2.86609 l -2.63679,5.96156 z"
     id="path22"
     style="fill:#ff0000;stroke-width:1.14643264"
     inkscape:connector-curvature="0" />
  <path
     d="m 115.67505,129.18385 h -2.6368 l -1.49035,5.73216 h 2.75143 c 1.14643,-0.11464 2.29287,-0.91715 2.86608,-2.98072 0.57322,-2.29287 -0.11464,-2.75144 -1.49036,-2.75144 z"
     id="path24"
     style="fill:#ff0000;stroke-width:1.14643264"
     inkscape:connector-curvature="0" />
  <path
     d="m 0.9172023,119.43917 v 34.27845 H 491.01708 v -34.27845 z m 22.3553797,9.74468 h -6.305379 l -1.375719,5.27359 h 5.84692 l -0.802617,3.09537 h -5.846806 l -1.719649,6.42013 h 6.420022 l -0.802502,3.09537 H 8.8275884 l 5.3881756,-20.75054 h 9.859321 z m 22.470194,17.76982 h -3.668585 l -0.802617,-7.45181 c -0.229287,-2.40763 -0.343815,-5.04442 -0.343815,-8.25443 -0.34393,1.71965 -0.68786,3.78322 -1.146433,5.96145 -0.458573,2.06369 -0.917261,4.12727 -1.375834,5.84692 l -1.031789,3.89787 h -3.439298 l 5.388233,-20.75055 h 3.668585 l 0.687859,7.56646 c 0.229287,2.40751 0.344045,4.92977 0.344045,8.25443 0.34393,-1.83429 0.802503,-3.89787 1.146432,-5.96157 0.458573,-1.94893 0.917032,-4.01251 1.375605,-5.8468 l 1.031789,-4.01252 h 3.439298 z M 74.17419,129.18385 h -4.0124 l -4.58573,17.76982 h -3.439298 l 4.58573,-17.76982 H 62.59522 l 0.802503,-2.98073 h 11.693613 z m 22.240792,0 h -6.305379 l -1.375719,5.27359 h 5.846806 l -0.802503,3.09537 h -5.846806 l -1.719649,6.42013 h 6.305379 l -0.802502,3.09537 h -9.859321 l 5.388233,-20.75054 h 9.859321 z m 24.648298,1.94893 c -0.57321,2.29287 -1.71965,4.70038 -4.12715,5.04431 1.94893,0.34393 2.17822,1.8344 1.71964,3.78334 -0.22928,0.91714 -1.605,5.96145 -0.91714,6.53466 l -0.11465,0.34393 h -3.89787 c -0.11464,-1.37571 0.68786,-3.89787 1.03179,-5.27359 0.34393,-1.26107 0.80251,-2.98072 -0.34393,-3.43929 -0.91714,-0.34405 -1.94893,-0.2294 -2.86607,-0.2294 h -0.57322 l -2.29286,8.94228 h -3.4393 l 5.38823,-20.75054 h 6.64931 c 2.75143,0.11464 4.70037,1.26108 3.78322,5.0443 z m 23.73116,-1.94893 h -4.01252 l -4.58573,17.76982 h -3.43929 l 4.58573,-17.76982 h -4.12716 l 0.8025,-2.98073 h 11.57897 z m 19.83328,17.76982 h -3.78323 l 0.45858,-5.27359 h -4.12716 l -2.29287,5.27359 h -3.78322 l 9.85932,-20.75055 h 4.70037 z m 17.88435,0 h -3.4393 l 5.38824,-20.75055 h 3.43929 z m 27.74367,0 h -3.66858 l -0.80251,-7.45181 c -0.22928,-2.40763 -0.34393,-5.04442 -0.34393,-8.25443 -0.34393,1.71965 -0.68786,3.78322 -1.14643,5.96145 -0.45857,2.06369 -0.91715,4.12727 -1.37572,5.84692 l -1.03179,3.89787 h -3.4393 l 5.38824,-20.75055 h 3.55394 l 0.68786,7.56646 c 0.22928,2.40751 0.34393,4.92977 0.34393,8.25443 0.34393,-1.83429 0.8025,-3.89787 1.14643,-5.96157 0.45857,-1.94893 0.91715,-4.01251 1.37572,-5.8468 l 1.03179,-4.01252 h 3.55394 z m 31.5269,0 h -3.4393 l 1.71965,-6.53467 c 1.03179,-4.12727 2.17822,-8.25443 3.55394,-12.38159 l -8.71289,18.91626 h -2.17822 l 1.26107,-18.91626 h -0.11464 c -0.8025,4.12716 -1.83429,8.25432 -2.98072,12.38159 l -1.71965,6.53467 h -3.4393 l 5.38823,-20.75055 h 5.61752 l -0.68786,9.63004 c -0.11464,1.605 -0.57321,4.12727 -0.91714,5.73227 0.68786,-2.06357 1.49036,-4.35655 2.06358,-5.73227 l 4.35644,-9.63004 h 5.50288 z m 29.11938,-17.76982 h -6.30537 l -1.37572,5.27359 h 5.8468 l -0.8025,3.09537 h -5.84681 l -1.71965,6.42013 h 6.30538 l -0.8025,3.09537 h -9.85932 l 5.38823,-20.75054 h 9.85932 z m 19.94793,17.76982 h -3.66858 l -0.80251,-7.45181 c -0.22928,-2.40763 -0.34393,-5.04442 -0.34393,-8.25443 -0.34392,1.71965 -0.68785,3.78322 -1.14643,5.96145 -0.45857,2.06369 -0.91714,4.12727 -1.37572,5.84692 l -1.03179,3.89787 h -3.43929 l 5.38823,-20.75055 h 3.55394 l 0.8025,7.56646 c 0.22929,2.40751 0.34393,4.92977 0.34393,8.25443 0.34393,-1.83429 0.80251,-3.89787 1.14644,-5.96157 0.45857,-1.94893 0.91714,-4.01251 1.37571,-5.8468 l 1.03179,-4.01252 h 3.55395 z m 28.8901,-17.76982 h -4.01251 l -4.58573,17.76982 h -3.55394 l 4.58573,-17.76982 h -4.12716 l 0.8025,-2.98073 h 11.69362 z m 38.17621,3.32465 h -3.32466 c 0.45858,-1.83429 0.80251,-3.66858 -1.03178,-3.66858 -1.14644,0 -2.06358,0.57321 -2.40751,1.94893 -0.45858,1.60501 0.34393,2.17823 1.26107,2.98073 0.91715,0.8025 2.6368,2.29286 3.32466,3.4393 0.91714,1.26119 0.91714,2.52226 0.45857,4.35655 -1.03179,3.89788 -3.89787,5.96145 -7.33717,5.96145 -4.2418,0 -5.0443,-2.63679 -4.01251,-6.30538 l 0.34393,-1.49036 h 3.4393 l -0.34393,1.26108 c -0.57322,2.06358 -0.45858,3.4393 1.26107,3.4393 1.49036,0 2.40751,-0.80251 2.75144,-2.40751 0.34393,-1.26108 0,-2.06358 -0.68786,-2.75144 -1.37572,-1.60512 -3.4393,-2.75155 -4.2418,-4.81513 -0.34393,-0.91715 -0.34393,-2.06358 -0.11464,-3.21001 0.91714,-3.55394 3.21001,-5.50288 6.87859,-5.50288 5.73216,-0.11464 4.2418,4.70037 3.78323,6.76395 z m 19.37471,5.61764 -2.29286,8.82753 h -3.4393 l 2.29286,-8.82753 -1.71965,-11.92302 h 3.78323 l 0.57322,5.50288 c 0.11464,1.03179 0.11464,2.06358 0,3.21001 0.68786,-1.60501 1.49036,-2.75144 2.17822,-3.89787 l 2.86608,-4.70037 h 3.78323 z m 29.34868,-5.61764 h -3.32466 c 0.45857,-1.83429 0.8025,-3.66858 -1.03179,-3.66858 -1.14643,0 -2.06358,0.57321 -2.40751,1.94893 -0.45857,1.60501 0.34393,2.17823 1.26108,2.98073 0.91714,0.8025 2.63679,2.29286 3.32465,3.4393 0.80251,1.26119 0.91715,2.52226 0.45858,4.35655 -1.03179,3.89788 -3.89787,5.96145 -7.33717,5.96145 -4.2418,0 -5.04431,-2.63679 -4.01252,-6.30538 l 0.34393,-1.49036 h 3.55394 l -0.34393,1.26108 c -0.57321,2.06358 -0.45857,3.4393 1.26108,3.4393 1.49036,0 2.40751,-0.80251 2.86608,-2.40751 0.34393,-1.26108 0,-2.06358 -0.68786,-2.75144 -1.37572,-1.60512 -3.32465,-2.75155 -4.2418,-4.81513 -0.34393,-0.91715 -0.34393,-2.06358 -0.11464,-3.21001 0.91714,-3.55394 3.21001,-5.50288 6.87859,-5.50288 5.38824,-0.11464 4.01252,4.70037 3.55395,6.76395 z m 23.50186,-3.32465 H 426.129 l -4.58573,17.76982 h -3.4393 l 4.58573,-17.76982 h -4.12716 l 0.80251,-2.98073 h 11.69361 z m 23.38723,0 h -6.42002 l -1.37572,5.27359 h 5.8468 l -0.8025,3.09537 h -5.84681 l -1.71964,6.42013 h 6.30537 l -0.8025,3.09537 h -9.85932 l 5.38823,-20.75054 h 9.85932 z m 26.13866,17.76982 h -3.4393 l 1.71965,-6.53467 c 1.03179,-4.12727 2.17823,-8.25443 3.55394,-12.38159 l -8.71288,18.91626 h -2.17823 l 1.26108,-18.91626 h -0.11464 c -0.80251,4.12716 -1.8343,8.25432 -2.98073,12.38159 l -1.71965,6.53467 h -3.43929 l 5.38823,-20.75055 h 5.61752 l -0.68786,9.63004 c -0.11464,1.605 -0.57322,4.12727 -0.91715,5.73227 0.68786,-2.06357 1.49037,-4.35655 2.06358,-5.73227 l 4.35645,-9.63004 h 5.50287 z"
     id="path26"
     style="fill:#ff0000;stroke-width:1.14643264"
     inkscape:connector-curvature="0" />
  <path
     d="m 486.08742,111.07021 h -0.8025 v -7.45181 h -2.75144 v -0.8025 h 6.42003 v 0.8025 h -2.86609 z"
     id="path28"
     style="fill:#ff0000;stroke-width:1.14643264"
     inkscape:connector-curvature="0" />
  <path
     d="m 494.2271,109.57985 2.75143,-6.76395 h 1.26108 v 8.25431 h -0.8025 v -7.10788 l -2.98073,7.10788 h -0.45857 l -2.98073,-7.10788 v 7.10788 h -0.8025 v -8.25431 h 1.26108 z"
     id="path30"
     style="fill:#ff0000;stroke-width:1.14643264"
     inkscape:connector-curvature="0" />
  <g
     aria-label="[HACKS]"
     transform="matrix(2.157844,-0.51428943,0.58119693,2.6463694,-259.12461,186.89393)"
     style="font-style:normal;font-weight:normal;font-size:40px;line-height:125%;font-family:sans-serif;letter-spacing:0px;word-spacing:0px;fill:#ffffff;fill-opacity:1;stroke:none;stroke-width:1px;stroke-linecap:butt;stroke-linejoin:miter;stroke-opacity:1"
     id="flowRoot52">
    <path
       inkscape:connector-curvature="0"
       d="m 162.07617,-12.482817 q 0.41016,-0.03906 0.41016,-0.136719 l 0.625,0.07813 1.77734,-0.01953 h 0.0195 v 2.480469 q -0.8789,-0.117188 -0.8789,-0.292969 l -0.60547,0.09766 -0.0781,-0.07813 h -0.0781 q -0.0977,0.117188 -0.89844,0.175781 0.0977,0.5859378 0.29297,0.839844 -0.15625,0.7617188 -0.46875,1.09375 l 0.0781,0.3125 -0.0781,0.234375 0.0781,0.625 -0.0781,0.078125 0.0781,0.390625 v 0.234375 l -0.0781,1.09375 0.0781,0.078125 v 0.078125 l -0.15625,0.46875 0.23438,1.40625 v 0.234375 l -0.15625,0.625 v 0.390625 q 0,0.5664063 0.23437,1.40625001 l -0.0781,0.234375 0.0781,1.09375 V 1.052339 l -0.3125,1.25 q 0.39063,1.3867188 0.39063,1.875 -0.23438,0 -0.23438,0.3125 l 0.0781,0.46875 -0.0781,0.625 0.0781,0.078125 -0.0781,0.078125 v 0.078125 q 0,1.40625 0.3125,3.046875 l -0.3125,0.859375 0.15625,1.015625 -0.0781,0.625 0.15625,0.46875 v 0.3125 q 0,0.371094 -0.23438,0.78125 l 0.0781,0.703125 q -0.0977,0 -0.3125,0.78125 0.0977,0.410156 0.39062,0.625 l 0.0781,0.3125 -0.0781,0.546875 0.0781,0.07813 -0.23438,2.8125 0.0781,0.3125 -0.23438,0.9375 0.0781,0.859375 -0.0781,0.625 0.23438,1.09375 -0.0781,0.664063 0.58594,0.117187 1.38672,-0.253906 0.66406,0.09766 -0.0391,2.167969 -0.0781,0.07813 -0.0781,-0.07813 h -0.3125 l -1.62109,0.253906 q -0.91797,-0.03906 -1.46485,-0.09766 V 25.36875 l -1.36718,-0.07813 0.21484,-1.503906 q -0.21484,0 -0.3125,-1.171875 l 0.0781,-0.3125 v -0.625 l 0.23438,-0.625 -0.23438,-1.015625 0.0781,-0.234375 q -0.0781,-1.015625 -0.23438,-1.015625 l 0.0781,-0.390625 -0.0781,-0.3125 q 0.39063,-0.429687 0.39063,-1.484375 l -0.15625,-0.15625 v -0.07813 l 0.0781,-0.3125 -0.15625,-0.3125 0.15625,-0.625 -0.23437,-1.25 0.3125,-0.546875 -0.15625,-0.46875 0.0781,-0.07813 v -0.07813 l -0.0781,-0.78125 0.23437,-0.703125 q -0.3125,-0.46875 -0.3125,-1.40625 l 0.15625,-0.703125 q 0,-0.546875 -0.15625,-0.859375 l 0.0781,-0.859375 v -0.70311 l -0.0781,-0.078125 0.15625,-0.625 -0.0781,-0.3125 0.0781,-0.234375 -0.23437,-0.46875 0.23437,-1.25 -0.0781,-1.5625 q 0,-1.015625 0.23437,-1.64062499 -0.54687,-0.80078125 -0.54687,-1.09375 v -0.234375 l 0.3125,-1.48437501 v -1.09375 l -0.15625,-0.546875 0.15625,-1.328125 q 0,-0.3710937 -0.39063,-1.171875 0,-0.390625 0.54688,-1.09375 v -0.15625 l -0.23438,-0.234375 v -0.078125 h 0.15625 v -0.078125 q -0.3125,-0.3125 -0.3125,-0.546875 l 0.0781,-0.625 -0.0781,-0.078125 q 0.23438,-0.078125 0.23438,-0.46875 -0.0195,-1.171875 -0.15625,-1.171875 l 0.23437,-0.859375 -0.0781,-0.46875 v -0.07813 q 0,-0.234375 1.01562,-0.3125 v -0.07813 q 0.72266,0.03906 1.05469,0.292969 z"
       style="font-style:normal;font-variant:normal;font-weight:normal;font-stretch:normal;font-family:'Top Secret';-inkscape-font-specification:'Top Secret';fill:#ffffff"
       id="path68" />
    <path
       inkscape:connector-curvature="0"
       d="m 179.57617,-7.541411 h 1.44531 q 0.25391,0.3515625 2.89063,0.546875 l 0.17578,-0.1953125 h 0.19531 l 2.51953,0.3710938 2.89063,-0.546875 1.26953,0.546875 q 0,2.1679687 -1.79687,2.1679687 l -0.3711,1.2695313 v 1.4453125 l 0.3711,1.44531246 v 1.07421875 q 0,1.32812499 -0.54688,3.08593749 l 0.54688,2.1679688 -0.3711,2.34375 0.3711,2.1679687 -0.3711,0.742188 0.17578,0.527343 -0.17578,2.167969 0.3711,1.269531 -0.19532,0.917969 q 0,1.035156 1.81641,3.066406 l -0.54688,0.722657 h -0.54687 l -1.99219,-0.371094 q -0.89844,0.05859 -0.89844,0.371094 l -2.34375,-0.546875 h -0.54687 q 0,0.546875 -0.54688,0.546875 v -0.175782 q -1.38671,0.527344 -3.96484,0.722657 -1.09375,0 -1.09375,-1.269532 h -0.17578 q 1.79687,-1.835937 1.79687,-2.539062 l 0.72266,-4.511719 -0.72266,-1.269531 0.91797,-2.714844 V 7.6539015 L 180.47461,7.2828078 179.75195,7.458589 178.13086,7.2828078 V 7.458589 q -1.44531,-0.2539062 -1.44531,-1.4453125 v -0.546875 l 0.35156,-0.3515625 h 1.62109 l 0.19532,0.1757813 q 1.79687,-1.328125 1.79687,-5.05859379 L 179.75195,-1.760161 q 0.89844,-1.171875 0.89844,-1.796875 0,-1.3085937 -2.71484,-2.7148437 v -0.546875 q 0.2539,-0.7226563 1.64062,-0.7226563 z m -11.21094,0.1757813 2.16797,0.3710937 1.6211,-0.1953125 2.71484,0.1953125 1.26953,-0.1953125 1.07422,0.3710938 v 1.0742187 q -2.14844,1.5429688 -2.34375,2.5390625 l 0.54688,3.61328126 V 1.8531203 l 0.17578,0.9179687 -0.72266,1.25 v 1.4453125 q 0.54688,0.6640625 0.54688,1.2695313 l -0.3711,1.9921875 0.72266,2.8906247 q -0.89844,0.585938 -0.89844,2.167969 0.54688,0.898438 0.54688,2.363281 v 0.351563 l -0.3711,0.546875 v 0.175781 q 0,0.371094 1.09375,0.546875 0.11719,0.839844 1.26953,1.621094 v 0.546875 l -0.19531,0.175781 -0.52734,0.195313 v 0.175781 q -3.39844,-0.371094 -5.42969,-1.09375 -2.20703,0.195312 -4.88281,0.917969 h -1.09375 l -0.89844,-1.269532 v -0.175781 q 0,-1.152344 1.81641,-1.640625 v -2.890625 l -0.54688,-1.074219 q 0.72266,-1.09375 0.72266,-1.640625 h -0.17578 l 0.35156,-0.898437 -0.17578,-0.175781 v -0.195313 l 0.17578,-0.175781 V 9.9976515 l -0.17578,-0.7226562 0.35156,-0.546875 -0.17578,-0.546875 Q 167.0957,7.224214 167.0957,5.114839 l -1.09375,-1.8164062 0.3711,-2.34375004 q -0.41016,0 -0.54688,-0.8984375 0.41016,-2.16796876 1.09375,-2.16796876 -0.85937,-2.2851562 -2.16797,-4.3554687 l 0.72266,-0.3515625 1.07422,0.1757812 h 0.17578 q 0.97656,-0.7226562 1.64062,-0.7226562 z m 25.625,-2.8906253 q -0.33203,0.03906 -0.70312,0.03906 l -1.5625,-0.07813 -1.25,0.234375 -0.46875,-0.234375 -0.23438,0.07813 -0.3125,-0.07813 -0.625,0.15625 -0.0781,-0.07813 h -0.70313 l -0.85937,0.07813 q -0.3125,-0.15625 -0.85938,-0.15625 l -0.70312,0.15625 q -0.9375,0 -1.40625,-0.3125 l -0.70313,0.234375 -0.78125,-0.07813 h -0.0781 l -0.0781,0.07813 -0.46875,-0.15625 -0.54687,0.3125 -1.25,-0.234375 -0.625,0.15625 -0.3125,-0.15625 -0.3125,0.07813 h -0.0781 l -0.15625,-0.15625 q -1.05468,0 -1.48437,0.3906248 l -0.3125,-0.078125 -0.39063,0.078125 q 0,-0.1562498 -1.01562,-0.2343748 l -0.23438,0.07813 -1.01562,-0.234375 -0.625,0.234375 h -0.625 l -0.3125,0.07813 q -1.17188,-0.09766 -1.17188,-0.3125 l -1.64062,0.234375 -1.40625,-0.07813 -1.25,0.15625 -1.09375,-0.234375 h -1.64063 q -0.11718,0.117187 -0.64453,0.195312 v -2.441406 l 0.80078,0.136719 q 0.42969,0 0.85938,-0.234375 0.48828,0 0.9375,0.234375 l 1.25,-0.234375 1.79687,0.15625 v -0.07813 h 0.15625 l 0.23438,0.15625 0.625,-0.15625 h 0.39062 l 0.46875,0.15625 1.32813,-0.15625 1.09375,0.234375 0.625,-0.07813 0.85937,0.07813 0.9375,-0.234375 0.3125,0.07813 2.8125,-0.234375 0.0781,0.07813 0.54687,-0.07813 0.3125,0.07813 q 0.21485,0.292969 0.625,0.390625 0.78125,-0.214844 0.78125,-0.3125 l 0.70313,0.07813 q 0.41016,-0.234375 0.78125,-0.234375 h 0.3125 l 0.46875,0.15625 0.625,-0.07813 1.01562,0.15625 0.85938,-0.3125 q 1.64062,0.3125 3.04687,0.3125 h 0.0781 l 0.0781,-0.07813 0.0781,0.07813 0.625,-0.07813 0.46875,0.07813 q 0.3125,0 0.3125,-0.234375 0.48828,0 1.875,0.390625 l 0.85937,-0.214844 z m 0,35.703125 -0.8789,-0.175781 -0.78125,0.3125 v -0.07813 q -0.74219,0 -1.40625,0.234375 l -0.78125,-0.15625 q -1.48438,0 -2.26563,0.3125 -1.5625,-0.546875 -2.10937,-0.546875 h -0.39063 q -0.9375,0.3125 -1.79687,0.390625 l -0.23438,-0.234375 h -0.23437 v 0.15625 h -0.23438 q 0,-0.234375 -0.39062,-0.234375 h -0.15625 l -0.0781,0.07813 -0.39062,-0.234375 h -0.23438 q -0.15625,0.15625 -0.625,0.15625 l -0.39062,0.390625 -2.1875,-0.546875 h -0.0781 l -1.01562,0.46875 -0.0781,-0.07813 h -0.70312 q -0.11719,0 -0.23438,-0.3125 l -1.71875,0.234375 q -0.42968,-0.15625 -1.09375,-0.15625 -0.33203,0 -0.70312,0.234375 l -0.46875,-0.234375 h -0.39063 l -0.85937,0.07813 -0.9375,-0.234375 q -0.9961,0.214844 -1.17188,0.46875 l -0.39062,-0.234375 q -0.60547,0 -1.17188,0.546875 -0.33203,-0.07813 -0.625,-0.390625 -1.32812,-0.292969 -1.32812,-0.46875 l -0.625,0.15625 -0.0781,-0.07813 h -0.0781 l -0.46875,0.15625 -0.17578,-0.01953 V 23.31796 l 0.41015,0.07813 0.9375,-0.234375 h 0.23438 l 0.625,0.15625 0.0781,-0.07813 0.70313,0.07813 0.3125,-0.15625 0.3125,0.15625 h 0.85937 l 0.625,-0.234375 h 0.0781 l 0.0781,0.07813 1.25,-0.3125 0.78125,0.390625 h 0.70313 l 0.78125,-0.07813 0.15625,0.15625 0.15625,-0.15625 0.9375,0.07813 h 0.78125 l 0.39062,0.07813 0.23438,-0.234375 0.70312,0.234375 0.3125,-0.07813 h 0.0781 l 0.0781,0.07813 0.46875,-0.234375 0.85938,0.15625 0.54687,-0.07813 1.09375,0.3125 2.1875,-0.3125 0.0781,0.07813 0.39062,-0.07813 0.46875,0.07813 1.17188,-0.15625 q 0.60547,0 1.40625,0.234375 h 0.0781 Q 185.66989,23.0836 185.9238,23.0836 h 0.23437 q 0.46875,0 0.9375,0.46875 l 0.9375,-0.15625 0.3125,0.07813 0.3125,-0.07813 h 0.625 q 0.44922,-0.3125 0.70313,-0.3125 l 0.625,0.07813 h 0.0781 l 0.0781,-0.07813 0.39062,0.234375 0.46875,-0.234375 0.46875,0.15625 q 0.29297,-0.234375 0.70313,-0.234375 h 0.23437 l 0.625,0.234375 h 0.33203 z"
       style="font-style:normal;font-variant:normal;font-weight:normal;font-stretch:normal;font-family:'Top Secret';-inkscape-font-specification:'Top Secret';fill:#ffffff"
       id="path70" />
    <path
       inkscape:connector-curvature="0"
       d="m 210.8457,-7.463286 0.17578,0.1757813 0.3711,0.3515625 h 0.17578 l -0.35156,1.4453125 0.72265,1.9921875 0.72266,0.7226562 v 3.7890625 q 0.52734,0.4882813 1.42578,4.3359375 l 0.72266,0.7226563 -0.17578,0.1757812 v 0.7226563 l 0.17578,0.7226562 -0.17578,0.7226563 1.09375,3.2421877 h -0.19532 l 0.54688,0.898437 -0.54688,0.917969 q 0.625,0 1.09375,2.167969 l -0.17578,1.25 q 0,0.546875 1.6211,1.09375 l 0.52734,1.445312 -0.72266,0.527344 h -0.17578 l -0.52734,-0.351562 h -0.3711 l -2.34375,0.722656 h -0.17578 l -0.72265,-0.175781 -0.72266,0.175781 h -0.37109 l -0.89844,-0.546875 -3.78906,0.546875 q -0.9375,0 -1.44532,-0.898438 v -0.195312 q 1.09375,-0.664063 1.09375,-2.34375 l -0.37109,-1.25 0.17578,-0.195313 -0.35156,-1.621093 0.17578,-0.175782 v -0.722656 h -1.62109 l -1.44532,0.351563 q -0.46875,-0.351563 -1.79687,-0.351563 l -0.19531,-0.175781 v -1.640625 q 0,-0.351563 1.09375,-0.527344 l 0.72265,0.722656 h 1.25 l 0.91797,-0.195312 -0.54687,-3.0664065 0.17578,-1.0742187 q -0.54688,0 -1.26953,-3.9648438 l 0.19531,-0.546875 -1.62109,-5.78125 0.17578,-0.5273437 -0.17578,-1.640625 q 0.13671,-1.0742188 1.07421,-1.0742188 l 0.89844,0.1757813 z m -8.65234,6.1328125 h 0.17578 l 0.17578,0.54687501 -0.17578,0.52734375 0.17578,1.81640624 q 0,2.3632813 -1.07422,3.7890625 0,2.265625 -1.44531,5.058594 l 0.17578,0.527344 -0.17578,1.269531 0.17578,1.269531 -0.54687,0.175781 0.17578,1.074219 -0.52735,1.445313 v 0.175781 q 0,1.582031 2.34375,1.816406 h 0.35157 v 0.175781 q 0,2.167969 -1.25,2.167969 h -2.16797 q -0.60547,0 -1.26953,-0.546875 l -2.51953,0.546875 q -0.70313,0 -1.26954,-1.992187 v -0.351563 q 2.16797,0 2.16797,-1.992187 1.66016,-1.660157 3.06641,-5.761719 l -0.17578,-0.5468752 1.97265,-6.6796875 0.3711,-0.3710938 -0.17578,-0.5273437 q 0,-2.20703129 1.44531,-3.6132813 z m 19.04297,-9.0039065 q -0.44922,-0.136718 -0.44922,-0.234375 l -0.625,0.15625 -0.0781,-0.07813 h -0.0781 l -0.46875,0.15625 -0.85938,-0.07813 -2.34375,0.4687503 -1.95312,-0.2343753 -1.17188,0.07813 -0.0781,-0.07813 -0.3125,0.07813 h -0.9375 l -1.01563,-0.3125 h -0.625 l -0.78125,0.234375 h -0.0781 q -1.03516,0 -1.40625,-0.234375 l -0.54688,0.15625 -1.5625,-0.15625 q 0,0.117188 -1.09375,0.234375 l -0.70312,-0.07813 h -0.9375 q -2.05078,0 -2.26563,0.3125003 h -0.39062 l -2.34375,-0.3906253 -0.46875,0.07813 -0.85938,-0.15625 -1.40625,0.15625 h -0.3125 l -1.17187,0.3125003 q -0.85938,0 -1.09375,-0.6250003 0.39062,-0.585937 0.39062,-1.25 l -0.0781,-0.3125 q 0,-0.546875 1.09375,-0.546875 l 1.64062,0.234375 q 0.29297,-0.234375 0.70313,-0.234375 h 0.3125 q 0.39062,0 0.46875,0.234375 l 2.1875,-0.234375 1.64062,0.46875 1.25,-0.390625 v 0.07813 l 1.01563,-0.234375 0.46875,0.07813 0.3125,-0.07813 0.23437,0.234375 h 0.23438 l 0.23437,-0.234375 0.70313,0.15625 1.17187,-0.15625 q 0.27344,0.234375 1.17188,0.3125 l 0.39062,-0.234375 0.39063,0.234375 0.39062,-0.07813 0.3125,0.07813 0.54688,-0.07813 1.25,0.15625 1.32812,-0.3125 1.09375,0.15625 0.46875,-0.07813 h 1.25 l 0.70313,-0.234375 0.54687,0.15625 0.23438,-0.07813 0.54687,0.15625 h 0.0781 l 0.0781,-0.07813 1.09375,0.234375 0.3125,-0.07813 0.78125,0.15625 0.9375,-0.234375 h 0.23438 l 0.29297,0.07813 z m 0,35.898438 -0.27344,-0.07813 -2.1875,0.3125 -0.0781,-0.07813 -0.39063,0.07813 -0.46875,-0.07813 -1.17187,0.15625 q -0.60547,0 -1.40625,-0.234375 h -0.0781 q -0.29297,0.234375 -0.54687,0.234375 h -0.23438 q -0.46875,0 -0.9375,-0.46875 l -0.9375,0.15625 -0.3125,-0.07813 -0.3125,0.07813 h -0.625 q -0.44922,0.3125 -0.70312,0.3125 l -0.625,-0.07813 h -0.0781 l -0.0781,0.07813 -0.39063,-0.234375 -0.46875,0.234375 -0.46875,-0.15625 q -0.29297,0.234375 -0.70312,0.234375 h -0.23438 l -0.625,-0.234375 q -1.5625,0 -3.04687,0.234375 -0.72266,0 -1.25,-0.46875 0,0.3125 -1.09375,0.390625 l -0.46875,-0.07813 -0.54688,0.15625 q -1.03516,-0.15625 -1.25,-0.3125 h -0.0781 l -0.0781,0.07813 -1.71875,-0.15625 q -0.99609,0 -1.25,0.3125 h -0.15625 l -0.3125,-0.234375 -0.46875,0.15625 -0.0781,-0.07813 h -0.23438 q -0.48828,0.15625 -1.875,0.234375 l -0.54687,-0.3125 v -0.07813 l 0.0781,-0.07813 q 0.3125,-0.117188 0.3125,-0.234375 v -0.07813 l -0.23437,-0.234375 0.15625,-0.546875 v -0.07813 q 0,-0.15625 -0.23438,-0.15625 v -0.3125 l 0.3125,-0.546875 q 0.89844,0 1.5625,0.234375 0.89844,0 1.17188,-0.3125 h 0.39062 l 1.32813,0.234375 h 0.23437 l 0.85938,-0.234375 q 1.66015,0.253906 1.95312,0.46875 h 0.3125 q 0.39063,0 0.46875,-0.234375 h 0.0781 l 0.0781,0.07813 h 0.3125 q 0,-0.15625 1.79688,-0.390625 l 0.46875,0.07813 h 0.0781 l 0.0781,-0.07813 q 0.3125,0.117187 0.3125,0.234375 l 0.54687,-0.07813 h 0.54688 l 2.03125,0.390625 0.78125,-0.3125 v 0.07813 q 0.74218,0 1.40625,-0.234375 l 0.78125,0.15625 q 1.48437,0 2.26562,-0.3125 1.5625,0.546875 2.10938,0.546875 h 0.39062 q 0.9375,-0.3125 1.79688,-0.390625 l 0.23437,0.234375 h 0.23438 v -0.15625 h 0.23437 q 0,0.234375 0.39063,0.234375 h 0.15625 l 0.0781,-0.07813 0.39063,0.234375 h 0.23437 q 0.15625,-0.15625 0.625,-0.15625 l 0.39063,-0.390625 1.28906,0.332031 z"
       style="font-style:normal;font-variant:normal;font-weight:normal;font-stretch:normal;font-family:'Top Secret';-inkscape-font-specification:'Top Secret';fill:#ffffff"
       id="path72" />
    <path
       inkscape:connector-curvature="0"
       d="m 231.99805,-7.5218797 0.52734,0.1757812 v 1.5820313 q 0,1.2109375 -1.77734,1.40625 l 0.17578,0.1757812 -0.52735,0.8984375 0.17579,1.2304688 -0.35157,0.3515625 v 1.23046871 l 0.17578,0.17578125 -0.17578,0.17578125 v 0.17578125 l 0.35157,1.40625004 V 1.989839 q -1.05469,2.5195313 -1.05469,3.5351563 l 1.05469,3.1640625 -0.35157,1.0546875 v 1.2499997 l 0.52735,2.460938 -0.52735,1.582031 v 0.703125 q 0,0.9375 2.48047,3.007813 l -0.35156,1.230468 h -0.17578 q -0.91797,0 -1.60156,-0.527343 h -0.35157 l -1.58203,0.175781 q -0.83984,-0.136719 -1.40625,-0.878906 l -3.71094,-1.953125 0.35157,-0.878907 q -1.23047,-0.273437 -1.23047,-0.878906 l 0.17578,-0.175781 v -0.175781 l -1.75781,-4.394532 q 0.35156,-0.7812497 0.35156,-2.832031 l -0.52734,-2.8125 q 0,-3.73046874 2.10937,-4.76562499 l 0.17578,-0.17578125 v -0.17578125 l -0.52734,-0.87890621 q 0.44922,-0.8984375 1.58203,-1.5820313 0.29297,-1.2890625 4.0625,-3.5351562 0,-0.4101563 3.71094,-1.0546875 z m 3.86718,0.1757812 q 0,0.46875 2.65625,1.40625 1.23047,0 2.28516,-1.2304687 h 0.35156 q 0.87891,0.4492187 0.87891,1.5820312 0,0.8789063 -0.35156,0.8789063 0.35156,0.4296875 0.52734,2.8320312 l -0.17578,2.9882813 0.52734,1.40625 q -0.50781,1.25 -1.58203,1.25 0,-0.46875 -0.8789,-0.703125 l -1.40625,-4.765625 q -0.44922,0 -1.42579,-1.2304688 -0.8789,-0.1367187 -0.8789,-0.5273437 l 0.17578,-0.7226563 q -0.87891,-0.6445312 -2.63672,-0.8789062 0,-1.9335938 1.05469,-1.9335938 0,-0.3515625 0.8789,-0.3515625 z m 6.17188,19.5703125 0.17578,0.175781 q -0.21484,2.734375 -1.05469,4.042969 -1.23047,0 -1.23047,1.425781 l -2.65625,0.878907 V 18.57187 l -1.93359,1.933594 h -1.05469 q -0.70312,-0.292969 -0.70312,-1.230469 V 18.57187 q 0,-0.3125 4.57031,-2.304687 1.95313,-4.042969 3.88672,-4.042969 z m 3.67187,13.398438 -0.3125,0.09766 -0.23437,-0.07813 -0.46875,0.15625 q 0,-0.390625 -1.09375,-0.46875 l -1.32813,0.3125 h -0.625 l -0.70312,-0.07813 h -0.0781 l -0.0781,0.07813 -0.85938,-0.07813 h -0.39062 l -0.23438,-0.15625 h -0.23437 l -0.46875,0.15625 -0.23438,-0.15625 q 0,0.15625 -1.64062,0.234375 -0.15625,-0.15625 -0.9375,-0.234375 0,0.15625 -0.70313,0.234375 0,-0.195313 -0.85937,-0.3125 h -0.85938 l -0.54687,0.234375 -1.64063,-0.3125 -0.54687,0.15625 h -0.0781 l -0.0781,-0.07813 -0.54688,0.15625 -1.32812,-0.234375 -0.625,0.234375 h -0.0781 l -0.0781,-0.07813 -1.17188,0.15625 -1.09375,-0.3125 -1.5625,0.3125 -1.48437,-0.07813 -0.625,0.07813 q 0,-0.136719 -0.78125,-0.15625 h -0.54688 l -0.15625,-0.15625 v -0.15625 l 0.15625,-0.625 v -0.234375 l -0.15625,-0.234375 v -0.3125 q 0,-0.546875 0.625,-0.625 1.50391,0.07813 1.64063,0.234375 h 0.0781 l 0.0781,-0.07813 0.3125,0.15625 q 0,-0.292969 2.34375,-0.390625 l 1.32812,0.3125 h 0.3125 l 0.0781,-0.07813 0.0781,0.07813 h 0.15625 l 0.39063,-0.07813 0.46875,0.07813 h 0.3125 l 1.01562,-0.15625 0.85938,0.15625 h 0.78125 l 0.70312,0.234375 1.09375,-0.234375 h 0.0781 l 0.70312,0.07813 1.09375,-0.3125 0.9375,0.234375 h 0.78125 l 0.0781,-0.07813 0.0781,0.07813 h 0.3125 l 0.70313,0.07813 2.34375,-0.234375 0.23437,0.07813 0.23438,-0.07813 0.3125,0.07813 h 0.0781 l 0.0781,-0.07813 0.54687,0.07813 0.9375,-0.15625 1.25,0.15625 1.17188,-0.3125 0.70312,0.117187 z m 0,-35.644532 -1.03515,0.136719 q -0.60547,0 -1.40625,-0.234375 h -0.0781 q -0.29297,0.234375 -0.54687,0.234375 h -0.23438 q -0.46875,0 -0.9375,-0.46875 l -0.9375,0.15625 -0.3125,-0.07813 -0.3125,0.07813 h -0.625 q -0.44922,0.3125 -0.70312,0.3125 l -0.625,-0.078125 h -0.0781 l -0.0781,0.078125 -0.39063,-0.234375 -0.46875,0.234375 -0.46875,-0.15625 q -0.29297,0.234375 -0.70312,0.234375 h -0.23438 l -0.625,-0.234375 q -1.5625,0 -3.04687,0.234375 -0.72266,0 -1.25,-0.46875 0,0.3125 -1.09375,0.390625 l -0.46875,-0.078125 -0.54688,0.15625 q -1.03515,-0.15625 -1.25,-0.3125 h -0.0781 l -0.0781,0.07813 -1.71875,-0.15625 q -0.99609,0 -1.25,0.3125 h -0.15625 l -0.3125,-0.234375 -0.46875,0.15625 -0.0781,-0.078125 h -0.23438 q -0.48828,0.15625 -1.875,0.234375 l -0.54687,-0.3125 v -0.07813 l 0.0781,-0.07813 q 0.3125,-0.117187 0.3125,-0.234375 v -0.07813 l -0.23437,-0.234375 0.15625,-0.546875 v -0.07813 q 0,-0.15625 -0.23438,-0.15625 v -0.3125 l 0.3125,-0.546875 q 0.89844,0 1.5625,0.234375 0.89844,0 1.17188,-0.3125 h 0.39062 l 1.32813,0.234375 h 0.23437 l 0.85938,-0.234375 q 1.66015,0.253906 1.95312,0.46875 h 0.3125 q 0.39063,0 0.46875,-0.234375 h 0.0781 l 0.0781,0.07813 h 0.3125 q 0,-0.15625 1.79688,-0.390625 l 0.46875,0.07813 h 0.0781 l 0.0781,-0.07813 q 0.3125,0.117188 0.3125,0.234375 l 0.54687,-0.07813 h 0.54688 l 2.03125,0.390625 0.78125,-0.3125 v 0.07813 q 0.74219,0 1.40625,-0.234375 l 0.78125,0.15625 q 1.48437,0 2.26562,-0.3125 1.5625,0.546875 2.10938,0.546875 h 0.39062 q 0.9375,-0.3125 1.79688,-0.390625 l 0.23437,0.234375 h 0.23438 v -0.15625 h 0.23437 q 0,0.05859 0.0195,0.09766 z"
       style="font-style:normal;font-variant:normal;font-weight:normal;font-stretch:normal;font-family:'Top Secret';-inkscape-font-specification:'Top Secret';fill:#ffffff"
       id="path74" />
    <path
       inkscape:connector-curvature="0"
       d="m 248.59961,-7.4828172 q 1.64062,0 2.71484,0.9179687 h 0.3711 l 1.26953,-0.1953125 v 0.1953125 l 0.17578,-0.1953125 h 0.91797 q 2.34375,0 3.26172,-0.3515625 l 0.89843,0.3515625 v 1.2695313 q -1.62109,1.2695312 -1.62109,2.3632812 l 0.17578,2.53906251 -0.17578,3.08593749 h 0.17578 l -0.17578,0.1757813 v 0.9179687 l 0.17578,1.0742188 -0.17578,0.1953125 V 5.036714 l 0.17578,0.7226563 -0.17578,3.4375 v 0.7226562 l 0.35156,1.4648435 v 0.722657 l -0.54687,2.363281 q 0,3.808594 1.64062,3.808594 l 0.72266,1.074218 q 0,0.605469 -2.16797,0.917969 l -1.64062,-0.195312 -1.81641,0.195312 h -0.89844 l -1.99219,-0.195312 -0.19531,0.195312 h -0.17578 l -1.09375,-0.195312 -1.07422,0.371093 -1.46484,-0.546875 h -0.72266 l -0.17578,-0.722656 q 0,-0.488281 1.99219,-1.640625 l 0.91797,-3.613281 -0.19532,-1.269531 0.19532,-0.546875 -0.74219,-5.2539067 0.19531,-1.09375 V 4.3140578 l 0.17578,-0.1953125 -0.54687,-1.4453125 0.54687,-2.16796879 -0.37109,-3.08593751 0.19531,-0.9179687 q 0,-0.9765625 -1.64062,-1.4453125 l -0.35157,-0.7226563 v -0.1757812 l 0.72266,-0.7226563 0.17578,0.1757813 h 0.3711 z m 20.3125,0.3710937 h 1.81641 q 0.33203,0 1.09375,1.2695313 -0.76172,1.2695312 -2.73438,1.2695312 -0.27344,0.5273438 -2.53906,2.1679688 0,0.8007812 -1.44531,1.99218746 -0.17579,0.72265625 -0.72266,0.72265625 v 0.1953125 q 1.58203,3.45703129 1.99219,5.97656249 l -0.17578,0.7226563 q 1.05468,2.4804687 1.62109,2.5390625 0,1.5429687 1.26953,3.2617187 0.72266,1.269531 0.72266,2.734375 l 0.91797,1.796875 q 0.97656,0 1.99218,1.640625 v 0.175781 q 0,0.410157 -1.26953,0.722657 l -0.72265,-0.175782 -1.44532,0.546875 -2.1875,-0.371093 h -3.63281 l -2.89062,0.195312 q -1.09375,-0.429687 -1.09375,-0.722656 V 19.35312 q 0,-0.683593 0.91796,-1.621093 v -1.640625 q 0,-2.441407 -2.1875,-6.1718755 L 258.0332,6.8531203 q 0.44922,-0.15625 2.53907,-4.53125 1.83593,0 3.26171,-4.9023438 v -0.546875 q -0.0391,-0.4101562 -2.16796,-1.9921875 l -0.19532,-1.09375 0.72266,-0.7226562 2.1875,0.1757812 z m 5.64453,32.6562505 q -0.27344,-0.05859 -0.27344,-0.117188 l -0.23437,0.15625 -0.46875,-0.15625 h -0.23438 l -0.23437,0.15625 h -0.39063 l -0.85937,0.07813 -0.0781,-0.07813 h -0.0781 l -0.70313,0.07813 h -0.625 l -1.32812,-0.3125 q -1.09375,0.07813 -1.09375,0.46875 l -0.46875,-0.15625 -0.23438,0.07813 -0.46875,-0.15625 -0.46875,0.07813 q -0.80078,-0.09766 -0.9375,-0.234375 h -1.64062 l -1.09375,0.234375 -1.25,-0.15625 -1.40625,0.07813 -1.64063,-0.234375 q 0,0.214844 -1.17187,0.3125 l -0.3125,-0.07813 h -0.625 l -0.625,-0.234375 -1.01563,0.234375 -0.23437,-0.07813 q -1.01563,0.07813 -1.01563,0.234375 l -0.39062,-0.07813 -0.3125,0.07813 q -0.42969,-0.390625 -1.48438,-0.390625 l -0.15625,0.15625 h -0.0781 l -0.3125,-0.07813 -0.3125,0.15625 -0.625,-0.15625 -1.25,0.234375 -0.54688,-0.3125 -0.46875,0.15625 -0.0781,-0.07813 h -0.0781 l -0.78125,0.07813 -0.70312,-0.234375 q -0.23438,0.15625 -0.58594,0.234375 V 23.10312 l 0.11719,-0.01953 0.625,0.07813 0.46875,-0.15625 h 0.3125 q 0.39062,0 0.78125,0.234375 l 0.70312,-0.07813 q 0,0.09766 0.78125,0.3125 0.41016,-0.09766 0.625,-0.390625 l 0.3125,-0.07813 0.54688,0.07813 0.0781,-0.07813 2.8125,0.234375 0.3125,-0.07813 0.9375,0.234375 0.85938,-0.07813 0.625,0.07813 1.09375,-0.234375 1.32812,0.15625 0.46875,-0.15625 h 0.39063 l 0.625,0.15625 0.23437,-0.15625 h 0.15625 v 0.07813 l 1.79688,-0.15625 1.25,0.234375 q 0.44922,-0.234375 0.9375,-0.234375 0.42969,0.234375 0.85937,0.234375 l 2.42188,-0.390625 1.17187,0.3125 1.25,-0.15625 0.9375,0.15625 0.54688,-0.07813 0.0781,0.07813 h 0.0781 l 0.3125,-0.07813 0.23437,0.07813 0.23438,-0.07813 2.05078,0.214844 z m -0.15625,-35.683594 q -0.23437,-0.03906 -0.60547,-0.292969 h -0.625 l -0.3125,-0.07813 -0.3125,0.07813 -0.9375,-0.15625 q -0.46875,0.46875 -0.9375,0.46875 h -0.23437 q -0.25391,0 -0.54688,-0.234375 h -0.0781 q -0.80078,0.234375 -1.40625,0.234375 l -1.17188,-0.15625 -0.46875,0.07813 -0.39062,-0.07813 -0.0781,0.07813 -2.1875,-0.3125 -1.09375,0.3125 -0.54687,-0.07813 -0.85938,0.15625 -0.46875,-0.234375 -0.0781,0.07813 h -0.0781 l -0.3125,-0.07813 -0.70312,0.234375 -0.23438,-0.234375 -0.39062,0.07813 h -0.78125 l -0.9375,0.07813 -0.15625,-0.15625 -0.15625,0.15625 -0.78125,-0.07813 h -0.70313 l -0.78125,0.390625 -1.25,-0.3125 -0.0781,0.07813 h -0.0781 l -0.625,-0.234375 h -0.85937 l -0.3125,0.15625 -0.3125,-0.15625 -0.70313,0.07813 -0.0781,-0.07813 -0.625,0.15625 h -0.23438 l -0.9375,-0.234375 -0.78125,0.15625 -0.3125,-0.07813 -1.09375,0.234375 -0.0781,-0.07813 h -0.0781 l -0.54687,0.15625 -0.23438,-0.07813 -0.54687,0.15625 -0.15625,-0.058594 v -2.792968 l 0.39062,-0.03906 2.34375,0.46875 0.85938,-0.07813 0.46875,0.15625 h 0.0781 l 0.0781,-0.07813 0.625,0.15625 q 0,-0.175781 1.32812,-0.46875 0.29297,-0.3125 0.625,-0.390625 0.56641,0.546875 1.17188,0.546875 l 0.39062,-0.234375 q 0.17578,0.253906 1.17188,0.46875 l 0.9375,-0.234375 0.85937,0.07813 h 0.39063 l 0.46875,-0.234375 q 0.37109,0.234375 0.70312,0.234375 0.66406,0 1.09375,-0.15625 l 1.71875,0.234375 q 0.11719,-0.3125 0.23438,-0.3125 h 0.70312 l 0.0781,-0.07813 1.01562,0.46875 h 0.0781 l 2.1875,-0.546875 0.39062,0.390625 q 0.46875,0 0.625,0.15625 h 0.23438 l 0.39062,-0.234375 0.0781,0.07813 h 0.15625 q 0.39062,0 0.39062,-0.234375 h 0.23438 v 0.15625 h 0.23437 l 0.23438,-0.234375 q 0.85937,0.07813 1.79687,0.390625 h 0.39063 q 0.54687,0 2.10937,-0.546875 0.70313,0.292969 1.99219,0.3125 z"
       style="font-style:normal;font-variant:normal;font-weight:normal;font-stretch:normal;font-family:'Top Secret';-inkscape-font-specification:'Top Secret';fill:#ffffff"
       id="path76" />
    <path
       inkscape:connector-curvature="0"
       d="m 281.91992,-7.5218797 q 1.75781,0.3515625 1.75781,0.703125 v 0.5273437 q 0,1.328125 -2.10937,1.953125 l -0.72266,2.1289063 q 1.01563,2.65624996 2.12891,2.65624996 0.13672,0.5078125 3.73047,1.40625004 2.73437,2.4804687 4.23828,2.4804687 0,0.3125 1.77734,1.7773438 v 1.2304687 q 0.52735,0 0.52735,0.3515625 l -0.17578,0.7226563 q 0.70312,0.9570312 0.70312,3.1835937 -0.41016,0 -0.70312,3.183594 -1.79688,1.914062 -3.35938,4.433594 -4.02344,1.230468 -5.48828,1.230468 h -0.17578 q -0.3711,0 -0.54688,-1.054687 0.3125,-1.777344 1.60157,-1.777344 1.75781,0 1.95312,-1.601562 v -1.582032 q -0.83984,-3.359375 -4.43359,-3.359375 -0.17578,-0.566406 -3.00782,-1.425781 0,-0.5273437 -2.83203,-1.5820312 Q 275.82617,5.583589 275.37695,5.583589 V 4.6851515 l -1.42578,-1.9335937 0.87891,-1.77734379 -0.52735,-1.77734375 0.52735,-0.17578125 V -1.8578172 q 2.34375,-3.7304688 3.90625,-4.4335938 l 0.17578,0.1953125 h 0.17578 q 0.52734,0 2.83203,-1.4257812 z m 10.27344,0 h 0.17578 q 0.17578,1.2304687 0.52734,1.2304687 l -0.17578,0.8984375 0.17578,1.0546875 -0.52734,1.953125 v 0.1757813 l 0.70313,1.95312496 v 0.52734375 q 0,0.83984379 -1.07422,1.75781249 h -0.87891 V 0.27108901 q -2.10937,-3.39843751 -2.65625,-3.73046871 -2.94922,-1.4453125 -3.35937,-1.9335938 V -5.744536 q 0,-1.4257812 0.70312,-1.4257812 3.45703,0.4882812 4.08203,1.0742187 h 0.70313 q 0,-1.1523437 1.60156,-1.4257812 z m -17.1875,17.34375 h 0.54687 q 0.70313,0.1953127 1.40625,1.9531247 v 0.175782 l -0.17578,0.878906 q 1.15235,0.976562 1.95313,3.730469 v 0.175781 h 0.8789 l 2.83204,2.109375 v 0.898437 q 0,0.527344 -1.95313,0.527344 -0.0977,-0.429687 -1.23047,-0.878906 l -0.17578,0.175781 h -0.17578 q -1.07422,-0.429687 -1.07422,-0.722656 -1.17187,0 -2.10937,1.425781 h -0.54688 l -0.52734,-0.878906 0.17578,-0.898438 -0.35156,-0.351562 v -1.230469 l -0.35157,-1.074219 0.35157,-1.40625 v -1.25 l -0.17579,-0.703125 q 0.23438,-2.6562497 0.70313,-2.6562497 z m 20.99609,-20.0781253 -0.64453,0.05859 -0.23437,-0.07813 -0.23438,0.07813 -0.3125,-0.07813 h -0.0781 l -0.0781,0.07813 -0.54687,-0.07813 -0.9375,0.15625 -1.25,-0.15625 -1.17188,0.3125 -2.42187,-0.390625 q -0.42969,0 -0.85938,0.234375 -0.48828,0 -0.9375,-0.234375 l -1.25,0.234375 -1.79687,-0.15625 v 0.07813 h -0.15625 l -0.23438,-0.15625 -0.625,0.15625 h -0.39062 l -0.46875,-0.15625 -1.32813,0.15625 -1.09375,-0.234375 -0.625,0.07813 -0.85937,-0.07813 -0.9375,0.234375 -0.3125,-0.07813 -2.5,0.214844 v -2.460938 l 0.0781,-0.01953 h 0.0781 l 0.15625,0.15625 q 1.05468,0 1.48437,-0.390625 l 0.3125,0.07813 0.39063,-0.07813 q 0,0.15625 1.01562,0.234375 l 0.23438,-0.07813 1.01562,0.234375 0.625,-0.234375 h 0.625 l 0.3125,-0.07813 q 1.17188,0.09766 1.17188,0.3125 l 1.64062,-0.234375 1.40625,0.07813 1.25,-0.15625 1.09375,0.234375 h 1.64063 q 0.13672,-0.136719 0.9375,-0.234375 l 0.46875,0.07813 0.46875,-0.15625 0.23437,0.07813 0.46875,-0.15625 q 0,0.390625 1.09375,0.46875 l 1.32813,-0.3125 h 0.625 l 0.70312,0.07813 h 0.0781 l 0.0781,-0.07813 0.85938,0.07813 h 0.39062 l 0.0195,0.01953 z m 0,35.585938 q -1.15234,0.03906 -2.46093,0.292969 l -0.85938,-0.3125 -1.01562,0.15625 -0.625,-0.07813 -0.46875,0.15625 h -0.3125 q -0.3711,0 -0.78125,-0.234375 l -0.70313,0.07813 q 0,-0.09766 -0.78125,-0.3125 -0.41016,0.09766 -0.625,0.390625 l -0.3125,0.07813 -0.54687,-0.07813 -0.0781,0.07813 -2.8125,-0.234375 -0.3125,0.07813 -0.9375,-0.234375 -0.85937,0.07813 -0.625,-0.07813 -1.09375,0.234375 -1.32813,-0.15625 -0.46875,0.15625 h -0.39062 l -0.625,-0.15625 -0.23438,0.15625 h -0.15625 v -0.07813 l -1.79687,0.15625 -1.07422,-0.195313 V 23.025 l 0.60547,-0.136718 1.25,0.15625 1.40625,-0.07813 1.64062,0.234375 q 0,-0.214844 1.17188,-0.3125 l 0.3125,0.07813 h 0.625 l 0.625,0.234375 1.01562,-0.234375 0.23438,0.07813 q 1.01562,-0.07813 1.01562,-0.234375 l 0.39063,0.07813 0.3125,-0.07813 q 0.42968,0.390625 1.48437,0.390625 l 0.15625,-0.15625 h 0.0781 l 0.3125,0.07813 0.3125,-0.15625 0.625,0.15625 1.25,-0.234375 0.54687,0.3125 0.46875,-0.15625 0.0781,0.07813 h 0.0781 l 0.78125,-0.07813 0.70313,0.234375 q 0.46875,-0.3125 1.40625,-0.3125 l 0.70312,0.15625 q 0.54688,0 0.85938,-0.15625 l 0.85937,0.07813 h 0.70313 l 0.0781,-0.07813 0.19531,0.03906 z"
       style="font-style:normal;font-variant:normal;font-weight:normal;font-stretch:normal;font-family:'Top Secret';-inkscape-font-specification:'Top Secret';fill:#ffffff"
       id="path78" />
    <path
       inkscape:connector-curvature="0"
       d="m 296.60742,-12.482817 q 0.33203,-0.253906 1.05469,-0.292969 v 0.07813 q 1.01562,0.07813 1.01562,0.3125 v 0.07813 l -0.0781,0.46875 0.23437,0.859375 q -0.13671,0 -0.15625,1.171875 0,0.390625 0.23438,0.46875 l -0.0781,0.078125 0.0781,0.625 q 0,0.234375 -0.3125,0.546875 v 0.078125 h 0.15625 v 0.078125 l -0.23438,0.234375 v 0.15625 q 0.54688,0.703125 0.54688,1.09375 -0.39063,0.8007813 -0.39063,1.171875 l 0.15625,1.328125 -0.15625,0.546875 v 1.09375 l 0.3125,1.48437501 v 0.234375 q 0,0.29296875 -0.54687,1.09375 0.23437,0.62499999 0.23437,1.64062499 l -0.0781,1.5625 0.23437,1.25 -0.23437,0.46875 0.0781,0.234375 -0.0781,0.3125 0.15625,0.625 -0.0781,0.078125 v 0.703125 l 0.0781,0.859375 q -0.15625,0.3125 -0.15625,0.859375 l 0.15625,0.703125 q 0,0.9375 -0.3125,1.40625 l 0.23437,0.703125 -0.0781,0.78125 v 0.07813 l 0.0781,0.07813 -0.15625,0.46875 0.3125,0.546875 -0.23437,1.25 0.15625,0.625 -0.15625,0.3125 0.0781,0.3125 v 0.07813 l -0.15625,0.15625 q 0,1.054688 0.39063,1.484375 l -0.0781,0.3125 0.0781,0.390625 q -0.15625,0 -0.23438,1.015625 l 0.0781,0.234375 -0.23438,1.015625 0.23438,0.625 v 0.625 l 0.0781,0.3125 q -0.0976,1.171875 -0.3125,1.171875 l 0.21485,1.503906 -1.36719,0.07813 v 0.195313 q -0.54687,0.05859 -1.46484,0.09766 l -1.32813,-0.3125 h -0.3125 l -0.0781,0.07813 -0.0781,-0.07813 -0.0391,-2.167969 0.66406,-0.09766 1.09375,0.3125 0.58594,-0.117187 -0.0781,-0.664063 0.23438,-1.09375 -0.0781,-0.625 0.0781,-0.859375 -0.23438,-0.9375 0.0781,-0.3125 -0.23438,-2.8125 0.0781,-0.07813 -0.0781,-0.546875 0.0781,-0.3125 q 0.29297,-0.214844 0.39062,-0.625 -0.21484,-0.78125 -0.3125,-0.78125 l 0.0781,-0.703125 q -0.23438,-0.410156 -0.23438,-0.78125 v -0.3125 l 0.15625,-0.46875 -0.0781,-0.625 0.15625,-1.015625 -0.3125,-0.859375 q 0.3125,-1.640625 0.3125,-3.046875 v -0.07815 l -0.0781,-0.078125 0.0781,-0.078125 -0.0781,-0.625 0.0781,-0.46875 q 0,-0.3125 -0.23438,-0.3125 0,-0.4882812 0.39063,-1.875 l -0.3125,-1.25 V 0.73983901 l 0.0781,-1.09375 -0.0781,-0.234375 q 0.23437,-0.83984371 0.23437,-1.40625001 v -0.390625 l -0.15625,-0.625 v -0.234375 l 0.23438,-1.40625 -0.15625,-0.46875 v -0.078125 l 0.0781,-0.078125 -0.0781,-1.09375 v -0.234375 l 0.0781,-0.390625 -0.0781,-0.078125 0.0781,-0.625 -0.0781,-0.234375 0.0781,-0.3125 q -0.3125,-0.3320312 -0.46875,-1.09375 0.19532,-0.2539062 0.29297,-0.839844 -0.80078,-0.05859 -0.89843,-0.175781 h -0.0781 l -0.0781,0.07813 -0.3125,-0.15625 q 0,0.175781 -0.87891,0.292969 v -2.480469 h 0.0195 l 1.48438,0.07813 0.625,-0.07813 q 0,0.09766 0.41015,0.136719 z"
       style="font-style:normal;font-variant:normal;font-weight:normal;font-stretch:normal;font-family:'Top Secret';-inkscape-font-specification:'Top Secret';fill:#ffffff"
       id="path80" />
  </g>
</svg>
