<?xml version="1.0" encoding="UTF-8" standalone="no"?>
<!-- Created with Inkscape (http://www.inkscape.org/) -->

<svg
   xmlns:dc="http://purl.org/dc/elements/1.1/"
   xmlns:cc="http://creativecommons.org/ns#"
   xmlns:rdf="http://www.w3.org/1999/02/22-rdf-syntax-ns#"
   xmlns:svg="http://www.w3.org/2000/svg"
   xmlns="http://www.w3.org/2000/svg"
   xmlns:sodipodi="http://sodipodi.sourceforge.net/DTD/sodipodi-0.dtd"
   xmlns:inkscape="http://www.inkscape.org/namespaces/inkscape"
   width="406.43353"
   height="151.46635"
   viewBox="0 0 107.53553 40.075474"
   version="1.1"
   id="svg8"
   sodipodi:docname="snesmsu1.svg"
   inkscape:version="0.92.5 (2060ec1f9f, 2020-04-08)">
  <defs
     id="defs2">
    <clipPath
       id="clp9">
      <path
         id="path17491"
         d="m 582.39,1071.7 -3.63,2.1 v 0.3 l 3.63,-2.1 v -0.3"
         inkscape:connector-curvature="0" />
    </clipPath>
    <clipPath
       id="clp8">
      <path
         id="path17485"
         d="M 564.1,1054.8 H 660 v 26.2 h -95.9 z"
         inkscape:connector-curvature="0" />
    </clipPath>
    <clipPath
       id="clp14">
      <path
         id="path17527"
         d="m 584.85,1073.4 -6.11,3.6 -8.06,-4.7 2.49,-1.5 5.59,3.3 3.63,-2.1 2.46,1.4"
         inkscape:connector-curvature="0" />
    </clipPath>
    <clipPath
       id="clp13">
      <path
         id="path17521"
         d="M 564.1,1054.8 H 660 v 26.2 h -95.9 z"
         inkscape:connector-curvature="0" />
    </clipPath>
    <clipPath
       id="clp19">
      <path
         id="path17561"
         d="m 573.17,1064.4 5.61,-3.2 5.6,3.2 -0.28,0.2 -5.35,-3.1 -5.3,3.1 -0.28,-0.2"
         inkscape:connector-curvature="0" />
    </clipPath>
    <clipPath
       id="clp18">
      <path
         id="path17555"
         d="M 564.1,1054.8 H 660 v 26.2 h -95.9 z"
         inkscape:connector-curvature="0" />
    </clipPath>
    <clipPath
       id="clp24">
      <path
         id="path17595"
         d="m 584.38,1064.4 v 3.4 l -0.28,-0.2 v -3.1 l 0.28,-0.1"
         inkscape:connector-curvature="0" />
    </clipPath>
    <clipPath
       id="clp23">
      <path
         id="path17589"
         d="M 564.1,1054.8 H 660 v 26.2 h -95.9 z"
         inkscape:connector-curvature="0" />
    </clipPath>
    <clipPath
       id="clp29">
      <path
         id="path17629"
         d="m 578.75,1063.3 v 4.3 l -3.77,2.2 v -4.4 l 3.77,-2.1"
         inkscape:connector-curvature="0" />
    </clipPath>
    <clipPath
       id="clp28">
      <path
         id="path17623"
         d="M 564.1,1054.8 H 660 v 26.2 h -95.9 z"
         inkscape:connector-curvature="0" />
    </clipPath>
    <clipPath
       id="clp34">
      <path
         id="path17663"
         d="m 578.75,1067.6 8.09,4.7 v -9.3 l -8.06,-4.7 v 2.9 l 5.6,3.2 v 3.4 l -1.83,-1.1 v -1.3 l -3.8,-2.1 v 4.3"
         inkscape:connector-curvature="0" />
    </clipPath>
    <clipPath
       id="clp33">
      <path
         id="path17657"
         d="M 564.1,1054.8 H 660 v 26.2 h -95.9 z"
         inkscape:connector-curvature="0" />
    </clipPath>
    <clipPath
       id="clp39">
      <path
         id="path17697"
         d="m 578.75,1067.6 -3.77,2.2 3.77,2.2 3.54,-2.1 4.28,2.5 0.27,-0.1 -8.09,-4.7"
         inkscape:connector-curvature="0" />
    </clipPath>
    <clipPath
       id="clp38">
      <path
         id="path17691"
         d="M 564.1,1054.8 H 660 v 26.2 h -95.9 z"
         inkscape:connector-curvature="0" />
    </clipPath>
    <clipPath
       id="clp44">
      <path
         id="path17731"
         d="m 570.68,1072.3 -0.01,-9.3 8.11,-4.7 v 2.9 l -5.61,3.2 v 6.4 l -2.49,1.5"
         inkscape:connector-curvature="0" />
    </clipPath>
    <clipPath
       id="clp43">
      <path
         id="path17725"
         d="M 564.1,1054.8 H 660 v 26.2 h -95.9 z"
         inkscape:connector-curvature="0" />
    </clipPath>
  </defs>
  <sodipodi:namedview
     id="base"
     pagecolor="#ffffff"
     bordercolor="#666666"
     borderopacity="1.0"
     inkscape:pageopacity="0.0"
     inkscape:pageshadow="2"
     inkscape:zoom="1.6748047"
     inkscape:cx="214.90483"
     inkscape:cy="5.3008367"
     inkscape:document-units="mm"
     inkscape:current-layer="layer1"
     showgrid="false"
     units="px"
     inkscape:pagecheckerboard="true"
     inkscape:window-width="1366"
     inkscape:window-height="740"
     inkscape:window-x="0"
     inkscape:window-y="0"
     inkscape:window-maximized="1" />
  <metadata
     id="metadata5">
    <rdf:RDF>
      <cc:Work
         rdf:about="">
        <dc:format>image/svg+xml</dc:format>
        <dc:type
           rdf:resource="http://purl.org/dc/dcmitype/StillImage" />
        <dc:title />
      </cc:Work>
    </rdf:RDF>
  </metadata>
  <g
     inkscape:label="Layer 1"
     inkscape:groupmode="layer"
     id="layer1"
     transform="translate(-10.013661,-245.48156)">
    <path
       inkscape:connector-curvature="0"
       id="path988"
       d="m 74.300104,284.1893 c -0.823894,-2.18257 -0.861358,-2.26619 -1.015401,-2.26619 -0.08112,0 -0.147501,0.79317 -0.147501,1.76259 v 1.76259 H 71.959156 70.78111 l 0.04496,-4.07075 0.04494,-4.07075 h 1.242453 1.242453 l 0.587794,1.64458 c 0.323288,0.90452 0.648568,1.58381 0.722843,1.50953 0.07427,-0.0743 0.157141,-0.81433 0.184144,-1.64458 l 0.04909,-1.50953 h 1.091128 1.091129 l 0.04492,4.05686 0.04491,4.05686 -1.182424,0.0558 -1.182424,0.0558 z m 4.931918,1.25899 c -0.466177,-0.12894 -0.800081,-0.37983 -1.11094,-0.83471 -0.421042,-0.61612 -0.418858,-5.68314 0.0027,-6.39688 0.418497,-0.70845 1.163304,-0.99388 2.592701,-0.99358 2.010912,5.1e-4 2.936716,0.74689 3.040385,2.45143 l 0.03977,0.65383 h -1.175063 c -1.149253,0 -1.176201,-0.01 -1.226992,-0.44934 -0.06165,-0.53337 -0.430759,-0.8858 -0.785262,-0.74976 -0.357071,0.13702 -0.375064,4.16299 -0.01992,4.45773 0.312192,0.2591 0.773183,-0.18964 0.773183,-0.75263 0,-0.22422 0.05665,-0.41144 0.125898,-0.41605 0.06925,-0.004 0.579138,-0.0234 1.133096,-0.042 l 1.007196,-0.0336 0.05084,0.69757 c 0.02797,0.38368 -0.06015,0.96323 -0.195811,1.28791 -0.382978,0.9166 -0.89541,1.15576 -2.531648,1.1816 -0.779209,0.0123 -1.553293,-0.0154 -1.720187,-0.0616 z m 33.258338,-0.0185 c -0.0504,-0.0817 -0.0774,-1.52731 -0.06,-3.21251 l 0.0318,-3.064 -0.56773,-0.0839 c -0.55819,-0.0825 -0.56775,-0.0981 -0.56775,-0.92327 v -0.83933 l 2.72783,-0.0461 2.72782,-0.0461 v 0.92742 0.92743 h -0.65092 c -0.358,0 -0.73389,0.10002 -0.83533,0.22222 -0.11475,0.13825 -0.20179,1.35917 -0.23039,3.23142 l -0.0459,3.0092 -1.21881,0.023 c -0.67034,0.0126 -1.26011,-0.0437 -1.31059,-0.12545 z m -102.43177,-4.05229 0.04495,-4.07075 h 1.593117 1.593117 l 0.307162,1.17507 c 0.16894,0.64628 0.38031,1.45833 0.469712,1.80455 0.08941,0.34623 0.226723,0.6295 0.305158,0.6295 0.07844,0 0.3127,-0.69874 0.520588,-1.55276 0.555485,-2.28197 0.432671,-2.16146 2.144948,-2.10472 l 1.459496,0.0484 0.04496,4.07075 0.04496,4.07075 h -1.178047 -1.178045 v -1.83661 c 0,-1.01014 -0.0614,-1.87456 -0.13644,-1.92094 -0.117659,-0.0727 -0.786837,1.87755 -1.130903,3.29592 -0.0896,0.36939 -0.207558,0.46163 -0.590273,0.46163 -0.513149,0 -0.438924,0.16585 -1.371132,-3.06355 -0.09995,-0.34622 -0.245296,-0.6295 -0.323008,-0.6295 -0.138355,0 -0.155193,0.25876 -0.166575,2.55996 l -0.0056,1.13309 h -1.246537 -1.246537 l 0.04496,-4.07075 z m 9.400492,0 0.04496,-4.07075 h 2.26619 2.26619 v 0.83933 0.83933 l -1.007196,0.0839 -1.007196,0.0839 v 0.58753 0.58753 l 0.881296,0.0508 c 0.484713,0.0279 0.886744,0.10348 0.893401,0.16787 0.0067,0.0644 0.02555,0.45705 0.04196,0.87253 l 0.02987,0.75539 -0.923263,0.0839 -0.923263,0.0839 v 0.58753 0.58752 l 1.007196,0.0839 1.007196,0.0839 0.05073,0.88129 0.05074,0.8813 h -2.361881 -2.36188 z m 5.203817,0.0121 0.04498,-4.08289 2.182257,5e-4 c 3.497785,10e-4 3.944779,0.448 3.943653,3.94428 -8.39e-4,2.39156 -0.153258,3.12829 -0.766961,3.70551 -0.412052,0.38756 -0.553929,0.40981 -2.940922,0.46131 l -2.507984,0.0541 0.04498,-4.08289 z m 3.452657,2.01065 c 0.13164,-0.13164 0.20144,-0.82547 0.20144,-2.00241 0,-1.43452 -0.0552,-1.85615 -0.271284,-2.07224 -0.529427,-0.52943 -0.650422,-0.21016 -0.699551,1.84596 -0.02616,1.095 -0.0096,2.08974 0.03669,2.21052 0.10537,0.27459 0.467302,0.28356 0.732699,0.0181 z m 3.429874,-2.02279 0.04496,-4.07075 h 1.258995 1.258994 l 0.04496,4.07075 0.04496,4.07075 h -1.348896 -1.348897 z m 3.157604,3.86091 c 0.0039,-0.1154 0.362734,-1.94724 0.797363,-4.07075 l 0.79023,-3.86091 1.611347,-0.0478 c 1.160754,-0.0343 1.658185,0.0125 1.77884,0.16787 0.09212,0.11858 0.485592,1.83971 0.874377,3.82472 0.388786,1.98501 0.745378,3.74131 0.792428,3.90289 0.07612,0.26138 -0.05412,0.29376 -1.181565,0.29376 -1.246842,0 -1.268661,-0.008 -1.364237,-0.46163 -0.159943,-0.76017 -0.340538,-0.96523 -0.850073,-0.96523 -0.434544,0 -0.500085,0.0737 -0.635055,0.71343 l -0.150499,0.71343 h -1.235144 c -0.880009,0 -1.233093,-0.0604 -1.228012,-0.20984 z m 3.55304,-3.99789 c -0.05602,-0.83582 -0.154756,-1.00738 -0.377277,-0.65552 -0.182563,0.28868 -0.213478,1.22994 -0.0459,1.39752 0.275359,0.27535 0.468647,-0.0635 0.423177,-0.742 z m 5.879301,0.13698 0.04496,-4.07075 2.42119,-0.0468 c 1.41001,-0.0272 2.462536,0.0201 2.52019,0.11342 0.05445,0.0882 0.07179,0.50232 0.03853,0.92047 l -0.06047,0.76028 -1.032862,0.0496 -1.032863,0.0496 v 0.58753 0.58753 l 0.889755,0.0511 0.889753,0.051 -0.05042,0.87223 -0.05042,0.87224 -0.83933,0.0839 c -0.831336,0.0832 -0.83933,0.0895 -0.83933,0.67147 v 0.58752 l 1.082348,0.0839 1.082346,0.0839 0.0087,0.88131 0.0087,0.88131 -2.562941,-2e-5 -2.56294,-10e-6 0.04496,-4.07075 z m 5.539576,0 0.04496,-4.07075 1.208996,-0.0491 c 1.192705,-0.0485 1.212501,-0.0423 1.468827,0.45329 0.142907,0.27635 0.259831,0.57548 0.259831,0.66473 0,0.0892 0.168815,0.52737 0.375146,0.97358 l 0.375147,0.81128 0.08649,-1.42687 0.08649,-1.42686 h 1.258994 1.258994 l 0.04496,4.07075 0.04496,4.07075 h -1.247304 -1.247303 l -0.458727,-1.21702 c -0.2523,-0.66937 -0.572511,-1.44316 -0.711578,-1.71953 -0.233298,-0.46363 -0.262952,-0.47661 -0.383479,-0.16786 -0.07184,0.18404 -0.13594,0.95783 -0.142428,1.71952 l -0.01179,1.38489 H 50.80809 49.630043 Z m 7.050371,0 0.04496,-4.07075 h 1.342927 1.342927 l 0.04942,1.42592 c 0.05344,1.54191 0.151304,1.77172 0.68268,1.60306 0.309447,-0.0982 0.351368,-0.26494 0.394595,-1.56943 l 0.04837,-1.45955 h 1.175061 1.175062 l 0.04496,4.07075 0.04496,4.07075 h -1.255698 -1.255679 l -0.04826,-1.55276 c -0.0476,-1.5315 -0.05401,-1.55276 -0.467931,-1.55276 -0.413917,0 -0.420326,0.0213 -0.467931,1.55276 l -0.04826,1.55276 H 58.10394 56.680392 Z m 6.929976,3.69305 c 0.05107,-0.20773 0.417409,-2.03957 0.814091,-4.07074 l 0.721239,-3.69306 h 1.749063 1.749064 l 0.79023,3.86091 c 0.434629,2.12351 0.793442,3.95535 0.797363,4.07075 0.0051,0.14951 -0.348003,0.20984 -1.22801,0.20984 h -1.235146 l -0.150499,-0.71343 c -0.13497,-0.6398 -0.200511,-0.71343 -0.635054,-0.71343 -0.509535,0 -0.69013,0.20506 -0.850073,0.96523 -0.09551,0.45393 -0.118133,0.46163 -1.356124,0.46163 -1.221224,0 -1.25621,-0.0113 -1.166144,-0.3777 z m 3.577737,-3.55841 c 0.07079,-0.60284 -0.105424,-1.30831 -0.297187,-1.18979 -0.199302,0.12318 -0.401904,1.37351 -0.259816,1.60342 0.191082,0.30917 0.49897,0.0806 0.557003,-0.41363 z m 17.190168,-0.13464 0.04495,-4.07075 h 2.350123 2.350123 v 0.83933 0.83933 l -1.091129,0.0839 -1.091128,0.0839 v 0.58753 c 0,0.58194 0.008,0.58832 0.83933,0.67146 l 0.839328,0.0839 v 0.83933 0.83933 l -0.839328,0.0839 c -0.831337,0.0832 -0.83933,0.0895 -0.83933,0.67148 v 0.58752 l 1.091128,0.0839 1.091129,0.0839 0.05074,0.88129 0.05074,0.8813 h -2.445814 -2.445813 z m 5.37171,0 0.04496,-4.07075 1.462265,-0.0484 1.462267,-0.0484 0.261689,0.92874 c 0.143931,0.5108 0.378863,1.34463 0.522071,1.85296 0.143209,0.50833 0.3252,0.92423 0.404424,0.92423 0.138808,0 0.434385,-0.89082 0.847705,-2.55488 0.108234,-0.43576 0.294547,-0.87341 0.414025,-0.97257 0.126511,-0.10499 0.767218,-0.1597 1.534111,-0.13098 l 1.316875,0.0494 0.04496,4.07075 0.04495,4.07075 H 96.977157 95.79911 v -1.93046 c 0,-2.01957 -0.185212,-2.46454 -0.50657,-1.21702 -0.101082,0.39238 -0.250821,0.94005 -0.332759,1.21702 -0.08194,0.27699 -0.231682,0.82465 -0.33276,1.21704 -0.160632,0.62358 -0.242393,0.71342 -0.649156,0.71342 -0.446474,0 -0.488103,-0.075 -1.024933,-1.84652 -0.307756,-1.01559 -0.624203,-1.84653 -0.703214,-1.84653 -0.07901,0 -0.143659,0.83094 -0.143659,1.84653 v 1.84652 h -1.178046 -1.178046 z m 9.232627,0 0.04494,-4.07075 h 2.2662 2.26619 v 0.83933 0.83933 l -1.0072,0.0839 -1.0072,0.0839 v 0.58753 0.58752 l 0.92327,0.0839 0.92326,0.0839 v 0.83933 0.83933 l -0.92326,0.0839 -0.92327,0.0839 v 0.58753 0.58753 l 1.0072,0.0839 1.0072,0.0839 0.0507,0.8813 0.0507,0.88129 h -2.36188 -2.361889 z m 5.29648,-0.0418 0.0477,-4.11284 h 1.1488 c 0.72014,0 1.2144,0.0791 1.32463,0.21187 0.0967,0.11653 0.33825,0.6642 0.53676,1.21703 0.62327,1.73584 0.70851,1.92842 0.8536,1.92842 0.0778,0 0.16304,-0.73652 0.18946,-1.63669 l 0.0481,-1.6367 h 1.0072 1.00719 l 0.0449,4.07849 0.0449,4.07849 -1.13376,-0.0497 -1.13375,-0.0497 -0.65681,-1.72062 c -0.36124,-0.94635 -0.7211,-1.72063 -0.7997,-1.72063 -0.0786,0 -0.1429,0.79317 -0.1429,1.76259 v 1.76259 l -1.21703,1.3e-4 -1.21703,1.3e-4 z M 11.026802,269.8783 c 0,-0.0695 5.457937,-5.58388 12.128746,-12.25422 L 35.284295,245.4962 h 1.468395 1.468396 v 8.22543 c 0,6.48183 0.04461,8.22543 0.210475,8.22543 0.11576,0 3.911341,-3.70144 8.434621,-8.22543 l 8.224147,-8.22543 h 1.470566 1.470565 l -0.04307,12.21225 -0.04307,12.21224 h -2.182257 -2.182257 l -0.04353,-8.35132 c -0.02395,-4.59324 -0.09976,-8.35133 -0.168495,-8.35133 -0.06873,0 -3.901661,3.77885 -8.517629,8.39745 l -8.392668,8.39746 -1.42686,-0.0461 -1.426861,-0.0461 -0.08393,-8.29542 c -0.05385,-5.32147 -0.144283,-8.31552 -0.252271,-8.35149 -0.09259,-0.0308 -3.944827,3.721 -8.560534,8.33739 l -8.392196,8.39346 h -2.644518 c -1.454485,0 -2.644518,-0.0568 -2.644518,-0.12633 z m 49.595938,-0.087 c -0.04748,-0.12375 -0.06502,-1.16505 -0.03895,-2.31401 l 0.0474,-2.08902 7.386101,-0.0839 c 5.666208,-0.0644 7.476144,-0.13529 7.772784,-0.30447 0.677778,-0.38658 1.038861,-1.18945 1.039551,-2.31145 5.03e-4,-0.91939 -0.056,-1.08674 -0.567385,-1.67866 l -0.568014,-0.65746 -5.60106,-0.0839 c -6.292419,-0.0943 -6.232251,-0.0832 -7.545587,-1.39649 -1.393742,-1.39374 -2.000323,-3.21003 -2.000323,-5.98961 0,-0.91418 0.085,-2.06243 0.188893,-2.55169 0.261027,-1.22926 1.033793,-2.69978 1.845092,-3.51108 1.279701,-1.2797 0.911818,-1.2335 10.262195,-1.2887 l 8.351332,-0.0493 v 2.34919 2.34919 l -7.260203,0.0502 c -8.012266,0.0554 -7.910444,0.0421 -8.63883,1.12422 -0.712921,1.05907 -0.413349,3.01706 0.559239,3.65516 0.421918,0.27683 1.010132,0.31503 6.015228,0.39077 l 5.547582,0.0839 0.800512,0.47056 c 0.987903,0.5807 1.98826,1.81987 2.499546,3.09624 0.348572,0.87018 0.387094,1.23924 0.38989,3.73537 0.003,2.6848 -0.01131,2.80071 -0.466803,3.77699 -0.674549,1.44582 -1.196581,2.14007 -2.096241,2.78774 l -0.791173,0.56958 -8.522217,0.0478 c -7.002492,0.0393 -8.537616,0.008 -8.608559,-0.17718 z m 26.135014,0.0233 c -1.353602,-0.39588 -2.365711,-1.4098 -2.994108,-2.99948 -0.272619,-0.68966 -0.303067,-1.65022 -0.349859,-11.03719 l -0.05125,-10.28179 h 2.357368 2.357367 l 0.0017,8.85493 0.0017,8.85493 0.398316,0.85542 c 0.270531,0.581 0.606586,0.9849 1.047521,1.259 0.625583,0.38888 0.782645,0.40552 4.316235,0.45744 3.662674,0.0538 3.668091,0.0534 4.562556,-0.38428 0.716259,-0.35044 0.96838,-0.58864 1.259453,-1.18991 0.360407,-0.7445 0.363697,-0.83858 0.339867,-9.72965 l -0.02415,-8.97788 h 2.44787 2.44787 l -0.0513,10.19785 c -0.0459,9.12538 -0.0818,10.28786 -0.34079,11.0536 -0.40838,1.20727 -1.30237,2.30688 -2.25813,2.7775 -0.80192,0.39486 -0.81549,0.3956 -7.853668,0.42503 -4.217783,0.0176 -7.277012,-0.0368 -7.61449,-0.13552 z m 25.609166,0.0831 c -0.0643,-0.0644 -0.11695,-3.38837 -0.11695,-7.38677 v -7.26982 l -2.55996,-0.0463 -2.55995,-0.0463 -0.0496,-1.33381 -0.0496,-1.33379 3.48936,-3.49235 3.48937,-3.49234 h 1.21963 1.21962 l -0.0431,12.21225 -0.0431,12.21224 -1.93942,0.047 c -1.06666,0.0258 -1.99203,-0.005 -2.05635,-0.07 z"
       style="fill:#ffffff;stroke-width:0.16786595" />
    <rect
       style="fill:#ff0000;fill-opacity:1;fill-rule:nonzero;stroke:none;stroke-width:0.419;stroke-linecap:round;stroke-linejoin:round;stroke-miterlimit:4;stroke-dasharray:none;stroke-opacity:1"
       id="rect994"
       width="107.09847"
       height="3.18945"
       x="10.450725"
       y="272.10297" />
  </g>
</svg>
