<?xml version="1.0" encoding="UTF-8" standalone="no"?>
<!-- Created with Inkscape (http://www.inkscape.org/) -->

<svg
   xmlns:dc="http://purl.org/dc/elements/1.1/"
   xmlns:cc="http://creativecommons.org/ns#"
   xmlns:rdf="http://www.w3.org/1999/02/22-rdf-syntax-ns#"
   xmlns:svg="http://www.w3.org/2000/svg"
   xmlns="http://www.w3.org/2000/svg"
   xmlns:sodipodi="http://sodipodi.sourceforge.net/DTD/sodipodi-0.dtd"
   xmlns:inkscape="http://www.inkscape.org/namespaces/inkscape"
   version="1.1"
   id="svg2"
   xml:space="preserve"
   width="500"
   height="200"
   viewBox="0 0 500 200"
   sodipodi:docname="sonic.svg"
   inkscape:version="0.92.5 (2060ec1f9f, 2020-04-08)"><metadata
     id="metadata8"><rdf:RDF><cc:Work
         rdf:about=""><dc:format>image/svg+xml</dc:format><dc:type
           rdf:resource="http://purl.org/dc/dcmitype/StillImage" /><dc:title></dc:title></cc:Work></rdf:RDF></metadata><defs
     id="defs6"><clipPath
       clipPathUnits="userSpaceOnUse"
       id="clipPath18"><path
         d="M 0,396.85 H 595.28 V 0 H 0 Z"
         id="path16"
         inkscape:connector-curvature="0" /></clipPath><clipPath
       clipPathUnits="userSpaceOnUse"
       id="clipPath34"><path
         d="m 175.135,266.175 c 0,0 -9.999,-16.667 -40.167,-28 v 0 l -4.916,-12.75 -5.334,0.083 c 0,0 -5.749,-10.584 -37.416,-24.833 v 0 h 33.083 c 0,-1 -14.388,-46.875 -33.756,-65.5 v 0 c 0,0 59.756,10.5 77.006,85.249 v 0 l 5.5,16.001 h 38 l 19.25,29.75 z"
         id="path32"
         inkscape:connector-curvature="0" /></clipPath><linearGradient
       x1="0"
       y1="0"
       x2="1"
       y2="0"
       gradientUnits="userSpaceOnUse"
       gradientTransform="matrix(91.663811,158.7664,158.7664,-91.663811,96.746582,129.33301)"
       spreadMethod="pad"
       id="linearGradient50"><stop
         style="stop-opacity:1;stop-color:#295da9"
         offset="0"
         id="stop40" /><stop
         style="stop-opacity:1;stop-color:#295da9"
         offset="0.0052356"
         id="stop42" /><stop
         style="stop-opacity:1;stop-color:#295da9"
         offset="0.33581042"
         id="stop44" /><stop
         style="stop-opacity:1;stop-color:#272e65"
         offset="0.795811"
         id="stop46" /><stop
         style="stop-opacity:1;stop-color:#272e65"
         offset="1"
         id="stop48" /></linearGradient><clipPath
       clipPathUnits="userSpaceOnUse"
       id="clipPath60"><path
         d="M 0,396.85 H 595.28 V 0 H 0 Z"
         id="path58"
         inkscape:connector-curvature="0" /></clipPath><clipPath
       clipPathUnits="userSpaceOnUse"
       id="clipPath72"><path
         d="m 191.189,251.41 -2.814,-6.94 7.784,-0.094 -7.316,-19.037 h 8.722 l 7.315,19.131 h 7.034 l 2.721,6.94 z"
         id="path70"
         inkscape:connector-curvature="0" /></clipPath><linearGradient
       x1="0"
       y1="0"
       x2="1"
       y2="0"
       gradientUnits="userSpaceOnUse"
       gradientTransform="matrix(-1.1e-6,-26.071289,-26.071289,1.1e-6,201.50488,251.41016)"
       spreadMethod="pad"
       id="linearGradient86"><stop
         style="stop-opacity:1;stop-color:#e6342a"
         offset="0"
         id="stop78" /><stop
         style="stop-opacity:1;stop-color:#e6342a"
         offset="0.0104712"
         id="stop80" /><stop
         style="stop-opacity:1;stop-color:#f9b233"
         offset="0.989529"
         id="stop82" /><stop
         style="stop-opacity:1;stop-color:#f9b233"
         offset="1"
         id="stop84" /></linearGradient><clipPath
       clipPathUnits="userSpaceOnUse"
       id="clipPath96"><path
         d="m 239.206,251.41 c -0.281,0 -3.844,-9.471 -3.844,-9.471 v 0 h -10.599 l 3.095,9.471 h -8.44 l -9.754,-26.071 h 8.536 l 3.749,9.66 h 10.973 l -3.562,-9.66 h 8.814 c 0,0 9.566,26.071 9.847,26.071 v 0 c 0.188,0 -3.667,0.001 -6.342,0.001 v 0 c -1.337,0 -2.38,0 -2.473,-0.001"
         id="path94"
         inkscape:connector-curvature="0" /></clipPath><linearGradient
       x1="0"
       y1="0"
       x2="1"
       y2="0"
       gradientUnits="userSpaceOnUse"
       gradientTransform="matrix(-1.1e-6,-26.071777,-26.071777,1.1e-6,228.84619,251.41064)"
       spreadMethod="pad"
       id="linearGradient110"><stop
         style="stop-opacity:1;stop-color:#e6342a"
         offset="0"
         id="stop102" /><stop
         style="stop-opacity:1;stop-color:#e6342a"
         offset="0.0104712"
         id="stop104" /><stop
         style="stop-opacity:1;stop-color:#f9b233"
         offset="0.989529"
         id="stop106" /><stop
         style="stop-opacity:1;stop-color:#f9b233"
         offset="1"
         id="stop108" /></linearGradient><clipPath
       clipPathUnits="userSpaceOnUse"
       id="clipPath120"><path
         d="m 252.526,251.41 -9.755,-26.071 h 23.165 l 2.439,6.847 h -14.35 l 1.031,2.907 h 14.35 l 2.625,6.751 h -14.347 l 1.031,2.627 h 14.255 l 3.001,6.939 z"
         id="path118"
         inkscape:connector-curvature="0" /></clipPath><linearGradient
       x1="0"
       y1="0"
       x2="1"
       y2="0"
       gradientUnits="userSpaceOnUse"
       gradientTransform="matrix(-1.1e-6,-26.071289,-26.071289,1.1e-6,259.37109,251.41016)"
       spreadMethod="pad"
       id="linearGradient134"><stop
         style="stop-opacity:1;stop-color:#e6342a"
         offset="0"
         id="stop126" /><stop
         style="stop-opacity:1;stop-color:#e6342a"
         offset="0.0104712"
         id="stop128" /><stop
         style="stop-opacity:1;stop-color:#f9b233"
         offset="0.989529"
         id="stop130" /><stop
         style="stop-opacity:1;stop-color:#f9b233"
         offset="1"
         id="stop132" /></linearGradient><clipPath
       clipPathUnits="userSpaceOnUse"
       id="clipPath144"><path
         d="m 309.733,251.41 -11.821,-10.502 h -1.026 l 3.751,10.502 h -8.628 l -9.847,-26.071 h 8.722 l 4.97,13.035 4.501,-13.035 h 8.816 l -4.596,14.068 13.504,12.003 z"
         id="path142"
         inkscape:connector-curvature="0" /></clipPath><linearGradient
       x1="0"
       y1="0"
       x2="1"
       y2="0"
       gradientUnits="userSpaceOnUse"
       gradientTransform="matrix(-1.1e-6,-26.071289,-26.071289,1.1e-6,300.12109,251.41016)"
       spreadMethod="pad"
       id="linearGradient158"><stop
         style="stop-opacity:1;stop-color:#e6342a"
         offset="0"
         id="stop150" /><stop
         style="stop-opacity:1;stop-color:#e6342a"
         offset="0.0104712"
         id="stop152" /><stop
         style="stop-opacity:1;stop-color:#f9b233"
         offset="0.989529"
         id="stop154" /><stop
         style="stop-opacity:1;stop-color:#f9b233"
         offset="1"
         id="stop156" /></linearGradient><clipPath
       clipPathUnits="userSpaceOnUse"
       id="clipPath168"><path
         d="m 323.051,251.41 -9.845,-26.071 h 9.002 l 9.566,26.071 z"
         id="path166"
         inkscape:connector-curvature="0" /></clipPath><linearGradient
       x1="0"
       y1="0"
       x2="1"
       y2="0"
       gradientUnits="userSpaceOnUse"
       gradientTransform="matrix(-1.1e-6,-26.071289,-26.071289,1.1e-6,322.49023,251.41016)"
       spreadMethod="pad"
       id="linearGradient182"><stop
         style="stop-opacity:1;stop-color:#e6342a"
         offset="0"
         id="stop174" /><stop
         style="stop-opacity:1;stop-color:#e6342a"
         offset="0.0104712"
         id="stop176" /><stop
         style="stop-opacity:1;stop-color:#f9b233"
         offset="0.989529"
         id="stop178" /><stop
         style="stop-opacity:1;stop-color:#f9b233"
         offset="1"
         id="stop180" /></linearGradient><clipPath
       clipPathUnits="userSpaceOnUse"
       id="clipPath192"><path
         d="m 360.689,251.421 c -2.012,-0.027 -3.922,-0.054 -3.965,-0.011 v 0 c -0.095,0.093 -4.877,-13.036 -4.877,-13.036 v 0 l -7.409,13.036 h -7.691 l -10.035,-26.071 h 8.629 l 5.346,13.881 8.064,-13.881 h 6.848 c 0,0 9.611,25.931 9.751,26.071 v 0 c 0.034,0.034 -0.447,0.046 -1.197,0.046 v 0 c -0.906,0 -2.205,-0.017 -3.464,-0.035"
         id="path190"
         inkscape:connector-curvature="0" /></clipPath><linearGradient
       x1="0"
       y1="0"
       x2="1"
       y2="0"
       gradientUnits="userSpaceOnUse"
       gradientTransform="matrix(-1.1e-6,-26.117188,-26.117188,1.1e-6,346.03223,251.45605)"
       spreadMethod="pad"
       id="linearGradient206"><stop
         style="stop-opacity:1;stop-color:#e6342a"
         offset="0"
         id="stop198" /><stop
         style="stop-opacity:1;stop-color:#e6342a"
         offset="0.0104712"
         id="stop200" /><stop
         style="stop-opacity:1;stop-color:#f9b233"
         offset="0.989529"
         id="stop202" /><stop
         style="stop-opacity:1;stop-color:#f9b233"
         offset="1"
         id="stop204" /></linearGradient><clipPath
       clipPathUnits="userSpaceOnUse"
       id="clipPath216"><path
         d="m 372.73,249.739 c -1.891,-1.032 -3.723,-2.258 -5.258,-3.774 v 0 c -3.106,-3.063 -5.965,-7.91 -4.909,-12.448 v 0 c 0.541,-2.327 2.196,-4.237 4.119,-5.588 v 0 c 1.501,-1.053 3.24,-1.746 5.034,-2.102 v 0 c 4.794,-0.949 9.897,-0.488 14.759,-0.488 v 0 l 6.176,16.891 c 0,0 -9.992,-0.182 -9.931,0 v 0 c 0.06,0.181 -5.994,-6.965 -5.994,-6.965 v 0 h 4.48 l -1.211,-2.725 c -11.445,-0.787 -8.237,6.238 -8.237,6.238 v 0 c 3.27,6.783 9.206,6.056 9.206,6.056 v 0 h 8.539 l 5.929,6.616 c -0.543,-0.027 -8.169,0.006 -8.169,0.006 v 0 c -1.35,0.099 -2.595,0.142 -3.742,0.142 v 0 c -7.551,0 -10.791,-1.859 -10.791,-1.859 m 22.702,1.711 c 0.038,0.002 0.042,0.004 0.006,0.006 v 0 z"
         id="path214"
         inkscape:connector-curvature="0" /></clipPath><linearGradient
       x1="0"
       y1="0"
       x2="1"
       y2="0"
       gradientUnits="userSpaceOnUse"
       gradientTransform="matrix(-1.2e-6,-26.370605,-26.370605,1.2e-6,378.90137,251.59766)"
       spreadMethod="pad"
       id="linearGradient230"><stop
         style="stop-opacity:1;stop-color:#e6342a"
         offset="0"
         id="stop222" /><stop
         style="stop-opacity:1;stop-color:#e6342a"
         offset="0.0104712"
         id="stop224" /><stop
         style="stop-opacity:1;stop-color:#f9b233"
         offset="0.989529"
         id="stop226" /><stop
         style="stop-opacity:1;stop-color:#f9b233"
         offset="1"
         id="stop228" /></linearGradient><clipPath
       clipPathUnits="userSpaceOnUse"
       id="clipPath240"><path
         d="m 413.146,249.066 c -8.706,-5.017 -13.081,-13.743 -9.766,-19.49 v 0 c 3.308,-5.75 13.056,-6.348 21.767,-1.331 v 0 c 8.703,5.016 13.075,13.744 9.762,19.493 v 0 c -1.802,3.131 -5.512,4.733 -9.925,4.733 v 0 c -3.69,0.001 -7.871,-1.12 -11.838,-3.405 m 0.202,-14.591 c -1.597,2.203 -0.335,5.842 2.815,8.126 v 0 c 3.154,2.285 7.006,2.35 8.602,0.146 v 0 c 1.597,-2.204 0.336,-5.843 -2.814,-8.127 v 0 c -1.614,-1.169 -3.411,-1.757 -4.995,-1.757 v 0 c -1.511,0 -2.828,0.535 -3.608,1.612"
         id="path238"
         inkscape:connector-curvature="0" /></clipPath><linearGradient
       x1="0"
       y1="0"
       x2="1"
       y2="0"
       gradientUnits="userSpaceOnUse"
       gradientTransform="matrix(-1.2e-6,-27.631348,-27.631348,1.2e-6,419.14453,252.47119)"
       spreadMethod="pad"
       id="linearGradient254"><stop
         style="stop-opacity:1;stop-color:#e6342a"
         offset="0"
         id="stop246" /><stop
         style="stop-opacity:1;stop-color:#e6342a"
         offset="0.0104712"
         id="stop248" /><stop
         style="stop-opacity:1;stop-color:#f9b233"
         offset="0.989529"
         id="stop250" /><stop
         style="stop-opacity:1;stop-color:#f9b233"
         offset="1"
         id="stop252" /></linearGradient><clipPath
       clipPathUnits="userSpaceOnUse"
       id="clipPath264"><path
         d="m 442.66,251.599 -9.989,-25.957 h 8.994 l 3.447,9.871 h 13.844 l 2.687,6.835 h -13.552 l 0.877,2.627 h 13.902 l 2.57,6.624 z"
         id="path262"
         inkscape:connector-curvature="0" /></clipPath><linearGradient
       x1="0"
       y1="0"
       x2="1"
       y2="0"
       gradientUnits="userSpaceOnUse"
       gradientTransform="matrix(-1.1e-6,-25.957031,-25.957031,1.1e-6,449.05566,251.59863)"
       spreadMethod="pad"
       id="linearGradient278"><stop
         style="stop-opacity:1;stop-color:#e6342a"
         offset="0"
         id="stop270" /><stop
         style="stop-opacity:1;stop-color:#e6342a"
         offset="0.0104712"
         id="stop272" /><stop
         style="stop-opacity:1;stop-color:#f9b233"
         offset="0.989529"
         id="stop274" /><stop
         style="stop-opacity:1;stop-color:#f9b233"
         offset="1"
         id="stop276" /></linearGradient><clipPath
       clipPathUnits="userSpaceOnUse"
       id="clipPath288"><path
         d="M 0,396.85 H 595.28 V 0 H 0 Z"
         id="path286"
         inkscape:connector-curvature="0" /></clipPath><clipPath
       clipPathUnits="userSpaceOnUse"
       id="clipPath332"><path
         d="m 191.189,251.41 -2.814,-6.94 7.784,-0.094 -7.316,-19.037 h 8.722 l 7.315,19.131 h 7.034 l 2.721,6.94 z"
         id="path330"
         inkscape:connector-curvature="0" /></clipPath><linearGradient
       x1="0"
       y1="0"
       x2="1"
       y2="0"
       gradientUnits="userSpaceOnUse"
       gradientTransform="matrix(-1.1e-6,-26.071289,-26.071289,1.1e-6,201.50488,251.41016)"
       spreadMethod="pad"
       id="linearGradient346"><stop
         style="stop-opacity:1;stop-color:#e6342a"
         offset="0"
         id="stop338" /><stop
         style="stop-opacity:1;stop-color:#e6342a"
         offset="0.0104712"
         id="stop340" /><stop
         style="stop-opacity:1;stop-color:#f9b233"
         offset="0.989529"
         id="stop342" /><stop
         style="stop-opacity:1;stop-color:#f9b233"
         offset="1"
         id="stop344" /></linearGradient><clipPath
       clipPathUnits="userSpaceOnUse"
       id="clipPath356"><path
         d="m 239.206,251.41 c -0.281,0 -3.844,-9.471 -3.844,-9.471 v 0 h -10.599 l 3.095,9.471 h -8.44 l -9.754,-26.071 h 8.536 l 3.749,9.66 h 10.973 l -3.562,-9.66 h 8.814 c 0,0 9.566,26.071 9.847,26.071 v 0 c 0.188,0 -3.667,0.001 -6.342,0.001 v 0 c -1.337,0 -2.38,0 -2.473,-0.001"
         id="path354"
         inkscape:connector-curvature="0" /></clipPath><linearGradient
       x1="0"
       y1="0"
       x2="1"
       y2="0"
       gradientUnits="userSpaceOnUse"
       gradientTransform="matrix(-1.1e-6,-26.071777,-26.071777,1.1e-6,228.84619,251.41064)"
       spreadMethod="pad"
       id="linearGradient370"><stop
         style="stop-opacity:1;stop-color:#e6342a"
         offset="0"
         id="stop362" /><stop
         style="stop-opacity:1;stop-color:#e6342a"
         offset="0.0104712"
         id="stop364" /><stop
         style="stop-opacity:1;stop-color:#f9b233"
         offset="0.989529"
         id="stop366" /><stop
         style="stop-opacity:1;stop-color:#f9b233"
         offset="1"
         id="stop368" /></linearGradient><clipPath
       clipPathUnits="userSpaceOnUse"
       id="clipPath380"><path
         d="m 252.526,251.41 -9.755,-26.071 h 23.165 l 2.439,6.847 h -14.35 l 1.031,2.907 h 14.35 l 2.625,6.751 h -14.347 l 1.031,2.627 h 14.255 l 3.001,6.939 z"
         id="path378"
         inkscape:connector-curvature="0" /></clipPath><linearGradient
       x1="0"
       y1="0"
       x2="1"
       y2="0"
       gradientUnits="userSpaceOnUse"
       gradientTransform="matrix(-1.1e-6,-26.071289,-26.071289,1.1e-6,259.37109,251.41016)"
       spreadMethod="pad"
       id="linearGradient394"><stop
         style="stop-opacity:1;stop-color:#e6342a"
         offset="0"
         id="stop386" /><stop
         style="stop-opacity:1;stop-color:#e6342a"
         offset="0.0104712"
         id="stop388" /><stop
         style="stop-opacity:1;stop-color:#f9b233"
         offset="0.989529"
         id="stop390" /><stop
         style="stop-opacity:1;stop-color:#f9b233"
         offset="1"
         id="stop392" /></linearGradient><clipPath
       clipPathUnits="userSpaceOnUse"
       id="clipPath404"><path
         d="m 309.733,251.41 -11.821,-10.502 h -1.026 l 3.751,10.502 h -8.628 l -9.847,-26.071 h 8.722 l 4.97,13.035 4.501,-13.035 h 8.816 l -4.596,14.068 13.504,12.003 z"
         id="path402"
         inkscape:connector-curvature="0" /></clipPath><linearGradient
       x1="0"
       y1="0"
       x2="1"
       y2="0"
       gradientUnits="userSpaceOnUse"
       gradientTransform="matrix(-1.1e-6,-26.071289,-26.071289,1.1e-6,300.12109,251.41016)"
       spreadMethod="pad"
       id="linearGradient418"><stop
         style="stop-opacity:1;stop-color:#e6342a"
         offset="0"
         id="stop410" /><stop
         style="stop-opacity:1;stop-color:#e6342a"
         offset="0.0104712"
         id="stop412" /><stop
         style="stop-opacity:1;stop-color:#f9b233"
         offset="0.989529"
         id="stop414" /><stop
         style="stop-opacity:1;stop-color:#f9b233"
         offset="1"
         id="stop416" /></linearGradient><clipPath
       clipPathUnits="userSpaceOnUse"
       id="clipPath428"><path
         d="m 323.051,251.41 -9.845,-26.071 h 9.002 l 9.566,26.071 z"
         id="path426"
         inkscape:connector-curvature="0" /></clipPath><linearGradient
       x1="0"
       y1="0"
       x2="1"
       y2="0"
       gradientUnits="userSpaceOnUse"
       gradientTransform="matrix(-1.1e-6,-26.071289,-26.071289,1.1e-6,322.49023,251.41016)"
       spreadMethod="pad"
       id="linearGradient442"><stop
         style="stop-opacity:1;stop-color:#e6342a"
         offset="0"
         id="stop434" /><stop
         style="stop-opacity:1;stop-color:#e6342a"
         offset="0.0104712"
         id="stop436" /><stop
         style="stop-opacity:1;stop-color:#f9b233"
         offset="0.989529"
         id="stop438" /><stop
         style="stop-opacity:1;stop-color:#f9b233"
         offset="1"
         id="stop440" /></linearGradient><clipPath
       clipPathUnits="userSpaceOnUse"
       id="clipPath452"><path
         d="m 360.689,251.421 c -2.012,-0.027 -3.922,-0.054 -3.965,-0.011 v 0 c -0.095,0.093 -4.877,-13.036 -4.877,-13.036 v 0 l -7.409,13.036 h -7.691 l -10.035,-26.071 h 8.629 l 5.346,13.881 8.064,-13.881 h 6.848 c 0,0 9.611,25.931 9.751,26.071 v 0 c 0.034,0.034 -0.447,0.046 -1.197,0.046 v 0 c -0.906,0 -2.205,-0.017 -3.464,-0.035"
         id="path450"
         inkscape:connector-curvature="0" /></clipPath><linearGradient
       x1="0"
       y1="0"
       x2="1"
       y2="0"
       gradientUnits="userSpaceOnUse"
       gradientTransform="matrix(-1.1e-6,-26.117188,-26.117188,1.1e-6,346.03223,251.45605)"
       spreadMethod="pad"
       id="linearGradient466"><stop
         style="stop-opacity:1;stop-color:#e6342a"
         offset="0"
         id="stop458" /><stop
         style="stop-opacity:1;stop-color:#e6342a"
         offset="0.0104712"
         id="stop460" /><stop
         style="stop-opacity:1;stop-color:#f9b233"
         offset="0.989529"
         id="stop462" /><stop
         style="stop-opacity:1;stop-color:#f9b233"
         offset="1"
         id="stop464" /></linearGradient><clipPath
       clipPathUnits="userSpaceOnUse"
       id="clipPath476"><path
         d="m 372.73,249.739 c -1.891,-1.032 -3.723,-2.258 -5.258,-3.774 v 0 c -3.106,-3.063 -5.965,-7.91 -4.909,-12.448 v 0 c 0.541,-2.327 2.196,-4.237 4.119,-5.588 v 0 c 1.501,-1.053 3.24,-1.746 5.034,-2.102 v 0 c 4.794,-0.949 9.897,-0.488 14.759,-0.488 v 0 l 6.176,16.891 c 0,0 -9.992,-0.182 -9.931,0 v 0 c 0.06,0.181 -5.994,-6.965 -5.994,-6.965 v 0 h 4.48 l -1.211,-2.725 c -11.445,-0.787 -8.237,6.238 -8.237,6.238 v 0 c 3.27,6.783 9.206,6.056 9.206,6.056 v 0 h 8.539 l 5.929,6.616 c -0.543,-0.027 -8.169,0.006 -8.169,0.006 v 0 c -1.35,0.099 -2.595,0.142 -3.742,0.142 v 0 c -7.551,0 -10.791,-1.859 -10.791,-1.859 m 22.702,1.711 c 0.038,0.002 0.042,0.004 0.006,0.006 v 0 z"
         id="path474"
         inkscape:connector-curvature="0" /></clipPath><linearGradient
       x1="0"
       y1="0"
       x2="1"
       y2="0"
       gradientUnits="userSpaceOnUse"
       gradientTransform="matrix(-1.2e-6,-26.370605,-26.370605,1.2e-6,378.90137,251.59766)"
       spreadMethod="pad"
       id="linearGradient490"><stop
         style="stop-opacity:1;stop-color:#e6342a"
         offset="0"
         id="stop482" /><stop
         style="stop-opacity:1;stop-color:#e6342a"
         offset="0.0104712"
         id="stop484" /><stop
         style="stop-opacity:1;stop-color:#f9b233"
         offset="0.989529"
         id="stop486" /><stop
         style="stop-opacity:1;stop-color:#f9b233"
         offset="1"
         id="stop488" /></linearGradient><clipPath
       clipPathUnits="userSpaceOnUse"
       id="clipPath500"><path
         d="m 413.146,249.066 c -8.706,-5.017 -13.081,-13.743 -9.766,-19.49 v 0 c 3.308,-5.75 13.056,-6.348 21.767,-1.331 v 0 c 8.703,5.016 13.075,13.744 9.762,19.493 v 0 c -1.802,3.131 -5.512,4.733 -9.925,4.733 v 0 c -3.69,0.001 -7.871,-1.12 -11.838,-3.405 m 0.202,-14.591 c -1.597,2.203 -0.335,5.842 2.815,8.126 v 0 c 3.154,2.285 7.006,2.35 8.602,0.146 v 0 c 1.597,-2.204 0.336,-5.843 -2.814,-8.127 v 0 c -1.614,-1.169 -3.411,-1.757 -4.995,-1.757 v 0 c -1.511,0 -2.828,0.535 -3.608,1.612"
         id="path498"
         inkscape:connector-curvature="0" /></clipPath><linearGradient
       x1="0"
       y1="0"
       x2="1"
       y2="0"
       gradientUnits="userSpaceOnUse"
       gradientTransform="matrix(-1.2e-6,-27.631348,-27.631348,1.2e-6,419.14453,252.47119)"
       spreadMethod="pad"
       id="linearGradient514"><stop
         style="stop-opacity:1;stop-color:#e6342a"
         offset="0"
         id="stop506" /><stop
         style="stop-opacity:1;stop-color:#e6342a"
         offset="0.0104712"
         id="stop508" /><stop
         style="stop-opacity:1;stop-color:#f9b233"
         offset="0.989529"
         id="stop510" /><stop
         style="stop-opacity:1;stop-color:#f9b233"
         offset="1"
         id="stop512" /></linearGradient><clipPath
       clipPathUnits="userSpaceOnUse"
       id="clipPath524"><path
         d="m 442.66,251.599 -9.989,-25.957 h 8.994 l 3.447,9.871 h 13.844 l 2.687,6.835 h -13.552 l 0.877,2.627 h 13.902 l 2.57,6.624 z"
         id="path522"
         inkscape:connector-curvature="0" /></clipPath><linearGradient
       x1="0"
       y1="0"
       x2="1"
       y2="0"
       gradientUnits="userSpaceOnUse"
       gradientTransform="matrix(-1.1e-6,-25.957031,-25.957031,1.1e-6,449.05566,251.59863)"
       spreadMethod="pad"
       id="linearGradient538"><stop
         style="stop-opacity:1;stop-color:#e6342a"
         offset="0"
         id="stop530" /><stop
         style="stop-opacity:1;stop-color:#e6342a"
         offset="0.0104712"
         id="stop532" /><stop
         style="stop-opacity:1;stop-color:#f9b233"
         offset="0.989529"
         id="stop534" /><stop
         style="stop-opacity:1;stop-color:#f9b233"
         offset="1"
         id="stop536" /></linearGradient><clipPath
       clipPathUnits="userSpaceOnUse"
       id="clipPath548"><path
         d="M 0,396.85 H 595.28 V 0 H 0 Z"
         id="path546"
         inkscape:connector-curvature="0" /></clipPath><clipPath
       clipPathUnits="userSpaceOnUse"
       id="clipPath588"><path
         d="m 148.96,216.082 -22.375,-59.125 h 16.25 l 9.125,24.25 h 21 l 5.25,14.375 h -20.625 l 2.625,6.625 h 20.375 l 4.875,13.875 z"
         id="path586"
         inkscape:connector-curvature="0" /></clipPath><linearGradient
       x1="0"
       y1="0"
       x2="1"
       y2="0"
       gradientUnits="userSpaceOnUse"
       gradientTransform="matrix(-2.6e-6,-59.125488,-59.125488,2.6e-6,156.02246,216.08203)"
       spreadMethod="pad"
       id="linearGradient602"><stop
         style="stop-opacity:1;stop-color:#ea5b0b"
         offset="0"
         id="stop594" /><stop
         style="stop-opacity:1;stop-color:#fcea12"
         offset="0.48564172"
         id="stop596" /><stop
         style="stop-opacity:1;stop-color:#fcea12"
         offset="0.989529"
         id="stop598" /><stop
         style="stop-opacity:1;stop-color:#fcea12"
         offset="1"
         id="stop600" /></linearGradient><clipPath
       clipPathUnits="userSpaceOnUse"
       id="clipPath612"><path
         d="m 194.085,216.082 -23.25,-59.125 h 16.5 l 22.875,59.125 z"
         id="path610"
         inkscape:connector-curvature="0" /></clipPath><linearGradient
       x1="0"
       y1="0"
       x2="1"
       y2="0"
       gradientUnits="userSpaceOnUse"
       gradientTransform="matrix(-2.6e-6,-59.125488,-59.125488,2.6e-6,190.52246,216.08203)"
       spreadMethod="pad"
       id="linearGradient626"><stop
         style="stop-opacity:1;stop-color:#ea5b0b"
         offset="0"
         id="stop618" /><stop
         style="stop-opacity:1;stop-color:#fcea12"
         offset="0.48564172"
         id="stop620" /><stop
         style="stop-opacity:1;stop-color:#fcea12"
         offset="0.989529"
         id="stop622" /><stop
         style="stop-opacity:1;stop-color:#fcea12"
         offset="1"
         id="stop624" /></linearGradient><clipPath
       clipPathUnits="userSpaceOnUse"
       id="clipPath636"><path
         d="m 241.085,216.082 c -4.824,-0.195 -10.177,-1.072 -14.635,-2.97 v 0 c -6.127,-2.608 -12.083,-7.142 -15.815,-12.678 v 0 c -3.477,-5.157 -6.548,-10.403 -7.111,-16.805 v 0 c -0.247,-2.816 -0.388,-5.62 0.003,-8.43 v 0 c 0.651,-4.683 2.12,-9.931 5.647,-13.273 v 0 c 2.449,-2.317 6.604,-4.969 10.136,-4.969 v 0 h 21.326 l 13.074,34.375 -19,0.125 -11.75,-14.5 h 8.75 l -2.5,-5.75 c -6.924,-0.537 -10.308,5.512 -9.954,11.716 v 0 c 0.169,2.97 1.818,6.758 3.329,9.282 v 0 c 2.778,4.644 7.625,7.383 12.726,8.785 v 0 c 2.477,0.681 5.029,1.039 7.594,1.151 v 0 c 1.278,0.054 2.557,0.047 3.835,0.007 v 0 c 0.497,-0.015 3.6,-0.496 3.845,-0.191 v 0 c 0.007,0.01 11.375,14.125 11.375,14.125 v 0 z"
         id="path634"
         inkscape:connector-curvature="0" /></clipPath><linearGradient
       x1="0"
       y1="0"
       x2="1"
       y2="0"
       gradientUnits="userSpaceOnUse"
       gradientTransform="matrix(-2.6e-6,-59.125488,-59.125488,2.6e-6,232.62158,216.08203)"
       spreadMethod="pad"
       id="linearGradient650"><stop
         style="stop-opacity:1;stop-color:#ea5b0b"
         offset="0"
         id="stop642" /><stop
         style="stop-opacity:1;stop-color:#fcea12"
         offset="0.48564172"
         id="stop644" /><stop
         style="stop-opacity:1;stop-color:#fcea12"
         offset="0.989529"
         id="stop646" /><stop
         style="stop-opacity:1;stop-color:#fcea12"
         offset="1"
         id="stop648" /></linearGradient><clipPath
       clipPathUnits="userSpaceOnUse"
       id="clipPath660"><path
         d="m 301.084,216.082 -8.499,-20.625 h -14.75 l 8.125,20.625 h -16.25 l -23.25,-59.125 h 16.75 l 9.5,24.5 14.25,-0.125 -8.875,-24.375 h 16.5 l 22.499,59.125 z"
         id="path658"
         inkscape:connector-curvature="0" /></clipPath><linearGradient
       x1="0"
       y1="0"
       x2="1"
       y2="0"
       gradientUnits="userSpaceOnUse"
       gradientTransform="matrix(-2.6e-6,-59.125488,-59.125488,2.6e-6,281.77197,216.08203)"
       spreadMethod="pad"
       id="linearGradient674"><stop
         style="stop-opacity:1;stop-color:#ea5b0b"
         offset="0"
         id="stop666" /><stop
         style="stop-opacity:1;stop-color:#fcea12"
         offset="0.48564172"
         id="stop668" /><stop
         style="stop-opacity:1;stop-color:#fcea12"
         offset="0.989529"
         id="stop670" /><stop
         style="stop-opacity:1;stop-color:#fcea12"
         offset="1"
         id="stop672" /></linearGradient><clipPath
       clipPathUnits="userSpaceOnUse"
       id="clipPath684"><path
         d="m 322.959,216.082 -5.25,-13.625 h 12.375 l -17.125,-45.5 h 16.375 l 17.5,45.5 h 11.5 l 5.375,13.625 z"
         id="path682"
         inkscape:connector-curvature="0" /></clipPath><linearGradient
       x1="0"
       y1="0"
       x2="1"
       y2="0"
       gradientUnits="userSpaceOnUse"
       gradientTransform="matrix(-2.6e-6,-59.125488,-59.125488,2.6e-6,338.33398,216.08203)"
       spreadMethod="pad"
       id="linearGradient698"><stop
         style="stop-opacity:1;stop-color:#ea5b0b"
         offset="0"
         id="stop690" /><stop
         style="stop-opacity:1;stop-color:#fcea12"
         offset="0.48564172"
         id="stop692" /><stop
         style="stop-opacity:1;stop-color:#fcea12"
         offset="0.989529"
         id="stop694" /><stop
         style="stop-opacity:1;stop-color:#fcea12"
         offset="1"
         id="stop696" /></linearGradient><clipPath
       clipPathUnits="userSpaceOnUse"
       id="clipPath708"><path
         d="m 370.604,216.082 -22.299,-59.125 h 40.726 l 4.928,14.469 h -24.293 l 4.108,9.975 h 22.181 l 5.047,14.084 h -21.83 l 2.699,7.16 h 22.533 l 5.047,13.437 z"
         id="path706"
         inkscape:connector-curvature="0" /></clipPath><linearGradient
       x1="0"
       y1="0"
       x2="1"
       y2="0"
       gradientUnits="userSpaceOnUse"
       gradientTransform="matrix(-2.6e-6,-59.125488,-59.125488,2.6e-6,378.87793,216.08203)"
       spreadMethod="pad"
       id="linearGradient722"><stop
         style="stop-opacity:1;stop-color:#ea5b0b"
         offset="0"
         id="stop714" /><stop
         style="stop-opacity:1;stop-color:#fcea12"
         offset="0.48564172"
         id="stop716" /><stop
         style="stop-opacity:1;stop-color:#fcea12"
         offset="0.989529"
         id="stop718" /><stop
         style="stop-opacity:1;stop-color:#fcea12"
         offset="1"
         id="stop720" /></linearGradient><clipPath
       clipPathUnits="userSpaceOnUse"
       id="clipPath732"><path
         d="m 417.084,216.082 -22.25,-59.125 h 16.25 l 9.375,24.125 2.5,-24.125 h 16.125 l -1.875,25.875 c 12.375,9.875 13.375,21 13.375,21 v 0 c 1.25,11.5 -5.875,12.25 -5.875,12.25 v 0 z m 7.084,-24.875 c 0,0.001 5.916,15.166 5.916,15.166 v 0 h 3.918 c 0.594,0 1.256,-1.117 1.498,-1.518 v 0 c 0.699,-1.16 0.871,-2.404 0.611,-3.725 v 0 c -0.588,-2.97 -2.081,-5.862 -4.378,-7.862 v 0 c -0.923,-0.804 -1.975,-1.438 -3.155,-1.78 v 0 c -0.416,-0.122 -3.917,-0.284 -4.363,-0.284 v 0 c -0.031,0 -0.047,0.001 -0.047,0.003"
         id="path730"
         inkscape:connector-curvature="0" /></clipPath><linearGradient
       x1="0"
       y1="0"
       x2="1"
       y2="0"
       gradientUnits="userSpaceOnUse"
       gradientTransform="matrix(-2.6e-6,-59.125488,-59.125488,2.6e-6,422.7832,216.08203)"
       spreadMethod="pad"
       id="linearGradient746"><stop
         style="stop-opacity:1;stop-color:#ea5b0b"
         offset="0"
         id="stop738" /><stop
         style="stop-opacity:1;stop-color:#fcea12"
         offset="0.48564172"
         id="stop740" /><stop
         style="stop-opacity:1;stop-color:#fcea12"
         offset="0.989529"
         id="stop742" /><stop
         style="stop-opacity:1;stop-color:#fcea12"
         offset="1"
         id="stop744" /></linearGradient><clipPath
       clipPathUnits="userSpaceOnUse"
       id="clipPath756"><path
         d="m 474.496,215.932 c -1.789,-0.625 -3.612,-1.411 -5.261,-2.348 v 0 c -3.093,-1.756 -6.069,-3.848 -8.342,-6.616 v 0 c -0.995,-1.209 -1.926,-2.552 -2.678,-3.928 v 0 c -1.946,-3.556 -3.424,-7.574 -2.031,-11.582 v 0 c 1.392,-4.004 4.962,-7.476 8.525,-9.626 v 0 c 0,0 7.668,-4.334 6.625,-7.125 v 0 c 0,0 -4.748,-9.792 -23.5,1.125 v 0 c 0,0 -5.998,-14.998 -6,-15 v 0 c -0.24,-0.602 7.772,-3.207 8.174,-3.31 v 0 c 6.6,-1.7 13.812,-1.44 20.23,0.884 v 0 c 4.994,1.806 9.631,4.746 13.141,8.751 v 0 c 1,1.141 1.888,2.381 2.668,3.682 v 0 c 2.523,4.205 4.381,9.526 1.883,14.184 v 0 c -2.157,4.02 -6.723,6.056 -10.379,8.452 v 0 c -2.227,1.46 -7.9,3.987 -5.443,7.533 v 0 c 0.562,0.812 1.617,1.536 2.529,1.896 v 0 c 1.023,0.404 2.246,0.674 3.351,0.687 v 0 c 1.848,0.02 3.826,-0.386 5.596,-0.884 v 0 c 0,0 5.687,-2.562 8.75,-7.5 v 0 c 0,0 5.998,16.744 6,16.75 v 0 c 0.25,0.702 -3.582,2.373 -4.072,2.607 v 0 c -3.717,1.774 -7.695,2.736 -11.694,2.736 v 0 c -2.706,10e-4 -5.42,-0.44 -8.072,-1.368"
         id="path754"
         inkscape:connector-curvature="0" /></clipPath><linearGradient
       x1="0"
       y1="0"
       x2="1"
       y2="0"
       gradientUnits="userSpaceOnUse"
       gradientTransform="matrix(-2.7e-6,-60.876953,-60.876953,2.7e-6,470.08789,217.30029)"
       spreadMethod="pad"
       id="linearGradient770"><stop
         style="stop-opacity:1;stop-color:#ea5b0b"
         offset="0"
         id="stop762" /><stop
         style="stop-opacity:1;stop-color:#fcea12"
         offset="0.48564172"
         id="stop764" /><stop
         style="stop-opacity:1;stop-color:#fcea12"
         offset="0.989529"
         id="stop766" /><stop
         style="stop-opacity:1;stop-color:#fcea12"
         offset="1"
         id="stop768" /></linearGradient></defs><sodipodi:namedview
     pagecolor="#ffffff"
     bordercolor="#666666"
     borderopacity="1"
     objecttolerance="10"
     gridtolerance="10"
     guidetolerance="10"
     inkscape:pageopacity="0"
     inkscape:pageshadow="2"
     inkscape:window-width="1366"
     inkscape:window-height="740"
     id="namedview4"
     showgrid="false"
     inkscape:pagecheckerboard="true"
     inkscape:zoom="1.3797804"
     inkscape:cx="273.81952"
     inkscape:cy="50.193576"
     inkscape:window-x="0"
     inkscape:window-y="0"
     inkscape:window-maximized="1"
     inkscape:current-layer="g10" /><g
     id="g10"
     inkscape:groupmode="layer"
     inkscape:label="the-king-of-fighters-seeklogo.com"
     transform="matrix(1.3333333,0,0,-1.3333333,0,200.00003)"><g
       id="g3063"
       transform="matrix(0.57496929,0,0,-0.57496929,7.0807175,275.73961)"><rect
         id="rect2986"
         height="61"
         width="558.29999"
         class="st0"
         y="372.20001"
         x="26.700001"
         style="fill:#d80b24" /><polygon
         id="polygon2988"
         points="44.8,421.7 44.8,390.6 37.3,390.6 37.3,382.8 65,382.8 65,390.6 57.5,390.6 57.5,421.7 "
         class="st1"
         style="fill:#ffffff" /><polygon
         id="polygon2990"
         points="97.5,405.4 97.5,421.7 84.9,421.7 84.9,382.8 97.5,382.8 97.5,396.7 101.3,396.7 101.3,382.8 114,382.8 114,421.7 101.3,421.7 101.3,405.4 "
         class="st1"
         style="fill:#ffffff" /><polygon
         id="polygon2992"
         points="148.9,398 156.8,398 156.8,405.4 148.9,405.4 148.9,413.9 158.2,413.9 158.2,421.7 136.2,421.7 136.2,382.8 157.3,382.8 157.3,390.6 148.9,390.6 "
         class="st1"
         style="fill:#ffffff" /><polygon
         id="polygon2994"
         points="217.5,405.4 217.5,421.7 204.8,421.7 204.8,382.8 217.5,382.8 217.5,396.7 221.3,396.7 221.3,382.8 233.9,382.8 233.9,421.7 221.3,421.7 221.3,405.4 "
         class="st1"
         style="fill:#ffffff" /><polygon
         id="polygon2996"
         points="268.8,398 276.7,398 276.7,405.4 268.8,405.4 268.8,413.9 278.1,413.9 278.1,421.7 256.1,421.7 256.1,382.8 277.3,382.8 277.3,390.6 268.8,390.6 "
         class="st1"
         style="fill:#ffffff" /><g
         id="g3002">
	<path
   id="path2998"
   d="m 315.2,421.7 c 3,0 5.3,-0.1 6.8,-0.4 1.5,-0.3 2.8,-0.7 3.8,-1.4 1,-0.7 1.7,-1.6 2.2,-2.8 0.4,-1.2 0.6,-3.5 0.6,-7 v -13.6 c 0,-3.7 -0.1,-6.2 -0.4,-7.4 -0.3,-1.3 -1,-2.4 -2.1,-3.4 -1.1,-1 -2.8,-1.8 -4.9,-2.2 -2.2,-0.4 -6.3,-0.7 -12.4,-0.7 h -9.5 v 39 h 15.9 z m -0.5,-31.9 c 0.5,0.2 0.8,0.6 1,1.1 0.1,0.5 0.2,1.6 0.2,3.4 v 15.1 c 0,2.6 -0.2,4.2 -0.6,4.8 -0.4,0.6 -1.6,0.9 -3.4,0.9 v -25.6 c 1.3,-0.1 2.3,0.1 2.8,0.3"
   class="st1"
   inkscape:connector-curvature="0"
   style="fill:#ffffff" />
	<path
   id="path3000"
   d="m 378.7,395.4 v 1.7 H 366 v -3.5 c 0,-2.2 -0.1,-3.6 -0.4,-4.2 -0.2,-0.6 -0.8,-0.9 -1.7,-0.9 -0.8,0 -1.3,0.2 -1.6,0.7 -0.3,0.5 -0.4,1.7 -0.4,3.7 v 18.7 c 0,1.7 0.1,2.9 0.4,3.5 0.3,0.5 0.8,0.8 1.7,0.8 0.9,0 1.6,-0.3 1.9,-1 0.3,-0.6 0.5,-1.8 0.5,-3.7 v -4.6 h -2.6 v -5.9 h 14.8 v 20.9 h -8 l -1.2,-2.8 c -0.9,1.2 -2,2.1 -3.3,2.7 -1.3,0.6 -2.9,0.9 -4.6,0.9 -2.1,0 -4.1,-0.4 -6,-1.2 -1.9,-0.8 -3.3,-1.8 -4.2,-3.1 -1,-1.2 -1.6,-2.5 -1.8,-3.8 -0.2,-1.3 -0.4,-3.4 -0.4,-6 v -11.6 c 0,-3.7 0.2,-6.4 0.7,-8.1 0.5,-1.7 1.9,-3.2 4.3,-4.6 2.4,-1.4 5.4,-2.1 9.2,-2.1 3.7,0 6.8,0.6 9.2,1.8 2.4,1.2 4.1,2.7 4.8,4.3 1.1,1.8 1.4,4.2 1.4,7.4"
   class="st1"
   inkscape:connector-curvature="0"
   style="fill:#ffffff" />
</g><polygon
         id="polygon3004"
         points="413.4,398 421.4,398 421.4,405.4 413.4,405.4 413.4,413.9 422.7,413.9 422.7,421.7 400.8,421.7 400.8,382.8 421.9,382.8 421.9,390.6 413.4,390.6 "
         class="st1"
         style="fill:#ffffff" /><polygon
         id="polygon3006"
         points="456.5,405.4 456.5,421.7 443.8,421.7 443.8,382.8 456.5,382.8 456.5,396.7 460.3,396.7 460.3,382.8 473,382.8 473,421.7 460.3,421.7 460.3,405.4 "
         class="st1"
         style="fill:#ffffff" /><g
         id="g3018">
	<path
   id="path3008"
   d="m 523,390.5 c -0.2,-1.6 -1,-3.1 -2.2,-4.5 -1.3,-1.4 -2.9,-2.4 -5,-3.1 -2.1,-0.7 -4.4,-1 -7,-1 -2.8,0 -5.2,0.4 -7.2,1.1 -2.1,0.7 -3.7,1.8 -4.9,3.1 -1.2,1.3 -1.9,2.8 -2.2,4.5 -0.2,1.6 -0.3,4.4 -0.3,8.3 v 6.7 c 0,4 0.1,6.8 0.4,8.4 0.2,1.6 1,3.1 2.2,4.4 1.3,1.4 2.9,2.4 5,3.1 2.1,0.7 4.4,1 7,1 2.7,0 5.2,-0.4 7.2,-1.1 2.1,-0.7 3.7,-1.8 4.9,-3.1 1.2,-1.3 1.9,-2.8 2.2,-4.5 0.2,-1.6 0.3,-4.4 0.3,-8.3 v -6.7 c 0,-3.9 -0.1,-6.7 -0.4,-8.3 M 510.4,415 c -0.2,0.6 -0.8,0.9 -1.7,0.9 -0.8,0 -1.4,-0.3 -1.6,-0.8 -0.2,-0.5 -0.3,-1.9 -0.3,-4.2 v -18.2 c 0,-2 0.2,-3.2 0.5,-3.6 0.4,-0.4 0.9,-0.6 1.5,-0.6 0.8,0 1.3,0.3 1.6,0.8 0.3,0.5 0.4,1.7 0.4,3.5 v 17.9 c -0.1,2.3 -0.2,3.7 -0.4,4.3"
   class="st1"
   inkscape:connector-curvature="0"
   style="fill:#ffffff" />
	<path
   id="path3010"
   d="m 573.6,395.4 v 1.7 h -12.7 v -3.5 c 0,-2.2 -0.1,-3.6 -0.4,-4.2 -0.2,-0.6 -0.8,-0.9 -1.7,-0.9 -0.8,0 -1.3,0.2 -1.6,0.7 -0.3,0.5 -0.4,1.7 -0.4,3.7 v 18.7 c 0,1.7 0.1,2.9 0.4,3.5 0.3,0.5 0.8,0.8 1.7,0.8 0.9,0 1.6,-0.3 1.9,-1 0.3,-0.6 0.5,-1.8 0.5,-3.7 v -4.6 h -2.6 v -5.9 h 14.8 v 20.9 h -8 l -1.2,-2.8 c -0.9,1.2 -2,2.1 -3.3,2.7 -1.3,0.6 -2.9,0.9 -4.6,0.9 -2.1,0 -4.1,-0.4 -6,-1.2 -1.8,-0.8 -3.3,-1.8 -4.2,-3.1 -1,-1.2 -1.6,-2.5 -1.8,-3.8 -0.2,-1.3 -0.4,-3.4 -0.4,-6 v -11.6 c 0,-3.7 0.3,-6.4 0.8,-8.1 0.5,-1.7 1.9,-3.2 4.3,-4.6 2.4,-1.4 5.5,-2.1 9.2,-2.1 3.7,0 6.8,0.6 9.2,1.8 2.4,1.2 4,2.7 4.8,4.3 0.9,1.8 1.3,4.2 1.3,7.4"
   class="st1"
   inkscape:connector-curvature="0"
   style="fill:#ffffff" />
	<path
   id="path3012"
   d="m 561.7,293.9 c 0.1,-0.3 19.3,-68.3 19.3,-68.3 l -16,-2.4 -9.2,-1.4 c -2,-0.2 -19.7,-1.9 -36.3,-0.4 -20.2,1.8 -37.8,10.9 -49.9,25.7 0,-2.6 0,-27.3 0,-27.3 l -129.5,-0.1 v 13.5 c -1.5,-3 -6.8,-13.4 -6.8,-13.4 h -70.7 v 22.8 c -14.6,-16.3 -36.7,-24.3 -62.5,-22.5 -18.9,1.4 -37.1,10.4 -49.4,24.2 0.9,-3.2 3.9,-14.1 3.9,-14.1 l -14.3,-3.8 c -0.8,-0.2 -8.1,-2.1 -16.4,-3.4 -9.8,-1.5 -22.7,-3.1 -35.6,-2.2 -16.1,1.2 -36.1,4.7 -48.2,21.4 -6.1,8.4 -9.1,18.5 -9.1,30.2 0,0 0.3,6.3 0.3,6.3 1.1,12.2 5.3,21.4 12.8,28.1 -0.2,0.5 -2,6.6 -2,6.6 l -11.9,43.5 16.4,2.4 c 1.3,0.2 12.5,1.8 22.2,2.8 10.7,1.1 21.2,1.1 33.9,0.2 16.4,-1.2 31.1,-8.7 40.3,-20.4 1.6,-2 3,-4.3 4.5,-7 13.5,17.4 35.6,27.7 59.3,27.5 21.5,-0.2 42.3,-9.3 55.9,-24.4 v 24.4 h 65.1 V 351 c 1.5,2.9 5.8,11.4 5.8,11.4 h 136 c 0,0 0,-20.6 0,-23 9.6,11.1 22.8,18.7 38.4,22.1 16.1,3.5 31.9,0.7 45.8,-1.7 l 27.7,-4.2 c 0,0.1 -19.7,-61.4 -19.8,-61.7"
   class="st2"
   inkscape:connector-curvature="0"
   style="fill:#0069ac" />
	<path
   id="path3014"
   d="m 521.2,236.3 c 13.9,-1.2 29,-0.1 33.5,0.4 3.6,0.3 8.1,1.2 8.1,1.2 l -11.4,40.4 c 0,0 -1.2,-1.7 -1.8,-2.4 -9.3,-10.9 -22.7,-6.3 -32.7,2.6 -11.7,10.5 -16.9,26.7 -3.4,34.6 7.7,4.5 16.9,3.8 25.1,-2.3 3.1,-2.4 6.3,-5.3 8.9,-8.4 0.4,-0.5 1.2,-1.6 1.2,-1.6 l 13.8,43.1 c 0,0 -1.5,0.2 -2.3,0.3 -14.9,2.2 -32.4,6.8 -48.9,3.3 -62.9,-13.6 -55.6,-105.5 9.9,-111.2"
   class="st3"
   inkscape:connector-curvature="0"
   style="fill:#f39700" />
	<path
   id="path3016"
   d="m 89.8,235.8 c 11.5,-0.8 23.2,0.7 32.3,2.1 7.8,1.2 14.9,3.1 14.9,3.1 l -7.2,25.6 c 0,0 -7.7,-1 -13.6,-1.5 -8.5,-0.7 -18.6,-1 -24.1,0.4 -1.9,0.5 -3.2,1.2 -3.9,2.1 -2.2,2.7 -1.1,5.2 -0.5,6.5 0.7,1.3 1.6,1.7 3.4,2.4 4.7,2.1 28.1,2.6 36.5,8.5 5.5,3.8 9.4,9.8 10.8,17.9 4.5,26.5 -13.7,43.4 -36.5,45.2 -12.8,0.9 -22.4,0.7 -31.4,-0.2 -9.8,-1 -21.6,-2.7 -21.6,-2.7 l 7.5,-27.5 c 0,0 7.8,1 13.3,1.3 8,0.4 17.1,0.4 22.6,-1 2.2,-0.6 3.5,-1.6 4.4,-2.5 1.4,-1.5 1.7,-4.6 0.3,-6.6 -1.3,-1.8 -2.6,-2.4 -5.6,-2.7 -2.9,-0.3 -6.1,-0.4 -9.2,-0.8 -19.6,-2.5 -34,-4.7 -36,-27.6 -1,-11.3 1.4,-20 6.2,-26.6 C 60,240.6 72.9,237 89.8,235.8"
   class="st3"
   inkscape:connector-curvature="0"
   style="fill:#f39700" />
</g><polygon
         id="polygon3020"
         points="455.4,234.7 455.3,348 413.8,348 413.8,234.7 "
         class="st3"
         style="fill:#f39700" /><g
         id="g3026">
	<path
   id="path3022"
   d="m 230.9,290.3 c -1.8,10 -14.7,22.7 -24.9,24.4 -8.5,1.4 -14.2,-0.8 -18.4,-5 -14.8,-14.7 8.9,-38.7 22.9,-40.8 12.7,-1.9 22.6,8.6 20.4,21.4 m 31.9,-19.9 c -8.1,-22.2 -28.4,-37.7 -61.2,-35.3 -20.1,1.5 -37.3,13 -45.3,26.9 -6.5,11.3 -10.7,28.9 -6.5,45.3 14.1,55.2 101,54.4 114.4,-2 2.6,-10.9 2.1,-25.1 -1.4,-34.9"
   class="st3"
   inkscape:connector-curvature="0"
   style="fill:#f39700" />
	<path
   id="path3024"
   d="m 355.2,234.7 v 59.7 c -1.9,-3.8 -30.4,-59.7 -30.4,-59.7 l -47.1,-0.1 v 0.5 112.9 h 35.9 v -57.6 c 1.9,3.8 29.4,57.7 29.4,57.7 L 391.1,348 V 234.7 Z"
   class="st3"
   inkscape:connector-curvature="0"
   style="fill:#f39700" />
</g><polygon
         id="polygon3028"
         points="603.4,221.3 608.1,221.3 608.1,218.6 595.4,218.6 595.4,221.3 600.2,221.3 600.2,234.6 603.4,234.6 " /><polygon
         id="polygon3030"
         points="626.7,218.6 626.7,234.6 623.7,234.6 623.7,222 620.5,234.6 617.4,234.6 614.3,222 614.3,234.6 611.3,234.6 611.3,218.6 616.1,218.6 619,229.5 621.9,218.6 " /></g></g><style
     id="style1420">.st0{fill:#d82b46}.st1{fill:#231f20}</style><style
     id="style2984"
     type="text/css">
	.st0{fill:#D80B24;}
	.st1{fill:#FFFFFF;}
	.st2{fill:#0069AC;}
	.st3{fill:#F39700;}
</style></svg>