<?xml version="1.0" encoding="UTF-8" standalone="no"?>
<!-- Created with Inkscape (http://www.inkscape.org/) -->

<svg
   xmlns:dc="http://purl.org/dc/elements/1.1/"
   xmlns:cc="http://creativecommons.org/ns#"
   xmlns:rdf="http://www.w3.org/1999/02/22-rdf-syntax-ns#"
   xmlns:svg="http://www.w3.org/2000/svg"
   xmlns="http://www.w3.org/2000/svg"
   xmlns:xlink="http://www.w3.org/1999/xlink"
   xmlns:sodipodi="http://sodipodi.sourceforge.net/DTD/sodipodi-0.dtd"
   xmlns:inkscape="http://www.inkscape.org/namespaces/inkscape"
   width="500"
   height="200"
   viewBox="0 0 132.29166 52.916669"
   version="1.1"
   id="svg8"
   inkscape:version="0.92.5 (2060ec1f9f, 2020-04-08)"
   sodipodi:docname="tekken.svg">
  <defs
     id="defs2">
    <linearGradient
       inkscape:collect="always"
       id="linearGradient1094">
      <stop
         style="stop-color:#ff6600;stop-opacity:1;"
         offset="0"
         id="stop1090" />
      <stop
         style="stop-color:#ff6600;stop-opacity:0;"
         offset="1"
         id="stop1092" />
    </linearGradient>
    <linearGradient
       inkscape:collect="always"
       xlink:href="#linearGradient1094"
       id="linearGradient1096"
       x1="0.1232865"
       y1="265.78471"
       x2="131.78767"
       y2="265.78471"
       gradientUnits="userSpaceOnUse" />
  </defs>
  <sodipodi:namedview
     id="base"
     pagecolor="#ffffff"
     bordercolor="#666666"
     borderopacity="1.0"
     inkscape:pageopacity="0.0"
     inkscape:pageshadow="2"
     inkscape:zoom="1.2137936"
     inkscape:cx="237.22967"
     inkscape:cy="164.18954"
     inkscape:document-units="mm"
     inkscape:current-layer="layer1"
     showgrid="false"
     units="px"
     inkscape:pagecheckerboard="true"
     inkscape:window-width="1366"
     inkscape:window-height="743"
     inkscape:window-x="0"
     inkscape:window-y="0"
     inkscape:window-maximized="1" />
  <metadata
     id="metadata5">
    <rdf:RDF>
      <cc:Work
         rdf:about="">
        <dc:format>image/svg+xml</dc:format>
        <dc:type
           rdf:resource="http://purl.org/dc/dcmitype/StillImage" />
        <dc:title></dc:title>
      </cc:Work>
    </rdf:RDF>
  </metadata>
  <g
     inkscape:label="Layer 1"
     inkscape:groupmode="layer"
     id="layer1"
     transform="translate(-0.187026,-225.50254)">
    <path
       inkscape:connector-curvature="0"
       id="path98"
       style="fill:#ff0000;stroke-width:0.12353064"
       d="m 82.414664,232.55325 c -1.010696,-0.016 -1.30276,0.24244 -1.726908,0.96006 -0.203825,0.34485 -0.424598,0.62835 -0.490709,0.62956 -0.06612,0.001 -0.466509,-0.34052 -0.889686,-0.75994 l -0.769366,-0.76277 -2.322231,0.53564 c -2.745589,0.63322 -5.026093,1.26463 -5.679601,1.57234 -0.493346,0.2323 -0.612487,0.49142 -0.642761,1.39956 -0.01128,0.33797 -0.12749,0.54863 -0.508617,0.92079 l -0.494164,0.48223 v 1.50103 c 0,0.82552 -0.03583,1.84272 -0.07948,2.26034 -0.07242,0.6929 -0.104628,0.75931 -0.37039,0.75931 h -0.29122 v -2.33197 c 0,-1.71948 -0.04071,-2.36324 -0.154564,-2.45135 -0.503704,-0.38976 -2.053195,-0.53767 -3.625031,-0.34557 l -0.629881,0.077 -0.07728,-1.08729 c -0.135549,-1.90361 -0.66133,-2.81534 -1.80042,-3.12207 -0.306242,-0.0825 -1.976437,-0.11862 -4.541419,-0.098 l -4.056994,0.0327 -0.189121,0.59752 c -0.104003,0.32867 -0.288478,0.65331 -0.409972,0.7213 -0.141068,0.079 -0.992673,0.0917 -2.356787,0.0352 l -2.135938,-0.0886 -0.195404,-0.33049 c -0.107457,-0.18191 -0.3453,-0.4807 -0.528409,-0.66381 l -0.33269,-0.333 -4.090607,0.002 c -2.249802,9.7e-4 -4.152989,0.0428 -4.229149,0.0927 -0.07616,0.0499 -0.421598,0.56319 -0.767794,1.14069 -1.414505,2.35961 -3.072057,4.0429 -4.984064,5.06166 -1.123964,0.59888 -1.131349,0.61471 -1.070325,2.27228 0.04082,1.10863 0.06325,1.19126 0.443901,1.64177 1.101453,1.30362 1.265528,1.94639 0.781302,3.05799 -0.26925,0.61804 -0.293044,1.34573 -0.283681,8.60375 3.22e-4,0.24212 0.145533,0.72681 0.322951,1.07692 0.389432,0.76851 0.394447,0.86136 0.06503,1.21201 -0.387778,0.41271 -0.46636,1.46983 -0.39018,5.2445 0.06748,3.34374 0.06867,3.3564 0.373216,3.71833 0.388878,0.46216 1.052876,0.80039 2.009333,1.02352 l 0.754285,0.17592 6.55735,-1.23117 c 3.606463,-0.67712 6.606369,-1.26145 6.666675,-1.29871 0.06031,-0.0373 0.194093,0.002 0.297191,0.0876 0.142686,0.11841 0.179216,0.37143 0.153622,1.05901 -0.04471,1.2007 0.04402,1.2678 1.669417,1.27327 l 1.218292,0.004 2.583294,-2.17017 c 1.420748,-1.19365 2.658533,-2.15256 2.750738,-2.13092 0.0922,0.0217 1.066799,1.05371 2.165467,2.29365 1.324387,1.49468 2.079956,2.25468 2.242437,2.25468 0.353733,0 2.371677,-0.50999 2.54214,-0.64244 0.119097,-0.0926 1.394929,-2.20935 3.447532,-5.7195 l 0.361277,-0.61763 0.03267,0.55574 c 0.05426,0.92588 0.127279,1.07016 0.738263,1.45485 l 0.587784,0.37008 3.706083,0.0839 c 2.596556,0.0587 3.748452,0.12766 3.848079,0.23028 0.0782,0.0806 0.344239,0.79995 0.591239,1.59873 0.611472,1.97745 1.030765,2.45675 2.416478,2.76236 l 3.22e-4,3.3e-4 c 0.373678,0.0824 0.855882,0.15474 1.07158,0.16021 0.716448,0.0189 5.031435,-0.48378 5.770392,-0.67229 1.029908,-0.26273 2.112858,-0.87565 2.6744,-1.51359 0.441287,-0.50134 0.983617,-1.64045 0.983617,-2.06588 0,-0.39396 0.478833,-0.43197 5.429535,-0.43197 h 4.952027 l 0.46054,-0.29279 c 0.93574,-0.59461 1.13266,-1.11136 1.13631,-2.9807 0.003,-1.37951 -0.15937,-2.42717 -0.57428,-3.71205 l -0.32107,-0.9943 0.85105,-1.5381 0.85136,-1.5381 -0.0396,-4.57064 -0.0393,-4.57063 -0.43542,-0.38013 c -0.43267,-0.37788 -0.43662,-0.39134 -0.66884,-2.16201 -0.23893,-1.822 -0.36864,-2.31087 -0.74298,-2.80289 -0.14754,-0.19393 -0.24014,-0.64073 -0.30096,-1.45202 -0.0839,-1.11951 -0.10809,-1.19491 -0.53783,-1.67916 l -0.44987,-0.50705 -1.480926,-0.17969 c -0.899517,-0.1092 -2.811316,-0.18877 -4.869395,-0.20263 l -3.388473,-0.0226 -0.103357,0.3952 c -0.0568,0.21747 -0.147785,0.42305 -0.202315,0.45679 -0.05455,0.0337 -0.512333,-0.0465 -1.017233,-0.17813 -1.702254,-0.44379 -3.785045,-0.85176 -5.317068,-1.04142 -0.836341,-0.10354 -1.444055,-0.16738 -1.903462,-0.17467 z m 0.206713,1.98985 c 0.174352,-0.004 0.666845,0.0808 1.186562,0.2064 1.107327,0.26769 2.806696,0.54823 4.229779,0.69806 0.441622,0.0465 0.841234,0.10691 0.887801,0.13445 0.04657,0.0275 -0.13775,0.55137 -0.409657,1.16395 -0.271908,0.61257 -0.504637,1.26475 -0.5171,1.44919 l -0.02262,0.3352 1.223632,0.0355 c 1.191948,0.0347 1.232857,0.0267 1.585538,-0.30882 0.199132,-0.18943 0.804325,-0.94187 1.344583,-1.67224 l 0.982048,-1.32794 0.520239,0.0107 c 0.286157,0.006 1.743271,0.10307 3.237992,0.21614 l 2.717751,0.20546 0.0377,0.38672 c 0.03075,0.31616 -0.0783,0.51878 -0.598464,1.1118 -0.683766,0.77952 -1.038678,1.35618 -0.890315,1.44699 0.05071,0.031 0.425802,0.0932 0.833453,0.13823 0.407651,0.045 0.895412,0.11058 1.083831,0.14608 l 0.34243,0.0647 -0.0336,2.12054 -0.0339,2.12023 -3.026252,0.0619 c -2.923553,0.0597 -3.026565,0.0702 -3.026565,0.30882 0,0.231 0.108244,0.25216 1.667532,0.32515 0.917215,0.0429 2.598845,0.0847 3.736871,0.0927 l 2.069024,0.0145 v 2.21919 2.21919 l -1.25599,0.0352 c -0.813694,0.0228 -1.273044,0.0858 -1.303745,0.17844 -0.02607,0.0787 0.553142,0.5433 1.287095,1.03263 0.73395,0.48933 1.40074,0.94307 1.48155,1.00843 0.10743,0.0869 -0.19536,0.62289 -1.12655,1.99394 -0.7004,1.03122 -1.365573,2.05556 -1.478105,2.27637 -0.117367,0.23029 -0.300232,0.40149 -0.428822,0.40149 -0.123294,0 -0.68668,-0.27792 -1.251905,-0.61763 -1.428938,-0.8588 -1.481636,-0.84678 -1.484068,0.3396 -9.65e-4,0.52655 -0.04277,1.02034 -0.09268,1.09734 -0.06244,0.0963 -1.101611,0.15545 -3.330981,0.18913 -2.057922,0.0311 -3.288131,0.0969 -3.371508,0.18032 -0.185587,0.18559 2.512728,0.29261 7.387033,0.29311 l 3.986946,6.4e-4 -0.0339,1.88367 -0.0342,1.88399 -5.62055,0.0311 c -5.109104,0.0284 -5.634741,0.0501 -5.775104,0.2397 -0.09236,0.12474 -0.154565,0.594 -0.154565,1.16771 v 0.95912 l -0.648415,0.65972 c -0.51645,0.52532 -0.837491,0.72779 -1.575172,0.9943 -0.772891,0.27919 -1.100273,0.33022 -1.976347,0.30724 -0.577505,-0.0152 -1.777871,-0.0446 -2.667486,-0.0657 l -1.617582,-0.0383 -0.213312,-0.76811 c -0.117433,-0.42238 -0.41151,-1.22877 -0.653442,-1.79194 -0.24193,-0.56316 -0.39998,-1.06373 -0.351224,-1.11242 0.04873,-0.0487 0.820455,-0.0883 1.71497,-0.0883 1.363336,0 1.626379,-0.03 1.626379,-0.18535 0,-0.16173 -0.765996,-0.18943 -6.025173,-0.21739 l -6.025485,-0.032 0.03424,-1.9443 0.03393,-1.94462 h 5.991244 c 5.243189,0 5.991244,-0.0232 5.991244,-0.18535 0,-0.16061 -0.494287,-0.18504 -3.706083,-0.18504 h -3.705768 l -0.06189,-1.04048 c -0.03397,-0.57212 -0.120779,-1.05943 -0.19289,-1.0832 -0.07211,-0.0238 -0.664614,0.29152 -1.316936,0.70056 -0.65233,0.40905 -1.214297,0.74361 -1.248766,0.74361 -0.0345,0 -0.54741,-0.64496 -1.139438,-1.43318 -0.592029,-0.78821 -1.369953,-1.77924 -1.728794,-2.20222 -0.358847,-0.42299 -0.615421,-0.82523 -0.57019,-0.89408 0.04524,-0.0689 0.860543,-0.64255 1.811729,-1.27453 0.951186,-0.63198 1.752614,-1.16884 1.780944,-1.19316 0.172833,-0.14837 -0.305784,-0.23687 -1.574543,-0.29122 l -1.441657,-0.0616 -0.03393,-2.1529 c -0.02581,-1.63946 0.0036,-2.17639 0.123463,-2.25249 0.08658,-0.0549 1.946116,-0.10057 4.13239,-0.10178 3.447276,-0.002 4.0008,-0.0277 4.169146,-0.19603 0.106764,-0.10677 0.194147,-0.27334 0.194147,-0.37039 2e-6,-0.14906 -0.582149,-0.17656 -3.748807,-0.17656 h -3.748808 l -0.07194,-2.12588 c -0.03958,-1.16922 -0.04482,-2.16985 -0.01163,-2.22359 0.03321,-0.0537 0.586974,-0.0977 1.230543,-0.0977 0.92777,0 1.185003,-0.0386 1.241539,-0.18598 0.03981,-0.10373 -0.153097,-0.54347 -0.43636,-0.99524 -0.279154,-0.44524 -0.507359,-0.85407 -0.507359,-0.90854 0,-0.20373 4.912627,-1.61264 5.632477,-1.61507 0.208076,-8e-4 0.435327,0.33865 1.157975,1.72974 0.964262,1.8562 1.014878,1.90424 1.930166,1.82932 0.475551,-0.0389 0.486106,-0.0509 0.747375,-0.84256 0.145756,-0.44162 0.365617,-1.32315 0.48851,-1.95907 0.126873,-0.65654 0.293075,-1.1829 0.384525,-1.21798 0.01107,-0.004 0.02944,-0.007 0.05435,-0.007 z m -36.234282,0.34306 0.707475,0.80581 c 0.649734,0.74006 2.246331,2.03541 2.50884,2.03541 0.145325,0 0.25926,-0.44181 0.26169,-1.0119 9.65e-4,-0.25077 0.05619,-0.48939 0.122836,-0.5306 0.115353,-0.0713 4.217791,0.59685 4.625612,0.75334 0.166152,0.0638 0.194461,-0.0594 0.194461,-0.84602 v -0.92016 l 3.092225,-0.0861 c 1.700783,-0.0472 3.137422,-0.0579 3.19244,-0.0239 0.05499,0.034 0.136463,0.90827 0.181267,1.94304 0.05594,1.29244 0.12998,1.91222 0.23593,1.97949 0.08484,0.0539 1.022824,0.0987 2.084416,0.0999 1.061591,9.7e-4 2.104643,0.0368 2.318147,0.0795 l 0.388296,0.0776 -0.03299,2.97976 -0.03299,2.97976 -2.34171,0.0336 c -1.683877,0.0242 -2.368584,0.0763 -2.437838,0.18535 -0.15966,0.25132 -0.113639,1.28342 0.06377,1.43066 0.1039,0.0862 1.064335,0.14837 2.625075,0.16965 l 2.461088,0.0336 0.0333,2.77084 c 0.01931,1.60592 -0.01526,2.81941 -0.08231,2.88646 -0.06363,0.0636 -1.162367,0.15079 -2.441926,0.19383 l -2.326628,0.0782 -0.0399,0.34715 c -0.03047,0.26574 0.186487,0.68188 0.926443,1.77654 0.764195,1.13052 1.309674,1.75363 2.607798,2.97976 0.980439,0.92605 1.616065,1.61685 1.578313,1.71528 -0.169643,0.44208 -3.614775,5.08882 -3.777395,5.09496 -0.332671,0.0125 -3.253247,-3.0659 -4.057307,-4.27659 -0.41406,-0.62345 -0.811428,-1.16957 -0.88309,-1.21389 -0.07167,-0.0443 -0.948353,0.7508 -1.948387,1.76681 -1.000032,1.01601 -2.344143,2.29867 -2.986982,2.85064 h -3.22e-4 c -0.947599,0.81364 -1.245206,1.00372 -1.573284,1.00372 -0.376491,0 -0.434556,-0.0592 -0.832512,-0.84948 -0.521156,-1.03487 -1.159645,-1.74481 -1.569516,-1.74481 -0.16361,0 -3.214605,0.55537 -6.779771,1.234 -3.565172,0.67863 -6.598272,1.23465 -6.740502,1.23526 -0.248175,0.001 -0.26185,-0.0769 -0.339287,-1.94399 -0.04439,-1.07009 -0.08112,-2.42615 -0.08137,-3.01337 -4.82e-4,-1.15855 0.03566,-1.21767 0.743603,-1.21767 0.194257,0 0.387179,-0.0552 0.428822,-0.12252 0.04162,-0.0673 -0.232767,-1.08927 -0.610089,-2.27102 -0.377321,-1.18176 -0.686113,-2.20868 -0.686113,-2.28202 0,-0.0733 0.52792,-0.5088 1.173368,-0.9676 0.645447,-0.45879 1.173681,-0.87561 1.173681,-0.92613 0,-0.0505 -0.486515,-0.10791 -1.081006,-0.12754 l -1.080692,-0.0355 -0.0333,-2.68697 c -0.02606,-2.10287 6.43e-4,-2.68865 0.123463,-2.69576 0.162699,-0.009 3.164834,0.0348 3.924419,0.0578 0.400927,0.0121 0.432276,-0.0138 0.432276,-0.35751 v -0.3707 l -1.358717,-0.0939 c -0.747361,-0.0517 -1.424746,-0.11823 -1.50543,-0.14765 -0.172705,-0.063 -2.879855,-4.58691 -2.879855,-4.81253 0,-0.0847 0.264116,-0.34248 0.58684,-0.57271 0.95129,-0.67863 2.958018,-2.67944 4.020552,-4.00861 0.83563,-1.04532 1.055807,-1.24833 1.432545,-1.32071 0.244866,-0.0471 1.760805,-0.089 3.368681,-0.0927 z m 36.306538,0.0619 -0.397091,1.60627 c -0.218447,0.88345 -0.49001,1.7858 -0.603491,2.00525 l -0.206401,0.39898 -0.769991,-0.0729 c -0.944616,-0.0892 -0.983147,-0.12913 -1.953415,-2.03226 -0.406471,-0.79725 -0.810495,-1.47696 -0.897854,-1.51046 -0.143683,-0.0551 -3.046869,0.63801 -4.391882,1.04865 -0.792517,0.24196 -0.855014,0.42577 -0.397719,1.16897 0.211437,0.34362 0.418928,0.79776 0.461179,1.00907 l 0.07697,0.38421 -1.280808,0.0352 -1.280809,0.0355 v 1.91477 1.91478 l 3.922222,0.0616 c 2.157232,0.034 3.936107,0.0925 3.953007,0.12975 0.0169,0.0373 -0.163694,0.29996 -0.40149,0.58369 l -0.432277,0.51585 -4.014895,0.0833 c -2.6972,0.0559 -4.044398,0.12791 -4.105374,0.21928 -0.04991,0.0748 -0.09146,0.89338 -0.09267,1.81927 -0.0014,1.24217 0.04069,1.71886 0.160532,1.81833 0.09349,0.0776 0.840459,0.14964 1.760209,0.16964 1.294228,0.0281 1.597791,0.0686 1.597791,0.21299 0,0.0981 -0.778236,0.69748 -1.729422,1.33202 -2.503094,1.66982 -2.381222,1.38644 -1.221433,2.83996 0.535936,0.67167 1.24034,1.56821 1.565118,1.99205 0.32478,0.42385 0.630326,0.74855 0.679203,0.72162 0.0489,-0.0269 0.561619,-0.33247 1.139125,-0.67889 0.577505,-0.34642 1.202665,-0.66618 1.389505,-0.71062 l 0.339916,-0.0807 0.0019,0.97074 c 9.66e-4,0.53392 0.04533,1.03952 0.09864,1.12342 0.07256,0.11425 1.02551,0.16079 3.796559,0.18535 l 3.699799,0.0327 v 0.43228 0.43227 l -6.052817,0.0619 -6.053132,0.0619 v 1.60565 1.60595 l 6.053132,0.0619 6.052817,0.0619 v 0.43228 0.43227 l -1.636745,0.0346 c -1.301577,0.0274 -1.636746,0.0696 -1.636746,0.20672 0,0.0948 0.167632,0.59114 0.372588,1.10299 0.204956,0.51185 0.406321,1.09859 0.447356,1.30374 0.04103,0.20515 0.141567,0.42848 0.223364,0.49637 0.08369,0.0694 1.143915,0.13811 2.424646,0.15708 h 3.22e-4 c 2.59993,0.0386 2.640277,0.0353 3.620633,-0.3107 0.505021,-0.17823 0.909285,-0.43899 1.323532,-0.85325 l 0.596581,-0.59626 0.03518,-1.2029 0.0355,-1.20321 5.609545,-0.032 c 3.964726,-0.0227 5.658978,-0.0732 5.778558,-0.17247 0.12979,-0.10782 0.16128,-0.48744 0.13477,-1.63549 l -0.0346,-1.49537 -5.668916,-0.0616 c -5.225201,-0.0569 -5.679938,-0.0788 -5.805578,-0.27802 -0.09933,-0.15754 -0.09924,-0.27475 0,-0.43228 0.122405,-0.1943 0.472365,-0.22299 3.458215,-0.28305 1.827122,-0.0368 3.33601,-0.0785 3.352972,-0.0927 0.01696,-0.0142 0.03146,-0.42884 0.03267,-0.92141 9.65e-4,-0.49258 0.04808,-0.96859 0.104615,-1.05776 0.204366,-0.32227 0.808178,-0.1846 1.746385,0.39803 0.509564,0.31644 1.015372,0.55962 1.124046,0.54035 0.183824,-0.0325 2.828961,-3.82974 2.828961,-4.06108 0,-0.0576 -0.43067,-0.39421 -0.95722,-0.748 -1.63068,-1.09568 -2.270739,-1.60045 -2.220767,-1.75142 0.03164,-0.0956 0.550932,-0.16635 1.520508,-0.20702 l 1.472139,-0.0616 v -1.91477 -1.91477 l -3.705779,-0.0619 -3.705768,-0.0616 v -0.61762 -0.61763 l 3.026251,-0.0619 3.026566,-0.0619 0.0342,-1.76115 c 0.04,-2.05737 0.12542,-1.93862 -1.485637,-2.07185 -0.783429,-0.0648 -0.957543,-0.11705 -0.957543,-0.28714 0,-0.23895 0.430958,-0.90146 1.207924,-1.85697 0.443702,-0.54565 0.511612,-0.6926 0.376986,-0.81774 -0.183691,-0.17075 -5.745056,-0.58847 -5.993443,-0.45018 -0.08073,0.0449 -0.420593,0.4718 -0.755541,0.94874 -0.334943,0.47695 -0.899877,1.18558 -1.255362,1.57455 l -0.64653,0.70716 h -1.531819 c -1.199857,0 -1.531503,-0.0359 -1.531503,-0.16587 0,-0.21505 0.395068,-1.33662 0.740462,-2.1017 0.14896,-0.32994 0.22383,-0.6457 0.166502,-0.70151 -0.05733,-0.0558 -0.782793,-0.1891 -1.612242,-0.29624 -0.829449,-0.10715 -1.91352,-0.28687 -2.408937,-0.3993 -0.495418,-0.11242 -1.088458,-0.20937 -1.318193,-0.2155 z m -37.985067,0.18535 c -0.810263,0 -2.236493,0.0363 -3.169191,0.0811 l -1.695807,0.0814 -0.905394,1.12593 c -1.128495,1.40308 -2.632884,2.9393 -3.698543,3.77677 -0.447757,0.35188 -0.813306,0.70414 -0.81209,0.78287 9.65e-4,0.0787 0.574493,1.11597 1.274526,2.30495 l 1.272954,2.1617 1.437258,0.0619 c 0.791545,0.034 1.497827,0.12246 1.57203,0.19697 0.07412,0.0744 0.146297,0.38026 0.160218,0.67952 l 0.02513,0.54412 -2.206936,-0.0459 c -1.772094,-0.0367 -2.228277,-0.0125 -2.314377,0.12346 -0.05896,0.0931 -0.107797,1.1578 -0.109013,2.3659 -0.0017,1.95069 0.02134,2.20543 0.207028,2.27668 0.115001,0.0442 1.185272,0.084 2.378152,0.0889 l 2.168609,0.008 -0.02796,0.49417 c -0.216951,3.83602 -0.430117,6.06637 -0.595637,6.23188 -0.06846,0.0685 -0.949665,0.21998 -1.958441,0.33678 -1.026573,0.11886 -1.902369,0.28038 -1.988912,0.36693 -0.117864,0.11789 -0.139841,0.75037 -0.09236,2.66246 0.03423,1.37931 0.110553,2.56904 0.169644,2.64361 0.114241,0.14422 0.353757,0.1065 5.173184,-0.81586 1.392808,-0.26656 3.865604,-0.73881 5.495193,-1.04928 1.629583,-0.31047 3.017176,-0.6186 3.083428,-0.68485 0.138254,-0.13826 -0.251544,-4.81061 -0.414999,-4.97433 -0.05518,-0.0553 -0.892116,0.0193 -1.859795,0.16588 -1.061153,0.16068 -1.804341,0.22164 -1.872361,0.15362 -0.06347,-0.0634 -0.09821,-1.35186 -0.07948,-2.94552 l 0.0333,-2.83241 1.589622,0.0455 c 1.248536,0.0358 1.612631,0.009 1.69675,-0.12378 0.127226,-0.20081 0.13436,-3.04363 0.0094,-3.75132 l -0.08733,-0.49416 -1.604075,-0.12347 -1.604387,-0.12346 0.03738,-0.67606 c 0.02049,-0.37183 0.103926,-0.71857 0.185352,-0.77031 0.08143,-0.0517 0.623251,-0.0946 1.204153,-0.0958 0.654367,-0.001 1.112624,-0.0583 1.204469,-0.15016 0.206568,-0.20657 0.206568,-3.57366 0,-3.78022 -0.08822,-0.0882 -0.513546,-0.14829 -1.050218,-0.14829 -0.495977,0 -0.901624,-0.0516 -0.901624,-0.11498 0,-0.1501 0.155985,-0.19548 1.889012,-0.54694 0.801131,-0.16247 1.489232,-0.3278 1.528991,-0.36756 0.106193,-0.10619 0.276224,-1.06217 0.282425,-1.58711 0.0051,-0.4299 -0.05043,-0.49517 -1.015977,-1.19222 -0.561839,-0.40559 -1.363328,-1.10424 -1.780942,-1.55255 l -0.759313,-0.81492 z m 14.609449,0.26703 c -0.371232,-9.6e-4 -0.822568,0.002 -1.368459,0.008 l -2.832733,0.0333 0.0465,2.19249 0.04618,2.1928 h -0.315412 c -0.57964,0 -0.679928,-0.2423 -0.609775,-1.47276 0.06203,-1.08789 0.05657,-1.11734 -0.231217,-1.22583 -0.612394,-0.23088 -3.690642,-0.68742 -3.81258,-0.56548 -0.06651,0.0665 -0.147214,0.64728 -0.179068,1.29086 -0.08222,1.6604 -0.256313,2.73804 -0.815861,5.04469 -0.269694,1.11179 -0.490395,2.08032 -0.490395,2.15259 0,0.0723 0.373863,0.47894 0.830939,0.90351 l 0.83094,0.77188 -0.151423,0.4194 c -0.19247,0.53222 -0.213148,5.17052 -0.02388,5.35979 0.08253,0.0825 0.811297,0.10712 2.05143,0.0694 2.130022,-0.0647 2.140062,-0.0615 2.141278,0.71658 0.0014,0.80965 -0.697972,1.76653 -3.378733,4.62248 l -1.34364,1.43128 0.147339,1.56732 c 0.134546,1.43105 0.17859,1.60659 0.505789,2.0197 0.197078,0.24883 0.499638,0.73413 0.672605,1.07849 0.172967,0.34437 0.383416,0.65402 0.467462,0.688 0.08405,0.034 0.183726,0.0658 0.221479,0.0713 0.266406,0.0378 3.365125,-2.76071 4.982178,-4.49964 0.663048,-0.71303 1.279947,-1.29652 1.370972,-1.29652 0.09103,0 0.609718,0.65339 1.152634,1.45171 1.079841,1.58783 3.550978,4.17113 3.866928,4.04254 0.186913,-0.0761 3.444078,-4.54573 3.444078,-4.72614 0,-0.0614 -0.542036,-0.60616 -1.204469,-1.21075 -1.692711,-1.54491 -1.805009,-1.6725 -2.879227,-3.27475 -0.77206,-1.15156 -0.968271,-1.539 -1.001525,-1.97666 l -0.04147,-0.54412 0.617942,-0.082 c 0.33971,-0.045 1.398435,-0.0866 2.353019,-0.0927 1.172076,-0.007 1.783878,-0.0588 1.883986,-0.15896 0.222536,-0.22256 0.208118,-4.83631 -0.01572,-5.02208 -0.103895,-0.0862 -1.064329,-0.14836 -2.625076,-0.16964 l -2.461087,-0.0336 v -1.04991 -1.05022 l 2.28516,-0.0616 c 1.256925,-0.034 2.354792,-0.10683 2.439726,-0.16179 0.21253,-0.13754 0.223255,-5.21655 0.01131,-5.34754 -0.07883,-0.0487 -1.174263,-0.12155 -2.434385,-0.16179 l -2.29113,-0.0732 -0.08576,-0.30881 c -0.04712,-0.16986 -0.09212,-0.9757 -0.0999,-1.791 -0.0078,-0.8153 -0.05901,-1.55302 -0.113724,-1.63926 -0.05754,-0.0908 -0.449537,-0.12919 -1.563233,-0.13194 z m -4.580061,2.08473 c -0.01827,0.002 -0.03773,0.043 -0.06032,0.11875 -0.05069,0.16986 -0.09755,0.66077 -0.104299,1.09106 -0.0091,0.57508 0.02849,0.76885 0.141997,0.73104 0.219632,-0.0731 0.254603,-0.38286 0.147967,-1.31505 -0.05037,-0.44031 -0.08515,-0.62932 -0.125347,-0.6258 z m -11.294803,2.4039 c 0.230902,0 1.660353,1.49613 1.515169,1.58586 -0.05823,0.036 -0.727581,0.1049 -1.487209,0.15299 -1.225902,0.0776 -1.389945,0.064 -1.46019,-0.11906 -0.09199,-0.23972 1.128254,-1.61979 1.43223,-1.61979 z m 0,0.26044 -0.432277,0.41908 c -0.237796,0.23048 -0.432277,0.49166 -0.432277,0.58024 0,0.11705 0.236092,0.16085 0.864554,0.16085 1.012885,0 1.079638,-0.11395 0.432592,-0.74109 z m 5.651642,0.55134 c -0.724587,0.0226 -0.741015,0.0616 -0.718157,1.71905 0.0116,0.84106 0.05361,1.58195 0.0933,1.64617 0.11973,0.19374 0.259756,-0.18034 0.589041,-1.57391 0.391674,-1.65754 0.394574,-1.8025 0.03581,-1.79131 z m 37.62002,2.22704 c 1.285558,0.0178 1.500107,0.0994 1.547525,0.58747 0.02162,0.22258 -0.02686,0.48434 -0.107755,0.58182 -0.110277,0.13288 -0.444775,0.17505 -1.336413,0.16775 -0.654111,-0.005 -1.258713,-0.038 -1.34364,-0.0722 -0.240642,-0.0971 -0.181656,-0.70704 0.09739,-1.00655 0.21672,-0.23264 0.376427,-0.26882 1.142895,-0.25824 z m -0.40149,0.27646 c -0.386631,0.0217 -0.829577,0.3412 -0.696794,0.55605 0.05668,0.0917 0.48746,0.14357 1.193158,0.14357 1.095794,0 1.104568,-0.002 1.104568,-0.30881 0,-0.28238 -0.04622,-0.30882 -0.540345,-0.30882 -0.297246,0 -0.702494,-0.0324 -0.900368,-0.0719 -0.0511,-0.0102 -0.104985,-0.0132 -0.160219,-0.0101 z m -32.202422,1.69078 c 0.242102,0.003 0.487709,0.0269 0.671033,0.076 0.270346,0.0724 0.280849,0.12166 0.246927,1.14101 l -0.0355,1.0653 -1.096087,0.0358 -1.096399,0.0361 0.0776,-0.34494 c 0.04274,-0.1896 0.112962,-0.65046 0.155821,-1.02414 0.04285,-0.37368 0.132747,-0.74884 0.199803,-0.83377 0.07942,-0.10059 0.473299,-0.15596 0.876805,-0.15142 z m -0.414685,0.37636 c -0.293757,0.0176 -0.298819,0.19198 -0.43416,1.02854 -0.05424,0.33525 -0.02837,0.51248 0.08545,0.58464 v 3.2e-4 c 0.210356,0.1332 1.103264,0.13419 1.312853,0.001 0.11046,-0.0701 0.149238,-0.33171 0.123463,-0.83188 l -0.03739,-0.72978 -0.644644,-0.0374 c -0.177606,-0.0102 -0.307656,-0.0216 -0.405575,-0.0157 z m -5.006996,0.26734 -1.371285,0.0914 c -0.754145,0.0504 -1.427446,0.12646 -1.496319,0.16902 -0.188347,0.1164 -0.262924,0.6817 -0.106499,0.80706 0.07543,0.0604 0.804165,0.15044 1.619468,0.1998 0.878642,0.0532 1.519171,0.14714 1.572972,0.23059 0.04991,0.0774 0.09146,1.18309 0.09268,2.457 l 0.0019,2.31627 H 48.32262 c -0.462286,0 -0.678534,0.0492 -0.677318,0.15425 0.0011,0.0849 0.501454,0.45364 1.111794,0.81931 0.610339,0.36566 1.109908,0.7378 1.109908,0.82686 0,0.089 -0.418259,0.75916 -0.929269,1.48909 -0.511011,0.72992 -0.909169,1.38602 -0.884973,1.45831 0.02636,0.0787 0.318529,0.1149 0.72821,0.0902 l 0.684229,-0.0412 0.09016,0.9676 c 0.0495,0.53227 0.115849,1.01036 0.14734,1.06216 0.08864,0.14578 0.266026,-0.007 1.47307,-1.26793 2.530281,-2.64298 3.434795,-4.03708 2.86038,-4.40885 -0.08493,-0.0549 -1.043842,-0.0999 -2.130912,-0.0999 h -1.976657 l -0.01696,-3.11893 -0.01728,-3.11892 -0.60255,-0.54161 z m 41.880898,2.62696 v 0.55574 0.55606 l -1.852884,0.0767 c -2.894398,0.1198 -7.575421,0.12024 -7.649351,6.4e-4 -0.03674,-0.0594 0.0992,-0.33737 0.302217,-0.61762 l 0.369132,-0.50956 2.50067,-0.0192 c 1.375391,-0.0105 3.362345,-0.0247 4.415443,-0.0311 z m -1.636745,0.25698 c -0.761024,4.8e-4 -1.789338,0.009 -2.901532,0.0251 -4.216784,0.0618 -4.555594,0.107 -4.373033,0.58276 0.0802,0.20899 0.314489,0.21631 4.25114,0.131 4.078208,-0.0884 4.47482,-0.13308 4.47482,-0.50359 0,-0.0863 -0.06932,-0.18211 -0.154251,-0.21299 -0.04246,-0.0155 -0.536121,-0.0229 -1.297144,-0.0223 z m 2.968132,1.78126 c 0.20399,0 0.677213,0.39419 1.60973,1.3405 0.72646,0.7372 1.320705,1.40408 1.320705,1.48218 0,0.10296 -0.79938,0.142 -2.906872,0.142 -3.123392,0 -3.092958,0.006 -3.001434,-0.63962 0.03991,-0.2817 0.07063,-0.28752 1.677586,-0.32138 1.871592,-0.0394 1.851433,-0.023 1.259446,-1.02698 -0.413506,-0.70129 -0.401992,-0.9767 0.04084,-0.9767 z m 0.184723,0.3707 c -0.192056,0 -0.08482,0.3251 0.338973,1.02791 0.238564,0.39564 0.39906,0.77572 0.356566,0.84445 -0.04787,0.0774 -0.70301,0.10995 -1.722824,0.0855 -1.596883,-0.0384 -2.034375,0.0329 -1.658737,0.27049 0.290061,0.18344 4.814106,0.15214 4.814106,-0.0333 0,-0.16342 -1.969664,-2.195 -2.128084,-2.195 z m -13.609807,0.98865 c 0.201802,-0.002 0.340937,0.0998 0.419083,0.30535 l 0.116237,0.30568 2.07342,0.0339 2.073106,0.0339 v 0.61763 0.61763 l -2.902788,0.004 c -3.70156,0.005 -3.58262,0.0203 -3.58262,-0.47626 0,-0.33696 0.10329,-0.47021 0.710305,-0.91764 0.470486,-0.3468 0.833798,-0.52136 1.093257,-0.52401 z m -32.245776,0.20577 c -0.250233,-0.002 -0.469961,0.0185 -0.532806,0.0694 -0.160238,0.12995 -0.224654,1.71305 -0.07571,1.86199 0.04345,0.0434 0.128298,0.049 0.188179,0.0119 0.152742,-0.0944 1.338927,-1.67304 1.338927,-1.78188 0,-0.0916 -0.501531,-0.15786 -0.918589,-0.16148 z m 32.176662,0.0804 c -0.336882,0.0369 -1.517494,0.9191 -1.453279,1.11242 0.03363,0.10126 0.77161,0.16484 2.446635,0.2108 1.319304,0.0362 2.555347,0.0779 2.746656,0.0927 0.191308,0.0148 0.455424,-0.0308 0.586839,-0.10116 0.28825,-0.15428 0.314931,-0.55752 0.04367,-0.66161 -0.10747,-0.0412 -1.080499,-0.0751 -2.162013,-0.0751 -1.894159,0 -1.966294,-0.009 -1.966294,-0.251 0,-0.13802 -0.08391,-0.28325 -0.186607,-0.32264 -0.01435,-0.006 -0.03315,-0.007 -0.05561,-0.004 z m -39.302631,0.0955 c -0.55892,0.003 -0.528072,0.23654 -0.04681,1.22364 0.265003,0.54352 0.549805,0.98833 0.632709,0.98833 0.15905,0 0.352577,-1.309 0.274884,-1.85949 -0.03683,-0.26094 -0.116976,-0.30767 -0.584642,-0.34117 -0.104321,-0.007 -0.196296,-0.0117 -0.276141,-0.0113 z m -0.947177,0.23531 c -0.160383,0 -2.400859,1.65359 -2.538997,1.87393 -0.09785,0.15606 0.0013,0.62206 0.407144,1.91477 0.295008,0.93965 0.582444,1.83353 0.638676,1.9864 0.05622,0.15287 0.156292,0.27803 0.222421,0.27803 0.140833,0 2.591269,-1.91438 2.823309,-2.20568 0.09815,-0.12322 0.127304,-0.33971 0.07697,-0.57145 -0.100933,-0.4649 -1.499205,-3.276 -1.62952,-3.276 z m 9.172059,0.20451 c -0.17859,0.0685 -1.500199,1.77352 -1.623236,2.09415 -0.05019,0.1308 0.220174,0.48967 0.835651,1.10929 0.500378,0.50373 0.949618,0.91576 0.99807,0.91576 0.115486,0 1.956241,-2.65723 1.956241,-2.82394 0,-0.19009 -1.973071,-1.36957 -2.166726,-1.29526 z m 21.077579,1.15452 c 0.05692,0 0.336021,0.34219 0.620141,0.76057 l 0.516469,0.76088 -0.389551,0.32012 -0.389552,0.32013 0.0013,1.45139 c 8.05e-4,1.04655 -0.04023,1.45171 -0.147025,1.45171 -0.295956,0 -3.356572,-3.506 -3.275061,-3.75164 0.02548,-0.0768 0.403035,-0.17931 0.839106,-0.22776 0.436077,-0.0485 1.059495,-0.15199 1.385422,-0.22996 0.508373,-0.1216 0.602893,-0.19242 0.664123,-0.49856 0.03926,-0.19628 0.117768,-0.35688 0.174671,-0.35688 z m -22.761448,1.80419 c -0.121444,0.0751 -0.139089,1.45336 -0.02011,1.57234 0.125513,0.12555 0.84825,0.0981 1.228659,-0.0465 l 0.338659,-0.12881 -0.722555,-0.73009 c -0.397371,-0.40156 -0.768423,-0.70173 -0.824657,-0.66695 z m -6.170939,1.40835 c -0.200986,9.7e-4 -1.998751,1.4099 -2.069337,1.62167 -0.05961,0.17883 1.819311,0.0512 2.006821,-0.13634 0.06524,-0.0652 0.144424,-0.42628 0.175611,-0.80236 0.04356,-0.5253 0.01728,-0.68357 -0.113095,-0.68297 z" />
    <path
       inkscape:connector-curvature="0"
       id="path96"
       style="fill:#ffffff;fill-opacity:1;stroke-width:0.12353064"
       d="m 82.414664,232.55326 c -1.010696,-0.016 -1.30276,0.24275 -1.726908,0.96037 -0.203825,0.34486 -0.424598,0.62804 -0.490709,0.62925 -0.06612,0.001 -0.466509,-0.34052 -0.889686,-0.75994 l -0.769366,-0.76277 -2.322231,0.53564 c -2.745589,0.63322 -5.026093,1.26463 -5.679601,1.57234 -0.493346,0.2323 -0.612172,0.49142 -0.642446,1.39956 -0.01128,0.33797 -0.127805,0.54863 -0.508932,0.92079 l -0.494164,0.48254 v 1.50072 c 0,0.82552 -0.03552,1.84272 -0.07917,2.26034 -0.07242,0.6929 -0.104941,0.75931 -0.370703,0.75931 h -0.29122 v -2.33197 c 0,-1.71948 -0.04071,-2.36324 -0.154564,-2.45135 -0.503704,-0.38976 -2.053195,-0.53735 -3.625031,-0.34525 l -0.629565,0.077 -0.0776,-1.0876 c -0.135549,-1.90361 -0.66133,-2.81534 -1.80042,-3.12207 -0.30624,-0.0825 -1.976437,-0.11831 -4.541419,-0.0977 l -4.056994,0.0324 -0.188805,0.59752 c -0.104006,0.32867 -0.288798,0.65331 -0.410288,0.7213 -0.141074,0.079 -0.992673,0.0917 -2.356787,0.0352 l -2.135938,-0.0883 -0.195404,-0.33081 c -0.107457,-0.18191 -0.344987,-0.4807 -0.528093,-0.66381 l -0.333006,-0.33269 -4.090607,0.002 c -2.249802,9.7e-4 -4.152667,0.0428 -4.228835,0.0927 -0.07616,0.0499 -0.421912,0.5635 -0.768108,1.14101 -1.4145,2.3596 -3.072051,4.04289 -4.984064,5.06166 -1.123964,0.59887 -1.131349,0.61439 -1.070325,2.27196 0.04082,1.10864 0.06325,1.19126 0.443901,1.64177 1.101453,1.30362 1.265842,1.94639 0.781616,3.05799 -0.26925,0.61804 -0.293358,1.34604 -0.283995,8.60406 3.22e-4,0.24213 0.145853,0.7265 0.323264,1.07661 0.389432,0.76851 0.394447,0.86136 0.06503,1.21201 -0.387779,0.41271 -0.466674,1.47015 -0.390494,5.24481 0.06748,3.34374 0.06899,3.35609 0.373529,3.71802 0.388879,0.46216 1.05257,0.80039 2.00902,1.02352 l 0.754285,0.17592 6.55735,-1.23085 c 3.606463,-0.67712 6.606684,-1.26177 6.66699,-1.29903 0.06031,-0.0373 0.193784,0.002 0.296876,0.0876 0.142692,0.11841 0.17953,0.37143 0.153936,1.05901 -0.04472,1.2007 0.04371,1.26811 1.669103,1.27358 l 1.218607,0.003 2.582979,-2.17018 c 1.420748,-1.19364 2.658847,-2.15255 2.751053,-2.13091 0.0922,0.0216 1.066484,1.05402 2.165152,2.29396 1.324387,1.49468 2.080271,2.25437 2.242751,2.25437 0.353735,0 2.371363,-0.50999 2.541826,-0.64244 0.119097,-0.0926 1.395244,-2.20935 3.447846,-5.7195 l 0.360963,-0.61763 0.03267,0.55605 c 0.05426,0.92589 0.127594,1.06984 0.738578,1.45454 l 0.587783,0.37007 3.705769,0.0839 c 2.596555,0.0587 3.748452,0.12766 3.848079,0.23028 0.0782,0.0806 0.344554,0.79995 0.591554,1.59873 0.61147,1.97745 1.030764,2.45675 2.416478,2.76236 v 3.2e-4 c 0.373677,0.0824 0.855882,0.15475 1.07158,0.16022 0.716449,0.0189 5.031435,-0.48378 5.770393,-0.67229 1.029907,-0.26273 2.112858,-0.87566 2.674399,-1.5136 0.441288,-0.50133 0.983618,-1.64044 0.983618,-2.06588 0,-0.39395 0.479146,-0.43196 5.429848,-0.43196 h 4.951718 l 0.46086,-0.29279 c 0.93574,-0.59461 1.13265,-1.11136 1.1363,-2.9807 0.003,-1.37951 -0.15969,-2.42717 -0.57459,-3.71205 l -0.32107,-0.99399 0.85136,-1.53841 0.85105,-1.5381 -0.0393,-4.57064 -0.0396,-4.57064 -0.43511,-0.38012 c -0.43267,-0.37788 -0.43694,-0.39103 -0.66915,-2.1617 -0.23893,-1.82199 -0.36832,-2.31086 -0.74266,-2.80289 -0.14754,-0.19393 -0.24045,-0.64104 -0.30127,-1.45234 -0.0839,-1.1195 -0.10779,-1.1949 -0.53752,-1.67915 l -0.45019,-0.50673 -1.48093,-0.18001 c -0.89952,-0.1092 -2.811316,-0.18877 -4.869396,-0.20263 l -3.388159,-0.0226 -0.103357,0.3952 c -0.0568,0.21746 -0.148099,0.42304 -0.202629,0.45678 -0.05455,0.0337 -0.512018,-0.0465 -1.016919,-0.17812 -1.702254,-0.44379 -3.785045,-0.85144 -5.317068,-1.04111 -0.836341,-0.10354 -1.444369,-0.16769 -1.903776,-0.17498 z m 0.206713,1.99017 c 0.174352,-0.004 0.666847,0.0805 1.186562,0.20608 1.107327,0.26769 2.80701,0.54823 4.230092,0.69806 0.441623,0.0465 0.840921,0.10723 0.887488,0.13477 0.04657,0.0275 -0.13775,0.55105 -0.409657,1.16363 -0.271908,0.61257 -0.504637,1.26475 -0.5171,1.44919 l -0.02262,0.33552 1.223632,0.0355 c 1.191948,0.0347 1.23317,0.0267 1.585852,-0.30881 0.199133,-0.18943 0.804011,-0.94219 1.344269,-1.67256 l 0.982361,-1.32794 0.520239,0.0107 c 0.286157,0.006 1.743272,0.10307 3.237993,0.21614 l 2.717442,0.20546 0.0377,0.38672 c 0.0308,0.31616 -0.0783,0.51878 -0.59847,1.1118 -0.68376,0.77952 -1.038364,1.35618 -0.89,1.44699 0.05071,0.031 0.42549,0.0932 0.83314,0.13823 0.40765,0.045 0.89541,0.11089 1.08383,0.1464 l 0.34275,0.0644 -0.0339,2.12054 -0.0336,2.12055 -3.026572,0.0616 c -2.923553,0.0597 -3.026565,0.0702 -3.026565,0.30882 0,0.231 0.108558,0.25216 1.667847,0.32515 0.917215,0.0429 2.59853,0.0847 3.73656,0.0927 l 2.06934,0.0145 v 2.2195 2.21919 l -1.25631,0.0352 c -0.81369,0.0228 -1.27273,0.0855 -1.30343,0.17812 -0.0261,0.0787 0.55314,0.5433 1.28709,1.03263 0.73396,0.48933 1.40044,0.94338 1.48125,1.00875 0.10743,0.0869 -0.19536,0.62257 -1.12656,1.99362 -0.7004,1.03122 -1.36557,2.05556 -1.4781,2.27637 -0.11737,0.23029 -0.30024,0.40149 -0.42883,0.40149 -0.12329,0 -0.68636,-0.27792 -1.251589,-0.61763 -1.428937,-0.8588 -1.481949,-0.84678 -1.484381,0.3396 -9.65e-4,0.52655 -0.04277,1.02034 -0.09268,1.09734 -0.06244,0.0963 -1.101611,0.15545 -3.330981,0.18913 -2.057922,0.0311 -3.288131,0.0969 -3.371508,0.18032 -0.185587,0.18559 2.512728,0.29261 7.387033,0.29311 l 3.987256,6.4e-4 -0.0342,1.88367 -0.0342,1.88399 -5.620546,0.0311 c -5.109104,0.0284 -5.634741,0.0505 -5.775104,0.24001 -0.09236,0.12475 -0.154251,0.59369 -0.154251,1.1674 v 0.95912 l -0.648729,0.65972 c -0.516519,0.52539 -0.836968,0.72806 -1.574858,0.99461 -0.773105,0.27928 -1.100161,0.32991 -1.976347,0.30693 -0.577506,-0.0152 -1.777871,-0.0446 -2.667486,-0.0657 l -1.617583,-0.0383 -0.213625,-0.7678 c -0.117433,-0.42238 -0.41151,-1.22877 -0.653442,-1.79194 -0.24193,-0.56315 -0.39998,-1.06372 -0.351224,-1.11242 0.04873,-0.0487 0.820455,-0.0886 1.71497,-0.0886 1.363336,0 1.626379,-0.03 1.626379,-0.18535 0,-0.16173 -0.765996,-0.18943 -6.025173,-0.21739 l -6.025171,-0.032 0.03393,-1.9443 0.03393,-1.94462 h 5.991244 c 5.243189,0 5.991244,-0.0229 5.991244,-0.18503 0,-0.16062 -0.493972,-0.18536 -3.705768,-0.18536 h -3.706123 l -0.06157,-1.04016 c -0.03397,-0.57213 -0.120779,-1.05975 -0.192891,-1.08352 -0.07211,-0.0238 -0.664928,0.29152 -1.31725,0.70056 -0.65233,0.40905 -1.214297,0.74361 -1.248766,0.74361 -0.0345,0 -0.547094,-0.64496 -1.139125,-1.43318 -0.592028,-0.78821 -1.369951,-1.77924 -1.728792,-2.20222 -0.358846,-0.42299 -0.61542,-0.82523 -0.570192,-0.89408 0.04524,-0.0689 0.860546,-0.64224 1.811732,-1.27422 0.951185,-0.63197 1.752298,-1.16915 1.780628,-1.19347 0.172833,-0.14837 -0.305468,-0.23687 -1.574229,-0.29122 l -1.441971,-0.0616 -0.03393,-2.15258 c -0.02581,-1.63947 0.0039,-2.17671 0.123777,-2.25281 0.08658,-0.0549 1.946119,-0.10057 4.132389,-0.10178 3.447279,-0.002 4.0008,-0.0274 4.169148,-0.19572 0.106764,-0.10677 0.194147,-0.27365 0.194147,-0.3707 0,-0.14906 -0.582149,-0.17656 -3.748807,-0.17656 h -3.748807 l -0.07194,-2.12588 c -0.03958,-1.16922 -0.04481,-2.16985 -0.01163,-2.22359 0.03321,-0.0537 0.586973,-0.0977 1.230544,-0.0977 0.927768,0 1.184688,-0.0383 1.241224,-0.18567 0.03981,-0.10373 -0.152782,-0.54378 -0.436046,-0.99555 -0.279155,-0.44524 -0.507674,-0.85407 -0.507674,-0.90854 0,-0.20373 4.912627,-1.61264 5.632478,-1.61507 0.208075,-8e-4 0.43564,0.33897 1.158289,1.73005 0.964262,1.8562 1.014563,1.90393 1.929851,1.82901 0.475551,-0.0389 0.486106,-0.0506 0.747375,-0.84225 0.145757,-0.44162 0.365617,-1.32346 0.488511,-1.95938 0.126873,-0.65654 0.293074,-1.1829 0.384524,-1.21798 0.01107,-0.004 0.02944,-0.006 0.05435,-0.007 z m -36.234282,0.34306 0.707475,0.8058 c 0.649734,0.74006 2.246651,2.0351 2.509153,2.0351 0.145326,0 0.258947,-0.4415 0.261377,-1.01158 9.65e-4,-0.25077 0.0565,-0.48971 0.123149,-0.53092 0.115349,-0.0713 4.217791,0.59685 4.625613,0.75334 0.166158,0.0638 0.194463,-0.0591 0.194463,-0.84571 v -0.92047 l 3.092224,-0.0858 c 1.700777,-0.0472 3.137107,-0.0582 3.192125,-0.0242 0.05499,0.034 0.136776,0.90827 0.181582,1.94304 0.05594,1.29244 0.129665,1.91222 0.235615,1.97949 0.08484,0.0539 1.022824,0.0987 2.084416,0.0999 1.061591,9.7e-4 2.104958,0.0368 2.318462,0.0795 l 0.387981,0.0776 -0.03299,2.97976 -0.03299,2.97976 -2.341394,0.0336 c -1.683877,0.0242 -2.368586,0.0763 -2.43784,0.18535 -0.159661,0.25132 -0.113639,1.28373 0.06377,1.43097 0.103901,0.0862 1.064337,0.14806 2.625076,0.16934 l 2.461089,0.0336 0.0333,2.77084 c 0.01931,1.60592 -0.01526,2.81941 -0.08231,2.88646 -0.06363,0.0636 -1.16268,0.1511 -2.442239,0.19414 l -2.326628,0.0782 -0.03958,0.34683 c -0.03048,0.26574 0.186486,0.68188 0.926441,1.77654 0.764194,1.13052 1.30936,1.75363 2.607484,2.97976 0.980439,0.92605 1.616065,1.61685 1.578313,1.71528 -0.169643,0.44208 -3.614775,5.08913 -3.777395,5.09528 -0.332671,0.0125 -3.252932,-3.06591 -4.056994,-4.27659 -0.414059,-0.62346 -0.811425,-1.16989 -0.883089,-1.21421 -0.07167,-0.0443 -0.948667,0.7508 -1.948701,1.76681 -1.000032,1.01601 -2.344143,2.29899 -2.986982,2.85095 -0.947592,0.81364 -1.24553,1.00341 -1.5736,1.00341 -0.37649,0 -0.434242,-0.0589 -0.832196,-0.84916 -0.521158,-1.03488 -1.159961,-1.74482 -1.569831,-1.74482 -0.163611,0 -3.214285,0.55506 -6.779458,1.23369 -3.565165,0.67863 -6.598579,1.23465 -6.740816,1.23526 -0.248174,0.001 -0.26185,-0.0769 -0.339286,-1.94399 -0.04439,-1.07009 -0.08081,-2.42615 -0.08105,-3.01337 -4.82e-4,-1.15855 0.03566,-1.21767 0.743605,-1.21767 0.194257,0 0.387177,-0.0552 0.42882,-0.12252 0.04162,-0.0673 -0.23308,-1.08927 -0.610402,-2.27102 -0.377322,-1.18176 -0.686115,-2.20868 -0.686113,-2.28202 0,-0.0733 0.528233,-0.5088 1.173681,-0.9676 0.645447,-0.45879 1.173367,-0.87529 1.173367,-0.92581 0,-0.0506 -0.486201,-0.10823 -1.080692,-0.12786 l -1.081005,-0.0355 -0.0333,-2.68697 c -0.02605,-2.10287 6.44e-4,-2.68865 0.123463,-2.69576 0.162699,-0.009 3.164834,0.0348 3.924419,0.0578 0.400928,0.0121 0.432592,-0.0138 0.432592,-0.35751 v -0.3707 l -1.359033,-0.0939 c -0.74736,-0.0517 -1.424746,-0.11823 -1.50543,-0.14765 -0.1727,-0.063 -2.879854,-4.58691 -2.879854,-4.81253 0,-0.0847 0.264115,-0.34217 0.586839,-0.57239 0.951295,-0.67864 2.958012,-2.67976 4.020552,-4.00893 0.835626,-1.04532 1.056121,-1.24833 1.432859,-1.32071 0.244868,-0.0471 1.760807,-0.089 3.368681,-0.0927 z m 8.351173,2.59868 c -0.01827,0.002 -0.03772,0.043 -0.06032,0.11875 -0.0507,0.16986 -0.09787,0.66108 -0.104613,1.09138 -0.009,0.57507 0.02881,0.76853 0.142311,0.73072 0.219632,-0.0731 0.254289,-0.38255 0.147653,-1.31474 -0.05037,-0.44031 -0.08483,-0.62963 -0.125033,-0.62611 z m -11.294802,2.66435 -0.432277,0.41908 c -0.237796,0.23048 -0.432592,0.49166 -0.432592,0.58024 0,0.11705 0.236407,0.16116 0.864869,0.16116 1.012884,0 1.079323,-0.11426 0.432277,-0.7414 z m 5.651327,0.55134 c -0.724587,0.0226 -0.740701,0.0616 -0.717843,1.71905 0.0116,0.84106 0.05361,1.58195 0.0933,1.64617 0.119732,0.19374 0.259442,-0.18034 0.588727,-1.57391 0.391674,-1.65754 0.394574,-1.8025 0.03581,-1.79131 z m 37.21853,2.5035 c -0.386631,0.0217 -0.829263,0.3412 -0.696481,0.55605 0.05668,0.0917 0.487461,0.14357 1.19316,0.14357 1.095792,0 1.104568,-0.002 1.104568,-0.30881 -2e-6,-0.28238 -0.04654,-0.30882 -0.54066,-0.30882 -0.297246,0 -0.70218,-0.0324 -0.900055,-0.0719 -0.0511,-0.0102 -0.105298,-0.0132 -0.160532,-0.0101 z m -32.617107,2.06714 c -0.293757,0.0176 -0.298505,0.19198 -0.433847,1.02854 -0.05424,0.33525 -0.02837,0.51279 0.08545,0.58495 0.210355,0.13321 1.10327,0.13416 1.312853,0.001 0.11046,-0.0701 0.149239,-0.33171 0.123463,-0.83188 l -0.0377,-0.72978 -0.644644,-0.0371 c -0.177606,-0.0103 -0.307656,-0.0219 -0.405575,-0.016 z m -5.006996,0.26734 -1.370971,0.0917 c -0.754151,0.0504 -1.427755,0.12647 -1.496633,0.16902 -0.188347,0.11641 -0.262924,0.6817 -0.106499,0.80706 0.07543,0.0604 0.804165,0.15013 1.619468,0.19949 0.878642,0.0532 1.519484,0.14714 1.573286,0.23059 0.04991,0.0774 0.09146,1.18309 0.09267,2.457 l 0.0019,2.31627 h -0.679516 c -0.462285,0 -0.678533,0.0492 -0.677317,0.15425 0.0011,0.0849 0.501448,0.45364 1.111794,0.81931 0.610339,0.36566 1.109593,0.7378 1.109593,0.82686 0,0.089 -0.417944,0.75916 -0.928955,1.48909 -0.51101,0.72992 -0.909483,1.38633 -0.885287,1.45862 0.02636,0.0787 0.318842,0.11491 0.728523,0.0902 l 0.68423,-0.0415 0.08985,0.96791 c 0.0495,0.53227 0.115849,1.01005 0.14734,1.06185 0.08864,0.14578 0.266026,-0.007 1.47307,-1.26762 2.530287,-2.64298 3.434794,-4.03739 2.86038,-4.40916 -0.08493,-0.0549 -1.043842,-0.0999 -2.130912,-0.0999 h -1.976347 l -0.01728,-3.11861 -0.01728,-3.11893 -0.60255,-0.54192 z m 40.244466,2.88394 c -0.761022,4.8e-4 -1.789651,0.009 -2.901845,0.0251 -4.216784,0.0618 -4.555279,0.107 -4.372719,0.58276 0.0802,0.20899 0.314175,0.21631 4.250826,0.131 4.078208,-0.0884 4.475133,-0.13308 4.475133,-0.50359 0,-0.0863 -0.06964,-0.18211 -0.154564,-0.21299 -0.04246,-0.0155 -0.535806,-0.0229 -1.296831,-0.0223 z m 3.152542,2.15196 c -0.192056,0 -0.08482,0.32542 0.338973,1.02823 0.238564,0.39563 0.39906,0.7754 0.356566,0.84413 -0.04787,0.0774 -0.702695,0.10995 -1.722509,0.0855 -1.596883,-0.0384 -2.034374,0.0329 -1.658737,0.27049 0.290059,0.18344 4.814105,0.15246 4.814105,-0.033 0,-0.16341 -1.969978,-2.19531 -2.128398,-2.19531 z m -45.855583,1.19473 c -0.250233,-0.002 -0.469961,0.0181 -0.532806,0.0691 -0.160238,0.12995 -0.224338,1.71336 -0.0754,1.8623 0.04345,0.0434 0.127984,0.0486 0.187865,0.0116 0.152742,-0.0944 1.338927,-1.67273 1.338927,-1.78157 0,-0.0916 -0.501531,-0.15786 -0.918589,-0.16147 z m 32.176662,0.0804 c -0.336882,0.037 -1.517494,0.91879 -1.453279,1.11211 0.03363,0.10126 0.771925,0.16484 2.446951,0.2108 1.319302,0.0362 2.555345,0.0779 2.746653,0.0927 0.191309,0.0148 0.455111,-0.0305 0.586526,-0.10085 0.28825,-0.15427 0.314931,-0.55783 0.04367,-0.66192 -0.10747,-0.0412 -1.080187,-0.0751 -2.161698,-0.0751 -1.894159,0 -1.966609,-0.009 -1.966609,-0.251 0,-0.13802 -0.08391,-0.28325 -0.186607,-0.32264 -0.01435,-0.006 -0.03315,-0.007 -0.05561,-0.004 z m -39.302317,0.0952 c -0.558918,0.003 -0.528073,0.23654 -0.04681,1.22364 0.265002,0.54352 0.549491,0.98833 0.632395,0.98833 0.159055,0 0.352577,-1.309 0.274884,-1.85949 -0.03683,-0.26094 -0.116662,-0.30767 -0.584327,-0.34117 -0.10432,-0.007 -0.196296,-0.0117 -0.276142,-0.0113 z m 29.30246,1.59434 c 0.05692,0 0.335708,0.34219 0.619828,0.76057 l 0.516784,0.76088 -0.389552,0.32012 -0.389551,0.32013 0.0013,1.4517 h -3.22e-4 c 8.04e-4,1.04656 -0.04023,1.4514 -0.147026,1.4514 -0.295955,0 -3.356571,-3.506 -3.275061,-3.75164 0.02548,-0.0768 0.403029,-0.17931 0.839106,-0.22776 0.436078,-0.0485 1.059496,-0.15199 1.385422,-0.22996 0.508374,-0.1216 0.602894,-0.19242 0.664124,-0.49856 0.03926,-0.19628 0.118082,-0.35688 0.174984,-0.35688 z m -22.761761,1.80419 c -0.121451,0.0751 -0.13878,1.45336 -0.01979,1.57234 0.125512,0.12555 0.847934,0.0981 1.228343,-0.0465 l 0.338659,-0.12881 -0.722555,-0.73009 c -0.397365,-0.40156 -0.768423,-0.70173 -0.824657,-0.66695 z m -6.170939,1.40835 c -0.20098,9.7e-4 -1.998745,1.4099 -2.069337,1.62167 -0.05961,0.17883 1.819625,0.0512 2.007134,-0.13634 0.06524,-0.0652 0.144111,-0.42628 0.175298,-0.80236 0.04356,-0.5253 0.01729,-0.68357 -0.113095,-0.68297 z" />
    <path
       inkscape:connector-curvature="0"
       id="path77"
       d="m 9.2529048,277.105 c 0.0076,-0.0583 2.1382922,-4.17574 4.7349042,-9.15 2.596611,-4.97424 4.726906,-9.08745 4.733991,-9.14044 0.01081,-0.0808 -1.057494,-0.0963 -6.624211,-0.0963 H 5.4604936 l -2.6686075,-2.10692 c -1.4677342,-1.15879 -2.66860669,-2.13412 -2.66860669,-2.16737 0,-0.0333 6.42728319,-0.0603 14.28285559,-0.0603 11.399903,0 14.282783,0.018 14.282511,0.0888 -1.99e-4,0.0489 -0.403868,1.03952 -0.897067,2.20149 l -0.896725,2.11266 -0.843887,0.0193 -0.843886,0.0193 -2.142247,4.47684 c -1.178236,2.46227 -2.142813,4.52066 -2.143504,4.57419 -0.001,0.0815 0.21413,0.0888 1.323442,0.0453 0.728585,-0.0285 1.336614,-0.0646 1.351177,-0.0799 0.01457,-0.0161 1.4546,-3.04965 3.200084,-6.74279 l 3.173603,-6.71484 h 9.279985 c 6.050709,0 9.27998,0.0243 9.27998,0.0697 0,0.0669 -1.570801,3.74391 -1.707031,3.99595 -0.06125,0.11326 -0.540602,0.12949 -6.838773,0.23089 -3.725098,0.0599 -6.875098,0.10916 -6.999998,0.10916 l -0.227095,4e-5 -0.559673,1.2258 c -0.307817,0.6742 -0.559709,1.26048 -0.559752,1.30288 0,0.0729 6.864817,0.17158 11.938775,0.17158 1.392253,0 1.766304,0.0189 1.766304,0.0894 0,0.0492 -0.438829,1.07245 -0.975182,2.27394 l -0.975175,2.1846 h -7.01223 -7.012228 l -0.598241,1.33202 c -0.329034,0.73261 -0.598242,1.37618 -0.598242,1.43019 0,0.0833 1.032132,0.0901 6.832661,0.0451 5.785183,-0.0449 6.832658,-0.0382 6.832658,0.0446 0,0.0539 -0.448378,1.09692 -0.996393,2.31814 l -0.996401,2.22043 -2.459771,-2e-5 c -7.003219,-7e-5 -16.145017,-0.0981 -16.145017,-0.17319 0,-0.0433 0.268949,-0.68549 0.597665,-1.42721 0.399545,-0.90156 0.5781,-1.35614 0.538643,-1.3713 -0.03246,-0.0125 -2.340753,1.47912 -5.129533,3.31468 l -5.07051,3.3374 -1.467974,0.0514 c -1.2901092,0.0451 -1.4663022,0.0385 -1.4541832,-0.0546 z M 111.4998,268.45349 c -1.39912,-4.3383 -2.5659,-7.92047 -2.59285,-7.96039 -0.0366,-0.0542 -0.50082,0.9395 -1.82681,3.90957 -1.84084,4.12329 -1.88813,4.23288 -1.85329,4.29502 0.0115,0.0205 1.16544,0.0854 2.56421,0.14412 1.39876,0.0587 2.55249,0.12325 2.56382,0.1434 0.0113,0.0202 0.012,0.0521 0.002,0.0708 -0.0105,0.0187 -1.67244,1.02607 -3.69315,2.23843 l -3.67401,2.20429 h -0.6695 c -0.36822,0 -1.47996,-0.0212 -2.470537,-0.0473 -1.48269,-0.0389 -1.798974,-0.0642 -1.789394,-0.14322 0.006,-0.053 1.999991,-4.33287 4.430261,-9.5111 l 4.41865,-9.415 2.49167,0.0184 2.49168,0.0184 1.38423,4.11498 c 0.76133,2.26324 1.40954,4.16013 1.44048,4.2153 0.0485,0.0865 0.33997,-0.48752 2.09927,-4.13274 l 2.04304,-4.23307 h 6.47202 c 5.15956,0 6.46879,0.018 6.4561,0.0888 -0.009,0.0489 -0.75875,1.02222 -1.66666,2.16305 l -1.65074,2.07419 -3.01161,0.004 -3.01161,0.004 -3.98041,8.61318 c -2.41685,5.22976 -4.04303,8.69019 -4.13978,8.80923 -0.0877,0.10791 -0.18712,0.1971 -0.22103,0.1984 -0.0405,10e-4 -0.93327,-2.70023 -2.60553,-7.88548 z m -68.687319,4.97388 c -0.701199,-0.0282 -1.433087,-0.0556 -1.62643,-0.061 -0.289823,-0.009 -0.349269,-0.0284 -0.338644,-0.11629 0.0071,-0.0587 2.01892,-4.3276 4.470741,-9.48664 l 4.457855,-9.38008 h 2.362488 c 1.299377,0 2.371958,0.0273 2.383525,0.0608 0.01154,0.0334 -0.794152,1.81523 -1.790483,3.95968 -0.996322,2.14446 -1.811496,3.92762 -1.811496,3.96258 0,0.035 0.03141,0.0473 0.06973,0.0275 0.03832,-0.0198 2.337336,-1.83034 5.108867,-4.02325 l 5.039142,-3.9871 h 3.317418 c 1.82458,0 3.317418,0.0251 3.317418,0.0562 0,0.0756 0.415735,-0.2761 -7.031865,5.94886 -3.637443,3.04031 -6.63676,5.5602 -6.665148,5.59976 -0.02835,0.0396 -0.04405,0.10666 -0.03479,0.14929 0.0093,0.0426 0.637222,1.67527 1.395535,3.62819 0.758312,1.95292 1.364571,3.57605 1.347248,3.60694 -0.01736,0.031 -1.077701,0.048 -2.356394,0.0378 l -2.324905,-0.0184 -1.340211,-3.89179 c -0.737118,-2.14049 -1.367681,-3.9408 -1.401252,-4.00068 -0.05481,-0.0977 -0.241371,0.29125 -1.832189,3.82073 -1.564322,3.47074 -1.789564,3.94141 -1.928888,4.03068 -0.195197,0.12503 -1.014949,0.14751 -2.787229,0.076 z m 16.752965,-0.0178 c 0,-0.0713 7.312202,-16.24765 8.351612,-18.47582 l 0.256912,-0.55073 h 2.349115 c 1.5222,0 2.349122,0.0248 2.349122,0.0703 0,0.0387 -0.752988,1.83089 -1.673311,3.98274 -0.920316,2.15183 -1.673304,3.94292 -1.673304,3.98018 0,0.0373 0.01343,0.068 0.02984,0.068 0.01641,7e-5 2.353496,-1.82266 5.193472,-4.05048 l 5.163596,-4.05058 h 3.400712 c 2.888538,0 3.391926,0.0143 3.342375,0.0977 -0.03204,0.0537 -3.168891,2.63263 -6.970685,5.73075 -3.801788,3.09813 -6.937642,5.67461 -6.968574,5.72546 -0.04775,0.0787 -0.02599,0.17051 0.145017,0.61145 0.110678,0.28543 0.749533,1.92525 1.419667,3.64407 0.670125,1.71881 1.205473,3.14712 1.189642,3.17404 -0.01578,0.0269 -1.058202,0.0598 -2.316392,0.0728 l -2.287611,0.0237 -1.377717,-3.92187 c -0.757747,-2.15705 -1.399076,-3.93806 -1.425171,-3.95782 -0.02725,-0.0205 -0.817624,1.65145 -1.853925,3.92188 l -1.806471,3.95781 -2.418981,0.0184 c -1.930796,0.0143 -2.418981,1.5e-4 -2.418981,-0.0717 z m 18.532904,-0.0903 c 0.0071,-0.0596 1.999845,-4.34464 4.428352,-9.52236 l 4.415449,-9.41403 h 9.279742 c 7.622137,0 9.279767,0.0161 9.279767,0.0931 0,0.0512 -0.36432,0.98652 -0.80959,2.07853 l -0.80958,1.98549 -2.00913,0.0196 c -1.10503,0.0107 -4.284571,0.0428 -7.065636,0.0712 l -5.056489,0.0514 -0.590914,1.34871 c -0.325012,0.74178 -0.590923,1.38933 -0.590923,1.43899 0,0.0728 1.330137,0.0902 6.812741,0.0902 5.647421,0 6.812751,0.0161 6.812751,0.0947 0,0.0521 -0.41754,1.05133 -0.92787,2.22066 l -0.92789,2.12599 -6.9799,0.0178 -6.979904,0.0178 -0.577823,1.29667 c -0.317803,0.71317 -0.578028,1.33664 -0.578272,1.38549 -3.92e-4,0.0708 1.384439,0.0888 6.792379,0.0888 5.523219,0 6.792813,0.0178 6.792813,0.0917 0,0.0505 -0.43564,1.08174 -0.968074,2.29172 l -0.968104,2.19997 -9.393403,0.0178 c -8.398541,0.0161 -9.392028,0.007 -9.380492,-0.0904 z"
       style="fill:#ffff00;stroke:#f9f9f9;stroke-width:0;stroke-miterlimit:4;stroke-dasharray:none;stroke-opacity:0.96825406;fill-opacity:1" />
    <path
       inkscape:connector-curvature="0"
       id="path77-3"
       d="m 9.252912,277.105 c 0.0076,-0.0583 2.138292,-4.17574 4.734904,-9.15 2.596611,-4.97424 4.726906,-9.08745 4.733991,-9.14044 0.01081,-0.0808 -1.057494,-0.0963 -6.624211,-0.0963 H 5.460501 l -2.668607,-2.10692 c -1.467735,-1.15879 -2.668607,-2.13412 -2.668607,-2.16737 0,-0.0333 6.427283,-0.0603 14.282855,-0.0603 11.399903,0 14.282783,0.018 14.282511,0.0888 -1.99e-4,0.0489 -0.403868,1.03952 -0.897068,2.20149 l -0.896723,2.11266 -0.843888,0.0193 -0.843886,0.0193 -2.142247,4.47684 c -1.178236,2.46227 -2.142813,4.52066 -2.143504,4.57419 -0.001,0.0815 0.21413,0.0888 1.323442,0.0453 0.728585,-0.0285 1.336614,-0.0646 1.351177,-0.0799 0.01457,-0.0161 1.4546,-3.04965 3.200084,-6.74279 l 3.173603,-6.71484 h 9.279986 c 6.050708,0 9.27998,0.0243 9.27998,0.0697 0,0.0669 -1.570803,3.74391 -1.707031,3.99595 -0.06125,0.11326 -0.540602,0.12949 -6.838773,0.23089 -3.725098,0.0599 -6.875097,0.10916 -6.999999,0.10916 l -0.227095,4e-5 -0.559673,1.2258 c -0.307816,0.6742 -0.559707,1.26048 -0.559752,1.30288 0,0.0729 6.864818,0.17158 11.938775,0.17158 1.392253,0 1.766305,0.0189 1.766305,0.0894 0,0.0492 -0.43883,1.07245 -0.975182,2.27394 l -0.975175,2.1846 H 36.379778 29.36755 l -0.598242,1.33202 c -0.329033,0.73261 -0.598241,1.37618 -0.598241,1.43019 0,0.0833 1.032131,0.0901 6.832661,0.0451 5.785183,-0.0449 6.832658,-0.0382 6.832658,0.0446 0,0.0539 -0.448376,1.09692 -0.996392,2.31814 l -0.996402,2.22043 -2.459771,-2e-5 c -7.003219,-7e-5 -16.145017,-0.0981 -16.145017,-0.17319 0,-0.0433 0.268949,-0.68549 0.597665,-1.42721 0.399545,-0.90156 0.5781,-1.35614 0.538643,-1.3713 -0.03246,-0.0125 -2.340753,1.47912 -5.129533,3.31468 l -5.07051,3.3374 -1.467974,0.0514 c -1.290109,0.0451 -1.466302,0.0385 -1.454183,-0.0546 z m 102.246898,-8.65151 c -1.39912,-4.3383 -2.5659,-7.92047 -2.59285,-7.96039 -0.0366,-0.0542 -0.50082,0.9395 -1.82681,3.90957 -1.84084,4.12329 -1.88813,4.23288 -1.85329,4.29502 0.0115,0.0205 1.16544,0.0854 2.56421,0.14412 1.39876,0.0587 2.55249,0.12325 2.56382,0.1434 0.0113,0.0202 0.012,0.0521 0.002,0.0708 -0.0105,0.0187 -1.67245,1.02607 -3.69315,2.23843 l -3.67402,2.20429 h -0.6695 c -0.36822,0 -1.47996,-0.0212 -2.470532,-0.0473 -1.48269,-0.0389 -1.798976,-0.0642 -1.789395,-0.14322 0.006,-0.053 1.999987,-4.33287 4.430267,-9.5111 l 4.41853,-9.415 2.49167,0.0184 2.49168,0.0184 1.38423,4.11498 c 0.76133,2.26324 1.40954,4.16013 1.44048,4.2153 0.0485,0.0865 0.33997,-0.48752 2.09927,-4.13274 l 2.04304,-4.23307 h 6.47202 c 5.15956,0 6.46879,0.018 6.4561,0.0888 -0.009,0.0489 -0.75875,1.02222 -1.66666,2.16305 l -1.65074,2.07419 -3.01161,0.004 -3.01161,0.004 -3.98041,8.61318 c -2.41685,5.22976 -4.04303,8.69019 -4.13978,8.80923 -0.0877,0.10791 -0.18712,0.1971 -0.22103,0.1984 -0.0405,10e-4 -0.93327,-2.70023 -2.60553,-7.88548 z m -68.687321,4.97388 c -0.701199,-0.0282 -1.433086,-0.0556 -1.626431,-0.061 -0.289822,-0.009 -0.349268,-0.0284 -0.338642,-0.11629 0.0071,-0.0587 2.018919,-4.3276 4.470741,-9.48664 l 4.457853,-9.38008 h 2.362489 c 1.299376,0 2.371958,0.0273 2.383525,0.0608 0.01154,0.0334 -0.794152,1.81523 -1.790483,3.95968 -0.996323,2.14446 -1.811496,3.92762 -1.811496,3.96258 0,0.035 0.03141,0.0473 0.06973,0.0275 0.03832,-0.0198 2.337334,-1.83034 5.108866,-4.02325 l 5.039143,-3.9871 h 3.317417 c 1.82458,0 3.317417,0.0251 3.317417,0.0562 0,0.0756 0.415735,-0.2761 -7.031865,5.94886 -3.637442,3.04031 -6.636758,5.5602 -6.665148,5.59976 -0.02835,0.0396 -0.04405,0.10666 -0.03479,0.14929 0.0093,0.0426 0.637222,1.67527 1.395537,3.62819 0.758311,1.95292 1.36457,3.57605 1.347247,3.60694 -0.01736,0.031 -1.0777,0.048 -2.356395,0.0378 l -2.324904,-0.0184 -1.340212,-3.89179 c -0.737116,-2.14049 -1.367679,-3.9408 -1.401252,-4.00068 -0.05481,-0.0977 -0.241372,0.29125 -1.83219,3.82073 -1.564319,3.47074 -1.789562,3.94141 -1.928886,4.03068 -0.195197,0.12503 -1.01495,0.14751 -2.787229,0.076 z m 16.752964,-0.0178 c 0,-0.0713 7.312203,-16.24765 8.351613,-18.47582 l 0.256913,-0.55073 h 2.349114 c 1.522201,0 2.349121,0.0248 2.349121,0.0703 0,0.0387 -0.752988,1.83089 -1.673309,3.98274 -0.920316,2.15183 -1.673305,3.94292 -1.673305,3.98018 0,0.0373 0.01344,0.068 0.02984,0.068 0.0164,7e-5 2.353495,-1.82266 5.193472,-4.05048 l 5.163595,-4.05058 h 3.400713 c 2.888539,0 3.391927,0.0143 3.342376,0.0977 -0.03204,0.0537 -3.168891,2.63263 -6.970686,5.73075 -3.801787,3.09813 -6.937642,5.67461 -6.968575,5.72546 -0.04775,0.0787 -0.02598,0.17051 0.145018,0.61145 0.110678,0.28543 0.749533,1.92525 1.419667,3.64407 0.670124,1.71881 1.205474,3.14712 1.189641,3.17404 -0.01577,0.0269 -1.058201,0.0598 -2.31639,0.0728 l -2.287611,0.0237 -1.377718,-3.92187 c -0.757748,-2.15705 -1.399077,-3.93806 -1.425172,-3.95782 -0.02725,-0.0205 -0.817624,1.65145 -1.853925,3.92188 l -1.806469,3.95781 -2.418983,0.0184 c -1.930797,0.0143 -2.418979,1.5e-4 -2.418979,-0.0717 z m 18.532904,-0.0903 c 0.0071,-0.0596 1.999845,-4.34464 4.428352,-9.52236 l 4.415449,-9.41403 H 96.2219 c 7.62214,0 9.27977,0.0161 9.27977,0.0931 0,0.0512 -0.36432,0.98652 -0.80959,2.07853 l -0.80958,1.98549 -2.00913,0.0196 c -1.10503,0.0107 -4.284572,0.0428 -7.065639,0.0712 l -5.056489,0.0514 -0.590912,1.34871 c -0.325012,0.74178 -0.590923,1.38933 -0.590923,1.43899 0,0.0728 1.330137,0.0902 6.81274,0.0902 5.647423,0 6.812753,0.0161 6.812753,0.0947 0,0.0521 -0.41754,1.05133 -0.92787,2.22066 l -0.92789,2.12599 -6.979902,0.0178 -6.979904,0.0178 -0.577824,1.29667 c -0.317801,0.71317 -0.578027,1.33664 -0.57827,1.38549 -2.65e-4,0.0708 1.384437,0.0888 6.792378,0.0888 5.523219,0 6.792814,0.0178 6.792814,0.0917 0,0.0505 -0.435641,1.08174 -0.968076,2.29172 l -0.968102,2.19997 -9.393404,0.0178 c -8.398542,0.0161 -9.392029,0.007 -9.380493,-0.0904 z"
       style="fill:url(#linearGradient1096);fill-opacity:1;stroke:#f9f9f9;stroke-width:0;stroke-miterlimit:4;stroke-dasharray:none;stroke-opacity:0.96825406" />
  </g>
</svg>
