<?xml version="1.0" encoding="UTF-8" standalone="no"?>
<!-- Generator: Adobe Illustrator 16.0.1, SVG Export Plug-In . SVG Version: 6.00 Build 0)  -->

<svg
   xmlns:dc="http://purl.org/dc/elements/1.1/"
   xmlns:cc="http://creativecommons.org/ns#"
   xmlns:rdf="http://www.w3.org/1999/02/22-rdf-syntax-ns#"
   xmlns:svg="http://www.w3.org/2000/svg"
   xmlns="http://www.w3.org/2000/svg"
   xmlns:sodipodi="http://sodipodi.sourceforge.net/DTD/sodipodi-0.dtd"
   xmlns:inkscape="http://www.inkscape.org/namespaces/inkscape"
   version="1.1"
   id="svg3021"
   sodipodi:docname="SMT_logo_black.svg"
   inkscape:version="0.92.5 (2060ec1f9f, 2020-04-08)"
   x="0px"
   y="0px"
   width="500"
   height="200"
   viewBox="0 0 500 200"
   enable-background="new 0 0 110 8.75"
   xml:space="preserve"><metadata
   id="metadata7"><rdf:RDF><cc:Work
       rdf:about=""><dc:format>image/svg+xml</dc:format><dc:type
         rdf:resource="http://purl.org/dc/dcmitype/StillImage" /><dc:title></dc:title></cc:Work></rdf:RDF></metadata><defs
   id="defs5" />
<sodipodi:namedview
   id="namedview7"
   pagecolor="#ffffff"
   inkscape:cy="78.33071"
   inkscape:cx="279.38074"
   inkscape:zoom="1.2866957"
   guidetolerance="10"
   fit-margin-left="0"
   gridtolerance="10"
   objecttolerance="10"
   fit-margin-top="0"
   showgrid="false"
   borderopacity="1"
   bordercolor="#666666"
   inkscape:current-layer="svg3021"
   inkscape:window-y="0"
   inkscape:window-x="0"
   fit-margin-bottom="0"
   fit-margin-right="0"
   inkscape:window-height="743"
   inkscape:window-width="1366"
   inkscape:pageshadow="2"
   inkscape:pageopacity="0"
   inkscape:window-maximized="1"
   inkscape:pagecheckerboard="true">
	</sodipodi:namedview>
<path
   id="path2996"
   inkscape:connector-curvature="0"
   d="m 20.407719,51.513254 c -1.603726,-0.20593 -4.416821,-0.82376 -5.875951,-1.29262 l -0.56963,-0.17964 2.668498,-1.49419 2.668496,-1.49417 1.831579,0.59154 c 3.154875,1.01655 4.947019,1.32767 7.79955,1.33642 2.335482,0.009 2.589625,-0.022 3.347671,-0.39434 0.981516,-0.47762 1.792143,-1.6125 1.792143,-2.50199 0,-0.45571 -0.140214,-0.71424 -0.657265,-1.20061 -0.94208,-0.89388 -2.992748,-1.57307 -7.098465,-2.35302 -6.357947,-1.21375 -7.698768,-1.61249 -9.679328,-2.87444 -4.215262,-2.68163 -0.692319,-6.314118 7.738203,-7.979191 4.80242,-0.946475 9.701237,-0.893893 13.824482,0.144655 1.717654,0.433793 3.947973,1.26633 3.785848,1.415317 -0.127076,0.122681 -5.481593,2.278508 -5.652483,2.278508 -0.09201,0 -0.552102,-0.184021 -1.01657,-0.403123 -3.014656,-1.450366 -8.185143,-2.177739 -10.77915,-1.524844 -0.771192,0.197174 -1.152406,0.407502 -1.638783,0.915789 -0.722992,0.753664 -0.7931,1.257571 -0.27605,1.91045 0.84568,1.069159 2.725459,1.651919 8.754773,2.707939 5.932916,1.03847 7.593607,1.52922 8.851173,2.62029 1.564292,1.35835 1.240042,3.33015 -0.832535,5.096 -3.531706,3.01028 -8.548831,4.6622 -14.683308,4.83308 -1.573055,0.0438 -3.203072,-0.0175 -4.302898,-0.15778 z m 130.059671,-0.18841 c -0.6967,-0.11826 -1.6344,-0.22347 -2.09011,-0.22785 -0.94645,-0.0126 -0.92016,0.34179 -0.19279,-2.77365 0.23662,-1.0122 0.84567,-4.36424 1.35834,-7.44901 1.30139,-7.856508 1.47228,-8.842411 1.5862,-9.01331 0.0526,-0.08332 1.24004,-0.184021 2.63344,-0.223466 l 2.53706,-0.07004 0.6967,1.178682 c 0.94646,1.603733 3.47912,5.017124 6.76544,9.114074 1.50733,1.8754 2.8832,3.61059 3.06286,3.85159 0.29796,0.39874 0.34616,0.41626 0.54771,0.16212 2.80435,-3.53171 8.44367,-10.914979 9.96415,-13.044516 l 0.78872,-1.099825 2.32234,-0.184037 c 1.27947,-0.100706 2.353,-0.153351 2.39245,-0.113985 0.0394,0.03937 0.13137,1.108583 0.20593,2.374913 0.20595,3.58428 0.74929,8.43928 1.67823,15.01631 0.18403,1.27948 0.30234,2.35739 0.27167,2.38806 -0.0307,0.0307 -1.23566,0.10514 -2.68165,0.16651 l -2.62469,0.10513 -0.1007,-1.15679 c -0.21909,-2.4494 -0.46886,-4.11885 -1.11736,-7.3526 -0.36368,-1.84035 -0.72737,-3.76394 -0.79749,-4.26784 -0.0745,-0.50829 -0.17964,-0.92017 -0.23222,-0.92017 -0.1665,0 -7.05466,8.56635 -8.59703,10.69152 l -1.4197,1.93674 h -1.3671 -1.36711 l -0.82378,-1.04286 c -0.45571,-0.57402 -1.74833,-2.10764 -2.8832,-3.4134 -2.36616,-2.72985 -4.50885,-5.50789 -5.2888,-6.85747 -0.29796,-0.51704 -0.60468,-0.87198 -0.67917,-0.79749 -0.0789,0.0789 -0.45133,2.24786 -0.83254,4.82872 -0.66165,4.48693 -1.00781,6.45872 -1.36711,7.82584 -0.1928,0.72299 -0.24976,0.73175 -2.34862,0.36806 z m 83.72684,-0.10071 c 0.65725,-0.89827 0.95521,-1.41094 0.95521,-1.66507 0,-0.24538 -0.10955,-0.24538 -1.2225,-0.022 -1.81406,0.3637 -5.66125,0.35054 -7.04151,-0.0262 -2.15582,-0.58716 -3.55361,-1.66945 -4.14953,-3.21622 -0.35931,-0.93331 -0.21032,-1.4898 0.59592,-2.25222 2.16459,-2.0463 8.75039,-3.54048 13.25047,-3.0059 1.55991,0.18404 3.92169,0.77118 3.75517,0.93332 -0.0394,0.0394 -0.8413,0.29796 -1.779,0.57839 l -1.70012,0.50829 -1.9937,-0.53896 c -3.43969,-0.92894 -6.21335,-0.70546 -7.77765,0.62221 -1.17431,0.99904 -1.48104,1.91921 -0.97275,2.90511 0.54773,1.04286 2.25661,2.1164 4.19773,2.62906 1.18308,0.3111 3.59306,0.29796 4.5176,-0.022 1.24882,-0.43817 2.33988,-1.7045 2.33988,-2.72108 v -0.48199 l 1.81405,-0.17528 c 0.99904,-0.0964 1.84033,-0.15335 1.8754,-0.12268 0.0658,0.0569 -1.27073,2.45816 -2.53706,4.54827 -0.92892,1.54238 -1.01217,1.5862 -3.25127,1.80529 l -1.16992,0.11398 z m 122.3083,-0.25853 c 0.53896,-2.63344 0.85445,-9.60045 0.62661,-13.78943 -0.10071,-1.866624 -0.23224,-3.439686 -0.28044,-3.492268 -0.0482,-0.05264 -2.65536,-0.07889 -5.78394,-0.05264 -6.79612,0.04822 -6.95825,0.01265 -5.23183,-1.130496 0.59593,-0.394349 1.24443,-0.867586 1.45036,-1.051623 0.35054,-0.311096 0.46448,-0.32425 1.86664,-0.144655 3.25128,0.411881 8.61018,0.560868 16.49297,0.460084 4.35548,-0.05691 8.45683,-0.175279 9.10533,-0.258531 0.9114,-0.118254 1.23128,-0.105132 1.41092,0.06577 0.18841,0.184037 0.18403,0.280427 -0.0263,0.613451 -0.1358,0.219086 -0.34176,0.674791 -0.4557,1.016557 l -0.19718,0.626604 -1.6344,-0.122681 c -0.90263,-0.06577 -3.15049,-0.118254 -5.00836,-0.118254 h -3.37395 l -0.1358,0.920168 c -0.07,0.503908 -0.1709,4.469404 -0.22348,8.802974 l -0.092,7.88281 -3.6544,-0.0126 c -2.01124,-0.009 -3.9436,0.0438 -4.29852,0.11826 -0.6485,0.1358 -0.6485,0.1358 -0.55649,-0.33303 z M 102.8989,50.001554 c 0,-0.0394 0.11831,-0.56963 0.26291,-1.18746 0.31111,-1.33644 0.37683,-3.33453 0.1928,-5.89348 l -0.13583,-1.88416 h 0.53895 c 0.29796,0 1.01219,-0.0876 1.59497,-0.19279 1.03848,-0.18842 1.06915,-0.18404 1.91483,0.33301 0.46885,0.28482 2.12954,1.17432 3.68507,1.97179 1.55553,0.79749 3.92168,2.00685 5.25374,2.6904 1.33206,0.68357 2.45817,1.20937 2.49761,1.16994 0.0394,-0.0438 0.15336,-1.3452 0.24538,-2.89635 0.092,-1.55114 0.24099,-2.89196 0.31986,-2.97521 0.0833,-0.0833 0.76681,-0.18842 1.52486,-0.23224 1.28386,-0.0745 1.37149,-0.0569 1.28386,0.23662 -0.4557,1.56867 -0.82816,5.38081 -0.67917,6.95386 0.0833,0.89389 0.057,1.1524 -0.12708,1.20936 -0.12708,0.0394 -0.60907,0.18404 -1.06477,0.32425 l -0.82815,0.25416 -1.86664,-0.88512 c -1.02971,-0.48638 -3.97864,-1.91921 -6.55951,-3.18994 -2.58086,-1.26633 -4.72792,-2.26537 -4.77174,-2.22154 -0.0832,0.0833 -0.36369,3.24688 -0.44694,4.97768 l -0.0438,0.91579 -0.85444,0.18842 c -1.47666,0.32425 -1.93674,0.40312 -1.93674,0.33301 z m 304.65562,-0.0394 c 0,-0.0789 0.11826,-0.70108 0.27167,-1.3934 0.21909,-1.01658 0.25415,-1.85349 0.16652,-4.39493 l -0.10513,-3.13733 h 0.63973 c 0.35054,0 1.02095,-0.0964 1.49856,-0.21909 l 0.85445,-0.22348 1.33205,0.77996 c 1.54677,0.90703 11.03768,5.74888 11.09903,5.66563 0.0262,-0.0307 0.13153,-1.36712 0.23661,-2.97083 0.10087,-1.59936 0.22347,-2.94456 0.26729,-2.98838 0.0438,-0.0394 0.70108,-0.11399 1.46351,-0.17089 l 1.38026,-0.092 -0.0964,0.56963 c -0.43817,2.5721 -0.64412,4.78927 -0.58277,6.2221 l 0.0789,1.63441 -0.94209,0.27604 c -0.52143,0.15335 -1.06914,0.27167 -1.21375,0.26291 -0.14466,-0.009 -3.14173,-1.41531 -6.65152,-3.12857 -4.21964,-2.05506 -6.42805,-3.04972 -6.50255,-2.92265 -0.0613,0.10513 -0.1665,1.02971 -0.22784,2.05504 -0.0658,1.02535 -0.15778,2.2873 -0.21033,2.80873 l -0.092,0.94646 -1.03409,0.19279 c -0.57402,0.10513 -1.17432,0.23224 -1.33207,0.28044 -0.1665,0.0482 -0.29795,0.0263 -0.29795,-0.0526 z m 32.55655,0 c -0.8895,-0.0833 -2.5239,-0.39436 -3.0059,-0.5784 -0.42064,-0.15778 -0.40312,-0.18404 0.68357,-0.82376 l 1.11734,-0.66603 1.46352,0.42065 c 0.98151,0.28043 1.87978,0.42064 2.72545,0.42064 1.16556,0 1.29262,-0.0351 1.74833,-0.49075 0.56525,-0.56087 0.61345,-0.87198 0.20595,-1.27949 -0.45571,-0.4557 -1.3014,-0.73613 -3.72012,-1.25317 -3.18993,-0.67919 -4.26347,-1.27073 -4.26347,-2.35302 0,-1.45475 3.9436,-2.79557 7.67685,-2.61153 1.70452,0.0833 4.15831,0.68355 3.86035,0.94208 -0.0833,0.0702 -0.63974,0.33301 -1.24442,0.58278 l -1.09545,0.4557 -0.75366,-0.32864 c -2.34424,-1.01656 -5.37643,-0.80185 -5.19677,0.36807 0.092,0.63974 0.85443,0.95523 3.6982,1.52486 2.97085,0.59154 3.69384,0.85883 4.12763,1.52047 0.52581,0.79748 -0.17089,1.89731 -1.81844,2.88321 -1.3934,0.83254 -4.35547,1.43721 -6.20896,1.26633 z m -369.768713,-2.1296 v -2.12078 l -5.35452,0.10514 c -2.94455,0.0569 -5.442158,0.1271 -5.542938,0.15777 -0.109543,0.0351 -0.22347,0.74053 -0.280433,1.7571 -0.05258,0.9377 -0.122696,1.7308 -0.153366,1.76147 -0.03505,0.0307 -0.902645,0.10955 -1.92798,0.17527 l -1.871014,0.11826 0.131455,-0.90264 c 0.07012,-0.49515 0.135834,-1.54239 0.140213,-2.32672 0.0087,-1.26195 -0.0482,-1.97617 -0.403123,-4.97769 l -0.08763,-0.71424 h 2.019995 c 1.976178,0 2.019996,0.009 2.041905,0.37684 0.0087,0.20594 0.07012,1.20499 0.127076,2.21718 l 0.105164,1.84033 5.060943,-0.0658 c 2.782424,-0.0351 5.22745,-0.12268 5.429011,-0.20157 0.587158,-0.21471 0.793101,-0.79747 0.8895,-2.49322 l 0.09201,-1.59058 1.941124,0.0613 c 1.064769,0.0307 1.941123,0.07 1.945506,0.0833 0.0044,0.0127 -0.04382,0.815 -0.105164,1.78337 -0.06574,0.96838 -0.127076,2.9095 -0.135834,4.31168 l -0.01753,2.55457 h -1.389021 c -0.766809,0 -1.678217,0.0482 -2.024377,0.10513 l -0.630975,0.10513 z m 179.652533,1.94112 c 0,-0.0351 0.21031,-0.22348 0.46446,-0.42065 2.03753,-1.56867 5.87595,-4.88128 7.52788,-6.48502 l 1.99808,-1.9455 1.29262,-0.092 1.28387,-0.092 0.5039,0.77996 c 0.78872,1.2225 3.21183,3.93482 5.52978,6.18267 l 2.11202,2.05067 h -1.11735 c -0.61783,0 -1.6125,0.0394 -2.21717,0.0876 l -1.09545,0.0876 -1.13925,-1.30138 c -2.16022,-2.47569 -1.67823,-2.22156 -4.2284,-2.21716 -3.84282,0 -3.73327,-0.0307 -5.64372,1.75708 l -1.65194,1.54677 -1.80966,0.0658 c -0.99467,0.0262 -1.80967,0.0262 -1.80967,-0.005 z m 10.65646,-4.04876 h 2.01123 l -1.04286,-1.21375 c -0.57401,-0.66603 -1.08668,-1.26633 -1.14803,-1.33206 -0.0569,-0.0658 -0.74929,0.5302 -1.538,1.31893 -1.37587,1.38901 -1.41092,1.43721 -0.85883,1.33205 0.31112,-0.0569 1.47666,-0.10514 2.57649,-0.10514 z m 21.01496,4.0619 c -0.63098,-0.0307 -1.13927,-0.092 -1.13927,-0.13153 0,-0.0394 0.10956,-0.3593 0.24978,-0.70547 0.2366,-0.59153 1.02971,-3.69382 1.7045,-6.59455 l 0.29358,-1.27949 1.66945,-0.0789 1.66507,-0.0789 1.21813,1.24881 c 1.03411,1.06915 4.6403,4.33357 5.55609,5.04341 0.26729,0.20157 0.4557,0.0833 1.77024,-1.09106 1.74832,-1.5599 1.41092,-1.25319 3.65439,-3.32576 0.99466,-0.92017 2.01122,-1.72204 2.26099,-1.779 0.25414,-0.0569 0.95522,-0.11398 1.55991,-0.1271 l 1.10421,-0.0175 0.20155,1.8009 c 0.10956,0.99027 0.42941,2.96646 0.6967,4.39491 0.26729,1.42846 0.47762,2.60715 0.46448,2.62031 -0.0176,0.0126 -0.81502,0.0833 -1.76148,0.14892 l -1.73079,0.11825 v -0.51266 c 0,-1.04285 -1.19623,-5.67439 -1.44599,-5.58674 -0.18841,0.0658 -3.96988,3.32137 -5.37643,4.62276 -0.95085,0.88073 -1.05162,0.93331 -1.85787,0.92893 -0.82377,-0.005 -0.91141,-0.0526 -2.79119,-1.60373 -1.06915,-0.88073 -2.48885,-2.1383 -3.16802,-2.79557 -0.66603,-0.65726 -1.2225,-1.14801 -1.2225,-1.09105 0,0.26729 -0.71862,3.54923 -1.02973,4.70164 -0.34616,1.28386 -0.35492,1.297 -0.88072,1.26633 -0.28482,-0.022 -1.03411,-0.0658 -1.66508,-0.0964 z M 86.809045,48.551184 c 0.07011,-0.67917 0.131455,-2.68603 0.140213,-4.46064 l 0.0087,-3.22498 h 1.919215 1.919215 l -0.109543,0.6266 c -0.240998,1.40216 -0.29796,4.25469 -0.122696,6.05998 0.100784,1.05162 0.148987,1.94551 0.109543,1.98932 -0.04382,0.0395 -0.959608,0.11399 -2.033141,0.16213 l -1.958651,0.0876 z m 113.487815,0.94208 c 0.0526,-0.14023 0.22347,-0.87197 0.37683,-1.62563 0.33301,-1.62564 0.24976,-4.58772 -0.1665,-5.90225 -0.14466,-0.4557 -0.24538,-0.84567 -0.22348,-0.86758 0.0351,-0.0351 10.76601,-0.10514 11.16038,-0.0745 0.0876,0.005 -0.21033,0.24538 -0.66166,0.5302 l -0.82378,0.51705 -2.66849,-0.11826 -2.66849,-0.11825 v 1.55115 1.55115 l 3.01903,-0.0789 3.01904,-0.0789 -0.35492,0.47324 -0.35054,0.47322 h -2.75175 -2.75176 v 0.56087 c 0,0.30672 -0.0482,1.02533 -0.10956,1.59058 l -0.10513,1.02973 h 3.73765 c 2.05504,0 3.73325,0.0613 3.73325,0.1358 0,0.0745 -0.26729,0.26289 -0.59592,0.42064 -0.52142,0.24538 -1.26633,0.28044 -5.75326,0.28044 -4.52636,0 -5.14857,-0.0307 -5.06094,-0.24977 z m 116.21766,-1.25756 c 0.0658,-0.85444 0.10956,-2.86568 0.10956,-4.46503 v -2.90072 h 1.95865 c 1.79653,0 1.9455,0.022 1.83596,0.29358 -0.20595,0.49075 -0.2892,5.73573 -0.11826,7.07217 0.092,0.69231 0.14023,1.27947 0.10956,1.31014 -0.0262,0.0307 -0.9377,0.0964 -2.02877,0.15335 l -1.98054,0.0964 z m 68.53962,0.71422 c 0.60469,-1.98932 0.60031,-5.49911 -0.0127,-7.21676 l -0.241,-0.69671 h 5.00836 c 2.75614,0 5.29756,-0.0482 5.6481,-0.10513 0.83692,-0.14023 0.79749,0.0876 -0.12711,0.66603 l -0.76242,0.47323 -2.70354,-0.11826 -2.70356,-0.12268 0.0482,1.48543 0.0482,1.48542 2.98836,-0.009 c 3.06286,-0.009 3.08915,-0.005 2.53266,0.63974 -0.23224,0.25854 -0.60907,0.29358 -3.02343,0.29358 h -2.75612 v 0.81502 c 0,0.44694 -0.0527,1.16117 -0.10956,1.5862 l -0.10071,0.77119 3.86035,0.0438 3.86033,0.0438 -0.63973,0.37683 c -0.63536,0.36807 -0.75366,0.37683 -5.84529,0.37683 h -5.20555 z m 74.79241,0.66604 c 0,-0.0702 0.11826,-0.50391 0.26729,-0.964 0.39875,-1.26632 0.49515,-4.43435 0.18404,-5.85842 -0.1358,-0.64412 -0.30234,-1.297 -0.36808,-1.45475 -0.1007,-0.25853 0.33303,-0.28482 5.51227,-0.33301 3.09353,-0.0307 5.64811,-0.0438 5.67878,-0.0307 0.0307,0.0126 -0.29795,0.26728 -0.73176,0.56086 l -0.77996,0.53457 -2.68601,-0.12268 -2.68602,-0.11825 v 1.55115 1.55115 l 3.02341,-0.0789 3.02343,-0.0789 -0.36807,0.46447 -0.36808,0.46446 -2.71232,0.009 -2.70792,0.009 -0.15777,1.5862 -0.15778,1.5862 3.79461,0.0438 3.79461,0.0438 -0.59154,0.37245 c -0.57839,0.36807 -0.68795,0.37683 -5.77518,0.37683 -2.85253,0.0175 -5.18801,-0.0438 -5.18801,-0.11398 z m 21.82122,-1.91045 c 0.0613,-1.11736 0.10956,-3.11544 0.10956,-4.43436 v -2.4012 h 1.91483 1.91482 l -0.14465,0.88072 c -0.17526,1.07354 -0.20155,4.69726 -0.0482,6.47626 l 0.11399,1.30139 -0.80625,0.10956 c -0.44257,0.0613 -1.33644,0.10956 -1.98494,0.10956 h -1.18308 z"
   style="fill:#ffffff;stroke:#ffffff;stroke-width:1.08200002;stroke-miterlimit:4;stroke-dasharray:none;stroke-opacity:0.90793649" />
<path
   inkscape:connector-curvature="0"
   id="path897"
   d="m 301.86804,185.46198 c -0.44559,-0.5438 0.39726,-3.15028 2.96473,-9.16842 1.97303,-4.62474 3.58734,-8.96171 3.58734,-9.63776 0,-1.14701 -0.31661,-1.21469 -4.73764,-1.01284 -3.24867,0.14834 -5.20676,0.54932 -6.23032,1.27584 -0.82096,0.58273 -2.10475,1.50282 -2.85283,2.04466 -1.25752,0.91078 -1.38954,0.90857 -1.74936,-0.0292 -0.4084,-1.06428 1.2905,-4.78366 2.74373,-6.00677 0.49821,-0.41934 3.89365,-0.84108 8.20577,-1.01924 l 7.35589,-0.30394 1.34258,-2.73525 c 0.73842,-1.50439 1.35385,-3.07717 1.36764,-3.49505 0.0351,-1.06527 -2.70726,-0.9502 -3.62196,0.15195 -0.99935,1.20414 -7.79622,1.28648 -8.25154,0.1 -0.17133,-0.44648 1.3716,-4.75451 3.42872,-9.57339 5.61329,-13.14931 6.64633,-15.84951 6.64633,-17.37255 0,-1.61869 1.54539,-2.73494 5.7,-4.11721 2.67081,-0.88858 3.10559,-0.89408 4.38541,-0.0555 0.78137,0.51196 2.24627,0.93086 3.25533,0.93086 1.58492,0 2.03919,-0.40363 3.33721,-2.96515 0.8264,-1.63083 1.33247,-3.13521 1.1246,-3.34309 -0.20787,-0.20787 -2.60378,-0.37794 -5.32424,-0.37794 -4.4747,0 -5.2263,0.17757 -7.88312,1.86248 -3.93966,2.49844 -4.82749,1.64583 -2.3922,-2.29729 l 1.79618,-2.90829 7.87773,-0.30392 7.87773,-0.30391 2.28777,-4.71073 2.28777,-4.71072 h 3.90298 c 4.40747,0 7.02128,0.76738 7.02128,2.0613 0,0.48166 -1.0941,1.74228 -2.43134,2.80137 -2.26872,1.79687 -3.10778,3.76504 -1.91844,4.50009 1.14988,0.71067 4.96096,-0.49573 6.76165,-2.14041 2.06186,-1.88322 2.44033,-1.88827 7.83338,-0.10451 2.5073,0.82933 2.72131,0.80609 4.04736,-0.43968 1.32147,-1.24144 1.95788,-1.31313 11.33292,-1.27662 11.76617,0.0459 14.55831,-0.40087 16.97441,-2.71564 1.76314,-1.6892 1.84817,-1.70527 5.24941,-0.99184 4.35683,0.91385 5.37612,1.79941 4.1258,3.58448 -1.82061,2.59927 -5.59073,3.23111 -19.27985,3.23111 -13.3256,0 -15.03984,0.27871 -18.51166,3.00962 -1.20782,0.95008 -1.81038,1.07858 -2.73558,0.58344 -0.85987,-0.4602 -2.33931,-0.37283 -5.37359,0.31729 -2.30285,0.52378 -6.21798,0.95233 -8.70026,0.95233 h -4.51326 l -1.24374,2.87324 c -0.68407,1.58029 -1.11309,3.08468 -0.95338,3.3431 0.52848,0.85508 3.27028,0.48818 5.73028,-0.76679 2.42339,-1.23634 2.42471,-1.23634 5.14956,-0.031 3.81153,1.68602 3.97888,2.6767 0.97,5.74252 -1.38251,1.40867 -2.51367,2.83624 -2.51367,3.17237 0,0.62954 28.70233,0.55648 31.50728,-0.0802 0.78069,-0.17721 2.09144,-1.0473 2.91278,-1.93355 1.48007,-1.597 1.52689,-1.60447 5.26674,-0.84045 4.38089,0.89497 5.23274,1.48057 4.32572,2.97357 -1.38225,2.27523 -4.67218,3.1888 -12.78457,3.55009 -9.03954,0.4026 -7.62985,-0.48805 -14.89686,9.41189 -4.1771,5.69048 -10.42783,12.29035 -19.9717,21.08716 -1.83518,1.69153 -3.12942,3.2828 -2.87608,3.53614 0.70289,0.70288 14.94081,-0.81218 18.24768,-1.94175 1.60457,-0.54809 3.28331,-1.58162 3.73057,-2.29675 1.38989,-2.22232 2.33684,-7.6567 1.99368,-11.44127 -0.39791,-4.38801 0.55364,-5.16954 3.20333,-2.63097 3.81659,3.65651 6.2241,13.54589 4.87717,20.03402 -0.87219,4.2013 -4.14429,7.93269 -7.50999,8.56408 -4.68224,0.87839 -5.85425,-0.48701 -4.66682,-5.43682 0.44939,-1.87328 0.67707,-3.54598 0.50591,-3.71712 -0.17113,-0.17114 -3.112,0.81254 -6.53526,2.18596 -5.9142,2.37279 -18.1906,6.02874 -23.4372,6.97968 -1.47247,0.26689 -3.35762,1.27008 -4.78,2.54369 -1.97106,1.76492 -2.48023,1.97106 -3.16718,1.28222 -0.68623,-0.68814 -0.58339,-1.74411 0.63642,-6.53421 0.80022,-3.14237 1.81517,-5.94182 2.25543,-6.22099 0.44026,-0.27917 2.63322,-0.51178 4.87325,-0.5169 l 4.07275,-0.009 5.84693,-7.34055 c 6.84605,-8.59492 10.41663,-13.97007 13.70938,-20.63811 2.97712,-6.02887 3.0057,-6.66794 0.29816,-6.66794 -2.67166,0 -4.91425,0.86196 -7.16085,2.75236 -0.98208,0.82636 -2.27763,1.50248 -2.87897,1.50248 -0.81394,0 -1.9346,1.90288 -4.38513,7.44599 l -3.29176,7.44598 -4.68577,0.17752 c -3.93234,0.14899 -4.68577,0.0237 -4.68577,-0.77887 0,-1.33992 -1.6444,-1.82311 -2.83932,-0.83429 -1.08906,0.90121 -3.20421,5.18154 -3.22568,6.52762 -0.0105,0.64154 0.71139,0.76748 3.08862,0.53906 2.49084,-0.23933 3.37569,-0.64133 4.49131,-2.04046 1.38845,-1.74128 1.39161,-1.74194 4.92411,-1.00099 4.3148,0.90504 5.71699,2.02444 4.44979,3.55242 -1.61849,1.95152 -4.95957,2.81268 -11.75021,3.02854 -3.6497,0.11606 -6.88558,0.46071 -7.19085,0.76597 -0.30527,0.30527 -2.30056,4.5817 -4.434,9.50319 -2.13345,4.92149 -4.19642,9.33066 -4.58442,9.79815 -0.9135,1.1007 -8.04512,1.17271 -8.93213,0.0903 z m 15.66084,-38.12433 c 2.11462,-4.18903 2.28283,-5.48785 0.71079,-5.48785 -1.34303,0 -2.51419,1.32371 -3.91721,4.42743 -1.40556,3.10938 -1.34918,4.69011 0.16724,4.69011 0.8647,0 1.72645,-1.02918 3.03918,-3.62969 z m 14.01437,-0.37791 c 2.18637,-4.87299 2.19811,-5.10994 0.25308,-5.10994 -1.31678,0 -1.81067,0.59211 -3.34344,4.00839 -1.89437,4.22216 -1.87924,5.10915 0.087,5.10915 0.89805,0 1.66347,-1.02138 3.00329,-4.0076 z m -8.09632,-12.70788 c 2.44119,-4.54612 2.48935,-5.30452 0.32101,-5.05501 -1.384,0.15925 -2.00393,0.86793 -3.6037,4.11944 -2.06418,4.19553 -2.06164,5.0651 0.0141,4.7693 0.89249,-0.12718 1.93472,-1.34957 3.26866,-3.83373 z m 13.59822,-0.0277 c 1.89263,-4.17414 1.87048,-5.13877 -0.11809,-5.13877 -0.89808,0 -1.66353,1.02149 -3.00367,4.00838 -1.89723,4.22859 -1.88004,5.10913 0.0999,5.10913 0.91091,0 1.67271,-1.003 3.02199,-3.97874 z M 8.4284306,157.61307 c -0.5747643,-0.92998 -0.1937597,-1.15415 3.6819934,-2.16625 7.107578,-1.85604 17.120229,-7.20779 22.972758,-12.27893 l 2.924186,-2.53377 h 6.229126 c 4.282229,0 6.581271,0.25749 7.355815,0.82386 1.475391,1.07884 0.845364,2.66847 -1.267807,3.19885 -0.902657,0.22655 -3.905891,1.74484 -6.673851,3.37398 -5.882673,3.46234 -14.730486,6.50349 -25.251145,8.67925 -8.4000531,1.73722 -9.3995685,1.82772 -9.9710754,0.90301 z M 120.55194,157.01658 c -1.36125,-0.84129 -0.1101,-1.48388 5.82151,-2.98993 3.00878,-0.76393 7.93225,-2.33278 10.94104,-3.48633 11.31095,-4.33658 29.74667,-15.07642 29.35231,-17.09937 -0.21573,-1.10662 -9.96348,-6.15089 -11.91805,-6.16733 -0.77991,-0.007 -2.90731,1.20896 -4.76644,2.72339 -3.19426,2.60203 -3.54581,2.73527 -7.21716,2.73527 -2.12263,0 -4.03687,-0.28726 -4.25385,-0.63835 -0.21699,-0.3511 4.24963,-5.34294 9.9258,-11.09299 11.35629,-11.50409 18.96523,-19.96288 18.96523,-21.08348 0,-0.53918 -2.39042,-0.67226 -9.31834,-0.51872 -9.15615,0.20292 -9.35771,0.23655 -11.57862,1.93169 -1.24314,0.94883 -2.66547,1.56966 -3.16074,1.3796 -0.76952,-0.29529 -0.72746,-0.68471 0.28923,-2.67756 1.88147,-3.687995 2.46502,-3.943031 8.73098,-3.815869 3.08883,0.06261 8.70671,-0.07621 12.48417,-0.308624 l 6.86813,-0.422601 3.50378,-4.322329 c 1.9271,-2.377285 4.51474,-6.003615 5.75034,-8.058518 1.23559,-2.054906 2.67654,-3.901212 3.20213,-4.102894 1.24439,-0.477509 10.19789,-0.475744 11.44356,0.0023 1.74459,0.669455 1.00405,2.020217 -1.92575,3.512668 -1.72206,0.877226 -3.3583,2.291814 -4.05455,3.50529 -0.64204,1.118996 -2.35157,3.555947 -3.79897,5.415448 -1.4474,1.859513 -2.63163,3.56905 -2.63163,3.79898 0,0.699399 28.91988,0.484943 30.80807,-0.228457 0.9411,-0.355585 2.44637,-1.347875 3.34504,-2.205105 l 1.63394,-1.558603 3.98911,1.079809 c 4.89858,1.325984 5.90456,2.29179 4.18166,4.014697 -1.64756,1.647559 -4.90484,2.322978 -11.28668,2.340368 -4.28622,0.0117 -5.50275,0.22098 -6.26752,1.07822 -0.52193,0.58504 -3.17243,4.48034 -5.89003,8.65622 -3.78605,5.81767 -6.76361,9.43871 -12.73764,15.49047 -4.28811,4.34387 -7.66923,8.22977 -7.51361,8.6353 0.15562,0.40554 1.18598,1.19599 2.28969,1.75657 3.39207,1.72284 7.08824,5.06495 8.76409,7.92454 3.13506,5.34958 0.75886,12.02933 -4.27921,12.02933 -2.64504,0 -4.03747,-1.21464 -7.51657,-6.55685 -3.11729,-4.78662 -6.97841,-8.88216 -8.37376,-8.88216 -0.52337,0 -3.2041,1.33045 -5.95716,2.95657 -10.95459,6.47038 -25.60843,12.01428 -37.76718,14.2882 -7.30484,1.36618 -9.13811,1.54104 -10.07635,0.96118 z m 59.01093,-33.21211 c 5.80634,-5.4622 10.7377,-11.35361 15.10595,-18.04689 3.46801,-5.31389 3.77047,-6.43325 1.75765,-6.50499 -6.58936,-0.23491 -17.07825,0.0342 -17.41796,0.44697 -2.6341,3.20018 -11.91107,13.38088 -16.74315,18.37422 -7.00307,7.23675 -7.22803,6.4169 2.4017,8.75217 9.49907,2.30356 9.16272,2.37179 14.89581,-3.02148 z M 76.41946,155.67805 c -0.679341,-0.7522 -1.998836,-2.799 -2.932197,-4.54844 -1.834465,-3.43841 -5.263439,-7.21364 -7.07398,-7.78827 -0.619998,-0.19679 -1.127267,-0.74965 -1.127267,-1.22859 0,-0.65827 0.88274,-0.87078 3.617094,-0.87078 6.83338,0 13.498433,2.14707 15.48955,4.9898 2.619836,3.74032 -0.534659,10.8139 -4.822518,10.8139 -1.215261,0 -2.367055,-0.49997 -3.150682,-1.36762 z m 144.03049,0.68261 c -0.43284,-0.43283 -0.49465,-1.16007 -0.16794,-1.97547 0.28439,-0.70972 2.61521,-6.2139 5.17958,-12.23148 7.68453,-18.03255 8.37568,-19.77634 7.99082,-20.16121 -0.20298,-0.20299 -4.27465,1.43253 -9.04814,3.63449 -8.72406,4.02437 -19.74851,8.0912 -20.33738,7.50235 -0.67315,-0.67315 0.59546,-1.60042 4.82913,-3.52968 7.94333,-3.61977 17.79814,-8.80143 22.07633,-11.60776 7.54975,-4.95235 20.91908,-18.62479 20.91908,-21.393373 0,-0.77373 -0.85047,-0.941588 -4.71073,-0.929702 -5.81162,0.01788 -8.97849,0.715889 -10.73505,2.366075 -1.57749,1.48199 -3.39712,1.6655 -3.39712,0.34261 0,-0.508119 0.68724,-2.012505 1.52721,-3.343101 l 1.52722,-2.419256 h 5.11486 c 4.80168,0 5.19198,-0.09806 6.37463,-1.601566 0.6929,-0.88085 1.25979,-1.861652 1.25979,-2.179543 0,-1.621611 5.21934,-12.053886 6.1838,-12.359985 0.59964,-0.190321 3.03244,-0.154651 5.40624,0.07924 5.3189,0.524107 5.98001,1.481827 2.87562,4.165714 -1.84981,1.599252 -5.95596,9.020503 -5.95596,10.76453 0,0.927062 2.08232,0.532009 3.647,-0.691907 1.80546,-1.41225 3.5146,-1.507049 5.13083,-0.284593 1.5257,1.15399 3.02952,1.126382 6.28071,-0.115241 2.45701,-0.938341 2.78393,-0.938341 4.75167,0 2.50159,1.192933 8.68065,1.343716 10.15749,0.247884 0.56316,-0.417892 2.34685,-3.768581 3.96373,-7.445983 2.85353,-6.490066 3.00074,-6.692121 5.0186,-6.888591 1.14336,-0.111266 3.53182,-0.02115 5.30764,0.200408 4.22474,0.527053 4.71462,1.704032 1.75093,4.206772 -2.24474,1.895604 -5.69376,8.924011 -4.96103,10.10958 0.68629,1.110441 8.37361,0.661356 10.92235,-0.638063 1.31145,-0.668624 2.88457,-1.215676 3.49582,-1.215676 1.70987,0 5.92561,2.351363 5.92561,3.305037 0,0.466945 -1.07555,1.760636 -2.39011,2.874863 -1.81579,1.539063 -2.97084,3.413477 -4.80676,7.800317 -2.97128,7.09977 -8.34425,19.46673 -11.02538,25.37712 l -1.99906,4.40681 h -4.43701 c -4.38852,0 -4.43911,-0.0184 -4.62934,-1.67156 -0.17732,-1.54098 -0.42657,-1.68636 -3.19123,-1.86137 -5.80908,-0.36771 -5.12804,-1.26674 -12.80591,16.90529 -2.18936,5.1818 -4.4363,9.76336 -4.99317,10.18125 -1.39263,1.04501 -7.13039,0.98526 -8.0174,-0.0836 -0.70682,-0.85167 -0.4348,-1.57574 7.10506,-18.91134 1.16322,-2.67446 2.1475,-5.54648 2.18727,-6.38227 0.0672,-1.41238 -0.14927,-1.53243 -3.06855,-1.70157 -2.90364,-0.16823 -3.30605,-0.0168 -5.32833,2.0055 -2.06822,2.06824 -2.37751,2.17757 -5.67275,2.00549 -4.15213,-0.21681 -4.54652,-1.04971 -2.62245,-5.53838 1.33795,-3.12129 1.30859,-3.16378 -1.4877,-2.15262 -2.393,0.86533 -4.95031,0.28075 -5.43363,-1.24206 -0.2008,-0.63267 0.0763,-2.2531 0.61545,-3.60093 0.53929,-1.34785 0.88177,-3.08617 0.76105,-3.86293 -0.19704,-1.2677 -0.35074,-1.16336 -1.50134,1.01906 -1.41261,2.67941 -10.31872,22.9878 -13.86123,31.60742 -2.96434,7.21282 -3.34878,7.59794 -7.58457,7.59794 -1.88718,0 -3.7395,-0.30826 -4.11625,-0.68502 z m 52.20592,-31.44691 c 1.01302,-0.97593 5.43534,-11.8073 5.13759,-12.58324 -0.21304,-0.55514 -1.21163,-0.87247 -2.74566,-0.87247 -4.47035,0 -5.13112,0.59775 -7.94475,7.18711 -1.42513,3.33755 -2.43358,6.3232 -2.24101,6.6348 0.37286,0.60331 7.11637,0.28648 7.79383,-0.3662 z m 22.14334,-5.80743 c 1.50256,-3.31541 2.59203,-6.39258 2.42106,-6.83815 -0.35301,-0.91993 -6.79165,-1.13855 -8.15117,-0.27679 -0.77106,0.48876 -6.17808,11.83403 -6.17808,12.96314 0,0.29418 2.06467,0.45498 4.58813,0.35733 l 4.58811,-0.17752 z m -33.01339,-11.14334 c 2.25906,-5.26536 4.10253,-9.93536 4.0966,-10.37776 -0.0209,-1.563359 -1.72658,-0.340948 -8.55227,6.12937 l -6.89991,6.54068 2.858,2.90164 c 1.57191,1.59591 2.85803,3.23416 2.85803,3.64058 0,0.40639 0.34475,0.7389 0.76608,0.7389 0.42135,0 2.61441,-4.30802 4.87347,-9.57341 z m 21.13923,-5.84558 c 3.25007,-7.306926 3.2099,-7.678744 -0.8296,-7.678744 -1.7748,0 -3.67383,0.341909 -4.22008,0.759788 -1.14874,0.878839 -5.92592,11.462986 -5.49893,12.183276 0.15729,0.26537 2.05568,0.40214 4.21864,0.30395 l 3.93265,-0.17856 z m 19.4394,-0.0513 c 3.3137,-7.485511 3.28741,-7.629596 -1.39033,-7.618142 -2.08943,0.0047 -4.12482,0.216478 -4.52308,0.469691 -0.85301,0.542352 -5.65816,10.790751 -5.65816,12.067721 0,0.70199 0.9134,0.84141 4.58147,0.69927 l 4.58149,-0.17753 z m 85.97914,53.75282 c -0.40162,-0.64981 1.56843,-4.23315 2.96408,-5.39143 0.53819,-0.44668 6.44303,-0.75696 17.37944,-0.9133 12.94733,-0.18511 16.73154,-0.4173 17.3302,-1.06338 0.83698,-0.90329 10.65602,-23.22109 10.65602,-24.22019 0,-0.78366 0.32192,-0.76396 -11.68694,-0.71499 -10.39501,0.0425 -11.61646,0.27122 -14.25301,2.67009 -2.90755,2.64543 -3.20361,-0.49947 -0.3994,-4.24252 l 1.47998,-1.97546 h 12.92134 c 9.42367,0 13.17928,-0.20567 13.8742,-0.7598 1.40013,-1.11645 8.59344,-17.91019 8.1578,-19.04545 -0.31487,-0.82052 -1.44148,-0.93293 -7.617,-0.76009 l -7.24748,0.20285 -4.7568,4.60725 c -7.16021,6.93506 -15.64279,12.25551 -20.87282,13.09182 -3.07279,0.49136 -3.12396,-0.34932 -0.14359,-2.35922 7.46449,-5.03395 19.74138,-19.187942 25.43465,-29.323554 0.36594,-0.651488 1.32329,-1.368616 2.12742,-1.593626 2.26526,-0.633868 12.2936,-0.581483 13.31486,0.06954 1.31395,0.837628 0.0648,2.592018 -2.33587,3.280513 -1.86859,0.5359 -7.99734,6.375913 -7.99734,7.620552 0,0.347951 0.61543,0.770505 1.36762,0.939006 1.83739,0.411606 10.31552,0.08181 11.14912,-0.433728 0.36518,-0.225828 2.38816,-4.318845 4.49551,-9.095611 2.10737,-4.776751 4.27032,-9.154912 4.80658,-9.729241 0.83551,-0.894839 1.60627,-0.976584 5.38783,-0.571408 5.99264,0.642095 6.6099,1.406804 3.43128,4.251068 -3.19706,2.860781 -8.3631,14.375399 -6.89639,15.371418 1.05147,0.714034 17.12126,0.07293 19.34278,-0.771722 0.82423,-0.313379 2.11232,-1.231981 2.8624,-2.041337 l 1.3638,-1.471553 4.15319,1.397827 c 5.01133,1.686642 5.79829,3.265757 2.51933,5.05522 -1.75163,0.955926 -3.86868,1.120046 -16.29727,1.263396 -7.85627,0.0906 -14.8702,0.29367 -15.58651,0.45123 -1.01253,0.22273 -2.20422,2.33319 -5.3549,9.48354 -2.2289,5.05836 -3.90801,9.5737 -3.73135,10.03407 0.24451,0.63716 1.84263,0.83704 6.69262,0.83704 8.21672,0 11.87188,-0.78742 14.00876,-3.01784 l 1.66392,-1.73675 3.12919,1.09919 c 5.20782,1.82937 5.33209,1.9085 5.13681,3.27118 -0.3821,2.6661 -2.80252,3.10579 -18.22548,3.31084 -10.82934,0.14397 -14.55571,0.38578 -15.04584,0.97635 -1.18688,1.43009 -10.96988,24.19127 -10.63238,24.73734 0.49704,0.80422 20.74138,0.67156 22.33336,-0.14633 0.73022,-0.37516 2.08195,-1.38567 3.00385,-2.24556 l 1.67617,-1.56349 4.25023,1.36888 c 4.53057,1.45917 5.3169,2.57635 3.17669,4.51321 -2.21246,2.00226 -6.42104,2.2352 -40.56916,2.24548 -31.84702,0.009 -34.01042,0.0782 -36.44951,1.15717 -1.42616,0.63084 -2.78121,1.45153 -3.01124,1.82371 -0.5232,0.84655 -1.97242,0.8803 -2.48075,0.0578 z M 14.835693,141.83678 c 0,-0.6758 0.720163,-2.31695 1.600362,-3.64702 l 1.600361,-2.41831 5.845618,-0.039 c 3.215093,-0.0216 18.701336,-0.11408 34.413877,-0.20571 15.712541,-0.0917 29.115307,-0.38712 29.783926,-0.65666 0.668618,-0.26954 2.080546,-1.3014 3.137618,-2.29301 l 1.921945,-1.80295 4.048123,1.34713 c 4.412567,1.46839 5.277027,2.46784 3.670237,4.24332 -2.002084,2.21228 -5.964799,2.44602 -41.528055,2.44952 -20.72335,0.002 -35.322971,0.24181 -36.617281,0.60139 -1.183903,0.3289 -3.083343,1.28472 -4.220977,2.12404 -2.502025,1.84592 -3.655754,1.93977 -3.655754,0.29734 z m 19.450727,-8.87321 c -0.501464,-0.1802 -1.245641,-0.43104 -1.653727,-0.55746 -0.924015,-0.28624 -0.167533,-2.50295 3.622467,-10.61487 1.483841,-3.17594 3.058722,-6.73177 3.499737,-7.90185 0.441013,-1.17009 1.344219,-3.35829 2.007118,-4.86268 3.014766,-6.84174 3.465439,-8.11172 3.465439,-9.76553 0,-1.503312 0.444511,-1.98812 3.018969,-3.292696 3.337983,-1.691479 5.921899,-1.925431 8.408126,-0.761274 1.078957,0.505221 3.654878,0.699598 7.51773,0.567306 l 5.876375,-0.201262 0.961771,-2.026785 c 1.95142,-4.112312 2.384533,-3.970495 -12.126201,-3.970495 -13.50714,0 -15.942919,0.360727 -17.834084,2.641098 -0.920043,1.109401 -3.116709,1.372899 -3.116709,0.373864 0,-1.289414 2.474664,-5.426715 3.609037,-6.033817 0.720607,-0.385656 7.231526,-0.628794 16.865442,-0.629811 l 15.691716,-0.0011 2.127424,-4.10123 2.127422,-4.101222 3.450226,-0.180959 c 3.886954,-0.203856 7.289957,0.490144 7.646372,1.559397 0.131038,0.393114 -0.915029,1.779651 -2.324592,3.081197 -1.475083,1.362041 -2.381888,2.659249 -2.136499,3.056286 0.550388,0.890562 19.795981,0.93889 22.968801,0.05762 1.23846,-0.343952 2.82414,-1.35305 3.52372,-2.242431 1.23631,-1.571705 1.35195,-1.595664 4.12414,-0.854213 6.39966,1.711652 7.60663,3.572295 3.77671,5.822162 -1.98613,1.16674 -3.26877,1.263129 -19.31169,1.451242 l -17.184269,0.201505 -1.202746,2.35758 c -0.661514,1.296672 -1.202749,2.642011 -1.202749,2.989637 0,0.40231 2.645263,0.632042 7.277763,0.632042 6.156261,0 7.683029,-0.196889 9.907679,-1.277702 2.589352,-1.25801 2.666102,-1.260358 4.976012,-0.151963 3.8833,1.863369 4.10072,2.9454 1.11871,5.567344 -2.11448,1.85917 -3.17541,3.70583 -6.178435,10.75429 -1.994072,4.68033 -4.957561,11.51847 -6.585537,15.19588 l -2.959968,6.68617 -4.647094,0.17677 -4.647101,0.17675 -0.194726,-1.69634 -0.194727,-1.69634 -17.271028,-0.10951 -17.271032,-0.10952 -1.613531,1.72729 c -1.614974,1.72884 -5.805668,2.82313 -7.912461,2.06615 z m 37.521473,-7.45579 9.25713,-0.0696 1.251016,-2.45218 c 0.688057,-1.34873 1.087758,-2.71634 0.88823,-3.03919 -0.21988,-0.35577 -7.363985,-0.58699 -18.136921,-0.58699 H 47.293201 l -1.291725,2.65876 c -0.945672,1.94648 -1.111163,2.83932 -0.617736,3.33274 0.450377,0.45039 3.409958,0.59967 8.920503,0.44996 4.535582,-0.12322 12.412222,-0.25533 17.50365,-0.29357 z M 85.776116,114.9531 c 0.319211,-0.41789 0.943403,-1.67401 1.387093,-2.79139 0.681797,-1.71704 0.67404,-2.1156 -0.05008,-2.574 -1.002733,-0.63477 -18.466867,-0.73157 -28.429107,-0.15757 -6.899069,0.3975 -6.907051,0.39976 -8.051544,2.27661 -0.630095,1.0333 -1.146651,2.35739 -1.1479,2.94242 -0.0021,0.98899 1.252406,1.06371 17.854444,1.06371 13.570603,0 17.996019,-0.18237 18.4371,-0.75978 z m 2.973518,-9.32515 c 0.7027,-0.18864 1.728423,-1.28829 2.279385,-2.44367 1.952314,-4.09404 2.872028,-3.88294 -16.917041,-3.88294 H 56.193196 l -1.270442,2.49026 c -2.195467,4.30347 -2.601761,4.19692 15.966664,4.18762 9.120422,-0.004 17.157516,-0.16263 17.860216,-0.35127 z m 28.445306,18.35821 c -3.36674,-1.50796 -3.63724,-5.08543 -0.67942,-8.98582 3.44201,-4.53884 10.69974,-5.86456 12.60603,-2.30267 3.13191,5.85207 -5.60387,14.12044 -11.92661,11.28849 z"
   style="fill:#f8172e;stroke-width:1.608;stroke:#ffffff;stroke-opacity:1;stroke-miterlimit:4;stroke-dasharray:none" /><path
   style="fill:#ffffff;fill-rule:evenodd;stroke:#ffffff;stroke-width:4.02303505;stroke-linecap:butt;stroke-linejoin:miter;stroke-miterlimit:4;stroke-dasharray:none;stroke-opacity:1"
   d="M 13.412377,63.779778 C 490.47431,63.26716 490.47431,63.26716 490.47431,63.26716"
   id="path903"
   inkscape:connector-curvature="0" /></svg>