<?xml version="1.0" encoding="UTF-8" standalone="no"?>
<svg
   enable-background="new 0 0 559.249 81.18"
   viewBox="0 0 499.99998 200"
   version="1.1"
   id="svg49"
   sodipodi:docname="thompson.svg"
   width="500"
   height="200"
   inkscape:version="1.2.2 (b0a8486541, 2022-12-01)"
   xml:space="preserve"
   xmlns:inkscape="http://www.inkscape.org/namespaces/inkscape"
   xmlns:sodipodi="http://sodipodi.sourceforge.net/DTD/sodipodi-0.dtd"
   xmlns="http://www.w3.org/2000/svg"
   xmlns:svg="http://www.w3.org/2000/svg"><defs
     id="defs53"><rect
       x="83.638153"
       y="41.480737"
       width="337.56025"
       height="138.51746"
       id="rect1219" /></defs><sodipodi:namedview
     id="namedview51"
     pagecolor="#505050"
     bordercolor="#ffffff"
     borderopacity="1"
     inkscape:showpageshadow="0"
     inkscape:pageopacity="0"
     inkscape:pagecheckerboard="1"
     inkscape:deskcolor="#505050"
     showgrid="false"
     showguides="true"
     inkscape:zoom="3.3961415"
     inkscape:cx="260.58985"
     inkscape:cy="169.75147"
     inkscape:window-width="1670"
     inkscape:window-height="910"
     inkscape:window-x="0"
     inkscape:window-y="0"
     inkscape:window-maximized="1"
     inkscape:current-layer="svg49" /><linearGradient
     id="a"
     gradientUnits="userSpaceOnUse"
     x1="102.2983"
     x2="355.62921"
     y1="38.639503"
     y2="38.639503"
     gradientTransform="matrix(1.0993119,0,0,1.0993119,-2.5457669,61.730504)"><stop
       offset="0"
       stop-color="#f50019"
       id="stop2" /><stop
       offset=".2761"
       stop-color="#f66d19"
       id="stop4" /><stop
       offset=".4785"
       stop-color="#fbfa35"
       id="stop6" /><stop
       offset=".681"
       stop-color="#74b719"
       id="stop8" /><stop
       offset=".7914"
       stop-color="#17710a"
       id="stop10" /><stop
       offset=".8834"
       stop-color="#226887"
       id="stop12" /><stop
       offset="1"
       stop-color="#3262d9"
       id="stop14" /></linearGradient><path
     style="fill:#f7f7f8;stroke-width:0.73745"
     d="m 159.15836,156.72012 c -5.42932,-0.97096 -8.76987,-3.03634 -10.84771,-6.70688 -1.79217,-3.16588 -1.84363,-3.65822 -1.84363,-17.6371 0,-16.22384 0.61806,-18.70737 5.45791,-21.93103 4.77808,-3.18253 7.39212,-3.48979 29.57105,-3.47587 19.73702,0.0124 21.22372,0.10715 24.40449,1.55558 4.39233,2.00014 6.99313,4.86811 7.98433,8.80452 1.21973,4.84396 1.01914,25.09123 -0.29233,29.50741 -1.23544,4.16016 -3.83322,6.99606 -8.12931,8.87445 -2.53107,1.10667 -5.77626,1.31467 -22.861,1.46522 -10.95116,0.0965 -21.50087,-0.10883 -23.4438,-0.4563 z m 39.4088,-10.55271 c 3.12791,-2.12405 3.9462,-5.13674 3.9462,-14.52872 0,-14.76702 -1.01857,-15.50256 -21.38611,-15.44372 -21.16566,0.0611 -21.99606,0.6166 -22.33791,14.94176 -0.24821,10.40125 0.67249,13.24515 5.0078,15.46852 2.28154,1.1701 4.3355,1.29848 17.69884,1.10618 13.10834,-0.18862 15.3774,-0.39385 17.07118,-1.54402 z m -154.237214,-14.16 v -24.70463 h 11.34675 11.346753 l 9.789357,17.73457 c 7.999479,14.492 10.04921,17.69434 11.210586,17.51448 1.013253,-0.15691 4.141718,-5.19486 10.898323,-17.55021 l 9.477095,-17.33012 11.47522,-0.20308 11.47522,-0.2031 v 24.72337 24.72335 h -6.3281 -6.3281 l 0.53472,-20.27992 0.53473,-20.27992 -1.7655,0.0161 c -1.53382,0.0139 -3.26979,2.65107 -13.22858,20.09556 l -11.463063,20.07947 -5.498322,0.20785 -5.498323,0.20785 -5.972242,-10.53216 C 73.051736,140.43414 67.90801,131.3063 64.905965,125.94274 60.4128,117.91509 59.150295,116.1874 57.765652,116.1715 l -1.682056,-0.0193 0.20715,20.2804 0.20715,20.2804 -6.08398,-4.8e-4 -6.08397,-4.7e-4 z M 420.24678,81.628348 409.37014,77.435979 409.36959,73.93308 c -5.6e-4,-1.926591 0.32225,-3.502895 0.71729,-3.502895 0.39504,0 3.13283,0.946949 6.08398,2.104326 2.95115,1.157378 7.77166,3.011586 10.71224,4.120451 l 5.34653,2.016137 v 3.622781 c 0,1.992536 -0.24889,3.6012 -0.55309,3.574813 -0.3042,-0.02638 -5.44757,-1.93455 -11.42973,-4.240345 z m 28.57548,-26.725219 -11.06178,-4.259741 -0.22619,-3.84441 c -0.20341,-3.457129 -0.092,-3.790525 1.10618,-3.309465 0.7328,0.294226 5.64646,2.189255 10.91924,4.211177 5.27278,2.021927 9.85584,3.934674 10.18457,4.250554 0.32874,0.315885 0.49466,2.067722 0.36873,3.892982 l -0.22897,3.318644 z"
     id="path6176" /><path
     style="fill:#2e3b63;stroke-width:0.73745"
     d="m 378.76434,162.991 c -12.81424,-0.48581 -14.9822,-0.83934 -18.64358,-3.04026 -4.92341,-2.95954 -6.7837,-10.09612 -6.79294,-26.05941 -0.006,-10.6858 0.88819,-16.93827 3.02085,-21.11864 3.20198,-6.27638 7.66445,-7.18873 35.26067,-7.20897 28.4077,-0.0208 32.9764,0.93226 36.41575,7.59687 2.09465,4.0589 3.19709,18.50441 2.27423,29.79978 -1.16058,14.20503 -3.89772,17.8842 -14.4135,19.37411 -6.37977,0.90392 -22.89243,1.19595 -37.12148,0.65652 z m 30.54414,-16.48299 c 1.15155,-0.59549 2.29988,-1.6199 2.55182,-2.27648 0.25196,-0.65657 0.45809,-4.99942 0.45809,-9.65077 0,-9.53442 -0.91859,-12.41754 -4.25376,-13.35087 -1.10801,-0.31008 -8.65164,-0.54926 -16.76361,-0.53151 -15.78603,0.0345 -17.56089,0.38271 -18.81894,3.6916 -1.09723,2.88594 -1.69097,10.91337 -1.13582,15.35659 0.75865,6.07201 2.03359,7.245 8.5988,7.91117 8.47815,0.86028 26.86902,0.14018 29.36342,-1.14973 z M 307.35443,161.8405 c -0.2704,-0.27039 -0.49164,-9.56228 -0.49164,-20.64864 v -20.15702 h -12.16795 -12.16796 v -7.37452 -7.37451 h 33.92278 33.92278 v 7.37451 7.37452 h -12.16795 -12.16796 v 20.64865 20.64865 h -9.09523 c -5.00239,0 -9.31648,-0.22124 -9.58687,-0.49164 z M 79.771682,157.7994 c -0.65385,-1.07341 -5.66015,-9.94109 -11.125122,-19.70594 -5.464971,-9.76485 -10.102234,-17.76395 -10.305033,-17.77577 -0.202799,-0.0119 -0.270292,8.77286 -0.149983,19.52156 l 0.218743,19.54308 h -8.146351 -8.14635 v -26.91699 -26.91698 h 13.22716 13.227153 l 3.605254,6.45269 c 1.98289,3.54899 6.207338,11.19089 9.38766,16.98201 3.180322,5.79111 6.069155,10.43371 6.41963,10.31688 0.350482,-0.11682 4.730116,-7.67576 9.732517,-16.79764 l 9.09528,-16.58522 13.37468,-0.201 13.37469,-0.201 v 26.93363 26.93362 h -8.58744 -8.58745 l 0.47228,-10.50868 c 0.56304,-12.52828 0.76468,-27.79861 0.37226,-28.19105 -0.15427,-0.15425 -5.34483,8.57305 -11.53461,19.394 l -11.254142,19.67446 h -6.741003 c -6.498805,0 -6.783717,-0.0701 -7.929823,-1.95166 z M 56.785178,137.45792 c -0.259444,-18.46806 -0.170634,-20.47244 0.916557,-20.68604 0.892315,-0.1753 4.22563,5.1238 12.881167,20.47766 l 11.677326,20.71417 5.495458,-0.2125 5.495463,-0.2125 9.083631,-15.85522 c 14.58761,-25.46228 14.39531,-25.15664 15.67176,-24.90901 1.04925,0.20355 1.14429,2.41304 0.88955,20.68043 l -0.2852,20.45252 h 6.36918 6.36918 v -25.44209 -25.44208 h -11.3888 -11.38882 l -1.17325,2.02799 c -0.6453,1.1154 -4.94732,8.99691 -9.56005,17.51448 -6.041655,11.15614 -8.790335,15.54871 -9.829999,15.70901 -1.169318,0.18029 -2.495348,-1.70915 -6.986983,-9.9556 C 74.53059,120.40238 71.253185,114.4209 68.979409,110.34179 l -1.644283,-2.94981 h -11.68696 -11.68695 l -0.19467,24.3303 c -0.10707,13.38167 -0.0345,24.74764 0.16122,25.25772 0.248,0.64627 2.29442,0.92743 6.75029,0.92743 h 6.394403 z m 99.575282,21.33937 c -6.36863,-1.70185 -8.26026,-3.03526 -10.36224,-7.30433 -1.59989,-3.24933 -1.76444,-4.63494 -1.997,-16.81526 -0.31256,-16.37062 0.34544,-20.0032 4.34852,-24.00628 4.97601,-4.97601 7.97883,-5.47381 32.77751,-5.43377 14.62398,0.0236 22.38017,0.32118 24.52996,0.94111 3.55796,1.02597 7.83047,4.4603 9.45351,7.5989 1.7664,3.41586 2.71761,17.11133 1.84073,26.50289 -0.86713,9.28716 -2.46573,13.14121 -6.6081,15.93136 -4.59358,3.09408 -6.97755,3.39929 -28.47864,3.64599 -17.88056,0.20517 -21.29958,0.063 -25.50425,-1.06061 z m 40.87684,-0.8536 c 9.12486,-0.8151 13.04999,-2.9104 15.92872,-8.50297 1.80332,-3.50336 1.88402,-4.19794 1.88402,-16.21736 0,-15.06796 -0.40496,-17.30772 -3.81093,-21.07773 -4.21732,-4.66805 -6.85345,-5.12237 -29.72204,-5.12237 -32.80198,0 -35.42073,1.6356 -36.01223,22.49228 -0.59795,21.08478 2.59594,26.8139 15.803,28.34695 7.02938,0.81594 27.19399,0.86152 35.92946,0.0812 z m -32.33399,-10.71046 c -1.62239,-0.60655 -3.02424,-1.10782 -3.11523,-1.11392 -0.091,-0.006 -0.67173,-0.99019 -1.29054,-2.18684 -0.83386,-1.61251 -1.12511,-4.58096 -1.12511,-11.46713 0,-10.63217 0.75293,-12.98522 4.58667,-14.33412 3.221,-1.13331 20.13409,-1.86729 27.37379,-1.18795 4.87526,0.45748 6.14595,0.86861 8.11093,2.62432 l 2.33,2.08186 0.24298,8.72648 c 0.29658,10.65149 -0.56668,13.87827 -4.29688,16.06101 -2.30977,1.35157 -4.01515,1.53077 -16.22394,1.70473 -10.67504,0.15211 -14.28455,-0.0455 -16.59267,-0.90844 z m 30.75267,-1.98452 c 3.54208,-1.35948 4.56667,-3.90705 4.84464,-12.04591 0.28291,-8.28328 -0.84079,-11.78948 -4.30518,-13.43329 -4.6459,-2.20441 -28.49734,-1.72745 -32.32512,0.6464 -2.37271,1.47146 -3.19973,5.37165 -2.91223,13.73383 0.24246,7.05209 0.38081,7.62601 2.30127,9.54646 1.68314,1.6831 2.91807,2.1259 7.0058,2.51196 6.57308,0.6208 22.8789,0.004 25.39082,-0.95945 z M 130.98053,88.632343 c -11.22524,-1.514535 -13.01416,-4.567176 -13.05304,-22.273906 -0.0237,-10.807975 0.10192,-11.916603 1.72028,-15.179778 1.37845,-2.779387 2.52191,-3.908286 5.43315,-5.363899 3.4928,-1.746407 4.41387,-1.852273 17.46531,-2.00752 23.44415,-0.278862 25.59865,1.309545 26.22932,19.337635 0.36586,10.458158 -0.52766,17.366652 -2.62292,20.279926 -0.72928,1.013994 -2.80206,2.583793 -4.60617,3.488442 -2.85287,1.430537 -4.76934,1.688541 -14.71072,1.980456 -6.28677,0.184605 -13.42162,0.06696 -15.85521,-0.261356 z m 24.49604,-12.792757 c 1.85449,-1.857461 1.9576,-17.530101 0.12737,-19.360322 -0.98739,-0.987402 -3.0369,-1.183721 -12.16795,-1.165563 -13.90689,0.02765 -13.56164,-0.256904 -13.56164,11.177881 0,7.806484 0.0429,8.010502 2.01025,9.558006 1.87247,1.472892 2.70477,1.565004 12.14372,1.344067 8.54095,-0.19992 10.34011,-0.444147 11.44825,-1.554069 z m 142.69077,12.748017 c -10.3802,-1.466282 -12.69065,-5.4548 -12.69065,-21.907683 0,-11.922383 0.77592,-15.473645 4.08074,-18.676804 3.80185,-3.684899 7.50704,-4.339331 23.5737,-4.163753 13.16835,0.143914 14.19311,0.256523 17.02781,1.871222 5.45915,3.109615 5.83319,4.416747 5.83319,20.384095 0,13.316693 -0.0837,14.146143 -1.68707,16.72471 -2.90559,4.672705 -6.10693,5.658873 -19.69902,6.068214 -6.48958,0.195451 -13.88699,0.06047 -16.4387,-0.300001 z m 23.19974,-11.511432 c 2.33925,-0.627469 3.47635,-4.181396 3.49517,-10.923937 0.0206,-7.401108 -0.58424,-9.769722 -2.66357,-10.429673 -0.89214,-0.283154 -6.10251,-0.477532 -11.5786,-0.431946 -12.43193,0.103494 -12.80985,0.349342 -13.22671,8.604359 -0.34453,6.822577 0.26978,10.33019 2.13604,12.196444 1.27133,1.27133 2.499,1.432622 10.83628,1.423701 5.17138,-0.0059 10.122,-0.203067 11.00139,-0.438948 z M 37.450316,88.098579 c -0.29975,-0.299741 -0.50824,-7.696209 -0.46332,-16.436601 l 0.0817,-15.891619 -8.16859,-0.208515 -8.16859,-0.20852 v -5.506735 -5.506735 h 28.76062 28.760618 v 8.111972 8.111966 h 12.536682 12.536684 v -8.111966 -8.111972 h 5.89961 5.89962 v 22.123554 22.123554 h -5.89962 -5.89961 V 80.106268 71.625569 H 90.789406 78.252724 v 8.480699 8.480694 H 72.353113 66.453497 V 71.994296 55.401631 H 57.98691 49.520326 l -0.19847,16.408304 -0.19848,16.408299 -5.56404,0.212663 c -3.06023,0.116967 -5.80928,-0.03258 -6.10902,-0.332318 z M 171.17165,66.494431 V 44.339854 h 9.24888 9.24886 l 4.27574,9.033783 c 2.35165,4.968585 5.22947,11.111892 6.39517,13.651798 1.16569,2.5399 2.46191,4.503852 2.88047,4.36433 0.41857,-0.139523 3.55478,-6.28283 6.96938,-13.651793 l 6.20834,-13.398118 h 9.09701 9.09701 v 22.123554 22.123554 h -5.53089 -5.53089 V 73.407748 c 0,-9.690255 -0.26398,-15.090327 -0.73001,-14.933399 -0.67507,0.227314 -4.45296,7.631365 -12.06495,23.645306 l -3.06025,6.438109 -4.79344,-0.01333 -4.79343,-0.01344 -7.0058,-15.061793 c -3.85318,-8.283993 -7.43524,-15.074397 -7.96012,-15.089784 -0.75724,-0.02218 -0.90955,3.056208 -0.73745,14.905418 l 0.21688,14.933399 -5.71525,0.215384 -5.71526,0.215384 z m 74.11391,21.596897 c -5.68598,-1.25117 -7.40536,-3.376149 -8.19959,-10.133899 l -0.48417,-4.119505 h 6.00115 c 5.43542,0 6.00114,0.134069 6.00114,1.422229 0,3.156738 1.76508,3.739937 11.3191,3.739937 6.95341,0 9.37428,-0.26119 10.64037,-1.147991 1.79037,-1.254029 2.17877,-4.133852 0.71718,-5.317634 -0.50706,-0.41068 -6.7284,-0.8882 -13.82722,-1.061311 -14.41153,-0.351433 -16.6657,-0.970074 -18.9716,-5.206591 -1.77194,-3.255503 -1.75635,-13.204559 0.0259,-16.558323 2.49733,-4.699252 8.16595,-6.076938 24.01237,-5.83589 9.6986,0.147525 12.00699,0.40449 14.48165,1.612044 3.44251,1.679836 5.04933,4.525522 5.11205,9.053412 l 0.0443,3.192163 -5.71557,0.12637 c -4.7253,0.104478 -5.71552,-0.07167 -5.71525,-1.016677 5.5e-4,-2.458336 -1.64112,-2.912936 -10.52002,-2.912936 -9.53569,0 -11.60326,0.588503 -11.60326,3.302665 0,3.519188 2.13381,4.071856 15.72115,4.071856 13.72372,0 15.35034,0.42063 17.82467,4.609348 1.66818,2.824011 2.2633,10.333188 1.14615,14.462063 -1.83936,6.798114 -6.28125,8.261427 -24.67498,8.128757 -6.52334,-0.04707 -12.52431,-0.231589 -13.33551,-0.410087 z m 94.02511,-21.62792 V 44.339854 h 9.14049 9.1405 l 10.20938,15.11776 c 5.61516,8.314773 10.67281,15.117765 11.23923,15.117765 0.85935,0 0.97207,-2.502804 0.68085,-15.117765 l -0.349,-15.11776 h 5.41136 5.41136 v 22.123554 22.123554 l -9.03378,-0.02317 c -8.47609,-0.02174 -9.10554,-0.124179 -10.1961,-1.659266 -0.63927,-0.899865 -5.23212,-7.692432 -10.20633,-15.094602 -4.9742,-7.402177 -9.34599,-13.458499 -9.7151,-13.458499 -0.38132,0 -0.67109,6.527532 -0.67109,15.117765 v 15.11776 h -5.53088 -5.53089 z m 81.6496,17.350109 c -6.40093,-2.569225 -12.12539,-5.075779 -12.72104,-5.570119 -0.73088,-0.606578 -1.083,-2.329118 -1.083,-5.298038 v -4.399241 l 2.94981,0.498372 2.94981,0.498366 v -4.938204 c 0,-5.342025 -0.0594,-5.386714 -4.76073,-3.582638 -1.06202,0.407532 -1.18349,-0.155772 -0.99033,-4.59243 l 0.22017,-5.05693 9.21815,-3.546107 c 5.06998,-1.950357 11.20926,-4.233652 13.64286,-5.073993 l 4.42471,-1.527886 13.45849,5.051372 13.4585,5.051366 v 5.036615 c 0,4.888243 -0.0489,5.021029 -1.65927,4.50768 -3.59781,-1.146896 -3.85945,-0.912381 -4.09599,3.671193 -0.27273,5.284925 0.38311,6.135586 3.4912,4.528327 l 2.33013,-1.204954 -0.2174,5.241241 -0.2174,5.241242 -7.00579,2.778818 c -15.08709,5.984244 -19.14921,7.457468 -20.42697,7.408326 -0.73032,-0.0281 -6.56499,-2.153153 -12.96591,-4.722378 z m 11.83046,-0.76381 c 0.10582,-1.618891 -0.0601,-3.282516 -0.36873,-3.696934 -0.47122,-0.632767 -18.42407,-7.812734 -22.50032,-8.998656 -1.11725,-0.325056 -1.29054,0.164688 -1.29054,3.647167 v 4.022649 l 10.87741,4.151186 c 5.98258,2.283151 11.3752,4.076231 11.98359,3.984618 0.73123,-0.11012 1.1714,-1.164291 1.29859,-3.11003 z m 7.00698,-6.255379 4.96857,-1.83703 v -9.667207 -9.667197 l -4.60908,-1.95638 c -5.63583,-2.392198 -6.50243,-2.383337 -11.61486,0.11877 l -4.05599,1.985075 v 9.453632 9.453627 l 4.79344,2.082888 c 2.63639,1.145585 4.96351,2.035185 5.1714,1.976873 0.20787,-0.05833 2.61381,-0.932685 5.34652,-1.943051 z m 21.1925,-20.629296 c 0,-2.735578 -0.3263,-3.833719 -1.29054,-4.343175 -1.63887,-0.865899 -21.15629,-8.219453 -21.81564,-8.219453 -0.27075,0 -0.49227,1.775637 -0.49227,3.945858 v 3.945857 l 10.87741,4.116978 c 5.98258,2.26434 11.29223,4.13909 11.79923,4.166114 0.62027,0.03307 0.92181,-1.148561 0.92181,-3.612179 z"
     id="path6168" /><path
     style="fill:#ffffff;stroke-width:0.73745"
     d="m 226.95538,155.52524 c 1.10982,-2.43359 7.34495,-15.29291 13.85585,-28.57626 l 11.83799,-24.15155 h 7.75943 7.75942 l -1.37431,3.13418 c -0.75587,1.72379 -6.96633,14.52539 -13.80102,28.44801 l -12.4267,25.31384 -7.81426,0.12825 -7.81425,0.12824 z"
     id="path6166" /></svg>
