<?xml version="1.0" encoding="UTF-8" standalone="no"?>
<!-- Created with Inkscape (http://www.inkscape.org/) -->

<svg
   xmlns:dc="http://purl.org/dc/elements/1.1/"
   xmlns:cc="http://creativecommons.org/ns#"
   xmlns:rdf="http://www.w3.org/1999/02/22-rdf-syntax-ns#"
   xmlns:svg="http://www.w3.org/2000/svg"
   xmlns="http://www.w3.org/2000/svg"
   xmlns:xlink="http://www.w3.org/1999/xlink"
   xmlns:sodipodi="http://sodipodi.sourceforge.net/DTD/sodipodi-0.dtd"
   xmlns:inkscape="http://www.inkscape.org/namespaces/inkscape"
   width="407.74948"
   height="72.888512"
   viewBox="0 0 107.88372 19.285087"
   version="1.1"
   id="svg8"
   inkscape:version="0.92.5 (2060ec1f9f, 2020-04-08)"
   sodipodi:docname="toaplan.svg">
  <defs
     id="defs2">
    <clipPath
       clipPathUnits="userSpaceOnUse"
       id="clipPath909">
      <use
         x="0"
         y="0"
         xlink:href="#g905"
         id="use911"
         width="100%"
         height="100%" />
    </clipPath>
  </defs>
  <sodipodi:namedview
     id="base"
     pagecolor="#ffffff"
     bordercolor="#666666"
     borderopacity="1.0"
     inkscape:pageopacity="0.0"
     inkscape:pageshadow="2"
     inkscape:zoom="3.6745183"
     inkscape:cx="253.71699"
     inkscape:cy="38.307235"
     inkscape:document-units="mm"
     inkscape:current-layer="layer1"
     showgrid="true"
     showguides="true"
     fit-margin-top="0"
     fit-margin-left="0"
     fit-margin-right="0"
     fit-margin-bottom="0"
     inkscape:window-width="1366"
     inkscape:window-height="743"
     inkscape:window-x="0"
     inkscape:window-y="0"
     inkscape:window-maximized="1"
     units="px"
     inkscape:pagecheckerboard="true" />
  <metadata
     id="metadata5">
    <rdf:RDF>
      <cc:Work
         rdf:about="">
        <dc:format>image/svg+xml</dc:format>
        <dc:type
           rdf:resource="http://purl.org/dc/dcmitype/StillImage" />
        <dc:title />
      </cc:Work>
    </rdf:RDF>
  </metadata>
  <g
     inkscape:label="Layer 1"
     inkscape:groupmode="layer"
     id="layer1"
     transform="translate(149.52239,-90.669004)">
    <path
       style="opacity:1;fill:#aa8800;fill-opacity:1;fill-rule:nonzero;stroke:none;stroke-width:0.60977626;stroke-linecap:round;stroke-linejoin:miter;stroke-miterlimit:4;stroke-dasharray:none;stroke-opacity:1;paint-order:stroke fill markers"
       d="m -143.04232,90.669004 v 2.940111 h 2.94001 v -2.940111 z m 0.58285,0.580191 h 1.77347 v 1.783876 h -1.77347 z"
       id="rect4907"
       inkscape:connector-curvature="0" />
    <path
       style="color:#000000;font-style:normal;font-variant:normal;font-weight:normal;font-stretch:normal;font-size:medium;line-height:normal;font-family:sans-serif;font-variant-ligatures:normal;font-variant-position:normal;font-variant-caps:normal;font-variant-numeric:normal;font-variant-alternates:normal;font-feature-settings:normal;text-indent:0;text-align:start;text-decoration:none;text-decoration-line:none;text-decoration-style:solid;text-decoration-color:#000000;letter-spacing:normal;word-spacing:normal;text-transform:none;writing-mode:lr-tb;direction:ltr;text-orientation:mixed;dominant-baseline:auto;baseline-shift:baseline;text-anchor:start;white-space:normal;shape-padding:0;clip-rule:nonzero;display:inline;overflow:visible;visibility:visible;opacity:1;isolation:auto;mix-blend-mode:normal;color-interpolation:sRGB;color-interpolation-filters:linearRGB;solid-color:#000000;solid-opacity:1;vector-effect:none;fill:#aa8800;fill-opacity:1;fill-rule:nonzero;stroke:none;stroke-width:0.57945961;stroke-linecap:round;stroke-linejoin:miter;stroke-miterlimit:4;stroke-dasharray:none;stroke-dashoffset:0;stroke-opacity:1;paint-order:stroke fill markers;color-rendering:auto;image-rendering:auto;shape-rendering:auto;text-rendering:auto;enable-background:accumulate"
       d="m -139.81925,93.609092 h 2.97393 v -0.288157 c 0,-1.461357 -1.20448,-2.651931 -2.6825,-2.651931 h -0.29143 v 0.287813 z m 0.58287,-0.57597 v -1.783875 c 0.91838,0.130935 1.64116,0.87578 1.77346,1.783875 z"
       id="path4565-0-7-8-1"
       inkscape:connector-curvature="0"
       sodipodi:nodetypes="ccssccccccc" />
    <path
       style="opacity:1;fill:#aa8800;fill-opacity:1;fill-rule:nonzero;stroke:none;stroke-width:0.60977626;stroke-linecap:round;stroke-linejoin:miter;stroke-miterlimit:4;stroke-dasharray:none;stroke-opacity:1;paint-order:stroke fill markers"
       d="m -143.04232,96.832222 v -2.940109 h 2.94001 v 2.940109 z m 0.58285,-0.580192 h 1.77347 v -1.783874 h -1.77347 z"
       id="rect4907-3"
       inkscape:connector-curvature="0" />
    <path
       style="color:#000000;font-style:normal;font-variant:normal;font-weight:normal;font-stretch:normal;font-size:medium;line-height:normal;font-family:sans-serif;font-variant-ligatures:normal;font-variant-position:normal;font-variant-caps:normal;font-variant-numeric:normal;font-variant-alternates:normal;font-feature-settings:normal;text-indent:0;text-align:start;text-decoration:none;text-decoration-line:none;text-decoration-style:solid;text-decoration-color:#000000;letter-spacing:normal;word-spacing:normal;text-transform:none;writing-mode:lr-tb;direction:ltr;text-orientation:mixed;dominant-baseline:auto;baseline-shift:baseline;text-anchor:start;white-space:normal;shape-padding:0;clip-rule:nonzero;display:inline;overflow:visible;visibility:visible;opacity:1;isolation:auto;mix-blend-mode:normal;color-interpolation:sRGB;color-interpolation-filters:linearRGB;solid-color:#000000;solid-opacity:1;vector-effect:none;fill:#aa8800;fill-opacity:1;fill-rule:nonzero;stroke:none;stroke-width:0.57945961;stroke-linecap:round;stroke-linejoin:miter;stroke-miterlimit:4;stroke-dasharray:none;stroke-dashoffset:0;stroke-opacity:1;paint-order:stroke fill markers;color-rendering:auto;image-rendering:auto;shape-rendering:auto;text-rendering:auto;enable-background:accumulate"
       d="m -139.81925,93.892138 h 2.97393 v 0.288156 c 0,1.461357 -1.20448,2.651928 -2.6825,2.651928 h -0.29143 v -0.287811 z m 0.58287,0.575967 v 1.783875 c 0.91838,-0.130934 1.64116,-0.87578 1.77346,-1.783875 z"
       id="path4565-0-7-8-1-5"
       inkscape:connector-curvature="0"
       sodipodi:nodetypes="ccssccccccc" />
    <path
       style="opacity:1;fill:#aa8800;fill-opacity:1;fill-rule:nonzero;stroke:none;stroke-width:0.60977626;stroke-linecap:round;stroke-linejoin:miter;stroke-miterlimit:4;stroke-dasharray:none;stroke-opacity:1;paint-order:stroke fill markers"
       d="m -146.26538,90.669004 v 2.940111 h 2.94 v -2.940111 z m 0.58285,0.580191 h 1.77347 v 1.783876 h -1.77347 z"
       id="rect4907-0"
       inkscape:connector-curvature="0" />
    <path
       style="opacity:1;fill:#aa8800;fill-opacity:1;fill-rule:nonzero;stroke:none;stroke-width:0.60977626;stroke-linecap:round;stroke-linejoin:miter;stroke-miterlimit:4;stroke-dasharray:none;stroke-opacity:1;paint-order:stroke fill markers"
       d="m -146.26538,96.832222 v -2.940109 h 2.94 v 2.940109 z m 0.58285,-0.580192 h 1.77347 v -1.783874 h -1.77347 z"
       id="rect4907-3-9"
       inkscape:connector-curvature="0" />
    <path
       style="color:#000000;font-style:normal;font-variant:normal;font-weight:normal;font-stretch:normal;font-size:medium;line-height:normal;font-family:sans-serif;font-variant-ligatures:normal;font-variant-position:normal;font-variant-caps:normal;font-variant-numeric:normal;font-variant-alternates:normal;font-feature-settings:normal;text-indent:0;text-align:start;text-decoration:none;text-decoration-line:none;text-decoration-style:solid;text-decoration-color:#000000;letter-spacing:normal;word-spacing:normal;text-transform:none;writing-mode:lr-tb;direction:ltr;text-orientation:mixed;dominant-baseline:auto;baseline-shift:baseline;text-anchor:start;white-space:normal;shape-padding:0;clip-rule:nonzero;display:inline;overflow:visible;visibility:visible;opacity:1;isolation:auto;mix-blend-mode:normal;color-interpolation:sRGB;color-interpolation-filters:linearRGB;solid-color:#000000;solid-opacity:1;vector-effect:none;fill:#aa8800;fill-opacity:1;fill-rule:nonzero;stroke:none;stroke-width:0.57945961;stroke-linecap:round;stroke-linejoin:miter;stroke-miterlimit:4;stroke-dasharray:none;stroke-dashoffset:0;stroke-opacity:1;paint-order:stroke fill markers;color-rendering:auto;image-rendering:auto;shape-rendering:auto;text-rendering:auto;enable-background:accumulate"
       d="m -146.54844,93.609092 h -2.97395 v -0.288157 c 0,-1.461357 1.2045,-2.651931 2.68249,-2.651931 h 0.29146 v 0.287813 z m -0.58288,-0.57597 v -1.783875 c -0.9184,0.130935 -1.64118,0.87578 -1.77346,1.783875 z"
       id="path4565-0-7-8-1-2"
       inkscape:connector-curvature="0"
       sodipodi:nodetypes="ccssccccccc" />
    <path
       style="opacity:1;fill:#aa8800;fill-opacity:1;fill-rule:nonzero;stroke:none;stroke-width:0.60977626;stroke-linecap:round;stroke-linejoin:miter;stroke-miterlimit:4;stroke-dasharray:none;stroke-opacity:1;paint-order:stroke fill markers"
       d="m -149.48845,96.832249 v -2.940111 h 2.94001 v 2.940111 z m 0.58285,-0.58019 h 1.77347 v -1.783878 h -1.77347 z"
       id="rect4907-3-9-6"
       inkscape:connector-curvature="0" />
    <path
       style="opacity:1;fill:#aa8800;fill-opacity:1;fill-rule:nonzero;stroke:none;stroke-width:0.60977626;stroke-linecap:round;stroke-linejoin:miter;stroke-miterlimit:4;stroke-dasharray:none;stroke-opacity:1;paint-order:stroke fill markers"
       d="m -146.26538,100.05538 v -2.940108 h 2.94 v 2.940108 z m 0.58285,-0.580191 h 1.77347 v -1.783872 h -1.77347 z"
       id="rect4907-3-9-5"
       inkscape:connector-curvature="0" />
    <path
       style="opacity:1;fill:#aa8800;fill-opacity:1;fill-rule:nonzero;stroke:none;stroke-width:0.60977626;stroke-linecap:round;stroke-linejoin:miter;stroke-miterlimit:4;stroke-dasharray:none;stroke-opacity:1;paint-order:stroke fill markers"
       d="m -149.48845,100.05541 v -2.940119 h 2.94001 v 2.940119 z m 0.58285,-0.580189 h 1.77347 v -1.783884 h -1.77347 z"
       id="rect4907-3-9-6-7"
       inkscape:connector-curvature="0" />
    <path
       style="opacity:1;fill:#aa8800;fill-opacity:1;fill-rule:nonzero;stroke:none;stroke-width:0.60977626;stroke-linecap:round;stroke-linejoin:miter;stroke-miterlimit:4;stroke-dasharray:none;stroke-opacity:1;paint-order:stroke fill markers"
       d="m -143.04232,103.27855 v -2.94012 h 2.94001 v 2.94012 z m 0.58285,-0.5802 h 1.77347 v -1.78387 h -1.77347 z"
       id="rect4907-5"
       inkscape:connector-curvature="0" />
    <path
       style="color:#000000;font-style:normal;font-variant:normal;font-weight:normal;font-stretch:normal;font-size:medium;line-height:normal;font-family:sans-serif;font-variant-ligatures:normal;font-variant-position:normal;font-variant-caps:normal;font-variant-numeric:normal;font-variant-alternates:normal;font-feature-settings:normal;text-indent:0;text-align:start;text-decoration:none;text-decoration-line:none;text-decoration-style:solid;text-decoration-color:#000000;letter-spacing:normal;word-spacing:normal;text-transform:none;writing-mode:lr-tb;direction:ltr;text-orientation:mixed;dominant-baseline:auto;baseline-shift:baseline;text-anchor:start;white-space:normal;shape-padding:0;clip-rule:nonzero;display:inline;overflow:visible;visibility:visible;opacity:1;isolation:auto;mix-blend-mode:normal;color-interpolation:sRGB;color-interpolation-filters:linearRGB;solid-color:#000000;solid-opacity:1;vector-effect:none;fill:#aa8800;fill-opacity:1;fill-rule:nonzero;stroke:none;stroke-width:0.57945961;stroke-linecap:round;stroke-linejoin:miter;stroke-miterlimit:4;stroke-dasharray:none;stroke-dashoffset:0;stroke-opacity:1;paint-order:stroke fill markers;color-rendering:auto;image-rendering:auto;shape-rendering:auto;text-rendering:auto;enable-background:accumulate"
       d="m -139.81925,100.33845 h 2.97393 v 0.28817 c 0,1.46134 -1.20448,2.65193 -2.6825,2.65193 h -0.29143 v -0.2878 z m 0.58287,0.57596 v 1.7839 c 0.91838,-0.13095 1.64116,-0.8758 1.77346,-1.7839 z"
       id="path4565-0-7-8-1-0"
       inkscape:connector-curvature="0"
       sodipodi:nodetypes="ccssccccccc" />
    <path
       style="opacity:1;fill:#aa8800;fill-opacity:1;fill-rule:nonzero;stroke:none;stroke-width:0.60977626;stroke-linecap:round;stroke-linejoin:miter;stroke-miterlimit:4;stroke-dasharray:none;stroke-opacity:1;paint-order:stroke fill markers"
       d="m -146.26538,103.27855 v -2.94012 h 2.94 v 2.94012 z m 0.58285,-0.5802 h 1.77347 v -1.78387 h -1.77347 z"
       id="rect4907-0-1"
       inkscape:connector-curvature="0" />
    <path
       style="color:#000000;font-style:normal;font-variant:normal;font-weight:normal;font-stretch:normal;font-size:medium;line-height:normal;font-family:sans-serif;font-variant-ligatures:normal;font-variant-position:normal;font-variant-caps:normal;font-variant-numeric:normal;font-variant-alternates:normal;font-feature-settings:normal;text-indent:0;text-align:start;text-decoration:none;text-decoration-line:none;text-decoration-style:solid;text-decoration-color:#000000;letter-spacing:normal;word-spacing:normal;text-transform:none;writing-mode:lr-tb;direction:ltr;text-orientation:mixed;dominant-baseline:auto;baseline-shift:baseline;text-anchor:start;white-space:normal;shape-padding:0;clip-rule:nonzero;display:inline;overflow:visible;visibility:visible;opacity:1;isolation:auto;mix-blend-mode:normal;color-interpolation:sRGB;color-interpolation-filters:linearRGB;solid-color:#000000;solid-opacity:1;vector-effect:none;fill:#aa8800;fill-opacity:1;fill-rule:nonzero;stroke:none;stroke-width:0.57945961;stroke-linecap:round;stroke-linejoin:miter;stroke-miterlimit:4;stroke-dasharray:none;stroke-dashoffset:0;stroke-opacity:1;paint-order:stroke fill markers;color-rendering:auto;image-rendering:auto;shape-rendering:auto;text-rendering:auto;enable-background:accumulate"
       d="m -146.54844,100.33845 h -2.97395 v 0.28817 c 0,1.46134 1.2045,2.65193 2.68249,2.65193 h 0.29146 v -0.2878 z m -0.58288,0.57596 v 1.7839 c -0.9184,-0.13095 -1.64118,-0.8758 -1.77346,-1.7839 z"
       id="path4565-0-7-8-1-2-2"
       inkscape:connector-curvature="0"
       sodipodi:nodetypes="ccssccccccc" />
    <g
       id="g907"
       clip-path="url(#clipPath909)"
       style="fill:#aa8800;stroke:none"
       transform="matrix(1.1274304,0,0,1.1274304,5.3060323,-14.006948)">
      <g
         inkscape:label="Clip"
         id="g905"
         style="fill:#aa8800;stroke:none">
        <g
           style="fill:#aa8800;stroke:none"
           transform="matrix(2.0794317,0,0,2.0794317,186.00321,-131.99158)"
           id="g90">
          <path
             inkscape:connector-curvature="0"
             id="path5097"
             style="font-style:normal;font-variant:normal;font-weight:normal;font-stretch:normal;font-size:medium;line-height:1.25;font-family:Eurostile;-inkscape-font-specification:Eurostile;letter-spacing:0px;word-spacing:0px;fill:#aa8800;fill-opacity:1;stroke:none;stroke-width:0.35733205;stroke-miterlimit:4;stroke-dasharray:none;stroke-opacity:1"
             d="m -146.65192,109.06017 v 4.30384 h -1.16463 v -4.30384 h -1.77166 v -0.88128 h 4.77092 v 0.88128 z" />
          <path
             inkscape:connector-curvature="0"
             id="path5099"
             style="font-style:normal;font-variant:normal;font-weight:normal;font-stretch:normal;font-size:medium;line-height:1.25;font-family:Eurostile;-inkscape-font-specification:Eurostile;letter-spacing:0px;word-spacing:0px;fill:#aa8800;fill-opacity:1;stroke:none;stroke-width:0.35733205;stroke-miterlimit:4;stroke-dasharray:none;stroke-opacity:1"
             d="m -141.67415,108.13331 q 1.67275,0 2.15389,0.47103 0.48114,0.46723 0.48114,2.09684 0,1.78155 -0.48564,2.24498 -0.48114,0.46344 -2.33824,0.46344 -1.67275,0 -2.16288,-0.45584 -0.49014,-0.45963 -0.49014,-2.01707 0,-1.85373 0.48114,-2.32856 0.48114,-0.47482 2.36073,-0.47482 z m -0.0899,0.84329 q -1.17362,0 -1.37147,0.25451 -0.19785,0.25451 -0.19785,1.76256 0,1.1168 0.22933,1.34471 0.23382,0.22792 1.36697,0.22792 1.08369,0 1.29953,-0.25451 0.21584,-0.2583 0.21584,-1.55743 0,-1.30293 -0.20685,-1.53845 -0.20235,-0.23931 -1.3355,-0.23931 z" />
          <path
             inkscape:connector-curvature="0"
             id="path5101"
             style="font-style:normal;font-variant:normal;font-weight:normal;font-stretch:normal;font-size:medium;line-height:1.25;font-family:Eurostile;-inkscape-font-specification:Eurostile;letter-spacing:0px;word-spacing:0px;fill:#aa8800;fill-opacity:1;stroke:none;stroke-width:0.35733205;stroke-miterlimit:4;stroke-dasharray:none;stroke-opacity:1"
             d="m -134.53799,112.36877 h -2.64852 l -0.38221,0.99524 h -1.23208 l 2.04147,-5.18512 h 1.74919 l 2.07294,5.18512 h -1.20959 z m -0.2698,-0.72554 -1.06121,-2.70082 -1.04322,2.70082 z" />
          <path
             inkscape:connector-curvature="0"
             id="path5103"
             style="font-style:normal;font-variant:normal;font-weight:normal;font-stretch:normal;font-size:medium;line-height:1.25;font-family:Eurostile;-inkscape-font-specification:Eurostile;letter-spacing:0px;word-spacing:0px;fill:#aa8800;fill-opacity:1;stroke:none;stroke-width:0.35733205;stroke-miterlimit:4;stroke-dasharray:none;stroke-opacity:1"
             d="m -132.40659,113.36401 v -5.18512 h 2.47314 0.30577 q 1.24557,0 1.67725,0.36847 0.43617,0.36466 0.43617,1.41309 0,1.04082 -0.41369,1.38269 -0.41369,0.34188 -1.67274,0.34188 l -0.2698,0.004 h -1.37148 v 1.67519 z m 1.16462,-2.50329 h 1.32651 q 0.79141,0 1.00275,-0.15195 0.21584,-0.15574 0.21584,-0.72933 0,-0.65716 -0.17987,-0.81291 -0.17537,-0.15954 -0.92181,-0.15954 h -1.44342 z" />
          <path
             inkscape:connector-curvature="0"
             id="path5105"
             style="font-style:normal;font-variant:normal;font-weight:normal;font-stretch:normal;font-size:medium;line-height:1.25;font-family:Eurostile;-inkscape-font-specification:Eurostile;letter-spacing:0px;word-spacing:0px;fill:#aa8800;fill-opacity:1;stroke:none;stroke-width:0.35733205;stroke-miterlimit:4;stroke-dasharray:none;stroke-opacity:1"
             d="m -125.61218,108.17889 v 4.30384 h 2.87784 v 0.88128 h -4.04247 v -5.18512 z" />
          <path
             inkscape:connector-curvature="0"
             id="path5107"
             style="font-style:normal;font-variant:normal;font-weight:normal;font-stretch:normal;font-size:medium;line-height:1.25;font-family:Eurostile;-inkscape-font-specification:Eurostile;letter-spacing:0px;word-spacing:0px;fill:#aa8800;fill-opacity:1;stroke:none;stroke-width:0.35733205;stroke-miterlimit:4;stroke-dasharray:none;stroke-opacity:1"
             d="m -117.78215,112.36877 h -2.64851 l -0.38222,0.99524 h -1.23208 l 2.04147,-5.18512 h 1.74919 l 2.07295,5.18512 h -1.20959 z m -0.2698,-0.72554 -1.0612,-2.70082 -1.04322,2.70082 z" />
          <path
             inkscape:connector-curvature="0"
             id="path5109"
             style="font-style:normal;font-variant:normal;font-weight:normal;font-stretch:normal;font-size:medium;line-height:1.25;font-family:Eurostile;-inkscape-font-specification:Eurostile;letter-spacing:0px;word-spacing:0px;fill:#aa8800;fill-opacity:1;stroke:none;stroke-width:0.35733205;stroke-miterlimit:4;stroke-dasharray:none;stroke-opacity:1"
             d="m -109.66276,108.17889 v 5.18512 h -1.97402 l -1.75368,-2.84517 q -0.1304,-0.21272 -0.4092,-0.74453 l -0.19785,-0.37226 -0.19335,-0.37227 h -0.045 l 0.018,0.34188 0.0135,0.33808 0.009,0.67995 v 2.97432 h -1.16463 v -5.18512 h 1.97403 l 1.5963,2.62865 q 0.21134,0.34947 0.49013,0.84709 l 0.23383,0.42165 0.23382,0.42544 h 0.0405 l -0.0135,-0.33428 -0.0135,-0.33427 -0.009,-0.66856 v -2.98572 z" />
        </g>
      </g>
    </g>
    <path
       d="m -146.05156,109.72217 c -0.3223,0.15069 -0.65354,0.22572 -0.99418,0.22572 -0.32854,0 -0.63476,-0.0603 -0.91953,-0.18065 -0.28474,-0.12032 -0.53061,-0.2834 -0.73846,-0.48947 -0.20783,-0.2061 -0.37103,-0.45059 -0.48949,-0.734 -0.1186,-0.28342 -0.17743,-0.58828 -0.17743,-0.91462 0,-0.32632 0.0604,-0.63253 0.18066,-0.91817 0.12069,-0.2852 0.28475,-0.53107 0.49263,-0.73715 0.20782,-0.20611 0.45372,-0.36922 0.73848,-0.48947 0.28475,-0.12033 0.58917,-0.18066 0.91324,-0.18066 0.3487,0 0.68751,0.0766 1.01563,0.22886 0.32858,0.15241 0.59455,0.35717 0.79796,0.61509 l -0.61065,0.6245 c -0.15372,-0.19768 -0.33482,-0.34867 -0.54224,-0.45417 -0.20782,-0.10502 -0.42823,-0.15781 -0.6607,-0.15781 -0.19531,0 -0.3795,0.0379 -0.55161,0.11327 -0.17245,0.075 -0.32098,0.17787 -0.44569,0.30889 -0.12486,0.1309 -0.22215,0.28565 -0.29324,0.46401 -0.0707,0.17785 -0.10588,0.37237 -0.10588,0.58291 0,0.2061 0.0367,0.39831 0.10907,0.57621 0.073,0.17829 0.17247,0.33169 0.29951,0.46043 0.12657,0.12919 0.27624,0.23112 0.4488,0.30622 0.17204,0.0751 0.36031,0.11265 0.56371,0.11265 0.22887,0 0.44254,-0.0495 0.64237,-0.1479 0.19942,-0.0986 0.37592,-0.24049 0.52971,-0.42511 l 0.59186,0.60526 c -0.20783,0.25346 -0.47252,0.45509 -0.79437,0.60527 z m 11.7267,0.0517 c -0.28251,0.12032 -0.58607,0.18022 -0.91014,0.18022 -0.32006,0 -0.62136,-0.06 -0.90388,-0.18022 -0.28251,-0.12032 -0.52658,-0.28477 -0.73222,-0.49307 -0.20567,-0.20825 -0.36879,-0.45507 -0.48903,-0.74071 -0.12069,-0.28521 -0.18108,-0.58917 -0.18108,-0.91105 0,-0.32229 0.0603,-0.62584 0.18108,-0.91145 0.12032,-0.28566 0.28341,-0.5324 0.48903,-0.74071 0.20567,-0.20827 0.44971,-0.37239 0.73222,-0.49264 0.28252,-0.12032 0.58382,-0.18066 0.90388,-0.18066 0.32407,0 0.62763,0.0604 0.91014,0.18066 0.2825,0.12032 0.52658,0.28431 0.73222,0.49264 0.20567,0.20824 0.36879,0.45505 0.4895,0.74071 0.12032,0.28561 0.18066,0.58916 0.18066,0.91145 0,0.32188 -0.0604,0.62584 -0.18066,0.91105 -0.12069,0.28564 -0.28386,0.53241 -0.4895,0.74071 -0.20568,0.20827 -0.44972,0.37282 -0.73222,0.49307 z m -0.91014,-0.67635 c -0.19532,0 -0.37684,-0.0376 -0.54535,-0.11265 -0.16816,-0.0754 -0.31381,-0.17828 -0.43629,-0.30935 -0.12255,-0.13106 -0.21904,-0.28653 -0.28969,-0.46712 -0.0707,-0.18021 -0.10588,-0.37326 -0.10588,-0.57932 0,-0.21064 0.0354,-0.40502 0.10588,-0.58293 0.0706,-0.17827 0.16729,-0.33304 0.28969,-0.46402 0.12254,-0.13107 0.2682,-0.23379 0.43629,-0.30889 0.16859,-0.0754 0.35001,-0.11315 0.54535,-0.11315 0.19531,0 0.37819,0.0376 0.54851,0.11315 0.17032,0.0751 0.31693,0.17786 0.43942,0.30889 0.12243,0.13109 0.21903,0.28564 0.28967,0.46402 0.0707,0.17785 0.10587,0.37236 0.10587,0.58293 0,0.20609 -0.0354,0.39916 -0.10587,0.57932 -0.0707,0.18066 -0.16709,0.33615 -0.28967,0.46712 -0.12255,0.13089 -0.2691,0.2338 -0.43942,0.30935 -0.17032,0.075 -0.35315,0.11265 -0.54851,0.11265 z m 13.69941,-0.0389 v 0.82475 h -3.29099 v -4.50866 h 0.90389 v 3.68391 z m 11.39321,0.82475 v -0.82475 h -2.3871 v -3.68391 h -0.90342 v 4.50866 z m 11.480836,-0.81177 v 0.81177 h -3.378136 v -4.50866 h 3.353107 v 0.81135 h -2.449237 v 1.03039 h 1.614198 v 0.78586 h -1.614198 v 1.06929 z m 10.022193,0.87614 c 0.340641,0 0.671885,-0.0749 0.99418,-0.22573 0.321865,-0.15027 0.586946,-0.3518 0.794358,-0.60526 l -0.591862,-0.60528 c -0.153711,0.18454 -0.330336,0.32633 -0.529708,0.42511 -0.199414,0.0983 -0.413508,0.14788 -0.641939,0.14788 -0.203726,0 -0.391584,-0.0376 -0.564136,-0.11265 -0.172466,-0.0749 -0.322296,-0.177 -0.4488,-0.30619 -0.126977,-0.12866 -0.226643,-0.28207 -0.299056,-0.46046 -0.07288,-0.17784 -0.10908,-0.37011 -0.10908,-0.57619 0,-0.21062 0.03535,-0.405 0.105854,-0.58291 0.07071,-0.1783 0.168155,-0.33305 0.292783,-0.46401 0.124818,-0.13107 0.273142,-0.2338 0.445695,-0.30891 0.172466,-0.075 0.356273,-0.11327 0.551612,-0.11327 0.232463,0 0.452832,0.0529 0.660696,0.1578 0.207823,0.10545 0.388459,0.2566 0.542234,0.4542 l 0.610637,-0.6245 c -0.203293,-0.25793 -0.469365,-0.46266 -0.797483,-0.6151 -0.328569,-0.15242 -0.666948,-0.22887 -1.016084,-0.22887 -0.324085,0 -0.62851,0.0604 -0.913251,0.18065 -0.284309,0.12033 -0.530614,0.28341 -0.738478,0.4895 -0.207822,0.20609 -0.371924,0.45193 -0.492175,0.73714 -0.12073,0.28565 -0.181091,0.59184 -0.181091,0.91816 0,0.32632 0.05951,0.63121 0.177857,0.91462 0.118355,0.28339 0.281162,0.52793 0.489028,0.73402 0.207821,0.20608 0.45419,0.36922 0.738478,0.48946 0.284762,0.12032 0.591408,0.18068 0.919525,0.18068 z m 11.95425,-3.74871 v 3.68434 h -0.903894 v -3.68434 h -1.470684 v -0.82432 h 3.839463 v 0.82432 z m 10.352537,3.68434 v -4.50866 h -0.903873 v 4.50866 z m 11.318563,-0.10957 c -0.282501,0.12032 -0.586039,0.18024 -0.910127,0.18024 -0.31962,0 -0.620898,-0.06 -0.903419,-0.18024 -0.282521,-0.12032 -0.527034,-0.28473 -0.73268,-0.49306 -0.205665,-0.20824 -0.368775,-0.45507 -0.489026,-0.7407 -0.120717,-0.2852 -0.180658,-0.58918 -0.180658,-0.91104 0,-0.32231 0.05994,-0.62582 0.180658,-0.91147 0.120296,-0.28564 0.283404,-0.53239 0.489026,-0.74072 0.205667,-0.20824 0.450159,-0.37237 0.73268,-0.49261 0.282521,-0.12032 0.583799,-0.18065 0.903419,-0.18065 0.324088,0 0.627626,0.0604 0.910127,0.18065 0.282521,0.12033 0.526603,0.2843 0.732227,0.49261 0.205665,0.20826 0.368797,0.45508 0.489501,0.74072 0.120285,0.28565 0.180659,0.58916 0.180659,0.91147 0,0.32186 -0.06037,0.62584 -0.180659,0.91104 -0.120728,0.28563 -0.283857,0.53239 -0.489501,0.7407 -0.205667,0.20826 -0.449706,0.37282 -0.732227,0.49306 z m -0.910127,-0.67631 c -0.195315,0 -0.376837,-0.0376 -0.545358,-0.11266 -0.168153,-0.0754 -0.31337,-0.17828 -0.436296,-0.30935 -0.122447,-0.13106 -0.219033,-0.28654 -0.289656,-0.46712 -0.0707,-0.18023 -0.105855,-0.37328 -0.105855,-0.57935 0,-0.21062 0.03535,-0.40501 0.105855,-0.5829 0.07071,-0.1783 0.167292,-0.33304 0.289656,-0.46402 0.122882,-0.13107 0.268206,-0.23378 0.436296,-0.3089 0.168586,-0.0755 0.350021,-0.11327 0.545358,-0.11327 0.195319,0 0.378177,0.0375 0.548509,0.11327 0.17031,0.0749 0.316926,0.17786 0.439399,0.3089 0.122448,0.13088 0.219507,0.28564 0.290133,0.46402 0.07071,0.17784 0.105855,0.37234 0.105855,0.5829 0,0.20609 -0.03535,0.3992 -0.105855,0.57935 -0.0707,0.18065 -0.167725,0.33614 -0.290133,0.46712 -0.122448,0.1309 -0.269089,0.23379 -0.439399,0.30935 -0.170312,0.075 -0.353167,0.11266 -0.548509,0.11266 z m 11.262706,-2.22888 v 3.01471 h -0.853815 v -4.50865 h 0.860068 l 2.168955,2.91771 v -2.91771 h 0.847541 v 4.50865 h -0.797936 z"
       id="path40"
       inkscape:connector-curvature="0"
       style="clip-rule:evenodd;fill:#ffffff;fill-rule:evenodd;stroke-width:0.44702089" />
  </g>
</svg>
