<?xml version="1.0" encoding="UTF-8" standalone="no"?>
<svg
   enable-background="new 0 0 559.249 81.18"
   viewBox="0 0 499.99998 200"
   version="1.1"
   id="svg49"
   sodipodi:docname="tutor.svg"
   width="500"
   height="200"
   inkscape:version="1.2.2 (b0a8486541, 2022-12-01)"
   xml:space="preserve"
   xmlns:inkscape="http://www.inkscape.org/namespaces/inkscape"
   xmlns:sodipodi="http://sodipodi.sourceforge.net/DTD/sodipodi-0.dtd"
   xmlns="http://www.w3.org/2000/svg"
   xmlns:svg="http://www.w3.org/2000/svg"><defs
     id="defs53"><rect
       x="83.638153"
       y="41.480737"
       width="337.56025"
       height="138.51746"
       id="rect1219" /></defs><sodipodi:namedview
     id="namedview51"
     pagecolor="#505050"
     bordercolor="#ffffff"
     borderopacity="1"
     inkscape:showpageshadow="0"
     inkscape:pageopacity="0"
     inkscape:pagecheckerboard="1"
     inkscape:deskcolor="#505050"
     showgrid="false"
     showguides="true"
     inkscape:zoom="1.2007174"
     inkscape:cx="179.89246"
     inkscape:cy="158.65516"
     inkscape:window-width="1670"
     inkscape:window-height="910"
     inkscape:window-x="0"
     inkscape:window-y="0"
     inkscape:window-maximized="1"
     inkscape:current-layer="svg49" /><linearGradient
     id="a"
     gradientUnits="userSpaceOnUse"
     x1="102.2983"
     x2="355.62921"
     y1="38.639503"
     y2="38.639503"
     gradientTransform="matrix(1.0993119,0,0,1.0993119,-2.5457669,61.730504)"><stop
       offset="0"
       stop-color="#f50019"
       id="stop2" /><stop
       offset=".2761"
       stop-color="#f66d19"
       id="stop4" /><stop
       offset=".4785"
       stop-color="#fbfa35"
       id="stop6" /><stop
       offset=".681"
       stop-color="#74b719"
       id="stop8" /><stop
       offset=".7914"
       stop-color="#17710a"
       id="stop10" /><stop
       offset=".8834"
       stop-color="#226887"
       id="stop12" /><stop
       offset="1"
       stop-color="#3262d9"
       id="stop14" /></linearGradient><g
     id="g6054"
     transform="matrix(0.38778382,0,0,0.38778382,111.48515,64.127964)"><path
       style="fill:#fa2a0c"
       d="M 45.11957,-12.83085 C 29.11224,-17.01768 17.03281,-28.56819 10.57574,-45.8621 c -1.94454,-5.20803 -2.13398,-7.19589 -1.66768,-17.5 0.56358,-12.45383 1.34994,-15.37101 6.59575,-24.46818 6.82727,-11.83972 17.29015,-19.45129 31.7601,-23.10494 7.81236,-1.97261 13.59175,-1.96195 21.4041,0.0395 9.40083,2.40838 13.85382,4.62947 20.61222,10.2811 7.05903,5.90303 12.52047,13.58935 15.54608,21.87925 2.92855,8.02397 3.09712,24.27997 0.33959,32.74873 -4.71804,14.48981 -16.25987,26.70289 -30.04633,31.79377 -6.51321,2.40511 -23.12807,3.15945 -30,1.36204 z m 22.28984,-28.56423 c 7.99188,-4.11083 12.21016,-11.06892 12.21016,-20.14079 0,-10.64378 -5.81312,-18.67776 -15.56612,-21.51304 -6.99928,-2.03474 -12.02059,-1.23339 -18.19882,2.90435 -11.27228,7.54937 -13.40762,24.62471 -4.22869,33.81487 6.82891,6.83727 17.94754,8.96522 25.78347,4.93461 z m -104.032735,26.38934 c -6.257164,-4.25186 -6.225072,-4.07174 -6.587329,-36.97148 -0.236592,-21.48698 -0.661905,-30.20156 -1.5,-30.73469 -0.643377,-0.40927 -3.554623,-0.75102 -6.469436,-0.75944 -9.751445,-0.02817 -15.20034,-5.02325 -15.20034,-13.93437 0,-4.42438 0.459473,-5.61168 3.423161,-8.84563 l 3.42316,-3.73531 H -27.38043 4.77325 l 3.42316,3.73531 c 3.0558,3.33446 3.42316,4.34375 3.42316,9.40484 0,5.29508 -0.25911,5.916 -3.92313,9.4015 -3.69892,3.5187 -4.3523,3.75366 -11.4327,4.1112 -4.13026,0.20857 -7.8225,0.69215 -8.20497,1.07462 -0.38248,0.38247 -0.75026,13.87526 -0.8173,29.98397 -0.1089,26.16389 -0.31378,29.64001 -1.92045,32.58278 -4.01016,7.34501 -14.67906,9.62359 -21.944345,4.6867 z m 151.478205,-0.91309 -3.73531,-3.43217 0.24097,-9.81783 c 0.13254,-5.39981 0.68818,-12.74283 1.23477,-16.31783 0.54659,-3.575 1.45701,-12.125 2.02317,-19 2.55127,-30.98111 3.57537,-37.91794 5.97504,-40.47227 4.59996,-4.89644 12.4172,-6.85031 18.363,-4.58972 2.42688,0.9227 7.66305,5.87131 7.66305,7.24221 0,0.38536 2.18431,5.33996 4.85402,11.01022 2.66971,5.67026 6.05789,12.89706 7.52929,16.05956 1.53418,3.29741 3.32234,5.75 4.19229,5.75 0.93073,0 3.0879,-3.38159 5.58175,-8.75 2.23561,-4.8125 5.58977,-12.02237 7.4537,-16.02193 1.86392,-3.99957 3.38895,-7.62788 3.38895,-8.06291 0,-1.07999 5.00295,-5.66542 7.68426,-7.04297 5.25368,-2.69914 16.17356,0.17858 19.20603,5.06136 1.51066,2.43241 3.51772,17.08653 5.04247,36.81645 0.53131,6.875 1.45188,15.65 2.04572,19.5 0.59384,3.85 1.17911,11.86686 1.30061,17.81524 l 0.22091,10.81524 -3.73531,3.43476 c -3.24537,2.98424 -4.41038,3.43476 -8.88193,3.43476 -4.58477,0 -5.50635,-0.38144 -8.44199,-3.49413 -2.63982,-2.79902 -3.4318,-4.63917 -3.98108,-9.25 -0.69246,-5.81264 -3.05454,-16.18405 -3.87211,-17.00162 -0.46336,-0.46336 -8.81051,16.60238 -10.01709,20.4799 -0.38236,1.22878 -2.68893,3.86785 -5.12571,5.86461 -4.15706,3.4064 -4.72403,3.58645 -9.18623,2.9173 -3.7453,-0.56164 -5.55276,-1.55102 -8.50714,-4.65672 -2.06327,-2.16895 -3.75141,-4.76951 -3.75141,-5.779 0,-1.0095 -0.675,-2.39565 -1.5,-3.08034 -0.825,-0.68469 -1.5,-1.85249 -1.5,-2.59511 0,-1.67046 -4.95437,-12.25865 -6.054,-12.93826 -1.05491,-0.65197 -2.15508,3.98674 -4.44802,18.75446 -0.355,2.28643 -1.86094,5.08167 -3.90595,7.25 -2.97112,3.15031 -3.88034,3.52891 -8.47479,3.52891 -4.47025,0 -5.6375,-0.45105 -8.88193,-3.43217 z m 135.76469,2.78536 c -11.66696,-3.80278 -12,-4.66157 -12,-30.94327 V -64.86456 L 227.15178,-75.9764 c -7.1758,-6.95307 -12.07384,-12.56232 -13.0871,-14.98739 -3.24954,-7.77724 0.62506,-17.07081 8.1528,-19.55518 6.71205,-2.21518 9.85732,-0.69946 20.98481,10.11268 5.61491,5.4558 10.74551,9.91963 11.40131,9.91963 0.65581,0 5.37124,-4.3875 10.47874,-9.75 l 9.28636,-9.75 h 6.1062 c 5.51886,0 6.40988,0.30368 9.2633,3.1571 3.72861,3.7286 5.05854,11.27076 2.74383,15.56053 -0.74935,1.38876 -6.08291,7.53673 -11.85235,13.66217 -5.76944,6.12544 -10.80031,11.92084 -11.17971,12.87868 -0.37941,0.95784 -0.72146,11.06336 -0.76011,22.45672 l -0.0703,20.71521 -3.08227,3.5105 c -3.79299,4.31998 -10.2309,6.43993 -14.91773,4.91228 z m 30.5,-2.35319 c -0.99549,-1.1 -1.49641,-2 -1.11317,-2 0.38324,0 1.66283,0.9 2.84354,2 1.18072,1.1 1.68164,2 1.11318,2 -0.56847,0 -1.84806,-0.9 -2.84355,-2 z m 9.40711,0.61192 c 0.87062,-1.04903 0.86132,-2.02605 -0.0381,-4 -1.35643,-2.97704 -2.3875,-3.30918 -3.25499,-1.04854 -0.95083,2.47784 -2.61405,0.63275 -2.61405,-2.89989 0,-1.77016 -0.67694,-4.18495 -1.50432,-5.36619 -1.49625,-2.1362 -1.46813,-2.14707 5.25,-2.02896 3.71488,0.0653 5.74182,0.28796 4.50432,0.49476 -2.35849,0.39413 -2.94892,1.68691 -1.25,2.7369 0.55,0.33992 1,2.61648 1,5.05902 0,3.11446 0.41321,4.44098 1.38337,4.44098 1.77433,0 2.67571,-3.45462 1.90579,-7.30418 -0.42715,-2.13577 -0.26645,-2.79982 0.55474,-2.29229 3.48995,2.1569 -0.84678,13.59647 -5.1544,13.59647 -1.53675,0 -1.69758,-0.28534 -0.78239,-1.38808 z m -0.90711,-10.11192 c 0,-0.825 -0.42344,-1.5 -0.94098,-1.5 -1.26098,0 -2.1641,1.56159 -1.36517,2.36052 1.12619,1.12618 2.30615,0.68589 2.30615,-0.86052 z"
       id="path6058" /><path
       style="fill:#0548c8"
       d="M 32.71952,299.92245 C 16.03603,296.51718 1.2269,286.24953 -8.25522,271.51334 c -11.99401,-18.63993 -15.46081,-32.33759 -15.43874,-61 0.0141,-18.37082 1.27474,-28.84432 4.75426,-39.5 0.71839,-2.2 1.84057,-5.8 2.49373,-8 2.60858,-8.78627 9.70217,-25.82214 14.35895,-34.48424 9.41133,-17.50602 9.87473,-16.37556 -6.9752,-17.01576 -7.23795,-0.275 -13.53302,-0.87396 -13.98906,-1.33103 -1.31255,-1.31554 -1.63379,-40.23123 -0.35186,-42.62653 1.07074,-2.0007 1.85746,-2.04244 38.49888,-2.04244 28.82649,0 37.59135,0.2867 38.21481,1.25 0.44496,0.6875 0.93835,11.375 1.09641,23.75 l 0.2874,22.5 -6.499,8 c -3.57445,4.4 -6.51627,8.2661 -6.53739,8.59133 -0.0211,0.32523 -2.52573,4.37523 -5.56581,9 -7.08927,10.78467 -15.15883,27.35093 -17.49141,35.90867 -0.67461,2.475 -1.90772,6.71337 -2.74024,9.41859 -2.263,7.35351 -2.11788,33.17962 0.21839,38.86581 5.91159,14.38801 9.37934,18.84312 17.9235,23.02679 7.78866,3.81373 18.42666,3.83252 25.8995,0.0457 10.72647,-5.43551 19.79271,-18.12463 23.11868,-32.35693 5.84358,-25.00546 2.39284,-64.87318 -8.39651,-97.00837 -2.66994,-7.95216 -6.00866,-16.05019 -7.33157,-17.78259 -0.54219,-0.71003 -2.03509,-3.55573 -3.31755,-6.32378 L 61.64321,87.36573 74.38139,74.83842 C 88.44547,61.00715 90.9132,59.02826 93.06667,59.85463 c 0.8044,0.30867 2.38758,2.27065 3.51819,4.35995 2.36185,4.36455 2.97397,5.3697 8.85993,14.54872 3.88378,6.05668 6.05242,8.14166 6.24072,6 0.0363,-0.4125 0.20402,-4.35 0.37278,-8.75 0.51759,-13.49479 4.77765,-22.98938 12.4503,-27.74851 5.55574,-3.44607 14.55132,-3.17848 19.47818,0.57942 8.26022,6.30038 12.10874,16.21922 11.4221,29.43834 -0.37962,7.30826 -0.94359,9.62686 -3.46144,14.23075 -1.79471,3.28161 -4.70464,6.69883 -7.21452,8.47222 -3.75273,2.65155 -5.00743,2.97222 -11.62943,2.97222 -5.83944,0 -7.49715,0.3259 -7.77112,1.52778 -0.57904,2.54011 14.99101,19.7896 27.26821,30.20945 l 5.48099,4.65181 -1.34609,3.83326 c -1.49276,4.25093 -3.03603,7.85642 -7.26639,16.97623 -1.56723,3.37863 -2.84951,6.48521 -2.84951,6.90351 0,0.80075 -3.97148,9.69067 -6.79201,15.20352 -2.7995,5.47174 -3.70663,4.85369 -15.45272,-10.52835 -9.83605,-12.88076 -10.71582,-12.19112 -6.73347,5.27835 1.95304,8.56741 2.27959,12.79355 2.27947,29.5 -1.2e-4,16.94151 -0.292,20.61524 -2.2246,28 -1.22346,4.675 -2.56919,9.85328 -2.99052,11.50728 -0.42132,1.65401 -1.2131,3.90401 -1.75949,5 -0.5464,1.096 -2.98092,5.97433 -5.41005,10.84075 -6.71749,13.4575 -19.00716,25.82273 -31.41661,31.60973 -12.42884,5.79606 -30.55601,8.07295 -43.40005,5.45135 z m 106.364,-217.14124 c 3.86719,-5.69108 3.25317,-13.55075 -1.42402,-18.22794 -6.04324,-6.04324 -12.18847,2.32735 -10.08622,13.73875 1.60068,8.68881 7.17832,10.86418 11.51024,4.48919 z M 247.4529,296.60257 c -0.18333,-0.50093 -5.348,-6.06876 -11.47705,-12.37298 -6.12904,-6.30421 -11.94116,-12.67925 -12.91581,-14.16676 l -1.77209,-2.70455 8.24547,-7.62618 c 7.84919,-7.25965 11.08615,-11.48441 11.08615,-14.4692 0,-0.74236 -2.19671,-4.07584 -4.88157,-7.40772 -5.38591,-6.68385 -12.51183,-19.30351 -13.53782,-23.97483 -0.75355,-3.43087 -0.0467,-4.52121 10.77238,-16.61701 3.81259,-4.2625 7.46708,-7.75 8.12108,-7.75 0.65401,0 2.60723,2.18854 4.3405,4.86343 4.252,6.56195 5.39856,7.43243 7.63537,5.79683 1.49923,-1.09626 1.88731,-3.4609 2.41796,-14.73305 0.34765,-7.38497 0.4071,-15.45221 0.1321,-17.92721 -0.4677,-4.20934 -0.70697,-4.52002 -3.70432,-4.80995 -2.30323,-0.22279 -4.69352,0.65107 -8.5,3.1075 -10.72203,6.91922 -19.65296,19.5588 -24.44181,34.5915 -2.09538,6.57761 -2.35387,9.28383 -2.35387,24.64301 0,14.81087 -0.22398,17.33991 -1.58179,17.86095 -0.86998,0.33385 -9.19498,0.60699 -18.5,0.60699 h -16.91821 v -65.8 c 0,-49.84444 0.29098,-66.09098 1.2,-67 1.36705,-1.36705 32.34036,-1.75273 33.16835,-0.41301 0.26751,0.43284 0.81007,8.98709 1.20568,19.00944 0.84541,21.41761 1.70845,23.95512 6.19123,18.20357 6.30714,-8.09227 15.22822,-16.54037 22.42728,-21.23823 4.23089,-2.76094 7.92963,-5.63775 8.21941,-6.3929 0.28978,-0.75516 0.0853,-3.50958 -0.45441,-6.12094 -2.6935,-13.03249 -3.13282,-17.33181 -1.92029,-18.79281 1.6752,-2.0185 32.65712,-2.1303 35.3958,-0.12774 1.35796,0.99297 2.03142,3.44934 2.67314,9.75 1.31171,12.87889 2.04876,15.17296 5.43126,16.9048 20.5703,10.53201 29.85923,23.14556 35.97385,48.8493 1.38925,5.83991 1.6335,10.01056 1.20057,20.5 -0.89231,21.61969 -5.97125,36.52081 -16.84432,49.41966 -4.62695,5.489 -15.60766,12.05353 -24.79725,14.82439 -4.71366,1.42126 -9.13955,2.76167 -9.83531,2.97867 -0.69575,0.217 -1.73618,1.63383 -2.31206,3.14851 -3.48689,9.17122 -12.25034,22.36714 -21.2827,32.04729 -3.72197,3.9889 -7.04839,5.4117 -7.8069,3.33923 z m 46.87583,-89.59807 c 1.1848,-0.82987 3.58981,-4.01807 5.34448,-7.08491 6.00123,-10.48905 4.80816,-25.27092 -2.62083,-32.47137 -4.96964,-4.81677 -6.11478,-3.24213 -6.80717,9.36025 -1.73647,31.60608 -1.73597,31.70487 0.16137,31.70487 0.97239,0 2.73736,-0.67898 3.92215,-1.50884 z m 107.69531,87.78757 c -0.95653,-0.67993 -6.57337,-8.88788 -10.11334,-14.77873 -0.66102,-1.1 -5.72194,-9.28063 -11.24649,-18.17918 -8.39941,-13.52917 -11.30381,-19.59748 -9.79464,-20.46443 0.1375,-0.079 8.575,-0.49554 18.75,-0.92566 27.12714,-1.14674 37.48997,-2.72986 50.6929,-7.7443 15.36166,-5.83432 29.45818,-19.47991 32.92635,-31.87307 2.589,-9.25151 2.72604,-12.08603 0.86962,-17.98804 -1.92038,-6.10541 -6.00387,-11.37595 -11.44657,-14.77408 -3.57738,-2.23352 -14.67501,-4.55124 -21.79208,-4.55124 -8.17609,0 -42.97559,7.89474 -50.90135,11.54767 -1.73312,0.79878 -3.67349,1.45233 -4.31192,1.45233 -1.12019,0 -7.07483,2.58027 -17.53695,7.59912 -9.46459,4.54031 -9.55256,4.48367 -12.57894,-8.09912 -1.45513,-6.05 -3.17142,-13.475 -3.81399,-16.5 -0.64257,-3.025 -1.63684,-7.70313 -2.20949,-10.39585 -1.9629,-9.22992 -0.75861,-10.32283 17.60242,-15.97434 4.95,-1.52361 10.35,-3.24006 12,-3.81435 1.65,-0.57429 4.35,-1.22839 6,-1.45356 1.65,-0.22517 6.375,-1.04778 10.5,-1.82801 16.24426,-3.07257 21.41102,-3.53405 39.6153,-3.53834 17.64132,-0.004 19.44435,0.1703 27.3847,2.64972 4.675,1.45979 9.175,3.17478 10,3.81108 0.825,0.63631 2.75397,1.6918 4.2866,2.34552 4.34583,1.85368 12.84423,8.63581 16.8596,13.45477 9.06038,10.87364 13.91451,22.64137 16.28758,39.48551 1.43896,10.21379 1.44118,12.18047 0.0243,21.5 -1.55942,10.25726 -3.97758,19.41873 -5.5978,21.20785 -0.47317,0.5225 -0.86031,1.7049 -0.86031,2.62756 0,0.92265 -0.675,2.23775 -1.5,2.92244 -0.825,0.68469 -1.5,1.84883 -1.5,2.58698 0,3.20284 -9.84862,17.12587 -17.82912,25.20508 -11.97193,12.12 -16.3493,15.22229 -32.17088,22.79981 -4.125,1.97561 -8.27229,3.99496 -9.21621,4.48745 -0.94391,0.49248 -3.41891,1.32142 -5.5,1.8421 -2.08108,0.52067 -7.15879,1.82651 -11.28379,2.90186 -8.6427,2.25307 -20.99225,3.5951 -22.59553,2.45545 z m 143.06083,-7.02873 c -0.96942,-2.0625 -3.2707,-6.12124 -5.11394,-9.01942 -1.84325,-2.89818 -3.35136,-5.46774 -3.35136,-5.71013 0,-0.24239 -3.15,-6.13318 -7,-13.09063 -3.85,-6.95745 -7,-13.18456 -7,-13.83802 0,-0.65346 4.6125,-4.5174 10.25,-8.58653 20.89432,-15.08147 31.03268,-26.34441 40.0615,-44.50527 6.5483,-13.17145 10.40626,-28.073 12.17478,-47.02567 0.92032,-9.86271 2.60998,-9.33971 -31.27375,-9.68011 -24.71773,-0.24831 -29.43707,-0.52827 -30.24624,-1.79422 -0.55193,-0.8635 -0.85428,-9.98665 -0.71253,-21.5 l 0.24624,-20 32,-0.5 32,-0.5 0.26785,-23.64555 0.26785,-23.64555 15.32571,-0.71827 c 8.42915,-0.39504 16.74611,-0.40629 18.48215,-0.025 l 3.15644,0.69327 v 21.34912 c 0,18.07495 0.241,21.59011 1.57143,22.92054 1.36464,1.36464 5.88418,1.57143 34.34501,1.57143 32.03443,0 32.81655,0.0474 34.67857,2.1023 1.70762,1.88449 1.9374,4.08279 2.2178,21.21749 0.28284,17.28419 0.1448,19.23804 -1.44113,20.3977 -1.32662,0.97006 -8.4825,1.28252 -29.37168,1.28252 -33.01206,0 -32.07662,-0.27511 -30.18613,8.8777 1.4284,6.91564 4.93559,17.7857 8.60646,26.67457 2.41657,5.85161 7.37542,15.4242 8.52036,16.44773 0.30762,0.275 1.4368,2.075 2.50929,4 1.07249,1.925 2.30629,3.95 2.74178,4.5 0.43549,0.55 3.56405,4.825 6.95235,9.5 8.15321,11.24936 20.33229,23.14052 31.10693,30.37157 4.81193,3.22937 8.74896,6.27298 8.74896,6.76357 0,0.4906 -0.4057,1.67339 -0.90155,2.62843 -0.49584,0.95504 -4.77577,9.51567 -9.51093,19.02363 -8.91305,17.89693 -13.07813,25.2128 -14.35417,25.2128 -0.84088,0 -10.93758,-9.66405 -16.27422,-15.57685 -4.03521,-4.47087 -14.95913,-19.09018 -14.95913,-20.01958 0,-0.33867 -1.34559,-2.3147 -2.99019,-4.39118 -2.95873,-3.73571 -13.84112,-24.3206 -17.4523,-33.01239 -1.02829,-2.475 -2.92439,-6.83463 -4.21356,-9.68807 -1.28917,-2.85345 -2.34395,-5.91329 -2.34395,-6.79966 0,-0.88638 -0.59076,-2.82674 -1.3128,-4.31193 -0.72203,-1.48519 -2.13859,-6.07534 -3.1479,-10.20034 -3.24954,-13.28067 -5.48766,-13.4929 -7.90955,-0.75 -1.92659,10.13686 -4.06472,17.53084 -7.57869,26.20826 -0.65888,1.62704 -2.12039,5.67704 -3.2478,9 -1.12741,3.32296 -2.44436,6.46924 -2.92655,6.99174 -0.48219,0.5225 -0.87671,1.985 -0.87671,3.25 0,3.97837 6.00119,2.60127 14.47251,-3.32102 3.52134,-2.46177 5.25406,-1.59071 8.95509,4.50183 1.96482,3.23445 3.5724,6.16839 3.5724,6.51987 0,0.35149 1.0808,2.35116 2.40177,4.44372 4.56493,7.23131 11.59823,21.24793 11.59823,23.11403 0,1.91474 -18.74434,22.29919 -22.21108,24.15454 -2.25635,1.20756 -4.04984,0.0408 -6.09979,-3.96819 -1.73295,-3.38909 -12.55366,-23.16885 -13.75568,-25.14478 -0.50188,-0.825 -1.81869,-3.17245 -2.92624,-5.21656 -1.10756,-2.04411 -2.89612,-4.18881 -3.97459,-4.76598 -2.10838,-1.12837 -3.53482,0.40063 -13.94116,14.94354 -5.10517,7.13451 -23.67286,26.039 -25.57508,26.039 -0.70867,0 -2.08166,-1.6875 -3.05108,-3.75 z M 381.43267,108.35727 c -1.46221,-1.16491 -1.72861,-4.02887 -2,-21.50047 -0.17221,-11.0861 0.0615,-20.5361 0.51937,-21 1.19775,-1.21355 92.80684,-1.58879 94.66753,-0.38777 1.23397,0.7965 1.5549,4.54688 1.80958,21.14668 0.17027,11.09816 -0.0547,20.52373 -0.5,20.94571 -0.44527,0.42197 -21.50958,1.07605 -46.80958,1.4535 -37.79246,0.56383 -46.30099,0.44649 -47.6869,-0.65765 z m 223.6869,-120.80384 c -11.373,-1.54291 -24.73939,-10.52475 -32.02385,-21.51915 -5.63648,-8.5071 -7.74888,-15.60929 -7.74888,-26.05287 0,-10.09501 0.98857,-13.72008 7.35425,-26.96807 4.75804,-9.90223 5.99516,-11.40243 13.10276,-15.88914 21.84215,-13.78798 45.15654,-11.69145 63.13413,5.67729 10.96299,10.59171 15.45337,23.02014 14.34786,39.71185 -0.86217,13.01739 -6.14583,24.02996 -15.87769,33.09337 -11.16395,10.39713 -24.96717,14.2966 -42.28858,11.94672 z m 19.38452,-28.98118 c 7.32868,-3.73881 12.11353,-11.47393 12.0989,-19.55891 -0.0139,-7.68948 -1.26221,-10.83064 -6.39474,-16.09149 -7.10726,-7.28495 -14.4987,-9.11564 -23.69878,-5.86966 -8.9814,3.16882 -14.18402,11.04065 -14.18402,21.46115 0,9.54853 3.81883,16.13391 11.79412,20.33837 4.41112,2.32548 15.57851,2.17238 20.38452,-0.27946 z m -259.55656,27.00292 c -7.76383,-3.52503 -7.76338,-3.523 -8.32796,-38.01504 l -0.5,-30.54679 -7,-0.51334 c -7.88678,-0.57838 -10.44893,-1.70183 -13.43046,-5.889 -2.80356,-3.93723 -2.79908,-11.26438 0.009,-15.20838 4.05773,-5.69856 5.21534,-5.88928 35.7465,-5.88928 15.35856,0 29.37526,0.29012 31.14822,0.64471 4.75513,0.95103 9.02644,7.24316 9.02644,13.29699 0,3.91325 -0.53827,5.21229 -3.43014,8.27821 -3.48998,3.70004 -5.64975,4.37653 -16.05823,5.02978 -3.81074,0.23916 -4.01973,0.42847 -4.69237,4.25031 -0.3872,2.2 -0.72993,15.57223 -0.76163,29.71607 -0.0663,29.58561 -0.39607,31.10017 -7.54932,34.67268 -5.1917,2.59286 -8.75503,2.63635 -14.18035,0.17308 z m 70.55863,-0.29957 c -10.31484,-3.52842 -15.68101,-9.17494 -18.93593,-19.92522 -1.58223,-5.22574 -1.85944,-10.27038 -2.03957,-37.11495 l -0.20846,-31.0672 3.10952,-2.77836 c 5.94619,-5.31292 14.43198,-5.68714 21.11136,-0.931 1.69207,1.20486 3.15288,2.27252 3.24624,2.37256 0.0934,0.10005 0.43086,13.60644 0.75,30.0142 0.65907,33.88482 0.32077,32.66771 9.08025,32.66771 8.79249,0 8.46962,1.19093 8.72123,-32.16858 l 0.22122,-29.33142 3.54755,-3.1222 c 3.95643,-3.48207 8.53061,-4.6136 13.82407,-3.41973 4.66643,1.05245 9.53889,4.60788 10.26175,7.488 0.31933,1.27231 0.4295,15.97993 0.24483,32.68361 -0.32606,29.4923 -0.40516,30.52933 -2.73605,35.87032 -1.32015,3.025 -4.24175,7.44859 -6.49244,9.83021 -7.21495,7.63465 -13.60616,10.17285 -27.09216,10.75939 -8.51202,0.3702 -10.98406,0.0983 -16.61341,-1.82734 z m 90.59308,1.38806 c -2.84881,-0.917 -5.79521,-3.23583 -7.77991,-6.12283 -1.50564,-2.19013 -1.69976,-5.85043 -1.69976,-32.05 0,-21.67138 -0.32076,-29.89825 -1.2,-30.77749 -0.66,-0.66 -3.60293,-1.2 -6.53984,-1.2 -12.79456,0 -20.33818,-10.80025 -14.37448,-20.58004 3.8001,-6.23172 5.72499,-6.5369 39.18233,-6.21208 l 30.08825,0.29212 3.42187,3.73531 c 2.96214,3.23347 3.42187,4.4219 3.42187,8.84563 0,9.28821 -5.60446,13.91906 -16.84544,13.91906 -3.70442,0 -6.32255,0.49749 -7.01611,1.33317 -0.76051,0.91636 -1.05804,10.3739 -0.95167,30.25 0.13757,25.70502 -0.0382,29.28654 -1.58233,32.24541 -2.79226,5.35049 -11.59917,8.42225 -18.12478,6.32174 z m 152.01253,-0.96019 c -7.69618,-3.60147 -7.66652,-3.40774 -7.308,-47.73595 0.3588,-44.36227 0.0917,-42.92001 8.63024,-46.5998 4.34733,-1.87353 6.30972,-1.98989 27.18556,-1.61197 l 22.5,0.40733 6.05795,3.07438 c 11.47143,5.8217 16.44205,14.21867 16.44205,27.77588 0,10.55495 -2.05631,15.61072 -9.54065,23.45727 l -5.55415,5.82295 6.16409,12.62106 c 5.75551,11.78448 6.08148,12.82052 4.9177,15.63014 -2.6309,6.35153 -9.97465,9.94388 -17.45808,8.53998 -4.1746,-0.78316 -10.52891,-6.47423 -10.52891,-9.42994 0,-2.21107 -2.724,-9.07387 -7,-17.63571 l -2.5,-5.00575 h -5.5 -5.5 v 12 c 0,7.91479 -0.43563,12.76245 -1.27964,14.23965 -2.98247,5.21995 -13.17181,7.51857 -19.72816,4.45048 z m 40.54053,-51.70706 c 5.48649,-2.83717 7.42403,-10.06079 4.54605,-16.94877 -2.37953,-5.69502 -9.30505,-7.90766 -17.85713,-5.70519 -6.28605,1.61888 -6.72165,2.41188 -6.72165,12.23663 0,7.9816 0.21146,8.96896 2.22251,10.37756 2.9348,2.05561 13.86482,2.08002 17.81022,0.0398 z"
       id="path6056" /></g></svg>
