<?xml version="1.0" encoding="UTF-8" standalone="no"?>
<svg
   xmlns:dc="http://purl.org/dc/elements/1.1/"
   xmlns:cc="http://creativecommons.org/ns#"
   xmlns:rdf="http://www.w3.org/1999/02/22-rdf-syntax-ns#"
   xmlns:svg="http://www.w3.org/2000/svg"
   xmlns="http://www.w3.org/2000/svg"
   xmlns:sodipodi="http://sodipodi.sourceforge.net/DTD/sodipodi-0.dtd"
   xmlns:inkscape="http://www.inkscape.org/namespaces/inkscape"
   width="500"
   height="200"
   viewBox="0 0 500 200"
   version="1.1"
   id="svg52"
   sodipodi:docname="virtualboy.svg"
   inkscape:version="0.92.5 (2060ec1f9f, 2020-04-08)"
   style="fill:none">
  <metadata
     id="metadata58">
    <rdf:RDF>
      <cc:Work
         rdf:about="">
        <dc:format>image/svg+xml</dc:format>
        <dc:type
           rdf:resource="http://purl.org/dc/dcmitype/StillImage" />
        <dc:title></dc:title>
      </cc:Work>
    </rdf:RDF>
  </metadata>
  <defs
     id="defs56" />
  <sodipodi:namedview
     pagecolor="#ffffff"
     bordercolor="#666666"
     borderopacity="1"
     objecttolerance="10"
     gridtolerance="10"
     guidetolerance="10"
     inkscape:pageopacity="0"
     inkscape:pageshadow="2"
     inkscape:window-width="1366"
     inkscape:window-height="740"
     id="namedview54"
     showgrid="false"
     inkscape:zoom="0.97773329"
     inkscape:cx="298.08434"
     inkscape:cy="44.425008"
     inkscape:window-x="0"
     inkscape:window-y="0"
     inkscape:window-maximized="1"
     inkscape:current-layer="svg52"
     inkscape:pagecheckerboard="true" />
  <path
     d="m 61.986163,43.783387 c -15.69912,-0.0046 -26.18908,-9.669382 -26.18908,-21.387703 0,-11.718322 10.513923,-21.49396544 26.165118,-21.46393644 H 209.86454 c 15.65079,-0.030032 26.16479,9.74561444 26.16479,21.46393644 0,11.718321 -10.48947,21.383084 -26.1885,21.387703 z"
     id="path2"
     inkscape:connector-curvature="0"
     style="fill:#e60012;stroke-width:0.76225138" />
  <path
     d="M 62.034006,6.2029979 C 49.605547,6.2237858 41.976719,13.440022 41.976719,22.367905 c 0,8.92561 7.580985,16.201907 20.057287,16.162619 H 209.79257 c 12.47597,0.03702 20.0597,-7.237009 20.0597,-16.162619 0,-8.925538 -7.6287,-16.1418103 -20.05724,-16.1626052 z"
     id="path4"
     inkscape:connector-curvature="0"
     style="fill:#ffffff;stroke-width:0.76225138" />
  <path
     d="m 214.07881,15.498128 c 0,-1.713964 1.60049,-3.104529 3.57391,-3.104529 1.97261,0 3.57392,1.390565 3.57392,3.104529 0,1.713963 -1.60131,3.104599 -3.57392,3.104599 -1.97342,0 -3.57391,-1.390636 -3.57391,-3.104599 z m 3.57391,2.513221 c 1.59558,0 2.89021,-1.124929 2.89021,-2.510948 0,-1.388221 -1.29463,-2.510876 -2.89021,-2.510876 -1.59558,0 -2.89021,1.124929 -2.89021,2.510876 0,1.386019 1.29463,2.510948 2.89021,2.510948 z"
     id="path6"
     inkscape:connector-curvature="0"
     style="clip-rule:evenodd;fill:#e60012;fill-rule:evenodd;stroke-width:0.76225138" />
  <path
     d="m 219.4315,14.728993 c 0,-0.658374 -0.56103,-0.991007 -1.69046,-0.991007 h -1.55305 v 3.439506 h 0.96504 v -1.409038 h 0.47025 l 0.75813,1.409038 h 1.07135 l -0.88489,-1.536067 c 0.53977,-0.117863 0.86363,-0.459732 0.86363,-0.912432 z m -1.80822,0.535894 h -0.47025 v -1.000174 h 0.42281 c 0.57985,0 0.86445,0.154737 0.86445,0.512805 0,0.341868 -0.26579,0.487369 -0.81701,0.487369 z"
     id="path8"
     inkscape:connector-curvature="0"
     style="clip-rule:evenodd;fill:#e60012;fill-rule:evenodd;stroke-width:0.76225138" />
  <path
     d="m 142.18841,28.52851 c 0,-0.753078 -0.005,-0.813111 -0.005,-0.813111 l 6.95563,-0.0047 c -1.21447,3.166906 -5.19566,5.50223 -9.90717,5.50223 -5.67982,0 -10.28256,-3.370167 -10.28256,-7.530355 0,-4.160188 4.60274,-7.532699 10.28256,-7.532699 5.67981,0 10.30381,3.446398 10.30381,7.606586 0,0.007 -13.15476,0.0025 -13.15476,0.0025 0,0 -0.005,2.035016 -0.005,2.769622 0,2.453117 1.89083,2.998246 2.92211,2.998246 1.0321,0 2.89021,-0.545129 2.89021,-2.998246 z m -5.34452,-7.488864 c -0.44407,0.669884 -0.47352,1.455288 -0.46288,2.631013 l 5.8262,0.0024 c 0.0106,-1.175796 -0.009,-1.961129 -0.45226,-2.633357 -0.54467,-0.826539 -1.54651,-1.219205 -2.45511,-1.224249 0,0 8.1e-4,0 8.1e-4,0 h -0.003 c 8.2e-4,0 8.2e-4,0 0.002,0 -0.90942,0.005 -1.91127,0.39771 -2.45594,1.224249 z"
     id="path10"
     inkscape:connector-curvature="0"
     style="clip-rule:evenodd;fill:#e60012;fill-rule:evenodd;stroke-width:0.76225138" />
  <path
     d="m 164.15528,18.374105 c 2.61133,-0.06472 7.90758,1.420618 7.87078,6.731097 -0.006,0.942484 -0.003,7.299458 -0.003,7.299458 h -6.93681 c 0,0 0,-7.971616 0,-8.810161 0,-1.168763 -1.28727,-2.469315 -3.19117,-2.469315 -1.90146,0 -3.31548,1.300552 -3.31548,2.469315 0,0.572907 0.008,8.810161 0.008,8.810161 h -6.93191 l 0.006,-13.413813 6.92946,-0.0046 c 0,0 -0.009,1.078749 0,1.411382 1.3347,-1.106527 3.25987,-1.965817 5.56533,-2.023506 z"
     id="path12"
     inkscape:connector-curvature="0"
     style="fill:#e60012;stroke-width:0.76225138" />
  <path
     d="m 107.40542,18.374105 c 2.61116,-0.06472 7.90808,1.420618 7.87078,6.731097 -0.005,0.942484 -0.003,7.299458 -0.003,7.299458 h -6.93747 c 0,0 0,-7.971616 0,-8.810161 0,-1.168763 -1.28702,-2.469315 -3.19093,-2.469315 -1.9012,0 -3.3158,1.300552 -3.3158,2.469315 0,0.572907 0.008,8.810161 0.008,8.810161 h -6.932241 l -0.0027,-13.413813 6.937481,-0.0046 c 0,0 -0.008,1.078749 0,1.411382 1.33486,-1.106527 3.25733,-1.965817 5.5654,-2.023506 z"
     id="path14"
     inkscape:connector-curvature="0"
     style="fill:#e60012;stroke-width:0.76225138" />
  <path
     d="m 193.9684,12.236447 h -6.89183 v 0 c 0,0 0,4.317268 0.005,7.421798 -1.11634,-0.545129 -2.29483,-1.069442 -3.95093,-1.196542 -5.03374,-0.383431 -8.87916,3.483413 -8.87916,7.024514 0,4.668373 4.14556,6.396262 4.77611,6.650319 2.34799,0.95172 5.36332,0.953994 8.03517,-0.503567 0,0.124755 0.003,0.776167 0.003,0.776167 h 6.90247 z m -6.84113,10.999913 v 2.397702 0 c 0,0 0.003,1.517665 0.003,2.379229 0,2.072031 -1.6512,2.614886 -2.73891,2.614886 -1.10897,0 -2.73645,-0.542855 -2.73645,-2.614886 0,-0.713719 0.003,-2.386121 0.003,-2.386121 0,0 -0.003,-1.702453 -0.003,-2.39081 0,-2.074303 1.62748,-2.603305 2.73891,-2.603305 1.08525,0 2.73399,0.529002 2.73399,2.603305 z"
     id="path16"
     inkscape:connector-curvature="0"
     style="clip-rule:evenodd;fill:#e60012;fill-rule:evenodd;stroke-width:0.76225138" />
  <path
     d="m 196.24196,25.611114 c 0,-4.160188 4.5684,-7.532699 10.20569,-7.532699 5.63729,0 10.20569,3.372511 10.20569,7.532699 0,4.160188 -4.5684,7.5327 -10.20569,7.5327 -5.63484,0 -10.20569,-3.372512 -10.20569,-7.5327 z m 13.00839,2.825109 c 0,-0.813112 0.003,-2.841237 0.003,-2.841237 l 0.003,0.0069 c -0.007,-0.437566 -0.006,-1.51326 -0.005,-2.337242 0,-0.189548 0,-0.36574 0,-0.517847 0,-2.129719 -1.45983,-3.005208 -2.85341,-3.005208 -1.39031,0 -2.8534,0.875489 -2.8534,3.005208 0,0.813111 -0.005,2.797329 -0.005,2.797329 0,0 -0.003,2.078993 -0.003,2.892105 0,2.138954 1.45982,3.021335 2.86157,3.021335 1.3985,0 2.85341,-0.882381 2.85341,-3.021335 z"
     id="path18"
     inkscape:connector-curvature="0"
     style="clip-rule:evenodd;fill:#e60012;fill-rule:evenodd;stroke-width:0.76225138" />
  <path
     d="m 84.058948,16.355144 v -4.123173 h 6.998651 v 4.123173 z"
     id="path20"
     inkscape:connector-curvature="0"
     style="fill:#e60012;stroke-width:0.76225138" />
  <path
     d="M 84.074896,32.409136 V 18.993049 l 6.982703,0.0024 v 13.413812 z"
     id="path22"
     inkscape:connector-curvature="0"
     style="fill:#e60012;stroke-width:0.76225138" />
  <path
     d="m 119.10847,32.40935 0.002,-13.38838 h -3.79722 v -1.991181 l 3.79963,-0.0025 -0.005,-2.71648 h 6.98753 v 2.714207 h 3.78164 v 1.995799 h -3.78164 l 0.006,13.388378 z"
     id="path24"
     inkscape:connector-curvature="0"
     style="fill:#e60012;stroke-width:0.76225138" />
  <path
     d="m 55.657397,32.409136 0.0026,-20.172689 h 7.235329 l 10.008669,14.067499 -0.0053,-14.067499 h 7.179472 v 20.172689 h -7.16889 L 62.8475,18.341637 v 14.067499 z"
     id="path26"
     inkscape:connector-curvature="0"
     style="fill:#e60012;stroke-width:0.76225138" />
  <path
     d="M 35.797083,52.986105 58.719399,162.89144 81.522963,52.986105 H 69.180775 L 58.719399,114.75695 48.140029,52.986105 Z"
     id="path28"
     inkscape:connector-curvature="0"
     style="fill:#fe0016;stroke-width:0.94622564" />
  <path
     d="M 86.577227,52.986579 H 98.919321 V 162.89239 H 86.577227 Z"
     id="path30"
     inkscape:connector-curvature="0"
     style="fill:#fe0016;stroke-width:0.94622564" />
  <path
     d="M 109.96168,52.974088 V 162.89617 h 12.34673 v -56.79435 l 17.16945,56.79341 h 11.38309 l -13.73635,-51.9705 c 7.63131,-4.57784 9.87765,-10.57123 9.87765,-10.57123 V 65.435691 C 141.94562,54.210143 133.2271,52.974088 133.2271,52.974088 Z m 12.34673,11.188551 h 12.34654 V 102.3595 h -12.34654 z"
     id="path32"
     inkscape:connector-curvature="0"
     style="fill:#fe0016;stroke-width:0.94622564" />
  <path
     d="m 150.87515,52.986579 h 36.91037 V 64.152798 H 175.442 V 162.89144 H 163.10038 V 64.153555 h -12.22523 z"
     id="path34"
     inkscape:connector-curvature="0"
     style="fill:#fe0016;stroke-width:0.94622564" />
  <path
     d="M 256.07557,52.974088 232.22973,162.77979 v 0.11544 h 12.23092 l 2.58509,-14.81506 h 17.24685 l 2.4687,14.81506 h 12.34635 z m 0,47.378462 5.63288,37.84903 h -12.19307 z"
     id="path36"
     inkscape:connector-curvature="0"
     style="fill:#fe0016;stroke-width:0.94622564" />
  <path
     d="m 284.05451,52.986579 h 12.34352 v 98.737511 h 18.45613 v 11.16735 H 284.0564 Z"
     id="path38"
     inkscape:connector-curvature="0"
     style="fill:#fe0016;stroke-width:0.94622564" />
  <path
     d="m 416.06056,52.986579 h 11.28374 l 11.51935,47.372601 10.46147,-47.372601 h 12.458 l -17.27807,64.649731 v 45.25513 h -12.34257 v -45.25418 z"
     id="path40"
     inkscape:connector-curvature="0"
     style="fill:#fe0016;stroke-width:0.94622564" />
  <path
     d="m 393.91036,52.986295 c -14.02779,0 -18.53751,12.450058 -18.53751,12.450058 0.11544,0.176566 0,82.646657 0,84.998027 1.86028,13.35976 18.53751,12.45706 18.53751,12.45706 18.50628,0 18.5006,-12.45706 18.5006,-12.45706 V 65.435596 C 407.6259,52.370207 393.91036,52.986295 393.91036,52.986295 Z m -6.1921,12.449301 h 12.3473 v 86.270514 h -12.3473 z"
     id="path42"
     inkscape:connector-curvature="0"
     style="fill:#fe0016;stroke-width:0.94622564" />
  <path
     d="m 192.6037,52.986579 h 12.46084 v 97.445911 h 12.4599 V 52.986579 h 12.22429 v 97.445911 c 0,0 -3.99686,12.4599 -17.98396,12.4599 -13.98806,0 -19.16107,-12.4599 -19.16107,-12.4599 z"
     id="path44"
     inkscape:connector-curvature="0"
     style="fill:#fe0016;stroke-width:0.94622564" />
  <path
     d="M 328.49494,52.974088 V 162.89617 h 24.80815 c 11.51462,-2.99859 12.22996,-11.19006 12.22996,-11.19006 0,0 -0.0189,-29.35949 -0.0189,-36.94916 -0.8639,-4.79075 -4.80304,-4.9516 -4.80304,-4.9516 0,0 -0.0161,-1.33607 0,-2.39206 4.35264,-0.33307 4.82291,-5.05474 4.82291,-5.05474 0,0 -0.018,-29.331102 0,-36.923616 -1.88393,-8.965488 -12.23091,-12.460846 -12.23091,-12.460846 z m 12.38421,12.537963 h 12.42299 v 36.846499 h -12.42299 z m -0.0378,47.998719 h 12.46084 v 38.19534 h -12.46084 z"
     id="path46"
     inkscape:connector-curvature="0"
     style="fill:#fe0016;stroke-width:0.94622564" />
  <path
     d="m 451.97171,151.72503 h 8.57848 v 1.27646 h -3.64297 v 9.88995 h -1.23577 v -9.88995 h -3.70163 v -1.27646 z"
     id="path48"
     inkscape:connector-curvature="0"
     style="fill:#fe0016;stroke-width:0.94622564" />
  <path
     d="m 461.78596,162.89144 v -11.16641 h 1.23483 l 4.40846,9.96187 4.23058,-9.96187 h 1.29349 v 11.16641 h -1.29349 v -8.64282 l -3.6477,8.64282 H 466.765 l -3.74232,-8.64282 v 8.64282 z"
     id="path50"
     inkscape:connector-curvature="0"
     style="fill:#fe0016;stroke-width:0.94622564" />
</svg>
