<?xml version="1.0" encoding="UTF-8" standalone="no"?>
<svg
   xmlns:dc="http://purl.org/dc/elements/1.1/"
   xmlns:cc="http://creativecommons.org/ns#"
   xmlns:rdf="http://www.w3.org/1999/02/22-rdf-syntax-ns#"
   xmlns:svg="http://www.w3.org/2000/svg"
   xmlns="http://www.w3.org/2000/svg"
   xmlns:sodipodi="http://sodipodi.sourceforge.net/DTD/sodipodi-0.dtd"
   xmlns:inkscape="http://www.inkscape.org/namespaces/inkscape"
   width="621.00098"
   height="239.60867"
   viewBox="0 0 621.00098 239.60867"
   version="1.1"
   id="svg601"
   sodipodi:docname="wiiu.svg"
   style="fill:none"
   inkscape:version="0.92.5 (2060ec1f9f, 2020-04-08)">
  <metadata
     id="metadata607">
    <rdf:RDF>
      <cc:Work
         rdf:about="">
        <dc:format>image/svg+xml</dc:format>
        <dc:type
           rdf:resource="http://purl.org/dc/dcmitype/StillImage" />
        <dc:title></dc:title>
      </cc:Work>
    </rdf:RDF>
  </metadata>
  <defs
     id="defs605" />
  <sodipodi:namedview
     pagecolor="#ffffff"
     bordercolor="#666666"
     borderopacity="1"
     objecttolerance="10"
     gridtolerance="10"
     guidetolerance="10"
     inkscape:pageopacity="0"
     inkscape:pageshadow="2"
     inkscape:window-width="1366"
     inkscape:window-height="740"
     id="namedview603"
     showgrid="false"
     inkscape:pagecheckerboard="true"
     inkscape:zoom="0.94051932"
     inkscape:cx="310.5"
     inkscape:cy="131.5"
     inkscape:window-x="0"
     inkscape:window-y="0"
     inkscape:window-maximized="1"
     inkscape:current-layer="svg601" />
  <path
     d="m 1.0632424,30.2118 c 0,16.4942 12.8265996,30.0979 32.0226996,30.1044 H 213.87524 c 19.196,-0.0065 32.022,-13.6102 32.022,-30.1044 0,-16.4942 -12.856,-30.25397486 -31.993,-30.211702859296 H 33.056642 C 13.919142,-0.04216986 1.0632424,13.7176 1.0632424,30.2118 Z m 7.55617,-0.039 c 0,-12.5666 9.3281296,-22.7238199 24.5250296,-22.7530899 l 180.674798,0.0032 c 15.197,0.02927 24.525,10.1865399 24.525,22.7498399 0,12.5632 -9.273,22.8018 -24.528,22.7498 H 33.144442 C 17.889042,52.97775 8.6194124,42.73595 8.6194124,30.17275 Z M 223.53424,18.0257 c 1.382,0 2.068,0.4682 2.068,1.3948 0,0.6373 -0.396,1.1185 -1.056,1.2843 l 1.082,2.1621 h -1.31 l -0.927,-1.9833 h -0.575 v 1.9833 h -1.18 v -4.8412 z m -4.477,2.4775 c 0,-2.4125 1.958,-4.3698 4.37,-4.3698 2.413,0 4.37,1.9573 4.37,4.3698 0,2.4125 -1.957,4.3698 -4.37,4.3698 -2.412,0 -4.37,-1.9573 -4.37,-4.3698 z m 7.904,0.0033 c 0,1.9508 -1.583,3.5342 -3.534,3.5342 -1.951,0 -3.534,-1.5834 -3.534,-3.5342 0,-1.9509 1.583,-3.5343 3.534,-3.5343 1.951,0 3.534,1.5802 3.534,3.5343 z m -3.57,-0.3317 h -0.575 V 18.767 h 0.517 c 0.709,0 1.057,0.2178 1.057,0.7218 0,0.4812 -0.326,0.686 -0.999,0.686 z m -99.339,11.8317 c -0.013,-1.6549 0.023,-2.7604 0.566,-3.7033 0.666,-1.1634 1.891,-1.7161 3.003,-1.7232 1.111,0.0071 2.336,0.5598 3.002,1.7232 0.543,0.9462 0.566,2.0516 0.553,3.7066 z m 3.569,-5.4265 h -0.002 0.003 z m 3.532,12.2642 c 0,-1.06 -0.006,-1.1445 -0.006,-1.1445 l 8.505,-0.0066 c -1.485,4.4576 -6.353,7.7447 -12.114,7.7447 -6.945,0 -12.573,-4.7437 -12.573,-10.5994 0,-5.8557 5.628,-10.6027 12.573,-10.6027 6.945,0 12.599,4.851 12.599,10.7067 0,0.0099 -16.085,0.0034 -16.085,0.0034 0,0 -0.006,2.8644 -0.006,3.8984 0,3.4529 2.312,4.2202 3.573,4.2202 1.262,0 3.534,-0.7673 3.534,-4.2202 z m 26.86,-14.293 c 3.193,-0.0911 9.669,1.9995 9.624,9.4744 -0.007,1.3266 -0.003,10.2743 -0.003,10.2743 h -8.483 V 31.8992 c 0,-1.6452 -1.574,-3.4757 -3.902,-3.4757 -2.325,0 -4.054,1.8305 -4.054,3.4757 0,0.8064 0.009,12.4007 0.009,12.4007 h -8.476 l 0.007,-18.8806 8.473,-0.0065 c 0,0 -0.01,1.5183 0,1.9865 1.632,-1.5574 3.986,-2.7669 6.805,-2.8481 z m -59.766698,9.4744 c 0.0455,-7.4749 -6.4312,-9.5655 -9.624,-9.4744 l -2e-4,-10e-5 c -2.8222,0.0813 -5.1729,1.2908 -6.8051,2.8482 -0.0098,-0.4682 0,-1.9865 0,-1.9865 l -8.4828,0.0065 0.0033,18.8806 h 8.4763 c 0,0 -0.0097,-11.5943 -0.0097,-12.4007 0,-1.6452 1.7297,-3.4757 4.0544,-3.4757 2.328,0 3.9016,1.8305 3.9016,3.4757 v 12.4007 h 8.4829 c 0,0 -0.0032,-8.9477 0.0033,-10.2743 z M 186.04024,15.9123 h 8.427 v 28.3942 h -8.44 c 0,0 -0.004,-0.9169 -0.004,-1.0925 -3.267,2.0516 -6.954,2.0484 -9.825,0.7088 -0.771,-0.3577 -5.84,-2.7897 -5.84,-9.3607 0,-4.9843 4.702,-10.4271 10.857,-9.8874 2.025,0.1788 3.466,0.9169 4.831,1.6842 -0.006,-4.3698 -0.006,-10.4466 -0.006,-10.4466 z m 0.061,15.483 v 3.3749 l 0.001,0.2093 v 0.0199 c 0.001,0.5836 0.003,2.148 0.003,3.1197 0,2.9165 -2.019,3.6806 -3.349,3.6806 -1.356,0 -3.346,-0.7641 -3.346,-3.6806 0,-1.0047 0.003,-3.3587 0.003,-3.3587 0,0 -0.003,-2.3962 -0.003,-3.3651 0,-2.9197 1.99,-3.6643 3.349,-3.6643 1.327,0 3.342,0.7446 3.342,3.6643 z m 27.055,3.3196 c 0,0 -0.003,2.8547 -0.003,3.9992 0,3.0108 -1.779,4.2528 -3.489,4.2528 -1.713,0 -3.498,-1.242 -3.498,-4.2528 0,-1.1445 0.003,-4.0707 0.003,-4.0707 0,0 0.006,-2.7929 0.006,-3.9374 0,-2.9978 1.789,-4.23 3.489,-4.23 1.704,0 3.489,1.2322 3.489,4.23 v 0.7277 c -0.001,1.16 -0.002,2.6749 0.006,3.291 z m -15.909,0.0228 c 0,-5.8557 5.586,-10.6027 12.479,-10.6027 6.893,0 12.479,4.747 12.479,10.6027 0,5.8557 -5.586,10.6027 -12.479,10.6027 -6.89,0 -12.479,-4.747 -12.479,-10.6027 z M 60.075542,21.7095 v -5.8037 h 8.5576 v 5.8037 z m 0.0195,3.713 v 18.884 h 8.5381 V 25.4259 Z m 42.837198,18.884 0.003,-18.845 h -4.643098 v -2.8026 l 4.646098,-0.0034 -0.006,-3.8236 h 8.544 v 3.8204 h 4.624 v 2.8091 h -4.624 l 0.007,18.845 z m -77.581298,-28.3942 -0.0032,28.3942 h 8.7916 V 24.5056 l 12.3032,19.8009 h 8.7657 V 15.9123 h -8.7787 l 0.0065,19.8008 -12.2381,-19.8008 z"
     id="path589"
     inkscape:connector-curvature="0"
     style="clip-rule:evenodd;fill:#ffffff;fill-rule:evenodd" />
  <path
     d="m 169.059,195.47167 c 0,0 -23.746,-90.856 -27.36,-103.761002 -3.871,-12.906 -11.872,-18.5843 -22.971,-18.5843 -11.098,0 -19.0996,5.6783 -22.9711,18.5843 C 91.8853,104.61567 68.3978,195.47167 68.3978,195.47167 L 37.4252,74.158768 H 0 c 0,0 35.8766,129.313902 40.5224,144.284902 3.8716,11.615 12.6472,21.165 26.0686,21.165 15.2282,0 22.197,-11.099 25.5524,-21.165 3.3553,-10.067 26.3266,-95.502 26.3266,-95.502 0,0 23.229,85.435 26.327,95.502 3.355,10.066 10.324,21.165 25.552,21.165 13.163,0 22.197,-9.55 26.069,-21.165 4.904,-14.971 40.522,-144.284902 40.522,-144.284902 h -36.909 z m 158.476,43.105 h 35.36 v -114.086 h -35.36 z M 344.828,64.608668 c -11.357,0 -20.648,9.0339 -20.648,19.875 0,11.098 9.291,19.874002 20.648,19.874002 11.873,0 21.165,-8.776002 21.165,-19.874002 0,-11.0992 -9.292,-19.875 -21.165,-19.875 z M 256.04,238.57667 h 35.36 v -114.086 H 256.04 Z M 273.333,64.608668 c -11.357,0 -20.648,9.0339 -20.648,19.875 0,11.098 9.291,19.874002 20.648,19.874002 11.873,0 21.164,-8.776002 21.164,-19.874002 0,-11.0992 -9.549,-19.875 -21.164,-19.875 z"
     id="path591"
     inkscape:connector-curvature="0"
     style="fill:#ffffff" />
  <path
     d="m 539.181,64.608668 h 19.874 c 14.454,0 23.23,8.7758 22.455,22.972 v 75.111002 c 0,21.681 -11.356,33.038 -33.037,33.038 H 439.811 c -21.681,0 -33.038,-11.357 -33.038,-33.038 V 87.838668 c 0,-14.4542 8.776,-23.23 23.23,-23.23 h 19.874 v 61.431002 c 0,29.683 17.035,45.686 44.652,45.686 27.617,0 44.652,-16.003 44.652,-45.686 z"
     id="path593"
     inkscape:connector-curvature="0"
     style="fill:#0096c8" />
  <path
     d="m 517.758,125.52267 c 0,16.003 -10.066,26.328 -23.229,26.328 -13.163,0 -22.971,-10.325 -22.971,-26.328 V 64.608668 h 46.2 z"
     id="path595"
     inkscape:connector-curvature="0"
     style="fill:#0096c8" />
  <path
     d="m 613.257,76.997668 3.872,-12.389 h 3.872 v 15.487 h -2.323 v -12.9059 l -3.872,12.6479 h -2.581 l -3.872,-12.6479 v 12.9059 h -2.323 v -15.487 h 3.614 z"
     id="path597"
     inkscape:connector-curvature="0"
     style="fill:#ffffff" />
  <path
     d="m 604.224,64.608668 h -12.131 v 2.323 h 4.904 v 13.164 h 2.581 v -13.164 h 4.646 z"
     id="path599"
     inkscape:connector-curvature="0"
     style="fill:#ffffff" />
</svg>
