<?xml version="1.0" encoding="UTF-8" standalone="no"?>
<svg
   xmlns:dc="http://purl.org/dc/elements/1.1/"
   xmlns:cc="http://creativecommons.org/ns#"
   xmlns:rdf="http://www.w3.org/1999/02/22-rdf-syntax-ns#"
   xmlns:svg="http://www.w3.org/2000/svg"
   xmlns="http://www.w3.org/2000/svg"
   xmlns:sodipodi="http://sodipodi.sourceforge.net/DTD/sodipodi-0.dtd"
   xmlns:inkscape="http://www.inkscape.org/namespaces/inkscape"
   width="475"
   height="135"
   viewBox="0 0 475 135"
   fill="none"
   version="1.1"
   id="svg42"
   sodipodi:docname="zxspectrum.svg"
   inkscape:version="0.92.5 (2060ec1f9f, 2020-04-08)">
  <metadata
     id="metadata48">
    <rdf:RDF>
      <cc:Work
         rdf:about="">
        <dc:format>image/svg+xml</dc:format>
        <dc:type
           rdf:resource="http://purl.org/dc/dcmitype/StillImage" />
        <dc:title></dc:title>
      </cc:Work>
    </rdf:RDF>
  </metadata>
  <defs
     id="defs46" />
  <sodipodi:namedview
     pagecolor="#ffffff"
     bordercolor="#666666"
     borderopacity="1"
     objecttolerance="10"
     gridtolerance="10"
     guidetolerance="10"
     inkscape:pageopacity="0"
     inkscape:pageshadow="2"
     inkscape:window-width="1366"
     inkscape:window-height="740"
     id="namedview44"
     showgrid="false"
     inkscape:pagecheckerboard="true"
     inkscape:zoom="1.2296053"
     inkscape:cx="237.5"
     inkscape:cy="67.5"
     inkscape:window-x="0"
     inkscape:window-y="0"
     inkscape:window-maximized="1"
     inkscape:current-layer="svg42" />
  <g
     transform="matrix(6.2159779,0,0,4.8149484,-706.99184,-396.30396)"
     id="g845">
    <path
       d="m 139.387,110.068 h 9.476 l 12.625,-27.761 h -9.476 z"
       id="path4-3"
       inkscape:connector-curvature="0"
       style="clip-rule:evenodd;fill:#cc2229;fill-rule:evenodd" />
    <path
       d="m 158.342,110.068 h 9.478 l 12.623,-27.761 h -9.476 z"
       id="path6-6"
       inkscape:connector-curvature="0"
       style="clip-rule:evenodd;fill:#33a457;fill-rule:evenodd" />
    <path
       d="m 148.865,110.068 h 9.477 l 12.623,-27.761 h -9.477 z"
       id="path8-7"
       inkscape:connector-curvature="0"
       style="clip-rule:evenodd;fill:#db812e;fill-rule:evenodd" />
    <path
       d="m 167.82,110.068 h 9.477 l 12.625,-27.761 h -9.479 z"
       id="path10-5"
       inkscape:connector-curvature="0"
       style="clip-rule:evenodd;fill:#00acec;fill-rule:evenodd" />
  </g>
  <path
     d="M 79.7962,4 H 67.4417 v 10.6557 h 12.3545 z"
     id="path2"
     inkscape:connector-curvature="0"
     style="fill:#ffffff" />
  <path
     d="M 64.4893,31.459 H 12.2863 V 27.2241 H 64.4292 V 16.5684 H 0.0169399 L 0,41.5683 h 52.1342 v 4.0983 H 0 v 10.9289 h 64.4893 z"
     id="path4"
     inkscape:connector-curvature="0"
     style="fill:#ffffff" />
  <path
     d="m 228.022,5.3208 h -12.354 v 51.3659 h 12.354 z"
     id="path6"
     inkscape:connector-curvature="0"
     style="fill:#ffffff" />
  <path
     d="m 309.169,16.697 h -12.355 v 39.8993 h 12.355 z"
     id="path8"
     inkscape:connector-curvature="0"
     style="fill:#ffffff" />
  <path
     d="M 79.7962,16.697 H 67.4417 v 39.8993 h 12.3545 z"
     id="path10"
     inkscape:connector-curvature="0"
     style="fill:#ffffff" />
  <path
     d="M 146.531,16.697 H 82.5371 v 39.9447 h 12.3546 v -29.289 h 39.2843 v 29.2436 h 12.355 z"
     id="path12"
     inkscape:connector-curvature="0"
     style="fill:#ffffff" />
  <path
     d="M 213.039,56.5963 V 45.6674 h -51.48 V 27.3527 h 51.48 l 0.017,-10.6557 h -63.851 v 39.8993 z"
     id="path14"
     inkscape:connector-curvature="0"
     style="fill:#ffffff" />
  <path
     d="M 294.208,56.5963 V 16.697 h -63.501 v 10.6557 h 51.147 v 4.1371 H 230.707 V 56.5963 Z M 281.854,45.6674 H 243.062 V 41.569 h 38.792 z"
     id="path16"
     inkscape:connector-curvature="0"
     style="fill:#ffffff" />
  <path
     d="m 309.169,4 h -12.355 v 10.6103 h 12.355 z"
     id="path18"
     inkscape:connector-curvature="0"
     style="fill:#ffffff" />
  <path
     d="m 312.252,16.697 v 39.8993 h 12.355 V 27.3615 h 50.091 V 16.697 Z"
     id="path20"
     inkscape:connector-curvature="0"
     style="fill:#ffffff" />
  <path
     d="M 0,117.963 H 46.1101 V 106.035 H 17.2004 L 45.1283,75.5252 V 64.7977 H 1.6364 v 11.8912 h 25.637 L 0,106.653 Z"
     id="path22"
     inkscape:connector-curvature="0"
     style="fill:#ffffff" />
  <path
     d="m 46.5654,117.963 h 15.9277 l 10.873,-17.71 9.9638,17.71 H 100.167 L 81.4026,90.0347 98.603,64.7977 H 82.8208 L 73.3661,81.3072 64.4204,64.7977 H 48.1291 l 17.3459,25.237 z"
     id="path24"
     inkscape:connector-curvature="0"
     style="fill:#ffffff" />
  <path
     d="m 123.296,100.108 c 0.291,6.691 2.655,11.551 7.091,14.582 4.364,2.933 9.697,4.4 16,4.4 6.11,0.048 11.443,-1.249 16.001,-3.891 4.679,-2.667 7.067,-7.309 7.164,-13.928 0,-2.424 -0.425,-4.485 -1.273,-6.1817 -0.897,-1.6728 -2.061,-3.1031 -3.491,-4.291 -3.079,-2.3031 -6.631,-3.9274 -10.655,-4.8728 -0.945,-0.2909 -1.867,-0.5576 -2.764,-0.8001 -0.994,-0.2424 -1.939,-0.4727 -2.836,-0.6909 -1.77,-0.4364 -3.431,-0.8727 -4.982,-1.3091 -1.43,-0.5091 -2.57,-1.0788 -3.418,-1.7091 -0.946,-0.7031 -1.419,-1.5273 -1.419,-2.4728 0.049,-1.7455 0.813,-2.9577 2.291,-3.6365 1.358,-0.606 2.825,-0.9091 4.401,-0.9091 2.303,0 4.315,0.4485 6.036,1.3455 1.746,0.9455 2.594,2.6304 2.546,5.0547 h 13.854 c -0.048,-3.0789 -0.642,-5.685 -1.781,-7.8184 -1.213,-2.1819 -2.837,-3.9395 -4.873,-5.2728 -4.267,-2.691 -9.152,-4.0365 -14.655,-4.0365 -5.261,0 -10.097,1.2122 -14.51,3.6365 -2.133,1.2606 -3.854,2.9334 -5.163,5.0183 -1.334,2.0849 -2,4.5819 -2,7.491 0.097,4.7274 1.757,8.2063 4.982,10.4366 3.078,2.2789 6.606,3.9153 10.582,4.9092 4.024,0.946 7.551,1.891 10.582,2.836 1.43,0.51 2.569,1.152 3.418,1.928 0.848,0.8 1.273,1.794 1.273,2.982 -0.049,1.891 -0.922,3.285 -2.619,4.182 -0.8,0.436 -1.684,0.739 -2.654,0.909 -1.043,0.242 -2.121,0.363 -3.237,0.363 -2.909,0.049 -5.26,-0.569 -7.054,-1.854 -1.794,-1.212 -2.788,-3.346 -2.982,-6.4 z"
     id="path26"
     inkscape:connector-curvature="0"
     style="fill:#ffffff" />
  <path
     d="m 194.735,87.8891 c 1.43,0 2.618,0.291 3.563,0.8728 0.946,0.6061 1.709,1.4061 2.291,2.4 1.091,2.1334 1.637,4.485 1.637,7.0551 0,2.739 -0.546,5.248 -1.637,7.527 -0.582,1.043 -1.345,1.915 -2.291,2.618 -1.042,0.679 -2.254,1.019 -3.636,1.019 -2.788,0 -4.776,-1.043 -5.964,-3.128 -1.139,-1.963 -1.709,-4.642 -1.709,-8.036 0,-2.037 0.267,-3.7216 0.8,-5.055 0.461,-1.3334 1.055,-2.3758 1.782,-3.1273 0.8,-0.8001 1.648,-1.3698 2.545,-1.7092 0.897,-0.2909 1.77,-0.4364 2.619,-0.4364 z m -19.964,43.0189 h 12.654 v -17.127 h 0.146 c 2.57,3.539 6.242,5.309 11.018,5.309 5.503,-0.097 9.601,-2.109 12.291,-6.037 2.691,-3.879 4.037,-8.4 4.037,-13.564 0,-2.788 -0.303,-5.4421 -0.909,-7.9634 -0.291,-1.2849 -0.715,-2.497 -1.273,-3.6365 -0.485,-1.1394 -1.103,-2.1818 -1.855,-3.1273 -2.787,-4.2668 -7.212,-6.4608 -13.273,-6.582 -4.557,0.0485 -8.097,1.9152 -10.618,5.6002 h -0.182 v -4.4729 h -12.036 z"
     id="path28"
     inkscape:connector-curvature="0"
     style="fill:#ffffff" />
  <path
     d="m 231.736,94.6529 c 0.388,-2.4243 1.297,-4.3637 2.728,-5.8183 1.406,-1.3818 3.224,-2.0728 5.454,-2.0728 2.182,0.0485 3.964,0.8122 5.346,2.291 1.357,1.5031 2.085,3.3698 2.182,5.6001 z m 28.365,7.0911 c 0.29,-6.7153 -1.249,-12.2791 -4.619,-16.6913 -3.418,-4.4607 -8.606,-6.7517 -15.564,-6.8729 -5.818,0.0485 -10.703,1.9395 -14.655,5.6729 -4.072,3.7334 -6.133,8.6305 -6.182,14.6913 0.049,6.497 2,11.527 5.855,15.091 3.83,3.588 8.921,5.406 15.273,5.455 4.412,0 8.437,-1.018 12.073,-3.055 3.515,-2.085 5.891,-5.345 7.128,-9.782 h -11.819 c -0.654,1.406 -1.624,2.449 -2.909,3.128 -1.285,0.751 -2.727,1.127 -4.327,1.127 -2.667,0 -4.728,-0.812 -6.182,-2.437 -1.479,-1.6 -2.291,-3.709 -2.437,-6.327 z"
     id="path30"
     inkscape:connector-curvature="0"
     style="fill:#ffffff" />
  <path
     d="m 303.175,93.4529 c -0.558,-5.1153 -2.618,-8.9335 -6.182,-11.4548 -3.636,-2.5455 -7.927,-3.8183 -12.873,-3.8183 -6.255,0.0485 -11.176,2.0122 -14.764,5.8911 -3.612,3.8304 -5.443,8.8972 -5.491,15.2001 0.048,5.964 1.976,10.728 5.782,14.291 3.733,3.637 8.558,5.479 14.473,5.528 5.261,-0.049 9.649,-1.491 13.164,-4.328 3.515,-2.836 5.6,-6.836 6.255,-12 h -12.292 c -0.484,4.364 -2.897,6.57 -7.236,6.619 -1.333,0 -2.449,-0.316 -3.346,-0.946 -0.994,-0.558 -1.782,-1.333 -2.363,-2.327 -1.188,-1.988 -1.782,-4.267 -1.782,-6.837 0,-1.382 0.097,-2.751 0.291,-4.109 0.194,-1.3818 0.594,-2.594 1.2,-3.6364 0.582,-1.1394 1.418,-2.0364 2.509,-2.691 1.091,-0.6303 2.485,-0.9455 4.182,-0.9455 1.697,0 3.139,0.497 4.327,1.491 1.188,1.0424 1.806,2.4 1.855,4.0728 z"
     id="path32"
     inkscape:connector-curvature="0"
     style="fill:#ffffff" />
  <path
     d="m 332.431,79.3071 h -7.818 v -11.673 h -12.655 v 11.673 h -6.437 v 8.182 h 6.437 V 104.69 c -0.073,5.115 0.86,8.691 2.8,10.727 1.891,1.939 5.467,2.909 10.727,2.909 2.352,-0.048 4.667,-0.169 6.946,-0.363 v -9.31 c -1.14,0.097 -2.23,0.146 -3.273,0.146 -1.357,0 -2.461,-0.267 -3.309,-0.8 -0.824,-0.509 -1.236,-1.479 -1.236,-2.909 V 87.4891 h 7.818 z"
     id="path34"
     inkscape:connector-curvature="0"
     style="fill:#ffffff" />
  <path
     d="m 337.832,117.963 h 12.655 V 98.835 c 0,-2.546 0.824,-4.7033 2.472,-6.473 1.576,-1.7455 3.928,-2.6425 7.055,-2.691 1.649,0 3.261,0.2424 4.837,0.7273 V 78.8708 c -0.994,-0.194 -1.988,-0.291 -2.982,-0.291 -5.649,0.0485 -9.516,2.5577 -11.601,7.5275 h -0.145 v -6.8002 h -12.291 z"
     id="path36"
     inkscape:connector-curvature="0"
     style="fill:#ffffff" />
  <path
     d="M 406.761,79.3071 H 394.106 V 99.999 c 0,1.697 -0.218,3.09 -0.654,4.181 -0.461,1.091 -1.03,1.988 -1.709,2.691 -0.703,0.631 -1.431,1.079 -2.182,1.346 -0.824,0.291 -1.612,0.436 -2.364,0.436 -2.036,0.049 -3.576,-0.472 -4.618,-1.563 -1.091,-1.091 -1.636,-2.873 -1.636,-5.346 V 79.3071 h -12.655 v 23.2369 c -0.049,5.115 0.969,9.115 3.054,12 2.085,2.982 5.831,4.497 11.237,4.546 2.327,-0.049 4.558,-0.643 6.691,-1.782 2.133,-1.164 3.818,-2.703 5.055,-4.618 h 0.181 v 5.273 h 12.255 z"
     id="path38"
     inkscape:connector-curvature="0"
     style="fill:#ffffff" />
  <path
     d="m 414.526,117.963 h 12.655 V 99.126 c 0,-3.9276 0.521,-6.6792 1.563,-8.255 1.043,-1.5515 2.679,-2.303 4.91,-2.2546 1.697,0 2.933,0.6425 3.709,1.9274 0.703,1.3091 1.054,3.1273 1.054,5.4546 v 21.9646 h 12.655 v -18.91 c -0.048,-3.1758 0.279,-5.7092 0.982,-7.6001 0.752,-1.8425 2.412,-2.788 4.982,-2.8365 3.467,0.0485 5.224,2.2546 5.273,6.6184 V 117.963 H 475 V 94.8711 c 0,-1.8909 -0.133,-3.8304 -0.4,-5.8183 -0.242,-1.8667 -0.836,-3.6486 -1.782,-5.3456 -0.897,-1.697 -2.254,-3.0425 -4.073,-4.0364 -1.842,-0.994 -4.303,-1.491 -7.382,-1.491 -5.115,0.0485 -9.139,2.1334 -12.073,6.2547 -1.042,-2.3273 -2.557,-3.9637 -4.545,-4.9092 -1.988,-0.897 -4.219,-1.3455 -6.691,-1.3455 -4.873,0.1212 -8.57,2.2668 -11.091,6.4365 h -0.146 v -5.3092 h -12.291 z"
     id="path40"
     inkscape:connector-curvature="0"
     style="fill:#ffffff" />
</svg>
