<?xml version="1.0" encoding="UTF-8" standalone="no"?>
<svg
   xmlns:dc="http://purl.org/dc/elements/1.1/"
   xmlns:cc="http://creativecommons.org/ns#"
   xmlns:rdf="http://www.w3.org/1999/02/22-rdf-syntax-ns#"
   xmlns:svg="http://www.w3.org/2000/svg"
   xmlns="http://www.w3.org/2000/svg"
   xmlns:sodipodi="http://sodipodi.sourceforge.net/DTD/sodipodi-0.dtd"
   xmlns:inkscape="http://www.inkscape.org/namespaces/inkscape"
   id="Ebene_1"
   x="0px"
   y="0px"
   width="21.775px"
   height="20.762px"
   viewBox="0 0 21.775 20.762"
   version="1.1"
   sodipodi:docname="filled.svg"
   inkscape:version="0.92.5 (2060ec1f9f, 2020-04-08)">
  <metadata
     id="metadata9">
    <rdf:RDF>
      <cc:Work
         rdf:about="">
        <dc:format>image/svg+xml</dc:format>
        <dc:type
           rdf:resource="http://purl.org/dc/dcmitype/StillImage" />
      </cc:Work>
    </rdf:RDF>
  </metadata>
  <defs
     id="defs7" />
  <sodipodi:namedview
     pagecolor="#ffffff"
     bordercolor="#666666"
     borderopacity="1"
     objecttolerance="10"
     gridtolerance="10"
     guidetolerance="10"
     inkscape:pageopacity="0"
     inkscape:pageshadow="2"
     inkscape:window-width="1366"
     inkscape:window-height="740"
     id="namedview5"
     showgrid="false"
     inkscape:zoom="54.392492"
     inkscape:cx="2.2006392"
     inkscape:cy="10.390192"
     inkscape:window-x="0"
     inkscape:window-y="0"
     inkscape:window-maximized="1"
     inkscape:current-layer="Ebene_1" />
  <path
     d="M8.71,2.076c-0.182,0-0.363,0.14-0.501,0.419L6.35,6.261c-0.276,0.56-1.008,1.091-1.624,1.18L0.572,8.045  C-0.046,8.135-0.185,8.564,0.262,9l3.007,2.931c0.446,0.437,0.726,1.295,0.62,1.909l-0.71,4.14  c-0.077,0.446,0.094,0.708,0.404,0.708c0.118,0,0.255-0.038,0.407-0.117l3.717-1.956c0.276-0.145,0.641-0.216,1.003-0.216  c0.364,0,0.729,0.072,1.004,0.216l3.718,1.956c0.149,0.079,0.289,0.117,0.406,0.117c0.312,0,0.481-0.262,0.405-0.708l-0.711-4.14  c-0.104-0.614,0.174-1.474,0.619-1.909L17.16,9c0.446-0.437,0.307-0.865-0.311-0.955l-4.154-0.604  c-0.617-0.089-1.349-0.62-1.624-1.18L9.213,2.495C9.074,2.216,8.893,2.076,8.71,2.076L8.71,2.076z"
     style="fill:#aa0000;fill-opacity:1"
     id="path2" />
</svg>
