<?xml version="1.0" encoding="UTF-8" standalone="no"?>
<!-- Svg Vector Icons : http://www.onlinewebfonts.com/icon -->

<svg
   xmlns:dc="http://purl.org/dc/elements/1.1/"
   xmlns:cc="http://creativecommons.org/ns#"
   xmlns:rdf="http://www.w3.org/1999/02/22-rdf-syntax-ns#"
   xmlns:svg="http://www.w3.org/2000/svg"
   xmlns="http://www.w3.org/2000/svg"
   xmlns:sodipodi="http://sodipodi.sourceforge.net/DTD/sodipodi-0.dtd"
   xmlns:inkscape="http://www.inkscape.org/namespaces/inkscape"
   version="1.1"
   x="0px"
   y="0px"
   viewBox="0 0 530 400"
   enable-background="new 0 0 1000 1000"
   xml:space="preserve"
   id="svg8"
   sodipodi:docname="869d2a55408ca2f317accab404443fe5.svg"
   width="530"
   height="400"
   inkscape:version="0.92.5 (2060ec1f9f, 2020-04-08)"><defs
   id="defs12" /><sodipodi:namedview
   pagecolor="#ffffff"
   bordercolor="#666666"
   borderopacity="1"
   objecttolerance="10"
   gridtolerance="10"
   guidetolerance="10"
   inkscape:pageopacity="0"
   inkscape:pageshadow="2"
   inkscape:window-width="1366"
   inkscape:window-height="740"
   id="namedview10"
   showgrid="false"
   inkscape:pagecheckerboard="true"
   inkscape:zoom="1.0325"
   inkscape:cx="238.94552"
   inkscape:cy="224.67902"
   inkscape:window-x="0"
   inkscape:window-y="0"
   inkscape:window-maximized="1"
   inkscape:current-layer="svg8" />
<metadata
   id="metadata2"> Svg Vector Icons : http://www.onlinewebfonts.com/icon <rdf:RDF><cc:Work
     rdf:about=""><dc:format>image/svg+xml</dc:format><dc:type
       rdf:resource="http://purl.org/dc/dcmitype/StillImage" /><dc:title></dc:title></cc:Work></rdf:RDF></metadata>
<g
   id="g6"
   style="fill:#ffffff"
   transform="matrix(0.22320502,0,0,0.21332213,3.8938578,95.518112)"><path
     d="M 990,562.1 V 437.9 L 841.4,393.5 c -6.5,-20.8 -14.8,-40.7 -24.8,-59.6 L 890.4,197.4 802.6,109.6 666.1,183.3 C 647.2,173.3 627.2,165 606.4,158.5 L 562.1,10 H 437.9 l -44.3,148.4 c -20.9,6.5 -40.9,14.8 -60,24.8 l -136.2,-73.6 -87.8,87.8 73.4,136 c -10.1,19.2 -18.6,39.4 -25.1,60.4 L 10,437.9 v 124.2 l 147.8,44.1 c 6.5,21.1 15,41.4 25.2,60.7 l -73.3,135.7 87.8,87.8 135.7,-73.3 c 19.3,10.1 39.5,18.6 60.7,25.1 l 44,147.8 h 124.2 l 44.2,-148 c 21,-6.5 41.2,-15 60.3,-25.1 l 136,73.5 87.8,-87.8 -73.6,-136.3 c 10,-19 18.3,-39.1 24.8,-59.9 z M 499.7,687.9 c -103.6,0 -187.7,-84 -187.7,-187.7 0,-103.6 84,-187.7 187.7,-187.7 103.6,0 187.7,84 187.7,187.7 0,103.7 -84.1,187.7 -187.7,187.7 z"
     id="path4"
     style="fill:#ffffff"
     inkscape:connector-curvature="0" /></g>
<flowRoot
   xml:space="preserve"
   id="flowRoot822"
   style="font-style:normal;font-weight:normal;font-size:40px;line-height:125%;font-family:sans-serif;letter-spacing:0px;word-spacing:0px;fill:#000000;fill-opacity:1;stroke:none;stroke-width:1px;stroke-linecap:butt;stroke-linejoin:miter;stroke-opacity:1"><flowRegion
     id="flowRegion824"><rect
       id="rect826"
       width="71.6707"
       height="110.41162"
       x="228.57143"
       y="158.83777" /></flowRegion><flowPara
     id="flowPara828">SETUP</flowPara></flowRoot><flowRoot
   xml:space="preserve"
   id="flowRoot830"
   style="font-style:normal;font-weight:normal;font-size:40px;line-height:125%;font-family:sans-serif;letter-spacing:0px;word-spacing:0px;fill:#000000;fill-opacity:1;stroke:none;stroke-width:1px;stroke-linecap:butt;stroke-linejoin:miter;stroke-opacity:1"><flowRegion
     id="flowRegion832"><rect
       id="rect834"
       width="206.29539"
       height="158.83777"
       x="238.25665"
       y="145.27846" /></flowRegion><flowPara
     id="flowPara836"
     style="fill:#ffffff;-inkscape-font-specification:'PF Tempesta Five';font-family:'PF Tempesta Five';font-weight:normal;font-style:normal;font-stretch:normal;font-variant:normal;font-size:64px">SETUP</flowPara></flowRoot><g
   aria-label="SETUP"
   transform="translate(3.874092,57.142857)"
   style="font-style:normal;font-weight:normal;font-size:40px;line-height:125%;font-family:sans-serif;letter-spacing:0px;word-spacing:0px;fill:#000000;fill-opacity:1;stroke:none;stroke-width:1px;stroke-linecap:butt;stroke-linejoin:miter;stroke-opacity:1"
   id="flowRoot838"><path
     d="m 236.87881,163.98445 v -8.256 h 33.152 q 2.624,0 3.776,-0.704 1.152,-0.768 1.152,-3.008 v -2.368 q 0,-2.048 -1.152,-2.88 -1.152,-0.896 -3.712,-0.896 h -20.8 q -3.648,0 -6.08,-0.64 -2.368,-0.704 -3.776,-2.048 -1.408,-1.408 -1.984,-3.456 -0.512,-2.112 -0.512,-4.928 v -2.176 q 0,-3.328 0.704,-5.696 0.704,-2.368 2.176,-3.776 1.472,-1.472 3.84,-2.112 2.368,-0.704 5.632,-0.704 h 13.568 v 8.256 h -12.672 q -2.24,0 -3.328,0.896 -1.024,0.832 -1.024,3.456 v 1.408 q 0,2.048 0.96,2.944 0.96,0.832 3.328,0.832 h 20.416 q 3.648,0 6.144,0.64 2.56,0.576 4.16,1.92 1.6,1.344 2.304,3.456 0.704,2.112 0.704,5.056 v 3.456 q 0,3.072 -0.704,5.248 -0.704,2.112 -2.304,3.456 -1.6,1.344 -4.16,1.984 -2.496,0.64 -6.144,0.64 z"
     style="font-style:normal;font-variant:normal;font-weight:normal;font-stretch:normal;font-size:64px;font-family:Neuropolitical;-inkscape-font-specification:Neuropolitical;fill:#ffffff"
     id="path846" /><path
     d="m 306.25469,163.98445 q -4.8,0 -8,-0.768 -3.2,-0.832 -5.12,-2.56 -1.92,-1.792 -2.752,-4.608 -0.768,-2.88 -0.768,-7.04 v -13.696 q 0,-4.096 0.768,-6.976 0.832,-2.88 2.752,-4.608 1.92,-1.792 5.12,-2.56 3.2,-0.832 8,-0.832 h 10.752 v 8.256 h -10.752 q -2.112,0 -3.456,0.384 -1.344,0.32 -2.176,1.088 -0.768,0.768 -1.088,2.048 -0.256,1.28 -0.256,3.2 v 2.944 h 37.184 v 7.744 h -37.184 v 3.072 q 0,1.984 0.256,3.264 0.32,1.28 1.088,2.048 0.768,0.768 2.112,1.088 1.408,0.256 3.52,0.256 h 30.464 v 8.256 z"
     style="font-style:normal;font-variant:normal;font-weight:normal;font-stretch:normal;font-size:64px;font-family:Neuropolitical;-inkscape-font-specification:Neuropolitical;fill:#ffffff"
     id="path848" /><path
     d="m 352.97459,163.98445 v -35.264 h -18.304 v -8.384 h 46.4 v 8.384 h -18.304 v 35.264 z"
     style="font-style:normal;font-variant:normal;font-weight:normal;font-stretch:normal;font-size:64px;font-family:Neuropolitical;-inkscape-font-specification:Neuropolitical;fill:#ffffff"
     id="path850" /><path
     d="m 402.57459,163.98445 q -4.8,0 -8,-0.768 -3.2,-0.832 -5.12,-2.56 -1.92,-1.792 -2.752,-4.608 -0.768,-2.88 -0.768,-7.04 v -28.672 h 9.792 v 28.352 q 0,2.048 0.384,3.392 0.448,1.28 1.344,2.112 0.896,0.832 2.368,1.152 1.536,0.32 3.712,0.32 h 14.656 q 2.176,0 3.648,-0.32 1.536,-0.32 2.432,-1.152 0.896,-0.832 1.28,-2.176 0.448,-1.344 0.448,-3.392 v -28.288 h 9.664 v 28.672 q 0,4.16 -0.832,7.04 -0.768,2.816 -2.688,4.608 -1.92,1.728 -5.12,2.56 -3.2,0.768 -8.064,0.768 z"
     style="font-style:normal;font-variant:normal;font-weight:normal;font-stretch:normal;font-size:64px;font-family:Neuropolitical;-inkscape-font-specification:Neuropolitical;fill:#ffffff"
     id="path852" /><path
     d="m 452.6865,151.50445 v 12.48 h -9.728 v -43.648 h 34.944 q 4.672,0 7.808,0.768 3.136,0.704 5.056,2.432 1.92,1.664 2.688,4.352 0.832,2.688 0.832,6.528 v 3.776 q 0,3.904 -0.768,6.464 -0.768,2.56 -2.688,4.096 -1.856,1.536 -4.992,2.176 -3.136,0.576 -7.936,0.576 z m 31.872,-16.704 q 0,-3.52 -1.536,-4.8 -1.472,-1.28 -5.376,-1.28 h -24.96 v 14.912 h 25.088 q 3.84,0 5.312,-1.152 1.472,-1.216 1.472,-4.672 z"
     style="font-style:normal;font-variant:normal;font-weight:normal;font-stretch:normal;font-size:64px;font-family:Neuropolitical;-inkscape-font-specification:Neuropolitical;fill:#ffffff"
     id="path854" /></g></svg>