<?xml version="1.0" encoding="UTF-8" standalone="no"?>
<svg
   xmlns:dc="http://purl.org/dc/elements/1.1/"
   xmlns:cc="http://creativecommons.org/ns#"
   xmlns:rdf="http://www.w3.org/1999/02/22-rdf-syntax-ns#"
   xmlns:svg="http://www.w3.org/2000/svg"
   xmlns="http://www.w3.org/2000/svg"
   xmlns:sodipodi="http://sodipodi.sourceforge.net/DTD/sodipodi-0.dtd"
   xmlns:inkscape="http://www.inkscape.org/namespaces/inkscape"
   width="0.694444in"
   height="0.694444in"
   viewBox="0 0 50 50"
   version="1.1"
   id="svg21"
   sodipodi:docname="Games.svg"
   inkscape:version="0.92.5 (2060ec1f9f, 2020-04-08)">
  <metadata
     id="metadata27">
    <rdf:RDF>
      <cc:Work
         rdf:about="">
        <dc:format>image/svg+xml</dc:format>
        <dc:type
           rdf:resource="http://purl.org/dc/dcmitype/StillImage" />
        <dc:title></dc:title>
      </cc:Work>
    </rdf:RDF>
  </metadata>
  <defs
     id="defs25" />
  <sodipodi:namedview
     pagecolor="#ffffff"
     bordercolor="#666666"
     borderopacity="1"
     objecttolerance="10"
     gridtolerance="10"
     guidetolerance="10"
     inkscape:pageopacity="0"
     inkscape:pageshadow="2"
     inkscape:window-width="1366"
     inkscape:window-height="740"
     id="namedview23"
     showgrid="false"
     inkscape:pagecheckerboard="true"
     inkscape:zoom="7.7437549"
     inkscape:cx="33.333312"
     inkscape:cy="33.333312"
     inkscape:window-x="0"
     inkscape:window-y="0"
     inkscape:window-maximized="1"
     inkscape:current-layer="svg21" />
  <path
     id="Selection"
     fill="none"
     stroke="black"
     stroke-width="1"
     d="M 8.00,6.00            C 8.00,6.00 8.00,10.00 8.00,10.00              8.00,10.00 4.00,10.00 4.00,10.00              4.00,10.00 4.00,15.00 4.00,15.00              4.00,15.00 8.00,15.00 8.00,15.00              8.00,15.00 8.00,19.00 8.00,19.00              8.00,19.00 15.00,19.00 15.00,19.00              15.00,19.00 15.00,6.00 15.00,6.00              15.00,6.00 8.00,6.00 8.00,6.00 Z            M 16.00,10.00            C 16.00,10.00 16.00,15.00 16.00,15.00              16.00,15.00 46.00,15.00 46.00,15.00              46.00,15.00 46.00,10.00 46.00,10.00              46.00,10.00 16.00,10.00 16.00,10.00 Z            M 33.00,22.00            C 33.00,22.00 4.00,22.00 4.00,22.00              4.00,22.00 4.00,28.00 4.00,28.00              4.00,28.00 33.00,28.00 33.00,28.00              34.61,32.58 37.99,32.55 39.54,29.69              40.16,28.15 40.17,22.79 39.54,21.15              38.70,17.82 34.86,16.70 33.00,22.00 Z            M 41.00,22.00            C 41.00,22.00 41.00,28.00 41.00,28.00              41.00,28.00 46.00,28.00 46.00,28.00              46.00,28.00 46.00,22.00 46.00,22.00              46.00,22.00 41.00,22.00 41.00,22.00 Z            M 18.00,35.00            C 18.00,35.00 4.00,35.00 4.00,35.00              4.00,35.00 4.00,40.00 4.00,40.00              4.00,40.00 18.00,40.00 18.00,40.00              19.48,44.21 20.83,43.85 25.00,44.00              25.00,44.00 25.00,31.00 25.00,31.00              20.83,31.15 19.48,30.79 18.00,35.00 Z            M 27.00,35.00            C 27.00,35.00 27.00,40.00 27.00,40.00              27.00,40.00 46.00,40.00 46.00,40.00              46.00,40.00 46.00,35.00 46.00,35.00              46.00,35.00 27.00,35.00 27.00,35.00 Z"
     style="fill:#ffffff;fill-opacity:1;stroke:none" />
</svg>
