<?xml version="1.0" encoding="UTF-8" standalone="no"?>
<svg
   xmlns:dc="http://purl.org/dc/elements/1.1/"
   xmlns:cc="http://creativecommons.org/ns#"
   xmlns:rdf="http://www.w3.org/1999/02/22-rdf-syntax-ns#"
   xmlns:svg="http://www.w3.org/2000/svg"
   xmlns="http://www.w3.org/2000/svg"
   xmlns:sodipodi="http://sodipodi.sourceforge.net/DTD/sodipodi-0.dtd"
   xmlns:inkscape="http://www.inkscape.org/namespaces/inkscape"
   width="0.694444in"
   height="0.694444in"
   viewBox="0 0 50 50"
   version="1.1"
   id="svg3"
   sodipodi:docname="Controllers.svg"
   inkscape:version="0.92.5 (2060ec1f9f, 2020-04-08)">
  <metadata
     id="metadata9">
    <rdf:RDF>
      <cc:Work
         rdf:about="">
        <dc:format>image/svg+xml</dc:format>
        <dc:type
           rdf:resource="http://purl.org/dc/dcmitype/StillImage" />
        <dc:title />
      </cc:Work>
    </rdf:RDF>
  </metadata>
  <defs
     id="defs7" />
  <sodipodi:namedview
     pagecolor="#ffffff"
     bordercolor="#666666"
     borderopacity="1"
     objecttolerance="10"
     gridtolerance="10"
     guidetolerance="10"
     inkscape:pageopacity="0"
     inkscape:pageshadow="2"
     inkscape:window-width="1366"
     inkscape:window-height="740"
     id="namedview5"
     showgrid="false"
     inkscape:pagecheckerboard="true"
     inkscape:zoom="4.6318846"
     inkscape:cx="28.00307"
     inkscape:cy="19.163458"
     inkscape:window-x="0"
     inkscape:window-y="0"
     inkscape:window-maximized="1"
     inkscape:current-layer="svg3" />
  <path
     id="Selection"
     d="m 12.868391,12.586021 c -4.2098191,1.764815 -7.5739984,4.37527 -9.5869906,8.594281 -3.23549447,6.774317 -2.1141015,17.197756 6.8294676,18.199657 6.038976,0.680189 9.982235,-3.152769 14.706792,-3.152769 3.915685,0 7.408547,2.711565 11.949269,3.152769 C 50.609698,40.740337 50.177687,24.103278 43.026508,16.676347 35.480085,8.8357887 30.3419,13.661455 24.81766,13.661455 c -5.064651,0 -5.616156,-2.242786 -11.949269,-1.075434 z m 3.676699,7.675107 c 0,0 0,3.676698 0,3.676698 0,0 3.676698,0 3.676698,0 0,0 0,3.676699 0,3.676699 0,0 -3.676698,0 -3.676698,0 0,0 0,3.676698 0,3.676698 0,0 -2.757524,0 -2.757524,0 0,0 0,-3.676698 0,-3.676698 0,0 -3.676698,0 -3.676698,0 0,0 0,-3.676699 0,-3.676699 0,0 3.676698,0 3.676698,0 0,0 0,-3.676698 0,-3.676698 0,0 2.757524,0 2.757524,0 z m 19.302665,0 c 0,0 0,3.676698 0,3.676698 0,0 -3.676698,-0.919174 -3.676698,-0.919174 0,0 0,-1.83835 0,-1.83835 0,0 3.676698,-0.919174 3.676698,-0.919174 z m -4.595873,3.676698 c 0,0 0.919175,3.676699 0.919175,3.676699 0,0 -3.676699,-0.919174 -3.676699,-0.919174 0,0 0,-1.83835 0,-1.83835 0,0 0.919175,-0.919175 0.919175,-0.919175 0,0 1.838349,0 1.838349,0 z m 9.191746,0.919175 c 0,0 0,1.83835 0,1.83835 0,0 -3.676699,0.919174 -3.676699,0.919174 0,0 0,-3.676699 0,-3.676699 0,0 3.676699,0.919175 3.676699,0.919175 z m -5.515048,2.757524 c 0,0 0.919175,3.676698 0.919175,3.676698 0,0 -3.676698,-0.919175 -3.676698,-0.919175 0,0 0.919174,-2.757523 0.919174,-2.757523 0,0 1.838349,0 1.838349,0 z"
     style="fill:#ffffff;stroke:none;stroke-width:0.91917461;stroke-opacity:1"
     inkscape:connector-curvature="0" />
</svg>
