<?xml version="1.0" encoding="UTF-8" standalone="no"?>
<!-- Generator: Adobe Illustrator 16.0.0, SVG Export Plug-In . SVG Version: 6.00 Build 0)  -->

<svg
   xmlns:dc="http://purl.org/dc/elements/1.1/"
   xmlns:cc="http://creativecommons.org/ns#"
   xmlns:rdf="http://www.w3.org/1999/02/22-rdf-syntax-ns#"
   xmlns:svg="http://www.w3.org/2000/svg"
   xmlns="http://www.w3.org/2000/svg"
   xmlns:sodipodi="http://sodipodi.sourceforge.net/DTD/sodipodi-0.dtd"
   xmlns:inkscape="http://www.inkscape.org/namespaces/inkscape"
   version="1.1"
   id="Layer_1"
   x="0px"
   y="0px"
   width="400"
   height="400"
   viewBox="0 0 400 400"
   enable-background="new 0 0 1280 720"
   xml:space="preserve"
   sodipodi:docname="Emuelec.svg"
   inkscape:version="0.92.5 (2060ec1f9f, 2020-04-08)"><metadata
   id="metadata289"><rdf:RDF><cc:Work
       rdf:about=""><dc:format>image/svg+xml</dc:format><dc:type
         rdf:resource="http://purl.org/dc/dcmitype/StillImage" /><dc:title /></cc:Work></rdf:RDF></metadata><defs
   id="defs287">
	
	
	
	
	
	
	
	
	
	
	
	
	
	
	

		
		
		
		
		
		
		
		
		
		
		
		
		
		
		
		
		
		
		
		
		
		
		
		
		
		
		
		
		
		
		
		
		
		
		
		
		
		
		
		
		
		
		
		
		
		
		
		
		
		
		
		
		
		
		
		
		
		
		
		
		
		
		
	</defs><sodipodi:namedview
   pagecolor="#ffffff"
   bordercolor="#666666"
   borderopacity="1"
   objecttolerance="10"
   gridtolerance="10"
   guidetolerance="10"
   inkscape:pageopacity="0"
   inkscape:pageshadow="2"
   inkscape:window-width="1366"
   inkscape:window-height="740"
   id="namedview285"
   showgrid="false"
   inkscape:pagecheckerboard="true"
   inkscape:zoom="0.70580124"
   inkscape:cx="693.1719"
   inkscape:cy="308.98688"
   inkscape:window-x="0"
   inkscape:window-y="0"
   inkscape:window-maximized="1"
   inkscape:current-layer="Layer_1" />
<g
   id="Layer_2"
   transform="translate(0,-320)">
</g>



<path
   style="fill:#ffffff;stroke-width:1.36907589;stroke-linecap:round;stroke-linejoin:round"
   d="M 285.79282,79.642157 A 101.81863,193.45332 67.774803 0 0 178.9076,99.714941 101.81863,193.45332 67.774803 0 0 23.146677,265.20662 101.81863,193.45332 67.774803 0 0 230.13632,298.20085 101.81863,193.45332 67.774803 0 0 385.89725,132.70774 101.81863,193.45332 67.774803 0 0 285.79282,79.642157 Z m -15.67384,22.513773 c 1.32462,0.0428 2.78159,0.73862 4.05435,1.24282 3.5885,1.42326 8.17631,3.37687 11.4162,4.67001 0.2694,0.21636 0.65837,0.3201 1.03666,0.4311 12.83089,5.14502 26.62065,10.43109 40.12539,15.48209 1.32297,0.48997 3.10997,0.923 2.0762,2.3314 -0.18031,0.34219 -0.59545,0.44697 -0.77857,0.77857 -1.10943,1.05559 -2.25542,2.07116 -3.4589,3.02635 -0.25171,0.23755 -0.56927,0.41137 -0.77857,0.69206 -0.41081,0.45745 -0.87853,0.85332 -1.38268,1.20968 -1.54287,1.31152 -3.02839,2.68361 -4.49843,4.06444 -0.49709,0.54724 -1.02988,1.04571 -1.64221,1.47063 -0.28426,0.26302 -0.6169,0.47951 -0.86509,0.77858 -0.4285,0.4935 -0.93678,0.91157 -1.47063,1.29618 -0.2482,0.24181 -0.59827,0.38521 -0.77858,0.69206 -0.2086,0.34221 -0.55676,0.53677 -0.86364,0.77858 -0.30617,0.29907 -0.71471,0.49743 -0.95159,0.86509 -0.24183,0.36763 -0.60512,0.60416 -0.95159,0.86365 -1.26924,1.09517 -2.51848,2.21004 -3.71841,3.3738 -0.22345,0.32806 -0.52784,0.57209 -0.86653,0.77714 -0.97225,0.84701 -1.93408,1.69732 -2.85188,2.59524 -0.22487,0.32806 -0.52783,0.57354 -0.86653,0.77859 -0.28424,0.26301 -0.66212,0.43492 -0.86364,0.77711 -0.21354,0.27787 -0.43637,0.54928 -0.78002,0.69351 -0.27718,0.2701 -0.64517,0.44909 -0.86508,0.77714 -0.18738,0.30261 -0.47947,0.50544 -0.77857,0.6935 -0.28425,0.26301 -0.61549,0.4816 -0.86508,0.77715 -0.18738,0.30259 -0.47803,0.50613 -0.77713,0.69351 -0.2786,0.27007 -0.64518,0.44906 -0.86508,0.77711 -0.17678,0.31676 -0.51699,0.4694 -0.78004,0.69352 -0.62294,0.47512 -1.17787,1.0113 -1.72871,1.55571 -0.17677,0.31674 -0.51483,0.46864 -0.77857,0.69206 -0.33587,0.32806 -0.76375,0.56202 -1.0381,0.95158 -0.15485,0.2807 -0.43115,0.43234 -0.69206,0.60556 -0.35213,0.30968 -0.71001,0.61572 -1.0381,0.95015 -0.18102,0.25595 -0.3859,0.47971 -0.69207,0.60556 -0.5982,0.50481 -1.1779,1.01274 -1.72873,1.55716 -0.18101,0.25593 -0.38518,0.4797 -0.69207,0.60554 -1.17376,1.016 -2.34524,2.03536 -3.46032,3.11286 -0.1796,0.25595 -0.38373,0.4818 -0.69061,0.60411 -0.33587,0.32808 -0.76376,0.56626 -1.0381,0.9516 -0.18739,0.3026 -0.47951,0.50469 -0.78003,0.69207 -0.30616,0.29906 -0.71259,0.49669 -0.95159,0.86364 -0.18596,0.3026 -0.47803,0.50399 -0.77713,0.69206 -0.88669,0.75651 -1.74886,1.54314 -2.59525,2.33571 -0.47445,0.56563 -1.06593,1.01177 -1.6422,1.46921 -0.2779,0.27009 -0.64448,0.45052 -0.8651,0.77857 -0.18737,0.30262 -0.47947,0.504 -0.77857,0.69207 -1.38447,1.18498 -2.7379,2.39673 -4.06299,3.6319 -0.42638,0.44331 -0.85951,0.87525 -1.38558,1.20967 -0.2489,0.2411 -0.59755,0.38523 -0.77857,0.69207 -0.34082,0.69925 -1.87675,1.17524 -1.81524,2.24922 0.0573,1.11356 3.19946,1.93056 4.23747,2.33427 4.69509,1.83403 10.10712,3.43631 14.35604,5.18762 0.14424,0.16897 0.39932,0.23124 0.69206,0.25951 5.05499,1.71878 10.00912,3.53512 14.9616,5.36207 0.14283,0.16898 0.39859,0.23054 0.69063,0.25953 1.82005,0.59815 3.64736,1.19189 5.36205,1.90174 0.23689,0.10747 0.4611,0.2278 0.77859,0.26385 7.86144,2.67327 16.49508,5.65543 24.73269,8.55566 1.28903,0.45462 4.00804,0.90546 2.85477,2.59524 -0.37121,0.34999 -0.79016,0.65062 -1.1246,1.03667 -0.18738,0.3026 -0.48092,0.504 -0.78002,0.69206 -1.21054,1.04146 -2.39847,2.09712 -3.54396,3.19937 -0.15627,0.28069 -0.43399,0.43232 -0.69351,0.60554 -1.16386,0.96935 -2.27705,1.98844 -3.37093,3.02636 -0.21355,0.27715 -0.43779,0.54857 -0.78001,0.69351 -1.21055,1.04073 -2.40062,2.09567 -3.5454,3.19792 -0.18101,0.26018 -0.38448,0.4797 -0.69207,0.60555 -0.56496,0.47159 -1.13805,0.93684 -1.64221,1.47065 -0.65193,0.64835 -1.3189,1.27859 -2.07619,1.81522 -0.28426,0.26302 -0.61619,0.48304 -0.86509,0.77858 -0.42567,0.44331 -0.85805,0.87454 -1.38413,1.20968 -0.27718,0.27008 -0.64376,0.4505 -0.86508,0.77857 -0.18737,0.30261 -0.47804,0.5047 -0.77714,0.69206 -0.82942,0.69854 -1.65503,1.40264 -2.42223,2.16269 -0.61941,0.62361 -1.26491,1.21332 -1.98968,1.72874 -0.26798,0.22272 -0.60534,0.3746 -0.77859,0.69206 -0.84638,0.82793 -1.71866,1.62443 -2.6803,2.33429 -0.22768,0.20574 -0.54711,0.32132 -0.69207,0.60555 -3.75042,3.39796 -7.61579,6.68258 -11.50127,9.94267 -0.48294,0.32454 -0.90377,0.7103 -1.29762,1.12461 -2.37017,2.09351 -5.16803,4.5537 -7.78286,6.74476 -1.19568,1.00187 -2.38159,2.38238 -4.32395,2.33572 -1.04156,-0.0255 -2.49306,-0.76852 -3.71987,-1.21111 -17.79608,-6.43818 -36.3946,-13.25891 -53.69997,-19.80173 -0.14848,-0.16899 -0.40428,-0.23053 -0.69207,-0.25951 -2.71027,-0.92268 -5.78681,-2.1438 -8.82094,-3.19938 -1.32651,-0.46098 -2.37457,-1.03447 -3.80927,-0.51905 -1.40922,0.50411 -2.88756,2.08298 -4.23456,3.19937 -14.78741,12.257 -29.71502,24.30168 -44.70889,36.31759 -3.97668,3.18444 -8.12842,6.46387 -12.27552,9.85761 -1.64752,1.34829 -3.08428,3.21086 -5.27556,3.28298 -0.98003,0.0326 -2.63398,-0.76781 -3.80491,-1.21111 -8.68804,-3.2707 -17.73521,-6.76203 -26.20335,-10.03062 -0.14778,-0.16899 -0.40421,-0.227 -0.68917,-0.25953 -8.03186,-3.03385 -16.625045,-6.53168 -24.910043,-9.85329 -1.296808,-0.52249 -3.174149,-0.83962 -3.285875,-1.81956 -0.125857,-1.07397 1.510548,-1.97398 2.335727,-2.68031 13.274236,-11.38171 27.633511,-22.44667 40.990481,-33.46426 0.35707,-0.21989 0.65601,-0.49364 0.95158,-0.77857 6.4713,-5.46178 13.27202,-10.59635 19.63159,-16.16984 0.15132,-0.23755 0.42448,-0.81891 0.085,-1.03809 -1.21408,-0.95519 -2.7198,-1.49783 -4.15096,-2.07474 -20.57424,-8.25808 -40.94277,-17.12125 -61.311252,-25.85445 -1.243067,-0.53307 -3.794557,-1.20422 -3.891424,-2.24919 -0.108191,-1.14257 1.912891,-2.26629 2.853325,-3.02635 15.947746,-12.91666 32.037331,-26.12846 47.563651,-39.43045 0.21708,-0.21282 0.52237,-0.33901 0.69207,-0.60556 0.52608,-0.54371 1.08032,-1.04781 1.72873,-1.4692 0.21636,-0.21281 0.52165,-0.33901 0.69206,-0.60556 0.43204,-0.48997 1.04266,-0.80357 1.90319,-0.86508 0.54446,-0.0255 1.0223,0.0158 1.46919,0.0879 1.53863,0.53664 3.00837,1.14213 4.41336,1.81523 0.22062,0.18029 0.50865,0.29591 0.8622,0.35036 21.13992,8.63208 42.01022,17.53475 63.47541,25.85009 0.21211,0.0326 0.83683,0.0655 1.1246,-0.0864 1.03802,-0.31322 1.74292,-0.96534 2.50729,-1.55571 0.56215,-0.4723 1.13526,-0.93755 1.64367,-1.47065 0.15061,-0.28069 0.43184,-0.43304 0.69205,-0.60555 0.54377,-0.432 1.07348,-0.88211 1.55572,-1.38269 0.44616,-0.52956 0.99146,-0.96981 1.55714,-1.38413 0.54446,-0.43199 1.07348,-0.88356 1.55571,-1.38413 0.17678,-0.25594 0.38237,-0.47826 0.69207,-0.60411 1.41985,-1.20336 2.81175,-2.43587 4.1524,-3.71841 0.17607,-0.25595 0.38094,-0.47971 0.69206,-0.60556 1.19922,-1.045 2.40274,-2.09004 3.54539,-3.19937 0.14071,-0.23402 0.33615,-0.41088 0.60556,-0.51904 0.30617,-0.29908 0.70832,-0.49743 0.95014,-0.86508 0.18031,-0.30262 0.47665,-0.504 0.77859,-0.69207 0.57627,-0.46099 1.11757,-0.95732 1.64364,-1.46921 0.46033,-0.51542 0.98724,-0.97333 1.55716,-1.38413 0.30616,-0.29906 0.69063,-0.51934 0.95014,-0.86508 0.15132,-0.28068 0.43256,-0.4316 0.69207,-0.60411 1.56055,-1.40133 3.15399,-2.7824 4.67,-4.23746 0.17677,-0.25595 0.38236,-0.47971 0.69207,-0.60557 1.9346,-1.69686 3.84488,-3.41509 5.70666,-5.18761 0.20505,-0.34219 0.55747,-0.53747 0.86364,-0.77857 0.27436,-0.27009 0.64237,-0.45051 0.86651,-0.77857 0.64488,-0.67732 1.31891,-1.32905 2.0762,-1.90174 2.15452,-1.93443 4.29443,-3.88799 6.39874,-5.87967 0.18314,-0.30261 0.47523,-0.504 0.77856,-0.69207 0.30688,-0.29907 0.70977,-0.49814 0.9516,-0.86508 0.2199,-0.32807 0.52285,-0.57353 0.86508,-0.77858 0.28496,-0.26301 0.61194,-0.48304 0.86508,-0.77857 0.23758,-0.36765 0.60512,-0.60415 0.9516,-0.86364 1.06982,-0.91489 2.09746,-1.87837 3.11284,-2.85477 0.036,-0.0749 0.0755,-0.15464 0.17303,-0.17301 2.25278,-2.04259 4.5471,-4.04217 6.74475,-6.13921 0.18455,-0.30259 0.47594,-0.504 0.77858,-0.69205 0.63002,-0.5225 1.22763,-1.0766 1.81522,-1.64222 0.63107,-0.62679 1.37803,-0.83738 2.1728,-0.81174 z"
   id="path432"
   inkscape:connector-curvature="0" /></svg>