<?xml version="1.0" encoding="UTF-8" standalone="no"?>
<svg
   xmlns:dc="http://purl.org/dc/elements/1.1/"
   xmlns:cc="http://creativecommons.org/ns#"
   xmlns:rdf="http://www.w3.org/1999/02/22-rdf-syntax-ns#"
   xmlns:svg="http://www.w3.org/2000/svg"
   xmlns="http://www.w3.org/2000/svg"
   xmlns:sodipodi="http://sodipodi.sourceforge.net/DTD/sodipodi-0.dtd"
   xmlns:inkscape="http://www.inkscape.org/namespaces/inkscape"
   width="0.694444in"
   height="0.694444in"
   viewBox="0 0 50 50"
   version="1.1"
   id="svg30"
   sodipodi:docname="Updates.svg"
   inkscape:version="0.92.5 (2060ec1f9f, 2020-04-08)">
  <metadata
     id="metadata36">
    <rdf:RDF>
      <cc:Work
         rdf:about="">
        <dc:format>image/svg+xml</dc:format>
        <dc:type
           rdf:resource="http://purl.org/dc/dcmitype/StillImage" />
        <dc:title></dc:title>
      </cc:Work>
    </rdf:RDF>
  </metadata>
  <defs
     id="defs34" />
  <sodipodi:namedview
     pagecolor="#ffffff"
     bordercolor="#666666"
     borderopacity="1"
     objecttolerance="10"
     gridtolerance="10"
     guidetolerance="10"
     inkscape:pageopacity="0"
     inkscape:pageshadow="2"
     inkscape:window-width="1366"
     inkscape:window-height="740"
     id="namedview32"
     showgrid="false"
     inkscape:pagecheckerboard="true"
     inkscape:zoom="7.7437549"
     inkscape:cx="33.333312"
     inkscape:cy="33.333312"
     inkscape:window-x="0"
     inkscape:window-y="0"
     inkscape:window-maximized="1"
     inkscape:current-layer="svg30" />
  <path
     id="Selection"
     fill="none"
     stroke="black"
     stroke-width="1"
     d="M 22.00,4.00            C 22.00,4.00 22.00,9.00 22.00,9.00              22.00,9.00 28.00,9.00 28.00,9.00              28.00,9.00 28.00,4.00 28.00,4.00              28.00,4.00 22.00,4.00 22.00,4.00 Z            M 22.00,10.00            C 22.00,10.00 22.00,15.00 22.00,15.00              22.00,15.00 28.00,15.00 28.00,15.00              28.00,15.00 28.00,10.00 28.00,10.00              28.00,10.00 22.00,10.00 22.00,10.00 Z            M 22.00,16.00            C 22.00,16.00 22.00,29.00 22.00,29.00              22.00,29.00 17.00,24.00 17.00,24.00              15.95,24.93 14.75,25.58 14.33,27.11              13.44,30.43 21.05,37.93 24.00,38.66              27.63,39.57 35.75,31.48 35.81,28.00              35.84,26.25 34.82,25.31 34.00,24.00              34.00,24.00 28.00,29.00 28.00,29.00              28.00,29.00 28.00,16.00 28.00,16.00              28.00,16.00 22.00,16.00 22.00,16.00 Z            M 4.00,29.00            C 4.00,43.98 2.70,45.84 11.00,46.00              11.00,46.00 38.00,46.00 38.00,46.00              39.82,45.99 42.92,46.15 44.40,44.98              46.26,43.51 45.98,40.13 46.00,38.00              46.00,38.00 46.00,29.00 46.00,29.00              46.00,29.00 41.00,29.00 41.00,29.00              41.00,29.00 41.00,41.00 41.00,41.00              41.00,41.00 9.00,41.00 9.00,41.00              9.00,41.00 9.00,29.00 9.00,29.00              9.00,29.00 4.00,29.00 4.00,29.00 Z"
     style="fill:#ffffff;fill-opacity:1;stroke:none" />
</svg>
